<?xml version="1.0" encoding="UTF-8" standalone="no"?>
<!DOCTYPE svg PUBLIC "-//W3C//DTD SVG 1.1//EN"
 "http://www.w3.org/Graphics/SVG/1.1/DTD/svg11.dtd">
<!-- Generated by graphviz version 2.38.0 (20140413.2041)
 -->
<!-- Title: Graphical Class Hierarchy Pages: 1 -->
<svg width="375pt" height="142pt"
 viewBox="0.00 0.00 375.00 142.00" xmlns="http://www.w3.org/2000/svg" xmlns:xlink="http://www.w3.org/1999/xlink">
<g id="graph0" class="graph" transform="scale(1 1) rotate(0) translate(4 138)">
<title>Graphical Class Hierarchy</title>
<polygon fill="white" stroke="none" points="-4,4 -4,-138 371,-138 371,4 -4,4"/>
<!-- Node0 -->
<g id="node1" class="node"><title>Node0</title>
<g id="a_node1"><a xlink:href="classarm__compute_1_1_i_array.xhtml" target="_top" xlink:title="Array of type T.">
<polygon fill="white" stroke="black" points="0,-57.5 0,-76.5 72,-76.5 72,-57.5 0,-57.5"/>
<text text-anchor="middle" x="36" y="-64.5" font-family="Helvetica,sans-Serif" font-size="10.00">IArray&lt; T &gt;</text>
</a>
</g>
</g>
<!-- Node1 -->
<g id="node2" class="node"><title>Node1</title>
<g id="a_node2"><a xlink:href="classarm__compute_1_1_array.xhtml" target="_top" xlink:title="Basic implementation of the IArray interface which allocates a static number of T values.">
<polygon fill="white" stroke="black" points="129.5,-114.5 129.5,-133.5 199.5,-133.5 199.5,-114.5 129.5,-114.5"/>
<text text-anchor="middle" x="164.5" y="-121.5" font-family="Helvetica,sans-Serif" font-size="10.00">Array&lt; T &gt;</text>
</a>
</g>
</g>
<!-- Node0&#45;&gt;Node1 -->
<g id="edge1" class="edge"><title>Node0&#45;&gt;Node1</title>
<path fill="none" stroke="midnightblue" d="M62.0373,-81.6808C75.4169,-89.196 92.3213,-98.1738 108,-105 115.844,-108.415 124.515,-111.635 132.627,-114.419"/>
<polygon fill="midnightblue" stroke="midnightblue" points="63.4062,-78.4324 52.9856,-76.5188 59.9385,-84.5131 63.4062,-78.4324"/>
</g>
<!-- Node2 -->
<g id="node3" class="node"><title>Node2</title>
<g id="a_node3"><a xlink:href="classarm__compute_1_1_i_c_l_array.xhtml" target="_top" xlink:title="Interface for OpenCL Array.">
<polygon fill="white" stroke="black" points="122.5,-76.5 122.5,-95.5 206.5,-95.5 206.5,-76.5 122.5,-76.5"/>
<text text-anchor="middle" x="164.5" y="-83.5" font-family="Helvetica,sans-Serif" font-size="10.00">ICLArray&lt; T &gt;</text>
</a>
</g>
</g>
<!-- Node0&#45;&gt;Node2 -->
<g id="edge2" class="edge"><title>Node0&#45;&gt;Node2</title>
<path fill="none" stroke="midnightblue" d="M82.3735,-73.815C95.3639,-75.7661 109.45,-77.8819 122.183,-79.7943"/>
<polygon fill="midnightblue" stroke="midnightblue" points="82.6463,-70.3168 72.2373,-72.2926 81.6065,-77.2391 82.6463,-70.3168"/>
</g>
<!-- Node4 -->
<g id="node5" class="node"><title>Node4</title>
<g id="a_node5"><a xlink:href="classarm__compute_1_1_i_c_l_array.xhtml" target="_top" xlink:title=" ">
<polygon fill="white" stroke="black" points="108,-38.5 108,-57.5 221,-57.5 221,-38.5 108,-38.5"/>
<text text-anchor="middle" x="164.5" y="-45.5" font-family="Helvetica,sans-Serif" font-size="10.00">ICLArray&lt; cl_float &gt;</text>
</a>
</g>
</g>
<!-- Node0&#45;&gt;Node4 -->
<g id="edge4" class="edge"><title>Node0&#45;&gt;Node4</title>
<path fill="none" stroke="midnightblue" d="M82.3298,-60.1916C90.5185,-58.9616 99.144,-57.6661 107.592,-56.3972"/>
<polygon fill="midnightblue" stroke="midnightblue" points="81.6065,-56.7609 72.2373,-61.7074 82.6463,-63.6832 81.6065,-56.7609"/>
</g>
<!-- Node6 -->
<g id="node7" class="node"><title>Node6</title>
<g id="a_node7"><a xlink:href="classarm__compute_1_1_i_c_l_array.xhtml" target="_top" xlink:title=" ">
<polygon fill="white" stroke="black" points="112.5,-0.5 112.5,-19.5 216.5,-19.5 216.5,-0.5 112.5,-0.5"/>
<text text-anchor="middle" x="164.5" y="-7.5" font-family="Helvetica,sans-Serif" font-size="10.00">ICLArray&lt; cl_int &gt;</text>
</a>
</g>
</g>
<!-- Node0&#45;&gt;Node6 -->
<g id="edge6" class="edge"><title>Node0&#45;&gt;Node6</title>
<path fill="none" stroke="midnightblue" d="M62.0373,-52.3192C75.4169,-44.804 92.3213,-35.8262 108,-29 115.844,-25.585 124.515,-22.3655 132.627,-19.5808"/>
<polygon fill="midnightblue" stroke="midnightblue" points="59.9385,-49.4869 52.9856,-57.4812 63.4062,-55.5676 59.9385,-49.4869"/>
</g>
<!-- Node3 -->
<g id="node4" class="node"><title>Node3</title>
<g id="a_node4"><a xlink:href="classarm__compute_1_1_c_l_array.xhtml" target="_top" xlink:title="CLArray implementation.">
<polygon fill="white" stroke="black" points="271,-76.5 271,-95.5 353,-95.5 353,-76.5 271,-76.5"/>
<text text-anchor="middle" x="312" y="-83.5" font-family="Helvetica,sans-Serif" font-size="10.00">CLArray&lt; T &gt;</text>
</a>
</g>
</g>
<!-- Node2&#45;&gt;Node3 -->
<g id="edge3" class="edge"><title>Node2&#45;&gt;Node3</title>
<path fill="none" stroke="midnightblue" d="M216.972,-86C234.662,-86 254.191,-86 270.847,-86"/>
<polygon fill="midnightblue" stroke="midnightblue" points="216.805,-82.5001 206.805,-86 216.805,-89.5001 216.805,-82.5001"/>
</g>
<!-- Node5 -->
<g id="node6" class="node"><title>Node5</title>
<g id="a_node6"><a xlink:href="classarm__compute_1_1_c_l_array.xhtml" target="_top" xlink:title=" ">
<polygon fill="white" stroke="black" points="257,-38.5 257,-57.5 367,-57.5 367,-38.5 257,-38.5"/>
<text text-anchor="middle" x="312" y="-45.5" font-family="Helvetica,sans-Serif" font-size="10.00">CLArray&lt; cl_float &gt;</text>
</a>
</g>
</g>
<!-- Node4&#45;&gt;Node5 -->
<g id="edge5" class="edge"><title>Node4&#45;&gt;Node5</title>
<path fill="none" stroke="midnightblue" d="M231.608,-48C240.103,-48 248.719,-48 256.989,-48"/>
<polygon fill="midnightblue" stroke="midnightblue" points="231.338,-44.5001 221.338,-48 231.338,-51.5001 231.338,-44.5001"/>
</g>
<!-- Node7 -->
<g id="node8" class="node"><title>Node7</title>
<g id="a_node8"><a xlink:href="classarm__compute_1_1_c_l_array.xhtml" target="_top" xlink:title=" ">
<polygon fill="white" stroke="black" points="261.5,-0.5 261.5,-19.5 362.5,-19.5 362.5,-0.5 261.5,-0.5"/>
<text text-anchor="middle" x="312" y="-7.5" font-family="Helvetica,sans-Serif" font-size="10.00">CLArray&lt; cl_int &gt;</text>
</a>
</g>
</g>
<!-- Node6&#45;&gt;Node7 -->
<g id="edge7" class="edge"><title>Node6&#45;&gt;Node7</title>
<path fill="none" stroke="midnightblue" d="M227.093,-10C238.452,-10 250.184,-10 261.143,-10"/>
<polygon fill="midnightblue" stroke="midnightblue" points="226.798,-6.5001 216.798,-10 226.798,-13.5001 226.798,-6.5001"/>
</g>
</g>
</svg>
