<?xml version="1.0" encoding="UTF-8" standalone="no"?>
<!DOCTYPE svg PUBLIC "-//W3C//DTD SVG 1.1//EN"
 "http://www.w3.org/Graphics/SVG/1.1/DTD/svg11.dtd">
<!-- Generated by graphviz version 2.38.0 (20140413.2041)
 -->
<!-- Title: Graphical Class Hierarchy Pages: 1 -->
<svg width="436pt" height="66pt"
 viewBox="0.00 0.00 436.00 66.00" xmlns="http://www.w3.org/2000/svg" xmlns:xlink="http://www.w3.org/1999/xlink">
<g id="graph0" class="graph" transform="scale(1 1) rotate(0) translate(4 62)">
<title>Graphical Class Hierarchy</title>
<polygon fill="white" stroke="none" points="-4,4 -4,-62 432,-62 432,4 -4,4"/>
<!-- Node0 -->
<g id="node1" class="node"><title>Node0</title>
<g id="a_node1"><a xlink:href="classarm__compute_1_1_i_lifetime_manager.xhtml" target="_top" xlink:title="Interface for managing the lifetime of objects.">
<polygon fill="white" stroke="black" points="0,-19.5 0,-38.5 99,-38.5 99,-19.5 0,-19.5"/>
<text text-anchor="middle" x="49.5" y="-26.5" font-family="Helvetica,sans-Serif" font-size="10.00">ILifetimeManager</text>
</a>
</g>
</g>
<!-- Node1 -->
<g id="node2" class="node"><title>Node1</title>
<g id="a_node2"><a xlink:href="classarm__compute_1_1_i_simple_lifetime_manager.xhtml" target="_top" xlink:title="Abstract class of the simple lifetime manager interface.">
<polygon fill="white" stroke="black" points="135,-19.5 135,-38.5 267,-38.5 267,-19.5 135,-19.5"/>
<text text-anchor="middle" x="201" y="-26.5" font-family="Helvetica,sans-Serif" font-size="10.00">ISimpleLifetimeManager</text>
</a>
</g>
</g>
<!-- Node0&#45;&gt;Node1 -->
<g id="edge1" class="edge"><title>Node0&#45;&gt;Node1</title>
<path fill="none" stroke="midnightblue" d="M109.15,-29C117.581,-29 126.299,-29 134.847,-29"/>
<polygon fill="midnightblue" stroke="midnightblue" points="109.038,-25.5001 99.0384,-29 109.038,-32.5001 109.038,-25.5001"/>
</g>
<!-- Node2 -->
<g id="node3" class="node"><title>Node2</title>
<g id="a_node3"><a xlink:href="classarm__compute_1_1_blob_lifetime_manager.xhtml" target="_top" xlink:title="Concrete class that tracks the lifetime of registered tensors and calculates the systems memory requi...">
<polygon fill="white" stroke="black" points="306.5,-38.5 306.5,-57.5 424.5,-57.5 424.5,-38.5 306.5,-38.5"/>
<text text-anchor="middle" x="365.5" y="-45.5" font-family="Helvetica,sans-Serif" font-size="10.00">BlobLifetimeManager</text>
</a>
</g>
</g>
<!-- Node1&#45;&gt;Node2 -->
<g id="edge2" class="edge"><title>Node1&#45;&gt;Node2</title>
<path fill="none" stroke="midnightblue" d="M277.288,-37.8029C287.071,-38.9467 296.969,-40.1041 306.413,-41.2083"/>
<polygon fill="midnightblue" stroke="midnightblue" points="277.497,-34.3036 267.159,-36.6185 276.684,-41.2563 277.497,-34.3036"/>
</g>
<!-- Node3 -->
<g id="node4" class="node"><title>Node3</title>
<g id="a_node4"><a xlink:href="classarm__compute_1_1_offset_lifetime_manager.xhtml" target="_top" xlink:title="Concrete class that tracks the lifetime of registered tensors and calculates the systems memory requi...">
<polygon fill="white" stroke="black" points="303,-0.5 303,-19.5 428,-19.5 428,-0.5 303,-0.5"/>
<text text-anchor="middle" x="365.5" y="-7.5" font-family="Helvetica,sans-Serif" font-size="10.00">OffsetLifetimeManager</text>
</a>
</g>
</g>
<!-- Node1&#45;&gt;Node3 -->
<g id="edge3" class="edge"><title>Node1&#45;&gt;Node3</title>
<path fill="none" stroke="midnightblue" d="M277.155,-20.2126C285.726,-19.2105 294.388,-18.1977 302.756,-17.2193"/>
<polygon fill="midnightblue" stroke="midnightblue" points="276.684,-16.7437 267.159,-21.3815 277.497,-23.6964 276.684,-16.7437"/>
</g>
</g>
</svg>
