<?xml version="1.0" encoding="UTF-8" standalone="no"?>
<!DOCTYPE svg PUBLIC "-//W3C//DTD SVG 1.1//EN"
 "http://www.w3.org/Graphics/SVG/1.1/DTD/svg11.dtd">
<!-- Generated by graphviz version 2.40.1 (20161225.0304)
 -->
<!-- Title: ClGemmLowpMatrixMultiplyReshapedOnlyRhsMMULKernel Pages: 1 -->
<svg width="172pt" height="151pt"
 viewBox="0.00 0.00 172.00 151.00" xmlns="http://www.w3.org/2000/svg" xmlns:xlink="http://www.w3.org/1999/xlink">
<g id="graph0" class="graph" transform="scale(1 1) rotate(0) translate(4 147)">
<title>ClGemmLowpMatrixMultiplyReshapedOnlyRhsMMULKernel</title>
<polygon fill="#ffffff" stroke="transparent" points="-4,4 -4,-147 168,-147 168,4 -4,4"/>
<!-- Node0 -->
<g id="node1" class="node">
<title>Node0</title>
<polygon fill="#bfbfbf" stroke="#000000" points="0,-.5 0,-30.5 164,-30.5 164,-.5 0,-.5"/>
<text text-anchor="start" x="8" y="-18.5" font-family="Helvetica,sans-Serif" font-size="10.00" fill="#000000">ClGemmLowpMatrixMultiply</text>
<text text-anchor="middle" x="82" y="-7.5" font-family="Helvetica,sans-Serif" font-size="10.00" fill="#000000">ReshapedOnlyRhsMMULKernel</text>
</g>
<!-- Node1 -->
<g id="node2" class="node">
<title>Node1</title>
<g id="a_node2"><a xlink:href="classarm__compute_1_1_i_c_l_kernel.xhtml" target="_top" xlink:title="Common interface for all the OpenCL kernels. ">
<polygon fill="#ffffff" stroke="#000000" points="52,-67.5 52,-86.5 112,-86.5 112,-67.5 52,-67.5"/>
<text text-anchor="middle" x="82" y="-74.5" font-family="Helvetica,sans-Serif" font-size="10.00" fill="#000000">IClKernel</text>
</a>
</g>
</g>
<!-- Node1&#45;&gt;Node0 -->
<g id="edge1" class="edge">
<title>Node1&#45;&gt;Node0</title>
<path fill="none" stroke="#191970" d="M82,-57.3693C82,-48.681 82,-38.6241 82,-30.5446"/>
<polygon fill="#191970" stroke="#191970" points="78.5001,-57.3906 82,-67.3906 85.5001,-57.3907 78.5001,-57.3906"/>
</g>
<!-- Node2 -->
<g id="node3" class="node">
<title>Node2</title>
<g id="a_node3"><a xlink:href="classarm__compute_1_1_i_kernel.xhtml" target="_top" xlink:title="Common information for all the kernels. ">
<polygon fill="#ffffff" stroke="#000000" points="57,-123.5 57,-142.5 107,-142.5 107,-123.5 57,-123.5"/>
<text text-anchor="middle" x="82" y="-130.5" font-family="Helvetica,sans-Serif" font-size="10.00" fill="#000000">IKernel</text>
</a>
</g>
</g>
<!-- Node2&#45;&gt;Node1 -->
<g id="edge2" class="edge">
<title>Node2&#45;&gt;Node1</title>
<path fill="none" stroke="#191970" d="M82,-113.1575C82,-104.155 82,-93.9199 82,-86.6427"/>
<polygon fill="#191970" stroke="#191970" points="78.5001,-113.2455 82,-123.2455 85.5001,-113.2456 78.5001,-113.2455"/>
</g>
</g>
</svg>
