<?xml version="1.0" encoding="UTF-8" standalone="no"?>
<!DOCTYPE svg PUBLIC "-//W3C//DTD SVG 1.1//EN"
 "http://www.w3.org/Graphics/SVG/1.1/DTD/svg11.dtd">
<!-- Generated by graphviz version 2.40.1 (20161225.0304)
 -->
<!-- Title: CpuGemmLowpQuantizeDownInt32ToInt16ScaleByFixedPointKernel Pages: 1 -->
<svg width="367pt" height="299pt"
 viewBox="0.00 0.00 367.00 299.00" xmlns="http://www.w3.org/2000/svg" xmlns:xlink="http://www.w3.org/1999/xlink">
<g id="graph0" class="graph" transform="scale(1 1) rotate(0) translate(4 295)">
<title>CpuGemmLowpQuantizeDownInt32ToInt16ScaleByFixedPointKernel</title>
<polygon fill="#ffffff" stroke="transparent" points="-4,4 -4,-295 363,-295 363,4 -4,4"/>
<!-- Node0 -->
<g id="node1" class="node">
<title>Node0</title>
<polygon fill="#bfbfbf" stroke="#000000" points="23,-.5 23,-30.5 213,-30.5 213,-.5 23,-.5"/>
<text text-anchor="start" x="31" y="-18.5" font-family="Helvetica,sans-Serif" font-size="10.00" fill="#000000">CpuGemmLowpQuantizeDownInt32</text>
<text text-anchor="middle" x="118" y="-7.5" font-family="Helvetica,sans-Serif" font-size="10.00" fill="#000000">ToInt16ScaleByFixedPointKernel</text>
</g>
<!-- Node1 -->
<g id="node2" class="node">
<title>Node1</title>
<g id="a_node2"><a xlink:href="classarm__compute_1_1cpu_1_1_i_cpu_kernel.xhtml" target="_top" xlink:title="ICpuKernel\&lt; CpuGemmLowpQuantize\lDownInt32ToInt16ScaleByFixedPointKernel \&gt;">
<polygon fill="#ffffff" stroke="#000000" points="0,-68.5 0,-98.5 236,-98.5 236,-68.5 0,-68.5"/>
<text text-anchor="start" x="8" y="-86.5" font-family="Helvetica,sans-Serif" font-size="10.00" fill="#000000">ICpuKernel&lt; CpuGemmLowpQuantize</text>
<text text-anchor="middle" x="118" y="-75.5" font-family="Helvetica,sans-Serif" font-size="10.00" fill="#000000">DownInt32ToInt16ScaleByFixedPointKernel &gt;</text>
</a>
</g>
</g>
<!-- Node1&#45;&gt;Node0 -->
<g id="edge1" class="edge">
<title>Node1&#45;&gt;Node0</title>
<path fill="none" stroke="#191970" d="M118,-58.1174C118,-48.8378 118,-38.6413 118,-30.5492"/>
<polygon fill="#191970" stroke="#191970" points="114.5001,-58.4086 118,-68.4086 121.5001,-58.4086 114.5001,-58.4086"/>
</g>
<!-- Node2 -->
<g id="node3" class="node">
<title>Node2</title>
<g id="a_node3"><a xlink:href="classarm__compute_1_1_i_c_p_p_kernel.xhtml" target="_top" xlink:title="Common interface for all kernels implemented in C++. ">
<polygon fill="#ffffff" stroke="#000000" points="79.5,-214.5 79.5,-233.5 148.5,-233.5 148.5,-214.5 79.5,-214.5"/>
<text text-anchor="middle" x="114" y="-221.5" font-family="Helvetica,sans-Serif" font-size="10.00" fill="#000000">ICPPKernel</text>
</a>
</g>
</g>
<!-- Node2&#45;&gt;Node1 -->
<g id="edge2" class="edge">
<title>Node2&#45;&gt;Node1</title>
<path fill="none" stroke="#191970" d="M114.5685,-204.031C115.3783,-175.5886 116.8458,-124.0418 117.5709,-98.5735"/>
<polygon fill="#191970" stroke="#191970" points="111.061,-204.2473 114.2749,-214.3429 118.0582,-204.4466 111.061,-204.2473"/>
</g>
<!-- Node4 -->
<g id="node5" class="node">
<title>Node4</title>
<g id="a_node5"><a xlink:href="classarm__compute_1_1cpu_1_1_i_cpu_kernel.xhtml" target="_top" xlink:title="ICpuKernel\&lt; Derived \&gt;">
<polygon fill="#ffffff" stroke="#000000" points="130,-157.5 130,-176.5 260,-176.5 260,-157.5 130,-157.5"/>
<text text-anchor="middle" x="195" y="-164.5" font-family="Helvetica,sans-Serif" font-size="10.00" fill="#000000">ICpuKernel&lt; Derived &gt;</text>
</a>
</g>
</g>
<!-- Node2&#45;&gt;Node4 -->
<g id="edge5" class="edge">
<title>Node2&#45;&gt;Node4</title>
<path fill="none" stroke="#191970" d="M136.1611,-208.4052C150.6542,-198.2063 169.1194,-185.2123 181.4624,-176.5265"/>
<polygon fill="#191970" stroke="#191970" points="133.9044,-205.7134 127.7405,-214.3307 137.9329,-211.4381 133.9044,-205.7134"/>
</g>
<!-- Node3 -->
<g id="node4" class="node">
<title>Node3</title>
<g id="a_node4"><a xlink:href="classarm__compute_1_1_i_kernel.xhtml" target="_top" xlink:title="Common information for all the kernels. ">
<polygon fill="#ffffff" stroke="#000000" points="89,-271.5 89,-290.5 139,-290.5 139,-271.5 89,-271.5"/>
<text text-anchor="middle" x="114" y="-278.5" font-family="Helvetica,sans-Serif" font-size="10.00" fill="#000000">IKernel</text>
</a>
</g>
</g>
<!-- Node3&#45;&gt;Node2 -->
<g id="edge3" class="edge">
<title>Node3&#45;&gt;Node2</title>
<path fill="none" stroke="#191970" d="M114,-261.2342C114,-251.8491 114,-241.0651 114,-233.5265"/>
<polygon fill="#191970" stroke="#191970" points="110.5001,-261.3307 114,-271.3307 117.5001,-261.3308 110.5001,-261.3307"/>
</g>
<!-- Node4&#45;&gt;Node1 -->
<g id="edge4" class="edge">
<title>Node4&#45;&gt;Node1</title>
<path fill="none" stroke="#ffa500" stroke-dasharray="5,2" d="M179.1528,-149.815C165.2469,-134.7353 145.2219,-113.0198 131.9218,-98.597"/>
<polygon fill="#ffa500" stroke="#ffa500" points="176.8149,-152.4428 186.1671,-157.4215 181.9609,-147.6973 176.8149,-152.4428"/>
<text text-anchor="start" x="167" y="-131" font-family="Helvetica,sans-Serif" font-size="10.00" fill="#000000"> &lt; CpuGemmLowpQuantizeDown</text>
<text text-anchor="middle" x="263" y="-120" font-family="Helvetica,sans-Serif" font-size="10.00" fill="#000000">Int32ToInt16ScaleByFixedPointKernel &gt;</text>
</g>
</g>
</svg>
