<?xml version="1.0" encoding="UTF-8" standalone="no"?>
<!DOCTYPE svg PUBLIC "-//W3C//DTD SVG 1.1//EN"
 "http://www.w3.org/Graphics/SVG/1.1/DTD/svg11.dtd">
<!-- Generated by graphviz version 2.40.1 (20161225.0304)
 -->
<!-- Title: src/dynamic_fusion Pages: 1 -->
<svg width="475pt" height="591pt"
 viewBox="0.00 0.00 474.89 591.00" xmlns="http://www.w3.org/2000/svg" xmlns:xlink="http://www.w3.org/1999/xlink">
<g id="graph0" class="graph" transform="scale(1 1) rotate(0) translate(4 587)">
<title>src/dynamic_fusion</title>
<polygon fill="#ffffff" stroke="transparent" points="-4,4 -4,-587 470.894,-587 470.894,4 -4,4"/>
<g id="clust1" class="cluster">
<title>clusterdir_68267d1309a1af8e8297ef4c3efbcdba</title>
<g id="a_clust1"><a xlink:href="dir_68267d1309a1af8e8297ef4c3efbcdba.xhtml" target="_top" xlink:title="src">
<polygon fill="#ddddee" stroke="#000000" points="218,-344 218,-575 418,-575 418,-344 218,-344"/>
<text text-anchor="middle" x="318" y="-563" font-family="Helvetica,sans-Serif" font-size="10.00" fill="#000000">src</text>
</a>
</g>
</g>
<g id="clust2" class="cluster">
<title>clusterdir_5ff8356557e4f59c6a20c3735e8d2267</title>
<g id="a_clust2"><a xlink:href="dir_5ff8356557e4f59c6a20c3735e8d2267.xhtml" target="_top">
<polygon fill="#eeeeff" stroke="#000000" points="226,-352 226,-548 410,-548 410,-352 226,-352"/>
</a>
</g>
</g>
<!-- dir_5ff8356557e4f59c6a20c3735e8d2267 -->
<g id="node1" class="node">
<title>dir_5ff8356557e4f59c6a20c3735e8d2267</title>
<text text-anchor="middle" x="355" y="-519.5" font-family="Helvetica,sans-Serif" font-size="10.00" fill="#000000">dynamic_fusion</text>
</g>
<!-- dir_eaf4b15cb81d70a78c44ed9b3a3ab41e -->
<g id="node2" class="node">
<title>dir_eaf4b15cb81d70a78c44ed9b3a3ab41e</title>
<g id="a_node2"><a xlink:href="dir_eaf4b15cb81d70a78c44ed9b3a3ab41e.xhtml" target="_top" xlink:title="runtime">
<polygon fill="#ffffff" stroke="#ff0000" points="289.5,-540 234.5,-540 234.5,-504 289.5,-504 289.5,-540"/>
<text text-anchor="middle" x="262" y="-519.5" font-family="Helvetica,sans-Serif" font-size="10.00" fill="#000000">runtime</text>
</a>
</g>
</g>
<!-- dir_729ca8b25cabcdcb8b11b571ea7b237a -->
<g id="node3" class="node">
<title>dir_729ca8b25cabcdcb8b11b571ea7b237a</title>
<g id="a_node3"><a xlink:href="dir_729ca8b25cabcdcb8b11b571ea7b237a.xhtml" target="_top" xlink:title="sketch">
<polygon fill="#ffffff" stroke="#ff0000" points="318,-468 264,-468 264,-432 318,-432 318,-468"/>
<text text-anchor="middle" x="291" y="-447.5" font-family="Helvetica,sans-Serif" font-size="10.00" fill="#000000">sketch</text>
</a>
</g>
</g>
<!-- dir_eaf4b15cb81d70a78c44ed9b3a3ab41e&#45;&gt;dir_729ca8b25cabcdcb8b11b571ea7b237a -->
<g id="edge8" class="edge">
<title>dir_eaf4b15cb81d70a78c44ed9b3a3ab41e&#45;&gt;dir_729ca8b25cabcdcb8b11b571ea7b237a</title>
<path fill="none" stroke="#000000" d="M269.3179,-503.8314C272.4876,-495.9617 276.27,-486.5712 279.7813,-477.8533"/>
<polygon fill="#000000" stroke="#000000" points="283.0939,-478.9968 283.5835,-468.4133 276.6008,-476.3815 283.0939,-478.9968"/>
<g id="a_edge8&#45;headlabel"><a xlink:href="dir_000485_000024.xhtml" target="_top" xlink:title="5">
<text text-anchor="middle" x="284.3847" y="-480.8919" font-family="Helvetica,sans-Serif" font-size="10.00" fill="#000000">5</text>
</a>
</g>
</g>
<!-- dir_cf895c1ed808af158264b2f3d8d7f8f0 -->
<g id="node5" class="node">
<title>dir_cf895c1ed808af158264b2f3d8d7f8f0</title>
<g id="a_node5"><a xlink:href="dir_cf895c1ed808af158264b2f3d8d7f8f0.xhtml" target="_top" xlink:title="gpu">
<polygon fill="#ffffff" stroke="#ff0000" points="182,-396 128,-396 128,-360 182,-360 182,-396"/>
<text text-anchor="middle" x="155" y="-375.5" font-family="Helvetica,sans-Serif" font-size="10.00" fill="#000000">gpu</text>
</a>
</g>
</g>
<!-- dir_eaf4b15cb81d70a78c44ed9b3a3ab41e&#45;&gt;dir_cf895c1ed808af158264b2f3d8d7f8f0 -->
<g id="edge7" class="edge">
<title>dir_eaf4b15cb81d70a78c44ed9b3a3ab41e&#45;&gt;dir_cf895c1ed808af158264b2f3d8d7f8f0</title>
<path fill="none" stroke="#000000" d="M248.4484,-503.7623C229.796,-478.66 196.0922,-433.3017 174.6665,-404.4671"/>
<polygon fill="#000000" stroke="#000000" points="177.2152,-402.0288 168.4416,-396.0896 171.5966,-406.2038 177.2152,-402.0288"/>
<g id="a_edge7&#45;headlabel"><a xlink:href="dir_000485_000004.xhtml" target="_top" xlink:title="3">
<text text-anchor="middle" x="181.6381" y="-400.7207" font-family="Helvetica,sans-Serif" font-size="10.00" fill="#000000">3</text>
</a>
</g>
</g>
<!-- dir_214608ef36d61442cb2b0c1c4e9a7def -->
<g id="node6" class="node">
<title>dir_214608ef36d61442cb2b0c1c4e9a7def</title>
<g id="a_node6"><a xlink:href="dir_214608ef36d61442cb2b0c1c4e9a7def.xhtml" target="_top" xlink:title="arm_compute">
<polygon fill="#ffffff" stroke="#ff0000" points="327,-108 243,-108 243,-72 327,-72 327,-108"/>
<text text-anchor="middle" x="285" y="-87.5" font-family="Helvetica,sans-Serif" font-size="10.00" fill="#000000">arm_compute</text>
</a>
</g>
</g>
<!-- dir_eaf4b15cb81d70a78c44ed9b3a3ab41e&#45;&gt;dir_214608ef36d61442cb2b0c1c4e9a7def -->
<g id="edge9" class="edge">
<title>dir_eaf4b15cb81d70a78c44ed9b3a3ab41e&#45;&gt;dir_214608ef36d61442cb2b0c1c4e9a7def</title>
<path fill="none" stroke="#000000" d="M289.8172,-505.5037C334.1575,-478.6403 417.7341,-425.487 436,-396 453.0838,-368.4212 445.3242,-356.3309 448,-324 454.6723,-243.3806 477.6497,-201.7478 421,-144 398.4818,-121.0453 364.9835,-107.5886 336.8681,-99.8493"/>
<polygon fill="#000000" stroke="#000000" points="337.7323,-96.4577 327.1746,-97.3441 335.9807,-103.235 337.7323,-96.4577"/>
<g id="a_edge9&#45;headlabel"><a xlink:href="dir_000485_000000.xhtml" target="_top" xlink:title="4">
<text text-anchor="middle" x="341.923" y="-92.1082" font-family="Helvetica,sans-Serif" font-size="10.00" fill="#000000">4</text>
</a>
</g>
</g>
<!-- dir_aebb8dcc11953d78e620bbef0b9e2183 -->
<g id="node7" class="node">
<title>dir_aebb8dcc11953d78e620bbef0b9e2183</title>
<g id="a_node7"><a xlink:href="dir_aebb8dcc11953d78e620bbef0b9e2183.xhtml" target="_top" xlink:title="core">
<polygon fill="#ffffff" stroke="#ff0000" points="140,-252 86,-252 86,-216 140,-216 140,-252"/>
<text text-anchor="middle" x="113" y="-231.5" font-family="Helvetica,sans-Serif" font-size="10.00" fill="#000000">core</text>
</a>
</g>
</g>
<!-- dir_eaf4b15cb81d70a78c44ed9b3a3ab41e&#45;&gt;dir_aebb8dcc11953d78e620bbef0b9e2183 -->
<g id="edge10" class="edge">
<title>dir_eaf4b15cb81d70a78c44ed9b3a3ab41e&#45;&gt;dir_aebb8dcc11953d78e620bbef0b9e2183</title>
<path fill="none" stroke="#000000" d="M234.2244,-507.5478C199.5905,-487.7409 142.1287,-448.5438 119,-396 99.8162,-352.4182 103.3687,-295.6835 107.984,-262.2171"/>
<polygon fill="#000000" stroke="#000000" points="111.4619,-262.6254 109.4923,-252.2152 104.5402,-261.5815 111.4619,-262.6254"/>
<g id="a_edge10&#45;headlabel"><a xlink:href="dir_000485_000020.xhtml" target="_top" xlink:title="1">
<text text-anchor="middle" x="113.7335" y="-264.1031" font-family="Helvetica,sans-Serif" font-size="10.00" fill="#000000">1</text>
</a>
</g>
</g>
<!-- dir_5815af820a9cc9481f1d0990a0d60286 -->
<g id="node9" class="node">
<title>dir_5815af820a9cc9481f1d0990a0d60286</title>
<g id="a_node9"><a xlink:href="dir_5815af820a9cc9481f1d0990a0d60286.xhtml" target="_top" xlink:title="support">
<polygon fill="none" stroke="#000000" points="219,-36 165,-36 165,0 219,0 219,-36"/>
<text text-anchor="middle" x="192" y="-15.5" font-family="Helvetica,sans-Serif" font-size="10.00" fill="#000000">support</text>
</a>
</g>
</g>
<!-- dir_eaf4b15cb81d70a78c44ed9b3a3ab41e&#45;&gt;dir_5815af820a9cc9481f1d0990a0d60286 -->
<g id="edge11" class="edge">
<title>dir_eaf4b15cb81d70a78c44ed9b3a3ab41e&#45;&gt;dir_5815af820a9cc9481f1d0990a0d60286</title>
<path fill="none" stroke="#000000" d="M234.4566,-519.7485C167.1891,-512.5961 0,-484.1429 0,-378 0,-378 0,-378 0,-162 0,-85.3146 99.2359,-44.4644 155.0213,-27.5589"/>
<polygon fill="#000000" stroke="#000000" points="156.2786,-30.8381 164.8983,-24.6777 154.3183,-24.1182 156.2786,-30.8381"/>
<g id="a_edge11&#45;headlabel"><a xlink:href="dir_000485_000032.xhtml" target="_top" xlink:title="2">
<text text-anchor="middle" x="153.6229" y="-32.0703" font-family="Helvetica,sans-Serif" font-size="10.00" fill="#000000">2</text>
</a>
</g>
</g>
<!-- dir_8824b015e2d84b32c32abeb682f6ceb8 -->
<g id="node4" class="node">
<title>dir_8824b015e2d84b32c32abeb682f6ceb8</title>
<g id="a_node4"><a xlink:href="dir_8824b015e2d84b32c32abeb682f6ceb8.xhtml" target="_top" xlink:title="utils">
<polygon fill="#ffffff" stroke="#000000" points="402,-396 348,-396 348,-360 402,-360 402,-396"/>
<text text-anchor="middle" x="375" y="-375.5" font-family="Helvetica,sans-Serif" font-size="10.00" fill="#000000">utils</text>
</a>
</g>
</g>
<!-- dir_729ca8b25cabcdcb8b11b571ea7b237a&#45;&gt;dir_8824b015e2d84b32c32abeb682f6ceb8 -->
<g id="edge13" class="edge">
<title>dir_729ca8b25cabcdcb8b11b571ea7b237a&#45;&gt;dir_8824b015e2d84b32c32abeb682f6ceb8</title>
<path fill="none" stroke="#000000" d="M312.1967,-431.8314C322.4434,-423.0485 334.9003,-412.3712 346.0097,-402.8489"/>
<polygon fill="#000000" stroke="#000000" points="348.4952,-405.3282 353.81,-396.1628 343.9397,-400.0134 348.4952,-405.3282"/>
<g id="a_edge13&#45;headlabel"><a xlink:href="dir_000024_000035.xhtml" target="_top" xlink:title="3">
<text text-anchor="middle" x="347.6138" y="-407.3232" font-family="Helvetica,sans-Serif" font-size="10.00" fill="#000000">3</text>
</a>
</g>
</g>
<!-- dir_729ca8b25cabcdcb8b11b571ea7b237a&#45;&gt;dir_cf895c1ed808af158264b2f3d8d7f8f0 -->
<g id="edge12" class="edge">
<title>dir_729ca8b25cabcdcb8b11b571ea7b237a&#45;&gt;dir_cf895c1ed808af158264b2f3d8d7f8f0</title>
<path fill="none" stroke="#000000" d="M263.8052,-435.6028C242.9576,-424.5658 213.99,-409.23 191.1853,-397.1569"/>
<polygon fill="#000000" stroke="#000000" points="192.6231,-393.9579 182.1476,-392.3723 189.3479,-400.1445 192.6231,-393.9579"/>
<g id="a_edge12&#45;headlabel"><a xlink:href="dir_000024_000004.xhtml" target="_top" xlink:title="2">
<text text-anchor="middle" x="197.1285" y="-390.6305" font-family="Helvetica,sans-Serif" font-size="10.00" fill="#000000">2</text>
</a>
</g>
</g>
<!-- dir_729ca8b25cabcdcb8b11b571ea7b237a&#45;&gt;dir_214608ef36d61442cb2b0c1c4e9a7def -->
<g id="edge14" class="edge">
<title>dir_729ca8b25cabcdcb8b11b571ea7b237a&#45;&gt;dir_214608ef36d61442cb2b0c1c4e9a7def</title>
<path fill="none" stroke="#000000" d="M318.0229,-444.9632C345.4559,-438.4283 387.1839,-424.3288 411,-396 437.5675,-364.3984 434,-347.2855 434,-306 434,-306 434,-306 434,-234 434,-190.0449 423.5136,-175.6381 393,-144 377.4924,-127.9209 356.1818,-115.8712 336.5863,-107.2825"/>
<polygon fill="#000000" stroke="#000000" points="337.7142,-103.9608 327.1374,-103.3418 335.0197,-110.4214 337.7142,-103.9608"/>
<g id="a_edge14&#45;headlabel"><a xlink:href="dir_000024_000000.xhtml" target="_top" xlink:title="120">
<text text-anchor="middle" x="342.1247" y="-100.2239" font-family="Helvetica,sans-Serif" font-size="10.00" fill="#000000">120</text>
</a>
</g>
</g>
<!-- dir_729ca8b25cabcdcb8b11b571ea7b237a&#45;&gt;dir_aebb8dcc11953d78e620bbef0b9e2183 -->
<g id="edge15" class="edge">
<title>dir_729ca8b25cabcdcb8b11b571ea7b237a&#45;&gt;dir_aebb8dcc11953d78e620bbef0b9e2183</title>
<path fill="none" stroke="#000000" d="M272.6688,-431.9809C262.4646,-421.7024 249.7005,-408.4268 239,-396 199.4988,-350.1258 193.301,-335.6804 156,-288 148.9492,-278.9873 141.176,-269.1854 134.2002,-260.4369"/>
<polygon fill="#000000" stroke="#000000" points="136.7819,-258.0609 127.806,-252.432 131.3126,-262.4298 136.7819,-258.0609"/>
<g id="a_edge15&#45;headlabel"><a xlink:href="dir_000024_000020.xhtml" target="_top" xlink:title="34">
<text text-anchor="middle" x="141.2437" y="-256.5974" font-family="Helvetica,sans-Serif" font-size="10.00" fill="#000000">34</text>
</a>
</g>
</g>
<!-- dir_bf9f26469d00835ba20ff8d80ee5a804 -->
<g id="node8" class="node">
<title>dir_bf9f26469d00835ba20ff8d80ee5a804</title>
<g id="a_node8"><a xlink:href="dir_bf9f26469d00835ba20ff8d80ee5a804.xhtml" target="_top" xlink:title="runtime">
<polygon fill="#ffffff" stroke="#ff0000" points="253.5,-324 198.5,-324 198.5,-288 253.5,-288 253.5,-324"/>
<text text-anchor="middle" x="226" y="-303.5" font-family="Helvetica,sans-Serif" font-size="10.00" fill="#000000">runtime</text>
</a>
</g>
</g>
<!-- dir_729ca8b25cabcdcb8b11b571ea7b237a&#45;&gt;dir_bf9f26469d00835ba20ff8d80ee5a804 -->
<g id="edge16" class="edge">
<title>dir_729ca8b25cabcdcb8b11b571ea7b237a&#45;&gt;dir_bf9f26469d00835ba20ff8d80ee5a804</title>
<path fill="none" stroke="#000000" d="M282.7677,-431.7623C271.5345,-406.8764 251.3149,-362.0822 238.2852,-333.2165"/>
<polygon fill="#000000" stroke="#000000" points="241.4698,-331.7641 234.1655,-324.0896 235.0896,-334.6441 241.4698,-331.7641"/>
<g id="a_edge16&#45;headlabel"><a xlink:href="dir_000024_000036.xhtml" target="_top" xlink:title="4">
<text text-anchor="middle" x="245.5364" y="-331.3723" font-family="Helvetica,sans-Serif" font-size="10.00" fill="#000000">4</text>
</a>
</g>
</g>
<!-- dir_729ca8b25cabcdcb8b11b571ea7b237a&#45;&gt;dir_5815af820a9cc9481f1d0990a0d60286 -->
<g id="edge17" class="edge">
<title>dir_729ca8b25cabcdcb8b11b571ea7b237a&#45;&gt;dir_5815af820a9cc9481f1d0990a0d60286</title>
<path fill="none" stroke="#000000" d="M318.0245,-440.7193C358.8813,-426.5775 432.0685,-400.7662 436,-396 487.0188,-334.1492 462.3057,-294.891 448,-216 433.5335,-136.2219 405.9238,-113.0426 336,-72 301.8651,-51.9641 258.9767,-37.0252 228.9188,-27.9987"/>
<polygon fill="#000000" stroke="#000000" points="229.8291,-24.6183 219.2484,-25.1654 227.8608,-31.3359 229.8291,-24.6183"/>
<g id="a_edge17&#45;headlabel"><a xlink:href="dir_000024_000032.xhtml" target="_top" xlink:title="8">
<text text-anchor="middle" x="234.0769" y="-20.4042" font-family="Helvetica,sans-Serif" font-size="10.00" fill="#000000">8</text>
</a>
</g>
</g>
<!-- dir_fdedb0aba14d44ce9d99bc100e026e6a -->
<g id="node10" class="node">
<title>dir_fdedb0aba14d44ce9d99bc100e026e6a</title>
<g id="a_node10"><a xlink:href="dir_fdedb0aba14d44ce9d99bc100e026e6a.xhtml" target="_top" xlink:title="common">
<polygon fill="#ffffff" stroke="#ff0000" points="256.5,-180 197.5,-180 197.5,-144 256.5,-144 256.5,-180"/>
<text text-anchor="middle" x="227" y="-159.5" font-family="Helvetica,sans-Serif" font-size="10.00" fill="#000000">common</text>
</a>
</g>
</g>
<!-- dir_729ca8b25cabcdcb8b11b571ea7b237a&#45;&gt;dir_fdedb0aba14d44ce9d99bc100e026e6a -->
<g id="edge18" class="edge">
<title>dir_729ca8b25cabcdcb8b11b571ea7b237a&#45;&gt;dir_fdedb0aba14d44ce9d99bc100e026e6a</title>
<path fill="none" stroke="#000000" d="M294.0662,-431.7334C300.051,-391.0238 310.0702,-290.5679 278,-216 273.4362,-205.3885 265.8218,-195.5914 257.8505,-187.3382"/>
<polygon fill="#000000" stroke="#000000" points="260.1214,-184.6648 250.5069,-180.2135 255.2471,-189.6889 260.1214,-184.6648"/>
<g id="a_edge18&#45;headlabel"><a xlink:href="dir_000024_000019.xhtml" target="_top" xlink:title="12">
<text text-anchor="middle" x="264.6784" y="-182.6299" font-family="Helvetica,sans-Serif" font-size="10.00" fill="#000000">12</text>
</a>
</g>
</g>
<!-- dir_8824b015e2d84b32c32abeb682f6ceb8&#45;&gt;dir_214608ef36d61442cb2b0c1c4e9a7def -->
<g id="edge6" class="edge">
<title>dir_8824b015e2d84b32c32abeb682f6ceb8&#45;&gt;dir_214608ef36d61442cb2b0c1c4e9a7def</title>
<path fill="none" stroke="#000000" d="M380.286,-359.7757C391.2079,-318.2927 412.0552,-214.9315 372,-144 363.8924,-129.6427 350.2396,-118.6006 336.124,-110.356"/>
<polygon fill="#000000" stroke="#000000" points="337.7794,-107.2722 327.3206,-105.5795 334.441,-113.4249 337.7794,-107.2722"/>
<g id="a_edge6&#45;headlabel"><a xlink:href="dir_000035_000000.xhtml" target="_top" xlink:title="2">
<text text-anchor="middle" x="342.2929" y="-103.9909" font-family="Helvetica,sans-Serif" font-size="10.00" fill="#000000">2</text>
</a>
</g>
</g>
<!-- dir_cf895c1ed808af158264b2f3d8d7f8f0&#45;&gt;dir_214608ef36d61442cb2b0c1c4e9a7def -->
<g id="edge1" class="edge">
<title>dir_cf895c1ed808af158264b2f3d8d7f8f0&#45;&gt;dir_214608ef36d61442cb2b0c1c4e9a7def</title>
<path fill="none" stroke="#000000" d="M182.2762,-363.0042C194.2693,-356.7139 208.6399,-349.5806 222,-344 247.9373,-333.1659 265.4064,-346.6886 282,-324 327.0414,-262.4145 307.6141,-165.2598 294.0656,-117.8634"/>
<polygon fill="#000000" stroke="#000000" points="297.3359,-116.5823 291.1229,-108.0004 290.6281,-118.5836 297.3359,-116.5823"/>
<g id="a_edge1&#45;headlabel"><a xlink:href="dir_000004_000000.xhtml" target="_top" xlink:title="488">
<text text-anchor="middle" x="301.0843" y="-116.7151" font-family="Helvetica,sans-Serif" font-size="10.00" fill="#000000">488</text>
</a>
</g>
</g>
<!-- dir_cf895c1ed808af158264b2f3d8d7f8f0&#45;&gt;dir_aebb8dcc11953d78e620bbef0b9e2183 -->
<g id="edge2" class="edge">
<title>dir_cf895c1ed808af158264b2f3d8d7f8f0&#45;&gt;dir_aebb8dcc11953d78e620bbef0b9e2183</title>
<path fill="none" stroke="#000000" d="M145.0075,-359.7623C135.3416,-335.0928 122.174,-290.8598 115.6868,-261.9731"/>
<polygon fill="#000000" stroke="#000000" points="119.0926,-261.1603 113.6178,-252.0896 112.2411,-262.5946 119.0926,-261.1603"/>
<g id="a_edge2&#45;headlabel"><a xlink:href="dir_000004_000020.xhtml" target="_top" xlink:title="236">
<text text-anchor="middle" x="122.608" y="-261.597" font-family="Helvetica,sans-Serif" font-size="10.00" fill="#000000">236</text>
</a>
</g>
</g>
<!-- dir_cf895c1ed808af158264b2f3d8d7f8f0&#45;&gt;dir_bf9f26469d00835ba20ff8d80ee5a804 -->
<g id="edge3" class="edge">
<title>dir_cf895c1ed808af158264b2f3d8d7f8f0&#45;&gt;dir_bf9f26469d00835ba20ff8d80ee5a804</title>
<path fill="none" stroke="#000000" d="M166.9639,-359.8314C174.6931,-351.1337 184.9299,-340.5783 194.7539,-331.1265"/>
<polygon fill="#000000" stroke="#000000" points="197.264,-333.5702 202.1376,-324.1628 192.4612,-328.4778 197.264,-333.5702"/>
<g id="a_edge3&#45;headlabel"><a xlink:href="dir_000004_000036.xhtml" target="_top" xlink:title="14">
<text text-anchor="middle" x="196.5971" y="-335.6021" font-family="Helvetica,sans-Serif" font-size="10.00" fill="#000000">14</text>
</a>
</g>
</g>
<!-- dir_cf895c1ed808af158264b2f3d8d7f8f0&#45;&gt;dir_5815af820a9cc9481f1d0990a0d60286 -->
<g id="edge4" class="edge">
<title>dir_cf895c1ed808af158264b2f3d8d7f8f0&#45;&gt;dir_5815af820a9cc9481f1d0990a0d60286</title>
<path fill="none" stroke="#000000" d="M136.8165,-359.6502C110.3747,-330.7091 65.6318,-271.9813 77,-216 90.8322,-147.8848 99.1541,-129.6369 138,-72 144.9346,-61.7109 154.0157,-51.7279 162.7471,-43.2023"/>
<polygon fill="#000000" stroke="#000000" points="165.3909,-45.5201 170.2674,-36.1142 160.5897,-40.4261 165.3909,-45.5201"/>
<g id="a_edge4&#45;headlabel"><a xlink:href="dir_000004_000032.xhtml" target="_top" xlink:title="107">
<text text-anchor="middle" x="164.7225" y="-47.5517" font-family="Helvetica,sans-Serif" font-size="10.00" fill="#000000">107</text>
</a>
</g>
</g>
<!-- dir_cf895c1ed808af158264b2f3d8d7f8f0&#45;&gt;dir_fdedb0aba14d44ce9d99bc100e026e6a -->
<g id="edge5" class="edge">
<title>dir_cf895c1ed808af158264b2f3d8d7f8f0&#45;&gt;dir_fdedb0aba14d44ce9d99bc100e026e6a</title>
<path fill="none" stroke="#000000" d="M182.009,-364.1721C194.2031,-357.9604 208.8038,-350.5664 222,-344 240.1516,-334.9678 252.2566,-341.1942 263,-324 289.2351,-282.0123 264.0273,-223.3978 244.6188,-189.3979"/>
<polygon fill="#000000" stroke="#000000" points="247.4535,-187.3157 239.346,-180.4951 241.4306,-190.8829 247.4535,-187.3157"/>
<g id="a_edge5&#45;headlabel"><a xlink:href="dir_000004_000019.xhtml" target="_top" xlink:title="45">
<text text-anchor="middle" x="251.7282" y="-186.4616" font-family="Helvetica,sans-Serif" font-size="10.00" fill="#000000">45</text>
</a>
</g>
</g>
<!-- dir_214608ef36d61442cb2b0c1c4e9a7def&#45;&gt;dir_5815af820a9cc9481f1d0990a0d60286 -->
<g id="edge19" class="edge">
<title>dir_214608ef36d61442cb2b0c1c4e9a7def&#45;&gt;dir_5815af820a9cc9481f1d0990a0d60286</title>
<path fill="none" stroke="#000000" d="M255.5798,-71.8314C243.2608,-62.9632 229.1496,-52.1637 217.3005,-42.5718"/>
<polygon fill="#000000" stroke="#000000" points="219.455,-39.8121 209.5085,-36.1628 215.0083,-45.2184 219.455,-39.8121"/>
<g id="a_edge19&#45;headlabel"><a xlink:href="dir_000000_000032.xhtml" target="_top" xlink:title="18">
<text text-anchor="middle" x="224.0348" y="-37.4027" font-family="Helvetica,sans-Serif" font-size="10.00" fill="#000000">18</text>
</a>
</g>
</g>
<!-- dir_aebb8dcc11953d78e620bbef0b9e2183&#45;&gt;dir_cf895c1ed808af158264b2f3d8d7f8f0 -->
<g id="edge20" class="edge">
<title>dir_aebb8dcc11953d78e620bbef0b9e2183&#45;&gt;dir_cf895c1ed808af158264b2f3d8d7f8f0</title>
<path fill="none" stroke="#000000" d="M122.9344,-252.0896C132.5863,-276.6805 145.7602,-320.905 152.2741,-349.8531"/>
<polygon fill="#000000" stroke="#000000" points="148.8744,-350.6944 154.3538,-359.7623 155.7251,-349.2566 148.8744,-350.6944"/>
<g id="a_edge20&#45;headlabel"><a xlink:href="dir_000020_000004.xhtml" target="_top" xlink:title="4">
<text text-anchor="middle" x="145.3574" y="-345.2596" font-family="Helvetica,sans-Serif" font-size="10.00" fill="#000000">4</text>
</a>
</g>
</g>
<!-- dir_aebb8dcc11953d78e620bbef0b9e2183&#45;&gt;dir_214608ef36d61442cb2b0c1c4e9a7def -->
<g id="edge21" class="edge">
<title>dir_aebb8dcc11953d78e620bbef0b9e2183&#45;&gt;dir_214608ef36d61442cb2b0c1c4e9a7def</title>
<path fill="none" stroke="#000000" d="M125.1459,-215.7304C138.7603,-196.2341 162.317,-165.2843 188,-144 202.2663,-132.1771 219.4965,-121.6188 235.4528,-113.0427"/>
<polygon fill="#000000" stroke="#000000" points="237.4261,-115.9606 244.6684,-108.2276 234.1844,-109.7564 237.4261,-115.9606"/>
<g id="a_edge21&#45;headlabel"><a xlink:href="dir_000020_000000.xhtml" target="_top" xlink:title="609">
<text text-anchor="middle" x="235.555" y="-117.6417" font-family="Helvetica,sans-Serif" font-size="10.00" fill="#000000">609</text>
</a>
</g>
</g>
<!-- dir_aebb8dcc11953d78e620bbef0b9e2183&#45;&gt;dir_5815af820a9cc9481f1d0990a0d60286 -->
<g id="edge22" class="edge">
<title>dir_aebb8dcc11953d78e620bbef0b9e2183&#45;&gt;dir_5815af820a9cc9481f1d0990a0d60286</title>
<path fill="none" stroke="#000000" d="M115.6027,-215.8148C120.4546,-185.0972 132.489,-121.4498 155,-72 159.3333,-62.481 165.3328,-52.8272 171.2405,-44.3658"/>
<polygon fill="#000000" stroke="#000000" points="174.246,-46.1835 177.29,-36.0354 168.5819,-42.0703 174.246,-46.1835"/>
<g id="a_edge22&#45;headlabel"><a xlink:href="dir_000020_000032.xhtml" target="_top" xlink:title="56">
<text text-anchor="middle" x="174.4312" y="-48.2605" font-family="Helvetica,sans-Serif" font-size="10.00" fill="#000000">56</text>
</a>
</g>
</g>
<!-- dir_aebb8dcc11953d78e620bbef0b9e2183&#45;&gt;dir_fdedb0aba14d44ce9d99bc100e026e6a -->
<g id="edge23" class="edge">
<title>dir_aebb8dcc11953d78e620bbef0b9e2183&#45;&gt;dir_fdedb0aba14d44ce9d99bc100e026e6a</title>
<path fill="none" stroke="#000000" d="M140.0164,-216.937C154.7939,-207.6038 173.3302,-195.8967 189.4903,-185.6904"/>
<polygon fill="#000000" stroke="#000000" points="191.5987,-188.4984 198.1847,-180.1992 187.8608,-182.5799 191.5987,-188.4984"/>
<g id="a_edge23&#45;headlabel"><a xlink:href="dir_000020_000019.xhtml" target="_top" xlink:title="5">
<text text-anchor="middle" x="190.0757" y="-190.3184" font-family="Helvetica,sans-Serif" font-size="10.00" fill="#000000">5</text>
</a>
</g>
</g>
<!-- dir_bf9f26469d00835ba20ff8d80ee5a804&#45;&gt;dir_cf895c1ed808af158264b2f3d8d7f8f0 -->
<g id="edge24" class="edge">
<title>dir_bf9f26469d00835ba20ff8d80ee5a804&#45;&gt;dir_cf895c1ed808af158264b2f3d8d7f8f0</title>
<path fill="none" stroke="#000000" d="M213.8185,-324.4133C206.102,-333.0787 195.9429,-343.5464 186.1953,-352.9223"/>
<polygon fill="#000000" stroke="#000000" points="183.7428,-350.4242 178.8687,-359.8314 188.5453,-355.517 183.7428,-350.4242"/>
<g id="a_edge24&#45;headlabel"><a xlink:href="dir_000036_000004.xhtml" target="_top" xlink:title="57">
<text text-anchor="middle" x="184.4101" y="-343.3925" font-family="Helvetica,sans-Serif" font-size="10.00" fill="#000000">57</text>
</a>
</g>
</g>
<!-- dir_bf9f26469d00835ba20ff8d80ee5a804&#45;&gt;dir_214608ef36d61442cb2b0c1c4e9a7def -->
<g id="edge25" class="edge">
<title>dir_bf9f26469d00835ba20ff8d80ee5a804&#45;&gt;dir_214608ef36d61442cb2b0c1c4e9a7def</title>
<path fill="none" stroke="#000000" d="M232.4048,-287.8041C240.8298,-263.4567 255.7629,-218.8374 266,-180 271.4186,-159.4429 276.3397,-135.9282 279.8153,-118.0909"/>
<polygon fill="#000000" stroke="#000000" points="283.2942,-118.5328 281.7358,-108.0532 276.4189,-117.2174 283.2942,-118.5328"/>
<g id="a_edge25&#45;headlabel"><a xlink:href="dir_000036_000000.xhtml" target="_top" xlink:title="945">
<text text-anchor="middle" x="285.4074" y="-120.0969" font-family="Helvetica,sans-Serif" font-size="10.00" fill="#000000">945</text>
</a>
</g>
</g>
<!-- dir_bf9f26469d00835ba20ff8d80ee5a804&#45;&gt;dir_aebb8dcc11953d78e620bbef0b9e2183 -->
<g id="edge26" class="edge">
<title>dir_bf9f26469d00835ba20ff8d80ee5a804&#45;&gt;dir_aebb8dcc11953d78e620bbef0b9e2183</title>
<path fill="none" stroke="#000000" d="M198.3571,-288.3868C183.4721,-278.9026 164.9344,-267.0909 148.9414,-256.9007"/>
<polygon fill="#000000" stroke="#000000" points="150.6719,-253.8532 140.3575,-251.4313 146.9103,-259.7567 150.6719,-253.8532"/>
<g id="a_edge26&#45;headlabel"><a xlink:href="dir_000036_000020.xhtml" target="_top" xlink:title="214">
<text text-anchor="middle" x="155.2291" y="-250.8903" font-family="Helvetica,sans-Serif" font-size="10.00" fill="#000000">214</text>
</a>
</g>
</g>
<!-- dir_bf9f26469d00835ba20ff8d80ee5a804&#45;&gt;dir_5815af820a9cc9481f1d0990a0d60286 -->
<g id="edge27" class="edge">
<title>dir_bf9f26469d00835ba20ff8d80ee5a804&#45;&gt;dir_5815af820a9cc9481f1d0990a0d60286</title>
<path fill="none" stroke="#000000" d="M218.587,-287.6048C209.2718,-263.4048 193.8017,-219.3302 188,-180 181.1391,-133.4895 184.9398,-78.6706 188.4065,-46.2088"/>
<polygon fill="#000000" stroke="#000000" points="191.9035,-46.4324 189.5534,-36.1015 184.9481,-45.643 191.9035,-46.4324"/>
<g id="a_edge27&#45;headlabel"><a xlink:href="dir_000036_000032.xhtml" target="_top" xlink:title="8">
<text text-anchor="middle" x="194.3195" y="-47.8242" font-family="Helvetica,sans-Serif" font-size="10.00" fill="#000000">8</text>
</a>
</g>
</g>
<!-- dir_bf9f26469d00835ba20ff8d80ee5a804&#45;&gt;dir_fdedb0aba14d44ce9d99bc100e026e6a -->
<g id="edge28" class="edge">
<title>dir_bf9f26469d00835ba20ff8d80ee5a804&#45;&gt;dir_fdedb0aba14d44ce9d99bc100e026e6a</title>
<path fill="none" stroke="#000000" d="M226.1267,-287.7623C226.2972,-263.201 226.6024,-219.2474 226.8031,-190.3541"/>
<polygon fill="#000000" stroke="#000000" points="230.3048,-190.1137 226.8744,-180.0896 223.3049,-190.065 230.3048,-190.1137"/>
<g id="a_edge28&#45;headlabel"><a xlink:href="dir_000036_000019.xhtml" target="_top" xlink:title="127">
<text text-anchor="middle" x="233.1191" y="-191.2279" font-family="Helvetica,sans-Serif" font-size="10.00" fill="#000000">127</text>
</a>
</g>
</g>
<!-- dir_5815af820a9cc9481f1d0990a0d60286&#45;&gt;dir_214608ef36d61442cb2b0c1c4e9a7def -->
<g id="edge29" class="edge">
<title>dir_5815af820a9cc9481f1d0990a0d60286&#45;&gt;dir_214608ef36d61442cb2b0c1c4e9a7def</title>
<path fill="none" stroke="#000000" d="M219.0062,-34.4393C231.8378,-43.5855 246.9996,-55.1507 259.6135,-65.3585"/>
<polygon fill="#000000" stroke="#000000" points="257.5377,-68.183 267.4846,-71.8314 261.9839,-62.7763 257.5377,-68.183"/>
<g id="a_edge29&#45;headlabel"><a xlink:href="dir_000032_000000.xhtml" target="_top" xlink:title="6">
<text text-anchor="middle" x="252.9579" y="-65.5928" font-family="Helvetica,sans-Serif" font-size="10.00" fill="#000000">6</text>
</a>
</g>
</g>
<!-- dir_fdedb0aba14d44ce9d99bc100e026e6a&#45;&gt;dir_214608ef36d61442cb2b0c1c4e9a7def -->
<g id="edge30" class="edge">
<title>dir_fdedb0aba14d44ce9d99bc100e026e6a&#45;&gt;dir_214608ef36d61442cb2b0c1c4e9a7def</title>
<path fill="none" stroke="#000000" d="M241.6358,-143.8314C248.3161,-135.5386 256.3568,-125.557 263.6904,-116.4533"/>
<polygon fill="#000000" stroke="#000000" points="266.6194,-118.3965 270.1671,-108.4133 261.1681,-114.0052 266.6194,-118.3965"/>
<g id="a_edge30&#45;headlabel"><a xlink:href="dir_000019_000000.xhtml" target="_top" xlink:title="17">
<text text-anchor="middle" x="266.5755" y="-120.4769" font-family="Helvetica,sans-Serif" font-size="10.00" fill="#000000">17</text>
</a>
</g>
</g>
<!-- dir_fdedb0aba14d44ce9d99bc100e026e6a&#45;&gt;dir_5815af820a9cc9481f1d0990a0d60286 -->
<g id="edge31" class="edge">
<title>dir_fdedb0aba14d44ce9d99bc100e026e6a&#45;&gt;dir_5815af820a9cc9481f1d0990a0d60286</title>
<path fill="none" stroke="#000000" d="M222.5672,-143.7623C216.5712,-119.0928 205.8201,-74.8598 198.799,-45.9731"/>
<polygon fill="#000000" stroke="#000000" points="202.1596,-44.9801 196.3968,-36.0896 195.3577,-46.6334 202.1596,-44.9801"/>
<g id="a_edge31&#45;headlabel"><a xlink:href="dir_000019_000032.xhtml" target="_top" xlink:title="2">
<text text-anchor="middle" x="205.7675" y="-45.3024" font-family="Helvetica,sans-Serif" font-size="10.00" fill="#000000">2</text>
</a>
</g>
</g>
</g>
</svg>
