<?xml version="1.0" encoding="UTF-8" standalone="no"?>
<!DOCTYPE svg PUBLIC "-//W3C//DTD SVG 1.1//EN"
 "http://www.w3.org/Graphics/SVG/1.1/DTD/svg11.dtd">
<!-- Generated by graphviz version 2.40.1 (20161225.0304)
 -->
<!-- Title: src/dynamic_fusion/sketch/gpu/operators Pages: 1 -->
<svg width="500pt" height="447pt"
 viewBox="0.00 0.00 500.00 447.00" xmlns="http://www.w3.org/2000/svg" xmlns:xlink="http://www.w3.org/1999/xlink">
<g id="graph0" class="graph" transform="scale(1 1) rotate(0) translate(4 443)">
<title>src/dynamic_fusion/sketch/gpu/operators</title>
<polygon fill="#ffffff" stroke="transparent" points="-4,4 -4,-443 496,-443 496,4 -4,4"/>
<g id="clust1" class="cluster">
<title>clusterdir_df94d166e0e6f49d063cb29fea25a88b</title>
<g id="a_clust1"><a xlink:href="dir_df94d166e0e6f49d063cb29fea25a88b.xhtml" target="_top" xlink:title="gpu">
<polygon fill="#ddddee" stroke="#000000" points="388,-272 388,-431 484,-431 484,-272 388,-272"/>
<text text-anchor="middle" x="436" y="-419" font-family="Helvetica,sans-Serif" font-size="10.00" fill="#000000">gpu</text>
</a>
</g>
</g>
<g id="clust2" class="cluster">
<title>clusterdir_6873a2afc4715a8a8ff813bcf2ca82fa</title>
<g id="a_clust2"><a xlink:href="dir_6873a2afc4715a8a8ff813bcf2ca82fa.xhtml" target="_top">
<polygon fill="#eeeeff" stroke="#000000" points="396,-280 396,-404 476,-404 476,-280 396,-280"/>
</a>
</g>
</g>
<!-- dir_6873a2afc4715a8a8ff813bcf2ca82fa -->
<g id="node1" class="node">
<title>dir_6873a2afc4715a8a8ff813bcf2ca82fa</title>
<text text-anchor="middle" x="436" y="-375.5" font-family="Helvetica,sans-Serif" font-size="10.00" fill="#000000">operators</text>
</g>
<!-- dir_f670b1f1dbda7ab506eda885c22b7f58 -->
<g id="node2" class="node">
<title>dir_f670b1f1dbda7ab506eda885c22b7f58</title>
<g id="a_node2"><a xlink:href="dir_f670b1f1dbda7ab506eda885c22b7f58.xhtml" target="_top" xlink:title="internal">
<polygon fill="#ffffff" stroke="#000000" points="466,-324 412,-324 412,-288 466,-288 466,-324"/>
<text text-anchor="middle" x="439" y="-303.5" font-family="Helvetica,sans-Serif" font-size="10.00" fill="#000000">internal</text>
</a>
</g>
</g>
<!-- dir_6873a2afc4715a8a8ff813bcf2ca82fa&#45;&gt;dir_f670b1f1dbda7ab506eda885c22b7f58 -->
<g id="edge3" class="edge">
<title>dir_6873a2afc4715a8a8ff813bcf2ca82fa&#45;&gt;dir_f670b1f1dbda7ab506eda885c22b7f58</title>
<path fill="none" stroke="#000000" d="M436.757,-359.8314C437.0779,-352.131 437.4594,-342.9743 437.816,-334.4166"/>
<polygon fill="#000000" stroke="#000000" points="441.3133,-334.5503 438.2328,-324.4133 434.3194,-334.2589 441.3133,-334.5503"/>
<g id="a_edge3&#45;headlabel"><a xlink:href="dir_000490_000491.xhtml" target="_top" xlink:title="3">
<text text-anchor="middle" x="444.0006" y="-335.76" font-family="Helvetica,sans-Serif" font-size="10.00" fill="#000000">3</text>
</a>
</g>
</g>
<!-- dir_cf895c1ed808af158264b2f3d8d7f8f0 -->
<g id="node3" class="node">
<title>dir_cf895c1ed808af158264b2f3d8d7f8f0</title>
<g id="a_node3"><a xlink:href="dir_cf895c1ed808af158264b2f3d8d7f8f0.xhtml" target="_top" xlink:title="gpu">
<polygon fill="#ffffff" stroke="#ff0000" points="380,-324 326,-324 326,-288 380,-288 380,-324"/>
<text text-anchor="middle" x="353" y="-303.5" font-family="Helvetica,sans-Serif" font-size="10.00" fill="#000000">gpu</text>
</a>
</g>
</g>
<!-- dir_6873a2afc4715a8a8ff813bcf2ca82fa&#45;&gt;dir_cf895c1ed808af158264b2f3d8d7f8f0 -->
<g id="edge1" class="edge">
<title>dir_6873a2afc4715a8a8ff813bcf2ca82fa&#45;&gt;dir_cf895c1ed808af158264b2f3d8d7f8f0</title>
<path fill="none" stroke="#000000" d="M415.0556,-359.8314C404.9309,-351.0485 392.6223,-340.3712 381.6452,-330.8489"/>
<polygon fill="#000000" stroke="#000000" points="383.7851,-328.0718 373.9377,-324.1628 379.1981,-333.3595 383.7851,-328.0718"/>
<g id="a_edge1&#45;headlabel"><a xlink:href="dir_000490_000004.xhtml" target="_top" xlink:title="2">
<text text-anchor="middle" x="388.3609" y="-325.7825" font-family="Helvetica,sans-Serif" font-size="10.00" fill="#000000">2</text>
</a>
</g>
</g>
<!-- dir_8824b015e2d84b32c32abeb682f6ceb8 -->
<g id="node5" class="node">
<title>dir_8824b015e2d84b32c32abeb682f6ceb8</title>
<g id="a_node5"><a xlink:href="dir_8824b015e2d84b32c32abeb682f6ceb8.xhtml" target="_top" xlink:title="utils">
<polygon fill="none" stroke="#000000" points="54,-252 0,-252 0,-216 54,-216 54,-252"/>
<text text-anchor="middle" x="27" y="-231.5" font-family="Helvetica,sans-Serif" font-size="10.00" fill="#000000">utils</text>
</a>
</g>
</g>
<!-- dir_6873a2afc4715a8a8ff813bcf2ca82fa&#45;&gt;dir_8824b015e2d84b32c32abeb682f6ceb8 -->
<g id="edge2" class="edge">
<title>dir_6873a2afc4715a8a8ff813bcf2ca82fa&#45;&gt;dir_8824b015e2d84b32c32abeb682f6ceb8</title>
<path fill="none" stroke="#000000" d="M404.2973,-376.8085C326.5439,-373.3351 128.8812,-361.0037 76,-324 54.9263,-309.2536 42.0272,-282.459 34.7908,-261.9275"/>
<polygon fill="#000000" stroke="#000000" points="38.0278,-260.5648 31.5958,-252.1458 31.3737,-262.7383 38.0278,-260.5648"/>
<g id="a_edge2&#45;headlabel"><a xlink:href="dir_000490_000035.xhtml" target="_top" xlink:title="2">
<text text-anchor="middle" x="41.8427" y="-260.6003" font-family="Helvetica,sans-Serif" font-size="10.00" fill="#000000">2</text>
</a>
</g>
</g>
<!-- dir_09aab6a206c9d3717fe22866ebbc9576 -->
<g id="node8" class="node">
<title>dir_09aab6a206c9d3717fe22866ebbc9576</title>
<g id="a_node8"><a xlink:href="dir_09aab6a206c9d3717fe22866ebbc9576.xhtml" target="_top" xlink:title="template_writer">
<polygon fill="#ffffff" stroke="#ff0000" points="243.5,-252 148.5,-252 148.5,-216 243.5,-216 243.5,-252"/>
<text text-anchor="middle" x="196" y="-231.5" font-family="Helvetica,sans-Serif" font-size="10.00" fill="#000000">template_writer</text>
</a>
</g>
</g>
<!-- dir_6873a2afc4715a8a8ff813bcf2ca82fa&#45;&gt;dir_09aab6a206c9d3717fe22866ebbc9576 -->
<g id="edge4" class="edge">
<title>dir_6873a2afc4715a8a8ff813bcf2ca82fa&#45;&gt;dir_09aab6a206c9d3717fe22866ebbc9576</title>
<path fill="none" stroke="#000000" d="M404.3562,-370.1895C373.8095,-361.7603 327.0176,-346.453 291,-324 262.7461,-306.3868 235.7087,-279.4462 217.7538,-259.6288"/>
<polygon fill="#000000" stroke="#000000" points="220.364,-257.2969 211.1022,-252.152 215.134,-261.9497 220.364,-257.2969"/>
<g id="a_edge4&#45;headlabel"><a xlink:href="dir_000490_000492.xhtml" target="_top" xlink:title="3">
<text text-anchor="middle" x="224.8745" y="-255.5954" font-family="Helvetica,sans-Serif" font-size="10.00" fill="#000000">3</text>
</a>
</g>
</g>
<!-- dir_bf9f26469d00835ba20ff8d80ee5a804 -->
<g id="node9" class="node">
<title>dir_bf9f26469d00835ba20ff8d80ee5a804</title>
<g id="a_node9"><a xlink:href="dir_bf9f26469d00835ba20ff8d80ee5a804.xhtml" target="_top" xlink:title="runtime">
<polygon fill="#ffffff" stroke="#ff0000" points="316.5,-252 261.5,-252 261.5,-216 316.5,-216 316.5,-252"/>
<text text-anchor="middle" x="289" y="-231.5" font-family="Helvetica,sans-Serif" font-size="10.00" fill="#000000">runtime</text>
</a>
</g>
</g>
<!-- dir_6873a2afc4715a8a8ff813bcf2ca82fa&#45;&gt;dir_bf9f26469d00835ba20ff8d80ee5a804 -->
<g id="edge5" class="edge">
<title>dir_6873a2afc4715a8a8ff813bcf2ca82fa&#45;&gt;dir_bf9f26469d00835ba20ff8d80ee5a804</title>
<path fill="none" stroke="#000000" d="M404.3377,-371.3049C377.4949,-364.0424 339.8218,-349.8527 317,-324 301.9234,-306.9212 294.964,-281.8011 291.7519,-262.4368"/>
<polygon fill="#000000" stroke="#000000" points="295.1924,-261.7693 290.3253,-252.3587 288.2615,-262.7506 295.1924,-261.7693"/>
<g id="a_edge5&#45;headlabel"><a xlink:href="dir_000490_000036.xhtml" target="_top" xlink:title="4">
<text text-anchor="middle" x="298.5074" y="-262.4305" font-family="Helvetica,sans-Serif" font-size="10.00" fill="#000000">4</text>
</a>
</g>
</g>
<!-- dir_2dfbec2966693e15f04cad1350ff3fc9 -->
<g id="node4" class="node">
<title>dir_2dfbec2966693e15f04cad1350ff3fc9</title>
<g id="a_node4"><a xlink:href="dir_2dfbec2966693e15f04cad1350ff3fc9.xhtml" target="_top" xlink:title="components">
<polygon fill="#ffffff" stroke="#ff0000" points="162.5,-324 85.5,-324 85.5,-288 162.5,-288 162.5,-324"/>
<text text-anchor="middle" x="124" y="-303.5" font-family="Helvetica,sans-Serif" font-size="10.00" fill="#000000">components</text>
</a>
</g>
</g>
<!-- dir_f670b1f1dbda7ab506eda885c22b7f58&#45;&gt;dir_2dfbec2966693e15f04cad1350ff3fc9 -->
<g id="edge16" class="edge">
<title>dir_f670b1f1dbda7ab506eda885c22b7f58&#45;&gt;dir_2dfbec2966693e15f04cad1350ff3fc9</title>
<path fill="none" stroke="#000000" d="M415.9987,-324.0971C405.6178,-331.1502 392.8226,-338.3969 380,-342 309.3696,-361.8468 224.5611,-341.6697 172.4789,-324.49"/>
<polygon fill="#000000" stroke="#000000" points="173.4236,-321.1146 162.8293,-321.2172 171.1752,-327.7437 173.4236,-321.1146"/>
<g id="a_edge16&#45;headlabel"><a xlink:href="dir_000491_000026.xhtml" target="_top" xlink:title="1">
<text text-anchor="middle" x="177.7397" y="-317.0803" font-family="Helvetica,sans-Serif" font-size="10.00" fill="#000000">1</text>
</a>
</g>
</g>
<!-- dir_214608ef36d61442cb2b0c1c4e9a7def -->
<g id="node6" class="node">
<title>dir_214608ef36d61442cb2b0c1c4e9a7def</title>
<g id="a_node6"><a xlink:href="dir_214608ef36d61442cb2b0c1c4e9a7def.xhtml" target="_top" xlink:title="arm_compute">
<polygon fill="#ffffff" stroke="#ff0000" points="314,-36 230,-36 230,0 314,0 314,-36"/>
<text text-anchor="middle" x="272" y="-15.5" font-family="Helvetica,sans-Serif" font-size="10.00" fill="#000000">arm_compute</text>
</a>
</g>
</g>
<!-- dir_f670b1f1dbda7ab506eda885c22b7f58&#45;&gt;dir_214608ef36d61442cb2b0c1c4e9a7def -->
<g id="edge17" class="edge">
<title>dir_f670b1f1dbda7ab506eda885c22b7f58&#45;&gt;dir_214608ef36d61442cb2b0c1c4e9a7def</title>
<path fill="none" stroke="#000000" d="M442.9785,-287.8826C451.2986,-244.7982 465.6034,-135.1221 412,-72 389.9567,-46.0423 353.9208,-32.5141 323.9303,-25.4898"/>
<polygon fill="#000000" stroke="#000000" points="324.534,-22.0396 314.0203,-23.3485 323.0555,-28.8817 324.534,-22.0396"/>
<g id="a_edge17&#45;headlabel"><a xlink:href="dir_000491_000000.xhtml" target="_top" xlink:title="1">
<text text-anchor="middle" x="328.6471" y="-17.5235" font-family="Helvetica,sans-Serif" font-size="10.00" fill="#000000">1</text>
</a>
</g>
</g>
<!-- dir_aebb8dcc11953d78e620bbef0b9e2183 -->
<g id="node7" class="node">
<title>dir_aebb8dcc11953d78e620bbef0b9e2183</title>
<g id="a_node7"><a xlink:href="dir_aebb8dcc11953d78e620bbef0b9e2183.xhtml" target="_top" xlink:title="core">
<polygon fill="#ffffff" stroke="#ff0000" points="373,-180 319,-180 319,-144 373,-144 373,-180"/>
<text text-anchor="middle" x="346" y="-159.5" font-family="Helvetica,sans-Serif" font-size="10.00" fill="#000000">core</text>
</a>
</g>
</g>
<!-- dir_f670b1f1dbda7ab506eda885c22b7f58&#45;&gt;dir_aebb8dcc11953d78e620bbef0b9e2183 -->
<g id="edge18" class="edge">
<title>dir_f670b1f1dbda7ab506eda885c22b7f58&#45;&gt;dir_aebb8dcc11953d78e620bbef0b9e2183</title>
<path fill="none" stroke="#000000" d="M427.2215,-287.7623C411.0795,-262.7682 381.968,-217.6924 363.3347,-188.8409"/>
<polygon fill="#000000" stroke="#000000" points="366.0483,-186.5912 357.6829,-180.0896 360.168,-190.3889 366.0483,-186.5912"/>
<g id="a_edge18&#45;headlabel"><a xlink:href="dir_000491_000020.xhtml" target="_top" xlink:title="1">
<text text-anchor="middle" x="370.3835" y="-185.5704" font-family="Helvetica,sans-Serif" font-size="10.00" fill="#000000">1</text>
</a>
</g>
</g>
<!-- dir_fdedb0aba14d44ce9d99bc100e026e6a -->
<g id="node10" class="node">
<title>dir_fdedb0aba14d44ce9d99bc100e026e6a</title>
<g id="a_node10"><a xlink:href="dir_fdedb0aba14d44ce9d99bc100e026e6a.xhtml" target="_top" xlink:title="common">
<polygon fill="#ffffff" stroke="#ff0000" points="378.5,-108 319.5,-108 319.5,-72 378.5,-72 378.5,-108"/>
<text text-anchor="middle" x="349" y="-87.5" font-family="Helvetica,sans-Serif" font-size="10.00" fill="#000000">common</text>
</a>
</g>
</g>
<!-- dir_f670b1f1dbda7ab506eda885c22b7f58&#45;&gt;dir_fdedb0aba14d44ce9d99bc100e026e6a -->
<g id="edge19" class="edge">
<title>dir_f670b1f1dbda7ab506eda885c22b7f58&#45;&gt;dir_fdedb0aba14d44ce9d99bc100e026e6a</title>
<path fill="none" stroke="#000000" d="M437.316,-287.9552C433.8092,-256.9011 423.7837,-192.0629 398,-144 392.5018,-133.7509 384.6389,-123.9031 376.8167,-115.4887"/>
<polygon fill="#000000" stroke="#000000" points="379.1975,-112.9168 369.7136,-108.1938 374.1822,-117.8002 379.1975,-112.9168"/>
<g id="a_edge19&#45;headlabel"><a xlink:href="dir_000491_000019.xhtml" target="_top" xlink:title="1">
<text text-anchor="middle" x="383.7394" y="-111.0114" font-family="Helvetica,sans-Serif" font-size="10.00" fill="#000000">1</text>
</a>
</g>
</g>
<!-- dir_cf895c1ed808af158264b2f3d8d7f8f0&#45;&gt;dir_214608ef36d61442cb2b0c1c4e9a7def -->
<g id="edge6" class="edge">
<title>dir_cf895c1ed808af158264b2f3d8d7f8f0&#45;&gt;dir_214608ef36d61442cb2b0c1c4e9a7def</title>
<path fill="none" stroke="#000000" d="M371.291,-287.6964C379.8105,-277.9508 389.124,-265.257 394,-252 421.6312,-176.8759 435.581,-136.3674 388,-72 372.5752,-51.1334 347.0748,-38.0663 323.9054,-30.0256"/>
<polygon fill="#000000" stroke="#000000" points="324.7462,-26.6192 314.1545,-26.8792 322.5965,-33.281 324.7462,-26.6192"/>
<g id="a_edge6&#45;headlabel"><a xlink:href="dir_000004_000000.xhtml" target="_top" xlink:title="488">
<text text-anchor="middle" x="329.039" y="-22.5209" font-family="Helvetica,sans-Serif" font-size="10.00" fill="#000000">488</text>
</a>
</g>
</g>
<!-- dir_cf895c1ed808af158264b2f3d8d7f8f0&#45;&gt;dir_aebb8dcc11953d78e620bbef0b9e2183 -->
<g id="edge7" class="edge">
<title>dir_cf895c1ed808af158264b2f3d8d7f8f0&#45;&gt;dir_aebb8dcc11953d78e620bbef0b9e2183</title>
<path fill="none" stroke="#000000" d="M347.4403,-287.7623C343.7865,-263.201 341.3751,-219.2474 341.8809,-190.3541"/>
<polygon fill="#000000" stroke="#000000" points="345.3878,-190.2001 342.2211,-180.0896 338.3917,-189.9682 345.3878,-190.2001"/>
<g id="a_edge7&#45;headlabel"><a xlink:href="dir_000004_000020.xhtml" target="_top" xlink:title="236">
<text text-anchor="middle" x="348.1066" y="-191.3867" font-family="Helvetica,sans-Serif" font-size="10.00" fill="#000000">236</text>
</a>
</g>
</g>
<!-- dir_cf895c1ed808af158264b2f3d8d7f8f0&#45;&gt;dir_bf9f26469d00835ba20ff8d80ee5a804 -->
<g id="edge8" class="edge">
<title>dir_cf895c1ed808af158264b2f3d8d7f8f0&#45;&gt;dir_bf9f26469d00835ba20ff8d80ee5a804</title>
<path fill="none" stroke="#000000" d="M330.8977,-287.8314C322.6348,-279.454 313.4665,-269.3531 305.7452,-260.1749"/>
<polygon fill="#000000" stroke="#000000" points="308.4341,-257.9341 299.3913,-252.4133 303.0175,-262.3683 308.4341,-257.9341"/>
<g id="a_edge8&#45;headlabel"><a xlink:href="dir_000004_000036.xhtml" target="_top" xlink:title="14">
<text text-anchor="middle" x="312.908" y="-256.4171" font-family="Helvetica,sans-Serif" font-size="10.00" fill="#000000">14</text>
</a>
</g>
</g>
<!-- dir_cf895c1ed808af158264b2f3d8d7f8f0&#45;&gt;dir_fdedb0aba14d44ce9d99bc100e026e6a -->
<g id="edge9" class="edge">
<title>dir_cf895c1ed808af158264b2f3d8d7f8f0&#45;&gt;dir_fdedb0aba14d44ce9d99bc100e026e6a</title>
<path fill="none" stroke="#000000" d="M361.5477,-287.7616C374.5628,-257.4955 396.394,-195.1577 382,-144 379.3339,-134.5243 374.4919,-125.067 369.3238,-116.7759"/>
<polygon fill="#000000" stroke="#000000" points="372.1303,-114.6757 363.6752,-108.2912 366.3034,-118.5549 372.1303,-114.6757"/>
<g id="a_edge9&#45;headlabel"><a xlink:href="dir_000004_000019.xhtml" target="_top" xlink:title="45">
<text text-anchor="middle" x="376.4857" y="-113.5945" font-family="Helvetica,sans-Serif" font-size="10.00" fill="#000000">45</text>
</a>
</g>
</g>
<!-- dir_2dfbec2966693e15f04cad1350ff3fc9&#45;&gt;dir_f670b1f1dbda7ab506eda885c22b7f58 -->
<g id="edge11" class="edge">
<title>dir_2dfbec2966693e15f04cad1350ff3fc9&#45;&gt;dir_f670b1f1dbda7ab506eda885c22b7f58</title>
<path fill="none" stroke="#000000" d="M162.8293,-321.2172C213.5706,-338.9027 304.8175,-363.126 380,-342 389.5168,-339.3258 399.0184,-334.6446 407.5292,-329.5251"/>
<polygon fill="#000000" stroke="#000000" points="409.4679,-332.4397 415.9987,-324.0971 405.6908,-326.5462 409.4679,-332.4397"/>
<g id="a_edge11&#45;headlabel"><a xlink:href="dir_000026_000491.xhtml" target="_top" xlink:title="1">
<text text-anchor="middle" x="407.9735" y="-334.2698" font-family="Helvetica,sans-Serif" font-size="10.00" fill="#000000">1</text>
</a>
</g>
</g>
<!-- dir_2dfbec2966693e15f04cad1350ff3fc9&#45;&gt;dir_8824b015e2d84b32c32abeb682f6ceb8 -->
<g id="edge10" class="edge">
<title>dir_2dfbec2966693e15f04cad1350ff3fc9&#45;&gt;dir_8824b015e2d84b32c32abeb682f6ceb8</title>
<path fill="none" stroke="#000000" d="M99.5228,-287.8314C87.4605,-278.8779 72.746,-267.9558 59.7314,-258.2955"/>
<polygon fill="#000000" stroke="#000000" points="61.5852,-255.3127 51.4694,-252.1628 57.413,-260.9335 61.5852,-255.3127"/>
<g id="a_edge10&#45;headlabel"><a xlink:href="dir_000026_000035.xhtml" target="_top" xlink:title="1">
<text text-anchor="middle" x="66.1638" y="-252.6752" font-family="Helvetica,sans-Serif" font-size="10.00" fill="#000000">1</text>
</a>
</g>
</g>
<!-- dir_2dfbec2966693e15f04cad1350ff3fc9&#45;&gt;dir_214608ef36d61442cb2b0c1c4e9a7def -->
<g id="edge12" class="edge">
<title>dir_2dfbec2966693e15f04cad1350ff3fc9&#45;&gt;dir_214608ef36d61442cb2b0c1c4e9a7def</title>
<path fill="none" stroke="#000000" d="M119.4112,-287.8674C115.5727,-269.2937 111.9032,-239.8438 120,-216 144.4571,-143.9777 206.8271,-77.642 243.627,-43.05"/>
<polygon fill="#000000" stroke="#000000" points="246.1089,-45.5219 251.0687,-36.1596 241.3531,-40.3855 246.1089,-45.5219"/>
<g id="a_edge12&#45;headlabel"><a xlink:href="dir_000026_000000.xhtml" target="_top" xlink:title="33">
<text text-anchor="middle" x="245.4003" y="-47.5474" font-family="Helvetica,sans-Serif" font-size="10.00" fill="#000000">33</text>
</a>
</g>
</g>
<!-- dir_2dfbec2966693e15f04cad1350ff3fc9&#45;&gt;dir_aebb8dcc11953d78e620bbef0b9e2183 -->
<g id="edge13" class="edge">
<title>dir_2dfbec2966693e15f04cad1350ff3fc9&#45;&gt;dir_aebb8dcc11953d78e620bbef0b9e2183</title>
<path fill="none" stroke="#000000" d="M121.6812,-287.6479C120.2209,-267.4911 121.262,-235.4115 139,-216 161.6657,-191.1959 255.6982,-174.4786 308.8926,-166.8077"/>
<polygon fill="#000000" stroke="#000000" points="309.5379,-170.2515 318.9537,-165.3944 308.5641,-163.3196 309.5379,-170.2515"/>
<g id="a_edge13&#45;headlabel"><a xlink:href="dir_000026_000020.xhtml" target="_top" xlink:title="11">
<text text-anchor="middle" x="306.3731" y="-171.0631" font-family="Helvetica,sans-Serif" font-size="10.00" fill="#000000">11</text>
</a>
</g>
</g>
<!-- dir_2dfbec2966693e15f04cad1350ff3fc9&#45;&gt;dir_09aab6a206c9d3717fe22866ebbc9576 -->
<g id="edge14" class="edge">
<title>dir_2dfbec2966693e15f04cad1350ff3fc9&#45;&gt;dir_09aab6a206c9d3717fe22866ebbc9576</title>
<path fill="none" stroke="#000000" d="M136.2162,-287.8314C144.0663,-279.1337 154.4496,-268.5783 164.4049,-259.1265"/>
<polygon fill="#000000" stroke="#000000" points="166.9508,-261.5384 171.8853,-252.1628 162.1812,-256.4148 166.9508,-261.5384"/>
<g id="a_edge14&#45;headlabel"><a xlink:href="dir_000026_000492.xhtml" target="_top" xlink:title="12">
<text text-anchor="middle" x="166.2544" y="-263.5658" font-family="Helvetica,sans-Serif" font-size="10.00" fill="#000000">12</text>
</a>
</g>
</g>
<!-- dir_8824b015e2d84b32c32abeb682f6ceb8&#45;&gt;dir_214608ef36d61442cb2b0c1c4e9a7def -->
<g id="edge15" class="edge">
<title>dir_8824b015e2d84b32c32abeb682f6ceb8&#45;&gt;dir_214608ef36d61442cb2b0c1c4e9a7def</title>
<path fill="none" stroke="#000000" d="M26.0559,-215.8527C25.3695,-182.5545 28.9294,-111.4984 68,-72 89.1184,-50.6503 166.8446,-34.5001 220.0186,-25.6451"/>
<polygon fill="#000000" stroke="#000000" points="220.6645,-29.0861 229.972,-24.0244 219.5395,-22.1771 220.6645,-29.0861"/>
<g id="a_edge15&#45;headlabel"><a xlink:href="dir_000035_000000.xhtml" target="_top" xlink:title="2">
<text text-anchor="middle" x="217.5728" y="-29.966" font-family="Helvetica,sans-Serif" font-size="10.00" fill="#000000">2</text>
</a>
</g>
</g>
<!-- dir_aebb8dcc11953d78e620bbef0b9e2183&#45;&gt;dir_cf895c1ed808af158264b2f3d8d7f8f0 -->
<g id="edge20" class="edge">
<title>dir_aebb8dcc11953d78e620bbef0b9e2183&#45;&gt;dir_cf895c1ed808af158264b2f3d8d7f8f0</title>
<path fill="none" stroke="#000000" d="M351.5376,-180.0896C355.1964,-204.5727 357.6162,-248.5174 357.1221,-277.4713"/>
<polygon fill="#000000" stroke="#000000" points="353.6144,-277.6535 356.7866,-287.7623 360.6107,-277.8817 353.6144,-277.6535"/>
<g id="a_edge20&#45;headlabel"><a xlink:href="dir_000020_000004.xhtml" target="_top" xlink:title="4">
<text text-anchor="middle" x="350.8937" y="-271.4683" font-family="Helvetica,sans-Serif" font-size="10.00" fill="#000000">4</text>
</a>
</g>
</g>
<!-- dir_aebb8dcc11953d78e620bbef0b9e2183&#45;&gt;dir_214608ef36d61442cb2b0c1c4e9a7def -->
<g id="edge21" class="edge">
<title>dir_aebb8dcc11953d78e620bbef0b9e2183&#45;&gt;dir_214608ef36d61442cb2b0c1c4e9a7def</title>
<path fill="none" stroke="#000000" d="M332.438,-143.5475C325.2749,-133.3566 316.6216,-120.3027 310,-108 299.0804,-87.712 289.0496,-63.6131 282.039,-45.4605"/>
<polygon fill="#000000" stroke="#000000" points="285.2882,-44.1576 278.4685,-36.0494 278.7434,-46.6407 285.2882,-44.1576"/>
<g id="a_edge21&#45;headlabel"><a xlink:href="dir_000020_000000.xhtml" target="_top" xlink:title="609">
<text text-anchor="middle" x="289.2179" y="-44.0113" font-family="Helvetica,sans-Serif" font-size="10.00" fill="#000000">609</text>
</a>
</g>
</g>
<!-- dir_aebb8dcc11953d78e620bbef0b9e2183&#45;&gt;dir_fdedb0aba14d44ce9d99bc100e026e6a -->
<g id="edge22" class="edge">
<title>dir_aebb8dcc11953d78e620bbef0b9e2183&#45;&gt;dir_fdedb0aba14d44ce9d99bc100e026e6a</title>
<path fill="none" stroke="#000000" d="M346.757,-143.8314C347.0779,-136.131 347.4594,-126.9743 347.816,-118.4166"/>
<polygon fill="#000000" stroke="#000000" points="351.3133,-118.5503 348.2328,-108.4133 344.3194,-118.2589 351.3133,-118.5503"/>
<g id="a_edge22&#45;headlabel"><a xlink:href="dir_000020_000019.xhtml" target="_top" xlink:title="5">
<text text-anchor="middle" x="354.0006" y="-119.76" font-family="Helvetica,sans-Serif" font-size="10.00" fill="#000000">5</text>
</a>
</g>
</g>
<!-- dir_09aab6a206c9d3717fe22866ebbc9576&#45;&gt;dir_2dfbec2966693e15f04cad1350ff3fc9 -->
<g id="edge23" class="edge">
<title>dir_09aab6a206c9d3717fe22866ebbc9576&#45;&gt;dir_2dfbec2966693e15f04cad1350ff3fc9</title>
<path fill="none" stroke="#000000" d="M183.5627,-252.4133C175.7259,-261.0787 165.4215,-271.5464 155.5436,-280.9223"/>
<polygon fill="#000000" stroke="#000000" points="153.0561,-278.4561 148.121,-287.8314 157.8255,-283.5799 153.0561,-278.4561"/>
<g id="a_edge23&#45;headlabel"><a xlink:href="dir_000492_000026.xhtml" target="_top" xlink:title="15">
<text text-anchor="middle" x="153.7528" y="-271.4287" font-family="Helvetica,sans-Serif" font-size="10.00" fill="#000000">15</text>
</a>
</g>
</g>
<!-- dir_09aab6a206c9d3717fe22866ebbc9576&#45;&gt;dir_214608ef36d61442cb2b0c1c4e9a7def -->
<g id="edge24" class="edge">
<title>dir_09aab6a206c9d3717fe22866ebbc9576&#45;&gt;dir_214608ef36d61442cb2b0c1c4e9a7def</title>
<path fill="none" stroke="#000000" d="M202.349,-215.9555C215.621,-178.235 246.3786,-90.8188 262.2045,-45.8399"/>
<polygon fill="#000000" stroke="#000000" points="265.5981,-46.7399 265.6156,-36.1451 258.9949,-44.4165 265.5981,-46.7399"/>
<g id="a_edge24&#45;headlabel"><a xlink:href="dir_000492_000000.xhtml" target="_top" xlink:title="21">
<text text-anchor="middle" x="267.0834" y="-48.5731" font-family="Helvetica,sans-Serif" font-size="10.00" fill="#000000">21</text>
</a>
</g>
</g>
<!-- dir_09aab6a206c9d3717fe22866ebbc9576&#45;&gt;dir_aebb8dcc11953d78e620bbef0b9e2183 -->
<g id="edge25" class="edge">
<title>dir_09aab6a206c9d3717fe22866ebbc9576&#45;&gt;dir_aebb8dcc11953d78e620bbef0b9e2183</title>
<path fill="none" stroke="#000000" d="M233.8513,-215.8314C257.0404,-204.7006 286.5683,-190.5272 309.504,-179.5181"/>
<polygon fill="#000000" stroke="#000000" points="311.0743,-182.6467 318.5749,-175.164 308.0451,-176.3361 311.0743,-182.6467"/>
<g id="a_edge25&#45;headlabel"><a xlink:href="dir_000492_000020.xhtml" target="_top" xlink:title="11">
<text text-anchor="middle" x="309.0623" y="-184.2618" font-family="Helvetica,sans-Serif" font-size="10.00" fill="#000000">11</text>
</a>
</g>
</g>
<!-- dir_bf9f26469d00835ba20ff8d80ee5a804&#45;&gt;dir_cf895c1ed808af158264b2f3d8d7f8f0 -->
<g id="edge26" class="edge">
<title>dir_bf9f26469d00835ba20ff8d80ee5a804&#45;&gt;dir_cf895c1ed808af158264b2f3d8d7f8f0</title>
<path fill="none" stroke="#000000" d="M311.3434,-252.4133C319.54,-260.7389 328.6014,-270.7282 336.2458,-279.8144"/>
<polygon fill="#000000" stroke="#000000" points="333.7623,-282.3063 342.8025,-287.8314 339.1809,-277.8747 333.7623,-282.3063"/>
<g id="a_edge26&#45;headlabel"><a xlink:href="dir_000036_000004.xhtml" target="_top" xlink:title="57">
<text text-anchor="middle" x="329.2888" y="-278.8213" font-family="Helvetica,sans-Serif" font-size="10.00" fill="#000000">57</text>
</a>
</g>
</g>
<!-- dir_bf9f26469d00835ba20ff8d80ee5a804&#45;&gt;dir_214608ef36d61442cb2b0c1c4e9a7def -->
<g id="edge27" class="edge">
<title>dir_bf9f26469d00835ba20ff8d80ee5a804&#45;&gt;dir_214608ef36d61442cb2b0c1c4e9a7def</title>
<path fill="none" stroke="#000000" d="M287.5798,-215.9555C284.6173,-178.3144 277.7601,-91.1867 274.2135,-46.1246"/>
<polygon fill="#000000" stroke="#000000" points="277.702,-45.8396 273.4281,-36.1451 270.7236,-46.3889 277.702,-45.8396"/>
<g id="a_edge27&#45;headlabel"><a xlink:href="dir_000036_000000.xhtml" target="_top" xlink:title="945">
<text text-anchor="middle" x="280.8145" y="-46.7004" font-family="Helvetica,sans-Serif" font-size="10.00" fill="#000000">945</text>
</a>
</g>
</g>
<!-- dir_bf9f26469d00835ba20ff8d80ee5a804&#45;&gt;dir_aebb8dcc11953d78e620bbef0b9e2183 -->
<g id="edge28" class="edge">
<title>dir_bf9f26469d00835ba20ff8d80ee5a804&#45;&gt;dir_aebb8dcc11953d78e620bbef0b9e2183</title>
<path fill="none" stroke="#000000" d="M303.3835,-215.8314C309.9486,-207.5386 317.8507,-197.557 325.0578,-188.4533"/>
<polygon fill="#000000" stroke="#000000" points="327.9599,-190.4262 331.4228,-180.4133 322.4716,-186.0813 327.9599,-190.4262"/>
<g id="a_edge28&#45;headlabel"><a xlink:href="dir_000036_000020.xhtml" target="_top" xlink:title="214">
<text text-anchor="middle" x="327.9549" y="-192.5069" font-family="Helvetica,sans-Serif" font-size="10.00" fill="#000000">214</text>
</a>
</g>
</g>
<!-- dir_bf9f26469d00835ba20ff8d80ee5a804&#45;&gt;dir_fdedb0aba14d44ce9d99bc100e026e6a -->
<g id="edge29" class="edge">
<title>dir_bf9f26469d00835ba20ff8d80ee5a804&#45;&gt;dir_fdedb0aba14d44ce9d99bc100e026e6a</title>
<path fill="none" stroke="#000000" d="M291.1062,-215.729C293.7478,-197.045 299.2935,-167.5088 310,-144 314.3857,-134.3702 320.6185,-124.7257 326.8179,-116.3072"/>
<polygon fill="#000000" stroke="#000000" points="329.6194,-118.4056 332.9364,-108.3433 324.0685,-114.1409 329.6194,-118.4056"/>
<g id="a_edge29&#45;headlabel"><a xlink:href="dir_000036_000019.xhtml" target="_top" xlink:title="127">
<text text-anchor="middle" x="329.681" y="-120.4858" font-family="Helvetica,sans-Serif" font-size="10.00" fill="#000000">127</text>
</a>
</g>
</g>
<!-- dir_fdedb0aba14d44ce9d99bc100e026e6a&#45;&gt;dir_214608ef36d61442cb2b0c1c4e9a7def -->
<g id="edge30" class="edge">
<title>dir_fdedb0aba14d44ce9d99bc100e026e6a&#45;&gt;dir_214608ef36d61442cb2b0c1c4e9a7def</title>
<path fill="none" stroke="#000000" d="M329.5696,-71.8314C320.268,-63.1337 308.9796,-52.5783 298.8714,-43.1265"/>
<polygon fill="#000000" stroke="#000000" points="301.1189,-40.4363 291.4241,-36.1628 296.3379,-45.5493 301.1189,-40.4363"/>
<g id="a_edge30&#45;headlabel"><a xlink:href="dir_000019_000000.xhtml" target="_top" xlink:title="17">
<text text-anchor="middle" x="305.6837" y="-38.3175" font-family="Helvetica,sans-Serif" font-size="10.00" fill="#000000">17</text>
</a>
</g>
</g>
</g>
</svg>
