<?xml version="1.0" encoding="UTF-8" standalone="no"?>
<!DOCTYPE svg PUBLIC "-//W3C//DTD SVG 1.1//EN"
 "http://www.w3.org/Graphics/SVG/1.1/DTD/svg11.dtd">
<!-- Generated by graphviz version 2.40.1 (20161225.0304)
 -->
<!-- Title: src/runtime/CL Pages: 1 -->
<svg width="828pt" height="540pt"
 viewBox="0.00 0.00 828.00 539.71" xmlns="http://www.w3.org/2000/svg" xmlns:xlink="http://www.w3.org/1999/xlink">
<g id="graph0" class="graph" transform="scale(1 1) rotate(0) translate(4 535.7074)">
<title>src/runtime/CL</title>
<polygon fill="#ffffff" stroke="transparent" points="-4,4 -4,-535.7074 824,-535.7074 824,4 -4,4"/>
<g id="clust1" class="cluster">
<title>clusterdir_bf9f26469d00835ba20ff8d80ee5a804</title>
<g id="a_clust1"><a xlink:href="dir_bf9f26469d00835ba20ff8d80ee5a804.xhtml" target="_top" xlink:title="runtime">
<polygon fill="#ddddee" stroke="#000000" points="166,-344 166,-503 550,-503 550,-344 166,-344"/>
<text text-anchor="middle" x="358" y="-491" font-family="Helvetica,sans-Serif" font-size="10.00" fill="#000000">runtime</text>
</a>
</g>
</g>
<g id="clust2" class="cluster">
<title>clusterdir_43c3fdbf778d1fd99e2e38f09fddd920</title>
<g id="a_clust2"><a xlink:href="dir_43c3fdbf778d1fd99e2e38f09fddd920.xhtml" target="_top">
<polygon fill="#eeeeff" stroke="#000000" points="174,-352 174,-476 542,-476 542,-352 174,-352"/>
</a>
</g>
</g>
<!-- dir_43c3fdbf778d1fd99e2e38f09fddd920 -->
<g id="node1" class="node">
<title>dir_43c3fdbf778d1fd99e2e38f09fddd920</title>
<text text-anchor="middle" x="289" y="-447.5" font-family="Helvetica,sans-Serif" font-size="10.00" fill="#000000">CL</text>
</g>
<!-- dir_82e3926d996ac5aae32ffa787ec227cb -->
<g id="node5" class="node">
<title>dir_82e3926d996ac5aae32ffa787ec227cb</title>
<g id="a_node5"><a xlink:href="dir_82e3926d996ac5aae32ffa787ec227cb.xhtml" target="_top" xlink:title="mlgo">
<polygon fill="#ffffff" stroke="#000000" points="462,-396 408,-396 408,-360 462,-360 462,-396"/>
<text text-anchor="middle" x="435" y="-375.5" font-family="Helvetica,sans-Serif" font-size="10.00" fill="#000000">mlgo</text>
</a>
</g>
</g>
<!-- dir_43c3fdbf778d1fd99e2e38f09fddd920&#45;&gt;dir_82e3926d996ac5aae32ffa787ec227cb -->
<g id="edge26" class="edge">
<title>dir_43c3fdbf778d1fd99e2e38f09fddd920&#45;&gt;dir_82e3926d996ac5aae32ffa787ec227cb</title>
<path fill="none" stroke="#000000" d="M316.1162,-436.4154C319.1123,-434.9223 322.1198,-433.427 325,-432 349.5762,-419.8238 377.2968,-406.2163 398.7618,-395.7072"/>
<polygon fill="#000000" stroke="#000000" points="400.4059,-398.7993 407.8497,-391.26 397.329,-392.5118 400.4059,-398.7993"/>
<g id="a_edge26&#45;headlabel"><a xlink:href="dir_000037_000038.xhtml" target="_top" xlink:title="3">
<text text-anchor="middle" x="398.4252" y="-400.4296" font-family="Helvetica,sans-Serif" font-size="10.00" fill="#000000">3</text>
</a>
</g>
</g>
<!-- dir_214608ef36d61442cb2b0c1c4e9a7def -->
<g id="node10" class="node">
<title>dir_214608ef36d61442cb2b0c1c4e9a7def</title>
<g id="a_node10"><a xlink:href="dir_214608ef36d61442cb2b0c1c4e9a7def.xhtml" target="_top" xlink:title="arm_compute">
<polygon fill="#ffffff" stroke="#ff0000" points="384,-180 300,-180 300,-144 384,-144 384,-180"/>
<text text-anchor="middle" x="342" y="-159.5" font-family="Helvetica,sans-Serif" font-size="10.00" fill="#000000">arm_compute</text>
</a>
</g>
</g>
<!-- dir_43c3fdbf778d1fd99e2e38f09fddd920&#45;&gt;dir_214608ef36d61442cb2b0c1c4e9a7def -->
<g id="edge27" class="edge">
<title>dir_43c3fdbf778d1fd99e2e38f09fddd920&#45;&gt;dir_214608ef36d61442cb2b0c1c4e9a7def</title>
<path fill="none" stroke="#000000" d="M289.4425,-431.7378C290.8011,-391.8605 296.2663,-294.2971 318,-216 320.4456,-207.1896 324.0973,-197.9687 327.8188,-189.6911"/>
<polygon fill="#000000" stroke="#000000" points="331.0585,-191.0265 332.1516,-180.4882 324.7253,-188.0447 331.0585,-191.0265"/>
<g id="a_edge27&#45;headlabel"><a xlink:href="dir_000037_000000.xhtml" target="_top" xlink:title="467">
<text text-anchor="middle" x="332.0962" y="-192.9881" font-family="Helvetica,sans-Serif" font-size="10.00" fill="#000000">467</text>
</a>
</g>
</g>
<!-- dir_aebb8dcc11953d78e620bbef0b9e2183 -->
<g id="node11" class="node">
<title>dir_aebb8dcc11953d78e620bbef0b9e2183</title>
<g id="a_node11"><a xlink:href="dir_aebb8dcc11953d78e620bbef0b9e2183.xhtml" target="_top" xlink:title="core">
<polygon fill="#ffffff" stroke="#ff0000" points="511,-324 457,-324 457,-288 511,-288 511,-324"/>
<text text-anchor="middle" x="484" y="-303.5" font-family="Helvetica,sans-Serif" font-size="10.00" fill="#000000">core</text>
</a>
</g>
</g>
<!-- dir_43c3fdbf778d1fd99e2e38f09fddd920&#45;&gt;dir_aebb8dcc11953d78e620bbef0b9e2183 -->
<g id="edge28" class="edge">
<title>dir_43c3fdbf778d1fd99e2e38f09fddd920&#45;&gt;dir_aebb8dcc11953d78e620bbef0b9e2183</title>
<path fill="none" stroke="#000000" d="M304.1977,-431.8914C324.1041,-409.0505 360.9685,-369.6654 399,-344 413.8686,-333.966 431.8182,-325.4908 447.3841,-319.1084"/>
<polygon fill="#000000" stroke="#000000" points="448.7116,-322.3472 456.7191,-315.4096 446.133,-315.8394 448.7116,-322.3472"/>
<g id="a_edge28&#45;headlabel"><a xlink:href="dir_000037_000020.xhtml" target="_top" xlink:title="127">
<text text-anchor="middle" x="446.4156" y="-323.8109" font-family="Helvetica,sans-Serif" font-size="10.00" fill="#000000">127</text>
</a>
</g>
</g>
<!-- dir_5815af820a9cc9481f1d0990a0d60286 -->
<g id="node12" class="node">
<title>dir_5815af820a9cc9481f1d0990a0d60286</title>
<g id="a_node12"><a xlink:href="dir_5815af820a9cc9481f1d0990a0d60286.xhtml" target="_top" xlink:title="support">
<polygon fill="none" stroke="#000000" points="369,-36 315,-36 315,0 369,0 369,-36"/>
<text text-anchor="middle" x="342" y="-15.5" font-family="Helvetica,sans-Serif" font-size="10.00" fill="#000000">support</text>
</a>
</g>
</g>
<!-- dir_43c3fdbf778d1fd99e2e38f09fddd920&#45;&gt;dir_5815af820a9cc9481f1d0990a0d60286 -->
<g id="edge29" class="edge">
<title>dir_43c3fdbf778d1fd99e2e38f09fddd920&#45;&gt;dir_5815af820a9cc9481f1d0990a0d60286</title>
<path fill="none" stroke="#000000" d="M261.9625,-436.4782C237.0783,-423.814 202.2347,-405.462 190,-396 111.9001,-335.6 38,-332.7307 38,-234 38,-234 38,-234 38,-162 38,-103.5457 223.8958,-48.4562 304.9523,-27.2138"/>
<polygon fill="#000000" stroke="#000000" points="305.9507,-30.5708 314.7545,-24.6763 304.1965,-23.7941 305.9507,-30.5708"/>
<g id="a_edge29&#45;headlabel"><a xlink:href="dir_000037_000032.xhtml" target="_top" xlink:title="6">
<text text-anchor="middle" x="303.1823" y="-31.7202" font-family="Helvetica,sans-Serif" font-size="10.00" fill="#000000">6</text>
</a>
</g>
</g>
<!-- dir_fdedb0aba14d44ce9d99bc100e026e6a -->
<g id="node13" class="node">
<title>dir_fdedb0aba14d44ce9d99bc100e026e6a</title>
<g id="a_node13"><a xlink:href="dir_fdedb0aba14d44ce9d99bc100e026e6a.xhtml" target="_top" xlink:title="common">
<polygon fill="#ffffff" stroke="#ff0000" points="199.5,-252 140.5,-252 140.5,-216 199.5,-216 199.5,-252"/>
<text text-anchor="middle" x="170" y="-231.5" font-family="Helvetica,sans-Serif" font-size="10.00" fill="#000000">common</text>
</a>
</g>
</g>
<!-- dir_43c3fdbf778d1fd99e2e38f09fddd920&#45;&gt;dir_fdedb0aba14d44ce9d99bc100e026e6a -->
<g id="edge30" class="edge">
<title>dir_43c3fdbf778d1fd99e2e38f09fddd920&#45;&gt;dir_fdedb0aba14d44ce9d99bc100e026e6a</title>
<path fill="none" stroke="#000000" d="M261.7479,-436.5179C245.6263,-427.2208 226.0631,-413.4079 214,-396 198.9906,-374.3403 183.2302,-302.4423 175.2697,-262.0915"/>
<polygon fill="#000000" stroke="#000000" points="178.6695,-261.2383 173.3286,-252.0882 171.7977,-262.5719 178.6695,-261.2383"/>
<g id="a_edge30&#45;headlabel"><a xlink:href="dir_000037_000019.xhtml" target="_top" xlink:title="64">
<text text-anchor="middle" x="182.1415" y="-261.7263" font-family="Helvetica,sans-Serif" font-size="10.00" fill="#000000">64</text>
</a>
</g>
</g>
<!-- dir_0304d3529340c629ae0050036d07056a -->
<g id="node2" class="node">
<title>dir_0304d3529340c629ae0050036d07056a</title>
<g id="a_node2"><a xlink:href="dir_0304d3529340c629ae0050036d07056a.xhtml" target="_top" xlink:title="functions">
<polygon fill="#ffffff" stroke="#000000" points="244,-468 182,-468 182,-432 244,-432 244,-468"/>
<text text-anchor="middle" x="213" y="-447.5" font-family="Helvetica,sans-Serif" font-size="10.00" fill="#000000">functions</text>
</a>
</g>
</g>
<!-- dir_cf895c1ed808af158264b2f3d8d7f8f0 -->
<g id="node7" class="node">
<title>dir_cf895c1ed808af158264b2f3d8d7f8f0</title>
<g id="a_node7"><a xlink:href="dir_cf895c1ed808af158264b2f3d8d7f8f0.xhtml" target="_top" xlink:title="gpu">
<polygon fill="#ffffff" stroke="#ff0000" points="612,-468 558,-468 558,-432 612,-432 612,-468"/>
<text text-anchor="middle" x="585" y="-447.5" font-family="Helvetica,sans-Serif" font-size="10.00" fill="#000000">gpu</text>
</a>
</g>
</g>
<!-- dir_0304d3529340c629ae0050036d07056a&#45;&gt;dir_cf895c1ed808af158264b2f3d8d7f8f0 -->
<g id="edge20" class="edge">
<title>dir_0304d3529340c629ae0050036d07056a&#45;&gt;dir_cf895c1ed808af158264b2f3d8d7f8f0</title>
<path fill="none" stroke="#000000" d="M219.692,-468.0888C227.1192,-485.2242 240.9148,-509.9326 262,-521 289.0551,-535.2009 510.0134,-535.3306 537,-521 554.3031,-511.8116 566.5051,-493.2922 574.2759,-477.4712"/>
<polygon fill="#000000" stroke="#000000" points="577.5944,-478.6286 578.5477,-468.0767 571.2223,-475.7311 577.5944,-478.6286"/>
<g id="a_edge20&#45;headlabel"><a xlink:href="dir_000500_000004.xhtml" target="_top" xlink:title="47">
<text text-anchor="middle" x="578.6912" y="-480.5761" font-family="Helvetica,sans-Serif" font-size="10.00" fill="#000000">47</text>
</a>
</g>
</g>
<!-- dir_3fe890f1593b95fd486bc879bbb074a9 -->
<g id="node9" class="node">
<title>dir_3fe890f1593b95fd486bc879bbb074a9</title>
<g id="a_node9"><a xlink:href="dir_3fe890f1593b95fd486bc879bbb074a9.xhtml" target="_top" xlink:title="heuristics">
<polygon fill="#ffffff" stroke="#ff0000" points="678,-396 614,-396 614,-360 678,-360 678,-396"/>
<text text-anchor="middle" x="646" y="-375.5" font-family="Helvetica,sans-Serif" font-size="10.00" fill="#000000">heuristics</text>
</a>
</g>
</g>
<!-- dir_0304d3529340c629ae0050036d07056a&#45;&gt;dir_3fe890f1593b95fd486bc879bbb074a9 -->
<g id="edge21" class="edge">
<title>dir_0304d3529340c629ae0050036d07056a&#45;&gt;dir_3fe890f1593b95fd486bc879bbb074a9</title>
<path fill="none" stroke="#000000" d="M244.11,-434.9323C247.0729,-433.8232 250.0664,-432.82 253,-432 379.3584,-396.6816 416.2752,-415.629 546,-396 564.9541,-393.132 585.8362,-389.4553 603.5938,-386.1734"/>
<polygon fill="#000000" stroke="#000000" points="604.4624,-389.5718 613.6501,-384.2957 603.1775,-382.6907 604.4624,-389.5718"/>
<g id="a_edge21&#45;headlabel"><a xlink:href="dir_000500_000517.xhtml" target="_top" xlink:title="2">
<text text-anchor="middle" x="601.4499" y="-390.5225" font-family="Helvetica,sans-Serif" font-size="10.00" fill="#000000">2</text>
</a>
</g>
</g>
<!-- dir_0304d3529340c629ae0050036d07056a&#45;&gt;dir_214608ef36d61442cb2b0c1c4e9a7def -->
<g id="edge22" class="edge">
<title>dir_0304d3529340c629ae0050036d07056a&#45;&gt;dir_214608ef36d61442cb2b0c1c4e9a7def</title>
<path fill="none" stroke="#000000" d="M196.0581,-431.6942C159.1826,-389.5961 79.0511,-284.2869 132,-216 151.164,-191.2847 233.9183,-175.9039 289.6424,-168.1522"/>
<polygon fill="#000000" stroke="#000000" points="290.2694,-171.5994 299.7113,-166.7931 289.333,-164.6623 290.2694,-171.5994"/>
<g id="a_edge22&#45;headlabel"><a xlink:href="dir_000500_000000.xhtml" target="_top" xlink:title="394">
<text text-anchor="middle" x="287.0869" y="-172.3939" font-family="Helvetica,sans-Serif" font-size="10.00" fill="#000000">394</text>
</a>
</g>
</g>
<!-- dir_0304d3529340c629ae0050036d07056a&#45;&gt;dir_aebb8dcc11953d78e620bbef0b9e2183 -->
<g id="edge23" class="edge">
<title>dir_0304d3529340c629ae0050036d07056a&#45;&gt;dir_aebb8dcc11953d78e620bbef0b9e2183</title>
<path fill="none" stroke="#000000" d="M228.6811,-431.7067C250.0779,-407.9188 290.7348,-366.7317 334,-344 369.7886,-325.1965 415.3351,-315.3687 446.8002,-310.4618"/>
<polygon fill="#000000" stroke="#000000" points="447.5106,-313.8951 456.8966,-308.9805 446.4945,-306.9693 447.5106,-313.8951"/>
<g id="a_edge23&#45;headlabel"><a xlink:href="dir_000500_000020.xhtml" target="_top" xlink:title="122">
<text text-anchor="middle" x="444.3662" y="-314.726" font-family="Helvetica,sans-Serif" font-size="10.00" fill="#000000">122</text>
</a>
</g>
</g>
<!-- dir_0304d3529340c629ae0050036d07056a&#45;&gt;dir_5815af820a9cc9481f1d0990a0d60286 -->
<g id="edge24" class="edge">
<title>dir_0304d3529340c629ae0050036d07056a&#45;&gt;dir_5815af820a9cc9481f1d0990a0d60286</title>
<path fill="none" stroke="#000000" d="M181.5711,-443.9901C122.3216,-430.6411 0,-392.5957 0,-306 0,-306 0,-306 0,-162 0,-107.2846 36.3303,-98.8585 84,-72 121.4064,-50.9241 242.5915,-31.7324 304.6406,-22.9861"/>
<polygon fill="#000000" stroke="#000000" points="305.3656,-26.419 314.7881,-21.5747 304.4012,-19.4858 305.3656,-26.419"/>
<g id="a_edge24&#45;headlabel"><a xlink:href="dir_000500_000032.xhtml" target="_top" xlink:title="3">
<text text-anchor="middle" x="302.1964" y="-27.2264" font-family="Helvetica,sans-Serif" font-size="10.00" fill="#000000">3</text>
</a>
</g>
</g>
<!-- dir_0304d3529340c629ae0050036d07056a&#45;&gt;dir_fdedb0aba14d44ce9d99bc100e026e6a -->
<g id="edge25" class="edge">
<title>dir_0304d3529340c629ae0050036d07056a&#45;&gt;dir_fdedb0aba14d44ce9d99bc100e026e6a</title>
<path fill="none" stroke="#000000" d="M206.3307,-431.9373C197.7132,-407.7371 182.9895,-363.2806 176,-324 172.3479,-303.4754 170.8716,-279.9594 170.2958,-262.1134"/>
<polygon fill="#000000" stroke="#000000" points="173.7937,-261.9798 170.0467,-252.0697 166.7958,-262.1535 173.7937,-261.9798"/>
<g id="a_edge25&#45;headlabel"><a xlink:href="dir_000500_000019.xhtml" target="_top" xlink:title="63">
<text text-anchor="middle" x="176.7211" y="-263.003" font-family="Helvetica,sans-Serif" font-size="10.00" fill="#000000">63</text>
</a>
</g>
</g>
<!-- dir_5f09115d5b51f09d1c93a8d5eb5f8d5c -->
<g id="node3" class="node">
<title>dir_5f09115d5b51f09d1c93a8d5eb5f8d5c</title>
<g id="a_node3"><a xlink:href="dir_5f09115d5b51f09d1c93a8d5eb5f8d5c.xhtml" target="_top" xlink:title="gemm">
<polygon fill="#ffffff" stroke="#000000" points="534,-396 480,-396 480,-360 534,-360 534,-396"/>
<text text-anchor="middle" x="507" y="-375.5" font-family="Helvetica,sans-Serif" font-size="10.00" fill="#000000">gemm</text>
</a>
</g>
</g>
<!-- dir_5f09115d5b51f09d1c93a8d5eb5f8d5c&#45;&gt;dir_cf895c1ed808af158264b2f3d8d7f8f0 -->
<g id="edge40" class="edge">
<title>dir_5f09115d5b51f09d1c93a8d5eb5f8d5c&#45;&gt;dir_cf895c1ed808af158264b2f3d8d7f8f0</title>
<path fill="none" stroke="#000000" d="M520.9717,-396.4133C529.6146,-405.1637 540.9268,-415.7519 551.6799,-425.1978"/>
<polygon fill="#000000" stroke="#000000" points="549.508,-427.9465 559.3649,-431.8314 554.082,-422.6476 549.508,-427.9465"/>
<g id="a_edge40&#45;headlabel"><a xlink:href="dir_000511_000004.xhtml" target="_top" xlink:title="3">
<text text-anchor="middle" x="544.9317" y="-425.2471" font-family="Helvetica,sans-Serif" font-size="10.00" fill="#000000">3</text>
</a>
</g>
</g>
<!-- dir_5f09115d5b51f09d1c93a8d5eb5f8d5c&#45;&gt;dir_214608ef36d61442cb2b0c1c4e9a7def -->
<g id="edge41" class="edge">
<title>dir_5f09115d5b51f09d1c93a8d5eb5f8d5c&#45;&gt;dir_214608ef36d61442cb2b0c1c4e9a7def</title>
<path fill="none" stroke="#000000" d="M488.0795,-359.8544C482.6112,-354.6855 476.6056,-349.0804 471,-344 460.9625,-334.903 456.8145,-334.2865 448,-324 411.0918,-280.9283 411.443,-263.2093 380,-216 373.9948,-206.9837 367.2451,-197.2657 361.1188,-188.5926"/>
<polygon fill="#000000" stroke="#000000" points="363.8956,-186.4579 355.251,-180.3325 358.189,-190.5118 363.8956,-186.4579"/>
<g id="a_edge41&#45;headlabel"><a xlink:href="dir_000511_000000.xhtml" target="_top" xlink:title="11">
<text text-anchor="middle" x="368.292" y="-185.244" font-family="Helvetica,sans-Serif" font-size="10.00" fill="#000000">11</text>
</a>
</g>
</g>
<!-- dir_a67538344c2c86328918cac423ccf8cb -->
<g id="node4" class="node">
<title>dir_a67538344c2c86328918cac423ccf8cb</title>
<g id="a_node4"><a xlink:href="dir_a67538344c2c86328918cac423ccf8cb.xhtml" target="_top" xlink:title="gemm_auto_heuristics">
<polygon fill="#ffffff" stroke="#000000" points="534,-468 406,-468 406,-432 534,-432 534,-468"/>
<text text-anchor="middle" x="470" y="-447.5" font-family="Helvetica,sans-Serif" font-size="10.00" fill="#000000">gemm_auto_heuristics</text>
</a>
</g>
</g>
<!-- dir_a67538344c2c86328918cac423ccf8cb&#45;&gt;dir_5f09115d5b51f09d1c93a8d5eb5f8d5c -->
<g id="edge35" class="edge">
<title>dir_a67538344c2c86328918cac423ccf8cb&#45;&gt;dir_5f09115d5b51f09d1c93a8d5eb5f8d5c</title>
<path fill="none" stroke="#000000" d="M479.3367,-431.8314C483.4243,-423.8771 488.3104,-414.369 492.8309,-405.5723"/>
<polygon fill="#000000" stroke="#000000" points="496.0799,-406.9074 497.5376,-396.4133 489.8539,-403.7078 496.0799,-406.9074"/>
<g id="a_edge35&#45;headlabel"><a xlink:href="dir_000512_000511.xhtml" target="_top" xlink:title="1">
<text text-anchor="middle" x="496.9623" y="-408.9022" font-family="Helvetica,sans-Serif" font-size="10.00" fill="#000000">1</text>
</a>
</g>
</g>
<!-- dir_a67538344c2c86328918cac423ccf8cb&#45;&gt;dir_82e3926d996ac5aae32ffa787ec227cb -->
<g id="edge31" class="edge">
<title>dir_a67538344c2c86328918cac423ccf8cb&#45;&gt;dir_82e3926d996ac5aae32ffa787ec227cb</title>
<path fill="none" stroke="#000000" d="M461.168,-431.8314C457.3014,-423.8771 452.6794,-414.369 448.4032,-405.5723"/>
<polygon fill="#000000" stroke="#000000" points="451.4707,-403.8768 443.9509,-396.4133 445.1751,-406.9371 451.4707,-403.8768"/>
<g id="a_edge31&#45;headlabel"><a xlink:href="dir_000512_000038.xhtml" target="_top" xlink:title="2">
<text text-anchor="middle" x="455.5957" y="-403.3683" font-family="Helvetica,sans-Serif" font-size="10.00" fill="#000000">2</text>
</a>
</g>
</g>
<!-- dir_a67538344c2c86328918cac423ccf8cb&#45;&gt;dir_cf895c1ed808af158264b2f3d8d7f8f0 -->
<g id="edge32" class="edge">
<title>dir_a67538344c2c86328918cac423ccf8cb&#45;&gt;dir_cf895c1ed808af158264b2f3d8d7f8f0</title>
<path fill="none" stroke="#000000" d="M534.2383,-450C538.6254,-450 543.0125,-450 547.3996,-450"/>
<polygon fill="#000000" stroke="#000000" points="547.6363,-453.5001 557.6363,-450 547.6362,-446.5001 547.6363,-453.5001"/>
<g id="a_edge32&#45;headlabel"><a xlink:href="dir_000512_000004.xhtml" target="_top" xlink:title="5">
<text text-anchor="middle" x="544.0416" y="-453.8393" font-family="Helvetica,sans-Serif" font-size="10.00" fill="#000000">5</text>
</a>
</g>
</g>
<!-- dir_cbdb8362360e11eafe2fa3bc74cf0ffd -->
<g id="node8" class="node">
<title>dir_cbdb8362360e11eafe2fa3bc74cf0ffd</title>
<g id="a_node8"><a xlink:href="dir_cbdb8362360e11eafe2fa3bc74cf0ffd.xhtml" target="_top" xlink:title="utils">
<polygon fill="#ffffff" stroke="#ff0000" points="305,-108 251,-108 251,-72 305,-72 305,-108"/>
<text text-anchor="middle" x="278" y="-87.5" font-family="Helvetica,sans-Serif" font-size="10.00" fill="#000000">utils</text>
</a>
</g>
</g>
<!-- dir_a67538344c2c86328918cac423ccf8cb&#45;&gt;dir_cbdb8362360e11eafe2fa3bc74cf0ffd -->
<g id="edge33" class="edge">
<title>dir_a67538344c2c86328918cac423ccf8cb&#45;&gt;dir_cbdb8362360e11eafe2fa3bc74cf0ffd</title>
<path fill="none" stroke="#000000" d="M420.736,-431.8981C349.9788,-404.3542 228,-350.4282 228,-306 228,-306 228,-306 228,-234 228,-191.4402 247.732,-145.5247 262.4046,-117.2654"/>
<polygon fill="#000000" stroke="#000000" points="265.522,-118.8579 267.1507,-108.389 259.349,-115.5572 265.522,-118.8579"/>
<g id="a_edge33&#45;headlabel"><a xlink:href="dir_000512_000041.xhtml" target="_top" xlink:title="1">
<text text-anchor="middle" x="266.3309" y="-120.8666" font-family="Helvetica,sans-Serif" font-size="10.00" fill="#000000">1</text>
</a>
</g>
</g>
<!-- dir_a67538344c2c86328918cac423ccf8cb&#45;&gt;dir_214608ef36d61442cb2b0c1c4e9a7def -->
<g id="edge34" class="edge">
<title>dir_a67538344c2c86328918cac423ccf8cb&#45;&gt;dir_214608ef36d61442cb2b0c1c4e9a7def</title>
<path fill="none" stroke="#000000" d="M437.9725,-431.9878C424.2251,-422.8133 409.0467,-410.5171 399,-396 354.6293,-331.8858 344.6556,-237.0171 342.5109,-190.2164"/>
<polygon fill="#000000" stroke="#000000" points="346.0075,-190.0557 342.1397,-180.1921 339.0123,-190.3148 346.0075,-190.0557"/>
<g id="a_edge34&#45;headlabel"><a xlink:href="dir_000512_000000.xhtml" target="_top" xlink:title="7">
<text text-anchor="middle" x="348.9777" y="-191.0428" font-family="Helvetica,sans-Serif" font-size="10.00" fill="#000000">7</text>
</a>
</g>
</g>
<!-- dir_82e3926d996ac5aae32ffa787ec227cb&#45;&gt;dir_214608ef36d61442cb2b0c1c4e9a7def -->
<g id="edge1" class="edge">
<title>dir_82e3926d996ac5aae32ffa787ec227cb&#45;&gt;dir_214608ef36d61442cb2b0c1c4e9a7def</title>
<path fill="none" stroke="#000000" d="M423.6566,-359.8858C417.4435,-349.5775 409.8425,-336.3039 404,-324 382.3198,-278.3432 362.418,-222.9211 351.2814,-190.1624"/>
<polygon fill="#000000" stroke="#000000" points="354.4904,-188.7244 347.9825,-180.364 347.8563,-190.958 354.4904,-188.7244"/>
<g id="a_edge1&#45;headlabel"><a xlink:href="dir_000038_000000.xhtml" target="_top" xlink:title="6">
<text text-anchor="middle" x="358.3282" y="-188.7252" font-family="Helvetica,sans-Serif" font-size="10.00" fill="#000000">6</text>
</a>
</g>
</g>
<!-- dir_82e3926d996ac5aae32ffa787ec227cb&#45;&gt;dir_5815af820a9cc9481f1d0990a0d60286 -->
<g id="edge2" class="edge">
<title>dir_82e3926d996ac5aae32ffa787ec227cb&#45;&gt;dir_5815af820a9cc9481f1d0990a0d60286</title>
<path fill="none" stroke="#000000" d="M451.4784,-359.9946C457.2644,-354.3671 464.0616,-348.4687 471,-344 519.4762,-312.779 706,-291.6601 706,-234 706,-234 706,-234 706,-162 706,-92.2269 471.818,-41.7397 379.1267,-24.4892"/>
<polygon fill="#000000" stroke="#000000" points="379.5291,-21.0047 369.0618,-22.6436 378.2665,-27.8899 379.5291,-21.0047"/>
<g id="a_edge2&#45;headlabel"><a xlink:href="dir_000038_000032.xhtml" target="_top" xlink:title="1">
<text text-anchor="middle" x="383.5768" y="-16.3603" font-family="Helvetica,sans-Serif" font-size="10.00" fill="#000000">1</text>
</a>
</g>
</g>
<!-- dir_50c9c9ef2ed96b9f05a6a6f40f0f5c9e -->
<g id="node6" class="node">
<title>dir_50c9c9ef2ed96b9f05a6a6f40f0f5c9e</title>
<g id="a_node6"><a xlink:href="dir_50c9c9ef2ed96b9f05a6a6f40f0f5c9e.xhtml" target="_top" xlink:title="tuners">
<polygon fill="#ffffff" stroke="#000000" points="388,-468 334,-468 334,-432 388,-432 388,-468"/>
<text text-anchor="middle" x="361" y="-447.5" font-family="Helvetica,sans-Serif" font-size="10.00" fill="#000000">tuners</text>
</a>
</g>
</g>
<!-- dir_50c9c9ef2ed96b9f05a6a6f40f0f5c9e&#45;&gt;dir_214608ef36d61442cb2b0c1c4e9a7def -->
<g id="edge3" class="edge">
<title>dir_50c9c9ef2ed96b9f05a6a6f40f0f5c9e&#45;&gt;dir_214608ef36d61442cb2b0c1c4e9a7def</title>
<path fill="none" stroke="#000000" d="M346.3248,-431.7088C339.2954,-421.772 331.6305,-408.9031 328,-396 306.3321,-318.9902 317.8802,-295.3574 328,-216 329.0854,-207.4887 331.0962,-198.4011 333.262,-190.1555"/>
<polygon fill="#000000" stroke="#000000" points="336.7045,-190.8414 336.0302,-180.2681 329.9637,-188.9542 336.7045,-190.8414"/>
<g id="a_edge3&#45;headlabel"><a xlink:href="dir_000514_000000.xhtml" target="_top" xlink:title="1">
<text text-anchor="middle" x="338.4696" y="-192.5684" font-family="Helvetica,sans-Serif" font-size="10.00" fill="#000000">1</text>
</a>
</g>
</g>
<!-- dir_cf895c1ed808af158264b2f3d8d7f8f0&#45;&gt;dir_5f09115d5b51f09d1c93a8d5eb5f8d5c -->
<g id="edge10" class="edge">
<title>dir_cf895c1ed808af158264b2f3d8d7f8f0&#45;&gt;dir_5f09115d5b51f09d1c93a8d5eb5f8d5c</title>
<path fill="none" stroke="#000000" d="M571.2697,-431.8314C562.6108,-423.0485 551.2108,-412.3712 540.3731,-402.8489"/>
<polygon fill="#000000" stroke="#000000" points="542.485,-400.0482 532.6282,-396.1628 537.9107,-405.3469 542.485,-400.0482"/>
<g id="a_edge10&#45;headlabel"><a xlink:href="dir_000004_000511.xhtml" target="_top" xlink:title="2">
<text text-anchor="middle" x="547.0613" y="-397.7479" font-family="Helvetica,sans-Serif" font-size="10.00" fill="#000000">2</text>
</a>
</g>
</g>
<!-- dir_cf895c1ed808af158264b2f3d8d7f8f0&#45;&gt;dir_a67538344c2c86328918cac423ccf8cb -->
<g id="edge8" class="edge">
<title>dir_cf895c1ed808af158264b2f3d8d7f8f0&#45;&gt;dir_a67538344c2c86328918cac423ccf8cb</title>
<path fill="none" stroke="#000000" d="M557.6363,-450C553.2491,-450 548.862,-450 544.4749,-450"/>
<polygon fill="#000000" stroke="#000000" points="544.2383,-446.5001 534.2383,-450 544.2382,-453.5001 544.2383,-446.5001"/>
<g id="a_edge8&#45;headlabel"><a xlink:href="dir_000004_000512.xhtml" target="_top" xlink:title="2">
<text text-anchor="middle" x="547.8329" y="-441.1607" font-family="Helvetica,sans-Serif" font-size="10.00" fill="#000000">2</text>
</a>
</g>
</g>
<!-- dir_cf895c1ed808af158264b2f3d8d7f8f0&#45;&gt;dir_82e3926d996ac5aae32ffa787ec227cb -->
<g id="edge4" class="edge">
<title>dir_cf895c1ed808af158264b2f3d8d7f8f0&#45;&gt;dir_82e3926d996ac5aae32ffa787ec227cb</title>
<path fill="none" stroke="#000000" d="M557.7424,-437.2874C536.497,-427.3351 506.0511,-412.9785 471.4641,-396.1845"/>
<polygon fill="#000000" stroke="#000000" points="472.6196,-392.8544 462.0963,-391.6253 469.5562,-399.1485 472.6196,-392.8544"/>
<g id="a_edge4&#45;headlabel"><a xlink:href="dir_000004_000038.xhtml" target="_top" xlink:title="1">
<text text-anchor="middle" x="477.0942" y="-389.3744" font-family="Helvetica,sans-Serif" font-size="10.00" fill="#000000">1</text>
</a>
</g>
</g>
<!-- dir_cf895c1ed808af158264b2f3d8d7f8f0&#45;&gt;dir_cbdb8362360e11eafe2fa3bc74cf0ffd -->
<g id="edge5" class="edge">
<title>dir_cf895c1ed808af158264b2f3d8d7f8f0&#45;&gt;dir_cbdb8362360e11eafe2fa3bc74cf0ffd</title>
<path fill="none" stroke="#000000" d="M612.392,-443.661C666.5222,-429.3324 782,-389.0341 782,-306 782,-306 782,-306 782,-234 782,-136.9289 431.9786,-101.6418 315.3227,-92.5768"/>
<polygon fill="#000000" stroke="#000000" points="315.3327,-89.0677 305.0972,-91.8034 314.8047,-96.0477 315.3327,-89.0677"/>
<g id="a_edge5&#45;headlabel"><a xlink:href="dir_000004_000041.xhtml" target="_top" xlink:title="2">
<text text-anchor="middle" x="319.1312" y="-84.0075" font-family="Helvetica,sans-Serif" font-size="10.00" fill="#000000">2</text>
</a>
</g>
</g>
<!-- dir_cf895c1ed808af158264b2f3d8d7f8f0&#45;&gt;dir_3fe890f1593b95fd486bc879bbb074a9 -->
<g id="edge6" class="edge">
<title>dir_cf895c1ed808af158264b2f3d8d7f8f0&#45;&gt;dir_3fe890f1593b95fd486bc879bbb074a9</title>
<path fill="none" stroke="#000000" d="M594.4405,-431.8314C600.785,-423.3694 609.2588,-413.1489 617.5514,-403.8971"/>
<polygon fill="#000000" stroke="#000000" points="620.238,-406.1462 624.4239,-396.4133 615.0821,-401.4115 620.238,-406.1462"/>
<g id="a_edge6&#45;headlabel"><a xlink:href="dir_000004_000517.xhtml" target="_top" xlink:title="9">
<text text-anchor="middle" x="619.8979" y="-408.2142" font-family="Helvetica,sans-Serif" font-size="10.00" fill="#000000">9</text>
</a>
</g>
</g>
<!-- dir_cf895c1ed808af158264b2f3d8d7f8f0&#45;&gt;dir_214608ef36d61442cb2b0c1c4e9a7def -->
<g id="edge7" class="edge">
<title>dir_cf895c1ed808af158264b2f3d8d7f8f0&#45;&gt;dir_214608ef36d61442cb2b0c1c4e9a7def</title>
<path fill="none" stroke="#000000" d="M612.2112,-446.3307C640.8646,-440.8564 684.5947,-427.5586 705,-396 717.5487,-376.5924 714.7097,-364.9725 705,-344 649.4998,-224.1226 480.7629,-182.2267 394.2951,-168.3799"/>
<polygon fill="#000000" stroke="#000000" points="394.5863,-164.8837 384.1712,-166.8269 393.5249,-171.8028 394.5863,-164.8837"/>
<g id="a_edge7&#45;headlabel"><a xlink:href="dir_000004_000000.xhtml" target="_top" xlink:title="488">
<text text-anchor="middle" x="398.5698" y="-160.1222" font-family="Helvetica,sans-Serif" font-size="10.00" fill="#000000">488</text>
</a>
</g>
</g>
<!-- dir_cf895c1ed808af158264b2f3d8d7f8f0&#45;&gt;dir_aebb8dcc11953d78e620bbef0b9e2183 -->
<g id="edge9" class="edge">
<title>dir_cf895c1ed808af158264b2f3d8d7f8f0&#45;&gt;dir_aebb8dcc11953d78e620bbef0b9e2183</title>
<path fill="none" stroke="#000000" d="M575.7953,-431.676C568.6384,-408.9662 558.3839,-370.0816 537,-344 532.1023,-338.0263 526.0039,-332.7374 519.6815,-328.1471"/>
<polygon fill="#000000" stroke="#000000" points="521.2651,-324.9945 511.0129,-322.3221 517.3609,-330.8046 521.2651,-324.9945"/>
<g id="a_edge9&#45;headlabel"><a xlink:href="dir_000004_000020.xhtml" target="_top" xlink:title="236">
<text text-anchor="middle" x="525.8323" y="-322.1427" font-family="Helvetica,sans-Serif" font-size="10.00" fill="#000000">236</text>
</a>
</g>
</g>
<!-- dir_cf895c1ed808af158264b2f3d8d7f8f0&#45;&gt;dir_5815af820a9cc9481f1d0990a0d60286 -->
<g id="edge11" class="edge">
<title>dir_cf895c1ed808af158264b2f3d8d7f8f0&#45;&gt;dir_5815af820a9cc9481f1d0990a0d60286</title>
<path fill="none" stroke="#000000" d="M612.2681,-447.7637C649.8939,-443.4455 718.2585,-431.0331 764,-396 801.4016,-367.3543 820,-353.1111 820,-306 820,-306 820,-306 820,-162 820,-70.0621 491.7085,-31.609 379.2591,-21.1344"/>
<polygon fill="#000000" stroke="#000000" points="379.345,-17.6279 369.0689,-20.2072 378.7106,-24.5991 379.345,-17.6279"/>
<g id="a_edge11&#45;headlabel"><a xlink:href="dir_000004_000032.xhtml" target="_top" xlink:title="107">
<text text-anchor="middle" x="383.182" y="-12.6259" font-family="Helvetica,sans-Serif" font-size="10.00" fill="#000000">107</text>
</a>
</g>
</g>
<!-- dir_cf895c1ed808af158264b2f3d8d7f8f0&#45;&gt;dir_fdedb0aba14d44ce9d99bc100e026e6a -->
<g id="edge12" class="edge">
<title>dir_cf895c1ed808af158264b2f3d8d7f8f0&#45;&gt;dir_fdedb0aba14d44ce9d99bc100e026e6a</title>
<path fill="none" stroke="#000000" d="M612.1521,-443.9763C636.5276,-436.9729 670.8772,-422.7785 687,-396 698.9209,-376.2006 700.4965,-362.7608 687,-344 630.9318,-266.0621 321.1067,-242.0418 209.8177,-235.8679"/>
<polygon fill="#000000" stroke="#000000" points="209.8557,-232.365 199.6828,-235.3249 209.4812,-239.355 209.8557,-232.365"/>
<g id="a_edge12&#45;headlabel"><a xlink:href="dir_000004_000019.xhtml" target="_top" xlink:title="45">
<text text-anchor="middle" x="213.5971" y="-227.222" font-family="Helvetica,sans-Serif" font-size="10.00" fill="#000000">45</text>
</a>
</g>
</g>
<!-- dir_cbdb8362360e11eafe2fa3bc74cf0ffd&#45;&gt;dir_214608ef36d61442cb2b0c1c4e9a7def -->
<g id="edge13" class="edge">
<title>dir_cbdb8362360e11eafe2fa3bc74cf0ffd&#45;&gt;dir_214608ef36d61442cb2b0c1c4e9a7def</title>
<path fill="none" stroke="#000000" d="M300.3434,-108.4133C308.54,-116.7389 317.6014,-126.7282 325.2458,-135.8144"/>
<polygon fill="#000000" stroke="#000000" points="322.7623,-138.3063 331.8025,-143.8314 328.1809,-133.8747 322.7623,-138.3063"/>
<g id="a_edge13&#45;headlabel"><a xlink:href="dir_000041_000000.xhtml" target="_top" xlink:title="50">
<text text-anchor="middle" x="318.2888" y="-134.8213" font-family="Helvetica,sans-Serif" font-size="10.00" fill="#000000">50</text>
</a>
</g>
</g>
<!-- dir_cbdb8362360e11eafe2fa3bc74cf0ffd&#45;&gt;dir_5815af820a9cc9481f1d0990a0d60286 -->
<g id="edge14" class="edge">
<title>dir_cbdb8362360e11eafe2fa3bc74cf0ffd&#45;&gt;dir_5815af820a9cc9481f1d0990a0d60286</title>
<path fill="none" stroke="#000000" d="M294.1499,-71.8314C301.6717,-63.3694 310.7565,-53.1489 318.9804,-43.8971"/>
<polygon fill="#000000" stroke="#000000" points="321.6049,-46.2127 325.6327,-36.4133 316.373,-41.5621 321.6049,-46.2127"/>
<g id="a_edge14&#45;headlabel"><a xlink:href="dir_000041_000032.xhtml" target="_top" xlink:title="4">
<text text-anchor="middle" x="321.3389" y="-48.2856" font-family="Helvetica,sans-Serif" font-size="10.00" fill="#000000">4</text>
</a>
</g>
</g>
<!-- dir_3fe890f1593b95fd486bc879bbb074a9&#45;&gt;dir_cf895c1ed808af158264b2f3d8d7f8f0 -->
<g id="edge15" class="edge">
<title>dir_3fe890f1593b95fd486bc879bbb074a9&#45;&gt;dir_cf895c1ed808af158264b2f3d8d7f8f0</title>
<path fill="none" stroke="#000000" d="M636.3759,-396.4133C629.9906,-404.9088 621.4983,-415.1366 613.2094,-424.3696"/>
<polygon fill="#000000" stroke="#000000" points="610.5396,-422.1021 606.3453,-431.8314 615.6914,-426.8412 610.5396,-422.1021"/>
<g id="a_edge15&#45;headlabel"><a xlink:href="dir_000517_000004.xhtml" target="_top" xlink:title="2">
<text text-anchor="middle" x="610.8835" y="-415.0344" font-family="Helvetica,sans-Serif" font-size="10.00" fill="#000000">2</text>
</a>
</g>
</g>
<!-- dir_3fe890f1593b95fd486bc879bbb074a9&#45;&gt;dir_214608ef36d61442cb2b0c1c4e9a7def -->
<g id="edge16" class="edge">
<title>dir_3fe890f1593b95fd486bc879bbb074a9&#45;&gt;dir_214608ef36d61442cb2b0c1c4e9a7def</title>
<path fill="none" stroke="#000000" d="M628.4169,-359.852C596.6459,-327.7809 526.5847,-260.2967 458,-216 437.9342,-203.0401 414.2588,-191.4401 393.5465,-182.3441"/>
<polygon fill="#000000" stroke="#000000" points="394.831,-179.0866 384.2621,-178.3452 392.0619,-185.5156 394.831,-179.0866"/>
<g id="a_edge16&#45;headlabel"><a xlink:href="dir_000517_000000.xhtml" target="_top" xlink:title="49">
<text text-anchor="middle" x="399.2555" y="-175.4008" font-family="Helvetica,sans-Serif" font-size="10.00" fill="#000000">49</text>
</a>
</g>
</g>
<!-- dir_3fe890f1593b95fd486bc879bbb074a9&#45;&gt;dir_aebb8dcc11953d78e620bbef0b9e2183 -->
<g id="edge17" class="edge">
<title>dir_3fe890f1593b95fd486bc879bbb074a9&#45;&gt;dir_aebb8dcc11953d78e620bbef0b9e2183</title>
<path fill="none" stroke="#000000" d="M624.4821,-359.8825C617.058,-354.2476 608.4714,-348.3731 600,-344 574.9027,-331.0443 544.4968,-321.2789 521.1122,-314.8936"/>
<polygon fill="#000000" stroke="#000000" points="521.7944,-311.4537 511.2319,-312.2815 520.0052,-318.2212 521.7944,-311.4537"/>
<g id="a_edge17&#45;headlabel"><a xlink:href="dir_000517_000020.xhtml" target="_top" xlink:title="4">
<text text-anchor="middle" x="525.9953" y="-307.1274" font-family="Helvetica,sans-Serif" font-size="10.00" fill="#000000">4</text>
</a>
</g>
</g>
<!-- dir_214608ef36d61442cb2b0c1c4e9a7def&#45;&gt;dir_cbdb8362360e11eafe2fa3bc74cf0ffd -->
<g id="edge18" class="edge">
<title>dir_214608ef36d61442cb2b0c1c4e9a7def&#45;&gt;dir_cbdb8362360e11eafe2fa3bc74cf0ffd</title>
<path fill="none" stroke="#000000" d="M319.8977,-143.8314C311.6348,-135.454 302.4665,-125.3531 294.7452,-116.1749"/>
<polygon fill="#000000" stroke="#000000" points="297.4341,-113.9341 288.3913,-108.4133 292.0175,-118.3683 297.4341,-113.9341"/>
<g id="a_edge18&#45;headlabel"><a xlink:href="dir_000000_000041.xhtml" target="_top" xlink:title="1">
<text text-anchor="middle" x="301.908" y="-112.4171" font-family="Helvetica,sans-Serif" font-size="10.00" fill="#000000">1</text>
</a>
</g>
</g>
<!-- dir_214608ef36d61442cb2b0c1c4e9a7def&#45;&gt;dir_5815af820a9cc9481f1d0990a0d60286 -->
<g id="edge19" class="edge">
<title>dir_214608ef36d61442cb2b0c1c4e9a7def&#45;&gt;dir_5815af820a9cc9481f1d0990a0d60286</title>
<path fill="none" stroke="#000000" d="M337.3268,-143.7623C334.867,-119.201 334.5923,-75.2474 336.5026,-46.3541"/>
<polygon fill="#000000" stroke="#000000" points="340.0152,-46.3416 337.3417,-36.0896 333.0385,-45.7712 340.0152,-46.3416"/>
<g id="a_edge19&#45;headlabel"><a xlink:href="dir_000000_000032.xhtml" target="_top" xlink:title="18">
<text text-anchor="middle" x="342.5522" y="-47.6556" font-family="Helvetica,sans-Serif" font-size="10.00" fill="#000000">18</text>
</a>
</g>
</g>
<!-- dir_aebb8dcc11953d78e620bbef0b9e2183&#45;&gt;dir_cf895c1ed808af158264b2f3d8d7f8f0 -->
<g id="edge36" class="edge">
<title>dir_aebb8dcc11953d78e620bbef0b9e2183&#45;&gt;dir_cf895c1ed808af158264b2f3d8d7f8f0</title>
<path fill="none" stroke="#000000" d="M511.2788,-313.9169C526.3019,-320.2486 543.7938,-330.332 555,-344 573.4603,-366.5158 583.6264,-398.573 587.1533,-421.5285"/>
<polygon fill="#000000" stroke="#000000" points="583.7018,-422.1485 588.336,-431.676 590.6547,-421.3381 583.7018,-422.1485"/>
<g id="a_edge36&#45;headlabel"><a xlink:href="dir_000020_000004.xhtml" target="_top" xlink:title="4">
<text text-anchor="middle" x="580.4655" y="-416.4067" font-family="Helvetica,sans-Serif" font-size="10.00" fill="#000000">4</text>
</a>
</g>
</g>
<!-- dir_aebb8dcc11953d78e620bbef0b9e2183&#45;&gt;dir_214608ef36d61442cb2b0c1c4e9a7def -->
<g id="edge37" class="edge">
<title>dir_aebb8dcc11953d78e620bbef0b9e2183&#45;&gt;dir_214608ef36d61442cb2b0c1c4e9a7def</title>
<path fill="none" stroke="#000000" d="M476.7204,-287.6585C468.2572,-268.1006 452.7532,-237.0985 432,-216 420.1484,-203.9513 405.0708,-193.5448 390.6604,-185.1723"/>
<polygon fill="#000000" stroke="#000000" points="392.2458,-182.0488 381.809,-180.2255 388.8308,-188.1593 392.2458,-182.0488"/>
<g id="a_edge37&#45;headlabel"><a xlink:href="dir_000020_000000.xhtml" target="_top" xlink:title="609">
<text text-anchor="middle" x="396.7687" y="-178.8239" font-family="Helvetica,sans-Serif" font-size="10.00" fill="#000000">609</text>
</a>
</g>
</g>
<!-- dir_aebb8dcc11953d78e620bbef0b9e2183&#45;&gt;dir_5815af820a9cc9481f1d0990a0d60286 -->
<g id="edge38" class="edge">
<title>dir_aebb8dcc11953d78e620bbef0b9e2183&#45;&gt;dir_5815af820a9cc9481f1d0990a0d60286</title>
<path fill="none" stroke="#000000" d="M480.1843,-287.9569C475.9516,-269.4545 468.3317,-240.0605 458,-216 430.2491,-151.3733 385.608,-81.7204 360.5691,-44.7071"/>
<polygon fill="#000000" stroke="#000000" points="363.1732,-42.3134 354.6478,-36.0231 357.3897,-46.257 363.1732,-42.3134"/>
<g id="a_edge38&#45;headlabel"><a xlink:href="dir_000020_000032.xhtml" target="_top" xlink:title="56">
<text text-anchor="middle" x="367.544" y="-41.1838" font-family="Helvetica,sans-Serif" font-size="10.00" fill="#000000">56</text>
</a>
</g>
</g>
<!-- dir_aebb8dcc11953d78e620bbef0b9e2183&#45;&gt;dir_fdedb0aba14d44ce9d99bc100e026e6a -->
<g id="edge39" class="edge">
<title>dir_aebb8dcc11953d78e620bbef0b9e2183&#45;&gt;dir_fdedb0aba14d44ce9d99bc100e026e6a</title>
<path fill="none" stroke="#000000" d="M456.9568,-299.799C401.463,-287.0743 274.5016,-257.9621 209.6744,-243.0973"/>
<polygon fill="#000000" stroke="#000000" points="210.3533,-239.6622 199.824,-240.8386 208.7888,-246.4852 210.3533,-239.6622"/>
<g id="a_edge39&#45;headlabel"><a xlink:href="dir_000020_000019.xhtml" target="_top" xlink:title="5">
<text text-anchor="middle" x="214.4915" y="-235.1981" font-family="Helvetica,sans-Serif" font-size="10.00" fill="#000000">5</text>
</a>
</g>
</g>
<!-- dir_5815af820a9cc9481f1d0990a0d60286&#45;&gt;dir_214608ef36d61442cb2b0c1c4e9a7def -->
<g id="edge42" class="edge">
<title>dir_5815af820a9cc9481f1d0990a0d60286&#45;&gt;dir_214608ef36d61442cb2b0c1c4e9a7def</title>
<path fill="none" stroke="#000000" d="M346.6583,-36.0896C349.1269,-60.5727 349.4104,-104.5174 347.5089,-133.4713"/>
<polygon fill="#000000" stroke="#000000" points="343.9942,-133.5118 346.6732,-143.7623 350.9712,-134.0785 343.9942,-133.5118"/>
<g id="a_edge42&#45;headlabel"><a xlink:href="dir_000032_000000.xhtml" target="_top" xlink:title="6">
<text text-anchor="middle" x="341.4551" y="-127.1992" font-family="Helvetica,sans-Serif" font-size="10.00" fill="#000000">6</text>
</a>
</g>
</g>
<!-- dir_fdedb0aba14d44ce9d99bc100e026e6a&#45;&gt;dir_cbdb8362360e11eafe2fa3bc74cf0ffd -->
<g id="edge43" class="edge">
<title>dir_fdedb0aba14d44ce9d99bc100e026e6a&#45;&gt;dir_cbdb8362360e11eafe2fa3bc74cf0ffd</title>
<path fill="none" stroke="#000000" d="M176.2991,-215.8479C183.4952,-196.7295 196.5663,-166.3553 214,-144 222.4777,-133.129 233.4564,-122.9022 243.9199,-114.334"/>
<polygon fill="#000000" stroke="#000000" points="246.1007,-117.0717 251.7711,-108.122 241.7572,-111.5822 246.1007,-117.0717"/>
<g id="a_edge43&#45;headlabel"><a xlink:href="dir_000019_000041.xhtml" target="_top" xlink:title="1">
<text text-anchor="middle" x="245.0435" y="-119.0287" font-family="Helvetica,sans-Serif" font-size="10.00" fill="#000000">1</text>
</a>
</g>
</g>
<!-- dir_fdedb0aba14d44ce9d99bc100e026e6a&#45;&gt;dir_214608ef36d61442cb2b0c1c4e9a7def -->
<g id="edge44" class="edge">
<title>dir_fdedb0aba14d44ce9d99bc100e026e6a&#45;&gt;dir_214608ef36d61442cb2b0c1c4e9a7def</title>
<path fill="none" stroke="#000000" d="M199.5679,-221.6228C224.5287,-211.174 260.8451,-195.9718 290.559,-183.5335"/>
<polygon fill="#000000" stroke="#000000" points="292.0787,-186.6917 299.9516,-179.6017 289.3757,-180.2346 292.0787,-186.6917"/>
<g id="a_edge44&#45;headlabel"><a xlink:href="dir_000019_000000.xhtml" target="_top" xlink:title="17">
<text text-anchor="middle" x="289.8592" y="-188.1987" font-family="Helvetica,sans-Serif" font-size="10.00" fill="#000000">17</text>
</a>
</g>
</g>
<!-- dir_fdedb0aba14d44ce9d99bc100e026e6a&#45;&gt;dir_5815af820a9cc9481f1d0990a0d60286 -->
<g id="edge45" class="edge">
<title>dir_fdedb0aba14d44ce9d99bc100e026e6a&#45;&gt;dir_5815af820a9cc9481f1d0990a0d60286</title>
<path fill="none" stroke="#000000" d="M171.2706,-215.6924C173.1089,-196.9792 177.5286,-167.4201 188,-144 204.3268,-107.4838 211.6972,-98.1102 242,-72 260.8395,-55.7671 285.368,-42.4289 305.417,-33.0698"/>
<polygon fill="#000000" stroke="#000000" points="306.8995,-36.2407 314.5651,-28.927 304.0117,-29.8641 306.8995,-36.2407"/>
<g id="a_edge45&#45;headlabel"><a xlink:href="dir_000019_000032.xhtml" target="_top" xlink:title="2">
<text text-anchor="middle" x="304.7963" y="-37.8099" font-family="Helvetica,sans-Serif" font-size="10.00" fill="#000000">2</text>
</a>
</g>
</g>
</g>
</svg>
