<?xml version="1.0" encoding="UTF-8" standalone="no"?>
<!DOCTYPE svg PUBLIC "-//W3C//DTD SVG 1.1//EN"
 "http://www.w3.org/Graphics/SVG/1.1/DTD/svg11.dtd">
<!-- Generated by graphviz version 2.40.1 (20161225.0304)
 -->
<!-- Title: src/graph Pages: 1 -->
<svg width="705pt" height="330pt"
 viewBox="0.00 0.00 705.00 329.64" xmlns="http://www.w3.org/2000/svg" xmlns:xlink="http://www.w3.org/1999/xlink">
<g id="graph0" class="graph" transform="scale(1 1) rotate(0) translate(4 325.641)">
<title>src/graph</title>
<polygon fill="#ffffff" stroke="transparent" points="-4,4 -4,-325.641 701,-325.641 701,4 -4,4"/>
<g id="clust1" class="cluster">
<title>clusterdir_68267d1309a1af8e8297ef4c3efbcdba</title>
<g id="a_clust1"><a xlink:href="dir_68267d1309a1af8e8297ef4c3efbcdba.xhtml" target="_top" xlink:title="src">
<polygon fill="#ddddee" stroke="#000000" points="8,-200 8,-287 635,-287 635,-200 8,-200"/>
<text text-anchor="middle" x="321.5" y="-275" font-family="Helvetica,sans-Serif" font-size="10.00" fill="#000000">src</text>
</a>
</g>
</g>
<g id="clust2" class="cluster">
<title>clusterdir_d182250f0c231765fc862e69db210731</title>
<g id="a_clust2"><a xlink:href="dir_d182250f0c231765fc862e69db210731.xhtml" target="_top">
<polygon fill="#eeeeff" stroke="#000000" points="16,-208 16,-260 627,-260 627,-208 16,-208"/>
</a>
</g>
</g>
<!-- dir_d182250f0c231765fc862e69db210731 -->
<g id="node1" class="node">
<title>dir_d182250f0c231765fc862e69db210731</title>
<text text-anchor="middle" x="592" y="-231.5" font-family="Helvetica,sans-Serif" font-size="10.00" fill="#000000">graph</text>
</g>
<!-- dir_fdedb0aba14d44ce9d99bc100e026e6a -->
<g id="node12" class="node">
<title>dir_fdedb0aba14d44ce9d99bc100e026e6a</title>
<g id="a_node12"><a xlink:href="dir_fdedb0aba14d44ce9d99bc100e026e6a.xhtml" target="_top" xlink:title="common">
<polygon fill="#ffffff" stroke="#ff0000" points="590.5,-180 531.5,-180 531.5,-144 590.5,-144 590.5,-180"/>
<text text-anchor="middle" x="561" y="-159.5" font-family="Helvetica,sans-Serif" font-size="10.00" fill="#000000">common</text>
</a>
</g>
</g>
<!-- dir_d182250f0c231765fc862e69db210731&#45;&gt;dir_fdedb0aba14d44ce9d99bc100e026e6a -->
<g id="edge1" class="edge">
<title>dir_d182250f0c231765fc862e69db210731&#45;&gt;dir_fdedb0aba14d44ce9d99bc100e026e6a</title>
<path fill="none" stroke="#000000" d="M584.1774,-215.8314C580.7891,-207.9617 576.7459,-198.5712 572.9924,-189.8533"/>
<polygon fill="#000000" stroke="#000000" points="576.0973,-188.214 568.9279,-180.4133 569.6679,-190.9822 576.0973,-188.214"/>
<g id="a_edge1&#45;headlabel"><a xlink:href="dir_000463_000019.xhtml" target="_top" xlink:title="1">
<text text-anchor="middle" x="580.1266" y="-187.8928" font-family="Helvetica,sans-Serif" font-size="10.00" fill="#000000">1</text>
</a>
</g>
</g>
<!-- dir_5cd7c6994c9c36b087490b290382772a -->
<g id="node2" class="node">
<title>dir_5cd7c6994c9c36b087490b290382772a</title>
<g id="a_node2"><a xlink:href="dir_5cd7c6994c9c36b087490b290382772a.xhtml" target="_top" xlink:title="algorithms">
<polygon fill="#ffffff" stroke="#000000" points="93.5,-252 24.5,-252 24.5,-216 93.5,-216 93.5,-252"/>
<text text-anchor="middle" x="59" y="-231.5" font-family="Helvetica,sans-Serif" font-size="10.00" fill="#000000">algorithms</text>
</a>
</g>
</g>
<!-- dir_214608ef36d61442cb2b0c1c4e9a7def -->
<g id="node9" class="node">
<title>dir_214608ef36d61442cb2b0c1c4e9a7def</title>
<g id="a_node9"><a xlink:href="dir_214608ef36d61442cb2b0c1c4e9a7def.xhtml" target="_top" xlink:title="arm_compute">
<polygon fill="#ffffff" stroke="#ff0000" points="408,-108 324,-108 324,-72 408,-72 408,-108"/>
<text text-anchor="middle" x="366" y="-87.5" font-family="Helvetica,sans-Serif" font-size="10.00" fill="#000000">arm_compute</text>
</a>
</g>
</g>
<!-- dir_5cd7c6994c9c36b087490b290382772a&#45;&gt;dir_214608ef36d61442cb2b0c1c4e9a7def -->
<g id="edge3" class="edge">
<title>dir_5cd7c6994c9c36b087490b290382772a&#45;&gt;dir_214608ef36d61442cb2b0c1c4e9a7def</title>
<path fill="none" stroke="#000000" d="M80.2343,-215.8012C86.9799,-210.4102 94.6114,-204.6978 102,-200 170.3819,-156.5211 258.869,-123.7729 314.0358,-105.744"/>
<polygon fill="#000000" stroke="#000000" points="315.1594,-109.0592 323.6008,-102.6566 313.0091,-102.3976 315.1594,-109.0592"/>
<g id="a_edge3&#45;headlabel"><a xlink:href="dir_000502_000000.xhtml" target="_top" xlink:title="2">
<text text-anchor="middle" x="312.6107" y="-110.3653" font-family="Helvetica,sans-Serif" font-size="10.00" fill="#000000">2</text>
</a>
</g>
</g>
<!-- dir_5815af820a9cc9481f1d0990a0d60286 -->
<g id="node11" class="node">
<title>dir_5815af820a9cc9481f1d0990a0d60286</title>
<g id="a_node11"><a xlink:href="dir_5815af820a9cc9481f1d0990a0d60286.xhtml" target="_top" xlink:title="support">
<polygon fill="none" stroke="#000000" points="358,-36 304,-36 304,0 358,0 358,-36"/>
<text text-anchor="middle" x="331" y="-15.5" font-family="Helvetica,sans-Serif" font-size="10.00" fill="#000000">support</text>
</a>
</g>
</g>
<!-- dir_5cd7c6994c9c36b087490b290382772a&#45;&gt;dir_5815af820a9cc9481f1d0990a0d60286 -->
<g id="edge4" class="edge">
<title>dir_5cd7c6994c9c36b087490b290382772a&#45;&gt;dir_5815af820a9cc9481f1d0990a0d60286</title>
<path fill="none" stroke="#000000" d="M72.9233,-215.965C88.0703,-196.9443 113.5419,-166.6509 139,-144 180.7279,-106.8733 195.211,-102.5023 242,-72 259.2454,-60.7575 278.7642,-48.8289 295.1192,-39.0504"/>
<polygon fill="#000000" stroke="#000000" points="297.0419,-41.9791 303.8452,-33.8572 293.4619,-35.9638 297.0419,-41.9791"/>
<g id="a_edge4&#45;headlabel"><a xlink:href="dir_000502_000032.xhtml" target="_top" xlink:title="1">
<text text-anchor="middle" x="295.405" y="-43.7573" font-family="Helvetica,sans-Serif" font-size="10.00" fill="#000000">1</text>
</a>
</g>
</g>
<!-- dir_39e772dac1f6529f21fb52deefa146ea -->
<g id="node3" class="node">
<title>dir_39e772dac1f6529f21fb52deefa146ea</title>
<g id="a_node3"><a xlink:href="dir_39e772dac1f6529f21fb52deefa146ea.xhtml" target="_top" xlink:title="backends">
<polygon fill="#ffffff" stroke="#ff0000" points="174.5,-252 111.5,-252 111.5,-216 174.5,-216 174.5,-252"/>
<text text-anchor="middle" x="143" y="-231.5" font-family="Helvetica,sans-Serif" font-size="10.00" fill="#000000">backends</text>
</a>
</g>
</g>
<!-- dir_39e772dac1f6529f21fb52deefa146ea&#45;&gt;dir_214608ef36d61442cb2b0c1c4e9a7def -->
<g id="edge6" class="edge">
<title>dir_39e772dac1f6529f21fb52deefa146ea&#45;&gt;dir_214608ef36d61442cb2b0c1c4e9a7def</title>
<path fill="none" stroke="#000000" d="M163.8912,-215.855C170.2249,-210.5795 177.2857,-204.9174 184,-200 229.3074,-166.8179 285.028,-134.2328 322.7917,-113.25"/>
<polygon fill="#000000" stroke="#000000" points="324.926,-116.0697 331.9884,-108.1721 321.5424,-109.9418 324.926,-116.0697"/>
<g id="a_edge6&#45;headlabel"><a xlink:href="dir_000503_000000.xhtml" target="_top" xlink:title="72">
<text text-anchor="middle" x="323.1515" y="-117.7927" font-family="Helvetica,sans-Serif" font-size="10.00" fill="#000000">72</text>
</a>
</g>
</g>
<!-- dir_aebb8dcc11953d78e620bbef0b9e2183 -->
<g id="node10" class="node">
<title>dir_aebb8dcc11953d78e620bbef0b9e2183</title>
<g id="a_node10"><a xlink:href="dir_aebb8dcc11953d78e620bbef0b9e2183.xhtml" target="_top" xlink:title="core">
<polygon fill="#ffffff" stroke="#ff0000" points="697,-252 643,-252 643,-216 697,-216 697,-252"/>
<text text-anchor="middle" x="670" y="-231.5" font-family="Helvetica,sans-Serif" font-size="10.00" fill="#000000">core</text>
</a>
</g>
</g>
<!-- dir_39e772dac1f6529f21fb52deefa146ea&#45;&gt;dir_aebb8dcc11953d78e620bbef0b9e2183 -->
<g id="edge7" class="edge">
<title>dir_39e772dac1f6529f21fb52deefa146ea&#45;&gt;dir_aebb8dcc11953d78e620bbef0b9e2183</title>
<path fill="none" stroke="#000000" d="M149.9311,-252.1006C157.5877,-269.2449 171.7224,-293.96 193,-305 235.3104,-326.9531 579.9009,-327.3558 622,-305 639.3031,-295.8116 651.5051,-277.2922 659.2759,-261.4712"/>
<polygon fill="#000000" stroke="#000000" points="662.5944,-262.6286 663.5477,-252.0767 656.2223,-259.7311 662.5944,-262.6286"/>
<g id="a_edge7&#45;headlabel"><a xlink:href="dir_000503_000020.xhtml" target="_top" xlink:title="1">
<text text-anchor="middle" x="663.6912" y="-264.5761" font-family="Helvetica,sans-Serif" font-size="10.00" fill="#000000">1</text>
</a>
</g>
</g>
<!-- dir_39e772dac1f6529f21fb52deefa146ea&#45;&gt;dir_5815af820a9cc9481f1d0990a0d60286 -->
<g id="edge8" class="edge">
<title>dir_39e772dac1f6529f21fb52deefa146ea&#45;&gt;dir_5815af820a9cc9481f1d0990a0d60286</title>
<path fill="none" stroke="#000000" d="M156.76,-215.7552C170.7903,-197.3461 193.3663,-168.2531 214,-144 242.1292,-110.9366 250.4293,-103.7808 280,-72 288.5604,-62.7998 297.994,-52.7788 306.3954,-43.8952"/>
<polygon fill="#000000" stroke="#000000" points="309.1299,-46.0978 313.4648,-36.4304 304.0474,-41.2845 309.1299,-46.0978"/>
<g id="a_edge8&#45;headlabel"><a xlink:href="dir_000503_000032.xhtml" target="_top" xlink:title="9">
<text text-anchor="middle" x="308.7197" y="-48.1601" font-family="Helvetica,sans-Serif" font-size="10.00" fill="#000000">9</text>
</a>
</g>
</g>
<!-- dir_860cb336d74994b1303832ed3557228e -->
<g id="node4" class="node">
<title>dir_860cb336d74994b1303832ed3557228e</title>
<g id="a_node4"><a xlink:href="dir_860cb336d74994b1303832ed3557228e.xhtml" target="_top" xlink:title="detail">
<polygon fill="#ffffff" stroke="#000000" points="247,-252 193,-252 193,-216 247,-216 247,-252"/>
<text text-anchor="middle" x="220" y="-231.5" font-family="Helvetica,sans-Serif" font-size="10.00" fill="#000000">detail</text>
</a>
</g>
</g>
<!-- dir_860cb336d74994b1303832ed3557228e&#45;&gt;dir_214608ef36d61442cb2b0c1c4e9a7def -->
<g id="edge14" class="edge">
<title>dir_860cb336d74994b1303832ed3557228e&#45;&gt;dir_214608ef36d61442cb2b0c1c4e9a7def</title>
<path fill="none" stroke="#000000" d="M238.491,-215.7623C264.271,-190.3354 311.123,-144.1253 340.2909,-115.3569"/>
<polygon fill="#000000" stroke="#000000" points="342.9972,-117.6037 347.6591,-108.0896 338.0817,-112.6199 342.9972,-117.6037"/>
<g id="a_edge14&#45;headlabel"><a xlink:href="dir_000506_000000.xhtml" target="_top" xlink:title="17">
<text text-anchor="middle" x="342.4318" y="-119.6493" font-family="Helvetica,sans-Serif" font-size="10.00" fill="#000000">17</text>
</a>
</g>
</g>
<!-- dir_860cb336d74994b1303832ed3557228e&#45;&gt;dir_5815af820a9cc9481f1d0990a0d60286 -->
<g id="edge15" class="edge">
<title>dir_860cb336d74994b1303832ed3557228e&#45;&gt;dir_5815af820a9cc9481f1d0990a0d60286</title>
<path fill="none" stroke="#000000" d="M229.2729,-215.9555C248.7386,-178.0762 293.9579,-90.0818 316.9842,-45.274"/>
<polygon fill="#000000" stroke="#000000" points="320.2177,-46.6392 321.6755,-36.1451 313.9917,-43.4396 320.2177,-46.6392"/>
<g id="a_edge15&#45;headlabel"><a xlink:href="dir_000506_000032.xhtml" target="_top" xlink:title="1">
<text text-anchor="middle" x="321.1001" y="-48.634" font-family="Helvetica,sans-Serif" font-size="10.00" fill="#000000">1</text>
</a>
</g>
</g>
<!-- dir_330aa6f4e434724354905027707c791c -->
<g id="node5" class="node">
<title>dir_330aa6f4e434724354905027707c791c</title>
<g id="a_node5"><a xlink:href="dir_330aa6f4e434724354905027707c791c.xhtml" target="_top" xlink:title="frontend">
<polygon fill="#ffffff" stroke="#000000" points="403,-252 345,-252 345,-216 403,-216 403,-252"/>
<text text-anchor="middle" x="374" y="-231.5" font-family="Helvetica,sans-Serif" font-size="10.00" fill="#000000">frontend</text>
</a>
</g>
</g>
<!-- dir_330aa6f4e434724354905027707c791c&#45;&gt;dir_214608ef36d61442cb2b0c1c4e9a7def -->
<g id="edge13" class="edge">
<title>dir_330aa6f4e434724354905027707c791c&#45;&gt;dir_214608ef36d61442cb2b0c1c4e9a7def</title>
<path fill="none" stroke="#000000" d="M372.9868,-215.7623C371.6223,-191.201 369.1804,-147.2474 367.5752,-118.3541"/>
<polygon fill="#000000" stroke="#000000" points="371.0544,-117.88 367.005,-108.0896 364.0652,-118.2684 371.0544,-117.88"/>
<g id="a_edge13&#45;headlabel"><a xlink:href="dir_000507_000000.xhtml" target="_top" xlink:title="6">
<text text-anchor="middle" x="374.0886" y="-118.8117" font-family="Helvetica,sans-Serif" font-size="10.00" fill="#000000">6</text>
</a>
</g>
</g>
<!-- dir_1b9e532a4c8623825d945e964c6e4c7f -->
<g id="node6" class="node">
<title>dir_1b9e532a4c8623825d945e964c6e4c7f</title>
<g id="a_node6"><a xlink:href="dir_1b9e532a4c8623825d945e964c6e4c7f.xhtml" target="_top" xlink:title="mutators">
<polygon fill="#ffffff" stroke="#000000" points="326.5,-252 265.5,-252 265.5,-216 326.5,-216 326.5,-252"/>
<text text-anchor="middle" x="296" y="-231.5" font-family="Helvetica,sans-Serif" font-size="10.00" fill="#000000">mutators</text>
</a>
</g>
</g>
<!-- dir_1b9e532a4c8623825d945e964c6e4c7f&#45;&gt;dir_214608ef36d61442cb2b0c1c4e9a7def -->
<g id="edge16" class="edge">
<title>dir_1b9e532a4c8623825d945e964c6e4c7f&#45;&gt;dir_214608ef36d61442cb2b0c1c4e9a7def</title>
<path fill="none" stroke="#000000" d="M304.8655,-215.7623C316.9628,-190.8764 338.7378,-146.0822 352.7698,-117.2165"/>
<polygon fill="#000000" stroke="#000000" points="355.9822,-118.6135 357.2064,-108.0896 349.6867,-115.5531 355.9822,-118.6135"/>
<g id="a_edge16&#45;headlabel"><a xlink:href="dir_000508_000000.xhtml" target="_top" xlink:title="50">
<text text-anchor="middle" x="356.9643" y="-120.5877" font-family="Helvetica,sans-Serif" font-size="10.00" fill="#000000">50</text>
</a>
</g>
</g>
<!-- dir_1b9e532a4c8623825d945e964c6e4c7f&#45;&gt;dir_5815af820a9cc9481f1d0990a0d60286 -->
<g id="edge17" class="edge">
<title>dir_1b9e532a4c8623825d945e964c6e4c7f&#45;&gt;dir_5815af820a9cc9481f1d0990a0d60286</title>
<path fill="none" stroke="#000000" d="M297.1099,-215.8599C299.1796,-185.7352 304.4119,-123.5959 315,-72 316.7607,-63.42 319.2483,-54.2327 321.7385,-45.9138"/>
<polygon fill="#000000" stroke="#000000" points="325.1018,-46.8845 324.7285,-36.2962 318.4174,-44.8063 325.1018,-46.8845"/>
<g id="a_edge17&#45;headlabel"><a xlink:href="dir_000508_000032.xhtml" target="_top" xlink:title="10">
<text text-anchor="middle" x="326.746" y="-48.6599" font-family="Helvetica,sans-Serif" font-size="10.00" fill="#000000">10</text>
</a>
</g>
</g>
<!-- dir_b522e8895b1a2b097ec0514a9a6c1549 -->
<g id="node7" class="node">
<title>dir_b522e8895b1a2b097ec0514a9a6c1549</title>
<g id="a_node7"><a xlink:href="dir_b522e8895b1a2b097ec0514a9a6c1549.xhtml" target="_top" xlink:title="nodes">
<polygon fill="#ffffff" stroke="#000000" points="475,-252 421,-252 421,-216 475,-216 475,-252"/>
<text text-anchor="middle" x="448" y="-231.5" font-family="Helvetica,sans-Serif" font-size="10.00" fill="#000000">nodes</text>
</a>
</g>
</g>
<!-- dir_b522e8895b1a2b097ec0514a9a6c1549&#45;&gt;dir_214608ef36d61442cb2b0c1c4e9a7def -->
<g id="edge2" class="edge">
<title>dir_b522e8895b1a2b097ec0514a9a6c1549&#45;&gt;dir_214608ef36d61442cb2b0c1c4e9a7def</title>
<path fill="none" stroke="#000000" d="M437.6146,-215.7623C423.3819,-190.7682 397.7137,-145.6924 381.2844,-116.8409"/>
<polygon fill="#000000" stroke="#000000" points="384.2909,-115.0475 376.301,-108.0896 378.208,-118.5114 384.2909,-115.0475"/>
<g id="a_edge2&#45;headlabel"><a xlink:href="dir_000509_000000.xhtml" target="_top" xlink:title="196">
<text text-anchor="middle" x="388.5369" y="-114.2662" font-family="Helvetica,sans-Serif" font-size="10.00" fill="#000000">196</text>
</a>
</g>
</g>
<!-- dir_a3a3362c7065796fe64974622266bfb7 -->
<g id="node8" class="node">
<title>dir_a3a3362c7065796fe64974622266bfb7</title>
<g id="a_node8"><a xlink:href="dir_a3a3362c7065796fe64974622266bfb7.xhtml" target="_top" xlink:title="printers">
<polygon fill="#ffffff" stroke="#000000" points="547,-252 493,-252 493,-216 547,-216 547,-252"/>
<text text-anchor="middle" x="520" y="-231.5" font-family="Helvetica,sans-Serif" font-size="10.00" fill="#000000">printers</text>
</a>
</g>
</g>
<!-- dir_a3a3362c7065796fe64974622266bfb7&#45;&gt;dir_214608ef36d61442cb2b0c1c4e9a7def -->
<g id="edge9" class="edge">
<title>dir_a3a3362c7065796fe64974622266bfb7&#45;&gt;dir_214608ef36d61442cb2b0c1c4e9a7def</title>
<path fill="none" stroke="#000000" d="M500.9649,-215.9787C495.4948,-210.8118 489.5169,-205.1765 484,-200 452.8544,-170.776 416.9433,-137.3359 392.9961,-115.0726"/>
<polygon fill="#000000" stroke="#000000" points="395.3701,-112.5009 385.6626,-108.2566 390.6046,-117.6282 395.3701,-112.5009"/>
<g id="a_edge9&#45;headlabel"><a xlink:href="dir_000510_000000.xhtml" target="_top" xlink:title="6">
<text text-anchor="middle" x="399.936" y="-110.3683" font-family="Helvetica,sans-Serif" font-size="10.00" fill="#000000">6</text>
</a>
</g>
</g>
<!-- dir_214608ef36d61442cb2b0c1c4e9a7def&#45;&gt;dir_5815af820a9cc9481f1d0990a0d60286 -->
<g id="edge5" class="edge">
<title>dir_214608ef36d61442cb2b0c1c4e9a7def&#45;&gt;dir_5815af820a9cc9481f1d0990a0d60286</title>
<path fill="none" stroke="#000000" d="M351.2156,-71.8314C346.6232,-63.9617 341.8445,-54.5712 337.9458,-45.8533"/>
<polygon fill="#000000" stroke="#000000" points="341.0785,-44.2738 333.9749,-36.4133 334.6262,-46.9881 341.0785,-44.2738"/>
<g id="a_edge5&#45;headlabel"><a xlink:href="dir_000000_000032.xhtml" target="_top" xlink:title="18">
<text text-anchor="middle" x="345.0894" y="-43.9864" font-family="Helvetica,sans-Serif" font-size="10.00" fill="#000000">18</text>
</a>
</g>
</g>
<!-- dir_aebb8dcc11953d78e620bbef0b9e2183&#45;&gt;dir_214608ef36d61442cb2b0c1c4e9a7def -->
<g id="edge10" class="edge">
<title>dir_aebb8dcc11953d78e620bbef0b9e2183&#45;&gt;dir_214608ef36d61442cb2b0c1c4e9a7def</title>
<path fill="none" stroke="#000000" d="M660.808,-215.7515C649.416,-195.0641 628.0284,-161.8972 600,-144 570.2698,-125.0161 477.6083,-107.5358 418.1972,-97.8654"/>
<polygon fill="#000000" stroke="#000000" points="418.6671,-94.3961 408.2387,-96.2667 417.5575,-101.3076 418.6671,-94.3961"/>
<g id="a_edge10&#45;headlabel"><a xlink:href="dir_000020_000000.xhtml" target="_top" xlink:title="609">
<text text-anchor="middle" x="422.6662" y="-89.6624" font-family="Helvetica,sans-Serif" font-size="10.00" fill="#000000">609</text>
</a>
</g>
</g>
<!-- dir_aebb8dcc11953d78e620bbef0b9e2183&#45;&gt;dir_5815af820a9cc9481f1d0990a0d60286 -->
<g id="edge11" class="edge">
<title>dir_aebb8dcc11953d78e620bbef0b9e2183&#45;&gt;dir_5815af820a9cc9481f1d0990a0d60286</title>
<path fill="none" stroke="#000000" d="M666.3784,-215.8233C661.5256,-195.8237 651.092,-163.8845 631,-144 556.0369,-69.8115 430.8532,-36.8178 368.5707,-24.3914"/>
<polygon fill="#000000" stroke="#000000" points="368.8959,-20.8898 358.4147,-22.4372 367.5732,-27.7637 368.8959,-20.8898"/>
<g id="a_edge11&#45;headlabel"><a xlink:href="dir_000020_000032.xhtml" target="_top" xlink:title="56">
<text text-anchor="middle" x="372.9623" y="-16.2808" font-family="Helvetica,sans-Serif" font-size="10.00" fill="#000000">56</text>
</a>
</g>
</g>
<!-- dir_aebb8dcc11953d78e620bbef0b9e2183&#45;&gt;dir_fdedb0aba14d44ce9d99bc100e026e6a -->
<g id="edge12" class="edge">
<title>dir_aebb8dcc11953d78e620bbef0b9e2183&#45;&gt;dir_fdedb0aba14d44ce9d99bc100e026e6a</title>
<path fill="none" stroke="#000000" d="M650.8464,-215.8224C644.7326,-210.4322 637.7869,-204.715 631,-200 621.2504,-193.2267 610.1674,-186.7227 599.7419,-181.0691"/>
<polygon fill="#000000" stroke="#000000" points="601.2749,-177.9204 590.7994,-176.3343 597.9993,-184.1068 601.2749,-177.9204"/>
<g id="a_edge12&#45;headlabel"><a xlink:href="dir_000020_000019.xhtml" target="_top" xlink:title="5">
<text text-anchor="middle" x="605.7802" y="-174.5931" font-family="Helvetica,sans-Serif" font-size="10.00" fill="#000000">5</text>
</a>
</g>
</g>
<!-- dir_5815af820a9cc9481f1d0990a0d60286&#45;&gt;dir_214608ef36d61442cb2b0c1c4e9a7def -->
<g id="edge18" class="edge">
<title>dir_5815af820a9cc9481f1d0990a0d60286&#45;&gt;dir_214608ef36d61442cb2b0c1c4e9a7def</title>
<path fill="none" stroke="#000000" d="M345.9269,-36.4133C350.5231,-44.3141 355.2945,-53.7132 359.1748,-62.417"/>
<polygon fill="#000000" stroke="#000000" points="356.0271,-63.9614 363.1204,-71.8314 362.4831,-61.2557 356.0271,-63.9614"/>
<g id="a_edge18&#45;headlabel"><a xlink:href="dir_000032_000000.xhtml" target="_top" xlink:title="6">
<text text-anchor="middle" x="352.0192" y="-59.2436" font-family="Helvetica,sans-Serif" font-size="10.00" fill="#000000">6</text>
</a>
</g>
</g>
<!-- dir_fdedb0aba14d44ce9d99bc100e026e6a&#45;&gt;dir_214608ef36d61442cb2b0c1c4e9a7def -->
<g id="edge19" class="edge">
<title>dir_fdedb0aba14d44ce9d99bc100e026e6a&#45;&gt;dir_214608ef36d61442cb2b0c1c4e9a7def</title>
<path fill="none" stroke="#000000" d="M531.3837,-151.0647C501.26,-139.9421 453.9734,-122.4825 417.6651,-109.0764"/>
<polygon fill="#000000" stroke="#000000" points="418.8078,-105.7674 408.2145,-105.5869 416.3832,-112.334 418.8078,-105.7674"/>
<g id="a_edge19&#45;headlabel"><a xlink:href="dir_000019_000000.xhtml" target="_top" xlink:title="17">
<text text-anchor="middle" x="423.1633" y="-101.8489" font-family="Helvetica,sans-Serif" font-size="10.00" fill="#000000">17</text>
</a>
</g>
</g>
<!-- dir_fdedb0aba14d44ce9d99bc100e026e6a&#45;&gt;dir_5815af820a9cc9481f1d0990a0d60286 -->
<g id="edge20" class="edge">
<title>dir_fdedb0aba14d44ce9d99bc100e026e6a&#45;&gt;dir_5815af820a9cc9481f1d0990a0d60286</title>
<path fill="none" stroke="#000000" d="M531.8703,-143.7623C489.8273,-117.4397 412.2086,-68.8436 366.7508,-40.3831"/>
<polygon fill="#000000" stroke="#000000" points="368.4413,-37.3121 358.1081,-34.972 364.7266,-43.2452 368.4413,-37.3121"/>
<g id="a_edge20&#45;headlabel"><a xlink:href="dir_000019_000032.xhtml" target="_top" xlink:title="2">
<text text-anchor="middle" x="372.9947" y="-34.3131" font-family="Helvetica,sans-Serif" font-size="10.00" fill="#000000">2</text>
</a>
</g>
</g>
</g>
</svg>
