<?xml version="1.0" encoding="UTF-8" standalone="no"?>
<!DOCTYPE svg PUBLIC "-//W3C//DTD SVG 1.1//EN"
 "http://www.w3.org/Graphics/SVG/1.1/DTD/svg11.dtd">
<!-- Generated by graphviz version 2.40.1 (20161225.0304)
 -->
<!-- Title: src/runtime/CL/functions Pages: 1 -->
<svg width="356pt" height="511pt"
 viewBox="0.00 0.00 356.00 511.00" xmlns="http://www.w3.org/2000/svg" xmlns:xlink="http://www.w3.org/1999/xlink">
<g id="graph0" class="graph" transform="scale(1 1) rotate(0) translate(4 507)">
<title>src/runtime/CL/functions</title>
<polygon fill="#ffffff" stroke="transparent" points="-4,4 -4,-507 352,-507 352,4 -4,4"/>
<g id="clust1" class="cluster">
<title>clusterdir_43c3fdbf778d1fd99e2e38f09fddd920</title>
<g id="a_clust1"><a xlink:href="dir_43c3fdbf778d1fd99e2e38f09fddd920.xhtml" target="_top" xlink:title="CL">
<polygon fill="#ddddee" stroke="#000000" points="61,-424 61,-495 139,-495 139,-424 61,-424"/>
<text text-anchor="middle" x="100" y="-483" font-family="Helvetica,sans-Serif" font-size="10.00" fill="#000000">CL</text>
</a>
</g>
</g>
<!-- dir_0304d3529340c629ae0050036d07056a -->
<g id="node1" class="node">
<title>dir_0304d3529340c629ae0050036d07056a</title>
<g id="a_node1"><a xlink:href="dir_0304d3529340c629ae0050036d07056a.xhtml" target="_top" xlink:title="functions">
<polygon fill="#eeeeff" stroke="#000000" points="131,-468 69,-468 69,-432 131,-432 131,-468"/>
<text text-anchor="middle" x="100" y="-447.5" font-family="Helvetica,sans-Serif" font-size="10.00" fill="#000000">functions</text>
</a>
</g>
</g>
<!-- dir_cf895c1ed808af158264b2f3d8d7f8f0 -->
<g id="node2" class="node">
<title>dir_cf895c1ed808af158264b2f3d8d7f8f0</title>
<g id="a_node2"><a xlink:href="dir_cf895c1ed808af158264b2f3d8d7f8f0.xhtml" target="_top" xlink:title="gpu">
<polygon fill="#ffffff" stroke="#ff0000" points="232,-396 178,-396 178,-360 232,-360 232,-396"/>
<text text-anchor="middle" x="205" y="-375.5" font-family="Helvetica,sans-Serif" font-size="10.00" fill="#000000">gpu</text>
</a>
</g>
</g>
<!-- dir_0304d3529340c629ae0050036d07056a&#45;&gt;dir_cf895c1ed808af158264b2f3d8d7f8f0 -->
<g id="edge10" class="edge">
<title>dir_0304d3529340c629ae0050036d07056a&#45;&gt;dir_cf895c1ed808af158264b2f3d8d7f8f0</title>
<path fill="none" stroke="#000000" d="M126.4959,-431.8314C139.6774,-422.7927 155.7847,-411.7476 169.9711,-402.0198"/>
<polygon fill="#000000" stroke="#000000" points="172.2446,-404.7047 178.5125,-396.1628 168.2859,-398.9316 172.2446,-404.7047"/>
<g id="a_edge10&#45;headlabel"><a xlink:href="dir_000500_000004.xhtml" target="_top" xlink:title="47">
<text text-anchor="middle" x="170.8857" y="-406.5792" font-family="Helvetica,sans-Serif" font-size="10.00" fill="#000000">47</text>
</a>
</g>
</g>
<!-- dir_3fe890f1593b95fd486bc879bbb074a9 -->
<g id="node3" class="node">
<title>dir_3fe890f1593b95fd486bc879bbb074a9</title>
<g id="a_node3"><a xlink:href="dir_3fe890f1593b95fd486bc879bbb074a9.xhtml" target="_top" xlink:title="heuristics">
<polygon fill="#ffffff" stroke="#ff0000" points="168,-324 104,-324 104,-288 168,-288 168,-324"/>
<text text-anchor="middle" x="136" y="-303.5" font-family="Helvetica,sans-Serif" font-size="10.00" fill="#000000">heuristics</text>
</a>
</g>
</g>
<!-- dir_0304d3529340c629ae0050036d07056a&#45;&gt;dir_3fe890f1593b95fd486bc879bbb074a9 -->
<g id="edge11" class="edge">
<title>dir_0304d3529340c629ae0050036d07056a&#45;&gt;dir_3fe890f1593b95fd486bc879bbb074a9</title>
<path fill="none" stroke="#000000" d="M104.5594,-431.7623C110.7268,-407.0928 121.7851,-362.8598 129.0067,-333.9731"/>
<polygon fill="#000000" stroke="#000000" points="132.4477,-334.6399 131.4776,-324.0896 125.6567,-332.9421 132.4477,-334.6399"/>
<g id="a_edge11&#45;headlabel"><a xlink:href="dir_000500_000517.xhtml" target="_top" xlink:title="2">
<text text-anchor="middle" x="134.3304" y="-336.3158" font-family="Helvetica,sans-Serif" font-size="10.00" fill="#000000">2</text>
</a>
</g>
</g>
<!-- dir_214608ef36d61442cb2b0c1c4e9a7def -->
<g id="node4" class="node">
<title>dir_214608ef36d61442cb2b0c1c4e9a7def</title>
<g id="a_node4"><a xlink:href="dir_214608ef36d61442cb2b0c1c4e9a7def.xhtml" target="_top" xlink:title="arm_compute">
<polygon fill="#ffffff" stroke="#ff0000" points="204,-108 120,-108 120,-72 204,-72 204,-108"/>
<text text-anchor="middle" x="162" y="-87.5" font-family="Helvetica,sans-Serif" font-size="10.00" fill="#000000">arm_compute</text>
</a>
</g>
</g>
<!-- dir_0304d3529340c629ae0050036d07056a&#45;&gt;dir_214608ef36d61442cb2b0c1c4e9a7def -->
<g id="edge12" class="edge">
<title>dir_0304d3529340c629ae0050036d07056a&#45;&gt;dir_214608ef36d61442cb2b0c1c4e9a7def</title>
<path fill="none" stroke="#000000" d="M86.5469,-431.9776C68.3122,-405.7117 38,-354.7216 38,-306 38,-306 38,-306 38,-234 38,-181.466 85.975,-138.5723 122.2433,-113.6514"/>
<polygon fill="#000000" stroke="#000000" points="124.3296,-116.4671 130.7096,-108.0086 120.4473,-110.6423 124.3296,-116.4671"/>
<g id="a_edge12&#45;headlabel"><a xlink:href="dir_000500_000000.xhtml" target="_top" xlink:title="394">
<text text-anchor="middle" x="122.9131" y="-118.3232" font-family="Helvetica,sans-Serif" font-size="10.00" fill="#000000">394</text>
</a>
</g>
</g>
<!-- dir_aebb8dcc11953d78e620bbef0b9e2183 -->
<g id="node5" class="node">
<title>dir_aebb8dcc11953d78e620bbef0b9e2183</title>
<g id="a_node5"><a xlink:href="dir_aebb8dcc11953d78e620bbef0b9e2183.xhtml" target="_top" xlink:title="core">
<polygon fill="#ffffff" stroke="#ff0000" points="224,-252 170,-252 170,-216 224,-216 224,-252"/>
<text text-anchor="middle" x="197" y="-231.5" font-family="Helvetica,sans-Serif" font-size="10.00" fill="#000000">core</text>
</a>
</g>
</g>
<!-- dir_0304d3529340c629ae0050036d07056a&#45;&gt;dir_aebb8dcc11953d78e620bbef0b9e2183 -->
<g id="edge13" class="edge">
<title>dir_0304d3529340c629ae0050036d07056a&#45;&gt;dir_aebb8dcc11953d78e620bbef0b9e2183</title>
<path fill="none" stroke="#000000" d="M93.5149,-431.8812C83.3667,-400.1479 67.5686,-333.5609 95,-288 109.1075,-264.5688 137.1698,-250.7723 160.2946,-242.9976"/>
<polygon fill="#000000" stroke="#000000" points="161.3401,-246.3379 169.8479,-240.0237 159.2595,-239.6542 161.3401,-246.3379"/>
<g id="a_edge13&#45;headlabel"><a xlink:href="dir_000500_000020.xhtml" target="_top" xlink:title="122">
<text text-anchor="middle" x="158.7518" y="-247.6172" font-family="Helvetica,sans-Serif" font-size="10.00" fill="#000000">122</text>
</a>
</g>
</g>
<!-- dir_5815af820a9cc9481f1d0990a0d60286 -->
<g id="node6" class="node">
<title>dir_5815af820a9cc9481f1d0990a0d60286</title>
<g id="a_node6"><a xlink:href="dir_5815af820a9cc9481f1d0990a0d60286.xhtml" target="_top" xlink:title="support">
<polygon fill="none" stroke="#000000" points="224,-36 170,-36 170,0 224,0 224,-36"/>
<text text-anchor="middle" x="197" y="-15.5" font-family="Helvetica,sans-Serif" font-size="10.00" fill="#000000">support</text>
</a>
</g>
</g>
<!-- dir_0304d3529340c629ae0050036d07056a&#45;&gt;dir_5815af820a9cc9481f1d0990a0d60286 -->
<g id="edge14" class="edge">
<title>dir_0304d3529340c629ae0050036d07056a&#45;&gt;dir_5815af820a9cc9481f1d0990a0d60286</title>
<path fill="none" stroke="#000000" d="M76.3014,-431.8715C46.73,-406.9978 0,-359.2647 0,-306 0,-306 0,-306 0,-162 0,-83.669 102.7668,-43.3698 159.8518,-27.0267"/>
<polygon fill="#000000" stroke="#000000" points="160.8968,-30.3693 169.608,-24.339 159.0375,-23.6207 160.8968,-30.3693"/>
<g id="a_edge14&#45;headlabel"><a xlink:href="dir_000500_000032.xhtml" target="_top" xlink:title="3">
<text text-anchor="middle" x="158.1853" y="-31.5613" font-family="Helvetica,sans-Serif" font-size="10.00" fill="#000000">3</text>
</a>
</g>
</g>
<!-- dir_fdedb0aba14d44ce9d99bc100e026e6a -->
<g id="node7" class="node">
<title>dir_fdedb0aba14d44ce9d99bc100e026e6a</title>
<g id="a_node7"><a xlink:href="dir_fdedb0aba14d44ce9d99bc100e026e6a.xhtml" target="_top" xlink:title="common">
<polygon fill="#ffffff" stroke="#ff0000" points="319.5,-180 260.5,-180 260.5,-144 319.5,-144 319.5,-180"/>
<text text-anchor="middle" x="290" y="-159.5" font-family="Helvetica,sans-Serif" font-size="10.00" fill="#000000">common</text>
</a>
</g>
</g>
<!-- dir_0304d3529340c629ae0050036d07056a&#45;&gt;dir_fdedb0aba14d44ce9d99bc100e026e6a -->
<g id="edge15" class="edge">
<title>dir_0304d3529340c629ae0050036d07056a&#45;&gt;dir_fdedb0aba14d44ce9d99bc100e026e6a</title>
<path fill="none" stroke="#000000" d="M131.1876,-444.0278C161.8357,-436.8802 208.5956,-422.4198 241,-396 295.0052,-351.9688 295.3967,-321.264 303,-252 304.7459,-236.0955 304.8856,-231.8885 303,-216 301.9932,-207.5166 300.1264,-198.4376 298.1153,-190.1913"/>
<polygon fill="#000000" stroke="#000000" points="301.4472,-189.0971 295.5446,-180.2988 294.6722,-190.8576 301.4472,-189.0971"/>
<g id="a_edge15&#45;headlabel"><a xlink:href="dir_000500_000019.xhtml" target="_top" xlink:title="63">
<text text-anchor="middle" x="305.0992" y="-189.3621" font-family="Helvetica,sans-Serif" font-size="10.00" fill="#000000">63</text>
</a>
</g>
</g>
<!-- dir_cf895c1ed808af158264b2f3d8d7f8f0&#45;&gt;dir_3fe890f1593b95fd486bc879bbb074a9 -->
<g id="edge1" class="edge">
<title>dir_cf895c1ed808af158264b2f3d8d7f8f0&#45;&gt;dir_3fe890f1593b95fd486bc879bbb074a9</title>
<path fill="none" stroke="#000000" d="M181.636,-359.8314C172.7019,-351.3694 162.7221,-341.1489 154.3101,-331.8971"/>
<polygon fill="#000000" stroke="#000000" points="156.9249,-329.5706 147.67,-324.4133 151.6888,-334.2164 156.9249,-329.5706"/>
<g id="a_edge1&#45;headlabel"><a xlink:href="dir_000004_000517.xhtml" target="_top" xlink:title="9">
<text text-anchor="middle" x="161.4344" y="-327.875" font-family="Helvetica,sans-Serif" font-size="10.00" fill="#000000">9</text>
</a>
</g>
</g>
<!-- dir_cf895c1ed808af158264b2f3d8d7f8f0&#45;&gt;dir_214608ef36d61442cb2b0c1c4e9a7def -->
<g id="edge2" class="edge">
<title>dir_cf895c1ed808af158264b2f3d8d7f8f0&#45;&gt;dir_214608ef36d61442cb2b0c1c4e9a7def</title>
<path fill="none" stroke="#000000" d="M213.1574,-359.8048C225.5865,-329.6009 246.4719,-267.3503 233,-216 223.2392,-178.7954 199.737,-140.9997 182.4339,-116.6422"/>
<polygon fill="#000000" stroke="#000000" points="185.085,-114.3365 176.3764,-108.3023 179.4213,-118.4502 185.085,-114.3365"/>
<g id="a_edge2&#45;headlabel"><a xlink:href="dir_000004_000000.xhtml" target="_top" xlink:title="488">
<text text-anchor="middle" x="189.4947" y="-113.0763" font-family="Helvetica,sans-Serif" font-size="10.00" fill="#000000">488</text>
</a>
</g>
</g>
<!-- dir_cf895c1ed808af158264b2f3d8d7f8f0&#45;&gt;dir_aebb8dcc11953d78e620bbef0b9e2183 -->
<g id="edge3" class="edge">
<title>dir_cf895c1ed808af158264b2f3d8d7f8f0&#45;&gt;dir_aebb8dcc11953d78e620bbef0b9e2183</title>
<path fill="none" stroke="#000000" d="M199.3136,-359.7623C195.4893,-335.201 192.7727,-291.2474 193.0778,-262.3541"/>
<polygon fill="#000000" stroke="#000000" points="196.5835,-262.1779 193.3467,-252.0896 189.5859,-261.9945 196.5835,-262.1779"/>
<g id="a_edge3&#45;headlabel"><a xlink:href="dir_000004_000020.xhtml" target="_top" xlink:title="236">
<text text-anchor="middle" x="199.3278" y="-263.3456" font-family="Helvetica,sans-Serif" font-size="10.00" fill="#000000">236</text>
</a>
</g>
</g>
<!-- dir_cf895c1ed808af158264b2f3d8d7f8f0&#45;&gt;dir_5815af820a9cc9481f1d0990a0d60286 -->
<g id="edge4" class="edge">
<title>dir_cf895c1ed808af158264b2f3d8d7f8f0&#45;&gt;dir_5815af820a9cc9481f1d0990a0d60286</title>
<path fill="none" stroke="#000000" d="M232.088,-361.7536C252.3683,-349.299 278.0822,-332.8 287,-324 321.3953,-290.0592 348,-282.322 348,-234 348,-234 348,-234 348,-162 348,-98.927 278.1493,-55.0381 233.4641,-33.4144"/>
<polygon fill="#000000" stroke="#000000" points="234.885,-30.215 224.345,-29.1392 231.9136,-36.5531 234.885,-30.215"/>
<g id="a_edge4&#45;headlabel"><a xlink:href="dir_000004_000032.xhtml" target="_top" xlink:title="107">
<text text-anchor="middle" x="239.3449" y="-26.67" font-family="Helvetica,sans-Serif" font-size="10.00" fill="#000000">107</text>
</a>
</g>
</g>
<!-- dir_cf895c1ed808af158264b2f3d8d7f8f0&#45;&gt;dir_fdedb0aba14d44ce9d99bc100e026e6a -->
<g id="edge5" class="edge">
<title>dir_cf895c1ed808af158264b2f3d8d7f8f0&#45;&gt;dir_fdedb0aba14d44ce9d99bc100e026e6a</title>
<path fill="none" stroke="#000000" d="M232.1346,-360.6341C244.4664,-351.2927 258.0479,-338.6733 266,-324 288.9812,-281.5947 292.0438,-224.253 291.4949,-190.3913"/>
<polygon fill="#000000" stroke="#000000" points="294.9901,-190.1686 291.2104,-180.2709 287.9928,-190.3653 294.9901,-190.1686"/>
<g id="a_edge5&#45;headlabel"><a xlink:href="dir_000004_000019.xhtml" target="_top" xlink:title="45">
<text text-anchor="middle" x="297.9291" y="-191.182" font-family="Helvetica,sans-Serif" font-size="10.00" fill="#000000">45</text>
</a>
</g>
</g>
<!-- dir_3fe890f1593b95fd486bc879bbb074a9&#45;&gt;dir_cf895c1ed808af158264b2f3d8d7f8f0 -->
<g id="edge6" class="edge">
<title>dir_3fe890f1593b95fd486bc879bbb074a9&#45;&gt;dir_cf895c1ed808af158264b2f3d8d7f8f0</title>
<path fill="none" stroke="#000000" d="M159.3579,-324.1628C168.3602,-332.6891 178.425,-343.0016 186.878,-352.3099"/>
<polygon fill="#000000" stroke="#000000" points="184.29,-354.6667 193.5408,-359.8314 189.5298,-350.0251 184.29,-354.6667"/>
<g id="a_edge6&#45;headlabel"><a xlink:href="dir_000517_000004.xhtml" target="_top" xlink:title="2">
<text text-anchor="middle" x="179.7812" y="-351.3587" font-family="Helvetica,sans-Serif" font-size="10.00" fill="#000000">2</text>
</a>
</g>
</g>
<!-- dir_3fe890f1593b95fd486bc879bbb074a9&#45;&gt;dir_214608ef36d61442cb2b0c1c4e9a7def -->
<g id="edge7" class="edge">
<title>dir_3fe890f1593b95fd486bc879bbb074a9&#45;&gt;dir_214608ef36d61442cb2b0c1c4e9a7def</title>
<path fill="none" stroke="#000000" d="M138.172,-287.9555C142.7029,-250.3144 153.1905,-163.1867 158.6146,-118.1246"/>
<polygon fill="#000000" stroke="#000000" points="162.0956,-118.4917 159.8159,-108.1451 155.1458,-117.6551 162.0956,-118.4917"/>
<g id="a_edge7&#45;headlabel"><a xlink:href="dir_000517_000000.xhtml" target="_top" xlink:title="49">
<text text-anchor="middle" x="164.4851" y="-119.8998" font-family="Helvetica,sans-Serif" font-size="10.00" fill="#000000">49</text>
</a>
</g>
</g>
<!-- dir_3fe890f1593b95fd486bc879bbb074a9&#45;&gt;dir_aebb8dcc11953d78e620bbef0b9e2183 -->
<g id="edge8" class="edge">
<title>dir_3fe890f1593b95fd486bc879bbb074a9&#45;&gt;dir_aebb8dcc11953d78e620bbef0b9e2183</title>
<path fill="none" stroke="#000000" d="M151.3929,-287.8314C158.4904,-279.454 167.048,-269.3531 174.824,-260.1749"/>
<polygon fill="#000000" stroke="#000000" points="177.6061,-262.3056 181.3999,-252.4133 172.2652,-257.7807 177.6061,-262.3056"/>
<g id="a_edge8&#45;headlabel"><a xlink:href="dir_000517_000020.xhtml" target="_top" xlink:title="4">
<text text-anchor="middle" x="177.4488" y="-264.3836" font-family="Helvetica,sans-Serif" font-size="10.00" fill="#000000">4</text>
</a>
</g>
</g>
<!-- dir_214608ef36d61442cb2b0c1c4e9a7def&#45;&gt;dir_5815af820a9cc9481f1d0990a0d60286 -->
<g id="edge9" class="edge">
<title>dir_214608ef36d61442cb2b0c1c4e9a7def&#45;&gt;dir_5815af820a9cc9481f1d0990a0d60286</title>
<path fill="none" stroke="#000000" d="M164.8796,-71.8314C168.004,-63.7925 172.4769,-54.1666 177.1618,-45.2918"/>
<polygon fill="#000000" stroke="#000000" points="180.2953,-46.8579 182.0731,-36.4133 174.17,-43.4696 180.2953,-46.8579"/>
<g id="a_edge9&#45;headlabel"><a xlink:href="dir_000000_000032.xhtml" target="_top" xlink:title="18">
<text text-anchor="middle" x="181.0399" y="-48.8776" font-family="Helvetica,sans-Serif" font-size="10.00" fill="#000000">18</text>
</a>
</g>
</g>
<!-- dir_aebb8dcc11953d78e620bbef0b9e2183&#45;&gt;dir_cf895c1ed808af158264b2f3d8d7f8f0 -->
<g id="edge16" class="edge">
<title>dir_aebb8dcc11953d78e620bbef0b9e2183&#45;&gt;dir_cf895c1ed808af158264b2f3d8d7f8f0</title>
<path fill="none" stroke="#000000" d="M202.6633,-252.0896C206.492,-276.5727 209.217,-320.5174 208.924,-349.4713"/>
<polygon fill="#000000" stroke="#000000" points="205.4177,-349.6758 208.66,-359.7623 212.4154,-349.8554 205.4177,-349.6758"/>
<g id="a_edge16&#45;headlabel"><a xlink:href="dir_000020_000004.xhtml" target="_top" xlink:title="4">
<text text-anchor="middle" x="202.6715" y="-343.5096" font-family="Helvetica,sans-Serif" font-size="10.00" fill="#000000">4</text>
</a>
</g>
</g>
<!-- dir_aebb8dcc11953d78e620bbef0b9e2183&#45;&gt;dir_214608ef36d61442cb2b0c1c4e9a7def -->
<g id="edge17" class="edge">
<title>dir_aebb8dcc11953d78e620bbef0b9e2183&#45;&gt;dir_214608ef36d61442cb2b0c1c4e9a7def</title>
<path fill="none" stroke="#000000" d="M190.6821,-215.6471C187.2445,-205.2642 183.0782,-191.9954 180,-180 174.7274,-159.453 170.0709,-135.9379 166.8156,-118.0979"/>
<polygon fill="#000000" stroke="#000000" points="170.2262,-117.2869 165.0219,-108.0584 163.3353,-118.5181 170.2262,-117.2869"/>
<g id="a_edge17&#45;headlabel"><a xlink:href="dir_000020_000000.xhtml" target="_top" xlink:title="609">
<text text-anchor="middle" x="173.6534" y="-117.8261" font-family="Helvetica,sans-Serif" font-size="10.00" fill="#000000">609</text>
</a>
</g>
</g>
<!-- dir_aebb8dcc11953d78e620bbef0b9e2183&#45;&gt;dir_5815af820a9cc9481f1d0990a0d60286 -->
<g id="edge18" class="edge">
<title>dir_aebb8dcc11953d78e620bbef0b9e2183&#45;&gt;dir_5815af820a9cc9481f1d0990a0d60286</title>
<path fill="none" stroke="#000000" d="M201.627,-215.9556C208.6799,-185.9686 220.545,-124.0227 213,-72 211.7428,-63.3319 209.4064,-54.1182 206.9,-45.802"/>
<polygon fill="#000000" stroke="#000000" points="210.2072,-44.6531 203.8195,-36.2004 203.5418,-46.7916 210.2072,-44.6531"/>
<g id="a_edge18&#45;headlabel"><a xlink:href="dir_000020_000032.xhtml" target="_top" xlink:title="56">
<text text-anchor="middle" x="214.0088" y="-44.7085" font-family="Helvetica,sans-Serif" font-size="10.00" fill="#000000">56</text>
</a>
</g>
</g>
<!-- dir_aebb8dcc11953d78e620bbef0b9e2183&#45;&gt;dir_fdedb0aba14d44ce9d99bc100e026e6a -->
<g id="edge19" class="edge">
<title>dir_aebb8dcc11953d78e620bbef0b9e2183&#45;&gt;dir_fdedb0aba14d44ce9d99bc100e026e6a</title>
<path fill="none" stroke="#000000" d="M220.4678,-215.8314C232.0327,-206.8779 246.1404,-195.9558 258.6183,-186.2955"/>
<polygon fill="#000000" stroke="#000000" points="260.775,-189.0521 266.5397,-180.1628 256.4898,-183.5171 260.775,-189.0521"/>
<g id="a_edge19&#45;headlabel"><a xlink:href="dir_000020_000019.xhtml" target="_top" xlink:title="5">
<text text-anchor="middle" x="259.6708" y="-190.9977" font-family="Helvetica,sans-Serif" font-size="10.00" fill="#000000">5</text>
</a>
</g>
</g>
<!-- dir_5815af820a9cc9481f1d0990a0d60286&#45;&gt;dir_214608ef36d61442cb2b0c1c4e9a7def -->
<g id="edge20" class="edge">
<title>dir_5815af820a9cc9481f1d0990a0d60286&#45;&gt;dir_214608ef36d61442cb2b0c1c4e9a7def</title>
<path fill="none" stroke="#000000" d="M194.0251,-36.4133C190.8735,-44.484 186.3849,-54.1182 181.6958,-62.9775"/>
<polygon fill="#000000" stroke="#000000" points="178.5747,-61.3889 176.7844,-71.8314 184.6959,-64.7845 178.5747,-61.3889"/>
<g id="a_edge20&#45;headlabel"><a xlink:href="dir_000032_000000.xhtml" target="_top" xlink:title="6">
<text text-anchor="middle" x="177.8355" y="-54.3682" font-family="Helvetica,sans-Serif" font-size="10.00" fill="#000000">6</text>
</a>
</g>
</g>
<!-- dir_fdedb0aba14d44ce9d99bc100e026e6a&#45;&gt;dir_214608ef36d61442cb2b0c1c4e9a7def -->
<g id="edge21" class="edge">
<title>dir_fdedb0aba14d44ce9d99bc100e026e6a&#45;&gt;dir_214608ef36d61442cb2b0c1c4e9a7def</title>
<path fill="none" stroke="#000000" d="M260.3125,-145.3008C243.3033,-135.7331 221.7034,-123.5832 203.0846,-113.1101"/>
<polygon fill="#000000" stroke="#000000" points="204.6489,-109.9743 194.2172,-108.1222 201.217,-116.0753 204.6489,-109.9743"/>
<g id="a_edge21&#45;headlabel"><a xlink:href="dir_000019_000000.xhtml" target="_top" xlink:title="17">
<text text-anchor="middle" x="209.1738" y="-106.7619" font-family="Helvetica,sans-Serif" font-size="10.00" fill="#000000">17</text>
</a>
</g>
</g>
<!-- dir_fdedb0aba14d44ce9d99bc100e026e6a&#45;&gt;dir_5815af820a9cc9481f1d0990a0d60286 -->
<g id="edge22" class="edge">
<title>dir_fdedb0aba14d44ce9d99bc100e026e6a&#45;&gt;dir_5815af820a9cc9481f1d0990a0d60286</title>
<path fill="none" stroke="#000000" d="M282.9549,-143.9408C275.2314,-125.1669 261.8115,-95.3208 246,-72 239.3643,-62.2128 231.0476,-52.3787 223.16,-43.8349"/>
<polygon fill="#000000" stroke="#000000" points="225.5189,-41.236 216.0974,-36.3897 220.4404,-46.0536 225.5189,-41.236"/>
<g id="a_edge22&#45;headlabel"><a xlink:href="dir_000019_000032.xhtml" target="_top" xlink:title="2">
<text text-anchor="middle" x="230.0527" y="-39.3899" font-family="Helvetica,sans-Serif" font-size="10.00" fill="#000000">2</text>
</a>
</g>
</g>
</g>
</svg>
