<?xml version="1.0" encoding="UTF-8" standalone="no"?>
<!DOCTYPE svg PUBLIC "-//W3C//DTD SVG 1.1//EN"
 "http://www.w3.org/Graphics/SVG/1.1/DTD/svg11.dtd">
<!-- Generated by graphviz version 2.40.1 (20161225.0304)
 -->
<!-- Title: src/cpu/kernels/boundingboxtransform Pages: 1 -->
<svg width="256pt" height="159pt"
 viewBox="0.00 0.00 256.00 159.00" xmlns="http://www.w3.org/2000/svg" xmlns:xlink="http://www.w3.org/1999/xlink">
<g id="graph0" class="graph" transform="scale(1 1) rotate(0) translate(4 155)">
<title>src/cpu/kernels/boundingboxtransform</title>
<polygon fill="#ffffff" stroke="transparent" points="-4,4 -4,-155 252,-155 252,4 -4,4"/>
<g id="clust1" class="cluster">
<title>clusterdir_1de7bcbbdec2bf3559cb3c688662d4f5</title>
<g id="a_clust1"><a xlink:href="dir_1de7bcbbdec2bf3559cb3c688662d4f5.xhtml" target="_top" xlink:title="kernels">
<polygon fill="#ddddee" stroke="#000000" points="8,-56 8,-143 240,-143 240,-56 8,-56"/>
<text text-anchor="middle" x="124" y="-131" font-family="Helvetica,sans-Serif" font-size="10.00" fill="#000000">kernels</text>
</a>
</g>
</g>
<g id="clust2" class="cluster">
<title>clusterdir_66505c28f17235130db4c94e75856446</title>
<g id="a_clust2"><a xlink:href="dir_66505c28f17235130db4c94e75856446.xhtml" target="_top">
<polygon fill="#eeeeff" stroke="#000000" points="16,-64 16,-116 232,-116 232,-64 16,-64"/>
</a>
</g>
</g>
<!-- dir_66505c28f17235130db4c94e75856446 -->
<g id="node1" class="node">
<title>dir_66505c28f17235130db4c94e75856446</title>
<text text-anchor="middle" x="160" y="-87.5" font-family="Helvetica,sans-Serif" font-size="10.00" fill="#000000">boundingboxtransform</text>
</g>
<!-- dir_2ba783d8b201bdd857da55bcc3a8cd52 -->
<g id="node2" class="node">
<title>dir_2ba783d8b201bdd857da55bcc3a8cd52</title>
<g id="a_node2"><a xlink:href="dir_2ba783d8b201bdd857da55bcc3a8cd52.xhtml" target="_top" xlink:title="generic">
<polygon fill="#ffffff" stroke="#ff0000" points="78,-108 24,-108 24,-72 78,-72 78,-108"/>
<text text-anchor="middle" x="51" y="-87.5" font-family="Helvetica,sans-Serif" font-size="10.00" fill="#000000">generic</text>
</a>
</g>
</g>
<!-- dir_214608ef36d61442cb2b0c1c4e9a7def -->
<g id="node3" class="node">
<title>dir_214608ef36d61442cb2b0c1c4e9a7def</title>
<g id="a_node3"><a xlink:href="dir_214608ef36d61442cb2b0c1c4e9a7def.xhtml" target="_top" xlink:title="arm_compute">
<polygon fill="#ffffff" stroke="#ff0000" points="93,-36 9,-36 9,0 93,0 93,-36"/>
<text text-anchor="middle" x="51" y="-15.5" font-family="Helvetica,sans-Serif" font-size="10.00" fill="#000000">arm_compute</text>
</a>
</g>
</g>
<!-- dir_2ba783d8b201bdd857da55bcc3a8cd52&#45;&gt;dir_214608ef36d61442cb2b0c1c4e9a7def -->
<g id="edge1" class="edge">
<title>dir_2ba783d8b201bdd857da55bcc3a8cd52&#45;&gt;dir_214608ef36d61442cb2b0c1c4e9a7def</title>
<path fill="none" stroke="#000000" d="M51,-71.8314C51,-64.131 51,-54.9743 51,-46.4166"/>
<polygon fill="#000000" stroke="#000000" points="54.5001,-46.4132 51,-36.4133 47.5001,-46.4133 54.5001,-46.4132"/>
<g id="a_edge1&#45;headlabel"><a xlink:href="dir_000417_000000.xhtml" target="_top" xlink:title="1">
<text text-anchor="middle" x="57.3393" y="-47.5079" font-family="Helvetica,sans-Serif" font-size="10.00" fill="#000000">1</text>
</a>
</g>
</g>
</g>
</svg>
