<?xml version="1.0" encoding="UTF-8" standalone="no"?>
<!DOCTYPE svg PUBLIC "-//W3C//DTD SVG 1.1//EN"
 "http://www.w3.org/Graphics/SVG/1.1/DTD/svg11.dtd">
<!-- Generated by graphviz version 2.40.1 (20161225.0304)
 -->
<!-- Title: src/runtime/heuristics/dwc_native Pages: 1 -->
<svg width="114pt" height="223pt"
 viewBox="0.00 0.00 114.00 223.00" xmlns="http://www.w3.org/2000/svg" xmlns:xlink="http://www.w3.org/1999/xlink">
<g id="graph0" class="graph" transform="scale(1 1) rotate(0) translate(4 219)">
<title>src/runtime/heuristics/dwc_native</title>
<polygon fill="#ffffff" stroke="transparent" points="-4,4 -4,-219 110,-219 110,4 -4,4"/>
<g id="clust1" class="cluster">
<title>clusterdir_3fe890f1593b95fd486bc879bbb074a9</title>
<g id="a_clust1"><a xlink:href="dir_3fe890f1593b95fd486bc879bbb074a9.xhtml" target="_top" xlink:title="heuristics">
<polygon fill="#ddddee" stroke="#000000" points="8,-136 8,-207 96,-207 96,-136 8,-136"/>
<text text-anchor="middle" x="52" y="-195" font-family="Helvetica,sans-Serif" font-size="10.00" fill="#000000">heuristics</text>
</a>
</g>
</g>
<!-- dir_83429f93dea60637d792bd9c83cdfabf -->
<g id="node1" class="node">
<title>dir_83429f93dea60637d792bd9c83cdfabf</title>
<g id="a_node1"><a xlink:href="dir_83429f93dea60637d792bd9c83cdfabf.xhtml" target="_top" xlink:title="dwc_native">
<polygon fill="#eeeeff" stroke="#000000" points="88,-180 16,-180 16,-144 88,-144 88,-180"/>
<text text-anchor="middle" x="52" y="-159.5" font-family="Helvetica,sans-Serif" font-size="10.00" fill="#000000">dwc_native</text>
</a>
</g>
</g>
<!-- dir_214608ef36d61442cb2b0c1c4e9a7def -->
<g id="node2" class="node">
<title>dir_214608ef36d61442cb2b0c1c4e9a7def</title>
<g id="a_node2"><a xlink:href="dir_214608ef36d61442cb2b0c1c4e9a7def.xhtml" target="_top" xlink:title="arm_compute">
<polygon fill="#ffffff" stroke="#ff0000" points="93,-36 9,-36 9,0 93,0 93,-36"/>
<text text-anchor="middle" x="51" y="-15.5" font-family="Helvetica,sans-Serif" font-size="10.00" fill="#000000">arm_compute</text>
</a>
</g>
</g>
<!-- dir_83429f93dea60637d792bd9c83cdfabf&#45;&gt;dir_214608ef36d61442cb2b0c1c4e9a7def -->
<g id="edge1" class="edge">
<title>dir_83429f93dea60637d792bd9c83cdfabf&#45;&gt;dir_214608ef36d61442cb2b0c1c4e9a7def</title>
<path fill="none" stroke="#000000" d="M48.1587,-143.6001C46.1834,-133.2025 43.9877,-119.9346 43,-108 41.6803,-92.0545 41.8244,-87.9568 43,-72 43.6169,-63.6264 44.7649,-54.5812 46.0026,-46.3322"/>
<polygon fill="#000000" stroke="#000000" points="49.4648,-46.8463 47.585,-36.4196 42.5523,-45.7428 49.4648,-46.8463"/>
<g id="a_edge1&#45;headlabel"><a xlink:href="dir_000519_000000.xhtml" target="_top" xlink:title="14">
<text text-anchor="middle" x="51.702" y="-48.3436" font-family="Helvetica,sans-Serif" font-size="10.00" fill="#000000">14</text>
</a>
</g>
</g>
<!-- dir_aebb8dcc11953d78e620bbef0b9e2183 -->
<g id="node3" class="node">
<title>dir_aebb8dcc11953d78e620bbef0b9e2183</title>
<g id="a_node3"><a xlink:href="dir_aebb8dcc11953d78e620bbef0b9e2183.xhtml" target="_top" xlink:title="core">
<polygon fill="#ffffff" stroke="#ff0000" points="106,-108 52,-108 52,-72 106,-72 106,-108"/>
<text text-anchor="middle" x="79" y="-87.5" font-family="Helvetica,sans-Serif" font-size="10.00" fill="#000000">core</text>
</a>
</g>
</g>
<!-- dir_83429f93dea60637d792bd9c83cdfabf&#45;&gt;dir_aebb8dcc11953d78e620bbef0b9e2183 -->
<g id="edge2" class="edge">
<title>dir_83429f93dea60637d792bd9c83cdfabf&#45;&gt;dir_aebb8dcc11953d78e620bbef0b9e2183</title>
<path fill="none" stroke="#000000" d="M58.8132,-143.8314C61.7644,-135.9617 65.2858,-126.5712 68.555,-117.8533"/>
<polygon fill="#000000" stroke="#000000" points="71.8609,-119.0055 72.095,-108.4133 65.3066,-116.5476 71.8609,-119.0055"/>
<g id="a_edge2&#45;headlabel"><a xlink:href="dir_000519_000020.xhtml" target="_top" xlink:title="1">
<text text-anchor="middle" x="73.2573" y="-120.8682" font-family="Helvetica,sans-Serif" font-size="10.00" fill="#000000">1</text>
</a>
</g>
</g>
<!-- dir_aebb8dcc11953d78e620bbef0b9e2183&#45;&gt;dir_214608ef36d61442cb2b0c1c4e9a7def -->
<g id="edge3" class="edge">
<title>dir_aebb8dcc11953d78e620bbef0b9e2183&#45;&gt;dir_214608ef36d61442cb2b0c1c4e9a7def</title>
<path fill="none" stroke="#000000" d="M71.9344,-71.8314C68.874,-63.9617 65.2221,-54.5712 61.8318,-45.8533"/>
<polygon fill="#000000" stroke="#000000" points="65.0473,-44.4647 58.1607,-36.4133 58.5232,-47.0019 65.0473,-44.4647"/>
<g id="a_edge3&#45;headlabel"><a xlink:href="dir_000020_000000.xhtml" target="_top" xlink:title="609">
<text text-anchor="middle" x="68.9963" y="-44.2859" font-family="Helvetica,sans-Serif" font-size="10.00" fill="#000000">609</text>
</a>
</g>
</g>
</g>
</svg>
