<?xml version="1.0" encoding="UTF-8" standalone="no"?>
<!DOCTYPE svg PUBLIC "-//W3C//DTD SVG 1.1//EN"
 "http://www.w3.org/Graphics/SVG/1.1/DTD/svg11.dtd">
<!-- Generated by graphviz version 2.40.1 (20161225.0304)
 -->
<!-- Title: Graphical Class Hierarchy Pages: 1 -->
<svg width="517pt" height="480pt"
 viewBox="0.00 0.00 517.00 480.00" xmlns="http://www.w3.org/2000/svg" xmlns:xlink="http://www.w3.org/1999/xlink">
<g id="graph0" class="graph" transform="scale(1 1) rotate(0) translate(4 476)">
<title>Graphical Class Hierarchy</title>
<polygon fill="#ffffff" stroke="transparent" points="-4,4 -4,-476 513,-476 513,4 -4,4"/>
<!-- Node0 -->
<g id="node1" class="node">
<title>Node0</title>
<g id="a_node1"><a xlink:href="classarm__conv_1_1pooling_1_1_i_depthfirst_strategy.xhtml" target="_top" xlink:title="IDepthfirstStrategy">
<polygon fill="#ffffff" stroke="#000000" points="0,-299 0,-318 109,-318 109,-299 0,-299"/>
<text text-anchor="middle" x="54.5" y="-306" font-family="Helvetica,sans-Serif" font-size="10.00" fill="#000000">IDepthfirstStrategy</text>
</a>
</g>
</g>
<!-- Node1 -->
<g id="node2" class="node">
<title>Node1</title>
<g id="a_node2"><a xlink:href="classarm__conv_1_1pooling_1_1_depthfirst_strategy.xhtml" target="_top" xlink:title="DepthfirstStrategy\l\&lt; TInput, TOutput \&gt;">
<polygon fill="#ffffff" stroke="#000000" points="178.5,-416.5 178.5,-446.5 293.5,-446.5 293.5,-416.5 178.5,-416.5"/>
<text text-anchor="start" x="186.5" y="-434.5" font-family="Helvetica,sans-Serif" font-size="10.00" fill="#000000">DepthfirstStrategy</text>
<text text-anchor="middle" x="236" y="-423.5" font-family="Helvetica,sans-Serif" font-size="10.00" fill="#000000">&lt; TInput, TOutput &gt;</text>
</a>
</g>
</g>
<!-- Node0&#45;&gt;Node1 -->
<g id="edge1" class="edge">
<title>Node0&#45;&gt;Node1</title>
<path fill="none" stroke="#191970" d="M66.1672,-326.6392C81.5302,-349.0409 110.6549,-386.7233 145,-407.5 155.0655,-413.589 166.6674,-418.1514 178.1453,-421.5642"/>
<polygon fill="#191970" stroke="#191970" points="68.9111,-324.4453 60.4506,-318.0679 63.0875,-328.3294 68.9111,-324.4453"/>
</g>
<!-- Node2 -->
<g id="node3" class="node">
<title>Node2</title>
<g id="a_node3"><a xlink:href="classarm__conv_1_1pooling_1_1_generic_depthfirst_wrapper.xhtml" target="_top" xlink:title="GenericDepthfirstWrapper\l\&lt; TInput, TOutput, OutputStage \&gt;">
<polygon fill="#ffffff" stroke="#000000" points="145,-367.5 145,-397.5 327,-397.5 327,-367.5 145,-367.5"/>
<text text-anchor="start" x="153" y="-385.5" font-family="Helvetica,sans-Serif" font-size="10.00" fill="#000000">GenericDepthfirstWrapper</text>
<text text-anchor="middle" x="236" y="-374.5" font-family="Helvetica,sans-Serif" font-size="10.00" fill="#000000">&lt; TInput, TOutput, OutputStage &gt;</text>
</a>
</g>
</g>
<!-- Node0&#45;&gt;Node2 -->
<g id="edge2" class="edge">
<title>Node0&#45;&gt;Node2</title>
<path fill="none" stroke="#191970" d="M77.8826,-323.5278C95.706,-334.4531 121.1642,-348.9435 145,-358.5 153.1893,-361.7833 161.9727,-364.7494 170.7353,-367.3859"/>
<polygon fill="#191970" stroke="#191970" points="79.6453,-320.5023 69.3071,-318.1845 75.9435,-326.4434 79.6453,-320.5023"/>
</g>
<!-- Node3 -->
<g id="node4" class="node">
<title>Node3</title>
<g id="a_node4"><a xlink:href="classarm__conv_1_1pooling_1_1_depthfirst_strategy.xhtml" target="_top" xlink:title="DepthfirstStrategy\l\&lt; __fp16, __fp16 \&gt;">
<polygon fill="#ffffff" stroke="#000000" points="181,-318.5 181,-348.5 291,-348.5 291,-318.5 181,-318.5"/>
<text text-anchor="start" x="189" y="-336.5" font-family="Helvetica,sans-Serif" font-size="10.00" fill="#000000">DepthfirstStrategy</text>
<text text-anchor="middle" x="236" y="-325.5" font-family="Helvetica,sans-Serif" font-size="10.00" fill="#000000">&lt; __fp16, __fp16 &gt;</text>
</a>
</g>
</g>
<!-- Node0&#45;&gt;Node3 -->
<g id="edge3" class="edge">
<title>Node0&#45;&gt;Node3</title>
<path fill="none" stroke="#191970" d="M119.4661,-317.4485C139.5839,-320.2196 161.5454,-323.2445 180.9253,-325.9139"/>
<polygon fill="#191970" stroke="#191970" points="119.8326,-313.966 109.4485,-316.0687 118.8774,-320.9005 119.8326,-313.966"/>
</g>
<!-- Node6 -->
<g id="node7" class="node">
<title>Node6</title>
<g id="a_node7"><a xlink:href="classarm__conv_1_1pooling_1_1_depthfirst_strategy.xhtml" target="_top" xlink:title="DepthfirstStrategy\l\&lt; float, float \&gt;">
<polygon fill="#ffffff" stroke="#000000" points="183,-269.5 183,-299.5 289,-299.5 289,-269.5 183,-269.5"/>
<text text-anchor="start" x="191" y="-287.5" font-family="Helvetica,sans-Serif" font-size="10.00" fill="#000000">DepthfirstStrategy</text>
<text text-anchor="middle" x="236" y="-276.5" font-family="Helvetica,sans-Serif" font-size="10.00" fill="#000000">&lt; float, float &gt;</text>
</a>
</g>
</g>
<!-- Node0&#45;&gt;Node6 -->
<g id="edge6" class="edge">
<title>Node0&#45;&gt;Node6</title>
<path fill="none" stroke="#191970" d="M119.4648,-299.9096C140.2333,-297.1634 162.9666,-294.1573 182.7962,-291.5352"/>
<polygon fill="#191970" stroke="#191970" points="118.9034,-296.4533 109.4485,-301.2341 119.8211,-303.3929 118.9034,-296.4533"/>
</g>
<!-- Node11 -->
<g id="node12" class="node">
<title>Node11</title>
<g id="a_node12"><a xlink:href="classarm__conv_1_1pooling_1_1_depthfirst_strategy.xhtml" target="_top" xlink:title="DepthfirstStrategy\l\&lt; int8_t, int8_t \&gt;">
<polygon fill="#ffffff" stroke="#000000" points="183,-147.5 183,-177.5 289,-177.5 289,-147.5 183,-147.5"/>
<text text-anchor="start" x="191" y="-165.5" font-family="Helvetica,sans-Serif" font-size="10.00" fill="#000000">DepthfirstStrategy</text>
<text text-anchor="middle" x="236" y="-154.5" font-family="Helvetica,sans-Serif" font-size="10.00" fill="#000000">&lt; int8_t, int8_t &gt;</text>
</a>
</g>
</g>
<!-- Node0&#45;&gt;Node11 -->
<g id="edge11" class="edge">
<title>Node0&#45;&gt;Node11</title>
<path fill="none" stroke="#191970" d="M74.5383,-292.3811C109.8815,-263.9507 182.8056,-205.29 217.2281,-177.6003"/>
<polygon fill="#191970" stroke="#191970" points="72.0069,-289.9255 66.4087,-298.9205 76.3944,-295.3798 72.0069,-289.9255"/>
</g>
<!-- Node14 -->
<g id="node15" class="node">
<title>Node14</title>
<g id="a_node15"><a xlink:href="classarm__conv_1_1pooling_1_1_depthfirst_strategy.xhtml" target="_top" xlink:title="DepthfirstStrategy\l\&lt; uint8_t, uint8_t \&gt;">
<polygon fill="#ffffff" stroke="#000000" points="179.5,-49.5 179.5,-79.5 292.5,-79.5 292.5,-49.5 179.5,-49.5"/>
<text text-anchor="start" x="187.5" y="-67.5" font-family="Helvetica,sans-Serif" font-size="10.00" fill="#000000">DepthfirstStrategy</text>
<text text-anchor="middle" x="236" y="-56.5" font-family="Helvetica,sans-Serif" font-size="10.00" fill="#000000">&lt; uint8_t, uint8_t &gt;</text>
</a>
</g>
</g>
<!-- Node0&#45;&gt;Node14 -->
<g id="edge14" class="edge">
<title>Node0&#45;&gt;Node14</title>
<path fill="none" stroke="#191970" d="M61.6853,-289.4729C74.7831,-256.3987 104.9292,-187.1866 145,-138.5 164.5397,-114.759 192.689,-93.2792 212.4931,-79.6529"/>
<polygon fill="#191970" stroke="#191970" points="58.3937,-288.2807 58.0408,-298.8696 64.92,-290.8119 58.3937,-288.2807"/>
</g>
<!-- Node4 -->
<g id="node5" class="node">
<title>Node4</title>
<g id="a_node5"><a xlink:href="structarm__conv_1_1pooling_1_1sme__fp16__nhwc__avg__3x3__s1__output2x2__depthfirst.xhtml" target="_top" xlink:title="sme_fp16_nhwc_avg_3x3\l_s1_output2x2_depthfirst">
<polygon fill="#ffffff" stroke="#000000" points="365,-441.5 365,-471.5 507,-471.5 507,-441.5 365,-441.5"/>
<text text-anchor="start" x="373" y="-459.5" font-family="Helvetica,sans-Serif" font-size="10.00" fill="#000000">sme_fp16_nhwc_avg_3x3</text>
<text text-anchor="middle" x="436" y="-448.5" font-family="Helvetica,sans-Serif" font-size="10.00" fill="#000000">_s1_output2x2_depthfirst</text>
</a>
</g>
</g>
<!-- Node3&#45;&gt;Node4 -->
<g id="edge4" class="edge">
<title>Node3&#45;&gt;Node4</title>
<path fill="none" stroke="#191970" d="M300.6963,-343.8473C310.1956,-347.392 319.343,-352.1409 327,-358.5 355.1363,-381.8672 335.4509,-408.4433 363,-432.5 366.9191,-435.9223 371.3383,-438.8588 376.0143,-441.3782"/>
<polygon fill="#191970" stroke="#191970" points="301.715,-340.4979 291.1219,-340.6889 299.522,-347.1455 301.715,-340.4979"/>
</g>
<!-- Node5 -->
<g id="node6" class="node">
<title>Node5</title>
<g id="a_node6"><a xlink:href="structarm__conv_1_1pooling_1_1sme__fp16__nhwc__max__2x2__s1__output2x2__depthfirst.xhtml" target="_top" xlink:title="sme_fp16_nhwc_max_2x2\l_s1_output2x2_depthfirst">
<polygon fill="#ffffff" stroke="#000000" points="363,-392.5 363,-422.5 509,-422.5 509,-392.5 363,-392.5"/>
<text text-anchor="start" x="371" y="-410.5" font-family="Helvetica,sans-Serif" font-size="10.00" fill="#000000">sme_fp16_nhwc_max_2x2</text>
<text text-anchor="middle" x="436" y="-399.5" font-family="Helvetica,sans-Serif" font-size="10.00" fill="#000000">_s1_output2x2_depthfirst</text>
</a>
</g>
</g>
<!-- Node3&#45;&gt;Node5 -->
<g id="edge5" class="edge">
<title>Node3&#45;&gt;Node5</title>
<path fill="none" stroke="#191970" d="M301.0706,-348.4603C309.9572,-351.3408 318.8261,-354.6764 327,-358.5 344.6445,-366.7539 345.5652,-374.8117 363,-383.5 369.5673,-386.7727 376.6822,-389.7469 383.8063,-392.3999"/>
<polygon fill="#191970" stroke="#191970" points="302.0395,-345.0966 291.4528,-345.5116 299.9876,-351.7891 302.0395,-345.0966"/>
</g>
<!-- Node7 -->
<g id="node8" class="node">
<title>Node7</title>
<g id="a_node8"><a xlink:href="structarm__conv_1_1pooling_1_1a64__fp32__nhwc__avg__3x3__s1__output2x2__depthfirst.xhtml" target="_top" xlink:title="a64_fp32_nhwc_avg_3x3\l_s1_output2x2_depthfirst">
<polygon fill="#ffffff" stroke="#000000" points="366,-343.5 366,-373.5 506,-373.5 506,-343.5 366,-343.5"/>
<text text-anchor="start" x="374" y="-361.5" font-family="Helvetica,sans-Serif" font-size="10.00" fill="#000000">a64_fp32_nhwc_avg_3x3</text>
<text text-anchor="middle" x="436" y="-350.5" font-family="Helvetica,sans-Serif" font-size="10.00" fill="#000000">_s1_output2x2_depthfirst</text>
</a>
</g>
</g>
<!-- Node6&#45;&gt;Node7 -->
<g id="edge7" class="edge">
<title>Node6&#45;&gt;Node7</title>
<path fill="none" stroke="#191970" d="M298.6883,-298.6989C308.3665,-301.7485 318.0957,-305.3347 327,-309.5 344.6445,-317.7539 345.5652,-325.8117 363,-334.5 369.5673,-337.7727 376.6822,-340.7469 383.8063,-343.3999"/>
<polygon fill="#191970" stroke="#191970" points="299.6426,-295.3313 289.0594,-295.8266 297.6416,-302.0392 299.6426,-295.3313"/>
</g>
<!-- Node8 -->
<g id="node9" class="node">
<title>Node8</title>
<g id="a_node9"><a xlink:href="structarm__conv_1_1pooling_1_1a64__fp32__nhwc__max__2x2__s1__output2x2__depthfirst.xhtml" target="_top" xlink:title="a64_fp32_nhwc_max_2x2\l_s1_output2x2_depthfirst">
<polygon fill="#ffffff" stroke="#000000" points="364.5,-294.5 364.5,-324.5 507.5,-324.5 507.5,-294.5 364.5,-294.5"/>
<text text-anchor="start" x="372.5" y="-312.5" font-family="Helvetica,sans-Serif" font-size="10.00" fill="#000000">a64_fp32_nhwc_max_2x2</text>
<text text-anchor="middle" x="436" y="-301.5" font-family="Helvetica,sans-Serif" font-size="10.00" fill="#000000">_s1_output2x2_depthfirst</text>
</a>
</g>
</g>
<!-- Node6&#45;&gt;Node8 -->
<g id="edge8" class="edge">
<title>Node6&#45;&gt;Node8</title>
<path fill="none" stroke="#191970" d="M299.0225,-292.3778C319.7353,-294.9669 342.9116,-297.8639 364.2247,-300.5281"/>
<polygon fill="#191970" stroke="#191970" points="299.4282,-288.9014 289.0712,-291.1339 298.5599,-295.8473 299.4282,-288.9014"/>
</g>
<!-- Node9 -->
<g id="node10" class="node">
<title>Node9</title>
<g id="a_node10"><a xlink:href="structarm__conv_1_1pooling_1_1sme__fp32__nhwc__avg__3x3__s1__output2x2__depthfirst.xhtml" target="_top" xlink:title="sme_fp32_nhwc_avg_3x3\l_s1_output2x2_depthfirst">
<polygon fill="#ffffff" stroke="#000000" points="365,-245.5 365,-275.5 507,-275.5 507,-245.5 365,-245.5"/>
<text text-anchor="start" x="373" y="-263.5" font-family="Helvetica,sans-Serif" font-size="10.00" fill="#000000">sme_fp32_nhwc_avg_3x3</text>
<text text-anchor="middle" x="436" y="-252.5" font-family="Helvetica,sans-Serif" font-size="10.00" fill="#000000">_s1_output2x2_depthfirst</text>
</a>
</g>
</g>
<!-- Node6&#45;&gt;Node9 -->
<g id="edge9" class="edge">
<title>Node6&#45;&gt;Node9</title>
<path fill="none" stroke="#191970" d="M299.1247,-276.925C320.0538,-274.4135 343.489,-271.6013 364.9717,-269.0234"/>
<polygon fill="#191970" stroke="#191970" points="298.583,-273.4648 289.0712,-278.1315 299.4171,-280.415 298.583,-273.4648"/>
</g>
<!-- Node10 -->
<g id="node11" class="node">
<title>Node10</title>
<g id="a_node11"><a xlink:href="structarm__conv_1_1pooling_1_1sme__fp32__nhwc__max__2x2__s1__output2x2__depthfirst.xhtml" target="_top" xlink:title="sme_fp32_nhwc_max_2x2\l_s1_output2x2_depthfirst">
<polygon fill="#ffffff" stroke="#000000" points="363,-196.5 363,-226.5 509,-226.5 509,-196.5 363,-196.5"/>
<text text-anchor="start" x="371" y="-214.5" font-family="Helvetica,sans-Serif" font-size="10.00" fill="#000000">sme_fp32_nhwc_max_2x2</text>
<text text-anchor="middle" x="436" y="-203.5" font-family="Helvetica,sans-Serif" font-size="10.00" fill="#000000">_s1_output2x2_depthfirst</text>
</a>
</g>
</g>
<!-- Node6&#45;&gt;Node10 -->
<g id="edge10" class="edge">
<title>Node6&#45;&gt;Node10</title>
<path fill="none" stroke="#191970" d="M284.2499,-265.8562C307.9156,-256.816 336.8817,-245.9054 363,-236.5 372.0748,-233.2321 381.8194,-229.8248 391.1393,-226.6151"/>
<polygon fill="#191970" stroke="#191970" points="282.8788,-262.6333 274.7913,-269.4774 285.3817,-269.1706 282.8788,-262.6333"/>
</g>
<!-- Node12 -->
<g id="node13" class="node">
<title>Node12</title>
<g id="a_node13"><a xlink:href="structarm__conv_1_1pooling_1_1a64__s8__nhwc__max__2x2__s1__output2x2__depthfirst.xhtml" target="_top" xlink:title="a64_s8_nhwc_max_2x2\l_s1_output2x2_depthfirst">
<polygon fill="#ffffff" stroke="#000000" points="366,-147.5 366,-177.5 506,-177.5 506,-147.5 366,-147.5"/>
<text text-anchor="start" x="374" y="-165.5" font-family="Helvetica,sans-Serif" font-size="10.00" fill="#000000">a64_s8_nhwc_max_2x2</text>
<text text-anchor="middle" x="436" y="-154.5" font-family="Helvetica,sans-Serif" font-size="10.00" fill="#000000">_s1_output2x2_depthfirst</text>
</a>
</g>
</g>
<!-- Node11&#45;&gt;Node12 -->
<g id="edge12" class="edge">
<title>Node11&#45;&gt;Node12</title>
<path fill="none" stroke="#191970" d="M299.227,-162.5C320.3726,-162.5 344.0669,-162.5 365.7171,-162.5"/>
<polygon fill="#191970" stroke="#191970" points="299.0713,-159.0001 289.0712,-162.5 299.0712,-166.0001 299.0713,-159.0001"/>
</g>
<!-- Node13 -->
<g id="node14" class="node">
<title>Node13</title>
<g id="a_node14"><a xlink:href="structarm__conv_1_1pooling_1_1sme__s8__nhwc__max__2x2__s1__output2x2__depthfirst.xhtml" target="_top" xlink:title="sme_s8_nhwc_max_2x2\l_s1_output2x2_depthfirst">
<polygon fill="#ffffff" stroke="#000000" points="366,-98.5 366,-128.5 506,-128.5 506,-98.5 366,-98.5"/>
<text text-anchor="start" x="374" y="-116.5" font-family="Helvetica,sans-Serif" font-size="10.00" fill="#000000">sme_s8_nhwc_max_2x2</text>
<text text-anchor="middle" x="436" y="-105.5" font-family="Helvetica,sans-Serif" font-size="10.00" fill="#000000">_s1_output2x2_depthfirst</text>
</a>
</g>
</g>
<!-- Node11&#45;&gt;Node13 -->
<g id="edge13" class="edge">
<title>Node11&#45;&gt;Node13</title>
<path fill="none" stroke="#191970" d="M298.8423,-147.1036C322.9897,-141.1875 350.5071,-134.4458 374.5245,-128.5615"/>
<polygon fill="#191970" stroke="#191970" points="297.9511,-143.7184 289.0712,-149.4975 299.6169,-150.5173 297.9511,-143.7184"/>
</g>
<!-- Node15 -->
<g id="node16" class="node">
<title>Node15</title>
<g id="a_node16"><a xlink:href="structarm__conv_1_1pooling_1_1a64__u8__nhwc__max__2x2__s1__output2x2__depthfirst.xhtml" target="_top" xlink:title="a64_u8_nhwc_max_2x2\l_s1_output2x2_depthfirst">
<polygon fill="#ffffff" stroke="#000000" points="366,-49.5 366,-79.5 506,-79.5 506,-49.5 366,-49.5"/>
<text text-anchor="start" x="374" y="-67.5" font-family="Helvetica,sans-Serif" font-size="10.00" fill="#000000">a64_u8_nhwc_max_2x2</text>
<text text-anchor="middle" x="436" y="-56.5" font-family="Helvetica,sans-Serif" font-size="10.00" fill="#000000">_s1_output2x2_depthfirst</text>
</a>
</g>
</g>
<!-- Node14&#45;&gt;Node15 -->
<g id="edge15" class="edge">
<title>Node14&#45;&gt;Node15</title>
<path fill="none" stroke="#191970" d="M302.5918,-64.5C322.87,-64.5 345.219,-64.5 365.7319,-64.5"/>
<polygon fill="#191970" stroke="#191970" points="302.5101,-61.0001 292.51,-64.5 302.51,-68.0001 302.5101,-61.0001"/>
</g>
<!-- Node16 -->
<g id="node17" class="node">
<title>Node16</title>
<g id="a_node17"><a xlink:href="structarm__conv_1_1pooling_1_1sme__u8__nhwc__max__2x2__s1__output2x2__depthfirst.xhtml" target="_top" xlink:title="sme_u8_nhwc_max_2x2\l_s1_output2x2_depthfirst">
<polygon fill="#ffffff" stroke="#000000" points="366,-.5 366,-30.5 506,-30.5 506,-.5 366,-.5"/>
<text text-anchor="start" x="374" y="-18.5" font-family="Helvetica,sans-Serif" font-size="10.00" fill="#000000">sme_u8_nhwc_max_2x2</text>
<text text-anchor="middle" x="436" y="-7.5" font-family="Helvetica,sans-Serif" font-size="10.00" fill="#000000">_s1_output2x2_depthfirst</text>
</a>
</g>
</g>
<!-- Node14&#45;&gt;Node16 -->
<g id="edge16" class="edge">
<title>Node14&#45;&gt;Node16</title>
<path fill="none" stroke="#191970" d="M302.3311,-48.2489C325.6838,-42.5275 351.81,-36.1266 374.7268,-30.5119"/>
<polygon fill="#191970" stroke="#191970" points="301.3899,-44.8759 292.51,-50.655 303.0557,-51.6748 301.3899,-44.8759"/>
</g>
</g>
</svg>
