<?xml version="1.0" encoding="UTF-8" standalone="no"?>
<!DOCTYPE svg PUBLIC "-//W3C//DTD SVG 1.1//EN"
 "http://www.w3.org/Graphics/SVG/1.1/DTD/svg11.dtd">
<!-- Generated by graphviz version 2.38.0 (20140413.2041)
 -->
<!-- Title: NEBitwiseXor Pages: 1 -->
<svg width="159pt" height="140pt"
 viewBox="0.00 0.00 159.00 140.00" xmlns="http://www.w3.org/2000/svg" xmlns:xlink="http://www.w3.org/1999/xlink">
<g id="graph0" class="graph" transform="scale(1 1) rotate(0) translate(4 136)">
<title>NEBitwiseXor</title>
<polygon fill="white" stroke="none" points="-4,4 -4,-136 155,-136 155,4 -4,4"/>
<!-- Node0 -->
<g id="node1" class="node"><title>Node0</title>
<g id="a_node1"><a xlink:title="Basic function to run NEBitwiseXorKernel.">
<polygon fill="#bfbfbf" stroke="black" points="36,-0.5 36,-19.5 115,-19.5 115,-0.5 36,-0.5"/>
<text text-anchor="middle" x="75.5" y="-7.5" font-family="Helvetica,sans-Serif" font-size="10.00">NEBitwiseXor</text>
</a>
</g>
</g>
<!-- Node1 -->
<g id="node2" class="node"><title>Node1</title>
<g id="a_node2"><a xlink:href="classarm__compute_1_1_i_n_e_simple_function_no_border.xhtml" target="_top" xlink:title="Basic interface for functions which have a single NEON kernel and no border.">
<polygon fill="white" stroke="black" points="0,-56.5 0,-75.5 151,-75.5 151,-56.5 0,-56.5"/>
<text text-anchor="middle" x="75.5" y="-63.5" font-family="Helvetica,sans-Serif" font-size="10.00">INESimpleFunctionNoBorder</text>
</a>
</g>
</g>
<!-- Node1&#45;&gt;Node0 -->
<g id="edge1" class="edge"><title>Node1&#45;&gt;Node0</title>
<path fill="none" stroke="midnightblue" d="M75.5,-45.8045C75.5,-36.9102 75.5,-26.7798 75.5,-19.7511"/>
<polygon fill="midnightblue" stroke="midnightblue" points="72.0001,-46.083 75.5,-56.083 79.0001,-46.083 72.0001,-46.083"/>
</g>
<!-- Node2 -->
<g id="node3" class="node"><title>Node2</title>
<g id="a_node3"><a xlink:href="classarm__compute_1_1_i_function.xhtml" target="_top" xlink:title="Base class for all functions.">
<polygon fill="white" stroke="black" points="46,-112.5 46,-131.5 105,-131.5 105,-112.5 46,-112.5"/>
<text text-anchor="middle" x="75.5" y="-119.5" font-family="Helvetica,sans-Serif" font-size="10.00">IFunction</text>
</a>
</g>
</g>
<!-- Node2&#45;&gt;Node1 -->
<g id="edge2" class="edge"><title>Node2&#45;&gt;Node1</title>
<path fill="none" stroke="midnightblue" d="M75.5,-101.805C75.5,-92.9102 75.5,-82.7798 75.5,-75.7511"/>
<polygon fill="midnightblue" stroke="midnightblue" points="72.0001,-102.083 75.5,-112.083 79.0001,-102.083 72.0001,-102.083"/>
</g>
</g>
</svg>
