<?xml version="1.0" encoding="UTF-8" standalone="no"?>
<!DOCTYPE svg PUBLIC "-//W3C//DTD SVG 1.1//EN"
 "http://www.w3.org/Graphics/SVG/1.1/DTD/svg11.dtd">
<!-- Generated by graphviz version 2.38.0 (20140413.2041)
 -->
<!-- Title: NEComparisonOperationKernel Pages: 1 -->
<svg width="175pt" height="196pt"
 viewBox="0.00 0.00 175.00 196.00" xmlns="http://www.w3.org/2000/svg" xmlns:xlink="http://www.w3.org/1999/xlink">
<g id="graph0" class="graph" transform="scale(1 1) rotate(0) translate(4 192)">
<title>NEComparisonOperationKernel</title>
<polygon fill="white" stroke="none" points="-4,4 -4,-192 171,-192 171,4 -4,4"/>
<!-- Node0 -->
<g id="node1" class="node"><title>Node0</title>
<g id="a_node1"><a xlink:title=" ">
<polygon fill="#bfbfbf" stroke="black" points="1.5,-0.5 1.5,-19.5 165.5,-19.5 165.5,-0.5 1.5,-0.5"/>
<text text-anchor="middle" x="83.5" y="-7.5" font-family="Helvetica,sans-Serif" font-size="10.00">NEComparisonOperationKernel</text>
</a>
</g>
</g>
<!-- Node1 -->
<g id="node2" class="node"><title>Node1</title>
<g id="a_node2"><a xlink:href="classarm__compute_1_1_n_e_elementwise_operation_kernel.xhtml" target="_top" xlink:title="Interface for an element&#45;wise operation kernel.">
<polygon fill="white" stroke="black" points="-1.42109e-14,-56.5 -1.42109e-14,-75.5 167,-75.5 167,-56.5 -1.42109e-14,-56.5"/>
<text text-anchor="middle" x="83.5" y="-63.5" font-family="Helvetica,sans-Serif" font-size="10.00">NEElementwiseOperationKernel</text>
</a>
</g>
</g>
<!-- Node1&#45;&gt;Node0 -->
<g id="edge1" class="edge"><title>Node1&#45;&gt;Node0</title>
<path fill="none" stroke="midnightblue" d="M83.5,-45.8045C83.5,-36.9102 83.5,-26.7798 83.5,-19.7511"/>
<polygon fill="midnightblue" stroke="midnightblue" points="80.0001,-46.083 83.5,-56.083 87.0001,-46.083 80.0001,-46.083"/>
</g>
<!-- Node2 -->
<g id="node3" class="node"><title>Node2</title>
<g id="a_node3"><a xlink:href="classarm__compute_1_1_i_c_p_p_kernel.xhtml" target="_top" xlink:title="Common interface for all kernels implemented in C++.">
<polygon fill="white" stroke="black" points="52.5,-112.5 52.5,-131.5 114.5,-131.5 114.5,-112.5 52.5,-112.5"/>
<text text-anchor="middle" x="83.5" y="-119.5" font-family="Helvetica,sans-Serif" font-size="10.00">INEKernel</text>
</a>
</g>
</g>
<!-- Node2&#45;&gt;Node1 -->
<g id="edge2" class="edge"><title>Node2&#45;&gt;Node1</title>
<path fill="none" stroke="midnightblue" d="M83.5,-101.805C83.5,-92.9102 83.5,-82.7798 83.5,-75.7511"/>
<polygon fill="midnightblue" stroke="midnightblue" points="80.0001,-102.083 83.5,-112.083 87.0001,-102.083 80.0001,-102.083"/>
</g>
<!-- Node3 -->
<g id="node4" class="node"><title>Node3</title>
<g id="a_node4"><a xlink:href="classarm__compute_1_1_i_kernel.xhtml" target="_top" xlink:title="Common information for all the kernels.">
<polygon fill="white" stroke="black" points="59.5,-168.5 59.5,-187.5 107.5,-187.5 107.5,-168.5 59.5,-168.5"/>
<text text-anchor="middle" x="83.5" y="-175.5" font-family="Helvetica,sans-Serif" font-size="10.00">IKernel</text>
</a>
</g>
</g>
<!-- Node3&#45;&gt;Node2 -->
<g id="edge3" class="edge"><title>Node3&#45;&gt;Node2</title>
<path fill="none" stroke="midnightblue" d="M83.5,-157.805C83.5,-148.91 83.5,-138.78 83.5,-131.751"/>
<polygon fill="midnightblue" stroke="midnightblue" points="80.0001,-158.083 83.5,-168.083 87.0001,-158.083 80.0001,-158.083"/>
</g>
</g>
</svg>
