<?xml version="1.0" encoding="UTF-8" standalone="no"?>
<!DOCTYPE svg PUBLIC "-//W3C//DTD SVG 1.1//EN"
 "http://www.w3.org/Graphics/SVG/1.1/DTD/svg11.dtd">
<!-- Generated by graphviz version 2.38.0 (20140413.2041)
 -->
<!-- Title: CLSeparableConvolutionHorKernel&lt; matrix_size &gt; Pages: 1 -->
<svg width="159pt" height="263pt"
 viewBox="0.00 0.00 159.00 263.00" xmlns="http://www.w3.org/2000/svg" xmlns:xlink="http://www.w3.org/1999/xlink">
<g id="graph0" class="graph" transform="scale(1 1) rotate(0) translate(4 259)">
<title>CLSeparableConvolutionHorKernel&lt; matrix_size &gt;</title>
<polygon fill="white" stroke="none" points="-4,4 -4,-259 155,-259 155,4 -4,4"/>
<!-- Node0 -->
<g id="node1" class="node"><title>Node0</title>
<g id="a_node1"><a xlink:title="Kernel for the Horizontal pass of a Separable Convolution.">
<polygon fill="#bfbfbf" stroke="black" points="0,-0.5 0,-30.5 151,-30.5 151,-0.5 0,-0.5"/>
<text text-anchor="start" x="8" y="-18.5" font-family="Helvetica,sans-Serif" font-size="10.00">CLSeparableConvolutionHor</text>
<text text-anchor="middle" x="75.5" y="-7.5" font-family="Helvetica,sans-Serif" font-size="10.00">Kernel&lt; matrix_size &gt;</text>
</a>
</g>
</g>
<!-- Node1 -->
<g id="node2" class="node"><title>Node1</title>
<g id="a_node2"><a xlink:href="classarm__compute_1_1_i_c_l_simple2_d_kernel.xhtml" target="_top" xlink:title="Interface for simple OpenCL kernels having 1 tensor input and 1 tensor output.">
<polygon fill="white" stroke="black" points="22,-67.5 22,-86.5 129,-86.5 129,-67.5 22,-67.5"/>
<text text-anchor="middle" x="75.5" y="-74.5" font-family="Helvetica,sans-Serif" font-size="10.00">ICLSimple2DKernel</text>
</a>
</g>
</g>
<!-- Node1&#45;&gt;Node0 -->
<g id="edge1" class="edge"><title>Node1&#45;&gt;Node0</title>
<path fill="none" stroke="midnightblue" d="M75.5,-57.2349C75.5,-48.5864 75.5,-38.4969 75.5,-30.523"/>
<polygon fill="midnightblue" stroke="midnightblue" points="72.0001,-57.4751 75.5,-67.4751 79.0001,-57.4751 72.0001,-57.4751"/>
</g>
<!-- Node2 -->
<g id="node3" class="node"><title>Node2</title>
<g id="a_node3"><a xlink:href="classarm__compute_1_1_i_c_l_simple_kernel.xhtml" target="_top" xlink:title="Interface for simple OpenCL kernels having 1 tensor input and 1 tensor output.">
<polygon fill="white" stroke="black" points="29,-123.5 29,-142.5 122,-142.5 122,-123.5 29,-123.5"/>
<text text-anchor="middle" x="75.5" y="-130.5" font-family="Helvetica,sans-Serif" font-size="10.00">ICLSimpleKernel</text>
</a>
</g>
</g>
<!-- Node2&#45;&gt;Node1 -->
<g id="edge2" class="edge"><title>Node2&#45;&gt;Node1</title>
<path fill="none" stroke="midnightblue" d="M75.5,-112.805C75.5,-103.91 75.5,-93.7798 75.5,-86.7511"/>
<polygon fill="midnightblue" stroke="midnightblue" points="72.0001,-113.083 75.5,-123.083 79.0001,-113.083 72.0001,-113.083"/>
</g>
<!-- Node3 -->
<g id="node4" class="node"><title>Node3</title>
<g id="a_node4"><a xlink:href="classarm__compute_1_1_i_c_l_kernel.xhtml" target="_top" xlink:title="Common interface for all the OpenCL kernels.">
<polygon fill="white" stroke="black" points="45.5,-179.5 45.5,-198.5 105.5,-198.5 105.5,-179.5 45.5,-179.5"/>
<text text-anchor="middle" x="75.5" y="-186.5" font-family="Helvetica,sans-Serif" font-size="10.00">ICLKernel</text>
</a>
</g>
</g>
<!-- Node3&#45;&gt;Node2 -->
<g id="edge3" class="edge"><title>Node3&#45;&gt;Node2</title>
<path fill="none" stroke="midnightblue" d="M75.5,-168.805C75.5,-159.91 75.5,-149.78 75.5,-142.751"/>
<polygon fill="midnightblue" stroke="midnightblue" points="72.0001,-169.083 75.5,-179.083 79.0001,-169.083 72.0001,-169.083"/>
</g>
<!-- Node4 -->
<g id="node5" class="node"><title>Node4</title>
<g id="a_node5"><a xlink:href="classarm__compute_1_1_i_kernel.xhtml" target="_top" xlink:title="Common information for all the kernels.">
<polygon fill="white" stroke="black" points="51.5,-235.5 51.5,-254.5 99.5,-254.5 99.5,-235.5 51.5,-235.5"/>
<text text-anchor="middle" x="75.5" y="-242.5" font-family="Helvetica,sans-Serif" font-size="10.00">IKernel</text>
</a>
</g>
</g>
<!-- Node4&#45;&gt;Node3 -->
<g id="edge4" class="edge"><title>Node4&#45;&gt;Node3</title>
<path fill="none" stroke="midnightblue" d="M75.5,-224.805C75.5,-215.91 75.5,-205.78 75.5,-198.751"/>
<polygon fill="midnightblue" stroke="midnightblue" points="72.0001,-225.083 75.5,-235.083 79.0001,-225.083 72.0001,-225.083"/>
</g>
</g>
</svg>
