<?xml version="1.0" encoding="UTF-8" standalone="no"?>
<!DOCTYPE svg PUBLIC "-//W3C//DTD SVG 1.1//EN"
 "http://www.w3.org/Graphics/SVG/1.1/DTD/svg11.dtd">
<!-- Generated by graphviz version 2.38.0 (20140413.2041)
 -->
<!-- Title: src/core/CL/gemm Pages: 1 -->
<svg width="314pt" height="159pt"
 viewBox="0.00 0.00 314.00 159.00" xmlns="http://www.w3.org/2000/svg" xmlns:xlink="http://www.w3.org/1999/xlink">
<g id="graph0" class="graph" transform="scale(1 1) rotate(0) translate(4 155)">
<title>src/core/CL/gemm</title>
<polygon fill="white" stroke="none" points="-4,4 -4,-155 310,-155 310,4 -4,4"/>
<g id="clust1" class="cluster"><title>clusterdir_8c278f79c760e5c5fbd911f9870614c1</title>
<g id="a_clust1"><a xlink:href="dir_8c278f79c760e5c5fbd911f9870614c1.xhtml" target="_top" xlink:title="CL">
<polygon fill="#ddddee" stroke="black" points="8,-56 8,-143 298,-143 298,-56 8,-56"/>
<text text-anchor="middle" x="153" y="-131" font-family="Helvetica,sans-Serif" font-size="10.00">CL</text>
</a>
</g>
</g>
<g id="clust2" class="cluster"><title>clusterdir_acedbc3c1c025eedca19641ef7b62820</title>
<g id="a_clust2"><a xlink:href="dir_acedbc3c1c025eedca19641ef7b62820.xhtml" target="_top">
<polygon fill="#eeeeff" stroke="black" points="16,-64 16,-116 290,-116 290,-64 16,-64"/>
</a>
</g>
</g>
<!-- dir_acedbc3c1c025eedca19641ef7b62820 -->
<g id="node1" class="node"><title>dir_acedbc3c1c025eedca19641ef7b62820</title>
<text text-anchor="middle" x="255" y="-87.5" font-family="Helvetica,sans-Serif" font-size="10.00">gemm</text>
</g>
<!-- dir_214608ef36d61442cb2b0c1c4e9a7def -->
<g id="node4" class="node"><title>dir_214608ef36d61442cb2b0c1c4e9a7def</title>
<g id="a_node4"><a xlink:href="dir_214608ef36d61442cb2b0c1c4e9a7def.xhtml" target="_top" xlink:title="arm_compute">
<polygon fill="white" stroke="red" points="221,-36 137,-36 137,-0 221,-0 221,-36"/>
<text text-anchor="middle" x="179" y="-15.5" font-family="Helvetica,sans-Serif" font-size="10.00">arm_compute</text>
</a>
</g>
</g>
<!-- dir_acedbc3c1c025eedca19641ef7b62820&#45;&gt;dir_214608ef36d61442cb2b0c1c4e9a7def -->
<g id="edge2" class="edge"><title>dir_acedbc3c1c025eedca19641ef7b62820&#45;&gt;dir_214608ef36d61442cb2b0c1c4e9a7def</title>
<path fill="none" stroke="black" d="M236.213,-71.6966C226.826,-63.0503 215.316,-52.4486 205.087,-43.027"/>
<polygon fill="black" stroke="black" points="207.297,-40.3047 197.57,-36.1043 202.555,-45.4535 207.297,-40.3047"/>
<g id="a_edge2&#45;headlabel"><a xlink:href="dir_000061_000000.xhtml" target="_top" xlink:title="11">
<text text-anchor="middle" x="211.865" y="-38.1515" font-family="Helvetica,sans-Serif" font-size="10.00">11</text>
</a>
</g>
</g>
<!-- dir_e50a6baa24878773b1097a906405814a -->
<g id="node2" class="node"><title>dir_e50a6baa24878773b1097a906405814a</title>
<g id="a_node2"><a xlink:href="dir_e50a6baa24878773b1097a906405814a.xhtml" target="_top" xlink:title="reshaped">
<polygon fill="white" stroke="black" points="210,-108 148,-108 148,-72 210,-72 210,-108"/>
<text text-anchor="middle" x="179" y="-87.5" font-family="Helvetica,sans-Serif" font-size="10.00">reshaped</text>
</a>
</g>
</g>
<!-- dir_e50a6baa24878773b1097a906405814a&#45;&gt;dir_214608ef36d61442cb2b0c1c4e9a7def -->
<g id="edge1" class="edge"><title>dir_e50a6baa24878773b1097a906405814a&#45;&gt;dir_214608ef36d61442cb2b0c1c4e9a7def</title>
<path fill="none" stroke="black" d="M179,-71.6966C179,-63.9827 179,-54.7125 179,-46.1124"/>
<polygon fill="black" stroke="black" points="182.5,-46.1043 179,-36.1043 175.5,-46.1044 182.5,-46.1043"/>
<g id="a_edge1&#45;headlabel"><a xlink:href="dir_000062_000000.xhtml" target="_top" xlink:title="5">
<text text-anchor="middle" x="185.339" y="-47.199" font-family="Helvetica,sans-Serif" font-size="10.00">5</text>
</a>
</g>
</g>
<!-- dir_afe4835d9501312dff8cde2275a46453 -->
<g id="node3" class="node"><title>dir_afe4835d9501312dff8cde2275a46453</title>
<g id="a_node3"><a xlink:href="dir_afe4835d9501312dff8cde2275a46453.xhtml" target="_top" xlink:title="reshaped_only_rhs">
<polygon fill="white" stroke="black" points="130.5,-108 23.5,-108 23.5,-72 130.5,-72 130.5,-108"/>
<text text-anchor="middle" x="77" y="-87.5" font-family="Helvetica,sans-Serif" font-size="10.00">reshaped_only_rhs</text>
</a>
</g>
</g>
<!-- dir_afe4835d9501312dff8cde2275a46453&#45;&gt;dir_214608ef36d61442cb2b0c1c4e9a7def -->
<g id="edge3" class="edge"><title>dir_afe4835d9501312dff8cde2275a46453&#45;&gt;dir_214608ef36d61442cb2b0c1c4e9a7def</title>
<path fill="none" stroke="black" d="M101.952,-71.8761C115.042,-62.8931 131.26,-51.7625 145.436,-42.0341"/>
<polygon fill="black" stroke="black" points="147.687,-44.734 153.952,-36.1898 143.726,-38.9624 147.687,-44.734"/>
<g id="a_edge3&#45;headlabel"><a xlink:href="dir_000063_000000.xhtml" target="_top" xlink:title="5">
<text text-anchor="middle" x="146.33" y="-46.609" font-family="Helvetica,sans-Serif" font-size="10.00">5</text>
</a>
</g>
</g>
</g>
</svg>
