<?xml version="1.0" encoding="UTF-8" standalone="no"?>
<!DOCTYPE svg PUBLIC "-//W3C//DTD SVG 1.1//EN"
 "http://www.w3.org/Graphics/SVG/1.1/DTD/svg11.dtd">
<!-- Generated by graphviz version 2.38.0 (20140413.2041)
 -->
<!-- Title: arm_compute/core/NEON/wrapper Pages: 1 -->
<svg width="188pt" height="183pt"
 viewBox="0.00 0.00 188.00 183.00" xmlns="http://www.w3.org/2000/svg" xmlns:xlink="http://www.w3.org/1999/xlink">
<g id="graph0" class="graph" transform="scale(1 1) rotate(0) translate(4 179)">
<title>arm_compute/core/NEON/wrapper</title>
<polygon fill="white" stroke="none" points="-4,4 -4,-179 184,-179 184,4 -4,4"/>
<g id="clust1" class="cluster"><title>clusterdir_315f6cf1ec0b2df3ae747ff8286a19f5</title>
<g id="a_clust1"><a xlink:href="dir_315f6cf1ec0b2df3ae747ff8286a19f5.xhtml" target="_top" xlink:title="NEON">
<polygon fill="#ddddee" stroke="black" points="8,-8 8,-167 172,-167 172,-8 8,-8"/>
<text text-anchor="middle" x="90" y="-155" font-family="Helvetica,sans-Serif" font-size="10.00">NEON</text>
</a>
</g>
</g>
<g id="clust2" class="cluster"><title>clusterdir_9eca3c725728e372597fcd0d17c1ea0f</title>
<g id="a_clust2"><a xlink:href="dir_9eca3c725728e372597fcd0d17c1ea0f.xhtml" target="_top">
<polygon fill="#eeeeff" stroke="black" points="16,-16 16,-140 164,-140 164,-16 16,-16"/>
</a>
</g>
</g>
<!-- dir_9eca3c725728e372597fcd0d17c1ea0f -->
<g id="node1" class="node"><title>dir_9eca3c725728e372597fcd0d17c1ea0f</title>
<text text-anchor="middle" x="91" y="-111.5" font-family="Helvetica,sans-Serif" font-size="10.00">wrapper</text>
</g>
<!-- dir_36bd1941057d7130e210a25993eacc69 -->
<g id="node2" class="node"><title>dir_36bd1941057d7130e210a25993eacc69</title>
<g id="a_node2"><a xlink:href="dir_36bd1941057d7130e210a25993eacc69.xhtml" target="_top" xlink:title="intrinsics">
<polygon fill="white" stroke="black" points="83.5,-60 24.5,-60 24.5,-24 83.5,-24 83.5,-60"/>
<text text-anchor="middle" x="54" y="-39.5" font-family="Helvetica,sans-Serif" font-size="10.00">intrinsics</text>
</a>
</g>
</g>
<!-- dir_9eca3c725728e372597fcd0d17c1ea0f&#45;&gt;dir_36bd1941057d7130e210a25993eacc69 -->
<g id="edge1" class="edge"><title>dir_9eca3c725728e372597fcd0d17c1ea0f&#45;&gt;dir_36bd1941057d7130e210a25993eacc69</title>
<path fill="none" stroke="black" d="M81.8539,-95.6966C77.5974,-87.6436 72.4442,-77.8945 67.7336,-68.9824"/>
<polygon fill="black" stroke="black" points="70.8083,-67.3097 63.0409,-60.1043 64.6197,-70.5809 70.8083,-67.3097"/>
<g id="a_edge1&#45;headlabel"><a xlink:href="dir_000022_000023.xhtml" target="_top" xlink:title="1">
<text text-anchor="middle" x="74.9982" y="-66.6609" font-family="Helvetica,sans-Serif" font-size="10.00">1</text>
</a>
</g>
</g>
<!-- dir_d7904fb5f65e3f2b5fdfe3ffda98931c -->
<g id="node3" class="node"><title>dir_d7904fb5f65e3f2b5fdfe3ffda98931c</title>
<g id="a_node3"><a xlink:href="dir_d7904fb5f65e3f2b5fdfe3ffda98931c.xhtml" target="_top" xlink:title="scalar">
<polygon fill="white" stroke="black" points="156,-60 102,-60 102,-24 156,-24 156,-60"/>
<text text-anchor="middle" x="129" y="-39.5" font-family="Helvetica,sans-Serif" font-size="10.00">scalar</text>
</a>
</g>
</g>
<!-- dir_9eca3c725728e372597fcd0d17c1ea0f&#45;&gt;dir_d7904fb5f65e3f2b5fdfe3ffda98931c -->
<g id="edge2" class="edge"><title>dir_9eca3c725728e372597fcd0d17c1ea0f&#45;&gt;dir_d7904fb5f65e3f2b5fdfe3ffda98931c</title>
<path fill="none" stroke="black" d="M100.393,-95.6966C104.765,-87.6436 110.057,-77.8945 114.895,-68.9824"/>
<polygon fill="black" stroke="black" points="118.02,-70.5627 119.715,-60.1043 111.868,-67.223 118.02,-70.5627"/>
<g id="a_edge2&#45;headlabel"><a xlink:href="dir_000022_000026.xhtml" target="_top" xlink:title="1">
<text text-anchor="middle" x="118.8" y="-72.5764" font-family="Helvetica,sans-Serif" font-size="10.00">1</text>
</a>
</g>
</g>
</g>
</svg>
