<?xml version="1.0" encoding="UTF-8" standalone="no"?>
<!DOCTYPE svg PUBLIC "-//W3C//DTD SVG 1.1//EN"
 "http://www.w3.org/Graphics/SVG/1.1/DTD/svg11.dtd">
<!-- Generated by graphviz version 2.38.0 (20140413.2041)
 -->
<!-- Title: src/core/GLES_COMPUTE Pages: 1 -->
<svg width="224pt" height="231pt"
 viewBox="0.00 0.00 224.00 231.00" xmlns="http://www.w3.org/2000/svg" xmlns:xlink="http://www.w3.org/1999/xlink">
<g id="graph0" class="graph" transform="scale(1 1) rotate(0) translate(4 227)">
<title>src/core/GLES_COMPUTE</title>
<polygon fill="white" stroke="none" points="-4,4 -4,-227 220,-227 220,4 -4,4"/>
<g id="clust1" class="cluster"><title>clusterdir_aebb8dcc11953d78e620bbef0b9e2183</title>
<g id="a_clust1"><a xlink:href="dir_aebb8dcc11953d78e620bbef0b9e2183.xhtml" target="_top" xlink:title="core">
<polygon fill="#ddddee" stroke="black" points="8,-128 8,-215 208,-215 208,-128 8,-128"/>
<text text-anchor="middle" x="108" y="-203" font-family="Helvetica,sans-Serif" font-size="10.00">core</text>
</a>
</g>
</g>
<g id="clust2" class="cluster"><title>clusterdir_88eff89ba7e837209a0b9693ad92651e</title>
<g id="a_clust2"><a xlink:href="dir_88eff89ba7e837209a0b9693ad92651e.xhtml" target="_top">
<polygon fill="#eeeeff" stroke="black" points="16,-136 16,-188 200,-188 200,-136 16,-136"/>
</a>
</g>
</g>
<!-- dir_88eff89ba7e837209a0b9693ad92651e -->
<g id="node1" class="node"><title>dir_88eff89ba7e837209a0b9693ad92651e</title>
<text text-anchor="middle" x="72" y="-159.5" font-family="Helvetica,sans-Serif" font-size="10.00">GLES_COMPUTE</text>
</g>
<!-- dir_214608ef36d61442cb2b0c1c4e9a7def -->
<g id="node3" class="node"><title>dir_214608ef36d61442cb2b0c1c4e9a7def</title>
<g id="a_node3"><a xlink:href="dir_214608ef36d61442cb2b0c1c4e9a7def.xhtml" target="_top" xlink:title="arm_compute">
<polygon fill="white" stroke="red" points="137,-108 53,-108 53,-72 137,-72 137,-108"/>
<text text-anchor="middle" x="95" y="-87.5" font-family="Helvetica,sans-Serif" font-size="10.00">arm_compute</text>
</a>
</g>
</g>
<!-- dir_88eff89ba7e837209a0b9693ad92651e&#45;&gt;dir_214608ef36d61442cb2b0c1c4e9a7def -->
<g id="edge1" class="edge"><title>dir_88eff89ba7e837209a0b9693ad92651e&#45;&gt;dir_214608ef36d61442cb2b0c1c4e9a7def</title>
<path fill="none" stroke="black" d="M77.6854,-143.697C80.2478,-135.898 83.3329,-126.509 86.1847,-117.829"/>
<polygon fill="black" stroke="black" points="89.5835,-118.697 89.38,-108.104 82.9333,-116.512 89.5835,-118.697"/>
<g id="a_edge1&#45;headlabel"><a xlink:href="dir_000067_000000.xhtml" target="_top" xlink:title="295">
<text text-anchor="middle" x="91.1589" y="-120.498" font-family="Helvetica,sans-Serif" font-size="10.00">295</text>
</a>
</g>
</g>
<!-- dir_97061975172b7fe0368651cfbdc4a700 -->
<g id="node2" class="node"><title>dir_97061975172b7fe0368651cfbdc4a700</title>
<g id="a_node2"><a xlink:href="dir_97061975172b7fe0368651cfbdc4a700.xhtml" target="_top" xlink:title="kernels">
<polygon fill="white" stroke="black" points="192,-180 138,-180 138,-144 192,-144 192,-180"/>
<text text-anchor="middle" x="165" y="-159.5" font-family="Helvetica,sans-Serif" font-size="10.00">kernels</text>
</a>
</g>
</g>
<!-- dir_97061975172b7fe0368651cfbdc4a700&#45;&gt;dir_214608ef36d61442cb2b0c1c4e9a7def -->
<g id="edge2" class="edge"><title>dir_97061975172b7fe0368651cfbdc4a700&#45;&gt;dir_214608ef36d61442cb2b0c1c4e9a7def</title>
<path fill="none" stroke="black" d="M147.697,-143.697C139.135,-135.135 128.656,-124.656 119.304,-115.304"/>
<polygon fill="black" stroke="black" points="121.65,-112.701 112.104,-108.104 116.701,-117.65 121.65,-112.701"/>
<g id="a_edge2&#45;headlabel"><a xlink:href="dir_000068_000000.xhtml" target="_top" xlink:title="264">
<text text-anchor="middle" x="126.2" y="-110.735" font-family="Helvetica,sans-Serif" font-size="10.00">264</text>
</a>
</g>
</g>
<!-- dir_5815af820a9cc9481f1d0990a0d60286 -->
<g id="node4" class="node"><title>dir_5815af820a9cc9481f1d0990a0d60286</title>
<g id="a_node4"><a xlink:href="dir_5815af820a9cc9481f1d0990a0d60286.xhtml" target="_top" xlink:title="support">
<polygon fill="none" stroke="black" points="157,-36 103,-36 103,-0 157,-0 157,-36"/>
<text text-anchor="middle" x="130" y="-15.5" font-family="Helvetica,sans-Serif" font-size="10.00">support</text>
</a>
</g>
</g>
<!-- dir_97061975172b7fe0368651cfbdc4a700&#45;&gt;dir_5815af820a9cc9481f1d0990a0d60286 -->
<g id="edge3" class="edge"><title>dir_97061975172b7fe0368651cfbdc4a700&#45;&gt;dir_5815af820a9cc9481f1d0990a0d60286</title>
<path fill="none" stroke="black" d="M161.775,-143.84C158.291,-125.844 152.376,-96.7884 146,-72 143.787,-63.3969 141.087,-54.0977 138.539,-45.7264"/>
<polygon fill="black" stroke="black" points="141.854,-44.5999 135.55,-36.0845 135.168,-46.6725 141.854,-44.5999"/>
<g id="a_edge3&#45;headlabel"><a xlink:href="dir_000068_000141.xhtml" target="_top" xlink:title="9">
<text text-anchor="middle" x="145.63" y="-44.6928" font-family="Helvetica,sans-Serif" font-size="10.00">9</text>
</a>
</g>
</g>
<!-- dir_214608ef36d61442cb2b0c1c4e9a7def&#45;&gt;dir_5815af820a9cc9481f1d0990a0d60286 -->
<g id="edge4" class="edge"><title>dir_214608ef36d61442cb2b0c1c4e9a7def&#45;&gt;dir_5815af820a9cc9481f1d0990a0d60286</title>
<path fill="none" stroke="black" d="M103.652,-71.6966C107.636,-63.7284 112.45,-54.0995 116.868,-45.2641"/>
<polygon fill="black" stroke="black" points="120.106,-46.6139 121.448,-36.1043 113.845,-43.4833 120.106,-46.6139"/>
<g id="a_edge4&#45;headlabel"><a xlink:href="dir_000000_000141.xhtml" target="_top" xlink:title="22">
<text text-anchor="middle" x="121.038" y="-48.5987" font-family="Helvetica,sans-Serif" font-size="10.00">22</text>
</a>
</g>
</g>
</g>
</svg>
