<?xml version="1.0" encoding="UTF-8" standalone="no"?>
<!DOCTYPE svg PUBLIC "-//W3C//DTD SVG 1.1//EN"
 "http://www.w3.org/Graphics/SVG/1.1/DTD/svg11.dtd">
<!-- Generated by graphviz version 2.38.0 (20140413.2041)
 -->
<!-- Title: arm_compute/runtime/NEON/functions Pages: 1 -->
<svg width="288pt" height="231pt"
 viewBox="0.00 0.00 287.50 231.00" xmlns="http://www.w3.org/2000/svg" xmlns:xlink="http://www.w3.org/1999/xlink">
<g id="graph0" class="graph" transform="scale(1 1) rotate(0) translate(4 227)">
<title>arm_compute/runtime/NEON/functions</title>
<polygon fill="white" stroke="none" points="-4,4 -4,-227 283.5,-227 283.5,4 -4,4"/>
<g id="clust1" class="cluster"><title>clusterdir_65e289039e1347f87d412b0a1b1a312c</title>
<g id="a_clust1"><a xlink:href="dir_65e289039e1347f87d412b0a1b1a312c.xhtml" target="_top" xlink:title="NEON">
<polygon fill="#ddddee" stroke="black" points="8,-56 8,-215 102,-215 102,-56 8,-56"/>
<text text-anchor="middle" x="55" y="-203" font-family="Helvetica,sans-Serif" font-size="10.00">NEON</text>
</a>
</g>
</g>
<g id="clust2" class="cluster"><title>clusterdir_345bd7154d1542d1e03fd2836959a19d</title>
<g id="a_clust2"><a xlink:href="dir_345bd7154d1542d1e03fd2836959a19d.xhtml" target="_top">
<polygon fill="#eeeeff" stroke="black" points="16,-64 16,-188 94,-188 94,-64 16,-64"/>
</a>
</g>
</g>
<!-- dir_345bd7154d1542d1e03fd2836959a19d -->
<g id="node1" class="node"><title>dir_345bd7154d1542d1e03fd2836959a19d</title>
<text text-anchor="middle" x="56" y="-159.5" font-family="Helvetica,sans-Serif" font-size="10.00">functions</text>
</g>
<!-- dir_5cc15eabebeaf52b5630c3e40d7a7661 -->
<g id="node2" class="node"><title>dir_5cc15eabebeaf52b5630c3e40d7a7661</title>
<g id="a_node2"><a xlink:href="dir_5cc15eabebeaf52b5630c3e40d7a7661.xhtml" target="_top" xlink:title="assembly">
<polygon fill="white" stroke="black" points="86,-108 24,-108 24,-72 86,-72 86,-108"/>
<text text-anchor="middle" x="55" y="-87.5" font-family="Helvetica,sans-Serif" font-size="10.00">assembly</text>
</a>
</g>
</g>
<!-- dir_345bd7154d1542d1e03fd2836959a19d&#45;&gt;dir_5cc15eabebeaf52b5630c3e40d7a7661 -->
<g id="edge3" class="edge"><title>dir_345bd7154d1542d1e03fd2836959a19d&#45;&gt;dir_5cc15eabebeaf52b5630c3e40d7a7661</title>
<path fill="none" stroke="black" d="M55.7528,-143.697C55.6426,-135.983 55.5102,-126.712 55.3873,-118.112"/>
<polygon fill="black" stroke="black" points="58.8869,-118.053 55.2443,-108.104 51.8876,-118.153 58.8869,-118.053"/>
<g id="a_edge3&#45;headlabel"><a xlink:href="dir_000054_000055.xhtml" target="_top" xlink:title="1">
<text text-anchor="middle" x="61.7772" y="-119.107" font-family="Helvetica,sans-Serif" font-size="10.00">1</text>
</a>
</g>
</g>
<!-- dir_b496024afd63bafbf4e8da80d7d3a81a -->
<g id="node3" class="node"><title>dir_b496024afd63bafbf4e8da80d7d3a81a</title>
<g id="a_node3"><a xlink:href="dir_b496024afd63bafbf4e8da80d7d3a81a.xhtml" target="_top" xlink:title="CPP">
<polygon fill="white" stroke="red" points="164,-108 110,-108 110,-72 164,-72 164,-108"/>
<text text-anchor="middle" x="137" y="-87.5" font-family="Helvetica,sans-Serif" font-size="10.00">CPP</text>
</a>
</g>
</g>
<!-- dir_345bd7154d1542d1e03fd2836959a19d&#45;&gt;dir_b496024afd63bafbf4e8da80d7d3a81a -->
<g id="edge1" class="edge"><title>dir_345bd7154d1542d1e03fd2836959a19d&#45;&gt;dir_b496024afd63bafbf4e8da80d7d3a81a</title>
<path fill="none" stroke="black" d="M76.0225,-143.697C86.1256,-134.965 98.536,-124.24 109.518,-114.75"/>
<polygon fill="black" stroke="black" points="111.93,-117.291 117.208,-108.104 107.353,-111.995 111.93,-117.291"/>
<g id="a_edge1&#45;headlabel"><a xlink:href="dir_000054_000049.xhtml" target="_top" xlink:title="2">
<text text-anchor="middle" x="111.067" y="-119.29" font-family="Helvetica,sans-Serif" font-size="10.00">2</text>
</a>
</g>
</g>
<!-- dir_1fb090f0c6070330bfaccc4236d3ca0d -->
<g id="node4" class="node"><title>dir_1fb090f0c6070330bfaccc4236d3ca0d</title>
<g id="a_node4"><a xlink:href="dir_1fb090f0c6070330bfaccc4236d3ca0d.xhtml" target="_top" xlink:title="core">
<polygon fill="white" stroke="red" points="219,-36 165,-36 165,-0 219,-0 219,-36"/>
<text text-anchor="middle" x="192" y="-15.5" font-family="Helvetica,sans-Serif" font-size="10.00">core</text>
</a>
</g>
</g>
<!-- dir_345bd7154d1542d1e03fd2836959a19d&#45;&gt;dir_1fb090f0c6070330bfaccc4236d3ca0d -->
<g id="edge2" class="edge"><title>dir_345bd7154d1542d1e03fd2836959a19d&#45;&gt;dir_1fb090f0c6070330bfaccc4236d3ca0d</title>
<path fill="none" stroke="black" d="M86.1424,-155.332C113.004,-148.672 151.323,-134.922 173,-108 186.897,-90.74 191.27,-65.6783 192.383,-46.5442"/>
<polygon fill="black" stroke="black" points="195.888,-46.4459 192.708,-36.3396 188.891,-46.2233 195.888,-46.4459"/>
<g id="a_edge2&#45;headlabel"><a xlink:href="dir_000054_000001.xhtml" target="_top" xlink:title="212">
<text text-anchor="middle" x="198.611" y="-47.6289" font-family="Helvetica,sans-Serif" font-size="10.00">212</text>
</a>
</g>
</g>
<!-- dir_b9621ae687ab229876c54f8c2df20e15 -->
<g id="node5" class="node"><title>dir_b9621ae687ab229876c54f8c2df20e15</title>
<g id="a_node5"><a xlink:href="dir_b9621ae687ab229876c54f8c2df20e15.xhtml" target="_top" xlink:title="common">
<polygon fill="none" stroke="black" points="279.5,-108 220.5,-108 220.5,-72 279.5,-72 279.5,-108"/>
<text text-anchor="middle" x="250" y="-87.5" font-family="Helvetica,sans-Serif" font-size="10.00">common</text>
</a>
</g>
</g>
<!-- dir_345bd7154d1542d1e03fd2836959a19d&#45;&gt;dir_b9621ae687ab229876c54f8c2df20e15 -->
<g id="edge4" class="edge"><title>dir_345bd7154d1542d1e03fd2836959a19d&#45;&gt;dir_b9621ae687ab229876c54f8c2df20e15</title>
<path fill="none" stroke="black" d="M86.2599,-150.597C116.621,-140.092 164.681,-123.278 206,-108 207.584,-107.414 209.199,-106.812 210.828,-106.201"/>
<polygon fill="black" stroke="black" points="212.113,-109.457 220.222,-102.64 209.631,-102.912 212.113,-109.457"/>
<g id="a_edge4&#45;headlabel"><a xlink:href="dir_000054_000048.xhtml" target="_top" xlink:title="1">
<text text-anchor="middle" x="209.758" y="-110.887" font-family="Helvetica,sans-Serif" font-size="10.00">1</text>
</a>
</g>
</g>
<!-- dir_b496024afd63bafbf4e8da80d7d3a81a&#45;&gt;dir_1fb090f0c6070330bfaccc4236d3ca0d -->
<g id="edge5" class="edge"><title>dir_b496024afd63bafbf4e8da80d7d3a81a&#45;&gt;dir_1fb090f0c6070330bfaccc4236d3ca0d</title>
<path fill="none" stroke="black" d="M150.596,-71.6966C157.123,-63.3893 165.068,-53.2771 172.247,-44.1407"/>
<polygon fill="black" stroke="black" points="175.135,-46.1299 178.561,-36.1043 169.631,-41.8051 175.135,-46.1299"/>
<g id="a_edge5&#45;headlabel"><a xlink:href="dir_000049_000001.xhtml" target="_top" xlink:title="6">
<text text-anchor="middle" x="175.147" y="-48.2106" font-family="Helvetica,sans-Serif" font-size="10.00">6</text>
</a>
</g>
</g>
<!-- dir_b9621ae687ab229876c54f8c2df20e15&#45;&gt;dir_1fb090f0c6070330bfaccc4236d3ca0d -->
<g id="edge6" class="edge"><title>dir_b9621ae687ab229876c54f8c2df20e15&#45;&gt;dir_1fb090f0c6070330bfaccc4236d3ca0d</title>
<path fill="none" stroke="black" d="M235.663,-71.6966C228.709,-63.3046 220.23,-53.0705 212.599,-43.8613"/>
<polygon fill="black" stroke="black" points="215.247,-41.5715 206.172,-36.1043 209.857,-46.0376 215.247,-41.5715"/>
<g id="a_edge6&#45;headlabel"><a xlink:href="dir_000048_000001.xhtml" target="_top" xlink:title="3">
<text text-anchor="middle" x="219.727" y="-40.0279" font-family="Helvetica,sans-Serif" font-size="10.00">3</text>
</a>
</g>
</g>
</g>
</svg>
