<?xml version="1.0" encoding="UTF-8" standalone="no"?>
<!DOCTYPE svg PUBLIC "-//W3C//DTD SVG 1.1//EN"
 "http://www.w3.org/Graphics/SVG/1.1/DTD/svg11.dtd">
<!-- Generated by graphviz version 2.38.0 (20140413.2041)
 -->
<!-- Title: Graphical Class Hierarchy Pages: 1 -->
<svg width="444pt" height="601pt"
 viewBox="0.00 0.00 444.00 600.50" xmlns="http://www.w3.org/2000/svg" xmlns:xlink="http://www.w3.org/1999/xlink">
<g id="graph0" class="graph" transform="scale(1 1) rotate(0) translate(4 596.5)">
<title>Graphical Class Hierarchy</title>
<polygon fill="white" stroke="none" points="-4,4 -4,-596.5 440,-596.5 440,4 -4,4"/>
<!-- Node0 -->
<g id="node1" class="node"><title>Node0</title>
<g id="a_node1"><a xlink:href="classarm__compute_1_1utils_1_1_option.xhtml" target="_top" xlink:title="Abstract base class for a command line option.">
<polygon fill="white" stroke="black" points="0,-281 0,-300 48,-300 48,-281 0,-281"/>
<text text-anchor="middle" x="24" y="-288" font-family="Helvetica,sans-Serif" font-size="10.00">Option</text>
</a>
</g>
</g>
<!-- Node1 -->
<g id="node2" class="node"><title>Node1</title>
<g id="a_node2"><a xlink:href="classarm__compute_1_1utils_1_1_enum_list_option.xhtml" target="_top" xlink:title="Implementation of an option that accepts any number of values from a fixed set.">
<polygon fill="white" stroke="black" points="104.5,-573 104.5,-592 224.5,-592 224.5,-573 104.5,-573"/>
<text text-anchor="middle" x="164.5" y="-580" font-family="Helvetica,sans-Serif" font-size="10.00">EnumListOption&lt; T &gt;</text>
</a>
</g>
</g>
<!-- Node0&#45;&gt;Node1 -->
<g id="edge1" class="edge"><title>Node0&#45;&gt;Node1</title>
<path fill="none" stroke="midnightblue" d="M26.5791,-310.226C31.4965,-366.67 48.3865,-527.103 84,-563.5 89.6571,-569.281 96.7363,-573.43 104.324,-576.387"/>
<polygon fill="midnightblue" stroke="midnightblue" points="30.0547,-309.788 25.731,-300.116 23.0792,-310.373 30.0547,-309.788"/>
</g>
<!-- Node2 -->
<g id="node3" class="node"><title>Node2</title>
<g id="a_node3"><a xlink:href="classarm__compute_1_1utils_1_1_list_option.xhtml" target="_top" xlink:title="Implementation of an option that accepts any number of values.">
<polygon fill="white" stroke="black" points="118.5,-535 118.5,-554 210.5,-554 210.5,-535 118.5,-535"/>
<text text-anchor="middle" x="164.5" y="-542" font-family="Helvetica,sans-Serif" font-size="10.00">ListOption&lt; T &gt;</text>
</a>
</g>
</g>
<!-- Node0&#45;&gt;Node2 -->
<g id="edge2" class="edge"><title>Node0&#45;&gt;Node2</title>
<path fill="none" stroke="midnightblue" d="M27.3105,-310.116C33.6872,-360.926 53.131,-494.981 84,-525.5 93.1831,-534.579 105.883,-539.604 118.439,-542.311"/>
<polygon fill="midnightblue" stroke="midnightblue" points="30.7736,-309.6 26.0886,-300.097 23.8251,-310.448 30.7736,-309.6"/>
</g>
<!-- Node3 -->
<g id="node4" class="node"><title>Node3</title>
<g id="a_node4"><a xlink:href="classarm__compute_1_1utils_1_1_simple_option.xhtml" target="_top" xlink:title="Implementation of an option that accepts a single value.">
<polygon fill="white" stroke="black" points="110,-497 110,-516 219,-516 219,-497 110,-497"/>
<text text-anchor="middle" x="164.5" y="-504" font-family="Helvetica,sans-Serif" font-size="10.00">SimpleOption&lt; T &gt;</text>
</a>
</g>
</g>
<!-- Node0&#45;&gt;Node3 -->
<g id="edge3" class="edge"><title>Node0&#45;&gt;Node3</title>
<path fill="none" stroke="midnightblue" d="M24.8325,-310.463C25.6396,-350.233 33.3535,-439.632 84,-487.5 91.1162,-494.226 100.172,-498.706 109.604,-501.663"/>
<polygon fill="midnightblue" stroke="midnightblue" points="28.3323,-310.404 24.7594,-300.43 21.3325,-310.455 28.3323,-310.404"/>
</g>
<!-- Node5 -->
<g id="node6" class="node"><title>Node5</title>
<g id="a_node6"><a xlink:href="classarm__compute_1_1utils_1_1_enum_list_option.xhtml" target="_top" xlink:title=" ">
<polygon fill="white" stroke="black" points="84,-447.5 84,-477.5 245,-477.5 245,-447.5 84,-447.5"/>
<text text-anchor="start" x="92" y="-465.5" font-family="Helvetica,sans-Serif" font-size="10.00">EnumListOption&lt; Instruments</text>
<text text-anchor="middle" x="164.5" y="-454.5" font-family="Helvetica,sans-Serif" font-size="10.00">Description &gt;</text>
</a>
</g>
</g>
<!-- Node0&#45;&gt;Node5 -->
<g id="edge5" class="edge"><title>Node0&#45;&gt;Node5</title>
<path fill="none" stroke="midnightblue" d="M27.376,-310.227C32.2336,-341.854 46.2398,-403.861 84,-438.5 87.7184,-441.911 91.9061,-444.838 96.3653,-447.35"/>
<polygon fill="midnightblue" stroke="midnightblue" points="30.8068,-309.484 25.9732,-300.056 23.8724,-310.441 30.8068,-309.484"/>
</g>
<!-- Node6 -->
<g id="node7" class="node"><title>Node6</title>
<g id="a_node7"><a xlink:href="classarm__compute_1_1utils_1_1_simple_option.xhtml" target="_top" xlink:title=" ">
<polygon fill="white" stroke="black" points="84.5,-398.5 84.5,-428.5 244.5,-428.5 244.5,-398.5 84.5,-398.5"/>
<text text-anchor="start" x="92.5" y="-416.5" font-family="Helvetica,sans-Serif" font-size="10.00">SimpleOption&lt; arm_compute</text>
<text text-anchor="middle" x="164.5" y="-405.5" font-family="Helvetica,sans-Serif" font-size="10.00">::CLTunerMode &gt;</text>
</a>
</g>
</g>
<!-- Node0&#45;&gt;Node6 -->
<g id="edge6" class="edge"><title>Node0&#45;&gt;Node6</title>
<path fill="none" stroke="midnightblue" d="M31.548,-309.736C40.136,-332.117 57.3231,-368.656 84,-389.5 88.4306,-392.962 93.3564,-395.926 98.5236,-398.464"/>
<polygon fill="midnightblue" stroke="midnightblue" points="34.8185,-308.488 28.1113,-300.287 28.24,-310.881 34.8185,-308.488"/>
</g>
<!-- Node7 -->
<g id="node8" class="node"><title>Node7</title>
<g id="a_node8"><a xlink:href="classarm__compute_1_1utils_1_1_simple_option.xhtml" target="_top" xlink:title=" ">
<polygon fill="white" stroke="black" points="84.5,-349.5 84.5,-379.5 244.5,-379.5 244.5,-349.5 84.5,-349.5"/>
<text text-anchor="start" x="92.5" y="-367.5" font-family="Helvetica,sans-Serif" font-size="10.00">SimpleOption&lt; arm_compute</text>
<text text-anchor="middle" x="164.5" y="-356.5" font-family="Helvetica,sans-Serif" font-size="10.00">::DataLayout &gt;</text>
</a>
</g>
</g>
<!-- Node0&#45;&gt;Node7 -->
<g id="edge7" class="edge"><title>Node0&#45;&gt;Node7</title>
<path fill="none" stroke="midnightblue" d="M41.3641,-307.603C52.4969,-318.372 68.0545,-331.828 84,-340.5 90.2061,-343.875 96.949,-346.837 103.796,-349.421"/>
<polygon fill="midnightblue" stroke="midnightblue" points="43.6455,-304.934 34.0975,-300.342 38.698,-309.886 43.6455,-304.934"/>
</g>
<!-- Node9 -->
<g id="node10" class="node"><title>Node9</title>
<g id="a_node10"><a xlink:href="classarm__compute_1_1utils_1_1_simple_option.xhtml" target="_top" xlink:title=" ">
<polygon fill="white" stroke="black" points="84.5,-300.5 84.5,-330.5 244.5,-330.5 244.5,-300.5 84.5,-300.5"/>
<text text-anchor="start" x="92.5" y="-318.5" font-family="Helvetica,sans-Serif" font-size="10.00">SimpleOption&lt; arm_compute</text>
<text text-anchor="middle" x="164.5" y="-307.5" font-family="Helvetica,sans-Serif" font-size="10.00">::DataType &gt;</text>
</a>
</g>
</g>
<!-- Node0&#45;&gt;Node9 -->
<g id="edge9" class="edge"><title>Node0&#45;&gt;Node9</title>
<path fill="none" stroke="midnightblue" d="M58.1731,-296.488C66.2098,-297.939 75.146,-299.552 84.3196,-301.208"/>
<polygon fill="midnightblue" stroke="midnightblue" points="58.6445,-293.017 48.1818,-294.684 57.401,-299.905 58.6445,-293.017"/>
</g>
<!-- Node11 -->
<g id="node12" class="node"><title>Node11</title>
<g id="a_node12"><a xlink:href="classarm__compute_1_1utils_1_1_simple_option.xhtml" target="_top" xlink:title=" ">
<polygon fill="white" stroke="black" points="84.5,-251.5 84.5,-281.5 244.5,-281.5 244.5,-251.5 84.5,-251.5"/>
<text text-anchor="start" x="92.5" y="-269.5" font-family="Helvetica,sans-Serif" font-size="10.00">SimpleOption&lt; arm_compute</text>
<text text-anchor="middle" x="164.5" y="-258.5" font-family="Helvetica,sans-Serif" font-size="10.00">::graph::Target &gt;</text>
</a>
</g>
</g>
<!-- Node0&#45;&gt;Node11 -->
<g id="edge11" class="edge"><title>Node0&#45;&gt;Node11</title>
<path fill="none" stroke="midnightblue" d="M58.1731,-284.752C66.2098,-283.359 75.146,-281.81 84.3196,-280.221"/>
<polygon fill="midnightblue" stroke="midnightblue" points="57.4373,-281.327 48.1818,-286.483 58.6326,-288.224 57.4373,-281.327"/>
</g>
<!-- Node13 -->
<g id="node14" class="node"><title>Node13</title>
<g id="a_node14"><a xlink:href="classarm__compute_1_1utils_1_1_simple_option.xhtml" target="_top" xlink:title=" ">
<polygon fill="white" stroke="black" points="102.5,-213 102.5,-232 226.5,-232 226.5,-213 102.5,-213"/>
<text text-anchor="middle" x="164.5" y="-220" font-family="Helvetica,sans-Serif" font-size="10.00">SimpleOption&lt; bool &gt;</text>
</a>
</g>
</g>
<!-- Node0&#45;&gt;Node13 -->
<g id="edge13" class="edge"><title>Node0&#45;&gt;Node13</title>
<path fill="none" stroke="midnightblue" d="M41.3557,-273.865C52.485,-263.436 68.0419,-250.5 84,-242.5 92.5243,-238.227 102.032,-234.82 111.425,-232.119"/>
<polygon fill="midnightblue" stroke="midnightblue" points="38.8345,-271.434 34.0919,-280.908 43.7075,-276.459 38.8345,-271.434"/>
</g>
<!-- Node15 -->
<g id="node16" class="node"><title>Node15</title>
<g id="a_node16"><a xlink:href="classarm__compute_1_1utils_1_1_simple_option.xhtml" target="_top" xlink:title=" ">
<polygon fill="white" stroke="black" points="106.5,-175 106.5,-194 222.5,-194 222.5,-175 106.5,-175"/>
<text text-anchor="middle" x="164.5" y="-182" font-family="Helvetica,sans-Serif" font-size="10.00">SimpleOption&lt; int &gt;</text>
</a>
</g>
</g>
<!-- Node0&#45;&gt;Node15 -->
<g id="edge15" class="edge"><title>Node0&#45;&gt;Node15</title>
<path fill="none" stroke="midnightblue" d="M32.7838,-271.589C42.0154,-251.568 59.3255,-220.553 84,-203.5 90.6542,-198.901 98.2865,-195.408 106.131,-192.757"/>
<polygon fill="midnightblue" stroke="midnightblue" points="29.501,-270.361 28.6964,-280.925 35.9133,-273.168 29.501,-270.361"/>
</g>
<!-- Node16 -->
<g id="node17" class="node"><title>Node16</title>
<g id="a_node17"><a xlink:href="classarm__compute_1_1utils_1_1_simple_option.xhtml" target="_top" xlink:title=" ">
<polygon fill="white" stroke="black" points="87,-137 87,-156 242,-156 242,-137 87,-137"/>
<text text-anchor="middle" x="164.5" y="-144" font-family="Helvetica,sans-Serif" font-size="10.00">SimpleOption&lt; LogFormat &gt;</text>
</a>
</g>
</g>
<!-- Node0&#45;&gt;Node16 -->
<g id="edge16" class="edge"><title>Node0&#45;&gt;Node16</title>
<path fill="none" stroke="midnightblue" d="M28.7215,-270.866C35.046,-243.073 50.6033,-192.628 84,-165.5 88.7363,-161.653 94.1245,-158.562 99.812,-156.082"/>
<polygon fill="midnightblue" stroke="midnightblue" points="25.2352,-270.438 26.6107,-280.943 32.0865,-271.873 25.2352,-270.438"/>
</g>
<!-- Node18 -->
<g id="node19" class="node"><title>Node18</title>
<g id="a_node19"><a xlink:href="classarm__compute_1_1utils_1_1_simple_option.xhtml" target="_top" xlink:title=" ">
<polygon fill="white" stroke="black" points="91.5,-99 91.5,-118 237.5,-118 237.5,-99 91.5,-99"/>
<text text-anchor="middle" x="164.5" y="-106" font-family="Helvetica,sans-Serif" font-size="10.00">SimpleOption&lt; LogLevel &gt;</text>
</a>
</g>
</g>
<!-- Node0&#45;&gt;Node18 -->
<g id="edge18" class="edge"><title>Node0&#45;&gt;Node18</title>
<path fill="none" stroke="midnightblue" d="M26.3088,-270.456C29.6779,-235.933 41.6519,-165.326 84,-127.5 88.2334,-123.719 93.0849,-120.655 98.2578,-118.177"/>
<polygon fill="midnightblue" stroke="midnightblue" points="22.7994,-270.427 25.4646,-280.681 29.7756,-271.003 22.7994,-270.427"/>
</g>
<!-- Node20 -->
<g id="node21" class="node"><title>Node20</title>
<g id="a_node21"><a xlink:href="classarm__compute_1_1utils_1_1_simple_option.xhtml" target="_top" xlink:title=" ">
<polygon fill="white" stroke="black" points="108,-49.5 108,-79.5 221,-79.5 221,-49.5 108,-49.5"/>
<text text-anchor="start" x="116" y="-67.5" font-family="Helvetica,sans-Serif" font-size="10.00">SimpleOption&lt; std::</text>
<text text-anchor="middle" x="164.5" y="-56.5" font-family="Helvetica,sans-Serif" font-size="10.00">string &gt;</text>
</a>
</g>
</g>
<!-- Node0&#45;&gt;Node20 -->
<g id="edge20" class="edge"><title>Node0&#45;&gt;Node20</title>
<path fill="none" stroke="midnightblue" d="M24.9825,-270.744C26.0422,-230.881 34.1622,-140.302 84,-89.5 90.586,-82.7866 98.9527,-77.8707 107.771,-74.2722"/>
<polygon fill="midnightblue" stroke="midnightblue" points="21.4797,-270.932 24.8417,-280.98 28.479,-271.029 21.4797,-270.932"/>
</g>
<!-- Node21 -->
<g id="node22" class="node"><title>Node21</title>
<g id="a_node22"><a xlink:href="classarm__compute_1_1utils_1_1_simple_option.xhtml" target="_top" xlink:title=" ">
<polygon fill="white" stroke="black" points="96.5,-0.5 96.5,-30.5 232.5,-30.5 232.5,-0.5 96.5,-0.5"/>
<text text-anchor="start" x="104.5" y="-18.5" font-family="Helvetica,sans-Serif" font-size="10.00">SimpleOption&lt; unsigned</text>
<text text-anchor="middle" x="164.5" y="-7.5" font-family="Helvetica,sans-Serif" font-size="10.00"> int &gt;</text>
</a>
</g>
</g>
<!-- Node0&#45;&gt;Node21 -->
<g id="edge21" class="edge"><title>Node0&#45;&gt;Node21</title>
<path fill="none" stroke="midnightblue" d="M27.1359,-270.825C33.2543,-217.94 52.4594,-74.4285 84,-40.5 87.5464,-36.6851 91.6675,-33.4488 96.1315,-30.7038"/>
<polygon fill="midnightblue" stroke="midnightblue" points="23.6398,-270.595 26.0007,-280.924 30.5959,-271.377 23.6398,-270.595"/>
</g>
<!-- Node4 -->
<g id="node5" class="node"><title>Node4</title>
<g id="a_node5"><a xlink:href="classarm__compute_1_1utils_1_1_enum_option.xhtml" target="_top" xlink:title="Implementation of a simple option that accepts a value from a fixed set.">
<polygon fill="white" stroke="black" points="306.5,-497 306.5,-516 410.5,-516 410.5,-497 306.5,-497"/>
<text text-anchor="middle" x="358.5" y="-504" font-family="Helvetica,sans-Serif" font-size="10.00">EnumOption&lt; T &gt;</text>
</a>
</g>
</g>
<!-- Node3&#45;&gt;Node4 -->
<g id="edge4" class="edge"><title>Node3&#45;&gt;Node4</title>
<path fill="none" stroke="midnightblue" d="M229.382,-506.5C254.428,-506.5 282.771,-506.5 306.419,-506.5"/>
<polygon fill="midnightblue" stroke="midnightblue" points="229.238,-503 219.238,-506.5 229.238,-510 229.238,-503"/>
</g>
<!-- Node8 -->
<g id="node9" class="node"><title>Node8</title>
<g id="a_node9"><a xlink:href="classarm__compute_1_1utils_1_1_enum_option.xhtml" target="_top" xlink:title=" ">
<polygon fill="white" stroke="black" points="281,-349.5 281,-379.5 436,-379.5 436,-349.5 281,-349.5"/>
<text text-anchor="start" x="289" y="-367.5" font-family="Helvetica,sans-Serif" font-size="10.00">EnumOption&lt; arm_compute</text>
<text text-anchor="middle" x="358.5" y="-356.5" font-family="Helvetica,sans-Serif" font-size="10.00">::DataLayout &gt;</text>
</a>
</g>
</g>
<!-- Node7&#45;&gt;Node8 -->
<g id="edge8" class="edge"><title>Node7&#45;&gt;Node8</title>
<path fill="none" stroke="midnightblue" d="M254.881,-364.5C263.595,-364.5 272.382,-364.5 280.953,-364.5"/>
<polygon fill="midnightblue" stroke="midnightblue" points="254.702,-361 244.702,-364.5 254.702,-368 254.702,-361"/>
</g>
<!-- Node10 -->
<g id="node11" class="node"><title>Node10</title>
<g id="a_node11"><a xlink:href="classarm__compute_1_1utils_1_1_enum_option.xhtml" target="_top" xlink:title=" ">
<polygon fill="white" stroke="black" points="281,-300.5 281,-330.5 436,-330.5 436,-300.5 281,-300.5"/>
<text text-anchor="start" x="289" y="-318.5" font-family="Helvetica,sans-Serif" font-size="10.00">EnumOption&lt; arm_compute</text>
<text text-anchor="middle" x="358.5" y="-307.5" font-family="Helvetica,sans-Serif" font-size="10.00">::DataType &gt;</text>
</a>
</g>
</g>
<!-- Node9&#45;&gt;Node10 -->
<g id="edge10" class="edge"><title>Node9&#45;&gt;Node10</title>
<path fill="none" stroke="midnightblue" d="M254.881,-315.5C263.595,-315.5 272.382,-315.5 280.953,-315.5"/>
<polygon fill="midnightblue" stroke="midnightblue" points="254.702,-312 244.702,-315.5 254.702,-319 254.702,-312"/>
</g>
<!-- Node12 -->
<g id="node13" class="node"><title>Node12</title>
<g id="a_node13"><a xlink:href="classarm__compute_1_1utils_1_1_enum_option.xhtml" target="_top" xlink:title=" ">
<polygon fill="white" stroke="black" points="281,-251.5 281,-281.5 436,-281.5 436,-251.5 281,-251.5"/>
<text text-anchor="start" x="289" y="-269.5" font-family="Helvetica,sans-Serif" font-size="10.00">EnumOption&lt; arm_compute</text>
<text text-anchor="middle" x="358.5" y="-258.5" font-family="Helvetica,sans-Serif" font-size="10.00">::graph::Target &gt;</text>
</a>
</g>
</g>
<!-- Node11&#45;&gt;Node12 -->
<g id="edge12" class="edge"><title>Node11&#45;&gt;Node12</title>
<path fill="none" stroke="midnightblue" d="M254.881,-266.5C263.595,-266.5 272.382,-266.5 280.953,-266.5"/>
<polygon fill="midnightblue" stroke="midnightblue" points="254.702,-263 244.702,-266.5 254.702,-270 254.702,-263"/>
</g>
<!-- Node14 -->
<g id="node15" class="node"><title>Node14</title>
<g id="a_node15"><a xlink:href="classarm__compute_1_1utils_1_1_toggle_option.xhtml" target="_top" xlink:title="Implementation of an option that can be either true or false.">
<polygon fill="white" stroke="black" points="319.5,-213 319.5,-232 397.5,-232 397.5,-213 319.5,-213"/>
<text text-anchor="middle" x="358.5" y="-220" font-family="Helvetica,sans-Serif" font-size="10.00">ToggleOption</text>
</a>
</g>
</g>
<!-- Node13&#45;&gt;Node14 -->
<g id="edge14" class="edge"><title>Node13&#45;&gt;Node14</title>
<path fill="none" stroke="midnightblue" d="M236.67,-222.5C264.659,-222.5 295.672,-222.5 319.271,-222.5"/>
<polygon fill="midnightblue" stroke="midnightblue" points="236.514,-219 226.514,-222.5 236.514,-226 236.514,-219"/>
</g>
<!-- Node17 -->
<g id="node18" class="node"><title>Node17</title>
<g id="a_node18"><a xlink:href="classarm__compute_1_1utils_1_1_enum_option.xhtml" target="_top" xlink:title=" ">
<polygon fill="white" stroke="black" points="283.5,-137 283.5,-156 433.5,-156 433.5,-137 283.5,-137"/>
<text text-anchor="middle" x="358.5" y="-144" font-family="Helvetica,sans-Serif" font-size="10.00">EnumOption&lt; LogFormat &gt;</text>
</a>
</g>
</g>
<!-- Node16&#45;&gt;Node17 -->
<g id="edge17" class="edge"><title>Node16&#45;&gt;Node17</title>
<path fill="none" stroke="midnightblue" d="M252.478,-146.5C262.81,-146.5 273.282,-146.5 283.41,-146.5"/>
<polygon fill="midnightblue" stroke="midnightblue" points="252.211,-143 242.211,-146.5 252.211,-150 252.211,-143"/>
</g>
<!-- Node19 -->
<g id="node20" class="node"><title>Node19</title>
<g id="a_node20"><a xlink:href="classarm__compute_1_1utils_1_1_enum_option.xhtml" target="_top" xlink:title=" ">
<polygon fill="white" stroke="black" points="288.5,-99 288.5,-118 428.5,-118 428.5,-99 288.5,-99"/>
<text text-anchor="middle" x="358.5" y="-106" font-family="Helvetica,sans-Serif" font-size="10.00">EnumOption&lt; LogLevel &gt;</text>
</a>
</g>
</g>
<!-- Node18&#45;&gt;Node19 -->
<g id="edge19" class="edge"><title>Node18&#45;&gt;Node19</title>
<path fill="none" stroke="midnightblue" d="M247.764,-108.5C261.251,-108.5 275.107,-108.5 288.239,-108.5"/>
<polygon fill="midnightblue" stroke="midnightblue" points="247.54,-105 237.54,-108.5 247.54,-112 247.54,-105"/>
</g>
</g>
</svg>
