<?xml version="1.0" encoding="UTF-8" standalone="no"?>
<!DOCTYPE svg PUBLIC "-//W3C//DTD SVG 1.1//EN"
 "http://www.w3.org/Graphics/SVG/1.1/DTD/svg11.dtd">
<!-- Generated by graphviz version 2.38.0 (20140413.2041)
 -->
<!-- Title: ConcatLayerDescriptor Pages: 1 -->
<svg width="244pt" height="95pt"
 viewBox="0.00 0.00 244.00 95.00" xmlns="http://www.w3.org/2000/svg" xmlns:xlink="http://www.w3.org/1999/xlink">
<g id="graph0" class="graph" transform="scale(1 1) rotate(0) translate(4 91)">
<title>ConcatLayerDescriptor</title>
<polygon fill="white" stroke="none" points="-4,4 -4,-91 240,-91 240,4 -4,4"/>
<!-- Node0 -->
<g id="node1" class="node"><title>Node0</title>
<g id="a_node1"><a xlink:title="Concatenate layer descriptor.">
<polygon fill="#bfbfbf" stroke="black" points="47.5,-0.5 47.5,-19.5 173.5,-19.5 173.5,-0.5 47.5,-0.5"/>
<text text-anchor="middle" x="110.5" y="-7.5" font-family="Helvetica,sans-Serif" font-size="10.00">ConcatLayerDescriptor</text>
</a>
</g>
</g>
<!-- Node1 -->
<g id="node2" class="node"><title>Node1</title>
<g id="a_node2"><a xlink:href="structarm__compute_1_1_quantization_info.xhtml" target="_top" xlink:title="Quantization settings (used for QASYMM8 data type)">
<polygon fill="white" stroke="black" points="0,-67.5 0,-86.5 95,-86.5 95,-67.5 0,-67.5"/>
<text text-anchor="middle" x="47.5" y="-74.5" font-family="Helvetica,sans-Serif" font-size="10.00">QuantizationInfo</text>
</a>
</g>
</g>
<!-- Node1&#45;&gt;Node0 -->
<g id="edge1" class="edge"><title>Node1&#45;&gt;Node0</title>
<path fill="none" stroke="#9a32cd" stroke-dasharray="5,2" d="M63.0108,-59.9968C75.3658,-47.2496 92.1867,-29.8947 102.138,-19.6273"/>
<polygon fill="#9a32cd" stroke="#9a32cd" points="60.443,-57.6172 55.9965,-67.2338 65.4695,-62.489 60.443,-57.6172"/>
<text text-anchor="middle" x="115.5" y="-41" font-family="Helvetica,sans-Serif" font-size="10.00"> output_qinfo</text>
</g>
<!-- Node2 -->
<g id="node3" class="node"><title>Node2</title>
<g id="a_node3"><a xlink:title=" ">
<polygon fill="white" stroke="#bfbfbf" points="113,-67.5 113,-86.5 236,-86.5 236,-67.5 113,-67.5"/>
<text text-anchor="middle" x="174.5" y="-74.5" font-family="Helvetica,sans-Serif" font-size="10.00">DataLayoutDimension</text>
</a>
</g>
</g>
<!-- Node2&#45;&gt;Node0 -->
<g id="edge2" class="edge"><title>Node2&#45;&gt;Node0</title>
<path fill="none" stroke="#9a32cd" stroke-dasharray="5,2" d="M165.92,-58.2454C162.101,-51.4384 157.177,-43.8977 151.5,-38 144.407,-30.6318 134.955,-24.2386 126.914,-19.5254"/>
<polygon fill="#9a32cd" stroke="#9a32cd" points="162.968,-60.1556 170.684,-67.4165 169.18,-56.9289 162.968,-60.1556"/>
<text text-anchor="middle" x="170.5" y="-41" font-family="Helvetica,sans-Serif" font-size="10.00"> axis</text>
</g>
</g>
</svg>
