<?xml version="1.0" encoding="UTF-8" standalone="no"?>
<!DOCTYPE svg PUBLIC "-//W3C//DTD SVG 1.1//EN"
 "http://www.w3.org/Graphics/SVG/1.1/DTD/svg11.dtd">
<!-- Generated by graphviz version 2.38.0 (20140413.2041)
 -->
<!-- Title: is_contained&lt; T, std::tuple&lt; U, Ts... &gt; &gt; Pages: 1 -->
<svg width="198pt" height="174pt"
 viewBox="0.00 0.00 198.00 174.00" xmlns="http://www.w3.org/2000/svg" xmlns:xlink="http://www.w3.org/1999/xlink">
<g id="graph0" class="graph" transform="scale(1 1) rotate(0) translate(4 170)">
<title>is_contained&lt; T, std::tuple&lt; U, Ts... &gt; &gt;</title>
<polygon fill="white" stroke="none" points="-4,4 -4,-170 194,-170 194,4 -4,4"/>
<!-- Node0 -->
<g id="node1" class="node"><title>Node0</title>
<g id="a_node1"><a xlink:title=" ">
<polygon fill="#bfbfbf" stroke="black" points="10,-0.5 10,-30.5 124,-30.5 124,-0.5 10,-0.5"/>
<text text-anchor="start" x="18" y="-18.5" font-family="Helvetica,sans-Serif" font-size="10.00">is_contained&lt; T, std</text>
<text text-anchor="middle" x="67" y="-7.5" font-family="Helvetica,sans-Serif" font-size="10.00">::tuple&lt; U, Ts... &gt; &gt;</text>
</a>
</g>
</g>
<!-- Node1 -->
<g id="node2" class="node"><title>Node1</title>
<g id="a_node2"><a xlink:href="structarm__compute_1_1traits_1_1is__contained.xhtml" target="_top" xlink:title=" ">
<polygon fill="white" stroke="black" points="10,-68.5 10,-98.5 124,-98.5 124,-68.5 10,-68.5"/>
<text text-anchor="start" x="18" y="-86.5" font-family="Helvetica,sans-Serif" font-size="10.00">is_contained&lt; T, std</text>
<text text-anchor="middle" x="67" y="-75.5" font-family="Helvetica,sans-Serif" font-size="10.00">::tuple&lt; Ts... &gt; &gt;</text>
</a>
</g>
</g>
<!-- Node1&#45;&gt;Node0 -->
<g id="edge1" class="edge"><title>Node1&#45;&gt;Node0</title>
<path fill="none" stroke="midnightblue" d="M67,-58.0322C67,-48.8606 67,-38.7449 67,-30.7931"/>
<polygon fill="midnightblue" stroke="midnightblue" points="63.5001,-58.1789 67,-68.179 70.5001,-58.179 63.5001,-58.1789"/>
</g>
<!-- Node2 -->
<g id="node3" class="node"><title>Node2</title>
<g id="a_node3"><a xlink:href="structarm__compute_1_1traits_1_1is__contained.xhtml" target="_top" xlink:title="Check if a type T is contained in a tuple Tuple of types.">
<polygon fill="white" stroke="black" points="0,-146.5 0,-165.5 134,-165.5 134,-146.5 0,-146.5"/>
<text text-anchor="middle" x="67" y="-153.5" font-family="Helvetica,sans-Serif" font-size="10.00">is_contained&lt; T, Tuple &gt;</text>
</a>
</g>
</g>
<!-- Node2&#45;&gt;Node1 -->
<g id="edge2" class="edge"><title>Node2&#45;&gt;Node1</title>
<path fill="none" stroke="orange" stroke-dasharray="5,2" d="M67,-136.236C67,-124.408 67,-109.383 67,-98.5762"/>
<polygon fill="orange" stroke="orange" points="63.5001,-136.355 67,-146.355 70.5001,-136.355 63.5001,-136.355"/>
<text text-anchor="middle" x="128.5" y="-120" font-family="Helvetica,sans-Serif" font-size="10.00"> &lt; T, std::tuple&lt; Ts... &gt; &gt;</text>
</g>
</g>
</svg>
