<?xml version="1.0" encoding="UTF-8" standalone="no"?>
<!DOCTYPE svg PUBLIC "-//W3C//DTD SVG 1.1//EN"
 "http://www.w3.org/Graphics/SVG/1.1/DTD/svg11.dtd">
<!-- Generated by graphviz version 2.40.1 (20161225.0304)
 -->
<!-- Title: DepthwiseDepthfirst&lt; TInput, TWeight, TOutput, TAccum, OutputStage &gt; Pages: 1 -->
<svg width="169pt" height="262pt"
 viewBox="0.00 0.00 169.00 262.00" xmlns="http://www.w3.org/2000/svg" xmlns:xlink="http://www.w3.org/1999/xlink">
<g id="graph0" class="graph" transform="scale(1 1) rotate(0) translate(4 258)">
<title>DepthwiseDepthfirst&lt; TInput, TWeight, TOutput, TAccum, OutputStage &gt;</title>
<polygon fill="#ffffff" stroke="transparent" points="-4,4 -4,-258 165,-258 165,4 -4,4"/>
<!-- Node0 -->
<g id="node1" class="node">
<title>Node0</title>
<polygon fill="#bfbfbf" stroke="#000000" points="4.5,-.5 4.5,-41.5 156.5,-41.5 156.5,-.5 4.5,-.5"/>
<text text-anchor="start" x="12.5" y="-29.5" font-family="Helvetica,sans-Serif" font-size="10.00" fill="#000000">DepthwiseDepthfirst</text>
<text text-anchor="start" x="12.5" y="-18.5" font-family="Helvetica,sans-Serif" font-size="10.00" fill="#000000">&lt; TInput, TWeight, TOutput,</text>
<text text-anchor="middle" x="80.5" y="-7.5" font-family="Helvetica,sans-Serif" font-size="10.00" fill="#000000"> TAccum, OutputStage &gt;</text>
</g>
<!-- Node1 -->
<g id="node2" class="node">
<title>Node1</title>
<g id="a_node2"><a xlink:href="classarm__conv_1_1depthwise_1_1_depthwise_depthfirst_common.xhtml" target="_top" xlink:title="DepthwiseDepthfirstCommon\l\&lt; TInput, TWeight, TOutput,\l TAccum, OutputStage \&gt;">
<polygon fill="#ffffff" stroke="#000000" points="0,-78.5 0,-119.5 161,-119.5 161,-78.5 0,-78.5"/>
<text text-anchor="start" x="8" y="-107.5" font-family="Helvetica,sans-Serif" font-size="10.00" fill="#000000">DepthwiseDepthfirstCommon</text>
<text text-anchor="start" x="8" y="-96.5" font-family="Helvetica,sans-Serif" font-size="10.00" fill="#000000">&lt; TInput, TWeight, TOutput,</text>
<text text-anchor="middle" x="80.5" y="-85.5" font-family="Helvetica,sans-Serif" font-size="10.00" fill="#000000"> TAccum, OutputStage &gt;</text>
</a>
</g>
</g>
<!-- Node1&#45;&gt;Node0 -->
<g id="edge1" class="edge">
<title>Node1&#45;&gt;Node0</title>
<path fill="none" stroke="#191970" d="M80.5,-68.0789C80.5,-59.2178 80.5,-49.7747 80.5,-41.6898"/>
<polygon fill="#191970" stroke="#191970" points="77.0001,-68.0974 80.5,-78.0974 84.0001,-68.0975 77.0001,-68.0974"/>
</g>
<!-- Node2 -->
<g id="node3" class="node">
<title>Node2</title>
<g id="a_node3"><a xlink:href="classarm__conv_1_1depthwise_1_1_depthfirst_driver.xhtml" target="_top" xlink:title="DepthfirstDriver\&lt; TInput,\l TWeight, TOutput \&gt;">
<polygon fill="#ffffff" stroke="#000000" points="10.5,-156.5 10.5,-186.5 150.5,-186.5 150.5,-156.5 10.5,-156.5"/>
<text text-anchor="start" x="18.5" y="-174.5" font-family="Helvetica,sans-Serif" font-size="10.00" fill="#000000">DepthfirstDriver&lt; TInput,</text>
<text text-anchor="middle" x="80.5" y="-163.5" font-family="Helvetica,sans-Serif" font-size="10.00" fill="#000000"> TWeight, TOutput &gt;</text>
</a>
</g>
</g>
<!-- Node2&#45;&gt;Node1 -->
<g id="edge2" class="edge">
<title>Node2&#45;&gt;Node1</title>
<path fill="none" stroke="#191970" d="M80.5,-146.4016C80.5,-137.6173 80.5,-127.8652 80.5,-119.5015"/>
<polygon fill="#191970" stroke="#191970" points="77.0001,-146.4779 80.5,-156.478 84.0001,-146.478 77.0001,-146.4779"/>
</g>
<!-- Node3 -->
<g id="node4" class="node">
<title>Node3</title>
<polygon fill="#ffffff" stroke="#bfbfbf" points="1.5,-223.5 1.5,-253.5 159.5,-253.5 159.5,-223.5 1.5,-223.5"/>
<text text-anchor="start" x="9.5" y="-241.5" font-family="Helvetica,sans-Serif" font-size="10.00" fill="#000000">DepthwiseCommon&lt; TInput,</text>
<text text-anchor="middle" x="80.5" y="-230.5" font-family="Helvetica,sans-Serif" font-size="10.00" fill="#000000"> TWeight, TOutput &gt;</text>
</g>
<!-- Node3&#45;&gt;Node2 -->
<g id="edge3" class="edge">
<title>Node3&#45;&gt;Node2</title>
<path fill="none" stroke="#191970" d="M80.5,-213.0249C80.5,-204.128 80.5,-194.4287 80.5,-186.6432"/>
<polygon fill="#191970" stroke="#191970" points="77.0001,-213.2966 80.5,-223.2967 84.0001,-213.2967 77.0001,-213.2966"/>
</g>
</g>
</svg>
