<?xml version="1.0" encoding="UTF-8" standalone="no"?>
<!DOCTYPE svg PUBLIC "-//W3C//DTD SVG 1.1//EN"
 "http://www.w3.org/Graphics/SVG/1.1/DTD/svg11.dtd">
<!-- Generated by graphviz version 2.40.1 (20161225.0304)
 -->
<!-- Title: DepthfirstDriver&lt; TInput, TWeight, TOutput &gt; Pages: 1 -->
<svg width="166pt" height="106pt"
 viewBox="0.00 0.00 166.00 106.00" xmlns="http://www.w3.org/2000/svg" xmlns:xlink="http://www.w3.org/1999/xlink">
<g id="graph0" class="graph" transform="scale(1 1) rotate(0) translate(4 102)">
<title>DepthfirstDriver&lt; TInput, TWeight, TOutput &gt;</title>
<polygon fill="#ffffff" stroke="transparent" points="-4,4 -4,-102 162,-102 162,4 -4,4"/>
<!-- Node0 -->
<g id="node1" class="node">
<title>Node0</title>
<polygon fill="#bfbfbf" stroke="#000000" points="9,-.5 9,-30.5 149,-30.5 149,-.5 9,-.5"/>
<text text-anchor="start" x="17" y="-18.5" font-family="Helvetica,sans-Serif" font-size="10.00" fill="#000000">DepthfirstDriver&lt; TInput,</text>
<text text-anchor="middle" x="79" y="-7.5" font-family="Helvetica,sans-Serif" font-size="10.00" fill="#000000"> TWeight, TOutput &gt;</text>
</g>
<!-- Node1 -->
<g id="node2" class="node">
<title>Node1</title>
<polygon fill="#ffffff" stroke="#bfbfbf" points="0,-67.5 0,-97.5 158,-97.5 158,-67.5 0,-67.5"/>
<text text-anchor="start" x="8" y="-85.5" font-family="Helvetica,sans-Serif" font-size="10.00" fill="#000000">DepthwiseCommon&lt; TInput,</text>
<text text-anchor="middle" x="79" y="-74.5" font-family="Helvetica,sans-Serif" font-size="10.00" fill="#000000"> TWeight, TOutput &gt;</text>
</g>
<!-- Node1&#45;&gt;Node0 -->
<g id="edge1" class="edge">
<title>Node1&#45;&gt;Node0</title>
<path fill="none" stroke="#191970" d="M79,-57.0249C79,-48.128 79,-38.4287 79,-30.6432"/>
<polygon fill="#191970" stroke="#191970" points="75.5001,-57.2966 79,-67.2967 82.5001,-57.2967 75.5001,-57.2966"/>
</g>
</g>
</svg>
