<?xml version="1.0" encoding="UTF-8" standalone="no"?>
<!DOCTYPE svg PUBLIC "-//W3C//DTD SVG 1.1//EN"
 "http://www.w3.org/Graphics/SVG/1.1/DTD/svg11.dtd">
<!-- Generated by graphviz version 2.40.1 (20161225.0304)
 -->
<!-- Title: src/cpu/operators/internal Pages: 1 -->
<svg width="210pt" height="295pt"
 viewBox="0.00 0.00 210.00 295.00" xmlns="http://www.w3.org/2000/svg" xmlns:xlink="http://www.w3.org/1999/xlink">
<g id="graph0" class="graph" transform="scale(1 1) rotate(0) translate(4 291)">
<title>src/cpu/operators/internal</title>
<polygon fill="#ffffff" stroke="transparent" points="-4,4 -4,-291 206,-291 206,4 -4,4"/>
<g id="clust1" class="cluster">
<title>clusterdir_e639157fd988cab7c102f16994a5c7d6</title>
<g id="a_clust1"><a xlink:href="dir_e639157fd988cab7c102f16994a5c7d6.xhtml" target="_top" xlink:title="operators">
<polygon fill="#ddddee" stroke="#000000" points="74,-208 74,-279 144,-279 144,-208 74,-208"/>
<text text-anchor="middle" x="109" y="-267" font-family="Helvetica,sans-Serif" font-size="10.00" fill="#000000">operators</text>
</a>
</g>
</g>
<!-- dir_7516d7e27ad2852cb8e3a5961ec5f65b -->
<g id="node1" class="node">
<title>dir_7516d7e27ad2852cb8e3a5961ec5f65b</title>
<g id="a_node1"><a xlink:href="dir_7516d7e27ad2852cb8e3a5961ec5f65b.xhtml" target="_top" xlink:title="internal">
<polygon fill="#eeeeff" stroke="#000000" points="136,-252 82,-252 82,-216 136,-216 136,-252"/>
<text text-anchor="middle" x="109" y="-231.5" font-family="Helvetica,sans-Serif" font-size="10.00" fill="#000000">internal</text>
</a>
</g>
</g>
<!-- dir_187b9d58414f06fbebe4df2ec38d20a5 -->
<g id="node2" class="node">
<title>dir_187b9d58414f06fbebe4df2ec38d20a5</title>
<g id="a_node2"><a xlink:href="dir_187b9d58414f06fbebe4df2ec38d20a5.xhtml" target="_top" xlink:title="utils">
<polygon fill="none" stroke="#000000" points="54,-180 0,-180 0,-144 54,-144 54,-180"/>
<text text-anchor="middle" x="27" y="-159.5" font-family="Helvetica,sans-Serif" font-size="10.00" fill="#000000">utils</text>
</a>
</g>
</g>
<!-- dir_7516d7e27ad2852cb8e3a5961ec5f65b&#45;&gt;dir_187b9d58414f06fbebe4df2ec38d20a5 -->
<g id="edge4" class="edge">
<title>dir_7516d7e27ad2852cb8e3a5961ec5f65b&#45;&gt;dir_187b9d58414f06fbebe4df2ec38d20a5</title>
<path fill="none" stroke="#000000" d="M88.3079,-215.8314C78.3052,-207.0485 66.145,-196.3712 55.3001,-186.8489"/>
<polygon fill="#000000" stroke="#000000" points="57.5092,-184.1308 47.6854,-180.1628 52.8906,-189.3909 57.5092,-184.1308"/>
<g id="a_edge4&#45;headlabel"><a xlink:href="dir_000387_000388.xhtml" target="_top" xlink:title="1">
<text text-anchor="middle" x="62.0836" y="-181.869" font-family="Helvetica,sans-Serif" font-size="10.00" fill="#000000">1</text>
</a>
</g>
</g>
<!-- dir_214608ef36d61442cb2b0c1c4e9a7def -->
<g id="node3" class="node">
<title>dir_214608ef36d61442cb2b0c1c4e9a7def</title>
<g id="a_node3"><a xlink:href="dir_214608ef36d61442cb2b0c1c4e9a7def.xhtml" target="_top" xlink:title="arm_compute">
<polygon fill="#ffffff" stroke="#ff0000" points="143,-36 59,-36 59,0 143,0 143,-36"/>
<text text-anchor="middle" x="101" y="-15.5" font-family="Helvetica,sans-Serif" font-size="10.00" fill="#000000">arm_compute</text>
</a>
</g>
</g>
<!-- dir_7516d7e27ad2852cb8e3a5961ec5f65b&#45;&gt;dir_214608ef36d61442cb2b0c1c4e9a7def -->
<g id="edge5" class="edge">
<title>dir_7516d7e27ad2852cb8e3a5961ec5f65b&#45;&gt;dir_214608ef36d61442cb2b0c1c4e9a7def</title>
<path fill="none" stroke="#000000" d="M105.585,-215.5804C103.8291,-205.1767 101.8774,-191.9092 101,-180 97.5468,-133.1275 98.6019,-78.4192 99.751,-46.0779"/>
<polygon fill="#000000" stroke="#000000" points="103.2511,-46.1382 100.1379,-36.0111 96.2563,-45.8693 103.2511,-46.1382"/>
<g id="a_edge5&#45;headlabel"><a xlink:href="dir_000387_000000.xhtml" target="_top" xlink:title="1">
<text text-anchor="middle" x="105.9504" y="-47.3391" font-family="Helvetica,sans-Serif" font-size="10.00" fill="#000000">1</text>
</a>
</g>
</g>
<!-- dir_1de7bcbbdec2bf3559cb3c688662d4f5 -->
<g id="node4" class="node">
<title>dir_1de7bcbbdec2bf3559cb3c688662d4f5</title>
<g id="a_node4"><a xlink:href="dir_1de7bcbbdec2bf3559cb3c688662d4f5.xhtml" target="_top" xlink:title="kernels">
<polygon fill="#ffffff" stroke="#ff0000" points="164,-180 110,-180 110,-144 164,-144 164,-180"/>
<text text-anchor="middle" x="137" y="-159.5" font-family="Helvetica,sans-Serif" font-size="10.00" fill="#000000">kernels</text>
</a>
</g>
</g>
<!-- dir_7516d7e27ad2852cb8e3a5961ec5f65b&#45;&gt;dir_1de7bcbbdec2bf3559cb3c688662d4f5 -->
<g id="edge6" class="edge">
<title>dir_7516d7e27ad2852cb8e3a5961ec5f65b&#45;&gt;dir_1de7bcbbdec2bf3559cb3c688662d4f5</title>
<path fill="none" stroke="#000000" d="M116.0656,-215.8314C119.126,-207.9617 122.7779,-198.5712 126.1682,-189.8533"/>
<polygon fill="#000000" stroke="#000000" points="129.4768,-191.0019 129.8393,-180.4133 122.9527,-188.4647 129.4768,-191.0019"/>
<g id="a_edge6&#45;headlabel"><a xlink:href="dir_000387_000284.xhtml" target="_top" xlink:title="2">
<text text-anchor="middle" x="130.8202" y="-192.8812" font-family="Helvetica,sans-Serif" font-size="10.00" fill="#000000">2</text>
</a>
</g>
</g>
<!-- dir_aebb8dcc11953d78e620bbef0b9e2183 -->
<g id="node5" class="node">
<title>dir_aebb8dcc11953d78e620bbef0b9e2183</title>
<g id="a_node5"><a xlink:href="dir_aebb8dcc11953d78e620bbef0b9e2183.xhtml" target="_top" xlink:title="core">
<polygon fill="#ffffff" stroke="#ff0000" points="202,-108 148,-108 148,-72 202,-72 202,-108"/>
<text text-anchor="middle" x="175" y="-87.5" font-family="Helvetica,sans-Serif" font-size="10.00" fill="#000000">core</text>
</a>
</g>
</g>
<!-- dir_7516d7e27ad2852cb8e3a5961ec5f65b&#45;&gt;dir_aebb8dcc11953d78e620bbef0b9e2183 -->
<g id="edge7" class="edge">
<title>dir_7516d7e27ad2852cb8e3a5961ec5f65b&#45;&gt;dir_aebb8dcc11953d78e620bbef0b9e2183</title>
<path fill="none" stroke="#000000" d="M136.2962,-218.7062C149.964,-209.4405 165.2226,-196.2628 173,-180 182.1312,-160.9062 182.1614,-136.8284 180.1641,-118.3827"/>
<polygon fill="#000000" stroke="#000000" points="183.604,-117.7 178.8073,-108.2532 176.666,-118.6294 183.604,-117.7"/>
<g id="a_edge7&#45;headlabel"><a xlink:href="dir_000387_000020.xhtml" target="_top" xlink:title="4">
<text text-anchor="middle" x="186.8953" y="-118.3859" font-family="Helvetica,sans-Serif" font-size="10.00" fill="#000000">4</text>
</a>
</g>
</g>
<!-- dir_187b9d58414f06fbebe4df2ec38d20a5&#45;&gt;dir_214608ef36d61442cb2b0c1c4e9a7def -->
<g id="edge1" class="edge">
<title>dir_187b9d58414f06fbebe4df2ec38d20a5&#45;&gt;dir_214608ef36d61442cb2b0c1c4e9a7def</title>
<path fill="none" stroke="#000000" d="M34.5386,-143.7603C42.3239,-125.3551 55.1193,-96.2651 68,-72 72.8174,-62.9248 78.5188,-53.2741 83.8155,-44.6793"/>
<polygon fill="#000000" stroke="#000000" points="86.8001,-46.5076 89.1347,-36.1732 80.865,-42.7961 86.8001,-46.5076"/>
<g id="a_edge1&#45;headlabel"><a xlink:href="dir_000388_000000.xhtml" target="_top" xlink:title="3">
<text text-anchor="middle" x="87.3016" y="-48.5608" font-family="Helvetica,sans-Serif" font-size="10.00" fill="#000000">3</text>
</a>
</g>
</g>
<!-- dir_1de7bcbbdec2bf3559cb3c688662d4f5&#45;&gt;dir_214608ef36d61442cb2b0c1c4e9a7def -->
<g id="edge2" class="edge">
<title>dir_1de7bcbbdec2bf3559cb3c688662d4f5&#45;&gt;dir_214608ef36d61442cb2b0c1c4e9a7def</title>
<path fill="none" stroke="#000000" d="M132.4406,-143.7623C126.2732,-119.0928 115.2149,-74.8598 107.9933,-45.9731"/>
<polygon fill="#000000" stroke="#000000" points="111.3433,-44.9421 105.5224,-36.0896 104.5523,-46.6399 111.3433,-44.9421"/>
<g id="a_edge2&#45;headlabel"><a xlink:href="dir_000284_000000.xhtml" target="_top" xlink:title="476">
<text text-anchor="middle" x="114.9696" y="-45.2408" font-family="Helvetica,sans-Serif" font-size="10.00" fill="#000000">476</text>
</a>
</g>
</g>
<!-- dir_1de7bcbbdec2bf3559cb3c688662d4f5&#45;&gt;dir_aebb8dcc11953d78e620bbef0b9e2183 -->
<g id="edge3" class="edge">
<title>dir_1de7bcbbdec2bf3559cb3c688662d4f5&#45;&gt;dir_aebb8dcc11953d78e620bbef0b9e2183</title>
<path fill="none" stroke="#000000" d="M140.6366,-143.8314C144.1324,-135.7079 149.0727,-125.9637 154.1844,-117.0118"/>
<polygon fill="#000000" stroke="#000000" points="157.1955,-118.7958 159.3059,-108.4133 151.1815,-115.2137 157.1955,-118.7958"/>
<g id="a_edge3&#45;headlabel"><a xlink:href="dir_000284_000020.xhtml" target="_top" xlink:title="365">
<text text-anchor="middle" x="157.7954" y="-120.837" font-family="Helvetica,sans-Serif" font-size="10.00" fill="#000000">365</text>
</a>
</g>
</g>
<!-- dir_aebb8dcc11953d78e620bbef0b9e2183&#45;&gt;dir_214608ef36d61442cb2b0c1c4e9a7def -->
<g id="edge8" class="edge">
<title>dir_aebb8dcc11953d78e620bbef0b9e2183&#45;&gt;dir_214608ef36d61442cb2b0c1c4e9a7def</title>
<path fill="none" stroke="#000000" d="M156.3267,-71.8314C147.4751,-63.219 136.7514,-52.7851 127.1105,-43.4048"/>
<polygon fill="#000000" stroke="#000000" points="129.2754,-40.6279 119.6674,-36.1628 124.3939,-45.645 129.2754,-40.6279"/>
<g id="a_edge8&#45;headlabel"><a xlink:href="dir_000020_000000.xhtml" target="_top" xlink:title="631">
<text text-anchor="middle" x="133.8317" y="-38.5996" font-family="Helvetica,sans-Serif" font-size="10.00" fill="#000000">631</text>
</a>
</g>
</g>
<!-- dir_aebb8dcc11953d78e620bbef0b9e2183&#45;&gt;dir_1de7bcbbdec2bf3559cb3c688662d4f5 -->
<g id="edge9" class="edge">
<title>dir_aebb8dcc11953d78e620bbef0b9e2183&#45;&gt;dir_1de7bcbbdec2bf3559cb3c688662d4f5</title>
<path fill="none" stroke="#000000" d="M171.2579,-108.4133C167.77,-116.484 162.88,-126.1182 157.8218,-134.9775"/>
<polygon fill="#000000" stroke="#000000" points="154.6576,-133.45 152.5414,-143.8314 160.6696,-137.0355 154.6576,-133.45"/>
<g id="a_edge9&#45;headlabel"><a xlink:href="dir_000020_000284.xhtml" target="_top" xlink:title="73">
<text text-anchor="middle" x="154.0602" y="-126.4085" font-family="Helvetica,sans-Serif" font-size="10.00" fill="#000000">73</text>
</a>
</g>
</g>
</g>
</svg>
