<?xml version="1.0" encoding="UTF-8" standalone="no"?>
<!DOCTYPE svg PUBLIC "-//W3C//DTD SVG 1.1//EN"
 "http://www.w3.org/Graphics/SVG/1.1/DTD/svg11.dtd">
<!-- Generated by graphviz version 2.40.1 (20161225.0304)
 -->
<!-- Title: tests/validation/CL/UNIT/dynamic_fusion Pages: 1 -->
<svg width="224pt" height="295pt"
 viewBox="0.00 0.00 224.00 295.00" xmlns="http://www.w3.org/2000/svg" xmlns:xlink="http://www.w3.org/1999/xlink">
<g id="graph0" class="graph" transform="scale(1 1) rotate(0) translate(4 291)">
<title>tests/validation/CL/UNIT/dynamic_fusion</title>
<polygon fill="#ffffff" stroke="transparent" points="-4,4 -4,-291 220,-291 220,4 -4,4"/>
<g id="clust1" class="cluster">
<title>clusterdir_4fe3055359cf5438733b5e64b064b197</title>
<g id="a_clust1"><a xlink:href="dir_4fe3055359cf5438733b5e64b064b197.xhtml" target="_top" xlink:title="UNIT">
<polygon fill="#ddddee" stroke="#000000" points="8,-208 8,-279 118,-279 118,-208 8,-208"/>
<text text-anchor="middle" x="63" y="-267" font-family="Helvetica,sans-Serif" font-size="10.00" fill="#000000">UNIT</text>
</a>
</g>
</g>
<!-- dir_1841df5e0440ca053396ba06955277a7 -->
<g id="node1" class="node">
<title>dir_1841df5e0440ca053396ba06955277a7</title>
<g id="a_node1"><a xlink:href="dir_1841df5e0440ca053396ba06955277a7.xhtml" target="_top" xlink:title="dynamic_fusion">
<polygon fill="#eeeeff" stroke="#000000" points="110,-252 16,-252 16,-216 110,-216 110,-252"/>
<text text-anchor="middle" x="63" y="-231.5" font-family="Helvetica,sans-Serif" font-size="10.00" fill="#000000">dynamic_fusion</text>
</a>
</g>
</g>
<!-- dir_46fdb196cebdbffe77dac340cde62f29 -->
<g id="node2" class="node">
<title>dir_46fdb196cebdbffe77dac340cde62f29</title>
<g id="a_node2"><a xlink:href="dir_46fdb196cebdbffe77dac340cde62f29.xhtml" target="_top" xlink:title="reference">
<polygon fill="none" stroke="#000000" points="94.5,-180 31.5,-180 31.5,-144 94.5,-144 94.5,-180"/>
<text text-anchor="middle" x="63" y="-159.5" font-family="Helvetica,sans-Serif" font-size="10.00" fill="#000000">reference</text>
</a>
</g>
</g>
<!-- dir_1841df5e0440ca053396ba06955277a7&#45;&gt;dir_46fdb196cebdbffe77dac340cde62f29 -->
<g id="edge5" class="edge">
<title>dir_1841df5e0440ca053396ba06955277a7&#45;&gt;dir_46fdb196cebdbffe77dac340cde62f29</title>
<path fill="none" stroke="#000000" d="M63,-215.8314C63,-208.131 63,-198.9743 63,-190.4166"/>
<polygon fill="#000000" stroke="#000000" points="66.5001,-190.4132 63,-180.4133 59.5001,-190.4133 66.5001,-190.4132"/>
<g id="a_edge5&#45;headlabel"><a xlink:href="dir_000040_000013.xhtml" target="_top" xlink:title="3">
<text text-anchor="middle" x="69.3393" y="-191.5079" font-family="Helvetica,sans-Serif" font-size="10.00" fill="#000000">3</text>
</a>
</g>
</g>
<!-- dir_68267d1309a1af8e8297ef4c3efbcdba -->
<g id="node3" class="node">
<title>dir_68267d1309a1af8e8297ef4c3efbcdba</title>
<g id="a_node3"><a xlink:href="dir_68267d1309a1af8e8297ef4c3efbcdba.xhtml" target="_top" xlink:title="src">
<polygon fill="#ffffff" stroke="#ff0000" points="90,-108 36,-108 36,-72 90,-72 90,-108"/>
<text text-anchor="middle" x="63" y="-87.5" font-family="Helvetica,sans-Serif" font-size="10.00" fill="#000000">src</text>
</a>
</g>
</g>
<!-- dir_1841df5e0440ca053396ba06955277a7&#45;&gt;dir_68267d1309a1af8e8297ef4c3efbcdba -->
<g id="edge6" class="edge">
<title>dir_1841df5e0440ca053396ba06955277a7&#45;&gt;dir_68267d1309a1af8e8297ef4c3efbcdba</title>
<path fill="none" stroke="#000000" d="M44.396,-215.8067C35.7967,-206.0891 26.5063,-193.3872 22,-180 16.8956,-164.8361 16.8956,-159.1639 22,-144 25.3797,-133.9596 31.4505,-124.3047 37.9025,-116.0052"/>
<polygon fill="#000000" stroke="#000000" points="40.6952,-118.1208 44.396,-108.1933 35.3121,-113.6461 40.6952,-118.1208"/>
<g id="a_edge6&#45;headlabel"><a xlink:href="dir_000040_000003.xhtml" target="_top" xlink:title="3">
<text text-anchor="middle" x="40.5809" y="-120.2" font-family="Helvetica,sans-Serif" font-size="10.00" fill="#000000">3</text>
</a>
</g>
</g>
<!-- dir_9e71e2da941d3cafc4d98a9f6ae3de4f -->
<g id="node4" class="node">
<title>dir_9e71e2da941d3cafc4d98a9f6ae3de4f</title>
<g id="a_node4"><a xlink:href="dir_9e71e2da941d3cafc4d98a9f6ae3de4f.xhtml" target="_top" xlink:title="framework">
<polygon fill="#ffffff" stroke="#ff0000" points="216,-108 146,-108 146,-72 216,-72 216,-108"/>
<text text-anchor="middle" x="181" y="-87.5" font-family="Helvetica,sans-Serif" font-size="10.00" fill="#000000">framework</text>
</a>
</g>
</g>
<!-- dir_1841df5e0440ca053396ba06955277a7&#45;&gt;dir_9e71e2da941d3cafc4d98a9f6ae3de4f -->
<g id="edge7" class="edge">
<title>dir_1841df5e0440ca053396ba06955277a7&#45;&gt;dir_9e71e2da941d3cafc4d98a9f6ae3de4f</title>
<path fill="none" stroke="#000000" d="M110.1788,-223.6008C134.0132,-215.7689 160.9941,-202.3995 176,-180 187.9964,-162.0928 188.5314,-137.4022 186.4655,-118.4112"/>
<polygon fill="#000000" stroke="#000000" points="189.898,-117.6813 185.0613,-108.2549 182.9639,-118.6401 189.898,-117.6813"/>
<g id="a_edge7&#45;headlabel"><a xlink:href="dir_000040_000037.xhtml" target="_top" xlink:title="4">
<text text-anchor="middle" x="193.2027" y="-118.3532" font-family="Helvetica,sans-Serif" font-size="10.00" fill="#000000">4</text>
</a>
</g>
</g>
<!-- dir_214608ef36d61442cb2b0c1c4e9a7def -->
<g id="node5" class="node">
<title>dir_214608ef36d61442cb2b0c1c4e9a7def</title>
<g id="a_node5"><a xlink:href="dir_214608ef36d61442cb2b0c1c4e9a7def.xhtml" target="_top" xlink:title="arm_compute">
<polygon fill="#ffffff" stroke="#ff0000" points="105,-36 21,-36 21,0 105,0 105,-36"/>
<text text-anchor="middle" x="63" y="-15.5" font-family="Helvetica,sans-Serif" font-size="10.00" fill="#000000">arm_compute</text>
</a>
</g>
</g>
<!-- dir_1841df5e0440ca053396ba06955277a7&#45;&gt;dir_214608ef36d61442cb2b0c1c4e9a7def -->
<g id="edge8" class="edge">
<title>dir_1841df5e0440ca053396ba06955277a7&#45;&gt;dir_214608ef36d61442cb2b0c1c4e9a7def</title>
<path fill="none" stroke="#000000" d="M40.7787,-215.9032C30.8692,-206.3888 20.26,-193.8349 15,-180 8.4244,-162.705 14.5923,-85.9049 20,-72 23.9094,-61.9477 30.3847,-52.2892 37.1384,-43.9901"/>
<polygon fill="#000000" stroke="#000000" points="40.001,-46.031 43.9004,-36.1798 34.7088,-41.4491 40.001,-46.031"/>
<g id="a_edge8&#45;headlabel"><a xlink:href="dir_000040_000000.xhtml" target="_top" xlink:title="6">
<text text-anchor="middle" x="39.7947" y="-48.107" font-family="Helvetica,sans-Serif" font-size="10.00" fill="#000000">6</text>
</a>
</g>
</g>
<!-- dir_896191444cf08ec8ade6f88256cb2bdd -->
<g id="node6" class="node">
<title>dir_896191444cf08ec8ade6f88256cb2bdd</title>
<g id="a_node6"><a xlink:href="dir_896191444cf08ec8ade6f88256cb2bdd.xhtml" target="_top" xlink:title="CL">
<polygon fill="none" stroke="#000000" points="167,-180 113,-180 113,-144 167,-144 167,-180"/>
<text text-anchor="middle" x="140" y="-159.5" font-family="Helvetica,sans-Serif" font-size="10.00" fill="#000000">CL</text>
</a>
</g>
</g>
<!-- dir_1841df5e0440ca053396ba06955277a7&#45;&gt;dir_896191444cf08ec8ade6f88256cb2bdd -->
<g id="edge9" class="edge">
<title>dir_1841df5e0440ca053396ba06955277a7&#45;&gt;dir_896191444cf08ec8ade6f88256cb2bdd</title>
<path fill="none" stroke="#000000" d="M82.4304,-215.8314C91.732,-207.1337 103.0204,-196.5783 113.1286,-187.1265"/>
<polygon fill="#000000" stroke="#000000" points="115.6621,-189.5493 120.5759,-180.1628 110.8811,-184.4363 115.6621,-189.5493"/>
<g id="a_edge9&#45;headlabel"><a xlink:href="dir_000040_000423.xhtml" target="_top" xlink:title="1">
<text text-anchor="middle" x="114.9757" y="-191.5782" font-family="Helvetica,sans-Serif" font-size="10.00" fill="#000000">1</text>
</a>
</g>
</g>
<!-- dir_46fdb196cebdbffe77dac340cde62f29&#45;&gt;dir_68267d1309a1af8e8297ef4c3efbcdba -->
<g id="edge1" class="edge">
<title>dir_46fdb196cebdbffe77dac340cde62f29&#45;&gt;dir_68267d1309a1af8e8297ef4c3efbcdba</title>
<path fill="none" stroke="#000000" d="M63,-143.8314C63,-136.131 63,-126.9743 63,-118.4166"/>
<polygon fill="#000000" stroke="#000000" points="66.5001,-118.4132 63,-108.4133 59.5001,-118.4133 66.5001,-118.4132"/>
<g id="a_edge1&#45;headlabel"><a xlink:href="dir_000013_000003.xhtml" target="_top" xlink:title="2">
<text text-anchor="middle" x="69.3393" y="-119.5079" font-family="Helvetica,sans-Serif" font-size="10.00" fill="#000000">2</text>
</a>
</g>
</g>
<!-- dir_46fdb196cebdbffe77dac340cde62f29&#45;&gt;dir_9e71e2da941d3cafc4d98a9f6ae3de4f -->
<g id="edge2" class="edge">
<title>dir_46fdb196cebdbffe77dac340cde62f29&#45;&gt;dir_9e71e2da941d3cafc4d98a9f6ae3de4f</title>
<path fill="none" stroke="#000000" d="M92.7764,-143.8314C107.8693,-134.6221 126.3757,-123.3301 142.5343,-113.4706"/>
<polygon fill="#000000" stroke="#000000" points="144.5198,-116.3593 151.2331,-108.1628 140.8737,-110.3838 144.5198,-116.3593"/>
<g id="a_edge2&#45;headlabel"><a xlink:href="dir_000013_000037.xhtml" target="_top" xlink:title="2">
<text text-anchor="middle" x="142.9301" y="-118.1552" font-family="Helvetica,sans-Serif" font-size="10.00" fill="#000000">2</text>
</a>
</g>
</g>
<!-- dir_46fdb196cebdbffe77dac340cde62f29&#45;&gt;dir_214608ef36d61442cb2b0c1c4e9a7def -->
<g id="edge3" class="edge">
<title>dir_46fdb196cebdbffe77dac340cde62f29&#45;&gt;dir_214608ef36d61442cb2b0c1c4e9a7def</title>
<path fill="none" stroke="#000000" d="M47.0095,-143.9169C39.3462,-134.0371 30.9834,-121.1563 27,-108 22.3635,-92.6865 22.3635,-87.3135 27,-72 29.9564,-62.2355 35.3252,-52.6229 41.03,-44.2762"/>
<polygon fill="#000000" stroke="#000000" points="43.9414,-46.2239 47.0095,-36.0831 38.2871,-42.0973 43.9414,-46.2239"/>
<g id="a_edge3&#45;headlabel"><a xlink:href="dir_000013_000000.xhtml" target="_top" xlink:title="82">
<text text-anchor="middle" x="44.1158" y="-48.3013" font-family="Helvetica,sans-Serif" font-size="10.00" fill="#000000">82</text>
</a>
</g>
</g>
<!-- dir_68267d1309a1af8e8297ef4c3efbcdba&#45;&gt;dir_214608ef36d61442cb2b0c1c4e9a7def -->
<g id="edge4" class="edge">
<title>dir_68267d1309a1af8e8297ef4c3efbcdba&#45;&gt;dir_214608ef36d61442cb2b0c1c4e9a7def</title>
<path fill="none" stroke="#000000" d="M63,-71.8314C63,-64.131 63,-54.9743 63,-46.4166"/>
<polygon fill="#000000" stroke="#000000" points="66.5001,-46.4132 63,-36.4133 59.5001,-46.4133 66.5001,-46.4132"/>
<g id="a_edge4&#45;headlabel"><a xlink:href="dir_000003_000000.xhtml" target="_top" xlink:title="3004">
<text text-anchor="middle" x="69.3393" y="-47.5079" font-family="Helvetica,sans-Serif" font-size="10.00" fill="#000000">3004</text>
</a>
</g>
</g>
<!-- dir_9e71e2da941d3cafc4d98a9f6ae3de4f&#45;&gt;dir_214608ef36d61442cb2b0c1c4e9a7def -->
<g id="edge10" class="edge">
<title>dir_9e71e2da941d3cafc4d98a9f6ae3de4f&#45;&gt;dir_214608ef36d61442cb2b0c1c4e9a7def</title>
<path fill="none" stroke="#000000" d="M151.2236,-71.8314C136.1307,-62.6221 117.6243,-51.3301 101.4657,-41.4706"/>
<polygon fill="#000000" stroke="#000000" points="103.1263,-38.3838 92.7669,-36.1628 99.4802,-44.3593 103.1263,-38.3838"/>
<g id="a_edge10&#45;headlabel"><a xlink:href="dir_000037_000000.xhtml" target="_top" xlink:title="16">
<text text-anchor="middle" x="107.6737" y="-35.3323" font-family="Helvetica,sans-Serif" font-size="10.00" fill="#000000">16</text>
</a>
</g>
</g>
<!-- dir_896191444cf08ec8ade6f88256cb2bdd&#45;&gt;dir_68267d1309a1af8e8297ef4c3efbcdba -->
<g id="edge11" class="edge">
<title>dir_896191444cf08ec8ade6f88256cb2bdd&#45;&gt;dir_68267d1309a1af8e8297ef4c3efbcdba</title>
<path fill="none" stroke="#000000" d="M120.5696,-143.8314C111.268,-135.1337 99.9796,-124.5783 89.8714,-115.1265"/>
<polygon fill="#000000" stroke="#000000" points="92.1189,-112.4363 82.4241,-108.1628 87.3379,-117.5493 92.1189,-112.4363"/>
<g id="a_edge11&#45;headlabel"><a xlink:href="dir_000423_000003.xhtml" target="_top" xlink:title="4">
<text text-anchor="middle" x="96.6837" y="-110.3175" font-family="Helvetica,sans-Serif" font-size="10.00" fill="#000000">4</text>
</a>
</g>
</g>
<!-- dir_896191444cf08ec8ade6f88256cb2bdd&#45;&gt;dir_9e71e2da941d3cafc4d98a9f6ae3de4f -->
<g id="edge12" class="edge">
<title>dir_896191444cf08ec8ade6f88256cb2bdd&#45;&gt;dir_9e71e2da941d3cafc4d98a9f6ae3de4f</title>
<path fill="none" stroke="#000000" d="M150.346,-143.8314C154.9237,-135.7925 160.4052,-126.1666 165.4588,-117.2918"/>
<polygon fill="#000000" stroke="#000000" points="168.6077,-118.8351 170.5147,-108.4133 162.5248,-115.3712 168.6077,-118.8351"/>
<g id="a_edge12&#45;headlabel"><a xlink:href="dir_000423_000037.xhtml" target="_top" xlink:title="1">
<text text-anchor="middle" x="169.2963" y="-120.8637" font-family="Helvetica,sans-Serif" font-size="10.00" fill="#000000">1</text>
</a>
</g>
</g>
<!-- dir_896191444cf08ec8ade6f88256cb2bdd&#45;&gt;dir_214608ef36d61442cb2b0c1c4e9a7def -->
<g id="edge13" class="edge">
<title>dir_896191444cf08ec8ade6f88256cb2bdd&#45;&gt;dir_214608ef36d61442cb2b0c1c4e9a7def</title>
<path fill="none" stroke="#000000" d="M132.8047,-143.9965C125.1916,-125.5256 112.4403,-96.1563 99,-72 93.8771,-62.7925 87.693,-53.1061 81.9067,-44.5194"/>
<polygon fill="#000000" stroke="#000000" points="84.6274,-42.2983 76.0819,-36.0353 78.8566,-46.2604 84.6274,-42.2983"/>
<g id="a_edge13&#45;headlabel"><a xlink:href="dir_000423_000000.xhtml" target="_top" xlink:title="6">
<text text-anchor="middle" x="89.0026" y="-41.1547" font-family="Helvetica,sans-Serif" font-size="10.00" fill="#000000">6</text>
</a>
</g>
</g>
</g>
</svg>
