<?xml version="1.0" encoding="UTF-8" standalone="no"?>
<!DOCTYPE svg PUBLIC "-//W3C//DTD SVG 1.1//EN"
 "http://www.w3.org/Graphics/SVG/1.1/DTD/svg11.dtd">
<!-- Generated by graphviz version 2.40.1 (20161225.0304)
 -->
<!-- Title: src/cpu/kernels/elementwise_binary/generic Pages: 1 -->
<svg width="254pt" height="303pt"
 viewBox="0.00 0.00 254.00 303.00" xmlns="http://www.w3.org/2000/svg" xmlns:xlink="http://www.w3.org/1999/xlink">
<g id="graph0" class="graph" transform="scale(1 1) rotate(0) translate(4 299)">
<title>src/cpu/kernels/elementwise_binary/generic</title>
<polygon fill="#ffffff" stroke="transparent" points="-4,4 -4,-299 250,-299 250,4 -4,4"/>
<g id="clust1" class="cluster">
<title>clusterdir_66520ab4814343cef4d99a57e61c0978</title>
<g id="a_clust1"><a xlink:href="dir_66520ab4814343cef4d99a57e61c0978.xhtml" target="_top" xlink:title="elementwise_binary">
<polygon fill="#ddddee" stroke="#000000" points="8,-128 8,-287 238,-287 238,-128 8,-128"/>
<text text-anchor="middle" x="123" y="-275" font-family="Helvetica,sans-Serif" font-size="10.00" fill="#000000">elementwise_binary</text>
</a>
</g>
</g>
<g id="clust2" class="cluster">
<title>clusterdir_8009c81bd03a5456d0f628033db7357f</title>
<g id="a_clust2"><a xlink:href="dir_8009c81bd03a5456d0f628033db7357f.xhtml" target="_top">
<polygon fill="#eeeeff" stroke="#000000" points="16,-136 16,-260 230,-260 230,-136 16,-136"/>
</a>
</g>
</g>
<!-- dir_8009c81bd03a5456d0f628033db7357f -->
<g id="node1" class="node">
<title>dir_8009c81bd03a5456d0f628033db7357f</title>
<text text-anchor="middle" x="195" y="-231.5" font-family="Helvetica,sans-Serif" font-size="10.00" fill="#000000">generic</text>
</g>
<!-- dir_6a94b41c7969531305f6d4628e056858 -->
<g id="node2" class="node">
<title>dir_6a94b41c7969531305f6d4628e056858</title>
<g id="a_node2"><a xlink:href="dir_6a94b41c7969531305f6d4628e056858.xhtml" target="_top" xlink:title="neon">
<polygon fill="#ffffff" stroke="#000000" points="150,-252 96,-252 96,-216 150,-216 150,-252"/>
<text text-anchor="middle" x="123" y="-231.5" font-family="Helvetica,sans-Serif" font-size="10.00" fill="#000000">neon</text>
</a>
</g>
</g>
<!-- dir_214608ef36d61442cb2b0c1c4e9a7def -->
<g id="node5" class="node">
<title>dir_214608ef36d61442cb2b0c1c4e9a7def</title>
<g id="a_node5"><a xlink:href="dir_214608ef36d61442cb2b0c1c4e9a7def.xhtml" target="_top" xlink:title="arm_compute">
<polygon fill="#ffffff" stroke="#ff0000" points="170,-36 86,-36 86,0 170,0 170,-36"/>
<text text-anchor="middle" x="128" y="-15.5" font-family="Helvetica,sans-Serif" font-size="10.00" fill="#000000">arm_compute</text>
</a>
</g>
</g>
<!-- dir_6a94b41c7969531305f6d4628e056858&#45;&gt;dir_214608ef36d61442cb2b0c1c4e9a7def -->
<g id="edge5" class="edge">
<title>dir_6a94b41c7969531305f6d4628e056858&#45;&gt;dir_214608ef36d61442cb2b0c1c4e9a7def</title>
<path fill="none" stroke="#000000" d="M137.2282,-215.6899C154.3844,-192.2766 182.1442,-149.7497 192,-108 195.676,-92.428 198.7421,-86.5101 192,-72 186.5862,-60.3486 177.2831,-50.3063 167.4212,-42.1507"/>
<polygon fill="#000000" stroke="#000000" points="169.5153,-39.3458 159.4561,-36.0198 165.2457,-44.8929 169.5153,-39.3458"/>
<g id="a_edge5&#45;headlabel"><a xlink:href="dir_000334_000000.xhtml" target="_top" xlink:title="4">
<text text-anchor="middle" x="174.0956" y="-36.7883" font-family="Helvetica,sans-Serif" font-size="10.00" fill="#000000">4</text>
</a>
</g>
</g>
<!-- dir_aebb8dcc11953d78e620bbef0b9e2183 -->
<g id="node6" class="node">
<title>dir_aebb8dcc11953d78e620bbef0b9e2183</title>
<g id="a_node6"><a xlink:href="dir_aebb8dcc11953d78e620bbef0b9e2183.xhtml" target="_top" xlink:title="core">
<polygon fill="#ffffff" stroke="#ff0000" points="183,-108 129,-108 129,-72 183,-72 183,-108"/>
<text text-anchor="middle" x="156" y="-87.5" font-family="Helvetica,sans-Serif" font-size="10.00" fill="#000000">core</text>
</a>
</g>
</g>
<!-- dir_6a94b41c7969531305f6d4628e056858&#45;&gt;dir_aebb8dcc11953d78e620bbef0b9e2183 -->
<g id="edge6" class="edge">
<title>dir_6a94b41c7969531305f6d4628e056858&#45;&gt;dir_aebb8dcc11953d78e620bbef0b9e2183</title>
<path fill="none" stroke="#000000" d="M127.1795,-215.7623C132.8329,-191.0928 142.9696,-146.8598 149.5895,-117.9731"/>
<polygon fill="#000000" stroke="#000000" points="153.0322,-118.6188 151.8545,-108.0896 146.2091,-117.0551 153.0322,-118.6188"/>
<g id="a_edge6&#45;headlabel"><a xlink:href="dir_000334_000020.xhtml" target="_top" xlink:title="1">
<text text-anchor="middle" x="154.9968" y="-120.2568" font-family="Helvetica,sans-Serif" font-size="10.00" fill="#000000">1</text>
</a>
</g>
</g>
<!-- dir_a1dbdf61f57a1531ff253117d44bbf21 -->
<g id="node3" class="node">
<title>dir_a1dbdf61f57a1531ff253117d44bbf21</title>
<g id="a_node3"><a xlink:href="dir_a1dbdf61f57a1531ff253117d44bbf21.xhtml" target="_top" xlink:title="sve">
<polygon fill="#ffffff" stroke="#000000" points="78,-180 24,-180 24,-144 78,-144 78,-180"/>
<text text-anchor="middle" x="51" y="-159.5" font-family="Helvetica,sans-Serif" font-size="10.00" fill="#000000">sve</text>
</a>
</g>
</g>
<!-- dir_a1dbdf61f57a1531ff253117d44bbf21&#45;&gt;dir_214608ef36d61442cb2b0c1c4e9a7def -->
<g id="edge1" class="edge">
<title>dir_a1dbdf61f57a1531ff253117d44bbf21&#45;&gt;dir_214608ef36d61442cb2b0c1c4e9a7def</title>
<path fill="none" stroke="#000000" d="M56.6806,-143.7586C62.8576,-125.0982 73.6563,-95.5804 87,-72 92.3914,-62.4726 99.2765,-52.7409 105.8585,-44.2107"/>
<polygon fill="#000000" stroke="#000000" points="108.7951,-46.1408 112.273,-36.133 103.3133,-41.7877 108.7951,-46.1408"/>
<g id="a_edge1&#45;headlabel"><a xlink:href="dir_000335_000000.xhtml" target="_top" xlink:title="3">
<text text-anchor="middle" x="108.7832" y="-48.2215" font-family="Helvetica,sans-Serif" font-size="10.00" fill="#000000">3</text>
</a>
</g>
</g>
<!-- dir_a1dbdf61f57a1531ff253117d44bbf21&#45;&gt;dir_aebb8dcc11953d78e620bbef0b9e2183 -->
<g id="edge2" class="edge">
<title>dir_a1dbdf61f57a1531ff253117d44bbf21&#45;&gt;dir_aebb8dcc11953d78e620bbef0b9e2183</title>
<path fill="none" stroke="#000000" d="M77.4959,-143.8314C90.6774,-134.7927 106.7847,-123.7476 120.9711,-114.0198"/>
<polygon fill="#000000" stroke="#000000" points="123.2446,-116.7047 129.5125,-108.1628 119.2859,-110.9316 123.2446,-116.7047"/>
<g id="a_edge2&#45;headlabel"><a xlink:href="dir_000335_000020.xhtml" target="_top" xlink:title="3">
<text text-anchor="middle" x="121.8857" y="-118.5792" font-family="Helvetica,sans-Serif" font-size="10.00" fill="#000000">3</text>
</a>
</g>
</g>
<!-- dir_e99c15a9621227eff47d3f75c7decb91 -->
<g id="node4" class="node">
<title>dir_e99c15a9621227eff47d3f75c7decb91</title>
<g id="a_node4"><a xlink:href="dir_e99c15a9621227eff47d3f75c7decb91.xhtml" target="_top" xlink:title="sve2">
<polygon fill="#ffffff" stroke="#000000" points="78,-252 24,-252 24,-216 78,-216 78,-252"/>
<text text-anchor="middle" x="51" y="-231.5" font-family="Helvetica,sans-Serif" font-size="10.00" fill="#000000">sve2</text>
</a>
</g>
</g>
<!-- dir_e99c15a9621227eff47d3f75c7decb91&#45;&gt;dir_a1dbdf61f57a1531ff253117d44bbf21 -->
<g id="edge3" class="edge">
<title>dir_e99c15a9621227eff47d3f75c7decb91&#45;&gt;dir_a1dbdf61f57a1531ff253117d44bbf21</title>
<path fill="none" stroke="#000000" d="M51,-215.8314C51,-208.131 51,-198.9743 51,-190.4166"/>
<polygon fill="#000000" stroke="#000000" points="54.5001,-190.4132 51,-180.4133 47.5001,-190.4133 54.5001,-190.4132"/>
<g id="a_edge3&#45;headlabel"><a xlink:href="dir_000377_000335.xhtml" target="_top" xlink:title="1">
<text text-anchor="middle" x="57.3393" y="-191.5079" font-family="Helvetica,sans-Serif" font-size="10.00" fill="#000000">1</text>
</a>
</g>
</g>
<!-- dir_e99c15a9621227eff47d3f75c7decb91&#45;&gt;dir_214608ef36d61442cb2b0c1c4e9a7def -->
<g id="edge4" class="edge">
<title>dir_e99c15a9621227eff47d3f75c7decb91&#45;&gt;dir_214608ef36d61442cb2b0c1c4e9a7def</title>
<path fill="none" stroke="#000000" d="M65.3204,-215.9194C72.7057,-205.8374 81.3292,-192.7689 87,-180 106.8695,-135.2597 118.3584,-79.117 123.8822,-46.041"/>
<polygon fill="#000000" stroke="#000000" points="127.3396,-46.5847 125.4691,-36.1563 120.4281,-45.4751 127.3396,-46.5847"/>
<g id="a_edge4&#45;headlabel"><a xlink:href="dir_000377_000000.xhtml" target="_top" xlink:title="2">
<text text-anchor="middle" x="129.5733" y="-48.0839" font-family="Helvetica,sans-Serif" font-size="10.00" fill="#000000">2</text>
</a>
</g>
</g>
<!-- dir_aebb8dcc11953d78e620bbef0b9e2183&#45;&gt;dir_214608ef36d61442cb2b0c1c4e9a7def -->
<g id="edge7" class="edge">
<title>dir_aebb8dcc11953d78e620bbef0b9e2183&#45;&gt;dir_214608ef36d61442cb2b0c1c4e9a7def</title>
<path fill="none" stroke="#000000" d="M148.9344,-71.8314C145.874,-63.9617 142.2221,-54.5712 138.8318,-45.8533"/>
<polygon fill="#000000" stroke="#000000" points="142.0473,-44.4647 135.1607,-36.4133 135.5232,-47.0019 142.0473,-44.4647"/>
<g id="a_edge7&#45;headlabel"><a xlink:href="dir_000020_000000.xhtml" target="_top" xlink:title="631">
<text text-anchor="middle" x="145.9963" y="-44.2859" font-family="Helvetica,sans-Serif" font-size="10.00" fill="#000000">631</text>
</a>
</g>
</g>
</g>
</svg>
