<?xml version="1.0" encoding="UTF-8" standalone="no"?>
<!DOCTYPE svg PUBLIC "-//W3C//DTD SVG 1.1//EN"
 "http://www.w3.org/Graphics/SVG/1.1/DTD/svg11.dtd">
<!-- Generated by graphviz version 2.40.1 (20161225.0304)
 -->
<!-- Title: src/cpu/kernels/depthwiseconv2d/generic Pages: 1 -->
<svg width="182pt" height="231pt"
 viewBox="0.00 0.00 182.00 231.00" xmlns="http://www.w3.org/2000/svg" xmlns:xlink="http://www.w3.org/1999/xlink">
<g id="graph0" class="graph" transform="scale(1 1) rotate(0) translate(4 227)">
<title>src/cpu/kernels/depthwiseconv2d/generic</title>
<polygon fill="#ffffff" stroke="transparent" points="-4,4 -4,-227 178,-227 178,4 -4,4"/>
<g id="clust1" class="cluster">
<title>clusterdir_6ea70737f7957110aafe418ec507e756</title>
<g id="a_clust1"><a xlink:href="dir_6ea70737f7957110aafe418ec507e756.xhtml" target="_top" xlink:title="depthwiseconv2d">
<polygon fill="#ddddee" stroke="#000000" points="8,-128 8,-215 166,-215 166,-128 8,-128"/>
<text text-anchor="middle" x="87" y="-203" font-family="Helvetica,sans-Serif" font-size="10.00" fill="#000000">depthwiseconv2d</text>
</a>
</g>
</g>
<g id="clust2" class="cluster">
<title>clusterdir_eaa5e6f503e04e7a59bfa7670ffbd507</title>
<g id="a_clust2"><a xlink:href="dir_eaa5e6f503e04e7a59bfa7670ffbd507.xhtml" target="_top">
<polygon fill="#eeeeff" stroke="#000000" points="16,-136 16,-188 158,-188 158,-136 16,-136"/>
</a>
</g>
</g>
<!-- dir_eaa5e6f503e04e7a59bfa7670ffbd507 -->
<g id="node1" class="node">
<title>dir_eaa5e6f503e04e7a59bfa7670ffbd507</title>
<text text-anchor="middle" x="123" y="-159.5" font-family="Helvetica,sans-Serif" font-size="10.00" fill="#000000">generic</text>
</g>
<!-- dir_977d095e705204645eb5f61ea73ccab0 -->
<g id="node2" class="node">
<title>dir_977d095e705204645eb5f61ea73ccab0</title>
<g id="a_node2"><a xlink:href="dir_977d095e705204645eb5f61ea73ccab0.xhtml" target="_top" xlink:title="neon">
<polygon fill="#ffffff" stroke="#000000" points="78,-180 24,-180 24,-144 78,-144 78,-180"/>
<text text-anchor="middle" x="51" y="-159.5" font-family="Helvetica,sans-Serif" font-size="10.00" fill="#000000">neon</text>
</a>
</g>
</g>
<!-- dir_214608ef36d61442cb2b0c1c4e9a7def -->
<g id="node3" class="node">
<title>dir_214608ef36d61442cb2b0c1c4e9a7def</title>
<g id="a_node3"><a xlink:href="dir_214608ef36d61442cb2b0c1c4e9a7def.xhtml" target="_top" xlink:title="arm_compute">
<polygon fill="#ffffff" stroke="#ff0000" points="92,-36 8,-36 8,0 92,0 92,-36"/>
<text text-anchor="middle" x="50" y="-15.5" font-family="Helvetica,sans-Serif" font-size="10.00" fill="#000000">arm_compute</text>
</a>
</g>
</g>
<!-- dir_977d095e705204645eb5f61ea73ccab0&#45;&gt;dir_214608ef36d61442cb2b0c1c4e9a7def -->
<g id="edge2" class="edge">
<title>dir_977d095e705204645eb5f61ea73ccab0&#45;&gt;dir_214608ef36d61442cb2b0c1c4e9a7def</title>
<path fill="none" stroke="#000000" d="M47.1587,-143.6001C45.1834,-133.2025 42.9877,-119.9346 42,-108 40.6803,-92.0545 40.8244,-87.9568 42,-72 42.6169,-63.6264 43.7649,-54.5812 45.0026,-46.3322"/>
<polygon fill="#000000" stroke="#000000" points="48.4648,-46.8463 46.585,-36.4196 41.5523,-45.7428 48.4648,-46.8463"/>
<g id="a_edge2&#45;headlabel"><a xlink:href="dir_000332_000000.xhtml" target="_top" xlink:title="2">
<text text-anchor="middle" x="50.702" y="-48.3436" font-family="Helvetica,sans-Serif" font-size="10.00" fill="#000000">2</text>
</a>
</g>
</g>
<!-- dir_aebb8dcc11953d78e620bbef0b9e2183 -->
<g id="node4" class="node">
<title>dir_aebb8dcc11953d78e620bbef0b9e2183</title>
<g id="a_node4"><a xlink:href="dir_aebb8dcc11953d78e620bbef0b9e2183.xhtml" target="_top" xlink:title="core">
<polygon fill="#ffffff" stroke="#ff0000" points="105,-108 51,-108 51,-72 105,-72 105,-108"/>
<text text-anchor="middle" x="78" y="-87.5" font-family="Helvetica,sans-Serif" font-size="10.00" fill="#000000">core</text>
</a>
</g>
</g>
<!-- dir_977d095e705204645eb5f61ea73ccab0&#45;&gt;dir_aebb8dcc11953d78e620bbef0b9e2183 -->
<g id="edge3" class="edge">
<title>dir_977d095e705204645eb5f61ea73ccab0&#45;&gt;dir_aebb8dcc11953d78e620bbef0b9e2183</title>
<path fill="none" stroke="#000000" d="M57.8132,-143.8314C60.7644,-135.9617 64.2858,-126.5712 67.555,-117.8533"/>
<polygon fill="#000000" stroke="#000000" points="70.8609,-119.0055 71.095,-108.4133 64.3066,-116.5476 70.8609,-119.0055"/>
<g id="a_edge3&#45;headlabel"><a xlink:href="dir_000332_000020.xhtml" target="_top" xlink:title="1">
<text text-anchor="middle" x="72.2573" y="-120.8682" font-family="Helvetica,sans-Serif" font-size="10.00" fill="#000000">1</text>
</a>
</g>
</g>
<!-- dir_aebb8dcc11953d78e620bbef0b9e2183&#45;&gt;dir_214608ef36d61442cb2b0c1c4e9a7def -->
<g id="edge1" class="edge">
<title>dir_aebb8dcc11953d78e620bbef0b9e2183&#45;&gt;dir_214608ef36d61442cb2b0c1c4e9a7def</title>
<path fill="none" stroke="#000000" d="M70.9344,-71.8314C67.874,-63.9617 64.2221,-54.5712 60.8318,-45.8533"/>
<polygon fill="#000000" stroke="#000000" points="64.0473,-44.4647 57.1607,-36.4133 57.5232,-47.0019 64.0473,-44.4647"/>
<g id="a_edge1&#45;headlabel"><a xlink:href="dir_000020_000000.xhtml" target="_top" xlink:title="631">
<text text-anchor="middle" x="67.9963" y="-44.2859" font-family="Helvetica,sans-Serif" font-size="10.00" fill="#000000">631</text>
</a>
</g>
</g>
</g>
</svg>
