<?xml version="1.0" encoding="UTF-8" standalone="no"?>
<!DOCTYPE svg PUBLIC "-//W3C//DTD SVG 1.1//EN"
 "http://www.w3.org/Graphics/SVG/1.1/DTD/svg11.dtd">
<!-- Generated by graphviz version 2.40.1 (20161225.0304)
 -->
<!-- Title: src/cpu/kernels/add/generic Pages: 1 -->
<svg width="326pt" height="231pt"
 viewBox="0.00 0.00 326.00 231.00" xmlns="http://www.w3.org/2000/svg" xmlns:xlink="http://www.w3.org/1999/xlink">
<g id="graph0" class="graph" transform="scale(1 1) rotate(0) translate(4 227)">
<title>src/cpu/kernels/add/generic</title>
<polygon fill="#ffffff" stroke="transparent" points="-4,4 -4,-227 322,-227 322,4 -4,4"/>
<g id="clust1" class="cluster">
<title>clusterdir_7f0c74cf3e327840dbe789f241faca2d</title>
<g id="a_clust1"><a xlink:href="dir_7f0c74cf3e327840dbe789f241faca2d.xhtml" target="_top" xlink:title="add">
<polygon fill="#ddddee" stroke="#000000" points="8,-128 8,-215 310,-215 310,-128 8,-128"/>
<text text-anchor="middle" x="159" y="-203" font-family="Helvetica,sans-Serif" font-size="10.00" fill="#000000">add</text>
</a>
</g>
</g>
<g id="clust2" class="cluster">
<title>clusterdir_b53f57400ea055fa5d0efec8ea5037d2</title>
<g id="a_clust2"><a xlink:href="dir_b53f57400ea055fa5d0efec8ea5037d2.xhtml" target="_top">
<polygon fill="#eeeeff" stroke="#000000" points="16,-136 16,-188 302,-188 302,-136 16,-136"/>
</a>
</g>
</g>
<!-- dir_b53f57400ea055fa5d0efec8ea5037d2 -->
<g id="node1" class="node">
<title>dir_b53f57400ea055fa5d0efec8ea5037d2</title>
<text text-anchor="middle" x="267" y="-159.5" font-family="Helvetica,sans-Serif" font-size="10.00" fill="#000000">generic</text>
</g>
<!-- dir_b7c35eccc6b31413e4d25a6054171f61 -->
<g id="node2" class="node">
<title>dir_b7c35eccc6b31413e4d25a6054171f61</title>
<g id="a_node2"><a xlink:href="dir_b7c35eccc6b31413e4d25a6054171f61.xhtml" target="_top" xlink:title="neon">
<polygon fill="#ffffff" stroke="#000000" points="78,-180 24,-180 24,-144 78,-144 78,-180"/>
<text text-anchor="middle" x="51" y="-159.5" font-family="Helvetica,sans-Serif" font-size="10.00" fill="#000000">neon</text>
</a>
</g>
</g>
<!-- dir_214608ef36d61442cb2b0c1c4e9a7def -->
<g id="node5" class="node">
<title>dir_214608ef36d61442cb2b0c1c4e9a7def</title>
<g id="a_node5"><a xlink:href="dir_214608ef36d61442cb2b0c1c4e9a7def.xhtml" target="_top" xlink:title="arm_compute">
<polygon fill="#ffffff" stroke="#ff0000" points="173,-36 89,-36 89,0 173,0 173,-36"/>
<text text-anchor="middle" x="131" y="-15.5" font-family="Helvetica,sans-Serif" font-size="10.00" fill="#000000">arm_compute</text>
</a>
</g>
</g>
<!-- dir_b7c35eccc6b31413e4d25a6054171f61&#45;&gt;dir_214608ef36d61442cb2b0c1c4e9a7def -->
<g id="edge6" class="edge">
<title>dir_b7c35eccc6b31413e4d25a6054171f61&#45;&gt;dir_214608ef36d61442cb2b0c1c4e9a7def</title>
<path fill="none" stroke="#000000" d="M50.9622,-143.8798C51.6785,-124.788 55.0218,-94.4358 68,-72 74.5454,-60.6848 84.3661,-50.6065 94.3178,-42.3099"/>
<polygon fill="#000000" stroke="#000000" points="96.5769,-44.9859 102.2669,-36.0486 92.2455,-39.4869 96.5769,-44.9859"/>
<g id="a_edge6&#45;headlabel"><a xlink:href="dir_000323_000000.xhtml" target="_top" xlink:title="17">
<text text-anchor="middle" x="95.51" y="-46.9405" font-family="Helvetica,sans-Serif" font-size="10.00" fill="#000000">17</text>
</a>
</g>
</g>
<!-- dir_aebb8dcc11953d78e620bbef0b9e2183 -->
<g id="node6" class="node">
<title>dir_aebb8dcc11953d78e620bbef0b9e2183</title>
<g id="a_node6"><a xlink:href="dir_aebb8dcc11953d78e620bbef0b9e2183.xhtml" target="_top" xlink:title="core">
<polygon fill="#ffffff" stroke="#ff0000" points="131,-108 77,-108 77,-72 131,-72 131,-108"/>
<text text-anchor="middle" x="104" y="-87.5" font-family="Helvetica,sans-Serif" font-size="10.00" fill="#000000">core</text>
</a>
</g>
</g>
<!-- dir_b7c35eccc6b31413e4d25a6054171f61&#45;&gt;dir_aebb8dcc11953d78e620bbef0b9e2183 -->
<g id="edge7" class="edge">
<title>dir_b7c35eccc6b31413e4d25a6054171f61&#45;&gt;dir_aebb8dcc11953d78e620bbef0b9e2183</title>
<path fill="none" stroke="#000000" d="M64.3741,-143.8314C70.4162,-135.6232 77.6763,-125.7606 84.3221,-116.7323"/>
<polygon fill="#000000" stroke="#000000" points="87.3363,-118.5415 90.4458,-108.4133 81.6989,-114.3918 87.3363,-118.5415"/>
<g id="a_edge7&#45;headlabel"><a xlink:href="dir_000323_000020.xhtml" target="_top" xlink:title="7">
<text text-anchor="middle" x="87.4919" y="-120.6195" font-family="Helvetica,sans-Serif" font-size="10.00" fill="#000000">7</text>
</a>
</g>
</g>
<!-- dir_d52e71b034cc1279c2395a7bbdb83fae -->
<g id="node3" class="node">
<title>dir_d52e71b034cc1279c2395a7bbdb83fae</title>
<g id="a_node3"><a xlink:href="dir_d52e71b034cc1279c2395a7bbdb83fae.xhtml" target="_top" xlink:title="sve">
<polygon fill="#ffffff" stroke="#000000" points="150,-180 96,-180 96,-144 150,-144 150,-180"/>
<text text-anchor="middle" x="123" y="-159.5" font-family="Helvetica,sans-Serif" font-size="10.00" fill="#000000">sve</text>
</a>
</g>
</g>
<!-- dir_d52e71b034cc1279c2395a7bbdb83fae&#45;&gt;dir_214608ef36d61442cb2b0c1c4e9a7def -->
<g id="edge1" class="edge">
<title>dir_d52e71b034cc1279c2395a7bbdb83fae&#45;&gt;dir_214608ef36d61442cb2b0c1c4e9a7def</title>
<path fill="none" stroke="#000000" d="M130.2439,-143.8366C133.9712,-133.513 138.1188,-120.2403 140,-108 143.1755,-87.3381 140.6146,-63.8275 137.4246,-46.0184"/>
<polygon fill="#000000" stroke="#000000" points="140.8188,-45.1385 135.4578,-36.0001 133.9499,-46.4871 140.8188,-45.1385"/>
<g id="a_edge1&#45;headlabel"><a xlink:href="dir_000324_000000.xhtml" target="_top" xlink:title="9">
<text text-anchor="middle" x="144.2973" y="-45.6188" font-family="Helvetica,sans-Serif" font-size="10.00" fill="#000000">9</text>
</a>
</g>
</g>
<!-- dir_d52e71b034cc1279c2395a7bbdb83fae&#45;&gt;dir_aebb8dcc11953d78e620bbef0b9e2183 -->
<g id="edge2" class="edge">
<title>dir_d52e71b034cc1279c2395a7bbdb83fae&#45;&gt;dir_aebb8dcc11953d78e620bbef0b9e2183</title>
<path fill="none" stroke="#000000" d="M118.2055,-143.8314C116.1511,-136.0463 113.704,-126.7729 111.4244,-118.1347"/>
<polygon fill="#000000" stroke="#000000" points="114.7948,-117.1892 108.8591,-108.4133 108.0265,-118.9753 114.7948,-117.1892"/>
<g id="a_edge2&#45;headlabel"><a xlink:href="dir_000324_000020.xhtml" target="_top" xlink:title="2">
<text text-anchor="middle" x="118.4572" y="-117.4404" font-family="Helvetica,sans-Serif" font-size="10.00" fill="#000000">2</text>
</a>
</g>
</g>
<!-- dir_2cdee17d2671be52fa4558354d86db06 -->
<g id="node4" class="node">
<title>dir_2cdee17d2671be52fa4558354d86db06</title>
<g id="a_node4"><a xlink:href="dir_2cdee17d2671be52fa4558354d86db06.xhtml" target="_top" xlink:title="sve2">
<polygon fill="#ffffff" stroke="#000000" points="222,-180 168,-180 168,-144 222,-144 222,-180"/>
<text text-anchor="middle" x="195" y="-159.5" font-family="Helvetica,sans-Serif" font-size="10.00" fill="#000000">sve2</text>
</a>
</g>
</g>
<!-- dir_2cdee17d2671be52fa4558354d86db06&#45;&gt;dir_214608ef36d61442cb2b0c1c4e9a7def -->
<g id="edge3" class="edge">
<title>dir_2cdee17d2671be52fa4558354d86db06&#45;&gt;dir_214608ef36d61442cb2b0c1c4e9a7def</title>
<path fill="none" stroke="#000000" d="M186.8944,-143.7623C175.8821,-118.9846 156.0984,-74.4714 143.2639,-45.5939"/>
<polygon fill="#000000" stroke="#000000" points="146.2996,-43.8062 139.0398,-36.0896 139.9029,-46.6492 146.2996,-43.8062"/>
<g id="a_edge3&#45;headlabel"><a xlink:href="dir_000380_000000.xhtml" target="_top" xlink:title="12">
<text text-anchor="middle" x="150.354" y="-43.4379" font-family="Helvetica,sans-Serif" font-size="10.00" fill="#000000">12</text>
</a>
</g>
</g>
<!-- dir_2cdee17d2671be52fa4558354d86db06&#45;&gt;dir_aebb8dcc11953d78e620bbef0b9e2183 -->
<g id="edge4" class="edge">
<title>dir_2cdee17d2671be52fa4558354d86db06&#45;&gt;dir_aebb8dcc11953d78e620bbef0b9e2183</title>
<path fill="none" stroke="#000000" d="M176.8044,-143.7944C171.2472,-138.5172 165.0127,-132.8694 159,-128 152.8486,-123.0183 146.071,-117.9938 139.4376,-113.303"/>
<polygon fill="#000000" stroke="#000000" points="141.3818,-110.392 131.1703,-107.568 137.3919,-116.1436 141.3818,-110.392"/>
<g id="a_edge4&#45;headlabel"><a xlink:href="dir_000380_000020.xhtml" target="_top" xlink:title="6">
<text text-anchor="middle" x="145.9537" y="-107.6079" font-family="Helvetica,sans-Serif" font-size="10.00" fill="#000000">6</text>
</a>
</g>
</g>
<!-- dir_aebb8dcc11953d78e620bbef0b9e2183&#45;&gt;dir_214608ef36d61442cb2b0c1c4e9a7def -->
<g id="edge5" class="edge">
<title>dir_aebb8dcc11953d78e620bbef0b9e2183&#45;&gt;dir_214608ef36d61442cb2b0c1c4e9a7def</title>
<path fill="none" stroke="#000000" d="M110.8132,-71.8314C113.7644,-63.9617 117.2858,-54.5712 120.555,-45.8533"/>
<polygon fill="#000000" stroke="#000000" points="123.8609,-47.0055 124.095,-36.4133 117.3066,-44.5476 123.8609,-47.0055"/>
<g id="a_edge5&#45;headlabel"><a xlink:href="dir_000020_000000.xhtml" target="_top" xlink:title="631">
<text text-anchor="middle" x="125.2573" y="-48.8682" font-family="Helvetica,sans-Serif" font-size="10.00" fill="#000000">631</text>
</a>
</g>
</g>
</g>
</svg>
