<?xml version="1.0" encoding="UTF-8" standalone="no"?>
<!DOCTYPE svg PUBLIC "-//W3C//DTD SVG 1.1//EN"
 "http://www.w3.org/Graphics/SVG/1.1/DTD/svg11.dtd">
<!-- Generated by graphviz version 2.40.1 (20161225.0304)
 -->
<!-- Title: Graphical Class Hierarchy Pages: 1 -->
<svg width="383pt" height="142pt"
 viewBox="0.00 0.00 383.00 142.00" xmlns="http://www.w3.org/2000/svg" xmlns:xlink="http://www.w3.org/1999/xlink">
<g id="graph0" class="graph" transform="scale(1 1) rotate(0) translate(4 138)">
<title>Graphical Class Hierarchy</title>
<polygon fill="#ffffff" stroke="transparent" points="-4,4 -4,-138 379,-138 379,4 -4,4"/>
<!-- Node0 -->
<g id="node1" class="node">
<title>Node0</title>
<g id="a_node1"><a xlink:href="classarm__compute_1_1_i_array.xhtml" target="_top" xlink:title="Array of type T. ">
<polygon fill="#ffffff" stroke="#000000" points="0,-57.5 0,-76.5 74,-76.5 74,-57.5 0,-57.5"/>
<text text-anchor="middle" x="37" y="-64.5" font-family="Helvetica,sans-Serif" font-size="10.00" fill="#000000">IArray&lt; T &gt;</text>
</a>
</g>
</g>
<!-- Node1 -->
<g id="node2" class="node">
<title>Node1</title>
<g id="a_node2"><a xlink:href="classarm__compute_1_1_array.xhtml" target="_top" xlink:title="Basic implementation of the IArray interface which allocates a static number of T values...">
<polygon fill="#ffffff" stroke="#000000" points="132.5,-114.5 132.5,-133.5 203.5,-133.5 203.5,-114.5 132.5,-114.5"/>
<text text-anchor="middle" x="168" y="-121.5" font-family="Helvetica,sans-Serif" font-size="10.00" fill="#000000">Array&lt; T &gt;</text>
</a>
</g>
</g>
<!-- Node0&#45;&gt;Node1 -->
<g id="edge1" class="edge">
<title>Node0&#45;&gt;Node1</title>
<path fill="none" stroke="#191970" d="M62.3528,-81.5019C76.1743,-89.0724 93.7354,-98.1568 110,-105 118.204,-108.4518 127.2688,-111.684 135.7461,-114.4691"/>
<polygon fill="#191970" stroke="#191970" points="63.8843,-78.3488 53.4435,-76.5488 60.4829,-84.4669 63.8843,-78.3488"/>
</g>
<!-- Node2 -->
<g id="node3" class="node">
<title>Node2</title>
<g id="a_node3"><a xlink:href="classarm__compute_1_1_i_c_l_array.xhtml" target="_top" xlink:title="Interface for OpenCL Array. ">
<polygon fill="#ffffff" stroke="#000000" points="125,-76.5 125,-95.5 211,-95.5 211,-76.5 125,-76.5"/>
<text text-anchor="middle" x="168" y="-83.5" font-family="Helvetica,sans-Serif" font-size="10.00" fill="#000000">ICLArray&lt; T &gt;</text>
</a>
</g>
</g>
<!-- Node0&#45;&gt;Node2 -->
<g id="edge2" class="edge">
<title>Node0&#45;&gt;Node2</title>
<path fill="none" stroke="#191970" d="M84.4608,-73.8836C97.6059,-75.7902 111.8024,-77.8492 124.6972,-79.7194"/>
<polygon fill="#191970" stroke="#191970" points="84.5878,-70.3655 74.1889,-72.3938 83.583,-77.293 84.5878,-70.3655"/>
</g>
<!-- Node4 -->
<g id="node5" class="node">
<title>Node4</title>
<g id="a_node5"><a xlink:href="classarm__compute_1_1_i_c_l_array.xhtml" target="_top" xlink:title="ICLArray\&lt; cl_float \&gt;">
<polygon fill="#ffffff" stroke="#000000" points="110,-38.5 110,-57.5 226,-57.5 226,-38.5 110,-38.5"/>
<text text-anchor="middle" x="168" y="-45.5" font-family="Helvetica,sans-Serif" font-size="10.00" fill="#000000">ICLArray&lt; cl_float &gt;</text>
</a>
</g>
</g>
<!-- Node0&#45;&gt;Node4 -->
<g id="edge4" class="edge">
<title>Node0&#45;&gt;Node4</title>
<path fill="none" stroke="#191970" d="M84.3332,-60.1349C92.5509,-58.943 101.1829,-57.691 109.6534,-56.4625"/>
<polygon fill="#191970" stroke="#191970" points="83.583,-56.707 74.1889,-61.6062 84.5878,-63.6345 83.583,-56.707"/>
</g>
<!-- Node6 -->
<g id="node7" class="node">
<title>Node6</title>
<g id="a_node7"><a xlink:href="classarm__compute_1_1_i_c_l_array.xhtml" target="_top" xlink:title="ICLArray\&lt; cl_int \&gt;">
<polygon fill="#ffffff" stroke="#000000" points="114.5,-.5 114.5,-19.5 221.5,-19.5 221.5,-.5 114.5,-.5"/>
<text text-anchor="middle" x="168" y="-7.5" font-family="Helvetica,sans-Serif" font-size="10.00" fill="#000000">ICLArray&lt; cl_int &gt;</text>
</a>
</g>
</g>
<!-- Node0&#45;&gt;Node6 -->
<g id="edge6" class="edge">
<title>Node0&#45;&gt;Node6</title>
<path fill="none" stroke="#191970" d="M62.3528,-52.4981C76.1743,-44.9276 93.7354,-35.8432 110,-29 118.204,-25.5482 127.2688,-22.316 135.7461,-19.5309"/>
<polygon fill="#191970" stroke="#191970" points="60.4829,-49.5331 53.4435,-57.4512 63.8843,-55.6512 60.4829,-49.5331"/>
</g>
<!-- Node3 -->
<g id="node4" class="node">
<title>Node3</title>
<g id="a_node4"><a xlink:href="classarm__compute_1_1_c_l_array.xhtml" target="_top" xlink:title="CLArray implementation. ">
<polygon fill="#ffffff" stroke="#000000" points="277,-76.5 277,-95.5 360,-95.5 360,-76.5 277,-76.5"/>
<text text-anchor="middle" x="318.5" y="-83.5" font-family="Helvetica,sans-Serif" font-size="10.00" fill="#000000">CLArray&lt; T &gt;</text>
</a>
</g>
</g>
<!-- Node2&#45;&gt;Node3 -->
<g id="edge3" class="edge">
<title>Node2&#45;&gt;Node3</title>
<path fill="none" stroke="#191970" d="M221.3327,-86C239.5898,-86 259.7326,-86 276.9223,-86"/>
<polygon fill="#191970" stroke="#191970" points="221.1273,-82.5001 211.1273,-86 221.1272,-89.5001 221.1273,-82.5001"/>
</g>
<!-- Node5 -->
<g id="node6" class="node">
<title>Node5</title>
<g id="a_node6"><a xlink:href="classarm__compute_1_1_c_l_array.xhtml" target="_top" xlink:title="CLArray\&lt; cl_float \&gt;">
<polygon fill="#ffffff" stroke="#000000" points="262,-38.5 262,-57.5 375,-57.5 375,-38.5 262,-38.5"/>
<text text-anchor="middle" x="318.5" y="-45.5" font-family="Helvetica,sans-Serif" font-size="10.00" fill="#000000">CLArray&lt; cl_float &gt;</text>
</a>
</g>
</g>
<!-- Node4&#45;&gt;Node5 -->
<g id="edge5" class="edge">
<title>Node4&#45;&gt;Node5</title>
<path fill="none" stroke="#191970" d="M236.2093,-48C244.8184,-48 253.5515,-48 261.9525,-48"/>
<polygon fill="#191970" stroke="#191970" points="236.1873,-44.5001 226.1872,-48 236.1872,-51.5001 236.1873,-44.5001"/>
</g>
<!-- Node7 -->
<g id="node8" class="node">
<title>Node7</title>
<g id="a_node8"><a xlink:href="classarm__compute_1_1_c_l_array.xhtml" target="_top" xlink:title="CLArray\&lt; cl_int \&gt;">
<polygon fill="#ffffff" stroke="#000000" points="266.5,-.5 266.5,-19.5 370.5,-19.5 370.5,-.5 266.5,-.5"/>
<text text-anchor="middle" x="318.5" y="-7.5" font-family="Helvetica,sans-Serif" font-size="10.00" fill="#000000">CLArray&lt; cl_int &gt;</text>
</a>
</g>
</g>
<!-- Node6&#45;&gt;Node7 -->
<g id="edge7" class="edge">
<title>Node6&#45;&gt;Node7</title>
<path fill="none" stroke="#191970" d="M231.9189,-10C243.4478,-10 255.34,-10 266.4792,-10"/>
<polygon fill="#191970" stroke="#191970" points="231.9089,-6.5001 221.9089,-10 231.9088,-13.5001 231.9089,-6.5001"/>
</g>
</g>
</svg>
