<?xml version="1.0" encoding="UTF-8" standalone="no"?>
<!DOCTYPE svg PUBLIC "-//W3C//DTD SVG 1.1//EN"
 "http://www.w3.org/Graphics/SVG/1.1/DTD/svg11.dtd">
<!-- Generated by graphviz version 2.40.1 (20161225.0304)
 -->
<!-- Title: Graphical Class Hierarchy Pages: 1 -->
<svg width="379pt" height="66pt"
 viewBox="0.00 0.00 379.00 66.00" xmlns="http://www.w3.org/2000/svg" xmlns:xlink="http://www.w3.org/1999/xlink">
<g id="graph0" class="graph" transform="scale(1 1) rotate(0) translate(4 62)">
<title>Graphical Class Hierarchy</title>
<polygon fill="#ffffff" stroke="transparent" points="-4,4 -4,-62 375,-62 375,4 -4,4"/>
<!-- Node0 -->
<g id="node1" class="node">
<title>Node0</title>
<g id="a_node1"><a xlink:href="classarm__compute_1_1misc_1_1_i_cloneable.xhtml" target="_top" xlink:title="ICloneable\&lt; ITensorInfo \&gt;">
<polygon fill="#ffffff" stroke="#000000" points="0,-19.5 0,-38.5 144,-38.5 144,-19.5 0,-19.5"/>
<text text-anchor="middle" x="72" y="-26.5" font-family="Helvetica,sans-Serif" font-size="10.00" fill="#000000">ICloneable&lt; ITensorInfo &gt;</text>
</a>
</g>
</g>
<!-- Node1 -->
<g id="node2" class="node">
<title>Node1</title>
<g id="a_node2"><a xlink:href="classarm__compute_1_1_i_tensor_info.xhtml" target="_top" xlink:title="Store the tensor&#39;s metadata. ">
<polygon fill="#ffffff" stroke="#000000" points="180,-19.5 180,-38.5 250,-38.5 250,-19.5 180,-19.5"/>
<text text-anchor="middle" x="215" y="-26.5" font-family="Helvetica,sans-Serif" font-size="10.00" fill="#000000">ITensorInfo</text>
</a>
</g>
</g>
<!-- Node0&#45;&gt;Node1 -->
<g id="edge1" class="edge">
<title>Node0&#45;&gt;Node1</title>
<path fill="none" stroke="#191970" d="M154.4156,-29C163.2818,-29 171.9187,-29 179.7635,-29"/>
<polygon fill="#191970" stroke="#191970" points="154.3379,-25.5001 144.3379,-29 154.3378,-32.5001 154.3379,-25.5001"/>
</g>
<!-- Node2 -->
<g id="node3" class="node">
<title>Node2</title>
<g id="a_node3"><a xlink:href="classarm__compute_1_1_sub_tensor_info.xhtml" target="_top" xlink:title="Store the sub tensor&#39;s metadata. ">
<polygon fill="#ffffff" stroke="#000000" points="286,-38.5 286,-57.5 371,-57.5 371,-38.5 286,-38.5"/>
<text text-anchor="middle" x="328.5" y="-45.5" font-family="Helvetica,sans-Serif" font-size="10.00" fill="#000000">SubTensorInfo</text>
</a>
</g>
</g>
<!-- Node1&#45;&gt;Node2 -->
<g id="edge2" class="edge">
<title>Node1&#45;&gt;Node2</title>
<path fill="none" stroke="#191970" d="M260.2719,-36.5786C268.639,-37.9792 277.3535,-39.438 285.6461,-40.8262"/>
<polygon fill="#191970" stroke="#191970" points="260.7306,-33.1067 250.2899,-34.9076 259.5748,-40.0107 260.7306,-33.1067"/>
</g>
<!-- Node3 -->
<g id="node4" class="node">
<title>Node3</title>
<g id="a_node4"><a xlink:href="classarm__compute_1_1_tensor_info.xhtml" target="_top" xlink:title="Store the tensor&#39;s metadata. ">
<polygon fill="#ffffff" stroke="#000000" points="295,-.5 295,-19.5 362,-19.5 362,-.5 295,-.5"/>
<text text-anchor="middle" x="328.5" y="-7.5" font-family="Helvetica,sans-Serif" font-size="10.00" fill="#000000">TensorInfo</text>
</a>
</g>
</g>
<!-- Node1&#45;&gt;Node3 -->
<g id="edge3" class="edge">
<title>Node1&#45;&gt;Node3</title>
<path fill="none" stroke="#191970" d="M260.2046,-21.4327C271.7391,-19.5018 283.938,-17.4597 294.7847,-15.644"/>
<polygon fill="#191970" stroke="#191970" points="259.5748,-17.9893 250.2899,-23.0924 260.7306,-24.8933 259.5748,-17.9893"/>
</g>
</g>
</svg>
