<?xml version="1.0" encoding="UTF-8" standalone="no"?>
<!DOCTYPE svg PUBLIC "-//W3C//DTD SVG 1.1//EN"
 "http://www.w3.org/Graphics/SVG/1.1/DTD/svg11.dtd">
<!-- Generated by graphviz version 2.40.1 (20161225.0304)
 -->
<!-- Title: Graphical Class Hierarchy Pages: 1 -->
<svg width="224pt" height="66pt"
 viewBox="0.00 0.00 224.00 66.00" xmlns="http://www.w3.org/2000/svg" xmlns:xlink="http://www.w3.org/1999/xlink">
<g id="graph0" class="graph" transform="scale(1 1) rotate(0) translate(4 62)">
<title>Graphical Class Hierarchy</title>
<polygon fill="#ffffff" stroke="transparent" points="-4,4 -4,-62 220,-62 220,4 -4,4"/>
<!-- Node0 -->
<g id="node1" class="node">
<title>Node0</title>
<g id="a_node1"><a xlink:href="structarm__compute_1_1experimental_1_1dynamic__fusion_1_1_cl_kernel.xhtml" target="_top" xlink:title="ClKernel">
<polygon fill="#ffffff" stroke="#000000" points="0,-19.5 0,-38.5 57,-38.5 57,-19.5 0,-19.5"/>
<text text-anchor="middle" x="28.5" y="-26.5" font-family="Helvetica,sans-Serif" font-size="10.00" fill="#000000">ClKernel</text>
</a>
</g>
</g>
<!-- Node1 -->
<g id="node2" class="node">
<title>Node1</title>
<g id="a_node2"><a xlink:href="structarm__compute_1_1experimental_1_1dynamic__fusion_1_1_cl_add_kernel.xhtml" target="_top" xlink:title="ClAddKernel">
<polygon fill="#ffffff" stroke="#000000" points="116.5,-38.5 116.5,-57.5 192.5,-57.5 192.5,-38.5 116.5,-38.5"/>
<text text-anchor="middle" x="154.5" y="-45.5" font-family="Helvetica,sans-Serif" font-size="10.00" fill="#000000">ClAddKernel</text>
</a>
</g>
</g>
<!-- Node0&#45;&gt;Node1 -->
<g id="edge1" class="edge">
<title>Node0&#45;&gt;Node1</title>
<path fill="none" stroke="#191970" d="M67.0112,-34.8072C82.7107,-37.1746 100.8131,-39.9044 116.4635,-42.2643"/>
<polygon fill="#191970" stroke="#191970" points="67.5015,-31.3417 57.0914,-33.3114 66.4577,-38.2634 67.5015,-31.3417"/>
</g>
<!-- Node2 -->
<g id="node3" class="node">
<title>Node2</title>
<g id="a_node3"><a xlink:href="structarm__compute_1_1experimental_1_1dynamic__fusion_1_1_cl_direct_conv2d_kernel.xhtml" target="_top" xlink:title="ClDirectConv2dKernel">
<polygon fill="#ffffff" stroke="#000000" points="93,-.5 93,-19.5 216,-19.5 216,-.5 93,-.5"/>
<text text-anchor="middle" x="154.5" y="-7.5" font-family="Helvetica,sans-Serif" font-size="10.00" fill="#000000">ClDirectConv2dKernel</text>
</a>
</g>
</g>
<!-- Node0&#45;&gt;Node2 -->
<g id="edge2" class="edge">
<title>Node0&#45;&gt;Node2</title>
<path fill="none" stroke="#191970" d="M67.0483,-23.1872C75.2244,-21.9543 84.0508,-20.6233 92.8424,-19.2976"/>
<polygon fill="#191970" stroke="#191970" points="66.4577,-19.7366 57.0914,-24.6886 67.5015,-26.6583 66.4577,-19.7366"/>
</g>
</g>
</svg>
