<?xml version="1.0" encoding="UTF-8" standalone="no"?>
<!DOCTYPE svg PUBLIC "-//W3C//DTD SVG 1.1//EN"
 "http://www.w3.org/Graphics/SVG/1.1/DTD/svg11.dtd">
<!-- Generated by graphviz version 2.40.1 (20161225.0304)
 -->
<!-- Title: Graphical Class Hierarchy Pages: 1 -->
<svg width="266pt" height="66pt"
 viewBox="0.00 0.00 266.00 66.00" xmlns="http://www.w3.org/2000/svg" xmlns:xlink="http://www.w3.org/1999/xlink">
<g id="graph0" class="graph" transform="scale(1 1) rotate(0) translate(4 62)">
<title>Graphical Class Hierarchy</title>
<polygon fill="#ffffff" stroke="transparent" points="-4,4 -4,-62 262,-62 262,4 -4,4"/>
<!-- Node309 -->
<g id="node1" class="node">
<title>Node309</title>
<polygon fill="#ffffff" stroke="#bfbfbf" points="0,-19.5 0,-38.5 97,-38.5 97,-19.5 0,-19.5"/>
<text text-anchor="middle" x="48.5" y="-26.5" font-family="Helvetica,sans-Serif" font-size="10.00" fill="#000000">is_floating_point</text>
</g>
<!-- Node0 -->
<g id="node2" class="node">
<title>Node0</title>
<g id="a_node2"><a xlink:href="structarm__compute_1_1test_1_1validation_1_1is__floating__point.xhtml" target="_top" xlink:title="is_floating_point\&lt; T \&gt;">
<polygon fill="#ffffff" stroke="#000000" points="133,-38.5 133,-57.5 258,-57.5 258,-38.5 133,-38.5"/>
<text text-anchor="middle" x="195.5" y="-45.5" font-family="Helvetica,sans-Serif" font-size="10.00" fill="#000000">is_floating_point&lt; T &gt;</text>
</a>
</g>
</g>
<!-- Node309&#45;&gt;Node0 -->
<g id="edge1" class="edge">
<title>Node309&#45;&gt;Node0</title>
<path fill="none" stroke="#191970" d="M107.1746,-36.5838C115.6194,-37.6753 124.3366,-38.802 132.8548,-39.903"/>
<polygon fill="#191970" stroke="#191970" points="107.4069,-33.0848 97.0407,-35.274 106.5095,-40.027 107.4069,-33.0848"/>
</g>
<!-- Node311 -->
<g id="node3" class="node">
<title>Node311</title>
<g id="a_node3"><a xlink:href="structarm__compute_1_1utils_1_1traits_1_1is__floating__point.xhtml" target="_top" xlink:title="is_floating_point\&lt; T \&gt;">
<polygon fill="#ffffff" stroke="#000000" points="133,-.5 133,-19.5 258,-19.5 258,-.5 133,-.5"/>
<text text-anchor="middle" x="195.5" y="-7.5" font-family="Helvetica,sans-Serif" font-size="10.00" fill="#000000">is_floating_point&lt; T &gt;</text>
</a>
</g>
</g>
<!-- Node309&#45;&gt;Node311 -->
<g id="edge2" class="edge">
<title>Node309&#45;&gt;Node311</title>
<path fill="none" stroke="#191970" d="M107.1746,-21.4162C115.6194,-20.3247 124.3366,-19.198 132.8548,-18.097"/>
<polygon fill="#191970" stroke="#191970" points="106.5095,-17.973 97.0407,-22.726 107.4069,-24.9152 106.5095,-17.973"/>
</g>
</g>
</svg>
