<?xml version="1.0" encoding="UTF-8" standalone="no"?>
<!DOCTYPE svg PUBLIC "-//W3C//DTD SVG 1.1//EN"
 "http://www.w3.org/Graphics/SVG/1.1/DTD/svg11.dtd">
<!-- Generated by graphviz version 2.40.1 (20161225.0304)
 -->
<!-- Title: TensorDescriptor Pages: 1 -->
<svg width="565pt" height="229pt"
 viewBox="0.00 0.00 564.50 229.00" xmlns="http://www.w3.org/2000/svg" xmlns:xlink="http://www.w3.org/1999/xlink">
<g id="graph0" class="graph" transform="scale(1 1) rotate(0) translate(4 225)">
<title>TensorDescriptor</title>
<polygon fill="#ffffff" stroke="transparent" points="-4,4 -4,-225 560.5,-225 560.5,4 -4,4"/>
<!-- Node0 -->
<g id="node1" class="node">
<title>Node0</title>
<polygon fill="#bfbfbf" stroke="#000000" points="264.5,-.5 264.5,-19.5 362.5,-19.5 362.5,-.5 264.5,-.5"/>
<text text-anchor="middle" x="313.5" y="-7.5" font-family="Helvetica,sans-Serif" font-size="10.00" fill="#000000">TensorDescriptor</text>
</g>
<!-- Node1 -->
<g id="node2" class="node">
<title>Node1</title>
<g id="a_node2"><a xlink:href="classarm__compute_1_1misc_1_1_i_cloneable.xhtml" target="_top" xlink:title="ICloneable\&lt; TensorDescriptor \&gt;">
<polygon fill="#ffffff" stroke="#000000" points="0,-67.5 0,-86.5 173,-86.5 173,-67.5 0,-67.5"/>
<text text-anchor="middle" x="86.5" y="-74.5" font-family="Helvetica,sans-Serif" font-size="10.00" fill="#000000">ICloneable&lt; TensorDescriptor &gt;</text>
</a>
</g>
</g>
<!-- Node1&#45;&gt;Node0 -->
<g id="edge1" class="edge">
<title>Node1&#45;&gt;Node0</title>
<path fill="none" stroke="#191970" d="M128.8648,-64.4958C172.9525,-51.4832 241.0307,-31.3896 281.0368,-19.5817"/>
<polygon fill="#191970" stroke="#191970" points="127.6237,-61.2128 119.0236,-67.4005 129.6053,-67.9265 127.6237,-61.2128"/>
</g>
<!-- Node2 -->
<g id="node3" class="node">
<title>Node2</title>
<g id="a_node3"><a xlink:href="classarm__compute_1_1misc_1_1_i_cloneable.xhtml" target="_top" xlink:title="Clonable Interface. ">
<polygon fill="#ffffff" stroke="#000000" points="38,-134.5 38,-153.5 135,-153.5 135,-134.5 38,-134.5"/>
<text text-anchor="middle" x="86.5" y="-141.5" font-family="Helvetica,sans-Serif" font-size="10.00" fill="#000000">ICloneable&lt; T &gt;</text>
</a>
</g>
</g>
<!-- Node2&#45;&gt;Node1 -->
<g id="edge2" class="edge">
<title>Node2&#45;&gt;Node1</title>
<path fill="none" stroke="#ffa500" stroke-dasharray="5,2" d="M86.5,-124.1079C86.5,-111.714 86.5,-96.3263 86.5,-86.5817"/>
<polygon fill="#ffa500" stroke="#ffa500" points="83.0001,-124.4005 86.5,-134.4005 90.0001,-124.4006 83.0001,-124.4005"/>
<text text-anchor="middle" x="140.5" y="-108" font-family="Helvetica,sans-Serif" font-size="10.00" fill="#000000"> &lt; TensorDescriptor &gt;</text>
</g>
<!-- Node3 -->
<g id="node4" class="node">
<title>Node3</title>
<polygon fill="#ffffff" stroke="#bfbfbf" points="191,-67.5 191,-86.5 264,-86.5 264,-67.5 191,-67.5"/>
<text text-anchor="middle" x="227.5" y="-74.5" font-family="Helvetica,sans-Serif" font-size="10.00" fill="#000000">DataLayout</text>
</g>
<!-- Node3&#45;&gt;Node0 -->
<g id="edge3" class="edge">
<title>Node3&#45;&gt;Node0</title>
<path fill="none" stroke="#9a32cd" stroke-dasharray="5,2" d="M247.182,-60.659C255.799,-53.5958 266.0749,-45.2948 275.5,-38 283.5358,-31.7805 292.7024,-25.0168 300.019,-19.6953"/>
<polygon fill="#9a32cd" stroke="#9a32cd" points="244.7032,-58.1663 239.2109,-67.2264 249.1544,-63.5688 244.7032,-58.1663"/>
<text text-anchor="middle" x="292.5" y="-41" font-family="Helvetica,sans-Serif" font-size="10.00" fill="#000000"> layout</text>
</g>
<!-- Node4 -->
<g id="node5" class="node">
<title>Node4</title>
<polygon fill="#ffffff" stroke="#bfbfbf" points="282.5,-67.5 282.5,-86.5 344.5,-86.5 344.5,-67.5 282.5,-67.5"/>
<text text-anchor="middle" x="313.5" y="-74.5" font-family="Helvetica,sans-Serif" font-size="10.00" fill="#000000">DataType</text>
</g>
<!-- Node4&#45;&gt;Node0 -->
<g id="edge4" class="edge">
<title>Node4&#45;&gt;Node0</title>
<path fill="none" stroke="#9a32cd" stroke-dasharray="5,2" d="M313.5,-57.1079C313.5,-44.714 313.5,-29.3263 313.5,-19.5817"/>
<polygon fill="#9a32cd" stroke="#9a32cd" points="310.0001,-57.4005 313.5,-67.4005 317.0001,-57.4006 310.0001,-57.4005"/>
<text text-anchor="middle" x="339.5" y="-41" font-family="Helvetica,sans-Serif" font-size="10.00" fill="#000000"> data_type</text>
</g>
<!-- Node5 -->
<g id="node6" class="node">
<title>Node5</title>
<g id="a_node6"><a xlink:href="classarm__compute_1_1_tensor_shape.xhtml" target="_top" xlink:title="Shape of a tensor. ">
<polygon fill="#ffffff" stroke="#000000" points="362.5,-67.5 362.5,-86.5 440.5,-86.5 440.5,-67.5 362.5,-67.5"/>
<text text-anchor="middle" x="401.5" y="-74.5" font-family="Helvetica,sans-Serif" font-size="10.00" fill="#000000">TensorShape</text>
</a>
</g>
</g>
<!-- Node5&#45;&gt;Node0 -->
<g id="edge5" class="edge">
<title>Node5&#45;&gt;Node0</title>
<path fill="none" stroke="#9a32cd" stroke-dasharray="5,2" d="M389.2355,-58.9393C383.7787,-51.8052 376.9119,-43.9164 369.5,-38 360.0703,-30.473 348.2897,-24.2092 337.9698,-19.5283"/>
<polygon fill="#9a32cd" stroke="#9a32cd" points="386.6331,-61.3136 395.3283,-67.3671 392.306,-57.2125 386.6331,-61.3136"/>
<text text-anchor="middle" x="397" y="-41" font-family="Helvetica,sans-Serif" font-size="10.00" fill="#000000"> shape</text>
</g>
<!-- Node6 -->
<g id="node7" class="node">
<title>Node6</title>
<g id="a_node7"><a xlink:href="classarm__compute_1_1_dimensions.xhtml" target="_top" xlink:title="Dimensions\&lt; size_t \&gt;">
<polygon fill="#ffffff" stroke="#000000" points="339,-134.5 339,-153.5 464,-153.5 464,-134.5 339,-134.5"/>
<text text-anchor="middle" x="401.5" y="-141.5" font-family="Helvetica,sans-Serif" font-size="10.00" fill="#000000">Dimensions&lt; size_t &gt;</text>
</a>
</g>
</g>
<!-- Node6&#45;&gt;Node5 -->
<g id="edge6" class="edge">
<title>Node6&#45;&gt;Node5</title>
<path fill="none" stroke="#191970" d="M401.5,-124.1079C401.5,-111.714 401.5,-96.3263 401.5,-86.5817"/>
<polygon fill="#191970" stroke="#191970" points="398.0001,-124.4005 401.5,-134.4005 405.0001,-124.4006 398.0001,-124.4005"/>
</g>
<!-- Node7 -->
<g id="node8" class="node">
<title>Node7</title>
<g id="a_node8"><a xlink:href="classarm__compute_1_1_dimensions.xhtml" target="_top" xlink:title="Dimensions with dimensionality. ">
<polygon fill="#ffffff" stroke="#000000" points="350,-201.5 350,-220.5 453,-220.5 453,-201.5 350,-201.5"/>
<text text-anchor="middle" x="401.5" y="-208.5" font-family="Helvetica,sans-Serif" font-size="10.00" fill="#000000">Dimensions&lt; T &gt;</text>
</a>
</g>
</g>
<!-- Node7&#45;&gt;Node6 -->
<g id="edge7" class="edge">
<title>Node7&#45;&gt;Node6</title>
<path fill="none" stroke="#ffa500" stroke-dasharray="5,2" d="M401.5,-191.1079C401.5,-178.714 401.5,-163.3263 401.5,-153.5817"/>
<polygon fill="#ffa500" stroke="#ffa500" points="398.0001,-191.4005 401.5,-201.4005 405.0001,-191.4006 398.0001,-191.4005"/>
<text text-anchor="middle" x="429" y="-175" font-family="Helvetica,sans-Serif" font-size="10.00" fill="#000000"> &lt; size_t &gt;</text>
</g>
<!-- Node8 -->
<g id="node9" class="node">
<title>Node8</title>
<g id="a_node9"><a xlink:href="classarm__compute_1_1_quantization_info.xhtml" target="_top" xlink:title="Quantization information. ">
<polygon fill="#ffffff" stroke="#000000" points="458.5,-67.5 458.5,-86.5 556.5,-86.5 556.5,-67.5 458.5,-67.5"/>
<text text-anchor="middle" x="507.5" y="-74.5" font-family="Helvetica,sans-Serif" font-size="10.00" fill="#000000">QuantizationInfo</text>
</a>
</g>
</g>
<!-- Node8&#45;&gt;Node0 -->
<g id="edge8" class="edge">
<title>Node8&#45;&gt;Node0</title>
<path fill="none" stroke="#9a32cd" stroke-dasharray="5,2" d="M478.7184,-63.2493C461.2601,-55.2315 438.39,-45.2945 417.5,-38 397.0223,-30.8494 373.749,-24.43 354.4181,-19.5474"/>
<polygon fill="#9a32cd" stroke="#9a32cd" points="477.2703,-66.4357 487.8138,-67.4771 480.221,-60.088 477.2703,-66.4357"/>
<text text-anchor="middle" x="472" y="-41" font-family="Helvetica,sans-Serif" font-size="10.00" fill="#000000"> quant_info</text>
</g>
</g>
</svg>
