<?xml version="1.0" encoding="UTF-8" standalone="no"?>
<!DOCTYPE svg PUBLIC "-//W3C//DTD SVG 1.1//EN"
 "http://www.w3.org/Graphics/SVG/1.1/DTD/svg11.dtd">
<!-- Generated by graphviz version 2.40.1 (20161225.0304)
 -->
<!-- Title: Conv2dInfo Pages: 1 -->
<svg width="453pt" height="173pt"
 viewBox="0.00 0.00 452.50 173.00" xmlns="http://www.w3.org/2000/svg" xmlns:xlink="http://www.w3.org/1999/xlink">
<g id="graph0" class="graph" transform="scale(1 1) rotate(0) translate(4 169)">
<title>Conv2dInfo</title>
<polygon fill="#ffffff" stroke="transparent" points="-4,4 -4,-169 448.5,-169 448.5,4 -4,4"/>
<!-- Node0 -->
<g id="node1" class="node">
<title>Node0</title>
<polygon fill="#bfbfbf" stroke="#000000" points="217.5,-.5 217.5,-19.5 289.5,-19.5 289.5,-.5 217.5,-.5"/>
<text text-anchor="middle" x="253.5" y="-7.5" font-family="Helvetica,sans-Serif" font-size="10.00" fill="#000000">Conv2dInfo</text>
</g>
<!-- Node1 -->
<g id="node2" class="node">
<title>Node1</title>
<g id="a_node2"><a xlink:href="classarm__compute_1_1_pad_stride_info.xhtml" target="_top" xlink:title="Padding and stride information class. ">
<polygon fill="#ffffff" stroke="#000000" points="0,-73 0,-92 81,-92 81,-73 0,-73"/>
<text text-anchor="middle" x="40.5" y="-80" font-family="Helvetica,sans-Serif" font-size="10.00" fill="#000000">PadStrideInfo</text>
</a>
</g>
</g>
<!-- Node1&#45;&gt;Node0 -->
<g id="edge1" class="edge">
<title>Node1&#45;&gt;Node0</title>
<path fill="none" stroke="#9a32cd" stroke-dasharray="5,2" d="M71.5408,-68.7888C93.374,-59.4307 123.4121,-47.1249 150.5,-38 172.4516,-30.6053 197.5232,-23.7563 217.4343,-18.6831"/>
<polygon fill="#9a32cd" stroke="#9a32cd" points="69.9166,-65.6779 62.1268,-72.8591 72.6946,-72.103 69.9166,-65.6779"/>
<text text-anchor="middle" x="176" y="-41" font-family="Helvetica,sans-Serif" font-size="10.00" fill="#000000"> conv_info</text>
</g>
<!-- Node2 -->
<g id="node3" class="node">
<title>Node2</title>
<g id="a_node3"><a xlink:href="classarm__compute_1_1experimental_1_1_post_op_list.xhtml" target="_top" xlink:title="PostOpList\&lt; arm_compute\l::ITensorInfo *\&gt;">
<polygon fill="#ffffff" stroke="#000000" points="99,-67.5 99,-97.5 246,-97.5 246,-67.5 99,-67.5"/>
<text text-anchor="start" x="107" y="-85.5" font-family="Helvetica,sans-Serif" font-size="10.00" fill="#000000">PostOpList&lt; arm_compute</text>
<text text-anchor="middle" x="172.5" y="-74.5" font-family="Helvetica,sans-Serif" font-size="10.00" fill="#000000">::ITensorInfo *&gt;</text>
</a>
</g>
</g>
<!-- Node2&#45;&gt;Node0 -->
<g id="edge2" class="edge">
<title>Node2&#45;&gt;Node0</title>
<path fill="none" stroke="#9a32cd" stroke-dasharray="5,2" d="M193.8309,-59.678C200.8453,-52.5171 208.8182,-44.7297 216.5,-38 223.8923,-31.5239 232.642,-24.8612 239.7764,-19.6605"/>
<polygon fill="#9a32cd" stroke="#9a32cd" points="191.0748,-57.4941 186.6548,-67.1229 196.1147,-62.3521 191.0748,-57.4941"/>
<text text-anchor="middle" x="240" y="-41" font-family="Helvetica,sans-Serif" font-size="10.00" fill="#000000"> post_ops</text>
</g>
<!-- Node3 -->
<g id="node4" class="node">
<title>Node3</title>
<g id="a_node4"><a xlink:href="classarm__compute_1_1experimental_1_1_post_op_list.xhtml" target="_top" xlink:title="A sequence of PostOps that can be appended to the end of other operators. ">
<polygon fill="#ffffff" stroke="#000000" points="90,-145.5 90,-164.5 255,-164.5 255,-145.5 90,-145.5"/>
<text text-anchor="middle" x="172.5" y="-152.5" font-family="Helvetica,sans-Serif" font-size="10.00" fill="#000000">PostOpList&lt; TensorRelatedT &gt;</text>
</a>
</g>
</g>
<!-- Node3&#45;&gt;Node2 -->
<g id="edge3" class="edge">
<title>Node3&#45;&gt;Node2</title>
<path fill="none" stroke="#ffa500" stroke-dasharray="5,2" d="M172.5,-135.0177C172.5,-123.2164 172.5,-108.513 172.5,-97.668"/>
<polygon fill="#ffa500" stroke="#ffa500" points="169.0001,-135.2223 172.5,-145.2223 176.0001,-135.2224 169.0001,-135.2223"/>
<text text-anchor="middle" x="251.5" y="-119" font-family="Helvetica,sans-Serif" font-size="10.00" fill="#000000"> &lt; arm_compute::ITensorInfo *&gt;</text>
</g>
<!-- Node4 -->
<g id="node5" class="node">
<title>Node4</title>
<g id="a_node5"><a xlink:href="classarm__compute_1_1_size2_d.xhtml" target="_top" xlink:title="Class for specifying the size of an image or rectangle. ">
<polygon fill="#ffffff" stroke="#000000" points="264.5,-73 264.5,-92 314.5,-92 314.5,-73 264.5,-73"/>
<text text-anchor="middle" x="289.5" y="-80" font-family="Helvetica,sans-Serif" font-size="10.00" fill="#000000">Size2D</text>
</a>
</g>
</g>
<!-- Node4&#45;&gt;Node0 -->
<g id="edge4" class="edge">
<title>Node4&#45;&gt;Node0</title>
<path fill="none" stroke="#9a32cd" stroke-dasharray="5,2" d="M280.0313,-63.4311C273.0358,-49.3429 263.8038,-30.7507 258.2782,-19.6228"/>
<polygon fill="#9a32cd" stroke="#9a32cd" points="277.0626,-65.3223 284.6449,-72.7223 283.3322,-62.2091 277.0626,-65.3223"/>
<text text-anchor="middle" x="292.5" y="-41" font-family="Helvetica,sans-Serif" font-size="10.00" fill="#000000"> dilation</text>
</g>
<!-- Node5 -->
<g id="node6" class="node">
<title>Node5</title>
<g id="a_node6"><a xlink:href="classarm__compute_1_1_activation_layer_info.xhtml" target="_top" xlink:title="Activation Layer Information class. ">
<polygon fill="#ffffff" stroke="#000000" points="332.5,-73 332.5,-92 444.5,-92 444.5,-73 332.5,-73"/>
<text text-anchor="middle" x="388.5" y="-80" font-family="Helvetica,sans-Serif" font-size="10.00" fill="#000000">ActivationLayerInfo</text>
</a>
</g>
</g>
<!-- Node5&#45;&gt;Node0 -->
<g id="edge5" class="edge">
<title>Node5&#45;&gt;Node0</title>
<path fill="none" stroke="#9a32cd" stroke-dasharray="5,2" d="M365.7578,-67.3442C351.816,-58.3323 333.4479,-46.9509 316.5,-38 303.6937,-31.2365 288.9189,-24.6113 276.8975,-19.5047"/>
<polygon fill="#9a32cd" stroke="#9a32cd" points="363.9353,-70.3342 374.221,-72.8747 367.7645,-64.4744 363.9353,-70.3342"/>
<text text-anchor="middle" x="356" y="-41" font-family="Helvetica,sans-Serif" font-size="10.00" fill="#000000"> act_info</text>
</g>
</g>
</svg>
