<?xml version="1.0" encoding="UTF-8" standalone="no"?>
<!DOCTYPE svg PUBLIC "-//W3C//DTD SVG 1.1//EN"
 "http://www.w3.org/Graphics/SVG/1.1/DTD/svg11.dtd">
<!-- Generated by graphviz version 2.40.1 (20161225.0304)
 -->
<!-- Title: AclTensorPack_ Pages: 1 -->
<svg width="225pt" height="152pt"
 viewBox="0.00 0.00 224.50 152.00" xmlns="http://www.w3.org/2000/svg" xmlns:xlink="http://www.w3.org/1999/xlink">
<g id="graph0" class="graph" transform="scale(1 1) rotate(0) translate(4 148)">
<title>AclTensorPack_</title>
<polygon fill="#ffffff" stroke="transparent" points="-4,4 -4,-148 220.5,-148 220.5,4 -4,4"/>
<!-- Node0 -->
<g id="node1" class="node">
<title>Node0</title>
<polygon fill="#bfbfbf" stroke="#000000" points="0,-57.5 0,-76.5 91,-76.5 91,-57.5 0,-57.5"/>
<text text-anchor="middle" x="45.5" y="-64.5" font-family="Helvetica,sans-Serif" font-size="10.00" fill="#000000">AclTensorPack_</text>
</g>
<!-- Node1 -->
<g id="node2" class="node">
<title>Node1</title>
<g id="a_node2"><a xlink:href="structarm__compute_1_1detail_1_1_header.xhtml" target="_top" xlink:title="Header">
<polygon fill="#ffffff" stroke="#000000" points="120.5,-124.5 120.5,-143.5 172.5,-143.5 172.5,-124.5 120.5,-124.5"/>
<text text-anchor="middle" x="146.5" y="-131.5" font-family="Helvetica,sans-Serif" font-size="10.00" fill="#000000">Header</text>
</a>
</g>
</g>
<!-- Node1&#45;&gt;Node0 -->
<g id="edge1" class="edge">
<title>Node1&#45;&gt;Node0</title>
<path fill="none" stroke="#9a32cd" stroke-dasharray="5,2" d="M123.6799,-118.8619C104.1339,-105.8957 76.5823,-87.619 59.944,-76.5817"/>
<polygon fill="#9a32cd" stroke="#9a32cd" points="121.7612,-121.7892 132.0292,-124.4005 125.6308,-115.9559 121.7612,-121.7892"/>
<text text-anchor="middle" x="121" y="-98" font-family="Helvetica,sans-Serif" font-size="10.00" fill="#000000"> header</text>
</g>
<!-- Node3 -->
<g id="node4" class="node">
<title>Node3</title>
<g id="a_node4"><a xlink:href="struct_acl_context__.xhtml" target="_top" xlink:title="AclContext_">
<polygon fill="#ffffff" stroke="#000000" points="109,-57.5 109,-76.5 184,-76.5 184,-57.5 109,-57.5"/>
<text text-anchor="middle" x="146.5" y="-64.5" font-family="Helvetica,sans-Serif" font-size="10.00" fill="#000000">AclContext_</text>
</a>
</g>
</g>
<!-- Node1&#45;&gt;Node3 -->
<g id="edge4" class="edge">
<title>Node1&#45;&gt;Node3</title>
<path fill="none" stroke="#9a32cd" stroke-dasharray="5,2" d="M146.5,-114.1079C146.5,-101.714 146.5,-86.3263 146.5,-76.5817"/>
<polygon fill="#9a32cd" stroke="#9a32cd" points="143.0001,-114.4005 146.5,-124.4005 150.0001,-114.4006 143.0001,-114.4005"/>
<text text-anchor="middle" x="165" y="-98" font-family="Helvetica,sans-Serif" font-size="10.00" fill="#000000"> header</text>
</g>
<!-- Node2 -->
<g id="node3" class="node">
<title>Node2</title>
<g id="a_node3"><a xlink:href="classarm__compute_1_1_i_context.xhtml" target="_top" xlink:title="Context interface. ">
<polygon fill="#ffffff" stroke="#000000" points="154.5,-.5 154.5,-19.5 212.5,-19.5 212.5,-.5 154.5,-.5"/>
<text text-anchor="middle" x="183.5" y="-7.5" font-family="Helvetica,sans-Serif" font-size="10.00" fill="#000000">IContext</text>
</a>
</g>
</g>
<!-- Node2&#45;&gt;Node1 -->
<g id="edge2" class="edge">
<title>Node2&#45;&gt;Node1</title>
<path fill="none" stroke="#9a32cd" stroke-dasharray="5,2" d="M190.3697,-29.234C196.4636,-49.9187 202.3216,-82.9361 187.5,-106 182.5605,-113.6864 174.6821,-119.8081 167.1455,-124.3429"/>
<polygon fill="#9a32cd" stroke="#9a32cd" points="193.68,-28.0952 187.2698,-19.6595 187.0203,-30.2514 193.68,-28.0952"/>
<text text-anchor="middle" x="207" y="-64.5" font-family="Helvetica,sans-Serif" font-size="10.00" fill="#000000"> ctx</text>
</g>
<!-- Node3&#45;&gt;Node2 -->
<g id="edge3" class="edge">
<title>Node3&#45;&gt;Node2</title>
<path fill="none" stroke="#191970" d="M158.3457,-48.7512C164.6554,-39.0308 172.1567,-27.4748 177.3161,-19.5265"/>
<polygon fill="#191970" stroke="#191970" points="155.2856,-47.0373 152.7765,-57.3307 161.157,-50.8486 155.2856,-47.0373"/>
</g>
</g>
</svg>
