<?xml version="1.0" encoding="UTF-8" standalone="no"?>
<!DOCTYPE svg PUBLIC "-//W3C//DTD SVG 1.1//EN"
 "http://www.w3.org/Graphics/SVG/1.1/DTD/svg11.dtd">
<!-- Generated by graphviz version 2.38.0 (20140413.2041)
 -->
<!-- Title: CLSubTensorHandle Pages: 1 -->
<svg width="120pt" height="84pt"
 viewBox="0.00 0.00 120.00 84.00" xmlns="http://www.w3.org/2000/svg" xmlns:xlink="http://www.w3.org/1999/xlink">
<g id="graph0" class="graph" transform="scale(1 1) rotate(0) translate(4 80)">
<title>CLSubTensorHandle</title>
<polygon fill="white" stroke="none" points="-4,4 -4,-80 116,-80 116,4 -4,4"/>
<!-- Node0 -->
<g id="node1" class="node"><title>Node0</title>
<g id="a_node1"><a xlink:title="OpenCL Sub&#45;Tensor handle interface object.">
<polygon fill="#bfbfbf" stroke="black" points="-7.10543e-15,-0.5 -7.10543e-15,-19.5 112,-19.5 112,-0.5 -7.10543e-15,-0.5"/>
<text text-anchor="middle" x="56" y="-7.5" font-family="Helvetica,sans-Serif" font-size="10.00">CLSubTensorHandle</text>
</a>
</g>
</g>
<!-- Node1 -->
<g id="node2" class="node"><title>Node1</title>
<g id="a_node2"><a xlink:href="classarm__compute_1_1graph_1_1_i_tensor_handle.xhtml" target="_top" xlink:title="Tensor handle interface object.">
<polygon fill="white" stroke="black" points="14.5,-56.5 14.5,-75.5 97.5,-75.5 97.5,-56.5 14.5,-56.5"/>
<text text-anchor="middle" x="56" y="-63.5" font-family="Helvetica,sans-Serif" font-size="10.00">ITensorHandle</text>
</a>
</g>
</g>
<!-- Node1&#45;&gt;Node0 -->
<g id="edge1" class="edge"><title>Node1&#45;&gt;Node0</title>
<path fill="none" stroke="midnightblue" d="M56,-45.8045C56,-36.9102 56,-26.7798 56,-19.7511"/>
<polygon fill="midnightblue" stroke="midnightblue" points="52.5001,-46.083 56,-56.083 59.5001,-46.083 52.5001,-46.083"/>
</g>
</g>
</svg>
