<?xml version="1.0" encoding="UTF-8" standalone="no"?>
<!DOCTYPE svg PUBLIC "-//W3C//DTD SVG 1.1//EN"
 "http://www.w3.org/Graphics/SVG/1.1/DTD/svg11.dtd">
<!-- Generated by graphviz version 2.40.1 (20161225.0304)
 -->
<!-- Title: Context Pages: 1 -->
<svg width="170pt" height="152pt"
 viewBox="0.00 0.00 169.50 152.00" xmlns="http://www.w3.org/2000/svg" xmlns:xlink="http://www.w3.org/1999/xlink">
<g id="graph0" class="graph" transform="scale(1 1) rotate(0) translate(4 148)">
<title>Context</title>
<polygon fill="#ffffff" stroke="transparent" points="-4,4 -4,-148 165.5,-148 165.5,4 -4,4"/>
<!-- Node0 -->
<g id="node1" class="node">
<title>Node0</title>
<polygon fill="#bfbfbf" stroke="#000000" points="49,-.5 49,-19.5 104,-19.5 104,-.5 49,-.5"/>
<text text-anchor="middle" x="76.5" y="-7.5" font-family="Helvetica,sans-Serif" font-size="10.00" fill="#000000">Context</text>
</g>
<!-- Node1 -->
<g id="node2" class="node">
<title>Node1</title>
<g id="a_node2"><a xlink:href="classacl_1_1detail_1_1_object_base.xhtml" target="_top" xlink:title="ObjectBase\&lt; AclContext_ \&gt;">
<polygon fill="#ffffff" stroke="#000000" points="0,-57.5 0,-76.5 153,-76.5 153,-57.5 0,-57.5"/>
<text text-anchor="middle" x="76.5" y="-64.5" font-family="Helvetica,sans-Serif" font-size="10.00" fill="#000000">ObjectBase&lt; AclContext_ &gt;</text>
</a>
</g>
</g>
<!-- Node1&#45;&gt;Node0 -->
<g id="edge1" class="edge">
<title>Node1&#45;&gt;Node0</title>
<path fill="none" stroke="#191970" d="M76.5,-47.2342C76.5,-37.8491 76.5,-27.0651 76.5,-19.5265"/>
<polygon fill="#191970" stroke="#191970" points="73.0001,-47.3307 76.5,-57.3307 80.0001,-47.3308 73.0001,-47.3307"/>
</g>
<!-- Node2 -->
<g id="node3" class="node">
<title>Node2</title>
<g id="a_node3"><a xlink:href="classacl_1_1detail_1_1_object_base.xhtml" target="_top" xlink:title="Object base class for library objects. ">
<polygon fill="#ffffff" stroke="#000000" points="26,-124.5 26,-143.5 127,-143.5 127,-124.5 26,-124.5"/>
<text text-anchor="middle" x="76.5" y="-131.5" font-family="Helvetica,sans-Serif" font-size="10.00" fill="#000000">ObjectBase&lt; T &gt;</text>
</a>
</g>
</g>
<!-- Node2&#45;&gt;Node1 -->
<g id="edge2" class="edge">
<title>Node2&#45;&gt;Node1</title>
<path fill="none" stroke="#ffa500" stroke-dasharray="5,2" d="M76.5,-114.1079C76.5,-101.714 76.5,-86.3263 76.5,-76.5817"/>
<polygon fill="#ffa500" stroke="#ffa500" points="73.0001,-114.4005 76.5,-124.4005 80.0001,-114.4006 73.0001,-114.4005"/>
<text text-anchor="middle" x="119" y="-98" font-family="Helvetica,sans-Serif" font-size="10.00" fill="#000000"> &lt; AclContext_ &gt;</text>
</g>
</g>
</svg>
