<?xml version="1.0" encoding="UTF-8" standalone="no"?>
<!DOCTYPE svg PUBLIC "-//W3C//DTD SVG 1.1//EN"
 "http://www.w3.org/Graphics/SVG/1.1/DTD/svg11.dtd">
<!-- Generated by graphviz version 2.40.1 (20161225.0304)
 -->
<!-- Title: CpuWinogradConv2dTransformInputKernel&lt; T, OutputTileRows, OutputTileCols, KernelRows, KernelCols &gt; Pages: 1 -->
<svg width="314pt" height="389pt"
 viewBox="0.00 0.00 313.50 389.00" xmlns="http://www.w3.org/2000/svg" xmlns:xlink="http://www.w3.org/1999/xlink">
<g id="graph0" class="graph" transform="scale(1 1) rotate(0) translate(4 385)">
<title>CpuWinogradConv2dTransformInputKernel&lt; T, OutputTileRows, OutputTileCols, KernelRows, KernelCols &gt;</title>
<polygon fill="#ffffff" stroke="transparent" points="-4,4 -4,-385 309.5,-385 309.5,4 -4,4"/>
<!-- Node0 -->
<g id="node1" class="node">
<title>Node0</title>
<polygon fill="#bfbfbf" stroke="#000000" points="0,-.5 0,-52.5 175,-52.5 175,-.5 0,-.5"/>
<text text-anchor="start" x="8" y="-40.5" font-family="Helvetica,sans-Serif" font-size="10.00" fill="#000000">CpuWinogradConv2dTransform</text>
<text text-anchor="start" x="8" y="-29.5" font-family="Helvetica,sans-Serif" font-size="10.00" fill="#000000">InputKernel&lt; T, OutputTileRows,</text>
<text text-anchor="start" x="8" y="-18.5" font-family="Helvetica,sans-Serif" font-size="10.00" fill="#000000"> OutputTileCols, KernelRows,</text>
<text text-anchor="middle" x="87.5" y="-7.5" font-family="Helvetica,sans-Serif" font-size="10.00" fill="#000000"> KernelCols &gt;</text>
</g>
<!-- Node1 -->
<g id="node2" class="node">
<title>Node1</title>
<g id="a_node2"><a xlink:href="classarm__compute_1_1cpu_1_1_i_cpu_winograd_conv2d_transform_input_kernel.xhtml" target="_top" xlink:title="Interface for the kernel to perform Winograd input transform. ">
<polygon fill="#ffffff" stroke="#000000" points="2.5,-90.5 2.5,-120.5 172.5,-120.5 172.5,-90.5 2.5,-90.5"/>
<text text-anchor="start" x="10.5" y="-108.5" font-family="Helvetica,sans-Serif" font-size="10.00" fill="#000000">ICpuWinogradConv2dTransform</text>
<text text-anchor="middle" x="87.5" y="-97.5" font-family="Helvetica,sans-Serif" font-size="10.00" fill="#000000">InputKernel</text>
</a>
</g>
</g>
<!-- Node1&#45;&gt;Node0 -->
<g id="edge1" class="edge">
<title>Node1&#45;&gt;Node0</title>
<path fill="none" stroke="#191970" d="M87.5,-80.1893C87.5,-71.3671 87.5,-61.4558 87.5,-52.5728"/>
<polygon fill="#191970" stroke="#191970" points="84.0001,-80.268 87.5,-90.268 91.0001,-80.268 84.0001,-80.268"/>
</g>
<!-- Node2 -->
<g id="node3" class="node">
<title>Node2</title>
<g id="a_node3"><a xlink:href="classarm__compute_1_1cpu_1_1_i_cpu_kernel.xhtml" target="_top" xlink:title="ICpuKernel\&lt; ICpuWinograd\lConv2dTransformInputKernel \&gt;">
<polygon fill="#ffffff" stroke="#000000" points="3,-158.5 3,-188.5 172,-188.5 172,-158.5 3,-158.5"/>
<text text-anchor="start" x="11" y="-176.5" font-family="Helvetica,sans-Serif" font-size="10.00" fill="#000000">ICpuKernel&lt; ICpuWinograd</text>
<text text-anchor="middle" x="87.5" y="-165.5" font-family="Helvetica,sans-Serif" font-size="10.00" fill="#000000">Conv2dTransformInputKernel &gt;</text>
</a>
</g>
</g>
<!-- Node2&#45;&gt;Node1 -->
<g id="edge2" class="edge">
<title>Node2&#45;&gt;Node1</title>
<path fill="none" stroke="#191970" d="M87.5,-148.1174C87.5,-138.8378 87.5,-128.6413 87.5,-120.5492"/>
<polygon fill="#191970" stroke="#191970" points="84.0001,-148.4086 87.5,-158.4086 91.0001,-148.4086 84.0001,-148.4086"/>
</g>
<!-- Node3 -->
<g id="node4" class="node">
<title>Node3</title>
<g id="a_node4"><a xlink:href="classarm__compute_1_1_i_c_p_p_kernel.xhtml" target="_top" xlink:title="Common interface for all kernels implemented in C++. ">
<polygon fill="#ffffff" stroke="#000000" points="49,-304.5 49,-323.5 118,-323.5 118,-304.5 49,-304.5"/>
<text text-anchor="middle" x="83.5" y="-311.5" font-family="Helvetica,sans-Serif" font-size="10.00" fill="#000000">ICPPKernel</text>
</a>
</g>
</g>
<!-- Node3&#45;&gt;Node2 -->
<g id="edge3" class="edge">
<title>Node3&#45;&gt;Node2</title>
<path fill="none" stroke="#191970" d="M84.0685,-294.031C84.8783,-265.5886 86.3458,-214.0418 87.0709,-188.5735"/>
<polygon fill="#191970" stroke="#191970" points="80.561,-294.2473 83.7749,-304.3429 87.5582,-294.4466 80.561,-294.2473"/>
</g>
<!-- Node5 -->
<g id="node6" class="node">
<title>Node5</title>
<g id="a_node6"><a xlink:href="classarm__compute_1_1cpu_1_1_i_cpu_kernel.xhtml" target="_top" xlink:title="ICpuKernel\&lt; Derived \&gt;">
<polygon fill="#ffffff" stroke="#000000" points="99.5,-247.5 99.5,-266.5 229.5,-266.5 229.5,-247.5 99.5,-247.5"/>
<text text-anchor="middle" x="164.5" y="-254.5" font-family="Helvetica,sans-Serif" font-size="10.00" fill="#000000">ICpuKernel&lt; Derived &gt;</text>
</a>
</g>
</g>
<!-- Node3&#45;&gt;Node5 -->
<g id="edge6" class="edge">
<title>Node3&#45;&gt;Node5</title>
<path fill="none" stroke="#191970" d="M105.6611,-298.4052C120.1542,-288.2063 138.6194,-275.2123 150.9624,-266.5265"/>
<polygon fill="#191970" stroke="#191970" points="103.4044,-295.7134 97.2405,-304.3307 107.4329,-301.4381 103.4044,-295.7134"/>
</g>
<!-- Node4 -->
<g id="node5" class="node">
<title>Node4</title>
<g id="a_node5"><a xlink:href="classarm__compute_1_1_i_kernel.xhtml" target="_top" xlink:title="Common information for all the kernels. ">
<polygon fill="#ffffff" stroke="#000000" points="58.5,-361.5 58.5,-380.5 108.5,-380.5 108.5,-361.5 58.5,-361.5"/>
<text text-anchor="middle" x="83.5" y="-368.5" font-family="Helvetica,sans-Serif" font-size="10.00" fill="#000000">IKernel</text>
</a>
</g>
</g>
<!-- Node4&#45;&gt;Node3 -->
<g id="edge4" class="edge">
<title>Node4&#45;&gt;Node3</title>
<path fill="none" stroke="#191970" d="M83.5,-351.2342C83.5,-341.8491 83.5,-331.0651 83.5,-323.5265"/>
<polygon fill="#191970" stroke="#191970" points="80.0001,-351.3307 83.5,-361.3307 87.0001,-351.3308 80.0001,-351.3307"/>
</g>
<!-- Node5&#45;&gt;Node2 -->
<g id="edge5" class="edge">
<title>Node5&#45;&gt;Node2</title>
<path fill="none" stroke="#ffa500" stroke-dasharray="5,2" d="M148.6528,-239.815C134.7469,-224.7353 114.7219,-203.0198 101.4218,-188.597"/>
<polygon fill="#ffa500" stroke="#ffa500" points="146.3149,-242.4428 155.6671,-247.4215 151.4609,-237.6973 146.3149,-242.4428"/>
<text text-anchor="start" x="136.5" y="-221" font-family="Helvetica,sans-Serif" font-size="10.00" fill="#000000"> &lt; ICpuWinogradConv2dTransform</text>
<text text-anchor="middle" x="221" y="-210" font-family="Helvetica,sans-Serif" font-size="10.00" fill="#000000">InputKernel &gt;</text>
</g>
</g>
</svg>
