<?xml version="1.0" encoding="UTF-8" standalone="no"?>
<!DOCTYPE svg PUBLIC "-//W3C//DTD SVG 1.1//EN"
 "http://www.w3.org/Graphics/SVG/1.1/DTD/svg11.dtd">
<!-- Generated by graphviz version 2.40.1 (20161225.0304)
 -->
<!-- Title: src/runtime/CPP/functions Pages: 1 -->
<svg width="138pt" height="295pt"
 viewBox="0.00 0.00 137.50 295.00" xmlns="http://www.w3.org/2000/svg" xmlns:xlink="http://www.w3.org/1999/xlink">
<g id="graph0" class="graph" transform="scale(1 1) rotate(0) translate(4 291)">
<title>src/runtime/CPP/functions</title>
<polygon fill="#ffffff" stroke="transparent" points="-4,4 -4,-291 133.5,-291 133.5,4 -4,4"/>
<g id="clust1" class="cluster">
<title>clusterdir_9240672d44dfdb0f539b385a1f058d2d</title>
<g id="a_clust1"><a xlink:href="dir_9240672d44dfdb0f539b385a1f058d2d.xhtml" target="_top" xlink:title="CPP">
<polygon fill="#ddddee" stroke="#000000" points="13,-208 13,-279 91,-279 91,-208 13,-208"/>
<text text-anchor="middle" x="52" y="-267" font-family="Helvetica,sans-Serif" font-size="10.00" fill="#000000">CPP</text>
</a>
</g>
</g>
<!-- dir_8f7fe1d9d655d949f37b90c9cd0a7992 -->
<g id="node1" class="node">
<title>dir_8f7fe1d9d655d949f37b90c9cd0a7992</title>
<g id="a_node1"><a xlink:href="dir_8f7fe1d9d655d949f37b90c9cd0a7992.xhtml" target="_top" xlink:title="functions">
<polygon fill="#eeeeff" stroke="#000000" points="83,-252 21,-252 21,-216 83,-216 83,-252"/>
<text text-anchor="middle" x="52" y="-231.5" font-family="Helvetica,sans-Serif" font-size="10.00" fill="#000000">functions</text>
</a>
</g>
</g>
<!-- dir_214608ef36d61442cb2b0c1c4e9a7def -->
<g id="node2" class="node">
<title>dir_214608ef36d61442cb2b0c1c4e9a7def</title>
<g id="a_node2"><a xlink:href="dir_214608ef36d61442cb2b0c1c4e9a7def.xhtml" target="_top" xlink:title="arm_compute">
<polygon fill="#ffffff" stroke="#ff0000" points="84,-36 0,-36 0,0 84,0 84,-36"/>
<text text-anchor="middle" x="42" y="-15.5" font-family="Helvetica,sans-Serif" font-size="10.00" fill="#000000">arm_compute</text>
</a>
</g>
</g>
<!-- dir_8f7fe1d9d655d949f37b90c9cd0a7992&#45;&gt;dir_214608ef36d61442cb2b0c1c4e9a7def -->
<g id="edge1" class="edge">
<title>dir_8f7fe1d9d655d949f37b90c9cd0a7992&#45;&gt;dir_214608ef36d61442cb2b0c1c4e9a7def</title>
<path fill="none" stroke="#000000" d="M36.0095,-215.9169C28.3462,-206.0371 19.9834,-193.1563 16,-180 2.086,-134.0453 17.7677,-78.3726 30.1031,-45.7032"/>
<polygon fill="#000000" stroke="#000000" points="33.3829,-46.9263 33.7874,-36.3391 26.869,-44.3633 33.3829,-46.9263"/>
<g id="a_edge1&#45;headlabel"><a xlink:href="dir_000374_000000.xhtml" target="_top" xlink:title="19">
<text text-anchor="middle" x="34.709" y="-48.8108" font-family="Helvetica,sans-Serif" font-size="10.00" fill="#000000">19</text>
</a>
</g>
</g>
<!-- dir_aebb8dcc11953d78e620bbef0b9e2183 -->
<g id="node3" class="node">
<title>dir_aebb8dcc11953d78e620bbef0b9e2183</title>
<g id="a_node3"><a xlink:href="dir_aebb8dcc11953d78e620bbef0b9e2183.xhtml" target="_top" xlink:title="core">
<polygon fill="#ffffff" stroke="#ff0000" points="79,-180 25,-180 25,-144 79,-144 79,-180"/>
<text text-anchor="middle" x="52" y="-159.5" font-family="Helvetica,sans-Serif" font-size="10.00" fill="#000000">core</text>
</a>
</g>
</g>
<!-- dir_8f7fe1d9d655d949f37b90c9cd0a7992&#45;&gt;dir_aebb8dcc11953d78e620bbef0b9e2183 -->
<g id="edge2" class="edge">
<title>dir_8f7fe1d9d655d949f37b90c9cd0a7992&#45;&gt;dir_aebb8dcc11953d78e620bbef0b9e2183</title>
<path fill="none" stroke="#000000" d="M52,-215.8314C52,-208.131 52,-198.9743 52,-190.4166"/>
<polygon fill="#000000" stroke="#000000" points="55.5001,-190.4132 52,-180.4133 48.5001,-190.4133 55.5001,-190.4132"/>
<g id="a_edge2&#45;headlabel"><a xlink:href="dir_000374_000020.xhtml" target="_top" xlink:title="2">
<text text-anchor="middle" x="58.3393" y="-191.5079" font-family="Helvetica,sans-Serif" font-size="10.00" fill="#000000">2</text>
</a>
</g>
</g>
<!-- dir_fdedb0aba14d44ce9d99bc100e026e6a -->
<g id="node4" class="node">
<title>dir_fdedb0aba14d44ce9d99bc100e026e6a</title>
<g id="a_node4"><a xlink:href="dir_fdedb0aba14d44ce9d99bc100e026e6a.xhtml" target="_top" xlink:title="common">
<polygon fill="#ffffff" stroke="#ff0000" points="129.5,-108 70.5,-108 70.5,-72 129.5,-72 129.5,-108"/>
<text text-anchor="middle" x="100" y="-87.5" font-family="Helvetica,sans-Serif" font-size="10.00" fill="#000000">common</text>
</a>
</g>
</g>
<!-- dir_8f7fe1d9d655d949f37b90c9cd0a7992&#45;&gt;dir_fdedb0aba14d44ce9d99bc100e026e6a -->
<g id="edge3" class="edge">
<title>dir_8f7fe1d9d655d949f37b90c9cd0a7992&#45;&gt;dir_fdedb0aba14d44ce9d99bc100e026e6a</title>
<path fill="none" stroke="#000000" d="M67.2815,-215.6764C74.7508,-205.7307 83.154,-192.8636 88,-180 95.4441,-160.2396 98.3834,-136.5163 99.4941,-118.388"/>
<polygon fill="#000000" stroke="#000000" points="103.0007,-118.3222 99.9652,-108.1715 96.0081,-117.9997 103.0007,-118.3222"/>
<g id="a_edge3&#45;headlabel"><a xlink:href="dir_000374_000019.xhtml" target="_top" xlink:title="7">
<text text-anchor="middle" x="105.6715" y="-119.5437" font-family="Helvetica,sans-Serif" font-size="10.00" fill="#000000">7</text>
</a>
</g>
</g>
<!-- dir_aebb8dcc11953d78e620bbef0b9e2183&#45;&gt;dir_214608ef36d61442cb2b0c1c4e9a7def -->
<g id="edge4" class="edge">
<title>dir_aebb8dcc11953d78e620bbef0b9e2183&#45;&gt;dir_214608ef36d61442cb2b0c1c4e9a7def</title>
<path fill="none" stroke="#000000" d="M50.7335,-143.7623C49.0279,-119.201 45.9755,-75.2474 43.969,-46.3541"/>
<polygon fill="#000000" stroke="#000000" points="47.4407,-45.8231 43.2562,-36.0896 40.4575,-46.3081 47.4407,-45.8231"/>
<g id="a_edge4&#45;headlabel"><a xlink:href="dir_000020_000000.xhtml" target="_top" xlink:title="607">
<text text-anchor="middle" x="50.5221" y="-46.7124" font-family="Helvetica,sans-Serif" font-size="10.00" fill="#000000">607</text>
</a>
</g>
</g>
<!-- dir_aebb8dcc11953d78e620bbef0b9e2183&#45;&gt;dir_fdedb0aba14d44ce9d99bc100e026e6a -->
<g id="edge5" class="edge">
<title>dir_aebb8dcc11953d78e620bbef0b9e2183&#45;&gt;dir_fdedb0aba14d44ce9d99bc100e026e6a</title>
<path fill="none" stroke="#000000" d="M64.1124,-143.8314C69.5281,-135.7079 76.0242,-125.9637 81.9921,-117.0118"/>
<polygon fill="#000000" stroke="#000000" points="85.0896,-118.6753 87.7245,-108.4133 79.2653,-114.7923 85.0896,-118.6753"/>
<g id="a_edge5&#45;headlabel"><a xlink:href="dir_000020_000019.xhtml" target="_top" xlink:title="3">
<text text-anchor="middle" x="85.4581" y="-120.7411" font-family="Helvetica,sans-Serif" font-size="10.00" fill="#000000">3</text>
</a>
</g>
</g>
<!-- dir_fdedb0aba14d44ce9d99bc100e026e6a&#45;&gt;dir_214608ef36d61442cb2b0c1c4e9a7def -->
<g id="edge6" class="edge">
<title>dir_fdedb0aba14d44ce9d99bc100e026e6a&#45;&gt;dir_214608ef36d61442cb2b0c1c4e9a7def</title>
<path fill="none" stroke="#000000" d="M85.3642,-71.8314C78.6839,-63.5386 70.6432,-53.557 63.3096,-44.4533"/>
<polygon fill="#000000" stroke="#000000" points="65.8319,-42.0052 56.8329,-36.4133 60.3806,-46.3965 65.8319,-42.0052"/>
<g id="a_edge6&#45;headlabel"><a xlink:href="dir_000019_000000.xhtml" target="_top" xlink:title="17">
<text text-anchor="middle" x="70.2979" y="-40.5233" font-family="Helvetica,sans-Serif" font-size="10.00" fill="#000000">17</text>
</a>
</g>
</g>
</g>
</svg>
