<?xml version="1.0" encoding="UTF-8" standalone="no"?>
<!DOCTYPE svg PUBLIC "-//W3C//DTD SVG 1.1//EN"
 "http://www.w3.org/Graphics/SVG/1.1/DTD/svg11.dtd">
<!-- Generated by graphviz version 2.40.1 (20161225.0304)
 -->
<!-- Title: src/cpu/kernels/scale Pages: 1 -->
<svg width="254pt" height="303pt"
 viewBox="0.00 0.00 254.00 303.00" xmlns="http://www.w3.org/2000/svg" xmlns:xlink="http://www.w3.org/1999/xlink">
<g id="graph0" class="graph" transform="scale(1 1) rotate(0) translate(4 299)">
<title>src/cpu/kernels/scale</title>
<polygon fill="#ffffff" stroke="transparent" points="-4,4 -4,-299 250,-299 250,4 -4,4"/>
<g id="clust1" class="cluster">
<title>clusterdir_1de7bcbbdec2bf3559cb3c688662d4f5</title>
<g id="a_clust1"><a xlink:href="dir_1de7bcbbdec2bf3559cb3c688662d4f5.xhtml" target="_top" xlink:title="kernels">
<polygon fill="#ddddee" stroke="#000000" points="8,-200 8,-287 238,-287 238,-200 8,-200"/>
<text text-anchor="middle" x="123" y="-275" font-family="Helvetica,sans-Serif" font-size="10.00" fill="#000000">kernels</text>
</a>
</g>
</g>
<g id="clust2" class="cluster">
<title>clusterdir_d124c31da0c35b9984b69db8d6578477</title>
<g id="a_clust2"><a xlink:href="dir_d124c31da0c35b9984b69db8d6578477.xhtml" target="_top">
<polygon fill="#eeeeff" stroke="#000000" points="16,-208 16,-260 230,-260 230,-208 16,-208"/>
</a>
</g>
</g>
<!-- dir_d124c31da0c35b9984b69db8d6578477 -->
<g id="node1" class="node">
<title>dir_d124c31da0c35b9984b69db8d6578477</title>
<text text-anchor="middle" x="195" y="-231.5" font-family="Helvetica,sans-Serif" font-size="10.00" fill="#000000">scale</text>
</g>
<!-- dir_5e9e7712b7f30b8f985deeedb9292b59 -->
<g id="node2" class="node">
<title>dir_5e9e7712b7f30b8f985deeedb9292b59</title>
<g id="a_node2"><a xlink:href="dir_5e9e7712b7f30b8f985deeedb9292b59.xhtml" target="_top" xlink:title="neon">
<polygon fill="#ffffff" stroke="#000000" points="150,-252 96,-252 96,-216 150,-216 150,-252"/>
<text text-anchor="middle" x="123" y="-231.5" font-family="Helvetica,sans-Serif" font-size="10.00" fill="#000000">neon</text>
</a>
</g>
</g>
<!-- dir_214608ef36d61442cb2b0c1c4e9a7def -->
<g id="node4" class="node">
<title>dir_214608ef36d61442cb2b0c1c4e9a7def</title>
<g id="a_node4"><a xlink:href="dir_214608ef36d61442cb2b0c1c4e9a7def.xhtml" target="_top" xlink:title="arm_compute">
<polygon fill="#ffffff" stroke="#ff0000" points="111,-108 27,-108 27,-72 111,-72 111,-108"/>
<text text-anchor="middle" x="69" y="-87.5" font-family="Helvetica,sans-Serif" font-size="10.00" fill="#000000">arm_compute</text>
</a>
</g>
</g>
<!-- dir_5e9e7712b7f30b8f985deeedb9292b59&#45;&gt;dir_214608ef36d61442cb2b0c1c4e9a7def -->
<g id="edge2" class="edge">
<title>dir_5e9e7712b7f30b8f985deeedb9292b59&#45;&gt;dir_214608ef36d61442cb2b0c1c4e9a7def</title>
<path fill="none" stroke="#000000" d="M108.0592,-215.5417C100.683,-205.5591 92.2604,-192.6998 87,-180 78.7932,-160.1869 74.2404,-136.3314 71.768,-118.16"/>
<polygon fill="#000000" stroke="#000000" points="75.2365,-117.6887 70.5407,-108.1913 68.2889,-118.5441 75.2365,-117.6887"/>
<g id="a_edge2&#45;headlabel"><a xlink:href="dir_000294_000000.xhtml" target="_top" xlink:title="9">
<text text-anchor="middle" x="78.4936" y="-118.4095" font-family="Helvetica,sans-Serif" font-size="10.00" fill="#000000">9</text>
</a>
</g>
</g>
<!-- dir_aebb8dcc11953d78e620bbef0b9e2183 -->
<g id="node5" class="node">
<title>dir_aebb8dcc11953d78e620bbef0b9e2183</title>
<g id="a_node5"><a xlink:href="dir_aebb8dcc11953d78e620bbef0b9e2183.xhtml" target="_top" xlink:title="core">
<polygon fill="#ffffff" stroke="#ff0000" points="150,-180 96,-180 96,-144 150,-144 150,-180"/>
<text text-anchor="middle" x="123" y="-159.5" font-family="Helvetica,sans-Serif" font-size="10.00" fill="#000000">core</text>
</a>
</g>
</g>
<!-- dir_5e9e7712b7f30b8f985deeedb9292b59&#45;&gt;dir_aebb8dcc11953d78e620bbef0b9e2183 -->
<g id="edge3" class="edge">
<title>dir_5e9e7712b7f30b8f985deeedb9292b59&#45;&gt;dir_aebb8dcc11953d78e620bbef0b9e2183</title>
<path fill="none" stroke="#000000" d="M123,-215.8314C123,-208.131 123,-198.9743 123,-190.4166"/>
<polygon fill="#000000" stroke="#000000" points="126.5001,-190.4132 123,-180.4133 119.5001,-190.4133 126.5001,-190.4132"/>
<g id="a_edge3&#45;headlabel"><a xlink:href="dir_000294_000020.xhtml" target="_top" xlink:title="12">
<text text-anchor="middle" x="129.3393" y="-191.5079" font-family="Helvetica,sans-Serif" font-size="10.00" fill="#000000">12</text>
</a>
</g>
</g>
<!-- dir_5815af820a9cc9481f1d0990a0d60286 -->
<g id="node6" class="node">
<title>dir_5815af820a9cc9481f1d0990a0d60286</title>
<g id="a_node6"><a xlink:href="dir_5815af820a9cc9481f1d0990a0d60286.xhtml" target="_top" xlink:title="support">
<polygon fill="none" stroke="#000000" points="131,-36 77,-36 77,0 131,0 131,-36"/>
<text text-anchor="middle" x="104" y="-15.5" font-family="Helvetica,sans-Serif" font-size="10.00" fill="#000000">support</text>
</a>
</g>
</g>
<!-- dir_5e9e7712b7f30b8f985deeedb9292b59&#45;&gt;dir_5815af820a9cc9481f1d0990a0d60286 -->
<g id="edge4" class="edge">
<title>dir_5e9e7712b7f30b8f985deeedb9292b59&#45;&gt;dir_5815af820a9cc9481f1d0990a0d60286</title>
<path fill="none" stroke="#000000" d="M138.9905,-215.9169C146.6538,-206.0371 155.0166,-193.1563 159,-180 163.6365,-164.6865 161.4637,-159.8092 159,-144 153.8272,-110.8076 149.7616,-102.6449 136,-72 131.9348,-62.9474 126.7126,-53.5023 121.671,-45.0894"/>
<polygon fill="#000000" stroke="#000000" points="124.5617,-43.1088 116.3345,-36.4331 118.603,-46.7823 124.5617,-43.1088"/>
<g id="a_edge4&#45;headlabel"><a xlink:href="dir_000294_000028.xhtml" target="_top" xlink:title="3">
<text text-anchor="middle" x="128.8649" y="-42.1787" font-family="Helvetica,sans-Serif" font-size="10.00" fill="#000000">3</text>
</a>
</g>
</g>
<!-- dir_15dc5e363019af737c083bdcb2c72246 -->
<g id="node3" class="node">
<title>dir_15dc5e363019af737c083bdcb2c72246</title>
<g id="a_node3"><a xlink:href="dir_15dc5e363019af737c083bdcb2c72246.xhtml" target="_top" xlink:title="sve">
<polygon fill="#ffffff" stroke="#000000" points="78,-252 24,-252 24,-216 78,-216 78,-252"/>
<text text-anchor="middle" x="51" y="-231.5" font-family="Helvetica,sans-Serif" font-size="10.00" fill="#000000">sve</text>
</a>
</g>
</g>
<!-- dir_214608ef36d61442cb2b0c1c4e9a7def&#45;&gt;dir_5815af820a9cc9481f1d0990a0d60286 -->
<g id="edge1" class="edge">
<title>dir_214608ef36d61442cb2b0c1c4e9a7def&#45;&gt;dir_5815af820a9cc9481f1d0990a0d60286</title>
<path fill="none" stroke="#000000" d="M71.8796,-71.8314C75.004,-63.7925 79.4769,-54.1666 84.1618,-45.2918"/>
<polygon fill="#000000" stroke="#000000" points="87.2953,-46.8579 89.0731,-36.4133 81.17,-43.4696 87.2953,-46.8579"/>
<g id="a_edge1&#45;headlabel"><a xlink:href="dir_000000_000028.xhtml" target="_top" xlink:title="18">
<text text-anchor="middle" x="88.0399" y="-48.8776" font-family="Helvetica,sans-Serif" font-size="10.00" fill="#000000">18</text>
</a>
</g>
</g>
<!-- dir_aebb8dcc11953d78e620bbef0b9e2183&#45;&gt;dir_214608ef36d61442cb2b0c1c4e9a7def -->
<g id="edge5" class="edge">
<title>dir_aebb8dcc11953d78e620bbef0b9e2183&#45;&gt;dir_214608ef36d61442cb2b0c1c4e9a7def</title>
<path fill="none" stroke="#000000" d="M109.3735,-143.8314C103.154,-135.5386 95.6678,-125.557 88.84,-116.4533"/>
<polygon fill="#000000" stroke="#000000" points="91.61,-114.3133 82.81,-108.4133 86.01,-118.5133 91.61,-114.3133"/>
<g id="a_edge5&#45;headlabel"><a xlink:href="dir_000020_000000.xhtml" target="_top" xlink:title="607">
<text text-anchor="middle" x="96.0381" y="-112.9854" font-family="Helvetica,sans-Serif" font-size="10.00" fill="#000000">607</text>
</a>
</g>
</g>
<!-- dir_aebb8dcc11953d78e620bbef0b9e2183&#45;&gt;dir_5815af820a9cc9481f1d0990a0d60286 -->
<g id="edge6" class="edge">
<title>dir_aebb8dcc11953d78e620bbef0b9e2183&#45;&gt;dir_5815af820a9cc9481f1d0990a0d60286</title>
<path fill="none" stroke="#000000" d="M123.7392,-143.9402C124.1735,-125.675 124.0022,-96.6916 120,-72 118.5986,-63.354 116.2189,-54.147 113.7171,-45.8301"/>
<polygon fill="#000000" stroke="#000000" points="117.0285,-44.6935 110.6625,-36.2245 110.3576,-46.8149 117.0285,-44.6935"/>
<g id="a_edge6&#45;headlabel"><a xlink:href="dir_000020_000028.xhtml" target="_top" xlink:title="57">
<text text-anchor="middle" x="120.8235" y="-44.7587" font-family="Helvetica,sans-Serif" font-size="10.00" fill="#000000">57</text>
</a>
</g>
</g>
<!-- dir_5815af820a9cc9481f1d0990a0d60286&#45;&gt;dir_214608ef36d61442cb2b0c1c4e9a7def -->
<g id="edge7" class="edge">
<title>dir_5815af820a9cc9481f1d0990a0d60286&#45;&gt;dir_214608ef36d61442cb2b0c1c4e9a7def</title>
<path fill="none" stroke="#000000" d="M101.0251,-36.4133C97.8735,-44.484 93.3849,-54.1182 88.6958,-62.9775"/>
<polygon fill="#000000" stroke="#000000" points="85.5747,-61.3889 83.7844,-71.8314 91.6959,-64.7845 85.5747,-61.3889"/>
<g id="a_edge7&#45;headlabel"><a xlink:href="dir_000028_000000.xhtml" target="_top" xlink:title="6">
<text text-anchor="middle" x="84.8355" y="-54.3682" font-family="Helvetica,sans-Serif" font-size="10.00" fill="#000000">6</text>
</a>
</g>
</g>
</g>
</svg>
