<?xml version="1.0" encoding="UTF-8" standalone="no"?>
<!DOCTYPE svg PUBLIC "-//W3C//DTD SVG 1.1//EN"
 "http://www.w3.org/Graphics/SVG/1.1/DTD/svg11.dtd">
<!-- Generated by graphviz version 2.40.1 (20161225.0304)
 -->
<!-- Title: arm_compute/runtime/CPP Pages: 1 -->
<svg width="145pt" height="303pt"
 viewBox="0.00 0.00 145.00 303.00" xmlns="http://www.w3.org/2000/svg" xmlns:xlink="http://www.w3.org/1999/xlink">
<g id="graph0" class="graph" transform="scale(1 1) rotate(0) translate(4 299)">
<title>arm_compute/runtime/CPP</title>
<polygon fill="#ffffff" stroke="transparent" points="-4,4 -4,-299 141,-299 141,4 -4,4"/>
<g id="clust1" class="cluster">
<title>clusterdir_8bc26130589aa16388b5a02f17abf2c2</title>
<g id="a_clust1"><a xlink:href="dir_8bc26130589aa16388b5a02f17abf2c2.xhtml" target="_top" xlink:title="runtime">
<polygon fill="#ddddee" stroke="#000000" points="35,-128 35,-287 129,-287 129,-128 35,-128"/>
<text text-anchor="middle" x="82" y="-275" font-family="Helvetica,sans-Serif" font-size="10.00" fill="#000000">runtime</text>
</a>
</g>
</g>
<g id="clust2" class="cluster">
<title>clusterdir_b496024afd63bafbf4e8da80d7d3a81a</title>
<g id="a_clust2"><a xlink:href="dir_b496024afd63bafbf4e8da80d7d3a81a.xhtml" target="_top">
<polygon fill="#eeeeff" stroke="#000000" points="43,-136 43,-260 121,-260 121,-136 43,-136"/>
</a>
</g>
</g>
<!-- dir_b496024afd63bafbf4e8da80d7d3a81a -->
<g id="node1" class="node">
<title>dir_b496024afd63bafbf4e8da80d7d3a81a</title>
<text text-anchor="middle" x="80" y="-231.5" font-family="Helvetica,sans-Serif" font-size="10.00" fill="#000000">CPP</text>
</g>
<!-- dir_0f1ff859406f1a8b0006aceabacdc4c4 -->
<g id="node2" class="node">
<title>dir_0f1ff859406f1a8b0006aceabacdc4c4</title>
<g id="a_node2"><a xlink:href="dir_0f1ff859406f1a8b0006aceabacdc4c4.xhtml" target="_top" xlink:title="functions">
<polygon fill="#ffffff" stroke="#000000" points="113,-180 51,-180 51,-144 113,-144 113,-180"/>
<text text-anchor="middle" x="82" y="-159.5" font-family="Helvetica,sans-Serif" font-size="10.00" fill="#000000">functions</text>
</a>
</g>
</g>
<!-- dir_b496024afd63bafbf4e8da80d7d3a81a&#45;&gt;dir_0f1ff859406f1a8b0006aceabacdc4c4 -->
<g id="edge2" class="edge">
<title>dir_b496024afd63bafbf4e8da80d7d3a81a&#45;&gt;dir_0f1ff859406f1a8b0006aceabacdc4c4</title>
<path fill="none" stroke="#000000" d="M80.5047,-215.8314C80.7186,-208.131 80.9729,-198.9743 81.2106,-190.4166"/>
<polygon fill="#000000" stroke="#000000" points="84.7094,-190.5066 81.4885,-180.4133 77.7121,-190.3122 84.7094,-190.5066"/>
<g id="a_edge2&#45;headlabel"><a xlink:href="dir_000055_000056.xhtml" target="_top" xlink:title="8">
<text text-anchor="middle" x="87.4479" y="-191.6787" font-family="Helvetica,sans-Serif" font-size="10.00" fill="#000000">8</text>
</a>
</g>
</g>
<!-- dir_1fb090f0c6070330bfaccc4236d3ca0d -->
<g id="node3" class="node">
<title>dir_1fb090f0c6070330bfaccc4236d3ca0d</title>
<g id="a_node3"><a xlink:href="dir_1fb090f0c6070330bfaccc4236d3ca0d.xhtml" target="_top" xlink:title="core">
<polygon fill="#ffffff" stroke="#ff0000" points="54,-108 0,-108 0,-72 54,-72 54,-108"/>
<text text-anchor="middle" x="27" y="-87.5" font-family="Helvetica,sans-Serif" font-size="10.00" fill="#000000">core</text>
</a>
</g>
</g>
<!-- dir_b496024afd63bafbf4e8da80d7d3a81a&#45;&gt;dir_1fb090f0c6070330bfaccc4236d3ca0d -->
<g id="edge1" class="edge">
<title>dir_b496024afd63bafbf4e8da80d7d3a81a&#45;&gt;dir_1fb090f0c6070330bfaccc4236d3ca0d</title>
<path fill="none" stroke="#000000" d="M64.0268,-215.7389C56.1855,-205.8103 47.3065,-192.9398 42,-180 33.9109,-160.2751 30.1813,-136.4151 28.4631,-118.2195"/>
<polygon fill="#000000" stroke="#000000" points="31.9508,-117.9247 27.6661,-108.2349 24.973,-118.4817 31.9508,-117.9247"/>
<g id="a_edge1&#45;headlabel"><a xlink:href="dir_000055_000001.xhtml" target="_top" xlink:title="15">
<text text-anchor="middle" x="35.067" y="-118.782" font-family="Helvetica,sans-Serif" font-size="10.00" fill="#000000">15</text>
</a>
</g>
</g>
<!-- dir_0f1ff859406f1a8b0006aceabacdc4c4&#45;&gt;dir_1fb090f0c6070330bfaccc4236d3ca0d -->
<g id="edge4" class="edge">
<title>dir_0f1ff859406f1a8b0006aceabacdc4c4&#45;&gt;dir_1fb090f0c6070330bfaccc4236d3ca0d</title>
<path fill="none" stroke="#000000" d="M68.1212,-143.8314C61.7864,-135.5386 54.1616,-125.557 47.2074,-116.4533"/>
<polygon fill="#000000" stroke="#000000" points="49.9175,-114.2353 41.0657,-108.4133 44.3548,-118.4847 49.9175,-114.2353"/>
<g id="a_edge4&#45;headlabel"><a xlink:href="dir_000056_000001.xhtml" target="_top" xlink:title="13">
<text text-anchor="middle" x="54.3558" y="-112.8683" font-family="Helvetica,sans-Serif" font-size="10.00" fill="#000000">13</text>
</a>
</g>
</g>
<!-- dir_5815af820a9cc9481f1d0990a0d60286 -->
<g id="node4" class="node">
<title>dir_5815af820a9cc9481f1d0990a0d60286</title>
<g id="a_node4"><a xlink:href="dir_5815af820a9cc9481f1d0990a0d60286.xhtml" target="_top" xlink:title="support">
<polygon fill="none" stroke="#000000" points="54,-36 0,-36 0,0 54,0 54,-36"/>
<text text-anchor="middle" x="27" y="-15.5" font-family="Helvetica,sans-Serif" font-size="10.00" fill="#000000">support</text>
</a>
</g>
</g>
<!-- dir_0f1ff859406f1a8b0006aceabacdc4c4&#45;&gt;dir_5815af820a9cc9481f1d0990a0d60286 -->
<g id="edge5" class="edge">
<title>dir_0f1ff859406f1a8b0006aceabacdc4c4&#45;&gt;dir_5815af820a9cc9481f1d0990a0d60286</title>
<path fill="none" stroke="#000000" d="M80.2095,-143.8083C77.9112,-125.1875 72.9655,-95.7008 63,-72 59.0456,-62.5953 53.3848,-53.0879 47.7195,-44.727"/>
<polygon fill="#000000" stroke="#000000" points="50.5184,-42.6231 41.8853,-36.4815 44.8041,-46.6664 50.5184,-42.6231"/>
<g id="a_edge5&#45;headlabel"><a xlink:href="dir_000056_000028.xhtml" target="_top" xlink:title="1">
<text text-anchor="middle" x="54.9124" y="-41.4175" font-family="Helvetica,sans-Serif" font-size="10.00" fill="#000000">1</text>
</a>
</g>
</g>
<!-- dir_1fb090f0c6070330bfaccc4236d3ca0d&#45;&gt;dir_5815af820a9cc9481f1d0990a0d60286 -->
<g id="edge3" class="edge">
<title>dir_1fb090f0c6070330bfaccc4236d3ca0d&#45;&gt;dir_5815af820a9cc9481f1d0990a0d60286</title>
<path fill="none" stroke="#000000" d="M21.0476,-71.8314C20.2972,-64.131 20.0763,-54.9743 20.3849,-46.4166"/>
<polygon fill="#000000" stroke="#000000" points="23.8792,-46.6161 21.024,-36.4133 16.8935,-46.1697 23.8792,-46.6161"/>
<g id="a_edge3&#45;headlabel"><a xlink:href="dir_000001_000028.xhtml" target="_top" xlink:title="9">
<text text-anchor="middle" x="26.4836" y="-47.8844" font-family="Helvetica,sans-Serif" font-size="10.00" fill="#000000">9</text>
</a>
</g>
</g>
<!-- dir_5815af820a9cc9481f1d0990a0d60286&#45;&gt;dir_1fb090f0c6070330bfaccc4236d3ca0d -->
<g id="edge6" class="edge">
<title>dir_5815af820a9cc9481f1d0990a0d60286&#45;&gt;dir_1fb090f0c6070330bfaccc4236d3ca0d</title>
<path fill="none" stroke="#000000" d="M32.976,-36.4133C33.7071,-44.0593 33.9203,-53.1084 33.6155,-61.5726"/>
<polygon fill="#000000" stroke="#000000" points="30.1048,-61.6264 32.9524,-71.8314 37.0902,-62.078 30.1048,-61.6264"/>
<g id="a_edge6&#45;headlabel"><a xlink:href="dir_000028_000001.xhtml" target="_top" xlink:title="6">
<text text-anchor="middle" x="27.5032" y="-55.3562" font-family="Helvetica,sans-Serif" font-size="10.00" fill="#000000">6</text>
</a>
</g>
</g>
</g>
</svg>
