<?xml version="1.0" encoding="UTF-8" standalone="no"?>
<!DOCTYPE svg PUBLIC "-//W3C//DTD SVG 1.1//EN"
 "http://www.w3.org/Graphics/SVG/1.1/DTD/svg11.dtd">
<!-- Generated by graphviz version 2.40.1 (20161225.0304)
 -->
<!-- Title: arm_compute/runtime/CL Pages: 1 -->
<svg width="250pt" height="375pt"
 viewBox="0.00 0.00 249.53 375.00" xmlns="http://www.w3.org/2000/svg" xmlns:xlink="http://www.w3.org/1999/xlink">
<g id="graph0" class="graph" transform="scale(1 1) rotate(0) translate(4 371)">
<title>arm_compute/runtime/CL</title>
<polygon fill="#ffffff" stroke="transparent" points="-4,4 -4,-371 245.5316,-371 245.5316,4 -4,4"/>
<g id="clust1" class="cluster">
<title>clusterdir_8bc26130589aa16388b5a02f17abf2c2</title>
<g id="a_clust1"><a xlink:href="dir_8bc26130589aa16388b5a02f17abf2c2.xhtml" target="_top" xlink:title="runtime">
<polygon fill="#ddddee" stroke="#000000" points="62,-200 62,-359 220,-359 220,-200 62,-200"/>
<text text-anchor="middle" x="141" y="-347" font-family="Helvetica,sans-Serif" font-size="10.00" fill="#000000">runtime</text>
</a>
</g>
</g>
<g id="clust2" class="cluster">
<title>clusterdir_b986aa98f9b6490bb4fc7918500346fb</title>
<g id="a_clust2"><a xlink:href="dir_b986aa98f9b6490bb4fc7918500346fb.xhtml" target="_top">
<polygon fill="#eeeeff" stroke="#000000" points="70,-208 70,-332 212,-332 212,-208 70,-208"/>
</a>
</g>
</g>
<!-- dir_b986aa98f9b6490bb4fc7918500346fb -->
<g id="node1" class="node">
<title>dir_b986aa98f9b6490bb4fc7918500346fb</title>
<text text-anchor="middle" x="105" y="-303.5" font-family="Helvetica,sans-Serif" font-size="10.00" fill="#000000">CL</text>
</g>
<!-- dir_251c63bc3f70b60acf43edd6d870a3ef -->
<g id="node2" class="node">
<title>dir_251c63bc3f70b60acf43edd6d870a3ef</title>
<g id="a_node2"><a xlink:href="dir_251c63bc3f70b60acf43edd6d870a3ef.xhtml" target="_top" xlink:title="functions">
<polygon fill="#ffffff" stroke="#000000" points="140,-252 78,-252 78,-216 140,-216 140,-252"/>
<text text-anchor="middle" x="109" y="-231.5" font-family="Helvetica,sans-Serif" font-size="10.00" fill="#000000">functions</text>
</a>
</g>
</g>
<!-- dir_b986aa98f9b6490bb4fc7918500346fb&#45;&gt;dir_251c63bc3f70b60acf43edd6d870a3ef -->
<g id="edge13" class="edge">
<title>dir_b986aa98f9b6490bb4fc7918500346fb&#45;&gt;dir_251c63bc3f70b60acf43edd6d870a3ef</title>
<path fill="none" stroke="#000000" d="M106.0094,-287.8314C106.4372,-280.131 106.9459,-270.9743 107.4213,-262.4166"/>
<polygon fill="#000000" stroke="#000000" points="110.9169,-262.592 107.977,-252.4133 103.9276,-262.2037 110.9169,-262.592"/>
<g id="a_edge13&#45;headlabel"><a xlink:href="dir_000007_000051.xhtml" target="_top" xlink:title="85">
<text text-anchor="middle" x="113.5525" y="-263.8386" font-family="Helvetica,sans-Serif" font-size="10.00" fill="#000000">85</text>
</a>
</g>
</g>
<!-- dir_1fb090f0c6070330bfaccc4236d3ca0d -->
<g id="node5" class="node">
<title>dir_1fb090f0c6070330bfaccc4236d3ca0d</title>
<g id="a_node5"><a xlink:href="dir_1fb090f0c6070330bfaccc4236d3ca0d.xhtml" target="_top" xlink:title="core">
<polygon fill="#ffffff" stroke="#ff0000" points="184,-180 130,-180 130,-144 184,-144 184,-180"/>
<text text-anchor="middle" x="157" y="-159.5" font-family="Helvetica,sans-Serif" font-size="10.00" fill="#000000">core</text>
</a>
</g>
</g>
<!-- dir_b986aa98f9b6490bb4fc7918500346fb&#45;&gt;dir_1fb090f0c6070330bfaccc4236d3ca0d -->
<g id="edge14" class="edge">
<title>dir_b986aa98f9b6490bb4fc7918500346fb&#45;&gt;dir_1fb090f0c6070330bfaccc4236d3ca0d</title>
<path fill="none" stroke="#000000" d="M124.4319,-287.854C133.5245,-278.1484 143.5341,-265.443 149,-252 156.9519,-232.4429 158.7539,-208.5742 158.6745,-190.3327"/>
<polygon fill="#000000" stroke="#000000" points="162.1732,-190.2341 158.4426,-180.3178 155.1751,-190.3962 162.1732,-190.2341"/>
<g id="a_edge14&#45;headlabel"><a xlink:href="dir_000007_000001.xhtml" target="_top" xlink:title="104">
<text text-anchor="middle" x="165.0948" y="-191.262" font-family="Helvetica,sans-Serif" font-size="10.00" fill="#000000">104</text>
</a>
</g>
</g>
<!-- dir_5815af820a9cc9481f1d0990a0d60286 -->
<g id="node6" class="node">
<title>dir_5815af820a9cc9481f1d0990a0d60286</title>
<g id="a_node6"><a xlink:href="dir_5815af820a9cc9481f1d0990a0d60286.xhtml" target="_top" xlink:title="support">
<polygon fill="none" stroke="#000000" points="196,-36 142,-36 142,0 196,0 196,-36"/>
<text text-anchor="middle" x="169" y="-15.5" font-family="Helvetica,sans-Serif" font-size="10.00" fill="#000000">support</text>
</a>
</g>
</g>
<!-- dir_b986aa98f9b6490bb4fc7918500346fb&#45;&gt;dir_5815af820a9cc9481f1d0990a0d60286 -->
<g id="edge15" class="edge">
<title>dir_b986aa98f9b6490bb4fc7918500346fb&#45;&gt;dir_5815af820a9cc9481f1d0990a0d60286</title>
<path fill="none" stroke="#000000" d="M132.1559,-287.8465C144.5336,-278.4042 158.5085,-265.9279 168,-252 187.076,-224.0078 187.366,-213.4023 193,-180 201.0002,-132.5693 195.6012,-119.1328 186,-72 184.2426,-63.3729 181.6336,-54.1715 178.9842,-45.8541"/>
<polygon fill="#000000" stroke="#000000" points="182.2651,-44.6285 175.7869,-36.245 175.6231,-46.8386 182.2651,-44.6285"/>
<g id="a_edge15&#45;headlabel"><a xlink:href="dir_000007_000028.xhtml" target="_top" xlink:title="2">
<text text-anchor="middle" x="186.094" y="-44.6429" font-family="Helvetica,sans-Serif" font-size="10.00" fill="#000000">2</text>
</a>
</g>
</g>
<!-- dir_b496024afd63bafbf4e8da80d7d3a81a -->
<g id="node4" class="node">
<title>dir_b496024afd63bafbf4e8da80d7d3a81a</title>
<g id="a_node4"><a xlink:href="dir_b496024afd63bafbf4e8da80d7d3a81a.xhtml" target="_top" xlink:title="CPP">
<polygon fill="#ffffff" stroke="#ff0000" points="54,-108 0,-108 0,-72 54,-72 54,-108"/>
<text text-anchor="middle" x="27" y="-87.5" font-family="Helvetica,sans-Serif" font-size="10.00" fill="#000000">CPP</text>
</a>
</g>
</g>
<!-- dir_251c63bc3f70b60acf43edd6d870a3ef&#45;&gt;dir_b496024afd63bafbf4e8da80d7d3a81a -->
<g id="edge1" class="edge">
<title>dir_251c63bc3f70b60acf43edd6d870a3ef&#45;&gt;dir_b496024afd63bafbf4e8da80d7d3a81a</title>
<path fill="none" stroke="#000000" d="M98.6146,-215.7623C84.3819,-190.7682 58.7137,-145.6924 42.2844,-116.8409"/>
<polygon fill="#000000" stroke="#000000" points="45.2909,-115.0475 37.301,-108.0896 39.208,-118.5114 45.2909,-115.0475"/>
<g id="a_edge1&#45;headlabel"><a xlink:href="dir_000051_000055.xhtml" target="_top" xlink:title="3">
<text text-anchor="middle" x="49.5369" y="-114.2662" font-family="Helvetica,sans-Serif" font-size="10.00" fill="#000000">3</text>
</a>
</g>
</g>
<!-- dir_251c63bc3f70b60acf43edd6d870a3ef&#45;&gt;dir_1fb090f0c6070330bfaccc4236d3ca0d -->
<g id="edge2" class="edge">
<title>dir_251c63bc3f70b60acf43edd6d870a3ef&#45;&gt;dir_1fb090f0c6070330bfaccc4236d3ca0d</title>
<path fill="none" stroke="#000000" d="M121.1124,-215.8314C126.5281,-207.7079 133.0242,-197.9637 138.9921,-189.0118"/>
<polygon fill="#000000" stroke="#000000" points="142.0896,-190.6753 144.7245,-180.4133 136.2653,-186.7923 142.0896,-190.6753"/>
<g id="a_edge2&#45;headlabel"><a xlink:href="dir_000051_000001.xhtml" target="_top" xlink:title="71">
<text text-anchor="middle" x="142.4581" y="-192.7411" font-family="Helvetica,sans-Serif" font-size="10.00" fill="#000000">71</text>
</a>
</g>
</g>
<!-- dir_b9621ae687ab229876c54f8c2df20e15 -->
<g id="node7" class="node">
<title>dir_b9621ae687ab229876c54f8c2df20e15</title>
<g id="a_node7"><a xlink:href="dir_b9621ae687ab229876c54f8c2df20e15.xhtml" target="_top" xlink:title="common">
<polygon fill="none" stroke="#000000" points="131.5,-108 72.5,-108 72.5,-72 131.5,-72 131.5,-108"/>
<text text-anchor="middle" x="102" y="-87.5" font-family="Helvetica,sans-Serif" font-size="10.00" fill="#000000">common</text>
</a>
</g>
</g>
<!-- dir_251c63bc3f70b60acf43edd6d870a3ef&#45;&gt;dir_b9621ae687ab229876c54f8c2df20e15 -->
<g id="edge3" class="edge">
<title>dir_251c63bc3f70b60acf43edd6d870a3ef&#45;&gt;dir_b9621ae687ab229876c54f8c2df20e15</title>
<path fill="none" stroke="#000000" d="M108.1134,-215.7623C106.9195,-191.201 104.7829,-147.2474 103.3783,-118.3541"/>
<polygon fill="#000000" stroke="#000000" points="106.8609,-117.9079 102.8794,-108.0896 99.8691,-118.2478 106.8609,-117.9079"/>
<g id="a_edge3&#45;headlabel"><a xlink:href="dir_000051_000054.xhtml" target="_top" xlink:title="3">
<text text-anchor="middle" x="109.8712" y="-118.8604" font-family="Helvetica,sans-Serif" font-size="10.00" fill="#000000">3</text>
</a>
</g>
</g>
<!-- dir_50b23570393db6a4ca8647d7d5ff6dbe -->
<g id="node3" class="node">
<title>dir_50b23570393db6a4ca8647d7d5ff6dbe</title>
<g id="a_node3"><a xlink:href="dir_50b23570393db6a4ca8647d7d5ff6dbe.xhtml" target="_top" xlink:title="tuners">
<polygon fill="#ffffff" stroke="#000000" points="204,-324 150,-324 150,-288 204,-288 204,-324"/>
<text text-anchor="middle" x="177" y="-303.5" font-family="Helvetica,sans-Serif" font-size="10.00" fill="#000000">tuners</text>
</a>
</g>
</g>
<!-- dir_50b23570393db6a4ca8647d7d5ff6dbe&#45;&gt;dir_1fb090f0c6070330bfaccc4236d3ca0d -->
<g id="edge6" class="edge">
<title>dir_50b23570393db6a4ca8647d7d5ff6dbe&#45;&gt;dir_1fb090f0c6070330bfaccc4236d3ca0d</title>
<path fill="none" stroke="#000000" d="M181.4345,-287.9283C185.8917,-266.4683 190.9316,-229.8267 182,-200 180.8602,-196.1938 179.2029,-192.416 177.2753,-188.8024"/>
<polygon fill="#000000" stroke="#000000" points="180.2532,-186.9629 172.0684,-180.2353 174.2713,-190.5986 180.2532,-186.9629"/>
<g id="a_edge6&#45;headlabel"><a xlink:href="dir_000053_000001.xhtml" target="_top" xlink:title="3">
<text text-anchor="middle" x="184.5464" y="-186.0601" font-family="Helvetica,sans-Serif" font-size="10.00" fill="#000000">3</text>
</a>
</g>
</g>
<!-- dir_50b23570393db6a4ca8647d7d5ff6dbe&#45;&gt;dir_5815af820a9cc9481f1d0990a0d60286 -->
<g id="edge7" class="edge">
<title>dir_50b23570393db6a4ca8647d7d5ff6dbe&#45;&gt;dir_5815af820a9cc9481f1d0990a0d60286</title>
<path fill="none" stroke="#000000" d="M188.5912,-287.9094C212.8735,-247.5554 264.1196,-147.7722 230,-72 224.4555,-59.6868 214.5618,-49.047 204.3344,-40.5451"/>
<polygon fill="#000000" stroke="#000000" points="206.1858,-37.552 196.1372,-34.1939 201.8985,-43.0854 206.1858,-37.552"/>
<g id="a_edge7&#45;headlabel"><a xlink:href="dir_000053_000028.xhtml" target="_top" xlink:title="1">
<text text-anchor="middle" x="210.7663" y="-35.0092" font-family="Helvetica,sans-Serif" font-size="10.00" fill="#000000">1</text>
</a>
</g>
</g>
<!-- dir_b496024afd63bafbf4e8da80d7d3a81a&#45;&gt;dir_1fb090f0c6070330bfaccc4236d3ca0d -->
<g id="edge4" class="edge">
<title>dir_b496024afd63bafbf4e8da80d7d3a81a&#45;&gt;dir_1fb090f0c6070330bfaccc4236d3ca0d</title>
<path fill="none" stroke="#000000" d="M54.3896,-102.275C73.9514,-112.2608 100.2847,-126.6367 121.4354,-138.7821"/>
<polygon fill="#000000" stroke="#000000" points="119.7409,-141.8453 130.1479,-143.8314 123.2509,-135.7889 119.7409,-141.8453"/>
<g id="a_edge4&#45;headlabel"><a xlink:href="dir_000055_000001.xhtml" target="_top" xlink:title="15">
<text text-anchor="middle" x="115.2072" y="-139.9994" font-family="Helvetica,sans-Serif" font-size="10.00" fill="#000000">15</text>
</a>
</g>
</g>
<!-- dir_b496024afd63bafbf4e8da80d7d3a81a&#45;&gt;dir_5815af820a9cc9481f1d0990a0d60286 -->
<g id="edge5" class="edge">
<title>dir_b496024afd63bafbf4e8da80d7d3a81a&#45;&gt;dir_5815af820a9cc9481f1d0990a0d60286</title>
<path fill="none" stroke="#000000" d="M54.0434,-76.2879C76.3055,-65 108.0733,-48.8924 132.5742,-36.4694"/>
<polygon fill="#000000" stroke="#000000" points="134.2375,-39.5503 141.5737,-31.9063 131.0718,-33.307 134.2375,-39.5503"/>
<g id="a_edge5&#45;headlabel"><a xlink:href="dir_000055_000028.xhtml" target="_top" xlink:title="1">
<text text-anchor="middle" x="132.3154" y="-41.2082" font-family="Helvetica,sans-Serif" font-size="10.00" fill="#000000">1</text>
</a>
</g>
</g>
<!-- dir_1fb090f0c6070330bfaccc4236d3ca0d&#45;&gt;dir_b496024afd63bafbf4e8da80d7d3a81a -->
<g id="edge8" class="edge">
<title>dir_1fb090f0c6070330bfaccc4236d3ca0d&#45;&gt;dir_b496024afd63bafbf4e8da80d7d3a81a</title>
<path fill="none" stroke="#000000" d="M129.7303,-149.7862C110.1919,-139.8161 83.8545,-125.4404 62.6802,-113.2843"/>
<polygon fill="#000000" stroke="#000000" points="64.3637,-110.2147 53.9564,-108.2297 60.8543,-116.2715 64.3637,-110.2147"/>
<g id="a_edge8&#45;headlabel"><a xlink:href="dir_000001_000055.xhtml" target="_top" xlink:title="1">
<text text-anchor="middle" x="68.8973" y="-107.06" font-family="Helvetica,sans-Serif" font-size="10.00" fill="#000000">1</text>
</a>
</g>
</g>
<!-- dir_1fb090f0c6070330bfaccc4236d3ca0d&#45;&gt;dir_5815af820a9cc9481f1d0990a0d60286 -->
<g id="edge9" class="edge">
<title>dir_1fb090f0c6070330bfaccc4236d3ca0d&#45;&gt;dir_5815af820a9cc9481f1d0990a0d60286</title>
<path fill="none" stroke="#000000" d="M153.8466,-143.7623C153.4318,-119.0928 156.8516,-74.8598 161.1969,-45.9731"/>
<polygon fill="#000000" stroke="#000000" points="164.6527,-46.5272 162.8342,-36.0896 157.7468,-45.3831 164.6527,-46.5272"/>
<g id="a_edge9&#45;headlabel"><a xlink:href="dir_000001_000028.xhtml" target="_top" xlink:title="9">
<text text-anchor="middle" x="166.8664" y="-48.0375" font-family="Helvetica,sans-Serif" font-size="10.00" fill="#000000">9</text>
</a>
</g>
</g>
<!-- dir_1fb090f0c6070330bfaccc4236d3ca0d&#45;&gt;dir_b9621ae687ab229876c54f8c2df20e15 -->
<g id="edge10" class="edge">
<title>dir_1fb090f0c6070330bfaccc4236d3ca0d&#45;&gt;dir_b9621ae687ab229876c54f8c2df20e15</title>
<path fill="none" stroke="#000000" d="M137.1688,-143.8314C130.0988,-135.6232 122.3665,-125.7606 115.8734,-116.7323"/>
<polygon fill="#000000" stroke="#000000" points="118.6718,-114.626 110.0897,-108.4133 112.9243,-118.6219 118.6718,-114.626"/>
<g id="a_edge10&#45;headlabel"><a xlink:href="dir_000001_000054.xhtml" target="_top" xlink:title="1">
<text text-anchor="middle" x="123.0549" y="-113.4567" font-family="Helvetica,sans-Serif" font-size="10.00" fill="#000000">1</text>
</a>
</g>
</g>
<!-- dir_5815af820a9cc9481f1d0990a0d60286&#45;&gt;dir_1fb090f0c6070330bfaccc4236d3ca0d -->
<g id="edge11" class="edge">
<title>dir_5815af820a9cc9481f1d0990a0d60286&#45;&gt;dir_1fb090f0c6070330bfaccc4236d3ca0d</title>
<path fill="none" stroke="#000000" d="M172.1508,-36.0896C172.5811,-60.6805 169.1708,-104.905 164.8293,-133.8531"/>
<polygon fill="#000000" stroke="#000000" points="161.369,-133.3257 163.193,-143.7623 168.2755,-134.4662 161.369,-133.3257"/>
<g id="a_edge11&#45;headlabel"><a xlink:href="dir_000028_000001.xhtml" target="_top" xlink:title="6">
<text text-anchor="middle" x="159.1532" y="-126.8165" font-family="Helvetica,sans-Serif" font-size="10.00" fill="#000000">6</text>
</a>
</g>
</g>
<!-- dir_b9621ae687ab229876c54f8c2df20e15&#45;&gt;dir_1fb090f0c6070330bfaccc4236d3ca0d -->
<g id="edge12" class="edge">
<title>dir_b9621ae687ab229876c54f8c2df20e15&#45;&gt;dir_1fb090f0c6070330bfaccc4236d3ca0d</title>
<path fill="none" stroke="#000000" d="M122.0417,-108.4133C129.1246,-116.654 136.851,-126.5245 143.3194,-135.536"/>
<polygon fill="#000000" stroke="#000000" points="140.4981,-137.6095 149.0736,-143.8314 146.2498,-133.6197 140.4981,-137.6095"/>
<g id="a_edge12&#45;headlabel"><a xlink:href="dir_000054_000001.xhtml" target="_top" xlink:title="1">
<text text-anchor="middle" x="136.1164" y="-133.7742" font-family="Helvetica,sans-Serif" font-size="10.00" fill="#000000">1</text>
</a>
</g>
</g>
</g>
</svg>
