<?xml version="1.0" encoding="UTF-8" standalone="no"?>
<!DOCTYPE svg PUBLIC "-//W3C//DTD SVG 1.1//EN"
 "http://www.w3.org/Graphics/SVG/1.1/DTD/svg11.dtd">
<!-- Generated by graphviz version 2.40.1 (20161225.0304)
 -->
<!-- Title: src/cpu/kernels/add/generic Pages: 1 -->
<svg width="326pt" height="231pt"
 viewBox="0.00 0.00 326.00 231.00" xmlns="http://www.w3.org/2000/svg" xmlns:xlink="http://www.w3.org/1999/xlink">
<g id="graph0" class="graph" transform="scale(1 1) rotate(0) translate(4 227)">
<title>src/cpu/kernels/add/generic</title>
<polygon fill="#ffffff" stroke="transparent" points="-4,4 -4,-227 322,-227 322,4 -4,4"/>
<g id="clust1" class="cluster">
<title>clusterdir_7f0c74cf3e327840dbe789f241faca2d</title>
<g id="a_clust1"><a xlink:href="dir_7f0c74cf3e327840dbe789f241faca2d.xhtml" target="_top" xlink:title="add">
<polygon fill="#ddddee" stroke="#000000" points="8,-128 8,-215 310,-215 310,-128 8,-128"/>
<text text-anchor="middle" x="159" y="-203" font-family="Helvetica,sans-Serif" font-size="10.00" fill="#000000">add</text>
</a>
</g>
</g>
<g id="clust2" class="cluster">
<title>clusterdir_b53f57400ea055fa5d0efec8ea5037d2</title>
<g id="a_clust2"><a xlink:href="dir_b53f57400ea055fa5d0efec8ea5037d2.xhtml" target="_top">
<polygon fill="#eeeeff" stroke="#000000" points="16,-136 16,-188 302,-188 302,-136 16,-136"/>
</a>
</g>
</g>
<!-- dir_b53f57400ea055fa5d0efec8ea5037d2 -->
<g id="node1" class="node">
<title>dir_b53f57400ea055fa5d0efec8ea5037d2</title>
<text text-anchor="middle" x="267" y="-159.5" font-family="Helvetica,sans-Serif" font-size="10.00" fill="#000000">generic</text>
</g>
<!-- dir_b7c35eccc6b31413e4d25a6054171f61 -->
<g id="node2" class="node">
<title>dir_b7c35eccc6b31413e4d25a6054171f61</title>
<g id="a_node2"><a xlink:href="dir_b7c35eccc6b31413e4d25a6054171f61.xhtml" target="_top" xlink:title="neon">
<polygon fill="#ffffff" stroke="#000000" points="222,-180 168,-180 168,-144 222,-144 222,-180"/>
<text text-anchor="middle" x="195" y="-159.5" font-family="Helvetica,sans-Serif" font-size="10.00" fill="#000000">neon</text>
</a>
</g>
</g>
<!-- dir_214608ef36d61442cb2b0c1c4e9a7def -->
<g id="node5" class="node">
<title>dir_214608ef36d61442cb2b0c1c4e9a7def</title>
<g id="a_node5"><a xlink:href="dir_214608ef36d61442cb2b0c1c4e9a7def.xhtml" target="_top" xlink:title="arm_compute">
<polygon fill="#ffffff" stroke="#ff0000" points="236,-36 152,-36 152,0 236,0 236,-36"/>
<text text-anchor="middle" x="194" y="-15.5" font-family="Helvetica,sans-Serif" font-size="10.00" fill="#000000">arm_compute</text>
</a>
</g>
</g>
<!-- dir_b7c35eccc6b31413e4d25a6054171f61&#45;&gt;dir_214608ef36d61442cb2b0c1c4e9a7def -->
<g id="edge2" class="edge">
<title>dir_b7c35eccc6b31413e4d25a6054171f61&#45;&gt;dir_214608ef36d61442cb2b0c1c4e9a7def</title>
<path fill="none" stroke="#000000" d="M191.1587,-143.6001C189.1834,-133.2025 186.9877,-119.9346 186,-108 184.6803,-92.0545 184.8244,-87.9568 186,-72 186.6169,-63.6264 187.7649,-54.5812 189.0026,-46.3322"/>
<polygon fill="#000000" stroke="#000000" points="192.4648,-46.8463 190.585,-36.4196 185.5523,-45.7428 192.4648,-46.8463"/>
<g id="a_edge2&#45;headlabel"><a xlink:href="dir_000306_000000.xhtml" target="_top" xlink:title="17">
<text text-anchor="middle" x="194.702" y="-48.3436" font-family="Helvetica,sans-Serif" font-size="10.00" fill="#000000">17</text>
</a>
</g>
</g>
<!-- dir_aebb8dcc11953d78e620bbef0b9e2183 -->
<g id="node6" class="node">
<title>dir_aebb8dcc11953d78e620bbef0b9e2183</title>
<g id="a_node6"><a xlink:href="dir_aebb8dcc11953d78e620bbef0b9e2183.xhtml" target="_top" xlink:title="core">
<polygon fill="#ffffff" stroke="#ff0000" points="249,-108 195,-108 195,-72 249,-72 249,-108"/>
<text text-anchor="middle" x="222" y="-87.5" font-family="Helvetica,sans-Serif" font-size="10.00" fill="#000000">core</text>
</a>
</g>
</g>
<!-- dir_b7c35eccc6b31413e4d25a6054171f61&#45;&gt;dir_aebb8dcc11953d78e620bbef0b9e2183 -->
<g id="edge3" class="edge">
<title>dir_b7c35eccc6b31413e4d25a6054171f61&#45;&gt;dir_aebb8dcc11953d78e620bbef0b9e2183</title>
<path fill="none" stroke="#000000" d="M201.8132,-143.8314C204.7644,-135.9617 208.2858,-126.5712 211.555,-117.8533"/>
<polygon fill="#000000" stroke="#000000" points="214.8609,-119.0055 215.095,-108.4133 208.3066,-116.5476 214.8609,-119.0055"/>
<g id="a_edge3&#45;headlabel"><a xlink:href="dir_000306_000020.xhtml" target="_top" xlink:title="7">
<text text-anchor="middle" x="216.2573" y="-120.8682" font-family="Helvetica,sans-Serif" font-size="10.00" fill="#000000">7</text>
</a>
</g>
</g>
<!-- dir_d52e71b034cc1279c2395a7bbdb83fae -->
<g id="node3" class="node">
<title>dir_d52e71b034cc1279c2395a7bbdb83fae</title>
<g id="a_node3"><a xlink:href="dir_d52e71b034cc1279c2395a7bbdb83fae.xhtml" target="_top" xlink:title="sve">
<polygon fill="#ffffff" stroke="#000000" points="150,-180 96,-180 96,-144 150,-144 150,-180"/>
<text text-anchor="middle" x="123" y="-159.5" font-family="Helvetica,sans-Serif" font-size="10.00" fill="#000000">sve</text>
</a>
</g>
</g>
<!-- dir_2cdee17d2671be52fa4558354d86db06 -->
<g id="node4" class="node">
<title>dir_2cdee17d2671be52fa4558354d86db06</title>
<g id="a_node4"><a xlink:href="dir_2cdee17d2671be52fa4558354d86db06.xhtml" target="_top" xlink:title="sve2">
<polygon fill="#ffffff" stroke="#000000" points="78,-180 24,-180 24,-144 78,-144 78,-180"/>
<text text-anchor="middle" x="51" y="-159.5" font-family="Helvetica,sans-Serif" font-size="10.00" fill="#000000">sve2</text>
</a>
</g>
</g>
<!-- dir_aebb8dcc11953d78e620bbef0b9e2183&#45;&gt;dir_214608ef36d61442cb2b0c1c4e9a7def -->
<g id="edge1" class="edge">
<title>dir_aebb8dcc11953d78e620bbef0b9e2183&#45;&gt;dir_214608ef36d61442cb2b0c1c4e9a7def</title>
<path fill="none" stroke="#000000" d="M214.9344,-71.8314C211.874,-63.9617 208.2221,-54.5712 204.8318,-45.8533"/>
<polygon fill="#000000" stroke="#000000" points="208.0473,-44.4647 201.1607,-36.4133 201.5232,-47.0019 208.0473,-44.4647"/>
<g id="a_edge1&#45;headlabel"><a xlink:href="dir_000020_000000.xhtml" target="_top" xlink:title="607">
<text text-anchor="middle" x="211.9963" y="-44.2859" font-family="Helvetica,sans-Serif" font-size="10.00" fill="#000000">607</text>
</a>
</g>
</g>
</g>
</svg>
