<?xml version="1.0" encoding="UTF-8" standalone="no"?>
<!DOCTYPE svg PUBLIC "-//W3C//DTD SVG 1.1//EN"
 "http://www.w3.org/Graphics/SVG/1.1/DTD/svg11.dtd">
<!-- Generated by graphviz version 2.40.1 (20161225.0304)
 -->
<!-- Title: src/cpu/kernels/crop Pages: 1 -->
<svg width="236pt" height="178pt"
 viewBox="0.00 0.00 236.00 178.06" xmlns="http://www.w3.org/2000/svg" xmlns:xlink="http://www.w3.org/1999/xlink">
<g id="graph0" class="graph" transform="scale(1 1) rotate(0) translate(4 174.0552)">
<title>src/cpu/kernels/crop</title>
<polygon fill="#ffffff" stroke="transparent" points="-4,4 -4,-174.0552 232,-174.0552 232,4 -4,4"/>
<g id="clust1" class="cluster">
<title>clusterdir_1de7bcbbdec2bf3559cb3c688662d4f5</title>
<g id="a_clust1"><a xlink:href="dir_1de7bcbbdec2bf3559cb3c688662d4f5.xhtml" target="_top" xlink:title="kernels">
<polygon fill="#ddddee" stroke="#000000" points="8,-56 8,-143 166,-143 166,-56 8,-56"/>
<text text-anchor="middle" x="87" y="-131" font-family="Helvetica,sans-Serif" font-size="10.00" fill="#000000">kernels</text>
</a>
</g>
</g>
<g id="clust2" class="cluster">
<title>clusterdir_5c49691f148f50729d858baf3f89c690</title>
<g id="a_clust2"><a xlink:href="dir_5c49691f148f50729d858baf3f89c690.xhtml" target="_top">
<polygon fill="#eeeeff" stroke="#000000" points="16,-64 16,-116 158,-116 158,-64 16,-64"/>
</a>
</g>
</g>
<!-- dir_5c49691f148f50729d858baf3f89c690 -->
<g id="node1" class="node">
<title>dir_5c49691f148f50729d858baf3f89c690</title>
<text text-anchor="middle" x="123" y="-87.5" font-family="Helvetica,sans-Serif" font-size="10.00" fill="#000000">crop</text>
</g>
<!-- dir_c1277a8f659dceff9d1ae9c3a028b9e5 -->
<g id="node2" class="node">
<title>dir_c1277a8f659dceff9d1ae9c3a028b9e5</title>
<g id="a_node2"><a xlink:href="dir_c1277a8f659dceff9d1ae9c3a028b9e5.xhtml" target="_top" xlink:title="generic">
<polygon fill="#ffffff" stroke="#ff0000" points="78,-108 24,-108 24,-72 78,-72 78,-108"/>
<text text-anchor="middle" x="51" y="-87.5" font-family="Helvetica,sans-Serif" font-size="10.00" fill="#000000">generic</text>
</a>
</g>
</g>
<!-- dir_214608ef36d61442cb2b0c1c4e9a7def -->
<g id="node3" class="node">
<title>dir_214608ef36d61442cb2b0c1c4e9a7def</title>
<g id="a_node3"><a xlink:href="dir_214608ef36d61442cb2b0c1c4e9a7def.xhtml" target="_top" xlink:title="arm_compute">
<polygon fill="#ffffff" stroke="#ff0000" points="168,-36 84,-36 84,0 168,0 168,-36"/>
<text text-anchor="middle" x="126" y="-15.5" font-family="Helvetica,sans-Serif" font-size="10.00" fill="#000000">arm_compute</text>
</a>
</g>
</g>
<!-- dir_c1277a8f659dceff9d1ae9c3a028b9e5&#45;&gt;dir_214608ef36d61442cb2b0c1c4e9a7def -->
<g id="edge1" class="edge">
<title>dir_c1277a8f659dceff9d1ae9c3a028b9e5&#45;&gt;dir_214608ef36d61442cb2b0c1c4e9a7def</title>
<path fill="none" stroke="#000000" d="M69.9257,-71.8314C78.9857,-63.1337 89.9809,-52.5783 99.8265,-43.1265"/>
<polygon fill="#000000" stroke="#000000" points="102.2904,-45.613 107.0804,-36.1628 97.4426,-40.5633 102.2904,-45.613"/>
<g id="a_edge1&#45;headlabel"><a xlink:href="dir_000280_000000.xhtml" target="_top" xlink:title="6">
<text text-anchor="middle" x="101.6636" y="-47.6506" font-family="Helvetica,sans-Serif" font-size="10.00" fill="#000000">6</text>
</a>
</g>
</g>
<!-- dir_aebb8dcc11953d78e620bbef0b9e2183 -->
<g id="node4" class="node">
<title>dir_aebb8dcc11953d78e620bbef0b9e2183</title>
<g id="a_node4"><a xlink:href="dir_aebb8dcc11953d78e620bbef0b9e2183.xhtml" target="_top" xlink:title="core">
<polygon fill="#ffffff" stroke="#ff0000" points="228,-108 174,-108 174,-72 228,-72 228,-108"/>
<text text-anchor="middle" x="201" y="-87.5" font-family="Helvetica,sans-Serif" font-size="10.00" fill="#000000">core</text>
</a>
</g>
</g>
<!-- dir_c1277a8f659dceff9d1ae9c3a028b9e5&#45;&gt;dir_aebb8dcc11953d78e620bbef0b9e2183 -->
<g id="edge2" class="edge">
<title>dir_c1277a8f659dceff9d1ae9c3a028b9e5&#45;&gt;dir_aebb8dcc11953d78e620bbef0b9e2183</title>
<path fill="none" stroke="#000000" d="M56.7294,-108.0384C63.2342,-125.1355 75.6695,-149.8155 96,-161 118.1962,-173.2109 130.6257,-172.8814 153,-161 170.3031,-151.8116 182.5051,-133.2922 190.2759,-117.4712"/>
<polygon fill="#000000" stroke="#000000" points="193.5944,-118.6286 194.5477,-108.0767 187.2223,-115.7311 193.5944,-118.6286"/>
<g id="a_edge2&#45;headlabel"><a xlink:href="dir_000280_000020.xhtml" target="_top" xlink:title="7">
<text text-anchor="middle" x="194.6912" y="-120.5761" font-family="Helvetica,sans-Serif" font-size="10.00" fill="#000000">7</text>
</a>
</g>
</g>
<!-- dir_aebb8dcc11953d78e620bbef0b9e2183&#45;&gt;dir_c1277a8f659dceff9d1ae9c3a028b9e5 -->
<g id="edge4" class="edge">
<title>dir_aebb8dcc11953d78e620bbef0b9e2183&#45;&gt;dir_c1277a8f659dceff9d1ae9c3a028b9e5</title>
<path fill="none" stroke="#000000" d="M194.5477,-108.0767C187.3503,-125.2029 173.8943,-149.9045 153,-161 130.6257,-172.8814 118.1962,-173.2109 96,-161 79.1638,-151.7378 67.7421,-133.2206 60.619,-117.4191"/>
<polygon fill="#000000" stroke="#000000" points="63.7928,-115.9352 56.7294,-108.0384 57.3266,-118.6164 63.7928,-115.9352"/>
<g id="a_edge4&#45;headlabel"><a xlink:href="dir_000020_000280.xhtml" target="_top" xlink:title="1">
<text text-anchor="middle" x="67.7923" y="-115.6682" font-family="Helvetica,sans-Serif" font-size="10.00" fill="#000000">1</text>
</a>
</g>
</g>
<!-- dir_aebb8dcc11953d78e620bbef0b9e2183&#45;&gt;dir_214608ef36d61442cb2b0c1c4e9a7def -->
<g id="edge3" class="edge">
<title>dir_aebb8dcc11953d78e620bbef0b9e2183&#45;&gt;dir_214608ef36d61442cb2b0c1c4e9a7def</title>
<path fill="none" stroke="#000000" d="M182.0743,-71.8314C173.0143,-63.1337 162.0191,-52.5783 152.1735,-43.1265"/>
<polygon fill="#000000" stroke="#000000" points="154.5574,-40.5633 144.9196,-36.1628 149.7096,-45.613 154.5574,-40.5633"/>
<g id="a_edge3&#45;headlabel"><a xlink:href="dir_000020_000000.xhtml" target="_top" xlink:title="607">
<text text-anchor="middle" x="159.1167" y="-38.5045" font-family="Helvetica,sans-Serif" font-size="10.00" fill="#000000">607</text>
</a>
</g>
</g>
</g>
</svg>
