<?xml version="1.0" encoding="UTF-8" standalone="no"?>
<!DOCTYPE svg PUBLIC "-//W3C//DTD SVG 1.1//EN"
 "http://www.w3.org/Graphics/SVG/1.1/DTD/svg11.dtd">
<!-- Generated by graphviz version 2.40.1 (20161225.0304)
 -->
<!-- Title: Graphical Class Hierarchy Pages: 1 -->
<svg width="269pt" height="66pt"
 viewBox="0.00 0.00 269.00 66.00" xmlns="http://www.w3.org/2000/svg" xmlns:xlink="http://www.w3.org/1999/xlink">
<g id="graph0" class="graph" transform="scale(1 1) rotate(0) translate(4 62)">
<title>Graphical Class Hierarchy</title>
<polygon fill="#ffffff" stroke="transparent" points="-4,4 -4,-62 265,-62 265,4 -4,4"/>
<!-- Node0 -->
<g id="node1" class="node">
<title>Node0</title>
<g id="a_node1"><a xlink:href="classarm__compute_1_1utils_1_1_i_image_data_feeder.xhtml" target="_top" xlink:title="Image feeder interface. ">
<polygon fill="#ffffff" stroke="#000000" points="0,-19.5 0,-38.5 106,-38.5 106,-19.5 0,-19.5"/>
<text text-anchor="middle" x="53" y="-26.5" font-family="Helvetica,sans-Serif" font-size="10.00" fill="#000000">IImageDataFeeder</text>
</a>
</g>
</g>
<!-- Node1 -->
<g id="node2" class="node">
<title>Node1</title>
<g id="a_node2"><a xlink:href="classarm__compute_1_1utils_1_1_file_image_feeder.xhtml" target="_top" xlink:title="File Image feeder concrete implementation. ">
<polygon fill="#ffffff" stroke="#000000" points="153.5,-38.5 153.5,-57.5 249.5,-57.5 249.5,-38.5 153.5,-38.5"/>
<text text-anchor="middle" x="201.5" y="-45.5" font-family="Helvetica,sans-Serif" font-size="10.00" fill="#000000">FileImageFeeder</text>
</a>
</g>
</g>
<!-- Node0&#45;&gt;Node1 -->
<g id="edge1" class="edge">
<title>Node0&#45;&gt;Node1</title>
<path fill="none" stroke="#191970" d="M116.3982,-37.1116C128.6979,-38.6853 141.4037,-40.3109 153.1259,-41.8107"/>
<polygon fill="#191970" stroke="#191970" points="116.5558,-33.6033 106.1925,-35.8058 115.6674,-40.5467 116.5558,-33.6033"/>
</g>
<!-- Node2 -->
<g id="node3" class="node">
<title>Node2</title>
<g id="a_node3"><a xlink:href="classarm__compute_1_1utils_1_1_memory_image_feeder.xhtml" target="_top" xlink:title="Memory Image feeder concrete implementation. ">
<polygon fill="#ffffff" stroke="#000000" points="142,-.5 142,-19.5 261,-19.5 261,-.5 142,-.5"/>
<text text-anchor="middle" x="201.5" y="-7.5" font-family="Helvetica,sans-Serif" font-size="10.00" fill="#000000">MemoryImageFeeder</text>
</a>
</g>
</g>
<!-- Node0&#45;&gt;Node2 -->
<g id="edge2" class="edge">
<title>Node0&#45;&gt;Node2</title>
<path fill="none" stroke="#191970" d="M116.3802,-20.8908C124.8353,-19.809 133.4826,-18.7026 141.8707,-17.6293"/>
<polygon fill="#191970" stroke="#191970" points="115.6674,-17.4533 106.1925,-22.1942 116.5558,-24.3967 115.6674,-17.4533"/>
</g>
</g>
</svg>
