<?xml version="1.0" encoding="UTF-8" standalone="no"?>
<!DOCTYPE svg PUBLIC "-//W3C//DTD SVG 1.1//EN"
 "http://www.w3.org/Graphics/SVG/1.1/DTD/svg11.dtd">
<!-- Generated by graphviz version 2.40.1 (20161225.0304)
 -->
<!-- Title: Graphical Class Hierarchy Pages: 1 -->
<svg width="248pt" height="1586pt"
 viewBox="0.00 0.00 248.00 1586.00" xmlns="http://www.w3.org/2000/svg" xmlns:xlink="http://www.w3.org/1999/xlink">
<g id="graph0" class="graph" transform="scale(1 1) rotate(0) translate(4 1582)">
<title>Graphical Class Hierarchy</title>
<polygon fill="#ffffff" stroke="transparent" points="-4,4 -4,-1582 244,-1582 244,4 -4,4"/>
<!-- Node0 -->
<g id="node1" class="node">
<title>Node0</title>
<g id="a_node1"><a xlink:href="classarm__compute_1_1graph_1_1frontend_1_1_i_layer.xhtml" target="_top" xlink:title="ILayer interface. ">
<polygon fill="#ffffff" stroke="#000000" points="0,-779.5 0,-798.5 47,-798.5 47,-779.5 0,-779.5"/>
<text text-anchor="middle" x="23.5" y="-786.5" font-family="Helvetica,sans-Serif" font-size="10.00" fill="#000000">ILayer</text>
</a>
</g>
</g>
<!-- Node1 -->
<g id="node2" class="node">
<title>Node1</title>
<g id="a_node2"><a xlink:href="classarm__compute_1_1graph_1_1frontend_1_1_activation_layer.xhtml" target="_top" xlink:title="Activation Layer. ">
<polygon fill="#ffffff" stroke="#000000" points="115,-1558.5 115,-1577.5 208,-1577.5 208,-1558.5 115,-1558.5"/>
<text text-anchor="middle" x="161.5" y="-1565.5" font-family="Helvetica,sans-Serif" font-size="10.00" fill="#000000">ActivationLayer</text>
</a>
</g>
</g>
<!-- Node0&#45;&gt;Node1 -->
<g id="edge1" class="edge">
<title>Node0&#45;&gt;Node1</title>
<path fill="none" stroke="#191970" d="M23.6837,-808.6288C24.9209,-922.0949 33.5695,-1490.9916 83,-1549 91.0032,-1558.392 102.78,-1563.5721 114.7905,-1566.3262"/>
<polygon fill="#191970" stroke="#191970" points="27.1832,-808.5527 23.5811,-798.589 20.1835,-808.6243 27.1832,-808.5527"/>
</g>
<!-- Node2 -->
<g id="node3" class="node">
<title>Node2</title>
<g id="a_node3"><a xlink:href="classarm__compute_1_1graph_1_1frontend_1_1_arg_min_max_layer.xhtml" target="_top" xlink:title="ArgMinMax Layer. ">
<polygon fill="#ffffff" stroke="#000000" points="112.5,-1520.5 112.5,-1539.5 210.5,-1539.5 210.5,-1520.5 112.5,-1520.5"/>
<text text-anchor="middle" x="161.5" y="-1527.5" font-family="Helvetica,sans-Serif" font-size="10.00" fill="#000000">ArgMinMaxLayer</text>
</a>
</g>
</g>
<!-- Node0&#45;&gt;Node2 -->
<g id="edge2" class="edge">
<title>Node0&#45;&gt;Node2</title>
<path fill="none" stroke="#191970" d="M23.7698,-808.667C25.4564,-918.8094 36.0591,-1456.1412 83,-1511 90.4754,-1519.7363 101.216,-1524.8253 112.363,-1527.7073"/>
<polygon fill="#191970" stroke="#191970" points="27.2688,-808.5665 23.623,-798.6187 20.2696,-808.6688 27.2688,-808.5665"/>
</g>
<!-- Node3 -->
<g id="node4" class="node">
<title>Node3</title>
<g id="a_node4"><a xlink:href="classarm__compute_1_1graph_1_1frontend_1_1_batch_normalization_layer.xhtml" target="_top" xlink:title="Batchnormalization Layer. ">
<polygon fill="#ffffff" stroke="#000000" points="91.5,-1482.5 91.5,-1501.5 231.5,-1501.5 231.5,-1482.5 91.5,-1482.5"/>
<text text-anchor="middle" x="161.5" y="-1489.5" font-family="Helvetica,sans-Serif" font-size="10.00" fill="#000000">BatchNormalizationLayer</text>
</a>
</g>
</g>
<!-- Node0&#45;&gt;Node3 -->
<g id="edge3" class="edge">
<title>Node0&#45;&gt;Node3</title>
<path fill="none" stroke="#191970" d="M23.8709,-808.9586C26.0419,-916.2246 38.5802,-1421.3257 83,-1473 86.1992,-1476.7217 89.9909,-1479.7808 94.1534,-1482.2891"/>
<polygon fill="#191970" stroke="#191970" points="27.3683,-808.7887 23.6738,-798.859 20.3697,-808.9254 27.3683,-808.7887"/>
</g>
<!-- Node4 -->
<g id="node5" class="node">
<title>Node4</title>
<g id="a_node5"><a xlink:href="classarm__compute_1_1graph_1_1frontend_1_1_bounding_box_transform_layer.xhtml" target="_top" xlink:title="Bounding Box Transform Layer. ">
<polygon fill="#ffffff" stroke="#000000" points="83,-1444.5 83,-1463.5 240,-1463.5 240,-1444.5 83,-1444.5"/>
<text text-anchor="middle" x="161.5" y="-1451.5" font-family="Helvetica,sans-Serif" font-size="10.00" fill="#000000">BoundingBoxTransformLayer</text>
</a>
</g>
</g>
<!-- Node0&#45;&gt;Node4 -->
<g id="edge4" class="edge">
<title>Node0&#45;&gt;Node4</title>
<path fill="none" stroke="#191970" d="M23.9749,-808.8119C26.6282,-912.1473 41.0364,-1386.433 83,-1435 86.3003,-1438.8196 90.2247,-1441.9407 94.5325,-1444.4842"/>
<polygon fill="#191970" stroke="#191970" points="27.4735,-808.7061 23.7253,-798.7965 20.4757,-808.8806 27.4735,-808.7061"/>
</g>
<!-- Node5 -->
<g id="node6" class="node">
<title>Node5</title>
<g id="a_node6"><a xlink:href="classarm__compute_1_1graph_1_1frontend_1_1_channel_shuffle_layer.xhtml" target="_top" xlink:title="Channel Shuffle Layer. ">
<polygon fill="#ffffff" stroke="#000000" points="103,-1406.5 103,-1425.5 220,-1425.5 220,-1406.5 103,-1406.5"/>
<text text-anchor="middle" x="161.5" y="-1413.5" font-family="Helvetica,sans-Serif" font-size="10.00" fill="#000000">ChannelShuffleLayer</text>
</a>
</g>
</g>
<!-- Node0&#45;&gt;Node5 -->
<g id="edge5" class="edge">
<title>Node0&#45;&gt;Node5</title>
<path fill="none" stroke="#191970" d="M24.0972,-808.8746C27.2704,-908.6091 43.5171,-1351.5667 83,-1397 88.3347,-1403.1386 95.2815,-1407.471 102.8362,-1410.5004"/>
<polygon fill="#191970" stroke="#191970" points="27.5897,-808.5747 23.7812,-798.6881 20.5931,-808.7919 27.5897,-808.5747"/>
</g>
<!-- Node6 -->
<g id="node7" class="node">
<title>Node6</title>
<g id="a_node7"><a xlink:href="classarm__compute_1_1graph_1_1frontend_1_1_concat_layer.xhtml" target="_top" xlink:title="Concat Layer. ">
<polygon fill="#ffffff" stroke="#000000" points="123,-1368.5 123,-1387.5 200,-1387.5 200,-1368.5 123,-1368.5"/>
<text text-anchor="middle" x="161.5" y="-1375.5" font-family="Helvetica,sans-Serif" font-size="10.00" fill="#000000">ConcatLayer</text>
</a>
</g>
</g>
<!-- Node0&#45;&gt;Node6 -->
<g id="edge6" class="edge">
<title>Node0&#45;&gt;Node6</title>
<path fill="none" stroke="#191970" d="M24.2315,-808.8154C27.9424,-904.591 45.9773,-1316.6744 83,-1359 92.8781,-1370.2929 108.2125,-1375.4649 122.7164,-1377.6599"/>
<polygon fill="#191970" stroke="#191970" points="27.7181,-808.392 23.8416,-798.5318 20.7231,-808.6573 27.7181,-808.392"/>
</g>
<!-- Node7 -->
<g id="node8" class="node">
<title>Node7</title>
<g id="a_node8"><a xlink:href="classarm__compute_1_1graph_1_1frontend_1_1_constant_layer.xhtml" target="_top" xlink:title="Constant Layer. ">
<polygon fill="#ffffff" stroke="#000000" points="118,-1330.5 118,-1349.5 205,-1349.5 205,-1330.5 118,-1330.5"/>
<text text-anchor="middle" x="161.5" y="-1337.5" font-family="Helvetica,sans-Serif" font-size="10.00" fill="#000000">ConstantLayer</text>
</a>
</g>
</g>
<!-- Node0&#45;&gt;Node7 -->
<g id="edge7" class="edge">
<title>Node0&#45;&gt;Node7</title>
<path fill="none" stroke="#191970" d="M24.3925,-808.9334C28.6877,-900.9442 48.4551,-1281.7996 83,-1321 91.8071,-1330.994 104.888,-1336.1871 117.8578,-1338.7662"/>
<polygon fill="#191970" stroke="#191970" points="27.8805,-808.5912 23.9263,-798.7619 20.8879,-808.9117 27.8805,-808.5912"/>
</g>
<!-- Node8 -->
<g id="node9" class="node">
<title>Node8</title>
<g id="a_node9"><a xlink:href="classarm__compute_1_1graph_1_1frontend_1_1_convolution_layer.xhtml" target="_top" xlink:title="Convolution Layer. ">
<polygon fill="#ffffff" stroke="#000000" points="110.5,-1292.5 110.5,-1311.5 212.5,-1311.5 212.5,-1292.5 110.5,-1292.5"/>
<text text-anchor="middle" x="161.5" y="-1299.5" font-family="Helvetica,sans-Serif" font-size="10.00" fill="#000000">ConvolutionLayer</text>
</a>
</g>
</g>
<!-- Node0&#45;&gt;Node8 -->
<g id="edge8" class="edge">
<title>Node0&#45;&gt;Node8</title>
<path fill="none" stroke="#191970" d="M24.5702,-808.8896C29.4696,-896.698 50.9069,-1246.8919 83,-1283 90.0796,-1290.9652 99.8742,-1295.8757 110.1479,-1298.8431"/>
<polygon fill="#191970" stroke="#191970" points="28.065,-808.6968 24.0217,-798.9039 21.0755,-809.0808 28.065,-808.6968"/>
</g>
<!-- Node9 -->
<g id="node10" class="node">
<title>Node9</title>
<g id="a_node10"><a xlink:href="classarm__compute_1_1graph_1_1frontend_1_1_deconvolution_layer.xhtml" target="_top" xlink:title="Deconvolution Layer. ">
<polygon fill="#ffffff" stroke="#000000" points="104.5,-1254.5 104.5,-1273.5 218.5,-1273.5 218.5,-1254.5 104.5,-1254.5"/>
<text text-anchor="middle" x="161.5" y="-1261.5" font-family="Helvetica,sans-Serif" font-size="10.00" fill="#000000">DeconvolutionLayer</text>
</a>
</g>
</g>
<!-- Node0&#45;&gt;Node9 -->
<g id="edge9" class="edge">
<title>Node0&#45;&gt;Node9</title>
<path fill="none" stroke="#191970" d="M24.7635,-808.6472C30.2823,-891.7905 53.3292,-1211.9476 83,-1245 88.7138,-1251.365 96.1617,-1255.7755 104.1928,-1258.8015"/>
<polygon fill="#191970" stroke="#191970" points="28.2479,-808.293 24.1022,-798.5429 21.2628,-808.7502 28.2479,-808.293"/>
</g>
<!-- Node10 -->
<g id="node11" class="node">
<title>Node10</title>
<g id="a_node11"><a xlink:href="classarm__compute_1_1graph_1_1frontend_1_1_depth_to_space_layer.xhtml" target="_top" xlink:title="DepthToSpace Layer. ">
<polygon fill="#ffffff" stroke="#000000" points="105,-1216.5 105,-1235.5 218,-1235.5 218,-1216.5 105,-1216.5"/>
<text text-anchor="middle" x="161.5" y="-1223.5" font-family="Helvetica,sans-Serif" font-size="10.00" fill="#000000">DepthToSpaceLayer</text>
</a>
</g>
</g>
<!-- Node0&#45;&gt;Node10 -->
<g id="edge10" class="edge">
<title>Node0&#45;&gt;Node10</title>
<path fill="none" stroke="#191970" d="M24.995,-808.489C31.1842,-886.9584 55.7558,-1177.004 83,-1207 88.845,-1213.4354 96.4633,-1217.8681 104.653,-1220.8907"/>
<polygon fill="#191970" stroke="#191970" points="28.4833,-808.2008 24.2171,-798.5028 21.5044,-808.7445 28.4833,-808.2008"/>
</g>
<!-- Node11 -->
<g id="node12" class="node">
<title>Node11</title>
<g id="a_node12"><a xlink:href="classarm__compute_1_1graph_1_1frontend_1_1_depthwise_convolution_layer.xhtml" target="_top" xlink:title="Depthwise Convolution Layer. ">
<polygon fill="#ffffff" stroke="#000000" points="84.5,-1178.5 84.5,-1197.5 238.5,-1197.5 238.5,-1178.5 84.5,-1178.5"/>
<text text-anchor="middle" x="161.5" y="-1185.5" font-family="Helvetica,sans-Serif" font-size="10.00" fill="#000000">DepthwiseConvolutionLayer</text>
</a>
</g>
</g>
<!-- Node0&#45;&gt;Node11 -->
<g id="edge11" class="edge">
<title>Node0&#45;&gt;Node11</title>
<path fill="none" stroke="#191970" d="M23.7964,-808.6736C25.2612,-878.8595 33.8258,-1115.6105 83,-1169 86.5148,-1172.8161 90.6534,-1175.926 95.1621,-1178.4542"/>
<polygon fill="#191970" stroke="#191970" points="27.2938,-808.4953 23.6119,-798.5608 20.2949,-808.623 27.2938,-808.4953"/>
</g>
<!-- Node12 -->
<g id="node13" class="node">
<title>Node12</title>
<g id="a_node13"><a xlink:href="classarm__compute_1_1graph_1_1frontend_1_1_dequantization_layer.xhtml" target="_top" xlink:title="Dequantization Layer. ">
<polygon fill="#ffffff" stroke="#000000" points="102.5,-1140.5 102.5,-1159.5 220.5,-1159.5 220.5,-1140.5 102.5,-1140.5"/>
<text text-anchor="middle" x="161.5" y="-1147.5" font-family="Helvetica,sans-Serif" font-size="10.00" fill="#000000">DequantizationLayer</text>
</a>
</g>
</g>
<!-- Node0&#45;&gt;Node12 -->
<g id="edge12" class="edge">
<title>Node0&#45;&gt;Node12</title>
<path fill="none" stroke="#191970" d="M24.1781,-808.79C26.8352,-874.4629 38.689,-1083.7006 83,-1131 88.3684,-1136.7305 95.1445,-1140.8631 102.4556,-1143.8226"/>
<polygon fill="#191970" stroke="#191970" points="27.6675,-808.4408 23.7939,-798.5795 20.6725,-808.7041 27.6675,-808.4408"/>
</g>
<!-- Node13 -->
<g id="node14" class="node">
<title>Node13</title>
<g id="a_node14"><a xlink:href="classarm__compute_1_1graph_1_1frontend_1_1_detection_output_layer.xhtml" target="_top" xlink:title="DetectionOutput Layer. ">
<polygon fill="#ffffff" stroke="#000000" points="99.5,-1102.5 99.5,-1121.5 223.5,-1121.5 223.5,-1102.5 99.5,-1102.5"/>
<text text-anchor="middle" x="161.5" y="-1109.5" font-family="Helvetica,sans-Serif" font-size="10.00" fill="#000000">DetectionOutputLayer</text>
</a>
</g>
</g>
<!-- Node0&#45;&gt;Node13 -->
<g id="edge13" class="edge">
<title>Node0&#45;&gt;Node13</title>
<path fill="none" stroke="#191970" d="M24.6586,-808.931C28.6041,-869.8185 43.5323,-1051.7485 83,-1093 87.6529,-1097.8632 93.3207,-1101.5707 99.4593,-1104.3848"/>
<polygon fill="#191970" stroke="#191970" points="28.1389,-808.5021 24.029,-798.7369 21.1522,-808.9337 28.1389,-808.5021"/>
</g>
<!-- Node14 -->
<g id="node15" class="node">
<title>Node14</title>
<g id="a_node15"><a xlink:href="classarm__compute_1_1graph_1_1frontend_1_1_detection_post_process_layer.xhtml" target="_top" xlink:title="DetectionOutputPostProcess Layer. ">
<polygon fill="#ffffff" stroke="#000000" points="87,-1064.5 87,-1083.5 236,-1083.5 236,-1064.5 87,-1064.5"/>
<text text-anchor="middle" x="161.5" y="-1071.5" font-family="Helvetica,sans-Serif" font-size="10.00" fill="#000000">DetectionPostProcessLayer</text>
</a>
</g>
</g>
<!-- Node0&#45;&gt;Node14 -->
<g id="edge14" class="edge">
<title>Node0&#45;&gt;Node14</title>
<path fill="none" stroke="#191970" d="M25.2657,-808.9393C30.5936,-864.5696 48.3177,-1019.7085 83,-1055 86.7348,-1058.8004 91.0904,-1061.8911 95.8004,-1064.3993"/>
<polygon fill="#191970" stroke="#191970" points="28.721,-808.2931 24.3153,-798.6577 21.7507,-808.9375 28.721,-808.2931"/>
</g>
<!-- Node15 -->
<g id="node16" class="node">
<title>Node15</title>
<g id="a_node16"><a xlink:href="classarm__compute_1_1graph_1_1frontend_1_1_dummy_layer.xhtml" target="_top" xlink:title="Dummy Layer. ">
<polygon fill="#ffffff" stroke="#000000" points="120,-1026.5 120,-1045.5 203,-1045.5 203,-1026.5 120,-1026.5"/>
<text text-anchor="middle" x="161.5" y="-1033.5" font-family="Helvetica,sans-Serif" font-size="10.00" fill="#000000">DummyLayer</text>
</a>
</g>
</g>
<!-- Node0&#45;&gt;Node15 -->
<g id="edge15" class="edge">
<title>Node0&#45;&gt;Node15</title>
<path fill="none" stroke="#191970" d="M26.0327,-808.6827C32.8302,-858.4677 53.0151,-987.5442 83,-1017 92.8028,-1026.6299 106.6042,-1031.6712 119.9061,-1034.226"/>
<polygon fill="#191970" stroke="#191970" points="29.4766,-808.0284 24.6896,-798.5766 22.5376,-808.9506 29.4766,-808.0284"/>
</g>
<!-- Node16 -->
<g id="node17" class="node">
<title>Node16</title>
<g id="a_node17"><a xlink:href="classarm__compute_1_1graph_1_1frontend_1_1_eltwise_layer.xhtml" target="_top" xlink:title="EltwiseLayer">
<polygon fill="#ffffff" stroke="#000000" points="122,-988.5 122,-1007.5 201,-1007.5 201,-988.5 122,-988.5"/>
<text text-anchor="middle" x="161.5" y="-995.5" font-family="Helvetica,sans-Serif" font-size="10.00" fill="#000000">EltwiseLayer</text>
</a>
</g>
</g>
<!-- Node0&#45;&gt;Node16 -->
<g id="edge16" class="edge">
<title>Node0&#45;&gt;Node16</title>
<path fill="none" stroke="#191970" d="M27.1046,-808.5514C35.5237,-852.1406 57.6966,-955.3141 83,-979 93.4416,-988.7741 108.0246,-993.7757 121.7912,-996.2563"/>
<polygon fill="#191970" stroke="#191970" points="30.5227,-807.79 25.2256,-798.6144 23.6446,-809.0906 30.5227,-807.79"/>
</g>
<!-- Node17 -->
<g id="node18" class="node">
<title>Node17</title>
<g id="a_node18"><a xlink:href="classarm__compute_1_1graph_1_1frontend_1_1_flatten_layer.xhtml" target="_top" xlink:title="Flatten Layer. ">
<polygon fill="#ffffff" stroke="#000000" points="123,-950.5 123,-969.5 200,-969.5 200,-950.5 123,-950.5"/>
<text text-anchor="middle" x="161.5" y="-957.5" font-family="Helvetica,sans-Serif" font-size="10.00" fill="#000000">FlattenLayer</text>
</a>
</g>
</g>
<!-- Node0&#45;&gt;Node17 -->
<g id="edge17" class="edge">
<title>Node0&#45;&gt;Node17</title>
<path fill="none" stroke="#191970" d="M25.439,-808.6025C29.7357,-841.1407 43.084,-906.1616 83,-941 93.9867,-950.5891 109.0023,-955.5228 122.9601,-958.0011"/>
<polygon fill="#191970" stroke="#191970" points="28.9017,-808.0786 24.268,-798.5508 21.9488,-808.8886 28.9017,-808.0786"/>
</g>
<!-- Node18 -->
<g id="node19" class="node">
<title>Node18</title>
<g id="a_node19"><a xlink:href="classarm__compute_1_1graph_1_1frontend_1_1_fully_connected_layer.xhtml" target="_top" xlink:title="Fully Connected Layer. ">
<polygon fill="#ffffff" stroke="#000000" points="102.5,-912.5 102.5,-931.5 220.5,-931.5 220.5,-912.5 102.5,-912.5"/>
<text text-anchor="middle" x="161.5" y="-919.5" font-family="Helvetica,sans-Serif" font-size="10.00" fill="#000000">FullyConnectedLayer</text>
</a>
</g>
</g>
<!-- Node0&#45;&gt;Node18 -->
<g id="edge18" class="edge">
<title>Node0&#45;&gt;Node18</title>
<path fill="none" stroke="#191970" d="M28.2472,-808.4044C35.5545,-834.054 52.0686,-878.8143 83,-903 88.744,-907.4913 95.3934,-910.9419 102.3433,-913.5894"/>
<polygon fill="#191970" stroke="#191970" points="31.6181,-807.461 25.664,-798.6974 24.8535,-809.2612 31.6181,-807.461"/>
</g>
<!-- Node19 -->
<g id="node20" class="node">
<title>Node19</title>
<g id="a_node20"><a xlink:href="classarm__compute_1_1graph_1_1frontend_1_1_generate_proposals_layer.xhtml" target="_top" xlink:title="Generate Proposals Layer. ">
<polygon fill="#ffffff" stroke="#000000" points="93.5,-874.5 93.5,-893.5 229.5,-893.5 229.5,-874.5 93.5,-874.5"/>
<text text-anchor="middle" x="161.5" y="-881.5" font-family="Helvetica,sans-Serif" font-size="10.00" fill="#000000">GenerateProposalsLayer</text>
</a>
</g>
</g>
<!-- Node0&#45;&gt;Node19 -->
<g id="edge19" class="edge">
<title>Node0&#45;&gt;Node19</title>
<path fill="none" stroke="#191970" d="M33.358,-807.8651C43.4778,-825.3498 60.8575,-850.7441 83,-865 89.0128,-868.8712 95.7454,-871.954 102.6723,-874.409"/>
<polygon fill="#191970" stroke="#191970" points="36.1554,-805.6905 28.2573,-798.6284 30.0276,-809.0743 36.1554,-805.6905"/>
</g>
<!-- Node20 -->
<g id="node21" class="node">
<title>Node20</title>
<g id="a_node21"><a xlink:href="classarm__compute_1_1graph_1_1frontend_1_1_input_layer.xhtml" target="_top" xlink:title="Input Layer. ">
<polygon fill="#ffffff" stroke="#000000" points="127.5,-836.5 127.5,-855.5 195.5,-855.5 195.5,-836.5 127.5,-836.5"/>
<text text-anchor="middle" x="161.5" y="-843.5" font-family="Helvetica,sans-Serif" font-size="10.00" fill="#000000">InputLayer</text>
</a>
</g>
</g>
<!-- Node0&#45;&gt;Node20 -->
<g id="edge20" class="edge">
<title>Node0&#45;&gt;Node20</title>
<path fill="none" stroke="#191970" d="M44.1653,-804.6076C55.1986,-812.3024 69.2987,-821.1601 83,-827 97.0601,-832.9929 113.3783,-837.3269 127.4829,-840.3283"/>
<polygon fill="#191970" stroke="#191970" points="46.2029,-801.7619 36.0405,-798.7657 42.1164,-807.4453 46.2029,-801.7619"/>
</g>
<!-- Node21 -->
<g id="node22" class="node">
<title>Node21</title>
<g id="a_node22"><a xlink:href="classarm__compute_1_1graph_1_1frontend_1_1_l2_normalize_layer.xhtml" target="_top" xlink:title="L2 Normalize Layer. ">
<polygon fill="#ffffff" stroke="#000000" points="109,-798.5 109,-817.5 214,-817.5 214,-798.5 109,-798.5"/>
<text text-anchor="middle" x="161.5" y="-805.5" font-family="Helvetica,sans-Serif" font-size="10.00" fill="#000000">L2NormalizeLayer</text>
</a>
</g>
</g>
<!-- Node0&#45;&gt;Node21 -->
<g id="edge21" class="edge">
<title>Node0&#45;&gt;Node21</title>
<path fill="none" stroke="#191970" d="M57.3906,-793.6661C72.9053,-795.8022 91.6485,-798.3828 108.9314,-800.7623"/>
<polygon fill="#191970" stroke="#191970" points="57.607,-790.163 47.223,-792.2662 56.6522,-797.0975 57.607,-790.163"/>
</g>
<!-- Node22 -->
<g id="node23" class="node">
<title>Node22</title>
<g id="a_node23"><a xlink:href="classarm__compute_1_1graph_1_1frontend_1_1_normalization_layer.xhtml" target="_top" xlink:title="Normalization Layer. ">
<polygon fill="#ffffff" stroke="#000000" points="105,-760.5 105,-779.5 218,-779.5 218,-760.5 105,-760.5"/>
<text text-anchor="middle" x="161.5" y="-767.5" font-family="Helvetica,sans-Serif" font-size="10.00" fill="#000000">NormalizationLayer</text>
</a>
</g>
</g>
<!-- Node0&#45;&gt;Node22 -->
<g id="edge22" class="edge">
<title>Node0&#45;&gt;Node22</title>
<path fill="none" stroke="#191970" d="M57.5453,-784.3126C71.813,-782.3482 88.7904,-780.0107 104.8459,-777.8002"/>
<polygon fill="#191970" stroke="#191970" points="56.6522,-780.9025 47.223,-785.7338 57.607,-787.837 56.6522,-780.9025"/>
</g>
<!-- Node23 -->
<g id="node24" class="node">
<title>Node23</title>
<g id="a_node24"><a xlink:href="classarm__compute_1_1graph_1_1frontend_1_1_normalize_planar_y_u_v_layer.xhtml" target="_top" xlink:title="Normalize planar YUV Layer. ">
<polygon fill="#ffffff" stroke="#000000" points="89,-722.5 89,-741.5 234,-741.5 234,-722.5 89,-722.5"/>
<text text-anchor="middle" x="161.5" y="-729.5" font-family="Helvetica,sans-Serif" font-size="10.00" fill="#000000">NormalizePlanarYUVLayer</text>
</a>
</g>
</g>
<!-- Node0&#45;&gt;Node23 -->
<g id="edge23" class="edge">
<title>Node0&#45;&gt;Node23</title>
<path fill="none" stroke="#191970" d="M44.1653,-773.3924C55.1986,-765.6976 69.2987,-756.8399 83,-751 91.9004,-747.2064 101.7057,-744.0774 111.2816,-741.5305"/>
<polygon fill="#191970" stroke="#191970" points="42.1164,-770.5547 36.0405,-779.2343 46.2029,-776.2381 42.1164,-770.5547"/>
</g>
<!-- Node24 -->
<g id="node25" class="node">
<title>Node24</title>
<g id="a_node25"><a xlink:href="classarm__compute_1_1graph_1_1frontend_1_1_output_layer.xhtml" target="_top" xlink:title="Output Layer. ">
<polygon fill="#ffffff" stroke="#000000" points="123,-684.5 123,-703.5 200,-703.5 200,-684.5 123,-684.5"/>
<text text-anchor="middle" x="161.5" y="-691.5" font-family="Helvetica,sans-Serif" font-size="10.00" fill="#000000">OutputLayer</text>
</a>
</g>
</g>
<!-- Node0&#45;&gt;Node24 -->
<g id="edge24" class="edge">
<title>Node0&#45;&gt;Node24</title>
<path fill="none" stroke="#191970" d="M33.358,-770.1349C43.4778,-752.6502 60.8575,-727.2559 83,-713 94.7898,-705.4094 109.347,-700.8498 122.7105,-698.1115"/>
<polygon fill="#191970" stroke="#191970" points="30.0276,-768.9257 28.2573,-779.3716 36.1554,-772.3095 30.0276,-768.9257"/>
</g>
<!-- Node25 -->
<g id="node26" class="node">
<title>Node25</title>
<g id="a_node26"><a xlink:href="classarm__compute_1_1graph_1_1frontend_1_1_pad_layer.xhtml" target="_top" xlink:title="Pad Layer. ">
<polygon fill="#ffffff" stroke="#000000" points="131,-646.5 131,-665.5 192,-665.5 192,-646.5 131,-646.5"/>
<text text-anchor="middle" x="161.5" y="-653.5" font-family="Helvetica,sans-Serif" font-size="10.00" fill="#000000">PadLayer</text>
</a>
</g>
</g>
<!-- Node0&#45;&gt;Node25 -->
<g id="edge25" class="edge">
<title>Node0&#45;&gt;Node25</title>
<path fill="none" stroke="#191970" d="M28.2472,-769.5956C35.5545,-743.946 52.0686,-699.1857 83,-675 96.5867,-664.3764 115.2392,-659.5752 130.953,-657.454"/>
<polygon fill="#191970" stroke="#191970" points="24.8535,-768.7388 25.664,-779.3026 31.6181,-770.539 24.8535,-768.7388"/>
</g>
<!-- Node26 -->
<g id="node27" class="node">
<title>Node26</title>
<g id="a_node27"><a xlink:href="classarm__compute_1_1graph_1_1frontend_1_1_permute_layer.xhtml" target="_top" xlink:title="Permute Layer. ">
<polygon fill="#ffffff" stroke="#000000" points="119,-608.5 119,-627.5 204,-627.5 204,-608.5 119,-608.5"/>
<text text-anchor="middle" x="161.5" y="-615.5" font-family="Helvetica,sans-Serif" font-size="10.00" fill="#000000">PermuteLayer</text>
</a>
</g>
</g>
<!-- Node0&#45;&gt;Node26 -->
<g id="edge26" class="edge">
<title>Node0&#45;&gt;Node26</title>
<path fill="none" stroke="#191970" d="M25.439,-769.3975C29.7357,-736.8593 43.084,-671.8384 83,-637 92.9303,-628.3329 106.152,-623.469 118.909,-620.7839"/>
<polygon fill="#191970" stroke="#191970" points="21.9488,-769.1114 24.268,-779.4492 28.9017,-769.9214 21.9488,-769.1114"/>
</g>
<!-- Node27 -->
<g id="node28" class="node">
<title>Node27</title>
<g id="a_node28"><a xlink:href="classarm__compute_1_1graph_1_1frontend_1_1_pooling_layer.xhtml" target="_top" xlink:title="Pooling Layer. ">
<polygon fill="#ffffff" stroke="#000000" points="121.5,-570.5 121.5,-589.5 201.5,-589.5 201.5,-570.5 121.5,-570.5"/>
<text text-anchor="middle" x="161.5" y="-577.5" font-family="Helvetica,sans-Serif" font-size="10.00" fill="#000000">PoolingLayer</text>
</a>
</g>
</g>
<!-- Node0&#45;&gt;Node27 -->
<g id="edge27" class="edge">
<title>Node0&#45;&gt;Node27</title>
<path fill="none" stroke="#191970" d="M27.1046,-769.4486C35.5237,-725.8594 57.6966,-622.6859 83,-599 93.3392,-589.3217 107.739,-584.3228 121.3861,-581.8173"/>
<polygon fill="#191970" stroke="#191970" points="23.6446,-768.9094 25.2256,-779.3856 30.5227,-770.21 23.6446,-768.9094"/>
</g>
<!-- Node28 -->
<g id="node29" class="node">
<title>Node28</title>
<g id="a_node29"><a xlink:href="classarm__compute_1_1graph_1_1frontend_1_1_p_relu_layer.xhtml" target="_top" xlink:title="PRelu Layer. ">
<polygon fill="#ffffff" stroke="#000000" points="126,-532.5 126,-551.5 197,-551.5 197,-532.5 126,-532.5"/>
<text text-anchor="middle" x="161.5" y="-539.5" font-family="Helvetica,sans-Serif" font-size="10.00" fill="#000000">PReluLayer</text>
</a>
</g>
</g>
<!-- Node0&#45;&gt;Node28 -->
<g id="edge28" class="edge">
<title>Node0&#45;&gt;Node28</title>
<path fill="none" stroke="#191970" d="M26.0327,-769.3173C32.8302,-719.5323 53.0151,-590.4558 83,-561 94.3033,-549.8962 110.9228,-544.893 125.9629,-542.7682"/>
<polygon fill="#191970" stroke="#191970" points="22.5376,-769.0494 24.6896,-779.4234 29.4766,-769.9716 22.5376,-769.0494"/>
</g>
<!-- Node29 -->
<g id="node30" class="node">
<title>Node29</title>
<g id="a_node30"><a xlink:href="classarm__compute_1_1graph_1_1frontend_1_1_print_layer.xhtml" target="_top" xlink:title="Print Layer. ">
<polygon fill="#ffffff" stroke="#000000" points="128.5,-494.5 128.5,-513.5 194.5,-513.5 194.5,-494.5 128.5,-494.5"/>
<text text-anchor="middle" x="161.5" y="-501.5" font-family="Helvetica,sans-Serif" font-size="10.00" fill="#000000">PrintLayer</text>
</a>
</g>
</g>
<!-- Node0&#45;&gt;Node29 -->
<g id="edge29" class="edge">
<title>Node0&#45;&gt;Node29</title>
<path fill="none" stroke="#191970" d="M25.2657,-769.0607C30.5936,-713.4304 48.3177,-558.2915 83,-523 94.6957,-511.0988 112.4804,-506.1565 128.1659,-504.2751"/>
<polygon fill="#191970" stroke="#191970" points="21.7507,-769.0625 24.3153,-779.3423 28.721,-769.7069 21.7507,-769.0625"/>
</g>
<!-- Node30 -->
<g id="node31" class="node">
<title>Node30</title>
<g id="a_node31"><a xlink:href="classarm__compute_1_1graph_1_1frontend_1_1_prior_box_layer.xhtml" target="_top" xlink:title="PriorBox Layer. ">
<polygon fill="#ffffff" stroke="#000000" points="119,-456.5 119,-475.5 204,-475.5 204,-456.5 119,-456.5"/>
<text text-anchor="middle" x="161.5" y="-463.5" font-family="Helvetica,sans-Serif" font-size="10.00" fill="#000000">PriorBoxLayer</text>
</a>
</g>
</g>
<!-- Node0&#45;&gt;Node30 -->
<g id="edge30" class="edge">
<title>Node0&#45;&gt;Node30</title>
<path fill="none" stroke="#191970" d="M24.6586,-769.069C28.6041,-708.1815 43.5323,-526.2515 83,-485 92.3058,-475.2736 105.6713,-470.1701 118.7431,-467.5901"/>
<polygon fill="#191970" stroke="#191970" points="21.1522,-769.0663 24.029,-779.2631 28.1389,-769.4979 21.1522,-769.0663"/>
</g>
<!-- Node31 -->
<g id="node32" class="node">
<title>Node31</title>
<g id="a_node32"><a xlink:href="classarm__compute_1_1graph_1_1frontend_1_1_quantization_layer.xhtml" target="_top" xlink:title="Quantization Layer. ">
<polygon fill="#ffffff" stroke="#000000" points="108.5,-418.5 108.5,-437.5 214.5,-437.5 214.5,-418.5 108.5,-418.5"/>
<text text-anchor="middle" x="161.5" y="-425.5" font-family="Helvetica,sans-Serif" font-size="10.00" fill="#000000">QuantizationLayer</text>
</a>
</g>
</g>
<!-- Node0&#45;&gt;Node31 -->
<g id="edge31" class="edge">
<title>Node0&#45;&gt;Node31</title>
<path fill="none" stroke="#191970" d="M24.1781,-769.21C26.8352,-703.5371 38.689,-494.2994 83,-447 89.8064,-439.7345 98.8756,-435.0377 108.4288,-432.0435"/>
<polygon fill="#191970" stroke="#191970" points="20.6725,-769.2959 23.7939,-779.4205 27.6675,-769.5592 20.6725,-769.2959"/>
</g>
<!-- Node32 -->
<g id="node33" class="node">
<title>Node32</title>
<g id="a_node33"><a xlink:href="classarm__compute_1_1graph_1_1frontend_1_1_reduction_layer.xhtml" target="_top" xlink:title="Reduction Layer. ">
<polygon fill="#ffffff" stroke="#000000" points="115.5,-380.5 115.5,-399.5 207.5,-399.5 207.5,-380.5 115.5,-380.5"/>
<text text-anchor="middle" x="161.5" y="-387.5" font-family="Helvetica,sans-Serif" font-size="10.00" fill="#000000">ReductionLayer</text>
</a>
</g>
</g>
<!-- Node0&#45;&gt;Node32 -->
<g id="edge32" class="edge">
<title>Node0&#45;&gt;Node32</title>
<path fill="none" stroke="#191970" d="M23.7964,-769.3264C25.2612,-699.1405 33.8258,-462.3895 83,-409 91.3596,-399.9238 103.2478,-394.8424 115.251,-392.0818"/>
<polygon fill="#191970" stroke="#191970" points="20.2949,-769.377 23.6119,-779.4392 27.2938,-769.5047 20.2949,-769.377"/>
</g>
<!-- Node33 -->
<g id="node34" class="node">
<title>Node33</title>
<g id="a_node34"><a xlink:href="classarm__compute_1_1graph_1_1frontend_1_1_reorg_layer.xhtml" target="_top" xlink:title="Reorg Layer. ">
<polygon fill="#ffffff" stroke="#000000" points="126,-342.5 126,-361.5 197,-361.5 197,-342.5 126,-342.5"/>
<text text-anchor="middle" x="161.5" y="-349.5" font-family="Helvetica,sans-Serif" font-size="10.00" fill="#000000">ReorgLayer</text>
</a>
</g>
</g>
<!-- Node0&#45;&gt;Node33 -->
<g id="edge33" class="edge">
<title>Node0&#45;&gt;Node33</title>
<path fill="none" stroke="#191970" d="M24.995,-769.511C31.1842,-691.0416 55.7558,-400.996 83,-371 93.7473,-359.1671 110.4896,-354.1051 125.7564,-352.1302"/>
<polygon fill="#191970" stroke="#191970" points="21.5044,-769.2555 24.2171,-779.4972 28.4833,-769.7992 21.5044,-769.2555"/>
</g>
<!-- Node34 -->
<g id="node35" class="node">
<title>Node34</title>
<g id="a_node35"><a xlink:href="classarm__compute_1_1graph_1_1frontend_1_1_reshape_layer.xhtml" target="_top" xlink:title="Reshape Layer. ">
<polygon fill="#ffffff" stroke="#000000" points="119,-304.5 119,-323.5 204,-323.5 204,-304.5 119,-304.5"/>
<text text-anchor="middle" x="161.5" y="-311.5" font-family="Helvetica,sans-Serif" font-size="10.00" fill="#000000">ReshapeLayer</text>
</a>
</g>
</g>
<!-- Node0&#45;&gt;Node34 -->
<g id="edge34" class="edge">
<title>Node0&#45;&gt;Node34</title>
<path fill="none" stroke="#191970" d="M24.7635,-769.3528C30.2823,-686.2095 53.3292,-366.0524 83,-333 92.0859,-322.8786 105.5566,-317.6995 118.7848,-315.1705"/>
<polygon fill="#191970" stroke="#191970" points="21.2628,-769.2498 24.1022,-779.4571 28.2479,-769.707 21.2628,-769.2498"/>
</g>
<!-- Node35 -->
<g id="node36" class="node">
<title>Node35</title>
<g id="a_node36"><a xlink:href="classarm__compute_1_1graph_1_1frontend_1_1_resize_layer.xhtml" target="_top" xlink:title="Resize Layer. ">
<polygon fill="#ffffff" stroke="#000000" points="124,-266.5 124,-285.5 199,-285.5 199,-266.5 124,-266.5"/>
<text text-anchor="middle" x="161.5" y="-273.5" font-family="Helvetica,sans-Serif" font-size="10.00" fill="#000000">ResizeLayer</text>
</a>
</g>
</g>
<!-- Node0&#45;&gt;Node35 -->
<g id="edge35" class="edge">
<title>Node0&#45;&gt;Node35</title>
<path fill="none" stroke="#191970" d="M24.5702,-769.1104C29.4696,-681.302 50.9069,-331.1081 83,-295 93.1536,-283.5762 108.892,-278.4359 123.6187,-276.2994"/>
<polygon fill="#191970" stroke="#191970" points="21.0755,-768.9192 24.0217,-779.0961 28.065,-769.3032 21.0755,-768.9192"/>
</g>
<!-- Node36 -->
<g id="node37" class="node">
<title>Node36</title>
<g id="a_node37"><a xlink:href="classarm__compute_1_1graph_1_1frontend_1_1_r_o_i_align_layer.xhtml" target="_top" xlink:title="ROIAlign Layer. ">
<polygon fill="#ffffff" stroke="#000000" points="118.5,-228.5 118.5,-247.5 204.5,-247.5 204.5,-228.5 118.5,-228.5"/>
<text text-anchor="middle" x="161.5" y="-235.5" font-family="Helvetica,sans-Serif" font-size="10.00" fill="#000000">ROIAlignLayer</text>
</a>
</g>
</g>
<!-- Node0&#45;&gt;Node36 -->
<g id="edge36" class="edge">
<title>Node0&#45;&gt;Node36</title>
<path fill="none" stroke="#191970" d="M24.3925,-769.0666C28.6877,-677.0558 48.4551,-296.2004 83,-257 91.8998,-246.9008 105.1638,-241.7041 118.2674,-239.1532"/>
<polygon fill="#191970" stroke="#191970" points="20.8879,-769.0883 23.9263,-779.2381 27.8805,-769.4088 20.8879,-769.0883"/>
</g>
<!-- Node37 -->
<g id="node38" class="node">
<title>Node37</title>
<g id="a_node38"><a xlink:href="classarm__compute_1_1graph_1_1frontend_1_1_scale_layer.xhtml" target="_top" xlink:title="Scale Layer. ">
<polygon fill="#ffffff" stroke="#000000" points="126.5,-190.5 126.5,-209.5 196.5,-209.5 196.5,-190.5 126.5,-190.5"/>
<text text-anchor="middle" x="161.5" y="-197.5" font-family="Helvetica,sans-Serif" font-size="10.00" fill="#000000">ScaleLayer</text>
</a>
</g>
</g>
<!-- Node0&#45;&gt;Node37 -->
<g id="edge37" class="edge">
<title>Node0&#45;&gt;Node37</title>
<path fill="none" stroke="#191970" d="M24.2315,-769.1846C27.9424,-673.409 45.9773,-261.3256 83,-219 93.7089,-206.7572 110.8307,-201.7083 126.3549,-199.8476"/>
<polygon fill="#191970" stroke="#191970" points="20.7231,-769.3427 23.8416,-779.4682 27.7181,-769.608 20.7231,-769.3427"/>
</g>
<!-- Node38 -->
<g id="node39" class="node">
<title>Node38</title>
<g id="a_node39"><a xlink:href="classarm__compute_1_1graph_1_1frontend_1_1_slice_layer.xhtml" target="_top" xlink:title="Slice Layer. ">
<polygon fill="#ffffff" stroke="#000000" points="128,-152.5 128,-171.5 195,-171.5 195,-152.5 128,-152.5"/>
<text text-anchor="middle" x="161.5" y="-159.5" font-family="Helvetica,sans-Serif" font-size="10.00" fill="#000000">SliceLayer</text>
</a>
</g>
</g>
<!-- Node0&#45;&gt;Node38 -->
<g id="edge38" class="edge">
<title>Node0&#45;&gt;Node38</title>
<path fill="none" stroke="#191970" d="M24.0972,-769.1254C27.2704,-669.3909 43.5171,-226.4333 83,-181 94.0372,-168.2993 111.9756,-163.3308 127.9201,-161.6361"/>
<polygon fill="#191970" stroke="#191970" points="20.5931,-769.2081 23.7812,-779.3119 27.5897,-769.4253 20.5931,-769.2081"/>
</g>
<!-- Node39 -->
<g id="node40" class="node">
<title>Node39</title>
<g id="a_node40"><a xlink:href="classarm__compute_1_1graph_1_1frontend_1_1_softmax_layer.xhtml" target="_top" xlink:title="Softmax Layer. ">
<polygon fill="#ffffff" stroke="#000000" points="119,-114.5 119,-133.5 204,-133.5 204,-114.5 119,-114.5"/>
<text text-anchor="middle" x="161.5" y="-121.5" font-family="Helvetica,sans-Serif" font-size="10.00" fill="#000000">SoftmaxLayer</text>
</a>
</g>
</g>
<!-- Node0&#45;&gt;Node39 -->
<g id="edge39" class="edge">
<title>Node0&#45;&gt;Node39</title>
<path fill="none" stroke="#191970" d="M23.9749,-769.1881C26.6282,-665.8527 41.0364,-191.567 83,-143 91.9841,-132.6021 105.5936,-127.3808 118.9705,-124.8964"/>
<polygon fill="#191970" stroke="#191970" points="20.4757,-769.1194 23.7253,-779.2035 27.4735,-769.2939 20.4757,-769.1194"/>
</g>
<!-- Node40 -->
<g id="node41" class="node">
<title>Node40</title>
<g id="a_node41"><a xlink:href="classarm__compute_1_1graph_1_1frontend_1_1_stack_layer.xhtml" target="_top" xlink:title="Stack Layer. ">
<polygon fill="#ffffff" stroke="#000000" points="126,-76.5 126,-95.5 197,-95.5 197,-76.5 126,-76.5"/>
<text text-anchor="middle" x="161.5" y="-83.5" font-family="Helvetica,sans-Serif" font-size="10.00" fill="#000000">StackLayer</text>
</a>
</g>
</g>
<!-- Node0&#45;&gt;Node40 -->
<g id="edge40" class="edge">
<title>Node0&#45;&gt;Node40</title>
<path fill="none" stroke="#191970" d="M23.8709,-769.0414C26.0419,-661.7754 38.5802,-156.6743 83,-105 93.5116,-92.7717 110.4203,-87.6956 125.8574,-85.8136"/>
<polygon fill="#191970" stroke="#191970" points="20.3697,-769.0746 23.6738,-779.141 27.3683,-769.2113 20.3697,-769.0746"/>
</g>
<!-- Node41 -->
<g id="node42" class="node">
<title>Node41</title>
<g id="a_node42"><a xlink:href="classarm__compute_1_1graph_1_1frontend_1_1_strided_slice_layer.xhtml" target="_top" xlink:title="StridedSlice Layer. ">
<polygon fill="#ffffff" stroke="#000000" points="111,-38.5 111,-57.5 212,-57.5 212,-38.5 111,-38.5"/>
<text text-anchor="middle" x="161.5" y="-45.5" font-family="Helvetica,sans-Serif" font-size="10.00" fill="#000000">StridedSliceLayer</text>
</a>
</g>
</g>
<!-- Node0&#45;&gt;Node41 -->
<g id="edge41" class="edge">
<title>Node0&#45;&gt;Node41</title>
<path fill="none" stroke="#191970" d="M23.7698,-769.333C25.4564,-659.1906 36.0591,-121.8588 83,-67 90.1107,-58.6898 100.1759,-53.6798 110.7349,-50.7304"/>
<polygon fill="#191970" stroke="#191970" points="20.2696,-769.3312 23.623,-779.3813 27.2688,-769.4335 20.2696,-769.3312"/>
</g>
<!-- Node42 -->
<g id="node43" class="node">
<title>Node42</title>
<g id="a_node43"><a xlink:href="classarm__compute_1_1graph_1_1frontend_1_1_y_o_l_o_layer.xhtml" target="_top" xlink:title="YOLO Layer. ">
<polygon fill="#ffffff" stroke="#000000" points="127,-.5 127,-19.5 196,-19.5 196,-.5 127,-.5"/>
<text text-anchor="middle" x="161.5" y="-7.5" font-family="Helvetica,sans-Serif" font-size="10.00" fill="#000000">YOLOLayer</text>
</a>
</g>
</g>
<!-- Node0&#45;&gt;Node42 -->
<g id="edge42" class="edge">
<title>Node0&#45;&gt;Node42</title>
<path fill="none" stroke="#191970" d="M23.6837,-769.3712C24.9209,-655.9051 33.5695,-87.0084 83,-29 93.6406,-16.5129 110.9519,-11.4712 126.6139,-9.6775"/>
<polygon fill="#191970" stroke="#191970" points="20.1835,-769.3757 23.5811,-779.411 27.1832,-769.4473 20.1835,-769.3757"/>
</g>
</g>
</svg>
