<?xml version="1.0" encoding="UTF-8" standalone="no"?>
<!DOCTYPE svg PUBLIC "-//W3C//DTD SVG 1.1//EN"
 "http://www.w3.org/Graphics/SVG/1.1/DTD/svg11.dtd">
<!-- Generated by graphviz version 2.40.1 (20161225.0304)
 -->
<!-- Title: UnaryEltwiseLayerDescriptor Pages: 1 -->
<svg width="251pt" height="95pt"
 viewBox="0.00 0.00 251.00 95.00" xmlns="http://www.w3.org/2000/svg" xmlns:xlink="http://www.w3.org/1999/xlink">
<g id="graph0" class="graph" transform="scale(1 1) rotate(0) translate(4 91)">
<title>UnaryEltwiseLayerDescriptor</title>
<polygon fill="#ffffff" stroke="transparent" points="-4,4 -4,-91 247,-91 247,4 -4,4"/>
<!-- Node0 -->
<g id="node1" class="node">
<title>Node0</title>
<polygon fill="#bfbfbf" stroke="#000000" points="31,-.5 31,-19.5 189,-19.5 189,-.5 31,-.5"/>
<text text-anchor="middle" x="110" y="-7.5" font-family="Helvetica,sans-Serif" font-size="10.00" fill="#000000">UnaryEltwiseLayerDescriptor</text>
</g>
<!-- Node1 -->
<g id="node2" class="node">
<title>Node1</title>
<g id="a_node2"><a xlink:href="classarm__compute_1_1_quantization_info.xhtml" target="_top" xlink:title="Quantization information. ">
<polygon fill="#ffffff" stroke="#000000" points="0,-67.5 0,-86.5 98,-86.5 98,-67.5 0,-67.5"/>
<text text-anchor="middle" x="49" y="-74.5" font-family="Helvetica,sans-Serif" font-size="10.00" fill="#000000">QuantizationInfo</text>
</a>
</g>
</g>
<!-- Node1&#45;&gt;Node0 -->
<g id="edge1" class="edge">
<title>Node1&#45;&gt;Node0</title>
<path fill="none" stroke="#9a32cd" stroke-dasharray="5,2" d="M58.9502,-58.7117C63.1276,-51.8451 68.3336,-44.207 74,-38 80.2992,-31.0998 88.44,-24.6117 95.3864,-19.6219"/>
<polygon fill="#9a32cd" stroke="#9a32cd" points="55.9092,-56.979 53.9448,-67.3902 61.9729,-60.4764 55.9092,-56.979"/>
<text text-anchor="middle" x="112" y="-41" font-family="Helvetica,sans-Serif" font-size="10.00" fill="#000000"> out_quant_info</text>
</g>
<!-- Node2 -->
<g id="node3" class="node">
<title>Node2</title>
<g id="a_node3"><a xlink:href="classarm__compute_1_1_activation_layer_info.xhtml" target="_top" xlink:title="Activation Layer Information class. ">
<polygon fill="#ffffff" stroke="#000000" points="116,-67.5 116,-86.5 228,-86.5 228,-67.5 116,-67.5"/>
<text text-anchor="middle" x="172" y="-74.5" font-family="Helvetica,sans-Serif" font-size="10.00" fill="#000000">ActivationLayerInfo</text>
</a>
</g>
</g>
<!-- Node2&#45;&gt;Node0 -->
<g id="edge2" class="edge">
<title>Node2&#45;&gt;Node0</title>
<path fill="none" stroke="#9a32cd" stroke-dasharray="5,2" d="M163.492,-58.0404C159.9141,-51.2747 155.3346,-43.8796 150,-38 143.5066,-30.8432 134.8643,-24.508 127.2745,-19.6818"/>
<polygon fill="#9a32cd" stroke="#9a32cd" points="160.4569,-59.8015 167.9887,-67.2529 166.7475,-56.731 160.4569,-59.8015"/>
<text text-anchor="middle" x="200.5" y="-41" font-family="Helvetica,sans-Serif" font-size="10.00" fill="#000000"> fused_activation</text>
</g>
</g>
</svg>
