<?xml version="1.0" encoding="UTF-8" standalone="no"?>
<!DOCTYPE svg PUBLIC "-//W3C//DTD SVG 1.1//EN"
 "http://www.w3.org/Graphics/SVG/1.1/DTD/svg11.dtd">
<!-- Generated by graphviz version 2.40.1 (20161225.0304)
 -->
<!-- Title: ClPool2dKernel Pages: 1 -->
<svg width="308pt" height="162pt"
 viewBox="0.00 0.00 308.00 162.00" xmlns="http://www.w3.org/2000/svg" xmlns:xlink="http://www.w3.org/1999/xlink">
<g id="graph0" class="graph" transform="scale(1 1) rotate(0) translate(4 158)">
<title>ClPool2dKernel</title>
<polygon fill="#ffffff" stroke="transparent" points="-4,4 -4,-158 304,-158 304,4 -4,4"/>
<!-- Node0 -->
<g id="node1" class="node">
<title>Node0</title>
<polygon fill="#bfbfbf" stroke="#000000" points="68,-.5 68,-19.5 158,-19.5 158,-.5 68,-.5"/>
<text text-anchor="middle" x="113" y="-7.5" font-family="Helvetica,sans-Serif" font-size="10.00" fill="#000000">ClPool2dKernel</text>
</g>
<!-- Node1 -->
<g id="node2" class="node">
<title>Node1</title>
<g id="a_node2"><a xlink:href="classarm__compute_1_1_i_c_l_kernel.xhtml" target="_top" xlink:title="Common interface for all the OpenCL kernels. ">
<polygon fill="#ffffff" stroke="#000000" points="0,-67.5 0,-86.5 60,-86.5 60,-67.5 0,-67.5"/>
<text text-anchor="middle" x="30" y="-74.5" font-family="Helvetica,sans-Serif" font-size="10.00" fill="#000000">IClKernel</text>
</a>
</g>
</g>
<!-- Node1&#45;&gt;Node0 -->
<g id="edge1" class="edge">
<title>Node1&#45;&gt;Node0</title>
<path fill="none" stroke="#191970" d="M50.0697,-60.7992C66.033,-47.9131 87.8266,-30.3207 101.1302,-19.5817"/>
<polygon fill="#191970" stroke="#191970" points="47.4746,-58.3959 41.8919,-67.4005 51.8715,-63.8427 47.4746,-58.3959"/>
</g>
<!-- Node2 -->
<g id="node3" class="node">
<title>Node2</title>
<g id="a_node3"><a xlink:href="classarm__compute_1_1_i_kernel.xhtml" target="_top" xlink:title="Common information for all the kernels. ">
<polygon fill="#ffffff" stroke="#000000" points="5,-134.5 5,-153.5 55,-153.5 55,-134.5 5,-134.5"/>
<text text-anchor="middle" x="30" y="-141.5" font-family="Helvetica,sans-Serif" font-size="10.00" fill="#000000">IKernel</text>
</a>
</g>
</g>
<!-- Node2&#45;&gt;Node1 -->
<g id="edge2" class="edge">
<title>Node2&#45;&gt;Node1</title>
<path fill="none" stroke="#191970" d="M30,-124.1079C30,-111.714 30,-96.3263 30,-86.5817"/>
<polygon fill="#191970" stroke="#191970" points="26.5001,-124.4005 30,-134.4005 33.5001,-124.4006 26.5001,-124.4005"/>
</g>
<!-- Node3 -->
<g id="node4" class="node">
<title>Node3</title>
<g id="a_node4"><a xlink:href="structarm__compute_1_1_border_size.xhtml" target="_top" xlink:title="Container for 2D border size. ">
<polygon fill="#ffffff" stroke="#000000" points="78.5,-67.5 78.5,-86.5 147.5,-86.5 147.5,-67.5 78.5,-67.5"/>
<text text-anchor="middle" x="113" y="-74.5" font-family="Helvetica,sans-Serif" font-size="10.00" fill="#000000">BorderSize</text>
</a>
</g>
</g>
<!-- Node3&#45;&gt;Node0 -->
<g id="edge3" class="edge">
<title>Node3&#45;&gt;Node0</title>
<path fill="none" stroke="#9a32cd" stroke-dasharray="5,2" d="M113,-57.1079C113,-44.714 113,-29.3263 113,-19.5817"/>
<polygon fill="#9a32cd" stroke="#9a32cd" points="109.5001,-57.4005 113,-67.4005 116.5001,-57.4006 109.5001,-57.4005"/>
<text text-anchor="middle" x="145.5" y="-41" font-family="Helvetica,sans-Serif" font-size="10.00" fill="#000000"> _border_size</text>
</g>
<!-- Node4 -->
<g id="node5" class="node">
<title>Node4</title>
<g id="a_node5"><a xlink:href="structarm__compute_1_1_pooling_layer_info.xhtml" target="_top" xlink:title="Pooling Layer Information struct. ">
<polygon fill="#ffffff" stroke="#000000" points="166,-67.5 166,-86.5 264,-86.5 264,-67.5 166,-67.5"/>
<text text-anchor="middle" x="215" y="-74.5" font-family="Helvetica,sans-Serif" font-size="10.00" fill="#000000">PoolingLayerInfo</text>
</a>
</g>
</g>
<!-- Node4&#45;&gt;Node0 -->
<g id="edge4" class="edge">
<title>Node4&#45;&gt;Node0</title>
<path fill="none" stroke="#9a32cd" stroke-dasharray="5,2" d="M202.4858,-58.6582C196.8791,-51.4804 189.7771,-43.635 182,-38 171.1125,-30.1114 157.6834,-24.0112 145.5746,-19.5482"/>
<polygon fill="#9a32cd" stroke="#9a32cd" points="199.9929,-61.1779 208.726,-67.1765 205.6398,-57.0411 199.9929,-61.1779"/>
<text text-anchor="middle" x="221" y="-41" font-family="Helvetica,sans-Serif" font-size="10.00" fill="#000000"> _pool_info</text>
</g>
<!-- Node5 -->
<g id="node6" class="node">
<title>Node5</title>
<g id="a_node6"><a xlink:href="classarm__compute_1_1_pad_stride_info.xhtml" target="_top" xlink:title="Padding and stride information class. ">
<polygon fill="#ffffff" stroke="#000000" points="123.5,-134.5 123.5,-153.5 204.5,-153.5 204.5,-134.5 123.5,-134.5"/>
<text text-anchor="middle" x="164" y="-141.5" font-family="Helvetica,sans-Serif" font-size="10.00" fill="#000000">PadStrideInfo</text>
</a>
</g>
</g>
<!-- Node5&#45;&gt;Node4 -->
<g id="edge5" class="edge">
<title>Node5&#45;&gt;Node4</title>
<path fill="none" stroke="#9a32cd" stroke-dasharray="5,2" d="M160.751,-124.1392C160.6323,-117.6403 161.5923,-110.6467 165,-105 169.9349,-96.8226 178.1998,-90.8408 186.6033,-86.5578"/>
<polygon fill="#9a32cd" stroke="#9a32cd" points="157.2854,-124.6656 161.7274,-134.2843 164.2532,-123.9949 157.2854,-124.6656"/>
<text text-anchor="middle" x="204.5" y="-108" font-family="Helvetica,sans-Serif" font-size="10.00" fill="#000000"> pad_stride_info</text>
</g>
<!-- Node6 -->
<g id="node7" class="node">
<title>Node6</title>
<g id="a_node7"><a xlink:href="classarm__compute_1_1_size2_d.xhtml" target="_top" xlink:title="Class for specifying the size of an image or rectangle. ">
<polygon fill="#ffffff" stroke="#000000" points="241,-134.5 241,-153.5 291,-153.5 291,-134.5 241,-134.5"/>
<text text-anchor="middle" x="266" y="-141.5" font-family="Helvetica,sans-Serif" font-size="10.00" fill="#000000">Size2D</text>
</a>
</g>
</g>
<!-- Node6&#45;&gt;Node4 -->
<g id="edge6" class="edge">
<title>Node6&#45;&gt;Node4</title>
<path fill="none" stroke="#9a32cd" stroke-dasharray="5,2" d="M256.8301,-125.209C253.2216,-118.5597 248.7928,-111.1975 244,-105 238.8624,-98.3566 232.1692,-91.7891 226.5077,-86.686"/>
<polygon fill="#9a32cd" stroke="#9a32cd" points="253.7836,-126.9379 261.4771,-134.2223 260.0054,-123.7301 253.7836,-126.9379"/>
<text text-anchor="middle" x="275.5" y="-108" font-family="Helvetica,sans-Serif" font-size="10.00" fill="#000000"> pool_size</text>
</g>
</g>
</svg>
