<?xml version="1.0" encoding="UTF-8" standalone="no"?>
<!DOCTYPE svg PUBLIC "-//W3C//DTD SVG 1.1//EN"
 "http://www.w3.org/Graphics/SVG/1.1/DTD/svg11.dtd">
<!-- Generated by graphviz version 2.40.1 (20161225.0304)
 -->
<!-- Title: src/runtime/gpu/cl Pages: 1 -->
<svg width="536pt" height="536pt"
 viewBox="0.00 0.00 536.00 535.91" xmlns="http://www.w3.org/2000/svg" xmlns:xlink="http://www.w3.org/1999/xlink">
<g id="graph0" class="graph" transform="scale(1 1) rotate(0) translate(4 531.9126)">
<title>src/runtime/gpu/cl</title>
<polygon fill="#ffffff" stroke="transparent" points="-4,4 -4,-531.9126 532,-531.9126 532,4 -4,4"/>
<g id="clust1" class="cluster">
<title>clusterdir_3747c56b457df80298a311fe12706951</title>
<g id="a_clust1"><a xlink:href="dir_3747c56b457df80298a311fe12706951.xhtml" target="_top" xlink:title="gpu">
<polygon fill="#ddddee" stroke="#000000" points="39,-344 39,-503 207,-503 207,-344 39,-344"/>
<text text-anchor="middle" x="123" y="-491" font-family="Helvetica,sans-Serif" font-size="10.00" fill="#000000">gpu</text>
</a>
</g>
</g>
<g id="clust2" class="cluster">
<title>clusterdir_eede2c573d1350b973c6197eaed0c42e</title>
<g id="a_clust2"><a xlink:href="dir_eede2c573d1350b973c6197eaed0c42e.xhtml" target="_top">
<polygon fill="#eeeeff" stroke="#000000" points="47,-352 47,-476 199,-476 199,-352 47,-352"/>
</a>
</g>
</g>
<!-- dir_eede2c573d1350b973c6197eaed0c42e -->
<g id="node1" class="node">
<title>dir_eede2c573d1350b973c6197eaed0c42e</title>
<text text-anchor="middle" x="164" y="-447.5" font-family="Helvetica,sans-Serif" font-size="10.00" fill="#000000">cl</text>
</g>
<!-- dir_214608ef36d61442cb2b0c1c4e9a7def -->
<g id="node6" class="node">
<title>dir_214608ef36d61442cb2b0c1c4e9a7def</title>
<g id="a_node6"><a xlink:href="dir_214608ef36d61442cb2b0c1c4e9a7def.xhtml" target="_top" xlink:title="arm_compute">
<polygon fill="#ffffff" stroke="#ff0000" points="380,-180 296,-180 296,-144 380,-144 380,-180"/>
<text text-anchor="middle" x="338" y="-159.5" font-family="Helvetica,sans-Serif" font-size="10.00" fill="#000000">arm_compute</text>
</a>
</g>
</g>
<!-- dir_eede2c573d1350b973c6197eaed0c42e&#45;&gt;dir_214608ef36d61442cb2b0c1c4e9a7def -->
<g id="edge13" class="edge">
<title>dir_eede2c573d1350b973c6197eaed0c42e&#45;&gt;dir_214608ef36d61442cb2b0c1c4e9a7def</title>
<path fill="none" stroke="#000000" d="M191.2926,-444.7838C234.3929,-436.0074 315.3514,-417.1595 335,-396 387.3945,-339.5766 363.8568,-238.4489 348.0984,-189.7304"/>
<polygon fill="#000000" stroke="#000000" points="351.3871,-188.529 344.8839,-180.1648 344.7517,-190.7589 351.3871,-188.529"/>
<g id="a_edge13&#45;headlabel"><a xlink:href="dir_000055_000000.xhtml" target="_top" xlink:title="92">
<text text-anchor="middle" x="355.2234" y="-188.532" font-family="Helvetica,sans-Serif" font-size="10.00" fill="#000000">92</text>
</a>
</g>
</g>
<!-- dir_c0aa34dfad790829f5103bec913d2ddb -->
<g id="node2" class="node">
<title>dir_c0aa34dfad790829f5103bec913d2ddb</title>
<g id="a_node2"><a xlink:href="dir_c0aa34dfad790829f5103bec913d2ddb.xhtml" target="_top" xlink:title="operators">
<polygon fill="#ffffff" stroke="#000000" points="118.5,-468 55.5,-468 55.5,-432 118.5,-432 118.5,-468"/>
<text text-anchor="middle" x="87" y="-447.5" font-family="Helvetica,sans-Serif" font-size="10.00" fill="#000000">operators</text>
</a>
</g>
</g>
<!-- dir_7b977ceb597e6bab45b816a243b5206f -->
<g id="node3" class="node">
<title>dir_7b977ceb597e6bab45b816a243b5206f</title>
<g id="a_node3"><a xlink:href="dir_7b977ceb597e6bab45b816a243b5206f.xhtml" target="_top" xlink:title="utils">
<polygon fill="#ffffff" stroke="#000000" points="109,-396 55,-396 55,-360 109,-360 109,-396"/>
<text text-anchor="middle" x="82" y="-375.5" font-family="Helvetica,sans-Serif" font-size="10.00" fill="#000000">utils</text>
</a>
</g>
</g>
<!-- dir_c0aa34dfad790829f5103bec913d2ddb&#45;&gt;dir_7b977ceb597e6bab45b816a243b5206f -->
<g id="edge19" class="edge">
<title>dir_c0aa34dfad790829f5103bec913d2ddb&#45;&gt;dir_7b977ceb597e6bab45b816a243b5206f</title>
<path fill="none" stroke="#000000" d="M85.7383,-431.8314C85.2035,-424.131 84.5677,-414.9743 83.9734,-406.4166"/>
<polygon fill="#000000" stroke="#000000" points="87.4632,-406.1467 83.2787,-396.4133 80.48,-406.6317 87.4632,-406.1467"/>
<g id="a_edge19&#45;headlabel"><a xlink:href="dir_000056_000336.xhtml" target="_top" xlink:title="6">
<text text-anchor="middle" x="90.5445" y="-407.0361" font-family="Helvetica,sans-Serif" font-size="10.00" fill="#000000">6</text>
</a>
</g>
</g>
<!-- dir_cf895c1ed808af158264b2f3d8d7f8f0 -->
<g id="node4" class="node">
<title>dir_cf895c1ed808af158264b2f3d8d7f8f0</title>
<g id="a_node4"><a xlink:href="dir_cf895c1ed808af158264b2f3d8d7f8f0.xhtml" target="_top" xlink:title="gpu">
<polygon fill="#ffffff" stroke="#ff0000" points="364,-468 310,-468 310,-432 364,-432 364,-468"/>
<text text-anchor="middle" x="337" y="-447.5" font-family="Helvetica,sans-Serif" font-size="10.00" fill="#000000">gpu</text>
</a>
</g>
</g>
<!-- dir_c0aa34dfad790829f5103bec913d2ddb&#45;&gt;dir_cf895c1ed808af158264b2f3d8d7f8f0 -->
<g id="edge14" class="edge">
<title>dir_c0aa34dfad790829f5103bec913d2ddb&#45;&gt;dir_cf895c1ed808af158264b2f3d8d7f8f0</title>
<path fill="none" stroke="#000000" d="M93.9311,-468.1006C101.5877,-485.2449 115.7224,-509.96 137,-521 159.4867,-532.6674 169.3362,-526.7859 194,-521 233.082,-511.8318 273.7112,-490.3136 301.629,-473.3532"/>
<polygon fill="#000000" stroke="#000000" points="303.5692,-476.2685 310.2285,-468.0281 299.8839,-470.3171 303.5692,-476.2685"/>
<g id="a_edge14&#45;headlabel"><a xlink:href="dir_000056_000051.xhtml" target="_top" xlink:title="1">
<text text-anchor="middle" x="302.0078" y="-478.0749" font-family="Helvetica,sans-Serif" font-size="10.00" fill="#000000">1</text>
</a>
</g>
</g>
<!-- dir_cbdb8362360e11eafe2fa3bc74cf0ffd -->
<g id="node5" class="node">
<title>dir_cbdb8362360e11eafe2fa3bc74cf0ffd</title>
<g id="a_node5"><a xlink:href="dir_cbdb8362360e11eafe2fa3bc74cf0ffd.xhtml" target="_top" xlink:title="utils">
<polygon fill="#ffffff" stroke="#ff0000" points="400,-108 346,-108 346,-72 400,-72 400,-108"/>
<text text-anchor="middle" x="373" y="-87.5" font-family="Helvetica,sans-Serif" font-size="10.00" fill="#000000">utils</text>
</a>
</g>
</g>
<!-- dir_c0aa34dfad790829f5103bec913d2ddb&#45;&gt;dir_cbdb8362360e11eafe2fa3bc74cf0ffd -->
<g id="edge15" class="edge">
<title>dir_c0aa34dfad790829f5103bec913d2ddb&#45;&gt;dir_cbdb8362360e11eafe2fa3bc74cf0ffd</title>
<path fill="none" stroke="#000000" d="M99.1786,-431.6304C105.4934,-421.4638 112.9252,-408.4066 118,-396 149.3027,-319.4723 115.5711,-282.2807 165,-216 208.9465,-157.0709 289.3318,-120.0156 336.26,-102.3396"/>
<polygon fill="#000000" stroke="#000000" points="337.5586,-105.5914 345.741,-98.861 335.1474,-99.0197 337.5586,-105.5914"/>
<g id="a_edge15&#45;headlabel"><a xlink:href="dir_000056_000035.xhtml" target="_top" xlink:title="2">
<text text-anchor="middle" x="335.1619" y="-106.995" font-family="Helvetica,sans-Serif" font-size="10.00" fill="#000000">2</text>
</a>
</g>
</g>
<!-- dir_c0aa34dfad790829f5103bec913d2ddb&#45;&gt;dir_214608ef36d61442cb2b0c1c4e9a7def -->
<g id="edge16" class="edge">
<title>dir_c0aa34dfad790829f5103bec913d2ddb&#45;&gt;dir_214608ef36d61442cb2b0c1c4e9a7def</title>
<path fill="none" stroke="#000000" d="M118.6511,-435.7207C121.7922,-434.4194 124.947,-433.1573 128,-432 219.1878,-397.4324 274.4666,-410.7577 319,-324 340.9372,-281.263 342.1439,-224.0292 340.4615,-190.278"/>
<polygon fill="#000000" stroke="#000000" points="343.9485,-189.9574 339.8364,-180.1931 336.9619,-190.3905 343.9485,-189.9574"/>
<g id="a_edge16&#45;headlabel"><a xlink:href="dir_000056_000000.xhtml" target="_top" xlink:title="87">
<text text-anchor="middle" x="347.0046" y="-190.8695" font-family="Helvetica,sans-Serif" font-size="10.00" fill="#000000">87</text>
</a>
</g>
</g>
<!-- dir_43c3fdbf778d1fd99e2e38f09fddd920 -->
<g id="node7" class="node">
<title>dir_43c3fdbf778d1fd99e2e38f09fddd920</title>
<g id="a_node7"><a xlink:href="dir_43c3fdbf778d1fd99e2e38f09fddd920.xhtml" target="_top" xlink:title="CL">
<polygon fill="#ffffff" stroke="#ff0000" points="441,-396 387,-396 387,-360 441,-360 441,-396"/>
<text text-anchor="middle" x="414" y="-375.5" font-family="Helvetica,sans-Serif" font-size="10.00" fill="#000000">CL</text>
</a>
</g>
</g>
<!-- dir_c0aa34dfad790829f5103bec913d2ddb&#45;&gt;dir_43c3fdbf778d1fd99e2e38f09fddd920 -->
<g id="edge17" class="edge">
<title>dir_c0aa34dfad790829f5103bec913d2ddb&#45;&gt;dir_43c3fdbf778d1fd99e2e38f09fddd920</title>
<path fill="none" stroke="#000000" d="M118.5529,-432.1359C118.7021,-432.0902 118.8511,-432.0449 119,-432 208.4028,-405.0346 234.4455,-414.3787 326,-396 342.6308,-392.6615 361.1224,-388.4744 376.9724,-384.9788"/>
<polygon fill="#000000" stroke="#000000" points="377.9377,-388.3505 386.9606,-382.7974 376.4441,-381.5117 377.9377,-388.3505"/>
<g id="a_edge17&#45;headlabel"><a xlink:href="dir_000056_000031.xhtml" target="_top" xlink:title="3">
<text text-anchor="middle" x="375.0316" y="-389.3913" font-family="Helvetica,sans-Serif" font-size="10.00" fill="#000000">3</text>
</a>
</g>
</g>
<!-- dir_aebb8dcc11953d78e620bbef0b9e2183 -->
<g id="node8" class="node">
<title>dir_aebb8dcc11953d78e620bbef0b9e2183</title>
<g id="a_node8"><a xlink:href="dir_aebb8dcc11953d78e620bbef0b9e2183.xhtml" target="_top" xlink:title="core">
<polygon fill="#ffffff" stroke="#ff0000" points="310,-324 256,-324 256,-288 310,-288 310,-324"/>
<text text-anchor="middle" x="283" y="-303.5" font-family="Helvetica,sans-Serif" font-size="10.00" fill="#000000">core</text>
</a>
</g>
</g>
<!-- dir_c0aa34dfad790829f5103bec913d2ddb&#45;&gt;dir_aebb8dcc11953d78e620bbef0b9e2183 -->
<g id="edge18" class="edge">
<title>dir_c0aa34dfad790829f5103bec913d2ddb&#45;&gt;dir_aebb8dcc11953d78e620bbef0b9e2183</title>
<path fill="none" stroke="#000000" d="M118.6483,-435.4698C149.2439,-421.3057 191.9811,-401.1668 199,-396 223.8505,-377.7068 247.3882,-351.422 263.1899,-331.9778"/>
<polygon fill="#000000" stroke="#000000" points="265.969,-334.1064 269.4697,-324.1066 260.4971,-329.7408 265.969,-334.1064"/>
<g id="a_edge18&#45;headlabel"><a xlink:href="dir_000056_000004.xhtml" target="_top" xlink:title="129">
<text text-anchor="middle" x="265.9467" y="-336.187" font-family="Helvetica,sans-Serif" font-size="10.00" fill="#000000">129</text>
</a>
</g>
</g>
<!-- dir_5815af820a9cc9481f1d0990a0d60286 -->
<g id="node9" class="node">
<title>dir_5815af820a9cc9481f1d0990a0d60286</title>
<g id="a_node9"><a xlink:href="dir_5815af820a9cc9481f1d0990a0d60286.xhtml" target="_top" xlink:title="support">
<polygon fill="none" stroke="#000000" points="312,-36 258,-36 258,0 312,0 312,-36"/>
<text text-anchor="middle" x="285" y="-15.5" font-family="Helvetica,sans-Serif" font-size="10.00" fill="#000000">support</text>
</a>
</g>
</g>
<!-- dir_c0aa34dfad790829f5103bec913d2ddb&#45;&gt;dir_5815af820a9cc9481f1d0990a0d60286 -->
<g id="edge20" class="edge">
<title>dir_c0aa34dfad790829f5103bec913d2ddb&#45;&gt;dir_5815af820a9cc9481f1d0990a0d60286</title>
<path fill="none" stroke="#000000" d="M66.8218,-431.6622C41.1211,-406.1918 0,-357.4069 0,-306 0,-306 0,-306 0,-162 0,-52.2693 170.3852,-26.1375 247.6709,-19.9284"/>
<polygon fill="#000000" stroke="#000000" points="248.213,-23.3982 257.931,-19.1779 247.7022,-16.4168 248.213,-23.3982"/>
<g id="a_edge20&#45;headlabel"><a xlink:href="dir_000056_000027.xhtml" target="_top" xlink:title="5">
<text text-anchor="middle" x="244.835" y="-23.992" font-family="Helvetica,sans-Serif" font-size="10.00" fill="#000000">5</text>
</a>
</g>
</g>
<!-- dir_fdedb0aba14d44ce9d99bc100e026e6a -->
<g id="node10" class="node">
<title>dir_fdedb0aba14d44ce9d99bc100e026e6a</title>
<g id="a_node10"><a xlink:href="dir_fdedb0aba14d44ce9d99bc100e026e6a.xhtml" target="_top" xlink:title="common">
<polygon fill="#ffffff" stroke="#ff0000" points="233.5,-252 174.5,-252 174.5,-216 233.5,-216 233.5,-252"/>
<text text-anchor="middle" x="204" y="-231.5" font-family="Helvetica,sans-Serif" font-size="10.00" fill="#000000">common</text>
</a>
</g>
</g>
<!-- dir_c0aa34dfad790829f5103bec913d2ddb&#45;&gt;dir_fdedb0aba14d44ce9d99bc100e026e6a -->
<g id="edge21" class="edge">
<title>dir_c0aa34dfad790829f5103bec913d2ddb&#45;&gt;dir_fdedb0aba14d44ce9d99bc100e026e6a</title>
<path fill="none" stroke="#000000" d="M115.0303,-431.761C127.5505,-422.3824 141.5747,-409.984 151,-396 179.0569,-354.3726 193.2027,-296.7778 199.5537,-262.6568"/>
<polygon fill="#000000" stroke="#000000" points="203.0631,-262.9087 201.3496,-252.4534 196.1691,-261.6953 203.0631,-262.9087"/>
<g id="a_edge21&#45;headlabel"><a xlink:href="dir_000056_000017.xhtml" target="_top" xlink:title="3">
<text text-anchor="middle" x="205.2364" y="-264.4411" font-family="Helvetica,sans-Serif" font-size="10.00" fill="#000000">3</text>
</a>
</g>
</g>
<!-- dir_7b977ceb597e6bab45b816a243b5206f&#45;&gt;dir_214608ef36d61442cb2b0c1c4e9a7def -->
<g id="edge25" class="edge">
<title>dir_7b977ceb597e6bab45b816a243b5206f&#45;&gt;dir_214608ef36d61442cb2b0c1c4e9a7def</title>
<path fill="none" stroke="#000000" d="M86.1451,-359.8686C94.7827,-326.2746 117.9404,-254.2993 165,-216 199.4632,-187.9522 248.5503,-174.4164 285.6388,-167.9169"/>
<polygon fill="#000000" stroke="#000000" points="286.4543,-171.3302 295.7594,-166.2641 285.326,-164.4217 286.4543,-171.3302"/>
<g id="a_edge25&#45;headlabel"><a xlink:href="dir_000336_000000.xhtml" target="_top" xlink:title="3">
<text text-anchor="middle" x="283.3643" y="-172.2117" font-family="Helvetica,sans-Serif" font-size="10.00" fill="#000000">3</text>
</a>
</g>
</g>
<!-- dir_7b977ceb597e6bab45b816a243b5206f&#45;&gt;dir_5815af820a9cc9481f1d0990a0d60286 -->
<g id="edge26" class="edge">
<title>dir_7b977ceb597e6bab45b816a243b5206f&#45;&gt;dir_5815af820a9cc9481f1d0990a0d60286</title>
<path fill="none" stroke="#000000" d="M72.6687,-359.9025C59.7529,-333.1296 38,-281.0538 38,-234 38,-234 38,-234 38,-162 38,-66.1564 178.5164,-32.9723 247.5804,-22.4506"/>
<polygon fill="#000000" stroke="#000000" points="248.2242,-25.894 257.6229,-21.0039 247.2261,-18.9656 248.2242,-25.894"/>
<g id="a_edge26&#45;headlabel"><a xlink:href="dir_000336_000027.xhtml" target="_top" xlink:title="1">
<text text-anchor="middle" x="245.0711" y="-26.7167" font-family="Helvetica,sans-Serif" font-size="10.00" fill="#000000">1</text>
</a>
</g>
</g>
<!-- dir_7b977ceb597e6bab45b816a243b5206f&#45;&gt;dir_fdedb0aba14d44ce9d99bc100e026e6a -->
<g id="edge27" class="edge">
<title>dir_7b977ceb597e6bab45b816a243b5206f&#45;&gt;dir_fdedb0aba14d44ce9d99bc100e026e6a</title>
<path fill="none" stroke="#000000" d="M97.4514,-359.7623C118.9019,-334.4436 157.811,-288.5182 182.2051,-259.7251"/>
<polygon fill="#000000" stroke="#000000" points="184.8803,-261.982 188.6741,-252.0896 179.5394,-257.457 184.8803,-261.982"/>
<g id="a_edge27&#45;headlabel"><a xlink:href="dir_000336_000017.xhtml" target="_top" xlink:title="1">
<text text-anchor="middle" x="184.723" y="-264.0599" font-family="Helvetica,sans-Serif" font-size="10.00" fill="#000000">1</text>
</a>
</g>
</g>
<!-- dir_cf895c1ed808af158264b2f3d8d7f8f0&#45;&gt;dir_214608ef36d61442cb2b0c1c4e9a7def -->
<g id="edge1" class="edge">
<title>dir_cf895c1ed808af158264b2f3d8d7f8f0&#45;&gt;dir_214608ef36d61442cb2b0c1c4e9a7def</title>
<path fill="none" stroke="#000000" d="M364.1703,-445.5007C391.2021,-439.4214 431.273,-425.7046 450,-396 479.0709,-349.888 424.745,-236.8698 410,-216 401.8813,-204.5089 390.5658,-194.4205 379.3069,-186.1698"/>
<polygon fill="#000000" stroke="#000000" points="380.97,-183.0632 370.7622,-180.2259 376.9727,-188.8096 380.97,-183.0632"/>
<g id="a_edge1&#45;headlabel"><a xlink:href="dir_000051_000000.xhtml" target="_top" xlink:title="6">
<text text-anchor="middle" x="385.5422" y="-180.285" font-family="Helvetica,sans-Serif" font-size="10.00" fill="#000000">6</text>
</a>
</g>
</g>
<!-- dir_cf895c1ed808af158264b2f3d8d7f8f0&#45;&gt;dir_43c3fdbf778d1fd99e2e38f09fddd920 -->
<g id="edge2" class="edge">
<title>dir_cf895c1ed808af158264b2f3d8d7f8f0&#45;&gt;dir_43c3fdbf778d1fd99e2e38f09fddd920</title>
<path fill="none" stroke="#000000" d="M356.4304,-431.8314C365.732,-423.1337 377.0204,-412.5783 387.1286,-403.1265"/>
<polygon fill="#000000" stroke="#000000" points="389.6621,-405.5493 394.5759,-396.1628 384.8811,-400.4363 389.6621,-405.5493"/>
<g id="a_edge2&#45;headlabel"><a xlink:href="dir_000051_000031.xhtml" target="_top" xlink:title="1">
<text text-anchor="middle" x="388.9757" y="-407.5782" font-family="Helvetica,sans-Serif" font-size="10.00" fill="#000000">1</text>
</a>
</g>
</g>
<!-- dir_cf895c1ed808af158264b2f3d8d7f8f0&#45;&gt;dir_fdedb0aba14d44ce9d99bc100e026e6a -->
<g id="edge3" class="edge">
<title>dir_cf895c1ed808af158264b2f3d8d7f8f0&#45;&gt;dir_fdedb0aba14d44ce9d99bc100e026e6a</title>
<path fill="none" stroke="#000000" d="M322.5289,-431.8993C303.8032,-408.0179 270.7666,-364.2873 247,-324 235.0475,-303.7391 223.6721,-279.6386 215.6268,-261.4784"/>
<polygon fill="#000000" stroke="#000000" points="218.7253,-259.8278 211.5174,-252.0627 212.3097,-262.6279 218.7253,-259.8278"/>
<g id="a_edge3&#45;headlabel"><a xlink:href="dir_000051_000017.xhtml" target="_top" xlink:title="4">
<text text-anchor="middle" x="222.7654" y="-259.4865" font-family="Helvetica,sans-Serif" font-size="10.00" fill="#000000">4</text>
</a>
</g>
</g>
<!-- dir_cbdb8362360e11eafe2fa3bc74cf0ffd&#45;&gt;dir_214608ef36d61442cb2b0c1c4e9a7def -->
<g id="edge4" class="edge">
<title>dir_cbdb8362360e11eafe2fa3bc74cf0ffd&#45;&gt;dir_214608ef36d61442cb2b0c1c4e9a7def</title>
<path fill="none" stroke="#000000" d="M370.0251,-108.4133C366.8735,-116.484 362.3849,-126.1182 357.6958,-134.9775"/>
<polygon fill="#000000" stroke="#000000" points="354.5747,-133.3889 352.7844,-143.8314 360.6959,-136.7845 354.5747,-133.3889"/>
<g id="a_edge4&#45;headlabel"><a xlink:href="dir_000035_000000.xhtml" target="_top" xlink:title="37">
<text text-anchor="middle" x="353.8355" y="-126.3682" font-family="Helvetica,sans-Serif" font-size="10.00" fill="#000000">37</text>
</a>
</g>
</g>
<!-- dir_cbdb8362360e11eafe2fa3bc74cf0ffd&#45;&gt;dir_5815af820a9cc9481f1d0990a0d60286 -->
<g id="edge5" class="edge">
<title>dir_cbdb8362360e11eafe2fa3bc74cf0ffd&#45;&gt;dir_5815af820a9cc9481f1d0990a0d60286</title>
<path fill="none" stroke="#000000" d="M350.7939,-71.8314C339.955,-62.9632 326.7556,-52.1637 315.0322,-42.5718"/>
<polygon fill="#000000" stroke="#000000" points="317.155,-39.7864 307.199,-36.1628 312.7223,-45.2041 317.155,-39.7864"/>
<g id="a_edge5&#45;headlabel"><a xlink:href="dir_000035_000027.xhtml" target="_top" xlink:title="3">
<text text-anchor="middle" x="321.7349" y="-37.3651" font-family="Helvetica,sans-Serif" font-size="10.00" fill="#000000">3</text>
</a>
</g>
</g>
<!-- dir_214608ef36d61442cb2b0c1c4e9a7def&#45;&gt;dir_cbdb8362360e11eafe2fa3bc74cf0ffd -->
<g id="edge6" class="edge">
<title>dir_214608ef36d61442cb2b0c1c4e9a7def&#45;&gt;dir_cbdb8362360e11eafe2fa3bc74cf0ffd</title>
<path fill="none" stroke="#000000" d="M340.8796,-143.8314C344.004,-135.7925 348.4769,-126.1666 353.1618,-117.2918"/>
<polygon fill="#000000" stroke="#000000" points="356.2953,-118.8579 358.0731,-108.4133 350.17,-115.4696 356.2953,-118.8579"/>
<g id="a_edge6&#45;headlabel"><a xlink:href="dir_000000_000035.xhtml" target="_top" xlink:title="1">
<text text-anchor="middle" x="357.0399" y="-120.8776" font-family="Helvetica,sans-Serif" font-size="10.00" fill="#000000">1</text>
</a>
</g>
</g>
<!-- dir_214608ef36d61442cb2b0c1c4e9a7def&#45;&gt;dir_5815af820a9cc9481f1d0990a0d60286 -->
<g id="edge7" class="edge">
<title>dir_214608ef36d61442cb2b0c1c4e9a7def&#45;&gt;dir_5815af820a9cc9481f1d0990a0d60286</title>
<path fill="none" stroke="#000000" d="M326.6143,-143.7623C315.064,-119.0928 298.5174,-74.8598 289.8236,-45.9731"/>
<polygon fill="#000000" stroke="#000000" points="293.1124,-44.7433 286.9997,-36.0896 286.3817,-46.6664 293.1124,-44.7433"/>
<g id="a_edge7&#45;headlabel"><a xlink:href="dir_000000_000027.xhtml" target="_top" xlink:title="18">
<text text-anchor="middle" x="296.8298" y="-44.9196" font-family="Helvetica,sans-Serif" font-size="10.00" fill="#000000">18</text>
</a>
</g>
</g>
<!-- dir_43c3fdbf778d1fd99e2e38f09fddd920&#45;&gt;dir_c0aa34dfad790829f5103bec913d2ddb -->
<g id="edge10" class="edge">
<title>dir_43c3fdbf778d1fd99e2e38f09fddd920&#45;&gt;dir_c0aa34dfad790829f5103bec913d2ddb</title>
<path fill="none" stroke="#000000" d="M386.7109,-386.5475C373.7685,-389.6776 358.2054,-393.1484 344,-396 252.4455,-414.3787 226.4028,-405.0346 137,-432 134.116,-432.8699 131.1656,-433.8888 128.204,-434.9918"/>
<polygon fill="#000000" stroke="#000000" points="126.7854,-431.789 118.7733,-438.7213 129.3597,-438.2984 126.7854,-431.789"/>
<g id="a_edge10&#45;headlabel"><a xlink:href="dir_000031_000056.xhtml" target="_top" xlink:title="35">
<text text-anchor="middle" x="129.084" y="-425.3268" font-family="Helvetica,sans-Serif" font-size="10.00" fill="#000000">35</text>
</a>
</g>
</g>
<!-- dir_43c3fdbf778d1fd99e2e38f09fddd920&#45;&gt;dir_cbdb8362360e11eafe2fa3bc74cf0ffd -->
<g id="edge8" class="edge">
<title>dir_43c3fdbf778d1fd99e2e38f09fddd920&#45;&gt;dir_cbdb8362360e11eafe2fa3bc74cf0ffd</title>
<path fill="none" stroke="#000000" d="M419.1191,-359.6727C421.752,-349.2978 424.6796,-336.0284 426,-324 427.7459,-308.0955 427.7459,-303.9045 426,-288 419.1854,-225.9209 396.8056,-155.9031 383.4047,-118.0069"/>
<polygon fill="#000000" stroke="#000000" points="386.5578,-116.4315 379.8834,-108.2033 379.9699,-118.7978 386.5578,-116.4315"/>
<g id="a_edge8&#45;headlabel"><a xlink:href="dir_000031_000035.xhtml" target="_top" xlink:title="1">
<text text-anchor="middle" x="390.445" y="-116.3547" font-family="Helvetica,sans-Serif" font-size="10.00" fill="#000000">1</text>
</a>
</g>
</g>
<!-- dir_43c3fdbf778d1fd99e2e38f09fddd920&#45;&gt;dir_214608ef36d61442cb2b0c1c4e9a7def -->
<g id="edge9" class="edge">
<title>dir_43c3fdbf778d1fd99e2e38f09fddd920&#45;&gt;dir_214608ef36d61442cb2b0c1c4e9a7def</title>
<path fill="none" stroke="#000000" d="M414.81,-359.9359C415.4685,-328.8525 413.5768,-263.9714 390,-216 384.7607,-205.3397 376.6481,-195.4171 368.3767,-187.0611"/>
<polygon fill="#000000" stroke="#000000" points="370.7834,-184.5198 361.1353,-180.142 365.9476,-189.5809 370.7834,-184.5198"/>
<g id="a_edge9&#45;headlabel"><a xlink:href="dir_000031_000000.xhtml" target="_top" xlink:title="463">
<text text-anchor="middle" x="375.3438" y="-182.4502" font-family="Helvetica,sans-Serif" font-size="10.00" fill="#000000">463</text>
</a>
</g>
</g>
<!-- dir_43c3fdbf778d1fd99e2e38f09fddd920&#45;&gt;dir_aebb8dcc11953d78e620bbef0b9e2183 -->
<g id="edge11" class="edge">
<title>dir_43c3fdbf778d1fd99e2e38f09fddd920&#45;&gt;dir_aebb8dcc11953d78e620bbef0b9e2183</title>
<path fill="none" stroke="#000000" d="M386.8567,-363.0816C367.1842,-352.2692 340.3843,-337.5395 318.9364,-325.7513"/>
<polygon fill="#000000" stroke="#000000" points="320.5579,-322.6488 310.1085,-320.8993 317.1863,-328.7833 320.5579,-322.6488"/>
<g id="a_edge11&#45;headlabel"><a xlink:href="dir_000031_000004.xhtml" target="_top" xlink:title="141">
<text text-anchor="middle" x="325.0756" y="-319.3919" font-family="Helvetica,sans-Serif" font-size="10.00" fill="#000000">141</text>
</a>
</g>
</g>
<!-- dir_43c3fdbf778d1fd99e2e38f09fddd920&#45;&gt;dir_5815af820a9cc9481f1d0990a0d60286 -->
<g id="edge12" class="edge">
<title>dir_43c3fdbf778d1fd99e2e38f09fddd920&#45;&gt;dir_5815af820a9cc9481f1d0990a0d60286</title>
<path fill="none" stroke="#000000" d="M441.0164,-360.633C474.7278,-336.6024 528,-289.8003 528,-234 528,-234 528,-234 528,-162 528,-67.5456 390.4393,-33.7072 322.317,-22.7408"/>
<polygon fill="#000000" stroke="#000000" points="322.8165,-19.2766 312.4028,-21.2277 321.7603,-26.1965 322.8165,-19.2766"/>
<g id="a_edge12&#45;headlabel"><a xlink:href="dir_000031_000027.xhtml" target="_top" xlink:title="6">
<text text-anchor="middle" x="326.7983" y="-14.5121" font-family="Helvetica,sans-Serif" font-size="10.00" fill="#000000">6</text>
</a>
</g>
</g>
<!-- dir_aebb8dcc11953d78e620bbef0b9e2183&#45;&gt;dir_214608ef36d61442cb2b0c1c4e9a7def -->
<g id="edge22" class="edge">
<title>dir_aebb8dcc11953d78e620bbef0b9e2183&#45;&gt;dir_214608ef36d61442cb2b0c1c4e9a7def</title>
<path fill="none" stroke="#000000" d="M289.9658,-287.7623C299.4295,-262.9846 316.4311,-218.4714 327.4607,-189.5939"/>
<polygon fill="#000000" stroke="#000000" points="330.7923,-190.6803 331.0908,-180.0896 324.253,-188.1826 330.7923,-190.6803"/>
<g id="a_edge22&#45;headlabel"><a xlink:href="dir_000004_000000.xhtml" target="_top" xlink:title="1334">
<text text-anchor="middle" x="332.1622" y="-192.5513" font-family="Helvetica,sans-Serif" font-size="10.00" fill="#000000">1334</text>
</a>
</g>
</g>
<!-- dir_aebb8dcc11953d78e620bbef0b9e2183&#45;&gt;dir_5815af820a9cc9481f1d0990a0d60286 -->
<g id="edge23" class="edge">
<title>dir_aebb8dcc11953d78e620bbef0b9e2183&#45;&gt;dir_5815af820a9cc9481f1d0990a0d60286</title>
<path fill="none" stroke="#000000" d="M283.1251,-287.9843C283.4632,-239.2939 284.3972,-104.7961 284.8052,-46.0573"/>
<polygon fill="#000000" stroke="#000000" points="288.3053,-46.033 284.8749,-36.0089 281.3055,-45.9843 288.3053,-46.033"/>
<g id="a_edge23&#45;headlabel"><a xlink:href="dir_000004_000027.xhtml" target="_top" xlink:title="156">
<text text-anchor="middle" x="291.1197" y="-47.1472" font-family="Helvetica,sans-Serif" font-size="10.00" fill="#000000">156</text>
</a>
</g>
</g>
<!-- dir_aebb8dcc11953d78e620bbef0b9e2183&#45;&gt;dir_fdedb0aba14d44ce9d99bc100e026e6a -->
<g id="edge24" class="edge">
<title>dir_aebb8dcc11953d78e620bbef0b9e2183&#45;&gt;dir_fdedb0aba14d44ce9d99bc100e026e6a</title>
<path fill="none" stroke="#000000" d="M263.065,-287.8314C253.5217,-279.1337 241.9401,-268.5783 231.5694,-259.1265"/>
<polygon fill="#000000" stroke="#000000" points="233.6772,-256.3121 223.9287,-252.1628 228.962,-261.4857 233.6772,-256.3121"/>
<g id="a_edge24&#45;headlabel"><a xlink:href="dir_000004_000017.xhtml" target="_top" xlink:title="4">
<text text-anchor="middle" x="238.2465" y="-254.1349" font-family="Helvetica,sans-Serif" font-size="10.00" fill="#000000">4</text>
</a>
</g>
</g>
<!-- dir_5815af820a9cc9481f1d0990a0d60286&#45;&gt;dir_214608ef36d61442cb2b0c1c4e9a7def -->
<g id="edge28" class="edge">
<title>dir_5815af820a9cc9481f1d0990a0d60286&#45;&gt;dir_214608ef36d61442cb2b0c1c4e9a7def</title>
<path fill="none" stroke="#000000" d="M296.3163,-36.0896C307.8466,-60.6805 324.3988,-104.905 333.124,-133.8531"/>
<polygon fill="#000000" stroke="#000000" points="329.8437,-135.1117 335.9607,-143.7623 336.5734,-133.1852 329.8437,-135.1117"/>
<g id="a_edge28&#45;headlabel"><a xlink:href="dir_000027_000000.xhtml" target="_top" xlink:title="6">
<text text-anchor="middle" x="326.1248" y="-129.9373" font-family="Helvetica,sans-Serif" font-size="10.00" fill="#000000">6</text>
</a>
</g>
</g>
<!-- dir_fdedb0aba14d44ce9d99bc100e026e6a&#45;&gt;dir_214608ef36d61442cb2b0c1c4e9a7def -->
<g id="edge29" class="edge">
<title>dir_fdedb0aba14d44ce9d99bc100e026e6a&#45;&gt;dir_214608ef36d61442cb2b0c1c4e9a7def</title>
<path fill="none" stroke="#000000" d="M233.7389,-218.0209C251.7922,-208.3206 275.1377,-195.7767 295.1597,-185.0187"/>
<polygon fill="#000000" stroke="#000000" points="296.9418,-188.0344 304.0941,-180.2181 293.6286,-181.8681 296.9418,-188.0344"/>
<g id="a_edge29&#45;headlabel"><a xlink:href="dir_000017_000000.xhtml" target="_top" xlink:title="17">
<text text-anchor="middle" x="295.1192" y="-189.7368" font-family="Helvetica,sans-Serif" font-size="10.00" fill="#000000">17</text>
</a>
</g>
</g>
<!-- dir_fdedb0aba14d44ce9d99bc100e026e6a&#45;&gt;dir_5815af820a9cc9481f1d0990a0d60286 -->
<g id="edge30" class="edge">
<title>dir_fdedb0aba14d44ce9d99bc100e026e6a&#45;&gt;dir_5815af820a9cc9481f1d0990a0d60286</title>
<path fill="none" stroke="#000000" d="M206.8829,-215.8193C212.1963,-185.1083 225.1343,-121.4704 248,-72 252.3882,-62.5061 258.4031,-52.8594 264.308,-44.3968"/>
<polygon fill="#000000" stroke="#000000" points="267.314,-46.2133 270.3489,-36.0624 261.6463,-42.1051 267.314,-46.2133"/>
<g id="a_edge30&#45;headlabel"><a xlink:href="dir_000017_000027.xhtml" target="_top" xlink:title="2">
<text text-anchor="middle" x="267.5034" y="-48.29" font-family="Helvetica,sans-Serif" font-size="10.00" fill="#000000">2</text>
</a>
</g>
</g>
</g>
</svg>
