<?xml version="1.0" encoding="UTF-8" standalone="no"?>
<!DOCTYPE svg PUBLIC "-//W3C//DTD SVG 1.1//EN"
 "http://www.w3.org/Graphics/SVG/1.1/DTD/svg11.dtd">
<!-- Generated by graphviz version 2.40.1 (20161225.0304)
 -->
<!-- Title: src/core/cpu/kernels/scale Pages: 1 -->
<svg width="306pt" height="375pt"
 viewBox="0.00 0.00 306.00 375.00" xmlns="http://www.w3.org/2000/svg" xmlns:xlink="http://www.w3.org/1999/xlink">
<g id="graph0" class="graph" transform="scale(1 1) rotate(0) translate(4 371)">
<title>src/core/cpu/kernels/scale</title>
<polygon fill="#ffffff" stroke="transparent" points="-4,4 -4,-371 302,-371 302,4 -4,4"/>
<g id="clust1" class="cluster">
<title>clusterdir_245ee9a9c6615d71b72ba121a052806f</title>
<g id="a_clust1"><a xlink:href="dir_245ee9a9c6615d71b72ba121a052806f.xhtml" target="_top" xlink:title="kernels">
<polygon fill="#ddddee" stroke="#000000" points="8,-272 8,-359 238,-359 238,-272 8,-272"/>
<text text-anchor="middle" x="123" y="-347" font-family="Helvetica,sans-Serif" font-size="10.00" fill="#000000">kernels</text>
</a>
</g>
</g>
<g id="clust2" class="cluster">
<title>clusterdir_f38feab919a9c471cf68468a696ef581</title>
<g id="a_clust2"><a xlink:href="dir_f38feab919a9c471cf68468a696ef581.xhtml" target="_top">
<polygon fill="#eeeeff" stroke="#000000" points="16,-280 16,-332 230,-332 230,-280 16,-280"/>
</a>
</g>
</g>
<!-- dir_f38feab919a9c471cf68468a696ef581 -->
<g id="node1" class="node">
<title>dir_f38feab919a9c471cf68468a696ef581</title>
<text text-anchor="middle" x="195" y="-303.5" font-family="Helvetica,sans-Serif" font-size="10.00" fill="#000000">scale</text>
</g>
<!-- dir_7063e96937b5276c337a1e82b4c43a84 -->
<g id="node2" class="node">
<title>dir_7063e96937b5276c337a1e82b4c43a84</title>
<g id="a_node2"><a xlink:href="dir_7063e96937b5276c337a1e82b4c43a84.xhtml" target="_top" xlink:title="neon">
<polygon fill="#ffffff" stroke="#000000" points="150,-324 96,-324 96,-288 150,-288 150,-324"/>
<text text-anchor="middle" x="123" y="-303.5" font-family="Helvetica,sans-Serif" font-size="10.00" fill="#000000">neon</text>
</a>
</g>
</g>
<!-- dir_707aa52d67938117542c6646238d6f70 -->
<g id="node4" class="node">
<title>dir_707aa52d67938117542c6646238d6f70</title>
<g id="a_node4"><a xlink:href="dir_707aa52d67938117542c6646238d6f70.xhtml" target="_top" xlink:title="helpers">
<polygon fill="none" stroke="#000000" points="150,-180 96,-180 96,-144 150,-144 150,-180"/>
<text text-anchor="middle" x="123" y="-159.5" font-family="Helvetica,sans-Serif" font-size="10.00" fill="#000000">helpers</text>
</a>
</g>
</g>
<!-- dir_7063e96937b5276c337a1e82b4c43a84&#45;&gt;dir_707aa52d67938117542c6646238d6f70 -->
<g id="edge9" class="edge">
<title>dir_7063e96937b5276c337a1e82b4c43a84&#45;&gt;dir_707aa52d67938117542c6646238d6f70</title>
<path fill="none" stroke="#000000" d="M123,-287.7623C123,-263.201 123,-219.2474 123,-190.3541"/>
<polygon fill="#000000" stroke="#000000" points="126.5001,-190.0896 123,-180.0896 119.5001,-190.0897 126.5001,-190.0896"/>
<g id="a_edge9&#45;headlabel"><a xlink:href="dir_000091_000029.xhtml" target="_top" xlink:title="3">
<text text-anchor="middle" x="129.3393" y="-191.1842" font-family="Helvetica,sans-Serif" font-size="10.00" fill="#000000">3</text>
</a>
</g>
</g>
<!-- dir_214608ef36d61442cb2b0c1c4e9a7def -->
<g id="node5" class="node">
<title>dir_214608ef36d61442cb2b0c1c4e9a7def</title>
<g id="a_node5"><a xlink:href="dir_214608ef36d61442cb2b0c1c4e9a7def.xhtml" target="_top" xlink:title="arm_compute">
<polygon fill="#ffffff" stroke="#ff0000" points="188,-108 104,-108 104,-72 188,-72 188,-108"/>
<text text-anchor="middle" x="146" y="-87.5" font-family="Helvetica,sans-Serif" font-size="10.00" fill="#000000">arm_compute</text>
</a>
</g>
</g>
<!-- dir_7063e96937b5276c337a1e82b4c43a84&#45;&gt;dir_214608ef36d61442cb2b0c1c4e9a7def -->
<g id="edge10" class="edge">
<title>dir_7063e96937b5276c337a1e82b4c43a84&#45;&gt;dir_214608ef36d61442cb2b0c1c4e9a7def</title>
<path fill="none" stroke="#000000" d="M111.8317,-287.7838C94.5043,-257.0206 65.2869,-193.3076 87,-144 91.984,-132.6819 100.6412,-122.7031 109.8125,-114.5015"/>
<polygon fill="#000000" stroke="#000000" points="112.1256,-117.13 117.568,-108.0399 107.6448,-111.752 112.1256,-117.13"/>
<g id="a_edge10&#45;headlabel"><a xlink:href="dir_000091_000000.xhtml" target="_top" xlink:title="9">
<text text-anchor="middle" x="111.1814" y="-119.1123" font-family="Helvetica,sans-Serif" font-size="10.00" fill="#000000">9</text>
</a>
</g>
</g>
<!-- dir_d91e1966cc57df4f49d1e07be7697713 -->
<g id="node6" class="node">
<title>dir_d91e1966cc57df4f49d1e07be7697713</title>
<g id="a_node6"><a xlink:href="dir_d91e1966cc57df4f49d1e07be7697713.xhtml" target="_top" xlink:title="NEON">
<polygon fill="#ffffff" stroke="#ff0000" points="205,-252 151,-252 151,-216 205,-216 205,-252"/>
<text text-anchor="middle" x="178" y="-231.5" font-family="Helvetica,sans-Serif" font-size="10.00" fill="#000000">NEON</text>
</a>
</g>
</g>
<!-- dir_7063e96937b5276c337a1e82b4c43a84&#45;&gt;dir_d91e1966cc57df4f49d1e07be7697713 -->
<g id="edge11" class="edge">
<title>dir_7063e96937b5276c337a1e82b4c43a84&#45;&gt;dir_d91e1966cc57df4f49d1e07be7697713</title>
<path fill="none" stroke="#000000" d="M136.8788,-287.8314C143.2136,-279.5386 150.8384,-269.557 157.7926,-260.4533"/>
<polygon fill="#000000" stroke="#000000" points="160.6452,-262.4847 163.9343,-252.4133 155.0825,-258.2353 160.6452,-262.4847"/>
<g id="a_edge11&#45;headlabel"><a xlink:href="dir_000091_000024.xhtml" target="_top" xlink:title="6">
<text text-anchor="middle" x="160.7195" y="-264.5647" font-family="Helvetica,sans-Serif" font-size="10.00" fill="#000000">6</text>
</a>
</g>
</g>
<!-- dir_a8053b3d69cfefb2b2e6ec7bf9dd5c1a -->
<g id="node7" class="node">
<title>dir_a8053b3d69cfefb2b2e6ec7bf9dd5c1a</title>
<g id="a_node7"><a xlink:href="dir_a8053b3d69cfefb2b2e6ec7bf9dd5c1a.xhtml" target="_top" xlink:title="utils">
<polygon fill="#ffffff" stroke="#ff0000" points="298,-180 244,-180 244,-144 298,-144 298,-180"/>
<text text-anchor="middle" x="271" y="-159.5" font-family="Helvetica,sans-Serif" font-size="10.00" fill="#000000">utils</text>
</a>
</g>
</g>
<!-- dir_7063e96937b5276c337a1e82b4c43a84&#45;&gt;dir_a8053b3d69cfefb2b2e6ec7bf9dd5c1a -->
<g id="edge12" class="edge">
<title>dir_7063e96937b5276c337a1e82b4c43a84&#45;&gt;dir_a8053b3d69cfefb2b2e6ec7bf9dd5c1a</title>
<path fill="none" stroke="#000000" d="M139.3785,-287.836C145.1578,-282.198 151.9763,-276.3334 159,-272 181.1364,-258.3426 193.7341,-268.3046 214,-252 234.6811,-235.3614 250.0882,-209.093 259.635,-189.221"/>
<polygon fill="#000000" stroke="#000000" points="262.8541,-190.5978 263.8482,-180.0497 256.4932,-187.6756 262.8541,-190.5978"/>
<g id="a_edge12&#45;headlabel"><a xlink:href="dir_000091_000119.xhtml" target="_top" xlink:title="3">
<text text-anchor="middle" x="263.9336" y="-192.5495" font-family="Helvetica,sans-Serif" font-size="10.00" fill="#000000">3</text>
</a>
</g>
</g>
<!-- dir_5815af820a9cc9481f1d0990a0d60286 -->
<g id="node8" class="node">
<title>dir_5815af820a9cc9481f1d0990a0d60286</title>
<g id="a_node8"><a xlink:href="dir_5815af820a9cc9481f1d0990a0d60286.xhtml" target="_top" xlink:title="support">
<polygon fill="none" stroke="#000000" points="173,-36 119,-36 119,0 173,0 173,-36"/>
<text text-anchor="middle" x="146" y="-15.5" font-family="Helvetica,sans-Serif" font-size="10.00" fill="#000000">support</text>
</a>
</g>
</g>
<!-- dir_7063e96937b5276c337a1e82b4c43a84&#45;&gt;dir_5815af820a9cc9481f1d0990a0d60286 -->
<g id="edge13" class="edge">
<title>dir_7063e96937b5276c337a1e82b4c43a84&#45;&gt;dir_5815af820a9cc9481f1d0990a0d60286</title>
<path fill="none" stroke="#000000" d="M103.8218,-287.8505C94.8879,-278.144 85.1197,-265.4389 80,-252 62.9001,-207.114 69.8208,-191.6338 76,-144 80.2576,-111.1796 78.9181,-100.9254 95,-72 100.8157,-61.5396 109.118,-51.5662 117.3394,-43.1016"/>
<polygon fill="#000000" stroke="#000000" points="119.8054,-45.5854 124.479,-36.077 114.896,-40.5956 119.8054,-45.5854"/>
<g id="a_edge13&#45;headlabel"><a xlink:href="dir_000091_000027.xhtml" target="_top" xlink:title="3">
<text text-anchor="middle" x="119.2344" y="-47.6303" font-family="Helvetica,sans-Serif" font-size="10.00" fill="#000000">3</text>
</a>
</g>
</g>
<!-- dir_882dbd9cc9a23125ce6e736e39382a0b -->
<g id="node3" class="node">
<title>dir_882dbd9cc9a23125ce6e736e39382a0b</title>
<g id="a_node3"><a xlink:href="dir_882dbd9cc9a23125ce6e736e39382a0b.xhtml" target="_top" xlink:title="sve">
<polygon fill="#ffffff" stroke="#000000" points="78,-324 24,-324 24,-288 78,-288 78,-324"/>
<text text-anchor="middle" x="51" y="-303.5" font-family="Helvetica,sans-Serif" font-size="10.00" fill="#000000">sve</text>
</a>
</g>
</g>
<!-- dir_707aa52d67938117542c6646238d6f70&#45;&gt;dir_214608ef36d61442cb2b0c1c4e9a7def -->
<g id="edge1" class="edge">
<title>dir_707aa52d67938117542c6646238d6f70&#45;&gt;dir_214608ef36d61442cb2b0c1c4e9a7def</title>
<path fill="none" stroke="#000000" d="M128.8039,-143.8314C131.2908,-136.0463 134.2531,-126.7729 137.0125,-118.1347"/>
<polygon fill="#000000" stroke="#000000" points="140.409,-119.0041 140.118,-108.4133 133.7409,-116.874 140.409,-119.0041"/>
<g id="a_edge1&#45;headlabel"><a xlink:href="dir_000029_000000.xhtml" target="_top" xlink:title="15">
<text text-anchor="middle" x="142.0199" y="-120.7922" font-family="Helvetica,sans-Serif" font-size="10.00" fill="#000000">15</text>
</a>
</g>
</g>
<!-- dir_214608ef36d61442cb2b0c1c4e9a7def&#45;&gt;dir_5815af820a9cc9481f1d0990a0d60286 -->
<g id="edge2" class="edge">
<title>dir_214608ef36d61442cb2b0c1c4e9a7def&#45;&gt;dir_5815af820a9cc9481f1d0990a0d60286</title>
<path fill="none" stroke="#000000" d="M140.0476,-71.8314C139.2972,-64.131 139.0763,-54.9743 139.3849,-46.4166"/>
<polygon fill="#000000" stroke="#000000" points="142.8792,-46.6161 140.024,-36.4133 135.8935,-46.1697 142.8792,-46.6161"/>
<g id="a_edge2&#45;headlabel"><a xlink:href="dir_000000_000027.xhtml" target="_top" xlink:title="18">
<text text-anchor="middle" x="145.4836" y="-47.8844" font-family="Helvetica,sans-Serif" font-size="10.00" fill="#000000">18</text>
</a>
</g>
</g>
<!-- dir_d91e1966cc57df4f49d1e07be7697713&#45;&gt;dir_707aa52d67938117542c6646238d6f70 -->
<g id="edge3" class="edge">
<title>dir_d91e1966cc57df4f49d1e07be7697713&#45;&gt;dir_707aa52d67938117542c6646238d6f70</title>
<path fill="none" stroke="#000000" d="M164.1212,-215.8314C157.7864,-207.5386 150.1616,-197.557 143.2074,-188.4533"/>
<polygon fill="#000000" stroke="#000000" points="145.9175,-186.2353 137.0657,-180.4133 140.3548,-190.4847 145.9175,-186.2353"/>
<g id="a_edge3&#45;headlabel"><a xlink:href="dir_000024_000029.xhtml" target="_top" xlink:title="79">
<text text-anchor="middle" x="150.3558" y="-184.8683" font-family="Helvetica,sans-Serif" font-size="10.00" fill="#000000">79</text>
</a>
</g>
</g>
<!-- dir_d91e1966cc57df4f49d1e07be7697713&#45;&gt;dir_214608ef36d61442cb2b0c1c4e9a7def -->
<g id="edge4" class="edge">
<title>dir_d91e1966cc57df4f49d1e07be7697713&#45;&gt;dir_214608ef36d61442cb2b0c1c4e9a7def</title>
<path fill="none" stroke="#000000" d="M174.2933,-215.6956C170.5689,-197.4872 164.5944,-168.7674 159,-144 157.1177,-135.667 154.9813,-126.6343 152.9921,-118.3842"/>
<polygon fill="#000000" stroke="#000000" points="156.3439,-117.3549 150.5814,-108.4643 149.5419,-119.008 156.3439,-117.3549"/>
<g id="a_edge4&#45;headlabel"><a xlink:href="dir_000024_000000.xhtml" target="_top" xlink:title="248">
<text text-anchor="middle" x="159.9517" y="-117.6774" font-family="Helvetica,sans-Serif" font-size="10.00" fill="#000000">248</text>
</a>
</g>
</g>
<!-- dir_d91e1966cc57df4f49d1e07be7697713&#45;&gt;dir_a8053b3d69cfefb2b2e6ec7bf9dd5c1a -->
<g id="edge5" class="edge">
<title>dir_d91e1966cc57df4f49d1e07be7697713&#45;&gt;dir_a8053b3d69cfefb2b2e6ec7bf9dd5c1a</title>
<path fill="none" stroke="#000000" d="M201.4678,-215.8314C213.0327,-206.8779 227.1404,-195.9558 239.6183,-186.2955"/>
<polygon fill="#000000" stroke="#000000" points="241.775,-189.0521 247.5397,-180.1628 237.4898,-183.5171 241.775,-189.0521"/>
<g id="a_edge5&#45;headlabel"><a xlink:href="dir_000024_000119.xhtml" target="_top" xlink:title="2">
<text text-anchor="middle" x="240.6708" y="-190.9977" font-family="Helvetica,sans-Serif" font-size="10.00" fill="#000000">2</text>
</a>
</g>
</g>
<!-- dir_d91e1966cc57df4f49d1e07be7697713&#45;&gt;dir_5815af820a9cc9481f1d0990a0d60286 -->
<g id="edge6" class="edge">
<title>dir_d91e1966cc57df4f49d1e07be7697713&#45;&gt;dir_5815af820a9cc9481f1d0990a0d60286</title>
<path fill="none" stroke="#000000" d="M185.6606,-215.762C197.4081,-184.9668 216.564,-121.2078 197,-72 192.7324,-61.2659 185.2069,-51.4321 177.2261,-43.1828"/>
<polygon fill="#000000" stroke="#000000" points="179.4779,-40.4921 169.8491,-36.072 174.6199,-45.5319 179.4779,-40.4921"/>
<g id="a_edge6&#45;headlabel"><a xlink:href="dir_000024_000027.xhtml" target="_top" xlink:title="8">
<text text-anchor="middle" x="184.0363" y="-38.4425" font-family="Helvetica,sans-Serif" font-size="10.00" fill="#000000">8</text>
</a>
</g>
</g>
<!-- dir_a8053b3d69cfefb2b2e6ec7bf9dd5c1a&#45;&gt;dir_214608ef36d61442cb2b0c1c4e9a7def -->
<g id="edge7" class="edge">
<title>dir_a8053b3d69cfefb2b2e6ec7bf9dd5c1a&#45;&gt;dir_214608ef36d61442cb2b0c1c4e9a7def</title>
<path fill="none" stroke="#000000" d="M243.8769,-146.3771C227.0165,-136.6655 205.0345,-124.0039 186.175,-113.1408"/>
<polygon fill="#000000" stroke="#000000" points="187.8945,-110.0922 177.4822,-108.1338 184.4006,-116.1579 187.8945,-110.0922"/>
<g id="a_edge7&#45;headlabel"><a xlink:href="dir_000119_000000.xhtml" target="_top" xlink:title="16">
<text text-anchor="middle" x="192.4265" y="-106.926" font-family="Helvetica,sans-Serif" font-size="10.00" fill="#000000">16</text>
</a>
</g>
</g>
<!-- dir_a8053b3d69cfefb2b2e6ec7bf9dd5c1a&#45;&gt;dir_5815af820a9cc9481f1d0990a0d60286 -->
<g id="edge8" class="edge">
<title>dir_a8053b3d69cfefb2b2e6ec7bf9dd5c1a&#45;&gt;dir_5815af820a9cc9481f1d0990a0d60286</title>
<path fill="none" stroke="#000000" d="M266.0606,-143.733C260.072,-124.2388 248.4286,-93.2908 230,-72 216.9112,-56.8783 198.5615,-44.4197 182.3501,-35.2947"/>
<polygon fill="#000000" stroke="#000000" points="183.5714,-31.9769 173.1081,-30.3123 180.2496,-38.1385 183.5714,-31.9769"/>
<g id="a_edge8&#45;headlabel"><a xlink:href="dir_000119_000027.xhtml" target="_top" xlink:title="3">
<text text-anchor="middle" x="188.0828" y="-28.6834" font-family="Helvetica,sans-Serif" font-size="10.00" fill="#000000">3</text>
</a>
</g>
</g>
<!-- dir_5815af820a9cc9481f1d0990a0d60286&#45;&gt;dir_214608ef36d61442cb2b0c1c4e9a7def -->
<g id="edge14" class="edge">
<title>dir_5815af820a9cc9481f1d0990a0d60286&#45;&gt;dir_214608ef36d61442cb2b0c1c4e9a7def</title>
<path fill="none" stroke="#000000" d="M151.976,-36.4133C152.7071,-44.0593 152.9203,-53.1084 152.6155,-61.5726"/>
<polygon fill="#000000" stroke="#000000" points="149.1048,-61.6264 151.9524,-71.8314 156.0902,-62.078 149.1048,-61.6264"/>
<g id="a_edge14&#45;headlabel"><a xlink:href="dir_000027_000000.xhtml" target="_top" xlink:title="6">
<text text-anchor="middle" x="146.5032" y="-55.3562" font-family="Helvetica,sans-Serif" font-size="10.00" fill="#000000">6</text>
</a>
</g>
</g>
</g>
</svg>
