<?xml version="1.0" encoding="UTF-8" standalone="no"?>
<!DOCTYPE svg PUBLIC "-//W3C//DTD SVG 1.1//EN"
 "http://www.w3.org/Graphics/SVG/1.1/DTD/svg11.dtd">
<!-- Generated by graphviz version 2.40.1 (20161225.0304)
 -->
<!-- Title: src/runtime/NEON Pages: 1 -->
<svg width="201pt" height="375pt"
 viewBox="0.00 0.00 201.40 375.00" xmlns="http://www.w3.org/2000/svg" xmlns:xlink="http://www.w3.org/1999/xlink">
<g id="graph0" class="graph" transform="scale(1 1) rotate(0) translate(4 371)">
<title>src/runtime/NEON</title>
<polygon fill="#ffffff" stroke="transparent" points="-4,4 -4,-371 197.399,-371 197.399,4 -4,4"/>
<g id="clust1" class="cluster">
<title>clusterdir_bf9f26469d00835ba20ff8d80ee5a804</title>
<g id="a_clust1"><a xlink:href="dir_bf9f26469d00835ba20ff8d80ee5a804.xhtml" target="_top" xlink:title="runtime">
<polygon fill="#ddddee" stroke="#000000" points="19.399,-272 19.399,-359 185.399,-359 185.399,-272 19.399,-272"/>
<text text-anchor="middle" x="102.399" y="-347" font-family="Helvetica,sans-Serif" font-size="10.00" fill="#000000">runtime</text>
</a>
</g>
</g>
<g id="clust2" class="cluster">
<title>clusterdir_a36523fc4c32a6b0076906589b6fc202</title>
<g id="a_clust2"><a xlink:href="dir_a36523fc4c32a6b0076906589b6fc202.xhtml" target="_top">
<polygon fill="#eeeeff" stroke="#000000" points="27.399,-280 27.399,-332 177.399,-332 177.399,-280 27.399,-280"/>
</a>
</g>
</g>
<!-- dir_a36523fc4c32a6b0076906589b6fc202 -->
<g id="node1" class="node">
<title>dir_a36523fc4c32a6b0076906589b6fc202</title>
<text text-anchor="middle" x="142.399" y="-303.5" font-family="Helvetica,sans-Serif" font-size="10.00" fill="#000000">NEON</text>
</g>
<!-- dir_4d03f28cfd35f8f734a3b0a2f1168d27 -->
<g id="node2" class="node">
<title>dir_4d03f28cfd35f8f734a3b0a2f1168d27</title>
<g id="a_node2"><a xlink:href="dir_4d03f28cfd35f8f734a3b0a2f1168d27.xhtml" target="_top" xlink:title="functions">
<polygon fill="#ffffff" stroke="#000000" points="97.399,-324 35.399,-324 35.399,-288 97.399,-288 97.399,-324"/>
<text text-anchor="middle" x="66.399" y="-303.5" font-family="Helvetica,sans-Serif" font-size="10.00" fill="#000000">functions</text>
</a>
</g>
</g>
<!-- dir_214608ef36d61442cb2b0c1c4e9a7def -->
<g id="node3" class="node">
<title>dir_214608ef36d61442cb2b0c1c4e9a7def</title>
<g id="a_node3"><a xlink:href="dir_214608ef36d61442cb2b0c1c4e9a7def.xhtml" target="_top" xlink:title="arm_compute">
<polygon fill="#ffffff" stroke="#ff0000" points="130.399,-108 46.399,-108 46.399,-72 130.399,-72 130.399,-108"/>
<text text-anchor="middle" x="88.399" y="-87.5" font-family="Helvetica,sans-Serif" font-size="10.00" fill="#000000">arm_compute</text>
</a>
</g>
</g>
<!-- dir_4d03f28cfd35f8f734a3b0a2f1168d27&#45;&gt;dir_214608ef36d61442cb2b0c1c4e9a7def -->
<g id="edge1" class="edge">
<title>dir_4d03f28cfd35f8f734a3b0a2f1168d27&#45;&gt;dir_214608ef36d61442cb2b0c1c4e9a7def</title>
<path fill="none" stroke="#000000" d="M69.8714,-287.5621C71.7312,-277.1527 73.9343,-263.8855 75.399,-252 81.1657,-205.2034 84.9432,-150.4719 86.8712,-118.1054"/>
<polygon fill="#000000" stroke="#000000" points="90.3706,-118.2156 87.4543,-108.03 83.3823,-117.8111 90.3706,-118.2156"/>
<g id="a_edge1&#45;headlabel"><a xlink:href="dir_000338_000000.xhtml" target="_top" xlink:title="305">
<text text-anchor="middle" x="92.9975" y="-119.4682" font-family="Helvetica,sans-Serif" font-size="10.00" fill="#000000">305</text>
</a>
</g>
</g>
<!-- dir_5b62457c421f35a7985b907e5f6c4045 -->
<g id="node4" class="node">
<title>dir_5b62457c421f35a7985b907e5f6c4045</title>
<g id="a_node4"><a xlink:href="dir_5b62457c421f35a7985b907e5f6c4045.xhtml" target="_top" xlink:title="cpu">
<polygon fill="#ffffff" stroke="#ff0000" points="66.399,-252 12.399,-252 12.399,-216 66.399,-216 66.399,-252"/>
<text text-anchor="middle" x="39.399" y="-231.5" font-family="Helvetica,sans-Serif" font-size="10.00" fill="#000000">cpu</text>
</a>
</g>
</g>
<!-- dir_4d03f28cfd35f8f734a3b0a2f1168d27&#45;&gt;dir_5b62457c421f35a7985b907e5f6c4045 -->
<g id="edge2" class="edge">
<title>dir_4d03f28cfd35f8f734a3b0a2f1168d27&#45;&gt;dir_5b62457c421f35a7985b907e5f6c4045</title>
<path fill="none" stroke="#000000" d="M59.5857,-287.8314C56.6346,-279.9617 53.1132,-270.5712 49.844,-261.8533"/>
<polygon fill="#000000" stroke="#000000" points="53.0924,-260.5476 46.304,-252.4133 46.5381,-263.0055 53.0924,-260.5476"/>
<g id="a_edge2&#45;headlabel"><a xlink:href="dir_000338_000332.xhtml" target="_top" xlink:title="37">
<text text-anchor="middle" x="57.013" y="-260.4164" font-family="Helvetica,sans-Serif" font-size="10.00" fill="#000000">37</text>
</a>
</g>
</g>
<!-- dir_aebb8dcc11953d78e620bbef0b9e2183 -->
<g id="node5" class="node">
<title>dir_aebb8dcc11953d78e620bbef0b9e2183</title>
<g id="a_node5"><a xlink:href="dir_aebb8dcc11953d78e620bbef0b9e2183.xhtml" target="_top" xlink:title="core">
<polygon fill="#ffffff" stroke="#ff0000" points="176.399,-180 122.399,-180 122.399,-144 176.399,-144 176.399,-180"/>
<text text-anchor="middle" x="149.399" y="-159.5" font-family="Helvetica,sans-Serif" font-size="10.00" fill="#000000">core</text>
</a>
</g>
</g>
<!-- dir_4d03f28cfd35f8f734a3b0a2f1168d27&#45;&gt;dir_aebb8dcc11953d78e620bbef0b9e2183 -->
<g id="edge3" class="edge">
<title>dir_4d03f28cfd35f8f734a3b0a2f1168d27&#45;&gt;dir_aebb8dcc11953d78e620bbef0b9e2183</title>
<path fill="none" stroke="#000000" d="M82.3009,-287.7841C90.6812,-277.6625 100.7735,-264.5994 108.399,-252 120.4758,-232.0457 131.2805,-207.9265 138.7625,-189.6811"/>
<polygon fill="#000000" stroke="#000000" points="142.0861,-190.7969 142.5644,-180.2129 135.5902,-188.1885 142.0861,-190.7969"/>
<g id="a_edge3&#45;headlabel"><a xlink:href="dir_000338_000004.xhtml" target="_top" xlink:title="80">
<text text-anchor="middle" x="143.3815" y="-192.6906" font-family="Helvetica,sans-Serif" font-size="10.00" fill="#000000">80</text>
</a>
</g>
</g>
<!-- dir_5815af820a9cc9481f1d0990a0d60286 -->
<g id="node6" class="node">
<title>dir_5815af820a9cc9481f1d0990a0d60286</title>
<g id="a_node6"><a xlink:href="dir_5815af820a9cc9481f1d0990a0d60286.xhtml" target="_top" xlink:title="support">
<polygon fill="none" stroke="#000000" points="115.399,-36 61.399,-36 61.399,0 115.399,0 115.399,-36"/>
<text text-anchor="middle" x="88.399" y="-15.5" font-family="Helvetica,sans-Serif" font-size="10.00" fill="#000000">support</text>
</a>
</g>
</g>
<!-- dir_4d03f28cfd35f8f734a3b0a2f1168d27&#45;&gt;dir_5815af820a9cc9481f1d0990a0d60286 -->
<g id="edge4" class="edge">
<title>dir_4d03f28cfd35f8f734a3b0a2f1168d27&#45;&gt;dir_5815af820a9cc9481f1d0990a0d60286</title>
<path fill="none" stroke="#000000" d="M35.4229,-287.8776C23.0421,-278.8263 10.1408,-266.6581 3.399,-252 -3.2867,-237.4638 2.1873,-231.9541 3.399,-216 8.302,-151.4433 -6.0309,-128.6018 25.399,-72 32.142,-59.8565 42.743,-49.2 53.3391,-40.633"/>
<polygon fill="#000000" stroke="#000000" points="55.5507,-43.3481 61.3771,-34.4992 51.3041,-37.7833 55.5507,-43.3481"/>
<g id="a_edge4&#45;headlabel"><a xlink:href="dir_000338_000027.xhtml" target="_top" xlink:title="1">
<text text-anchor="middle" x="54.4155" y="-45.2859" font-family="Helvetica,sans-Serif" font-size="10.00" fill="#000000">1</text>
</a>
</g>
</g>
<!-- dir_214608ef36d61442cb2b0c1c4e9a7def&#45;&gt;dir_5815af820a9cc9481f1d0990a0d60286 -->
<g id="edge5" class="edge">
<title>dir_214608ef36d61442cb2b0c1c4e9a7def&#45;&gt;dir_5815af820a9cc9481f1d0990a0d60286</title>
<path fill="none" stroke="#000000" d="M82.4466,-71.8314C81.6962,-64.131 81.4753,-54.9743 81.7839,-46.4166"/>
<polygon fill="#000000" stroke="#000000" points="85.2782,-46.6161 82.423,-36.4133 78.2924,-46.1697 85.2782,-46.6161"/>
<g id="a_edge5&#45;headlabel"><a xlink:href="dir_000000_000027.xhtml" target="_top" xlink:title="18">
<text text-anchor="middle" x="87.8826" y="-47.8844" font-family="Helvetica,sans-Serif" font-size="10.00" fill="#000000">18</text>
</a>
</g>
</g>
<!-- dir_5b62457c421f35a7985b907e5f6c4045&#45;&gt;dir_214608ef36d61442cb2b0c1c4e9a7def -->
<g id="edge6" class="edge">
<title>dir_5b62457c421f35a7985b907e5f6c4045&#45;&gt;dir_214608ef36d61442cb2b0c1c4e9a7def</title>
<path fill="none" stroke="#000000" d="M45.6049,-215.7623C54.0362,-190.9846 69.183,-146.4714 79.0094,-117.5939"/>
<polygon fill="#000000" stroke="#000000" points="82.3355,-118.6841 82.2435,-108.0896 75.7086,-116.429 82.3355,-118.6841"/>
<g id="a_edge6&#45;headlabel"><a xlink:href="dir_000332_000000.xhtml" target="_top" xlink:title="114">
<text text-anchor="middle" x="83.8655" y="-120.5017" font-family="Helvetica,sans-Serif" font-size="10.00" fill="#000000">114</text>
</a>
</g>
</g>
<!-- dir_5b62457c421f35a7985b907e5f6c4045&#45;&gt;dir_aebb8dcc11953d78e620bbef0b9e2183 -->
<g id="edge7" class="edge">
<title>dir_5b62457c421f35a7985b907e5f6c4045&#45;&gt;dir_aebb8dcc11953d78e620bbef0b9e2183</title>
<path fill="none" stroke="#000000" d="M66.59,-216.2022C80.7368,-206.9425 98.2147,-195.5025 113.462,-185.5224"/>
<polygon fill="#000000" stroke="#000000" points="115.6893,-188.2476 122.1395,-179.8425 111.8557,-182.3907 115.6893,-188.2476"/>
<g id="a_edge7&#45;headlabel"><a xlink:href="dir_000332_000004.xhtml" target="_top" xlink:title="91">
<text text-anchor="middle" x="114.2367" y="-190.0918" font-family="Helvetica,sans-Serif" font-size="10.00" fill="#000000">91</text>
</a>
</g>
</g>
<!-- dir_5b62457c421f35a7985b907e5f6c4045&#45;&gt;dir_5815af820a9cc9481f1d0990a0d60286 -->
<g id="edge8" class="edge">
<title>dir_5b62457c421f35a7985b907e5f6c4045&#45;&gt;dir_5815af820a9cc9481f1d0990a0d60286</title>
<path fill="none" stroke="#000000" d="M34.8063,-215.6899C27.991,-184.7882 17.9667,-120.8765 37.399,-72 41.6666,-61.2659 49.1921,-51.4321 57.1729,-43.1828"/>
<polygon fill="#000000" stroke="#000000" points="59.7791,-45.5319 64.5499,-36.072 54.9211,-40.4921 59.7791,-45.5319"/>
<g id="a_edge8&#45;headlabel"><a xlink:href="dir_000332_000027.xhtml" target="_top" xlink:title="4">
<text text-anchor="middle" x="59.1616" y="-47.5708" font-family="Helvetica,sans-Serif" font-size="10.00" fill="#000000">4</text>
</a>
</g>
</g>
<!-- dir_aebb8dcc11953d78e620bbef0b9e2183&#45;&gt;dir_214608ef36d61442cb2b0c1c4e9a7def -->
<g id="edge9" class="edge">
<title>dir_aebb8dcc11953d78e620bbef0b9e2183&#45;&gt;dir_214608ef36d61442cb2b0c1c4e9a7def</title>
<path fill="none" stroke="#000000" d="M134.0061,-143.8314C126.9086,-135.454 118.3509,-125.3531 110.575,-116.1749"/>
<polygon fill="#000000" stroke="#000000" points="113.1338,-113.7807 103.9991,-108.4133 107.7929,-118.3056 113.1338,-113.7807"/>
<g id="a_edge9&#45;headlabel"><a xlink:href="dir_000004_000000.xhtml" target="_top" xlink:title="1334">
<text text-anchor="middle" x="117.6237" y="-112.1879" font-family="Helvetica,sans-Serif" font-size="10.00" fill="#000000">1334</text>
</a>
</g>
</g>
<!-- dir_aebb8dcc11953d78e620bbef0b9e2183&#45;&gt;dir_5815af820a9cc9481f1d0990a0d60286 -->
<g id="edge10" class="edge">
<title>dir_aebb8dcc11953d78e620bbef0b9e2183&#45;&gt;dir_5815af820a9cc9481f1d0990a0d60286</title>
<path fill="none" stroke="#000000" d="M150.6737,-143.8555C151.264,-125.0119 150.1026,-95.1099 139.399,-72 134.5028,-61.4288 126.7107,-51.5936 118.6765,-43.2914"/>
<polygon fill="#000000" stroke="#000000" points="120.9144,-40.5856 111.3062,-36.1209 116.0331,-45.6028 120.9144,-40.5856"/>
<g id="a_edge10&#45;headlabel"><a xlink:href="dir_000004_000027.xhtml" target="_top" xlink:title="156">
<text text-anchor="middle" x="125.4708" y="-38.5571" font-family="Helvetica,sans-Serif" font-size="10.00" fill="#000000">156</text>
</a>
</g>
</g>
<!-- dir_5815af820a9cc9481f1d0990a0d60286&#45;&gt;dir_214608ef36d61442cb2b0c1c4e9a7def -->
<g id="edge11" class="edge">
<title>dir_5815af820a9cc9481f1d0990a0d60286&#45;&gt;dir_214608ef36d61442cb2b0c1c4e9a7def</title>
<path fill="none" stroke="#000000" d="M94.375,-36.4133C95.1061,-44.0593 95.3193,-53.1084 95.0145,-61.5726"/>
<polygon fill="#000000" stroke="#000000" points="91.5038,-61.6264 94.3514,-71.8314 98.4892,-62.078 91.5038,-61.6264"/>
<g id="a_edge11&#45;headlabel"><a xlink:href="dir_000027_000000.xhtml" target="_top" xlink:title="6">
<text text-anchor="middle" x="88.9022" y="-55.3562" font-family="Helvetica,sans-Serif" font-size="10.00" fill="#000000">6</text>
</a>
</g>
</g>
</g>
</svg>
