<?xml version="1.0" encoding="UTF-8" standalone="no"?>
<!DOCTYPE svg PUBLIC "-//W3C//DTD SVG 1.1//EN"
 "http://www.w3.org/Graphics/SVG/1.1/DTD/svg11.dtd">
<!-- Generated by graphviz version 2.40.1 (20161225.0304)
 -->
<!-- Title: src/runtime/CPP/functions Pages: 1 -->
<svg width="109pt" height="223pt"
 viewBox="0.00 0.00 109.00 223.00" xmlns="http://www.w3.org/2000/svg" xmlns:xlink="http://www.w3.org/1999/xlink">
<g id="graph0" class="graph" transform="scale(1 1) rotate(0) translate(4 219)">
<title>src/runtime/CPP/functions</title>
<polygon fill="#ffffff" stroke="transparent" points="-4,4 -4,-219 105,-219 105,4 -4,4"/>
<g id="clust1" class="cluster">
<title>clusterdir_9240672d44dfdb0f539b385a1f058d2d</title>
<g id="a_clust1"><a xlink:href="dir_9240672d44dfdb0f539b385a1f058d2d.xhtml" target="_top" xlink:title="CPP">
<polygon fill="#ddddee" stroke="#000000" points="8,-136 8,-207 86,-207 86,-136 8,-136"/>
<text text-anchor="middle" x="47" y="-195" font-family="Helvetica,sans-Serif" font-size="10.00" fill="#000000">CPP</text>
</a>
</g>
</g>
<!-- dir_8f7fe1d9d655d949f37b90c9cd0a7992 -->
<g id="node1" class="node">
<title>dir_8f7fe1d9d655d949f37b90c9cd0a7992</title>
<g id="a_node1"><a xlink:href="dir_8f7fe1d9d655d949f37b90c9cd0a7992.xhtml" target="_top" xlink:title="functions">
<polygon fill="#eeeeff" stroke="#000000" points="78,-180 16,-180 16,-144 78,-144 78,-180"/>
<text text-anchor="middle" x="47" y="-159.5" font-family="Helvetica,sans-Serif" font-size="10.00" fill="#000000">functions</text>
</a>
</g>
</g>
<!-- dir_214608ef36d61442cb2b0c1c4e9a7def -->
<g id="node2" class="node">
<title>dir_214608ef36d61442cb2b0c1c4e9a7def</title>
<g id="a_node2"><a xlink:href="dir_214608ef36d61442cb2b0c1c4e9a7def.xhtml" target="_top" xlink:title="arm_compute">
<polygon fill="#ffffff" stroke="#ff0000" points="88,-36 4,-36 4,0 88,0 88,-36"/>
<text text-anchor="middle" x="46" y="-15.5" font-family="Helvetica,sans-Serif" font-size="10.00" fill="#000000">arm_compute</text>
</a>
</g>
</g>
<!-- dir_8f7fe1d9d655d949f37b90c9cd0a7992&#45;&gt;dir_214608ef36d61442cb2b0c1c4e9a7def -->
<g id="edge1" class="edge">
<title>dir_8f7fe1d9d655d949f37b90c9cd0a7992&#45;&gt;dir_214608ef36d61442cb2b0c1c4e9a7def</title>
<path fill="none" stroke="#000000" d="M43.1587,-143.6001C41.1834,-133.2025 38.9877,-119.9346 38,-108 36.6803,-92.0545 36.8244,-87.9568 38,-72 38.6169,-63.6264 39.7649,-54.5812 41.0026,-46.3322"/>
<polygon fill="#000000" stroke="#000000" points="44.4648,-46.8463 42.585,-36.4196 37.5523,-45.7428 44.4648,-46.8463"/>
<g id="a_edge1&#45;headlabel"><a xlink:href="dir_000331_000000.xhtml" target="_top" xlink:title="19">
<text text-anchor="middle" x="46.702" y="-48.3436" font-family="Helvetica,sans-Serif" font-size="10.00" fill="#000000">19</text>
</a>
</g>
</g>
<!-- dir_aebb8dcc11953d78e620bbef0b9e2183 -->
<g id="node3" class="node">
<title>dir_aebb8dcc11953d78e620bbef0b9e2183</title>
<g id="a_node3"><a xlink:href="dir_aebb8dcc11953d78e620bbef0b9e2183.xhtml" target="_top" xlink:title="core">
<polygon fill="#ffffff" stroke="#ff0000" points="101,-108 47,-108 47,-72 101,-72 101,-108"/>
<text text-anchor="middle" x="74" y="-87.5" font-family="Helvetica,sans-Serif" font-size="10.00" fill="#000000">core</text>
</a>
</g>
</g>
<!-- dir_8f7fe1d9d655d949f37b90c9cd0a7992&#45;&gt;dir_aebb8dcc11953d78e620bbef0b9e2183 -->
<g id="edge2" class="edge">
<title>dir_8f7fe1d9d655d949f37b90c9cd0a7992&#45;&gt;dir_aebb8dcc11953d78e620bbef0b9e2183</title>
<path fill="none" stroke="#000000" d="M53.8132,-143.8314C56.7644,-135.9617 60.2858,-126.5712 63.555,-117.8533"/>
<polygon fill="#000000" stroke="#000000" points="66.8609,-119.0055 67.095,-108.4133 60.3066,-116.5476 66.8609,-119.0055"/>
<g id="a_edge2&#45;headlabel"><a xlink:href="dir_000331_000004.xhtml" target="_top" xlink:title="2">
<text text-anchor="middle" x="68.2573" y="-120.8682" font-family="Helvetica,sans-Serif" font-size="10.00" fill="#000000">2</text>
</a>
</g>
</g>
<!-- dir_aebb8dcc11953d78e620bbef0b9e2183&#45;&gt;dir_214608ef36d61442cb2b0c1c4e9a7def -->
<g id="edge3" class="edge">
<title>dir_aebb8dcc11953d78e620bbef0b9e2183&#45;&gt;dir_214608ef36d61442cb2b0c1c4e9a7def</title>
<path fill="none" stroke="#000000" d="M66.9344,-71.8314C63.874,-63.9617 60.2221,-54.5712 56.8318,-45.8533"/>
<polygon fill="#000000" stroke="#000000" points="60.0473,-44.4647 53.1607,-36.4133 53.5232,-47.0019 60.0473,-44.4647"/>
<g id="a_edge3&#45;headlabel"><a xlink:href="dir_000004_000000.xhtml" target="_top" xlink:title="1334">
<text text-anchor="middle" x="63.9963" y="-44.2859" font-family="Helvetica,sans-Serif" font-size="10.00" fill="#000000">1334</text>
</a>
</g>
</g>
</g>
</svg>
