<?xml version="1.0" encoding="UTF-8" standalone="no"?>
<!DOCTYPE svg PUBLIC "-//W3C//DTD SVG 1.1//EN"
 "http://www.w3.org/Graphics/SVG/1.1/DTD/svg11.dtd">
<!-- Generated by graphviz version 2.40.1 (20161225.0304)
 -->
<!-- Title: src/core Pages: 1 -->
<svg width="694pt" height="663pt"
 viewBox="0.00 0.00 694.00 663.00" xmlns="http://www.w3.org/2000/svg" xmlns:xlink="http://www.w3.org/1999/xlink">
<g id="graph0" class="graph" transform="scale(1 1) rotate(0) translate(4 659)">
<title>src/core</title>
<polygon fill="#ffffff" stroke="transparent" points="-4,4 -4,-659 690,-659 690,4 -4,4"/>
<g id="clust1" class="cluster">
<title>clusterdir_68267d1309a1af8e8297ef4c3efbcdba</title>
<g id="a_clust1"><a xlink:href="dir_68267d1309a1af8e8297ef4c3efbcdba.xhtml" target="_top" xlink:title="src">
<polygon fill="#ddddee" stroke="#000000" points="202,-128 202,-647 446,-647 446,-128 202,-128"/>
<text text-anchor="middle" x="324" y="-635" font-family="Helvetica,sans-Serif" font-size="10.00" fill="#000000">src</text>
</a>
</g>
</g>
<g id="clust2" class="cluster">
<title>clusterdir_aebb8dcc11953d78e620bbef0b9e2183</title>
<g id="a_clust2"><a xlink:href="dir_aebb8dcc11953d78e620bbef0b9e2183.xhtml" target="_top">
<polygon fill="#eeeeff" stroke="#000000" points="210,-136 210,-620 438,-620 438,-136 210,-136"/>
</a>
</g>
</g>
<!-- dir_aebb8dcc11953d78e620bbef0b9e2183 -->
<g id="node1" class="node">
<title>dir_aebb8dcc11953d78e620bbef0b9e2183</title>
<text text-anchor="middle" x="403" y="-591.5" font-family="Helvetica,sans-Serif" font-size="10.00" fill="#000000">core</text>
</g>
<!-- dir_8c278f79c760e5c5fbd911f9870614c1 -->
<g id="node2" class="node">
<title>dir_8c278f79c760e5c5fbd911f9870614c1</title>
<g id="a_node2"><a xlink:href="dir_8c278f79c760e5c5fbd911f9870614c1.xhtml" target="_top" xlink:title="CL">
<polygon fill="#ffffff" stroke="#ff0000" points="358,-612 304,-612 304,-576 358,-576 358,-612"/>
<text text-anchor="middle" x="331" y="-591.5" font-family="Helvetica,sans-Serif" font-size="10.00" fill="#000000">CL</text>
</a>
</g>
</g>
<!-- dir_3cecbd269a398d444969e15576a173f0 -->
<g id="node6" class="node">
<title>dir_3cecbd269a398d444969e15576a173f0</title>
<g id="a_node6"><a xlink:href="dir_3cecbd269a398d444969e15576a173f0.xhtml" target="_top" xlink:title="gpu">
<polygon fill="#ffffff" stroke="#ff0000" points="358,-540 304,-540 304,-504 358,-504 358,-540"/>
<text text-anchor="middle" x="331" y="-519.5" font-family="Helvetica,sans-Serif" font-size="10.00" fill="#000000">gpu</text>
</a>
</g>
</g>
<!-- dir_8c278f79c760e5c5fbd911f9870614c1&#45;&gt;dir_3cecbd269a398d444969e15576a173f0 -->
<g id="edge3" class="edge">
<title>dir_8c278f79c760e5c5fbd911f9870614c1&#45;&gt;dir_3cecbd269a398d444969e15576a173f0</title>
<path fill="none" stroke="#000000" d="M325.0476,-575.8314C324.2972,-568.131 324.0763,-558.9743 324.3849,-550.4166"/>
<polygon fill="#000000" stroke="#000000" points="327.8792,-550.6161 325.024,-540.4133 320.8935,-550.1697 327.8792,-550.6161"/>
<g id="a_edge3&#45;headlabel"><a xlink:href="dir_000018_000005.xhtml" target="_top" xlink:title="4">
<text text-anchor="middle" x="330.4836" y="-551.8844" font-family="Helvetica,sans-Serif" font-size="10.00" fill="#000000">4</text>
</a>
</g>
</g>
<!-- dir_707aa52d67938117542c6646238d6f70 -->
<g id="node7" class="node">
<title>dir_707aa52d67938117542c6646238d6f70</title>
<g id="a_node7"><a xlink:href="dir_707aa52d67938117542c6646238d6f70.xhtml" target="_top" xlink:title="helpers">
<polygon fill="#ffffff" stroke="#000000" points="404,-180 350,-180 350,-144 404,-144 404,-180"/>
<text text-anchor="middle" x="377" y="-159.5" font-family="Helvetica,sans-Serif" font-size="10.00" fill="#000000">helpers</text>
</a>
</g>
</g>
<!-- dir_8c278f79c760e5c5fbd911f9870614c1&#45;&gt;dir_707aa52d67938117542c6646238d6f70 -->
<g id="edge1" class="edge">
<title>dir_8c278f79c760e5c5fbd911f9870614c1&#45;&gt;dir_707aa52d67938117542c6646238d6f70</title>
<path fill="none" stroke="#000000" d="M354.2246,-575.7681C383.2046,-550.78 429,-502.9204 429,-450 429,-450 429,-450 429,-306 429,-264.8223 422.0217,-254.34 407,-216 403.4373,-206.9069 398.6132,-197.4502 393.876,-189.0391"/>
<polygon fill="#000000" stroke="#000000" points="396.8935,-187.2657 388.8334,-180.3892 390.8461,-190.7911 396.8935,-187.2657"/>
<g id="a_edge1&#45;headlabel"><a xlink:href="dir_000018_000029.xhtml" target="_top" xlink:title="83">
<text text-anchor="middle" x="401.1567" y="-186.4412" font-family="Helvetica,sans-Serif" font-size="10.00" fill="#000000">83</text>
</a>
</g>
</g>
<!-- dir_a8053b3d69cfefb2b2e6ec7bf9dd5c1a -->
<g id="node9" class="node">
<title>dir_a8053b3d69cfefb2b2e6ec7bf9dd5c1a</title>
<g id="a_node9"><a xlink:href="dir_a8053b3d69cfefb2b2e6ec7bf9dd5c1a.xhtml" target="_top" xlink:title="utils">
<polygon fill="#ffffff" stroke="#ff0000" points="352,-468 298,-468 298,-432 352,-432 352,-468"/>
<text text-anchor="middle" x="325" y="-447.5" font-family="Helvetica,sans-Serif" font-size="10.00" fill="#000000">utils</text>
</a>
</g>
</g>
<!-- dir_8c278f79c760e5c5fbd911f9870614c1&#45;&gt;dir_a8053b3d69cfefb2b2e6ec7bf9dd5c1a -->
<g id="edge4" class="edge">
<title>dir_8c278f79c760e5c5fbd911f9870614c1&#45;&gt;dir_a8053b3d69cfefb2b2e6ec7bf9dd5c1a</title>
<path fill="none" stroke="#000000" d="M315.0095,-575.9169C307.3462,-566.0371 298.9834,-553.1563 295,-540 290.3635,-524.6865 290.9865,-519.4885 295,-504 297.3846,-494.7976 301.7146,-485.4938 306.3568,-477.2621"/>
<polygon fill="#000000" stroke="#000000" points="309.4813,-478.8582 311.6438,-468.4863 303.4854,-475.2459 309.4813,-478.8582"/>
<g id="a_edge4&#45;headlabel"><a xlink:href="dir_000018_000119.xhtml" target="_top" xlink:title="1">
<text text-anchor="middle" x="310.0585" y="-480.9023" font-family="Helvetica,sans-Serif" font-size="10.00" fill="#000000">1</text>
</a>
</g>
</g>
<!-- dir_214608ef36d61442cb2b0c1c4e9a7def -->
<g id="node10" class="node">
<title>dir_214608ef36d61442cb2b0c1c4e9a7def</title>
<g id="a_node10"><a xlink:href="dir_214608ef36d61442cb2b0c1c4e9a7def.xhtml" target="_top" xlink:title="arm_compute">
<polygon fill="#ffffff" stroke="#ff0000" points="460,-108 376,-108 376,-72 460,-72 460,-108"/>
<text text-anchor="middle" x="418" y="-87.5" font-family="Helvetica,sans-Serif" font-size="10.00" fill="#000000">arm_compute</text>
</a>
</g>
</g>
<!-- dir_8c278f79c760e5c5fbd911f9870614c1&#45;&gt;dir_214608ef36d61442cb2b0c1c4e9a7def -->
<g id="edge2" class="edge">
<title>dir_8c278f79c760e5c5fbd911f9870614c1&#45;&gt;dir_214608ef36d61442cb2b0c1c4e9a7def</title>
<path fill="none" stroke="#000000" d="M358.067,-580.3137C361.0722,-578.8397 364.0954,-577.3766 367,-576 490.6817,-517.3821 648,-586.8694 648,-450 648,-450 648,-450 648,-234 648,-178.267 626.422,-160.2958 581,-128 563.3165,-115.4268 510.7922,-104.591 470.0956,-97.7444"/>
<polygon fill="#000000" stroke="#000000" points="470.4675,-94.2587 460.0323,-96.0911 469.3326,-101.1661 470.4675,-94.2587"/>
<g id="a_edge2&#45;headlabel"><a xlink:href="dir_000018_000000.xhtml" target="_top" xlink:title="285">
<text text-anchor="middle" x="474.4748" y="-89.5396" font-family="Helvetica,sans-Serif" font-size="10.00" fill="#000000">285</text>
</a>
</g>
</g>
<!-- dir_5815af820a9cc9481f1d0990a0d60286 -->
<g id="node11" class="node">
<title>dir_5815af820a9cc9481f1d0990a0d60286</title>
<g id="a_node11"><a xlink:href="dir_5815af820a9cc9481f1d0990a0d60286.xhtml" target="_top" xlink:title="support">
<polygon fill="none" stroke="#000000" points="352,-36 298,-36 298,0 352,0 352,-36"/>
<text text-anchor="middle" x="325" y="-15.5" font-family="Helvetica,sans-Serif" font-size="10.00" fill="#000000">support</text>
</a>
</g>
</g>
<!-- dir_8c278f79c760e5c5fbd911f9870614c1&#45;&gt;dir_5815af820a9cc9481f1d0990a0d60286 -->
<g id="edge5" class="edge">
<title>dir_8c278f79c760e5c5fbd911f9870614c1&#45;&gt;dir_5815af820a9cc9481f1d0990a0d60286</title>
<path fill="none" stroke="#000000" d="M358.1383,-579.3019C361.0767,-578.0528 364.0658,-576.9184 367,-576 474.1323,-542.4686 520.136,-596.7367 617,-540 660.4913,-514.5256 686,-500.4028 686,-450 686,-450 686,-450 686,-162 686,-92.805 454.2923,-42.0555 362.1446,-24.6089"/>
<polygon fill="#000000" stroke="#000000" points="362.606,-21.1347 352.1337,-22.741 361.322,-28.0159 362.606,-21.1347"/>
<g id="a_edge5&#45;headlabel"><a xlink:href="dir_000018_000027.xhtml" target="_top" xlink:title="43">
<text text-anchor="middle" x="366.6604" y="-16.5028" font-family="Helvetica,sans-Serif" font-size="10.00" fill="#000000">43</text>
</a>
</g>
</g>
<!-- dir_34b4cee2b5900b653deb3438fc906cf4 -->
<g id="node3" class="node">
<title>dir_34b4cee2b5900b653deb3438fc906cf4</title>
<g id="a_node3"><a xlink:href="dir_34b4cee2b5900b653deb3438fc906cf4.xhtml" target="_top" xlink:title="common">
<polygon fill="#ffffff" stroke="#000000" points="389.5,-252 330.5,-252 330.5,-216 389.5,-216 389.5,-252"/>
<text text-anchor="middle" x="360" y="-231.5" font-family="Helvetica,sans-Serif" font-size="10.00" fill="#000000">common</text>
</a>
</g>
</g>
<!-- dir_1d7cadfed01c895b25460177608d44e9 -->
<g id="node4" class="node">
<title>dir_1d7cadfed01c895b25460177608d44e9</title>
<g id="a_node4"><a xlink:href="dir_1d7cadfed01c895b25460177608d44e9.xhtml" target="_top" xlink:title="CPP">
<polygon fill="#ffffff" stroke="#ff0000" points="272,-252 218,-252 218,-216 272,-216 272,-252"/>
<text text-anchor="middle" x="245" y="-231.5" font-family="Helvetica,sans-Serif" font-size="10.00" fill="#000000">CPP</text>
</a>
</g>
</g>
<!-- dir_1d7cadfed01c895b25460177608d44e9&#45;&gt;dir_707aa52d67938117542c6646238d6f70 -->
<g id="edge35" class="edge">
<title>dir_1d7cadfed01c895b25460177608d44e9&#45;&gt;dir_707aa52d67938117542c6646238d6f70</title>
<path fill="none" stroke="#000000" d="M272.0307,-219.256C291.8301,-208.4563 318.9193,-193.6804 340.6189,-181.8442"/>
<polygon fill="#000000" stroke="#000000" points="342.4489,-184.8329 349.5518,-176.9717 339.0969,-178.6877 342.4489,-184.8329"/>
<g id="a_edge35&#45;headlabel"><a xlink:href="dir_000044_000029.xhtml" target="_top" xlink:title="8">
<text text-anchor="middle" x="340.6528" y="-186.5468" font-family="Helvetica,sans-Serif" font-size="10.00" fill="#000000">8</text>
</a>
</g>
</g>
<!-- dir_1d7cadfed01c895b25460177608d44e9&#45;&gt;dir_214608ef36d61442cb2b0c1c4e9a7def -->
<g id="edge36" class="edge">
<title>dir_1d7cadfed01c895b25460177608d44e9&#45;&gt;dir_214608ef36d61442cb2b0c1c4e9a7def</title>
<path fill="none" stroke="#000000" d="M257.9197,-215.959C274.9297,-193.1895 306.7191,-153.8798 341,-128 348.9417,-122.0046 357.9768,-116.5522 366.9953,-111.7672"/>
<polygon fill="#000000" stroke="#000000" points="368.6369,-114.8591 375.9672,-107.2094 365.4664,-108.6183 368.6369,-114.8591"/>
<g id="a_edge36&#45;headlabel"><a xlink:href="dir_000044_000000.xhtml" target="_top" xlink:title="18">
<text text-anchor="middle" x="366.7181" y="-116.5185" font-family="Helvetica,sans-Serif" font-size="10.00" fill="#000000">18</text>
</a>
</g>
</g>
<!-- dir_fdedb0aba14d44ce9d99bc100e026e6a -->
<g id="node12" class="node">
<title>dir_fdedb0aba14d44ce9d99bc100e026e6a</title>
<g id="a_node12"><a xlink:href="dir_fdedb0aba14d44ce9d99bc100e026e6a.xhtml" target="_top" xlink:title="common">
<polygon fill="#ffffff" stroke="#ff0000" points="163.5,-180 104.5,-180 104.5,-144 163.5,-144 163.5,-180"/>
<text text-anchor="middle" x="134" y="-159.5" font-family="Helvetica,sans-Serif" font-size="10.00" fill="#000000">common</text>
</a>
</g>
</g>
<!-- dir_1d7cadfed01c895b25460177608d44e9&#45;&gt;dir_fdedb0aba14d44ce9d99bc100e026e6a -->
<g id="edge37" class="edge">
<title>dir_1d7cadfed01c895b25460177608d44e9&#45;&gt;dir_fdedb0aba14d44ce9d99bc100e026e6a</title>
<path fill="none" stroke="#000000" d="M217.8463,-216.3868C203.6821,-207.1992 186.1507,-195.8275 170.7864,-185.8615"/>
<polygon fill="#000000" stroke="#000000" points="172.3267,-182.6888 162.0324,-180.1832 168.5173,-188.5615 172.3267,-182.6888"/>
<g id="a_edge37&#45;headlabel"><a xlink:href="dir_000044_000017.xhtml" target="_top" xlink:title="1">
<text text-anchor="middle" x="176.8875" y="-179.7628" font-family="Helvetica,sans-Serif" font-size="10.00" fill="#000000">1</text>
</a>
</g>
</g>
<!-- dir_74739ff5fdb79cbfe4bc8a8496df703a -->
<g id="node5" class="node">
<title>dir_74739ff5fdb79cbfe4bc8a8496df703a</title>
<g id="a_node5"><a xlink:href="dir_74739ff5fdb79cbfe4bc8a8496df703a.xhtml" target="_top" xlink:title="cpu">
<polygon fill="#ffffff" stroke="#ff0000" points="352,-396 298,-396 298,-360 352,-360 352,-396"/>
<text text-anchor="middle" x="325" y="-375.5" font-family="Helvetica,sans-Serif" font-size="10.00" fill="#000000">cpu</text>
</a>
</g>
</g>
<!-- dir_74739ff5fdb79cbfe4bc8a8496df703a&#45;&gt;dir_34b4cee2b5900b653deb3438fc906cf4 -->
<g id="edge7" class="edge">
<title>dir_74739ff5fdb79cbfe4bc8a8496df703a&#45;&gt;dir_34b4cee2b5900b653deb3438fc906cf4</title>
<path fill="none" stroke="#000000" d="M329.4328,-359.7623C335.4288,-335.0928 346.1799,-290.8598 353.201,-261.9731"/>
<polygon fill="#000000" stroke="#000000" points="356.6423,-262.6334 355.6032,-252.0896 349.8404,-260.9801 356.6423,-262.6334"/>
<g id="a_edge7&#45;headlabel"><a xlink:href="dir_000081_000039.xhtml" target="_top" xlink:title="53">
<text text-anchor="middle" x="358.5524" y="-264.2968" font-family="Helvetica,sans-Serif" font-size="10.00" fill="#000000">53</text>
</a>
</g>
</g>
<!-- dir_74739ff5fdb79cbfe4bc8a8496df703a&#45;&gt;dir_1d7cadfed01c895b25460177608d44e9 -->
<g id="edge12" class="edge">
<title>dir_74739ff5fdb79cbfe4bc8a8496df703a&#45;&gt;dir_1d7cadfed01c895b25460177608d44e9</title>
<path fill="none" stroke="#000000" d="M297.8767,-366.4665C280.6264,-357.5696 259.6064,-343.4736 249,-324 238.759,-305.1971 238.3268,-280.7681 240.1415,-262.1067"/>
<polygon fill="#000000" stroke="#000000" points="243.6203,-262.4925 241.3723,-252.1389 236.6731,-261.6346 243.6203,-262.4925"/>
<g id="a_edge12&#45;headlabel"><a xlink:href="dir_000081_000044.xhtml" target="_top" xlink:title="22">
<text text-anchor="middle" x="245.9978" y="-263.9079" font-family="Helvetica,sans-Serif" font-size="10.00" fill="#000000">22</text>
</a>
</g>
</g>
<!-- dir_74739ff5fdb79cbfe4bc8a8496df703a&#45;&gt;dir_707aa52d67938117542c6646238d6f70 -->
<g id="edge8" class="edge">
<title>dir_74739ff5fdb79cbfe4bc8a8496df703a&#45;&gt;dir_707aa52d67938117542c6646238d6f70</title>
<path fill="none" stroke="#000000" d="M324.2773,-359.9878C322.6914,-319.1475 319.2586,-222.5334 322,-216 326.6052,-205.0247 334.6497,-195.1573 343.1877,-186.9529"/>
<polygon fill="#000000" stroke="#000000" points="345.6301,-189.464 350.7437,-180.1849 340.9597,-184.2497 345.6301,-189.464"/>
<g id="a_edge8&#45;headlabel"><a xlink:href="dir_000081_000029.xhtml" target="_top" xlink:title="106">
<text text-anchor="middle" x="344.8469" y="-191.4771" font-family="Helvetica,sans-Serif" font-size="10.00" fill="#000000">106</text>
</a>
</g>
</g>
<!-- dir_d91e1966cc57df4f49d1e07be7697713 -->
<g id="node8" class="node">
<title>dir_d91e1966cc57df4f49d1e07be7697713</title>
<g id="a_node8"><a xlink:href="dir_d91e1966cc57df4f49d1e07be7697713.xhtml" target="_top" xlink:title="NEON">
<polygon fill="#ffffff" stroke="#ff0000" points="312,-324 258,-324 258,-288 312,-288 312,-324"/>
<text text-anchor="middle" x="285" y="-303.5" font-family="Helvetica,sans-Serif" font-size="10.00" fill="#000000">NEON</text>
</a>
</g>
</g>
<!-- dir_74739ff5fdb79cbfe4bc8a8496df703a&#45;&gt;dir_d91e1966cc57df4f49d1e07be7697713 -->
<g id="edge10" class="edge">
<title>dir_74739ff5fdb79cbfe4bc8a8496df703a&#45;&gt;dir_d91e1966cc57df4f49d1e07be7697713</title>
<path fill="none" stroke="#000000" d="M308.9539,-359.8314C303.7597,-351.8771 298.2673,-342.369 293.7351,-333.5723"/>
<polygon fill="#000000" stroke="#000000" points="296.7926,-331.8574 289.2536,-324.4133 290.5049,-334.934 296.7926,-331.8574"/>
<g id="a_edge10&#45;headlabel"><a xlink:href="dir_000081_000024.xhtml" target="_top" xlink:title="91">
<text text-anchor="middle" x="300.9227" y="-331.3383" font-family="Helvetica,sans-Serif" font-size="10.00" fill="#000000">91</text>
</a>
</g>
</g>
<!-- dir_74739ff5fdb79cbfe4bc8a8496df703a&#45;&gt;dir_a8053b3d69cfefb2b2e6ec7bf9dd5c1a -->
<g id="edge11" class="edge">
<title>dir_74739ff5fdb79cbfe4bc8a8496df703a&#45;&gt;dir_a8053b3d69cfefb2b2e6ec7bf9dd5c1a</title>
<path fill="none" stroke="#000000" d="M330.976,-396.4133C331.7071,-404.0593 331.9203,-413.1084 331.6155,-421.5726"/>
<polygon fill="#000000" stroke="#000000" points="328.1048,-421.6264 330.9524,-431.8314 335.0902,-422.078 328.1048,-421.6264"/>
<g id="a_edge11&#45;headlabel"><a xlink:href="dir_000081_000119.xhtml" target="_top" xlink:title="6">
<text text-anchor="middle" x="325.5032" y="-415.3562" font-family="Helvetica,sans-Serif" font-size="10.00" fill="#000000">6</text>
</a>
</g>
</g>
<!-- dir_74739ff5fdb79cbfe4bc8a8496df703a&#45;&gt;dir_214608ef36d61442cb2b0c1c4e9a7def -->
<g id="edge9" class="edge">
<title>dir_74739ff5fdb79cbfe4bc8a8496df703a&#45;&gt;dir_214608ef36d61442cb2b0c1c4e9a7def</title>
<path fill="none" stroke="#000000" d="M343.3669,-359.6951C365.4424,-336.6164 402.005,-294.7631 422,-252 445.5365,-201.6628 451.3295,-181.9456 438,-128 437.107,-124.3858 435.8013,-120.7356 434.278,-117.2011"/>
<polygon fill="#000000" stroke="#000000" points="437.4181,-115.6552 429.8712,-108.2191 431.1337,-118.7385 437.4181,-115.6552"/>
<g id="a_edge9&#45;headlabel"><a xlink:href="dir_000081_000000.xhtml" target="_top" xlink:title="349">
<text text-anchor="middle" x="441.5504" y="-115.1317" font-family="Helvetica,sans-Serif" font-size="10.00" fill="#000000">349</text>
</a>
</g>
</g>
<!-- dir_74739ff5fdb79cbfe4bc8a8496df703a&#45;&gt;dir_5815af820a9cc9481f1d0990a0d60286 -->
<g id="edge13" class="edge">
<title>dir_74739ff5fdb79cbfe4bc8a8496df703a&#45;&gt;dir_5815af820a9cc9481f1d0990a0d60286</title>
<path fill="none" stroke="#000000" d="M352.3231,-372.6096C408.975,-359.6747 534,-321.2455 534,-234 534,-234 534,-234 534,-162 534,-79.5258 422.2757,-40.6745 362.1994,-25.7451"/>
<polygon fill="#000000" stroke="#000000" points="362.8622,-22.3051 352.3231,-23.3904 361.2387,-29.1142 362.8622,-22.3051"/>
<g id="a_edge13&#45;headlabel"><a xlink:href="dir_000081_000027.xhtml" target="_top" xlink:title="10">
<text text-anchor="middle" x="367.0173" y="-17.8768" font-family="Helvetica,sans-Serif" font-size="10.00" fill="#000000">10</text>
</a>
</g>
</g>
<!-- dir_74739ff5fdb79cbfe4bc8a8496df703a&#45;&gt;dir_fdedb0aba14d44ce9d99bc100e026e6a -->
<g id="edge14" class="edge">
<title>dir_74739ff5fdb79cbfe4bc8a8496df703a&#45;&gt;dir_fdedb0aba14d44ce9d99bc100e026e6a</title>
<path fill="none" stroke="#000000" d="M297.6856,-367.4626C257.0747,-350.1881 181.9255,-311.6819 148,-252 137.3523,-233.2685 134.073,-208.9801 133.3349,-190.3569"/>
<polygon fill="#000000" stroke="#000000" points="136.8305,-190.069 133.1574,-180.1313 129.8316,-190.1905 136.8305,-190.069"/>
<g id="a_edge14&#45;headlabel"><a xlink:href="dir_000081_000017.xhtml" target="_top" xlink:title="1">
<text text-anchor="middle" x="139.7317" y="-191.1138" font-family="Helvetica,sans-Serif" font-size="10.00" fill="#000000">1</text>
</a>
</g>
</g>
<!-- dir_3cecbd269a398d444969e15576a173f0&#45;&gt;dir_8c278f79c760e5c5fbd911f9870614c1 -->
<g id="edge25" class="edge">
<title>dir_3cecbd269a398d444969e15576a173f0&#45;&gt;dir_8c278f79c760e5c5fbd911f9870614c1</title>
<path fill="none" stroke="#000000" d="M336.976,-540.4133C337.7071,-548.0593 337.9203,-557.1084 337.6155,-565.5726"/>
<polygon fill="#000000" stroke="#000000" points="334.1048,-565.6264 336.9524,-575.8314 341.0902,-566.078 334.1048,-565.6264"/>
<g id="a_edge25&#45;headlabel"><a xlink:href="dir_000005_000018.xhtml" target="_top" xlink:title="38">
<text text-anchor="middle" x="331.5032" y="-559.3562" font-family="Helvetica,sans-Serif" font-size="10.00" fill="#000000">38</text>
</a>
</g>
</g>
<!-- dir_3cecbd269a398d444969e15576a173f0&#45;&gt;dir_34b4cee2b5900b653deb3438fc906cf4 -->
<g id="edge24" class="edge">
<title>dir_3cecbd269a398d444969e15576a173f0&#45;&gt;dir_34b4cee2b5900b653deb3438fc906cf4</title>
<path fill="none" stroke="#000000" d="M344.3562,-503.5137C350.7508,-493.5235 357.718,-480.6657 361,-468 379.6874,-395.8831 371.0891,-307.0135 364.7071,-262.3971"/>
<polygon fill="#000000" stroke="#000000" points="368.1367,-261.6669 363.1902,-252.2977 361.2144,-262.7066 368.1367,-261.6669"/>
<g id="a_edge24&#45;headlabel"><a xlink:href="dir_000005_000039.xhtml" target="_top" xlink:title="47">
<text text-anchor="middle" x="371.4783" y="-262.2999" font-family="Helvetica,sans-Serif" font-size="10.00" fill="#000000">47</text>
</a>
</g>
</g>
<!-- dir_3cecbd269a398d444969e15576a173f0&#45;&gt;dir_1d7cadfed01c895b25460177608d44e9 -->
<g id="edge29" class="edge">
<title>dir_3cecbd269a398d444969e15576a173f0&#45;&gt;dir_1d7cadfed01c895b25460177608d44e9</title>
<path fill="none" stroke="#000000" d="M314.7494,-503.9871C306.267,-493.9249 296.1883,-480.8538 289,-468 255.6376,-408.343 247.1957,-391.2552 235,-324 231.2483,-303.3104 234.1464,-279.6729 237.77,-261.8154"/>
<polygon fill="#000000" stroke="#000000" points="241.1907,-262.5561 239.9425,-252.0351 234.3573,-261.0381 241.1907,-262.5561"/>
<g id="a_edge29&#45;headlabel"><a xlink:href="dir_000005_000044.xhtml" target="_top" xlink:title="1">
<text text-anchor="middle" x="243.183" y="-264.1809" font-family="Helvetica,sans-Serif" font-size="10.00" fill="#000000">1</text>
</a>
</g>
</g>
<!-- dir_3cecbd269a398d444969e15576a173f0&#45;&gt;dir_707aa52d67938117542c6646238d6f70 -->
<g id="edge26" class="edge">
<title>dir_3cecbd269a398d444969e15576a173f0&#45;&gt;dir_707aa52d67938117542c6646238d6f70</title>
<path fill="none" stroke="#000000" d="M348.6994,-503.7014C371.7127,-477.8978 409,-428.3246 409,-378 409,-378 409,-378 409,-306 409,-265.7538 408.9089,-255.0073 399,-216 396.7428,-207.1144 393.3294,-197.7577 389.8603,-189.3751"/>
<polygon fill="#000000" stroke="#000000" points="393.0154,-187.8532 385.8283,-180.0688 386.5923,-190.6361 393.0154,-187.8532"/>
<g id="a_edge26&#45;headlabel"><a xlink:href="dir_000005_000029.xhtml" target="_top" xlink:title="80">
<text text-anchor="middle" x="397.0496" y="-187.5228" font-family="Helvetica,sans-Serif" font-size="10.00" fill="#000000">80</text>
</a>
</g>
</g>
<!-- dir_3cecbd269a398d444969e15576a173f0&#45;&gt;dir_a8053b3d69cfefb2b2e6ec7bf9dd5c1a -->
<g id="edge28" class="edge">
<title>dir_3cecbd269a398d444969e15576a173f0&#45;&gt;dir_a8053b3d69cfefb2b2e6ec7bf9dd5c1a</title>
<path fill="none" stroke="#000000" d="M329.4859,-503.8314C328.8442,-496.131 328.0812,-486.9743 327.3681,-478.4166"/>
<polygon fill="#000000" stroke="#000000" points="330.8529,-478.088 326.5344,-468.4133 323.8771,-478.6694 330.8529,-478.088"/>
<g id="a_edge28&#45;headlabel"><a xlink:href="dir_000005_000119.xhtml" target="_top" xlink:title="7">
<text text-anchor="middle" x="333.9808" y="-478.9345" font-family="Helvetica,sans-Serif" font-size="10.00" fill="#000000">7</text>
</a>
</g>
</g>
<!-- dir_3cecbd269a398d444969e15576a173f0&#45;&gt;dir_214608ef36d61442cb2b0c1c4e9a7def -->
<g id="edge27" class="edge">
<title>dir_3cecbd269a398d444969e15576a173f0&#45;&gt;dir_214608ef36d61442cb2b0c1c4e9a7def</title>
<path fill="none" stroke="#000000" d="M358.0052,-520.5749C428.0235,-515.2851 610,-490.6966 610,-378 610,-378 610,-378 610,-234 610,-177.5433 585.1296,-161.9216 540,-128 519.7639,-112.7896 493.3274,-103.5889 470.2391,-98.0625"/>
<polygon fill="#000000" stroke="#000000" points="470.7609,-94.5932 460.24,-95.8429 469.2439,-101.4268 470.7609,-94.5932"/>
<g id="a_edge27&#45;headlabel"><a xlink:href="dir_000005_000000.xhtml" target="_top" xlink:title="353">
<text text-anchor="middle" x="474.8853" y="-90.1003" font-family="Helvetica,sans-Serif" font-size="10.00" fill="#000000">353</text>
</a>
</g>
</g>
<!-- dir_3cecbd269a398d444969e15576a173f0&#45;&gt;dir_5815af820a9cc9481f1d0990a0d60286 -->
<g id="edge30" class="edge">
<title>dir_3cecbd269a398d444969e15576a173f0&#45;&gt;dir_5815af820a9cc9481f1d0990a0d60286</title>
<path fill="none" stroke="#000000" d="M303.6758,-518.126C247.5872,-509.8377 121.5738,-489.3914 84,-468 36.4505,-440.9293 0,-432.7154 0,-378 0,-378 0,-378 0,-162 0,-104.1607 43.1487,-99.5596 94,-72 156.6141,-38.0654 240.0374,-25.3364 287.5889,-20.6485"/>
<polygon fill="#000000" stroke="#000000" points="288.0996,-24.1164 297.7378,-19.7171 287.4598,-17.1457 288.0996,-24.1164"/>
<g id="a_edge30&#45;headlabel"><a xlink:href="dir_000005_000027.xhtml" target="_top" xlink:title="90">
<text text-anchor="middle" x="284.7794" y="-24.7722" font-family="Helvetica,sans-Serif" font-size="10.00" fill="#000000">90</text>
</a>
</g>
</g>
<!-- dir_3cecbd269a398d444969e15576a173f0&#45;&gt;dir_fdedb0aba14d44ce9d99bc100e026e6a -->
<g id="edge31" class="edge">
<title>dir_3cecbd269a398d444969e15576a173f0&#45;&gt;dir_fdedb0aba14d44ce9d99bc100e026e6a</title>
<path fill="none" stroke="#000000" d="M303.9604,-514.928C231.4258,-495.1675 38,-436.9466 38,-378 38,-378 38,-378 38,-306 38,-257.9377 75.4817,-213.7161 103.6044,-187.3006"/>
<polygon fill="#000000" stroke="#000000" points="106.2155,-189.6565 111.2493,-180.3339 101.5005,-184.4826 106.2155,-189.6565"/>
<g id="a_edge31&#45;headlabel"><a xlink:href="dir_000005_000017.xhtml" target="_top" xlink:title="1">
<text text-anchor="middle" x="105.471" y="-191.6763" font-family="Helvetica,sans-Serif" font-size="10.00" fill="#000000">1</text>
</a>
</g>
</g>
<!-- dir_707aa52d67938117542c6646238d6f70&#45;&gt;dir_214608ef36d61442cb2b0c1c4e9a7def -->
<g id="edge6" class="edge">
<title>dir_707aa52d67938117542c6646238d6f70&#45;&gt;dir_214608ef36d61442cb2b0c1c4e9a7def</title>
<path fill="none" stroke="#000000" d="M387.346,-143.8314C391.9237,-135.7925 397.4052,-126.1666 402.4588,-117.2918"/>
<polygon fill="#000000" stroke="#000000" points="405.6077,-118.8351 407.5147,-108.4133 399.5248,-115.3712 405.6077,-118.8351"/>
<g id="a_edge6&#45;headlabel"><a xlink:href="dir_000029_000000.xhtml" target="_top" xlink:title="15">
<text text-anchor="middle" x="406.2963" y="-120.8637" font-family="Helvetica,sans-Serif" font-size="10.00" fill="#000000">15</text>
</a>
</g>
</g>
<!-- dir_d91e1966cc57df4f49d1e07be7697713&#45;&gt;dir_34b4cee2b5900b653deb3438fc906cf4 -->
<g id="edge16" class="edge">
<title>dir_d91e1966cc57df4f49d1e07be7697713&#45;&gt;dir_34b4cee2b5900b653deb3438fc906cf4</title>
<path fill="none" stroke="#000000" d="M303.9257,-287.8314C312.9857,-279.1337 323.9809,-268.5783 333.8265,-259.1265"/>
<polygon fill="#000000" stroke="#000000" points="336.2904,-261.613 341.0804,-252.1628 331.4426,-256.5633 336.2904,-261.613"/>
<g id="a_edge16&#45;headlabel"><a xlink:href="dir_000024_000039.xhtml" target="_top" xlink:title="1">
<text text-anchor="middle" x="335.6636" y="-263.6506" font-family="Helvetica,sans-Serif" font-size="10.00" fill="#000000">1</text>
</a>
</g>
</g>
<!-- dir_d91e1966cc57df4f49d1e07be7697713&#45;&gt;dir_1d7cadfed01c895b25460177608d44e9 -->
<g id="edge21" class="edge">
<title>dir_d91e1966cc57df4f49d1e07be7697713&#45;&gt;dir_1d7cadfed01c895b25460177608d44e9</title>
<path fill="none" stroke="#000000" d="M274.9063,-287.8314C270.4403,-279.7925 265.0925,-270.1666 260.1621,-261.2918"/>
<polygon fill="#000000" stroke="#000000" points="263.1456,-259.4551 255.2296,-252.4133 257.0265,-262.8546 263.1456,-259.4551"/>
<g id="a_edge21&#45;headlabel"><a xlink:href="dir_000024_000044.xhtml" target="_top" xlink:title="17">
<text text-anchor="middle" x="267.3732" y="-258.7185" font-family="Helvetica,sans-Serif" font-size="10.00" fill="#000000">17</text>
</a>
</g>
</g>
<!-- dir_d91e1966cc57df4f49d1e07be7697713&#45;&gt;dir_74739ff5fdb79cbfe4bc8a8496df703a -->
<g id="edge18" class="edge">
<title>dir_d91e1966cc57df4f49d1e07be7697713&#45;&gt;dir_74739ff5fdb79cbfe4bc8a8496df703a</title>
<path fill="none" stroke="#000000" d="M301.2056,-324.4133C306.4058,-332.3991 311.8913,-341.9155 316.4037,-350.6975"/>
<polygon fill="#000000" stroke="#000000" points="313.3291,-352.3778 320.8587,-359.8314 319.6206,-349.3091 313.3291,-352.3778"/>
<g id="a_edge18&#45;headlabel"><a xlink:href="dir_000024_000081.xhtml" target="_top" xlink:title="64">
<text text-anchor="middle" x="309.2014" y="-347.8917" font-family="Helvetica,sans-Serif" font-size="10.00" fill="#000000">64</text>
</a>
</g>
</g>
<!-- dir_d91e1966cc57df4f49d1e07be7697713&#45;&gt;dir_707aa52d67938117542c6646238d6f70 -->
<g id="edge17" class="edge">
<title>dir_d91e1966cc57df4f49d1e07be7697713&#45;&gt;dir_707aa52d67938117542c6646238d6f70</title>
<path fill="none" stroke="#000000" d="M285.6705,-287.687C287.1542,-268.4341 291.7793,-237.9487 306,-216 314.826,-202.3776 328.3265,-190.8579 341.1942,-182.0027"/>
<polygon fill="#000000" stroke="#000000" points="343.4698,-184.6973 349.9363,-176.3048 339.6475,-178.833 343.4698,-184.6973"/>
<g id="a_edge17&#45;headlabel"><a xlink:href="dir_000024_000029.xhtml" target="_top" xlink:title="79">
<text text-anchor="middle" x="342.0088" y="-186.5387" font-family="Helvetica,sans-Serif" font-size="10.00" fill="#000000">79</text>
</a>
</g>
</g>
<!-- dir_d91e1966cc57df4f49d1e07be7697713&#45;&gt;dir_a8053b3d69cfefb2b2e6ec7bf9dd5c1a -->
<g id="edge20" class="edge">
<title>dir_d91e1966cc57df4f49d1e07be7697713&#45;&gt;dir_a8053b3d69cfefb2b2e6ec7bf9dd5c1a</title>
<path fill="none" stroke="#000000" d="M283.0087,-324.0959C281.6062,-342.6404 281.1695,-372.0674 289,-396 292.1725,-405.6964 297.6045,-415.2892 303.3008,-423.6385"/>
<polygon fill="#000000" stroke="#000000" points="300.5451,-425.8005 309.2488,-431.8416 306.2121,-421.6913 300.5451,-425.8005"/>
<g id="a_edge20&#45;headlabel"><a xlink:href="dir_000024_000119.xhtml" target="_top" xlink:title="2">
<text text-anchor="middle" x="296.1364" y="-422.0571" font-family="Helvetica,sans-Serif" font-size="10.00" fill="#000000">2</text>
</a>
</g>
</g>
<!-- dir_d91e1966cc57df4f49d1e07be7697713&#45;&gt;dir_214608ef36d61442cb2b0c1c4e9a7def -->
<g id="edge19" class="edge">
<title>dir_d91e1966cc57df4f49d1e07be7697713&#45;&gt;dir_214608ef36d61442cb2b0c1c4e9a7def</title>
<path fill="none" stroke="#000000" d="M312.0043,-300.5899C338.3513,-293.8508 377.5101,-279.676 399,-252 428.9831,-213.3859 427.1673,-153.1776 422.8056,-118.0615"/>
<polygon fill="#000000" stroke="#000000" points="426.2529,-117.4401 421.4026,-108.0206 419.3202,-118.4088 426.2529,-117.4401"/>
<g id="a_edge19&#45;headlabel"><a xlink:href="dir_000024_000000.xhtml" target="_top" xlink:title="248">
<text text-anchor="middle" x="429.5622" y="-118.1072" font-family="Helvetica,sans-Serif" font-size="10.00" fill="#000000">248</text>
</a>
</g>
</g>
<!-- dir_d91e1966cc57df4f49d1e07be7697713&#45;&gt;dir_5815af820a9cc9481f1d0990a0d60286 -->
<g id="edge22" class="edge">
<title>dir_d91e1966cc57df4f49d1e07be7697713&#45;&gt;dir_5815af820a9cc9481f1d0990a0d60286</title>
<path fill="none" stroke="#000000" d="M257.9745,-294.8087C240.5298,-285.9893 219.2456,-271.8482 209,-252 201.661,-237.7825 204.8098,-231.4416 209,-216 227.3525,-148.3681 275.2498,-80.1985 303.4267,-44.1598"/>
<polygon fill="#000000" stroke="#000000" points="306.3249,-46.1381 309.7979,-36.1286 300.841,-41.7876 306.3249,-46.1381"/>
<g id="a_edge22&#45;headlabel"><a xlink:href="dir_000024_000027.xhtml" target="_top" xlink:title="8">
<text text-anchor="middle" x="306.3153" y="-48.2187" font-family="Helvetica,sans-Serif" font-size="10.00" fill="#000000">8</text>
</a>
</g>
</g>
<!-- dir_d91e1966cc57df4f49d1e07be7697713&#45;&gt;dir_fdedb0aba14d44ce9d99bc100e026e6a -->
<g id="edge23" class="edge">
<title>dir_d91e1966cc57df4f49d1e07be7697713&#45;&gt;dir_fdedb0aba14d44ce9d99bc100e026e6a</title>
<path fill="none" stroke="#000000" d="M257.701,-298.193C233.5552,-290.0797 198.727,-275.2638 176,-252 159.1475,-234.7494 148.1729,-209.4843 141.6838,-190.1111"/>
<polygon fill="#000000" stroke="#000000" points="144.9443,-188.8112 138.6117,-180.3172 138.2652,-190.9064 144.9443,-188.8112"/>
<g id="a_edge23&#45;headlabel"><a xlink:href="dir_000024_000017.xhtml" target="_top" xlink:title="1">
<text text-anchor="middle" x="148.7292" y="-188.8913" font-family="Helvetica,sans-Serif" font-size="10.00" fill="#000000">1</text>
</a>
</g>
</g>
<!-- dir_a8053b3d69cfefb2b2e6ec7bf9dd5c1a&#45;&gt;dir_74739ff5fdb79cbfe4bc8a8496df703a -->
<g id="edge32" class="edge">
<title>dir_a8053b3d69cfefb2b2e6ec7bf9dd5c1a&#45;&gt;dir_74739ff5fdb79cbfe4bc8a8496df703a</title>
<path fill="none" stroke="#000000" d="M319.0476,-431.8314C318.2972,-424.131 318.0763,-414.9743 318.3849,-406.4166"/>
<polygon fill="#000000" stroke="#000000" points="321.8792,-406.6161 319.024,-396.4133 314.8935,-406.1697 321.8792,-406.6161"/>
<g id="a_edge32&#45;headlabel"><a xlink:href="dir_000119_000081.xhtml" target="_top" xlink:title="1">
<text text-anchor="middle" x="324.4836" y="-407.8844" font-family="Helvetica,sans-Serif" font-size="10.00" fill="#000000">1</text>
</a>
</g>
</g>
<!-- dir_a8053b3d69cfefb2b2e6ec7bf9dd5c1a&#45;&gt;dir_214608ef36d61442cb2b0c1c4e9a7def -->
<g id="edge33" class="edge">
<title>dir_a8053b3d69cfefb2b2e6ec7bf9dd5c1a&#45;&gt;dir_214608ef36d61442cb2b0c1c4e9a7def</title>
<path fill="none" stroke="#000000" d="M352.3771,-446.9961C416.6865,-438.2696 572,-406.7637 572,-306 572,-306 572,-306 572,-234 572,-176.4695 513.9516,-135.302 469.1327,-112.0906"/>
<polygon fill="#000000" stroke="#000000" points="470.5889,-108.9055 460.0812,-107.5495 467.4499,-115.1622 470.5889,-108.9055"/>
<g id="a_edge33&#45;headlabel"><a xlink:href="dir_000119_000000.xhtml" target="_top" xlink:title="16">
<text text-anchor="middle" x="475.075" y="-105.4795" font-family="Helvetica,sans-Serif" font-size="10.00" fill="#000000">16</text>
</a>
</g>
</g>
<!-- dir_a8053b3d69cfefb2b2e6ec7bf9dd5c1a&#45;&gt;dir_5815af820a9cc9481f1d0990a0d60286 -->
<g id="edge34" class="edge">
<title>dir_a8053b3d69cfefb2b2e6ec7bf9dd5c1a&#45;&gt;dir_5815af820a9cc9481f1d0990a0d60286</title>
<path fill="none" stroke="#000000" d="M297.8786,-447.1372C233.3433,-438.675 76,-407.623 76,-306 76,-306 76,-306 76,-162 76,-65.3391 218.3529,-32.5257 287.7905,-22.2695"/>
<polygon fill="#000000" stroke="#000000" points="288.4579,-25.7104 297.8786,-20.8628 287.491,-18.7775 288.4579,-25.7104"/>
<g id="a_edge34&#45;headlabel"><a xlink:href="dir_000119_000027.xhtml" target="_top" xlink:title="3">
<text text-anchor="middle" x="285.2898" y="-26.5188" font-family="Helvetica,sans-Serif" font-size="10.00" fill="#000000">3</text>
</a>
</g>
</g>
<!-- dir_214608ef36d61442cb2b0c1c4e9a7def&#45;&gt;dir_5815af820a9cc9481f1d0990a0d60286 -->
<g id="edge15" class="edge">
<title>dir_214608ef36d61442cb2b0c1c4e9a7def&#45;&gt;dir_5815af820a9cc9481f1d0990a0d60286</title>
<path fill="none" stroke="#000000" d="M388.5798,-71.8314C376.2608,-62.9632 362.1496,-52.1637 350.3005,-42.5718"/>
<polygon fill="#000000" stroke="#000000" points="352.455,-39.8121 342.5085,-36.1628 348.0083,-45.2184 352.455,-39.8121"/>
<g id="a_edge15&#45;headlabel"><a xlink:href="dir_000000_000027.xhtml" target="_top" xlink:title="18">
<text text-anchor="middle" x="357.0348" y="-37.4027" font-family="Helvetica,sans-Serif" font-size="10.00" fill="#000000">18</text>
</a>
</g>
</g>
<!-- dir_5815af820a9cc9481f1d0990a0d60286&#45;&gt;dir_214608ef36d61442cb2b0c1c4e9a7def -->
<g id="edge38" class="edge">
<title>dir_5815af820a9cc9481f1d0990a0d60286&#45;&gt;dir_214608ef36d61442cb2b0c1c4e9a7def</title>
<path fill="none" stroke="#000000" d="M352.0062,-34.4393C364.8378,-43.5855 379.9996,-55.1507 392.6135,-65.3585"/>
<polygon fill="#000000" stroke="#000000" points="390.5377,-68.183 400.4846,-71.8314 394.9839,-62.7763 390.5377,-68.183"/>
<g id="a_edge38&#45;headlabel"><a xlink:href="dir_000027_000000.xhtml" target="_top" xlink:title="6">
<text text-anchor="middle" x="385.9579" y="-65.5928" font-family="Helvetica,sans-Serif" font-size="10.00" fill="#000000">6</text>
</a>
</g>
</g>
<!-- dir_fdedb0aba14d44ce9d99bc100e026e6a&#45;&gt;dir_214608ef36d61442cb2b0c1c4e9a7def -->
<g id="edge39" class="edge">
<title>dir_fdedb0aba14d44ce9d99bc100e026e6a&#45;&gt;dir_214608ef36d61442cb2b0c1c4e9a7def</title>
<path fill="none" stroke="#000000" d="M163.7591,-145.7791C176.4638,-139.4307 191.6471,-132.5861 206,-128 259.0891,-111.0368 322.2242,-100.9449 365.7105,-95.4733"/>
<polygon fill="#000000" stroke="#000000" points="366.2726,-98.9308 375.7751,-94.2453 365.4248,-91.9823 366.2726,-98.9308"/>
<g id="a_edge39&#45;headlabel"><a xlink:href="dir_000017_000000.xhtml" target="_top" xlink:title="17">
<text text-anchor="middle" x="363.0483" y="-99.6844" font-family="Helvetica,sans-Serif" font-size="10.00" fill="#000000">17</text>
</a>
</g>
</g>
<!-- dir_fdedb0aba14d44ce9d99bc100e026e6a&#45;&gt;dir_5815af820a9cc9481f1d0990a0d60286 -->
<g id="edge40" class="edge">
<title>dir_fdedb0aba14d44ce9d99bc100e026e6a&#45;&gt;dir_5815af820a9cc9481f1d0990a0d60286</title>
<path fill="none" stroke="#000000" d="M138.4371,-143.985C144.2813,-123.8285 156.4351,-91.4571 178,-72 208.9654,-44.0613 255.6023,-30.216 288.0112,-23.6058"/>
<polygon fill="#000000" stroke="#000000" points="288.8267,-27.0135 297.9958,-21.7052 287.5176,-20.137 288.8267,-27.0135"/>
<g id="a_edge40&#45;headlabel"><a xlink:href="dir_000017_000027.xhtml" target="_top" xlink:title="2">
<text text-anchor="middle" x="285.8264" y="-27.9748" font-family="Helvetica,sans-Serif" font-size="10.00" fill="#000000">2</text>
</a>
</g>
</g>
</g>
</svg>
