<?xml version="1.0" encoding="UTF-8" standalone="no"?>
<!DOCTYPE svg PUBLIC "-//W3C//DTD SVG 1.1//EN"
 "http://www.w3.org/Graphics/SVG/1.1/DTD/svg11.dtd">
<!-- Generated by graphviz version 2.40.1 (20161225.0304)
 -->
<!-- Title: src/c/cl Pages: 1 -->
<svg width="149pt" height="367pt"
 viewBox="0.00 0.00 149.22 367.00" xmlns="http://www.w3.org/2000/svg" xmlns:xlink="http://www.w3.org/1999/xlink">
<g id="graph0" class="graph" transform="scale(1 1) rotate(0) translate(4 363)">
<title>src/c/cl</title>
<polygon fill="#ffffff" stroke="transparent" points="-4,4 -4,-363 145.2155,-363 145.2155,4 -4,4"/>
<g id="clust1" class="cluster">
<title>clusterdir_3b19ecf29356981f494745fbef7e56bf</title>
<g id="a_clust1"><a xlink:href="dir_3b19ecf29356981f494745fbef7e56bf.xhtml" target="_top" xlink:title="c">
<polygon fill="#ddddee" stroke="#000000" points="51,-280 51,-351 121,-351 121,-280 51,-280"/>
<text text-anchor="middle" x="86" y="-339" font-family="Helvetica,sans-Serif" font-size="10.00" fill="#000000">c</text>
</a>
</g>
</g>
<!-- dir_6be4cd559a5c9d338ece913d130bae75 -->
<g id="node1" class="node">
<title>dir_6be4cd559a5c9d338ece913d130bae75</title>
<g id="a_node1"><a xlink:href="dir_6be4cd559a5c9d338ece913d130bae75.xhtml" target="_top" xlink:title="cl">
<polygon fill="#eeeeff" stroke="#000000" points="113,-324 59,-324 59,-288 113,-288 113,-324"/>
<text text-anchor="middle" x="86" y="-303.5" font-family="Helvetica,sans-Serif" font-size="10.00" fill="#000000">cl</text>
</a>
</g>
</g>
<!-- dir_cf895c1ed808af158264b2f3d8d7f8f0 -->
<g id="node2" class="node">
<title>dir_cf895c1ed808af158264b2f3d8d7f8f0</title>
<g id="a_node2"><a xlink:href="dir_cf895c1ed808af158264b2f3d8d7f8f0.xhtml" target="_top" xlink:title="gpu">
<polygon fill="#ffffff" stroke="#ff0000" points="86,-252 32,-252 32,-216 86,-216 86,-252"/>
<text text-anchor="middle" x="59" y="-231.5" font-family="Helvetica,sans-Serif" font-size="10.00" fill="#000000">gpu</text>
</a>
</g>
</g>
<!-- dir_6be4cd559a5c9d338ece913d130bae75&#45;&gt;dir_cf895c1ed808af158264b2f3d8d7f8f0 -->
<g id="edge1" class="edge">
<title>dir_6be4cd559a5c9d338ece913d130bae75&#45;&gt;dir_cf895c1ed808af158264b2f3d8d7f8f0</title>
<path fill="none" stroke="#000000" d="M79.1868,-287.8314C76.2356,-279.9617 72.7142,-270.5712 69.445,-261.8533"/>
<polygon fill="#000000" stroke="#000000" points="72.6934,-260.5476 65.905,-252.4133 66.1391,-263.0055 72.6934,-260.5476"/>
<g id="a_edge1&#45;headlabel"><a xlink:href="dir_000069_000051.xhtml" target="_top" xlink:title="2">
<text text-anchor="middle" x="76.614" y="-260.4164" font-family="Helvetica,sans-Serif" font-size="10.00" fill="#000000">2</text>
</a>
</g>
</g>
<!-- dir_214608ef36d61442cb2b0c1c4e9a7def -->
<g id="node3" class="node">
<title>dir_214608ef36d61442cb2b0c1c4e9a7def</title>
<g id="a_node3"><a xlink:href="dir_214608ef36d61442cb2b0c1c4e9a7def.xhtml" target="_top" xlink:title="arm_compute">
<polygon fill="#ffffff" stroke="#ff0000" points="84,-108 0,-108 0,-72 84,-72 84,-108"/>
<text text-anchor="middle" x="42" y="-87.5" font-family="Helvetica,sans-Serif" font-size="10.00" fill="#000000">arm_compute</text>
</a>
</g>
</g>
<!-- dir_6be4cd559a5c9d338ece913d130bae75&#45;&gt;dir_214608ef36d61442cb2b0c1c4e9a7def -->
<g id="edge2" class="edge">
<title>dir_6be4cd559a5c9d338ece913d130bae75&#45;&gt;dir_214608ef36d61442cb2b0c1c4e9a7def</title>
<path fill="none" stroke="#000000" d="M58.9774,-290.6789C45.4784,-281.4052 30.4641,-268.2286 23,-252 2.8935,-208.2841 17.8496,-151.2287 30.1805,-117.8023"/>
<polygon fill="#000000" stroke="#000000" points="33.5405,-118.8175 33.8814,-108.2281 27.0113,-116.2936 33.5405,-118.8175"/>
<g id="a_edge2&#45;headlabel"><a xlink:href="dir_000069_000000.xhtml" target="_top" xlink:title="2">
<text text-anchor="middle" x="34.8928" y="-120.694" font-family="Helvetica,sans-Serif" font-size="10.00" fill="#000000">2</text>
</a>
</g>
</g>
<!-- dir_5815af820a9cc9481f1d0990a0d60286 -->
<g id="node4" class="node">
<title>dir_5815af820a9cc9481f1d0990a0d60286</title>
<g id="a_node4"><a xlink:href="dir_5815af820a9cc9481f1d0990a0d60286.xhtml" target="_top" xlink:title="support">
<polygon fill="none" stroke="#000000" points="104,-36 50,-36 50,0 104,0 104,-36"/>
<text text-anchor="middle" x="77" y="-15.5" font-family="Helvetica,sans-Serif" font-size="10.00" fill="#000000">support</text>
</a>
</g>
</g>
<!-- dir_6be4cd559a5c9d338ece913d130bae75&#45;&gt;dir_5815af820a9cc9481f1d0990a0d60286 -->
<g id="edge3" class="edge">
<title>dir_6be4cd559a5c9d338ece913d130bae75&#45;&gt;dir_5815af820a9cc9481f1d0990a0d60286</title>
<path fill="none" stroke="#000000" d="M98.4464,-287.9166C117.277,-258.3783 149.7364,-197.6819 139,-144 131.6331,-107.1655 110.6748,-69.0271 95.1542,-44.4975"/>
<polygon fill="#000000" stroke="#000000" points="98.0914,-42.5941 89.7174,-36.1037 92.2162,-46.3996 98.0914,-42.5941"/>
<g id="a_edge3&#45;headlabel"><a xlink:href="dir_000069_000027.xhtml" target="_top" xlink:title="1">
<text text-anchor="middle" x="102.4286" y="-41.5676" font-family="Helvetica,sans-Serif" font-size="10.00" fill="#000000">1</text>
</a>
</g>
</g>
<!-- dir_fdedb0aba14d44ce9d99bc100e026e6a -->
<g id="node5" class="node">
<title>dir_fdedb0aba14d44ce9d99bc100e026e6a</title>
<g id="a_node5"><a xlink:href="dir_fdedb0aba14d44ce9d99bc100e026e6a.xhtml" target="_top" xlink:title="common">
<polygon fill="#ffffff" stroke="#ff0000" points="129.5,-180 70.5,-180 70.5,-144 129.5,-144 129.5,-180"/>
<text text-anchor="middle" x="100" y="-159.5" font-family="Helvetica,sans-Serif" font-size="10.00" fill="#000000">common</text>
</a>
</g>
</g>
<!-- dir_6be4cd559a5c9d338ece913d130bae75&#45;&gt;dir_fdedb0aba14d44ce9d99bc100e026e6a -->
<g id="edge4" class="edge">
<title>dir_6be4cd559a5c9d338ece913d130bae75&#45;&gt;dir_fdedb0aba14d44ce9d99bc100e026e6a</title>
<path fill="none" stroke="#000000" d="M89.5854,-287.5754C91.4807,-277.17 93.6815,-263.9026 95,-252 97.2794,-231.4232 98.5382,-208.0788 99.2225,-190.3222"/>
<polygon fill="#000000" stroke="#000000" points="102.7206,-190.4358 99.5704,-180.3202 95.7248,-190.1924 102.7206,-190.4358"/>
<g id="a_edge4&#45;headlabel"><a xlink:href="dir_000069_000017.xhtml" target="_top" xlink:title="2">
<text text-anchor="middle" x="105.4333" y="-191.6269" font-family="Helvetica,sans-Serif" font-size="10.00" fill="#000000">2</text>
</a>
</g>
</g>
<!-- dir_cf895c1ed808af158264b2f3d8d7f8f0&#45;&gt;dir_214608ef36d61442cb2b0c1c4e9a7def -->
<g id="edge5" class="edge">
<title>dir_cf895c1ed808af158264b2f3d8d7f8f0&#45;&gt;dir_214608ef36d61442cb2b0c1c4e9a7def</title>
<path fill="none" stroke="#000000" d="M56.8469,-215.7623C53.9473,-191.201 48.7584,-147.2474 45.3474,-118.3541"/>
<polygon fill="#000000" stroke="#000000" points="48.7839,-117.6103 44.1356,-108.0896 41.8322,-118.431 48.7839,-117.6103"/>
<g id="a_edge5&#45;headlabel"><a xlink:href="dir_000051_000000.xhtml" target="_top" xlink:title="6">
<text text-anchor="middle" x="52.025" y="-118.3473" font-family="Helvetica,sans-Serif" font-size="10.00" fill="#000000">6</text>
</a>
</g>
</g>
<!-- dir_cf895c1ed808af158264b2f3d8d7f8f0&#45;&gt;dir_fdedb0aba14d44ce9d99bc100e026e6a -->
<g id="edge6" class="edge">
<title>dir_cf895c1ed808af158264b2f3d8d7f8f0&#45;&gt;dir_fdedb0aba14d44ce9d99bc100e026e6a</title>
<path fill="none" stroke="#000000" d="M69.346,-215.8314C73.9237,-207.7925 79.4052,-198.1666 84.4588,-189.2918"/>
<polygon fill="#000000" stroke="#000000" points="87.6077,-190.8351 89.5147,-180.4133 81.5248,-187.3712 87.6077,-190.8351"/>
<g id="a_edge6&#45;headlabel"><a xlink:href="dir_000051_000017.xhtml" target="_top" xlink:title="4">
<text text-anchor="middle" x="88.2963" y="-192.8637" font-family="Helvetica,sans-Serif" font-size="10.00" fill="#000000">4</text>
</a>
</g>
</g>
<!-- dir_214608ef36d61442cb2b0c1c4e9a7def&#45;&gt;dir_5815af820a9cc9481f1d0990a0d60286 -->
<g id="edge7" class="edge">
<title>dir_214608ef36d61442cb2b0c1c4e9a7def&#45;&gt;dir_5815af820a9cc9481f1d0990a0d60286</title>
<path fill="none" stroke="#000000" d="M44.8796,-71.8314C48.004,-63.7925 52.4769,-54.1666 57.1618,-45.2918"/>
<polygon fill="#000000" stroke="#000000" points="60.2953,-46.8579 62.0731,-36.4133 54.17,-43.4696 60.2953,-46.8579"/>
<g id="a_edge7&#45;headlabel"><a xlink:href="dir_000000_000027.xhtml" target="_top" xlink:title="18">
<text text-anchor="middle" x="61.0399" y="-48.8776" font-family="Helvetica,sans-Serif" font-size="10.00" fill="#000000">18</text>
</a>
</g>
</g>
<!-- dir_5815af820a9cc9481f1d0990a0d60286&#45;&gt;dir_214608ef36d61442cb2b0c1c4e9a7def -->
<g id="edge8" class="edge">
<title>dir_5815af820a9cc9481f1d0990a0d60286&#45;&gt;dir_214608ef36d61442cb2b0c1c4e9a7def</title>
<path fill="none" stroke="#000000" d="M74.0251,-36.4133C70.8735,-44.484 66.3849,-54.1182 61.6958,-62.9775"/>
<polygon fill="#000000" stroke="#000000" points="58.5747,-61.3889 56.7844,-71.8314 64.6959,-64.7845 58.5747,-61.3889"/>
<g id="a_edge8&#45;headlabel"><a xlink:href="dir_000027_000000.xhtml" target="_top" xlink:title="6">
<text text-anchor="middle" x="57.8355" y="-54.3682" font-family="Helvetica,sans-Serif" font-size="10.00" fill="#000000">6</text>
</a>
</g>
</g>
<!-- dir_fdedb0aba14d44ce9d99bc100e026e6a&#45;&gt;dir_214608ef36d61442cb2b0c1c4e9a7def -->
<g id="edge9" class="edge">
<title>dir_fdedb0aba14d44ce9d99bc100e026e6a&#45;&gt;dir_214608ef36d61442cb2b0c1c4e9a7def</title>
<path fill="none" stroke="#000000" d="M85.3642,-143.8314C78.6839,-135.5386 70.6432,-125.557 63.3096,-116.4533"/>
<polygon fill="#000000" stroke="#000000" points="65.8319,-114.0052 56.8329,-108.4133 60.3806,-118.3965 65.8319,-114.0052"/>
<g id="a_edge9&#45;headlabel"><a xlink:href="dir_000017_000000.xhtml" target="_top" xlink:title="17">
<text text-anchor="middle" x="70.2979" y="-112.5233" font-family="Helvetica,sans-Serif" font-size="10.00" fill="#000000">17</text>
</a>
</g>
</g>
<!-- dir_fdedb0aba14d44ce9d99bc100e026e6a&#45;&gt;dir_5815af820a9cc9481f1d0990a0d60286 -->
<g id="edge10" class="edge">
<title>dir_fdedb0aba14d44ce9d99bc100e026e6a&#45;&gt;dir_5815af820a9cc9481f1d0990a0d60286</title>
<path fill="none" stroke="#000000" d="M99.7086,-143.9258C99.1538,-125.6494 97.5593,-96.6575 93,-72 91.4075,-63.3872 88.9704,-54.1901 86.4748,-45.8722"/>
<polygon fill="#000000" stroke="#000000" points="89.7914,-44.7514 83.4545,-36.2605 83.1133,-46.8499 89.7914,-44.7514"/>
<g id="a_edge10&#45;headlabel"><a xlink:href="dir_000017_000027.xhtml" target="_top" xlink:title="2">
<text text-anchor="middle" x="93.5776" y="-44.8295" font-family="Helvetica,sans-Serif" font-size="10.00" fill="#000000">2</text>
</a>
</g>
</g>
</g>
</svg>
