<?xml version="1.0" encoding="UTF-8" standalone="no"?>
<!DOCTYPE svg PUBLIC "-//W3C//DTD SVG 1.1//EN"
 "http://www.w3.org/Graphics/SVG/1.1/DTD/svg11.dtd">
<!-- Generated by graphviz version 2.40.1 (20161225.0304)
 -->
<!-- Title: Graphical Class Hierarchy Pages: 1 -->
<svg width="317pt" height="66pt"
 viewBox="0.00 0.00 317.00 66.00" xmlns="http://www.w3.org/2000/svg" xmlns:xlink="http://www.w3.org/1999/xlink">
<g id="graph0" class="graph" transform="scale(1 1) rotate(0) translate(4 62)">
<title>Graphical Class Hierarchy</title>
<polygon fill="#ffffff" stroke="transparent" points="-4,4 -4,-62 313,-62 313,4 -4,4"/>
<!-- Node0 -->
<g id="node1" class="node">
<title>Node0</title>
<g id="a_node1"><a xlink:href="structarm__compute_1_1mlgo_1_1_heuristic_tree_1_1_node.xhtml" target="_top" xlink:title="HeuristicTree::Node">
<polygon fill="#ffffff" stroke="#000000" points="0,-19.5 0,-38.5 112,-38.5 112,-19.5 0,-19.5"/>
<text text-anchor="middle" x="56" y="-26.5" font-family="Helvetica,sans-Serif" font-size="10.00" fill="#000000">HeuristicTree::Node</text>
</a>
</g>
</g>
<!-- Node1 -->
<g id="node2" class="node">
<title>Node1</title>
<g id="a_node2"><a xlink:href="structarm__compute_1_1mlgo_1_1_heuristic_tree_1_1_branch_node.xhtml" target="_top" xlink:title="HeuristicTree::BranchNode">
<polygon fill="#ffffff" stroke="#000000" points="155.5,-38.5 155.5,-57.5 301.5,-57.5 301.5,-38.5 155.5,-38.5"/>
<text text-anchor="middle" x="228.5" y="-45.5" font-family="Helvetica,sans-Serif" font-size="10.00" fill="#000000">HeuristicTree::BranchNode</text>
</a>
</g>
</g>
<!-- Node0&#45;&gt;Node1 -->
<g id="edge1" class="edge">
<title>Node0&#45;&gt;Node1</title>
<path fill="none" stroke="#191970" d="M122.27,-36.2993C133.1443,-37.4971 144.4671,-38.7442 155.4939,-39.9587"/>
<polygon fill="#191970" stroke="#191970" points="122.3289,-32.7847 112.0058,-35.1688 121.5625,-39.7426 122.3289,-32.7847"/>
</g>
<!-- Node2 -->
<g id="node3" class="node">
<title>Node2</title>
<g id="a_node3"><a xlink:href="structarm__compute_1_1mlgo_1_1_heuristic_tree_1_1_leaf_node.xhtml" target="_top" xlink:title="HeuristicTree::LeafNode\&lt; T \&gt;">
<polygon fill="#ffffff" stroke="#000000" points="148,-.5 148,-19.5 309,-19.5 309,-.5 148,-.5"/>
<text text-anchor="middle" x="228.5" y="-7.5" font-family="Helvetica,sans-Serif" font-size="10.00" fill="#000000">HeuristicTree::LeafNode&lt; T &gt;</text>
</a>
</g>
</g>
<!-- Node0&#45;&gt;Node2 -->
<g id="edge2" class="edge">
<title>Node0&#45;&gt;Node2</title>
<path fill="none" stroke="#191970" d="M122.0816,-21.7214C130.4705,-20.7975 139.129,-19.8438 147.715,-18.8981"/>
<polygon fill="#191970" stroke="#191970" points="121.5625,-18.2574 112.0058,-22.8312 122.3289,-25.2153 121.5625,-18.2574"/>
</g>
</g>
</svg>
