<?xml version="1.0" encoding="UTF-8" standalone="no"?>
<!DOCTYPE svg PUBLIC "-//W3C//DTD SVG 1.1//EN"
 "http://www.w3.org/Graphics/SVG/1.1/DTD/svg11.dtd">
<!-- Generated by graphviz version 2.40.1 (20161225.0304)
 -->
<!-- Title: Graphical Class Hierarchy Pages: 1 -->
<svg width="519pt" height="445pt"
 viewBox="0.00 0.00 519.00 445.00" xmlns="http://www.w3.org/2000/svg" xmlns:xlink="http://www.w3.org/1999/xlink">
<g id="graph0" class="graph" transform="scale(1 1) rotate(0) translate(4 441)">
<title>Graphical Class Hierarchy</title>
<polygon fill="#ffffff" stroke="transparent" points="-4,4 -4,-441 515,-441 515,4 -4,4"/>
<!-- Node0 -->
<g id="node1" class="node">
<title>Node0</title>
<g id="a_node1"><a xlink:href="classarm__gemm_1_1_i_gemm_common.xhtml" target="_top" xlink:title="IGemmCommon">
<polygon fill="#ffffff" stroke="#000000" points="0,-176 0,-195 97,-195 97,-176 0,-176"/>
<text text-anchor="middle" x="48.5" y="-183" font-family="Helvetica,sans-Serif" font-size="10.00" fill="#000000">IGemmCommon</text>
</a>
</g>
</g>
<!-- Node1 -->
<g id="node2" class="node">
<title>Node1</title>
<g id="a_node2"><a xlink:href="classarm__gemm_1_1_gemm_common.xhtml" target="_top" xlink:title="GemmCommon\&lt; To, Tr \&gt;">
<polygon fill="#ffffff" stroke="#000000" points="140,-198 140,-217 281,-217 281,-198 140,-198"/>
<text text-anchor="middle" x="210.5" y="-205" font-family="Helvetica,sans-Serif" font-size="10.00" fill="#000000">GemmCommon&lt; To, Tr &gt;</text>
</a>
</g>
</g>
<!-- Node0&#45;&gt;Node1 -->
<g id="edge1" class="edge">
<title>Node0&#45;&gt;Node1</title>
<path fill="none" stroke="#191970" d="M107.2212,-193.4745C117.9826,-194.9359 129.313,-196.4746 140.3683,-197.9759"/>
<polygon fill="#191970" stroke="#191970" points="107.4854,-189.9783 97.1053,-192.1007 106.5434,-196.9146 107.4854,-189.9783"/>
</g>
<!-- Node11 -->
<g id="node12" class="node">
<title>Node11</title>
<g id="a_node12"><a xlink:href="classarm__gemm_1_1_gemm_common.xhtml" target="_top" xlink:title="GemmCommon\&lt; TypeInput,\l TypeOutput \&gt;">
<polygon fill="#ffffff" stroke="#000000" points="133,-148.5 133,-178.5 288,-178.5 288,-148.5 133,-148.5"/>
<text text-anchor="start" x="141" y="-166.5" font-family="Helvetica,sans-Serif" font-size="10.00" fill="#000000">GemmCommon&lt; TypeInput,</text>
<text text-anchor="middle" x="210.5" y="-155.5" font-family="Helvetica,sans-Serif" font-size="10.00" fill="#000000"> TypeOutput &gt;</text>
</a>
</g>
</g>
<!-- Node0&#45;&gt;Node11 -->
<g id="edge11" class="edge">
<title>Node0&#45;&gt;Node11</title>
<path fill="none" stroke="#191970" d="M107.1095,-177.5407C115.4735,-176.4048 124.1832,-175.222 132.8418,-174.0462"/>
<polygon fill="#191970" stroke="#191970" points="106.5434,-174.0854 97.1053,-178.8993 107.4854,-181.0217 106.5434,-174.0854"/>
</g>
<!-- Node2 -->
<g id="node3" class="node">
<title>Node2</title>
<g id="a_node3"><a xlink:href="classarm__gemm_1_1_gemm_hybrid.xhtml" target="_top" xlink:title="GemmHybrid\&lt; strategy,\l To, Tr \&gt;">
<polygon fill="#ffffff" stroke="#000000" points="349,-406.5 349,-436.5 486,-436.5 486,-406.5 349,-406.5"/>
<text text-anchor="start" x="357" y="-424.5" font-family="Helvetica,sans-Serif" font-size="10.00" fill="#000000">GemmHybrid&lt; strategy,</text>
<text text-anchor="middle" x="417.5" y="-413.5" font-family="Helvetica,sans-Serif" font-size="10.00" fill="#000000"> To, Tr &gt;</text>
</a>
</g>
</g>
<!-- Node1&#45;&gt;Node2 -->
<g id="edge2" class="edge">
<title>Node1&#45;&gt;Node2</title>
<path fill="none" stroke="#191970" d="M216.6535,-227.0641C229.8168,-265.6379 264.4563,-351.6441 324,-396.5 331.3815,-402.0607 339.9069,-406.3859 348.7442,-409.7499"/>
<polygon fill="#191970" stroke="#191970" points="219.8296,-225.5183 213.3799,-217.1128 213.1801,-227.7057 219.8296,-225.5183"/>
</g>
<!-- Node3 -->
<g id="node4" class="node">
<title>Node3</title>
<g id="a_node4"><a xlink:href="classarm__gemm_1_1_gemm_hybrid_indirect.xhtml" target="_top" xlink:title="GemmHybridIndirect\l\&lt; strategy, To, Tr,\l OutputStage, SeparateQuantize \&gt;">
<polygon fill="#ffffff" stroke="#000000" points="325,-346 325,-387 510,-387 510,-346 325,-346"/>
<text text-anchor="start" x="333" y="-375" font-family="Helvetica,sans-Serif" font-size="10.00" fill="#000000">GemmHybridIndirect</text>
<text text-anchor="start" x="333" y="-364" font-family="Helvetica,sans-Serif" font-size="10.00" fill="#000000">&lt; strategy, To, Tr,</text>
<text text-anchor="middle" x="417.5" y="-353" font-family="Helvetica,sans-Serif" font-size="10.00" fill="#000000"> OutputStage, SeparateQuantize &gt;</text>
</a>
</g>
</g>
<!-- Node1&#45;&gt;Node3 -->
<g id="edge3" class="edge">
<title>Node1&#45;&gt;Node3</title>
<path fill="none" stroke="#191970" d="M221.938,-225.9259C240.1734,-253.8217 278.4621,-306.6745 324,-336.5 329.2766,-339.956 334.9811,-343.0396 340.8796,-345.7864"/>
<polygon fill="#191970" stroke="#191970" points="224.6808,-223.7181 216.3452,-217.1782 218.7831,-227.4888 224.6808,-223.7181"/>
</g>
<!-- Node4 -->
<g id="node5" class="node">
<title>Node4</title>
<g id="a_node5"><a xlink:href="classarm__gemm_1_1_gemm_hybrid_quantized.xhtml" target="_top" xlink:title="GemmHybridQuantized\l\&lt; strategy, To, Tr \&gt;">
<polygon fill="#ffffff" stroke="#000000" points="352,-296.5 352,-326.5 483,-326.5 483,-296.5 352,-296.5"/>
<text text-anchor="start" x="360" y="-314.5" font-family="Helvetica,sans-Serif" font-size="10.00" fill="#000000">GemmHybridQuantized</text>
<text text-anchor="middle" x="417.5" y="-303.5" font-family="Helvetica,sans-Serif" font-size="10.00" fill="#000000">&lt; strategy, To, Tr &gt;</text>
</a>
</g>
</g>
<!-- Node1&#45;&gt;Node4 -->
<g id="edge4" class="edge">
<title>Node1&#45;&gt;Node4</title>
<path fill="none" stroke="#191970" d="M228.9201,-223.7125C250.3516,-241.7711 287.4816,-270.6362 324,-287.5 332.6725,-291.5049 342.1184,-294.9162 351.5633,-297.7996"/>
<polygon fill="#191970" stroke="#191970" points="231.1251,-220.9927 221.2534,-217.1456 226.5714,-226.3091 231.1251,-220.9927"/>
</g>
<!-- Node5 -->
<g id="node6" class="node">
<title>Node5</title>
<g id="a_node6"><a xlink:href="classarm__gemm_1_1_gemm_hybrid_quantized_inline.xhtml" target="_top" xlink:title="GemmHybridQuantizedInline\l\&lt; strategy, To, Tr \&gt;">
<polygon fill="#ffffff" stroke="#000000" points="338.5,-247.5 338.5,-277.5 496.5,-277.5 496.5,-247.5 338.5,-247.5"/>
<text text-anchor="start" x="346.5" y="-265.5" font-family="Helvetica,sans-Serif" font-size="10.00" fill="#000000">GemmHybridQuantizedInline</text>
<text text-anchor="middle" x="417.5" y="-254.5" font-family="Helvetica,sans-Serif" font-size="10.00" fill="#000000">&lt; strategy, To, Tr &gt;</text>
</a>
</g>
</g>
<!-- Node1&#45;&gt;Node5 -->
<g id="edge5" class="edge">
<title>Node1&#45;&gt;Node5</title>
<path fill="none" stroke="#191970" d="M256.5876,-219.7455C287.3619,-227.9222 328.042,-238.731 360.7995,-247.4346"/>
<polygon fill="#191970" stroke="#191970" points="257.1201,-216.2656 246.5566,-217.0803 255.3225,-223.0309 257.1201,-216.2656"/>
</g>
<!-- Node6 -->
<g id="node7" class="node">
<title>Node6</title>
<g id="a_node7"><a xlink:href="classarm__gemm_1_1_gemm_interleaved.xhtml" target="_top" xlink:title="GemmInterleaved\&lt; strategy,\l To, Tr, OutputStage, MergeStep,\l ForceThreadColumns \&gt;">
<polygon fill="#ffffff" stroke="#000000" points="331.5,-187 331.5,-228 503.5,-228 503.5,-187 331.5,-187"/>
<text text-anchor="start" x="339.5" y="-216" font-family="Helvetica,sans-Serif" font-size="10.00" fill="#000000">GemmInterleaved&lt; strategy,</text>
<text text-anchor="start" x="339.5" y="-205" font-family="Helvetica,sans-Serif" font-size="10.00" fill="#000000"> To, Tr, OutputStage, MergeStep,</text>
<text text-anchor="middle" x="417.5" y="-194" font-family="Helvetica,sans-Serif" font-size="10.00" fill="#000000"> ForceThreadColumns &gt;</text>
</a>
</g>
</g>
<!-- Node1&#45;&gt;Node6 -->
<g id="edge6" class="edge">
<title>Node1&#45;&gt;Node6</title>
<path fill="none" stroke="#191970" d="M291.5288,-207.5C304.6153,-207.5 318.2053,-207.5 331.4064,-207.5"/>
<polygon fill="#191970" stroke="#191970" points="291.1587,-204.0001 281.1587,-207.5 291.1587,-211.0001 291.1587,-204.0001"/>
</g>
<!-- Node7 -->
<g id="node8" class="node">
<title>Node7</title>
<g id="a_node8"><a xlink:href="classarm__gemm_1_1_gemm_interleaved_pretransposed2d.xhtml" target="_top" xlink:title="GemmInterleavedPretransposed2d\l\&lt; strategy, To, Tr \&gt;">
<polygon fill="#ffffff" stroke="#000000" points="324,-137.5 324,-167.5 511,-167.5 511,-137.5 324,-137.5"/>
<text text-anchor="start" x="332" y="-155.5" font-family="Helvetica,sans-Serif" font-size="10.00" fill="#000000">GemmInterleavedPretransposed2d</text>
<text text-anchor="middle" x="417.5" y="-144.5" font-family="Helvetica,sans-Serif" font-size="10.00" fill="#000000">&lt; strategy, To, Tr &gt;</text>
</a>
</g>
</g>
<!-- Node1&#45;&gt;Node7 -->
<g id="edge7" class="edge">
<title>Node1&#45;&gt;Node7</title>
<path fill="none" stroke="#191970" d="M261.1891,-195.5067C270.1442,-193.2644 279.3628,-190.8763 288,-188.5 304.1309,-184.062 307.9163,-182.1059 324,-177.5 335.6306,-174.1693 348.1149,-170.7346 360.0528,-167.5179"/>
<polygon fill="#191970" stroke="#191970" points="260.1028,-192.1698 251.2354,-197.968 261.7832,-198.9652 260.1028,-192.1698"/>
</g>
<!-- Node8 -->
<g id="node9" class="node">
<title>Node8</title>
<g id="a_node9"><a xlink:href="classarm__gemm_1_1_gemv_batched.xhtml" target="_top" xlink:title="GemvBatched\&lt; To, Tr \&gt;">
<polygon fill="#ffffff" stroke="#000000" points="351,-99 351,-118 484,-118 484,-99 351,-99"/>
<text text-anchor="middle" x="417.5" y="-106" font-family="Helvetica,sans-Serif" font-size="10.00" fill="#000000">GemvBatched&lt; To, Tr &gt;</text>
</a>
</g>
</g>
<!-- Node1&#45;&gt;Node8 -->
<g id="edge8" class="edge">
<title>Node1&#45;&gt;Node8</title>
<path fill="none" stroke="#191970" d="M279.9496,-193.585C282.762,-192.0609 285.4617,-190.3718 288,-188.5 313.0291,-170.0432 298.6997,-146.5833 324,-128.5 331.9679,-122.805 341.2294,-118.6727 350.7651,-115.6853"/>
<polygon fill="#191970" stroke="#191970" points="278.2353,-190.5223 270.6441,-197.913 281.1874,-196.8694 278.2353,-190.5223"/>
</g>
<!-- Node9 -->
<g id="node10" class="node">
<title>Node9</title>
<g id="a_node10"><a xlink:href="classarm__gemm_1_1_gemv_pretransposed.xhtml" target="_top" xlink:title="GemvPretransposed\&lt;\l strategy, To, Tr, OutputStage \&gt;">
<polygon fill="#ffffff" stroke="#000000" points="333,-49.5 333,-79.5 502,-79.5 502,-49.5 333,-49.5"/>
<text text-anchor="start" x="341" y="-67.5" font-family="Helvetica,sans-Serif" font-size="10.00" fill="#000000">GemvPretransposed&lt;</text>
<text text-anchor="middle" x="417.5" y="-56.5" font-family="Helvetica,sans-Serif" font-size="10.00" fill="#000000"> strategy, To, Tr, OutputStage &gt;</text>
</a>
</g>
</g>
<!-- Node1&#45;&gt;Node9 -->
<g id="edge9" class="edge">
<title>Node1&#45;&gt;Node9</title>
<path fill="none" stroke="#191970" d="M282.5545,-192.7715C284.4603,-191.4617 286.2824,-190.0409 288,-188.5 322.85,-157.2353 289.4778,-121.1262 324,-89.5 328.2125,-85.6409 332.9553,-82.3658 338.0133,-79.5878"/>
<polygon fill="#191970" stroke="#191970" points="280.6619,-189.822 273.7269,-197.8318 284.1432,-195.895 280.6619,-189.822"/>
</g>
<!-- Node10 -->
<g id="node11" class="node">
<title>Node10</title>
<g id="a_node11"><a xlink:href="classarm__gemm_1_1_quantize_wrapper.xhtml" target="_top" xlink:title="QuantizeWrapper\&lt; To,\l Tr, Tgemm \&gt;">
<polygon fill="#ffffff" stroke="#000000" points="355,-.5 355,-30.5 480,-30.5 480,-.5 355,-.5"/>
<text text-anchor="start" x="363" y="-18.5" font-family="Helvetica,sans-Serif" font-size="10.00" fill="#000000">QuantizeWrapper&lt; To,</text>
<text text-anchor="middle" x="417.5" y="-7.5" font-family="Helvetica,sans-Serif" font-size="10.00" fill="#000000"> Tr, Tgemm &gt;</text>
</a>
</g>
</g>
<!-- Node1&#45;&gt;Node10 -->
<g id="edge10" class="edge">
<title>Node1&#45;&gt;Node10</title>
<path fill="none" stroke="#191970" d="M283.4527,-192.5033C285.0479,-191.266 286.5687,-189.9339 288,-188.5 335.8248,-140.5886 276.6772,-88.9074 324,-40.5 332.3397,-31.9692 343.2455,-26.2473 354.6524,-22.4325"/>
<polygon fill="#191970" stroke="#191970" points="281.4816,-189.609 274.9245,-197.931 285.2401,-195.5144 281.4816,-189.609"/>
</g>
</g>
</svg>
