<?xml version="1.0" encoding="UTF-8" standalone="no"?>
<!DOCTYPE svg PUBLIC "-//W3C//DTD SVG 1.1//EN"
 "http://www.w3.org/Graphics/SVG/1.1/DTD/svg11.dtd">
<!-- Generated by graphviz version 2.40.1 (20161225.0304)
 -->
<!-- Title: Graphical Class Hierarchy Pages: 1 -->
<svg width="314pt" height="1674pt"
 viewBox="0.00 0.00 314.00 1674.00" xmlns="http://www.w3.org/2000/svg" xmlns:xlink="http://www.w3.org/1999/xlink">
<g id="graph0" class="graph" transform="scale(1 1) rotate(0) translate(4 1670)">
<title>Graphical Class Hierarchy</title>
<polygon fill="#ffffff" stroke="transparent" points="-4,4 -4,-1670 310,-1670 310,4 -4,4"/>
<!-- Node0 -->
<g id="node1" class="node">
<title>Node0</title>
<g id="a_node1"><a xlink:href="classarm__compute_1_1graph_1_1_i_node.xhtml" target="_top" xlink:title="Node interface. ">
<polygon fill="#ffffff" stroke="#000000" points="0,-817.5 0,-836.5 45,-836.5 45,-817.5 0,-817.5"/>
<text text-anchor="middle" x="22.5" y="-824.5" font-family="Helvetica,sans-Serif" font-size="10.00" fill="#000000">INode</text>
</a>
</g>
</g>
<!-- Node1 -->
<g id="node2" class="node">
<title>Node1</title>
<g id="a_node2"><a xlink:href="classarm__compute_1_1graph_1_1_activation_layer_node.xhtml" target="_top" xlink:title="Activation Layer node. ">
<polygon fill="#ffffff" stroke="#000000" points="134,-1646.5 134,-1665.5 253,-1665.5 253,-1646.5 134,-1646.5"/>
<text text-anchor="middle" x="193.5" y="-1653.5" font-family="Helvetica,sans-Serif" font-size="10.00" fill="#000000">ActivationLayerNode</text>
</a>
</g>
</g>
<!-- Node0&#45;&gt;Node1 -->
<g id="edge1" class="edge">
<title>Node0&#45;&gt;Node1</title>
<path fill="none" stroke="#191970" d="M23.2344,-846.5775C27.8479,-967.3338 53.5237,-1606.7746 81,-1637 94.3239,-1651.6569 114.4046,-1657.7623 133.9303,-1659.7606"/>
<polygon fill="#191970" stroke="#191970" points="26.7306,-846.4087 22.8543,-836.5485 19.7356,-846.6739 26.7306,-846.4087"/>
</g>
<!-- Node2 -->
<g id="node3" class="node">
<title>Node2</title>
<g id="a_node3"><a xlink:href="classarm__compute_1_1graph_1_1_arg_min_max_layer_node.xhtml" target="_top" xlink:title="Arg Min/Max Layer node. ">
<polygon fill="#ffffff" stroke="#000000" points="132,-1608.5 132,-1627.5 255,-1627.5 255,-1608.5 132,-1608.5"/>
<text text-anchor="middle" x="193.5" y="-1615.5" font-family="Helvetica,sans-Serif" font-size="10.00" fill="#000000">ArgMinMaxLayerNode</text>
</a>
</g>
</g>
<!-- Node0&#45;&gt;Node2 -->
<g id="edge2" class="edge">
<title>Node0&#45;&gt;Node2</title>
<path fill="none" stroke="#191970" d="M22.5731,-846.9913C23.1822,-962.5458 28.8347,-1541.8188 81,-1599 93.8825,-1613.1212 113.0383,-1619.2961 131.9075,-1621.509"/>
<polygon fill="#191970" stroke="#191970" points="26.0721,-846.7503 22.5265,-836.7664 19.0722,-846.7823 26.0721,-846.7503"/>
</g>
<!-- Node3 -->
<g id="node4" class="node">
<title>Node3</title>
<g id="a_node4"><a xlink:href="classarm__compute_1_1graph_1_1_batch_normalization_layer_node.xhtml" target="_top" xlink:title="Batch Normalization Layer node. ">
<polygon fill="#ffffff" stroke="#000000" points="110.5,-1570.5 110.5,-1589.5 276.5,-1589.5 276.5,-1570.5 110.5,-1570.5"/>
<text text-anchor="middle" x="193.5" y="-1577.5" font-family="Helvetica,sans-Serif" font-size="10.00" fill="#000000">BatchNormalizationLayerNode</text>
</a>
</g>
</g>
<!-- Node0&#45;&gt;Node3 -->
<g id="edge3" class="edge">
<title>Node0&#45;&gt;Node3</title>
<path fill="none" stroke="#191970" d="M22.6533,-846.6938C23.7042,-958.1555 31.3837,-1506.8256 81,-1561 88.9601,-1569.6913 99.2972,-1575.3689 110.4764,-1578.9642"/>
<polygon fill="#191970" stroke="#191970" points="26.1519,-846.5133 22.565,-836.5441 19.1522,-846.5742 26.1519,-846.5133"/>
</g>
<!-- Node4 -->
<g id="node5" class="node">
<title>Node4</title>
<g id="a_node5"><a xlink:href="classarm__compute_1_1graph_1_1_bounding_box_transform_layer_node.xhtml" target="_top" xlink:title="Bounding Box Transform Layer node. ">
<polygon fill="#ffffff" stroke="#000000" points="102.5,-1532.5 102.5,-1551.5 284.5,-1551.5 284.5,-1532.5 102.5,-1532.5"/>
<text text-anchor="middle" x="193.5" y="-1539.5" font-family="Helvetica,sans-Serif" font-size="10.00" fill="#000000">BoundingBoxTransformLayerNode</text>
</a>
</g>
</g>
<!-- Node0&#45;&gt;Node4 -->
<g id="edge4" class="edge">
<title>Node0&#45;&gt;Node4</title>
<path fill="none" stroke="#191970" d="M22.7436,-846.675C24.2628,-954.6142 33.9715,-1471.8734 81,-1523 86.9674,-1529.4874 94.2594,-1534.2935 102.2354,-1537.8068"/>
<polygon fill="#191970" stroke="#191970" points="26.2417,-846.5012 22.6087,-836.5487 19.2423,-846.5944 26.2417,-846.5012"/>
</g>
<!-- Node5 -->
<g id="node6" class="node">
<title>Node5</title>
<g id="a_node6"><a xlink:href="classarm__compute_1_1graph_1_1_channel_shuffle_layer_node.xhtml" target="_top" xlink:title="Channel Shuffle Layer node. ">
<polygon fill="#ffffff" stroke="#000000" points="122,-1494.5 122,-1513.5 265,-1513.5 265,-1494.5 122,-1494.5"/>
<text text-anchor="middle" x="193.5" y="-1501.5" font-family="Helvetica,sans-Serif" font-size="10.00" fill="#000000">ChannelShuffleLayerNode</text>
</a>
</g>
</g>
<!-- Node0&#45;&gt;Node5 -->
<g id="edge5" class="edge">
<title>Node0&#45;&gt;Node5</title>
<path fill="none" stroke="#191970" d="M22.8424,-846.5688C24.8459,-950.7081 36.5432,-1436.9022 81,-1485 91.6214,-1496.4913 106.4009,-1502.6997 121.7605,-1505.7914"/>
<polygon fill="#191970" stroke="#191970" points="26.3408,-846.4446 22.6567,-836.511 19.342,-846.5739 26.3408,-846.4446"/>
</g>
<!-- Node6 -->
<g id="node7" class="node">
<title>Node6</title>
<g id="a_node7"><a xlink:href="classarm__compute_1_1graph_1_1_concatenate_layer_node.xhtml" target="_top" xlink:title="Concatenation Layer node. ">
<polygon fill="#ffffff" stroke="#000000" points="128,-1456.5 128,-1475.5 259,-1475.5 259,-1456.5 128,-1456.5"/>
<text text-anchor="middle" x="193.5" y="-1463.5" font-family="Helvetica,sans-Serif" font-size="10.00" fill="#000000">ConcatenateLayerNode</text>
</a>
</g>
</g>
<!-- Node0&#45;&gt;Node6 -->
<g id="edge6" class="edge">
<title>Node0&#45;&gt;Node6</title>
<path fill="none" stroke="#191970" d="M22.9659,-847.0106C25.5109,-948.3632 39.1873,-1402.0073 81,-1447 93.0683,-1459.9861 110.4487,-1466.2144 127.9518,-1468.8228"/>
<polygon fill="#191970" stroke="#191970" points="26.4623,-846.8176 22.7203,-836.9057 19.4644,-846.9878 26.4623,-846.8176"/>
</g>
<!-- Node7 -->
<g id="node8" class="node">
<title>Node7</title>
<g id="a_node8"><a xlink:href="classarm__compute_1_1graph_1_1_const_node.xhtml" target="_top" xlink:title="Const node. ">
<polygon fill="#ffffff" stroke="#000000" points="158.5,-1418.5 158.5,-1437.5 228.5,-1437.5 228.5,-1418.5 158.5,-1418.5"/>
<text text-anchor="middle" x="193.5" y="-1425.5" font-family="Helvetica,sans-Serif" font-size="10.00" fill="#000000">ConstNode</text>
</a>
</g>
</g>
<!-- Node0&#45;&gt;Node7 -->
<g id="edge7" class="edge">
<title>Node0&#45;&gt;Node7</title>
<path fill="none" stroke="#191970" d="M23.095,-846.9874C26.1817,-944.4685 41.7611,-1367.0344 81,-1409 100.3455,-1429.6898 133.1815,-1433.1937 158.4002,-1432.2559"/>
<polygon fill="#191970" stroke="#191970" points="26.5862,-846.6458 22.7798,-836.7584 19.5896,-846.8615 26.5862,-846.6458"/>
</g>
<!-- Node8 -->
<g id="node9" class="node">
<title>Node8</title>
<g id="a_node9"><a xlink:href="classarm__compute_1_1graph_1_1_convolution_layer_node.xhtml" target="_top" xlink:title="Convolution Layer node. ">
<polygon fill="#ffffff" stroke="#000000" points="129.5,-1380.5 129.5,-1399.5 257.5,-1399.5 257.5,-1380.5 129.5,-1380.5"/>
<text text-anchor="middle" x="193.5" y="-1387.5" font-family="Helvetica,sans-Serif" font-size="10.00" fill="#000000">ConvolutionLayerNode</text>
</a>
</g>
</g>
<!-- Node0&#45;&gt;Node8 -->
<g id="edge8" class="edge">
<title>Node0&#45;&gt;Node8</title>
<path fill="none" stroke="#191970" d="M23.2368,-846.837C26.8834,-940.0956 44.3134,-1332.0362 81,-1371 93.4243,-1384.1955 111.3391,-1390.3856 129.2323,-1392.8922"/>
<polygon fill="#191970" stroke="#191970" points="26.7235,-846.4202 22.8441,-836.5611 19.7286,-846.6875 26.7235,-846.4202"/>
</g>
<!-- Node9 -->
<g id="node10" class="node">
<title>Node9</title>
<g id="a_node10"><a xlink:href="classarm__compute_1_1graph_1_1_deconvolution_layer_node.xhtml" target="_top" xlink:title="Deconvolution Layer node. ">
<polygon fill="#ffffff" stroke="#000000" points="123.5,-1342.5 123.5,-1361.5 263.5,-1361.5 263.5,-1342.5 123.5,-1342.5"/>
<text text-anchor="middle" x="193.5" y="-1349.5" font-family="Helvetica,sans-Serif" font-size="10.00" fill="#000000">DeconvolutionLayerNode</text>
</a>
</g>
</g>
<!-- Node0&#45;&gt;Node9 -->
<g id="edge9" class="edge">
<title>Node0&#45;&gt;Node9</title>
<path fill="none" stroke="#191970" d="M24.1244,-846.8127C31.6973,-938.1541 63.8871,-1314.9695 81,-1333 92.1133,-1344.7092 107.5527,-1350.8886 123.4374,-1353.8724"/>
<polygon fill="#191970" stroke="#191970" points="27.6014,-846.388 23.291,-836.7097 20.6251,-846.9636 27.6014,-846.388"/>
</g>
<!-- Node10 -->
<g id="node11" class="node">
<title>Node10</title>
<g id="a_node11"><a xlink:href="classarm__compute_1_1graph_1_1_depth_to_space_layer_node.xhtml" target="_top" xlink:title="DepthToSpace Layer node. ">
<polygon fill="#ffffff" stroke="#000000" points="124.5,-1304.5 124.5,-1323.5 262.5,-1323.5 262.5,-1304.5 124.5,-1304.5"/>
<text text-anchor="middle" x="193.5" y="-1311.5" font-family="Helvetica,sans-Serif" font-size="10.00" fill="#000000">DepthToSpaceLayerNode</text>
</a>
</g>
</g>
<!-- Node0&#45;&gt;Node10 -->
<g id="edge10" class="edge">
<title>Node0&#45;&gt;Node10</title>
<path fill="none" stroke="#191970" d="M23.6072,-846.9553C28.5136,-932.09 49.4556,-1262.0706 81,-1295 92.3729,-1306.8722 108.1969,-1313.0432 124.3903,-1315.962"/>
<polygon fill="#191970" stroke="#191970" points="27.0931,-846.606 23.0328,-836.8201 20.1043,-847.0021 27.0931,-846.606"/>
</g>
<!-- Node11 -->
<g id="node12" class="node">
<title>Node11</title>
<g id="a_node12"><a xlink:href="classarm__compute_1_1graph_1_1_depthwise_convolution_layer_node.xhtml" target="_top" xlink:title="Depthwise Convolution Layer node. ">
<polygon fill="#ffffff" stroke="#000000" points="104,-1266.5 104,-1285.5 283,-1285.5 283,-1266.5 104,-1266.5"/>
<text text-anchor="middle" x="193.5" y="-1273.5" font-family="Helvetica,sans-Serif" font-size="10.00" fill="#000000">DepthwiseConvolutionLayerNode</text>
</a>
</g>
</g>
<!-- Node0&#45;&gt;Node11 -->
<g id="edge11" class="edge">
<title>Node0&#45;&gt;Node11</title>
<path fill="none" stroke="#191970" d="M23.8481,-847.1007C29.459,-928.0261 52.026,-1227.0808 81,-1257 87.4765,-1263.6877 95.3668,-1268.5602 103.9337,-1272.0586"/>
<polygon fill="#191970" stroke="#191970" points="27.318,-846.5398 23.1445,-836.8016 20.3343,-847.0169 27.318,-846.5398"/>
</g>
<!-- Node12 -->
<g id="node13" class="node">
<title>Node12</title>
<g id="a_node13"><a xlink:href="classarm__compute_1_1graph_1_1_dequantization_layer_node.xhtml" target="_top" xlink:title="Dequantize Layer node. ">
<polygon fill="#ffffff" stroke="#000000" points="122,-1228.5 122,-1247.5 265,-1247.5 265,-1228.5 122,-1228.5"/>
<text text-anchor="middle" x="193.5" y="-1235.5" font-family="Helvetica,sans-Serif" font-size="10.00" fill="#000000">DequantizationLayerNode</text>
</a>
</g>
</g>
<!-- Node0&#45;&gt;Node12 -->
<g id="edge12" class="edge">
<title>Node0&#45;&gt;Node12</title>
<path fill="none" stroke="#191970" d="M24.0969,-846.7611C30.4037,-922.5852 54.5308,-1192.0185 81,-1219 91.889,-1230.0998 106.6782,-1236.1788 121.9518,-1239.2725"/>
<polygon fill="#191970" stroke="#191970" points="27.5753,-846.3535 23.2686,-836.6735 20.5988,-846.9264 27.5753,-846.3535"/>
</g>
<!-- Node13 -->
<g id="node14" class="node">
<title>Node13</title>
<g id="a_node14"><a xlink:href="classarm__compute_1_1graph_1_1_detection_output_layer_node.xhtml" target="_top" xlink:title="DetectionOutput Layer node. ">
<polygon fill="#ffffff" stroke="#000000" points="119,-1190.5 119,-1209.5 268,-1209.5 268,-1190.5 119,-1190.5"/>
<text text-anchor="middle" x="193.5" y="-1197.5" font-family="Helvetica,sans-Serif" font-size="10.00" fill="#000000">DetectionOutputLayerNode</text>
</a>
</g>
</g>
<!-- Node0&#45;&gt;Node13 -->
<g id="edge13" class="edge">
<title>Node0&#45;&gt;Node13</title>
<path fill="none" stroke="#191970" d="M22.8602,-846.7329C24.5131,-914.0824 33.5126,-1133.3444 81,-1181 91.2065,-1191.2426 104.7399,-1197.1887 118.873,-1200.4558"/>
<polygon fill="#191970" stroke="#191970" points="26.3573,-846.5538 22.6411,-836.6321 19.3589,-846.7057 26.3573,-846.5538"/>
</g>
<!-- Node14 -->
<g id="node15" class="node">
<title>Node14</title>
<g id="a_node15"><a xlink:href="classarm__compute_1_1graph_1_1_detection_post_process_layer_node.xhtml" target="_top" xlink:title="DetectionPostProcess Layer node. ">
<polygon fill="#ffffff" stroke="#000000" points="106,-1152.5 106,-1171.5 281,-1171.5 281,-1152.5 106,-1152.5"/>
<text text-anchor="middle" x="193.5" y="-1159.5" font-family="Helvetica,sans-Serif" font-size="10.00" fill="#000000">DetectionPostProcessLayerNode</text>
</a>
</g>
</g>
<!-- Node0&#45;&gt;Node14 -->
<g id="edge14" class="edge">
<title>Node0&#45;&gt;Node14</title>
<path fill="none" stroke="#191970" d="M23.284,-846.6068C26.1954,-908.9814 38.5154,-1101.179 81,-1143 88.058,-1149.9478 96.6506,-1154.9064 105.9089,-1158.3878"/>
<polygon fill="#191970" stroke="#191970" points="26.7773,-846.3743 22.8447,-836.5364 19.7839,-846.6794 26.7773,-846.3743"/>
</g>
<!-- Node15 -->
<g id="node16" class="node">
<title>Node15</title>
<g id="a_node16"><a xlink:href="classarm__compute_1_1graph_1_1_dummy_node.xhtml" target="_top" xlink:title="Dummy Layer node. ">
<polygon fill="#ffffff" stroke="#000000" points="153,-1114.5 153,-1133.5 234,-1133.5 234,-1114.5 153,-1114.5"/>
<text text-anchor="middle" x="193.5" y="-1121.5" font-family="Helvetica,sans-Serif" font-size="10.00" fill="#000000">DummyNode</text>
</a>
</g>
</g>
<!-- Node0&#45;&gt;Node15 -->
<g id="edge15" class="edge">
<title>Node0&#45;&gt;Node15</title>
<path fill="none" stroke="#191970" d="M23.8396,-846.8174C28.1404,-904.2578 43.5658,-1069.0374 81,-1105 99.7837,-1123.0453 128.9542,-1127.5652 152.8845,-1127.6935"/>
<polygon fill="#191970" stroke="#191970" points="27.3099,-846.2761 23.1055,-836.5512 20.3277,-846.7754 27.3099,-846.2761"/>
</g>
<!-- Node16 -->
<g id="node17" class="node">
<title>Node16</title>
<g id="a_node17"><a xlink:href="classarm__compute_1_1graph_1_1_eltwise_layer_node.xhtml" target="_top" xlink:title="Eltwise Layer node. ">
<polygon fill="#ffffff" stroke="#000000" points="141.5,-1076.5 141.5,-1095.5 245.5,-1095.5 245.5,-1076.5 141.5,-1076.5"/>
<text text-anchor="middle" x="193.5" y="-1083.5" font-family="Helvetica,sans-Serif" font-size="10.00" fill="#000000">EltwiseLayerNode</text>
</a>
</g>
</g>
<!-- Node0&#45;&gt;Node16 -->
<g id="edge16" class="edge">
<title>Node0&#45;&gt;Node16</title>
<path fill="none" stroke="#191970" d="M24.5501,-846.7972C30.3381,-898.6989 48.5299,-1036.7807 81,-1067 97.0223,-1081.9116 120.1731,-1087.4903 141.3134,-1089.0147"/>
<polygon fill="#191970" stroke="#191970" points="28.0008,-846.1511 23.4489,-836.5839 21.0411,-846.9015 28.0008,-846.1511"/>
</g>
<!-- Node17 -->
<g id="node18" class="node">
<title>Node17</title>
<g id="a_node18"><a xlink:href="classarm__compute_1_1graph_1_1_flatten_layer_node.xhtml" target="_top" xlink:title="Flatten Layer node. ">
<polygon fill="#ffffff" stroke="#000000" points="142,-1038.5 142,-1057.5 245,-1057.5 245,-1038.5 142,-1038.5"/>
<text text-anchor="middle" x="193.5" y="-1045.5" font-family="Helvetica,sans-Serif" font-size="10.00" fill="#000000">FlattenLayerNode</text>
</a>
</g>
</g>
<!-- Node0&#45;&gt;Node17 -->
<g id="edge17" class="edge">
<title>Node0&#45;&gt;Node17</title>
<path fill="none" stroke="#191970" d="M25.4979,-846.6569C32.8932,-892.4897 53.4269,-1004.4181 81,-1029 97.4117,-1043.6312 120.7417,-1049.1465 141.9052,-1050.7003"/>
<polygon fill="#191970" stroke="#191970" points="28.9152,-845.857 23.9045,-836.5219 22.0001,-846.9442 28.9152,-845.857"/>
</g>
<!-- Node18 -->
<g id="node19" class="node">
<title>Node18</title>
<g id="a_node19"><a xlink:href="classarm__compute_1_1graph_1_1_fully_connected_layer_node.xhtml" target="_top" xlink:title="Fully Connected Layer node. ">
<polygon fill="#ffffff" stroke="#000000" points="122,-1000.5 122,-1019.5 265,-1019.5 265,-1000.5 122,-1000.5"/>
<text text-anchor="middle" x="193.5" y="-1007.5" font-family="Helvetica,sans-Serif" font-size="10.00" fill="#000000">FullyConnectedLayerNode</text>
</a>
</g>
</g>
<!-- Node0&#45;&gt;Node18 -->
<g id="edge18" class="edge">
<title>Node0&#45;&gt;Node18</title>
<path fill="none" stroke="#191970" d="M26.8786,-846.6047C36.0436,-885.8534 58.2865,-971.9565 81,-991 92.5358,-1000.6719 107.1374,-1006.2757 121.9678,-1009.3744"/>
<polygon fill="#191970" stroke="#191970" points="30.2468,-845.6333 24.6047,-836.6658 23.4231,-847.1945 30.2468,-845.6333"/>
</g>
<!-- Node19 -->
<g id="node20" class="node">
<title>Node19</title>
<g id="a_node20"><a xlink:href="classarm__compute_1_1graph_1_1_fused_convolution_batch_normalization_node.xhtml" target="_top" xlink:title="Batch Normalization node. ">
<polygon fill="#ffffff" stroke="#000000" points="81,-962.5 81,-981.5 306,-981.5 306,-962.5 81,-962.5"/>
<text text-anchor="middle" x="193.5" y="-969.5" font-family="Helvetica,sans-Serif" font-size="10.00" fill="#000000">FusedConvolutionBatchNormalizationNode</text>
</a>
</g>
</g>
<!-- Node0&#45;&gt;Node19 -->
<g id="edge19" class="edge">
<title>Node0&#45;&gt;Node19</title>
<path fill="none" stroke="#191970" d="M25.7715,-846.7149C31.5701,-875.0194 46.4677,-926.6546 81,-953 85.8819,-956.7245 91.2311,-959.8256 96.8629,-962.3996"/>
<polygon fill="#191970" stroke="#191970" points="29.1945,-845.9782 23.9187,-836.7903 22.3134,-847.2628 29.1945,-845.9782"/>
</g>
<!-- Node20 -->
<g id="node21" class="node">
<title>Node20</title>
<g id="a_node21"><a xlink:href="classarm__compute_1_1graph_1_1_fused_depthwise_convolution_batch_normalization_node.xhtml" target="_top" xlink:title="Fused Depthwise Convolution Batch Normalization node. ">
<polygon fill="#ffffff" stroke="#000000" points="116,-913 116,-943 271,-943 271,-913 116,-913"/>
<text text-anchor="start" x="124" y="-931" font-family="Helvetica,sans-Serif" font-size="10.00" fill="#000000">FusedDepthwiseConvolution</text>
<text text-anchor="middle" x="193.5" y="-920" font-family="Helvetica,sans-Serif" font-size="10.00" fill="#000000">BatchNormalizationNode</text>
</a>
</g>
</g>
<!-- Node0&#45;&gt;Node20 -->
<g id="edge20" class="edge">
<title>Node0&#45;&gt;Node20</title>
<path fill="none" stroke="#191970" d="M32.0554,-845.9578C41.9056,-863.5099 58.9235,-888.9514 81,-903 91.5498,-909.7135 103.6539,-914.639 115.9245,-918.2495"/>
<polygon fill="#191970" stroke="#191970" points="34.8987,-843.8523 27.0999,-836.6809 28.7244,-847.1505 34.8987,-843.8523"/>
</g>
<!-- Node21 -->
<g id="node22" class="node">
<title>Node21</title>
<g id="a_node22"><a xlink:href="classarm__compute_1_1graph_1_1_generate_proposals_layer_node.xhtml" target="_top" xlink:title="Generate Proposals Layer node. ">
<polygon fill="#ffffff" stroke="#000000" points="113,-874.5 113,-893.5 274,-893.5 274,-874.5 113,-874.5"/>
<text text-anchor="middle" x="193.5" y="-881.5" font-family="Helvetica,sans-Serif" font-size="10.00" fill="#000000">GenerateProposalsLayerNode</text>
</a>
</g>
</g>
<!-- Node0&#45;&gt;Node21 -->
<g id="edge21" class="edge">
<title>Node0&#45;&gt;Node21</title>
<path fill="none" stroke="#191970" d="M42.523,-842.9482C53.3309,-850.7701 67.2478,-859.6392 81,-865 91.0581,-868.9208 101.9324,-872.0333 112.8196,-874.504"/>
<polygon fill="#191970" stroke="#191970" points="44.3432,-839.9377 34.2475,-836.724 40.1356,-845.532 44.3432,-839.9377"/>
</g>
<!-- Node22 -->
<g id="node23" class="node">
<title>Node22</title>
<g id="a_node23"><a xlink:href="classarm__compute_1_1graph_1_1_input_node.xhtml" target="_top" xlink:title="Input Layer node. ">
<polygon fill="#ffffff" stroke="#000000" points="160,-836.5 160,-855.5 227,-855.5 227,-836.5 160,-836.5"/>
<text text-anchor="middle" x="193.5" y="-843.5" font-family="Helvetica,sans-Serif" font-size="10.00" fill="#000000">InputNode</text>
</a>
</g>
</g>
<!-- Node0&#45;&gt;Node22 -->
<g id="edge22" class="edge">
<title>Node0&#45;&gt;Node22</title>
<path fill="none" stroke="#191970" d="M55.18,-830.6311C85.1873,-833.9653 129.4658,-838.8851 159.7933,-842.2548"/>
<polygon fill="#191970" stroke="#191970" points="55.5329,-827.1489 45.2075,-829.5231 54.7598,-834.1061 55.5329,-827.1489"/>
</g>
<!-- Node23 -->
<g id="node24" class="node">
<title>Node23</title>
<g id="a_node24"><a xlink:href="classarm__compute_1_1graph_1_1_l2_normalize_layer_node.xhtml" target="_top" xlink:title="L2Normalize Layer node. ">
<polygon fill="#ffffff" stroke="#000000" points="128,-798.5 128,-817.5 259,-817.5 259,-798.5 128,-798.5"/>
<text text-anchor="middle" x="193.5" y="-805.5" font-family="Helvetica,sans-Serif" font-size="10.00" fill="#000000">L2NormalizeLayerNode</text>
</a>
</g>
</g>
<!-- Node0&#45;&gt;Node23 -->
<g id="edge23" class="edge">
<title>Node0&#45;&gt;Node23</title>
<path fill="none" stroke="#191970" d="M55.2957,-823.356C75.8386,-821.0735 103.0369,-818.0515 127.8683,-815.2924"/>
<polygon fill="#191970" stroke="#191970" points="54.7598,-819.894 45.2075,-824.4769 55.5329,-826.8511 54.7598,-819.894"/>
</g>
<!-- Node24 -->
<g id="node25" class="node">
<title>Node24</title>
<g id="a_node25"><a xlink:href="classarm__compute_1_1graph_1_1_normalization_layer_node.xhtml" target="_top" xlink:title="Normalization Layer node. ">
<polygon fill="#ffffff" stroke="#000000" points="124.5,-760.5 124.5,-779.5 262.5,-779.5 262.5,-760.5 124.5,-760.5"/>
<text text-anchor="middle" x="193.5" y="-767.5" font-family="Helvetica,sans-Serif" font-size="10.00" fill="#000000">NormalizationLayerNode</text>
</a>
</g>
</g>
<!-- Node0&#45;&gt;Node24 -->
<g id="edge24" class="edge">
<title>Node0&#45;&gt;Node24</title>
<path fill="none" stroke="#191970" d="M42.523,-811.0518C53.3309,-803.2299 67.2478,-794.3608 81,-789 94.6569,-783.6764 109.8186,-779.8429 124.4739,-777.0829"/>
<polygon fill="#191970" stroke="#191970" points="40.1356,-808.468 34.2475,-817.276 44.3432,-814.0623 40.1356,-808.468"/>
</g>
<!-- Node25 -->
<g id="node26" class="node">
<title>Node25</title>
<g id="a_node26"><a xlink:href="classarm__compute_1_1graph_1_1_normalize_planar_y_u_v_layer_node.xhtml" target="_top" xlink:title="Batch Normalization Layer node. ">
<polygon fill="#ffffff" stroke="#000000" points="108.5,-722.5 108.5,-741.5 278.5,-741.5 278.5,-722.5 108.5,-722.5"/>
<text text-anchor="middle" x="193.5" y="-729.5" font-family="Helvetica,sans-Serif" font-size="10.00" fill="#000000">NormalizePlanarYUVLayerNode</text>
</a>
</g>
</g>
<!-- Node0&#45;&gt;Node25 -->
<g id="edge25" class="edge">
<title>Node0&#45;&gt;Node25</title>
<path fill="none" stroke="#191970" d="M31.7426,-808.069C41.4527,-790.3212 58.4507,-764.5488 81,-751 89.4045,-745.9502 98.7649,-742.1428 108.3974,-739.2863"/>
<polygon fill="#191970" stroke="#191970" points="28.3801,-806.95 26.8807,-817.4382 34.5933,-810.1742 28.3801,-806.95"/>
</g>
<!-- Node26 -->
<g id="node27" class="node">
<title>Node26</title>
<g id="a_node27"><a xlink:href="classarm__compute_1_1graph_1_1_output_node.xhtml" target="_top" xlink:title="Output Layer node. ">
<polygon fill="#ffffff" stroke="#000000" points="156,-684.5 156,-703.5 231,-703.5 231,-684.5 156,-684.5"/>
<text text-anchor="middle" x="193.5" y="-691.5" font-family="Helvetica,sans-Serif" font-size="10.00" fill="#000000">OutputNode</text>
</a>
</g>
</g>
<!-- Node0&#45;&gt;Node26 -->
<g id="edge26" class="edge">
<title>Node0&#45;&gt;Node26</title>
<path fill="none" stroke="#191970" d="M26.7269,-807.667C33.4716,-781.7243 49.2756,-736.2278 81,-713 102.4159,-697.3199 132.2355,-692.8491 155.7936,-692.1491"/>
<polygon fill="#191970" stroke="#191970" points="23.3056,-806.9251 24.371,-817.4662 30.1117,-808.5614 23.3056,-806.9251"/>
</g>
<!-- Node27 -->
<g id="node28" class="node">
<title>Node27</title>
<g id="a_node28"><a xlink:href="classarm__compute_1_1graph_1_1_pad_layer_node.xhtml" target="_top" xlink:title="Pad Layer node. ">
<polygon fill="#ffffff" stroke="#000000" points="150.5,-646.5 150.5,-665.5 236.5,-665.5 236.5,-646.5 150.5,-646.5"/>
<text text-anchor="middle" x="193.5" y="-653.5" font-family="Helvetica,sans-Serif" font-size="10.00" fill="#000000">PadLayerNode</text>
</a>
</g>
</g>
<!-- Node0&#45;&gt;Node27 -->
<g id="edge27" class="edge">
<title>Node0&#45;&gt;Node27</title>
<path fill="none" stroke="#191970" d="M24.0395,-807.0967C27.7238,-774.1158 40.0733,-708.46 81,-675 100.1689,-659.3283 127.4402,-654.4311 150.3313,-653.5227"/>
<polygon fill="#191970" stroke="#191970" points="20.5323,-807.0058 23.065,-817.2934 27.5006,-807.6718 20.5323,-807.0058"/>
</g>
<!-- Node28 -->
<g id="node29" class="node">
<title>Node28</title>
<g id="a_node29"><a xlink:href="classarm__compute_1_1graph_1_1_permute_layer_node.xhtml" target="_top" xlink:title="Permute Layer node. ">
<polygon fill="#ffffff" stroke="#000000" points="138.5,-608.5 138.5,-627.5 248.5,-627.5 248.5,-608.5 138.5,-608.5"/>
<text text-anchor="middle" x="193.5" y="-615.5" font-family="Helvetica,sans-Serif" font-size="10.00" fill="#000000">PermuteLayerNode</text>
</a>
</g>
</g>
<!-- Node0&#45;&gt;Node28 -->
<g id="edge28" class="edge">
<title>Node0&#45;&gt;Node28</title>
<path fill="none" stroke="#191970" d="M25.8825,-807.3257C33.8247,-763.481 54.975,-659.8124 81,-637 96.5657,-623.3558 118.1693,-617.6848 138.2878,-615.7512"/>
<polygon fill="#191970" stroke="#191970" points="22.4096,-806.866 24.1142,-817.3228 29.3026,-808.0853 22.4096,-806.866"/>
</g>
<!-- Node29 -->
<g id="node30" class="node">
<title>Node29</title>
<g id="a_node30"><a xlink:href="classarm__compute_1_1graph_1_1_pooling_layer_node.xhtml" target="_top" xlink:title="Pooling Layer node. ">
<polygon fill="#ffffff" stroke="#000000" points="141,-570.5 141,-589.5 246,-589.5 246,-570.5 141,-570.5"/>
<text text-anchor="middle" x="193.5" y="-577.5" font-family="Helvetica,sans-Serif" font-size="10.00" fill="#000000">PoolingLayerNode</text>
</a>
</g>
</g>
<!-- Node0&#45;&gt;Node29 -->
<g id="edge29" class="edge">
<title>Node0&#45;&gt;Node29</title>
<path fill="none" stroke="#191970" d="M24.8235,-807.1963C31.1102,-757.1233 50.0918,-627.4194 81,-599 96.9662,-584.3194 119.8564,-578.7215 140.8263,-577.1221"/>
<polygon fill="#191970" stroke="#191970" points="21.32,-807.0128 23.5858,-817.3625 28.2687,-807.8588 21.32,-807.0128"/>
</g>
<!-- Node30 -->
<g id="node31" class="node">
<title>Node30</title>
<g id="a_node31"><a xlink:href="classarm__compute_1_1graph_1_1_p_relu_layer_node.xhtml" target="_top" xlink:title="PRelu Layer node. ">
<polygon fill="#ffffff" stroke="#000000" points="145.5,-532.5 145.5,-551.5 241.5,-551.5 241.5,-532.5 145.5,-532.5"/>
<text text-anchor="middle" x="193.5" y="-539.5" font-family="Helvetica,sans-Serif" font-size="10.00" fill="#000000">PReluLayerNode</text>
</a>
</g>
</g>
<!-- Node0&#45;&gt;Node30 -->
<g id="edge30" class="edge">
<title>Node0&#45;&gt;Node30</title>
<path fill="none" stroke="#191970" d="M24.0342,-807.2897C28.7799,-751.6434 45.1158,-595.1618 81,-561 97.9287,-544.8839 123.1533,-539.588 145.4294,-538.5615"/>
<polygon fill="#191970" stroke="#191970" points="20.5438,-807.0296 23.2157,-817.282 27.5205,-807.6011 20.5438,-807.0296"/>
</g>
<!-- Node31 -->
<g id="node32" class="node">
<title>Node31</title>
<g id="a_node32"><a xlink:href="classarm__compute_1_1graph_1_1_print_layer_node.xhtml" target="_top" xlink:title="Print Layer node. ">
<polygon fill="#ffffff" stroke="#000000" points="147.5,-494.5 147.5,-513.5 239.5,-513.5 239.5,-494.5 147.5,-494.5"/>
<text text-anchor="middle" x="193.5" y="-501.5" font-family="Helvetica,sans-Serif" font-size="10.00" fill="#000000">PrintLayerNode</text>
</a>
</g>
</g>
<!-- Node0&#45;&gt;Node31 -->
<g id="edge31" class="edge">
<title>Node0&#45;&gt;Node31</title>
<path fill="none" stroke="#191970" d="M23.4647,-806.9494C26.8366,-745.7141 40.1981,-562.8821 81,-523 98.2105,-506.1775 124.4255,-501.0434 147.2211,-500.2922"/>
<polygon fill="#191970" stroke="#191970" points="19.9556,-807.035 22.9325,-817.203 26.9462,-807.3979 19.9556,-807.035"/>
</g>
<!-- Node32 -->
<g id="node33" class="node">
<title>Node32</title>
<g id="a_node33"><a xlink:href="classarm__compute_1_1graph_1_1_prior_box_layer_node.xhtml" target="_top" xlink:title="PriorBox Layer node. ">
<polygon fill="#ffffff" stroke="#000000" points="138.5,-456.5 138.5,-475.5 248.5,-475.5 248.5,-456.5 138.5,-456.5"/>
<text text-anchor="middle" x="193.5" y="-463.5" font-family="Helvetica,sans-Serif" font-size="10.00" fill="#000000">PriorBoxLayerNode</text>
</a>
</g>
</g>
<!-- Node0&#45;&gt;Node32 -->
<g id="edge32" class="edge">
<title>Node0&#45;&gt;Node32</title>
<path fill="none" stroke="#191970" d="M22.9913,-807.0919C25.0475,-741.0447 35.1447,-530.7589 81,-485 95.9323,-470.099 117.9108,-464.3078 138.4884,-462.6257"/>
<polygon fill="#191970" stroke="#191970" points="19.4851,-807.2672 22.7019,-817.3619 26.4823,-807.4645 19.4851,-807.2672"/>
</g>
<!-- Node33 -->
<g id="node34" class="node">
<title>Node33</title>
<g id="a_node34"><a xlink:href="classarm__compute_1_1graph_1_1_quantization_layer_node.xhtml" target="_top" xlink:title="Quantization Layer node. ">
<polygon fill="#ffffff" stroke="#000000" points="128,-418.5 128,-437.5 259,-437.5 259,-418.5 128,-418.5"/>
<text text-anchor="middle" x="193.5" y="-425.5" font-family="Helvetica,sans-Serif" font-size="10.00" fill="#000000">QuantizationLayerNode</text>
</a>
</g>
</g>
<!-- Node0&#45;&gt;Node33 -->
<g id="edge33" class="edge">
<title>Node0&#45;&gt;Node33</title>
<path fill="none" stroke="#191970" d="M24.2237,-806.9022C30.819,-732.1322 55.3714,-473.0045 81,-447 93.305,-434.5145 110.5471,-428.3909 127.8423,-425.7226"/>
<polygon fill="#191970" stroke="#191970" points="20.703,-806.9895 23.322,-817.2555 27.6766,-807.5969 20.703,-806.9895"/>
</g>
<!-- Node34 -->
<g id="node35" class="node">
<title>Node34</title>
<g id="a_node35"><a xlink:href="classarm__compute_1_1graph_1_1_reduction_layer_node.xhtml" target="_top" xlink:title="Reduction Operation node. ">
<polygon fill="#ffffff" stroke="#000000" points="135,-380.5 135,-399.5 252,-399.5 252,-380.5 135,-380.5"/>
<text text-anchor="middle" x="193.5" y="-387.5" font-family="Helvetica,sans-Serif" font-size="10.00" fill="#000000">ReductionLayerNode</text>
</a>
</g>
</g>
<!-- Node0&#45;&gt;Node34 -->
<g id="edge34" class="edge">
<title>Node0&#45;&gt;Node34</title>
<path fill="none" stroke="#191970" d="M23.8892,-807.4581C29.6601,-728.7827 52.7639,-438.0456 81,-409 94.876,-394.7262 115.1954,-388.7313 134.7606,-386.715"/>
<polygon fill="#191970" stroke="#191970" points="20.3956,-807.2444 23.165,-817.4709 27.3773,-807.7495 20.3956,-807.2444"/>
</g>
<!-- Node35 -->
<g id="node36" class="node">
<title>Node35</title>
<g id="a_node36"><a xlink:href="classarm__compute_1_1graph_1_1_reorg_layer_node.xhtml" target="_top" xlink:title="Reorg Layer node. ">
<polygon fill="#ffffff" stroke="#000000" points="145,-342.5 145,-361.5 242,-361.5 242,-342.5 145,-342.5"/>
<text text-anchor="middle" x="193.5" y="-349.5" font-family="Helvetica,sans-Serif" font-size="10.00" fill="#000000">ReorgLayerNode</text>
</a>
</g>
</g>
<!-- Node0&#45;&gt;Node35 -->
<g id="edge35" class="edge">
<title>Node0&#45;&gt;Node35</title>
<path fill="none" stroke="#191970" d="M23.6604,-807.2996C28.7508,-723.9385 50.2313,-403.0157 81,-371 97.1959,-354.1477 122.3634,-348.7943 144.7907,-347.9198"/>
<polygon fill="#191970" stroke="#191970" points="20.1578,-807.2388 23.0516,-817.4308 27.1452,-807.6587 20.1578,-807.2388"/>
</g>
<!-- Node36 -->
<g id="node37" class="node">
<title>Node36</title>
<g id="a_node37"><a xlink:href="classarm__compute_1_1graph_1_1_reshape_layer_node.xhtml" target="_top" xlink:title="Reshape Layer node. ">
<polygon fill="#ffffff" stroke="#000000" points="138.5,-304.5 138.5,-323.5 248.5,-323.5 248.5,-304.5 138.5,-304.5"/>
<text text-anchor="middle" x="193.5" y="-311.5" font-family="Helvetica,sans-Serif" font-size="10.00" fill="#000000">ReshapeLayerNode</text>
</a>
</g>
</g>
<!-- Node0&#45;&gt;Node36 -->
<g id="edge36" class="edge">
<title>Node0&#45;&gt;Node36</title>
<path fill="none" stroke="#191970" d="M23.454,-807.3515C27.885,-719.8051 47.6658,-368.0243 81,-333 95.6117,-317.6475 117.6624,-311.8094 138.381,-310.2144"/>
<polygon fill="#191970" stroke="#191970" points="19.9508,-807.3316 22.9502,-817.4929 26.9421,-807.679 19.9508,-807.3316"/>
</g>
<!-- Node37 -->
<g id="node38" class="node">
<title>Node37</title>
<g id="a_node38"><a xlink:href="classarm__compute_1_1graph_1_1_resize_layer_node.xhtml" target="_top" xlink:title="Resize Layer node. ">
<polygon fill="#ffffff" stroke="#000000" points="143,-266.5 143,-285.5 244,-285.5 244,-266.5 143,-266.5"/>
<text text-anchor="middle" x="193.5" y="-273.5" font-family="Helvetica,sans-Serif" font-size="10.00" fill="#000000">ResizeLayerNode</text>
</a>
</g>
</g>
<!-- Node0&#45;&gt;Node37 -->
<g id="edge37" class="edge">
<title>Node0&#45;&gt;Node37</title>
<path fill="none" stroke="#191970" d="M23.2936,-807.013C27.1407,-714.7616 45.1441,-332.9902 81,-295 96.6351,-278.4342 120.9253,-272.9176 142.9394,-271.8661"/>
<polygon fill="#191970" stroke="#191970" points="19.7882,-807.0769 22.8774,-817.2114 26.7824,-807.3624 19.7882,-807.0769"/>
</g>
<!-- Node38 -->
<g id="node39" class="node">
<title>Node38</title>
<g id="a_node39"><a xlink:href="classarm__compute_1_1graph_1_1_r_o_i_align_layer_node.xhtml" target="_top" xlink:title="ROI Align node. ">
<polygon fill="#ffffff" stroke="#000000" points="138,-228.5 138,-247.5 249,-247.5 249,-228.5 138,-228.5"/>
<text text-anchor="middle" x="193.5" y="-235.5" font-family="Helvetica,sans-Serif" font-size="10.00" fill="#000000">ROIAlignLayerNode</text>
</a>
</g>
</g>
<!-- Node0&#45;&gt;Node38 -->
<g id="edge38" class="edge">
<title>Node0&#45;&gt;Node38</title>
<path fill="none" stroke="#191970" d="M23.1256,-807.4235C26.3576,-711.9462 42.519,-298.0688 81,-257 95.4238,-241.6062 117.3168,-235.7323 137.9681,-234.1215"/>
<polygon fill="#191970" stroke="#191970" points="19.6268,-807.3321 22.7949,-817.4422 26.623,-807.5631 19.6268,-807.3321"/>
</g>
<!-- Node39 -->
<g id="node40" class="node">
<title>Node39</title>
<g id="a_node40"><a xlink:href="classarm__compute_1_1graph_1_1_slice_layer_node.xhtml" target="_top" xlink:title="Slice Layer node. ">
<polygon fill="#ffffff" stroke="#000000" points="147.5,-190.5 147.5,-209.5 239.5,-209.5 239.5,-190.5 147.5,-190.5"/>
<text text-anchor="middle" x="193.5" y="-197.5" font-family="Helvetica,sans-Serif" font-size="10.00" fill="#000000">SliceLayerNode</text>
</a>
</g>
</g>
<!-- Node0&#45;&gt;Node39 -->
<g id="edge39" class="edge">
<title>Node0&#45;&gt;Node39</title>
<path fill="none" stroke="#191970" d="M23.0029,-807.0721C25.7109,-707.077 39.9903,-263.047 81,-219 97.6019,-201.1685 124.2211,-196.0858 147.399,-195.6175"/>
<polygon fill="#191970" stroke="#191970" points="19.4985,-807.197 22.7347,-817.2855 26.4961,-807.3808 19.4985,-807.197"/>
</g>
<!-- Node40 -->
<g id="node41" class="node">
<title>Node40</title>
<g id="a_node41"><a xlink:href="classarm__compute_1_1graph_1_1_softmax_layer_node.xhtml" target="_top" xlink:title="Softmax Layer node. ">
<polygon fill="#ffffff" stroke="#000000" points="138.5,-152.5 138.5,-171.5 248.5,-171.5 248.5,-152.5 138.5,-152.5"/>
<text text-anchor="middle" x="193.5" y="-159.5" font-family="Helvetica,sans-Serif" font-size="10.00" fill="#000000">SoftmaxLayerNode</text>
</a>
</g>
</g>
<!-- Node0&#45;&gt;Node40 -->
<g id="edge40" class="edge">
<title>Node0&#45;&gt;Node40</title>
<path fill="none" stroke="#191970" d="M22.8827,-807.135C25.0628,-703.5296 37.4011,-228.0922 81,-181 95.466,-165.3749 117.6205,-159.5221 138.4554,-157.9896"/>
<polygon fill="#191970" stroke="#191970" points="19.3826,-807.108 22.6792,-817.1769 26.3812,-807.2499 19.3826,-807.108"/>
</g>
<!-- Node41 -->
<g id="node42" class="node">
<title>Node41</title>
<g id="a_node42"><a xlink:href="classarm__compute_1_1graph_1_1_split_layer_node.xhtml" target="_top" xlink:title="Split Layer node. ">
<polygon fill="#ffffff" stroke="#000000" points="148,-114.5 148,-133.5 239,-133.5 239,-114.5 148,-114.5"/>
<text text-anchor="middle" x="193.5" y="-121.5" font-family="Helvetica,sans-Serif" font-size="10.00" fill="#000000">SplitLayerNode</text>
</a>
</g>
</g>
<!-- Node0&#45;&gt;Node41 -->
<g id="edge41" class="edge">
<title>Node0&#45;&gt;Node41</title>
<path fill="none" stroke="#191970" d="M22.7742,-807.3269C24.4457,-700.5105 34.7886,-193.1647 81,-143 97.6414,-124.935 124.5561,-119.9127 147.8874,-119.5364"/>
<polygon fill="#191970" stroke="#191970" points="19.2741,-807.3154 22.6247,-817.3664 26.2733,-807.4197 19.2741,-807.3154"/>
</g>
<!-- Node42 -->
<g id="node43" class="node">
<title>Node42</title>
<g id="a_node43"><a xlink:href="classarm__compute_1_1graph_1_1_stack_layer_node.xhtml" target="_top" xlink:title="Stack Layer node. ">
<polygon fill="#ffffff" stroke="#000000" points="145.5,-76.5 145.5,-95.5 241.5,-95.5 241.5,-76.5 145.5,-76.5"/>
<text text-anchor="middle" x="193.5" y="-83.5" font-family="Helvetica,sans-Serif" font-size="10.00" fill="#000000">StackLayerNode</text>
</a>
</g>
</g>
<!-- Node0&#45;&gt;Node42 -->
<g id="edge42" class="edge">
<title>Node0&#45;&gt;Node42</title>
<path fill="none" stroke="#191970" d="M22.6811,-807.2804C23.879,-696.85 32.206,-158.2063 81,-105 96.9985,-87.5548 122.5746,-82.2563 145.3006,-81.5656"/>
<polygon fill="#191970" stroke="#191970" points="19.1807,-807.3203 22.5793,-817.3552 26.1803,-807.3911 19.1807,-807.3203"/>
</g>
<!-- Node43 -->
<g id="node44" class="node">
<title>Node43</title>
<g id="a_node44"><a xlink:href="classarm__compute_1_1graph_1_1_strided_slice_layer_node.xhtml" target="_top" xlink:title="Slice Layer node. ">
<polygon fill="#ffffff" stroke="#000000" points="130,-38.5 130,-57.5 257,-57.5 257,-38.5 130,-38.5"/>
<text text-anchor="middle" x="193.5" y="-45.5" font-family="Helvetica,sans-Serif" font-size="10.00" fill="#000000">StridedSliceLayerNode</text>
</a>
</g>
</g>
<!-- Node0&#45;&gt;Node43 -->
<g id="edge43" class="edge">
<title>Node0&#45;&gt;Node43</title>
<path fill="none" stroke="#191970" d="M22.5964,-807.3187C23.3371,-693.556 29.6074,-123.2669 81,-67 93.4234,-53.3984 111.6674,-47.1717 129.8634,-44.7566"/>
<polygon fill="#191970" stroke="#191970" points="19.0962,-807.3648 22.5381,-817.385 26.0961,-807.4055 19.0962,-807.3648"/>
</g>
<!-- Node44 -->
<g id="node45" class="node">
<title>Node44</title>
<g id="a_node45"><a xlink:href="classarm__compute_1_1graph_1_1_unary_eltwise_layer_node.xhtml" target="_top" xlink:title="Unary Eltwise Layer node. ">
<polygon fill="#ffffff" stroke="#000000" points="126.5,-.5 126.5,-19.5 260.5,-19.5 260.5,-.5 126.5,-.5"/>
<text text-anchor="middle" x="193.5" y="-7.5" font-family="Helvetica,sans-Serif" font-size="10.00" fill="#000000">UnaryEltwiseLayerNode</text>
</a>
</g>
</g>
<!-- Node0&#45;&gt;Node44 -->
<g id="edge44" class="edge">
<title>Node0&#45;&gt;Node44</title>
<path fill="none" stroke="#191970" d="M23.2739,-806.9734C28.0282,-686.1601 53.9681,-58.7042 81,-29 92.5986,-16.2547 109.3069,-9.9779 126.3122,-7.245"/>
<polygon fill="#191970" stroke="#191970" points="19.7629,-807.1874 22.8701,-817.3164 26.7576,-807.4605 19.7629,-807.1874"/>
</g>
</g>
</svg>
