<?xml version="1.0" encoding="UTF-8" standalone="no"?>
<!DOCTYPE svg PUBLIC "-//W3C//DTD SVG 1.1//EN"
 "http://www.w3.org/Graphics/SVG/1.1/DTD/svg11.dtd">
<!-- Generated by graphviz version 2.40.1 (20161225.0304)
 -->
<!-- Title: StreamHints Pages: 1 -->
<svg width="516pt" height="106pt"
 viewBox="0.00 0.00 515.50 106.00" xmlns="http://www.w3.org/2000/svg" xmlns:xlink="http://www.w3.org/1999/xlink">
<g id="graph0" class="graph" transform="scale(1 1) rotate(0) translate(4 102)">
<title>StreamHints</title>
<polygon fill="#ffffff" stroke="transparent" points="-4,4 -4,-102 511.5,-102 511.5,4 -4,4"/>
<!-- Node0 -->
<g id="node1" class="node">
<title>Node0</title>
<polygon fill="#bfbfbf" stroke="#000000" points="137,-.5 137,-19.5 214,-19.5 214,-.5 137,-.5"/>
<text text-anchor="middle" x="175.5" y="-7.5" font-family="Helvetica,sans-Serif" font-size="10.00" fill="#000000">StreamHints</text>
</g>
<!-- Node1 -->
<g id="node2" class="node">
<title>Node1</title>
<polygon fill="#ffffff" stroke="#bfbfbf" points="0,-78.5 0,-97.5 47,-97.5 47,-78.5 0,-78.5"/>
<text text-anchor="middle" x="23.5" y="-85.5" font-family="Helvetica,sans-Serif" font-size="10.00" fill="#000000">Target</text>
</g>
<!-- Node1&#45;&gt;Node0 -->
<g id="edge1" class="edge">
<title>Node1&#45;&gt;Node0</title>
<path fill="none" stroke="#9a32cd" stroke-dasharray="5,2" d="M34.8161,-69.9842C42.4965,-59.1812 53.5844,-46.0254 66.5,-38 87.7419,-24.8009 114.9919,-17.8009 136.9314,-14.1007"/>
<polygon fill="#9a32cd" stroke="#9a32cd" points="31.873,-68.0887 29.2007,-78.3409 37.6831,-71.9929 31.873,-68.0887"/>
<text text-anchor="middle" x="95" y="-46.5" font-family="Helvetica,sans-Serif" font-size="10.00" fill="#000000"> target_hint</text>
</g>
<!-- Node2 -->
<g id="node3" class="node">
<title>Node2</title>
<polygon fill="#ffffff" stroke="#bfbfbf" points="65.5,-78.5 65.5,-97.5 145.5,-97.5 145.5,-78.5 65.5,-78.5"/>
<text text-anchor="middle" x="105.5" y="-85.5" font-family="Helvetica,sans-Serif" font-size="10.00" fill="#000000">FastMathHint</text>
</g>
<!-- Node2&#45;&gt;Node0 -->
<g id="edge2" class="edge">
<title>Node2&#45;&gt;Node0</title>
<path fill="none" stroke="#9a32cd" stroke-dasharray="5,2" d="M119.4285,-69.9982C127.1446,-60.2904 137.0615,-48.2361 146.5,-38 152.3828,-31.6201 159.3705,-24.8514 165.0127,-19.5674"/>
<polygon fill="#9a32cd" stroke="#9a32cd" points="116.4623,-68.1083 113.0378,-78.1344 121.9673,-72.4322 116.4623,-68.1083"/>
<text text-anchor="middle" x="185" y="-46.5" font-family="Helvetica,sans-Serif" font-size="10.00" fill="#000000"> fast_math_hint</text>
</g>
<!-- Node3 -->
<g id="node4" class="node">
<title>Node3</title>
<polygon fill="#ffffff" stroke="#bfbfbf" points="164,-78.5 164,-97.5 327,-97.5 327,-78.5 164,-78.5"/>
<text text-anchor="middle" x="245.5" y="-85.5" font-family="Helvetica,sans-Serif" font-size="10.00" fill="#000000">DepthwiseConvolutionMethod</text>
</g>
<!-- Node3&#45;&gt;Node0 -->
<g id="edge3" class="edge">
<title>Node3&#45;&gt;Node0</title>
<path fill="none" stroke="#9a32cd" stroke-dasharray="5,2" d="M240.0513,-68.316C236.5531,-58.3746 231.1979,-46.6258 223.5,-38 216.6909,-30.3701 207.2911,-24.2582 198.6134,-19.7153"/>
<polygon fill="#9a32cd" stroke="#9a32cd" points="236.8072,-69.668 243.1412,-78.1609 243.4859,-67.5717 236.8072,-69.668"/>
<text text-anchor="start" x="236.5" y="-52" font-family="Helvetica,sans-Serif" font-size="10.00" fill="#000000"> depthwise_convolution</text>
<text text-anchor="middle" x="294.5" y="-41" font-family="Helvetica,sans-Serif" font-size="10.00" fill="#000000">_method_hint</text>
</g>
<!-- Node4 -->
<g id="node5" class="node">
<title>Node4</title>
<polygon fill="#ffffff" stroke="#bfbfbf" points="345,-78.5 345,-97.5 456,-97.5 456,-78.5 345,-78.5"/>
<text text-anchor="middle" x="400.5" y="-85.5" font-family="Helvetica,sans-Serif" font-size="10.00" fill="#000000">ConvolutionMethod</text>
</g>
<!-- Node4&#45;&gt;Node0 -->
<g id="edge4" class="edge">
<title>Node4&#45;&gt;Node0</title>
<path fill="none" stroke="#9a32cd" stroke-dasharray="5,2" d="M389.3691,-69.9225C381.5703,-58.8713 370.126,-45.4671 356.5,-38 332.6585,-24.9347 259.9087,-16.8307 214.2268,-12.8896"/>
<polygon fill="#9a32cd" stroke="#9a32cd" points="386.5904,-72.0656 395.0304,-78.4701 392.4264,-68.2002 386.5904,-72.0656"/>
<text text-anchor="middle" x="444" y="-46.5" font-family="Helvetica,sans-Serif" font-size="10.00" fill="#000000"> convolution_method_hint</text>
</g>
</g>
</svg>
