<?xml version="1.0" encoding="UTF-8" standalone="no"?>
<!DOCTYPE svg PUBLIC "-//W3C//DTD SVG 1.1//EN"
 "http://www.w3.org/Graphics/SVG/1.1/DTD/svg11.dtd">
<!-- Generated by graphviz version 2.40.1 (20161225.0304)
 -->
<!-- Title: ExampleParams Pages: 1 -->
<svg width="832pt" height="248pt"
 viewBox="0.00 0.00 832.00 248.00" xmlns="http://www.w3.org/2000/svg" xmlns:xlink="http://www.w3.org/1999/xlink">
<g id="graph0" class="graph" transform="scale(1 1) rotate(0) translate(4 244)">
<title>ExampleParams</title>
<polygon fill="#ffffff" stroke="transparent" points="-4,4 -4,-244 828,-244 828,4 -4,4"/>
<!-- Node0 -->
<g id="node1" class="node">
<title>Node0</title>
<polygon fill="#bfbfbf" stroke="#000000" points="729,-57.5 729,-76.5 824,-76.5 824,-57.5 729,-57.5"/>
<text text-anchor="middle" x="776.5" y="-64.5" font-family="Helvetica,sans-Serif" font-size="10.00" fill="#000000">ExampleParams</text>
</g>
<!-- Node1 -->
<g id="node2" class="node">
<title>Node1</title>
<g id="a_node2"><a xlink:href="structarm__compute_1_1utils_1_1_common_params.xhtml" target="_top" xlink:title="Structure holding all the graph Example parameters. ">
<polygon fill="#ffffff" stroke="#000000" points="500,-119.5 500,-138.5 597,-138.5 597,-119.5 500,-119.5"/>
<text text-anchor="middle" x="548.5" y="-126.5" font-family="Helvetica,sans-Serif" font-size="10.00" fill="#000000">CommonParams</text>
</a>
</g>
</g>
<!-- Node1&#45;&gt;Node0 -->
<g id="edge1" class="edge">
<title>Node1&#45;&gt;Node0</title>
<path fill="none" stroke="#191970" d="M606.8675,-118.4201C638.0764,-112.1758 676.9771,-103.4479 711,-93 725.9704,-88.4028 742.3454,-81.9028 754.9778,-76.5521"/>
<polygon fill="#191970" stroke="#191970" points="606.1562,-114.9929 597.0209,-120.3593 607.5088,-121.861 606.1562,-114.9929"/>
</g>
<!-- Node2 -->
<g id="node3" class="node">
<title>Node2</title>
<polygon fill="#ffffff" stroke="#bfbfbf" points="261.5,-220.5 261.5,-239.5 323.5,-239.5 323.5,-220.5 261.5,-220.5"/>
<text text-anchor="middle" x="292.5" y="-227.5" font-family="Helvetica,sans-Serif" font-size="10.00" fill="#000000">DataType</text>
</g>
<!-- Node2&#45;&gt;Node1 -->
<g id="edge2" class="edge">
<title>Node2&#45;&gt;Node1</title>
<path fill="none" stroke="#9a32cd" stroke-dasharray="5,2" d="M333.9757,-229.4954C370.5942,-227.5969 424.5973,-221.177 467,-201 498.8803,-185.83 527.6726,-154.4043 540.8775,-138.566"/>
<polygon fill="#9a32cd" stroke="#9a32cd" points="333.5097,-226.0119 323.6677,-229.9343 333.8076,-233.0056 333.5097,-226.0119"/>
<text text-anchor="middle" x="423" y="-228" font-family="Helvetica,sans-Serif" font-size="10.00" fill="#000000"> data_type</text>
</g>
<!-- Node3 -->
<g id="node4" class="node">
<title>Node3</title>
<g id="a_node4"><a xlink:href="structarm__compute_1_1utils_1_1_tensor_params.xhtml" target="_top" xlink:title="Structure holding all the input tensor graph parameters. ">
<polygon fill="#ffffff" stroke="#000000" points="250.5,-157.5 250.5,-176.5 334.5,-176.5 334.5,-157.5 250.5,-157.5"/>
<text text-anchor="middle" x="292.5" y="-164.5" font-family="Helvetica,sans-Serif" font-size="10.00" fill="#000000">TensorParams</text>
</a>
</g>
</g>
<!-- Node3&#45;&gt;Node1 -->
<g id="edge3" class="edge">
<title>Node3&#45;&gt;Node1</title>
<path fill="none" stroke="#9a32cd" stroke-dasharray="5,2" d="M344.7048,-159.2508C390.0558,-152.5191 455.2474,-142.8422 499.5995,-136.2587"/>
<polygon fill="#9a32cd" stroke="#9a32cd" points="344.1509,-155.7946 334.7732,-160.7251 345.1787,-162.7188 344.1509,-155.7946"/>
<text text-anchor="middle" x="423" y="-189" font-family="Helvetica,sans-Serif" font-size="10.00" fill="#000000"> output</text>
<text text-anchor="middle" x="423" y="-178" font-family="Helvetica,sans-Serif" font-size="10.00" fill="#000000">input</text>
<text text-anchor="middle" x="423" y="-167" font-family="Helvetica,sans-Serif" font-size="10.00" fill="#000000">bias</text>
<text text-anchor="middle" x="423" y="-156" font-family="Helvetica,sans-Serif" font-size="10.00" fill="#000000">weights</text>
</g>
<!-- Node4 -->
<g id="node5" class="node">
<title>Node4</title>
<g id="a_node5"><a xlink:href="classarm__compute_1_1_quantization_info.xhtml" target="_top" xlink:title="Quantization information. ">
<polygon fill="#ffffff" stroke="#000000" points="7,-157.5 7,-176.5 105,-176.5 105,-157.5 7,-157.5"/>
<text text-anchor="middle" x="56" y="-164.5" font-family="Helvetica,sans-Serif" font-size="10.00" fill="#000000">QuantizationInfo</text>
</a>
</g>
</g>
<!-- Node4&#45;&gt;Node3 -->
<g id="edge4" class="edge">
<title>Node4&#45;&gt;Node3</title>
<path fill="none" stroke="#9a32cd" stroke-dasharray="5,2" d="M115.1129,-167C157.1636,-167 212.6501,-167 250.2889,-167"/>
<polygon fill="#9a32cd" stroke="#9a32cd" points="115.003,-163.5001 105.003,-167 115.0029,-170.5001 115.003,-163.5001"/>
<text text-anchor="middle" x="168" y="-170" font-family="Helvetica,sans-Serif" font-size="10.00" fill="#000000"> quant_info</text>
</g>
<!-- Node5 -->
<g id="node6" class="node">
<title>Node5</title>
<g id="a_node6"><a xlink:href="structarm__compute_1_1utils_1_1_verification_params.xhtml" target="_top" xlink:title="Structure holding all the verification graph parameters. ">
<polygon fill="#ffffff" stroke="#000000" points="239,-119.5 239,-138.5 346,-138.5 346,-119.5 239,-119.5"/>
<text text-anchor="middle" x="292.5" y="-126.5" font-family="Helvetica,sans-Serif" font-size="10.00" fill="#000000">VerificationParams</text>
</a>
</g>
</g>
<!-- Node5&#45;&gt;Node1 -->
<g id="edge5" class="edge">
<title>Node5&#45;&gt;Node1</title>
<path fill="none" stroke="#9a32cd" stroke-dasharray="5,2" d="M356.2708,-129C400.6594,-129 458.9582,-129 499.6667,-129"/>
<polygon fill="#9a32cd" stroke="#9a32cd" points="356.166,-125.5001 346.166,-129 356.166,-132.5001 356.166,-125.5001"/>
<text text-anchor="middle" x="423" y="-132" font-family="Helvetica,sans-Serif" font-size="10.00" fill="#000000"> verification</text>
</g>
<!-- Node6 -->
<g id="node7" class="node">
<title>Node6</title>
<g id="a_node7"><a xlink:href="structarm__compute_1_1utils_1_1_framework_params.xhtml" target="_top" xlink:title="Structure holding all the common graph parameters. ">
<polygon fill="#ffffff" stroke="#000000" points="239,-81.5 239,-100.5 346,-100.5 346,-81.5 239,-81.5"/>
<text text-anchor="middle" x="292.5" y="-88.5" font-family="Helvetica,sans-Serif" font-size="10.00" fill="#000000">FrameworkParams</text>
</a>
</g>
</g>
<!-- Node6&#45;&gt;Node1 -->
<g id="edge6" class="edge">
<title>Node6&#45;&gt;Node1</title>
<path fill="none" stroke="#9a32cd" stroke-dasharray="5,2" d="M356.0723,-98.5887C389.2002,-102.7431 430.3458,-108.2152 467,-114 477.6583,-115.6821 489.0667,-117.6661 499.8709,-119.6306"/>
<polygon fill="#9a32cd" stroke="#9a32cd" points="356.4182,-95.1048 346.0624,-97.3429 355.5536,-102.0513 356.4182,-95.1048"/>
<text text-anchor="middle" x="423" y="-117" font-family="Helvetica,sans-Serif" font-size="10.00" fill="#000000"> common_params</text>
</g>
<!-- Node7 -->
<g id="node8" class="node">
<title>Node7</title>
<polygon fill="#ffffff" stroke="#bfbfbf" points="512,-76.5 512,-95.5 585,-95.5 585,-76.5 512,-76.5"/>
<text text-anchor="middle" x="548.5" y="-83.5" font-family="Helvetica,sans-Serif" font-size="10.00" fill="#000000">DataLayout</text>
</g>
<!-- Node7&#45;&gt;Node0 -->
<g id="edge7" class="edge">
<title>Node7&#45;&gt;Node0</title>
<path fill="none" stroke="#9a32cd" stroke-dasharray="5,2" d="M595.1745,-82.1105C634.1852,-78.8596 689.5873,-74.2427 728.8642,-70.9696"/>
<polygon fill="#9a32cd" stroke="#9a32cd" points="594.8069,-78.6289 585.1321,-82.9473 595.3883,-85.6047 594.8069,-78.6289"/>
<text text-anchor="middle" x="670.5" y="-81" font-family="Helvetica,sans-Serif" font-size="10.00" fill="#000000"> data_layout</text>
</g>
<!-- Node8 -->
<g id="node9" class="node">
<title>Node8</title>
<g id="a_node9"><a xlink:href="structarm__compute_1_1utils_1_1_convolution_params.xhtml" target="_top" xlink:title="Structure holding all the Convolution layer graph parameters. ">
<polygon fill="#ffffff" stroke="#000000" points="493,-38.5 493,-57.5 604,-57.5 604,-38.5 493,-38.5"/>
<text text-anchor="middle" x="548.5" y="-45.5" font-family="Helvetica,sans-Serif" font-size="10.00" fill="#000000">ConvolutionParams</text>
</a>
</g>
</g>
<!-- Node8&#45;&gt;Node0 -->
<g id="edge8" class="edge">
<title>Node8&#45;&gt;Node0</title>
<path fill="none" stroke="#9a32cd" stroke-dasharray="5,2" d="M614.4666,-50.2126C644.0404,-51.5752 679.3236,-53.7125 711,-57 716.8353,-57.6056 722.9452,-58.3668 728.9887,-59.1976"/>
<polygon fill="#9a32cd" stroke="#9a32cd" points="614.4039,-46.7065 604.2593,-49.7623 614.0953,-53.6997 614.4039,-46.7065"/>
<text text-anchor="middle" x="670.5" y="-60" font-family="Helvetica,sans-Serif" font-size="10.00" fill="#000000"> convolution</text>
</g>
<!-- Node9 -->
<g id="node10" class="node">
<title>Node9</title>
<polygon fill="#ffffff" stroke="#bfbfbf" points="270.5,-38.5 270.5,-57.5 314.5,-57.5 314.5,-38.5 270.5,-38.5"/>
<text text-anchor="middle" x="292.5" y="-45.5" font-family="Helvetica,sans-Serif" font-size="10.00" fill="#000000">struct</text>
</g>
<!-- Node9&#45;&gt;Node8 -->
<g id="edge9" class="edge">
<title>Node9&#45;&gt;Node8</title>
<path fill="none" stroke="#9a32cd" stroke-dasharray="5,2" d="M325.0264,-48C367.231,-48 441.5186,-48 492.7872,-48"/>
<polygon fill="#9a32cd" stroke="#9a32cd" points="324.7705,-44.5001 314.7705,-48 324.7705,-51.5001 324.7705,-44.5001"/>
<text text-anchor="middle" x="423" y="-62" font-family="Helvetica,sans-Serif" font-size="10.00" fill="#000000"> padding</text>
<text text-anchor="middle" x="423" y="-51" font-family="Helvetica,sans-Serif" font-size="10.00" fill="#000000">stride</text>
</g>
<!-- Node10 -->
<g id="node11" class="node">
<title>Node10</title>
<g id="a_node11"><a xlink:href="structarm__compute_1_1utils_1_1_fully_connected_params.xhtml" target="_top" xlink:title="Structure holding all the fully_connected layer graph parameters. ">
<polygon fill="#ffffff" stroke="#000000" points="485,-.5 485,-19.5 612,-19.5 612,-.5 485,-.5"/>
<text text-anchor="middle" x="548.5" y="-7.5" font-family="Helvetica,sans-Serif" font-size="10.00" fill="#000000">FullyConnectedParams</text>
</a>
</g>
</g>
<!-- Node10&#45;&gt;Node0 -->
<g id="edge10" class="edge">
<title>Node10&#45;&gt;Node0</title>
<path fill="none" stroke="#9a32cd" stroke-dasharray="5,2" d="M622.5119,-17.3437C650.6257,-21.2975 682.6828,-27.2296 711,-36 728.3054,-41.3598 746.8668,-50.4984 759.7957,-57.4688"/>
<polygon fill="#9a32cd" stroke="#9a32cd" points="622.7245,-13.8408 612.3469,-15.9749 621.7903,-20.7782 622.7245,-13.8408"/>
<text text-anchor="middle" x="670.5" y="-39" font-family="Helvetica,sans-Serif" font-size="10.00" fill="#000000"> fully_connected</text>
</g>
<!-- Node11 -->
<g id="node12" class="node">
<title>Node11</title>
<g id="a_node12"><a xlink:href="structarm__compute_1_1_fully_connected_layer_info.xhtml" target="_top" xlink:title="Fully connected layer info. ">
<polygon fill="#ffffff" stroke="#000000" points="224,-.5 224,-19.5 361,-19.5 361,-.5 224,-.5"/>
<text text-anchor="middle" x="292.5" y="-7.5" font-family="Helvetica,sans-Serif" font-size="10.00" fill="#000000">FullyConnectedLayerInfo</text>
</a>
</g>
</g>
<!-- Node11&#45;&gt;Node10 -->
<g id="edge11" class="edge">
<title>Node11&#45;&gt;Node10</title>
<path fill="none" stroke="#9a32cd" stroke-dasharray="5,2" d="M371.223,-10C407.7389,-10 450.5693,-10 484.9827,-10"/>
<polygon fill="#9a32cd" stroke="#9a32cd" points="371.1033,-6.5001 361.1033,-10 371.1033,-13.5001 371.1033,-6.5001"/>
<text text-anchor="middle" x="423" y="-13" font-family="Helvetica,sans-Serif" font-size="10.00" fill="#000000"> info</text>
</g>
<!-- Node12 -->
<g id="node13" class="node">
<title>Node12</title>
<g id="a_node13"><a xlink:href="classarm__compute_1_1_activation_layer_info.xhtml" target="_top" xlink:title="Activation Layer Information class. ">
<polygon fill="#ffffff" stroke="#000000" points="0,-.5 0,-19.5 112,-19.5 112,-.5 0,-.5"/>
<text text-anchor="middle" x="56" y="-7.5" font-family="Helvetica,sans-Serif" font-size="10.00" fill="#000000">ActivationLayerInfo</text>
</a>
</g>
</g>
<!-- Node12&#45;&gt;Node11 -->
<g id="edge12" class="edge">
<title>Node12&#45;&gt;Node11</title>
<path fill="none" stroke="#9a32cd" stroke-dasharray="5,2" d="M122.102,-10C153.7946,-10 191.7365,-10 223.7643,-10"/>
<polygon fill="#9a32cd" stroke="#9a32cd" points="122.0472,-6.5001 112.0472,-10 122.0472,-13.5001 122.0472,-6.5001"/>
<text text-anchor="middle" x="168" y="-13" font-family="Helvetica,sans-Serif" font-size="10.00" fill="#000000"> activation_info</text>
</g>
</g>
</svg>
