<?xml version="1.0" encoding="UTF-8" standalone="no"?>
<!DOCTYPE svg PUBLIC "-//W3C//DTD SVG 1.1//EN"
 "http://www.w3.org/Graphics/SVG/1.1/DTD/svg11.dtd">
<!-- Generated by graphviz version 2.40.1 (20161225.0304)
 -->
<!-- Title: ConvPostOpInfoActivation Pages: 1 -->
<svg width="234pt" height="95pt"
 viewBox="0.00 0.00 233.50 95.00" xmlns="http://www.w3.org/2000/svg" xmlns:xlink="http://www.w3.org/1999/xlink">
<g id="graph0" class="graph" transform="scale(1 1) rotate(0) translate(4 91)">
<title>ConvPostOpInfoActivation</title>
<polygon fill="#ffffff" stroke="transparent" points="-4,4 -4,-91 229.5,-91 229.5,4 -4,4"/>
<!-- Node0 -->
<g id="node1" class="node">
<title>Node0</title>
<polygon fill="#bfbfbf" stroke="#000000" points="36.5,-.5 36.5,-19.5 180.5,-19.5 180.5,-.5 36.5,-.5"/>
<text text-anchor="middle" x="108.5" y="-7.5" font-family="Helvetica,sans-Serif" font-size="10.00" fill="#000000">ConvPostOpInfoActivation</text>
</g>
<!-- Node1 -->
<g id="node2" class="node">
<title>Node1</title>
<g id="a_node2"><a xlink:href="classarm__compute_1_1graph_1_1_conv_post_op_info.xhtml" target="_top" xlink:title="Convolution post operator info. ">
<polygon fill="#ffffff" stroke="#000000" points="0,-67.5 0,-86.5 95,-86.5 95,-67.5 0,-67.5"/>
<text text-anchor="middle" x="47.5" y="-74.5" font-family="Helvetica,sans-Serif" font-size="10.00" fill="#000000">ConvPostOpInfo</text>
</a>
</g>
</g>
<!-- Node1&#45;&gt;Node0 -->
<g id="edge1" class="edge">
<title>Node1&#45;&gt;Node0</title>
<path fill="none" stroke="#191970" d="M63.2374,-59.7147C74.8671,-46.941 90.2707,-30.0224 99.7764,-19.5817"/>
<polygon fill="#191970" stroke="#191970" points="60.384,-57.6498 56.2398,-67.4005 65.5601,-62.3624 60.384,-57.6498"/>
</g>
<!-- Node2 -->
<g id="node3" class="node">
<title>Node2</title>
<g id="a_node3"><a xlink:href="classarm__compute_1_1_activation_layer_info.xhtml" target="_top" xlink:title="Activation Layer Information class. ">
<polygon fill="#ffffff" stroke="#000000" points="113.5,-67.5 113.5,-86.5 225.5,-86.5 225.5,-67.5 113.5,-67.5"/>
<text text-anchor="middle" x="169.5" y="-74.5" font-family="Helvetica,sans-Serif" font-size="10.00" fill="#000000">ActivationLayerInfo</text>
</a>
</g>
</g>
<!-- Node2&#45;&gt;Node0 -->
<g id="edge2" class="edge">
<title>Node2&#45;&gt;Node0</title>
<path fill="none" stroke="#9a32cd" stroke-dasharray="5,2" d="M153.7626,-59.7147C142.1329,-46.941 126.7293,-30.0224 117.2236,-19.5817"/>
<polygon fill="#9a32cd" stroke="#9a32cd" points="151.4399,-62.3624 160.7602,-67.4005 156.616,-57.6498 151.4399,-62.3624"/>
<text text-anchor="middle" x="154.5" y="-41" font-family="Helvetica,sans-Serif" font-size="10.00" fill="#000000"> _act</text>
</g>
</g>
</svg>
