<?xml version="1.0" encoding="UTF-8" standalone="no"?>
<!DOCTYPE svg PUBLIC "-//W3C//DTD SVG 1.1//EN"
 "http://www.w3.org/Graphics/SVG/1.1/DTD/svg11.dtd">
<!-- Generated by graphviz version 2.40.1 (20161225.0304)
 -->
<!-- Title: tests/validation Pages: 1 -->
<svg width="913pt" height="447pt"
 viewBox="0.00 0.00 913.49 447.00" xmlns="http://www.w3.org/2000/svg" xmlns:xlink="http://www.w3.org/1999/xlink">
<g id="graph0" class="graph" transform="scale(1 1) rotate(0) translate(4 443)">
<title>tests/validation</title>
<polygon fill="#ffffff" stroke="transparent" points="-4,4 -4,-443 909.4938,-443 909.4938,4 -4,4"/>
<g id="clust1" class="cluster">
<title>clusterdir_59425e443f801f1f2fd8bbe4959a3ccf</title>
<g id="a_clust1"><a xlink:href="dir_59425e443f801f1f2fd8bbe4959a3ccf.xhtml" target="_top" xlink:title="tests">
<polygon fill="#ddddee" stroke="#000000" points="8,-272 8,-431 538,-431 538,-272 8,-272"/>
<text text-anchor="middle" x="273" y="-419" font-family="Helvetica,sans-Serif" font-size="10.00" fill="#000000">tests</text>
</a>
</g>
</g>
<g id="clust2" class="cluster">
<title>clusterdir_e7c7b16542faa38cb4655ff1750d3604</title>
<g id="a_clust2"><a xlink:href="dir_e7c7b16542faa38cb4655ff1750d3604.xhtml" target="_top">
<polygon fill="#eeeeff" stroke="#000000" points="16,-280 16,-404 530,-404 530,-280 16,-280"/>
</a>
</g>
</g>
<!-- dir_e7c7b16542faa38cb4655ff1750d3604 -->
<g id="node1" class="node">
<title>dir_e7c7b16542faa38cb4655ff1750d3604</title>
<text text-anchor="middle" x="489" y="-375.5" font-family="Helvetica,sans-Serif" font-size="10.00" fill="#000000">validation</text>
</g>
<!-- dir_f7024513cd67abef53e86ee9382ac5ce -->
<g id="node2" class="node">
<title>dir_f7024513cd67abef53e86ee9382ac5ce</title>
<g id="a_node2"><a xlink:href="dir_f7024513cd67abef53e86ee9382ac5ce.xhtml" target="_top" xlink:title="CL">
<polygon fill="#ffffff" stroke="#ff0000" points="294,-396 240,-396 240,-360 294,-360 294,-396"/>
<text text-anchor="middle" x="267" y="-375.5" font-family="Helvetica,sans-Serif" font-size="10.00" fill="#000000">CL</text>
</a>
</g>
</g>
<!-- dir_46fdb196cebdbffe77dac340cde62f29 -->
<g id="node7" class="node">
<title>dir_46fdb196cebdbffe77dac340cde62f29</title>
<g id="a_node7"><a xlink:href="dir_46fdb196cebdbffe77dac340cde62f29.xhtml" target="_top" xlink:title="reference">
<polygon fill="#ffffff" stroke="#000000" points="317.5,-324 254.5,-324 254.5,-288 317.5,-288 317.5,-324"/>
<text text-anchor="middle" x="286" y="-303.5" font-family="Helvetica,sans-Serif" font-size="10.00" fill="#000000">reference</text>
</a>
</g>
</g>
<!-- dir_f7024513cd67abef53e86ee9382ac5ce&#45;&gt;dir_46fdb196cebdbffe77dac340cde62f29 -->
<g id="edge24" class="edge">
<title>dir_f7024513cd67abef53e86ee9382ac5ce&#45;&gt;dir_46fdb196cebdbffe77dac340cde62f29</title>
<path fill="none" stroke="#000000" d="M271.7945,-359.8314C273.8489,-352.0463 276.296,-342.7729 278.5756,-334.1347"/>
<polygon fill="#000000" stroke="#000000" points="281.9735,-334.9753 281.1409,-324.4133 275.2052,-333.1892 281.9735,-334.9753"/>
<g id="a_edge24&#45;headlabel"><a xlink:href="dir_000301_000013.xhtml" target="_top" xlink:title="1">
<text text-anchor="middle" x="283.8017" y="-336.6754" font-family="Helvetica,sans-Serif" font-size="10.00" fill="#000000">1</text>
</a>
</g>
</g>
<!-- dir_68267d1309a1af8e8297ef4c3efbcdba -->
<g id="node9" class="node">
<title>dir_68267d1309a1af8e8297ef4c3efbcdba</title>
<g id="a_node9"><a xlink:href="dir_68267d1309a1af8e8297ef4c3efbcdba.xhtml" target="_top" xlink:title="src">
<polygon fill="#ffffff" stroke="#ff0000" points="824,-252 770,-252 770,-216 824,-216 824,-252"/>
<text text-anchor="middle" x="797" y="-231.5" font-family="Helvetica,sans-Serif" font-size="10.00" fill="#000000">src</text>
</a>
</g>
</g>
<!-- dir_f7024513cd67abef53e86ee9382ac5ce&#45;&gt;dir_68267d1309a1af8e8297ef4c3efbcdba -->
<g id="edge25" class="edge">
<title>dir_f7024513cd67abef53e86ee9382ac5ce&#45;&gt;dir_68267d1309a1af8e8297ef4c3efbcdba</title>
<path fill="none" stroke="#000000" d="M294.0759,-363.0896C297.0265,-361.8819 300.0354,-360.8152 303,-360 355.8511,-345.4672 757.2388,-363.7308 795,-324 810.3117,-307.8896 809.229,-281.9049 805.2413,-261.988"/>
<polygon fill="#000000" stroke="#000000" points="808.641,-261.1549 802.9626,-252.2102 801.8237,-262.7437 808.641,-261.1549"/>
<g id="a_edge25&#45;headlabel"><a xlink:href="dir_000301_000003.xhtml" target="_top" xlink:title="28">
<text text-anchor="middle" x="812.2219" y="-261.5113" font-family="Helvetica,sans-Serif" font-size="10.00" fill="#000000">28</text>
</a>
</g>
</g>
<!-- dir_cbdb8362360e11eafe2fa3bc74cf0ffd -->
<g id="node10" class="node">
<title>dir_cbdb8362360e11eafe2fa3bc74cf0ffd</title>
<g id="a_node10"><a xlink:href="dir_cbdb8362360e11eafe2fa3bc74cf0ffd.xhtml" target="_top" xlink:title="utils">
<polygon fill="#ffffff" stroke="#ff0000" points="412,-180 358,-180 358,-144 412,-144 412,-180"/>
<text text-anchor="middle" x="385" y="-159.5" font-family="Helvetica,sans-Serif" font-size="10.00" fill="#000000">utils</text>
</a>
</g>
</g>
<!-- dir_f7024513cd67abef53e86ee9382ac5ce&#45;&gt;dir_cbdb8362360e11eafe2fa3bc74cf0ffd -->
<g id="edge26" class="edge">
<title>dir_f7024513cd67abef53e86ee9382ac5ce&#45;&gt;dir_cbdb8362360e11eafe2fa3bc74cf0ffd</title>
<path fill="none" stroke="#000000" d="M294.1144,-363.2235C297.0574,-361.9897 300.0541,-360.8803 303,-360 368.6026,-340.3963 563.5014,-375.1652 609,-324 672.6382,-252.4361 500.9779,-194.0105 422.1657,-171.7207"/>
<polygon fill="#000000" stroke="#000000" points="422.7132,-168.2404 412.1414,-168.939 420.8414,-174.9855 422.7132,-168.2404"/>
<g id="a_edge26&#45;headlabel"><a xlink:href="dir_000301_000035.xhtml" target="_top" xlink:title="4">
<text text-anchor="middle" x="426.9361" y="-163.9656" font-family="Helvetica,sans-Serif" font-size="10.00" fill="#000000">4</text>
</a>
</g>
</g>
<!-- dir_9e71e2da941d3cafc4d98a9f6ae3de4f -->
<g id="node12" class="node">
<title>dir_9e71e2da941d3cafc4d98a9f6ae3de4f</title>
<g id="a_node12"><a xlink:href="dir_9e71e2da941d3cafc4d98a9f6ae3de4f.xhtml" target="_top" xlink:title="framework">
<polygon fill="#ffffff" stroke="#ff0000" points="224,-252 154,-252 154,-216 224,-216 224,-252"/>
<text text-anchor="middle" x="189" y="-231.5" font-family="Helvetica,sans-Serif" font-size="10.00" fill="#000000">framework</text>
</a>
</g>
</g>
<!-- dir_f7024513cd67abef53e86ee9382ac5ce&#45;&gt;dir_9e71e2da941d3cafc4d98a9f6ae3de4f -->
<g id="edge27" class="edge">
<title>dir_f7024513cd67abef53e86ee9382ac5ce&#45;&gt;dir_9e71e2da941d3cafc4d98a9f6ae3de4f</title>
<path fill="none" stroke="#000000" d="M257.1212,-359.7623C243.6414,-334.8764 219.3779,-290.0822 203.7423,-261.2165"/>
<polygon fill="#000000" stroke="#000000" points="206.639,-259.2155 198.7985,-252.0896 200.4839,-262.5496 206.639,-259.2155"/>
<g id="a_edge27&#45;headlabel"><a xlink:href="dir_000301_000034.xhtml" target="_top" xlink:title="322">
<text text-anchor="middle" x="210.8475" y="-258.524" font-family="Helvetica,sans-Serif" font-size="10.00" fill="#000000">322</text>
</a>
</g>
</g>
<!-- dir_214608ef36d61442cb2b0c1c4e9a7def -->
<g id="node13" class="node">
<title>dir_214608ef36d61442cb2b0c1c4e9a7def</title>
<g id="a_node13"><a xlink:href="dir_214608ef36d61442cb2b0c1c4e9a7def.xhtml" target="_top" xlink:title="arm_compute">
<polygon fill="#ffffff" stroke="#ff0000" points="515,-108 431,-108 431,-72 515,-72 515,-108"/>
<text text-anchor="middle" x="473" y="-87.5" font-family="Helvetica,sans-Serif" font-size="10.00" fill="#000000">arm_compute</text>
</a>
</g>
</g>
<!-- dir_f7024513cd67abef53e86ee9382ac5ce&#45;&gt;dir_214608ef36d61442cb2b0c1c4e9a7def -->
<g id="edge28" class="edge">
<title>dir_f7024513cd67abef53e86ee9382ac5ce&#45;&gt;dir_214608ef36d61442cb2b0c1c4e9a7def</title>
<path fill="none" stroke="#000000" d="M294.0949,-363.157C297.0417,-361.9362 300.0447,-360.848 303,-360 383.8947,-336.7887 623.3897,-386.2735 680,-324 733.8128,-264.8038 728.9106,-207.3068 680,-144 661.1888,-119.6519 580.0173,-104.2008 525.0866,-96.3292"/>
<polygon fill="#000000" stroke="#000000" points="525.5432,-92.8591 515.1561,-94.9472 524.5782,-99.7923 525.5432,-92.8591"/>
<g id="a_edge28&#45;headlabel"><a xlink:href="dir_000301_000000.xhtml" target="_top" xlink:title="436">
<text text-anchor="middle" x="529.4948" y="-88.0424" font-family="Helvetica,sans-Serif" font-size="10.00" fill="#000000">436</text>
</a>
</g>
</g>
<!-- dir_896191444cf08ec8ade6f88256cb2bdd -->
<g id="node14" class="node">
<title>dir_896191444cf08ec8ade6f88256cb2bdd</title>
<g id="a_node14"><a xlink:href="dir_896191444cf08ec8ade6f88256cb2bdd.xhtml" target="_top" xlink:title="CL">
<polygon fill="none" stroke="#000000" points="786,-324 732,-324 732,-288 786,-288 786,-324"/>
<text text-anchor="middle" x="759" y="-303.5" font-family="Helvetica,sans-Serif" font-size="10.00" fill="#000000">CL</text>
</a>
</g>
</g>
<!-- dir_f7024513cd67abef53e86ee9382ac5ce&#45;&gt;dir_896191444cf08ec8ade6f88256cb2bdd -->
<g id="edge29" class="edge">
<title>dir_f7024513cd67abef53e86ee9382ac5ce&#45;&gt;dir_896191444cf08ec8ade6f88256cb2bdd</title>
<path fill="none" stroke="#000000" d="M294.0874,-363.1307C297.0357,-361.915 300.041,-360.8352 303,-360 481.1762,-309.7107 538.6234,-369.8234 718,-324 719.271,-323.6753 720.5526,-323.3152 721.8379,-322.9258"/>
<polygon fill="#000000" stroke="#000000" points="723.3808,-326.093 731.648,-319.467 721.0532,-319.4913 723.3808,-326.093"/>
<g id="a_edge29&#45;headlabel"><a xlink:href="dir_000301_000346.xhtml" target="_top" xlink:title="130">
<text text-anchor="middle" x="720.9348" y="-327.4659" font-family="Helvetica,sans-Serif" font-size="10.00" fill="#000000">130</text>
</a>
</g>
</g>
<!-- dir_420d2db1b9c99f59825a3985434c3703 -->
<g id="node3" class="node">
<title>dir_420d2db1b9c99f59825a3985434c3703</title>
<g id="a_node3"><a xlink:href="dir_420d2db1b9c99f59825a3985434c3703.xhtml" target="_top" xlink:title="CPP">
<polygon fill="#ffffff" stroke="#000000" points="222,-396 168,-396 168,-360 222,-360 222,-396"/>
<text text-anchor="middle" x="195" y="-375.5" font-family="Helvetica,sans-Serif" font-size="10.00" fill="#000000">CPP</text>
</a>
</g>
</g>
<!-- dir_420d2db1b9c99f59825a3985434c3703&#45;&gt;dir_46fdb196cebdbffe77dac340cde62f29 -->
<g id="edge41" class="edge">
<title>dir_420d2db1b9c99f59825a3985434c3703&#45;&gt;dir_46fdb196cebdbffe77dac340cde62f29</title>
<path fill="none" stroke="#000000" d="M217.9631,-359.8314C229.1715,-350.9632 242.8209,-340.1637 254.9439,-330.5718"/>
<polygon fill="#000000" stroke="#000000" points="257.3737,-333.1125 263.0442,-324.1628 253.0303,-327.6229 257.3737,-333.1125"/>
<g id="a_edge41&#45;headlabel"><a xlink:href="dir_000351_000013.xhtml" target="_top" xlink:title="2">
<text text-anchor="middle" x="256.3164" y="-335.0694" font-family="Helvetica,sans-Serif" font-size="10.00" fill="#000000">2</text>
</a>
</g>
</g>
<!-- dir_445738e6fed662d0b65e690e3f1e1de0 -->
<g id="node11" class="node">
<title>dir_445738e6fed662d0b65e690e3f1e1de0</title>
<g id="a_node11"><a xlink:href="dir_445738e6fed662d0b65e690e3f1e1de0.xhtml" target="_top" xlink:title="NEON">
<polygon fill="none" stroke="#000000" points="600,-324 546,-324 546,-288 600,-288 600,-324"/>
<text text-anchor="middle" x="573" y="-303.5" font-family="Helvetica,sans-Serif" font-size="10.00" fill="#000000">NEON</text>
</a>
</g>
</g>
<!-- dir_420d2db1b9c99f59825a3985434c3703&#45;&gt;dir_445738e6fed662d0b65e690e3f1e1de0 -->
<g id="edge42" class="edge">
<title>dir_420d2db1b9c99f59825a3985434c3703&#45;&gt;dir_445738e6fed662d0b65e690e3f1e1de0</title>
<path fill="none" stroke="#000000" d="M222.1154,-363.227C225.0583,-361.9925 228.0546,-360.882 231,-360 360.9141,-321.0972 403.4941,-360.8689 534,-324 534.7266,-323.7947 535.4567,-323.5775 536.189,-323.3497"/>
<polygon fill="#000000" stroke="#000000" points="537.5081,-326.5943 545.7121,-319.8903 535.118,-320.015 537.5081,-326.5943"/>
<g id="a_edge42&#45;headlabel"><a xlink:href="dir_000351_000347.xhtml" target="_top" xlink:title="4">
<text text-anchor="middle" x="535.0989" y="-327.9903" font-family="Helvetica,sans-Serif" font-size="10.00" fill="#000000">4</text>
</a>
</g>
</g>
<!-- dir_420d2db1b9c99f59825a3985434c3703&#45;&gt;dir_9e71e2da941d3cafc4d98a9f6ae3de4f -->
<g id="edge43" class="edge">
<title>dir_420d2db1b9c99f59825a3985434c3703&#45;&gt;dir_9e71e2da941d3cafc4d98a9f6ae3de4f</title>
<path fill="none" stroke="#000000" d="M194.2401,-359.7623C193.2167,-335.201 191.3853,-291.2474 190.1814,-262.3541"/>
<polygon fill="#000000" stroke="#000000" points="193.6671,-261.9352 189.7537,-252.0896 186.6732,-262.2267 193.6671,-261.9352"/>
<g id="a_edge43&#45;headlabel"><a xlink:href="dir_000351_000034.xhtml" target="_top" xlink:title="15">
<text text-anchor="middle" x="196.6535" y="-262.9085" font-family="Helvetica,sans-Serif" font-size="10.00" fill="#000000">15</text>
</a>
</g>
</g>
<!-- dir_420d2db1b9c99f59825a3985434c3703&#45;&gt;dir_214608ef36d61442cb2b0c1c4e9a7def -->
<g id="edge44" class="edge">
<title>dir_420d2db1b9c99f59825a3985434c3703&#45;&gt;dir_214608ef36d61442cb2b0c1c4e9a7def</title>
<path fill="none" stroke="#000000" d="M222.0947,-363.1563C225.0416,-361.9356 228.0446,-360.8476 231,-360 312.1103,-336.7379 552.2331,-386.4301 609,-324 669.5603,-257.398 563.3156,-159.4323 506.0079,-114.3442"/>
<polygon fill="#000000" stroke="#000000" points="507.9814,-111.4456 497.9335,-108.0856 503.693,-116.9782 507.9814,-111.4456"/>
<g id="a_edge44&#45;headlabel"><a xlink:href="dir_000351_000000.xhtml" target="_top" xlink:title="18">
<text text-anchor="middle" x="512.5619" y="-108.9036" font-family="Helvetica,sans-Serif" font-size="10.00" fill="#000000">18</text>
</a>
</g>
</g>
<!-- dir_58f3176b1e99b444b21d021594354993 -->
<g id="node4" class="node">
<title>dir_58f3176b1e99b444b21d021594354993</title>
<g id="a_node4"><a xlink:href="dir_58f3176b1e99b444b21d021594354993.xhtml" target="_top" xlink:title="cpu">
<polygon fill="#ffffff" stroke="#ff0000" points="366,-396 312,-396 312,-360 366,-360 366,-396"/>
<text text-anchor="middle" x="339" y="-375.5" font-family="Helvetica,sans-Serif" font-size="10.00" fill="#000000">cpu</text>
</a>
</g>
</g>
<!-- dir_58f3176b1e99b444b21d021594354993&#45;&gt;dir_68267d1309a1af8e8297ef4c3efbcdba -->
<g id="edge16" class="edge">
<title>dir_58f3176b1e99b444b21d021594354993&#45;&gt;dir_68267d1309a1af8e8297ef4c3efbcdba</title>
<path fill="none" stroke="#000000" d="M366.0812,-363.1087C369.0307,-361.8973 372.038,-360.8245 375,-360 423.6428,-346.4604 793.7401,-361.0905 828,-324 843.6814,-307.023 835.754,-293.7715 828,-272 826.5539,-267.9396 824.4674,-263.9991 822.0504,-260.2898"/>
<polygon fill="#000000" stroke="#000000" points="824.7365,-258.0368 815.9566,-252.1069 819.1222,-262.2178 824.7365,-258.0368"/>
<g id="a_edge16&#45;headlabel"><a xlink:href="dir_000068_000003.xhtml" target="_top" xlink:title="2">
<text text-anchor="middle" x="829.1606" y="-256.724" font-family="Helvetica,sans-Serif" font-size="10.00" fill="#000000">2</text>
</a>
</g>
</g>
<!-- dir_fd4a7b5d6d327eebb6d6642c71eea13b -->
<g id="node5" class="node">
<title>dir_fd4a7b5d6d327eebb6d6642c71eea13b</title>
<g id="a_node5"><a xlink:href="dir_fd4a7b5d6d327eebb6d6642c71eea13b.xhtml" target="_top" xlink:title="gpu">
<polygon fill="#ffffff" stroke="#ff0000" points="438,-396 384,-396 384,-360 438,-360 438,-396"/>
<text text-anchor="middle" x="411" y="-375.5" font-family="Helvetica,sans-Serif" font-size="10.00" fill="#000000">gpu</text>
</a>
</g>
</g>
<!-- dir_fd4a7b5d6d327eebb6d6642c71eea13b&#45;&gt;dir_68267d1309a1af8e8297ef4c3efbcdba -->
<g id="edge17" class="edge">
<title>dir_fd4a7b5d6d327eebb6d6642c71eea13b&#45;&gt;dir_68267d1309a1af8e8297ef4c3efbcdba</title>
<path fill="none" stroke="#000000" d="M438.0867,-363.1282C441.0351,-361.913 444.0407,-360.8339 447,-360 536.9508,-334.6518 802.8096,-392.8524 866,-324 881.6269,-306.9729 877.7571,-291.8971 866,-272 858.7929,-259.8031 846.1198,-251.2548 833.5846,-245.3996"/>
<polygon fill="#000000" stroke="#000000" points="834.6942,-242.0697 824.1186,-241.4312 831.9878,-248.5254 834.6942,-242.0697"/>
<g id="a_edge17&#45;headlabel"><a xlink:href="dir_000070_000003.xhtml" target="_top" xlink:title="2">
<text text-anchor="middle" x="839.107" y="-238.341" font-family="Helvetica,sans-Serif" font-size="10.00" fill="#000000">2</text>
</a>
</g>
</g>
<!-- dir_fd4a7b5d6d327eebb6d6642c71eea13b&#45;&gt;dir_214608ef36d61442cb2b0c1c4e9a7def -->
<g id="edge18" class="edge">
<title>dir_fd4a7b5d6d327eebb6d6642c71eea13b&#45;&gt;dir_214608ef36d61442cb2b0c1c4e9a7def</title>
<path fill="none" stroke="#000000" d="M438.0835,-363.1169C441.0326,-361.9039 444.0391,-360.8285 447,-360 494.0247,-346.8423 851.9159,-359.915 885,-324 951.2387,-252.0936 839.461,-177.9076 782,-144 739.4449,-118.8883 601.9585,-102.2443 525.5068,-94.681"/>
<polygon fill="#000000" stroke="#000000" points="525.4319,-91.1574 515.1404,-93.6742 524.7552,-98.1246 525.4319,-91.1574"/>
<g id="a_edge18&#45;headlabel"><a xlink:href="dir_000070_000000.xhtml" target="_top" xlink:title="1">
<text text-anchor="middle" x="529.2842" y="-86.1788" font-family="Helvetica,sans-Serif" font-size="10.00" fill="#000000">1</text>
</a>
</g>
</g>
<!-- dir_0538a82dae0483a21d0f1e9d7e0a45c6 -->
<g id="node6" class="node">
<title>dir_0538a82dae0483a21d0f1e9d7e0a45c6</title>
<g id="a_node6"><a xlink:href="dir_0538a82dae0483a21d0f1e9d7e0a45c6.xhtml" target="_top" xlink:title="NEON">
<polygon fill="#ffffff" stroke="#ff0000" points="78,-396 24,-396 24,-360 78,-360 78,-396"/>
<text text-anchor="middle" x="51" y="-375.5" font-family="Helvetica,sans-Serif" font-size="10.00" fill="#000000">NEON</text>
</a>
</g>
</g>
<!-- dir_0538a82dae0483a21d0f1e9d7e0a45c6&#45;&gt;dir_46fdb196cebdbffe77dac340cde62f29 -->
<g id="edge30" class="edge">
<title>dir_0538a82dae0483a21d0f1e9d7e0a45c6&#45;&gt;dir_46fdb196cebdbffe77dac340cde62f29</title>
<path fill="none" stroke="#000000" d="M78.2647,-363.6663C81.1784,-362.3462 84.1272,-361.0955 87,-360 140.0369,-339.7753 203.7171,-323.8879 244.5092,-314.7239"/>
<polygon fill="#000000" stroke="#000000" points="245.3601,-318.1203 254.3665,-312.5403 243.8462,-311.2859 245.3601,-318.1203"/>
<g id="a_edge30&#45;headlabel"><a xlink:href="dir_000302_000013.xhtml" target="_top" xlink:title="2">
<text text-anchor="middle" x="242.4646" y="-319.1697" font-family="Helvetica,sans-Serif" font-size="10.00" fill="#000000">2</text>
</a>
</g>
</g>
<!-- dir_0538a82dae0483a21d0f1e9d7e0a45c6&#45;&gt;dir_68267d1309a1af8e8297ef4c3efbcdba -->
<g id="edge31" class="edge">
<title>dir_0538a82dae0483a21d0f1e9d7e0a45c6&#45;&gt;dir_68267d1309a1af8e8297ef4c3efbcdba</title>
<path fill="none" stroke="#000000" d="M78.1065,-363.1969C81.0511,-361.9683 84.0503,-360.8674 87,-360 228.9681,-318.2539 275.0007,-362.0642 418,-324 473.7758,-309.1533 481.5068,-287.8701 537,-272 614.3908,-249.8676 708.6164,-240.1922 759.7037,-236.3162"/>
<polygon fill="#000000" stroke="#000000" points="760.2081,-239.7889 769.9288,-235.5747 759.7018,-232.8072 760.2081,-239.7889"/>
<g id="a_edge31&#45;headlabel"><a xlink:href="dir_000302_000003.xhtml" target="_top" xlink:title="20">
<text text-anchor="middle" x="756.8282" y="-240.3806" font-family="Helvetica,sans-Serif" font-size="10.00" fill="#000000">20</text>
</a>
</g>
</g>
<!-- dir_0538a82dae0483a21d0f1e9d7e0a45c6&#45;&gt;dir_cbdb8362360e11eafe2fa3bc74cf0ffd -->
<g id="edge32" class="edge">
<title>dir_0538a82dae0483a21d0f1e9d7e0a45c6&#45;&gt;dir_cbdb8362360e11eafe2fa3bc74cf0ffd</title>
<path fill="none" stroke="#000000" d="M78.1445,-363.3215C81.0817,-362.0686 84.0688,-360.9279 87,-360 189.4117,-327.581 242.8467,-392.005 326,-324 366.5955,-290.7999 379.2597,-227.1636 383.2099,-190.3026"/>
<polygon fill="#000000" stroke="#000000" points="386.706,-190.5047 384.1434,-180.2244 379.7359,-189.8589 386.706,-190.5047"/>
<g id="a_edge32&#45;headlabel"><a xlink:href="dir_000302_000035.xhtml" target="_top" xlink:title="3">
<text text-anchor="middle" x="389.2017" y="-191.8458" font-family="Helvetica,sans-Serif" font-size="10.00" fill="#000000">3</text>
</a>
</g>
</g>
<!-- dir_0538a82dae0483a21d0f1e9d7e0a45c6&#45;&gt;dir_445738e6fed662d0b65e690e3f1e1de0 -->
<g id="edge33" class="edge">
<title>dir_0538a82dae0483a21d0f1e9d7e0a45c6&#45;&gt;dir_445738e6fed662d0b65e690e3f1e1de0</title>
<path fill="none" stroke="#000000" d="M78.0821,-363.1119C81.0315,-361.8999 84.0384,-360.826 87,-360 278.9821,-306.4526 341.205,-374.5422 534,-324 534.7304,-323.8085 535.464,-323.6041 536.1994,-323.3879"/>
<polygon fill="#000000" stroke="#000000" points="537.4781,-326.6484 545.7496,-320.0278 535.1548,-320.0452 537.4781,-326.6484"/>
<g id="a_edge33&#45;headlabel"><a xlink:href="dir_000302_000347.xhtml" target="_top" xlink:title="107">
<text text-anchor="middle" x="535.0295" y="-328.0197" font-family="Helvetica,sans-Serif" font-size="10.00" fill="#000000">107</text>
</a>
</g>
</g>
<!-- dir_0538a82dae0483a21d0f1e9d7e0a45c6&#45;&gt;dir_9e71e2da941d3cafc4d98a9f6ae3de4f -->
<g id="edge34" class="edge">
<title>dir_0538a82dae0483a21d0f1e9d7e0a45c6&#45;&gt;dir_9e71e2da941d3cafc4d98a9f6ae3de4f</title>
<path fill="none" stroke="#000000" d="M65.9396,-359.7111C83.9256,-338.0421 115.4149,-301.1997 145,-272 149.5257,-267.5332 154.4887,-262.9636 159.3996,-258.6122"/>
<polygon fill="#000000" stroke="#000000" points="161.7541,-261.2031 167.0036,-252.0002 157.1608,-255.9208 161.7541,-261.2031"/>
<g id="a_edge34&#45;headlabel"><a xlink:href="dir_000302_000034.xhtml" target="_top" xlink:title="286">
<text text-anchor="middle" x="160.9046" y="-263.2043" font-family="Helvetica,sans-Serif" font-size="10.00" fill="#000000">286</text>
</a>
</g>
</g>
<!-- dir_0538a82dae0483a21d0f1e9d7e0a45c6&#45;&gt;dir_214608ef36d61442cb2b0c1c4e9a7def -->
<g id="edge35" class="edge">
<title>dir_0538a82dae0483a21d0f1e9d7e0a45c6&#45;&gt;dir_214608ef36d61442cb2b0c1c4e9a7def</title>
<path fill="none" stroke="#000000" d="M78.1276,-363.2674C81.0681,-362.025 84.0606,-360.9016 87,-360 203.5822,-324.241 260.0746,-395.3014 359,-324 428.9907,-273.5536 457.9915,-168.2028 468.2133,-117.8987"/>
<polygon fill="#000000" stroke="#000000" points="471.6576,-118.5218 470.1175,-108.0395 464.7846,-117.1943 471.6576,-118.5218"/>
<g id="a_edge35&#45;headlabel"><a xlink:href="dir_000302_000000.xhtml" target="_top" xlink:title="398">
<text text-anchor="middle" x="473.7638" y="-120.0895" font-family="Helvetica,sans-Serif" font-size="10.00" fill="#000000">398</text>
</a>
</g>
</g>
<!-- dir_5815af820a9cc9481f1d0990a0d60286 -->
<g id="node15" class="node">
<title>dir_5815af820a9cc9481f1d0990a0d60286</title>
<g id="a_node15"><a xlink:href="dir_5815af820a9cc9481f1d0990a0d60286.xhtml" target="_top" xlink:title="support">
<polygon fill="none" stroke="#000000" points="459,-36 405,-36 405,0 459,0 459,-36"/>
<text text-anchor="middle" x="432" y="-15.5" font-family="Helvetica,sans-Serif" font-size="10.00" fill="#000000">support</text>
</a>
</g>
</g>
<!-- dir_0538a82dae0483a21d0f1e9d7e0a45c6&#45;&gt;dir_5815af820a9cc9481f1d0990a0d60286 -->
<g id="edge36" class="edge">
<title>dir_0538a82dae0483a21d0f1e9d7e0a45c6&#45;&gt;dir_5815af820a9cc9481f1d0990a0d60286</title>
<path fill="none" stroke="#000000" d="M51.4144,-359.8157C52.0002,-332.5008 53,-279.2544 53,-234 53,-234 53,-234 53,-162 53,-89.4063 299.0488,-40.3093 394.6472,-23.9731"/>
<polygon fill="#000000" stroke="#000000" points="395.4626,-27.3852 404.7433,-22.2745 394.3011,-20.4822 395.4626,-27.3852"/>
<g id="a_edge36&#45;headlabel"><a xlink:href="dir_000302_000028.xhtml" target="_top" xlink:title="1">
<text text-anchor="middle" x="392.3888" y="-28.2814" font-family="Helvetica,sans-Serif" font-size="10.00" fill="#000000">1</text>
</a>
</g>
</g>
<!-- dir_46fdb196cebdbffe77dac340cde62f29&#45;&gt;dir_68267d1309a1af8e8297ef4c3efbcdba -->
<g id="edge1" class="edge">
<title>dir_46fdb196cebdbffe77dac340cde62f29&#45;&gt;dir_68267d1309a1af8e8297ef4c3efbcdba</title>
<path fill="none" stroke="#000000" d="M317.7324,-300.7886C360.135,-293.8851 437.6399,-281.4765 504,-272 595.831,-258.8862 704.1361,-245.3368 759.813,-238.5116"/>
<polygon fill="#000000" stroke="#000000" points="760.4024,-241.9657 769.9036,-237.2776 759.5527,-235.0174 760.4024,-241.9657"/>
<g id="a_edge1&#45;headlabel"><a xlink:href="dir_000013_000003.xhtml" target="_top" xlink:title="2">
<text text-anchor="middle" x="757.179" y="-242.7202" font-family="Helvetica,sans-Serif" font-size="10.00" fill="#000000">2</text>
</a>
</g>
</g>
<!-- dir_46fdb196cebdbffe77dac340cde62f29&#45;&gt;dir_cbdb8362360e11eafe2fa3bc74cf0ffd -->
<g id="edge2" class="edge">
<title>dir_46fdb196cebdbffe77dac340cde62f29&#45;&gt;dir_cbdb8362360e11eafe2fa3bc74cf0ffd</title>
<path fill="none" stroke="#000000" d="M298.5384,-287.7623C315.7962,-262.66 346.9801,-217.3017 366.8039,-188.4671"/>
<polygon fill="#000000" stroke="#000000" points="369.7822,-190.3129 372.5634,-180.0896 364.0139,-186.3472 369.7822,-190.3129"/>
<g id="a_edge2&#45;headlabel"><a xlink:href="dir_000013_000035.xhtml" target="_top" xlink:title="1">
<text text-anchor="middle" x="370.0855" y="-192.3835" font-family="Helvetica,sans-Serif" font-size="10.00" fill="#000000">1</text>
</a>
</g>
</g>
<!-- dir_46fdb196cebdbffe77dac340cde62f29&#45;&gt;dir_9e71e2da941d3cafc4d98a9f6ae3de4f -->
<g id="edge3" class="edge">
<title>dir_46fdb196cebdbffe77dac340cde62f29&#45;&gt;dir_9e71e2da941d3cafc4d98a9f6ae3de4f</title>
<path fill="none" stroke="#000000" d="M261.5228,-287.8314C249.4605,-278.8779 234.746,-267.9558 221.7314,-258.2955"/>
<polygon fill="#000000" stroke="#000000" points="223.5852,-255.3127 213.4694,-252.1628 219.413,-260.9335 223.5852,-255.3127"/>
<g id="a_edge3&#45;headlabel"><a xlink:href="dir_000013_000034.xhtml" target="_top" xlink:title="2">
<text text-anchor="middle" x="228.1638" y="-252.6752" font-family="Helvetica,sans-Serif" font-size="10.00" fill="#000000">2</text>
</a>
</g>
</g>
<!-- dir_46fdb196cebdbffe77dac340cde62f29&#45;&gt;dir_214608ef36d61442cb2b0c1c4e9a7def -->
<g id="edge4" class="edge">
<title>dir_46fdb196cebdbffe77dac340cde62f29&#45;&gt;dir_214608ef36d61442cb2b0c1c4e9a7def</title>
<path fill="none" stroke="#000000" d="M288.35,-287.9632C293.5241,-255.1606 308.8147,-185.319 349,-144 368.5106,-123.939 396.7299,-110.853 421.3207,-102.5956"/>
<polygon fill="#000000" stroke="#000000" points="422.4203,-105.9188 430.8929,-99.5575 420.3026,-99.2468 422.4203,-105.9188"/>
<g id="a_edge4&#45;headlabel"><a xlink:href="dir_000013_000000.xhtml" target="_top" xlink:title="80">
<text text-anchor="middle" x="419.853" y="-107.2124" font-family="Helvetica,sans-Serif" font-size="10.00" fill="#000000">80</text>
</a>
</g>
</g>
<!-- dir_46fdb196cebdbffe77dac340cde62f29&#45;&gt;dir_5815af820a9cc9481f1d0990a0d60286 -->
<g id="edge5" class="edge">
<title>dir_46fdb196cebdbffe77dac340cde62f29&#45;&gt;dir_5815af820a9cc9481f1d0990a0d60286</title>
<path fill="none" stroke="#000000" d="M285.6048,-287.8419C285.5787,-269.5001 286.5632,-240.4585 292,-216 299.4503,-182.4835 302.0899,-173.2932 320,-144 343.6592,-105.3038 379.7162,-67.2848 404.4912,-43.3031"/>
<polygon fill="#000000" stroke="#000000" points="406.9805,-45.7655 411.7916,-36.326 402.144,-40.705 406.9805,-45.7655"/>
<g id="a_edge5&#45;headlabel"><a xlink:href="dir_000013_000028.xhtml" target="_top" xlink:title="8">
<text text-anchor="middle" x="406.3436" y="-47.8017" font-family="Helvetica,sans-Serif" font-size="10.00" fill="#000000">8</text>
</a>
</g>
</g>
<!-- dir_0c108762cda89b68d4571cbbabdf46df -->
<g id="node8" class="node">
<title>dir_0c108762cda89b68d4571cbbabdf46df</title>
<g id="a_node8"><a xlink:href="dir_0c108762cda89b68d4571cbbabdf46df.xhtml" target="_top" xlink:title="UNIT">
<polygon fill="#ffffff" stroke="#000000" points="150,-396 96,-396 96,-360 150,-360 150,-396"/>
<text text-anchor="middle" x="123" y="-375.5" font-family="Helvetica,sans-Serif" font-size="10.00" fill="#000000">UNIT</text>
</a>
</g>
</g>
<!-- dir_0c108762cda89b68d4571cbbabdf46df&#45;&gt;dir_cbdb8362360e11eafe2fa3bc74cf0ffd -->
<g id="edge19" class="edge">
<title>dir_0c108762cda89b68d4571cbbabdf46df&#45;&gt;dir_cbdb8362360e11eafe2fa3bc74cf0ffd</title>
<path fill="none" stroke="#000000" d="M150.156,-363.3575C153.091,-362.0976 156.0744,-360.9454 159,-360 206.3476,-344.6994 347.1868,-361.4058 380,-324 412.2575,-287.2277 403.0109,-225.6945 393.7532,-189.9853"/>
<polygon fill="#000000" stroke="#000000" points="397.0899,-188.9196 391.0513,-180.2141 390.3431,-190.7852 397.0899,-188.9196"/>
<g id="a_edge19&#45;headlabel"><a xlink:href="dir_000081_000035.xhtml" target="_top" xlink:title="5">
<text text-anchor="middle" x="400.7845" y="-189.1274" font-family="Helvetica,sans-Serif" font-size="10.00" fill="#000000">5</text>
</a>
</g>
</g>
<!-- dir_0c108762cda89b68d4571cbbabdf46df&#45;&gt;dir_9e71e2da941d3cafc4d98a9f6ae3de4f -->
<g id="edge20" class="edge">
<title>dir_0c108762cda89b68d4571cbbabdf46df&#45;&gt;dir_9e71e2da941d3cafc4d98a9f6ae3de4f</title>
<path fill="none" stroke="#000000" d="M131.3589,-359.7623C142.765,-334.8764 163.2956,-290.0822 176.5258,-261.2165"/>
<polygon fill="#000000" stroke="#000000" points="179.7241,-262.6386 180.7089,-252.0896 173.3606,-259.722 179.7241,-262.6386"/>
<g id="a_edge20&#45;headlabel"><a xlink:href="dir_000081_000034.xhtml" target="_top" xlink:title="22">
<text text-anchor="middle" x="180.8075" y="-264.5893" font-family="Helvetica,sans-Serif" font-size="10.00" fill="#000000">22</text>
</a>
</g>
</g>
<!-- dir_0c108762cda89b68d4571cbbabdf46df&#45;&gt;dir_214608ef36d61442cb2b0c1c4e9a7def -->
<g id="edge21" class="edge">
<title>dir_0c108762cda89b68d4571cbbabdf46df&#45;&gt;dir_214608ef36d61442cb2b0c1c4e9a7def</title>
<path fill="none" stroke="#000000" d="M150.1405,-363.3088C153.0785,-362.0584 156.0668,-360.9218 159,-360 264.4153,-326.8732 320.0652,-394.6814 405,-324 466.8028,-272.5687 474.3195,-168.5314 474.091,-118.3445"/>
<polygon fill="#000000" stroke="#000000" points="477.5886,-118.1534 473.934,-108.2089 470.5894,-118.2619 477.5886,-118.1534"/>
<g id="a_edge21&#45;headlabel"><a xlink:href="dir_000081_000000.xhtml" target="_top" xlink:title="15">
<text text-anchor="middle" x="480.4831" y="-119.2037" font-family="Helvetica,sans-Serif" font-size="10.00" fill="#000000">15</text>
</a>
</g>
</g>
<!-- dir_68267d1309a1af8e8297ef4c3efbcdba&#45;&gt;dir_cbdb8362360e11eafe2fa3bc74cf0ffd -->
<g id="edge6" class="edge">
<title>dir_68267d1309a1af8e8297ef4c3efbcdba&#45;&gt;dir_cbdb8362360e11eafe2fa3bc74cf0ffd</title>
<path fill="none" stroke="#000000" d="M769.9675,-229.2759C698.3775,-216.765 503.774,-182.7566 421.9883,-168.464"/>
<polygon fill="#000000" stroke="#000000" points="422.5853,-165.0153 412.132,-166.7415 421.3802,-171.9108 422.5853,-165.0153"/>
<g id="a_edge6&#45;headlabel"><a xlink:href="dir_000003_000035.xhtml" target="_top" xlink:title="4">
<text text-anchor="middle" x="426.615" y="-160.3372" font-family="Helvetica,sans-Serif" font-size="10.00" fill="#000000">4</text>
</a>
</g>
</g>
<!-- dir_68267d1309a1af8e8297ef4c3efbcdba&#45;&gt;dir_214608ef36d61442cb2b0c1c4e9a7def -->
<g id="edge7" class="edge">
<title>dir_68267d1309a1af8e8297ef4c3efbcdba&#45;&gt;dir_214608ef36d61442cb2b0c1c4e9a7def</title>
<path fill="none" stroke="#000000" d="M793.8373,-215.7244C789.2513,-195.0115 778.6823,-161.8207 756,-144 720.8553,-116.388 596.8648,-101.0116 525.2001,-94.2437"/>
<polygon fill="#000000" stroke="#000000" points="525.3018,-90.7384 515.0232,-93.3072 524.6603,-97.7089 525.3018,-90.7384"/>
<g id="a_edge7&#45;headlabel"><a xlink:href="dir_000003_000000.xhtml" target="_top" xlink:title="2868">
<text text-anchor="middle" x="529.1415" y="-85.7404" font-family="Helvetica,sans-Serif" font-size="10.00" fill="#000000">2868</text>
</a>
</g>
</g>
<!-- dir_68267d1309a1af8e8297ef4c3efbcdba&#45;&gt;dir_5815af820a9cc9481f1d0990a0d60286 -->
<g id="edge8" class="edge">
<title>dir_68267d1309a1af8e8297ef4c3efbcdba&#45;&gt;dir_5815af820a9cc9481f1d0990a0d60286</title>
<path fill="none" stroke="#000000" d="M798.9869,-215.9376C800.1498,-196.0405 798.843,-164.1929 782,-144 740.644,-94.4189 550.3775,-45.4237 469.0416,-26.3454"/>
<polygon fill="#000000" stroke="#000000" points="469.7561,-22.9183 459.2234,-24.064 468.1717,-29.7366 469.7561,-22.9183"/>
<g id="a_edge8&#45;headlabel"><a xlink:href="dir_000003_000028.xhtml" target="_top" xlink:title="200">
<text text-anchor="middle" x="473.9001" y="-18.4662" font-family="Helvetica,sans-Serif" font-size="10.00" fill="#000000">200</text>
</a>
</g>
</g>
<!-- dir_cbdb8362360e11eafe2fa3bc74cf0ffd&#45;&gt;dir_214608ef36d61442cb2b0c1c4e9a7def -->
<g id="edge9" class="edge">
<title>dir_cbdb8362360e11eafe2fa3bc74cf0ffd&#45;&gt;dir_214608ef36d61442cb2b0c1c4e9a7def</title>
<path fill="none" stroke="#000000" d="M401.2537,-143.8314C411.3243,-134.8779 424.5168,-123.9558 436.8832,-114.2955"/>
<polygon fill="#000000" stroke="#000000" points="439.0604,-117.0364 444.8492,-108.1628 434.7902,-111.4897 439.0604,-117.0364"/>
<g id="a_edge9&#45;headlabel"><a xlink:href="dir_000035_000000.xhtml" target="_top" xlink:title="41">
<text text-anchor="middle" x="437.9441" y="-118.979" font-family="Helvetica,sans-Serif" font-size="10.00" fill="#000000">41</text>
</a>
</g>
</g>
<!-- dir_cbdb8362360e11eafe2fa3bc74cf0ffd&#45;&gt;dir_5815af820a9cc9481f1d0990a0d60286 -->
<g id="edge10" class="edge">
<title>dir_cbdb8362360e11eafe2fa3bc74cf0ffd&#45;&gt;dir_5815af820a9cc9481f1d0990a0d60286</title>
<path fill="none" stroke="#000000" d="M390.9526,-143.7623C399.0044,-119.0928 413.4416,-74.8598 422.8699,-45.9731"/>
<polygon fill="#000000" stroke="#000000" points="426.3201,-46.6821 426.0957,-36.0896 419.6656,-44.5101 426.3201,-46.6821"/>
<g id="a_edge10&#45;headlabel"><a xlink:href="dir_000035_000028.xhtml" target="_top" xlink:title="4">
<text text-anchor="middle" x="427.904" y="-48.4802" font-family="Helvetica,sans-Serif" font-size="10.00" fill="#000000">4</text>
</a>
</g>
</g>
<!-- dir_445738e6fed662d0b65e690e3f1e1de0&#45;&gt;dir_68267d1309a1af8e8297ef4c3efbcdba -->
<g id="edge11" class="edge">
<title>dir_445738e6fed662d0b65e690e3f1e1de0&#45;&gt;dir_68267d1309a1af8e8297ef4c3efbcdba</title>
<path fill="none" stroke="#000000" d="M600.0196,-297.3151C640.0462,-284.4494 715.2015,-260.2924 760.2165,-245.8233"/>
<polygon fill="#000000" stroke="#000000" points="761.4353,-249.1079 769.8845,-242.7157 759.2932,-242.4437 761.4353,-249.1079"/>
<g id="a_edge11&#45;headlabel"><a xlink:href="dir_000347_000003.xhtml" target="_top" xlink:title="2">
<text text-anchor="middle" x="758.882" y="-250.4109" font-family="Helvetica,sans-Serif" font-size="10.00" fill="#000000">2</text>
</a>
</g>
</g>
<!-- dir_445738e6fed662d0b65e690e3f1e1de0&#45;&gt;dir_214608ef36d61442cb2b0c1c4e9a7def -->
<g id="edge12" class="edge">
<title>dir_445738e6fed662d0b65e690e3f1e1de0&#45;&gt;dir_214608ef36d61442cb2b0c1c4e9a7def</title>
<path fill="none" stroke="#000000" d="M564.6461,-287.9555C547.1093,-250.0762 506.3712,-162.0818 485.6269,-117.274"/>
<polygon fill="#000000" stroke="#000000" points="488.7779,-115.7493 481.4005,-108.1451 482.4256,-118.6902 488.7779,-115.7493"/>
<g id="a_edge12&#45;headlabel"><a xlink:href="dir_000347_000000.xhtml" target="_top" xlink:title="6">
<text text-anchor="middle" x="492.8646" y="-115.3185" font-family="Helvetica,sans-Serif" font-size="10.00" fill="#000000">6</text>
</a>
</g>
</g>
<!-- dir_9e71e2da941d3cafc4d98a9f6ae3de4f&#45;&gt;dir_cbdb8362360e11eafe2fa3bc74cf0ffd -->
<g id="edge13" class="edge">
<title>dir_9e71e2da941d3cafc4d98a9f6ae3de4f&#45;&gt;dir_cbdb8362360e11eafe2fa3bc74cf0ffd</title>
<path fill="none" stroke="#000000" d="M224.0409,-221.1278C259.0663,-208.2614 312.6986,-188.5597 348.2984,-175.4822"/>
<polygon fill="#000000" stroke="#000000" points="349.6509,-178.7141 357.8307,-171.9806 347.2371,-172.1434 349.6509,-178.7141"/>
<g id="a_edge13&#45;headlabel"><a xlink:href="dir_000034_000035.xhtml" target="_top" xlink:title="3">
<text text-anchor="middle" x="347.2557" y="-180.1187" font-family="Helvetica,sans-Serif" font-size="10.00" fill="#000000">3</text>
</a>
</g>
</g>
<!-- dir_9e71e2da941d3cafc4d98a9f6ae3de4f&#45;&gt;dir_214608ef36d61442cb2b0c1c4e9a7def -->
<g id="edge14" class="edge">
<title>dir_9e71e2da941d3cafc4d98a9f6ae3de4f&#45;&gt;dir_214608ef36d61442cb2b0c1c4e9a7def</title>
<path fill="none" stroke="#000000" d="M209.8537,-215.9883C233.6947,-196.1366 274.5384,-164.3295 314,-144 348.0251,-126.4712 388.9706,-112.7188 420.7888,-103.4797"/>
<polygon fill="#000000" stroke="#000000" points="422.1168,-106.7409 430.7784,-100.6395 420.2024,-100.0078 422.1168,-106.7409"/>
<g id="a_edge14&#45;headlabel"><a xlink:href="dir_000034_000000.xhtml" target="_top" xlink:title="16">
<text text-anchor="middle" x="419.4357" y="-107.9549" font-family="Helvetica,sans-Serif" font-size="10.00" fill="#000000">16</text>
</a>
</g>
</g>
<!-- dir_9e71e2da941d3cafc4d98a9f6ae3de4f&#45;&gt;dir_5815af820a9cc9481f1d0990a0d60286 -->
<g id="edge15" class="edge">
<title>dir_9e71e2da941d3cafc4d98a9f6ae3de4f&#45;&gt;dir_5815af820a9cc9481f1d0990a0d60286</title>
<path fill="none" stroke="#000000" d="M189.1031,-215.8232C190.3096,-182.4764 197.7717,-111.3434 238,-72 260.168,-50.3197 344.7574,-32.7579 394.6212,-24.0162"/>
<polygon fill="#000000" stroke="#000000" points="395.4358,-27.4277 404.6996,-22.2864 394.2516,-20.5286 395.4358,-27.4277"/>
<g id="a_edge15&#45;headlabel"><a xlink:href="dir_000034_000028.xhtml" target="_top" xlink:title="6">
<text text-anchor="middle" x="392.3733" y="-28.334" font-family="Helvetica,sans-Serif" font-size="10.00" fill="#000000">6</text>
</a>
</g>
</g>
<!-- dir_214608ef36d61442cb2b0c1c4e9a7def&#45;&gt;dir_cbdb8362360e11eafe2fa3bc74cf0ffd -->
<g id="edge22" class="edge">
<title>dir_214608ef36d61442cb2b0c1c4e9a7def&#45;&gt;dir_cbdb8362360e11eafe2fa3bc74cf0ffd</title>
<path fill="none" stroke="#000000" d="M456.9127,-108.0206C446.605,-117.194 432.981,-128.4629 420.3184,-138.3274"/>
<polygon fill="#000000" stroke="#000000" points="417.9841,-135.7068 412.1806,-144.5708 422.2451,-141.2606 417.9841,-135.7068"/>
<g id="a_edge22&#45;headlabel"><a xlink:href="dir_000000_000035.xhtml" target="_top" xlink:title="1">
<text text-anchor="middle" x="419.1078" y="-128.7662" font-family="Helvetica,sans-Serif" font-size="10.00" fill="#000000">1</text>
</a>
</g>
</g>
<!-- dir_214608ef36d61442cb2b0c1c4e9a7def&#45;&gt;dir_5815af820a9cc9481f1d0990a0d60286 -->
<g id="edge23" class="edge">
<title>dir_214608ef36d61442cb2b0c1c4e9a7def&#45;&gt;dir_5815af820a9cc9481f1d0990a0d60286</title>
<path fill="none" stroke="#000000" d="M456.7016,-71.8314C451.3969,-63.8771 445.7724,-54.369 441.118,-45.5723"/>
<polygon fill="#000000" stroke="#000000" points="444.1308,-43.7729 436.5093,-36.4133 437.8778,-46.9194 444.1308,-43.7729"/>
<g id="a_edge23&#45;headlabel"><a xlink:href="dir_000000_000028.xhtml" target="_top" xlink:title="18">
<text text-anchor="middle" x="448.2828" y="-43.2077" font-family="Helvetica,sans-Serif" font-size="10.00" fill="#000000">18</text>
</a>
</g>
</g>
<!-- dir_896191444cf08ec8ade6f88256cb2bdd&#45;&gt;dir_68267d1309a1af8e8297ef4c3efbcdba -->
<g id="edge37" class="edge">
<title>dir_896191444cf08ec8ade6f88256cb2bdd&#45;&gt;dir_68267d1309a1af8e8297ef4c3efbcdba</title>
<path fill="none" stroke="#000000" d="M768.589,-287.8314C772.8317,-279.7925 777.9121,-270.1666 782.596,-261.2918"/>
<polygon fill="#000000" stroke="#000000" points="785.7096,-262.8908 787.2819,-252.4133 779.5189,-259.6235 785.7096,-262.8908"/>
<g id="a_edge37&#45;headlabel"><a xlink:href="dir_000346_000003.xhtml" target="_top" xlink:title="4">
<text text-anchor="middle" x="786.5428" y="-264.895" font-family="Helvetica,sans-Serif" font-size="10.00" fill="#000000">4</text>
</a>
</g>
</g>
<!-- dir_896191444cf08ec8ade6f88256cb2bdd&#45;&gt;dir_9e71e2da941d3cafc4d98a9f6ae3de4f -->
<g id="edge38" class="edge">
<title>dir_896191444cf08ec8ade6f88256cb2bdd&#45;&gt;dir_9e71e2da941d3cafc4d98a9f6ae3de4f</title>
<path fill="none" stroke="#000000" d="M731.839,-298.6993C701.9516,-290.9349 652.388,-278.8491 609,-272 473.6222,-250.6296 311.6556,-240.1941 234.3718,-236.1283"/>
<polygon fill="#000000" stroke="#000000" points="234.2071,-232.6152 224.0403,-235.5964 233.8471,-239.606 234.2071,-232.6152"/>
<g id="a_edge38&#45;headlabel"><a xlink:href="dir_000346_000034.xhtml" target="_top" xlink:title="1">
<text text-anchor="middle" x="237.9429" y="-227.4644" font-family="Helvetica,sans-Serif" font-size="10.00" fill="#000000">1</text>
</a>
</g>
</g>
<!-- dir_896191444cf08ec8ade6f88256cb2bdd&#45;&gt;dir_214608ef36d61442cb2b0c1c4e9a7def -->
<g id="edge39" class="edge">
<title>dir_896191444cf08ec8ade6f88256cb2bdd&#45;&gt;dir_214608ef36d61442cb2b0c1c4e9a7def</title>
<path fill="none" stroke="#000000" d="M760.0923,-287.9576C761.0586,-254.5118 757.9923,-182.7736 718,-144 691.0068,-117.8293 589.0001,-102.3982 525.4297,-95.1236"/>
<polygon fill="#000000" stroke="#000000" points="525.5155,-91.6116 515.1898,-93.984 524.7413,-98.5687 525.5155,-91.6116"/>
<g id="a_edge39&#45;headlabel"><a xlink:href="dir_000346_000000.xhtml" target="_top" xlink:title="6">
<text text-anchor="middle" x="529.4021" y="-86.6872" font-family="Helvetica,sans-Serif" font-size="10.00" fill="#000000">6</text>
</a>
</g>
</g>
<!-- dir_896191444cf08ec8ade6f88256cb2bdd&#45;&gt;dir_5815af820a9cc9481f1d0990a0d60286 -->
<g id="edge40" class="edge">
<title>dir_896191444cf08ec8ade6f88256cb2bdd&#45;&gt;dir_5815af820a9cc9481f1d0990a0d60286</title>
<path fill="none" stroke="#000000" d="M786.0761,-294.2385C802.9281,-285.3174 823.2004,-271.2824 833,-252 855.5704,-207.5888 834.7458,-182.3925 803,-144 766.0022,-99.256 747.6217,-94.2617 694,-72 617.7567,-40.3467 521.0763,-26.6157 469.0985,-21.1791"/>
<polygon fill="#000000" stroke="#000000" points="469.3122,-17.6831 459.0135,-20.1704 468.6155,-24.6484 469.3122,-17.6831"/>
<g id="a_edge40&#45;headlabel"><a xlink:href="dir_000346_000028.xhtml" target="_top" xlink:title="1">
<text text-anchor="middle" x="473.1716" y="-12.7156" font-family="Helvetica,sans-Serif" font-size="10.00" fill="#000000">1</text>
</a>
</g>
</g>
<!-- dir_5815af820a9cc9481f1d0990a0d60286&#45;&gt;dir_214608ef36d61442cb2b0c1c4e9a7def -->
<g id="edge45" class="edge">
<title>dir_5815af820a9cc9481f1d0990a0d60286&#45;&gt;dir_214608ef36d61442cb2b0c1c4e9a7def</title>
<path fill="none" stroke="#000000" d="M448.4613,-36.4133C453.7724,-44.3991 459.3901,-53.9155 464.0245,-62.6975"/>
<polygon fill="#000000" stroke="#000000" points="460.994,-64.4623 468.6064,-71.8314 467.2509,-61.3236 460.994,-64.4623"/>
<g id="a_edge45&#45;headlabel"><a xlink:href="dir_000028_000000.xhtml" target="_top" xlink:title="6">
<text text-anchor="middle" x="456.8445" y="-60.0223" font-family="Helvetica,sans-Serif" font-size="10.00" fill="#000000">6</text>
</a>
</g>
</g>
</g>
</svg>
