<?xml version="1.0" encoding="UTF-8" standalone="no"?>
<!DOCTYPE svg PUBLIC "-//W3C//DTD SVG 1.1//EN"
 "http://www.w3.org/Graphics/SVG/1.1/DTD/svg11.dtd">
<!-- Generated by graphviz version 2.40.1 (20161225.0304)
 -->
<!-- Title: tests/validation/NEON Pages: 1 -->
<svg width="424pt" height="447pt"
 viewBox="0.00 0.00 424.18 447.00" xmlns="http://www.w3.org/2000/svg" xmlns:xlink="http://www.w3.org/1999/xlink">
<g id="graph0" class="graph" transform="scale(1 1) rotate(0) translate(4 443)">
<title>tests/validation/NEON</title>
<polygon fill="#ffffff" stroke="transparent" points="-4,4 -4,-443 420.1819,-443 420.1819,4 -4,4"/>
<g id="clust1" class="cluster">
<title>clusterdir_e7c7b16542faa38cb4655ff1750d3604</title>
<g id="a_clust1"><a xlink:href="dir_e7c7b16542faa38cb4655ff1750d3604.xhtml" target="_top" xlink:title="validation">
<polygon fill="#ddddee" stroke="#000000" points="155.1819,-344 155.1819,-431 313.1819,-431 313.1819,-344 155.1819,-344"/>
<text text-anchor="middle" x="234.1819" y="-419" font-family="Helvetica,sans-Serif" font-size="10.00" fill="#000000">validation</text>
</a>
</g>
</g>
<g id="clust2" class="cluster">
<title>clusterdir_0538a82dae0483a21d0f1e9d7e0a45c6</title>
<g id="a_clust2"><a xlink:href="dir_0538a82dae0483a21d0f1e9d7e0a45c6.xhtml" target="_top">
<polygon fill="#eeeeff" stroke="#000000" points="163.1819,-352 163.1819,-404 305.1819,-404 305.1819,-352 163.1819,-352"/>
</a>
</g>
</g>
<!-- dir_0538a82dae0483a21d0f1e9d7e0a45c6 -->
<g id="node1" class="node">
<title>dir_0538a82dae0483a21d0f1e9d7e0a45c6</title>
<text text-anchor="middle" x="270.1819" y="-375.5" font-family="Helvetica,sans-Serif" font-size="10.00" fill="#000000">NEON</text>
</g>
<!-- dir_68267d1309a1af8e8297ef4c3efbcdba -->
<g id="node4" class="node">
<title>dir_68267d1309a1af8e8297ef4c3efbcdba</title>
<g id="a_node4"><a xlink:href="dir_68267d1309a1af8e8297ef4c3efbcdba.xhtml" target="_top" xlink:title="src">
<polygon fill="#ffffff" stroke="#ff0000" points="346.1819,-252 292.1819,-252 292.1819,-216 346.1819,-216 346.1819,-252"/>
<text text-anchor="middle" x="319.1819" y="-231.5" font-family="Helvetica,sans-Serif" font-size="10.00" fill="#000000">src</text>
</a>
</g>
</g>
<!-- dir_0538a82dae0483a21d0f1e9d7e0a45c6&#45;&gt;dir_68267d1309a1af8e8297ef4c3efbcdba -->
<g id="edge22" class="edge">
<title>dir_0538a82dae0483a21d0f1e9d7e0a45c6&#45;&gt;dir_68267d1309a1af8e8297ef4c3efbcdba</title>
<path fill="none" stroke="#000000" d="M291.8163,-359.766C301.4901,-350.2191 311.8894,-337.6775 317.1819,-324 324.7728,-304.3832 324.935,-280.5176 323.3814,-262.2925"/>
<polygon fill="#000000" stroke="#000000" points="326.8551,-261.8594 322.3116,-252.2883 319.8948,-262.6038 326.8551,-261.8594"/>
<g id="a_edge22&#45;headlabel"><a xlink:href="dir_000302_000003.xhtml" target="_top" xlink:title="20">
<text text-anchor="middle" x="330.0604" y="-262.6318" font-family="Helvetica,sans-Serif" font-size="10.00" fill="#000000">20</text>
</a>
</g>
</g>
<!-- dir_cbdb8362360e11eafe2fa3bc74cf0ffd -->
<g id="node5" class="node">
<title>dir_cbdb8362360e11eafe2fa3bc74cf0ffd</title>
<g id="a_node5"><a xlink:href="dir_cbdb8362360e11eafe2fa3bc74cf0ffd.xhtml" target="_top" xlink:title="utils">
<polygon fill="#ffffff" stroke="#ff0000" points="194.1819,-180 140.1819,-180 140.1819,-144 194.1819,-144 194.1819,-180"/>
<text text-anchor="middle" x="167.1819" y="-159.5" font-family="Helvetica,sans-Serif" font-size="10.00" fill="#000000">utils</text>
</a>
</g>
</g>
<!-- dir_0538a82dae0483a21d0f1e9d7e0a45c6&#45;&gt;dir_cbdb8362360e11eafe2fa3bc74cf0ffd -->
<g id="edge23" class="edge">
<title>dir_0538a82dae0483a21d0f1e9d7e0a45c6&#45;&gt;dir_cbdb8362360e11eafe2fa3bc74cf0ffd</title>
<path fill="none" stroke="#000000" d="M261.5774,-359.9555C243.5145,-322.0762 201.5543,-234.0818 180.1876,-189.274"/>
<polygon fill="#000000" stroke="#000000" points="183.2979,-187.6649 175.8344,-180.1451 176.9795,-190.6779 183.2979,-187.6649"/>
<g id="a_edge23&#45;headlabel"><a xlink:href="dir_000302_000035.xhtml" target="_top" xlink:title="3">
<text text-anchor="middle" x="187.4079" y="-187.1874" font-family="Helvetica,sans-Serif" font-size="10.00" fill="#000000">3</text>
</a>
</g>
</g>
<!-- dir_445738e6fed662d0b65e690e3f1e1de0 -->
<g id="node6" class="node">
<title>dir_445738e6fed662d0b65e690e3f1e1de0</title>
<g id="a_node6"><a xlink:href="dir_445738e6fed662d0b65e690e3f1e1de0.xhtml" target="_top" xlink:title="NEON">
<polygon fill="none" stroke="#000000" points="308.1819,-324 254.1819,-324 254.1819,-288 308.1819,-288 308.1819,-324"/>
<text text-anchor="middle" x="281.1819" y="-303.5" font-family="Helvetica,sans-Serif" font-size="10.00" fill="#000000">NEON</text>
</a>
</g>
</g>
<!-- dir_0538a82dae0483a21d0f1e9d7e0a45c6&#45;&gt;dir_445738e6fed662d0b65e690e3f1e1de0 -->
<g id="edge24" class="edge">
<title>dir_0538a82dae0483a21d0f1e9d7e0a45c6&#45;&gt;dir_445738e6fed662d0b65e690e3f1e1de0</title>
<path fill="none" stroke="#000000" d="M272.9577,-359.8314C274.1342,-352.131 275.5331,-342.9743 276.8405,-334.4166"/>
<polygon fill="#000000" stroke="#000000" points="280.3183,-334.8272 278.3688,-324.4133 273.3986,-333.7699 280.3183,-334.8272"/>
<g id="a_edge24&#45;headlabel"><a xlink:href="dir_000302_000347.xhtml" target="_top" xlink:title="107">
<text text-anchor="middle" x="282.5822" y="-336.3093" font-family="Helvetica,sans-Serif" font-size="10.00" fill="#000000">107</text>
</a>
</g>
</g>
<!-- dir_9e71e2da941d3cafc4d98a9f6ae3de4f -->
<g id="node7" class="node">
<title>dir_9e71e2da941d3cafc4d98a9f6ae3de4f</title>
<g id="a_node7"><a xlink:href="dir_9e71e2da941d3cafc4d98a9f6ae3de4f.xhtml" target="_top" xlink:title="framework">
<polygon fill="#ffffff" stroke="#ff0000" points="84.1819,-252 14.1819,-252 14.1819,-216 84.1819,-216 84.1819,-252"/>
<text text-anchor="middle" x="49.1819" y="-231.5" font-family="Helvetica,sans-Serif" font-size="10.00" fill="#000000">framework</text>
</a>
</g>
</g>
<!-- dir_0538a82dae0483a21d0f1e9d7e0a45c6&#45;&gt;dir_9e71e2da941d3cafc4d98a9f6ae3de4f -->
<g id="edge25" class="edge">
<title>dir_0538a82dae0483a21d0f1e9d7e0a45c6&#45;&gt;dir_9e71e2da941d3cafc4d98a9f6ae3de4f</title>
<path fill="none" stroke="#000000" d="M255.3613,-359.9982C249.4148,-353.9487 242.0928,-347.7827 234.1819,-344 174.6973,-315.5564 139.5419,-364.0736 87.1819,-324 67.7987,-309.165 58.1995,-282.5668 53.5095,-262.1195"/>
<polygon fill="#000000" stroke="#000000" points="56.8924,-261.1896 51.4786,-252.0823 50.0314,-262.5779 56.8924,-261.1896"/>
<g id="a_edge25&#45;headlabel"><a xlink:href="dir_000302_000034.xhtml" target="_top" xlink:title="286">
<text text-anchor="middle" x="60.388" y="-261.6497" font-family="Helvetica,sans-Serif" font-size="10.00" fill="#000000">286</text>
</a>
</g>
</g>
<!-- dir_214608ef36d61442cb2b0c1c4e9a7def -->
<g id="node8" class="node">
<title>dir_214608ef36d61442cb2b0c1c4e9a7def</title>
<g id="a_node8"><a xlink:href="dir_214608ef36d61442cb2b0c1c4e9a7def.xhtml" target="_top" xlink:title="arm_compute">
<polygon fill="#ffffff" stroke="#ff0000" points="264.1819,-108 180.1819,-108 180.1819,-72 264.1819,-72 264.1819,-108"/>
<text text-anchor="middle" x="222.1819" y="-87.5" font-family="Helvetica,sans-Serif" font-size="10.00" fill="#000000">arm_compute</text>
</a>
</g>
</g>
<!-- dir_0538a82dae0483a21d0f1e9d7e0a45c6&#45;&gt;dir_214608ef36d61442cb2b0c1c4e9a7def -->
<g id="edge26" class="edge">
<title>dir_0538a82dae0483a21d0f1e9d7e0a45c6&#45;&gt;dir_214608ef36d61442cb2b0c1c4e9a7def</title>
<path fill="none" stroke="#000000" d="M297.3004,-361.2217C310.4903,-351.7832 325.5389,-338.9043 335.1819,-324 361.6995,-283.0143 370.2012,-262.4482 355.1819,-216 340.4943,-170.5774 297.3134,-135.1062 264.0978,-113.5307"/>
<polygon fill="#000000" stroke="#000000" points="265.7848,-110.4567 255.4594,-108.0823 262.0505,-116.3774 265.7848,-110.4567"/>
<g id="a_edge26&#45;headlabel"><a xlink:href="dir_000302_000000.xhtml" target="_top" xlink:title="398">
<text text-anchor="middle" x="270.3398" y="-107.4728" font-family="Helvetica,sans-Serif" font-size="10.00" fill="#000000">398</text>
</a>
</g>
</g>
<!-- dir_5815af820a9cc9481f1d0990a0d60286 -->
<g id="node9" class="node">
<title>dir_5815af820a9cc9481f1d0990a0d60286</title>
<g id="a_node9"><a xlink:href="dir_5815af820a9cc9481f1d0990a0d60286.xhtml" target="_top" xlink:title="support">
<polygon fill="none" stroke="#000000" points="249.1819,-36 195.1819,-36 195.1819,0 249.1819,0 249.1819,-36"/>
<text text-anchor="middle" x="222.1819" y="-15.5" font-family="Helvetica,sans-Serif" font-size="10.00" fill="#000000">support</text>
</a>
</g>
</g>
<!-- dir_0538a82dae0483a21d0f1e9d7e0a45c6&#45;&gt;dir_5815af820a9cc9481f1d0990a0d60286 -->
<g id="edge27" class="edge">
<title>dir_0538a82dae0483a21d0f1e9d7e0a45c6&#45;&gt;dir_5815af820a9cc9481f1d0990a0d60286</title>
<path fill="none" stroke="#000000" d="M297.3013,-366.2779C339.5234,-345.9827 416.1819,-300.0412 416.1819,-234 416.1819,-234 416.1819,-234 416.1819,-162 416.1819,-84.6423 315.4958,-44.0081 259.1955,-27.3336"/>
<polygon fill="#000000" stroke="#000000" points="260.1425,-23.9642 249.5659,-24.5865 258.2221,-30.6956 260.1425,-23.9642"/>
<g id="a_edge27&#45;headlabel"><a xlink:href="dir_000302_000028.xhtml" target="_top" xlink:title="1">
<text text-anchor="middle" x="264.3781" y="-19.7199" font-family="Helvetica,sans-Serif" font-size="10.00" fill="#000000">1</text>
</a>
</g>
</g>
<!-- dir_6fc87decd8cffc07e5f49c197ca3de10 -->
<g id="node2" class="node">
<title>dir_6fc87decd8cffc07e5f49c197ca3de10</title>
<g id="a_node2"><a xlink:href="dir_6fc87decd8cffc07e5f49c197ca3de10.xhtml" target="_top" xlink:title="UNIT">
<polygon fill="#ffffff" stroke="#000000" points="225.1819,-396 171.1819,-396 171.1819,-360 225.1819,-360 225.1819,-396"/>
<text text-anchor="middle" x="198.1819" y="-375.5" font-family="Helvetica,sans-Serif" font-size="10.00" fill="#000000">UNIT</text>
</a>
</g>
</g>
<!-- dir_46fdb196cebdbffe77dac340cde62f29 -->
<g id="node3" class="node">
<title>dir_46fdb196cebdbffe77dac340cde62f29</title>
<g id="a_node3"><a xlink:href="dir_46fdb196cebdbffe77dac340cde62f29.xhtml" target="_top" xlink:title="reference">
<polygon fill="none" stroke="#000000" points="159.6819,-324 96.6819,-324 96.6819,-288 159.6819,-288 159.6819,-324"/>
<text text-anchor="middle" x="128.1819" y="-303.5" font-family="Helvetica,sans-Serif" font-size="10.00" fill="#000000">reference</text>
</a>
</g>
</g>
<!-- dir_6fc87decd8cffc07e5f49c197ca3de10&#45;&gt;dir_46fdb196cebdbffe77dac340cde62f29 -->
<g id="edge9" class="edge">
<title>dir_6fc87decd8cffc07e5f49c197ca3de10&#45;&gt;dir_46fdb196cebdbffe77dac340cde62f29</title>
<path fill="none" stroke="#000000" d="M180.518,-359.8314C172.2088,-351.2848 162.1556,-340.9443 153.0901,-331.6198"/>
<polygon fill="#000000" stroke="#000000" points="155.564,-329.1435 146.0837,-324.4133 150.545,-334.023 155.564,-329.1435"/>
<g id="a_edge9&#45;headlabel"><a xlink:href="dir_000340_000013.xhtml" target="_top" xlink:title="2">
<text text-anchor="middle" x="160.1055" y="-327.2416" font-family="Helvetica,sans-Serif" font-size="10.00" fill="#000000">2</text>
</a>
</g>
</g>
<!-- dir_6fc87decd8cffc07e5f49c197ca3de10&#45;&gt;dir_445738e6fed662d0b65e690e3f1e1de0 -->
<g id="edge10" class="edge">
<title>dir_6fc87decd8cffc07e5f49c197ca3de10&#45;&gt;dir_445738e6fed662d0b65e690e3f1e1de0</title>
<path fill="none" stroke="#000000" d="M216.986,-359.7236C222.4525,-354.5527 228.4863,-348.9791 234.1819,-344 239.1589,-339.6491 244.5327,-335.1384 249.8066,-330.8099"/>
<polygon fill="#000000" stroke="#000000" points="252.3824,-333.227 257.9405,-324.2072 247.9707,-327.7922 252.3824,-333.227"/>
<g id="a_edge10&#45;headlabel"><a xlink:href="dir_000340_000347.xhtml" target="_top" xlink:title="3">
<text text-anchor="middle" x="251.381" y="-335.1969" font-family="Helvetica,sans-Serif" font-size="10.00" fill="#000000">3</text>
</a>
</g>
</g>
<!-- dir_6fc87decd8cffc07e5f49c197ca3de10&#45;&gt;dir_9e71e2da941d3cafc4d98a9f6ae3de4f -->
<g id="edge11" class="edge">
<title>dir_6fc87decd8cffc07e5f49c197ca3de10&#45;&gt;dir_9e71e2da941d3cafc4d98a9f6ae3de4f</title>
<path fill="none" stroke="#000000" d="M171.0919,-371.5886C133.4595,-362.0892 68.3725,-343.3097 54.1819,-324 41.2804,-306.4443 40.9325,-281.3661 43.2998,-262.1392"/>
<polygon fill="#000000" stroke="#000000" points="46.7762,-262.5593 44.8318,-252.1444 39.857,-261.4987 46.7762,-262.5593"/>
<g id="a_edge11&#45;headlabel"><a xlink:href="dir_000340_000034.xhtml" target="_top" xlink:title="9">
<text text-anchor="middle" x="49.0381" y="-264.0426" font-family="Helvetica,sans-Serif" font-size="10.00" fill="#000000">9</text>
</a>
</g>
</g>
<!-- dir_6fc87decd8cffc07e5f49c197ca3de10&#45;&gt;dir_214608ef36d61442cb2b0c1c4e9a7def -->
<g id="edge12" class="edge">
<title>dir_6fc87decd8cffc07e5f49c197ca3de10&#45;&gt;dir_214608ef36d61442cb2b0c1c4e9a7def</title>
<path fill="none" stroke="#000000" d="M199.6832,-359.9843C203.7408,-311.2939 214.9489,-176.7961 219.8438,-118.0573"/>
<polygon fill="#000000" stroke="#000000" points="223.3386,-118.265 220.6812,-108.0089 216.3627,-117.6836 223.3386,-118.265"/>
<g id="a_edge12&#45;headlabel"><a xlink:href="dir_000340_000000.xhtml" target="_top" xlink:title="23">
<text text-anchor="middle" x="225.8696" y="-119.583" font-family="Helvetica,sans-Serif" font-size="10.00" fill="#000000">23</text>
</a>
</g>
</g>
<!-- dir_46fdb196cebdbffe77dac340cde62f29&#45;&gt;dir_68267d1309a1af8e8297ef4c3efbcdba -->
<g id="edge1" class="edge">
<title>dir_46fdb196cebdbffe77dac340cde62f29&#45;&gt;dir_68267d1309a1af8e8297ef4c3efbcdba</title>
<path fill="none" stroke="#000000" d="M159.7217,-294.1107C193.4256,-281.4055 246.7998,-261.2854 282.3938,-247.8678"/>
<polygon fill="#000000" stroke="#000000" points="283.8078,-251.0752 291.9305,-244.2728 281.3386,-244.5252 283.8078,-251.0752"/>
<g id="a_edge1&#45;headlabel"><a xlink:href="dir_000013_000003.xhtml" target="_top" xlink:title="2">
<text text-anchor="middle" x="281.4457" y="-252.4999" font-family="Helvetica,sans-Serif" font-size="10.00" fill="#000000">2</text>
</a>
</g>
</g>
<!-- dir_46fdb196cebdbffe77dac340cde62f29&#45;&gt;dir_cbdb8362360e11eafe2fa3bc74cf0ffd -->
<g id="edge2" class="edge">
<title>dir_46fdb196cebdbffe77dac340cde62f29&#45;&gt;dir_cbdb8362360e11eafe2fa3bc74cf0ffd</title>
<path fill="none" stroke="#000000" d="M133.1213,-287.7623C139.8026,-263.0928 151.7824,-218.8598 159.6059,-189.9731"/>
<polygon fill="#000000" stroke="#000000" points="163.0467,-190.6569 162.2827,-180.0896 156.2901,-188.8269 163.0467,-190.6569"/>
<g id="a_edge2&#45;headlabel"><a xlink:href="dir_000013_000035.xhtml" target="_top" xlink:title="1">
<text text-anchor="middle" x="164.8477" y="-192.3687" font-family="Helvetica,sans-Serif" font-size="10.00" fill="#000000">1</text>
</a>
</g>
</g>
<!-- dir_46fdb196cebdbffe77dac340cde62f29&#45;&gt;dir_9e71e2da941d3cafc4d98a9f6ae3de4f -->
<g id="edge3" class="edge">
<title>dir_46fdb196cebdbffe77dac340cde62f29&#45;&gt;dir_9e71e2da941d3cafc4d98a9f6ae3de4f</title>
<path fill="none" stroke="#000000" d="M108.2469,-287.8314C98.7037,-279.1337 87.1221,-268.5783 76.7513,-259.1265"/>
<polygon fill="#000000" stroke="#000000" points="78.8592,-256.3121 69.1106,-252.1628 74.1439,-261.4857 78.8592,-256.3121"/>
<g id="a_edge3&#45;headlabel"><a xlink:href="dir_000013_000034.xhtml" target="_top" xlink:title="2">
<text text-anchor="middle" x="83.4284" y="-254.1349" font-family="Helvetica,sans-Serif" font-size="10.00" fill="#000000">2</text>
</a>
</g>
</g>
<!-- dir_46fdb196cebdbffe77dac340cde62f29&#45;&gt;dir_214608ef36d61442cb2b0c1c4e9a7def -->
<g id="edge4" class="edge">
<title>dir_46fdb196cebdbffe77dac340cde62f29&#45;&gt;dir_214608ef36d61442cb2b0c1c4e9a7def</title>
<path fill="none" stroke="#000000" d="M123.1974,-287.9622C115.5534,-256.3542 104.4484,-189.9551 131.1819,-144 140.1394,-128.602 155.3675,-117.1212 170.8305,-108.7994"/>
<polygon fill="#000000" stroke="#000000" points="172.5357,-111.86 179.9164,-104.2589 169.4066,-105.5983 172.5357,-111.86"/>
<g id="a_edge4&#45;headlabel"><a xlink:href="dir_000013_000000.xhtml" target="_top" xlink:title="80">
<text text-anchor="middle" x="170.5894" y="-113.5066" font-family="Helvetica,sans-Serif" font-size="10.00" fill="#000000">80</text>
</a>
</g>
</g>
<!-- dir_46fdb196cebdbffe77dac340cde62f29&#45;&gt;dir_5815af820a9cc9481f1d0990a0d60286 -->
<g id="edge5" class="edge">
<title>dir_46fdb196cebdbffe77dac340cde62f29&#45;&gt;dir_5815af820a9cc9481f1d0990a0d60286</title>
<path fill="none" stroke="#000000" d="M96.4868,-301.8274C67.1953,-296.1055 25.2671,-282.7535 5.1819,-252 -3.5671,-238.6039 .8484,-231.402 5.1819,-216 25.4968,-143.799 36.2693,-120.8532 93.1819,-72 119.8443,-49.1134 157.5895,-34.8453 185.3649,-26.7658"/>
<polygon fill="#000000" stroke="#000000" points="186.4065,-30.1091 195.1079,-24.0646 184.5363,-23.3635 186.4065,-30.1091"/>
<g id="a_edge5&#45;headlabel"><a xlink:href="dir_000013_000028.xhtml" target="_top" xlink:title="8">
<text text-anchor="middle" x="183.7011" y="-31.3054" font-family="Helvetica,sans-Serif" font-size="10.00" fill="#000000">8</text>
</a>
</g>
</g>
<!-- dir_68267d1309a1af8e8297ef4c3efbcdba&#45;&gt;dir_cbdb8362360e11eafe2fa3bc74cf0ffd -->
<g id="edge6" class="edge">
<title>dir_68267d1309a1af8e8297ef4c3efbcdba&#45;&gt;dir_cbdb8362360e11eafe2fa3bc74cf0ffd</title>
<path fill="none" stroke="#000000" d="M292.0074,-221.1278C267.3348,-209.4408 230.7569,-192.1144 203.5677,-179.2354"/>
<polygon fill="#000000" stroke="#000000" points="204.9128,-175.9997 194.377,-174.8819 201.9161,-182.3259 204.9128,-175.9997"/>
<g id="a_edge6&#45;headlabel"><a xlink:href="dir_000003_000035.xhtml" target="_top" xlink:title="4">
<text text-anchor="middle" x="209.3768" y="-172.4725" font-family="Helvetica,sans-Serif" font-size="10.00" fill="#000000">4</text>
</a>
</g>
</g>
<!-- dir_68267d1309a1af8e8297ef4c3efbcdba&#45;&gt;dir_214608ef36d61442cb2b0c1c4e9a7def -->
<g id="edge7" class="edge">
<title>dir_68267d1309a1af8e8297ef4c3efbcdba&#45;&gt;dir_214608ef36d61442cb2b0c1c4e9a7def</title>
<path fill="none" stroke="#000000" d="M313.1538,-215.6939C306.3946,-196.7186 294.2421,-166.7105 278.1819,-144 270.8102,-133.5758 261.2469,-123.4869 252.1156,-114.9072"/>
<polygon fill="#000000" stroke="#000000" points="254.3589,-112.2165 244.6045,-108.0809 249.6509,-117.3967 254.3589,-112.2165"/>
<g id="a_edge7&#45;headlabel"><a xlink:href="dir_000003_000000.xhtml" target="_top" xlink:title="2868">
<text text-anchor="middle" x="258.9286" y="-110.0329" font-family="Helvetica,sans-Serif" font-size="10.00" fill="#000000">2868</text>
</a>
</g>
</g>
<!-- dir_68267d1309a1af8e8297ef4c3efbcdba&#45;&gt;dir_5815af820a9cc9481f1d0990a0d60286 -->
<g id="edge8" class="edge">
<title>dir_68267d1309a1af8e8297ef4c3efbcdba&#45;&gt;dir_5815af820a9cc9481f1d0990a0d60286</title>
<path fill="none" stroke="#000000" d="M317.5045,-215.5402C313.8901,-183.8594 303.1115,-118.1021 273.1819,-72 266.5563,-61.7942 257.8862,-51.7755 249.5788,-43.1926"/>
<polygon fill="#000000" stroke="#000000" points="251.9799,-40.6439 242.4323,-36.051 247.0318,-45.5954 251.9799,-40.6439"/>
<g id="a_edge8&#45;headlabel"><a xlink:href="dir_000003_000028.xhtml" target="_top" xlink:title="200">
<text text-anchor="middle" x="256.5295" y="-38.6765" font-family="Helvetica,sans-Serif" font-size="10.00" fill="#000000">200</text>
</a>
</g>
</g>
<!-- dir_cbdb8362360e11eafe2fa3bc74cf0ffd&#45;&gt;dir_214608ef36d61442cb2b0c1c4e9a7def -->
<g id="edge13" class="edge">
<title>dir_cbdb8362360e11eafe2fa3bc74cf0ffd&#45;&gt;dir_214608ef36d61442cb2b0c1c4e9a7def</title>
<path fill="none" stroke="#000000" d="M175.1084,-143.8314C180.6913,-135.454 188.2176,-125.3531 195.6658,-116.1749"/>
<polygon fill="#000000" stroke="#000000" points="198.4223,-118.3344 202.1402,-108.4133 193.0469,-113.8504 198.4223,-118.3344"/>
<g id="a_edge13&#45;headlabel"><a xlink:href="dir_000035_000000.xhtml" target="_top" xlink:title="41">
<text text-anchor="middle" x="198.3001" y="-120.4134" font-family="Helvetica,sans-Serif" font-size="10.00" fill="#000000">41</text>
</a>
</g>
</g>
<!-- dir_cbdb8362360e11eafe2fa3bc74cf0ffd&#45;&gt;dir_5815af820a9cc9481f1d0990a0d60286 -->
<g id="edge14" class="edge">
<title>dir_cbdb8362360e11eafe2fa3bc74cf0ffd&#45;&gt;dir_5815af820a9cc9481f1d0990a0d60286</title>
<path fill="none" stroke="#000000" d="M164.407,-143.945C162.3234,-125.1745 161.3005,-95.3312 171.1819,-72 175.6869,-61.3634 183.2836,-51.5588 191.2567,-43.3063"/>
<polygon fill="#000000" stroke="#000000" points="193.8607,-45.6568 198.607,-36.1845 188.9897,-40.6295 193.8607,-45.6568"/>
<g id="a_edge14&#45;headlabel"><a xlink:href="dir_000035_000028.xhtml" target="_top" xlink:title="4">
<text text-anchor="middle" x="193.2548" y="-47.6972" font-family="Helvetica,sans-Serif" font-size="10.00" fill="#000000">4</text>
</a>
</g>
</g>
<!-- dir_445738e6fed662d0b65e690e3f1e1de0&#45;&gt;dir_68267d1309a1af8e8297ef4c3efbcdba -->
<g id="edge15" class="edge">
<title>dir_445738e6fed662d0b65e690e3f1e1de0&#45;&gt;dir_68267d1309a1af8e8297ef4c3efbcdba</title>
<path fill="none" stroke="#000000" d="M290.7709,-287.8314C295.0137,-279.7925 300.094,-270.1666 304.7779,-261.2918"/>
<polygon fill="#000000" stroke="#000000" points="307.8915,-262.8908 309.4638,-252.4133 301.7008,-259.6235 307.8915,-262.8908"/>
<g id="a_edge15&#45;headlabel"><a xlink:href="dir_000347_000003.xhtml" target="_top" xlink:title="2">
<text text-anchor="middle" x="308.7248" y="-264.895" font-family="Helvetica,sans-Serif" font-size="10.00" fill="#000000">2</text>
</a>
</g>
</g>
<!-- dir_445738e6fed662d0b65e690e3f1e1de0&#45;&gt;dir_214608ef36d61442cb2b0c1c4e9a7def -->
<g id="edge16" class="edge">
<title>dir_445738e6fed662d0b65e690e3f1e1de0&#45;&gt;dir_214608ef36d61442cb2b0c1c4e9a7def</title>
<path fill="none" stroke="#000000" d="M276.2531,-287.9555C265.9498,-250.235 242.0723,-162.8188 229.7864,-117.8399"/>
<polygon fill="#000000" stroke="#000000" points="233.1496,-116.8694 227.1382,-108.1451 226.3969,-118.7139 233.1496,-116.8694"/>
<g id="a_edge16&#45;headlabel"><a xlink:href="dir_000347_000000.xhtml" target="_top" xlink:title="6">
<text text-anchor="middle" x="236.8356" y="-117.0889" font-family="Helvetica,sans-Serif" font-size="10.00" fill="#000000">6</text>
</a>
</g>
</g>
<!-- dir_9e71e2da941d3cafc4d98a9f6ae3de4f&#45;&gt;dir_cbdb8362360e11eafe2fa3bc74cf0ffd -->
<g id="edge17" class="edge">
<title>dir_9e71e2da941d3cafc4d98a9f6ae3de4f&#45;&gt;dir_cbdb8362360e11eafe2fa3bc74cf0ffd</title>
<path fill="none" stroke="#000000" d="M78.9583,-215.8314C94.7425,-206.2003 114.26,-194.2913 130.9211,-184.1252"/>
<polygon fill="#000000" stroke="#000000" points="133.1283,-186.8787 139.8416,-178.6822 129.4822,-180.9032 133.1283,-186.8787"/>
<g id="a_edge17&#45;headlabel"><a xlink:href="dir_000034_000035.xhtml" target="_top" xlink:title="3">
<text text-anchor="middle" x="131.5386" y="-188.6746" font-family="Helvetica,sans-Serif" font-size="10.00" fill="#000000">3</text>
</a>
</g>
</g>
<!-- dir_9e71e2da941d3cafc4d98a9f6ae3de4f&#45;&gt;dir_214608ef36d61442cb2b0c1c4e9a7def -->
<g id="edge18" class="edge">
<title>dir_9e71e2da941d3cafc4d98a9f6ae3de4f&#45;&gt;dir_214608ef36d61442cb2b0c1c4e9a7def</title>
<path fill="none" stroke="#000000" d="M55.0167,-215.8459C62.2651,-195.8666 76.4024,-163.9455 98.1819,-144 118.4999,-125.393 146.2418,-112.4986 170.3342,-103.9891"/>
<polygon fill="#000000" stroke="#000000" points="171.6939,-107.2245 180.0556,-100.718 169.4615,-100.59 171.6939,-107.2245"/>
<g id="a_edge18&#45;headlabel"><a xlink:href="dir_000034_000000.xhtml" target="_top" xlink:title="16">
<text text-anchor="middle" x="169.1924" y="-108.5618" font-family="Helvetica,sans-Serif" font-size="10.00" fill="#000000">16</text>
</a>
</g>
</g>
<!-- dir_9e71e2da941d3cafc4d98a9f6ae3de4f&#45;&gt;dir_5815af820a9cc9481f1d0990a0d60286 -->
<g id="edge19" class="edge">
<title>dir_9e71e2da941d3cafc4d98a9f6ae3de4f&#45;&gt;dir_5815af820a9cc9481f1d0990a0d60286</title>
<path fill="none" stroke="#000000" d="M49.5261,-215.8015C50.6493,-196.6442 54.6527,-166.238 68.1819,-144 97.1479,-96.3887 150.7649,-58.7463 186.46,-37.4164"/>
<polygon fill="#000000" stroke="#000000" points="188.2585,-40.4192 195.1229,-32.3489 184.724,-34.3771 188.2585,-40.4192"/>
<g id="a_edge19&#45;headlabel"><a xlink:href="dir_000034_000028.xhtml" target="_top" xlink:title="6">
<text text-anchor="middle" x="186.5894" y="-42.1849" font-family="Helvetica,sans-Serif" font-size="10.00" fill="#000000">6</text>
</a>
</g>
</g>
<!-- dir_214608ef36d61442cb2b0c1c4e9a7def&#45;&gt;dir_cbdb8362360e11eafe2fa3bc74cf0ffd -->
<g id="edge20" class="edge">
<title>dir_214608ef36d61442cb2b0c1c4e9a7def&#45;&gt;dir_cbdb8362360e11eafe2fa3bc74cf0ffd</title>
<path fill="none" stroke="#000000" d="M214.0923,-108.4133C208.4717,-116.8239 200.9275,-126.9323 193.4811,-136.0923"/>
<polygon fill="#000000" stroke="#000000" points="190.7404,-133.9138 187.0132,-143.8314 196.1115,-138.4027 190.7404,-133.9138"/>
<g id="a_edge20&#45;headlabel"><a xlink:href="dir_000000_000035.xhtml" target="_top" xlink:title="1">
<text text-anchor="middle" x="190.8669" y="-126.8348" font-family="Helvetica,sans-Serif" font-size="10.00" fill="#000000">1</text>
</a>
</g>
</g>
<!-- dir_214608ef36d61442cb2b0c1c4e9a7def&#45;&gt;dir_5815af820a9cc9481f1d0990a0d60286 -->
<g id="edge21" class="edge">
<title>dir_214608ef36d61442cb2b0c1c4e9a7def&#45;&gt;dir_5815af820a9cc9481f1d0990a0d60286</title>
<path fill="none" stroke="#000000" d="M216.2295,-71.8314C215.4791,-64.131 215.2582,-54.9743 215.5668,-46.4166"/>
<polygon fill="#000000" stroke="#000000" points="219.0611,-46.6161 216.2059,-36.4133 212.0754,-46.1697 219.0611,-46.6161"/>
<g id="a_edge21&#45;headlabel"><a xlink:href="dir_000000_000028.xhtml" target="_top" xlink:title="18">
<text text-anchor="middle" x="221.6656" y="-47.8844" font-family="Helvetica,sans-Serif" font-size="10.00" fill="#000000">18</text>
</a>
</g>
</g>
<!-- dir_5815af820a9cc9481f1d0990a0d60286&#45;&gt;dir_214608ef36d61442cb2b0c1c4e9a7def -->
<g id="edge28" class="edge">
<title>dir_5815af820a9cc9481f1d0990a0d60286&#45;&gt;dir_214608ef36d61442cb2b0c1c4e9a7def</title>
<path fill="none" stroke="#000000" d="M228.1579,-36.4133C228.8891,-44.0593 229.1022,-53.1084 228.7974,-61.5726"/>
<polygon fill="#000000" stroke="#000000" points="225.2867,-61.6264 228.1343,-71.8314 232.2721,-62.078 225.2867,-61.6264"/>
<g id="a_edge28&#45;headlabel"><a xlink:href="dir_000028_000000.xhtml" target="_top" xlink:title="6">
<text text-anchor="middle" x="222.6851" y="-55.3562" font-family="Helvetica,sans-Serif" font-size="10.00" fill="#000000">6</text>
</a>
</g>
</g>
</g>
</svg>
