<?xml version="1.0" encoding="UTF-8" standalone="no"?>
<!DOCTYPE svg PUBLIC "-//W3C//DTD SVG 1.1//EN"
 "http://www.w3.org/Graphics/SVG/1.1/DTD/svg11.dtd">
<!-- Generated by graphviz version 2.40.1 (20161225.0304)
 -->
<!-- Title: Graphical Class Hierarchy Pages: 1 -->
<svg width="359pt" height="127pt"
 viewBox="0.00 0.00 359.00 126.50" xmlns="http://www.w3.org/2000/svg" xmlns:xlink="http://www.w3.org/1999/xlink">
<g id="graph0" class="graph" transform="scale(1 1) rotate(0) translate(4 122.5)">
<title>Graphical Class Hierarchy</title>
<polygon fill="#ffffff" stroke="transparent" points="-4,4 -4,-122.5 355,-122.5 355,4 -4,4"/>
<!-- Node0 -->
<g id="node1" class="node">
<title>Node0</title>
<g id="a_node1"><a xlink:href="structarm__compute_1_1experimental_1_1_i_post_op.xhtml" target="_top" xlink:title="An elementwise n&#45;ary operation that can be appended to and fused with (at kernel&#45;level) other operato...">
<polygon fill="#ffffff" stroke="#000000" points="0,-55 0,-74 151,-74 151,-55 0,-55"/>
<text text-anchor="middle" x="75.5" y="-62" font-family="Helvetica,sans-Serif" font-size="10.00" fill="#000000">IPostOp&lt; TensorRelatedT &gt;</text>
</a>
</g>
</g>
<!-- Node1 -->
<g id="node2" class="node">
<title>Node1</title>
<g id="a_node2"><a xlink:href="structarm__compute_1_1experimental_1_1_post_op_act.xhtml" target="_top" xlink:title="(EXPERIMENTAL_POST_OPS) Implementation of specific IPostOps ">
<polygon fill="#ffffff" stroke="#000000" points="187,-99 187,-118 351,-118 351,-99 187,-99"/>
<text text-anchor="middle" x="269" y="-106" font-family="Helvetica,sans-Serif" font-size="10.00" fill="#000000">PostOpAct&lt; TensorRelatedT &gt;</text>
</a>
</g>
</g>
<!-- Node0&#45;&gt;Node1 -->
<g id="edge1" class="edge">
<title>Node0&#45;&gt;Node1</title>
<path fill="none" stroke="#191970" d="M127.3232,-76.2841C158.5596,-83.3869 197.8271,-92.316 227.0953,-98.9713"/>
<polygon fill="#191970" stroke="#191970" points="128.0138,-72.8518 117.4866,-74.0473 126.4616,-79.6776 128.0138,-72.8518"/>
</g>
<!-- Node2 -->
<g id="node3" class="node">
<title>Node2</title>
<g id="a_node3"><a xlink:href="structarm__compute_1_1experimental_1_1_post_op_eltwise_add.xhtml" target="_top" xlink:title="PostOpEltwiseAdd\&lt; Tensor\lRelatedT \&gt;">
<polygon fill="#ffffff" stroke="#000000" points="195,-49.5 195,-79.5 343,-79.5 343,-49.5 195,-49.5"/>
<text text-anchor="start" x="203" y="-67.5" font-family="Helvetica,sans-Serif" font-size="10.00" fill="#000000">PostOpEltwiseAdd&lt; Tensor</text>
<text text-anchor="middle" x="269" y="-56.5" font-family="Helvetica,sans-Serif" font-size="10.00" fill="#000000">RelatedT &gt;</text>
</a>
</g>
</g>
<!-- Node0&#45;&gt;Node2 -->
<g id="edge2" class="edge">
<title>Node0&#45;&gt;Node2</title>
<path fill="none" stroke="#191970" d="M161.3703,-64.5C172.5858,-64.5 183.9988,-64.5 194.9961,-64.5"/>
<polygon fill="#191970" stroke="#191970" points="161.1435,-61.0001 151.1435,-64.5 161.1435,-68.0001 161.1435,-61.0001"/>
</g>
<!-- Node3 -->
<g id="node4" class="node">
<title>Node3</title>
<g id="a_node4"><a xlink:href="structarm__compute_1_1experimental_1_1_post_op_eltwise_p_relu.xhtml" target="_top" xlink:title="PostOpEltwisePRelu\l\&lt; TensorRelatedT \&gt;">
<polygon fill="#ffffff" stroke="#000000" points="212.5,-.5 212.5,-30.5 325.5,-30.5 325.5,-.5 212.5,-.5"/>
<text text-anchor="start" x="220.5" y="-18.5" font-family="Helvetica,sans-Serif" font-size="10.00" fill="#000000">PostOpEltwisePRelu</text>
<text text-anchor="middle" x="269" y="-7.5" font-family="Helvetica,sans-Serif" font-size="10.00" fill="#000000">&lt; TensorRelatedT &gt;</text>
</a>
</g>
</g>
<!-- Node0&#45;&gt;Node3 -->
<g id="edge3" class="edge">
<title>Node0&#45;&gt;Node3</title>
<path fill="none" stroke="#191970" d="M123.2257,-52.4144C150.1545,-45.5952 183.9701,-37.0321 212.2511,-29.8705"/>
<polygon fill="#191970" stroke="#191970" points="122.1029,-49.0882 113.2681,-54.936 123.8213,-55.874 122.1029,-49.0882"/>
</g>
</g>
</svg>
