<?xml version="1.0" encoding="UTF-8" standalone="no"?>
<!DOCTYPE svg PUBLIC "-//W3C//DTD SVG 1.1//EN"
 "http://www.w3.org/Graphics/SVG/1.1/DTD/svg11.dtd">
<!-- Generated by graphviz version 2.40.1 (20161225.0304)
 -->
<!-- Title: Graphical Class Hierarchy Pages: 1 -->
<svg width="363pt" height="28pt"
 viewBox="0.00 0.00 363.00 28.00" xmlns="http://www.w3.org/2000/svg" xmlns:xlink="http://www.w3.org/1999/xlink">
<g id="graph0" class="graph" transform="scale(1 1) rotate(0) translate(4 24)">
<title>Graphical Class Hierarchy</title>
<polygon fill="#ffffff" stroke="transparent" points="-4,4 -4,-24 359,-24 359,4 -4,4"/>
<!-- Node0 -->
<g id="node1" class="node">
<title>Node0</title>
<g id="a_node1"><a xlink:href="classacl_1_1detail_1_1_object_base.xhtml" target="_top" xlink:title="ObjectBase\&lt; AclOperator_ \&gt;">
<polygon fill="#ffffff" stroke="#000000" points="0,-.5 0,-19.5 158,-19.5 158,-.5 0,-.5"/>
<text text-anchor="middle" x="79" y="-7.5" font-family="Helvetica,sans-Serif" font-size="10.00" fill="#000000">ObjectBase&lt; AclOperator_ &gt;</text>
</a>
</g>
</g>
<!-- Node1 -->
<g id="node2" class="node">
<title>Node1</title>
<g id="a_node2"><a xlink:href="classacl_1_1_operator.xhtml" target="_top" xlink:title="Operator class. ">
<polygon fill="#ffffff" stroke="#000000" points="194,-.5 194,-19.5 253,-19.5 253,-.5 194,-.5"/>
<text text-anchor="middle" x="223.5" y="-7.5" font-family="Helvetica,sans-Serif" font-size="10.00" fill="#000000">Operator</text>
</a>
</g>
</g>
<!-- Node0&#45;&gt;Node1 -->
<g id="edge1" class="edge">
<title>Node0&#45;&gt;Node1</title>
<path fill="none" stroke="#191970" d="M168.1099,-10C177.3019,-10 186.1083,-10 193.8877,-10"/>
<polygon fill="#191970" stroke="#191970" points="168.0147,-6.5001 158.0146,-10 168.0146,-13.5001 168.0147,-6.5001"/>
</g>
<!-- Node2 -->
<g id="node3" class="node">
<title>Node2</title>
<g id="a_node3"><a xlink:href="classacl_1_1_activation.xhtml" target="_top" xlink:title="Activation">
<polygon fill="#ffffff" stroke="#000000" points="289,-.5 289,-19.5 355,-19.5 355,-.5 289,-.5"/>
<text text-anchor="middle" x="322" y="-7.5" font-family="Helvetica,sans-Serif" font-size="10.00" fill="#000000">Activation</text>
</a>
</g>
</g>
<!-- Node1&#45;&gt;Node2 -->
<g id="edge2" class="edge">
<title>Node1&#45;&gt;Node2</title>
<path fill="none" stroke="#191970" d="M263.1216,-10C271.5949,-10 280.4638,-10 288.6717,-10"/>
<polygon fill="#191970" stroke="#191970" points="263.0533,-6.5001 253.0532,-10 263.0532,-13.5001 263.0533,-6.5001"/>
</g>
</g>
</svg>
