<?xml version="1.0" encoding="UTF-8" standalone="no"?>
<!DOCTYPE svg PUBLIC "-//W3C//DTD SVG 1.1//EN"
 "http://www.w3.org/Graphics/SVG/1.1/DTD/svg11.dtd">
<!-- Generated by graphviz version 2.40.1 (20161225.0304)
 -->
<!-- Title: GraphConfig Pages: 1 -->
<svg width="311pt" height="95pt"
 viewBox="0.00 0.00 311.00 95.00" xmlns="http://www.w3.org/2000/svg" xmlns:xlink="http://www.w3.org/1999/xlink">
<g id="graph0" class="graph" transform="scale(1 1) rotate(0) translate(4 91)">
<title>GraphConfig</title>
<polygon fill="#ffffff" stroke="transparent" points="-4,4 -4,-91 307,-91 307,4 -4,4"/>
<!-- Node0 -->
<g id="node1" class="node">
<title>Node0</title>
<polygon fill="#bfbfbf" stroke="#000000" points="106.5,-.5 106.5,-19.5 183.5,-19.5 183.5,-.5 106.5,-.5"/>
<text text-anchor="middle" x="145" y="-7.5" font-family="Helvetica,sans-Serif" font-size="10.00" fill="#000000">GraphConfig</text>
</g>
<!-- Node1 -->
<g id="node2" class="node">
<title>Node1</title>
<polygon fill="#ffffff" stroke="#bfbfbf" points="0,-67.5 0,-86.5 80,-86.5 80,-67.5 0,-67.5"/>
<text text-anchor="middle" x="40" y="-74.5" font-family="Helvetica,sans-Serif" font-size="10.00" fill="#000000">CLTunerMode</text>
</g>
<!-- Node1&#45;&gt;Node0 -->
<g id="edge1" class="edge">
<title>Node1&#45;&gt;Node0</title>
<path fill="none" stroke="#9a32cd" stroke-dasharray="5,2" d="M54.4974,-59.7694C61.3647,-52.3712 70.0216,-44.0547 79,-38 90.2483,-30.4145 103.8831,-24.2124 115.833,-19.5909"/>
<polygon fill="#9a32cd" stroke="#9a32cd" points="51.844,-57.4863 47.8176,-67.2863 57.0765,-62.1361 51.844,-57.4863"/>
<text text-anchor="middle" x="110" y="-41" font-family="Helvetica,sans-Serif" font-size="10.00" fill="#000000"> tuner_mode</text>
</g>
<!-- Node2 -->
<g id="node3" class="node">
<title>Node2</title>
<polygon fill="#ffffff" stroke="#bfbfbf" points="98.5,-67.5 98.5,-86.5 191.5,-86.5 191.5,-67.5 98.5,-67.5"/>
<text text-anchor="middle" x="145" y="-74.5" font-family="Helvetica,sans-Serif" font-size="10.00" fill="#000000">CLBackendType</text>
</g>
<!-- Node2&#45;&gt;Node0 -->
<g id="edge2" class="edge">
<title>Node2&#45;&gt;Node0</title>
<path fill="none" stroke="#9a32cd" stroke-dasharray="5,2" d="M145,-57.1079C145,-44.714 145,-29.3263 145,-19.5817"/>
<polygon fill="#9a32cd" stroke="#9a32cd" points="141.5001,-57.4005 145,-67.4005 148.5001,-57.4006 141.5001,-57.4005"/>
<text text-anchor="middle" x="181" y="-41" font-family="Helvetica,sans-Serif" font-size="10.00" fill="#000000"> backend_type</text>
</g>
<!-- Node3 -->
<g id="node4" class="node">
<title>Node3</title>
<polygon fill="#ffffff" stroke="#bfbfbf" points="210,-67.5 210,-86.5 272,-86.5 272,-67.5 210,-67.5"/>
<text text-anchor="middle" x="241" y="-74.5" font-family="Helvetica,sans-Serif" font-size="10.00" fill="#000000">DataType</text>
</g>
<!-- Node3&#45;&gt;Node0 -->
<g id="edge3" class="edge">
<title>Node3&#45;&gt;Node0</title>
<path fill="none" stroke="#9a32cd" stroke-dasharray="5,2" d="M233.5121,-57.813C229.9896,-50.8068 225.182,-43.3078 219,-38 208.9951,-29.4099 196.0876,-23.3248 183.8614,-19.0741"/>
<polygon fill="#9a32cd" stroke="#9a32cd" points="230.514,-59.6866 237.7637,-67.4127 236.9143,-56.8519 230.514,-59.6866"/>
<text text-anchor="middle" x="265" y="-41" font-family="Helvetica,sans-Serif" font-size="10.00" fill="#000000"> synthetic_type</text>
</g>
</g>
</svg>
