<?xml version="1.0" encoding="UTF-8" standalone="no"?>
<!DOCTYPE svg PUBLIC "-//W3C//DTD SVG 1.1//EN"
 "http://www.w3.org/Graphics/SVG/1.1/DTD/svg11.dtd">
<!-- Generated by graphviz version 2.43.0 (0)
 -->
<!-- Title: Graphical Class Hierarchy Pages: 1 -->
<svg width="215pt" height="186pt"
 viewBox="0.00 0.00 215.00 186.00" xmlns="http://www.w3.org/2000/svg" xmlns:xlink="http://www.w3.org/1999/xlink">
<g id="graph0" class="graph" transform="scale(1 1) rotate(0) translate(4 182)">
<title>Graphical Class Hierarchy</title>
<polygon fill="white" stroke="transparent" points="-4,4 -4,-182 211,-182 211,4 -4,4"/>
<!-- Node28 -->
<g id="node1" class="node">
<title>Node28</title>
<g id="a_node1"><a xlink:title=" ">
<polygon fill="white" stroke="#bfbfbf" points="0,-79 0,-98 63,-98 63,-79 0,-79"/>
<text text-anchor="middle" x="31.5" y="-86" font-family="Helvetica,sans-Serif" font-size="10.00">true_type</text>
</a>
</g>
</g>
<!-- Node0 -->
<g id="node2" class="node">
<title>Node0</title>
<g id="a_node2"><a xlink:href="structarm__compute_1_1test_1_1framework_1_1dataset_1_1is__container_3_01std_1_1vector_3_01_v_00_01_a_01_4_01_4.xhtml" target="_top" xlink:title="Vector is considered a container.">
<polygon fill="white" stroke="black" points="99,-147.5 99,-177.5 207,-177.5 207,-147.5 99,-147.5"/>
<text text-anchor="start" x="107" y="-165.5" font-family="Helvetica,sans-Serif" font-size="10.00">is_container&lt; std::</text>
<text text-anchor="middle" x="153" y="-154.5" font-family="Helvetica,sans-Serif" font-size="10.00">vector&lt; V, A &gt; &gt;</text>
</a>
</g>
</g>
<!-- Node28&#45;&gt;Node0 -->
<g id="edge1" class="edge">
<title>Node28&#45;&gt;Node0</title>
<path fill="none" stroke="midnightblue" d="M51.82,-104.82C64.68,-115.22 82.24,-128.57 99,-138.5 104.3,-141.64 110.08,-144.65 115.82,-147.41"/>
<polygon fill="midnightblue" stroke="midnightblue" points="53.68,-101.81 43.73,-98.16 49.23,-107.22 53.68,-101.81"/>
</g>
<!-- Node30 -->
<g id="node3" class="node">
<title>Node30</title>
<g id="a_node3"><a xlink:href="structarm__compute_1_1test_1_1validation_1_1is__floating__point_3_01bfloat16_01_4.xhtml" target="_top" xlink:title=" ">
<polygon fill="white" stroke="black" points="100.5,-98.5 100.5,-128.5 205.5,-128.5 205.5,-98.5 100.5,-98.5"/>
<text text-anchor="start" x="108.5" y="-116.5" font-family="Helvetica,sans-Serif" font-size="10.00">is_floating_point&lt;</text>
<text text-anchor="middle" x="153" y="-105.5" font-family="Helvetica,sans-Serif" font-size="10.00"> bfloat16 &gt;</text>
</a>
</g>
</g>
<!-- Node28&#45;&gt;Node30 -->
<g id="edge2" class="edge">
<title>Node28&#45;&gt;Node30</title>
<path fill="none" stroke="midnightblue" d="M73.23,-97.02C81.99,-98.85 91.36,-100.81 100.47,-102.72"/>
<polygon fill="midnightblue" stroke="midnightblue" points="73.78,-93.56 63.27,-94.94 72.35,-100.41 73.78,-93.56"/>
</g>
<!-- Node31 -->
<g id="node4" class="node">
<title>Node31</title>
<g id="a_node4"><a xlink:href="structarm__compute_1_1test_1_1validation_1_1is__floating__point_3_01half_01_4.xhtml" target="_top" xlink:title=" ">
<polygon fill="white" stroke="black" points="100.5,-49.5 100.5,-79.5 205.5,-79.5 205.5,-49.5 100.5,-49.5"/>
<text text-anchor="start" x="108.5" y="-67.5" font-family="Helvetica,sans-Serif" font-size="10.00">is_floating_point&lt;</text>
<text text-anchor="middle" x="153" y="-56.5" font-family="Helvetica,sans-Serif" font-size="10.00"> half &gt;</text>
</a>
</g>
</g>
<!-- Node28&#45;&gt;Node31 -->
<g id="edge3" class="edge">
<title>Node28&#45;&gt;Node31</title>
<path fill="none" stroke="midnightblue" d="M73.23,-80.32C81.99,-78.56 91.36,-76.68 100.47,-74.85"/>
<polygon fill="midnightblue" stroke="midnightblue" points="72.39,-76.92 63.27,-82.32 73.77,-83.78 72.39,-76.92"/>
</g>
<!-- Node32 -->
<g id="node5" class="node">
<title>Node32</title>
<g id="a_node5"><a xlink:href="structarm__compute_1_1utils_1_1traits_1_1is__floating__point_3_01half_01_4.xhtml" target="_top" xlink:title=" ">
<polygon fill="white" stroke="black" points="100.5,-0.5 100.5,-30.5 205.5,-30.5 205.5,-0.5 100.5,-0.5"/>
<text text-anchor="start" x="108.5" y="-18.5" font-family="Helvetica,sans-Serif" font-size="10.00">is_floating_point&lt;</text>
<text text-anchor="middle" x="153" y="-7.5" font-family="Helvetica,sans-Serif" font-size="10.00"> half &gt;</text>
</a>
</g>
</g>
<!-- Node28&#45;&gt;Node32 -->
<g id="edge4" class="edge">
<title>Node28&#45;&gt;Node32</title>
<path fill="none" stroke="midnightblue" d="M52.43,-72.62C65.31,-62.75 82.66,-50.14 99,-40.5 104.87,-37.04 111.3,-33.67 117.59,-30.6"/>
<polygon fill="midnightblue" stroke="midnightblue" points="50.04,-70.05 44.3,-78.96 54.34,-75.58 50.04,-70.05"/>
</g>
</g>
</svg>
