<?xml version="1.0" encoding="UTF-8" standalone="no"?>
<!DOCTYPE svg PUBLIC "-//W3C//DTD SVG 1.1//EN"
 "http://www.w3.org/Graphics/SVG/1.1/DTD/svg11.dtd">
<!-- Generated by graphviz version 2.43.0 (0)
 -->
<!-- Title: Graphical Class Hierarchy Pages: 1 -->
<svg width="266pt" height="66pt"
 viewBox="0.00 0.00 266.00 66.00" xmlns="http://www.w3.org/2000/svg" xmlns:xlink="http://www.w3.org/1999/xlink">
<g id="graph0" class="graph" transform="scale(1 1) rotate(0) translate(4 62)">
<title>Graphical Class Hierarchy</title>
<polygon fill="white" stroke="transparent" points="-4,4 -4,-62 262,-62 262,4 -4,4"/>
<!-- Node0 -->
<g id="node1" class="node">
<title>Node0</title>
<g id="a_node1"><a xlink:href="struct_acl_queue__.xhtml" target="_top" xlink:title=" ">
<polygon fill="white" stroke="black" points="0,-19.5 0,-38.5 68,-38.5 68,-19.5 0,-19.5"/>
<text text-anchor="middle" x="34" y="-26.5" font-family="Helvetica,sans-Serif" font-size="10.00">AclQueue_</text>
</a>
</g>
</g>
<!-- Node1 -->
<g id="node2" class="node">
<title>Node1</title>
<g id="a_node2"><a xlink:href="classarm__compute_1_1_i_queue.xhtml" target="_top" xlink:title="Base class specifying the queue interface.">
<polygon fill="white" stroke="black" points="104,-19.5 104,-38.5 155,-38.5 155,-19.5 104,-19.5"/>
<text text-anchor="middle" x="129.5" y="-26.5" font-family="Helvetica,sans-Serif" font-size="10.00">IQueue</text>
</a>
</g>
</g>
<!-- Node0&#45;&gt;Node1 -->
<g id="edge1" class="edge">
<title>Node0&#45;&gt;Node1</title>
<path fill="none" stroke="midnightblue" d="M78.37,-29C87.14,-29 96.06,-29 103.9,-29"/>
<polygon fill="midnightblue" stroke="midnightblue" points="78.23,-25.5 68.23,-29 78.23,-32.5 78.23,-25.5"/>
</g>
<!-- Node2 -->
<g id="node3" class="node">
<title>Node2</title>
<g id="a_node3"><a xlink:href="classarm__compute_1_1cpu_1_1_cpu_queue.xhtml" target="_top" xlink:title="CPU queue implementation class.">
<polygon fill="white" stroke="black" points="191,-38.5 191,-57.5 258,-57.5 258,-38.5 191,-38.5"/>
<text text-anchor="middle" x="224.5" y="-45.5" font-family="Helvetica,sans-Serif" font-size="10.00">CpuQueue</text>
</a>
</g>
</g>
<!-- Node1&#45;&gt;Node2 -->
<g id="edge2" class="edge">
<title>Node1&#45;&gt;Node2</title>
<path fill="none" stroke="midnightblue" d="M165.27,-36.1C173.64,-37.81 182.54,-39.63 190.8,-41.32"/>
<polygon fill="midnightblue" stroke="midnightblue" points="165.92,-32.66 155.42,-34.09 164.52,-39.52 165.92,-32.66"/>
</g>
<!-- Node3 -->
<g id="node4" class="node">
<title>Node3</title>
<g id="a_node4"><a xlink:href="classarm__compute_1_1gpu_1_1opencl_1_1_cl_queue.xhtml" target="_top" xlink:title="OpenCL queue implementation class.">
<polygon fill="white" stroke="black" points="195.5,-0.5 195.5,-19.5 253.5,-19.5 253.5,-0.5 195.5,-0.5"/>
<text text-anchor="middle" x="224.5" y="-7.5" font-family="Helvetica,sans-Serif" font-size="10.00">ClQueue</text>
</a>
</g>
</g>
<!-- Node1&#45;&gt;Node3 -->
<g id="edge3" class="edge">
<title>Node1&#45;&gt;Node3</title>
<path fill="none" stroke="midnightblue" d="M165.34,-21.88C175.2,-19.87 185.8,-17.7 195.22,-15.78"/>
<polygon fill="midnightblue" stroke="midnightblue" points="164.52,-18.48 155.42,-23.91 165.92,-25.34 164.52,-18.48"/>
</g>
</g>
</svg>
