<?xml version="1.0" encoding="UTF-8" standalone="no"?>
<!DOCTYPE svg PUBLIC "-//W3C//DTD SVG 1.1//EN"
 "http://www.w3.org/Graphics/SVG/1.1/DTD/svg11.dtd">
<!-- Generated by graphviz version 2.43.0 (0)
 -->
<!-- Title: Graphical Class Hierarchy Pages: 1 -->
<svg width="242pt" height="66pt"
 viewBox="0.00 0.00 242.00 66.00" xmlns="http://www.w3.org/2000/svg" xmlns:xlink="http://www.w3.org/1999/xlink">
<g id="graph0" class="graph" transform="scale(1 1) rotate(0) translate(4 62)">
<title>Graphical Class Hierarchy</title>
<polygon fill="white" stroke="transparent" points="-4,4 -4,-62 238,-62 238,4 -4,4"/>
<!-- Node0 -->
<g id="node1" class="node">
<title>Node0</title>
<g id="a_node1"><a xlink:href="classarm__compute_1_1_i_tensor_allocator.xhtml" target="_top" xlink:title="Interface to allocate tensors.">
<polygon fill="white" stroke="black" points="0,-19.5 0,-38.5 95,-38.5 95,-19.5 0,-19.5"/>
<text text-anchor="middle" x="47.5" y="-26.5" font-family="Helvetica,sans-Serif" font-size="10.00">ITensorAllocator</text>
</a>
</g>
</g>
<!-- Node1 -->
<g id="node2" class="node">
<title>Node1</title>
<g id="a_node2"><a xlink:href="classarm__compute_1_1_c_l_tensor_allocator.xhtml" target="_top" xlink:title="Basic implementation of a CL memory tensor allocator.">
<polygon fill="white" stroke="black" points="131,-38.5 131,-57.5 234,-57.5 234,-38.5 131,-38.5"/>
<text text-anchor="middle" x="182.5" y="-45.5" font-family="Helvetica,sans-Serif" font-size="10.00">CLTensorAllocator</text>
</a>
</g>
</g>
<!-- Node0&#45;&gt;Node1 -->
<g id="edge1" class="edge">
<title>Node0&#45;&gt;Node1</title>
<path fill="none" stroke="midnightblue" d="M104.93,-37.06C113.48,-38.28 122.27,-39.54 130.7,-40.74"/>
<polygon fill="midnightblue" stroke="midnightblue" points="105.41,-33.59 95.02,-35.65 104.42,-40.52 105.41,-33.59"/>
</g>
<!-- Node2 -->
<g id="node3" class="node">
<title>Node2</title>
<g id="a_node3"><a xlink:href="classarm__compute_1_1_tensor_allocator.xhtml" target="_top" xlink:title="Basic implementation of a CPU memory tensor allocator.">
<polygon fill="white" stroke="black" points="136.5,-0.5 136.5,-19.5 228.5,-19.5 228.5,-0.5 136.5,-0.5"/>
<text text-anchor="middle" x="182.5" y="-7.5" font-family="Helvetica,sans-Serif" font-size="10.00">TensorAllocator</text>
</a>
</g>
</g>
<!-- Node0&#45;&gt;Node2 -->
<g id="edge2" class="edge">
<title>Node0&#45;&gt;Node2</title>
<path fill="none" stroke="midnightblue" d="M105.2,-20.9C115.53,-19.42 126.18,-17.9 136.13,-16.48"/>
<polygon fill="midnightblue" stroke="midnightblue" points="104.42,-17.48 95.02,-22.35 105.41,-24.41 104.42,-17.48"/>
</g>
</g>
</svg>
