<?xml version="1.0" encoding="UTF-8" standalone="no"?>
<!DOCTYPE svg PUBLIC "-//W3C//DTD SVG 1.1//EN"
 "http://www.w3.org/Graphics/SVG/1.1/DTD/svg11.dtd">
<!-- Generated by graphviz version 2.40.1 (20161225.0304)
 -->
<!-- Title: CpuDepthwiseConv2d Pages: 1 -->
<svg width="132pt" height="140pt"
 viewBox="0.00 0.00 132.00 140.00" xmlns="http://www.w3.org/2000/svg" xmlns:xlink="http://www.w3.org/1999/xlink">
<g id="graph0" class="graph" transform="scale(1 1) rotate(0) translate(4 136)">
<title>CpuDepthwiseConv2d</title>
<polygon fill="#ffffff" stroke="transparent" points="-4,4 -4,-136 128,-136 128,4 -4,4"/>
<!-- Node0 -->
<g id="node1" class="node">
<title>Node0</title>
<polygon fill="#bfbfbf" stroke="#000000" points="0,-.5 0,-19.5 124,-19.5 124,-.5 0,-.5"/>
<text text-anchor="middle" x="62" y="-7.5" font-family="Helvetica,sans-Serif" font-size="10.00" fill="#000000">CpuDepthwiseConv2d</text>
</g>
<!-- Node1 -->
<g id="node2" class="node">
<title>Node1</title>
<g id="a_node2"><a xlink:href="classarm__compute_1_1experimental_1_1_i_n_e_operator.xhtml" target="_top" xlink:title="Basic interface for functions which have a single async CPU kernel. ">
<polygon fill="#ffffff" stroke="#000000" points="21.5,-56.5 21.5,-75.5 102.5,-75.5 102.5,-56.5 21.5,-56.5"/>
<text text-anchor="middle" x="62" y="-63.5" font-family="Helvetica,sans-Serif" font-size="10.00" fill="#000000">ICpuOperator</text>
</a>
</g>
</g>
<!-- Node1&#45;&gt;Node0 -->
<g id="edge1" class="edge">
<title>Node1&#45;&gt;Node0</title>
<path fill="none" stroke="#191970" d="M62,-46.1575C62,-37.155 62,-26.9199 62,-19.6427"/>
<polygon fill="#191970" stroke="#191970" points="58.5001,-46.2455 62,-56.2455 65.5001,-46.2456 58.5001,-46.2455"/>
</g>
<!-- Node2 -->
<g id="node3" class="node">
<title>Node2</title>
<g id="a_node3"><a xlink:href="classarm__compute_1_1experimental_1_1_i_operator.xhtml" target="_top" xlink:title="Base class for all async functions. ">
<polygon fill="#ffffff" stroke="#000000" points="31,-112.5 31,-131.5 93,-131.5 93,-112.5 31,-112.5"/>
<text text-anchor="middle" x="62" y="-119.5" font-family="Helvetica,sans-Serif" font-size="10.00" fill="#000000">IOperator</text>
</a>
</g>
</g>
<!-- Node2&#45;&gt;Node1 -->
<g id="edge2" class="edge">
<title>Node2&#45;&gt;Node1</title>
<path fill="none" stroke="#191970" d="M62,-102.1575C62,-93.155 62,-82.9199 62,-75.6427"/>
<polygon fill="#191970" stroke="#191970" points="58.5001,-102.2455 62,-112.2455 65.5001,-102.2456 58.5001,-102.2455"/>
</g>
</g>
</svg>
