<?xml version="1.0" encoding="UTF-8" standalone="no"?>
<!DOCTYPE svg PUBLIC "-//W3C//DTD SVG 1.1//EN"
 "http://www.w3.org/Graphics/SVG/1.1/DTD/svg11.dtd">
<!-- Generated by graphviz version 2.40.1 (20161225.0304)
 -->
<!-- Title: arm_compute/runtime/NEON/functions Pages: 1 -->
<svg width="137pt" height="295pt"
 viewBox="0.00 0.00 137.00 295.00" xmlns="http://www.w3.org/2000/svg" xmlns:xlink="http://www.w3.org/1999/xlink">
<g id="graph0" class="graph" transform="scale(1 1) rotate(0) translate(4 291)">
<title>arm_compute/runtime/NEON/functions</title>
<polygon fill="#ffffff" stroke="transparent" points="-4,4 -4,-291 133,-291 133,4 -4,4"/>
<g id="clust1" class="cluster">
<title>clusterdir_65e289039e1347f87d412b0a1b1a312c</title>
<g id="a_clust1"><a xlink:href="dir_65e289039e1347f87d412b0a1b1a312c.xhtml" target="_top" xlink:title="NEON">
<polygon fill="#ddddee" stroke="#000000" points="43,-208 43,-279 121,-279 121,-208 43,-208"/>
<text text-anchor="middle" x="82" y="-267" font-family="Helvetica,sans-Serif" font-size="10.00" fill="#000000">NEON</text>
</a>
</g>
</g>
<!-- dir_345bd7154d1542d1e03fd2836959a19d -->
<g id="node1" class="node">
<title>dir_345bd7154d1542d1e03fd2836959a19d</title>
<g id="a_node1"><a xlink:href="dir_345bd7154d1542d1e03fd2836959a19d.xhtml" target="_top" xlink:title="functions">
<polygon fill="#eeeeff" stroke="#000000" points="113,-252 51,-252 51,-216 113,-216 113,-252"/>
<text text-anchor="middle" x="82" y="-231.5" font-family="Helvetica,sans-Serif" font-size="10.00" fill="#000000">functions</text>
</a>
</g>
</g>
<!-- dir_b496024afd63bafbf4e8da80d7d3a81a -->
<g id="node2" class="node">
<title>dir_b496024afd63bafbf4e8da80d7d3a81a</title>
<g id="a_node2"><a xlink:href="dir_b496024afd63bafbf4e8da80d7d3a81a.xhtml" target="_top" xlink:title="CPP">
<polygon fill="#ffffff" stroke="#ff0000" points="54,-180 0,-180 0,-144 54,-144 54,-180"/>
<text text-anchor="middle" x="27" y="-159.5" font-family="Helvetica,sans-Serif" font-size="10.00" fill="#000000">CPP</text>
</a>
</g>
</g>
<!-- dir_345bd7154d1542d1e03fd2836959a19d&#45;&gt;dir_b496024afd63bafbf4e8da80d7d3a81a -->
<g id="edge1" class="edge">
<title>dir_345bd7154d1542d1e03fd2836959a19d&#45;&gt;dir_b496024afd63bafbf4e8da80d7d3a81a</title>
<path fill="none" stroke="#000000" d="M68.1212,-215.8314C61.7864,-207.5386 54.1616,-197.557 47.2074,-188.4533"/>
<polygon fill="#000000" stroke="#000000" points="49.9175,-186.2353 41.0657,-180.4133 44.3548,-190.4847 49.9175,-186.2353"/>
<g id="a_edge1&#45;headlabel"><a xlink:href="dir_000074_000071.xhtml" target="_top" xlink:title="5">
<text text-anchor="middle" x="54.3558" y="-184.8683" font-family="Helvetica,sans-Serif" font-size="10.00" fill="#000000">5</text>
</a>
</g>
</g>
<!-- dir_1fb090f0c6070330bfaccc4236d3ca0d -->
<g id="node3" class="node">
<title>dir_1fb090f0c6070330bfaccc4236d3ca0d</title>
<g id="a_node3"><a xlink:href="dir_1fb090f0c6070330bfaccc4236d3ca0d.xhtml" target="_top" xlink:title="core">
<polygon fill="#ffffff" stroke="#ff0000" points="73,-108 19,-108 19,-72 73,-72 73,-108"/>
<text text-anchor="middle" x="46" y="-87.5" font-family="Helvetica,sans-Serif" font-size="10.00" fill="#000000">core</text>
</a>
</g>
</g>
<!-- dir_345bd7154d1542d1e03fd2836959a19d&#45;&gt;dir_1fb090f0c6070330bfaccc4236d3ca0d -->
<g id="edge2" class="edge">
<title>dir_345bd7154d1542d1e03fd2836959a19d&#45;&gt;dir_1fb090f0c6070330bfaccc4236d3ca0d</title>
<path fill="none" stroke="#000000" d="M78.7232,-215.9501C75.284,-197.6925 69.4828,-168.7149 63,-144 60.7662,-135.4838 58.0142,-126.3157 55.3801,-117.9947"/>
<polygon fill="#000000" stroke="#000000" points="58.6739,-116.8049 52.2684,-108.3657 52.0131,-118.9575 58.6739,-116.8049"/>
<g id="a_edge2&#45;headlabel"><a xlink:href="dir_000074_000001.xhtml" target="_top" xlink:title="76">
<text text-anchor="middle" x="62.4809" y="-116.8523" font-family="Helvetica,sans-Serif" font-size="10.00" fill="#000000">76</text>
</a>
</g>
</g>
<!-- dir_b9621ae687ab229876c54f8c2df20e15 -->
<g id="node4" class="node">
<title>dir_b9621ae687ab229876c54f8c2df20e15</title>
<g id="a_node4"><a xlink:href="dir_b9621ae687ab229876c54f8c2df20e15.xhtml" target="_top" xlink:title="common">
<polygon fill="none" stroke="#000000" points="75.5,-36 16.5,-36 16.5,0 75.5,0 75.5,-36"/>
<text text-anchor="middle" x="46" y="-15.5" font-family="Helvetica,sans-Serif" font-size="10.00" fill="#000000">common</text>
</a>
</g>
</g>
<!-- dir_345bd7154d1542d1e03fd2836959a19d&#45;&gt;dir_b9621ae687ab229876c54f8c2df20e15 -->
<g id="edge3" class="edge">
<title>dir_345bd7154d1542d1e03fd2836959a19d&#45;&gt;dir_b9621ae687ab229876c54f8c2df20e15</title>
<path fill="none" stroke="#000000" d="M85.4003,-215.5171C90.2903,-184.8995 97.1593,-122.0679 82,-72 79.0436,-62.2355 73.6748,-52.6229 67.97,-44.2762"/>
<polygon fill="#000000" stroke="#000000" points="70.7129,-42.0973 61.9905,-36.0831 65.0586,-46.2239 70.7129,-42.0973"/>
<g id="a_edge3&#45;headlabel"><a xlink:href="dir_000074_000070.xhtml" target="_top" xlink:title="3">
<text text-anchor="middle" x="75.1253" y="-40.827" font-family="Helvetica,sans-Serif" font-size="10.00" fill="#000000">3</text>
</a>
</g>
</g>
<!-- dir_b496024afd63bafbf4e8da80d7d3a81a&#45;&gt;dir_1fb090f0c6070330bfaccc4236d3ca0d -->
<g id="edge4" class="edge">
<title>dir_b496024afd63bafbf4e8da80d7d3a81a&#45;&gt;dir_1fb090f0c6070330bfaccc4236d3ca0d</title>
<path fill="none" stroke="#000000" d="M25.8421,-143.8314C27.1378,-136.0463 29.3675,-126.7729 31.9708,-118.1347"/>
<polygon fill="#000000" stroke="#000000" points="35.3685,-119.0061 35.1649,-108.4133 28.7183,-116.8211 35.3685,-119.0061"/>
<g id="a_edge4&#45;headlabel"><a xlink:href="dir_000071_000001.xhtml" target="_top" xlink:title="15">
<text text-anchor="middle" x="36.944" y="-120.8074" font-family="Helvetica,sans-Serif" font-size="10.00" fill="#000000">15</text>
</a>
</g>
</g>
<!-- dir_1fb090f0c6070330bfaccc4236d3ca0d&#45;&gt;dir_b496024afd63bafbf4e8da80d7d3a81a -->
<g id="edge5" class="edge">
<title>dir_1fb090f0c6070330bfaccc4236d3ca0d&#45;&gt;dir_b496024afd63bafbf4e8da80d7d3a81a</title>
<path fill="none" stroke="#000000" d="M47.117,-108.4133C45.8018,-116.2292 43.5585,-125.5113 40.9474,-134.136"/>
<polygon fill="#000000" stroke="#000000" points="37.558,-133.2382 37.7469,-143.8314 44.2052,-135.4325 37.558,-133.2382"/>
<g id="a_edge5&#45;headlabel"><a xlink:href="dir_000001_000071.xhtml" target="_top" xlink:title="1">
<text text-anchor="middle" x="35.9886" y="-126.4348" font-family="Helvetica,sans-Serif" font-size="10.00" fill="#000000">1</text>
</a>
</g>
</g>
<!-- dir_1fb090f0c6070330bfaccc4236d3ca0d&#45;&gt;dir_b9621ae687ab229876c54f8c2df20e15 -->
<g id="edge6" class="edge">
<title>dir_1fb090f0c6070330bfaccc4236d3ca0d&#45;&gt;dir_b9621ae687ab229876c54f8c2df20e15</title>
<path fill="none" stroke="#000000" d="M40.0476,-71.8314C39.2972,-64.131 39.0763,-54.9743 39.3849,-46.4166"/>
<polygon fill="#000000" stroke="#000000" points="42.8792,-46.6161 40.024,-36.4133 35.8935,-46.1697 42.8792,-46.6161"/>
<g id="a_edge6&#45;headlabel"><a xlink:href="dir_000001_000070.xhtml" target="_top" xlink:title="1">
<text text-anchor="middle" x="45.4836" y="-47.8844" font-family="Helvetica,sans-Serif" font-size="10.00" fill="#000000">1</text>
</a>
</g>
</g>
<!-- dir_b9621ae687ab229876c54f8c2df20e15&#45;&gt;dir_1fb090f0c6070330bfaccc4236d3ca0d -->
<g id="edge7" class="edge">
<title>dir_b9621ae687ab229876c54f8c2df20e15&#45;&gt;dir_1fb090f0c6070330bfaccc4236d3ca0d</title>
<path fill="none" stroke="#000000" d="M51.976,-36.4133C52.7071,-44.0593 52.9203,-53.1084 52.6155,-61.5726"/>
<polygon fill="#000000" stroke="#000000" points="49.1048,-61.6264 51.9524,-71.8314 56.0902,-62.078 49.1048,-61.6264"/>
<g id="a_edge7&#45;headlabel"><a xlink:href="dir_000070_000001.xhtml" target="_top" xlink:title="1">
<text text-anchor="middle" x="46.5032" y="-55.3562" font-family="Helvetica,sans-Serif" font-size="10.00" fill="#000000">1</text>
</a>
</g>
</g>
</g>
</svg>
