<?xml version="1.0" encoding="UTF-8" standalone="no"?>
<!DOCTYPE svg PUBLIC "-//W3C//DTD SVG 1.1//EN"
 "http://www.w3.org/Graphics/SVG/1.1/DTD/svg11.dtd">
<!-- Generated by graphviz version 2.40.1 (20161225.0304)
 -->
<!-- Title: src/cpu/kernels/scale Pages: 1 -->
<svg width="254pt" height="303pt"
 viewBox="0.00 0.00 254.00 303.00" xmlns="http://www.w3.org/2000/svg" xmlns:xlink="http://www.w3.org/1999/xlink">
<g id="graph0" class="graph" transform="scale(1 1) rotate(0) translate(4 299)">
<title>src/cpu/kernels/scale</title>
<polygon fill="#ffffff" stroke="transparent" points="-4,4 -4,-299 250,-299 250,4 -4,4"/>
<g id="clust1" class="cluster">
<title>clusterdir_1de7bcbbdec2bf3559cb3c688662d4f5</title>
<g id="a_clust1"><a xlink:href="dir_1de7bcbbdec2bf3559cb3c688662d4f5.xhtml" target="_top" xlink:title="kernels">
<polygon fill="#ddddee" stroke="#000000" points="8,-200 8,-287 238,-287 238,-200 8,-200"/>
<text text-anchor="middle" x="123" y="-275" font-family="Helvetica,sans-Serif" font-size="10.00" fill="#000000">kernels</text>
</a>
</g>
</g>
<g id="clust2" class="cluster">
<title>clusterdir_d124c31da0c35b9984b69db8d6578477</title>
<g id="a_clust2"><a xlink:href="dir_d124c31da0c35b9984b69db8d6578477.xhtml" target="_top">
<polygon fill="#eeeeff" stroke="#000000" points="16,-208 16,-260 230,-260 230,-208 16,-208"/>
</a>
</g>
</g>
<!-- dir_d124c31da0c35b9984b69db8d6578477 -->
<g id="node1" class="node">
<title>dir_d124c31da0c35b9984b69db8d6578477</title>
<text text-anchor="middle" x="195" y="-231.5" font-family="Helvetica,sans-Serif" font-size="10.00" fill="#000000">scale</text>
</g>
<!-- dir_5e9e7712b7f30b8f985deeedb9292b59 -->
<g id="node2" class="node">
<title>dir_5e9e7712b7f30b8f985deeedb9292b59</title>
<g id="a_node2"><a xlink:href="dir_5e9e7712b7f30b8f985deeedb9292b59.xhtml" target="_top" xlink:title="neon">
<polygon fill="#ffffff" stroke="#000000" points="78,-252 24,-252 24,-216 78,-216 78,-252"/>
<text text-anchor="middle" x="51" y="-231.5" font-family="Helvetica,sans-Serif" font-size="10.00" fill="#000000">neon</text>
</a>
</g>
</g>
<!-- dir_214608ef36d61442cb2b0c1c4e9a7def -->
<g id="node4" class="node">
<title>dir_214608ef36d61442cb2b0c1c4e9a7def</title>
<g id="a_node4"><a xlink:href="dir_214608ef36d61442cb2b0c1c4e9a7def.xhtml" target="_top" xlink:title="arm_compute">
<polygon fill="#ffffff" stroke="#ff0000" points="110,-108 26,-108 26,-72 110,-72 110,-108"/>
<text text-anchor="middle" x="68" y="-87.5" font-family="Helvetica,sans-Serif" font-size="10.00" fill="#000000">arm_compute</text>
</a>
</g>
</g>
<!-- dir_5e9e7712b7f30b8f985deeedb9292b59&#45;&gt;dir_214608ef36d61442cb2b0c1c4e9a7def -->
<g id="edge2" class="edge">
<title>dir_5e9e7712b7f30b8f985deeedb9292b59&#45;&gt;dir_214608ef36d61442cb2b0c1c4e9a7def</title>
<path fill="none" stroke="#000000" d="M49.3979,-215.9479C48.1518,-197.6887 47.2024,-168.7099 51,-144 52.3374,-135.2979 54.8204,-126.074 57.4834,-117.759"/>
<polygon fill="#000000" stroke="#000000" points="60.8406,-118.7579 60.7561,-108.1634 54.2154,-116.4982 60.8406,-118.7579"/>
<g id="a_edge2&#45;headlabel"><a xlink:href="dir_000401_000000.xhtml" target="_top" xlink:title="3">
<text text-anchor="middle" x="62.3676" y="-120.5766" font-family="Helvetica,sans-Serif" font-size="10.00" fill="#000000">3</text>
</a>
</g>
</g>
<!-- dir_aebb8dcc11953d78e620bbef0b9e2183 -->
<g id="node5" class="node">
<title>dir_aebb8dcc11953d78e620bbef0b9e2183</title>
<g id="a_node5"><a xlink:href="dir_aebb8dcc11953d78e620bbef0b9e2183.xhtml" target="_top" xlink:title="core">
<polygon fill="#ffffff" stroke="#ff0000" points="114,-180 60,-180 60,-144 114,-144 114,-180"/>
<text text-anchor="middle" x="87" y="-159.5" font-family="Helvetica,sans-Serif" font-size="10.00" fill="#000000">core</text>
</a>
</g>
</g>
<!-- dir_5e9e7712b7f30b8f985deeedb9292b59&#45;&gt;dir_aebb8dcc11953d78e620bbef0b9e2183 -->
<g id="edge3" class="edge">
<title>dir_5e9e7712b7f30b8f985deeedb9292b59&#45;&gt;dir_aebb8dcc11953d78e620bbef0b9e2183</title>
<path fill="none" stroke="#000000" d="M60.0843,-215.8314C64.0615,-207.8771 68.8155,-198.369 73.2139,-189.5723"/>
<polygon fill="#000000" stroke="#000000" points="76.4517,-190.9228 77.7934,-180.4133 70.1907,-187.7923 76.4517,-190.9228"/>
<g id="a_edge3&#45;headlabel"><a xlink:href="dir_000401_000020.xhtml" target="_top" xlink:title="7">
<text text-anchor="middle" x="77.3837" y="-192.9077" font-family="Helvetica,sans-Serif" font-size="10.00" fill="#000000">7</text>
</a>
</g>
</g>
<!-- dir_5815af820a9cc9481f1d0990a0d60286 -->
<g id="node6" class="node">
<title>dir_5815af820a9cc9481f1d0990a0d60286</title>
<g id="a_node6"><a xlink:href="dir_5815af820a9cc9481f1d0990a0d60286.xhtml" target="_top" xlink:title="support">
<polygon fill="none" stroke="#000000" points="95,-36 41,-36 41,0 95,0 95,-36"/>
<text text-anchor="middle" x="68" y="-15.5" font-family="Helvetica,sans-Serif" font-size="10.00" fill="#000000">support</text>
</a>
</g>
</g>
<!-- dir_5e9e7712b7f30b8f985deeedb9292b59&#45;&gt;dir_5815af820a9cc9481f1d0990a0d60286 -->
<g id="edge4" class="edge">
<title>dir_5e9e7712b7f30b8f985deeedb9292b59&#45;&gt;dir_5815af820a9cc9481f1d0990a0d60286</title>
<path fill="none" stroke="#000000" d="M40.5945,-215.9211C24.4393,-185.3602 -2.8541,-121.9375 17,-72 21.2676,-61.2659 28.7931,-51.4321 36.7739,-43.1828"/>
<polygon fill="#000000" stroke="#000000" points="39.3801,-45.5319 44.1509,-36.072 34.5221,-40.4921 39.3801,-45.5319"/>
<g id="a_edge4&#45;headlabel"><a xlink:href="dir_000401_000032.xhtml" target="_top" xlink:title="2">
<text text-anchor="middle" x="38.7626" y="-47.5708" font-family="Helvetica,sans-Serif" font-size="10.00" fill="#000000">2</text>
</a>
</g>
</g>
<!-- dir_15dc5e363019af737c083bdcb2c72246 -->
<g id="node3" class="node">
<title>dir_15dc5e363019af737c083bdcb2c72246</title>
<g id="a_node3"><a xlink:href="dir_15dc5e363019af737c083bdcb2c72246.xhtml" target="_top" xlink:title="sve">
<polygon fill="#ffffff" stroke="#000000" points="150,-252 96,-252 96,-216 150,-216 150,-252"/>
<text text-anchor="middle" x="123" y="-231.5" font-family="Helvetica,sans-Serif" font-size="10.00" fill="#000000">sve</text>
</a>
</g>
</g>
<!-- dir_15dc5e363019af737c083bdcb2c72246&#45;&gt;dir_214608ef36d61442cb2b0c1c4e9a7def -->
<g id="edge8" class="edge">
<title>dir_15dc5e363019af737c083bdcb2c72246&#45;&gt;dir_214608ef36d61442cb2b0c1c4e9a7def</title>
<path fill="none" stroke="#000000" d="M126.9614,-215.949C130.1924,-197.1817 132.7938,-167.341 123,-144 118.3948,-133.0247 110.3503,-123.1573 101.8123,-114.9529"/>
<polygon fill="#000000" stroke="#000000" points="104.0403,-112.2497 94.2563,-108.1849 99.3699,-117.464 104.0403,-112.2497"/>
<g id="a_edge8&#45;headlabel"><a xlink:href="dir_000402_000000.xhtml" target="_top" xlink:title="12">
<text text-anchor="middle" x="108.6122" y="-110.0331" font-family="Helvetica,sans-Serif" font-size="10.00" fill="#000000">12</text>
</a>
</g>
</g>
<!-- dir_15dc5e363019af737c083bdcb2c72246&#45;&gt;dir_aebb8dcc11953d78e620bbef0b9e2183 -->
<g id="edge9" class="edge">
<title>dir_15dc5e363019af737c083bdcb2c72246&#45;&gt;dir_aebb8dcc11953d78e620bbef0b9e2183</title>
<path fill="none" stroke="#000000" d="M113.9157,-215.8314C109.9385,-207.8771 105.1845,-198.369 100.7861,-189.5723"/>
<polygon fill="#000000" stroke="#000000" points="103.8093,-187.7923 96.2066,-180.4133 97.5483,-190.9228 103.8093,-187.7923"/>
<g id="a_edge9&#45;headlabel"><a xlink:href="dir_000402_000020.xhtml" target="_top" xlink:title="16">
<text text-anchor="middle" x="107.9563" y="-187.2377" font-family="Helvetica,sans-Serif" font-size="10.00" fill="#000000">16</text>
</a>
</g>
</g>
<!-- dir_15dc5e363019af737c083bdcb2c72246&#45;&gt;dir_5815af820a9cc9481f1d0990a0d60286 -->
<g id="edge10" class="edge">
<title>dir_15dc5e363019af737c083bdcb2c72246&#45;&gt;dir_5815af820a9cc9481f1d0990a0d60286</title>
<path fill="none" stroke="#000000" d="M130.137,-215.7106C141.1712,-184.287 158.6655,-118.907 134,-72 127.0138,-58.7141 115.2086,-47.4816 103.4975,-38.7601"/>
<polygon fill="#000000" stroke="#000000" points="105.2582,-35.7206 95.0569,-32.8598 101.2476,-41.4578 105.2582,-35.7206"/>
<g id="a_edge10&#45;headlabel"><a xlink:href="dir_000402_000032.xhtml" target="_top" xlink:title="4">
<text text-anchor="middle" x="109.831" y="-32.9529" font-family="Helvetica,sans-Serif" font-size="10.00" fill="#000000">4</text>
</a>
</g>
</g>
<!-- dir_214608ef36d61442cb2b0c1c4e9a7def&#45;&gt;dir_5815af820a9cc9481f1d0990a0d60286 -->
<g id="edge1" class="edge">
<title>dir_214608ef36d61442cb2b0c1c4e9a7def&#45;&gt;dir_5815af820a9cc9481f1d0990a0d60286</title>
<path fill="none" stroke="#000000" d="M62.0476,-71.8314C61.2972,-64.131 61.0763,-54.9743 61.3849,-46.4166"/>
<polygon fill="#000000" stroke="#000000" points="64.8792,-46.6161 62.024,-36.4133 57.8935,-46.1697 64.8792,-46.6161"/>
<g id="a_edge1&#45;headlabel"><a xlink:href="dir_000000_000032.xhtml" target="_top" xlink:title="18">
<text text-anchor="middle" x="67.4836" y="-47.8844" font-family="Helvetica,sans-Serif" font-size="10.00" fill="#000000">18</text>
</a>
</g>
</g>
<!-- dir_aebb8dcc11953d78e620bbef0b9e2183&#45;&gt;dir_214608ef36d61442cb2b0c1c4e9a7def -->
<g id="edge5" class="edge">
<title>dir_aebb8dcc11953d78e620bbef0b9e2183&#45;&gt;dir_214608ef36d61442cb2b0c1c4e9a7def</title>
<path fill="none" stroke="#000000" d="M82.2055,-143.8314C80.1511,-136.0463 77.704,-126.7729 75.4244,-118.1347"/>
<polygon fill="#000000" stroke="#000000" points="78.7948,-117.1892 72.8591,-108.4133 72.0265,-118.9753 78.7948,-117.1892"/>
<g id="a_edge5&#45;headlabel"><a xlink:href="dir_000020_000000.xhtml" target="_top" xlink:title="609">
<text text-anchor="middle" x="82.4572" y="-117.4404" font-family="Helvetica,sans-Serif" font-size="10.00" fill="#000000">609</text>
</a>
</g>
</g>
<!-- dir_aebb8dcc11953d78e620bbef0b9e2183&#45;&gt;dir_5815af820a9cc9481f1d0990a0d60286 -->
<g id="edge6" class="edge">
<title>dir_aebb8dcc11953d78e620bbef0b9e2183&#45;&gt;dir_5815af820a9cc9481f1d0990a0d60286</title>
<path fill="none" stroke="#000000" d="M101.2605,-143.9252C113.852,-125.6483 128.8027,-96.656 119,-72 114.7324,-61.2659 107.2069,-51.4321 99.2261,-43.1828"/>
<polygon fill="#000000" stroke="#000000" points="101.4779,-40.4921 91.8491,-36.072 96.6199,-45.5319 101.4779,-40.4921"/>
<g id="a_edge6&#45;headlabel"><a xlink:href="dir_000020_000032.xhtml" target="_top" xlink:title="56">
<text text-anchor="middle" x="106.0363" y="-38.4425" font-family="Helvetica,sans-Serif" font-size="10.00" fill="#000000">56</text>
</a>
</g>
</g>
<!-- dir_5815af820a9cc9481f1d0990a0d60286&#45;&gt;dir_214608ef36d61442cb2b0c1c4e9a7def -->
<g id="edge7" class="edge">
<title>dir_5815af820a9cc9481f1d0990a0d60286&#45;&gt;dir_214608ef36d61442cb2b0c1c4e9a7def</title>
<path fill="none" stroke="#000000" d="M73.976,-36.4133C74.7071,-44.0593 74.9203,-53.1084 74.6155,-61.5726"/>
<polygon fill="#000000" stroke="#000000" points="71.1048,-61.6264 73.9524,-71.8314 78.0902,-62.078 71.1048,-61.6264"/>
<g id="a_edge7&#45;headlabel"><a xlink:href="dir_000032_000000.xhtml" target="_top" xlink:title="6">
<text text-anchor="middle" x="68.5032" y="-55.3562" font-family="Helvetica,sans-Serif" font-size="10.00" fill="#000000">6</text>
</a>
</g>
</g>
</g>
</svg>
