<?xml version="1.0" encoding="UTF-8" standalone="no"?>
<!DOCTYPE svg PUBLIC "-//W3C//DTD SVG 1.1//EN"
 "http://www.w3.org/Graphics/SVG/1.1/DTD/svg11.dtd">
<!-- Generated by graphviz version 2.40.1 (20161225.0304)
 -->
<!-- Title: src/core Pages: 1 -->
<svg width="730pt" height="539pt"
 viewBox="0.00 0.00 730.00 539.35" xmlns="http://www.w3.org/2000/svg" xmlns:xlink="http://www.w3.org/1999/xlink">
<g id="graph0" class="graph" transform="scale(1 1) rotate(0) translate(4 535.3467)">
<title>src/core</title>
<polygon fill="#ffffff" stroke="transparent" points="-4,4 -4,-535.3467 726,-535.3467 726,4 -4,4"/>
<g id="clust1" class="cluster">
<title>clusterdir_68267d1309a1af8e8297ef4c3efbcdba</title>
<g id="a_clust1"><a xlink:href="dir_68267d1309a1af8e8297ef4c3efbcdba.xhtml" target="_top" xlink:title="src">
<polygon fill="#ddddee" stroke="#000000" points="278,-200 278,-503 514,-503 514,-200 278,-200"/>
<text text-anchor="middle" x="396" y="-491" font-family="Helvetica,sans-Serif" font-size="10.00" fill="#000000">src</text>
</a>
</g>
</g>
<g id="clust2" class="cluster">
<title>clusterdir_aebb8dcc11953d78e620bbef0b9e2183</title>
<g id="a_clust2"><a xlink:href="dir_aebb8dcc11953d78e620bbef0b9e2183.xhtml" target="_top">
<polygon fill="#eeeeff" stroke="#000000" points="286,-208 286,-476 506,-476 506,-208 286,-208"/>
</a>
</g>
</g>
<!-- dir_aebb8dcc11953d78e620bbef0b9e2183 -->
<g id="node1" class="node">
<title>dir_aebb8dcc11953d78e620bbef0b9e2183</title>
<text text-anchor="middle" x="455" y="-447.5" font-family="Helvetica,sans-Serif" font-size="10.00" fill="#000000">core</text>
</g>
<!-- dir_8c278f79c760e5c5fbd911f9870614c1 -->
<g id="node2" class="node">
<title>dir_8c278f79c760e5c5fbd911f9870614c1</title>
<g id="a_node2"><a xlink:href="dir_8c278f79c760e5c5fbd911f9870614c1.xhtml" target="_top" xlink:title="CL">
<polygon fill="#ffffff" stroke="#ff0000" points="378,-468 324,-468 324,-432 378,-432 378,-468"/>
<text text-anchor="middle" x="351" y="-447.5" font-family="Helvetica,sans-Serif" font-size="10.00" fill="#000000">CL</text>
</a>
</g>
</g>
<!-- dir_b7458c46e3e273561b07052265b89043 -->
<g id="node5" class="node">
<title>dir_b7458c46e3e273561b07052265b89043</title>
<g id="a_node5"><a xlink:href="dir_b7458c46e3e273561b07052265b89043.xhtml" target="_top" xlink:title="experimental">
<polygon fill="#ffffff" stroke="#000000" points="376,-396 294,-396 294,-360 376,-360 376,-396"/>
<text text-anchor="middle" x="335" y="-375.5" font-family="Helvetica,sans-Serif" font-size="10.00" fill="#000000">experimental</text>
</a>
</g>
</g>
<!-- dir_8c278f79c760e5c5fbd911f9870614c1&#45;&gt;dir_b7458c46e3e273561b07052265b89043 -->
<g id="edge6" class="edge">
<title>dir_8c278f79c760e5c5fbd911f9870614c1&#45;&gt;dir_b7458c46e3e273561b07052265b89043</title>
<path fill="none" stroke="#000000" d="M346.9625,-431.8314C345.2513,-424.131 343.2165,-414.9743 341.3148,-406.4166"/>
<polygon fill="#000000" stroke="#000000" points="344.6779,-405.4159 339.0918,-396.4133 337.8446,-406.9344 344.6779,-405.4159"/>
<g id="a_edge6&#45;headlabel"><a xlink:href="dir_000021_000096.xhtml" target="_top" xlink:title="1">
<text text-anchor="middle" x="348.2292" y="-405.809" font-family="Helvetica,sans-Serif" font-size="10.00" fill="#000000">1</text>
</a>
</g>
</g>
<!-- dir_707aa52d67938117542c6646238d6f70 -->
<g id="node6" class="node">
<title>dir_707aa52d67938117542c6646238d6f70</title>
<g id="a_node6"><a xlink:href="dir_707aa52d67938117542c6646238d6f70.xhtml" target="_top" xlink:title="helpers">
<polygon fill="#ffffff" stroke="#000000" points="448,-396 394,-396 394,-360 448,-360 448,-396"/>
<text text-anchor="middle" x="421" y="-375.5" font-family="Helvetica,sans-Serif" font-size="10.00" fill="#000000">helpers</text>
</a>
</g>
</g>
<!-- dir_8c278f79c760e5c5fbd911f9870614c1&#45;&gt;dir_707aa52d67938117542c6646238d6f70 -->
<g id="edge2" class="edge">
<title>dir_8c278f79c760e5c5fbd911f9870614c1&#45;&gt;dir_707aa52d67938117542c6646238d6f70</title>
<path fill="none" stroke="#000000" d="M368.664,-431.8314C376.9732,-423.2848 387.0264,-412.9443 396.0918,-403.6198"/>
<polygon fill="#000000" stroke="#000000" points="398.6369,-406.023 403.0982,-396.4133 393.6179,-401.1435 398.6369,-406.023"/>
<g id="a_edge2&#45;headlabel"><a xlink:href="dir_000021_000034.xhtml" target="_top" xlink:title="80">
<text text-anchor="middle" x="398.1669" y="-408.0795" font-family="Helvetica,sans-Serif" font-size="10.00" fill="#000000">80</text>
</a>
</g>
</g>
<!-- dir_a8053b3d69cfefb2b2e6ec7bf9dd5c1a -->
<g id="node8" class="node">
<title>dir_a8053b3d69cfefb2b2e6ec7bf9dd5c1a</title>
<g id="a_node8"><a xlink:href="dir_a8053b3d69cfefb2b2e6ec7bf9dd5c1a.xhtml" target="_top" xlink:title="utils">
<polygon fill="#ffffff" stroke="#ff0000" points="420,-252 366,-252 366,-216 420,-216 420,-252"/>
<text text-anchor="middle" x="393" y="-231.5" font-family="Helvetica,sans-Serif" font-size="10.00" fill="#000000">utils</text>
</a>
</g>
</g>
<!-- dir_8c278f79c760e5c5fbd911f9870614c1&#45;&gt;dir_a8053b3d69cfefb2b2e6ec7bf9dd5c1a -->
<g id="edge4" class="edge">
<title>dir_8c278f79c760e5c5fbd911f9870614c1&#45;&gt;dir_a8053b3d69cfefb2b2e6ec7bf9dd5c1a</title>
<path fill="none" stroke="#000000" d="M378.212,-444.5503C403.5676,-437.8715 439.9488,-423.8227 457,-396 484.313,-351.4329 445.565,-293.194 417.5131,-260.0638"/>
<polygon fill="#000000" stroke="#000000" points="419.8695,-257.4407 410.6584,-252.2054 414.5943,-262.0421 419.8695,-257.4407"/>
<g id="a_edge4&#45;headlabel"><a xlink:href="dir_000021_000050.xhtml" target="_top" xlink:title="1">
<text text-anchor="middle" x="424.372" y="-255.7831" font-family="Helvetica,sans-Serif" font-size="10.00" fill="#000000">1</text>
</a>
</g>
</g>
<!-- dir_cf895c1ed808af158264b2f3d8d7f8f0 -->
<g id="node9" class="node">
<title>dir_cf895c1ed808af158264b2f3d8d7f8f0</title>
<g id="a_node9"><a xlink:href="dir_cf895c1ed808af158264b2f3d8d7f8f0.xhtml" target="_top" xlink:title="gpu">
<polygon fill="#ffffff" stroke="#ff0000" points="576,-468 522,-468 522,-432 576,-432 576,-468"/>
<text text-anchor="middle" x="549" y="-447.5" font-family="Helvetica,sans-Serif" font-size="10.00" fill="#000000">gpu</text>
</a>
</g>
</g>
<!-- dir_8c278f79c760e5c5fbd911f9870614c1&#45;&gt;dir_cf895c1ed808af158264b2f3d8d7f8f0 -->
<g id="edge1" class="edge">
<title>dir_8c278f79c760e5c5fbd911f9870614c1&#45;&gt;dir_cf895c1ed808af158264b2f3d8d7f8f0</title>
<path fill="none" stroke="#000000" d="M364.1882,-468.3243C377.8889,-485.6385 401.0702,-510.4792 428,-521 458.2201,-532.8062 472.3452,-536.2165 501,-521 518.3031,-511.8116 530.5051,-493.2922 538.2759,-477.4712"/>
<polygon fill="#000000" stroke="#000000" points="541.5944,-478.6286 542.5477,-468.0767 535.2223,-475.7311 541.5944,-478.6286"/>
<g id="a_edge1&#45;headlabel"><a xlink:href="dir_000021_000004.xhtml" target="_top" xlink:title="4">
<text text-anchor="middle" x="542.6912" y="-480.5761" font-family="Helvetica,sans-Serif" font-size="10.00" fill="#000000">4</text>
</a>
</g>
</g>
<!-- dir_214608ef36d61442cb2b0c1c4e9a7def -->
<g id="node11" class="node">
<title>dir_214608ef36d61442cb2b0c1c4e9a7def</title>
<g id="a_node11"><a xlink:href="dir_214608ef36d61442cb2b0c1c4e9a7def.xhtml" target="_top" xlink:title="arm_compute">
<polygon fill="#ffffff" stroke="#ff0000" points="311,-108 227,-108 227,-72 311,-72 311,-108"/>
<text text-anchor="middle" x="269" y="-87.5" font-family="Helvetica,sans-Serif" font-size="10.00" fill="#000000">arm_compute</text>
</a>
</g>
</g>
<!-- dir_8c278f79c760e5c5fbd911f9870614c1&#45;&gt;dir_214608ef36d61442cb2b0c1c4e9a7def -->
<g id="edge3" class="edge">
<title>dir_8c278f79c760e5c5fbd911f9870614c1&#45;&gt;dir_214608ef36d61442cb2b0c1c4e9a7def</title>
<path fill="none" stroke="#000000" d="M323.7708,-443.6746C247.6199,-425.2005 38,-368.6565 38,-306 38,-306 38,-306 38,-234 38,-150.2792 148.6223,-113.4711 216.7624,-98.7397"/>
<polygon fill="#000000" stroke="#000000" points="217.8163,-102.0959 226.8996,-96.6422 216.3979,-95.2411 217.8163,-102.0959"/>
<g id="a_edge3&#45;headlabel"><a xlink:href="dir_000021_000000.xhtml" target="_top" xlink:title="275">
<text text-anchor="middle" x="214.8715" y="-103.1045" font-family="Helvetica,sans-Serif" font-size="10.00" fill="#000000">275</text>
</a>
</g>
</g>
<!-- dir_5815af820a9cc9481f1d0990a0d60286 -->
<g id="node12" class="node">
<title>dir_5815af820a9cc9481f1d0990a0d60286</title>
<g id="a_node12"><a xlink:href="dir_5815af820a9cc9481f1d0990a0d60286.xhtml" target="_top" xlink:title="support">
<polygon fill="none" stroke="#000000" points="296,-36 242,-36 242,0 296,0 296,-36"/>
<text text-anchor="middle" x="269" y="-15.5" font-family="Helvetica,sans-Serif" font-size="10.00" fill="#000000">support</text>
</a>
</g>
</g>
<!-- dir_8c278f79c760e5c5fbd911f9870614c1&#45;&gt;dir_5815af820a9cc9481f1d0990a0d60286 -->
<g id="edge5" class="edge">
<title>dir_8c278f79c760e5c5fbd911f9870614c1&#45;&gt;dir_5815af820a9cc9481f1d0990a0d60286</title>
<path fill="none" stroke="#000000" d="M323.9645,-446.5787C265.0325,-438.7885 126.9985,-418.6416 86,-396 37.5689,-369.2537 0,-361.3257 0,-306 0,-306 0,-306 0,-162 0,-58.1193 157.8526,-28.8905 231.716,-20.8999"/>
<polygon fill="#000000" stroke="#000000" points="232.3758,-24.3513 241.9756,-19.8687 231.6757,-17.3864 232.3758,-24.3513"/>
<g id="a_edge5&#45;headlabel"><a xlink:href="dir_000021_000032.xhtml" target="_top" xlink:title="43">
<text text-anchor="middle" x="229.0831" y="-25.0357" font-family="Helvetica,sans-Serif" font-size="10.00" fill="#000000">43</text>
</a>
</g>
</g>
<!-- dir_34b4cee2b5900b653deb3438fc906cf4 -->
<g id="node3" class="node">
<title>dir_34b4cee2b5900b653deb3438fc906cf4</title>
<g id="a_node3"><a xlink:href="dir_34b4cee2b5900b653deb3438fc906cf4.xhtml" target="_top" xlink:title="common">
<polygon fill="#ffffff" stroke="#000000" points="497.5,-252 438.5,-252 438.5,-216 497.5,-216 497.5,-252"/>
<text text-anchor="middle" x="468" y="-231.5" font-family="Helvetica,sans-Serif" font-size="10.00" fill="#000000">common</text>
</a>
</g>
</g>
<!-- dir_1d7cadfed01c895b25460177608d44e9 -->
<g id="node4" class="node">
<title>dir_1d7cadfed01c895b25460177608d44e9</title>
<g id="a_node4"><a xlink:href="dir_1d7cadfed01c895b25460177608d44e9.xhtml" target="_top" xlink:title="CPP">
<polygon fill="#ffffff" stroke="#ff0000" points="348,-252 294,-252 294,-216 348,-216 348,-252"/>
<text text-anchor="middle" x="321" y="-231.5" font-family="Helvetica,sans-Serif" font-size="10.00" fill="#000000">CPP</text>
</a>
</g>
</g>
<!-- dir_1d7cadfed01c895b25460177608d44e9&#45;&gt;dir_707aa52d67938117542c6646238d6f70 -->
<g id="edge39" class="edge">
<title>dir_1d7cadfed01c895b25460177608d44e9&#45;&gt;dir_707aa52d67938117542c6646238d6f70</title>
<path fill="none" stroke="#000000" d="M348.3888,-249.4959C368.7184,-261.5259 394.0675,-277.8201 401,-288 413.4091,-306.222 418.2548,-330.8885 420.0836,-349.7903"/>
<polygon fill="#000000" stroke="#000000" points="416.6025,-350.1764 420.8323,-359.8903 423.5834,-349.6589 416.6025,-350.1764"/>
<g id="a_edge39&#45;headlabel"><a xlink:href="dir_000052_000034.xhtml" target="_top" xlink:title="8">
<text text-anchor="middle" x="413.5054" y="-344.3015" font-family="Helvetica,sans-Serif" font-size="10.00" fill="#000000">8</text>
</a>
</g>
</g>
<!-- dir_1d7cadfed01c895b25460177608d44e9&#45;&gt;dir_214608ef36d61442cb2b0c1c4e9a7def -->
<g id="edge40" class="edge">
<title>dir_1d7cadfed01c895b25460177608d44e9&#45;&gt;dir_214608ef36d61442cb2b0c1c4e9a7def</title>
<path fill="none" stroke="#000000" d="M308.6915,-215.6825C302.3387,-205.5312 294.912,-192.472 290,-180 282.087,-159.9082 276.69,-136.067 273.3506,-117.9719"/>
<polygon fill="#000000" stroke="#000000" points="276.7868,-117.3024 271.6187,-108.0536 269.8911,-118.5066 276.7868,-117.3024"/>
<g id="a_edge40&#45;headlabel"><a xlink:href="dir_000052_000000.xhtml" target="_top" xlink:title="18">
<text text-anchor="middle" x="280.2019" y="-117.8551" font-family="Helvetica,sans-Serif" font-size="10.00" fill="#000000">18</text>
</a>
</g>
</g>
<!-- dir_fdedb0aba14d44ce9d99bc100e026e6a -->
<g id="node13" class="node">
<title>dir_fdedb0aba14d44ce9d99bc100e026e6a</title>
<g id="a_node13"><a xlink:href="dir_fdedb0aba14d44ce9d99bc100e026e6a.xhtml" target="_top" xlink:title="common">
<polygon fill="#ffffff" stroke="#ff0000" points="429.5,-180 370.5,-180 370.5,-144 429.5,-144 429.5,-180"/>
<text text-anchor="middle" x="400" y="-159.5" font-family="Helvetica,sans-Serif" font-size="10.00" fill="#000000">common</text>
</a>
</g>
</g>
<!-- dir_1d7cadfed01c895b25460177608d44e9&#45;&gt;dir_fdedb0aba14d44ce9d99bc100e026e6a -->
<g id="edge41" class="edge">
<title>dir_1d7cadfed01c895b25460177608d44e9&#45;&gt;dir_fdedb0aba14d44ce9d99bc100e026e6a</title>
<path fill="none" stroke="#000000" d="M339.9468,-215.8834C345.4155,-210.7149 351.4148,-205.1027 357,-200 361.7303,-195.6783 366.7977,-191.1298 371.7343,-186.7411"/>
<polygon fill="#000000" stroke="#000000" points="374.147,-189.2797 379.3169,-180.0318 369.5083,-184.0373 374.147,-189.2797"/>
<g id="a_edge41&#45;headlabel"><a xlink:href="dir_000052_000019.xhtml" target="_top" xlink:title="2">
<text text-anchor="middle" x="373.3364" y="-191.2881" font-family="Helvetica,sans-Serif" font-size="10.00" fill="#000000">2</text>
</a>
</g>
</g>
<!-- dir_b7458c46e3e273561b07052265b89043&#45;&gt;dir_214608ef36d61442cb2b0c1c4e9a7def -->
<g id="edge43" class="edge">
<title>dir_b7458c46e3e273561b07052265b89043&#45;&gt;dir_214608ef36d61442cb2b0c1c4e9a7def</title>
<path fill="none" stroke="#000000" d="M317.7753,-359.7523C297.3287,-336.7313 264.3262,-294.9362 251,-252 236.7711,-206.1553 241.9186,-191.3169 250,-144 251.4988,-135.2245 254.2751,-125.9785 257.2513,-117.6659"/>
<polygon fill="#000000" stroke="#000000" points="260.6126,-118.6742 260.9083,-108.0835 254.0727,-116.1782 260.6126,-118.6742"/>
<g id="a_edge43&#45;headlabel"><a xlink:href="dir_000096_000000.xhtml" target="_top" xlink:title="3">
<text text-anchor="middle" x="261.9837" y="-120.5449" font-family="Helvetica,sans-Serif" font-size="10.00" fill="#000000">3</text>
</a>
</g>
</g>
<!-- dir_b7458c46e3e273561b07052265b89043&#45;&gt;dir_5815af820a9cc9481f1d0990a0d60286 -->
<g id="edge44" class="edge">
<title>dir_b7458c46e3e273561b07052265b89043&#45;&gt;dir_5815af820a9cc9481f1d0990a0d60286</title>
<path fill="none" stroke="#000000" d="M293.9607,-373.9455C220.9297,-364.2248 76,-332.5225 76,-234 76,-234 76,-234 76,-162 76,-85.0588 175.7528,-44.3206 231.8287,-27.4983"/>
<polygon fill="#000000" stroke="#000000" points="233.1202,-30.7684 241.7572,-24.6321 231.1787,-24.0431 233.1202,-30.7684"/>
<g id="a_edge44&#45;headlabel"><a xlink:href="dir_000096_000032.xhtml" target="_top" xlink:title="1">
<text text-anchor="middle" x="230.4541" y="-31.9932" font-family="Helvetica,sans-Serif" font-size="10.00" fill="#000000">1</text>
</a>
</g>
</g>
<!-- dir_d91e1966cc57df4f49d1e07be7697713 -->
<g id="node7" class="node">
<title>dir_d91e1966cc57df4f49d1e07be7697713</title>
<g id="a_node7"><a xlink:href="dir_d91e1966cc57df4f49d1e07be7697713.xhtml" target="_top" xlink:title="NEON">
<polygon fill="#ffffff" stroke="#ff0000" points="392,-324 338,-324 338,-288 392,-288 392,-324"/>
<text text-anchor="middle" x="365" y="-303.5" font-family="Helvetica,sans-Serif" font-size="10.00" fill="#000000">NEON</text>
</a>
</g>
</g>
<!-- dir_707aa52d67938117542c6646238d6f70&#45;&gt;dir_d91e1966cc57df4f49d1e07be7697713 -->
<g id="edge17" class="edge">
<title>dir_707aa52d67938117542c6646238d6f70&#45;&gt;dir_d91e1966cc57df4f49d1e07be7697713</title>
<path fill="none" stroke="#000000" d="M400.9164,-359.8314C393.7324,-351.6232 385.8632,-341.7606 379.2447,-332.7323"/>
<polygon fill="#000000" stroke="#000000" points="381.985,-330.5459 373.3454,-324.4133 376.2749,-334.5951 381.985,-330.5459"/>
<g id="a_edge17&#45;headlabel"><a xlink:href="dir_000034_000029.xhtml" target="_top" xlink:title="1">
<text text-anchor="middle" x="386.3803" y="-329.3357" font-family="Helvetica,sans-Serif" font-size="10.00" fill="#000000">1</text>
</a>
</g>
</g>
<!-- dir_707aa52d67938117542c6646238d6f70&#45;&gt;dir_214608ef36d61442cb2b0c1c4e9a7def -->
<g id="edge16" class="edge">
<title>dir_707aa52d67938117542c6646238d6f70&#45;&gt;dir_214608ef36d61442cb2b0c1c4e9a7def</title>
<path fill="none" stroke="#000000" d="M393.8725,-364.081C375.0238,-353.9366 349.6778,-339.3344 329,-324 291.105,-295.8975 273.422,-293.5094 251,-252 228.047,-209.5076 226.8855,-190.7513 239,-144 241.3846,-134.7976 245.7146,-125.4938 250.3568,-117.2621"/>
<polygon fill="#000000" stroke="#000000" points="253.4813,-118.8582 255.6438,-108.4863 247.4854,-115.2459 253.4813,-118.8582"/>
<g id="a_edge16&#45;headlabel"><a xlink:href="dir_000034_000000.xhtml" target="_top" xlink:title="15">
<text text-anchor="middle" x="254.0585" y="-120.9023" font-family="Helvetica,sans-Serif" font-size="10.00" fill="#000000">15</text>
</a>
</g>
</g>
<!-- dir_d91e1966cc57df4f49d1e07be7697713&#45;&gt;dir_34b4cee2b5900b653deb3438fc906cf4 -->
<g id="edge27" class="edge">
<title>dir_d91e1966cc57df4f49d1e07be7697713&#45;&gt;dir_34b4cee2b5900b653deb3438fc906cf4</title>
<path fill="none" stroke="#000000" d="M390.9912,-287.8314C403.9216,-278.7927 419.7222,-267.7476 433.6383,-258.0198"/>
<polygon fill="#000000" stroke="#000000" points="435.8263,-260.7608 442.0171,-252.1628 431.8157,-255.0235 435.8263,-260.7608"/>
<g id="a_edge27&#45;headlabel"><a xlink:href="dir_000029_000045.xhtml" target="_top" xlink:title="10">
<text text-anchor="middle" x="434.5068" y="-262.6473" font-family="Helvetica,sans-Serif" font-size="10.00" fill="#000000">10</text>
</a>
</g>
</g>
<!-- dir_d91e1966cc57df4f49d1e07be7697713&#45;&gt;dir_1d7cadfed01c895b25460177608d44e9 -->
<g id="edge32" class="edge">
<title>dir_d91e1966cc57df4f49d1e07be7697713&#45;&gt;dir_1d7cadfed01c895b25460177608d44e9</title>
<path fill="none" stroke="#000000" d="M353.8969,-287.8314C348.9326,-279.7079 342.9778,-269.9637 337.5072,-261.0118"/>
<polygon fill="#000000" stroke="#000000" points="340.4536,-259.121 332.2526,-252.4133 334.4806,-262.7712 340.4536,-259.121"/>
<g id="a_edge32&#45;headlabel"><a xlink:href="dir_000029_000052.xhtml" target="_top" xlink:title="15">
<text text-anchor="middle" x="344.7507" y="-258.2077" font-family="Helvetica,sans-Serif" font-size="10.00" fill="#000000">15</text>
</a>
</g>
</g>
<!-- dir_d91e1966cc57df4f49d1e07be7697713&#45;&gt;dir_707aa52d67938117542c6646238d6f70 -->
<g id="edge28" class="edge">
<title>dir_d91e1966cc57df4f49d1e07be7697713&#45;&gt;dir_707aa52d67938117542c6646238d6f70</title>
<path fill="none" stroke="#000000" d="M385.2974,-324.4133C392.4948,-332.654 400.3583,-342.5245 406.9518,-351.536"/>
<polygon fill="#000000" stroke="#000000" points="404.1881,-353.6897 412.8212,-359.8314 409.9024,-349.6465 404.1881,-353.6897"/>
<g id="a_edge28&#45;headlabel"><a xlink:href="dir_000029_000034.xhtml" target="_top" xlink:title="72">
<text text-anchor="middle" x="399.7942" y="-349.8952" font-family="Helvetica,sans-Serif" font-size="10.00" fill="#000000">72</text>
</a>
</g>
</g>
<!-- dir_d91e1966cc57df4f49d1e07be7697713&#45;&gt;dir_a8053b3d69cfefb2b2e6ec7bf9dd5c1a -->
<g id="edge31" class="edge">
<title>dir_d91e1966cc57df4f49d1e07be7697713&#45;&gt;dir_a8053b3d69cfefb2b2e6ec7bf9dd5c1a</title>
<path fill="none" stroke="#000000" d="M372.0656,-287.8314C375.126,-279.9617 378.7779,-270.5712 382.1682,-261.8533"/>
<polygon fill="#000000" stroke="#000000" points="385.4768,-263.0019 385.8393,-252.4133 378.9527,-260.4647 385.4768,-263.0019"/>
<g id="a_edge31&#45;headlabel"><a xlink:href="dir_000029_000050.xhtml" target="_top" xlink:title="2">
<text text-anchor="middle" x="386.8202" y="-264.8812" font-family="Helvetica,sans-Serif" font-size="10.00" fill="#000000">2</text>
</a>
</g>
</g>
<!-- dir_2c61f424fd391396db977702a2beee9a -->
<g id="node10" class="node">
<title>dir_2c61f424fd391396db977702a2beee9a</title>
<g id="a_node10"><a xlink:href="dir_2c61f424fd391396db977702a2beee9a.xhtml" target="_top" xlink:title="cpu">
<polygon fill="#ffffff" stroke="#ff0000" points="618,-324 564,-324 564,-288 618,-288 618,-324"/>
<text text-anchor="middle" x="591" y="-303.5" font-family="Helvetica,sans-Serif" font-size="10.00" fill="#000000">cpu</text>
</a>
</g>
</g>
<!-- dir_d91e1966cc57df4f49d1e07be7697713&#45;&gt;dir_2c61f424fd391396db977702a2beee9a -->
<g id="edge29" class="edge">
<title>dir_d91e1966cc57df4f49d1e07be7697713&#45;&gt;dir_2c61f424fd391396db977702a2beee9a</title>
<path fill="none" stroke="#000000" d="M392.3672,-306C446.1767,-306 499.9862,-306 553.7957,-306"/>
<polygon fill="#000000" stroke="#000000" points="553.8432,-309.5001 563.8432,-306 553.8431,-302.5001 553.8432,-309.5001"/>
<g id="a_edge29&#45;headlabel"><a xlink:href="dir_000029_000371.xhtml" target="_top" xlink:title="74">
<text text-anchor="middle" x="550.2486" y="-309.8393" font-family="Helvetica,sans-Serif" font-size="10.00" fill="#000000">74</text>
</a>
</g>
</g>
<!-- dir_d91e1966cc57df4f49d1e07be7697713&#45;&gt;dir_214608ef36d61442cb2b0c1c4e9a7def -->
<g id="edge30" class="edge">
<title>dir_d91e1966cc57df4f49d1e07be7697713&#45;&gt;dir_214608ef36d61442cb2b0c1c4e9a7def</title>
<path fill="none" stroke="#000000" d="M337.7929,-298.5678C315.5065,-290.8916 285.3877,-276.5079 271,-252 246.6097,-210.4538 253.9616,-151.9825 261.4987,-117.8324"/>
<polygon fill="#000000" stroke="#000000" points="264.9142,-118.5976 263.8088,-108.0606 258.102,-116.9871 264.9142,-118.5976"/>
<g id="a_edge30&#45;headlabel"><a xlink:href="dir_000029_000000.xhtml" target="_top" xlink:title="229">
<text text-anchor="middle" x="266.8504" y="-120.249" font-family="Helvetica,sans-Serif" font-size="10.00" fill="#000000">229</text>
</a>
</g>
</g>
<!-- dir_d91e1966cc57df4f49d1e07be7697713&#45;&gt;dir_5815af820a9cc9481f1d0990a0d60286 -->
<g id="edge33" class="edge">
<title>dir_d91e1966cc57df4f49d1e07be7697713&#45;&gt;dir_5815af820a9cc9481f1d0990a0d60286</title>
<path fill="none" stroke="#000000" d="M337.6958,-300.3082C311.5039,-293.4013 272.8096,-279.1444 251,-252 200.0577,-188.5966 187.9514,-147.579 218,-72 222.2676,-61.2659 229.7931,-51.4321 237.7739,-43.1828"/>
<polygon fill="#000000" stroke="#000000" points="240.3801,-45.5319 245.1509,-36.072 235.5221,-40.4921 240.3801,-45.5319"/>
<g id="a_edge33&#45;headlabel"><a xlink:href="dir_000029_000032.xhtml" target="_top" xlink:title="6">
<text text-anchor="middle" x="239.7626" y="-47.5708" font-family="Helvetica,sans-Serif" font-size="10.00" fill="#000000">6</text>
</a>
</g>
</g>
<!-- dir_d91e1966cc57df4f49d1e07be7697713&#45;&gt;dir_fdedb0aba14d44ce9d99bc100e026e6a -->
<g id="edge34" class="edge">
<title>dir_d91e1966cc57df4f49d1e07be7697713&#45;&gt;dir_fdedb0aba14d44ce9d99bc100e026e6a</title>
<path fill="none" stroke="#000000" d="M337.7858,-295.7297C319.2314,-287.1259 296.0888,-272.8634 285,-252 274.1534,-231.5923 271.4622,-218.7311 285,-200 294.0622,-187.4614 330.7027,-176.782 360.2229,-169.9673"/>
<polygon fill="#000000" stroke="#000000" points="361.3104,-173.3109 370.3107,-167.7213 359.789,-166.4782 361.3104,-173.3109"/>
<g id="a_edge34&#45;headlabel"><a xlink:href="dir_000029_000019.xhtml" target="_top" xlink:title="2">
<text text-anchor="middle" x="358.4187" y="-174.3635" font-family="Helvetica,sans-Serif" font-size="10.00" fill="#000000">2</text>
</a>
</g>
</g>
<!-- dir_a8053b3d69cfefb2b2e6ec7bf9dd5c1a&#45;&gt;dir_2c61f424fd391396db977702a2beee9a -->
<g id="edge35" class="edge">
<title>dir_a8053b3d69cfefb2b2e6ec7bf9dd5c1a&#45;&gt;dir_2c61f424fd391396db977702a2beee9a</title>
<path fill="none" stroke="#000000" d="M420.2044,-251.6725C420.4703,-251.7827 420.7355,-251.8918 421,-252 465.7055,-270.2822 519.1282,-287.2801 554.1609,-297.1501"/>
<polygon fill="#000000" stroke="#000000" points="553.4008,-300.5712 563.9717,-299.859 555.264,-293.8237 553.4008,-300.5712"/>
<g id="a_edge35&#45;headlabel"><a xlink:href="dir_000050_000371.xhtml" target="_top" xlink:title="1">
<text text-anchor="middle" x="549.1802" y="-299.8514" font-family="Helvetica,sans-Serif" font-size="10.00" fill="#000000">1</text>
</a>
</g>
</g>
<!-- dir_a8053b3d69cfefb2b2e6ec7bf9dd5c1a&#45;&gt;dir_214608ef36d61442cb2b0c1c4e9a7def -->
<g id="edge36" class="edge">
<title>dir_a8053b3d69cfefb2b2e6ec7bf9dd5c1a&#45;&gt;dir_214608ef36d61442cb2b0c1c4e9a7def</title>
<path fill="none" stroke="#000000" d="M374.807,-215.7912C369.2499,-210.5139 363.0148,-204.8668 357,-200 344.8286,-190.1516 338.9403,-191.2002 328,-180 309.6842,-161.2491 293.7236,-136.0197 283.0378,-117.0444"/>
<polygon fill="#000000" stroke="#000000" points="285.9668,-115.1065 278.0874,-108.0237 279.8301,-118.4742 285.9668,-115.1065"/>
<g id="a_edge36&#45;headlabel"><a xlink:href="dir_000050_000000.xhtml" target="_top" xlink:title="18">
<text text-anchor="middle" x="290.1852" y="-114.3919" font-family="Helvetica,sans-Serif" font-size="10.00" fill="#000000">18</text>
</a>
</g>
</g>
<!-- dir_a8053b3d69cfefb2b2e6ec7bf9dd5c1a&#45;&gt;dir_5815af820a9cc9481f1d0990a0d60286 -->
<g id="edge37" class="edge">
<title>dir_a8053b3d69cfefb2b2e6ec7bf9dd5c1a&#45;&gt;dir_5815af820a9cc9481f1d0990a0d60286</title>
<path fill="none" stroke="#000000" d="M381.6822,-215.8736C375.4771,-205.5616 367.8756,-192.2881 362,-180 339.7834,-133.5364 347.5254,-115.5292 320,-72 313.5501,-61.8001 305.0003,-51.8411 296.7479,-43.31"/>
<polygon fill="#000000" stroke="#000000" points="299.1836,-40.796 289.6325,-36.2104 294.2393,-45.7513 299.1836,-40.796"/>
<g id="a_edge37&#45;headlabel"><a xlink:href="dir_000050_000032.xhtml" target="_top" xlink:title="3">
<text text-anchor="middle" x="303.7336" y="-38.8251" font-family="Helvetica,sans-Serif" font-size="10.00" fill="#000000">3</text>
</a>
</g>
</g>
<!-- dir_a8053b3d69cfefb2b2e6ec7bf9dd5c1a&#45;&gt;dir_fdedb0aba14d44ce9d99bc100e026e6a -->
<g id="edge38" class="edge">
<title>dir_a8053b3d69cfefb2b2e6ec7bf9dd5c1a&#45;&gt;dir_fdedb0aba14d44ce9d99bc100e026e6a</title>
<path fill="none" stroke="#000000" d="M394.7664,-215.8314C395.515,-208.131 396.4053,-198.9743 397.2373,-190.4166"/>
<polygon fill="#000000" stroke="#000000" points="400.7256,-190.7051 398.2098,-180.4133 393.7585,-190.0276 400.7256,-190.7051"/>
<g id="a_edge38&#45;headlabel"><a xlink:href="dir_000050_000019.xhtml" target="_top" xlink:title="1">
<text text-anchor="middle" x="403.2038" y="-192.0575" font-family="Helvetica,sans-Serif" font-size="10.00" fill="#000000">1</text>
</a>
</g>
</g>
<!-- dir_cf895c1ed808af158264b2f3d8d7f8f0&#45;&gt;dir_8c278f79c760e5c5fbd911f9870614c1 -->
<g id="edge8" class="edge">
<title>dir_cf895c1ed808af158264b2f3d8d7f8f0&#45;&gt;dir_8c278f79c760e5c5fbd911f9870614c1</title>
<path fill="none" stroke="#000000" d="M542.5477,-468.0767C535.3503,-485.2029 521.8943,-509.9045 501,-521 472.3452,-536.2165 458.2201,-532.8062 428,-521 405.0676,-512.0409 384.8534,-492.6975 370.8972,-476.4606"/>
<polygon fill="#000000" stroke="#000000" points="373.2505,-473.8129 364.1882,-468.3243 367.8497,-478.2663 373.2505,-473.8129"/>
<g id="a_edge8&#45;headlabel"><a xlink:href="dir_000004_000021.xhtml" target="_top" xlink:title="51">
<text text-anchor="middle" x="377.7279" y="-472.28" font-family="Helvetica,sans-Serif" font-size="10.00" fill="#000000">51</text>
</a>
</g>
</g>
<!-- dir_cf895c1ed808af158264b2f3d8d7f8f0&#45;&gt;dir_34b4cee2b5900b653deb3438fc906cf4 -->
<g id="edge7" class="edge">
<title>dir_cf895c1ed808af158264b2f3d8d7f8f0&#45;&gt;dir_34b4cee2b5900b653deb3438fc906cf4</title>
<path fill="none" stroke="#000000" d="M551.1639,-431.7752C552.8001,-413.3816 553.8793,-384.3004 548,-360 538.6794,-321.4757 511.935,-284.0037 491.9166,-260.0808"/>
<polygon fill="#000000" stroke="#000000" points="494.325,-257.513 485.1559,-252.2046 489.0133,-262.0722 494.325,-257.513"/>
<g id="a_edge7&#45;headlabel"><a xlink:href="dir_000004_000045.xhtml" target="_top" xlink:title="54">
<text text-anchor="middle" x="498.8206" y="-255.8913" font-family="Helvetica,sans-Serif" font-size="10.00" fill="#000000">54</text>
</a>
</g>
</g>
<!-- dir_cf895c1ed808af158264b2f3d8d7f8f0&#45;&gt;dir_1d7cadfed01c895b25460177608d44e9 -->
<g id="edge12" class="edge">
<title>dir_cf895c1ed808af158264b2f3d8d7f8f0&#45;&gt;dir_1d7cadfed01c895b25460177608d44e9</title>
<path fill="none" stroke="#000000" d="M536.9965,-431.9772C515.135,-400.1021 466.1521,-332.9149 413,-288 403.531,-279.9984 378.8058,-265.598 357.3704,-253.6795"/>
<polygon fill="#000000" stroke="#000000" points="358.8855,-250.518 348.4393,-248.7494 355.5026,-256.6463 358.8855,-250.518"/>
<g id="a_edge12&#45;headlabel"><a xlink:href="dir_000004_000052.xhtml" target="_top" xlink:title="1">
<text text-anchor="middle" x="363.4046" y="-247.2694" font-family="Helvetica,sans-Serif" font-size="10.00" fill="#000000">1</text>
</a>
</g>
</g>
<!-- dir_cf895c1ed808af158264b2f3d8d7f8f0&#45;&gt;dir_b7458c46e3e273561b07052265b89043 -->
<g id="edge14" class="edge">
<title>dir_cf895c1ed808af158264b2f3d8d7f8f0&#45;&gt;dir_b7458c46e3e273561b07052265b89043</title>
<path fill="none" stroke="#000000" d="M521.9482,-436.8751C517.9812,-435.138 513.9136,-433.4571 510,-432 458.6768,-412.8919 441.7797,-413.6543 385.845,-396.1463"/>
<polygon fill="#000000" stroke="#000000" points="386.7185,-392.7512 376.1277,-393.0459 384.5906,-399.42 386.7185,-392.7512"/>
<g id="a_edge14&#45;headlabel"><a xlink:href="dir_000004_000096.xhtml" target="_top" xlink:title="3">
<text text-anchor="middle" x="391.006" y="-388.6389" font-family="Helvetica,sans-Serif" font-size="10.00" fill="#000000">3</text>
</a>
</g>
</g>
<!-- dir_cf895c1ed808af158264b2f3d8d7f8f0&#45;&gt;dir_707aa52d67938117542c6646238d6f70 -->
<g id="edge9" class="edge">
<title>dir_cf895c1ed808af158264b2f3d8d7f8f0&#45;&gt;dir_707aa52d67938117542c6646238d6f70</title>
<path fill="none" stroke="#000000" d="M521.8545,-434.7307C502.9326,-424.0871 477.4907,-409.776 456.8947,-398.1908"/>
<polygon fill="#000000" stroke="#000000" points="458.5381,-395.0995 448.1064,-393.2473 455.1062,-401.2005 458.5381,-395.0995"/>
<g id="a_edge9&#45;headlabel"><a xlink:href="dir_000004_000034.xhtml" target="_top" xlink:title="108">
<text text-anchor="middle" x="463.063" y="-391.8871" font-family="Helvetica,sans-Serif" font-size="10.00" fill="#000000">108</text>
</a>
</g>
</g>
<!-- dir_cf895c1ed808af158264b2f3d8d7f8f0&#45;&gt;dir_a8053b3d69cfefb2b2e6ec7bf9dd5c1a -->
<g id="edge11" class="edge">
<title>dir_cf895c1ed808af158264b2f3d8d7f8f0&#45;&gt;dir_a8053b3d69cfefb2b2e6ec7bf9dd5c1a</title>
<path fill="none" stroke="#000000" d="M544.315,-431.798C535.2895,-399.6422 512.8686,-332.0297 474,-288 461.3774,-273.7013 444.143,-261.5154 428.8157,-252.3582"/>
<polygon fill="#000000" stroke="#000000" points="430.4745,-249.2747 420.0609,-247.3234 426.9848,-255.3428 430.4745,-249.2747"/>
<g id="a_edge11&#45;headlabel"><a xlink:href="dir_000004_000050.xhtml" target="_top" xlink:title="8">
<text text-anchor="middle" x="435.006" y="-246.1053" font-family="Helvetica,sans-Serif" font-size="10.00" fill="#000000">8</text>
</a>
</g>
</g>
<!-- dir_cf895c1ed808af158264b2f3d8d7f8f0&#45;&gt;dir_214608ef36d61442cb2b0c1c4e9a7def -->
<g id="edge10" class="edge">
<title>dir_cf895c1ed808af158264b2f3d8d7f8f0&#45;&gt;dir_214608ef36d61442cb2b0c1c4e9a7def</title>
<path fill="none" stroke="#000000" d="M576.2962,-436.5483C592.4345,-427.2627 611.9997,-413.4512 624,-396 642.7523,-368.7299 638.7424,-356.8204 643,-324 650.7103,-264.5639 631.0281,-243.6897 590,-200 518.5071,-123.8692 392.0928,-100.4284 321.1092,-93.2109"/>
<polygon fill="#000000" stroke="#000000" points="321.3367,-89.7169 311.0515,-92.2594 320.6774,-96.6858 321.3367,-89.7169"/>
<g id="a_edge10&#45;headlabel"><a xlink:href="dir_000004_000000.xhtml" target="_top" xlink:title="488">
<text text-anchor="middle" x="325.1828" y="-84.7287" font-family="Helvetica,sans-Serif" font-size="10.00" fill="#000000">488</text>
</a>
</g>
</g>
<!-- dir_cf895c1ed808af158264b2f3d8d7f8f0&#45;&gt;dir_5815af820a9cc9481f1d0990a0d60286 -->
<g id="edge13" class="edge">
<title>dir_cf895c1ed808af158264b2f3d8d7f8f0&#45;&gt;dir_5815af820a9cc9481f1d0990a0d60286</title>
<path fill="none" stroke="#000000" d="M576.0313,-441.5681C624.6875,-424.5148 722,-381.0296 722,-306 722,-306 722,-306 722,-162 722,-75.0478 415.0399,-33.6725 306.4831,-21.7589"/>
<polygon fill="#000000" stroke="#000000" points="306.6338,-18.255 296.317,-20.6661 305.8857,-25.2149 306.6338,-18.255"/>
<g id="a_edge13&#45;headlabel"><a xlink:href="dir_000004_000032.xhtml" target="_top" xlink:title="107">
<text text-anchor="middle" x="310.5113" y="-13.3161" font-family="Helvetica,sans-Serif" font-size="10.00" fill="#000000">107</text>
</a>
</g>
</g>
<!-- dir_cf895c1ed808af158264b2f3d8d7f8f0&#45;&gt;dir_fdedb0aba14d44ce9d99bc100e026e6a -->
<g id="edge15" class="edge">
<title>dir_cf895c1ed808af158264b2f3d8d7f8f0&#45;&gt;dir_fdedb0aba14d44ce9d99bc100e026e6a</title>
<path fill="none" stroke="#000000" d="M568.5529,-431.9286C598.0002,-402.4071 648.1548,-341.7339 627,-288 607.4164,-238.2571 590.8938,-227.416 545,-200 512.6248,-180.6597 470.4397,-171.0388 439.9251,-166.3309"/>
<polygon fill="#000000" stroke="#000000" points="440.0483,-162.813 429.6536,-164.8626 439.0577,-169.7425 440.0483,-162.813"/>
<g id="a_edge15&#45;headlabel"><a xlink:href="dir_000004_000019.xhtml" target="_top" xlink:title="45">
<text text-anchor="middle" x="444.0085" y="-158.0109" font-family="Helvetica,sans-Serif" font-size="10.00" fill="#000000">45</text>
</a>
</g>
</g>
<!-- dir_2c61f424fd391396db977702a2beee9a&#45;&gt;dir_34b4cee2b5900b653deb3438fc906cf4 -->
<g id="edge18" class="edge">
<title>dir_2c61f424fd391396db977702a2beee9a&#45;&gt;dir_34b4cee2b5900b653deb3438fc906cf4</title>
<path fill="none" stroke="#000000" d="M563.7023,-290.0209C546.9154,-280.1944 525.1434,-267.4498 506.6077,-256.5996"/>
<polygon fill="#000000" stroke="#000000" points="508.2026,-253.4777 497.8043,-251.4464 504.6663,-259.5188 508.2026,-253.4777"/>
<g id="a_edge18&#45;headlabel"><a xlink:href="dir_000371_000045.xhtml" target="_top" xlink:title="80">
<text text-anchor="middle" x="512.7391" y="-250.3432" font-family="Helvetica,sans-Serif" font-size="10.00" fill="#000000">80</text>
</a>
</g>
</g>
<!-- dir_2c61f424fd391396db977702a2beee9a&#45;&gt;dir_1d7cadfed01c895b25460177608d44e9 -->
<g id="edge23" class="edge">
<title>dir_2c61f424fd391396db977702a2beee9a&#45;&gt;dir_1d7cadfed01c895b25460177608d44e9</title>
<path fill="none" stroke="#000000" d="M563.715,-299.8849C510.3995,-287.9136 394.9067,-261.8654 357.8347,-251.4359"/>
<polygon fill="#000000" stroke="#000000" points="358.811,-248.0743 348.2228,-248.4469 356.7324,-254.7586 358.811,-248.0743"/>
<g id="a_edge23&#45;headlabel"><a xlink:href="dir_000371_000052.xhtml" target="_top" xlink:title="31">
<text text-anchor="middle" x="363.0866" y="-243.9304" font-family="Helvetica,sans-Serif" font-size="10.00" fill="#000000">31</text>
</a>
</g>
</g>
<!-- dir_2c61f424fd391396db977702a2beee9a&#45;&gt;dir_707aa52d67938117542c6646238d6f70 -->
<g id="edge19" class="edge">
<title>dir_2c61f424fd391396db977702a2beee9a&#45;&gt;dir_707aa52d67938117542c6646238d6f70</title>
<path fill="none" stroke="#000000" d="M563.7543,-317.5393C535.0308,-329.7046 489.6128,-348.9405 457.7375,-362.4406"/>
<polygon fill="#000000" stroke="#000000" points="456.1566,-359.3091 448.3134,-366.432 458.8866,-365.7548 456.1566,-359.3091"/>
<g id="a_edge19&#45;headlabel"><a xlink:href="dir_000371_000034.xhtml" target="_top" xlink:title="139">
<text text-anchor="middle" x="458.3593" y="-352.7928" font-family="Helvetica,sans-Serif" font-size="10.00" fill="#000000">139</text>
</a>
</g>
</g>
<!-- dir_2c61f424fd391396db977702a2beee9a&#45;&gt;dir_d91e1966cc57df4f49d1e07be7697713 -->
<g id="edge21" class="edge">
<title>dir_2c61f424fd391396db977702a2beee9a&#45;&gt;dir_d91e1966cc57df4f49d1e07be7697713</title>
<path fill="none" stroke="#000000" d="M563.8432,-306C510.0336,-306 456.2241,-306 402.4146,-306"/>
<polygon fill="#000000" stroke="#000000" points="402.3672,-302.5001 392.3672,-306 402.3672,-309.5001 402.3672,-302.5001"/>
<g id="a_edge21&#45;headlabel"><a xlink:href="dir_000371_000029.xhtml" target="_top" xlink:title="133">
<text text-anchor="middle" x="405.9618" y="-297.1607" font-family="Helvetica,sans-Serif" font-size="10.00" fill="#000000">133</text>
</a>
</g>
</g>
<!-- dir_2c61f424fd391396db977702a2beee9a&#45;&gt;dir_a8053b3d69cfefb2b2e6ec7bf9dd5c1a -->
<g id="edge22" class="edge">
<title>dir_2c61f424fd391396db977702a2beee9a&#45;&gt;dir_a8053b3d69cfefb2b2e6ec7bf9dd5c1a</title>
<path fill="none" stroke="#000000" d="M563.8288,-295.9748C533.0141,-285.965 481.9787,-269.576 439,-252 435.8635,-250.7173 432.6189,-249.292 429.3567,-247.8208"/>
<polygon fill="#000000" stroke="#000000" points="430.742,-244.6058 420.1918,-243.634 427.8333,-250.9729 430.742,-244.6058"/>
<g id="a_edge22&#45;headlabel"><a xlink:href="dir_000371_000050.xhtml" target="_top" xlink:title="14">
<text text-anchor="middle" x="435.1914" y="-241.0168" font-family="Helvetica,sans-Serif" font-size="10.00" fill="#000000">14</text>
</a>
</g>
</g>
<!-- dir_2c61f424fd391396db977702a2beee9a&#45;&gt;dir_214608ef36d61442cb2b0c1c4e9a7def -->
<g id="edge20" class="edge">
<title>dir_2c61f424fd391396db977702a2beee9a&#45;&gt;dir_214608ef36d61442cb2b0c1c4e9a7def</title>
<path fill="none" stroke="#000000" d="M587.0661,-287.8273C581.2993,-264.9186 568.5828,-225.462 545,-200 485.3187,-135.563 382.9294,-108.1803 321.0463,-97.0668"/>
<polygon fill="#000000" stroke="#000000" points="321.5504,-93.6022 311.1022,-95.3584 320.3651,-100.5011 321.5504,-93.6022"/>
<g id="a_edge20&#45;headlabel"><a xlink:href="dir_000371_000000.xhtml" target="_top" xlink:title="642">
<text text-anchor="middle" x="325.5738" y="-88.9125" font-family="Helvetica,sans-Serif" font-size="10.00" fill="#000000">642</text>
</a>
</g>
</g>
<!-- dir_2c61f424fd391396db977702a2beee9a&#45;&gt;dir_5815af820a9cc9481f1d0990a0d60286 -->
<g id="edge24" class="edge">
<title>dir_2c61f424fd391396db977702a2beee9a&#45;&gt;dir_5815af820a9cc9481f1d0990a0d60286</title>
<path fill="none" stroke="#000000" d="M591.7617,-287.9052C591.9047,-265.7732 589.5401,-227.8255 574,-200 516.3748,-96.8183 374.0774,-46.122 306.1918,-27.157"/>
<polygon fill="#000000" stroke="#000000" points="306.9146,-23.7266 296.3469,-24.4844 305.0806,-30.4821 306.9146,-23.7266"/>
<g id="a_edge24&#45;headlabel"><a xlink:href="dir_000371_000032.xhtml" target="_top" xlink:title="17">
<text text-anchor="middle" x="311.1275" y="-19.4282" font-family="Helvetica,sans-Serif" font-size="10.00" fill="#000000">17</text>
</a>
</g>
</g>
<!-- dir_2c61f424fd391396db977702a2beee9a&#45;&gt;dir_fdedb0aba14d44ce9d99bc100e026e6a -->
<g id="edge25" class="edge">
<title>dir_2c61f424fd391396db977702a2beee9a&#45;&gt;dir_fdedb0aba14d44ce9d99bc100e026e6a</title>
<path fill="none" stroke="#000000" d="M578.8915,-287.6425C560.818,-260.7096 527.0863,-212.3395 510,-200 489.1196,-184.9205 461.7587,-175.4364 439.5487,-169.7143"/>
<polygon fill="#000000" stroke="#000000" points="440.2911,-166.2929 429.7484,-167.3433 438.645,-173.0967 440.2911,-166.2929"/>
<g id="a_edge25&#45;headlabel"><a xlink:href="dir_000371_000019.xhtml" target="_top" xlink:title="48">
<text text-anchor="middle" x="444.4525" y="-161.8785" font-family="Helvetica,sans-Serif" font-size="10.00" fill="#000000">48</text>
</a>
</g>
</g>
<!-- dir_214608ef36d61442cb2b0c1c4e9a7def&#45;&gt;dir_5815af820a9cc9481f1d0990a0d60286 -->
<g id="edge26" class="edge">
<title>dir_214608ef36d61442cb2b0c1c4e9a7def&#45;&gt;dir_5815af820a9cc9481f1d0990a0d60286</title>
<path fill="none" stroke="#000000" d="M263.0476,-71.8314C262.2972,-64.131 262.0763,-54.9743 262.3849,-46.4166"/>
<polygon fill="#000000" stroke="#000000" points="265.8792,-46.6161 263.024,-36.4133 258.8935,-46.1697 265.8792,-46.6161"/>
<g id="a_edge26&#45;headlabel"><a xlink:href="dir_000000_000032.xhtml" target="_top" xlink:title="18">
<text text-anchor="middle" x="268.4836" y="-47.8844" font-family="Helvetica,sans-Serif" font-size="10.00" fill="#000000">18</text>
</a>
</g>
</g>
<!-- dir_5815af820a9cc9481f1d0990a0d60286&#45;&gt;dir_214608ef36d61442cb2b0c1c4e9a7def -->
<g id="edge42" class="edge">
<title>dir_5815af820a9cc9481f1d0990a0d60286&#45;&gt;dir_214608ef36d61442cb2b0c1c4e9a7def</title>
<path fill="none" stroke="#000000" d="M274.976,-36.4133C275.7071,-44.0593 275.9203,-53.1084 275.6155,-61.5726"/>
<polygon fill="#000000" stroke="#000000" points="272.1048,-61.6264 274.9524,-71.8314 279.0902,-62.078 272.1048,-61.6264"/>
<g id="a_edge42&#45;headlabel"><a xlink:href="dir_000032_000000.xhtml" target="_top" xlink:title="6">
<text text-anchor="middle" x="269.5032" y="-55.3562" font-family="Helvetica,sans-Serif" font-size="10.00" fill="#000000">6</text>
</a>
</g>
</g>
<!-- dir_fdedb0aba14d44ce9d99bc100e026e6a&#45;&gt;dir_214608ef36d61442cb2b0c1c4e9a7def -->
<g id="edge45" class="edge">
<title>dir_fdedb0aba14d44ce9d99bc100e026e6a&#45;&gt;dir_214608ef36d61442cb2b0c1c4e9a7def</title>
<path fill="none" stroke="#000000" d="M370.2741,-145.6621C352.6786,-135.9913 330.1147,-123.5898 310.7528,-112.9481"/>
<polygon fill="#000000" stroke="#000000" points="312.2765,-109.7918 301.827,-108.0423 308.9048,-115.9263 312.2765,-109.7918"/>
<g id="a_edge45&#45;headlabel"><a xlink:href="dir_000019_000000.xhtml" target="_top" xlink:title="17">
<text text-anchor="middle" x="316.7942" y="-106.5349" font-family="Helvetica,sans-Serif" font-size="10.00" fill="#000000">17</text>
</a>
</g>
</g>
<!-- dir_fdedb0aba14d44ce9d99bc100e026e6a&#45;&gt;dir_5815af820a9cc9481f1d0990a0d60286 -->
<g id="edge46" class="edge">
<title>dir_fdedb0aba14d44ce9d99bc100e026e6a&#45;&gt;dir_5815af820a9cc9481f1d0990a0d60286</title>
<path fill="none" stroke="#000000" d="M394.4476,-143.682C387.8056,-124.1443 375.1277,-93.1593 356,-72 341.918,-56.4223 322.3081,-43.7231 305.27,-34.5628"/>
<polygon fill="#000000" stroke="#000000" points="306.6121,-31.3169 296.1204,-29.842 303.4024,-37.5376 306.6121,-31.3169"/>
<g id="a_edge46&#45;headlabel"><a xlink:href="dir_000019_000032.xhtml" target="_top" xlink:title="2">
<text text-anchor="middle" x="311.1084" y="-27.9418" font-family="Helvetica,sans-Serif" font-size="10.00" fill="#000000">2</text>
</a>
</g>
</g>
</g>
</svg>
