<?xml version="1.0" encoding="UTF-8" standalone="no"?>
<!DOCTYPE svg PUBLIC "-//W3C//DTD SVG 1.1//EN"
 "http://www.w3.org/Graphics/SVG/1.1/DTD/svg11.dtd">
<!-- Generated by graphviz version 2.43.0 (0)
 -->
<!-- Title: src/dynamic_fusion/sketch/gpu/ckw_driver Pages: 1 -->
<svg width="318pt" height="591pt"
 viewBox="0.00 0.00 318.00 591.00" xmlns="http://www.w3.org/2000/svg" xmlns:xlink="http://www.w3.org/1999/xlink">
<g id="graph0" class="graph" transform="scale(1 1) rotate(0) translate(4 587)">
<title>src/dynamic_fusion/sketch/gpu/ckw_driver</title>
<polygon fill="white" stroke="transparent" points="-4,4 -4,-587 314,-587 314,4 -4,4"/>
<g id="clust1" class="cluster">
<title>clusterdir_df94d166e0e6f49d063cb29fea25a88b</title>
<g id="a_clust1"><a xlink:href="dir_df94d166e0e6f49d063cb29fea25a88b.xhtml" target="_top" xlink:title="gpu">
<polygon fill="#ddddee" stroke="black" points="67,-416 67,-575 177,-575 177,-416 67,-416"/>
<text text-anchor="middle" x="122" y="-563" font-family="Helvetica,sans-Serif" font-size="10.00">gpu</text>
</a>
</g>
</g>
<g id="clust2" class="cluster">
<title>clusterdir_41286eb82ab9bcc453374927cfc10252</title>
<g id="a_clust2"><a xlink:href="dir_41286eb82ab9bcc453374927cfc10252.xhtml" target="_top">
<polygon fill="#eeeeff" stroke="black" points="75,-424 75,-548 169,-548 169,-424 75,-424"/>
</a>
</g>
</g>
<!-- dir_41286eb82ab9bcc453374927cfc10252 -->
<g id="node1" class="node">
<title>dir_41286eb82ab9bcc453374927cfc10252</title>
<text text-anchor="middle" x="124" y="-519.5" font-family="Helvetica,sans-Serif" font-size="10.00">ckw_driver</text>
</g>
<!-- dir_510767539347664ee40808f8989f21cf -->
<g id="node2" class="node">
<title>dir_510767539347664ee40808f8989f21cf</title>
<g id="a_node2"><a xlink:href="dir_510767539347664ee40808f8989f21cf.xhtml" target="_top" xlink:title="components">
<polygon fill="white" stroke="red" points="160.5,-468 83.5,-468 83.5,-432 160.5,-432 160.5,-468"/>
<text text-anchor="middle" x="122" y="-447.5" font-family="Helvetica,sans-Serif" font-size="10.00">components</text>
</a>
</g>
</g>
<!-- dir_41286eb82ab9bcc453374927cfc10252&#45;&gt;dir_510767539347664ee40808f8989f21cf -->
<g id="edge19" class="edge">
<title>dir_41286eb82ab9bcc453374927cfc10252&#45;&gt;dir_510767539347664ee40808f8989f21cf</title>
<path fill="none" stroke="black" d="M123.51,-503.7C123.29,-495.98 123.02,-486.71 122.77,-478.11"/>
<polygon fill="black" stroke="black" points="126.27,-478 122.49,-468.1 119.28,-478.2 126.27,-478"/>
<g id="a_edge19&#45;headlabel"><a xlink:href="dir_000493_000494.xhtml" target="_top" xlink:title="9">
<text text-anchor="middle" x="129.21" y="-479.01" font-family="Helvetica,sans-Serif" font-size="10.00">9</text>
</a>
</g>
</g>
<!-- dir_2dfbec2966693e15f04cad1350ff3fc9 -->
<g id="node4" class="node">
<title>dir_2dfbec2966693e15f04cad1350ff3fc9</title>
<g id="a_node4"><a xlink:href="dir_2dfbec2966693e15f04cad1350ff3fc9.xhtml" target="_top" xlink:title="components">
<polygon fill="white" stroke="red" points="227.5,-396 150.5,-396 150.5,-360 227.5,-360 227.5,-396"/>
<text text-anchor="middle" x="189" y="-375.5" font-family="Helvetica,sans-Serif" font-size="10.00">components</text>
</a>
</g>
</g>
<!-- dir_41286eb82ab9bcc453374927cfc10252&#45;&gt;dir_2dfbec2966693e15f04cad1350ff3fc9 -->
<g id="edge17" class="edge">
<title>dir_41286eb82ab9bcc453374927cfc10252&#45;&gt;dir_2dfbec2966693e15f04cad1350ff3fc9</title>
<path fill="none" stroke="black" d="M143.16,-503.57C152.61,-493.96 163.37,-481.3 170,-468 179.67,-448.62 184.43,-424.47 186.77,-406.22"/>
<polygon fill="black" stroke="black" points="190.25,-406.56 187.88,-396.24 183.29,-405.79 190.25,-406.56"/>
<g id="a_edge17&#45;headlabel"><a xlink:href="dir_000493_000026.xhtml" target="_top" xlink:title="7">
<text text-anchor="middle" x="192.67" y="-407.95" font-family="Helvetica,sans-Serif" font-size="10.00">7</text>
</a>
</g>
</g>
<!-- dir_214608ef36d61442cb2b0c1c4e9a7def -->
<g id="node5" class="node">
<title>dir_214608ef36d61442cb2b0c1c4e9a7def</title>
<g id="a_node5"><a xlink:href="dir_214608ef36d61442cb2b0c1c4e9a7def.xhtml" target="_top" xlink:title="arm_compute">
<polygon fill="white" stroke="red" points="204,-108 120,-108 120,-72 204,-72 204,-108"/>
<text text-anchor="middle" x="162" y="-87.5" font-family="Helvetica,sans-Serif" font-size="10.00">arm_compute</text>
</a>
</g>
</g>
<!-- dir_41286eb82ab9bcc453374927cfc10252&#45;&gt;dir_214608ef36d61442cb2b0c1c4e9a7def -->
<g id="edge18" class="edge">
<title>dir_41286eb82ab9bcc453374927cfc10252&#45;&gt;dir_214608ef36d61442cb2b0c1c4e9a7def</title>
<path fill="none" stroke="black" d="M93.67,-503.96C56.96,-480.82 0,-435.79 0,-379 0,-379 0,-379 0,-305 0,-223.88 32.13,-204.66 86,-144 96.24,-132.47 109.47,-122.14 122.01,-113.73"/>
<polygon fill="black" stroke="black" points="124.04,-116.59 130.54,-108.23 120.24,-110.71 124.04,-116.59"/>
<g id="a_edge18&#45;headlabel"><a xlink:href="dir_000493_000000.xhtml" target="_top" xlink:title="24">
<text text-anchor="middle" x="122.56" y="-118.43" font-family="Helvetica,sans-Serif" font-size="10.00">24</text>
</a>
</g>
</g>
<!-- dir_fdedb0aba14d44ce9d99bc100e026e6a -->
<g id="node8" class="node">
<title>dir_fdedb0aba14d44ce9d99bc100e026e6a</title>
<g id="a_node8"><a xlink:href="dir_fdedb0aba14d44ce9d99bc100e026e6a.xhtml" target="_top" xlink:title="common">
<polygon fill="white" stroke="red" points="287.5,-180 228.5,-180 228.5,-144 287.5,-144 287.5,-180"/>
<text text-anchor="middle" x="258" y="-159.5" font-family="Helvetica,sans-Serif" font-size="10.00">common</text>
</a>
</g>
</g>
<!-- dir_41286eb82ab9bcc453374927cfc10252&#45;&gt;dir_fdedb0aba14d44ce9d99bc100e026e6a -->
<g id="edge20" class="edge">
<title>dir_41286eb82ab9bcc453374927cfc10252&#45;&gt;dir_fdedb0aba14d44ce9d99bc100e026e6a</title>
<path fill="none" stroke="black" d="M159.42,-511.5C213.39,-494.63 310,-453.96 310,-379 310,-379 310,-379 310,-305 310,-264.55 306.14,-253.51 291,-216 287.25,-206.7 281.89,-197.2 276.59,-188.86"/>
<polygon fill="black" stroke="black" points="279.38,-186.72 270.93,-180.32 273.54,-190.59 279.38,-186.72"/>
<g id="a_edge20&#45;headlabel"><a xlink:href="dir_000493_000019.xhtml" target="_top" xlink:title="1">
<text text-anchor="middle" x="283.73" y="-185.65" font-family="Helvetica,sans-Serif" font-size="10.00">1</text>
</a>
</g>
</g>
<!-- dir_6873a2afc4715a8a8ff813bcf2ca82fa -->
<g id="node3" class="node">
<title>dir_6873a2afc4715a8a8ff813bcf2ca82fa</title>
<g id="a_node3"><a xlink:href="dir_6873a2afc4715a8a8ff813bcf2ca82fa.xhtml" target="_top" xlink:title="operators">
<polygon fill="white" stroke="red" points="167.5,-324 104.5,-324 104.5,-288 167.5,-288 167.5,-324"/>
<text text-anchor="middle" x="136" y="-303.5" font-family="Helvetica,sans-Serif" font-size="10.00">operators</text>
</a>
</g>
</g>
<!-- dir_510767539347664ee40808f8989f21cf&#45;&gt;dir_6873a2afc4715a8a8ff813bcf2ca82fa -->
<g id="edge12" class="edge">
<title>dir_510767539347664ee40808f8989f21cf&#45;&gt;dir_6873a2afc4715a8a8ff813bcf2ca82fa</title>
<path fill="none" stroke="black" d="M123.69,-431.87C126.07,-407.67 130.46,-363.21 133.3,-334.39"/>
<polygon fill="black" stroke="black" points="136.81,-334.48 134.31,-324.19 129.84,-333.8 136.81,-334.48"/>
<g id="a_edge12&#45;headlabel"><a xlink:href="dir_000494_000500.xhtml" target="_top" xlink:title="1">
<text text-anchor="middle" x="139.28" y="-335.84" font-family="Helvetica,sans-Serif" font-size="10.00">1</text>
</a>
</g>
</g>
<!-- dir_510767539347664ee40808f8989f21cf&#45;&gt;dir_2dfbec2966693e15f04cad1350ff3fc9 -->
<g id="edge13" class="edge">
<title>dir_510767539347664ee40808f8989f21cf&#45;&gt;dir_2dfbec2966693e15f04cad1350ff3fc9</title>
<path fill="none" stroke="black" d="M138.56,-431.7C146.68,-423.22 156.59,-412.86 165.47,-403.58"/>
<polygon fill="black" stroke="black" points="168.24,-405.75 172.63,-396.1 163.19,-400.91 168.24,-405.75"/>
<g id="a_edge13&#45;headlabel"><a xlink:href="dir_000494_000026.xhtml" target="_top" xlink:title="5">
<text text-anchor="middle" x="167.81" y="-407.81" font-family="Helvetica,sans-Serif" font-size="10.00">5</text>
</a>
</g>
</g>
<!-- dir_510767539347664ee40808f8989f21cf&#45;&gt;dir_214608ef36d61442cb2b0c1c4e9a7def -->
<g id="edge14" class="edge">
<title>dir_510767539347664ee40808f8989f21cf&#45;&gt;dir_214608ef36d61442cb2b0c1c4e9a7def</title>
<path fill="none" stroke="black" d="M112.47,-431.66C99,-405.47 76,-353.9 76,-307 76,-307 76,-307 76,-233 76,-186.31 110.44,-141.84 135.73,-115.49"/>
<polygon fill="black" stroke="black" points="138.37,-117.8 142.91,-108.23 133.39,-112.88 138.37,-117.8"/>
<g id="a_edge14&#45;headlabel"><a xlink:href="dir_000494_000000.xhtml" target="_top" xlink:title="20">
<text text-anchor="middle" x="137.86" y="-119.85" font-family="Helvetica,sans-Serif" font-size="10.00">20</text>
</a>
</g>
</g>
<!-- dir_aebb8dcc11953d78e620bbef0b9e2183 -->
<g id="node6" class="node">
<title>dir_aebb8dcc11953d78e620bbef0b9e2183</title>
<g id="a_node6"><a xlink:href="dir_aebb8dcc11953d78e620bbef0b9e2183.xhtml" target="_top" xlink:title="core">
<polygon fill="white" stroke="red" points="282,-252 228,-252 228,-216 282,-216 282,-252"/>
<text text-anchor="middle" x="255" y="-231.5" font-family="Helvetica,sans-Serif" font-size="10.00">core</text>
</a>
</g>
</g>
<!-- dir_510767539347664ee40808f8989f21cf&#45;&gt;dir_aebb8dcc11953d78e620bbef0b9e2183 -->
<g id="edge15" class="edge">
<title>dir_510767539347664ee40808f8989f21cf&#45;&gt;dir_aebb8dcc11953d78e620bbef0b9e2183</title>
<path fill="none" stroke="black" d="M160.62,-441.51C186.52,-434.37 219.05,-420.87 237,-396 265.44,-356.59 263.69,-297.03 259.54,-262.48"/>
<polygon fill="black" stroke="black" points="262.96,-261.63 258.15,-252.19 256.03,-262.57 262.96,-261.63"/>
<g id="a_edge15&#45;headlabel"><a xlink:href="dir_000494_000020.xhtml" target="_top" xlink:title="9">
<text text-anchor="middle" x="266.26" y="-262.31" font-family="Helvetica,sans-Serif" font-size="10.00">9</text>
</a>
</g>
</g>
<!-- dir_5815af820a9cc9481f1d0990a0d60286 -->
<g id="node7" class="node">
<title>dir_5815af820a9cc9481f1d0990a0d60286</title>
<g id="a_node7"><a xlink:href="dir_5815af820a9cc9481f1d0990a0d60286.xhtml" target="_top" xlink:title="support">
<polygon fill="none" stroke="black" points="189,-36 135,-36 135,0 189,0 189,-36"/>
<text text-anchor="middle" x="162" y="-15.5" font-family="Helvetica,sans-Serif" font-size="10.00">support</text>
</a>
</g>
</g>
<!-- dir_510767539347664ee40808f8989f21cf&#45;&gt;dir_5815af820a9cc9481f1d0990a0d60286 -->
<g id="edge16" class="edge">
<title>dir_510767539347664ee40808f8989f21cf&#45;&gt;dir_5815af820a9cc9481f1d0990a0d60286</title>
<path fill="none" stroke="black" d="M104.51,-431.97C95.66,-422.28 85.63,-409.42 80,-396 48.9,-321.86 49.12,-295.36 62,-216 72.83,-149.27 75.65,-129.63 111,-72 117.35,-61.64 126.03,-51.67 134.42,-43.22"/>
<polygon fill="black" stroke="black" points="136.9,-45.68 141.66,-36.21 132.04,-40.65 136.9,-45.68"/>
<g id="a_edge16&#45;headlabel"><a xlink:href="dir_000494_000032.xhtml" target="_top" xlink:title="1">
<text text-anchor="middle" x="136.3" y="-47.72" font-family="Helvetica,sans-Serif" font-size="10.00">1</text>
</a>
</g>
</g>
<!-- dir_6873a2afc4715a8a8ff813bcf2ca82fa&#45;&gt;dir_2dfbec2966693e15f04cad1350ff3fc9 -->
<g id="edge1" class="edge">
<title>dir_6873a2afc4715a8a8ff813bcf2ca82fa&#45;&gt;dir_2dfbec2966693e15f04cad1350ff3fc9</title>
<path fill="none" stroke="black" d="M154.85,-324.1C161.91,-332.3 169.68,-342.28 176.12,-351.36"/>
<polygon fill="black" stroke="black" points="173.28,-353.42 181.81,-359.7 179.06,-349.47 173.28,-353.42"/>
<g id="a_edge1&#45;headlabel"><a xlink:href="dir_000500_000026.xhtml" target="_top" xlink:title="13">
<text text-anchor="middle" x="168.91" y="-349.55" font-family="Helvetica,sans-Serif" font-size="10.00">13</text>
</a>
</g>
</g>
<!-- dir_6873a2afc4715a8a8ff813bcf2ca82fa&#45;&gt;dir_214608ef36d61442cb2b0c1c4e9a7def -->
<g id="edge2" class="edge">
<title>dir_6873a2afc4715a8a8ff813bcf2ca82fa&#45;&gt;dir_214608ef36d61442cb2b0c1c4e9a7def</title>
<path fill="none" stroke="black" d="M136.24,-287.96C136.89,-258.44 139.28,-195.97 148,-144 149.46,-135.33 151.69,-126.01 153.94,-117.64"/>
<polygon fill="black" stroke="black" points="157.31,-118.59 156.65,-108.01 150.57,-116.69 157.31,-118.59"/>
<g id="a_edge2&#45;headlabel"><a xlink:href="dir_000500_000000.xhtml" target="_top" xlink:title="37">
<text text-anchor="middle" x="159.07" y="-120.32" font-family="Helvetica,sans-Serif" font-size="10.00">37</text>
</a>
</g>
</g>
<!-- dir_6873a2afc4715a8a8ff813bcf2ca82fa&#45;&gt;dir_aebb8dcc11953d78e620bbef0b9e2183 -->
<g id="edge3" class="edge">
<title>dir_6873a2afc4715a8a8ff813bcf2ca82fa&#45;&gt;dir_aebb8dcc11953d78e620bbef0b9e2183</title>
<path fill="none" stroke="black" d="M165.11,-287.88C181.4,-278.29 201.84,-266.27 219.12,-256.11"/>
<polygon fill="black" stroke="black" points="220.98,-259.07 227.82,-250.99 217.43,-253.04 220.98,-259.07"/>
<g id="a_edge3&#45;headlabel"><a xlink:href="dir_000500_000020.xhtml" target="_top" xlink:title="12">
<text text-anchor="middle" x="219.32" y="-260.84" font-family="Helvetica,sans-Serif" font-size="10.00">12</text>
</a>
</g>
</g>
<!-- dir_6873a2afc4715a8a8ff813bcf2ca82fa&#45;&gt;dir_fdedb0aba14d44ce9d99bc100e026e6a -->
<g id="edge4" class="edge">
<title>dir_6873a2afc4715a8a8ff813bcf2ca82fa&#45;&gt;dir_fdedb0aba14d44ce9d99bc100e026e6a</title>
<path fill="none" stroke="black" d="M150.72,-287.87C172.06,-263.03 211.74,-216.85 236.4,-188.14"/>
<polygon fill="black" stroke="black" points="239.37,-190.06 243.23,-180.19 234.06,-185.49 239.37,-190.06"/>
<g id="a_edge4&#45;headlabel"><a xlink:href="dir_000500_000019.xhtml" target="_top" xlink:title="12">
<text text-anchor="middle" x="239.18" y="-192.13" font-family="Helvetica,sans-Serif" font-size="10.00">12</text>
</a>
</g>
</g>
<!-- dir_2dfbec2966693e15f04cad1350ff3fc9&#45;&gt;dir_6873a2afc4715a8a8ff813bcf2ca82fa -->
<g id="edge5" class="edge">
<title>dir_2dfbec2966693e15f04cad1350ff3fc9&#45;&gt;dir_6873a2afc4715a8a8ff813bcf2ca82fa</title>
<path fill="none" stroke="black" d="M169.98,-359.7C162.91,-351.47 155.14,-341.48 148.73,-332.42"/>
<polygon fill="black" stroke="black" points="151.58,-330.39 143.06,-324.1 145.8,-334.34 151.58,-330.39"/>
<g id="a_edge5&#45;headlabel"><a xlink:href="dir_000026_000500.xhtml" target="_top" xlink:title="1">
<text text-anchor="middle" x="155.95" y="-329.26" font-family="Helvetica,sans-Serif" font-size="10.00">1</text>
</a>
</g>
</g>
<!-- dir_2dfbec2966693e15f04cad1350ff3fc9&#45;&gt;dir_214608ef36d61442cb2b0c1c4e9a7def -->
<g id="edge6" class="edge">
<title>dir_2dfbec2966693e15f04cad1350ff3fc9&#45;&gt;dir_214608ef36d61442cb2b0c1c4e9a7def</title>
<path fill="none" stroke="black" d="M187.39,-359.97C182.88,-312.19 170.08,-176.62 164.57,-118.27"/>
<polygon fill="black" stroke="black" points="168.06,-117.93 163.63,-108.31 161.09,-118.59 168.06,-117.93"/>
<g id="a_edge6&#45;headlabel"><a xlink:href="dir_000026_000000.xhtml" target="_top" xlink:title="32">
<text text-anchor="middle" x="171.22" y="-118.75" font-family="Helvetica,sans-Serif" font-size="10.00">32</text>
</a>
</g>
</g>
<!-- dir_2dfbec2966693e15f04cad1350ff3fc9&#45;&gt;dir_aebb8dcc11953d78e620bbef0b9e2183 -->
<g id="edge7" class="edge">
<title>dir_2dfbec2966693e15f04cad1350ff3fc9&#45;&gt;dir_aebb8dcc11953d78e620bbef0b9e2183</title>
<path fill="none" stroke="black" d="M196.96,-359.87C208.36,-335.35 229.42,-290.03 242.8,-261.26"/>
<polygon fill="black" stroke="black" points="245.97,-262.73 247.01,-252.19 239.62,-259.78 245.97,-262.73"/>
<g id="a_edge7&#45;headlabel"><a xlink:href="dir_000026_000020.xhtml" target="_top" xlink:title="11">
<text text-anchor="middle" x="247.03" y="-264.69" font-family="Helvetica,sans-Serif" font-size="10.00">11</text>
</a>
</g>
</g>
<!-- dir_214608ef36d61442cb2b0c1c4e9a7def&#45;&gt;dir_5815af820a9cc9481f1d0990a0d60286 -->
<g id="edge8" class="edge">
<title>dir_214608ef36d61442cb2b0c1c4e9a7def&#45;&gt;dir_5815af820a9cc9481f1d0990a0d60286</title>
<path fill="none" stroke="black" d="M156.08,-71.7C155.29,-63.98 155.06,-54.71 155.4,-46.11"/>
<polygon fill="black" stroke="black" points="158.9,-46.32 156.1,-36.1 151.92,-45.84 158.9,-46.32"/>
<g id="a_edge8&#45;headlabel"><a xlink:href="dir_000000_000032.xhtml" target="_top" xlink:title="16">
<text text-anchor="middle" x="161.48" y="-47.61" font-family="Helvetica,sans-Serif" font-size="10.00">16</text>
</a>
</g>
</g>
<!-- dir_aebb8dcc11953d78e620bbef0b9e2183&#45;&gt;dir_214608ef36d61442cb2b0c1c4e9a7def -->
<g id="edge9" class="edge">
<title>dir_aebb8dcc11953d78e620bbef0b9e2183&#45;&gt;dir_214608ef36d61442cb2b0c1c4e9a7def</title>
<path fill="none" stroke="black" d="M243.62,-215.83C236.77,-205.47 227.86,-191.99 220,-180 206.04,-158.73 190.29,-134.54 178.72,-116.75"/>
<polygon fill="black" stroke="black" points="181.47,-114.56 173.09,-108.08 175.6,-118.37 181.47,-114.56"/>
<g id="a_edge9&#45;headlabel"><a xlink:href="dir_000020_000000.xhtml" target="_top" xlink:title="678">
<text text-anchor="middle" x="185.81" y="-113.53" font-family="Helvetica,sans-Serif" font-size="10.00">678</text>
</a>
</g>
</g>
<!-- dir_aebb8dcc11953d78e620bbef0b9e2183&#45;&gt;dir_5815af820a9cc9481f1d0990a0d60286 -->
<g id="edge10" class="edge">
<title>dir_aebb8dcc11953d78e620bbef0b9e2183&#45;&gt;dir_5815af820a9cc9481f1d0990a0d60286</title>
<path fill="none" stroke="black" d="M273.6,-215.76C282.53,-206.2 292.29,-193.53 297,-180 302.26,-164.89 302.45,-159.04 297,-144 279.68,-96.17 231.66,-59.47 197.84,-38.57"/>
<polygon fill="black" stroke="black" points="199.52,-35.49 189.15,-33.34 195.92,-41.49 199.52,-35.49"/>
<g id="a_edge10&#45;headlabel"><a xlink:href="dir_000020_000032.xhtml" target="_top" xlink:title="56">
<text text-anchor="middle" x="204.06" y="-32.41" font-family="Helvetica,sans-Serif" font-size="10.00">56</text>
</a>
</g>
</g>
<!-- dir_aebb8dcc11953d78e620bbef0b9e2183&#45;&gt;dir_fdedb0aba14d44ce9d99bc100e026e6a -->
<g id="edge11" class="edge">
<title>dir_aebb8dcc11953d78e620bbef0b9e2183&#45;&gt;dir_fdedb0aba14d44ce9d99bc100e026e6a</title>
<path fill="none" stroke="black" d="M255.74,-215.7C256.07,-207.98 256.47,-198.71 256.84,-190.11"/>
<polygon fill="black" stroke="black" points="260.34,-190.25 257.27,-180.1 253.34,-189.95 260.34,-190.25"/>
<g id="a_edge11&#45;headlabel"><a xlink:href="dir_000020_000019.xhtml" target="_top" xlink:title="5">
<text text-anchor="middle" x="263.02" y="-191.46" font-family="Helvetica,sans-Serif" font-size="10.00">5</text>
</a>
</g>
</g>
<!-- dir_5815af820a9cc9481f1d0990a0d60286&#45;&gt;dir_214608ef36d61442cb2b0c1c4e9a7def -->
<g id="edge21" class="edge">
<title>dir_5815af820a9cc9481f1d0990a0d60286&#45;&gt;dir_214608ef36d61442cb2b0c1c4e9a7def</title>
<path fill="none" stroke="black" d="M167.9,-36.1C168.7,-43.79 168.94,-53.05 168.6,-61.67"/>
<polygon fill="black" stroke="black" points="165.11,-61.48 167.92,-71.7 172.09,-61.96 165.11,-61.48"/>
<g id="a_edge21&#45;headlabel"><a xlink:href="dir_000032_000000.xhtml" target="_top" xlink:title="6">
<text text-anchor="middle" x="162.52" y="-55.2" font-family="Helvetica,sans-Serif" font-size="10.00">6</text>
</a>
</g>
</g>
<!-- dir_fdedb0aba14d44ce9d99bc100e026e6a&#45;&gt;dir_214608ef36d61442cb2b0c1c4e9a7def -->
<g id="edge22" class="edge">
<title>dir_fdedb0aba14d44ce9d99bc100e026e6a&#45;&gt;dir_214608ef36d61442cb2b0c1c4e9a7def</title>
<path fill="none" stroke="black" d="M234.27,-143.7C222.06,-134.8 207.01,-123.82 193.82,-114.2"/>
<polygon fill="black" stroke="black" points="195.6,-111.17 185.46,-108.1 191.48,-116.82 195.6,-111.17"/>
<g id="a_edge22&#45;headlabel"><a xlink:href="dir_000019_000000.xhtml" target="_top" xlink:title="17">
<text text-anchor="middle" x="200.18" y="-108.49" font-family="Helvetica,sans-Serif" font-size="10.00">17</text>
</a>
</g>
</g>
<!-- dir_fdedb0aba14d44ce9d99bc100e026e6a&#45;&gt;dir_5815af820a9cc9481f1d0990a0d60286 -->
<g id="edge23" class="edge">
<title>dir_fdedb0aba14d44ce9d99bc100e026e6a&#45;&gt;dir_5815af820a9cc9481f1d0990a0d60286</title>
<path fill="none" stroke="black" d="M251.11,-143.75C243.28,-125.17 229.43,-95.16 213,-72 205.91,-62.01 196.98,-52.07 188.57,-43.54"/>
<polygon fill="black" stroke="black" points="190.96,-40.98 181.39,-36.44 186.04,-45.96 190.96,-40.98"/>
<g id="a_edge23&#45;headlabel"><a xlink:href="dir_000019_000032.xhtml" target="_top" xlink:title="2">
<text text-anchor="middle" x="195.51" y="-38.98" font-family="Helvetica,sans-Serif" font-size="10.00">2</text>
</a>
</g>
</g>
</g>
</svg>
