<?xml version="1.0" encoding="UTF-8" standalone="no"?>
<!DOCTYPE svg PUBLIC "-//W3C//DTD SVG 1.1//EN"
 "http://www.w3.org/Graphics/SVG/1.1/DTD/svg11.dtd">
<!-- Generated by graphviz version 2.40.1 (20161225.0304)
 -->
<!-- Title: src/core/CL/kernels Pages: 1 -->
<svg width="219pt" height="367pt"
 viewBox="0.00 0.00 218.72 367.00" xmlns="http://www.w3.org/2000/svg" xmlns:xlink="http://www.w3.org/1999/xlink">
<g id="graph0" class="graph" transform="scale(1 1) rotate(0) translate(4 363)">
<title>src/core/CL/kernels</title>
<polygon fill="#ffffff" stroke="transparent" points="-4,4 -4,-363 214.7166,-363 214.7166,4 -4,4"/>
<g id="clust1" class="cluster">
<title>clusterdir_8c278f79c760e5c5fbd911f9870614c1</title>
<g id="a_clust1"><a xlink:href="dir_8c278f79c760e5c5fbd911f9870614c1.xhtml" target="_top" xlink:title="CL">
<polygon fill="#ddddee" stroke="#000000" points="21.7166,-280 21.7166,-351 91.7166,-351 91.7166,-280 21.7166,-280"/>
<text text-anchor="middle" x="56.7166" y="-339" font-family="Helvetica,sans-Serif" font-size="10.00" fill="#000000">CL</text>
</a>
</g>
</g>
<!-- dir_8a6a287e420ec4de95804825506d2fde -->
<g id="node1" class="node">
<title>dir_8a6a287e420ec4de95804825506d2fde</title>
<g id="a_node1"><a xlink:href="dir_8a6a287e420ec4de95804825506d2fde.xhtml" target="_top" xlink:title="kernels">
<polygon fill="#eeeeff" stroke="#000000" points="83.7166,-324 29.7166,-324 29.7166,-288 83.7166,-288 83.7166,-324"/>
<text text-anchor="middle" x="56.7166" y="-303.5" font-family="Helvetica,sans-Serif" font-size="10.00" fill="#000000">kernels</text>
</a>
</g>
</g>
<!-- dir_cf895c1ed808af158264b2f3d8d7f8f0 -->
<g id="node2" class="node">
<title>dir_cf895c1ed808af158264b2f3d8d7f8f0</title>
<g id="a_node2"><a xlink:href="dir_cf895c1ed808af158264b2f3d8d7f8f0.xhtml" target="_top" xlink:title="gpu">
<polygon fill="#ffffff" stroke="#ff0000" points="83.7166,-252 29.7166,-252 29.7166,-216 83.7166,-216 83.7166,-252"/>
<text text-anchor="middle" x="56.7166" y="-231.5" font-family="Helvetica,sans-Serif" font-size="10.00" fill="#000000">gpu</text>
</a>
</g>
</g>
<!-- dir_8a6a287e420ec4de95804825506d2fde&#45;&gt;dir_cf895c1ed808af158264b2f3d8d7f8f0 -->
<g id="edge1" class="edge">
<title>dir_8a6a287e420ec4de95804825506d2fde&#45;&gt;dir_cf895c1ed808af158264b2f3d8d7f8f0</title>
<path fill="none" stroke="#000000" d="M56.7166,-287.8314C56.7166,-280.131 56.7166,-270.9743 56.7166,-262.4166"/>
<polygon fill="#000000" stroke="#000000" points="60.2167,-262.4132 56.7166,-252.4133 53.2167,-262.4133 60.2167,-262.4132"/>
<g id="a_edge1&#45;headlabel"><a xlink:href="dir_000094_000004.xhtml" target="_top" xlink:title="1">
<text text-anchor="middle" x="63.0558" y="-263.5079" font-family="Helvetica,sans-Serif" font-size="10.00" fill="#000000">1</text>
</a>
</g>
</g>
<!-- dir_707aa52d67938117542c6646238d6f70 -->
<g id="node3" class="node">
<title>dir_707aa52d67938117542c6646238d6f70</title>
<g id="a_node3"><a xlink:href="dir_707aa52d67938117542c6646238d6f70.xhtml" target="_top" xlink:title="helpers">
<polygon fill="none" stroke="#000000" points="138.7166,-180 84.7166,-180 84.7166,-144 138.7166,-144 138.7166,-180"/>
<text text-anchor="middle" x="111.7166" y="-159.5" font-family="Helvetica,sans-Serif" font-size="10.00" fill="#000000">helpers</text>
</a>
</g>
</g>
<!-- dir_8a6a287e420ec4de95804825506d2fde&#45;&gt;dir_707aa52d67938117542c6646238d6f70 -->
<g id="edge2" class="edge">
<title>dir_8a6a287e420ec4de95804825506d2fde&#45;&gt;dir_707aa52d67938117542c6646238d6f70</title>
<path fill="none" stroke="#000000" d="M71.6018,-287.5185C78.9627,-277.5296 87.3885,-264.6716 92.7166,-252 101.0471,-232.1876 105.8699,-208.3321 108.5706,-190.1605"/>
<polygon fill="#000000" stroke="#000000" points="112.0468,-190.5721 109.9261,-180.1917 105.1106,-189.6289 112.0468,-190.5721"/>
<g id="a_edge2&#45;headlabel"><a xlink:href="dir_000094_000034.xhtml" target="_top" xlink:title="77">
<text text-anchor="middle" x="114.376" y="-192.0164" font-family="Helvetica,sans-Serif" font-size="10.00" fill="#000000">77</text>
</a>
</g>
</g>
<!-- dir_214608ef36d61442cb2b0c1c4e9a7def -->
<g id="node4" class="node">
<title>dir_214608ef36d61442cb2b0c1c4e9a7def</title>
<g id="a_node4"><a xlink:href="dir_214608ef36d61442cb2b0c1c4e9a7def.xhtml" target="_top" xlink:title="arm_compute">
<polygon fill="#ffffff" stroke="#ff0000" points="130.7166,-108 46.7166,-108 46.7166,-72 130.7166,-72 130.7166,-108"/>
<text text-anchor="middle" x="88.7166" y="-87.5" font-family="Helvetica,sans-Serif" font-size="10.00" fill="#000000">arm_compute</text>
</a>
</g>
</g>
<!-- dir_8a6a287e420ec4de95804825506d2fde&#45;&gt;dir_214608ef36d61442cb2b0c1c4e9a7def -->
<g id="edge3" class="edge">
<title>dir_8a6a287e420ec4de95804825506d2fde&#45;&gt;dir_214608ef36d61442cb2b0c1c4e9a7def</title>
<path fill="none" stroke="#000000" d="M40.7261,-287.9169C33.0627,-278.0371 24.7,-265.1563 20.7166,-252 16.08,-236.6865 16.7977,-231.5127 20.7166,-216 30.043,-179.0815 52.5564,-141.2295 69.1355,-116.7806"/>
<polygon fill="#000000" stroke="#000000" points="72.1199,-118.6188 74.9396,-108.4061 66.3666,-114.6313 72.1199,-118.6188"/>
<g id="a_edge3&#45;headlabel"><a xlink:href="dir_000094_000000.xhtml" target="_top" xlink:title="228">
<text text-anchor="middle" x="72.4059" y="-120.6905" font-family="Helvetica,sans-Serif" font-size="10.00" fill="#000000">228</text>
</a>
</g>
</g>
<!-- dir_a8053b3d69cfefb2b2e6ec7bf9dd5c1a -->
<g id="node5" class="node">
<title>dir_a8053b3d69cfefb2b2e6ec7bf9dd5c1a</title>
<g id="a_node5"><a xlink:href="dir_a8053b3d69cfefb2b2e6ec7bf9dd5c1a.xhtml" target="_top" xlink:title="utils">
<polygon fill="#ffffff" stroke="#ff0000" points="210.7166,-180 156.7166,-180 156.7166,-144 210.7166,-144 210.7166,-180"/>
<text text-anchor="middle" x="183.7166" y="-159.5" font-family="Helvetica,sans-Serif" font-size="10.00" fill="#000000">utils</text>
</a>
</g>
</g>
<!-- dir_8a6a287e420ec4de95804825506d2fde&#45;&gt;dir_a8053b3d69cfefb2b2e6ec7bf9dd5c1a -->
<g id="edge4" class="edge">
<title>dir_8a6a287e420ec4de95804825506d2fde&#45;&gt;dir_a8053b3d69cfefb2b2e6ec7bf9dd5c1a</title>
<path fill="none" stroke="#000000" d="M76.7998,-287.8827C87.7689,-277.6834 101.3859,-264.5154 112.7166,-252 131.1972,-231.5869 150.4409,-206.9496 164.2246,-188.617"/>
<polygon fill="#000000" stroke="#000000" points="167.3518,-190.2783 170.5252,-180.1699 161.7407,-186.0931 167.3518,-190.2783"/>
<g id="a_edge4&#45;headlabel"><a xlink:href="dir_000094_000050.xhtml" target="_top" xlink:title="1">
<text text-anchor="middle" x="167.4785" y="-192.3572" font-family="Helvetica,sans-Serif" font-size="10.00" fill="#000000">1</text>
</a>
</g>
</g>
<!-- dir_5815af820a9cc9481f1d0990a0d60286 -->
<g id="node6" class="node">
<title>dir_5815af820a9cc9481f1d0990a0d60286</title>
<g id="a_node6"><a xlink:href="dir_5815af820a9cc9481f1d0990a0d60286.xhtml" target="_top" xlink:title="support">
<polygon fill="none" stroke="#000000" points="115.7166,-36 61.7166,-36 61.7166,0 115.7166,0 115.7166,-36"/>
<text text-anchor="middle" x="88.7166" y="-15.5" font-family="Helvetica,sans-Serif" font-size="10.00" fill="#000000">support</text>
</a>
</g>
</g>
<!-- dir_8a6a287e420ec4de95804825506d2fde&#45;&gt;dir_5815af820a9cc9481f1d0990a0d60286 -->
<g id="edge5" class="edge">
<title>dir_8a6a287e420ec4de95804825506d2fde&#45;&gt;dir_5815af820a9cc9481f1d0990a0d60286</title>
<path fill="none" stroke="#000000" d="M37.221,-287.9663C28.2062,-278.2894 18.4614,-265.5757 13.7166,-252 -.7334,-210.6566 -12.5465,-148.8859 26.7166,-72 32.8635,-59.9628 42.9453,-49.4426 53.2101,-40.9639"/>
<polygon fill="#000000" stroke="#000000" points="55.6479,-43.5028 61.4099,-34.6118 51.361,-37.969 55.6479,-43.5028"/>
<g id="a_edge5&#45;headlabel"><a xlink:href="dir_000094_000032.xhtml" target="_top" xlink:title="41">
<text text-anchor="middle" x="54.545" y="-45.4487" font-family="Helvetica,sans-Serif" font-size="10.00" fill="#000000">41</text>
</a>
</g>
</g>
<!-- dir_cf895c1ed808af158264b2f3d8d7f8f0&#45;&gt;dir_707aa52d67938117542c6646238d6f70 -->
<g id="edge6" class="edge">
<title>dir_cf895c1ed808af158264b2f3d8d7f8f0&#45;&gt;dir_707aa52d67938117542c6646238d6f70</title>
<path fill="none" stroke="#000000" d="M70.5954,-215.8314C76.9301,-207.5386 84.555,-197.557 91.5092,-188.4533"/>
<polygon fill="#000000" stroke="#000000" points="94.3618,-190.4847 97.6509,-180.4133 88.7991,-186.2353 94.3618,-190.4847"/>
<g id="a_edge6&#45;headlabel"><a xlink:href="dir_000004_000034.xhtml" target="_top" xlink:title="108">
<text text-anchor="middle" x="94.436" y="-192.5647" font-family="Helvetica,sans-Serif" font-size="10.00" fill="#000000">108</text>
</a>
</g>
</g>
<!-- dir_cf895c1ed808af158264b2f3d8d7f8f0&#45;&gt;dir_214608ef36d61442cb2b0c1c4e9a7def -->
<g id="edge7" class="edge">
<title>dir_cf895c1ed808af158264b2f3d8d7f8f0&#45;&gt;dir_214608ef36d61442cb2b0c1c4e9a7def</title>
<path fill="none" stroke="#000000" d="M60.4233,-215.6956C64.1477,-197.4872 70.1221,-168.7674 75.7166,-144 77.5988,-135.667 79.7352,-126.6343 81.7244,-118.3842"/>
<polygon fill="#000000" stroke="#000000" points="85.1747,-119.008 84.1352,-108.4643 78.3726,-117.3549 85.1747,-119.008"/>
<g id="a_edge7&#45;headlabel"><a xlink:href="dir_000004_000000.xhtml" target="_top" xlink:title="488">
<text text-anchor="middle" x="87.0849" y="-120.6714" font-family="Helvetica,sans-Serif" font-size="10.00" fill="#000000">488</text>
</a>
</g>
</g>
<!-- dir_cf895c1ed808af158264b2f3d8d7f8f0&#45;&gt;dir_a8053b3d69cfefb2b2e6ec7bf9dd5c1a -->
<g id="edge8" class="edge">
<title>dir_cf895c1ed808af158264b2f3d8d7f8f0&#45;&gt;dir_a8053b3d69cfefb2b2e6ec7bf9dd5c1a</title>
<path fill="none" stroke="#000000" d="M83.9613,-218.5542C102.5433,-208.0195 127.3546,-193.9532 147.5837,-182.4848"/>
<polygon fill="#000000" stroke="#000000" points="149.5439,-185.3969 156.5169,-177.4203 146.0915,-179.3074 149.5439,-185.3969"/>
<g id="a_edge8&#45;headlabel"><a xlink:href="dir_000004_000050.xhtml" target="_top" xlink:title="8">
<text text-anchor="middle" x="147.8171" y="-187.1396" font-family="Helvetica,sans-Serif" font-size="10.00" fill="#000000">8</text>
</a>
</g>
</g>
<!-- dir_cf895c1ed808af158264b2f3d8d7f8f0&#45;&gt;dir_5815af820a9cc9481f1d0990a0d60286 -->
<g id="edge9" class="edge">
<title>dir_cf895c1ed808af158264b2f3d8d7f8f0&#45;&gt;dir_5815af820a9cc9481f1d0990a0d60286</title>
<path fill="none" stroke="#000000" d="M49.056,-215.762C37.3085,-184.9668 18.1526,-121.2078 37.7166,-72 41.9842,-61.2659 49.5097,-51.4321 57.4905,-43.1828"/>
<polygon fill="#000000" stroke="#000000" points="60.0967,-45.5319 64.8675,-36.072 55.2387,-40.4921 60.0967,-45.5319"/>
<g id="a_edge9&#45;headlabel"><a xlink:href="dir_000004_000032.xhtml" target="_top" xlink:title="107">
<text text-anchor="middle" x="59.4791" y="-47.5708" font-family="Helvetica,sans-Serif" font-size="10.00" fill="#000000">107</text>
</a>
</g>
</g>
<!-- dir_707aa52d67938117542c6646238d6f70&#45;&gt;dir_214608ef36d61442cb2b0c1c4e9a7def -->
<g id="edge10" class="edge">
<title>dir_707aa52d67938117542c6646238d6f70&#45;&gt;dir_214608ef36d61442cb2b0c1c4e9a7def</title>
<path fill="none" stroke="#000000" d="M105.9127,-143.8314C103.4258,-136.0463 100.4635,-126.7729 97.7041,-118.1347"/>
<polygon fill="#000000" stroke="#000000" points="100.9756,-116.874 94.5986,-108.4133 94.3076,-119.0041 100.9756,-116.874"/>
<g id="a_edge10&#45;headlabel"><a xlink:href="dir_000034_000000.xhtml" target="_top" xlink:title="15">
<text text-anchor="middle" x="104.774" y="-116.9342" font-family="Helvetica,sans-Serif" font-size="10.00" fill="#000000">15</text>
</a>
</g>
</g>
<!-- dir_214608ef36d61442cb2b0c1c4e9a7def&#45;&gt;dir_5815af820a9cc9481f1d0990a0d60286 -->
<g id="edge11" class="edge">
<title>dir_214608ef36d61442cb2b0c1c4e9a7def&#45;&gt;dir_5815af820a9cc9481f1d0990a0d60286</title>
<path fill="none" stroke="#000000" d="M82.7642,-71.8314C82.0137,-64.131 81.7928,-54.9743 82.1015,-46.4166"/>
<polygon fill="#000000" stroke="#000000" points="85.5958,-46.6161 82.7406,-36.4133 78.61,-46.1697 85.5958,-46.6161"/>
<g id="a_edge11&#45;headlabel"><a xlink:href="dir_000000_000032.xhtml" target="_top" xlink:title="18">
<text text-anchor="middle" x="88.2002" y="-47.8844" font-family="Helvetica,sans-Serif" font-size="10.00" fill="#000000">18</text>
</a>
</g>
</g>
<!-- dir_a8053b3d69cfefb2b2e6ec7bf9dd5c1a&#45;&gt;dir_214608ef36d61442cb2b0c1c4e9a7def -->
<g id="edge12" class="edge">
<title>dir_a8053b3d69cfefb2b2e6ec7bf9dd5c1a&#45;&gt;dir_214608ef36d61442cb2b0c1c4e9a7def</title>
<path fill="none" stroke="#000000" d="M159.7441,-143.8314C147.9305,-134.8779 133.5194,-123.9558 120.7731,-114.2955"/>
<polygon fill="#000000" stroke="#000000" points="122.7652,-111.4137 112.6814,-108.1628 118.537,-116.9925 122.7652,-111.4137"/>
<g id="a_edge12&#45;headlabel"><a xlink:href="dir_000050_000000.xhtml" target="_top" xlink:title="18">
<text text-anchor="middle" x="127.345" y="-108.822" font-family="Helvetica,sans-Serif" font-size="10.00" fill="#000000">18</text>
</a>
</g>
</g>
<!-- dir_a8053b3d69cfefb2b2e6ec7bf9dd5c1a&#45;&gt;dir_5815af820a9cc9481f1d0990a0d60286 -->
<g id="edge13" class="edge">
<title>dir_a8053b3d69cfefb2b2e6ec7bf9dd5c1a&#45;&gt;dir_5815af820a9cc9481f1d0990a0d60286</title>
<path fill="none" stroke="#000000" d="M176.7652,-143.8766C169.1182,-125.0503 155.7598,-95.162 139.7166,-72 132.7882,-61.9973 124.0384,-52.032 115.7513,-43.4355"/>
<polygon fill="#000000" stroke="#000000" points="118.1709,-40.9048 108.6452,-36.2668 113.1995,-45.8328 118.1709,-40.9048"/>
<g id="a_edge13&#45;headlabel"><a xlink:href="dir_000050_000032.xhtml" target="_top" xlink:title="3">
<text text-anchor="middle" x="122.7179" y="-38.9588" font-family="Helvetica,sans-Serif" font-size="10.00" fill="#000000">3</text>
</a>
</g>
</g>
<!-- dir_5815af820a9cc9481f1d0990a0d60286&#45;&gt;dir_214608ef36d61442cb2b0c1c4e9a7def -->
<g id="edge14" class="edge">
<title>dir_5815af820a9cc9481f1d0990a0d60286&#45;&gt;dir_214608ef36d61442cb2b0c1c4e9a7def</title>
<path fill="none" stroke="#000000" d="M94.6926,-36.4133C95.4237,-44.0593 95.6368,-53.1084 95.332,-61.5726"/>
<polygon fill="#000000" stroke="#000000" points="91.8214,-61.6264 94.669,-71.8314 98.8068,-62.078 91.8214,-61.6264"/>
<g id="a_edge14&#45;headlabel"><a xlink:href="dir_000032_000000.xhtml" target="_top" xlink:title="6">
<text text-anchor="middle" x="89.2198" y="-55.3562" font-family="Helvetica,sans-Serif" font-size="10.00" fill="#000000">6</text>
</a>
</g>
</g>
</g>
</svg>
