<?xml version="1.0" encoding="UTF-8" standalone="no"?>
<!DOCTYPE svg PUBLIC "-//W3C//DTD SVG 1.1//EN"
 "http://www.w3.org/Graphics/SVG/1.1/DTD/svg11.dtd">
<!-- Generated by graphviz version 2.40.1 (20161225.0304)
 -->
<!-- Title: arm_compute/dynamic_fusion/sketch/attributes Pages: 1 -->
<svg width="104pt" height="151pt"
 viewBox="0.00 0.00 104.00 151.00" xmlns="http://www.w3.org/2000/svg" xmlns:xlink="http://www.w3.org/1999/xlink">
<g id="graph0" class="graph" transform="scale(1 1) rotate(0) translate(4 147)">
<title>arm_compute/dynamic_fusion/sketch/attributes</title>
<polygon fill="#ffffff" stroke="transparent" points="-4,4 -4,-147 100,-147 100,4 -4,4"/>
<g id="clust1" class="cluster">
<title>clusterdir_3259c0fb095abc99930fe6844d6dd442</title>
<g id="a_clust1"><a xlink:href="dir_3259c0fb095abc99930fe6844d6dd442.xhtml" target="_top" xlink:title="sketch">
<polygon fill="#ddddee" stroke="#000000" points="8,-64 8,-135 88,-135 88,-64 8,-64"/>
<text text-anchor="middle" x="48" y="-123" font-family="Helvetica,sans-Serif" font-size="10.00" fill="#000000">sketch</text>
</a>
</g>
</g>
<!-- dir_fb60af501ba790f5a2523771a799cc00 -->
<g id="node1" class="node">
<title>dir_fb60af501ba790f5a2523771a799cc00</title>
<g id="a_node1"><a xlink:href="dir_fb60af501ba790f5a2523771a799cc00.xhtml" target="_top" xlink:title="attributes">
<polygon fill="#eeeeff" stroke="#000000" points="80,-108 16,-108 16,-72 80,-72 80,-108"/>
<text text-anchor="middle" x="48" y="-87.5" font-family="Helvetica,sans-Serif" font-size="10.00" fill="#000000">attributes</text>
</a>
</g>
</g>
<!-- dir_1fb090f0c6070330bfaccc4236d3ca0d -->
<g id="node2" class="node">
<title>dir_1fb090f0c6070330bfaccc4236d3ca0d</title>
<g id="a_node2"><a xlink:href="dir_1fb090f0c6070330bfaccc4236d3ca0d.xhtml" target="_top" xlink:title="core">
<polygon fill="#ffffff" stroke="#ff0000" points="75,-36 21,-36 21,0 75,0 75,-36"/>
<text text-anchor="middle" x="48" y="-15.5" font-family="Helvetica,sans-Serif" font-size="10.00" fill="#000000">core</text>
</a>
</g>
</g>
<!-- dir_fb60af501ba790f5a2523771a799cc00&#45;&gt;dir_1fb090f0c6070330bfaccc4236d3ca0d -->
<g id="edge1" class="edge">
<title>dir_fb60af501ba790f5a2523771a799cc00&#45;&gt;dir_1fb090f0c6070330bfaccc4236d3ca0d</title>
<path fill="none" stroke="#000000" d="M48,-71.8314C48,-64.131 48,-54.9743 48,-46.4166"/>
<polygon fill="#000000" stroke="#000000" points="51.5001,-46.4132 48,-36.4133 44.5001,-46.4133 51.5001,-46.4132"/>
<g id="a_edge1&#45;headlabel"><a xlink:href="dir_000058_000001.xhtml" target="_top" xlink:title="10">
<text text-anchor="middle" x="54.3393" y="-47.5079" font-family="Helvetica,sans-Serif" font-size="10.00" fill="#000000">10</text>
</a>
</g>
</g>
</g>
</svg>
