<?xml version="1.0" encoding="UTF-8" standalone="no"?>
<!DOCTYPE svg PUBLIC "-//W3C//DTD SVG 1.1//EN"
 "http://www.w3.org/Graphics/SVG/1.1/DTD/svg11.dtd">
<!-- Generated by graphviz version 2.40.1 (20161225.0304)
 -->
<!-- Title: Graphical Class Hierarchy Pages: 1 -->
<svg width="347pt" height="420pt"
 viewBox="0.00 0.00 347.00 420.00" xmlns="http://www.w3.org/2000/svg" xmlns:xlink="http://www.w3.org/1999/xlink">
<g id="graph0" class="graph" transform="scale(1 1) rotate(0) translate(4 416)">
<title>Graphical Class Hierarchy</title>
<polygon fill="#ffffff" stroke="transparent" points="-4,4 -4,-416 343,-416 343,4 -4,4"/>
<!-- Node0 -->
<g id="node1" class="node">
<title>Node0</title>
<g id="a_node1"><a xlink:href="classarm__compute_1_1experimental_1_1dynamic__fusion_1_1_i_gpu_kernel_component.xhtml" target="_top" xlink:title="An abstract interface of a component. ">
<polygon fill="#ffffff" stroke="#000000" points="0,-196.5 0,-215.5 126,-215.5 126,-196.5 0,-196.5"/>
<text text-anchor="middle" x="63" y="-203.5" font-family="Helvetica,sans-Serif" font-size="10.00" fill="#000000">IGpuKernelComponent</text>
</a>
</g>
</g>
<!-- Node1 -->
<g id="node2" class="node">
<title>Node1</title>
<g id="a_node2"><a xlink:href="classarm__compute_1_1experimental_1_1dynamic__fusion_1_1_cl_component_activation.xhtml" target="_top" xlink:title="ClComponentActivation">
<polygon fill="#ffffff" stroke="#000000" points="184.5,-392.5 184.5,-411.5 316.5,-411.5 316.5,-392.5 184.5,-392.5"/>
<text text-anchor="middle" x="250.5" y="-399.5" font-family="Helvetica,sans-Serif" font-size="10.00" fill="#000000">ClComponentActivation</text>
</a>
</g>
</g>
<!-- Node0&#45;&gt;Node1 -->
<g id="edge1" class="edge">
<title>Node0&#45;&gt;Node1</title>
<path fill="none" stroke="#191970" d="M68.0996,-225.5295C78.8181,-262.5013 107.3299,-342.6218 162,-383 168.6996,-387.9482 176.4184,-391.6619 184.4473,-394.4401"/>
<polygon fill="#191970" stroke="#191970" points="71.3738,-224.238 65.3351,-215.5326 64.627,-226.1037 71.3738,-224.238"/>
</g>
<!-- Node2 -->
<g id="node3" class="node">
<title>Node2</title>
<g id="a_node3"><a xlink:href="classarm__compute_1_1experimental_1_1dynamic__fusion_1_1_cl_component_cast.xhtml" target="_top" xlink:title="ClComponentCast">
<polygon fill="#ffffff" stroke="#000000" points="198.5,-354.5 198.5,-373.5 302.5,-373.5 302.5,-354.5 198.5,-354.5"/>
<text text-anchor="middle" x="250.5" y="-361.5" font-family="Helvetica,sans-Serif" font-size="10.00" fill="#000000">ClComponentCast</text>
</a>
</g>
</g>
<!-- Node0&#45;&gt;Node2 -->
<g id="edge2" class="edge">
<title>Node0&#45;&gt;Node2</title>
<path fill="none" stroke="#191970" d="M71.0158,-225.1125C84.84,-255.5979 116.1629,-314.8578 162,-345 172.7667,-352.0801 185.7161,-356.5739 198.3452,-359.4119"/>
<polygon fill="#191970" stroke="#191970" points="74.0782,-223.3805 66.8606,-215.6244 67.6661,-226.1886 74.0782,-223.3805"/>
</g>
<!-- Node3 -->
<g id="node4" class="node">
<title>Node3</title>
<g id="a_node4"><a xlink:href="classarm__compute_1_1experimental_1_1dynamic__fusion_1_1_cl_component_depthwise_conv2d.xhtml" target="_top" xlink:title="ClComponentDepthwiseConv2d">
<polygon fill="#ffffff" stroke="#000000" points="165,-316.5 165,-335.5 336,-335.5 336,-316.5 165,-316.5"/>
<text text-anchor="middle" x="250.5" y="-323.5" font-family="Helvetica,sans-Serif" font-size="10.00" fill="#000000">ClComponentDepthwiseConv2d</text>
</a>
</g>
</g>
<!-- Node0&#45;&gt;Node3 -->
<g id="edge3" class="edge">
<title>Node0&#45;&gt;Node3</title>
<path fill="none" stroke="#191970" d="M75.216,-223.7897C91.9951,-246.7764 124.4062,-286.2942 162,-307 169.0201,-310.8665 176.7556,-313.9465 184.6427,-316.4"/>
<polygon fill="#191970" stroke="#191970" points="78.0334,-221.7122 69.3849,-215.5922 72.3293,-225.7697 78.0334,-221.7122"/>
</g>
<!-- Node4 -->
<g id="node5" class="node">
<title>Node4</title>
<g id="a_node5"><a xlink:href="classarm__compute_1_1experimental_1_1dynamic__fusion_1_1_cl_component_direct_conv2d.xhtml" target="_top" xlink:title="ClComponentDirectConv2d">
<polygon fill="#ffffff" stroke="#000000" points="176,-278.5 176,-297.5 325,-297.5 325,-278.5 176,-278.5"/>
<text text-anchor="middle" x="250.5" y="-285.5" font-family="Helvetica,sans-Serif" font-size="10.00" fill="#000000">ClComponentDirectConv2d</text>
</a>
</g>
</g>
<!-- Node0&#45;&gt;Node4 -->
<g id="edge4" class="edge">
<title>Node0&#45;&gt;Node4</title>
<path fill="none" stroke="#191970" d="M83.0215,-221.784C102.2281,-236.1616 132.5769,-256.9363 162,-269 171.3056,-272.8154 181.4896,-275.9106 191.5313,-278.4072"/>
<polygon fill="#191970" stroke="#191970" points="85.0976,-218.9656 75.0243,-215.6825 80.8516,-224.5308 85.0976,-218.9656"/>
</g>
<!-- Node5 -->
<g id="node6" class="node">
<title>Node5</title>
<g id="a_node6"><a xlink:href="classarm__compute_1_1experimental_1_1dynamic__fusion_1_1_cl_component_elementwise_binary.xhtml" target="_top" xlink:title="ClComponentElementwiseBinary">
<polygon fill="#ffffff" stroke="#000000" points="162,-240.5 162,-259.5 339,-259.5 339,-240.5 162,-240.5"/>
<text text-anchor="middle" x="250.5" y="-247.5" font-family="Helvetica,sans-Serif" font-size="10.00" fill="#000000">ClComponentElementwiseBinary</text>
</a>
</g>
</g>
<!-- Node0&#45;&gt;Node5 -->
<g id="edge5" class="edge">
<title>Node0&#45;&gt;Node5</title>
<path fill="none" stroke="#191970" d="M109.5639,-218.1245C126.091,-222.3308 144.8453,-226.9939 162,-231 175.7727,-234.2163 190.7997,-237.5195 204.4968,-240.4509"/>
<polygon fill="#191970" stroke="#191970" points="110.151,-214.6621 99.5955,-215.5745 108.4161,-221.4437 110.151,-214.6621"/>
</g>
<!-- Node6 -->
<g id="node7" class="node">
<title>Node6</title>
<g id="a_node7"><a xlink:href="classarm__compute_1_1experimental_1_1dynamic__fusion_1_1_cl_component_logits1_d_max_shift_exp_sum.xhtml" target="_top" xlink:title="Component to calculate max&#45;shifted exponentials and their sum. ">
<polygon fill="#ffffff" stroke="#000000" points="166.5,-191 166.5,-221 334.5,-221 334.5,-191 166.5,-191"/>
<text text-anchor="start" x="174.5" y="-209" font-family="Helvetica,sans-Serif" font-size="10.00" fill="#000000">ClComponentLogits1DMaxShift</text>
<text text-anchor="middle" x="250.5" y="-198" font-family="Helvetica,sans-Serif" font-size="10.00" fill="#000000">ExpSum</text>
</a>
</g>
</g>
<!-- Node0&#45;&gt;Node6 -->
<g id="edge6" class="edge">
<title>Node0&#45;&gt;Node6</title>
<path fill="none" stroke="#191970" d="M136.3195,-206C146.1411,-206 156.2771,-206 166.2674,-206"/>
<polygon fill="#191970" stroke="#191970" points="136.2176,-202.5001 126.2175,-206 136.2175,-209.5001 136.2176,-202.5001"/>
</g>
<!-- Node7 -->
<g id="node8" class="node">
<title>Node7</title>
<g id="a_node8"><a xlink:href="classarm__compute_1_1experimental_1_1dynamic__fusion_1_1_cl_component_logits1_d_norm.xhtml" target="_top" xlink:title="Component to calculate the final step of the Softmax Layer where each logit value is multiplied by th...">
<polygon fill="#ffffff" stroke="#000000" points="174.5,-152.5 174.5,-171.5 326.5,-171.5 326.5,-152.5 174.5,-152.5"/>
<text text-anchor="middle" x="250.5" y="-159.5" font-family="Helvetica,sans-Serif" font-size="10.00" fill="#000000">ClComponentLogits1DNorm</text>
</a>
</g>
</g>
<!-- Node0&#45;&gt;Node7 -->
<g id="edge7" class="edge">
<title>Node0&#45;&gt;Node7</title>
<path fill="none" stroke="#191970" d="M112.1434,-193.9264C128.0403,-190.0638 145.7559,-185.8042 162,-182 176.877,-178.5159 193.1859,-174.8007 207.7058,-171.5298"/>
<polygon fill="#191970" stroke="#191970" points="110.881,-190.6315 101.9934,-196.3987 112.5376,-197.4327 110.881,-190.6315"/>
</g>
<!-- Node8 -->
<g id="node9" class="node">
<title>Node8</title>
<g id="a_node9"><a xlink:href="classarm__compute_1_1experimental_1_1dynamic__fusion_1_1_cl_component_pool2d.xhtml" target="_top" xlink:title="ClComponentPool2d">
<polygon fill="#ffffff" stroke="#000000" points="192.5,-114.5 192.5,-133.5 308.5,-133.5 308.5,-114.5 192.5,-114.5"/>
<text text-anchor="middle" x="250.5" y="-121.5" font-family="Helvetica,sans-Serif" font-size="10.00" fill="#000000">ClComponentPool2d</text>
</a>
</g>
</g>
<!-- Node0&#45;&gt;Node8 -->
<g id="edge8" class="edge">
<title>Node0&#45;&gt;Node8</title>
<path fill="none" stroke="#191970" d="M83.0215,-190.216C102.2281,-175.8384 132.5769,-155.0637 162,-143 171.5964,-139.0654 182.127,-135.8967 192.4723,-133.3605"/>
<polygon fill="#191970" stroke="#191970" points="80.8516,-187.4692 75.0243,-196.3175 85.0976,-193.0344 80.8516,-187.4692"/>
</g>
<!-- Node9 -->
<g id="node10" class="node">
<title>Node9</title>
<g id="a_node10"><a xlink:href="classarm__compute_1_1experimental_1_1dynamic__fusion_1_1_cl_component_reshape.xhtml" target="_top" xlink:title="ClComponentReshape">
<polygon fill="#ffffff" stroke="#000000" points="188.5,-76.5 188.5,-95.5 312.5,-95.5 312.5,-76.5 188.5,-76.5"/>
<text text-anchor="middle" x="250.5" y="-83.5" font-family="Helvetica,sans-Serif" font-size="10.00" fill="#000000">ClComponentReshape</text>
</a>
</g>
</g>
<!-- Node0&#45;&gt;Node9 -->
<g id="edge9" class="edge">
<title>Node0&#45;&gt;Node9</title>
<path fill="none" stroke="#191970" d="M75.216,-188.2103C91.9951,-165.2236 124.4062,-125.7058 162,-105 170.1213,-100.527 179.2,-97.1065 188.3633,-94.4911"/>
<polygon fill="#191970" stroke="#191970" points="72.3293,-186.2303 69.3849,-196.4078 78.0334,-190.2878 72.3293,-186.2303"/>
</g>
<!-- Node10 -->
<g id="node11" class="node">
<title>Node10</title>
<g id="a_node11"><a xlink:href="classarm__compute_1_1experimental_1_1dynamic__fusion_1_1_cl_component_resize.xhtml" target="_top" xlink:title="ClComponentResize">
<polygon fill="#ffffff" stroke="#000000" points="193.5,-38.5 193.5,-57.5 307.5,-57.5 307.5,-38.5 193.5,-38.5"/>
<text text-anchor="middle" x="250.5" y="-45.5" font-family="Helvetica,sans-Serif" font-size="10.00" fill="#000000">ClComponentResize</text>
</a>
</g>
</g>
<!-- Node0&#45;&gt;Node10 -->
<g id="edge10" class="edge">
<title>Node0&#45;&gt;Node10</title>
<path fill="none" stroke="#191970" d="M71.0158,-186.8875C84.84,-156.4021 116.1629,-97.1422 162,-67 171.3224,-60.8697 182.2812,-56.6783 193.2515,-53.8219"/>
<polygon fill="#191970" stroke="#191970" points="67.6661,-185.8114 66.8606,-196.3756 74.0782,-188.6195 67.6661,-185.8114"/>
</g>
<!-- Node11 -->
<g id="node12" class="node">
<title>Node11</title>
<g id="a_node12"><a xlink:href="classarm__compute_1_1experimental_1_1dynamic__fusion_1_1_cl_component_store.xhtml" target="_top" xlink:title="ClComponentStore">
<polygon fill="#ffffff" stroke="#000000" points="196.5,-.5 196.5,-19.5 304.5,-19.5 304.5,-.5 196.5,-.5"/>
<text text-anchor="middle" x="250.5" y="-7.5" font-family="Helvetica,sans-Serif" font-size="10.00" fill="#000000">ClComponentStore</text>
</a>
</g>
</g>
<!-- Node0&#45;&gt;Node11 -->
<g id="edge11" class="edge">
<title>Node0&#45;&gt;Node11</title>
<path fill="none" stroke="#191970" d="M68.0996,-186.4705C78.8181,-149.4987 107.3299,-69.3782 162,-29 171.9862,-21.6244 184.2368,-16.9916 196.4034,-14.1111"/>
<polygon fill="#191970" stroke="#191970" points="64.627,-185.8963 65.3351,-196.4674 71.3738,-187.762 64.627,-185.8963"/>
</g>
</g>
</svg>
