<?xml version="1.0" encoding="UTF-8" standalone="no"?>
<!DOCTYPE svg PUBLIC "-//W3C//DTD SVG 1.1//EN"
 "http://www.w3.org/Graphics/SVG/1.1/DTD/svg11.dtd">
<!-- Generated by graphviz version 2.40.1 (20161225.0304)
 -->
<!-- Title: Header Pages: 1 -->
<svg width="127pt" height="152pt"
 viewBox="0.00 0.00 126.50 152.00" xmlns="http://www.w3.org/2000/svg" xmlns:xlink="http://www.w3.org/1999/xlink">
<g id="graph0" class="graph" transform="scale(1 1) rotate(0) translate(4 148)">
<title>Header</title>
<polygon fill="#ffffff" stroke="transparent" points="-4,4 -4,-148 122.5,-148 122.5,4 -4,4"/>
<!-- Node0 -->
<g id="node1" class="node">
<title>Node0</title>
<polygon fill="#bfbfbf" stroke="#000000" points="48.5,-124.5 48.5,-143.5 100.5,-143.5 100.5,-124.5 48.5,-124.5"/>
<text text-anchor="middle" x="74.5" y="-131.5" font-family="Helvetica,sans-Serif" font-size="10.00" fill="#000000">Header</text>
</g>
<!-- Node2 -->
<g id="node3" class="node">
<title>Node2</title>
<g id="a_node3"><a xlink:href="struct_acl_context__.xhtml" target="_top" xlink:title="AclContext_">
<polygon fill="#ffffff" stroke="#000000" points="0,-57.5 0,-76.5 75,-76.5 75,-57.5 0,-57.5"/>
<text text-anchor="middle" x="37.5" y="-64.5" font-family="Helvetica,sans-Serif" font-size="10.00" fill="#000000">AclContext_</text>
</a>
</g>
</g>
<!-- Node0&#45;&gt;Node2 -->
<g id="edge3" class="edge">
<title>Node0&#45;&gt;Node2</title>
<path fill="none" stroke="#9a32cd" stroke-dasharray="5,2" d="M64.3443,-115.6099C57.3693,-102.9795 48.3924,-86.7241 42.7914,-76.5817"/>
<polygon fill="#9a32cd" stroke="#9a32cd" points="61.3007,-117.3386 69.1988,-124.4005 67.4284,-113.9547 61.3007,-117.3386"/>
<text text-anchor="middle" x="77" y="-98" font-family="Helvetica,sans-Serif" font-size="10.00" fill="#000000"> header</text>
</g>
<!-- Node1 -->
<g id="node2" class="node">
<title>Node1</title>
<g id="a_node2"><a xlink:href="classarm__compute_1_1_i_context.xhtml" target="_top" xlink:title="Context interface. ">
<polygon fill="#ffffff" stroke="#000000" points="45.5,-.5 45.5,-19.5 103.5,-19.5 103.5,-.5 45.5,-.5"/>
<text text-anchor="middle" x="74.5" y="-7.5" font-family="Helvetica,sans-Serif" font-size="10.00" fill="#000000">IContext</text>
</a>
</g>
</g>
<!-- Node1&#45;&gt;Node0 -->
<g id="edge1" class="edge">
<title>Node1&#45;&gt;Node0</title>
<path fill="none" stroke="#9a32cd" stroke-dasharray="5,2" d="M85.2131,-28.5567C95.0848,-48.1511 106.8904,-79.774 97.5,-106 94.9976,-112.9887 89.9155,-119.4837 85.1634,-124.4552"/>
<polygon fill="#9a32cd" stroke="#9a32cd" points="88.296,-26.8996 80.4868,-19.7394 82.1264,-30.2066 88.296,-26.8996"/>
<text text-anchor="middle" x="109" y="-64.5" font-family="Helvetica,sans-Serif" font-size="10.00" fill="#000000"> ctx</text>
</g>
<!-- Node2&#45;&gt;Node1 -->
<g id="edge2" class="edge">
<title>Node2&#45;&gt;Node1</title>
<path fill="none" stroke="#191970" d="M49.3457,-48.7512C55.6554,-39.0308 63.1567,-27.4748 68.3161,-19.5265"/>
<polygon fill="#191970" stroke="#191970" points="46.2856,-47.0373 43.7765,-57.3307 52.157,-50.8486 46.2856,-47.0373"/>
</g>
</g>
</svg>
