<?xml version="1.0" encoding="UTF-8" standalone="no"?>
<!DOCTYPE svg PUBLIC "-//W3C//DTD SVG 1.1//EN"
 "http://www.w3.org/Graphics/SVG/1.1/DTD/svg11.dtd">
<!-- Generated by graphviz version 2.38.0 (20140413.2041)
 -->
<!-- Title: NEDequantizationLayerKernel Pages: 1 -->
<svg width="166pt" height="140pt"
 viewBox="0.00 0.00 166.00 140.00" xmlns="http://www.w3.org/2000/svg" xmlns:xlink="http://www.w3.org/1999/xlink">
<g id="graph0" class="graph" transform="scale(1 1) rotate(0) translate(4 136)">
<title>NEDequantizationLayerKernel</title>
<polygon fill="white" stroke="none" points="-4,4 -4,-136 162,-136 162,4 -4,4"/>
<!-- Node1 -->
<g id="node1" class="node"><title>Node1</title>
<polygon fill="#bfbfbf" stroke="black" points="-1.42109e-14,-0.5 -1.42109e-14,-19.5 158,-19.5 158,-0.5 -1.42109e-14,-0.5"/>
<text text-anchor="middle" x="79" y="-7.5" font-family="Helvetica,sans-Serif" font-size="10.00">NEDequantizationLayerKernel</text>
</g>
<!-- Node2 -->
<g id="node2" class="node"><title>Node2</title>
<g id="a_node2"><a xlink:href="classarm__compute_1_1_i_c_p_p_kernel.xhtml" target="_top" xlink:title="Common interface for all kernels implemented in C++. ">
<polygon fill="white" stroke="black" points="48,-56.5 48,-75.5 110,-75.5 110,-56.5 48,-56.5"/>
<text text-anchor="middle" x="79" y="-63.5" font-family="Helvetica,sans-Serif" font-size="10.00">INEKernel</text>
</a>
</g>
</g>
<!-- Node2&#45;&gt;Node1 -->
<g id="edge1" class="edge"><title>Node2&#45;&gt;Node1</title>
<path fill="none" stroke="midnightblue" d="M79,-45.8045C79,-36.9102 79,-26.7798 79,-19.7511"/>
<polygon fill="midnightblue" stroke="midnightblue" points="75.5001,-46.083 79,-56.083 82.5001,-46.083 75.5001,-46.083"/>
</g>
<!-- Node3 -->
<g id="node3" class="node"><title>Node3</title>
<g id="a_node3"><a xlink:href="classarm__compute_1_1_i_kernel.xhtml" target="_top" xlink:title="Common information for all the kernels. ">
<polygon fill="white" stroke="black" points="55,-112.5 55,-131.5 103,-131.5 103,-112.5 55,-112.5"/>
<text text-anchor="middle" x="79" y="-119.5" font-family="Helvetica,sans-Serif" font-size="10.00">IKernel</text>
</a>
</g>
</g>
<!-- Node3&#45;&gt;Node2 -->
<g id="edge2" class="edge"><title>Node3&#45;&gt;Node2</title>
<path fill="none" stroke="midnightblue" d="M79,-101.805C79,-92.9102 79,-82.7798 79,-75.7511"/>
<polygon fill="midnightblue" stroke="midnightblue" points="75.5001,-102.083 79,-112.083 82.5001,-102.083 75.5001,-102.083"/>
</g>
</g>
</svg>
