<?xml version="1.0" encoding="UTF-8" standalone="no"?>
<!DOCTYPE svg PUBLIC "-//W3C//DTD SVG 1.1//EN"
 "http://www.w3.org/Graphics/SVG/1.1/DTD/svg11.dtd">
<!-- Generated by graphviz version 2.38.0 (20140413.2041)
 -->
<!-- Title: arm_compute/runtime/NEON Pages: 1 -->
<svg width="116pt" height="231pt"
 viewBox="0.00 0.00 116.00 231.00" xmlns="http://www.w3.org/2000/svg" xmlns:xlink="http://www.w3.org/1999/xlink">
<g id="graph0" class="graph" transform="scale(1 1) rotate(0) translate(4 227)">
<title>arm_compute/runtime/NEON</title>
<polygon fill="white" stroke="none" points="-4,4 -4,-227 112,-227 112,4 -4,4"/>
<g id="clust1" class="cluster"><title>clusterdir_8bc26130589aa16388b5a02f17abf2c2</title>
<g id="a_clust1"><a xlink:href="dir_8bc26130589aa16388b5a02f17abf2c2.xhtml" target="_top" xlink:title="runtime">
<polygon fill="#ddddee" stroke="black" points="8,-56 8,-215 100,-215 100,-56 8,-56"/>
<text text-anchor="middle" x="54" y="-203" font-family="Helvetica,sans-Serif" font-size="10.00">runtime</text>
</a>
</g>
</g>
<g id="clust2" class="cluster"><title>clusterdir_65e289039e1347f87d412b0a1b1a312c</title>
<g id="a_clust2"><a xlink:href="dir_65e289039e1347f87d412b0a1b1a312c.xhtml" target="_top">
<polygon fill="#eeeeff" stroke="black" points="16,-64 16,-188 92,-188 92,-64 16,-64"/>
</a>
</g>
</g>
<!-- dir_65e289039e1347f87d412b0a1b1a312c -->
<g id="node1" class="node"><title>dir_65e289039e1347f87d412b0a1b1a312c</title>
<text text-anchor="middle" x="54" y="-159.5" font-family="Helvetica,sans-Serif" font-size="10.00">NEON</text>
</g>
<!-- dir_345bd7154d1542d1e03fd2836959a19d -->
<g id="node2" class="node"><title>dir_345bd7154d1542d1e03fd2836959a19d</title>
<g id="a_node2"><a xlink:href="dir_345bd7154d1542d1e03fd2836959a19d.xhtml" target="_top" xlink:title="functions">
<polygon fill="white" stroke="black" points="84,-108 24,-108 24,-72 84,-72 84,-108"/>
<text text-anchor="middle" x="54" y="-87.5" font-family="Helvetica,sans-Serif" font-size="10.00">functions</text>
</a>
</g>
</g>
<!-- dir_65e289039e1347f87d412b0a1b1a312c&#45;&gt;dir_345bd7154d1542d1e03fd2836959a19d -->
<g id="edge2" class="edge"><title>dir_65e289039e1347f87d412b0a1b1a312c&#45;&gt;dir_345bd7154d1542d1e03fd2836959a19d</title>
<path fill="none" stroke="black" d="M54,-143.697C54,-135.983 54,-126.712 54,-118.112"/>
<polygon fill="black" stroke="black" points="57.5001,-118.104 54,-108.104 50.5001,-118.104 57.5001,-118.104"/>
<g id="a_edge2&#45;headlabel"><a xlink:href="dir_000048_000049.xhtml" target="_top" xlink:title="84">
<text text-anchor="middle" x="60.3393" y="-119.199" font-family="Helvetica,sans-Serif" font-size="10.00">84</text>
</a>
</g>
</g>
<!-- dir_1fb090f0c6070330bfaccc4236d3ca0d -->
<g id="node3" class="node"><title>dir_1fb090f0c6070330bfaccc4236d3ca0d</title>
<g id="a_node3"><a xlink:href="dir_1fb090f0c6070330bfaccc4236d3ca0d.xhtml" target="_top" xlink:title="core">
<polygon fill="white" stroke="red" points="81,-36 27,-36 27,-0 81,-0 81,-36"/>
<text text-anchor="middle" x="54" y="-15.5" font-family="Helvetica,sans-Serif" font-size="10.00">core</text>
</a>
</g>
</g>
<!-- dir_345bd7154d1542d1e03fd2836959a19d&#45;&gt;dir_1fb090f0c6070330bfaccc4236d3ca0d -->
<g id="edge1" class="edge"><title>dir_345bd7154d1542d1e03fd2836959a19d&#45;&gt;dir_1fb090f0c6070330bfaccc4236d3ca0d</title>
<path fill="none" stroke="black" d="M54,-71.6966C54,-63.9827 54,-54.7125 54,-46.1124"/>
<polygon fill="black" stroke="black" points="57.5001,-46.1043 54,-36.1043 50.5001,-46.1044 57.5001,-46.1043"/>
<g id="a_edge1&#45;headlabel"><a xlink:href="dir_000049_000001.xhtml" target="_top" xlink:title="160">
<text text-anchor="middle" x="60.3393" y="-47.199" font-family="Helvetica,sans-Serif" font-size="10.00">160</text>
</a>
</g>
</g>
</g>
</svg>
