<?xml version="1.0" encoding="UTF-8" standalone="no"?>
<!DOCTYPE svg PUBLIC "-//W3C//DTD SVG 1.1//EN"
 "http://www.w3.org/Graphics/SVG/1.1/DTD/svg11.dtd">
<!-- Generated by graphviz version 2.38.0 (20140413.2041)
 -->
<!-- Title: Graphical Class Hierarchy Pages: 1 -->
<svg width="324pt" height="180pt"
 viewBox="0.00 0.00 324.00 180.00" xmlns="http://www.w3.org/2000/svg" xmlns:xlink="http://www.w3.org/1999/xlink">
<g id="graph0" class="graph" transform="scale(1 1) rotate(0) translate(4 176)">
<title>Graphical Class Hierarchy</title>
<polygon fill="white" stroke="none" points="-4,4 -4,-176 320,-176 320,4 -4,4"/>
<!-- Node1 -->
<g id="node1" class="node"><title>Node1</title>
<g id="a_node1"><a xlink:href="classarm__compute_1_1test_1_1datasets_1_1_g_e_m_m_dataset.xhtml" target="_top" xlink:title="GEMMDataset">
<polygon fill="white" stroke="black" points="0,-76.5 0,-95.5 85,-95.5 85,-76.5 0,-76.5"/>
<text text-anchor="middle" x="42.5" y="-83.5" font-family="Helvetica,sans-Serif" font-size="10.00">GEMMDataset</text>
</a>
</g>
</g>
<!-- Node2 -->
<g id="node2" class="node"><title>Node2</title>
<g id="a_node2"><a xlink:href="classarm__compute_1_1test_1_1datasets_1_1_google_net_g_e_m_m_dataset.xhtml" target="_top" xlink:title="GoogleNetGEMMDataset">
<polygon fill="white" stroke="black" points="150.5,-152.5 150.5,-171.5 286.5,-171.5 286.5,-152.5 150.5,-152.5"/>
<text text-anchor="middle" x="218.5" y="-159.5" font-family="Helvetica,sans-Serif" font-size="10.00">GoogleNetGEMMDataset</text>
</a>
</g>
</g>
<!-- Node1&#45;&gt;Node2 -->
<g id="edge1" class="edge"><title>Node1&#45;&gt;Node2</title>
<path fill="none" stroke="midnightblue" d="M61.424,-102.793C76.2693,-115.76 98.5057,-133.109 121,-143 130.222,-147.055 140.319,-150.25 150.398,-152.767"/>
<polygon fill="midnightblue" stroke="midnightblue" points="63.3686,-99.8347 53.5913,-95.7536 58.6896,-105.041 63.3686,-99.8347"/>
</g>
<!-- Node3 -->
<g id="node3" class="node"><title>Node3</title>
<g id="a_node3"><a xlink:href="classarm__compute_1_1test_1_1datasets_1_1_goog_le_net_inception_v1_g_e_m_m_dataset.xhtml" target="_top" xlink:title="GoogLeNetInceptionV1GEMMDataset">
<polygon fill="white" stroke="black" points="121,-114.5 121,-133.5 316,-133.5 316,-114.5 121,-114.5"/>
<text text-anchor="middle" x="218.5" y="-121.5" font-family="Helvetica,sans-Serif" font-size="10.00">GoogLeNetInceptionV1GEMMDataset</text>
</a>
</g>
</g>
<!-- Node1&#45;&gt;Node3 -->
<g id="edge2" class="edge"><title>Node1&#45;&gt;Node3</title>
<path fill="none" stroke="midnightblue" d="M90.6534,-97.9271C100.652,-100.353 111.159,-102.826 121,-105 135.839,-108.278 152.024,-111.573 166.825,-114.477"/>
<polygon fill="midnightblue" stroke="midnightblue" points="91.4126,-94.5097 80.8669,-95.5293 89.7467,-101.309 91.4126,-94.5097"/>
</g>
<!-- Node4 -->
<g id="node4" class="node"><title>Node4</title>
<g id="a_node4"><a xlink:href="classarm__compute_1_1test_1_1datasets_1_1_large_g_e_m_m_dataset.xhtml" target="_top" xlink:title="LargeGEMMDataset">
<polygon fill="white" stroke="black" points="162.5,-76.5 162.5,-95.5 274.5,-95.5 274.5,-76.5 162.5,-76.5"/>
<text text-anchor="middle" x="218.5" y="-83.5" font-family="Helvetica,sans-Serif" font-size="10.00">LargeGEMMDataset</text>
</a>
</g>
</g>
<!-- Node1&#45;&gt;Node4 -->
<g id="edge3" class="edge"><title>Node1&#45;&gt;Node4</title>
<path fill="none" stroke="midnightblue" d="M95.2567,-86C116.392,-86 140.866,-86 162.339,-86"/>
<polygon fill="midnightblue" stroke="midnightblue" points="95.1774,-82.5001 85.1773,-86 95.1773,-89.5001 95.1774,-82.5001"/>
</g>
<!-- Node5 -->
<g id="node5" class="node"><title>Node5</title>
<g id="a_node5"><a xlink:href="classarm__compute_1_1test_1_1datasets_1_1_matrix_multiply_g_e_m_m_dataset.xhtml" target="_top" xlink:title="MatrixMultiplyGEMMDataset">
<polygon fill="white" stroke="black" points="143.5,-38.5 143.5,-57.5 293.5,-57.5 293.5,-38.5 143.5,-38.5"/>
<text text-anchor="middle" x="218.5" y="-45.5" font-family="Helvetica,sans-Serif" font-size="10.00">MatrixMultiplyGEMMDataset</text>
</a>
</g>
</g>
<!-- Node1&#45;&gt;Node5 -->
<g id="edge4" class="edge"><title>Node1&#45;&gt;Node5</title>
<path fill="none" stroke="midnightblue" d="M90.6534,-74.0729C100.652,-71.6467 111.159,-69.1739 121,-67 135.839,-63.722 152.024,-60.4268 166.825,-57.5225"/>
<polygon fill="midnightblue" stroke="midnightblue" points="89.7467,-70.6914 80.8669,-76.4707 91.4126,-77.4903 89.7467,-70.6914"/>
</g>
<!-- Node6 -->
<g id="node6" class="node"><title>Node6</title>
<g id="a_node6"><a xlink:href="classarm__compute_1_1test_1_1datasets_1_1_small_g_e_m_m_dataset.xhtml" target="_top" xlink:title="SmallGEMMDataset">
<polygon fill="white" stroke="black" points="162.5,-0.5 162.5,-19.5 274.5,-19.5 274.5,-0.5 162.5,-0.5"/>
<text text-anchor="middle" x="218.5" y="-7.5" font-family="Helvetica,sans-Serif" font-size="10.00">SmallGEMMDataset</text>
</a>
</g>
</g>
<!-- Node1&#45;&gt;Node6 -->
<g id="edge5" class="edge"><title>Node1&#45;&gt;Node6</title>
<path fill="none" stroke="midnightblue" d="M61.424,-69.2071C76.2693,-56.2398 98.5057,-38.8913 121,-29 133.895,-23.3296 148.501,-19.3407 162.376,-16.5385"/>
<polygon fill="midnightblue" stroke="midnightblue" points="58.6896,-66.9588 53.5913,-76.2464 63.3686,-72.1653 58.6896,-66.9588"/>
</g>
</g>
</svg>
