<?xml version="1.0" encoding="UTF-8" standalone="no"?>
<!DOCTYPE svg PUBLIC "-//W3C//DTD SVG 1.1//EN"
 "http://www.w3.org/Graphics/SVG/1.1/DTD/svg11.dtd">
<!-- Generated by graphviz version 2.38.0 (20140413.2041)
 -->
<!-- Title: Graphical Class Hierarchy Pages: 1 -->
<svg width="356pt" height="142pt"
 viewBox="0.00 0.00 356.00 142.00" xmlns="http://www.w3.org/2000/svg" xmlns:xlink="http://www.w3.org/1999/xlink">
<g id="graph0" class="graph" transform="scale(1 1) rotate(0) translate(4 138)">
<title>Graphical Class Hierarchy</title>
<polygon fill="white" stroke="none" points="-4,4 -4,-138 352,-138 352,4 -4,4"/>
<!-- Node1 -->
<g id="node1" class="node"><title>Node1</title>
<g id="a_node1"><a xlink:href="classarm__compute_1_1test_1_1framework_1_1_option.xhtml" target="_top" xlink:title="Abstract base class for a command line option. ">
<polygon fill="white" stroke="black" points="0,-57.5 0,-76.5 48,-76.5 48,-57.5 0,-57.5"/>
<text text-anchor="middle" x="24" y="-64.5" font-family="Helvetica,sans-Serif" font-size="10.00">Option</text>
</a>
</g>
</g>
<!-- Node2 -->
<g id="node2" class="node"><title>Node2</title>
<g id="a_node2"><a xlink:href="classarm__compute_1_1test_1_1framework_1_1_enum_list_option.xhtml" target="_top" xlink:title="Implementation of an option that accepts any number of values from a fixed set. ">
<polygon fill="white" stroke="black" points="86,-114.5 86,-133.5 206,-133.5 206,-114.5 86,-114.5"/>
<text text-anchor="middle" x="146" y="-121.5" font-family="Helvetica,sans-Serif" font-size="10.00">EnumListOption&lt; T &gt;</text>
</a>
</g>
</g>
<!-- Node1&#45;&gt;Node2 -->
<g id="edge1" class="edge"><title>Node1&#45;&gt;Node2</title>
<path fill="none" stroke="midnightblue" d="M45.9616,-82.4802C56.8903,-90.0294 70.7194,-98.7952 84,-105 91.738,-108.615 100.34,-111.775 108.586,-114.425"/>
<polygon fill="midnightblue" stroke="midnightblue" points="47.7212,-79.4374 37.5394,-76.508 43.6722,-85.1475 47.7212,-79.4374"/>
</g>
<!-- Node3 -->
<g id="node3" class="node"><title>Node3</title>
<g id="a_node3"><a xlink:href="classarm__compute_1_1test_1_1framework_1_1_list_option.xhtml" target="_top" xlink:title="Implementation of an option that accepts any number of values. ">
<polygon fill="white" stroke="black" points="100,-76.5 100,-95.5 192,-95.5 192,-76.5 100,-76.5"/>
<text text-anchor="middle" x="146" y="-83.5" font-family="Helvetica,sans-Serif" font-size="10.00">ListOption&lt; T &gt;</text>
</a>
</g>
</g>
<!-- Node1&#45;&gt;Node3 -->
<g id="edge2" class="edge"><title>Node1&#45;&gt;Node3</title>
<path fill="none" stroke="midnightblue" d="M58.314,-72.2747C71.0768,-74.2955 85.8627,-76.6366 99.569,-78.8068"/>
<polygon fill="midnightblue" stroke="midnightblue" points="58.5615,-68.7704 48.1372,-70.6634 57.4668,-75.6843 58.5615,-68.7704"/>
</g>
<!-- Node4 -->
<g id="node4" class="node"><title>Node4</title>
<g id="a_node4"><a xlink:href="classarm__compute_1_1test_1_1framework_1_1_simple_option.xhtml" target="_top" xlink:title="Implementation of an option that accepts a single value. ">
<polygon fill="white" stroke="black" points="91.5,-38.5 91.5,-57.5 200.5,-57.5 200.5,-38.5 91.5,-38.5"/>
<text text-anchor="middle" x="146" y="-45.5" font-family="Helvetica,sans-Serif" font-size="10.00">SimpleOption&lt; T &gt;</text>
</a>
</g>
</g>
<!-- Node1&#45;&gt;Node4 -->
<g id="edge3" class="edge"><title>Node1&#45;&gt;Node4</title>
<path fill="none" stroke="midnightblue" d="M58.28,-61.7307C68.5321,-60.1074 80.0921,-58.2771 91.3505,-56.4945"/>
<polygon fill="midnightblue" stroke="midnightblue" points="57.4668,-58.3157 48.1372,-63.3366 58.5615,-65.2296 57.4668,-58.3157"/>
</g>
<!-- Node6 -->
<g id="node6" class="node"><title>Node6</title>
<g id="a_node6"><a xlink:href="classarm__compute_1_1test_1_1framework_1_1_simple_option.xhtml" target="_top" xlink:title="SimpleOption\&lt; bool \&gt;">
<polygon fill="white" stroke="black" points="84,-0.5 84,-19.5 208,-19.5 208,-0.5 84,-0.5"/>
<text text-anchor="middle" x="146" y="-7.5" font-family="Helvetica,sans-Serif" font-size="10.00">SimpleOption&lt; bool &gt;</text>
</a>
</g>
</g>
<!-- Node1&#45;&gt;Node6 -->
<g id="edge5" class="edge"><title>Node1&#45;&gt;Node6</title>
<path fill="none" stroke="midnightblue" d="M45.9616,-51.5198C56.8903,-43.9706 70.7194,-35.2048 84,-29 91.738,-25.3847 100.34,-22.2253 108.586,-19.5747"/>
<polygon fill="midnightblue" stroke="midnightblue" points="43.6722,-48.8525 37.5394,-57.492 47.7212,-54.5626 43.6722,-48.8525"/>
</g>
<!-- Node5 -->
<g id="node5" class="node"><title>Node5</title>
<g id="a_node5"><a xlink:href="classarm__compute_1_1test_1_1framework_1_1_enum_option.xhtml" target="_top" xlink:title="Implementation of a simple option that accepts a value from a fixed set. ">
<polygon fill="white" stroke="black" points="244,-38.5 244,-57.5 348,-57.5 348,-38.5 244,-38.5"/>
<text text-anchor="middle" x="296" y="-45.5" font-family="Helvetica,sans-Serif" font-size="10.00">EnumOption&lt; T &gt;</text>
</a>
</g>
</g>
<!-- Node4&#45;&gt;Node5 -->
<g id="edge4" class="edge"><title>Node4&#45;&gt;Node5</title>
<path fill="none" stroke="midnightblue" d="M210.873,-48C221.913,-48 233.259,-48 243.903,-48"/>
<polygon fill="midnightblue" stroke="midnightblue" points="210.85,-44.5001 200.85,-48 210.85,-51.5001 210.85,-44.5001"/>
</g>
<!-- Node7 -->
<g id="node7" class="node"><title>Node7</title>
<g id="a_node7"><a xlink:href="classarm__compute_1_1test_1_1framework_1_1_toggle_option.xhtml" target="_top" xlink:title="Implementation of an option that can be either true or false. ">
<polygon fill="white" stroke="black" points="257,-0.5 257,-19.5 335,-19.5 335,-0.5 257,-0.5"/>
<text text-anchor="middle" x="296" y="-7.5" font-family="Helvetica,sans-Serif" font-size="10.00">ToggleOption</text>
</a>
</g>
</g>
<!-- Node6&#45;&gt;Node7 -->
<g id="edge6" class="edge"><title>Node6&#45;&gt;Node7</title>
<path fill="none" stroke="midnightblue" d="M218.226,-10C231.599,-10 245.093,-10 256.958,-10"/>
<polygon fill="midnightblue" stroke="midnightblue" points="218.052,-6.5001 208.052,-10 218.052,-13.5001 218.052,-6.5001"/>
</g>
</g>
</svg>
