<?xml version="1.0" encoding="UTF-8" standalone="no"?>
<!DOCTYPE svg PUBLIC "-//W3C//DTD SVG 1.1//EN"
 "http://www.w3.org/Graphics/SVG/1.1/DTD/svg11.dtd">
<!-- Generated by graphviz version 2.38.0 (20140413.2041)
 -->
<!-- Title: CommonGemmExampleOptions Pages: 1 -->
<svg width="1137pt" height="204pt"
 viewBox="0.00 0.00 1137.00 204.00" xmlns="http://www.w3.org/2000/svg" xmlns:xlink="http://www.w3.org/1999/xlink">
<g id="graph0" class="graph" transform="scale(1 1) rotate(0) translate(4 200)">
<title>CommonGemmExampleOptions</title>
<polygon fill="white" stroke="none" points="-4,4 -4,-200 1133,-200 1133,4 -4,4"/>
<!-- Node0 -->
<g id="node1" class="node"><title>Node0</title>
<g id="a_node1"><a xlink:title="Common command line options used to configure the gemm examples.">
<polygon fill="#bfbfbf" stroke="black" points="957,-104.5 957,-123.5 1129,-123.5 1129,-104.5 957,-104.5"/>
<text text-anchor="middle" x="1043" y="-111.5" font-family="Helvetica,sans-Serif" font-size="10.00">CommonGemmExampleOptions</text>
</a>
</g>
</g>
<!-- Node1 -->
<g id="node2" class="node"><title>Node1</title>
<g id="a_node2"><a xlink:href="classarm__compute_1_1utils_1_1_toggle_option.xhtml" target="_top" xlink:title="Implementation of an option that can be either true or false.">
<polygon fill="white" stroke="black" points="752.5,-176.5 752.5,-195.5 830.5,-195.5 830.5,-176.5 752.5,-176.5"/>
<text text-anchor="middle" x="791.5" y="-183.5" font-family="Helvetica,sans-Serif" font-size="10.00">ToggleOption</text>
</a>
</g>
</g>
<!-- Node1&#45;&gt;Node0 -->
<g id="edge1" class="edge"><title>Node1&#45;&gt;Node0</title>
<path fill="none" stroke="#9a32cd" stroke-dasharray="5,2" d="M835.334,-173.639C884.477,-159.458 964.015,-136.505 1008.73,-123.601"/>
<polygon fill="#9a32cd" stroke="#9a32cd" points="834.269,-170.303 825.632,-176.439 836.21,-177.029 834.269,-170.303"/>
<text text-anchor="middle" x="913" y="-162" font-family="Helvetica,sans-Serif" font-size="10.00"> help</text>
</g>
<!-- Node2 -->
<g id="node3" class="node"><title>Node2</title>
<g id="a_node3"><a xlink:href="classarm__compute_1_1utils_1_1_simple_option.xhtml" target="_top" xlink:title=" ">
<polygon fill="white" stroke="black" points="392,-176.5 392,-195.5 516,-195.5 516,-176.5 392,-176.5"/>
<text text-anchor="middle" x="454" y="-183.5" font-family="Helvetica,sans-Serif" font-size="10.00">SimpleOption&lt; bool &gt;</text>
</a>
</g>
</g>
<!-- Node2&#45;&gt;Node1 -->
<g id="edge2" class="edge"><title>Node2&#45;&gt;Node1</title>
<path fill="none" stroke="midnightblue" d="M526.505,-186C595.526,-186 697.401,-186 752.226,-186"/>
<polygon fill="midnightblue" stroke="midnightblue" points="526.146,-182.5 516.146,-186 526.146,-189.5 526.146,-182.5"/>
</g>
<!-- Node3 -->
<g id="node4" class="node"><title>Node3</title>
<g id="a_node4"><a xlink:href="classarm__compute_1_1utils_1_1_option.xhtml" target="_top" xlink:title="Abstract base class for a command line option.">
<polygon fill="white" stroke="black" points="0,-93.5 0,-112.5 48,-112.5 48,-93.5 0,-93.5"/>
<text text-anchor="middle" x="24" y="-100.5" font-family="Helvetica,sans-Serif" font-size="10.00">Option</text>
</a>
</g>
</g>
<!-- Node3&#45;&gt;Node2 -->
<g id="edge3" class="edge"><title>Node3&#45;&gt;Node2</title>
<path fill="none" stroke="midnightblue" d="M44.8316,-118.679C56.0354,-126.797 70.6389,-136.198 85,-142 139.51,-164.024 153.925,-169.85 212,-179 272.678,-188.56 342.984,-189.46 391.94,-188.487"/>
<polygon fill="midnightblue" stroke="midnightblue" points="46.7443,-115.739 36.6448,-112.537 42.5434,-121.338 46.7443,-115.739"/>
</g>
<!-- Node4 -->
<g id="node5" class="node"><title>Node4</title>
<g id="a_node5"><a xlink:href="classarm__compute_1_1utils_1_1_simple_option.xhtml" target="_top" xlink:title="Implementation of an option that accepts a single value.">
<polygon fill="white" stroke="black" points="85,-93.5 85,-112.5 194,-112.5 194,-93.5 85,-93.5"/>
<text text-anchor="middle" x="139.5" y="-100.5" font-family="Helvetica,sans-Serif" font-size="10.00">SimpleOption&lt; T &gt;</text>
</a>
</g>
</g>
<!-- Node3&#45;&gt;Node4 -->
<g id="edge5" class="edge"><title>Node3&#45;&gt;Node4</title>
<path fill="none" stroke="midnightblue" d="M58.2926,-103C66.6278,-103 75.7825,-103 84.8323,-103"/>
<polygon fill="midnightblue" stroke="midnightblue" points="58.2423,-99.5001 48.2423,-103 58.2423,-106.5 58.2423,-99.5001"/>
</g>
<!-- Node6 -->
<g id="node7" class="node"><title>Node6</title>
<g id="a_node7"><a xlink:href="classarm__compute_1_1utils_1_1_simple_option.xhtml" target="_top" xlink:title=" ">
<polygon fill="white" stroke="black" points="374,-46 374,-76 534,-76 534,-46 374,-46"/>
<text text-anchor="start" x="382" y="-64" font-family="Helvetica,sans-Serif" font-size="10.00">SimpleOption&lt; arm_compute</text>
<text text-anchor="middle" x="454" y="-53" font-family="Helvetica,sans-Serif" font-size="10.00">::DataType &gt;</text>
</a>
</g>
</g>
<!-- Node3&#45;&gt;Node6 -->
<g id="edge8" class="edge"><title>Node3&#45;&gt;Node6</title>
<path fill="none" stroke="midnightblue" d="M57.6203,-91.4392C66.4193,-88.6604 75.9974,-85.9388 85,-84 182.936,-62.9085 298.66,-59.009 373.822,-59.164"/>
<polygon fill="midnightblue" stroke="midnightblue" points="56.5023,-88.1223 48.0893,-94.5622 58.682,-94.7743 56.5023,-88.1223"/>
</g>
<!-- Node8 -->
<g id="node9" class="node"><title>Node8</title>
<g id="a_node9"><a xlink:href="classarm__compute_1_1utils_1_1_simple_option.xhtml" target="_top" xlink:title="Implementation of an option that accepts a single value.">
<polygon fill="white" stroke="black" points="85,-0.5 85,-19.5 194,-19.5 194,-0.5 85,-0.5"/>
<text text-anchor="middle" x="139.5" y="-7.5" font-family="Helvetica,sans-Serif" font-size="10.00">SimpleOption&lt; T &gt;</text>
</a>
</g>
</g>
<!-- Node3&#45;&gt;Node8 -->
<g id="edge12" class="edge"><title>Node3&#45;&gt;Node8</title>
<path fill="none" stroke="midnightblue" d="M32.1694,-83.3805C38.7544,-67.9292 49.9411,-46.9111 66,-34 73.8531,-27.6862 83.4332,-23.006 93.0228,-19.5459"/>
<polygon fill="midnightblue" stroke="midnightblue" points="28.7794,-82.4343 28.3425,-93.0201 35.2854,-85.0173 28.7794,-82.4343"/>
</g>
<!-- Node9 -->
<g id="node10" class="node"><title>Node9</title>
<g id="a_node10"><a xlink:href="classarm__compute_1_1utils_1_1_simple_option.xhtml" target="_top" xlink:title=" ">
<polygon fill="white" stroke="black" points="388.5,-105.5 388.5,-124.5 519.5,-124.5 519.5,-105.5 388.5,-105.5"/>
<text text-anchor="middle" x="454" y="-112.5" font-family="Helvetica,sans-Serif" font-size="10.00">SimpleOption&lt; size_t &gt;</text>
</a>
</g>
</g>
<!-- Node3&#45;&gt;Node9 -->
<g id="edge14" class="edge"><title>Node3&#45;&gt;Node9</title>
<path fill="none" stroke="midnightblue" d="M57.9881,-115.501C66.6486,-118.212 76.0678,-120.665 85,-122 204.142,-139.804 235.763,-134.409 356,-127 366.501,-126.353 377.605,-125.315 388.404,-124.115"/>
<polygon fill="midnightblue" stroke="midnightblue" points="58.8383,-112.095 48.2446,-112.252 56.6241,-118.736 58.8383,-112.095"/>
</g>
<!-- Node4&#45;&gt;Node2 -->
<g id="edge4" class="edge"><title>Node4&#45;&gt;Node2</title>
<path fill="none" stroke="orange" stroke-dasharray="5,2" d="M176.674,-115.797C187.93,-119.602 200.424,-123.647 212,-127 280.268,-146.776 360.651,-165.57 409.172,-176.432"/>
<polygon fill="orange" stroke="orange" points="177.75,-112.466 167.156,-112.539 175.483,-119.089 177.75,-112.466"/>
<text text-anchor="middle" x="284" y="-167" font-family="Helvetica,sans-Serif" font-size="10.00"> &lt; bool &gt;</text>
</g>
<!-- Node4&#45;&gt;Node6 -->
<g id="edge9" class="edge"><title>Node4&#45;&gt;Node6</title>
<path fill="none" stroke="orange" stroke-dasharray="5,2" d="M204.36,-92.1434C206.939,-91.7489 209.494,-91.3662 212,-91 265.924,-83.1223 326.829,-75.5521 373.922,-69.9869"/>
<polygon fill="orange" stroke="orange" points="203.676,-88.7077 194.338,-93.7127 204.759,-95.6235 203.676,-88.7077"/>
<text text-anchor="middle" x="284" y="-94" font-family="Helvetica,sans-Serif" font-size="10.00"> &lt; arm_compute::DataType &gt;</text>
</g>
<!-- Node4&#45;&gt;Node9 -->
<g id="edge15" class="edge"><title>Node4&#45;&gt;Node9</title>
<path fill="none" stroke="orange" stroke-dasharray="5,2" d="M204.307,-105.45C258.003,-107.512 334.442,-110.447 388.369,-112.518"/>
<polygon fill="orange" stroke="orange" points="204.348,-101.949 194.221,-105.063 204.079,-108.944 204.348,-101.949"/>
<text text-anchor="middle" x="284" y="-115" font-family="Helvetica,sans-Serif" font-size="10.00"> &lt; size_t &gt;</text>
</g>
<!-- Node5 -->
<g id="node6" class="node"><title>Node5</title>
<g id="a_node6"><a xlink:href="classarm__compute_1_1utils_1_1_enum_option.xhtml" target="_top" xlink:title=" ">
<polygon fill="white" stroke="black" points="714,-46 714,-76 869,-76 869,-46 714,-46"/>
<text text-anchor="start" x="722" y="-64" font-family="Helvetica,sans-Serif" font-size="10.00">EnumOption&lt; arm_compute</text>
<text text-anchor="middle" x="791.5" y="-53" font-family="Helvetica,sans-Serif" font-size="10.00">::DataType &gt;</text>
</a>
</g>
</g>
<!-- Node5&#45;&gt;Node0 -->
<g id="edge6" class="edge"><title>Node5&#45;&gt;Node0</title>
<path fill="none" stroke="#9a32cd" stroke-dasharray="5,2" d="M878.968,-76.7936C898.734,-80.6072 919.624,-84.7996 939,-89 960.76,-93.7172 984.961,-99.5603 1004.43,-104.411"/>
<polygon fill="#9a32cd" stroke="#9a32cd" points="879.539,-73.3394 869.059,-74.895 878.222,-80.2143 879.539,-73.3394"/>
<text text-anchor="middle" x="913" y="-92" font-family="Helvetica,sans-Serif" font-size="10.00"> data_type</text>
</g>
<!-- Node6&#45;&gt;Node5 -->
<g id="edge7" class="edge"><title>Node6&#45;&gt;Node5</title>
<path fill="none" stroke="midnightblue" d="M544.138,-61C597.048,-61 663.441,-61 713.969,-61"/>
<polygon fill="midnightblue" stroke="midnightblue" points="544.084,-57.5001 534.084,-61 544.084,-64.5001 544.084,-57.5001"/>
</g>
<!-- Node7 -->
<g id="node8" class="node"><title>Node7</title>
<g id="a_node8"><a xlink:href="classarm__compute_1_1utils_1_1_enum_option.xhtml" target="_top" xlink:title="Implementation of a simple option that accepts a value from a fixed set.">
<polygon fill="white" stroke="black" points="402,-5.5 402,-24.5 506,-24.5 506,-5.5 402,-5.5"/>
<text text-anchor="middle" x="454" y="-12.5" font-family="Helvetica,sans-Serif" font-size="10.00">EnumOption&lt; T &gt;</text>
</a>
</g>
</g>
<!-- Node7&#45;&gt;Node5 -->
<g id="edge10" class="edge"><title>Node7&#45;&gt;Node5</title>
<path fill="none" stroke="orange" stroke-dasharray="5,2" d="M516.374,-22.3881C565.119,-28.3781 634.991,-37.2361 696,-46 701.837,-46.8385 707.873,-47.7329 713.939,-48.6516"/>
<polygon fill="orange" stroke="orange" points="516.655,-18.8965 506.304,-21.1545 515.804,-25.8445 516.655,-18.8965"/>
<text text-anchor="middle" x="624" y="-49" font-family="Helvetica,sans-Serif" font-size="10.00"> &lt; arm_compute::DataType &gt;</text>
</g>
<!-- Node8&#45;&gt;Node7 -->
<g id="edge11" class="edge"><title>Node8&#45;&gt;Node7</title>
<path fill="none" stroke="midnightblue" d="M204.424,-11.0228C262.749,-11.956 347.835,-13.3174 401.793,-14.1807"/>
<polygon fill="midnightblue" stroke="midnightblue" points="204.275,-7.52005 194.221,-10.8595 204.163,-14.5192 204.275,-7.52005"/>
</g>
<!-- Node9&#45;&gt;Node0 -->
<g id="edge13" class="edge"><title>Node9&#45;&gt;Node0</title>
<path fill="none" stroke="#9a32cd" stroke-dasharray="5,2" d="M530.062,-114.872C639.377,-114.686 841.826,-114.341 956.663,-114.145"/>
<polygon fill="#9a32cd" stroke="#9a32cd" points="529.774,-111.373 519.78,-114.89 529.786,-118.373 529.774,-111.373"/>
<text text-anchor="middle" x="791.5" y="-151" font-family="Helvetica,sans-Serif" font-size="10.00"> K</text>
<text text-anchor="middle" x="791.5" y="-140" font-family="Helvetica,sans-Serif" font-size="10.00">M</text>
<text text-anchor="middle" x="791.5" y="-129" font-family="Helvetica,sans-Serif" font-size="10.00">N</text>
<text text-anchor="middle" x="791.5" y="-118" font-family="Helvetica,sans-Serif" font-size="10.00">B</text>
</g>
</g>
</svg>
