<?xml version="1.0" encoding="UTF-8" standalone="no"?>
<!DOCTYPE svg PUBLIC "-//W3C//DTD SVG 1.1//EN"
 "http://www.w3.org/Graphics/SVG/1.1/DTD/svg11.dtd">
<!-- Generated by graphviz version 2.38.0 (20140413.2041)
 -->
<!-- Title: examples/gemm_tuner Pages: 1 -->
<svg width="147pt" height="367pt"
 viewBox="0.00 0.00 146.58 367.00" xmlns="http://www.w3.org/2000/svg" xmlns:xlink="http://www.w3.org/1999/xlink">
<g id="graph0" class="graph" transform="scale(1 1) rotate(0) translate(4 363)">
<title>examples/gemm_tuner</title>
<polygon fill="white" stroke="none" points="-4,4 -4,-363 142.584,-363 142.584,4 -4,4"/>
<g id="clust1" class="cluster"><title>clusterdir_d28a4824dc47e487b107a5db32ef43c4</title>
<g id="a_clust1"><a xlink:href="dir_d28a4824dc47e487b107a5db32ef43c4.xhtml" target="_top" xlink:title="examples">
<polygon fill="#ddddee" stroke="black" points="18.8012,-280 18.8012,-351 112.801,-351 112.801,-280 18.8012,-280"/>
<text text-anchor="middle" x="65.8012" y="-339" font-family="Helvetica,sans-Serif" font-size="10.00">examples</text>
</a>
</g>
</g>
<!-- dir_9a60f706a5aff86a468215c27fa011b2 -->
<g id="node1" class="node"><title>dir_9a60f706a5aff86a468215c27fa011b2</title>
<g id="a_node1"><a xlink:href="dir_9a60f706a5aff86a468215c27fa011b2.xhtml" target="_top" xlink:title="gemm_tuner">
<polygon fill="#eeeeff" stroke="black" points="105.301,-324 26.3012,-324 26.3012,-288 105.301,-288 105.301,-324"/>
<text text-anchor="middle" x="65.8012" y="-303.5" font-family="Helvetica,sans-Serif" font-size="10.00">gemm_tuner</text>
</a>
</g>
</g>
<!-- dir_68267d1309a1af8e8297ef4c3efbcdba -->
<g id="node2" class="node"><title>dir_68267d1309a1af8e8297ef4c3efbcdba</title>
<g id="a_node2"><a xlink:href="dir_68267d1309a1af8e8297ef4c3efbcdba.xhtml" target="_top" xlink:title="src">
<polygon fill="white" stroke="red" points="65.8012,-180 11.8012,-180 11.8012,-144 65.8012,-144 65.8012,-180"/>
<text text-anchor="middle" x="38.8012" y="-159.5" font-family="Helvetica,sans-Serif" font-size="10.00">src</text>
</a>
</g>
</g>
<!-- dir_9a60f706a5aff86a468215c27fa011b2&#45;&gt;dir_68267d1309a1af8e8297ef4c3efbcdba -->
<g id="edge6" class="edge"><title>dir_9a60f706a5aff86a468215c27fa011b2&#45;&gt;dir_68267d1309a1af8e8297ef4c3efbcdba</title>
<path fill="none" stroke="black" d="M62.5443,-287.871C57.9427,-263.67 49.4891,-219.211 44.0097,-190.393"/>
<polygon fill="black" stroke="black" points="47.376,-189.359 42.0696,-180.189 40.4992,-190.667 47.376,-189.359"/>
<g id="a_edge6&#45;headlabel"><a xlink:href="dir_000061_000013.xhtml" target="_top" xlink:title="4">
<text text-anchor="middle" x="50.8366" y="-189.86" font-family="Helvetica,sans-Serif" font-size="10.00">4</text>
</a>
</g>
</g>
<!-- dir_cbdb8362360e11eafe2fa3bc74cf0ffd -->
<g id="node3" class="node"><title>dir_cbdb8362360e11eafe2fa3bc74cf0ffd</title>
<g id="a_node3"><a xlink:href="dir_cbdb8362360e11eafe2fa3bc74cf0ffd.xhtml" target="_top" xlink:title="utils">
<polygon fill="white" stroke="red" points="120.801,-108 66.8012,-108 66.8012,-72 120.801,-72 120.801,-108"/>
<text text-anchor="middle" x="93.8012" y="-87.5" font-family="Helvetica,sans-Serif" font-size="10.00">utils</text>
</a>
</g>
</g>
<!-- dir_9a60f706a5aff86a468215c27fa011b2&#45;&gt;dir_cbdb8362360e11eafe2fa3bc74cf0ffd -->
<g id="edge7" class="edge"><title>dir_9a60f706a5aff86a468215c27fa011b2&#45;&gt;dir_cbdb8362360e11eafe2fa3bc74cf0ffd</title>
<path fill="none" stroke="black" d="M96.5702,-287.907C109.346,-279.021 122.803,-266.883 129.801,-252 150.768,-207.415 127.303,-150.053 109.651,-117.217"/>
<polygon fill="black" stroke="black" points="112.573,-115.27 104.642,-108.245 106.461,-118.683 112.573,-115.27"/>
<g id="a_edge7&#45;headlabel"><a xlink:href="dir_000061_000032.xhtml" target="_top" xlink:title="12">
<text text-anchor="middle" x="116.804" y="-114.525" font-family="Helvetica,sans-Serif" font-size="10.00">12</text>
</a>
</g>
</g>
<!-- dir_214608ef36d61442cb2b0c1c4e9a7def -->
<g id="node4" class="node"><title>dir_214608ef36d61442cb2b0c1c4e9a7def</title>
<g id="a_node4"><a xlink:href="dir_214608ef36d61442cb2b0c1c4e9a7def.xhtml" target="_top" xlink:title="arm_compute">
<polygon fill="white" stroke="red" points="103.801,-36 19.8012,-36 19.8012,-0 103.801,-0 103.801,-36"/>
<text text-anchor="middle" x="61.8012" y="-15.5" font-family="Helvetica,sans-Serif" font-size="10.00">arm_compute</text>
</a>
</g>
</g>
<!-- dir_9a60f706a5aff86a468215c27fa011b2&#45;&gt;dir_214608ef36d61442cb2b0c1c4e9a7def -->
<g id="edge8" class="edge"><title>dir_9a60f706a5aff86a468215c27fa011b2&#45;&gt;dir_214608ef36d61442cb2b0c1c4e9a7def</title>
<path fill="none" stroke="black" d="M53.8255,-287.803C38.4661,-264.595 12.6383,-221.375 2.80117,-180 -8.90579,-130.76 20.9595,-75.9125 42.3423,-44.6231"/>
<polygon fill="black" stroke="black" points="45.2052,-46.6366 48.1069,-36.4469 39.4841,-42.603 45.2052,-46.6366"/>
<g id="a_edge8&#45;headlabel"><a xlink:href="dir_000061_000000.xhtml" target="_top" xlink:title="22">
<text text-anchor="middle" x="45.4544" y="-48.7105" font-family="Helvetica,sans-Serif" font-size="10.00">22</text>
</a>
</g>
</g>
<!-- dir_59425e443f801f1f2fd8bbe4959a3ccf -->
<g id="node5" class="node"><title>dir_59425e443f801f1f2fd8bbe4959a3ccf</title>
<g id="a_node5"><a xlink:href="dir_59425e443f801f1f2fd8bbe4959a3ccf.xhtml" target="_top" xlink:title="tests">
<polygon fill="white" stroke="red" points="120.801,-252 66.8012,-252 66.8012,-216 120.801,-216 120.801,-252"/>
<text text-anchor="middle" x="93.8012" y="-231.5" font-family="Helvetica,sans-Serif" font-size="10.00">tests</text>
</a>
</g>
</g>
<!-- dir_9a60f706a5aff86a468215c27fa011b2&#45;&gt;dir_59425e443f801f1f2fd8bbe4959a3ccf -->
<g id="edge9" class="edge"><title>dir_9a60f706a5aff86a468215c27fa011b2&#45;&gt;dir_59425e443f801f1f2fd8bbe4959a3ccf</title>
<path fill="none" stroke="black" d="M72.7225,-287.697C75.8759,-279.813 79.6795,-270.304 83.1826,-261.546"/>
<polygon fill="black" stroke="black" points="86.4951,-262.689 86.9594,-252.104 79.9958,-260.089 86.4951,-262.689"/>
<g id="a_edge9&#45;headlabel"><a xlink:href="dir_000061_000017.xhtml" target="_top" xlink:title="3">
<text text-anchor="middle" x="87.7964" y="-264.581" font-family="Helvetica,sans-Serif" font-size="10.00">3</text>
</a>
</g>
</g>
<!-- dir_68267d1309a1af8e8297ef4c3efbcdba&#45;&gt;dir_cbdb8362360e11eafe2fa3bc74cf0ffd -->
<g id="edge1" class="edge"><title>dir_68267d1309a1af8e8297ef4c3efbcdba&#45;&gt;dir_cbdb8362360e11eafe2fa3bc74cf0ffd</title>
<path fill="none" stroke="black" d="M52.3967,-143.697C58.9238,-135.389 66.8692,-125.277 74.0478,-116.141"/>
<polygon fill="black" stroke="black" points="76.9359,-118.13 80.3621,-108.104 71.4317,-113.805 76.9359,-118.13"/>
<g id="a_edge1&#45;headlabel"><a xlink:href="dir_000013_000032.xhtml" target="_top" xlink:title="6">
<text text-anchor="middle" x="76.9477" y="-120.211" font-family="Helvetica,sans-Serif" font-size="10.00">6</text>
</a>
</g>
</g>
<!-- dir_68267d1309a1af8e8297ef4c3efbcdba&#45;&gt;dir_214608ef36d61442cb2b0c1c4e9a7def -->
<g id="edge2" class="edge"><title>dir_68267d1309a1af8e8297ef4c3efbcdba&#45;&gt;dir_214608ef36d61442cb2b0c1c4e9a7def</title>
<path fill="none" stroke="black" d="M36.991,-143.871C38.3586,-119.564 45.3232,-74.8187 51.993,-46.0132"/>
<polygon fill="black" stroke="black" points="55.4194,-46.7374 54.4261,-36.1893 48.6247,-45.0546 55.4194,-46.7374"/>
<g id="a_edge2&#45;headlabel"><a xlink:href="dir_000013_000000.xhtml" target="_top" xlink:title="3997">
<text text-anchor="middle" x="57.3113" y="-48.4092" font-family="Helvetica,sans-Serif" font-size="10.00">3997</text>
</a>
</g>
</g>
<!-- dir_cbdb8362360e11eafe2fa3bc74cf0ffd&#45;&gt;dir_214608ef36d61442cb2b0c1c4e9a7def -->
<g id="edge3" class="edge"><title>dir_cbdb8362360e11eafe2fa3bc74cf0ffd&#45;&gt;dir_214608ef36d61442cb2b0c1c4e9a7def</title>
<path fill="none" stroke="black" d="M79.9753,-71.6966C75.5583,-63.8132 70.9926,-54.3042 67.3648,-45.5464"/>
<polygon fill="black" stroke="black" points="70.5878,-44.1763 63.7253,-36.1043 64.0562,-46.694 70.5878,-44.1763"/>
<g id="a_edge3&#45;headlabel"><a xlink:href="dir_000032_000000.xhtml" target="_top" xlink:title="38">
<text text-anchor="middle" x="74.5298" y="-44.0092" font-family="Helvetica,sans-Serif" font-size="10.00">38</text>
</a>
</g>
</g>
<!-- dir_214608ef36d61442cb2b0c1c4e9a7def&#45;&gt;dir_68267d1309a1af8e8297ef4c3efbcdba -->
<g id="edge4" class="edge"><title>dir_214608ef36d61442cb2b0c1c4e9a7def&#45;&gt;dir_68267d1309a1af8e8297ef4c3efbcdba</title>
<path fill="none" stroke="black" d="M63.6079,-36.1893C62.231,-60.5311 55.262,-105.28 48.5926,-134.059"/>
<polygon fill="black" stroke="black" points="45.1691,-133.323 46.16,-143.871 51.9635,-135.007 45.1691,-133.323"/>
<g id="a_edge4&#45;headlabel"><a xlink:href="dir_000000_000013.xhtml" target="_top" xlink:title="1">
<text text-anchor="middle" x="43.2781" y="-126.651" font-family="Helvetica,sans-Serif" font-size="10.00">1</text>
</a>
</g>
</g>
<!-- dir_214608ef36d61442cb2b0c1c4e9a7def&#45;&gt;dir_cbdb8362360e11eafe2fa3bc74cf0ffd -->
<g id="edge5" class="edge"><title>dir_214608ef36d61442cb2b0c1c4e9a7def&#45;&gt;dir_cbdb8362360e11eafe2fa3bc74cf0ffd</title>
<path fill="none" stroke="black" d="M75.5153,-36.1043C79.9298,-43.9602 84.502,-53.4616 88.1456,-62.232"/>
<polygon fill="black" stroke="black" points="84.9347,-63.6328 91.8068,-71.6966 91.4633,-61.1074 84.9347,-63.6328"/>
<g id="a_edge5&#45;headlabel"><a xlink:href="dir_000000_000032.xhtml" target="_top" xlink:title="1">
<text text-anchor="middle" x="80.9898" y="-58.8046" font-family="Helvetica,sans-Serif" font-size="10.00">1</text>
</a>
</g>
</g>
<!-- dir_59425e443f801f1f2fd8bbe4959a3ccf&#45;&gt;dir_68267d1309a1af8e8297ef4c3efbcdba -->
<g id="edge10" class="edge"><title>dir_59425e443f801f1f2fd8bbe4959a3ccf&#45;&gt;dir_68267d1309a1af8e8297ef4c3efbcdba</title>
<path fill="none" stroke="black" d="M80.2057,-215.697C73.6785,-207.389 65.7331,-197.277 58.5546,-188.141"/>
<polygon fill="black" stroke="black" points="61.1707,-185.805 52.2403,-180.104 55.6664,-190.13 61.1707,-185.805"/>
<g id="a_edge10&#45;headlabel"><a xlink:href="dir_000017_000013.xhtml" target="_top" xlink:title="73">
<text text-anchor="middle" x="65.624" y="-184.377" font-family="Helvetica,sans-Serif" font-size="10.00">73</text>
</a>
</g>
</g>
<!-- dir_59425e443f801f1f2fd8bbe4959a3ccf&#45;&gt;dir_cbdb8362360e11eafe2fa3bc74cf0ffd -->
<g id="edge11" class="edge"><title>dir_59425e443f801f1f2fd8bbe4959a3ccf&#45;&gt;dir_cbdb8362360e11eafe2fa3bc74cf0ffd</title>
<path fill="none" stroke="black" d="M93.8012,-215.871C93.8012,-191.67 93.8012,-147.211 93.8012,-118.393"/>
<polygon fill="black" stroke="black" points="97.3013,-118.189 93.8012,-108.189 90.3013,-118.189 97.3013,-118.189"/>
<g id="a_edge11&#45;headlabel"><a xlink:href="dir_000017_000032.xhtml" target="_top" xlink:title="44">
<text text-anchor="middle" x="100.14" y="-119.284" font-family="Helvetica,sans-Serif" font-size="10.00">44</text>
</a>
</g>
</g>
<!-- dir_59425e443f801f1f2fd8bbe4959a3ccf&#45;&gt;dir_214608ef36d61442cb2b0c1c4e9a7def -->
<g id="edge12" class="edge"><title>dir_59425e443f801f1f2fd8bbe4959a3ccf&#45;&gt;dir_214608ef36d61442cb2b0c1c4e9a7def</title>
<path fill="none" stroke="black" d="M104.79,-215.684C122.615,-185.215 153.56,-120.64 129.801,-72 123.996,-60.1143 114.095,-50.1186 103.618,-42.1245"/>
<polygon fill="black" stroke="black" points="105.345,-39.0595 95.159,-36.1447 101.304,-44.7754 105.345,-39.0595"/>
<g id="a_edge12&#45;headlabel"><a xlink:href="dir_000017_000000.xhtml" target="_top" xlink:title="1394">
<text text-anchor="middle" x="109.919" y="-36.3161" font-family="Helvetica,sans-Serif" font-size="10.00">1394</text>
</a>
</g>
</g>
</g>
</svg>
