<?xml version="1.0" encoding="UTF-8" standalone="no"?>
<!DOCTYPE svg PUBLIC "-//W3C//DTD SVG 1.1//EN"
 "http://www.w3.org/Graphics/SVG/1.1/DTD/svg11.dtd">
<!-- Generated by graphviz version 2.38.0 (20140413.2041)
 -->
<!-- Title: src/runtime/CL/functions Pages: 1 -->
<svg width="170pt" height="367pt"
 viewBox="0.00 0.00 170.28 367.00" xmlns="http://www.w3.org/2000/svg" xmlns:xlink="http://www.w3.org/1999/xlink">
<g id="graph0" class="graph" transform="scale(1 1) rotate(0) translate(4 363)">
<title>src/runtime/CL/functions</title>
<polygon fill="white" stroke="none" points="-4,4 -4,-363 166.277,-363 166.277,4 -4,4"/>
<g id="clust1" class="cluster"><title>clusterdir_43c3fdbf778d1fd99e2e38f09fddd920</title>
<g id="a_clust1"><a xlink:href="dir_43c3fdbf778d1fd99e2e38f09fddd920.xhtml" target="_top" xlink:title="CL">
<polygon fill="#ddddee" stroke="black" points="57.0342,-280 57.0342,-351 133.034,-351 133.034,-280 57.0342,-280"/>
<text text-anchor="middle" x="95.0342" y="-339" font-family="Helvetica,sans-Serif" font-size="10.00">CL</text>
</a>
</g>
</g>
<!-- dir_0304d3529340c629ae0050036d07056a -->
<g id="node1" class="node"><title>dir_0304d3529340c629ae0050036d07056a</title>
<g id="a_node1"><a xlink:href="dir_0304d3529340c629ae0050036d07056a.xhtml" target="_top" xlink:title="functions">
<polygon fill="#eeeeff" stroke="black" points="125.034,-324 65.0342,-324 65.0342,-288 125.034,-288 125.034,-324"/>
<text text-anchor="middle" x="95.0342" y="-303.5" font-family="Helvetica,sans-Serif" font-size="10.00">functions</text>
</a>
</g>
</g>
<!-- dir_214608ef36d61442cb2b0c1c4e9a7def -->
<g id="node2" class="node"><title>dir_214608ef36d61442cb2b0c1c4e9a7def</title>
<g id="a_node2"><a xlink:href="dir_214608ef36d61442cb2b0c1c4e9a7def.xhtml" target="_top" xlink:title="arm_compute">
<polygon fill="white" stroke="red" points="98.0342,-180 14.0342,-180 14.0342,-144 98.0342,-144 98.0342,-180"/>
<text text-anchor="middle" x="56.0342" y="-159.5" font-family="Helvetica,sans-Serif" font-size="10.00">arm_compute</text>
</a>
</g>
</g>
<!-- dir_0304d3529340c629ae0050036d07056a&#45;&gt;dir_214608ef36d61442cb2b0c1c4e9a7def -->
<g id="edge3" class="edge"><title>dir_0304d3529340c629ae0050036d07056a&#45;&gt;dir_214608ef36d61442cb2b0c1c4e9a7def</title>
<path fill="none" stroke="black" d="M90.3299,-287.871C83.6538,-263.564 71.3647,-218.819 63.4534,-190.013"/>
<polygon fill="black" stroke="black" points="66.7787,-188.905 60.7552,-180.189 60.0287,-190.759 66.7787,-188.905"/>
<g id="a_edge3&#45;headlabel"><a xlink:href="dir_000158_000000.xhtml" target="_top" xlink:title="528">
<text text-anchor="middle" x="70.4685" y="-189.12" font-family="Helvetica,sans-Serif" font-size="10.00">528</text>
</a>
</g>
</g>
<!-- dir_aebb8dcc11953d78e620bbef0b9e2183 -->
<g id="node3" class="node"><title>dir_aebb8dcc11953d78e620bbef0b9e2183</title>
<g id="a_node3"><a xlink:href="dir_aebb8dcc11953d78e620bbef0b9e2183.xhtml" target="_top" xlink:title="core">
<polygon fill="white" stroke="red" points="136.034,-108 82.0342,-108 82.0342,-72 136.034,-72 136.034,-108"/>
<text text-anchor="middle" x="109.034" y="-87.5" font-family="Helvetica,sans-Serif" font-size="10.00">core</text>
</a>
</g>
</g>
<!-- dir_0304d3529340c629ae0050036d07056a&#45;&gt;dir_aebb8dcc11953d78e620bbef0b9e2183 -->
<g id="edge4" class="edge"><title>dir_0304d3529340c629ae0050036d07056a&#45;&gt;dir_aebb8dcc11953d78e620bbef0b9e2183</title>
<path fill="none" stroke="black" d="M123.294,-287.971C135.466,-278.957 148.407,-266.697 155.034,-252 175.679,-206.219 147.511,-148.907 127.011,-116.477"/>
<polygon fill="black" stroke="black" points="129.882,-114.472 121.479,-108.019 124.024,-118.304 129.882,-114.472"/>
<g id="a_edge4&#45;headlabel"><a xlink:href="dir_000158_000014.xhtml" target="_top" xlink:title="347">
<text text-anchor="middle" x="134.226" y="-113.426" font-family="Helvetica,sans-Serif" font-size="10.00">347</text>
</a>
</g>
</g>
<!-- dir_5f09115d5b51f09d1c93a8d5eb5f8d5c -->
<g id="node4" class="node"><title>dir_5f09115d5b51f09d1c93a8d5eb5f8d5c</title>
<g id="a_node4"><a xlink:href="dir_5f09115d5b51f09d1c93a8d5eb5f8d5c.xhtml" target="_top" xlink:title="gemm">
<polygon fill="none" stroke="black" points="146.034,-252 92.0342,-252 92.0342,-216 146.034,-216 146.034,-252"/>
<text text-anchor="middle" x="119.034" y="-231.5" font-family="Helvetica,sans-Serif" font-size="10.00">gemm</text>
</a>
</g>
</g>
<!-- dir_0304d3529340c629ae0050036d07056a&#45;&gt;dir_5f09115d5b51f09d1c93a8d5eb5f8d5c -->
<g id="edge5" class="edge"><title>dir_0304d3529340c629ae0050036d07056a&#45;&gt;dir_5f09115d5b51f09d1c93a8d5eb5f8d5c</title>
<path fill="none" stroke="black" d="M100.967,-287.697C103.641,-279.898 106.86,-270.509 109.836,-261.829"/>
<polygon fill="black" stroke="black" points="113.237,-262.699 113.17,-252.104 106.616,-260.429 113.237,-262.699"/>
<g id="a_edge5&#45;headlabel"><a xlink:href="dir_000158_000159.xhtml" target="_top" xlink:title="2">
<text text-anchor="middle" x="114.757" y="-264.52" font-family="Helvetica,sans-Serif" font-size="10.00">2</text>
</a>
</g>
</g>
<!-- dir_5815af820a9cc9481f1d0990a0d60286 -->
<g id="node5" class="node"><title>dir_5815af820a9cc9481f1d0990a0d60286</title>
<g id="a_node5"><a xlink:href="dir_5815af820a9cc9481f1d0990a0d60286.xhtml" target="_top" xlink:title="support">
<polygon fill="none" stroke="black" points="72.0342,-36 18.0342,-36 18.0342,-0 72.0342,-0 72.0342,-36"/>
<text text-anchor="middle" x="45.0342" y="-15.5" font-family="Helvetica,sans-Serif" font-size="10.00">support</text>
</a>
</g>
</g>
<!-- dir_0304d3529340c629ae0050036d07056a&#45;&gt;dir_5815af820a9cc9481f1d0990a0d60286 -->
<g id="edge6" class="edge"><title>dir_0304d3529340c629ae0050036d07056a&#45;&gt;dir_5815af820a9cc9481f1d0990a0d60286</title>
<path fill="none" stroke="black" d="M77.2655,-287.986C55.3441,-265.635 19.2355,-224.029 5.03422,-180 -10.029,-133.299 12.6748,-77.4486 29.5476,-45.312"/>
<polygon fill="black" stroke="black" points="32.8361,-46.5919 34.5485,-36.1363 26.6897,-43.2419 32.8361,-46.5919"/>
<g id="a_edge6&#45;headlabel"><a xlink:href="dir_000158_000026.xhtml" target="_top" xlink:title="125">
<text text-anchor="middle" x="33.609" y="-48.6069" font-family="Helvetica,sans-Serif" font-size="10.00">125</text>
</a>
</g>
</g>
<!-- dir_214608ef36d61442cb2b0c1c4e9a7def&#45;&gt;dir_aebb8dcc11953d78e620bbef0b9e2183 -->
<g id="edge1" class="edge"><title>dir_214608ef36d61442cb2b0c1c4e9a7def&#45;&gt;dir_aebb8dcc11953d78e620bbef0b9e2183</title>
<path fill="none" stroke="black" d="M63.2196,-143.697C68.708,-135.305 76.2646,-125.07 83.7189,-115.861"/>
<polygon fill="black" stroke="black" points="86.4714,-118.026 90.1888,-108.104 81.0958,-113.542 86.4714,-118.026"/>
<g id="a_edge1&#45;headlabel"><a xlink:href="dir_000000_000014.xhtml" target="_top" xlink:title="1">
<text text-anchor="middle" x="86.3494" y="-120.105" font-family="Helvetica,sans-Serif" font-size="10.00">1</text>
</a>
</g>
</g>
<!-- dir_214608ef36d61442cb2b0c1c4e9a7def&#45;&gt;dir_5815af820a9cc9481f1d0990a0d60286 -->
<g id="edge2" class="edge"><title>dir_214608ef36d61442cb2b0c1c4e9a7def&#45;&gt;dir_5815af820a9cc9481f1d0990a0d60286</title>
<path fill="none" stroke="black" d="M50.1229,-143.871C45.6898,-119.67 41.9542,-75.2108 41.6973,-46.3932"/>
<polygon fill="black" stroke="black" points="45.1986,-46.2156 41.7749,-36.1893 38.1988,-46.1623 45.1986,-46.2156"/>
<g id="a_edge2&#45;headlabel"><a xlink:href="dir_000000_000026.xhtml" target="_top" xlink:title="26">
<text text-anchor="middle" x="48.0105" y="-47.3317" font-family="Helvetica,sans-Serif" font-size="10.00">26</text>
</a>
</g>
</g>
<!-- dir_aebb8dcc11953d78e620bbef0b9e2183&#45;&gt;dir_214608ef36d61442cb2b0c1c4e9a7def -->
<g id="edge7" class="edge"><title>dir_aebb8dcc11953d78e620bbef0b9e2183&#45;&gt;dir_214608ef36d61442cb2b0c1c4e9a7def</title>
<path fill="none" stroke="black" d="M101.979,-108.104C96.5234,-116.467 88.9824,-126.694 81.5266,-135.92"/>
<polygon fill="black" stroke="black" points="78.7602,-133.772 75.0511,-143.697 84.1396,-138.251 78.7602,-133.772"/>
<g id="a_edge7&#45;headlabel"><a xlink:href="dir_000014_000000.xhtml" target="_top" xlink:title="2170">
<text text-anchor="middle" x="78.8784" y="-126.693" font-family="Helvetica,sans-Serif" font-size="10.00">2170</text>
</a>
</g>
</g>
<!-- dir_aebb8dcc11953d78e620bbef0b9e2183&#45;&gt;dir_5815af820a9cc9481f1d0990a0d60286 -->
<g id="edge8" class="edge"><title>dir_aebb8dcc11953d78e620bbef0b9e2183&#45;&gt;dir_5815af820a9cc9481f1d0990a0d60286</title>
<path fill="none" stroke="black" d="M93.214,-71.6966C85.4638,-63.2198 75.9952,-52.8636 67.5097,-43.5826"/>
<polygon fill="black" stroke="black" points="70.0033,-41.1229 60.6725,-36.1043 64.8371,-45.8464 70.0033,-41.1229"/>
<g id="a_edge8&#45;headlabel"><a xlink:href="dir_000014_000026.xhtml" target="_top" xlink:title="175">
<text text-anchor="middle" x="74.5243" y="-39.36" font-family="Helvetica,sans-Serif" font-size="10.00">175</text>
</a>
</g>
</g>
<!-- dir_5f09115d5b51f09d1c93a8d5eb5f8d5c&#45;&gt;dir_214608ef36d61442cb2b0c1c4e9a7def -->
<g id="edge9" class="edge"><title>dir_5f09115d5b51f09d1c93a8d5eb5f8d5c&#45;&gt;dir_214608ef36d61442cb2b0c1c4e9a7def</title>
<path fill="none" stroke="black" d="M103.461,-215.697C95.832,-207.22 86.5114,-196.864 78.1586,-187.583"/>
<polygon fill="black" stroke="black" points="80.7193,-185.196 71.4281,-180.104 75.5163,-189.879 80.7193,-185.196"/>
<g id="a_edge9&#45;headlabel"><a xlink:href="dir_000159_000000.xhtml" target="_top" xlink:title="11">
<text text-anchor="middle" x="85.2344" y="-183.468" font-family="Helvetica,sans-Serif" font-size="10.00">11</text>
</a>
</g>
</g>
<!-- dir_5f09115d5b51f09d1c93a8d5eb5f8d5c&#45;&gt;dir_aebb8dcc11953d78e620bbef0b9e2183 -->
<g id="edge10" class="edge"><title>dir_5f09115d5b51f09d1c93a8d5eb5f8d5c&#45;&gt;dir_aebb8dcc11953d78e620bbef0b9e2183</title>
<path fill="none" stroke="black" d="M117.828,-215.871C116.124,-191.67 112.993,-147.211 110.963,-118.393"/>
<polygon fill="black" stroke="black" points="114.439,-117.919 110.245,-108.189 107.456,-118.41 114.439,-117.919"/>
<g id="a_edge10&#45;headlabel"><a xlink:href="dir_000159_000014.xhtml" target="_top" xlink:title="3">
<text text-anchor="middle" x="117.523" y="-118.805" font-family="Helvetica,sans-Serif" font-size="10.00">3</text>
</a>
</g>
</g>
<!-- dir_5f09115d5b51f09d1c93a8d5eb5f8d5c&#45;&gt;dir_5815af820a9cc9481f1d0990a0d60286 -->
<g id="edge11" class="edge"><title>dir_5f09115d5b51f09d1c93a8d5eb5f8d5c&#45;&gt;dir_5815af820a9cc9481f1d0990a0d60286</title>
<path fill="none" stroke="black" d="M128.859,-215.605C145.015,-184.453 172.772,-118.093 145.034,-72 131.355,-49.2688 104.288,-35.7722 81.7605,-28.0925"/>
<polygon fill="black" stroke="black" points="82.7053,-24.7206 72.1157,-25.0541 80.602,-31.3971 82.7053,-24.7206"/>
<g id="a_edge11&#45;headlabel"><a xlink:href="dir_000159_000026.xhtml" target="_top" xlink:title="1">
<text text-anchor="middle" x="86.9869" y="-20.5925" font-family="Helvetica,sans-Serif" font-size="10.00">1</text>
</a>
</g>
</g>
<!-- dir_5815af820a9cc9481f1d0990a0d60286&#45;&gt;dir_214608ef36d61442cb2b0c1c4e9a7def -->
<g id="edge12" class="edge"><title>dir_5815af820a9cc9481f1d0990a0d60286&#45;&gt;dir_214608ef36d61442cb2b0c1c4e9a7def</title>
<path fill="none" stroke="black" d="M50.9567,-36.1893C55.3886,-60.4244 59.1207,-104.888 59.3718,-133.679"/>
<polygon fill="black" stroke="black" points="55.8705,-133.844 59.2919,-143.871 62.8703,-133.899 55.8705,-133.844"/>
<g id="a_edge12&#45;headlabel"><a xlink:href="dir_000026_000000.xhtml" target="_top" xlink:title="6">
<text text-anchor="middle" x="53.0594" y="-127.728" font-family="Helvetica,sans-Serif" font-size="10.00">6</text>
</a>
</g>
</g>
</g>
</svg>
