<?xml version="1.0" encoding="UTF-8" standalone="no"?>
<!DOCTYPE svg PUBLIC "-//W3C//DTD SVG 1.1//EN"
 "http://www.w3.org/Graphics/SVG/1.1/DTD/svg11.dtd">
<!-- Generated by graphviz version 2.38.0 (20140413.2041)
 -->
<!-- Title: src/core/CL/gemm/reshaped_only_rhs Pages: 1 -->
<svg width="154pt" height="223pt"
 viewBox="0.00 0.00 154.00 223.00" xmlns="http://www.w3.org/2000/svg" xmlns:xlink="http://www.w3.org/1999/xlink">
<g id="graph0" class="graph" transform="scale(1 1) rotate(0) translate(4 219)">
<title>src/core/CL/gemm/reshaped_only_rhs</title>
<polygon fill="white" stroke="none" points="-4,4 -4,-219 150,-219 150,4 -4,4"/>
<g id="clust1" class="cluster"><title>clusterdir_acedbc3c1c025eedca19641ef7b62820</title>
<g id="a_clust1"><a xlink:href="dir_acedbc3c1c025eedca19641ef7b62820.xhtml" target="_top" xlink:title="gemm">
<polygon fill="#ddddee" stroke="black" points="16,-136 16,-207 138,-207 138,-136 16,-136"/>
<text text-anchor="middle" x="77" y="-195" font-family="Helvetica,sans-Serif" font-size="10.00">gemm</text>
</a>
</g>
</g>
<!-- dir_afe4835d9501312dff8cde2275a46453 -->
<g id="node1" class="node"><title>dir_afe4835d9501312dff8cde2275a46453</title>
<g id="a_node1"><a xlink:href="dir_afe4835d9501312dff8cde2275a46453.xhtml" target="_top" xlink:title="reshaped_only_rhs">
<polygon fill="#eeeeff" stroke="black" points="130.5,-180 23.5,-180 23.5,-144 130.5,-144 130.5,-180"/>
<text text-anchor="middle" x="77" y="-159.5" font-family="Helvetica,sans-Serif" font-size="10.00">reshaped_only_rhs</text>
</a>
</g>
</g>
<!-- dir_214608ef36d61442cb2b0c1c4e9a7def -->
<g id="node2" class="node"><title>dir_214608ef36d61442cb2b0c1c4e9a7def</title>
<g id="a_node2"><a xlink:href="dir_214608ef36d61442cb2b0c1c4e9a7def.xhtml" target="_top" xlink:title="arm_compute">
<polygon fill="white" stroke="red" points="84,-108 7.10543e-15,-108 7.10543e-15,-72 84,-72 84,-108"/>
<text text-anchor="middle" x="42" y="-87.5" font-family="Helvetica,sans-Serif" font-size="10.00">arm_compute</text>
</a>
</g>
</g>
<!-- dir_afe4835d9501312dff8cde2275a46453&#45;&gt;dir_214608ef36d61442cb2b0c1c4e9a7def -->
<g id="edge2" class="edge"><title>dir_afe4835d9501312dff8cde2275a46453&#45;&gt;dir_214608ef36d61442cb2b0c1c4e9a7def</title>
<path fill="none" stroke="black" d="M68.3483,-143.697C64.3642,-135.728 59.5498,-126.1 55.1321,-117.264"/>
<polygon fill="black" stroke="black" points="58.1549,-115.483 50.5522,-108.104 51.8939,-118.614 58.1549,-115.483"/>
<g id="a_edge2&#45;headlabel"><a xlink:href="dir_000067_000000.xhtml" target="_top" xlink:title="12">
<text text-anchor="middle" x="62.3019" y="-114.929" font-family="Helvetica,sans-Serif" font-size="10.00">12</text>
</a>
</g>
</g>
<!-- dir_5815af820a9cc9481f1d0990a0d60286 -->
<g id="node3" class="node"><title>dir_5815af820a9cc9481f1d0990a0d60286</title>
<g id="a_node3"><a xlink:href="dir_5815af820a9cc9481f1d0990a0d60286.xhtml" target="_top" xlink:title="support">
<polygon fill="none" stroke="black" points="69,-36 15,-36 15,-0 69,-0 69,-36"/>
<text text-anchor="middle" x="42" y="-15.5" font-family="Helvetica,sans-Serif" font-size="10.00">support</text>
</a>
</g>
</g>
<!-- dir_afe4835d9501312dff8cde2275a46453&#45;&gt;dir_5815af820a9cc9481f1d0990a0d60286 -->
<g id="edge3" class="edge"><title>dir_afe4835d9501312dff8cde2275a46453&#45;&gt;dir_5815af820a9cc9481f1d0990a0d60286</title>
<path fill="none" stroke="black" d="M85.5875,-143.694C93.463,-125.326 102.565,-95.7347 93,-72 88.6513,-61.209 80.9382,-51.3859 72.8063,-43.2085"/>
<polygon fill="black" stroke="black" points="74.9956,-40.4636 65.305,-36.1808 70.2097,-45.572 74.9956,-40.4636"/>
<g id="a_edge3&#45;headlabel"><a xlink:href="dir_000067_000026.xhtml" target="_top" xlink:title="1">
<text text-anchor="middle" x="79.56" y="-38.3491" font-family="Helvetica,sans-Serif" font-size="10.00">1</text>
</a>
</g>
</g>
<!-- dir_214608ef36d61442cb2b0c1c4e9a7def&#45;&gt;dir_5815af820a9cc9481f1d0990a0d60286 -->
<g id="edge1" class="edge"><title>dir_214608ef36d61442cb2b0c1c4e9a7def&#45;&gt;dir_5815af820a9cc9481f1d0990a0d60286</title>
<path fill="none" stroke="black" d="M36.0843,-71.6966C35.2886,-63.9827 35.0621,-54.7125 35.4047,-46.1124"/>
<polygon fill="black" stroke="black" points="38.8984,-46.3243 36.105,-36.1043 31.9154,-45.8356 38.8984,-46.3243"/>
<g id="a_edge1&#45;headlabel"><a xlink:href="dir_000000_000026.xhtml" target="_top" xlink:title="26">
<text text-anchor="middle" x="41.4799" y="-47.6083" font-family="Helvetica,sans-Serif" font-size="10.00">26</text>
</a>
</g>
</g>
<!-- dir_5815af820a9cc9481f1d0990a0d60286&#45;&gt;dir_214608ef36d61442cb2b0c1c4e9a7def -->
<g id="edge4" class="edge"><title>dir_5815af820a9cc9481f1d0990a0d60286&#45;&gt;dir_214608ef36d61442cb2b0c1c4e9a7def</title>
<path fill="none" stroke="black" d="M47.895,-36.1043C48.7005,-43.7913 48.9369,-53.0537 48.604,-61.6651"/>
<polygon fill="black" stroke="black" points="45.1085,-61.4805 47.9157,-71.6966 52.0921,-61.9597 45.1085,-61.4805"/>
<g id="a_edge4&#45;headlabel"><a xlink:href="dir_000026_000000.xhtml" target="_top" xlink:title="6">
<text text-anchor="middle" x="42.5219" y="-55.2" font-family="Helvetica,sans-Serif" font-size="10.00">6</text>
</a>
</g>
</g>
</g>
</svg>
