<?xml version="1.0" encoding="UTF-8" standalone="no"?>
<!DOCTYPE svg PUBLIC "-//W3C//DTD SVG 1.1//EN"
 "http://www.w3.org/Graphics/SVG/1.1/DTD/svg11.dtd">
<!-- Generated by graphviz version 2.38.0 (20140413.2041)
 -->
<!-- Title: tests/validation/CL/UNIT Pages: 1 -->
<svg width="254pt" height="295pt"
 viewBox="0.00 0.00 254.11 295.00" xmlns="http://www.w3.org/2000/svg" xmlns:xlink="http://www.w3.org/1999/xlink">
<g id="graph0" class="graph" transform="scale(1 1) rotate(0) translate(4 291)">
<title>tests/validation/CL/UNIT</title>
<polygon fill="white" stroke="none" points="-4,4 -4,-291 250.11,-291 250.11,4 -4,4"/>
<g id="clust1" class="cluster"><title>clusterdir_f7024513cd67abef53e86ee9382ac5ce</title>
<g id="a_clust1"><a xlink:href="dir_f7024513cd67abef53e86ee9382ac5ce.xhtml" target="_top" xlink:title="CL">
<polygon fill="#ddddee" stroke="black" points="115.5,-208 115.5,-279 185.5,-279 185.5,-208 115.5,-208"/>
<text text-anchor="middle" x="150.5" y="-267" font-family="Helvetica,sans-Serif" font-size="10.00">CL</text>
</a>
</g>
</g>
<!-- dir_4fe3055359cf5438733b5e64b064b197 -->
<g id="node1" class="node"><title>dir_4fe3055359cf5438733b5e64b064b197</title>
<g id="a_node1"><a xlink:href="dir_4fe3055359cf5438733b5e64b064b197.xhtml" target="_top" xlink:title="UNIT">
<polygon fill="#eeeeff" stroke="black" points="177.5,-252 123.5,-252 123.5,-216 177.5,-216 177.5,-252"/>
<text text-anchor="middle" x="150.5" y="-231.5" font-family="Helvetica,sans-Serif" font-size="10.00">UNIT</text>
</a>
</g>
</g>
<!-- dir_46fdb196cebdbffe77dac340cde62f29 -->
<g id="node2" class="node"><title>dir_46fdb196cebdbffe77dac340cde62f29</title>
<g id="a_node2"><a xlink:href="dir_46fdb196cebdbffe77dac340cde62f29.xhtml" target="_top" xlink:title="reference">
<polygon fill="none" stroke="black" points="122.5,-180 60.5,-180 60.5,-144 122.5,-144 122.5,-180"/>
<text text-anchor="middle" x="91.5" y="-159.5" font-family="Helvetica,sans-Serif" font-size="10.00">reference</text>
</a>
</g>
</g>
<!-- dir_4fe3055359cf5438733b5e64b064b197&#45;&gt;dir_46fdb196cebdbffe77dac340cde62f29 -->
<g id="edge5" class="edge"><title>dir_4fe3055359cf5438733b5e64b064b197&#45;&gt;dir_46fdb196cebdbffe77dac340cde62f29</title>
<path fill="none" stroke="black" d="M135.916,-215.697C128.842,-207.305 120.217,-197.07 112.455,-187.861"/>
<polygon fill="black" stroke="black" points="115.037,-185.495 105.917,-180.104 109.685,-190.006 115.037,-185.495"/>
<g id="a_edge5&#45;headlabel"><a xlink:href="dir_000169_000031.xhtml" target="_top" xlink:title="1">
<text text-anchor="middle" x="119.525" y="-183.914" font-family="Helvetica,sans-Serif" font-size="10.00">1</text>
</a>
</g>
</g>
<!-- dir_68267d1309a1af8e8297ef4c3efbcdba -->
<g id="node3" class="node"><title>dir_68267d1309a1af8e8297ef4c3efbcdba</title>
<g id="a_node3"><a xlink:href="dir_68267d1309a1af8e8297ef4c3efbcdba.xhtml" target="_top" xlink:title="src">
<polygon fill="white" stroke="red" points="177.5,-108 123.5,-108 123.5,-72 177.5,-72 177.5,-108"/>
<text text-anchor="middle" x="150.5" y="-87.5" font-family="Helvetica,sans-Serif" font-size="10.00">src</text>
</a>
</g>
</g>
<!-- dir_4fe3055359cf5438733b5e64b064b197&#45;&gt;dir_68267d1309a1af8e8297ef4c3efbcdba -->
<g id="edge6" class="edge"><title>dir_4fe3055359cf5438733b5e64b064b197&#45;&gt;dir_68267d1309a1af8e8297ef4c3efbcdba</title>
<path fill="none" stroke="black" d="M150.5,-215.871C150.5,-191.67 150.5,-147.211 150.5,-118.393"/>
<polygon fill="black" stroke="black" points="154,-118.189 150.5,-108.189 147,-118.189 154,-118.189"/>
<g id="a_edge6&#45;headlabel"><a xlink:href="dir_000169_000013.xhtml" target="_top" xlink:title="19">
<text text-anchor="middle" x="156.839" y="-119.284" font-family="Helvetica,sans-Serif" font-size="10.00">19</text>
</a>
</g>
</g>
<!-- dir_9e71e2da941d3cafc4d98a9f6ae3de4f -->
<g id="node4" class="node"><title>dir_9e71e2da941d3cafc4d98a9f6ae3de4f</title>
<g id="a_node4"><a xlink:href="dir_9e71e2da941d3cafc4d98a9f6ae3de4f.xhtml" target="_top" xlink:title="framework">
<polygon fill="white" stroke="red" points="67,-108 0,-108 0,-72 67,-72 67,-108"/>
<text text-anchor="middle" x="33.5" y="-87.5" font-family="Helvetica,sans-Serif" font-size="10.00">framework</text>
</a>
</g>
</g>
<!-- dir_4fe3055359cf5438733b5e64b064b197&#45;&gt;dir_9e71e2da941d3cafc4d98a9f6ae3de4f -->
<g id="edge7" class="edge"><title>dir_4fe3055359cf5438733b5e64b064b197&#45;&gt;dir_9e71e2da941d3cafc4d98a9f6ae3de4f</title>
<path fill="none" stroke="black" d="M123.064,-225.488C100.354,-217.817 69.0665,-203.623 51.5,-180 38.3065,-162.258 34.1667,-137.242 33.1203,-118.249"/>
<polygon fill="black" stroke="black" points="36.6152,-118.022 32.8178,-108.131 29.6183,-118.232 36.6152,-118.022"/>
<g id="a_edge7&#45;headlabel"><a xlink:href="dir_000169_000030.xhtml" target="_top" xlink:title="13">
<text text-anchor="middle" x="39.5605" y="-119.031" font-family="Helvetica,sans-Serif" font-size="10.00">13</text>
</a>
</g>
</g>
<!-- dir_214608ef36d61442cb2b0c1c4e9a7def -->
<g id="node5" class="node"><title>dir_214608ef36d61442cb2b0c1c4e9a7def</title>
<g id="a_node5"><a xlink:href="dir_214608ef36d61442cb2b0c1c4e9a7def.xhtml" target="_top" xlink:title="arm_compute">
<polygon fill="white" stroke="red" points="192.5,-36 108.5,-36 108.5,-0 192.5,-0 192.5,-36"/>
<text text-anchor="middle" x="150.5" y="-15.5" font-family="Helvetica,sans-Serif" font-size="10.00">arm_compute</text>
</a>
</g>
</g>
<!-- dir_4fe3055359cf5438733b5e64b064b197&#45;&gt;dir_214608ef36d61442cb2b0c1c4e9a7def -->
<g id="edge8" class="edge"><title>dir_4fe3055359cf5438733b5e64b064b197&#45;&gt;dir_214608ef36d61442cb2b0c1c4e9a7def</title>
<path fill="none" stroke="black" d="M177.788,-225.341C199.324,-217.697 227.924,-203.618 241.5,-180 249.474,-166.128 245.089,-159.592 241.5,-144 233.519,-109.326 227.539,-100.693 206.5,-72 198.832,-61.5423 188.948,-51.4098 179.624,-42.8538"/>
<polygon fill="black" stroke="black" points="181.784,-40.091 171.983,-36.0651 177.134,-45.3238 181.784,-40.091"/>
<g id="a_edge8&#45;headlabel"><a xlink:href="dir_000169_000000.xhtml" target="_top" xlink:title="21">
<text text-anchor="middle" x="186.357" y="-37.8562" font-family="Helvetica,sans-Serif" font-size="10.00">21</text>
</a>
</g>
</g>
<!-- dir_896191444cf08ec8ade6f88256cb2bdd -->
<g id="node6" class="node"><title>dir_896191444cf08ec8ade6f88256cb2bdd</title>
<g id="a_node6"><a xlink:href="dir_896191444cf08ec8ade6f88256cb2bdd.xhtml" target="_top" xlink:title="CL">
<polygon fill="none" stroke="black" points="232.5,-180 178.5,-180 178.5,-144 232.5,-144 232.5,-180"/>
<text text-anchor="middle" x="205.5" y="-159.5" font-family="Helvetica,sans-Serif" font-size="10.00">CL</text>
</a>
</g>
</g>
<!-- dir_4fe3055359cf5438733b5e64b064b197&#45;&gt;dir_896191444cf08ec8ade6f88256cb2bdd -->
<g id="edge9" class="edge"><title>dir_4fe3055359cf5438733b5e64b064b197&#45;&gt;dir_896191444cf08ec8ade6f88256cb2bdd</title>
<path fill="none" stroke="black" d="M164.096,-215.697C170.623,-207.389 178.568,-197.277 185.747,-188.141"/>
<polygon fill="black" stroke="black" points="188.635,-190.13 192.061,-180.104 183.131,-185.805 188.635,-190.13"/>
<g id="a_edge9&#45;headlabel"><a xlink:href="dir_000169_000176.xhtml" target="_top" xlink:title="4">
<text text-anchor="middle" x="188.647" y="-192.211" font-family="Helvetica,sans-Serif" font-size="10.00">4</text>
</a>
</g>
</g>
<!-- dir_46fdb196cebdbffe77dac340cde62f29&#45;&gt;dir_68267d1309a1af8e8297ef4c3efbcdba -->
<g id="edge1" class="edge"><title>dir_46fdb196cebdbffe77dac340cde62f29&#45;&gt;dir_68267d1309a1af8e8297ef4c3efbcdba</title>
<path fill="none" stroke="black" d="M106.084,-143.697C113.158,-135.305 121.783,-125.07 129.545,-115.861"/>
<polygon fill="black" stroke="black" points="132.315,-118.006 136.083,-108.104 126.963,-113.495 132.315,-118.006"/>
<g id="a_edge1&#45;headlabel"><a xlink:href="dir_000031_000013.xhtml" target="_top" xlink:title="3">
<text text-anchor="middle" x="132.169" y="-120.085" font-family="Helvetica,sans-Serif" font-size="10.00">3</text>
</a>
</g>
</g>
<!-- dir_46fdb196cebdbffe77dac340cde62f29&#45;&gt;dir_9e71e2da941d3cafc4d98a9f6ae3de4f -->
<g id="edge2" class="edge"><title>dir_46fdb196cebdbffe77dac340cde62f29&#45;&gt;dir_9e71e2da941d3cafc4d98a9f6ae3de4f</title>
<path fill="none" stroke="black" d="M77.1629,-143.697C70.2095,-135.305 61.7298,-125.07 54.0994,-115.861"/>
<polygon fill="black" stroke="black" points="56.7475,-113.571 47.6722,-108.104 51.3573,-118.038 56.7475,-113.571"/>
<g id="a_edge2&#45;headlabel"><a xlink:href="dir_000031_000030.xhtml" target="_top" xlink:title="3">
<text text-anchor="middle" x="61.2271" y="-112.028" font-family="Helvetica,sans-Serif" font-size="10.00">3</text>
</a>
</g>
</g>
<!-- dir_46fdb196cebdbffe77dac340cde62f29&#45;&gt;dir_214608ef36d61442cb2b0c1c4e9a7def -->
<g id="edge3" class="edge"><title>dir_46fdb196cebdbffe77dac340cde62f29&#45;&gt;dir_214608ef36d61442cb2b0c1c4e9a7def</title>
<path fill="none" stroke="black" d="M94.1563,-143.681C97.3864,-125.302 103.78,-95.7014 114.5,-72 118.787,-62.5224 124.746,-52.8967 130.583,-44.4958"/>
<polygon fill="black" stroke="black" points="133.527,-46.3974 136.547,-36.242 127.853,-42.2977 133.527,-46.3974"/>
<g id="a_edge3&#45;headlabel"><a xlink:href="dir_000031_000000.xhtml" target="_top" xlink:title="89">
<text text-anchor="middle" x="133.723" y="-48.4739" font-family="Helvetica,sans-Serif" font-size="10.00">89</text>
</a>
</g>
</g>
<!-- dir_68267d1309a1af8e8297ef4c3efbcdba&#45;&gt;dir_214608ef36d61442cb2b0c1c4e9a7def -->
<g id="edge4" class="edge"><title>dir_68267d1309a1af8e8297ef4c3efbcdba&#45;&gt;dir_214608ef36d61442cb2b0c1c4e9a7def</title>
<path fill="none" stroke="black" d="M144.584,-71.6966C143.789,-63.9827 143.562,-54.7125 143.905,-46.1124"/>
<polygon fill="black" stroke="black" points="147.398,-46.3243 144.605,-36.1043 140.415,-45.8356 147.398,-46.3243"/>
<g id="a_edge4&#45;headlabel"><a xlink:href="dir_000013_000000.xhtml" target="_top" xlink:title="3997">
<text text-anchor="middle" x="149.98" y="-47.6083" font-family="Helvetica,sans-Serif" font-size="10.00">3997</text>
</a>
</g>
</g>
<!-- dir_9e71e2da941d3cafc4d98a9f6ae3de4f&#45;&gt;dir_214608ef36d61442cb2b0c1c4e9a7def -->
<g id="edge10" class="edge"><title>dir_9e71e2da941d3cafc4d98a9f6ae3de4f&#45;&gt;dir_214608ef36d61442cb2b0c1c4e9a7def</title>
<path fill="none" stroke="black" d="M62.1214,-71.8761C77.4192,-62.7236 96.4431,-51.3417 112.918,-41.485"/>
<polygon fill="black" stroke="black" points="114.984,-44.3275 121.769,-36.1898 111.39,-38.3205 114.984,-44.3275"/>
<g id="a_edge10&#45;headlabel"><a xlink:href="dir_000030_000000.xhtml" target="_top" xlink:title="15">
<text text-anchor="middle" x="113.357" y="-46.1094" font-family="Helvetica,sans-Serif" font-size="10.00">15</text>
</a>
</g>
</g>
<!-- dir_214608ef36d61442cb2b0c1c4e9a7def&#45;&gt;dir_68267d1309a1af8e8297ef4c3efbcdba -->
<g id="edge11" class="edge"><title>dir_214608ef36d61442cb2b0c1c4e9a7def&#45;&gt;dir_68267d1309a1af8e8297ef4c3efbcdba</title>
<path fill="none" stroke="black" d="M156.395,-36.1043C157.201,-43.7913 157.437,-53.0537 157.104,-61.6651"/>
<polygon fill="black" stroke="black" points="153.609,-61.4805 156.416,-71.6966 160.592,-61.9597 153.609,-61.4805"/>
<g id="a_edge11&#45;headlabel"><a xlink:href="dir_000000_000013.xhtml" target="_top" xlink:title="1">
<text text-anchor="middle" x="151.022" y="-55.2" font-family="Helvetica,sans-Serif" font-size="10.00">1</text>
</a>
</g>
</g>
<!-- dir_896191444cf08ec8ade6f88256cb2bdd&#45;&gt;dir_68267d1309a1af8e8297ef4c3efbcdba -->
<g id="edge12" class="edge"><title>dir_896191444cf08ec8ade6f88256cb2bdd&#45;&gt;dir_68267d1309a1af8e8297ef4c3efbcdba</title>
<path fill="none" stroke="black" d="M191.904,-143.697C185.377,-135.389 177.432,-125.277 170.253,-116.141"/>
<polygon fill="black" stroke="black" points="172.869,-113.805 163.939,-108.104 167.365,-118.13 172.869,-113.805"/>
<g id="a_edge12&#45;headlabel"><a xlink:href="dir_000176_000013.xhtml" target="_top" xlink:title="3">
<text text-anchor="middle" x="177.323" y="-112.377" font-family="Helvetica,sans-Serif" font-size="10.00">3</text>
</a>
</g>
</g>
<!-- dir_896191444cf08ec8ade6f88256cb2bdd&#45;&gt;dir_214608ef36d61442cb2b0c1c4e9a7def -->
<g id="edge13" class="edge"><title>dir_896191444cf08ec8ade6f88256cb2bdd&#45;&gt;dir_214608ef36d61442cb2b0c1c4e9a7def</title>
<path fill="none" stroke="black" d="M203.803,-143.674C201.55,-125.29 196.612,-95.6852 186.5,-72 182.416,-62.4333 176.512,-52.7836 170.662,-44.3881"/>
<polygon fill="black" stroke="black" points="173.38,-42.1741 164.665,-36.1492 167.72,-46.2938 173.38,-42.1741"/>
<g id="a_edge13&#45;headlabel"><a xlink:href="dir_000176_000000.xhtml" target="_top" xlink:title="7">
<text text-anchor="middle" x="177.791" y="-40.9093" font-family="Helvetica,sans-Serif" font-size="10.00">7</text>
</a>
</g>
</g>
</g>
</svg>
