<?xml version="1.0" encoding="UTF-8" standalone="no"?>
<!DOCTYPE svg PUBLIC "-//W3C//DTD SVG 1.1//EN"
 "http://www.w3.org/Graphics/SVG/1.1/DTD/svg11.dtd">
<!-- Generated by graphviz version 2.38.0 (20140413.2041)
 -->
<!-- Title: arm_compute/runtime Pages: 1 -->
<svg width="541pt" height="267pt"
 viewBox="0.00 0.00 541.24 267.00" xmlns="http://www.w3.org/2000/svg" xmlns:xlink="http://www.w3.org/1999/xlink">
<g id="graph0" class="graph" transform="scale(1 1) rotate(0) translate(4 263)">
<title>arm_compute/runtime</title>
<polygon fill="white" stroke="none" points="-4,4 -4,-263 537.241,-263 537.241,4 -4,4"/>
<g id="clust1" class="cluster"><title>clusterdir_214608ef36d61442cb2b0c1c4e9a7def</title>
<g id="a_clust1"><a xlink:href="dir_214608ef36d61442cb2b0c1c4e9a7def.xhtml" target="_top" xlink:title="arm_compute">
<polygon fill="#ddddee" stroke="black" points="26.9919,-56 26.9919,-215 442.992,-215 442.992,-56 26.9919,-56"/>
<text text-anchor="middle" x="234.992" y="-203" font-family="Helvetica,sans-Serif" font-size="10.00">arm_compute</text>
</a>
</g>
</g>
<g id="clust2" class="cluster"><title>clusterdir_8bc26130589aa16388b5a02f17abf2c2</title>
<g id="a_clust2"><a xlink:href="dir_8bc26130589aa16388b5a02f17abf2c2.xhtml" target="_top">
<polygon fill="#eeeeff" stroke="black" points="34.9919,-64 34.9919,-188 434.992,-188 434.992,-64 34.9919,-64"/>
</a>
</g>
</g>
<!-- dir_8bc26130589aa16388b5a02f17abf2c2 -->
<g id="node1" class="node"><title>dir_8bc26130589aa16388b5a02f17abf2c2</title>
<text text-anchor="middle" x="69.9919" y="-159.5" font-family="Helvetica,sans-Serif" font-size="10.00">runtime</text>
</g>
<!-- dir_f65747a71076b8acf344f803a66a39b1 -->
<g id="node5" class="node"><title>dir_f65747a71076b8acf344f803a66a39b1</title>
<g id="a_node5"><a xlink:href="dir_f65747a71076b8acf344f803a66a39b1.xhtml" target="_top" xlink:title="experimental">
<polygon fill="white" stroke="black" points="122.992,-108 42.9919,-108 42.9919,-72 122.992,-72 122.992,-108"/>
<text text-anchor="middle" x="82.9919" y="-87.5" font-family="Helvetica,sans-Serif" font-size="10.00">experimental</text>
</a>
</g>
</g>
<!-- dir_8bc26130589aa16388b5a02f17abf2c2&#45;&gt;dir_f65747a71076b8acf344f803a66a39b1 -->
<g id="edge13" class="edge"><title>dir_8bc26130589aa16388b5a02f17abf2c2&#45;&gt;dir_f65747a71076b8acf344f803a66a39b1</title>
<path fill="none" stroke="black" d="M73.2053,-143.697C74.6379,-135.983 76.3595,-126.712 77.9567,-118.112"/>
<polygon fill="black" stroke="black" points="81.4305,-118.575 79.8153,-108.104 74.5482,-117.297 81.4305,-118.575"/>
<g id="a_edge13&#45;headlabel"><a xlink:href="dir_000003_000012.xhtml" target="_top" xlink:title="1">
<text text-anchor="middle" x="83.5658" y="-120.128" font-family="Helvetica,sans-Serif" font-size="10.00">1</text>
</a>
</g>
</g>
<!-- dir_b986aa98f9b6490bb4fc7918500346fb -->
<g id="node2" class="node"><title>dir_b986aa98f9b6490bb4fc7918500346fb</title>
<g id="a_node2"><a xlink:href="dir_b986aa98f9b6490bb4fc7918500346fb.xhtml" target="_top" xlink:title="CL">
<polygon fill="white" stroke="red" points="168.992,-180 114.992,-180 114.992,-144 168.992,-144 168.992,-180"/>
<text text-anchor="middle" x="141.992" y="-159.5" font-family="Helvetica,sans-Serif" font-size="10.00">CL</text>
</a>
</g>
</g>
<!-- dir_b9621ae687ab229876c54f8c2df20e15 -->
<g id="node3" class="node"><title>dir_b9621ae687ab229876c54f8c2df20e15</title>
<g id="a_node3"><a xlink:href="dir_b9621ae687ab229876c54f8c2df20e15.xhtml" target="_top" xlink:title="common">
<polygon fill="white" stroke="black" points="272.492,-108 213.492,-108 213.492,-72 272.492,-72 272.492,-108"/>
<text text-anchor="middle" x="242.992" y="-87.5" font-family="Helvetica,sans-Serif" font-size="10.00">common</text>
</a>
</g>
</g>
<!-- dir_b986aa98f9b6490bb4fc7918500346fb&#45;&gt;dir_b9621ae687ab229876c54f8c2df20e15 -->
<g id="edge26" class="edge"><title>dir_b986aa98f9b6490bb4fc7918500346fb&#45;&gt;dir_b9621ae687ab229876c54f8c2df20e15</title>
<path fill="none" stroke="black" d="M166.699,-143.876C179.66,-134.893 195.72,-123.763 209.757,-114.034"/>
<polygon fill="black" stroke="black" points="211.964,-116.763 218.189,-108.19 207.977,-111.009 211.964,-116.763"/>
<g id="a_edge26&#45;headlabel"><a xlink:href="dir_000004_000051.xhtml" target="_top" xlink:title="3">
<text text-anchor="middle" x="210.627" y="-118.644" font-family="Helvetica,sans-Serif" font-size="10.00">3</text>
</a>
</g>
</g>
<!-- dir_b496024afd63bafbf4e8da80d7d3a81a -->
<g id="node4" class="node"><title>dir_b496024afd63bafbf4e8da80d7d3a81a</title>
<g id="a_node4"><a xlink:href="dir_b496024afd63bafbf4e8da80d7d3a81a.xhtml" target="_top" xlink:title="CPP">
<polygon fill="white" stroke="red" points="194.992,-108 140.992,-108 140.992,-72 194.992,-72 194.992,-108"/>
<text text-anchor="middle" x="167.992" y="-87.5" font-family="Helvetica,sans-Serif" font-size="10.00">CPP</text>
</a>
</g>
</g>
<!-- dir_b986aa98f9b6490bb4fc7918500346fb&#45;&gt;dir_b496024afd63bafbf4e8da80d7d3a81a -->
<g id="edge23" class="edge"><title>dir_b986aa98f9b6490bb4fc7918500346fb&#45;&gt;dir_b496024afd63bafbf4e8da80d7d3a81a</title>
<path fill="none" stroke="black" d="M148.419,-143.697C151.347,-135.813 154.879,-126.304 158.132,-117.546"/>
<polygon fill="black" stroke="black" points="161.438,-118.697 161.639,-108.104 154.876,-116.26 161.438,-118.697"/>
<g id="a_edge23&#45;headlabel"><a xlink:href="dir_000004_000052.xhtml" target="_top" xlink:title="3">
<text text-anchor="middle" x="162.848" y="-120.556" font-family="Helvetica,sans-Serif" font-size="10.00">3</text>
</a>
</g>
</g>
<!-- dir_68267d1309a1af8e8297ef4c3efbcdba -->
<g id="node9" class="node"><title>dir_68267d1309a1af8e8297ef4c3efbcdba</title>
<g id="a_node9"><a xlink:href="dir_68267d1309a1af8e8297ef4c3efbcdba.xhtml" target="_top" xlink:title="src">
<polygon fill="white" stroke="red" points="240.992,-259 186.992,-259 186.992,-223 240.992,-223 240.992,-259"/>
<text text-anchor="middle" x="213.992" y="-238.5" font-family="Helvetica,sans-Serif" font-size="10.00">src</text>
</a>
</g>
</g>
<!-- dir_b986aa98f9b6490bb4fc7918500346fb&#45;&gt;dir_68267d1309a1af8e8297ef4c3efbcdba -->
<g id="edge22" class="edge"><title>dir_b986aa98f9b6490bb4fc7918500346fb&#45;&gt;dir_68267d1309a1af8e8297ef4c3efbcdba</title>
<path fill="none" stroke="black" d="M143.934,-180.08C149.219,-190.829 158.595,-204.589 168.992,-215 171.895,-217.908 175.176,-220.701 178.629,-223.299"/>
<polygon fill="black" stroke="black" points="176.678,-226.204 186.906,-228.968 180.633,-220.429 176.678,-226.204"/>
<g id="a_edge22&#45;headlabel"><a xlink:href="dir_000004_000013.xhtml" target="_top" xlink:title="1">
<text text-anchor="middle" x="172.108" y="-224.016" font-family="Helvetica,sans-Serif" font-size="10.00">1</text>
</a>
</g>
</g>
<!-- dir_1fb090f0c6070330bfaccc4236d3ca0d -->
<g id="node10" class="node"><title>dir_1fb090f0c6070330bfaccc4236d3ca0d</title>
<g id="a_node10"><a xlink:href="dir_1fb090f0c6070330bfaccc4236d3ca0d.xhtml" target="_top" xlink:title="core">
<polygon fill="white" stroke="red" points="504.992,-108 450.992,-108 450.992,-72 504.992,-72 504.992,-108"/>
<text text-anchor="middle" x="477.992" y="-87.5" font-family="Helvetica,sans-Serif" font-size="10.00">core</text>
</a>
</g>
</g>
<!-- dir_b986aa98f9b6490bb4fc7918500346fb&#45;&gt;dir_1fb090f0c6070330bfaccc4236d3ca0d -->
<g id="edge24" class="edge"><title>dir_b986aa98f9b6490bb4fc7918500346fb&#45;&gt;dir_1fb090f0c6070330bfaccc4236d3ca0d</title>
<path fill="none" stroke="black" d="M169.17,-147.118C172.1,-145.938 175.077,-144.867 177.992,-144 290.23,-110.614 326.264,-139.692 438.992,-108 439.712,-107.798 440.436,-107.585 441.162,-107.362"/>
<polygon fill="black" stroke="black" points="442.363,-110.65 450.638,-104.034 440.043,-104.046 442.363,-110.65"/>
<g id="a_edge24&#45;headlabel"><a xlink:href="dir_000004_000001.xhtml" target="_top" xlink:title="166">
<text text-anchor="middle" x="439.912" y="-112.02" font-family="Helvetica,sans-Serif" font-size="10.00">166</text>
</a>
</g>
</g>
<!-- dir_5815af820a9cc9481f1d0990a0d60286 -->
<g id="node11" class="node"><title>dir_5815af820a9cc9481f1d0990a0d60286</title>
<g id="a_node11"><a xlink:href="dir_5815af820a9cc9481f1d0990a0d60286.xhtml" target="_top" xlink:title="support">
<polygon fill="none" stroke="black" points="466.992,-36 412.992,-36 412.992,-0 466.992,-0 466.992,-36"/>
<text text-anchor="middle" x="439.992" y="-15.5" font-family="Helvetica,sans-Serif" font-size="10.00">support</text>
</a>
</g>
</g>
<!-- dir_b986aa98f9b6490bb4fc7918500346fb&#45;&gt;dir_5815af820a9cc9481f1d0990a0d60286 -->
<g id="edge25" class="edge"><title>dir_b986aa98f9b6490bb4fc7918500346fb&#45;&gt;dir_5815af820a9cc9481f1d0990a0d60286</title>
<path fill="none" stroke="black" d="M169.377,-147.705C172.267,-146.411 175.178,-145.153 177.992,-144 222.868,-125.621 237.716,-129.882 280.992,-108 317.516,-89.5322 321.267,-75.969 356.992,-56 371.791,-47.7281 388.79,-39.8811 403.536,-33.5599"/>
<polygon fill="black" stroke="black" points="404.995,-36.743 412.854,-29.6372 402.279,-30.2913 404.995,-36.743"/>
<g id="a_edge25&#45;headlabel"><a xlink:href="dir_000004_000026.xhtml" target="_top" xlink:title="3">
<text text-anchor="middle" x="402.784" y="-38.2544" font-family="Helvetica,sans-Serif" font-size="10.00">3</text>
</a>
</g>
</g>
<!-- dir_b9621ae687ab229876c54f8c2df20e15&#45;&gt;dir_1fb090f0c6070330bfaccc4236d3ca0d -->
<g id="edge21" class="edge"><title>dir_b9621ae687ab229876c54f8c2df20e15&#45;&gt;dir_1fb090f0c6070330bfaccc4236d3ca0d</title>
<path fill="none" stroke="black" d="M272.826,-90C328.773,-90 384.719,-90 440.666,-90"/>
<polygon fill="black" stroke="black" points="440.743,-93.5001 450.743,-90 440.743,-86.5001 440.743,-93.5001"/>
<g id="a_edge21&#45;headlabel"><a xlink:href="dir_000051_000001.xhtml" target="_top" xlink:title="3">
<text text-anchor="middle" x="437.149" y="-93.8393" font-family="Helvetica,sans-Serif" font-size="10.00">3</text>
</a>
</g>
</g>
<!-- dir_b496024afd63bafbf4e8da80d7d3a81a&#45;&gt;dir_1fb090f0c6070330bfaccc4236d3ca0d -->
<g id="edge14" class="edge"><title>dir_b496024afd63bafbf4e8da80d7d3a81a&#45;&gt;dir_1fb090f0c6070330bfaccc4236d3ca0d</title>
<path fill="none" stroke="black" d="M185.073,-108.217C192.838,-115.198 202.607,-122.357 212.992,-126 258.496,-141.962 384.244,-141.249 429.992,-126 437.635,-123.452 445.041,-119.158 451.656,-114.405"/>
<polygon fill="black" stroke="black" points="453.835,-117.145 459.57,-108.236 449.531,-111.624 453.835,-117.145"/>
<g id="a_edge14&#45;headlabel"><a xlink:href="dir_000052_000001.xhtml" target="_top" xlink:title="15">
<text text-anchor="middle" x="452.745" y="-119.094" font-family="Helvetica,sans-Serif" font-size="10.00">15</text>
</a>
</g>
</g>
<!-- dir_b496024afd63bafbf4e8da80d7d3a81a&#45;&gt;dir_5815af820a9cc9481f1d0990a0d60286 -->
<g id="edge15" class="edge"><title>dir_b496024afd63bafbf4e8da80d7d3a81a&#45;&gt;dir_5815af820a9cc9481f1d0990a0d60286</title>
<path fill="none" stroke="black" d="M182.593,-71.9595C188.616,-65.9888 196.047,-59.8253 203.992,-56 268.781,-24.8046 354.067,-18.8932 402.364,-18.3266"/>
<polygon fill="black" stroke="black" points="402.679,-21.8253 412.663,-18.2811 402.648,-14.8254 402.679,-21.8253"/>
<g id="a_edge15&#45;headlabel"><a xlink:href="dir_000052_000026.xhtml" target="_top" xlink:title="1">
<text text-anchor="middle" x="399.097" y="-22.1803" font-family="Helvetica,sans-Serif" font-size="10.00">1</text>
</a>
</g>
</g>
<!-- dir_e83fa7cb9796f3ad7be03e3d9fcd3249 -->
<g id="node6" class="node"><title>dir_e83fa7cb9796f3ad7be03e3d9fcd3249</title>
<g id="a_node6"><a xlink:href="dir_e83fa7cb9796f3ad7be03e3d9fcd3249.xhtml" target="_top" xlink:title="GLES_COMPUTE">
<polygon fill="white" stroke="red" points="354.492,-180 259.492,-180 259.492,-144 354.492,-144 354.492,-180"/>
<text text-anchor="middle" x="306.992" y="-159.5" font-family="Helvetica,sans-Serif" font-size="10.00">GLES_COMPUTE</text>
</a>
</g>
</g>
<!-- dir_e83fa7cb9796f3ad7be03e3d9fcd3249&#45;&gt;dir_1fb090f0c6070330bfaccc4236d3ca0d -->
<g id="edge20" class="edge"><title>dir_e83fa7cb9796f3ad7be03e3d9fcd3249&#45;&gt;dir_1fb090f0c6070330bfaccc4236d3ca0d</title>
<path fill="none" stroke="black" d="M350.522,-143.893C376.318,-133.663 409.606,-120.301 438.992,-108 439.826,-107.651 440.671,-107.296 441.521,-106.937"/>
<polygon fill="black" stroke="black" points="442.938,-110.137 450.76,-102.991 440.189,-103.7 442.938,-110.137"/>
<g id="a_edge20&#45;headlabel"><a xlink:href="dir_000019_000001.xhtml" target="_top" xlink:title="61">
<text text-anchor="middle" x="440.748" y="-111.66" font-family="Helvetica,sans-Serif" font-size="10.00">61</text>
</a>
</g>
</g>
<!-- dir_65e289039e1347f87d412b0a1b1a312c -->
<g id="node7" class="node"><title>dir_65e289039e1347f87d412b0a1b1a312c</title>
<g id="a_node7"><a xlink:href="dir_65e289039e1347f87d412b0a1b1a312c.xhtml" target="_top" xlink:title="NEON">
<polygon fill="white" stroke="red" points="240.992,-180 186.992,-180 186.992,-144 240.992,-144 240.992,-180"/>
<text text-anchor="middle" x="213.992" y="-159.5" font-family="Helvetica,sans-Serif" font-size="10.00">NEON</text>
</a>
</g>
</g>
<!-- dir_65e289039e1347f87d412b0a1b1a312c&#45;&gt;dir_b9621ae687ab229876c54f8c2df20e15 -->
<g id="edge12" class="edge"><title>dir_65e289039e1347f87d412b0a1b1a312c&#45;&gt;dir_b9621ae687ab229876c54f8c2df20e15</title>
<path fill="none" stroke="black" d="M221.16,-143.697C224.426,-135.813 228.366,-126.304 231.994,-117.546"/>
<polygon fill="black" stroke="black" points="235.312,-118.683 235.906,-108.104 228.845,-116.003 235.312,-118.683"/>
<g id="a_edge12&#45;headlabel"><a xlink:href="dir_000055_000051.xhtml" target="_top" xlink:title="3">
<text text-anchor="middle" x="236.559" y="-120.59" font-family="Helvetica,sans-Serif" font-size="10.00">3</text>
</a>
</g>
</g>
<!-- dir_65e289039e1347f87d412b0a1b1a312c&#45;&gt;dir_b496024afd63bafbf4e8da80d7d3a81a -->
<g id="edge9" class="edge"><title>dir_65e289039e1347f87d412b0a1b1a312c&#45;&gt;dir_b496024afd63bafbf4e8da80d7d3a81a</title>
<path fill="none" stroke="black" d="M202.621,-143.697C197.273,-135.559 190.788,-125.689 184.881,-116.701"/>
<polygon fill="black" stroke="black" points="187.649,-114.539 179.232,-108.104 181.799,-118.384 187.649,-114.539"/>
<g id="a_edge9&#45;headlabel"><a xlink:href="dir_000055_000052.xhtml" target="_top" xlink:title="6">
<text text-anchor="middle" x="191.995" y="-113.484" font-family="Helvetica,sans-Serif" font-size="10.00">6</text>
</a>
</g>
</g>
<!-- dir_65e289039e1347f87d412b0a1b1a312c&#45;&gt;dir_1fb090f0c6070330bfaccc4236d3ca0d -->
<g id="edge10" class="edge"><title>dir_65e289039e1347f87d412b0a1b1a312c&#45;&gt;dir_1fb090f0c6070330bfaccc4236d3ca0d</title>
<path fill="none" stroke="black" d="M241.217,-147.271C244.139,-146.061 247.1,-144.941 249.992,-144 331.303,-117.532 357.292,-133.241 438.992,-108 439.706,-107.779 440.425,-107.549 441.147,-107.311"/>
<polygon fill="black" stroke="black" points="442.4,-110.58 450.584,-103.851 439.99,-104.008 442.4,-110.58"/>
<g id="a_edge10&#45;headlabel"><a xlink:href="dir_000055_000001.xhtml" target="_top" xlink:title="120">
<text text-anchor="middle" x="440.003" y="-111.983" font-family="Helvetica,sans-Serif" font-size="10.00">120</text>
</a>
</g>
</g>
<!-- dir_65e289039e1347f87d412b0a1b1a312c&#45;&gt;dir_5815af820a9cc9481f1d0990a0d60286 -->
<g id="edge11" class="edge"><title>dir_65e289039e1347f87d412b0a1b1a312c&#45;&gt;dir_5815af820a9cc9481f1d0990a0d60286</title>
<path fill="none" stroke="black" d="M241.363,-147.671C244.256,-146.384 247.171,-145.136 249.992,-144 296.534,-125.256 314.815,-135.178 356.992,-108 383.254,-91.0771 406.871,-64.0086 422.135,-44.1621"/>
<polygon fill="black" stroke="black" points="424.945,-46.2482 428.149,-36.1492 419.347,-42.0463 424.945,-46.2482"/>
<g id="a_edge11&#45;headlabel"><a xlink:href="dir_000055_000026.xhtml" target="_top" xlink:title="2">
<text text-anchor="middle" x="425.059" y="-48.3275" font-family="Helvetica,sans-Serif" font-size="10.00">2</text>
</a>
</g>
</g>
<!-- dir_b88a6d23833cc7e200916be8af5e3057 -->
<g id="node8" class="node"><title>dir_b88a6d23833cc7e200916be8af5e3057</title>
<g id="a_node8"><a xlink:href="dir_b88a6d23833cc7e200916be8af5e3057.xhtml" target="_top" xlink:title="OMP">
<polygon fill="white" stroke="black" points="426.992,-180 372.992,-180 372.992,-144 426.992,-144 426.992,-180"/>
<text text-anchor="middle" x="399.992" y="-159.5" font-family="Helvetica,sans-Serif" font-size="10.00">OMP</text>
</a>
</g>
</g>
<!-- dir_68267d1309a1af8e8297ef4c3efbcdba&#45;&gt;dir_b986aa98f9b6490bb4fc7918500346fb -->
<g id="edge8" class="edge"><title>dir_68267d1309a1af8e8297ef4c3efbcdba&#45;&gt;dir_b986aa98f9b6490bb4fc7918500346fb</title>
<path fill="none" stroke="black" d="M195.73,-222.718C192.692,-220.286 189.68,-217.692 186.992,-215 179.113,-207.11 171.821,-197.298 165.327,-188.329"/>
<polygon fill="black" stroke="black" points="168.053,-186.126 159.353,-180.08 162.383,-190.232 168.053,-186.126"/>
<g id="a_edge8&#45;headlabel"><a xlink:href="dir_000013_000004.xhtml" target="_top" xlink:title="271">
<text text-anchor="middle" x="172.461" y="-184.872" font-family="Helvetica,sans-Serif" font-size="10.00">271</text>
</a>
</g>
</g>
<!-- dir_68267d1309a1af8e8297ef4c3efbcdba&#45;&gt;dir_b9621ae687ab229876c54f8c2df20e15 -->
<g id="edge7" class="edge"><title>dir_68267d1309a1af8e8297ef4c3efbcdba&#45;&gt;dir_b9621ae687ab229876c54f8c2df20e15</title>
<path fill="none" stroke="black" d="M186.76,-240.38C141.413,-240.365 53.4667,-237.367 33.9919,-215 13.2703,-191.201 14.124,-168.516 33.9919,-144 82.6177,-83.9986 130.439,-131.551 203.992,-108 204.089,-107.969 204.185,-107.938 204.282,-107.907"/>
<polygon fill="black" stroke="black" points="205.19,-111.299 213.42,-104.627 202.825,-104.711 205.19,-111.299"/>
<g id="a_edge7&#45;headlabel"><a xlink:href="dir_000013_000051.xhtml" target="_top" xlink:title="2">
<text text-anchor="middle" x="202.766" y="-112.686" font-family="Helvetica,sans-Serif" font-size="10.00">2</text>
</a>
</g>
</g>
<!-- dir_68267d1309a1af8e8297ef4c3efbcdba&#45;&gt;dir_b496024afd63bafbf4e8da80d7d3a81a -->
<g id="edge2" class="edge"><title>dir_68267d1309a1af8e8297ef4c3efbcdba&#45;&gt;dir_b496024afd63bafbf4e8da80d7d3a81a</title>
<path fill="none" stroke="black" d="M186.66,-240.8C137.462,-241.588 37.0488,-240.001 14.9919,-215 -5.88438,-191.337 -3.75536,-169.383 14.9919,-144 45.5469,-102.63 77.5562,-124.879 131.132,-107.786"/>
<polygon fill="black" stroke="black" points="132.399,-111.05 140.651,-104.404 130.056,-104.454 132.399,-111.05"/>
<g id="a_edge2&#45;headlabel"><a xlink:href="dir_000013_000052.xhtml" target="_top" xlink:title="14">
<text text-anchor="middle" x="129.962" y="-112.429" font-family="Helvetica,sans-Serif" font-size="10.00">14</text>
</a>
</g>
</g>
<!-- dir_68267d1309a1af8e8297ef4c3efbcdba&#45;&gt;dir_e83fa7cb9796f3ad7be03e3d9fcd3249 -->
<g id="edge6" class="edge"><title>dir_68267d1309a1af8e8297ef4c3efbcdba&#45;&gt;dir_e83fa7cb9796f3ad7be03e3d9fcd3249</title>
<path fill="none" stroke="black" d="M239.478,-222.931C243.064,-220.348 246.661,-217.657 249.992,-215 260.899,-206.3 272.366,-196.072 282.133,-186.999"/>
<polygon fill="black" stroke="black" points="284.667,-189.42 289.557,-180.021 279.873,-184.319 284.667,-189.42"/>
<g id="a_edge6&#45;headlabel"><a xlink:href="dir_000013_000019.xhtml" target="_top" xlink:title="56">
<text text-anchor="middle" x="283.992" y="-191.451" font-family="Helvetica,sans-Serif" font-size="10.00">56</text>
</a>
</g>
</g>
<!-- dir_68267d1309a1af8e8297ef4c3efbcdba&#45;&gt;dir_65e289039e1347f87d412b0a1b1a312c -->
<g id="edge1" class="edge"><title>dir_68267d1309a1af8e8297ef4c3efbcdba&#45;&gt;dir_65e289039e1347f87d412b0a1b1a312c</title>
<path fill="none" stroke="black" d="M213.992,-222.911C213.992,-213.341 213.992,-201.183 213.992,-190.323"/>
<polygon fill="black" stroke="black" points="217.492,-190.041 213.992,-180.041 210.492,-190.041 217.492,-190.041"/>
<g id="a_edge1&#45;headlabel"><a xlink:href="dir_000013_000055.xhtml" target="_top" xlink:title="218">
<text text-anchor="middle" x="220.331" y="-191.136" font-family="Helvetica,sans-Serif" font-size="10.00">218</text>
</a>
</g>
</g>
<!-- dir_68267d1309a1af8e8297ef4c3efbcdba&#45;&gt;dir_b88a6d23833cc7e200916be8af5e3057 -->
<g id="edge3" class="edge"><title>dir_68267d1309a1af8e8297ef4c3efbcdba&#45;&gt;dir_b88a6d23833cc7e200916be8af5e3057</title>
<path fill="none" stroke="black" d="M241.235,-237.929C278.537,-234.675 343.149,-227.421 362.992,-215 372.956,-208.763 381.016,-198.764 387.039,-189.193"/>
<polygon fill="black" stroke="black" points="390.213,-190.695 392.185,-180.285 384.152,-187.193 390.213,-190.695"/>
<g id="a_edge3&#45;headlabel"><a xlink:href="dir_000013_000058.xhtml" target="_top" xlink:title="1">
<text text-anchor="middle" x="390.874" y="-192.727" font-family="Helvetica,sans-Serif" font-size="10.00">1</text>
</a>
</g>
</g>
<!-- dir_68267d1309a1af8e8297ef4c3efbcdba&#45;&gt;dir_1fb090f0c6070330bfaccc4236d3ca0d -->
<g id="edge4" class="edge"><title>dir_68267d1309a1af8e8297ef4c3efbcdba&#45;&gt;dir_1fb090f0c6070330bfaccc4236d3ca0d</title>
<path fill="none" stroke="black" d="M241.188,-240.565C294.34,-241.107 409.398,-239.344 438.992,-215 467.582,-191.482 475.545,-147.188 477.578,-118.401"/>
<polygon fill="black" stroke="black" points="481.084,-118.368 478.097,-108.203 474.093,-118.012 481.084,-118.368"/>
<g id="a_edge4&#45;headlabel"><a xlink:href="dir_000013_000001.xhtml" target="_top" xlink:title="2985">
<text text-anchor="middle" x="483.737" y="-119.602" font-family="Helvetica,sans-Serif" font-size="10.00">2985</text>
</a>
</g>
</g>
<!-- dir_68267d1309a1af8e8297ef4c3efbcdba&#45;&gt;dir_5815af820a9cc9481f1d0990a0d60286 -->
<g id="edge5" class="edge"><title>dir_68267d1309a1af8e8297ef4c3efbcdba&#45;&gt;dir_5815af820a9cc9481f1d0990a0d60286</title>
<path fill="none" stroke="black" d="M241.054,-238.944C303.334,-236.291 452.872,-228.571 470.992,-215 529.586,-171.116 552.478,-118.272 513.992,-56 505.709,-42.5979 490.939,-33.8879 476.761,-28.3096"/>
<polygon fill="black" stroke="black" points="477.722,-24.9377 467.127,-24.9289 475.404,-31.5428 477.722,-24.9377"/>
<g id="a_edge5&#45;headlabel"><a xlink:href="dir_000013_000026.xhtml" target="_top" xlink:title="488">
<text text-anchor="middle" x="482.054" y="-20.9488" font-family="Helvetica,sans-Serif" font-size="10.00">488</text>
</a>
</g>
</g>
<!-- dir_1fb090f0c6070330bfaccc4236d3ca0d&#45;&gt;dir_b9621ae687ab229876c54f8c2df20e15 -->
<g id="edge18" class="edge"><title>dir_1fb090f0c6070330bfaccc4236d3ca0d&#45;&gt;dir_b9621ae687ab229876c54f8c2df20e15</title>
<path fill="none" stroke="black" d="M450.743,-90C394.797,-90 338.85,-90 282.903,-90"/>
<polygon fill="black" stroke="black" points="282.826,-86.5001 272.826,-90 282.826,-93.5001 282.826,-86.5001"/>
<g id="a_edge18&#45;headlabel"><a xlink:href="dir_000001_000051.xhtml" target="_top" xlink:title="1">
<text text-anchor="middle" x="286.42" y="-81.1607" font-family="Helvetica,sans-Serif" font-size="10.00">1</text>
</a>
</g>
</g>
<!-- dir_1fb090f0c6070330bfaccc4236d3ca0d&#45;&gt;dir_b496024afd63bafbf4e8da80d7d3a81a -->
<g id="edge16" class="edge"><title>dir_1fb090f0c6070330bfaccc4236d3ca0d&#45;&gt;dir_b496024afd63bafbf4e8da80d7d3a81a</title>
<path fill="none" stroke="black" d="M459.57,-108.236C451.253,-115.22 440.862,-122.377 429.992,-126 384.244,-141.249 258.496,-141.962 212.992,-126 205.852,-123.496 199.004,-119.329 192.898,-114.701"/>
<polygon fill="black" stroke="black" points="195.006,-111.903 185.073,-108.217 190.54,-117.293 195.006,-111.903"/>
<g id="a_edge16&#45;headlabel"><a xlink:href="dir_000001_000052.xhtml" target="_top" xlink:title="1">
<text text-anchor="middle" x="199.586" y="-109.511" font-family="Helvetica,sans-Serif" font-size="10.00">1</text>
</a>
</g>
</g>
<!-- dir_1fb090f0c6070330bfaccc4236d3ca0d&#45;&gt;dir_5815af820a9cc9481f1d0990a0d60286 -->
<g id="edge17" class="edge"><title>dir_1fb090f0c6070330bfaccc4236d3ca0d&#45;&gt;dir_5815af820a9cc9481f1d0990a0d60286</title>
<path fill="none" stroke="black" d="M462.683,-71.6966C457.535,-63.7284 452.094,-54.0995 447.69,-45.2641"/>
<polygon fill="black" stroke="black" points="450.805,-43.6639 443.382,-36.1043 444.471,-46.6431 450.805,-43.6639"/>
<g id="a_edge17&#45;headlabel"><a xlink:href="dir_000001_000026.xhtml" target="_top" xlink:title="10">
<text text-anchor="middle" x="454.904" y="-43.2084" font-family="Helvetica,sans-Serif" font-size="10.00">10</text>
</a>
</g>
</g>
<!-- dir_5815af820a9cc9481f1d0990a0d60286&#45;&gt;dir_1fb090f0c6070330bfaccc4236d3ca0d -->
<g id="edge19" class="edge"><title>dir_5815af820a9cc9481f1d0990a0d60286&#45;&gt;dir_1fb090f0c6070330bfaccc4236d3ca0d</title>
<path fill="none" stroke="black" d="M455.172,-36.1043C460.315,-44.0447 465.762,-53.6661 470.183,-62.5146"/>
<polygon fill="black" stroke="black" points="467.083,-64.1454 474.514,-71.6966 473.414,-61.1591 467.083,-64.1454"/>
<g id="a_edge19&#45;headlabel"><a xlink:href="dir_000026_000001.xhtml" target="_top" xlink:title="6">
<text text-anchor="middle" x="462.981" y="-59.6055" font-family="Helvetica,sans-Serif" font-size="10.00">6</text>
</a>
</g>
</g>
</g>
</svg>
