<?xml version="1.0" encoding="UTF-8" standalone="no"?>
<!DOCTYPE svg PUBLIC "-//W3C//DTD SVG 1.1//EN"
 "http://www.w3.org/Graphics/SVG/1.1/DTD/svg11.dtd">
<!-- Generated by graphviz version 2.38.0 (20140413.2041)
 -->
<!-- Title: arm_compute/runtime/NEON Pages: 1 -->
<svg width="207pt" height="303pt"
 viewBox="0.00 0.00 207.39 303.00" xmlns="http://www.w3.org/2000/svg" xmlns:xlink="http://www.w3.org/1999/xlink">
<g id="graph0" class="graph" transform="scale(1 1) rotate(0) translate(4 299)">
<title>arm_compute/runtime/NEON</title>
<polygon fill="white" stroke="none" points="-4,4 -4,-299 203.389,-299 203.389,4 -4,4"/>
<g id="clust1" class="cluster"><title>clusterdir_8bc26130589aa16388b5a02f17abf2c2</title>
<g id="a_clust1"><a xlink:href="dir_8bc26130589aa16388b5a02f17abf2c2.xhtml" target="_top" xlink:title="runtime">
<polygon fill="#ddddee" stroke="black" points="27.3894,-200 27.3894,-287 191.389,-287 191.389,-200 27.3894,-200"/>
<text text-anchor="middle" x="109.389" y="-275" font-family="Helvetica,sans-Serif" font-size="10.00">runtime</text>
</a>
</g>
</g>
<g id="clust2" class="cluster"><title>clusterdir_65e289039e1347f87d412b0a1b1a312c</title>
<g id="a_clust2"><a xlink:href="dir_65e289039e1347f87d412b0a1b1a312c.xhtml" target="_top">
<polygon fill="#eeeeff" stroke="black" points="35.3894,-208 35.3894,-260 183.389,-260 183.389,-208 35.3894,-208"/>
</a>
</g>
</g>
<!-- dir_65e289039e1347f87d412b0a1b1a312c -->
<g id="node1" class="node"><title>dir_65e289039e1347f87d412b0a1b1a312c</title>
<text text-anchor="middle" x="148.389" y="-231.5" font-family="Helvetica,sans-Serif" font-size="10.00">NEON</text>
</g>
<!-- dir_345bd7154d1542d1e03fd2836959a19d -->
<g id="node2" class="node"><title>dir_345bd7154d1542d1e03fd2836959a19d</title>
<g id="a_node2"><a xlink:href="dir_345bd7154d1542d1e03fd2836959a19d.xhtml" target="_top" xlink:title="functions">
<polygon fill="white" stroke="red" points="103.389,-252 43.3894,-252 43.3894,-216 103.389,-216 103.389,-252"/>
<text text-anchor="middle" x="73.3894" y="-231.5" font-family="Helvetica,sans-Serif" font-size="10.00">functions</text>
</a>
</g>
</g>
<!-- dir_b496024afd63bafbf4e8da80d7d3a81a -->
<g id="node3" class="node"><title>dir_b496024afd63bafbf4e8da80d7d3a81a</title>
<g id="a_node3"><a xlink:href="dir_b496024afd63bafbf4e8da80d7d3a81a.xhtml" target="_top" xlink:title="CPP">
<polygon fill="white" stroke="red" points="73.3894,-180 19.3894,-180 19.3894,-144 73.3894,-144 73.3894,-180"/>
<text text-anchor="middle" x="46.3894" y="-159.5" font-family="Helvetica,sans-Serif" font-size="10.00">CPP</text>
</a>
</g>
</g>
<!-- dir_345bd7154d1542d1e03fd2836959a19d&#45;&gt;dir_b496024afd63bafbf4e8da80d7d3a81a -->
<g id="edge1" class="edge"><title>dir_345bd7154d1542d1e03fd2836959a19d&#45;&gt;dir_b496024afd63bafbf4e8da80d7d3a81a</title>
<path fill="none" stroke="black" d="M66.7152,-215.697C63.6744,-207.813 60.0067,-198.304 56.6287,-189.546"/>
<polygon fill="black" stroke="black" points="59.851,-188.175 52.9868,-180.104 53.32,-190.694 59.851,-188.175"/>
<g id="a_edge1&#45;headlabel"><a xlink:href="dir_000056_000052.xhtml" target="_top" xlink:title="6">
<text text-anchor="middle" x="63.7936" y="-188.007" font-family="Helvetica,sans-Serif" font-size="10.00">6</text>
</a>
</g>
</g>
<!-- dir_1fb090f0c6070330bfaccc4236d3ca0d -->
<g id="node4" class="node"><title>dir_1fb090f0c6070330bfaccc4236d3ca0d</title>
<g id="a_node4"><a xlink:href="dir_1fb090f0c6070330bfaccc4236d3ca0d.xhtml" target="_top" xlink:title="core">
<polygon fill="white" stroke="red" points="111.389,-108 57.3894,-108 57.3894,-72 111.389,-72 111.389,-108"/>
<text text-anchor="middle" x="84.3894" y="-87.5" font-family="Helvetica,sans-Serif" font-size="10.00">core</text>
</a>
</g>
</g>
<!-- dir_345bd7154d1542d1e03fd2836959a19d&#45;&gt;dir_1fb090f0c6070330bfaccc4236d3ca0d -->
<g id="edge2" class="edge"><title>dir_345bd7154d1542d1e03fd2836959a19d&#45;&gt;dir_1fb090f0c6070330bfaccc4236d3ca0d</title>
<path fill="none" stroke="black" d="M76.9445,-215.899C78.9316,-205.557 81.2344,-192.078 82.3894,-180 84.3631,-159.36 84.8174,-135.911 84.8028,-118.265"/>
<polygon fill="black" stroke="black" points="88.3019,-118.084 84.7425,-108.105 81.302,-118.126 88.3019,-118.084"/>
<g id="a_edge2&#45;headlabel"><a xlink:href="dir_000056_000001.xhtml" target="_top" xlink:title="119">
<text text-anchor="middle" x="91.1624" y="-119.162" font-family="Helvetica,sans-Serif" font-size="10.00">119</text>
</a>
</g>
</g>
<!-- dir_5815af820a9cc9481f1d0990a0d60286 -->
<g id="node5" class="node"><title>dir_5815af820a9cc9481f1d0990a0d60286</title>
<g id="a_node5"><a xlink:href="dir_5815af820a9cc9481f1d0990a0d60286.xhtml" target="_top" xlink:title="support">
<polygon fill="none" stroke="black" points="56.3894,-36 2.38937,-36 2.38937,-0 56.3894,-0 56.3894,-36"/>
<text text-anchor="middle" x="29.3894" y="-15.5" font-family="Helvetica,sans-Serif" font-size="10.00">support</text>
</a>
</g>
</g>
<!-- dir_345bd7154d1542d1e03fd2836959a19d&#45;&gt;dir_5815af820a9cc9481f1d0990a0d60286 -->
<g id="edge3" class="edge"><title>dir_345bd7154d1542d1e03fd2836959a19d&#45;&gt;dir_5815af820a9cc9481f1d0990a0d60286</title>
<path fill="none" stroke="black" d="M43.0896,-215.805C30.5115,-206.898 17.2662,-194.772 10.3894,-180 -9.9563,-136.296 5.42865,-79.002 17.8396,-45.8674"/>
<polygon fill="black" stroke="black" points="21.1592,-46.9892 21.5529,-36.4017 14.6426,-44.4328 21.1592,-46.9892"/>
<g id="a_edge3&#45;headlabel"><a xlink:href="dir_000056_000026.xhtml" target="_top" xlink:title="2">
<text text-anchor="middle" x="22.4896" y="-48.8724" font-family="Helvetica,sans-Serif" font-size="10.00">2</text>
</a>
</g>
</g>
<!-- dir_b9621ae687ab229876c54f8c2df20e15 -->
<g id="node6" class="node"><title>dir_b9621ae687ab229876c54f8c2df20e15</title>
<g id="a_node6"><a xlink:href="dir_b9621ae687ab229876c54f8c2df20e15.xhtml" target="_top" xlink:title="common">
<polygon fill="none" stroke="black" points="133.889,-36 74.8894,-36 74.8894,-0 133.889,-0 133.889,-36"/>
<text text-anchor="middle" x="104.389" y="-15.5" font-family="Helvetica,sans-Serif" font-size="10.00">common</text>
</a>
</g>
</g>
<!-- dir_345bd7154d1542d1e03fd2836959a19d&#45;&gt;dir_b9621ae687ab229876c54f8c2df20e15 -->
<g id="edge4" class="edge"><title>dir_345bd7154d1542d1e03fd2836959a19d&#45;&gt;dir_b9621ae687ab229876c54f8c2df20e15</title>
<path fill="none" stroke="black" d="M82.5242,-215.832C94.4069,-192.305 114.361,-148.357 120.389,-108 122.753,-92.1756 122.726,-87.8284 120.389,-72 119.112,-63.3473 116.721,-54.1492 114.169,-45.8867"/>
<polygon fill="black" stroke="black" points="117.489,-44.7788 111.042,-36.3719 110.839,-46.9648 117.489,-44.7788"/>
<g id="a_edge4&#45;headlabel"><a xlink:href="dir_000056_000051.xhtml" target="_top" xlink:title="3">
<text text-anchor="middle" x="121.309" y="-44.807" font-family="Helvetica,sans-Serif" font-size="10.00">3</text>
</a>
</g>
</g>
<!-- dir_b496024afd63bafbf4e8da80d7d3a81a&#45;&gt;dir_1fb090f0c6070330bfaccc4236d3ca0d -->
<g id="edge5" class="edge"><title>dir_b496024afd63bafbf4e8da80d7d3a81a&#45;&gt;dir_1fb090f0c6070330bfaccc4236d3ca0d</title>
<path fill="none" stroke="black" d="M49.8669,-143.697C53.4451,-135.559 58.5971,-125.689 63.9036,-116.701"/>
<polygon fill="black" stroke="black" points="66.9357,-118.452 69.2091,-108.104 60.9788,-114.776 66.9357,-118.452"/>
<g id="a_edge5&#45;headlabel"><a xlink:href="dir_000052_000001.xhtml" target="_top" xlink:title="15">
<text text-anchor="middle" x="67.4641" y="-120.502" font-family="Helvetica,sans-Serif" font-size="10.00">15</text>
</a>
</g>
</g>
<!-- dir_b496024afd63bafbf4e8da80d7d3a81a&#45;&gt;dir_5815af820a9cc9481f1d0990a0d60286 -->
<g id="edge6" class="edge"><title>dir_b496024afd63bafbf4e8da80d7d3a81a&#45;&gt;dir_5815af820a9cc9481f1d0990a0d60286</title>
<path fill="none" stroke="black" d="M44.3388,-143.871C41.4414,-119.67 36.1188,-75.2108 32.6688,-46.3932"/>
<polygon fill="black" stroke="black" points="36.1112,-45.7023 31.4472,-36.1893 29.1608,-46.5344 36.1112,-45.7023"/>
<g id="a_edge6&#45;headlabel"><a xlink:href="dir_000052_000026.xhtml" target="_top" xlink:title="1">
<text text-anchor="middle" x="39.3576" y="-46.4339" font-family="Helvetica,sans-Serif" font-size="10.00">1</text>
</a>
</g>
</g>
<!-- dir_1fb090f0c6070330bfaccc4236d3ca0d&#45;&gt;dir_b496024afd63bafbf4e8da80d7d3a81a -->
<g id="edge7" class="edge"><title>dir_1fb090f0c6070330bfaccc4236d3ca0d&#45;&gt;dir_b496024afd63bafbf4e8da80d7d3a81a</title>
<path fill="none" stroke="black" d="M80.9992,-108.104C77.4468,-116.214 72.309,-126.076 67.0051,-135.078"/>
<polygon fill="black" stroke="black" points="63.9614,-133.346 61.6984,-143.697 69.922,-137.017 63.9614,-133.346"/>
<g id="a_edge7&#45;headlabel"><a xlink:href="dir_000001_000052.xhtml" target="_top" xlink:title="1">
<text text-anchor="middle" x="63.4284" y="-126.297" font-family="Helvetica,sans-Serif" font-size="10.00">1</text>
</a>
</g>
</g>
<!-- dir_1fb090f0c6070330bfaccc4236d3ca0d&#45;&gt;dir_5815af820a9cc9481f1d0990a0d60286 -->
<g id="edge8" class="edge"><title>dir_1fb090f0c6070330bfaccc4236d3ca0d&#45;&gt;dir_5815af820a9cc9481f1d0990a0d60286</title>
<path fill="none" stroke="black" d="M64.8781,-71.6966C57.5694,-63.4741 49.518,-53.4832 42.8427,-44.4207"/>
<polygon fill="black" stroke="black" points="45.5788,-42.2288 36.9335,-36.1043 39.8726,-46.2833 45.5788,-42.2288"/>
<g id="a_edge8&#45;headlabel"><a xlink:href="dir_000001_000026.xhtml" target="_top" xlink:title="10">
<text text-anchor="middle" x="49.9753" y="-41.0144" font-family="Helvetica,sans-Serif" font-size="10.00">10</text>
</a>
</g>
</g>
<!-- dir_1fb090f0c6070330bfaccc4236d3ca0d&#45;&gt;dir_b9621ae687ab229876c54f8c2df20e15 -->
<g id="edge9" class="edge"><title>dir_1fb090f0c6070330bfaccc4236d3ca0d&#45;&gt;dir_b9621ae687ab229876c54f8c2df20e15</title>
<path fill="none" stroke="black" d="M83.4175,-71.6966C84.8567,-63.8132 87.3548,-54.3042 90.2328,-45.5464"/>
<polygon fill="black" stroke="black" points="93.5377,-46.6989 93.6074,-36.1043 86.946,-44.3431 93.5377,-46.6989"/>
<g id="a_edge9&#45;headlabel"><a xlink:href="dir_000001_000051.xhtml" target="_top" xlink:title="1">
<text text-anchor="middle" x="95.0016" y="-48.5394" font-family="Helvetica,sans-Serif" font-size="10.00">1</text>
</a>
</g>
</g>
<!-- dir_5815af820a9cc9481f1d0990a0d60286&#45;&gt;dir_1fb090f0c6070330bfaccc4236d3ca0d -->
<g id="edge10" class="edge"><title>dir_5815af820a9cc9481f1d0990a0d60286&#45;&gt;dir_1fb090f0c6070330bfaccc4236d3ca0d</title>
<path fill="none" stroke="black" d="M48.7235,-36.1043C56.0201,-44.2981 64.0765,-54.282 70.7739,-63.3594"/>
<polygon fill="black" stroke="black" points="68.0586,-65.5802 76.7096,-71.6966 73.761,-61.5203 68.0586,-65.5802"/>
<g id="a_edge10&#45;headlabel"><a xlink:href="dir_000026_000001.xhtml" target="_top" xlink:title="6">
<text text-anchor="middle" x="63.6609" y="-61.7986" font-family="Helvetica,sans-Serif" font-size="10.00">6</text>
</a>
</g>
</g>
<!-- dir_b9621ae687ab229876c54f8c2df20e15&#45;&gt;dir_1fb090f0c6070330bfaccc4236d3ca0d -->
<g id="edge11" class="edge"><title>dir_b9621ae687ab229876c54f8c2df20e15&#45;&gt;dir_1fb090f0c6070330bfaccc4236d3ca0d</title>
<path fill="none" stroke="black" d="M105.397,-36.1043C103.976,-43.9602 101.49,-53.4616 98.6186,-62.232"/>
<polygon fill="black" stroke="black" points="95.3058,-61.1019 95.2489,-71.6966 101.9,-63.4498 95.3058,-61.1019"/>
<g id="a_edge11&#45;headlabel"><a xlink:href="dir_000051_000001.xhtml" target="_top" xlink:title="3">
<text text-anchor="middle" x="93.8366" y="-54.2633" font-family="Helvetica,sans-Serif" font-size="10.00">3</text>
</a>
</g>
</g>
</g>
</svg>
