<?xml version="1.0" encoding="UTF-8" standalone="no"?>
<!DOCTYPE svg PUBLIC "-//W3C//DTD SVG 1.1//EN"
 "http://www.w3.org/Graphics/SVG/1.1/DTD/svg11.dtd">
<!-- Generated by graphviz version 2.38.0 (20140413.2041)
 -->
<!-- Title: tests/instruments Pages: 1 -->
<svg width="126pt" height="223pt"
 viewBox="0.00 0.00 125.50 223.00" xmlns="http://www.w3.org/2000/svg" xmlns:xlink="http://www.w3.org/1999/xlink">
<g id="graph0" class="graph" transform="scale(1 1) rotate(0) translate(4 219)">
<title>tests/instruments</title>
<polygon fill="white" stroke="none" points="-4,4 -4,-219 121.5,-219 121.5,4 -4,4"/>
<g id="clust1" class="cluster"><title>clusterdir_59425e443f801f1f2fd8bbe4959a3ccf</title>
<g id="a_clust1"><a xlink:href="dir_59425e443f801f1f2fd8bbe4959a3ccf.xhtml" target="_top" xlink:title="tests">
<polygon fill="#ddddee" stroke="black" points="19.5,-136 19.5,-207 109.5,-207 109.5,-136 19.5,-136"/>
<text text-anchor="middle" x="64.5" y="-195" font-family="Helvetica,sans-Serif" font-size="10.00">tests</text>
</a>
</g>
</g>
<!-- dir_bf8055138dca2e0cf3a462401cd745bf -->
<g id="node1" class="node"><title>dir_bf8055138dca2e0cf3a462401cd745bf</title>
<g id="a_node1"><a xlink:href="dir_bf8055138dca2e0cf3a462401cd745bf.xhtml" target="_top" xlink:title="instruments">
<polygon fill="#eeeeff" stroke="black" points="101.5,-180 27.5,-180 27.5,-144 101.5,-144 101.5,-180"/>
<text text-anchor="middle" x="64.5" y="-159.5" font-family="Helvetica,sans-Serif" font-size="10.00">instruments</text>
</a>
</g>
</g>
<!-- dir_9e71e2da941d3cafc4d98a9f6ae3de4f -->
<g id="node2" class="node"><title>dir_9e71e2da941d3cafc4d98a9f6ae3de4f</title>
<g id="a_node2"><a xlink:href="dir_9e71e2da941d3cafc4d98a9f6ae3de4f.xhtml" target="_top" xlink:title="framework">
<polygon fill="white" stroke="red" points="67,-108 0,-108 0,-72 67,-72 67,-108"/>
<text text-anchor="middle" x="33.5" y="-87.5" font-family="Helvetica,sans-Serif" font-size="10.00">framework</text>
</a>
</g>
</g>
<!-- dir_bf8055138dca2e0cf3a462401cd745bf&#45;&gt;dir_9e71e2da941d3cafc4d98a9f6ae3de4f -->
<g id="edge2" class="edge"><title>dir_bf8055138dca2e0cf3a462401cd745bf&#45;&gt;dir_9e71e2da941d3cafc4d98a9f6ae3de4f</title>
<path fill="none" stroke="black" d="M56.8371,-143.697C53.3083,-135.728 49.0441,-126.1 45.1313,-117.264"/>
<polygon fill="black" stroke="black" points="48.3243,-115.831 41.0748,-108.104 41.9239,-118.665 48.3243,-115.831"/>
<g id="a_edge2&#45;headlabel"><a xlink:href="dir_000021_000030.xhtml" target="_top" xlink:title="1">
<text text-anchor="middle" x="52.3759" y="-115.468" font-family="Helvetica,sans-Serif" font-size="10.00">1</text>
</a>
</g>
</g>
<!-- dir_214608ef36d61442cb2b0c1c4e9a7def -->
<g id="node3" class="node"><title>dir_214608ef36d61442cb2b0c1c4e9a7def</title>
<g id="a_node3"><a xlink:href="dir_214608ef36d61442cb2b0c1c4e9a7def.xhtml" target="_top" xlink:title="arm_compute">
<polygon fill="white" stroke="red" points="106.5,-36 22.5,-36 22.5,-0 106.5,-0 106.5,-36"/>
<text text-anchor="middle" x="64.5" y="-15.5" font-family="Helvetica,sans-Serif" font-size="10.00">arm_compute</text>
</a>
</g>
</g>
<!-- dir_bf8055138dca2e0cf3a462401cd745bf&#45;&gt;dir_214608ef36d61442cb2b0c1c4e9a7def -->
<g id="edge3" class="edge"><title>dir_bf8055138dca2e0cf3a462401cd745bf&#45;&gt;dir_214608ef36d61442cb2b0c1c4e9a7def</title>
<path fill="none" stroke="black" d="M69.3691,-143.979C72.0642,-133.665 75.1374,-120.189 76.5,-108 78.2776,-92.0991 78.2776,-87.9009 76.5,-72 75.5419,-63.4299 73.7382,-54.2228 71.8148,-45.9264"/>
<polygon fill="black" stroke="black" points="75.1642,-44.8904 69.3691,-36.0209 68.3682,-46.5684 75.1642,-44.8904"/>
<g id="a_edge3&#45;headlabel"><a xlink:href="dir_000021_000000.xhtml" target="_top" xlink:title="1">
<text text-anchor="middle" x="78.7822" y="-45.1997" font-family="Helvetica,sans-Serif" font-size="10.00">1</text>
</a>
</g>
</g>
<!-- dir_9e71e2da941d3cafc4d98a9f6ae3de4f&#45;&gt;dir_214608ef36d61442cb2b0c1c4e9a7def -->
<g id="edge1" class="edge"><title>dir_9e71e2da941d3cafc4d98a9f6ae3de4f&#45;&gt;dir_214608ef36d61442cb2b0c1c4e9a7def</title>
<path fill="none" stroke="black" d="M41.1629,-71.6966C44.6917,-63.7284 48.9559,-54.0995 52.8687,-45.2641"/>
<polygon fill="black" stroke="black" points="56.0761,-46.6651 56.9252,-36.1043 49.6757,-43.8306 56.0761,-46.6651"/>
<g id="a_edge1&#45;headlabel"><a xlink:href="dir_000030_000000.xhtml" target="_top" xlink:title="15">
<text text-anchor="middle" x="57.2167" y="-48.6015" font-family="Helvetica,sans-Serif" font-size="10.00">15</text>
</a>
</g>
</g>
</g>
</svg>
