<?xml version="1.0" encoding="UTF-8" standalone="no"?>
<!DOCTYPE svg PUBLIC "-//W3C//DTD SVG 1.1//EN"
 "http://www.w3.org/Graphics/SVG/1.1/DTD/svg11.dtd">
<!-- Generated by graphviz version 2.38.0 (20140413.2041)
 -->
<!-- Title: Graphical Class Hierarchy Pages: 1 -->
<svg width="348pt" height="104pt"
 viewBox="0.00 0.00 348.00 104.00" xmlns="http://www.w3.org/2000/svg" xmlns:xlink="http://www.w3.org/1999/xlink">
<g id="graph0" class="graph" transform="scale(1 1) rotate(0) translate(4 100)">
<title>Graphical Class Hierarchy</title>
<polygon fill="white" stroke="none" points="-4,4 -4,-100 344,-100 344,4 -4,4"/>
<!-- Node0 -->
<g id="node1" class="node"><title>Node0</title>
<g id="a_node1"><a xlink:href="classarm__compute_1_1cl__gemm_1_1_i_c_l_g_e_m_m_kernel_selection.xhtml" target="_top" xlink:title="Basic interface for the GEMM kernel selection.">
<polygon fill="white" stroke="black" points="0,-38.5 0,-57.5 134,-57.5 134,-38.5 0,-38.5"/>
<text text-anchor="middle" x="67" y="-45.5" font-family="Helvetica,sans-Serif" font-size="10.00">ICLGEMMKernelSelection</text>
</a>
</g>
</g>
<!-- Node1 -->
<g id="node2" class="node"><title>Node1</title>
<g id="a_node2"><a xlink:href="classarm__compute_1_1cl__gemm_1_1_c_l_g_e_m_m_kernel_selection_bifrost.xhtml" target="_top" xlink:title="Bifrost based OpenCL GEMMKernel selection.">
<polygon fill="white" stroke="black" points="173.5,-76.5 173.5,-95.5 336.5,-95.5 336.5,-76.5 173.5,-76.5"/>
<text text-anchor="middle" x="255" y="-83.5" font-family="Helvetica,sans-Serif" font-size="10.00">CLGEMMKernelSelectionBifrost</text>
</a>
</g>
</g>
<!-- Node0&#45;&gt;Node1 -->
<g id="edge1" class="edge"><title>Node0&#45;&gt;Node1</title>
<path fill="none" stroke="midnightblue" d="M124.825,-59.6095C151.279,-65.014 182.358,-71.3635 207.402,-76.4799"/>
<polygon fill="midnightblue" stroke="midnightblue" points="125.434,-56.1616 114.936,-57.589 124.033,-63.0199 125.434,-56.1616"/>
</g>
<!-- Node2 -->
<g id="node3" class="node"><title>Node2</title>
<g id="a_node3"><a xlink:href="classarm__compute_1_1cl__gemm_1_1_c_l_g_e_m_m_kernel_selection_midgard.xhtml" target="_top" xlink:title="Midgard based OpenCL GEMMKernel selection.">
<polygon fill="white" stroke="black" points="170,-38.5 170,-57.5 340,-57.5 340,-38.5 170,-38.5"/>
<text text-anchor="middle" x="255" y="-45.5" font-family="Helvetica,sans-Serif" font-size="10.00">CLGEMMKernelSelectionMidgard</text>
</a>
</g>
</g>
<!-- Node0&#45;&gt;Node2 -->
<g id="edge2" class="edge"><title>Node0&#45;&gt;Node2</title>
<path fill="none" stroke="midnightblue" d="M144.285,-48C152.727,-48 161.36,-48 169.892,-48"/>
<polygon fill="midnightblue" stroke="midnightblue" points="144.1,-44.5001 134.1,-48 144.1,-51.5001 144.1,-44.5001"/>
</g>
<!-- Node3 -->
<g id="node4" class="node"><title>Node3</title>
<g id="a_node4"><a xlink:href="classarm__compute_1_1cl__gemm_1_1_c_l_g_e_m_m_kernel_selection_valhall.xhtml" target="_top" xlink:title="Valhall based OpenCL GEMMKernel selection.">
<polygon fill="white" stroke="black" points="173.5,-0.5 173.5,-19.5 336.5,-19.5 336.5,-0.5 173.5,-0.5"/>
<text text-anchor="middle" x="255" y="-7.5" font-family="Helvetica,sans-Serif" font-size="10.00">CLGEMMKernelSelectionValhall</text>
</a>
</g>
</g>
<!-- Node0&#45;&gt;Node3 -->
<g id="edge3" class="edge"><title>Node0&#45;&gt;Node3</title>
<path fill="none" stroke="midnightblue" d="M124.825,-36.3905C151.279,-30.986 182.358,-24.6365 207.402,-19.5201"/>
<polygon fill="midnightblue" stroke="midnightblue" points="124.033,-32.9801 114.936,-38.411 125.434,-39.8384 124.033,-32.9801"/>
</g>
</g>
</svg>
