<?xml version="1.0" encoding="UTF-8" standalone="no"?>
<!DOCTYPE svg PUBLIC "-//W3C//DTD SVG 1.1//EN"
 "http://www.w3.org/Graphics/SVG/1.1/DTD/svg11.dtd">
<!-- Generated by graphviz version 2.38.0 (20140413.2041)
 -->
<!-- Title: NEAccumulateSquaredKernel Pages: 1 -->
<svg width="154pt" height="196pt"
 viewBox="0.00 0.00 154.00 196.00" xmlns="http://www.w3.org/2000/svg" xmlns:xlink="http://www.w3.org/1999/xlink">
<g id="graph0" class="graph" transform="scale(1 1) rotate(0) translate(4 192)">
<title>NEAccumulateSquaredKernel</title>
<polygon fill="white" stroke="none" points="-4,4 -4,-192 150,-192 150,4 -4,4"/>
<!-- Node1 -->
<g id="node1" class="node"><title>Node1</title>
<polygon fill="#bfbfbf" stroke="black" points="0,-0.5 0,-19.5 146,-19.5 146,-0.5 0,-0.5"/>
<text text-anchor="middle" x="73" y="-7.5" font-family="Helvetica,sans-Serif" font-size="10.00">NEAccumulateSquaredKernel</text>
</g>
<!-- Node2 -->
<g id="node2" class="node"><title>Node2</title>
<g id="a_node2"><a xlink:href="classarm__compute_1_1_i_c_p_p_simple_kernel.xhtml" target="_top" xlink:title="Interface for simple NEON kernels having 1 tensor input and 1 tensor output. ">
<polygon fill="white" stroke="black" points="27,-56.5 27,-75.5 119,-75.5 119,-56.5 27,-56.5"/>
<text text-anchor="middle" x="73" y="-63.5" font-family="Helvetica,sans-Serif" font-size="10.00">INESimpleKernel</text>
</a>
</g>
</g>
<!-- Node2&#45;&gt;Node1 -->
<g id="edge1" class="edge"><title>Node2&#45;&gt;Node1</title>
<path fill="none" stroke="midnightblue" d="M73,-45.8045C73,-36.9102 73,-26.7798 73,-19.7511"/>
<polygon fill="midnightblue" stroke="midnightblue" points="69.5001,-46.083 73,-56.083 76.5001,-46.083 69.5001,-46.083"/>
</g>
<!-- Node3 -->
<g id="node3" class="node"><title>Node3</title>
<g id="a_node3"><a xlink:href="classarm__compute_1_1_i_c_p_p_kernel.xhtml" target="_top" xlink:title="Common interface for all kernels implemented in C++. ">
<polygon fill="white" stroke="black" points="39,-112.5 39,-131.5 107,-131.5 107,-112.5 39,-112.5"/>
<text text-anchor="middle" x="73" y="-119.5" font-family="Helvetica,sans-Serif" font-size="10.00">ICPPKernel</text>
</a>
</g>
</g>
<!-- Node3&#45;&gt;Node2 -->
<g id="edge2" class="edge"><title>Node3&#45;&gt;Node2</title>
<path fill="none" stroke="midnightblue" d="M73,-101.805C73,-92.9102 73,-82.7798 73,-75.7511"/>
<polygon fill="midnightblue" stroke="midnightblue" points="69.5001,-102.083 73,-112.083 76.5001,-102.083 69.5001,-102.083"/>
</g>
<!-- Node4 -->
<g id="node4" class="node"><title>Node4</title>
<g id="a_node4"><a xlink:href="classarm__compute_1_1_i_kernel.xhtml" target="_top" xlink:title="Common information for all the kernels. ">
<polygon fill="white" stroke="black" points="49.5,-168.5 49.5,-187.5 96.5,-187.5 96.5,-168.5 49.5,-168.5"/>
<text text-anchor="middle" x="73" y="-175.5" font-family="Helvetica,sans-Serif" font-size="10.00">IKernel</text>
</a>
</g>
</g>
<!-- Node4&#45;&gt;Node3 -->
<g id="edge3" class="edge"><title>Node4&#45;&gt;Node3</title>
<path fill="none" stroke="midnightblue" d="M73,-157.805C73,-148.91 73,-138.78 73,-131.751"/>
<polygon fill="midnightblue" stroke="midnightblue" points="69.5001,-158.083 73,-168.083 76.5001,-158.083 69.5001,-158.083"/>
</g>
</g>
</svg>
