<?xml version="1.0" encoding="UTF-8" standalone="no"?>
<!DOCTYPE svg PUBLIC "-//W3C//DTD SVG 1.1//EN"
 "http://www.w3.org/Graphics/SVG/1.1/DTD/svg11.dtd">
<!-- Generated by graphviz version 2.38.0 (20140413.2041)
 -->
<!-- Title: arm_compute Pages: 1 -->
<svg width="188pt" height="148pt"
 viewBox="0.00 0.00 188.00 148.00" xmlns="http://www.w3.org/2000/svg" xmlns:xlink="http://www.w3.org/1999/xlink">
<g id="graph0" class="graph" transform="scale(1 1) rotate(0) translate(4 144)">
<title>arm_compute</title>
<polygon fill="white" stroke="none" points="-4,4 -4,-144 184,-144 184,4 -4,4"/>
<g id="clust1" class="cluster"><title>clusterdir_214608ef36d61442cb2b0c1c4e9a7def</title>
<g id="a_clust1"><a xlink:href="dir_214608ef36d61442cb2b0c1c4e9a7def.xhtml" target="_top">
<polygon fill="#eeeeff" stroke="black" points="8,-8 8,-132 172,-132 172,-8 8,-8"/>
</a>
</g>
</g>
<!-- dir_214608ef36d61442cb2b0c1c4e9a7def -->
<g id="node1" class="node"><title>dir_214608ef36d61442cb2b0c1c4e9a7def</title>
<text text-anchor="middle" x="126" y="-103.5" font-family="Helvetica,sans-Serif" font-size="10.00">arm_compute</text>
</g>
<!-- dir_1fb090f0c6070330bfaccc4236d3ca0d -->
<g id="node2" class="node"><title>dir_1fb090f0c6070330bfaccc4236d3ca0d</title>
<g id="a_node2"><a xlink:href="dir_1fb090f0c6070330bfaccc4236d3ca0d.xhtml" target="_top" xlink:title="core">
<polygon fill="white" stroke="red" points="70,-52 16,-52 16,-16 70,-16 70,-52"/>
<text text-anchor="middle" x="43" y="-31.5" font-family="Helvetica,sans-Serif" font-size="10.00">core</text>
</a>
</g>
</g>
<!-- dir_8bc26130589aa16388b5a02f17abf2c2 -->
<g id="node3" class="node"><title>dir_8bc26130589aa16388b5a02f17abf2c2</title>
<g id="a_node3"><a xlink:href="dir_8bc26130589aa16388b5a02f17abf2c2.xhtml" target="_top" xlink:title="runtime">
<polygon fill="white" stroke="red" points="70,-124 16,-124 16,-88 70,-88 70,-124"/>
<text text-anchor="middle" x="43" y="-103.5" font-family="Helvetica,sans-Serif" font-size="10.00">runtime</text>
</a>
</g>
</g>
<!-- dir_8bc26130589aa16388b5a02f17abf2c2&#45;&gt;dir_1fb090f0c6070330bfaccc4236d3ca0d -->
<g id="edge1" class="edge"><title>dir_8bc26130589aa16388b5a02f17abf2c2&#45;&gt;dir_1fb090f0c6070330bfaccc4236d3ca0d</title>
<path fill="none" stroke="black" d="M43,-87.6966C43,-79.9827 43,-70.7125 43,-62.1124"/>
<polygon fill="black" stroke="black" points="46.5001,-62.1043 43,-52.1043 39.5001,-62.1044 46.5001,-62.1043"/>
<g id="a_edge1&#45;headlabel"><a xlink:href="dir_000009_000001.xhtml" target="_top" xlink:title="242">
<text text-anchor="middle" x="49.3393" y="-63.199" font-family="Helvetica,sans-Serif" font-size="10.00">242</text>
</a>
</g>
</g>
</g>
</svg>
