<?xml version="1.0" encoding="UTF-8" standalone="no"?>
<!DOCTYPE svg PUBLIC "-//W3C//DTD SVG 1.1//EN"
 "http://www.w3.org/Graphics/SVG/1.1/DTD/svg11.dtd">
<!-- Generated by graphviz version 2.38.0 (20140413.2041)
 -->
<!-- Title: arm_compute/runtime Pages: 1 -->
<svg width="308pt" height="183pt"
 viewBox="0.00 0.00 308.00 183.00" xmlns="http://www.w3.org/2000/svg" xmlns:xlink="http://www.w3.org/1999/xlink">
<g id="graph0" class="graph" transform="scale(1 1) rotate(0) translate(4 179)">
<title>arm_compute/runtime</title>
<polygon fill="white" stroke="none" points="-4,4 -4,-179 304,-179 304,4 -4,4"/>
<g id="clust1" class="cluster"><title>clusterdir_214608ef36d61442cb2b0c1c4e9a7def</title>
<g id="a_clust1"><a xlink:href="dir_214608ef36d61442cb2b0c1c4e9a7def.xhtml" target="_top" xlink:title="arm_compute">
<polygon fill="#ddddee" stroke="black" points="8,-8 8,-167 238,-167 238,-8 8,-8"/>
<text text-anchor="middle" x="123" y="-155" font-family="Helvetica,sans-Serif" font-size="10.00">arm_compute</text>
</a>
</g>
</g>
<g id="clust2" class="cluster"><title>clusterdir_8bc26130589aa16388b5a02f17abf2c2</title>
<g id="a_clust2"><a xlink:href="dir_8bc26130589aa16388b5a02f17abf2c2.xhtml" target="_top">
<polygon fill="#eeeeff" stroke="black" points="16,-16 16,-140 230,-140 230,-16 16,-16"/>
</a>
</g>
</g>
<!-- dir_8bc26130589aa16388b5a02f17abf2c2 -->
<g id="node1" class="node"><title>dir_8bc26130589aa16388b5a02f17abf2c2</title>
<text text-anchor="middle" x="195" y="-111.5" font-family="Helvetica,sans-Serif" font-size="10.00">runtime</text>
</g>
<!-- dir_b986aa98f9b6490bb4fc7918500346fb -->
<g id="node2" class="node"><title>dir_b986aa98f9b6490bb4fc7918500346fb</title>
<g id="a_node2"><a xlink:href="dir_b986aa98f9b6490bb4fc7918500346fb.xhtml" target="_top" xlink:title="CL">
<polygon fill="white" stroke="red" points="150,-132 96,-132 96,-96 150,-96 150,-132"/>
<text text-anchor="middle" x="123" y="-111.5" font-family="Helvetica,sans-Serif" font-size="10.00">CL</text>
</a>
</g>
</g>
<!-- dir_1fb090f0c6070330bfaccc4236d3ca0d -->
<g id="node5" class="node"><title>dir_1fb090f0c6070330bfaccc4236d3ca0d</title>
<g id="a_node5"><a xlink:href="dir_1fb090f0c6070330bfaccc4236d3ca0d.xhtml" target="_top" xlink:title="core">
<polygon fill="white" stroke="red" points="300,-60 246,-60 246,-24 300,-24 300,-60"/>
<text text-anchor="middle" x="273" y="-39.5" font-family="Helvetica,sans-Serif" font-size="10.00">core</text>
</a>
</g>
</g>
<!-- dir_b986aa98f9b6490bb4fc7918500346fb&#45;&gt;dir_1fb090f0c6070330bfaccc4236d3ca0d -->
<g id="edge3" class="edge"><title>dir_b986aa98f9b6490bb4fc7918500346fb&#45;&gt;dir_1fb090f0c6070330bfaccc4236d3ca0d</title>
<path fill="none" stroke="black" d="M150.119,-100.173C153.114,-98.7621 156.121,-97.349 159,-96 184.94,-83.8454 214.247,-70.2226 236.65,-59.832"/>
<polygon fill="black" stroke="black" points="238.199,-62.9721 245.799,-55.5905 235.254,-56.6214 238.199,-62.9721"/>
<g id="a_edge3&#45;headlabel"><a xlink:href="dir_000010_000001.xhtml" target="_top" xlink:title="112">
<text text-anchor="middle" x="236.132" y="-64.5599" font-family="Helvetica,sans-Serif" font-size="10.00">112</text>
</a>
</g>
</g>
<!-- dir_b496024afd63bafbf4e8da80d7d3a81a -->
<g id="node3" class="node"><title>dir_b496024afd63bafbf4e8da80d7d3a81a</title>
<g id="a_node3"><a xlink:href="dir_b496024afd63bafbf4e8da80d7d3a81a.xhtml" target="_top" xlink:title="CPP">
<polygon fill="white" stroke="black" points="78,-60 24,-60 24,-24 78,-24 78,-60"/>
<text text-anchor="middle" x="51" y="-39.5" font-family="Helvetica,sans-Serif" font-size="10.00">CPP</text>
</a>
</g>
</g>
<!-- dir_65e289039e1347f87d412b0a1b1a312c -->
<g id="node4" class="node"><title>dir_65e289039e1347f87d412b0a1b1a312c</title>
<g id="a_node4"><a xlink:href="dir_65e289039e1347f87d412b0a1b1a312c.xhtml" target="_top" xlink:title="NEON">
<polygon fill="white" stroke="red" points="78,-132 24,-132 24,-96 78,-96 78,-132"/>
<text text-anchor="middle" x="51" y="-111.5" font-family="Helvetica,sans-Serif" font-size="10.00">NEON</text>
</a>
</g>
</g>
<!-- dir_65e289039e1347f87d412b0a1b1a312c&#45;&gt;dir_b496024afd63bafbf4e8da80d7d3a81a -->
<g id="edge1" class="edge"><title>dir_65e289039e1347f87d412b0a1b1a312c&#45;&gt;dir_b496024afd63bafbf4e8da80d7d3a81a</title>
<path fill="none" stroke="black" d="M51,-95.6966C51,-87.9827 51,-78.7125 51,-70.1124"/>
<polygon fill="black" stroke="black" points="54.5001,-70.1043 51,-60.1043 47.5001,-70.1044 54.5001,-70.1043"/>
<g id="a_edge1&#45;headlabel"><a xlink:href="dir_000013_000012.xhtml" target="_top" xlink:title="1">
<text text-anchor="middle" x="57.3393" y="-71.199" font-family="Helvetica,sans-Serif" font-size="10.00">1</text>
</a>
</g>
</g>
<!-- dir_65e289039e1347f87d412b0a1b1a312c&#45;&gt;dir_1fb090f0c6070330bfaccc4236d3ca0d -->
<g id="edge2" class="edge"><title>dir_65e289039e1347f87d412b0a1b1a312c&#45;&gt;dir_1fb090f0c6070330bfaccc4236d3ca0d</title>
<path fill="none" stroke="black" d="M78.2778,-99.4245C81.189,-98.1852 84.1336,-97.0161 87,-96 150.398,-73.5255 170.271,-81.5174 234,-60 234.857,-59.7106 235.722,-59.4099 236.591,-59.0997"/>
<polygon fill="black" stroke="black" points="237.884,-62.3525 245.958,-55.4927 235.368,-55.8201 237.884,-62.3525"/>
<g id="a_edge2&#45;headlabel"><a xlink:href="dir_000013_000001.xhtml" target="_top" xlink:title="108">
<text text-anchor="middle" x="235.549" y="-63.7938" font-family="Helvetica,sans-Serif" font-size="10.00">108</text>
</a>
</g>
</g>
</g>
</svg>
