<?xml version="1.0" encoding="UTF-8" standalone="no"?>
<!DOCTYPE svg PUBLIC "-//W3C//DTD SVG 1.1//EN"
 "http://www.w3.org/Graphics/SVG/1.1/DTD/svg11.dtd">
<!-- Generated by graphviz version 2.38.0 (20140413.2041)
 -->
<!-- Title: NEFullyConnectedLayerReshapeWeightsManaged Pages: 1 -->
<svg width="177pt" height="95pt"
 viewBox="0.00 0.00 177.00 95.00" xmlns="http://www.w3.org/2000/svg" xmlns:xlink="http://www.w3.org/1999/xlink">
<g id="graph0" class="graph" transform="scale(1 1) rotate(0) translate(4 91)">
<title>NEFullyConnectedLayerReshapeWeightsManaged</title>
<polygon fill="white" stroke="none" points="-4,4 -4,-91 173,-91 173,4 -4,4"/>
<!-- Node0 -->
<g id="node1" class="node"><title>Node0</title>
<g id="a_node1"><a xlink:title="Basic function to manage the reshape weights generated from NEFullyConnectedLayerReshapeWeights.">
<polygon fill="#bfbfbf" stroke="black" points="-1.42109e-14,-0.5 -1.42109e-14,-30.5 169,-30.5 169,-0.5 -1.42109e-14,-0.5"/>
<text text-anchor="start" x="8" y="-18.5" font-family="Helvetica,sans-Serif" font-size="10.00">NEFullyConnectedLayerReshape</text>
<text text-anchor="middle" x="84.5" y="-7.5" font-family="Helvetica,sans-Serif" font-size="10.00">WeightsManaged</text>
</a>
</g>
</g>
<!-- Node1 -->
<g id="node2" class="node"><title>Node1</title>
<g id="a_node2"><a xlink:href="classarm__compute_1_1_i_transform_weights.xhtml" target="_top" xlink:title="Weights tensor transform interface In order to identify the different reshape functions,...">
<polygon fill="white" stroke="black" points="33,-67.5 33,-86.5 136,-86.5 136,-67.5 33,-67.5"/>
<text text-anchor="middle" x="84.5" y="-74.5" font-family="Helvetica,sans-Serif" font-size="10.00">ITransformWeights</text>
</a>
</g>
</g>
<!-- Node1&#45;&gt;Node0 -->
<g id="edge1" class="edge"><title>Node1&#45;&gt;Node0</title>
<path fill="none" stroke="midnightblue" d="M84.5,-57.2349C84.5,-48.5864 84.5,-38.4969 84.5,-30.523"/>
<polygon fill="midnightblue" stroke="midnightblue" points="81.0001,-57.4751 84.5,-67.4751 88.0001,-57.4751 81.0001,-57.4751"/>
</g>
</g>
</svg>
