<?xml version="1.0" encoding="UTF-8" standalone="no"?>
<!DOCTYPE svg PUBLIC "-//W3C//DTD SVG 1.1//EN"
 "http://www.w3.org/Graphics/SVG/1.1/DTD/svg11.dtd">
<!-- Generated by graphviz version 2.38.0 (20140413.2041)
 -->
<!-- Title: src/runtime Pages: 1 -->
<svg width="512pt" height="375pt"
 viewBox="0.00 0.00 512.00 375.00" xmlns="http://www.w3.org/2000/svg" xmlns:xlink="http://www.w3.org/1999/xlink">
<g id="graph0" class="graph" transform="scale(1 1) rotate(0) translate(4 371)">
<title>src/runtime</title>
<polygon fill="white" stroke="none" points="-4,4 -4,-371 508,-371 508,4 -4,4"/>
<g id="clust1" class="cluster"><title>clusterdir_68267d1309a1af8e8297ef4c3efbcdba</title>
<g id="a_clust1"><a xlink:href="dir_68267d1309a1af8e8297ef4c3efbcdba.xhtml" target="_top" xlink:title="src">
<polygon fill="#ddddee" stroke="black" points="8,-272 8,-359 496,-359 496,-272 8,-272"/>
<text text-anchor="middle" x="252" y="-347" font-family="Helvetica,sans-Serif" font-size="10.00">src</text>
</a>
</g>
</g>
<g id="clust2" class="cluster"><title>clusterdir_bf9f26469d00835ba20ff8d80ee5a804</title>
<g id="a_clust2"><a xlink:href="dir_bf9f26469d00835ba20ff8d80ee5a804.xhtml" target="_top">
<polygon fill="#eeeeff" stroke="black" points="16,-280 16,-332 488,-332 488,-280 16,-280"/>
</a>
</g>
</g>
<!-- dir_bf9f26469d00835ba20ff8d80ee5a804 -->
<g id="node1" class="node"><title>dir_bf9f26469d00835ba20ff8d80ee5a804</title>
<text text-anchor="middle" x="453" y="-303.5" font-family="Helvetica,sans-Serif" font-size="10.00">runtime</text>
</g>
<!-- dir_43c3fdbf778d1fd99e2e38f09fddd920 -->
<g id="node2" class="node"><title>dir_43c3fdbf778d1fd99e2e38f09fddd920</title>
<g id="a_node2"><a xlink:href="dir_43c3fdbf778d1fd99e2e38f09fddd920.xhtml" target="_top" xlink:title="CL">
<polygon fill="white" stroke="red" points="336,-324 282,-324 282,-288 336,-288 336,-324"/>
<text text-anchor="middle" x="309" y="-303.5" font-family="Helvetica,sans-Serif" font-size="10.00">CL</text>
</a>
</g>
</g>
<!-- dir_cbdb8362360e11eafe2fa3bc74cf0ffd -->
<g id="node7" class="node"><title>dir_cbdb8362360e11eafe2fa3bc74cf0ffd</title>
<g id="a_node7"><a xlink:href="dir_cbdb8362360e11eafe2fa3bc74cf0ffd.xhtml" target="_top" xlink:title="utils">
<polygon fill="white" stroke="red" points="458,-180 404,-180 404,-144 458,-144 458,-180"/>
<text text-anchor="middle" x="431" y="-159.5" font-family="Helvetica,sans-Serif" font-size="10.00">utils</text>
</a>
</g>
</g>
<!-- dir_43c3fdbf778d1fd99e2e38f09fddd920&#45;&gt;dir_cbdb8362360e11eafe2fa3bc74cf0ffd -->
<g id="edge9" class="edge"><title>dir_43c3fdbf778d1fd99e2e38f09fddd920&#45;&gt;dir_cbdb8362360e11eafe2fa3bc74cf0ffd</title>
<path fill="none" stroke="black" d="M323.716,-287.871C345.058,-263.031 384.738,-216.846 409.4,-188.142"/>
<polygon fill="black" stroke="black" points="412.37,-190.055 416.232,-180.189 407.06,-185.493 412.37,-190.055"/>
<g id="a_edge9&#45;headlabel"><a xlink:href="dir_000067_000038.xhtml" target="_top" xlink:title="1">
<text text-anchor="middle" x="412.181" y="-192.132" font-family="Helvetica,sans-Serif" font-size="10.00">1</text>
</a>
</g>
</g>
<!-- dir_214608ef36d61442cb2b0c1c4e9a7def -->
<g id="node8" class="node"><title>dir_214608ef36d61442cb2b0c1c4e9a7def</title>
<g id="a_node8"><a xlink:href="dir_214608ef36d61442cb2b0c1c4e9a7def.xhtml" target="_top" xlink:title="arm_compute">
<polygon fill="white" stroke="red" points="357,-108 273,-108 273,-72 357,-72 357,-108"/>
<text text-anchor="middle" x="315" y="-87.5" font-family="Helvetica,sans-Serif" font-size="10.00">arm_compute</text>
</a>
</g>
</g>
<!-- dir_43c3fdbf778d1fd99e2e38f09fddd920&#45;&gt;dir_214608ef36d61442cb2b0c1c4e9a7def -->
<g id="edge10" class="edge"><title>dir_43c3fdbf778d1fd99e2e38f09fddd920&#45;&gt;dir_214608ef36d61442cb2b0c1c4e9a7def</title>
<path fill="none" stroke="black" d="M309.481,-287.849C310.519,-250.832 312.976,-163.181 314.232,-118.386"/>
<polygon fill="black" stroke="black" points="317.735,-118.327 314.517,-108.232 310.738,-118.13 317.735,-118.327"/>
<g id="a_edge10&#45;headlabel"><a xlink:href="dir_000067_000000.xhtml" target="_top" xlink:title="733">
<text text-anchor="middle" x="320.473" y="-119.499" font-family="Helvetica,sans-Serif" font-size="10.00">733</text>
</a>
</g>
</g>
<!-- dir_5815af820a9cc9481f1d0990a0d60286 -->
<g id="node10" class="node"><title>dir_5815af820a9cc9481f1d0990a0d60286</title>
<g id="a_node10"><a xlink:href="dir_5815af820a9cc9481f1d0990a0d60286.xhtml" target="_top" xlink:title="support">
<polygon fill="none" stroke="black" points="342,-36 288,-36 288,-0 342,-0 342,-36"/>
<text text-anchor="middle" x="315" y="-15.5" font-family="Helvetica,sans-Serif" font-size="10.00">support</text>
</a>
</g>
</g>
<!-- dir_43c3fdbf778d1fd99e2e38f09fddd920&#45;&gt;dir_5815af820a9cc9481f1d0990a0d60286 -->
<g id="edge11" class="edge"><title>dir_43c3fdbf778d1fd99e2e38f09fddd920&#45;&gt;dir_5815af820a9cc9481f1d0990a0d60286</title>
<path fill="none" stroke="black" d="M299.375,-287.993C278.441,-248.641 233.047,-148.807 264,-72 268.349,-61.209 276.062,-51.3859 284.194,-43.2085"/>
<polygon fill="black" stroke="black" points="286.79,-45.572 291.695,-36.1808 282.004,-40.4636 286.79,-45.572"/>
<g id="a_edge11&#45;headlabel"><a xlink:href="dir_000067_000162.xhtml" target="_top" xlink:title="73">
<text text-anchor="middle" x="286.108" y="-47.6016" font-family="Helvetica,sans-Serif" font-size="10.00">73</text>
</a>
</g>
</g>
<!-- dir_9240672d44dfdb0f539b385a1f058d2d -->
<g id="node3" class="node"><title>dir_9240672d44dfdb0f539b385a1f058d2d</title>
<g id="a_node3"><a xlink:href="dir_9240672d44dfdb0f539b385a1f058d2d.xhtml" target="_top" xlink:title="CPP">
<polygon fill="white" stroke="red" points="192,-324 138,-324 138,-288 192,-288 192,-324"/>
<text text-anchor="middle" x="165" y="-303.5" font-family="Helvetica,sans-Serif" font-size="10.00">CPP</text>
</a>
</g>
</g>
<!-- dir_9240672d44dfdb0f539b385a1f058d2d&#45;&gt;dir_214608ef36d61442cb2b0c1c4e9a7def -->
<g id="edge17" class="edge"><title>dir_9240672d44dfdb0f539b385a1f058d2d&#45;&gt;dir_214608ef36d61442cb2b0c1c4e9a7def</title>
<path fill="none" stroke="black" d="M177.022,-287.849C203.352,-250.284 266.232,-160.575 297.178,-116.426"/>
<polygon fill="black" stroke="black" points="300.047,-118.43 302.921,-108.232 294.315,-114.412 300.047,-118.43"/>
<g id="a_edge17&#45;headlabel"><a xlink:href="dir_000153_000000.xhtml" target="_top" xlink:title="31">
<text text-anchor="middle" x="300.309" y="-120.503" font-family="Helvetica,sans-Serif" font-size="10.00">31</text>
</a>
</g>
</g>
<!-- dir_9240672d44dfdb0f539b385a1f058d2d&#45;&gt;dir_5815af820a9cc9481f1d0990a0d60286 -->
<g id="edge18" class="edge"><title>dir_9240672d44dfdb0f539b385a1f058d2d&#45;&gt;dir_5815af820a9cc9481f1d0990a0d60286</title>
<path fill="none" stroke="black" d="M168.269,-287.786C176.621,-247.138 201.721,-143.272 252,-72 259.802,-60.941 270.451,-50.8122 280.774,-42.4383"/>
<polygon fill="black" stroke="black" points="283.168,-45.0107 288.922,-36.1147 278.876,-39.4807 283.168,-45.0107"/>
<g id="a_edge18&#45;headlabel"><a xlink:href="dir_000153_000162.xhtml" target="_top" xlink:title="5">
<text text-anchor="middle" x="282.069" y="-46.9576" font-family="Helvetica,sans-Serif" font-size="10.00">5</text>
</a>
</g>
</g>
<!-- dir_cf4458890b03c2fecc4456bb26b0662d -->
<g id="node4" class="node"><title>dir_cf4458890b03c2fecc4456bb26b0662d</title>
<g id="a_node4"><a xlink:href="dir_cf4458890b03c2fecc4456bb26b0662d.xhtml" target="_top" xlink:title="GLES_COMPUTE">
<polygon fill="white" stroke="red" points="119.5,-324 24.5,-324 24.5,-288 119.5,-288 119.5,-324"/>
<text text-anchor="middle" x="72" y="-303.5" font-family="Helvetica,sans-Serif" font-size="10.00">GLES_COMPUTE</text>
</a>
</g>
</g>
<!-- dir_cf4458890b03c2fecc4456bb26b0662d&#45;&gt;dir_214608ef36d61442cb2b0c1c4e9a7def -->
<g id="edge15" class="edge"><title>dir_cf4458890b03c2fecc4456bb26b0662d&#45;&gt;dir_214608ef36d61442cb2b0c1c4e9a7def</title>
<path fill="none" stroke="black" d="M90.2664,-287.698C122.008,-257.788 189.641,-194.747 249,-144 260.595,-134.087 273.638,-123.499 285.049,-114.413"/>
<polygon fill="black" stroke="black" points="287.361,-117.048 293.025,-108.094 283.014,-111.561 287.361,-117.048"/>
<g id="a_edge15&#45;headlabel"><a xlink:href="dir_000076_000000.xhtml" target="_top" xlink:title="132">
<text text-anchor="middle" x="286.306" y="-119.005" font-family="Helvetica,sans-Serif" font-size="10.00">132</text>
</a>
</g>
</g>
<!-- dir_cf4458890b03c2fecc4456bb26b0662d&#45;&gt;dir_5815af820a9cc9481f1d0990a0d60286 -->
<g id="edge16" class="edge"><title>dir_cf4458890b03c2fecc4456bb26b0662d&#45;&gt;dir_5815af820a9cc9481f1d0990a0d60286</title>
<path fill="none" stroke="black" d="M79.9262,-287.847C99.738,-246.435 155.035,-139.44 227,-72 242.262,-57.6973 262.01,-45.3758 278.93,-36.2221"/>
<polygon fill="black" stroke="black" points="280.762,-39.2137 287.993,-31.4701 277.511,-33.0142 280.762,-39.2137"/>
<g id="a_edge16&#45;headlabel"><a xlink:href="dir_000076_000162.xhtml" target="_top" xlink:title="16">
<text text-anchor="middle" x="278.897" y="-40.8974" font-family="Helvetica,sans-Serif" font-size="10.00">16</text>
</a>
</g>
</g>
<!-- dir_a36523fc4c32a6b0076906589b6fc202 -->
<g id="node5" class="node"><title>dir_a36523fc4c32a6b0076906589b6fc202</title>
<g id="a_node5"><a xlink:href="dir_a36523fc4c32a6b0076906589b6fc202.xhtml" target="_top" xlink:title="NEON">
<polygon fill="white" stroke="red" points="408,-324 354,-324 354,-288 408,-288 408,-324"/>
<text text-anchor="middle" x="381" y="-303.5" font-family="Helvetica,sans-Serif" font-size="10.00">NEON</text>
</a>
</g>
</g>
<!-- dir_a36523fc4c32a6b0076906589b6fc202&#45;&gt;dir_214608ef36d61442cb2b0c1c4e9a7def -->
<g id="edge4" class="edge"><title>dir_a36523fc4c32a6b0076906589b6fc202&#45;&gt;dir_214608ef36d61442cb2b0c1c4e9a7def</title>
<path fill="none" stroke="black" d="M375.711,-287.849C364.246,-250.675 337.033,-162.439 323.272,-117.82"/>
<polygon fill="black" stroke="black" points="326.606,-116.757 320.315,-108.232 319.917,-118.82 326.606,-116.757"/>
<g id="a_edge4&#45;headlabel"><a xlink:href="dir_000156_000000.xhtml" target="_top" xlink:title="618">
<text text-anchor="middle" x="330.379" y="-116.855" font-family="Helvetica,sans-Serif" font-size="10.00">618</text>
</a>
</g>
</g>
<!-- dir_aebb8dcc11953d78e620bbef0b9e2183 -->
<g id="node9" class="node"><title>dir_aebb8dcc11953d78e620bbef0b9e2183</title>
<g id="a_node9"><a xlink:href="dir_aebb8dcc11953d78e620bbef0b9e2183.xhtml" target="_top" xlink:title="core">
<polygon fill="white" stroke="red" points="458,-252 404,-252 404,-216 458,-216 458,-252"/>
<text text-anchor="middle" x="431" y="-231.5" font-family="Helvetica,sans-Serif" font-size="10.00">core</text>
</a>
</g>
</g>
<!-- dir_a36523fc4c32a6b0076906589b6fc202&#45;&gt;dir_aebb8dcc11953d78e620bbef0b9e2183 -->
<g id="edge5" class="edge"><title>dir_a36523fc4c32a6b0076906589b6fc202&#45;&gt;dir_aebb8dcc11953d78e620bbef0b9e2183</title>
<path fill="none" stroke="black" d="M393.36,-287.697C399.233,-279.474 406.369,-269.483 412.842,-260.421"/>
<polygon fill="black" stroke="black" points="415.818,-262.276 418.783,-252.104 410.122,-258.207 415.818,-262.276"/>
<g id="a_edge5&#45;headlabel"><a xlink:href="dir_000156_000019.xhtml" target="_top" xlink:title="2">
<text text-anchor="middle" x="416.039" y="-264.351" font-family="Helvetica,sans-Serif" font-size="10.00">2</text>
</a>
</g>
</g>
<!-- dir_a36523fc4c32a6b0076906589b6fc202&#45;&gt;dir_5815af820a9cc9481f1d0990a0d60286 -->
<g id="edge6" class="edge"><title>dir_a36523fc4c32a6b0076906589b6fc202&#45;&gt;dir_5815af820a9cc9481f1d0990a0d60286</title>
<path fill="none" stroke="black" d="M397.174,-287.859C403.041,-282.295 409.966,-276.422 417,-272 437.263,-259.262 451.379,-270.134 467,-252 498.713,-215.185 496.923,-190.841 484,-144 474.087,-108.07 469.137,-96.4448 441,-72 415.345,-49.7115 378.964,-35.7743 351.886,-27.8195"/>
<polygon fill="black" stroke="black" points="352.578,-24.3789 342.005,-25.0588 350.694,-31.1207 352.578,-24.3789"/>
<g id="a_edge6&#45;headlabel"><a xlink:href="dir_000156_000162.xhtml" target="_top" xlink:title="71">
<text text-anchor="middle" x="356.804" y="-20.1116" font-family="Helvetica,sans-Serif" font-size="10.00">71</text>
</a>
</g>
</g>
<!-- dir_016fa5637888b23a90b93c4e98f1766c -->
<g id="node6" class="node"><title>dir_016fa5637888b23a90b93c4e98f1766c</title>
<g id="a_node6"><a xlink:href="dir_016fa5637888b23a90b93c4e98f1766c.xhtml" target="_top" xlink:title="OMP">
<polygon fill="white" stroke="black" points="264,-324 210,-324 210,-288 264,-288 264,-324"/>
<text text-anchor="middle" x="237" y="-303.5" font-family="Helvetica,sans-Serif" font-size="10.00">OMP</text>
</a>
</g>
</g>
<!-- dir_016fa5637888b23a90b93c4e98f1766c&#45;&gt;dir_214608ef36d61442cb2b0c1c4e9a7def -->
<g id="edge1" class="edge"><title>dir_016fa5637888b23a90b93c4e98f1766c&#45;&gt;dir_214608ef36d61442cb2b0c1c4e9a7def</title>
<path fill="none" stroke="black" d="M243.251,-287.849C256.801,-250.675 288.962,-162.439 305.224,-117.82"/>
<polygon fill="black" stroke="black" points="308.583,-118.826 308.719,-108.232 302.006,-116.429 308.583,-118.826"/>
<g id="a_edge1&#45;headlabel"><a xlink:href="dir_000159_000000.xhtml" target="_top" xlink:title="6">
<text text-anchor="middle" x="310.02" y="-120.676" font-family="Helvetica,sans-Serif" font-size="10.00">6</text>
</a>
</g>
</g>
<!-- dir_cbdb8362360e11eafe2fa3bc74cf0ffd&#45;&gt;dir_214608ef36d61442cb2b0c1c4e9a7def -->
<g id="edge2" class="edge"><title>dir_cbdb8362360e11eafe2fa3bc74cf0ffd&#45;&gt;dir_214608ef36d61442cb2b0c1c4e9a7def</title>
<path fill="none" stroke="black" d="M403.77,-147.834C386.371,-138.168 363.911,-124.803 345.873,-113.462"/>
<polygon fill="black" stroke="black" points="347.731,-110.495 337.415,-108.082 343.974,-116.402 347.731,-110.495"/>
<g id="a_edge2&#45;headlabel"><a xlink:href="dir_000038_000000.xhtml" target="_top" xlink:title="38">
<text text-anchor="middle" x="352.288" y="-107.529" font-family="Helvetica,sans-Serif" font-size="10.00">38</text>
</a>
</g>
</g>
<!-- dir_cbdb8362360e11eafe2fa3bc74cf0ffd&#45;&gt;dir_5815af820a9cc9481f1d0990a0d60286 -->
<g id="edge3" class="edge"><title>dir_cbdb8362360e11eafe2fa3bc74cf0ffd&#45;&gt;dir_5815af820a9cc9481f1d0990a0d60286</title>
<path fill="none" stroke="black" d="M419.438,-143.753C406.923,-125.435 386.055,-95.884 366,-72 357.871,-62.3186 348.402,-52.199 339.845,-43.4279"/>
<polygon fill="black" stroke="black" points="342.135,-40.7658 332.617,-36.112 337.155,-45.6856 342.135,-40.7658"/>
<g id="a_edge3&#45;headlabel"><a xlink:href="dir_000038_000162.xhtml" target="_top" xlink:title="5">
<text text-anchor="middle" x="346.681" y="-38.8273" font-family="Helvetica,sans-Serif" font-size="10.00">5</text>
</a>
</g>
</g>
<!-- dir_214608ef36d61442cb2b0c1c4e9a7def&#45;&gt;dir_cbdb8362360e11eafe2fa3bc74cf0ffd -->
<g id="edge7" class="edge"><title>dir_214608ef36d61442cb2b0c1c4e9a7def&#45;&gt;dir_cbdb8362360e11eafe2fa3bc74cf0ffd</title>
<path fill="none" stroke="black" d="M349.39,-108.19C365.379,-117.268 384.188,-128.526 399.767,-138.312"/>
<polygon fill="black" stroke="black" points="398.203,-141.465 408.52,-143.876 401.959,-135.558 398.203,-141.465"/>
<g id="a_edge7&#45;headlabel"><a xlink:href="dir_000000_000038.xhtml" target="_top" xlink:title="1">
<text text-anchor="middle" x="393.647" y="-139.433" font-family="Helvetica,sans-Serif" font-size="10.00">1</text>
</a>
</g>
</g>
<!-- dir_214608ef36d61442cb2b0c1c4e9a7def&#45;&gt;dir_5815af820a9cc9481f1d0990a0d60286 -->
<g id="edge8" class="edge"><title>dir_214608ef36d61442cb2b0c1c4e9a7def&#45;&gt;dir_5815af820a9cc9481f1d0990a0d60286</title>
<path fill="none" stroke="black" d="M315,-71.6966C315,-63.9827 315,-54.7125 315,-46.1124"/>
<polygon fill="black" stroke="black" points="318.5,-46.1043 315,-36.1043 311.5,-46.1044 318.5,-46.1043"/>
<g id="a_edge8&#45;headlabel"><a xlink:href="dir_000000_000162.xhtml" target="_top" xlink:title="24">
<text text-anchor="middle" x="321.339" y="-47.199" font-family="Helvetica,sans-Serif" font-size="10.00">24</text>
</a>
</g>
</g>
<!-- dir_aebb8dcc11953d78e620bbef0b9e2183&#45;&gt;dir_cbdb8362360e11eafe2fa3bc74cf0ffd -->
<g id="edge12" class="edge"><title>dir_aebb8dcc11953d78e620bbef0b9e2183&#45;&gt;dir_cbdb8362360e11eafe2fa3bc74cf0ffd</title>
<path fill="none" stroke="black" d="M431,-215.697C431,-207.983 431,-198.712 431,-190.112"/>
<polygon fill="black" stroke="black" points="434.5,-190.104 431,-180.104 427.5,-190.104 434.5,-190.104"/>
<g id="a_edge12&#45;headlabel"><a xlink:href="dir_000019_000038.xhtml" target="_top" xlink:title="4">
<text text-anchor="middle" x="437.339" y="-191.199" font-family="Helvetica,sans-Serif" font-size="10.00">4</text>
</a>
</g>
</g>
<!-- dir_aebb8dcc11953d78e620bbef0b9e2183&#45;&gt;dir_214608ef36d61442cb2b0c1c4e9a7def -->
<g id="edge13" class="edge"><title>dir_aebb8dcc11953d78e620bbef0b9e2183&#45;&gt;dir_214608ef36d61442cb2b0c1c4e9a7def</title>
<path fill="none" stroke="black" d="M417.008,-215.871C396.715,-191.031 358.987,-144.846 335.538,-116.142"/>
<polygon fill="black" stroke="black" points="338.079,-113.719 329.042,-108.189 332.658,-118.148 338.079,-113.719"/>
<g id="a_edge13&#45;headlabel"><a xlink:href="dir_000019_000000.xhtml" target="_top" xlink:title="2918">
<text text-anchor="middle" x="342.552" y="-112.207" font-family="Helvetica,sans-Serif" font-size="10.00">2918</text>
</a>
</g>
</g>
<!-- dir_aebb8dcc11953d78e620bbef0b9e2183&#45;&gt;dir_5815af820a9cc9481f1d0990a0d60286 -->
<g id="edge14" class="edge"><title>dir_aebb8dcc11953d78e620bbef0b9e2183&#45;&gt;dir_5815af820a9cc9481f1d0990a0d60286</title>
<path fill="none" stroke="black" d="M446.61,-215.774C454.373,-206.03 462.946,-193.184 467,-180 471.703,-164.707 473.174,-158.761 467,-144 445.367,-92.2775 389.015,-55.5036 351.341,-35.7657"/>
<polygon fill="black" stroke="black" points="352.698,-32.5293 342.198,-31.1159 349.525,-38.7688 352.698,-32.5293"/>
<g id="a_edge14&#45;headlabel"><a xlink:href="dir_000019_000162.xhtml" target="_top" xlink:title="150">
<text text-anchor="middle" x="357.189" y="-29.1279" font-family="Helvetica,sans-Serif" font-size="10.00">150</text>
</a>
</g>
</g>
</g>
</svg>
