<?xml version="1.0" encoding="UTF-8" standalone="no"?>
<!DOCTYPE svg PUBLIC "-//W3C//DTD SVG 1.1//EN"
 "http://www.w3.org/Graphics/SVG/1.1/DTD/svg11.dtd">
<!-- Generated by graphviz version 2.38.0 (20140413.2041)
 -->
<!-- Title: src Pages: 1 -->
<svg width="258pt" height="348pt"
 viewBox="0.00 0.00 258.03 348.00" xmlns="http://www.w3.org/2000/svg" xmlns:xlink="http://www.w3.org/1999/xlink">
<g id="graph0" class="graph" transform="scale(1 1) rotate(0) translate(4 344)">
<title>src</title>
<polygon fill="white" stroke="none" points="-4,4 -4,-344 254.034,-344 254.034,4 -4,4"/>
<g id="clust1" class="cluster"><title>clusterdir_68267d1309a1af8e8297ef4c3efbcdba</title>
<g id="a_clust1"><a xlink:href="dir_68267d1309a1af8e8297ef4c3efbcdba.xhtml" target="_top">
<polygon fill="#eeeeff" stroke="black" points="9.89141,-208 9.89141,-332 223.891,-332 223.891,-208 9.89141,-208"/>
</a>
</g>
</g>
<!-- dir_68267d1309a1af8e8297ef4c3efbcdba -->
<g id="node1" class="node"><title>dir_68267d1309a1af8e8297ef4c3efbcdba</title>
<text text-anchor="middle" x="188.891" y="-303.5" font-family="Helvetica,sans-Serif" font-size="10.00">src</text>
</g>
<!-- dir_aebb8dcc11953d78e620bbef0b9e2183 -->
<g id="node2" class="node"><title>dir_aebb8dcc11953d78e620bbef0b9e2183</title>
<g id="a_node2"><a xlink:href="dir_aebb8dcc11953d78e620bbef0b9e2183.xhtml" target="_top" xlink:title="core">
<polygon fill="white" stroke="red" points="171.891,-252 117.891,-252 117.891,-216 171.891,-216 171.891,-252"/>
<text text-anchor="middle" x="144.891" y="-231.5" font-family="Helvetica,sans-Serif" font-size="10.00">core</text>
</a>
</g>
</g>
<!-- dir_cbdb8362360e11eafe2fa3bc74cf0ffd -->
<g id="node5" class="node"><title>dir_cbdb8362360e11eafe2fa3bc74cf0ffd</title>
<g id="a_node5"><a xlink:href="dir_cbdb8362360e11eafe2fa3bc74cf0ffd.xhtml" target="_top" xlink:title="utils">
<polygon fill="white" stroke="red" points="152.891,-180 98.8914,-180 98.8914,-144 152.891,-144 152.891,-180"/>
<text text-anchor="middle" x="125.891" y="-159.5" font-family="Helvetica,sans-Serif" font-size="10.00">utils</text>
</a>
</g>
</g>
<!-- dir_aebb8dcc11953d78e620bbef0b9e2183&#45;&gt;dir_cbdb8362360e11eafe2fa3bc74cf0ffd -->
<g id="edge7" class="edge"><title>dir_aebb8dcc11953d78e620bbef0b9e2183&#45;&gt;dir_cbdb8362360e11eafe2fa3bc74cf0ffd</title>
<path fill="none" stroke="black" d="M140.195,-215.697C138.078,-207.898 135.529,-198.509 133.174,-189.829"/>
<polygon fill="black" stroke="black" points="136.531,-188.838 130.534,-180.104 129.776,-190.672 136.531,-188.838"/>
<g id="a_edge7&#45;headlabel"><a xlink:href="dir_000019_000038.xhtml" target="_top" xlink:title="4">
<text text-anchor="middle" x="140.213" y="-189.064" font-family="Helvetica,sans-Serif" font-size="10.00">4</text>
</a>
</g>
</g>
<!-- dir_214608ef36d61442cb2b0c1c4e9a7def -->
<g id="node6" class="node"><title>dir_214608ef36d61442cb2b0c1c4e9a7def</title>
<g id="a_node6"><a xlink:href="dir_214608ef36d61442cb2b0c1c4e9a7def.xhtml" target="_top" xlink:title="arm_compute">
<polygon fill="white" stroke="red" points="221.891,-108 137.891,-108 137.891,-72 221.891,-72 221.891,-108"/>
<text text-anchor="middle" x="179.891" y="-87.5" font-family="Helvetica,sans-Serif" font-size="10.00">arm_compute</text>
</a>
</g>
</g>
<!-- dir_aebb8dcc11953d78e620bbef0b9e2183&#45;&gt;dir_214608ef36d61442cb2b0c1c4e9a7def -->
<g id="edge8" class="edge"><title>dir_aebb8dcc11953d78e620bbef0b9e2183&#45;&gt;dir_214608ef36d61442cb2b0c1c4e9a7def</title>
<path fill="none" stroke="black" d="M150.89,-215.955C154.389,-205.633 158.723,-192.156 161.891,-180 167.225,-159.535 171.912,-136.078 175.165,-118.384"/>
<polygon fill="black" stroke="black" points="178.673,-118.652 176.998,-108.191 171.784,-117.413 178.673,-118.652"/>
<g id="a_edge8&#45;headlabel"><a xlink:href="dir_000019_000000.xhtml" target="_top" xlink:title="2918">
<text text-anchor="middle" x="180.831" y="-120.193" font-family="Helvetica,sans-Serif" font-size="10.00">2918</text>
</a>
</g>
</g>
<!-- dir_5815af820a9cc9481f1d0990a0d60286 -->
<g id="node7" class="node"><title>dir_5815af820a9cc9481f1d0990a0d60286</title>
<g id="a_node7"><a xlink:href="dir_5815af820a9cc9481f1d0990a0d60286.xhtml" target="_top" xlink:title="support">
<polygon fill="none" stroke="black" points="97.8914,-36 43.8914,-36 43.8914,-0 97.8914,-0 97.8914,-36"/>
<text text-anchor="middle" x="70.8914" y="-15.5" font-family="Helvetica,sans-Serif" font-size="10.00">support</text>
</a>
</g>
</g>
<!-- dir_aebb8dcc11953d78e620bbef0b9e2183&#45;&gt;dir_5815af820a9cc9481f1d0990a0d60286 -->
<g id="edge9" class="edge"><title>dir_aebb8dcc11953d78e620bbef0b9e2183&#45;&gt;dir_5815af820a9cc9481f1d0990a0d60286</title>
<path fill="none" stroke="black" d="M120.523,-215.854C109.284,-206.581 96.9067,-194.135 89.8914,-180 68.5321,-136.964 67.2099,-79.7354 68.7001,-46.3771"/>
<polygon fill="black" stroke="black" points="72.2147,-46.217 69.2883,-36.0343 65.226,-45.8194 72.2147,-46.217"/>
<g id="a_edge9&#45;headlabel"><a xlink:href="dir_000019_000162.xhtml" target="_top" xlink:title="150">
<text text-anchor="middle" x="74.8454" y="-47.467" font-family="Helvetica,sans-Serif" font-size="10.00">150</text>
</a>
</g>
</g>
<!-- dir_d182250f0c231765fc862e69db210731 -->
<g id="node3" class="node"><title>dir_d182250f0c231765fc862e69db210731</title>
<g id="a_node3"><a xlink:href="dir_d182250f0c231765fc862e69db210731.xhtml" target="_top" xlink:title="graph">
<polygon fill="white" stroke="red" points="71.8914,-324 17.8914,-324 17.8914,-288 71.8914,-288 71.8914,-324"/>
<text text-anchor="middle" x="44.8914" y="-303.5" font-family="Helvetica,sans-Serif" font-size="10.00">graph</text>
</a>
</g>
</g>
<!-- dir_d182250f0c231765fc862e69db210731&#45;&gt;dir_214608ef36d61442cb2b0c1c4e9a7def -->
<g id="edge3" class="edge"><title>dir_d182250f0c231765fc862e69db210731&#45;&gt;dir_214608ef36d61442cb2b0c1c4e9a7def</title>
<path fill="none" stroke="black" d="M71.8938,-291.91C74.9112,-290.548 77.9548,-289.219 80.8914,-288 124.52,-269.894 153.73,-290.646 180.891,-252 208.785,-212.312 198.4,-152.443 188.817,-117.995"/>
<polygon fill="black" stroke="black" points="192.104,-116.768 185.912,-108.171 185.391,-118.753 192.104,-116.768"/>
<g id="a_edge3&#45;headlabel"><a xlink:href="dir_000132_000000.xhtml" target="_top" xlink:title="402">
<text text-anchor="middle" x="195.846" y="-116.91" font-family="Helvetica,sans-Serif" font-size="10.00">402</text>
</a>
</g>
</g>
<!-- dir_d182250f0c231765fc862e69db210731&#45;&gt;dir_5815af820a9cc9481f1d0990a0d60286 -->
<g id="edge4" class="edge"><title>dir_d182250f0c231765fc862e69db210731&#45;&gt;dir_5815af820a9cc9481f1d0990a0d60286</title>
<path fill="none" stroke="black" d="M33.8452,-287.611C28.1548,-277.615 21.8107,-264.579 18.8914,-252 0.806229,-174.071 -11.371,-146.055 18.8914,-72 23.3795,-61.0173 31.3619,-51.081 39.7459,-42.8582"/>
<polygon fill="black" stroke="black" points="42.1265,-45.4241 47.1393,-36.0901 37.3999,-40.2608 42.1265,-45.4241"/>
<g id="a_edge4&#45;headlabel"><a xlink:href="dir_000132_000162.xhtml" target="_top" xlink:title="6">
<text text-anchor="middle" x="41.3922" y="-47.4455" font-family="Helvetica,sans-Serif" font-size="10.00">6</text>
</a>
</g>
</g>
<!-- dir_bf9f26469d00835ba20ff8d80ee5a804 -->
<g id="node4" class="node"><title>dir_bf9f26469d00835ba20ff8d80ee5a804</title>
<g id="a_node4"><a xlink:href="dir_bf9f26469d00835ba20ff8d80ee5a804.xhtml" target="_top" xlink:title="runtime">
<polygon fill="white" stroke="red" points="143.891,-324 89.8914,-324 89.8914,-288 143.891,-288 143.891,-324"/>
<text text-anchor="middle" x="116.891" y="-303.5" font-family="Helvetica,sans-Serif" font-size="10.00">runtime</text>
</a>
</g>
</g>
<!-- dir_bf9f26469d00835ba20ff8d80ee5a804&#45;&gt;dir_aebb8dcc11953d78e620bbef0b9e2183 -->
<g id="edge12" class="edge"><title>dir_bf9f26469d00835ba20ff8d80ee5a804&#45;&gt;dir_aebb8dcc11953d78e620bbef0b9e2183</title>
<path fill="none" stroke="black" d="M123.813,-287.697C126.966,-279.813 130.77,-270.304 134.273,-261.546"/>
<polygon fill="black" stroke="black" points="137.585,-262.689 138.05,-252.104 131.086,-260.089 137.585,-262.689"/>
<g id="a_edge12&#45;headlabel"><a xlink:href="dir_000066_000019.xhtml" target="_top" xlink:title="2">
<text text-anchor="middle" x="138.887" y="-264.581" font-family="Helvetica,sans-Serif" font-size="10.00">2</text>
</a>
</g>
</g>
<!-- dir_bf9f26469d00835ba20ff8d80ee5a804&#45;&gt;dir_cbdb8362360e11eafe2fa3bc74cf0ffd -->
<g id="edge10" class="edge"><title>dir_bf9f26469d00835ba20ff8d80ee5a804&#45;&gt;dir_cbdb8362360e11eafe2fa3bc74cf0ffd</title>
<path fill="none" stroke="black" d="M112.752,-287.695C108.713,-268.187 103.853,-235.594 108.891,-208 110.006,-201.895 111.906,-195.542 114.042,-189.6"/>
<polygon fill="black" stroke="black" points="117.373,-190.692 117.761,-180.104 110.855,-188.139 117.373,-190.692"/>
<g id="a_edge10&#45;headlabel"><a xlink:href="dir_000066_000038.xhtml" target="_top" xlink:title="2">
<text text-anchor="middle" x="118.706" y="-192.574" font-family="Helvetica,sans-Serif" font-size="10.00">2</text>
</a>
</g>
</g>
<!-- dir_bf9f26469d00835ba20ff8d80ee5a804&#45;&gt;dir_214608ef36d61442cb2b0c1c4e9a7def -->
<g id="edge11" class="edge"><title>dir_bf9f26469d00835ba20ff8d80ee5a804&#45;&gt;dir_214608ef36d61442cb2b0c1c4e9a7def</title>
<path fill="none" stroke="black" d="M143.993,-292.137C146.992,-290.733 150.004,-289.331 152.891,-288 188.299,-271.675 211.721,-284.742 232.891,-252 258.954,-211.692 251.26,-188.346 232.891,-144 228.347,-133.028 220.306,-123.143 211.84,-114.964"/>
<polygon fill="black" stroke="black" points="214.14,-112.326 204.368,-108.232 209.455,-117.526 214.14,-112.326"/>
<g id="a_edge11&#45;headlabel"><a xlink:href="dir_000066_000000.xhtml" target="_top" xlink:title="1622">
<text text-anchor="middle" x="218.711" y="-110.122" font-family="Helvetica,sans-Serif" font-size="10.00">1622</text>
</a>
</g>
</g>
<!-- dir_bf9f26469d00835ba20ff8d80ee5a804&#45;&gt;dir_5815af820a9cc9481f1d0990a0d60286 -->
<g id="edge13" class="edge"><title>dir_bf9f26469d00835ba20ff8d80ee5a804&#45;&gt;dir_5815af820a9cc9481f1d0990a0d60286</title>
<path fill="none" stroke="black" d="M109.755,-287.941C100.11,-264.178 83.0665,-219.571 73.8914,-180 66.6073,-148.584 66.8953,-140.187 64.8914,-108 63.8972,-92.0309 63.9901,-87.9746 64.8914,-72 65.3682,-63.5491 66.2695,-54.3761 67.2313,-46.0742"/>
<polygon fill="black" stroke="black" points="70.7056,-46.4971 68.4546,-36.1441 63.7581,-45.6412 70.7056,-46.4971"/>
<g id="a_edge13&#45;headlabel"><a xlink:href="dir_000066_000162.xhtml" target="_top" xlink:title="176">
<text text-anchor="middle" x="73.0841" y="-47.9118" font-family="Helvetica,sans-Serif" font-size="10.00">176</text>
</a>
</g>
</g>
<!-- dir_cbdb8362360e11eafe2fa3bc74cf0ffd&#45;&gt;dir_214608ef36d61442cb2b0c1c4e9a7def -->
<g id="edge1" class="edge"><title>dir_cbdb8362360e11eafe2fa3bc74cf0ffd&#45;&gt;dir_214608ef36d61442cb2b0c1c4e9a7def</title>
<path fill="none" stroke="black" d="M133.324,-143.697C138.932,-135.305 146.635,-125.07 154.221,-115.861"/>
<polygon fill="black" stroke="black" points="157.001,-117.994 160.802,-108.104 151.663,-113.466 157.001,-117.994"/>
<g id="a_edge1&#45;headlabel"><a xlink:href="dir_000038_000000.xhtml" target="_top" xlink:title="38">
<text text-anchor="middle" x="156.841" y="-120.072" font-family="Helvetica,sans-Serif" font-size="10.00">38</text>
</a>
</g>
</g>
<!-- dir_cbdb8362360e11eafe2fa3bc74cf0ffd&#45;&gt;dir_5815af820a9cc9481f1d0990a0d60286 -->
<g id="edge2" class="edge"><title>dir_cbdb8362360e11eafe2fa3bc74cf0ffd&#45;&gt;dir_5815af820a9cc9481f1d0990a0d60286</title>
<path fill="none" stroke="black" d="M119.257,-143.871C109.801,-119.457 92.3592,-74.4258 81.2078,-45.6351"/>
<polygon fill="black" stroke="black" points="84.4248,-44.2501 77.5492,-36.1893 77.8973,-46.7784 84.4248,-44.2501"/>
<g id="a_edge2&#45;headlabel"><a xlink:href="dir_000038_000162.xhtml" target="_top" xlink:title="5">
<text text-anchor="middle" x="88.3707" y="-44.0766" font-family="Helvetica,sans-Serif" font-size="10.00">5</text>
</a>
</g>
</g>
<!-- dir_214608ef36d61442cb2b0c1c4e9a7def&#45;&gt;dir_cbdb8362360e11eafe2fa3bc74cf0ffd -->
<g id="edge5" class="edge"><title>dir_214608ef36d61442cb2b0c1c4e9a7def&#45;&gt;dir_cbdb8362360e11eafe2fa3bc74cf0ffd</title>
<path fill="none" stroke="black" d="M172.592,-108.104C167.017,-116.467 159.33,-126.694 151.742,-135.92"/>
<polygon fill="black" stroke="black" points="148.948,-133.804 145.155,-143.697 154.289,-138.328 148.948,-133.804"/>
<g id="a_edge5&#45;headlabel"><a xlink:href="dir_000000_000038.xhtml" target="_top" xlink:title="1">
<text text-anchor="middle" x="149.104" y="-126.726" font-family="Helvetica,sans-Serif" font-size="10.00">1</text>
</a>
</g>
</g>
<!-- dir_214608ef36d61442cb2b0c1c4e9a7def&#45;&gt;dir_5815af820a9cc9481f1d0990a0d60286 -->
<g id="edge6" class="edge"><title>dir_214608ef36d61442cb2b0c1c4e9a7def&#45;&gt;dir_5815af820a9cc9481f1d0990a0d60286</title>
<path fill="none" stroke="black" d="M153.227,-71.8761C139.107,-62.8083 121.58,-51.5523 106.331,-41.7592"/>
<polygon fill="black" stroke="black" points="107.964,-38.6485 97.6583,-36.1898 104.181,-44.5385 107.964,-38.6485"/>
<g id="a_edge6&#45;headlabel"><a xlink:href="dir_000000_000162.xhtml" target="_top" xlink:title="24">
<text text-anchor="middle" x="112.523" y="-35.7018" font-family="Helvetica,sans-Serif" font-size="10.00">24</text>
</a>
</g>
</g>
</g>
</svg>
