<?xml version="1.0" encoding="UTF-8" standalone="no"?>
<!DOCTYPE svg PUBLIC "-//W3C//DTD SVG 1.1//EN"
 "http://www.w3.org/Graphics/SVG/1.1/DTD/svg11.dtd">
<!-- Generated by graphviz version 2.38.0 (20140413.2041)
 -->
<!-- Title: tests/validation/CL/UNIT Pages: 1 -->
<svg width="224pt" height="295pt"
 viewBox="0.00 0.00 223.50 295.00" xmlns="http://www.w3.org/2000/svg" xmlns:xlink="http://www.w3.org/1999/xlink">
<g id="graph0" class="graph" transform="scale(1 1) rotate(0) translate(4 291)">
<title>tests/validation/CL/UNIT</title>
<polygon fill="white" stroke="none" points="-4,4 -4,-291 219.5,-291 219.5,4 -4,4"/>
<g id="clust1" class="cluster"><title>clusterdir_f7024513cd67abef53e86ee9382ac5ce</title>
<g id="a_clust1"><a xlink:href="dir_f7024513cd67abef53e86ee9382ac5ce.xhtml" target="_top" xlink:title="CL">
<polygon fill="#ddddee" stroke="black" points="68.5,-208 68.5,-279 138.5,-279 138.5,-208 68.5,-208"/>
<text text-anchor="middle" x="103.5" y="-267" font-family="Helvetica,sans-Serif" font-size="10.00">CL</text>
</a>
</g>
</g>
<!-- dir_4fe3055359cf5438733b5e64b064b197 -->
<g id="node1" class="node"><title>dir_4fe3055359cf5438733b5e64b064b197</title>
<g id="a_node1"><a xlink:href="dir_4fe3055359cf5438733b5e64b064b197.xhtml" target="_top" xlink:title="UNIT">
<polygon fill="#eeeeff" stroke="black" points="130.5,-252 76.5,-252 76.5,-216 130.5,-216 130.5,-252"/>
<text text-anchor="middle" x="103.5" y="-231.5" font-family="Helvetica,sans-Serif" font-size="10.00">UNIT</text>
</a>
</g>
</g>
<!-- dir_46fdb196cebdbffe77dac340cde62f29 -->
<g id="node2" class="node"><title>dir_46fdb196cebdbffe77dac340cde62f29</title>
<g id="a_node2"><a xlink:href="dir_46fdb196cebdbffe77dac340cde62f29.xhtml" target="_top" xlink:title="reference">
<polygon fill="none" stroke="black" points="105.5,-180 43.5,-180 43.5,-144 105.5,-144 105.5,-180"/>
<text text-anchor="middle" x="74.5" y="-159.5" font-family="Helvetica,sans-Serif" font-size="10.00">reference</text>
</a>
</g>
</g>
<!-- dir_4fe3055359cf5438733b5e64b064b197&#45;&gt;dir_46fdb196cebdbffe77dac340cde62f29 -->
<g id="edge3" class="edge"><title>dir_4fe3055359cf5438733b5e64b064b197&#45;&gt;dir_46fdb196cebdbffe77dac340cde62f29</title>
<path fill="none" stroke="black" d="M96.3315,-215.697C93.0655,-207.813 89.126,-198.304 85.4978,-189.546"/>
<polygon fill="black" stroke="black" points="88.647,-188.003 81.5861,-180.104 82.18,-190.683 88.647,-188.003"/>
<g id="a_edge3&#45;headlabel"><a xlink:href="dir_000161_000037.xhtml" target="_top" xlink:title="1">
<text text-anchor="middle" x="92.6459" y="-187.738" font-family="Helvetica,sans-Serif" font-size="10.00">1</text>
</a>
</g>
</g>
<!-- dir_9e71e2da941d3cafc4d98a9f6ae3de4f -->
<g id="node3" class="node"><title>dir_9e71e2da941d3cafc4d98a9f6ae3de4f</title>
<g id="a_node3"><a xlink:href="dir_9e71e2da941d3cafc4d98a9f6ae3de4f.xhtml" target="_top" xlink:title="framework">
<polygon fill="white" stroke="red" points="67,-108 0,-108 0,-72 67,-72 67,-108"/>
<text text-anchor="middle" x="33.5" y="-87.5" font-family="Helvetica,sans-Serif" font-size="10.00">framework</text>
</a>
</g>
</g>
<!-- dir_4fe3055359cf5438733b5e64b064b197&#45;&gt;dir_9e71e2da941d3cafc4d98a9f6ae3de4f -->
<g id="edge4" class="edge"><title>dir_4fe3055359cf5438733b5e64b064b197&#45;&gt;dir_9e71e2da941d3cafc4d98a9f6ae3de4f</title>
<path fill="none" stroke="black" d="M76.189,-219.886C60.9356,-210.958 43.2795,-197.565 34.5,-180 24.9708,-160.935 25.4198,-136.578 27.8609,-118.166"/>
<polygon fill="black" stroke="black" points="31.348,-118.524 29.468,-108.097 24.4355,-117.421 31.348,-118.524"/>
<g id="a_edge4&#45;headlabel"><a xlink:href="dir_000161_000036.xhtml" target="_top" xlink:title="13">
<text text-anchor="middle" x="33.5853" y="-120.021" font-family="Helvetica,sans-Serif" font-size="10.00">13</text>
</a>
</g>
</g>
<!-- dir_214608ef36d61442cb2b0c1c4e9a7def -->
<g id="node4" class="node"><title>dir_214608ef36d61442cb2b0c1c4e9a7def</title>
<g id="a_node4"><a xlink:href="dir_214608ef36d61442cb2b0c1c4e9a7def.xhtml" target="_top" xlink:title="arm_compute">
<polygon fill="white" stroke="red" points="156.5,-36 72.5,-36 72.5,-0 156.5,-0 156.5,-36"/>
<text text-anchor="middle" x="114.5" y="-15.5" font-family="Helvetica,sans-Serif" font-size="10.00">arm_compute</text>
</a>
</g>
</g>
<!-- dir_4fe3055359cf5438733b5e64b064b197&#45;&gt;dir_214608ef36d61442cb2b0c1c4e9a7def -->
<g id="edge5" class="edge"><title>dir_4fe3055359cf5438733b5e64b064b197&#45;&gt;dir_214608ef36d61442cb2b0c1c4e9a7def</title>
<path fill="none" stroke="black" d="M107.964,-215.953C110.435,-205.63 113.252,-192.153 114.5,-180 119.276,-133.488 117.81,-79.0189 116.221,-46.8503"/>
<polygon fill="black" stroke="black" points="119.694,-46.2499 115.664,-36.4516 112.704,-46.6246 119.694,-46.2499"/>
<g id="a_edge5&#45;headlabel"><a xlink:href="dir_000161_000000.xhtml" target="_top" xlink:title="22">
<text text-anchor="middle" x="122.721" y="-47.1874" font-family="Helvetica,sans-Serif" font-size="10.00">22</text>
</a>
</g>
</g>
<!-- dir_896191444cf08ec8ade6f88256cb2bdd -->
<g id="node5" class="node"><title>dir_896191444cf08ec8ade6f88256cb2bdd</title>
<g id="a_node5"><a xlink:href="dir_896191444cf08ec8ade6f88256cb2bdd.xhtml" target="_top" xlink:title="CL">
<polygon fill="none" stroke="black" points="215.5,-180 161.5,-180 161.5,-144 215.5,-144 215.5,-180"/>
<text text-anchor="middle" x="188.5" y="-159.5" font-family="Helvetica,sans-Serif" font-size="10.00">CL</text>
</a>
</g>
</g>
<!-- dir_4fe3055359cf5438733b5e64b064b197&#45;&gt;dir_896191444cf08ec8ade6f88256cb2bdd -->
<g id="edge6" class="edge"><title>dir_4fe3055359cf5438733b5e64b064b197&#45;&gt;dir_896191444cf08ec8ade6f88256cb2bdd</title>
<path fill="none" stroke="black" d="M124.511,-215.697C135.216,-206.881 148.39,-196.032 159.996,-186.474"/>
<polygon fill="black" stroke="black" points="162.236,-189.163 167.73,-180.104 157.786,-183.76 162.236,-189.163"/>
<g id="a_edge6&#45;headlabel"><a xlink:href="dir_000161_000169.xhtml" target="_top" xlink:title="4">
<text text-anchor="middle" x="161.266" y="-191.14" font-family="Helvetica,sans-Serif" font-size="10.00">4</text>
</a>
</g>
</g>
<!-- dir_46fdb196cebdbffe77dac340cde62f29&#45;&gt;dir_9e71e2da941d3cafc4d98a9f6ae3de4f -->
<g id="edge1" class="edge"><title>dir_46fdb196cebdbffe77dac340cde62f29&#45;&gt;dir_9e71e2da941d3cafc4d98a9f6ae3de4f</title>
<path fill="none" stroke="black" d="M64.3652,-143.697C59.6484,-135.644 53.9382,-125.894 48.7183,-116.982"/>
<polygon fill="black" stroke="black" points="51.5924,-114.964 43.5183,-108.104 45.5522,-118.502 51.5924,-114.964"/>
<g id="a_edge1&#45;headlabel"><a xlink:href="dir_000037_000036.xhtml" target="_top" xlink:title="3">
<text text-anchor="middle" x="55.8591" y="-114.131" font-family="Helvetica,sans-Serif" font-size="10.00">3</text>
</a>
</g>
</g>
<!-- dir_46fdb196cebdbffe77dac340cde62f29&#45;&gt;dir_214608ef36d61442cb2b0c1c4e9a7def -->
<g id="edge2" class="edge"><title>dir_46fdb196cebdbffe77dac340cde62f29&#45;&gt;dir_214608ef36d61442cb2b0c1c4e9a7def</title>
<path fill="none" stroke="black" d="M79.3249,-143.871C86.1722,-119.564 98.7764,-74.8187 106.891,-46.0132"/>
<polygon fill="black" stroke="black" points="110.315,-46.7637 109.658,-36.1893 103.578,-44.8657 110.315,-46.7637"/>
<g id="a_edge2&#45;headlabel"><a xlink:href="dir_000037_000000.xhtml" target="_top" xlink:title="95">
<text text-anchor="middle" x="112.074" y="-48.4935" font-family="Helvetica,sans-Serif" font-size="10.00">95</text>
</a>
</g>
</g>
<!-- dir_9e71e2da941d3cafc4d98a9f6ae3de4f&#45;&gt;dir_214608ef36d61442cb2b0c1c4e9a7def -->
<g id="edge7" class="edge"><title>dir_9e71e2da941d3cafc4d98a9f6ae3de4f&#45;&gt;dir_214608ef36d61442cb2b0c1c4e9a7def</title>
<path fill="none" stroke="black" d="M53.5225,-71.6966C63.6256,-62.9655 76.036,-52.2405 87.0175,-42.7503"/>
<polygon fill="black" stroke="black" points="89.4302,-45.2912 94.7078,-36.1043 84.8532,-39.9948 89.4302,-45.2912"/>
<g id="a_edge7&#45;headlabel"><a xlink:href="dir_000036_000000.xhtml" target="_top" xlink:title="16">
<text text-anchor="middle" x="88.567" y="-47.2897" font-family="Helvetica,sans-Serif" font-size="10.00">16</text>
</a>
</g>
</g>
<!-- dir_896191444cf08ec8ade6f88256cb2bdd&#45;&gt;dir_214608ef36d61442cb2b0c1c4e9a7def -->
<g id="edge8" class="edge"><title>dir_896191444cf08ec8ade6f88256cb2bdd&#45;&gt;dir_214608ef36d61442cb2b0c1c4e9a7def</title>
<path fill="none" stroke="black" d="M181.407,-143.962C173.68,-125.817 160.655,-96.4106 147.5,-72 142.666,-63.0307 136.933,-53.5024 131.613,-45.035"/>
<polygon fill="black" stroke="black" points="134.394,-42.8866 126.063,-36.3399 128.493,-46.6524 134.394,-42.8866"/>
<g id="a_edge8&#45;headlabel"><a xlink:href="dir_000169_000000.xhtml" target="_top" xlink:title="10">
<text text-anchor="middle" x="138.721" y="-41.8893" font-family="Helvetica,sans-Serif" font-size="10.00">10</text>
</a>
</g>
</g>
</g>
</svg>
