<?xml version="1.0" encoding="UTF-8" standalone="no"?>
<!DOCTYPE svg PUBLIC "-//W3C//DTD SVG 1.1//EN"
 "http://www.w3.org/Graphics/SVG/1.1/DTD/svg11.dtd">
<!-- Generated by graphviz version 2.38.0 (20140413.2041)
 -->
<!-- Title: arm_compute/core/NEON/kernels/detail Pages: 1 -->
<svg width="136pt" height="151pt"
 viewBox="0.00 0.00 135.50 151.00" xmlns="http://www.w3.org/2000/svg" xmlns:xlink="http://www.w3.org/1999/xlink">
<g id="graph0" class="graph" transform="scale(1 1) rotate(0) translate(4 147)">
<title>arm_compute/core/NEON/kernels/detail</title>
<polygon fill="white" stroke="none" points="-4,4 -4,-147 131.5,-147 131.5,4 -4,4"/>
<g id="clust1" class="cluster"><title>clusterdir_2c3c4cb85e732569e2614ad40a451d53</title>
<g id="a_clust1"><a xlink:href="dir_2c3c4cb85e732569e2614ad40a451d53.xhtml" target="_top" xlink:title="kernels">
<polygon fill="#ddddee" stroke="black" points="28,-64 28,-135 98,-135 98,-64 28,-64"/>
<text text-anchor="middle" x="63" y="-123" font-family="Helvetica,sans-Serif" font-size="10.00">kernels</text>
</a>
</g>
</g>
<!-- dir_6b58bd0be07bddcf3022ab9b026cbf38 -->
<g id="node1" class="node"><title>dir_6b58bd0be07bddcf3022ab9b026cbf38</title>
<g id="a_node1"><a xlink:href="dir_6b58bd0be07bddcf3022ab9b026cbf38.xhtml" target="_top" xlink:title="detail">
<polygon fill="#eeeeff" stroke="black" points="90,-108 36,-108 36,-72 90,-72 90,-108"/>
<text text-anchor="middle" x="63" y="-87.5" font-family="Helvetica,sans-Serif" font-size="10.00">detail</text>
</a>
</g>
</g>
<!-- dir_7b0825b7536eda12b63e5d87347b1c7d -->
<g id="node2" class="node"><title>dir_7b0825b7536eda12b63e5d87347b1c7d</title>
<g id="a_node2"><a xlink:href="dir_7b0825b7536eda12b63e5d87347b1c7d.xhtml" target="_top" xlink:title="utils">
<polygon fill="white" stroke="red" points="54,-36 0,-36 0,-0 54,-0 54,-36"/>
<text text-anchor="middle" x="27" y="-15.5" font-family="Helvetica,sans-Serif" font-size="10.00">utils</text>
</a>
</g>
</g>
<!-- dir_6b58bd0be07bddcf3022ab9b026cbf38&#45;&gt;dir_7b0825b7536eda12b63e5d87347b1c7d -->
<g id="edge1" class="edge"><title>dir_6b58bd0be07bddcf3022ab9b026cbf38&#45;&gt;dir_7b0825b7536eda12b63e5d87347b1c7d</title>
<path fill="none" stroke="black" d="M54.1011,-71.6966C50.0032,-63.7284 45.0512,-54.0995 40.5073,-45.2641"/>
<polygon fill="black" stroke="black" points="43.4826,-43.3965 35.7965,-36.1043 37.2575,-46.598 43.4826,-43.3965"/>
<g id="a_edge1&#45;headlabel"><a xlink:href="dir_000032_000013.xhtml" target="_top" xlink:title="1">
<text text-anchor="middle" x="47.6514" y="-42.7946" font-family="Helvetica,sans-Serif" font-size="10.00">1</text>
</a>
</g>
</g>
<!-- dir_9eca3c725728e372597fcd0d17c1ea0f -->
<g id="node3" class="node"><title>dir_9eca3c725728e372597fcd0d17c1ea0f</title>
<g id="a_node3"><a xlink:href="dir_9eca3c725728e372597fcd0d17c1ea0f.xhtml" target="_top" xlink:title="wrapper">
<polygon fill="white" stroke="red" points="127.5,-36 72.5,-36 72.5,-0 127.5,-0 127.5,-36"/>
<text text-anchor="middle" x="100" y="-15.5" font-family="Helvetica,sans-Serif" font-size="10.00">wrapper</text>
</a>
</g>
</g>
<!-- dir_6b58bd0be07bddcf3022ab9b026cbf38&#45;&gt;dir_9eca3c725728e372597fcd0d17c1ea0f -->
<g id="edge2" class="edge"><title>dir_6b58bd0be07bddcf3022ab9b026cbf38&#45;&gt;dir_9eca3c725728e372597fcd0d17c1ea0f</title>
<path fill="none" stroke="black" d="M72.1461,-71.6966C76.4026,-63.6436 81.5558,-53.8945 86.2664,-44.9824"/>
<polygon fill="black" stroke="black" points="89.3803,-46.5809 90.9591,-36.1043 83.1917,-43.3097 89.3803,-46.5809"/>
<g id="a_edge2&#45;headlabel"><a xlink:href="dir_000032_000029.xhtml" target="_top" xlink:title="2">
<text text-anchor="middle" x="90.2108" y="-48.5857" font-family="Helvetica,sans-Serif" font-size="10.00">2</text>
</a>
</g>
</g>
</g>
</svg>
