<?xml version="1.0" encoding="UTF-8" standalone="no"?>
<!DOCTYPE svg PUBLIC "-//W3C//DTD SVG 1.1//EN"
 "http://www.w3.org/Graphics/SVG/1.1/DTD/svg11.dtd">
<!-- Generated by graphviz version 2.38.0 (20140413.2041)
 -->
<!-- Title: Graphical Class Hierarchy Pages: 1 -->
<svg width="309pt" height="1560pt"
 viewBox="0.00 0.00 309.00 1560.00" xmlns="http://www.w3.org/2000/svg" xmlns:xlink="http://www.w3.org/1999/xlink">
<g id="graph0" class="graph" transform="scale(1 1) rotate(0) translate(4 1556)">
<title>Graphical Class Hierarchy</title>
<polygon fill="white" stroke="none" points="-4,4 -4,-1556 305,-1556 305,4 -4,4"/>
<!-- Node0 -->
<g id="node1" class="node"><title>Node0</title>
<g id="a_node1"><a xlink:href="classarm__compute_1_1graph_1_1_i_node.xhtml" target="_top" xlink:title="Node interface.">
<polygon fill="white" stroke="black" points="0,-760.5 0,-779.5 44,-779.5 44,-760.5 0,-760.5"/>
<text text-anchor="middle" x="22" y="-767.5" font-family="Helvetica,sans-Serif" font-size="10.00">INode</text>
</a>
</g>
</g>
<!-- Node1 -->
<g id="node2" class="node"><title>Node1</title>
<g id="a_node2"><a xlink:href="classarm__compute_1_1graph_1_1_activation_layer_node.xhtml" target="_top" xlink:title="Activation Layer node.">
<polygon fill="white" stroke="black" points="132.5,-1532.5 132.5,-1551.5 248.5,-1551.5 248.5,-1532.5 132.5,-1532.5"/>
<text text-anchor="middle" x="190.5" y="-1539.5" font-family="Helvetica,sans-Serif" font-size="10.00">ActivationLayerNode</text>
</a>
</g>
</g>
<!-- Node0&#45;&gt;Node1 -->
<g id="edge1" class="edge"><title>Node0&#45;&gt;Node1</title>
<path fill="none" stroke="midnightblue" d="M23.0753,-789.839C23.6909,-903.327 29.2978,-1467.17 80,-1523 93.1657,-1537.5 113.105,-1543.49 132.377,-1545.43"/>
<polygon fill="midnightblue" stroke="midnightblue" points="26.5739,-789.508 23.027,-779.524 19.574,-789.541 26.5739,-789.508"/>
</g>
<!-- Node2 -->
<g id="node3" class="node"><title>Node2</title>
<g id="a_node3"><a xlink:href="classarm__compute_1_1graph_1_1_batch_normalization_layer_node.xhtml" target="_top" xlink:title="Batch Normalization Layer node.">
<polygon fill="white" stroke="black" points="109,-1494.5 109,-1513.5 272,-1513.5 272,-1494.5 109,-1494.5"/>
<text text-anchor="middle" x="190.5" y="-1501.5" font-family="Helvetica,sans-Serif" font-size="10.00">BatchNormalizationLayerNode</text>
</a>
</g>
</g>
<!-- Node0&#45;&gt;Node2 -->
<g id="edge2" class="edge"><title>Node0&#45;&gt;Node2</title>
<path fill="none" stroke="midnightblue" d="M23.16,-789.857C24.2313,-899.938 31.8856,-1432.23 80,-1485 87.7998,-1493.55 97.9584,-1499.14 108.942,-1502.69"/>
<polygon fill="midnightblue" stroke="midnightblue" points="26.6572,-789.517 23.0674,-779.549 19.6574,-789.58 26.6572,-789.517"/>
</g>
<!-- Node3 -->
<g id="node4" class="node"><title>Node3</title>
<g id="a_node4"><a xlink:href="classarm__compute_1_1graph_1_1_bounding_box_transform_layer_node.xhtml" target="_top" xlink:title="Bounding Box Transform Layer node.">
<polygon fill="white" stroke="black" points="101,-1456.5 101,-1475.5 280,-1475.5 280,-1456.5 101,-1456.5"/>
<text text-anchor="middle" x="190.5" y="-1463.5" font-family="Helvetica,sans-Serif" font-size="10.00">BoundingBoxTransformLayerNode</text>
</a>
</g>
</g>
<!-- Node0&#45;&gt;Node3 -->
<g id="edge3" class="edge"><title>Node0&#45;&gt;Node3</title>
<path fill="none" stroke="midnightblue" d="M23.2531,-789.803C24.7972,-896.226 34.4592,-1397.27 80,-1447 85.8641,-1453.4 93.05,-1458.14 100.912,-1461.6"/>
<polygon fill="midnightblue" stroke="midnightblue" points="26.7526,-789.733 23.1153,-779.782 19.7533,-789.83 26.7526,-789.733"/>
</g>
<!-- Node4 -->
<g id="node5" class="node"><title>Node4</title>
<g id="a_node5"><a xlink:href="classarm__compute_1_1graph_1_1_channel_shuffle_layer_node.xhtml" target="_top" xlink:title="Channel Shuffle Layer node.">
<polygon fill="white" stroke="black" points="120.5,-1418.5 120.5,-1437.5 260.5,-1437.5 260.5,-1418.5 120.5,-1418.5"/>
<text text-anchor="middle" x="190.5" y="-1425.5" font-family="Helvetica,sans-Serif" font-size="10.00">ChannelShuffleLayerNode</text>
</a>
</g>
</g>
<!-- Node0&#45;&gt;Node4 -->
<g id="edge4" class="edge"><title>Node0&#45;&gt;Node4</title>
<path fill="none" stroke="midnightblue" d="M23.3609,-789.958C25.4102,-893.059 37.0585,-1362.35 80,-1409 90.4533,-1420.36 105.067,-1426.47 120.219,-1429.51"/>
<polygon fill="midnightblue" stroke="midnightblue" points="26.8557,-789.646 23.1655,-779.715 19.857,-789.779 26.8557,-789.646"/>
</g>
<!-- Node5 -->
<g id="node6" class="node"><title>Node5</title>
<g id="a_node6"><a xlink:href="classarm__compute_1_1graph_1_1_concatenate_layer_node.xhtml" target="_top" xlink:title="Concatenation Layer node.">
<polygon fill="white" stroke="black" points="125.5,-1380.5 125.5,-1399.5 255.5,-1399.5 255.5,-1380.5 125.5,-1380.5"/>
<text text-anchor="middle" x="190.5" y="-1387.5" font-family="Helvetica,sans-Serif" font-size="10.00">ConcatenateLayerNode</text>
</a>
</g>
</g>
<!-- Node0&#45;&gt;Node5 -->
<g id="edge5" class="edge"><title>Node0&#45;&gt;Node5</title>
<path fill="none" stroke="midnightblue" d="M23.4729,-789.694C26.0275,-888.517 39.5954,-1327.35 80,-1371 91.6646,-1383.6 108.453,-1389.74 125.394,-1392.38"/>
<polygon fill="midnightblue" stroke="midnightblue" points="26.9694,-789.51 23.2202,-779.601 19.9716,-789.685 26.9694,-789.51"/>
</g>
<!-- Node6 -->
<g id="node7" class="node"><title>Node6</title>
<g id="a_node7"><a xlink:href="classarm__compute_1_1graph_1_1_const_node.xhtml" target="_top" xlink:title="Const node.">
<polygon fill="white" stroke="black" points="155.5,-1342.5 155.5,-1361.5 225.5,-1361.5 225.5,-1342.5 155.5,-1342.5"/>
<text text-anchor="middle" x="190.5" y="-1349.5" font-family="Helvetica,sans-Serif" font-size="10.00">ConstNode</text>
</a>
</g>
</g>
<!-- Node0&#45;&gt;Node6 -->
<g id="edge6" class="edge"><title>Node0&#45;&gt;Node6</title>
<path fill="none" stroke="midnightblue" d="M23.6136,-789.937C26.7339,-885.35 42.1965,-1292.42 80,-1333 98.8061,-1353.19 130.769,-1356.75 155.322,-1355.96"/>
<polygon fill="midnightblue" stroke="midnightblue" points="27.1103,-789.775 23.2936,-779.891 20.1139,-789.998 27.1103,-789.775"/>
</g>
<!-- Node7 -->
<g id="node8" class="node"><title>Node7</title>
<g id="a_node8"><a xlink:href="classarm__compute_1_1graph_1_1_convolution_layer_node.xhtml" target="_top" xlink:title="Convolution Layer node.">
<polygon fill="white" stroke="black" points="128,-1304.5 128,-1323.5 253,-1323.5 253,-1304.5 128,-1304.5"/>
<text text-anchor="middle" x="190.5" y="-1311.5" font-family="Helvetica,sans-Serif" font-size="10.00">ConvolutionLayerNode</text>
</a>
</g>
</g>
<!-- Node0&#45;&gt;Node7 -->
<g id="edge7" class="edge"><title>Node0&#45;&gt;Node7</title>
<path fill="none" stroke="midnightblue" d="M23.7585,-789.72C27.4409,-880.738 44.7314,-1257.41 80,-1295 92.278,-1308.09 110.086,-1314.17 127.787,-1316.62"/>
<polygon fill="midnightblue" stroke="midnightblue" points="27.2531,-789.511 23.3604,-779.658 20.2586,-789.788 27.2531,-789.511"/>
</g>
<!-- Node8 -->
<g id="node9" class="node"><title>Node8</title>
<g id="a_node9"><a xlink:href="classarm__compute_1_1graph_1_1_deconvolution_layer_node.xhtml" target="_top" xlink:title="Deconvolution Layer node.">
<polygon fill="white" stroke="black" points="122,-1266.5 122,-1285.5 259,-1285.5 259,-1266.5 122,-1266.5"/>
<text text-anchor="middle" x="190.5" y="-1273.5" font-family="Helvetica,sans-Serif" font-size="10.00">DeconvolutionLayerNode</text>
</a>
</g>
</g>
<!-- Node0&#45;&gt;Node8 -->
<g id="edge8" class="edge"><title>Node0&#45;&gt;Node8</title>
<path fill="none" stroke="midnightblue" d="M23.9441,-789.922C28.2594,-877.134 47.3146,-1222.46 80,-1257 90.9402,-1268.56 106.201,-1274.65 121.862,-1277.58"/>
<polygon fill="midnightblue" stroke="midnightblue" points="27.433,-789.607 23.4521,-779.788 20.4412,-789.946 27.433,-789.607"/>
</g>
<!-- Node9 -->
<g id="node10" class="node"><title>Node9</title>
<g id="a_node10"><a xlink:href="classarm__compute_1_1graph_1_1_depthwise_convolution_layer_node.xhtml" target="_top" xlink:title="Depthwise Convolution Layer node.">
<polygon fill="white" stroke="black" points="103.5,-1228.5 103.5,-1247.5 277.5,-1247.5 277.5,-1228.5 103.5,-1228.5"/>
<text text-anchor="middle" x="190.5" y="-1235.5" font-family="Helvetica,sans-Serif" font-size="10.00">DepthwiseConvolutionLayerNode</text>
</a>
</g>
</g>
<!-- Node0&#45;&gt;Node9 -->
<g id="edge9" class="edge"><title>Node0&#45;&gt;Node9</title>
<path fill="none" stroke="midnightblue" d="M22.5259,-790.221C21.1117,-869.314 20.2353,-1156.45 80,-1219 86.5313,-1225.84 94.574,-1230.75 103.31,-1234.23"/>
<polygon fill="midnightblue" stroke="midnightblue" points="26.0349,-789.813 22.7398,-779.743 19.0363,-789.67 26.0349,-789.813"/>
</g>
<!-- Node10 -->
<g id="node11" class="node"><title>Node10</title>
<g id="a_node11"><a xlink:href="classarm__compute_1_1graph_1_1_dequantization_layer_node.xhtml" target="_top" xlink:title="Dequantize Layer node.">
<polygon fill="white" stroke="black" points="120,-1190.5 120,-1209.5 261,-1209.5 261,-1190.5 120,-1190.5"/>
<text text-anchor="middle" x="190.5" y="-1197.5" font-family="Helvetica,sans-Serif" font-size="10.00">DequantizationLayerNode</text>
</a>
</g>
</g>
<!-- Node0&#45;&gt;Node10 -->
<g id="edge10" class="edge"><title>Node0&#45;&gt;Node10</title>
<path fill="none" stroke="midnightblue" d="M22.7914,-789.929C22.4444,-864.312 25.2305,-1124.34 80,-1181 90.5264,-1191.89 104.893,-1197.89 119.755,-1200.97"/>
<polygon fill="midnightblue" stroke="midnightblue" points="26.2933,-789.67 22.8665,-779.645 19.2935,-789.619 26.2933,-789.67"/>
</g>
<!-- Node11 -->
<g id="node12" class="node"><title>Node11</title>
<g id="a_node12"><a xlink:href="classarm__compute_1_1graph_1_1_detection_output_layer_node.xhtml" target="_top" xlink:title="DetectionOutput Layer node.">
<polygon fill="white" stroke="black" points="116.5,-1152.5 116.5,-1171.5 264.5,-1171.5 264.5,-1152.5 116.5,-1152.5"/>
<text text-anchor="middle" x="190.5" y="-1159.5" font-family="Helvetica,sans-Serif" font-size="10.00">DetectionOutputLayerNode</text>
</a>
</g>
</g>
<!-- Node0&#45;&gt;Node11 -->
<g id="edge11" class="edge"><title>Node0&#45;&gt;Node11</title>
<path fill="none" stroke="midnightblue" d="M23.1026,-789.872C23.8906,-859.688 30.2677,-1092.25 80,-1143 89.7911,-1152.99 102.819,-1158.85 116.465,-1162.11"/>
<polygon fill="midnightblue" stroke="midnightblue" points="26.6018,-789.754 23.0164,-779.784 19.602,-789.814 26.6018,-789.754"/>
</g>
<!-- Node12 -->
<g id="node13" class="node"><title>Node12</title>
<g id="a_node13"><a xlink:href="classarm__compute_1_1graph_1_1_detection_post_process_layer_node.xhtml" target="_top" xlink:title="DetectionPostProcess Layer node.">
<polygon fill="white" stroke="black" points="104,-1114.5 104,-1133.5 277,-1133.5 277,-1114.5 104,-1114.5"/>
<text text-anchor="middle" x="190.5" y="-1121.5" font-family="Helvetica,sans-Serif" font-size="10.00">DetectionPostProcessLayerNode</text>
</a>
</g>
</g>
<!-- Node0&#45;&gt;Node12 -->
<g id="edge12" class="edge"><title>Node0&#45;&gt;Node12</title>
<path fill="none" stroke="midnightblue" d="M23.4834,-789.919C25.4901,-855.062 35.3088,-1060.16 80,-1105 86.7424,-1111.76 94.9713,-1116.62 103.86,-1120.06"/>
<polygon fill="midnightblue" stroke="midnightblue" points="26.9777,-789.663 23.2006,-779.764 19.9804,-789.858 26.9777,-789.663"/>
</g>
<!-- Node13 -->
<g id="node14" class="node"><title>Node13</title>
<g id="a_node14"><a xlink:href="classarm__compute_1_1graph_1_1_dummy_node.xhtml" target="_top" xlink:title="Dummy Layer node.">
<polygon fill="white" stroke="black" points="150.5,-1076.5 150.5,-1095.5 230.5,-1095.5 230.5,-1076.5 150.5,-1076.5"/>
<text text-anchor="middle" x="190.5" y="-1083.5" font-family="Helvetica,sans-Serif" font-size="10.00">DummyNode</text>
</a>
</g>
</g>
<!-- Node0&#45;&gt;Node13 -->
<g id="edge13" class="edge"><title>Node0&#45;&gt;Node13</title>
<path fill="none" stroke="midnightblue" d="M23.9394,-789.581C27.2235,-849.382 40.2388,-1027.94 80,-1067 98.2376,-1084.92 126.93,-1089.38 150.369,-1089.51"/>
<polygon fill="midnightblue" stroke="midnightblue" points="27.4335,-789.373 23.4212,-779.567 20.4428,-789.735 27.4335,-789.373"/>
</g>
<!-- Node14 -->
<g id="node15" class="node"><title>Node14</title>
<g id="a_node15"><a xlink:href="classarm__compute_1_1graph_1_1_eltwise_layer_node.xhtml" target="_top" xlink:title="Eltwise Layer node.">
<polygon fill="white" stroke="black" points="140,-1038.5 140,-1057.5 241,-1057.5 241,-1038.5 140,-1038.5"/>
<text text-anchor="middle" x="190.5" y="-1045.5" font-family="Helvetica,sans-Serif" font-size="10.00">EltwiseLayerNode</text>
</a>
</g>
</g>
<!-- Node0&#45;&gt;Node14 -->
<g id="edge14" class="edge"><title>Node0&#45;&gt;Node14</title>
<path fill="none" stroke="midnightblue" d="M24.5651,-789.891C29.2918,-844.658 45.2819,-995.804 80,-1029 95.7585,-1044.07 118.94,-1049.54 139.921,-1050.94"/>
<polygon fill="midnightblue" stroke="midnightblue" points="28.0382,-789.421 23.7247,-779.744 21.0621,-789.999 28.0382,-789.421"/>
</g>
<!-- Node15 -->
<g id="node16" class="node"><title>Node15</title>
<g id="a_node16"><a xlink:href="classarm__compute_1_1graph_1_1_flatten_layer_node.xhtml" target="_top" xlink:title="Flatten Layer node.">
<polygon fill="white" stroke="black" points="140,-1000.5 140,-1019.5 241,-1019.5 241,-1000.5 140,-1000.5"/>
<text text-anchor="middle" x="190.5" y="-1007.5" font-family="Helvetica,sans-Serif" font-size="10.00">FlattenLayerNode</text>
</a>
</g>
</g>
<!-- Node0&#45;&gt;Node15 -->
<g id="edge15" class="edge"><title>Node0&#45;&gt;Node15</title>
<path fill="none" stroke="midnightblue" d="M25.3677,-789.828C31.6274,-838.802 50.2061,-963.516 80,-991 95.9547,-1005.72 119.033,-1011.17 139.893,-1012.66"/>
<polygon fill="midnightblue" stroke="midnightblue" points="28.8035,-789.092 24.1003,-779.599 21.8566,-789.953 28.8035,-789.092"/>
</g>
<!-- Node16 -->
<g id="node17" class="node"><title>Node16</title>
<g id="a_node17"><a xlink:href="classarm__compute_1_1graph_1_1_fully_connected_layer_node.xhtml" target="_top" xlink:title="Fully Connected Layer node.">
<polygon fill="white" stroke="black" points="120.5,-962.5 120.5,-981.5 260.5,-981.5 260.5,-962.5 120.5,-962.5"/>
<text text-anchor="middle" x="190.5" y="-969.5" font-family="Helvetica,sans-Serif" font-size="10.00">FullyConnectedLayerNode</text>
</a>
</g>
</g>
<!-- Node0&#45;&gt;Node16 -->
<g id="edge16" class="edge"><title>Node0&#45;&gt;Node16</title>
<path fill="none" stroke="midnightblue" d="M22.8867,-790.078C23.8424,-828.11 31.7225,-910.63 80,-953 91.2387,-962.864 105.708,-968.496 120.422,-971.556"/>
<polygon fill="midnightblue" stroke="midnightblue" points="26.3835,-789.759 22.7753,-779.797 19.3839,-789.835 26.3835,-789.759"/>
</g>
<!-- Node17 -->
<g id="node18" class="node"><title>Node17</title>
<g id="a_node18"><a xlink:href="classarm__compute_1_1graph_1_1_fused_convolution_batch_normalization_node.xhtml" target="_top" xlink:title="Batch Normalization node.">
<polygon fill="white" stroke="black" points="80,-924.5 80,-943.5 301,-943.5 301,-924.5 80,-924.5"/>
<text text-anchor="middle" x="190.5" y="-931.5" font-family="Helvetica,sans-Serif" font-size="10.00">FusedConvolutionBatchNormalizationNode</text>
</a>
</g>
</g>
<!-- Node0&#45;&gt;Node17 -->
<g id="edge17" class="edge"><title>Node0&#45;&gt;Node17</title>
<path fill="none" stroke="midnightblue" d="M24.7558,-789.848C28.6866,-821.57 41.1647,-883.336 80,-915 84.5609,-918.719 89.5894,-921.821 94.9092,-924.401"/>
<polygon fill="midnightblue" stroke="midnightblue" points="28.2067,-789.202 23.6613,-779.632 21.2465,-789.948 28.2067,-789.202"/>
</g>
<!-- Node18 -->
<g id="node19" class="node"><title>Node18</title>
<g id="a_node19"><a xlink:href="classarm__compute_1_1graph_1_1_fused_depthwise_convolution_batch_normalization_node.xhtml" target="_top" xlink:title="Fused Depthwise Convolution Batch Normalization node.">
<polygon fill="white" stroke="black" points="115.5,-875 115.5,-905 265.5,-905 265.5,-875 115.5,-875"/>
<text text-anchor="start" x="123.5" y="-893" font-family="Helvetica,sans-Serif" font-size="10.00">FusedDepthwiseConvolution</text>
<text text-anchor="middle" x="190.5" y="-882" font-family="Helvetica,sans-Serif" font-size="10.00">BatchNormalizationNode</text>
</a>
</g>
</g>
<!-- Node0&#45;&gt;Node18 -->
<g id="edge18" class="edge"><title>Node0&#45;&gt;Node18</title>
<path fill="none" stroke="midnightblue" d="M29.2387,-789.064C37.3826,-810.863 53.7729,-845.981 80,-865 90.4186,-872.555 102.743,-877.877 115.299,-881.614"/>
<polygon fill="midnightblue" stroke="midnightblue" points="32.5163,-787.834 25.8963,-779.562 25.9129,-790.157 32.5163,-787.834"/>
</g>
<!-- Node19 -->
<g id="node20" class="node"><title>Node19</title>
<g id="a_node20"><a xlink:href="classarm__compute_1_1graph_1_1_generate_proposals_layer_node.xhtml" target="_top" xlink:title="Generate Proposals Layer node.">
<polygon fill="white" stroke="black" points="110.5,-836.5 110.5,-855.5 270.5,-855.5 270.5,-836.5 110.5,-836.5"/>
<text text-anchor="middle" x="190.5" y="-843.5" font-family="Helvetica,sans-Serif" font-size="10.00">GenerateProposalsLayerNode</text>
</a>
</g>
</g>
<!-- Node0&#45;&gt;Node19 -->
<g id="edge19" class="edge"><title>Node0&#45;&gt;Node19</title>
<path fill="none" stroke="midnightblue" d="M36.1298,-788.126C46.5322,-801.078 62.236,-817.783 80,-827 89.4196,-831.887 99.846,-835.551 110.412,-838.293"/>
<polygon fill="midnightblue" stroke="midnightblue" points="38.6796,-785.699 29.8149,-779.897 33.1263,-789.961 38.6796,-785.699"/>
</g>
<!-- Node20 -->
<g id="node21" class="node"><title>Node20</title>
<g id="a_node21"><a xlink:href="classarm__compute_1_1graph_1_1_input_node.xhtml" target="_top" xlink:title="Input Layer node.">
<polygon fill="white" stroke="black" points="157.5,-798.5 157.5,-817.5 223.5,-817.5 223.5,-798.5 157.5,-798.5"/>
<text text-anchor="middle" x="190.5" y="-805.5" font-family="Helvetica,sans-Serif" font-size="10.00">InputNode</text>
</a>
</g>
</g>
<!-- Node0&#45;&gt;Node20 -->
<g id="edge20" class="edge"><title>Node0&#45;&gt;Node20</title>
<path fill="none" stroke="midnightblue" d="M53.6547,-781.155C62.1152,-783.977 71.3484,-786.821 80,-789 105.633,-795.457 135.19,-800.445 157.131,-803.686"/>
<polygon fill="midnightblue" stroke="midnightblue" points="54.7537,-777.832 44.159,-777.895 52.4805,-784.453 54.7537,-777.832"/>
</g>
<!-- Node21 -->
<g id="node22" class="node"><title>Node21</title>
<g id="a_node22"><a xlink:href="classarm__compute_1_1graph_1_1_normalization_layer_node.xhtml" target="_top" xlink:title="Normalization Layer node.">
<polygon fill="white" stroke="black" points="123,-760.5 123,-779.5 258,-779.5 258,-760.5 123,-760.5"/>
<text text-anchor="middle" x="190.5" y="-767.5" font-family="Helvetica,sans-Serif" font-size="10.00">NormalizationLayerNode</text>
</a>
</g>
</g>
<!-- Node0&#45;&gt;Node21 -->
<g id="edge21" class="edge"><title>Node0&#45;&gt;Node21</title>
<path fill="none" stroke="midnightblue" d="M54.1499,-770C73.5216,-770 99.1865,-770 122.956,-770"/>
<polygon fill="midnightblue" stroke="midnightblue" points="54.0874,-766.5 44.0873,-770 54.0873,-773.5 54.0874,-766.5"/>
</g>
<!-- Node22 -->
<g id="node23" class="node"><title>Node22</title>
<g id="a_node23"><a xlink:href="classarm__compute_1_1graph_1_1_normalize_planar_y_u_v_layer_node.xhtml" target="_top" xlink:title="Batch Normalization Layer node.">
<polygon fill="white" stroke="black" points="107,-722.5 107,-741.5 274,-741.5 274,-722.5 107,-722.5"/>
<text text-anchor="middle" x="190.5" y="-729.5" font-family="Helvetica,sans-Serif" font-size="10.00">NormalizePlanarYUVLayerNode</text>
</a>
</g>
</g>
<!-- Node0&#45;&gt;Node22 -->
<g id="edge22" class="edge"><title>Node0&#45;&gt;Node22</title>
<path fill="none" stroke="midnightblue" d="M53.6547,-758.845C62.1152,-756.023 71.3484,-753.179 80,-751 94.5002,-747.347 110.256,-744.165 125.179,-741.503"/>
<polygon fill="midnightblue" stroke="midnightblue" points="52.4805,-755.547 44.159,-762.105 54.7537,-762.168 52.4805,-755.547"/>
</g>
<!-- Node23 -->
<g id="node24" class="node"><title>Node23</title>
<g id="a_node24"><a xlink:href="classarm__compute_1_1graph_1_1_output_node.xhtml" target="_top" xlink:title="Output Layer node.">
<polygon fill="white" stroke="black" points="153,-684.5 153,-703.5 228,-703.5 228,-684.5 153,-684.5"/>
<text text-anchor="middle" x="190.5" y="-691.5" font-family="Helvetica,sans-Serif" font-size="10.00">OutputNode</text>
</a>
</g>
</g>
<!-- Node0&#45;&gt;Node23 -->
<g id="edge23" class="edge"><title>Node0&#45;&gt;Node23</title>
<path fill="none" stroke="midnightblue" d="M36.1298,-751.874C46.5322,-738.922 62.236,-722.217 80,-713 102.521,-701.315 130.798,-696.621 152.975,-694.819"/>
<polygon fill="midnightblue" stroke="midnightblue" points="33.1263,-750.039 29.8149,-760.103 38.6796,-754.301 33.1263,-750.039"/>
</g>
<!-- Node24 -->
<g id="node25" class="node"><title>Node24</title>
<g id="a_node25"><a xlink:href="classarm__compute_1_1graph_1_1_pad_layer_node.xhtml" target="_top" xlink:title="Pad Layer node.">
<polygon fill="white" stroke="black" points="147.5,-646.5 147.5,-665.5 233.5,-665.5 233.5,-646.5 147.5,-646.5"/>
<text text-anchor="middle" x="190.5" y="-653.5" font-family="Helvetica,sans-Serif" font-size="10.00">PadLayerNode</text>
</a>
</g>
</g>
<!-- Node0&#45;&gt;Node24 -->
<g id="edge24" class="edge"><title>Node0&#45;&gt;Node24</title>
<path fill="none" stroke="midnightblue" d="M29.0662,-750.691C37.0463,-728.66 53.2813,-693.322 80,-675 99.5724,-661.578 125.615,-656.668 147.392,-655.188"/>
<polygon fill="midnightblue" stroke="midnightblue" points="25.7031,-749.71 25.802,-760.304 32.3314,-751.96 25.7031,-749.71"/>
</g>
<!-- Node25 -->
<g id="node26" class="node"><title>Node25</title>
<g id="a_node26"><a xlink:href="classarm__compute_1_1graph_1_1_permute_layer_node.xhtml" target="_top" xlink:title="Permute Layer node.">
<polygon fill="white" stroke="black" points="135.5,-608.5 135.5,-627.5 245.5,-627.5 245.5,-608.5 135.5,-608.5"/>
<text text-anchor="middle" x="190.5" y="-615.5" font-family="Helvetica,sans-Serif" font-size="10.00">PermuteLayerNode</text>
</a>
</g>
</g>
<!-- Node0&#45;&gt;Node25 -->
<g id="edge25" class="edge"><title>Node0&#45;&gt;Node25</title>
<path fill="none" stroke="midnightblue" d="M25.4899,-750.515C30.3537,-721.017 43.9995,-665.455 80,-637 95.5156,-624.737 116.161,-619.248 135.341,-617.074"/>
<polygon fill="midnightblue" stroke="midnightblue" points="22.0237,-750.03 24.0275,-760.434 28.9488,-751.051 22.0237,-750.03"/>
</g>
<!-- Node26 -->
<g id="node27" class="node"><title>Node26</title>
<g id="a_node27"><a xlink:href="classarm__compute_1_1graph_1_1_pooling_layer_node.xhtml" target="_top" xlink:title="Pooling Layer node.">
<polygon fill="white" stroke="black" points="139,-570.5 139,-589.5 242,-589.5 242,-570.5 139,-570.5"/>
<text text-anchor="middle" x="190.5" y="-577.5" font-family="Helvetica,sans-Serif" font-size="10.00">PoolingLayerNode</text>
</a>
</g>
</g>
<!-- Node0&#45;&gt;Node26 -->
<g id="edge26" class="edge"><title>Node0&#45;&gt;Node26</title>
<path fill="none" stroke="midnightblue" d="M23.386,-750.233C25.2319,-714.219 34.6186,-638.04 80,-599 96.0895,-585.159 118.569,-579.704 138.977,-577.985"/>
<polygon fill="midnightblue" stroke="midnightblue" points="19.8815,-750.296 23.0156,-760.416 26.8769,-750.55 19.8815,-750.296"/>
</g>
<!-- Node27 -->
<g id="node28" class="node"><title>Node27</title>
<g id="a_node28"><a xlink:href="classarm__compute_1_1graph_1_1_p_relu_layer_node.xhtml" target="_top" xlink:title="PRelu Layer node.">
<polygon fill="white" stroke="black" points="143.5,-532.5 143.5,-551.5 237.5,-551.5 237.5,-532.5 143.5,-532.5"/>
<text text-anchor="middle" x="190.5" y="-539.5" font-family="Helvetica,sans-Serif" font-size="10.00">PReluLayerNode</text>
</a>
</g>
</g>
<!-- Node0&#45;&gt;Node27 -->
<g id="edge27" class="edge"><title>Node0&#45;&gt;Node27</title>
<path fill="none" stroke="midnightblue" d="M25.6627,-750.306C32.4204,-703.334 51.729,-586.719 80,-561 96.9124,-545.614 121.63,-540.401 143.303,-539.24"/>
<polygon fill="midnightblue" stroke="midnightblue" points="22.1678,-750.027 24.2491,-760.415 29.1003,-750.996 22.1678,-750.027"/>
</g>
<!-- Node28 -->
<g id="node29" class="node"><title>Node28</title>
<g id="a_node29"><a xlink:href="classarm__compute_1_1graph_1_1_print_layer_node.xhtml" target="_top" xlink:title="Print Layer node.">
<polygon fill="white" stroke="black" points="145.5,-494.5 145.5,-513.5 235.5,-513.5 235.5,-494.5 145.5,-494.5"/>
<text text-anchor="middle" x="190.5" y="-501.5" font-family="Helvetica,sans-Serif" font-size="10.00">PrintLayerNode</text>
</a>
</g>
</g>
<!-- Node0&#45;&gt;Node28 -->
<g id="edge28" class="edge"><title>Node0&#45;&gt;Node28</title>
<path fill="none" stroke="midnightblue" d="M24.7725,-750.338C29.9452,-697.52 46.7977,-554.425 80,-523 97.1662,-506.753 122.977,-501.704 145.228,-500.857"/>
<polygon fill="midnightblue" stroke="midnightblue" points="21.2756,-750.142 23.8207,-760.427 28.2446,-750.8 21.2756,-750.142"/>
</g>
<!-- Node29 -->
<g id="node30" class="node"><title>Node29</title>
<g id="a_node30"><a xlink:href="classarm__compute_1_1graph_1_1_prior_box_layer_node.xhtml" target="_top" xlink:title="PriorBox Layer node.">
<polygon fill="white" stroke="black" points="136.5,-456.5 136.5,-475.5 244.5,-475.5 244.5,-456.5 136.5,-456.5"/>
<text text-anchor="middle" x="190.5" y="-463.5" font-family="Helvetica,sans-Serif" font-size="10.00">PriorBoxLayerNode</text>
</a>
</g>
</g>
<!-- Node0&#45;&gt;Node29 -->
<g id="edge29" class="edge"><title>Node0&#45;&gt;Node29</title>
<path fill="none" stroke="midnightblue" d="M24.1342,-750.07C27.8842,-691.574 41.8904,-522.147 80,-485 94.7839,-470.59 116.339,-464.906 136.422,-463.172"/>
<polygon fill="midnightblue" stroke="midnightblue" points="20.6306,-750.024 23.5168,-760.218 27.6177,-750.449 20.6306,-750.024"/>
</g>
<!-- Node30 -->
<g id="node31" class="node"><title>Node30</title>
<g id="a_node31"><a xlink:href="classarm__compute_1_1graph_1_1_quantization_layer_node.xhtml" target="_top" xlink:title="Quantization Layer node.">
<polygon fill="white" stroke="black" points="126,-418.5 126,-437.5 255,-437.5 255,-418.5 126,-418.5"/>
<text text-anchor="middle" x="190.5" y="-425.5" font-family="Helvetica,sans-Serif" font-size="10.00">QuantizationLayerNode</text>
</a>
</g>
</g>
<!-- Node0&#45;&gt;Node30 -->
<g id="edge30" class="edge"><title>Node0&#45;&gt;Node30</title>
<path fill="none" stroke="midnightblue" d="M23.6255,-749.976C26.0425,-686.273 36.9157,-489.961 80,-447 92.0916,-434.943 108.909,-428.952 125.741,-426.273"/>
<polygon fill="midnightblue" stroke="midnightblue" points="20.1176,-750.145 23.2668,-760.261 27.1133,-750.389 20.1176,-750.145"/>
</g>
<!-- Node31 -->
<g id="node32" class="node"><title>Node31</title>
<g id="a_node32"><a xlink:href="classarm__compute_1_1graph_1_1_reorg_layer_node.xhtml" target="_top" xlink:title="Reorg Layer node.">
<polygon fill="white" stroke="black" points="143,-380.5 143,-399.5 238,-399.5 238,-380.5 143,-380.5"/>
<text text-anchor="middle" x="190.5" y="-387.5" font-family="Helvetica,sans-Serif" font-size="10.00">ReorgLayerNode</text>
</a>
</g>
</g>
<!-- Node0&#45;&gt;Node31 -->
<g id="edge31" class="edge"><title>Node0&#45;&gt;Node31</title>
<path fill="none" stroke="midnightblue" d="M23.218,-749.893C24.3939,-681.266 31.9136,-457.823 80,-409 96.1116,-392.642 120.905,-387.386 142.828,-386.446"/>
<polygon fill="midnightblue" stroke="midnightblue" points="19.7142,-750.137 23.071,-760.186 26.7135,-750.237 19.7142,-750.137"/>
</g>
<!-- Node32 -->
<g id="node33" class="node"><title>Node32</title>
<g id="a_node33"><a xlink:href="classarm__compute_1_1graph_1_1_reshape_layer_node.xhtml" target="_top" xlink:title="Reshape Layer node.">
<polygon fill="white" stroke="black" points="136,-342.5 136,-361.5 245,-361.5 245,-342.5 136,-342.5"/>
<text text-anchor="middle" x="190.5" y="-349.5" font-family="Helvetica,sans-Serif" font-size="10.00">ReshapeLayerNode</text>
</a>
</g>
</g>
<!-- Node0&#45;&gt;Node32 -->
<g id="edge32" class="edge"><title>Node0&#45;&gt;Node32</title>
<path fill="none" stroke="midnightblue" d="M22.8836,-750.175C22.8844,-677.325 26.8022,-425.813 80,-371 94.3112,-356.254 115.666,-350.489 135.727,-348.785"/>
<polygon fill="midnightblue" stroke="midnightblue" points="19.3838,-750.285 22.9102,-760.276 26.3838,-750.267 19.3838,-750.285"/>
</g>
<!-- Node33 -->
<g id="node34" class="node"><title>Node33</title>
<g id="a_node34"><a xlink:href="classarm__compute_1_1graph_1_1_resize_layer_node.xhtml" target="_top" xlink:title="Resize Layer node.">
<polygon fill="white" stroke="black" points="141.5,-304.5 141.5,-323.5 239.5,-323.5 239.5,-304.5 141.5,-304.5"/>
<text text-anchor="middle" x="190.5" y="-311.5" font-family="Helvetica,sans-Serif" font-size="10.00">ResizeLayerNode</text>
</a>
</g>
</g>
<!-- Node0&#45;&gt;Node33 -->
<g id="edge33" class="edge"><title>Node0&#45;&gt;Node33</title>
<path fill="none" stroke="midnightblue" d="M22.605,-749.814C21.5232,-672.114 21.8285,-393.674 80,-333 95.5563,-316.775 119.631,-311.382 141.249,-310.323"/>
<polygon fill="midnightblue" stroke="midnightblue" points="19.1107,-750.195 22.7749,-760.136 26.1097,-750.08 19.1107,-750.195"/>
</g>
<!-- Node34 -->
<g id="node35" class="node"><title>Node34</title>
<g id="a_node35"><a xlink:href="classarm__compute_1_1graph_1_1_r_o_i_align_layer_node.xhtml" target="_top" xlink:title="ROI Align node.">
<polygon fill="white" stroke="black" points="137,-266.5 137,-285.5 244,-285.5 244,-266.5 137,-266.5"/>
<text text-anchor="middle" x="190.5" y="-273.5" font-family="Helvetica,sans-Serif" font-size="10.00">ROIAlignLayerNode</text>
</a>
</g>
</g>
<!-- Node0&#45;&gt;Node34 -->
<g id="edge34" class="edge"><title>Node0&#45;&gt;Node34</title>
<path fill="none" stroke="midnightblue" d="M23.9939,-750.306C28.4888,-664.81 48.0924,-328.624 80,-295 94.4766,-279.745 116.477,-274.036 136.969,-272.509"/>
<polygon fill="midnightblue" stroke="midnightblue" points="20.4904,-750.285 23.4701,-760.452 27.4811,-750.646 20.4904,-750.285"/>
</g>
<!-- Node35 -->
<g id="node36" class="node"><title>Node35</title>
<g id="a_node36"><a xlink:href="classarm__compute_1_1graph_1_1_slice_layer_node.xhtml" target="_top" xlink:title="Slice Layer node.">
<polygon fill="white" stroke="black" points="145,-228.5 145,-247.5 236,-247.5 236,-228.5 145,-228.5"/>
<text text-anchor="middle" x="190.5" y="-235.5" font-family="Helvetica,sans-Serif" font-size="10.00">SliceLayerNode</text>
</a>
</g>
</g>
<!-- Node0&#45;&gt;Node35 -->
<g id="edge35" class="edge"><title>Node0&#45;&gt;Node35</title>
<path fill="none" stroke="midnightblue" d="M23.8284,-749.881C27.736,-659.471 45.5906,-293.58 80,-257 96.3265,-239.643 122.384,-234.611 144.985,-234.052"/>
<polygon fill="midnightblue" stroke="midnightblue" points="20.3207,-749.992 23.3947,-760.131 27.3144,-750.288 20.3207,-749.992"/>
</g>
<!-- Node36 -->
<g id="node37" class="node"><title>Node36</title>
<g id="a_node37"><a xlink:href="classarm__compute_1_1graph_1_1_softmax_layer_node.xhtml" target="_top" xlink:title="Softmax Layer node.">
<polygon fill="white" stroke="black" points="136,-190.5 136,-209.5 245,-209.5 245,-190.5 136,-190.5"/>
<text text-anchor="middle" x="190.5" y="-197.5" font-family="Helvetica,sans-Serif" font-size="10.00">SoftmaxLayerNode</text>
</a>
</g>
</g>
<!-- Node0&#45;&gt;Node36 -->
<g id="edge36" class="edge"><title>Node0&#45;&gt;Node36</title>
<path fill="none" stroke="midnightblue" d="M23.655,-750.201C26.9444,-656.292 42.9883,-258.647 80,-219 94.154,-203.838 115.729,-198.06 135.998,-196.457"/>
<polygon fill="midnightblue" stroke="midnightblue" points="20.153,-750.205 23.3094,-760.319 27.1489,-750.444 20.153,-750.205"/>
</g>
<!-- Node37 -->
<g id="node38" class="node"><title>Node37</title>
<g id="a_node38"><a xlink:href="classarm__compute_1_1graph_1_1_split_layer_node.xhtml" target="_top" xlink:title="Split Layer node.">
<polygon fill="white" stroke="black" points="146,-152.5 146,-171.5 235,-171.5 235,-152.5 146,-152.5"/>
<text text-anchor="middle" x="190.5" y="-159.5" font-family="Helvetica,sans-Serif" font-size="10.00">SplitLayerNode</text>
</a>
</g>
</g>
<!-- Node0&#45;&gt;Node37 -->
<g id="edge37" class="edge"><title>Node0&#45;&gt;Node37</title>
<path fill="none" stroke="midnightblue" d="M23.5193,-750.078C26.2594,-652.022 40.4379,-223.661 80,-181 96.4654,-163.245 123.103,-158.332 145.982,-157.937"/>
<polygon fill="midnightblue" stroke="midnightblue" points="20.0193,-750.036 23.2468,-760.127 27.0167,-750.226 20.0193,-750.036"/>
</g>
<!-- Node38 -->
<g id="node39" class="node"><title>Node38</title>
<g id="a_node39"><a xlink:href="classarm__compute_1_1graph_1_1_stack_layer_node.xhtml" target="_top" xlink:title="Stack Layer node.">
<polygon fill="white" stroke="black" points="143,-114.5 143,-133.5 238,-133.5 238,-114.5 143,-114.5"/>
<text text-anchor="middle" x="190.5" y="-121.5" font-family="Helvetica,sans-Serif" font-size="10.00">StackLayerNode</text>
</a>
</g>
</g>
<!-- Node0&#45;&gt;Node38 -->
<g id="edge38" class="edge"><title>Node0&#45;&gt;Node38</title>
<path fill="none" stroke="midnightblue" d="M23.3888,-750.416C25.5784,-649.246 37.8197,-188.75 80,-143 95.6944,-125.977 120.735,-120.739 142.912,-119.977"/>
<polygon fill="midnightblue" stroke="midnightblue" points="19.8885,-750.397 23.1793,-760.467 26.887,-750.543 19.8885,-750.397"/>
</g>
<!-- Node39 -->
<g id="node40" class="node"><title>Node39</title>
<g id="a_node40"><a xlink:href="classarm__compute_1_1graph_1_1_unary_eltwise_layer_node.xhtml" target="_top" xlink:title="Unary Eltwise Layer node.">
<polygon fill="white" stroke="black" points="126,-76.5 126,-95.5 255,-95.5 255,-76.5 126,-76.5"/>
<text text-anchor="middle" x="190.5" y="-83.5" font-family="Helvetica,sans-Serif" font-size="10.00">UnaryEltwiseLayerNode</text>
</a>
</g>
</g>
<!-- Node0&#45;&gt;Node39 -->
<g id="edge39" class="edge"><title>Node0&#45;&gt;Node39</title>
<path fill="none" stroke="midnightblue" d="M23.2844,-750.229C24.9813,-645.01 35.2692,-153.768 80,-105 91.7378,-92.2028 108.756,-86.0553 125.892,-83.4637"/>
<polygon fill="midnightblue" stroke="midnightblue" points="19.7824,-750.338 23.1284,-760.391 26.7816,-750.445 19.7824,-750.338"/>
</g>
<!-- Node40 -->
<g id="node41" class="node"><title>Node40</title>
<g id="a_node41"><a xlink:href="classarm__compute_1_1graph_1_1_upsample_layer_node.xhtml" target="_top" xlink:title="Upsample Layer node.">
<polygon fill="white" stroke="black" points="132,-38.5 132,-57.5 249,-57.5 249,-38.5 132,-38.5"/>
<text text-anchor="middle" x="190.5" y="-45.5" font-family="Helvetica,sans-Serif" font-size="10.00">UpsampleLayerNode</text>
</a>
</g>
</g>
<!-- Node0&#45;&gt;Node40 -->
<g id="edge40" class="edge"><title>Node0&#45;&gt;Node40</title>
<path fill="none" stroke="midnightblue" d="M23.1887,-750.132C24.4082,-641.137 32.7027,-118.805 80,-67 93.0743,-52.6797 112.759,-46.6748 131.849,-44.6635"/>
<polygon fill="midnightblue" stroke="midnightblue" points="19.6866,-750.322 23.082,-760.358 26.6862,-750.395 19.6866,-750.322"/>
</g>
<!-- Node41 -->
<g id="node42" class="node"><title>Node41</title>
<g id="a_node42"><a xlink:href="classarm__compute_1_1graph_1_1_y_o_l_o_layer_node.xhtml" target="_top" xlink:title="YOLO Layer node.">
<polygon fill="white" stroke="black" points="144,-0.5 144,-19.5 237,-19.5 237,-0.5 144,-0.5"/>
<text text-anchor="middle" x="190.5" y="-7.5" font-family="Helvetica,sans-Serif" font-size="10.00">YOLOLayerNode</text>
</a>
</g>
</g>
<!-- Node0&#45;&gt;Node41 -->
<g id="edge41" class="edge"><title>Node0&#45;&gt;Node41</title>
<path fill="none" stroke="midnightblue" d="M23.1013,-750.124C23.8597,-637.628 30.1201,-83.8606 80,-29 95.8354,-11.5834 121.446,-6.45188 143.919,-5.85173"/>
<polygon fill="midnightblue" stroke="midnightblue" points="19.6,-750.347 23.0398,-760.367 26.5999,-750.389 19.6,-750.347"/>
</g>
</g>
</svg>
