<?xml version="1.0" encoding="UTF-8" standalone="no"?>
<!DOCTYPE svg PUBLIC "-//W3C//DTD SVG 1.1//EN"
 "http://www.w3.org/Graphics/SVG/1.1/DTD/svg11.dtd">
<!-- Generated by graphviz version 2.38.0 (20140413.2041)
 -->
<!-- Title: tests/validation/NEON Pages: 1 -->
<svg width="451pt" height="375pt"
 viewBox="0.00 0.00 451.19 375.00" xmlns="http://www.w3.org/2000/svg" xmlns:xlink="http://www.w3.org/1999/xlink">
<g id="graph0" class="graph" transform="scale(1 1) rotate(0) translate(4 371)">
<title>tests/validation/NEON</title>
<polygon fill="white" stroke="none" points="-4,4 -4,-371 447.187,-371 447.187,4 -4,4"/>
<g id="clust1" class="cluster"><title>clusterdir_e7c7b16542faa38cb4655ff1750d3604</title>
<g id="a_clust1"><a xlink:href="dir_e7c7b16542faa38cb4655ff1750d3604.xhtml" target="_top" xlink:title="validation">
<polygon fill="#ddddee" stroke="black" points="69.9722,-272 69.9722,-359 384.972,-359 384.972,-272 69.9722,-272"/>
<text text-anchor="middle" x="227.472" y="-347" font-family="Helvetica,sans-Serif" font-size="10.00">validation</text>
</a>
</g>
</g>
<g id="clust2" class="cluster"><title>clusterdir_0538a82dae0483a21d0f1e9d7e0a45c6</title>
<g id="a_clust2"><a xlink:href="dir_0538a82dae0483a21d0f1e9d7e0a45c6.xhtml" target="_top">
<polygon fill="#eeeeff" stroke="black" points="77.9722,-280 77.9722,-332 376.972,-332 376.972,-280 77.9722,-280"/>
</a>
</g>
</g>
<!-- dir_0538a82dae0483a21d0f1e9d7e0a45c6 -->
<g id="node1" class="node"><title>dir_0538a82dae0483a21d0f1e9d7e0a45c6</title>
<text text-anchor="middle" x="112.972" y="-303.5" font-family="Helvetica,sans-Serif" font-size="10.00">NEON</text>
</g>
<!-- dir_46fdb196cebdbffe77dac340cde62f29 -->
<g id="node5" class="node"><title>dir_46fdb196cebdbffe77dac340cde62f29</title>
<g id="a_node5"><a xlink:href="dir_46fdb196cebdbffe77dac340cde62f29.xhtml" target="_top" xlink:title="reference">
<polygon fill="none" stroke="black" points="88.9722,-252 26.9722,-252 26.9722,-216 88.9722,-216 88.9722,-252"/>
<text text-anchor="middle" x="57.9722" y="-231.5" font-family="Helvetica,sans-Serif" font-size="10.00">reference</text>
</a>
</g>
</g>
<!-- dir_0538a82dae0483a21d0f1e9d7e0a45c6&#45;&gt;dir_46fdb196cebdbffe77dac340cde62f29 -->
<g id="edge21" class="edge"><title>dir_0538a82dae0483a21d0f1e9d7e0a45c6&#45;&gt;dir_46fdb196cebdbffe77dac340cde62f29</title>
<path fill="none" stroke="black" d="M99.3767,-287.697C92.8495,-279.389 84.9041,-269.277 77.7256,-260.141"/>
<polygon fill="black" stroke="black" points="80.3417,-257.805 71.4113,-252.104 74.8374,-262.13 80.3417,-257.805"/>
<g id="a_edge21&#45;headlabel"><a xlink:href="dir_000059_000008.xhtml" target="_top" xlink:title="2">
<text text-anchor="middle" x="84.795" y="-256.377" font-family="Helvetica,sans-Serif" font-size="10.00">2</text>
</a>
</g>
</g>
<!-- dir_36fc908da539caaba46833e40038b859 -->
<g id="node2" class="node"><title>dir_36fc908da539caaba46833e40038b859</title>
<g id="a_node2"><a xlink:href="dir_36fc908da539caaba46833e40038b859.xhtml" target="_top" xlink:title="FixedPoint">
<polygon fill="white" stroke="black" points="368.472,-324 303.472,-324 303.472,-288 368.472,-288 368.472,-324"/>
<text text-anchor="middle" x="335.972" y="-303.5" font-family="Helvetica,sans-Serif" font-size="10.00">FixedPoint</text>
</a>
</g>
</g>
<!-- dir_445738e6fed662d0b65e690e3f1e1de0 -->
<g id="node7" class="node"><title>dir_445738e6fed662d0b65e690e3f1e1de0</title>
<g id="a_node7"><a xlink:href="dir_445738e6fed662d0b65e690e3f1e1de0.xhtml" target="_top" xlink:title="NEON">
<polygon fill="none" stroke="black" points="428.972,-252 374.972,-252 374.972,-216 428.972,-216 428.972,-252"/>
<text text-anchor="middle" x="401.972" y="-231.5" font-family="Helvetica,sans-Serif" font-size="10.00">NEON</text>
</a>
</g>
</g>
<!-- dir_36fc908da539caaba46833e40038b859&#45;&gt;dir_445738e6fed662d0b65e690e3f1e1de0 -->
<g id="edge18" class="edge"><title>dir_36fc908da539caaba46833e40038b859&#45;&gt;dir_445738e6fed662d0b65e690e3f1e1de0</title>
<path fill="none" stroke="black" d="M352.287,-287.697C360.279,-279.22 370.044,-268.864 378.794,-259.583"/>
<polygon fill="black" stroke="black" points="381.532,-261.781 385.845,-252.104 376.438,-256.979 381.532,-261.781"/>
<g id="a_edge18&#45;headlabel"><a xlink:href="dir_000072_000066.xhtml" target="_top" xlink:title="1">
<text text-anchor="middle" x="381.132" y="-263.844" font-family="Helvetica,sans-Serif" font-size="10.00">1</text>
</a>
</g>
</g>
<!-- dir_9e71e2da941d3cafc4d98a9f6ae3de4f -->
<g id="node8" class="node"><title>dir_9e71e2da941d3cafc4d98a9f6ae3de4f</title>
<g id="a_node8"><a xlink:href="dir_9e71e2da941d3cafc4d98a9f6ae3de4f.xhtml" target="_top" xlink:title="framework">
<polygon fill="white" stroke="red" points="173.472,-180 106.472,-180 106.472,-144 173.472,-144 173.472,-180"/>
<text text-anchor="middle" x="139.972" y="-159.5" font-family="Helvetica,sans-Serif" font-size="10.00">framework</text>
</a>
</g>
</g>
<!-- dir_36fc908da539caaba46833e40038b859&#45;&gt;dir_9e71e2da941d3cafc4d98a9f6ae3de4f -->
<g id="edge19" class="edge"><title>dir_36fc908da539caaba46833e40038b859&#45;&gt;dir_9e71e2da941d3cafc4d98a9f6ae3de4f</title>
<path fill="none" stroke="black" d="M331.114,-287.845C324.633,-267.921 311.302,-235.324 288.972,-216 259.185,-190.224 215.986,-176.693 183.764,-169.777"/>
<polygon fill="black" stroke="black" points="184.213,-166.298 173.719,-167.758 182.833,-173.16 184.213,-166.298"/>
<g id="a_edge19&#45;headlabel"><a xlink:href="dir_000072_000022.xhtml" target="_top" xlink:title="3">
<text text-anchor="middle" x="188.296" y="-161.723" font-family="Helvetica,sans-Serif" font-size="10.00">3</text>
</a>
</g>
</g>
<!-- dir_214608ef36d61442cb2b0c1c4e9a7def -->
<g id="node9" class="node"><title>dir_214608ef36d61442cb2b0c1c4e9a7def</title>
<g id="a_node9"><a xlink:href="dir_214608ef36d61442cb2b0c1c4e9a7def.xhtml" target="_top" xlink:title="arm_compute">
<polygon fill="white" stroke="red" points="269.972,-108 185.972,-108 185.972,-72 269.972,-72 269.972,-108"/>
<text text-anchor="middle" x="227.972" y="-87.5" font-family="Helvetica,sans-Serif" font-size="10.00">arm_compute</text>
</a>
</g>
</g>
<!-- dir_36fc908da539caaba46833e40038b859&#45;&gt;dir_214608ef36d61442cb2b0c1c4e9a7def -->
<g id="edge20" class="edge"><title>dir_36fc908da539caaba46833e40038b859&#45;&gt;dir_214608ef36d61442cb2b0c1c4e9a7def</title>
<path fill="none" stroke="black" d="M368.894,-297.547C392.646,-290.261 423.055,-276.562 437.972,-252 446.278,-238.325 443.032,-231.179 437.972,-216 425.323,-178.053 416.354,-167.482 383.972,-144 353.257,-121.727 312.49,-108.306 280.333,-100.544"/>
<polygon fill="black" stroke="black" points="280.749,-97.0481 270.219,-98.2183 279.181,-103.87 280.749,-97.0481"/>
<g id="a_edge20&#45;headlabel"><a xlink:href="dir_000072_000000.xhtml" target="_top" xlink:title="4">
<text text-anchor="middle" x="284.889" y="-92.5864" font-family="Helvetica,sans-Serif" font-size="10.00">4</text>
</a>
</g>
</g>
<!-- dir_2ce15eaea275a277c2370049ea836e06 -->
<g id="node3" class="node"><title>dir_2ce15eaea275a277c2370049ea836e06</title>
<g id="a_node3"><a xlink:href="dir_2ce15eaea275a277c2370049ea836e06.xhtml" target="_top" xlink:title="SYSTEM">
<polygon fill="white" stroke="black" points="285.472,-324 230.472,-324 230.472,-288 285.472,-288 285.472,-324"/>
<text text-anchor="middle" x="257.972" y="-303.5" font-family="Helvetica,sans-Serif" font-size="10.00">SYSTEM</text>
</a>
</g>
</g>
<!-- dir_e31c3eb8a08c20d742288af67200e09f -->
<g id="node6" class="node"><title>dir_e31c3eb8a08c20d742288af67200e09f</title>
<g id="a_node6"><a xlink:href="dir_e31c3eb8a08c20d742288af67200e09f.xhtml" target="_top" xlink:title="networks">
<polygon fill="none" stroke="black" points="280.472,-252 221.472,-252 221.472,-216 280.472,-216 280.472,-252"/>
<text text-anchor="middle" x="250.972" y="-231.5" font-family="Helvetica,sans-Serif" font-size="10.00">networks</text>
</a>
</g>
</g>
<!-- dir_2ce15eaea275a277c2370049ea836e06&#45;&gt;dir_e31c3eb8a08c20d742288af67200e09f -->
<g id="edge13" class="edge"><title>dir_2ce15eaea275a277c2370049ea836e06&#45;&gt;dir_e31c3eb8a08c20d742288af67200e09f</title>
<path fill="none" stroke="black" d="M256.242,-287.697C255.47,-279.983 254.543,-270.712 253.683,-262.112"/>
<polygon fill="black" stroke="black" points="257.16,-261.706 252.683,-252.104 250.195,-262.403 257.16,-261.706"/>
<g id="a_edge13&#45;headlabel"><a xlink:href="dir_000063_000070.xhtml" target="_top" xlink:title="2">
<text text-anchor="middle" x="260.343" y="-262.501" font-family="Helvetica,sans-Serif" font-size="10.00">2</text>
</a>
</g>
</g>
<!-- dir_2ce15eaea275a277c2370049ea836e06&#45;&gt;dir_445738e6fed662d0b65e690e3f1e1de0 -->
<g id="edge14" class="edge"><title>dir_2ce15eaea275a277c2370049ea836e06&#45;&gt;dir_445738e6fed662d0b65e690e3f1e1de0</title>
<path fill="none" stroke="black" d="M273.569,-287.833C279.491,-282.134 286.598,-276.183 293.972,-272 321.002,-256.666 331.691,-262.41 360.972,-252 362.379,-251.5 363.808,-250.978 365.247,-250.441"/>
<polygon fill="black" stroke="black" points="366.726,-253.621 374.777,-246.734 364.189,-247.097 366.726,-253.621"/>
<g id="a_edge14&#45;headlabel"><a xlink:href="dir_000063_000066.xhtml" target="_top" xlink:title="2">
<text text-anchor="middle" x="364.405" y="-255.07" font-family="Helvetica,sans-Serif" font-size="10.00">2</text>
</a>
</g>
</g>
<!-- dir_2ce15eaea275a277c2370049ea836e06&#45;&gt;dir_9e71e2da941d3cafc4d98a9f6ae3de4f -->
<g id="edge15" class="edge"><title>dir_2ce15eaea275a277c2370049ea836e06&#45;&gt;dir_9e71e2da941d3cafc4d98a9f6ae3de4f</title>
<path fill="none" stroke="black" d="M242.905,-287.943C233.849,-277.617 222.146,-264.14 211.972,-252 194.2,-230.793 174.464,-206.331 160.156,-188.425"/>
<polygon fill="black" stroke="black" points="162.572,-185.841 153.601,-180.205 157.1,-190.206 162.572,-185.841"/>
<g id="a_edge15&#45;headlabel"><a xlink:href="dir_000063_000022.xhtml" target="_top" xlink:title="4">
<text text-anchor="middle" x="167.033" y="-184.381" font-family="Helvetica,sans-Serif" font-size="10.00">4</text>
</a>
</g>
</g>
<!-- dir_2ce15eaea275a277c2370049ea836e06&#45;&gt;dir_214608ef36d61442cb2b0c1c4e9a7def -->
<g id="edge16" class="edge"><title>dir_2ce15eaea275a277c2370049ea836e06&#45;&gt;dir_214608ef36d61442cb2b0c1c4e9a7def</title>
<path fill="none" stroke="black" d="M271.118,-287.908C277.895,-278.006 285.459,-264.964 288.972,-252 293.157,-236.557 292.561,-231.592 288.972,-216 280.567,-179.484 259.939,-141.308 244.994,-116.902"/>
<polygon fill="black" stroke="black" points="247.854,-114.875 239.581,-108.255 241.92,-118.588 247.854,-114.875"/>
<g id="a_edge16&#45;headlabel"><a xlink:href="dir_000063_000000.xhtml" target="_top" xlink:title="13">
<text text-anchor="middle" x="252.167" y="-113.915" font-family="Helvetica,sans-Serif" font-size="10.00">13</text>
</a>
</g>
</g>
<!-- dir_6fc87decd8cffc07e5f49c197ca3de10 -->
<g id="node4" class="node"><title>dir_6fc87decd8cffc07e5f49c197ca3de10</title>
<g id="a_node4"><a xlink:href="dir_6fc87decd8cffc07e5f49c197ca3de10.xhtml" target="_top" xlink:title="UNIT">
<polygon fill="white" stroke="black" points="211.972,-324 157.972,-324 157.972,-288 211.972,-288 211.972,-324"/>
<text text-anchor="middle" x="184.972" y="-303.5" font-family="Helvetica,sans-Serif" font-size="10.00">UNIT</text>
</a>
</g>
</g>
<!-- dir_6fc87decd8cffc07e5f49c197ca3de10&#45;&gt;dir_445738e6fed662d0b65e690e3f1e1de0 -->
<g id="edge5" class="edge"><title>dir_6fc87decd8cffc07e5f49c197ca3de10&#45;&gt;dir_445738e6fed662d0b65e690e3f1e1de0</title>
<path fill="none" stroke="black" d="M200.018,-287.809C205.989,-281.968 213.269,-275.93 220.972,-272 245.622,-259.423 319.279,-246.99 364.676,-240.222"/>
<polygon fill="black" stroke="black" points="365.348,-243.661 374.734,-238.746 364.331,-236.735 365.348,-243.661"/>
<g id="a_edge5&#45;headlabel"><a xlink:href="dir_000076_000066.xhtml" target="_top" xlink:title="1">
<text text-anchor="middle" x="362.204" y="-244.492" font-family="Helvetica,sans-Serif" font-size="10.00">1</text>
</a>
</g>
</g>
<!-- dir_6fc87decd8cffc07e5f49c197ca3de10&#45;&gt;dir_9e71e2da941d3cafc4d98a9f6ae3de4f -->
<g id="edge6" class="edge"><title>dir_6fc87decd8cffc07e5f49c197ca3de10&#45;&gt;dir_9e71e2da941d3cafc4d98a9f6ae3de4f</title>
<path fill="none" stroke="black" d="M165.562,-287.895C156.232,-278.374 146.003,-265.695 140.972,-252 133.701,-232.208 133.897,-208.229 135.666,-190.15"/>
<polygon fill="black" stroke="black" points="139.167,-190.35 136.881,-180.005 132.217,-189.518 139.167,-190.35"/>
<g id="a_edge6&#45;headlabel"><a xlink:href="dir_000076_000022.xhtml" target="_top" xlink:title="4">
<text text-anchor="middle" x="141.559" y="-191.757" font-family="Helvetica,sans-Serif" font-size="10.00">4</text>
</a>
</g>
</g>
<!-- dir_6fc87decd8cffc07e5f49c197ca3de10&#45;&gt;dir_214608ef36d61442cb2b0c1c4e9a7def -->
<g id="edge7" class="edge"><title>dir_6fc87decd8cffc07e5f49c197ca3de10&#45;&gt;dir_214608ef36d61442cb2b0c1c4e9a7def</title>
<path fill="none" stroke="black" d="M188.418,-287.849C195.872,-250.753 213.543,-162.81 222.526,-118.103"/>
<polygon fill="black" stroke="black" points="225.971,-118.726 224.51,-108.232 219.108,-117.347 225.971,-118.726"/>
<g id="a_edge7&#45;headlabel"><a xlink:href="dir_000076_000000.xhtml" target="_top" xlink:title="10">
<text text-anchor="middle" x="228.047" y="-120.309" font-family="Helvetica,sans-Serif" font-size="10.00">10</text>
</a>
</g>
</g>
<!-- dir_5815af820a9cc9481f1d0990a0d60286 -->
<g id="node10" class="node"><title>dir_5815af820a9cc9481f1d0990a0d60286</title>
<g id="a_node10"><a xlink:href="dir_5815af820a9cc9481f1d0990a0d60286.xhtml" target="_top" xlink:title="support">
<polygon fill="none" stroke="black" points="166.972,-36 112.972,-36 112.972,-0 166.972,-0 166.972,-36"/>
<text text-anchor="middle" x="139.972" y="-15.5" font-family="Helvetica,sans-Serif" font-size="10.00">support</text>
</a>
</g>
</g>
<!-- dir_6fc87decd8cffc07e5f49c197ca3de10&#45;&gt;dir_5815af820a9cc9481f1d0990a0d60286 -->
<g id="edge8" class="edge"><title>dir_6fc87decd8cffc07e5f49c197ca3de10&#45;&gt;dir_5815af820a9cc9481f1d0990a0d60286</title>
<path fill="none" stroke="black" d="M170.38,-287.943C164.357,-281.97 156.925,-275.809 148.972,-272 95.855,-246.556 56.3474,-296.679 17.9722,-252 -39.2146,-185.42 58.2557,-87.464 110.376,-42.7852"/>
<polygon fill="black" stroke="black" points="112.933,-45.2074 118.321,-36.0849 108.42,-39.8562 112.933,-45.2074"/>
<g id="a_edge8&#45;headlabel"><a xlink:href="dir_000076_000052.xhtml" target="_top" xlink:title="2">
<text text-anchor="middle" x="112.015" y="-47.1952" font-family="Helvetica,sans-Serif" font-size="10.00">2</text>
</a>
</g>
</g>
<!-- dir_46fdb196cebdbffe77dac340cde62f29&#45;&gt;dir_9e71e2da941d3cafc4d98a9f6ae3de4f -->
<g id="edge1" class="edge"><title>dir_46fdb196cebdbffe77dac340cde62f29&#45;&gt;dir_9e71e2da941d3cafc4d98a9f6ae3de4f</title>
<path fill="none" stroke="black" d="M78.2418,-215.697C88.4697,-206.965 101.033,-196.24 112.15,-186.75"/>
<polygon fill="black" stroke="black" points="114.602,-189.259 119.936,-180.104 110.058,-183.935 114.602,-189.259"/>
<g id="a_edge1&#45;headlabel"><a xlink:href="dir_000008_000022.xhtml" target="_top" xlink:title="3">
<text text-anchor="middle" x="113.712" y="-191.252" font-family="Helvetica,sans-Serif" font-size="10.00">3</text>
</a>
</g>
</g>
<!-- dir_46fdb196cebdbffe77dac340cde62f29&#45;&gt;dir_214608ef36d61442cb2b0c1c4e9a7def -->
<g id="edge2" class="edge"><title>dir_46fdb196cebdbffe77dac340cde62f29&#45;&gt;dir_214608ef36d61442cb2b0c1c4e9a7def</title>
<path fill="none" stroke="black" d="M61.4243,-215.682C66.2033,-195.909 76.6478,-163.752 96.9722,-144 118.579,-123.001 149.604,-109.952 176.037,-102.059"/>
<polygon fill="black" stroke="black" points="177.236,-105.357 185.914,-99.2798 175.34,-98.6189 177.236,-105.357"/>
<g id="a_edge2&#45;headlabel"><a xlink:href="dir_000008_000000.xhtml" target="_top" xlink:title="46">
<text text-anchor="middle" x="174.544" y="-106.564" font-family="Helvetica,sans-Serif" font-size="10.00">46</text>
</a>
</g>
</g>
<!-- dir_46fdb196cebdbffe77dac340cde62f29&#45;&gt;dir_5815af820a9cc9481f1d0990a0d60286 -->
<g id="edge3" class="edge"><title>dir_46fdb196cebdbffe77dac340cde62f29&#45;&gt;dir_5815af820a9cc9481f1d0990a0d60286</title>
<path fill="none" stroke="black" d="M58.3859,-215.841C59.2594,-197.596 61.9235,-168.105 69.9722,-144 82.2497,-107.229 105.524,-68.899 121.854,-44.5378"/>
<polygon fill="black" stroke="black" points="124.782,-46.4574 127.523,-36.2234 118.998,-42.514 124.782,-46.4574"/>
<g id="a_edge3&#45;headlabel"><a xlink:href="dir_000008_000052.xhtml" target="_top" xlink:title="1">
<text text-anchor="middle" x="125.103" y="-48.5268" font-family="Helvetica,sans-Serif" font-size="10.00">1</text>
</a>
</g>
</g>
<!-- dir_e31c3eb8a08c20d742288af67200e09f&#45;&gt;dir_214608ef36d61442cb2b0c1c4e9a7def -->
<g id="edge4" class="edge"><title>dir_e31c3eb8a08c20d742288af67200e09f&#45;&gt;dir_214608ef36d61442cb2b0c1c4e9a7def</title>
<path fill="none" stroke="black" d="M248.198,-215.871C244.278,-191.67 237.077,-147.211 232.409,-118.393"/>
<polygon fill="black" stroke="black" points="235.81,-117.501 230.756,-108.189 228.9,-118.62 235.81,-117.501"/>
<g id="a_edge4&#45;headlabel"><a xlink:href="dir_000070_000000.xhtml" target="_top" xlink:title="2">
<text text-anchor="middle" x="239.188" y="-118.095" font-family="Helvetica,sans-Serif" font-size="10.00">2</text>
</a>
</g>
</g>
<!-- dir_445738e6fed662d0b65e690e3f1e1de0&#45;&gt;dir_214608ef36d61442cb2b0c1c4e9a7def -->
<g id="edge9" class="edge"><title>dir_445738e6fed662d0b65e690e3f1e1de0&#45;&gt;dir_214608ef36d61442cb2b0c1c4e9a7def</title>
<path fill="none" stroke="black" d="M397.247,-215.681C391.035,-195.905 378.33,-163.747 356.972,-144 335.454,-124.105 305.447,-111.175 279.788,-103.071"/>
<polygon fill="black" stroke="black" points="280.778,-99.7138 270.194,-100.197 278.769,-106.419 280.778,-99.7138"/>
<g id="a_edge9&#45;headlabel"><a xlink:href="dir_000066_000000.xhtml" target="_top" xlink:title="6">
<text text-anchor="middle" x="285.036" y="-95.5253" font-family="Helvetica,sans-Serif" font-size="10.00">6</text>
</a>
</g>
</g>
<!-- dir_445738e6fed662d0b65e690e3f1e1de0&#45;&gt;dir_5815af820a9cc9481f1d0990a0d60286 -->
<g id="edge10" class="edge"><title>dir_445738e6fed662d0b65e690e3f1e1de0&#45;&gt;dir_5815af820a9cc9481f1d0990a0d60286</title>
<path fill="none" stroke="black" d="M402.217,-215.826C401.695,-196.766 398.415,-165.822 383.972,-144 335.998,-71.5109 232.289,-38.8315 176.786,-26.0541"/>
<polygon fill="black" stroke="black" points="177.527,-22.6335 167.008,-23.8948 176.018,-29.4688 177.527,-22.6335"/>
<g id="a_edge10&#45;headlabel"><a xlink:href="dir_000066_000052.xhtml" target="_top" xlink:title="1">
<text text-anchor="middle" x="181.65" y="-18.1361" font-family="Helvetica,sans-Serif" font-size="10.00">1</text>
</a>
</g>
</g>
<!-- dir_9e71e2da941d3cafc4d98a9f6ae3de4f&#45;&gt;dir_214608ef36d61442cb2b0c1c4e9a7def -->
<g id="edge11" class="edge"><title>dir_9e71e2da941d3cafc4d98a9f6ae3de4f&#45;&gt;dir_214608ef36d61442cb2b0c1c4e9a7def</title>
<path fill="none" stroke="black" d="M161.725,-143.697C172.808,-134.881 186.446,-124.032 198.462,-114.474"/>
<polygon fill="black" stroke="black" points="200.822,-117.069 206.47,-108.104 196.465,-111.59 200.822,-117.069"/>
<g id="a_edge11&#45;headlabel"><a xlink:href="dir_000022_000000.xhtml" target="_top" xlink:title="13">
<text text-anchor="middle" x="199.777" y="-119.028" font-family="Helvetica,sans-Serif" font-size="10.00">13</text>
</a>
</g>
</g>
<!-- dir_9e71e2da941d3cafc4d98a9f6ae3de4f&#45;&gt;dir_5815af820a9cc9481f1d0990a0d60286 -->
<g id="edge12" class="edge"><title>dir_9e71e2da941d3cafc4d98a9f6ae3de4f&#45;&gt;dir_5815af820a9cc9481f1d0990a0d60286</title>
<path fill="none" stroke="black" d="M139.972,-143.871C139.972,-119.67 139.972,-75.2108 139.972,-46.3932"/>
<polygon fill="black" stroke="black" points="143.472,-46.1892 139.972,-36.1893 136.472,-46.1893 143.472,-46.1892"/>
<g id="a_edge12&#45;headlabel"><a xlink:href="dir_000022_000052.xhtml" target="_top" xlink:title="8">
<text text-anchor="middle" x="146.311" y="-47.2839" font-family="Helvetica,sans-Serif" font-size="10.00">8</text>
</a>
</g>
</g>
<!-- dir_214608ef36d61442cb2b0c1c4e9a7def&#45;&gt;dir_5815af820a9cc9481f1d0990a0d60286 -->
<g id="edge17" class="edge"><title>dir_214608ef36d61442cb2b0c1c4e9a7def&#45;&gt;dir_5815af820a9cc9481f1d0990a0d60286</title>
<path fill="none" stroke="black" d="M206.219,-71.6966C195.137,-62.8807 181.498,-52.0321 169.483,-42.4742"/>
<polygon fill="black" stroke="black" points="171.48,-39.5905 161.475,-36.1043 167.122,-45.0687 171.48,-39.5905"/>
<g id="a_edge17&#45;headlabel"><a xlink:href="dir_000000_000052.xhtml" target="_top" xlink:title="20">
<text text-anchor="middle" x="176.06" y="-37.1062" font-family="Helvetica,sans-Serif" font-size="10.00">20</text>
</a>
</g>
</g>
</g>
</svg>
