<?xml version="1.0" encoding="UTF-8" standalone="no"?>
<!DOCTYPE svg PUBLIC "-//W3C//DTD SVG 1.1//EN"
 "http://www.w3.org/Graphics/SVG/1.1/DTD/svg11.dtd">
<!-- Generated by graphviz version 2.38.0 (20140413.2041)
 -->
<!-- Title: arm_compute/runtime/CL Pages: 1 -->
<svg width="182pt" height="231pt"
 viewBox="0.00 0.00 182.00 231.00" xmlns="http://www.w3.org/2000/svg" xmlns:xlink="http://www.w3.org/1999/xlink">
<g id="graph0" class="graph" transform="scale(1 1) rotate(0) translate(4 227)">
<title>arm_compute/runtime/CL</title>
<polygon fill="white" stroke="none" points="-4,4 -4,-227 178,-227 178,4 -4,4"/>
<g id="clust1" class="cluster"><title>clusterdir_8bc26130589aa16388b5a02f17abf2c2</title>
<g id="a_clust1"><a xlink:href="dir_8bc26130589aa16388b5a02f17abf2c2.xhtml" target="_top" xlink:title="runtime">
<polygon fill="#ddddee" stroke="black" points="8,-56 8,-215 166,-215 166,-56 8,-56"/>
<text text-anchor="middle" x="87" y="-203" font-family="Helvetica,sans-Serif" font-size="10.00">runtime</text>
</a>
</g>
</g>
<g id="clust2" class="cluster"><title>clusterdir_b986aa98f9b6490bb4fc7918500346fb</title>
<g id="a_clust2"><a xlink:href="dir_b986aa98f9b6490bb4fc7918500346fb.xhtml" target="_top">
<polygon fill="#eeeeff" stroke="black" points="16,-64 16,-188 158,-188 158,-64 16,-64"/>
</a>
</g>
</g>
<!-- dir_b986aa98f9b6490bb4fc7918500346fb -->
<g id="node1" class="node"><title>dir_b986aa98f9b6490bb4fc7918500346fb</title>
<text text-anchor="middle" x="123" y="-159.5" font-family="Helvetica,sans-Serif" font-size="10.00">CL</text>
</g>
<!-- dir_251c63bc3f70b60acf43edd6d870a3ef -->
<g id="node2" class="node"><title>dir_251c63bc3f70b60acf43edd6d870a3ef</title>
<g id="a_node2"><a xlink:href="dir_251c63bc3f70b60acf43edd6d870a3ef.xhtml" target="_top" xlink:title="functions">
<polygon fill="white" stroke="black" points="122,-108 62,-108 62,-72 122,-72 122,-108"/>
<text text-anchor="middle" x="92" y="-87.5" font-family="Helvetica,sans-Serif" font-size="10.00">functions</text>
</a>
</g>
</g>
<!-- dir_b986aa98f9b6490bb4fc7918500346fb&#45;&gt;dir_251c63bc3f70b60acf43edd6d870a3ef -->
<g id="edge2" class="edge"><title>dir_b986aa98f9b6490bb4fc7918500346fb&#45;&gt;dir_251c63bc3f70b60acf43edd6d870a3ef</title>
<path fill="none" stroke="black" d="M115.337,-143.697C111.808,-135.728 107.544,-126.1 103.631,-117.264"/>
<polygon fill="black" stroke="black" points="106.824,-115.831 99.5748,-108.104 100.424,-118.665 106.824,-115.831"/>
<g id="a_edge2&#45;headlabel"><a xlink:href="dir_000037_000038.xhtml" target="_top" xlink:title="90">
<text text-anchor="middle" x="110.876" y="-115.468" font-family="Helvetica,sans-Serif" font-size="10.00">90</text>
</a>
</g>
</g>
<!-- dir_1fb090f0c6070330bfaccc4236d3ca0d -->
<g id="node4" class="node"><title>dir_1fb090f0c6070330bfaccc4236d3ca0d</title>
<g id="a_node4"><a xlink:href="dir_1fb090f0c6070330bfaccc4236d3ca0d.xhtml" target="_top" xlink:title="core">
<polygon fill="white" stroke="red" points="148,-36 94,-36 94,-0 148,-0 148,-36"/>
<text text-anchor="middle" x="121" y="-15.5" font-family="Helvetica,sans-Serif" font-size="10.00">core</text>
</a>
</g>
</g>
<!-- dir_b986aa98f9b6490bb4fc7918500346fb&#45;&gt;dir_1fb090f0c6070330bfaccc4236d3ca0d -->
<g id="edge3" class="edge"><title>dir_b986aa98f9b6490bb4fc7918500346fb&#45;&gt;dir_1fb090f0c6070330bfaccc4236d3ca0d</title>
<path fill="none" stroke="black" d="M126.487,-143.843C130.22,-123.003 135.09,-86.8091 131,-56 130.562,-52.7019 129.914,-49.2807 129.154,-45.9102"/>
<polygon fill="black" stroke="black" points="132.518,-44.939 126.639,-36.1252 125.739,-46.6817 132.518,-44.939"/>
<g id="a_edge3&#45;headlabel"><a xlink:href="dir_000037_000001.xhtml" target="_top" xlink:title="205">
<text text-anchor="middle" x="136.163" y="-45.2137" font-family="Helvetica,sans-Serif" font-size="10.00">205</text>
</a>
</g>
</g>
<!-- dir_251c63bc3f70b60acf43edd6d870a3ef&#45;&gt;dir_1fb090f0c6070330bfaccc4236d3ca0d -->
<g id="edge1" class="edge"><title>dir_251c63bc3f70b60acf43edd6d870a3ef&#45;&gt;dir_1fb090f0c6070330bfaccc4236d3ca0d</title>
<path fill="none" stroke="black" d="M99.1685,-71.6966C102.435,-63.8132 106.374,-54.3042 110.002,-45.5464"/>
<polygon fill="black" stroke="black" points="113.32,-46.6825 113.914,-36.1043 106.853,-44.0033 113.32,-46.6825"/>
<g id="a_edge1&#45;headlabel"><a xlink:href="dir_000038_000001.xhtml" target="_top" xlink:title="166">
<text text-anchor="middle" x="114.567" y="-48.5901" font-family="Helvetica,sans-Serif" font-size="10.00">166</text>
</a>
</g>
</g>
<!-- dir_50b23570393db6a4ca8647d7d5ff6dbe -->
<g id="node3" class="node"><title>dir_50b23570393db6a4ca8647d7d5ff6dbe</title>
<g id="a_node3"><a xlink:href="dir_50b23570393db6a4ca8647d7d5ff6dbe.xhtml" target="_top" xlink:title="tuners">
<polygon fill="white" stroke="black" points="78,-180 24,-180 24,-144 78,-144 78,-180"/>
<text text-anchor="middle" x="51" y="-159.5" font-family="Helvetica,sans-Serif" font-size="10.00">tuners</text>
</a>
</g>
</g>
</g>
</svg>
