<?xml version="1.0" encoding="UTF-8" standalone="no"?>
<!DOCTYPE svg PUBLIC "-//W3C//DTD SVG 1.1//EN"
 "http://www.w3.org/Graphics/SVG/1.1/DTD/svg11.dtd">
<!-- Generated by graphviz version 2.38.0 (20140413.2041)
 -->
<!-- Title: Graphical Class Hierarchy Pages: 1 -->
<svg width="273pt" height="256pt"
 viewBox="0.00 0.00 273.00 256.00" xmlns="http://www.w3.org/2000/svg" xmlns:xlink="http://www.w3.org/1999/xlink">
<g id="graph0" class="graph" transform="scale(1 1) rotate(0) translate(4 252)">
<title>Graphical Class Hierarchy</title>
<polygon fill="white" stroke="none" points="-4,4 -4,-252 269,-252 269,4 -4,4"/>
<!-- Node1 -->
<g id="node1" class="node"><title>Node1</title>
<g id="a_node1"><a xlink:href="classarm__compute_1_1graph_1_1_i_tensor_accessor.xhtml" target="_top" xlink:title="Tensor accessor interface. ">
<polygon fill="white" stroke="black" points="0,-114.5 0,-133.5 93,-133.5 93,-114.5 0,-114.5"/>
<text text-anchor="middle" x="46.5" y="-121.5" font-family="Helvetica,sans-Serif" font-size="10.00">ITensorAccessor</text>
</a>
</g>
</g>
<!-- Node2 -->
<g id="node2" class="node"><title>Node2</title>
<g id="a_node2"><a xlink:href="classarm__compute_1_1graph__utils_1_1_dummy_accessor.xhtml" target="_top" xlink:title="Dummy accessor class. ">
<polygon fill="white" stroke="black" points="148,-228.5 148,-247.5 246,-247.5 246,-228.5 148,-228.5"/>
<text text-anchor="middle" x="197" y="-235.5" font-family="Helvetica,sans-Serif" font-size="10.00">DummyAccessor</text>
</a>
</g>
</g>
<!-- Node1&#45;&gt;Node2 -->
<g id="edge1" class="edge"><title>Node1&#45;&gt;Node2</title>
<path fill="none" stroke="midnightblue" d="M58.41,-142.273C72.1922,-163.79 97.9041,-199.111 129,-219 135.009,-222.844 141.808,-225.925 148.712,-228.391"/>
<polygon fill="midnightblue" stroke="midnightblue" points="61.3473,-140.368 53.0965,-133.722 55.4017,-144.063 61.3473,-140.368"/>
</g>
<!-- Node3 -->
<g id="node3" class="node"><title>Node3</title>
<g id="a_node3"><a xlink:href="classarm__compute_1_1graph__utils_1_1_num_py_accessor.xhtml" target="_top" xlink:title="NumPy accessor class. ">
<polygon fill="white" stroke="black" points="149.5,-190.5 149.5,-209.5 244.5,-209.5 244.5,-190.5 149.5,-190.5"/>
<text text-anchor="middle" x="197" y="-197.5" font-family="Helvetica,sans-Serif" font-size="10.00">NumPyAccessor</text>
</a>
</g>
</g>
<!-- Node1&#45;&gt;Node3 -->
<g id="edge2" class="edge"><title>Node1&#45;&gt;Node3</title>
<path fill="none" stroke="midnightblue" d="M66.562,-140.11C82.393,-152.781 105.97,-170.064 129,-181 136.864,-184.734 145.604,-187.871 154.106,-190.45"/>
<polygon fill="midnightblue" stroke="midnightblue" points="68.5741,-137.235 58.6165,-133.616 64.1438,-142.654 68.5741,-137.235"/>
</g>
<!-- Node4 -->
<g id="node4" class="node"><title>Node4</title>
<g id="a_node4"><a xlink:href="classarm__compute_1_1graph__utils_1_1_num_py_bin_loader.xhtml" target="_top" xlink:title="Numpy Binary loader class. ">
<polygon fill="white" stroke="black" points="147.5,-152.5 147.5,-171.5 246.5,-171.5 246.5,-152.5 147.5,-152.5"/>
<text text-anchor="middle" x="197" y="-159.5" font-family="Helvetica,sans-Serif" font-size="10.00">NumPyBinLoader</text>
</a>
</g>
</g>
<!-- Node1&#45;&gt;Node4 -->
<g id="edge3" class="edge"><title>Node1&#45;&gt;Node4</title>
<path fill="none" stroke="midnightblue" d="M94.8329,-136.112C115.515,-141.404 139.419,-147.521 158.797,-152.48"/>
<polygon fill="midnightblue" stroke="midnightblue" points="95.5284,-132.677 84.9728,-133.589 93.793,-139.459 95.5284,-132.677"/>
</g>
<!-- Node5 -->
<g id="node5" class="node"><title>Node5</title>
<g id="a_node5"><a xlink:href="classarm__compute_1_1graph__utils_1_1_p_p_m_accessor.xhtml" target="_top" xlink:title="PPM accessor class. ">
<polygon fill="white" stroke="black" points="157,-114.5 157,-133.5 237,-133.5 237,-114.5 157,-114.5"/>
<text text-anchor="middle" x="197" y="-121.5" font-family="Helvetica,sans-Serif" font-size="10.00">PPMAccessor</text>
</a>
</g>
</g>
<!-- Node1&#45;&gt;Node5 -->
<g id="edge4" class="edge"><title>Node1&#45;&gt;Node5</title>
<path fill="none" stroke="midnightblue" d="M103.486,-124C121.189,-124 140.369,-124 156.651,-124"/>
<polygon fill="midnightblue" stroke="midnightblue" points="103.267,-120.5 93.2666,-124 103.267,-127.5 103.267,-120.5"/>
</g>
<!-- Node6 -->
<g id="node6" class="node"><title>Node6</title>
<g id="a_node6"><a xlink:href="classarm__compute_1_1graph__utils_1_1_p_p_m_writer.xhtml" target="_top" xlink:title="PPM writer class. ">
<polygon fill="white" stroke="black" points="165,-76.5 165,-95.5 229,-95.5 229,-76.5 165,-76.5"/>
<text text-anchor="middle" x="197" y="-83.5" font-family="Helvetica,sans-Serif" font-size="10.00">PPMWriter</text>
</a>
</g>
</g>
<!-- Node1&#45;&gt;Node6 -->
<g id="edge5" class="edge"><title>Node1&#45;&gt;Node6</title>
<path fill="none" stroke="midnightblue" d="M94.8007,-111.896C117.594,-106.063 144.308,-99.2277 164.564,-94.0443"/>
<polygon fill="midnightblue" stroke="midnightblue" points="93.793,-108.541 84.9728,-114.411 95.5284,-115.323 93.793,-108.541"/>
</g>
<!-- Node7 -->
<g id="node7" class="node"><title>Node7</title>
<g id="a_node7"><a xlink:href="classarm__compute_1_1graph__utils_1_1_random_accessor.xhtml" target="_top" xlink:title="Random accessor class. ">
<polygon fill="white" stroke="black" points="147,-38.5 147,-57.5 247,-57.5 247,-38.5 147,-38.5"/>
<text text-anchor="middle" x="197" y="-45.5" font-family="Helvetica,sans-Serif" font-size="10.00">RandomAccessor</text>
</a>
</g>
</g>
<!-- Node1&#45;&gt;Node7 -->
<g id="edge6" class="edge"><title>Node1&#45;&gt;Node7</title>
<path fill="none" stroke="midnightblue" d="M66.562,-107.89C82.393,-95.2191 105.97,-77.9359 129,-67 136.864,-63.266 145.604,-60.1294 154.106,-57.5496"/>
<polygon fill="midnightblue" stroke="midnightblue" points="64.1438,-105.346 58.6165,-114.384 68.5741,-110.765 64.1438,-105.346"/>
</g>
<!-- Node8 -->
<g id="node8" class="node"><title>Node8</title>
<g id="a_node8"><a xlink:href="classarm__compute_1_1graph__utils_1_1_top_n_predictions_accessor.xhtml" target="_top" xlink:title="Result accessor class. ">
<polygon fill="white" stroke="black" points="129,-0.5 129,-19.5 265,-19.5 265,-0.5 129,-0.5"/>
<text text-anchor="middle" x="197" y="-7.5" font-family="Helvetica,sans-Serif" font-size="10.00">TopNPredictionsAccessor</text>
</a>
</g>
</g>
<!-- Node1&#45;&gt;Node8 -->
<g id="edge7" class="edge"><title>Node1&#45;&gt;Node8</title>
<path fill="none" stroke="midnightblue" d="M58.41,-105.727C72.1922,-84.2099 97.9041,-48.8891 129,-29 135.009,-25.1564 141.808,-22.0752 148.712,-19.6092"/>
<polygon fill="midnightblue" stroke="midnightblue" points="55.4017,-103.937 53.0965,-114.278 61.3473,-107.632 55.4017,-103.937"/>
</g>
</g>
</svg>
