<?xml version="1.0" encoding="UTF-8" standalone="no"?>
<!DOCTYPE svg PUBLIC "-//W3C//DTD SVG 1.1//EN"
 "http://www.w3.org/Graphics/SVG/1.1/DTD/svg11.dtd">
<!-- Generated by graphviz version 2.38.0 (20140413.2041)
 -->
<!-- Title: ICLSimple3DKernel Pages: 1 -->
<svg width="111pt" height="252pt"
 viewBox="0.00 0.00 111.00 252.00" xmlns="http://www.w3.org/2000/svg" xmlns:xlink="http://www.w3.org/1999/xlink">
<g id="graph0" class="graph" transform="scale(1 1) rotate(0) translate(4 248)">
<title>ICLSimple3DKernel</title>
<polygon fill="white" stroke="none" points="-4,4 -4,-248 107,-248 107,4 -4,4"/>
<!-- Node1 -->
<g id="node1" class="node"><title>Node1</title>
<polygon fill="#bfbfbf" stroke="black" points="0,-0.5 0,-19.5 103,-19.5 103,-0.5 0,-0.5"/>
<text text-anchor="middle" x="51.5" y="-7.5" font-family="Helvetica" font-size="10.00">ICLSimple3DKernel</text>
</g>
<!-- Node2 -->
<g id="node2" class="node"><title>Node2</title>
<g id="a_node2"><a xlink:href="classarm__compute_1_1_i_c_l_simple2_d_kernel.xhtml" target="_top" xlink:title="Interface for simple OpenCL kernels having 1 tensor input and 1 tensor output. ">
<polygon fill="white" stroke="black" points="0,-56.5 0,-75.5 103,-75.5 103,-56.5 0,-56.5"/>
<text text-anchor="middle" x="51.5" y="-63.5" font-family="Helvetica" font-size="10.00">ICLSimple2DKernel</text>
</a>
</g>
</g>
<!-- Node2&#45;&gt;Node1 -->
<g id="edge1" class="edge"><title>Node2&#45;&gt;Node1</title>
<path fill="none" stroke="midnightblue" d="M51.5,-45.8045C51.5,-36.9102 51.5,-26.7798 51.5,-19.7511"/>
<polygon fill="midnightblue" stroke="midnightblue" points="48.0001,-46.083 51.5,-56.083 55.0001,-46.083 48.0001,-46.083"/>
</g>
<!-- Node3 -->
<g id="node3" class="node"><title>Node3</title>
<g id="a_node3"><a xlink:href="classarm__compute_1_1_i_c_l_simple_kernel.xhtml" target="_top" xlink:title="Interface for simple OpenCL kernels having 1 tensor input and 1 tensor output. ">
<polygon fill="white" stroke="black" points="6.5,-112.5 6.5,-131.5 96.5,-131.5 96.5,-112.5 6.5,-112.5"/>
<text text-anchor="middle" x="51.5" y="-119.5" font-family="Helvetica" font-size="10.00">ICLSimpleKernel</text>
</a>
</g>
</g>
<!-- Node3&#45;&gt;Node2 -->
<g id="edge2" class="edge"><title>Node3&#45;&gt;Node2</title>
<path fill="none" stroke="midnightblue" d="M51.5,-101.805C51.5,-92.9102 51.5,-82.7798 51.5,-75.7511"/>
<polygon fill="midnightblue" stroke="midnightblue" points="48.0001,-102.083 51.5,-112.083 55.0001,-102.083 48.0001,-102.083"/>
</g>
<!-- Node4 -->
<g id="node4" class="node"><title>Node4</title>
<g id="a_node4"><a xlink:href="classarm__compute_1_1_i_c_l_kernel.xhtml" target="_top" xlink:title="Common interface for all the OpenCL kernels. ">
<polygon fill="white" stroke="black" points="21.5,-168.5 21.5,-187.5 81.5,-187.5 81.5,-168.5 21.5,-168.5"/>
<text text-anchor="middle" x="51.5" y="-175.5" font-family="Helvetica" font-size="10.00">ICLKernel</text>
</a>
</g>
</g>
<!-- Node4&#45;&gt;Node3 -->
<g id="edge3" class="edge"><title>Node4&#45;&gt;Node3</title>
<path fill="none" stroke="midnightblue" d="M51.5,-157.805C51.5,-148.91 51.5,-138.78 51.5,-131.751"/>
<polygon fill="midnightblue" stroke="midnightblue" points="48.0001,-158.083 51.5,-168.083 55.0001,-158.083 48.0001,-158.083"/>
</g>
<!-- Node5 -->
<g id="node5" class="node"><title>Node5</title>
<g id="a_node5"><a xlink:href="classarm__compute_1_1_i_kernel.xhtml" target="_top" xlink:title="Common information for all the kernels. ">
<polygon fill="white" stroke="black" points="28,-224.5 28,-243.5 75,-243.5 75,-224.5 28,-224.5"/>
<text text-anchor="middle" x="51.5" y="-231.5" font-family="Helvetica" font-size="10.00">IKernel</text>
</a>
</g>
</g>
<!-- Node5&#45;&gt;Node4 -->
<g id="edge4" class="edge"><title>Node5&#45;&gt;Node4</title>
<path fill="none" stroke="midnightblue" d="M51.5,-213.805C51.5,-204.91 51.5,-194.78 51.5,-187.751"/>
<polygon fill="midnightblue" stroke="midnightblue" points="48.0001,-214.083 51.5,-224.083 55.0001,-214.083 48.0001,-214.083"/>
</g>
</g>
</svg>
