<?xml version="1.0" encoding="UTF-8" standalone="no"?>
<!DOCTYPE svg PUBLIC "-//W3C//DTD SVG 1.1//EN"
 "http://www.w3.org/Graphics/SVG/1.1/DTD/svg11.dtd">
<!-- Generated by graphviz version 2.38.0 (20140413.2041)
 -->
<!-- Title: tests/datasets/system_tests/googlenet Pages: 1 -->
<svg width="284pt" height="231pt"
 viewBox="0.00 0.00 284.00 231.00" xmlns="http://www.w3.org/2000/svg" xmlns:xlink="http://www.w3.org/1999/xlink">
<g id="graph0" class="graph" transform="scale(1 1) rotate(0) translate(4 227)">
<title>tests/datasets/system_tests/googlenet</title>
<polygon fill="white" stroke="none" points="-4,4 -4,-227 280,-227 280,4 -4,4"/>
<g id="clust1" class="cluster"><title>clusterdir_b9fb8daeb083a5130f1d5fcf4bdfd80d</title>
<g id="a_clust1"><a xlink:href="dir_b9fb8daeb083a5130f1d5fcf4bdfd80d.xhtml" target="_top" xlink:title="system_tests">
<polygon fill="#ddddee" stroke="black" points="8,-128 8,-215 268,-215 268,-128 8,-128"/>
<text text-anchor="middle" x="138" y="-203" font-family="Helvetica" font-size="10.00">system_tests</text>
</a>
</g>
</g>
<g id="clust2" class="cluster"><title>clusterdir_44b30e996f654eed35b3a72ffd5c8c5c</title>
<g id="a_clust2"><a xlink:href="dir_44b30e996f654eed35b3a72ffd5c8c5c.xhtml" target="_top">
<polygon fill="#eeeeff" stroke="black" points="16,-136 16,-188 260,-188 260,-136 16,-136"/>
</a>
</g>
</g>
<!-- dir_44b30e996f654eed35b3a72ffd5c8c5c -->
<g id="node1" class="node"><title>dir_44b30e996f654eed35b3a72ffd5c8c5c</title>
<text text-anchor="middle" x="222" y="-159.5" font-family="Helvetica" font-size="10.00">googlenet</text>
</g>
<!-- dir_39483a2d5df071945d2db412f3ea747c -->
<g id="node2" class="node"><title>dir_39483a2d5df071945d2db412f3ea747c</title>
<g id="a_node2"><a xlink:href="dir_39483a2d5df071945d2db412f3ea747c.xhtml" target="_top" xlink:title="inceptionv1">
<polygon fill="white" stroke="black" points="90,-180 24,-180 24,-144 90,-144 90,-180"/>
<text text-anchor="middle" x="57" y="-159.5" font-family="Helvetica" font-size="10.00">inceptionv1</text>
</a>
</g>
</g>
<!-- dir_29327135a2a2ef098aeaaf2df19d2f1d -->
<g id="node4" class="node"><title>dir_29327135a2a2ef098aeaaf2df19d2f1d</title>
<g id="a_node4"><a xlink:href="dir_29327135a2a2ef098aeaaf2df19d2f1d.xhtml" target="_top" xlink:title="utils">
<polygon fill="none" stroke="black" points="88,-108 34,-108 34,-72 88,-72 88,-108"/>
<text text-anchor="middle" x="61" y="-87.5" font-family="Helvetica" font-size="10.00">utils</text>
</a>
</g>
</g>
<!-- dir_39483a2d5df071945d2db412f3ea747c&#45;&gt;dir_29327135a2a2ef098aeaaf2df19d2f1d -->
<g id="edge6" class="edge"><title>dir_39483a2d5df071945d2db412f3ea747c&#45;&gt;dir_29327135a2a2ef098aeaaf2df19d2f1d</title>
<path fill="none" stroke="black" d="M57.9888,-143.697C58.4296,-135.983 58.9593,-126.712 59.4507,-118.112"/>
<polygon fill="black" stroke="black" points="62.9463,-118.288 60.0226,-108.104 55.9577,-117.888 62.9463,-118.288"/>
<g id="a_edge6&#45;headlabel"><a xlink:href="dir_000054_000022.xhtml" target="_top" xlink:title="6">
<text text-anchor="middle" x="65.576" y="-119.538" font-family="Helvetica" font-size="10.00">6</text>
</a>
</g>
</g>
<!-- dir_d4d363c0979c7ffda4833df3f93b5668 -->
<g id="node5" class="node"><title>dir_d4d363c0979c7ffda4833df3f93b5668</title>
<g id="a_node5"><a xlink:href="dir_d4d363c0979c7ffda4833df3f93b5668.xhtml" target="_top" xlink:title="arm_compute">
<polygon fill="white" stroke="red" points="137,-36 61,-36 61,-0 137,-0 137,-36"/>
<text text-anchor="middle" x="99" y="-15.5" font-family="Helvetica" font-size="10.00">arm_compute</text>
</a>
</g>
</g>
<!-- dir_39483a2d5df071945d2db412f3ea747c&#45;&gt;dir_d4d363c0979c7ffda4833df3f93b5668 -->
<g id="edge7" class="edge"><title>dir_39483a2d5df071945d2db412f3ea747c&#45;&gt;dir_d4d363c0979c7ffda4833df3f93b5668</title>
<path fill="none" stroke="black" d="M42.5562,-143.722C29.0861,-125.378 12.7684,-95.8057 25,-72 31.2729,-59.7914 41.808,-49.766 52.9909,-41.8478"/>
<polygon fill="black" stroke="black" points="55.162,-44.6097 61.609,-36.2022 51.3261,-38.7543 55.162,-44.6097"/>
<g id="a_edge7&#45;headlabel"><a xlink:href="dir_000054_000000.xhtml" target="_top" xlink:title="11">
<text text-anchor="middle" x="53.711" y="-46.4545" font-family="Helvetica" font-size="10.00">11</text>
</a>
</g>
</g>
<!-- dir_2dd0e1a78595595cf02ec0d9123d5f3a -->
<g id="node6" class="node"><title>dir_2dd0e1a78595595cf02ec0d9123d5f3a</title>
<g id="a_node6"><a xlink:href="dir_2dd0e1a78595595cf02ec0d9123d5f3a.xhtml" target="_top" xlink:title="framework">
<polygon fill="white" stroke="red" points="168,-108 106,-108 106,-72 168,-72 168,-108"/>
<text text-anchor="middle" x="137" y="-87.5" font-family="Helvetica" font-size="10.00">framework</text>
</a>
</g>
</g>
<!-- dir_39483a2d5df071945d2db412f3ea747c&#45;&gt;dir_2dd0e1a78595595cf02ec0d9123d5f3a -->
<g id="edge8" class="edge"><title>dir_39483a2d5df071945d2db412f3ea747c&#45;&gt;dir_2dd0e1a78595595cf02ec0d9123d5f3a</title>
<path fill="none" stroke="black" d="M76.7753,-143.697C86.7537,-134.965 99.0109,-124.24 109.857,-114.75"/>
<polygon fill="black" stroke="black" points="112.231,-117.323 117.452,-108.104 107.622,-112.055 112.231,-117.323"/>
<g id="a_edge8&#45;headlabel"><a xlink:href="dir_000054_000020.xhtml" target="_top" xlink:title="2">
<text text-anchor="middle" x="111.396" y="-119.327" font-family="Helvetica" font-size="10.00">2</text>
</a>
</g>
</g>
<!-- dir_245cff7a20508c5adf0eef06cf65e1c3 -->
<g id="node3" class="node"><title>dir_245cff7a20508c5adf0eef06cf65e1c3</title>
<g id="a_node3"><a xlink:href="dir_245cff7a20508c5adf0eef06cf65e1c3.xhtml" target="_top" xlink:title="inceptionv4">
<polygon fill="white" stroke="black" points="174,-180 108,-180 108,-144 174,-144 174,-180"/>
<text text-anchor="middle" x="141" y="-159.5" font-family="Helvetica" font-size="10.00">inceptionv4</text>
</a>
</g>
</g>
<!-- dir_245cff7a20508c5adf0eef06cf65e1c3&#45;&gt;dir_29327135a2a2ef098aeaaf2df19d2f1d -->
<g id="edge3" class="edge"><title>dir_245cff7a20508c5adf0eef06cf65e1c3&#45;&gt;dir_29327135a2a2ef098aeaaf2df19d2f1d</title>
<path fill="none" stroke="black" d="M121.225,-143.697C111.246,-134.965 98.9891,-124.24 88.1432,-114.75"/>
<polygon fill="black" stroke="black" points="90.3784,-112.055 80.5478,-108.104 85.7688,-117.323 90.3784,-112.055"/>
<g id="a_edge3&#45;headlabel"><a xlink:href="dir_000055_000022.xhtml" target="_top" xlink:title="5">
<text text-anchor="middle" x="94.9532" y="-109.786" font-family="Helvetica" font-size="10.00">5</text>
</a>
</g>
</g>
<!-- dir_245cff7a20508c5adf0eef06cf65e1c3&#45;&gt;dir_d4d363c0979c7ffda4833df3f93b5668 -->
<g id="edge4" class="edge"><title>dir_245cff7a20508c5adf0eef06cf65e1c3&#45;&gt;dir_d4d363c0979c7ffda4833df3f93b5668</title>
<path fill="none" stroke="black" d="M156.835,-143.803C171.643,-125.526 189.714,-96.0098 177,-72 170.028,-58.8335 158.157,-48.3305 145.75,-40.2613"/>
<polygon fill="black" stroke="black" points="147.5,-37.2292 137.129,-35.0608 143.884,-43.2231 147.5,-37.2292"/>
<g id="a_edge4&#45;headlabel"><a xlink:href="dir_000055_000000.xhtml" target="_top" xlink:title="10">
<text text-anchor="middle" x="152.044" y="-34.1547" font-family="Helvetica" font-size="10.00">10</text>
</a>
</g>
</g>
<!-- dir_245cff7a20508c5adf0eef06cf65e1c3&#45;&gt;dir_2dd0e1a78595595cf02ec0d9123d5f3a -->
<g id="edge5" class="edge"><title>dir_245cff7a20508c5adf0eef06cf65e1c3&#45;&gt;dir_2dd0e1a78595595cf02ec0d9123d5f3a</title>
<path fill="none" stroke="black" d="M140.011,-143.697C139.57,-135.983 139.041,-126.712 138.549,-118.112"/>
<polygon fill="black" stroke="black" points="142.042,-117.888 137.977,-108.104 135.054,-118.288 142.042,-117.888"/>
<g id="a_edge5&#45;headlabel"><a xlink:href="dir_000055_000020.xhtml" target="_top" xlink:title="1">
<text text-anchor="middle" x="145.082" y="-118.815" font-family="Helvetica" font-size="10.00">1</text>
</a>
</g>
</g>
<!-- dir_29327135a2a2ef098aeaaf2df19d2f1d&#45;&gt;dir_d4d363c0979c7ffda4833df3f93b5668 -->
<g id="edge1" class="edge"><title>dir_29327135a2a2ef098aeaaf2df19d2f1d&#45;&gt;dir_d4d363c0979c7ffda4833df3f93b5668</title>
<path fill="none" stroke="black" d="M70.3933,-71.6966C74.7649,-63.6436 80.0573,-53.8945 84.8953,-44.9824"/>
<polygon fill="black" stroke="black" points="88.0198,-46.5627 89.7148,-36.1043 81.8678,-43.223 88.0198,-46.5627"/>
<g id="a_edge1&#45;headlabel"><a xlink:href="dir_000022_000000.xhtml" target="_top" xlink:title="12">
<text text-anchor="middle" x="88.8002" y="-48.5764" font-family="Helvetica" font-size="10.00">12</text>
</a>
</g>
</g>
<!-- dir_2dd0e1a78595595cf02ec0d9123d5f3a&#45;&gt;dir_d4d363c0979c7ffda4833df3f93b5668 -->
<g id="edge2" class="edge"><title>dir_2dd0e1a78595595cf02ec0d9123d5f3a&#45;&gt;dir_d4d363c0979c7ffda4833df3f93b5668</title>
<path fill="none" stroke="black" d="M127.607,-71.6966C123.235,-63.6436 117.943,-53.8945 113.105,-44.9824"/>
<polygon fill="black" stroke="black" points="116.132,-43.223 108.285,-36.1043 109.98,-46.5627 116.132,-43.223"/>
<g id="a_edge2&#45;headlabel"><a xlink:href="dir_000020_000000.xhtml" target="_top" xlink:title="1">
<text text-anchor="middle" x="120.342" y="-42.5276" font-family="Helvetica" font-size="10.00">1</text>
</a>
</g>
</g>
</g>
</svg>
