<?xml version="1.0" encoding="UTF-8" standalone="no"?>
<!DOCTYPE svg PUBLIC "-//W3C//DTD SVG 1.1//EN"
 "http://www.w3.org/Graphics/SVG/1.1/DTD/svg11.dtd">
<!-- Generated by graphviz version 2.38.0 (20140413.2041)
 -->
<!-- Title: arm_compute/core/NEON/kernels/assembly/kernels Pages: 1 -->
<svg width="334pt" height="111pt"
 viewBox="0.00 0.00 334.00 111.00" xmlns="http://www.w3.org/2000/svg" xmlns:xlink="http://www.w3.org/1999/xlink">
<g id="graph0" class="graph" transform="scale(1 1) rotate(0) translate(4 107)">
<title>arm_compute/core/NEON/kernels/assembly/kernels</title>
<polygon fill="white" stroke="none" points="-4,4 -4,-107 330,-107 330,4 -4,4"/>
<g id="clust1" class="cluster"><title>clusterdir_de5c25a0a26af4ac1cdfe0fae1db6671</title>
<g id="a_clust1"><a xlink:href="dir_de5c25a0a26af4ac1cdfe0fae1db6671.xhtml" target="_top" xlink:title="assembly">
<polygon fill="#ddddee" stroke="black" points="8,-8 8,-95 318,-95 318,-8 8,-8"/>
<text text-anchor="middle" x="163" y="-83" font-family="Helvetica" font-size="10.00">assembly</text>
</a>
</g>
</g>
<g id="clust2" class="cluster"><title>clusterdir_2a71d41a0578a3ab28811897b4713112</title>
<g id="a_clust2"><a xlink:href="dir_2a71d41a0578a3ab28811897b4713112.xhtml" target="_top">
<polygon fill="#eeeeff" stroke="black" points="16,-16 16,-68 310,-68 310,-16 16,-16"/>
</a>
</g>
</g>
<!-- dir_2a71d41a0578a3ab28811897b4713112 -->
<g id="node1" class="node"><title>dir_2a71d41a0578a3ab28811897b4713112</title>
<text text-anchor="middle" x="275" y="-39.5" font-family="Helvetica" font-size="10.00">kernels</text>
</g>
<!-- dir_f6f8c5419486b5044a62bf7e8849acdb -->
<g id="node2" class="node"><title>dir_f6f8c5419486b5044a62bf7e8849acdb</title>
<g id="a_node2"><a xlink:href="dir_f6f8c5419486b5044a62bf7e8849acdb.xhtml" target="_top" xlink:title="a32_sgemm_8x6">
<polygon fill="white" stroke="black" points="229.5,-60 138.5,-60 138.5,-24 229.5,-24 229.5,-60"/>
<text text-anchor="middle" x="184" y="-39.5" font-family="Helvetica" font-size="10.00">a32_sgemm_8x6</text>
</a>
</g>
</g>
<!-- dir_cb46ed42275bf053bc487c8ce92df255 -->
<g id="node3" class="node"><title>dir_cb46ed42275bf053bc487c8ce92df255</title>
<g id="a_node3"><a xlink:href="dir_cb46ed42275bf053bc487c8ce92df255.xhtml" target="_top" xlink:title="a64_sgemm_12x8">
<polygon fill="white" stroke="black" points="120,-60 24,-60 24,-24 120,-24 120,-60"/>
<text text-anchor="middle" x="72" y="-39.5" font-family="Helvetica" font-size="10.00">a64_sgemm_12x8</text>
</a>
</g>
</g>
</g>
</svg>
