<?xml version="1.0" encoding="UTF-8" standalone="no"?>
<!DOCTYPE svg PUBLIC "-//W3C//DTD SVG 1.1//EN"
 "http://www.w3.org/Graphics/SVG/1.1/DTD/svg11.dtd">
<!-- Generated by graphviz version 2.38.0 (20140413.2041)
 -->
<!-- Title: NEReshapeLayerKernel Pages: 1 -->
<svg width="130pt" height="196pt"
 viewBox="0.00 0.00 130.00 196.00" xmlns="http://www.w3.org/2000/svg" xmlns:xlink="http://www.w3.org/1999/xlink">
<g id="graph0" class="graph" transform="scale(1 1) rotate(0) translate(4 192)">
<title>NEReshapeLayerKernel</title>
<polygon fill="white" stroke="none" points="-4,4 -4,-192 126,-192 126,4 -4,4"/>
<!-- Node1 -->
<g id="node1" class="node"><title>Node1</title>
<polygon fill="#bfbfbf" stroke="black" points="0,-0.5 0,-19.5 122,-19.5 122,-0.5 0,-0.5"/>
<text text-anchor="middle" x="61" y="-7.5" font-family="Helvetica" font-size="10.00">NEReshapeLayerKernel</text>
</g>
<!-- Node2 -->
<g id="node2" class="node"><title>Node2</title>
<g id="a_node2"><a xlink:href="classarm__compute_1_1_i_c_p_p_simple_kernel.xhtml" target="_top" xlink:title="Interface for simple NEON kernels having 1 tensor input and 1 tensor output. ">
<polygon fill="white" stroke="black" points="15,-56.5 15,-75.5 107,-75.5 107,-56.5 15,-56.5"/>
<text text-anchor="middle" x="61" y="-63.5" font-family="Helvetica" font-size="10.00">INESimpleKernel</text>
</a>
</g>
</g>
<!-- Node2&#45;&gt;Node1 -->
<g id="edge1" class="edge"><title>Node2&#45;&gt;Node1</title>
<path fill="none" stroke="midnightblue" d="M61,-45.8045C61,-36.9102 61,-26.7798 61,-19.7511"/>
<polygon fill="midnightblue" stroke="midnightblue" points="57.5001,-46.083 61,-56.083 64.5001,-46.083 57.5001,-46.083"/>
</g>
<!-- Node3 -->
<g id="node3" class="node"><title>Node3</title>
<g id="a_node3"><a xlink:href="classarm__compute_1_1_i_c_p_p_kernel.xhtml" target="_top" xlink:title="Common interface for all kernels implemented in C++. ">
<polygon fill="white" stroke="black" points="27,-112.5 27,-131.5 95,-131.5 95,-112.5 27,-112.5"/>
<text text-anchor="middle" x="61" y="-119.5" font-family="Helvetica" font-size="10.00">ICPPKernel</text>
</a>
</g>
</g>
<!-- Node3&#45;&gt;Node2 -->
<g id="edge2" class="edge"><title>Node3&#45;&gt;Node2</title>
<path fill="none" stroke="midnightblue" d="M61,-101.805C61,-92.9102 61,-82.7798 61,-75.7511"/>
<polygon fill="midnightblue" stroke="midnightblue" points="57.5001,-102.083 61,-112.083 64.5001,-102.083 57.5001,-102.083"/>
</g>
<!-- Node4 -->
<g id="node4" class="node"><title>Node4</title>
<g id="a_node4"><a xlink:href="classarm__compute_1_1_i_kernel.xhtml" target="_top" xlink:title="Common information for all the kernels. ">
<polygon fill="white" stroke="black" points="37.5,-168.5 37.5,-187.5 84.5,-187.5 84.5,-168.5 37.5,-168.5"/>
<text text-anchor="middle" x="61" y="-175.5" font-family="Helvetica" font-size="10.00">IKernel</text>
</a>
</g>
</g>
<!-- Node4&#45;&gt;Node3 -->
<g id="edge3" class="edge"><title>Node4&#45;&gt;Node3</title>
<path fill="none" stroke="midnightblue" d="M61,-157.805C61,-148.91 61,-138.78 61,-131.751"/>
<polygon fill="midnightblue" stroke="midnightblue" points="57.5001,-158.083 61,-168.083 64.5001,-158.083 57.5001,-158.083"/>
</g>
</g>
</svg>
