<?xml version="1.0" encoding="UTF-8" standalone="no"?>
<!DOCTYPE svg PUBLIC "-//W3C//DTD SVG 1.1//EN"
 "http://www.w3.org/Graphics/SVG/1.1/DTD/svg11.dtd">
<!-- Generated by graphviz version 2.38.0 (20140413.2041)
 -->
<!-- Title: Graphical Class Hierarchy Pages: 1 -->
<svg width="213pt" height="332pt"
 viewBox="0.00 0.00 213.00 332.00" xmlns="http://www.w3.org/2000/svg" xmlns:xlink="http://www.w3.org/1999/xlink">
<g id="graph0" class="graph" transform="scale(1 1) rotate(0) translate(4 328)">
<title>Graphical Class Hierarchy</title>
<polygon fill="white" stroke="none" points="-4,4 -4,-328 209,-328 209,4 -4,4"/>
<!-- Node1 -->
<g id="node1" class="node"><title>Node1</title>
<g id="a_node1"><a xlink:href="classarm__compute_1_1graph_1_1_i_node.xhtml" target="_top" xlink:title="Node interface. ">
<polygon fill="white" stroke="black" points="0,-152.5 0,-171.5 43,-171.5 43,-152.5 0,-152.5"/>
<text text-anchor="middle" x="21.5" y="-159.5" font-family="Helvetica" font-size="10.00">INode</text>
</a>
</g>
</g>
<!-- Node2 -->
<g id="node2" class="node"><title>Node2</title>
<g id="a_node2"><a xlink:href="classarm__compute_1_1graph_1_1_activation_layer.xhtml" target="_top" xlink:title="Activation Layer node. ">
<polygon fill="white" stroke="black" points="100,-304.5 100,-323.5 184,-323.5 184,-304.5 100,-304.5"/>
<text text-anchor="middle" x="142" y="-311.5" font-family="Helvetica" font-size="10.00">ActivationLayer</text>
</a>
</g>
</g>
<!-- Node1&#45;&gt;Node2 -->
<g id="edge1" class="edge"><title>Node1&#45;&gt;Node2</title>
<path fill="none" stroke="midnightblue" d="M25.5214,-181.744C30.9907,-210.721 45.2652,-264.614 79,-295 84.9391,-300.35 92.3528,-304.193 99.9665,-306.955"/>
<polygon fill="midnightblue" stroke="midnightblue" points="28.9272,-180.897 23.7839,-171.634 22.0284,-182.083 28.9272,-180.897"/>
</g>
<!-- Node3 -->
<g id="node3" class="node"><title>Node3</title>
<g id="a_node3"><a xlink:href="classarm__compute_1_1graph_1_1_batch_normalization_layer.xhtml" target="_top" xlink:title="BatchNormalization layer node. ">
<polygon fill="white" stroke="black" points="79,-266.5 79,-285.5 205,-285.5 205,-266.5 79,-266.5"/>
<text text-anchor="middle" x="142" y="-273.5" font-family="Helvetica" font-size="10.00">BatchNormalizationLayer</text>
</a>
</g>
</g>
<!-- Node1&#45;&gt;Node3 -->
<g id="edge2" class="edge"><title>Node1&#45;&gt;Node3</title>
<path fill="none" stroke="midnightblue" d="M29.1278,-181.356C37.4691,-202.884 53.8258,-237.227 79,-257 83.9579,-260.894 89.7136,-263.994 95.6807,-266.46"/>
<polygon fill="midnightblue" stroke="midnightblue" points="32.3076,-179.861 25.5826,-171.674 25.7344,-182.268 32.3076,-179.861"/>
</g>
<!-- Node4 -->
<g id="node4" class="node"><title>Node4</title>
<g id="a_node4"><a xlink:href="classarm__compute_1_1graph_1_1_convolution_layer.xhtml" target="_top" xlink:title="Convolution layer node. ">
<polygon fill="white" stroke="black" points="96,-228.5 96,-247.5 188,-247.5 188,-228.5 96,-228.5"/>
<text text-anchor="middle" x="142" y="-235.5" font-family="Helvetica" font-size="10.00">ConvolutionLayer</text>
</a>
</g>
</g>
<!-- Node1&#45;&gt;Node4 -->
<g id="edge3" class="edge"><title>Node1&#45;&gt;Node4</title>
<path fill="none" stroke="midnightblue" d="M35.8391,-179.489C46.3158,-192.117 61.947,-208.695 79,-219 85.3593,-222.843 92.5605,-225.967 99.7469,-228.488"/>
<polygon fill="midnightblue" stroke="midnightblue" points="38.4335,-177.13 29.4553,-171.504 32.9659,-181.501 38.4335,-177.13"/>
</g>
<!-- Node5 -->
<g id="node5" class="node"><title>Node5</title>
<g id="a_node5"><a xlink:href="classarm__compute_1_1graph_1_1_floor_layer.xhtml" target="_top" xlink:title="Floor layer node. ">
<polygon fill="white" stroke="black" points="111,-190.5 111,-209.5 173,-209.5 173,-190.5 111,-190.5"/>
<text text-anchor="middle" x="142" y="-197.5" font-family="Helvetica" font-size="10.00">FloorLayer</text>
</a>
</g>
</g>
<!-- Node1&#45;&gt;Node5 -->
<g id="edge4" class="edge"><title>Node1&#45;&gt;Node5</title>
<path fill="none" stroke="midnightblue" d="M52.6612,-172.311C61.1637,-175.171 70.4312,-178.247 79,-181 89.3968,-184.341 100.816,-187.877 110.99,-190.982"/>
<polygon fill="midnightblue" stroke="midnightblue" points="53.7133,-168.972 43.119,-169.083 51.4702,-175.603 53.7133,-168.972"/>
</g>
<!-- Node6 -->
<g id="node6" class="node"><title>Node6</title>
<g id="a_node6"><a xlink:href="classarm__compute_1_1graph_1_1_fully_connected_layer.xhtml" target="_top" xlink:title="Fully connected layer node. ">
<polygon fill="white" stroke="black" points="87.5,-152.5 87.5,-171.5 196.5,-171.5 196.5,-152.5 87.5,-152.5"/>
<text text-anchor="middle" x="142" y="-159.5" font-family="Helvetica" font-size="10.00">FullyConnectedLayer</text>
</a>
</g>
</g>
<!-- Node1&#45;&gt;Node6 -->
<g id="edge5" class="edge"><title>Node1&#45;&gt;Node6</title>
<path fill="none" stroke="midnightblue" d="M53.3332,-162C63.7163,-162 75.6249,-162 87.2488,-162"/>
<polygon fill="midnightblue" stroke="midnightblue" points="53.1412,-158.5 43.1411,-162 53.1411,-165.5 53.1412,-158.5"/>
</g>
<!-- Node7 -->
<g id="node7" class="node"><title>Node7</title>
<g id="a_node7"><a xlink:href="classarm__compute_1_1graph_1_1_l2_normalize_layer.xhtml" target="_top" xlink:title="L2Normalize layer node. ">
<polygon fill="white" stroke="black" points="94.5,-114.5 94.5,-133.5 189.5,-133.5 189.5,-114.5 94.5,-114.5"/>
<text text-anchor="middle" x="142" y="-121.5" font-family="Helvetica" font-size="10.00">L2NormalizeLayer</text>
</a>
</g>
</g>
<!-- Node1&#45;&gt;Node7 -->
<g id="edge6" class="edge"><title>Node1&#45;&gt;Node7</title>
<path fill="none" stroke="midnightblue" d="M52.6612,-151.689C61.1637,-148.829 70.4312,-145.753 79,-143 88.8608,-139.832 99.6415,-136.487 109.407,-133.501"/>
<polygon fill="midnightblue" stroke="midnightblue" points="51.4702,-148.397 43.119,-154.917 53.7133,-155.028 51.4702,-148.397"/>
</g>
<!-- Node8 -->
<g id="node8" class="node"><title>Node8</title>
<g id="a_node8"><a xlink:href="classarm__compute_1_1graph_1_1_normalization_layer.xhtml" target="_top" xlink:title="Normalization layer node. ">
<polygon fill="white" stroke="black" points="91.5,-76.5 91.5,-95.5 192.5,-95.5 192.5,-76.5 91.5,-76.5"/>
<text text-anchor="middle" x="142" y="-83.5" font-family="Helvetica" font-size="10.00">NormalizationLayer</text>
</a>
</g>
</g>
<!-- Node1&#45;&gt;Node8 -->
<g id="edge7" class="edge"><title>Node1&#45;&gt;Node8</title>
<path fill="none" stroke="midnightblue" d="M35.8391,-144.511C46.3158,-131.883 61.947,-115.305 79,-105 85.3593,-101.157 92.5605,-98.0327 99.7469,-95.5119"/>
<polygon fill="midnightblue" stroke="midnightblue" points="32.9659,-142.499 29.4553,-152.496 38.4335,-146.87 32.9659,-142.499"/>
</g>
<!-- Node9 -->
<g id="node9" class="node"><title>Node9</title>
<g id="a_node9"><a xlink:href="classarm__compute_1_1graph_1_1_pooling_layer.xhtml" target="_top" xlink:title="Pooling layer node. ">
<polygon fill="white" stroke="black" points="105.5,-38.5 105.5,-57.5 178.5,-57.5 178.5,-38.5 105.5,-38.5"/>
<text text-anchor="middle" x="142" y="-45.5" font-family="Helvetica" font-size="10.00">PoolingLayer</text>
</a>
</g>
</g>
<!-- Node1&#45;&gt;Node9 -->
<g id="edge8" class="edge"><title>Node1&#45;&gt;Node9</title>
<path fill="none" stroke="midnightblue" d="M29.1278,-142.644C37.4691,-121.116 53.8258,-86.7733 79,-67 86.614,-61.0195 96.1093,-56.913 105.363,-54.0962"/>
<polygon fill="midnightblue" stroke="midnightblue" points="25.7344,-141.732 25.5826,-152.326 32.3076,-144.139 25.7344,-141.732"/>
</g>
<!-- Node10 -->
<g id="node10" class="node"><title>Node10</title>
<g id="a_node10"><a xlink:href="classarm__compute_1_1graph_1_1_softmax_layer.xhtml" target="_top" xlink:title="Softmax layer node. ">
<polygon fill="white" stroke="black" points="103.5,-0.5 103.5,-19.5 180.5,-19.5 180.5,-0.5 103.5,-0.5"/>
<text text-anchor="middle" x="142" y="-7.5" font-family="Helvetica" font-size="10.00">SoftmaxLayer</text>
</a>
</g>
</g>
<!-- Node1&#45;&gt;Node10 -->
<g id="edge9" class="edge"><title>Node1&#45;&gt;Node10</title>
<path fill="none" stroke="midnightblue" d="M25.5214,-142.256C30.9907,-113.279 45.2652,-59.3864 79,-29 85.7756,-22.897 94.4705,-18.7538 103.192,-15.9414"/>
<polygon fill="midnightblue" stroke="midnightblue" points="22.0284,-141.917 23.7839,-152.366 28.9272,-143.103 22.0284,-141.917"/>
</g>
</g>
</svg>
