<?xml version="1.0" encoding="UTF-8" standalone="no"?>
<!DOCTYPE svg PUBLIC "-//W3C//DTD SVG 1.1//EN"
 "http://www.w3.org/Graphics/SVG/1.1/DTD/svg11.dtd">
<!-- Generated by graphviz version 2.40.1 (20161225.0304)
 -->
<!-- Title: CpuTransposeKernel Pages: 1 -->
<svg width="251pt" height="277pt"
 viewBox="0.00 0.00 251.00 277.00" xmlns="http://www.w3.org/2000/svg" xmlns:xlink="http://www.w3.org/1999/xlink">
<g id="graph0" class="graph" transform="scale(1 1) rotate(0) translate(4 273)">
<title>CpuTransposeKernel</title>
<polygon fill="#ffffff" stroke="transparent" points="-4,4 -4,-273 247,-273 247,4 -4,4"/>
<!-- Node0 -->
<g id="node1" class="node">
<title>Node0</title>
<polygon fill="#bfbfbf" stroke="#000000" points="16.5,-.5 16.5,-19.5 131.5,-19.5 131.5,-.5 16.5,-.5"/>
<text text-anchor="middle" x="74" y="-7.5" font-family="Helvetica,sans-Serif" font-size="10.00" fill="#000000">CpuTransposeKernel</text>
</g>
<!-- Node1 -->
<g id="node2" class="node">
<title>Node1</title>
<g id="a_node2"><a xlink:href="classarm__compute_1_1cpu_1_1_i_cpu_kernel.xhtml" target="_top" xlink:title="ICpuKernel\&lt; CpuTranspose\lKernel \&gt;">
<polygon fill="#ffffff" stroke="#000000" points="0,-57.5 0,-87.5 148,-87.5 148,-57.5 0,-57.5"/>
<text text-anchor="start" x="8" y="-75.5" font-family="Helvetica,sans-Serif" font-size="10.00" fill="#000000">ICpuKernel&lt; CpuTranspose</text>
<text text-anchor="middle" x="74" y="-64.5" font-family="Helvetica,sans-Serif" font-size="10.00" fill="#000000">Kernel &gt;</text>
</a>
</g>
</g>
<!-- Node1&#45;&gt;Node0 -->
<g id="edge1" class="edge">
<title>Node1&#45;&gt;Node0</title>
<path fill="none" stroke="#191970" d="M74,-47.3498C74,-37.6481 74,-27.1303 74,-19.7356"/>
<polygon fill="#191970" stroke="#191970" points="70.5001,-47.3705 74,-57.3705 77.5001,-47.3705 70.5001,-47.3705"/>
</g>
<!-- Node2 -->
<g id="node3" class="node">
<title>Node2</title>
<g id="a_node3"><a xlink:href="classarm__compute_1_1_i_c_p_p_kernel.xhtml" target="_top" xlink:title="Common interface for all kernels implemented in C++. ">
<polygon fill="#ffffff" stroke="#000000" points="35.5,-192.5 35.5,-211.5 104.5,-211.5 104.5,-192.5 35.5,-192.5"/>
<text text-anchor="middle" x="70" y="-199.5" font-family="Helvetica,sans-Serif" font-size="10.00" fill="#000000">ICPPKernel</text>
</a>
</g>
</g>
<!-- Node2&#45;&gt;Node1 -->
<g id="edge2" class="edge">
<title>Node2&#45;&gt;Node1</title>
<path fill="none" stroke="#191970" d="M70.6141,-182.1183C71.4157,-156.1655 72.8017,-111.2948 73.5268,-87.8199"/>
<polygon fill="#191970" stroke="#191970" points="67.1111,-182.1631 70.3007,-192.2665 74.1078,-182.3793 67.1111,-182.1631"/>
</g>
<!-- Node4 -->
<g id="node5" class="node">
<title>Node4</title>
<g id="a_node5"><a xlink:href="classarm__compute_1_1cpu_1_1_i_cpu_kernel.xhtml" target="_top" xlink:title="ICpuKernel\&lt; Derived \&gt;">
<polygon fill="#ffffff" stroke="#000000" points="86,-135.5 86,-154.5 216,-154.5 216,-135.5 86,-135.5"/>
<text text-anchor="middle" x="151" y="-142.5" font-family="Helvetica,sans-Serif" font-size="10.00" fill="#000000">ICpuKernel&lt; Derived &gt;</text>
</a>
</g>
</g>
<!-- Node2&#45;&gt;Node4 -->
<g id="edge5" class="edge">
<title>Node2&#45;&gt;Node4</title>
<path fill="none" stroke="#191970" d="M92.1611,-186.4052C106.6542,-176.2063 125.1194,-163.2123 137.4624,-154.5265"/>
<polygon fill="#191970" stroke="#191970" points="89.9044,-183.7134 83.7405,-192.3307 93.9329,-189.4381 89.9044,-183.7134"/>
</g>
<!-- Node3 -->
<g id="node4" class="node">
<title>Node3</title>
<g id="a_node4"><a xlink:href="classarm__compute_1_1_i_kernel.xhtml" target="_top" xlink:title="Common information for all the kernels. ">
<polygon fill="#ffffff" stroke="#000000" points="45,-249.5 45,-268.5 95,-268.5 95,-249.5 45,-249.5"/>
<text text-anchor="middle" x="70" y="-256.5" font-family="Helvetica,sans-Serif" font-size="10.00" fill="#000000">IKernel</text>
</a>
</g>
</g>
<!-- Node3&#45;&gt;Node2 -->
<g id="edge3" class="edge">
<title>Node3&#45;&gt;Node2</title>
<path fill="none" stroke="#191970" d="M70,-239.2342C70,-229.8491 70,-219.0651 70,-211.5265"/>
<polygon fill="#191970" stroke="#191970" points="66.5001,-239.3307 70,-249.3307 73.5001,-239.3308 66.5001,-239.3307"/>
</g>
<!-- Node4&#45;&gt;Node1 -->
<g id="edge4" class="edge">
<title>Node4&#45;&gt;Node1</title>
<path fill="none" stroke="#ffa500" stroke-dasharray="5,2" d="M133.1808,-128.2222C120.1767,-115.9781 102.6963,-99.5193 90.1095,-87.668"/>
<polygon fill="#ffa500" stroke="#ffa500" points="130.9355,-130.9154 140.6154,-135.2223 135.7341,-125.819 130.9355,-130.9154"/>
<text text-anchor="middle" x="181" y="-109" font-family="Helvetica,sans-Serif" font-size="10.00" fill="#000000"> &lt; CpuTransposeKernel &gt;</text>
</g>
</g>
</svg>
