<?xml version="1.0" encoding="UTF-8" standalone="no"?>
<!DOCTYPE svg PUBLIC "-//W3C//DTD SVG 1.1//EN"
 "http://www.w3.org/Graphics/SVG/1.1/DTD/svg11.dtd">
<!-- Generated by graphviz version 2.40.1 (20161225.0304)
 -->
<!-- Title: ClConvertFullyConnectedWeightsKernel Pages: 1 -->
<svg width="186pt" height="151pt"
 viewBox="0.00 0.00 186.00 151.00" xmlns="http://www.w3.org/2000/svg" xmlns:xlink="http://www.w3.org/1999/xlink">
<g id="graph0" class="graph" transform="scale(1 1) rotate(0) translate(4 147)">
<title>ClConvertFullyConnectedWeightsKernel</title>
<polygon fill="#ffffff" stroke="transparent" points="-4,4 -4,-147 182,-147 182,4 -4,4"/>
<!-- Node0 -->
<g id="node1" class="node">
<title>Node0</title>
<polygon fill="#bfbfbf" stroke="#000000" points="0,-.5 0,-30.5 178,-30.5 178,-.5 0,-.5"/>
<text text-anchor="start" x="8" y="-18.5" font-family="Helvetica,sans-Serif" font-size="10.00" fill="#000000">ClConvertFullyConnectedWeights</text>
<text text-anchor="middle" x="89" y="-7.5" font-family="Helvetica,sans-Serif" font-size="10.00" fill="#000000">Kernel</text>
</g>
<!-- Node1 -->
<g id="node2" class="node">
<title>Node1</title>
<g id="a_node2"><a xlink:href="classarm__compute_1_1_i_c_l_kernel.xhtml" target="_top" xlink:title="Common interface for all the OpenCL kernels. ">
<polygon fill="#ffffff" stroke="#000000" points="59,-67.5 59,-86.5 119,-86.5 119,-67.5 59,-67.5"/>
<text text-anchor="middle" x="89" y="-74.5" font-family="Helvetica,sans-Serif" font-size="10.00" fill="#000000">IClKernel</text>
</a>
</g>
</g>
<!-- Node1&#45;&gt;Node0 -->
<g id="edge1" class="edge">
<title>Node1&#45;&gt;Node0</title>
<path fill="none" stroke="#191970" d="M89,-57.3693C89,-48.681 89,-38.6241 89,-30.5446"/>
<polygon fill="#191970" stroke="#191970" points="85.5001,-57.3906 89,-67.3906 92.5001,-57.3907 85.5001,-57.3906"/>
</g>
<!-- Node2 -->
<g id="node3" class="node">
<title>Node2</title>
<g id="a_node3"><a xlink:href="classarm__compute_1_1_i_kernel.xhtml" target="_top" xlink:title="Common information for all the kernels. ">
<polygon fill="#ffffff" stroke="#000000" points="64,-123.5 64,-142.5 114,-142.5 114,-123.5 64,-123.5"/>
<text text-anchor="middle" x="89" y="-130.5" font-family="Helvetica,sans-Serif" font-size="10.00" fill="#000000">IKernel</text>
</a>
</g>
</g>
<!-- Node2&#45;&gt;Node1 -->
<g id="edge2" class="edge">
<title>Node2&#45;&gt;Node1</title>
<path fill="none" stroke="#191970" d="M89,-113.1575C89,-104.155 89,-93.9199 89,-86.6427"/>
<polygon fill="#191970" stroke="#191970" points="85.5001,-113.2455 89,-123.2455 92.5001,-113.2456 85.5001,-113.2455"/>
</g>
</g>
</svg>
