<?xml version="1.0" encoding="UTF-8" standalone="no"?>
<!DOCTYPE svg PUBLIC "-//W3C//DTD SVG 1.1//EN"
 "http://www.w3.org/Graphics/SVG/1.1/DTD/svg11.dtd">
<!-- Generated by graphviz version 2.40.1 (20161225.0304)
 -->
<!-- Title: arm_compute/dynamic_fusion/sketch/gpu/operators Pages: 1 -->
<svg width="118pt" height="223pt"
 viewBox="0.00 0.00 118.00 223.00" xmlns="http://www.w3.org/2000/svg" xmlns:xlink="http://www.w3.org/1999/xlink">
<g id="graph0" class="graph" transform="scale(1 1) rotate(0) translate(4 219)">
<title>arm_compute/dynamic_fusion/sketch/gpu/operators</title>
<polygon fill="#ffffff" stroke="transparent" points="-4,4 -4,-219 114,-219 114,4 -4,4"/>
<g id="clust1" class="cluster">
<title>clusterdir_14626d6ef94760c2ad0cd0335cce44ee</title>
<g id="a_clust1"><a xlink:href="dir_14626d6ef94760c2ad0cd0335cce44ee.xhtml" target="_top" xlink:title="gpu">
<polygon fill="#ddddee" stroke="#000000" points="22,-136 22,-207 102,-207 102,-136 22,-136"/>
<text text-anchor="middle" x="62" y="-195" font-family="Helvetica,sans-Serif" font-size="10.00" fill="#000000">gpu</text>
</a>
</g>
</g>
<!-- dir_2d04589ec4a450f8bb275c6c932eac90 -->
<g id="node1" class="node">
<title>dir_2d04589ec4a450f8bb275c6c932eac90</title>
<g id="a_node1"><a xlink:href="dir_2d04589ec4a450f8bb275c6c932eac90.xhtml" target="_top" xlink:title="operators">
<polygon fill="#eeeeff" stroke="#000000" points="93.5,-180 30.5,-180 30.5,-144 93.5,-144 93.5,-180"/>
<text text-anchor="middle" x="62" y="-159.5" font-family="Helvetica,sans-Serif" font-size="10.00" fill="#000000">operators</text>
</a>
</g>
</g>
<!-- dir_fb60af501ba790f5a2523771a799cc00 -->
<g id="node2" class="node">
<title>dir_fb60af501ba790f5a2523771a799cc00</title>
<g id="a_node2"><a xlink:href="dir_fb60af501ba790f5a2523771a799cc00.xhtml" target="_top" xlink:title="attributes">
<polygon fill="none" stroke="#000000" points="64,-108 0,-108 0,-72 64,-72 64,-108"/>
<text text-anchor="middle" x="32" y="-87.5" font-family="Helvetica,sans-Serif" font-size="10.00" fill="#000000">attributes</text>
</a>
</g>
</g>
<!-- dir_2d04589ec4a450f8bb275c6c932eac90&#45;&gt;dir_fb60af501ba790f5a2523771a799cc00 -->
<g id="edge2" class="edge">
<title>dir_2d04589ec4a450f8bb275c6c932eac90&#45;&gt;dir_fb60af501ba790f5a2523771a799cc00</title>
<path fill="none" stroke="#000000" d="M54.4297,-143.8314C51.1507,-135.9617 47.238,-126.5712 43.6055,-117.8533"/>
<polygon fill="#000000" stroke="#000000" points="46.7492,-116.2979 39.6722,-108.4133 40.2876,-118.9902 46.7492,-116.2979"/>
<g id="a_edge2&#45;headlabel"><a xlink:href="dir_000058_000056.xhtml" target="_top" xlink:title="8">
<text text-anchor="middle" x="50.7525" y="-116.024" font-family="Helvetica,sans-Serif" font-size="10.00" fill="#000000">8</text>
</a>
</g>
</g>
<!-- dir_1fb090f0c6070330bfaccc4236d3ca0d -->
<g id="node3" class="node">
<title>dir_1fb090f0c6070330bfaccc4236d3ca0d</title>
<g id="a_node3"><a xlink:href="dir_1fb090f0c6070330bfaccc4236d3ca0d.xhtml" target="_top" xlink:title="core">
<polygon fill="#ffffff" stroke="#ff0000" points="89,-36 35,-36 35,0 89,0 89,-36"/>
<text text-anchor="middle" x="62" y="-15.5" font-family="Helvetica,sans-Serif" font-size="10.00" fill="#000000">core</text>
</a>
</g>
</g>
<!-- dir_2d04589ec4a450f8bb275c6c932eac90&#45;&gt;dir_1fb090f0c6070330bfaccc4236d3ca0d -->
<g id="edge3" class="edge">
<title>dir_2d04589ec4a450f8bb275c6c932eac90&#45;&gt;dir_1fb090f0c6070330bfaccc4236d3ca0d</title>
<path fill="none" stroke="#000000" d="M66.6934,-143.6463C69.1071,-133.2631 71.7908,-119.9943 73,-108 74.6049,-92.0807 74.6049,-87.9193 73,-72 72.1498,-63.5665 70.5706,-54.5029 68.8689,-46.2554"/>
<polygon fill="#000000" stroke="#000000" points="72.2578,-45.3697 66.6934,-36.3537 65.4209,-46.8719 72.2578,-45.3697"/>
<g id="a_edge3&#45;headlabel"><a xlink:href="dir_000058_000001.xhtml" target="_top" xlink:title="7">
<text text-anchor="middle" x="75.8023" y="-45.7713" font-family="Helvetica,sans-Serif" font-size="10.00" fill="#000000">7</text>
</a>
</g>
</g>
<!-- dir_fb60af501ba790f5a2523771a799cc00&#45;&gt;dir_1fb090f0c6070330bfaccc4236d3ca0d -->
<g id="edge1" class="edge">
<title>dir_fb60af501ba790f5a2523771a799cc00&#45;&gt;dir_1fb090f0c6070330bfaccc4236d3ca0d</title>
<path fill="none" stroke="#000000" d="M39.5703,-71.8314C42.8493,-63.9617 46.762,-54.5712 50.3945,-45.8533"/>
<polygon fill="#000000" stroke="#000000" points="53.7124,-46.9902 54.3278,-36.4133 47.2508,-44.2979 53.7124,-46.9902"/>
<g id="a_edge1&#45;headlabel"><a xlink:href="dir_000056_000001.xhtml" target="_top" xlink:title="10">
<text text-anchor="middle" x="54.9507" y="-48.9003" font-family="Helvetica,sans-Serif" font-size="10.00" fill="#000000">10</text>
</a>
</g>
</g>
</g>
</svg>
