<?xml version="1.0" encoding="UTF-8" standalone="no"?>
<!DOCTYPE svg PUBLIC "-//W3C//DTD SVG 1.1//EN"
 "http://www.w3.org/Graphics/SVG/1.1/DTD/svg11.dtd">
<!-- Generated by graphviz version 2.40.1 (20161225.0304)
 -->
<!-- Title: src/runtime/heuristics Pages: 1 -->
<svg width="402pt" height="231pt"
 viewBox="0.00 0.00 402.00 231.00" xmlns="http://www.w3.org/2000/svg" xmlns:xlink="http://www.w3.org/1999/xlink">
<g id="graph0" class="graph" transform="scale(1 1) rotate(0) translate(4 227)">
<title>src/runtime/heuristics</title>
<polygon fill="#ffffff" stroke="transparent" points="-4,4 -4,-227 398,-227 398,4 -4,4"/>
<g id="clust1" class="cluster">
<title>clusterdir_bf9f26469d00835ba20ff8d80ee5a804</title>
<g id="a_clust1"><a xlink:href="dir_bf9f26469d00835ba20ff8d80ee5a804.xhtml" target="_top" xlink:title="runtime">
<polygon fill="#ddddee" stroke="#000000" points="8,-128 8,-215 386,-215 386,-128 8,-128"/>
<text text-anchor="middle" x="197" y="-203" font-family="Helvetica,sans-Serif" font-size="10.00" fill="#000000">runtime</text>
</a>
</g>
</g>
<g id="clust2" class="cluster">
<title>clusterdir_3fe890f1593b95fd486bc879bbb074a9</title>
<g id="a_clust2"><a xlink:href="dir_3fe890f1593b95fd486bc879bbb074a9.xhtml" target="_top">
<polygon fill="#eeeeff" stroke="#000000" points="16,-136 16,-188 378,-188 378,-136 16,-136"/>
</a>
</g>
</g>
<!-- dir_3fe890f1593b95fd486bc879bbb074a9 -->
<g id="node1" class="node">
<title>dir_3fe890f1593b95fd486bc879bbb074a9</title>
<text text-anchor="middle" x="338" y="-159.5" font-family="Helvetica,sans-Serif" font-size="10.00" fill="#000000">heuristics</text>
</g>
<!-- dir_17d7fb3aad810e16f6b9be69bd45b018 -->
<g id="node2" class="node">
<title>dir_17d7fb3aad810e16f6b9be69bd45b018</title>
<g id="a_node2"><a xlink:href="dir_17d7fb3aad810e16f6b9be69bd45b018.xhtml" target="_top" xlink:title="direct_conv">
<polygon fill="#ffffff" stroke="#000000" points="97.5,-180 24.5,-180 24.5,-144 97.5,-144 97.5,-180"/>
<text text-anchor="middle" x="61" y="-159.5" font-family="Helvetica,sans-Serif" font-size="10.00" fill="#000000">direct_conv</text>
</a>
</g>
</g>
<!-- dir_214608ef36d61442cb2b0c1c4e9a7def -->
<g id="node5" class="node">
<title>dir_214608ef36d61442cb2b0c1c4e9a7def</title>
<g id="a_node5"><a xlink:href="dir_214608ef36d61442cb2b0c1c4e9a7def.xhtml" target="_top" xlink:title="arm_compute">
<polygon fill="#ffffff" stroke="#ff0000" points="212,-36 128,-36 128,0 212,0 212,-36"/>
<text text-anchor="middle" x="170" y="-15.5" font-family="Helvetica,sans-Serif" font-size="10.00" fill="#000000">arm_compute</text>
</a>
</g>
</g>
<!-- dir_17d7fb3aad810e16f6b9be69bd45b018&#45;&gt;dir_214608ef36d61442cb2b0c1c4e9a7def -->
<g id="edge5" class="edge">
<title>dir_17d7fb3aad810e16f6b9be69bd45b018&#45;&gt;dir_214608ef36d61442cb2b0c1c4e9a7def</title>
<path fill="none" stroke="#000000" d="M67.793,-143.892C75.4895,-124.8104 89.298,-94.4666 107,-72 115.4419,-61.2859 126.2577,-51.11 136.5364,-42.5399"/>
<polygon fill="#000000" stroke="#000000" points="139.0208,-45.0328 144.609,-36.0315 134.6272,-39.5833 139.0208,-45.0328"/>
<g id="a_edge5&#45;headlabel"><a xlink:href="dir_000512_000000.xhtml" target="_top" xlink:title="15">
<text text-anchor="middle" x="138.0045" y="-46.9993" font-family="Helvetica,sans-Serif" font-size="10.00" fill="#000000">15</text>
</a>
</g>
</g>
<!-- dir_aebb8dcc11953d78e620bbef0b9e2183 -->
<g id="node6" class="node">
<title>dir_aebb8dcc11953d78e620bbef0b9e2183</title>
<g id="a_node6"><a xlink:href="dir_aebb8dcc11953d78e620bbef0b9e2183.xhtml" target="_top" xlink:title="core">
<polygon fill="#ffffff" stroke="#ff0000" points="170,-108 116,-108 116,-72 170,-72 170,-108"/>
<text text-anchor="middle" x="143" y="-87.5" font-family="Helvetica,sans-Serif" font-size="10.00" fill="#000000">core</text>
</a>
</g>
</g>
<!-- dir_17d7fb3aad810e16f6b9be69bd45b018&#45;&gt;dir_aebb8dcc11953d78e620bbef0b9e2183 -->
<g id="edge6" class="edge">
<title>dir_17d7fb3aad810e16f6b9be69bd45b018&#45;&gt;dir_aebb8dcc11953d78e620bbef0b9e2183</title>
<path fill="none" stroke="#000000" d="M81.6921,-143.8314C91.6948,-135.0485 103.855,-124.3712 114.6999,-114.8489"/>
<polygon fill="#000000" stroke="#000000" points="117.1094,-117.3909 122.3146,-108.1628 112.4908,-112.1308 117.1094,-117.3909"/>
<g id="a_edge6&#45;headlabel"><a xlink:href="dir_000512_000020.xhtml" target="_top" xlink:title="1">
<text text-anchor="middle" x="116.2817" y="-119.3962" font-family="Helvetica,sans-Serif" font-size="10.00" fill="#000000">1</text>
</a>
</g>
</g>
<!-- dir_83429f93dea60637d792bd9c83cdfabf -->
<g id="node3" class="node">
<title>dir_83429f93dea60637d792bd9c83cdfabf</title>
<g id="a_node3"><a xlink:href="dir_83429f93dea60637d792bd9c83cdfabf.xhtml" target="_top" xlink:title="dwc_native">
<polygon fill="#ffffff" stroke="#000000" points="188,-180 116,-180 116,-144 188,-144 188,-180"/>
<text text-anchor="middle" x="152" y="-159.5" font-family="Helvetica,sans-Serif" font-size="10.00" fill="#000000">dwc_native</text>
</a>
</g>
</g>
<!-- dir_83429f93dea60637d792bd9c83cdfabf&#45;&gt;dir_214608ef36d61442cb2b0c1c4e9a7def -->
<g id="edge3" class="edge">
<title>dir_83429f93dea60637d792bd9c83cdfabf&#45;&gt;dir_214608ef36d61442cb2b0c1c4e9a7def</title>
<path fill="none" stroke="#000000" d="M163.7508,-143.8241C169.5858,-133.7142 176.0139,-120.6495 179,-108 183.8254,-87.5592 181.152,-63.9105 177.4982,-45.9856"/>
<polygon fill="#000000" stroke="#000000" points="180.8968,-45.1459 175.2829,-36.1606 174.0682,-46.6856 180.8968,-45.1459"/>
<g id="a_edge3&#45;headlabel"><a xlink:href="dir_000513_000000.xhtml" target="_top" xlink:title="14">
<text text-anchor="middle" x="184.4571" y="-45.528" font-family="Helvetica,sans-Serif" font-size="10.00" fill="#000000">14</text>
</a>
</g>
</g>
<!-- dir_83429f93dea60637d792bd9c83cdfabf&#45;&gt;dir_aebb8dcc11953d78e620bbef0b9e2183 -->
<g id="edge4" class="edge">
<title>dir_83429f93dea60637d792bd9c83cdfabf&#45;&gt;dir_aebb8dcc11953d78e620bbef0b9e2183</title>
<path fill="none" stroke="#000000" d="M149.7289,-143.8314C148.7664,-136.131 147.6218,-126.9743 146.5521,-118.4166"/>
<polygon fill="#000000" stroke="#000000" points="150.0151,-117.9019 145.3017,-108.4133 143.0691,-118.7702 150.0151,-117.9019"/>
<g id="a_edge4&#45;headlabel"><a xlink:href="dir_000513_000020.xhtml" target="_top" xlink:title="1">
<text text-anchor="middle" x="153.2782" y="-118.6166" font-family="Helvetica,sans-Serif" font-size="10.00" fill="#000000">1</text>
</a>
</g>
</g>
<!-- dir_add9b9f075221f89da3d954275376ce7 -->
<g id="node4" class="node">
<title>dir_add9b9f075221f89da3d954275376ce7</title>
<g id="a_node4"><a xlink:href="dir_add9b9f075221f89da3d954275376ce7.xhtml" target="_top" xlink:title="indirect_conv">
<polygon fill="#ffffff" stroke="#000000" points="288,-180 206,-180 206,-144 288,-144 288,-180"/>
<text text-anchor="middle" x="247" y="-159.5" font-family="Helvetica,sans-Serif" font-size="10.00" fill="#000000">indirect_conv</text>
</a>
</g>
</g>
<!-- dir_add9b9f075221f89da3d954275376ce7&#45;&gt;dir_214608ef36d61442cb2b0c1c4e9a7def -->
<g id="edge1" class="edge">
<title>dir_add9b9f075221f89da3d954275376ce7&#45;&gt;dir_214608ef36d61442cb2b0c1c4e9a7def</title>
<path fill="none" stroke="#000000" d="M237.2479,-143.7623C223.9409,-118.8764 199.9884,-74.0822 184.5533,-45.2165"/>
<polygon fill="#000000" stroke="#000000" points="187.4748,-43.2577 179.6729,-36.0896 181.3019,-46.5585 187.4748,-43.2577"/>
<g id="a_edge1&#45;headlabel"><a xlink:href="dir_000514_000000.xhtml" target="_top" xlink:title="8">
<text text-anchor="middle" x="191.6736" y="-42.5887" font-family="Helvetica,sans-Serif" font-size="10.00" fill="#000000">8</text>
</a>
</g>
</g>
<!-- dir_add9b9f075221f89da3d954275376ce7&#45;&gt;dir_aebb8dcc11953d78e620bbef0b9e2183 -->
<g id="edge2" class="edge">
<title>dir_add9b9f075221f89da3d954275376ce7&#45;&gt;dir_aebb8dcc11953d78e620bbef0b9e2183</title>
<path fill="none" stroke="#000000" d="M220.7564,-143.8314C207.7005,-134.7927 191.7465,-123.7476 177.6953,-114.0198"/>
<polygon fill="#000000" stroke="#000000" points="179.4494,-110.9773 169.2352,-108.1628 175.4649,-116.7326 179.4494,-110.9773"/>
<g id="a_edge2&#45;headlabel"><a xlink:href="dir_000514_000020.xhtml" target="_top" xlink:title="1">
<text text-anchor="middle" x="184.021" y="-108.1889" font-family="Helvetica,sans-Serif" font-size="10.00" fill="#000000">1</text>
</a>
</g>
</g>
<!-- dir_aebb8dcc11953d78e620bbef0b9e2183&#45;&gt;dir_214608ef36d61442cb2b0c1c4e9a7def -->
<g id="edge7" class="edge">
<title>dir_aebb8dcc11953d78e620bbef0b9e2183&#45;&gt;dir_214608ef36d61442cb2b0c1c4e9a7def</title>
<path fill="none" stroke="#000000" d="M149.8132,-71.8314C152.7644,-63.9617 156.2858,-54.5712 159.555,-45.8533"/>
<polygon fill="#000000" stroke="#000000" points="162.8609,-47.0055 163.095,-36.4133 156.3066,-44.5476 162.8609,-47.0055"/>
<g id="a_edge7&#45;headlabel"><a xlink:href="dir_000020_000000.xhtml" target="_top" xlink:title="604">
<text text-anchor="middle" x="164.2573" y="-48.8682" font-family="Helvetica,sans-Serif" font-size="10.00" fill="#000000">604</text>
</a>
</g>
</g>
</g>
</svg>
