<?xml version="1.0" encoding="UTF-8" standalone="no"?>
<!DOCTYPE svg PUBLIC "-//W3C//DTD SVG 1.1//EN"
 "http://www.w3.org/Graphics/SVG/1.1/DTD/svg11.dtd">
<!-- Generated by graphviz version 2.40.1 (20161225.0304)
 -->
<!-- Title: src/runtime/CL Pages: 1 -->
<svg width="739pt" height="543pt"
 viewBox="0.00 0.00 739.00 542.78" xmlns="http://www.w3.org/2000/svg" xmlns:xlink="http://www.w3.org/1999/xlink">
<g id="graph0" class="graph" transform="scale(1 1) rotate(0) translate(4 538.783)">
<title>src/runtime/CL</title>
<polygon fill="#ffffff" stroke="transparent" points="-4,4 -4,-538.783 735,-538.783 735,4 -4,4"/>
<g id="clust1" class="cluster">
<title>clusterdir_bf9f26469d00835ba20ff8d80ee5a804</title>
<g id="a_clust1"><a xlink:href="dir_bf9f26469d00835ba20ff8d80ee5a804.xhtml" target="_top" xlink:title="runtime">
<polygon fill="#ddddee" stroke="#000000" points="339,-344 339,-503 723,-503 723,-344 339,-344"/>
<text text-anchor="middle" x="531" y="-491" font-family="Helvetica,sans-Serif" font-size="10.00" fill="#000000">runtime</text>
</a>
</g>
</g>
<g id="clust2" class="cluster">
<title>clusterdir_43c3fdbf778d1fd99e2e38f09fddd920</title>
<g id="a_clust2"><a xlink:href="dir_43c3fdbf778d1fd99e2e38f09fddd920.xhtml" target="_top">
<polygon fill="#eeeeff" stroke="#000000" points="347,-352 347,-476 715,-476 715,-352 347,-352"/>
</a>
</g>
</g>
<!-- dir_43c3fdbf778d1fd99e2e38f09fddd920 -->
<g id="node1" class="node">
<title>dir_43c3fdbf778d1fd99e2e38f09fddd920</title>
<text text-anchor="middle" x="462" y="-447.5" font-family="Helvetica,sans-Serif" font-size="10.00" fill="#000000">CL</text>
</g>
<!-- dir_82e3926d996ac5aae32ffa787ec227cb -->
<g id="node5" class="node">
<title>dir_82e3926d996ac5aae32ffa787ec227cb</title>
<g id="a_node5"><a xlink:href="dir_82e3926d996ac5aae32ffa787ec227cb.xhtml" target="_top" xlink:title="mlgo">
<polygon fill="#ffffff" stroke="#000000" points="520,-396 466,-396 466,-360 520,-360 520,-396"/>
<text text-anchor="middle" x="493" y="-375.5" font-family="Helvetica,sans-Serif" font-size="10.00" fill="#000000">mlgo</text>
</a>
</g>
</g>
<!-- dir_43c3fdbf778d1fd99e2e38f09fddd920&#45;&gt;dir_82e3926d996ac5aae32ffa787ec227cb -->
<g id="edge25" class="edge">
<title>dir_43c3fdbf778d1fd99e2e38f09fddd920&#45;&gt;dir_82e3926d996ac5aae32ffa787ec227cb</title>
<path fill="none" stroke="#000000" d="M469.8226,-431.8314C473.2109,-423.9617 477.2541,-414.5712 481.0076,-405.8533"/>
<polygon fill="#000000" stroke="#000000" points="484.3321,-406.9822 485.0721,-396.4133 477.9027,-404.214 484.3321,-406.9822"/>
<g id="a_edge25&#45;headlabel"><a xlink:href="dir_000037_000038.xhtml" target="_top" xlink:title="3">
<text text-anchor="middle" x="485.5185" y="-408.9066" font-family="Helvetica,sans-Serif" font-size="10.00" fill="#000000">3</text>
</a>
</g>
</g>
<!-- dir_214608ef36d61442cb2b0c1c4e9a7def -->
<g id="node10" class="node">
<title>dir_214608ef36d61442cb2b0c1c4e9a7def</title>
<g id="a_node10"><a xlink:href="dir_214608ef36d61442cb2b0c1c4e9a7def.xhtml" target="_top" xlink:title="arm_compute">
<polygon fill="#ffffff" stroke="#ff0000" points="532,-180 448,-180 448,-144 532,-144 532,-180"/>
<text text-anchor="middle" x="490" y="-159.5" font-family="Helvetica,sans-Serif" font-size="10.00" fill="#000000">arm_compute</text>
</a>
</g>
</g>
<!-- dir_43c3fdbf778d1fd99e2e38f09fddd920&#45;&gt;dir_214608ef36d61442cb2b0c1c4e9a7def -->
<g id="edge26" class="edge">
<title>dir_43c3fdbf778d1fd99e2e38f09fddd920&#45;&gt;dir_214608ef36d61442cb2b0c1c4e9a7def</title>
<path fill="none" stroke="#000000" d="M489.2499,-435.627C492.1665,-434.3145 495.12,-433.0764 498,-432 558.1806,-409.5079 598.6321,-446.7718 638,-396 687.0211,-332.7787 683.8602,-281.5503 638,-216 626.5575,-199.6447 580.0532,-184.3857 542.1872,-174.2894"/>
<polygon fill="#000000" stroke="#000000" points="542.8332,-170.841 532.274,-171.7093 541.07,-177.6153 542.8332,-170.841"/>
<g id="a_edge26&#45;headlabel"><a xlink:href="dir_000037_000000.xhtml" target="_top" xlink:title="464">
<text text-anchor="middle" x="547.027" y="-166.4986" font-family="Helvetica,sans-Serif" font-size="10.00" fill="#000000">464</text>
</a>
</g>
</g>
<!-- dir_aebb8dcc11953d78e620bbef0b9e2183 -->
<g id="node11" class="node">
<title>dir_aebb8dcc11953d78e620bbef0b9e2183</title>
<g id="a_node11"><a xlink:href="dir_aebb8dcc11953d78e620bbef0b9e2183.xhtml" target="_top" xlink:title="core">
<polygon fill="#ffffff" stroke="#ff0000" points="235,-324 181,-324 181,-288 235,-288 235,-324"/>
<text text-anchor="middle" x="208" y="-303.5" font-family="Helvetica,sans-Serif" font-size="10.00" fill="#000000">core</text>
</a>
</g>
</g>
<!-- dir_43c3fdbf778d1fd99e2e38f09fddd920&#45;&gt;dir_aebb8dcc11953d78e620bbef0b9e2183 -->
<g id="edge27" class="edge">
<title>dir_43c3fdbf778d1fd99e2e38f09fddd920&#45;&gt;dir_aebb8dcc11953d78e620bbef0b9e2183</title>
<path fill="none" stroke="#000000" d="M489.3107,-435.9378C503.9975,-426.7504 520.7475,-413.2504 529,-396 538.9737,-375.1517 544.3514,-361.2759 529,-344 510.4046,-323.0735 325.7732,-311.6826 245.2394,-307.6761"/>
<polygon fill="#000000" stroke="#000000" points="245.204,-304.1703 235.0459,-307.1809 244.8643,-311.1621 245.204,-304.1703"/>
<g id="a_edge27&#45;headlabel"><a xlink:href="dir_000037_000020.xhtml" target="_top" xlink:title="127">
<text text-anchor="middle" x="248.9321" y="-299.0087" font-family="Helvetica,sans-Serif" font-size="10.00" fill="#000000">127</text>
</a>
</g>
</g>
<!-- dir_5815af820a9cc9481f1d0990a0d60286 -->
<g id="node12" class="node">
<title>dir_5815af820a9cc9481f1d0990a0d60286</title>
<g id="a_node12"><a xlink:href="dir_5815af820a9cc9481f1d0990a0d60286.xhtml" target="_top" xlink:title="support">
<polygon fill="none" stroke="#000000" points="404,-36 350,-36 350,0 404,0 404,-36"/>
<text text-anchor="middle" x="377" y="-15.5" font-family="Helvetica,sans-Serif" font-size="10.00" fill="#000000">support</text>
</a>
</g>
</g>
<!-- dir_43c3fdbf778d1fd99e2e38f09fddd920&#45;&gt;dir_5815af820a9cc9481f1d0990a0d60286 -->
<g id="edge28" class="edge">
<title>dir_43c3fdbf778d1fd99e2e38f09fddd920&#45;&gt;dir_5815af820a9cc9481f1d0990a0d60286</title>
<path fill="none" stroke="#000000" d="M434.7574,-434.438C414.9939,-422.532 390.759,-406.4356 385,-396 350.1694,-332.8852 377,-306.0877 377,-234 377,-234 377,-234 377,-162 377,-121.876 377,-75.4631 377,-46.4177"/>
<polygon fill="#000000" stroke="#000000" points="380.5001,-46.1853 377,-36.1854 373.5001,-46.1854 380.5001,-46.1853"/>
<g id="a_edge28&#45;headlabel"><a xlink:href="dir_000037_000032.xhtml" target="_top" xlink:title="6">
<text text-anchor="middle" x="383.3393" y="-47.28" font-family="Helvetica,sans-Serif" font-size="10.00" fill="#000000">6</text>
</a>
</g>
</g>
<!-- dir_0304d3529340c629ae0050036d07056a -->
<g id="node2" class="node">
<title>dir_0304d3529340c629ae0050036d07056a</title>
<g id="a_node2"><a xlink:href="dir_0304d3529340c629ae0050036d07056a.xhtml" target="_top" xlink:title="functions">
<polygon fill="#ffffff" stroke="#000000" points="417,-468 355,-468 355,-432 417,-432 417,-468"/>
<text text-anchor="middle" x="386" y="-447.5" font-family="Helvetica,sans-Serif" font-size="10.00" fill="#000000">functions</text>
</a>
</g>
</g>
<!-- dir_cf895c1ed808af158264b2f3d8d7f8f0 -->
<g id="node7" class="node">
<title>dir_cf895c1ed808af158264b2f3d8d7f8f0</title>
<g id="a_node7"><a xlink:href="dir_cf895c1ed808af158264b2f3d8d7f8f0.xhtml" target="_top" xlink:title="gpu">
<polygon fill="#ffffff" stroke="#ff0000" points="241,-468 187,-468 187,-432 241,-432 241,-468"/>
<text text-anchor="middle" x="214" y="-447.5" font-family="Helvetica,sans-Serif" font-size="10.00" fill="#000000">gpu</text>
</a>
</g>
</g>
<!-- dir_0304d3529340c629ae0050036d07056a&#45;&gt;dir_cf895c1ed808af158264b2f3d8d7f8f0 -->
<g id="edge19" class="edge">
<title>dir_0304d3529340c629ae0050036d07056a&#45;&gt;dir_cf895c1ed808af158264b2f3d8d7f8f0</title>
<path fill="none" stroke="#000000" d="M354.893,-450C320.4035,-450 285.914,-450 251.4246,-450"/>
<polygon fill="#000000" stroke="#000000" points="251.211,-446.5001 241.2109,-450 251.2109,-453.5001 251.211,-446.5001"/>
<g id="a_edge19&#45;headlabel"><a xlink:href="dir_000494_000004.xhtml" target="_top" xlink:title="46">
<text text-anchor="middle" x="254.8056" y="-441.1607" font-family="Helvetica,sans-Serif" font-size="10.00" fill="#000000">46</text>
</a>
</g>
</g>
<!-- dir_3fe890f1593b95fd486bc879bbb074a9 -->
<g id="node9" class="node">
<title>dir_3fe890f1593b95fd486bc879bbb074a9</title>
<g id="a_node9"><a xlink:href="dir_3fe890f1593b95fd486bc879bbb074a9.xhtml" target="_top" xlink:title="heuristics">
<polygon fill="#ffffff" stroke="#ff0000" points="300,-396 236,-396 236,-360 300,-360 300,-396"/>
<text text-anchor="middle" x="268" y="-375.5" font-family="Helvetica,sans-Serif" font-size="10.00" fill="#000000">heuristics</text>
</a>
</g>
</g>
<!-- dir_0304d3529340c629ae0050036d07056a&#45;&gt;dir_3fe890f1593b95fd486bc879bbb074a9 -->
<g id="edge20" class="edge">
<title>dir_0304d3529340c629ae0050036d07056a&#45;&gt;dir_3fe890f1593b95fd486bc879bbb074a9</title>
<path fill="none" stroke="#000000" d="M356.2236,-431.8314C341.1307,-422.6221 322.6243,-411.3301 306.4657,-401.4706"/>
<polygon fill="#000000" stroke="#000000" points="308.1263,-398.3838 297.7669,-396.1628 304.4802,-404.3593 308.1263,-398.3838"/>
<g id="a_edge20&#45;headlabel"><a xlink:href="dir_000494_000511.xhtml" target="_top" xlink:title="2">
<text text-anchor="middle" x="312.6737" y="-395.3323" font-family="Helvetica,sans-Serif" font-size="10.00" fill="#000000">2</text>
</a>
</g>
</g>
<!-- dir_0304d3529340c629ae0050036d07056a&#45;&gt;dir_214608ef36d61442cb2b0c1c4e9a7def -->
<g id="edge21" class="edge">
<title>dir_0304d3529340c629ae0050036d07056a&#45;&gt;dir_214608ef36d61442cb2b0c1c4e9a7def</title>
<path fill="none" stroke="#000000" d="M417.2778,-435.4485C420.2055,-434.2311 423.1449,-433.0617 426,-432 478.5891,-412.4441 513.4565,-440.9765 547,-396 594.3203,-332.5509 540.4914,-234.9882 509.229,-188.4559"/>
<polygon fill="#000000" stroke="#000000" points="512.0472,-186.3769 503.4989,-180.1177 506.2781,-190.3416 512.0472,-186.3769"/>
<g id="a_edge21&#45;headlabel"><a xlink:href="dir_000494_000000.xhtml" target="_top" xlink:title="391">
<text text-anchor="middle" x="516.423" y="-185.2314" font-family="Helvetica,sans-Serif" font-size="10.00" fill="#000000">391</text>
</a>
</g>
</g>
<!-- dir_0304d3529340c629ae0050036d07056a&#45;&gt;dir_aebb8dcc11953d78e620bbef0b9e2183 -->
<g id="edge22" class="edge">
<title>dir_0304d3529340c629ae0050036d07056a&#45;&gt;dir_aebb8dcc11953d78e620bbef0b9e2183</title>
<path fill="none" stroke="#000000" d="M354.8123,-443.2601C313.5769,-433.7254 244.123,-415.299 227,-396 212.1554,-379.269 207.8669,-353.9052 207.0272,-334.3631"/>
<polygon fill="#000000" stroke="#000000" points="210.5243,-334.1419 206.8703,-324.1972 203.5251,-334.25 210.5243,-334.1419"/>
<g id="a_edge22&#45;headlabel"><a xlink:href="dir_000494_000020.xhtml" target="_top" xlink:title="122">
<text text-anchor="middle" x="213.4185" y="-335.1924" font-family="Helvetica,sans-Serif" font-size="10.00" fill="#000000">122</text>
</a>
</g>
</g>
<!-- dir_0304d3529340c629ae0050036d07056a&#45;&gt;dir_5815af820a9cc9481f1d0990a0d60286 -->
<g id="edge23" class="edge">
<title>dir_0304d3529340c629ae0050036d07056a&#45;&gt;dir_5815af820a9cc9481f1d0990a0d60286</title>
<path fill="none" stroke="#000000" d="M374.5943,-431.8194C360.4688,-409.9332 335.0664,-372.561 309,-344 306.3859,-341.1357 205.6012,-255.5318 204,-252 164.2337,-164.2857 279.6134,-77.4541 341.136,-38.8258"/>
<polygon fill="#000000" stroke="#000000" points="343.1246,-41.7114 349.7974,-33.4819 339.4491,-35.754 343.1246,-41.7114"/>
<g id="a_edge23&#45;headlabel"><a xlink:href="dir_000494_000032.xhtml" target="_top" xlink:title="3">
<text text-anchor="middle" x="341.5562" y="-43.5152" font-family="Helvetica,sans-Serif" font-size="10.00" fill="#000000">3</text>
</a>
</g>
</g>
<!-- dir_fdedb0aba14d44ce9d99bc100e026e6a -->
<g id="node13" class="node">
<title>dir_fdedb0aba14d44ce9d99bc100e026e6a</title>
<g id="a_node13"><a xlink:href="dir_fdedb0aba14d44ce9d99bc100e026e6a.xhtml" target="_top" xlink:title="common">
<polygon fill="#ffffff" stroke="#ff0000" points="272.5,-252 213.5,-252 213.5,-216 272.5,-216 272.5,-252"/>
<text text-anchor="middle" x="243" y="-231.5" font-family="Helvetica,sans-Serif" font-size="10.00" fill="#000000">common</text>
</a>
</g>
</g>
<!-- dir_0304d3529340c629ae0050036d07056a&#45;&gt;dir_fdedb0aba14d44ce9d99bc100e026e6a -->
<g id="edge24" class="edge">
<title>dir_0304d3529340c629ae0050036d07056a&#45;&gt;dir_fdedb0aba14d44ce9d99bc100e026e6a</title>
<path fill="none" stroke="#000000" d="M417.3329,-435.5914C420.249,-434.3439 423.1707,-433.1286 426,-432 471.0422,-414.0332 500.9312,-435.5443 529,-396 542.3771,-377.1539 542.084,-363.0508 529,-344 500.1505,-301.9943 354.3114,-261.2553 282.7381,-243.4116"/>
<polygon fill="#000000" stroke="#000000" points="283.2867,-239.9422 272.7397,-240.9477 281.6117,-246.7389 283.2867,-239.9422"/>
<g id="a_edge24&#45;headlabel"><a xlink:href="dir_000494_000019.xhtml" target="_top" xlink:title="63">
<text text-anchor="middle" x="287.4563" y="-235.5454" font-family="Helvetica,sans-Serif" font-size="10.00" fill="#000000">63</text>
</a>
</g>
</g>
<!-- dir_5f09115d5b51f09d1c93a8d5eb5f8d5c -->
<g id="node3" class="node">
<title>dir_5f09115d5b51f09d1c93a8d5eb5f8d5c</title>
<g id="a_node3"><a xlink:href="dir_5f09115d5b51f09d1c93a8d5eb5f8d5c.xhtml" target="_top" xlink:title="gemm">
<polygon fill="#ffffff" stroke="#000000" points="448,-396 394,-396 394,-360 448,-360 448,-396"/>
<text text-anchor="middle" x="421" y="-375.5" font-family="Helvetica,sans-Serif" font-size="10.00" fill="#000000">gemm</text>
</a>
</g>
</g>
<!-- dir_5f09115d5b51f09d1c93a8d5eb5f8d5c&#45;&gt;dir_cf895c1ed808af158264b2f3d8d7f8f0 -->
<g id="edge38" class="edge">
<title>dir_5f09115d5b51f09d1c93a8d5eb5f8d5c&#45;&gt;dir_cf895c1ed808af158264b2f3d8d7f8f0</title>
<path fill="none" stroke="#000000" d="M393.7311,-385.9458C357.0155,-397.794 291.9448,-420.2939 250.9115,-435.2221"/>
<polygon fill="#000000" stroke="#000000" points="249.467,-432.0237 241.2813,-438.75 251.875,-438.5965 249.467,-432.0237"/>
<g id="a_edge38&#45;headlabel"><a xlink:href="dir_000505_000004.xhtml" target="_top" xlink:title="3">
<text text-anchor="middle" x="251.8657" y="-425.6212" font-family="Helvetica,sans-Serif" font-size="10.00" fill="#000000">3</text>
</a>
</g>
</g>
<!-- dir_5f09115d5b51f09d1c93a8d5eb5f8d5c&#45;&gt;dir_214608ef36d61442cb2b0c1c4e9a7def -->
<g id="edge39" class="edge">
<title>dir_5f09115d5b51f09d1c93a8d5eb5f8d5c&#45;&gt;dir_214608ef36d61442cb2b0c1c4e9a7def</title>
<path fill="none" stroke="#000000" d="M426.7642,-359.9555C438.8138,-322.235 466.7384,-234.8188 481.1067,-189.8399"/>
<polygon fill="#000000" stroke="#000000" points="484.4947,-190.7359 484.2037,-180.1451 477.8266,-188.6058 484.4947,-190.7359"/>
<g id="a_edge39&#45;headlabel"><a xlink:href="dir_000505_000000.xhtml" target="_top" xlink:title="11">
<text text-anchor="middle" x="486.1055" y="-192.524" font-family="Helvetica,sans-Serif" font-size="10.00" fill="#000000">11</text>
</a>
</g>
</g>
<!-- dir_a67538344c2c86328918cac423ccf8cb -->
<g id="node4" class="node">
<title>dir_a67538344c2c86328918cac423ccf8cb</title>
<g id="a_node4"><a xlink:href="dir_a67538344c2c86328918cac423ccf8cb.xhtml" target="_top" xlink:title="gemm_auto_heuristics">
<polygon fill="#ffffff" stroke="#000000" points="635,-468 507,-468 507,-432 635,-432 635,-468"/>
<text text-anchor="middle" x="571" y="-447.5" font-family="Helvetica,sans-Serif" font-size="10.00" fill="#000000">gemm_auto_heuristics</text>
</a>
</g>
</g>
<!-- dir_a67538344c2c86328918cac423ccf8cb&#45;&gt;dir_5f09115d5b51f09d1c93a8d5eb5f8d5c -->
<g id="edge33" class="edge">
<title>dir_a67538344c2c86328918cac423ccf8cb&#45;&gt;dir_5f09115d5b51f09d1c93a8d5eb5f8d5c</title>
<path fill="none" stroke="#000000" d="M532.3818,-431.9565C512.2467,-422.4922 487.0344,-410.5539 457.099,-396.0089"/>
<polygon fill="#000000" stroke="#000000" points="458.6193,-392.8564 448.0963,-391.6253 455.5548,-399.15 458.6193,-392.8564"/>
<g id="a_edge33&#45;headlabel"><a xlink:href="dir_000506_000505.xhtml" target="_top" xlink:title="1">
<text text-anchor="middle" x="463.0941" y="-389.3773" font-family="Helvetica,sans-Serif" font-size="10.00" fill="#000000">1</text>
</a>
</g>
</g>
<!-- dir_a67538344c2c86328918cac423ccf8cb&#45;&gt;dir_82e3926d996ac5aae32ffa787ec227cb -->
<g id="edge29" class="edge">
<title>dir_a67538344c2c86328918cac423ccf8cb&#45;&gt;dir_82e3926d996ac5aae32ffa787ec227cb</title>
<path fill="none" stroke="#000000" d="M551.3173,-431.8314C541.8949,-423.1337 530.4599,-412.5783 520.2204,-403.1265"/>
<polygon fill="#000000" stroke="#000000" points="522.3984,-400.3738 512.6764,-396.1628 517.6505,-405.5175 522.3984,-400.3738"/>
<g id="a_edge29&#45;headlabel"><a xlink:href="dir_000506_000038.xhtml" target="_top" xlink:title="2">
<text text-anchor="middle" x="526.9656" y="-398.2257" font-family="Helvetica,sans-Serif" font-size="10.00" fill="#000000">2</text>
</a>
</g>
</g>
<!-- dir_a67538344c2c86328918cac423ccf8cb&#45;&gt;dir_cf895c1ed808af158264b2f3d8d7f8f0 -->
<g id="edge30" class="edge">
<title>dir_a67538344c2c86328918cac423ccf8cb&#45;&gt;dir_cf895c1ed808af158264b2f3d8d7f8f0</title>
<path fill="none" stroke="#000000" d="M556.965,-468.025C542.2052,-485.3727 517.2319,-510.476 489,-521 431.9462,-542.2679 411.1784,-535.3307 352,-521 314.357,-511.8843 275.4763,-490.6191 248.617,-473.723"/>
<polygon fill="#000000" stroke="#000000" points="250.2944,-470.6408 239.9882,-468.1844 246.5132,-476.5317 250.2944,-470.6408"/>
<g id="a_edge30&#45;headlabel"><a xlink:href="dir_000506_000004.xhtml" target="_top" xlink:title="5">
<text text-anchor="middle" x="254.8531" y="-467.693" font-family="Helvetica,sans-Serif" font-size="10.00" fill="#000000">5</text>
</a>
</g>
</g>
<!-- dir_cbdb8362360e11eafe2fa3bc74cf0ffd -->
<g id="node8" class="node">
<title>dir_cbdb8362360e11eafe2fa3bc74cf0ffd</title>
<g id="a_node8"><a xlink:href="dir_cbdb8362360e11eafe2fa3bc74cf0ffd.xhtml" target="_top" xlink:title="utils">
<polygon fill="#ffffff" stroke="#ff0000" points="497,-108 443,-108 443,-72 497,-72 497,-108"/>
<text text-anchor="middle" x="470" y="-87.5" font-family="Helvetica,sans-Serif" font-size="10.00" fill="#000000">utils</text>
</a>
</g>
</g>
<!-- dir_a67538344c2c86328918cac423ccf8cb&#45;&gt;dir_cbdb8362360e11eafe2fa3bc74cf0ffd -->
<g id="edge31" class="edge">
<title>dir_a67538344c2c86328918cac423ccf8cb&#45;&gt;dir_cbdb8362360e11eafe2fa3bc74cf0ffd</title>
<path fill="none" stroke="#000000" d="M635.0065,-435.0098C656.2618,-426.896 678.0406,-414.573 692,-396 740.1017,-332.0007 732.5727,-280.3935 685,-216 639.7843,-154.7968 555.2129,-118.2166 506.707,-101.3148"/>
<polygon fill="#000000" stroke="#000000" points="507.8143,-97.9946 497.22,-98.1001 505.5677,-104.6243 507.8143,-97.9946"/>
<g id="a_edge31&#45;headlabel"><a xlink:href="dir_000506_000041.xhtml" target="_top" xlink:title="1">
<text text-anchor="middle" x="512.1299" y="-93.9591" font-family="Helvetica,sans-Serif" font-size="10.00" fill="#000000">1</text>
</a>
</g>
</g>
<!-- dir_a67538344c2c86328918cac423ccf8cb&#45;&gt;dir_214608ef36d61442cb2b0c1c4e9a7def -->
<g id="edge32" class="edge">
<title>dir_a67538344c2c86328918cac423ccf8cb&#45;&gt;dir_214608ef36d61442cb2b0c1c4e9a7def</title>
<path fill="none" stroke="#000000" d="M618.8688,-431.9488C635.9112,-423.3863 653.8652,-411.5572 666,-396 696.0237,-357.5086 693.8195,-336.1858 686,-288 680.5969,-254.7046 686.0597,-239.6413 662,-216 644.8615,-199.1596 586.4095,-183.0949 542.3659,-172.9333"/>
<polygon fill="#000000" stroke="#000000" points="542.8883,-169.4631 532.3622,-170.6686 541.3426,-176.2903 542.8883,-169.4631"/>
<g id="a_edge32&#45;headlabel"><a xlink:href="dir_000506_000000.xhtml" target="_top" xlink:title="7">
<text text-anchor="middle" x="547.021" y="-164.9875" font-family="Helvetica,sans-Serif" font-size="10.00" fill="#000000">7</text>
</a>
</g>
</g>
<!-- dir_82e3926d996ac5aae32ffa787ec227cb&#45;&gt;dir_214608ef36d61442cb2b0c1c4e9a7def -->
<g id="edge1" class="edge">
<title>dir_82e3926d996ac5aae32ffa787ec227cb&#45;&gt;dir_214608ef36d61442cb2b0c1c4e9a7def</title>
<path fill="none" stroke="#000000" d="M492.7494,-359.9555C492.2277,-322.3938 491.0216,-235.5541 490.3946,-190.4103"/>
<polygon fill="#000000" stroke="#000000" points="493.8906,-190.0955 490.252,-180.1451 486.8913,-190.1927 493.8906,-190.0955"/>
<g id="a_edge1&#45;headlabel"><a xlink:href="dir_000038_000000.xhtml" target="_top" xlink:title="6">
<text text-anchor="middle" x="496.7795" y="-191.1503" font-family="Helvetica,sans-Serif" font-size="10.00" fill="#000000">6</text>
</a>
</g>
</g>
<!-- dir_82e3926d996ac5aae32ffa787ec227cb&#45;&gt;dir_5815af820a9cc9481f1d0990a0d60286 -->
<g id="edge2" class="edge">
<title>dir_82e3926d996ac5aae32ffa787ec227cb&#45;&gt;dir_5815af820a9cc9481f1d0990a0d60286</title>
<path fill="none" stroke="#000000" d="M487.0881,-359.6526C468.122,-300.7923 408.7216,-116.4463 385.9802,-45.8694"/>
<polygon fill="#000000" stroke="#000000" points="389.2984,-44.7551 382.9,-36.3104 382.6357,-46.902 389.2984,-44.7551"/>
<g id="a_edge2&#45;headlabel"><a xlink:href="dir_000038_000032.xhtml" target="_top" xlink:title="1">
<text text-anchor="middle" x="393.1032" y="-44.8057" font-family="Helvetica,sans-Serif" font-size="10.00" fill="#000000">1</text>
</a>
</g>
</g>
<!-- dir_50c9c9ef2ed96b9f05a6a6f40f0f5c9e -->
<g id="node6" class="node">
<title>dir_50c9c9ef2ed96b9f05a6a6f40f0f5c9e</title>
<g id="a_node6"><a xlink:href="dir_50c9c9ef2ed96b9f05a6a6f40f0f5c9e.xhtml" target="_top" xlink:title="tuners">
<polygon fill="#ffffff" stroke="#000000" points="707,-468 653,-468 653,-432 707,-432 707,-468"/>
<text text-anchor="middle" x="680" y="-447.5" font-family="Helvetica,sans-Serif" font-size="10.00" fill="#000000">tuners</text>
</a>
</g>
</g>
<!-- dir_50c9c9ef2ed96b9f05a6a6f40f0f5c9e&#45;&gt;dir_214608ef36d61442cb2b0c1c4e9a7def -->
<g id="edge3" class="edge">
<title>dir_50c9c9ef2ed96b9f05a6a6f40f0f5c9e&#45;&gt;dir_214608ef36d61442cb2b0c1c4e9a7def</title>
<path fill="none" stroke="#000000" d="M687.9093,-431.7061C705.5405,-387.7482 742.2003,-275.4334 685,-216 665.3602,-195.5935 593.0953,-179.4698 542.2926,-170.3299"/>
<polygon fill="#000000" stroke="#000000" points="542.8956,-166.8823 532.4402,-168.5958 541.6821,-173.7763 542.8956,-166.8823"/>
<g id="a_edge3&#45;headlabel"><a xlink:href="dir_000508_000000.xhtml" target="_top" xlink:title="1">
<text text-anchor="middle" x="546.9279" y="-162.209" font-family="Helvetica,sans-Serif" font-size="10.00" fill="#000000">1</text>
</a>
</g>
</g>
<!-- dir_cf895c1ed808af158264b2f3d8d7f8f0&#45;&gt;dir_5f09115d5b51f09d1c93a8d5eb5f8d5c -->
<g id="edge10" class="edge">
<title>dir_cf895c1ed808af158264b2f3d8d7f8f0&#45;&gt;dir_5f09115d5b51f09d1c93a8d5eb5f8d5c</title>
<path fill="none" stroke="#000000" d="M241.3761,-442.0196C278.1576,-430.1472 343.26,-407.6346 384.2444,-392.7212"/>
<polygon fill="#000000" stroke="#000000" points="385.6756,-395.9244 393.8609,-389.1975 383.2672,-389.3518 385.6756,-395.9244"/>
<g id="a_edge10&#45;headlabel"><a xlink:href="dir_000004_000505.xhtml" target="_top" xlink:title="2">
<text text-anchor="middle" x="383.2773" y="-397.3271" font-family="Helvetica,sans-Serif" font-size="10.00" fill="#000000">2</text>
</a>
</g>
</g>
<!-- dir_cf895c1ed808af158264b2f3d8d7f8f0&#45;&gt;dir_a67538344c2c86328918cac423ccf8cb -->
<g id="edge8" class="edge">
<title>dir_cf895c1ed808af158264b2f3d8d7f8f0&#45;&gt;dir_a67538344c2c86328918cac423ccf8cb</title>
<path fill="none" stroke="#000000" d="M239.9882,-468.1844C266.67,-485.656 310.1017,-510.8539 352,-521 411.1784,-535.3307 431.9462,-542.2679 489,-521 513.2618,-511.956 535.117,-492.1447 550.1516,-475.7416"/>
<polygon fill="#000000" stroke="#000000" points="552.9699,-477.8378 556.965,-468.025 547.7226,-473.2046 552.9699,-477.8378"/>
<g id="a_edge8&#45;headlabel"><a xlink:href="dir_000004_000506.xhtml" target="_top" xlink:title="2">
<text text-anchor="middle" x="552.719" y="-479.9116" font-family="Helvetica,sans-Serif" font-size="10.00" fill="#000000">2</text>
</a>
</g>
</g>
<!-- dir_cf895c1ed808af158264b2f3d8d7f8f0&#45;&gt;dir_82e3926d996ac5aae32ffa787ec227cb -->
<g id="edge4" class="edge">
<title>dir_cf895c1ed808af158264b2f3d8d7f8f0&#45;&gt;dir_82e3926d996ac5aae32ffa787ec227cb</title>
<path fill="none" stroke="#000000" d="M241.2112,-446.1837C285.0994,-439.5572 374.1176,-424.1661 456.3156,-395.8079"/>
<polygon fill="#000000" stroke="#000000" points="457.5173,-399.0955 465.7859,-392.4712 455.1911,-392.4933 457.5173,-399.0955"/>
<g id="a_edge4&#45;headlabel"><a xlink:href="dir_000004_000038.xhtml" target="_top" xlink:title="1">
<text text-anchor="middle" x="455.0705" y="-400.4679" font-family="Helvetica,sans-Serif" font-size="10.00" fill="#000000">1</text>
</a>
</g>
</g>
<!-- dir_cf895c1ed808af158264b2f3d8d7f8f0&#45;&gt;dir_cbdb8362360e11eafe2fa3bc74cf0ffd -->
<g id="edge5" class="edge">
<title>dir_cf895c1ed808af158264b2f3d8d7f8f0&#45;&gt;dir_cbdb8362360e11eafe2fa3bc74cf0ffd</title>
<path fill="none" stroke="#000000" d="M186.8219,-437.0202C171.0409,-427.9122 152.4598,-414.1216 143,-396 105.7514,-324.6449 109.2008,-275.872 163,-216 235.7707,-135.015 368.3995,-104.9339 432.8559,-94.7341"/>
<polygon fill="#000000" stroke="#000000" points="433.5984,-98.1618 442.9649,-93.2101 432.5549,-91.24 433.5984,-98.1618"/>
<g id="a_edge5&#45;headlabel"><a xlink:href="dir_000004_000041.xhtml" target="_top" xlink:title="2">
<text text-anchor="middle" x="430.4672" y="-99.0051" font-family="Helvetica,sans-Serif" font-size="10.00" fill="#000000">2</text>
</a>
</g>
</g>
<!-- dir_cf895c1ed808af158264b2f3d8d7f8f0&#45;&gt;dir_3fe890f1593b95fd486bc879bbb074a9 -->
<g id="edge6" class="edge">
<title>dir_cf895c1ed808af158264b2f3d8d7f8f0&#45;&gt;dir_3fe890f1593b95fd486bc879bbb074a9</title>
<path fill="none" stroke="#000000" d="M227.6265,-431.8314C233.846,-423.5386 241.3322,-413.557 248.16,-404.4533"/>
<polygon fill="#000000" stroke="#000000" points="250.99,-406.5133 254.19,-396.4133 245.39,-402.3133 250.99,-406.5133"/>
<g id="a_edge6&#45;headlabel"><a xlink:href="dir_000004_000511.xhtml" target="_top" xlink:title="6">
<text text-anchor="middle" x="251.1047" y="-408.5925" font-family="Helvetica,sans-Serif" font-size="10.00" fill="#000000">6</text>
</a>
</g>
</g>
<!-- dir_cf895c1ed808af158264b2f3d8d7f8f0&#45;&gt;dir_214608ef36d61442cb2b0c1c4e9a7def -->
<g id="edge7" class="edge">
<title>dir_cf895c1ed808af158264b2f3d8d7f8f0&#45;&gt;dir_214608ef36d61442cb2b0c1c4e9a7def</title>
<path fill="none" stroke="#000000" d="M189.866,-431.9478C179.2577,-422.5285 167.8899,-410.0424 162,-396 130.2254,-320.245 136.4058,-262.6847 204,-216 241.1517,-190.3408 365.8091,-174.1906 437.6934,-166.7777"/>
<polygon fill="#000000" stroke="#000000" points="438.3019,-170.2342 447.8997,-165.7473 437.5987,-163.2696 438.3019,-170.2342"/>
<g id="a_edge7&#45;headlabel"><a xlink:href="dir_000004_000000.xhtml" target="_top" xlink:title="473">
<text text-anchor="middle" x="435.0106" y="-170.9201" font-family="Helvetica,sans-Serif" font-size="10.00" fill="#000000">473</text>
</a>
</g>
</g>
<!-- dir_cf895c1ed808af158264b2f3d8d7f8f0&#45;&gt;dir_aebb8dcc11953d78e620bbef0b9e2183 -->
<g id="edge9" class="edge">
<title>dir_cf895c1ed808af158264b2f3d8d7f8f0&#45;&gt;dir_aebb8dcc11953d78e620bbef0b9e2183</title>
<path fill="none" stroke="#000000" d="M197.558,-431.9594C192.1021,-421.6742 187.2224,-408.3991 185,-396 180.9226,-373.2514 180.9421,-366.7521 185,-344 185.6111,-340.5739 186.5092,-337.0519 187.6257,-333.5994"/>
<polygon fill="#000000" stroke="#000000" points="190.9226,-334.7782 191.2931,-324.1899 184.4005,-332.2362 190.9226,-334.7782"/>
<g id="a_edge9&#45;headlabel"><a xlink:href="dir_000004_000020.xhtml" target="_top" xlink:title="229">
<text text-anchor="middle" x="192.2628" y="-336.6585" font-family="Helvetica,sans-Serif" font-size="10.00" fill="#000000">229</text>
</a>
</g>
</g>
<!-- dir_cf895c1ed808af158264b2f3d8d7f8f0&#45;&gt;dir_5815af820a9cc9481f1d0990a0d60286 -->
<g id="edge11" class="edge">
<title>dir_cf895c1ed808af158264b2f3d8d7f8f0&#45;&gt;dir_5815af820a9cc9481f1d0990a0d60286</title>
<path fill="none" stroke="#000000" d="M186.8968,-445.016C129.3123,-432.6975 0,-395.114 0,-306 0,-306 0,-306 0,-162 0,-99.8588 51.0008,-98.9373 107,-72 184.3393,-34.7975 285.993,-23.2169 339.8215,-19.6179"/>
<polygon fill="#000000" stroke="#000000" points="340.1607,-23.1037 349.9282,-18.9993 339.733,-16.1168 340.1607,-23.1037"/>
<g id="a_edge11&#45;headlabel"><a xlink:href="dir_000004_000032.xhtml" target="_top" xlink:title="103">
<text text-anchor="middle" x="336.7463" y="-23.6572" font-family="Helvetica,sans-Serif" font-size="10.00" fill="#000000">103</text>
</a>
</g>
</g>
<!-- dir_cf895c1ed808af158264b2f3d8d7f8f0&#45;&gt;dir_fdedb0aba14d44ce9d99bc100e026e6a -->
<g id="edge12" class="edge">
<title>dir_cf895c1ed808af158264b2f3d8d7f8f0&#45;&gt;dir_fdedb0aba14d44ce9d99bc100e026e6a</title>
<path fill="none" stroke="#000000" d="M201.2313,-431.6466C181.4004,-400.6812 147.8653,-336.678 172,-288 179.0425,-273.7957 191.8068,-262.3163 204.5904,-253.654"/>
<polygon fill="#000000" stroke="#000000" points="206.7867,-256.4066 213.3736,-248.1082 203.0494,-250.4877 206.7867,-256.4066"/>
<g id="a_edge12&#45;headlabel"><a xlink:href="dir_000004_000019.xhtml" target="_top" xlink:title="42">
<text text-anchor="middle" x="205.2631" y="-258.2265" font-family="Helvetica,sans-Serif" font-size="10.00" fill="#000000">42</text>
</a>
</g>
</g>
<!-- dir_cbdb8362360e11eafe2fa3bc74cf0ffd&#45;&gt;dir_214608ef36d61442cb2b0c1c4e9a7def -->
<g id="edge13" class="edge">
<title>dir_cbdb8362360e11eafe2fa3bc74cf0ffd&#45;&gt;dir_214608ef36d61442cb2b0c1c4e9a7def</title>
<path fill="none" stroke="#000000" d="M481.0908,-108.4133C483.9775,-116.1442 486.7332,-125.3097 488.7869,-133.8545"/>
<polygon fill="#000000" stroke="#000000" points="485.4046,-134.7765 490.9055,-143.8314 492.2519,-133.3224 485.4046,-134.7765"/>
<g id="a_edge13&#45;headlabel"><a xlink:href="dir_000041_000000.xhtml" target="_top" xlink:title="49">
<text text-anchor="middle" x="481.8807" y="-129.3501" font-family="Helvetica,sans-Serif" font-size="10.00" fill="#000000">49</text>
</a>
</g>
</g>
<!-- dir_cbdb8362360e11eafe2fa3bc74cf0ffd&#45;&gt;dir_5815af820a9cc9481f1d0990a0d60286 -->
<g id="edge14" class="edge">
<title>dir_cbdb8362360e11eafe2fa3bc74cf0ffd&#45;&gt;dir_5815af820a9cc9481f1d0990a0d60286</title>
<path fill="none" stroke="#000000" d="M446.5322,-71.8314C434.9673,-62.8779 420.8596,-51.9558 408.3817,-42.2955"/>
<polygon fill="#000000" stroke="#000000" points="410.5102,-39.5171 400.4603,-36.1628 406.225,-45.0521 410.5102,-39.5171"/>
<g id="a_edge14&#45;headlabel"><a xlink:href="dir_000041_000032.xhtml" target="_top" xlink:title="4">
<text text-anchor="middle" x="415.0906" y="-36.9725" font-family="Helvetica,sans-Serif" font-size="10.00" fill="#000000">4</text>
</a>
</g>
</g>
<!-- dir_3fe890f1593b95fd486bc879bbb074a9&#45;&gt;dir_214608ef36d61442cb2b0c1c4e9a7def -->
<g id="edge15" class="edge">
<title>dir_3fe890f1593b95fd486bc879bbb074a9&#45;&gt;dir_214608ef36d61442cb2b0c1c4e9a7def</title>
<path fill="none" stroke="#000000" d="M286.5458,-359.9555C326.0486,-321.5203 418.5814,-231.4884 463.9669,-187.3295"/>
<polygon fill="#000000" stroke="#000000" points="466.6244,-189.6272 471.3509,-180.1451 461.7429,-184.6101 466.6244,-189.6272"/>
<g id="a_edge15&#45;headlabel"><a xlink:href="dir_000511_000000.xhtml" target="_top" xlink:title="37">
<text text-anchor="middle" x="466.028" y="-191.6689" font-family="Helvetica,sans-Serif" font-size="10.00" fill="#000000">37</text>
</a>
</g>
</g>
<!-- dir_3fe890f1593b95fd486bc879bbb074a9&#45;&gt;dir_aebb8dcc11953d78e620bbef0b9e2183 -->
<g id="edge16" class="edge">
<title>dir_3fe890f1593b95fd486bc879bbb074a9&#45;&gt;dir_aebb8dcc11953d78e620bbef0b9e2183</title>
<path fill="none" stroke="#000000" d="M252.8595,-359.8314C245.8783,-351.454 237.4609,-341.3531 229.8124,-332.1749"/>
<polygon fill="#000000" stroke="#000000" points="232.4351,-329.8548 223.3444,-324.4133 227.0575,-334.3362 232.4351,-329.8548"/>
<g id="a_edge16&#45;headlabel"><a xlink:href="dir_000511_000020.xhtml" target="_top" xlink:title="3">
<text text-anchor="middle" x="236.9174" y="-328.2986" font-family="Helvetica,sans-Serif" font-size="10.00" fill="#000000">3</text>
</a>
</g>
</g>
<!-- dir_214608ef36d61442cb2b0c1c4e9a7def&#45;&gt;dir_cbdb8362360e11eafe2fa3bc74cf0ffd -->
<g id="edge17" class="edge">
<title>dir_214608ef36d61442cb2b0c1c4e9a7def&#45;&gt;dir_cbdb8362360e11eafe2fa3bc74cf0ffd</title>
<path fill="none" stroke="#000000" d="M479.0008,-143.8314C476.1113,-136.131 473.3469,-126.9743 471.2784,-118.4166"/>
<polygon fill="#000000" stroke="#000000" points="474.6531,-117.46 469.1388,-108.4133 467.8079,-118.9242 474.6531,-117.46"/>
<g id="a_edge17&#45;headlabel"><a xlink:href="dir_000000_000041.xhtml" target="_top" xlink:title="1">
<text text-anchor="middle" x="478.1813" y="-117.8813" font-family="Helvetica,sans-Serif" font-size="10.00" fill="#000000">1</text>
</a>
</g>
</g>
<!-- dir_214608ef36d61442cb2b0c1c4e9a7def&#45;&gt;dir_5815af820a9cc9481f1d0990a0d60286 -->
<g id="edge18" class="edge">
<title>dir_214608ef36d61442cb2b0c1c4e9a7def&#45;&gt;dir_5815af820a9cc9481f1d0990a0d60286</title>
<path fill="none" stroke="#000000" d="M493.6669,-143.8789C500.7974,-124.5096 511.4192,-93.6675 497,-72 478.3118,-43.9175 441.9117,-30.4114 413.9685,-23.9315"/>
<polygon fill="#000000" stroke="#000000" points="414.6122,-20.4903 404.1047,-21.8481 413.1655,-27.3392 414.6122,-20.4903"/>
<g id="a_edge18&#45;headlabel"><a xlink:href="dir_000000_000032.xhtml" target="_top" xlink:title="18">
<text text-anchor="middle" x="418.7159" y="-15.9551" font-family="Helvetica,sans-Serif" font-size="10.00" fill="#000000">18</text>
</a>
</g>
</g>
<!-- dir_aebb8dcc11953d78e620bbef0b9e2183&#45;&gt;dir_cf895c1ed808af158264b2f3d8d7f8f0 -->
<g id="edge34" class="edge">
<title>dir_aebb8dcc11953d78e620bbef0b9e2183&#45;&gt;dir_cf895c1ed808af158264b2f3d8d7f8f0</title>
<path fill="none" stroke="#000000" d="M208.3438,-324.1899C206.4501,-330.3505 204.1851,-337.3554 203,-344 198.9421,-366.7521 198.9226,-373.2514 203,-396 204.58,-404.815 207.503,-414.0727 210.2502,-422.3841"/>
<polygon fill="#000000" stroke="#000000" points="206.9529,-423.561 213.4118,-431.9594 213.5999,-421.3662 206.9529,-423.561"/>
<g id="a_edge34&#45;headlabel"><a xlink:href="dir_000020_000004.xhtml" target="_top" xlink:title="4">
<text text-anchor="middle" x="203.1298" y="-418.5379" font-family="Helvetica,sans-Serif" font-size="10.00" fill="#000000">4</text>
</a>
</g>
</g>
<!-- dir_aebb8dcc11953d78e620bbef0b9e2183&#45;&gt;dir_214608ef36d61442cb2b0c1c4e9a7def -->
<g id="edge35" class="edge">
<title>dir_aebb8dcc11953d78e620bbef0b9e2183&#45;&gt;dir_214608ef36d61442cb2b0c1c4e9a7def</title>
<path fill="none" stroke="#000000" d="M233.2284,-287.8045C247.3953,-277.4709 265.3244,-264.1989 281,-252 300.9404,-236.4822 302.8384,-228.136 325,-216 360.5778,-196.5172 404.3482,-182.5952 437.8654,-173.7716"/>
<polygon fill="#000000" stroke="#000000" points="439.0991,-177.0687 447.9176,-171.1965 437.3619,-170.2877 439.0991,-177.0687"/>
<g id="a_edge35&#45;headlabel"><a xlink:href="dir_000020_000000.xhtml" target="_top" xlink:title="604">
<text text-anchor="middle" x="436.3215" y="-178.2111" font-family="Helvetica,sans-Serif" font-size="10.00" fill="#000000">604</text>
</a>
</g>
</g>
<!-- dir_aebb8dcc11953d78e620bbef0b9e2183&#45;&gt;dir_5815af820a9cc9481f1d0990a0d60286 -->
<g id="edge36" class="edge">
<title>dir_aebb8dcc11953d78e620bbef0b9e2183&#45;&gt;dir_5815af820a9cc9481f1d0990a0d60286</title>
<path fill="none" stroke="#000000" d="M180.9448,-294.5251C163.7961,-285.6536 143.0213,-271.564 133,-252 96.5278,-180.7976 82.9147,-134.3816 133,-72 158.4845,-40.2588 277.7031,-26.0368 339.5521,-20.7049"/>
<polygon fill="#000000" stroke="#000000" points="340.0035,-24.1796 349.681,-19.8671 339.4264,-17.2034 340.0035,-24.1796"/>
<g id="a_edge36&#45;headlabel"><a xlink:href="dir_000020_000032.xhtml" target="_top" xlink:title="56">
<text text-anchor="middle" x="336.6552" y="-24.8054" font-family="Helvetica,sans-Serif" font-size="10.00" fill="#000000">56</text>
</a>
</g>
</g>
<!-- dir_aebb8dcc11953d78e620bbef0b9e2183&#45;&gt;dir_fdedb0aba14d44ce9d99bc100e026e6a -->
<g id="edge37" class="edge">
<title>dir_aebb8dcc11953d78e620bbef0b9e2183&#45;&gt;dir_fdedb0aba14d44ce9d99bc100e026e6a</title>
<path fill="none" stroke="#000000" d="M216.832,-287.8314C220.6986,-279.8771 225.3206,-270.369 229.5968,-261.5723"/>
<polygon fill="#000000" stroke="#000000" points="232.8249,-262.9371 234.0491,-252.4133 226.5293,-259.8768 232.8249,-262.9371"/>
<g id="a_edge37&#45;headlabel"><a xlink:href="dir_000020_000019.xhtml" target="_top" xlink:title="5">
<text text-anchor="middle" x="233.807" y="-264.9113" font-family="Helvetica,sans-Serif" font-size="10.00" fill="#000000">5</text>
</a>
</g>
</g>
<!-- dir_5815af820a9cc9481f1d0990a0d60286&#45;&gt;dir_214608ef36d61442cb2b0c1c4e9a7def -->
<g id="edge40" class="edge">
<title>dir_5815af820a9cc9481f1d0990a0d60286&#45;&gt;dir_214608ef36d61442cb2b0c1c4e9a7def</title>
<path fill="none" stroke="#000000" d="M404.1031,-19.8648C437.1482,-23.7677 490.8558,-35.7188 515,-72 527.3915,-90.6205 521.2896,-116.0167 511.7993,-135.0842"/>
<polygon fill="#000000" stroke="#000000" points="508.7123,-133.4343 506.9345,-143.8789 514.8376,-136.8226 508.7123,-133.4343"/>
<g id="a_edge40&#45;headlabel"><a xlink:href="dir_000032_000000.xhtml" target="_top" xlink:title="6">
<text text-anchor="middle" x="507.9677" y="-126.4145" font-family="Helvetica,sans-Serif" font-size="10.00" fill="#000000">6</text>
</a>
</g>
</g>
<!-- dir_fdedb0aba14d44ce9d99bc100e026e6a&#45;&gt;dir_cbdb8362360e11eafe2fa3bc74cf0ffd -->
<g id="edge41" class="edge">
<title>dir_fdedb0aba14d44ce9d99bc100e026e6a&#45;&gt;dir_cbdb8362360e11eafe2fa3bc74cf0ffd</title>
<path fill="none" stroke="#000000" d="M271.7497,-215.7623C313.1325,-189.5106 389.4379,-141.1055 434.3521,-112.6137"/>
<polygon fill="#000000" stroke="#000000" points="436.3273,-115.5055 442.8967,-107.1933 432.5776,-109.5945 436.3273,-115.5055"/>
<g id="a_edge41&#45;headlabel"><a xlink:href="dir_000019_000041.xhtml" target="_top" xlink:title="1">
<text text-anchor="middle" x="434.8128" y="-117.3286" font-family="Helvetica,sans-Serif" font-size="10.00" fill="#000000">1</text>
</a>
</g>
</g>
<!-- dir_fdedb0aba14d44ce9d99bc100e026e6a&#45;&gt;dir_214608ef36d61442cb2b0c1c4e9a7def -->
<g id="edge42" class="edge">
<title>dir_fdedb0aba14d44ce9d99bc100e026e6a&#45;&gt;dir_214608ef36d61442cb2b0c1c4e9a7def</title>
<path fill="none" stroke="#000000" d="M272.6272,-221.2765C277.3951,-219.4039 282.3059,-217.5773 287,-216 337.6188,-198.9918 396.7454,-183.7736 438.0867,-173.8621"/>
<polygon fill="#000000" stroke="#000000" points="439.0161,-177.2388 447.9353,-171.5207 437.3969,-170.4286 439.0161,-177.2388"/>
<g id="a_edge42&#45;headlabel"><a xlink:href="dir_000019_000000.xhtml" target="_top" xlink:title="17">
<text text-anchor="middle" x="436.1756" y="-178.3325" font-family="Helvetica,sans-Serif" font-size="10.00" fill="#000000">17</text>
</a>
</g>
</g>
<!-- dir_fdedb0aba14d44ce9d99bc100e026e6a&#45;&gt;dir_5815af820a9cc9481f1d0990a0d60286 -->
<g id="edge43" class="edge">
<title>dir_fdedb0aba14d44ce9d99bc100e026e6a&#45;&gt;dir_5815af820a9cc9481f1d0990a0d60286</title>
<path fill="none" stroke="#000000" d="M254.1943,-215.9555C277.792,-177.9173 332.7409,-89.3431 360.4282,-44.7127"/>
<polygon fill="#000000" stroke="#000000" points="363.4458,-46.4878 365.7433,-36.1451 357.4975,-42.7976 363.4458,-46.4878"/>
<g id="a_edge43&#45;headlabel"><a xlink:href="dir_000019_000032.xhtml" target="_top" xlink:title="2">
<text text-anchor="middle" x="363.9636" y="-48.5391" font-family="Helvetica,sans-Serif" font-size="10.00" fill="#000000">2</text>
</a>
</g>
</g>
</g>
</svg>
