<?xml version="1.0" encoding="UTF-8" standalone="no"?>
<!DOCTYPE svg PUBLIC "-//W3C//DTD SVG 1.1//EN"
 "http://www.w3.org/Graphics/SVG/1.1/DTD/svg11.dtd">
<!-- Generated by graphviz version 2.40.1 (20161225.0304)
 -->
<!-- Title: tests/CL Pages: 1 -->
<svg width="201pt" height="295pt"
 viewBox="0.00 0.00 201.19 295.00" xmlns="http://www.w3.org/2000/svg" xmlns:xlink="http://www.w3.org/1999/xlink">
<g id="graph0" class="graph" transform="scale(1 1) rotate(0) translate(4 291)">
<title>tests/CL</title>
<polygon fill="#ffffff" stroke="transparent" points="-4,4 -4,-291 197.1914,-291 197.1914,4 -4,4"/>
<g id="clust1" class="cluster">
<title>clusterdir_59425e443f801f1f2fd8bbe4959a3ccf</title>
<g id="a_clust1"><a xlink:href="dir_59425e443f801f1f2fd8bbe4959a3ccf.xhtml" target="_top" xlink:title="tests">
<polygon fill="#ddddee" stroke="#000000" points="78,-208 78,-279 148,-279 148,-208 78,-208"/>
<text text-anchor="middle" x="113" y="-267" font-family="Helvetica,sans-Serif" font-size="10.00" fill="#000000">tests</text>
</a>
</g>
</g>
<!-- dir_896191444cf08ec8ade6f88256cb2bdd -->
<g id="node1" class="node">
<title>dir_896191444cf08ec8ade6f88256cb2bdd</title>
<g id="a_node1"><a xlink:href="dir_896191444cf08ec8ade6f88256cb2bdd.xhtml" target="_top" xlink:title="CL">
<polygon fill="#eeeeff" stroke="#000000" points="140,-252 86,-252 86,-216 140,-216 140,-252"/>
<text text-anchor="middle" x="113" y="-231.5" font-family="Helvetica,sans-Serif" font-size="10.00" fill="#000000">CL</text>
</a>
</g>
</g>
<!-- dir_68267d1309a1af8e8297ef4c3efbcdba -->
<g id="node2" class="node">
<title>dir_68267d1309a1af8e8297ef4c3efbcdba</title>
<g id="a_node2"><a xlink:href="dir_68267d1309a1af8e8297ef4c3efbcdba.xhtml" target="_top" xlink:title="src">
<polygon fill="#ffffff" stroke="#ff0000" points="54,-180 0,-180 0,-144 54,-144 54,-180"/>
<text text-anchor="middle" x="27" y="-159.5" font-family="Helvetica,sans-Serif" font-size="10.00" fill="#000000">src</text>
</a>
</g>
</g>
<!-- dir_896191444cf08ec8ade6f88256cb2bdd&#45;&gt;dir_68267d1309a1af8e8297ef4c3efbcdba -->
<g id="edge6" class="edge">
<title>dir_896191444cf08ec8ade6f88256cb2bdd&#45;&gt;dir_68267d1309a1af8e8297ef4c3efbcdba</title>
<path fill="none" stroke="#000000" d="M91.2986,-215.8314C80.8079,-207.0485 68.0545,-196.3712 56.6806,-186.8489"/>
<polygon fill="#000000" stroke="#000000" points="58.6089,-183.8986 48.6945,-180.1628 54.1153,-189.2659 58.6089,-183.8986"/>
<g id="a_edge6&#45;headlabel"><a xlink:href="dir_000524_000003.xhtml" target="_top" xlink:title="4">
<text text-anchor="middle" x="63.1877" y="-181.529" font-family="Helvetica,sans-Serif" font-size="10.00" fill="#000000">4</text>
</a>
</g>
</g>
<!-- dir_9e71e2da941d3cafc4d98a9f6ae3de4f -->
<g id="node3" class="node">
<title>dir_9e71e2da941d3cafc4d98a9f6ae3de4f</title>
<g id="a_node3"><a xlink:href="dir_9e71e2da941d3cafc4d98a9f6ae3de4f.xhtml" target="_top" xlink:title="framework">
<polygon fill="#ffffff" stroke="#ff0000" points="180,-180 110,-180 110,-144 180,-144 180,-180"/>
<text text-anchor="middle" x="145" y="-159.5" font-family="Helvetica,sans-Serif" font-size="10.00" fill="#000000">framework</text>
</a>
</g>
</g>
<!-- dir_896191444cf08ec8ade6f88256cb2bdd&#45;&gt;dir_9e71e2da941d3cafc4d98a9f6ae3de4f -->
<g id="edge7" class="edge">
<title>dir_896191444cf08ec8ade6f88256cb2bdd&#45;&gt;dir_9e71e2da941d3cafc4d98a9f6ae3de4f</title>
<path fill="none" stroke="#000000" d="M121.075,-215.8314C124.6102,-207.8771 128.836,-198.369 132.7456,-189.5723"/>
<polygon fill="#000000" stroke="#000000" points="135.9532,-190.9729 136.8163,-180.4133 129.5565,-188.1299 135.9532,-190.9729"/>
<g id="a_edge7&#45;headlabel"><a xlink:href="dir_000524_000039.xhtml" target="_top" xlink:title="1">
<text text-anchor="middle" x="137.0879" y="-192.9108" font-family="Helvetica,sans-Serif" font-size="10.00" fill="#000000">1</text>
</a>
</g>
</g>
<!-- dir_214608ef36d61442cb2b0c1c4e9a7def -->
<g id="node4" class="node">
<title>dir_214608ef36d61442cb2b0c1c4e9a7def</title>
<g id="a_node4"><a xlink:href="dir_214608ef36d61442cb2b0c1c4e9a7def.xhtml" target="_top" xlink:title="arm_compute">
<polygon fill="#ffffff" stroke="#ff0000" points="132,-108 48,-108 48,-72 132,-72 132,-108"/>
<text text-anchor="middle" x="90" y="-87.5" font-family="Helvetica,sans-Serif" font-size="10.00" fill="#000000">arm_compute</text>
</a>
</g>
</g>
<!-- dir_896191444cf08ec8ade6f88256cb2bdd&#45;&gt;dir_214608ef36d61442cb2b0c1c4e9a7def -->
<g id="edge8" class="edge">
<title>dir_896191444cf08ec8ade6f88256cb2bdd&#45;&gt;dir_214608ef36d61442cb2b0c1c4e9a7def</title>
<path fill="none" stroke="#000000" d="M108.4445,-215.5934C105.9879,-205.1937 103.0489,-191.9259 101,-180 97.4517,-159.347 94.6192,-135.8361 92.7175,-118.0246"/>
<polygon fill="#000000" stroke="#000000" points="96.1915,-117.5916 91.6813,-108.0046 89.2286,-118.3116 96.1915,-117.5916"/>
<g id="a_edge8&#45;headlabel"><a xlink:href="dir_000524_000000.xhtml" target="_top" xlink:title="6">
<text text-anchor="middle" x="99.3853" y="-118.3751" font-family="Helvetica,sans-Serif" font-size="10.00" fill="#000000">6</text>
</a>
</g>
</g>
<!-- dir_5815af820a9cc9481f1d0990a0d60286 -->
<g id="node5" class="node">
<title>dir_5815af820a9cc9481f1d0990a0d60286</title>
<g id="a_node5"><a xlink:href="dir_5815af820a9cc9481f1d0990a0d60286.xhtml" target="_top" xlink:title="support">
<polygon fill="none" stroke="#000000" points="117,-36 63,-36 63,0 117,0 117,-36"/>
<text text-anchor="middle" x="90" y="-15.5" font-family="Helvetica,sans-Serif" font-size="10.00" fill="#000000">support</text>
</a>
</g>
</g>
<!-- dir_896191444cf08ec8ade6f88256cb2bdd&#45;&gt;dir_5815af820a9cc9481f1d0990a0d60286 -->
<g id="edge9" class="edge">
<title>dir_896191444cf08ec8ade6f88256cb2bdd&#45;&gt;dir_5815af820a9cc9481f1d0990a0d60286</title>
<path fill="none" stroke="#000000" d="M140.0255,-222.8087C157.4702,-213.9893 178.7544,-199.8482 189,-180 196.339,-165.7825 192.1379,-159.6893 189,-144 182.2013,-110.0065 180.0011,-99.5814 159,-72 149.805,-59.9239 137.2953,-49.0579 125.4518,-40.2933"/>
<polygon fill="#000000" stroke="#000000" points="127.1829,-37.2299 117.0026,-34.2954 123.1309,-42.938 127.1829,-37.2299"/>
<g id="a_edge9&#45;headlabel"><a xlink:href="dir_000524_000032.xhtml" target="_top" xlink:title="1">
<text text-anchor="middle" x="131.7576" y="-34.4954" font-family="Helvetica,sans-Serif" font-size="10.00" fill="#000000">1</text>
</a>
</g>
</g>
<!-- dir_68267d1309a1af8e8297ef4c3efbcdba&#45;&gt;dir_214608ef36d61442cb2b0c1c4e9a7def -->
<g id="edge1" class="edge">
<title>dir_68267d1309a1af8e8297ef4c3efbcdba&#45;&gt;dir_214608ef36d61442cb2b0c1c4e9a7def</title>
<path fill="none" stroke="#000000" d="M42.8976,-143.8314C50.2278,-135.454 59.066,-125.3531 67.0969,-116.1749"/>
<polygon fill="#000000" stroke="#000000" points="69.9373,-118.2438 73.8884,-108.4133 64.6693,-113.6343 69.9373,-118.2438"/>
<g id="a_edge1&#45;headlabel"><a xlink:href="dir_000003_000000.xhtml" target="_top" xlink:title="3175">
<text text-anchor="middle" x="69.7071" y="-120.3187" font-family="Helvetica,sans-Serif" font-size="10.00" fill="#000000">3175</text>
</a>
</g>
</g>
<!-- dir_68267d1309a1af8e8297ef4c3efbcdba&#45;&gt;dir_5815af820a9cc9481f1d0990a0d60286 -->
<g id="edge2" class="edge">
<title>dir_68267d1309a1af8e8297ef4c3efbcdba&#45;&gt;dir_5815af820a9cc9481f1d0990a0d60286</title>
<path fill="none" stroke="#000000" d="M26.2223,-143.8324C26.1272,-124.9701 28.0147,-95.0529 39,-72 44.0116,-61.483 51.8376,-51.6638 59.8675,-43.3596"/>
<polygon fill="#000000" stroke="#000000" points="62.5102,-45.671 67.2242,-36.1827 57.6221,-40.6604 62.5102,-45.671"/>
<g id="a_edge2&#45;headlabel"><a xlink:href="dir_000003_000032.xhtml" target="_top" xlink:title="221">
<text text-anchor="middle" x="61.9199" y="-47.7135" font-family="Helvetica,sans-Serif" font-size="10.00" fill="#000000">221</text>
</a>
</g>
</g>
<!-- dir_9e71e2da941d3cafc4d98a9f6ae3de4f&#45;&gt;dir_214608ef36d61442cb2b0c1c4e9a7def -->
<g id="edge3" class="edge">
<title>dir_9e71e2da941d3cafc4d98a9f6ae3de4f&#45;&gt;dir_214608ef36d61442cb2b0c1c4e9a7def</title>
<path fill="none" stroke="#000000" d="M131.1212,-143.8314C124.7864,-135.5386 117.1616,-125.557 110.2074,-116.4533"/>
<polygon fill="#000000" stroke="#000000" points="112.9175,-114.2353 104.0657,-108.4133 107.3548,-118.4847 112.9175,-114.2353"/>
<g id="a_edge3&#45;headlabel"><a xlink:href="dir_000039_000000.xhtml" target="_top" xlink:title="16">
<text text-anchor="middle" x="117.3558" y="-112.8683" font-family="Helvetica,sans-Serif" font-size="10.00" fill="#000000">16</text>
</a>
</g>
</g>
<!-- dir_9e71e2da941d3cafc4d98a9f6ae3de4f&#45;&gt;dir_5815af820a9cc9481f1d0990a0d60286 -->
<g id="edge4" class="edge">
<title>dir_9e71e2da941d3cafc4d98a9f6ae3de4f&#45;&gt;dir_5815af820a9cc9481f1d0990a0d60286</title>
<path fill="none" stroke="#000000" d="M147.775,-143.945C149.8585,-125.1745 150.8815,-95.3312 141,-72 136.4951,-61.3634 128.8984,-51.5588 120.9252,-43.3063"/>
<polygon fill="#000000" stroke="#000000" points="123.1923,-40.6295 113.5749,-36.1845 118.3213,-45.6568 123.1923,-40.6295"/>
<g id="a_edge4&#45;headlabel"><a xlink:href="dir_000039_000032.xhtml" target="_top" xlink:title="6">
<text text-anchor="middle" x="127.7496" y="-38.5917" font-family="Helvetica,sans-Serif" font-size="10.00" fill="#000000">6</text>
</a>
</g>
</g>
<!-- dir_214608ef36d61442cb2b0c1c4e9a7def&#45;&gt;dir_5815af820a9cc9481f1d0990a0d60286 -->
<g id="edge5" class="edge">
<title>dir_214608ef36d61442cb2b0c1c4e9a7def&#45;&gt;dir_5815af820a9cc9481f1d0990a0d60286</title>
<path fill="none" stroke="#000000" d="M84.0476,-71.8314C83.2972,-64.131 83.0763,-54.9743 83.3849,-46.4166"/>
<polygon fill="#000000" stroke="#000000" points="86.8792,-46.6161 84.024,-36.4133 79.8935,-46.1697 86.8792,-46.6161"/>
<g id="a_edge5&#45;headlabel"><a xlink:href="dir_000000_000032.xhtml" target="_top" xlink:title="18">
<text text-anchor="middle" x="89.4836" y="-47.8844" font-family="Helvetica,sans-Serif" font-size="10.00" fill="#000000">18</text>
</a>
</g>
</g>
<!-- dir_5815af820a9cc9481f1d0990a0d60286&#45;&gt;dir_214608ef36d61442cb2b0c1c4e9a7def -->
<g id="edge10" class="edge">
<title>dir_5815af820a9cc9481f1d0990a0d60286&#45;&gt;dir_214608ef36d61442cb2b0c1c4e9a7def</title>
<path fill="none" stroke="#000000" d="M95.976,-36.4133C96.7071,-44.0593 96.9203,-53.1084 96.6155,-61.5726"/>
<polygon fill="#000000" stroke="#000000" points="93.1048,-61.6264 95.9524,-71.8314 100.0902,-62.078 93.1048,-61.6264"/>
<g id="a_edge10&#45;headlabel"><a xlink:href="dir_000032_000000.xhtml" target="_top" xlink:title="6">
<text text-anchor="middle" x="90.5032" y="-55.3562" font-family="Helvetica,sans-Serif" font-size="10.00" fill="#000000">6</text>
</a>
</g>
</g>
</g>
</svg>
