<?xml version="1.0" encoding="UTF-8" standalone="no"?>
<!DOCTYPE svg PUBLIC "-//W3C//DTD SVG 1.1//EN"
 "http://www.w3.org/Graphics/SVG/1.1/DTD/svg11.dtd">
<!-- Generated by graphviz version 2.40.1 (20161225.0304)
 -->
<!-- Title: arm_compute/dynamic_fusion/sketch/gpu Pages: 1 -->
<svg width="192pt" height="231pt"
 viewBox="0.00 0.00 192.00 231.00" xmlns="http://www.w3.org/2000/svg" xmlns:xlink="http://www.w3.org/1999/xlink">
<g id="graph0" class="graph" transform="scale(1 1) rotate(0) translate(4 227)">
<title>arm_compute/dynamic_fusion/sketch/gpu</title>
<polygon fill="#ffffff" stroke="transparent" points="-4,4 -4,-227 188,-227 188,4 -4,4"/>
<g id="clust1" class="cluster">
<title>clusterdir_3259c0fb095abc99930fe6844d6dd442</title>
<g id="a_clust1"><a xlink:href="dir_3259c0fb095abc99930fe6844d6dd442.xhtml" target="_top" xlink:title="sketch">
<polygon fill="#ddddee" stroke="#000000" points="8,-128 8,-215 176,-215 176,-128 8,-128"/>
<text text-anchor="middle" x="92" y="-203" font-family="Helvetica,sans-Serif" font-size="10.00" fill="#000000">sketch</text>
</a>
</g>
</g>
<g id="clust2" class="cluster">
<title>clusterdir_14626d6ef94760c2ad0cd0335cce44ee</title>
<g id="a_clust2"><a xlink:href="dir_14626d6ef94760c2ad0cd0335cce44ee.xhtml" target="_top">
<polygon fill="#eeeeff" stroke="#000000" points="16,-136 16,-188 168,-188 168,-136 16,-136"/>
</a>
</g>
</g>
<!-- dir_14626d6ef94760c2ad0cd0335cce44ee -->
<g id="node1" class="node">
<title>dir_14626d6ef94760c2ad0cd0335cce44ee</title>
<text text-anchor="middle" x="51" y="-159.5" font-family="Helvetica,sans-Serif" font-size="10.00" fill="#000000">gpu</text>
</g>
<!-- dir_1fb090f0c6070330bfaccc4236d3ca0d -->
<g id="node4" class="node">
<title>dir_1fb090f0c6070330bfaccc4236d3ca0d</title>
<g id="a_node4"><a xlink:href="dir_1fb090f0c6070330bfaccc4236d3ca0d.xhtml" target="_top" xlink:title="core">
<polygon fill="#ffffff" stroke="#ff0000" points="138,-36 84,-36 84,0 138,0 138,-36"/>
<text text-anchor="middle" x="111" y="-15.5" font-family="Helvetica,sans-Serif" font-size="10.00" fill="#000000">core</text>
</a>
</g>
</g>
<!-- dir_14626d6ef94760c2ad0cd0335cce44ee&#45;&gt;dir_1fb090f0c6070330bfaccc4236d3ca0d -->
<g id="edge2" class="edge">
<title>dir_14626d6ef94760c2ad0cd0335cce44ee&#45;&gt;dir_1fb090f0c6070330bfaccc4236d3ca0d</title>
<path fill="none" stroke="#000000" d="M52.4919,-143.6774C54.5523,-124.9522 59.3117,-95.3838 70,-72 74.4775,-62.2043 80.992,-52.5125 87.5154,-44.1017"/>
<polygon fill="#000000" stroke="#000000" points="90.3772,-46.1297 93.9667,-36.1615 84.9444,-41.7156 90.3772,-46.1297"/>
<g id="a_edge2&#45;headlabel"><a xlink:href="dir_000057_000001.xhtml" target="_top" xlink:title="9">
<text text-anchor="middle" x="90.3142" y="-48.21" font-family="Helvetica,sans-Serif" font-size="10.00" fill="#000000">9</text>
</a>
</g>
</g>
<!-- dir_2d04589ec4a450f8bb275c6c932eac90 -->
<g id="node2" class="node">
<title>dir_2d04589ec4a450f8bb275c6c932eac90</title>
<g id="a_node2"><a xlink:href="dir_2d04589ec4a450f8bb275c6c932eac90.xhtml" target="_top" xlink:title="operators">
<polygon fill="#ffffff" stroke="#000000" points="159.5,-180 96.5,-180 96.5,-144 159.5,-144 159.5,-180"/>
<text text-anchor="middle" x="128" y="-159.5" font-family="Helvetica,sans-Serif" font-size="10.00" fill="#000000">operators</text>
</a>
</g>
</g>
<!-- dir_fb60af501ba790f5a2523771a799cc00 -->
<g id="node3" class="node">
<title>dir_fb60af501ba790f5a2523771a799cc00</title>
<g id="a_node3"><a xlink:href="dir_fb60af501ba790f5a2523771a799cc00.xhtml" target="_top" xlink:title="attributes">
<polygon fill="none" stroke="#000000" points="143,-108 79,-108 79,-72 143,-72 143,-108"/>
<text text-anchor="middle" x="111" y="-87.5" font-family="Helvetica,sans-Serif" font-size="10.00" fill="#000000">attributes</text>
</a>
</g>
</g>
<!-- dir_2d04589ec4a450f8bb275c6c932eac90&#45;&gt;dir_fb60af501ba790f5a2523771a799cc00 -->
<g id="edge3" class="edge">
<title>dir_2d04589ec4a450f8bb275c6c932eac90&#45;&gt;dir_fb60af501ba790f5a2523771a799cc00</title>
<path fill="none" stroke="#000000" d="M123.7102,-143.8314C121.892,-136.131 119.7301,-126.9743 117.7095,-118.4166"/>
<polygon fill="#000000" stroke="#000000" points="121.0519,-117.3414 115.3476,-108.4133 114.2392,-118.95 121.0519,-117.3414"/>
<g id="a_edge3&#45;headlabel"><a xlink:href="dir_000058_000056.xhtml" target="_top" xlink:title="8">
<text text-anchor="middle" x="124.6412" y="-117.6874" font-family="Helvetica,sans-Serif" font-size="10.00" fill="#000000">8</text>
</a>
</g>
</g>
<!-- dir_2d04589ec4a450f8bb275c6c932eac90&#45;&gt;dir_1fb090f0c6070330bfaccc4236d3ca0d -->
<g id="edge4" class="edge">
<title>dir_2d04589ec4a450f8bb275c6c932eac90&#45;&gt;dir_1fb090f0c6070330bfaccc4236d3ca0d</title>
<path fill="none" stroke="#000000" d="M139.076,-143.8685C148.8157,-125.5475 160.2543,-96.5216 152,-72 148.6203,-61.9596 142.5495,-52.3047 136.0975,-44.0052"/>
<polygon fill="#000000" stroke="#000000" points="138.6879,-41.6461 129.604,-36.1933 133.3048,-46.1208 138.6879,-41.6461"/>
<g id="a_edge4&#45;headlabel"><a xlink:href="dir_000058_000001.xhtml" target="_top" xlink:title="7">
<text text-anchor="middle" x="143.1691" y="-40.0955" font-family="Helvetica,sans-Serif" font-size="10.00" fill="#000000">7</text>
</a>
</g>
</g>
<!-- dir_fb60af501ba790f5a2523771a799cc00&#45;&gt;dir_1fb090f0c6070330bfaccc4236d3ca0d -->
<g id="edge1" class="edge">
<title>dir_fb60af501ba790f5a2523771a799cc00&#45;&gt;dir_1fb090f0c6070330bfaccc4236d3ca0d</title>
<path fill="none" stroke="#000000" d="M111,-71.8314C111,-64.131 111,-54.9743 111,-46.4166"/>
<polygon fill="#000000" stroke="#000000" points="114.5001,-46.4132 111,-36.4133 107.5001,-46.4133 114.5001,-46.4132"/>
<g id="a_edge1&#45;headlabel"><a xlink:href="dir_000056_000001.xhtml" target="_top" xlink:title="10">
<text text-anchor="middle" x="117.3393" y="-47.5079" font-family="Helvetica,sans-Serif" font-size="10.00" fill="#000000">10</text>
</a>
</g>
</g>
</g>
</svg>
