<?xml version="1.0" encoding="UTF-8" standalone="no"?>
<!DOCTYPE svg PUBLIC "-//W3C//DTD SVG 1.1//EN"
 "http://www.w3.org/Graphics/SVG/1.1/DTD/svg11.dtd">
<!-- Generated by graphviz version 2.40.1 (20161225.0304)
 -->
<!-- Title: tests/validation/dynamic_fusion Pages: 1 -->
<svg width="290pt" height="303pt"
 viewBox="0.00 0.00 289.50 303.00" xmlns="http://www.w3.org/2000/svg" xmlns:xlink="http://www.w3.org/1999/xlink">
<g id="graph0" class="graph" transform="scale(1 1) rotate(0) translate(4 299)">
<title>tests/validation/dynamic_fusion</title>
<polygon fill="#ffffff" stroke="transparent" points="-4,4 -4,-299 285.5,-299 285.5,4 -4,4"/>
<g id="clust1" class="cluster">
<title>clusterdir_e7c7b16542faa38cb4655ff1750d3604</title>
<g id="a_clust1"><a xlink:href="dir_e7c7b16542faa38cb4655ff1750d3604.xhtml" target="_top" xlink:title="validation">
<polygon fill="#ddddee" stroke="#000000" points="75.5,-200 75.5,-287 273.5,-287 273.5,-200 75.5,-200"/>
<text text-anchor="middle" x="174.5" y="-275" font-family="Helvetica,sans-Serif" font-size="10.00" fill="#000000">validation</text>
</a>
</g>
</g>
<g id="clust2" class="cluster">
<title>clusterdir_d178b4fe845b8ce36c704432820c8c40</title>
<g id="a_clust2"><a xlink:href="dir_d178b4fe845b8ce36c704432820c8c40.xhtml" target="_top">
<polygon fill="#eeeeff" stroke="#000000" points="83.5,-208 83.5,-260 265.5,-260 265.5,-208 83.5,-208"/>
</a>
</g>
</g>
<!-- dir_d178b4fe845b8ce36c704432820c8c40 -->
<g id="node1" class="node">
<title>dir_d178b4fe845b8ce36c704432820c8c40</title>
<text text-anchor="middle" x="210.5" y="-231.5" font-family="Helvetica,sans-Serif" font-size="10.00" fill="#000000">dynamic_fusion</text>
</g>
<!-- dir_36525c4f440e1302e710dd3570052bdf -->
<g id="node2" class="node">
<title>dir_36525c4f440e1302e710dd3570052bdf</title>
<g id="a_node2"><a xlink:href="dir_36525c4f440e1302e710dd3570052bdf.xhtml" target="_top" xlink:title="gpu">
<polygon fill="#ffffff" stroke="#ff0000" points="145.5,-252 91.5,-252 91.5,-216 145.5,-216 145.5,-252"/>
<text text-anchor="middle" x="118.5" y="-231.5" font-family="Helvetica,sans-Serif" font-size="10.00" fill="#000000">gpu</text>
</a>
</g>
</g>
<!-- dir_46fdb196cebdbffe77dac340cde62f29 -->
<g id="node3" class="node">
<title>dir_46fdb196cebdbffe77dac340cde62f29</title>
<g id="a_node3"><a xlink:href="dir_46fdb196cebdbffe77dac340cde62f29.xhtml" target="_top" xlink:title="reference">
<polygon fill="none" stroke="#000000" points="63,-180 0,-180 0,-144 63,-144 63,-180"/>
<text text-anchor="middle" x="31.5" y="-159.5" font-family="Helvetica,sans-Serif" font-size="10.00" fill="#000000">reference</text>
</a>
</g>
</g>
<!-- dir_36525c4f440e1302e710dd3570052bdf&#45;&gt;dir_46fdb196cebdbffe77dac340cde62f29 -->
<g id="edge4" class="edge">
<title>dir_36525c4f440e1302e710dd3570052bdf&#45;&gt;dir_46fdb196cebdbffe77dac340cde62f29</title>
<path fill="none" stroke="#000000" d="M96.5462,-215.8314C85.8305,-206.9632 72.7811,-196.1637 61.191,-186.5718"/>
<polygon fill="#000000" stroke="#000000" points="63.3822,-183.8422 53.4467,-180.1628 58.9192,-189.2349 63.3822,-183.8422"/>
<g id="a_edge4&#45;headlabel"><a xlink:href="dir_000529_000013.xhtml" target="_top" xlink:title="5">
<text text-anchor="middle" x="67.9617" y="-181.4466" font-family="Helvetica,sans-Serif" font-size="10.00" fill="#000000">5</text>
</a>
</g>
</g>
<!-- dir_9e71e2da941d3cafc4d98a9f6ae3de4f -->
<g id="node4" class="node">
<title>dir_9e71e2da941d3cafc4d98a9f6ae3de4f</title>
<g id="a_node4"><a xlink:href="dir_9e71e2da941d3cafc4d98a9f6ae3de4f.xhtml" target="_top" xlink:title="framework">
<polygon fill="#ffffff" stroke="#ff0000" points="128.5,-108 58.5,-108 58.5,-72 128.5,-72 128.5,-108"/>
<text text-anchor="middle" x="93.5" y="-87.5" font-family="Helvetica,sans-Serif" font-size="10.00" fill="#000000">framework</text>
</a>
</g>
</g>
<!-- dir_36525c4f440e1302e710dd3570052bdf&#45;&gt;dir_9e71e2da941d3cafc4d98a9f6ae3de4f -->
<g id="edge5" class="edge">
<title>dir_36525c4f440e1302e710dd3570052bdf&#45;&gt;dir_9e71e2da941d3cafc4d98a9f6ae3de4f</title>
<path fill="none" stroke="#000000" d="M115.3337,-215.7623C111.0508,-191.0928 103.3715,-146.8598 98.3564,-117.9731"/>
<polygon fill="#000000" stroke="#000000" points="101.7996,-117.3435 96.6406,-108.0896 94.9027,-118.541 101.7996,-117.3435"/>
<g id="a_edge5&#45;headlabel"><a xlink:href="dir_000529_000039.xhtml" target="_top" xlink:title="34">
<text text-anchor="middle" x="105.2118" y="-117.8995" font-family="Helvetica,sans-Serif" font-size="10.00" fill="#000000">34</text>
</a>
</g>
</g>
<!-- dir_214608ef36d61442cb2b0c1c4e9a7def -->
<g id="node5" class="node">
<title>dir_214608ef36d61442cb2b0c1c4e9a7def</title>
<g id="a_node5"><a xlink:href="dir_214608ef36d61442cb2b0c1c4e9a7def.xhtml" target="_top" xlink:title="arm_compute">
<polygon fill="#ffffff" stroke="#ff0000" points="166.5,-36 82.5,-36 82.5,0 166.5,0 166.5,-36"/>
<text text-anchor="middle" x="124.5" y="-15.5" font-family="Helvetica,sans-Serif" font-size="10.00" fill="#000000">arm_compute</text>
</a>
</g>
</g>
<!-- dir_36525c4f440e1302e710dd3570052bdf&#45;&gt;dir_214608ef36d61442cb2b0c1c4e9a7def -->
<g id="edge6" class="edge">
<title>dir_36525c4f440e1302e710dd3570052bdf&#45;&gt;dir_214608ef36d61442cb2b0c1c4e9a7def</title>
<path fill="none" stroke="#000000" d="M136.7439,-215.8535C142.3025,-210.5781 148.5256,-204.9163 154.5,-200 166.3089,-190.2826 175.5022,-193.5981 182.5,-180 205.965,-134.4031 171.8824,-77.1153 146.8784,-44.3171"/>
<polygon fill="#000000" stroke="#000000" points="149.3753,-41.8304 140.4402,-36.1369 143.8746,-46.1597 149.3753,-41.8304"/>
<g id="a_edge6&#45;headlabel"><a xlink:href="dir_000529_000000.xhtml" target="_top" xlink:title="28">
<text text-anchor="middle" x="153.8295" y="-40.399" font-family="Helvetica,sans-Serif" font-size="10.00" fill="#000000">28</text>
</a>
</g>
</g>
<!-- dir_896191444cf08ec8ade6f88256cb2bdd -->
<g id="node6" class="node">
<title>dir_896191444cf08ec8ade6f88256cb2bdd</title>
<g id="a_node6"><a xlink:href="dir_896191444cf08ec8ade6f88256cb2bdd.xhtml" target="_top" xlink:title="CL">
<polygon fill="none" stroke="#000000" points="173.5,-180 119.5,-180 119.5,-144 173.5,-144 173.5,-180"/>
<text text-anchor="middle" x="146.5" y="-159.5" font-family="Helvetica,sans-Serif" font-size="10.00" fill="#000000">CL</text>
</a>
</g>
</g>
<!-- dir_36525c4f440e1302e710dd3570052bdf&#45;&gt;dir_896191444cf08ec8ade6f88256cb2bdd -->
<g id="edge7" class="edge">
<title>dir_36525c4f440e1302e710dd3570052bdf&#45;&gt;dir_896191444cf08ec8ade6f88256cb2bdd</title>
<path fill="none" stroke="#000000" d="M125.5656,-215.8314C128.626,-207.9617 132.2779,-198.5712 135.6682,-189.8533"/>
<polygon fill="#000000" stroke="#000000" points="138.9768,-191.0019 139.3393,-180.4133 132.4527,-188.4647 138.9768,-191.0019"/>
<g id="a_edge7&#45;headlabel"><a xlink:href="dir_000529_000524.xhtml" target="_top" xlink:title="12">
<text text-anchor="middle" x="140.3202" y="-192.8812" font-family="Helvetica,sans-Serif" font-size="10.00" fill="#000000">12</text>
</a>
</g>
</g>
<!-- dir_46fdb196cebdbffe77dac340cde62f29&#45;&gt;dir_9e71e2da941d3cafc4d98a9f6ae3de4f -->
<g id="edge1" class="edge">
<title>dir_46fdb196cebdbffe77dac340cde62f29&#45;&gt;dir_9e71e2da941d3cafc4d98a9f6ae3de4f</title>
<path fill="none" stroke="#000000" d="M47.1452,-143.8314C54.3591,-135.454 63.057,-125.3531 70.9605,-116.1749"/>
<polygon fill="#000000" stroke="#000000" points="73.7711,-118.2748 77.6441,-108.4133 68.4667,-113.7071 73.7711,-118.2748"/>
<g id="a_edge1&#45;headlabel"><a xlink:href="dir_000013_000039.xhtml" target="_top" xlink:title="2">
<text text-anchor="middle" x="73.577" y="-120.3514" font-family="Helvetica,sans-Serif" font-size="10.00" fill="#000000">2</text>
</a>
</g>
</g>
<!-- dir_46fdb196cebdbffe77dac340cde62f29&#45;&gt;dir_214608ef36d61442cb2b0c1c4e9a7def -->
<g id="edge2" class="edge">
<title>dir_46fdb196cebdbffe77dac340cde62f29&#45;&gt;dir_214608ef36d61442cb2b0c1c4e9a7def</title>
<path fill="none" stroke="#000000" d="M31.3217,-143.9967C31.9441,-124.7281 35.3523,-93.9715 49.5,-72 57.1888,-60.0593 68.527,-49.92 80.0718,-41.7641"/>
<polygon fill="#000000" stroke="#000000" points="82.0794,-44.6323 88.4655,-36.1784 78.2013,-38.8047 82.0794,-44.6323"/>
<g id="a_edge2&#45;headlabel"><a xlink:href="dir_000013_000000.xhtml" target="_top" xlink:title="83">
<text text-anchor="middle" x="80.6598" y="-46.4874" font-family="Helvetica,sans-Serif" font-size="10.00" fill="#000000">83</text>
</a>
</g>
</g>
<!-- dir_9e71e2da941d3cafc4d98a9f6ae3de4f&#45;&gt;dir_214608ef36d61442cb2b0c1c4e9a7def -->
<g id="edge3" class="edge">
<title>dir_9e71e2da941d3cafc4d98a9f6ae3de4f&#45;&gt;dir_214608ef36d61442cb2b0c1c4e9a7def</title>
<path fill="none" stroke="#000000" d="M101.3226,-71.8314C104.7109,-63.9617 108.7541,-54.5712 112.5076,-45.8533"/>
<polygon fill="#000000" stroke="#000000" points="115.8321,-46.9822 116.5721,-36.4133 109.4027,-44.214 115.8321,-46.9822"/>
<g id="a_edge3&#45;headlabel"><a xlink:href="dir_000039_000000.xhtml" target="_top" xlink:title="16">
<text text-anchor="middle" x="117.0185" y="-48.9066" font-family="Helvetica,sans-Serif" font-size="10.00" fill="#000000">16</text>
</a>
</g>
</g>
<!-- dir_896191444cf08ec8ade6f88256cb2bdd&#45;&gt;dir_9e71e2da941d3cafc4d98a9f6ae3de4f -->
<g id="edge8" class="edge">
<title>dir_896191444cf08ec8ade6f88256cb2bdd&#45;&gt;dir_9e71e2da941d3cafc4d98a9f6ae3de4f</title>
<path fill="none" stroke="#000000" d="M133.1259,-143.8314C127.0838,-135.6232 119.8237,-125.7606 113.1779,-116.7323"/>
<polygon fill="#000000" stroke="#000000" points="115.8011,-114.3918 107.0542,-108.4133 110.1637,-118.5415 115.8011,-114.3918"/>
<g id="a_edge8&#45;headlabel"><a xlink:href="dir_000524_000039.xhtml" target="_top" xlink:title="1">
<text text-anchor="middle" x="120.2186" y="-113.1035" font-family="Helvetica,sans-Serif" font-size="10.00" fill="#000000">1</text>
</a>
</g>
</g>
<!-- dir_896191444cf08ec8ade6f88256cb2bdd&#45;&gt;dir_214608ef36d61442cb2b0c1c4e9a7def -->
<g id="edge9" class="edge">
<title>dir_896191444cf08ec8ade6f88256cb2bdd&#45;&gt;dir_214608ef36d61442cb2b0c1c4e9a7def</title>
<path fill="none" stroke="#000000" d="M145.4242,-143.9738C144.1657,-125.7346 141.7001,-96.7711 137.5,-72 136.0719,-63.5773 134.0753,-54.517 132.0747,-46.2691"/>
<polygon fill="#000000" stroke="#000000" points="135.4169,-45.2082 129.581,-36.3656 128.6288,-46.9175 135.4169,-45.2082"/>
<g id="a_edge9&#45;headlabel"><a xlink:href="dir_000524_000000.xhtml" target="_top" xlink:title="6">
<text text-anchor="middle" x="139.0479" y="-45.5008" font-family="Helvetica,sans-Serif" font-size="10.00" fill="#000000">6</text>
</a>
</g>
</g>
</g>
</svg>
