<?xml version="1.0" encoding="UTF-8" standalone="no"?>
<!DOCTYPE svg PUBLIC "-//W3C//DTD SVG 1.1//EN"
 "http://www.w3.org/Graphics/SVG/1.1/DTD/svg11.dtd">
<!-- Generated by graphviz version 2.40.1 (20161225.0304)
 -->
<!-- Title: Graphical Class Hierarchy Pages: 1 -->
<svg width="354pt" height="88pt"
 viewBox="0.00 0.00 354.00 88.00" xmlns="http://www.w3.org/2000/svg" xmlns:xlink="http://www.w3.org/1999/xlink">
<g id="graph0" class="graph" transform="scale(1 1) rotate(0) translate(4 84)">
<title>Graphical Class Hierarchy</title>
<polygon fill="#ffffff" stroke="transparent" points="-4,4 -4,-84 350,-84 350,4 -4,4"/>
<!-- Node0 -->
<g id="node1" class="node">
<title>Node0</title>
<g id="a_node1"><a xlink:href="classarm__conv_1_1pooling_1_1_i_generic_depthfirst_strategy.xhtml" target="_top" xlink:title="IGenericDepthfirstStrategy\l\&lt; __fp16, __fp16 \&gt;">
<polygon fill="#ffffff" stroke="#000000" points="0,-24.5 0,-54.5 146,-54.5 146,-24.5 0,-24.5"/>
<text text-anchor="start" x="8" y="-42.5" font-family="Helvetica,sans-Serif" font-size="10.00" fill="#000000">IGenericDepthfirstStrategy</text>
<text text-anchor="middle" x="73" y="-31.5" font-family="Helvetica,sans-Serif" font-size="10.00" fill="#000000">&lt; __fp16, __fp16 &gt;</text>
</a>
</g>
</g>
<!-- Node1 -->
<g id="node2" class="node">
<title>Node1</title>
<g id="a_node2"><a xlink:href="structarm__conv_1_1pooling_1_1sme__fp16__nhwc__avg__generic__depthfirst.xhtml" target="_top" xlink:title="sme_fp16_nhwc_avg_generic\l_depthfirst">
<polygon fill="#ffffff" stroke="#000000" points="184,-49.5 184,-79.5 344,-79.5 344,-49.5 184,-49.5"/>
<text text-anchor="start" x="192" y="-67.5" font-family="Helvetica,sans-Serif" font-size="10.00" fill="#000000">sme_fp16_nhwc_avg_generic</text>
<text text-anchor="middle" x="264" y="-56.5" font-family="Helvetica,sans-Serif" font-size="10.00" fill="#000000">_depthfirst</text>
</a>
</g>
</g>
<!-- Node0&#45;&gt;Node1 -->
<g id="edge1" class="edge">
<title>Node0&#45;&gt;Node1</title>
<path fill="none" stroke="#191970" d="M156.2346,-50.3946C165.3492,-51.5876 174.6153,-52.8004 183.6934,-53.9887"/>
<polygon fill="#191970" stroke="#191970" points="156.3962,-46.886 146.0265,-49.0584 155.4876,-53.8268 156.3962,-46.886"/>
</g>
<!-- Node2 -->
<g id="node3" class="node">
<title>Node2</title>
<g id="a_node3"><a xlink:href="structarm__conv_1_1pooling_1_1sme__fp16__nhwc__max__generic__depthfirst.xhtml" target="_top" xlink:title="sme_fp16_nhwc_max_generic\l_depthfirst">
<polygon fill="#ffffff" stroke="#000000" points="182,-.5 182,-30.5 346,-30.5 346,-.5 182,-.5"/>
<text text-anchor="start" x="190" y="-18.5" font-family="Helvetica,sans-Serif" font-size="10.00" fill="#000000">sme_fp16_nhwc_max_generic</text>
<text text-anchor="middle" x="264" y="-7.5" font-family="Helvetica,sans-Serif" font-size="10.00" fill="#000000">_depthfirst</text>
</a>
</g>
</g>
<!-- Node0&#45;&gt;Node2 -->
<g id="edge2" class="edge">
<title>Node0&#45;&gt;Node2</title>
<path fill="none" stroke="#191970" d="M155.9859,-29.0725C164.5374,-27.9979 173.2252,-26.9063 181.7685,-25.8328"/>
<polygon fill="#191970" stroke="#191970" points="155.5121,-25.6044 146.0265,-30.3239 156.3848,-32.5498 155.5121,-25.6044"/>
</g>
</g>
</svg>
