<?xml version="1.0" encoding="UTF-8" standalone="no"?>
<!DOCTYPE svg PUBLIC "-//W3C//DTD SVG 1.1//EN"
 "http://www.w3.org/Graphics/SVG/1.1/DTD/svg11.dtd">
<!-- Generated by graphviz version 2.40.1 (20161225.0304)
 -->
<!-- Title: Conv3dInfo Pages: 1 -->
<svg width="274pt" height="106pt"
 viewBox="0.00 0.00 274.00 106.00" xmlns="http://www.w3.org/2000/svg" xmlns:xlink="http://www.w3.org/1999/xlink">
<g id="graph0" class="graph" transform="scale(1 1) rotate(0) translate(4 102)">
<title>Conv3dInfo</title>
<polygon fill="#ffffff" stroke="transparent" points="-4,4 -4,-102 270,-102 270,4 -4,4"/>
<!-- Node0 -->
<g id="node1" class="node">
<title>Node0</title>
<polygon fill="#bfbfbf" stroke="#000000" points="106,-.5 106,-19.5 178,-19.5 178,-.5 106,-.5"/>
<text text-anchor="middle" x="142" y="-7.5" font-family="Helvetica,sans-Serif" font-size="10.00" fill="#000000">Conv3dInfo</text>
</g>
<!-- Node1 -->
<g id="node2" class="node">
<title>Node1</title>
<g id="a_node2"><a xlink:href="structarm__compute_1_1_padding3_d.xhtml" target="_top" xlink:title="Padding information for 3D operations like Conv3d. ">
<polygon fill="#ffffff" stroke="#000000" points="0,-78.5 0,-97.5 68,-97.5 68,-78.5 0,-78.5"/>
<text text-anchor="middle" x="34" y="-85.5" font-family="Helvetica,sans-Serif" font-size="10.00" fill="#000000">Padding3D</text>
</a>
</g>
</g>
<!-- Node1&#45;&gt;Node0 -->
<g id="edge1" class="edge">
<title>Node1&#45;&gt;Node0</title>
<path fill="none" stroke="#9a32cd" stroke-dasharray="5,2" d="M52.6656,-71.4729C64.4568,-61.3464 80.2085,-48.3811 95,-38 104.4847,-31.3433 115.6036,-24.6722 124.6449,-19.5121"/>
<polygon fill="#9a32cd" stroke="#9a32cd" points="50.1007,-69.0649 44.8501,-78.2672 54.6933,-74.3478 50.1007,-69.0649"/>
<text text-anchor="middle" x="116.5" y="-46.5" font-family="Helvetica,sans-Serif" font-size="10.00" fill="#000000"> padding</text>
</g>
<!-- Node2 -->
<g id="node3" class="node">
<title>Node2</title>
<g id="a_node3"><a xlink:href="classarm__compute_1_1_activation_layer_info.xhtml" target="_top" xlink:title="Activation Layer Information class. ">
<polygon fill="#ffffff" stroke="#000000" points="86,-78.5 86,-97.5 198,-97.5 198,-78.5 86,-78.5"/>
<text text-anchor="middle" x="142" y="-85.5" font-family="Helvetica,sans-Serif" font-size="10.00" fill="#000000">ActivationLayerInfo</text>
</a>
</g>
</g>
<!-- Node2&#45;&gt;Node0 -->
<g id="edge2" class="edge">
<title>Node2&#45;&gt;Node0</title>
<path fill="none" stroke="#9a32cd" stroke-dasharray="5,2" d="M142,-68.2866C142,-52.7395 142,-31.7276 142,-19.6426"/>
<polygon fill="#9a32cd" stroke="#9a32cd" points="138.5001,-68.4356 142,-78.4357 145.5001,-68.4357 138.5001,-68.4356"/>
<text text-anchor="middle" x="163.5" y="-46.5" font-family="Helvetica,sans-Serif" font-size="10.00" fill="#000000"> act_info</text>
</g>
<!-- Node3 -->
<g id="node4" class="node">
<title>Node3</title>
<g id="a_node4"><a xlink:href="classarm__compute_1_1_size3_d.xhtml" target="_top" xlink:title="Class for specifying the size of a 3D shape or object. ">
<polygon fill="#ffffff" stroke="#000000" points="216,-78.5 216,-97.5 266,-97.5 266,-78.5 216,-78.5"/>
<text text-anchor="middle" x="241" y="-85.5" font-family="Helvetica,sans-Serif" font-size="10.00" fill="#000000">Size3D</text>
</a>
</g>
</g>
<!-- Node3&#45;&gt;Node0 -->
<g id="edge3" class="edge">
<title>Node3&#45;&gt;Node0</title>
<path fill="none" stroke="#9a32cd" stroke-dasharray="5,2" d="M225.2414,-70.9913C215.3533,-60.8057 202.0441,-47.9479 189,-38 180.0883,-31.2036 169.4062,-24.7236 160.4794,-19.7124"/>
<polygon fill="#9a32cd" stroke="#9a32cd" points="222.9386,-73.6486 232.3676,-78.4804 228.0097,-68.8232 222.9386,-73.6486"/>
<text text-anchor="middle" x="232" y="-52" font-family="Helvetica,sans-Serif" font-size="10.00" fill="#000000"> dilation</text>
<text text-anchor="middle" x="232" y="-41" font-family="Helvetica,sans-Serif" font-size="10.00" fill="#000000">stride</text>
</g>
</g>
</svg>
