<?xml version="1.0" encoding="UTF-8" standalone="no"?>
<!DOCTYPE svg PUBLIC "-//W3C//DTD SVG 1.1//EN"
 "http://www.w3.org/Graphics/SVG/1.1/DTD/svg11.dtd">
<!-- Generated by graphviz version 2.40.1 (20161225.0304)
 -->
<!-- Title: GpuKernelVariableTable::TensorVariable Pages: 1 -->
<svg width="186pt" height="106pt"
 viewBox="0.00 0.00 186.00 106.00" xmlns="http://www.w3.org/2000/svg" xmlns:xlink="http://www.w3.org/1999/xlink">
<g id="graph0" class="graph" transform="scale(1 1) rotate(0) translate(4 102)">
<title>GpuKernelVariableTable::TensorVariable</title>
<polygon fill="#ffffff" stroke="transparent" points="-4,4 -4,-102 182,-102 182,4 -4,4"/>
<!-- Node0 -->
<g id="node1" class="node">
<title>Node0</title>
<polygon fill="#bfbfbf" stroke="#000000" points="1,-.5 1,-30.5 133,-30.5 133,-.5 1,-.5"/>
<text text-anchor="start" x="9" y="-18.5" font-family="Helvetica,sans-Serif" font-size="10.00" fill="#000000">GpuKernelVariableTable</text>
<text text-anchor="middle" x="67" y="-7.5" font-family="Helvetica,sans-Serif" font-size="10.00" fill="#000000">::TensorVariable</text>
</g>
<!-- Node1 -->
<g id="node2" class="node">
<title>Node1</title>
<g id="a_node2"><a xlink:href="structarm__compute_1_1experimental_1_1dynamic__fusion_1_1_gpu_kernel_argument_info.xhtml" target="_top" xlink:title="Contain information required to set up a kernel argument at run time. ">
<polygon fill="#ffffff" stroke="#000000" points="0,-78.5 0,-97.5 134,-97.5 134,-78.5 0,-78.5"/>
<text text-anchor="middle" x="67" y="-85.5" font-family="Helvetica,sans-Serif" font-size="10.00" fill="#000000">GpuKernelArgumentInfo</text>
</a>
</g>
</g>
<!-- Node1&#45;&gt;Node0 -->
<g id="edge1" class="edge">
<title>Node1&#45;&gt;Node0</title>
<path fill="none" stroke="#9a32cd" stroke-dasharray="5,2" d="M67,-68.0177C67,-56.2164 67,-41.513 67,-30.668"/>
<polygon fill="#9a32cd" stroke="#9a32cd" points="63.5001,-68.2223 67,-78.2223 70.5001,-68.2224 63.5001,-68.2223"/>
<text text-anchor="middle" x="122.5" y="-52" font-family="Helvetica,sans-Serif" font-size="10.00" fill="#000000"> kernel_argument_info</text>
</g>
</g>
</svg>
