<?xml version="1.0" encoding="UTF-8" standalone="no"?>
<!DOCTYPE svg PUBLIC "-//W3C//DTD SVG 1.1//EN"
 "http://www.w3.org/Graphics/SVG/1.1/DTD/svg11.dtd">
<!-- Generated by graphviz version 2.40.1 (20161225.0304)
 -->
<!-- Title: GEMMKernelInfo Pages: 1 -->
<svg width="727pt" height="192pt"
 viewBox="0.00 0.00 727.00 192.00" xmlns="http://www.w3.org/2000/svg" xmlns:xlink="http://www.w3.org/1999/xlink">
<g id="graph0" class="graph" transform="scale(1 1) rotate(0) translate(4 188)">
<title>GEMMKernelInfo</title>
<polygon fill="#ffffff" stroke="transparent" points="-4,4 -4,-188 723,-188 723,4 -4,4"/>
<!-- Node0 -->
<g id="node1" class="node">
<title>Node0</title>
<polygon fill="#bfbfbf" stroke="#000000" points="623,-88.5 623,-107.5 719,-107.5 719,-88.5 623,-88.5"/>
<text text-anchor="middle" x="671" y="-95.5" font-family="Helvetica,sans-Serif" font-size="10.00" fill="#000000">GEMMKernelInfo</text>
</g>
<!-- Node1 -->
<g id="node2" class="node">
<title>Node1</title>
<g id="a_node2"><a xlink:href="structarm__compute_1_1_g_e_m_m_lowp_output_stage_info.xhtml" target="_top" xlink:title="GEMMLowp output stage info. ">
<polygon fill="#ffffff" stroke="#000000" points="359,-164.5 359,-183.5 511,-183.5 511,-164.5 359,-164.5"/>
<text text-anchor="middle" x="435" y="-171.5" font-family="Helvetica,sans-Serif" font-size="10.00" fill="#000000">GEMMLowpOutputStageInfo</text>
</a>
</g>
</g>
<!-- Node1&#45;&gt;Node0 -->
<g id="edge1" class="edge">
<title>Node1&#45;&gt;Node0</title>
<path fill="none" stroke="#9a32cd" stroke-dasharray="5,2" d="M519.9467,-162.5883C547.6709,-157.2751 578.2023,-149.6865 605,-139 625.0475,-131.0054 645.8169,-116.9884 658.5747,-107.5999"/>
<polygon fill="#9a32cd" stroke="#9a32cd" points="519.0721,-159.1905 509.8717,-164.4444 520.3404,-166.0746 519.0721,-159.1905"/>
<text text-anchor="middle" x="567" y="-163" font-family="Helvetica,sans-Serif" font-size="10.00" fill="#000000"> output_stage</text>
</g>
<!-- Node2 -->
<g id="node3" class="node">
<title>Node2</title>
<g id="a_node3"><a xlink:href="structarm__compute_1_1_g_e_m_m_l_h_s_matrix_info.xhtml" target="_top" xlink:title="GEMM LHS (Left Hand Side) matrix information. ">
<polygon fill="#ffffff" stroke="#000000" points="377.5,-126.5 377.5,-145.5 492.5,-145.5 492.5,-126.5 377.5,-126.5"/>
<text text-anchor="middle" x="435" y="-133.5" font-family="Helvetica,sans-Serif" font-size="10.00" fill="#000000">GEMMLHSMatrixInfo</text>
</a>
</g>
</g>
<!-- Node2&#45;&gt;Node0 -->
<g id="edge2" class="edge">
<title>Node2&#45;&gt;Node0</title>
<path fill="none" stroke="#9a32cd" stroke-dasharray="5,2" d="M502.9678,-128.2104C534.1576,-124.2757 571.5602,-119.0497 605,-113 613.6721,-111.4311 622.9278,-109.494 631.6807,-107.5391"/>
<polygon fill="#9a32cd" stroke="#9a32cd" points="502.1347,-124.787 492.6432,-129.4946 502.9988,-131.7335 502.1347,-124.787"/>
<text text-anchor="middle" x="567" y="-127" font-family="Helvetica,sans-Serif" font-size="10.00" fill="#000000"> lhs_info</text>
</g>
<!-- Node3 -->
<g id="node4" class="node">
<title>Node3</title>
<g id="a_node4"><a xlink:href="structarm__compute_1_1_g_e_m_m_r_h_s_matrix_info.xhtml" target="_top" xlink:title="GEMM RHS (Right Hand Side) matrix information. ">
<polygon fill="#ffffff" stroke="#000000" points="377,-88.5 377,-107.5 493,-107.5 493,-88.5 377,-88.5"/>
<text text-anchor="middle" x="435" y="-95.5" font-family="Helvetica,sans-Serif" font-size="10.00" fill="#000000">GEMMRHSMatrixInfo</text>
</a>
</g>
</g>
<!-- Node3&#45;&gt;Node0 -->
<g id="edge3" class="edge">
<title>Node3&#45;&gt;Node0</title>
<path fill="none" stroke="#9a32cd" stroke-dasharray="5,2" d="M503.0776,-98C541.3645,-98 588.2485,-98 622.737,-98"/>
<polygon fill="#9a32cd" stroke="#9a32cd" points="503.0344,-94.5001 493.0344,-98 503.0343,-101.5001 503.0344,-94.5001"/>
<text text-anchor="middle" x="567" y="-101" font-family="Helvetica,sans-Serif" font-size="10.00" fill="#000000"> rhs_info</text>
</g>
<!-- Node4 -->
<g id="node5" class="node">
<title>Node4</title>
<g id="a_node5"><a xlink:href="classarm__compute_1_1experimental_1_1_post_op_list.xhtml" target="_top" xlink:title="PostOpList\&lt; arm_compute\l::ITensorInfo *\&gt;">
<polygon fill="#ffffff" stroke="#000000" points="361.5,-39 361.5,-69 508.5,-69 508.5,-39 361.5,-39"/>
<text text-anchor="start" x="369.5" y="-57" font-family="Helvetica,sans-Serif" font-size="10.00" fill="#000000">PostOpList&lt; arm_compute</text>
<text text-anchor="middle" x="435" y="-46" font-family="Helvetica,sans-Serif" font-size="10.00" fill="#000000">::ITensorInfo *&gt;</text>
</a>
</g>
</g>
<!-- Node4&#45;&gt;Node0 -->
<g id="edge4" class="edge">
<title>Node4&#45;&gt;Node0</title>
<path fill="none" stroke="#9a32cd" stroke-dasharray="5,2" d="M518.7833,-67.3599C546.3082,-71.9975 577.0154,-77.4373 605,-83 613.298,-84.6495 622.1491,-86.5576 630.5858,-88.4485"/>
<polygon fill="#9a32cd" stroke="#9a32cd" points="519.238,-63.8874 508.7974,-65.6888 518.0826,-70.7914 519.238,-63.8874"/>
<text text-anchor="middle" x="567" y="-86" font-family="Helvetica,sans-Serif" font-size="10.00" fill="#000000"> post_ops</text>
</g>
<!-- Node5 -->
<g id="node6" class="node">
<title>Node5</title>
<g id="a_node6"><a xlink:href="classarm__compute_1_1experimental_1_1_post_op_list.xhtml" target="_top" xlink:title="A sequence of PostOps that can be appended to the end of other operators. ">
<polygon fill="#ffffff" stroke="#000000" points="0,-44.5 0,-63.5 165,-63.5 165,-44.5 0,-44.5"/>
<text text-anchor="middle" x="82.5" y="-51.5" font-family="Helvetica,sans-Serif" font-size="10.00" fill="#000000">PostOpList&lt; TensorRelatedT &gt;</text>
</a>
</g>
</g>
<!-- Node5&#45;&gt;Node4 -->
<g id="edge5" class="edge">
<title>Node5&#45;&gt;Node4</title>
<path fill="none" stroke="#ffa500" stroke-dasharray="5,2" d="M175.4271,-54C233.4908,-54 307.2257,-54 361.2587,-54"/>
<polygon fill="#ffa500" stroke="#ffa500" points="175.1456,-50.5001 165.1456,-54 175.1456,-57.5001 175.1456,-50.5001"/>
<text text-anchor="middle" x="262" y="-57" font-family="Helvetica,sans-Serif" font-size="10.00" fill="#000000"> &lt; arm_compute::ITensorInfo *&gt;</text>
</g>
<!-- Node6 -->
<g id="node7" class="node">
<title>Node6</title>
<g id="a_node7"><a xlink:href="classarm__compute_1_1_activation_layer_info.xhtml" target="_top" xlink:title="Activation Layer Information class. ">
<polygon fill="#ffffff" stroke="#000000" points="379,-.5 379,-19.5 491,-19.5 491,-.5 379,-.5"/>
<text text-anchor="middle" x="435" y="-7.5" font-family="Helvetica,sans-Serif" font-size="10.00" fill="#000000">ActivationLayerInfo</text>
</a>
</g>
</g>
<!-- Node6&#45;&gt;Node0 -->
<g id="edge6" class="edge">
<title>Node6&#45;&gt;Node0</title>
<path fill="none" stroke="#9a32cd" stroke-dasharray="5,2" d="M501.5562,-21.7152C533.6907,-28.7398 572.2789,-39.2315 605,-54 625.3341,-63.1777 646.3627,-78.3597 659.064,-88.2717"/>
<polygon fill="#9a32cd" stroke="#9a32cd" points="501.8737,-18.2048 491.3653,-19.5553 500.4223,-25.0527 501.8737,-18.2048"/>
<text text-anchor="middle" x="567" y="-57" font-family="Helvetica,sans-Serif" font-size="10.00" fill="#000000"> activation_info</text>
</g>
</g>
</svg>
