<?xml version="1.0" encoding="UTF-8" standalone="no"?>
<!DOCTYPE svg PUBLIC "-//W3C//DTD SVG 1.1//EN"
 "http://www.w3.org/Graphics/SVG/1.1/DTD/svg11.dtd">
<!-- Generated by graphviz version 2.43.0 (0)
 -->
<!-- Title: src/cpu/kernels/elementwise_unary/generic/sve2 Pages: 1 -->
<svg width="164pt" height="151pt"
 viewBox="0.00 0.00 164.00 151.00" xmlns="http://www.w3.org/2000/svg" xmlns:xlink="http://www.w3.org/1999/xlink">
<g id="graph0" class="graph" transform="scale(1 1) rotate(0) translate(4 147)">
<title>src/cpu/kernels/elementwise_unary/generic/sve2</title>
<polygon fill="white" stroke="transparent" points="-4,4 -4,-147 160,-147 160,4 -4,4"/>
<g id="clust1" class="cluster">
<title>clusterdir_15acb9606a67b692f1c5b11ae176d45d</title>
<g id="a_clust1"><a xlink:href="dir_15acb9606a67b692f1c5b11ae176d45d.xhtml" target="_top" xlink:title="generic">
<polygon fill="#ddddee" stroke="black" points="35,-64 35,-135 105,-135 105,-64 35,-64"/>
<text text-anchor="middle" x="70" y="-123" font-family="Helvetica,sans-Serif" font-size="10.00">generic</text>
</a>
</g>
</g>
<!-- dir_595e0d1aff931f5d0098470e6e9630c1 -->
<g id="node1" class="node">
<title>dir_595e0d1aff931f5d0098470e6e9630c1</title>
<g id="a_node1"><a xlink:href="dir_595e0d1aff931f5d0098470e6e9630c1.xhtml" target="_top" xlink:title="sve2">
<polygon fill="#eeeeff" stroke="black" points="97,-108 43,-108 43,-72 97,-72 97,-108"/>
<text text-anchor="middle" x="70" y="-87.5" font-family="Helvetica,sans-Serif" font-size="10.00">sve2</text>
</a>
</g>
</g>
<!-- dir_a5a25de4bd483a211edd2f30cef0dda2 -->
<g id="node2" class="node">
<title>dir_a5a25de4bd483a211edd2f30cef0dda2</title>
<g id="a_node2"><a xlink:href="dir_a5a25de4bd483a211edd2f30cef0dda2.xhtml" target="_top" xlink:title="lut">
<polygon fill="white" stroke="red" points="54,-36 0,-36 0,0 54,0 54,-36"/>
<text text-anchor="middle" x="27" y="-15.5" font-family="Helvetica,sans-Serif" font-size="10.00">lut</text>
</a>
</g>
</g>
<!-- dir_595e0d1aff931f5d0098470e6e9630c1&#45;&gt;dir_a5a25de4bd483a211edd2f30cef0dda2 -->
<g id="edge1" class="edge">
<title>dir_595e0d1aff931f5d0098470e6e9630c1&#45;&gt;dir_a5a25de4bd483a211edd2f30cef0dda2</title>
<path fill="none" stroke="black" d="M59.37,-71.7C54.37,-63.56 48.31,-53.69 42.79,-44.7"/>
<polygon fill="black" stroke="black" points="45.72,-42.79 37.51,-36.1 39.76,-46.46 45.72,-42.79"/>
<g id="a_edge1&#45;headlabel"><a xlink:href="dir_000478_000394.xhtml" target="_top" xlink:title="1">
<text text-anchor="middle" x="50.02" y="-41.87" font-family="Helvetica,sans-Serif" font-size="10.00">1</text>
</a>
</g>
</g>
<!-- dir_214608ef36d61442cb2b0c1c4e9a7def -->
<g id="node3" class="node">
<title>dir_214608ef36d61442cb2b0c1c4e9a7def</title>
<g id="a_node3"><a xlink:href="dir_214608ef36d61442cb2b0c1c4e9a7def.xhtml" target="_top" xlink:title="arm_compute">
<polygon fill="white" stroke="red" points="156,-36 72,-36 72,0 156,0 156,-36"/>
<text text-anchor="middle" x="114" y="-15.5" font-family="Helvetica,sans-Serif" font-size="10.00">arm_compute</text>
</a>
</g>
</g>
<!-- dir_595e0d1aff931f5d0098470e6e9630c1&#45;&gt;dir_214608ef36d61442cb2b0c1c4e9a7def -->
<g id="edge2" class="edge">
<title>dir_595e0d1aff931f5d0098470e6e9630c1&#45;&gt;dir_214608ef36d61442cb2b0c1c4e9a7def</title>
<path fill="none" stroke="black" d="M80.88,-71.7C85.99,-63.56 92.2,-53.69 97.84,-44.7"/>
<polygon fill="black" stroke="black" points="100.89,-46.43 103.25,-36.1 94.96,-42.71 100.89,-46.43"/>
<g id="a_edge2&#45;headlabel"><a xlink:href="dir_000478_000000.xhtml" target="_top" xlink:title="1">
<text text-anchor="middle" x="101.38" y="-48.49" font-family="Helvetica,sans-Serif" font-size="10.00">1</text>
</a>
</g>
</g>
</g>
</svg>
