<?xml version="1.0" encoding="UTF-8" standalone="no"?>
<!DOCTYPE svg PUBLIC "-//W3C//DTD SVG 1.1//EN"
 "http://www.w3.org/Graphics/SVG/1.1/DTD/svg11.dtd">
<!-- Generated by graphviz version 2.43.0 (0)
 -->
<!-- Title: arm_compute/dynamic_fusion/sketch/gpu Pages: 1 -->
<svg width="192pt" height="231pt"
 viewBox="0.00 0.00 192.00 231.00" xmlns="http://www.w3.org/2000/svg" xmlns:xlink="http://www.w3.org/1999/xlink">
<g id="graph0" class="graph" transform="scale(1 1) rotate(0) translate(4 227)">
<title>arm_compute/dynamic_fusion/sketch/gpu</title>
<polygon fill="white" stroke="transparent" points="-4,4 -4,-227 188,-227 188,4 -4,4"/>
<g id="clust1" class="cluster">
<title>clusterdir_3259c0fb095abc99930fe6844d6dd442</title>
<g id="a_clust1"><a xlink:href="dir_3259c0fb095abc99930fe6844d6dd442.xhtml" target="_top" xlink:title="sketch">
<polygon fill="#ddddee" stroke="black" points="8,-128 8,-215 176,-215 176,-128 8,-128"/>
<text text-anchor="middle" x="92" y="-203" font-family="Helvetica,sans-Serif" font-size="10.00">sketch</text>
</a>
</g>
</g>
<g id="clust2" class="cluster">
<title>clusterdir_14626d6ef94760c2ad0cd0335cce44ee</title>
<g id="a_clust2"><a xlink:href="dir_14626d6ef94760c2ad0cd0335cce44ee.xhtml" target="_top">
<polygon fill="#eeeeff" stroke="black" points="16,-136 16,-188 168,-188 168,-136 16,-136"/>
</a>
</g>
</g>
<!-- dir_14626d6ef94760c2ad0cd0335cce44ee -->
<g id="node1" class="node">
<title>dir_14626d6ef94760c2ad0cd0335cce44ee</title>
<text text-anchor="middle" x="51" y="-159.5" font-family="Helvetica,sans-Serif" font-size="10.00">gpu</text>
</g>
<!-- dir_1fb090f0c6070330bfaccc4236d3ca0d -->
<g id="node4" class="node">
<title>dir_1fb090f0c6070330bfaccc4236d3ca0d</title>
<g id="a_node4"><a xlink:href="dir_1fb090f0c6070330bfaccc4236d3ca0d.xhtml" target="_top" xlink:title="core">
<polygon fill="white" stroke="red" points="138,-36 84,-36 84,0 138,0 138,-36"/>
<text text-anchor="middle" x="111" y="-15.5" font-family="Helvetica,sans-Serif" font-size="10.00">core</text>
</a>
</g>
</g>
<!-- dir_14626d6ef94760c2ad0cd0335cce44ee&#45;&gt;dir_1fb090f0c6070330bfaccc4236d3ca0d -->
<g id="edge2" class="edge">
<title>dir_14626d6ef94760c2ad0cd0335cce44ee&#45;&gt;dir_1fb090f0c6070330bfaccc4236d3ca0d</title>
<path fill="none" stroke="black" d="M52.37,-143.89C54.36,-125.42 59.1,-95.5 70,-72 74.55,-62.19 81.21,-52.51 87.84,-44.16"/>
<polygon fill="black" stroke="black" points="90.67,-46.23 94.38,-36.3 85.29,-41.75 90.67,-46.23"/>
<g id="a_edge2&#45;headlabel"><a xlink:href="dir_000059_000001.xhtml" target="_top" xlink:title="13">
<text text-anchor="middle" x="90.55" y="-48.31" font-family="Helvetica,sans-Serif" font-size="10.00">13</text>
</a>
</g>
</g>
<!-- dir_2d04589ec4a450f8bb275c6c932eac90 -->
<g id="node2" class="node">
<title>dir_2d04589ec4a450f8bb275c6c932eac90</title>
<g id="a_node2"><a xlink:href="dir_2d04589ec4a450f8bb275c6c932eac90.xhtml" target="_top" xlink:title="operators">
<polygon fill="white" stroke="black" points="159.5,-180 96.5,-180 96.5,-144 159.5,-144 159.5,-180"/>
<text text-anchor="middle" x="128" y="-159.5" font-family="Helvetica,sans-Serif" font-size="10.00">operators</text>
</a>
</g>
</g>
<!-- dir_fb60af501ba790f5a2523771a799cc00 -->
<g id="node3" class="node">
<title>dir_fb60af501ba790f5a2523771a799cc00</title>
<g id="a_node3"><a xlink:href="dir_fb60af501ba790f5a2523771a799cc00.xhtml" target="_top" xlink:title="attributes">
<polygon fill="none" stroke="black" points="143,-108 79,-108 79,-72 143,-72 143,-108"/>
<text text-anchor="middle" x="111" y="-87.5" font-family="Helvetica,sans-Serif" font-size="10.00">attributes</text>
</a>
</g>
</g>
<!-- dir_2d04589ec4a450f8bb275c6c932eac90&#45;&gt;dir_fb60af501ba790f5a2523771a799cc00 -->
<g id="edge3" class="edge">
<title>dir_2d04589ec4a450f8bb275c6c932eac90&#45;&gt;dir_fb60af501ba790f5a2523771a799cc00</title>
<path fill="none" stroke="black" d="M123.8,-143.7C121.9,-135.9 119.62,-126.51 117.52,-117.83"/>
<polygon fill="black" stroke="black" points="120.92,-117 115.15,-108.1 114.11,-118.65 120.92,-117"/>
<g id="a_edge3&#45;headlabel"><a xlink:href="dir_000060_000058.xhtml" target="_top" xlink:title="9">
<text text-anchor="middle" x="124.52" y="-117.32" font-family="Helvetica,sans-Serif" font-size="10.00">9</text>
</a>
</g>
</g>
<!-- dir_2d04589ec4a450f8bb275c6c932eac90&#45;&gt;dir_1fb090f0c6070330bfaccc4236d3ca0d -->
<g id="edge4" class="edge">
<title>dir_2d04589ec4a450f8bb275c6c932eac90&#45;&gt;dir_1fb090f0c6070330bfaccc4236d3ca0d</title>
<path fill="none" stroke="black" d="M138.72,-143.74C148.54,-125.66 160.38,-96.53 152,-72 148.56,-61.93 142.34,-52.28 135.77,-44.05"/>
<polygon fill="black" stroke="black" points="138.32,-41.65 129.17,-36.32 133,-46.2 138.32,-41.65"/>
<g id="a_edge4&#45;headlabel"><a xlink:href="dir_000060_000001.xhtml" target="_top" xlink:title="11">
<text text-anchor="middle" x="142.82" y="-40.04" font-family="Helvetica,sans-Serif" font-size="10.00">11</text>
</a>
</g>
</g>
<!-- dir_fb60af501ba790f5a2523771a799cc00&#45;&gt;dir_1fb090f0c6070330bfaccc4236d3ca0d -->
<g id="edge1" class="edge">
<title>dir_fb60af501ba790f5a2523771a799cc00&#45;&gt;dir_1fb090f0c6070330bfaccc4236d3ca0d</title>
<path fill="none" stroke="black" d="M111,-71.7C111,-63.98 111,-54.71 111,-46.11"/>
<polygon fill="black" stroke="black" points="114.5,-46.1 111,-36.1 107.5,-46.1 114.5,-46.1"/>
<g id="a_edge1&#45;headlabel"><a xlink:href="dir_000058_000001.xhtml" target="_top" xlink:title="11">
<text text-anchor="middle" x="117.34" y="-47.2" font-family="Helvetica,sans-Serif" font-size="10.00">11</text>
</a>
</g>
</g>
</g>
</svg>
