<?xml version="1.0" encoding="UTF-8" standalone="no"?>
<!DOCTYPE svg PUBLIC "-//W3C//DTD SVG 1.1//EN"
 "http://www.w3.org/Graphics/SVG/1.1/DTD/svg11.dtd">
<!-- Generated by graphviz version 2.43.0 (0)
 -->
<!-- Title: src/graph/detail Pages: 1 -->
<svg width="128pt" height="223pt"
 viewBox="0.00 0.00 128.00 223.00" xmlns="http://www.w3.org/2000/svg" xmlns:xlink="http://www.w3.org/1999/xlink">
<g id="graph0" class="graph" transform="scale(1 1) rotate(0) translate(4 219)">
<title>src/graph/detail</title>
<polygon fill="white" stroke="transparent" points="-4,4 -4,-219 124,-219 124,4 -4,4"/>
<g id="clust1" class="cluster">
<title>clusterdir_d182250f0c231765fc862e69db210731</title>
<g id="a_clust1"><a xlink:href="dir_d182250f0c231765fc862e69db210731.xhtml" target="_top" xlink:title="graph">
<polygon fill="#ddddee" stroke="black" points="42,-136 42,-207 112,-207 112,-136 42,-136"/>
<text text-anchor="middle" x="77" y="-195" font-family="Helvetica,sans-Serif" font-size="10.00">graph</text>
</a>
</g>
</g>
<!-- dir_860cb336d74994b1303832ed3557228e -->
<g id="node1" class="node">
<title>dir_860cb336d74994b1303832ed3557228e</title>
<g id="a_node1"><a xlink:href="dir_860cb336d74994b1303832ed3557228e.xhtml" target="_top" xlink:title="detail">
<polygon fill="#eeeeff" stroke="black" points="104,-180 50,-180 50,-144 104,-144 104,-180"/>
<text text-anchor="middle" x="77" y="-159.5" font-family="Helvetica,sans-Serif" font-size="10.00">detail</text>
</a>
</g>
</g>
<!-- dir_214608ef36d61442cb2b0c1c4e9a7def -->
<g id="node2" class="node">
<title>dir_214608ef36d61442cb2b0c1c4e9a7def</title>
<g id="a_node2"><a xlink:href="dir_214608ef36d61442cb2b0c1c4e9a7def.xhtml" target="_top" xlink:title="arm_compute">
<polygon fill="white" stroke="red" points="84,-108 0,-108 0,-72 84,-72 84,-108"/>
<text text-anchor="middle" x="42" y="-87.5" font-family="Helvetica,sans-Serif" font-size="10.00">arm_compute</text>
</a>
</g>
</g>
<!-- dir_860cb336d74994b1303832ed3557228e&#45;&gt;dir_214608ef36d61442cb2b0c1c4e9a7def -->
<g id="edge2" class="edge">
<title>dir_860cb336d74994b1303832ed3557228e&#45;&gt;dir_214608ef36d61442cb2b0c1c4e9a7def</title>
<path fill="none" stroke="black" d="M68.35,-143.7C64.36,-135.73 59.55,-126.1 55.13,-117.26"/>
<polygon fill="black" stroke="black" points="58.15,-115.48 50.55,-108.1 51.89,-118.61 58.15,-115.48"/>
<g id="a_edge2&#45;headlabel"><a xlink:href="dir_000515_000000.xhtml" target="_top" xlink:title="17">
<text text-anchor="middle" x="62.3" y="-114.93" font-family="Helvetica,sans-Serif" font-size="10.00">17</text>
</a>
</g>
</g>
<!-- dir_5815af820a9cc9481f1d0990a0d60286 -->
<g id="node3" class="node">
<title>dir_5815af820a9cc9481f1d0990a0d60286</title>
<g id="a_node3"><a xlink:href="dir_5815af820a9cc9481f1d0990a0d60286.xhtml" target="_top" xlink:title="support">
<polygon fill="none" stroke="black" points="69,-36 15,-36 15,0 69,0 69,-36"/>
<text text-anchor="middle" x="42" y="-15.5" font-family="Helvetica,sans-Serif" font-size="10.00">support</text>
</a>
</g>
</g>
<!-- dir_860cb336d74994b1303832ed3557228e&#45;&gt;dir_5815af820a9cc9481f1d0990a0d60286 -->
<g id="edge3" class="edge">
<title>dir_860cb336d74994b1303832ed3557228e&#45;&gt;dir_5815af820a9cc9481f1d0990a0d60286</title>
<path fill="none" stroke="black" d="M85.59,-143.69C93.46,-125.33 102.56,-95.73 93,-72 88.65,-61.21 80.94,-51.39 72.81,-43.21"/>
<polygon fill="black" stroke="black" points="75,-40.46 65.3,-36.18 70.21,-45.57 75,-40.46"/>
<g id="a_edge3&#45;headlabel"><a xlink:href="dir_000515_000031.xhtml" target="_top" xlink:title="1">
<text text-anchor="middle" x="79.56" y="-38.35" font-family="Helvetica,sans-Serif" font-size="10.00">1</text>
</a>
</g>
</g>
<!-- dir_214608ef36d61442cb2b0c1c4e9a7def&#45;&gt;dir_5815af820a9cc9481f1d0990a0d60286 -->
<g id="edge1" class="edge">
<title>dir_214608ef36d61442cb2b0c1c4e9a7def&#45;&gt;dir_5815af820a9cc9481f1d0990a0d60286</title>
<path fill="none" stroke="black" d="M36.08,-71.7C35.29,-63.98 35.06,-54.71 35.4,-46.11"/>
<polygon fill="black" stroke="black" points="38.9,-46.32 36.1,-36.1 31.92,-45.84 38.9,-46.32"/>
<g id="a_edge1&#45;headlabel"><a xlink:href="dir_000000_000031.xhtml" target="_top" xlink:title="16">
<text text-anchor="middle" x="41.48" y="-47.61" font-family="Helvetica,sans-Serif" font-size="10.00">16</text>
</a>
</g>
</g>
<!-- dir_5815af820a9cc9481f1d0990a0d60286&#45;&gt;dir_214608ef36d61442cb2b0c1c4e9a7def -->
<g id="edge4" class="edge">
<title>dir_5815af820a9cc9481f1d0990a0d60286&#45;&gt;dir_214608ef36d61442cb2b0c1c4e9a7def</title>
<path fill="none" stroke="black" d="M47.9,-36.1C48.7,-43.79 48.94,-53.05 48.6,-61.67"/>
<polygon fill="black" stroke="black" points="45.11,-61.48 47.92,-71.7 52.09,-61.96 45.11,-61.48"/>
<g id="a_edge4&#45;headlabel"><a xlink:href="dir_000031_000000.xhtml" target="_top" xlink:title="6">
<text text-anchor="middle" x="42.52" y="-55.2" font-family="Helvetica,sans-Serif" font-size="10.00">6</text>
</a>
</g>
</g>
</g>
</svg>
