<?xml version="1.0" encoding="UTF-8" standalone="no"?>
<!DOCTYPE svg PUBLIC "-//W3C//DTD SVG 1.1//EN"
 "http://www.w3.org/Graphics/SVG/1.1/DTD/svg11.dtd">
<!-- Generated by graphviz version 2.43.0 (0)
 -->
<!-- Title: src/graph/backends Pages: 1 -->
<svg width="262pt" height="303pt"
 viewBox="0.00 0.00 262.00 303.00" xmlns="http://www.w3.org/2000/svg" xmlns:xlink="http://www.w3.org/1999/xlink">
<g id="graph0" class="graph" transform="scale(1 1) rotate(0) translate(4 299)">
<title>src/graph/backends</title>
<polygon fill="white" stroke="transparent" points="-4,4 -4,-299 258,-299 258,4 -4,4"/>
<g id="clust1" class="cluster">
<title>clusterdir_d182250f0c231765fc862e69db210731</title>
<g id="a_clust1"><a xlink:href="dir_d182250f0c231765fc862e69db210731.xhtml" target="_top" xlink:title="graph">
<polygon fill="#ddddee" stroke="black" points="8,-200 8,-287 246,-287 246,-200 8,-200"/>
<text text-anchor="middle" x="127" y="-275" font-family="Helvetica,sans-Serif" font-size="10.00">graph</text>
</a>
</g>
</g>
<g id="clust2" class="cluster">
<title>clusterdir_39e772dac1f6529f21fb52deefa146ea</title>
<g id="a_clust2"><a xlink:href="dir_39e772dac1f6529f21fb52deefa146ea.xhtml" target="_top">
<polygon fill="#eeeeff" stroke="black" points="16,-208 16,-260 238,-260 238,-208 16,-208"/>
</a>
</g>
</g>
<!-- dir_39e772dac1f6529f21fb52deefa146ea -->
<g id="node1" class="node">
<title>dir_39e772dac1f6529f21fb52deefa146ea</title>
<text text-anchor="middle" x="127" y="-231.5" font-family="Helvetica,sans-Serif" font-size="10.00">backends</text>
</g>
<!-- dir_214608ef36d61442cb2b0c1c4e9a7def -->
<g id="node4" class="node">
<title>dir_214608ef36d61442cb2b0c1c4e9a7def</title>
<g id="a_node4"><a xlink:href="dir_214608ef36d61442cb2b0c1c4e9a7def.xhtml" target="_top" xlink:title="arm_compute">
<polygon fill="white" stroke="red" points="155,-108 71,-108 71,-72 155,-72 155,-108"/>
<text text-anchor="middle" x="113" y="-87.5" font-family="Helvetica,sans-Serif" font-size="10.00">arm_compute</text>
</a>
</g>
</g>
<!-- dir_39e772dac1f6529f21fb52deefa146ea&#45;&gt;dir_214608ef36d61442cb2b0c1c4e9a7def -->
<g id="edge7" class="edge">
<title>dir_39e772dac1f6529f21fb52deefa146ea&#45;&gt;dir_214608ef36d61442cb2b0c1c4e9a7def</title>
<path fill="none" stroke="black" d="M125.31,-215.87C122.93,-191.67 118.54,-147.21 115.7,-118.39"/>
<polygon fill="black" stroke="black" points="119.16,-117.8 114.69,-108.19 112.19,-118.48 119.16,-117.8"/>
<g id="a_edge7&#45;headlabel"><a xlink:href="dir_000512_000000.xhtml" target="_top" xlink:title="72">
<text text-anchor="middle" x="122.34" y="-118.6" font-family="Helvetica,sans-Serif" font-size="10.00">72</text>
</a>
</g>
</g>
<!-- dir_10a8ee34f3d0df8ebfa752c7937ca169 -->
<g id="node2" class="node">
<title>dir_10a8ee34f3d0df8ebfa752c7937ca169</title>
<g id="a_node2"><a xlink:href="dir_10a8ee34f3d0df8ebfa752c7937ca169.xhtml" target="_top" xlink:title="CL">
<polygon fill="white" stroke="black" points="78,-252 24,-252 24,-216 78,-216 78,-252"/>
<text text-anchor="middle" x="51" y="-231.5" font-family="Helvetica,sans-Serif" font-size="10.00">CL</text>
</a>
</g>
</g>
<!-- dir_10a8ee34f3d0df8ebfa752c7937ca169&#45;&gt;dir_214608ef36d61442cb2b0c1c4e9a7def -->
<g id="edge3" class="edge">
<title>dir_10a8ee34f3d0df8ebfa752c7937ca169&#45;&gt;dir_214608ef36d61442cb2b0c1c4e9a7def</title>
<path fill="none" stroke="black" d="M60.88,-215.6C66.5,-205.38 73.5,-192.13 79,-180 88.29,-159.5 97.31,-135.65 103.72,-117.81"/>
<polygon fill="black" stroke="black" points="107.04,-118.91 107.09,-108.31 100.44,-116.57 107.04,-118.91"/>
<g id="a_edge3&#45;headlabel"><a xlink:href="dir_000513_000000.xhtml" target="_top" xlink:title="33">
<text text-anchor="middle" x="108.52" y="-120.75" font-family="Helvetica,sans-Serif" font-size="10.00">33</text>
</a>
</g>
</g>
<!-- dir_aebb8dcc11953d78e620bbef0b9e2183 -->
<g id="node5" class="node">
<title>dir_aebb8dcc11953d78e620bbef0b9e2183</title>
<g id="a_node5"><a xlink:href="dir_aebb8dcc11953d78e620bbef0b9e2183.xhtml" target="_top" xlink:title="core">
<polygon fill="white" stroke="red" points="70,-180 16,-180 16,-144 70,-144 70,-180"/>
<text text-anchor="middle" x="43" y="-159.5" font-family="Helvetica,sans-Serif" font-size="10.00">core</text>
</a>
</g>
</g>
<!-- dir_10a8ee34f3d0df8ebfa752c7937ca169&#45;&gt;dir_aebb8dcc11953d78e620bbef0b9e2183 -->
<g id="edge4" class="edge">
<title>dir_10a8ee34f3d0df8ebfa752c7937ca169&#45;&gt;dir_aebb8dcc11953d78e620bbef0b9e2183</title>
<path fill="none" stroke="black" d="M49.02,-215.7C48.14,-207.98 47.08,-198.71 46.1,-190.11"/>
<polygon fill="black" stroke="black" points="49.57,-189.64 44.95,-180.1 42.61,-190.44 49.57,-189.64"/>
<g id="a_edge4&#45;headlabel"><a xlink:href="dir_000513_000017.xhtml" target="_top" xlink:title="1">
<text text-anchor="middle" x="52.8" y="-190.39" font-family="Helvetica,sans-Serif" font-size="10.00">1</text>
</a>
</g>
</g>
<!-- dir_5815af820a9cc9481f1d0990a0d60286 -->
<g id="node6" class="node">
<title>dir_5815af820a9cc9481f1d0990a0d60286</title>
<g id="a_node6"><a xlink:href="dir_5815af820a9cc9481f1d0990a0d60286.xhtml" target="_top" xlink:title="support">
<polygon fill="none" stroke="black" points="140,-36 86,-36 86,0 140,0 140,-36"/>
<text text-anchor="middle" x="113" y="-15.5" font-family="Helvetica,sans-Serif" font-size="10.00">support</text>
</a>
</g>
</g>
<!-- dir_10a8ee34f3d0df8ebfa752c7937ca169&#45;&gt;dir_5815af820a9cc9481f1d0990a0d60286 -->
<g id="edge5" class="edge">
<title>dir_10a8ee34f3d0df8ebfa752c7937ca169&#45;&gt;dir_5815af820a9cc9481f1d0990a0d60286</title>
<path fill="none" stroke="black" d="M31.53,-215.92C22.18,-206.4 11.95,-193.72 7,-180 1.57,-164.95 3.07,-159.51 7,-144 15.94,-108.72 22.58,-99.86 46,-72 55.2,-61.05 66.98,-50.83 78.08,-42.35"/>
<polygon fill="black" stroke="black" points="80.42,-44.97 86.39,-36.21 76.26,-39.34 80.42,-44.97"/>
<g id="a_edge5&#45;headlabel"><a xlink:href="dir_000513_000031.xhtml" target="_top" xlink:title="4">
<text text-anchor="middle" x="79.22" y="-46.89" font-family="Helvetica,sans-Serif" font-size="10.00">4</text>
</a>
</g>
</g>
<!-- dir_a0f71818ea2c5c08950cb56389fab822 -->
<g id="node3" class="node">
<title>dir_a0f71818ea2c5c08950cb56389fab822</title>
<g id="a_node3"><a xlink:href="dir_a0f71818ea2c5c08950cb56389fab822.xhtml" target="_top" xlink:title="NEON">
<polygon fill="white" stroke="black" points="230,-252 176,-252 176,-216 230,-216 230,-252"/>
<text text-anchor="middle" x="203" y="-231.5" font-family="Helvetica,sans-Serif" font-size="10.00">NEON</text>
</a>
</g>
</g>
<!-- dir_a0f71818ea2c5c08950cb56389fab822&#45;&gt;dir_214608ef36d61442cb2b0c1c4e9a7def -->
<g id="edge1" class="edge">
<title>dir_a0f71818ea2c5c08950cb56389fab822&#45;&gt;dir_214608ef36d61442cb2b0c1c4e9a7def</title>
<path fill="none" stroke="black" d="M192.14,-215.87C176.53,-191.24 147.63,-145.64 129.41,-116.88"/>
<polygon fill="black" stroke="black" points="132.2,-114.76 123.89,-108.19 126.29,-118.51 132.2,-114.76"/>
<g id="a_edge1&#45;headlabel"><a xlink:href="dir_000514_000000.xhtml" target="_top" xlink:title="38">
<text text-anchor="middle" x="136.53" y="-113.78" font-family="Helvetica,sans-Serif" font-size="10.00">38</text>
</a>
</g>
</g>
<!-- dir_a0f71818ea2c5c08950cb56389fab822&#45;&gt;dir_5815af820a9cc9481f1d0990a0d60286 -->
<g id="edge2" class="edge">
<title>dir_a0f71818ea2c5c08950cb56389fab822&#45;&gt;dir_5815af820a9cc9481f1d0990a0d60286</title>
<path fill="none" stroke="black" d="M201.8,-215.97C199.04,-185.39 190.29,-119.9 164,-72 158.2,-61.44 149.75,-51.46 141.39,-43.07"/>
<polygon fill="black" stroke="black" points="143.78,-40.52 134.13,-36.14 138.94,-45.58 143.78,-40.52"/>
<g id="a_edge2&#45;headlabel"><a xlink:href="dir_000514_000031.xhtml" target="_top" xlink:title="2">
<text text-anchor="middle" x="148.34" y="-38.45" font-family="Helvetica,sans-Serif" font-size="10.00">2</text>
</a>
</g>
</g>
<!-- dir_214608ef36d61442cb2b0c1c4e9a7def&#45;&gt;dir_5815af820a9cc9481f1d0990a0d60286 -->
<g id="edge6" class="edge">
<title>dir_214608ef36d61442cb2b0c1c4e9a7def&#45;&gt;dir_5815af820a9cc9481f1d0990a0d60286</title>
<path fill="none" stroke="black" d="M107.08,-71.7C106.29,-63.98 106.06,-54.71 106.4,-46.11"/>
<polygon fill="black" stroke="black" points="109.9,-46.32 107.1,-36.1 102.92,-45.84 109.9,-46.32"/>
<g id="a_edge6&#45;headlabel"><a xlink:href="dir_000000_000031.xhtml" target="_top" xlink:title="16">
<text text-anchor="middle" x="112.48" y="-47.61" font-family="Helvetica,sans-Serif" font-size="10.00">16</text>
</a>
</g>
</g>
<!-- dir_aebb8dcc11953d78e620bbef0b9e2183&#45;&gt;dir_214608ef36d61442cb2b0c1c4e9a7def -->
<g id="edge8" class="edge">
<title>dir_aebb8dcc11953d78e620bbef0b9e2183&#45;&gt;dir_214608ef36d61442cb2b0c1c4e9a7def</title>
<path fill="none" stroke="black" d="M60.3,-143.7C68.86,-135.14 79.34,-124.66 88.7,-115.3"/>
<polygon fill="black" stroke="black" points="91.3,-117.65 95.9,-108.1 86.35,-112.7 91.3,-117.65"/>
<g id="a_edge8&#45;headlabel"><a xlink:href="dir_000017_000000.xhtml" target="_top" xlink:title="682">
<text text-anchor="middle" x="90.77" y="-119.7" font-family="Helvetica,sans-Serif" font-size="10.00">682</text>
</a>
</g>
</g>
<!-- dir_aebb8dcc11953d78e620bbef0b9e2183&#45;&gt;dir_5815af820a9cc9481f1d0990a0d60286 -->
<g id="edge9" class="edge">
<title>dir_aebb8dcc11953d78e620bbef0b9e2183&#45;&gt;dir_5815af820a9cc9481f1d0990a0d60286</title>
<path fill="none" stroke="black" d="M43.86,-143.99C45.41,-125.34 49.77,-95.02 62,-72 67.65,-61.36 76.07,-51.36 84.44,-42.98"/>
<polygon fill="black" stroke="black" points="86.88,-45.48 91.72,-36.05 82.06,-40.41 86.88,-45.48"/>
<g id="a_edge9&#45;headlabel"><a xlink:href="dir_000017_000031.xhtml" target="_top" xlink:title="55">
<text text-anchor="middle" x="86.24" y="-47.52" font-family="Helvetica,sans-Serif" font-size="10.00">55</text>
</a>
</g>
</g>
<!-- dir_5815af820a9cc9481f1d0990a0d60286&#45;&gt;dir_214608ef36d61442cb2b0c1c4e9a7def -->
<g id="edge10" class="edge">
<title>dir_5815af820a9cc9481f1d0990a0d60286&#45;&gt;dir_214608ef36d61442cb2b0c1c4e9a7def</title>
<path fill="none" stroke="black" d="M118.9,-36.1C119.7,-43.79 119.94,-53.05 119.6,-61.67"/>
<polygon fill="black" stroke="black" points="116.11,-61.48 118.92,-71.7 123.09,-61.96 116.11,-61.48"/>
<g id="a_edge10&#45;headlabel"><a xlink:href="dir_000031_000000.xhtml" target="_top" xlink:title="6">
<text text-anchor="middle" x="113.52" y="-55.2" font-family="Helvetica,sans-Serif" font-size="10.00">6</text>
</a>
</g>
</g>
</g>
</svg>
