<?xml version="1.0" encoding="UTF-8" standalone="no"?>
<!DOCTYPE svg PUBLIC "-//W3C//DTD SVG 1.1//EN"
 "http://www.w3.org/Graphics/SVG/1.1/DTD/svg11.dtd">
<!-- Generated by graphviz version 2.43.0 (0)
 -->
<!-- Title: src/dynamic_fusion/sketch/gpu/components/utils Pages: 1 -->
<svg width="204pt" height="159pt"
 viewBox="0.00 0.00 204.00 159.00" xmlns="http://www.w3.org/2000/svg" xmlns:xlink="http://www.w3.org/1999/xlink">
<g id="graph0" class="graph" transform="scale(1 1) rotate(0) translate(4 155)">
<title>src/dynamic_fusion/sketch/gpu/components/utils</title>
<polygon fill="white" stroke="transparent" points="-4,4 -4,-155 200,-155 200,4 -4,4"/>
<g id="clust1" class="cluster">
<title>clusterdir_2dfbec2966693e15f04cad1350ff3fc9</title>
<g id="a_clust1"><a xlink:href="dir_2dfbec2966693e15f04cad1350ff3fc9.xhtml" target="_top" xlink:title="components">
<polygon fill="#ddddee" stroke="black" points="8,-56 8,-143 188,-143 188,-56 8,-56"/>
<text text-anchor="middle" x="98" y="-131" font-family="Helvetica,sans-Serif" font-size="10.00">components</text>
</a>
</g>
</g>
<g id="clust2" class="cluster">
<title>clusterdir_93a630a30d2938cd8bec2a4b90b5d842</title>
<g id="a_clust2"><a xlink:href="dir_93a630a30d2938cd8bec2a4b90b5d842.xhtml" target="_top">
<polygon fill="#eeeeff" stroke="black" points="16,-64 16,-116 180,-116 180,-64 16,-64"/>
</a>
</g>
</g>
<!-- dir_93a630a30d2938cd8bec2a4b90b5d842 -->
<g id="node1" class="node">
<title>dir_93a630a30d2938cd8bec2a4b90b5d842</title>
<text text-anchor="middle" x="145" y="-87.5" font-family="Helvetica,sans-Serif" font-size="10.00">utils</text>
</g>
<!-- dir_3a9364ede19612e5bc6e94e7030c7b3d -->
<g id="node2" class="node">
<title>dir_3a9364ede19612e5bc6e94e7030c7b3d</title>
<g id="a_node2"><a xlink:href="dir_3a9364ede19612e5bc6e94e7030c7b3d.xhtml" target="_top" xlink:title="type_printer">
<polygon fill="white" stroke="black" points="100,-108 24,-108 24,-72 100,-72 100,-108"/>
<text text-anchor="middle" x="62" y="-87.5" font-family="Helvetica,sans-Serif" font-size="10.00">type_printer</text>
</a>
</g>
</g>
<!-- dir_1dfcd743a89af48c1ad7b4e490ecc755 -->
<g id="node3" class="node">
<title>dir_1dfcd743a89af48c1ad7b4e490ecc755</title>
<g id="a_node3"><a xlink:href="dir_1dfcd743a89af48c1ad7b4e490ecc755.xhtml" target="_top" xlink:title="cl">
<polygon fill="none" stroke="black" points="89,-36 35,-36 35,0 89,0 89,-36"/>
<text text-anchor="middle" x="62" y="-15.5" font-family="Helvetica,sans-Serif" font-size="10.00">cl</text>
</a>
</g>
</g>
<!-- dir_3a9364ede19612e5bc6e94e7030c7b3d&#45;&gt;dir_1dfcd743a89af48c1ad7b4e490ecc755 -->
<g id="edge1" class="edge">
<title>dir_3a9364ede19612e5bc6e94e7030c7b3d&#45;&gt;dir_1dfcd743a89af48c1ad7b4e490ecc755</title>
<path fill="none" stroke="black" d="M62,-71.7C62,-63.98 62,-54.71 62,-46.11"/>
<polygon fill="black" stroke="black" points="65.5,-46.1 62,-36.1 58.5,-46.1 65.5,-46.1"/>
<g id="a_edge1&#45;headlabel"><a xlink:href="dir_000496_000497.xhtml" target="_top" xlink:title="1">
<text text-anchor="middle" x="68.34" y="-47.2" font-family="Helvetica,sans-Serif" font-size="10.00">1</text>
</a>
</g>
</g>
</g>
</svg>
