<?xml version="1.0" encoding="UTF-8" standalone="no"?>
<!DOCTYPE svg PUBLIC "-//W3C//DTD SVG 1.1//EN"
 "http://www.w3.org/Graphics/SVG/1.1/DTD/svg11.dtd">
<!-- Generated by graphviz version 2.43.0 (0)
 -->
<!-- Title: src/core/NEON/kernels/arm_conv/pooling Pages: 1 -->
<svg width="181pt" height="231pt"
 viewBox="0.00 0.00 181.16 231.00" xmlns="http://www.w3.org/2000/svg" xmlns:xlink="http://www.w3.org/1999/xlink">
<g id="graph0" class="graph" transform="scale(1 1) rotate(0) translate(4 227)">
<title>src/core/NEON/kernels/arm_conv/pooling</title>
<polygon fill="white" stroke="transparent" points="-4,4 -4,-227 177.16,-227 177.16,4 -4,4"/>
<g id="clust1" class="cluster">
<title>clusterdir_ea98ae4f30fbc97db6231c6535bdb2d9</title>
<g id="a_clust1"><a xlink:href="dir_ea98ae4f30fbc97db6231c6535bdb2d9.xhtml" target="_top" xlink:title="arm_conv">
<polygon fill="#ddddee" stroke="black" points="8,-56 8,-215 94,-215 94,-56 8,-56"/>
<text text-anchor="middle" x="51" y="-203" font-family="Helvetica,sans-Serif" font-size="10.00">arm_conv</text>
</a>
</g>
</g>
<g id="clust2" class="cluster">
<title>clusterdir_0478b45d7abe353b326d807ccde1ebbc</title>
<g id="a_clust2"><a xlink:href="dir_0478b45d7abe353b326d807ccde1ebbc.xhtml" target="_top">
<polygon fill="#eeeeff" stroke="black" points="16,-64 16,-188 86,-188 86,-64 16,-64"/>
</a>
</g>
</g>
<!-- dir_0478b45d7abe353b326d807ccde1ebbc -->
<g id="node1" class="node">
<title>dir_0478b45d7abe353b326d807ccde1ebbc</title>
<text text-anchor="middle" x="51" y="-159.5" font-family="Helvetica,sans-Serif" font-size="10.00">pooling</text>
</g>
<!-- dir_760ebd195dc73279e412f00087ad2b15 -->
<g id="node2" class="node">
<title>dir_760ebd195dc73279e412f00087ad2b15</title>
<g id="a_node2"><a xlink:href="dir_760ebd195dc73279e412f00087ad2b15.xhtml" target="_top" xlink:title="kernels">
<polygon fill="white" stroke="red" points="78,-108 24,-108 24,-72 78,-72 78,-108"/>
<text text-anchor="middle" x="51" y="-87.5" font-family="Helvetica,sans-Serif" font-size="10.00">kernels</text>
</a>
</g>
</g>
<!-- dir_0478b45d7abe353b326d807ccde1ebbc&#45;&gt;dir_760ebd195dc73279e412f00087ad2b15 -->
<g id="edge3" class="edge">
<title>dir_0478b45d7abe353b326d807ccde1ebbc&#45;&gt;dir_760ebd195dc73279e412f00087ad2b15</title>
<path fill="none" stroke="black" d="M51,-143.7C51,-135.98 51,-126.71 51,-118.11"/>
<polygon fill="black" stroke="black" points="54.5,-118.1 51,-108.1 47.5,-118.1 54.5,-118.1"/>
<g id="a_edge3&#45;headlabel"><a xlink:href="dir_000103_000177.xhtml" target="_top" xlink:title="3">
<text text-anchor="middle" x="57.34" y="-119.2" font-family="Helvetica,sans-Serif" font-size="10.00">3</text>
</a>
</g>
</g>
<!-- dir_2c61f424fd391396db977702a2beee9a -->
<g id="node3" class="node">
<title>dir_2c61f424fd391396db977702a2beee9a</title>
<g id="a_node3"><a xlink:href="dir_2c61f424fd391396db977702a2beee9a.xhtml" target="_top" xlink:title="cpu">
<polygon fill="white" stroke="red" points="156,-108 102,-108 102,-72 156,-72 156,-108"/>
<text text-anchor="middle" x="129" y="-87.5" font-family="Helvetica,sans-Serif" font-size="10.00">cpu</text>
</a>
</g>
</g>
<!-- dir_0478b45d7abe353b326d807ccde1ebbc&#45;&gt;dir_2c61f424fd391396db977702a2beee9a -->
<g id="edge1" class="edge">
<title>dir_0478b45d7abe353b326d807ccde1ebbc&#45;&gt;dir_2c61f424fd391396db977702a2beee9a</title>
<path fill="none" stroke="black" d="M70.28,-143.7C79.92,-135.05 91.73,-124.45 102.23,-115.03"/>
<polygon fill="black" stroke="black" points="104.84,-117.39 109.94,-108.1 100.16,-112.18 104.84,-117.39"/>
<g id="a_edge1&#45;headlabel"><a xlink:href="dir_000103_000373.xhtml" target="_top" xlink:title="5">
<text text-anchor="middle" x="104.06" y="-119.4" font-family="Helvetica,sans-Serif" font-size="10.00">5</text>
</a>
</g>
</g>
<!-- dir_9847dd9cb7a28e46201717fa7336cf62 -->
<g id="node4" class="node">
<title>dir_9847dd9cb7a28e46201717fa7336cf62</title>
<g id="a_node4"><a xlink:href="dir_9847dd9cb7a28e46201717fa7336cf62.xhtml" target="_top" xlink:title="arm_gemm">
<polygon fill="white" stroke="red" points="165.5,-36 92.5,-36 92.5,0 165.5,0 165.5,-36"/>
<text text-anchor="middle" x="129" y="-15.5" font-family="Helvetica,sans-Serif" font-size="10.00">arm_gemm</text>
</a>
</g>
</g>
<!-- dir_0478b45d7abe353b326d807ccde1ebbc&#45;&gt;dir_9847dd9cb7a28e46201717fa7336cf62 -->
<g id="edge2" class="edge">
<title>dir_0478b45d7abe353b326d807ccde1ebbc&#45;&gt;dir_9847dd9cb7a28e46201717fa7336cf62</title>
<path fill="none" stroke="black" d="M78.13,-156.87C105.38,-151.12 145.98,-137.81 165,-108 177.43,-88.52 173.7,-77.41 165,-56 163.24,-51.68 160.72,-47.59 157.8,-43.81"/>
<polygon fill="black" stroke="black" points="160.2,-41.24 150.95,-36.07 154.96,-45.88 160.2,-41.24"/>
<g id="a_edge2&#45;headlabel"><a xlink:href="dir_000103_000233.xhtml" target="_top" xlink:title="3">
<text text-anchor="middle" x="164.71" y="-39.55" font-family="Helvetica,sans-Serif" font-size="10.00">3</text>
</a>
</g>
</g>
<!-- dir_2c61f424fd391396db977702a2beee9a&#45;&gt;dir_9847dd9cb7a28e46201717fa7336cf62 -->
<g id="edge4" class="edge">
<title>dir_2c61f424fd391396db977702a2beee9a&#45;&gt;dir_9847dd9cb7a28e46201717fa7336cf62</title>
<path fill="none" stroke="black" d="M123.08,-71.7C122.29,-63.98 122.06,-54.71 122.4,-46.11"/>
<polygon fill="black" stroke="black" points="125.9,-46.32 123.1,-36.1 118.92,-45.84 125.9,-46.32"/>
<g id="a_edge4&#45;headlabel"><a xlink:href="dir_000373_000233.xhtml" target="_top" xlink:title="1">
<text text-anchor="middle" x="128.48" y="-47.61" font-family="Helvetica,sans-Serif" font-size="10.00">1</text>
</a>
</g>
</g>
<!-- dir_9847dd9cb7a28e46201717fa7336cf62&#45;&gt;dir_2c61f424fd391396db977702a2beee9a -->
<g id="edge5" class="edge">
<title>dir_9847dd9cb7a28e46201717fa7336cf62&#45;&gt;dir_2c61f424fd391396db977702a2beee9a</title>
<path fill="none" stroke="black" d="M134.9,-36.1C135.7,-43.79 135.94,-53.05 135.6,-61.67"/>
<polygon fill="black" stroke="black" points="132.11,-61.48 134.92,-71.7 139.09,-61.96 132.11,-61.48"/>
<g id="a_edge5&#45;headlabel"><a xlink:href="dir_000233_000373.xhtml" target="_top" xlink:title="27">
<text text-anchor="middle" x="129.52" y="-55.2" font-family="Helvetica,sans-Serif" font-size="10.00">27</text>
</a>
</g>
</g>
</g>
</svg>
