<?xml version="1.0" encoding="UTF-8" standalone="no"?>
<!DOCTYPE svg PUBLIC "-//W3C//DTD SVG 1.1//EN"
 "http://www.w3.org/Graphics/SVG/1.1/DTD/svg11.dtd">
<!-- Generated by graphviz version 2.43.0 (0)
 -->
<!-- Title: arm_compute/graph/backends Pages: 1 -->
<svg width="262pt" height="303pt"
 viewBox="0.00 0.00 262.00 303.00" xmlns="http://www.w3.org/2000/svg" xmlns:xlink="http://www.w3.org/1999/xlink">
<g id="graph0" class="graph" transform="scale(1 1) rotate(0) translate(4 299)">
<title>arm_compute/graph/backends</title>
<polygon fill="white" stroke="transparent" points="-4,4 -4,-299 258,-299 258,4 -4,4"/>
<g id="clust1" class="cluster">
<title>clusterdir_99ae3712d1eecd2a93fc4d38b59a99ba</title>
<g id="a_clust1"><a xlink:href="dir_99ae3712d1eecd2a93fc4d38b59a99ba.xhtml" target="_top" xlink:title="graph">
<polygon fill="#ddddee" stroke="black" points="8,-200 8,-287 246,-287 246,-200 8,-200"/>
<text text-anchor="middle" x="127" y="-275" font-family="Helvetica,sans-Serif" font-size="10.00">graph</text>
</a>
</g>
</g>
<g id="clust2" class="cluster">
<title>clusterdir_59b2231210c554f4cc243709030bf1f8</title>
<g id="a_clust2"><a xlink:href="dir_59b2231210c554f4cc243709030bf1f8.xhtml" target="_top">
<polygon fill="#eeeeff" stroke="black" points="16,-208 16,-260 238,-260 238,-208 16,-208"/>
</a>
</g>
</g>
<!-- dir_59b2231210c554f4cc243709030bf1f8 -->
<g id="node1" class="node">
<title>dir_59b2231210c554f4cc243709030bf1f8</title>
<text text-anchor="middle" x="199" y="-231.5" font-family="Helvetica,sans-Serif" font-size="10.00">backends</text>
</g>
<!-- dir_8bc26130589aa16388b5a02f17abf2c2 -->
<g id="node4" class="node">
<title>dir_8bc26130589aa16388b5a02f17abf2c2</title>
<g id="a_node4"><a xlink:href="dir_8bc26130589aa16388b5a02f17abf2c2.xhtml" target="_top" xlink:title="runtime">
<polygon fill="white" stroke="red" points="105.5,-180 50.5,-180 50.5,-144 105.5,-144 105.5,-180"/>
<text text-anchor="middle" x="78" y="-159.5" font-family="Helvetica,sans-Serif" font-size="10.00">runtime</text>
</a>
</g>
</g>
<!-- dir_59b2231210c554f4cc243709030bf1f8&#45;&gt;dir_8bc26130589aa16388b5a02f17abf2c2 -->
<g id="edge7" class="edge">
<title>dir_59b2231210c554f4cc243709030bf1f8&#45;&gt;dir_8bc26130589aa16388b5a02f17abf2c2</title>
<path fill="none" stroke="black" d="M180.24,-215.81C173.78,-210.37 166.33,-204.58 159,-200 145.26,-191.4 129.2,-183.64 115.01,-177.48"/>
<polygon fill="black" stroke="black" points="116.12,-174.15 105.54,-173.47 113.39,-180.59 116.12,-174.15"/>
<g id="a_edge7&#45;headlabel"><a xlink:href="dir_000032_000006.xhtml" target="_top" xlink:title="16">
<text text-anchor="middle" x="120.53" y="-170.43" font-family="Helvetica,sans-Serif" font-size="10.00">16</text>
</a>
</g>
</g>
<!-- dir_1fb090f0c6070330bfaccc4236d3ca0d -->
<g id="node5" class="node">
<title>dir_1fb090f0c6070330bfaccc4236d3ca0d</title>
<g id="a_node5"><a xlink:href="dir_1fb090f0c6070330bfaccc4236d3ca0d.xhtml" target="_top" xlink:title="core">
<polygon fill="white" stroke="red" points="161,-108 107,-108 107,-72 161,-72 161,-108"/>
<text text-anchor="middle" x="134" y="-87.5" font-family="Helvetica,sans-Serif" font-size="10.00">core</text>
</a>
</g>
</g>
<!-- dir_59b2231210c554f4cc243709030bf1f8&#45;&gt;dir_1fb090f0c6070330bfaccc4236d3ca0d -->
<g id="edge8" class="edge">
<title>dir_59b2231210c554f4cc243709030bf1f8&#45;&gt;dir_1fb090f0c6070330bfaccc4236d3ca0d</title>
<path fill="none" stroke="black" d="M211.54,-215.99C223.61,-197.34 238.24,-167.03 225,-144 213.33,-123.7 190.57,-110.45 170.73,-102.27"/>
<polygon fill="black" stroke="black" points="171.88,-98.97 161.29,-98.66 169.38,-105.5 171.88,-98.97"/>
<g id="a_edge8&#45;headlabel"><a xlink:href="dir_000032_000001.xhtml" target="_top" xlink:title="10">
<text text-anchor="middle" x="176.25" y="-95.1" font-family="Helvetica,sans-Serif" font-size="10.00">10</text>
</a>
</g>
</g>
<!-- dir_b30607d43e07fadf88f4c95a88a6c88e -->
<g id="node6" class="node">
<title>dir_b30607d43e07fadf88f4c95a88a6c88e</title>
<g id="a_node6"><a xlink:href="dir_b30607d43e07fadf88f4c95a88a6c88e.xhtml" target="_top" xlink:title="nodes">
<polygon fill="none" stroke="black" points="216,-180 162,-180 162,-144 216,-144 216,-180"/>
<text text-anchor="middle" x="189" y="-159.5" font-family="Helvetica,sans-Serif" font-size="10.00">nodes</text>
</a>
</g>
</g>
<!-- dir_59b2231210c554f4cc243709030bf1f8&#45;&gt;dir_b30607d43e07fadf88f4c95a88a6c88e -->
<g id="edge9" class="edge">
<title>dir_59b2231210c554f4cc243709030bf1f8&#45;&gt;dir_b30607d43e07fadf88f4c95a88a6c88e</title>
<path fill="none" stroke="black" d="M196.53,-215.7C195.43,-207.98 194.1,-198.71 192.87,-190.11"/>
<polygon fill="black" stroke="black" points="196.32,-189.51 191.44,-180.1 189.39,-190.5 196.32,-189.51"/>
<g id="a_edge9&#45;headlabel"><a xlink:href="dir_000032_000067.xhtml" target="_top" xlink:title="2">
<text text-anchor="middle" x="199.64" y="-190.17" font-family="Helvetica,sans-Serif" font-size="10.00">2</text>
</a>
</g>
</g>
<!-- dir_5815af820a9cc9481f1d0990a0d60286 -->
<g id="node7" class="node">
<title>dir_5815af820a9cc9481f1d0990a0d60286</title>
<g id="a_node7"><a xlink:href="dir_5815af820a9cc9481f1d0990a0d60286.xhtml" target="_top" xlink:title="support">
<polygon fill="none" stroke="black" points="161,-36 107,-36 107,0 161,0 161,-36"/>
<text text-anchor="middle" x="134" y="-15.5" font-family="Helvetica,sans-Serif" font-size="10.00">support</text>
</a>
</g>
</g>
<!-- dir_59b2231210c554f4cc243709030bf1f8&#45;&gt;dir_5815af820a9cc9481f1d0990a0d60286 -->
<g id="edge10" class="edge">
<title>dir_59b2231210c554f4cc243709030bf1f8&#45;&gt;dir_5815af820a9cc9481f1d0990a0d60286</title>
<path fill="none" stroke="black" d="M217.6,-215.76C226.53,-206.2 236.29,-193.53 241,-180 246.26,-164.89 246.55,-159.01 241,-144 225.65,-102.48 189.68,-65.42 163.67,-42.64"/>
<polygon fill="black" stroke="black" points="165.83,-39.88 155.95,-36.04 161.28,-45.2 165.83,-39.88"/>
<g id="a_edge10&#45;headlabel"><a xlink:href="dir_000032_000031.xhtml" target="_top" xlink:title="1">
<text text-anchor="middle" x="170.41" y="-37.56" font-family="Helvetica,sans-Serif" font-size="10.00">1</text>
</a>
</g>
</g>
<!-- dir_550bba389faad7f08ae5a13c29129f99 -->
<g id="node2" class="node">
<title>dir_550bba389faad7f08ae5a13c29129f99</title>
<g id="a_node2"><a xlink:href="dir_550bba389faad7f08ae5a13c29129f99.xhtml" target="_top" xlink:title="CL">
<polygon fill="white" stroke="black" points="78,-252 24,-252 24,-216 78,-216 78,-252"/>
<text text-anchor="middle" x="51" y="-231.5" font-family="Helvetica,sans-Serif" font-size="10.00">CL</text>
</a>
</g>
</g>
<!-- dir_550bba389faad7f08ae5a13c29129f99&#45;&gt;dir_8bc26130589aa16388b5a02f17abf2c2 -->
<g id="edge3" class="edge">
<title>dir_550bba389faad7f08ae5a13c29129f99&#45;&gt;dir_8bc26130589aa16388b5a02f17abf2c2</title>
<path fill="none" stroke="black" d="M57.67,-215.7C60.71,-207.81 64.38,-198.3 67.76,-189.55"/>
<polygon fill="black" stroke="black" points="71.07,-190.69 71.4,-180.1 64.54,-188.17 71.07,-190.69"/>
<g id="a_edge3&#45;headlabel"><a xlink:href="dir_000063_000006.xhtml" target="_top" xlink:title="7">
<text text-anchor="middle" x="72.42" y="-192.57" font-family="Helvetica,sans-Serif" font-size="10.00">7</text>
</a>
</g>
</g>
<!-- dir_550bba389faad7f08ae5a13c29129f99&#45;&gt;dir_1fb090f0c6070330bfaccc4236d3ca0d -->
<g id="edge4" class="edge">
<title>dir_550bba389faad7f08ae5a13c29129f99&#45;&gt;dir_1fb090f0c6070330bfaccc4236d3ca0d</title>
<path fill="none" stroke="black" d="M43.22,-215.67C35.99,-196.74 28.11,-166.18 41,-144 53.09,-123.19 76.74,-109.88 97.17,-101.79"/>
<polygon fill="black" stroke="black" points="98.39,-105.07 106.57,-98.34 95.98,-98.5 98.39,-105.07"/>
<g id="a_edge4&#45;headlabel"><a xlink:href="dir_000063_000001.xhtml" target="_top" xlink:title="1">
<text text-anchor="middle" x="96" y="-106.48" font-family="Helvetica,sans-Serif" font-size="10.00">1</text>
</a>
</g>
</g>
<!-- dir_2af5ba73c22f603fb662b4c21cfc8574 -->
<g id="node3" class="node">
<title>dir_2af5ba73c22f603fb662b4c21cfc8574</title>
<g id="a_node3"><a xlink:href="dir_2af5ba73c22f603fb662b4c21cfc8574.xhtml" target="_top" xlink:title="NEON">
<polygon fill="white" stroke="black" points="150,-252 96,-252 96,-216 150,-216 150,-252"/>
<text text-anchor="middle" x="123" y="-231.5" font-family="Helvetica,sans-Serif" font-size="10.00">NEON</text>
</a>
</g>
</g>
<!-- dir_2af5ba73c22f603fb662b4c21cfc8574&#45;&gt;dir_8bc26130589aa16388b5a02f17abf2c2 -->
<g id="edge1" class="edge">
<title>dir_2af5ba73c22f603fb662b4c21cfc8574&#45;&gt;dir_8bc26130589aa16388b5a02f17abf2c2</title>
<path fill="none" stroke="black" d="M111.88,-215.7C106.64,-207.56 100.3,-197.69 94.52,-188.7"/>
<polygon fill="black" stroke="black" points="97.35,-186.62 89,-180.1 91.46,-190.41 97.35,-186.62"/>
<g id="a_edge1&#45;headlabel"><a xlink:href="dir_000064_000006.xhtml" target="_top" xlink:title="4">
<text text-anchor="middle" x="101.68" y="-185.61" font-family="Helvetica,sans-Serif" font-size="10.00">4</text>
</a>
</g>
</g>
<!-- dir_2af5ba73c22f603fb662b4c21cfc8574&#45;&gt;dir_1fb090f0c6070330bfaccc4236d3ca0d -->
<g id="edge2" class="edge">
<title>dir_2af5ba73c22f603fb662b4c21cfc8574&#45;&gt;dir_1fb090f0c6070330bfaccc4236d3ca0d</title>
<path fill="none" stroke="black" d="M124.33,-215.87C126.2,-191.67 129.65,-147.21 131.88,-118.39"/>
<polygon fill="black" stroke="black" points="135.39,-118.43 132.67,-108.19 128.41,-117.89 135.39,-118.43"/>
<g id="a_edge2&#45;headlabel"><a xlink:href="dir_000064_000001.xhtml" target="_top" xlink:title="1">
<text text-anchor="middle" x="137.94" y="-119.73" font-family="Helvetica,sans-Serif" font-size="10.00">1</text>
</a>
</g>
</g>
<!-- dir_8bc26130589aa16388b5a02f17abf2c2&#45;&gt;dir_1fb090f0c6070330bfaccc4236d3ca0d -->
<g id="edge5" class="edge">
<title>dir_8bc26130589aa16388b5a02f17abf2c2&#45;&gt;dir_1fb090f0c6070330bfaccc4236d3ca0d</title>
<path fill="none" stroke="black" d="M85.93,-143.7C91.77,-135.3 99.77,-125.07 107.62,-115.86"/>
<polygon fill="black" stroke="black" points="110.46,-117.93 114.42,-108.1 105.2,-113.32 110.46,-117.93"/>
<g id="a_edge5&#45;headlabel"><a xlink:href="dir_000006_000001.xhtml" target="_top" xlink:title="220">
<text text-anchor="middle" x="110.22" y="-120.01" font-family="Helvetica,sans-Serif" font-size="10.00">220</text>
</a>
</g>
</g>
<!-- dir_8bc26130589aa16388b5a02f17abf2c2&#45;&gt;dir_5815af820a9cc9481f1d0990a0d60286 -->
<g id="edge6" class="edge">
<title>dir_8bc26130589aa16388b5a02f17abf2c2&#45;&gt;dir_5815af820a9cc9481f1d0990a0d60286</title>
<path fill="none" stroke="black" d="M79.94,-143.67C82.44,-125.29 87.74,-95.69 98,-72 102.14,-62.46 108.05,-52.81 113.9,-44.41"/>
<polygon fill="black" stroke="black" points="116.84,-46.32 119.89,-36.17 111.18,-42.2 116.84,-46.32"/>
<g id="a_edge6&#45;headlabel"><a xlink:href="dir_000006_000031.xhtml" target="_top" xlink:title="4">
<text text-anchor="middle" x="117.03" y="-48.4" font-family="Helvetica,sans-Serif" font-size="10.00">4</text>
</a>
</g>
</g>
<!-- dir_1fb090f0c6070330bfaccc4236d3ca0d&#45;&gt;dir_8bc26130589aa16388b5a02f17abf2c2 -->
<g id="edge11" class="edge">
<title>dir_1fb090f0c6070330bfaccc4236d3ca0d&#45;&gt;dir_8bc26130589aa16388b5a02f17abf2c2</title>
<path fill="none" stroke="black" d="M126.21,-108.1C120.4,-116.47 112.42,-126.69 104.57,-135.92"/>
<polygon fill="black" stroke="black" points="101.71,-133.87 97.76,-143.7 106.98,-138.48 101.71,-133.87"/>
<g id="a_edge11&#45;headlabel"><a xlink:href="dir_000001_000006.xhtml" target="_top" xlink:title="3">
<text text-anchor="middle" x="101.94" y="-126.79" font-family="Helvetica,sans-Serif" font-size="10.00">3</text>
</a>
</g>
</g>
<!-- dir_1fb090f0c6070330bfaccc4236d3ca0d&#45;&gt;dir_5815af820a9cc9481f1d0990a0d60286 -->
<g id="edge12" class="edge">
<title>dir_1fb090f0c6070330bfaccc4236d3ca0d&#45;&gt;dir_5815af820a9cc9481f1d0990a0d60286</title>
<path fill="none" stroke="black" d="M128.08,-71.7C127.29,-63.98 127.06,-54.71 127.4,-46.11"/>
<polygon fill="black" stroke="black" points="130.9,-46.32 128.1,-36.1 123.92,-45.84 130.9,-46.32"/>
<g id="a_edge12&#45;headlabel"><a xlink:href="dir_000001_000031.xhtml" target="_top" xlink:title="9">
<text text-anchor="middle" x="133.48" y="-47.61" font-family="Helvetica,sans-Serif" font-size="10.00">9</text>
</a>
</g>
</g>
<!-- dir_b30607d43e07fadf88f4c95a88a6c88e&#45;&gt;dir_1fb090f0c6070330bfaccc4236d3ca0d -->
<g id="edge13" class="edge">
<title>dir_b30607d43e07fadf88f4c95a88a6c88e&#45;&gt;dir_1fb090f0c6070330bfaccc4236d3ca0d</title>
<path fill="none" stroke="black" d="M175.4,-143.7C168.88,-135.39 160.93,-125.28 153.75,-116.14"/>
<polygon fill="black" stroke="black" points="156.37,-113.81 147.44,-108.1 150.87,-118.13 156.37,-113.81"/>
<g id="a_edge13&#45;headlabel"><a xlink:href="dir_000067_000001.xhtml" target="_top" xlink:title="1">
<text text-anchor="middle" x="160.82" y="-112.38" font-family="Helvetica,sans-Serif" font-size="10.00">1</text>
</a>
</g>
</g>
<!-- dir_5815af820a9cc9481f1d0990a0d60286&#45;&gt;dir_1fb090f0c6070330bfaccc4236d3ca0d -->
<g id="edge14" class="edge">
<title>dir_5815af820a9cc9481f1d0990a0d60286&#45;&gt;dir_1fb090f0c6070330bfaccc4236d3ca0d</title>
<path fill="none" stroke="black" d="M139.9,-36.1C140.7,-43.79 140.94,-53.05 140.6,-61.67"/>
<polygon fill="black" stroke="black" points="137.11,-61.48 139.92,-71.7 144.09,-61.96 137.11,-61.48"/>
<g id="a_edge14&#45;headlabel"><a xlink:href="dir_000031_000001.xhtml" target="_top" xlink:title="6">
<text text-anchor="middle" x="134.52" y="-55.2" font-family="Helvetica,sans-Serif" font-size="10.00">6</text>
</a>
</g>
</g>
</g>
</svg>
