<?xml version="1.0" encoding="UTF-8" standalone="no"?>
<!DOCTYPE svg PUBLIC "-//W3C//DTD SVG 1.1//EN"
 "http://www.w3.org/Graphics/SVG/1.1/DTD/svg11.dtd">
<!-- Generated by graphviz version 2.43.0 (0)
 -->
<!-- Title: src/core/CL Pages: 1 -->
<svg width="309pt" height="375pt"
 viewBox="0.00 0.00 309.27 375.00" xmlns="http://www.w3.org/2000/svg" xmlns:xlink="http://www.w3.org/1999/xlink">
<g id="graph0" class="graph" transform="scale(1 1) rotate(0) translate(4 371)">
<title>src/core/CL</title>
<polygon fill="white" stroke="transparent" points="-4,4 -4,-371 305.27,-371 305.27,4 -4,4"/>
<g id="clust1" class="cluster">
<title>clusterdir_aebb8dcc11953d78e620bbef0b9e2183</title>
<g id="a_clust1"><a xlink:href="dir_aebb8dcc11953d78e620bbef0b9e2183.xhtml" target="_top" xlink:title="core">
<polygon fill="#ddddee" stroke="black" points="8,-200 8,-359 178,-359 178,-200 8,-200"/>
<text text-anchor="middle" x="93" y="-347" font-family="Helvetica,sans-Serif" font-size="10.00">core</text>
</a>
</g>
</g>
<g id="clust2" class="cluster">
<title>clusterdir_8c278f79c760e5c5fbd911f9870614c1</title>
<g id="a_clust2"><a xlink:href="dir_8c278f79c760e5c5fbd911f9870614c1.xhtml" target="_top">
<polygon fill="#eeeeff" stroke="black" points="16,-208 16,-332 170,-332 170,-208 16,-208"/>
</a>
</g>
</g>
<!-- dir_8c278f79c760e5c5fbd911f9870614c1 -->
<g id="node1" class="node">
<title>dir_8c278f79c760e5c5fbd911f9870614c1</title>
<text text-anchor="middle" x="135" y="-303.5" font-family="Helvetica,sans-Serif" font-size="10.00">CL</text>
</g>
<!-- dir_8a6a287e420ec4de95804825506d2fde -->
<g id="node3" class="node">
<title>dir_8a6a287e420ec4de95804825506d2fde</title>
<g id="a_node3"><a xlink:href="dir_8a6a287e420ec4de95804825506d2fde.xhtml" target="_top" xlink:title="kernels">
<polygon fill="white" stroke="black" points="162,-252 108,-252 108,-216 162,-216 162,-252"/>
<text text-anchor="middle" x="135" y="-231.5" font-family="Helvetica,sans-Serif" font-size="10.00">kernels</text>
</a>
</g>
</g>
<!-- dir_8c278f79c760e5c5fbd911f9870614c1&#45;&gt;dir_8a6a287e420ec4de95804825506d2fde -->
<g id="edge1" class="edge">
<title>dir_8c278f79c760e5c5fbd911f9870614c1&#45;&gt;dir_8a6a287e420ec4de95804825506d2fde</title>
<path fill="none" stroke="black" d="M135,-287.7C135,-279.98 135,-270.71 135,-262.11"/>
<polygon fill="black" stroke="black" points="138.5,-262.1 135,-252.1 131.5,-262.1 138.5,-262.1"/>
<g id="a_edge1&#45;headlabel"><a xlink:href="dir_000018_000095.xhtml" target="_top" xlink:title="39">
<text text-anchor="middle" x="141.34" y="-263.2" font-family="Helvetica,sans-Serif" font-size="10.00">39</text>
</a>
</g>
</g>
<!-- dir_cf895c1ed808af158264b2f3d8d7f8f0 -->
<g id="node4" class="node">
<title>dir_cf895c1ed808af158264b2f3d8d7f8f0</title>
<g id="a_node4"><a xlink:href="dir_cf895c1ed808af158264b2f3d8d7f8f0.xhtml" target="_top" xlink:title="gpu">
<polygon fill="white" stroke="red" points="272,-252 218,-252 218,-216 272,-216 272,-252"/>
<text text-anchor="middle" x="245" y="-231.5" font-family="Helvetica,sans-Serif" font-size="10.00">gpu</text>
</a>
</g>
</g>
<!-- dir_8c278f79c760e5c5fbd911f9870614c1&#45;&gt;dir_cf895c1ed808af158264b2f3d8d7f8f0 -->
<g id="edge2" class="edge">
<title>dir_8c278f79c760e5c5fbd911f9870614c1&#45;&gt;dir_cf895c1ed808af158264b2f3d8d7f8f0</title>
<path fill="none" stroke="black" d="M161.91,-287.88C176.16,-278.81 193.85,-267.55 209.24,-257.76"/>
<polygon fill="black" stroke="black" points="211.43,-260.51 217.99,-252.19 207.67,-254.61 211.43,-260.51"/>
<g id="a_edge2&#45;headlabel"><a xlink:href="dir_000018_000004.xhtml" target="_top" xlink:title="4">
<text text-anchor="middle" x="209.92" y="-262.34" font-family="Helvetica,sans-Serif" font-size="10.00">4</text>
</a>
</g>
</g>
<!-- dir_707aa52d67938117542c6646238d6f70 -->
<g id="node5" class="node">
<title>dir_707aa52d67938117542c6646238d6f70</title>
<g id="a_node5"><a xlink:href="dir_707aa52d67938117542c6646238d6f70.xhtml" target="_top" xlink:title="helpers">
<polygon fill="none" stroke="black" points="200,-180 146,-180 146,-144 200,-144 200,-180"/>
<text text-anchor="middle" x="173" y="-159.5" font-family="Helvetica,sans-Serif" font-size="10.00">helpers</text>
</a>
</g>
</g>
<!-- dir_8c278f79c760e5c5fbd911f9870614c1&#45;&gt;dir_707aa52d67938117542c6646238d6f70 -->
<g id="edge3" class="edge">
<title>dir_8c278f79c760e5c5fbd911f9870614c1&#45;&gt;dir_707aa52d67938117542c6646238d6f70</title>
<path fill="none" stroke="black" d="M150.49,-287.74C158.22,-277.98 166.8,-265.14 171,-252 177.39,-232.04 177.57,-208.25 176.33,-190.29"/>
<polygon fill="black" stroke="black" points="179.8,-189.86 175.44,-180.2 172.83,-190.47 179.8,-189.86"/>
<g id="a_edge3&#45;headlabel"><a xlink:href="dir_000018_000033.xhtml" target="_top" xlink:title="80">
<text text-anchor="middle" x="182.94" y="-190.69" font-family="Helvetica,sans-Serif" font-size="10.00">80</text>
</a>
</g>
</g>
<!-- dir_214608ef36d61442cb2b0c1c4e9a7def -->
<g id="node6" class="node">
<title>dir_214608ef36d61442cb2b0c1c4e9a7def</title>
<g id="a_node6"><a xlink:href="dir_214608ef36d61442cb2b0c1c4e9a7def.xhtml" target="_top" xlink:title="arm_compute">
<polygon fill="white" stroke="red" points="215,-108 131,-108 131,-72 215,-72 215,-108"/>
<text text-anchor="middle" x="173" y="-87.5" font-family="Helvetica,sans-Serif" font-size="10.00">arm_compute</text>
</a>
</g>
</g>
<!-- dir_8c278f79c760e5c5fbd911f9870614c1&#45;&gt;dir_214608ef36d61442cb2b0c1c4e9a7def -->
<g id="edge4" class="edge">
<title>dir_8c278f79c760e5c5fbd911f9870614c1&#45;&gt;dir_214608ef36d61442cb2b0c1c4e9a7def</title>
<path fill="none" stroke="black" d="M119.39,-287.77C111.63,-278.03 103.05,-265.18 99,-252 92.21,-229.91 93.53,-222.45 99,-200 106.93,-167.43 130.03,-136.43 148.34,-115.88"/>
<polygon fill="black" stroke="black" points="151.14,-118 155.32,-108.27 145.98,-113.26 151.14,-118"/>
<g id="a_edge4&#45;headlabel"><a xlink:href="dir_000018_000000.xhtml" target="_top" xlink:title="332">
<text text-anchor="middle" x="150.8" y="-120.07" font-family="Helvetica,sans-Serif" font-size="10.00">332</text>
</a>
</g>
</g>
<!-- dir_5815af820a9cc9481f1d0990a0d60286 -->
<g id="node8" class="node">
<title>dir_5815af820a9cc9481f1d0990a0d60286</title>
<g id="a_node8"><a xlink:href="dir_5815af820a9cc9481f1d0990a0d60286.xhtml" target="_top" xlink:title="support">
<polygon fill="none" stroke="black" points="200,-36 146,-36 146,0 200,0 200,-36"/>
<text text-anchor="middle" x="173" y="-15.5" font-family="Helvetica,sans-Serif" font-size="10.00">support</text>
</a>
</g>
</g>
<!-- dir_8c278f79c760e5c5fbd911f9870614c1&#45;&gt;dir_5815af820a9cc9481f1d0990a0d60286 -->
<g id="edge5" class="edge">
<title>dir_8c278f79c760e5c5fbd911f9870614c1&#45;&gt;dir_5815af820a9cc9481f1d0990a0d60286</title>
<path fill="none" stroke="black" d="M115.53,-287.92C106.18,-278.4 95.95,-265.72 91,-252 83.15,-230.26 89.3,-223.05 91,-200 95.23,-142.64 81.96,-122.21 110,-72 116.72,-59.97 127.32,-49.48 137.91,-41.08"/>
<polygon fill="black" stroke="black" points="140.04,-43.86 145.95,-35.07 135.85,-38.26 140.04,-43.86"/>
<g id="a_edge5&#45;headlabel"><a xlink:href="dir_000018_000031.xhtml" target="_top" xlink:title="43">
<text text-anchor="middle" x="138.86" y="-45.79" font-family="Helvetica,sans-Serif" font-size="10.00">43</text>
</a>
</g>
</g>
<!-- dir_25885286e9dad4fa105b7b25a8031bbf -->
<g id="node2" class="node">
<title>dir_25885286e9dad4fa105b7b25a8031bbf</title>
<g id="a_node2"><a xlink:href="dir_25885286e9dad4fa105b7b25a8031bbf.xhtml" target="_top" xlink:title="cl_kernels">
<polygon fill="white" stroke="red" points="89.5,-324 24.5,-324 24.5,-288 89.5,-288 89.5,-324"/>
<text text-anchor="middle" x="57" y="-303.5" font-family="Helvetica,sans-Serif" font-size="10.00">cl_kernels</text>
</a>
</g>
</g>
<!-- dir_8a6a287e420ec4de95804825506d2fde&#45;&gt;dir_cf895c1ed808af158264b2f3d8d7f8f0 -->
<g id="edge6" class="edge">
<title>dir_8a6a287e420ec4de95804825506d2fde&#45;&gt;dir_cf895c1ed808af158264b2f3d8d7f8f0</title>
<path fill="none" stroke="black" d="M162.07,-234C177.31,-234 192.54,-234 207.78,-234"/>
<polygon fill="black" stroke="black" points="207.79,-237.5 217.79,-234 207.79,-230.5 207.79,-237.5"/>
<g id="a_edge6&#45;headlabel"><a xlink:href="dir_000095_000004.xhtml" target="_top" xlink:title="1">
<text text-anchor="middle" x="204.19" y="-237.84" font-family="Helvetica,sans-Serif" font-size="10.00">1</text>
</a>
</g>
</g>
<!-- dir_8a6a287e420ec4de95804825506d2fde&#45;&gt;dir_707aa52d67938117542c6646238d6f70 -->
<g id="edge7" class="edge">
<title>dir_8a6a287e420ec4de95804825506d2fde&#45;&gt;dir_707aa52d67938117542c6646238d6f70</title>
<path fill="none" stroke="black" d="M144.39,-215.7C148.76,-207.64 154.06,-197.89 158.9,-188.98"/>
<polygon fill="black" stroke="black" points="162.02,-190.56 163.71,-180.1 155.87,-187.22 162.02,-190.56"/>
<g id="a_edge7&#45;headlabel"><a xlink:href="dir_000095_000033.xhtml" target="_top" xlink:title="77">
<text text-anchor="middle" x="162.8" y="-192.58" font-family="Helvetica,sans-Serif" font-size="10.00">77</text>
</a>
</g>
</g>
<!-- dir_8a6a287e420ec4de95804825506d2fde&#45;&gt;dir_214608ef36d61442cb2b0c1c4e9a7def -->
<g id="edge8" class="edge">
<title>dir_8a6a287e420ec4de95804825506d2fde&#45;&gt;dir_214608ef36d61442cb2b0c1c4e9a7def</title>
<path fill="none" stroke="black" d="M132.56,-215.8C130.61,-197.52 129.33,-167.99 137,-144 140.12,-134.25 145.65,-124.66 151.45,-116.38"/>
<polygon fill="black" stroke="black" points="154.33,-118.37 157.51,-108.26 148.72,-114.18 154.33,-118.37"/>
<g id="a_edge8&#45;headlabel"><a xlink:href="dir_000095_000000.xhtml" target="_top" xlink:title="278">
<text text-anchor="middle" x="154.45" y="-120.45" font-family="Helvetica,sans-Serif" font-size="10.00">278</text>
</a>
</g>
</g>
<!-- dir_a8053b3d69cfefb2b2e6ec7bf9dd5c1a -->
<g id="node7" class="node">
<title>dir_a8053b3d69cfefb2b2e6ec7bf9dd5c1a</title>
<g id="a_node7"><a xlink:href="dir_a8053b3d69cfefb2b2e6ec7bf9dd5c1a.xhtml" target="_top" xlink:title="utils">
<polygon fill="white" stroke="red" points="272,-180 218,-180 218,-144 272,-144 272,-180"/>
<text text-anchor="middle" x="245" y="-159.5" font-family="Helvetica,sans-Serif" font-size="10.00">utils</text>
</a>
</g>
</g>
<!-- dir_8a6a287e420ec4de95804825506d2fde&#45;&gt;dir_a8053b3d69cfefb2b2e6ec7bf9dd5c1a -->
<g id="edge9" class="edge">
<title>dir_8a6a287e420ec4de95804825506d2fde&#45;&gt;dir_a8053b3d69cfefb2b2e6ec7bf9dd5c1a</title>
<path fill="none" stroke="black" d="M161.91,-215.88C176.16,-206.81 193.85,-195.55 209.24,-185.76"/>
<polygon fill="black" stroke="black" points="211.43,-188.51 217.99,-180.19 207.67,-182.61 211.43,-188.51"/>
<g id="a_edge9&#45;headlabel"><a xlink:href="dir_000095_000049.xhtml" target="_top" xlink:title="1">
<text text-anchor="middle" x="209.92" y="-190.34" font-family="Helvetica,sans-Serif" font-size="10.00">1</text>
</a>
</g>
</g>
<!-- dir_8a6a287e420ec4de95804825506d2fde&#45;&gt;dir_5815af820a9cc9481f1d0990a0d60286 -->
<g id="edge10" class="edge">
<title>dir_8a6a287e420ec4de95804825506d2fde&#45;&gt;dir_5815af820a9cc9481f1d0990a0d60286</title>
<path fill="none" stroke="black" d="M128.72,-215.79C118.72,-185.49 102.19,-121.16 122,-72 126.35,-61.21 134.06,-51.39 142.19,-43.21"/>
<polygon fill="black" stroke="black" points="144.79,-45.57 149.7,-36.18 140,-40.46 144.79,-45.57"/>
<g id="a_edge10&#45;headlabel"><a xlink:href="dir_000095_000031.xhtml" target="_top" xlink:title="41">
<text text-anchor="middle" x="144.11" y="-47.6" font-family="Helvetica,sans-Serif" font-size="10.00">41</text>
</a>
</g>
</g>
<!-- dir_cf895c1ed808af158264b2f3d8d7f8f0&#45;&gt;dir_8a6a287e420ec4de95804825506d2fde -->
<g id="edge11" class="edge">
<title>dir_cf895c1ed808af158264b2f3d8d7f8f0&#45;&gt;dir_8a6a287e420ec4de95804825506d2fde</title>
<path fill="none" stroke="black" d="M217.79,-234C202.55,-234 187.32,-234 172.08,-234"/>
<polygon fill="black" stroke="black" points="172.07,-230.5 162.07,-234 172.07,-237.5 172.07,-230.5"/>
<g id="a_edge11&#45;headlabel"><a xlink:href="dir_000004_000095.xhtml" target="_top" xlink:title="5">
<text text-anchor="middle" x="175.66" y="-225.16" font-family="Helvetica,sans-Serif" font-size="10.00">5</text>
</a>
</g>
</g>
<!-- dir_cf895c1ed808af158264b2f3d8d7f8f0&#45;&gt;dir_707aa52d67938117542c6646238d6f70 -->
<g id="edge12" class="edge">
<title>dir_cf895c1ed808af158264b2f3d8d7f8f0&#45;&gt;dir_707aa52d67938117542c6646238d6f70</title>
<path fill="none" stroke="black" d="M227.2,-215.7C218.4,-207.14 207.62,-196.66 198,-187.3"/>
<polygon fill="black" stroke="black" points="200.2,-184.57 190.59,-180.1 195.32,-189.58 200.2,-184.57"/>
<g id="a_edge12&#45;headlabel"><a xlink:href="dir_000004_000033.xhtml" target="_top" xlink:title="109">
<text text-anchor="middle" x="204.76" y="-182.54" font-family="Helvetica,sans-Serif" font-size="10.00">109</text>
</a>
</g>
</g>
<!-- dir_cf895c1ed808af158264b2f3d8d7f8f0&#45;&gt;dir_214608ef36d61442cb2b0c1c4e9a7def -->
<g id="edge13" class="edge">
<title>dir_cf895c1ed808af158264b2f3d8d7f8f0&#45;&gt;dir_214608ef36d61442cb2b0c1c4e9a7def</title>
<path fill="none" stroke="black" d="M261.21,-215.77C276.62,-197.2 295.46,-167.2 281,-144 268.5,-123.94 245.95,-111.26 224.67,-103.35"/>
<polygon fill="black" stroke="black" points="225.62,-99.98 215.02,-100.05 223.35,-106.6 225.62,-99.98"/>
<g id="a_edge13&#45;headlabel"><a xlink:href="dir_000004_000000.xhtml" target="_top" xlink:title="631">
<text text-anchor="middle" x="229.94" y="-95.96" font-family="Helvetica,sans-Serif" font-size="10.00">631</text>
</a>
</g>
</g>
<!-- dir_cf895c1ed808af158264b2f3d8d7f8f0&#45;&gt;dir_a8053b3d69cfefb2b2e6ec7bf9dd5c1a -->
<g id="edge14" class="edge">
<title>dir_cf895c1ed808af158264b2f3d8d7f8f0&#45;&gt;dir_a8053b3d69cfefb2b2e6ec7bf9dd5c1a</title>
<path fill="none" stroke="black" d="M245,-215.7C245,-207.98 245,-198.71 245,-190.11"/>
<polygon fill="black" stroke="black" points="248.5,-190.1 245,-180.1 241.5,-190.1 248.5,-190.1"/>
<g id="a_edge14&#45;headlabel"><a xlink:href="dir_000004_000049.xhtml" target="_top" xlink:title="8">
<text text-anchor="middle" x="251.34" y="-191.2" font-family="Helvetica,sans-Serif" font-size="10.00">8</text>
</a>
</g>
</g>
<!-- dir_cf895c1ed808af158264b2f3d8d7f8f0&#45;&gt;dir_5815af820a9cc9481f1d0990a0d60286 -->
<g id="edge15" class="edge">
<title>dir_cf895c1ed808af158264b2f3d8d7f8f0&#45;&gt;dir_5815af820a9cc9481f1d0990a0d60286</title>
<path fill="none" stroke="black" d="M268.75,-215.91C279.55,-206.65 291.2,-194.2 297,-180 303.05,-165.19 301.99,-159.2 297,-144 282.18,-98.87 239.67,-62.47 208.54,-40.83"/>
<polygon fill="black" stroke="black" points="210.34,-37.83 200.09,-35.13 206.42,-43.63 210.34,-37.83"/>
<g id="a_edge15&#45;headlabel"><a xlink:href="dir_000004_000031.xhtml" target="_top" xlink:title="110">
<text text-anchor="middle" x="214.9" y="-34.99" font-family="Helvetica,sans-Serif" font-size="10.00">110</text>
</a>
</g>
</g>
<!-- dir_707aa52d67938117542c6646238d6f70&#45;&gt;dir_214608ef36d61442cb2b0c1c4e9a7def -->
<g id="edge16" class="edge">
<title>dir_707aa52d67938117542c6646238d6f70&#45;&gt;dir_214608ef36d61442cb2b0c1c4e9a7def</title>
<path fill="none" stroke="black" d="M173,-143.7C173,-135.98 173,-126.71 173,-118.11"/>
<polygon fill="black" stroke="black" points="176.5,-118.1 173,-108.1 169.5,-118.1 176.5,-118.1"/>
<g id="a_edge16&#45;headlabel"><a xlink:href="dir_000033_000000.xhtml" target="_top" xlink:title="16">
<text text-anchor="middle" x="179.34" y="-119.2" font-family="Helvetica,sans-Serif" font-size="10.00">16</text>
</a>
</g>
</g>
<!-- dir_214608ef36d61442cb2b0c1c4e9a7def&#45;&gt;dir_5815af820a9cc9481f1d0990a0d60286 -->
<g id="edge17" class="edge">
<title>dir_214608ef36d61442cb2b0c1c4e9a7def&#45;&gt;dir_5815af820a9cc9481f1d0990a0d60286</title>
<path fill="none" stroke="black" d="M167.08,-71.7C166.29,-63.98 166.06,-54.71 166.4,-46.11"/>
<polygon fill="black" stroke="black" points="169.9,-46.32 167.1,-36.1 162.92,-45.84 169.9,-46.32"/>
<g id="a_edge17&#45;headlabel"><a xlink:href="dir_000000_000031.xhtml" target="_top" xlink:title="16">
<text text-anchor="middle" x="172.48" y="-47.61" font-family="Helvetica,sans-Serif" font-size="10.00">16</text>
</a>
</g>
</g>
<!-- dir_a8053b3d69cfefb2b2e6ec7bf9dd5c1a&#45;&gt;dir_214608ef36d61442cb2b0c1c4e9a7def -->
<g id="edge18" class="edge">
<title>dir_a8053b3d69cfefb2b2e6ec7bf9dd5c1a&#45;&gt;dir_214608ef36d61442cb2b0c1c4e9a7def</title>
<path fill="none" stroke="black" d="M227.2,-143.7C218.4,-135.14 207.62,-124.66 198,-115.3"/>
<polygon fill="black" stroke="black" points="200.2,-112.57 190.59,-108.1 195.32,-117.58 200.2,-112.57"/>
<g id="a_edge18&#45;headlabel"><a xlink:href="dir_000049_000000.xhtml" target="_top" xlink:title="26">
<text text-anchor="middle" x="204.76" y="-110.54" font-family="Helvetica,sans-Serif" font-size="10.00">26</text>
</a>
</g>
</g>
<!-- dir_a8053b3d69cfefb2b2e6ec7bf9dd5c1a&#45;&gt;dir_5815af820a9cc9481f1d0990a0d60286 -->
<g id="edge19" class="edge">
<title>dir_a8053b3d69cfefb2b2e6ec7bf9dd5c1a&#45;&gt;dir_5815af820a9cc9481f1d0990a0d60286</title>
<path fill="none" stroke="black" d="M243.68,-143.98C241.63,-125.33 236.53,-95 224,-72 218.23,-61.42 209.79,-51.44 201.43,-43.05"/>
<polygon fill="black" stroke="black" points="203.81,-40.49 194.16,-36.12 198.98,-45.56 203.81,-40.49"/>
<g id="a_edge19&#45;headlabel"><a xlink:href="dir_000049_000031.xhtml" target="_top" xlink:title="3">
<text text-anchor="middle" x="208.37" y="-38.42" font-family="Helvetica,sans-Serif" font-size="10.00">3</text>
</a>
</g>
</g>
<!-- dir_5815af820a9cc9481f1d0990a0d60286&#45;&gt;dir_214608ef36d61442cb2b0c1c4e9a7def -->
<g id="edge20" class="edge">
<title>dir_5815af820a9cc9481f1d0990a0d60286&#45;&gt;dir_214608ef36d61442cb2b0c1c4e9a7def</title>
<path fill="none" stroke="black" d="M178.9,-36.1C179.7,-43.79 179.94,-53.05 179.6,-61.67"/>
<polygon fill="black" stroke="black" points="176.11,-61.48 178.92,-71.7 183.09,-61.96 176.11,-61.48"/>
<g id="a_edge20&#45;headlabel"><a xlink:href="dir_000031_000000.xhtml" target="_top" xlink:title="6">
<text text-anchor="middle" x="173.52" y="-55.2" font-family="Helvetica,sans-Serif" font-size="10.00">6</text>
</a>
</g>
</g>
</g>
</svg>
