<?xml version="1.0" encoding="UTF-8" standalone="no"?>
<!DOCTYPE svg PUBLIC "-//W3C//DTD SVG 1.1//EN"
 "http://www.w3.org/Graphics/SVG/1.1/DTD/svg11.dtd">
<!-- Generated by graphviz version 2.43.0 (0)
 -->
<!-- Title: src/core/NEON/kernels/detail Pages: 1 -->
<svg width="135pt" height="295pt"
 viewBox="0.00 0.00 135.00 295.00" xmlns="http://www.w3.org/2000/svg" xmlns:xlink="http://www.w3.org/1999/xlink">
<g id="graph0" class="graph" transform="scale(1 1) rotate(0) translate(4 291)">
<title>src/core/NEON/kernels/detail</title>
<polygon fill="white" stroke="transparent" points="-4,4 -4,-291 131,-291 131,4 -4,4"/>
<g id="clust1" class="cluster">
<title>clusterdir_1ce938f580a6f304b99685e2c1dd19db</title>
<g id="a_clust1"><a xlink:href="dir_1ce938f580a6f304b99685e2c1dd19db.xhtml" target="_top" xlink:title="kernels">
<polygon fill="#ddddee" stroke="black" points="49,-208 49,-279 119,-279 119,-208 49,-208"/>
<text text-anchor="middle" x="84" y="-267" font-family="Helvetica,sans-Serif" font-size="10.00">kernels</text>
</a>
</g>
</g>
<!-- dir_47c52b626b579a630a004d74c906e8a5 -->
<g id="node1" class="node">
<title>dir_47c52b626b579a630a004d74c906e8a5</title>
<g id="a_node1"><a xlink:href="dir_47c52b626b579a630a004d74c906e8a5.xhtml" target="_top" xlink:title="detail">
<polygon fill="#eeeeff" stroke="black" points="111,-252 57,-252 57,-216 111,-216 111,-252"/>
<text text-anchor="middle" x="84" y="-231.5" font-family="Helvetica,sans-Serif" font-size="10.00">detail</text>
</a>
</g>
</g>
<!-- dir_8224aa485683c095eaa3fd7faa788467 -->
<g id="node2" class="node">
<title>dir_8224aa485683c095eaa3fd7faa788467</title>
<g id="a_node2"><a xlink:href="dir_8224aa485683c095eaa3fd7faa788467.xhtml" target="_top" xlink:title="wrapper">
<polygon fill="white" stroke="red" points="56,-180 0,-180 0,-144 56,-144 56,-180"/>
<text text-anchor="middle" x="28" y="-159.5" font-family="Helvetica,sans-Serif" font-size="10.00">wrapper</text>
</a>
</g>
</g>
<!-- dir_47c52b626b579a630a004d74c906e8a5&#45;&gt;dir_8224aa485683c095eaa3fd7faa788467 -->
<g id="edge2" class="edge">
<title>dir_47c52b626b579a630a004d74c906e8a5&#45;&gt;dir_8224aa485683c095eaa3fd7faa788467</title>
<path fill="none" stroke="black" d="M70.16,-215.7C63.51,-207.39 55.42,-197.28 48.11,-188.14"/>
<polygon fill="black" stroke="black" points="50.66,-185.73 41.68,-180.1 45.2,-190.1 50.66,-185.73"/>
<g id="a_edge2&#45;headlabel"><a xlink:href="dir_000464_000029.xhtml" target="_top" xlink:title="2">
<text text-anchor="middle" x="55.13" y="-184.26" font-family="Helvetica,sans-Serif" font-size="10.00">2</text>
</a>
</g>
</g>
<!-- dir_214608ef36d61442cb2b0c1c4e9a7def -->
<g id="node3" class="node">
<title>dir_214608ef36d61442cb2b0c1c4e9a7def</title>
<g id="a_node3"><a xlink:href="dir_214608ef36d61442cb2b0c1c4e9a7def.xhtml" target="_top" xlink:title="arm_compute">
<polygon fill="white" stroke="red" points="94,-108 10,-108 10,-72 94,-72 94,-108"/>
<text text-anchor="middle" x="52" y="-87.5" font-family="Helvetica,sans-Serif" font-size="10.00">arm_compute</text>
</a>
</g>
</g>
<!-- dir_47c52b626b579a630a004d74c906e8a5&#45;&gt;dir_214608ef36d61442cb2b0c1c4e9a7def -->
<g id="edge3" class="edge">
<title>dir_47c52b626b579a630a004d74c906e8a5&#45;&gt;dir_214608ef36d61442cb2b0c1c4e9a7def</title>
<path fill="none" stroke="black" d="M80.51,-215.9C76.81,-197.96 70.72,-168.95 65,-144 63.06,-135.56 60.85,-126.39 58.81,-118.09"/>
<polygon fill="black" stroke="black" points="62.15,-117.02 56.35,-108.15 55.36,-118.7 62.15,-117.02"/>
<g id="a_edge3&#45;headlabel"><a xlink:href="dir_000464_000000.xhtml" target="_top" xlink:title="4">
<text text-anchor="middle" x="65.77" y="-117.32" font-family="Helvetica,sans-Serif" font-size="10.00">4</text>
</a>
</g>
</g>
<!-- dir_5815af820a9cc9481f1d0990a0d60286 -->
<g id="node4" class="node">
<title>dir_5815af820a9cc9481f1d0990a0d60286</title>
<g id="a_node4"><a xlink:href="dir_5815af820a9cc9481f1d0990a0d60286.xhtml" target="_top" xlink:title="support">
<polygon fill="none" stroke="black" points="79,-36 25,-36 25,0 79,0 79,-36"/>
<text text-anchor="middle" x="52" y="-15.5" font-family="Helvetica,sans-Serif" font-size="10.00">support</text>
</a>
</g>
</g>
<!-- dir_47c52b626b579a630a004d74c906e8a5&#45;&gt;dir_5815af820a9cc9481f1d0990a0d60286 -->
<g id="edge4" class="edge">
<title>dir_47c52b626b579a630a004d74c906e8a5&#45;&gt;dir_5815af820a9cc9481f1d0990a0d60286</title>
<path fill="none" stroke="black" d="M91.31,-215.83C103.05,-185.58 122.88,-121.34 103,-72 98.65,-61.21 90.94,-51.39 82.81,-43.21"/>
<polygon fill="black" stroke="black" points="85,-40.46 75.3,-36.18 80.21,-45.57 85,-40.46"/>
<g id="a_edge4&#45;headlabel"><a xlink:href="dir_000464_000031.xhtml" target="_top" xlink:title="1">
<text text-anchor="middle" x="89.56" y="-38.35" font-family="Helvetica,sans-Serif" font-size="10.00">1</text>
</a>
</g>
</g>
<!-- dir_8224aa485683c095eaa3fd7faa788467&#45;&gt;dir_214608ef36d61442cb2b0c1c4e9a7def -->
<g id="edge1" class="edge">
<title>dir_8224aa485683c095eaa3fd7faa788467&#45;&gt;dir_214608ef36d61442cb2b0c1c4e9a7def</title>
<path fill="none" stroke="black" d="M33.93,-143.7C36.61,-135.9 39.83,-126.51 42.8,-117.83"/>
<polygon fill="black" stroke="black" points="46.2,-118.7 46.14,-108.1 39.58,-116.43 46.2,-118.7"/>
<g id="a_edge1&#45;headlabel"><a xlink:href="dir_000029_000000.xhtml" target="_top" xlink:title="2">
<text text-anchor="middle" x="47.72" y="-120.52" font-family="Helvetica,sans-Serif" font-size="10.00">2</text>
</a>
</g>
</g>
<!-- dir_214608ef36d61442cb2b0c1c4e9a7def&#45;&gt;dir_5815af820a9cc9481f1d0990a0d60286 -->
<g id="edge5" class="edge">
<title>dir_214608ef36d61442cb2b0c1c4e9a7def&#45;&gt;dir_5815af820a9cc9481f1d0990a0d60286</title>
<path fill="none" stroke="black" d="M46.08,-71.7C45.29,-63.98 45.06,-54.71 45.4,-46.11"/>
<polygon fill="black" stroke="black" points="48.9,-46.32 46.1,-36.1 41.92,-45.84 48.9,-46.32"/>
<g id="a_edge5&#45;headlabel"><a xlink:href="dir_000000_000031.xhtml" target="_top" xlink:title="16">
<text text-anchor="middle" x="51.48" y="-47.61" font-family="Helvetica,sans-Serif" font-size="10.00">16</text>
</a>
</g>
</g>
<!-- dir_5815af820a9cc9481f1d0990a0d60286&#45;&gt;dir_214608ef36d61442cb2b0c1c4e9a7def -->
<g id="edge6" class="edge">
<title>dir_5815af820a9cc9481f1d0990a0d60286&#45;&gt;dir_214608ef36d61442cb2b0c1c4e9a7def</title>
<path fill="none" stroke="black" d="M57.9,-36.1C58.7,-43.79 58.94,-53.05 58.6,-61.67"/>
<polygon fill="black" stroke="black" points="55.11,-61.48 57.92,-71.7 62.09,-61.96 55.11,-61.48"/>
<g id="a_edge6&#45;headlabel"><a xlink:href="dir_000031_000000.xhtml" target="_top" xlink:title="6">
<text text-anchor="middle" x="52.52" y="-55.2" font-family="Helvetica,sans-Serif" font-size="10.00">6</text>
</a>
</g>
</g>
</g>
</svg>
