<?xml version="1.0" encoding="UTF-8" standalone="no"?>
<!DOCTYPE svg PUBLIC "-//W3C//DTD SVG 1.1//EN"
 "http://www.w3.org/Graphics/SVG/1.1/DTD/svg11.dtd">
<!-- Generated by graphviz version 2.43.0 (0)
 -->
<!-- Title: tests/validation Pages: 1 -->
<svg width="955pt" height="447pt"
 viewBox="0.00 0.00 954.66 447.00" xmlns="http://www.w3.org/2000/svg" xmlns:xlink="http://www.w3.org/1999/xlink">
<g id="graph0" class="graph" transform="scale(1 1) rotate(0) translate(4 443)">
<title>tests/validation</title>
<polygon fill="white" stroke="transparent" points="-4,4 -4,-443 950.66,-443 950.66,4 -4,4"/>
<g id="clust1" class="cluster">
<title>clusterdir_59425e443f801f1f2fd8bbe4959a3ccf</title>
<g id="a_clust1"><a xlink:href="dir_59425e443f801f1f2fd8bbe4959a3ccf.xhtml" target="_top" xlink:title="tests">
<polygon fill="#ddddee" stroke="black" points="204,-272 204,-431 846,-431 846,-272 204,-272"/>
<text text-anchor="middle" x="525" y="-419" font-family="Helvetica,sans-Serif" font-size="10.00">tests</text>
</a>
</g>
</g>
<g id="clust2" class="cluster">
<title>clusterdir_e7c7b16542faa38cb4655ff1750d3604</title>
<g id="a_clust2"><a xlink:href="dir_e7c7b16542faa38cb4655ff1750d3604.xhtml" target="_top">
<polygon fill="#eeeeff" stroke="black" points="212,-280 212,-404 838,-404 838,-280 212,-280"/>
</a>
</g>
</g>
<!-- dir_e7c7b16542faa38cb4655ff1750d3604 -->
<g id="node1" class="node">
<title>dir_e7c7b16542faa38cb4655ff1750d3604</title>
<text text-anchor="middle" x="797" y="-375.5" font-family="Helvetica,sans-Serif" font-size="10.00">validation</text>
</g>
<!-- dir_f7024513cd67abef53e86ee9382ac5ce -->
<g id="node2" class="node">
<title>dir_f7024513cd67abef53e86ee9382ac5ce</title>
<g id="a_node2"><a xlink:href="dir_f7024513cd67abef53e86ee9382ac5ce.xhtml" target="_top" xlink:title="CL">
<polygon fill="white" stroke="red" points="562,-396 508,-396 508,-360 562,-360 562,-396"/>
<text text-anchor="middle" x="535" y="-375.5" font-family="Helvetica,sans-Serif" font-size="10.00">CL</text>
</a>
</g>
</g>
<!-- dir_46fdb196cebdbffe77dac340cde62f29 -->
<g id="node8" class="node">
<title>dir_46fdb196cebdbffe77dac340cde62f29</title>
<g id="a_node8"><a xlink:href="dir_46fdb196cebdbffe77dac340cde62f29.xhtml" target="_top" xlink:title="reference">
<polygon fill="white" stroke="black" points="342.5,-324 279.5,-324 279.5,-288 342.5,-288 342.5,-324"/>
<text text-anchor="middle" x="311" y="-303.5" font-family="Helvetica,sans-Serif" font-size="10.00">reference</text>
</a>
</g>
</g>
<!-- dir_f7024513cd67abef53e86ee9382ac5ce&#45;&gt;dir_46fdb196cebdbffe77dac340cde62f29 -->
<g id="edge28" class="edge">
<title>dir_f7024513cd67abef53e86ee9382ac5ce&#45;&gt;dir_46fdb196cebdbffe77dac340cde62f29</title>
<path fill="none" stroke="black" d="M507.69,-363.53C504.78,-362.27 501.85,-361.07 499,-360 449.73,-341.57 391.13,-326.01 352.61,-316.61"/>
<polygon fill="black" stroke="black" points="353.32,-313.19 342.78,-314.25 351.68,-319.99 353.32,-313.19"/>
<g id="a_edge28&#45;headlabel"><a xlink:href="dir_000467_000040.xhtml" target="_top" xlink:title="7">
<text text-anchor="middle" x="357.48" y="-308.77" font-family="Helvetica,sans-Serif" font-size="10.00">7</text>
</a>
</g>
</g>
<!-- dir_68267d1309a1af8e8297ef4c3efbcdba -->
<g id="node10" class="node">
<title>dir_68267d1309a1af8e8297ef4c3efbcdba</title>
<g id="a_node10"><a xlink:href="dir_68267d1309a1af8e8297ef4c3efbcdba.xhtml" target="_top" xlink:title="src">
<polygon fill="white" stroke="red" points="196,-252 142,-252 142,-216 196,-216 196,-252"/>
<text text-anchor="middle" x="169" y="-231.5" font-family="Helvetica,sans-Serif" font-size="10.00">src</text>
</a>
</g>
</g>
<!-- dir_f7024513cd67abef53e86ee9382ac5ce&#45;&gt;dir_68267d1309a1af8e8297ef4c3efbcdba -->
<g id="edge29" class="edge">
<title>dir_f7024513cd67abef53e86ee9382ac5ce&#45;&gt;dir_68267d1309a1af8e8297ef4c3efbcdba</title>
<path fill="none" stroke="black" d="M507.8,-363.18C504.88,-361.99 501.91,-360.9 499,-360 400.96,-329.79 363.95,-367.42 271,-324 253.9,-316.01 218.11,-283.01 193.81,-259.53"/>
<polygon fill="black" stroke="black" points="195.97,-256.75 186.36,-252.29 191.09,-261.77 195.97,-256.75"/>
<g id="a_edge29&#45;headlabel"><a xlink:href="dir_000467_000003.xhtml" target="_top" xlink:title="37">
<text text-anchor="middle" x="200.52" y="-254.72" font-family="Helvetica,sans-Serif" font-size="10.00">37</text>
</a>
</g>
</g>
<!-- dir_cbdb8362360e11eafe2fa3bc74cf0ffd -->
<g id="node11" class="node">
<title>dir_cbdb8362360e11eafe2fa3bc74cf0ffd</title>
<g id="a_node11"><a xlink:href="dir_cbdb8362360e11eafe2fa3bc74cf0ffd.xhtml" target="_top" xlink:title="utils">
<polygon fill="white" stroke="red" points="626,-180 572,-180 572,-144 626,-144 626,-180"/>
<text text-anchor="middle" x="599" y="-159.5" font-family="Helvetica,sans-Serif" font-size="10.00">utils</text>
</a>
</g>
</g>
<!-- dir_f7024513cd67abef53e86ee9382ac5ce&#45;&gt;dir_cbdb8362360e11eafe2fa3bc74cf0ffd -->
<g id="edge30" class="edge">
<title>dir_f7024513cd67abef53e86ee9382ac5ce&#45;&gt;dir_cbdb8362360e11eafe2fa3bc74cf0ffd</title>
<path fill="none" stroke="black" d="M551.53,-359.77C559.91,-350.03 569.47,-337.18 575,-324 593.57,-279.75 598.06,-223.37 598.98,-190.42"/>
<polygon fill="black" stroke="black" points="602.49,-190.25 599.17,-180.19 595.49,-190.12 602.49,-190.25"/>
<g id="a_edge30&#45;headlabel"><a xlink:href="dir_000467_000041.xhtml" target="_top" xlink:title="4">
<text text-anchor="middle" x="605.26" y="-191.4" font-family="Helvetica,sans-Serif" font-size="10.00">4</text>
</a>
</g>
</g>
<!-- dir_9e71e2da941d3cafc4d98a9f6ae3de4f -->
<g id="node13" class="node">
<title>dir_9e71e2da941d3cafc4d98a9f6ae3de4f</title>
<g id="a_node13"><a xlink:href="dir_9e71e2da941d3cafc4d98a9f6ae3de4f.xhtml" target="_top" xlink:title="framework">
<polygon fill="white" stroke="red" points="704,-252 634,-252 634,-216 704,-216 704,-252"/>
<text text-anchor="middle" x="669" y="-231.5" font-family="Helvetica,sans-Serif" font-size="10.00">framework</text>
</a>
</g>
</g>
<!-- dir_f7024513cd67abef53e86ee9382ac5ce&#45;&gt;dir_9e71e2da941d3cafc4d98a9f6ae3de4f -->
<g id="edge31" class="edge">
<title>dir_f7024513cd67abef53e86ee9382ac5ce&#45;&gt;dir_9e71e2da941d3cafc4d98a9f6ae3de4f</title>
<path fill="none" stroke="black" d="M562.1,-364.14C565.1,-362.73 568.11,-361.33 571,-360 606.41,-343.67 626.67,-354.47 651,-324 664.79,-306.72 668.88,-281.66 669.75,-262.53"/>
<polygon fill="black" stroke="black" points="673.25,-262.4 669.94,-252.33 666.25,-262.26 673.25,-262.4"/>
<g id="a_edge31&#45;headlabel"><a xlink:href="dir_000467_000038.xhtml" target="_top" xlink:title="343">
<text text-anchor="middle" x="676.02" y="-263.54" font-family="Helvetica,sans-Serif" font-size="10.00">343</text>
</a>
</g>
</g>
<!-- dir_214608ef36d61442cb2b0c1c4e9a7def -->
<g id="node14" class="node">
<title>dir_214608ef36d61442cb2b0c1c4e9a7def</title>
<g id="a_node14"><a xlink:href="dir_214608ef36d61442cb2b0c1c4e9a7def.xhtml" target="_top" xlink:title="arm_compute">
<polygon fill="white" stroke="red" points="571,-108 487,-108 487,-72 571,-72 571,-108"/>
<text text-anchor="middle" x="529" y="-87.5" font-family="Helvetica,sans-Serif" font-size="10.00">arm_compute</text>
</a>
</g>
</g>
<!-- dir_f7024513cd67abef53e86ee9382ac5ce&#45;&gt;dir_214608ef36d61442cb2b0c1c4e9a7def -->
<g id="edge32" class="edge">
<title>dir_f7024513cd67abef53e86ee9382ac5ce&#45;&gt;dir_214608ef36d61442cb2b0c1c4e9a7def</title>
<path fill="none" stroke="black" d="M535.81,-359.82C536.26,-349.45 536.77,-335.97 537,-324 538.4,-249.57 533.66,-161.83 530.88,-118.32"/>
<polygon fill="black" stroke="black" points="534.37,-117.99 530.22,-108.24 527.38,-118.45 534.37,-117.99"/>
<g id="a_edge32&#45;headlabel"><a xlink:href="dir_000467_000000.xhtml" target="_top" xlink:title="452">
<text text-anchor="middle" x="537.43" y="-118.89" font-family="Helvetica,sans-Serif" font-size="10.00">452</text>
</a>
</g>
</g>
<!-- dir_896191444cf08ec8ade6f88256cb2bdd -->
<g id="node15" class="node">
<title>dir_896191444cf08ec8ade6f88256cb2bdd</title>
<g id="a_node15"><a xlink:href="dir_896191444cf08ec8ade6f88256cb2bdd.xhtml" target="_top" xlink:title="CL">
<polygon fill="none" stroke="black" points="908,-324 854,-324 854,-288 908,-288 908,-324"/>
<text text-anchor="middle" x="881" y="-303.5" font-family="Helvetica,sans-Serif" font-size="10.00">CL</text>
</a>
</g>
</g>
<!-- dir_f7024513cd67abef53e86ee9382ac5ce&#45;&gt;dir_896191444cf08ec8ade6f88256cb2bdd -->
<g id="edge33" class="edge">
<title>dir_f7024513cd67abef53e86ee9382ac5ce&#45;&gt;dir_896191444cf08ec8ade6f88256cb2bdd</title>
<path fill="none" stroke="black" d="M562.17,-363.1C565.11,-361.93 568.08,-360.86 571,-360 687.55,-325.65 724.95,-356.59 842,-324 842.72,-323.8 843.44,-323.59 844.17,-323.37"/>
<polygon fill="black" stroke="black" points="845.37,-326.66 853.65,-320.05 843.06,-320.05 845.37,-326.66"/>
<g id="a_edge33&#45;headlabel"><a xlink:href="dir_000467_000540.xhtml" target="_top" xlink:title="139">
<text text-anchor="middle" x="842.91" y="-328.02" font-family="Helvetica,sans-Serif" font-size="10.00">139</text>
</a>
</g>
</g>
<!-- dir_420d2db1b9c99f59825a3985434c3703 -->
<g id="node3" class="node">
<title>dir_420d2db1b9c99f59825a3985434c3703</title>
<g id="a_node3"><a xlink:href="dir_420d2db1b9c99f59825a3985434c3703.xhtml" target="_top" xlink:title="CPP">
<polygon fill="white" stroke="black" points="490,-396 436,-396 436,-360 490,-360 490,-396"/>
<text text-anchor="middle" x="463" y="-375.5" font-family="Helvetica,sans-Serif" font-size="10.00">CPP</text>
</a>
</g>
</g>
<!-- dir_420d2db1b9c99f59825a3985434c3703&#45;&gt;dir_46fdb196cebdbffe77dac340cde62f29 -->
<g id="edge45" class="edge">
<title>dir_420d2db1b9c99f59825a3985434c3703&#45;&gt;dir_46fdb196cebdbffe77dac340cde62f29</title>
<path fill="none" stroke="black" d="M435.89,-364.15C432.89,-362.75 429.88,-361.34 427,-360 402.05,-348.41 373.99,-335.59 351.72,-325.45"/>
<polygon fill="black" stroke="black" points="353.11,-322.24 342.56,-321.29 350.21,-328.61 353.11,-322.24"/>
<g id="a_edge45&#45;headlabel"><a xlink:href="dir_000547_000040.xhtml" target="_top" xlink:title="2">
<text text-anchor="middle" x="357.56" y="-318.64" font-family="Helvetica,sans-Serif" font-size="10.00">2</text>
</a>
</g>
</g>
<!-- dir_445738e6fed662d0b65e690e3f1e1de0 -->
<g id="node12" class="node">
<title>dir_445738e6fed662d0b65e690e3f1e1de0</title>
<g id="a_node12"><a xlink:href="dir_445738e6fed662d0b65e690e3f1e1de0.xhtml" target="_top" xlink:title="NEON">
<polygon fill="none" stroke="black" points="196,-324 142,-324 142,-288 196,-288 196,-324"/>
<text text-anchor="middle" x="169" y="-303.5" font-family="Helvetica,sans-Serif" font-size="10.00">NEON</text>
</a>
</g>
</g>
<!-- dir_420d2db1b9c99f59825a3985434c3703&#45;&gt;dir_445738e6fed662d0b65e690e3f1e1de0 -->
<g id="edge46" class="edge">
<title>dir_420d2db1b9c99f59825a3985434c3703&#45;&gt;dir_445738e6fed662d0b65e690e3f1e1de0</title>
<path fill="none" stroke="black" d="M435.8,-363.2C432.87,-362 429.9,-360.9 427,-360 332.83,-330.66 302.61,-351.92 208,-324 207.28,-323.79 206.56,-323.57 205.84,-323.34"/>
<polygon fill="black" stroke="black" points="206.98,-320.03 196.38,-319.94 204.61,-326.61 206.98,-320.03"/>
<g id="a_edge46&#45;headlabel"><a xlink:href="dir_000547_000541.xhtml" target="_top" xlink:title="4">
<text text-anchor="middle" x="211.32" y="-316.07" font-family="Helvetica,sans-Serif" font-size="10.00">4</text>
</a>
</g>
</g>
<!-- dir_420d2db1b9c99f59825a3985434c3703&#45;&gt;dir_9e71e2da941d3cafc4d98a9f6ae3de4f -->
<g id="edge47" class="edge">
<title>dir_420d2db1b9c99f59825a3985434c3703&#45;&gt;dir_9e71e2da941d3cafc4d98a9f6ae3de4f</title>
<path fill="none" stroke="black" d="M487.85,-359.87C524.81,-334.39 594.36,-286.45 635.69,-257.96"/>
<polygon fill="black" stroke="black" points="637.82,-260.75 644.06,-252.19 633.84,-254.98 637.82,-260.75"/>
<g id="a_edge47&#45;headlabel"><a xlink:href="dir_000547_000038.xhtml" target="_top" xlink:title="15">
<text text-anchor="middle" x="636.47" y="-262.62" font-family="Helvetica,sans-Serif" font-size="10.00">15</text>
</a>
</g>
</g>
<!-- dir_420d2db1b9c99f59825a3985434c3703&#45;&gt;dir_214608ef36d61442cb2b0c1c4e9a7def -->
<g id="edge48" class="edge">
<title>dir_420d2db1b9c99f59825a3985434c3703&#45;&gt;dir_214608ef36d61442cb2b0c1c4e9a7def</title>
<path fill="none" stroke="black" d="M466.93,-359.97C477.96,-312.19 509.24,-176.62 522.71,-118.27"/>
<polygon fill="black" stroke="black" points="526.17,-118.84 525.01,-108.31 519.35,-117.26 526.17,-118.84"/>
<g id="a_edge48&#45;headlabel"><a xlink:href="dir_000547_000000.xhtml" target="_top" xlink:title="18">
<text text-anchor="middle" x="528.13" y="-120.48" font-family="Helvetica,sans-Serif" font-size="10.00">18</text>
</a>
</g>
</g>
<!-- dir_58f3176b1e99b444b21d021594354993 -->
<g id="node4" class="node">
<title>dir_58f3176b1e99b444b21d021594354993</title>
<g id="a_node4"><a xlink:href="dir_58f3176b1e99b444b21d021594354993.xhtml" target="_top" xlink:title="cpu">
<polygon fill="white" stroke="red" points="274,-396 220,-396 220,-360 274,-360 274,-396"/>
<text text-anchor="middle" x="247" y="-375.5" font-family="Helvetica,sans-Serif" font-size="10.00">cpu</text>
</a>
</g>
</g>
<!-- dir_58f3176b1e99b444b21d021594354993&#45;&gt;dir_68267d1309a1af8e8297ef4c3efbcdba -->
<g id="edge20" class="edge">
<title>dir_58f3176b1e99b444b21d021594354993&#45;&gt;dir_68267d1309a1af8e8297ef4c3efbcdba</title>
<path fill="none" stroke="black" d="M219.89,-373.25C173.27,-366.17 81.05,-349.28 62,-324 48.09,-305.54 48.59,-290.82 62,-272 77.77,-249.87 107.71,-240.85 131.92,-237.23"/>
<polygon fill="black" stroke="black" points="132.39,-240.7 141.89,-235.99 131.53,-233.76 132.39,-240.7"/>
<g id="a_edge20&#45;headlabel"><a xlink:href="dir_000088_000003.xhtml" target="_top" xlink:title="2">
<text text-anchor="middle" x="129.18" y="-241.46" font-family="Helvetica,sans-Serif" font-size="10.00">2</text>
</a>
</g>
</g>
<!-- dir_d178b4fe845b8ce36c704432820c8c40 -->
<g id="node5" class="node">
<title>dir_d178b4fe845b8ce36c704432820c8c40</title>
<g id="a_node5"><a xlink:href="dir_d178b4fe845b8ce36c704432820c8c40.xhtml" target="_top" xlink:title="dynamic_fusion">
<polygon fill="white" stroke="red" points="674,-396 580,-396 580,-360 674,-360 674,-396"/>
<text text-anchor="middle" x="627" y="-375.5" font-family="Helvetica,sans-Serif" font-size="10.00">dynamic_fusion</text>
</a>
</g>
</g>
<!-- dir_d178b4fe845b8ce36c704432820c8c40&#45;&gt;dir_46fdb196cebdbffe77dac340cde62f29 -->
<g id="edge9" class="edge">
<title>dir_d178b4fe845b8ce36c704432820c8c40&#45;&gt;dir_46fdb196cebdbffe77dac340cde62f29</title>
<path fill="none" stroke="black" d="M579.73,-362.31C576.78,-361.5 573.86,-360.72 571,-360 494.75,-340.7 404.56,-323.57 352.94,-314.3"/>
<polygon fill="black" stroke="black" points="353.29,-310.81 342.83,-312.5 352.06,-317.7 353.29,-310.81"/>
<g id="a_edge9&#45;headlabel"><a xlink:href="dir_000039_000040.xhtml" target="_top" xlink:title="8">
<text text-anchor="middle" x="357.33" y="-306.14" font-family="Helvetica,sans-Serif" font-size="10.00">8</text>
</a>
</g>
</g>
<!-- dir_d178b4fe845b8ce36c704432820c8c40&#45;&gt;dir_9e71e2da941d3cafc4d98a9f6ae3de4f -->
<g id="edge10" class="edge">
<title>dir_d178b4fe845b8ce36c704432820c8c40&#45;&gt;dir_9e71e2da941d3cafc4d98a9f6ae3de4f</title>
<path fill="none" stroke="black" d="M656.5,-359.94C668.98,-350.99 682.19,-338.79 689,-324 698.67,-303.01 694.67,-294.41 689,-272 688.11,-268.5 686.82,-264.96 685.32,-261.54"/>
<polygon fill="black" stroke="black" points="688.29,-259.67 680.66,-252.33 682.04,-262.83 688.29,-259.67"/>
<g id="a_edge10&#45;headlabel"><a xlink:href="dir_000039_000038.xhtml" target="_top" xlink:title="37">
<text text-anchor="middle" x="692.45" y="-259.1" font-family="Helvetica,sans-Serif" font-size="10.00">37</text>
</a>
</g>
</g>
<!-- dir_d178b4fe845b8ce36c704432820c8c40&#45;&gt;dir_214608ef36d61442cb2b0c1c4e9a7def -->
<g id="edge11" class="edge">
<title>dir_d178b4fe845b8ce36c704432820c8c40&#45;&gt;dir_214608ef36d61442cb2b0c1c4e9a7def</title>
<path fill="none" stroke="black" d="M674.23,-362.15C677.19,-361.38 680.13,-360.65 683,-360 734.3,-348.33 882.74,-363.93 917,-324 932.05,-306.46 928.46,-292.07 917,-272 847.5,-150.31 669.92,-109.69 581.16,-96.73"/>
<polygon fill="black" stroke="black" points="581.43,-93.24 571.04,-95.32 580.46,-100.17 581.43,-93.24"/>
<g id="a_edge11&#45;headlabel"><a xlink:href="dir_000039_000000.xhtml" target="_top" xlink:title="39">
<text text-anchor="middle" x="585.38" y="-88.42" font-family="Helvetica,sans-Serif" font-size="10.00">39</text>
</a>
</g>
</g>
<!-- dir_d178b4fe845b8ce36c704432820c8c40&#45;&gt;dir_896191444cf08ec8ade6f88256cb2bdd -->
<g id="edge12" class="edge">
<title>dir_d178b4fe845b8ce36c704432820c8c40&#45;&gt;dir_896191444cf08ec8ade6f88256cb2bdd</title>
<path fill="none" stroke="black" d="M674.29,-362.38C677.23,-361.55 680.15,-360.75 683,-360 753.04,-341.46 773.15,-346.58 842,-324 842.86,-323.72 843.73,-323.42 844.6,-323.12"/>
<polygon fill="black" stroke="black" points="845.87,-326.38 853.98,-319.56 843.39,-319.84 845.87,-326.38"/>
<g id="a_edge12&#45;headlabel"><a xlink:href="dir_000039_000540.xhtml" target="_top" xlink:title="13">
<text text-anchor="middle" x="843.52" y="-327.81" font-family="Helvetica,sans-Serif" font-size="10.00">13</text>
</a>
</g>
</g>
<!-- dir_fd4a7b5d6d327eebb6d6642c71eea13b -->
<g id="node6" class="node">
<title>dir_fd4a7b5d6d327eebb6d6642c71eea13b</title>
<g id="a_node6"><a xlink:href="dir_fd4a7b5d6d327eebb6d6642c71eea13b.xhtml" target="_top" xlink:title="gpu">
<polygon fill="white" stroke="red" points="346,-396 292,-396 292,-360 346,-360 346,-396"/>
<text text-anchor="middle" x="319" y="-375.5" font-family="Helvetica,sans-Serif" font-size="10.00">gpu</text>
</a>
</g>
</g>
<!-- dir_fd4a7b5d6d327eebb6d6642c71eea13b&#45;&gt;dir_68267d1309a1af8e8297ef4c3efbcdba -->
<g id="edge21" class="edge">
<title>dir_fd4a7b5d6d327eebb6d6642c71eea13b&#45;&gt;dir_68267d1309a1af8e8297ef4c3efbcdba</title>
<path fill="none" stroke="black" d="M291.77,-363.29C288.85,-362.08 285.89,-360.95 283,-360 204.26,-334.11 152.65,-388.02 100,-324 85.32,-306.15 88.13,-291.83 100,-272 107.23,-259.92 119.91,-251.55 132.44,-245.88"/>
<polygon fill="black" stroke="black" points="133.95,-249.05 141.9,-242.05 131.32,-242.56 133.95,-249.05"/>
<g id="a_edge21&#45;headlabel"><a xlink:href="dir_000090_000003.xhtml" target="_top" xlink:title="2">
<text text-anchor="middle" x="131.68" y="-250.53" font-family="Helvetica,sans-Serif" font-size="10.00">2</text>
</a>
</g>
</g>
<!-- dir_fd4a7b5d6d327eebb6d6642c71eea13b&#45;&gt;dir_214608ef36d61442cb2b0c1c4e9a7def -->
<g id="edge22" class="edge">
<title>dir_fd4a7b5d6d327eebb6d6642c71eea13b&#45;&gt;dir_214608ef36d61442cb2b0c1c4e9a7def</title>
<path fill="none" stroke="black" d="M329.64,-359.94C362.19,-307.81 458.66,-153.61 467,-144 476.08,-133.54 487.28,-123.33 497.65,-114.71"/>
<polygon fill="black" stroke="black" points="500.16,-117.18 505.73,-108.16 495.75,-111.74 500.16,-117.18"/>
<g id="a_edge22&#45;headlabel"><a xlink:href="dir_000090_000000.xhtml" target="_top" xlink:title="1">
<text text-anchor="middle" x="499.15" y="-119.15" font-family="Helvetica,sans-Serif" font-size="10.00">1</text>
</a>
</g>
</g>
<!-- dir_0538a82dae0483a21d0f1e9d7e0a45c6 -->
<g id="node7" class="node">
<title>dir_0538a82dae0483a21d0f1e9d7e0a45c6</title>
<g id="a_node7"><a xlink:href="dir_0538a82dae0483a21d0f1e9d7e0a45c6.xhtml" target="_top" xlink:title="NEON">
<polygon fill="white" stroke="red" points="418,-396 364,-396 364,-360 418,-360 418,-396"/>
<text text-anchor="middle" x="391" y="-375.5" font-family="Helvetica,sans-Serif" font-size="10.00">NEON</text>
</a>
</g>
</g>
<!-- dir_0538a82dae0483a21d0f1e9d7e0a45c6&#45;&gt;dir_46fdb196cebdbffe77dac340cde62f29 -->
<g id="edge34" class="edge">
<title>dir_0538a82dae0483a21d0f1e9d7e0a45c6&#45;&gt;dir_46fdb196cebdbffe77dac340cde62f29</title>
<path fill="none" stroke="black" d="M371.22,-359.7C361.25,-350.97 348.99,-340.24 338.14,-330.75"/>
<polygon fill="black" stroke="black" points="340.38,-328.06 330.55,-324.1 335.77,-333.32 340.38,-328.06"/>
<g id="a_edge34&#45;headlabel"><a xlink:href="dir_000468_000040.xhtml" target="_top" xlink:title="2">
<text text-anchor="middle" x="344.95" y="-325.79" font-family="Helvetica,sans-Serif" font-size="10.00">2</text>
</a>
</g>
</g>
<!-- dir_0538a82dae0483a21d0f1e9d7e0a45c6&#45;&gt;dir_68267d1309a1af8e8297ef4c3efbcdba -->
<g id="edge35" class="edge">
<title>dir_0538a82dae0483a21d0f1e9d7e0a45c6&#45;&gt;dir_68267d1309a1af8e8297ef4c3efbcdba</title>
<path fill="none" stroke="black" d="M363.8,-363.19C360.87,-362 357.9,-360.9 355,-360 307.27,-345.18 165.39,-362.06 133,-324 118.02,-306.4 124.3,-293.41 133,-272 134.76,-267.68 137.28,-263.59 140.2,-259.81"/>
<polygon fill="black" stroke="black" points="143.04,-261.88 147.05,-252.07 137.8,-257.24 143.04,-261.88"/>
<g id="a_edge35&#45;headlabel"><a xlink:href="dir_000468_000003.xhtml" target="_top" xlink:title="37">
<text text-anchor="middle" x="142.79" y="-263.95" font-family="Helvetica,sans-Serif" font-size="10.00">37</text>
</a>
</g>
</g>
<!-- dir_0538a82dae0483a21d0f1e9d7e0a45c6&#45;&gt;dir_cbdb8362360e11eafe2fa3bc74cf0ffd -->
<g id="edge36" class="edge">
<title>dir_0538a82dae0483a21d0f1e9d7e0a45c6&#45;&gt;dir_cbdb8362360e11eafe2fa3bc74cf0ffd</title>
<path fill="none" stroke="black" d="M401.51,-359.85C417.48,-334.06 447.41,-286.73 461,-272 492.28,-238.1 534.7,-206.25 564.22,-185.83"/>
<polygon fill="black" stroke="black" points="566.29,-188.66 572.57,-180.13 562.34,-182.88 566.29,-188.66"/>
<g id="a_edge36&#45;headlabel"><a xlink:href="dir_000468_000041.xhtml" target="_top" xlink:title="3">
<text text-anchor="middle" x="564.92" y="-190.54" font-family="Helvetica,sans-Serif" font-size="10.00">3</text>
</a>
</g>
</g>
<!-- dir_0538a82dae0483a21d0f1e9d7e0a45c6&#45;&gt;dir_445738e6fed662d0b65e690e3f1e1de0 -->
<g id="edge37" class="edge">
<title>dir_0538a82dae0483a21d0f1e9d7e0a45c6&#45;&gt;dir_445738e6fed662d0b65e690e3f1e1de0</title>
<path fill="none" stroke="black" d="M363.72,-363.42C360.81,-362.19 357.87,-361.02 355,-360 291.6,-337.53 271.73,-345.52 208,-324 207.14,-323.71 206.28,-323.41 205.41,-323.1"/>
<polygon fill="black" stroke="black" points="206.63,-319.82 196.04,-319.49 204.12,-326.35 206.63,-319.82"/>
<g id="a_edge37&#45;headlabel"><a xlink:href="dir_000468_000541.xhtml" target="_top" xlink:title="108">
<text text-anchor="middle" x="211.01" y="-315.96" font-family="Helvetica,sans-Serif" font-size="10.00">108</text>
</a>
</g>
</g>
<!-- dir_0538a82dae0483a21d0f1e9d7e0a45c6&#45;&gt;dir_9e71e2da941d3cafc4d98a9f6ae3de4f -->
<g id="edge38" class="edge">
<title>dir_0538a82dae0483a21d0f1e9d7e0a45c6&#45;&gt;dir_9e71e2da941d3cafc4d98a9f6ae3de4f</title>
<path fill="none" stroke="black" d="M413.93,-359.83C451.62,-331.72 523.81,-278.34 537,-272 564.55,-258.75 597.68,-249.48 623.86,-243.53"/>
<polygon fill="black" stroke="black" points="624.87,-246.9 633.89,-241.34 623.38,-240.06 624.87,-246.9"/>
<g id="a_edge38&#45;headlabel"><a xlink:href="dir_000468_000038.xhtml" target="_top" xlink:title="291">
<text text-anchor="middle" x="621.97" y="-247.94" font-family="Helvetica,sans-Serif" font-size="10.00">291</text>
</a>
</g>
</g>
<!-- dir_0538a82dae0483a21d0f1e9d7e0a45c6&#45;&gt;dir_214608ef36d61442cb2b0c1c4e9a7def -->
<g id="edge39" class="edge">
<title>dir_0538a82dae0483a21d0f1e9d7e0a45c6&#45;&gt;dir_214608ef36d61442cb2b0c1c4e9a7def</title>
<path fill="none" stroke="black" d="M394.92,-359.83C400.04,-338.67 409.93,-301.85 423,-272 448.48,-213.82 488.44,-150.9 511.33,-116.71"/>
<polygon fill="black" stroke="black" points="514.34,-118.5 517.03,-108.25 508.54,-114.58 514.34,-118.5"/>
<g id="a_edge39&#45;headlabel"><a xlink:href="dir_000468_000000.xhtml" target="_top" xlink:title="407">
<text text-anchor="middle" x="514.68" y="-120.57" font-family="Helvetica,sans-Serif" font-size="10.00">407</text>
</a>
</g>
</g>
<!-- dir_5815af820a9cc9481f1d0990a0d60286 -->
<g id="node16" class="node">
<title>dir_5815af820a9cc9481f1d0990a0d60286</title>
<g id="a_node16"><a xlink:href="dir_5815af820a9cc9481f1d0990a0d60286.xhtml" target="_top" xlink:title="support">
<polygon fill="none" stroke="black" points="556,-36 502,-36 502,0 556,0 556,-36"/>
<text text-anchor="middle" x="529" y="-15.5" font-family="Helvetica,sans-Serif" font-size="10.00">support</text>
</a>
</g>
</g>
<!-- dir_0538a82dae0483a21d0f1e9d7e0a45c6&#45;&gt;dir_5815af820a9cc9481f1d0990a0d60286 -->
<g id="edge40" class="edge">
<title>dir_0538a82dae0483a21d0f1e9d7e0a45c6&#45;&gt;dir_5815af820a9cc9481f1d0990a0d60286</title>
<path fill="none" stroke="black" d="M363.81,-363.16C360.88,-361.97 357.91,-360.89 355,-360 195.03,-311.11 0,-402.27 0,-235 0,-235 0,-235 0,-161 0,-59.12 370.64,-28.3 491.44,-20.97"/>
<polygon fill="black" stroke="black" points="491.9,-24.45 501.67,-20.37 491.48,-17.46 491.9,-24.45"/>
<g id="a_edge40&#45;headlabel"><a xlink:href="dir_000468_000031.xhtml" target="_top" xlink:title="1">
<text text-anchor="middle" x="488.47" y="-24.99" font-family="Helvetica,sans-Serif" font-size="10.00">1</text>
</a>
</g>
</g>
<!-- dir_46fdb196cebdbffe77dac340cde62f29&#45;&gt;dir_68267d1309a1af8e8297ef4c3efbcdba -->
<g id="edge1" class="edge">
<title>dir_46fdb196cebdbffe77dac340cde62f29&#45;&gt;dir_68267d1309a1af8e8297ef4c3efbcdba</title>
<path fill="none" stroke="black" d="M282.94,-287.9C273.83,-282.58 263.59,-276.85 254,-272 244.97,-267.44 224.3,-258.43 205.6,-250.44"/>
<polygon fill="black" stroke="black" points="206.94,-247.21 196.36,-246.51 204.19,-253.65 206.94,-247.21"/>
<g id="a_edge1&#45;headlabel"><a xlink:href="dir_000040_000003.xhtml" target="_top" xlink:title="3">
<text text-anchor="middle" x="211.36" y="-243.5" font-family="Helvetica,sans-Serif" font-size="10.00">3</text>
</a>
</g>
</g>
<!-- dir_46fdb196cebdbffe77dac340cde62f29&#45;&gt;dir_cbdb8362360e11eafe2fa3bc74cf0ffd -->
<g id="edge2" class="edge">
<title>dir_46fdb196cebdbffe77dac340cde62f29&#45;&gt;dir_cbdb8362360e11eafe2fa3bc74cf0ffd</title>
<path fill="none" stroke="black" d="M342.64,-289.4C396.63,-262.78 506.17,-208.77 563,-180.75"/>
<polygon fill="black" stroke="black" points="564.56,-183.89 571.98,-176.32 561.46,-177.61 564.56,-183.89"/>
<g id="a_edge2&#45;headlabel"><a xlink:href="dir_000040_000041.xhtml" target="_top" xlink:title="2">
<text text-anchor="middle" x="562.59" y="-185.52" font-family="Helvetica,sans-Serif" font-size="10.00">2</text>
</a>
</g>
</g>
<!-- dir_46fdb196cebdbffe77dac340cde62f29&#45;&gt;dir_9e71e2da941d3cafc4d98a9f6ae3de4f -->
<g id="edge3" class="edge">
<title>dir_46fdb196cebdbffe77dac340cde62f29&#45;&gt;dir_9e71e2da941d3cafc4d98a9f6ae3de4f</title>
<path fill="none" stroke="black" d="M342.54,-298.31C374.78,-291.52 426.33,-280.78 471,-272 523.4,-261.7 583.74,-250.52 623.9,-243.18"/>
<polygon fill="black" stroke="black" points="624.7,-246.59 633.91,-241.35 623.45,-239.71 624.7,-246.59"/>
<g id="a_edge3&#45;headlabel"><a xlink:href="dir_000040_000038.xhtml" target="_top" xlink:title="2">
<text text-anchor="middle" x="621.68" y="-247.53" font-family="Helvetica,sans-Serif" font-size="10.00">2</text>
</a>
</g>
</g>
<!-- dir_46fdb196cebdbffe77dac340cde62f29&#45;&gt;dir_214608ef36d61442cb2b0c1c4e9a7def -->
<g id="edge4" class="edge">
<title>dir_46fdb196cebdbffe77dac340cde62f29&#45;&gt;dir_214608ef36d61442cb2b0c1c4e9a7def</title>
<path fill="none" stroke="black" d="M310.85,-287.83C311.53,-255.23 317.74,-184.08 357,-144 388.28,-112.07 438.31,-99.27 476.37,-94.2"/>
<polygon fill="black" stroke="black" points="477.24,-97.62 486.76,-92.96 476.41,-90.67 477.24,-97.62"/>
<g id="a_edge4&#45;headlabel"><a xlink:href="dir_000040_000000.xhtml" target="_top" xlink:title="82">
<text text-anchor="middle" x="474.01" y="-98.36" font-family="Helvetica,sans-Serif" font-size="10.00">82</text>
</a>
</g>
</g>
<!-- dir_46fdb196cebdbffe77dac340cde62f29&#45;&gt;dir_5815af820a9cc9481f1d0990a0d60286 -->
<g id="edge5" class="edge">
<title>dir_46fdb196cebdbffe77dac340cde62f29&#45;&gt;dir_5815af820a9cc9481f1d0990a0d60286</title>
<path fill="none" stroke="black" d="M307.75,-287.96C302.72,-256.19 296.68,-187.26 329,-144 371.23,-87.46 447.25,-50.39 492.42,-32.21"/>
<polygon fill="black" stroke="black" points="493.81,-35.42 501.84,-28.51 491.26,-28.9 493.81,-35.42"/>
<g id="a_edge5&#45;headlabel"><a xlink:href="dir_000040_000031.xhtml" target="_top" xlink:title="7">
<text text-anchor="middle" x="491.51" y="-36.88" font-family="Helvetica,sans-Serif" font-size="10.00">7</text>
</a>
</g>
</g>
<!-- dir_0c108762cda89b68d4571cbbabdf46df -->
<g id="node9" class="node">
<title>dir_0c108762cda89b68d4571cbbabdf46df</title>
<g id="a_node9"><a xlink:href="dir_0c108762cda89b68d4571cbbabdf46df.xhtml" target="_top" xlink:title="UNIT">
<polygon fill="white" stroke="black" points="746,-396 692,-396 692,-360 746,-360 746,-396"/>
<text text-anchor="middle" x="719" y="-375.5" font-family="Helvetica,sans-Serif" font-size="10.00">UNIT</text>
</a>
</g>
</g>
<!-- dir_0c108762cda89b68d4571cbbabdf46df&#45;&gt;dir_cbdb8362360e11eafe2fa3bc74cf0ffd -->
<g id="edge23" class="edge">
<title>dir_0c108762cda89b68d4571cbbabdf46df&#45;&gt;dir_cbdb8362360e11eafe2fa3bc74cf0ffd</title>
<path fill="none" stroke="black" d="M746.19,-363.64C749.45,-362.3 752.77,-361.05 756,-360 833.59,-334.8 884.28,-387.09 936,-324 950.65,-306.13 949.6,-290.69 936,-272 865.83,-175.56 708.54,-162.68 636.42,-162.11"/>
<polygon fill="black" stroke="black" points="636.42,-158.61 626.42,-162.11 636.42,-165.61 636.42,-158.61"/>
<g id="a_edge23&#45;headlabel"><a xlink:href="dir_000097_000041.xhtml" target="_top" xlink:title="5">
<text text-anchor="middle" x="640.01" y="-153.27" font-family="Helvetica,sans-Serif" font-size="10.00">5</text>
</a>
</g>
</g>
<!-- dir_0c108762cda89b68d4571cbbabdf46df&#45;&gt;dir_9e71e2da941d3cafc4d98a9f6ae3de4f -->
<g id="edge24" class="edge">
<title>dir_0c108762cda89b68d4571cbbabdf46df&#45;&gt;dir_9e71e2da941d3cafc4d98a9f6ae3de4f</title>
<path fill="none" stroke="black" d="M746.22,-363.72C749.47,-362.36 752.78,-361.08 756,-360 825.48,-336.56 871.16,-381.22 917,-324 931.45,-305.96 932.09,-289.51 917,-272 903.96,-256.87 782.09,-244.41 714.18,-238.57"/>
<polygon fill="black" stroke="black" points="714.43,-235.08 704.17,-237.73 713.84,-242.06 714.43,-235.08"/>
<g id="a_edge24&#45;headlabel"><a xlink:href="dir_000097_000038.xhtml" target="_top" xlink:title="24">
<text text-anchor="middle" x="718.25" y="-230.06" font-family="Helvetica,sans-Serif" font-size="10.00">24</text>
</a>
</g>
</g>
<!-- dir_0c108762cda89b68d4571cbbabdf46df&#45;&gt;dir_214608ef36d61442cb2b0c1c4e9a7def -->
<g id="edge25" class="edge">
<title>dir_0c108762cda89b68d4571cbbabdf46df&#45;&gt;dir_214608ef36d61442cb2b0c1c4e9a7def</title>
<path fill="none" stroke="black" d="M746.2,-363.65C749.46,-362.3 752.77,-361.05 756,-360 833.17,-334.89 883.59,-386.78 935,-324 949.64,-306.12 941.08,-294.3 935,-272 895.53,-127.28 681.95,-97.98 581.4,-92.26"/>
<polygon fill="black" stroke="black" points="581.33,-88.75 571.16,-91.73 580.97,-95.74 581.33,-88.75"/>
<g id="a_edge25&#45;headlabel"><a xlink:href="dir_000097_000000.xhtml" target="_top" xlink:title="17">
<text text-anchor="middle" x="585.06" y="-83.6" font-family="Helvetica,sans-Serif" font-size="10.00">17</text>
</a>
</g>
</g>
<!-- dir_68267d1309a1af8e8297ef4c3efbcdba&#45;&gt;dir_cbdb8362360e11eafe2fa3bc74cf0ffd -->
<g id="edge6" class="edge">
<title>dir_68267d1309a1af8e8297ef4c3efbcdba&#45;&gt;dir_cbdb8362360e11eafe2fa3bc74cf0ffd</title>
<path fill="none" stroke="black" d="M196.22,-228.57C270.57,-216.47 477.13,-182.84 561.94,-169.03"/>
<polygon fill="black" stroke="black" points="562.59,-172.47 571.89,-167.41 561.46,-165.56 562.59,-172.47"/>
<g id="a_edge6&#45;headlabel"><a xlink:href="dir_000003_000041.xhtml" target="_top" xlink:title="4">
<text text-anchor="middle" x="559.49" y="-173.35" font-family="Helvetica,sans-Serif" font-size="10.00">4</text>
</a>
</g>
</g>
<!-- dir_68267d1309a1af8e8297ef4c3efbcdba&#45;&gt;dir_214608ef36d61442cb2b0c1c4e9a7def -->
<g id="edge7" class="edge">
<title>dir_68267d1309a1af8e8297ef4c3efbcdba&#45;&gt;dir_214608ef36d61442cb2b0c1c4e9a7def</title>
<path fill="none" stroke="black" d="M185.5,-215.72C205.96,-195.36 242.82,-162.02 281,-144 344.46,-114.05 425.02,-100.85 476.8,-95.15"/>
<polygon fill="black" stroke="black" points="477.18,-98.63 486.76,-94.11 476.45,-91.67 477.18,-98.63"/>
<g id="a_edge7&#45;headlabel"><a xlink:href="dir_000003_000000.xhtml" target="_top" xlink:title="3574">
<text text-anchor="middle" x="473.9" y="-99.33" font-family="Helvetica,sans-Serif" font-size="10.00">3574</text>
</a>
</g>
</g>
<!-- dir_68267d1309a1af8e8297ef4c3efbcdba&#45;&gt;dir_5815af820a9cc9481f1d0990a0d60286 -->
<g id="edge8" class="edge">
<title>dir_68267d1309a1af8e8297ef4c3efbcdba&#45;&gt;dir_5815af820a9cc9481f1d0990a0d60286</title>
<path fill="none" stroke="black" d="M167.2,-215.95C164.75,-182.93 164.59,-110.14 205,-72 245.83,-33.47 415.66,-22.85 491.79,-20.01"/>
<polygon fill="black" stroke="black" points="492.02,-23.5 501.89,-19.66 491.77,-16.51 492.02,-23.5"/>
<g id="a_edge8&#45;headlabel"><a xlink:href="dir_000003_000031.xhtml" target="_top" xlink:title="224">
<text text-anchor="middle" x="488.52" y="-23.97" font-family="Helvetica,sans-Serif" font-size="10.00">224</text>
</a>
</g>
</g>
<!-- dir_cbdb8362360e11eafe2fa3bc74cf0ffd&#45;&gt;dir_214608ef36d61442cb2b0c1c4e9a7def -->
<g id="edge13" class="edge">
<title>dir_cbdb8362360e11eafe2fa3bc74cf0ffd&#45;&gt;dir_214608ef36d61442cb2b0c1c4e9a7def</title>
<path fill="none" stroke="black" d="M575.78,-143.7C566.43,-135.22 555.89,-124.86 547.11,-115.58"/>
<polygon fill="black" stroke="black" points="549.56,-113.08 540.21,-108.1 544.42,-117.83 549.56,-113.08"/>
<g id="a_edge13&#45;headlabel"><a xlink:href="dir_000041_000000.xhtml" target="_top" xlink:title="52">
<text text-anchor="middle" x="554.09" y="-111.3" font-family="Helvetica,sans-Serif" font-size="10.00">52</text>
</a>
</g>
</g>
<!-- dir_cbdb8362360e11eafe2fa3bc74cf0ffd&#45;&gt;dir_5815af820a9cc9481f1d0990a0d60286 -->
<g id="edge14" class="edge">
<title>dir_cbdb8362360e11eafe2fa3bc74cf0ffd&#45;&gt;dir_5815af820a9cc9481f1d0990a0d60286</title>
<path fill="none" stroke="black" d="M598.14,-143.99C596.59,-125.34 592.23,-95.02 580,-72 574.35,-61.36 565.93,-51.36 557.56,-42.98"/>
<polygon fill="black" stroke="black" points="559.94,-40.41 550.28,-36.05 555.12,-45.48 559.94,-40.41"/>
<g id="a_edge14&#45;headlabel"><a xlink:href="dir_000041_000031.xhtml" target="_top" xlink:title="4">
<text text-anchor="middle" x="564.5" y="-38.33" font-family="Helvetica,sans-Serif" font-size="10.00">4</text>
</a>
</g>
</g>
<!-- dir_445738e6fed662d0b65e690e3f1e1de0&#45;&gt;dir_68267d1309a1af8e8297ef4c3efbcdba -->
<g id="edge15" class="edge">
<title>dir_445738e6fed662d0b65e690e3f1e1de0&#45;&gt;dir_68267d1309a1af8e8297ef4c3efbcdba</title>
<path fill="none" stroke="black" d="M169,-287.7C169,-279.98 169,-270.71 169,-262.11"/>
<polygon fill="black" stroke="black" points="172.5,-262.1 169,-252.1 165.5,-262.1 172.5,-262.1"/>
<g id="a_edge15&#45;headlabel"><a xlink:href="dir_000541_000003.xhtml" target="_top" xlink:title="2">
<text text-anchor="middle" x="175.34" y="-263.2" font-family="Helvetica,sans-Serif" font-size="10.00">2</text>
</a>
</g>
</g>
<!-- dir_445738e6fed662d0b65e690e3f1e1de0&#45;&gt;dir_214608ef36d61442cb2b0c1c4e9a7def -->
<g id="edge16" class="edge">
<title>dir_445738e6fed662d0b65e690e3f1e1de0&#45;&gt;dir_214608ef36d61442cb2b0c1c4e9a7def</title>
<path fill="none" stroke="black" d="M180.96,-287.97C205.05,-254.98 262.8,-182.24 329,-144 374.98,-117.44 434.54,-103.89 476.67,-97.17"/>
<polygon fill="black" stroke="black" points="477.35,-100.6 486.71,-95.64 476.3,-93.68 477.35,-100.6"/>
<g id="a_edge16&#45;headlabel"><a xlink:href="dir_000541_000000.xhtml" target="_top" xlink:title="6">
<text text-anchor="middle" x="474.23" y="-101.45" font-family="Helvetica,sans-Serif" font-size="10.00">6</text>
</a>
</g>
</g>
<!-- dir_9e71e2da941d3cafc4d98a9f6ae3de4f&#45;&gt;dir_cbdb8362360e11eafe2fa3bc74cf0ffd -->
<g id="edge17" class="edge">
<title>dir_9e71e2da941d3cafc4d98a9f6ae3de4f&#45;&gt;dir_cbdb8362360e11eafe2fa3bc74cf0ffd</title>
<path fill="none" stroke="black" d="M651.7,-215.7C643.14,-207.14 632.66,-196.66 623.3,-187.3"/>
<polygon fill="black" stroke="black" points="625.65,-184.7 616.1,-180.1 620.7,-189.65 625.65,-184.7"/>
<g id="a_edge17&#45;headlabel"><a xlink:href="dir_000038_000041.xhtml" target="_top" xlink:title="4">
<text text-anchor="middle" x="630.2" y="-182.73" font-family="Helvetica,sans-Serif" font-size="10.00">4</text>
</a>
</g>
</g>
<!-- dir_9e71e2da941d3cafc4d98a9f6ae3de4f&#45;&gt;dir_214608ef36d61442cb2b0c1c4e9a7def -->
<g id="edge18" class="edge">
<title>dir_9e71e2da941d3cafc4d98a9f6ae3de4f&#45;&gt;dir_214608ef36d61442cb2b0c1c4e9a7def</title>
<path fill="none" stroke="black" d="M666.32,-215.98C662.47,-196.49 653.66,-164.59 635,-144 620.34,-127.82 599.62,-115.94 580.38,-107.59"/>
<polygon fill="black" stroke="black" points="581.66,-104.33 571.08,-103.76 579,-110.8 581.66,-104.33"/>
<g id="a_edge18&#45;headlabel"><a xlink:href="dir_000038_000000.xhtml" target="_top" xlink:title="16">
<text text-anchor="middle" x="586.07" y="-100.57" font-family="Helvetica,sans-Serif" font-size="10.00">16</text>
</a>
</g>
</g>
<!-- dir_9e71e2da941d3cafc4d98a9f6ae3de4f&#45;&gt;dir_5815af820a9cc9481f1d0990a0d60286 -->
<g id="edge19" class="edge">
<title>dir_9e71e2da941d3cafc4d98a9f6ae3de4f&#45;&gt;dir_5815af820a9cc9481f1d0990a0d60286</title>
<path fill="none" stroke="black" d="M669.89,-215.88C670.23,-197.41 668.91,-167.49 659,-144 640.09,-99.17 596.24,-62.71 564.69,-40.97"/>
<polygon fill="black" stroke="black" points="566.4,-37.91 556.15,-35.24 562.5,-43.72 566.4,-37.91"/>
<g id="a_edge19&#45;headlabel"><a xlink:href="dir_000038_000031.xhtml" target="_top" xlink:title="6">
<text text-anchor="middle" x="570.97" y="-35.05" font-family="Helvetica,sans-Serif" font-size="10.00">6</text>
</a>
</g>
</g>
<!-- dir_214608ef36d61442cb2b0c1c4e9a7def&#45;&gt;dir_cbdb8362360e11eafe2fa3bc74cf0ffd -->
<g id="edge26" class="edge">
<title>dir_214608ef36d61442cb2b0c1c4e9a7def&#45;&gt;dir_cbdb8362360e11eafe2fa3bc74cf0ffd</title>
<path fill="none" stroke="black" d="M552,-108.1C561.33,-116.55 571.88,-126.9 580.69,-136.2"/>
<polygon fill="black" stroke="black" points="578.26,-138.73 587.61,-143.7 583.4,-133.98 578.26,-138.73"/>
<g id="a_edge26&#45;headlabel"><a xlink:href="dir_000000_000041.xhtml" target="_top" xlink:title="1">
<text text-anchor="middle" x="573.73" y="-135.51" font-family="Helvetica,sans-Serif" font-size="10.00">1</text>
</a>
</g>
</g>
<!-- dir_214608ef36d61442cb2b0c1c4e9a7def&#45;&gt;dir_5815af820a9cc9481f1d0990a0d60286 -->
<g id="edge27" class="edge">
<title>dir_214608ef36d61442cb2b0c1c4e9a7def&#45;&gt;dir_5815af820a9cc9481f1d0990a0d60286</title>
<path fill="none" stroke="black" d="M523.08,-71.7C522.29,-63.98 522.06,-54.71 522.4,-46.11"/>
<polygon fill="black" stroke="black" points="525.9,-46.32 523.1,-36.1 518.92,-45.84 525.9,-46.32"/>
<g id="a_edge27&#45;headlabel"><a xlink:href="dir_000000_000031.xhtml" target="_top" xlink:title="16">
<text text-anchor="middle" x="528.48" y="-47.61" font-family="Helvetica,sans-Serif" font-size="10.00">16</text>
</a>
</g>
</g>
<!-- dir_896191444cf08ec8ade6f88256cb2bdd&#45;&gt;dir_68267d1309a1af8e8297ef4c3efbcdba -->
<g id="edge41" class="edge">
<title>dir_896191444cf08ec8ade6f88256cb2bdd&#45;&gt;dir_68267d1309a1af8e8297ef4c3efbcdba</title>
<path fill="none" stroke="black" d="M865.52,-287.87C858.92,-281.73 850.74,-275.47 842,-272 812.3,-260.18 342.79,-241.58 206.08,-236.38"/>
<polygon fill="black" stroke="black" points="206.21,-232.89 196.08,-236.01 205.94,-239.88 206.21,-232.89"/>
<g id="a_edge41&#45;headlabel"><a xlink:href="dir_000540_000003.xhtml" target="_top" xlink:title="4">
<text text-anchor="middle" x="209.91" y="-227.69" font-family="Helvetica,sans-Serif" font-size="10.00">4</text>
</a>
</g>
</g>
<!-- dir_896191444cf08ec8ade6f88256cb2bdd&#45;&gt;dir_9e71e2da941d3cafc4d98a9f6ae3de4f -->
<g id="edge42" class="edge">
<title>dir_896191444cf08ec8ade6f88256cb2bdd&#45;&gt;dir_9e71e2da941d3cafc4d98a9f6ae3de4f</title>
<path fill="none" stroke="black" d="M864.46,-287.87C857.96,-282.04 850.12,-275.99 842,-272 801.48,-252.1 750.45,-242.85 714.35,-238.59"/>
<polygon fill="black" stroke="black" points="714.44,-235.08 704.12,-237.47 713.67,-242.04 714.44,-235.08"/>
<g id="a_edge42&#45;headlabel"><a xlink:href="dir_000540_000038.xhtml" target="_top" xlink:title="1">
<text text-anchor="middle" x="718.32" y="-230.15" font-family="Helvetica,sans-Serif" font-size="10.00">1</text>
</a>
</g>
</g>
<!-- dir_896191444cf08ec8ade6f88256cb2bdd&#45;&gt;dir_214608ef36d61442cb2b0c1c4e9a7def -->
<g id="edge43" class="edge">
<title>dir_896191444cf08ec8ade6f88256cb2bdd&#45;&gt;dir_214608ef36d61442cb2b0c1c4e9a7def</title>
<path fill="none" stroke="black" d="M861.07,-287.79C823.57,-256.07 739.07,-187.61 659,-144 634.06,-130.41 604.89,-118.22 580.5,-108.96"/>
<polygon fill="black" stroke="black" points="581.66,-105.65 571.07,-105.43 579.21,-112.21 581.66,-105.65"/>
<g id="a_edge43&#45;headlabel"><a xlink:href="dir_000540_000000.xhtml" target="_top" xlink:title="6">
<text text-anchor="middle" x="586.02" y="-101.75" font-family="Helvetica,sans-Serif" font-size="10.00">6</text>
</a>
</g>
</g>
<!-- dir_896191444cf08ec8ade6f88256cb2bdd&#45;&gt;dir_5815af820a9cc9481f1d0990a0d60286 -->
<g id="edge44" class="edge">
<title>dir_896191444cf08ec8ade6f88256cb2bdd&#45;&gt;dir_5815af820a9cc9481f1d0990a0d60286</title>
<path fill="none" stroke="black" d="M868.45,-287.78C854.58,-269.22 831.12,-239.23 808,-216 737.18,-144.86 718,-126.96 634,-72 612.22,-57.75 586.09,-44.55 565.35,-34.89"/>
<polygon fill="black" stroke="black" points="566.78,-31.69 556.24,-30.7 563.87,-38.06 566.78,-31.69"/>
<g id="a_edge44&#45;headlabel"><a xlink:href="dir_000540_000031.xhtml" target="_top" xlink:title="1">
<text text-anchor="middle" x="571.24" y="-28.11" font-family="Helvetica,sans-Serif" font-size="10.00">1</text>
</a>
</g>
</g>
<!-- dir_5815af820a9cc9481f1d0990a0d60286&#45;&gt;dir_214608ef36d61442cb2b0c1c4e9a7def -->
<g id="edge49" class="edge">
<title>dir_5815af820a9cc9481f1d0990a0d60286&#45;&gt;dir_214608ef36d61442cb2b0c1c4e9a7def</title>
<path fill="none" stroke="black" d="M534.9,-36.1C535.7,-43.79 535.94,-53.05 535.6,-61.67"/>
<polygon fill="black" stroke="black" points="532.11,-61.48 534.92,-71.7 539.09,-61.96 532.11,-61.48"/>
<g id="a_edge49&#45;headlabel"><a xlink:href="dir_000031_000000.xhtml" target="_top" xlink:title="6">
<text text-anchor="middle" x="529.52" y="-55.2" font-family="Helvetica,sans-Serif" font-size="10.00">6</text>
</a>
</g>
</g>
</g>
</svg>
