<?xml version="1.0" encoding="UTF-8" standalone="no"?>
<!DOCTYPE svg PUBLIC "-//W3C//DTD SVG 1.1//EN"
 "http://www.w3.org/Graphics/SVG/1.1/DTD/svg11.dtd">
<!-- Generated by graphviz version 2.38.0 (20140413.2041)
 -->
<!-- Title: arm_compute/runtime/CL Pages: 1 -->
<svg width="196pt" height="447pt"
 viewBox="0.00 0.00 196.00 447.00" xmlns="http://www.w3.org/2000/svg" xmlns:xlink="http://www.w3.org/1999/xlink">
<g id="graph0" class="graph" transform="scale(1 1) rotate(0) translate(4 443)">
<title>arm_compute/runtime/CL</title>
<polygon fill="white" stroke="none" points="-4,4 -4,-443 192,-443 192,4 -4,4"/>
<g id="clust1" class="cluster"><title>clusterdir_8bc26130589aa16388b5a02f17abf2c2</title>
<g id="a_clust1"><a xlink:href="dir_8bc26130589aa16388b5a02f17abf2c2.xhtml" target="_top" xlink:title="runtime">
<polygon fill="#ddddee" stroke="black" points="8,-272 8,-431 166,-431 166,-272 8,-272"/>
<text text-anchor="middle" x="87" y="-419" font-family="Helvetica,sans-Serif" font-size="10.00">runtime</text>
</a>
</g>
</g>
<g id="clust2" class="cluster"><title>clusterdir_b986aa98f9b6490bb4fc7918500346fb</title>
<g id="a_clust2"><a xlink:href="dir_b986aa98f9b6490bb4fc7918500346fb.xhtml" target="_top">
<polygon fill="#eeeeff" stroke="black" points="16,-280 16,-404 158,-404 158,-280 16,-280"/>
</a>
</g>
</g>
<!-- dir_b986aa98f9b6490bb4fc7918500346fb -->
<g id="node1" class="node"><title>dir_b986aa98f9b6490bb4fc7918500346fb</title>
<text text-anchor="middle" x="51" y="-375.5" font-family="Helvetica,sans-Serif" font-size="10.00">CL</text>
</g>
<!-- dir_251c63bc3f70b60acf43edd6d870a3ef -->
<g id="node2" class="node"><title>dir_251c63bc3f70b60acf43edd6d870a3ef</title>
<g id="a_node2"><a xlink:href="dir_251c63bc3f70b60acf43edd6d870a3ef.xhtml" target="_top" xlink:title="functions">
<polygon fill="white" stroke="black" points="84,-324 24,-324 24,-288 84,-288 84,-324"/>
<text text-anchor="middle" x="54" y="-303.5" font-family="Helvetica,sans-Serif" font-size="10.00">functions</text>
</a>
</g>
</g>
<!-- dir_b986aa98f9b6490bb4fc7918500346fb&#45;&gt;dir_251c63bc3f70b60acf43edd6d870a3ef -->
<g id="edge11" class="edge"><title>dir_b986aa98f9b6490bb4fc7918500346fb&#45;&gt;dir_251c63bc3f70b60acf43edd6d870a3ef</title>
<path fill="none" stroke="black" d="M51.7416,-359.697C52.0722,-351.983 52.4695,-342.712 52.838,-334.112"/>
<polygon fill="black" stroke="black" points="56.3355,-334.245 53.267,-324.104 49.3419,-333.945 56.3355,-334.245"/>
<g id="a_edge11&#45;headlabel"><a xlink:href="dir_000004_000050.xhtml" target="_top" xlink:title="126">
<text text-anchor="middle" x="59.0183" y="-335.458" font-family="Helvetica,sans-Serif" font-size="10.00">126</text>
</a>
</g>
</g>
<!-- dir_1fb090f0c6070330bfaccc4236d3ca0d -->
<g id="node5" class="node"><title>dir_1fb090f0c6070330bfaccc4236d3ca0d</title>
<g id="a_node5"><a xlink:href="dir_1fb090f0c6070330bfaccc4236d3ca0d.xhtml" target="_top" xlink:title="core">
<polygon fill="white" stroke="red" points="101,-180 47,-180 47,-144 101,-144 101,-180"/>
<text text-anchor="middle" x="74" y="-159.5" font-family="Helvetica,sans-Serif" font-size="10.00">core</text>
</a>
</g>
</g>
<!-- dir_b986aa98f9b6490bb4fc7918500346fb&#45;&gt;dir_1fb090f0c6070330bfaccc4236d3ca0d -->
<g id="edge12" class="edge"><title>dir_b986aa98f9b6490bb4fc7918500346fb&#45;&gt;dir_1fb090f0c6070330bfaccc4236d3ca0d</title>
<path fill="none" stroke="black" d="M69.6042,-359.756C78.5307,-350.198 88.2902,-337.527 93,-324 108.784,-278.667 100.245,-263.289 92,-216 90.481,-207.288 87.7675,-198.073 84.9006,-189.813"/>
<polygon fill="black" stroke="black" points="88.1402,-188.482 81.3976,-180.31 81.5722,-190.903 88.1402,-188.482"/>
<g id="a_edge12&#45;headlabel"><a xlink:href="dir_000004_000001.xhtml" target="_top" xlink:title="258">
<text text-anchor="middle" x="92.0474" y="-188.373" font-family="Helvetica,sans-Serif" font-size="10.00">258</text>
</a>
</g>
</g>
<!-- dir_b496024afd63bafbf4e8da80d7d3a81a -->
<g id="node4" class="node"><title>dir_b496024afd63bafbf4e8da80d7d3a81a</title>
<g id="a_node4"><a xlink:href="dir_b496024afd63bafbf4e8da80d7d3a81a.xhtml" target="_top" xlink:title="CPP">
<polygon fill="white" stroke="red" points="101,-108 47,-108 47,-72 101,-72 101,-108"/>
<text text-anchor="middle" x="74" y="-87.5" font-family="Helvetica,sans-Serif" font-size="10.00">CPP</text>
</a>
</g>
</g>
<!-- dir_251c63bc3f70b60acf43edd6d870a3ef&#45;&gt;dir_b496024afd63bafbf4e8da80d7d3a81a -->
<g id="edge1" class="edge"><title>dir_251c63bc3f70b60acf43edd6d870a3ef&#45;&gt;dir_b496024afd63bafbf4e8da80d7d3a81a</title>
<path fill="none" stroke="black" d="M32.7334,-287.701C22.891,-278.305 12.2366,-265.798 7,-252 1.32268,-237.041 3.76982,-231.671 7,-216 14.7033,-178.629 37.6321,-140.697 54.5301,-116.578"/>
<polygon fill="black" stroke="black" points="57.4533,-118.508 60.4434,-108.344 51.7675,-114.425 57.4533,-118.508"/>
<g id="a_edge1&#45;headlabel"><a xlink:href="dir_000050_000053.xhtml" target="_top" xlink:title="3">
<text text-anchor="middle" x="57.6628" y="-120.584" font-family="Helvetica,sans-Serif" font-size="10.00">3</text>
</a>
</g>
</g>
<!-- dir_251c63bc3f70b60acf43edd6d870a3ef&#45;&gt;dir_1fb090f0c6070330bfaccc4236d3ca0d -->
<g id="edge2" class="edge"><title>dir_251c63bc3f70b60acf43edd6d870a3ef&#45;&gt;dir_1fb090f0c6070330bfaccc4236d3ca0d</title>
<path fill="none" stroke="black" d="M37.1103,-287.993C28.7065,-278.315 19.4183,-265.459 15,-252 10.0096,-236.798 8.48373,-230.613 15,-216 20.1696,-204.407 29.2669,-194.291 38.7928,-186.091"/>
<polygon fill="black" stroke="black" points="41.201,-188.646 46.8185,-179.663 36.8252,-183.182 41.201,-188.646"/>
<g id="a_edge2&#45;headlabel"><a xlink:href="dir_000050_000001.xhtml" target="_top" xlink:title="212">
<text text-anchor="middle" x="40.1702" y="-190.609" font-family="Helvetica,sans-Serif" font-size="10.00">212</text>
</a>
</g>
</g>
<!-- dir_b9621ae687ab229876c54f8c2df20e15 -->
<g id="node7" class="node"><title>dir_b9621ae687ab229876c54f8c2df20e15</title>
<g id="a_node7"><a xlink:href="dir_b9621ae687ab229876c54f8c2df20e15.xhtml" target="_top" xlink:title="common">
<polygon fill="none" stroke="black" points="83.5,-252 24.5,-252 24.5,-216 83.5,-216 83.5,-252"/>
<text text-anchor="middle" x="54" y="-231.5" font-family="Helvetica,sans-Serif" font-size="10.00">common</text>
</a>
</g>
</g>
<!-- dir_251c63bc3f70b60acf43edd6d870a3ef&#45;&gt;dir_b9621ae687ab229876c54f8c2df20e15 -->
<g id="edge3" class="edge"><title>dir_251c63bc3f70b60acf43edd6d870a3ef&#45;&gt;dir_b9621ae687ab229876c54f8c2df20e15</title>
<path fill="none" stroke="black" d="M54,-287.697C54,-279.983 54,-270.712 54,-262.112"/>
<polygon fill="black" stroke="black" points="57.5001,-262.104 54,-252.104 50.5001,-262.104 57.5001,-262.104"/>
<g id="a_edge3&#45;headlabel"><a xlink:href="dir_000050_000052.xhtml" target="_top" xlink:title="2">
<text text-anchor="middle" x="60.3393" y="-263.199" font-family="Helvetica,sans-Serif" font-size="10.00">2</text>
</a>
</g>
</g>
<!-- dir_50b23570393db6a4ca8647d7d5ff6dbe -->
<g id="node3" class="node"><title>dir_50b23570393db6a4ca8647d7d5ff6dbe</title>
<g id="a_node3"><a xlink:href="dir_50b23570393db6a4ca8647d7d5ff6dbe.xhtml" target="_top" xlink:title="tuners">
<polygon fill="white" stroke="black" points="150,-396 96,-396 96,-360 150,-360 150,-396"/>
<text text-anchor="middle" x="123" y="-375.5" font-family="Helvetica,sans-Serif" font-size="10.00">tuners</text>
</a>
</g>
</g>
<!-- dir_50b23570393db6a4ca8647d7d5ff6dbe&#45;&gt;dir_1fb090f0c6070330bfaccc4236d3ca0d -->
<g id="edge6" class="edge"><title>dir_50b23570393db6a4ca8647d7d5ff6dbe&#45;&gt;dir_1fb090f0c6070330bfaccc4236d3ca0d</title>
<path fill="none" stroke="black" d="M124.413,-359.961C126.301,-329.921 127.606,-265.99 110,-216 106.599,-206.344 100.991,-196.781 95.2023,-188.492"/>
<polygon fill="black" stroke="black" points="97.9505,-186.322 89.189,-180.365 92.3233,-190.486 97.9505,-186.322"/>
<g id="a_edge6&#45;headlabel"><a xlink:href="dir_000051_000001.xhtml" target="_top" xlink:title="3">
<text text-anchor="middle" x="102.371" y="-185.023" font-family="Helvetica,sans-Serif" font-size="10.00">3</text>
</a>
</g>
</g>
<!-- dir_5815af820a9cc9481f1d0990a0d60286 -->
<g id="node6" class="node"><title>dir_5815af820a9cc9481f1d0990a0d60286</title>
<g id="a_node6"><a xlink:href="dir_5815af820a9cc9481f1d0990a0d60286.xhtml" target="_top" xlink:title="support">
<polygon fill="none" stroke="black" points="156,-36 102,-36 102,-0 156,-0 156,-36"/>
<text text-anchor="middle" x="129" y="-15.5" font-family="Helvetica,sans-Serif" font-size="10.00">support</text>
</a>
</g>
</g>
<!-- dir_50b23570393db6a4ca8647d7d5ff6dbe&#45;&gt;dir_5815af820a9cc9481f1d0990a0d60286 -->
<g id="edge7" class="edge"><title>dir_50b23570393db6a4ca8647d7d5ff6dbe&#45;&gt;dir_5815af820a9cc9481f1d0990a0d60286</title>
<path fill="none" stroke="black" d="M136.785,-359.789C155.865,-334.179 188,-283.803 188,-235 188,-235 188,-235 188,-161 188,-117.827 164.455,-72.5334 147.113,-45.0268"/>
<polygon fill="black" stroke="black" points="149.896,-42.8868 141.512,-36.4092 144.027,-46.7013 149.896,-42.8868"/>
<g id="a_edge7&#45;headlabel"><a xlink:href="dir_000051_000153.xhtml" target="_top" xlink:title="1">
<text text-anchor="middle" x="154.236" y="-41.8536" font-family="Helvetica,sans-Serif" font-size="10.00">1</text>
</a>
</g>
</g>
<!-- dir_b496024afd63bafbf4e8da80d7d3a81a&#45;&gt;dir_1fb090f0c6070330bfaccc4236d3ca0d -->
<g id="edge4" class="edge"><title>dir_b496024afd63bafbf4e8da80d7d3a81a&#45;&gt;dir_1fb090f0c6070330bfaccc4236d3ca0d</title>
<path fill="none" stroke="black" d="M79.895,-108.104C80.7005,-115.791 80.9369,-125.054 80.604,-133.665"/>
<polygon fill="black" stroke="black" points="77.1085,-133.48 79.9157,-143.697 84.0921,-133.96 77.1085,-133.48"/>
<g id="a_edge4&#45;headlabel"><a xlink:href="dir_000053_000001.xhtml" target="_top" xlink:title="14">
<text text-anchor="middle" x="74.5219" y="-127.2" font-family="Helvetica,sans-Serif" font-size="10.00">14</text>
</a>
</g>
</g>
<!-- dir_b496024afd63bafbf4e8da80d7d3a81a&#45;&gt;dir_5815af820a9cc9481f1d0990a0d60286 -->
<g id="edge5" class="edge"><title>dir_b496024afd63bafbf4e8da80d7d3a81a&#45;&gt;dir_5815af820a9cc9481f1d0990a0d60286</title>
<path fill="none" stroke="black" d="M87.5955,-71.6966C94.1227,-63.3893 102.068,-53.2771 109.247,-44.1407"/>
<polygon fill="black" stroke="black" points="112.135,-46.1299 115.561,-36.1043 106.631,-41.8051 112.135,-46.1299"/>
<g id="a_edge5&#45;headlabel"><a xlink:href="dir_000053_000153.xhtml" target="_top" xlink:title="1">
<text text-anchor="middle" x="112.147" y="-48.2106" font-family="Helvetica,sans-Serif" font-size="10.00">1</text>
</a>
</g>
</g>
<!-- dir_1fb090f0c6070330bfaccc4236d3ca0d&#45;&gt;dir_b496024afd63bafbf4e8da80d7d3a81a -->
<g id="edge8" class="edge"><title>dir_1fb090f0c6070330bfaccc4236d3ca0d&#45;&gt;dir_b496024afd63bafbf4e8da80d7d3a81a</title>
<path fill="none" stroke="black" d="M68.0843,-143.697C67.2886,-135.983 67.0621,-126.712 67.4047,-118.112"/>
<polygon fill="black" stroke="black" points="70.8984,-118.324 68.105,-108.104 63.9154,-117.836 70.8984,-118.324"/>
<g id="a_edge8&#45;headlabel"><a xlink:href="dir_000001_000053.xhtml" target="_top" xlink:title="1">
<text text-anchor="middle" x="73.4799" y="-119.608" font-family="Helvetica,sans-Serif" font-size="10.00">1</text>
</a>
</g>
</g>
<!-- dir_1fb090f0c6070330bfaccc4236d3ca0d&#45;&gt;dir_5815af820a9cc9481f1d0990a0d60286 -->
<g id="edge9" class="edge"><title>dir_1fb090f0c6070330bfaccc4236d3ca0d&#45;&gt;dir_5815af820a9cc9481f1d0990a0d60286</title>
<path fill="none" stroke="black" d="M88.1647,-143.851C95.6902,-133.93 104.497,-120.89 110,-108 118.413,-88.2932 123.245,-64.4881 125.928,-46.4579"/>
<polygon fill="black" stroke="black" points="129.427,-46.7052 127.303,-36.3255 122.49,-45.7643 129.427,-46.7052"/>
<g id="a_edge9&#45;headlabel"><a xlink:href="dir_000001_000153.xhtml" target="_top" xlink:title="14">
<text text-anchor="middle" x="131.757" y="-48.1489" font-family="Helvetica,sans-Serif" font-size="10.00">14</text>
</a>
</g>
</g>
<!-- dir_b9621ae687ab229876c54f8c2df20e15&#45;&gt;dir_1fb090f0c6070330bfaccc4236d3ca0d -->
<g id="edge10" class="edge"><title>dir_b9621ae687ab229876c54f8c2df20e15&#45;&gt;dir_1fb090f0c6070330bfaccc4236d3ca0d</title>
<path fill="none" stroke="black" d="M58.9438,-215.697C61.172,-207.898 63.8547,-198.509 66.3345,-189.829"/>
<polygon fill="black" stroke="black" points="69.7311,-190.681 69.113,-180.104 63.0004,-188.758 69.7311,-190.681"/>
<g id="a_edge10&#45;headlabel"><a xlink:href="dir_000052_000001.xhtml" target="_top" xlink:title="3">
<text text-anchor="middle" x="71.4737" y="-192.417" font-family="Helvetica,sans-Serif" font-size="10.00">3</text>
</a>
</g>
</g>
</g>
</svg>
