<?xml version="1.0" encoding="UTF-8" standalone="no"?>
<!DOCTYPE svg PUBLIC "-//W3C//DTD SVG 1.1//EN"
 "http://www.w3.org/Graphics/SVG/1.1/DTD/svg11.dtd">
<!-- Generated by graphviz version 2.43.0 (0)
 -->
<!-- Title: ClGemm Pages: 1 -->
<svg width="80pt" height="140pt"
 viewBox="0.00 0.00 80.00 140.00" xmlns="http://www.w3.org/2000/svg" xmlns:xlink="http://www.w3.org/1999/xlink">
<g id="graph0" class="graph" transform="scale(1 1) rotate(0) translate(4 136)">
<title>ClGemm</title>
<polygon fill="white" stroke="transparent" points="-4,4 -4,-136 76,-136 76,4 -4,4"/>
<!-- Node1 -->
<g id="node1" class="node">
<title>Node1</title>
<g id="a_node1"><a xlink:title="Basic function to execute GEMM on OpenCL.">
<polygon fill="#bfbfbf" stroke="black" points="6.5,-0.5 6.5,-19.5 65.5,-19.5 65.5,-0.5 6.5,-0.5"/>
<text text-anchor="middle" x="36" y="-7.5" font-family="Helvetica,sans-Serif" font-size="10.00">ClGemm</text>
</a>
</g>
</g>
<!-- Node2 -->
<g id="node2" class="node">
<title>Node2</title>
<g id="a_node2"><a xlink:href="classarm__compute_1_1experimental_1_1_i_c_l_operator.xhtml" target="_top" xlink:title="Basic interface for functions which have a single async CL kernel.">
<polygon fill="white" stroke="black" points="0,-56.5 0,-75.5 72,-75.5 72,-56.5 0,-56.5"/>
<text text-anchor="middle" x="36" y="-63.5" font-family="Helvetica,sans-Serif" font-size="10.00">IClOperator</text>
</a>
</g>
</g>
<!-- Node2&#45;&gt;Node1 -->
<g id="edge1" class="edge">
<title>Node2&#45;&gt;Node1</title>
<path fill="none" stroke="midnightblue" d="M36,-45.8C36,-36.91 36,-26.78 36,-19.75"/>
<polygon fill="midnightblue" stroke="midnightblue" points="32.5,-46.08 36,-56.08 39.5,-46.08 32.5,-46.08"/>
</g>
<!-- Node3 -->
<g id="node3" class="node">
<title>Node3</title>
<g id="a_node3"><a xlink:href="classarm__compute_1_1experimental_1_1_i_operator.xhtml" target="_top" xlink:title="Base class for all async functions.">
<polygon fill="white" stroke="black" points="5,-112.5 5,-131.5 67,-131.5 67,-112.5 5,-112.5"/>
<text text-anchor="middle" x="36" y="-119.5" font-family="Helvetica,sans-Serif" font-size="10.00">IOperator</text>
</a>
</g>
</g>
<!-- Node3&#45;&gt;Node2 -->
<g id="edge2" class="edge">
<title>Node3&#45;&gt;Node2</title>
<path fill="none" stroke="midnightblue" d="M36,-101.8C36,-92.91 36,-82.78 36,-75.75"/>
<polygon fill="midnightblue" stroke="midnightblue" points="32.5,-102.08 36,-112.08 39.5,-102.08 32.5,-102.08"/>
</g>
</g>
</svg>
