<?xml version="1.0" encoding="UTF-8" standalone="no"?>
<!DOCTYPE svg PUBLIC "-//W3C//DTD SVG 1.1//EN"
 "http://www.w3.org/Graphics/SVG/1.1/DTD/svg11.dtd">
<!-- Generated by graphviz version 2.43.0 (0)
 -->
<!-- Title: CpuGemmLowpQuantizeDownInt32ToUint8ScaleByFixedPointKernel Pages: 1 -->
<svg width="369pt" height="299pt"
 viewBox="0.00 0.00 368.50 299.00" xmlns="http://www.w3.org/2000/svg" xmlns:xlink="http://www.w3.org/1999/xlink">
<g id="graph0" class="graph" transform="scale(1 1) rotate(0) translate(4 295)">
<title>CpuGemmLowpQuantizeDownInt32ToUint8ScaleByFixedPointKernel</title>
<polygon fill="white" stroke="transparent" points="-4,4 -4,-295 364.5,-295 364.5,4 -4,4"/>
<!-- Node1 -->
<g id="node1" class="node">
<title>Node1</title>
<g id="a_node1"><a xlink:title="Kernel used to quantize down the int32 accumulator values of GEMMLowp to QASYMM8.">
<polygon fill="#bfbfbf" stroke="black" points="23.5,-0.5 23.5,-30.5 213.5,-30.5 213.5,-0.5 23.5,-0.5"/>
<text text-anchor="start" x="31.5" y="-18.5" font-family="Helvetica,sans-Serif" font-size="10.00">CpuGemmLowpQuantizeDownInt32</text>
<text text-anchor="middle" x="118.5" y="-7.5" font-family="Helvetica,sans-Serif" font-size="10.00">ToUint8ScaleByFixedPointKernel</text>
</a>
</g>
</g>
<!-- Node2 -->
<g id="node2" class="node">
<title>Node2</title>
<g id="a_node2"><a xlink:href="classarm__compute_1_1cpu_1_1_i_cpu_kernel.xhtml" target="_top" xlink:title=" ">
<polygon fill="white" stroke="black" points="0,-68.5 0,-98.5 237,-98.5 237,-68.5 0,-68.5"/>
<text text-anchor="start" x="8" y="-86.5" font-family="Helvetica,sans-Serif" font-size="10.00">ICpuKernel&lt; CpuGemmLowpQuantize</text>
<text text-anchor="middle" x="118.5" y="-75.5" font-family="Helvetica,sans-Serif" font-size="10.00">DownInt32ToUint8ScaleByFixedPointKernel &gt;</text>
</a>
</g>
</g>
<!-- Node2&#45;&gt;Node1 -->
<g id="edge1" class="edge">
<title>Node2&#45;&gt;Node1</title>
<path fill="none" stroke="midnightblue" d="M118.5,-58.03C118.5,-48.86 118.5,-38.74 118.5,-30.79"/>
<polygon fill="midnightblue" stroke="midnightblue" points="115,-58.18 118.5,-68.18 122,-58.18 115,-58.18"/>
</g>
<!-- Node3 -->
<g id="node3" class="node">
<title>Node3</title>
<g id="a_node3"><a xlink:href="classarm__compute_1_1_i_c_p_p_kernel.xhtml" target="_top" xlink:title="Common interface for all kernels implemented in C++.">
<polygon fill="white" stroke="black" points="80,-214.5 80,-233.5 149,-233.5 149,-214.5 80,-214.5"/>
<text text-anchor="middle" x="114.5" y="-221.5" font-family="Helvetica,sans-Serif" font-size="10.00">ICPPKernel</text>
</a>
</g>
</g>
<!-- Node3&#45;&gt;Node2 -->
<g id="edge2" class="edge">
<title>Node3&#45;&gt;Node2</title>
<path fill="none" stroke="midnightblue" d="M115.04,-204.25C115.85,-176.19 117.36,-123.88 118.09,-98.73"/>
<polygon fill="midnightblue" stroke="midnightblue" points="111.54,-204.24 114.75,-214.34 118.54,-204.44 111.54,-204.24"/>
</g>
<!-- Node5 -->
<g id="node5" class="node">
<title>Node5</title>
<g id="a_node5"><a xlink:href="classarm__compute_1_1cpu_1_1_i_cpu_kernel.xhtml" target="_top" xlink:title=" ">
<polygon fill="white" stroke="black" points="130.5,-157.5 130.5,-176.5 260.5,-176.5 260.5,-157.5 130.5,-157.5"/>
<text text-anchor="middle" x="195.5" y="-164.5" font-family="Helvetica,sans-Serif" font-size="10.00">ICpuKernel&lt; Derived &gt;</text>
</a>
</g>
</g>
<!-- Node3&#45;&gt;Node5 -->
<g id="edge5" class="edge">
<title>Node3&#45;&gt;Node5</title>
<path fill="none" stroke="midnightblue" d="M135.8,-208.54C150.8,-198.35 170.36,-185.07 182.93,-176.53"/>
<polygon fill="midnightblue" stroke="midnightblue" points="133.46,-205.89 127.16,-214.41 137.4,-211.68 133.46,-205.89"/>
</g>
<!-- Node4 -->
<g id="node4" class="node">
<title>Node4</title>
<g id="a_node4"><a xlink:href="classarm__compute_1_1_i_kernel.xhtml" target="_top" xlink:title="Common information for all the kernels.">
<polygon fill="white" stroke="black" points="89.5,-271.5 89.5,-290.5 139.5,-290.5 139.5,-271.5 89.5,-271.5"/>
<text text-anchor="middle" x="114.5" y="-278.5" font-family="Helvetica,sans-Serif" font-size="10.00">IKernel</text>
</a>
</g>
</g>
<!-- Node4&#45;&gt;Node3 -->
<g id="edge3" class="edge">
<title>Node4&#45;&gt;Node3</title>
<path fill="none" stroke="midnightblue" d="M114.5,-261.12C114.5,-251.82 114.5,-241.06 114.5,-233.71"/>
<polygon fill="midnightblue" stroke="midnightblue" points="111,-261.41 114.5,-271.41 118,-261.41 111,-261.41"/>
</g>
<!-- Node5&#45;&gt;Node2 -->
<g id="edge4" class="edge">
<title>Node5&#45;&gt;Node2</title>
<path fill="none" stroke="orange" stroke-dasharray="5,2" d="M180.18,-149.78C166.05,-134.83 145.28,-112.84 131.82,-98.6"/>
<polygon fill="orange" stroke="orange" points="177.85,-152.41 187.26,-157.28 182.94,-147.61 177.85,-152.41"/>
<text text-anchor="start" x="167.5" y="-131" font-family="Helvetica,sans-Serif" font-size="10.00"> &lt; CpuGemmLowpQuantizeDown</text>
<text text-anchor="middle" x="264" y="-120" font-family="Helvetica,sans-Serif" font-size="10.00">Int32ToUint8ScaleByFixedPointKernel &gt;</text>
</g>
</g>
</svg>
