<?xml version="1.0" encoding="UTF-8" standalone="no"?>
<!DOCTYPE svg PUBLIC "-//W3C//DTD SVG 1.1//EN"
 "http://www.w3.org/Graphics/SVG/1.1/DTD/svg11.dtd">
<!-- Generated by graphviz version 2.43.0 (0)
 -->
<!-- Title: CpuMaxUnpoolingLayerKernel Pages: 1 -->
<svg width="311pt" height="277pt"
 viewBox="0.00 0.00 311.00 277.00" xmlns="http://www.w3.org/2000/svg" xmlns:xlink="http://www.w3.org/1999/xlink">
<g id="graph0" class="graph" transform="scale(1 1) rotate(0) translate(4 273)">
<title>CpuMaxUnpoolingLayerKernel</title>
<polygon fill="white" stroke="transparent" points="-4,4 -4,-273 307,-273 307,4 -4,4"/>
<!-- Node1 -->
<g id="node1" class="node">
<title>Node1</title>
<g id="a_node1"><a xlink:title="Interface for the pooling layer kernel.">
<polygon fill="#bfbfbf" stroke="black" points="3,-0.5 3,-19.5 167,-19.5 167,-0.5 3,-0.5"/>
<text text-anchor="middle" x="85" y="-7.5" font-family="Helvetica,sans-Serif" font-size="10.00">CpuMaxUnpoolingLayerKernel</text>
</a>
</g>
</g>
<!-- Node2 -->
<g id="node2" class="node">
<title>Node2</title>
<g id="a_node2"><a xlink:href="classarm__compute_1_1cpu_1_1_i_cpu_kernel.xhtml" target="_top" xlink:title=" ">
<polygon fill="white" stroke="black" points="0,-57.5 0,-87.5 170,-87.5 170,-57.5 0,-57.5"/>
<text text-anchor="start" x="8" y="-75.5" font-family="Helvetica,sans-Serif" font-size="10.00">ICpuKernel&lt; CpuMaxUnpooling</text>
<text text-anchor="middle" x="85" y="-64.5" font-family="Helvetica,sans-Serif" font-size="10.00">LayerKernel &gt;</text>
</a>
</g>
</g>
<!-- Node2&#45;&gt;Node1 -->
<g id="edge1" class="edge">
<title>Node2&#45;&gt;Node1</title>
<path fill="none" stroke="midnightblue" d="M85,-47.35C85,-37.51 85,-26.78 85,-19.54"/>
<polygon fill="midnightblue" stroke="midnightblue" points="81.5,-47.47 85,-57.47 88.5,-47.47 81.5,-47.47"/>
</g>
<!-- Node3 -->
<g id="node3" class="node">
<title>Node3</title>
<g id="a_node3"><a xlink:href="classarm__compute_1_1_i_c_p_p_kernel.xhtml" target="_top" xlink:title="Common interface for all kernels implemented in C++.">
<polygon fill="white" stroke="black" points="46.5,-192.5 46.5,-211.5 115.5,-211.5 115.5,-192.5 46.5,-192.5"/>
<text text-anchor="middle" x="81" y="-199.5" font-family="Helvetica,sans-Serif" font-size="10.00">ICPPKernel</text>
</a>
</g>
</g>
<!-- Node3&#45;&gt;Node2 -->
<g id="edge2" class="edge">
<title>Node3&#45;&gt;Node2</title>
<path fill="none" stroke="midnightblue" d="M81.6,-181.9C82.41,-156.05 83.84,-110.54 84.56,-87.59"/>
<polygon fill="midnightblue" stroke="midnightblue" points="78.09,-182.13 81.27,-192.24 85.09,-182.35 78.09,-182.13"/>
</g>
<!-- Node5 -->
<g id="node5" class="node">
<title>Node5</title>
<g id="a_node5"><a xlink:href="classarm__compute_1_1cpu_1_1_i_cpu_kernel.xhtml" target="_top" xlink:title=" ">
<polygon fill="white" stroke="black" points="97,-135.5 97,-154.5 227,-154.5 227,-135.5 97,-135.5"/>
<text text-anchor="middle" x="162" y="-142.5" font-family="Helvetica,sans-Serif" font-size="10.00">ICpuKernel&lt; Derived &gt;</text>
</a>
</g>
</g>
<!-- Node3&#45;&gt;Node5 -->
<g id="edge5" class="edge">
<title>Node3&#45;&gt;Node5</title>
<path fill="none" stroke="midnightblue" d="M102.3,-186.54C117.3,-176.35 136.86,-163.07 149.43,-154.53"/>
<polygon fill="midnightblue" stroke="midnightblue" points="99.96,-183.89 93.66,-192.41 103.9,-189.68 99.96,-183.89"/>
</g>
<!-- Node4 -->
<g id="node4" class="node">
<title>Node4</title>
<g id="a_node4"><a xlink:href="classarm__compute_1_1_i_kernel.xhtml" target="_top" xlink:title="Common information for all the kernels.">
<polygon fill="white" stroke="black" points="56,-249.5 56,-268.5 106,-268.5 106,-249.5 56,-249.5"/>
<text text-anchor="middle" x="81" y="-256.5" font-family="Helvetica,sans-Serif" font-size="10.00">IKernel</text>
</a>
</g>
</g>
<!-- Node4&#45;&gt;Node3 -->
<g id="edge3" class="edge">
<title>Node4&#45;&gt;Node3</title>
<path fill="none" stroke="midnightblue" d="M81,-239.12C81,-229.82 81,-219.06 81,-211.71"/>
<polygon fill="midnightblue" stroke="midnightblue" points="77.5,-239.41 81,-249.41 84.5,-239.41 77.5,-239.41"/>
</g>
<!-- Node5&#45;&gt;Node2 -->
<g id="edge4" class="edge">
<title>Node5&#45;&gt;Node2</title>
<path fill="none" stroke="orange" stroke-dasharray="5,2" d="M145.01,-128.44C131.67,-116.23 113.27,-99.39 100.37,-87.58"/>
<polygon fill="orange" stroke="orange" points="142.82,-131.18 152.56,-135.36 147.55,-126.02 142.82,-131.18"/>
<text text-anchor="middle" x="216.5" y="-109" font-family="Helvetica,sans-Serif" font-size="10.00"> &lt; CpuMaxUnpoolingLayerKernel &gt;</text>
</g>
</g>
</svg>
