<?xml version="1.0" encoding="UTF-8" standalone="no"?>
<!DOCTYPE svg PUBLIC "-//W3C//DTD SVG 1.1//EN"
 "http://www.w3.org/Graphics/SVG/1.1/DTD/svg11.dtd">
<!-- Generated by graphviz version 2.43.0 (0)
 -->
<!-- Title: CpuElementwiseDivision Pages: 1 -->
<svg width="146pt" height="196pt"
 viewBox="0.00 0.00 146.00 196.00" xmlns="http://www.w3.org/2000/svg" xmlns:xlink="http://www.w3.org/1999/xlink">
<g id="graph0" class="graph" transform="scale(1 1) rotate(0) translate(4 192)">
<title>CpuElementwiseDivision</title>
<polygon fill="white" stroke="transparent" points="-4,4 -4,-192 142,-192 142,4 -4,4"/>
<!-- Node1 -->
<g id="node1" class="node">
<title>Node1</title>
<g id="a_node1"><a xlink:title="Basic function to run cpu::kernels::CpuArithmeticKernel for division.">
<polygon fill="#bfbfbf" stroke="black" points="0,-0.5 0,-19.5 138,-19.5 138,-0.5 0,-0.5"/>
<text text-anchor="middle" x="69" y="-7.5" font-family="Helvetica,sans-Serif" font-size="10.00">CpuElementwiseDivision</text>
</a>
</g>
</g>
<!-- Node2 -->
<g id="node2" class="node">
<title>Node2</title>
<g id="a_node2"><a xlink:href="classarm__compute_1_1cpu_1_1_cpu_elementwise_base.xhtml" target="_top" xlink:title=" ">
<polygon fill="white" stroke="black" points="8,-56.5 8,-75.5 130,-75.5 130,-56.5 8,-56.5"/>
<text text-anchor="middle" x="69" y="-63.5" font-family="Helvetica,sans-Serif" font-size="10.00">CpuElementwiseBase</text>
</a>
</g>
</g>
<!-- Node2&#45;&gt;Node1 -->
<g id="edge1" class="edge">
<title>Node2&#45;&gt;Node1</title>
<path fill="none" stroke="midnightblue" d="M69,-45.8C69,-36.91 69,-26.78 69,-19.75"/>
<polygon fill="midnightblue" stroke="midnightblue" points="65.5,-46.08 69,-56.08 72.5,-46.08 65.5,-46.08"/>
</g>
<!-- Node3 -->
<g id="node3" class="node">
<title>Node3</title>
<g id="a_node3"><a xlink:href="classarm__compute_1_1experimental_1_1_i_n_e_operator.xhtml" target="_top" xlink:title="Basic interface for functions which have a single async CPU kernel.">
<polygon fill="white" stroke="black" points="28.5,-112.5 28.5,-131.5 109.5,-131.5 109.5,-112.5 28.5,-112.5"/>
<text text-anchor="middle" x="69" y="-119.5" font-family="Helvetica,sans-Serif" font-size="10.00">ICpuOperator</text>
</a>
</g>
</g>
<!-- Node3&#45;&gt;Node2 -->
<g id="edge2" class="edge">
<title>Node3&#45;&gt;Node2</title>
<path fill="none" stroke="midnightblue" d="M69,-101.8C69,-92.91 69,-82.78 69,-75.75"/>
<polygon fill="midnightblue" stroke="midnightblue" points="65.5,-102.08 69,-112.08 72.5,-102.08 65.5,-102.08"/>
</g>
<!-- Node4 -->
<g id="node4" class="node">
<title>Node4</title>
<g id="a_node4"><a xlink:href="classarm__compute_1_1experimental_1_1_i_operator.xhtml" target="_top" xlink:title="Base class for all async functions.">
<polygon fill="white" stroke="black" points="38,-168.5 38,-187.5 100,-187.5 100,-168.5 38,-168.5"/>
<text text-anchor="middle" x="69" y="-175.5" font-family="Helvetica,sans-Serif" font-size="10.00">IOperator</text>
</a>
</g>
</g>
<!-- Node4&#45;&gt;Node3 -->
<g id="edge3" class="edge">
<title>Node4&#45;&gt;Node3</title>
<path fill="none" stroke="midnightblue" d="M69,-157.8C69,-148.91 69,-138.78 69,-131.75"/>
<polygon fill="midnightblue" stroke="midnightblue" points="65.5,-158.08 69,-168.08 72.5,-158.08 65.5,-158.08"/>
</g>
</g>
</svg>
