<?xml version="1.0" encoding="UTF-8" standalone="no"?>
<!DOCTYPE svg PUBLIC "-//W3C//DTD SVG 1.1//EN"
 "http://www.w3.org/Graphics/SVG/1.1/DTD/svg11.dtd">
<!-- Generated by graphviz version 2.43.0 (0)
 -->
<!-- Title: SubTensorInfo Pages: 1 -->
<svg width="159pt" height="209pt"
 viewBox="0.00 0.00 159.00 209.00" xmlns="http://www.w3.org/2000/svg" xmlns:xlink="http://www.w3.org/1999/xlink">
<g id="graph0" class="graph" transform="scale(1 1) rotate(0) translate(4 205)">
<title>SubTensorInfo</title>
<polygon fill="white" stroke="transparent" points="-4,4 -4,-205 155,-205 155,4 -4,4"/>
<!-- Node1 -->
<g id="node1" class="node">
<title>Node1</title>
<g id="a_node1"><a xlink:title="Store the sub tensor&#39;s metadata.">
<polygon fill="#bfbfbf" stroke="black" points="29.5,-0.5 29.5,-19.5 114.5,-19.5 114.5,-0.5 29.5,-0.5"/>
<text text-anchor="middle" x="72" y="-7.5" font-family="Helvetica,sans-Serif" font-size="10.00">SubTensorInfo</text>
</a>
</g>
</g>
<!-- Node2 -->
<g id="node2" class="node">
<title>Node2</title>
<g id="a_node2"><a xlink:href="classarm__compute_1_1_i_tensor_info.xhtml" target="_top" xlink:title="Store the tensor&#39;s metadata.">
<polygon fill="white" stroke="black" points="37,-57.5 37,-76.5 107,-76.5 107,-57.5 37,-57.5"/>
<text text-anchor="middle" x="72" y="-64.5" font-family="Helvetica,sans-Serif" font-size="10.00">ITensorInfo</text>
</a>
</g>
</g>
<!-- Node2&#45;&gt;Node1 -->
<g id="edge1" class="edge">
<title>Node2&#45;&gt;Node1</title>
<path fill="none" stroke="midnightblue" d="M72,-47.12C72,-37.82 72,-27.06 72,-19.71"/>
<polygon fill="midnightblue" stroke="midnightblue" points="68.5,-47.41 72,-57.41 75.5,-47.41 68.5,-47.41"/>
</g>
<!-- Node3 -->
<g id="node3" class="node">
<title>Node3</title>
<g id="a_node3"><a xlink:href="classarm__compute_1_1misc_1_1_i_cloneable.xhtml" target="_top" xlink:title=" ">
<polygon fill="white" stroke="black" points="0,-114.5 0,-133.5 144,-133.5 144,-114.5 0,-114.5"/>
<text text-anchor="middle" x="72" y="-121.5" font-family="Helvetica,sans-Serif" font-size="10.00">ICloneable&lt; ITensorInfo &gt;</text>
</a>
</g>
</g>
<!-- Node3&#45;&gt;Node2 -->
<g id="edge2" class="edge">
<title>Node3&#45;&gt;Node2</title>
<path fill="none" stroke="midnightblue" d="M72,-104.12C72,-94.82 72,-84.06 72,-76.71"/>
<polygon fill="midnightblue" stroke="midnightblue" points="68.5,-104.41 72,-114.41 75.5,-104.41 68.5,-104.41"/>
</g>
<!-- Node4 -->
<g id="node4" class="node">
<title>Node4</title>
<g id="a_node4"><a xlink:href="classarm__compute_1_1misc_1_1_i_cloneable.xhtml" target="_top" xlink:title="Clonable Interface.">
<polygon fill="white" stroke="black" points="23.5,-181.5 23.5,-200.5 120.5,-200.5 120.5,-181.5 23.5,-181.5"/>
<text text-anchor="middle" x="72" y="-188.5" font-family="Helvetica,sans-Serif" font-size="10.00">ICloneable&lt; T &gt;</text>
</a>
</g>
</g>
<!-- Node4&#45;&gt;Node3 -->
<g id="edge3" class="edge">
<title>Node4&#45;&gt;Node3</title>
<path fill="none" stroke="orange" stroke-dasharray="5,2" d="M72,-171.04C72,-158.67 72,-143.12 72,-133.63"/>
<polygon fill="orange" stroke="orange" points="68.5,-171.23 72,-181.23 75.5,-171.23 68.5,-171.23"/>
<text text-anchor="middle" x="111.5" y="-155" font-family="Helvetica,sans-Serif" font-size="10.00"> &lt; ITensorInfo &gt;</text>
</g>
</g>
</svg>
