<?xml version="1.0" encoding="UTF-8" standalone="no"?>
<!DOCTYPE svg PUBLIC "-//W3C//DTD SVG 1.1//EN"
 "http://www.w3.org/Graphics/SVG/1.1/DTD/svg11.dtd">
<!-- Generated by graphviz version 2.43.0 (0)
 -->
<!-- Title: DepthwisePlanar&lt; TInput, TWeight, TOutput, TAccum, OutputStage &gt; Pages: 1 -->
<svg width="166pt" height="117pt"
 viewBox="0.00 0.00 166.00 117.00" xmlns="http://www.w3.org/2000/svg" xmlns:xlink="http://www.w3.org/1999/xlink">
<g id="graph0" class="graph" transform="scale(1 1) rotate(0) translate(4 113)">
<title>DepthwisePlanar&lt; TInput, TWeight, TOutput, TAccum, OutputStage &gt;</title>
<polygon fill="white" stroke="transparent" points="-4,4 -4,-113 162,-113 162,4 -4,4"/>
<!-- Node1 -->
<g id="node1" class="node">
<title>Node1</title>
<g id="a_node1"><a xlink:title=" ">
<polygon fill="#bfbfbf" stroke="black" points="3,-0.5 3,-41.5 155,-41.5 155,-0.5 3,-0.5"/>
<text text-anchor="start" x="11" y="-29.5" font-family="Helvetica,sans-Serif" font-size="10.00">DepthwisePlanar&lt; TInput,</text>
<text text-anchor="start" x="11" y="-18.5" font-family="Helvetica,sans-Serif" font-size="10.00"> TWeight, TOutput, TAccum,</text>
<text text-anchor="middle" x="79" y="-7.5" font-family="Helvetica,sans-Serif" font-size="10.00"> OutputStage &gt;</text>
</a>
</g>
</g>
<!-- Node2 -->
<g id="node2" class="node">
<title>Node2</title>
<g id="a_node2"><a xlink:title=" ">
<polygon fill="white" stroke="#bfbfbf" points="0,-78.5 0,-108.5 158,-108.5 158,-78.5 0,-78.5"/>
<text text-anchor="start" x="8" y="-96.5" font-family="Helvetica,sans-Serif" font-size="10.00">DepthwiseCommon&lt; TInput,</text>
<text text-anchor="middle" x="79" y="-85.5" font-family="Helvetica,sans-Serif" font-size="10.00"> TInput, TInput &gt;</text>
</a>
</g>
</g>
<!-- Node2&#45;&gt;Node1 -->
<g id="edge1" class="edge">
<title>Node2&#45;&gt;Node1</title>
<path fill="none" stroke="midnightblue" d="M79,-67.98C79,-59.35 79,-49.76 79,-41.59"/>
<polygon fill="midnightblue" stroke="midnightblue" points="75.5,-68.23 79,-78.23 82.5,-68.23 75.5,-68.23"/>
</g>
</g>
</svg>
