<?xml version="1.0" encoding="UTF-8" standalone="no"?>
<!DOCTYPE svg PUBLIC "-//W3C//DTD SVG 1.1//EN"
 "http://www.w3.org/Graphics/SVG/1.1/DTD/svg11.dtd">
<!-- Generated by graphviz version 2.43.0 (0)
 -->
<!-- Title: GemmHybrid&lt; strategy, To, Tr &gt; Pages: 1 -->
<svg width="149pt" height="151pt"
 viewBox="0.00 0.00 149.00 151.00" xmlns="http://www.w3.org/2000/svg" xmlns:xlink="http://www.w3.org/1999/xlink">
<g id="graph0" class="graph" transform="scale(1 1) rotate(0) translate(4 147)">
<title>GemmHybrid&lt; strategy, To, Tr &gt;</title>
<polygon fill="white" stroke="transparent" points="-4,4 -4,-147 145,-147 145,4 -4,4"/>
<!-- Node1 -->
<g id="node1" class="node">
<title>Node1</title>
<g id="a_node1"><a xlink:title=" ">
<polygon fill="#bfbfbf" stroke="black" points="2,-0.5 2,-30.5 139,-30.5 139,-0.5 2,-0.5"/>
<text text-anchor="start" x="10" y="-18.5" font-family="Helvetica,sans-Serif" font-size="10.00">GemmHybrid&lt; strategy,</text>
<text text-anchor="middle" x="70.5" y="-7.5" font-family="Helvetica,sans-Serif" font-size="10.00"> To, Tr &gt;</text>
</a>
</g>
</g>
<!-- Node2 -->
<g id="node2" class="node">
<title>Node2</title>
<g id="a_node2"><a xlink:href="classarm__gemm_1_1_gemm_common.xhtml" target="_top" xlink:title=" ">
<polygon fill="white" stroke="black" points="0,-67.5 0,-86.5 141,-86.5 141,-67.5 0,-67.5"/>
<text text-anchor="middle" x="70.5" y="-74.5" font-family="Helvetica,sans-Serif" font-size="10.00">GemmCommon&lt; To, Tr &gt;</text>
</a>
</g>
</g>
<!-- Node2&#45;&gt;Node1 -->
<g id="edge1" class="edge">
<title>Node2&#45;&gt;Node1</title>
<path fill="none" stroke="midnightblue" d="M70.5,-57.23C70.5,-48.59 70.5,-38.5 70.5,-30.52"/>
<polygon fill="midnightblue" stroke="midnightblue" points="67,-57.48 70.5,-67.48 74,-57.48 67,-57.48"/>
</g>
<!-- Node3 -->
<g id="node3" class="node">
<title>Node3</title>
<g id="a_node3"><a xlink:href="classarm__gemm_1_1_i_gemm_common.xhtml" target="_top" xlink:title=" ">
<polygon fill="white" stroke="black" points="22,-123.5 22,-142.5 119,-142.5 119,-123.5 22,-123.5"/>
<text text-anchor="middle" x="70.5" y="-130.5" font-family="Helvetica,sans-Serif" font-size="10.00">IGemmCommon</text>
</a>
</g>
</g>
<!-- Node3&#45;&gt;Node2 -->
<g id="edge2" class="edge">
<title>Node3&#45;&gt;Node2</title>
<path fill="none" stroke="midnightblue" d="M70.5,-112.8C70.5,-103.91 70.5,-93.78 70.5,-86.75"/>
<polygon fill="midnightblue" stroke="midnightblue" points="67,-113.08 70.5,-123.08 74,-113.08 67,-113.08"/>
</g>
</g>
</svg>
