<?xml version="1.0" encoding="UTF-8" standalone="no"?>
<!DOCTYPE svg PUBLIC "-//W3C//DTD SVG 1.1//EN"
 "http://www.w3.org/Graphics/SVG/1.1/DTD/svg11.dtd">
<!-- Generated by graphviz version 2.43.0 (0)
 -->
<!-- Title: CpuReshapeKernel Pages: 1 -->
<svg width="261pt" height="266pt"
 viewBox="0.00 0.00 260.50 266.00" xmlns="http://www.w3.org/2000/svg" xmlns:xlink="http://www.w3.org/1999/xlink">
<g id="graph0" class="graph" transform="scale(1 1) rotate(0) translate(4 262)">
<title>CpuReshapeKernel</title>
<polygon fill="white" stroke="transparent" points="-4,4 -4,-262 256.5,-262 256.5,4 -4,4"/>
<!-- Node1 -->
<g id="node1" class="node">
<title>Node1</title>
<g id="a_node1"><a xlink:title="Interface for the kernel to perform tensor reshaping.">
<polygon fill="#bfbfbf" stroke="black" points="37.5,-0.5 37.5,-19.5 145.5,-19.5 145.5,-0.5 37.5,-0.5"/>
<text text-anchor="middle" x="91.5" y="-7.5" font-family="Helvetica,sans-Serif" font-size="10.00">CpuReshapeKernel</text>
</a>
</g>
</g>
<!-- Node2 -->
<g id="node2" class="node">
<title>Node2</title>
<g id="a_node2"><a xlink:href="classarm__compute_1_1cpu_1_1_i_cpu_kernel.xhtml" target="_top" xlink:title=" ">
<polygon fill="white" stroke="black" points="0,-57.5 0,-76.5 183,-76.5 183,-57.5 0,-57.5"/>
<text text-anchor="middle" x="91.5" y="-64.5" font-family="Helvetica,sans-Serif" font-size="10.00">ICpuKernel&lt; CpuReshapeKernel &gt;</text>
</a>
</g>
</g>
<!-- Node2&#45;&gt;Node1 -->
<g id="edge1" class="edge">
<title>Node2&#45;&gt;Node1</title>
<path fill="none" stroke="midnightblue" d="M91.5,-47.12C91.5,-37.82 91.5,-27.06 91.5,-19.71"/>
<polygon fill="midnightblue" stroke="midnightblue" points="88,-47.41 91.5,-57.41 95,-47.41 88,-47.41"/>
</g>
<!-- Node3 -->
<g id="node3" class="node">
<title>Node3</title>
<g id="a_node3"><a xlink:href="classarm__compute_1_1_i_c_p_p_kernel.xhtml" target="_top" xlink:title="Common interface for all kernels implemented in C++.">
<polygon fill="white" stroke="black" points="53,-181.5 53,-200.5 122,-200.5 122,-181.5 53,-181.5"/>
<text text-anchor="middle" x="87.5" y="-188.5" font-family="Helvetica,sans-Serif" font-size="10.00">ICPPKernel</text>
</a>
</g>
</g>
<!-- Node3&#45;&gt;Node2 -->
<g id="edge2" class="edge">
<title>Node3&#45;&gt;Node2</title>
<path fill="none" stroke="midnightblue" d="M88.12,-171.19C89,-144.4 90.57,-96.31 91.21,-76.69"/>
<polygon fill="midnightblue" stroke="midnightblue" points="84.62,-171.12 87.79,-181.23 91.61,-171.35 84.62,-171.12"/>
</g>
<!-- Node5 -->
<g id="node5" class="node">
<title>Node5</title>
<g id="a_node5"><a xlink:href="classarm__compute_1_1cpu_1_1_i_cpu_kernel.xhtml" target="_top" xlink:title=" ">
<polygon fill="white" stroke="black" points="103.5,-124.5 103.5,-143.5 233.5,-143.5 233.5,-124.5 103.5,-124.5"/>
<text text-anchor="middle" x="168.5" y="-131.5" font-family="Helvetica,sans-Serif" font-size="10.00">ICpuKernel&lt; Derived &gt;</text>
</a>
</g>
</g>
<!-- Node3&#45;&gt;Node5 -->
<g id="edge5" class="edge">
<title>Node3&#45;&gt;Node5</title>
<path fill="none" stroke="midnightblue" d="M108.8,-175.54C123.8,-165.35 143.36,-152.07 155.93,-143.53"/>
<polygon fill="midnightblue" stroke="midnightblue" points="106.46,-172.89 100.16,-181.41 110.4,-178.68 106.46,-172.89"/>
</g>
<!-- Node4 -->
<g id="node4" class="node">
<title>Node4</title>
<g id="a_node4"><a xlink:href="classarm__compute_1_1_i_kernel.xhtml" target="_top" xlink:title="Common information for all the kernels.">
<polygon fill="white" stroke="black" points="62.5,-238.5 62.5,-257.5 112.5,-257.5 112.5,-238.5 62.5,-238.5"/>
<text text-anchor="middle" x="87.5" y="-245.5" font-family="Helvetica,sans-Serif" font-size="10.00">IKernel</text>
</a>
</g>
</g>
<!-- Node4&#45;&gt;Node3 -->
<g id="edge3" class="edge">
<title>Node4&#45;&gt;Node3</title>
<path fill="none" stroke="midnightblue" d="M87.5,-228.12C87.5,-218.82 87.5,-208.06 87.5,-200.71"/>
<polygon fill="midnightblue" stroke="midnightblue" points="84,-228.41 87.5,-238.41 91,-228.41 84,-228.41"/>
</g>
<!-- Node5&#45;&gt;Node2 -->
<g id="edge4" class="edge">
<title>Node5&#45;&gt;Node2</title>
<path fill="none" stroke="orange" stroke-dasharray="5,2" d="M150.39,-117.71C135.22,-104.91 114.11,-87.09 101.72,-76.63"/>
<polygon fill="orange" stroke="orange" points="148.22,-120.46 158.12,-124.23 152.73,-115.11 148.22,-120.46"/>
<text text-anchor="middle" x="193.5" y="-98" font-family="Helvetica,sans-Serif" font-size="10.00"> &lt; CpuReshapeKernel &gt;</text>
</g>
</g>
</svg>
