<?xml version="1.0" encoding="UTF-8" standalone="no"?>
<!DOCTYPE svg PUBLIC "-//W3C//DTD SVG 1.1//EN"
 "http://www.w3.org/Graphics/SVG/1.1/DTD/svg11.dtd">
<!-- Generated by graphviz version 2.43.0 (0)
 -->
<!-- Title: CpuLogits1DMaxKernel Pages: 1 -->
<svg width="274pt" height="277pt"
 viewBox="0.00 0.00 273.50 277.00" xmlns="http://www.w3.org/2000/svg" xmlns:xlink="http://www.w3.org/1999/xlink">
<g id="graph0" class="graph" transform="scale(1 1) rotate(0) translate(4 273)">
<title>CpuLogits1DMaxKernel</title>
<polygon fill="white" stroke="transparent" points="-4,4 -4,-273 269.5,-273 269.5,4 -4,4"/>
<!-- Node1 -->
<g id="node1" class="node">
<title>Node1</title>
<g id="a_node1"><a xlink:title="Interface for the identifying the max value of 1D Logits.">
<polygon fill="#bfbfbf" stroke="black" points="16.5,-0.5 16.5,-19.5 146.5,-19.5 146.5,-0.5 16.5,-0.5"/>
<text text-anchor="middle" x="81.5" y="-7.5" font-family="Helvetica,sans-Serif" font-size="10.00">CpuLogits1DMaxKernel</text>
</a>
</g>
</g>
<!-- Node2 -->
<g id="node2" class="node">
<title>Node2</title>
<g id="a_node2"><a xlink:href="classarm__compute_1_1cpu_1_1_i_cpu_kernel.xhtml" target="_top" xlink:title=" ">
<polygon fill="white" stroke="black" points="0,-57.5 0,-87.5 163,-87.5 163,-57.5 0,-57.5"/>
<text text-anchor="start" x="8" y="-75.5" font-family="Helvetica,sans-Serif" font-size="10.00">ICpuKernel&lt; CpuLogits1DMax</text>
<text text-anchor="middle" x="81.5" y="-64.5" font-family="Helvetica,sans-Serif" font-size="10.00">Kernel &gt;</text>
</a>
</g>
</g>
<!-- Node2&#45;&gt;Node1 -->
<g id="edge1" class="edge">
<title>Node2&#45;&gt;Node1</title>
<path fill="none" stroke="midnightblue" d="M81.5,-47.35C81.5,-37.51 81.5,-26.78 81.5,-19.54"/>
<polygon fill="midnightblue" stroke="midnightblue" points="78,-47.47 81.5,-57.47 85,-47.47 78,-47.47"/>
</g>
<!-- Node3 -->
<g id="node3" class="node">
<title>Node3</title>
<g id="a_node3"><a xlink:href="classarm__compute_1_1_i_c_p_p_kernel.xhtml" target="_top" xlink:title="Common interface for all kernels implemented in C++.">
<polygon fill="white" stroke="black" points="43,-192.5 43,-211.5 112,-211.5 112,-192.5 43,-192.5"/>
<text text-anchor="middle" x="77.5" y="-199.5" font-family="Helvetica,sans-Serif" font-size="10.00">ICPPKernel</text>
</a>
</g>
</g>
<!-- Node3&#45;&gt;Node2 -->
<g id="edge2" class="edge">
<title>Node3&#45;&gt;Node2</title>
<path fill="none" stroke="midnightblue" d="M78.1,-181.9C78.91,-156.05 80.34,-110.54 81.06,-87.59"/>
<polygon fill="midnightblue" stroke="midnightblue" points="74.59,-182.13 77.77,-192.24 81.59,-182.35 74.59,-182.13"/>
</g>
<!-- Node5 -->
<g id="node5" class="node">
<title>Node5</title>
<g id="a_node5"><a xlink:href="classarm__compute_1_1cpu_1_1_i_cpu_kernel.xhtml" target="_top" xlink:title=" ">
<polygon fill="white" stroke="black" points="93.5,-135.5 93.5,-154.5 223.5,-154.5 223.5,-135.5 93.5,-135.5"/>
<text text-anchor="middle" x="158.5" y="-142.5" font-family="Helvetica,sans-Serif" font-size="10.00">ICpuKernel&lt; Derived &gt;</text>
</a>
</g>
</g>
<!-- Node3&#45;&gt;Node5 -->
<g id="edge5" class="edge">
<title>Node3&#45;&gt;Node5</title>
<path fill="none" stroke="midnightblue" d="M98.8,-186.54C113.8,-176.35 133.36,-163.07 145.93,-154.53"/>
<polygon fill="midnightblue" stroke="midnightblue" points="96.46,-183.89 90.16,-192.41 100.4,-189.68 96.46,-183.89"/>
</g>
<!-- Node4 -->
<g id="node4" class="node">
<title>Node4</title>
<g id="a_node4"><a xlink:href="classarm__compute_1_1_i_kernel.xhtml" target="_top" xlink:title="Common information for all the kernels.">
<polygon fill="white" stroke="black" points="52.5,-249.5 52.5,-268.5 102.5,-268.5 102.5,-249.5 52.5,-249.5"/>
<text text-anchor="middle" x="77.5" y="-256.5" font-family="Helvetica,sans-Serif" font-size="10.00">IKernel</text>
</a>
</g>
</g>
<!-- Node4&#45;&gt;Node3 -->
<g id="edge3" class="edge">
<title>Node4&#45;&gt;Node3</title>
<path fill="none" stroke="midnightblue" d="M77.5,-239.12C77.5,-229.82 77.5,-219.06 77.5,-211.71"/>
<polygon fill="midnightblue" stroke="midnightblue" points="74,-239.41 77.5,-249.41 81,-239.41 74,-239.41"/>
</g>
<!-- Node5&#45;&gt;Node2 -->
<g id="edge4" class="edge">
<title>Node5&#45;&gt;Node2</title>
<path fill="none" stroke="orange" stroke-dasharray="5,2" d="M141.51,-128.44C128.17,-116.23 109.77,-99.39 96.87,-87.58"/>
<polygon fill="orange" stroke="orange" points="139.32,-131.18 149.06,-135.36 144.05,-126.02 139.32,-131.18"/>
<text text-anchor="middle" x="196" y="-109" font-family="Helvetica,sans-Serif" font-size="10.00"> &lt; CpuLogits1DMaxKernel &gt;</text>
</g>
</g>
</svg>
