<?xml version="1.0" encoding="UTF-8" standalone="no"?>
<!DOCTYPE svg PUBLIC "-//W3C//DTD SVG 1.1//EN"
 "http://www.w3.org/Graphics/SVG/1.1/DTD/svg11.dtd">
<!-- Generated by graphviz version 2.43.0 (0)
 -->
<!-- Title: CpuWinogradConv2dTransformOutputKernel Pages: 1 -->
<svg width="314pt" height="299pt"
 viewBox="0.00 0.00 314.00 299.00" xmlns="http://www.w3.org/2000/svg" xmlns:xlink="http://www.w3.org/1999/xlink">
<g id="graph0" class="graph" transform="scale(1 1) rotate(0) translate(4 295)">
<title>CpuWinogradConv2dTransformOutputKernel</title>
<polygon fill="white" stroke="transparent" points="-4,4 -4,-295 310,-295 310,4 -4,4"/>
<!-- Node1 -->
<g id="node1" class="node">
<title>Node1</title>
<g id="a_node1"><a xlink:title=" ">
<polygon fill="#bfbfbf" stroke="black" points="7.5,-0.5 7.5,-30.5 174.5,-30.5 174.5,-0.5 7.5,-0.5"/>
<text text-anchor="start" x="15.5" y="-18.5" font-family="Helvetica,sans-Serif" font-size="10.00">CpuWinogradConv2dTransform</text>
<text text-anchor="middle" x="91" y="-7.5" font-family="Helvetica,sans-Serif" font-size="10.00">OutputKernel</text>
</a>
</g>
</g>
<!-- Node2 -->
<g id="node2" class="node">
<title>Node2</title>
<g id="a_node2"><a xlink:href="classarm__compute_1_1cpu_1_1_i_cpu_kernel.xhtml" target="_top" xlink:title=" ">
<polygon fill="white" stroke="black" points="0,-68.5 0,-98.5 182,-98.5 182,-68.5 0,-68.5"/>
<text text-anchor="start" x="8" y="-86.5" font-family="Helvetica,sans-Serif" font-size="10.00">ICpuKernel&lt; CpuWinogradConv2d</text>
<text text-anchor="middle" x="91" y="-75.5" font-family="Helvetica,sans-Serif" font-size="10.00">TransformOutputKernel &gt;</text>
</a>
</g>
</g>
<!-- Node2&#45;&gt;Node1 -->
<g id="edge1" class="edge">
<title>Node2&#45;&gt;Node1</title>
<path fill="none" stroke="midnightblue" d="M91,-58.03C91,-48.86 91,-38.74 91,-30.79"/>
<polygon fill="midnightblue" stroke="midnightblue" points="87.5,-58.18 91,-68.18 94.5,-58.18 87.5,-58.18"/>
</g>
<!-- Node3 -->
<g id="node3" class="node">
<title>Node3</title>
<g id="a_node3"><a xlink:href="classarm__compute_1_1_i_c_p_p_kernel.xhtml" target="_top" xlink:title="Common interface for all kernels implemented in C++.">
<polygon fill="white" stroke="black" points="52.5,-214.5 52.5,-233.5 121.5,-233.5 121.5,-214.5 52.5,-214.5"/>
<text text-anchor="middle" x="87" y="-221.5" font-family="Helvetica,sans-Serif" font-size="10.00">ICPPKernel</text>
</a>
</g>
</g>
<!-- Node3&#45;&gt;Node2 -->
<g id="edge2" class="edge">
<title>Node3&#45;&gt;Node2</title>
<path fill="none" stroke="midnightblue" d="M87.54,-204.25C88.35,-176.19 89.86,-123.88 90.59,-98.73"/>
<polygon fill="midnightblue" stroke="midnightblue" points="84.04,-204.24 87.25,-214.34 91.04,-204.44 84.04,-204.24"/>
</g>
<!-- Node5 -->
<g id="node5" class="node">
<title>Node5</title>
<g id="a_node5"><a xlink:href="classarm__compute_1_1cpu_1_1_i_cpu_kernel.xhtml" target="_top" xlink:title=" ">
<polygon fill="white" stroke="black" points="103,-157.5 103,-176.5 233,-176.5 233,-157.5 103,-157.5"/>
<text text-anchor="middle" x="168" y="-164.5" font-family="Helvetica,sans-Serif" font-size="10.00">ICpuKernel&lt; Derived &gt;</text>
</a>
</g>
</g>
<!-- Node3&#45;&gt;Node5 -->
<g id="edge5" class="edge">
<title>Node3&#45;&gt;Node5</title>
<path fill="none" stroke="midnightblue" d="M108.3,-208.54C123.3,-198.35 142.86,-185.07 155.43,-176.53"/>
<polygon fill="midnightblue" stroke="midnightblue" points="105.96,-205.89 99.66,-214.41 109.9,-211.68 105.96,-205.89"/>
</g>
<!-- Node4 -->
<g id="node4" class="node">
<title>Node4</title>
<g id="a_node4"><a xlink:href="classarm__compute_1_1_i_kernel.xhtml" target="_top" xlink:title="Common information for all the kernels.">
<polygon fill="white" stroke="black" points="62,-271.5 62,-290.5 112,-290.5 112,-271.5 62,-271.5"/>
<text text-anchor="middle" x="87" y="-278.5" font-family="Helvetica,sans-Serif" font-size="10.00">IKernel</text>
</a>
</g>
</g>
<!-- Node4&#45;&gt;Node3 -->
<g id="edge3" class="edge">
<title>Node4&#45;&gt;Node3</title>
<path fill="none" stroke="midnightblue" d="M87,-261.12C87,-251.82 87,-241.06 87,-233.71"/>
<polygon fill="midnightblue" stroke="midnightblue" points="83.5,-261.41 87,-271.41 90.5,-261.41 83.5,-261.41"/>
</g>
<!-- Node5&#45;&gt;Node2 -->
<g id="edge4" class="edge">
<title>Node5&#45;&gt;Node2</title>
<path fill="none" stroke="orange" stroke-dasharray="5,2" d="M152.68,-149.78C138.55,-134.83 117.78,-112.84 104.32,-98.6"/>
<polygon fill="orange" stroke="orange" points="150.35,-152.41 159.76,-157.28 155.44,-147.61 150.35,-152.41"/>
<text text-anchor="start" x="140" y="-131" font-family="Helvetica,sans-Serif" font-size="10.00"> &lt; CpuWinogradConv2dTransform</text>
<text text-anchor="middle" x="223" y="-120" font-family="Helvetica,sans-Serif" font-size="10.00">OutputKernel &gt;</text>
</g>
</g>
</svg>
