<?xml version="1.0" encoding="UTF-8" standalone="no"?>
<!DOCTYPE svg PUBLIC "-//W3C//DTD SVG 1.1//EN"
 "http://www.w3.org/Graphics/SVG/1.1/DTD/svg11.dtd">
<!-- Generated by graphviz version 2.43.0 (0)
 -->
<!-- Title: src/dynamic_fusion/sketch/gpu/components/cl Pages: 1 -->
<svg width="302pt" height="367pt"
 viewBox="0.00 0.00 301.61 367.00" xmlns="http://www.w3.org/2000/svg" xmlns:xlink="http://www.w3.org/1999/xlink">
<g id="graph0" class="graph" transform="scale(1 1) rotate(0) translate(4 363)">
<title>src/dynamic_fusion/sketch/gpu/components/cl</title>
<polygon fill="white" stroke="transparent" points="-4,4 -4,-363 297.61,-363 297.61,4 -4,4"/>
<g id="clust1" class="cluster">
<title>clusterdir_2dfbec2966693e15f04cad1350ff3fc9</title>
<g id="a_clust1"><a xlink:href="dir_2dfbec2966693e15f04cad1350ff3fc9.xhtml" target="_top" xlink:title="components">
<polygon fill="#ddddee" stroke="black" points="69.11,-280 69.11,-351 146.11,-351 146.11,-280 69.11,-280"/>
<text text-anchor="middle" x="107.61" y="-339" font-family="Helvetica,sans-Serif" font-size="10.00">components</text>
</a>
</g>
</g>
<!-- dir_1dfcd743a89af48c1ad7b4e490ecc755 -->
<g id="node1" class="node">
<title>dir_1dfcd743a89af48c1ad7b4e490ecc755</title>
<g id="a_node1"><a xlink:href="dir_1dfcd743a89af48c1ad7b4e490ecc755.xhtml" target="_top" xlink:title="cl">
<polygon fill="#eeeeff" stroke="black" points="134.11,-324 80.11,-324 80.11,-288 134.11,-288 134.11,-324"/>
<text text-anchor="middle" x="107.11" y="-303.5" font-family="Helvetica,sans-Serif" font-size="10.00">cl</text>
</a>
</g>
</g>
<!-- dir_6873a2afc4715a8a8ff813bcf2ca82fa -->
<g id="node2" class="node">
<title>dir_6873a2afc4715a8a8ff813bcf2ca82fa</title>
<g id="a_node2"><a xlink:href="dir_6873a2afc4715a8a8ff813bcf2ca82fa.xhtml" target="_top" xlink:title="operators">
<polygon fill="white" stroke="red" points="138.61,-252 75.61,-252 75.61,-216 138.61,-216 138.61,-252"/>
<text text-anchor="middle" x="107.11" y="-231.5" font-family="Helvetica,sans-Serif" font-size="10.00">operators</text>
</a>
</g>
</g>
<!-- dir_1dfcd743a89af48c1ad7b4e490ecc755&#45;&gt;dir_6873a2afc4715a8a8ff813bcf2ca82fa -->
<g id="edge6" class="edge">
<title>dir_1dfcd743a89af48c1ad7b4e490ecc755&#45;&gt;dir_6873a2afc4715a8a8ff813bcf2ca82fa</title>
<path fill="none" stroke="black" d="M107.11,-287.7C107.11,-279.98 107.11,-270.71 107.11,-262.11"/>
<polygon fill="black" stroke="black" points="110.61,-262.1 107.11,-252.1 103.61,-262.1 110.61,-262.1"/>
<g id="a_edge6&#45;headlabel"><a xlink:href="dir_000491_000492.xhtml" target="_top" xlink:title="1">
<text text-anchor="middle" x="113.44" y="-263.2" font-family="Helvetica,sans-Serif" font-size="10.00">1</text>
</a>
</g>
</g>
<!-- dir_8824b015e2d84b32c32abeb682f6ceb8 -->
<g id="node3" class="node">
<title>dir_8824b015e2d84b32c32abeb682f6ceb8</title>
<g id="a_node3"><a xlink:href="dir_8824b015e2d84b32c32abeb682f6ceb8.xhtml" target="_top" xlink:title="utils">
<polygon fill="none" stroke="black" points="66.11,-180 12.11,-180 12.11,-144 66.11,-144 66.11,-180"/>
<text text-anchor="middle" x="39.11" y="-159.5" font-family="Helvetica,sans-Serif" font-size="10.00">utils</text>
</a>
</g>
</g>
<!-- dir_1dfcd743a89af48c1ad7b4e490ecc755&#45;&gt;dir_8824b015e2d84b32c32abeb682f6ceb8 -->
<g id="edge7" class="edge">
<title>dir_1dfcd743a89af48c1ad7b4e490ecc755&#45;&gt;dir_8824b015e2d84b32c32abeb682f6ceb8</title>
<path fill="none" stroke="black" d="M91.33,-287.96C82.87,-278.07 72.83,-265.03 66.11,-252 55.95,-232.33 48.93,-208.2 44.6,-190.03"/>
<polygon fill="black" stroke="black" points="47.97,-189.09 42.35,-180.1 41.14,-190.63 47.97,-189.09"/>
<g id="a_edge7&#45;headlabel"><a xlink:href="dir_000491_000035.xhtml" target="_top" xlink:title="1">
<text text-anchor="middle" x="51.53" y="-189.47" font-family="Helvetica,sans-Serif" font-size="10.00">1</text>
</a>
</g>
</g>
<!-- dir_214608ef36d61442cb2b0c1c4e9a7def -->
<g id="node4" class="node">
<title>dir_214608ef36d61442cb2b0c1c4e9a7def</title>
<g id="a_node4"><a xlink:href="dir_214608ef36d61442cb2b0c1c4e9a7def.xhtml" target="_top" xlink:title="arm_compute">
<polygon fill="white" stroke="red" points="136.11,-36 52.11,-36 52.11,0 136.11,0 136.11,-36"/>
<text text-anchor="middle" x="94.11" y="-15.5" font-family="Helvetica,sans-Serif" font-size="10.00">arm_compute</text>
</a>
</g>
</g>
<!-- dir_1dfcd743a89af48c1ad7b4e490ecc755&#45;&gt;dir_214608ef36d61442cb2b0c1c4e9a7def -->
<g id="edge8" class="edge">
<title>dir_1dfcd743a89af48c1ad7b4e490ecc755&#45;&gt;dir_214608ef36d61442cb2b0c1c4e9a7def</title>
<path fill="none" stroke="black" d="M84.26,-287.78C57.86,-266.12 16.34,-226.13 3.11,-180 -12.05,-127.14 33.8,-72.95 65.82,-42.86"/>
<polygon fill="black" stroke="black" points="68.19,-45.44 73.21,-36.11 63.47,-40.27 68.19,-45.44"/>
<g id="a_edge8&#45;headlabel"><a xlink:href="dir_000491_000000.xhtml" target="_top" xlink:title="33">
<text text-anchor="middle" x="67.45" y="-47.46" font-family="Helvetica,sans-Serif" font-size="10.00">33</text>
</a>
</g>
</g>
<!-- dir_aebb8dcc11953d78e620bbef0b9e2183 -->
<g id="node5" class="node">
<title>dir_aebb8dcc11953d78e620bbef0b9e2183</title>
<g id="a_node5"><a xlink:href="dir_aebb8dcc11953d78e620bbef0b9e2183.xhtml" target="_top" xlink:title="core">
<polygon fill="white" stroke="red" points="186.11,-108 132.11,-108 132.11,-72 186.11,-72 186.11,-108"/>
<text text-anchor="middle" x="159.11" y="-87.5" font-family="Helvetica,sans-Serif" font-size="10.00">core</text>
</a>
</g>
</g>
<!-- dir_1dfcd743a89af48c1ad7b4e490ecc755&#45;&gt;dir_aebb8dcc11953d78e620bbef0b9e2183 -->
<g id="edge9" class="edge">
<title>dir_1dfcd743a89af48c1ad7b4e490ecc755&#45;&gt;dir_aebb8dcc11953d78e620bbef0b9e2183</title>
<path fill="none" stroke="black" d="M124.9,-287.54C133.51,-277.92 143.06,-265.27 148.11,-252 165.01,-207.53 164.33,-151.22 161.95,-118.34"/>
<polygon fill="black" stroke="black" points="165.42,-117.82 161.11,-108.14 158.45,-118.4 165.42,-117.82"/>
<g id="a_edge9&#45;headlabel"><a xlink:href="dir_000491_000020.xhtml" target="_top" xlink:title="11">
<text text-anchor="middle" x="168.55" y="-118.66" font-family="Helvetica,sans-Serif" font-size="10.00">11</text>
</a>
</g>
</g>
<!-- dir_09aab6a206c9d3717fe22866ebbc9576 -->
<g id="node6" class="node">
<title>dir_09aab6a206c9d3717fe22866ebbc9576</title>
<g id="a_node6"><a xlink:href="dir_09aab6a206c9d3717fe22866ebbc9576.xhtml" target="_top" xlink:title="template_writer">
<polygon fill="white" stroke="red" points="293.61,-180 198.61,-180 198.61,-144 293.61,-144 293.61,-180"/>
<text text-anchor="middle" x="246.11" y="-159.5" font-family="Helvetica,sans-Serif" font-size="10.00">template_writer</text>
</a>
</g>
</g>
<!-- dir_1dfcd743a89af48c1ad7b4e490ecc755&#45;&gt;dir_09aab6a206c9d3717fe22866ebbc9576 -->
<g id="edge10" class="edge">
<title>dir_1dfcd743a89af48c1ad7b4e490ecc755&#45;&gt;dir_09aab6a206c9d3717fe22866ebbc9576</title>
<path fill="none" stroke="black" d="M134.19,-289.71C149.82,-280.1 169.26,-266.76 184.11,-252 203.15,-233.06 220.23,-207.59 231.61,-188.75"/>
<polygon fill="black" stroke="black" points="234.65,-190.48 236.72,-180.09 228.62,-186.92 234.65,-190.48"/>
<g id="a_edge10&#45;headlabel"><a xlink:href="dir_000491_000494.xhtml" target="_top" xlink:title="12">
<text text-anchor="middle" x="235.27" y="-192.52" font-family="Helvetica,sans-Serif" font-size="10.00">12</text>
</a>
</g>
</g>
<!-- dir_6873a2afc4715a8a8ff813bcf2ca82fa&#45;&gt;dir_8824b015e2d84b32c32abeb682f6ceb8 -->
<g id="edge1" class="edge">
<title>dir_6873a2afc4715a8a8ff813bcf2ca82fa&#45;&gt;dir_8824b015e2d84b32c32abeb682f6ceb8</title>
<path fill="none" stroke="black" d="M90.3,-215.7C81.98,-207.14 71.8,-196.66 62.72,-187.3"/>
<polygon fill="black" stroke="black" points="65.2,-184.84 55.72,-180.1 60.18,-189.72 65.2,-184.84"/>
<g id="a_edge1&#45;headlabel"><a xlink:href="dir_000492_000035.xhtml" target="_top" xlink:title="2">
<text text-anchor="middle" x="69.74" y="-182.94" font-family="Helvetica,sans-Serif" font-size="10.00">2</text>
</a>
</g>
</g>
<!-- dir_6873a2afc4715a8a8ff813bcf2ca82fa&#45;&gt;dir_214608ef36d61442cb2b0c1c4e9a7def -->
<g id="edge2" class="edge">
<title>dir_6873a2afc4715a8a8ff813bcf2ca82fa&#45;&gt;dir_214608ef36d61442cb2b0c1c4e9a7def</title>
<path fill="none" stroke="black" d="M106.06,-215.85C103.81,-178.83 98.49,-91.18 95.77,-46.39"/>
<polygon fill="black" stroke="black" points="99.25,-46 95.15,-36.23 92.27,-46.43 99.25,-46"/>
<g id="a_edge2&#45;headlabel"><a xlink:href="dir_000492_000000.xhtml" target="_top" xlink:title="36">
<text text-anchor="middle" x="102.3" y="-46.92" font-family="Helvetica,sans-Serif" font-size="10.00">36</text>
</a>
</g>
</g>
<!-- dir_6873a2afc4715a8a8ff813bcf2ca82fa&#45;&gt;dir_aebb8dcc11953d78e620bbef0b9e2183 -->
<g id="edge3" class="edge">
<title>dir_6873a2afc4715a8a8ff813bcf2ca82fa&#45;&gt;dir_aebb8dcc11953d78e620bbef0b9e2183</title>
<path fill="none" stroke="black" d="M113.38,-215.87C122.32,-191.46 138.81,-146.43 149.35,-117.64"/>
<polygon fill="black" stroke="black" points="152.66,-118.78 152.81,-108.19 146.09,-116.38 152.66,-118.78"/>
<g id="a_edge3&#45;headlabel"><a xlink:href="dir_000492_000020.xhtml" target="_top" xlink:title="12">
<text text-anchor="middle" x="154.09" y="-120.63" font-family="Helvetica,sans-Serif" font-size="10.00">12</text>
</a>
</g>
</g>
<!-- dir_6873a2afc4715a8a8ff813bcf2ca82fa&#45;&gt;dir_09aab6a206c9d3717fe22866ebbc9576 -->
<g id="edge4" class="edge">
<title>dir_6873a2afc4715a8a8ff813bcf2ca82fa&#45;&gt;dir_09aab6a206c9d3717fe22866ebbc9576</title>
<path fill="none" stroke="black" d="M138.65,-217.12C157.76,-207.49 182.41,-195.08 203.28,-184.57"/>
<polygon fill="black" stroke="black" points="204.9,-187.67 212.26,-180.04 201.75,-181.42 204.9,-187.67"/>
<g id="a_edge4&#45;headlabel"><a xlink:href="dir_000492_000494.xhtml" target="_top" xlink:title="3">
<text text-anchor="middle" x="202.97" y="-189.32" font-family="Helvetica,sans-Serif" font-size="10.00">3</text>
</a>
</g>
</g>
<!-- dir_8824b015e2d84b32c32abeb682f6ceb8&#45;&gt;dir_214608ef36d61442cb2b0c1c4e9a7def -->
<g id="edge5" class="edge">
<title>dir_8824b015e2d84b32c32abeb682f6ceb8&#45;&gt;dir_214608ef36d61442cb2b0c1c4e9a7def</title>
<path fill="none" stroke="black" d="M45.74,-143.87C55.2,-119.46 72.64,-74.43 83.79,-45.64"/>
<polygon fill="black" stroke="black" points="87.1,-46.78 87.45,-36.19 80.57,-44.25 87.1,-46.78"/>
<g id="a_edge5&#45;headlabel"><a xlink:href="dir_000035_000000.xhtml" target="_top" xlink:title="2">
<text text-anchor="middle" x="88.45" y="-48.66" font-family="Helvetica,sans-Serif" font-size="10.00">2</text>
</a>
</g>
</g>
<!-- dir_aebb8dcc11953d78e620bbef0b9e2183&#45;&gt;dir_214608ef36d61442cb2b0c1c4e9a7def -->
<g id="edge11" class="edge">
<title>dir_aebb8dcc11953d78e620bbef0b9e2183&#45;&gt;dir_214608ef36d61442cb2b0c1c4e9a7def</title>
<path fill="none" stroke="black" d="M143.04,-71.7C135.17,-63.22 125.55,-52.86 116.93,-43.58"/>
<polygon fill="black" stroke="black" points="119.36,-41.05 109.99,-36.1 114.23,-45.81 119.36,-41.05"/>
<g id="a_edge11&#45;headlabel"><a xlink:href="dir_000020_000000.xhtml" target="_top" xlink:title="609">
<text text-anchor="middle" x="123.88" y="-39.25" font-family="Helvetica,sans-Serif" font-size="10.00">609</text>
</a>
</g>
</g>
<!-- dir_09aab6a206c9d3717fe22866ebbc9576&#45;&gt;dir_214608ef36d61442cb2b0c1c4e9a7def -->
<g id="edge12" class="edge">
<title>dir_09aab6a206c9d3717fe22866ebbc9576&#45;&gt;dir_214608ef36d61442cb2b0c1c4e9a7def</title>
<path fill="none" stroke="black" d="M239.66,-143.69C231.7,-124.22 216.52,-92.64 195.11,-72 181.03,-58.44 162.79,-47.45 145.69,-39.07"/>
<polygon fill="black" stroke="black" points="146.88,-35.77 136.34,-34.69 143.91,-42.11 146.88,-35.77"/>
<g id="a_edge12&#45;headlabel"><a xlink:href="dir_000494_000000.xhtml" target="_top" xlink:title="21">
<text text-anchor="middle" x="151.34" y="-32.22" font-family="Helvetica,sans-Serif" font-size="10.00">21</text>
</a>
</g>
</g>
<!-- dir_09aab6a206c9d3717fe22866ebbc9576&#45;&gt;dir_aebb8dcc11953d78e620bbef0b9e2183 -->
<g id="edge13" class="edge">
<title>dir_09aab6a206c9d3717fe22866ebbc9576&#45;&gt;dir_aebb8dcc11953d78e620bbef0b9e2183</title>
<path fill="none" stroke="black" d="M224.6,-143.7C213.64,-134.88 200.16,-124.03 188.28,-114.47"/>
<polygon fill="black" stroke="black" points="190.35,-111.65 180.36,-108.1 185.96,-117.1 190.35,-111.65"/>
<g id="a_edge13&#45;headlabel"><a xlink:href="dir_000494_000020.xhtml" target="_top" xlink:title="11">
<text text-anchor="middle" x="194.93" y="-109.19" font-family="Helvetica,sans-Serif" font-size="10.00">11</text>
</a>
</g>
</g>
</g>
</svg>
