<?xml version="1.0" encoding="UTF-8" standalone="no"?>
<!DOCTYPE svg PUBLIC "-//W3C//DTD SVG 1.1//EN"
 "http://www.w3.org/Graphics/SVG/1.1/DTD/svg11.dtd">
<!-- Generated by graphviz version 2.43.0 (0)
 -->
<!-- Title: src/cpu/kernels/add/generic Pages: 1 -->
<svg width="326pt" height="231pt"
 viewBox="0.00 0.00 326.00 231.00" xmlns="http://www.w3.org/2000/svg" xmlns:xlink="http://www.w3.org/1999/xlink">
<g id="graph0" class="graph" transform="scale(1 1) rotate(0) translate(4 227)">
<title>src/cpu/kernels/add/generic</title>
<polygon fill="white" stroke="transparent" points="-4,4 -4,-227 322,-227 322,4 -4,4"/>
<g id="clust1" class="cluster">
<title>clusterdir_7f0c74cf3e327840dbe789f241faca2d</title>
<g id="a_clust1"><a xlink:href="dir_7f0c74cf3e327840dbe789f241faca2d.xhtml" target="_top" xlink:title="add">
<polygon fill="#ddddee" stroke="black" points="8,-128 8,-215 310,-215 310,-128 8,-128"/>
<text text-anchor="middle" x="159" y="-203" font-family="Helvetica,sans-Serif" font-size="10.00">add</text>
</a>
</g>
</g>
<g id="clust2" class="cluster">
<title>clusterdir_b53f57400ea055fa5d0efec8ea5037d2</title>
<g id="a_clust2"><a xlink:href="dir_b53f57400ea055fa5d0efec8ea5037d2.xhtml" target="_top">
<polygon fill="#eeeeff" stroke="black" points="16,-136 16,-188 302,-188 302,-136 16,-136"/>
</a>
</g>
</g>
<!-- dir_b53f57400ea055fa5d0efec8ea5037d2 -->
<g id="node1" class="node">
<title>dir_b53f57400ea055fa5d0efec8ea5037d2</title>
<text text-anchor="middle" x="267" y="-159.5" font-family="Helvetica,sans-Serif" font-size="10.00">generic</text>
</g>
<!-- dir_b7c35eccc6b31413e4d25a6054171f61 -->
<g id="node2" class="node">
<title>dir_b7c35eccc6b31413e4d25a6054171f61</title>
<g id="a_node2"><a xlink:href="dir_b7c35eccc6b31413e4d25a6054171f61.xhtml" target="_top" xlink:title="neon">
<polygon fill="white" stroke="black" points="78,-180 24,-180 24,-144 78,-144 78,-180"/>
<text text-anchor="middle" x="51" y="-159.5" font-family="Helvetica,sans-Serif" font-size="10.00">neon</text>
</a>
</g>
</g>
<!-- dir_214608ef36d61442cb2b0c1c4e9a7def -->
<g id="node5" class="node">
<title>dir_214608ef36d61442cb2b0c1c4e9a7def</title>
<g id="a_node5"><a xlink:href="dir_214608ef36d61442cb2b0c1c4e9a7def.xhtml" target="_top" xlink:title="arm_compute">
<polygon fill="white" stroke="red" points="173,-36 89,-36 89,0 173,0 173,-36"/>
<text text-anchor="middle" x="131" y="-15.5" font-family="Helvetica,sans-Serif" font-size="10.00">arm_compute</text>
</a>
</g>
</g>
<!-- dir_b7c35eccc6b31413e4d25a6054171f61&#45;&gt;dir_214608ef36d61442cb2b0c1c4e9a7def -->
<g id="edge6" class="edge">
<title>dir_b7c35eccc6b31413e4d25a6054171f61&#45;&gt;dir_214608ef36d61442cb2b0c1c4e9a7def</title>
<path fill="none" stroke="black" d="M50.94,-143.75C51.61,-124.89 54.88,-94.39 68,-72 74.67,-60.62 84.72,-50.55 94.85,-42.33"/>
<polygon fill="black" stroke="black" points="97.12,-45.01 102.93,-36.15 92.86,-39.45 97.12,-45.01"/>
<g id="a_edge6&#45;headlabel"><a xlink:href="dir_000415_000000.xhtml" target="_top" xlink:title="13">
<text text-anchor="middle" x="95.99" y="-46.95" font-family="Helvetica,sans-Serif" font-size="10.00">13</text>
</a>
</g>
</g>
<!-- dir_aebb8dcc11953d78e620bbef0b9e2183 -->
<g id="node6" class="node">
<title>dir_aebb8dcc11953d78e620bbef0b9e2183</title>
<g id="a_node6"><a xlink:href="dir_aebb8dcc11953d78e620bbef0b9e2183.xhtml" target="_top" xlink:title="core">
<polygon fill="white" stroke="red" points="131,-108 77,-108 77,-72 131,-72 131,-108"/>
<text text-anchor="middle" x="104" y="-87.5" font-family="Helvetica,sans-Serif" font-size="10.00">core</text>
</a>
</g>
</g>
<!-- dir_b7c35eccc6b31413e4d25a6054171f61&#45;&gt;dir_aebb8dcc11953d78e620bbef0b9e2183 -->
<g id="edge7" class="edge">
<title>dir_b7c35eccc6b31413e4d25a6054171f61&#45;&gt;dir_aebb8dcc11953d78e620bbef0b9e2183</title>
<path fill="none" stroke="black" d="M64.1,-143.7C70.39,-135.39 78.05,-125.28 84.96,-116.14"/>
<polygon fill="black" stroke="black" points="87.8,-118.19 91.05,-108.1 82.22,-113.96 87.8,-118.19"/>
<g id="a_edge7&#45;headlabel"><a xlink:href="dir_000415_000020.xhtml" target="_top" xlink:title="3">
<text text-anchor="middle" x="87.9" y="-120.27" font-family="Helvetica,sans-Serif" font-size="10.00">3</text>
</a>
</g>
</g>
<!-- dir_d52e71b034cc1279c2395a7bbdb83fae -->
<g id="node3" class="node">
<title>dir_d52e71b034cc1279c2395a7bbdb83fae</title>
<g id="a_node3"><a xlink:href="dir_d52e71b034cc1279c2395a7bbdb83fae.xhtml" target="_top" xlink:title="sve">
<polygon fill="white" stroke="black" points="150,-180 96,-180 96,-144 150,-144 150,-180"/>
<text text-anchor="middle" x="123" y="-159.5" font-family="Helvetica,sans-Serif" font-size="10.00">sve</text>
</a>
</g>
</g>
<!-- dir_d52e71b034cc1279c2395a7bbdb83fae&#45;&gt;dir_214608ef36d61442cb2b0c1c4e9a7def -->
<g id="edge1" class="edge">
<title>dir_d52e71b034cc1279c2395a7bbdb83fae&#45;&gt;dir_214608ef36d61442cb2b0c1c4e9a7def</title>
<path fill="none" stroke="black" d="M130.07,-143.67C133.84,-133.47 138.09,-120.22 140,-108 143.22,-87.42 140.59,-63.96 137.36,-46.3"/>
<polygon fill="black" stroke="black" points="140.72,-45.25 135.32,-36.13 133.86,-46.63 140.72,-45.25"/>
<g id="a_edge1&#45;headlabel"><a xlink:href="dir_000416_000000.xhtml" target="_top" xlink:title="9">
<text text-anchor="middle" x="144.21" y="-45.71" font-family="Helvetica,sans-Serif" font-size="10.00">9</text>
</a>
</g>
</g>
<!-- dir_d52e71b034cc1279c2395a7bbdb83fae&#45;&gt;dir_aebb8dcc11953d78e620bbef0b9e2183 -->
<g id="edge2" class="edge">
<title>dir_d52e71b034cc1279c2395a7bbdb83fae&#45;&gt;dir_aebb8dcc11953d78e620bbef0b9e2183</title>
<path fill="none" stroke="black" d="M118.3,-143.7C116.19,-135.9 113.64,-126.51 111.28,-117.83"/>
<polygon fill="black" stroke="black" points="114.64,-116.84 108.64,-108.1 107.88,-118.67 114.64,-116.84"/>
<g id="a_edge2&#45;headlabel"><a xlink:href="dir_000416_000020.xhtml" target="_top" xlink:title="2">
<text text-anchor="middle" x="118.32" y="-117.06" font-family="Helvetica,sans-Serif" font-size="10.00">2</text>
</a>
</g>
</g>
<!-- dir_2cdee17d2671be52fa4558354d86db06 -->
<g id="node4" class="node">
<title>dir_2cdee17d2671be52fa4558354d86db06</title>
<g id="a_node4"><a xlink:href="dir_2cdee17d2671be52fa4558354d86db06.xhtml" target="_top" xlink:title="sve2">
<polygon fill="white" stroke="black" points="222,-180 168,-180 168,-144 222,-144 222,-180"/>
<text text-anchor="middle" x="195" y="-159.5" font-family="Helvetica,sans-Serif" font-size="10.00">sve2</text>
</a>
</g>
</g>
<!-- dir_2cdee17d2671be52fa4558354d86db06&#45;&gt;dir_214608ef36d61442cb2b0c1c4e9a7def -->
<g id="edge3" class="edge">
<title>dir_2cdee17d2671be52fa4558354d86db06&#45;&gt;dir_214608ef36d61442cb2b0c1c4e9a7def</title>
<path fill="none" stroke="black" d="M187.28,-143.87C176.28,-119.46 155.98,-74.43 143,-45.64"/>
<polygon fill="black" stroke="black" points="146.05,-43.87 138.75,-36.19 139.67,-46.74 146.05,-43.87"/>
<g id="a_edge3&#45;headlabel"><a xlink:href="dir_000474_000000.xhtml" target="_top" xlink:title="12">
<text text-anchor="middle" x="150.11" y="-43.48" font-family="Helvetica,sans-Serif" font-size="10.00">12</text>
</a>
</g>
</g>
<!-- dir_2cdee17d2671be52fa4558354d86db06&#45;&gt;dir_aebb8dcc11953d78e620bbef0b9e2183 -->
<g id="edge4" class="edge">
<title>dir_2cdee17d2671be52fa4558354d86db06&#45;&gt;dir_aebb8dcc11953d78e620bbef0b9e2183</title>
<path fill="none" stroke="black" d="M177.15,-143.66C171.5,-138.45 165.13,-132.83 159,-128 152.97,-123.25 146.35,-118.47 139.86,-113.99"/>
<polygon fill="black" stroke="black" points="141.39,-110.8 131.15,-108.1 137.47,-116.6 141.39,-110.8"/>
<g id="a_edge4&#45;headlabel"><a xlink:href="dir_000474_000020.xhtml" target="_top" xlink:title="6">
<text text-anchor="middle" x="145.96" y="-107.96" font-family="Helvetica,sans-Serif" font-size="10.00">6</text>
</a>
</g>
</g>
<!-- dir_aebb8dcc11953d78e620bbef0b9e2183&#45;&gt;dir_214608ef36d61442cb2b0c1c4e9a7def -->
<g id="edge5" class="edge">
<title>dir_aebb8dcc11953d78e620bbef0b9e2183&#45;&gt;dir_214608ef36d61442cb2b0c1c4e9a7def</title>
<path fill="none" stroke="black" d="M110.67,-71.7C113.71,-63.81 117.38,-54.3 120.76,-45.55"/>
<polygon fill="black" stroke="black" points="124.07,-46.69 124.4,-36.1 117.54,-44.17 124.07,-46.69"/>
<g id="a_edge5&#45;headlabel"><a xlink:href="dir_000020_000000.xhtml" target="_top" xlink:title="609">
<text text-anchor="middle" x="125.42" y="-48.57" font-family="Helvetica,sans-Serif" font-size="10.00">609</text>
</a>
</g>
</g>
</g>
</svg>
