<?xml version="1.0" encoding="UTF-8" standalone="no"?>
<!DOCTYPE svg PUBLIC "-//W3C//DTD SVG 1.1//EN"
 "http://www.w3.org/Graphics/SVG/1.1/DTD/svg11.dtd">
<!-- Generated by graphviz version 2.43.0 (0)
 -->
<!-- Title: src Pages: 1 -->
<svg width="694pt" height="564pt"
 viewBox="0.00 0.00 694.00 564.00" xmlns="http://www.w3.org/2000/svg" xmlns:xlink="http://www.w3.org/1999/xlink">
<g id="graph0" class="graph" transform="scale(1 1) rotate(0) translate(4 560)">
<title>src</title>
<polygon fill="white" stroke="transparent" points="-4,4 -4,-560 690,-560 690,4 -4,4"/>
<g id="clust1" class="cluster">
<title>clusterdir_68267d1309a1af8e8297ef4c3efbcdba</title>
<g id="a_clust1"><a xlink:href="dir_68267d1309a1af8e8297ef4c3efbcdba.xhtml" target="_top">
<polygon fill="#eeeeff" stroke="black" points="96,-136 96,-548 350,-548 350,-136 96,-136"/>
</a>
</g>
</g>
<!-- dir_68267d1309a1af8e8297ef4c3efbcdba -->
<g id="node1" class="node">
<title>dir_68267d1309a1af8e8297ef4c3efbcdba</title>
<text text-anchor="middle" x="315" y="-519.5" font-family="Helvetica,sans-Serif" font-size="10.00">src</text>
</g>
<!-- dir_3b19ecf29356981f494745fbef7e56bf -->
<g id="node2" class="node">
<title>dir_3b19ecf29356981f494745fbef7e56bf</title>
<g id="a_node2"><a xlink:href="dir_3b19ecf29356981f494745fbef7e56bf.xhtml" target="_top" xlink:title="c">
<polygon fill="white" stroke="red" points="158,-540 104,-540 104,-504 158,-504 158,-540"/>
<text text-anchor="middle" x="131" y="-519.5" font-family="Helvetica,sans-Serif" font-size="10.00">c</text>
</a>
</g>
</g>
<!-- dir_fdedb0aba14d44ce9d99bc100e026e6a -->
<g id="node3" class="node">
<title>dir_fdedb0aba14d44ce9d99bc100e026e6a</title>
<g id="a_node3"><a xlink:href="dir_fdedb0aba14d44ce9d99bc100e026e6a.xhtml" target="_top" xlink:title="common">
<polygon fill="white" stroke="red" points="218.5,-180 159.5,-180 159.5,-144 218.5,-144 218.5,-180"/>
<text text-anchor="middle" x="189" y="-159.5" font-family="Helvetica,sans-Serif" font-size="10.00">common</text>
</a>
</g>
</g>
<!-- dir_3b19ecf29356981f494745fbef7e56bf&#45;&gt;dir_fdedb0aba14d44ce9d99bc100e026e6a -->
<g id="edge33" class="edge">
<title>dir_3b19ecf29356981f494745fbef7e56bf&#45;&gt;dir_fdedb0aba14d44ce9d99bc100e026e6a</title>
<path fill="none" stroke="black" d="M125.74,-503.7C118.14,-477.14 105,-424.61 105,-379 105,-379 105,-379 105,-305 105,-264.46 103.81,-250.56 125,-216 131.96,-204.65 142.23,-194.59 152.51,-186.37"/>
<polygon fill="black" stroke="black" points="154.82,-189 160.69,-180.18 150.6,-183.42 154.82,-189"/>
<g id="a_edge33&#45;headlabel"><a xlink:href="dir_000082_000019.xhtml" target="_top" xlink:title="20">
<text text-anchor="middle" x="153.67" y="-190.94" font-family="Helvetica,sans-Serif" font-size="10.00">20</text>
</a>
</g>
</g>
<!-- dir_cf895c1ed808af158264b2f3d8d7f8f0 -->
<g id="node7" class="node">
<title>dir_cf895c1ed808af158264b2f3d8d7f8f0</title>
<g id="a_node7"><a xlink:href="dir_cf895c1ed808af158264b2f3d8d7f8f0.xhtml" target="_top" xlink:title="gpu">
<polygon fill="white" stroke="red" points="336,-468 282,-468 282,-432 336,-432 336,-468"/>
<text text-anchor="middle" x="309" y="-447.5" font-family="Helvetica,sans-Serif" font-size="10.00">gpu</text>
</a>
</g>
</g>
<!-- dir_3b19ecf29356981f494745fbef7e56bf&#45;&gt;dir_cf895c1ed808af158264b2f3d8d7f8f0 -->
<g id="edge30" class="edge">
<title>dir_3b19ecf29356981f494745fbef7e56bf&#45;&gt;dir_cf895c1ed808af158264b2f3d8d7f8f0</title>
<path fill="none" stroke="black" d="M158.02,-507.94C161.03,-506.58 164.07,-505.24 167,-504 202.24,-489.13 243.25,-474.06 272.1,-463.81"/>
<polygon fill="black" stroke="black" points="273.51,-467.03 281.78,-460.39 271.18,-460.42 273.51,-467.03"/>
<g id="a_edge30&#45;headlabel"><a xlink:href="dir_000082_000004.xhtml" target="_top" xlink:title="2">
<text text-anchor="middle" x="271.07" y="-468.4" font-family="Helvetica,sans-Serif" font-size="10.00">2</text>
</a>
</g>
</g>
<!-- dir_214608ef36d61442cb2b0c1c4e9a7def -->
<g id="node11" class="node">
<title>dir_214608ef36d61442cb2b0c1c4e9a7def</title>
<g id="a_node11"><a xlink:href="dir_214608ef36d61442cb2b0c1c4e9a7def.xhtml" target="_top" xlink:title="arm_compute">
<polygon fill="white" stroke="red" points="494,-180 410,-180 410,-144 494,-144 494,-180"/>
<text text-anchor="middle" x="452" y="-159.5" font-family="Helvetica,sans-Serif" font-size="10.00">arm_compute</text>
</a>
</g>
</g>
<!-- dir_3b19ecf29356981f494745fbef7e56bf&#45;&gt;dir_214608ef36d61442cb2b0c1c4e9a7def -->
<g id="edge31" class="edge">
<title>dir_3b19ecf29356981f494745fbef7e56bf&#45;&gt;dir_214608ef36d61442cb2b0c1c4e9a7def</title>
<path fill="none" stroke="black" d="M158.24,-507.3C161.16,-506.09 164.11,-504.96 167,-504 243.61,-478.58 277.15,-511.72 345,-468 438.23,-407.92 452.92,-361.59 470,-252 472.46,-236.19 472.61,-231.79 470,-216 468.56,-207.28 465.87,-198.06 463,-189.8"/>
<polygon fill="black" stroke="black" points="466.23,-188.46 459.48,-180.3 459.67,-190.89 466.23,-188.46"/>
<g id="a_edge31&#45;headlabel"><a xlink:href="dir_000082_000000.xhtml" target="_top" xlink:title="10">
<text text-anchor="middle" x="470.14" y="-188.34" font-family="Helvetica,sans-Serif" font-size="10.00">10</text>
</a>
</g>
</g>
<!-- dir_5815af820a9cc9481f1d0990a0d60286 -->
<g id="node12" class="node">
<title>dir_5815af820a9cc9481f1d0990a0d60286</title>
<g id="a_node12"><a xlink:href="dir_5815af820a9cc9481f1d0990a0d60286.xhtml" target="_top" xlink:title="support">
<polygon fill="none" stroke="black" points="333,-36 279,-36 279,0 333,0 333,-36"/>
<text text-anchor="middle" x="306" y="-15.5" font-family="Helvetica,sans-Serif" font-size="10.00">support</text>
</a>
</g>
</g>
<!-- dir_3b19ecf29356981f494745fbef7e56bf&#45;&gt;dir_5815af820a9cc9481f1d0990a0d60286 -->
<g id="edge32" class="edge">
<title>dir_3b19ecf29356981f494745fbef7e56bf&#45;&gt;dir_5815af820a9cc9481f1d0990a0d60286</title>
<path fill="none" stroke="black" d="M103.86,-507.21C65.49,-485.56 0,-439.71 0,-379 0,-379 0,-379 0,-161 0,-116.06 11.94,-98.82 48,-72 82.51,-46.34 205.62,-29.77 268.48,-22.79"/>
<polygon fill="black" stroke="black" points="269.19,-26.23 278.75,-21.67 268.43,-19.27 269.19,-26.23"/>
<g id="a_edge32&#45;headlabel"><a xlink:href="dir_000082_000032.xhtml" target="_top" xlink:title="1">
<text text-anchor="middle" x="265.92" y="-26.94" font-family="Helvetica,sans-Serif" font-size="10.00">1</text>
</a>
</g>
</g>
<!-- dir_cbdb8362360e11eafe2fa3bc74cf0ffd -->
<g id="node10" class="node">
<title>dir_cbdb8362360e11eafe2fa3bc74cf0ffd</title>
<g id="a_node10"><a xlink:href="dir_cbdb8362360e11eafe2fa3bc74cf0ffd.xhtml" target="_top" xlink:title="utils">
<polygon fill="white" stroke="red" points="411,-108 357,-108 357,-72 411,-72 411,-108"/>
<text text-anchor="middle" x="384" y="-87.5" font-family="Helvetica,sans-Serif" font-size="10.00">utils</text>
</a>
</g>
</g>
<!-- dir_fdedb0aba14d44ce9d99bc100e026e6a&#45;&gt;dir_cbdb8362360e11eafe2fa3bc74cf0ffd -->
<g id="edge42" class="edge">
<title>dir_fdedb0aba14d44ce9d99bc100e026e6a&#45;&gt;dir_cbdb8362360e11eafe2fa3bc74cf0ffd</title>
<path fill="none" stroke="black" d="M218.62,-150.37C253.14,-137.97 310.21,-117.49 347.46,-104.12"/>
<polygon fill="black" stroke="black" points="348.71,-107.39 356.94,-100.71 346.34,-100.8 348.71,-107.39"/>
<g id="a_edge42&#45;headlabel"><a xlink:href="dir_000019_000041.xhtml" target="_top" xlink:title="1">
<text text-anchor="middle" x="346.29" y="-108.77" font-family="Helvetica,sans-Serif" font-size="10.00">1</text>
</a>
</g>
</g>
<!-- dir_fdedb0aba14d44ce9d99bc100e026e6a&#45;&gt;dir_214608ef36d61442cb2b0c1c4e9a7def -->
<g id="edge43" class="edge">
<title>dir_fdedb0aba14d44ce9d99bc100e026e6a&#45;&gt;dir_214608ef36d61442cb2b0c1c4e9a7def</title>
<path fill="none" stroke="black" d="M218.54,-162C278.86,-162 339.19,-162 399.52,-162"/>
<polygon fill="black" stroke="black" points="399.59,-165.5 409.59,-162 399.59,-158.5 399.59,-165.5"/>
<g id="a_edge43&#45;headlabel"><a xlink:href="dir_000019_000000.xhtml" target="_top" xlink:title="17">
<text text-anchor="middle" x="396" y="-165.84" font-family="Helvetica,sans-Serif" font-size="10.00">17</text>
</a>
</g>
</g>
<!-- dir_fdedb0aba14d44ce9d99bc100e026e6a&#45;&gt;dir_5815af820a9cc9481f1d0990a0d60286 -->
<g id="edge44" class="edge">
<title>dir_fdedb0aba14d44ce9d99bc100e026e6a&#45;&gt;dir_5815af820a9cc9481f1d0990a0d60286</title>
<path fill="none" stroke="black" d="M197.77,-143.93C207.8,-125.23 225.4,-94.87 245,-72 253.93,-61.58 264.95,-51.38 275.15,-42.76"/>
<polygon fill="black" stroke="black" points="277.61,-45.27 283.1,-36.21 273.16,-39.86 277.61,-45.27"/>
<g id="a_edge44&#45;headlabel"><a xlink:href="dir_000019_000032.xhtml" target="_top" xlink:title="2">
<text text-anchor="middle" x="276.64" y="-47.24" font-family="Helvetica,sans-Serif" font-size="10.00">2</text>
</a>
</g>
</g>
<!-- dir_aebb8dcc11953d78e620bbef0b9e2183 -->
<g id="node4" class="node">
<title>dir_aebb8dcc11953d78e620bbef0b9e2183</title>
<g id="a_node4"><a xlink:href="dir_aebb8dcc11953d78e620bbef0b9e2183.xhtml" target="_top" xlink:title="core">
<polygon fill="white" stroke="red" points="313,-324 259,-324 259,-288 313,-288 313,-324"/>
<text text-anchor="middle" x="286" y="-303.5" font-family="Helvetica,sans-Serif" font-size="10.00">core</text>
</a>
</g>
</g>
<!-- dir_aebb8dcc11953d78e620bbef0b9e2183&#45;&gt;dir_fdedb0aba14d44ce9d99bc100e026e6a -->
<g id="edge29" class="edge">
<title>dir_aebb8dcc11953d78e620bbef0b9e2183&#45;&gt;dir_fdedb0aba14d44ce9d99bc100e026e6a</title>
<path fill="none" stroke="black" d="M258.92,-290.63C243.98,-281.42 226.23,-268.17 215,-252 202.2,-233.57 195.63,-208.81 192.3,-190.09"/>
<polygon fill="black" stroke="black" points="195.75,-189.46 190.73,-180.13 188.83,-190.55 195.75,-189.46"/>
<g id="a_edge29&#45;headlabel"><a xlink:href="dir_000020_000019.xhtml" target="_top" xlink:title="5">
<text text-anchor="middle" x="199.11" y="-190.07" font-family="Helvetica,sans-Serif" font-size="10.00">5</text>
</a>
</g>
</g>
<!-- dir_2c61f424fd391396db977702a2beee9a -->
<g id="node5" class="node">
<title>dir_2c61f424fd391396db977702a2beee9a</title>
<g id="a_node5"><a xlink:href="dir_2c61f424fd391396db977702a2beee9a.xhtml" target="_top" xlink:title="cpu">
<polygon fill="white" stroke="red" points="278,-252 224,-252 224,-216 278,-216 278,-252"/>
<text text-anchor="middle" x="251" y="-231.5" font-family="Helvetica,sans-Serif" font-size="10.00">cpu</text>
</a>
</g>
</g>
<!-- dir_aebb8dcc11953d78e620bbef0b9e2183&#45;&gt;dir_2c61f424fd391396db977702a2beee9a -->
<g id="edge26" class="edge">
<title>dir_aebb8dcc11953d78e620bbef0b9e2183&#45;&gt;dir_2c61f424fd391396db977702a2beee9a</title>
<path fill="none" stroke="black" d="M271.43,-287.7C266.68,-279.81 261.7,-270.3 257.7,-261.55"/>
<polygon fill="black" stroke="black" points="260.81,-259.92 253.66,-252.1 254.38,-262.67 260.81,-259.92"/>
<g id="a_edge26&#45;headlabel"><a xlink:href="dir_000020_000373.xhtml" target="_top" xlink:title="75">
<text text-anchor="middle" x="264.84" y="-259.6" font-family="Helvetica,sans-Serif" font-size="10.00">75</text>
</a>
</g>
</g>
<!-- dir_aebb8dcc11953d78e620bbef0b9e2183&#45;&gt;dir_cf895c1ed808af158264b2f3d8d7f8f0 -->
<g id="edge25" class="edge">
<title>dir_aebb8dcc11953d78e620bbef0b9e2183&#45;&gt;dir_cf895c1ed808af158264b2f3d8d7f8f0</title>
<path fill="none" stroke="black" d="M309.16,-324.3C317.73,-334.06 326.07,-346.9 330,-360 336.14,-380.44 332.28,-404.47 325.99,-422.41"/>
<polygon fill="black" stroke="black" points="322.64,-421.35 322.17,-431.93 329.14,-423.95 322.64,-421.35"/>
<g id="a_edge25&#45;headlabel"><a xlink:href="dir_000020_000004.xhtml" target="_top" xlink:title="4">
<text text-anchor="middle" x="321.34" y="-414.46" font-family="Helvetica,sans-Serif" font-size="10.00">4</text>
</a>
</g>
</g>
<!-- dir_aebb8dcc11953d78e620bbef0b9e2183&#45;&gt;dir_214608ef36d61442cb2b0c1c4e9a7def -->
<g id="edge27" class="edge">
<title>dir_aebb8dcc11953d78e620bbef0b9e2183&#45;&gt;dir_214608ef36d61442cb2b0c1c4e9a7def</title>
<path fill="none" stroke="black" d="M306.02,-287.87C335.44,-262.71 390.45,-215.65 423.9,-187.04"/>
<polygon fill="black" stroke="black" points="426.58,-189.35 431.91,-180.19 422.03,-184.03 426.58,-189.35"/>
<g id="a_edge27&#45;headlabel"><a xlink:href="dir_000020_000000.xhtml" target="_top" xlink:title="609">
<text text-anchor="middle" x="425.7" y="-191.34" font-family="Helvetica,sans-Serif" font-size="10.00">609</text>
</a>
</g>
</g>
<!-- dir_aebb8dcc11953d78e620bbef0b9e2183&#45;&gt;dir_5815af820a9cc9481f1d0990a0d60286 -->
<g id="edge28" class="edge">
<title>dir_aebb8dcc11953d78e620bbef0b9e2183&#45;&gt;dir_5815af820a9cc9481f1d0990a0d60286</title>
<path fill="none" stroke="black" d="M287.19,-287.97C290.53,-240.29 299.97,-105.18 304.07,-46.63"/>
<polygon fill="black" stroke="black" points="307.58,-46.53 304.79,-36.31 300.6,-46.04 307.58,-46.53"/>
<g id="a_edge28&#45;headlabel"><a xlink:href="dir_000020_000032.xhtml" target="_top" xlink:title="56">
<text text-anchor="middle" x="310.17" y="-47.81" font-family="Helvetica,sans-Serif" font-size="10.00">56</text>
</a>
</g>
</g>
<!-- dir_2c61f424fd391396db977702a2beee9a&#45;&gt;dir_fdedb0aba14d44ce9d99bc100e026e6a -->
<g id="edge22" class="edge">
<title>dir_2c61f424fd391396db977702a2beee9a&#45;&gt;dir_fdedb0aba14d44ce9d99bc100e026e6a</title>
<path fill="none" stroke="black" d="M235.67,-215.7C228.24,-207.3 219.18,-197.07 211.02,-187.86"/>
<polygon fill="black" stroke="black" points="213.4,-185.27 204.15,-180.1 208.16,-189.91 213.4,-185.27"/>
<g id="a_edge22&#45;headlabel"><a xlink:href="dir_000373_000019.xhtml" target="_top" xlink:title="48">
<text text-anchor="middle" x="217.91" y="-183.58" font-family="Helvetica,sans-Serif" font-size="10.00">48</text>
</a>
</g>
</g>
<!-- dir_2c61f424fd391396db977702a2beee9a&#45;&gt;dir_aebb8dcc11953d78e620bbef0b9e2183 -->
<g id="edge20" class="edge">
<title>dir_2c61f424fd391396db977702a2beee9a&#45;&gt;dir_aebb8dcc11953d78e620bbef0b9e2183</title>
<path fill="none" stroke="black" d="M265.45,-252.1C270.2,-259.96 275.18,-269.46 279.2,-278.23"/>
<polygon fill="black" stroke="black" points="276.1,-279.89 283.26,-287.7 282.53,-277.13 276.1,-279.89"/>
<g id="a_edge20&#45;headlabel"><a xlink:href="dir_000373_000020.xhtml" target="_top" xlink:title="398">
<text text-anchor="middle" x="272.07" y="-275.21" font-family="Helvetica,sans-Serif" font-size="10.00">398</text>
</a>
</g>
</g>
<!-- dir_2c61f424fd391396db977702a2beee9a&#45;&gt;dir_214608ef36d61442cb2b0c1c4e9a7def -->
<g id="edge19" class="edge">
<title>dir_2c61f424fd391396db977702a2beee9a&#45;&gt;dir_214608ef36d61442cb2b0c1c4e9a7def</title>
<path fill="none" stroke="black" d="M278.11,-223.56C309.32,-212.69 361.31,-194.58 400.33,-181"/>
<polygon fill="black" stroke="black" points="401.66,-184.24 409.95,-177.64 399.35,-177.63 401.66,-184.24"/>
<g id="a_edge19&#45;headlabel"><a xlink:href="dir_000373_000000.xhtml" target="_top" xlink:title="642">
<text text-anchor="middle" x="399.19" y="-185.6" font-family="Helvetica,sans-Serif" font-size="10.00">642</text>
</a>
</g>
</g>
<!-- dir_2c61f424fd391396db977702a2beee9a&#45;&gt;dir_5815af820a9cc9481f1d0990a0d60286 -->
<g id="edge21" class="edge">
<title>dir_2c61f424fd391396db977702a2beee9a&#45;&gt;dir_5815af820a9cc9481f1d0990a0d60286</title>
<path fill="none" stroke="black" d="M255.38,-215.6C262.82,-186.05 278.46,-124.21 292,-72 294.18,-63.58 296.59,-54.42 298.79,-46.11"/>
<polygon fill="black" stroke="black" points="302.24,-46.74 301.42,-36.18 295.48,-44.95 302.24,-46.74"/>
<g id="a_edge21&#45;headlabel"><a xlink:href="dir_000373_000032.xhtml" target="_top" xlink:title="17">
<text text-anchor="middle" x="304.07" y="-48.44" font-family="Helvetica,sans-Serif" font-size="10.00">17</text>
</a>
</g>
</g>
<!-- dir_5ff8356557e4f59c6a20c3735e8d2267 -->
<g id="node6" class="node">
<title>dir_5ff8356557e4f59c6a20c3735e8d2267</title>
<g id="a_node6"><a xlink:href="dir_5ff8356557e4f59c6a20c3735e8d2267.xhtml" target="_top" xlink:title="dynamic_fusion">
<polygon fill="white" stroke="red" points="270,-540 176,-540 176,-504 270,-504 270,-540"/>
<text text-anchor="middle" x="223" y="-519.5" font-family="Helvetica,sans-Serif" font-size="10.00">dynamic_fusion</text>
</a>
</g>
</g>
<!-- dir_5ff8356557e4f59c6a20c3735e8d2267&#45;&gt;dir_fdedb0aba14d44ce9d99bc100e026e6a -->
<g id="edge14" class="edge">
<title>dir_5ff8356557e4f59c6a20c3735e8d2267&#45;&gt;dir_fdedb0aba14d44ce9d99bc100e026e6a</title>
<path fill="none" stroke="black" d="M200.76,-503.92C171.85,-479.6 125,-432.02 125,-379 125,-379 125,-379 125,-305 125,-264.55 126.15,-252.29 144,-216 149.01,-205.82 156.4,-195.97 163.76,-187.59"/>
<polygon fill="black" stroke="black" points="166.52,-189.76 170.71,-180.03 161.37,-185.01 166.52,-189.76"/>
<g id="a_edge14&#45;headlabel"><a xlink:href="dir_000023_000019.xhtml" target="_top" xlink:title="12">
<text text-anchor="middle" x="166.17" y="-191.82" font-family="Helvetica,sans-Serif" font-size="10.00">12</text>
</a>
</g>
</g>
<!-- dir_5ff8356557e4f59c6a20c3735e8d2267&#45;&gt;dir_aebb8dcc11953d78e620bbef0b9e2183 -->
<g id="edge11" class="edge">
<title>dir_5ff8356557e4f59c6a20c3735e8d2267&#45;&gt;dir_aebb8dcc11953d78e620bbef0b9e2183</title>
<path fill="none" stroke="black" d="M223.08,-503.86C223.79,-473.66 227.77,-409.49 248,-360 251.94,-350.35 257.96,-340.79 264.05,-332.51"/>
<polygon fill="black" stroke="black" points="266.99,-334.43 270.35,-324.38 261.46,-330.14 266.99,-334.43"/>
<g id="a_edge11&#45;headlabel"><a xlink:href="dir_000023_000020.xhtml" target="_top" xlink:title="35">
<text text-anchor="middle" x="267.04" y="-336.51" font-family="Helvetica,sans-Serif" font-size="10.00">35</text>
</a>
</g>
</g>
<!-- dir_5ff8356557e4f59c6a20c3735e8d2267&#45;&gt;dir_cf895c1ed808af158264b2f3d8d7f8f0 -->
<g id="edge9" class="edge">
<title>dir_5ff8356557e4f59c6a20c3735e8d2267&#45;&gt;dir_cf895c1ed808af158264b2f3d8d7f8f0</title>
<path fill="none" stroke="black" d="M244.26,-503.7C255.09,-494.88 268.42,-484.03 280.16,-474.47"/>
<polygon fill="black" stroke="black" points="282.44,-477.13 287.99,-468.1 278.02,-471.7 282.44,-477.13"/>
<g id="a_edge9&#45;headlabel"><a xlink:href="dir_000023_000004.xhtml" target="_top" xlink:title="5">
<text text-anchor="middle" x="281.44" y="-479.1" font-family="Helvetica,sans-Serif" font-size="10.00">5</text>
</a>
</g>
</g>
<!-- dir_bf9f26469d00835ba20ff8d80ee5a804 -->
<g id="node9" class="node">
<title>dir_bf9f26469d00835ba20ff8d80ee5a804</title>
<g id="a_node9"><a xlink:href="dir_bf9f26469d00835ba20ff8d80ee5a804.xhtml" target="_top" xlink:title="runtime">
<polygon fill="white" stroke="red" points="311.5,-396 256.5,-396 256.5,-360 311.5,-360 311.5,-396"/>
<text text-anchor="middle" x="284" y="-375.5" font-family="Helvetica,sans-Serif" font-size="10.00">runtime</text>
</a>
</g>
</g>
<!-- dir_5ff8356557e4f59c6a20c3735e8d2267&#45;&gt;dir_bf9f26469d00835ba20ff8d80ee5a804 -->
<g id="edge12" class="edge">
<title>dir_5ff8356557e4f59c6a20c3735e8d2267&#45;&gt;dir_bf9f26469d00835ba20ff8d80ee5a804</title>
<path fill="none" stroke="black" d="M230.36,-503.87C240.85,-479.46 260.19,-434.43 272.56,-405.64"/>
<polygon fill="black" stroke="black" points="275.88,-406.76 276.62,-396.19 269.45,-404 275.88,-406.76"/>
<g id="a_edge12&#45;headlabel"><a xlink:href="dir_000023_000036.xhtml" target="_top" xlink:title="4">
<text text-anchor="middle" x="277.07" y="-408.68" font-family="Helvetica,sans-Serif" font-size="10.00">4</text>
</a>
</g>
</g>
<!-- dir_5ff8356557e4f59c6a20c3735e8d2267&#45;&gt;dir_214608ef36d61442cb2b0c1c4e9a7def -->
<g id="edge10" class="edge">
<title>dir_5ff8356557e4f59c6a20c3735e8d2267&#45;&gt;dir_214608ef36d61442cb2b0c1c4e9a7def</title>
<path fill="none" stroke="black" d="M270.2,-506.02C273.17,-505.29 276.12,-504.6 279,-504 346.24,-489.97 540.35,-519.32 586,-468 661.28,-383.37 627.33,-296.84 548,-216 535.4,-203.16 519.03,-192.59 503.39,-184.34"/>
<polygon fill="black" stroke="black" points="504.8,-181.14 494.29,-179.76 501.65,-187.39 504.8,-181.14"/>
<g id="a_edge10&#45;headlabel"><a xlink:href="dir_000023_000000.xhtml" target="_top" xlink:title="126">
<text text-anchor="middle" x="509.29" y="-177.72" font-family="Helvetica,sans-Serif" font-size="10.00">126</text>
</a>
</g>
</g>
<!-- dir_5ff8356557e4f59c6a20c3735e8d2267&#45;&gt;dir_5815af820a9cc9481f1d0990a0d60286 -->
<g id="edge13" class="edge">
<title>dir_5ff8356557e4f59c6a20c3735e8d2267&#45;&gt;dir_5815af820a9cc9481f1d0990a0d60286</title>
<path fill="none" stroke="black" d="M270.2,-505.99C273.16,-505.26 276.11,-504.59 279,-504 424.86,-474.25 480.82,-538.38 612,-468 657.33,-443.68 686,-430.44 686,-379 686,-379 686,-379 686,-161 686,-88.28 438.73,-40.48 343.12,-24.72"/>
<polygon fill="black" stroke="black" points="343.46,-21.23 333.02,-23.08 342.33,-28.14 343.46,-21.23"/>
<g id="a_edge13&#45;headlabel"><a xlink:href="dir_000023_000032.xhtml" target="_top" xlink:title="10">
<text text-anchor="middle" x="347.46" y="-16.5" font-family="Helvetica,sans-Serif" font-size="10.00">10</text>
</a>
</g>
</g>
<!-- dir_cf895c1ed808af158264b2f3d8d7f8f0&#45;&gt;dir_fdedb0aba14d44ce9d99bc100e026e6a -->
<g id="edge6" class="edge">
<title>dir_cf895c1ed808af158264b2f3d8d7f8f0&#45;&gt;dir_fdedb0aba14d44ce9d99bc100e026e6a</title>
<path fill="none" stroke="black" d="M281.75,-448.58C245.85,-446.37 183.9,-436.51 155,-396 110.01,-332.93 150.26,-235.54 174.21,-189.22"/>
<polygon fill="black" stroke="black" points="177.43,-190.61 179.03,-180.14 171.25,-187.33 177.43,-190.61"/>
<g id="a_edge6&#45;headlabel"><a xlink:href="dir_000004_000019.xhtml" target="_top" xlink:title="45">
<text text-anchor="middle" x="178.25" y="-192.62" font-family="Helvetica,sans-Serif" font-size="10.00">45</text>
</a>
</g>
</g>
<!-- dir_cf895c1ed808af158264b2f3d8d7f8f0&#45;&gt;dir_aebb8dcc11953d78e620bbef0b9e2183 -->
<g id="edge3" class="edge">
<title>dir_cf895c1ed808af158264b2f3d8d7f8f0&#45;&gt;dir_aebb8dcc11953d78e620bbef0b9e2183</title>
<path fill="none" stroke="black" d="M308.82,-431.93C312.45,-413.77 319.31,-384.34 312,-360 309.11,-350.38 303.85,-340.9 298.67,-332.68"/>
<polygon fill="black" stroke="black" points="301.6,-330.76 293.21,-324.3 295.74,-334.58 301.6,-330.76"/>
<g id="a_edge3&#45;headlabel"><a xlink:href="dir_000004_000020.xhtml" target="_top" xlink:title="236">
<text text-anchor="middle" x="305.94" y="-329.72" font-family="Helvetica,sans-Serif" font-size="10.00">236</text>
</a>
</g>
</g>
<!-- dir_cf895c1ed808af158264b2f3d8d7f8f0&#45;&gt;dir_bf9f26469d00835ba20ff8d80ee5a804 -->
<g id="edge4" class="edge">
<title>dir_cf895c1ed808af158264b2f3d8d7f8f0&#45;&gt;dir_bf9f26469d00835ba20ff8d80ee5a804</title>
<path fill="none" stroke="black" d="M296.9,-431.7C293.31,-423.9 289.74,-414.51 287,-405.83"/>
<polygon fill="black" stroke="black" points="290.33,-404.75 284.21,-396.1 283.6,-406.68 290.33,-404.75"/>
<g id="a_edge4&#45;headlabel"><a xlink:href="dir_000004_000036.xhtml" target="_top" xlink:title="14">
<text text-anchor="middle" x="294.05" y="-404.93" font-family="Helvetica,sans-Serif" font-size="10.00">14</text>
</a>
</g>
</g>
<!-- dir_cf895c1ed808af158264b2f3d8d7f8f0&#45;&gt;dir_cbdb8362360e11eafe2fa3bc74cf0ffd -->
<g id="edge1" class="edge">
<title>dir_cf895c1ed808af158264b2f3d8d7f8f0&#45;&gt;dir_cbdb8362360e11eafe2fa3bc74cf0ffd</title>
<path fill="none" stroke="black" d="M336.01,-436.53C354.52,-427.12 378.91,-412.95 397,-396 475.03,-322.88 483.28,-285.1 503,-180 506.61,-160.78 514.12,-152.09 503,-136 484.74,-109.57 448.83,-98.65 421.21,-94.14"/>
<polygon fill="black" stroke="black" points="421.47,-90.65 411.08,-92.71 420.49,-97.58 421.47,-90.65"/>
<g id="a_edge1&#45;headlabel"><a xlink:href="dir_000004_000041.xhtml" target="_top" xlink:title="2">
<text text-anchor="middle" x="425.43" y="-85.84" font-family="Helvetica,sans-Serif" font-size="10.00">2</text>
</a>
</g>
</g>
<!-- dir_cf895c1ed808af158264b2f3d8d7f8f0&#45;&gt;dir_214608ef36d61442cb2b0c1c4e9a7def -->
<g id="edge2" class="edge">
<title>dir_cf895c1ed808af158264b2f3d8d7f8f0&#45;&gt;dir_214608ef36d61442cb2b0c1c4e9a7def</title>
<path fill="none" stroke="black" d="M329.95,-431.98C366.06,-400.89 437.8,-330.82 455,-252 459.44,-231.64 458.38,-208.05 456.37,-190.27"/>
<polygon fill="black" stroke="black" points="459.83,-189.76 455.08,-180.29 452.89,-190.66 459.83,-189.76"/>
<g id="a_edge2&#45;headlabel"><a xlink:href="dir_000004_000000.xhtml" target="_top" xlink:title="488">
<text text-anchor="middle" x="463.11" y="-190.46" font-family="Helvetica,sans-Serif" font-size="10.00">488</text>
</a>
</g>
</g>
<!-- dir_cf895c1ed808af158264b2f3d8d7f8f0&#45;&gt;dir_5815af820a9cc9481f1d0990a0d60286 -->
<g id="edge5" class="edge">
<title>dir_cf895c1ed808af158264b2f3d8d7f8f0&#45;&gt;dir_5815af820a9cc9481f1d0990a0d60286</title>
<path fill="none" stroke="black" d="M336.21,-441.34C361.85,-433.15 400.34,-418.26 428,-396 523.38,-319.24 566.72,-248.75 519,-136 489.4,-66.06 396.12,-36.63 343.35,-25.32"/>
<polygon fill="black" stroke="black" points="343.86,-21.85 333.36,-23.29 342.46,-28.71 343.86,-21.85"/>
<g id="a_edge5&#45;headlabel"><a xlink:href="dir_000004_000032.xhtml" target="_top" xlink:title="107">
<text text-anchor="middle" x="347.95" y="-17.29" font-family="Helvetica,sans-Serif" font-size="10.00">107</text>
</a>
</g>
</g>
<!-- dir_d182250f0c231765fc862e69db210731 -->
<g id="node8" class="node">
<title>dir_d182250f0c231765fc862e69db210731</title>
<g id="a_node8"><a xlink:href="dir_d182250f0c231765fc862e69db210731.xhtml" target="_top" xlink:title="graph">
<polygon fill="white" stroke="red" points="218,-396 164,-396 164,-360 218,-360 218,-396"/>
<text text-anchor="middle" x="191" y="-375.5" font-family="Helvetica,sans-Serif" font-size="10.00">graph</text>
</a>
</g>
</g>
<!-- dir_d182250f0c231765fc862e69db210731&#45;&gt;dir_fdedb0aba14d44ce9d99bc100e026e6a -->
<g id="edge18" class="edge">
<title>dir_d182250f0c231765fc862e69db210731&#45;&gt;dir_fdedb0aba14d44ce9d99bc100e026e6a</title>
<path fill="none" stroke="black" d="M186.54,-359.95C184.06,-349.63 181.25,-336.15 180,-324 175.1,-276.25 175.97,-263.83 180,-216 180.72,-207.5 182.07,-198.31 183.51,-190.01"/>
<polygon fill="black" stroke="black" points="186.97,-190.56 185.35,-180.09 180.09,-189.29 186.97,-190.56"/>
<g id="a_edge18&#45;headlabel"><a xlink:href="dir_000465_000019.xhtml" target="_top" xlink:title="1">
<text text-anchor="middle" x="189.11" y="-192.11" font-family="Helvetica,sans-Serif" font-size="10.00">1</text>
</a>
</g>
</g>
<!-- dir_d182250f0c231765fc862e69db210731&#45;&gt;dir_aebb8dcc11953d78e620bbef0b9e2183 -->
<g id="edge16" class="edge">
<title>dir_d182250f0c231765fc862e69db210731&#45;&gt;dir_aebb8dcc11953d78e620bbef0b9e2183</title>
<path fill="none" stroke="black" d="M214.48,-359.7C226.56,-350.8 241.45,-339.82 254.52,-330.2"/>
<polygon fill="black" stroke="black" points="256.81,-332.85 262.79,-324.1 252.66,-327.22 256.81,-332.85"/>
<g id="a_edge16&#45;headlabel"><a xlink:href="dir_000465_000020.xhtml" target="_top" xlink:title="1">
<text text-anchor="middle" x="255.6" y="-334.77" font-family="Helvetica,sans-Serif" font-size="10.00">1</text>
</a>
</g>
</g>
<!-- dir_d182250f0c231765fc862e69db210731&#45;&gt;dir_214608ef36d61442cb2b0c1c4e9a7def -->
<g id="edge15" class="edge">
<title>dir_d182250f0c231765fc862e69db210731&#45;&gt;dir_214608ef36d61442cb2b0c1c4e9a7def</title>
<path fill="none" stroke="black" d="M218.25,-367.72C251.34,-356.15 304.85,-336.4 322,-324 373.57,-286.7 416.03,-223.92 437.28,-188.79"/>
<polygon fill="black" stroke="black" points="440.36,-190.45 442.46,-180.07 434.34,-186.88 440.36,-190.45"/>
<g id="a_edge15&#45;headlabel"><a xlink:href="dir_000465_000000.xhtml" target="_top" xlink:title="394">
<text text-anchor="middle" x="440.97" y="-192.49" font-family="Helvetica,sans-Serif" font-size="10.00">394</text>
</a>
</g>
</g>
<!-- dir_d182250f0c231765fc862e69db210731&#45;&gt;dir_5815af820a9cc9481f1d0990a0d60286 -->
<g id="edge17" class="edge">
<title>dir_d182250f0c231765fc862e69db210731&#45;&gt;dir_5815af820a9cc9481f1d0990a0d60286</title>
<path fill="none" stroke="black" d="M164,-366.54C120.08,-347.54 38,-302.95 38,-235 38,-235 38,-235 38,-161 38,-114.96 54.01,-99.41 91,-72 144.01,-32.72 222.58,-22.29 268.61,-19.68"/>
<polygon fill="black" stroke="black" points="268.92,-23.17 278.75,-19.2 268.59,-16.17 268.92,-23.17"/>
<g id="a_edge17&#45;headlabel"><a xlink:href="dir_000465_000032.xhtml" target="_top" xlink:title="23">
<text text-anchor="middle" x="265.47" y="-23.67" font-family="Helvetica,sans-Serif" font-size="10.00">23</text>
</a>
</g>
</g>
<!-- dir_bf9f26469d00835ba20ff8d80ee5a804&#45;&gt;dir_fdedb0aba14d44ce9d99bc100e026e6a -->
<g id="edge40" class="edge">
<title>dir_bf9f26469d00835ba20ff8d80ee5a804&#45;&gt;dir_fdedb0aba14d44ce9d99bc100e026e6a</title>
<path fill="none" stroke="black" d="M266.54,-359.91C244.99,-337.47 209.41,-295.78 195,-252 188.43,-232.05 187.14,-208.26 187.38,-190.3"/>
<polygon fill="black" stroke="black" points="190.88,-190.31 187.68,-180.21 183.88,-190.1 190.88,-190.31"/>
<g id="a_edge40&#45;headlabel"><a xlink:href="dir_000036_000019.xhtml" target="_top" xlink:title="127">
<text text-anchor="middle" x="193.61" y="-191.49" font-family="Helvetica,sans-Serif" font-size="10.00">127</text>
</a>
</g>
</g>
<!-- dir_bf9f26469d00835ba20ff8d80ee5a804&#45;&gt;dir_aebb8dcc11953d78e620bbef0b9e2183 -->
<g id="edge38" class="edge">
<title>dir_bf9f26469d00835ba20ff8d80ee5a804&#45;&gt;dir_aebb8dcc11953d78e620bbef0b9e2183</title>
<path fill="none" stroke="black" d="M284.49,-359.7C284.71,-351.98 284.98,-342.71 285.23,-334.11"/>
<polygon fill="black" stroke="black" points="288.72,-334.2 285.51,-324.1 281.73,-334 288.72,-334.2"/>
<g id="a_edge38&#45;headlabel"><a xlink:href="dir_000036_000020.xhtml" target="_top" xlink:title="214">
<text text-anchor="middle" x="291.46" y="-335.37" font-family="Helvetica,sans-Serif" font-size="10.00">214</text>
</a>
</g>
</g>
<!-- dir_bf9f26469d00835ba20ff8d80ee5a804&#45;&gt;dir_2c61f424fd391396db977702a2beee9a -->
<g id="edge36" class="edge">
<title>dir_bf9f26469d00835ba20ff8d80ee5a804&#45;&gt;dir_2c61f424fd391396db977702a2beee9a</title>
<path fill="none" stroke="black" d="M269.25,-359.63C261.91,-349.85 253.81,-337.01 250,-324 244.1,-303.89 244.74,-280.11 246.63,-262.19"/>
<polygon fill="black" stroke="black" points="250.12,-262.49 247.89,-252.13 243.18,-261.62 250.12,-262.49"/>
<g id="a_edge36&#45;headlabel"><a xlink:href="dir_000036_000373.xhtml" target="_top" xlink:title="46">
<text text-anchor="middle" x="252.49" y="-263.91" font-family="Helvetica,sans-Serif" font-size="10.00">46</text>
</a>
</g>
</g>
<!-- dir_bf9f26469d00835ba20ff8d80ee5a804&#45;&gt;dir_cf895c1ed808af158264b2f3d8d7f8f0 -->
<g id="edge34" class="edge">
<title>dir_bf9f26469d00835ba20ff8d80ee5a804&#45;&gt;dir_cf895c1ed808af158264b2f3d8d7f8f0</title>
<path fill="none" stroke="black" d="M296,-396.1C299.59,-403.88 303.18,-413.26 305.93,-421.95"/>
<polygon fill="black" stroke="black" points="302.61,-423.05 308.74,-431.7 309.33,-421.12 302.61,-423.05"/>
<g id="a_edge34&#45;headlabel"><a xlink:href="dir_000036_000004.xhtml" target="_top" xlink:title="57">
<text text-anchor="middle" x="298.89" y="-417.88" font-family="Helvetica,sans-Serif" font-size="10.00">57</text>
</a>
</g>
</g>
<!-- dir_bf9f26469d00835ba20ff8d80ee5a804&#45;&gt;dir_cbdb8362360e11eafe2fa3bc74cf0ffd -->
<g id="edge35" class="edge">
<title>dir_bf9f26469d00835ba20ff8d80ee5a804&#45;&gt;dir_cbdb8362360e11eafe2fa3bc74cf0ffd</title>
<path fill="none" stroke="black" d="M298.73,-359.86C306.61,-349.94 315.91,-336.9 322,-324 355.18,-253.71 372.85,-162.8 380.05,-118.17"/>
<polygon fill="black" stroke="black" points="383.53,-118.53 381.62,-108.11 376.62,-117.45 383.53,-118.53"/>
<g id="a_edge35&#45;headlabel"><a xlink:href="dir_000036_000041.xhtml" target="_top" xlink:title="1">
<text text-anchor="middle" x="385.78" y="-120.02" font-family="Helvetica,sans-Serif" font-size="10.00">1</text>
</a>
</g>
</g>
<!-- dir_bf9f26469d00835ba20ff8d80ee5a804&#45;&gt;dir_214608ef36d61442cb2b0c1c4e9a7def -->
<g id="edge37" class="edge">
<title>dir_bf9f26469d00835ba20ff8d80ee5a804&#45;&gt;dir_214608ef36d61442cb2b0c1c4e9a7def</title>
<path fill="none" stroke="black" d="M311.78,-369.37C336.4,-361.43 372.07,-346.91 396,-324 433.49,-288.11 445.89,-225.85 449.99,-190.18"/>
<polygon fill="black" stroke="black" points="453.49,-190.32 451.01,-180.02 446.53,-189.62 453.49,-190.32"/>
<g id="a_edge37&#45;headlabel"><a xlink:href="dir_000036_000000.xhtml" target="_top" xlink:title="945">
<text text-anchor="middle" x="455.96" y="-191.68" font-family="Helvetica,sans-Serif" font-size="10.00">945</text>
</a>
</g>
</g>
<!-- dir_bf9f26469d00835ba20ff8d80ee5a804&#45;&gt;dir_5815af820a9cc9481f1d0990a0d60286 -->
<g id="edge39" class="edge">
<title>dir_bf9f26469d00835ba20ff8d80ee5a804&#45;&gt;dir_5815af820a9cc9481f1d0990a0d60286</title>
<path fill="none" stroke="black" d="M256.38,-364.91C199.8,-339.25 76,-278.18 76,-235 76,-235 76,-235 76,-161 76,-71.47 203.75,-36.51 268.83,-24.52"/>
<polygon fill="black" stroke="black" points="269.47,-27.96 278.71,-22.79 268.26,-21.07 269.47,-27.96"/>
<g id="a_edge39&#45;headlabel"><a xlink:href="dir_000036_000032.xhtml" target="_top" xlink:title="8">
<text text-anchor="middle" x="266.42" y="-28.88" font-family="Helvetica,sans-Serif" font-size="10.00">8</text>
</a>
</g>
</g>
<!-- dir_cbdb8362360e11eafe2fa3bc74cf0ffd&#45;&gt;dir_214608ef36d61442cb2b0c1c4e9a7def -->
<g id="edge7" class="edge">
<title>dir_cbdb8362360e11eafe2fa3bc74cf0ffd&#45;&gt;dir_214608ef36d61442cb2b0c1c4e9a7def</title>
<path fill="none" stroke="black" d="M406.51,-108.1C415.6,-116.55 425.85,-126.9 434.4,-136.2"/>
<polygon fill="black" stroke="black" points="431.83,-138.58 441.11,-143.7 437.05,-133.91 431.83,-138.58"/>
<g id="a_edge7&#45;headlabel"><a xlink:href="dir_000041_000000.xhtml" target="_top" xlink:title="50">
<text text-anchor="middle" x="427.32" y="-135.29" font-family="Helvetica,sans-Serif" font-size="10.00">50</text>
</a>
</g>
</g>
<!-- dir_cbdb8362360e11eafe2fa3bc74cf0ffd&#45;&gt;dir_5815af820a9cc9481f1d0990a0d60286 -->
<g id="edge8" class="edge">
<title>dir_cbdb8362360e11eafe2fa3bc74cf0ffd&#45;&gt;dir_5815af820a9cc9481f1d0990a0d60286</title>
<path fill="none" stroke="black" d="M364.72,-71.7C355.08,-63.05 343.27,-52.45 332.77,-43.03"/>
<polygon fill="black" stroke="black" points="334.84,-40.18 325.06,-36.1 330.16,-45.39 334.84,-40.18"/>
<g id="a_edge8&#45;headlabel"><a xlink:href="dir_000041_000032.xhtml" target="_top" xlink:title="4">
<text text-anchor="middle" x="339.41" y="-37.97" font-family="Helvetica,sans-Serif" font-size="10.00">4</text>
</a>
</g>
</g>
<!-- dir_214608ef36d61442cb2b0c1c4e9a7def&#45;&gt;dir_cbdb8362360e11eafe2fa3bc74cf0ffd -->
<g id="edge23" class="edge">
<title>dir_214608ef36d61442cb2b0c1c4e9a7def&#45;&gt;dir_cbdb8362360e11eafe2fa3bc74cf0ffd</title>
<path fill="none" stroke="black" d="M429.28,-143.7C420.17,-135.22 409.92,-124.86 401.4,-115.58"/>
<polygon fill="black" stroke="black" points="403.99,-113.23 394.72,-108.1 398.77,-117.89 403.99,-113.23"/>
<g id="a_edge23&#45;headlabel"><a xlink:href="dir_000000_000041.xhtml" target="_top" xlink:title="1">
<text text-anchor="middle" x="408.51" y="-111.52" font-family="Helvetica,sans-Serif" font-size="10.00">1</text>
</a>
</g>
</g>
<!-- dir_214608ef36d61442cb2b0c1c4e9a7def&#45;&gt;dir_5815af820a9cc9481f1d0990a0d60286 -->
<g id="edge24" class="edge">
<title>dir_214608ef36d61442cb2b0c1c4e9a7def&#45;&gt;dir_5815af820a9cc9481f1d0990a0d60286</title>
<path fill="none" stroke="black" d="M443.4,-143.9C437.57,-124.33 429.61,-92.36 411,-72 392.66,-51.93 365.18,-38.84 342.83,-30.69"/>
<polygon fill="black" stroke="black" points="343.88,-27.36 333.29,-27.4 341.59,-33.97 343.88,-27.36"/>
<g id="a_edge24&#45;headlabel"><a xlink:href="dir_000000_000032.xhtml" target="_top" xlink:title="18">
<text text-anchor="middle" x="348.21" y="-23.35" font-family="Helvetica,sans-Serif" font-size="10.00">18</text>
</a>
</g>
</g>
<!-- dir_5815af820a9cc9481f1d0990a0d60286&#45;&gt;dir_214608ef36d61442cb2b0c1c4e9a7def -->
<g id="edge41" class="edge">
<title>dir_5815af820a9cc9481f1d0990a0d60286&#45;&gt;dir_214608ef36d61442cb2b0c1c4e9a7def</title>
<path fill="none" stroke="black" d="M333.35,-23.54C361.42,-30.06 403.82,-44.45 429,-72 444.7,-89.18 452.83,-114.62 455.42,-133.91"/>
<polygon fill="black" stroke="black" points="451.94,-134.25 456.31,-143.9 458.91,-133.63 451.94,-134.25"/>
<g id="a_edge41&#45;headlabel"><a xlink:href="dir_000032_000000.xhtml" target="_top" xlink:title="6">
<text text-anchor="middle" x="448.79" y="-128.42" font-family="Helvetica,sans-Serif" font-size="10.00">6</text>
</a>
</g>
</g>
</g>
</svg>
