<?xml version="1.0" encoding="UTF-8" standalone="no"?>
<!DOCTYPE svg PUBLIC "-//W3C//DTD SVG 1.1//EN"
 "http://www.w3.org/Graphics/SVG/1.1/DTD/svg11.dtd">
<!-- Generated by graphviz version 2.43.0 (0)
 -->
<!-- Title: arm_compute/core Pages: 1 -->
<svg width="310pt" height="203pt"
 viewBox="0.00 0.00 309.50 203.21" xmlns="http://www.w3.org/2000/svg" xmlns:xlink="http://www.w3.org/1999/xlink">
<g id="graph0" class="graph" transform="scale(1 1) rotate(0) translate(4 199.21)">
<title>arm_compute/core</title>
<polygon fill="white" stroke="transparent" points="-4,4 -4,-199.21 305.5,-199.21 305.5,4 -4,4"/>
<g id="clust1" class="cluster">
<title>clusterdir_214608ef36d61442cb2b0c1c4e9a7def</title>
<g id="a_clust1"><a xlink:href="dir_214608ef36d61442cb2b0c1c4e9a7def.xhtml" target="_top" xlink:title="arm_compute">
<polygon fill="#ddddee" stroke="black" points="8,-8 8,-167 238,-167 238,-8 8,-8"/>
<text text-anchor="middle" x="123" y="-155" font-family="Helvetica,sans-Serif" font-size="10.00">arm_compute</text>
</a>
</g>
</g>
<g id="clust2" class="cluster">
<title>clusterdir_1fb090f0c6070330bfaccc4236d3ca0d</title>
<g id="a_clust2"><a xlink:href="dir_1fb090f0c6070330bfaccc4236d3ca0d.xhtml" target="_top">
<polygon fill="#eeeeff" stroke="black" points="16,-16 16,-140 230,-140 230,-16 16,-16"/>
</a>
</g>
</g>
<!-- dir_1fb090f0c6070330bfaccc4236d3ca0d -->
<g id="node1" class="node">
<title>dir_1fb090f0c6070330bfaccc4236d3ca0d</title>
<text text-anchor="middle" x="123" y="-111.5" font-family="Helvetica,sans-Serif" font-size="10.00">core</text>
</g>
<!-- dir_a0d10d1f11f896cb40f799a595f5f383 -->
<g id="node4" class="node">
<title>dir_a0d10d1f11f896cb40f799a595f5f383</title>
<g id="a_node4"><a xlink:href="dir_a0d10d1f11f896cb40f799a595f5f383.xhtml" target="_top" xlink:title="experimental">
<polygon fill="white" stroke="black" points="150,-60 68,-60 68,-24 150,-24 150,-60"/>
<text text-anchor="middle" x="109" y="-39.5" font-family="Helvetica,sans-Serif" font-size="10.00">experimental</text>
</a>
</g>
</g>
<!-- dir_1fb090f0c6070330bfaccc4236d3ca0d&#45;&gt;dir_a0d10d1f11f896cb40f799a595f5f383 -->
<g id="edge6" class="edge">
<title>dir_1fb090f0c6070330bfaccc4236d3ca0d&#45;&gt;dir_a0d10d1f11f896cb40f799a595f5f383</title>
<path fill="none" stroke="black" d="M119.54,-95.7C118,-87.98 116.14,-78.71 114.42,-70.11"/>
<polygon fill="black" stroke="black" points="117.81,-69.22 112.42,-60.1 110.95,-70.6 117.81,-69.22"/>
<g id="a_edge6&#45;headlabel"><a xlink:href="dir_000001_000010.xhtml" target="_top" xlink:title="4">
<text text-anchor="middle" x="121.3" y="-69.69" font-family="Helvetica,sans-Serif" font-size="10.00">4</text>
</a>
</g>
</g>
<!-- dir_7b0825b7536eda12b63e5d87347b1c7d -->
<g id="node5" class="node">
<title>dir_7b0825b7536eda12b63e5d87347b1c7d</title>
<g id="a_node5"><a xlink:href="dir_7b0825b7536eda12b63e5d87347b1c7d.xhtml" target="_top" xlink:title="utils">
<polygon fill="white" stroke="red" points="222,-60 168,-60 168,-24 222,-24 222,-60"/>
<text text-anchor="middle" x="195" y="-39.5" font-family="Helvetica,sans-Serif" font-size="10.00">utils</text>
</a>
</g>
</g>
<!-- dir_1fb090f0c6070330bfaccc4236d3ca0d&#45;&gt;dir_7b0825b7536eda12b63e5d87347b1c7d -->
<g id="edge7" class="edge">
<title>dir_1fb090f0c6070330bfaccc4236d3ca0d&#45;&gt;dir_7b0825b7536eda12b63e5d87347b1c7d</title>
<path fill="none" stroke="black" d="M140.8,-95.7C149.6,-87.14 160.38,-76.66 170,-67.3"/>
<polygon fill="black" stroke="black" points="172.68,-69.58 177.41,-60.1 167.8,-64.57 172.68,-69.58"/>
<g id="a_edge7&#45;headlabel"><a xlink:href="dir_000001_000014.xhtml" target="_top" xlink:title="7">
<text text-anchor="middle" x="172.08" y="-71.63" font-family="Helvetica,sans-Serif" font-size="10.00">7</text>
</a>
</g>
</g>
<!-- dir_5815af820a9cc9481f1d0990a0d60286 -->
<g id="node7" class="node">
<title>dir_5815af820a9cc9481f1d0990a0d60286</title>
<g id="a_node7"><a xlink:href="dir_5815af820a9cc9481f1d0990a0d60286.xhtml" target="_top" xlink:title="support">
<polygon fill="none" stroke="black" points="300,-60 246,-60 246,-24 300,-24 300,-60"/>
<text text-anchor="middle" x="273" y="-39.5" font-family="Helvetica,sans-Serif" font-size="10.00">support</text>
</a>
</g>
</g>
<!-- dir_1fb090f0c6070330bfaccc4236d3ca0d&#45;&gt;dir_5815af820a9cc9481f1d0990a0d60286 -->
<g id="edge8" class="edge">
<title>dir_1fb090f0c6070330bfaccc4236d3ca0d&#45;&gt;dir_5815af820a9cc9481f1d0990a0d60286</title>
<path fill="none" stroke="black" d="M150.3,-95.86C179.06,-82.39 211.91,-67.13 236.54,-56.48"/>
<polygon fill="black" stroke="black" points="238.05,-59.64 245.88,-52.5 235.31,-53.2 238.05,-59.64"/>
<g id="a_edge8&#45;headlabel"><a xlink:href="dir_000001_000032.xhtml" target="_top" xlink:title="9">
<text text-anchor="middle" x="235.86" y="-61.16" font-family="Helvetica,sans-Serif" font-size="10.00">9</text>
</a>
</g>
</g>
<!-- dir_1633709b037eda5b8477677909f78129 -->
<g id="node2" class="node">
<title>dir_1633709b037eda5b8477677909f78129</title>
<g id="a_node2"><a xlink:href="dir_1633709b037eda5b8477677909f78129.xhtml" target="_top" xlink:title="CL">
<polygon fill="white" stroke="black" points="222,-132 168,-132 168,-96 222,-96 222,-132"/>
<text text-anchor="middle" x="195" y="-111.5" font-family="Helvetica,sans-Serif" font-size="10.00">CL</text>
</a>
</g>
</g>
<!-- dir_7484b841a86f2d7fdd057c9b24fbf230 -->
<g id="node3" class="node">
<title>dir_7484b841a86f2d7fdd057c9b24fbf230</title>
<g id="a_node3"><a xlink:href="dir_7484b841a86f2d7fdd057c9b24fbf230.xhtml" target="_top" xlink:title="CPP">
<polygon fill="white" stroke="red" points="78,-132 24,-132 24,-96 78,-96 78,-132"/>
<text text-anchor="middle" x="51" y="-111.5" font-family="Helvetica,sans-Serif" font-size="10.00">CPP</text>
</a>
</g>
</g>
<!-- dir_7484b841a86f2d7fdd057c9b24fbf230&#45;&gt;dir_a0d10d1f11f896cb40f799a595f5f383 -->
<g id="edge14" class="edge">
<title>dir_7484b841a86f2d7fdd057c9b24fbf230&#45;&gt;dir_a0d10d1f11f896cb40f799a595f5f383</title>
<path fill="none" stroke="black" d="M65.34,-95.7C72.29,-87.3 80.77,-77.07 88.4,-67.86"/>
<polygon fill="black" stroke="black" points="91.14,-70.04 94.83,-60.1 85.75,-65.57 91.14,-70.04"/>
<g id="a_edge14&#45;headlabel"><a xlink:href="dir_000008_000010.xhtml" target="_top" xlink:title="1">
<text text-anchor="middle" x="91.04" y="-72.12" font-family="Helvetica,sans-Serif" font-size="10.00">1</text>
</a>
</g>
</g>
<!-- dir_8bc26130589aa16388b5a02f17abf2c2 -->
<g id="node6" class="node">
<title>dir_8bc26130589aa16388b5a02f17abf2c2</title>
<g id="a_node6"><a xlink:href="dir_8bc26130589aa16388b5a02f17abf2c2.xhtml" target="_top" xlink:title="runtime">
<polygon fill="white" stroke="red" points="301.5,-132 246.5,-132 246.5,-96 301.5,-96 301.5,-132"/>
<text text-anchor="middle" x="274" y="-111.5" font-family="Helvetica,sans-Serif" font-size="10.00">runtime</text>
</a>
</g>
</g>
<!-- dir_7484b841a86f2d7fdd057c9b24fbf230&#45;&gt;dir_8bc26130589aa16388b5a02f17abf2c2 -->
<g id="edge13" class="edge">
<title>dir_7484b841a86f2d7fdd057c9b24fbf230&#45;&gt;dir_8bc26130589aa16388b5a02f17abf2c2</title>
<path fill="none" stroke="black" d="M56.73,-132.04C63.23,-149.14 75.67,-173.82 96,-185 121.12,-198.82 199.62,-198.32 225,-185 242.46,-175.83 254.92,-157.31 262.91,-141.49"/>
<polygon fill="black" stroke="black" points="266.24,-142.63 267.31,-132.09 259.9,-139.66 266.24,-142.63"/>
<g id="a_edge13&#45;headlabel"><a xlink:href="dir_000008_000006.xhtml" target="_top" xlink:title="1">
<text text-anchor="middle" x="267.29" y="-144.59" font-family="Helvetica,sans-Serif" font-size="10.00">1</text>
</a>
</g>
</g>
<!-- dir_7b0825b7536eda12b63e5d87347b1c7d&#45;&gt;dir_8bc26130589aa16388b5a02f17abf2c2 -->
<g id="edge9" class="edge">
<title>dir_7b0825b7536eda12b63e5d87347b1c7d&#45;&gt;dir_8bc26130589aa16388b5a02f17abf2c2</title>
<path fill="none" stroke="black" d="M208.41,-60.1C217.4,-68.89 229.46,-79.73 240.84,-89.31"/>
<polygon fill="black" stroke="black" points="238.62,-92.02 248.56,-95.7 243.08,-86.62 238.62,-92.02"/>
<g id="a_edge9&#45;headlabel"><a xlink:href="dir_000014_000006.xhtml" target="_top" xlink:title="2">
<text text-anchor="middle" x="234.04" y="-89.41" font-family="Helvetica,sans-Serif" font-size="10.00">2</text>
</a>
</g>
</g>
<!-- dir_7b0825b7536eda12b63e5d87347b1c7d&#45;&gt;dir_5815af820a9cc9481f1d0990a0d60286 -->
<g id="edge10" class="edge">
<title>dir_7b0825b7536eda12b63e5d87347b1c7d&#45;&gt;dir_5815af820a9cc9481f1d0990a0d60286</title>
<path fill="none" stroke="black" d="M222.12,-42C226.71,-42 231.31,-42 235.91,-42"/>
<polygon fill="black" stroke="black" points="235.97,-45.5 245.97,-42 235.97,-38.5 235.97,-45.5"/>
<g id="a_edge10&#45;headlabel"><a xlink:href="dir_000014_000032.xhtml" target="_top" xlink:title="4">
<text text-anchor="middle" x="232.37" y="-45.84" font-family="Helvetica,sans-Serif" font-size="10.00">4</text>
</a>
</g>
</g>
<!-- dir_8bc26130589aa16388b5a02f17abf2c2&#45;&gt;dir_1633709b037eda5b8477677909f78129 -->
<g id="edge3" class="edge">
<title>dir_8bc26130589aa16388b5a02f17abf2c2&#45;&gt;dir_1633709b037eda5b8477677909f78129</title>
<path fill="none" stroke="black" d="M246.46,-114C241.77,-114 237.09,-114 232.41,-114"/>
<polygon fill="black" stroke="black" points="232.16,-110.5 222.16,-114 232.16,-117.5 232.16,-110.5"/>
<g id="a_edge3&#45;headlabel"><a xlink:href="dir_000006_000002.xhtml" target="_top" xlink:title="24">
<text text-anchor="middle" x="235.75" y="-105.16" font-family="Helvetica,sans-Serif" font-size="10.00">24</text>
</a>
</g>
</g>
<!-- dir_8bc26130589aa16388b5a02f17abf2c2&#45;&gt;dir_7484b841a86f2d7fdd057c9b24fbf230 -->
<g id="edge5" class="edge">
<title>dir_8bc26130589aa16388b5a02f17abf2c2&#45;&gt;dir_7484b841a86f2d7fdd057c9b24fbf230</title>
<path fill="none" stroke="black" d="M267.31,-132.09C259.88,-149.22 246.09,-173.93 225,-185 199.62,-198.32 121.12,-198.82 96,-185 79.16,-175.74 67.74,-157.22 60.62,-141.42"/>
<polygon fill="black" stroke="black" points="63.79,-139.94 56.73,-132.04 57.33,-142.62 63.79,-139.94"/>
<g id="a_edge5&#45;headlabel"><a xlink:href="dir_000006_000008.xhtml" target="_top" xlink:title="3">
<text text-anchor="middle" x="67.79" y="-139.67" font-family="Helvetica,sans-Serif" font-size="10.00">3</text>
</a>
</g>
</g>
<!-- dir_8bc26130589aa16388b5a02f17abf2c2&#45;&gt;dir_a0d10d1f11f896cb40f799a595f5f383 -->
<g id="edge1" class="edge">
<title>dir_8bc26130589aa16388b5a02f17abf2c2&#45;&gt;dir_a0d10d1f11f896cb40f799a595f5f383</title>
<path fill="none" stroke="black" d="M246.46,-101.29C242.28,-99.52 238.03,-97.71 234,-96 209.11,-85.44 181.44,-73.7 158.46,-63.96"/>
<polygon fill="black" stroke="black" points="159.83,-60.74 149.25,-60.06 157.1,-67.18 159.83,-60.74"/>
<g id="a_edge1&#45;headlabel"><a xlink:href="dir_000006_000010.xhtml" target="_top" xlink:title="7">
<text text-anchor="middle" x="164.24" y="-57.03" font-family="Helvetica,sans-Serif" font-size="10.00">7</text>
</a>
</g>
</g>
<!-- dir_8bc26130589aa16388b5a02f17abf2c2&#45;&gt;dir_7b0825b7536eda12b63e5d87347b1c7d -->
<g id="edge2" class="edge">
<title>dir_8bc26130589aa16388b5a02f17abf2c2&#45;&gt;dir_7b0825b7536eda12b63e5d87347b1c7d</title>
<path fill="none" stroke="black" d="M260.39,-95.7C251.43,-86.97 239.5,-76.24 228.23,-66.75"/>
<polygon fill="black" stroke="black" points="230.14,-63.78 220.2,-60.1 225.67,-69.17 230.14,-63.78"/>
<g id="a_edge2&#45;headlabel"><a xlink:href="dir_000006_000014.xhtml" target="_top" xlink:title="4">
<text text-anchor="middle" x="234.71" y="-61.38" font-family="Helvetica,sans-Serif" font-size="10.00">4</text>
</a>
</g>
</g>
<!-- dir_8bc26130589aa16388b5a02f17abf2c2&#45;&gt;dir_5815af820a9cc9481f1d0990a0d60286 -->
<g id="edge4" class="edge">
<title>dir_8bc26130589aa16388b5a02f17abf2c2&#45;&gt;dir_5815af820a9cc9481f1d0990a0d60286</title>
<path fill="none" stroke="black" d="M273.75,-95.7C273.64,-87.98 273.51,-78.71 273.39,-70.11"/>
<polygon fill="black" stroke="black" points="276.89,-70.05 273.24,-60.1 269.89,-70.15 276.89,-70.05"/>
<g id="a_edge4&#45;headlabel"><a xlink:href="dir_000006_000032.xhtml" target="_top" xlink:title="5">
<text text-anchor="middle" x="279.78" y="-71.11" font-family="Helvetica,sans-Serif" font-size="10.00">5</text>
</a>
</g>
</g>
<!-- dir_5815af820a9cc9481f1d0990a0d60286&#45;&gt;dir_1fb090f0c6070330bfaccc4236d3ca0d -->
<g id="edge11" class="edge">
<title>dir_5815af820a9cc9481f1d0990a0d60286&#45;&gt;dir_1fb090f0c6070330bfaccc4236d3ca0d</title>
<path fill="none" stroke="black" d="M245.76,-59.18C224.48,-69.65 194.48,-83.59 168,-96 165.27,-97.28 162.43,-98.61 159.54,-99.95"/>
<polygon fill="black" stroke="black" points="157.94,-96.83 150.28,-104.16 160.84,-103.21 157.94,-96.83"/>
<g id="a_edge11&#45;headlabel"><a xlink:href="dir_000032_000001.xhtml" target="_top" xlink:title="6">
<text text-anchor="middle" x="160.04" y="-90.26" font-family="Helvetica,sans-Serif" font-size="10.00">6</text>
</a>
</g>
</g>
<!-- dir_5815af820a9cc9481f1d0990a0d60286&#45;&gt;dir_7b0825b7536eda12b63e5d87347b1c7d -->
<g id="edge12" class="edge">
<title>dir_5815af820a9cc9481f1d0990a0d60286&#45;&gt;dir_7b0825b7536eda12b63e5d87347b1c7d</title>
<path fill="none" stroke="black" d="M245.97,-42C241.37,-42 236.78,-42 232.18,-42"/>
<polygon fill="black" stroke="black" points="232.12,-38.5 222.12,-42 232.12,-45.5 232.12,-38.5"/>
<g id="a_edge12&#45;headlabel"><a xlink:href="dir_000032_000014.xhtml" target="_top" xlink:title="3">
<text text-anchor="middle" x="235.71" y="-33.16" font-family="Helvetica,sans-Serif" font-size="10.00">3</text>
</a>
</g>
</g>
</g>
</svg>
