<?xml version="1.0" encoding="UTF-8" standalone="no"?>
<!DOCTYPE svg PUBLIC "-//W3C//DTD SVG 1.1//EN"
 "http://www.w3.org/Graphics/SVG/1.1/DTD/svg11.dtd">
<!-- Generated by graphviz version 2.43.0 (0)
 -->
<!-- Title: src/dynamic_fusion/sketch/gpu/template_writer Pages: 1 -->
<svg width="302pt" height="328pt"
 viewBox="0.00 0.00 301.50 328.07" xmlns="http://www.w3.org/2000/svg" xmlns:xlink="http://www.w3.org/1999/xlink">
<g id="graph0" class="graph" transform="scale(1 1) rotate(0) translate(4 324.07)">
<title>src/dynamic_fusion/sketch/gpu/template_writer</title>
<polygon fill="white" stroke="transparent" points="-4,4 -4,-324.07 297.5,-324.07 297.5,4 -4,4"/>
<g id="clust1" class="cluster">
<title>clusterdir_df94d166e0e6f49d063cb29fea25a88b</title>
<g id="a_clust1"><a xlink:href="dir_df94d166e0e6f49d063cb29fea25a88b.xhtml" target="_top" xlink:title="gpu">
<polygon fill="#ddddee" stroke="black" points="8,-200 8,-287 208,-287 208,-200 8,-200"/>
<text text-anchor="middle" x="108" y="-275" font-family="Helvetica,sans-Serif" font-size="10.00">gpu</text>
</a>
</g>
</g>
<g id="clust2" class="cluster">
<title>clusterdir_09aab6a206c9d3717fe22866ebbc9576</title>
<g id="a_clust2"><a xlink:href="dir_09aab6a206c9d3717fe22866ebbc9576.xhtml" target="_top">
<polygon fill="#eeeeff" stroke="black" points="16,-208 16,-260 200,-260 200,-208 16,-208"/>
</a>
</g>
</g>
<!-- dir_09aab6a206c9d3717fe22866ebbc9576 -->
<g id="node1" class="node">
<title>dir_09aab6a206c9d3717fe22866ebbc9576</title>
<text text-anchor="middle" x="144" y="-231.5" font-family="Helvetica,sans-Serif" font-size="10.00">template_writer</text>
</g>
<!-- dir_5ce8562396c3432087c3cd3fcd451092 -->
<g id="node2" class="node">
<title>dir_5ce8562396c3432087c3cd3fcd451092</title>
<g id="a_node2"><a xlink:href="dir_5ce8562396c3432087c3cd3fcd451092.xhtml" target="_top" xlink:title="cl">
<polygon fill="white" stroke="black" points="78,-252 24,-252 24,-216 78,-216 78,-252"/>
<text text-anchor="middle" x="51" y="-231.5" font-family="Helvetica,sans-Serif" font-size="10.00">cl</text>
</a>
</g>
</g>
<!-- dir_2dfbec2966693e15f04cad1350ff3fc9 -->
<g id="node3" class="node">
<title>dir_2dfbec2966693e15f04cad1350ff3fc9</title>
<g id="a_node3"><a xlink:href="dir_2dfbec2966693e15f04cad1350ff3fc9.xhtml" target="_top" xlink:title="components">
<polygon fill="white" stroke="red" points="293.5,-252 216.5,-252 216.5,-216 293.5,-216 293.5,-252"/>
<text text-anchor="middle" x="255" y="-231.5" font-family="Helvetica,sans-Serif" font-size="10.00">components</text>
</a>
</g>
</g>
<!-- dir_5ce8562396c3432087c3cd3fcd451092&#45;&gt;dir_2dfbec2966693e15f04cad1350ff3fc9 -->
<g id="edge7" class="edge">
<title>dir_5ce8562396c3432087c3cd3fcd451092&#45;&gt;dir_2dfbec2966693e15f04cad1350ff3fc9</title>
<path fill="none" stroke="black" d="M56.73,-252.04C63.23,-269.14 75.67,-293.82 96,-305 134.55,-326.21 155.09,-323.53 195,-305 214.64,-295.88 230.17,-276.82 240.51,-260.75"/>
<polygon fill="black" stroke="black" points="243.5,-262.56 245.71,-252.2 237.52,-258.92 243.5,-262.56"/>
<g id="a_edge7&#45;headlabel"><a xlink:href="dir_000495_000026.xhtml" target="_top" xlink:title="14">
<text text-anchor="middle" x="244.06" y="-264.61" font-family="Helvetica,sans-Serif" font-size="10.00">14</text>
</a>
</g>
</g>
<!-- dir_214608ef36d61442cb2b0c1c4e9a7def -->
<g id="node4" class="node">
<title>dir_214608ef36d61442cb2b0c1c4e9a7def</title>
<g id="a_node4"><a xlink:href="dir_214608ef36d61442cb2b0c1c4e9a7def.xhtml" target="_top" xlink:title="arm_compute">
<polygon fill="white" stroke="red" points="163,-108 79,-108 79,-72 163,-72 163,-108"/>
<text text-anchor="middle" x="121" y="-87.5" font-family="Helvetica,sans-Serif" font-size="10.00">arm_compute</text>
</a>
</g>
</g>
<!-- dir_5ce8562396c3432087c3cd3fcd451092&#45;&gt;dir_214608ef36d61442cb2b0c1c4e9a7def -->
<g id="edge8" class="edge">
<title>dir_5ce8562396c3432087c3cd3fcd451092&#45;&gt;dir_214608ef36d61442cb2b0c1c4e9a7def</title>
<path fill="none" stroke="black" d="M59.44,-215.87C71.53,-191.35 93.87,-146.03 108.06,-117.26"/>
<polygon fill="black" stroke="black" points="111.24,-118.71 112.53,-108.19 104.97,-115.61 111.24,-118.71"/>
<g id="a_edge8&#45;headlabel"><a xlink:href="dir_000495_000000.xhtml" target="_top" xlink:title="15">
<text text-anchor="middle" x="112.2" y="-120.69" font-family="Helvetica,sans-Serif" font-size="10.00">15</text>
</a>
</g>
</g>
<!-- dir_aebb8dcc11953d78e620bbef0b9e2183 -->
<g id="node5" class="node">
<title>dir_aebb8dcc11953d78e620bbef0b9e2183</title>
<g id="a_node5"><a xlink:href="dir_aebb8dcc11953d78e620bbef0b9e2183.xhtml" target="_top" xlink:title="core">
<polygon fill="white" stroke="red" points="202,-180 148,-180 148,-144 202,-144 202,-180"/>
<text text-anchor="middle" x="175" y="-159.5" font-family="Helvetica,sans-Serif" font-size="10.00">core</text>
</a>
</g>
</g>
<!-- dir_5ce8562396c3432087c3cd3fcd451092&#45;&gt;dir_aebb8dcc11953d78e620bbef0b9e2183 -->
<g id="edge9" class="edge">
<title>dir_5ce8562396c3432087c3cd3fcd451092&#45;&gt;dir_aebb8dcc11953d78e620bbef0b9e2183</title>
<path fill="none" stroke="black" d="M67.22,-215.93C73.09,-210.37 80,-204.48 87,-200 102.71,-189.93 121.63,-181.56 137.9,-175.34"/>
<polygon fill="black" stroke="black" points="139.46,-178.49 147.63,-171.75 137.04,-171.93 139.46,-178.49"/>
<g id="a_edge9&#45;headlabel"><a xlink:href="dir_000495_000020.xhtml" target="_top" xlink:title="11">
<text text-anchor="middle" x="137.07" y="-179.9" font-family="Helvetica,sans-Serif" font-size="10.00">11</text>
</a>
</g>
</g>
<!-- dir_5815af820a9cc9481f1d0990a0d60286 -->
<g id="node6" class="node">
<title>dir_5815af820a9cc9481f1d0990a0d60286</title>
<g id="a_node6"><a xlink:href="dir_5815af820a9cc9481f1d0990a0d60286.xhtml" target="_top" xlink:title="support">
<polygon fill="none" stroke="black" points="148,-36 94,-36 94,0 148,0 148,-36"/>
<text text-anchor="middle" x="121" y="-15.5" font-family="Helvetica,sans-Serif" font-size="10.00">support</text>
</a>
</g>
</g>
<!-- dir_5ce8562396c3432087c3cd3fcd451092&#45;&gt;dir_5815af820a9cc9481f1d0990a0d60286 -->
<g id="edge10" class="edge">
<title>dir_5ce8562396c3432087c3cd3fcd451092&#45;&gt;dir_5815af820a9cc9481f1d0990a0d60286</title>
<path fill="none" stroke="black" d="M49.55,-215.57C47.74,-184.92 47.25,-120.09 70,-72 75.11,-61.2 83.3,-51.21 91.63,-42.89"/>
<polygon fill="black" stroke="black" points="94.04,-45.42 98.92,-36.02 89.24,-40.33 94.04,-45.42"/>
<g id="a_edge10&#45;headlabel"><a xlink:href="dir_000495_000032.xhtml" target="_top" xlink:title="6">
<text text-anchor="middle" x="93.37" y="-47.46" font-family="Helvetica,sans-Serif" font-size="10.00">6</text>
</a>
</g>
</g>
<!-- dir_2dfbec2966693e15f04cad1350ff3fc9&#45;&gt;dir_5ce8562396c3432087c3cd3fcd451092 -->
<g id="edge3" class="edge">
<title>dir_2dfbec2966693e15f04cad1350ff3fc9&#45;&gt;dir_5ce8562396c3432087c3cd3fcd451092</title>
<path fill="none" stroke="black" d="M245.71,-252.2C235.78,-269.42 218.27,-294.2 195,-305 155.09,-323.53 134.55,-326.21 96,-305 79.16,-295.74 67.74,-277.22 60.62,-261.42"/>
<polygon fill="black" stroke="black" points="63.79,-259.94 56.73,-252.04 57.33,-262.62 63.79,-259.94"/>
<g id="a_edge3&#45;headlabel"><a xlink:href="dir_000026_000495.xhtml" target="_top" xlink:title="12">
<text text-anchor="middle" x="67.79" y="-259.67" font-family="Helvetica,sans-Serif" font-size="10.00">12</text>
</a>
</g>
</g>
<!-- dir_2dfbec2966693e15f04cad1350ff3fc9&#45;&gt;dir_214608ef36d61442cb2b0c1c4e9a7def -->
<g id="edge1" class="edge">
<title>dir_2dfbec2966693e15f04cad1350ff3fc9&#45;&gt;dir_214608ef36d61442cb2b0c1c4e9a7def</title>
<path fill="none" stroke="black" d="M249.85,-215.85C243.35,-196.53 230.6,-165.08 211,-144 199.45,-131.57 184.32,-121.15 169.76,-112.92"/>
<polygon fill="black" stroke="black" points="171.28,-109.76 160.82,-108.09 167.95,-115.92 171.28,-109.76"/>
<g id="a_edge1&#45;headlabel"><a xlink:href="dir_000026_000000.xhtml" target="_top" xlink:title="33">
<text text-anchor="middle" x="175.79" y="-106.47" font-family="Helvetica,sans-Serif" font-size="10.00">33</text>
</a>
</g>
</g>
<!-- dir_2dfbec2966693e15f04cad1350ff3fc9&#45;&gt;dir_aebb8dcc11953d78e620bbef0b9e2183 -->
<g id="edge2" class="edge">
<title>dir_2dfbec2966693e15f04cad1350ff3fc9&#45;&gt;dir_aebb8dcc11953d78e620bbef0b9e2183</title>
<path fill="none" stroke="black" d="M235.22,-215.7C225.25,-206.97 212.99,-196.24 202.14,-186.75"/>
<polygon fill="black" stroke="black" points="204.38,-184.06 194.55,-180.1 199.77,-189.32 204.38,-184.06"/>
<g id="a_edge2&#45;headlabel"><a xlink:href="dir_000026_000020.xhtml" target="_top" xlink:title="11">
<text text-anchor="middle" x="208.95" y="-181.79" font-family="Helvetica,sans-Serif" font-size="10.00">11</text>
</a>
</g>
</g>
<!-- dir_214608ef36d61442cb2b0c1c4e9a7def&#45;&gt;dir_5815af820a9cc9481f1d0990a0d60286 -->
<g id="edge4" class="edge">
<title>dir_214608ef36d61442cb2b0c1c4e9a7def&#45;&gt;dir_5815af820a9cc9481f1d0990a0d60286</title>
<path fill="none" stroke="black" d="M115.08,-71.7C114.29,-63.98 114.06,-54.71 114.4,-46.11"/>
<polygon fill="black" stroke="black" points="117.9,-46.32 115.1,-36.1 110.92,-45.84 117.9,-46.32"/>
<g id="a_edge4&#45;headlabel"><a xlink:href="dir_000000_000032.xhtml" target="_top" xlink:title="18">
<text text-anchor="middle" x="120.48" y="-47.61" font-family="Helvetica,sans-Serif" font-size="10.00">18</text>
</a>
</g>
</g>
<!-- dir_aebb8dcc11953d78e620bbef0b9e2183&#45;&gt;dir_214608ef36d61442cb2b0c1c4e9a7def -->
<g id="edge5" class="edge">
<title>dir_aebb8dcc11953d78e620bbef0b9e2183&#45;&gt;dir_214608ef36d61442cb2b0c1c4e9a7def</title>
<path fill="none" stroke="black" d="M161.65,-143.7C155.24,-135.39 147.44,-125.28 140.39,-116.14"/>
<polygon fill="black" stroke="black" points="143.07,-113.88 134.19,-108.1 137.53,-118.16 143.07,-113.88"/>
<g id="a_edge5&#45;headlabel"><a xlink:href="dir_000020_000000.xhtml" target="_top" xlink:title="609">
<text text-anchor="middle" x="147.52" y="-112.5" font-family="Helvetica,sans-Serif" font-size="10.00">609</text>
</a>
</g>
</g>
<!-- dir_aebb8dcc11953d78e620bbef0b9e2183&#45;&gt;dir_5815af820a9cc9481f1d0990a0d60286 -->
<g id="edge6" class="edge">
<title>dir_aebb8dcc11953d78e620bbef0b9e2183&#45;&gt;dir_5815af820a9cc9481f1d0990a0d60286</title>
<path fill="none" stroke="black" d="M177.94,-143.83C180.33,-125.31 181.87,-95.35 172,-72 167.43,-61.19 159.57,-51.32 151.38,-43.1"/>
<polygon fill="black" stroke="black" points="153.53,-40.31 143.84,-36.03 148.74,-45.42 153.53,-40.31"/>
<g id="a_edge6&#45;headlabel"><a xlink:href="dir_000020_000032.xhtml" target="_top" xlink:title="56">
<text text-anchor="middle" x="158.09" y="-38.2" font-family="Helvetica,sans-Serif" font-size="10.00">56</text>
</a>
</g>
</g>
<!-- dir_5815af820a9cc9481f1d0990a0d60286&#45;&gt;dir_214608ef36d61442cb2b0c1c4e9a7def -->
<g id="edge11" class="edge">
<title>dir_5815af820a9cc9481f1d0990a0d60286&#45;&gt;dir_214608ef36d61442cb2b0c1c4e9a7def</title>
<path fill="none" stroke="black" d="M126.9,-36.1C127.7,-43.79 127.94,-53.05 127.6,-61.67"/>
<polygon fill="black" stroke="black" points="124.11,-61.48 126.92,-71.7 131.09,-61.96 124.11,-61.48"/>
<g id="a_edge11&#45;headlabel"><a xlink:href="dir_000032_000000.xhtml" target="_top" xlink:title="6">
<text text-anchor="middle" x="121.52" y="-55.2" font-family="Helvetica,sans-Serif" font-size="10.00">6</text>
</a>
</g>
</g>
</g>
</svg>
