<?xml version="1.0" encoding="UTF-8" standalone="no"?>
<!DOCTYPE svg PUBLIC "-//W3C//DTD SVG 1.1//EN"
 "http://www.w3.org/Graphics/SVG/1.1/DTD/svg11.dtd">
<!-- Generated by graphviz version 2.43.0 (0)
 -->
<!-- Title: src/core/NEON/kernels/arm_conv/depthwise/interleaves Pages: 1 -->
<svg width="125pt" height="223pt"
 viewBox="0.00 0.00 124.50 223.00" xmlns="http://www.w3.org/2000/svg" xmlns:xlink="http://www.w3.org/1999/xlink">
<g id="graph0" class="graph" transform="scale(1 1) rotate(0) translate(4 219)">
<title>src/core/NEON/kernels/arm_conv/depthwise/interleaves</title>
<polygon fill="white" stroke="transparent" points="-4,4 -4,-219 120.5,-219 120.5,4 -4,4"/>
<g id="clust1" class="cluster">
<title>clusterdir_abb214ad2a926c78a0f27cabc6cb4a00</title>
<g id="a_clust1"><a xlink:href="dir_abb214ad2a926c78a0f27cabc6cb4a00.xhtml" target="_top" xlink:title="depthwise">
<polygon fill="#ddddee" stroke="black" points="20.5,-136 20.5,-207 108.5,-207 108.5,-136 20.5,-136"/>
<text text-anchor="middle" x="64.5" y="-195" font-family="Helvetica,sans-Serif" font-size="10.00">depthwise</text>
</a>
</g>
</g>
<!-- dir_b7f97eccce2eea27364902fe679cf4c6 -->
<g id="node1" class="node">
<title>dir_b7f97eccce2eea27364902fe679cf4c6</title>
<g id="a_node1"><a xlink:href="dir_b7f97eccce2eea27364902fe679cf4c6.xhtml" target="_top" xlink:title="interleaves">
<polygon fill="#eeeeff" stroke="black" points="100,-180 29,-180 29,-144 100,-144 100,-180"/>
<text text-anchor="middle" x="64.5" y="-159.5" font-family="Helvetica,sans-Serif" font-size="10.00">interleaves</text>
</a>
</g>
</g>
<!-- dir_2c61f424fd391396db977702a2beee9a -->
<g id="node2" class="node">
<title>dir_2c61f424fd391396db977702a2beee9a</title>
<g id="a_node2"><a xlink:href="dir_2c61f424fd391396db977702a2beee9a.xhtml" target="_top" xlink:title="cpu">
<polygon fill="white" stroke="red" points="63.5,-108 9.5,-108 9.5,-72 63.5,-72 63.5,-108"/>
<text text-anchor="middle" x="36.5" y="-87.5" font-family="Helvetica,sans-Serif" font-size="10.00">cpu</text>
</a>
</g>
</g>
<!-- dir_b7f97eccce2eea27364902fe679cf4c6&#45;&gt;dir_2c61f424fd391396db977702a2beee9a -->
<g id="edge1" class="edge">
<title>dir_b7f97eccce2eea27364902fe679cf4c6&#45;&gt;dir_2c61f424fd391396db977702a2beee9a</title>
<path fill="none" stroke="black" d="M57.58,-143.7C54.43,-135.81 50.62,-126.3 47.12,-117.55"/>
<polygon fill="black" stroke="black" points="50.31,-116.09 43.34,-108.1 43.81,-118.69 50.31,-116.09"/>
<g id="a_edge1&#45;headlabel"><a xlink:href="dir_000105_000373.xhtml" target="_top" xlink:title="1">
<text text-anchor="middle" x="54.28" y="-115.87" font-family="Helvetica,sans-Serif" font-size="10.00">1</text>
</a>
</g>
</g>
<!-- dir_9847dd9cb7a28e46201717fa7336cf62 -->
<g id="node3" class="node">
<title>dir_9847dd9cb7a28e46201717fa7336cf62</title>
<g id="a_node3"><a xlink:href="dir_9847dd9cb7a28e46201717fa7336cf62.xhtml" target="_top" xlink:title="arm_gemm">
<polygon fill="white" stroke="red" points="73,-36 0,-36 0,0 73,0 73,-36"/>
<text text-anchor="middle" x="36.5" y="-15.5" font-family="Helvetica,sans-Serif" font-size="10.00">arm_gemm</text>
</a>
</g>
</g>
<!-- dir_b7f97eccce2eea27364902fe679cf4c6&#45;&gt;dir_9847dd9cb7a28e46201717fa7336cf62 -->
<g id="edge2" class="edge">
<title>dir_b7f97eccce2eea27364902fe679cf4c6&#45;&gt;dir_9847dd9cb7a28e46201717fa7336cf62</title>
<path fill="none" stroke="black" d="M69.84,-143.87C74.66,-125.64 79.93,-96.17 72.5,-72 69.49,-62.22 63.99,-52.62 58.18,-44.33"/>
<polygon fill="black" stroke="black" points="60.91,-42.13 52.11,-36.23 55.31,-46.33 60.91,-42.13"/>
<g id="a_edge2&#45;headlabel"><a xlink:href="dir_000105_000234.xhtml" target="_top" xlink:title="2">
<text text-anchor="middle" x="65.33" y="-40.8" font-family="Helvetica,sans-Serif" font-size="10.00">2</text>
</a>
</g>
</g>
<!-- dir_2c61f424fd391396db977702a2beee9a&#45;&gt;dir_9847dd9cb7a28e46201717fa7336cf62 -->
<g id="edge3" class="edge">
<title>dir_2c61f424fd391396db977702a2beee9a&#45;&gt;dir_9847dd9cb7a28e46201717fa7336cf62</title>
<path fill="none" stroke="black" d="M30.58,-71.7C29.79,-63.98 29.56,-54.71 29.9,-46.11"/>
<polygon fill="black" stroke="black" points="33.4,-46.32 30.6,-36.1 26.42,-45.84 33.4,-46.32"/>
<g id="a_edge3&#45;headlabel"><a xlink:href="dir_000373_000234.xhtml" target="_top" xlink:title="1">
<text text-anchor="middle" x="35.98" y="-47.61" font-family="Helvetica,sans-Serif" font-size="10.00">1</text>
</a>
</g>
</g>
<!-- dir_9847dd9cb7a28e46201717fa7336cf62&#45;&gt;dir_2c61f424fd391396db977702a2beee9a -->
<g id="edge4" class="edge">
<title>dir_9847dd9cb7a28e46201717fa7336cf62&#45;&gt;dir_2c61f424fd391396db977702a2beee9a</title>
<path fill="none" stroke="black" d="M42.4,-36.1C43.2,-43.79 43.44,-53.05 43.1,-61.67"/>
<polygon fill="black" stroke="black" points="39.61,-61.48 42.42,-71.7 46.59,-61.96 39.61,-61.48"/>
<g id="a_edge4&#45;headlabel"><a xlink:href="dir_000234_000373.xhtml" target="_top" xlink:title="28">
<text text-anchor="middle" x="37.02" y="-55.2" font-family="Helvetica,sans-Serif" font-size="10.00">28</text>
</a>
</g>
</g>
</g>
</svg>
