<?xml version="1.0" encoding="UTF-8" standalone="no"?>
<!DOCTYPE svg PUBLIC "-//W3C//DTD SVG 1.1//EN"
 "http://www.w3.org/Graphics/SVG/1.1/DTD/svg11.dtd">
<!-- Generated by graphviz version 2.43.0 (0)
 -->
<!-- Title: arm_compute/runtime/CL Pages: 1 -->
<svg width="250pt" height="375pt"
 viewBox="0.00 0.00 249.64 375.00" xmlns="http://www.w3.org/2000/svg" xmlns:xlink="http://www.w3.org/1999/xlink">
<g id="graph0" class="graph" transform="scale(1 1) rotate(0) translate(4 371)">
<title>arm_compute/runtime/CL</title>
<polygon fill="white" stroke="transparent" points="-4,4 -4,-371 245.64,-371 245.64,4 -4,4"/>
<g id="clust1" class="cluster">
<title>clusterdir_8bc26130589aa16388b5a02f17abf2c2</title>
<g id="a_clust1"><a xlink:href="dir_8bc26130589aa16388b5a02f17abf2c2.xhtml" target="_top" xlink:title="runtime">
<polygon fill="#ddddee" stroke="black" points="62,-200 62,-359 220,-359 220,-200 62,-200"/>
<text text-anchor="middle" x="141" y="-347" font-family="Helvetica,sans-Serif" font-size="10.00">runtime</text>
</a>
</g>
</g>
<g id="clust2" class="cluster">
<title>clusterdir_b986aa98f9b6490bb4fc7918500346fb</title>
<g id="a_clust2"><a xlink:href="dir_b986aa98f9b6490bb4fc7918500346fb.xhtml" target="_top">
<polygon fill="#eeeeff" stroke="black" points="70,-208 70,-332 212,-332 212,-208 70,-208"/>
</a>
</g>
</g>
<!-- dir_b986aa98f9b6490bb4fc7918500346fb -->
<g id="node1" class="node">
<title>dir_b986aa98f9b6490bb4fc7918500346fb</title>
<text text-anchor="middle" x="105" y="-303.5" font-family="Helvetica,sans-Serif" font-size="10.00">CL</text>
</g>
<!-- dir_251c63bc3f70b60acf43edd6d870a3ef -->
<g id="node2" class="node">
<title>dir_251c63bc3f70b60acf43edd6d870a3ef</title>
<g id="a_node2"><a xlink:href="dir_251c63bc3f70b60acf43edd6d870a3ef.xhtml" target="_top" xlink:title="functions">
<polygon fill="white" stroke="black" points="140,-252 78,-252 78,-216 140,-216 140,-252"/>
<text text-anchor="middle" x="109" y="-231.5" font-family="Helvetica,sans-Serif" font-size="10.00">functions</text>
</a>
</g>
</g>
<!-- dir_b986aa98f9b6490bb4fc7918500346fb&#45;&gt;dir_251c63bc3f70b60acf43edd6d870a3ef -->
<g id="edge13" class="edge">
<title>dir_b986aa98f9b6490bb4fc7918500346fb&#45;&gt;dir_251c63bc3f70b60acf43edd6d870a3ef</title>
<path fill="none" stroke="black" d="M105.99,-287.7C106.43,-279.98 106.96,-270.71 107.45,-262.11"/>
<polygon fill="black" stroke="black" points="110.95,-262.29 108.02,-252.1 103.96,-261.89 110.95,-262.29"/>
<g id="a_edge13&#45;headlabel"><a xlink:href="dir_000007_000067.xhtml" target="_top" xlink:title="88">
<text text-anchor="middle" x="113.58" y="-263.54" font-family="Helvetica,sans-Serif" font-size="10.00">88</text>
</a>
</g>
</g>
<!-- dir_1fb090f0c6070330bfaccc4236d3ca0d -->
<g id="node5" class="node">
<title>dir_1fb090f0c6070330bfaccc4236d3ca0d</title>
<g id="a_node5"><a xlink:href="dir_1fb090f0c6070330bfaccc4236d3ca0d.xhtml" target="_top" xlink:title="core">
<polygon fill="white" stroke="red" points="184,-180 130,-180 130,-144 184,-144 184,-180"/>
<text text-anchor="middle" x="157" y="-159.5" font-family="Helvetica,sans-Serif" font-size="10.00">core</text>
</a>
</g>
</g>
<!-- dir_b986aa98f9b6490bb4fc7918500346fb&#45;&gt;dir_1fb090f0c6070330bfaccc4236d3ca0d -->
<g id="edge14" class="edge">
<title>dir_b986aa98f9b6490bb4fc7918500346fb&#45;&gt;dir_1fb090f0c6070330bfaccc4236d3ca0d</title>
<path fill="none" stroke="black" d="M123.97,-287.72C133.18,-278.16 143.44,-265.49 149,-252 157.07,-232.43 158.81,-208.44 158.68,-190.3"/>
<polygon fill="black" stroke="black" points="162.17,-190.01 158.4,-180.11 155.17,-190.2 162.17,-190.01"/>
<g id="a_edge14&#45;headlabel"><a xlink:href="dir_000007_000001.xhtml" target="_top" xlink:title="106">
<text text-anchor="middle" x="165.11" y="-191.03" font-family="Helvetica,sans-Serif" font-size="10.00">106</text>
</a>
</g>
</g>
<!-- dir_5815af820a9cc9481f1d0990a0d60286 -->
<g id="node6" class="node">
<title>dir_5815af820a9cc9481f1d0990a0d60286</title>
<g id="a_node6"><a xlink:href="dir_5815af820a9cc9481f1d0990a0d60286.xhtml" target="_top" xlink:title="support">
<polygon fill="none" stroke="black" points="196,-36 142,-36 142,0 196,0 196,-36"/>
<text text-anchor="middle" x="169" y="-15.5" font-family="Helvetica,sans-Serif" font-size="10.00">support</text>
</a>
</g>
</g>
<!-- dir_b986aa98f9b6490bb4fc7918500346fb&#45;&gt;dir_5815af820a9cc9481f1d0990a0d60286 -->
<g id="edge15" class="edge">
<title>dir_b986aa98f9b6490bb4fc7918500346fb&#45;&gt;dir_5815af820a9cc9481f1d0990a0d60286</title>
<path fill="none" stroke="black" d="M131.22,-287.98C143.83,-278.66 158.28,-266.13 168,-252 187.2,-224.1 187.37,-213.4 193,-180 201,-132.57 195.73,-119.11 186,-72 184.22,-63.39 181.56,-54.2 178.87,-45.94"/>
<polygon fill="black" stroke="black" points="182.16,-44.75 175.62,-36.42 175.53,-47.01 182.16,-44.75"/>
<g id="a_edge15&#45;headlabel"><a xlink:href="dir_000007_000032.xhtml" target="_top" xlink:title="2">
<text text-anchor="middle" x="186.01" y="-44.74" font-family="Helvetica,sans-Serif" font-size="10.00">2</text>
</a>
</g>
</g>
<!-- dir_b496024afd63bafbf4e8da80d7d3a81a -->
<g id="node4" class="node">
<title>dir_b496024afd63bafbf4e8da80d7d3a81a</title>
<g id="a_node4"><a xlink:href="dir_b496024afd63bafbf4e8da80d7d3a81a.xhtml" target="_top" xlink:title="CPP">
<polygon fill="white" stroke="red" points="54,-108 0,-108 0,-72 54,-72 54,-108"/>
<text text-anchor="middle" x="27" y="-87.5" font-family="Helvetica,sans-Serif" font-size="10.00">CPP</text>
</a>
</g>
</g>
<!-- dir_251c63bc3f70b60acf43edd6d870a3ef&#45;&gt;dir_b496024afd63bafbf4e8da80d7d3a81a -->
<g id="edge1" class="edge">
<title>dir_251c63bc3f70b60acf43edd6d870a3ef&#45;&gt;dir_b496024afd63bafbf4e8da80d7d3a81a</title>
<path fill="none" stroke="black" d="M99.11,-215.87C84.89,-191.24 58.55,-145.64 41.95,-116.88"/>
<polygon fill="black" stroke="black" points="44.96,-115.1 36.93,-108.19 38.9,-118.6 44.96,-115.1"/>
<g id="a_edge1&#45;headlabel"><a xlink:href="dir_000067_000071.xhtml" target="_top" xlink:title="3">
<text text-anchor="middle" x="49.21" y="-114.29" font-family="Helvetica,sans-Serif" font-size="10.00">3</text>
</a>
</g>
</g>
<!-- dir_251c63bc3f70b60acf43edd6d870a3ef&#45;&gt;dir_1fb090f0c6070330bfaccc4236d3ca0d -->
<g id="edge2" class="edge">
<title>dir_251c63bc3f70b60acf43edd6d870a3ef&#45;&gt;dir_1fb090f0c6070330bfaccc4236d3ca0d</title>
<path fill="none" stroke="black" d="M120.87,-215.7C126.5,-207.47 133.35,-197.48 139.57,-188.42"/>
<polygon fill="black" stroke="black" points="142.5,-190.33 145.27,-180.1 136.73,-186.37 142.5,-190.33"/>
<g id="a_edge2&#45;headlabel"><a xlink:href="dir_000067_000001.xhtml" target="_top" xlink:title="73">
<text text-anchor="middle" x="142.81" y="-192.4" font-family="Helvetica,sans-Serif" font-size="10.00">73</text>
</a>
</g>
</g>
<!-- dir_b9621ae687ab229876c54f8c2df20e15 -->
<g id="node7" class="node">
<title>dir_b9621ae687ab229876c54f8c2df20e15</title>
<g id="a_node7"><a xlink:href="dir_b9621ae687ab229876c54f8c2df20e15.xhtml" target="_top" xlink:title="common">
<polygon fill="none" stroke="black" points="131.5,-108 72.5,-108 72.5,-72 131.5,-72 131.5,-108"/>
<text text-anchor="middle" x="102" y="-87.5" font-family="Helvetica,sans-Serif" font-size="10.00">common</text>
</a>
</g>
</g>
<!-- dir_251c63bc3f70b60acf43edd6d870a3ef&#45;&gt;dir_b9621ae687ab229876c54f8c2df20e15 -->
<g id="edge3" class="edge">
<title>dir_251c63bc3f70b60acf43edd6d870a3ef&#45;&gt;dir_b9621ae687ab229876c54f8c2df20e15</title>
<path fill="none" stroke="black" d="M108.16,-215.87C106.96,-191.67 104.77,-147.21 103.35,-118.39"/>
<polygon fill="black" stroke="black" points="106.84,-118 102.85,-108.19 99.84,-118.35 106.84,-118"/>
<g id="a_edge3&#45;headlabel"><a xlink:href="dir_000067_000070.xhtml" target="_top" xlink:title="3">
<text text-anchor="middle" x="109.85" y="-118.96" font-family="Helvetica,sans-Serif" font-size="10.00">3</text>
</a>
</g>
</g>
<!-- dir_50b23570393db6a4ca8647d7d5ff6dbe -->
<g id="node3" class="node">
<title>dir_50b23570393db6a4ca8647d7d5ff6dbe</title>
<g id="a_node3"><a xlink:href="dir_50b23570393db6a4ca8647d7d5ff6dbe.xhtml" target="_top" xlink:title="tuners">
<polygon fill="white" stroke="black" points="204,-324 150,-324 150,-288 204,-288 204,-324"/>
<text text-anchor="middle" x="177" y="-303.5" font-family="Helvetica,sans-Serif" font-size="10.00">tuners</text>
</a>
</g>
</g>
<!-- dir_50b23570393db6a4ca8647d7d5ff6dbe&#45;&gt;dir_1fb090f0c6070330bfaccc4236d3ca0d -->
<g id="edge6" class="edge">
<title>dir_50b23570393db6a4ca8647d7d5ff6dbe&#45;&gt;dir_1fb090f0c6070330bfaccc4236d3ca0d</title>
<path fill="none" stroke="black" d="M181.31,-287.83C185.84,-266.66 191.14,-229.84 182,-200 180.83,-196.19 179.13,-192.42 177.15,-188.82"/>
<polygon fill="black" stroke="black" points="180.09,-186.93 171.8,-180.33 174.16,-190.65 180.09,-186.93"/>
<g id="a_edge6&#45;headlabel"><a xlink:href="dir_000069_000001.xhtml" target="_top" xlink:title="3">
<text text-anchor="middle" x="184.41" y="-185.96" font-family="Helvetica,sans-Serif" font-size="10.00">3</text>
</a>
</g>
</g>
<!-- dir_50b23570393db6a4ca8647d7d5ff6dbe&#45;&gt;dir_5815af820a9cc9481f1d0990a0d60286 -->
<g id="edge7" class="edge">
<title>dir_50b23570393db6a4ca8647d7d5ff6dbe&#45;&gt;dir_5815af820a9cc9481f1d0990a0d60286</title>
<path fill="none" stroke="black" d="M188.08,-287.86C212.19,-248.24 264.59,-147.87 230,-72 224.44,-59.81 214.55,-49.34 204.32,-41.01"/>
<polygon fill="black" stroke="black" points="206.21,-38.04 196.12,-34.79 201.97,-43.62 206.21,-38.04"/>
<g id="a_edge7&#45;headlabel"><a xlink:href="dir_000069_000032.xhtml" target="_top" xlink:title="1">
<text text-anchor="middle" x="210.79" y="-35.46" font-family="Helvetica,sans-Serif" font-size="10.00">1</text>
</a>
</g>
</g>
<!-- dir_b496024afd63bafbf4e8da80d7d3a81a&#45;&gt;dir_1fb090f0c6070330bfaccc4236d3ca0d -->
<g id="edge4" class="edge">
<title>dir_b496024afd63bafbf4e8da80d7d3a81a&#45;&gt;dir_1fb090f0c6070330bfaccc4236d3ca0d</title>
<path fill="none" stroke="black" d="M54.33,-102.9C74.18,-112.75 101.01,-127 122.33,-138.93"/>
<polygon fill="black" stroke="black" points="120.67,-142.01 131.1,-143.88 124.11,-135.91 120.67,-142.01"/>
<g id="a_edge4&#45;headlabel"><a xlink:href="dir_000071_000001.xhtml" target="_top" xlink:title="15">
<text text-anchor="middle" x="116.14" y="-140.21" font-family="Helvetica,sans-Serif" font-size="10.00">15</text>
</a>
</g>
</g>
<!-- dir_b496024afd63bafbf4e8da80d7d3a81a&#45;&gt;dir_5815af820a9cc9481f1d0990a0d60286 -->
<g id="edge5" class="edge">
<title>dir_b496024afd63bafbf4e8da80d7d3a81a&#45;&gt;dir_5815af820a9cc9481f1d0990a0d60286</title>
<path fill="none" stroke="black" d="M54.04,-75.67C76.31,-64.69 108.07,-49.03 132.57,-36.96"/>
<polygon fill="black" stroke="black" points="134.15,-40.08 141.57,-32.52 131.06,-33.8 134.15,-40.08"/>
<g id="a_edge5&#45;headlabel"><a xlink:href="dir_000071_000032.xhtml" target="_top" xlink:title="1">
<text text-anchor="middle" x="132.18" y="-41.72" font-family="Helvetica,sans-Serif" font-size="10.00">1</text>
</a>
</g>
</g>
<!-- dir_1fb090f0c6070330bfaccc4236d3ca0d&#45;&gt;dir_b496024afd63bafbf4e8da80d7d3a81a -->
<g id="edge8" class="edge">
<title>dir_1fb090f0c6070330bfaccc4236d3ca0d&#45;&gt;dir_b496024afd63bafbf4e8da80d7d3a81a</title>
<path fill="none" stroke="black" d="M129.73,-149.13C109.92,-139.3 83.11,-125.06 61.79,-113.14"/>
<polygon fill="black" stroke="black" points="63.45,-110.06 53.02,-108.19 60.01,-116.15 63.45,-110.06"/>
<g id="a_edge8&#45;headlabel"><a xlink:href="dir_000001_000071.xhtml" target="_top" xlink:title="1">
<text text-anchor="middle" x="67.98" y="-106.85" font-family="Helvetica,sans-Serif" font-size="10.00">1</text>
</a>
</g>
</g>
<!-- dir_1fb090f0c6070330bfaccc4236d3ca0d&#45;&gt;dir_5815af820a9cc9481f1d0990a0d60286 -->
<g id="edge9" class="edge">
<title>dir_1fb090f0c6070330bfaccc4236d3ca0d&#45;&gt;dir_5815af820a9cc9481f1d0990a0d60286</title>
<path fill="none" stroke="black" d="M153.86,-143.87C153.35,-119.67 156.82,-75.21 161.23,-46.39"/>
<polygon fill="black" stroke="black" points="164.74,-46.63 162.96,-36.19 157.83,-45.46 164.74,-46.63"/>
<g id="a_edge9&#45;headlabel"><a xlink:href="dir_000001_000032.xhtml" target="_top" xlink:title="9">
<text text-anchor="middle" x="166.93" y="-48.15" font-family="Helvetica,sans-Serif" font-size="10.00">9</text>
</a>
</g>
</g>
<!-- dir_1fb090f0c6070330bfaccc4236d3ca0d&#45;&gt;dir_b9621ae687ab229876c54f8c2df20e15 -->
<g id="edge10" class="edge">
<title>dir_1fb090f0c6070330bfaccc4236d3ca0d&#45;&gt;dir_b9621ae687ab229876c54f8c2df20e15</title>
<path fill="none" stroke="black" d="M137.49,-143.7C130.18,-135.47 122.13,-125.48 115.45,-116.42"/>
<polygon fill="black" stroke="black" points="118.19,-114.23 109.54,-108.1 112.48,-118.28 118.19,-114.23"/>
<g id="a_edge10&#45;headlabel"><a xlink:href="dir_000001_000070.xhtml" target="_top" xlink:title="1">
<text text-anchor="middle" x="122.59" y="-113.01" font-family="Helvetica,sans-Serif" font-size="10.00">1</text>
</a>
</g>
</g>
<!-- dir_5815af820a9cc9481f1d0990a0d60286&#45;&gt;dir_1fb090f0c6070330bfaccc4236d3ca0d -->
<g id="edge11" class="edge">
<title>dir_5815af820a9cc9481f1d0990a0d60286&#45;&gt;dir_1fb090f0c6070330bfaccc4236d3ca0d</title>
<path fill="none" stroke="black" d="M172.14,-36.19C172.64,-60.42 169.18,-104.89 164.76,-133.68"/>
<polygon fill="black" stroke="black" points="161.26,-133.43 163.03,-143.87 168.16,-134.6 161.26,-133.43"/>
<g id="a_edge11&#45;headlabel"><a xlink:href="dir_000032_000001.xhtml" target="_top" xlink:title="6">
<text text-anchor="middle" x="159.06" y="-126.91" font-family="Helvetica,sans-Serif" font-size="10.00">6</text>
</a>
</g>
</g>
<!-- dir_b9621ae687ab229876c54f8c2df20e15&#45;&gt;dir_1fb090f0c6070330bfaccc4236d3ca0d -->
<g id="edge12" class="edge">
<title>dir_b9621ae687ab229876c54f8c2df20e15&#45;&gt;dir_1fb090f0c6070330bfaccc4236d3ca0d</title>
<path fill="none" stroke="black" d="M121.33,-108.1C128.63,-116.3 136.69,-126.28 143.38,-135.36"/>
<polygon fill="black" stroke="black" points="140.67,-137.58 149.32,-143.7 146.37,-133.52 140.67,-137.58"/>
<g id="a_edge12&#45;headlabel"><a xlink:href="dir_000070_000001.xhtml" target="_top" xlink:title="1">
<text text-anchor="middle" x="136.27" y="-133.8" font-family="Helvetica,sans-Serif" font-size="10.00">1</text>
</a>
</g>
</g>
</g>
</svg>
