<?xml version="1.0" encoding="UTF-8" standalone="no"?>
<!DOCTYPE svg PUBLIC "-//W3C//DTD SVG 1.1//EN"
 "http://www.w3.org/Graphics/SVG/1.1/DTD/svg11.dtd">
<!-- Generated by graphviz version 2.43.0 (0)
 -->
<!-- Title: arm_compute/runtime/NEON Pages: 1 -->
<svg width="145pt" height="375pt"
 viewBox="0.00 0.00 145.00 375.00" xmlns="http://www.w3.org/2000/svg" xmlns:xlink="http://www.w3.org/1999/xlink">
<g id="graph0" class="graph" transform="scale(1 1) rotate(0) translate(4 371)">
<title>arm_compute/runtime/NEON</title>
<polygon fill="white" stroke="transparent" points="-4,4 -4,-371 141,-371 141,4 -4,4"/>
<g id="clust1" class="cluster">
<title>clusterdir_8bc26130589aa16388b5a02f17abf2c2</title>
<g id="a_clust1"><a xlink:href="dir_8bc26130589aa16388b5a02f17abf2c2.xhtml" target="_top" xlink:title="runtime">
<polygon fill="#ddddee" stroke="black" points="35,-200 35,-359 129,-359 129,-200 35,-200"/>
<text text-anchor="middle" x="82" y="-347" font-family="Helvetica,sans-Serif" font-size="10.00">runtime</text>
</a>
</g>
</g>
<g id="clust2" class="cluster">
<title>clusterdir_65e289039e1347f87d412b0a1b1a312c</title>
<g id="a_clust2"><a xlink:href="dir_65e289039e1347f87d412b0a1b1a312c.xhtml" target="_top">
<polygon fill="#eeeeff" stroke="black" points="43,-208 43,-332 121,-332 121,-208 43,-208"/>
</a>
</g>
</g>
<!-- dir_65e289039e1347f87d412b0a1b1a312c -->
<g id="node1" class="node">
<title>dir_65e289039e1347f87d412b0a1b1a312c</title>
<text text-anchor="middle" x="82" y="-303.5" font-family="Helvetica,sans-Serif" font-size="10.00">NEON</text>
</g>
<!-- dir_345bd7154d1542d1e03fd2836959a19d -->
<g id="node2" class="node">
<title>dir_345bd7154d1542d1e03fd2836959a19d</title>
<g id="a_node2"><a xlink:href="dir_345bd7154d1542d1e03fd2836959a19d.xhtml" target="_top" xlink:title="functions">
<polygon fill="white" stroke="black" points="113,-252 51,-252 51,-216 113,-216 113,-252"/>
<text text-anchor="middle" x="82" y="-231.5" font-family="Helvetica,sans-Serif" font-size="10.00">functions</text>
</a>
</g>
</g>
<!-- dir_65e289039e1347f87d412b0a1b1a312c&#45;&gt;dir_345bd7154d1542d1e03fd2836959a19d -->
<g id="edge4" class="edge">
<title>dir_65e289039e1347f87d412b0a1b1a312c&#45;&gt;dir_345bd7154d1542d1e03fd2836959a19d</title>
<path fill="none" stroke="black" d="M82,-287.7C82,-279.98 82,-270.71 82,-262.11"/>
<polygon fill="black" stroke="black" points="85.5,-262.1 82,-252.1 78.5,-262.1 85.5,-262.1"/>
<g id="a_edge4&#45;headlabel"><a xlink:href="dir_000073_000074.xhtml" target="_top" xlink:title="86">
<text text-anchor="middle" x="88.34" y="-263.2" font-family="Helvetica,sans-Serif" font-size="10.00">86</text>
</a>
</g>
</g>
<!-- dir_b496024afd63bafbf4e8da80d7d3a81a -->
<g id="node3" class="node">
<title>dir_b496024afd63bafbf4e8da80d7d3a81a</title>
<g id="a_node3"><a xlink:href="dir_b496024afd63bafbf4e8da80d7d3a81a.xhtml" target="_top" xlink:title="CPP">
<polygon fill="white" stroke="red" points="54,-180 0,-180 0,-144 54,-144 54,-180"/>
<text text-anchor="middle" x="27" y="-159.5" font-family="Helvetica,sans-Serif" font-size="10.00">CPP</text>
</a>
</g>
</g>
<!-- dir_345bd7154d1542d1e03fd2836959a19d&#45;&gt;dir_b496024afd63bafbf4e8da80d7d3a81a -->
<g id="edge1" class="edge">
<title>dir_345bd7154d1542d1e03fd2836959a19d&#45;&gt;dir_b496024afd63bafbf4e8da80d7d3a81a</title>
<path fill="none" stroke="black" d="M68.4,-215.7C61.88,-207.39 53.93,-197.28 46.75,-188.14"/>
<polygon fill="black" stroke="black" points="49.37,-185.81 40.44,-180.1 43.87,-190.13 49.37,-185.81"/>
<g id="a_edge1&#45;headlabel"><a xlink:href="dir_000074_000071.xhtml" target="_top" xlink:title="5">
<text text-anchor="middle" x="53.82" y="-184.38" font-family="Helvetica,sans-Serif" font-size="10.00">5</text>
</a>
</g>
</g>
<!-- dir_1fb090f0c6070330bfaccc4236d3ca0d -->
<g id="node4" class="node">
<title>dir_1fb090f0c6070330bfaccc4236d3ca0d</title>
<g id="a_node4"><a xlink:href="dir_1fb090f0c6070330bfaccc4236d3ca0d.xhtml" target="_top" xlink:title="core">
<polygon fill="white" stroke="red" points="73,-108 19,-108 19,-72 73,-72 73,-108"/>
<text text-anchor="middle" x="46" y="-87.5" font-family="Helvetica,sans-Serif" font-size="10.00">core</text>
</a>
</g>
</g>
<!-- dir_345bd7154d1542d1e03fd2836959a19d&#45;&gt;dir_1fb090f0c6070330bfaccc4236d3ca0d -->
<g id="edge2" class="edge">
<title>dir_345bd7154d1542d1e03fd2836959a19d&#45;&gt;dir_1fb090f0c6070330bfaccc4236d3ca0d</title>
<path fill="none" stroke="black" d="M78.86,-215.82C75.45,-197.8 69.59,-168.73 63,-144 60.7,-135.37 57.85,-126.06 55.14,-117.69"/>
<polygon fill="black" stroke="black" points="58.41,-116.45 51.95,-108.06 51.77,-118.65 58.41,-116.45"/>
<g id="a_edge2&#45;headlabel"><a xlink:href="dir_000074_000001.xhtml" target="_top" xlink:title="76">
<text text-anchor="middle" x="62.24" y="-116.47" font-family="Helvetica,sans-Serif" font-size="10.00">76</text>
</a>
</g>
</g>
<!-- dir_b9621ae687ab229876c54f8c2df20e15 -->
<g id="node5" class="node">
<title>dir_b9621ae687ab229876c54f8c2df20e15</title>
<g id="a_node5"><a xlink:href="dir_b9621ae687ab229876c54f8c2df20e15.xhtml" target="_top" xlink:title="common">
<polygon fill="none" stroke="black" points="75.5,-36 16.5,-36 16.5,0 75.5,0 75.5,-36"/>
<text text-anchor="middle" x="46" y="-15.5" font-family="Helvetica,sans-Serif" font-size="10.00">common</text>
</a>
</g>
</g>
<!-- dir_345bd7154d1542d1e03fd2836959a19d&#45;&gt;dir_b9621ae687ab229876c54f8c2df20e15 -->
<g id="edge3" class="edge">
<title>dir_345bd7154d1542d1e03fd2836959a19d&#45;&gt;dir_b9621ae687ab229876c54f8c2df20e15</title>
<path fill="none" stroke="black" d="M85.27,-215.59C90.21,-185.51 97.45,-122.23 82,-72 78.99,-62.22 73.49,-52.62 67.68,-44.33"/>
<polygon fill="black" stroke="black" points="70.41,-42.13 61.61,-36.23 64.81,-46.33 70.41,-42.13"/>
<g id="a_edge3&#45;headlabel"><a xlink:href="dir_000074_000070.xhtml" target="_top" xlink:title="3">
<text text-anchor="middle" x="74.83" y="-40.8" font-family="Helvetica,sans-Serif" font-size="10.00">3</text>
</a>
</g>
</g>
<!-- dir_b496024afd63bafbf4e8da80d7d3a81a&#45;&gt;dir_1fb090f0c6070330bfaccc4236d3ca0d -->
<g id="edge5" class="edge">
<title>dir_b496024afd63bafbf4e8da80d7d3a81a&#45;&gt;dir_1fb090f0c6070330bfaccc4236d3ca0d</title>
<path fill="none" stroke="black" d="M25.78,-143.7C27.09,-135.9 29.42,-126.51 32.13,-117.83"/>
<polygon fill="black" stroke="black" points="35.54,-118.7 35.46,-108.1 28.91,-116.43 35.54,-118.7"/>
<g id="a_edge5&#45;headlabel"><a xlink:href="dir_000071_000001.xhtml" target="_top" xlink:title="15">
<text text-anchor="middle" x="37.06" y="-120.52" font-family="Helvetica,sans-Serif" font-size="10.00">15</text>
</a>
</g>
</g>
<!-- dir_1fb090f0c6070330bfaccc4236d3ca0d&#45;&gt;dir_b496024afd63bafbf4e8da80d7d3a81a -->
<g id="edge6" class="edge">
<title>dir_1fb090f0c6070330bfaccc4236d3ca0d&#45;&gt;dir_b496024afd63bafbf4e8da80d7d3a81a</title>
<path fill="none" stroke="black" d="M47.25,-108.1C45.94,-115.96 43.59,-125.46 40.85,-134.23"/>
<polygon fill="black" stroke="black" points="37.53,-133.1 37.61,-143.7 44.16,-135.37 37.53,-133.1"/>
<g id="a_edge6&#45;headlabel"><a xlink:href="dir_000001_000071.xhtml" target="_top" xlink:title="1">
<text text-anchor="middle" x="36.01" y="-126.28" font-family="Helvetica,sans-Serif" font-size="10.00">1</text>
</a>
</g>
</g>
<!-- dir_1fb090f0c6070330bfaccc4236d3ca0d&#45;&gt;dir_b9621ae687ab229876c54f8c2df20e15 -->
<g id="edge7" class="edge">
<title>dir_1fb090f0c6070330bfaccc4236d3ca0d&#45;&gt;dir_b9621ae687ab229876c54f8c2df20e15</title>
<path fill="none" stroke="black" d="M40.08,-71.7C39.29,-63.98 39.06,-54.71 39.4,-46.11"/>
<polygon fill="black" stroke="black" points="42.9,-46.32 40.1,-36.1 35.92,-45.84 42.9,-46.32"/>
<g id="a_edge7&#45;headlabel"><a xlink:href="dir_000001_000070.xhtml" target="_top" xlink:title="1">
<text text-anchor="middle" x="45.48" y="-47.61" font-family="Helvetica,sans-Serif" font-size="10.00">1</text>
</a>
</g>
</g>
<!-- dir_b9621ae687ab229876c54f8c2df20e15&#45;&gt;dir_1fb090f0c6070330bfaccc4236d3ca0d -->
<g id="edge8" class="edge">
<title>dir_b9621ae687ab229876c54f8c2df20e15&#45;&gt;dir_1fb090f0c6070330bfaccc4236d3ca0d</title>
<path fill="none" stroke="black" d="M51.9,-36.1C52.7,-43.79 52.94,-53.05 52.6,-61.67"/>
<polygon fill="black" stroke="black" points="49.11,-61.48 51.92,-71.7 56.09,-61.96 49.11,-61.48"/>
<g id="a_edge8&#45;headlabel"><a xlink:href="dir_000070_000001.xhtml" target="_top" xlink:title="1">
<text text-anchor="middle" x="46.52" y="-55.2" font-family="Helvetica,sans-Serif" font-size="10.00">1</text>
</a>
</g>
</g>
</g>
</svg>
