<?xml version="1.0" encoding="UTF-8" standalone="no"?>
<!DOCTYPE svg PUBLIC "-//W3C//DTD SVG 1.1//EN"
 "http://www.w3.org/Graphics/SVG/1.1/DTD/svg11.dtd">
<!-- Generated by graphviz version 2.43.0 (0)
 -->
<!-- Title: src/runtime/CL Pages: 1 -->
<svg width="828pt" height="540pt"
 viewBox="0.00 0.00 828.00 539.71" xmlns="http://www.w3.org/2000/svg" xmlns:xlink="http://www.w3.org/1999/xlink">
<g id="graph0" class="graph" transform="scale(1 1) rotate(0) translate(4 535.71)">
<title>src/runtime/CL</title>
<polygon fill="white" stroke="transparent" points="-4,4 -4,-535.71 824,-535.71 824,4 -4,4"/>
<g id="clust1" class="cluster">
<title>clusterdir_bf9f26469d00835ba20ff8d80ee5a804</title>
<g id="a_clust1"><a xlink:href="dir_bf9f26469d00835ba20ff8d80ee5a804.xhtml" target="_top" xlink:title="runtime">
<polygon fill="#ddddee" stroke="black" points="166,-344 166,-503 550,-503 550,-344 166,-344"/>
<text text-anchor="middle" x="358" y="-491" font-family="Helvetica,sans-Serif" font-size="10.00">runtime</text>
</a>
</g>
</g>
<g id="clust2" class="cluster">
<title>clusterdir_43c3fdbf778d1fd99e2e38f09fddd920</title>
<g id="a_clust2"><a xlink:href="dir_43c3fdbf778d1fd99e2e38f09fddd920.xhtml" target="_top">
<polygon fill="#eeeeff" stroke="black" points="174,-352 174,-476 542,-476 542,-352 174,-352"/>
</a>
</g>
</g>
<!-- dir_43c3fdbf778d1fd99e2e38f09fddd920 -->
<g id="node1" class="node">
<title>dir_43c3fdbf778d1fd99e2e38f09fddd920</title>
<text text-anchor="middle" x="289" y="-447.5" font-family="Helvetica,sans-Serif" font-size="10.00">CL</text>
</g>
<!-- dir_82e3926d996ac5aae32ffa787ec227cb -->
<g id="node5" class="node">
<title>dir_82e3926d996ac5aae32ffa787ec227cb</title>
<g id="a_node5"><a xlink:href="dir_82e3926d996ac5aae32ffa787ec227cb.xhtml" target="_top" xlink:title="mlgo">
<polygon fill="white" stroke="black" points="462,-396 408,-396 408,-360 462,-360 462,-396"/>
<text text-anchor="middle" x="435" y="-375.5" font-family="Helvetica,sans-Serif" font-size="10.00">mlgo</text>
</a>
</g>
</g>
<!-- dir_43c3fdbf778d1fd99e2e38f09fddd920&#45;&gt;dir_82e3926d996ac5aae32ffa787ec227cb -->
<g id="edge26" class="edge">
<title>dir_43c3fdbf778d1fd99e2e38f09fddd920&#45;&gt;dir_82e3926d996ac5aae32ffa787ec227cb</title>
<path fill="none" stroke="black" d="M316.12,-436C339.33,-424.87 372.94,-408.75 398.51,-396.5"/>
<polygon fill="black" stroke="black" points="400.03,-399.65 407.53,-392.17 397,-393.34 400.03,-399.65"/>
<g id="a_edge26&#45;headlabel"><a xlink:href="dir_000037_000038.xhtml" target="_top" xlink:title="3">
<text text-anchor="middle" x="398.01" y="-401.26" font-family="Helvetica,sans-Serif" font-size="10.00">3</text>
</a>
</g>
</g>
<!-- dir_214608ef36d61442cb2b0c1c4e9a7def -->
<g id="node10" class="node">
<title>dir_214608ef36d61442cb2b0c1c4e9a7def</title>
<g id="a_node10"><a xlink:href="dir_214608ef36d61442cb2b0c1c4e9a7def.xhtml" target="_top" xlink:title="arm_compute">
<polygon fill="white" stroke="red" points="384,-180 300,-180 300,-144 384,-144 384,-180"/>
<text text-anchor="middle" x="342" y="-159.5" font-family="Helvetica,sans-Serif" font-size="10.00">arm_compute</text>
</a>
</g>
</g>
<!-- dir_43c3fdbf778d1fd99e2e38f09fddd920&#45;&gt;dir_214608ef36d61442cb2b0c1c4e9a7def -->
<g id="edge27" class="edge">
<title>dir_43c3fdbf778d1fd99e2e38f09fddd920&#45;&gt;dir_214608ef36d61442cb2b0c1c4e9a7def</title>
<path fill="none" stroke="black" d="M289.37,-431.99C290.6,-393.03 295.84,-294.67 318,-216 320.52,-207.06 324.33,-197.69 328.17,-189.37"/>
<polygon fill="black" stroke="black" points="331.42,-190.69 332.63,-180.17 325.12,-187.64 331.42,-190.69"/>
<g id="a_edge27&#45;headlabel"><a xlink:href="dir_000037_000000.xhtml" target="_top" xlink:title="467">
<text text-anchor="middle" x="332.41" y="-192.66" font-family="Helvetica,sans-Serif" font-size="10.00">467</text>
</a>
</g>
</g>
<!-- dir_aebb8dcc11953d78e620bbef0b9e2183 -->
<g id="node11" class="node">
<title>dir_aebb8dcc11953d78e620bbef0b9e2183</title>
<g id="a_node11"><a xlink:href="dir_aebb8dcc11953d78e620bbef0b9e2183.xhtml" target="_top" xlink:title="core">
<polygon fill="white" stroke="red" points="511,-324 457,-324 457,-288 511,-288 511,-324"/>
<text text-anchor="middle" x="484" y="-303.5" font-family="Helvetica,sans-Serif" font-size="10.00">core</text>
</a>
</g>
</g>
<!-- dir_43c3fdbf778d1fd99e2e38f09fddd920&#45;&gt;dir_aebb8dcc11953d78e620bbef0b9e2183 -->
<g id="edge28" class="edge">
<title>dir_43c3fdbf778d1fd99e2e38f09fddd920&#45;&gt;dir_aebb8dcc11953d78e620bbef0b9e2183</title>
<path fill="none" stroke="black" d="M303.51,-431.79C323.24,-409.24 360.52,-369.56 399,-344 413.74,-334.21 431.49,-326.01 446.95,-319.83"/>
<polygon fill="black" stroke="black" points="448.65,-322.93 456.73,-316.07 446.14,-316.39 448.65,-322.93"/>
<g id="a_edge28&#45;headlabel"><a xlink:href="dir_000037_000020.xhtml" target="_top" xlink:title="127">
<text text-anchor="middle" x="446.31" y="-324.37" font-family="Helvetica,sans-Serif" font-size="10.00">127</text>
</a>
</g>
</g>
<!-- dir_5815af820a9cc9481f1d0990a0d60286 -->
<g id="node12" class="node">
<title>dir_5815af820a9cc9481f1d0990a0d60286</title>
<g id="a_node12"><a xlink:href="dir_5815af820a9cc9481f1d0990a0d60286.xhtml" target="_top" xlink:title="support">
<polygon fill="none" stroke="black" points="369,-36 315,-36 315,0 369,0 369,-36"/>
<text text-anchor="middle" x="342" y="-15.5" font-family="Helvetica,sans-Serif" font-size="10.00">support</text>
</a>
</g>
</g>
<!-- dir_43c3fdbf778d1fd99e2e38f09fddd920&#45;&gt;dir_5815af820a9cc9481f1d0990a0d60286 -->
<g id="edge29" class="edge">
<title>dir_43c3fdbf778d1fd99e2e38f09fddd920&#45;&gt;dir_5815af820a9cc9481f1d0990a0d60286</title>
<path fill="none" stroke="black" d="M261.96,-435.76C237.08,-423.35 202.23,-405.36 190,-396 111.83,-336.22 38,-333.41 38,-235 38,-235 38,-235 38,-161 38,-44.62 223.14,-23.41 304.46,-19.7"/>
<polygon fill="black" stroke="black" points="304.9,-23.19 314.75,-19.3 304.63,-16.19 304.9,-23.19"/>
<g id="a_edge29&#45;headlabel"><a xlink:href="dir_000037_000032.xhtml" target="_top" xlink:title="6">
<text text-anchor="middle" x="301.42" y="-23.66" font-family="Helvetica,sans-Serif" font-size="10.00">6</text>
</a>
</g>
</g>
<!-- dir_fdedb0aba14d44ce9d99bc100e026e6a -->
<g id="node13" class="node">
<title>dir_fdedb0aba14d44ce9d99bc100e026e6a</title>
<g id="a_node13"><a xlink:href="dir_fdedb0aba14d44ce9d99bc100e026e6a.xhtml" target="_top" xlink:title="common">
<polygon fill="white" stroke="red" points="199.5,-252 140.5,-252 140.5,-216 199.5,-216 199.5,-252"/>
<text text-anchor="middle" x="170" y="-231.5" font-family="Helvetica,sans-Serif" font-size="10.00">common</text>
</a>
</g>
</g>
<!-- dir_43c3fdbf778d1fd99e2e38f09fddd920&#45;&gt;dir_fdedb0aba14d44ce9d99bc100e026e6a -->
<g id="edge30" class="edge">
<title>dir_43c3fdbf778d1fd99e2e38f09fddd920&#45;&gt;dir_fdedb0aba14d44ce9d99bc100e026e6a</title>
<path fill="none" stroke="black" d="M261.76,-435.87C245.64,-426.79 226.08,-413.24 214,-396 198.85,-374.38 182.98,-301.97 175.08,-262.02"/>
<polygon fill="black" stroke="black" points="178.51,-261.3 173.16,-252.15 171.64,-262.64 178.51,-261.3"/>
<g id="a_edge30&#45;headlabel"><a xlink:href="dir_000037_000019.xhtml" target="_top" xlink:title="64">
<text text-anchor="middle" x="181.98" y="-261.79" font-family="Helvetica,sans-Serif" font-size="10.00">64</text>
</a>
</g>
</g>
<!-- dir_0304d3529340c629ae0050036d07056a -->
<g id="node2" class="node">
<title>dir_0304d3529340c629ae0050036d07056a</title>
<g id="a_node2"><a xlink:href="dir_0304d3529340c629ae0050036d07056a.xhtml" target="_top" xlink:title="functions">
<polygon fill="white" stroke="black" points="244,-468 182,-468 182,-432 244,-432 244,-468"/>
<text text-anchor="middle" x="213" y="-447.5" font-family="Helvetica,sans-Serif" font-size="10.00">functions</text>
</a>
</g>
</g>
<!-- dir_cf895c1ed808af158264b2f3d8d7f8f0 -->
<g id="node7" class="node">
<title>dir_cf895c1ed808af158264b2f3d8d7f8f0</title>
<g id="a_node7"><a xlink:href="dir_cf895c1ed808af158264b2f3d8d7f8f0.xhtml" target="_top" xlink:title="gpu">
<polygon fill="white" stroke="red" points="612,-468 558,-468 558,-432 612,-432 612,-468"/>
<text text-anchor="middle" x="585" y="-447.5" font-family="Helvetica,sans-Serif" font-size="10.00">gpu</text>
</a>
</g>
</g>
<!-- dir_0304d3529340c629ae0050036d07056a&#45;&gt;dir_cf895c1ed808af158264b2f3d8d7f8f0 -->
<g id="edge20" class="edge">
<title>dir_0304d3529340c629ae0050036d07056a&#45;&gt;dir_cf895c1ed808af158264b2f3d8d7f8f0</title>
<path fill="none" stroke="black" d="M219.69,-468.09C227.12,-485.22 240.91,-509.93 262,-521 289.06,-535.2 510.01,-535.33 537,-521 554.3,-511.81 566.51,-493.29 574.28,-477.47"/>
<polygon fill="black" stroke="black" points="577.59,-478.63 578.55,-468.08 571.22,-475.73 577.59,-478.63"/>
<g id="a_edge20&#45;headlabel"><a xlink:href="dir_000502_000004.xhtml" target="_top" xlink:title="47">
<text text-anchor="middle" x="578.69" y="-480.58" font-family="Helvetica,sans-Serif" font-size="10.00">47</text>
</a>
</g>
</g>
<!-- dir_3fe890f1593b95fd486bc879bbb074a9 -->
<g id="node9" class="node">
<title>dir_3fe890f1593b95fd486bc879bbb074a9</title>
<g id="a_node9"><a xlink:href="dir_3fe890f1593b95fd486bc879bbb074a9.xhtml" target="_top" xlink:title="heuristics">
<polygon fill="white" stroke="red" points="678,-396 614,-396 614,-360 678,-360 678,-396"/>
<text text-anchor="middle" x="646" y="-375.5" font-family="Helvetica,sans-Serif" font-size="10.00">heuristics</text>
</a>
</g>
</g>
<!-- dir_0304d3529340c629ae0050036d07056a&#45;&gt;dir_3fe890f1593b95fd486bc879bbb074a9 -->
<g id="edge21" class="edge">
<title>dir_0304d3529340c629ae0050036d07056a&#45;&gt;dir_3fe890f1593b95fd486bc879bbb074a9</title>
<path fill="none" stroke="black" d="M244.15,-434.79C247.1,-433.73 250.08,-432.78 253,-432 379.72,-398.01 416.18,-415 546,-396 564.94,-393.23 585.81,-389.75 603.58,-386.66"/>
<polygon fill="black" stroke="black" points="604.39,-390.07 613.63,-384.89 603.18,-383.17 604.39,-390.07"/>
<g id="a_edge21&#45;headlabel"><a xlink:href="dir_000502_000519.xhtml" target="_top" xlink:title="2">
<text text-anchor="middle" x="601.34" y="-390.99" font-family="Helvetica,sans-Serif" font-size="10.00">2</text>
</a>
</g>
</g>
<!-- dir_0304d3529340c629ae0050036d07056a&#45;&gt;dir_214608ef36d61442cb2b0c1c4e9a7def -->
<g id="edge22" class="edge">
<title>dir_0304d3529340c629ae0050036d07056a&#45;&gt;dir_214608ef36d61442cb2b0c1c4e9a7def</title>
<path fill="none" stroke="black" d="M197.15,-431.99C160.81,-390.91 78.57,-284.58 132,-216 151.2,-191.36 233.94,-176.37 289.65,-168.9"/>
<polygon fill="black" stroke="black" points="290.26,-172.35 299.72,-167.59 289.35,-165.41 290.26,-172.35"/>
<g id="a_edge22&#45;headlabel"><a xlink:href="dir_000502_000000.xhtml" target="_top" xlink:title="394">
<text text-anchor="middle" x="287.06" y="-173.13" font-family="Helvetica,sans-Serif" font-size="10.00">394</text>
</a>
</g>
</g>
<!-- dir_0304d3529340c629ae0050036d07056a&#45;&gt;dir_aebb8dcc11953d78e620bbef0b9e2183 -->
<g id="edge23" class="edge">
<title>dir_0304d3529340c629ae0050036d07056a&#45;&gt;dir_aebb8dcc11953d78e620bbef0b9e2183</title>
<path fill="none" stroke="black" d="M227.97,-431.65C249.18,-408.18 290.29,-366.66 334,-344 369.83,-325.42 415.37,-315.9 446.82,-311.21"/>
<polygon fill="black" stroke="black" points="447.5,-314.65 456.92,-309.79 446.53,-307.71 447.5,-314.65"/>
<g id="a_edge23&#45;headlabel"><a xlink:href="dir_000502_000020.xhtml" target="_top" xlink:title="122">
<text text-anchor="middle" x="444.33" y="-315.46" font-family="Helvetica,sans-Serif" font-size="10.00">122</text>
</a>
</g>
</g>
<!-- dir_0304d3529340c629ae0050036d07056a&#45;&gt;dir_5815af820a9cc9481f1d0990a0d60286 -->
<g id="edge24" class="edge">
<title>dir_0304d3529340c629ae0050036d07056a&#45;&gt;dir_5815af820a9cc9481f1d0990a0d60286</title>
<path fill="none" stroke="black" d="M181.57,-443.22C122.32,-430.31 0,-393.22 0,-307 0,-307 0,-307 0,-161 0,-115.63 13.05,-98.33 50,-72 90.41,-43.2 235.31,-27.73 304.59,-21.84"/>
<polygon fill="black" stroke="black" points="304.96,-25.32 314.64,-21.01 304.38,-18.35 304.96,-25.32"/>
<g id="a_edge24&#45;headlabel"><a xlink:href="dir_000502_000032.xhtml" target="_top" xlink:title="3">
<text text-anchor="middle" x="301.61" y="-25.95" font-family="Helvetica,sans-Serif" font-size="10.00">3</text>
</a>
</g>
</g>
<!-- dir_0304d3529340c629ae0050036d07056a&#45;&gt;dir_fdedb0aba14d44ce9d99bc100e026e6a -->
<g id="edge25" class="edge">
<title>dir_0304d3529340c629ae0050036d07056a&#45;&gt;dir_fdedb0aba14d44ce9d99bc100e026e6a</title>
<path fill="none" stroke="black" d="M206.63,-431.9C198.05,-408.09 183.08,-363.43 176,-324 172.33,-303.55 170.86,-280.09 170.29,-262.39"/>
<polygon fill="black" stroke="black" points="173.78,-262.11 170.04,-252.2 166.79,-262.28 173.78,-262.11"/>
<g id="a_edge25&#45;headlabel"><a xlink:href="dir_000502_000019.xhtml" target="_top" xlink:title="63">
<text text-anchor="middle" x="176.71" y="-263.13" font-family="Helvetica,sans-Serif" font-size="10.00">63</text>
</a>
</g>
</g>
<!-- dir_5f09115d5b51f09d1c93a8d5eb5f8d5c -->
<g id="node3" class="node">
<title>dir_5f09115d5b51f09d1c93a8d5eb5f8d5c</title>
<g id="a_node3"><a xlink:href="dir_5f09115d5b51f09d1c93a8d5eb5f8d5c.xhtml" target="_top" xlink:title="gemm">
<polygon fill="white" stroke="black" points="534,-396 480,-396 480,-360 534,-360 534,-396"/>
<text text-anchor="middle" x="507" y="-375.5" font-family="Helvetica,sans-Serif" font-size="10.00">gemm</text>
</a>
</g>
</g>
<!-- dir_5f09115d5b51f09d1c93a8d5eb5f8d5c&#45;&gt;dir_cf895c1ed808af158264b2f3d8d7f8f0 -->
<g id="edge40" class="edge">
<title>dir_5f09115d5b51f09d1c93a8d5eb5f8d5c&#45;&gt;dir_cf895c1ed808af158264b2f3d8d7f8f0</title>
<path fill="none" stroke="black" d="M520.16,-396.1C528.95,-404.8 540.71,-415.52 551.85,-425.03"/>
<polygon fill="black" stroke="black" points="549.89,-427.96 559.8,-431.7 554.39,-422.59 549.89,-427.96"/>
<g id="a_edge40&#45;headlabel"><a xlink:href="dir_000513_000004.xhtml" target="_top" xlink:title="3">
<text text-anchor="middle" x="545.31" y="-425.32" font-family="Helvetica,sans-Serif" font-size="10.00">3</text>
</a>
</g>
</g>
<!-- dir_5f09115d5b51f09d1c93a8d5eb5f8d5c&#45;&gt;dir_214608ef36d61442cb2b0c1c4e9a7def -->
<g id="edge41" class="edge">
<title>dir_5f09115d5b51f09d1c93a8d5eb5f8d5c&#45;&gt;dir_214608ef36d61442cb2b0c1c4e9a7def</title>
<path fill="none" stroke="black" d="M488.4,-359.78C482.83,-354.67 476.69,-349.08 471,-344 460.9,-334.98 456.81,-334.29 448,-324 411.09,-280.93 411.65,-263.07 380,-216 373.84,-206.84 366.86,-196.97 360.58,-188.26"/>
<polygon fill="black" stroke="black" points="363.29,-186.04 354.59,-180 357.63,-190.15 363.29,-186.04"/>
<g id="a_edge41&#45;headlabel"><a xlink:href="dir_000513_000000.xhtml" target="_top" xlink:title="11">
<text text-anchor="middle" x="367.7" y="-184.78" font-family="Helvetica,sans-Serif" font-size="10.00">11</text>
</a>
</g>
</g>
<!-- dir_a67538344c2c86328918cac423ccf8cb -->
<g id="node4" class="node">
<title>dir_a67538344c2c86328918cac423ccf8cb</title>
<g id="a_node4"><a xlink:href="dir_a67538344c2c86328918cac423ccf8cb.xhtml" target="_top" xlink:title="gemm_auto_heuristics">
<polygon fill="white" stroke="black" points="534,-468 406,-468 406,-432 534,-432 534,-468"/>
<text text-anchor="middle" x="470" y="-447.5" font-family="Helvetica,sans-Serif" font-size="10.00">gemm_auto_heuristics</text>
</a>
</g>
</g>
<!-- dir_a67538344c2c86328918cac423ccf8cb&#45;&gt;dir_5f09115d5b51f09d1c93a8d5eb5f8d5c -->
<g id="edge35" class="edge">
<title>dir_a67538344c2c86328918cac423ccf8cb&#45;&gt;dir_5f09115d5b51f09d1c93a8d5eb5f8d5c</title>
<path fill="none" stroke="black" d="M479.15,-431.7C483.4,-423.64 488.56,-413.89 493.27,-404.98"/>
<polygon fill="black" stroke="black" points="496.38,-406.58 497.96,-396.1 490.19,-403.31 496.38,-406.58"/>
<g id="a_edge35&#45;headlabel"><a xlink:href="dir_000514_000513.xhtml" target="_top" xlink:title="1">
<text text-anchor="middle" x="497.21" y="-408.59" font-family="Helvetica,sans-Serif" font-size="10.00">1</text>
</a>
</g>
</g>
<!-- dir_a67538344c2c86328918cac423ccf8cb&#45;&gt;dir_82e3926d996ac5aae32ffa787ec227cb -->
<g id="edge31" class="edge">
<title>dir_a67538344c2c86328918cac423ccf8cb&#45;&gt;dir_82e3926d996ac5aae32ffa787ec227cb</title>
<path fill="none" stroke="black" d="M461.35,-431.7C457.36,-423.73 452.55,-414.1 448.13,-405.26"/>
<polygon fill="black" stroke="black" points="451.15,-403.48 443.55,-396.1 444.89,-406.61 451.15,-403.48"/>
<g id="a_edge31&#45;headlabel"><a xlink:href="dir_000514_000038.xhtml" target="_top" xlink:title="2">
<text text-anchor="middle" x="455.3" y="-402.93" font-family="Helvetica,sans-Serif" font-size="10.00">2</text>
</a>
</g>
</g>
<!-- dir_a67538344c2c86328918cac423ccf8cb&#45;&gt;dir_cf895c1ed808af158264b2f3d8d7f8f0 -->
<g id="edge32" class="edge">
<title>dir_a67538344c2c86328918cac423ccf8cb&#45;&gt;dir_cf895c1ed808af158264b2f3d8d7f8f0</title>
<path fill="none" stroke="black" d="M534.24,-450C538.63,-450 543.01,-450 547.4,-450"/>
<polygon fill="black" stroke="black" points="547.64,-453.5 557.64,-450 547.64,-446.5 547.64,-453.5"/>
<g id="a_edge32&#45;headlabel"><a xlink:href="dir_000514_000004.xhtml" target="_top" xlink:title="5">
<text text-anchor="middle" x="544.04" y="-453.84" font-family="Helvetica,sans-Serif" font-size="10.00">5</text>
</a>
</g>
</g>
<!-- dir_cbdb8362360e11eafe2fa3bc74cf0ffd -->
<g id="node8" class="node">
<title>dir_cbdb8362360e11eafe2fa3bc74cf0ffd</title>
<g id="a_node8"><a xlink:href="dir_cbdb8362360e11eafe2fa3bc74cf0ffd.xhtml" target="_top" xlink:title="utils">
<polygon fill="white" stroke="red" points="305,-108 251,-108 251,-72 305,-72 305,-108"/>
<text text-anchor="middle" x="278" y="-87.5" font-family="Helvetica,sans-Serif" font-size="10.00">utils</text>
</a>
</g>
</g>
<!-- dir_a67538344c2c86328918cac423ccf8cb&#45;&gt;dir_cbdb8362360e11eafe2fa3bc74cf0ffd -->
<g id="edge33" class="edge">
<title>dir_a67538344c2c86328918cac423ccf8cb&#45;&gt;dir_cbdb8362360e11eafe2fa3bc74cf0ffd</title>
<path fill="none" stroke="black" d="M422.48,-431.93C352,-405.13 228,-351.63 228,-307 228,-307 228,-307 228,-233 228,-190.68 248,-145.09 262.7,-117.3"/>
<polygon fill="black" stroke="black" points="265.93,-118.7 267.64,-108.24 259.78,-115.35 265.93,-118.7"/>
<g id="a_edge33&#45;headlabel"><a xlink:href="dir_000514_000041.xhtml" target="_top" xlink:title="1">
<text text-anchor="middle" x="266.7" y="-120.71" font-family="Helvetica,sans-Serif" font-size="10.00">1</text>
</a>
</g>
</g>
<!-- dir_a67538344c2c86328918cac423ccf8cb&#45;&gt;dir_214608ef36d61442cb2b0c1c4e9a7def -->
<g id="edge34" class="edge">
<title>dir_a67538344c2c86328918cac423ccf8cb&#45;&gt;dir_214608ef36d61442cb2b0c1c4e9a7def</title>
<path fill="none" stroke="black" d="M438.69,-431.91C424.76,-422.88 409.22,-410.63 399,-396 354.28,-332 344.49,-236.79 342.45,-190.39"/>
<polygon fill="black" stroke="black" points="345.95,-190.09 342.1,-180.22 338.95,-190.33 345.95,-190.09"/>
<g id="a_edge34&#45;headlabel"><a xlink:href="dir_000514_000000.xhtml" target="_top" xlink:title="7">
<text text-anchor="middle" x="348.91" y="-191.08" font-family="Helvetica,sans-Serif" font-size="10.00">7</text>
</a>
</g>
</g>
<!-- dir_82e3926d996ac5aae32ffa787ec227cb&#45;&gt;dir_214608ef36d61442cb2b0c1c4e9a7def -->
<g id="edge1" class="edge">
<title>dir_82e3926d996ac5aae32ffa787ec227cb&#45;&gt;dir_214608ef36d61442cb2b0c1c4e9a7def</title>
<path fill="none" stroke="black" d="M423.94,-359.72C417.67,-349.55 409.92,-336.3 404,-324 381.97,-278.21 361.91,-222.41 350.89,-189.97"/>
<polygon fill="black" stroke="black" points="354.14,-188.66 347.63,-180.3 347.5,-190.9 354.14,-188.66"/>
<g id="a_edge1&#45;headlabel"><a xlink:href="dir_000038_000000.xhtml" target="_top" xlink:title="6">
<text text-anchor="middle" x="357.98" y="-188.67" font-family="Helvetica,sans-Serif" font-size="10.00">6</text>
</a>
</g>
</g>
<!-- dir_82e3926d996ac5aae32ffa787ec227cb&#45;&gt;dir_5815af820a9cc9481f1d0990a0d60286 -->
<g id="edge2" class="edge">
<title>dir_82e3926d996ac5aae32ffa787ec227cb&#45;&gt;dir_5815af820a9cc9481f1d0990a0d60286</title>
<path fill="none" stroke="black" d="M451.19,-359.89C457.06,-354.33 463.98,-348.45 471,-344 519.63,-313.19 706,-292.57 706,-235 706,-235 706,-235 706,-161 706,-91.36 471.82,-42.08 379.13,-25.3"/>
<polygon fill="black" stroke="black" points="379.52,-21.82 369.06,-23.51 378.29,-28.71 379.52,-21.82"/>
<g id="a_edge2&#45;headlabel"><a xlink:href="dir_000038_000032.xhtml" target="_top" xlink:title="1">
<text text-anchor="middle" x="383.56" y="-17.15" font-family="Helvetica,sans-Serif" font-size="10.00">1</text>
</a>
</g>
</g>
<!-- dir_50c9c9ef2ed96b9f05a6a6f40f0f5c9e -->
<g id="node6" class="node">
<title>dir_50c9c9ef2ed96b9f05a6a6f40f0f5c9e</title>
<g id="a_node6"><a xlink:href="dir_50c9c9ef2ed96b9f05a6a6f40f0f5c9e.xhtml" target="_top" xlink:title="tuners">
<polygon fill="white" stroke="black" points="388,-468 334,-468 334,-432 388,-432 388,-468"/>
<text text-anchor="middle" x="361" y="-447.5" font-family="Helvetica,sans-Serif" font-size="10.00">tuners</text>
</a>
</g>
</g>
<!-- dir_50c9c9ef2ed96b9f05a6a6f40f0f5c9e&#45;&gt;dir_214608ef36d61442cb2b0c1c4e9a7def -->
<g id="edge3" class="edge">
<title>dir_50c9c9ef2ed96b9f05a6a6f40f0f5c9e&#45;&gt;dir_214608ef36d61442cb2b0c1c4e9a7def</title>
<path fill="none" stroke="black" d="M346.67,-431.57C339.55,-421.76 331.69,-408.92 328,-396 306.01,-319.08 317.7,-295.33 328,-216 329.1,-207.51 331.16,-198.43 333.37,-190.24"/>
<polygon fill="black" stroke="black" points="336.78,-191.02 336.18,-180.44 330.05,-189.09 336.78,-191.02"/>
<g id="a_edge3&#45;headlabel"><a xlink:href="dir_000516_000000.xhtml" target="_top" xlink:title="1">
<text text-anchor="middle" x="338.52" y="-192.76" font-family="Helvetica,sans-Serif" font-size="10.00">1</text>
</a>
</g>
</g>
<!-- dir_cf895c1ed808af158264b2f3d8d7f8f0&#45;&gt;dir_5f09115d5b51f09d1c93a8d5eb5f8d5c -->
<g id="edge10" class="edge">
<title>dir_cf895c1ed808af158264b2f3d8d7f8f0&#45;&gt;dir_5f09115d5b51f09d1c93a8d5eb5f8d5c</title>
<path fill="none" stroke="black" d="M571.63,-431.7C562.81,-422.97 551.03,-412.24 539.89,-402.75"/>
<polygon fill="black" stroke="black" points="541.87,-399.84 531.95,-396.1 537.38,-405.21 541.87,-399.84"/>
<g id="a_edge10&#45;headlabel"><a xlink:href="dir_000004_000513.xhtml" target="_top" xlink:title="2">
<text text-anchor="middle" x="546.45" y="-397.47" font-family="Helvetica,sans-Serif" font-size="10.00">2</text>
</a>
</g>
</g>
<!-- dir_cf895c1ed808af158264b2f3d8d7f8f0&#45;&gt;dir_a67538344c2c86328918cac423ccf8cb -->
<g id="edge8" class="edge">
<title>dir_cf895c1ed808af158264b2f3d8d7f8f0&#45;&gt;dir_a67538344c2c86328918cac423ccf8cb</title>
<path fill="none" stroke="black" d="M557.64,-450C553.25,-450 548.86,-450 544.47,-450"/>
<polygon fill="black" stroke="black" points="544.24,-446.5 534.24,-450 544.24,-453.5 544.24,-446.5"/>
<g id="a_edge8&#45;headlabel"><a xlink:href="dir_000004_000514.xhtml" target="_top" xlink:title="2">
<text text-anchor="middle" x="547.83" y="-441.16" font-family="Helvetica,sans-Serif" font-size="10.00">2</text>
</a>
</g>
</g>
<!-- dir_cf895c1ed808af158264b2f3d8d7f8f0&#45;&gt;dir_82e3926d996ac5aae32ffa787ec227cb -->
<g id="edge4" class="edge">
<title>dir_cf895c1ed808af158264b2f3d8d7f8f0&#45;&gt;dir_82e3926d996ac5aae32ffa787ec227cb</title>
<path fill="none" stroke="black" d="M557.8,-436.41C536.59,-426.58 506.16,-412.45 471.51,-396.23"/>
<polygon fill="black" stroke="black" points="472.66,-392.9 462.12,-391.83 469.69,-399.24 472.66,-392.9"/>
<g id="a_edge4&#45;headlabel"><a xlink:href="dir_000004_000038.xhtml" target="_top" xlink:title="1">
<text text-anchor="middle" x="477.12" y="-389.35" font-family="Helvetica,sans-Serif" font-size="10.00">1</text>
</a>
</g>
</g>
<!-- dir_cf895c1ed808af158264b2f3d8d7f8f0&#45;&gt;dir_cbdb8362360e11eafe2fa3bc74cf0ffd -->
<g id="edge5" class="edge">
<title>dir_cf895c1ed808af158264b2f3d8d7f8f0&#45;&gt;dir_cbdb8362360e11eafe2fa3bc74cf0ffd</title>
<path fill="none" stroke="black" d="M612.39,-442.87C666.52,-428.97 782,-389.63 782,-307 782,-307 782,-307 782,-233 782,-136.03 431.98,-102.06 315.32,-93.44"/>
<polygon fill="black" stroke="black" points="315.32,-89.93 305.1,-92.7 314.82,-96.91 315.32,-89.93"/>
<g id="a_edge5&#45;headlabel"><a xlink:href="dir_000004_000041.xhtml" target="_top" xlink:title="2">
<text text-anchor="middle" x="319.11" y="-84.85" font-family="Helvetica,sans-Serif" font-size="10.00">2</text>
</a>
</g>
</g>
<!-- dir_cf895c1ed808af158264b2f3d8d7f8f0&#45;&gt;dir_3fe890f1593b95fd486bc879bbb074a9 -->
<g id="edge6" class="edge">
<title>dir_cf895c1ed808af158264b2f3d8d7f8f0&#45;&gt;dir_3fe890f1593b95fd486bc879bbb074a9</title>
<path fill="none" stroke="black" d="M594.16,-431.7C600.68,-423.22 609.51,-412.86 618.1,-403.58"/>
<polygon fill="black" stroke="black" points="620.85,-405.77 625.2,-396.1 615.78,-400.95 620.85,-405.77"/>
<g id="a_edge6&#45;headlabel"><a xlink:href="dir_000004_000519.xhtml" target="_top" xlink:title="9">
<text text-anchor="middle" x="620.44" y="-407.83" font-family="Helvetica,sans-Serif" font-size="10.00">9</text>
</a>
</g>
</g>
<!-- dir_cf895c1ed808af158264b2f3d8d7f8f0&#45;&gt;dir_214608ef36d61442cb2b0c1c4e9a7def -->
<g id="edge7" class="edge">
<title>dir_cf895c1ed808af158264b2f3d8d7f8f0&#45;&gt;dir_214608ef36d61442cb2b0c1c4e9a7def</title>
<path fill="none" stroke="black" d="M612.19,-445.56C640.83,-440.32 684.55,-427.39 705,-396 717.62,-376.64 715.01,-364.83 705,-344 647.91,-225.22 480.3,-183.38 394.27,-169.46"/>
<polygon fill="black" stroke="black" points="394.61,-165.97 384.19,-167.9 393.54,-172.89 394.61,-165.97"/>
<g id="a_edge7&#45;headlabel"><a xlink:href="dir_000004_000000.xhtml" target="_top" xlink:title="488">
<text text-anchor="middle" x="398.6" y="-161.22" font-family="Helvetica,sans-Serif" font-size="10.00">488</text>
</a>
</g>
</g>
<!-- dir_cf895c1ed808af158264b2f3d8d7f8f0&#45;&gt;dir_aebb8dcc11953d78e620bbef0b9e2183 -->
<g id="edge9" class="edge">
<title>dir_cf895c1ed808af158264b2f3d8d7f8f0&#45;&gt;dir_aebb8dcc11953d78e620bbef0b9e2183</title>
<path fill="none" stroke="black" d="M576.17,-431.97C569,-409.62 558.77,-370.15 537,-344 532.15,-338.17 526.13,-333.03 519.88,-328.58"/>
<polygon fill="black" stroke="black" points="521.58,-325.51 511.31,-322.94 517.73,-331.36 521.58,-325.51"/>
<g id="a_edge9&#45;headlabel"><a xlink:href="dir_000004_000020.xhtml" target="_top" xlink:title="236">
<text text-anchor="middle" x="526.15" y="-322.62" font-family="Helvetica,sans-Serif" font-size="10.00">236</text>
</a>
</g>
</g>
<!-- dir_cf895c1ed808af158264b2f3d8d7f8f0&#45;&gt;dir_5815af820a9cc9481f1d0990a0d60286 -->
<g id="edge11" class="edge">
<title>dir_cf895c1ed808af158264b2f3d8d7f8f0&#45;&gt;dir_5815af820a9cc9481f1d0990a0d60286</title>
<path fill="none" stroke="black" d="M612.24,-446.91C649.83,-442.79 718.15,-430.75 764,-396 801.25,-367.77 820,-353.73 820,-307 820,-307 820,-307 820,-161 820,-69.17 491.71,-32.02 379.26,-21.99"/>
<polygon fill="black" stroke="black" points="379.33,-18.48 369.07,-21.1 378.73,-25.45 379.33,-18.48"/>
<g id="a_edge11&#45;headlabel"><a xlink:href="dir_000004_000032.xhtml" target="_top" xlink:title="107">
<text text-anchor="middle" x="383.16" y="-13.46" font-family="Helvetica,sans-Serif" font-size="10.00">107</text>
</a>
</g>
</g>
<!-- dir_cf895c1ed808af158264b2f3d8d7f8f0&#45;&gt;dir_fdedb0aba14d44ce9d99bc100e026e6a -->
<g id="edge12" class="edge">
<title>dir_cf895c1ed808af158264b2f3d8d7f8f0&#45;&gt;dir_fdedb0aba14d44ce9d99bc100e026e6a</title>
<path fill="none" stroke="black" d="M612.13,-443.24C636.5,-436.47 670.84,-422.61 687,-396 699,-376.25 700.5,-362.76 687,-344 630.95,-266.09 321.11,-242.72 209.82,-236.78"/>
<polygon fill="black" stroke="black" points="209.85,-233.28 199.68,-236.26 209.49,-240.27 209.85,-233.28"/>
<g id="a_edge12&#45;headlabel"><a xlink:href="dir_000004_000019.xhtml" target="_top" xlink:title="45">
<text text-anchor="middle" x="213.59" y="-228.13" font-family="Helvetica,sans-Serif" font-size="10.00">45</text>
</a>
</g>
</g>
<!-- dir_cbdb8362360e11eafe2fa3bc74cf0ffd&#45;&gt;dir_214608ef36d61442cb2b0c1c4e9a7def -->
<g id="edge13" class="edge">
<title>dir_cbdb8362360e11eafe2fa3bc74cf0ffd&#45;&gt;dir_214608ef36d61442cb2b0c1c4e9a7def</title>
<path fill="none" stroke="black" d="M299.53,-108.1C308.06,-116.47 317.61,-126.69 325.57,-135.92"/>
<polygon fill="black" stroke="black" points="322.99,-138.28 332.1,-143.7 328.35,-133.79 322.99,-138.28"/>
<g id="a_edge13&#45;headlabel"><a xlink:href="dir_000041_000000.xhtml" target="_top" xlink:title="50">
<text text-anchor="middle" x="318.5" y="-134.85" font-family="Helvetica,sans-Serif" font-size="10.00">50</text>
</a>
</g>
</g>
<!-- dir_cbdb8362360e11eafe2fa3bc74cf0ffd&#45;&gt;dir_5815af820a9cc9481f1d0990a0d60286 -->
<g id="edge14" class="edge">
<title>dir_cbdb8362360e11eafe2fa3bc74cf0ffd&#45;&gt;dir_5815af820a9cc9481f1d0990a0d60286</title>
<path fill="none" stroke="black" d="M293.82,-71.7C301.57,-63.22 311.04,-52.86 319.52,-43.58"/>
<polygon fill="black" stroke="black" points="322.2,-45.85 326.36,-36.1 317.03,-41.12 322.2,-45.85"/>
<g id="a_edge14&#45;headlabel"><a xlink:href="dir_000041_000032.xhtml" target="_top" xlink:title="4">
<text text-anchor="middle" x="321.87" y="-47.92" font-family="Helvetica,sans-Serif" font-size="10.00">4</text>
</a>
</g>
</g>
<!-- dir_3fe890f1593b95fd486bc879bbb074a9&#45;&gt;dir_cf895c1ed808af158264b2f3d8d7f8f0 -->
<g id="edge15" class="edge">
<title>dir_3fe890f1593b95fd486bc879bbb074a9&#45;&gt;dir_cf895c1ed808af158264b2f3d8d7f8f0</title>
<path fill="none" stroke="black" d="M636.99,-396.1C630.51,-404.55 621.69,-414.9 613.1,-424.2"/>
<polygon fill="black" stroke="black" points="610.33,-422.03 605.99,-431.7 615.41,-426.85 610.33,-422.03"/>
<g id="a_edge15&#45;headlabel"><a xlink:href="dir_000519_000004.xhtml" target="_top" xlink:title="2">
<text text-anchor="middle" x="610.75" y="-414.97" font-family="Helvetica,sans-Serif" font-size="10.00">2</text>
</a>
</g>
</g>
<!-- dir_3fe890f1593b95fd486bc879bbb074a9&#45;&gt;dir_214608ef36d61442cb2b0c1c4e9a7def -->
<g id="edge16" class="edge">
<title>dir_3fe890f1593b95fd486bc879bbb074a9&#45;&gt;dir_214608ef36d61442cb2b0c1c4e9a7def</title>
<path fill="none" stroke="black" d="M629.54,-359.89C598.49,-328.33 528.15,-260.14 459,-216 438.62,-202.99 414.53,-191.5 393.51,-182.57"/>
<polygon fill="black" stroke="black" points="394.68,-179.26 384.1,-178.65 391.99,-185.73 394.68,-179.26"/>
<g id="a_edge16&#45;headlabel"><a xlink:href="dir_000519_000000.xhtml" target="_top" xlink:title="49">
<text text-anchor="middle" x="399.09" y="-175.52" font-family="Helvetica,sans-Serif" font-size="10.00">49</text>
</a>
</g>
</g>
<!-- dir_3fe890f1593b95fd486bc879bbb074a9&#45;&gt;dir_aebb8dcc11953d78e620bbef0b9e2183 -->
<g id="edge17" class="edge">
<title>dir_3fe890f1593b95fd486bc879bbb074a9&#45;&gt;dir_aebb8dcc11953d78e620bbef0b9e2183</title>
<path fill="none" stroke="black" d="M624.9,-359.75C617.37,-354.17 608.61,-348.32 600,-344 574.83,-331.35 544.42,-321.85 521.06,-315.64"/>
<polygon fill="black" stroke="black" points="521.75,-312.2 511.19,-313.1 520,-318.98 521.75,-312.2"/>
<g id="a_edge17&#45;headlabel"><a xlink:href="dir_000519_000020.xhtml" target="_top" xlink:title="4">
<text text-anchor="middle" x="525.93" y="-307.85" font-family="Helvetica,sans-Serif" font-size="10.00">4</text>
</a>
</g>
</g>
<!-- dir_214608ef36d61442cb2b0c1c4e9a7def&#45;&gt;dir_cbdb8362360e11eafe2fa3bc74cf0ffd -->
<g id="edge18" class="edge">
<title>dir_214608ef36d61442cb2b0c1c4e9a7def&#45;&gt;dir_cbdb8362360e11eafe2fa3bc74cf0ffd</title>
<path fill="none" stroke="black" d="M320.26,-143.7C311.73,-135.3 302.18,-125.07 294.24,-115.86"/>
<polygon fill="black" stroke="black" points="296.85,-113.52 287.74,-108.1 291.48,-118.02 296.85,-113.52"/>
<g id="a_edge18&#45;headlabel"><a xlink:href="dir_000000_000041.xhtml" target="_top" xlink:title="1">
<text text-anchor="middle" x="301.33" y="-111.96" font-family="Helvetica,sans-Serif" font-size="10.00">1</text>
</a>
</g>
</g>
<!-- dir_214608ef36d61442cb2b0c1c4e9a7def&#45;&gt;dir_5815af820a9cc9481f1d0990a0d60286 -->
<g id="edge19" class="edge">
<title>dir_214608ef36d61442cb2b0c1c4e9a7def&#45;&gt;dir_5815af820a9cc9481f1d0990a0d60286</title>
<path fill="none" stroke="black" d="M337.42,-143.87C334.86,-119.67 334.57,-75.21 336.54,-46.39"/>
<polygon fill="black" stroke="black" points="340.05,-46.45 337.41,-36.19 333.07,-45.86 340.05,-46.45"/>
<g id="a_edge19&#45;headlabel"><a xlink:href="dir_000000_000032.xhtml" target="_top" xlink:title="18">
<text text-anchor="middle" x="342.57" y="-47.77" font-family="Helvetica,sans-Serif" font-size="10.00">18</text>
</a>
</g>
</g>
<!-- dir_aebb8dcc11953d78e620bbef0b9e2183&#45;&gt;dir_cf895c1ed808af158264b2f3d8d7f8f0 -->
<g id="edge36" class="edge">
<title>dir_aebb8dcc11953d78e620bbef0b9e2183&#45;&gt;dir_cf895c1ed808af158264b2f3d8d7f8f0</title>
<path fill="none" stroke="black" d="M511.27,-314.6C526.28,-320.71 543.77,-330.51 555,-344 573.79,-366.58 583.99,-399.08 587.34,-421.92"/>
<polygon fill="black" stroke="black" points="583.87,-422.4 588.42,-431.97 590.83,-421.65 583.87,-422.4"/>
<g id="a_edge36&#45;headlabel"><a xlink:href="dir_000020_000004.xhtml" target="_top" xlink:title="4">
<text text-anchor="middle" x="580.66" y="-416.63" font-family="Helvetica,sans-Serif" font-size="10.00">4</text>
</a>
</g>
</g>
<!-- dir_aebb8dcc11953d78e620bbef0b9e2183&#45;&gt;dir_214608ef36d61442cb2b0c1c4e9a7def -->
<g id="edge37" class="edge">
<title>dir_aebb8dcc11953d78e620bbef0b9e2183&#45;&gt;dir_214608ef36d61442cb2b0c1c4e9a7def</title>
<path fill="none" stroke="black" d="M477.16,-287.88C468.8,-268.59 453.1,-237.17 432,-216 419.81,-203.77 404.23,-193.3 389.48,-184.98"/>
<polygon fill="black" stroke="black" points="390.9,-181.77 380.44,-180.08 387.56,-187.92 390.9,-181.77"/>
<g id="a_edge37&#45;headlabel"><a xlink:href="dir_000020_000000.xhtml" target="_top" xlink:title="609">
<text text-anchor="middle" x="395.41" y="-178.48" font-family="Helvetica,sans-Serif" font-size="10.00">609</text>
</a>
</g>
</g>
<!-- dir_aebb8dcc11953d78e620bbef0b9e2183&#45;&gt;dir_5815af820a9cc9481f1d0990a0d60286 -->
<g id="edge38" class="edge">
<title>dir_aebb8dcc11953d78e620bbef0b9e2183&#45;&gt;dir_5815af820a9cc9481f1d0990a0d60286</title>
<path fill="none" stroke="black" d="M480.58,-287.82C476.62,-269.55 469.3,-240.05 459,-216 431.12,-150.95 385.48,-81.16 360.23,-44.64"/>
<polygon fill="black" stroke="black" points="362.87,-42.3 354.28,-36.1 357.12,-46.3 362.87,-42.3"/>
<g id="a_edge38&#45;headlabel"><a xlink:href="dir_000020_000032.xhtml" target="_top" xlink:title="56">
<text text-anchor="middle" x="367.25" y="-41.13" font-family="Helvetica,sans-Serif" font-size="10.00">56</text>
</a>
</g>
</g>
<!-- dir_aebb8dcc11953d78e620bbef0b9e2183&#45;&gt;dir_fdedb0aba14d44ce9d99bc100e026e6a -->
<g id="edge39" class="edge">
<title>dir_aebb8dcc11953d78e620bbef0b9e2183&#45;&gt;dir_fdedb0aba14d44ce9d99bc100e026e6a</title>
<path fill="none" stroke="black" d="M456.96,-298.97C401.46,-286.6 274.5,-258.3 209.67,-243.84"/>
<polygon fill="black" stroke="black" points="210.35,-240.41 199.82,-241.65 208.82,-247.24 210.35,-240.41"/>
<g id="a_edge39&#45;headlabel"><a xlink:href="dir_000020_000019.xhtml" target="_top" xlink:title="5">
<text text-anchor="middle" x="214.47" y="-235.92" font-family="Helvetica,sans-Serif" font-size="10.00">5</text>
</a>
</g>
</g>
<!-- dir_5815af820a9cc9481f1d0990a0d60286&#45;&gt;dir_214608ef36d61442cb2b0c1c4e9a7def -->
<g id="edge42" class="edge">
<title>dir_5815af820a9cc9481f1d0990a0d60286&#45;&gt;dir_214608ef36d61442cb2b0c1c4e9a7def</title>
<path fill="none" stroke="black" d="M346.59,-36.19C349.15,-60.42 349.43,-104.89 347.45,-133.68"/>
<polygon fill="black" stroke="black" points="343.95,-133.61 346.58,-143.87 350.92,-134.21 343.95,-133.61"/>
<g id="a_edge42&#45;headlabel"><a xlink:href="dir_000032_000000.xhtml" target="_top" xlink:title="6">
<text text-anchor="middle" x="341.42" y="-127.29" font-family="Helvetica,sans-Serif" font-size="10.00">6</text>
</a>
</g>
</g>
<!-- dir_fdedb0aba14d44ce9d99bc100e026e6a&#45;&gt;dir_cbdb8362360e11eafe2fa3bc74cf0ffd -->
<g id="edge43" class="edge">
<title>dir_fdedb0aba14d44ce9d99bc100e026e6a&#45;&gt;dir_cbdb8362360e11eafe2fa3bc74cf0ffd</title>
<path fill="none" stroke="black" d="M176.04,-215.71C183.18,-196.83 196.36,-166.31 214,-144 222.7,-133 234.02,-122.71 244.72,-114.18"/>
<polygon fill="black" stroke="black" points="246.94,-116.89 252.73,-108.01 242.67,-111.34 246.94,-116.89"/>
<g id="a_edge43&#45;headlabel"><a xlink:href="dir_000019_000041.xhtml" target="_top" xlink:title="1">
<text text-anchor="middle" x="245.82" y="-118.83" font-family="Helvetica,sans-Serif" font-size="10.00">1</text>
</a>
</g>
</g>
<!-- dir_fdedb0aba14d44ce9d99bc100e026e6a&#45;&gt;dir_214608ef36d61442cb2b0c1c4e9a7def -->
<g id="edge44" class="edge">
<title>dir_fdedb0aba14d44ce9d99bc100e026e6a&#45;&gt;dir_214608ef36d61442cb2b0c1c4e9a7def</title>
<path fill="none" stroke="black" d="M199.57,-220.97C224.53,-210.81 260.85,-196.03 290.56,-183.94"/>
<polygon fill="black" stroke="black" points="292.01,-187.12 299.95,-180.11 289.37,-180.64 292.01,-187.12"/>
<g id="a_edge44&#45;headlabel"><a xlink:href="dir_000019_000000.xhtml" target="_top" xlink:title="17">
<text text-anchor="middle" x="289.75" y="-188.61" font-family="Helvetica,sans-Serif" font-size="10.00">17</text>
</a>
</g>
</g>
<!-- dir_fdedb0aba14d44ce9d99bc100e026e6a&#45;&gt;dir_5815af820a9cc9481f1d0990a0d60286 -->
<g id="edge45" class="edge">
<title>dir_fdedb0aba14d44ce9d99bc100e026e6a&#45;&gt;dir_5815af820a9cc9481f1d0990a0d60286</title>
<path fill="none" stroke="black" d="M171.2,-215.92C173.01,-197.48 177.42,-167.59 188,-144 204.37,-107.5 211.6,-97.99 242,-72 260.95,-55.8 285.69,-42.63 305.82,-33.48"/>
<polygon fill="black" stroke="black" points="307.25,-36.67 314.99,-29.44 304.43,-30.27 307.25,-36.67"/>
<g id="a_edge45&#45;headlabel"><a xlink:href="dir_000019_000032.xhtml" target="_top" xlink:title="2">
<text text-anchor="middle" x="305.11" y="-38.22" font-family="Helvetica,sans-Serif" font-size="10.00">2</text>
</a>
</g>
</g>
</g>
</svg>
