<?xml version="1.0" encoding="UTF-8" standalone="no"?>
<!DOCTYPE svg PUBLIC "-//W3C//DTD SVG 1.1//EN"
 "http://www.w3.org/Graphics/SVG/1.1/DTD/svg11.dtd">
<!-- Generated by graphviz version 2.43.0 (0)
 -->
<!-- Title: tests/benchmark Pages: 1 -->
<svg width="293pt" height="375pt"
 viewBox="0.00 0.00 293.49 375.00" xmlns="http://www.w3.org/2000/svg" xmlns:xlink="http://www.w3.org/1999/xlink">
<g id="graph0" class="graph" transform="scale(1 1) rotate(0) translate(4 371)">
<title>tests/benchmark</title>
<polygon fill="white" stroke="transparent" points="-4,4 -4,-371 289.49,-371 289.49,4 -4,4"/>
<g id="clust1" class="cluster">
<title>clusterdir_59425e443f801f1f2fd8bbe4959a3ccf</title>
<g id="a_clust1"><a xlink:href="dir_59425e443f801f1f2fd8bbe4959a3ccf.xhtml" target="_top" xlink:title="tests">
<polygon fill="#ddddee" stroke="black" points="14.81,-272 14.81,-359 262.81,-359 262.81,-272 14.81,-272"/>
<text text-anchor="middle" x="138.81" y="-347" font-family="Helvetica,sans-Serif" font-size="10.00">tests</text>
</a>
</g>
</g>
<g id="clust2" class="cluster">
<title>clusterdir_4f2df8950dc650bf7cf9176fae02facc</title>
<g id="a_clust2"><a xlink:href="dir_4f2df8950dc650bf7cf9176fae02facc.xhtml" target="_top">
<polygon fill="#eeeeff" stroke="black" points="22.81,-280 22.81,-332 254.81,-332 254.81,-280 22.81,-280"/>
</a>
</g>
</g>
<!-- dir_4f2df8950dc650bf7cf9176fae02facc -->
<g id="node1" class="node">
<title>dir_4f2df8950dc650bf7cf9176fae02facc</title>
<text text-anchor="middle" x="210.81" y="-303.5" font-family="Helvetica,sans-Serif" font-size="10.00">benchmark</text>
</g>
<!-- dir_4da487531dc5bdc76b523c9e82b781b1 -->
<g id="node2" class="node">
<title>dir_4da487531dc5bdc76b523c9e82b781b1</title>
<g id="a_node2"><a xlink:href="dir_4da487531dc5bdc76b523c9e82b781b1.xhtml" target="_top" xlink:title="CL">
<polygon fill="white" stroke="black" points="156.81,-324 102.81,-324 102.81,-288 156.81,-288 156.81,-324"/>
<text text-anchor="middle" x="129.81" y="-303.5" font-family="Helvetica,sans-Serif" font-size="10.00">CL</text>
</a>
</g>
</g>
<!-- dir_68267d1309a1af8e8297ef4c3efbcdba -->
<g id="node4" class="node">
<title>dir_68267d1309a1af8e8297ef4c3efbcdba</title>
<g id="a_node4"><a xlink:href="dir_68267d1309a1af8e8297ef4c3efbcdba.xhtml" target="_top" xlink:title="src">
<polygon fill="white" stroke="red" points="232.81,-180 178.81,-180 178.81,-144 232.81,-144 232.81,-180"/>
<text text-anchor="middle" x="205.81" y="-159.5" font-family="Helvetica,sans-Serif" font-size="10.00">src</text>
</a>
</g>
</g>
<!-- dir_4da487531dc5bdc76b523c9e82b781b1&#45;&gt;dir_68267d1309a1af8e8297ef4c3efbcdba -->
<g id="edge1" class="edge">
<title>dir_4da487531dc5bdc76b523c9e82b781b1&#45;&gt;dir_68267d1309a1af8e8297ef4c3efbcdba</title>
<path fill="none" stroke="black" d="M145.84,-287.72C151.93,-282.01 159.23,-276.08 166.81,-272 197.18,-255.63 220.79,-279.36 241.81,-252 256.49,-232.89 243.1,-206.97 228.67,-188.03"/>
<polygon fill="black" stroke="black" points="231.29,-185.71 222.28,-180.13 225.84,-190.11 231.29,-185.71"/>
<g id="a_edge1&#45;headlabel"><a xlink:href="dir_000529_000003.xhtml" target="_top" xlink:title="1">
<text text-anchor="middle" x="235.76" y="-184.22" font-family="Helvetica,sans-Serif" font-size="10.00">1</text>
</a>
</g>
</g>
<!-- dir_cbdb8362360e11eafe2fa3bc74cf0ffd -->
<g id="node5" class="node">
<title>dir_cbdb8362360e11eafe2fa3bc74cf0ffd</title>
<g id="a_node5"><a xlink:href="dir_cbdb8362360e11eafe2fa3bc74cf0ffd.xhtml" target="_top" xlink:title="utils">
<polygon fill="white" stroke="red" points="174.81,-108 120.81,-108 120.81,-72 174.81,-72 174.81,-108"/>
<text text-anchor="middle" x="147.81" y="-87.5" font-family="Helvetica,sans-Serif" font-size="10.00">utils</text>
</a>
</g>
</g>
<!-- dir_4da487531dc5bdc76b523c9e82b781b1&#45;&gt;dir_cbdb8362360e11eafe2fa3bc74cf0ffd -->
<g id="edge2" class="edge">
<title>dir_4da487531dc5bdc76b523c9e82b781b1&#45;&gt;dir_cbdb8362360e11eafe2fa3bc74cf0ffd</title>
<path fill="none" stroke="black" d="M131.25,-287.85C134.37,-250.83 141.74,-163.18 145.51,-118.39"/>
<polygon fill="black" stroke="black" points="149.01,-118.49 146.36,-108.23 142.03,-117.9 149.01,-118.49"/>
<g id="a_edge2&#45;headlabel"><a xlink:href="dir_000529_000041.xhtml" target="_top" xlink:title="1">
<text text-anchor="middle" x="151.54" y="-119.81" font-family="Helvetica,sans-Serif" font-size="10.00">1</text>
</a>
</g>
</g>
<!-- dir_9e71e2da941d3cafc4d98a9f6ae3de4f -->
<g id="node7" class="node">
<title>dir_9e71e2da941d3cafc4d98a9f6ae3de4f</title>
<g id="a_node7"><a xlink:href="dir_9e71e2da941d3cafc4d98a9f6ae3de4f.xhtml" target="_top" xlink:title="framework">
<polygon fill="white" stroke="red" points="122.81,-180 52.81,-180 52.81,-144 122.81,-144 122.81,-180"/>
<text text-anchor="middle" x="87.81" y="-159.5" font-family="Helvetica,sans-Serif" font-size="10.00">framework</text>
</a>
</g>
</g>
<!-- dir_4da487531dc5bdc76b523c9e82b781b1&#45;&gt;dir_9e71e2da941d3cafc4d98a9f6ae3de4f -->
<g id="edge3" class="edge">
<title>dir_4da487531dc5bdc76b523c9e82b781b1&#45;&gt;dir_9e71e2da941d3cafc4d98a9f6ae3de4f</title>
<path fill="none" stroke="black" d="M124.74,-287.87C117.55,-263.56 104.32,-218.82 95.8,-190.01"/>
<polygon fill="black" stroke="black" points="99.09,-188.79 92.89,-180.19 92.37,-190.77 99.09,-188.79"/>
<g id="a_edge3&#45;headlabel"><a xlink:href="dir_000529_000039.xhtml" target="_top" xlink:title="2">
<text text-anchor="middle" x="102.83" y="-188.93" font-family="Helvetica,sans-Serif" font-size="10.00">2</text>
</a>
</g>
</g>
<!-- dir_214608ef36d61442cb2b0c1c4e9a7def -->
<g id="node8" class="node">
<title>dir_214608ef36d61442cb2b0c1c4e9a7def</title>
<g id="a_node8"><a xlink:href="dir_214608ef36d61442cb2b0c1c4e9a7def.xhtml" target="_top" xlink:title="arm_compute">
<polygon fill="white" stroke="red" points="189.81,-36 105.81,-36 105.81,0 189.81,0 189.81,-36"/>
<text text-anchor="middle" x="147.81" y="-15.5" font-family="Helvetica,sans-Serif" font-size="10.00">arm_compute</text>
</a>
</g>
</g>
<!-- dir_4da487531dc5bdc76b523c9e82b781b1&#45;&gt;dir_214608ef36d61442cb2b0c1c4e9a7def -->
<g id="edge4" class="edge">
<title>dir_4da487531dc5bdc76b523c9e82b781b1&#45;&gt;dir_214608ef36d61442cb2b0c1c4e9a7def</title>
<path fill="none" stroke="black" d="M145.38,-287.87C151.52,-282.03 158.99,-275.99 166.81,-272 204.09,-253.01 232.55,-284.58 258.81,-252 309.66,-188.91 280.63,-135.12 229.81,-72 220.05,-59.88 206.74,-49.63 193.69,-41.48"/>
<polygon fill="black" stroke="black" points="195.13,-38.26 184.74,-36.17 191.55,-44.28 195.13,-38.26"/>
<g id="a_edge4&#45;headlabel"><a xlink:href="dir_000529_000000.xhtml" target="_top" xlink:title="5">
<text text-anchor="middle" x="199.67" y="-35.15" font-family="Helvetica,sans-Serif" font-size="10.00">5</text>
</a>
</g>
</g>
<!-- dir_896191444cf08ec8ade6f88256cb2bdd -->
<g id="node9" class="node">
<title>dir_896191444cf08ec8ade6f88256cb2bdd</title>
<g id="a_node9"><a xlink:href="dir_896191444cf08ec8ade6f88256cb2bdd.xhtml" target="_top" xlink:title="CL">
<polygon fill="none" stroke="black" points="232.81,-252 178.81,-252 178.81,-216 232.81,-216 232.81,-252"/>
<text text-anchor="middle" x="205.81" y="-231.5" font-family="Helvetica,sans-Serif" font-size="10.00">CL</text>
</a>
</g>
</g>
<!-- dir_4da487531dc5bdc76b523c9e82b781b1&#45;&gt;dir_896191444cf08ec8ade6f88256cb2bdd -->
<g id="edge5" class="edge">
<title>dir_4da487531dc5bdc76b523c9e82b781b1&#45;&gt;dir_896191444cf08ec8ade6f88256cb2bdd</title>
<path fill="none" stroke="black" d="M148.6,-287.7C157.98,-279.05 169.49,-268.45 179.72,-259.03"/>
<polygon fill="black" stroke="black" points="182.25,-261.45 187.24,-252.1 177.51,-256.3 182.25,-261.45"/>
<g id="a_edge5&#45;headlabel"><a xlink:href="dir_000529_000533.xhtml" target="_top" xlink:title="1">
<text text-anchor="middle" x="181.53" y="-263.48" font-family="Helvetica,sans-Serif" font-size="10.00">1</text>
</a>
</g>
</g>
<!-- dir_ec05701f68bea22653d08da5856c9ffc -->
<g id="node3" class="node">
<title>dir_ec05701f68bea22653d08da5856c9ffc</title>
<g id="a_node3"><a xlink:href="dir_ec05701f68bea22653d08da5856c9ffc.xhtml" target="_top" xlink:title="NEON">
<polygon fill="white" stroke="black" points="84.81,-324 30.81,-324 30.81,-288 84.81,-288 84.81,-324"/>
<text text-anchor="middle" x="57.81" y="-303.5" font-family="Helvetica,sans-Serif" font-size="10.00">NEON</text>
</a>
</g>
</g>
<!-- dir_ec05701f68bea22653d08da5856c9ffc&#45;&gt;dir_cbdb8362360e11eafe2fa3bc74cf0ffd -->
<g id="edge13" class="edge">
<title>dir_ec05701f68bea22653d08da5856c9ffc&#45;&gt;dir_cbdb8362360e11eafe2fa3bc74cf0ffd</title>
<path fill="none" stroke="black" d="M38.77,-287.84C29.63,-278.3 19.64,-265.62 14.81,-252 -1.8,-205.16 10.25,-180.66 43.81,-144 61.84,-124.3 88.88,-110.83 110.86,-102.41"/>
<polygon fill="black" stroke="black" points="112.36,-105.59 120.56,-98.88 109.97,-99.01 112.36,-105.59"/>
<g id="a_edge13&#45;headlabel"><a xlink:href="dir_000530_000041.xhtml" target="_top" xlink:title="1">
<text text-anchor="middle" x="109.95" y="-106.98" font-family="Helvetica,sans-Serif" font-size="10.00">1</text>
</a>
</g>
</g>
<!-- dir_445738e6fed662d0b65e690e3f1e1de0 -->
<g id="node6" class="node">
<title>dir_445738e6fed662d0b65e690e3f1e1de0</title>
<g id="a_node6"><a xlink:href="dir_445738e6fed662d0b65e690e3f1e1de0.xhtml" target="_top" xlink:title="NEON">
<polygon fill="none" stroke="black" points="84.81,-252 30.81,-252 30.81,-216 84.81,-216 84.81,-252"/>
<text text-anchor="middle" x="57.81" y="-231.5" font-family="Helvetica,sans-Serif" font-size="10.00">NEON</text>
</a>
</g>
</g>
<!-- dir_ec05701f68bea22653d08da5856c9ffc&#45;&gt;dir_445738e6fed662d0b65e690e3f1e1de0 -->
<g id="edge14" class="edge">
<title>dir_ec05701f68bea22653d08da5856c9ffc&#45;&gt;dir_445738e6fed662d0b65e690e3f1e1de0</title>
<path fill="none" stroke="black" d="M57.81,-287.7C57.81,-279.98 57.81,-270.71 57.81,-262.11"/>
<polygon fill="black" stroke="black" points="61.31,-262.1 57.81,-252.1 54.31,-262.1 61.31,-262.1"/>
<g id="a_edge14&#45;headlabel"><a xlink:href="dir_000530_000534.xhtml" target="_top" xlink:title="1">
<text text-anchor="middle" x="64.15" y="-263.2" font-family="Helvetica,sans-Serif" font-size="10.00">1</text>
</a>
</g>
</g>
<!-- dir_ec05701f68bea22653d08da5856c9ffc&#45;&gt;dir_9e71e2da941d3cafc4d98a9f6ae3de4f -->
<g id="edge15" class="edge">
<title>dir_ec05701f68bea22653d08da5856c9ffc&#45;&gt;dir_9e71e2da941d3cafc4d98a9f6ae3de4f</title>
<path fill="none" stroke="black" d="M42.36,-288C27.87,-269.88 10.06,-240.5 21.81,-216 27.47,-204.18 37.2,-194.17 47.47,-186.14"/>
<polygon fill="black" stroke="black" points="49.72,-188.83 55.76,-180.12 45.61,-183.16 49.72,-188.83"/>
<g id="a_edge15&#45;headlabel"><a xlink:href="dir_000530_000039.xhtml" target="_top" xlink:title="2">
<text text-anchor="middle" x="48.48" y="-190.74" font-family="Helvetica,sans-Serif" font-size="10.00">2</text>
</a>
</g>
</g>
<!-- dir_ec05701f68bea22653d08da5856c9ffc&#45;&gt;dir_214608ef36d61442cb2b0c1c4e9a7def -->
<g id="edge16" class="edge">
<title>dir_ec05701f68bea22653d08da5856c9ffc&#45;&gt;dir_214608ef36d61442cb2b0c1c4e9a7def</title>
<path fill="none" stroke="black" d="M32.88,-287.86C21.75,-278.67 9.81,-266.29 3.81,-252 -2.38,-237.25 0.95,-231.74 3.81,-216 16.01,-148.74 13.85,-124.34 57.81,-72 68.33,-59.47 82.62,-49.19 96.71,-41.13"/>
<polygon fill="black" stroke="black" points="98.77,-43.99 105.9,-36.15 95.44,-37.84 98.77,-43.99"/>
<g id="a_edge16&#45;headlabel"><a xlink:href="dir_000530_000000.xhtml" target="_top" xlink:title="5">
<text text-anchor="middle" x="96.97" y="-45.7" font-family="Helvetica,sans-Serif" font-size="10.00">5</text>
</a>
</g>
</g>
<!-- dir_68267d1309a1af8e8297ef4c3efbcdba&#45;&gt;dir_cbdb8362360e11eafe2fa3bc74cf0ffd -->
<g id="edge6" class="edge">
<title>dir_68267d1309a1af8e8297ef4c3efbcdba&#45;&gt;dir_cbdb8362360e11eafe2fa3bc74cf0ffd</title>
<path fill="none" stroke="black" d="M191.47,-143.7C184.52,-135.3 176.04,-125.07 168.41,-115.86"/>
<polygon fill="black" stroke="black" points="171.06,-113.57 161.98,-108.1 165.67,-118.04 171.06,-113.57"/>
<g id="a_edge6&#45;headlabel"><a xlink:href="dir_000003_000041.xhtml" target="_top" xlink:title="4">
<text text-anchor="middle" x="175.54" y="-112.03" font-family="Helvetica,sans-Serif" font-size="10.00">4</text>
</a>
</g>
</g>
<!-- dir_68267d1309a1af8e8297ef4c3efbcdba&#45;&gt;dir_214608ef36d61442cb2b0c1c4e9a7def -->
<g id="edge7" class="edge">
<title>dir_68267d1309a1af8e8297ef4c3efbcdba&#45;&gt;dir_214608ef36d61442cb2b0c1c4e9a7def</title>
<path fill="none" stroke="black" d="M203.39,-143.68C200.41,-125.3 194.38,-95.69 183.81,-72 179.57,-62.5 173.63,-52.87 167.79,-44.47"/>
<polygon fill="black" stroke="black" points="170.51,-42.27 161.82,-36.22 164.84,-46.37 170.51,-42.27"/>
<g id="a_edge7&#45;headlabel"><a xlink:href="dir_000003_000000.xhtml" target="_top" xlink:title="3231">
<text text-anchor="middle" x="174.92" y="-41.01" font-family="Helvetica,sans-Serif" font-size="10.00">3231</text>
</a>
</g>
</g>
<!-- dir_cbdb8362360e11eafe2fa3bc74cf0ffd&#45;&gt;dir_214608ef36d61442cb2b0c1c4e9a7def -->
<g id="edge8" class="edge">
<title>dir_cbdb8362360e11eafe2fa3bc74cf0ffd&#45;&gt;dir_214608ef36d61442cb2b0c1c4e9a7def</title>
<path fill="none" stroke="black" d="M141.89,-71.7C141.1,-63.98 140.87,-54.71 141.21,-46.11"/>
<polygon fill="black" stroke="black" points="144.71,-46.32 141.91,-36.1 137.73,-45.84 144.71,-46.32"/>
<g id="a_edge8&#45;headlabel"><a xlink:href="dir_000041_000000.xhtml" target="_top" xlink:title="50">
<text text-anchor="middle" x="147.29" y="-47.61" font-family="Helvetica,sans-Serif" font-size="10.00">50</text>
</a>
</g>
</g>
<!-- dir_445738e6fed662d0b65e690e3f1e1de0&#45;&gt;dir_68267d1309a1af8e8297ef4c3efbcdba -->
<g id="edge9" class="edge">
<title>dir_445738e6fed662d0b65e690e3f1e1de0&#45;&gt;dir_68267d1309a1af8e8297ef4c3efbcdba</title>
<path fill="none" stroke="black" d="M84.96,-220.16C108.66,-208.95 143.27,-192.58 169.39,-180.23"/>
<polygon fill="black" stroke="black" points="171.04,-183.32 178.59,-175.88 168.05,-176.99 171.04,-183.32"/>
<g id="a_edge9&#45;headlabel"><a xlink:href="dir_000534_000003.xhtml" target="_top" xlink:title="2">
<text text-anchor="middle" x="169.01" y="-184.92" font-family="Helvetica,sans-Serif" font-size="10.00">2</text>
</a>
</g>
</g>
<!-- dir_445738e6fed662d0b65e690e3f1e1de0&#45;&gt;dir_214608ef36d61442cb2b0c1c4e9a7def -->
<g id="edge10" class="edge">
<title>dir_445738e6fed662d0b65e690e3f1e1de0&#45;&gt;dir_214608ef36d61442cb2b0c1c4e9a7def</title>
<path fill="none" stroke="black" d="M50.55,-215.92C43.87,-197.73 36.08,-168.29 43.81,-144 57,-102.56 91.98,-65.72 117.75,-42.96"/>
<polygon fill="black" stroke="black" points="120.12,-45.54 125.41,-36.36 115.55,-40.23 120.12,-45.54"/>
<g id="a_edge10&#45;headlabel"><a xlink:href="dir_000534_000000.xhtml" target="_top" xlink:title="6">
<text text-anchor="middle" x="119.25" y="-47.53" font-family="Helvetica,sans-Serif" font-size="10.00">6</text>
</a>
</g>
</g>
<!-- dir_9e71e2da941d3cafc4d98a9f6ae3de4f&#45;&gt;dir_cbdb8362360e11eafe2fa3bc74cf0ffd -->
<g id="edge11" class="edge">
<title>dir_9e71e2da941d3cafc4d98a9f6ae3de4f&#45;&gt;dir_cbdb8362360e11eafe2fa3bc74cf0ffd</title>
<path fill="none" stroke="black" d="M102.64,-143.7C109.83,-135.3 118.61,-125.07 126.5,-115.86"/>
<polygon fill="black" stroke="black" points="129.3,-117.97 133.15,-108.1 123.98,-113.42 129.3,-117.97"/>
<g id="a_edge11&#45;headlabel"><a xlink:href="dir_000039_000041.xhtml" target="_top" xlink:title="4">
<text text-anchor="middle" x="129.11" y="-120.05" font-family="Helvetica,sans-Serif" font-size="10.00">4</text>
</a>
</g>
</g>
<!-- dir_9e71e2da941d3cafc4d98a9f6ae3de4f&#45;&gt;dir_214608ef36d61442cb2b0c1c4e9a7def -->
<g id="edge12" class="edge">
<title>dir_9e71e2da941d3cafc4d98a9f6ae3de4f&#45;&gt;dir_214608ef36d61442cb2b0c1c4e9a7def</title>
<path fill="none" stroke="black" d="M90.7,-143.68C94.18,-125.31 100.93,-95.71 111.81,-72 116.15,-62.55 122.12,-52.93 127.95,-44.52"/>
<polygon fill="black" stroke="black" points="130.9,-46.42 133.91,-36.27 125.22,-42.33 130.9,-46.42"/>
<g id="a_edge12&#45;headlabel"><a xlink:href="dir_000039_000000.xhtml" target="_top" xlink:title="16">
<text text-anchor="middle" x="131.1" y="-48.5" font-family="Helvetica,sans-Serif" font-size="10.00">16</text>
</a>
</g>
</g>
<!-- dir_214608ef36d61442cb2b0c1c4e9a7def&#45;&gt;dir_cbdb8362360e11eafe2fa3bc74cf0ffd -->
<g id="edge17" class="edge">
<title>dir_214608ef36d61442cb2b0c1c4e9a7def&#45;&gt;dir_cbdb8362360e11eafe2fa3bc74cf0ffd</title>
<path fill="none" stroke="black" d="M153.7,-36.1C154.51,-43.79 154.75,-53.05 154.41,-61.67"/>
<polygon fill="black" stroke="black" points="150.92,-61.48 153.73,-71.7 157.9,-61.96 150.92,-61.48"/>
<g id="a_edge17&#45;headlabel"><a xlink:href="dir_000000_000041.xhtml" target="_top" xlink:title="1">
<text text-anchor="middle" x="148.33" y="-55.2" font-family="Helvetica,sans-Serif" font-size="10.00">1</text>
</a>
</g>
</g>
<!-- dir_896191444cf08ec8ade6f88256cb2bdd&#45;&gt;dir_68267d1309a1af8e8297ef4c3efbcdba -->
<g id="edge18" class="edge">
<title>dir_896191444cf08ec8ade6f88256cb2bdd&#45;&gt;dir_68267d1309a1af8e8297ef4c3efbcdba</title>
<path fill="none" stroke="black" d="M205.81,-215.7C205.81,-207.98 205.81,-198.71 205.81,-190.11"/>
<polygon fill="black" stroke="black" points="209.31,-190.1 205.81,-180.1 202.31,-190.1 209.31,-190.1"/>
<g id="a_edge18&#45;headlabel"><a xlink:href="dir_000533_000003.xhtml" target="_top" xlink:title="4">
<text text-anchor="middle" x="212.15" y="-191.2" font-family="Helvetica,sans-Serif" font-size="10.00">4</text>
</a>
</g>
</g>
<!-- dir_896191444cf08ec8ade6f88256cb2bdd&#45;&gt;dir_9e71e2da941d3cafc4d98a9f6ae3de4f -->
<g id="edge19" class="edge">
<title>dir_896191444cf08ec8ade6f88256cb2bdd&#45;&gt;dir_9e71e2da941d3cafc4d98a9f6ae3de4f</title>
<path fill="none" stroke="black" d="M178.74,-216.94C162.98,-207.59 142.87,-195.66 125.57,-185.4"/>
<polygon fill="black" stroke="black" points="127.2,-182.3 116.82,-180.21 123.63,-188.32 127.2,-182.3"/>
<g id="a_edge19&#45;headlabel"><a xlink:href="dir_000533_000039.xhtml" target="_top" xlink:title="1">
<text text-anchor="middle" x="131.74" y="-179.19" font-family="Helvetica,sans-Serif" font-size="10.00">1</text>
</a>
</g>
</g>
<!-- dir_896191444cf08ec8ade6f88256cb2bdd&#45;&gt;dir_214608ef36d61442cb2b0c1c4e9a7def -->
<g id="edge20" class="edge">
<title>dir_896191444cf08ec8ade6f88256cb2bdd&#45;&gt;dir_214608ef36d61442cb2b0c1c4e9a7def</title>
<path fill="none" stroke="black" d="M221.42,-215.77C229.18,-206.03 237.76,-193.18 241.81,-180 246.51,-164.71 245.66,-159.53 241.81,-144 233.11,-108.88 225.69,-100.82 203.81,-72 195.97,-61.67 186.04,-51.57 176.73,-43"/>
<polygon fill="black" stroke="black" points="178.91,-40.25 169.12,-36.2 174.24,-45.47 178.91,-40.25"/>
<g id="a_edge20&#45;headlabel"><a xlink:href="dir_000533_000000.xhtml" target="_top" xlink:title="6">
<text text-anchor="middle" x="183.48" y="-38.03" font-family="Helvetica,sans-Serif" font-size="10.00">6</text>
</a>
</g>
</g>
</g>
</svg>
