<?xml version="1.0" encoding="UTF-8" standalone="no"?>
<!DOCTYPE svg PUBLIC "-//W3C//DTD SVG 1.1//EN"
 "http://www.w3.org/Graphics/SVG/1.1/DTD/svg11.dtd">
<!-- Generated by graphviz version 2.43.0 (0)
 -->
<!-- Title: src/common/utils Pages: 1 -->
<svg width="121pt" height="223pt"
 viewBox="0.00 0.00 121.00 223.00" xmlns="http://www.w3.org/2000/svg" xmlns:xlink="http://www.w3.org/1999/xlink">
<g id="graph0" class="graph" transform="scale(1 1) rotate(0) translate(4 219)">
<title>src/common/utils</title>
<polygon fill="white" stroke="transparent" points="-4,4 -4,-219 117,-219 117,4 -4,4"/>
<g id="clust1" class="cluster">
<title>clusterdir_fdedb0aba14d44ce9d99bc100e026e6a</title>
<g id="a_clust1"><a xlink:href="dir_fdedb0aba14d44ce9d99bc100e026e6a.xhtml" target="_top" xlink:title="common">
<polygon fill="#ddddee" stroke="black" points="35,-136 35,-207 105,-207 105,-136 35,-136"/>
<text text-anchor="middle" x="70" y="-195" font-family="Helvetica,sans-Serif" font-size="10.00">common</text>
</a>
</g>
</g>
<!-- dir_c3d33904e581c7b40f74ea903e639ce2 -->
<g id="node1" class="node">
<title>dir_c3d33904e581c7b40f74ea903e639ce2</title>
<g id="a_node1"><a xlink:href="dir_c3d33904e581c7b40f74ea903e639ce2.xhtml" target="_top" xlink:title="utils">
<polygon fill="#eeeeff" stroke="black" points="97,-180 43,-180 43,-144 97,-144 97,-180"/>
<text text-anchor="middle" x="70" y="-159.5" font-family="Helvetica,sans-Serif" font-size="10.00">utils</text>
</a>
</g>
</g>
<!-- dir_cbdb8362360e11eafe2fa3bc74cf0ffd -->
<g id="node2" class="node">
<title>dir_cbdb8362360e11eafe2fa3bc74cf0ffd</title>
<g id="a_node2"><a xlink:href="dir_cbdb8362360e11eafe2fa3bc74cf0ffd.xhtml" target="_top" xlink:title="utils">
<polygon fill="white" stroke="red" points="69,-108 15,-108 15,-72 69,-72 69,-108"/>
<text text-anchor="middle" x="42" y="-87.5" font-family="Helvetica,sans-Serif" font-size="10.00">utils</text>
</a>
</g>
</g>
<!-- dir_c3d33904e581c7b40f74ea903e639ce2&#45;&gt;dir_cbdb8362360e11eafe2fa3bc74cf0ffd -->
<g id="edge3" class="edge">
<title>dir_c3d33904e581c7b40f74ea903e639ce2&#45;&gt;dir_cbdb8362360e11eafe2fa3bc74cf0ffd</title>
<path fill="none" stroke="black" d="M63.08,-143.7C59.93,-135.81 56.12,-126.3 52.62,-117.55"/>
<polygon fill="black" stroke="black" points="55.81,-116.09 48.84,-108.1 49.31,-118.69 55.81,-116.09"/>
<g id="a_edge3&#45;headlabel"><a xlink:href="dir_000028_000041.xhtml" target="_top" xlink:title="1">
<text text-anchor="middle" x="59.78" y="-115.87" font-family="Helvetica,sans-Serif" font-size="10.00">1</text>
</a>
</g>
</g>
<!-- dir_214608ef36d61442cb2b0c1c4e9a7def -->
<g id="node3" class="node">
<title>dir_214608ef36d61442cb2b0c1c4e9a7def</title>
<g id="a_node3"><a xlink:href="dir_214608ef36d61442cb2b0c1c4e9a7def.xhtml" target="_top" xlink:title="arm_compute">
<polygon fill="white" stroke="red" points="84,-36 0,-36 0,0 84,0 84,-36"/>
<text text-anchor="middle" x="42" y="-15.5" font-family="Helvetica,sans-Serif" font-size="10.00">arm_compute</text>
</a>
</g>
</g>
<!-- dir_c3d33904e581c7b40f74ea903e639ce2&#45;&gt;dir_214608ef36d61442cb2b0c1c4e9a7def -->
<g id="edge4" class="edge">
<title>dir_c3d33904e581c7b40f74ea903e639ce2&#45;&gt;dir_214608ef36d61442cb2b0c1c4e9a7def</title>
<path fill="none" stroke="black" d="M75.34,-143.87C80.16,-125.64 85.43,-96.17 78,-72 74.99,-62.22 69.49,-52.62 63.68,-44.33"/>
<polygon fill="black" stroke="black" points="66.41,-42.13 57.61,-36.23 60.81,-46.33 66.41,-42.13"/>
<g id="a_edge4&#45;headlabel"><a xlink:href="dir_000028_000000.xhtml" target="_top" xlink:title="5">
<text text-anchor="middle" x="70.83" y="-40.8" font-family="Helvetica,sans-Serif" font-size="10.00">5</text>
</a>
</g>
</g>
<!-- dir_cbdb8362360e11eafe2fa3bc74cf0ffd&#45;&gt;dir_214608ef36d61442cb2b0c1c4e9a7def -->
<g id="edge1" class="edge">
<title>dir_cbdb8362360e11eafe2fa3bc74cf0ffd&#45;&gt;dir_214608ef36d61442cb2b0c1c4e9a7def</title>
<path fill="none" stroke="black" d="M36.08,-71.7C35.29,-63.98 35.06,-54.71 35.4,-46.11"/>
<polygon fill="black" stroke="black" points="38.9,-46.32 36.1,-36.1 31.92,-45.84 38.9,-46.32"/>
<g id="a_edge1&#45;headlabel"><a xlink:href="dir_000041_000000.xhtml" target="_top" xlink:title="50">
<text text-anchor="middle" x="41.48" y="-47.61" font-family="Helvetica,sans-Serif" font-size="10.00">50</text>
</a>
</g>
</g>
<!-- dir_214608ef36d61442cb2b0c1c4e9a7def&#45;&gt;dir_cbdb8362360e11eafe2fa3bc74cf0ffd -->
<g id="edge2" class="edge">
<title>dir_214608ef36d61442cb2b0c1c4e9a7def&#45;&gt;dir_cbdb8362360e11eafe2fa3bc74cf0ffd</title>
<path fill="none" stroke="black" d="M47.9,-36.1C48.7,-43.79 48.94,-53.05 48.6,-61.67"/>
<polygon fill="black" stroke="black" points="45.11,-61.48 47.92,-71.7 52.09,-61.96 45.11,-61.48"/>
<g id="a_edge2&#45;headlabel"><a xlink:href="dir_000000_000041.xhtml" target="_top" xlink:title="1">
<text text-anchor="middle" x="42.52" y="-55.2" font-family="Helvetica,sans-Serif" font-size="10.00">1</text>
</a>
</g>
</g>
</g>
</svg>
