<?xml version="1.0" encoding="UTF-8" standalone="no"?>
<!DOCTYPE svg PUBLIC "-//W3C//DTD SVG 1.1//EN"
 "http://www.w3.org/Graphics/SVG/1.1/DTD/svg11.dtd">
<!-- Generated by graphviz version 2.43.0 (0)
 -->
<!-- Title: src/core/NEON/kernels/arm_conv/depthwise/kernels/a64_u8q_nhwc_5x5_s1_output2x2_mla_depthfirst Pages: 1 -->
<svg width="300pt" height="151pt"
 viewBox="0.00 0.00 300.00 151.00" xmlns="http://www.w3.org/2000/svg" xmlns:xlink="http://www.w3.org/1999/xlink">
<g id="graph0" class="graph" transform="scale(1 1) rotate(0) translate(4 147)">
<title>src/core/NEON/kernels/arm_conv/depthwise/kernels/a64_u8q_nhwc_5x5_s1_output2x2_mla_depthfirst</title>
<polygon fill="white" stroke="transparent" points="-4,4 -4,-147 296,-147 296,4 -4,4"/>
<g id="clust1" class="cluster">
<title>clusterdir_032f7aa13c62ebf44c0c8538051c1ee7</title>
<g id="a_clust1"><a xlink:href="dir_032f7aa13c62ebf44c0c8538051c1ee7.xhtml" target="_top" xlink:title="kernels">
<polygon fill="#ddddee" stroke="black" points="8,-64 8,-135 284,-135 284,-64 8,-64"/>
<text text-anchor="middle" x="146" y="-123" font-family="Helvetica,sans-Serif" font-size="10.00">kernels</text>
</a>
</g>
</g>
<!-- dir_d8a9276692541f40c5e98cb1ad842837 -->
<g id="node1" class="node">
<title>dir_d8a9276692541f40c5e98cb1ad842837</title>
<g id="a_node1"><a xlink:href="dir_d8a9276692541f40c5e98cb1ad842837.xhtml" target="_top" xlink:title="a64_u8q_nhwc_5x5_s1_output2x2_mla_depthfirst">
<polygon fill="#eeeeff" stroke="black" points="275.5,-108 16.5,-108 16.5,-72 275.5,-72 275.5,-108"/>
<text text-anchor="middle" x="146" y="-87.5" font-family="Helvetica,sans-Serif" font-size="10.00">a64_u8q_nhwc_5x5_s1_output2x2_mla_depthfirst</text>
</a>
</g>
</g>
<!-- dir_2c61f424fd391396db977702a2beee9a -->
<g id="node2" class="node">
<title>dir_2c61f424fd391396db977702a2beee9a</title>
<g id="a_node2"><a xlink:href="dir_2c61f424fd391396db977702a2beee9a.xhtml" target="_top" xlink:title="cpu">
<polygon fill="white" stroke="red" points="173,-36 119,-36 119,0 173,0 173,-36"/>
<text text-anchor="middle" x="146" y="-15.5" font-family="Helvetica,sans-Serif" font-size="10.00">cpu</text>
</a>
</g>
</g>
<!-- dir_d8a9276692541f40c5e98cb1ad842837&#45;&gt;dir_2c61f424fd391396db977702a2beee9a -->
<g id="edge1" class="edge">
<title>dir_d8a9276692541f40c5e98cb1ad842837&#45;&gt;dir_2c61f424fd391396db977702a2beee9a</title>
<path fill="none" stroke="black" d="M146,-71.7C146,-63.98 146,-54.71 146,-46.11"/>
<polygon fill="black" stroke="black" points="149.5,-46.1 146,-36.1 142.5,-46.1 149.5,-46.1"/>
<g id="a_edge1&#45;headlabel"><a xlink:href="dir_000125_000373.xhtml" target="_top" xlink:title="1">
<text text-anchor="middle" x="152.34" y="-47.2" font-family="Helvetica,sans-Serif" font-size="10.00">1</text>
</a>
</g>
</g>
</g>
</svg>
