<?xml version="1.0" encoding="UTF-8" standalone="no"?>
<!DOCTYPE svg PUBLIC "-//W3C//DTD SVG 1.1//EN"
 "http://www.w3.org/Graphics/SVG/1.1/DTD/svg11.dtd">
<!-- Generated by graphviz version 2.43.0 (0)
 -->
<!-- Title: src/gpu/cl/operators Pages: 1 -->
<svg width="566pt" height="583pt"
 viewBox="0.00 0.00 566.44 583.00" xmlns="http://www.w3.org/2000/svg" xmlns:xlink="http://www.w3.org/1999/xlink">
<g id="graph0" class="graph" transform="scale(1 1) rotate(0) translate(4 579)">
<title>src/gpu/cl/operators</title>
<polygon fill="white" stroke="transparent" points="-4,4 -4,-579 562.44,-579 562.44,4 -4,4"/>
<g id="clust1" class="cluster">
<title>clusterdir_3fd6b49eea07a5dd89d90722d8b4e77f</title>
<g id="a_clust1"><a xlink:href="dir_3fd6b49eea07a5dd89d90722d8b4e77f.xhtml" target="_top" xlink:title="cl">
<polygon fill="#ddddee" stroke="black" points="373.44,-496 373.44,-567 453.44,-567 453.44,-496 373.44,-496"/>
<text text-anchor="middle" x="413.44" y="-555" font-family="Helvetica,sans-Serif" font-size="10.00">cl</text>
</a>
</g>
</g>
<!-- dir_9f6e96fe293420b74afaf1a4dc4f9f82 -->
<g id="node1" class="node">
<title>dir_9f6e96fe293420b74afaf1a4dc4f9f82</title>
<g id="a_node1"><a xlink:href="dir_9f6e96fe293420b74afaf1a4dc4f9f82.xhtml" target="_top" xlink:title="operators">
<polygon fill="#eeeeff" stroke="black" points="444.94,-540 381.94,-540 381.94,-504 444.94,-504 444.94,-540"/>
<text text-anchor="middle" x="413.44" y="-519.5" font-family="Helvetica,sans-Serif" font-size="10.00">operators</text>
</a>
</g>
</g>
<!-- dir_cbdb8362360e11eafe2fa3bc74cf0ffd -->
<g id="node2" class="node">
<title>dir_cbdb8362360e11eafe2fa3bc74cf0ffd</title>
<g id="a_node2"><a xlink:href="dir_cbdb8362360e11eafe2fa3bc74cf0ffd.xhtml" target="_top" xlink:title="utils">
<polygon fill="white" stroke="red" points="158.44,-180 104.44,-180 104.44,-144 158.44,-144 158.44,-180"/>
<text text-anchor="middle" x="131.44" y="-159.5" font-family="Helvetica,sans-Serif" font-size="10.00">utils</text>
</a>
</g>
</g>
<!-- dir_9f6e96fe293420b74afaf1a4dc4f9f82&#45;&gt;dir_cbdb8362360e11eafe2fa3bc74cf0ffd -->
<g id="edge14" class="edge">
<title>dir_9f6e96fe293420b74afaf1a4dc4f9f82&#45;&gt;dir_cbdb8362360e11eafe2fa3bc74cf0ffd</title>
<path fill="none" stroke="black" d="M381.77,-519.06C338.77,-515.13 260.92,-503.32 205.44,-468 170.54,-445.78 165.26,-432.84 146.44,-396 112.04,-328.66 119.81,-235.74 126.56,-190.28"/>
<polygon fill="black" stroke="black" points="130.03,-190.72 128.14,-180.29 123.12,-189.62 130.03,-190.72"/>
<g id="a_edge14&#45;headlabel"><a xlink:href="dir_000068_000041.xhtml" target="_top" xlink:title="1">
<text text-anchor="middle" x="132.27" y="-192.21" font-family="Helvetica,sans-Serif" font-size="10.00">1</text>
</a>
</g>
</g>
<!-- dir_d31afe59158d6d6f352f20563e96492f -->
<g id="node3" class="node">
<title>dir_d31afe59158d6d6f352f20563e96492f</title>
<g id="a_node3"><a xlink:href="dir_d31afe59158d6d6f352f20563e96492f.xhtml" target="_top" xlink:title="kernels">
<polygon fill="white" stroke="red" points="289.44,-468 235.44,-468 235.44,-432 289.44,-432 289.44,-468"/>
<text text-anchor="middle" x="262.44" y="-447.5" font-family="Helvetica,sans-Serif" font-size="10.00">kernels</text>
</a>
</g>
</g>
<!-- dir_9f6e96fe293420b74afaf1a4dc4f9f82&#45;&gt;dir_d31afe59158d6d6f352f20563e96492f -->
<g id="edge15" class="edge">
<title>dir_9f6e96fe293420b74afaf1a4dc4f9f82&#45;&gt;dir_d31afe59158d6d6f352f20563e96492f</title>
<path fill="none" stroke="black" d="M381.78,-506.33C357.55,-495.09 324.1,-479.58 298.77,-467.84"/>
<polygon fill="black" stroke="black" points="300.05,-464.58 289.5,-463.55 297.1,-470.93 300.05,-464.58"/>
<g id="a_edge15&#45;headlabel"><a xlink:href="dir_000068_000497.xhtml" target="_top" xlink:title="63">
<text text-anchor="middle" x="304.5" y="-461.01" font-family="Helvetica,sans-Serif" font-size="10.00">63</text>
</a>
</g>
</g>
<!-- dir_3e844ad8e05c9b398761680402f65ecd -->
<g id="node4" class="node">
<title>dir_3e844ad8e05c9b398761680402f65ecd</title>
<g id="a_node4"><a xlink:href="dir_3e844ad8e05c9b398761680402f65ecd.xhtml" target="_top" xlink:title="utils">
<polygon fill="none" stroke="black" points="492.44,-324 438.44,-324 438.44,-288 492.44,-288 492.44,-324"/>
<text text-anchor="middle" x="465.44" y="-303.5" font-family="Helvetica,sans-Serif" font-size="10.00">utils</text>
</a>
</g>
</g>
<!-- dir_9f6e96fe293420b74afaf1a4dc4f9f82&#45;&gt;dir_3e844ad8e05c9b398761680402f65ecd -->
<g id="edge16" class="edge">
<title>dir_9f6e96fe293420b74afaf1a4dc4f9f82&#45;&gt;dir_3e844ad8e05c9b398761680402f65ecd</title>
<path fill="none" stroke="black" d="M426.83,-503.85C433.86,-493.93 441.92,-480.89 446.44,-468 462.17,-423.14 465.41,-367.39 465.8,-334.65"/>
<polygon fill="black" stroke="black" points="469.3,-334.49 465.83,-324.47 462.3,-334.46 469.3,-334.49"/>
<g id="a_edge16&#45;headlabel"><a xlink:href="dir_000068_000503.xhtml" target="_top" xlink:title="7">
<text text-anchor="middle" x="472.13" y="-335.59" font-family="Helvetica,sans-Serif" font-size="10.00">7</text>
</a>
</g>
</g>
<!-- dir_214608ef36d61442cb2b0c1c4e9a7def -->
<g id="node5" class="node">
<title>dir_214608ef36d61442cb2b0c1c4e9a7def</title>
<g id="a_node5"><a xlink:href="dir_214608ef36d61442cb2b0c1c4e9a7def.xhtml" target="_top" xlink:title="arm_compute">
<polygon fill="white" stroke="red" points="339.44,-108 255.44,-108 255.44,-72 339.44,-72 339.44,-108"/>
<text text-anchor="middle" x="297.44" y="-87.5" font-family="Helvetica,sans-Serif" font-size="10.00">arm_compute</text>
</a>
</g>
</g>
<!-- dir_9f6e96fe293420b74afaf1a4dc4f9f82&#45;&gt;dir_214608ef36d61442cb2b0c1c4e9a7def -->
<g id="edge17" class="edge">
<title>dir_9f6e96fe293420b74afaf1a4dc4f9f82&#45;&gt;dir_214608ef36d61442cb2b0c1c4e9a7def</title>
<path fill="none" stroke="black" d="M438.26,-503.98C469.86,-480.07 520.44,-433.33 520.44,-379 520.44,-379 520.44,-379 520.44,-305 520.44,-226.25 504.55,-197.15 446.44,-144 419.66,-119.5 380.8,-106.17 349.49,-99.01"/>
<polygon fill="black" stroke="black" points="350.12,-95.57 339.61,-96.89 348.65,-102.41 350.12,-95.57"/>
<g id="a_edge17&#45;headlabel"><a xlink:href="dir_000068_000000.xhtml" target="_top" xlink:title="93">
<text text-anchor="middle" x="354.23" y="-91.04" font-family="Helvetica,sans-Serif" font-size="10.00">93</text>
</a>
</g>
</g>
<!-- dir_aebb8dcc11953d78e620bbef0b9e2183 -->
<g id="node6" class="node">
<title>dir_aebb8dcc11953d78e620bbef0b9e2183</title>
<g id="a_node6"><a xlink:href="dir_aebb8dcc11953d78e620bbef0b9e2183.xhtml" target="_top" xlink:title="core">
<polygon fill="white" stroke="red" points="344.44,-324 290.44,-324 290.44,-288 344.44,-288 344.44,-324"/>
<text text-anchor="middle" x="317.44" y="-303.5" font-family="Helvetica,sans-Serif" font-size="10.00">core</text>
</a>
</g>
</g>
<!-- dir_9f6e96fe293420b74afaf1a4dc4f9f82&#45;&gt;dir_aebb8dcc11953d78e620bbef0b9e2183 -->
<g id="edge18" class="edge">
<title>dir_9f6e96fe293420b74afaf1a4dc4f9f82&#45;&gt;dir_aebb8dcc11953d78e620bbef0b9e2183</title>
<path fill="none" stroke="black" d="M405.74,-503.85C389.03,-466.6 349.32,-378.07 329.34,-333.54"/>
<polygon fill="black" stroke="black" points="332.46,-331.92 325.17,-324.23 326.07,-334.79 332.46,-331.92"/>
<g id="a_edge18&#45;headlabel"><a xlink:href="dir_000068_000020.xhtml" target="_top" xlink:title="19">
<text text-anchor="middle" x="336.52" y="-331.54" font-family="Helvetica,sans-Serif" font-size="10.00">19</text>
</a>
</g>
</g>
<!-- dir_bf9f26469d00835ba20ff8d80ee5a804 -->
<g id="node7" class="node">
<title>dir_bf9f26469d00835ba20ff8d80ee5a804</title>
<g id="a_node7"><a xlink:href="dir_bf9f26469d00835ba20ff8d80ee5a804.xhtml" target="_top" xlink:title="runtime">
<polygon fill="white" stroke="red" points="233.94,-396 178.94,-396 178.94,-360 233.94,-360 233.94,-396"/>
<text text-anchor="middle" x="206.44" y="-375.5" font-family="Helvetica,sans-Serif" font-size="10.00">runtime</text>
</a>
</g>
</g>
<!-- dir_9f6e96fe293420b74afaf1a4dc4f9f82&#45;&gt;dir_bf9f26469d00835ba20ff8d80ee5a804 -->
<g id="edge19" class="edge">
<title>dir_9f6e96fe293420b74afaf1a4dc4f9f82&#45;&gt;dir_bf9f26469d00835ba20ff8d80ee5a804</title>
<path fill="none" stroke="black" d="M381.67,-521.33C339.92,-519.96 267.14,-511.01 226.44,-468 210.92,-451.6 206.48,-425.86 205.6,-406.27"/>
<polygon fill="black" stroke="black" points="209.09,-406.05 205.42,-396.11 202.1,-406.17 209.09,-406.05"/>
<g id="a_edge19&#45;headlabel"><a xlink:href="dir_000068_000036.xhtml" target="_top" xlink:title="12">
<text text-anchor="middle" x="211.99" y="-407.1" font-family="Helvetica,sans-Serif" font-size="10.00">12</text>
</a>
</g>
</g>
<!-- dir_5815af820a9cc9481f1d0990a0d60286 -->
<g id="node8" class="node">
<title>dir_5815af820a9cc9481f1d0990a0d60286</title>
<g id="a_node8"><a xlink:href="dir_5815af820a9cc9481f1d0990a0d60286.xhtml" target="_top" xlink:title="support">
<polygon fill="none" stroke="black" points="251.44,-36 197.44,-36 197.44,0 251.44,0 251.44,-36"/>
<text text-anchor="middle" x="224.44" y="-15.5" font-family="Helvetica,sans-Serif" font-size="10.00">support</text>
</a>
</g>
</g>
<!-- dir_9f6e96fe293420b74afaf1a4dc4f9f82&#45;&gt;dir_5815af820a9cc9481f1d0990a0d60286 -->
<g id="edge20" class="edge">
<title>dir_9f6e96fe293420b74afaf1a4dc4f9f82&#45;&gt;dir_5815af820a9cc9481f1d0990a0d60286</title>
<path fill="none" stroke="black" d="M445.26,-507.13C487.94,-486.12 558.44,-441.89 558.44,-379 558.44,-379 558.44,-379 558.44,-161 558.44,-33.22 348.85,-18.78 261.73,-18.29"/>
<polygon fill="black" stroke="black" points="261.49,-14.79 251.49,-18.3 261.49,-21.79 261.49,-14.79"/>
<g id="a_edge20&#45;headlabel"><a xlink:href="dir_000068_000032.xhtml" target="_top" xlink:title="5">
<text text-anchor="middle" x="265.08" y="-9.45" font-family="Helvetica,sans-Serif" font-size="10.00">5</text>
</a>
</g>
</g>
<!-- dir_fdedb0aba14d44ce9d99bc100e026e6a -->
<g id="node9" class="node">
<title>dir_fdedb0aba14d44ce9d99bc100e026e6a</title>
<g id="a_node9"><a xlink:href="dir_fdedb0aba14d44ce9d99bc100e026e6a.xhtml" target="_top" xlink:title="common">
<polygon fill="white" stroke="red" points="311.94,-252 252.94,-252 252.94,-216 311.94,-216 311.94,-252"/>
<text text-anchor="middle" x="282.44" y="-231.5" font-family="Helvetica,sans-Serif" font-size="10.00">common</text>
</a>
</g>
</g>
<!-- dir_9f6e96fe293420b74afaf1a4dc4f9f82&#45;&gt;dir_fdedb0aba14d44ce9d99bc100e026e6a -->
<g id="edge21" class="edge">
<title>dir_9f6e96fe293420b74afaf1a4dc4f9f82&#45;&gt;dir_fdedb0aba14d44ce9d99bc100e026e6a</title>
<path fill="none" stroke="black" d="M412.99,-503.83C411.14,-462.83 401.66,-357.49 353.44,-288 344.9,-275.7 332.59,-265.08 320.6,-256.66"/>
<polygon fill="black" stroke="black" points="322.26,-253.55 311.99,-250.91 318.37,-259.38 322.26,-253.55"/>
<g id="a_edge21&#45;headlabel"><a xlink:href="dir_000068_000019.xhtml" target="_top" xlink:title="37">
<text text-anchor="middle" x="326.82" y="-250.69" font-family="Helvetica,sans-Serif" font-size="10.00">37</text>
</a>
</g>
</g>
<!-- dir_cbdb8362360e11eafe2fa3bc74cf0ffd&#45;&gt;dir_214608ef36d61442cb2b0c1c4e9a7def -->
<g id="edge1" class="edge">
<title>dir_cbdb8362360e11eafe2fa3bc74cf0ffd&#45;&gt;dir_214608ef36d61442cb2b0c1c4e9a7def</title>
<path fill="none" stroke="black" d="M158.73,-147.17C182.34,-136.61 216.95,-121.93 245.74,-110.23"/>
<polygon fill="black" stroke="black" points="247.3,-113.37 255.26,-106.38 244.67,-106.88 247.3,-113.37"/>
<g id="a_edge1&#45;headlabel"><a xlink:href="dir_000041_000000.xhtml" target="_top" xlink:title="50">
<text text-anchor="middle" x="245.03" y="-114.85" font-family="Helvetica,sans-Serif" font-size="10.00">50</text>
</a>
</g>
</g>
<!-- dir_cbdb8362360e11eafe2fa3bc74cf0ffd&#45;&gt;dir_5815af820a9cc9481f1d0990a0d60286 -->
<g id="edge2" class="edge">
<title>dir_cbdb8362360e11eafe2fa3bc74cf0ffd&#45;&gt;dir_5815af820a9cc9481f1d0990a0d60286</title>
<path fill="none" stroke="black" d="M137.38,-143.68C144.23,-125.03 156.6,-94.97 172.44,-72 179.51,-61.74 188.66,-51.67 197.31,-43.11"/>
<polygon fill="black" stroke="black" points="199.92,-45.46 204.71,-36.01 195.07,-40.41 199.92,-45.46"/>
<g id="a_edge2&#45;headlabel"><a xlink:href="dir_000041_000032.xhtml" target="_top" xlink:title="4">
<text text-anchor="middle" x="199.29" y="-47.5" font-family="Helvetica,sans-Serif" font-size="10.00">4</text>
</a>
</g>
</g>
<!-- dir_d31afe59158d6d6f352f20563e96492f&#45;&gt;dir_cbdb8362360e11eafe2fa3bc74cf0ffd -->
<g id="edge3" class="edge">
<title>dir_d31afe59158d6d6f352f20563e96492f&#45;&gt;dir_cbdb8362360e11eafe2fa3bc74cf0ffd</title>
<path fill="none" stroke="black" d="M235.04,-440.31C213.92,-432.19 185.66,-417.98 169.44,-396 123.61,-333.89 124.64,-237.06 128.39,-190.22"/>
<polygon fill="black" stroke="black" points="131.88,-190.49 129.3,-180.22 124.91,-189.86 131.88,-190.49"/>
<g id="a_edge3&#45;headlabel"><a xlink:href="dir_000497_000041.xhtml" target="_top" xlink:title="1">
<text text-anchor="middle" x="134.39" y="-191.83" font-family="Helvetica,sans-Serif" font-size="10.00">1</text>
</a>
</g>
</g>
<!-- dir_d31afe59158d6d6f352f20563e96492f&#45;&gt;dir_214608ef36d61442cb2b0c1c4e9a7def -->
<g id="edge4" class="edge">
<title>dir_d31afe59158d6d6f352f20563e96492f&#45;&gt;dir_214608ef36d61442cb2b0c1c4e9a7def</title>
<path fill="none" stroke="black" d="M281.66,-431.89C304.76,-409.76 341.86,-368.69 353.44,-324 366.64,-273.06 343.58,-188.66 327.44,-144 324.15,-134.9 319.37,-125.53 314.6,-117.24"/>
<polygon fill="black" stroke="black" points="317.45,-115.19 309.29,-108.43 311.45,-118.8 317.45,-115.19"/>
<g id="a_edge4&#45;headlabel"><a xlink:href="dir_000497_000000.xhtml" target="_top" xlink:title="380">
<text text-anchor="middle" x="321.73" y="-114.3" font-family="Helvetica,sans-Serif" font-size="10.00">380</text>
</a>
</g>
</g>
<!-- dir_d31afe59158d6d6f352f20563e96492f&#45;&gt;dir_aebb8dcc11953d78e620bbef0b9e2183 -->
<g id="edge5" class="edge">
<title>dir_d31afe59158d6d6f352f20563e96492f&#45;&gt;dir_aebb8dcc11953d78e620bbef0b9e2183</title>
<path fill="none" stroke="black" d="M264.49,-431.87C271.39,-407.35 288.68,-362.03 301.89,-333.26"/>
<polygon fill="black" stroke="black" points="305.07,-334.72 306.19,-324.19 298.74,-331.72 305.07,-334.72"/>
<g id="a_edge5&#45;headlabel"><a xlink:href="dir_000497_000020.xhtml" target="_top" xlink:title="216">
<text text-anchor="middle" x="306.09" y="-336.69" font-family="Helvetica,sans-Serif" font-size="10.00">216</text>
</a>
</g>
</g>
<!-- dir_d31afe59158d6d6f352f20563e96492f&#45;&gt;dir_bf9f26469d00835ba20ff8d80ee5a804 -->
<g id="edge6" class="edge">
<title>dir_d31afe59158d6d6f352f20563e96492f&#45;&gt;dir_bf9f26469d00835ba20ff8d80ee5a804</title>
<path fill="none" stroke="black" d="M242.68,-431.7C235.25,-423.47 227.06,-413.48 220.26,-404.42"/>
<polygon fill="black" stroke="black" points="222.93,-402.15 214.23,-396.1 217.26,-406.26 222.93,-402.15"/>
<g id="a_edge6&#45;headlabel"><a xlink:href="dir_000497_000036.xhtml" target="_top" xlink:title="1">
<text text-anchor="middle" x="227.34" y="-400.89" font-family="Helvetica,sans-Serif" font-size="10.00">1</text>
</a>
</g>
</g>
<!-- dir_d31afe59158d6d6f352f20563e96492f&#45;&gt;dir_5815af820a9cc9481f1d0990a0d60286 -->
<g id="edge7" class="edge">
<title>dir_d31afe59158d6d6f352f20563e96492f&#45;&gt;dir_5815af820a9cc9481f1d0990a0d60286</title>
<path fill="none" stroke="black" d="M235.39,-438.64C174.99,-414.68 34.44,-353.87 34.44,-307 34.44,-307 34.44,-307 34.44,-161 34.44,-85.4 132.14,-45.21 187.42,-28.51"/>
<polygon fill="black" stroke="black" points="188.59,-31.82 197.22,-25.67 186.64,-25.1 188.59,-31.82"/>
<g id="a_edge7&#45;headlabel"><a xlink:href="dir_000497_000032.xhtml" target="_top" xlink:title="101">
<text text-anchor="middle" x="185.93" y="-33.05" font-family="Helvetica,sans-Serif" font-size="10.00">101</text>
</a>
</g>
</g>
<!-- dir_d31afe59158d6d6f352f20563e96492f&#45;&gt;dir_fdedb0aba14d44ce9d99bc100e026e6a -->
<g id="edge8" class="edge">
<title>dir_d31afe59158d6d6f352f20563e96492f&#45;&gt;dir_fdedb0aba14d44ce9d99bc100e026e6a</title>
<path fill="none" stroke="black" d="M264.04,-431.85C267.5,-394.83 275.69,-307.18 279.88,-262.39"/>
<polygon fill="black" stroke="black" points="283.38,-262.51 280.83,-252.23 276.41,-261.86 283.38,-262.51"/>
<g id="a_edge8&#45;headlabel"><a xlink:href="dir_000497_000019.xhtml" target="_top" xlink:title="3">
<text text-anchor="middle" x="285.87" y="-263.86" font-family="Helvetica,sans-Serif" font-size="10.00">3</text>
</a>
</g>
</g>
<!-- dir_3e844ad8e05c9b398761680402f65ecd&#45;&gt;dir_214608ef36d61442cb2b0c1c4e9a7def -->
<g id="edge9" class="edge">
<title>dir_3e844ad8e05c9b398761680402f65ecd&#45;&gt;dir_214608ef36d61442cb2b0c1c4e9a7def</title>
<path fill="none" stroke="black" d="M465.28,-287.71C464.09,-255.54 457.11,-185.96 420.44,-144 402.07,-122.98 373.87,-110.02 349.11,-102.18"/>
<polygon fill="black" stroke="black" points="350.05,-98.81 339.46,-99.32 348.06,-105.52 350.05,-98.81"/>
<g id="a_edge9&#45;headlabel"><a xlink:href="dir_000503_000000.xhtml" target="_top" xlink:title="3">
<text text-anchor="middle" x="354.3" y="-94.6" font-family="Helvetica,sans-Serif" font-size="10.00">3</text>
</a>
</g>
</g>
<!-- dir_3e844ad8e05c9b398761680402f65ecd&#45;&gt;dir_5815af820a9cc9481f1d0990a0d60286 -->
<g id="edge10" class="edge">
<title>dir_3e844ad8e05c9b398761680402f65ecd&#45;&gt;dir_5815af820a9cc9481f1d0990a0d60286</title>
<path fill="none" stroke="black" d="M468.37,-287.86C472.78,-256.25 477.62,-187.96 446.44,-144 401.08,-80.04 312.07,-44.72 261.63,-29.04"/>
<polygon fill="black" stroke="black" points="262.37,-25.61 251.78,-26.08 260.35,-32.31 262.37,-25.61"/>
<g id="a_edge10&#45;headlabel"><a xlink:href="dir_000503_000032.xhtml" target="_top" xlink:title="1">
<text text-anchor="middle" x="266.63" y="-21.43" font-family="Helvetica,sans-Serif" font-size="10.00">1</text>
</a>
</g>
</g>
<!-- dir_3e844ad8e05c9b398761680402f65ecd&#45;&gt;dir_fdedb0aba14d44ce9d99bc100e026e6a -->
<g id="edge11" class="edge">
<title>dir_3e844ad8e05c9b398761680402f65ecd&#45;&gt;dir_fdedb0aba14d44ce9d99bc100e026e6a</title>
<path fill="none" stroke="black" d="M438.44,-294.67C407.54,-282.85 356.67,-263.4 321.47,-249.93"/>
<polygon fill="black" stroke="black" points="322.57,-246.6 311.98,-246.3 320.07,-253.14 322.57,-246.6"/>
<g id="a_edge11&#45;headlabel"><a xlink:href="dir_000503_000019.xhtml" target="_top" xlink:title="1">
<text text-anchor="middle" x="326.94" y="-242.74" font-family="Helvetica,sans-Serif" font-size="10.00">1</text>
</a>
</g>
</g>
<!-- dir_214608ef36d61442cb2b0c1c4e9a7def&#45;&gt;dir_cbdb8362360e11eafe2fa3bc74cf0ffd -->
<g id="edge12" class="edge">
<title>dir_214608ef36d61442cb2b0c1c4e9a7def&#45;&gt;dir_cbdb8362360e11eafe2fa3bc74cf0ffd</title>
<path fill="none" stroke="black" d="M262.86,-108.07C235.12,-120.31 196.43,-136.55 168.15,-147.8"/>
<polygon fill="black" stroke="black" points="166.64,-144.64 158.61,-151.56 169.2,-151.15 166.64,-144.64"/>
<g id="a_edge12&#45;headlabel"><a xlink:href="dir_000000_000041.xhtml" target="_top" xlink:title="1">
<text text-anchor="middle" x="168.94" y="-138.18" font-family="Helvetica,sans-Serif" font-size="10.00">1</text>
</a>
</g>
</g>
<!-- dir_214608ef36d61442cb2b0c1c4e9a7def&#45;&gt;dir_5815af820a9cc9481f1d0990a0d60286 -->
<g id="edge13" class="edge">
<title>dir_214608ef36d61442cb2b0c1c4e9a7def&#45;&gt;dir_5815af820a9cc9481f1d0990a0d60286</title>
<path fill="none" stroke="black" d="M273.48,-71.7C263.67,-63.14 252.56,-52.66 243.32,-43.3"/>
<polygon fill="black" stroke="black" points="245.84,-40.87 236.38,-36.1 240.8,-45.73 245.84,-40.87"/>
<g id="a_edge13&#45;headlabel"><a xlink:href="dir_000000_000032.xhtml" target="_top" xlink:title="18">
<text text-anchor="middle" x="250.38" y="-38.99" font-family="Helvetica,sans-Serif" font-size="10.00">18</text>
</a>
</g>
</g>
<!-- dir_aebb8dcc11953d78e620bbef0b9e2183&#45;&gt;dir_d31afe59158d6d6f352f20563e96492f -->
<g id="edge22" class="edge">
<title>dir_aebb8dcc11953d78e620bbef0b9e2183&#45;&gt;dir_d31afe59158d6d6f352f20563e96492f</title>
<path fill="none" stroke="black" d="M315.37,-324.19C308.45,-348.74 291.16,-394.07 277.96,-422.81"/>
<polygon fill="black" stroke="black" points="274.78,-421.34 273.66,-431.87 281.11,-424.34 274.78,-421.34"/>
<g id="a_edge22&#45;headlabel"><a xlink:href="dir_000020_000497.xhtml" target="_top" xlink:title="1">
<text text-anchor="middle" x="273.76" y="-414.37" font-family="Helvetica,sans-Serif" font-size="10.00">1</text>
</a>
</g>
</g>
<!-- dir_aebb8dcc11953d78e620bbef0b9e2183&#45;&gt;dir_214608ef36d61442cb2b0c1c4e9a7def -->
<g id="edge23" class="edge">
<title>dir_aebb8dcc11953d78e620bbef0b9e2183&#45;&gt;dir_214608ef36d61442cb2b0c1c4e9a7def</title>
<path fill="none" stroke="black" d="M318.66,-287.82C319.33,-277.46 320.1,-263.98 320.44,-252 320.89,-236.01 321.89,-231.93 320.44,-216 317.33,-181.97 309.57,-143.36 303.92,-118.17"/>
<polygon fill="black" stroke="black" points="307.29,-117.22 301.64,-108.25 300.47,-118.78 307.29,-117.22"/>
<g id="a_edge23&#45;headlabel"><a xlink:href="dir_000020_000000.xhtml" target="_top" xlink:title="609">
<text text-anchor="middle" x="310.86" y="-117.59" font-family="Helvetica,sans-Serif" font-size="10.00">609</text>
</a>
</g>
</g>
<!-- dir_aebb8dcc11953d78e620bbef0b9e2183&#45;&gt;dir_5815af820a9cc9481f1d0990a0d60286 -->
<g id="edge24" class="edge">
<title>dir_aebb8dcc11953d78e620bbef0b9e2183&#45;&gt;dir_5815af820a9cc9481f1d0990a0d60286</title>
<path fill="none" stroke="black" d="M290.15,-292.92C273.66,-284.08 253.87,-270.43 243.44,-252 206.04,-185.96 213.14,-92.07 219.68,-46.26"/>
<polygon fill="black" stroke="black" points="223.17,-46.62 221.23,-36.21 216.25,-45.56 223.17,-46.62"/>
<g id="a_edge24&#45;headlabel"><a xlink:href="dir_000020_000032.xhtml" target="_top" xlink:title="56">
<text text-anchor="middle" x="225.43" y="-48.1" font-family="Helvetica,sans-Serif" font-size="10.00">56</text>
</a>
</g>
</g>
<!-- dir_aebb8dcc11953d78e620bbef0b9e2183&#45;&gt;dir_fdedb0aba14d44ce9d99bc100e026e6a -->
<g id="edge25" class="edge">
<title>dir_aebb8dcc11953d78e620bbef0b9e2183&#45;&gt;dir_fdedb0aba14d44ce9d99bc100e026e6a</title>
<path fill="none" stroke="black" d="M308.79,-287.7C304.8,-279.73 299.99,-270.1 295.57,-261.26"/>
<polygon fill="black" stroke="black" points="298.59,-259.48 290.99,-252.1 292.33,-262.61 298.59,-259.48"/>
<g id="a_edge25&#45;headlabel"><a xlink:href="dir_000020_000019.xhtml" target="_top" xlink:title="5">
<text text-anchor="middle" x="302.74" y="-258.93" font-family="Helvetica,sans-Serif" font-size="10.00">5</text>
</a>
</g>
</g>
<!-- dir_bf9f26469d00835ba20ff8d80ee5a804&#45;&gt;dir_cbdb8362360e11eafe2fa3bc74cf0ffd -->
<g id="edge26" class="edge">
<title>dir_bf9f26469d00835ba20ff8d80ee5a804&#45;&gt;dir_cbdb8362360e11eafe2fa3bc74cf0ffd</title>
<path fill="none" stroke="black" d="M193.29,-359.65C186.25,-349.67 177.93,-336.63 172.44,-324 152.92,-279.08 141.26,-222.92 135.62,-190.19"/>
<polygon fill="black" stroke="black" points="139.02,-189.33 133.93,-180.04 132.11,-190.48 139.02,-189.33"/>
<g id="a_edge26&#45;headlabel"><a xlink:href="dir_000036_000041.xhtml" target="_top" xlink:title="1">
<text text-anchor="middle" x="142.41" y="-189.91" font-family="Helvetica,sans-Serif" font-size="10.00">1</text>
</a>
</g>
</g>
<!-- dir_bf9f26469d00835ba20ff8d80ee5a804&#45;&gt;dir_d31afe59158d6d6f352f20563e96492f -->
<g id="edge27" class="edge">
<title>dir_bf9f26469d00835ba20ff8d80ee5a804&#45;&gt;dir_d31afe59158d6d6f352f20563e96492f</title>
<path fill="none" stroke="black" d="M226.02,-396.1C233.43,-404.3 241.63,-414.28 248.46,-423.36"/>
<polygon fill="black" stroke="black" points="245.8,-425.66 254.51,-431.7 251.47,-421.55 245.8,-425.66"/>
<g id="a_edge27&#45;headlabel"><a xlink:href="dir_000036_000497.xhtml" target="_top" xlink:title="15">
<text text-anchor="middle" x="241.39" y="-421.92" font-family="Helvetica,sans-Serif" font-size="10.00">15</text>
</a>
</g>
</g>
<!-- dir_bf9f26469d00835ba20ff8d80ee5a804&#45;&gt;dir_214608ef36d61442cb2b0c1c4e9a7def -->
<g id="edge28" class="edge">
<title>dir_bf9f26469d00835ba20ff8d80ee5a804&#45;&gt;dir_214608ef36d61442cb2b0c1c4e9a7def</title>
<path fill="none" stroke="black" d="M209.33,-359.8C214.56,-330.05 226.64,-267.23 243.44,-216 254.95,-180.9 272.53,-142.08 284.48,-117.15"/>
<polygon fill="black" stroke="black" points="287.7,-118.53 288.91,-108.01 281.4,-115.48 287.7,-118.53"/>
<g id="a_edge28&#45;headlabel"><a xlink:href="dir_000036_000000.xhtml" target="_top" xlink:title="945">
<text text-anchor="middle" x="288.69" y="-120.5" font-family="Helvetica,sans-Serif" font-size="10.00">945</text>
</a>
</g>
</g>
<!-- dir_bf9f26469d00835ba20ff8d80ee5a804&#45;&gt;dir_aebb8dcc11953d78e620bbef0b9e2183 -->
<g id="edge29" class="edge">
<title>dir_bf9f26469d00835ba20ff8d80ee5a804&#45;&gt;dir_aebb8dcc11953d78e620bbef0b9e2183</title>
<path fill="none" stroke="black" d="M233.59,-359.88C247.97,-350.81 265.82,-339.55 281.35,-329.76"/>
<polygon fill="black" stroke="black" points="283.59,-332.48 290.18,-324.19 279.86,-326.56 283.59,-332.48"/>
<g id="a_edge29&#45;headlabel"><a xlink:href="dir_000036_000020.xhtml" target="_top" xlink:title="214">
<text text-anchor="middle" x="282.06" y="-334.3" font-family="Helvetica,sans-Serif" font-size="10.00">214</text>
</a>
</g>
</g>
<!-- dir_bf9f26469d00835ba20ff8d80ee5a804&#45;&gt;dir_5815af820a9cc9481f1d0990a0d60286 -->
<g id="edge30" class="edge">
<title>dir_bf9f26469d00835ba20ff8d80ee5a804&#45;&gt;dir_5815af820a9cc9481f1d0990a0d60286</title>
<path fill="none" stroke="black" d="M181.43,-359.96C114.46,-312.28 -58.67,-174.29 20.44,-72 40.69,-45.81 134.22,-30.17 187.33,-23.24"/>
<polygon fill="black" stroke="black" points="187.9,-26.7 197.38,-21.97 187.02,-19.76 187.9,-26.7"/>
<g id="a_edge30&#45;headlabel"><a xlink:href="dir_000036_000032.xhtml" target="_top" xlink:title="8">
<text text-anchor="middle" x="184.69" y="-27.47" font-family="Helvetica,sans-Serif" font-size="10.00">8</text>
</a>
</g>
</g>
<!-- dir_bf9f26469d00835ba20ff8d80ee5a804&#45;&gt;dir_fdedb0aba14d44ce9d99bc100e026e6a -->
<g id="edge31" class="edge">
<title>dir_bf9f26469d00835ba20ff8d80ee5a804&#45;&gt;dir_fdedb0aba14d44ce9d99bc100e026e6a</title>
<path fill="none" stroke="black" d="M213.7,-359.94C221.61,-341.78 234.95,-312.36 248.44,-288 253.47,-278.91 259.45,-269.27 264.98,-260.74"/>
<polygon fill="black" stroke="black" points="267.95,-262.6 270.52,-252.32 262.1,-258.75 267.95,-262.6"/>
<g id="a_edge31&#45;headlabel"><a xlink:href="dir_000036_000019.xhtml" target="_top" xlink:title="127">
<text text-anchor="middle" x="268.34" y="-264.66" font-family="Helvetica,sans-Serif" font-size="10.00">127</text>
</a>
</g>
</g>
<!-- dir_5815af820a9cc9481f1d0990a0d60286&#45;&gt;dir_214608ef36d61442cb2b0c1c4e9a7def -->
<g id="edge32" class="edge">
<title>dir_5815af820a9cc9481f1d0990a0d60286&#45;&gt;dir_214608ef36d61442cb2b0c1c4e9a7def</title>
<path fill="none" stroke="black" d="M248.17,-36.1C257.96,-44.64 269.08,-55.11 278.34,-64.48"/>
<polygon fill="black" stroke="black" points="275.85,-66.93 285.31,-71.7 280.88,-62.07 275.85,-66.93"/>
<g id="a_edge32&#45;headlabel"><a xlink:href="dir_000032_000000.xhtml" target="_top" xlink:title="6">
<text text-anchor="middle" x="271.31" y="-63.82" font-family="Helvetica,sans-Serif" font-size="10.00">6</text>
</a>
</g>
</g>
<!-- dir_fdedb0aba14d44ce9d99bc100e026e6a&#45;&gt;dir_cbdb8362360e11eafe2fa3bc74cf0ffd -->
<g id="edge33" class="edge">
<title>dir_fdedb0aba14d44ce9d99bc100e026e6a&#45;&gt;dir_cbdb8362360e11eafe2fa3bc74cf0ffd</title>
<path fill="none" stroke="black" d="M252.61,-219.17C228.26,-207.89 193.78,-191.9 167.82,-179.86"/>
<polygon fill="black" stroke="black" points="169.22,-176.66 158.67,-175.62 166.27,-183.01 169.22,-176.66"/>
<g id="a_edge33&#45;headlabel"><a xlink:href="dir_000019_000041.xhtml" target="_top" xlink:title="1">
<text text-anchor="middle" x="173.67" y="-173.09" font-family="Helvetica,sans-Serif" font-size="10.00">1</text>
</a>
</g>
</g>
<!-- dir_fdedb0aba14d44ce9d99bc100e026e6a&#45;&gt;dir_214608ef36d61442cb2b0c1c4e9a7def -->
<g id="edge34" class="edge">
<title>dir_fdedb0aba14d44ce9d99bc100e026e6a&#45;&gt;dir_214608ef36d61442cb2b0c1c4e9a7def</title>
<path fill="none" stroke="black" d="M284.25,-215.87C286.8,-191.67 291.5,-147.21 294.55,-118.39"/>
<polygon fill="black" stroke="black" points="298.05,-118.5 295.62,-108.19 291.09,-117.77 298.05,-118.5"/>
<g id="a_edge34&#45;headlabel"><a xlink:href="dir_000019_000000.xhtml" target="_top" xlink:title="17">
<text text-anchor="middle" x="300.5" y="-119.87" font-family="Helvetica,sans-Serif" font-size="10.00">17</text>
</a>
</g>
</g>
<!-- dir_fdedb0aba14d44ce9d99bc100e026e6a&#45;&gt;dir_5815af820a9cc9481f1d0990a0d60286 -->
<g id="edge35" class="edge">
<title>dir_fdedb0aba14d44ce9d99bc100e026e6a&#45;&gt;dir_5815af820a9cc9481f1d0990a0d60286</title>
<path fill="none" stroke="black" d="M277.22,-215.67C270.02,-191.59 256.77,-146.62 246.44,-108 240.92,-87.37 235.14,-63.92 230.9,-46.27"/>
<polygon fill="black" stroke="black" points="234.2,-45.02 228.46,-36.11 227.39,-46.65 234.2,-45.02"/>
<g id="a_edge35&#45;headlabel"><a xlink:href="dir_000019_000032.xhtml" target="_top" xlink:title="2">
<text text-anchor="middle" x="237.79" y="-45.36" font-family="Helvetica,sans-Serif" font-size="10.00">2</text>
</a>
</g>
</g>
</g>
</svg>
