<?xml version="1.0" encoding="UTF-8" standalone="no"?>
<!DOCTYPE svg PUBLIC "-//W3C//DTD SVG 1.1//EN"
 "http://www.w3.org/Graphics/SVG/1.1/DTD/svg11.dtd">
<!-- Generated by graphviz version 2.43.0 (0)
 -->
<!-- Title: src/cpu/kernels/activation/generic/neon Pages: 1 -->
<svg width="172pt" height="223pt"
 viewBox="0.00 0.00 172.00 223.00" xmlns="http://www.w3.org/2000/svg" xmlns:xlink="http://www.w3.org/1999/xlink">
<g id="graph0" class="graph" transform="scale(1 1) rotate(0) translate(4 219)">
<title>src/cpu/kernels/activation/generic/neon</title>
<polygon fill="white" stroke="transparent" points="-4,4 -4,-219 168,-219 168,4 -4,4"/>
<g id="clust1" class="cluster">
<title>clusterdir_0eda15e1c70fe142771981aa2f90fcba</title>
<g id="a_clust1"><a xlink:href="dir_0eda15e1c70fe142771981aa2f90fcba.xhtml" target="_top" xlink:title="generic">
<polygon fill="#ddddee" stroke="black" points="47,-136 47,-207 117,-207 117,-136 47,-136"/>
<text text-anchor="middle" x="82" y="-195" font-family="Helvetica,sans-Serif" font-size="10.00">generic</text>
</a>
</g>
</g>
<!-- dir_ec26abe846424348b3bb0efb37d4dfc7 -->
<g id="node1" class="node">
<title>dir_ec26abe846424348b3bb0efb37d4dfc7</title>
<g id="a_node1"><a xlink:href="dir_ec26abe846424348b3bb0efb37d4dfc7.xhtml" target="_top" xlink:title="neon">
<polygon fill="#eeeeff" stroke="black" points="109,-180 55,-180 55,-144 109,-144 109,-180"/>
<text text-anchor="middle" x="82" y="-159.5" font-family="Helvetica,sans-Serif" font-size="10.00">neon</text>
</a>
</g>
</g>
<!-- dir_a5a25de4bd483a211edd2f30cef0dda2 -->
<g id="node2" class="node">
<title>dir_a5a25de4bd483a211edd2f30cef0dda2</title>
<g id="a_node2"><a xlink:href="dir_a5a25de4bd483a211edd2f30cef0dda2.xhtml" target="_top" xlink:title="lut">
<polygon fill="white" stroke="red" points="54,-108 0,-108 0,-72 54,-72 54,-108"/>
<text text-anchor="middle" x="27" y="-87.5" font-family="Helvetica,sans-Serif" font-size="10.00">lut</text>
</a>
</g>
</g>
<!-- dir_ec26abe846424348b3bb0efb37d4dfc7&#45;&gt;dir_a5a25de4bd483a211edd2f30cef0dda2 -->
<g id="edge1" class="edge">
<title>dir_ec26abe846424348b3bb0efb37d4dfc7&#45;&gt;dir_a5a25de4bd483a211edd2f30cef0dda2</title>
<path fill="none" stroke="black" d="M68.4,-143.7C61.88,-135.39 53.93,-125.28 46.75,-116.14"/>
<polygon fill="black" stroke="black" points="49.37,-113.81 40.44,-108.1 43.87,-118.13 49.37,-113.81"/>
<g id="a_edge1&#45;headlabel"><a xlink:href="dir_000412_000394.xhtml" target="_top" xlink:title="1">
<text text-anchor="middle" x="53.82" y="-112.38" font-family="Helvetica,sans-Serif" font-size="10.00">1</text>
</a>
</g>
</g>
<!-- dir_214608ef36d61442cb2b0c1c4e9a7def -->
<g id="node3" class="node">
<title>dir_214608ef36d61442cb2b0c1c4e9a7def</title>
<g id="a_node3"><a xlink:href="dir_214608ef36d61442cb2b0c1c4e9a7def.xhtml" target="_top" xlink:title="arm_compute">
<polygon fill="white" stroke="red" points="151,-36 67,-36 67,0 151,0 151,-36"/>
<text text-anchor="middle" x="109" y="-15.5" font-family="Helvetica,sans-Serif" font-size="10.00">arm_compute</text>
</a>
</g>
</g>
<!-- dir_ec26abe846424348b3bb0efb37d4dfc7&#45;&gt;dir_214608ef36d61442cb2b0c1c4e9a7def -->
<g id="edge2" class="edge">
<title>dir_ec26abe846424348b3bb0efb37d4dfc7&#45;&gt;dir_214608ef36d61442cb2b0c1c4e9a7def</title>
<path fill="none" stroke="black" d="M85.26,-143.87C89.86,-119.67 98.31,-75.21 103.79,-46.39"/>
<polygon fill="black" stroke="black" points="107.3,-46.67 105.73,-36.19 100.43,-45.36 107.3,-46.67"/>
<g id="a_edge2&#45;headlabel"><a xlink:href="dir_000412_000000.xhtml" target="_top" xlink:title="11">
<text text-anchor="middle" x="109.42" y="-48.23" font-family="Helvetica,sans-Serif" font-size="10.00">11</text>
</a>
</g>
</g>
<!-- dir_aebb8dcc11953d78e620bbef0b9e2183 -->
<g id="node4" class="node">
<title>dir_aebb8dcc11953d78e620bbef0b9e2183</title>
<g id="a_node4"><a xlink:href="dir_aebb8dcc11953d78e620bbef0b9e2183.xhtml" target="_top" xlink:title="core">
<polygon fill="white" stroke="red" points="164,-108 110,-108 110,-72 164,-72 164,-108"/>
<text text-anchor="middle" x="137" y="-87.5" font-family="Helvetica,sans-Serif" font-size="10.00">core</text>
</a>
</g>
</g>
<!-- dir_ec26abe846424348b3bb0efb37d4dfc7&#45;&gt;dir_aebb8dcc11953d78e620bbef0b9e2183 -->
<g id="edge3" class="edge">
<title>dir_ec26abe846424348b3bb0efb37d4dfc7&#45;&gt;dir_aebb8dcc11953d78e620bbef0b9e2183</title>
<path fill="none" stroke="black" d="M95.6,-143.7C102.12,-135.39 110.07,-125.28 117.25,-116.14"/>
<polygon fill="black" stroke="black" points="120.13,-118.13 123.56,-108.1 114.63,-113.81 120.13,-118.13"/>
<g id="a_edge3&#45;headlabel"><a xlink:href="dir_000412_000020.xhtml" target="_top" xlink:title="10">
<text text-anchor="middle" x="120.15" y="-120.21" font-family="Helvetica,sans-Serif" font-size="10.00">10</text>
</a>
</g>
</g>
<!-- dir_aebb8dcc11953d78e620bbef0b9e2183&#45;&gt;dir_214608ef36d61442cb2b0c1c4e9a7def -->
<g id="edge4" class="edge">
<title>dir_aebb8dcc11953d78e620bbef0b9e2183&#45;&gt;dir_214608ef36d61442cb2b0c1c4e9a7def</title>
<path fill="none" stroke="black" d="M130.08,-71.7C126.93,-63.81 123.12,-54.3 119.62,-45.55"/>
<polygon fill="black" stroke="black" points="122.81,-44.09 115.84,-36.1 116.31,-46.69 122.81,-44.09"/>
<g id="a_edge4&#45;headlabel"><a xlink:href="dir_000020_000000.xhtml" target="_top" xlink:title="609">
<text text-anchor="middle" x="126.78" y="-43.87" font-family="Helvetica,sans-Serif" font-size="10.00">609</text>
</a>
</g>
</g>
</g>
</svg>
