<?xml version="1.0" encoding="UTF-8" standalone="no"?>
<!DOCTYPE svg PUBLIC "-//W3C//DTD SVG 1.1//EN"
 "http://www.w3.org/Graphics/SVG/1.1/DTD/svg11.dtd">
<!-- Generated by graphviz version 2.43.0 (0)
 -->
<!-- Title: src/cpu/kernels/assembly Pages: 1 -->
<svg width="110pt" height="223pt"
 viewBox="0.00 0.00 110.00 223.00" xmlns="http://www.w3.org/2000/svg" xmlns:xlink="http://www.w3.org/1999/xlink">
<g id="graph0" class="graph" transform="scale(1 1) rotate(0) translate(4 219)">
<title>src/cpu/kernels/assembly</title>
<polygon fill="white" stroke="transparent" points="-4,4 -4,-219 106,-219 106,4 -4,4"/>
<g id="clust1" class="cluster">
<title>clusterdir_1de7bcbbdec2bf3559cb3c688662d4f5</title>
<g id="a_clust1"><a xlink:href="dir_1de7bcbbdec2bf3559cb3c688662d4f5.xhtml" target="_top" xlink:title="kernels">
<polygon fill="#ddddee" stroke="black" points="8,-136 8,-207 88,-207 88,-136 8,-136"/>
<text text-anchor="middle" x="48" y="-195" font-family="Helvetica,sans-Serif" font-size="10.00">kernels</text>
</a>
</g>
</g>
<!-- dir_7e0a188e879f4bc507eb0cc5f45552f2 -->
<g id="node1" class="node">
<title>dir_7e0a188e879f4bc507eb0cc5f45552f2</title>
<g id="a_node1"><a xlink:href="dir_7e0a188e879f4bc507eb0cc5f45552f2.xhtml" target="_top" xlink:title="assembly">
<polygon fill="#eeeeff" stroke="black" points="80,-180 16,-180 16,-144 80,-144 80,-180"/>
<text text-anchor="middle" x="48" y="-159.5" font-family="Helvetica,sans-Serif" font-size="10.00">assembly</text>
</a>
</g>
</g>
<!-- dir_214608ef36d61442cb2b0c1c4e9a7def -->
<g id="node2" class="node">
<title>dir_214608ef36d61442cb2b0c1c4e9a7def</title>
<g id="a_node2"><a xlink:href="dir_214608ef36d61442cb2b0c1c4e9a7def.xhtml" target="_top" xlink:title="arm_compute">
<polygon fill="white" stroke="red" points="89,-36 5,-36 5,0 89,0 89,-36"/>
<text text-anchor="middle" x="47" y="-15.5" font-family="Helvetica,sans-Serif" font-size="10.00">arm_compute</text>
</a>
</g>
</g>
<!-- dir_7e0a188e879f4bc507eb0cc5f45552f2&#45;&gt;dir_214608ef36d61442cb2b0c1c4e9a7def -->
<g id="edge1" class="edge">
<title>dir_7e0a188e879f4bc507eb0cc5f45552f2&#45;&gt;dir_214608ef36d61442cb2b0c1c4e9a7def</title>
<path fill="none" stroke="black" d="M44.35,-143.91C42.32,-133.57 40.02,-120.09 39,-108 37.66,-92.06 37.8,-87.96 39,-72 39.64,-63.52 40.84,-54.34 42.12,-46.04"/>
<polygon fill="black" stroke="black" points="45.58,-46.55 43.75,-36.11 38.68,-45.41 45.58,-46.55"/>
<g id="a_edge1&#45;headlabel"><a xlink:href="dir_000475_000000.xhtml" target="_top" xlink:title="5">
<text text-anchor="middle" x="47.8" y="-48.05" font-family="Helvetica,sans-Serif" font-size="10.00">5</text>
</a>
</g>
</g>
<!-- dir_aebb8dcc11953d78e620bbef0b9e2183 -->
<g id="node3" class="node">
<title>dir_aebb8dcc11953d78e620bbef0b9e2183</title>
<g id="a_node3"><a xlink:href="dir_aebb8dcc11953d78e620bbef0b9e2183.xhtml" target="_top" xlink:title="core">
<polygon fill="white" stroke="red" points="102,-108 48,-108 48,-72 102,-72 102,-108"/>
<text text-anchor="middle" x="75" y="-87.5" font-family="Helvetica,sans-Serif" font-size="10.00">core</text>
</a>
</g>
</g>
<!-- dir_7e0a188e879f4bc507eb0cc5f45552f2&#45;&gt;dir_aebb8dcc11953d78e620bbef0b9e2183 -->
<g id="edge2" class="edge">
<title>dir_7e0a188e879f4bc507eb0cc5f45552f2&#45;&gt;dir_aebb8dcc11953d78e620bbef0b9e2183</title>
<path fill="none" stroke="black" d="M54.67,-143.7C57.71,-135.81 61.38,-126.3 64.76,-117.55"/>
<polygon fill="black" stroke="black" points="68.07,-118.69 68.4,-108.1 61.54,-116.17 68.07,-118.69"/>
<g id="a_edge2&#45;headlabel"><a xlink:href="dir_000475_000020.xhtml" target="_top" xlink:title="1">
<text text-anchor="middle" x="69.42" y="-120.57" font-family="Helvetica,sans-Serif" font-size="10.00">1</text>
</a>
</g>
</g>
<!-- dir_aebb8dcc11953d78e620bbef0b9e2183&#45;&gt;dir_214608ef36d61442cb2b0c1c4e9a7def -->
<g id="edge3" class="edge">
<title>dir_aebb8dcc11953d78e620bbef0b9e2183&#45;&gt;dir_214608ef36d61442cb2b0c1c4e9a7def</title>
<path fill="none" stroke="black" d="M68.08,-71.7C64.93,-63.81 61.12,-54.3 57.62,-45.55"/>
<polygon fill="black" stroke="black" points="60.81,-44.09 53.84,-36.1 54.31,-46.69 60.81,-44.09"/>
<g id="a_edge3&#45;headlabel"><a xlink:href="dir_000020_000000.xhtml" target="_top" xlink:title="609">
<text text-anchor="middle" x="64.78" y="-43.87" font-family="Helvetica,sans-Serif" font-size="10.00">609</text>
</a>
</g>
</g>
</g>
</svg>
