<?xml version="1.0" encoding="UTF-8" standalone="no"?>
<!DOCTYPE svg PUBLIC "-//W3C//DTD SVG 1.1//EN"
 "http://www.w3.org/Graphics/SVG/1.1/DTD/svg11.dtd">
<!-- Generated by graphviz version 2.43.0 (0)
 -->
<!-- Title: src/dynamic_fusion/sketch/gpu/template_writer/cl Pages: 1 -->
<svg width="166pt" height="367pt"
 viewBox="0.00 0.00 165.55 367.00" xmlns="http://www.w3.org/2000/svg" xmlns:xlink="http://www.w3.org/1999/xlink">
<g id="graph0" class="graph" transform="scale(1 1) rotate(0) translate(4 363)">
<title>src/dynamic_fusion/sketch/gpu/template_writer/cl</title>
<polygon fill="white" stroke="transparent" points="-4,4 -4,-363 161.55,-363 161.55,4 -4,4"/>
<g id="clust1" class="cluster">
<title>clusterdir_09aab6a206c9d3717fe22866ebbc9576</title>
<g id="a_clust1"><a xlink:href="dir_09aab6a206c9d3717fe22866ebbc9576.xhtml" target="_top" xlink:title="template_writer">
<polygon fill="#ddddee" stroke="black" points="44,-280 44,-351 139,-351 139,-280 44,-280"/>
<text text-anchor="middle" x="91.5" y="-339" font-family="Helvetica,sans-Serif" font-size="10.00">template_writer</text>
</a>
</g>
</g>
<!-- dir_5ce8562396c3432087c3cd3fcd451092 -->
<g id="node1" class="node">
<title>dir_5ce8562396c3432087c3cd3fcd451092</title>
<g id="a_node1"><a xlink:href="dir_5ce8562396c3432087c3cd3fcd451092.xhtml" target="_top" xlink:title="cl">
<polygon fill="#eeeeff" stroke="black" points="118,-324 64,-324 64,-288 118,-288 118,-324"/>
<text text-anchor="middle" x="91" y="-303.5" font-family="Helvetica,sans-Serif" font-size="10.00">cl</text>
</a>
</g>
</g>
<!-- dir_2dfbec2966693e15f04cad1350ff3fc9 -->
<g id="node2" class="node">
<title>dir_2dfbec2966693e15f04cad1350ff3fc9</title>
<g id="a_node2"><a xlink:href="dir_2dfbec2966693e15f04cad1350ff3fc9.xhtml" target="_top" xlink:title="components">
<polygon fill="white" stroke="red" points="96.5,-252 19.5,-252 19.5,-216 96.5,-216 96.5,-252"/>
<text text-anchor="middle" x="58" y="-231.5" font-family="Helvetica,sans-Serif" font-size="10.00">components</text>
</a>
</g>
</g>
<!-- dir_5ce8562396c3432087c3cd3fcd451092&#45;&gt;dir_2dfbec2966693e15f04cad1350ff3fc9 -->
<g id="edge6" class="edge">
<title>dir_5ce8562396c3432087c3cd3fcd451092&#45;&gt;dir_2dfbec2966693e15f04cad1350ff3fc9</title>
<path fill="none" stroke="black" d="M82.84,-287.7C79.09,-279.73 74.55,-270.1 70.38,-261.26"/>
<polygon fill="black" stroke="black" points="73.49,-259.66 66.06,-252.1 67.16,-262.64 73.49,-259.66"/>
<g id="a_edge6&#45;headlabel"><a xlink:href="dir_000495_000026.xhtml" target="_top" xlink:title="14">
<text text-anchor="middle" x="77.59" y="-259.2" font-family="Helvetica,sans-Serif" font-size="10.00">14</text>
</a>
</g>
</g>
<!-- dir_214608ef36d61442cb2b0c1c4e9a7def -->
<g id="node3" class="node">
<title>dir_214608ef36d61442cb2b0c1c4e9a7def</title>
<g id="a_node3"><a xlink:href="dir_214608ef36d61442cb2b0c1c4e9a7def.xhtml" target="_top" xlink:title="arm_compute">
<polygon fill="white" stroke="red" points="135,-108 51,-108 51,-72 135,-72 135,-108"/>
<text text-anchor="middle" x="93" y="-87.5" font-family="Helvetica,sans-Serif" font-size="10.00">arm_compute</text>
</a>
</g>
</g>
<!-- dir_5ce8562396c3432087c3cd3fcd451092&#45;&gt;dir_214608ef36d61442cb2b0c1c4e9a7def -->
<g id="edge7" class="edge">
<title>dir_5ce8562396c3432087c3cd3fcd451092&#45;&gt;dir_214608ef36d61442cb2b0c1c4e9a7def</title>
<path fill="none" stroke="black" d="M96.82,-287.56C99.93,-277.33 103.43,-264.08 105,-252 111.06,-205.3 104,-150.55 98.43,-118.44"/>
<polygon fill="black" stroke="black" points="101.85,-117.67 96.62,-108.46 94.96,-118.92 101.85,-117.67"/>
<g id="a_edge7&#45;headlabel"><a xlink:href="dir_000495_000000.xhtml" target="_top" xlink:title="15">
<text text-anchor="middle" x="105.28" y="-118.2" font-family="Helvetica,sans-Serif" font-size="10.00">15</text>
</a>
</g>
</g>
<!-- dir_aebb8dcc11953d78e620bbef0b9e2183 -->
<g id="node4" class="node">
<title>dir_aebb8dcc11953d78e620bbef0b9e2183</title>
<g id="a_node4"><a xlink:href="dir_aebb8dcc11953d78e620bbef0b9e2183.xhtml" target="_top" xlink:title="core">
<polygon fill="white" stroke="red" points="54,-180 0,-180 0,-144 54,-144 54,-180"/>
<text text-anchor="middle" x="27" y="-159.5" font-family="Helvetica,sans-Serif" font-size="10.00">core</text>
</a>
</g>
</g>
<!-- dir_5ce8562396c3432087c3cd3fcd451092&#45;&gt;dir_aebb8dcc11953d78e620bbef0b9e2183 -->
<g id="edge8" class="edge">
<title>dir_5ce8562396c3432087c3cd3fcd451092&#45;&gt;dir_aebb8dcc11953d78e620bbef0b9e2183</title>
<path fill="none" stroke="black" d="M63.87,-295.32C45.03,-287 21.35,-272.99 10,-252 -0.46,-232.65 5.58,-207.87 13.22,-189.38"/>
<polygon fill="black" stroke="black" points="16.49,-190.64 17.4,-180.09 10.11,-187.77 16.49,-190.64"/>
<g id="a_edge8&#45;headlabel"><a xlink:href="dir_000495_000020.xhtml" target="_top" xlink:title="11">
<text text-anchor="middle" x="17.6" y="-192.59" font-family="Helvetica,sans-Serif" font-size="10.00">11</text>
</a>
</g>
</g>
<!-- dir_5815af820a9cc9481f1d0990a0d60286 -->
<g id="node5" class="node">
<title>dir_5815af820a9cc9481f1d0990a0d60286</title>
<g id="a_node5"><a xlink:href="dir_5815af820a9cc9481f1d0990a0d60286.xhtml" target="_top" xlink:title="support">
<polygon fill="none" stroke="black" points="120,-36 66,-36 66,0 120,0 120,-36"/>
<text text-anchor="middle" x="93" y="-15.5" font-family="Helvetica,sans-Serif" font-size="10.00">support</text>
</a>
</g>
</g>
<!-- dir_5ce8562396c3432087c3cd3fcd451092&#45;&gt;dir_5815af820a9cc9481f1d0990a0d60286 -->
<g id="edge9" class="edge">
<title>dir_5ce8562396c3432087c3cd3fcd451092&#45;&gt;dir_5815af820a9cc9481f1d0990a0d60286</title>
<path fill="none" stroke="black" d="M102.95,-287.61C109.26,-277.61 116.6,-264.57 121,-252 147.65,-175.88 174.15,-146.8 144,-72 139.65,-61.21 131.94,-51.39 123.81,-43.21"/>
<polygon fill="black" stroke="black" points="126,-40.46 116.3,-36.18 121.21,-45.57 126,-40.46"/>
<g id="a_edge9&#45;headlabel"><a xlink:href="dir_000495_000032.xhtml" target="_top" xlink:title="6">
<text text-anchor="middle" x="130.56" y="-38.35" font-family="Helvetica,sans-Serif" font-size="10.00">6</text>
</a>
</g>
</g>
<!-- dir_2dfbec2966693e15f04cad1350ff3fc9&#45;&gt;dir_214608ef36d61442cb2b0c1c4e9a7def -->
<g id="edge1" class="edge">
<title>dir_2dfbec2966693e15f04cad1350ff3fc9&#45;&gt;dir_214608ef36d61442cb2b0c1c4e9a7def</title>
<path fill="none" stroke="black" d="M62.22,-215.87C68.21,-191.56 79.24,-146.82 86.34,-118.01"/>
<polygon fill="black" stroke="black" points="89.77,-118.74 88.76,-108.19 82.97,-117.06 89.77,-118.74"/>
<g id="a_edge1&#45;headlabel"><a xlink:href="dir_000026_000000.xhtml" target="_top" xlink:title="33">
<text text-anchor="middle" x="91.66" y="-120.41" font-family="Helvetica,sans-Serif" font-size="10.00">33</text>
</a>
</g>
</g>
<!-- dir_2dfbec2966693e15f04cad1350ff3fc9&#45;&gt;dir_aebb8dcc11953d78e620bbef0b9e2183 -->
<g id="edge2" class="edge">
<title>dir_2dfbec2966693e15f04cad1350ff3fc9&#45;&gt;dir_aebb8dcc11953d78e620bbef0b9e2183</title>
<path fill="none" stroke="black" d="M50.34,-215.7C46.81,-207.73 42.54,-198.1 38.63,-189.26"/>
<polygon fill="black" stroke="black" points="41.82,-187.83 34.57,-180.1 35.42,-190.67 41.82,-187.83"/>
<g id="a_edge2&#45;headlabel"><a xlink:href="dir_000026_000020.xhtml" target="_top" xlink:title="11">
<text text-anchor="middle" x="45.88" y="-187.47" font-family="Helvetica,sans-Serif" font-size="10.00">11</text>
</a>
</g>
</g>
<!-- dir_214608ef36d61442cb2b0c1c4e9a7def&#45;&gt;dir_5815af820a9cc9481f1d0990a0d60286 -->
<g id="edge3" class="edge">
<title>dir_214608ef36d61442cb2b0c1c4e9a7def&#45;&gt;dir_5815af820a9cc9481f1d0990a0d60286</title>
<path fill="none" stroke="black" d="M87.08,-71.7C86.29,-63.98 86.06,-54.71 86.4,-46.11"/>
<polygon fill="black" stroke="black" points="89.9,-46.32 87.1,-36.1 82.92,-45.84 89.9,-46.32"/>
<g id="a_edge3&#45;headlabel"><a xlink:href="dir_000000_000032.xhtml" target="_top" xlink:title="18">
<text text-anchor="middle" x="92.48" y="-47.61" font-family="Helvetica,sans-Serif" font-size="10.00">18</text>
</a>
</g>
</g>
<!-- dir_aebb8dcc11953d78e620bbef0b9e2183&#45;&gt;dir_214608ef36d61442cb2b0c1c4e9a7def -->
<g id="edge4" class="edge">
<title>dir_aebb8dcc11953d78e620bbef0b9e2183&#45;&gt;dir_214608ef36d61442cb2b0c1c4e9a7def</title>
<path fill="none" stroke="black" d="M43.31,-143.7C51.31,-135.22 61.07,-124.86 69.82,-115.58"/>
<polygon fill="black" stroke="black" points="72.56,-117.78 76.87,-108.1 67.47,-112.98 72.56,-117.78"/>
<g id="a_edge4&#45;headlabel"><a xlink:href="dir_000020_000000.xhtml" target="_top" xlink:title="609">
<text text-anchor="middle" x="72.16" y="-119.84" font-family="Helvetica,sans-Serif" font-size="10.00">609</text>
</a>
</g>
</g>
<!-- dir_aebb8dcc11953d78e620bbef0b9e2183&#45;&gt;dir_5815af820a9cc9481f1d0990a0d60286 -->
<g id="edge5" class="edge">
<title>dir_aebb8dcc11953d78e620bbef0b9e2183&#45;&gt;dir_5815af820a9cc9481f1d0990a0d60286</title>
<path fill="none" stroke="black" d="M26.94,-143.67C27.54,-125.02 30.44,-94.95 42,-72 47.32,-61.43 55.47,-51.58 63.7,-43.29"/>
<polygon fill="black" stroke="black" points="66.37,-45.59 71.21,-36.16 61.55,-40.51 66.37,-45.59"/>
<g id="a_edge5&#45;headlabel"><a xlink:href="dir_000020_000032.xhtml" target="_top" xlink:title="56">
<text text-anchor="middle" x="65.72" y="-47.62" font-family="Helvetica,sans-Serif" font-size="10.00">56</text>
</a>
</g>
</g>
<!-- dir_5815af820a9cc9481f1d0990a0d60286&#45;&gt;dir_214608ef36d61442cb2b0c1c4e9a7def -->
<g id="edge10" class="edge">
<title>dir_5815af820a9cc9481f1d0990a0d60286&#45;&gt;dir_214608ef36d61442cb2b0c1c4e9a7def</title>
<path fill="none" stroke="black" d="M98.9,-36.1C99.7,-43.79 99.94,-53.05 99.6,-61.67"/>
<polygon fill="black" stroke="black" points="96.11,-61.48 98.92,-71.7 103.09,-61.96 96.11,-61.48"/>
<g id="a_edge10&#45;headlabel"><a xlink:href="dir_000032_000000.xhtml" target="_top" xlink:title="6">
<text text-anchor="middle" x="93.52" y="-55.2" font-family="Helvetica,sans-Serif" font-size="10.00">6</text>
</a>
</g>
</g>
</g>
</svg>
