<?xml version="1.0" encoding="UTF-8" standalone="no"?>
<!DOCTYPE svg PUBLIC "-//W3C//DTD SVG 1.1//EN"
 "http://www.w3.org/Graphics/SVG/1.1/DTD/svg11.dtd">
<!-- Generated by graphviz version 2.43.0 (0)
 -->
<!-- Title: src/core/NEON/kernels/arm_conv/pooling Pages: 1 -->
<svg width="248pt" height="231pt"
 viewBox="0.00 0.00 247.50 231.00" xmlns="http://www.w3.org/2000/svg" xmlns:xlink="http://www.w3.org/1999/xlink">
<g id="graph0" class="graph" transform="scale(1 1) rotate(0) translate(4 227)">
<title>src/core/NEON/kernels/arm_conv/pooling</title>
<polygon fill="white" stroke="transparent" points="-4,4 -4,-227 243.5,-227 243.5,4 -4,4"/>
<g id="clust1" class="cluster">
<title>clusterdir_ea98ae4f30fbc97db6231c6535bdb2d9</title>
<g id="a_clust1"><a xlink:href="dir_ea98ae4f30fbc97db6231c6535bdb2d9.xhtml" target="_top" xlink:title="arm_conv">
<polygon fill="#ddddee" stroke="black" points="8,-56 8,-215 94,-215 94,-56 8,-56"/>
<text text-anchor="middle" x="51" y="-203" font-family="Helvetica,sans-Serif" font-size="10.00">arm_conv</text>
</a>
</g>
</g>
<g id="clust2" class="cluster">
<title>clusterdir_0478b45d7abe353b326d807ccde1ebbc</title>
<g id="a_clust2"><a xlink:href="dir_0478b45d7abe353b326d807ccde1ebbc.xhtml" target="_top">
<polygon fill="#eeeeff" stroke="black" points="16,-64 16,-188 86,-188 86,-64 16,-64"/>
</a>
</g>
</g>
<!-- dir_0478b45d7abe353b326d807ccde1ebbc -->
<g id="node1" class="node">
<title>dir_0478b45d7abe353b326d807ccde1ebbc</title>
<text text-anchor="middle" x="51" y="-159.5" font-family="Helvetica,sans-Serif" font-size="10.00">pooling</text>
</g>
<!-- dir_760ebd195dc73279e412f00087ad2b15 -->
<g id="node2" class="node">
<title>dir_760ebd195dc73279e412f00087ad2b15</title>
<g id="a_node2"><a xlink:href="dir_760ebd195dc73279e412f00087ad2b15.xhtml" target="_top" xlink:title="kernels">
<polygon fill="white" stroke="red" points="78,-108 24,-108 24,-72 78,-72 78,-108"/>
<text text-anchor="middle" x="51" y="-87.5" font-family="Helvetica,sans-Serif" font-size="10.00">kernels</text>
</a>
</g>
</g>
<!-- dir_0478b45d7abe353b326d807ccde1ebbc&#45;&gt;dir_760ebd195dc73279e412f00087ad2b15 -->
<g id="edge4" class="edge">
<title>dir_0478b45d7abe353b326d807ccde1ebbc&#45;&gt;dir_760ebd195dc73279e412f00087ad2b15</title>
<path fill="none" stroke="black" d="M51,-143.7C51,-135.98 51,-126.71 51,-118.11"/>
<polygon fill="black" stroke="black" points="54.5,-118.1 51,-108.1 47.5,-118.1 54.5,-118.1"/>
<g id="a_edge4&#45;headlabel"><a xlink:href="dir_000104_000178.xhtml" target="_top" xlink:title="3">
<text text-anchor="middle" x="57.34" y="-119.2" font-family="Helvetica,sans-Serif" font-size="10.00">3</text>
</a>
</g>
</g>
<!-- dir_2c61f424fd391396db977702a2beee9a -->
<g id="node3" class="node">
<title>dir_2c61f424fd391396db977702a2beee9a</title>
<g id="a_node3"><a xlink:href="dir_2c61f424fd391396db977702a2beee9a.xhtml" target="_top" xlink:title="cpu">
<polygon fill="white" stroke="red" points="188,-108 134,-108 134,-72 188,-72 188,-108"/>
<text text-anchor="middle" x="161" y="-87.5" font-family="Helvetica,sans-Serif" font-size="10.00">cpu</text>
</a>
</g>
</g>
<!-- dir_0478b45d7abe353b326d807ccde1ebbc&#45;&gt;dir_2c61f424fd391396db977702a2beee9a -->
<g id="edge1" class="edge">
<title>dir_0478b45d7abe353b326d807ccde1ebbc&#45;&gt;dir_2c61f424fd391396db977702a2beee9a</title>
<path fill="none" stroke="black" d="M77.91,-143.88C92.16,-134.81 109.85,-123.55 125.24,-113.76"/>
<polygon fill="black" stroke="black" points="127.43,-116.51 133.99,-108.19 123.67,-110.61 127.43,-116.51"/>
<g id="a_edge1&#45;headlabel"><a xlink:href="dir_000104_000373.xhtml" target="_top" xlink:title="5">
<text text-anchor="middle" x="125.92" y="-118.34" font-family="Helvetica,sans-Serif" font-size="10.00">5</text>
</a>
</g>
</g>
<!-- dir_214608ef36d61442cb2b0c1c4e9a7def -->
<g id="node4" class="node">
<title>dir_214608ef36d61442cb2b0c1c4e9a7def</title>
<g id="a_node4"><a xlink:href="dir_214608ef36d61442cb2b0c1c4e9a7def.xhtml" target="_top" xlink:title="arm_compute">
<polygon fill="white" stroke="red" points="148,-36 64,-36 64,0 148,0 148,-36"/>
<text text-anchor="middle" x="106" y="-15.5" font-family="Helvetica,sans-Serif" font-size="10.00">arm_compute</text>
</a>
</g>
</g>
<!-- dir_0478b45d7abe353b326d807ccde1ebbc&#45;&gt;dir_214608ef36d61442cb2b0c1c4e9a7def -->
<g id="edge2" class="edge">
<title>dir_0478b45d7abe353b326d807ccde1ebbc&#45;&gt;dir_214608ef36d61442cb2b0c1c4e9a7def</title>
<path fill="none" stroke="black" d="M65.16,-143.85C72.69,-133.93 81.5,-120.89 87,-108 95.41,-88.29 100.24,-64.49 102.93,-46.46"/>
<polygon fill="black" stroke="black" points="106.43,-46.71 104.3,-36.33 99.49,-45.76 106.43,-46.71"/>
<g id="a_edge2&#45;headlabel"><a xlink:href="dir_000104_000000.xhtml" target="_top" xlink:title="1">
<text text-anchor="middle" x="108.76" y="-48.15" font-family="Helvetica,sans-Serif" font-size="10.00">1</text>
</a>
</g>
</g>
<!-- dir_9847dd9cb7a28e46201717fa7336cf62 -->
<g id="node5" class="node">
<title>dir_9847dd9cb7a28e46201717fa7336cf62</title>
<g id="a_node5"><a xlink:href="dir_9847dd9cb7a28e46201717fa7336cf62.xhtml" target="_top" xlink:title="arm_gemm">
<polygon fill="white" stroke="red" points="239.5,-36 166.5,-36 166.5,0 239.5,0 239.5,-36"/>
<text text-anchor="middle" x="203" y="-15.5" font-family="Helvetica,sans-Serif" font-size="10.00">arm_gemm</text>
</a>
</g>
</g>
<!-- dir_0478b45d7abe353b326d807ccde1ebbc&#45;&gt;dir_9847dd9cb7a28e46201717fa7336cf62 -->
<g id="edge3" class="edge">
<title>dir_0478b45d7abe353b326d807ccde1ebbc&#45;&gt;dir_9847dd9cb7a28e46201717fa7336cf62</title>
<path fill="none" stroke="black" d="M78.25,-159.66C112.14,-156.38 168.96,-145.28 197,-108 210.12,-90.56 210.61,-65.36 208.41,-46.22"/>
<polygon fill="black" stroke="black" points="211.87,-45.69 206.97,-36.3 204.94,-46.7 211.87,-45.69"/>
<g id="a_edge3&#45;headlabel"><a xlink:href="dir_000104_000234.xhtml" target="_top" xlink:title="4">
<text text-anchor="middle" x="215.19" y="-46.34" font-family="Helvetica,sans-Serif" font-size="10.00">4</text>
</a>
</g>
</g>
<!-- dir_2c61f424fd391396db977702a2beee9a&#45;&gt;dir_214608ef36d61442cb2b0c1c4e9a7def -->
<g id="edge5" class="edge">
<title>dir_2c61f424fd391396db977702a2beee9a&#45;&gt;dir_214608ef36d61442cb2b0c1c4e9a7def</title>
<path fill="none" stroke="black" d="M147.4,-71.7C140.88,-63.39 132.93,-53.28 125.75,-44.14"/>
<polygon fill="black" stroke="black" points="128.37,-41.81 119.44,-36.1 122.87,-46.13 128.37,-41.81"/>
<g id="a_edge5&#45;headlabel"><a xlink:href="dir_000373_000000.xhtml" target="_top" xlink:title="642">
<text text-anchor="middle" x="132.82" y="-40.38" font-family="Helvetica,sans-Serif" font-size="10.00">642</text>
</a>
</g>
</g>
<!-- dir_2c61f424fd391396db977702a2beee9a&#45;&gt;dir_9847dd9cb7a28e46201717fa7336cf62 -->
<g id="edge6" class="edge">
<title>dir_2c61f424fd391396db977702a2beee9a&#45;&gt;dir_9847dd9cb7a28e46201717fa7336cf62</title>
<path fill="none" stroke="black" d="M165.47,-71.7C169.55,-63.47 175.34,-53.48 181.23,-44.42"/>
<polygon fill="black" stroke="black" points="184.15,-46.35 186.84,-36.1 178.35,-42.43 184.15,-46.35"/>
<g id="a_edge6&#45;headlabel"><a xlink:href="dir_000373_000234.xhtml" target="_top" xlink:title="1">
<text text-anchor="middle" x="184.49" y="-48.42" font-family="Helvetica,sans-Serif" font-size="10.00">1</text>
</a>
</g>
</g>
<!-- dir_9847dd9cb7a28e46201717fa7336cf62&#45;&gt;dir_2c61f424fd391396db977702a2beee9a -->
<g id="edge7" class="edge">
<title>dir_9847dd9cb7a28e46201717fa7336cf62&#45;&gt;dir_2c61f424fd391396db977702a2beee9a</title>
<path fill="none" stroke="black" d="M198.63,-36.1C194.57,-44.3 188.8,-54.28 182.92,-63.36"/>
<polygon fill="black" stroke="black" points="179.98,-61.45 177.3,-71.7 185.79,-65.36 179.98,-61.45"/>
<g id="a_edge7&#45;headlabel"><a xlink:href="dir_000234_000373.xhtml" target="_top" xlink:title="28">
<text text-anchor="middle" x="179.64" y="-54.38" font-family="Helvetica,sans-Serif" font-size="10.00">28</text>
</a>
</g>
</g>
</g>
</svg>
