<?xml version="1.0" encoding="UTF-8" standalone="no"?>
<!DOCTYPE svg PUBLIC "-//W3C//DTD SVG 1.1//EN"
 "http://www.w3.org/Graphics/SVG/1.1/DTD/svg11.dtd">
<!-- Generated by graphviz version 2.43.0 (0)
 -->
<!-- Title: Graphical Class Hierarchy Pages: 1 -->
<svg width="344pt" height="88pt"
 viewBox="0.00 0.00 344.00 88.00" xmlns="http://www.w3.org/2000/svg" xmlns:xlink="http://www.w3.org/1999/xlink">
<g id="graph0" class="graph" transform="scale(1 1) rotate(0) translate(4 84)">
<title>Graphical Class Hierarchy</title>
<polygon fill="white" stroke="transparent" points="-4,4 -4,-84 340,-84 340,4 -4,4"/>
<!-- Node0 -->
<g id="node1" class="node">
<title>Node0</title>
<g id="a_node1"><a xlink:href="classarm__conv_1_1pooling_1_1_i_generic_depthfirst_strategy.xhtml" target="_top" xlink:title=" ">
<polygon fill="white" stroke="black" points="0,-24.5 0,-54.5 146,-54.5 146,-24.5 0,-24.5"/>
<text text-anchor="start" x="8" y="-42.5" font-family="Helvetica,sans-Serif" font-size="10.00">IGenericDepthfirstStrategy</text>
<text text-anchor="middle" x="73" y="-31.5" font-family="Helvetica,sans-Serif" font-size="10.00">&lt; uint8_t, uint8_t &gt;</text>
</a>
</g>
</g>
<!-- Node1 -->
<g id="node2" class="node">
<title>Node1</title>
<g id="a_node2"><a xlink:href="structarm__conv_1_1pooling_1_1sme__u8__nhwc__avg__generic__depthfirst.xhtml" target="_top" xlink:title=" ">
<polygon fill="white" stroke="black" points="184,-49.5 184,-79.5 334,-79.5 334,-49.5 184,-49.5"/>
<text text-anchor="start" x="192" y="-67.5" font-family="Helvetica,sans-Serif" font-size="10.00">sme_u8_nhwc_avg_generic</text>
<text text-anchor="middle" x="259" y="-56.5" font-family="Helvetica,sans-Serif" font-size="10.00">_depthfirst</text>
</a>
</g>
</g>
<!-- Node0&#45;&gt;Node1 -->
<g id="edge1" class="edge">
<title>Node0&#45;&gt;Node1</title>
<path fill="none" stroke="midnightblue" d="M156.15,-50.66C165.39,-51.92 174.77,-53.19 183.9,-54.43"/>
<polygon fill="midnightblue" stroke="midnightblue" points="156.57,-47.19 146.19,-49.31 155.63,-54.12 156.57,-47.19"/>
</g>
<!-- Node2 -->
<g id="node3" class="node">
<title>Node2</title>
<g id="a_node3"><a xlink:href="structarm__conv_1_1pooling_1_1sme__u8__nhwc__max__generic__depthfirst.xhtml" target="_top" xlink:title=" ">
<polygon fill="white" stroke="black" points="182,-0.5 182,-30.5 336,-30.5 336,-0.5 182,-0.5"/>
<text text-anchor="start" x="190" y="-18.5" font-family="Helvetica,sans-Serif" font-size="10.00">sme_u8_nhwc_max_generic</text>
<text text-anchor="middle" x="259" y="-7.5" font-family="Helvetica,sans-Serif" font-size="10.00">_depthfirst</text>
</a>
</g>
</g>
<!-- Node0&#45;&gt;Node2 -->
<g id="edge2" class="edge">
<title>Node0&#45;&gt;Node2</title>
<path fill="none" stroke="midnightblue" d="M156.14,-28.79C164.67,-27.67 173.31,-26.55 181.77,-25.44"/>
<polygon fill="midnightblue" stroke="midnightblue" points="155.66,-25.32 146.19,-30.08 156.56,-32.26 155.66,-25.32"/>
</g>
</g>
</svg>
