<?xml version="1.0" encoding="UTF-8" standalone="no"?>
<!DOCTYPE svg PUBLIC "-//W3C//DTD SVG 1.1//EN"
 "http://www.w3.org/Graphics/SVG/1.1/DTD/svg11.dtd">
<!-- Generated by graphviz version 2.43.0 (0)
 -->
<!-- Title: Graphical Class Hierarchy Pages: 1 -->
<svg width="535pt" height="210pt"
 viewBox="0.00 0.00 535.00 210.00" xmlns="http://www.w3.org/2000/svg" xmlns:xlink="http://www.w3.org/1999/xlink">
<g id="graph0" class="graph" transform="scale(1 1) rotate(0) translate(4 206)">
<title>Graphical Class Hierarchy</title>
<polygon fill="white" stroke="transparent" points="-4,4 -4,-206 531,-206 531,4 -4,4"/>
<!-- Node136 -->
<g id="node1" class="node">
<title>Node136</title>
<g id="a_node1"><a xlink:title=" ">
<polygon fill="white" stroke="#bfbfbf" points="0,-103 0,-122 97,-122 97,-103 0,-103"/>
<text text-anchor="middle" x="48.5" y="-110" font-family="Helvetica,sans-Serif" font-size="10.00">PoolingCommon</text>
</a>
</g>
</g>
<!-- Node0 -->
<g id="node2" class="node">
<title>Node0</title>
<g id="a_node2"><a xlink:href="classarm__conv_1_1pooling_1_1_depthfirst_driver.xhtml" target="_top" xlink:title=" ">
<polygon fill="white" stroke="black" points="151,-171.5 151,-201.5 291,-201.5 291,-171.5 151,-171.5"/>
<text text-anchor="start" x="159" y="-189.5" font-family="Helvetica,sans-Serif" font-size="10.00">DepthfirstDriver&lt; TInput,</text>
<text text-anchor="middle" x="221" y="-178.5" font-family="Helvetica,sans-Serif" font-size="10.00"> TOutput &gt;</text>
</a>
</g>
</g>
<!-- Node136&#45;&gt;Node0 -->
<g id="edge1" class="edge">
<title>Node136&#45;&gt;Node0</title>
<path fill="none" stroke="midnightblue" d="M71.1,-127.66C87.47,-138.59 110.85,-153.02 133,-162.5 140.78,-165.83 149.15,-168.82 157.51,-171.47"/>
<polygon fill="midnightblue" stroke="midnightblue" points="73.02,-124.73 62.78,-122.01 69.08,-130.52 73.02,-124.73"/>
</g>
<!-- Node138 -->
<g id="node3" class="node">
<title>Node138</title>
<g id="a_node3"><a xlink:href="classarm__conv_1_1pooling_1_1_pooling_depthfirst_cache_oblivious.xhtml" target="_top" xlink:title=" ">
<polygon fill="white" stroke="black" points="133,-122.5 133,-152.5 309,-152.5 309,-122.5 133,-122.5"/>
<text text-anchor="start" x="141" y="-140.5" font-family="Helvetica,sans-Serif" font-size="10.00">PoolingDepthfirstCacheOblivious</text>
<text text-anchor="middle" x="221" y="-129.5" font-family="Helvetica,sans-Serif" font-size="10.00">&lt; strategy &gt;</text>
</a>
</g>
</g>
<!-- Node136&#45;&gt;Node138 -->
<g id="edge2" class="edge">
<title>Node136&#45;&gt;Node138</title>
<path fill="none" stroke="midnightblue" d="M107.61,-121.02C115.82,-122.22 124.4,-123.48 133,-124.74"/>
<polygon fill="midnightblue" stroke="midnightblue" points="107.85,-117.52 97.45,-119.53 106.83,-124.44 107.85,-117.52"/>
</g>
<!-- Node139 -->
<g id="node4" class="node">
<title>Node139</title>
<g id="a_node4"><a xlink:href="classarm__conv_1_1pooling_1_1_pooling_depthfirst_generic_quantized.xhtml" target="_top" xlink:title=" ">
<polygon fill="white" stroke="black" points="152,-73.5 152,-103.5 290,-103.5 290,-73.5 152,-73.5"/>
<text text-anchor="start" x="160" y="-91.5" font-family="Helvetica,sans-Serif" font-size="10.00">PoolingDepthfirstGeneric</text>
<text text-anchor="middle" x="221" y="-80.5" font-family="Helvetica,sans-Serif" font-size="10.00">Quantized&lt; strategy &gt;</text>
</a>
</g>
</g>
<!-- Node136&#45;&gt;Node139 -->
<g id="edge3" class="edge">
<title>Node136&#45;&gt;Node139</title>
<path fill="none" stroke="midnightblue" d="M107.57,-104.33C121.77,-102.33 137.1,-100.17 151.74,-98.11"/>
<polygon fill="midnightblue" stroke="midnightblue" points="106.86,-100.89 97.45,-105.75 107.84,-107.82 106.86,-100.89"/>
</g>
<!-- Node140 -->
<g id="node5" class="node">
<title>Node140</title>
<g id="a_node5"><a xlink:href="classarm__conv_1_1pooling_1_1_depthfirst_driver.xhtml" target="_top" xlink:title=" ">
<polygon fill="white" stroke="black" points="151,-24.5 151,-54.5 291,-54.5 291,-24.5 151,-24.5"/>
<text text-anchor="start" x="159" y="-42.5" font-family="Helvetica,sans-Serif" font-size="10.00">DepthfirstDriver&lt; TInput,</text>
<text text-anchor="middle" x="221" y="-31.5" font-family="Helvetica,sans-Serif" font-size="10.00"> TInput &gt;</text>
</a>
</g>
</g>
<!-- Node136&#45;&gt;Node140 -->
<g id="edge4" class="edge">
<title>Node136&#45;&gt;Node140</title>
<path fill="none" stroke="midnightblue" d="M72.55,-97.22C88.9,-86.89 111.64,-73.55 133,-64.5 141.68,-60.82 151.07,-57.49 160.36,-54.55"/>
<polygon fill="midnightblue" stroke="midnightblue" points="70.25,-94.54 63.73,-102.89 74.03,-100.43 70.25,-94.54"/>
</g>
<!-- Node141 -->
<g id="node6" class="node">
<title>Node141</title>
<g id="a_node6"><a xlink:href="classarm__conv_1_1pooling_1_1_pooling_depthfirst.xhtml" target="_top" xlink:title=" ">
<polygon fill="white" stroke="black" points="349.5,-49.5 349.5,-79.5 522.5,-79.5 522.5,-49.5 349.5,-49.5"/>
<text text-anchor="start" x="357.5" y="-67.5" font-family="Helvetica,sans-Serif" font-size="10.00">PoolingDepthfirst&lt;</text>
<text text-anchor="middle" x="436" y="-56.5" font-family="Helvetica,sans-Serif" font-size="10.00"> TInput, TOutput, OutputStage &gt;</text>
</a>
</g>
</g>
<!-- Node140&#45;&gt;Node141 -->
<g id="edge5" class="edge">
<title>Node140&#45;&gt;Node141</title>
<path fill="none" stroke="midnightblue" d="M301.33,-48.81C317.01,-50.65 333.54,-52.59 349.43,-54.46"/>
<polygon fill="midnightblue" stroke="midnightblue" points="301.49,-45.31 291.15,-47.62 300.68,-52.26 301.49,-45.31"/>
</g>
<!-- Node142 -->
<g id="node7" class="node">
<title>Node142</title>
<g id="a_node7"><a xlink:href="classarm__conv_1_1pooling_1_1_pooling_depthfirst_generic.xhtml" target="_top" xlink:title=" ">
<polygon fill="white" stroke="black" points="345,-0.5 345,-30.5 527,-30.5 527,-0.5 345,-0.5"/>
<text text-anchor="start" x="353" y="-18.5" font-family="Helvetica,sans-Serif" font-size="10.00">PoolingDepthfirstGeneric</text>
<text text-anchor="middle" x="436" y="-7.5" font-family="Helvetica,sans-Serif" font-size="10.00">&lt; TInput, TOutput, OutputStage &gt;</text>
</a>
</g>
</g>
<!-- Node140&#45;&gt;Node142 -->
<g id="edge6" class="edge">
<title>Node140&#45;&gt;Node142</title>
<path fill="none" stroke="midnightblue" d="M301.34,-30.56C315.53,-28.96 330.4,-27.29 344.85,-25.66"/>
<polygon fill="midnightblue" stroke="midnightblue" points="300.7,-27.11 291.15,-31.71 301.48,-34.07 300.7,-27.11"/>
</g>
</g>
</svg>
