<?xml version="1.0" encoding="UTF-8" standalone="no"?>
<!DOCTYPE svg PUBLIC "-//W3C//DTD SVG 1.1//EN"
 "http://www.w3.org/Graphics/SVG/1.1/DTD/svg11.dtd">
<!-- Generated by graphviz version 2.43.0 (0)
 -->
<!-- Title: Graphical Class Hierarchy Pages: 1 -->
<svg width="347pt" height="420pt"
 viewBox="0.00 0.00 347.00 420.00" xmlns="http://www.w3.org/2000/svg" xmlns:xlink="http://www.w3.org/1999/xlink">
<g id="graph0" class="graph" transform="scale(1 1) rotate(0) translate(4 416)">
<title>Graphical Class Hierarchy</title>
<polygon fill="white" stroke="transparent" points="-4,4 -4,-416 343,-416 343,4 -4,4"/>
<!-- Node0 -->
<g id="node1" class="node">
<title>Node0</title>
<g id="a_node1"><a xlink:href="classarm__compute_1_1experimental_1_1dynamic__fusion_1_1_i_gpu_kernel_component.xhtml" target="_top" xlink:title="An abstract interface of a component.">
<polygon fill="white" stroke="black" points="0,-196.5 0,-215.5 126,-215.5 126,-196.5 0,-196.5"/>
<text text-anchor="middle" x="63" y="-203.5" font-family="Helvetica,sans-Serif" font-size="10.00">IGpuKernelComponent</text>
</a>
</g>
</g>
<!-- Node1 -->
<g id="node2" class="node">
<title>Node1</title>
<g id="a_node2"><a xlink:href="classarm__compute_1_1experimental_1_1dynamic__fusion_1_1_cl_component_activation.xhtml" target="_top" xlink:title=" ">
<polygon fill="white" stroke="black" points="184.5,-392.5 184.5,-411.5 316.5,-411.5 316.5,-392.5 184.5,-392.5"/>
<text text-anchor="middle" x="250.5" y="-399.5" font-family="Helvetica,sans-Serif" font-size="10.00">ClComponentActivation</text>
</a>
</g>
</g>
<!-- Node0&#45;&gt;Node1 -->
<g id="edge1" class="edge">
<title>Node0&#45;&gt;Node1</title>
<path fill="none" stroke="midnightblue" d="M69,-225.51C79.52,-262.46 107.6,-342.54 162,-383 168.61,-387.92 176.23,-391.61 184.17,-394.38"/>
<polygon fill="midnightblue" stroke="midnightblue" points="72.28,-224.26 66.28,-215.52 65.53,-226.09 72.28,-224.26"/>
</g>
<!-- Node2 -->
<g id="node3" class="node">
<title>Node2</title>
<g id="a_node3"><a xlink:href="classarm__compute_1_1experimental_1_1dynamic__fusion_1_1_cl_component_cast.xhtml" target="_top" xlink:title=" ">
<polygon fill="white" stroke="black" points="198.5,-354.5 198.5,-373.5 302.5,-373.5 302.5,-354.5 198.5,-354.5"/>
<text text-anchor="middle" x="250.5" y="-361.5" font-family="Helvetica,sans-Serif" font-size="10.00">ClComponentCast</text>
</a>
</g>
</g>
<!-- Node0&#45;&gt;Node2 -->
<g id="edge2" class="edge">
<title>Node0&#45;&gt;Node2</title>
<path fill="none" stroke="midnightblue" d="M71.89,-225.1C85.51,-255.56 116.43,-314.8 162,-345 172.75,-352.13 185.73,-356.63 198.36,-359.46"/>
<polygon fill="midnightblue" stroke="midnightblue" points="74.97,-223.41 67.8,-215.62 68.55,-226.19 74.97,-223.41"/>
</g>
<!-- Node3 -->
<g id="node4" class="node">
<title>Node3</title>
<g id="a_node4"><a xlink:href="classarm__compute_1_1experimental_1_1dynamic__fusion_1_1_cl_component_depthwise_conv2d.xhtml" target="_top" xlink:title=" ">
<polygon fill="white" stroke="black" points="165,-316.5 165,-335.5 336,-335.5 336,-316.5 165,-316.5"/>
<text text-anchor="middle" x="250.5" y="-323.5" font-family="Helvetica,sans-Serif" font-size="10.00">ClComponentDepthwiseConv2d</text>
</a>
</g>
</g>
<!-- Node0&#45;&gt;Node3 -->
<g id="edge3" class="edge">
<title>Node0&#45;&gt;Node3</title>
<path fill="none" stroke="midnightblue" d="M76.06,-223.78C92.63,-246.75 124.67,-286.26 162,-307 168.93,-310.85 176.57,-313.92 184.37,-316.37"/>
<polygon fill="midnightblue" stroke="midnightblue" points="78.91,-221.76 70.3,-215.59 73.19,-225.78 78.91,-221.76"/>
</g>
<!-- Node4 -->
<g id="node5" class="node">
<title>Node4</title>
<g id="a_node5"><a xlink:href="classarm__compute_1_1experimental_1_1dynamic__fusion_1_1_cl_component_direct_conv2d.xhtml" target="_top" xlink:title=" ">
<polygon fill="white" stroke="black" points="176,-278.5 176,-297.5 325,-297.5 325,-278.5 176,-278.5"/>
<text text-anchor="middle" x="250.5" y="-285.5" font-family="Helvetica,sans-Serif" font-size="10.00">ClComponentDirectConv2d</text>
</a>
</g>
</g>
<!-- Node0&#45;&gt;Node4 -->
<g id="edge4" class="edge">
<title>Node0&#45;&gt;Node4</title>
<path fill="none" stroke="midnightblue" d="M84.06,-221.97C103.07,-236.34 132.96,-256.98 162,-269 171.19,-272.81 181.26,-275.9 191.18,-278.39"/>
<polygon fill="midnightblue" stroke="midnightblue" points="85.95,-219.01 75.89,-215.68 81.67,-224.55 85.95,-219.01"/>
</g>
<!-- Node5 -->
<g id="node6" class="node">
<title>Node5</title>
<g id="a_node6"><a xlink:href="classarm__compute_1_1experimental_1_1dynamic__fusion_1_1_cl_component_elementwise_binary.xhtml" target="_top" xlink:title=" ">
<polygon fill="white" stroke="black" points="162,-240.5 162,-259.5 339,-259.5 339,-240.5 162,-240.5"/>
<text text-anchor="middle" x="250.5" y="-247.5" font-family="Helvetica,sans-Serif" font-size="10.00">ClComponentElementwiseBinary</text>
</a>
</g>
</g>
<!-- Node0&#45;&gt;Node5 -->
<g id="edge5" class="edge">
<title>Node0&#45;&gt;Node5</title>
<path fill="none" stroke="midnightblue" d="M110.09,-218.12C126.45,-222.33 145.02,-226.99 162,-231 175.62,-234.21 190.47,-237.52 204.02,-240.45"/>
<polygon fill="midnightblue" stroke="midnightblue" points="110.78,-214.69 100.22,-215.57 109.03,-221.46 110.78,-214.69"/>
</g>
<!-- Node6 -->
<g id="node7" class="node">
<title>Node6</title>
<g id="a_node7"><a xlink:href="classarm__compute_1_1experimental_1_1dynamic__fusion_1_1_cl_component_logits1_d_max_shift_exp_sum.xhtml" target="_top" xlink:title="Component to calculate max&#45;shifted exponentials and their sum.">
<polygon fill="white" stroke="black" points="166.5,-191 166.5,-221 334.5,-221 334.5,-191 166.5,-191"/>
<text text-anchor="start" x="174.5" y="-209" font-family="Helvetica,sans-Serif" font-size="10.00">ClComponentLogits1DMaxShift</text>
<text text-anchor="middle" x="250.5" y="-198" font-family="Helvetica,sans-Serif" font-size="10.00">ExpSum</text>
</a>
</g>
</g>
<!-- Node0&#45;&gt;Node6 -->
<g id="edge6" class="edge">
<title>Node0&#45;&gt;Node6</title>
<path fill="none" stroke="midnightblue" d="M136.21,-206C146.11,-206 156.34,-206 166.42,-206"/>
<polygon fill="midnightblue" stroke="midnightblue" points="136.03,-202.5 126.03,-206 136.03,-209.5 136.03,-202.5"/>
</g>
<!-- Node7 -->
<g id="node8" class="node">
<title>Node7</title>
<g id="a_node8"><a xlink:href="classarm__compute_1_1experimental_1_1dynamic__fusion_1_1_cl_component_logits1_d_norm.xhtml" target="_top" xlink:title="Component to calculate the final step of the Softmax Layer where each logit value is multiplied by th...">
<polygon fill="white" stroke="black" points="174.5,-152.5 174.5,-171.5 326.5,-171.5 326.5,-152.5 174.5,-152.5"/>
<text text-anchor="middle" x="250.5" y="-159.5" font-family="Helvetica,sans-Serif" font-size="10.00">ClComponentLogits1DNorm</text>
</a>
</g>
</g>
<!-- Node0&#45;&gt;Node7 -->
<g id="edge7" class="edge">
<title>Node0&#45;&gt;Node7</title>
<path fill="none" stroke="midnightblue" d="M112.65,-193.93C128.38,-190.07 145.92,-185.81 162,-182 176.71,-178.52 192.83,-174.8 207.19,-171.53"/>
<polygon fill="midnightblue" stroke="midnightblue" points="111.47,-190.61 102.6,-196.4 113.15,-197.41 111.47,-190.61"/>
</g>
<!-- Node8 -->
<g id="node9" class="node">
<title>Node8</title>
<g id="a_node9"><a xlink:href="classarm__compute_1_1experimental_1_1dynamic__fusion_1_1_cl_component_pool2d.xhtml" target="_top" xlink:title=" ">
<polygon fill="white" stroke="black" points="192.5,-114.5 192.5,-133.5 308.5,-133.5 308.5,-114.5 192.5,-114.5"/>
<text text-anchor="middle" x="250.5" y="-121.5" font-family="Helvetica,sans-Serif" font-size="10.00">ClComponentPool2d</text>
</a>
</g>
</g>
<!-- Node0&#45;&gt;Node8 -->
<g id="edge8" class="edge">
<title>Node0&#45;&gt;Node8</title>
<path fill="none" stroke="midnightblue" d="M84.06,-190.03C103.07,-175.66 132.96,-155.02 162,-143 171.48,-139.07 181.89,-135.91 192.11,-133.38"/>
<polygon fill="midnightblue" stroke="midnightblue" points="81.67,-187.45 75.89,-196.32 85.95,-192.99 81.67,-187.45"/>
</g>
<!-- Node9 -->
<g id="node10" class="node">
<title>Node9</title>
<g id="a_node10"><a xlink:href="classarm__compute_1_1experimental_1_1dynamic__fusion_1_1_cl_component_reshape.xhtml" target="_top" xlink:title=" ">
<polygon fill="white" stroke="black" points="188,-76.5 188,-95.5 313,-95.5 313,-76.5 188,-76.5"/>
<text text-anchor="middle" x="250.5" y="-83.5" font-family="Helvetica,sans-Serif" font-size="10.00">ClComponentReshape</text>
</a>
</g>
</g>
<!-- Node0&#45;&gt;Node9 -->
<g id="edge9" class="edge">
<title>Node0&#45;&gt;Node9</title>
<path fill="none" stroke="midnightblue" d="M76.06,-188.22C92.63,-165.25 124.67,-125.74 162,-105 169.88,-100.62 178.68,-97.25 187.58,-94.66"/>
<polygon fill="midnightblue" stroke="midnightblue" points="73.19,-186.22 70.3,-196.41 78.91,-190.24 73.19,-186.22"/>
</g>
<!-- Node10 -->
<g id="node11" class="node">
<title>Node10</title>
<g id="a_node11"><a xlink:href="classarm__compute_1_1experimental_1_1dynamic__fusion_1_1_cl_component_resize.xhtml" target="_top" xlink:title=" ">
<polygon fill="white" stroke="black" points="193,-38.5 193,-57.5 308,-57.5 308,-38.5 193,-38.5"/>
<text text-anchor="middle" x="250.5" y="-45.5" font-family="Helvetica,sans-Serif" font-size="10.00">ClComponentResize</text>
</a>
</g>
</g>
<!-- Node0&#45;&gt;Node10 -->
<g id="edge10" class="edge">
<title>Node0&#45;&gt;Node10</title>
<path fill="none" stroke="midnightblue" d="M71.89,-186.9C85.51,-156.44 116.43,-97.2 162,-67 171.2,-60.9 182.03,-56.73 192.87,-53.87"/>
<polygon fill="midnightblue" stroke="midnightblue" points="68.55,-185.81 67.8,-196.38 74.97,-188.59 68.55,-185.81"/>
</g>
<!-- Node11 -->
<g id="node12" class="node">
<title>Node11</title>
<g id="a_node12"><a xlink:href="classarm__compute_1_1experimental_1_1dynamic__fusion_1_1_cl_component_store.xhtml" target="_top" xlink:title=" ">
<polygon fill="white" stroke="black" points="196.5,-0.5 196.5,-19.5 304.5,-19.5 304.5,-0.5 196.5,-0.5"/>
<text text-anchor="middle" x="250.5" y="-7.5" font-family="Helvetica,sans-Serif" font-size="10.00">ClComponentStore</text>
</a>
</g>
</g>
<!-- Node0&#45;&gt;Node11 -->
<g id="edge11" class="edge">
<title>Node0&#45;&gt;Node11</title>
<path fill="none" stroke="midnightblue" d="M69,-186.49C79.52,-149.54 107.6,-69.46 162,-29 171.98,-21.58 184.27,-16.94 196.44,-14.07"/>
<polygon fill="midnightblue" stroke="midnightblue" points="65.53,-185.91 66.28,-196.48 72.28,-187.74 65.53,-185.91"/>
</g>
</g>
</svg>
