<?xml version="1.0" encoding="UTF-8" standalone="no"?>
<!DOCTYPE svg PUBLIC "-//W3C//DTD SVG 1.1//EN"
 "http://www.w3.org/Graphics/SVG/1.1/DTD/svg11.dtd">
<!-- Generated by graphviz version 2.43.0 (0)
 -->
<!-- Title: a64_fp32_nhwc_max_2x2_s1_output2x2_depthfirst Pages: 1 -->
<svg width="207pt" height="242pt"
 viewBox="0.00 0.00 207.00 242.00" xmlns="http://www.w3.org/2000/svg" xmlns:xlink="http://www.w3.org/1999/xlink">
<g id="graph0" class="graph" transform="scale(1 1) rotate(0) translate(4 238)">
<title>a64_fp32_nhwc_max_2x2_s1_output2x2_depthfirst</title>
<polygon fill="white" stroke="transparent" points="-4,4 -4,-238 203,-238 203,4 -4,4"/>
<!-- Node1 -->
<g id="node1" class="node">
<title>Node1</title>
<g id="a_node1"><a xlink:title=" ">
<polygon fill="#bfbfbf" stroke="black" points="0,-0.5 0,-30.5 143,-30.5 143,-0.5 0,-0.5"/>
<text text-anchor="start" x="8" y="-18.5" font-family="Helvetica,sans-Serif" font-size="10.00">a64_fp32_nhwc_max_2x2</text>
<text text-anchor="middle" x="71.5" y="-7.5" font-family="Helvetica,sans-Serif" font-size="10.00">_s1_output2x2_depthfirst</text>
</a>
</g>
</g>
<!-- Node2 -->
<g id="node2" class="node">
<title>Node2</title>
<g id="a_node2"><a xlink:href="classarm__conv_1_1pooling_1_1_depthfirst_strategy.xhtml" target="_top" xlink:title=" ">
<polygon fill="white" stroke="black" points="18.5,-68.5 18.5,-98.5 124.5,-98.5 124.5,-68.5 18.5,-68.5"/>
<text text-anchor="start" x="26.5" y="-86.5" font-family="Helvetica,sans-Serif" font-size="10.00">DepthfirstStrategy</text>
<text text-anchor="middle" x="71.5" y="-75.5" font-family="Helvetica,sans-Serif" font-size="10.00">&lt; float, float &gt;</text>
</a>
</g>
</g>
<!-- Node2&#45;&gt;Node1 -->
<g id="edge1" class="edge">
<title>Node2&#45;&gt;Node1</title>
<path fill="none" stroke="midnightblue" d="M71.5,-58.03C71.5,-48.86 71.5,-38.74 71.5,-30.79"/>
<polygon fill="midnightblue" stroke="midnightblue" points="68,-58.18 71.5,-68.18 75,-58.18 68,-58.18"/>
</g>
<!-- Node3 -->
<g id="node3" class="node">
<title>Node3</title>
<g id="a_node3"><a xlink:href="classarm__conv_1_1pooling_1_1_i_depthfirst_strategy.xhtml" target="_top" xlink:title=" ">
<polygon fill="white" stroke="black" points="13,-214.5 13,-233.5 122,-233.5 122,-214.5 13,-214.5"/>
<text text-anchor="middle" x="67.5" y="-221.5" font-family="Helvetica,sans-Serif" font-size="10.00">IDepthfirstStrategy</text>
</a>
</g>
</g>
<!-- Node3&#45;&gt;Node2 -->
<g id="edge2" class="edge">
<title>Node3&#45;&gt;Node2</title>
<path fill="none" stroke="midnightblue" d="M68.04,-204.25C68.85,-176.19 70.36,-123.88 71.09,-98.73"/>
<polygon fill="midnightblue" stroke="midnightblue" points="64.54,-204.24 67.75,-214.34 71.54,-204.44 64.54,-204.24"/>
</g>
<!-- Node4 -->
<g id="node4" class="node">
<title>Node4</title>
<g id="a_node4"><a xlink:href="classarm__conv_1_1pooling_1_1_depthfirst_strategy.xhtml" target="_top" xlink:title=" ">
<polygon fill="white" stroke="black" points="84,-146.5 84,-176.5 199,-176.5 199,-146.5 84,-146.5"/>
<text text-anchor="start" x="92" y="-164.5" font-family="Helvetica,sans-Serif" font-size="10.00">DepthfirstStrategy</text>
<text text-anchor="middle" x="141.5" y="-153.5" font-family="Helvetica,sans-Serif" font-size="10.00">&lt; TInput, TOutput &gt;</text>
</a>
</g>
</g>
<!-- Node3&#45;&gt;Node4 -->
<g id="edge4" class="edge">
<title>Node3&#45;&gt;Node4</title>
<path fill="none" stroke="midnightblue" d="M85.97,-207.9C97.73,-198.29 112.85,-185.92 124.34,-176.53"/>
<polygon fill="midnightblue" stroke="midnightblue" points="83.63,-205.29 78.1,-214.33 88.06,-210.71 83.63,-205.29"/>
</g>
<!-- Node4&#45;&gt;Node2 -->
<g id="edge3" class="edge">
<title>Node4&#45;&gt;Node2</title>
<path fill="none" stroke="orange" stroke-dasharray="5,2" d="M121.39,-138.67C109.57,-125.83 94.96,-109.97 84.61,-98.73"/>
<polygon fill="orange" stroke="orange" points="118.98,-141.22 128.33,-146.2 124.13,-136.48 118.98,-141.22"/>
<text text-anchor="middle" x="148.5" y="-120" font-family="Helvetica,sans-Serif" font-size="10.00"> &lt; float, float &gt;</text>
</g>
</g>
</svg>
