<?xml version="1.0" encoding="UTF-8" standalone="no"?>
<!DOCTYPE svg PUBLIC "-//W3C//DTD SVG 1.1//EN"
 "http://www.w3.org/Graphics/SVG/1.1/DTD/svg11.dtd">
<!-- Generated by graphviz version 2.43.0 (0)
 -->
<!-- Title: sme_u8q_nhwc_max_generic_depthfirst Pages: 1 -->
<svg width="193pt" height="196pt"
 viewBox="0.00 0.00 193.00 196.00" xmlns="http://www.w3.org/2000/svg" xmlns:xlink="http://www.w3.org/1999/xlink">
<g id="graph0" class="graph" transform="scale(1 1) rotate(0) translate(4 192)">
<title>sme_u8q_nhwc_max_generic_depthfirst</title>
<polygon fill="white" stroke="transparent" points="-4,4 -4,-192 189,-192 189,4 -4,4"/>
<!-- Node1 -->
<g id="node1" class="node">
<title>Node1</title>
<g id="a_node1"><a xlink:title=" ">
<polygon fill="#bfbfbf" stroke="black" points="12.5,-0.5 12.5,-30.5 172.5,-30.5 172.5,-0.5 12.5,-0.5"/>
<text text-anchor="start" x="20.5" y="-18.5" font-family="Helvetica,sans-Serif" font-size="10.00">sme_u8q_nhwc_max_generic</text>
<text text-anchor="middle" x="92.5" y="-7.5" font-family="Helvetica,sans-Serif" font-size="10.00">_depthfirst</text>
</a>
</g>
</g>
<!-- Node2 -->
<g id="node2" class="node">
<title>Node2</title>
<g id="a_node2"><a xlink:href="classarm__conv_1_1pooling_1_1_i_generic_depthfirst_strategy.xhtml" target="_top" xlink:title=" ">
<polygon fill="white" stroke="black" points="0,-68.5 0,-98.5 185,-98.5 185,-68.5 0,-68.5"/>
<text text-anchor="start" x="8" y="-86.5" font-family="Helvetica,sans-Serif" font-size="10.00">IGenericDepthfirstStrategy</text>
<text text-anchor="middle" x="92.5" y="-75.5" font-family="Helvetica,sans-Serif" font-size="10.00">&lt; uint8_t, uint8_t, Requantize32 &gt;</text>
</a>
</g>
</g>
<!-- Node2&#45;&gt;Node1 -->
<g id="edge1" class="edge">
<title>Node2&#45;&gt;Node1</title>
<path fill="none" stroke="midnightblue" d="M92.5,-58.03C92.5,-48.86 92.5,-38.74 92.5,-30.79"/>
<polygon fill="midnightblue" stroke="midnightblue" points="89,-58.18 92.5,-68.18 96,-58.18 89,-58.18"/>
</g>
<!-- Node3 -->
<g id="node3" class="node">
<title>Node3</title>
<g id="a_node3"><a xlink:href="classarm__conv_1_1pooling_1_1_i_generic_depthfirst_strategy.xhtml" target="_top" xlink:title=" ">
<polygon fill="white" stroke="black" points="1.5,-157.5 1.5,-187.5 183.5,-187.5 183.5,-157.5 1.5,-157.5"/>
<text text-anchor="start" x="9.5" y="-175.5" font-family="Helvetica,sans-Serif" font-size="10.00">IGenericDepthfirstStrategy</text>
<text text-anchor="middle" x="92.5" y="-164.5" font-family="Helvetica,sans-Serif" font-size="10.00">&lt; TInput, TOutput, OutputStage &gt;</text>
</a>
</g>
</g>
<!-- Node3&#45;&gt;Node2 -->
<g id="edge2" class="edge">
<title>Node3&#45;&gt;Node2</title>
<path fill="none" stroke="orange" stroke-dasharray="5,2" d="M92.5,-147.09C92.5,-131.44 92.5,-111.68 92.5,-98.6"/>
<polygon fill="orange" stroke="orange" points="89,-147.13 92.5,-157.13 96,-147.13 89,-147.13"/>
<text text-anchor="start" x="92.5" y="-131" font-family="Helvetica,sans-Serif" font-size="10.00"> &lt; uint8_t, uint8_t,</text>
<text text-anchor="middle" x="138" y="-120" font-family="Helvetica,sans-Serif" font-size="10.00"> Requantize32 &gt;</text>
</g>
</g>
</svg>
