<?xml version="1.0" encoding="UTF-8" standalone="no"?>
<!DOCTYPE svg PUBLIC "-//W3C//DTD SVG 1.1//EN"
 "http://www.w3.org/Graphics/SVG/1.1/DTD/svg11.dtd">
<!-- Generated by graphviz version 2.43.0 (0)
 -->
<!-- Title: StreamHints Pages: 1 -->
<svg width="519pt" height="106pt"
 viewBox="0.00 0.00 518.50 106.00" xmlns="http://www.w3.org/2000/svg" xmlns:xlink="http://www.w3.org/1999/xlink">
<g id="graph0" class="graph" transform="scale(1 1) rotate(0) translate(4 102)">
<title>StreamHints</title>
<polygon fill="white" stroke="transparent" points="-4,4 -4,-102 514.5,-102 514.5,4 -4,4"/>
<!-- Node1 -->
<g id="node1" class="node">
<title>Node1</title>
<g id="a_node1"><a xlink:title="Hints that can be passed to the stream to expose parameterization.">
<polygon fill="#bfbfbf" stroke="black" points="137,-0.5 137,-19.5 214,-19.5 214,-0.5 137,-0.5"/>
<text text-anchor="middle" x="175.5" y="-7.5" font-family="Helvetica,sans-Serif" font-size="10.00">StreamHints</text>
</a>
</g>
</g>
<!-- Node2 -->
<g id="node2" class="node">
<title>Node2</title>
<g id="a_node2"><a xlink:title=" ">
<polygon fill="white" stroke="#bfbfbf" points="0,-78.5 0,-97.5 47,-97.5 47,-78.5 0,-78.5"/>
<text text-anchor="middle" x="23.5" y="-85.5" font-family="Helvetica,sans-Serif" font-size="10.00">Target</text>
</a>
</g>
</g>
<!-- Node2&#45;&gt;Node1 -->
<g id="edge1" class="edge">
<title>Node2&#45;&gt;Node1</title>
<path fill="none" stroke="#9a32cd" stroke-dasharray="5,2" d="M34.67,-70.07C42.6,-59.34 54.19,-46.02 67.5,-38 88.53,-25.34 115.27,-18.59 136.88,-15.01"/>
<polygon fill="#9a32cd" stroke="#9a32cd" points="31.78,-68.1 28.91,-78.3 37.51,-72.11 31.78,-68.1"/>
<text text-anchor="middle" x="96" y="-46.5" font-family="Helvetica,sans-Serif" font-size="10.00"> target_hint</text>
</g>
<!-- Node3 -->
<g id="node3" class="node">
<title>Node3</title>
<g id="a_node3"><a xlink:title=" ">
<polygon fill="white" stroke="#bfbfbf" points="65,-78.5 65,-97.5 146,-97.5 146,-78.5 65,-78.5"/>
<text text-anchor="middle" x="105.5" y="-85.5" font-family="Helvetica,sans-Serif" font-size="10.00">FastMathHint</text>
</a>
</g>
</g>
<!-- Node3&#45;&gt;Node1 -->
<g id="edge2" class="edge">
<title>Node3&#45;&gt;Node1</title>
<path fill="none" stroke="#9a32cd" stroke-dasharray="5,2" d="M119,-70.47C127.06,-60.8 137.61,-48.48 147.5,-38 153.52,-31.61 160.65,-24.75 166.21,-19.54"/>
<polygon fill="#9a32cd" stroke="#9a32cd" points="116.07,-68.53 112.4,-78.47 121.46,-72.98 116.07,-68.53"/>
<text text-anchor="middle" x="186" y="-46.5" font-family="Helvetica,sans-Serif" font-size="10.00"> fast_math_hint</text>
</g>
<!-- Node4 -->
<g id="node4" class="node">
<title>Node4</title>
<g id="a_node4"><a xlink:title=" ">
<polygon fill="white" stroke="#bfbfbf" points="164.5,-78.5 164.5,-97.5 328.5,-97.5 328.5,-78.5 164.5,-78.5"/>
<text text-anchor="middle" x="246.5" y="-85.5" font-family="Helvetica,sans-Serif" font-size="10.00">DepthwiseConvolutionMethod</text>
</a>
</g>
</g>
<!-- Node4&#45;&gt;Node1 -->
<g id="edge3" class="edge">
<title>Node4&#45;&gt;Node1</title>
<path fill="none" stroke="#9a32cd" stroke-dasharray="5,2" d="M241.43,-68.68C237.94,-58.7 232.48,-46.66 224.5,-38 217.26,-30.14 207.19,-24.05 198.07,-19.66"/>
<polygon fill="#9a32cd" stroke="#9a32cd" points="238.15,-69.93 244.46,-78.44 244.84,-67.86 238.15,-69.93"/>
<text text-anchor="start" x="237.5" y="-52" font-family="Helvetica,sans-Serif" font-size="10.00"> depthwise_convolution</text>
<text text-anchor="middle" x="295.5" y="-41" font-family="Helvetica,sans-Serif" font-size="10.00">_method_hint</text>
</g>
<!-- Node5 -->
<g id="node5" class="node">
<title>Node5</title>
<g id="a_node5"><a xlink:title=" ">
<polygon fill="white" stroke="#bfbfbf" points="346.5,-78.5 346.5,-97.5 458.5,-97.5 458.5,-78.5 346.5,-78.5"/>
<text text-anchor="middle" x="402.5" y="-85.5" font-family="Helvetica,sans-Serif" font-size="10.00">ConvolutionMethod</text>
</a>
</g>
</g>
<!-- Node5&#45;&gt;Node1 -->
<g id="edge4" class="edge">
<title>Node5&#45;&gt;Node1</title>
<path fill="none" stroke="#9a32cd" stroke-dasharray="5,2" d="M391.52,-70.01C383.47,-59.02 371.53,-45.44 357.5,-38 333.37,-25.2 260.27,-17.46 214.39,-13.72"/>
<polygon fill="#9a32cd" stroke="#9a32cd" points="388.77,-72.18 397.32,-78.43 394.53,-68.21 388.77,-72.18"/>
<text text-anchor="middle" x="447" y="-46.5" font-family="Helvetica,sans-Serif" font-size="10.00"> convolution_method_hint</text>
</g>
</g>
</svg>
