<?xml version="1.0" encoding="UTF-8" standalone="no"?>
<!DOCTYPE svg PUBLIC "-//W3C//DTD SVG 1.1//EN"
 "http://www.w3.org/Graphics/SVG/1.1/DTD/svg11.dtd">
<!-- Generated by graphviz version 2.43.0 (0)
 -->
<!-- Title: WinogradInfo Pages: 1 -->
<svg width="237pt" height="117pt"
 viewBox="0.00 0.00 236.50 117.00" xmlns="http://www.w3.org/2000/svg" xmlns:xlink="http://www.w3.org/1999/xlink">
<g id="graph0" class="graph" transform="scale(1 1) rotate(0) translate(4 113)">
<title>WinogradInfo</title>
<polygon fill="white" stroke="transparent" points="-4,4 -4,-113 232.5,-113 232.5,4 -4,4"/>
<!-- Node1 -->
<g id="node1" class="node">
<title>Node1</title>
<g id="a_node1"><a xlink:title="Winograd information.">
<polygon fill="#bfbfbf" stroke="black" points="53.5,-0.5 53.5,-19.5 135.5,-19.5 135.5,-0.5 53.5,-0.5"/>
<text text-anchor="middle" x="94.5" y="-7.5" font-family="Helvetica,sans-Serif" font-size="10.00">WinogradInfo</text>
</a>
</g>
</g>
<!-- Node2 -->
<g id="node2" class="node">
<title>Node2</title>
<g id="a_node2"><a xlink:href="classarm__compute_1_1_pad_stride_info.xhtml" target="_top" xlink:title="Padding and stride information class.">
<polygon fill="white" stroke="black" points="0,-89.5 0,-108.5 81,-108.5 81,-89.5 0,-89.5"/>
<text text-anchor="middle" x="40.5" y="-96.5" font-family="Helvetica,sans-Serif" font-size="10.00">PadStrideInfo</text>
</a>
</g>
</g>
<!-- Node2&#45;&gt;Node1 -->
<g id="edge1" class="edge">
<title>Node2&#45;&gt;Node1</title>
<path fill="none" stroke="#9a32cd" stroke-dasharray="5,2" d="M36.14,-79.61C34.2,-66.97 33.82,-50.3 41.5,-38 46.75,-29.59 55.52,-23.69 64.42,-19.6"/>
<polygon fill="#9a32cd" stroke="#9a32cd" points="32.72,-80.35 38.09,-89.48 39.58,-78.99 32.72,-80.35"/>
<text text-anchor="middle" x="84" y="-52" font-family="Helvetica,sans-Serif" font-size="10.00"> convolution_info</text>
</g>
<!-- Node3 -->
<g id="node3" class="node">
<title>Node3</title>
<g id="a_node3"><a xlink:href="classarm__compute_1_1_size2_d.xhtml" target="_top" xlink:title="Class for specifying the size of an image or rectangle.">
<polygon fill="white" stroke="black" points="123.5,-89.5 123.5,-108.5 173.5,-108.5 173.5,-89.5 123.5,-89.5"/>
<text text-anchor="middle" x="148.5" y="-96.5" font-family="Helvetica,sans-Serif" font-size="10.00">Size2D</text>
</a>
</g>
</g>
<!-- Node3&#45;&gt;Node1 -->
<g id="edge2" class="edge">
<title>Node3&#45;&gt;Node1</title>
<path fill="none" stroke="#9a32cd" stroke-dasharray="5,2" d="M144.36,-79.41C140.96,-66.92 135.26,-50.51 126.5,-38 121.5,-30.85 114.15,-24.47 107.76,-19.71"/>
<polygon fill="#9a32cd" stroke="#9a32cd" points="140.98,-80.32 146.77,-89.19 147.77,-78.64 140.98,-80.32"/>
<text text-anchor="middle" x="185" y="-63" font-family="Helvetica,sans-Serif" font-size="10.00"> kernel_size</text>
<text text-anchor="middle" x="185" y="-52" font-family="Helvetica,sans-Serif" font-size="10.00">output_tile_size</text>
<text text-anchor="middle" x="185" y="-41" font-family="Helvetica,sans-Serif" font-size="10.00">input_dimensions</text>
</g>
</g>
</svg>
