<?xml version="1.0" encoding="UTF-8" standalone="no"?>
<!DOCTYPE svg PUBLIC "-//W3C//DTD SVG 1.1//EN"
 "http://www.w3.org/Graphics/SVG/1.1/DTD/svg11.dtd">
<!-- Generated by graphviz version 2.43.0 (0)
 -->
<!-- Title: DepthwiseDepthfirstStrategyCommon&lt; TInput, TWeight, TOutput, TAccum, OutputStage &gt; Pages: 1 -->
<svg width="189pt" height="240pt"
 viewBox="0.00 0.00 189.00 240.00" xmlns="http://www.w3.org/2000/svg" xmlns:xlink="http://www.w3.org/1999/xlink">
<g id="graph0" class="graph" transform="scale(1 1) rotate(0) translate(4 236)">
<title>DepthwiseDepthfirstStrategyCommon&lt; TInput, TWeight, TOutput, TAccum, OutputStage &gt;</title>
<polygon fill="white" stroke="transparent" points="-4,4 -4,-236 185,-236 185,4 -4,4"/>
<!-- Node1 -->
<g id="node1" class="node">
<title>Node1</title>
<g id="a_node1"><a xlink:title=" ">
<polygon fill="#bfbfbf" stroke="black" points="0,-0.5 0,-41.5 181,-41.5 181,-0.5 0,-0.5"/>
<text text-anchor="start" x="8" y="-29.5" font-family="Helvetica,sans-Serif" font-size="10.00">DepthwiseDepthfirstStrategy</text>
<text text-anchor="start" x="8" y="-18.5" font-family="Helvetica,sans-Serif" font-size="10.00">Common&lt; TInput, TWeight,</text>
<text text-anchor="middle" x="90.5" y="-7.5" font-family="Helvetica,sans-Serif" font-size="10.00"> TOutput, TAccum, OutputStage &gt;</text>
</a>
</g>
</g>
<!-- Node2 -->
<g id="node2" class="node">
<title>Node2</title>
<g id="a_node2"><a xlink:href="classarm__conv_1_1depthwise_1_1_depthfirst_strategy.xhtml" target="_top" xlink:title=" ">
<polygon fill="white" stroke="black" points="14.5,-78.5 14.5,-119.5 166.5,-119.5 166.5,-78.5 14.5,-78.5"/>
<text text-anchor="start" x="22.5" y="-107.5" font-family="Helvetica,sans-Serif" font-size="10.00">DepthfirstStrategy</text>
<text text-anchor="start" x="22.5" y="-96.5" font-family="Helvetica,sans-Serif" font-size="10.00">&lt; TInput, TWeight, TOutput,</text>
<text text-anchor="middle" x="90.5" y="-85.5" font-family="Helvetica,sans-Serif" font-size="10.00"> TAccum, OutputStage &gt;</text>
</a>
</g>
</g>
<!-- Node2&#45;&gt;Node1 -->
<g id="edge1" class="edge">
<title>Node2&#45;&gt;Node1</title>
<path fill="none" stroke="midnightblue" d="M90.5,-68.3C90.5,-59.3 90.5,-49.65 90.5,-41.51"/>
<polygon fill="midnightblue" stroke="midnightblue" points="87,-68.43 90.5,-78.43 94,-68.43 87,-68.43"/>
</g>
<!-- Node3 -->
<g id="node3" class="node">
<title>Node3</title>
<g id="a_node3"><a xlink:href="classarm__conv_1_1depthwise_1_1_depthfirst_strategy_untyped.xhtml" target="_top" xlink:title=" ">
<polygon fill="white" stroke="black" points="17,-156.5 17,-175.5 164,-175.5 164,-156.5 17,-156.5"/>
<text text-anchor="middle" x="90.5" y="-163.5" font-family="Helvetica,sans-Serif" font-size="10.00">DepthfirstStrategyUntyped</text>
</a>
</g>
</g>
<!-- Node3&#45;&gt;Node2 -->
<g id="edge2" class="edge">
<title>Node3&#45;&gt;Node2</title>
<path fill="none" stroke="midnightblue" d="M90.5,-146.04C90.5,-137.71 90.5,-127.94 90.5,-119.54"/>
<polygon fill="midnightblue" stroke="midnightblue" points="87,-146.23 90.5,-156.23 94,-146.23 87,-146.23"/>
</g>
<!-- Node4 -->
<g id="node4" class="node">
<title>Node4</title>
<g id="a_node4"><a xlink:href="classarm__conv_1_1depthwise_1_1_i_depthfirst_strategy.xhtml" target="_top" xlink:title=" ">
<polygon fill="white" stroke="black" points="36,-212.5 36,-231.5 145,-231.5 145,-212.5 36,-212.5"/>
<text text-anchor="middle" x="90.5" y="-219.5" font-family="Helvetica,sans-Serif" font-size="10.00">IDepthfirstStrategy</text>
</a>
</g>
</g>
<!-- Node4&#45;&gt;Node3 -->
<g id="edge3" class="edge">
<title>Node4&#45;&gt;Node3</title>
<path fill="none" stroke="midnightblue" d="M90.5,-201.8C90.5,-192.91 90.5,-182.78 90.5,-175.75"/>
<polygon fill="midnightblue" stroke="midnightblue" points="87,-202.08 90.5,-212.08 94,-202.08 87,-202.08"/>
</g>
</g>
</svg>
