<?xml version="1.0" encoding="UTF-8" standalone="no"?>
<!DOCTYPE svg PUBLIC "-//W3C//DTD SVG 1.1//EN"
 "http://www.w3.org/Graphics/SVG/1.1/DTD/svg11.dtd">
<!-- Generated by graphviz version 2.43.0 (0)
 -->
<!-- Title: CpuPool2dAssemblyWrapperKernel Pages: 1 -->
<svg width="303pt" height="299pt"
 viewBox="0.00 0.00 303.00 299.00" xmlns="http://www.w3.org/2000/svg" xmlns:xlink="http://www.w3.org/1999/xlink">
<g id="graph0" class="graph" transform="scale(1 1) rotate(0) translate(4 295)">
<title>CpuPool2dAssemblyWrapperKernel</title>
<polygon fill="white" stroke="transparent" points="-4,4 -4,-295 299,-295 299,4 -4,4"/>
<!-- Node1 -->
<g id="node1" class="node">
<title>Node1</title>
<g id="a_node1"><a xlink:title="This class is a wrapper for the assembly kernels.">
<polygon fill="#bfbfbf" stroke="black" points="11,-0.5 11,-30.5 169,-30.5 169,-0.5 11,-0.5"/>
<text text-anchor="start" x="19" y="-18.5" font-family="Helvetica,sans-Serif" font-size="10.00">CpuPool2dAssemblyWrapper</text>
<text text-anchor="middle" x="90" y="-7.5" font-family="Helvetica,sans-Serif" font-size="10.00">Kernel</text>
</a>
</g>
</g>
<!-- Node2 -->
<g id="node2" class="node">
<title>Node2</title>
<g id="a_node2"><a xlink:href="classarm__compute_1_1cpu_1_1_i_cpu_kernel.xhtml" target="_top" xlink:title=" ">
<polygon fill="white" stroke="black" points="0,-68.5 0,-98.5 180,-98.5 180,-68.5 0,-68.5"/>
<text text-anchor="start" x="8" y="-86.5" font-family="Helvetica,sans-Serif" font-size="10.00">ICpuKernel&lt; CpuPool2dAssembly</text>
<text text-anchor="middle" x="90" y="-75.5" font-family="Helvetica,sans-Serif" font-size="10.00">WrapperKernel &gt;</text>
</a>
</g>
</g>
<!-- Node2&#45;&gt;Node1 -->
<g id="edge1" class="edge">
<title>Node2&#45;&gt;Node1</title>
<path fill="none" stroke="midnightblue" d="M90,-58.03C90,-48.86 90,-38.74 90,-30.79"/>
<polygon fill="midnightblue" stroke="midnightblue" points="86.5,-58.18 90,-68.18 93.5,-58.18 86.5,-58.18"/>
</g>
<!-- Node3 -->
<g id="node3" class="node">
<title>Node3</title>
<g id="a_node3"><a xlink:href="classarm__compute_1_1_i_c_p_p_kernel.xhtml" target="_top" xlink:title="Common interface for all kernels implemented in C++.">
<polygon fill="white" stroke="black" points="51.5,-214.5 51.5,-233.5 120.5,-233.5 120.5,-214.5 51.5,-214.5"/>
<text text-anchor="middle" x="86" y="-221.5" font-family="Helvetica,sans-Serif" font-size="10.00">ICPPKernel</text>
</a>
</g>
</g>
<!-- Node3&#45;&gt;Node2 -->
<g id="edge2" class="edge">
<title>Node3&#45;&gt;Node2</title>
<path fill="none" stroke="midnightblue" d="M86.54,-204.25C87.35,-176.19 88.86,-123.88 89.59,-98.73"/>
<polygon fill="midnightblue" stroke="midnightblue" points="83.04,-204.24 86.25,-214.34 90.04,-204.44 83.04,-204.24"/>
</g>
<!-- Node5 -->
<g id="node5" class="node">
<title>Node5</title>
<g id="a_node5"><a xlink:href="classarm__compute_1_1cpu_1_1_i_cpu_kernel.xhtml" target="_top" xlink:title=" ">
<polygon fill="white" stroke="black" points="102,-157.5 102,-176.5 232,-176.5 232,-157.5 102,-157.5"/>
<text text-anchor="middle" x="167" y="-164.5" font-family="Helvetica,sans-Serif" font-size="10.00">ICpuKernel&lt; Derived &gt;</text>
</a>
</g>
</g>
<!-- Node3&#45;&gt;Node5 -->
<g id="edge5" class="edge">
<title>Node3&#45;&gt;Node5</title>
<path fill="none" stroke="midnightblue" d="M107.3,-208.54C122.3,-198.35 141.86,-185.07 154.43,-176.53"/>
<polygon fill="midnightblue" stroke="midnightblue" points="104.96,-205.89 98.66,-214.41 108.9,-211.68 104.96,-205.89"/>
</g>
<!-- Node4 -->
<g id="node4" class="node">
<title>Node4</title>
<g id="a_node4"><a xlink:href="classarm__compute_1_1_i_kernel.xhtml" target="_top" xlink:title="Common information for all the kernels.">
<polygon fill="white" stroke="black" points="61,-271.5 61,-290.5 111,-290.5 111,-271.5 61,-271.5"/>
<text text-anchor="middle" x="86" y="-278.5" font-family="Helvetica,sans-Serif" font-size="10.00">IKernel</text>
</a>
</g>
</g>
<!-- Node4&#45;&gt;Node3 -->
<g id="edge3" class="edge">
<title>Node4&#45;&gt;Node3</title>
<path fill="none" stroke="midnightblue" d="M86,-261.12C86,-251.82 86,-241.06 86,-233.71"/>
<polygon fill="midnightblue" stroke="midnightblue" points="82.5,-261.41 86,-271.41 89.5,-261.41 82.5,-261.41"/>
</g>
<!-- Node5&#45;&gt;Node2 -->
<g id="edge4" class="edge">
<title>Node5&#45;&gt;Node2</title>
<path fill="none" stroke="orange" stroke-dasharray="5,2" d="M151.68,-149.78C137.55,-134.83 116.78,-112.84 103.32,-98.6"/>
<polygon fill="orange" stroke="orange" points="149.35,-152.41 158.76,-157.28 154.44,-147.61 149.35,-152.41"/>
<text text-anchor="start" x="139" y="-131" font-family="Helvetica,sans-Serif" font-size="10.00"> &lt; CpuPool2dAssemblyWrapper</text>
<text text-anchor="middle" x="217" y="-120" font-family="Helvetica,sans-Serif" font-size="10.00">Kernel &gt;</text>
</g>
</g>
</svg>
