<?xml version="1.0" encoding="UTF-8" standalone="no"?>
<!DOCTYPE svg PUBLIC "-//W3C//DTD SVG 1.1//EN"
 "http://www.w3.org/Graphics/SVG/1.1/DTD/svg11.dtd">
<!-- Generated by graphviz version 2.43.0 (0)
 -->
<!-- Title: src/runtime/CPP/functions Pages: 1 -->
<svg width="138pt" height="295pt"
 viewBox="0.00 0.00 137.50 295.00" xmlns="http://www.w3.org/2000/svg" xmlns:xlink="http://www.w3.org/1999/xlink">
<g id="graph0" class="graph" transform="scale(1 1) rotate(0) translate(4 291)">
<title>src/runtime/CPP/functions</title>
<polygon fill="white" stroke="transparent" points="-4,4 -4,-291 133.5,-291 133.5,4 -4,4"/>
<g id="clust1" class="cluster">
<title>clusterdir_9240672d44dfdb0f539b385a1f058d2d</title>
<g id="a_clust1"><a xlink:href="dir_9240672d44dfdb0f539b385a1f058d2d.xhtml" target="_top" xlink:title="CPP">
<polygon fill="#ddddee" stroke="black" points="13,-208 13,-279 91,-279 91,-208 13,-208"/>
<text text-anchor="middle" x="52" y="-267" font-family="Helvetica,sans-Serif" font-size="10.00">CPP</text>
</a>
</g>
</g>
<!-- dir_8f7fe1d9d655d949f37b90c9cd0a7992 -->
<g id="node1" class="node">
<title>dir_8f7fe1d9d655d949f37b90c9cd0a7992</title>
<g id="a_node1"><a xlink:href="dir_8f7fe1d9d655d949f37b90c9cd0a7992.xhtml" target="_top" xlink:title="functions">
<polygon fill="#eeeeff" stroke="black" points="83,-252 21,-252 21,-216 83,-216 83,-252"/>
<text text-anchor="middle" x="52" y="-231.5" font-family="Helvetica,sans-Serif" font-size="10.00">functions</text>
</a>
</g>
</g>
<!-- dir_214608ef36d61442cb2b0c1c4e9a7def -->
<g id="node2" class="node">
<title>dir_214608ef36d61442cb2b0c1c4e9a7def</title>
<g id="a_node2"><a xlink:href="dir_214608ef36d61442cb2b0c1c4e9a7def.xhtml" target="_top" xlink:title="arm_compute">
<polygon fill="white" stroke="red" points="84,-36 0,-36 0,0 84,0 84,-36"/>
<text text-anchor="middle" x="42" y="-15.5" font-family="Helvetica,sans-Serif" font-size="10.00">arm_compute</text>
</a>
</g>
</g>
<!-- dir_8f7fe1d9d655d949f37b90c9cd0a7992&#45;&gt;dir_214608ef36d61442cb2b0c1c4e9a7def -->
<g id="edge1" class="edge">
<title>dir_8f7fe1d9d655d949f37b90c9cd0a7992&#45;&gt;dir_214608ef36d61442cb2b0c1c4e9a7def</title>
<path fill="none" stroke="black" d="M36.39,-215.77C28.63,-206.03 20.05,-193.18 16,-180 1.88,-134.09 17.89,-78.33 30.3,-45.93"/>
<polygon fill="black" stroke="black" points="33.7,-46.86 34.16,-36.27 27.2,-44.26 33.7,-46.86"/>
<g id="a_edge1&#45;headlabel"><a xlink:href="dir_000538_000000.xhtml" target="_top" xlink:title="19">
<text text-anchor="middle" x="35" y="-48.75" font-family="Helvetica,sans-Serif" font-size="10.00">19</text>
</a>
</g>
</g>
<!-- dir_aebb8dcc11953d78e620bbef0b9e2183 -->
<g id="node3" class="node">
<title>dir_aebb8dcc11953d78e620bbef0b9e2183</title>
<g id="a_node3"><a xlink:href="dir_aebb8dcc11953d78e620bbef0b9e2183.xhtml" target="_top" xlink:title="core">
<polygon fill="white" stroke="red" points="79,-180 25,-180 25,-144 79,-144 79,-180"/>
<text text-anchor="middle" x="52" y="-159.5" font-family="Helvetica,sans-Serif" font-size="10.00">core</text>
</a>
</g>
</g>
<!-- dir_8f7fe1d9d655d949f37b90c9cd0a7992&#45;&gt;dir_aebb8dcc11953d78e620bbef0b9e2183 -->
<g id="edge2" class="edge">
<title>dir_8f7fe1d9d655d949f37b90c9cd0a7992&#45;&gt;dir_aebb8dcc11953d78e620bbef0b9e2183</title>
<path fill="none" stroke="black" d="M52,-215.7C52,-207.98 52,-198.71 52,-190.11"/>
<polygon fill="black" stroke="black" points="55.5,-190.1 52,-180.1 48.5,-190.1 55.5,-190.1"/>
<g id="a_edge2&#45;headlabel"><a xlink:href="dir_000538_000017.xhtml" target="_top" xlink:title="2">
<text text-anchor="middle" x="58.34" y="-191.2" font-family="Helvetica,sans-Serif" font-size="10.00">2</text>
</a>
</g>
</g>
<!-- dir_fdedb0aba14d44ce9d99bc100e026e6a -->
<g id="node4" class="node">
<title>dir_fdedb0aba14d44ce9d99bc100e026e6a</title>
<g id="a_node4"><a xlink:href="dir_fdedb0aba14d44ce9d99bc100e026e6a.xhtml" target="_top" xlink:title="common">
<polygon fill="white" stroke="red" points="129.5,-108 70.5,-108 70.5,-72 129.5,-72 129.5,-108"/>
<text text-anchor="middle" x="100" y="-87.5" font-family="Helvetica,sans-Serif" font-size="10.00">common</text>
</a>
</g>
</g>
<!-- dir_8f7fe1d9d655d949f37b90c9cd0a7992&#45;&gt;dir_fdedb0aba14d44ce9d99bc100e026e6a -->
<g id="edge3" class="edge">
<title>dir_8f7fe1d9d655d949f37b90c9cd0a7992&#45;&gt;dir_fdedb0aba14d44ce9d99bc100e026e6a</title>
<path fill="none" stroke="black" d="M66.91,-215.53C74.47,-205.72 83.07,-192.88 88,-180 95.55,-160.25 98.47,-136.45 99.55,-118.43"/>
<polygon fill="black" stroke="black" points="103.05,-118.45 99.99,-108.31 96.06,-118.14 103.05,-118.45"/>
<g id="a_edge3&#45;headlabel"><a xlink:href="dir_000538_000016.xhtml" target="_top" xlink:title="7">
<text text-anchor="middle" x="105.73" y="-119.67" font-family="Helvetica,sans-Serif" font-size="10.00">7</text>
</a>
</g>
</g>
<!-- dir_aebb8dcc11953d78e620bbef0b9e2183&#45;&gt;dir_214608ef36d61442cb2b0c1c4e9a7def -->
<g id="edge4" class="edge">
<title>dir_aebb8dcc11953d78e620bbef0b9e2183&#45;&gt;dir_214608ef36d61442cb2b0c1c4e9a7def</title>
<path fill="none" stroke="black" d="M50.79,-143.87C49.09,-119.67 45.96,-75.21 43.93,-46.39"/>
<polygon fill="black" stroke="black" points="47.4,-45.92 43.21,-36.19 40.42,-46.41 47.4,-45.92"/>
<g id="a_edge4&#45;headlabel"><a xlink:href="dir_000017_000000.xhtml" target="_top" xlink:title="686">
<text text-anchor="middle" x="50.49" y="-46.8" font-family="Helvetica,sans-Serif" font-size="10.00">686</text>
</a>
</g>
</g>
<!-- dir_aebb8dcc11953d78e620bbef0b9e2183&#45;&gt;dir_fdedb0aba14d44ce9d99bc100e026e6a -->
<g id="edge5" class="edge">
<title>dir_aebb8dcc11953d78e620bbef0b9e2183&#45;&gt;dir_fdedb0aba14d44ce9d99bc100e026e6a</title>
<path fill="none" stroke="black" d="M63.87,-143.7C69.5,-135.47 76.35,-125.48 82.57,-116.42"/>
<polygon fill="black" stroke="black" points="85.5,-118.33 88.27,-108.1 79.73,-114.37 85.5,-118.33"/>
<g id="a_edge5&#45;headlabel"><a xlink:href="dir_000017_000016.xhtml" target="_top" xlink:title="6">
<text text-anchor="middle" x="85.81" y="-120.4" font-family="Helvetica,sans-Serif" font-size="10.00">6</text>
</a>
</g>
</g>
<!-- dir_fdedb0aba14d44ce9d99bc100e026e6a&#45;&gt;dir_214608ef36d61442cb2b0c1c4e9a7def -->
<g id="edge6" class="edge">
<title>dir_fdedb0aba14d44ce9d99bc100e026e6a&#45;&gt;dir_214608ef36d61442cb2b0c1c4e9a7def</title>
<path fill="none" stroke="black" d="M85.66,-71.7C78.71,-63.3 70.23,-53.07 62.6,-43.86"/>
<polygon fill="black" stroke="black" points="65.25,-41.57 56.17,-36.1 59.86,-46.04 65.25,-41.57"/>
<g id="a_edge6&#45;headlabel"><a xlink:href="dir_000016_000000.xhtml" target="_top" xlink:title="17">
<text text-anchor="middle" x="69.73" y="-40.03" font-family="Helvetica,sans-Serif" font-size="10.00">17</text>
</a>
</g>
</g>
</g>
</svg>
