<?xml version="1.0" encoding="UTF-8" standalone="no"?>
<!DOCTYPE svg PUBLIC "-//W3C//DTD SVG 1.1//EN"
 "http://www.w3.org/Graphics/SVG/1.1/DTD/svg11.dtd">
<!-- Generated by graphviz version 2.43.0 (0)
 -->
<!-- Title: src Pages: 1 -->
<svg width="694pt" height="564pt"
 viewBox="0.00 0.00 694.00 564.00" xmlns="http://www.w3.org/2000/svg" xmlns:xlink="http://www.w3.org/1999/xlink">
<g id="graph0" class="graph" transform="scale(1 1) rotate(0) translate(4 560)">
<title>src</title>
<polygon fill="white" stroke="transparent" points="-4,4 -4,-560 690,-560 690,4 -4,4"/>
<g id="clust1" class="cluster">
<title>clusterdir_68267d1309a1af8e8297ef4c3efbcdba</title>
<g id="a_clust1"><a xlink:href="dir_68267d1309a1af8e8297ef4c3efbcdba.xhtml" target="_top">
<polygon fill="#eeeeff" stroke="black" points="96,-136 96,-548 350,-548 350,-136 96,-136"/>
</a>
</g>
</g>
<!-- dir_68267d1309a1af8e8297ef4c3efbcdba -->
<g id="node1" class="node">
<title>dir_68267d1309a1af8e8297ef4c3efbcdba</title>
<text text-anchor="middle" x="315" y="-519.5" font-family="Helvetica,sans-Serif" font-size="10.00">src</text>
</g>
<!-- dir_3b19ecf29356981f494745fbef7e56bf -->
<g id="node2" class="node">
<title>dir_3b19ecf29356981f494745fbef7e56bf</title>
<g id="a_node2"><a xlink:href="dir_3b19ecf29356981f494745fbef7e56bf.xhtml" target="_top" xlink:title="c">
<polygon fill="white" stroke="red" points="158,-540 104,-540 104,-504 158,-504 158,-540"/>
<text text-anchor="middle" x="131" y="-519.5" font-family="Helvetica,sans-Serif" font-size="10.00">c</text>
</a>
</g>
</g>
<!-- dir_fdedb0aba14d44ce9d99bc100e026e6a -->
<g id="node3" class="node">
<title>dir_fdedb0aba14d44ce9d99bc100e026e6a</title>
<g id="a_node3"><a xlink:href="dir_fdedb0aba14d44ce9d99bc100e026e6a.xhtml" target="_top" xlink:title="common">
<polygon fill="white" stroke="red" points="214.5,-180 155.5,-180 155.5,-144 214.5,-144 214.5,-180"/>
<text text-anchor="middle" x="185" y="-159.5" font-family="Helvetica,sans-Serif" font-size="10.00">common</text>
</a>
</g>
</g>
<!-- dir_3b19ecf29356981f494745fbef7e56bf&#45;&gt;dir_fdedb0aba14d44ce9d99bc100e026e6a -->
<g id="edge33" class="edge">
<title>dir_3b19ecf29356981f494745fbef7e56bf&#45;&gt;dir_fdedb0aba14d44ce9d99bc100e026e6a</title>
<path fill="none" stroke="black" d="M125.74,-503.7C118.14,-477.14 105,-424.61 105,-379 105,-379 105,-379 105,-305 105,-264.55 103.45,-250.84 124,-216 130.64,-204.75 140.51,-194.67 150.4,-186.4"/>
<polygon fill="black" stroke="black" points="152.6,-189.12 158.26,-180.17 148.25,-183.64 152.6,-189.12"/>
<g id="a_edge33&#45;headlabel"><a xlink:href="dir_000084_000016.xhtml" target="_top" xlink:title="20">
<text text-anchor="middle" x="151.55" y="-191.08" font-family="Helvetica,sans-Serif" font-size="10.00">20</text>
</a>
</g>
</g>
<!-- dir_cf895c1ed808af158264b2f3d8d7f8f0 -->
<g id="node7" class="node">
<title>dir_cf895c1ed808af158264b2f3d8d7f8f0</title>
<g id="a_node7"><a xlink:href="dir_cf895c1ed808af158264b2f3d8d7f8f0.xhtml" target="_top" xlink:title="gpu">
<polygon fill="white" stroke="red" points="336,-468 282,-468 282,-432 336,-432 336,-468"/>
<text text-anchor="middle" x="309" y="-447.5" font-family="Helvetica,sans-Serif" font-size="10.00">gpu</text>
</a>
</g>
</g>
<!-- dir_3b19ecf29356981f494745fbef7e56bf&#45;&gt;dir_cf895c1ed808af158264b2f3d8d7f8f0 -->
<g id="edge30" class="edge">
<title>dir_3b19ecf29356981f494745fbef7e56bf&#45;&gt;dir_cf895c1ed808af158264b2f3d8d7f8f0</title>
<path fill="none" stroke="black" d="M158.02,-507.94C161.03,-506.58 164.07,-505.24 167,-504 202.24,-489.13 243.25,-474.06 272.1,-463.81"/>
<polygon fill="black" stroke="black" points="273.51,-467.03 281.78,-460.39 271.18,-460.42 273.51,-467.03"/>
<g id="a_edge30&#45;headlabel"><a xlink:href="dir_000084_000004.xhtml" target="_top" xlink:title="2">
<text text-anchor="middle" x="271.07" y="-468.4" font-family="Helvetica,sans-Serif" font-size="10.00">2</text>
</a>
</g>
</g>
<!-- dir_214608ef36d61442cb2b0c1c4e9a7def -->
<g id="node11" class="node">
<title>dir_214608ef36d61442cb2b0c1c4e9a7def</title>
<g id="a_node11"><a xlink:href="dir_214608ef36d61442cb2b0c1c4e9a7def.xhtml" target="_top" xlink:title="arm_compute">
<polygon fill="white" stroke="red" points="451,-180 367,-180 367,-144 451,-144 451,-180"/>
<text text-anchor="middle" x="409" y="-159.5" font-family="Helvetica,sans-Serif" font-size="10.00">arm_compute</text>
</a>
</g>
</g>
<!-- dir_3b19ecf29356981f494745fbef7e56bf&#45;&gt;dir_214608ef36d61442cb2b0c1c4e9a7def -->
<g id="edge31" class="edge">
<title>dir_3b19ecf29356981f494745fbef7e56bf&#45;&gt;dir_214608ef36d61442cb2b0c1c4e9a7def</title>
<path fill="none" stroke="black" d="M158.24,-507.3C161.16,-506.09 164.11,-504.96 167,-504 345.79,-444.68 572,-567.38 572,-379 572,-379 572,-379 572,-305 572,-245.01 508.45,-204.57 460.71,-182.66"/>
<polygon fill="black" stroke="black" points="461.96,-179.38 451.4,-178.52 459.12,-185.78 461.96,-179.38"/>
<g id="a_edge31&#45;headlabel"><a xlink:href="dir_000084_000000.xhtml" target="_top" xlink:title="12">
<text text-anchor="middle" x="466.4" y="-175.75" font-family="Helvetica,sans-Serif" font-size="10.00">12</text>
</a>
</g>
</g>
<!-- dir_5815af820a9cc9481f1d0990a0d60286 -->
<g id="node12" class="node">
<title>dir_5815af820a9cc9481f1d0990a0d60286</title>
<g id="a_node12"><a xlink:href="dir_5815af820a9cc9481f1d0990a0d60286.xhtml" target="_top" xlink:title="support">
<polygon fill="none" stroke="black" points="333,-36 279,-36 279,0 333,0 333,-36"/>
<text text-anchor="middle" x="306" y="-15.5" font-family="Helvetica,sans-Serif" font-size="10.00">support</text>
</a>
</g>
</g>
<!-- dir_3b19ecf29356981f494745fbef7e56bf&#45;&gt;dir_5815af820a9cc9481f1d0990a0d60286 -->
<g id="edge32" class="edge">
<title>dir_3b19ecf29356981f494745fbef7e56bf&#45;&gt;dir_5815af820a9cc9481f1d0990a0d60286</title>
<path fill="none" stroke="black" d="M103.86,-507.21C65.49,-485.56 0,-439.71 0,-379 0,-379 0,-379 0,-161 0,-116.06 11.94,-98.82 48,-72 82.51,-46.34 205.62,-29.77 268.48,-22.79"/>
<polygon fill="black" stroke="black" points="269.19,-26.23 278.75,-21.67 268.43,-19.27 269.19,-26.23"/>
<g id="a_edge32&#45;headlabel"><a xlink:href="dir_000084_000031.xhtml" target="_top" xlink:title="1">
<text text-anchor="middle" x="265.92" y="-26.94" font-family="Helvetica,sans-Serif" font-size="10.00">1</text>
</a>
</g>
</g>
<!-- dir_fdedb0aba14d44ce9d99bc100e026e6a&#45;&gt;dir_214608ef36d61442cb2b0c1c4e9a7def -->
<g id="edge42" class="edge">
<title>dir_fdedb0aba14d44ce9d99bc100e026e6a&#45;&gt;dir_214608ef36d61442cb2b0c1c4e9a7def</title>
<path fill="none" stroke="black" d="M214.75,-162C262.09,-162 309.44,-162 356.78,-162"/>
<polygon fill="black" stroke="black" points="356.89,-165.5 366.89,-162 356.89,-158.5 356.89,-165.5"/>
<g id="a_edge42&#45;headlabel"><a xlink:href="dir_000016_000000.xhtml" target="_top" xlink:title="17">
<text text-anchor="middle" x="353.29" y="-165.84" font-family="Helvetica,sans-Serif" font-size="10.00">17</text>
</a>
</g>
</g>
<!-- dir_fdedb0aba14d44ce9d99bc100e026e6a&#45;&gt;dir_5815af820a9cc9481f1d0990a0d60286 -->
<g id="edge43" class="edge">
<title>dir_fdedb0aba14d44ce9d99bc100e026e6a&#45;&gt;dir_5815af820a9cc9481f1d0990a0d60286</title>
<path fill="none" stroke="black" d="M195.09,-143.7C206.34,-125.07 225.65,-95.01 246,-72 255.08,-61.73 266.07,-51.51 276.15,-42.82"/>
<polygon fill="black" stroke="black" points="278.6,-45.33 283.99,-36.21 274.09,-39.98 278.6,-45.33"/>
<g id="a_edge43&#45;headlabel"><a xlink:href="dir_000016_000031.xhtml" target="_top" xlink:title="2">
<text text-anchor="middle" x="277.68" y="-47.32" font-family="Helvetica,sans-Serif" font-size="10.00">2</text>
</a>
</g>
</g>
<!-- dir_aebb8dcc11953d78e620bbef0b9e2183 -->
<g id="node4" class="node">
<title>dir_aebb8dcc11953d78e620bbef0b9e2183</title>
<g id="a_node4"><a xlink:href="dir_aebb8dcc11953d78e620bbef0b9e2183.xhtml" target="_top" xlink:title="core">
<polygon fill="white" stroke="red" points="317,-324 263,-324 263,-288 317,-288 317,-324"/>
<text text-anchor="middle" x="290" y="-303.5" font-family="Helvetica,sans-Serif" font-size="10.00">core</text>
</a>
</g>
</g>
<!-- dir_aebb8dcc11953d78e620bbef0b9e2183&#45;&gt;dir_fdedb0aba14d44ce9d99bc100e026e6a -->
<g id="edge29" class="edge">
<title>dir_aebb8dcc11953d78e620bbef0b9e2183&#45;&gt;dir_fdedb0aba14d44ce9d99bc100e026e6a</title>
<path fill="none" stroke="black" d="M262.74,-291.41C246.83,-282.23 227.48,-268.75 215,-252 201.42,-233.77 193.73,-209 189.55,-190.22"/>
<polygon fill="black" stroke="black" points="192.94,-189.32 187.52,-180.22 186.08,-190.71 192.94,-189.32"/>
<g id="a_edge29&#45;headlabel"><a xlink:href="dir_000017_000016.xhtml" target="_top" xlink:title="6">
<text text-anchor="middle" x="196.43" y="-189.78" font-family="Helvetica,sans-Serif" font-size="10.00">6</text>
</a>
</g>
</g>
<!-- dir_2c61f424fd391396db977702a2beee9a -->
<g id="node5" class="node">
<title>dir_2c61f424fd391396db977702a2beee9a</title>
<g id="a_node5"><a xlink:href="dir_2c61f424fd391396db977702a2beee9a.xhtml" target="_top" xlink:title="cpu">
<polygon fill="white" stroke="red" points="278,-252 224,-252 224,-216 278,-216 278,-252"/>
<text text-anchor="middle" x="251" y="-231.5" font-family="Helvetica,sans-Serif" font-size="10.00">cpu</text>
</a>
</g>
</g>
<!-- dir_aebb8dcc11953d78e620bbef0b9e2183&#45;&gt;dir_2c61f424fd391396db977702a2beee9a -->
<g id="edge26" class="edge">
<title>dir_aebb8dcc11953d78e620bbef0b9e2183&#45;&gt;dir_2c61f424fd391396db977702a2beee9a</title>
<path fill="none" stroke="black" d="M274.44,-287.7C269.18,-279.73 263.6,-270.1 259.07,-261.26"/>
<polygon fill="black" stroke="black" points="262.15,-259.58 254.63,-252.1 255.85,-262.63 262.15,-259.58"/>
<g id="a_edge26&#45;headlabel"><a xlink:href="dir_000017_000373.xhtml" target="_top" xlink:title="86">
<text text-anchor="middle" x="266.27" y="-259.07" font-family="Helvetica,sans-Serif" font-size="10.00">86</text>
</a>
</g>
</g>
<!-- dir_aebb8dcc11953d78e620bbef0b9e2183&#45;&gt;dir_cf895c1ed808af158264b2f3d8d7f8f0 -->
<g id="edge25" class="edge">
<title>dir_aebb8dcc11953d78e620bbef0b9e2183&#45;&gt;dir_cf895c1ed808af158264b2f3d8d7f8f0</title>
<path fill="none" stroke="black" d="M311.07,-324.09C318.92,-333.99 326.49,-347.04 330,-360 335.55,-380.47 331.81,-404.32 325.74,-422.18"/>
<polygon fill="black" stroke="black" points="322.41,-421.09 322.06,-431.67 328.93,-423.61 322.41,-421.09"/>
<g id="a_edge25&#45;headlabel"><a xlink:href="dir_000017_000004.xhtml" target="_top" xlink:title="4">
<text text-anchor="middle" x="321.06" y="-414.21" font-family="Helvetica,sans-Serif" font-size="10.00">4</text>
</a>
</g>
</g>
<!-- dir_aebb8dcc11953d78e620bbef0b9e2183&#45;&gt;dir_214608ef36d61442cb2b0c1c4e9a7def -->
<g id="edge27" class="edge">
<title>dir_aebb8dcc11953d78e620bbef0b9e2183&#45;&gt;dir_214608ef36d61442cb2b0c1c4e9a7def</title>
<path fill="none" stroke="black" d="M304.35,-287.87C325.17,-263.03 363.88,-216.85 387.93,-188.14"/>
<polygon fill="black" stroke="black" points="390.85,-190.1 394.59,-180.19 385.49,-185.61 390.85,-190.1"/>
<g id="a_edge27&#45;headlabel"><a xlink:href="dir_000017_000000.xhtml" target="_top" xlink:title="686">
<text text-anchor="middle" x="390.72" y="-192.18" font-family="Helvetica,sans-Serif" font-size="10.00">686</text>
</a>
</g>
</g>
<!-- dir_aebb8dcc11953d78e620bbef0b9e2183&#45;&gt;dir_5815af820a9cc9481f1d0990a0d60286 -->
<g id="edge28" class="edge">
<title>dir_aebb8dcc11953d78e620bbef0b9e2183&#45;&gt;dir_5815af820a9cc9481f1d0990a0d60286</title>
<path fill="none" stroke="black" d="M290.95,-287.97C293.62,-240.29 301.18,-105.18 304.45,-46.63"/>
<polygon fill="black" stroke="black" points="307.97,-46.49 305.03,-36.31 300.98,-46.1 307.97,-46.49"/>
<g id="a_edge28&#45;headlabel"><a xlink:href="dir_000017_000031.xhtml" target="_top" xlink:title="55">
<text text-anchor="middle" x="310.6" y="-47.73" font-family="Helvetica,sans-Serif" font-size="10.00">55</text>
</a>
</g>
</g>
<!-- dir_2c61f424fd391396db977702a2beee9a&#45;&gt;dir_fdedb0aba14d44ce9d99bc100e026e6a -->
<g id="edge22" class="edge">
<title>dir_2c61f424fd391396db977702a2beee9a&#45;&gt;dir_fdedb0aba14d44ce9d99bc100e026e6a</title>
<path fill="none" stroke="black" d="M234.69,-215.7C226.69,-207.22 216.93,-196.86 208.18,-187.58"/>
<polygon fill="black" stroke="black" points="210.53,-184.98 201.13,-180.1 205.44,-189.78 210.53,-184.98"/>
<g id="a_edge22&#45;headlabel"><a xlink:href="dir_000373_000016.xhtml" target="_top" xlink:title="48">
<text text-anchor="middle" x="215.07" y="-183.15" font-family="Helvetica,sans-Serif" font-size="10.00">48</text>
</a>
</g>
</g>
<!-- dir_2c61f424fd391396db977702a2beee9a&#45;&gt;dir_aebb8dcc11953d78e620bbef0b9e2183 -->
<g id="edge20" class="edge">
<title>dir_2c61f424fd391396db977702a2beee9a&#45;&gt;dir_aebb8dcc11953d78e620bbef0b9e2183</title>
<path fill="none" stroke="black" d="M266.42,-252.1C271.68,-260.04 277.27,-269.67 281.81,-278.51"/>
<polygon fill="black" stroke="black" points="278.76,-280.23 286.28,-287.7 285.05,-277.17 278.76,-280.23"/>
<g id="a_edge20&#45;headlabel"><a xlink:href="dir_000373_000017.xhtml" target="_top" xlink:title="420">
<text text-anchor="middle" x="274.63" y="-275.74" font-family="Helvetica,sans-Serif" font-size="10.00">420</text>
</a>
</g>
</g>
<!-- dir_2c61f424fd391396db977702a2beee9a&#45;&gt;dir_214608ef36d61442cb2b0c1c4e9a7def -->
<g id="edge19" class="edge">
<title>dir_2c61f424fd391396db977702a2beee9a&#45;&gt;dir_214608ef36d61442cb2b0c1c4e9a7def</title>
<path fill="none" stroke="black" d="M278.16,-220.97C300.89,-210.9 333.87,-196.28 361.04,-184.25"/>
<polygon fill="black" stroke="black" points="362.65,-187.36 370.37,-180.11 359.81,-180.96 362.65,-187.36"/>
<g id="a_edge19&#45;headlabel"><a xlink:href="dir_000373_000000.xhtml" target="_top" xlink:title="711">
<text text-anchor="middle" x="360.51" y="-188.92" font-family="Helvetica,sans-Serif" font-size="10.00">711</text>
</a>
</g>
</g>
<!-- dir_2c61f424fd391396db977702a2beee9a&#45;&gt;dir_5815af820a9cc9481f1d0990a0d60286 -->
<g id="edge21" class="edge">
<title>dir_2c61f424fd391396db977702a2beee9a&#45;&gt;dir_5815af820a9cc9481f1d0990a0d60286</title>
<path fill="none" stroke="black" d="M255.38,-215.6C262.82,-186.05 278.46,-124.21 292,-72 294.18,-63.58 296.59,-54.42 298.79,-46.11"/>
<polygon fill="black" stroke="black" points="302.24,-46.74 301.42,-36.18 295.48,-44.95 302.24,-46.74"/>
<g id="a_edge21&#45;headlabel"><a xlink:href="dir_000373_000031.xhtml" target="_top" xlink:title="15">
<text text-anchor="middle" x="304.07" y="-48.44" font-family="Helvetica,sans-Serif" font-size="10.00">15</text>
</a>
</g>
</g>
<!-- dir_5ff8356557e4f59c6a20c3735e8d2267 -->
<g id="node6" class="node">
<title>dir_5ff8356557e4f59c6a20c3735e8d2267</title>
<g id="a_node6"><a xlink:href="dir_5ff8356557e4f59c6a20c3735e8d2267.xhtml" target="_top" xlink:title="dynamic_fusion">
<polygon fill="white" stroke="red" points="270,-540 176,-540 176,-504 270,-504 270,-540"/>
<text text-anchor="middle" x="223" y="-519.5" font-family="Helvetica,sans-Serif" font-size="10.00">dynamic_fusion</text>
</a>
</g>
</g>
<!-- dir_5ff8356557e4f59c6a20c3735e8d2267&#45;&gt;dir_fdedb0aba14d44ce9d99bc100e026e6a -->
<g id="edge14" class="edge">
<title>dir_5ff8356557e4f59c6a20c3735e8d2267&#45;&gt;dir_fdedb0aba14d44ce9d99bc100e026e6a</title>
<path fill="none" stroke="black" d="M200.76,-503.92C171.85,-479.6 125,-432.02 125,-379 125,-379 125,-379 125,-305 125,-264.73 125.02,-252.52 142,-216 146.69,-205.9 153.74,-196.08 160.77,-187.69"/>
<polygon fill="black" stroke="black" points="163.45,-189.93 167.43,-180.12 158.2,-185.31 163.45,-189.93"/>
<g id="a_edge14&#45;headlabel"><a xlink:href="dir_000020_000016.xhtml" target="_top" xlink:title="13">
<text text-anchor="middle" x="163.21" y="-192.01" font-family="Helvetica,sans-Serif" font-size="10.00">13</text>
</a>
</g>
</g>
<!-- dir_5ff8356557e4f59c6a20c3735e8d2267&#45;&gt;dir_aebb8dcc11953d78e620bbef0b9e2183 -->
<g id="edge11" class="edge">
<title>dir_5ff8356557e4f59c6a20c3735e8d2267&#45;&gt;dir_aebb8dcc11953d78e620bbef0b9e2183</title>
<path fill="none" stroke="black" d="M222.84,-503.75C223.17,-473.4 226.59,-408.99 248,-360 252.37,-350 259.11,-340.27 265.92,-331.93"/>
<polygon fill="black" stroke="black" points="268.79,-333.96 272.67,-324.1 263.49,-329.39 268.79,-333.96"/>
<g id="a_edge11&#45;headlabel"><a xlink:href="dir_000020_000017.xhtml" target="_top" xlink:title="53">
<text text-anchor="middle" x="268.59" y="-336.04" font-family="Helvetica,sans-Serif" font-size="10.00">53</text>
</a>
</g>
</g>
<!-- dir_5ff8356557e4f59c6a20c3735e8d2267&#45;&gt;dir_cf895c1ed808af158264b2f3d8d7f8f0 -->
<g id="edge9" class="edge">
<title>dir_5ff8356557e4f59c6a20c3735e8d2267&#45;&gt;dir_cf895c1ed808af158264b2f3d8d7f8f0</title>
<path fill="none" stroke="black" d="M244.26,-503.7C255.09,-494.88 268.42,-484.03 280.16,-474.47"/>
<polygon fill="black" stroke="black" points="282.44,-477.13 287.99,-468.1 278.02,-471.7 282.44,-477.13"/>
<g id="a_edge9&#45;headlabel"><a xlink:href="dir_000020_000004.xhtml" target="_top" xlink:title="5">
<text text-anchor="middle" x="281.44" y="-479.1" font-family="Helvetica,sans-Serif" font-size="10.00">5</text>
</a>
</g>
</g>
<!-- dir_bf9f26469d00835ba20ff8d80ee5a804 -->
<g id="node9" class="node">
<title>dir_bf9f26469d00835ba20ff8d80ee5a804</title>
<g id="a_node9"><a xlink:href="dir_bf9f26469d00835ba20ff8d80ee5a804.xhtml" target="_top" xlink:title="runtime">
<polygon fill="white" stroke="red" points="311.5,-396 256.5,-396 256.5,-360 311.5,-360 311.5,-396"/>
<text text-anchor="middle" x="284" y="-375.5" font-family="Helvetica,sans-Serif" font-size="10.00">runtime</text>
</a>
</g>
</g>
<!-- dir_5ff8356557e4f59c6a20c3735e8d2267&#45;&gt;dir_bf9f26469d00835ba20ff8d80ee5a804 -->
<g id="edge12" class="edge">
<title>dir_5ff8356557e4f59c6a20c3735e8d2267&#45;&gt;dir_bf9f26469d00835ba20ff8d80ee5a804</title>
<path fill="none" stroke="black" d="M230.36,-503.87C240.85,-479.46 260.19,-434.43 272.56,-405.64"/>
<polygon fill="black" stroke="black" points="275.88,-406.76 276.62,-396.19 269.45,-404 275.88,-406.76"/>
<g id="a_edge12&#45;headlabel"><a xlink:href="dir_000020_000035.xhtml" target="_top" xlink:title="4">
<text text-anchor="middle" x="277.07" y="-408.68" font-family="Helvetica,sans-Serif" font-size="10.00">4</text>
</a>
</g>
</g>
<!-- dir_5ff8356557e4f59c6a20c3735e8d2267&#45;&gt;dir_214608ef36d61442cb2b0c1c4e9a7def -->
<g id="edge10" class="edge">
<title>dir_5ff8356557e4f59c6a20c3735e8d2267&#45;&gt;dir_214608ef36d61442cb2b0c1c4e9a7def</title>
<path fill="none" stroke="black" d="M270.2,-506.02C273.17,-505.29 276.12,-504.6 279,-504 346.24,-489.97 534,-512.88 586,-468 617.01,-441.23 610,-419.97 610,-379 610,-379 610,-379 610,-305 610,-264.03 614.57,-245.37 586,-216 553.39,-182.48 500.5,-169.95 461.02,-165.37"/>
<polygon fill="black" stroke="black" points="461.34,-161.89 451.04,-164.35 460.63,-168.85 461.34,-161.89"/>
<g id="a_edge10&#45;headlabel"><a xlink:href="dir_000020_000000.xhtml" target="_top" xlink:title="191">
<text text-anchor="middle" x="465.21" y="-156.93" font-family="Helvetica,sans-Serif" font-size="10.00">191</text>
</a>
</g>
</g>
<!-- dir_5ff8356557e4f59c6a20c3735e8d2267&#45;&gt;dir_5815af820a9cc9481f1d0990a0d60286 -->
<g id="edge13" class="edge">
<title>dir_5ff8356557e4f59c6a20c3735e8d2267&#45;&gt;dir_5815af820a9cc9481f1d0990a0d60286</title>
<path fill="none" stroke="black" d="M270.2,-506C273.16,-505.26 276.11,-504.59 279,-504 424.42,-474.31 479.99,-537.76 611,-468 656.66,-443.69 686,-430.73 686,-379 686,-379 686,-379 686,-161 686,-132.37 649.74,-105.55 572,-72 494.95,-38.75 396.26,-26.11 343.4,-21.5"/>
<polygon fill="black" stroke="black" points="343.41,-17.98 333.15,-20.65 342.83,-24.96 343.41,-17.98"/>
<g id="a_edge13&#45;headlabel"><a xlink:href="dir_000020_000031.xhtml" target="_top" xlink:title="13">
<text text-anchor="middle" x="347.22" y="-12.95" font-family="Helvetica,sans-Serif" font-size="10.00">13</text>
</a>
</g>
</g>
<!-- dir_cf895c1ed808af158264b2f3d8d7f8f0&#45;&gt;dir_fdedb0aba14d44ce9d99bc100e026e6a -->
<g id="edge6" class="edge">
<title>dir_cf895c1ed808af158264b2f3d8d7f8f0&#45;&gt;dir_fdedb0aba14d44ce9d99bc100e026e6a</title>
<path fill="none" stroke="black" d="M281.75,-448.58C245.85,-446.37 183.9,-436.51 155,-396 110.11,-333.08 148.13,-235.62 170.9,-189.25"/>
<polygon fill="black" stroke="black" points="174.11,-190.66 175.49,-180.16 167.86,-187.51 174.11,-190.66"/>
<g id="a_edge6&#45;headlabel"><a xlink:href="dir_000004_000016.xhtml" target="_top" xlink:title="47">
<text text-anchor="middle" x="175.02" y="-192.65" font-family="Helvetica,sans-Serif" font-size="10.00">47</text>
</a>
</g>
</g>
<!-- dir_cf895c1ed808af158264b2f3d8d7f8f0&#45;&gt;dir_aebb8dcc11953d78e620bbef0b9e2183 -->
<g id="edge3" class="edge">
<title>dir_cf895c1ed808af158264b2f3d8d7f8f0&#45;&gt;dir_aebb8dcc11953d78e620bbef0b9e2183</title>
<path fill="none" stroke="black" d="M308.62,-431.67C312.05,-413.54 318.61,-384.38 312,-360 309.45,-350.58 304.76,-341.12 300.19,-332.85"/>
<polygon fill="black" stroke="black" points="303.2,-331.06 295.22,-324.09 297.11,-334.52 303.2,-331.06"/>
<g id="a_edge3&#45;headlabel"><a xlink:href="dir_000004_000017.xhtml" target="_top" xlink:title="235">
<text text-anchor="middle" x="307.44" y="-330.28" font-family="Helvetica,sans-Serif" font-size="10.00">235</text>
</a>
</g>
</g>
<!-- dir_cf895c1ed808af158264b2f3d8d7f8f0&#45;&gt;dir_bf9f26469d00835ba20ff8d80ee5a804 -->
<g id="edge4" class="edge">
<title>dir_cf895c1ed808af158264b2f3d8d7f8f0&#45;&gt;dir_bf9f26469d00835ba20ff8d80ee5a804</title>
<path fill="none" stroke="black" d="M296.9,-431.7C293.31,-423.9 289.74,-414.51 287,-405.83"/>
<polygon fill="black" stroke="black" points="290.33,-404.75 284.21,-396.1 283.6,-406.68 290.33,-404.75"/>
<g id="a_edge4&#45;headlabel"><a xlink:href="dir_000004_000035.xhtml" target="_top" xlink:title="17">
<text text-anchor="middle" x="294.05" y="-404.93" font-family="Helvetica,sans-Serif" font-size="10.00">17</text>
</a>
</g>
</g>
<!-- dir_cbdb8362360e11eafe2fa3bc74cf0ffd -->
<g id="node10" class="node">
<title>dir_cbdb8362360e11eafe2fa3bc74cf0ffd</title>
<g id="a_node10"><a xlink:href="dir_cbdb8362360e11eafe2fa3bc74cf0ffd.xhtml" target="_top" xlink:title="utils">
<polygon fill="white" stroke="red" points="444,-108 390,-108 390,-72 444,-72 444,-108"/>
<text text-anchor="middle" x="417" y="-87.5" font-family="Helvetica,sans-Serif" font-size="10.00">utils</text>
</a>
</g>
</g>
<!-- dir_cf895c1ed808af158264b2f3d8d7f8f0&#45;&gt;dir_cbdb8362360e11eafe2fa3bc74cf0ffd -->
<g id="edge1" class="edge">
<title>dir_cf895c1ed808af158264b2f3d8d7f8f0&#45;&gt;dir_cbdb8362360e11eafe2fa3bc74cf0ffd</title>
<path fill="none" stroke="black" d="M336.14,-444.93C395.98,-434.26 534,-399.61 534,-307 534,-307 534,-307 534,-233 534,-181.17 487,-138 452.58,-113.33"/>
<polygon fill="black" stroke="black" points="454.35,-110.3 444.14,-107.46 450.35,-116.04 454.35,-110.3"/>
<g id="a_edge1&#45;headlabel"><a xlink:href="dir_000004_000041.xhtml" target="_top" xlink:title="3">
<text text-anchor="middle" x="458.92" y="-107.52" font-family="Helvetica,sans-Serif" font-size="10.00">3</text>
</a>
</g>
</g>
<!-- dir_cf895c1ed808af158264b2f3d8d7f8f0&#45;&gt;dir_214608ef36d61442cb2b0c1c4e9a7def -->
<g id="edge2" class="edge">
<title>dir_cf895c1ed808af158264b2f3d8d7f8f0&#45;&gt;dir_214608ef36d61442cb2b0c1c4e9a7def</title>
<path fill="none" stroke="black" d="M329.29,-431.79C354.1,-409.54 395.44,-368.37 417,-324 438.15,-280.47 440.46,-263.47 431,-216 429.21,-207.01 425.86,-197.64 422.31,-189.32"/>
<polygon fill="black" stroke="black" points="425.46,-187.77 418.13,-180.12 419.08,-190.67 425.46,-187.77"/>
<g id="a_edge2&#45;headlabel"><a xlink:href="dir_000004_000000.xhtml" target="_top" xlink:title="631">
<text text-anchor="middle" x="429.53" y="-187.37" font-family="Helvetica,sans-Serif" font-size="10.00">631</text>
</a>
</g>
</g>
<!-- dir_cf895c1ed808af158264b2f3d8d7f8f0&#45;&gt;dir_5815af820a9cc9481f1d0990a0d60286 -->
<g id="edge5" class="edge">
<title>dir_cf895c1ed808af158264b2f3d8d7f8f0&#45;&gt;dir_5815af820a9cc9481f1d0990a0d60286</title>
<path fill="none" stroke="black" d="M336.17,-449.85C416.61,-450.84 648,-441.96 648,-307 648,-307 648,-307 648,-161 648,-95.53 431.5,-44.35 343.01,-26.16"/>
<polygon fill="black" stroke="black" points="343.62,-22.72 333.12,-24.16 342.23,-29.58 343.62,-22.72"/>
<g id="a_edge5&#45;headlabel"><a xlink:href="dir_000004_000031.xhtml" target="_top" xlink:title="110">
<text text-anchor="middle" x="347.7" y="-18.15" font-family="Helvetica,sans-Serif" font-size="10.00">110</text>
</a>
</g>
</g>
<!-- dir_d182250f0c231765fc862e69db210731 -->
<g id="node8" class="node">
<title>dir_d182250f0c231765fc862e69db210731</title>
<g id="a_node8"><a xlink:href="dir_d182250f0c231765fc862e69db210731.xhtml" target="_top" xlink:title="graph">
<polygon fill="white" stroke="red" points="218,-396 164,-396 164,-360 218,-360 218,-396"/>
<text text-anchor="middle" x="191" y="-375.5" font-family="Helvetica,sans-Serif" font-size="10.00">graph</text>
</a>
</g>
</g>
<!-- dir_d182250f0c231765fc862e69db210731&#45;&gt;dir_fdedb0aba14d44ce9d99bc100e026e6a -->
<g id="edge18" class="edge">
<title>dir_d182250f0c231765fc862e69db210731&#45;&gt;dir_fdedb0aba14d44ce9d99bc100e026e6a</title>
<path fill="none" stroke="black" d="M186.54,-359.95C184.06,-349.63 181.25,-336.15 180,-324 175.2,-277.26 178.85,-222.53 181.93,-190.42"/>
<polygon fill="black" stroke="black" points="185.42,-190.75 182.94,-180.45 178.45,-190.04 185.42,-190.75"/>
<g id="a_edge18&#45;headlabel"><a xlink:href="dir_000099_000016.xhtml" target="_top" xlink:title="1">
<text text-anchor="middle" x="187.88" y="-192.11" font-family="Helvetica,sans-Serif" font-size="10.00">1</text>
</a>
</g>
</g>
<!-- dir_d182250f0c231765fc862e69db210731&#45;&gt;dir_aebb8dcc11953d78e620bbef0b9e2183 -->
<g id="edge16" class="edge">
<title>dir_d182250f0c231765fc862e69db210731&#45;&gt;dir_aebb8dcc11953d78e620bbef0b9e2183</title>
<path fill="none" stroke="black" d="M215.22,-359.88C227.92,-350.89 243.66,-339.76 257.42,-330.03"/>
<polygon fill="black" stroke="black" points="259.54,-332.82 265.69,-324.19 255.5,-327.11 259.54,-332.82"/>
<g id="a_edge16&#45;headlabel"><a xlink:href="dir_000099_000017.xhtml" target="_top" xlink:title="1">
<text text-anchor="middle" x="258.25" y="-334.71" font-family="Helvetica,sans-Serif" font-size="10.00">1</text>
</a>
</g>
</g>
<!-- dir_d182250f0c231765fc862e69db210731&#45;&gt;dir_214608ef36d61442cb2b0c1c4e9a7def -->
<g id="edge15" class="edge">
<title>dir_d182250f0c231765fc862e69db210731&#45;&gt;dir_214608ef36d61442cb2b0c1c4e9a7def</title>
<path fill="none" stroke="black" d="M218.08,-368.87C252.57,-358.11 309.65,-338.77 326,-324 367,-286.98 390.81,-224.96 401.72,-189.68"/>
<polygon fill="black" stroke="black" points="405.09,-190.64 404.58,-180.06 398.38,-188.65 405.09,-190.64"/>
<g id="a_edge15&#45;headlabel"><a xlink:href="dir_000099_000000.xhtml" target="_top" xlink:title="385">
<text text-anchor="middle" x="406.78" y="-192.4" font-family="Helvetica,sans-Serif" font-size="10.00">385</text>
</a>
</g>
</g>
<!-- dir_d182250f0c231765fc862e69db210731&#45;&gt;dir_5815af820a9cc9481f1d0990a0d60286 -->
<g id="edge17" class="edge">
<title>dir_d182250f0c231765fc862e69db210731&#45;&gt;dir_5815af820a9cc9481f1d0990a0d60286</title>
<path fill="none" stroke="black" d="M164,-366.54C120.08,-347.54 38,-302.95 38,-235 38,-235 38,-235 38,-161 38,-114.96 54.01,-99.41 91,-72 144.01,-32.72 222.58,-22.29 268.61,-19.68"/>
<polygon fill="black" stroke="black" points="268.92,-23.17 278.75,-19.2 268.59,-16.17 268.92,-23.17"/>
<g id="a_edge17&#45;headlabel"><a xlink:href="dir_000099_000031.xhtml" target="_top" xlink:title="20">
<text text-anchor="middle" x="265.47" y="-23.67" font-family="Helvetica,sans-Serif" font-size="10.00">20</text>
</a>
</g>
</g>
<!-- dir_bf9f26469d00835ba20ff8d80ee5a804&#45;&gt;dir_fdedb0aba14d44ce9d99bc100e026e6a -->
<g id="edge40" class="edge">
<title>dir_bf9f26469d00835ba20ff8d80ee5a804&#45;&gt;dir_fdedb0aba14d44ce9d99bc100e026e6a</title>
<path fill="none" stroke="black" d="M266.57,-359.84C244.97,-337.34 209.05,-295.58 193,-252 185.73,-232.26 183.91,-208.45 183.82,-190.43"/>
<polygon fill="black" stroke="black" points="187.32,-190.35 183.94,-180.31 180.32,-190.27 187.32,-190.35"/>
<g id="a_edge40&#45;headlabel"><a xlink:href="dir_000035_000016.xhtml" target="_top" xlink:title="128">
<text text-anchor="middle" x="190.12" y="-191.48" font-family="Helvetica,sans-Serif" font-size="10.00">128</text>
</a>
</g>
</g>
<!-- dir_bf9f26469d00835ba20ff8d80ee5a804&#45;&gt;dir_aebb8dcc11953d78e620bbef0b9e2183 -->
<g id="edge38" class="edge">
<title>dir_bf9f26469d00835ba20ff8d80ee5a804&#45;&gt;dir_aebb8dcc11953d78e620bbef0b9e2183</title>
<path fill="none" stroke="black" d="M285.48,-359.7C286.14,-351.98 286.94,-342.71 287.68,-334.11"/>
<polygon fill="black" stroke="black" points="291.17,-334.37 288.53,-324.1 284.19,-333.77 291.17,-334.37"/>
<g id="a_edge38&#45;headlabel"><a xlink:href="dir_000035_000017.xhtml" target="_top" xlink:title="213">
<text text-anchor="middle" x="293.69" y="-335.69" font-family="Helvetica,sans-Serif" font-size="10.00">213</text>
</a>
</g>
</g>
<!-- dir_bf9f26469d00835ba20ff8d80ee5a804&#45;&gt;dir_2c61f424fd391396db977702a2beee9a -->
<g id="edge36" class="edge">
<title>dir_bf9f26469d00835ba20ff8d80ee5a804&#45;&gt;dir_2c61f424fd391396db977702a2beee9a</title>
<path fill="none" stroke="black" d="M271.44,-359.8C264.93,-349.86 257.61,-336.82 254,-324 248.32,-303.82 247.82,-280.04 248.6,-262.14"/>
<polygon fill="black" stroke="black" points="252.09,-262.29 249.2,-252.1 245.11,-261.87 252.09,-262.29"/>
<g id="a_edge36&#45;headlabel"><a xlink:href="dir_000035_000373.xhtml" target="_top" xlink:title="45">
<text text-anchor="middle" x="254.72" y="-263.55" font-family="Helvetica,sans-Serif" font-size="10.00">45</text>
</a>
</g>
</g>
<!-- dir_bf9f26469d00835ba20ff8d80ee5a804&#45;&gt;dir_cf895c1ed808af158264b2f3d8d7f8f0 -->
<g id="edge34" class="edge">
<title>dir_bf9f26469d00835ba20ff8d80ee5a804&#45;&gt;dir_cf895c1ed808af158264b2f3d8d7f8f0</title>
<path fill="none" stroke="black" d="M296,-396.1C299.59,-403.88 303.18,-413.26 305.93,-421.95"/>
<polygon fill="black" stroke="black" points="302.61,-423.05 308.74,-431.7 309.33,-421.12 302.61,-423.05"/>
<g id="a_edge34&#45;headlabel"><a xlink:href="dir_000035_000004.xhtml" target="_top" xlink:title="57">
<text text-anchor="middle" x="298.89" y="-417.88" font-family="Helvetica,sans-Serif" font-size="10.00">57</text>
</a>
</g>
</g>
<!-- dir_bf9f26469d00835ba20ff8d80ee5a804&#45;&gt;dir_cbdb8362360e11eafe2fa3bc74cf0ffd -->
<g id="edge35" class="edge">
<title>dir_bf9f26469d00835ba20ff8d80ee5a804&#45;&gt;dir_cbdb8362360e11eafe2fa3bc74cf0ffd</title>
<path fill="none" stroke="black" d="M311.7,-373.19C341.78,-367.61 389.24,-354.35 417,-324 474.85,-260.75 491.9,-215.56 460,-136 457,-128.52 452.11,-121.59 446.67,-115.51"/>
<polygon fill="black" stroke="black" points="449.1,-112.99 439.6,-108.29 444.1,-117.89 449.1,-112.99"/>
<g id="a_edge35&#45;headlabel"><a xlink:href="dir_000035_000041.xhtml" target="_top" xlink:title="1">
<text text-anchor="middle" x="453.64" y="-111.07" font-family="Helvetica,sans-Serif" font-size="10.00">1</text>
</a>
</g>
</g>
<!-- dir_bf9f26469d00835ba20ff8d80ee5a804&#45;&gt;dir_214608ef36d61442cb2b0c1c4e9a7def -->
<g id="edge37" class="edge">
<title>dir_bf9f26469d00835ba20ff8d80ee5a804&#45;&gt;dir_214608ef36d61442cb2b0c1c4e9a7def</title>
<path fill="none" stroke="black" d="M311.68,-372.06C338.06,-365.77 376.56,-352.14 396,-324 423.55,-284.14 419.83,-224.73 414.5,-190.33"/>
<polygon fill="black" stroke="black" points="417.89,-189.37 412.75,-180.1 410.99,-190.54 417.89,-189.37"/>
<g id="a_edge37&#45;headlabel"><a xlink:href="dir_000035_000000.xhtml" target="_top" xlink:title="964">
<text text-anchor="middle" x="421.29" y="-189.93" font-family="Helvetica,sans-Serif" font-size="10.00">964</text>
</a>
</g>
</g>
<!-- dir_bf9f26469d00835ba20ff8d80ee5a804&#45;&gt;dir_5815af820a9cc9481f1d0990a0d60286 -->
<g id="edge39" class="edge">
<title>dir_bf9f26469d00835ba20ff8d80ee5a804&#45;&gt;dir_5815af820a9cc9481f1d0990a0d60286</title>
<path fill="none" stroke="black" d="M256.38,-364.91C199.8,-339.25 76,-278.18 76,-235 76,-235 76,-235 76,-161 76,-71.47 203.75,-36.51 268.83,-24.52"/>
<polygon fill="black" stroke="black" points="269.47,-27.96 278.71,-22.79 268.26,-21.07 269.47,-27.96"/>
<g id="a_edge39&#45;headlabel"><a xlink:href="dir_000035_000031.xhtml" target="_top" xlink:title="8">
<text text-anchor="middle" x="266.42" y="-28.88" font-family="Helvetica,sans-Serif" font-size="10.00">8</text>
</a>
</g>
</g>
<!-- dir_cbdb8362360e11eafe2fa3bc74cf0ffd&#45;&gt;dir_214608ef36d61442cb2b0c1c4e9a7def -->
<g id="edge7" class="edge">
<title>dir_cbdb8362360e11eafe2fa3bc74cf0ffd&#45;&gt;dir_214608ef36d61442cb2b0c1c4e9a7def</title>
<path fill="none" stroke="black" d="M420.94,-108.1C420.87,-115.79 420.05,-125.05 418.73,-133.67"/>
<polygon fill="black" stroke="black" points="415.25,-133.23 416.89,-143.7 422.14,-134.49 415.25,-133.23"/>
<g id="a_edge7&#45;headlabel"><a xlink:href="dir_000041_000000.xhtml" target="_top" xlink:title="52">
<text text-anchor="middle" x="413.1" y="-126.68" font-family="Helvetica,sans-Serif" font-size="10.00">52</text>
</a>
</g>
</g>
<!-- dir_cbdb8362360e11eafe2fa3bc74cf0ffd&#45;&gt;dir_5815af820a9cc9481f1d0990a0d60286 -->
<g id="edge8" class="edge">
<title>dir_cbdb8362360e11eafe2fa3bc74cf0ffd&#45;&gt;dir_5815af820a9cc9481f1d0990a0d60286</title>
<path fill="none" stroke="black" d="M389.85,-71.88C375.47,-62.81 357.62,-51.55 342.09,-41.76"/>
<polygon fill="black" stroke="black" points="343.58,-38.56 333.26,-36.19 339.85,-44.48 343.58,-38.56"/>
<g id="a_edge8&#45;headlabel"><a xlink:href="dir_000041_000031.xhtml" target="_top" xlink:title="4">
<text text-anchor="middle" x="348.14" y="-35.58" font-family="Helvetica,sans-Serif" font-size="10.00">4</text>
</a>
</g>
</g>
<!-- dir_214608ef36d61442cb2b0c1c4e9a7def&#45;&gt;dir_cbdb8362360e11eafe2fa3bc74cf0ffd -->
<g id="edge23" class="edge">
<title>dir_214608ef36d61442cb2b0c1c4e9a7def&#45;&gt;dir_cbdb8362360e11eafe2fa3bc74cf0ffd</title>
<path fill="none" stroke="black" d="M405.06,-143.7C405.15,-135.98 405.98,-126.71 407.31,-118.11"/>
<polygon fill="black" stroke="black" points="410.78,-118.57 409.15,-108.1 403.9,-117.3 410.78,-118.57"/>
<g id="a_edge23&#45;headlabel"><a xlink:href="dir_000000_000041.xhtml" target="_top" xlink:title="1">
<text text-anchor="middle" x="412.92" y="-120.12" font-family="Helvetica,sans-Serif" font-size="10.00">1</text>
</a>
</g>
</g>
<!-- dir_214608ef36d61442cb2b0c1c4e9a7def&#45;&gt;dir_5815af820a9cc9481f1d0990a0d60286 -->
<g id="edge24" class="edge">
<title>dir_214608ef36d61442cb2b0c1c4e9a7def&#45;&gt;dir_5815af820a9cc9481f1d0990a0d60286</title>
<path fill="none" stroke="black" d="M391.99,-143.87C371.52,-119.24 338.19,-73.64 319.42,-44.88"/>
<polygon fill="black" stroke="black" points="322.21,-42.74 313.88,-36.19 316.3,-46.5 322.21,-42.74"/>
<g id="a_edge24&#45;headlabel"><a xlink:href="dir_000000_000031.xhtml" target="_top" xlink:title="16">
<text text-anchor="middle" x="326.53" y="-41.74" font-family="Helvetica,sans-Serif" font-size="10.00">16</text>
</a>
</g>
</g>
<!-- dir_5815af820a9cc9481f1d0990a0d60286&#45;&gt;dir_214608ef36d61442cb2b0c1c4e9a7def -->
<g id="edge41" class="edge">
<title>dir_5815af820a9cc9481f1d0990a0d60286&#45;&gt;dir_214608ef36d61442cb2b0c1c4e9a7def</title>
<path fill="none" stroke="black" d="M323.06,-36.19C343.55,-60.85 376.88,-106.46 395.62,-135.19"/>
<polygon fill="black" stroke="black" points="392.83,-137.32 401.16,-143.87 398.74,-133.56 392.83,-137.32"/>
<g id="a_edge41&#45;headlabel"><a xlink:href="dir_000031_000000.xhtml" target="_top" xlink:title="6">
<text text-anchor="middle" x="388.51" y="-133.32" font-family="Helvetica,sans-Serif" font-size="10.00">6</text>
</a>
</g>
</g>
</g>
</svg>
