<?xml version="1.0" encoding="UTF-8" standalone="no"?>
<!DOCTYPE svg PUBLIC "-//W3C//DTD SVG 1.1//EN"
 "http://www.w3.org/Graphics/SVG/1.1/DTD/svg11.dtd">
<!-- Generated by graphviz version 2.43.0 (0)
 -->
<!-- Title: CommonParams Pages: 1 -->
<svg width="432pt" height="195pt"
 viewBox="0.00 0.00 432.00 195.00" xmlns="http://www.w3.org/2000/svg" xmlns:xlink="http://www.w3.org/1999/xlink">
<g id="graph0" class="graph" transform="scale(1 1) rotate(0) translate(4 191)">
<title>CommonParams</title>
<polygon fill="white" stroke="transparent" points="-4,4 -4,-191 428,-191 428,4 -4,4"/>
<!-- Node1 -->
<g id="node1" class="node">
<title>Node1</title>
<g id="a_node1"><a xlink:title="Structure holding all the graph Example parameters.">
<polygon fill="#bfbfbf" stroke="black" points="154.5,-0.5 154.5,-19.5 251.5,-19.5 251.5,-0.5 154.5,-0.5"/>
<text text-anchor="middle" x="203" y="-7.5" font-family="Helvetica,sans-Serif" font-size="10.00">CommonParams</text>
</a>
</g>
</g>
<!-- Node2 -->
<g id="node2" class="node">
<title>Node2</title>
<g id="a_node2"><a xlink:title=" ">
<polygon fill="white" stroke="#bfbfbf" points="0,-100.5 0,-119.5 62,-119.5 62,-100.5 0,-100.5"/>
<text text-anchor="middle" x="31" y="-107.5" font-family="Helvetica,sans-Serif" font-size="10.00">DataType</text>
</a>
</g>
</g>
<!-- Node2&#45;&gt;Node1 -->
<g id="edge1" class="edge">
<title>Node2&#45;&gt;Node1</title>
<path fill="none" stroke="#9a32cd" stroke-dasharray="5,2" d="M39.26,-91.36C47.86,-74.98 62.89,-51.17 83,-38 104.08,-24.19 131.22,-17.38 154.36,-14.04"/>
<polygon fill="#9a32cd" stroke="#9a32cd" points="36.06,-89.93 34.74,-100.45 42.33,-93.05 36.06,-89.93"/>
<text text-anchor="middle" x="109" y="-57.5" font-family="Helvetica,sans-Serif" font-size="10.00"> data_type</text>
</g>
<!-- Node3 -->
<g id="node3" class="node">
<title>Node3</title>
<g id="a_node3"><a xlink:href="structarm__compute_1_1utils_1_1_tensor_params.xhtml" target="_top" xlink:title="Structure holding all the input tensor graph parameters.">
<polygon fill="white" stroke="black" points="80,-100.5 80,-119.5 164,-119.5 164,-100.5 80,-100.5"/>
<text text-anchor="middle" x="122" y="-107.5" font-family="Helvetica,sans-Serif" font-size="10.00">TensorParams</text>
</a>
</g>
</g>
<!-- Node3&#45;&gt;Node1 -->
<g id="edge2" class="edge">
<title>Node3&#45;&gt;Node1</title>
<path fill="none" stroke="#9a32cd" stroke-dasharray="5,2" d="M131.97,-91.32C140.89,-76.3 154.86,-54.59 170,-38 176.19,-31.22 184.12,-24.67 190.66,-19.72"/>
<polygon fill="#9a32cd" stroke="#9a32cd" points="128.86,-89.7 126.88,-100.11 134.92,-93.21 128.86,-89.7"/>
<text text-anchor="middle" x="189.5" y="-74" font-family="Helvetica,sans-Serif" font-size="10.00"> output</text>
<text text-anchor="middle" x="189.5" y="-63" font-family="Helvetica,sans-Serif" font-size="10.00">input</text>
<text text-anchor="middle" x="189.5" y="-52" font-family="Helvetica,sans-Serif" font-size="10.00">bias</text>
<text text-anchor="middle" x="189.5" y="-41" font-family="Helvetica,sans-Serif" font-size="10.00">weights</text>
</g>
<!-- Node4 -->
<g id="node4" class="node">
<title>Node4</title>
<g id="a_node4"><a xlink:href="classarm__compute_1_1_quantization_info.xhtml" target="_top" xlink:title="Quantization information.">
<polygon fill="white" stroke="black" points="73,-167.5 73,-186.5 171,-186.5 171,-167.5 73,-167.5"/>
<text text-anchor="middle" x="122" y="-174.5" font-family="Helvetica,sans-Serif" font-size="10.00">QuantizationInfo</text>
</a>
</g>
</g>
<!-- Node4&#45;&gt;Node3 -->
<g id="edge3" class="edge">
<title>Node4&#45;&gt;Node3</title>
<path fill="none" stroke="#9a32cd" stroke-dasharray="5,2" d="M122,-157.04C122,-144.67 122,-129.12 122,-119.63"/>
<polygon fill="#9a32cd" stroke="#9a32cd" points="118.5,-157.23 122,-167.23 125.5,-157.23 118.5,-157.23"/>
<text text-anchor="middle" x="149.5" y="-141" font-family="Helvetica,sans-Serif" font-size="10.00"> quant_info</text>
</g>
<!-- Node5 -->
<g id="node5" class="node">
<title>Node5</title>
<g id="a_node5"><a xlink:href="structarm__compute_1_1utils_1_1_verification_params.xhtml" target="_top" xlink:title="Structure holding all the verification graph parameters.">
<polygon fill="white" stroke="black" points="181.5,-100.5 181.5,-119.5 288.5,-119.5 288.5,-100.5 181.5,-100.5"/>
<text text-anchor="middle" x="235" y="-107.5" font-family="Helvetica,sans-Serif" font-size="10.00">VerificationParams</text>
</a>
</g>
</g>
<!-- Node5&#45;&gt;Node1 -->
<g id="edge4" class="edge">
<title>Node5&#45;&gt;Node1</title>
<path fill="none" stroke="#9a32cd" stroke-dasharray="5,2" d="M228.96,-90.51C222.02,-69.26 210.93,-35.29 205.79,-19.54"/>
<polygon fill="#9a32cd" stroke="#9a32cd" points="225.73,-91.88 232.16,-100.3 232.38,-89.71 225.73,-91.88"/>
<text text-anchor="middle" x="255" y="-57.5" font-family="Helvetica,sans-Serif" font-size="10.00"> verification</text>
</g>
<!-- Node6 -->
<g id="node6" class="node">
<title>Node6</title>
<g id="a_node6"><a xlink:href="structarm__compute_1_1utils_1_1_framework_params.xhtml" target="_top" xlink:title="Structure holding all the common graph parameters.">
<polygon fill="white" stroke="black" points="306.5,-100.5 306.5,-119.5 413.5,-119.5 413.5,-100.5 306.5,-100.5"/>
<text text-anchor="middle" x="360" y="-107.5" font-family="Helvetica,sans-Serif" font-size="10.00">FrameworkParams</text>
</a>
</g>
</g>
<!-- Node6&#45;&gt;Node1 -->
<g id="edge5" class="edge">
<title>Node6&#45;&gt;Node1</title>
<path fill="none" stroke="#9a32cd" stroke-dasharray="5,2" d="M347.02,-92.24C333.78,-76.21 311.84,-52.39 288,-38 274.35,-29.76 257.92,-23.78 243.16,-19.57"/>
<polygon fill="#9a32cd" stroke="#9a32cd" points="344.45,-94.63 353.44,-100.24 349.91,-90.25 344.45,-94.63"/>
<text text-anchor="middle" x="380" y="-57.5" font-family="Helvetica,sans-Serif" font-size="10.00"> common_params</text>
</g>
</g>
</svg>
