<?xml version="1.0" encoding="UTF-8" standalone="no"?>
<!DOCTYPE svg PUBLIC "-//W3C//DTD SVG 1.1//EN"
 "http://www.w3.org/Graphics/SVG/1.1/DTD/svg11.dtd">
<!-- Generated by graphviz version 2.38.0 (20140413.2041)
 -->
<!-- Title: ClContext Pages: 1 -->
<svg width="180pt" height="162pt"
 viewBox="0.00 0.00 179.50 162.00" xmlns="http://www.w3.org/2000/svg" xmlns:xlink="http://www.w3.org/1999/xlink">
<g id="graph0" class="graph" transform="scale(1 1) rotate(0) translate(4 158)">
<title>ClContext</title>
<polygon fill="white" stroke="none" points="-4,4 -4,-158 175.5,-158 175.5,4 -4,4"/>
<!-- Node0 -->
<g id="node1" class="node"><title>Node0</title>
<g id="a_node1"><a xlink:title="OpenCL context implementation class.">
<polygon fill="#bfbfbf" stroke="black" points="0,-67.5 0,-86.5 63,-86.5 63,-67.5 0,-67.5"/>
<text text-anchor="middle" x="31.5" y="-74.5" font-family="Helvetica,sans-Serif" font-size="10.00">ClContext</text>
</a>
</g>
</g>
<!-- Node1 -->
<g id="node2" class="node"><title>Node1</title>
<g id="a_node2"><a xlink:href="classarm__compute_1_1_i_context.xhtml" target="_top" xlink:title="Context interface.">
<polygon fill="white" stroke="black" points="79.5,-134.5 79.5,-153.5 135.5,-153.5 135.5,-134.5 79.5,-134.5"/>
<text text-anchor="middle" x="107.5" y="-141.5" font-family="Helvetica,sans-Serif" font-size="10.00">IContext</text>
</a>
</g>
</g>
<!-- Node1&#45;&gt;Node0 -->
<g id="edge1" class="edge"><title>Node1&#45;&gt;Node0</title>
<path fill="none" stroke="midnightblue" d="M89.6264,-127.713C74.6528,-114.907 53.8187,-97.0884 41.5873,-86.6273"/>
<polygon fill="midnightblue" stroke="midnightblue" points="87.3758,-130.394 97.2503,-134.234 91.9256,-125.074 87.3758,-130.394"/>
</g>
<!-- Node3 -->
<g id="node4" class="node"><title>Node3</title>
<g id="a_node4"><a xlink:href="structarm__compute_1_1detail_1_1_header.xhtml" target="_top" xlink:title=" ">
<polygon fill="white" stroke="black" points="81.5,-67.5 81.5,-86.5 133.5,-86.5 133.5,-67.5 81.5,-67.5"/>
<text text-anchor="middle" x="107.5" y="-74.5" font-family="Helvetica,sans-Serif" font-size="10.00">Header</text>
</a>
</g>
</g>
<!-- Node1&#45;&gt;Node3 -->
<g id="edge4" class="edge"><title>Node1&#45;&gt;Node3</title>
<path fill="none" stroke="#9a32cd" stroke-dasharray="5,2" d="M107.5,-124.037C107.5,-111.67 107.5,-96.1198 107.5,-86.6273"/>
<polygon fill="#9a32cd" stroke="#9a32cd" points="104,-124.234 107.5,-134.234 111,-124.234 104,-124.234"/>
<text text-anchor="middle" x="116.5" y="-108" font-family="Helvetica,sans-Serif" font-size="10.00"> ctx</text>
</g>
<!-- Node2 -->
<g id="node3" class="node"><title>Node2</title>
<g id="a_node3"><a xlink:href="struct_acl_context__.xhtml" target="_top" xlink:title=" ">
<polygon fill="white" stroke="black" points="97.5,-0.5 97.5,-19.5 171.5,-19.5 171.5,-0.5 97.5,-0.5"/>
<text text-anchor="middle" x="134.5" y="-7.5" font-family="Helvetica,sans-Serif" font-size="10.00">AclContext_</text>
</a>
</g>
</g>
<!-- Node2&#45;&gt;Node1 -->
<g id="edge2" class="edge"><title>Node2&#45;&gt;Node1</title>
<path fill="none" stroke="midnightblue" d="M144.345,-28.5982C145.65,-31.6501 146.782,-34.8553 147.5,-38 152.37,-59.3422 148.468,-65.9384 142.5,-87 138.649,-100.59 136.914,-103.977 129.5,-116 125.438,-122.588 119.938,-129.338 115.453,-134.441"/>
<polygon fill="midnightblue" stroke="midnightblue" points="147.474,-27.0281 139.889,-19.6307 141.205,-30.1435 147.474,-27.0281"/>
</g>
<!-- Node3&#45;&gt;Node2 -->
<g id="edge3" class="edge"><title>Node3&#45;&gt;Node2</title>
<path fill="none" stroke="#9a32cd" stroke-dasharray="5,2" d="M106.618,-57.1641C106.934,-50.8626 107.971,-43.9361 110.5,-38 113.45,-31.0761 118.907,-24.7107 123.874,-19.9016"/>
<polygon fill="#9a32cd" stroke="#9a32cd" points="103.119,-57.4983 106.664,-67.4827 110.119,-57.4673 103.119,-57.4983"/>
<text text-anchor="middle" x="129" y="-41" font-family="Helvetica,sans-Serif" font-size="10.00"> header</text>
</g>
</g>
</svg>
