<?xml version="1.0" encoding="UTF-8" standalone="no"?>
<!DOCTYPE svg PUBLIC "-//W3C//DTD SVG 1.1//EN"
 "http://www.w3.org/Graphics/SVG/1.1/DTD/svg11.dtd">
<!-- Generated by graphviz version 2.38.0 (20140413.2041)
 -->
<!-- Title: CpuReshapeKernel Pages: 1 -->
<svg width="113pt" height="140pt"
 viewBox="0.00 0.00 113.00 140.00" xmlns="http://www.w3.org/2000/svg" xmlns:xlink="http://www.w3.org/1999/xlink">
<g id="graph0" class="graph" transform="scale(1 1) rotate(0) translate(4 136)">
<title>CpuReshapeKernel</title>
<polygon fill="white" stroke="none" points="-4,4 -4,-136 109,-136 109,4 -4,4"/>
<!-- Node0 -->
<g id="node1" class="node"><title>Node0</title>
<g id="a_node1"><a xlink:title="Interface for the kernel to perform tensor reshaping.">
<polygon fill="#bfbfbf" stroke="black" points="0,-0.5 0,-19.5 105,-19.5 105,-0.5 0,-0.5"/>
<text text-anchor="middle" x="52.5" y="-7.5" font-family="Helvetica,sans-Serif" font-size="10.00">CpuReshapeKernel</text>
</a>
</g>
</g>
<!-- Node1 -->
<g id="node2" class="node"><title>Node1</title>
<g id="a_node2"><a xlink:href="classarm__compute_1_1_i_c_p_p_kernel.xhtml" target="_top" xlink:title="Common interface for all kernels implemented in C++.">
<polygon fill="white" stroke="black" points="19,-56.5 19,-75.5 86,-75.5 86,-56.5 19,-56.5"/>
<text text-anchor="middle" x="52.5" y="-63.5" font-family="Helvetica,sans-Serif" font-size="10.00">ICpuKernel</text>
</a>
</g>
</g>
<!-- Node1&#45;&gt;Node0 -->
<g id="edge1" class="edge"><title>Node1&#45;&gt;Node0</title>
<path fill="none" stroke="midnightblue" d="M52.5,-45.8045C52.5,-36.9102 52.5,-26.7798 52.5,-19.7511"/>
<polygon fill="midnightblue" stroke="midnightblue" points="49.0001,-46.083 52.5,-56.083 56.0001,-46.083 49.0001,-46.083"/>
</g>
<!-- Node2 -->
<g id="node3" class="node"><title>Node2</title>
<g id="a_node3"><a xlink:href="classarm__compute_1_1_i_kernel.xhtml" target="_top" xlink:title="Common information for all the kernels.">
<polygon fill="white" stroke="black" points="28.5,-112.5 28.5,-131.5 76.5,-131.5 76.5,-112.5 28.5,-112.5"/>
<text text-anchor="middle" x="52.5" y="-119.5" font-family="Helvetica,sans-Serif" font-size="10.00">IKernel</text>
</a>
</g>
</g>
<!-- Node2&#45;&gt;Node1 -->
<g id="edge2" class="edge"><title>Node2&#45;&gt;Node1</title>
<path fill="none" stroke="midnightblue" d="M52.5,-101.805C52.5,-92.9102 52.5,-82.7798 52.5,-75.7511"/>
<polygon fill="midnightblue" stroke="midnightblue" points="49.0001,-102.083 52.5,-112.083 56.0001,-102.083 49.0001,-102.083"/>
</g>
</g>
</svg>
