<?xml version="1.0" encoding="UTF-8" standalone="no"?>
<!DOCTYPE svg PUBLIC "-//W3C//DTD SVG 1.1//EN"
 "http://www.w3.org/Graphics/SVG/1.1/DTD/svg11.dtd">
<!-- Generated by graphviz version 2.38.0 (20140413.2041)
 -->
<!-- Title: CLGEMMReshapeLHSMatrixKernel Pages: 1 -->
<svg width="185pt" height="140pt"
 viewBox="0.00 0.00 185.00 140.00" xmlns="http://www.w3.org/2000/svg" xmlns:xlink="http://www.w3.org/1999/xlink">
<g id="graph0" class="graph" transform="scale(1 1) rotate(0) translate(4 136)">
<title>CLGEMMReshapeLHSMatrixKernel</title>
<polygon fill="white" stroke="none" points="-4,4 -4,-136 181,-136 181,4 -4,4"/>
<!-- Node0 -->
<g id="node1" class="node"><title>Node0</title>
<g id="a_node1"><a xlink:title="OpenCL kernel to reshape the LHS matrix when performing the matrix multiplication.">
<polygon fill="#bfbfbf" stroke="black" points="-1.42109e-14,-0.5 -1.42109e-14,-19.5 177,-19.5 177,-0.5 -1.42109e-14,-0.5"/>
<text text-anchor="middle" x="88.5" y="-7.5" font-family="Helvetica,sans-Serif" font-size="10.00">CLGEMMReshapeLHSMatrixKernel</text>
</a>
</g>
</g>
<!-- Node1 -->
<g id="node2" class="node"><title>Node1</title>
<g id="a_node2"><a xlink:href="classarm__compute_1_1_i_c_l_kernel.xhtml" target="_top" xlink:title="Common interface for all the OpenCL kernels.">
<polygon fill="white" stroke="black" points="58.5,-56.5 58.5,-75.5 118.5,-75.5 118.5,-56.5 58.5,-56.5"/>
<text text-anchor="middle" x="88.5" y="-63.5" font-family="Helvetica,sans-Serif" font-size="10.00">ICLKernel</text>
</a>
</g>
</g>
<!-- Node1&#45;&gt;Node0 -->
<g id="edge1" class="edge"><title>Node1&#45;&gt;Node0</title>
<path fill="none" stroke="midnightblue" d="M88.5,-45.8045C88.5,-36.9102 88.5,-26.7798 88.5,-19.7511"/>
<polygon fill="midnightblue" stroke="midnightblue" points="85.0001,-46.083 88.5,-56.083 92.0001,-46.083 85.0001,-46.083"/>
</g>
<!-- Node2 -->
<g id="node3" class="node"><title>Node2</title>
<g id="a_node3"><a xlink:href="classarm__compute_1_1_i_kernel.xhtml" target="_top" xlink:title="Common information for all the kernels.">
<polygon fill="white" stroke="black" points="64.5,-112.5 64.5,-131.5 112.5,-131.5 112.5,-112.5 64.5,-112.5"/>
<text text-anchor="middle" x="88.5" y="-119.5" font-family="Helvetica,sans-Serif" font-size="10.00">IKernel</text>
</a>
</g>
</g>
<!-- Node2&#45;&gt;Node1 -->
<g id="edge2" class="edge"><title>Node2&#45;&gt;Node1</title>
<path fill="none" stroke="midnightblue" d="M88.5,-101.805C88.5,-92.9102 88.5,-82.7798 88.5,-75.7511"/>
<polygon fill="midnightblue" stroke="midnightblue" points="85.0001,-102.083 88.5,-112.083 92.0001,-102.083 85.0001,-102.083"/>
</g>
</g>
</svg>
