<?xml version="1.0" encoding="UTF-8" standalone="no"?>
<!DOCTYPE svg PUBLIC "-//W3C//DTD SVG 1.1//EN"
 "http://www.w3.org/Graphics/SVG/1.1/DTD/svg11.dtd">
<!-- Generated by graphviz version 2.38.0 (20140413.2041)
 -->
<!-- Title: TensorPack Pages: 1 -->
<svg width="235pt" height="152pt"
 viewBox="0.00 0.00 234.50 152.00" xmlns="http://www.w3.org/2000/svg" xmlns:xlink="http://www.w3.org/1999/xlink">
<g id="graph0" class="graph" transform="scale(1 1) rotate(0) translate(4 148)">
<title>TensorPack</title>
<polygon fill="white" stroke="none" points="-4,4 -4,-148 230.5,-148 230.5,4 -4,4"/>
<!-- Node0 -->
<g id="node1" class="node"><title>Node0</title>
<g id="a_node1"><a xlink:title="Tensor packing service.">
<polygon fill="#bfbfbf" stroke="black" points="10,-0.5 10,-19.5 79,-19.5 79,-0.5 10,-0.5"/>
<text text-anchor="middle" x="44.5" y="-7.5" font-family="Helvetica,sans-Serif" font-size="10.00">TensorPack</text>
</a>
</g>
</g>
<!-- Node1 -->
<g id="node2" class="node"><title>Node1</title>
<g id="a_node2"><a xlink:href="struct_acl_tensor_pack__.xhtml" target="_top" xlink:title=" ">
<polygon fill="white" stroke="black" points="0,-57.5 0,-76.5 89,-76.5 89,-57.5 0,-57.5"/>
<text text-anchor="middle" x="44.5" y="-64.5" font-family="Helvetica,sans-Serif" font-size="10.00">AclTensorPack_</text>
</a>
</g>
</g>
<!-- Node1&#45;&gt;Node0 -->
<g id="edge1" class="edge"><title>Node1&#45;&gt;Node0</title>
<path fill="none" stroke="midnightblue" d="M44.5,-47.1166C44.5,-37.8173 44.5,-27.0557 44.5,-19.7149"/>
<polygon fill="midnightblue" stroke="midnightblue" points="41.0001,-47.4062 44.5,-57.4062 48.0001,-47.4063 41.0001,-47.4062"/>
</g>
<!-- Node2 -->
<g id="node3" class="node"><title>Node2</title>
<g id="a_node3"><a xlink:href="structarm__compute_1_1detail_1_1_header.xhtml" target="_top" xlink:title=" ">
<polygon fill="white" stroke="black" points="118.5,-124.5 118.5,-143.5 170.5,-143.5 170.5,-124.5 118.5,-124.5"/>
<text text-anchor="middle" x="144.5" y="-131.5" font-family="Helvetica,sans-Serif" font-size="10.00">Header</text>
</a>
</g>
</g>
<!-- Node2&#45;&gt;Node1 -->
<g id="edge2" class="edge"><title>Node2&#45;&gt;Node1</title>
<path fill="none" stroke="#9a32cd" stroke-dasharray="5,2" d="M122.606,-118.769C102.812,-105.903 74.3138,-87.379 57.7728,-76.6273"/>
<polygon fill="#9a32cd" stroke="#9a32cd" points="120.722,-121.718 131.014,-124.234 124.537,-115.849 120.722,-121.718"/>
<text text-anchor="middle" x="119" y="-98" font-family="Helvetica,sans-Serif" font-size="10.00"> header</text>
</g>
<!-- Node4 -->
<g id="node5" class="node"><title>Node4</title>
<g id="a_node5"><a xlink:href="struct_acl_context__.xhtml" target="_top" xlink:title=" ">
<polygon fill="white" stroke="black" points="107.5,-57.5 107.5,-76.5 181.5,-76.5 181.5,-57.5 107.5,-57.5"/>
<text text-anchor="middle" x="144.5" y="-64.5" font-family="Helvetica,sans-Serif" font-size="10.00">AclContext_</text>
</a>
</g>
</g>
<!-- Node2&#45;&gt;Node4 -->
<g id="edge5" class="edge"><title>Node2&#45;&gt;Node4</title>
<path fill="none" stroke="#9a32cd" stroke-dasharray="5,2" d="M144.5,-114.037C144.5,-101.67 144.5,-86.1198 144.5,-76.6273"/>
<polygon fill="#9a32cd" stroke="#9a32cd" points="141,-114.234 144.5,-124.234 148,-114.234 141,-114.234"/>
<text text-anchor="middle" x="163" y="-98" font-family="Helvetica,sans-Serif" font-size="10.00"> header</text>
</g>
<!-- Node3 -->
<g id="node4" class="node"><title>Node3</title>
<g id="a_node4"><a xlink:href="classarm__compute_1_1_i_context.xhtml" target="_top" xlink:title="Context interface.">
<polygon fill="white" stroke="black" points="170.5,-0.5 170.5,-19.5 226.5,-19.5 226.5,-0.5 170.5,-0.5"/>
<text text-anchor="middle" x="198.5" y="-7.5" font-family="Helvetica,sans-Serif" font-size="10.00">IContext</text>
</a>
</g>
</g>
<!-- Node3&#45;&gt;Node2 -->
<g id="edge3" class="edge"><title>Node3&#45;&gt;Node2</title>
<path fill="none" stroke="#9a32cd" stroke-dasharray="5,2" d="M200.451,-29.9116C201.59,-50.352 200.508,-83.073 185.5,-106 180.365,-113.844 172.073,-119.932 164.286,-124.325"/>
<polygon fill="#9a32cd" stroke="#9a32cd" points="203.921,-29.4008 199.637,-19.7106 196.943,-29.9571 203.921,-29.4008"/>
<text text-anchor="middle" x="209.5" y="-64.5" font-family="Helvetica,sans-Serif" font-size="10.00"> ctx</text>
</g>
<!-- Node4&#45;&gt;Node3 -->
<g id="edge4" class="edge"><title>Node4&#45;&gt;Node3</title>
<path fill="none" stroke="midnightblue" d="M160.088,-50.1229C169.808,-40.2238 181.944,-27.8624 189.944,-19.7149"/>
<polygon fill="midnightblue" stroke="midnightblue" points="157.446,-47.8185 152.938,-57.4062 162.441,-52.7227 157.446,-47.8185"/>
</g>
</g>
</svg>
