<?xml version="1.0" encoding="UTF-8" standalone="no"?>
<!DOCTYPE svg PUBLIC "-//W3C//DTD SVG 1.1//EN"
 "http://www.w3.org/Graphics/SVG/1.1/DTD/svg11.dtd">
<!-- Generated by graphviz version 2.38.0 (20140413.2041)
 -->
<!-- Title: Tensor Pages: 1 -->
<svg width="156pt" height="152pt"
 viewBox="0.00 0.00 156.00 152.00" xmlns="http://www.w3.org/2000/svg" xmlns:xlink="http://www.w3.org/1999/xlink">
<g id="graph0" class="graph" transform="scale(1 1) rotate(0) translate(4 148)">
<title>Tensor</title>
<polygon fill="white" stroke="none" points="-4,4 -4,-148 152,-148 152,4 -4,4"/>
<!-- Node0 -->
<g id="node1" class="node"><title>Node0</title>
<g id="a_node1"><a xlink:title="Tensor class.">
<polygon fill="#bfbfbf" stroke="black" points="48.5,-0.5 48.5,-19.5 95.5,-19.5 95.5,-0.5 48.5,-0.5"/>
<text text-anchor="middle" x="72" y="-7.5" font-family="Helvetica,sans-Serif" font-size="10.00">Tensor</text>
</a>
</g>
</g>
<!-- Node1 -->
<g id="node2" class="node"><title>Node1</title>
<g id="a_node2"><a xlink:href="classacl_1_1detail_1_1_object_base.xhtml" target="_top" xlink:title=" ">
<polygon fill="white" stroke="black" points="0,-57.5 0,-76.5 144,-76.5 144,-57.5 0,-57.5"/>
<text text-anchor="middle" x="72" y="-64.5" font-family="Helvetica,sans-Serif" font-size="10.00">ObjectBase&lt; AclTensor_ &gt;</text>
</a>
</g>
</g>
<!-- Node1&#45;&gt;Node0 -->
<g id="edge1" class="edge"><title>Node1&#45;&gt;Node0</title>
<path fill="none" stroke="midnightblue" d="M72,-47.1166C72,-37.8173 72,-27.0557 72,-19.7149"/>
<polygon fill="midnightblue" stroke="midnightblue" points="68.5001,-47.4062 72,-57.4062 75.5001,-47.4063 68.5001,-47.4062"/>
</g>
<!-- Node2 -->
<g id="node3" class="node"><title>Node2</title>
<g id="a_node3"><a xlink:href="classacl_1_1detail_1_1_object_base.xhtml" target="_top" xlink:title="Object base class for library objects.">
<polygon fill="white" stroke="black" points="22.5,-124.5 22.5,-143.5 121.5,-143.5 121.5,-124.5 22.5,-124.5"/>
<text text-anchor="middle" x="72" y="-131.5" font-family="Helvetica,sans-Serif" font-size="10.00">ObjectBase&lt; T &gt;</text>
</a>
</g>
</g>
<!-- Node2&#45;&gt;Node1 -->
<g id="edge2" class="edge"><title>Node2&#45;&gt;Node1</title>
<path fill="none" stroke="orange" stroke-dasharray="5,2" d="M72,-114.037C72,-101.67 72,-86.1198 72,-76.6273"/>
<polygon fill="orange" stroke="orange" points="68.5001,-114.234 72,-124.234 75.5001,-114.234 68.5001,-114.234"/>
<text text-anchor="middle" x="110" y="-98" font-family="Helvetica,sans-Serif" font-size="10.00"> &lt; AclTensor_ &gt;</text>
</g>
</g>
</svg>
