<?xml version="1.0" encoding="UTF-8" standalone="no"?>
<!DOCTYPE svg PUBLIC "-//W3C//DTD SVG 1.1//EN"
 "http://www.w3.org/Graphics/SVG/1.1/DTD/svg11.dtd">
<!-- Generated by graphviz version 2.38.0 (20140413.2041)
 -->
<!-- Title: src/core/CL/kernels Pages: 1 -->
<svg width="262pt" height="295pt"
 viewBox="0.00 0.00 261.77 295.00" xmlns="http://www.w3.org/2000/svg" xmlns:xlink="http://www.w3.org/1999/xlink">
<g id="graph0" class="graph" transform="scale(1 1) rotate(0) translate(4 291)">
<title>src/core/CL/kernels</title>
<polygon fill="white" stroke="none" points="-4,4 -4,-291 257.773,-291 257.773,4 -4,4"/>
<g id="clust1" class="cluster"><title>clusterdir_8c278f79c760e5c5fbd911f9870614c1</title>
<g id="a_clust1"><a xlink:href="dir_8c278f79c760e5c5fbd911f9870614c1.xhtml" target="_top" xlink:title="CL">
<polygon fill="#ddddee" stroke="black" points="119,-208 119,-279 189,-279 189,-208 119,-208"/>
<text text-anchor="middle" x="154" y="-267" font-family="Helvetica,sans-Serif" font-size="10.00">CL</text>
</a>
</g>
</g>
<!-- dir_8a6a287e420ec4de95804825506d2fde -->
<g id="node1" class="node"><title>dir_8a6a287e420ec4de95804825506d2fde</title>
<g id="a_node1"><a xlink:href="dir_8a6a287e420ec4de95804825506d2fde.xhtml" target="_top" xlink:title="kernels">
<polygon fill="#eeeeff" stroke="black" points="181,-252 127,-252 127,-216 181,-216 181,-252"/>
<text text-anchor="middle" x="154" y="-231.5" font-family="Helvetica,sans-Serif" font-size="10.00">kernels</text>
</a>
</g>
</g>
<!-- dir_acedbc3c1c025eedca19641ef7b62820 -->
<g id="node2" class="node"><title>dir_acedbc3c1c025eedca19641ef7b62820</title>
<g id="a_node2"><a xlink:href="dir_acedbc3c1c025eedca19641ef7b62820.xhtml" target="_top" xlink:title="gemm">
<polygon fill="white" stroke="red" points="54,-180 0,-180 0,-144 54,-144 54,-180"/>
<text text-anchor="middle" x="27" y="-159.5" font-family="Helvetica,sans-Serif" font-size="10.00">gemm</text>
</a>
</g>
</g>
<!-- dir_8a6a287e420ec4de95804825506d2fde&#45;&gt;dir_acedbc3c1c025eedca19641ef7b62820 -->
<g id="edge1" class="edge"><title>dir_8a6a287e420ec4de95804825506d2fde&#45;&gt;dir_acedbc3c1c025eedca19641ef7b62820</title>
<path fill="none" stroke="black" d="M126.755,-217.983C108.173,-207.741 83.362,-194.066 63.1328,-182.916"/>
<polygon fill="black" stroke="black" points="64.6469,-179.754 54.1996,-177.992 61.2679,-185.884 64.6469,-179.754"/>
<g id="a_edge1&#45;headlabel"><a xlink:href="dir_000080_000076.xhtml" target="_top" xlink:title="3">
<text text-anchor="middle" x="69.1656" y="-176.502" font-family="Helvetica,sans-Serif" font-size="10.00">3</text>
</a>
</g>
</g>
<!-- dir_707aa52d67938117542c6646238d6f70 -->
<g id="node3" class="node"><title>dir_707aa52d67938117542c6646238d6f70</title>
<g id="a_node3"><a xlink:href="dir_707aa52d67938117542c6646238d6f70.xhtml" target="_top" xlink:title="helpers">
<polygon fill="none" stroke="black" points="126,-180 72,-180 72,-144 126,-144 126,-180"/>
<text text-anchor="middle" x="99" y="-159.5" font-family="Helvetica,sans-Serif" font-size="10.00">helpers</text>
</a>
</g>
</g>
<!-- dir_8a6a287e420ec4de95804825506d2fde&#45;&gt;dir_707aa52d67938117542c6646238d6f70 -->
<g id="edge2" class="edge"><title>dir_8a6a287e420ec4de95804825506d2fde&#45;&gt;dir_707aa52d67938117542c6646238d6f70</title>
<path fill="none" stroke="black" d="M140.404,-215.697C133.877,-207.389 125.932,-197.277 118.753,-188.141"/>
<polygon fill="black" stroke="black" points="121.369,-185.805 112.439,-180.104 115.865,-190.13 121.369,-185.805"/>
<g id="a_edge2&#45;headlabel"><a xlink:href="dir_000080_000029.xhtml" target="_top" xlink:title="127">
<text text-anchor="middle" x="125.823" y="-184.377" font-family="Helvetica,sans-Serif" font-size="10.00">127</text>
</a>
</g>
</g>
<!-- dir_214608ef36d61442cb2b0c1c4e9a7def -->
<g id="node4" class="node"><title>dir_214608ef36d61442cb2b0c1c4e9a7def</title>
<g id="a_node4"><a xlink:href="dir_214608ef36d61442cb2b0c1c4e9a7def.xhtml" target="_top" xlink:title="arm_compute">
<polygon fill="white" stroke="red" points="188,-108 104,-108 104,-72 188,-72 188,-108"/>
<text text-anchor="middle" x="146" y="-87.5" font-family="Helvetica,sans-Serif" font-size="10.00">arm_compute</text>
</a>
</g>
</g>
<!-- dir_8a6a287e420ec4de95804825506d2fde&#45;&gt;dir_214608ef36d61442cb2b0c1c4e9a7def -->
<g id="edge3" class="edge"><title>dir_8a6a287e420ec4de95804825506d2fde&#45;&gt;dir_214608ef36d61442cb2b0c1c4e9a7def</title>
<path fill="none" stroke="black" d="M153.035,-215.871C151.672,-191.67 149.167,-147.211 147.543,-118.393"/>
<polygon fill="black" stroke="black" points="151.025,-117.977 146.968,-108.189 144.037,-118.37 151.025,-117.977"/>
<g id="a_edge3&#45;headlabel"><a xlink:href="dir_000080_000000.xhtml" target="_top" xlink:title="422">
<text text-anchor="middle" x="154.062" y="-118.906" font-family="Helvetica,sans-Serif" font-size="10.00">422</text>
</a>
</g>
</g>
<!-- dir_a8053b3d69cfefb2b2e6ec7bf9dd5c1a -->
<g id="node5" class="node"><title>dir_a8053b3d69cfefb2b2e6ec7bf9dd5c1a</title>
<g id="a_node5"><a xlink:href="dir_a8053b3d69cfefb2b2e6ec7bf9dd5c1a.xhtml" target="_top" xlink:title="utils">
<polygon fill="white" stroke="red" points="236,-180 182,-180 182,-144 236,-144 236,-180"/>
<text text-anchor="middle" x="209" y="-159.5" font-family="Helvetica,sans-Serif" font-size="10.00">utils</text>
</a>
</g>
</g>
<!-- dir_8a6a287e420ec4de95804825506d2fde&#45;&gt;dir_a8053b3d69cfefb2b2e6ec7bf9dd5c1a -->
<g id="edge4" class="edge"><title>dir_8a6a287e420ec4de95804825506d2fde&#45;&gt;dir_a8053b3d69cfefb2b2e6ec7bf9dd5c1a</title>
<path fill="none" stroke="black" d="M167.596,-215.697C174.123,-207.389 182.068,-197.277 189.247,-188.141"/>
<polygon fill="black" stroke="black" points="192.135,-190.13 195.561,-180.104 186.631,-185.805 192.135,-190.13"/>
<g id="a_edge4&#45;headlabel"><a xlink:href="dir_000080_000114.xhtml" target="_top" xlink:title="5">
<text text-anchor="middle" x="192.147" y="-192.211" font-family="Helvetica,sans-Serif" font-size="10.00">5</text>
</a>
</g>
</g>
<!-- dir_5815af820a9cc9481f1d0990a0d60286 -->
<g id="node6" class="node"><title>dir_5815af820a9cc9481f1d0990a0d60286</title>
<g id="a_node6"><a xlink:href="dir_5815af820a9cc9481f1d0990a0d60286.xhtml" target="_top" xlink:title="support">
<polygon fill="none" stroke="black" points="208,-36 154,-36 154,-0 208,-0 208,-36"/>
<text text-anchor="middle" x="181" y="-15.5" font-family="Helvetica,sans-Serif" font-size="10.00">support</text>
</a>
</g>
</g>
<!-- dir_8a6a287e420ec4de95804825506d2fde&#45;&gt;dir_5815af820a9cc9481f1d0990a0d60286 -->
<g id="edge5" class="edge"><title>dir_8a6a287e420ec4de95804825506d2fde&#45;&gt;dir_5815af820a9cc9481f1d0990a0d60286</title>
<path fill="none" stroke="black" d="M181.288,-225.341C202.824,-217.697 231.424,-203.618 245,-180 271.118,-134.564 232.038,-76.3973 204.409,-43.8758"/>
<polygon fill="black" stroke="black" points="206.898,-41.4045 197.678,-36.1836 201.63,-46.0141 206.898,-41.4045"/>
<g id="a_edge5&#45;headlabel"><a xlink:href="dir_000080_000027.xhtml" target="_top" xlink:title="66">
<text text-anchor="middle" x="211.401" y="-39.74" font-family="Helvetica,sans-Serif" font-size="10.00">66</text>
</a>
</g>
</g>
<!-- dir_acedbc3c1c025eedca19641ef7b62820&#45;&gt;dir_214608ef36d61442cb2b0c1c4e9a7def -->
<g id="edge6" class="edge"><title>dir_acedbc3c1c025eedca19641ef7b62820&#45;&gt;dir_214608ef36d61442cb2b0c1c4e9a7def</title>
<path fill="none" stroke="black" d="M54.0029,-145.116C70.0032,-135.704 90.5262,-123.632 108.127,-113.278"/>
<polygon fill="black" stroke="black" points="110.18,-116.131 117.025,-108.044 106.631,-110.098 110.18,-116.131"/>
<g id="a_edge6&#45;headlabel"><a xlink:href="dir_000076_000000.xhtml" target="_top" xlink:title="37">
<text text-anchor="middle" x="108.521" y="-117.901" font-family="Helvetica,sans-Serif" font-size="10.00">37</text>
</a>
</g>
</g>
<!-- dir_707aa52d67938117542c6646238d6f70&#45;&gt;dir_214608ef36d61442cb2b0c1c4e9a7def -->
<g id="edge7" class="edge"><title>dir_707aa52d67938117542c6646238d6f70&#45;&gt;dir_214608ef36d61442cb2b0c1c4e9a7def</title>
<path fill="none" stroke="black" d="M110.618,-143.697C116.139,-135.474 122.847,-125.483 128.932,-116.421"/>
<polygon fill="black" stroke="black" points="131.847,-118.358 134.516,-108.104 126.035,-114.456 131.847,-118.358"/>
<g id="a_edge7&#45;headlabel"><a xlink:href="dir_000029_000000.xhtml" target="_top" xlink:title="11">
<text text-anchor="middle" x="132.201" y="-120.425" font-family="Helvetica,sans-Serif" font-size="10.00">11</text>
</a>
</g>
</g>
<!-- dir_214608ef36d61442cb2b0c1c4e9a7def&#45;&gt;dir_5815af820a9cc9481f1d0990a0d60286 -->
<g id="edge8" class="edge"><title>dir_214608ef36d61442cb2b0c1c4e9a7def&#45;&gt;dir_5815af820a9cc9481f1d0990a0d60286</title>
<path fill="none" stroke="black" d="M148.736,-71.6966C151.932,-63.6436 156.596,-53.8945 161.462,-44.9824"/>
<polygon fill="black" stroke="black" points="164.615,-46.5204 166.553,-36.1043 158.542,-43.0383 164.615,-46.5204"/>
<g id="a_edge8&#45;headlabel"><a xlink:href="dir_000000_000027.xhtml" target="_top" xlink:title="17">
<text text-anchor="middle" x="165.29" y="-48.5511" font-family="Helvetica,sans-Serif" font-size="10.00">17</text>
</a>
</g>
</g>
<!-- dir_a8053b3d69cfefb2b2e6ec7bf9dd5c1a&#45;&gt;dir_214608ef36d61442cb2b0c1c4e9a7def -->
<g id="edge9" class="edge"><title>dir_a8053b3d69cfefb2b2e6ec7bf9dd5c1a&#45;&gt;dir_214608ef36d61442cb2b0c1c4e9a7def</title>
<path fill="none" stroke="black" d="M193.427,-143.697C185.798,-135.22 176.477,-124.864 168.124,-115.583"/>
<polygon fill="black" stroke="black" points="170.685,-113.196 161.394,-108.104 165.482,-117.879 170.685,-113.196"/>
<g id="a_edge9&#45;headlabel"><a xlink:href="dir_000114_000000.xhtml" target="_top" xlink:title="15">
<text text-anchor="middle" x="175.2" y="-111.468" font-family="Helvetica,sans-Serif" font-size="10.00">15</text>
</a>
</g>
</g>
<!-- dir_a8053b3d69cfefb2b2e6ec7bf9dd5c1a&#45;&gt;dir_5815af820a9cc9481f1d0990a0d60286 -->
<g id="edge10" class="edge"><title>dir_a8053b3d69cfefb2b2e6ec7bf9dd5c1a&#45;&gt;dir_5815af820a9cc9481f1d0990a0d60286</title>
<path fill="none" stroke="black" d="M207.5,-143.798C205.737,-125.767 202.354,-96.6837 197,-72 195.117,-63.3187 192.508,-53.9978 189.943,-45.6307"/>
<polygon fill="black" stroke="black" points="193.249,-44.4771 186.888,-36.0046 186.577,-46.5949 193.249,-44.4771"/>
<g id="a_edge10&#45;headlabel"><a xlink:href="dir_000114_000027.xhtml" target="_top" xlink:title="3">
<text text-anchor="middle" x="197.043" y="-44.5443" font-family="Helvetica,sans-Serif" font-size="10.00">3</text>
</a>
</g>
</g>
<!-- dir_5815af820a9cc9481f1d0990a0d60286&#45;&gt;dir_214608ef36d61442cb2b0c1c4e9a7def -->
<g id="edge11" class="edge"><title>dir_5815af820a9cc9481f1d0990a0d60286&#45;&gt;dir_214608ef36d61442cb2b0c1c4e9a7def</title>
<path fill="none" stroke="black" d="M178.343,-36.1043C175.171,-44.1291 170.521,-53.871 165.658,-62.7967"/>
<polygon fill="black" stroke="black" points="162.495,-61.2786 160.567,-71.6966 168.571,-64.7543 162.495,-61.2786"/>
<g id="a_edge11&#45;headlabel"><a xlink:href="dir_000027_000000.xhtml" target="_top" xlink:title="6">
<text text-anchor="middle" x="161.815" y="-54.2486" font-family="Helvetica,sans-Serif" font-size="10.00">6</text>
</a>
</g>
</g>
</g>
</svg>
