<?xml version="1.0" encoding="UTF-8" standalone="no"?>
<!DOCTYPE svg PUBLIC "-//W3C//DTD SVG 1.1//EN"
 "http://www.w3.org/Graphics/SVG/1.1/DTD/svg11.dtd">
<!-- Generated by graphviz version 2.38.0 (20140413.2041)
 -->
<!-- Title: src/core/cpu/kernels/activation Pages: 1 -->
<svg width="264pt" height="231pt"
 viewBox="0.00 0.00 264.00 231.00" xmlns="http://www.w3.org/2000/svg" xmlns:xlink="http://www.w3.org/1999/xlink">
<g id="graph0" class="graph" transform="scale(1 1) rotate(0) translate(4 227)">
<title>src/core/cpu/kernels/activation</title>
<polygon fill="white" stroke="none" points="-4,4 -4,-227 260,-227 260,4 -4,4"/>
<g id="clust1" class="cluster"><title>clusterdir_245ee9a9c6615d71b72ba121a052806f</title>
<g id="a_clust1"><a xlink:href="dir_245ee9a9c6615d71b72ba121a052806f.xhtml" target="_top" xlink:title="kernels">
<polygon fill="#ddddee" stroke="black" points="8,-128 8,-215 248,-215 248,-128 8,-128"/>
<text text-anchor="middle" x="128" y="-203" font-family="Helvetica,sans-Serif" font-size="10.00">kernels</text>
</a>
</g>
</g>
<g id="clust2" class="cluster"><title>clusterdir_d6f6df31a1127c4cd082ae3a8b2398b2</title>
<g id="a_clust2"><a xlink:href="dir_d6f6df31a1127c4cd082ae3a8b2398b2.xhtml" target="_top">
<polygon fill="#eeeeff" stroke="black" points="16,-136 16,-188 240,-188 240,-136 16,-136"/>
</a>
</g>
</g>
<!-- dir_d6f6df31a1127c4cd082ae3a8b2398b2 -->
<g id="node1" class="node"><title>dir_d6f6df31a1127c4cd082ae3a8b2398b2</title>
<text text-anchor="middle" x="200" y="-159.5" font-family="Helvetica,sans-Serif" font-size="10.00">activation</text>
</g>
<!-- dir_4db741d154f38bded1026cafa98fc239 -->
<g id="node2" class="node"><title>dir_4db741d154f38bded1026cafa98fc239</title>
<g id="a_node2"><a xlink:href="dir_4db741d154f38bded1026cafa98fc239.xhtml" target="_top" xlink:title="neon">
<polygon fill="white" stroke="black" points="78,-180 24,-180 24,-144 78,-144 78,-180"/>
<text text-anchor="middle" x="51" y="-159.5" font-family="Helvetica,sans-Serif" font-size="10.00">neon</text>
</a>
</g>
</g>
<!-- dir_214608ef36d61442cb2b0c1c4e9a7def -->
<g id="node4" class="node"><title>dir_214608ef36d61442cb2b0c1c4e9a7def</title>
<g id="a_node4"><a xlink:href="dir_214608ef36d61442cb2b0c1c4e9a7def.xhtml" target="_top" xlink:title="arm_compute">
<polygon fill="white" stroke="red" points="129,-36 45,-36 45,-0 129,-0 129,-36"/>
<text text-anchor="middle" x="87" y="-15.5" font-family="Helvetica,sans-Serif" font-size="10.00">arm_compute</text>
</a>
</g>
</g>
<!-- dir_4db741d154f38bded1026cafa98fc239&#45;&gt;dir_214608ef36d61442cb2b0c1c4e9a7def -->
<g id="edge4" class="edge"><title>dir_4db741d154f38bded1026cafa98fc239&#45;&gt;dir_214608ef36d61442cb2b0c1c4e9a7def</title>
<path fill="none" stroke="black" d="M48.0691,-143.828C45.6215,-125.572 43.5973,-96.0733 51,-72 54.0089,-62.2153 59.507,-52.6161 65.3157,-44.3336"/>
<polygon fill="black" stroke="black" points="68.1948,-46.3279 71.3901,-36.2264 62.5928,-42.1306 68.1948,-46.3279"/>
<g id="a_edge4&#45;headlabel"><a xlink:href="dir_000103_000000.xhtml" target="_top" xlink:title="13">
<text text-anchor="middle" x="68.3117" y="-48.4071" font-family="Helvetica,sans-Serif" font-size="10.00">13</text>
</a>
</g>
</g>
<!-- dir_d91e1966cc57df4f49d1e07be7697713 -->
<g id="node5" class="node"><title>dir_d91e1966cc57df4f49d1e07be7697713</title>
<g id="a_node5"><a xlink:href="dir_d91e1966cc57df4f49d1e07be7697713.xhtml" target="_top" xlink:title="NEON">
<polygon fill="white" stroke="red" points="114,-108 60,-108 60,-72 114,-72 114,-108"/>
<text text-anchor="middle" x="87" y="-87.5" font-family="Helvetica,sans-Serif" font-size="10.00">NEON</text>
</a>
</g>
</g>
<!-- dir_4db741d154f38bded1026cafa98fc239&#45;&gt;dir_d91e1966cc57df4f49d1e07be7697713 -->
<g id="edge5" class="edge"><title>dir_4db741d154f38bded1026cafa98fc239&#45;&gt;dir_d91e1966cc57df4f49d1e07be7697713</title>
<path fill="none" stroke="black" d="M59.8989,-143.697C63.9968,-135.728 68.9488,-126.1 73.4927,-117.264"/>
<polygon fill="black" stroke="black" points="76.7425,-118.598 78.2035,-108.104 70.5174,-115.396 76.7425,-118.598"/>
<g id="a_edge5&#45;headlabel"><a xlink:href="dir_000103_000024.xhtml" target="_top" xlink:title="13">
<text text-anchor="middle" x="77.6235" y="-120.593" font-family="Helvetica,sans-Serif" font-size="10.00">13</text>
</a>
</g>
</g>
<!-- dir_e7a69179293531183320f979bcd17bce -->
<g id="node3" class="node"><title>dir_e7a69179293531183320f979bcd17bce</title>
<g id="a_node3"><a xlink:href="dir_e7a69179293531183320f979bcd17bce.xhtml" target="_top" xlink:title="sve">
<polygon fill="white" stroke="black" points="150,-180 96,-180 96,-144 150,-144 150,-180"/>
<text text-anchor="middle" x="123" y="-159.5" font-family="Helvetica,sans-Serif" font-size="10.00">sve</text>
</a>
</g>
</g>
<!-- dir_e7a69179293531183320f979bcd17bce&#45;&gt;dir_214608ef36d61442cb2b0c1c4e9a7def -->
<g id="edge2" class="edge"><title>dir_e7a69179293531183320f979bcd17bce&#45;&gt;dir_214608ef36d61442cb2b0c1c4e9a7def</title>
<path fill="none" stroke="black" d="M125.931,-143.828C128.379,-125.572 130.403,-96.0733 123,-72 119.991,-62.2153 114.493,-52.6161 108.684,-44.3336"/>
<polygon fill="black" stroke="black" points="111.407,-42.1306 102.61,-36.2264 105.805,-46.3279 111.407,-42.1306"/>
<g id="a_edge2&#45;headlabel"><a xlink:href="dir_000104_000000.xhtml" target="_top" xlink:title="14">
<text text-anchor="middle" x="115.835" y="-40.8048" font-family="Helvetica,sans-Serif" font-size="10.00">14</text>
</a>
</g>
</g>
<!-- dir_e7a69179293531183320f979bcd17bce&#45;&gt;dir_d91e1966cc57df4f49d1e07be7697713 -->
<g id="edge3" class="edge"><title>dir_e7a69179293531183320f979bcd17bce&#45;&gt;dir_d91e1966cc57df4f49d1e07be7697713</title>
<path fill="none" stroke="black" d="M114.101,-143.697C110.003,-135.728 105.051,-126.1 100.507,-117.264"/>
<polygon fill="black" stroke="black" points="103.483,-115.396 95.7965,-108.104 97.2575,-118.598 103.483,-115.396"/>
<g id="a_edge3&#45;headlabel"><a xlink:href="dir_000104_000024.xhtml" target="_top" xlink:title="2">
<text text-anchor="middle" x="107.651" y="-114.795" font-family="Helvetica,sans-Serif" font-size="10.00">2</text>
</a>
</g>
</g>
<!-- dir_d91e1966cc57df4f49d1e07be7697713&#45;&gt;dir_214608ef36d61442cb2b0c1c4e9a7def -->
<g id="edge1" class="edge"><title>dir_d91e1966cc57df4f49d1e07be7697713&#45;&gt;dir_214608ef36d61442cb2b0c1c4e9a7def</title>
<path fill="none" stroke="black" d="M87,-71.6966C87,-63.9827 87,-54.7125 87,-46.1124"/>
<polygon fill="black" stroke="black" points="90.5001,-46.1043 87,-36.1043 83.5001,-46.1044 90.5001,-46.1043"/>
<g id="a_edge1&#45;headlabel"><a xlink:href="dir_000024_000000.xhtml" target="_top" xlink:title="371">
<text text-anchor="middle" x="93.3393" y="-47.199" font-family="Helvetica,sans-Serif" font-size="10.00">371</text>
</a>
</g>
</g>
</g>
</svg>
