<?xml version="1.0" encoding="UTF-8" standalone="no"?>
<!DOCTYPE svg PUBLIC "-//W3C//DTD SVG 1.1//EN"
 "http://www.w3.org/Graphics/SVG/1.1/DTD/svg11.dtd">
<!-- Generated by graphviz version 2.38.0 (20140413.2041)
 -->
<!-- Title: tests/benchmark_examples Pages: 1 -->
<svg width="162pt" height="295pt"
 viewBox="0.00 0.00 162.00 295.00" xmlns="http://www.w3.org/2000/svg" xmlns:xlink="http://www.w3.org/1999/xlink">
<g id="graph0" class="graph" transform="scale(1 1) rotate(0) translate(4 291)">
<title>tests/benchmark_examples</title>
<polygon fill="white" stroke="none" points="-4,4 -4,-291 158,-291 158,4 -4,4"/>
<g id="clust1" class="cluster"><title>clusterdir_59425e443f801f1f2fd8bbe4959a3ccf</title>
<g id="a_clust1"><a xlink:href="dir_59425e443f801f1f2fd8bbe4959a3ccf.xhtml" target="_top" xlink:title="tests">
<polygon fill="#ddddee" stroke="black" points="8,-208 8,-279 146,-279 146,-208 8,-208"/>
<text text-anchor="middle" x="77" y="-267" font-family="Helvetica,sans-Serif" font-size="10.00">tests</text>
</a>
</g>
</g>
<!-- dir_f5bec44e3d58936462fdba93ed9f8f21 -->
<g id="node1" class="node"><title>dir_f5bec44e3d58936462fdba93ed9f8f21</title>
<g id="a_node1"><a xlink:href="dir_f5bec44e3d58936462fdba93ed9f8f21.xhtml" target="_top" xlink:title="benchmark_examples">
<polygon fill="#eeeeff" stroke="black" points="138,-252 16,-252 16,-216 138,-216 138,-252"/>
<text text-anchor="middle" x="77" y="-231.5" font-family="Helvetica,sans-Serif" font-size="10.00">benchmark_examples</text>
</a>
</g>
</g>
<!-- dir_cbdb8362360e11eafe2fa3bc74cf0ffd -->
<g id="node2" class="node"><title>dir_cbdb8362360e11eafe2fa3bc74cf0ffd</title>
<g id="a_node2"><a xlink:href="dir_cbdb8362360e11eafe2fa3bc74cf0ffd.xhtml" target="_top" xlink:title="utils">
<polygon fill="white" stroke="red" points="61,-108 7,-108 7,-72 61,-72 61,-108"/>
<text text-anchor="middle" x="34" y="-87.5" font-family="Helvetica,sans-Serif" font-size="10.00">utils</text>
</a>
</g>
</g>
<!-- dir_f5bec44e3d58936462fdba93ed9f8f21&#45;&gt;dir_cbdb8362360e11eafe2fa3bc74cf0ffd -->
<g id="edge1" class="edge"><title>dir_f5bec44e3d58936462fdba93ed9f8f21&#45;&gt;dir_cbdb8362360e11eafe2fa3bc74cf0ffd</title>
<path fill="none" stroke="black" d="M57.9609,-215.837C48.824,-206.3 38.8317,-193.624 34,-180 26.9958,-160.25 27.4128,-136.447 29.3538,-118.429"/>
<polygon fill="black" stroke="black" points="32.8515,-118.672 30.6671,-108.305 25.9097,-117.772 32.8515,-118.672"/>
<g id="a_edge1&#45;headlabel"><a xlink:href="dir_000249_000035.xhtml" target="_top" xlink:title="2">
<text text-anchor="middle" x="35.2049" y="-120.102" font-family="Helvetica,sans-Serif" font-size="10.00">2</text>
</a>
</g>
</g>
<!-- dir_9e71e2da941d3cafc4d98a9f6ae3de4f -->
<g id="node3" class="node"><title>dir_9e71e2da941d3cafc4d98a9f6ae3de4f</title>
<g id="a_node3"><a xlink:href="dir_9e71e2da941d3cafc4d98a9f6ae3de4f.xhtml" target="_top" xlink:title="framework">
<polygon fill="white" stroke="red" points="110.5,-180 43.5,-180 43.5,-144 110.5,-144 110.5,-180"/>
<text text-anchor="middle" x="77" y="-159.5" font-family="Helvetica,sans-Serif" font-size="10.00">framework</text>
</a>
</g>
</g>
<!-- dir_f5bec44e3d58936462fdba93ed9f8f21&#45;&gt;dir_9e71e2da941d3cafc4d98a9f6ae3de4f -->
<g id="edge2" class="edge"><title>dir_f5bec44e3d58936462fdba93ed9f8f21&#45;&gt;dir_9e71e2da941d3cafc4d98a9f6ae3de4f</title>
<path fill="none" stroke="black" d="M77,-215.697C77,-207.983 77,-198.712 77,-190.112"/>
<polygon fill="black" stroke="black" points="80.5001,-190.104 77,-180.104 73.5001,-190.104 80.5001,-190.104"/>
<g id="a_edge2&#45;headlabel"><a xlink:href="dir_000249_000033.xhtml" target="_top" xlink:title="4">
<text text-anchor="middle" x="83.3393" y="-191.199" font-family="Helvetica,sans-Serif" font-size="10.00">4</text>
</a>
</g>
</g>
<!-- dir_214608ef36d61442cb2b0c1c4e9a7def -->
<g id="node4" class="node"><title>dir_214608ef36d61442cb2b0c1c4e9a7def</title>
<g id="a_node4"><a xlink:href="dir_214608ef36d61442cb2b0c1c4e9a7def.xhtml" target="_top" xlink:title="arm_compute">
<polygon fill="white" stroke="red" points="103,-36 19,-36 19,-0 103,-0 103,-36"/>
<text text-anchor="middle" x="61" y="-15.5" font-family="Helvetica,sans-Serif" font-size="10.00">arm_compute</text>
</a>
</g>
</g>
<!-- dir_f5bec44e3d58936462fdba93ed9f8f21&#45;&gt;dir_214608ef36d61442cb2b0c1c4e9a7def -->
<g id="edge3" class="edge"><title>dir_f5bec44e3d58936462fdba93ed9f8f21&#45;&gt;dir_214608ef36d61442cb2b0c1c4e9a7def</title>
<path fill="none" stroke="black" d="M95.6042,-215.756C104.531,-206.198 114.29,-193.527 119,-180 124.261,-164.89 122.412,-159.632 119,-144 111.084,-107.73 91.4541,-69.5024 77.2196,-45.017"/>
<polygon fill="black" stroke="black" points="80.1805,-43.1481 72.064,-36.3383 74.1623,-46.7233 80.1805,-43.1481"/>
<g id="a_edge3&#45;headlabel"><a xlink:href="dir_000249_000000.xhtml" target="_top" xlink:title="1">
<text text-anchor="middle" x="84.4573" y="-42.2885" font-family="Helvetica,sans-Serif" font-size="10.00">1</text>
</a>
</g>
</g>
<!-- dir_cbdb8362360e11eafe2fa3bc74cf0ffd&#45;&gt;dir_214608ef36d61442cb2b0c1c4e9a7def -->
<g id="edge4" class="edge"><title>dir_cbdb8362360e11eafe2fa3bc74cf0ffd&#45;&gt;dir_214608ef36d61442cb2b0c1c4e9a7def</title>
<path fill="none" stroke="black" d="M34.7584,-71.6966C37.01,-63.7284 40.5093,-54.0995 44.31,-45.2641"/>
<polygon fill="black" stroke="black" points="47.5233,-46.6534 48.5076,-36.1043 41.1597,-43.7371 47.5233,-46.6534"/>
<g id="a_edge4&#45;headlabel"><a xlink:href="dir_000035_000000.xhtml" target="_top" xlink:title="38">
<text text-anchor="middle" x="48.607" y="-48.604" font-family="Helvetica,sans-Serif" font-size="10.00">38</text>
</a>
</g>
</g>
<!-- dir_9e71e2da941d3cafc4d98a9f6ae3de4f&#45;&gt;dir_cbdb8362360e11eafe2fa3bc74cf0ffd -->
<g id="edge5" class="edge"><title>dir_9e71e2da941d3cafc4d98a9f6ae3de4f&#45;&gt;dir_cbdb8362360e11eafe2fa3bc74cf0ffd</title>
<path fill="none" stroke="black" d="M66.3708,-143.697C61.3719,-135.559 55.309,-125.689 49.7879,-116.701"/>
<polygon fill="black" stroke="black" points="52.7234,-114.793 44.5069,-108.104 46.7589,-118.457 52.7234,-114.793"/>
<g id="a_edge5&#45;headlabel"><a xlink:href="dir_000033_000035.xhtml" target="_top" xlink:title="3">
<text text-anchor="middle" x="57.0242" y="-113.87" font-family="Helvetica,sans-Serif" font-size="10.00">3</text>
</a>
</g>
</g>
<!-- dir_9e71e2da941d3cafc4d98a9f6ae3de4f&#45;&gt;dir_214608ef36d61442cb2b0c1c4e9a7def -->
<g id="edge6" class="edge"><title>dir_9e71e2da941d3cafc4d98a9f6ae3de4f&#45;&gt;dir_214608ef36d61442cb2b0c1c4e9a7def</title>
<path fill="none" stroke="black" d="M76.1113,-143.892C75.0718,-125.939 73.0893,-96.9178 70,-72 68.9504,-63.5338 67.5029,-54.3565 66.0755,-46.0552"/>
<polygon fill="black" stroke="black" points="69.507,-45.3608 64.3097,-36.1283 62.6152,-46.5868 69.507,-45.3608"/>
<g id="a_edge6&#45;headlabel"><a xlink:href="dir_000033_000000.xhtml" target="_top" xlink:title="15">
<text text-anchor="middle" x="72.9318" y="-45.9026" font-family="Helvetica,sans-Serif" font-size="10.00">15</text>
</a>
</g>
</g>
<!-- dir_214608ef36d61442cb2b0c1c4e9a7def&#45;&gt;dir_cbdb8362360e11eafe2fa3bc74cf0ffd -->
<g id="edge7" class="edge"><title>dir_214608ef36d61442cb2b0c1c4e9a7def&#45;&gt;dir_cbdb8362360e11eafe2fa3bc74cf0ffd</title>
<path fill="none" stroke="black" d="M60.2976,-36.1043C58.067,-44.0447 54.5806,-53.6661 50.785,-62.5146"/>
<polygon fill="black" stroke="black" points="47.5621,-61.1465 46.5899,-71.6966 53.9291,-64.0555 47.5621,-61.1465"/>
<g id="a_edge7&#45;headlabel"><a xlink:href="dir_000000_000035.xhtml" target="_top" xlink:title="1">
<text text-anchor="middle" x="46.4734" y="-54.1971" font-family="Helvetica,sans-Serif" font-size="10.00">1</text>
</a>
</g>
</g>
</g>
</svg>
