<?xml version="1.0" encoding="UTF-8" standalone="no"?>
<!DOCTYPE svg PUBLIC "-//W3C//DTD SVG 1.1//EN"
 "http://www.w3.org/Graphics/SVG/1.1/DTD/svg11.dtd">
<!-- Generated by graphviz version 2.38.0 (20140413.2041)
 -->
<!-- Title: src/graph/backends Pages: 1 -->
<svg width="262pt" height="303pt"
 viewBox="0.00 0.00 262.00 303.00" xmlns="http://www.w3.org/2000/svg" xmlns:xlink="http://www.w3.org/1999/xlink">
<g id="graph0" class="graph" transform="scale(1 1) rotate(0) translate(4 299)">
<title>src/graph/backends</title>
<polygon fill="white" stroke="none" points="-4,4 -4,-299 258,-299 258,4 -4,4"/>
<g id="clust1" class="cluster"><title>clusterdir_d182250f0c231765fc862e69db210731</title>
<g id="a_clust1"><a xlink:href="dir_d182250f0c231765fc862e69db210731.xhtml" target="_top" xlink:title="graph">
<polygon fill="#ddddee" stroke="black" points="8,-200 8,-287 246,-287 246,-200 8,-200"/>
<text text-anchor="middle" x="127" y="-275" font-family="Helvetica,sans-Serif" font-size="10.00">graph</text>
</a>
</g>
</g>
<g id="clust2" class="cluster"><title>clusterdir_39e772dac1f6529f21fb52deefa146ea</title>
<g id="a_clust2"><a xlink:href="dir_39e772dac1f6529f21fb52deefa146ea.xhtml" target="_top">
<polygon fill="#eeeeff" stroke="black" points="16,-208 16,-260 238,-260 238,-208 16,-208"/>
</a>
</g>
</g>
<!-- dir_39e772dac1f6529f21fb52deefa146ea -->
<g id="node1" class="node"><title>dir_39e772dac1f6529f21fb52deefa146ea</title>
<text text-anchor="middle" x="55" y="-231.5" font-family="Helvetica,sans-Serif" font-size="10.00">backends</text>
</g>
<!-- dir_214608ef36d61442cb2b0c1c4e9a7def -->
<g id="node4" class="node"><title>dir_214608ef36d61442cb2b0c1c4e9a7def</title>
<g id="a_node4"><a xlink:href="dir_214608ef36d61442cb2b0c1c4e9a7def.xhtml" target="_top" xlink:title="arm_compute">
<polygon fill="white" stroke="red" points="205,-108 121,-108 121,-72 205,-72 205,-108"/>
<text text-anchor="middle" x="163" y="-87.5" font-family="Helvetica,sans-Serif" font-size="10.00">arm_compute</text>
</a>
</g>
</g>
<!-- dir_39e772dac1f6529f21fb52deefa146ea&#45;&gt;dir_214608ef36d61442cb2b0c1c4e9a7def -->
<g id="edge8" class="edge"><title>dir_39e772dac1f6529f21fb52deefa146ea&#45;&gt;dir_214608ef36d61442cb2b0c1c4e9a7def</title>
<path fill="none" stroke="black" d="M68.0273,-215.871C86.8393,-191.137 121.745,-145.242 143.596,-116.512"/>
<polygon fill="black" stroke="black" points="146.659,-118.268 149.926,-108.189 141.087,-114.03 146.659,-118.268"/>
<g id="a_edge8&#45;headlabel"><a xlink:href="dir_000225_000000.xhtml" target="_top" xlink:title="73">
<text text-anchor="middle" x="146.742" y="-120.347" font-family="Helvetica,sans-Serif" font-size="10.00">73</text>
</a>
</g>
</g>
<!-- dir_10a8ee34f3d0df8ebfa752c7937ca169 -->
<g id="node2" class="node"><title>dir_10a8ee34f3d0df8ebfa752c7937ca169</title>
<g id="a_node2"><a xlink:href="dir_10a8ee34f3d0df8ebfa752c7937ca169.xhtml" target="_top" xlink:title="CL">
<polygon fill="white" stroke="black" points="158,-252 104,-252 104,-216 158,-216 158,-252"/>
<text text-anchor="middle" x="131" y="-231.5" font-family="Helvetica,sans-Serif" font-size="10.00">CL</text>
</a>
</g>
</g>
<!-- dir_10a8ee34f3d0df8ebfa752c7937ca169&#45;&gt;dir_214608ef36d61442cb2b0c1c4e9a7def -->
<g id="edge4" class="edge"><title>dir_10a8ee34f3d0df8ebfa752c7937ca169&#45;&gt;dir_214608ef36d61442cb2b0c1c4e9a7def</title>
<path fill="none" stroke="black" d="M134.49,-215.904C138.19,-197.961 144.279,-168.948 150,-144 151.936,-135.559 154.146,-126.389 156.189,-118.087"/>
<polygon fill="black" stroke="black" points="159.642,-118.703 158.653,-108.155 152.848,-117.018 159.642,-118.703"/>
<g id="a_edge4&#45;headlabel"><a xlink:href="dir_000226_000000.xhtml" target="_top" xlink:title="34">
<text text-anchor="middle" x="161.532" y="-120.376" font-family="Helvetica,sans-Serif" font-size="10.00">34</text>
</a>
</g>
</g>
<!-- dir_aebb8dcc11953d78e620bbef0b9e2183 -->
<g id="node5" class="node"><title>dir_aebb8dcc11953d78e620bbef0b9e2183</title>
<g id="a_node5"><a xlink:href="dir_aebb8dcc11953d78e620bbef0b9e2183.xhtml" target="_top" xlink:title="core">
<polygon fill="white" stroke="red" points="213,-180 159,-180 159,-144 213,-144 213,-180"/>
<text text-anchor="middle" x="186" y="-159.5" font-family="Helvetica,sans-Serif" font-size="10.00">core</text>
</a>
</g>
</g>
<!-- dir_10a8ee34f3d0df8ebfa752c7937ca169&#45;&gt;dir_aebb8dcc11953d78e620bbef0b9e2183 -->
<g id="edge5" class="edge"><title>dir_10a8ee34f3d0df8ebfa752c7937ca169&#45;&gt;dir_aebb8dcc11953d78e620bbef0b9e2183</title>
<path fill="none" stroke="black" d="M144.596,-215.697C151.123,-207.389 159.068,-197.277 166.247,-188.141"/>
<polygon fill="black" stroke="black" points="169.135,-190.13 172.561,-180.104 163.631,-185.805 169.135,-190.13"/>
<g id="a_edge5&#45;headlabel"><a xlink:href="dir_000226_000004.xhtml" target="_top" xlink:title="12">
<text text-anchor="middle" x="169.147" y="-192.211" font-family="Helvetica,sans-Serif" font-size="10.00">12</text>
</a>
</g>
</g>
<!-- dir_5815af820a9cc9481f1d0990a0d60286 -->
<g id="node6" class="node"><title>dir_5815af820a9cc9481f1d0990a0d60286</title>
<g id="a_node6"><a xlink:href="dir_5815af820a9cc9481f1d0990a0d60286.xhtml" target="_top" xlink:title="support">
<polygon fill="none" stroke="black" points="190,-36 136,-36 136,-0 190,-0 190,-36"/>
<text text-anchor="middle" x="163" y="-15.5" font-family="Helvetica,sans-Serif" font-size="10.00">support</text>
</a>
</g>
</g>
<!-- dir_10a8ee34f3d0df8ebfa752c7937ca169&#45;&gt;dir_5815af820a9cc9481f1d0990a0d60286 -->
<g id="edge6" class="edge"><title>dir_10a8ee34f3d0df8ebfa752c7937ca169&#45;&gt;dir_5815af820a9cc9481f1d0990a0d60286</title>
<path fill="none" stroke="black" d="M123.691,-215.827C111.948,-185.58 92.1167,-121.339 112,-72 116.349,-61.209 124.062,-51.3859 132.194,-43.2085"/>
<polygon fill="black" stroke="black" points="134.79,-45.572 139.695,-36.1808 130.004,-40.4636 134.79,-45.572"/>
<g id="a_edge6&#45;headlabel"><a xlink:href="dir_000226_000027.xhtml" target="_top" xlink:title="4">
<text text-anchor="middle" x="134.108" y="-47.6016" font-family="Helvetica,sans-Serif" font-size="10.00">4</text>
</a>
</g>
</g>
<!-- dir_a0f71818ea2c5c08950cb56389fab822 -->
<g id="node3" class="node"><title>dir_a0f71818ea2c5c08950cb56389fab822</title>
<g id="a_node3"><a xlink:href="dir_a0f71818ea2c5c08950cb56389fab822.xhtml" target="_top" xlink:title="NEON">
<polygon fill="white" stroke="black" points="230,-252 176,-252 176,-216 230,-216 230,-252"/>
<text text-anchor="middle" x="203" y="-231.5" font-family="Helvetica,sans-Serif" font-size="10.00">NEON</text>
</a>
</g>
</g>
<!-- dir_a0f71818ea2c5c08950cb56389fab822&#45;&gt;dir_214608ef36d61442cb2b0c1c4e9a7def -->
<g id="edge1" class="edge"><title>dir_a0f71818ea2c5c08950cb56389fab822&#45;&gt;dir_214608ef36d61442cb2b0c1c4e9a7def</title>
<path fill="none" stroke="black" d="M212.687,-215.947C221.787,-197.535 232.553,-167.665 222,-144 216.918,-132.604 208.04,-122.634 198.691,-114.509"/>
<polygon fill="black" stroke="black" points="200.776,-111.694 190.8,-108.128 196.375,-117.137 200.776,-111.694"/>
<g id="a_edge1&#45;headlabel"><a xlink:href="dir_000227_000000.xhtml" target="_top" xlink:title="38">
<text text-anchor="middle" x="205.357" y="-109.247" font-family="Helvetica,sans-Serif" font-size="10.00">38</text>
</a>
</g>
</g>
<!-- dir_a0f71818ea2c5c08950cb56389fab822&#45;&gt;dir_aebb8dcc11953d78e620bbef0b9e2183 -->
<g id="edge2" class="edge"><title>dir_a0f71818ea2c5c08950cb56389fab822&#45;&gt;dir_aebb8dcc11953d78e620bbef0b9e2183</title>
<path fill="none" stroke="black" d="M198.798,-215.697C196.904,-207.898 194.623,-198.509 192.516,-189.829"/>
<polygon fill="black" stroke="black" points="195.915,-188.996 190.154,-180.104 189.113,-190.648 195.915,-188.996"/>
<g id="a_edge2&#45;headlabel"><a xlink:href="dir_000227_000004.xhtml" target="_top" xlink:title="11">
<text text-anchor="middle" x="199.522" y="-189.319" font-family="Helvetica,sans-Serif" font-size="10.00">11</text>
</a>
</g>
</g>
<!-- dir_a0f71818ea2c5c08950cb56389fab822&#45;&gt;dir_5815af820a9cc9481f1d0990a0d60286 -->
<g id="edge3" class="edge"><title>dir_a0f71818ea2c5c08950cb56389fab822&#45;&gt;dir_5815af820a9cc9481f1d0990a0d60286</title>
<path fill="none" stroke="black" d="M218.61,-215.774C226.373,-206.03 234.946,-193.184 239,-180 246.372,-156.027 230.874,-73.5516 230,-72 222.62,-58.8977 210.577,-47.8603 198.721,-39.3074"/>
<polygon fill="black" stroke="black" points="200.432,-36.2389 190.19,-33.5246 196.504,-42.033 200.432,-36.2389"/>
<g id="a_edge3&#45;headlabel"><a xlink:href="dir_000227_000027.xhtml" target="_top" xlink:title="5">
<text text-anchor="middle" x="205" y="-33.4057" font-family="Helvetica,sans-Serif" font-size="10.00">5</text>
</a>
</g>
</g>
<!-- dir_214608ef36d61442cb2b0c1c4e9a7def&#45;&gt;dir_5815af820a9cc9481f1d0990a0d60286 -->
<g id="edge7" class="edge"><title>dir_214608ef36d61442cb2b0c1c4e9a7def&#45;&gt;dir_5815af820a9cc9481f1d0990a0d60286</title>
<path fill="none" stroke="black" d="M157.084,-71.6966C156.289,-63.9827 156.062,-54.7125 156.405,-46.1124"/>
<polygon fill="black" stroke="black" points="159.898,-46.3243 157.105,-36.1043 152.915,-45.8356 159.898,-46.3243"/>
<g id="a_edge7&#45;headlabel"><a xlink:href="dir_000000_000027.xhtml" target="_top" xlink:title="17">
<text text-anchor="middle" x="162.48" y="-47.6083" font-family="Helvetica,sans-Serif" font-size="10.00">17</text>
</a>
</g>
</g>
<!-- dir_aebb8dcc11953d78e620bbef0b9e2183&#45;&gt;dir_214608ef36d61442cb2b0c1c4e9a7def -->
<g id="edge9" class="edge"><title>dir_aebb8dcc11953d78e620bbef0b9e2183&#45;&gt;dir_214608ef36d61442cb2b0c1c4e9a7def</title>
<path fill="none" stroke="black" d="M180.315,-143.697C177.752,-135.898 174.667,-126.509 171.815,-117.829"/>
<polygon fill="black" stroke="black" points="175.067,-116.512 168.62,-108.104 168.416,-118.697 175.067,-116.512"/>
<g id="a_edge9&#45;headlabel"><a xlink:href="dir_000004_000000.xhtml" target="_top" xlink:title="1381">
<text text-anchor="middle" x="178.886" y="-116.541" font-family="Helvetica,sans-Serif" font-size="10.00">1381</text>
</a>
</g>
</g>
<!-- dir_aebb8dcc11953d78e620bbef0b9e2183&#45;&gt;dir_5815af820a9cc9481f1d0990a0d60286 -->
<g id="edge10" class="edge"><title>dir_aebb8dcc11953d78e620bbef0b9e2183&#45;&gt;dir_5815af820a9cc9481f1d0990a0d60286</title>
<path fill="none" stroke="black" d="M198.308,-143.993C209.819,-125.874 223.869,-96.489 214,-72 209.651,-61.209 201.938,-51.3859 193.806,-43.2085"/>
<polygon fill="black" stroke="black" points="195.996,-40.4636 186.305,-36.1808 191.21,-45.572 195.996,-40.4636"/>
<g id="a_edge10&#45;headlabel"><a xlink:href="dir_000004_000027.xhtml" target="_top" xlink:title="142">
<text text-anchor="middle" x="200.56" y="-38.3491" font-family="Helvetica,sans-Serif" font-size="10.00">142</text>
</a>
</g>
</g>
<!-- dir_5815af820a9cc9481f1d0990a0d60286&#45;&gt;dir_214608ef36d61442cb2b0c1c4e9a7def -->
<g id="edge11" class="edge"><title>dir_5815af820a9cc9481f1d0990a0d60286&#45;&gt;dir_214608ef36d61442cb2b0c1c4e9a7def</title>
<path fill="none" stroke="black" d="M168.895,-36.1043C169.701,-43.7913 169.937,-53.0537 169.604,-61.6651"/>
<polygon fill="black" stroke="black" points="166.109,-61.4805 168.916,-71.6966 173.092,-61.9597 166.109,-61.4805"/>
<g id="a_edge11&#45;headlabel"><a xlink:href="dir_000027_000000.xhtml" target="_top" xlink:title="6">
<text text-anchor="middle" x="163.522" y="-55.2" font-family="Helvetica,sans-Serif" font-size="10.00">6</text>
</a>
</g>
</g>
</g>
</svg>
