<?xml version="1.0" encoding="UTF-8" standalone="no"?>
<!DOCTYPE svg PUBLIC "-//W3C//DTD SVG 1.1//EN"
 "http://www.w3.org/Graphics/SVG/1.1/DTD/svg11.dtd">
<!-- Generated by graphviz version 2.38.0 (20140413.2041)
 -->
<!-- Title: tests/validation/NEON Pages: 1 -->
<svg width="422pt" height="447pt"
 viewBox="0.00 0.00 422.17 447.00" xmlns="http://www.w3.org/2000/svg" xmlns:xlink="http://www.w3.org/1999/xlink">
<g id="graph0" class="graph" transform="scale(1 1) rotate(0) translate(4 443)">
<title>tests/validation/NEON</title>
<polygon fill="white" stroke="none" points="-4,4 -4,-443 418.169,-443 418.169,4 -4,4"/>
<g id="clust1" class="cluster"><title>clusterdir_e7c7b16542faa38cb4655ff1750d3604</title>
<g id="a_clust1"><a xlink:href="dir_e7c7b16542faa38cb4655ff1750d3604.xhtml" target="_top" xlink:title="validation">
<polygon fill="#ddddee" stroke="black" points="153.169,-344 153.169,-431 311.169,-431 311.169,-344 153.169,-344"/>
<text text-anchor="middle" x="232.169" y="-419" font-family="Helvetica,sans-Serif" font-size="10.00">validation</text>
</a>
</g>
</g>
<g id="clust2" class="cluster"><title>clusterdir_0538a82dae0483a21d0f1e9d7e0a45c6</title>
<g id="a_clust2"><a xlink:href="dir_0538a82dae0483a21d0f1e9d7e0a45c6.xhtml" target="_top">
<polygon fill="#eeeeff" stroke="black" points="161.169,-352 161.169,-404 303.169,-404 303.169,-352 161.169,-352"/>
</a>
</g>
</g>
<!-- dir_0538a82dae0483a21d0f1e9d7e0a45c6 -->
<g id="node1" class="node"><title>dir_0538a82dae0483a21d0f1e9d7e0a45c6</title>
<text text-anchor="middle" x="268.169" y="-375.5" font-family="Helvetica,sans-Serif" font-size="10.00">NEON</text>
</g>
<!-- dir_68267d1309a1af8e8297ef4c3efbcdba -->
<g id="node4" class="node"><title>dir_68267d1309a1af8e8297ef4c3efbcdba</title>
<g id="a_node4"><a xlink:href="dir_68267d1309a1af8e8297ef4c3efbcdba.xhtml" target="_top" xlink:title="src">
<polygon fill="white" stroke="red" points="344.169,-252 290.169,-252 290.169,-216 344.169,-216 344.169,-252"/>
<text text-anchor="middle" x="317.169" y="-231.5" font-family="Helvetica,sans-Serif" font-size="10.00">src</text>
</a>
</g>
</g>
<!-- dir_0538a82dae0483a21d0f1e9d7e0a45c6&#45;&gt;dir_68267d1309a1af8e8297ef4c3efbcdba -->
<g id="edge22" class="edge"><title>dir_0538a82dae0483a21d0f1e9d7e0a45c6&#45;&gt;dir_68267d1309a1af8e8297ef4c3efbcdba</title>
<path fill="none" stroke="black" d="M289.304,-359.65C299.113,-350.242 309.777,-337.738 315.169,-324 322.873,-304.368 322.932,-280.379 321.308,-262.255"/>
<polygon fill="black" stroke="black" points="324.759,-261.628 320.167,-252.08 317.803,-262.407 324.759,-261.628"/>
<g id="a_edge22&#45;headlabel"><a xlink:href="dir_000219_000003.xhtml" target="_top" xlink:title="9">
<text text-anchor="middle" x="327.981" y="-262.383" font-family="Helvetica,sans-Serif" font-size="10.00">9</text>
</a>
</g>
</g>
<!-- dir_cbdb8362360e11eafe2fa3bc74cf0ffd -->
<g id="node5" class="node"><title>dir_cbdb8362360e11eafe2fa3bc74cf0ffd</title>
<g id="a_node5"><a xlink:href="dir_cbdb8362360e11eafe2fa3bc74cf0ffd.xhtml" target="_top" xlink:title="utils">
<polygon fill="white" stroke="red" points="192.169,-180 138.169,-180 138.169,-144 192.169,-144 192.169,-180"/>
<text text-anchor="middle" x="165.169" y="-159.5" font-family="Helvetica,sans-Serif" font-size="10.00">utils</text>
</a>
</g>
</g>
<!-- dir_0538a82dae0483a21d0f1e9d7e0a45c6&#45;&gt;dir_cbdb8362360e11eafe2fa3bc74cf0ffd -->
<g id="edge23" class="edge"><title>dir_0538a82dae0483a21d0f1e9d7e0a45c6&#45;&gt;dir_cbdb8362360e11eafe2fa3bc74cf0ffd</title>
<path fill="none" stroke="black" d="M259.914,-359.849C241.946,-322.519 199.195,-233.695 177.807,-189.259"/>
<polygon fill="black" stroke="black" points="180.954,-187.725 173.463,-180.232 174.646,-190.761 180.954,-187.725"/>
<g id="a_edge23&#45;headlabel"><a xlink:href="dir_000219_000035.xhtml" target="_top" xlink:title="3">
<text text-anchor="middle" x="185.071" y="-187.233" font-family="Helvetica,sans-Serif" font-size="10.00">3</text>
</a>
</g>
</g>
<!-- dir_445738e6fed662d0b65e690e3f1e1de0 -->
<g id="node6" class="node"><title>dir_445738e6fed662d0b65e690e3f1e1de0</title>
<g id="a_node6"><a xlink:href="dir_445738e6fed662d0b65e690e3f1e1de0.xhtml" target="_top" xlink:title="NEON">
<polygon fill="none" stroke="black" points="306.169,-324 252.169,-324 252.169,-288 306.169,-288 306.169,-324"/>
<text text-anchor="middle" x="279.169" y="-303.5" font-family="Helvetica,sans-Serif" font-size="10.00">NEON</text>
</a>
</g>
</g>
<!-- dir_0538a82dae0483a21d0f1e9d7e0a45c6&#45;&gt;dir_445738e6fed662d0b65e690e3f1e1de0 -->
<g id="edge24" class="edge"><title>dir_0538a82dae0483a21d0f1e9d7e0a45c6&#45;&gt;dir_445738e6fed662d0b65e690e3f1e1de0</title>
<path fill="none" stroke="black" d="M270.888,-359.697C272.1,-351.983 273.557,-342.712 274.908,-334.112"/>
<polygon fill="black" stroke="black" points="278.386,-334.526 276.481,-324.104 271.471,-333.44 278.386,-334.526"/>
<g id="a_edge24&#45;headlabel"><a xlink:href="dir_000219_000252.xhtml" target="_top" xlink:title="106">
<text text-anchor="middle" x="280.633" y="-336.018" font-family="Helvetica,sans-Serif" font-size="10.00">106</text>
</a>
</g>
</g>
<!-- dir_9e71e2da941d3cafc4d98a9f6ae3de4f -->
<g id="node7" class="node"><title>dir_9e71e2da941d3cafc4d98a9f6ae3de4f</title>
<g id="a_node7"><a xlink:href="dir_9e71e2da941d3cafc4d98a9f6ae3de4f.xhtml" target="_top" xlink:title="framework">
<polygon fill="white" stroke="red" points="81.6687,-252 14.6687,-252 14.6687,-216 81.6687,-216 81.6687,-252"/>
<text text-anchor="middle" x="48.1687" y="-231.5" font-family="Helvetica,sans-Serif" font-size="10.00">framework</text>
</a>
</g>
</g>
<!-- dir_0538a82dae0483a21d0f1e9d7e0a45c6&#45;&gt;dir_9e71e2da941d3cafc4d98a9f6ae3de4f -->
<g id="edge25" class="edge"><title>dir_0538a82dae0483a21d0f1e9d7e0a45c6&#45;&gt;dir_9e71e2da941d3cafc4d98a9f6ae3de4f</title>
<path fill="none" stroke="black" d="M253.605,-359.882C247.586,-353.902 240.148,-347.752 232.169,-344 173.297,-316.32 139.059,-363.237 87.1687,-324 67.5746,-309.184 57.6528,-282.427 52.7396,-262.107"/>
<polygon fill="black" stroke="black" points="56.126,-261.206 50.6021,-252.165 49.2824,-262.678 56.126,-261.206"/>
<g id="a_edge25&#45;headlabel"><a xlink:href="dir_000219_000033.xhtml" target="_top" xlink:title="283">
<text text-anchor="middle" x="59.6573" y="-261.624" font-family="Helvetica,sans-Serif" font-size="10.00">283</text>
</a>
</g>
</g>
<!-- dir_214608ef36d61442cb2b0c1c4e9a7def -->
<g id="node8" class="node"><title>dir_214608ef36d61442cb2b0c1c4e9a7def</title>
<g id="a_node8"><a xlink:href="dir_214608ef36d61442cb2b0c1c4e9a7def.xhtml" target="_top" xlink:title="arm_compute">
<polygon fill="white" stroke="red" points="262.169,-108 178.169,-108 178.169,-72 262.169,-72 262.169,-108"/>
<text text-anchor="middle" x="220.169" y="-87.5" font-family="Helvetica,sans-Serif" font-size="10.00">arm_compute</text>
</a>
</g>
</g>
<!-- dir_0538a82dae0483a21d0f1e9d7e0a45c6&#45;&gt;dir_214608ef36d61442cb2b0c1c4e9a7def -->
<g id="edge26" class="edge"><title>dir_0538a82dae0483a21d0f1e9d7e0a45c6&#45;&gt;dir_214608ef36d61442cb2b0c1c4e9a7def</title>
<path fill="none" stroke="black" d="M295.291,-360.632C308.482,-351.395 323.531,-338.748 333.169,-324 359.874,-283.136 368.188,-262.448 353.169,-216 338.357,-170.194 294.285,-134.732 260.898,-113.469"/>
<polygon fill="black" stroke="black" points="262.578,-110.393 252.232,-108.112 258.897,-116.347 262.578,-110.393"/>
<g id="a_edge26&#45;headlabel"><a xlink:href="dir_000219_000000.xhtml" target="_top" xlink:title="392">
<text text-anchor="middle" x="267.129" y="-107.368" font-family="Helvetica,sans-Serif" font-size="10.00">392</text>
</a>
</g>
</g>
<!-- dir_5815af820a9cc9481f1d0990a0d60286 -->
<g id="node9" class="node"><title>dir_5815af820a9cc9481f1d0990a0d60286</title>
<g id="a_node9"><a xlink:href="dir_5815af820a9cc9481f1d0990a0d60286.xhtml" target="_top" xlink:title="support">
<polygon fill="none" stroke="black" points="247.169,-36 193.169,-36 193.169,-0 247.169,-0 247.169,-36"/>
<text text-anchor="middle" x="220.169" y="-15.5" font-family="Helvetica,sans-Serif" font-size="10.00">support</text>
</a>
</g>
</g>
<!-- dir_0538a82dae0483a21d0f1e9d7e0a45c6&#45;&gt;dir_5815af820a9cc9481f1d0990a0d60286 -->
<g id="edge27" class="edge"><title>dir_0538a82dae0483a21d0f1e9d7e0a45c6&#45;&gt;dir_5815af820a9cc9481f1d0990a0d60286</title>
<path fill="none" stroke="black" d="M295.288,-365.547C337.51,-345.684 414.169,-300.59 414.169,-235 414.169,-235 414.169,-235 414.169,-161 414.169,-84.1816 313.899,-44.4234 257.533,-28.1422"/>
<polygon fill="black" stroke="black" points="258.125,-24.6742 247.553,-25.3717 256.252,-31.4191 258.125,-24.6742"/>
<g id="a_edge27&#45;headlabel"><a xlink:href="dir_000219_000027.xhtml" target="_top" xlink:title="1">
<text text-anchor="middle" x="262.348" y="-20.3999" font-family="Helvetica,sans-Serif" font-size="10.00">1</text>
</a>
</g>
</g>
<!-- dir_6fc87decd8cffc07e5f49c197ca3de10 -->
<g id="node2" class="node"><title>dir_6fc87decd8cffc07e5f49c197ca3de10</title>
<g id="a_node2"><a xlink:href="dir_6fc87decd8cffc07e5f49c197ca3de10.xhtml" target="_top" xlink:title="UNIT">
<polygon fill="white" stroke="black" points="223.169,-396 169.169,-396 169.169,-360 223.169,-360 223.169,-396"/>
<text text-anchor="middle" x="196.169" y="-375.5" font-family="Helvetica,sans-Serif" font-size="10.00">UNIT</text>
</a>
</g>
</g>
<!-- dir_46fdb196cebdbffe77dac340cde62f29 -->
<g id="node3" class="node"><title>dir_46fdb196cebdbffe77dac340cde62f29</title>
<g id="a_node3"><a xlink:href="dir_46fdb196cebdbffe77dac340cde62f29.xhtml" target="_top" xlink:title="reference">
<polygon fill="none" stroke="black" points="158.169,-324 96.1687,-324 96.1687,-288 158.169,-288 158.169,-324"/>
<text text-anchor="middle" x="127.169" y="-303.5" font-family="Helvetica,sans-Serif" font-size="10.00">reference</text>
</a>
</g>
</g>
<!-- dir_6fc87decd8cffc07e5f49c197ca3de10&#45;&gt;dir_46fdb196cebdbffe77dac340cde62f29 -->
<g id="edge9" class="edge"><title>dir_6fc87decd8cffc07e5f49c197ca3de10&#45;&gt;dir_46fdb196cebdbffe77dac340cde62f29</title>
<path fill="none" stroke="black" d="M179.113,-359.697C170.673,-351.135 160.344,-340.656 151.126,-331.304"/>
<polygon fill="black" stroke="black" points="153.541,-328.769 144.029,-324.104 148.556,-333.683 153.541,-328.769"/>
<g id="a_edge9&#45;headlabel"><a xlink:href="dir_000245_000034.xhtml" target="_top" xlink:title="2">
<text text-anchor="middle" x="158.087" y="-326.836" font-family="Helvetica,sans-Serif" font-size="10.00">2</text>
</a>
</g>
</g>
<!-- dir_6fc87decd8cffc07e5f49c197ca3de10&#45;&gt;dir_445738e6fed662d0b65e690e3f1e1de0 -->
<g id="edge10" class="edge"><title>dir_6fc87decd8cffc07e5f49c197ca3de10&#45;&gt;dir_445738e6fed662d0b65e690e3f1e1de0</title>
<path fill="none" stroke="black" d="M214.244,-359.942C219.904,-354.734 226.225,-349.051 232.169,-344 237.379,-339.572 243.018,-334.974 248.521,-330.587"/>
<polygon fill="black" stroke="black" points="250.738,-333.296 256.42,-324.353 246.402,-327.8 250.738,-333.296"/>
<g id="a_edge10&#45;headlabel"><a xlink:href="dir_000245_000252.xhtml" target="_top" xlink:title="3">
<text text-anchor="middle" x="249.675" y="-335.251" font-family="Helvetica,sans-Serif" font-size="10.00">3</text>
</a>
</g>
</g>
<!-- dir_6fc87decd8cffc07e5f49c197ca3de10&#45;&gt;dir_9e71e2da941d3cafc4d98a9f6ae3de4f -->
<g id="edge11" class="edge"><title>dir_6fc87decd8cffc07e5f49c197ca3de10&#45;&gt;dir_9e71e2da941d3cafc4d98a9f6ae3de4f</title>
<path fill="none" stroke="black" d="M169.072,-375.348C136.018,-371.741 81.2139,-360.291 54.1687,-324 41.1294,-306.503 40.6264,-281.304 42.8097,-262.183"/>
<polygon fill="black" stroke="black" points="46.2757,-262.669 44.2365,-252.272 39.3471,-261.671 46.2757,-262.669"/>
<g id="a_edge11&#45;headlabel"><a xlink:href="dir_000245_000033.xhtml" target="_top" xlink:title="9">
<text text-anchor="middle" x="48.5739" y="-264.131" font-family="Helvetica,sans-Serif" font-size="10.00">9</text>
</a>
</g>
</g>
<!-- dir_6fc87decd8cffc07e5f49c197ca3de10&#45;&gt;dir_214608ef36d61442cb2b0c1c4e9a7def -->
<g id="edge12" class="edge"><title>dir_6fc87decd8cffc07e5f49c197ca3de10&#45;&gt;dir_214608ef36d61442cb2b0c1c4e9a7def</title>
<path fill="none" stroke="black" d="M197.598,-359.966C201.599,-312.291 212.936,-177.185 217.85,-118.63"/>
<polygon fill="black" stroke="black" points="221.368,-118.564 218.716,-108.306 214.392,-117.979 221.368,-118.564"/>
<g id="a_edge12&#45;headlabel"><a xlink:href="dir_000245_000000.xhtml" target="_top" xlink:title="23">
<text text-anchor="middle" x="223.897" y="-119.884" font-family="Helvetica,sans-Serif" font-size="10.00">23</text>
</a>
</g>
</g>
<!-- dir_46fdb196cebdbffe77dac340cde62f29&#45;&gt;dir_68267d1309a1af8e8297ef4c3efbcdba -->
<g id="edge1" class="edge"><title>dir_46fdb196cebdbffe77dac340cde62f29&#45;&gt;dir_68267d1309a1af8e8297ef4c3efbcdba</title>
<path fill="none" stroke="black" d="M158.543,-293.441C192.071,-281.089 245.166,-261.527 280.573,-248.483"/>
<polygon fill="black" stroke="black" points="281.887,-251.729 290.06,-244.987 279.467,-245.16 281.887,-251.729"/>
<g id="a_edge1&#45;headlabel"><a xlink:href="dir_000034_000003.xhtml" target="_top" xlink:title="2">
<text text-anchor="middle" x="279.495" y="-253.136" font-family="Helvetica,sans-Serif" font-size="10.00">2</text>
</a>
</g>
</g>
<!-- dir_46fdb196cebdbffe77dac340cde62f29&#45;&gt;dir_cbdb8362360e11eafe2fa3bc74cf0ffd -->
<g id="edge2" class="edge"><title>dir_46fdb196cebdbffe77dac340cde62f29&#45;&gt;dir_cbdb8362360e11eafe2fa3bc74cf0ffd</title>
<path fill="none" stroke="black" d="M131.752,-287.871C138.257,-263.564 150.231,-218.819 157.94,-190.013"/>
<polygon fill="black" stroke="black" points="161.365,-190.754 160.569,-180.189 154.603,-188.945 161.365,-190.754"/>
<g id="a_edge2&#45;headlabel"><a xlink:href="dir_000034_000035.xhtml" target="_top" xlink:title="1">
<text text-anchor="middle" x="163.178" y="-192.461" font-family="Helvetica,sans-Serif" font-size="10.00">1</text>
</a>
</g>
</g>
<!-- dir_46fdb196cebdbffe77dac340cde62f29&#45;&gt;dir_9e71e2da941d3cafc4d98a9f6ae3de4f -->
<g id="edge3" class="edge"><title>dir_46fdb196cebdbffe77dac340cde62f29&#45;&gt;dir_9e71e2da941d3cafc4d98a9f6ae3de4f</title>
<path fill="none" stroke="black" d="M107.641,-287.697C97.7869,-278.965 85.683,-268.24 74.9726,-258.75"/>
<polygon fill="black" stroke="black" points="77.2779,-256.117 67.4722,-252.104 72.6356,-261.356 77.2779,-256.117"/>
<g id="a_edge3&#45;headlabel"><a xlink:href="dir_000034_000033.xhtml" target="_top" xlink:title="2">
<text text-anchor="middle" x="81.8513" y="-253.875" font-family="Helvetica,sans-Serif" font-size="10.00">2</text>
</a>
</g>
</g>
<!-- dir_46fdb196cebdbffe77dac340cde62f29&#45;&gt;dir_214608ef36d61442cb2b0c1c4e9a7def -->
<g id="edge4" class="edge"><title>dir_46fdb196cebdbffe77dac340cde62f29&#45;&gt;dir_214608ef36d61442cb2b0c1c4e9a7def</title>
<path fill="none" stroke="black" d="M122.164,-287.563C114.272,-256.343 102.415,-189.881 129.169,-144 138.099,-128.685 153.321,-117.368 168.786,-109.217"/>
<polygon fill="black" stroke="black" points="170.425,-112.312 177.874,-104.778 167.353,-106.022 170.425,-112.312"/>
<g id="a_edge4&#45;headlabel"><a xlink:href="dir_000034_000000.xhtml" target="_top" xlink:title="73">
<text text-anchor="middle" x="168.441" y="-113.941" font-family="Helvetica,sans-Serif" font-size="10.00">73</text>
</a>
</g>
</g>
<!-- dir_46fdb196cebdbffe77dac340cde62f29&#45;&gt;dir_5815af820a9cc9481f1d0990a0d60286 -->
<g id="edge5" class="edge"><title>dir_46fdb196cebdbffe77dac340cde62f29&#45;&gt;dir_5815af820a9cc9481f1d0990a0d60286</title>
<path fill="none" stroke="black" d="M96.0187,-301.059C66.9615,-295.548 25.1791,-282.51 5.16874,-252 -3.60612,-238.621 0.913575,-231.424 5.16874,-216 24.9938,-144.14 34.6914,-120.654 91.1687,-72 117.717,-49.1287 155.477,-35.1783 183.287,-27.3719"/>
<polygon fill="black" stroke="black" points="184.284,-30.7285 193.044,-24.7687 182.479,-23.9651 184.284,-30.7285"/>
<g id="a_edge5&#45;headlabel"><a xlink:href="dir_000034_000027.xhtml" target="_top" xlink:title="6">
<text text-anchor="middle" x="181.543" y="-31.8984" font-family="Helvetica,sans-Serif" font-size="10.00">6</text>
</a>
</g>
</g>
<!-- dir_68267d1309a1af8e8297ef4c3efbcdba&#45;&gt;dir_cbdb8362360e11eafe2fa3bc74cf0ffd -->
<g id="edge6" class="edge"><title>dir_68267d1309a1af8e8297ef4c3efbcdba&#45;&gt;dir_cbdb8362360e11eafe2fa3bc74cf0ffd</title>
<path fill="none" stroke="black" d="M289.994,-220.485C265.322,-209.123 228.744,-192.278 201.555,-179.757"/>
<polygon fill="black" stroke="black" points="202.911,-176.528 192.364,-175.524 199.983,-182.886 202.911,-176.528"/>
<g id="a_edge6&#45;headlabel"><a xlink:href="dir_000003_000035.xhtml" target="_top" xlink:title="3">
<text text-anchor="middle" x="207.364" y="-172.953" font-family="Helvetica,sans-Serif" font-size="10.00">3</text>
</a>
</g>
</g>
<!-- dir_68267d1309a1af8e8297ef4c3efbcdba&#45;&gt;dir_214608ef36d61442cb2b0c1c4e9a7def -->
<g id="edge7" class="edge"><title>dir_68267d1309a1af8e8297ef4c3efbcdba&#45;&gt;dir_214608ef36d61442cb2b0c1c4e9a7def</title>
<path fill="none" stroke="black" d="M311.512,-215.903C304.834,-197.187 292.531,-166.808 276.169,-144 268.671,-133.548 258.911,-123.475 249.645,-114.969"/>
<polygon fill="black" stroke="black" points="251.84,-112.238 242.037,-108.219 247.194,-117.474 251.84,-112.238"/>
<g id="a_edge7&#45;headlabel"><a xlink:href="dir_000003_000000.xhtml" target="_top" xlink:title="2795">
<text text-anchor="middle" x="256.413" y="-110" font-family="Helvetica,sans-Serif" font-size="10.00">2795</text>
</a>
</g>
</g>
<!-- dir_68267d1309a1af8e8297ef4c3efbcdba&#45;&gt;dir_5815af820a9cc9481f1d0990a0d60286 -->
<g id="edge8" class="edge"><title>dir_68267d1309a1af8e8297ef4c3efbcdba&#45;&gt;dir_5815af820a9cc9481f1d0990a0d60286</title>
<path fill="none" stroke="black" d="M315.613,-215.624C312.126,-184.5 301.46,-118.186 271.169,-72 264.452,-61.7592 255.61,-51.753 247.178,-43.2428"/>
<polygon fill="black" stroke="black" points="249.54,-40.6573 239.937,-36.181 244.653,-45.6687 249.54,-40.6573"/>
<g id="a_edge8&#45;headlabel"><a xlink:href="dir_000003_000027.xhtml" target="_top" xlink:title="178">
<text text-anchor="middle" x="254.096" y="-38.6344" font-family="Helvetica,sans-Serif" font-size="10.00">178</text>
</a>
</g>
</g>
<!-- dir_cbdb8362360e11eafe2fa3bc74cf0ffd&#45;&gt;dir_214608ef36d61442cb2b0c1c4e9a7def -->
<g id="edge13" class="edge"><title>dir_cbdb8362360e11eafe2fa3bc74cf0ffd&#45;&gt;dir_214608ef36d61442cb2b0c1c4e9a7def</title>
<path fill="none" stroke="black" d="M172.849,-143.697C178.577,-135.305 186.426,-125.07 194.143,-115.861"/>
<polygon fill="black" stroke="black" points="196.953,-117.962 200.835,-108.104 191.652,-113.39 196.953,-117.962"/>
<g id="a_edge13&#45;headlabel"><a xlink:href="dir_000035_000000.xhtml" target="_top" xlink:title="38">
<text text-anchor="middle" x="196.755" y="-120.039" font-family="Helvetica,sans-Serif" font-size="10.00">38</text>
</a>
</g>
</g>
<!-- dir_cbdb8362360e11eafe2fa3bc74cf0ffd&#45;&gt;dir_5815af820a9cc9481f1d0990a0d60286 -->
<g id="edge14" class="edge"><title>dir_cbdb8362360e11eafe2fa3bc74cf0ffd&#45;&gt;dir_5815af820a9cc9481f1d0990a0d60286</title>
<path fill="none" stroke="black" d="M162.47,-143.809C160.334,-125.279 159.161,-95.3084 169.169,-72 173.797,-61.2196 181.672,-51.3507 189.867,-43.1275"/>
<polygon fill="black" stroke="black" points="192.503,-45.4545 197.4,-36.0594 187.713,-40.35 192.503,-45.4545"/>
<g id="a_edge14&#45;headlabel"><a xlink:href="dir_000035_000027.xhtml" target="_top" xlink:title="3">
<text text-anchor="middle" x="191.824" y="-47.4847" font-family="Helvetica,sans-Serif" font-size="10.00">3</text>
</a>
</g>
</g>
<!-- dir_445738e6fed662d0b65e690e3f1e1de0&#45;&gt;dir_68267d1309a1af8e8297ef4c3efbcdba -->
<g id="edge15" class="edge"><title>dir_445738e6fed662d0b65e690e3f1e1de0&#45;&gt;dir_68267d1309a1af8e8297ef4c3efbcdba</title>
<path fill="none" stroke="black" d="M288.562,-287.697C292.934,-279.644 298.226,-269.894 303.064,-260.982"/>
<polygon fill="black" stroke="black" points="306.189,-262.563 307.884,-252.104 300.037,-259.223 306.189,-262.563"/>
<g id="a_edge15&#45;headlabel"><a xlink:href="dir_000252_000003.xhtml" target="_top" xlink:title="2">
<text text-anchor="middle" x="306.969" y="-264.576" font-family="Helvetica,sans-Serif" font-size="10.00">2</text>
</a>
</g>
</g>
<!-- dir_445738e6fed662d0b65e690e3f1e1de0&#45;&gt;dir_214608ef36d61442cb2b0c1c4e9a7def -->
<g id="edge16" class="edge"><title>dir_445738e6fed662d0b65e690e3f1e1de0&#45;&gt;dir_214608ef36d61442cb2b0c1c4e9a7def</title>
<path fill="none" stroke="black" d="M274.44,-287.849C264.213,-250.753 239.967,-162.81 227.641,-118.103"/>
<polygon fill="black" stroke="black" points="230.952,-116.943 224.92,-108.232 224.204,-118.803 230.952,-116.943"/>
<g id="a_edge16&#45;headlabel"><a xlink:href="dir_000252_000000.xhtml" target="_top" xlink:title="6">
<text text-anchor="middle" x="234.644" y="-117.153" font-family="Helvetica,sans-Serif" font-size="10.00">6</text>
</a>
</g>
</g>
<!-- dir_9e71e2da941d3cafc4d98a9f6ae3de4f&#45;&gt;dir_cbdb8362360e11eafe2fa3bc74cf0ffd -->
<g id="edge17" class="edge"><title>dir_9e71e2da941d3cafc4d98a9f6ae3de4f&#45;&gt;dir_cbdb8362360e11eafe2fa3bc74cf0ffd</title>
<path fill="none" stroke="black" d="M76.7902,-215.876C92.5446,-206.45 112.251,-194.66 129.055,-184.606"/>
<polygon fill="black" stroke="black" points="131.264,-187.363 138.049,-179.226 127.67,-181.356 131.264,-187.363"/>
<g id="a_edge17&#45;headlabel"><a xlink:href="dir_000033_000035.xhtml" target="_top" xlink:title="3">
<text text-anchor="middle" x="129.637" y="-189.145" font-family="Helvetica,sans-Serif" font-size="10.00">3</text>
</a>
</g>
</g>
<!-- dir_9e71e2da941d3cafc4d98a9f6ae3de4f&#45;&gt;dir_214608ef36d61442cb2b0c1c4e9a7def -->
<g id="edge18" class="edge"><title>dir_9e71e2da941d3cafc4d98a9f6ae3de4f&#45;&gt;dir_214608ef36d61442cb2b0c1c4e9a7def</title>
<path fill="none" stroke="black" d="M53.5646,-215.73C60.5241,-196.002 74.3901,-163.888 96.1687,-144 116.453,-125.476 144.193,-112.799 168.292,-104.5"/>
<polygon fill="black" stroke="black" points="169.602,-107.754 178.016,-101.315 167.424,-101.101 169.602,-107.754"/>
<g id="a_edge18&#45;headlabel"><a xlink:href="dir_000033_000000.xhtml" target="_top" xlink:title="15">
<text text-anchor="middle" x="167.07" y="-109.071" font-family="Helvetica,sans-Serif" font-size="10.00">15</text>
</a>
</g>
</g>
<!-- dir_9e71e2da941d3cafc4d98a9f6ae3de4f&#45;&gt;dir_5815af820a9cc9481f1d0990a0d60286 -->
<g id="edge19" class="edge"><title>dir_9e71e2da941d3cafc4d98a9f6ae3de4f&#45;&gt;dir_5815af820a9cc9481f1d0990a0d60286</title>
<path fill="none" stroke="black" d="M48.2697,-215.693C49.1162,-196.793 52.7006,-166.253 66.1687,-144 94.9335,-96.4736 148.603,-59.2062 184.364,-38.1421"/>
<polygon fill="black" stroke="black" points="186.128,-41.1654 193.044,-33.1396 182.632,-35.1006 186.128,-41.1654"/>
<g id="a_edge19&#45;headlabel"><a xlink:href="dir_000033_000027.xhtml" target="_top" xlink:title="6">
<text text-anchor="middle" x="184.431" y="-42.9203" font-family="Helvetica,sans-Serif" font-size="10.00">6</text>
</a>
</g>
</g>
<!-- dir_214608ef36d61442cb2b0c1c4e9a7def&#45;&gt;dir_cbdb8362360e11eafe2fa3bc74cf0ffd -->
<g id="edge20" class="edge"><title>dir_214608ef36d61442cb2b0c1c4e9a7def&#45;&gt;dir_cbdb8362360e11eafe2fa3bc74cf0ffd</title>
<path fill="none" stroke="black" d="M212.625,-108.104C206.93,-116.467 199.097,-126.694 191.378,-135.92"/>
<polygon fill="black" stroke="black" points="188.554,-133.835 184.68,-143.697 193.858,-138.403 188.554,-133.835"/>
<g id="a_edge20&#45;headlabel"><a xlink:href="dir_000000_000035.xhtml" target="_top" xlink:title="1">
<text text-anchor="middle" x="188.748" y="-126.759" font-family="Helvetica,sans-Serif" font-size="10.00">1</text>
</a>
</g>
</g>
<!-- dir_214608ef36d61442cb2b0c1c4e9a7def&#45;&gt;dir_5815af820a9cc9481f1d0990a0d60286 -->
<g id="edge21" class="edge"><title>dir_214608ef36d61442cb2b0c1c4e9a7def&#45;&gt;dir_5815af820a9cc9481f1d0990a0d60286</title>
<path fill="none" stroke="black" d="M214.253,-71.6966C213.457,-63.9827 213.231,-54.7125 213.573,-46.1124"/>
<polygon fill="black" stroke="black" points="217.067,-46.3243 214.274,-36.1043 210.084,-45.8356 217.067,-46.3243"/>
<g id="a_edge21&#45;headlabel"><a xlink:href="dir_000000_000027.xhtml" target="_top" xlink:title="17">
<text text-anchor="middle" x="219.649" y="-47.6083" font-family="Helvetica,sans-Serif" font-size="10.00">17</text>
</a>
</g>
</g>
<!-- dir_5815af820a9cc9481f1d0990a0d60286&#45;&gt;dir_214608ef36d61442cb2b0c1c4e9a7def -->
<g id="edge28" class="edge"><title>dir_5815af820a9cc9481f1d0990a0d60286&#45;&gt;dir_214608ef36d61442cb2b0c1c4e9a7def</title>
<path fill="none" stroke="black" d="M226.064,-36.1043C226.869,-43.7913 227.106,-53.0537 226.773,-61.6651"/>
<polygon fill="black" stroke="black" points="223.277,-61.4805 226.084,-71.6966 230.261,-61.9597 223.277,-61.4805"/>
<g id="a_edge28&#45;headlabel"><a xlink:href="dir_000027_000000.xhtml" target="_top" xlink:title="6">
<text text-anchor="middle" x="220.691" y="-55.2" font-family="Helvetica,sans-Serif" font-size="10.00">6</text>
</a>
</g>
</g>
</g>
</svg>
