<?xml version="1.0" encoding="UTF-8" standalone="no"?>
<!DOCTYPE svg PUBLIC "-//W3C//DTD SVG 1.1//EN"
 "http://www.w3.org/Graphics/SVG/1.1/DTD/svg11.dtd">
<!-- Generated by graphviz version 2.38.0 (20140413.2041)
 -->
<!-- Title: src/runtime/gpu/cl/operators Pages: 1 -->
<svg width="152pt" height="295pt"
 viewBox="0.00 0.00 152.00 295.00" xmlns="http://www.w3.org/2000/svg" xmlns:xlink="http://www.w3.org/1999/xlink">
<g id="graph0" class="graph" transform="scale(1 1) rotate(0) translate(4 291)">
<title>src/runtime/gpu/cl/operators</title>
<polygon fill="white" stroke="none" points="-4,4 -4,-291 148,-291 148,4 -4,4"/>
<g id="clust1" class="cluster"><title>clusterdir_eede2c573d1350b973c6197eaed0c42e</title>
<g id="a_clust1"><a xlink:href="dir_eede2c573d1350b973c6197eaed0c42e.xhtml" target="_top" xlink:title="cl">
<polygon fill="#ddddee" stroke="black" points="56,-208 56,-279 136,-279 136,-208 56,-208"/>
<text text-anchor="middle" x="96" y="-267" font-family="Helvetica,sans-Serif" font-size="10.00">cl</text>
</a>
</g>
</g>
<!-- dir_c0aa34dfad790829f5103bec913d2ddb -->
<g id="node1" class="node"><title>dir_c0aa34dfad790829f5103bec913d2ddb</title>
<g id="a_node1"><a xlink:href="dir_c0aa34dfad790829f5103bec913d2ddb.xhtml" target="_top" xlink:title="operators">
<polygon fill="#eeeeff" stroke="black" points="127.5,-252 64.5,-252 64.5,-216 127.5,-216 127.5,-252"/>
<text text-anchor="middle" x="96" y="-231.5" font-family="Helvetica,sans-Serif" font-size="10.00">operators</text>
</a>
</g>
</g>
<!-- dir_214608ef36d61442cb2b0c1c4e9a7def -->
<g id="node2" class="node"><title>dir_214608ef36d61442cb2b0c1c4e9a7def</title>
<g id="a_node2"><a xlink:href="dir_214608ef36d61442cb2b0c1c4e9a7def.xhtml" target="_top" xlink:title="arm_compute">
<polygon fill="white" stroke="red" points="84,-108 7.10543e-15,-108 7.10543e-15,-72 84,-72 84,-108"/>
<text text-anchor="middle" x="42" y="-87.5" font-family="Helvetica,sans-Serif" font-size="10.00">arm_compute</text>
</a>
</g>
</g>
<!-- dir_c0aa34dfad790829f5103bec913d2ddb&#45;&gt;dir_214608ef36d61442cb2b0c1c4e9a7def -->
<g id="edge2" class="edge"><title>dir_c0aa34dfad790829f5103bec913d2ddb&#45;&gt;dir_214608ef36d61442cb2b0c1c4e9a7def</title>
<path fill="none" stroke="black" d="M81.7816,-215.874C74.2393,-205.96 65.4334,-192.919 60,-180 51.7117,-160.292 47.1533,-136.487 44.6991,-118.457"/>
<polygon fill="black" stroke="black" points="48.1478,-117.825 43.4566,-108.325 41.1999,-118.677 48.1478,-117.825"/>
<g id="a_edge2&#45;headlabel"><a xlink:href="dir_000056_000000.xhtml" target="_top" xlink:title="22">
<text text-anchor="middle" x="51.4034" y="-118.547" font-family="Helvetica,sans-Serif" font-size="10.00">22</text>
</a>
</g>
</g>
<!-- dir_aebb8dcc11953d78e620bbef0b9e2183 -->
<g id="node3" class="node"><title>dir_aebb8dcc11953d78e620bbef0b9e2183</title>
<g id="a_node3"><a xlink:href="dir_aebb8dcc11953d78e620bbef0b9e2183.xhtml" target="_top" xlink:title="core">
<polygon fill="white" stroke="red" points="123,-180 69,-180 69,-144 123,-144 123,-180"/>
<text text-anchor="middle" x="96" y="-159.5" font-family="Helvetica,sans-Serif" font-size="10.00">core</text>
</a>
</g>
</g>
<!-- dir_c0aa34dfad790829f5103bec913d2ddb&#45;&gt;dir_aebb8dcc11953d78e620bbef0b9e2183 -->
<g id="edge3" class="edge"><title>dir_c0aa34dfad790829f5103bec913d2ddb&#45;&gt;dir_aebb8dcc11953d78e620bbef0b9e2183</title>
<path fill="none" stroke="black" d="M96,-215.697C96,-207.983 96,-198.712 96,-190.112"/>
<polygon fill="black" stroke="black" points="99.5001,-190.104 96,-180.104 92.5001,-190.104 99.5001,-190.104"/>
<g id="a_edge3&#45;headlabel"><a xlink:href="dir_000056_000004.xhtml" target="_top" xlink:title="78">
<text text-anchor="middle" x="102.339" y="-191.199" font-family="Helvetica,sans-Serif" font-size="10.00">78</text>
</a>
</g>
</g>
<!-- dir_5815af820a9cc9481f1d0990a0d60286 -->
<g id="node4" class="node"><title>dir_5815af820a9cc9481f1d0990a0d60286</title>
<g id="a_node4"><a xlink:href="dir_5815af820a9cc9481f1d0990a0d60286.xhtml" target="_top" xlink:title="support">
<polygon fill="none" stroke="black" points="104,-36 50,-36 50,-0 104,-0 104,-36"/>
<text text-anchor="middle" x="77" y="-15.5" font-family="Helvetica,sans-Serif" font-size="10.00">support</text>
</a>
</g>
</g>
<!-- dir_c0aa34dfad790829f5103bec913d2ddb&#45;&gt;dir_5815af820a9cc9481f1d0990a0d60286 -->
<g id="edge4" class="edge"><title>dir_c0aa34dfad790829f5103bec913d2ddb&#45;&gt;dir_5815af820a9cc9481f1d0990a0d60286</title>
<path fill="none" stroke="black" d="M111.61,-215.774C119.373,-206.03 127.946,-193.184 132,-180 136.703,-164.707 134.464,-159.809 132,-144 126.827,-110.808 122.888,-102.588 109,-72 104.823,-62.8002 99.3992,-53.2107 94.2071,-44.7581"/>
<polygon fill="black" stroke="black" points="97.0375,-42.6853 88.7342,-36.1045 91.1214,-46.4269 97.0375,-42.6853"/>
<g id="a_edge4&#45;headlabel"><a xlink:href="dir_000056_000027.xhtml" target="_top" xlink:title="1">
<text text-anchor="middle" x="101.358" y="-41.7057" font-family="Helvetica,sans-Serif" font-size="10.00">1</text>
</a>
</g>
</g>
<!-- dir_214608ef36d61442cb2b0c1c4e9a7def&#45;&gt;dir_5815af820a9cc9481f1d0990a0d60286 -->
<g id="edge1" class="edge"><title>dir_214608ef36d61442cb2b0c1c4e9a7def&#45;&gt;dir_5815af820a9cc9481f1d0990a0d60286</title>
<path fill="none" stroke="black" d="M44.736,-71.6966C47.9318,-63.6436 52.596,-53.8945 57.462,-44.9824"/>
<polygon fill="black" stroke="black" points="60.6146,-46.5204 62.5528,-36.1043 54.5421,-43.0383 60.6146,-46.5204"/>
<g id="a_edge1&#45;headlabel"><a xlink:href="dir_000000_000027.xhtml" target="_top" xlink:title="17">
<text text-anchor="middle" x="61.2897" y="-48.5511" font-family="Helvetica,sans-Serif" font-size="10.00">17</text>
</a>
</g>
</g>
<!-- dir_aebb8dcc11953d78e620bbef0b9e2183&#45;&gt;dir_214608ef36d61442cb2b0c1c4e9a7def -->
<g id="edge5" class="edge"><title>dir_aebb8dcc11953d78e620bbef0b9e2183&#45;&gt;dir_214608ef36d61442cb2b0c1c4e9a7def</title>
<path fill="none" stroke="black" d="M82.6517,-143.697C76.2432,-135.389 68.4423,-125.277 61.3943,-116.141"/>
<polygon fill="black" stroke="black" points="64.0741,-113.884 55.1948,-108.104 58.5316,-118.16 64.0741,-113.884"/>
<g id="a_edge5&#45;headlabel"><a xlink:href="dir_000004_000000.xhtml" target="_top" xlink:title="1381">
<text text-anchor="middle" x="68.5177" y="-112.496" font-family="Helvetica,sans-Serif" font-size="10.00">1381</text>
</a>
</g>
</g>
<!-- dir_aebb8dcc11953d78e620bbef0b9e2183&#45;&gt;dir_5815af820a9cc9481f1d0990a0d60286 -->
<g id="edge6" class="edge"><title>dir_aebb8dcc11953d78e620bbef0b9e2183&#45;&gt;dir_5815af820a9cc9481f1d0990a0d60286</title>
<path fill="none" stroke="black" d="M96.732,-143.809C97.1941,-125.788 97.0753,-96.7117 93,-72 91.5768,-63.3701 89.1437,-54.1785 86.5985,-45.915"/>
<polygon fill="black" stroke="black" points="89.9231,-44.8207 83.4986,-36.3959 83.2671,-46.9882 89.9231,-44.8207"/>
<g id="a_edge6&#45;headlabel"><a xlink:href="dir_000004_000027.xhtml" target="_top" xlink:title="142">
<text text-anchor="middle" x="93.7358" y="-44.8595" font-family="Helvetica,sans-Serif" font-size="10.00">142</text>
</a>
</g>
</g>
<!-- dir_5815af820a9cc9481f1d0990a0d60286&#45;&gt;dir_214608ef36d61442cb2b0c1c4e9a7def -->
<g id="edge7" class="edge"><title>dir_5815af820a9cc9481f1d0990a0d60286&#45;&gt;dir_214608ef36d61442cb2b0c1c4e9a7def</title>
<path fill="none" stroke="black" d="M74.3429,-36.1043C71.1714,-44.1291 66.521,-53.871 61.6585,-62.7967"/>
<polygon fill="black" stroke="black" points="58.4948,-61.2786 56.5674,-71.6966 64.5709,-64.7543 58.4948,-61.2786"/>
<g id="a_edge7&#45;headlabel"><a xlink:href="dir_000027_000000.xhtml" target="_top" xlink:title="6">
<text text-anchor="middle" x="57.815" y="-54.2486" font-family="Helvetica,sans-Serif" font-size="10.00">6</text>
</a>
</g>
</g>
</g>
</svg>
