<?xml version="1.0" encoding="UTF-8" standalone="no"?>
<!DOCTYPE svg PUBLIC "-//W3C//DTD SVG 1.1//EN"
 "http://www.w3.org/Graphics/SVG/1.1/DTD/svg11.dtd">
<!-- Generated by graphviz version 2.38.0 (20140413.2041)
 -->
<!-- Title: src/core Pages: 1 -->
<svg width="630pt" height="447pt"
 viewBox="0.00 0.00 630.44 447.00" xmlns="http://www.w3.org/2000/svg" xmlns:xlink="http://www.w3.org/1999/xlink">
<g id="graph0" class="graph" transform="scale(1 1) rotate(0) translate(4 443)">
<title>src/core</title>
<polygon fill="white" stroke="none" points="-4,4 -4,-443 626.443,-443 626.443,4 -4,4"/>
<g id="clust1" class="cluster"><title>clusterdir_68267d1309a1af8e8297ef4c3efbcdba</title>
<g id="a_clust1"><a xlink:href="dir_68267d1309a1af8e8297ef4c3efbcdba.xhtml" target="_top" xlink:title="src">
<polygon fill="#ddddee" stroke="black" points="204,-128 204,-431 560,-431 560,-128 204,-128"/>
<text text-anchor="middle" x="382" y="-419" font-family="Helvetica,sans-Serif" font-size="10.00">src</text>
</a>
</g>
</g>
<g id="clust2" class="cluster"><title>clusterdir_aebb8dcc11953d78e620bbef0b9e2183</title>
<g id="a_clust2"><a xlink:href="dir_aebb8dcc11953d78e620bbef0b9e2183.xhtml" target="_top">
<polygon fill="#eeeeff" stroke="black" points="212,-136 212,-404 552,-404 552,-136 212,-136"/>
</a>
</g>
</g>
<!-- dir_aebb8dcc11953d78e620bbef0b9e2183 -->
<g id="node1" class="node"><title>dir_aebb8dcc11953d78e620bbef0b9e2183</title>
<text text-anchor="middle" x="429" y="-375.5" font-family="Helvetica,sans-Serif" font-size="10.00">core</text>
</g>
<!-- dir_8c278f79c760e5c5fbd911f9870614c1 -->
<g id="node2" class="node"><title>dir_8c278f79c760e5c5fbd911f9870614c1</title>
<g id="a_node2"><a xlink:href="dir_8c278f79c760e5c5fbd911f9870614c1.xhtml" target="_top" xlink:title="CL">
<polygon fill="white" stroke="red" points="504,-252 450,-252 450,-216 504,-216 504,-252"/>
<text text-anchor="middle" x="477" y="-231.5" font-family="Helvetica,sans-Serif" font-size="10.00">CL</text>
</a>
</g>
</g>
<!-- dir_707aa52d67938117542c6646238d6f70 -->
<g id="node7" class="node"><title>dir_707aa52d67938117542c6646238d6f70</title>
<g id="a_node7"><a xlink:href="dir_707aa52d67938117542c6646238d6f70.xhtml" target="_top" xlink:title="helpers">
<polygon fill="white" stroke="black" points="359,-180 305,-180 305,-144 359,-144 359,-180"/>
<text text-anchor="middle" x="332" y="-159.5" font-family="Helvetica,sans-Serif" font-size="10.00">helpers</text>
</a>
</g>
</g>
<!-- dir_8c278f79c760e5c5fbd911f9870614c1&#45;&gt;dir_707aa52d67938117542c6646238d6f70 -->
<g id="edge1" class="edge"><title>dir_8c278f79c760e5c5fbd911f9870614c1&#45;&gt;dir_707aa52d67938117542c6646238d6f70</title>
<path fill="none" stroke="black" d="M449.727,-219.834C426.74,-208.736 393.653,-192.764 368.406,-180.575"/>
<polygon fill="black" stroke="black" points="369.678,-177.303 359.151,-176.107 366.635,-183.607 369.678,-177.303"/>
<g id="a_edge1&#45;headlabel"><a xlink:href="dir_000018_000029.xhtml" target="_top" xlink:title="130">
<text text-anchor="middle" x="374.15" y="-173.809" font-family="Helvetica,sans-Serif" font-size="10.00">130</text>
</a>
</g>
</g>
<!-- dir_a8053b3d69cfefb2b2e6ec7bf9dd5c1a -->
<g id="node9" class="node"><title>dir_a8053b3d69cfefb2b2e6ec7bf9dd5c1a</title>
<g id="a_node9"><a xlink:href="dir_a8053b3d69cfefb2b2e6ec7bf9dd5c1a.xhtml" target="_top" xlink:title="utils">
<polygon fill="white" stroke="red" points="449,-180 395,-180 395,-144 449,-144 449,-180"/>
<text text-anchor="middle" x="422" y="-159.5" font-family="Helvetica,sans-Serif" font-size="10.00">utils</text>
</a>
</g>
</g>
<!-- dir_8c278f79c760e5c5fbd911f9870614c1&#45;&gt;dir_a8053b3d69cfefb2b2e6ec7bf9dd5c1a -->
<g id="edge3" class="edge"><title>dir_8c278f79c760e5c5fbd911f9870614c1&#45;&gt;dir_a8053b3d69cfefb2b2e6ec7bf9dd5c1a</title>
<path fill="none" stroke="black" d="M463.404,-215.697C456.877,-207.389 448.932,-197.277 441.753,-188.141"/>
<polygon fill="black" stroke="black" points="444.369,-185.805 435.439,-180.104 438.865,-190.13 444.369,-185.805"/>
<g id="a_edge3&#45;headlabel"><a xlink:href="dir_000018_000114.xhtml" target="_top" xlink:title="5">
<text text-anchor="middle" x="448.823" y="-184.377" font-family="Helvetica,sans-Serif" font-size="10.00">5</text>
</a>
</g>
</g>
<!-- dir_214608ef36d61442cb2b0c1c4e9a7def -->
<g id="node10" class="node"><title>dir_214608ef36d61442cb2b0c1c4e9a7def</title>
<g id="a_node10"><a xlink:href="dir_214608ef36d61442cb2b0c1c4e9a7def.xhtml" target="_top" xlink:title="arm_compute">
<polygon fill="white" stroke="red" points="300,-108 216,-108 216,-72 300,-72 300,-108"/>
<text text-anchor="middle" x="258" y="-87.5" font-family="Helvetica,sans-Serif" font-size="10.00">arm_compute</text>
</a>
</g>
</g>
<!-- dir_8c278f79c760e5c5fbd911f9870614c1&#45;&gt;dir_214608ef36d61442cb2b0c1c4e9a7def -->
<g id="edge2" class="edge"><title>dir_8c278f79c760e5c5fbd911f9870614c1&#45;&gt;dir_214608ef36d61442cb2b0c1c4e9a7def</title>
<path fill="none" stroke="black" d="M449.758,-224.831C440.337,-222.018 429.708,-218.857 420,-216 364.948,-199.799 338.957,-218.051 296,-180 277.984,-164.041 268.232,-138.074 263.136,-118.297"/>
<polygon fill="black" stroke="black" points="266.492,-117.275 260.819,-108.327 259.674,-118.86 266.492,-117.275"/>
<g id="a_edge2&#45;headlabel"><a xlink:href="dir_000018_000000.xhtml" target="_top" xlink:title="506">
<text text-anchor="middle" x="270.071" y="-117.634" font-family="Helvetica,sans-Serif" font-size="10.00">506</text>
</a>
</g>
</g>
<!-- dir_5815af820a9cc9481f1d0990a0d60286 -->
<g id="node11" class="node"><title>dir_5815af820a9cc9481f1d0990a0d60286</title>
<g id="a_node11"><a xlink:href="dir_5815af820a9cc9481f1d0990a0d60286.xhtml" target="_top" xlink:title="support">
<polygon fill="none" stroke="black" points="449,-36 395,-36 395,-0 449,-0 449,-36"/>
<text text-anchor="middle" x="422" y="-15.5" font-family="Helvetica,sans-Serif" font-size="10.00">support</text>
</a>
</g>
</g>
<!-- dir_8c278f79c760e5c5fbd911f9870614c1&#45;&gt;dir_5815af820a9cc9481f1d0990a0d60286 -->
<g id="edge4" class="edge"><title>dir_8c278f79c760e5c5fbd911f9870614c1&#45;&gt;dir_5815af820a9cc9481f1d0990a0d60286</title>
<path fill="none" stroke="black" d="M474.636,-215.746C471.593,-194.809 465.761,-158.522 458,-128 450.75,-99.4879 439.891,-67.6139 431.995,-45.7361"/>
<polygon fill="black" stroke="black" points="435.211,-44.3394 428.493,-36.1469 428.636,-46.7407 435.211,-44.3394"/>
<g id="a_edge4&#45;headlabel"><a xlink:href="dir_000018_000027.xhtml" target="_top" xlink:title="68">
<text text-anchor="middle" x="439.111" y="-44.2419" font-family="Helvetica,sans-Serif" font-size="10.00">68</text>
</a>
</g>
</g>
<!-- dir_34b4cee2b5900b653deb3438fc906cf4 -->
<g id="node3" class="node"><title>dir_34b4cee2b5900b653deb3438fc906cf4</title>
<g id="a_node3"><a xlink:href="dir_34b4cee2b5900b653deb3438fc906cf4.xhtml" target="_top" xlink:title="common">
<polygon fill="white" stroke="black" points="411.5,-252 352.5,-252 352.5,-216 411.5,-216 411.5,-252"/>
<text text-anchor="middle" x="382" y="-231.5" font-family="Helvetica,sans-Serif" font-size="10.00">common</text>
</a>
</g>
</g>
<!-- dir_1d7cadfed01c895b25460177608d44e9 -->
<g id="node4" class="node"><title>dir_1d7cadfed01c895b25460177608d44e9</title>
<g id="a_node4"><a xlink:href="dir_1d7cadfed01c895b25460177608d44e9.xhtml" target="_top" xlink:title="CPP">
<polygon fill="white" stroke="red" points="274,-252 220,-252 220,-216 274,-216 274,-252"/>
<text text-anchor="middle" x="247" y="-231.5" font-family="Helvetica,sans-Serif" font-size="10.00">CPP</text>
</a>
</g>
</g>
<!-- dir_1d7cadfed01c895b25460177608d44e9&#45;&gt;dir_707aa52d67938117542c6646238d6f70 -->
<g id="edge32" class="edge"><title>dir_1d7cadfed01c895b25460177608d44e9&#45;&gt;dir_707aa52d67938117542c6646238d6f70</title>
<path fill="none" stroke="black" d="M268.011,-215.697C278.716,-206.881 291.89,-196.032 303.496,-186.474"/>
<polygon fill="black" stroke="black" points="305.736,-189.163 311.23,-180.104 301.286,-183.76 305.736,-189.163"/>
<g id="a_edge32&#45;headlabel"><a xlink:href="dir_000044_000029.xhtml" target="_top" xlink:title="9">
<text text-anchor="middle" x="304.766" y="-191.14" font-family="Helvetica,sans-Serif" font-size="10.00">9</text>
</a>
</g>
</g>
<!-- dir_1d7cadfed01c895b25460177608d44e9&#45;&gt;dir_214608ef36d61442cb2b0c1c4e9a7def -->
<g id="edge33" class="edge"><title>dir_1d7cadfed01c895b25460177608d44e9&#45;&gt;dir_214608ef36d61442cb2b0c1c4e9a7def</title>
<path fill="none" stroke="black" d="M248.327,-215.871C250.202,-191.67 253.646,-147.211 255.878,-118.393"/>
<polygon fill="black" stroke="black" points="259.386,-118.43 256.668,-108.189 252.406,-117.889 259.386,-118.43"/>
<g id="a_edge33&#45;headlabel"><a xlink:href="dir_000044_000000.xhtml" target="_top" xlink:title="21">
<text text-anchor="middle" x="261.939" y="-119.733" font-family="Helvetica,sans-Serif" font-size="10.00">21</text>
</a>
</g>
</g>
<!-- dir_74739ff5fdb79cbfe4bc8a8496df703a -->
<g id="node5" class="node"><title>dir_74739ff5fdb79cbfe4bc8a8496df703a</title>
<g id="a_node5"><a xlink:href="dir_74739ff5fdb79cbfe4bc8a8496df703a.xhtml" target="_top" xlink:title="cpu">
<polygon fill="white" stroke="red" points="297,-396 243,-396 243,-360 297,-360 297,-396"/>
<text text-anchor="middle" x="270" y="-375.5" font-family="Helvetica,sans-Serif" font-size="10.00">cpu</text>
</a>
</g>
</g>
<!-- dir_74739ff5fdb79cbfe4bc8a8496df703a&#45;&gt;dir_34b4cee2b5900b653deb3438fc906cf4 -->
<g id="edge6" class="edge"><title>dir_74739ff5fdb79cbfe4bc8a8496df703a&#45;&gt;dir_34b4cee2b5900b653deb3438fc906cf4</title>
<path fill="none" stroke="black" d="M297.194,-373.558C325.832,-368.323 369.549,-355.39 390,-324 401.916,-305.71 398.316,-280.638 392.657,-261.765"/>
<polygon fill="black" stroke="black" points="395.971,-260.641 389.484,-252.265 389.332,-262.859 395.971,-260.641"/>
<g id="a_edge6&#45;headlabel"><a xlink:href="dir_000082_000039.xhtml" target="_top" xlink:title="35">
<text text-anchor="middle" x="399.803" y="-260.651" font-family="Helvetica,sans-Serif" font-size="10.00">35</text>
</a>
</g>
</g>
<!-- dir_74739ff5fdb79cbfe4bc8a8496df703a&#45;&gt;dir_1d7cadfed01c895b25460177608d44e9 -->
<g id="edge11" class="edge"><title>dir_74739ff5fdb79cbfe4bc8a8496df703a&#45;&gt;dir_1d7cadfed01c895b25460177608d44e9</title>
<path fill="none" stroke="black" d="M260.046,-359.978C254.728,-349.888 248.728,-336.638 246,-324 241.605,-303.641 242.115,-280.048 243.584,-262.27"/>
<polygon fill="black" stroke="black" points="247.07,-262.582 244.558,-252.289 240.103,-261.902 247.07,-262.582"/>
<g id="a_edge11&#45;headlabel"><a xlink:href="dir_000082_000044.xhtml" target="_top" xlink:title="17">
<text text-anchor="middle" x="249.547" y="-263.935" font-family="Helvetica,sans-Serif" font-size="10.00">17</text>
</a>
</g>
</g>
<!-- dir_74739ff5fdb79cbfe4bc8a8496df703a&#45;&gt;dir_707aa52d67938117542c6646238d6f70 -->
<g id="edge7" class="edge"><title>dir_74739ff5fdb79cbfe4bc8a8496df703a&#45;&gt;dir_707aa52d67938117542c6646238d6f70</title>
<path fill="none" stroke="black" d="M297.186,-372.931C326.42,-367.137 372.287,-353.706 399,-324 421.288,-299.214 415.286,-284.998 420,-252 422.263,-236.161 427.872,-229.93 420,-216 408.966,-196.474 387.538,-183.342 368.59,-175.035"/>
<polygon fill="black" stroke="black" points="369.842,-171.765 359.26,-171.229 367.198,-178.247 369.842,-171.765"/>
<g id="a_edge7&#45;headlabel"><a xlink:href="dir_000082_000029.xhtml" target="_top" xlink:title="75">
<text text-anchor="middle" x="374.242" y="-167.994" font-family="Helvetica,sans-Serif" font-size="10.00">75</text>
</a>
</g>
</g>
<!-- dir_d91e1966cc57df4f49d1e07be7697713 -->
<g id="node8" class="node"><title>dir_d91e1966cc57df4f49d1e07be7697713</title>
<g id="a_node8"><a xlink:href="dir_d91e1966cc57df4f49d1e07be7697713.xhtml" target="_top" xlink:title="NEON">
<polygon fill="white" stroke="red" points="309,-324 255,-324 255,-288 309,-288 309,-324"/>
<text text-anchor="middle" x="282" y="-303.5" font-family="Helvetica,sans-Serif" font-size="10.00">NEON</text>
</a>
</g>
</g>
<!-- dir_74739ff5fdb79cbfe4bc8a8496df703a&#45;&gt;dir_d91e1966cc57df4f49d1e07be7697713 -->
<g id="edge9" class="edge"><title>dir_74739ff5fdb79cbfe4bc8a8496df703a&#45;&gt;dir_d91e1966cc57df4f49d1e07be7697713</title>
<path fill="none" stroke="black" d="M272.966,-359.697C274.289,-351.983 275.878,-342.712 277.352,-334.112"/>
<polygon fill="black" stroke="black" points="280.828,-334.552 279.068,-324.104 273.928,-333.369 280.828,-334.552"/>
<g id="a_edge9&#45;headlabel"><a xlink:href="dir_000082_000024.xhtml" target="_top" xlink:title="96">
<text text-anchor="middle" x="283.019" y="-336.075" font-family="Helvetica,sans-Serif" font-size="10.00">96</text>
</a>
</g>
</g>
<!-- dir_74739ff5fdb79cbfe4bc8a8496df703a&#45;&gt;dir_a8053b3d69cfefb2b2e6ec7bf9dd5c1a -->
<g id="edge10" class="edge"><title>dir_74739ff5fdb79cbfe4bc8a8496df703a&#45;&gt;dir_a8053b3d69cfefb2b2e6ec7bf9dd5c1a</title>
<path fill="none" stroke="black" d="M297.059,-373.549C352.135,-364.852 475.863,-336.34 521,-252 528.55,-237.893 529.221,-229.726 521,-216 507.562,-193.563 481.023,-180.088 458.803,-172.342"/>
<polygon fill="black" stroke="black" points="459.87,-169.009 449.278,-169.27 457.721,-175.671 459.87,-169.009"/>
<g id="a_edge10&#45;headlabel"><a xlink:href="dir_000082_000114.xhtml" target="_top" xlink:title="9">
<text text-anchor="middle" x="464.163" y="-164.911" font-family="Helvetica,sans-Serif" font-size="10.00">9</text>
</a>
</g>
</g>
<!-- dir_74739ff5fdb79cbfe4bc8a8496df703a&#45;&gt;dir_214608ef36d61442cb2b0c1c4e9a7def -->
<g id="edge8" class="edge"><title>dir_74739ff5fdb79cbfe4bc8a8496df703a&#45;&gt;dir_214608ef36d61442cb2b0c1c4e9a7def</title>
<path fill="none" stroke="black" d="M242.684,-370.881C194.177,-358.329 94.578,-324.523 57,-252 29.8121,-199.529 58.111,-163.969 105,-128 133.762,-105.937 173.794,-96.8038 205.696,-93.1251"/>
<polygon fill="black" stroke="black" points="206.145,-96.5977 215.744,-92.1129 205.443,-89.633 206.145,-96.5977"/>
<g id="a_edge8&#45;headlabel"><a xlink:href="dir_000082_000000.xhtml" target="_top" xlink:title="266">
<text text-anchor="middle" x="202.853" y="-97.2829" font-family="Helvetica,sans-Serif" font-size="10.00">266</text>
</a>
</g>
</g>
<!-- dir_74739ff5fdb79cbfe4bc8a8496df703a&#45;&gt;dir_5815af820a9cc9481f1d0990a0d60286 -->
<g id="edge12" class="edge"><title>dir_74739ff5fdb79cbfe4bc8a8496df703a&#45;&gt;dir_5815af820a9cc9481f1d0990a0d60286</title>
<path fill="none" stroke="black" d="M242.875,-375.33C174.407,-369.504 0,-343.97 0,-235 0,-235 0,-235 0,-161 0,-80.1006 282.11,-36.5636 385.011,-23.3741"/>
<polygon fill="black" stroke="black" points="385.475,-26.8434 394.96,-22.1223 384.601,-19.8981 385.475,-26.8434"/>
<g id="a_edge12&#45;headlabel"><a xlink:href="dir_000082_000027.xhtml" target="_top" xlink:title="14">
<text text-anchor="middle" x="382.263" y="-27.6091" font-family="Helvetica,sans-Serif" font-size="10.00">14</text>
</a>
</g>
</g>
<!-- dir_fdedb0aba14d44ce9d99bc100e026e6a -->
<g id="node12" class="node"><title>dir_fdedb0aba14d44ce9d99bc100e026e6a</title>
<g id="a_node12"><a xlink:href="dir_fdedb0aba14d44ce9d99bc100e026e6a.xhtml" target="_top" xlink:title="common">
<polygon fill="white" stroke="red" points="125.5,-252 66.5,-252 66.5,-216 125.5,-216 125.5,-252"/>
<text text-anchor="middle" x="96" y="-231.5" font-family="Helvetica,sans-Serif" font-size="10.00">common</text>
</a>
</g>
</g>
<!-- dir_74739ff5fdb79cbfe4bc8a8496df703a&#45;&gt;dir_fdedb0aba14d44ce9d99bc100e026e6a -->
<g id="edge13" class="edge"><title>dir_74739ff5fdb79cbfe4bc8a8496df703a&#45;&gt;dir_fdedb0aba14d44ce9d99bc100e026e6a</title>
<path fill="none" stroke="black" d="M249.012,-359.871C218.05,-334.604 160.03,-287.254 125.015,-258.679"/>
<polygon fill="black" stroke="black" points="127.023,-255.8 117.063,-252.189 122.597,-261.224 127.023,-255.8"/>
<g id="a_edge13&#45;headlabel"><a xlink:href="dir_000082_000017.xhtml" target="_top" xlink:title="1">
<text text-anchor="middle" x="131.603" y="-253.373" font-family="Helvetica,sans-Serif" font-size="10.00">1</text>
</a>
</g>
</g>
<!-- dir_3cecbd269a398d444969e15576a173f0 -->
<g id="node6" class="node"><title>dir_3cecbd269a398d444969e15576a173f0</title>
<g id="a_node6"><a xlink:href="dir_3cecbd269a398d444969e15576a173f0.xhtml" target="_top" xlink:title="gpu">
<polygon fill="white" stroke="red" points="381,-324 327,-324 327,-288 381,-288 381,-324"/>
<text text-anchor="middle" x="354" y="-303.5" font-family="Helvetica,sans-Serif" font-size="10.00">gpu</text>
</a>
</g>
</g>
<!-- dir_3cecbd269a398d444969e15576a173f0&#45;&gt;dir_8c278f79c760e5c5fbd911f9870614c1 -->
<g id="edge23" class="edge"><title>dir_3cecbd269a398d444969e15576a173f0&#45;&gt;dir_8c278f79c760e5c5fbd911f9870614c1</title>
<path fill="none" stroke="black" d="M381.298,-289.465C398.894,-279.451 421.968,-266.319 441.05,-255.459"/>
<polygon fill="black" stroke="black" points="442.819,-258.48 449.779,-250.492 439.356,-252.396 442.819,-258.48"/>
<g id="a_edge23&#45;headlabel"><a xlink:href="dir_000005_000018.xhtml" target="_top" xlink:title="26">
<text text-anchor="middle" x="441.099" y="-260.225" font-family="Helvetica,sans-Serif" font-size="10.00">26</text>
</a>
</g>
</g>
<!-- dir_3cecbd269a398d444969e15576a173f0&#45;&gt;dir_34b4cee2b5900b653deb3438fc906cf4 -->
<g id="edge22" class="edge"><title>dir_3cecbd269a398d444969e15576a173f0&#45;&gt;dir_34b4cee2b5900b653deb3438fc906cf4</title>
<path fill="none" stroke="black" d="M360.921,-287.697C364.075,-279.813 367.878,-270.304 371.381,-261.546"/>
<polygon fill="black" stroke="black" points="374.694,-262.689 375.158,-252.104 368.195,-260.089 374.694,-262.689"/>
<g id="a_edge22&#45;headlabel"><a xlink:href="dir_000005_000039.xhtml" target="_top" xlink:title="24">
<text text-anchor="middle" x="375.995" y="-264.581" font-family="Helvetica,sans-Serif" font-size="10.00">24</text>
</a>
</g>
</g>
<!-- dir_3cecbd269a398d444969e15576a173f0&#45;&gt;dir_1d7cadfed01c895b25460177608d44e9 -->
<g id="edge27" class="edge"><title>dir_3cecbd269a398d444969e15576a173f0&#45;&gt;dir_1d7cadfed01c895b25460177608d44e9</title>
<path fill="none" stroke="black" d="M327.825,-287.876C313.964,-278.808 296.759,-267.552 281.789,-257.759"/>
<polygon fill="black" stroke="black" points="283.56,-254.735 273.276,-252.19 279.728,-260.593 283.56,-254.735"/>
<g id="a_edge27&#45;headlabel"><a xlink:href="dir_000005_000044.xhtml" target="_top" xlink:title="1">
<text text-anchor="middle" x="288.123" y="-251.827" font-family="Helvetica,sans-Serif" font-size="10.00">1</text>
</a>
</g>
</g>
<!-- dir_3cecbd269a398d444969e15576a173f0&#45;&gt;dir_707aa52d67938117542c6646238d6f70 -->
<g id="edge24" class="edge"><title>dir_3cecbd269a398d444969e15576a173f0&#45;&gt;dir_707aa52d67938117542c6646238d6f70</title>
<path fill="none" stroke="black" d="M350.077,-287.881C347.798,-277.532 344.992,-264.053 343,-252 339.594,-231.393 336.737,-207.942 334.789,-190.288"/>
<polygon fill="black" stroke="black" points="338.245,-189.69 333.696,-180.121 331.285,-190.438 338.245,-189.69"/>
<g id="a_edge24&#45;headlabel"><a xlink:href="dir_000005_000029.xhtml" target="_top" xlink:title="37">
<text text-anchor="middle" x="341.452" y="-190.461" font-family="Helvetica,sans-Serif" font-size="10.00">37</text>
</a>
</g>
</g>
<!-- dir_3cecbd269a398d444969e15576a173f0&#45;&gt;dir_a8053b3d69cfefb2b2e6ec7bf9dd5c1a -->
<g id="edge26" class="edge"><title>dir_3cecbd269a398d444969e15576a173f0&#45;&gt;dir_a8053b3d69cfefb2b2e6ec7bf9dd5c1a</title>
<path fill="none" stroke="black" d="M381.164,-304.925C418.041,-303.175 482.801,-293.899 513,-252 522.355,-239.02 520.974,-229.872 513,-216 501.333,-195.704 478.571,-182.451 458.731,-174.274"/>
<polygon fill="black" stroke="black" points="459.879,-170.966 449.288,-170.659 457.376,-177.503 459.879,-170.966"/>
<g id="a_edge26&#45;headlabel"><a xlink:href="dir_000005_000114.xhtml" target="_top" xlink:title="3">
<text text-anchor="middle" x="464.251" y="-167.099" font-family="Helvetica,sans-Serif" font-size="10.00">3</text>
</a>
</g>
</g>
<!-- dir_3cecbd269a398d444969e15576a173f0&#45;&gt;dir_214608ef36d61442cb2b0c1c4e9a7def -->
<g id="edge25" class="edge"><title>dir_3cecbd269a398d444969e15576a173f0&#45;&gt;dir_214608ef36d61442cb2b0c1c4e9a7def</title>
<path fill="none" stroke="black" d="M326.629,-291.671C323.736,-290.384 320.821,-289.136 318,-288 271.458,-269.256 240.281,-292.745 211,-252 181.207,-210.542 214.27,-150.351 238.066,-116.534"/>
<polygon fill="black" stroke="black" points="241.124,-118.28 244.172,-108.133 235.461,-114.165 241.124,-118.28"/>
<g id="a_edge25&#45;headlabel"><a xlink:href="dir_000005_000000.xhtml" target="_top" xlink:title="141">
<text text-anchor="middle" x="241.308" y="-120.357" font-family="Helvetica,sans-Serif" font-size="10.00">141</text>
</a>
</g>
</g>
<!-- dir_3cecbd269a398d444969e15576a173f0&#45;&gt;dir_5815af820a9cc9481f1d0990a0d60286 -->
<g id="edge28" class="edge"><title>dir_3cecbd269a398d444969e15576a173f0&#45;&gt;dir_5815af820a9cc9481f1d0990a0d60286</title>
<path fill="none" stroke="black" d="M381.246,-302.923C436.921,-298.052 560.63,-283.82 586,-252 635.873,-189.449 633.074,-136.684 586,-72 557.192,-32.4152 498.216,-21.7802 459.403,-19.2596"/>
<polygon fill="black" stroke="black" points="459.193,-15.745 449.032,-18.7465 458.847,-22.7364 459.193,-15.745"/>
<g id="a_edge28&#45;headlabel"><a xlink:href="dir_000005_000027.xhtml" target="_top" xlink:title="46">
<text text-anchor="middle" x="462.923" y="-10.5867" font-family="Helvetica,sans-Serif" font-size="10.00">46</text>
</a>
</g>
</g>
<!-- dir_3cecbd269a398d444969e15576a173f0&#45;&gt;dir_fdedb0aba14d44ce9d99bc100e026e6a -->
<g id="edge29" class="edge"><title>dir_3cecbd269a398d444969e15576a173f0&#45;&gt;dir_fdedb0aba14d44ce9d99bc100e026e6a</title>
<path fill="none" stroke="black" d="M326.728,-291.407C323.816,-290.171 320.869,-289.008 318,-288 284.634,-276.281 189.87,-255.138 135.548,-243.41"/>
<polygon fill="black" stroke="black" points="136.089,-239.946 125.577,-241.264 134.617,-246.789 136.089,-239.946"/>
<g id="a_edge29&#45;headlabel"><a xlink:href="dir_000005_000017.xhtml" target="_top" xlink:title="1">
<text text-anchor="middle" x="140.201" y="-235.426" font-family="Helvetica,sans-Serif" font-size="10.00">1</text>
</a>
</g>
</g>
<!-- dir_707aa52d67938117542c6646238d6f70&#45;&gt;dir_214608ef36d61442cb2b0c1c4e9a7def -->
<g id="edge5" class="edge"><title>dir_707aa52d67938117542c6646238d6f70&#45;&gt;dir_214608ef36d61442cb2b0c1c4e9a7def</title>
<path fill="none" stroke="black" d="M313.708,-143.697C304.567,-135.05 293.36,-124.449 283.4,-115.027"/>
<polygon fill="black" stroke="black" points="285.752,-112.434 276.082,-108.104 280.941,-117.519 285.752,-112.434"/>
<g id="a_edge5&#45;headlabel"><a xlink:href="dir_000029_000000.xhtml" target="_top" xlink:title="11">
<text text-anchor="middle" x="290.314" y="-110.341" font-family="Helvetica,sans-Serif" font-size="10.00">11</text>
</a>
</g>
</g>
<!-- dir_d91e1966cc57df4f49d1e07be7697713&#45;&gt;dir_34b4cee2b5900b653deb3438fc906cf4 -->
<g id="edge15" class="edge"><title>dir_d91e1966cc57df4f49d1e07be7697713&#45;&gt;dir_34b4cee2b5900b653deb3438fc906cf4</title>
<path fill="none" stroke="black" d="M306.463,-287.876C319.296,-278.893 335.196,-267.763 349.094,-258.034"/>
<polygon fill="black" stroke="black" points="351.258,-260.792 357.443,-252.19 347.244,-255.057 351.258,-260.792"/>
<g id="a_edge15&#45;headlabel"><a xlink:href="dir_000024_000039.xhtml" target="_top" xlink:title="1">
<text text-anchor="middle" x="349.941" y="-262.679" font-family="Helvetica,sans-Serif" font-size="10.00">1</text>
</a>
</g>
</g>
<!-- dir_d91e1966cc57df4f49d1e07be7697713&#45;&gt;dir_1d7cadfed01c895b25460177608d44e9 -->
<g id="edge19" class="edge"><title>dir_d91e1966cc57df4f49d1e07be7697713&#45;&gt;dir_1d7cadfed01c895b25460177608d44e9</title>
<path fill="none" stroke="black" d="M273.348,-287.697C269.364,-279.728 264.55,-270.1 260.132,-261.264"/>
<polygon fill="black" stroke="black" points="263.155,-259.483 255.552,-252.104 256.894,-262.614 263.155,-259.483"/>
<g id="a_edge19&#45;headlabel"><a xlink:href="dir_000024_000044.xhtml" target="_top" xlink:title="21">
<text text-anchor="middle" x="267.302" y="-258.929" font-family="Helvetica,sans-Serif" font-size="10.00">21</text>
</a>
</g>
</g>
<!-- dir_d91e1966cc57df4f49d1e07be7697713&#45;&gt;dir_707aa52d67938117542c6646238d6f70 -->
<g id="edge16" class="edge"><title>dir_d91e1966cc57df4f49d1e07be7697713&#45;&gt;dir_707aa52d67938117542c6646238d6f70</title>
<path fill="none" stroke="black" d="M288.031,-287.871C296.628,-263.457 312.484,-218.426 322.621,-189.635"/>
<polygon fill="black" stroke="black" points="325.927,-190.784 325.947,-180.189 319.325,-188.459 325.927,-190.784"/>
<g id="a_edge16&#45;headlabel"><a xlink:href="dir_000024_000029.xhtml" target="_top" xlink:title="115">
<text text-anchor="middle" x="327.412" y="-192.618" font-family="Helvetica,sans-Serif" font-size="10.00">115</text>
</a>
</g>
</g>
<!-- dir_d91e1966cc57df4f49d1e07be7697713&#45;&gt;dir_a8053b3d69cfefb2b2e6ec7bf9dd5c1a -->
<g id="edge18" class="edge"><title>dir_d91e1966cc57df4f49d1e07be7697713&#45;&gt;dir_a8053b3d69cfefb2b2e6ec7bf9dd5c1a</title>
<path fill="none" stroke="black" d="M291.124,-287.846C301.814,-268.805 320.903,-237.878 343,-216 355.732,-203.394 371.86,-191.954 386.219,-182.956"/>
<polygon fill="black" stroke="black" points="388.164,-185.87 394.885,-177.68 384.524,-179.891 388.164,-185.87"/>
<g id="a_edge18&#45;headlabel"><a xlink:href="dir_000024_000114.xhtml" target="_top" xlink:title="3">
<text text-anchor="middle" x="386.57" y="-187.664" font-family="Helvetica,sans-Serif" font-size="10.00">3</text>
</a>
</g>
</g>
<!-- dir_d91e1966cc57df4f49d1e07be7697713&#45;&gt;dir_214608ef36d61442cb2b0c1c4e9a7def -->
<g id="edge17" class="edge"><title>dir_d91e1966cc57df4f49d1e07be7697713&#45;&gt;dir_214608ef36d61442cb2b0c1c4e9a7def</title>
<path fill="none" stroke="black" d="M254.827,-299.523C229.973,-292.916 194.623,-279.128 178,-252 149.206,-205.009 148.316,-174.434 178,-128 184.697,-117.524 195.201,-109.971 206.422,-104.541"/>
<polygon fill="black" stroke="black" points="208.133,-107.615 215.948,-100.461 205.377,-101.181 208.133,-107.615"/>
<g id="a_edge17&#45;headlabel"><a xlink:href="dir_000024_000000.xhtml" target="_top" xlink:title="371">
<text text-anchor="middle" x="205.947" y="-109.14" font-family="Helvetica,sans-Serif" font-size="10.00">371</text>
</a>
</g>
</g>
<!-- dir_d91e1966cc57df4f49d1e07be7697713&#45;&gt;dir_5815af820a9cc9481f1d0990a0d60286 -->
<g id="edge20" class="edge"><title>dir_d91e1966cc57df4f49d1e07be7697713&#45;&gt;dir_5815af820a9cc9481f1d0990a0d60286</title>
<path fill="none" stroke="black" d="M309.22,-291.254C312.143,-290.048 315.106,-288.933 318,-288 401.88,-260.958 456.622,-319.739 513,-252 566.311,-187.947 488.564,-88.9986 446.287,-43.4621"/>
<polygon fill="black" stroke="black" points="448.751,-40.9742 439.338,-36.1125 443.665,-45.7834 448.751,-40.9742"/>
<g id="a_edge20&#45;headlabel"><a xlink:href="dir_000024_000027.xhtml" target="_top" xlink:title="9">
<text text-anchor="middle" x="453.284" y="-39.1355" font-family="Helvetica,sans-Serif" font-size="10.00">9</text>
</a>
</g>
</g>
<!-- dir_d91e1966cc57df4f49d1e07be7697713&#45;&gt;dir_fdedb0aba14d44ce9d99bc100e026e6a -->
<g id="edge21" class="edge"><title>dir_d91e1966cc57df4f49d1e07be7697713&#45;&gt;dir_fdedb0aba14d44ce9d99bc100e026e6a</title>
<path fill="none" stroke="black" d="M254.743,-294.932C226.13,-284.339 179.851,-267.135 140,-252 138.421,-251.4 136.811,-250.787 135.185,-250.166"/>
<polygon fill="black" stroke="black" points="136.394,-246.881 125.804,-246.568 133.888,-253.417 136.394,-246.881"/>
<g id="a_edge21&#45;headlabel"><a xlink:href="dir_000024_000017.xhtml" target="_top" xlink:title="1">
<text text-anchor="middle" x="140.767" y="-243.017" font-family="Helvetica,sans-Serif" font-size="10.00">1</text>
</a>
</g>
</g>
<!-- dir_a8053b3d69cfefb2b2e6ec7bf9dd5c1a&#45;&gt;dir_214608ef36d61442cb2b0c1c4e9a7def -->
<g id="edge30" class="edge"><title>dir_a8053b3d69cfefb2b2e6ec7bf9dd5c1a&#45;&gt;dir_214608ef36d61442cb2b0c1c4e9a7def</title>
<path fill="none" stroke="black" d="M396.56,-143.837C387.75,-138.335 377.658,-132.506 368,-128 349.497,-119.368 328.406,-111.772 309.676,-105.745"/>
<polygon fill="black" stroke="black" points="310.712,-102.402 300.123,-102.739 308.611,-109.079 310.712,-102.402"/>
<g id="a_edge30&#45;headlabel"><a xlink:href="dir_000114_000000.xhtml" target="_top" xlink:title="15">
<text text-anchor="middle" x="314.993" y="-98.272" font-family="Helvetica,sans-Serif" font-size="10.00">15</text>
</a>
</g>
</g>
<!-- dir_a8053b3d69cfefb2b2e6ec7bf9dd5c1a&#45;&gt;dir_5815af820a9cc9481f1d0990a0d60286 -->
<g id="edge31" class="edge"><title>dir_a8053b3d69cfefb2b2e6ec7bf9dd5c1a&#45;&gt;dir_5815af820a9cc9481f1d0990a0d60286</title>
<path fill="none" stroke="black" d="M422,-143.871C422,-119.67 422,-75.2108 422,-46.3932"/>
<polygon fill="black" stroke="black" points="425.5,-46.1892 422,-36.1893 418.5,-46.1893 425.5,-46.1892"/>
<g id="a_edge31&#45;headlabel"><a xlink:href="dir_000114_000027.xhtml" target="_top" xlink:title="3">
<text text-anchor="middle" x="428.339" y="-47.2839" font-family="Helvetica,sans-Serif" font-size="10.00">3</text>
</a>
</g>
</g>
<!-- dir_214608ef36d61442cb2b0c1c4e9a7def&#45;&gt;dir_5815af820a9cc9481f1d0990a0d60286 -->
<g id="edge14" class="edge"><title>dir_214608ef36d61442cb2b0c1c4e9a7def&#45;&gt;dir_5815af820a9cc9481f1d0990a0d60286</title>
<path fill="none" stroke="black" d="M292.222,-71.8761C319.451,-59.7107 357.332,-43.6066 385.21,-32.3805"/>
<polygon fill="black" stroke="black" points="386.627,-35.5833 394.619,-28.6276 384.034,-29.0813 386.627,-35.5833"/>
<g id="a_edge14&#45;headlabel"><a xlink:href="dir_000000_000027.xhtml" target="_top" xlink:title="17">
<text text-anchor="middle" x="384.34" y="-37.0521" font-family="Helvetica,sans-Serif" font-size="10.00">17</text>
</a>
</g>
</g>
<!-- dir_5815af820a9cc9481f1d0990a0d60286&#45;&gt;dir_214608ef36d61442cb2b0c1c4e9a7def -->
<g id="edge34" class="edge"><title>dir_5815af820a9cc9481f1d0990a0d60286&#45;&gt;dir_214608ef36d61442cb2b0c1c4e9a7def</title>
<path fill="none" stroke="black" d="M394.84,-32.9488C371.625,-43.46 337.753,-58.0017 309.47,-69.6394"/>
<polygon fill="black" stroke="black" points="308.048,-66.4397 300.117,-73.4647 310.698,-72.9188 308.048,-66.4397"/>
<g id="a_edge34&#45;headlabel"><a xlink:href="dir_000027_000000.xhtml" target="_top" xlink:title="6">
<text text-anchor="middle" x="310.3" y="-59.9511" font-family="Helvetica,sans-Serif" font-size="10.00">6</text>
</a>
</g>
</g>
<!-- dir_fdedb0aba14d44ce9d99bc100e026e6a&#45;&gt;dir_214608ef36d61442cb2b0c1c4e9a7def -->
<g id="edge35" class="edge"><title>dir_fdedb0aba14d44ce9d99bc100e026e6a&#45;&gt;dir_214608ef36d61442cb2b0c1c4e9a7def</title>
<path fill="none" stroke="black" d="M98.5963,-215.905C103.006,-192.736 114.14,-151.561 140,-128 158.11,-111.5 183.521,-102.358 206.126,-97.2929"/>
<polygon fill="black" stroke="black" points="206.839,-100.719 215.944,-95.3014 205.448,-93.8592 206.839,-100.719"/>
<g id="a_edge35&#45;headlabel"><a xlink:href="dir_000017_000000.xhtml" target="_top" xlink:title="9">
<text text-anchor="middle" x="203.881" y="-101.717" font-family="Helvetica,sans-Serif" font-size="10.00">9</text>
</a>
</g>
</g>
</g>
</svg>
