<?xml version="1.0" encoding="UTF-8" standalone="no"?>
<!DOCTYPE svg PUBLIC "-//W3C//DTD SVG 1.1//EN"
 "http://www.w3.org/Graphics/SVG/1.1/DTD/svg11.dtd">
<!-- Generated by graphviz version 2.38.0 (20140413.2041)
 -->
<!-- Title: src/runtime/CL Pages: 1 -->
<svg width="566pt" height="447pt"
 viewBox="0.00 0.00 565.99 447.00" xmlns="http://www.w3.org/2000/svg" xmlns:xlink="http://www.w3.org/1999/xlink">
<g id="graph0" class="graph" transform="scale(1 1) rotate(0) translate(4 443)">
<title>src/runtime/CL</title>
<polygon fill="white" stroke="none" points="-4,4 -4,-443 561.99,-443 561.99,4 -4,4"/>
<g id="clust1" class="cluster"><title>clusterdir_bf9f26469d00835ba20ff8d80ee5a804</title>
<g id="a_clust1"><a xlink:href="dir_bf9f26469d00835ba20ff8d80ee5a804.xhtml" target="_top" xlink:title="runtime">
<polygon fill="#ddddee" stroke="black" points="103.99,-200 103.99,-431 353.99,-431 353.99,-200 103.99,-200"/>
<text text-anchor="middle" x="228.99" y="-419" font-family="Helvetica,sans-Serif" font-size="10.00">runtime</text>
</a>
</g>
</g>
<g id="clust2" class="cluster"><title>clusterdir_43c3fdbf778d1fd99e2e38f09fddd920</title>
<g id="a_clust2"><a xlink:href="dir_43c3fdbf778d1fd99e2e38f09fddd920.xhtml" target="_top">
<polygon fill="#eeeeff" stroke="black" points="111.99,-208 111.99,-404 345.99,-404 345.99,-208 111.99,-208"/>
</a>
</g>
</g>
<!-- dir_43c3fdbf778d1fd99e2e38f09fddd920 -->
<g id="node1" class="node"><title>dir_43c3fdbf778d1fd99e2e38f09fddd920</title>
<text text-anchor="middle" x="310.99" y="-303.5" font-family="Helvetica,sans-Serif" font-size="10.00">CL</text>
</g>
<!-- dir_82e3926d996ac5aae32ffa787ec227cb -->
<g id="node5" class="node"><title>dir_82e3926d996ac5aae32ffa787ec227cb</title>
<g id="a_node5"><a xlink:href="dir_82e3926d996ac5aae32ffa787ec227cb.xhtml" target="_top" xlink:title="mlgo">
<polygon fill="white" stroke="black" points="261.99,-252 207.99,-252 207.99,-216 261.99,-216 261.99,-252"/>
<text text-anchor="middle" x="234.99" y="-231.5" font-family="Helvetica,sans-Serif" font-size="10.00">mlgo</text>
</a>
</g>
</g>
<!-- dir_43c3fdbf778d1fd99e2e38f09fddd920&#45;&gt;dir_82e3926d996ac5aae32ffa787ec227cb -->
<g id="edge18" class="edge"><title>dir_43c3fdbf778d1fd99e2e38f09fddd920&#45;&gt;dir_82e3926d996ac5aae32ffa787ec227cb</title>
<path fill="none" stroke="black" d="M292.203,-287.697C282.816,-279.05 271.305,-268.449 261.076,-259.027"/>
<polygon fill="black" stroke="black" points="263.287,-256.305 253.56,-252.104 258.544,-261.454 263.287,-256.305"/>
<g id="a_edge18&#45;headlabel"><a xlink:href="dir_000031_000032.xhtml" target="_top" xlink:title="3">
<text text-anchor="middle" x="267.854" y="-254.152" font-family="Helvetica,sans-Serif" font-size="10.00">3</text>
</a>
</g>
</g>
<!-- dir_214608ef36d61442cb2b0c1c4e9a7def -->
<g id="node9" class="node"><title>dir_214608ef36d61442cb2b0c1c4e9a7def</title>
<g id="a_node9"><a xlink:href="dir_214608ef36d61442cb2b0c1c4e9a7def.xhtml" target="_top" xlink:title="arm_compute">
<polygon fill="white" stroke="red" points="338.99,-180 254.99,-180 254.99,-144 338.99,-144 338.99,-180"/>
<text text-anchor="middle" x="296.99" y="-159.5" font-family="Helvetica,sans-Serif" font-size="10.00">arm_compute</text>
</a>
</g>
</g>
<!-- dir_43c3fdbf778d1fd99e2e38f09fddd920&#45;&gt;dir_214608ef36d61442cb2b0c1c4e9a7def -->
<g id="edge19" class="edge"><title>dir_43c3fdbf778d1fd99e2e38f09fddd920&#45;&gt;dir_214608ef36d61442cb2b0c1c4e9a7def</title>
<path fill="none" stroke="black" d="M310.48,-287.843C309.715,-267.003 307.916,-230.809 303.99,-200 303.589,-196.859 303.09,-193.582 302.543,-190.333"/>
<polygon fill="black" stroke="black" points="305.941,-189.456 300.699,-180.249 299.055,-190.716 305.941,-189.456"/>
<g id="a_edge19&#45;headlabel"><a xlink:href="dir_000031_000000.xhtml" target="_top" xlink:title="468">
<text text-anchor="middle" x="309.38" y="-189.981" font-family="Helvetica,sans-Serif" font-size="10.00">468</text>
</a>
</g>
</g>
<!-- dir_aebb8dcc11953d78e620bbef0b9e2183 -->
<g id="node10" class="node"><title>dir_aebb8dcc11953d78e620bbef0b9e2183</title>
<g id="a_node10"><a xlink:href="dir_aebb8dcc11953d78e620bbef0b9e2183.xhtml" target="_top" xlink:title="core">
<polygon fill="white" stroke="red" points="447.99,-252 393.99,-252 393.99,-216 447.99,-216 447.99,-252"/>
<text text-anchor="middle" x="420.99" y="-231.5" font-family="Helvetica,sans-Serif" font-size="10.00">core</text>
</a>
</g>
</g>
<!-- dir_43c3fdbf778d1fd99e2e38f09fddd920&#45;&gt;dir_aebb8dcc11953d78e620bbef0b9e2183 -->
<g id="edge20" class="edge"><title>dir_43c3fdbf778d1fd99e2e38f09fddd920&#45;&gt;dir_aebb8dcc11953d78e620bbef0b9e2183</title>
<path fill="none" stroke="black" d="M337.899,-287.876C352.148,-278.808 369.836,-267.552 385.225,-257.759"/>
<polygon fill="black" stroke="black" points="387.42,-260.511 393.977,-252.19 383.661,-254.606 387.42,-260.511"/>
<g id="a_edge20&#45;headlabel"><a xlink:href="dir_000031_000004.xhtml" target="_top" xlink:title="238">
<text text-anchor="middle" x="385.911" y="-262.337" font-family="Helvetica,sans-Serif" font-size="10.00">238</text>
</a>
</g>
</g>
<!-- dir_5815af820a9cc9481f1d0990a0d60286 -->
<g id="node11" class="node"><title>dir_5815af820a9cc9481f1d0990a0d60286</title>
<g id="a_node11"><a xlink:href="dir_5815af820a9cc9481f1d0990a0d60286.xhtml" target="_top" xlink:title="support">
<polygon fill="none" stroke="black" points="282.99,-36 228.99,-36 228.99,-0 282.99,-0 282.99,-36"/>
<text text-anchor="middle" x="255.99" y="-15.5" font-family="Helvetica,sans-Serif" font-size="10.00">support</text>
</a>
</g>
</g>
<!-- dir_43c3fdbf778d1fd99e2e38f09fddd920&#45;&gt;dir_5815af820a9cc9481f1d0990a0d60286 -->
<g id="edge21" class="edge"><title>dir_43c3fdbf778d1fd99e2e38f09fddd920&#45;&gt;dir_5815af820a9cc9481f1d0990a0d60286</title>
<path fill="none" stroke="black" d="M283.713,-291.42C280.802,-290.181 277.857,-289.014 274.99,-288 211.167,-265.431 168.82,-305.225 126.99,-252 72.2302,-182.324 171.771,-86.3773 225.264,-42.5509"/>
<polygon fill="black" stroke="black" points="227.523,-45.2255 233.111,-36.2241 223.13,-39.7761 227.523,-45.2255"/>
<g id="a_edge21&#45;headlabel"><a xlink:href="dir_000031_000027.xhtml" target="_top" xlink:title="6">
<text text-anchor="middle" x="226.507" y="-47.192" font-family="Helvetica,sans-Serif" font-size="10.00">6</text>
</a>
</g>
</g>
<!-- dir_0304d3529340c629ae0050036d07056a -->
<g id="node2" class="node"><title>dir_0304d3529340c629ae0050036d07056a</title>
<g id="a_node2"><a xlink:href="dir_0304d3529340c629ae0050036d07056a.xhtml" target="_top" xlink:title="functions">
<polygon fill="white" stroke="black" points="232.99,-396 172.99,-396 172.99,-360 232.99,-360 232.99,-396"/>
<text text-anchor="middle" x="202.99" y="-375.5" font-family="Helvetica,sans-Serif" font-size="10.00">functions</text>
</a>
</g>
</g>
<!-- dir_5f09115d5b51f09d1c93a8d5eb5f8d5c -->
<g id="node3" class="node"><title>dir_5f09115d5b51f09d1c93a8d5eb5f8d5c</title>
<g id="a_node3"><a xlink:href="dir_5f09115d5b51f09d1c93a8d5eb5f8d5c.xhtml" target="_top" xlink:title="gemm">
<polygon fill="white" stroke="black" points="189.99,-252 135.99,-252 135.99,-216 189.99,-216 189.99,-252"/>
<text text-anchor="middle" x="162.99" y="-231.5" font-family="Helvetica,sans-Serif" font-size="10.00">gemm</text>
</a>
</g>
</g>
<!-- dir_0304d3529340c629ae0050036d07056a&#45;&gt;dir_5f09115d5b51f09d1c93a8d5eb5f8d5c -->
<g id="edge16" class="edge"><title>dir_0304d3529340c629ae0050036d07056a&#45;&gt;dir_5f09115d5b51f09d1c93a8d5eb5f8d5c</title>
<path fill="none" stroke="black" d="M172.973,-363.381C157.394,-354.565 139.814,-341.453 130.99,-324 120.611,-303.474 131.172,-278.764 142.864,-260.594"/>
<polygon fill="black" stroke="black" points="145.822,-262.469 148.607,-252.246 140.055,-258.501 145.822,-262.469"/>
<g id="a_edge16&#45;headlabel"><a xlink:href="dir_000233_000234.xhtml" target="_top" xlink:title="1">
<text text-anchor="middle" x="146.123" y="-264.539" font-family="Helvetica,sans-Serif" font-size="10.00">1</text>
</a>
</g>
</g>
<!-- dir_a67538344c2c86328918cac423ccf8cb -->
<g id="node4" class="node"><title>dir_a67538344c2c86328918cac423ccf8cb</title>
<g id="a_node4"><a xlink:href="dir_a67538344c2c86328918cac423ccf8cb.xhtml" target="_top" xlink:title="gemm_auto_heuristics">
<polygon fill="white" stroke="black" points="265.99,-324 139.99,-324 139.99,-288 265.99,-288 265.99,-324"/>
<text text-anchor="middle" x="202.99" y="-303.5" font-family="Helvetica,sans-Serif" font-size="10.00">gemm_auto_heuristics</text>
</a>
</g>
</g>
<!-- dir_0304d3529340c629ae0050036d07056a&#45;&gt;dir_a67538344c2c86328918cac423ccf8cb -->
<g id="edge14" class="edge"><title>dir_0304d3529340c629ae0050036d07056a&#45;&gt;dir_a67538344c2c86328918cac423ccf8cb</title>
<path fill="none" stroke="black" d="M202.99,-359.697C202.99,-351.983 202.99,-342.712 202.99,-334.112"/>
<polygon fill="black" stroke="black" points="206.49,-334.104 202.99,-324.104 199.49,-334.104 206.49,-334.104"/>
<g id="a_edge14&#45;headlabel"><a xlink:href="dir_000233_000235.xhtml" target="_top" xlink:title="2">
<text text-anchor="middle" x="209.329" y="-335.199" font-family="Helvetica,sans-Serif" font-size="10.00">2</text>
</a>
</g>
</g>
<!-- dir_cbdb8362360e11eafe2fa3bc74cf0ffd -->
<g id="node7" class="node"><title>dir_cbdb8362360e11eafe2fa3bc74cf0ffd</title>
<g id="a_node7"><a xlink:href="dir_cbdb8362360e11eafe2fa3bc74cf0ffd.xhtml" target="_top" xlink:title="utils">
<polygon fill="white" stroke="red" points="113.99,-108 59.9895,-108 59.9895,-72 113.99,-72 113.99,-108"/>
<text text-anchor="middle" x="86.9895" y="-87.5" font-family="Helvetica,sans-Serif" font-size="10.00">utils</text>
</a>
</g>
</g>
<!-- dir_0304d3529340c629ae0050036d07056a&#45;&gt;dir_cbdb8362360e11eafe2fa3bc74cf0ffd -->
<g id="edge11" class="edge"><title>dir_0304d3529340c629ae0050036d07056a&#45;&gt;dir_cbdb8362360e11eafe2fa3bc74cf0ffd</title>
<path fill="none" stroke="black" d="M172.87,-372.785C125.399,-365.458 36.6415,-348.746 17.9895,-324 -30.4378,-259.751 31.5797,-161.921 66.3641,-116.199"/>
<polygon fill="black" stroke="black" points="69.3394,-118.075 72.7133,-108.031 63.8127,-113.779 69.3394,-118.075"/>
<g id="a_edge11&#45;headlabel"><a xlink:href="dir_000233_000035.xhtml" target="_top" xlink:title="2">
<text text-anchor="middle" x="69.375" y="-120.155" font-family="Helvetica,sans-Serif" font-size="10.00">2</text>
</a>
</g>
</g>
<!-- dir_3747c56b457df80298a311fe12706951 -->
<g id="node8" class="node"><title>dir_3747c56b457df80298a311fe12706951</title>
<g id="a_node8"><a xlink:href="dir_3747c56b457df80298a311fe12706951.xhtml" target="_top" xlink:title="gpu">
<polygon fill="white" stroke="red" points="557.99,-324 503.99,-324 503.99,-288 557.99,-288 557.99,-324"/>
<text text-anchor="middle" x="530.99" y="-303.5" font-family="Helvetica,sans-Serif" font-size="10.00">gpu</text>
</a>
</g>
</g>
<!-- dir_0304d3529340c629ae0050036d07056a&#45;&gt;dir_3747c56b457df80298a311fe12706951 -->
<g id="edge12" class="edge"><title>dir_0304d3529340c629ae0050036d07056a&#45;&gt;dir_3747c56b457df80298a311fe12706951</title>
<path fill="none" stroke="black" d="M233.074,-369.7C245.963,-366.624 261.196,-363.056 274.99,-360 352.558,-342.816 443.742,-324.352 493.653,-314.392"/>
<polygon fill="black" stroke="black" points="494.534,-317.786 503.658,-312.4 493.167,-310.921 494.534,-317.786"/>
<g id="a_edge12&#45;headlabel"><a xlink:href="dir_000233_000054.xhtml" target="_top" xlink:title="25">
<text text-anchor="middle" x="491.563" y="-318.773" font-family="Helvetica,sans-Serif" font-size="10.00">25</text>
</a>
</g>
</g>
<!-- dir_0304d3529340c629ae0050036d07056a&#45;&gt;dir_214608ef36d61442cb2b0c1c4e9a7def -->
<g id="edge13" class="edge"><title>dir_0304d3529340c629ae0050036d07056a&#45;&gt;dir_214608ef36d61442cb2b0c1c4e9a7def</title>
<path fill="none" stroke="black" d="M233.11,-370.182C271.259,-360.865 333.654,-343.118 346.99,-324 376.194,-282.131 342.395,-222.581 317.886,-188.877"/>
<polygon fill="black" stroke="black" points="320.393,-186.386 311.59,-180.491 314.796,-190.589 320.393,-186.386"/>
<g id="a_edge13&#45;headlabel"><a xlink:href="dir_000233_000000.xhtml" target="_top" xlink:title="393">
<text text-anchor="middle" x="324.822" y="-185.056" font-family="Helvetica,sans-Serif" font-size="10.00">393</text>
</a>
</g>
</g>
<!-- dir_0304d3529340c629ae0050036d07056a&#45;&gt;dir_aebb8dcc11953d78e620bbef0b9e2183 -->
<g id="edge15" class="edge"><title>dir_0304d3529340c629ae0050036d07056a&#45;&gt;dir_aebb8dcc11953d78e620bbef0b9e2183</title>
<path fill="none" stroke="black" d="M233.311,-369.374C280.868,-357.2 368.757,-333.753 379.99,-324 398.476,-307.948 409.135,-281.817 414.925,-262.012"/>
<polygon fill="black" stroke="black" points="418.314,-262.885 417.524,-252.319 411.553,-261.071 418.314,-262.885"/>
<g id="a_edge15&#45;headlabel"><a xlink:href="dir_000233_000004.xhtml" target="_top" xlink:title="225">
<text text-anchor="middle" x="420.126" y="-264.592" font-family="Helvetica,sans-Serif" font-size="10.00">225</text>
</a>
</g>
</g>
<!-- dir_0304d3529340c629ae0050036d07056a&#45;&gt;dir_5815af820a9cc9481f1d0990a0d60286 -->
<g id="edge17" class="edge"><title>dir_0304d3529340c629ae0050036d07056a&#45;&gt;dir_5815af820a9cc9481f1d0990a0d60286</title>
<path fill="none" stroke="black" d="M172.812,-367.481C123.721,-349.896 31.9895,-307.354 31.9895,-235 31.9895,-235 31.9895,-235 31.9895,-161 31.9895,-120.553 23.0059,-101.204 50.9895,-72 73.939,-48.0498 166.409,-31.5282 218.977,-23.8639"/>
<polygon fill="black" stroke="black" points="219.518,-27.3223 228.926,-22.4496 218.533,-20.392 219.518,-27.3223"/>
<g id="a_edge17&#45;headlabel"><a xlink:href="dir_000233_000027.xhtml" target="_top" xlink:title="3">
<text text-anchor="middle" x="216.359" y="-28.1391" font-family="Helvetica,sans-Serif" font-size="10.00">3</text>
</a>
</g>
</g>
<!-- dir_5f09115d5b51f09d1c93a8d5eb5f8d5c&#45;&gt;dir_214608ef36d61442cb2b0c1c4e9a7def -->
<g id="edge29" class="edge"><title>dir_5f09115d5b51f09d1c93a8d5eb5f8d5c&#45;&gt;dir_214608ef36d61442cb2b0c1c4e9a7def</title>
<path fill="none" stroke="black" d="M179.114,-215.78C184.978,-210.21 191.912,-204.353 198.99,-200 213.228,-191.241 229.877,-184.002 245.369,-178.32"/>
<polygon fill="black" stroke="black" points="246.566,-181.61 254.834,-174.984 244.239,-175.008 246.566,-181.61"/>
<g id="a_edge29&#45;headlabel"><a xlink:href="dir_000234_000000.xhtml" target="_top" xlink:title="11">
<text text-anchor="middle" x="244.119" y="-182.982" font-family="Helvetica,sans-Serif" font-size="10.00">11</text>
</a>
</g>
</g>
<!-- dir_5f09115d5b51f09d1c93a8d5eb5f8d5c&#45;&gt;dir_aebb8dcc11953d78e620bbef0b9e2183 -->
<g id="edge30" class="edge"><title>dir_5f09115d5b51f09d1c93a8d5eb5f8d5c&#45;&gt;dir_aebb8dcc11953d78e620bbef0b9e2183</title>
<path fill="none" stroke="black" d="M180.071,-252.217C187.836,-259.198 197.605,-266.357 207.99,-270 276.35,-293.98 302.043,-292.239 370.99,-270 378.863,-267.46 386.543,-263.169 393.428,-258.417"/>
<polygon fill="black" stroke="black" points="395.765,-261.039 401.678,-252.247 391.573,-255.433 395.765,-261.039"/>
<g id="a_edge30&#45;headlabel"><a xlink:href="dir_000234_000004.xhtml" target="_top" xlink:title="3">
<text text-anchor="middle" x="394.587" y="-262.966" font-family="Helvetica,sans-Serif" font-size="10.00">3</text>
</a>
</g>
</g>
<!-- dir_a67538344c2c86328918cac423ccf8cb&#45;&gt;dir_5f09115d5b51f09d1c93a8d5eb5f8d5c -->
<g id="edge26" class="edge"><title>dir_a67538344c2c86328918cac423ccf8cb&#45;&gt;dir_5f09115d5b51f09d1c93a8d5eb5f8d5c</title>
<path fill="none" stroke="black" d="M193.102,-287.697C188.5,-279.644 182.929,-269.894 177.837,-260.982"/>
<polygon fill="black" stroke="black" points="180.764,-259.05 172.763,-252.104 174.686,-262.523 180.764,-259.05"/>
<g id="a_edge26&#45;headlabel"><a xlink:href="dir_000235_000234.xhtml" target="_top" xlink:title="1">
<text text-anchor="middle" x="185.012" y="-258.263" font-family="Helvetica,sans-Serif" font-size="10.00">1</text>
</a>
</g>
</g>
<!-- dir_a67538344c2c86328918cac423ccf8cb&#45;&gt;dir_82e3926d996ac5aae32ffa787ec227cb -->
<g id="edge22" class="edge"><title>dir_a67538344c2c86328918cac423ccf8cb&#45;&gt;dir_82e3926d996ac5aae32ffa787ec227cb</title>
<path fill="none" stroke="black" d="M210.9,-287.697C214.542,-279.728 218.944,-270.1 222.983,-261.264"/>
<polygon fill="black" stroke="black" points="226.196,-262.654 227.17,-252.104 219.83,-259.744 226.196,-262.654"/>
<g id="a_edge22&#45;headlabel"><a xlink:href="dir_000235_000032.xhtml" target="_top" xlink:title="2">
<text text-anchor="middle" x="227.284" y="-264.604" font-family="Helvetica,sans-Serif" font-size="10.00">2</text>
</a>
</g>
</g>
<!-- dir_a67538344c2c86328918cac423ccf8cb&#45;&gt;dir_cbdb8362360e11eafe2fa3bc74cf0ffd -->
<g id="edge23" class="edge"><title>dir_a67538344c2c86328918cac423ccf8cb&#45;&gt;dir_cbdb8362360e11eafe2fa3bc74cf0ffd</title>
<path fill="none" stroke="black" d="M140.039,-287.927C122.235,-279.951 104.785,-268.448 93.9895,-252 67.5307,-211.689 73.5251,-152.683 80.2678,-118.425"/>
<polygon fill="black" stroke="black" points="83.7799,-118.737 82.4431,-108.227 76.9339,-117.277 83.7799,-118.737"/>
<g id="a_edge23&#45;headlabel"><a xlink:href="dir_000235_000035.xhtml" target="_top" xlink:title="1">
<text text-anchor="middle" x="85.8069" y="-120.345" font-family="Helvetica,sans-Serif" font-size="10.00">1</text>
</a>
</g>
</g>
<!-- dir_a67538344c2c86328918cac423ccf8cb&#45;&gt;dir_214608ef36d61442cb2b0c1c4e9a7def -->
<g id="edge24" class="edge"><title>dir_a67538344c2c86328918cac423ccf8cb&#45;&gt;dir_214608ef36d61442cb2b0c1c4e9a7def</title>
<path fill="none" stroke="black" d="M232.661,-287.907C246.103,-278.804 261.152,-266.488 270.99,-252 283.596,-233.434 290.183,-208.694 293.568,-190.011"/>
<polygon fill="black" stroke="black" points="297.034,-190.499 295.174,-180.069 290.124,-189.382 297.034,-190.499"/>
<g id="a_edge24&#45;headlabel"><a xlink:href="dir_000235_000000.xhtml" target="_top" xlink:title="7">
<text text-anchor="middle" x="299.264" y="-192.001" font-family="Helvetica,sans-Serif" font-size="10.00">7</text>
</a>
</g>
</g>
<!-- dir_a67538344c2c86328918cac423ccf8cb&#45;&gt;dir_aebb8dcc11953d78e620bbef0b9e2183 -->
<g id="edge25" class="edge"><title>dir_a67538344c2c86328918cac423ccf8cb&#45;&gt;dir_aebb8dcc11953d78e620bbef0b9e2183</title>
<path fill="none" stroke="black" d="M256.04,-287.966C295.729,-275.221 348.997,-258.117 384.125,-246.837"/>
<polygon fill="black" stroke="black" points="385.516,-250.067 393.967,-243.677 383.376,-243.402 385.516,-250.067"/>
<g id="a_edge25&#45;headlabel"><a xlink:href="dir_000235_000004.xhtml" target="_top" xlink:title="5">
<text text-anchor="middle" x="382.961" y="-251.369" font-family="Helvetica,sans-Serif" font-size="10.00">5</text>
</a>
</g>
</g>
<!-- dir_82e3926d996ac5aae32ffa787ec227cb&#45;&gt;dir_214608ef36d61442cb2b0c1c4e9a7def -->
<g id="edge1" class="edge"><title>dir_82e3926d996ac5aae32ffa787ec227cb&#45;&gt;dir_214608ef36d61442cb2b0c1c4e9a7def</title>
<path fill="none" stroke="black" d="M250.315,-215.697C257.748,-207.305 266.813,-197.07 274.969,-187.861"/>
<polygon fill="black" stroke="black" points="277.83,-189.911 281.84,-180.104 272.59,-185.27 277.83,-189.911"/>
<g id="a_edge1&#45;headlabel"><a xlink:href="dir_000032_000000.xhtml" target="_top" xlink:title="6">
<text text-anchor="middle" x="277.572" y="-191.984" font-family="Helvetica,sans-Serif" font-size="10.00">6</text>
</a>
</g>
</g>
<!-- dir_82e3926d996ac5aae32ffa787ec227cb&#45;&gt;dir_5815af820a9cc9481f1d0990a0d60286 -->
<g id="edge2" class="edge"><title>dir_82e3926d996ac5aae32ffa787ec227cb&#45;&gt;dir_5815af820a9cc9481f1d0990a0d60286</title>
<path fill="none" stroke="black" d="M236.673,-215.849C240.305,-178.832 248.906,-91.1809 253.302,-46.3863"/>
<polygon fill="black" stroke="black" points="256.805,-46.5265 254.298,-36.2325 249.839,-45.8428 256.805,-46.5265"/>
<g id="a_edge2&#45;headlabel"><a xlink:href="dir_000032_000027.xhtml" target="_top" xlink:title="1">
<text text-anchor="middle" x="259.28" y="-47.8812" font-family="Helvetica,sans-Serif" font-size="10.00">1</text>
</a>
</g>
</g>
<!-- dir_50c9c9ef2ed96b9f05a6a6f40f0f5c9e -->
<g id="node6" class="node"><title>dir_50c9c9ef2ed96b9f05a6a6f40f0f5c9e</title>
<g id="a_node6"><a xlink:href="dir_50c9c9ef2ed96b9f05a6a6f40f0f5c9e.xhtml" target="_top" xlink:title="tuners">
<polygon fill="white" stroke="black" points="337.99,-396 283.99,-396 283.99,-360 337.99,-360 337.99,-396"/>
<text text-anchor="middle" x="310.99" y="-375.5" font-family="Helvetica,sans-Serif" font-size="10.00">tuners</text>
</a>
</g>
</g>
<!-- dir_50c9c9ef2ed96b9f05a6a6f40f0f5c9e&#45;&gt;dir_214608ef36d61442cb2b0c1c4e9a7def -->
<g id="edge3" class="edge"><title>dir_50c9c9ef2ed96b9f05a6a6f40f0f5c9e&#45;&gt;dir_214608ef36d61442cb2b0c1c4e9a7def</title>
<path fill="none" stroke="black" d="M338.349,-365.989C358.806,-356.84 386.636,-342.366 406.99,-324 451.106,-284.19 493.973,-246.511 456.99,-200 443.629,-183.198 390.626,-173.36 349.241,-168.108"/>
<polygon fill="black" stroke="black" points="349.617,-164.628 339.269,-166.9 348.776,-171.577 349.617,-164.628"/>
<g id="a_edge3&#45;headlabel"><a xlink:href="dir_000237_000000.xhtml" target="_top" xlink:title="1">
<text text-anchor="middle" x="353.527" y="-159.741" font-family="Helvetica,sans-Serif" font-size="10.00">1</text>
</a>
</g>
</g>
<!-- dir_cbdb8362360e11eafe2fa3bc74cf0ffd&#45;&gt;dir_214608ef36d61442cb2b0c1c4e9a7def -->
<g id="edge4" class="edge"><title>dir_cbdb8362360e11eafe2fa3bc74cf0ffd&#45;&gt;dir_214608ef36d61442cb2b0c1c4e9a7def</title>
<path fill="none" stroke="black" d="M114.241,-98.6172C147.388,-108.87 203.745,-127.467 245.186,-141.697"/>
<polygon fill="black" stroke="black" points="244.251,-145.076 254.845,-145.028 246.533,-138.459 244.251,-145.076"/>
<g id="a_edge4&#45;headlabel"><a xlink:href="dir_000035_000000.xhtml" target="_top" xlink:title="38">
<text text-anchor="middle" x="239.927" y="-144.088" font-family="Helvetica,sans-Serif" font-size="10.00">38</text>
</a>
</g>
</g>
<!-- dir_cbdb8362360e11eafe2fa3bc74cf0ffd&#45;&gt;dir_5815af820a9cc9481f1d0990a0d60286 -->
<g id="edge5" class="edge"><title>dir_cbdb8362360e11eafe2fa3bc74cf0ffd&#45;&gt;dir_5815af820a9cc9481f1d0990a0d60286</title>
<path fill="none" stroke="black" d="M114.336,-77.6591C118.895,-75.7689 123.576,-73.8288 127.99,-72 158.726,-59.2644 193.618,-44.8175 219.201,-34.2271"/>
<polygon fill="black" stroke="black" points="220.621,-37.4274 228.522,-30.3687 217.944,-30.9596 220.621,-37.4274"/>
<g id="a_edge5&#45;headlabel"><a xlink:href="dir_000035_000027.xhtml" target="_top" xlink:title="3">
<text text-anchor="middle" x="218.386" y="-38.9256" font-family="Helvetica,sans-Serif" font-size="10.00">3</text>
</a>
</g>
</g>
<!-- dir_3747c56b457df80298a311fe12706951&#45;&gt;dir_214608ef36d61442cb2b0c1c4e9a7def -->
<g id="edge6" class="edge"><title>dir_3747c56b457df80298a311fe12706951&#45;&gt;dir_214608ef36d61442cb2b0c1c4e9a7def</title>
<path fill="none" stroke="black" d="M529.348,-287.902C526.129,-264.34 516.767,-222.28 489.99,-200 469.055,-182.582 399.175,-172.499 349.536,-167.377"/>
<polygon fill="black" stroke="black" points="349.573,-163.863 339.276,-166.358 348.881,-170.829 349.573,-163.863"/>
<g id="a_edge6&#45;headlabel"><a xlink:href="dir_000054_000000.xhtml" target="_top" xlink:title="24">
<text text-anchor="middle" x="353.43" y="-158.893" font-family="Helvetica,sans-Serif" font-size="10.00">24</text>
</a>
</g>
</g>
<!-- dir_3747c56b457df80298a311fe12706951&#45;&gt;dir_aebb8dcc11953d78e620bbef0b9e2183 -->
<g id="edge7" class="edge"><title>dir_3747c56b457df80298a311fe12706951&#45;&gt;dir_aebb8dcc11953d78e620bbef0b9e2183</title>
<path fill="none" stroke="black" d="M504.081,-287.876C489.831,-278.808 472.143,-267.552 456.754,-257.759"/>
<polygon fill="black" stroke="black" points="458.318,-254.606 448.002,-252.19 454.56,-260.511 458.318,-254.606"/>
<g id="a_edge7&#45;headlabel"><a xlink:href="dir_000054_000004.xhtml" target="_top" xlink:title="78">
<text text-anchor="middle" x="462.875" y="-251.64" font-family="Helvetica,sans-Serif" font-size="10.00">78</text>
</a>
</g>
</g>
<!-- dir_3747c56b457df80298a311fe12706951&#45;&gt;dir_5815af820a9cc9481f1d0990a0d60286 -->
<g id="edge8" class="edge"><title>dir_3747c56b457df80298a311fe12706951&#45;&gt;dir_5815af820a9cc9481f1d0990a0d60286</title>
<path fill="none" stroke="black" d="M533.177,-287.626C535.068,-265.596 535.334,-227.21 518.99,-200 466,-111.782 351.537,-56.3202 292.64,-32.5036"/>
<polygon fill="black" stroke="black" points="293.926,-29.2487 283.34,-28.82 291.348,-35.7567 293.926,-29.2487"/>
<g id="a_edge8&#45;headlabel"><a xlink:href="dir_000054_000027.xhtml" target="_top" xlink:title="1">
<text text-anchor="middle" x="298.314" y="-25.4326" font-family="Helvetica,sans-Serif" font-size="10.00">1</text>
</a>
</g>
</g>
<!-- dir_214608ef36d61442cb2b0c1c4e9a7def&#45;&gt;dir_cbdb8362360e11eafe2fa3bc74cf0ffd -->
<g id="edge9" class="edge"><title>dir_214608ef36d61442cb2b0c1c4e9a7def&#45;&gt;dir_cbdb8362360e11eafe2fa3bc74cf0ffd</title>
<path fill="none" stroke="black" d="M254.891,-148.727C216.576,-136.577 160.722,-117.989 124.056,-105.207"/>
<polygon fill="black" stroke="black" points="124.848,-101.775 114.253,-101.765 122.529,-108.38 124.848,-101.775"/>
<g id="a_edge9&#45;headlabel"><a xlink:href="dir_000000_000035.xhtml" target="_top" xlink:title="1">
<text text-anchor="middle" x="129.18" y="-97.7871" font-family="Helvetica,sans-Serif" font-size="10.00">1</text>
</a>
</g>
</g>
<!-- dir_214608ef36d61442cb2b0c1c4e9a7def&#45;&gt;dir_5815af820a9cc9481f1d0990a0d60286 -->
<g id="edge10" class="edge"><title>dir_214608ef36d61442cb2b0c1c4e9a7def&#45;&gt;dir_5815af820a9cc9481f1d0990a0d60286</title>
<path fill="none" stroke="black" d="M287.459,-143.871C277.871,-119.564 264.669,-74.8187 258.356,-46.0132"/>
<polygon fill="black" stroke="black" points="261.782,-45.2928 256.362,-36.1893 254.922,-46.6858 261.782,-45.2928"/>
<g id="a_edge10&#45;headlabel"><a xlink:href="dir_000000_000027.xhtml" target="_top" xlink:title="17">
<text text-anchor="middle" x="265.279" y="-45.7506" font-family="Helvetica,sans-Serif" font-size="10.00">17</text>
</a>
</g>
</g>
<!-- dir_aebb8dcc11953d78e620bbef0b9e2183&#45;&gt;dir_214608ef36d61442cb2b0c1c4e9a7def -->
<g id="edge27" class="edge"><title>dir_aebb8dcc11953d78e620bbef0b9e2183&#45;&gt;dir_214608ef36d61442cb2b0c1c4e9a7def</title>
<path fill="none" stroke="black" d="M401.734,-215.801C395.111,-210.358 387.474,-204.574 379.99,-200 370.098,-193.956 359.047,-188.333 348.317,-183.388"/>
<polygon fill="black" stroke="black" points="349.565,-180.112 339.008,-179.223 346.707,-186.501 349.565,-180.112"/>
<g id="a_edge27&#45;headlabel"><a xlink:href="dir_000004_000000.xhtml" target="_top" xlink:title="1381">
<text text-anchor="middle" x="354.006" y="-176.488" font-family="Helvetica,sans-Serif" font-size="10.00">1381</text>
</a>
</g>
</g>
<!-- dir_aebb8dcc11953d78e620bbef0b9e2183&#45;&gt;dir_5815af820a9cc9481f1d0990a0d60286 -->
<g id="edge28" class="edge"><title>dir_aebb8dcc11953d78e620bbef0b9e2183&#45;&gt;dir_5815af820a9cc9481f1d0990a0d60286</title>
<path fill="none" stroke="black" d="M408.539,-215.873C386.895,-186.229 340.742,-123.578 299.99,-72 292.61,-62.6605 284.318,-52.5718 276.938,-43.7282"/>
<polygon fill="black" stroke="black" points="279.577,-41.4276 270.469,-36.0137 274.213,-45.9253 279.577,-41.4276"/>
<g id="a_edge28&#45;headlabel"><a xlink:href="dir_000004_000027.xhtml" target="_top" xlink:title="142">
<text text-anchor="middle" x="284.062" y="-39.8577" font-family="Helvetica,sans-Serif" font-size="10.00">142</text>
</a>
</g>
</g>
<!-- dir_5815af820a9cc9481f1d0990a0d60286&#45;&gt;dir_214608ef36d61442cb2b0c1c4e9a7def -->
<g id="edge31" class="edge"><title>dir_5815af820a9cc9481f1d0990a0d60286&#45;&gt;dir_214608ef36d61442cb2b0c1c4e9a7def</title>
<path fill="none" stroke="black" d="M265.544,-36.1893C275.138,-60.5311 288.337,-105.28 294.638,-134.059"/>
<polygon fill="black" stroke="black" points="291.211,-134.767 296.628,-143.871 298.071,-133.375 291.211,-134.767"/>
<g id="a_edge31&#45;headlabel"><a xlink:href="dir_000027_000000.xhtml" target="_top" xlink:title="6">
<text text-anchor="middle" x="287.714" y="-129.308" font-family="Helvetica,sans-Serif" font-size="10.00">6</text>
</a>
</g>
</g>
</g>
</svg>
