<?xml version="1.0" encoding="UTF-8" standalone="no"?>
<!DOCTYPE svg PUBLIC "-//W3C//DTD SVG 1.1//EN"
 "http://www.w3.org/Graphics/SVG/1.1/DTD/svg11.dtd">
<!-- Generated by graphviz version 2.38.0 (20140413.2041)
 -->
<!-- Title: src/core/NEON/kernels Pages: 1 -->
<svg width="595pt" height="375pt"
 viewBox="0.00 0.00 595.00 375.00" xmlns="http://www.w3.org/2000/svg" xmlns:xlink="http://www.w3.org/1999/xlink">
<g id="graph0" class="graph" transform="scale(1 1) rotate(0) translate(4 371)">
<title>src/core/NEON/kernels</title>
<polygon fill="white" stroke="none" points="-4,4 -4,-371 591,-371 591,4 -4,4"/>
<g id="clust1" class="cluster"><title>clusterdir_d91e1966cc57df4f49d1e07be7697713</title>
<g id="a_clust1"><a xlink:href="dir_d91e1966cc57df4f49d1e07be7697713.xhtml" target="_top" xlink:title="NEON">
<polygon fill="#ddddee" stroke="black" points="8,-128 8,-359 261,-359 261,-128 8,-128"/>
<text text-anchor="middle" x="134.5" y="-347" font-family="Helvetica,sans-Serif" font-size="10.00">NEON</text>
</a>
</g>
</g>
<g id="clust2" class="cluster"><title>clusterdir_1ce938f580a6f304b99685e2c1dd19db</title>
<g id="a_clust2"><a xlink:href="dir_1ce938f580a6f304b99685e2c1dd19db.xhtml" target="_top">
<polygon fill="#eeeeff" stroke="black" points="16,-136 16,-332 253,-332 253,-136 16,-136"/>
</a>
</g>
</g>
<!-- dir_1ce938f580a6f304b99685e2c1dd19db -->
<g id="node1" class="node"><title>dir_1ce938f580a6f304b99685e2c1dd19db</title>
<text text-anchor="middle" x="218" y="-303.5" font-family="Helvetica,sans-Serif" font-size="10.00">kernels</text>
</g>
<!-- dir_f5eb3f990fb66d2a1104d2728906b7d4 -->
<g id="node4" class="node"><title>dir_f5eb3f990fb66d2a1104d2728906b7d4</title>
<g id="a_node4"><a xlink:href="dir_f5eb3f990fb66d2a1104d2728906b7d4.xhtml" target="_top" xlink:title="batchnormalization">
<polygon fill="white" stroke="red" points="224.5,-252 115.5,-252 115.5,-216 224.5,-216 224.5,-252"/>
<text text-anchor="middle" x="170" y="-231.5" font-family="Helvetica,sans-Serif" font-size="10.00">batchnormalization</text>
</a>
</g>
</g>
<!-- dir_1ce938f580a6f304b99685e2c1dd19db&#45;&gt;dir_f5eb3f990fb66d2a1104d2728906b7d4 -->
<g id="edge16" class="edge"><title>dir_1ce938f580a6f304b99685e2c1dd19db&#45;&gt;dir_f5eb3f990fb66d2a1104d2728906b7d4</title>
<path fill="none" stroke="black" d="M206.135,-287.697C200.497,-279.474 193.646,-269.483 187.431,-260.421"/>
<polygon fill="black" stroke="black" points="190.271,-258.372 181.729,-252.104 184.497,-262.331 190.271,-258.372"/>
<g id="a_edge16&#45;headlabel"><a xlink:href="dir_000100_000101.xhtml" target="_top" xlink:title="1">
<text text-anchor="middle" x="194.645" y="-257.231" font-family="Helvetica,sans-Serif" font-size="10.00">1</text>
</a>
</g>
</g>
<!-- dir_47c52b626b579a630a004d74c906e8a5 -->
<g id="node5" class="node"><title>dir_47c52b626b579a630a004d74c906e8a5</title>
<g id="a_node5"><a xlink:href="dir_47c52b626b579a630a004d74c906e8a5.xhtml" target="_top" xlink:title="detail">
<polygon fill="white" stroke="black" points="226,-180 172,-180 172,-144 226,-144 226,-180"/>
<text text-anchor="middle" x="199" y="-159.5" font-family="Helvetica,sans-Serif" font-size="10.00">detail</text>
</a>
</g>
</g>
<!-- dir_1ce938f580a6f304b99685e2c1dd19db&#45;&gt;dir_47c52b626b579a630a004d74c906e8a5 -->
<g id="edge17" class="edge"><title>dir_1ce938f580a6f304b99685e2c1dd19db&#45;&gt;dir_47c52b626b579a630a004d74c906e8a5</title>
<path fill="none" stroke="black" d="M225.471,-287.666C232.238,-269.529 240.142,-240.359 233,-216 230.199,-206.447 225.089,-196.984 219.667,-188.756"/>
<polygon fill="black" stroke="black" points="222.376,-186.525 213.755,-180.366 216.654,-190.557 222.376,-186.525"/>
<g id="a_edge17&#45;headlabel"><a xlink:href="dir_000100_000214.xhtml" target="_top" xlink:title="4">
<text text-anchor="middle" x="226.767" y="-185.328" font-family="Helvetica,sans-Serif" font-size="10.00">4</text>
</a>
</g>
</g>
<!-- dir_34b4cee2b5900b653deb3438fc906cf4 -->
<g id="node6" class="node"><title>dir_34b4cee2b5900b653deb3438fc906cf4</title>
<g id="a_node6"><a xlink:href="dir_34b4cee2b5900b653deb3438fc906cf4.xhtml" target="_top" xlink:title="common">
<polygon fill="none" stroke="black" points="360.5,-252 301.5,-252 301.5,-216 360.5,-216 360.5,-252"/>
<text text-anchor="middle" x="331" y="-231.5" font-family="Helvetica,sans-Serif" font-size="10.00">common</text>
</a>
</g>
</g>
<!-- dir_1ce938f580a6f304b99685e2c1dd19db&#45;&gt;dir_34b4cee2b5900b653deb3438fc906cf4 -->
<g id="edge15" class="edge"><title>dir_1ce938f580a6f304b99685e2c1dd19db&#45;&gt;dir_34b4cee2b5900b653deb3438fc906cf4</title>
<path fill="none" stroke="black" d="M245.066,-288.233C259.941,-279.019 278.592,-267.465 294.713,-257.479"/>
<polygon fill="black" stroke="black" points="296.712,-260.358 303.37,-252.116 293.025,-254.407 296.712,-260.358"/>
<g id="a_edge15&#45;headlabel"><a xlink:href="dir_000100_000039.xhtml" target="_top" xlink:title="1">
<text text-anchor="middle" x="295.151" y="-262.164" font-family="Helvetica,sans-Serif" font-size="10.00">1</text>
</a>
</g>
</g>
<!-- dir_707aa52d67938117542c6646238d6f70 -->
<g id="node8" class="node"><title>dir_707aa52d67938117542c6646238d6f70</title>
<g id="a_node8"><a xlink:href="dir_707aa52d67938117542c6646238d6f70.xhtml" target="_top" xlink:title="helpers">
<polygon fill="none" stroke="black" points="477,-180 423,-180 423,-144 477,-144 477,-180"/>
<text text-anchor="middle" x="450" y="-159.5" font-family="Helvetica,sans-Serif" font-size="10.00">helpers</text>
</a>
</g>
</g>
<!-- dir_1ce938f580a6f304b99685e2c1dd19db&#45;&gt;dir_707aa52d67938117542c6646238d6f70 -->
<g id="edge18" class="edge"><title>dir_1ce938f580a6f304b99685e2c1dd19db&#45;&gt;dir_707aa52d67938117542c6646238d6f70</title>
<path fill="none" stroke="black" d="M245.233,-302.759C300.236,-297.618 421.524,-282.96 447,-252 460.925,-235.078 460.349,-209.609 457.061,-190.246"/>
<polygon fill="black" stroke="black" points="460.444,-189.317 455.031,-180.21 453.583,-190.705 460.444,-189.317"/>
<g id="a_edge18&#45;headlabel"><a xlink:href="dir_000100_000029.xhtml" target="_top" xlink:title="115">
<text text-anchor="middle" x="463.94" y="-189.777" font-family="Helvetica,sans-Serif" font-size="10.00">115</text>
</a>
</g>
</g>
<!-- dir_a8053b3d69cfefb2b2e6ec7bf9dd5c1a -->
<g id="node10" class="node"><title>dir_a8053b3d69cfefb2b2e6ec7bf9dd5c1a</title>
<g id="a_node10"><a xlink:href="dir_a8053b3d69cfefb2b2e6ec7bf9dd5c1a.xhtml" target="_top" xlink:title="utils">
<polygon fill="white" stroke="red" points="587,-180 533,-180 533,-144 587,-144 587,-180"/>
<text text-anchor="middle" x="560" y="-159.5" font-family="Helvetica,sans-Serif" font-size="10.00">utils</text>
</a>
</g>
</g>
<!-- dir_1ce938f580a6f304b99685e2c1dd19db&#45;&gt;dir_a8053b3d69cfefb2b2e6ec7bf9dd5c1a -->
<g id="edge19" class="edge"><title>dir_1ce938f580a6f304b99685e2c1dd19db&#45;&gt;dir_a8053b3d69cfefb2b2e6ec7bf9dd5c1a</title>
<path fill="none" stroke="black" d="M245.216,-304.999C318.282,-304.367 515.981,-298.327 557,-252 571.682,-235.418 570.871,-209.525 567.31,-189.934"/>
<polygon fill="black" stroke="black" points="570.715,-189.117 565.197,-180.073 563.87,-190.584 570.715,-189.117"/>
<g id="a_edge19&#45;headlabel"><a xlink:href="dir_000100_000114.xhtml" target="_top" xlink:title="3">
<text text-anchor="middle" x="574.244" y="-189.538" font-family="Helvetica,sans-Serif" font-size="10.00">3</text>
</a>
</g>
</g>
<!-- dir_1d7cadfed01c895b25460177608d44e9 -->
<g id="node11" class="node"><title>dir_1d7cadfed01c895b25460177608d44e9</title>
<g id="a_node11"><a xlink:href="dir_1d7cadfed01c895b25460177608d44e9.xhtml" target="_top" xlink:title="CPP">
<polygon fill="white" stroke="red" points="548,-252 494,-252 494,-216 548,-216 548,-252"/>
<text text-anchor="middle" x="521" y="-231.5" font-family="Helvetica,sans-Serif" font-size="10.00">CPP</text>
</a>
</g>
</g>
<!-- dir_1ce938f580a6f304b99685e2c1dd19db&#45;&gt;dir_1d7cadfed01c895b25460177608d44e9 -->
<g id="edge20" class="edge"><title>dir_1ce938f580a6f304b99685e2c1dd19db&#45;&gt;dir_1d7cadfed01c895b25460177608d44e9</title>
<path fill="none" stroke="black" d="M245.207,-301.272C293.285,-294.295 396.113,-277.612 480,-252 481.428,-251.564 482.875,-251.097 484.329,-250.605"/>
<polygon fill="black" stroke="black" points="485.738,-253.817 493.922,-247.088 483.328,-247.244 485.738,-253.817"/>
<g id="a_edge20&#45;headlabel"><a xlink:href="dir_000100_000044.xhtml" target="_top" xlink:title="21">
<text text-anchor="middle" x="483.34" y="-255.22" font-family="Helvetica,sans-Serif" font-size="10.00">21</text>
</a>
</g>
</g>
<!-- dir_fdedb0aba14d44ce9d99bc100e026e6a -->
<g id="node13" class="node"><title>dir_fdedb0aba14d44ce9d99bc100e026e6a</title>
<g id="a_node13"><a xlink:href="dir_fdedb0aba14d44ce9d99bc100e026e6a.xhtml" target="_top" xlink:title="common">
<polygon fill="white" stroke="red" points="437.5,-252 378.5,-252 378.5,-216 437.5,-216 437.5,-252"/>
<text text-anchor="middle" x="408" y="-231.5" font-family="Helvetica,sans-Serif" font-size="10.00">common</text>
</a>
</g>
</g>
<!-- dir_1ce938f580a6f304b99685e2c1dd19db&#45;&gt;dir_fdedb0aba14d44ce9d99bc100e026e6a -->
<g id="edge21" class="edge"><title>dir_1ce938f580a6f304b99685e2c1dd19db&#45;&gt;dir_fdedb0aba14d44ce9d99bc100e026e6a</title>
<path fill="none" stroke="black" d="M245.225,-296.116C275.632,-286.038 326.203,-268.812 369,-252 369.095,-251.963 369.189,-251.926 369.284,-251.888"/>
<polygon fill="black" stroke="black" points="370.344,-255.236 378.284,-248.221 367.702,-248.754 370.344,-255.236"/>
<g id="a_edge21&#45;headlabel"><a xlink:href="dir_000100_000017.xhtml" target="_top" xlink:title="1">
<text text-anchor="middle" x="368.086" y="-256.722" font-family="Helvetica,sans-Serif" font-size="10.00">1</text>
</a>
</g>
</g>
<!-- dir_ea98ae4f30fbc97db6231c6535bdb2d9 -->
<g id="node2" class="node"><title>dir_ea98ae4f30fbc97db6231c6535bdb2d9</title>
<g id="a_node2"><a xlink:href="dir_ea98ae4f30fbc97db6231c6535bdb2d9.xhtml" target="_top" xlink:title="arm_conv">
<polygon fill="white" stroke="red" points="133,-324 69,-324 69,-288 133,-288 133,-324"/>
<text text-anchor="middle" x="101" y="-303.5" font-family="Helvetica,sans-Serif" font-size="10.00">arm_conv</text>
</a>
</g>
</g>
<!-- dir_9847dd9cb7a28e46201717fa7336cf62 -->
<g id="node3" class="node"><title>dir_9847dd9cb7a28e46201717fa7336cf62</title>
<g id="a_node3"><a xlink:href="dir_9847dd9cb7a28e46201717fa7336cf62.xhtml" target="_top" xlink:title="arm_gemm">
<polygon fill="white" stroke="red" points="97.5,-252 24.5,-252 24.5,-216 97.5,-216 97.5,-252"/>
<text text-anchor="middle" x="61" y="-231.5" font-family="Helvetica,sans-Serif" font-size="10.00">arm_gemm</text>
</a>
</g>
</g>
<!-- dir_ea98ae4f30fbc97db6231c6535bdb2d9&#45;&gt;dir_9847dd9cb7a28e46201717fa7336cf62 -->
<g id="edge12" class="edge"><title>dir_ea98ae4f30fbc97db6231c6535bdb2d9&#45;&gt;dir_9847dd9cb7a28e46201717fa7336cf62</title>
<path fill="none" stroke="black" d="M91.1124,-287.697C86.5107,-279.644 80.9397,-269.894 75.8471,-260.982"/>
<polygon fill="black" stroke="black" points="78.7742,-259.05 70.7739,-252.104 72.6965,-262.523 78.7742,-259.05"/>
<g id="a_edge12&#45;headlabel"><a xlink:href="dir_000116_000156.xhtml" target="_top" xlink:title="3">
<text text-anchor="middle" x="83.0228" y="-258.263" font-family="Helvetica,sans-Serif" font-size="10.00">3</text>
</a>
</g>
</g>
<!-- dir_214608ef36d61442cb2b0c1c4e9a7def -->
<g id="node9" class="node"><title>dir_214608ef36d61442cb2b0c1c4e9a7def</title>
<g id="a_node9"><a xlink:href="dir_214608ef36d61442cb2b0c1c4e9a7def.xhtml" target="_top" xlink:title="arm_compute">
<polygon fill="white" stroke="red" points="358,-108 274,-108 274,-72 358,-72 358,-108"/>
<text text-anchor="middle" x="316" y="-87.5" font-family="Helvetica,sans-Serif" font-size="10.00">arm_compute</text>
</a>
</g>
</g>
<!-- dir_ea98ae4f30fbc97db6231c6535bdb2d9&#45;&gt;dir_214608ef36d61442cb2b0c1c4e9a7def -->
<g id="edge11" class="edge"><title>dir_ea98ae4f30fbc97db6231c6535bdb2d9&#45;&gt;dir_214608ef36d61442cb2b0c1c4e9a7def</title>
<path fill="none" stroke="black" d="M133.149,-298.727C162.174,-291.649 204.566,-277.625 233,-252 274.035,-215.019 297.835,-152.984 308.732,-117.69"/>
<polygon fill="black" stroke="black" points="312.097,-118.653 311.585,-108.07 305.386,-116.662 312.097,-118.653"/>
<g id="a_edge11&#45;headlabel"><a xlink:href="dir_000116_000000.xhtml" target="_top" xlink:title="1">
<text text-anchor="middle" x="313.797" y="-120.406" font-family="Helvetica,sans-Serif" font-size="10.00">1</text>
</a>
</g>
</g>
<!-- dir_5815af820a9cc9481f1d0990a0d60286 -->
<g id="node12" class="node"><title>dir_5815af820a9cc9481f1d0990a0d60286</title>
<g id="a_node12"><a xlink:href="dir_5815af820a9cc9481f1d0990a0d60286.xhtml" target="_top" xlink:title="support">
<polygon fill="none" stroke="black" points="343,-36 289,-36 289,-0 343,-0 343,-36"/>
<text text-anchor="middle" x="316" y="-15.5" font-family="Helvetica,sans-Serif" font-size="10.00">support</text>
</a>
</g>
</g>
<!-- dir_9847dd9cb7a28e46201717fa7336cf62&#45;&gt;dir_5815af820a9cc9481f1d0990a0d60286 -->
<g id="edge24" class="edge"><title>dir_9847dd9cb7a28e46201717fa7336cf62&#45;&gt;dir_5815af820a9cc9481f1d0990a0d60286</title>
<path fill="none" stroke="black" d="M64.2592,-215.858C71.4099,-182.993 91.5967,-110.932 137,-72 177.315,-37.4315 239.355,-25.402 278.793,-21.2207"/>
<polygon fill="black" stroke="black" points="279.166,-24.7012 288.793,-20.2773 278.508,-17.7322 279.166,-24.7012"/>
<g id="a_edge24&#45;headlabel"><a xlink:href="dir_000156_000027.xhtml" target="_top" xlink:title="1">
<text text-anchor="middle" x="275.853" y="-25.3655" font-family="Helvetica,sans-Serif" font-size="10.00">1</text>
</a>
</g>
</g>
<!-- dir_f5eb3f990fb66d2a1104d2728906b7d4&#45;&gt;dir_47c52b626b579a630a004d74c906e8a5 -->
<g id="edge2" class="edge"><title>dir_f5eb3f990fb66d2a1104d2728906b7d4&#45;&gt;dir_47c52b626b579a630a004d74c906e8a5</title>
<path fill="none" stroke="black" d="M177.169,-215.697C180.435,-207.813 184.374,-198.304 188.002,-189.546"/>
<polygon fill="black" stroke="black" points="191.32,-190.683 191.914,-180.104 184.853,-188.003 191.32,-190.683"/>
<g id="a_edge2&#45;headlabel"><a xlink:href="dir_000101_000214.xhtml" target="_top" xlink:title="2">
<text text-anchor="middle" x="192.567" y="-192.59" font-family="Helvetica,sans-Serif" font-size="10.00">2</text>
</a>
</g>
</g>
<!-- dir_8224aa485683c095eaa3fd7faa788467 -->
<g id="node7" class="node"><title>dir_8224aa485683c095eaa3fd7faa788467</title>
<g id="a_node7"><a xlink:href="dir_8224aa485683c095eaa3fd7faa788467.xhtml" target="_top" xlink:title="wrapper">
<polygon fill="white" stroke="red" points="201.5,-108 146.5,-108 146.5,-72 201.5,-72 201.5,-108"/>
<text text-anchor="middle" x="174" y="-87.5" font-family="Helvetica,sans-Serif" font-size="10.00">wrapper</text>
</a>
</g>
</g>
<!-- dir_f5eb3f990fb66d2a1104d2728906b7d4&#45;&gt;dir_8224aa485683c095eaa3fd7faa788467 -->
<g id="edge1" class="edge"><title>dir_f5eb3f990fb66d2a1104d2728906b7d4&#45;&gt;dir_8224aa485683c095eaa3fd7faa788467</title>
<path fill="none" stroke="black" d="M166.647,-215.818C163.082,-194.953 158.528,-158.735 163,-128 163.482,-124.684 164.196,-121.252 165.032,-117.876"/>
<polygon fill="black" stroke="black" points="168.447,-118.661 167.799,-108.086 161.711,-116.757 168.447,-118.661"/>
<g id="a_edge1&#45;headlabel"><a xlink:href="dir_000101_000025.xhtml" target="_top" xlink:title="2">
<text text-anchor="middle" x="170.202" y="-120.392" font-family="Helvetica,sans-Serif" font-size="10.00">2</text>
</a>
</g>
</g>
<!-- dir_f5eb3f990fb66d2a1104d2728906b7d4&#45;&gt;dir_214608ef36d61442cb2b0c1c4e9a7def -->
<g id="edge3" class="edge"><title>dir_f5eb3f990fb66d2a1104d2728906b7d4&#45;&gt;dir_214608ef36d61442cb2b0c1c4e9a7def</title>
<path fill="none" stroke="black" d="M193.191,-215.88C206.033,-205.969 221.983,-192.928 235,-180 256.279,-158.868 257.672,-150.048 278,-128 281.823,-123.854 285.992,-119.573 290.122,-115.46"/>
<polygon fill="black" stroke="black" points="292.736,-117.8 297.433,-108.303 287.839,-112.798 292.736,-117.8"/>
<g id="a_edge3&#45;headlabel"><a xlink:href="dir_000101_000000.xhtml" target="_top" xlink:title="12">
<text text-anchor="middle" x="292.153" y="-119.844" font-family="Helvetica,sans-Serif" font-size="10.00">12</text>
</a>
</g>
</g>
<!-- dir_47c52b626b579a630a004d74c906e8a5&#45;&gt;dir_8224aa485683c095eaa3fd7faa788467 -->
<g id="edge4" class="edge"><title>dir_47c52b626b579a630a004d74c906e8a5&#45;&gt;dir_8224aa485683c095eaa3fd7faa788467</title>
<path fill="none" stroke="black" d="M192.82,-143.697C190.005,-135.813 186.609,-126.304 183.481,-117.546"/>
<polygon fill="black" stroke="black" points="186.768,-116.345 180.109,-108.104 180.176,-118.699 186.768,-116.345"/>
<g id="a_edge4&#45;headlabel"><a xlink:href="dir_000214_000025.xhtml" target="_top" xlink:title="2">
<text text-anchor="middle" x="190.651" y="-116.275" font-family="Helvetica,sans-Serif" font-size="10.00">2</text>
</a>
</g>
</g>
<!-- dir_47c52b626b579a630a004d74c906e8a5&#45;&gt;dir_214608ef36d61442cb2b0c1c4e9a7def -->
<g id="edge5" class="edge"><title>dir_47c52b626b579a630a004d74c906e8a5&#45;&gt;dir_214608ef36d61442cb2b0c1c4e9a7def</title>
<path fill="none" stroke="black" d="M218.348,-143.949C224.976,-138.515 232.593,-132.699 240,-128 248.643,-122.516 258.218,-117.274 267.576,-112.549"/>
<polygon fill="black" stroke="black" points="269.388,-115.558 276.818,-108.006 266.3,-109.276 269.388,-115.558"/>
<g id="a_edge5&#45;headlabel"><a xlink:href="dir_000214_000000.xhtml" target="_top" xlink:title="3">
<text text-anchor="middle" x="267.414" y="-117.192" font-family="Helvetica,sans-Serif" font-size="10.00">3</text>
</a>
</g>
</g>
<!-- dir_47c52b626b579a630a004d74c906e8a5&#45;&gt;dir_5815af820a9cc9481f1d0990a0d60286 -->
<g id="edge6" class="edge"><title>dir_47c52b626b579a630a004d74c906e8a5&#45;&gt;dir_5815af820a9cc9481f1d0990a0d60286</title>
<path fill="none" stroke="black" d="M210.785,-143.775C223.53,-125.475 244.749,-95.9388 265,-72 273.165,-62.3483 282.642,-52.2354 291.195,-43.4614"/>
<polygon fill="black" stroke="black" points="293.886,-45.7176 298.417,-36.1408 288.903,-40.8013 293.886,-45.7176"/>
<g id="a_edge6&#45;headlabel"><a xlink:href="dir_000214_000027.xhtml" target="_top" xlink:title="1">
<text text-anchor="middle" x="293.382" y="-47.7705" font-family="Helvetica,sans-Serif" font-size="10.00">1</text>
</a>
</g>
</g>
<!-- dir_707aa52d67938117542c6646238d6f70&#45;&gt;dir_214608ef36d61442cb2b0c1c4e9a7def -->
<g id="edge7" class="edge"><title>dir_707aa52d67938117542c6646238d6f70&#45;&gt;dir_214608ef36d61442cb2b0c1c4e9a7def</title>
<path fill="none" stroke="black" d="M422.883,-146.834C404.23,-137.09 379.093,-123.959 357.883,-112.879"/>
<polygon fill="black" stroke="black" points="359.243,-109.641 348.759,-108.113 356.002,-115.845 359.243,-109.641"/>
<g id="a_edge7&#45;headlabel"><a xlink:href="dir_000029_000000.xhtml" target="_top" xlink:title="11">
<text text-anchor="middle" x="363.743" y="-106.288" font-family="Helvetica,sans-Serif" font-size="10.00">11</text>
</a>
</g>
</g>
<!-- dir_214608ef36d61442cb2b0c1c4e9a7def&#45;&gt;dir_5815af820a9cc9481f1d0990a0d60286 -->
<g id="edge8" class="edge"><title>dir_214608ef36d61442cb2b0c1c4e9a7def&#45;&gt;dir_5815af820a9cc9481f1d0990a0d60286</title>
<path fill="none" stroke="black" d="M310.084,-71.6966C309.289,-63.9827 309.062,-54.7125 309.405,-46.1124"/>
<polygon fill="black" stroke="black" points="312.898,-46.3243 310.105,-36.1043 305.915,-45.8356 312.898,-46.3243"/>
<g id="a_edge8&#45;headlabel"><a xlink:href="dir_000000_000027.xhtml" target="_top" xlink:title="17">
<text text-anchor="middle" x="315.48" y="-47.6083" font-family="Helvetica,sans-Serif" font-size="10.00">17</text>
</a>
</g>
</g>
<!-- dir_a8053b3d69cfefb2b2e6ec7bf9dd5c1a&#45;&gt;dir_214608ef36d61442cb2b0c1c4e9a7def -->
<g id="edge9" class="edge"><title>dir_a8053b3d69cfefb2b2e6ec7bf9dd5c1a&#45;&gt;dir_214608ef36d61442cb2b0c1c4e9a7def</title>
<path fill="none" stroke="black" d="M542.541,-143.751C535.706,-137.903 527.475,-131.877 519,-128 470.846,-105.974 410.623,-97.0483 368.322,-93.4378"/>
<polygon fill="black" stroke="black" points="368.483,-89.9398 358.241,-92.6487 367.937,-96.9184 368.483,-89.9398"/>
<g id="a_edge9&#45;headlabel"><a xlink:href="dir_000114_000000.xhtml" target="_top" xlink:title="15">
<text text-anchor="middle" x="372.289" y="-84.8896" font-family="Helvetica,sans-Serif" font-size="10.00">15</text>
</a>
</g>
</g>
<!-- dir_a8053b3d69cfefb2b2e6ec7bf9dd5c1a&#45;&gt;dir_5815af820a9cc9481f1d0990a0d60286 -->
<g id="edge10" class="edge"><title>dir_a8053b3d69cfefb2b2e6ec7bf9dd5c1a&#45;&gt;dir_5815af820a9cc9481f1d0990a0d60286</title>
<path fill="none" stroke="black" d="M536.969,-143.662C529.74,-138.443 521.648,-132.824 514,-128 459.04,-93.3308 392.332,-57.904 352.072,-37.207"/>
<polygon fill="black" stroke="black" points="353.66,-34.0879 343.164,-32.6459 350.47,-40.3187 353.66,-34.0879"/>
<g id="a_edge10&#45;headlabel"><a xlink:href="dir_000114_000027.xhtml" target="_top" xlink:title="3">
<text text-anchor="middle" x="358.154" y="-30.6988" font-family="Helvetica,sans-Serif" font-size="10.00">3</text>
</a>
</g>
</g>
<!-- dir_1d7cadfed01c895b25460177608d44e9&#45;&gt;dir_707aa52d67938117542c6646238d6f70 -->
<g id="edge13" class="edge"><title>dir_1d7cadfed01c895b25460177608d44e9&#45;&gt;dir_707aa52d67938117542c6646238d6f70</title>
<path fill="none" stroke="black" d="M503.449,-215.697C494.766,-207.135 484.137,-196.656 474.652,-187.304"/>
<polygon fill="black" stroke="black" points="476.927,-184.633 467.349,-180.104 472.012,-189.617 476.927,-184.633"/>
<g id="a_edge13&#45;headlabel"><a xlink:href="dir_000044_000029.xhtml" target="_top" xlink:title="9">
<text text-anchor="middle" x="481.48" y="-182.635" font-family="Helvetica,sans-Serif" font-size="10.00">9</text>
</a>
</g>
</g>
<!-- dir_1d7cadfed01c895b25460177608d44e9&#45;&gt;dir_214608ef36d61442cb2b0c1c4e9a7def -->
<g id="edge14" class="edge"><title>dir_1d7cadfed01c895b25460177608d44e9&#45;&gt;dir_214608ef36d61442cb2b0c1c4e9a7def</title>
<path fill="none" stroke="black" d="M520.288,-215.666C518.35,-192.219 511.306,-150.723 486,-128 468.835,-112.587 411.627,-102.394 368.274,-96.6793"/>
<polygon fill="black" stroke="black" points="368.504,-93.1804 358.143,-95.3908 367.621,-100.124 368.504,-93.1804"/>
<g id="a_edge14&#45;headlabel"><a xlink:href="dir_000044_000000.xhtml" target="_top" xlink:title="21">
<text text-anchor="middle" x="372.428" y="-88.3172" font-family="Helvetica,sans-Serif" font-size="10.00">21</text>
</a>
</g>
</g>
<!-- dir_5815af820a9cc9481f1d0990a0d60286&#45;&gt;dir_214608ef36d61442cb2b0c1c4e9a7def -->
<g id="edge22" class="edge"><title>dir_5815af820a9cc9481f1d0990a0d60286&#45;&gt;dir_214608ef36d61442cb2b0c1c4e9a7def</title>
<path fill="none" stroke="black" d="M321.895,-36.1043C322.701,-43.7913 322.937,-53.0537 322.604,-61.6651"/>
<polygon fill="black" stroke="black" points="319.109,-61.4805 321.916,-71.6966 326.092,-61.9597 319.109,-61.4805"/>
<g id="a_edge22&#45;headlabel"><a xlink:href="dir_000027_000000.xhtml" target="_top" xlink:title="6">
<text text-anchor="middle" x="316.522" y="-55.2" font-family="Helvetica,sans-Serif" font-size="10.00">6</text>
</a>
</g>
</g>
<!-- dir_fdedb0aba14d44ce9d99bc100e026e6a&#45;&gt;dir_214608ef36d61442cb2b0c1c4e9a7def -->
<g id="edge23" class="edge"><title>dir_fdedb0aba14d44ce9d99bc100e026e6a&#45;&gt;dir_214608ef36d61442cb2b0c1c4e9a7def</title>
<path fill="none" stroke="black" d="M396.903,-215.871C380.947,-191.244 351.399,-145.638 332.77,-116.885"/>
<polygon fill="black" stroke="black" points="335.512,-114.679 327.137,-108.189 329.637,-118.485 335.512,-114.679"/>
<g id="a_edge23&#45;headlabel"><a xlink:href="dir_000017_000000.xhtml" target="_top" xlink:title="9">
<text text-anchor="middle" x="339.849" y="-113.652" font-family="Helvetica,sans-Serif" font-size="10.00">9</text>
</a>
</g>
</g>
</g>
</svg>
