<?xml version="1.0" encoding="UTF-8" standalone="no"?>
<!DOCTYPE svg PUBLIC "-//W3C//DTD SVG 1.1//EN"
 "http://www.w3.org/Graphics/SVG/1.1/DTD/svg11.dtd">
<!-- Generated by graphviz version 2.38.0 (20140413.2041)
 -->
<!-- Title: utils Pages: 1 -->
<svg width="199pt" height="204pt"
 viewBox="0.00 0.00 199.00 204.00" xmlns="http://www.w3.org/2000/svg" xmlns:xlink="http://www.w3.org/1999/xlink">
<g id="graph0" class="graph" transform="scale(1 1) rotate(0) translate(4 200)">
<title>utils</title>
<polygon fill="white" stroke="none" points="-4,4 -4,-200 195,-200 195,4 -4,4"/>
<g id="clust1" class="cluster"><title>clusterdir_cbdb8362360e11eafe2fa3bc74cf0ffd</title>
<g id="a_clust1"><a xlink:href="dir_cbdb8362360e11eafe2fa3bc74cf0ffd.xhtml" target="_top">
<polygon fill="#eeeeff" stroke="black" points="8,-64 8,-188 112,-188 112,-64 8,-64"/>
</a>
</g>
</g>
<!-- dir_cbdb8362360e11eafe2fa3bc74cf0ffd -->
<g id="node1" class="node"><title>dir_cbdb8362360e11eafe2fa3bc74cf0ffd</title>
<text text-anchor="middle" x="68" y="-159.5" font-family="Helvetica,sans-Serif" font-size="10.00">utils</text>
</g>
<!-- dir_7e20423ab48dcd11e2e5380033c0b7a2 -->
<g id="node2" class="node"><title>dir_7e20423ab48dcd11e2e5380033c0b7a2</title>
<g id="a_node2"><a xlink:href="dir_7e20423ab48dcd11e2e5380033c0b7a2.xhtml" target="_top" xlink:title="command_line">
<polygon fill="white" stroke="black" points="103.5,-108 16.5,-108 16.5,-72 103.5,-72 103.5,-108"/>
<text text-anchor="middle" x="60" y="-87.5" font-family="Helvetica,sans-Serif" font-size="10.00">command_line</text>
</a>
</g>
</g>
<!-- dir_cbdb8362360e11eafe2fa3bc74cf0ffd&#45;&gt;dir_7e20423ab48dcd11e2e5380033c0b7a2 -->
<g id="edge1" class="edge"><title>dir_cbdb8362360e11eafe2fa3bc74cf0ffd&#45;&gt;dir_7e20423ab48dcd11e2e5380033c0b7a2</title>
<path fill="none" stroke="black" d="M66.0225,-143.697C65.1409,-135.983 64.0814,-126.712 63.0986,-118.112"/>
<polygon fill="black" stroke="black" points="66.5677,-117.642 61.9548,-108.104 59.613,-118.437 66.5677,-117.642"/>
<g id="a_edge1&#45;headlabel"><a xlink:href="dir_000035_000257.xhtml" target="_top" xlink:title="2">
<text text-anchor="middle" x="69.7967" y="-118.391" font-family="Helvetica,sans-Serif" font-size="10.00">2</text>
</a>
</g>
</g>
<!-- dir_5815af820a9cc9481f1d0990a0d60286 -->
<g id="node4" class="node"><title>dir_5815af820a9cc9481f1d0990a0d60286</title>
<g id="a_node4"><a xlink:href="dir_5815af820a9cc9481f1d0990a0d60286.xhtml" target="_top" xlink:title="support">
<polygon fill="none" stroke="black" points="176,-108 122,-108 122,-72 176,-72 176,-108"/>
<text text-anchor="middle" x="149" y="-87.5" font-family="Helvetica,sans-Serif" font-size="10.00">support</text>
</a>
</g>
</g>
<!-- dir_cbdb8362360e11eafe2fa3bc74cf0ffd&#45;&gt;dir_5815af820a9cc9481f1d0990a0d60286 -->
<g id="edge2" class="edge"><title>dir_cbdb8362360e11eafe2fa3bc74cf0ffd&#45;&gt;dir_5815af820a9cc9481f1d0990a0d60286</title>
<path fill="none" stroke="black" d="M88.0225,-143.697C98.1256,-134.965 110.536,-124.24 121.518,-114.75"/>
<polygon fill="black" stroke="black" points="123.93,-117.291 129.208,-108.104 119.353,-111.995 123.93,-117.291"/>
<g id="a_edge2&#45;headlabel"><a xlink:href="dir_000035_000027.xhtml" target="_top" xlink:title="3">
<text text-anchor="middle" x="123.067" y="-119.29" font-family="Helvetica,sans-Serif" font-size="10.00">3</text>
</a>
</g>
</g>
<!-- dir_214608ef36d61442cb2b0c1c4e9a7def -->
<g id="node3" class="node"><title>dir_214608ef36d61442cb2b0c1c4e9a7def</title>
<g id="a_node3"><a xlink:href="dir_214608ef36d61442cb2b0c1c4e9a7def.xhtml" target="_top" xlink:title="arm_compute">
<polygon fill="white" stroke="red" points="191,-36 107,-36 107,-0 191,-0 191,-36"/>
<text text-anchor="middle" x="149" y="-15.5" font-family="Helvetica,sans-Serif" font-size="10.00">arm_compute</text>
</a>
</g>
</g>
<!-- dir_7e20423ab48dcd11e2e5380033c0b7a2&#45;&gt;dir_214608ef36d61442cb2b0c1c4e9a7def -->
<g id="edge3" class="edge"><title>dir_7e20423ab48dcd11e2e5380033c0b7a2&#45;&gt;dir_214608ef36d61442cb2b0c1c4e9a7def</title>
<path fill="none" stroke="black" d="M82,-71.6966C93.2088,-62.8807 107.002,-52.0321 119.154,-42.4742"/>
<polygon fill="black" stroke="black" points="121.557,-45.0375 127.253,-36.1043 117.229,-39.5354 121.557,-45.0375"/>
<g id="a_edge3&#45;headlabel"><a xlink:href="dir_000257_000000.xhtml" target="_top" xlink:title="1">
<text text-anchor="middle" x="120.487" y="-46.9914" font-family="Helvetica,sans-Serif" font-size="10.00">1</text>
</a>
</g>
</g>
<!-- dir_214608ef36d61442cb2b0c1c4e9a7def&#45;&gt;dir_5815af820a9cc9481f1d0990a0d60286 -->
<g id="edge4" class="edge"><title>dir_214608ef36d61442cb2b0c1c4e9a7def&#45;&gt;dir_5815af820a9cc9481f1d0990a0d60286</title>
<path fill="none" stroke="black" d="M154.895,-36.1043C155.701,-43.7913 155.937,-53.0537 155.604,-61.6651"/>
<polygon fill="black" stroke="black" points="152.109,-61.4805 154.916,-71.6966 159.092,-61.9597 152.109,-61.4805"/>
<g id="a_edge4&#45;headlabel"><a xlink:href="dir_000000_000027.xhtml" target="_top" xlink:title="17">
<text text-anchor="middle" x="149.522" y="-55.2" font-family="Helvetica,sans-Serif" font-size="10.00">17</text>
</a>
</g>
</g>
<!-- dir_5815af820a9cc9481f1d0990a0d60286&#45;&gt;dir_214608ef36d61442cb2b0c1c4e9a7def -->
<g id="edge5" class="edge"><title>dir_5815af820a9cc9481f1d0990a0d60286&#45;&gt;dir_214608ef36d61442cb2b0c1c4e9a7def</title>
<path fill="none" stroke="black" d="M143.084,-71.6966C142.289,-63.9827 142.062,-54.7125 142.405,-46.1124"/>
<polygon fill="black" stroke="black" points="145.898,-46.3243 143.105,-36.1043 138.915,-45.8356 145.898,-46.3243"/>
<g id="a_edge5&#45;headlabel"><a xlink:href="dir_000027_000000.xhtml" target="_top" xlink:title="6">
<text text-anchor="middle" x="148.48" y="-47.6083" font-family="Helvetica,sans-Serif" font-size="10.00">6</text>
</a>
</g>
</g>
</g>
</svg>
