<?xml version="1.0" encoding="UTF-8" standalone="no"?>
<!DOCTYPE svg PUBLIC "-//W3C//DTD SVG 1.1//EN"
 "http://www.w3.org/Graphics/SVG/1.1/DTD/svg11.dtd">
<!-- Generated by graphviz version 2.38.0 (20140413.2041)
 -->
<!-- Title: tests/validation/CL Pages: 1 -->
<svg width="327pt" height="375pt"
 viewBox="0.00 0.00 326.68 375.00" xmlns="http://www.w3.org/2000/svg" xmlns:xlink="http://www.w3.org/1999/xlink">
<g id="graph0" class="graph" transform="scale(1 1) rotate(0) translate(4 371)">
<title>tests/validation/CL</title>
<polygon fill="white" stroke="none" points="-4,4 -4,-371 322.682,-371 322.682,4 -4,4"/>
<g id="clust1" class="cluster"><title>clusterdir_e7c7b16542faa38cb4655ff1750d3604</title>
<g id="a_clust1"><a xlink:href="dir_e7c7b16542faa38cb4655ff1750d3604.xhtml" target="_top" xlink:title="validation">
<polygon fill="#ddddee" stroke="black" points="139.68,-272 139.68,-359 297.68,-359 297.68,-272 139.68,-272"/>
<text text-anchor="middle" x="218.68" y="-347" font-family="Helvetica,sans-Serif" font-size="10.00">validation</text>
</a>
</g>
</g>
<g id="clust2" class="cluster"><title>clusterdir_f7024513cd67abef53e86ee9382ac5ce</title>
<g id="a_clust2"><a xlink:href="dir_f7024513cd67abef53e86ee9382ac5ce.xhtml" target="_top">
<polygon fill="#eeeeff" stroke="black" points="147.68,-280 147.68,-332 289.68,-332 289.68,-280 147.68,-280"/>
</a>
</g>
</g>
<!-- dir_f7024513cd67abef53e86ee9382ac5ce -->
<g id="node1" class="node"><title>dir_f7024513cd67abef53e86ee9382ac5ce</title>
<text text-anchor="middle" x="254.68" y="-303.5" font-family="Helvetica,sans-Serif" font-size="10.00">CL</text>
</g>
<!-- dir_68267d1309a1af8e8297ef4c3efbcdba -->
<g id="node4" class="node"><title>dir_68267d1309a1af8e8297ef4c3efbcdba</title>
<g id="a_node4"><a xlink:href="dir_68267d1309a1af8e8297ef4c3efbcdba.xhtml" target="_top" xlink:title="src">
<polygon fill="white" stroke="red" points="250.68,-180 196.68,-180 196.68,-144 250.68,-144 250.68,-180"/>
<text text-anchor="middle" x="223.68" y="-159.5" font-family="Helvetica,sans-Serif" font-size="10.00">src</text>
</a>
</g>
</g>
<!-- dir_f7024513cd67abef53e86ee9382ac5ce&#45;&gt;dir_68267d1309a1af8e8297ef4c3efbcdba -->
<g id="edge16" class="edge"><title>dir_f7024513cd67abef53e86ee9382ac5ce&#45;&gt;dir_68267d1309a1af8e8297ef4c3efbcdba</title>
<path fill="none" stroke="black" d="M267.338,-287.844C279.141,-269.602 293.433,-240.114 282.68,-216 277.511,-204.407 268.413,-194.291 258.887,-186.091"/>
<polygon fill="black" stroke="black" points="260.855,-183.182 250.862,-179.663 256.479,-188.646 260.855,-183.182"/>
<g id="a_edge16&#45;headlabel"><a xlink:href="dir_000218_000003.xhtml" target="_top" xlink:title="47">
<text text-anchor="middle" x="265.435" y="-180.713" font-family="Helvetica,sans-Serif" font-size="10.00">47</text>
</a>
</g>
</g>
<!-- dir_cbdb8362360e11eafe2fa3bc74cf0ffd -->
<g id="node5" class="node"><title>dir_cbdb8362360e11eafe2fa3bc74cf0ffd</title>
<g id="a_node5"><a xlink:href="dir_cbdb8362360e11eafe2fa3bc74cf0ffd.xhtml" target="_top" xlink:title="utils">
<polygon fill="white" stroke="red" points="203.68,-108 149.68,-108 149.68,-72 203.68,-72 203.68,-108"/>
<text text-anchor="middle" x="176.68" y="-87.5" font-family="Helvetica,sans-Serif" font-size="10.00">utils</text>
</a>
</g>
</g>
<!-- dir_f7024513cd67abef53e86ee9382ac5ce&#45;&gt;dir_cbdb8362360e11eafe2fa3bc74cf0ffd -->
<g id="edge17" class="edge"><title>dir_f7024513cd67abef53e86ee9382ac5ce&#45;&gt;dir_cbdb8362360e11eafe2fa3bc74cf0ffd</title>
<path fill="none" stroke="black" d="M274.154,-287.918C283.501,-278.403 293.726,-265.723 298.68,-252 304.113,-236.951 302.611,-231.51 298.68,-216 289.739,-180.722 284.473,-170.642 259.68,-144 246.439,-129.771 228.589,-117.727 212.835,-108.734"/>
<polygon fill="black" stroke="black" points="214.303,-105.547 203.853,-103.799 210.931,-111.682 214.303,-105.547"/>
<g id="a_edge17&#45;headlabel"><a xlink:href="dir_000218_000035.xhtml" target="_top" xlink:title="4">
<text text-anchor="middle" x="218.82" y="-102.29" font-family="Helvetica,sans-Serif" font-size="10.00">4</text>
</a>
</g>
</g>
<!-- dir_9e71e2da941d3cafc4d98a9f6ae3de4f -->
<g id="node6" class="node"><title>dir_9e71e2da941d3cafc4d98a9f6ae3de4f</title>
<g id="a_node6"><a xlink:href="dir_9e71e2da941d3cafc4d98a9f6ae3de4f.xhtml" target="_top" xlink:title="framework">
<polygon fill="white" stroke="red" points="178.18,-180 111.18,-180 111.18,-144 178.18,-144 178.18,-180"/>
<text text-anchor="middle" x="144.68" y="-159.5" font-family="Helvetica,sans-Serif" font-size="10.00">framework</text>
</a>
</g>
</g>
<!-- dir_f7024513cd67abef53e86ee9382ac5ce&#45;&gt;dir_9e71e2da941d3cafc4d98a9f6ae3de4f -->
<g id="edge18" class="edge"><title>dir_f7024513cd67abef53e86ee9382ac5ce&#45;&gt;dir_9e71e2da941d3cafc4d98a9f6ae3de4f</title>
<path fill="none" stroke="black" d="M239.769,-287.531C231.132,-277.291 220.132,-264.041 210.68,-252 194.145,-230.934 176.075,-206.459 163.03,-188.513"/>
<polygon fill="black" stroke="black" points="165.76,-186.316 157.058,-180.271 160.091,-190.423 165.76,-186.316"/>
<g id="a_edge18&#45;headlabel"><a xlink:href="dir_000218_000033.xhtml" target="_top" xlink:title="326">
<text text-anchor="middle" x="170.168" y="-185.061" font-family="Helvetica,sans-Serif" font-size="10.00">326</text>
</a>
</g>
</g>
<!-- dir_214608ef36d61442cb2b0c1c4e9a7def -->
<g id="node7" class="node"><title>dir_214608ef36d61442cb2b0c1c4e9a7def</title>
<g id="a_node7"><a xlink:href="dir_214608ef36d61442cb2b0c1c4e9a7def.xhtml" target="_top" xlink:title="arm_compute">
<polygon fill="white" stroke="red" points="218.68,-36 134.68,-36 134.68,-0 218.68,-0 218.68,-36"/>
<text text-anchor="middle" x="176.68" y="-15.5" font-family="Helvetica,sans-Serif" font-size="10.00">arm_compute</text>
</a>
</g>
</g>
<!-- dir_f7024513cd67abef53e86ee9382ac5ce&#45;&gt;dir_214608ef36d61442cb2b0c1c4e9a7def -->
<g id="edge19" class="edge"><title>dir_f7024513cd67abef53e86ee9382ac5ce&#45;&gt;dir_214608ef36d61442cb2b0c1c4e9a7def</title>
<path fill="none" stroke="black" d="M281.684,-288.892C294.212,-279.8 307.824,-267.204 314.68,-252 321.257,-237.414 317.535,-231.743 314.68,-216 302.34,-147.946 300.186,-124.941 255.68,-72 245.663,-60.0848 232.314,-49.7592 219.444,-41.4678"/>
<polygon fill="black" stroke="black" points="221.008,-38.3205 210.657,-36.0581 217.338,-44.2813 221.008,-38.3205"/>
<g id="a_edge19&#45;headlabel"><a xlink:href="dir_000218_000000.xhtml" target="_top" xlink:title="439">
<text text-anchor="middle" x="225.557" y="-35.2872" font-family="Helvetica,sans-Serif" font-size="10.00">439</text>
</a>
</g>
</g>
<!-- dir_896191444cf08ec8ade6f88256cb2bdd -->
<g id="node8" class="node"><title>dir_896191444cf08ec8ade6f88256cb2bdd</title>
<g id="a_node8"><a xlink:href="dir_896191444cf08ec8ade6f88256cb2bdd.xhtml" target="_top" xlink:title="CL">
<polygon fill="none" stroke="black" points="273.68,-252 219.68,-252 219.68,-216 273.68,-216 273.68,-252"/>
<text text-anchor="middle" x="246.68" y="-231.5" font-family="Helvetica,sans-Serif" font-size="10.00">CL</text>
</a>
</g>
</g>
<!-- dir_f7024513cd67abef53e86ee9382ac5ce&#45;&gt;dir_896191444cf08ec8ade6f88256cb2bdd -->
<g id="edge20" class="edge"><title>dir_f7024513cd67abef53e86ee9382ac5ce&#45;&gt;dir_896191444cf08ec8ade6f88256cb2bdd</title>
<path fill="none" stroke="black" d="M252.703,-287.697C251.821,-279.983 250.762,-270.712 249.779,-262.112"/>
<polygon fill="black" stroke="black" points="253.248,-261.642 248.635,-252.104 246.293,-262.437 253.248,-261.642"/>
<g id="a_edge20&#45;headlabel"><a xlink:href="dir_000218_000251.xhtml" target="_top" xlink:title="133">
<text text-anchor="middle" x="256.477" y="-262.391" font-family="Helvetica,sans-Serif" font-size="10.00">133</text>
</a>
</g>
</g>
<!-- dir_4fe3055359cf5438733b5e64b064b197 -->
<g id="node2" class="node"><title>dir_4fe3055359cf5438733b5e64b064b197</title>
<g id="a_node2"><a xlink:href="dir_4fe3055359cf5438733b5e64b064b197.xhtml" target="_top" xlink:title="UNIT">
<polygon fill="white" stroke="black" points="209.68,-324 155.68,-324 155.68,-288 209.68,-288 209.68,-324"/>
<text text-anchor="middle" x="182.68" y="-303.5" font-family="Helvetica,sans-Serif" font-size="10.00">UNIT</text>
</a>
</g>
</g>
<!-- dir_46fdb196cebdbffe77dac340cde62f29 -->
<g id="node3" class="node"><title>dir_46fdb196cebdbffe77dac340cde62f29</title>
<g id="a_node3"><a xlink:href="dir_46fdb196cebdbffe77dac340cde62f29.xhtml" target="_top" xlink:title="reference">
<polygon fill="none" stroke="black" points="87.6801,-252 25.6801,-252 25.6801,-216 87.6801,-216 87.6801,-252"/>
<text text-anchor="middle" x="56.6801" y="-231.5" font-family="Helvetica,sans-Serif" font-size="10.00">reference</text>
</a>
</g>
</g>
<!-- dir_4fe3055359cf5438733b5e64b064b197&#45;&gt;dir_46fdb196cebdbffe77dac340cde62f29 -->
<g id="edge8" class="edge"><title>dir_4fe3055359cf5438733b5e64b064b197&#45;&gt;dir_46fdb196cebdbffe77dac340cde62f29</title>
<path fill="none" stroke="black" d="M155.65,-289.983C138.421,-280.412 115.794,-267.841 96.5248,-257.136"/>
<polygon fill="black" stroke="black" points="98.0983,-254.006 87.657,-252.209 94.6988,-260.125 98.0983,-254.006"/>
<g id="a_edge8&#45;headlabel"><a xlink:href="dir_000236_000034.xhtml" target="_top" xlink:title="1">
<text text-anchor="middle" x="102.619" y="-250.77" font-family="Helvetica,sans-Serif" font-size="10.00">1</text>
</a>
</g>
</g>
<!-- dir_4fe3055359cf5438733b5e64b064b197&#45;&gt;dir_68267d1309a1af8e8297ef4c3efbcdba -->
<g id="edge9" class="edge"><title>dir_4fe3055359cf5438733b5e64b064b197&#45;&gt;dir_68267d1309a1af8e8297ef4c3efbcdba</title>
<path fill="none" stroke="black" d="M187.626,-287.871C194.644,-263.564 207.563,-218.819 215.881,-190.013"/>
<polygon fill="black" stroke="black" points="219.306,-190.768 218.717,-180.189 212.58,-188.826 219.306,-190.768"/>
<g id="a_edge9&#45;headlabel"><a xlink:href="dir_000236_000003.xhtml" target="_top" xlink:title="20">
<text text-anchor="middle" x="221.036" y="-192.509" font-family="Helvetica,sans-Serif" font-size="10.00">20</text>
</a>
</g>
</g>
<!-- dir_4fe3055359cf5438733b5e64b064b197&#45;&gt;dir_9e71e2da941d3cafc4d98a9f6ae3de4f -->
<g id="edge10" class="edge"><title>dir_4fe3055359cf5438733b5e64b064b197&#45;&gt;dir_9e71e2da941d3cafc4d98a9f6ae3de4f</title>
<path fill="none" stroke="black" d="M163.641,-287.837C154.504,-278.3 144.512,-265.624 139.68,-252 132.632,-232.126 134.503,-208.195 137.796,-190.155"/>
<polygon fill="black" stroke="black" points="141.238,-190.793 139.842,-180.29 134.384,-189.371 141.238,-190.793"/>
<g id="a_edge10&#45;headlabel"><a xlink:href="dir_000236_000033.xhtml" target="_top" xlink:title="15">
<text text-anchor="middle" x="143.288" y="-192.389" font-family="Helvetica,sans-Serif" font-size="10.00">15</text>
</a>
</g>
</g>
<!-- dir_4fe3055359cf5438733b5e64b064b197&#45;&gt;dir_214608ef36d61442cb2b0c1c4e9a7def -->
<g id="edge11" class="edge"><title>dir_4fe3055359cf5438733b5e64b064b197&#45;&gt;dir_214608ef36d61442cb2b0c1c4e9a7def</title>
<path fill="none" stroke="black" d="M155.65,-305.378C117.436,-304.265 48.7112,-295.851 16.6801,-252 -24.9603,-194.994 16.8736,-156.072 94.6801,-72 105.73,-60.0598 120.021,-49.6231 133.568,-41.2408"/>
<polygon fill="black" stroke="black" points="135.517,-44.1542 142.322,-36.0339 131.938,-38.1379 135.517,-44.1542"/>
<g id="a_edge11&#45;headlabel"><a xlink:href="dir_000236_000000.xhtml" target="_top" xlink:title="24">
<text text-anchor="middle" x="133.879" y="-45.9319" font-family="Helvetica,sans-Serif" font-size="10.00">24</text>
</a>
</g>
</g>
<!-- dir_4fe3055359cf5438733b5e64b064b197&#45;&gt;dir_896191444cf08ec8ade6f88256cb2bdd -->
<g id="edge12" class="edge"><title>dir_4fe3055359cf5438733b5e64b064b197&#45;&gt;dir_896191444cf08ec8ade6f88256cb2bdd</title>
<path fill="none" stroke="black" d="M198.5,-287.697C206.251,-279.22 215.719,-268.864 224.205,-259.583"/>
<polygon fill="black" stroke="black" points="226.877,-261.846 231.042,-252.104 221.711,-257.123 226.877,-261.846"/>
<g id="a_edge12&#45;headlabel"><a xlink:href="dir_000236_000251.xhtml" target="_top" xlink:title="4">
<text text-anchor="middle" x="226.547" y="-263.915" font-family="Helvetica,sans-Serif" font-size="10.00">4</text>
</a>
</g>
</g>
<!-- dir_46fdb196cebdbffe77dac340cde62f29&#45;&gt;dir_68267d1309a1af8e8297ef4c3efbcdba -->
<g id="edge1" class="edge"><title>dir_46fdb196cebdbffe77dac340cde62f29&#45;&gt;dir_68267d1309a1af8e8297ef4c3efbcdba</title>
<path fill="none" stroke="black" d="M87.8334,-220.741C114.268,-210.234 153.135,-194.536 186.68,-180 186.883,-179.912 187.086,-179.824 187.29,-179.735"/>
<polygon fill="black" stroke="black" points="188.941,-182.832 196.663,-175.578 186.103,-176.433 188.941,-182.832"/>
<g id="a_edge1&#45;headlabel"><a xlink:href="dir_000034_000003.xhtml" target="_top" xlink:title="2">
<text text-anchor="middle" x="186.806" y="-184.385" font-family="Helvetica,sans-Serif" font-size="10.00">2</text>
</a>
</g>
</g>
<!-- dir_46fdb196cebdbffe77dac340cde62f29&#45;&gt;dir_cbdb8362360e11eafe2fa3bc74cf0ffd -->
<g id="edge2" class="edge"><title>dir_46fdb196cebdbffe77dac340cde62f29&#45;&gt;dir_cbdb8362360e11eafe2fa3bc74cf0ffd</title>
<path fill="none" stroke="black" d="M62.4932,-215.803C69.5574,-196.723 82.9047,-165.761 101.68,-144 112.702,-131.226 127.427,-119.956 140.91,-111.13"/>
<polygon fill="black" stroke="black" points="142.945,-113.984 149.54,-105.692 139.213,-108.062 142.945,-113.984"/>
<g id="a_edge2&#45;headlabel"><a xlink:href="dir_000034_000035.xhtml" target="_top" xlink:title="1">
<text text-anchor="middle" x="141.418" y="-115.803" font-family="Helvetica,sans-Serif" font-size="10.00">1</text>
</a>
</g>
</g>
<!-- dir_46fdb196cebdbffe77dac340cde62f29&#45;&gt;dir_9e71e2da941d3cafc4d98a9f6ae3de4f -->
<g id="edge3" class="edge"><title>dir_46fdb196cebdbffe77dac340cde62f29&#45;&gt;dir_9e71e2da941d3cafc4d98a9f6ae3de4f</title>
<path fill="none" stroke="black" d="M78.4329,-215.697C89.5158,-206.881 103.154,-196.032 115.17,-186.474"/>
<polygon fill="black" stroke="black" points="117.53,-189.069 123.178,-180.104 113.173,-183.59 117.53,-189.069"/>
<g id="a_edge3&#45;headlabel"><a xlink:href="dir_000034_000033.xhtml" target="_top" xlink:title="2">
<text text-anchor="middle" x="116.485" y="-191.028" font-family="Helvetica,sans-Serif" font-size="10.00">2</text>
</a>
</g>
</g>
<!-- dir_46fdb196cebdbffe77dac340cde62f29&#45;&gt;dir_214608ef36d61442cb2b0c1c4e9a7def -->
<g id="edge4" class="edge"><title>dir_46fdb196cebdbffe77dac340cde62f29&#45;&gt;dir_214608ef36d61442cb2b0c1c4e9a7def</title>
<path fill="none" stroke="black" d="M58.002,-215.862C59.9502,-197.376 64.6439,-167.443 75.6801,-144 94.2306,-104.594 127.713,-66.7669 151.019,-43.2454"/>
<polygon fill="black" stroke="black" points="153.561,-45.6541 158.197,-36.1273 148.632,-40.6838 153.561,-45.6541"/>
<g id="a_edge4&#45;headlabel"><a xlink:href="dir_000034_000000.xhtml" target="_top" xlink:title="73">
<text text-anchor="middle" x="153.008" y="-47.7013" font-family="Helvetica,sans-Serif" font-size="10.00">73</text>
</a>
</g>
</g>
<!-- dir_68267d1309a1af8e8297ef4c3efbcdba&#45;&gt;dir_cbdb8362360e11eafe2fa3bc74cf0ffd -->
<g id="edge5" class="edge"><title>dir_68267d1309a1af8e8297ef4c3efbcdba&#45;&gt;dir_cbdb8362360e11eafe2fa3bc74cf0ffd</title>
<path fill="none" stroke="black" d="M212.062,-143.697C206.541,-135.474 199.833,-125.483 193.748,-116.421"/>
<polygon fill="black" stroke="black" points="196.645,-114.456 188.164,-108.104 190.833,-118.358 196.645,-114.456"/>
<g id="a_edge5&#45;headlabel"><a xlink:href="dir_000003_000035.xhtml" target="_top" xlink:title="3">
<text text-anchor="middle" x="201.006" y="-113.357" font-family="Helvetica,sans-Serif" font-size="10.00">3</text>
</a>
</g>
</g>
<!-- dir_68267d1309a1af8e8297ef4c3efbcdba&#45;&gt;dir_214608ef36d61442cb2b0c1c4e9a7def -->
<g id="edge6" class="edge"><title>dir_68267d1309a1af8e8297ef4c3efbcdba&#45;&gt;dir_214608ef36d61442cb2b0c1c4e9a7def</title>
<path fill="none" stroke="black" d="M223.917,-143.701C223.632,-125.339 221.616,-95.7523 212.68,-72 209.076,-62.4186 203.41,-52.8766 197.631,-44.5839"/>
<polygon fill="black" stroke="black" points="200.392,-42.4302 191.65,-36.445 194.752,-46.5756 200.392,-42.4302"/>
<g id="a_edge6&#45;headlabel"><a xlink:href="dir_000003_000000.xhtml" target="_top" xlink:title="2795">
<text text-anchor="middle" x="204.809" y="-41.1453" font-family="Helvetica,sans-Serif" font-size="10.00">2795</text>
</a>
</g>
</g>
<!-- dir_cbdb8362360e11eafe2fa3bc74cf0ffd&#45;&gt;dir_214608ef36d61442cb2b0c1c4e9a7def -->
<g id="edge7" class="edge"><title>dir_cbdb8362360e11eafe2fa3bc74cf0ffd&#45;&gt;dir_214608ef36d61442cb2b0c1c4e9a7def</title>
<path fill="none" stroke="black" d="M170.764,-71.6966C169.969,-63.9827 169.742,-54.7125 170.085,-46.1124"/>
<polygon fill="black" stroke="black" points="173.578,-46.3243 170.785,-36.1043 166.596,-45.8356 173.578,-46.3243"/>
<g id="a_edge7&#45;headlabel"><a xlink:href="dir_000035_000000.xhtml" target="_top" xlink:title="38">
<text text-anchor="middle" x="176.16" y="-47.6083" font-family="Helvetica,sans-Serif" font-size="10.00">38</text>
</a>
</g>
</g>
<!-- dir_9e71e2da941d3cafc4d98a9f6ae3de4f&#45;&gt;dir_cbdb8362360e11eafe2fa3bc74cf0ffd -->
<g id="edge13" class="edge"><title>dir_9e71e2da941d3cafc4d98a9f6ae3de4f&#45;&gt;dir_cbdb8362360e11eafe2fa3bc74cf0ffd</title>
<path fill="none" stroke="black" d="M152.59,-143.697C156.233,-135.728 160.635,-126.1 164.674,-117.264"/>
<polygon fill="black" stroke="black" points="167.887,-118.654 168.861,-108.104 161.52,-115.744 167.887,-118.654"/>
<g id="a_edge13&#45;headlabel"><a xlink:href="dir_000033_000035.xhtml" target="_top" xlink:title="3">
<text text-anchor="middle" x="168.974" y="-120.604" font-family="Helvetica,sans-Serif" font-size="10.00">3</text>
</a>
</g>
</g>
<!-- dir_9e71e2da941d3cafc4d98a9f6ae3de4f&#45;&gt;dir_214608ef36d61442cb2b0c1c4e9a7def -->
<g id="edge14" class="edge"><title>dir_9e71e2da941d3cafc4d98a9f6ae3de4f&#45;&gt;dir_214608ef36d61442cb2b0c1c4e9a7def</title>
<path fill="none" stroke="black" d="M140.546,-143.838C136.918,-125.59 133.27,-96.0976 140.68,-72 143.689,-62.2153 149.187,-52.6161 154.996,-44.3336"/>
<polygon fill="black" stroke="black" points="157.875,-46.3279 161.07,-36.2264 152.273,-42.1306 157.875,-46.3279"/>
<g id="a_edge14&#45;headlabel"><a xlink:href="dir_000033_000000.xhtml" target="_top" xlink:title="15">
<text text-anchor="middle" x="157.992" y="-48.4071" font-family="Helvetica,sans-Serif" font-size="10.00">15</text>
</a>
</g>
</g>
<!-- dir_214608ef36d61442cb2b0c1c4e9a7def&#45;&gt;dir_cbdb8362360e11eafe2fa3bc74cf0ffd -->
<g id="edge15" class="edge"><title>dir_214608ef36d61442cb2b0c1c4e9a7def&#45;&gt;dir_cbdb8362360e11eafe2fa3bc74cf0ffd</title>
<path fill="none" stroke="black" d="M182.575,-36.1043C183.381,-43.7913 183.617,-53.0537 183.284,-61.6651"/>
<polygon fill="black" stroke="black" points="179.789,-61.4805 182.596,-71.6966 186.772,-61.9597 179.789,-61.4805"/>
<g id="a_edge15&#45;headlabel"><a xlink:href="dir_000000_000035.xhtml" target="_top" xlink:title="1">
<text text-anchor="middle" x="177.202" y="-55.2" font-family="Helvetica,sans-Serif" font-size="10.00">1</text>
</a>
</g>
</g>
<!-- dir_896191444cf08ec8ade6f88256cb2bdd&#45;&gt;dir_68267d1309a1af8e8297ef4c3efbcdba -->
<g id="edge21" class="edge"><title>dir_896191444cf08ec8ade6f88256cb2bdd&#45;&gt;dir_68267d1309a1af8e8297ef4c3efbcdba</title>
<path fill="none" stroke="black" d="M240.995,-215.697C238.432,-207.898 235.347,-198.509 232.495,-189.829"/>
<polygon fill="black" stroke="black" points="235.747,-188.512 229.3,-180.104 229.097,-190.697 235.747,-188.512"/>
<g id="a_edge21&#45;headlabel"><a xlink:href="dir_000251_000003.xhtml" target="_top" xlink:title="2">
<text text-anchor="middle" x="239.566" y="-188.541" font-family="Helvetica,sans-Serif" font-size="10.00">2</text>
</a>
</g>
</g>
<!-- dir_896191444cf08ec8ade6f88256cb2bdd&#45;&gt;dir_9e71e2da941d3cafc4d98a9f6ae3de4f -->
<g id="edge22" class="edge"><title>dir_896191444cf08ec8ade6f88256cb2bdd&#45;&gt;dir_9e71e2da941d3cafc4d98a9f6ae3de4f</title>
<path fill="none" stroke="black" d="M221.728,-215.876C208.639,-206.893 192.42,-195.763 178.244,-186.034"/>
<polygon fill="black" stroke="black" points="179.954,-182.962 169.728,-180.19 175.993,-188.734 179.954,-182.962"/>
<g id="a_edge22&#45;headlabel"><a xlink:href="dir_000251_000033.xhtml" target="_top" xlink:title="1">
<text text-anchor="middle" x="184.524" y="-180.155" font-family="Helvetica,sans-Serif" font-size="10.00">1</text>
</a>
</g>
</g>
<!-- dir_896191444cf08ec8ade6f88256cb2bdd&#45;&gt;dir_214608ef36d61442cb2b0c1c4e9a7def -->
<g id="edge23" class="edge"><title>dir_896191444cf08ec8ade6f88256cb2bdd&#45;&gt;dir_214608ef36d61442cb2b0c1c4e9a7def</title>
<path fill="none" stroke="black" d="M252.538,-215.87C257.9,-197.899 264.344,-168.863 259.68,-144 253.349,-110.254 250.708,-100.58 231.68,-72 224.618,-61.3933 215.108,-51.2817 205.983,-42.788"/>
<polygon fill="black" stroke="black" points="208.255,-40.124 198.471,-36.0585 203.584,-45.3379 208.255,-40.124"/>
<g id="a_edge23&#45;headlabel"><a xlink:href="dir_000251_000000.xhtml" target="_top" xlink:title="6">
<text text-anchor="middle" x="212.827" y="-37.9076" font-family="Helvetica,sans-Serif" font-size="10.00">6</text>
</a>
</g>
</g>
</g>
</svg>
