<?xml version="1.0" encoding="UTF-8" standalone="no"?>
<!DOCTYPE svg PUBLIC "-//W3C//DTD SVG 1.1//EN"
 "http://www.w3.org/Graphics/SVG/1.1/DTD/svg11.dtd">
<!-- Generated by graphviz version 2.38.0 (20140413.2041)
 -->
<!-- Title: Graphical Class Hierarchy Pages: 1 -->
<svg width="265pt" height="66pt"
 viewBox="0.00 0.00 265.00 66.00" xmlns="http://www.w3.org/2000/svg" xmlns:xlink="http://www.w3.org/1999/xlink">
<g id="graph0" class="graph" transform="scale(1 1) rotate(0) translate(4 62)">
<title>Graphical Class Hierarchy</title>
<polygon fill="white" stroke="none" points="-4,4 -4,-62 261,-62 261,4 -4,4"/>
<!-- Node0 -->
<g id="node1" class="node"><title>Node0</title>
<g id="a_node1"><a xlink:href="struct_acl_queue__.xhtml" target="_top" xlink:title=" ">
<polygon fill="white" stroke="black" points="0,-19.5 0,-38.5 68,-38.5 68,-19.5 0,-19.5"/>
<text text-anchor="middle" x="34" y="-26.5" font-family="Helvetica,sans-Serif" font-size="10.00">AclQueue_</text>
</a>
</g>
</g>
<!-- Node1 -->
<g id="node2" class="node"><title>Node1</title>
<g id="a_node2"><a xlink:href="classarm__compute_1_1_i_queue.xhtml" target="_top" xlink:title="Base class specifying the queue interface.">
<polygon fill="white" stroke="black" points="104,-19.5 104,-38.5 154,-38.5 154,-19.5 104,-19.5"/>
<text text-anchor="middle" x="129" y="-26.5" font-family="Helvetica,sans-Serif" font-size="10.00">IQueue</text>
</a>
</g>
</g>
<!-- Node0&#45;&gt;Node1 -->
<g id="edge1" class="edge"><title>Node0&#45;&gt;Node1</title>
<path fill="none" stroke="midnightblue" d="M78.2297,-29C87.0273,-29 95.9818,-29 103.825,-29"/>
<polygon fill="midnightblue" stroke="midnightblue" points="78.0502,-25.5001 68.0502,-29 78.0501,-32.5001 78.0502,-25.5001"/>
</g>
<!-- Node2 -->
<g id="node3" class="node"><title>Node2</title>
<g id="a_node3"><a xlink:href="classarm__compute_1_1cpu_1_1_cpu_queue.xhtml" target="_top" xlink:title="CPU queue implementation class.">
<polygon fill="white" stroke="black" points="190,-38.5 190,-57.5 257,-57.5 257,-38.5 190,-38.5"/>
<text text-anchor="middle" x="223.5" y="-45.5" font-family="Helvetica,sans-Serif" font-size="10.00">CpuQueue</text>
</a>
</g>
</g>
<!-- Node1&#45;&gt;Node2 -->
<g id="edge2" class="edge"><title>Node1&#45;&gt;Node2</title>
<path fill="none" stroke="midnightblue" d="M164.122,-36.0088C172.467,-37.723 181.38,-39.5537 189.664,-41.2553"/>
<polygon fill="midnightblue" stroke="midnightblue" points="164.803,-32.5757 154.303,-33.992 163.395,-39.4326 164.803,-32.5757"/>
</g>
<!-- Node3 -->
<g id="node4" class="node"><title>Node3</title>
<g id="a_node4"><a xlink:href="classarm__compute_1_1gpu_1_1opencl_1_1_cl_queue.xhtml" target="_top" xlink:title="OpenCL queue implementation class.">
<polygon fill="white" stroke="black" points="195,-0.5 195,-19.5 252,-19.5 252,-0.5 195,-0.5"/>
<text text-anchor="middle" x="223.5" y="-7.5" font-family="Helvetica,sans-Serif" font-size="10.00">ClQueue</text>
</a>
</g>
</g>
<!-- Node1&#45;&gt;Node3 -->
<g id="edge3" class="edge"><title>Node1&#45;&gt;Node3</title>
<path fill="none" stroke="midnightblue" d="M164.37,-21.9403C174.39,-19.8821 185.207,-17.6601 194.763,-15.6974"/>
<polygon fill="midnightblue" stroke="midnightblue" points="163.395,-18.5674 154.303,-24.008 164.803,-25.4243 163.395,-18.5674"/>
</g>
</g>
</svg>
