<?xml version="1.0" encoding="UTF-8" standalone="no"?>
<!DOCTYPE svg PUBLIC "-//W3C//DTD SVG 1.1//EN"
 "http://www.w3.org/Graphics/SVG/1.1/DTD/svg11.dtd">
<!-- Generated by graphviz version 2.38.0 (20140413.2041)
 -->
<!-- Title: Graphical Class Hierarchy Pages: 1 -->
<svg width="275pt" height="66pt"
 viewBox="0.00 0.00 275.00 66.00" xmlns="http://www.w3.org/2000/svg" xmlns:xlink="http://www.w3.org/1999/xlink">
<g id="graph0" class="graph" transform="scale(1 1) rotate(0) translate(4 62)">
<title>Graphical Class Hierarchy</title>
<polygon fill="white" stroke="none" points="-4,4 -4,-62 271,-62 271,4 -4,4"/>
<!-- Node0 -->
<g id="node1" class="node"><title>Node0</title>
<g id="a_node1"><a xlink:href="struct_acl_tensor__.xhtml" target="_top" xlink:title=" ">
<polygon fill="white" stroke="black" points="0,-19.5 0,-38.5 67,-38.5 67,-19.5 0,-19.5"/>
<text text-anchor="middle" x="33.5" y="-26.5" font-family="Helvetica,sans-Serif" font-size="10.00">AclTensor_</text>
</a>
</g>
</g>
<!-- Node1 -->
<g id="node2" class="node"><title>Node1</title>
<g id="a_node2"><a xlink:href="classarm__compute_1_1_i_tensor_v2.xhtml" target="_top" xlink:title="Base class specifying the tensor interface.">
<polygon fill="white" stroke="black" points="103,-19.5 103,-38.5 165,-38.5 165,-19.5 103,-19.5"/>
<text text-anchor="middle" x="134" y="-26.5" font-family="Helvetica,sans-Serif" font-size="10.00">ITensorV2</text>
</a>
</g>
</g>
<!-- Node0&#45;&gt;Node1 -->
<g id="edge1" class="edge"><title>Node0&#45;&gt;Node1</title>
<path fill="none" stroke="midnightblue" d="M77.0291,-29C85.7185,-29 94.6924,-29 102.841,-29"/>
<polygon fill="midnightblue" stroke="midnightblue" points="77.0256,-25.5001 67.0256,-29 77.0255,-32.5001 77.0256,-25.5001"/>
</g>
<!-- Node2 -->
<g id="node3" class="node"><title>Node2</title>
<g id="a_node3"><a xlink:href="classarm__compute_1_1cpu_1_1_cpu_tensor.xhtml" target="_top" xlink:title="CPU tensor implementation class.">
<polygon fill="white" stroke="black" points="201,-38.5 201,-57.5 267,-57.5 267,-38.5 201,-38.5"/>
<text text-anchor="middle" x="234" y="-45.5" font-family="Helvetica,sans-Serif" font-size="10.00">CpuTensor</text>
</a>
</g>
</g>
<!-- Node1&#45;&gt;Node2 -->
<g id="edge2" class="edge"><title>Node1&#45;&gt;Node2</title>
<path fill="none" stroke="midnightblue" d="M175.277,-36.8087C183.739,-38.4494 192.56,-40.1596 200.686,-41.7351"/>
<polygon fill="midnightblue" stroke="midnightblue" points="175.686,-33.3231 165.203,-34.8557 174.354,-40.1951 175.686,-33.3231"/>
</g>
<!-- Node3 -->
<g id="node4" class="node"><title>Node3</title>
<g id="a_node4"><a xlink:href="classarm__compute_1_1gpu_1_1opencl_1_1_cl_tensor.xhtml" target="_top" xlink:title="OpenCL tensor implementation class.">
<polygon fill="white" stroke="black" points="206,-0.5 206,-19.5 262,-19.5 262,-0.5 206,-0.5"/>
<text text-anchor="middle" x="234" y="-7.5" font-family="Helvetica,sans-Serif" font-size="10.00">ClTensor</text>
</a>
</g>
</g>
<!-- Node1&#45;&gt;Node3 -->
<g id="edge3" class="edge"><title>Node1&#45;&gt;Node3</title>
<path fill="none" stroke="midnightblue" d="M175.221,-21.2021C185.485,-19.212 196.282,-17.1189 205.727,-15.2876"/>
<polygon fill="midnightblue" stroke="midnightblue" points="174.354,-17.8049 165.203,-23.1443 175.686,-24.6769 174.354,-17.8049"/>
</g>
</g>
</svg>
