<?xml version="1.0" encoding="UTF-8" standalone="no"?>
<!DOCTYPE svg PUBLIC "-//W3C//DTD SVG 1.1//EN"
 "http://www.w3.org/Graphics/SVG/1.1/DTD/svg11.dtd">
<!-- Generated by graphviz version 2.38.0 (20140413.2041)
 -->
<!-- Title: AclTensor_ Pages: 1 -->
<svg width="207pt" height="152pt"
 viewBox="0.00 0.00 206.50 152.00" xmlns="http://www.w3.org/2000/svg" xmlns:xlink="http://www.w3.org/1999/xlink">
<g id="graph0" class="graph" transform="scale(1 1) rotate(0) translate(4 148)">
<title>AclTensor_</title>
<polygon fill="white" stroke="none" points="-4,4 -4,-148 202.5,-148 202.5,4 -4,4"/>
<!-- Node0 -->
<g id="node1" class="node"><title>Node0</title>
<g id="a_node1"><a xlink:title=" ">
<polygon fill="#bfbfbf" stroke="black" points="0,-57.5 0,-76.5 67,-76.5 67,-57.5 0,-57.5"/>
<text text-anchor="middle" x="33.5" y="-64.5" font-family="Helvetica,sans-Serif" font-size="10.00">AclTensor_</text>
</a>
</g>
</g>
<!-- Node1 -->
<g id="node2" class="node"><title>Node1</title>
<g id="a_node2"><a xlink:href="structarm__compute_1_1detail_1_1_header.xhtml" target="_top" xlink:title=" ">
<polygon fill="white" stroke="black" points="96.5,-124.5 96.5,-143.5 148.5,-143.5 148.5,-124.5 96.5,-124.5"/>
<text text-anchor="middle" x="122.5" y="-131.5" font-family="Helvetica,sans-Serif" font-size="10.00">Header</text>
</a>
</g>
</g>
<!-- Node1&#45;&gt;Node0 -->
<g id="edge1" class="edge"><title>Node1&#45;&gt;Node0</title>
<path fill="none" stroke="#9a32cd" stroke-dasharray="5,2" d="M100.13,-118.775C94.0158,-114.751 87.4398,-110.294 81.5,-106 68.2356,-96.4099 53.5598,-84.6065 43.9708,-76.7232"/>
<polygon fill="#9a32cd" stroke="#9a32cd" points="98.3372,-121.784 108.63,-124.294 102.149,-115.913 98.3372,-121.784"/>
<text text-anchor="middle" x="100" y="-98" font-family="Helvetica,sans-Serif" font-size="10.00"> header</text>
</g>
<!-- Node3 -->
<g id="node4" class="node"><title>Node3</title>
<g id="a_node4"><a xlink:href="struct_acl_context__.xhtml" target="_top" xlink:title=" ">
<polygon fill="white" stroke="black" points="85.5,-57.5 85.5,-76.5 159.5,-76.5 159.5,-57.5 85.5,-57.5"/>
<text text-anchor="middle" x="122.5" y="-64.5" font-family="Helvetica,sans-Serif" font-size="10.00">AclContext_</text>
</a>
</g>
</g>
<!-- Node1&#45;&gt;Node3 -->
<g id="edge4" class="edge"><title>Node1&#45;&gt;Node3</title>
<path fill="none" stroke="#9a32cd" stroke-dasharray="5,2" d="M122.5,-114.037C122.5,-101.67 122.5,-86.1198 122.5,-76.6273"/>
<polygon fill="#9a32cd" stroke="#9a32cd" points="119,-114.234 122.5,-124.234 126,-114.234 119,-114.234"/>
<text text-anchor="middle" x="141" y="-98" font-family="Helvetica,sans-Serif" font-size="10.00"> header</text>
</g>
<!-- Node2 -->
<g id="node3" class="node"><title>Node2</title>
<g id="a_node3"><a xlink:href="classarm__compute_1_1_i_context.xhtml" target="_top" xlink:title="Context interface.">
<polygon fill="white" stroke="black" points="142.5,-0.5 142.5,-19.5 198.5,-19.5 198.5,-0.5 142.5,-0.5"/>
<text text-anchor="middle" x="170.5" y="-7.5" font-family="Helvetica,sans-Serif" font-size="10.00">IContext</text>
</a>
</g>
</g>
<!-- Node2&#45;&gt;Node1 -->
<g id="edge2" class="edge"><title>Node2&#45;&gt;Node1</title>
<path fill="none" stroke="#9a32cd" stroke-dasharray="5,2" d="M174.121,-29.6839C177.026,-50.1542 178.479,-83.1171 163.5,-106 158.365,-113.844 150.073,-119.932 142.286,-124.325"/>
<polygon fill="#9a32cd" stroke="#9a32cd" points="177.559,-29.023 172.452,-19.74 170.655,-30.1814 177.559,-29.023"/>
<text text-anchor="middle" x="185.5" y="-64.5" font-family="Helvetica,sans-Serif" font-size="10.00"> ctx</text>
</g>
<!-- Node3&#45;&gt;Node2 -->
<g id="edge3" class="edge"><title>Node3&#45;&gt;Node2</title>
<path fill="none" stroke="midnightblue" d="M136.614,-49.8281C145.209,-39.9794 155.854,-27.7817 162.894,-19.7149"/>
<polygon fill="midnightblue" stroke="midnightblue" points="133.938,-47.5706 130,-57.4062 139.212,-52.1734 133.938,-47.5706"/>
</g>
</g>
</svg>
