<?xml version="1.0" encoding="UTF-8" standalone="no"?>
<!DOCTYPE svg PUBLIC "-//W3C//DTD SVG 1.1//EN"
 "http://www.w3.org/Graphics/SVG/1.1/DTD/svg11.dtd">
<!-- Generated by graphviz version 2.38.0 (20140413.2041)
 -->
<!-- Title: TensorPack::PackPair Pages: 1 -->
<svg width="156pt" height="219pt"
 viewBox="0.00 0.00 156.00 219.00" xmlns="http://www.w3.org/2000/svg" xmlns:xlink="http://www.w3.org/1999/xlink">
<g id="graph0" class="graph" transform="scale(1 1) rotate(0) translate(4 215)">
<title>TensorPack::PackPair</title>
<polygon fill="white" stroke="none" points="-4,4 -4,-215 152,-215 152,4 -4,4"/>
<!-- Node0 -->
<g id="node1" class="node"><title>Node0</title>
<g id="a_node1"><a xlink:title="Pack pair construct.">
<polygon fill="#bfbfbf" stroke="black" points="15,-0.5 15,-19.5 129,-19.5 129,-0.5 15,-0.5"/>
<text text-anchor="middle" x="72" y="-7.5" font-family="Helvetica,sans-Serif" font-size="10.00">TensorPack::PackPair</text>
</a>
</g>
</g>
<!-- Node1 -->
<g id="node2" class="node"><title>Node1</title>
<g id="a_node2"><a xlink:href="classacl_1_1_tensor.xhtml" target="_top" xlink:title="Tensor class.">
<polygon fill="white" stroke="black" points="48.5,-67.5 48.5,-86.5 95.5,-86.5 95.5,-67.5 48.5,-67.5"/>
<text text-anchor="middle" x="72" y="-74.5" font-family="Helvetica,sans-Serif" font-size="10.00">Tensor</text>
</a>
</g>
</g>
<!-- Node1&#45;&gt;Node0 -->
<g id="edge1" class="edge"><title>Node1&#45;&gt;Node0</title>
<path fill="none" stroke="#9a32cd" stroke-dasharray="5,2" d="M72,-57.037C72,-44.6703 72,-29.1198 72,-19.6273"/>
<polygon fill="#9a32cd" stroke="#9a32cd" points="68.5001,-57.2338 72,-67.2338 75.5001,-57.2338 68.5001,-57.2338"/>
<text text-anchor="middle" x="89" y="-41" font-family="Helvetica,sans-Serif" font-size="10.00"> tensor</text>
</g>
<!-- Node2 -->
<g id="node3" class="node"><title>Node2</title>
<g id="a_node3"><a xlink:href="classacl_1_1detail_1_1_object_base.xhtml" target="_top" xlink:title=" ">
<polygon fill="white" stroke="black" points="0,-124.5 0,-143.5 144,-143.5 144,-124.5 0,-124.5"/>
<text text-anchor="middle" x="72" y="-131.5" font-family="Helvetica,sans-Serif" font-size="10.00">ObjectBase&lt; AclTensor_ &gt;</text>
</a>
</g>
</g>
<!-- Node2&#45;&gt;Node1 -->
<g id="edge2" class="edge"><title>Node2&#45;&gt;Node1</title>
<path fill="none" stroke="midnightblue" d="M72,-114.117C72,-104.817 72,-94.0557 72,-86.7149"/>
<polygon fill="midnightblue" stroke="midnightblue" points="68.5001,-114.406 72,-124.406 75.5001,-114.406 68.5001,-114.406"/>
</g>
<!-- Node3 -->
<g id="node4" class="node"><title>Node3</title>
<g id="a_node4"><a xlink:href="classacl_1_1detail_1_1_object_base.xhtml" target="_top" xlink:title="Object base class for library objects.">
<polygon fill="white" stroke="black" points="22.5,-191.5 22.5,-210.5 121.5,-210.5 121.5,-191.5 22.5,-191.5"/>
<text text-anchor="middle" x="72" y="-198.5" font-family="Helvetica,sans-Serif" font-size="10.00">ObjectBase&lt; T &gt;</text>
</a>
</g>
</g>
<!-- Node3&#45;&gt;Node2 -->
<g id="edge3" class="edge"><title>Node3&#45;&gt;Node2</title>
<path fill="none" stroke="orange" stroke-dasharray="5,2" d="M72,-181.037C72,-168.67 72,-153.12 72,-143.627"/>
<polygon fill="orange" stroke="orange" points="68.5001,-181.234 72,-191.234 75.5001,-181.234 68.5001,-181.234"/>
<text text-anchor="middle" x="110" y="-165" font-family="Helvetica,sans-Serif" font-size="10.00"> &lt; AclTensor_ &gt;</text>
</g>
</g>
</svg>
