<?xml version="1.0" encoding="UTF-8" standalone="no"?>
<!DOCTYPE svg PUBLIC "-//W3C//DTD SVG 1.1//EN"
 "http://www.w3.org/Graphics/SVG/1.1/DTD/svg11.dtd">
<!-- Generated by graphviz version 2.38.0 (20140413.2041)
 -->
<!-- Title: GEMMConfigResult Pages: 1 -->
<svg width="252pt" height="95pt"
 viewBox="0.00 0.00 252.00 95.00" xmlns="http://www.w3.org/2000/svg" xmlns:xlink="http://www.w3.org/1999/xlink">
<g id="graph0" class="graph" transform="scale(1 1) rotate(0) translate(4 91)">
<title>GEMMConfigResult</title>
<polygon fill="white" stroke="none" points="-4,4 -4,-91 248,-91 248,4 -4,4"/>
<!-- Node0 -->
<g id="node1" class="node"><title>Node0</title>
<g id="a_node1"><a xlink:title="Result of querying about GEMM config ( GEMMLHSMatrixInfo and GEMMRHSMatrixInfo)">
<polygon fill="#bfbfbf" stroke="black" points="69,-0.5 69,-19.5 174,-19.5 174,-0.5 69,-0.5"/>
<text text-anchor="middle" x="121.5" y="-7.5" font-family="Helvetica,sans-Serif" font-size="10.00">GEMMConfigResult</text>
</a>
</g>
</g>
<!-- Node1 -->
<g id="node2" class="node"><title>Node1</title>
<g id="a_node2"><a xlink:href="structarm__compute_1_1_g_e_m_m_l_h_s_matrix_info.xhtml" target="_top" xlink:title="GEMM LHS (Left Hand Side) matrix information.">
<polygon fill="white" stroke="black" points="0,-67.5 0,-86.5 113,-86.5 113,-67.5 0,-67.5"/>
<text text-anchor="middle" x="56.5" y="-74.5" font-family="Helvetica,sans-Serif" font-size="10.00">GEMMLHSMatrixInfo</text>
</a>
</g>
</g>
<!-- Node1&#45;&gt;Node0 -->
<g id="edge1" class="edge"><title>Node1&#45;&gt;Node0</title>
<path fill="none" stroke="#9a32cd" stroke-dasharray="5,2" d="M72.5032,-59.9968C85.2504,-47.2496 102.605,-29.8947 112.873,-19.6273"/>
<polygon fill="#9a32cd" stroke="#9a32cd" points="69.8624,-57.6878 65.2662,-67.2338 74.8122,-62.6376 69.8624,-57.6878"/>
<text text-anchor="middle" x="113.5" y="-41" font-family="Helvetica,sans-Serif" font-size="10.00"> lhs_info</text>
</g>
<!-- Node2 -->
<g id="node3" class="node"><title>Node2</title>
<g id="a_node3"><a xlink:href="structarm__compute_1_1_g_e_m_m_r_h_s_matrix_info.xhtml" target="_top" xlink:title="GEMM RHS (Right Hand Side) matrix information.">
<polygon fill="white" stroke="black" points="131,-67.5 131,-86.5 244,-86.5 244,-67.5 131,-67.5"/>
<text text-anchor="middle" x="187.5" y="-74.5" font-family="Helvetica,sans-Serif" font-size="10.00">GEMMRHSMatrixInfo</text>
</a>
</g>
</g>
<!-- Node2&#45;&gt;Node0 -->
<g id="edge2" class="edge"><title>Node2&#45;&gt;Node0</title>
<path fill="none" stroke="#9a32cd" stroke-dasharray="5,2" d="M171.251,-59.9968C158.307,-47.2496 140.685,-29.8947 130.26,-19.6273"/>
<polygon fill="#9a32cd" stroke="#9a32cd" points="169.018,-62.7106 178.599,-67.2338 173.93,-57.7232 169.018,-62.7106"/>
<text text-anchor="middle" x="178" y="-41" font-family="Helvetica,sans-Serif" font-size="10.00"> rhs_info</text>
</g>
</g>
</svg>
