<?xml version="1.0" encoding="UTF-8" standalone="no"?>
<!DOCTYPE svg PUBLIC "-//W3C//DTD SVG 1.1//EN"
 "http://www.w3.org/Graphics/SVG/1.1/DTD/svg11.dtd">
<!-- Generated by graphviz version 2.38.0 (20140413.2041)
 -->
<!-- Title: AclQueue_ Pages: 1 -->
<svg width="207pt" height="152pt"
 viewBox="0.00 0.00 207.00 152.00" xmlns="http://www.w3.org/2000/svg" xmlns:xlink="http://www.w3.org/1999/xlink">
<g id="graph0" class="graph" transform="scale(1 1) rotate(0) translate(4 148)">
<title>AclQueue_</title>
<polygon fill="white" stroke="none" points="-4,4 -4,-148 203,-148 203,4 -4,4"/>
<!-- Node0 -->
<g id="node1" class="node"><title>Node0</title>
<g id="a_node1"><a xlink:title=" ">
<polygon fill="#bfbfbf" stroke="black" points="0,-57.5 0,-76.5 68,-76.5 68,-57.5 0,-57.5"/>
<text text-anchor="middle" x="34" y="-64.5" font-family="Helvetica,sans-Serif" font-size="10.00">AclQueue_</text>
</a>
</g>
</g>
<!-- Node1 -->
<g id="node2" class="node"><title>Node1</title>
<g id="a_node2"><a xlink:href="structarm__compute_1_1detail_1_1_header.xhtml" target="_top" xlink:title=" ">
<polygon fill="white" stroke="black" points="97,-124.5 97,-143.5 149,-143.5 149,-124.5 97,-124.5"/>
<text text-anchor="middle" x="123" y="-131.5" font-family="Helvetica,sans-Serif" font-size="10.00">Header</text>
</a>
</g>
</g>
<!-- Node1&#45;&gt;Node0 -->
<g id="edge1" class="edge"><title>Node1&#45;&gt;Node0</title>
<path fill="none" stroke="#9a32cd" stroke-dasharray="5,2" d="M100.63,-118.775C94.5158,-114.751 87.9398,-110.294 82,-106 68.7356,-96.4099 54.0598,-84.6065 44.4708,-76.7232"/>
<polygon fill="#9a32cd" stroke="#9a32cd" points="98.8372,-121.784 109.13,-124.294 102.649,-115.913 98.8372,-121.784"/>
<text text-anchor="middle" x="100.5" y="-98" font-family="Helvetica,sans-Serif" font-size="10.00"> header</text>
</g>
<!-- Node3 -->
<g id="node4" class="node"><title>Node3</title>
<g id="a_node4"><a xlink:href="struct_acl_context__.xhtml" target="_top" xlink:title=" ">
<polygon fill="white" stroke="black" points="86,-57.5 86,-76.5 160,-76.5 160,-57.5 86,-57.5"/>
<text text-anchor="middle" x="123" y="-64.5" font-family="Helvetica,sans-Serif" font-size="10.00">AclContext_</text>
</a>
</g>
</g>
<!-- Node1&#45;&gt;Node3 -->
<g id="edge4" class="edge"><title>Node1&#45;&gt;Node3</title>
<path fill="none" stroke="#9a32cd" stroke-dasharray="5,2" d="M123,-114.037C123,-101.67 123,-86.1198 123,-76.6273"/>
<polygon fill="#9a32cd" stroke="#9a32cd" points="119.5,-114.234 123,-124.234 126.5,-114.234 119.5,-114.234"/>
<text text-anchor="middle" x="141.5" y="-98" font-family="Helvetica,sans-Serif" font-size="10.00"> header</text>
</g>
<!-- Node2 -->
<g id="node3" class="node"><title>Node2</title>
<g id="a_node3"><a xlink:href="classarm__compute_1_1_i_context.xhtml" target="_top" xlink:title="Context interface.">
<polygon fill="white" stroke="black" points="143,-0.5 143,-19.5 199,-19.5 199,-0.5 143,-0.5"/>
<text text-anchor="middle" x="171" y="-7.5" font-family="Helvetica,sans-Serif" font-size="10.00">IContext</text>
</a>
</g>
</g>
<!-- Node2&#45;&gt;Node1 -->
<g id="edge2" class="edge"><title>Node2&#45;&gt;Node1</title>
<path fill="none" stroke="#9a32cd" stroke-dasharray="5,2" d="M174.621,-29.6839C177.526,-50.1542 178.979,-83.1171 164,-106 158.865,-113.844 150.573,-119.932 142.786,-124.325"/>
<polygon fill="#9a32cd" stroke="#9a32cd" points="178.059,-29.023 172.952,-19.74 171.155,-30.1814 178.059,-29.023"/>
<text text-anchor="middle" x="185" y="-64.5" font-family="Helvetica,sans-Serif" font-size="10.00"> ctx</text>
</g>
<!-- Node3&#45;&gt;Node2 -->
<g id="edge3" class="edge"><title>Node3&#45;&gt;Node2</title>
<path fill="none" stroke="midnightblue" d="M137.114,-49.8281C145.709,-39.9794 156.354,-27.7817 163.394,-19.7149"/>
<polygon fill="midnightblue" stroke="midnightblue" points="134.438,-47.5706 130.5,-57.4062 139.712,-52.1734 134.438,-47.5706"/>
</g>
</g>
</svg>
