<?xml version="1.0" encoding="UTF-8" standalone="no"?>
<!DOCTYPE svg PUBLIC "-//W3C//DTD SVG 1.1//EN"
 "http://www.w3.org/Graphics/SVG/1.1/DTD/svg11.dtd">
<!-- Generated by graphviz version 2.38.0 (20140413.2041)
 -->
<!-- Title: CLQuantization Pages: 1 -->
<svg width="322pt" height="219pt"
 viewBox="0.00 0.00 321.50 219.00" xmlns="http://www.w3.org/2000/svg" xmlns:xlink="http://www.w3.org/1999/xlink">
<g id="graph0" class="graph" transform="scale(1 1) rotate(0) translate(4 215)">
<title>CLQuantization</title>
<polygon fill="white" stroke="none" points="-4,4 -4,-215 317.5,-215 317.5,4 -4,4"/>
<!-- Node0 -->
<g id="node1" class="node"><title>Node0</title>
<g id="a_node1"><a xlink:title="OpenCL quantization data.">
<polygon fill="#bfbfbf" stroke="black" points="93,-0.5 93,-19.5 182,-19.5 182,-0.5 93,-0.5"/>
<text text-anchor="middle" x="137.5" y="-7.5" font-family="Helvetica,sans-Serif" font-size="10.00">CLQuantization</text>
</a>
</g>
</g>
<!-- Node1 -->
<g id="node2" class="node"><title>Node1</title>
<g id="a_node2"><a xlink:href="classarm__compute_1_1_i_c_l_array.xhtml" target="_top" xlink:title=" ">
<polygon fill="white" stroke="black" points="8,-67.5 8,-86.5 121,-86.5 121,-67.5 8,-67.5"/>
<text text-anchor="middle" x="64.5" y="-74.5" font-family="Helvetica,sans-Serif" font-size="10.00">ICLArray&lt; cl_float &gt;</text>
</a>
</g>
</g>
<!-- Node1&#45;&gt;Node0 -->
<g id="edge1" class="edge"><title>Node1&#45;&gt;Node0</title>
<path fill="none" stroke="#9a32cd" stroke-dasharray="5,2" d="M82.069,-60.3564C96.4205,-47.5777 116.171,-29.9915 127.811,-19.6273"/>
<polygon fill="#9a32cd" stroke="#9a32cd" points="79.4861,-57.9698 74.3451,-67.2338 84.1411,-63.1978 79.4861,-57.9698"/>
<text text-anchor="middle" x="119.5" y="-41" font-family="Helvetica,sans-Serif" font-size="10.00"> scale</text>
</g>
<!-- Node2 -->
<g id="node3" class="node"><title>Node2</title>
<g id="a_node3"><a xlink:href="classarm__compute_1_1_i_array.xhtml" target="_top" xlink:title="Array of type T.">
<polygon fill="white" stroke="black" points="0,-134.5 0,-153.5 101,-153.5 101,-134.5 0,-134.5"/>
<text text-anchor="middle" x="50.5" y="-141.5" font-family="Helvetica,sans-Serif" font-size="10.00">IArray&lt; cl_float &gt;</text>
</a>
</g>
</g>
<!-- Node2&#45;&gt;Node1 -->
<g id="edge2" class="edge"><title>Node2&#45;&gt;Node1</title>
<path fill="none" stroke="midnightblue" d="M54.503,-124.415C57.1794,-111.988 60.5764,-96.2166 62.6418,-86.6273"/>
<polygon fill="midnightblue" stroke="midnightblue" points="51.0722,-123.721 52.3881,-134.234 57.9153,-125.195 51.0722,-123.721"/>
</g>
<!-- Node3 -->
<g id="node4" class="node"><title>Node3</title>
<g id="a_node4"><a xlink:href="classarm__compute_1_1_i_c_l_array.xhtml" target="_top" xlink:title="Interface for OpenCL Array.">
<polygon fill="white" stroke="black" points="119.5,-134.5 119.5,-153.5 203.5,-153.5 203.5,-134.5 119.5,-134.5"/>
<text text-anchor="middle" x="161.5" y="-141.5" font-family="Helvetica,sans-Serif" font-size="10.00">ICLArray&lt; T &gt;</text>
</a>
</g>
</g>
<!-- Node3&#45;&gt;Node1 -->
<g id="edge3" class="edge"><title>Node3&#45;&gt;Node1</title>
<path fill="none" stroke="orange" stroke-dasharray="5,2" d="M134.539,-129.617C126.921,-125.523 118.739,-120.821 111.5,-116 97.8756,-106.927 83.4031,-94.8005 74.1753,-86.7116"/>
<polygon fill="orange" stroke="orange" points="132.966,-132.744 143.45,-134.276 136.209,-126.541 132.966,-132.744"/>
<text text-anchor="middle" x="141.5" y="-108" font-family="Helvetica,sans-Serif" font-size="10.00"> &lt; cl_float &gt;</text>
</g>
<!-- Node5 -->
<g id="node6" class="node"><title>Node5</title>
<g id="a_node6"><a xlink:href="classarm__compute_1_1_i_c_l_array.xhtml" target="_top" xlink:title=" ">
<polygon fill="white" stroke="black" points="139.5,-67.5 139.5,-86.5 243.5,-86.5 243.5,-67.5 139.5,-67.5"/>
<text text-anchor="middle" x="191.5" y="-74.5" font-family="Helvetica,sans-Serif" font-size="10.00">ICLArray&lt; cl_int &gt;</text>
</a>
</g>
</g>
<!-- Node3&#45;&gt;Node5 -->
<g id="edge7" class="edge"><title>Node3&#45;&gt;Node5</title>
<path fill="none" stroke="orange" stroke-dasharray="5,2" d="M169.905,-124.79C175.666,-112.308 183.048,-96.3135 187.518,-86.6273"/>
<polygon fill="orange" stroke="orange" points="166.559,-123.687 165.546,-134.234 172.914,-126.621 166.559,-123.687"/>
<text text-anchor="middle" x="204" y="-108" font-family="Helvetica,sans-Serif" font-size="10.00"> &lt; cl_int &gt;</text>
</g>
<!-- Node4 -->
<g id="node5" class="node"><title>Node4</title>
<g id="a_node5"><a xlink:href="classarm__compute_1_1_i_array.xhtml" target="_top" xlink:title="Array of type T.">
<polygon fill="white" stroke="black" points="125.5,-191.5 125.5,-210.5 197.5,-210.5 197.5,-191.5 125.5,-191.5"/>
<text text-anchor="middle" x="161.5" y="-198.5" font-family="Helvetica,sans-Serif" font-size="10.00">IArray&lt; T &gt;</text>
</a>
</g>
</g>
<!-- Node4&#45;&gt;Node3 -->
<g id="edge4" class="edge"><title>Node4&#45;&gt;Node3</title>
<path fill="none" stroke="midnightblue" d="M161.5,-181.117C161.5,-171.817 161.5,-161.056 161.5,-153.715"/>
<polygon fill="midnightblue" stroke="midnightblue" points="158,-181.406 161.5,-191.406 165,-181.406 158,-181.406"/>
</g>
<!-- Node5&#45;&gt;Node0 -->
<g id="edge5" class="edge"><title>Node5&#45;&gt;Node0</title>
<path fill="none" stroke="#9a32cd" stroke-dasharray="5,2" d="M177.602,-59.2705C167.073,-46.5972 153.036,-29.701 144.667,-19.6273"/>
<polygon fill="#9a32cd" stroke="#9a32cd" points="175.135,-61.7785 184.217,-67.2338 180.519,-57.3053 175.135,-61.7785"/>
<text text-anchor="middle" x="184" y="-41" font-family="Helvetica,sans-Serif" font-size="10.00"> offset</text>
</g>
<!-- Node6 -->
<g id="node7" class="node"><title>Node6</title>
<g id="a_node7"><a xlink:href="classarm__compute_1_1_i_array.xhtml" target="_top" xlink:title="Array of type T.">
<polygon fill="white" stroke="black" points="221.5,-134.5 221.5,-153.5 313.5,-153.5 313.5,-134.5 221.5,-134.5"/>
<text text-anchor="middle" x="267.5" y="-141.5" font-family="Helvetica,sans-Serif" font-size="10.00">IArray&lt; cl_int &gt;</text>
</a>
</g>
</g>
<!-- Node6&#45;&gt;Node5 -->
<g id="edge6" class="edge"><title>Node6&#45;&gt;Node5</title>
<path fill="none" stroke="midnightblue" d="M254.117,-126.125C248.187,-119.178 240.888,-111.301 233.5,-105 225.321,-98.0253 215.212,-91.4726 206.961,-86.5695"/>
<polygon fill="midnightblue" stroke="midnightblue" points="251.74,-128.744 260.799,-134.237 257.143,-124.293 251.74,-128.744"/>
</g>
</g>
</svg>
