<?xml version="1.0" encoding="UTF-8" standalone="no"?>
<!DOCTYPE svg PUBLIC "-//W3C//DTD SVG 1.1//EN"
 "http://www.w3.org/Graphics/SVG/1.1/DTD/svg11.dtd">
<!-- Generated by graphviz version 2.38.0 (20140413.2041)
 -->
<!-- Title: CLMultiHOG Pages: 1 -->
<svg width="84pt" height="140pt"
 viewBox="0.00 0.00 84.00 140.00" xmlns="http://www.w3.org/2000/svg" xmlns:xlink="http://www.w3.org/1999/xlink">
<g id="graph0" class="graph" transform="scale(1 1) rotate(0) translate(4 136)">
<title>CLMultiHOG</title>
<polygon fill="white" stroke="none" points="-4,4 -4,-136 80,-136 80,4 -4,4"/>
<!-- Node0 -->
<g id="node1" class="node"><title>Node0</title>
<g id="a_node1"><a xlink:title="Basic implementation of the CL multi HOG data&#45;objects.">
<polygon fill="#bfbfbf" stroke="black" points="1,-0.5 1,-19.5 75,-19.5 75,-0.5 1,-0.5"/>
<text text-anchor="middle" x="38" y="-7.5" font-family="Helvetica,sans-Serif" font-size="10.00">CLMultiHOG</text>
</a>
</g>
</g>
<!-- Node1 -->
<g id="node2" class="node"><title>Node1</title>
<g id="a_node2"><a xlink:href="classarm__compute_1_1_i_c_l_multi_h_o_g.xhtml" target="_top" xlink:title="Interface for storing multiple HOG data&#45;objects.">
<polygon fill="white" stroke="black" points="0,-56.5 0,-75.5 76,-75.5 76,-56.5 0,-56.5"/>
<text text-anchor="middle" x="38" y="-63.5" font-family="Helvetica,sans-Serif" font-size="10.00">ICLMultiHOG</text>
</a>
</g>
</g>
<!-- Node1&#45;&gt;Node0 -->
<g id="edge1" class="edge"><title>Node1&#45;&gt;Node0</title>
<path fill="none" stroke="midnightblue" d="M38,-45.8045C38,-36.9102 38,-26.7798 38,-19.7511"/>
<polygon fill="midnightblue" stroke="midnightblue" points="34.5001,-46.083 38,-56.083 41.5001,-46.083 34.5001,-46.083"/>
</g>
<!-- Node2 -->
<g id="node3" class="node"><title>Node2</title>
<g id="a_node3"><a xlink:href="classarm__compute_1_1_i_multi_h_o_g.xhtml" target="_top" xlink:title="Interface for storing multiple HOG data&#45;objects.">
<polygon fill="white" stroke="black" points="6,-112.5 6,-131.5 70,-131.5 70,-112.5 6,-112.5"/>
<text text-anchor="middle" x="38" y="-119.5" font-family="Helvetica,sans-Serif" font-size="10.00">IMultiHOG</text>
</a>
</g>
</g>
<!-- Node2&#45;&gt;Node1 -->
<g id="edge2" class="edge"><title>Node2&#45;&gt;Node1</title>
<path fill="none" stroke="midnightblue" d="M38,-101.805C38,-92.9102 38,-82.7798 38,-75.7511"/>
<polygon fill="midnightblue" stroke="midnightblue" points="34.5001,-102.083 38,-112.083 41.5001,-102.083 34.5001,-102.083"/>
</g>
</g>
</svg>
