<?xml version="1.0" encoding="UTF-8" standalone="no"?>
<!DOCTYPE svg PUBLIC "-//W3C//DTD SVG 1.1//EN"
 "http://www.w3.org/Graphics/SVG/1.1/DTD/svg11.dtd">
<!-- Generated by graphviz version 2.38.0 (20140413.2041)
 -->
<!-- Title: tests/validation Pages: 1 -->
<svg width="873pt" height="375pt"
 viewBox="0.00 0.00 872.72 375.00" xmlns="http://www.w3.org/2000/svg" xmlns:xlink="http://www.w3.org/1999/xlink">
<g id="graph0" class="graph" transform="scale(1 1) rotate(0) translate(4 371)">
<title>tests/validation</title>
<polygon fill="white" stroke="none" points="-4,4 -4,-371 868.723,-371 868.723,4 -4,4"/>
<g id="clust1" class="cluster"><title>clusterdir_59425e443f801f1f2fd8bbe4959a3ccf</title>
<g id="a_clust1"><a xlink:href="dir_59425e443f801f1f2fd8bbe4959a3ccf.xhtml" target="_top" xlink:title="tests">
<polygon fill="#ddddee" stroke="black" points="8,-200 8,-359 504,-359 504,-200 8,-200"/>
<text text-anchor="middle" x="256" y="-347" font-family="Helvetica,sans-Serif" font-size="10.00">tests</text>
</a>
</g>
</g>
<g id="clust2" class="cluster"><title>clusterdir_e7c7b16542faa38cb4655ff1750d3604</title>
<g id="a_clust2"><a xlink:href="dir_e7c7b16542faa38cb4655ff1750d3604.xhtml" target="_top">
<polygon fill="#eeeeff" stroke="black" points="16,-208 16,-332 496,-332 496,-208 16,-208"/>
</a>
</g>
</g>
<!-- dir_e7c7b16542faa38cb4655ff1750d3604 -->
<g id="node1" class="node"><title>dir_e7c7b16542faa38cb4655ff1750d3604</title>
<text text-anchor="middle" x="457" y="-303.5" font-family="Helvetica,sans-Serif" font-size="10.00">validation</text>
</g>
<!-- dir_f7024513cd67abef53e86ee9382ac5ce -->
<g id="node2" class="node"><title>dir_f7024513cd67abef53e86ee9382ac5ce</title>
<g id="a_node2"><a xlink:href="dir_f7024513cd67abef53e86ee9382ac5ce.xhtml" target="_top" xlink:title="CL">
<polygon fill="white" stroke="red" points="78,-324 24,-324 24,-288 78,-288 78,-324"/>
<text text-anchor="middle" x="51" y="-303.5" font-family="Helvetica,sans-Serif" font-size="10.00">CL</text>
</a>
</g>
</g>
<!-- dir_46fdb196cebdbffe77dac340cde62f29 -->
<g id="node6" class="node"><title>dir_46fdb196cebdbffe77dac340cde62f29</title>
<g id="a_node6"><a xlink:href="dir_46fdb196cebdbffe77dac340cde62f29.xhtml" target="_top" xlink:title="reference">
<polygon fill="white" stroke="black" points="295,-252 233,-252 233,-216 295,-216 295,-252"/>
<text text-anchor="middle" x="264" y="-231.5" font-family="Helvetica,sans-Serif" font-size="10.00">reference</text>
</a>
</g>
</g>
<!-- dir_f7024513cd67abef53e86ee9382ac5ce&#45;&gt;dir_46fdb196cebdbffe77dac340cde62f29 -->
<g id="edge22" class="edge"><title>dir_f7024513cd67abef53e86ee9382ac5ce&#45;&gt;dir_46fdb196cebdbffe77dac340cde62f29</title>
<path fill="none" stroke="black" d="M78.3328,-291.574C81.2333,-290.305 84.1603,-289.089 87,-288 132.721,-270.473 186.85,-255.004 223.103,-245.37"/>
<polygon fill="black" stroke="black" points="224.052,-248.74 232.833,-242.811 222.271,-241.97 224.052,-248.74"/>
<g id="a_edge22&#45;headlabel"><a xlink:href="dir_000115_000029.xhtml" target="_top" xlink:title="2">
<text text-anchor="middle" x="221.298" y="-249.9" font-family="Helvetica,sans-Serif" font-size="10.00">2</text>
</a>
</g>
</g>
<!-- dir_cbdb8362360e11eafe2fa3bc74cf0ffd -->
<g id="node8" class="node"><title>dir_cbdb8362360e11eafe2fa3bc74cf0ffd</title>
<g id="a_node8"><a xlink:href="dir_cbdb8362360e11eafe2fa3bc74cf0ffd.xhtml" target="_top" xlink:title="utils">
<polygon fill="white" stroke="red" points="473,-180 419,-180 419,-144 473,-144 473,-180"/>
<text text-anchor="middle" x="446" y="-159.5" font-family="Helvetica,sans-Serif" font-size="10.00">utils</text>
</a>
</g>
</g>
<!-- dir_f7024513cd67abef53e86ee9382ac5ce&#45;&gt;dir_cbdb8362360e11eafe2fa3bc74cf0ffd -->
<g id="edge23" class="edge"><title>dir_f7024513cd67abef53e86ee9382ac5ce&#45;&gt;dir_cbdb8362360e11eafe2fa3bc74cf0ffd</title>
<path fill="none" stroke="black" d="M78.1635,-291.069C81.097,-289.899 84.078,-288.843 87,-288 214.755,-251.139 270.055,-320.531 384,-252 387.302,-250.014 411.733,-214.176 428.92,-188.592"/>
<polygon fill="black" stroke="black" points="431.991,-190.297 434.651,-180.042 426.176,-186.4 431.991,-190.297"/>
<g id="a_edge23&#45;headlabel"><a xlink:href="dir_000115_000030.xhtml" target="_top" xlink:title="4">
<text text-anchor="middle" x="432.348" y="-192.364" font-family="Helvetica,sans-Serif" font-size="10.00">4</text>
</a>
</g>
</g>
<!-- dir_9e71e2da941d3cafc4d98a9f6ae3de4f -->
<g id="node10" class="node"><title>dir_9e71e2da941d3cafc4d98a9f6ae3de4f</title>
<g id="a_node10"><a xlink:href="dir_9e71e2da941d3cafc4d98a9f6ae3de4f.xhtml" target="_top" xlink:title="framework">
<polygon fill="white" stroke="red" points="731.5,-252 664.5,-252 664.5,-216 731.5,-216 731.5,-252"/>
<text text-anchor="middle" x="698" y="-231.5" font-family="Helvetica,sans-Serif" font-size="10.00">framework</text>
</a>
</g>
</g>
<!-- dir_f7024513cd67abef53e86ee9382ac5ce&#45;&gt;dir_9e71e2da941d3cafc4d98a9f6ae3de4f -->
<g id="edge24" class="edge"><title>dir_f7024513cd67abef53e86ee9382ac5ce&#45;&gt;dir_9e71e2da941d3cafc4d98a9f6ae3de4f</title>
<path fill="none" stroke="black" d="M78.1199,-290.91C81.0619,-289.771 84.0568,-288.766 87,-288 315.061,-228.657 382.527,-283.993 616,-252 628.491,-250.288 641.929,-247.786 654.239,-245.224"/>
<polygon fill="black" stroke="black" points="655.224,-248.593 664.268,-243.075 653.757,-241.748 655.224,-248.593"/>
<g id="a_edge24&#45;headlabel"><a xlink:href="dir_000115_000028.xhtml" target="_top" xlink:title="340">
<text text-anchor="middle" x="652.304" y="-249.622" font-family="Helvetica,sans-Serif" font-size="10.00">340</text>
</a>
</g>
</g>
<!-- dir_214608ef36d61442cb2b0c1c4e9a7def -->
<g id="node12" class="node"><title>dir_214608ef36d61442cb2b0c1c4e9a7def</title>
<g id="a_node12"><a xlink:href="dir_214608ef36d61442cb2b0c1c4e9a7def.xhtml" target="_top" xlink:title="arm_compute">
<polygon fill="white" stroke="red" points="543,-108 459,-108 459,-72 543,-72 543,-108"/>
<text text-anchor="middle" x="501" y="-87.5" font-family="Helvetica,sans-Serif" font-size="10.00">arm_compute</text>
</a>
</g>
</g>
<!-- dir_f7024513cd67abef53e86ee9382ac5ce&#45;&gt;dir_214608ef36d61442cb2b0c1c4e9a7def -->
<g id="edge25" class="edge"><title>dir_f7024513cd67abef53e86ee9382ac5ce&#45;&gt;dir_214608ef36d61442cb2b0c1c4e9a7def</title>
<path fill="none" stroke="black" d="M78.1903,-291.159C81.1185,-289.971 84.091,-288.887 87,-288 188.909,-256.926 231.782,-305.357 324,-252 377.11,-221.271 363.582,-184.129 410,-144 423.759,-132.106 440.565,-121.452 455.973,-112.872"/>
<polygon fill="black" stroke="black" points="457.723,-115.905 464.85,-108.065 454.39,-109.749 457.723,-115.905"/>
<g id="a_edge25&#45;headlabel"><a xlink:href="dir_000115_000000.xhtml" target="_top" xlink:title="469">
<text text-anchor="middle" x="455.914" y="-117.613" font-family="Helvetica,sans-Serif" font-size="10.00">469</text>
</a>
</g>
</g>
<!-- dir_896191444cf08ec8ade6f88256cb2bdd -->
<g id="node13" class="node"><title>dir_896191444cf08ec8ade6f88256cb2bdd</title>
<g id="a_node13"><a xlink:href="dir_896191444cf08ec8ade6f88256cb2bdd.xhtml" target="_top" xlink:title="CL">
<polygon fill="none" stroke="black" points="325,-180 271,-180 271,-144 325,-144 325,-180"/>
<text text-anchor="middle" x="298" y="-159.5" font-family="Helvetica,sans-Serif" font-size="10.00">CL</text>
</a>
</g>
</g>
<!-- dir_f7024513cd67abef53e86ee9382ac5ce&#45;&gt;dir_896191444cf08ec8ade6f88256cb2bdd -->
<g id="edge26" class="edge"><title>dir_f7024513cd67abef53e86ee9382ac5ce&#45;&gt;dir_896191444cf08ec8ade6f88256cb2bdd</title>
<path fill="none" stroke="black" d="M78.2029,-291.2C81.1287,-290.004 84.0972,-288.907 87,-288 133.658,-273.424 272.39,-289.286 304,-252 318.327,-235.1 314.767,-209.294 308.838,-189.814"/>
<polygon fill="black" stroke="black" points="312.132,-188.629 305.604,-180.285 305.503,-190.879 312.132,-188.629"/>
<g id="a_edge26&#45;headlabel"><a xlink:href="dir_000115_000133.xhtml" target="_top" xlink:title="144">
<text text-anchor="middle" x="315.976" y="-188.621" font-family="Helvetica,sans-Serif" font-size="10.00">144</text>
</a>
</g>
</g>
<!-- dir_5815af820a9cc9481f1d0990a0d60286 -->
<g id="node14" class="node"><title>dir_5815af820a9cc9481f1d0990a0d60286</title>
<g id="a_node14"><a xlink:href="dir_5815af820a9cc9481f1d0990a0d60286.xhtml" target="_top" xlink:title="support">
<polygon fill="none" stroke="black" points="293,-36 239,-36 239,-0 293,-0 293,-36"/>
<text text-anchor="middle" x="266" y="-15.5" font-family="Helvetica,sans-Serif" font-size="10.00">support</text>
</a>
</g>
</g>
<!-- dir_f7024513cd67abef53e86ee9382ac5ce&#45;&gt;dir_5815af820a9cc9481f1d0990a0d60286 -->
<g id="edge27" class="edge"><title>dir_f7024513cd67abef53e86ee9382ac5ce&#45;&gt;dir_5815af820a9cc9481f1d0990a0d60286</title>
<path fill="none" stroke="black" d="M56.8615,-287.882C71.7034,-246.549 114.251,-139.717 179,-72 193.335,-57.0079 212.795,-44.6287 229.676,-35.6148"/>
<polygon fill="black" stroke="black" points="231.445,-38.6412 238.74,-30.9581 228.246,-32.4148 231.445,-38.6412"/>
<g id="a_edge27&#45;headlabel"><a xlink:href="dir_000115_000132.xhtml" target="_top" xlink:title="3">
<text text-anchor="middle" x="229.545" y="-40.3092" font-family="Helvetica,sans-Serif" font-size="10.00">3</text>
</a>
</g>
</g>
<!-- dir_420d2db1b9c99f59825a3985434c3703 -->
<g id="node3" class="node"><title>dir_420d2db1b9c99f59825a3985434c3703</title>
<g id="a_node3"><a xlink:href="dir_420d2db1b9c99f59825a3985434c3703.xhtml" target="_top" xlink:title="CPP">
<polygon fill="white" stroke="black" points="408,-324 354,-324 354,-288 408,-288 408,-324"/>
<text text-anchor="middle" x="381" y="-303.5" font-family="Helvetica,sans-Serif" font-size="10.00">CPP</text>
</a>
</g>
</g>
<!-- dir_445738e6fed662d0b65e690e3f1e1de0 -->
<g id="node9" class="node"><title>dir_445738e6fed662d0b65e690e3f1e1de0</title>
<g id="a_node9"><a xlink:href="dir_445738e6fed662d0b65e690e3f1e1de0.xhtml" target="_top" xlink:title="NEON">
<polygon fill="none" stroke="black" points="842,-252 788,-252 788,-216 842,-216 842,-252"/>
<text text-anchor="middle" x="815" y="-231.5" font-family="Helvetica,sans-Serif" font-size="10.00">NEON</text>
</a>
</g>
</g>
<!-- dir_420d2db1b9c99f59825a3985434c3703&#45;&gt;dir_445738e6fed662d0b65e690e3f1e1de0 -->
<g id="edge35" class="edge"><title>dir_420d2db1b9c99f59825a3985434c3703&#45;&gt;dir_445738e6fed662d0b65e690e3f1e1de0</title>
<path fill="none" stroke="black" d="M408.146,-291.008C411.083,-289.85 414.07,-288.814 417,-288 570.658,-245.335 619.36,-290.956 774,-252 775.261,-251.682 776.534,-251.333 777.812,-250.957"/>
<polygon fill="black" stroke="black" points="779.234,-254.17 787.585,-247.65 776.991,-247.54 779.234,-254.17"/>
<g id="a_edge35&#45;headlabel"><a xlink:href="dir_000139_000135.xhtml" target="_top" xlink:title="3">
<text text-anchor="middle" x="776.739" y="-255.512" font-family="Helvetica,sans-Serif" font-size="10.00">3</text>
</a>
</g>
</g>
<!-- dir_420d2db1b9c99f59825a3985434c3703&#45;&gt;dir_9e71e2da941d3cafc4d98a9f6ae3de4f -->
<g id="edge36" class="edge"><title>dir_420d2db1b9c99f59825a3985434c3703&#45;&gt;dir_9e71e2da941d3cafc4d98a9f6ae3de4f</title>
<path fill="none" stroke="black" d="M408.193,-291.166C411.12,-289.977 414.092,-288.891 417,-288 517.189,-257.311 548.392,-277.603 650,-252 651.473,-251.629 652.965,-251.231 654.467,-250.811"/>
<polygon fill="black" stroke="black" points="655.866,-254.044 664.415,-247.786 653.829,-247.347 655.866,-254.044"/>
<g id="a_edge36&#45;headlabel"><a xlink:href="dir_000139_000028.xhtml" target="_top" xlink:title="9">
<text text-anchor="middle" x="653.252" y="-255.306" font-family="Helvetica,sans-Serif" font-size="10.00">9</text>
</a>
</g>
</g>
<!-- dir_420d2db1b9c99f59825a3985434c3703&#45;&gt;dir_214608ef36d61442cb2b0c1c4e9a7def -->
<g id="edge37" class="edge"><title>dir_420d2db1b9c99f59825a3985434c3703&#45;&gt;dir_214608ef36d61442cb2b0c1c4e9a7def</title>
<path fill="none" stroke="black" d="M408.132,-290.954C411.071,-289.807 414.063,-288.788 417,-288 463.737,-275.468 818.229,-287.602 851,-252 887.345,-212.515 844.341,-169.274 797,-144 719.181,-102.454 615.132,-92.6629 553.383,-90.8069"/>
<polygon fill="black" stroke="black" points="553.186,-87.3012 543.105,-90.5598 553.018,-94.2992 553.186,-87.3012"/>
<g id="a_edge37&#45;headlabel"><a xlink:href="dir_000139_000000.xhtml" target="_top" xlink:title="12">
<text text-anchor="middle" x="556.848" y="-82.0491" font-family="Helvetica,sans-Serif" font-size="10.00">12</text>
</a>
</g>
</g>
<!-- dir_fbdf7bf92663091dc4d5520df638c068 -->
<g id="node4" class="node"><title>dir_fbdf7bf92663091dc4d5520df638c068</title>
<g id="a_node4"><a xlink:href="dir_fbdf7bf92663091dc4d5520df638c068.xhtml" target="_top" xlink:title="GLES_COMPUTE">
<polygon fill="white" stroke="red" points="263.5,-324 168.5,-324 168.5,-288 263.5,-288 263.5,-324"/>
<text text-anchor="middle" x="216" y="-303.5" font-family="Helvetica,sans-Serif" font-size="10.00">GLES_COMPUTE</text>
</a>
</g>
</g>
<!-- dir_fbdf7bf92663091dc4d5520df638c068&#45;&gt;dir_9e71e2da941d3cafc4d98a9f6ae3de4f -->
<g id="edge4" class="edge"><title>dir_fbdf7bf92663091dc4d5520df638c068&#45;&gt;dir_9e71e2da941d3cafc4d98a9f6ae3de4f</title>
<path fill="none" stroke="black" d="M263.726,-290.032C266.848,-289.28 269.959,-288.593 273,-288 438.208,-255.795 485.658,-288.369 650,-252 651.484,-251.672 652.984,-251.311 654.493,-250.923"/>
<polygon fill="black" stroke="black" points="655.839,-254.178 664.475,-248.04 653.896,-247.453 655.839,-254.178"/>
<g id="a_edge4&#45;headlabel"><a xlink:href="dir_000116_000028.xhtml" target="_top" xlink:title="56">
<text text-anchor="middle" x="653.173" y="-255.403" font-family="Helvetica,sans-Serif" font-size="10.00">56</text>
</a>
</g>
</g>
<!-- dir_7365e77196b52ca311bb83f181e59b8c -->
<g id="node11" class="node"><title>dir_7365e77196b52ca311bb83f181e59b8c</title>
<g id="a_node11"><a xlink:href="dir_7365e77196b52ca311bb83f181e59b8c.xhtml" target="_top" xlink:title="GLES_COMPUTE">
<polygon fill="none" stroke="black" points="607.5,-252 512.5,-252 512.5,-216 607.5,-216 607.5,-252"/>
<text text-anchor="middle" x="560" y="-231.5" font-family="Helvetica,sans-Serif" font-size="10.00">GLES_COMPUTE</text>
</a>
</g>
</g>
<!-- dir_fbdf7bf92663091dc4d5520df638c068&#45;&gt;dir_7365e77196b52ca311bb83f181e59b8c -->
<g id="edge5" class="edge"><title>dir_fbdf7bf92663091dc4d5520df638c068&#45;&gt;dir_7365e77196b52ca311bb83f181e59b8c</title>
<path fill="none" stroke="black" d="M263.772,-290.252C266.883,-289.446 269.979,-288.687 273,-288 372.608,-265.353 400.239,-273.962 500,-252 500.753,-251.834 501.511,-251.664 502.273,-251.491"/>
<polygon fill="black" stroke="black" points="503.417,-254.815 512.315,-249.063 501.772,-248.011 503.417,-254.815"/>
<g id="a_edge5&#45;headlabel"><a xlink:href="dir_000116_000134.xhtml" target="_top" xlink:title="21">
<text text-anchor="middle" x="500.59" y="-255.92" font-family="Helvetica,sans-Serif" font-size="10.00">21</text>
</a>
</g>
</g>
<!-- dir_fbdf7bf92663091dc4d5520df638c068&#45;&gt;dir_214608ef36d61442cb2b0c1c4e9a7def -->
<g id="edge6" class="edge"><title>dir_fbdf7bf92663091dc4d5520df638c068&#45;&gt;dir_214608ef36d61442cb2b0c1c4e9a7def</title>
<path fill="none" stroke="black" d="M263.732,-290.065C266.853,-289.305 269.962,-288.607 273,-288 348.155,-272.983 564.713,-308.952 616,-252 657.007,-206.464 585.016,-146.209 537.601,-113.861"/>
<polygon fill="black" stroke="black" points="539.325,-110.804 529.066,-108.156 535.435,-116.623 539.325,-110.804"/>
<g id="a_edge6&#45;headlabel"><a xlink:href="dir_000116_000000.xhtml" target="_top" xlink:title="79">
<text text-anchor="middle" x="543.891" y="-107.941" font-family="Helvetica,sans-Serif" font-size="10.00">79</text>
</a>
</g>
</g>
<!-- dir_fbdf7bf92663091dc4d5520df638c068&#45;&gt;dir_5815af820a9cc9481f1d0990a0d60286 -->
<g id="edge7" class="edge"><title>dir_fbdf7bf92663091dc4d5520df638c068&#45;&gt;dir_5815af820a9cc9481f1d0990a0d60286</title>
<path fill="none" stroke="black" d="M211.545,-287.748C202.109,-247.454 183.801,-145.044 220,-72 225.002,-61.9072 232.39,-52.1917 239.79,-43.8974"/>
<polygon fill="black" stroke="black" points="242.52,-46.1025 246.809,-36.4147 237.415,-41.3132 242.52,-46.1025"/>
<g id="a_edge7&#45;headlabel"><a xlink:href="dir_000116_000132.xhtml" target="_top" xlink:title="1">
<text text-anchor="middle" x="242.131" y="-48.1667" font-family="Helvetica,sans-Serif" font-size="10.00">1</text>
</a>
</g>
</g>
<!-- dir_0538a82dae0483a21d0f1e9d7e0a45c6 -->
<g id="node5" class="node"><title>dir_0538a82dae0483a21d0f1e9d7e0a45c6</title>
<g id="a_node5"><a xlink:href="dir_0538a82dae0483a21d0f1e9d7e0a45c6.xhtml" target="_top" xlink:title="NEON">
<polygon fill="white" stroke="red" points="336,-324 282,-324 282,-288 336,-288 336,-324"/>
<text text-anchor="middle" x="309" y="-303.5" font-family="Helvetica,sans-Serif" font-size="10.00">NEON</text>
</a>
</g>
</g>
<!-- dir_0538a82dae0483a21d0f1e9d7e0a45c6&#45;&gt;dir_46fdb196cebdbffe77dac340cde62f29 -->
<g id="edge28" class="edge"><title>dir_0538a82dae0483a21d0f1e9d7e0a45c6&#45;&gt;dir_46fdb196cebdbffe77dac340cde62f29</title>
<path fill="none" stroke="black" d="M297.876,-287.697C292.645,-279.559 286.3,-269.689 280.522,-260.701"/>
<polygon fill="black" stroke="black" points="283.347,-258.623 274.996,-252.104 277.459,-262.409 283.347,-258.623"/>
<g id="a_edge28&#45;headlabel"><a xlink:href="dir_000117_000029.xhtml" target="_top" xlink:title="2">
<text text-anchor="middle" x="287.679" y="-257.612" font-family="Helvetica,sans-Serif" font-size="10.00">2</text>
</a>
</g>
</g>
<!-- dir_0538a82dae0483a21d0f1e9d7e0a45c6&#45;&gt;dir_445738e6fed662d0b65e690e3f1e1de0 -->
<g id="edge29" class="edge"><title>dir_0538a82dae0483a21d0f1e9d7e0a45c6&#45;&gt;dir_445738e6fed662d0b65e690e3f1e1de0</title>
<path fill="none" stroke="black" d="M336.133,-290.957C339.072,-289.809 342.063,-288.789 345,-288 529.785,-238.358 588.074,-297.182 774,-252 775.264,-251.693 776.539,-251.352 777.818,-250.984"/>
<polygon fill="black" stroke="black" points="779.226,-254.205 787.601,-247.716 777.008,-247.565 779.226,-254.205"/>
<g id="a_edge29&#45;headlabel"><a xlink:href="dir_000117_000135.xhtml" target="_top" xlink:title="118">
<text text-anchor="middle" x="776.716" y="-255.536" font-family="Helvetica,sans-Serif" font-size="10.00">118</text>
</a>
</g>
</g>
<!-- dir_0538a82dae0483a21d0f1e9d7e0a45c6&#45;&gt;dir_9e71e2da941d3cafc4d98a9f6ae3de4f -->
<g id="edge30" class="edge"><title>dir_0538a82dae0483a21d0f1e9d7e0a45c6&#45;&gt;dir_9e71e2da941d3cafc4d98a9f6ae3de4f</title>
<path fill="none" stroke="black" d="M336.161,-291.059C339.095,-289.891 342.077,-288.839 345,-288 476.206,-250.366 517.065,-282.977 650,-252 651.48,-251.655 652.977,-251.28 654.483,-250.88"/>
<polygon fill="black" stroke="black" points="655.85,-254.126 664.452,-247.942 653.871,-247.412 655.85,-254.126"/>
<g id="a_edge30&#45;headlabel"><a xlink:href="dir_000117_000028.xhtml" target="_top" xlink:title="302">
<text text-anchor="middle" x="653.204" y="-255.366" font-family="Helvetica,sans-Serif" font-size="10.00">302</text>
</a>
</g>
</g>
<!-- dir_0538a82dae0483a21d0f1e9d7e0a45c6&#45;&gt;dir_214608ef36d61442cb2b0c1c4e9a7def -->
<g id="edge31" class="edge"><title>dir_0538a82dae0483a21d0f1e9d7e0a45c6&#45;&gt;dir_214608ef36d61442cb2b0c1c4e9a7def</title>
<path fill="none" stroke="black" d="M336.138,-290.979C339.077,-289.826 342.066,-288.8 345,-288 430.041,-264.827 680.57,-317.093 740,-252 777.318,-211.126 726.229,-171.153 678,-144 638.909,-121.992 589.705,-108.212 553.103,-100.239"/>
<polygon fill="black" stroke="black" points="553.639,-96.7753 543.133,-98.1421 552.198,-103.625 553.639,-96.7753"/>
<g id="a_edge31&#45;headlabel"><a xlink:href="dir_000117_000000.xhtml" target="_top" xlink:title="406">
<text text-anchor="middle" x="557.741" y="-92.2365" font-family="Helvetica,sans-Serif" font-size="10.00">406</text>
</a>
</g>
</g>
<!-- dir_0538a82dae0483a21d0f1e9d7e0a45c6&#45;&gt;dir_5815af820a9cc9481f1d0990a0d60286 -->
<g id="edge32" class="edge"><title>dir_0538a82dae0483a21d0f1e9d7e0a45c6&#45;&gt;dir_5815af820a9cc9481f1d0990a0d60286</title>
<path fill="none" stroke="black" d="M281.928,-291.814C259.556,-280.292 230.455,-263.633 224,-252 186.387,-184.222 226.983,-89.8602 250.971,-44.8626"/>
<polygon fill="black" stroke="black" points="254.071,-46.4894 255.804,-36.0372 247.931,-43.1272 254.071,-46.4894"/>
<g id="a_edge32&#45;headlabel"><a xlink:href="dir_000117_000132.xhtml" target="_top" xlink:title="2">
<text text-anchor="middle" x="254.835" y="-48.5059" font-family="Helvetica,sans-Serif" font-size="10.00">2</text>
</a>
</g>
</g>
<!-- dir_46fdb196cebdbffe77dac340cde62f29&#45;&gt;dir_9e71e2da941d3cafc4d98a9f6ae3de4f -->
<g id="edge1" class="edge"><title>dir_46fdb196cebdbffe77dac340cde62f29&#45;&gt;dir_9e71e2da941d3cafc4d98a9f6ae3de4f</title>
<path fill="none" stroke="black" d="M295.018,-244.592C360.398,-265.276 516.578,-306.002 641,-270 650.165,-267.348 659.272,-262.735 667.43,-257.678"/>
<polygon fill="black" stroke="black" points="669.463,-260.53 675.867,-252.089 665.597,-254.694 669.463,-260.53"/>
<g id="a_edge1&#45;headlabel"><a xlink:href="dir_000029_000028.xhtml" target="_top" xlink:title="3">
<text text-anchor="middle" x="668.035" y="-262.382" font-family="Helvetica,sans-Serif" font-size="10.00">3</text>
</a>
</g>
</g>
<!-- dir_46fdb196cebdbffe77dac340cde62f29&#45;&gt;dir_214608ef36d61442cb2b0c1c4e9a7def -->
<g id="edge2" class="edge"><title>dir_46fdb196cebdbffe77dac340cde62f29&#45;&gt;dir_214608ef36d61442cb2b0c1c4e9a7def</title>
<path fill="none" stroke="black" d="M287.233,-215.855C300.964,-205.612 318.618,-192.25 334,-180 353.497,-164.473 355.757,-157.038 377,-144 399.522,-130.177 426.29,-118.24 449.182,-109.213"/>
<polygon fill="black" stroke="black" points="450.663,-112.393 458.731,-105.525 448.141,-105.863 450.663,-112.393"/>
<g id="a_edge2&#45;headlabel"><a xlink:href="dir_000029_000000.xhtml" target="_top" xlink:title="85">
<text text-anchor="middle" x="448.333" y="-113.836" font-family="Helvetica,sans-Serif" font-size="10.00">85</text>
</a>
</g>
</g>
<!-- dir_46fdb196cebdbffe77dac340cde62f29&#45;&gt;dir_5815af820a9cc9481f1d0990a0d60286 -->
<g id="edge3" class="edge"><title>dir_46fdb196cebdbffe77dac340cde62f29&#45;&gt;dir_5815af820a9cc9481f1d0990a0d60286</title>
<path fill="none" stroke="black" d="M263.187,-215.819C262.738,-205.448 262.226,-191.968 262,-180 261.118,-133.238 263.097,-78.8451 264.574,-46.76"/>
<polygon fill="black" stroke="black" points="268.088,-46.5464 265.07,-36.3905 261.096,-46.2118 268.088,-46.5464"/>
<g id="a_edge3&#45;headlabel"><a xlink:href="dir_000029_000132.xhtml" target="_top" xlink:title="2">
<text text-anchor="middle" x="270.752" y="-47.7725" font-family="Helvetica,sans-Serif" font-size="10.00">2</text>
</a>
</g>
</g>
<!-- dir_0c108762cda89b68d4571cbbabdf46df -->
<g id="node7" class="node"><title>dir_0c108762cda89b68d4571cbbabdf46df</title>
<g id="a_node7"><a xlink:href="dir_0c108762cda89b68d4571cbbabdf46df.xhtml" target="_top" xlink:title="UNIT">
<polygon fill="white" stroke="black" points="150,-324 96,-324 96,-288 150,-288 150,-324"/>
<text text-anchor="middle" x="123" y="-303.5" font-family="Helvetica,sans-Serif" font-size="10.00">UNIT</text>
</a>
</g>
</g>
<!-- dir_0c108762cda89b68d4571cbbabdf46df&#45;&gt;dir_cbdb8362360e11eafe2fa3bc74cf0ffd -->
<g id="edge16" class="edge"><title>dir_0c108762cda89b68d4571cbbabdf46df&#45;&gt;dir_cbdb8362360e11eafe2fa3bc74cf0ffd</title>
<path fill="none" stroke="black" d="M150.177,-291.115C153.108,-289.936 156.085,-288.866 159,-288 215.55,-271.211 377.718,-290.973 422,-252 439.311,-236.764 444.738,-210.481 446.175,-190.415"/>
<polygon fill="black" stroke="black" points="449.677,-190.439 446.609,-180.298 442.683,-190.139 449.677,-190.439"/>
<g id="a_edge16&#45;headlabel"><a xlink:href="dir_000064_000030.xhtml" target="_top" xlink:title="3">
<text text-anchor="middle" x="452.36" y="-191.652" font-family="Helvetica,sans-Serif" font-size="10.00">3</text>
</a>
</g>
</g>
<!-- dir_0c108762cda89b68d4571cbbabdf46df&#45;&gt;dir_9e71e2da941d3cafc4d98a9f6ae3de4f -->
<g id="edge17" class="edge"><title>dir_0c108762cda89b68d4571cbbabdf46df&#45;&gt;dir_9e71e2da941d3cafc4d98a9f6ae3de4f</title>
<path fill="none" stroke="black" d="M150.128,-290.942C153.069,-289.797 156.061,-288.782 159,-288 355.898,-235.643 414.296,-280.737 616,-252 628.482,-250.222 641.917,-247.697 654.227,-245.137"/>
<polygon fill="black" stroke="black" points="655.209,-248.506 664.257,-242.993 653.746,-241.66 655.209,-248.506"/>
<g id="a_edge17&#45;headlabel"><a xlink:href="dir_000064_000028.xhtml" target="_top" xlink:title="13">
<text text-anchor="middle" x="652.288" y="-249.534" font-family="Helvetica,sans-Serif" font-size="10.00">13</text>
</a>
</g>
</g>
<!-- dir_0c108762cda89b68d4571cbbabdf46df&#45;&gt;dir_214608ef36d61442cb2b0c1c4e9a7def -->
<g id="edge18" class="edge"><title>dir_0c108762cda89b68d4571cbbabdf46df&#45;&gt;dir_214608ef36d61442cb2b0c1c4e9a7def</title>
<path fill="none" stroke="black" d="M150.166,-291.078C153.099,-289.907 156.079,-288.848 159,-288 283.305,-251.912 343.166,-327.919 448,-252 490.408,-221.288 499.469,-155.489 501.051,-118.215"/>
<polygon fill="black" stroke="black" points="504.554,-118.163 501.326,-108.072 497.556,-117.974 504.554,-118.163"/>
<g id="a_edge18&#45;headlabel"><a xlink:href="dir_000064_000000.xhtml" target="_top" xlink:title="4">
<text text-anchor="middle" x="507.295" y="-119.333" font-family="Helvetica,sans-Serif" font-size="10.00">4</text>
</a>
</g>
</g>
<!-- dir_0c108762cda89b68d4571cbbabdf46df&#45;&gt;dir_5815af820a9cc9481f1d0990a0d60286 -->
<g id="edge19" class="edge"><title>dir_0c108762cda89b68d4571cbbabdf46df&#45;&gt;dir_5815af820a9cc9481f1d0990a0d60286</title>
<path fill="none" stroke="black" d="M125.655,-287.783C132.579,-247.13 154.142,-143.252 203,-72 210.654,-60.8382 221.264,-50.6826 231.598,-42.3158"/>
<polygon fill="black" stroke="black" points="233.992,-44.889 239.763,-36.0043 229.711,-39.3506 233.992,-44.889"/>
<g id="a_edge19&#45;headlabel"><a xlink:href="dir_000064_000132.xhtml" target="_top" xlink:title="1">
<text text-anchor="middle" x="232.884" y="-46.8337" font-family="Helvetica,sans-Serif" font-size="10.00">1</text>
</a>
</g>
</g>
<!-- dir_cbdb8362360e11eafe2fa3bc74cf0ffd&#45;&gt;dir_214608ef36d61442cb2b0c1c4e9a7def -->
<g id="edge8" class="edge"><title>dir_cbdb8362360e11eafe2fa3bc74cf0ffd&#45;&gt;dir_214608ef36d61442cb2b0c1c4e9a7def</title>
<path fill="none" stroke="black" d="M453.68,-143.697C459.408,-135.305 467.257,-125.07 474.974,-115.861"/>
<polygon fill="black" stroke="black" points="477.784,-117.962 481.666,-108.104 472.484,-113.39 477.784,-117.962"/>
<g id="a_edge8&#45;headlabel"><a xlink:href="dir_000030_000000.xhtml" target="_top" xlink:title="36">
<text text-anchor="middle" x="477.586" y="-120.039" font-family="Helvetica,sans-Serif" font-size="10.00">36</text>
</a>
</g>
</g>
<!-- dir_cbdb8362360e11eafe2fa3bc74cf0ffd&#45;&gt;dir_5815af820a9cc9481f1d0990a0d60286 -->
<g id="edge9" class="edge"><title>dir_cbdb8362360e11eafe2fa3bc74cf0ffd&#45;&gt;dir_5815af820a9cc9481f1d0990a0d60286</title>
<path fill="none" stroke="black" d="M424.288,-143.871C392.259,-118.604 332.238,-71.2543 296.015,-42.6788"/>
<polygon fill="black" stroke="black" points="297.808,-39.635 287.789,-36.1893 293.473,-45.1308 297.808,-39.635"/>
<g id="a_edge9&#45;headlabel"><a xlink:href="dir_000030_000132.xhtml" target="_top" xlink:title="3">
<text text-anchor="middle" x="302.389" y="-37.1322" font-family="Helvetica,sans-Serif" font-size="10.00">3</text>
</a>
</g>
</g>
<!-- dir_445738e6fed662d0b65e690e3f1e1de0&#45;&gt;dir_214608ef36d61442cb2b0c1c4e9a7def -->
<g id="edge10" class="edge"><title>dir_445738e6fed662d0b65e690e3f1e1de0&#45;&gt;dir_214608ef36d61442cb2b0c1c4e9a7def</title>
<path fill="none" stroke="black" d="M811.215,-215.995C805.747,-195.587 793.595,-161.885 770,-144 736.58,-118.668 621.726,-103.099 553.372,-95.8543"/>
<polygon fill="black" stroke="black" points="553.538,-92.3528 543.23,-94.8042 552.817,-99.3155 553.538,-92.3528"/>
<g id="a_edge10&#45;headlabel"><a xlink:href="dir_000135_000000.xhtml" target="_top" xlink:title="6">
<text text-anchor="middle" x="557.406" y="-87.3987" font-family="Helvetica,sans-Serif" font-size="10.00">6</text>
</a>
</g>
</g>
<!-- dir_445738e6fed662d0b65e690e3f1e1de0&#45;&gt;dir_5815af820a9cc9481f1d0990a0d60286 -->
<g id="edge11" class="edge"><title>dir_445738e6fed662d0b65e690e3f1e1de0&#45;&gt;dir_5815af820a9cc9481f1d0990a0d60286</title>
<path fill="none" stroke="black" d="M816.127,-215.863C816.476,-196.26 814.053,-164.263 797,-144 732.606,-67.4861 413.087,-32.1446 303.197,-22.1162"/>
<polygon fill="black" stroke="black" points="303.505,-18.6298 293.232,-21.2242 302.88,-25.602 303.505,-18.6298"/>
<g id="a_edge11&#45;headlabel"><a xlink:href="dir_000135_000132.xhtml" target="_top" xlink:title="1">
<text text-anchor="middle" x="307.338" y="-13.6223" font-family="Helvetica,sans-Serif" font-size="10.00">1</text>
</a>
</g>
</g>
<!-- dir_9e71e2da941d3cafc4d98a9f6ae3de4f&#45;&gt;dir_cbdb8362360e11eafe2fa3bc74cf0ffd -->
<g id="edge12" class="edge"><title>dir_9e71e2da941d3cafc4d98a9f6ae3de4f&#45;&gt;dir_cbdb8362360e11eafe2fa3bc74cf0ffd</title>
<path fill="none" stroke="black" d="M664.152,-217.886C649.543,-211.754 632.134,-204.964 616,-200 571.13,-186.196 518.083,-175.515 483.325,-169.254"/>
<polygon fill="black" stroke="black" points="483.612,-165.75 473.155,-167.454 482.392,-172.643 483.612,-165.75"/>
<g id="a_edge12&#45;headlabel"><a xlink:href="dir_000028_000030.xhtml" target="_top" xlink:title="3">
<text text-anchor="middle" x="487.646" y="-161.081" font-family="Helvetica,sans-Serif" font-size="10.00">3</text>
</a>
</g>
</g>
<!-- dir_9e71e2da941d3cafc4d98a9f6ae3de4f&#45;&gt;dir_214608ef36d61442cb2b0c1c4e9a7def -->
<g id="edge13" class="edge"><title>dir_9e71e2da941d3cafc4d98a9f6ae3de4f&#45;&gt;dir_214608ef36d61442cb2b0c1c4e9a7def</title>
<path fill="none" stroke="black" d="M692.939,-215.842C686.225,-195.915 672.519,-163.316 650,-144 622.545,-120.451 583.888,-107.103 552.829,-99.694"/>
<polygon fill="black" stroke="black" points="553.56,-96.2711 543.036,-97.4917 552.024,-103.101 553.56,-96.2711"/>
<g id="a_edge13&#45;headlabel"><a xlink:href="dir_000028_000000.xhtml" target="_top" xlink:title="14">
<text text-anchor="middle" x="557.69" y="-91.7896" font-family="Helvetica,sans-Serif" font-size="10.00">14</text>
</a>
</g>
</g>
<!-- dir_9e71e2da941d3cafc4d98a9f6ae3de4f&#45;&gt;dir_5815af820a9cc9481f1d0990a0d60286 -->
<g id="edge14" class="edge"><title>dir_9e71e2da941d3cafc4d98a9f6ae3de4f&#45;&gt;dir_5815af820a9cc9481f1d0990a0d60286</title>
<path fill="none" stroke="black" d="M698.128,-215.921C697.439,-196.664 693.717,-165.271 678,-144 639.671,-92.1261 612.561,-94.1884 552,-72 466.251,-40.5833 358.928,-27.1048 303.304,-21.8985"/>
<polygon fill="black" stroke="black" points="303.486,-18.4009 293.213,-20.9924 302.86,-25.3728 303.486,-18.4009"/>
<g id="a_edge14&#45;headlabel"><a xlink:href="dir_000028_000132.xhtml" target="_top" xlink:title="7">
<text text-anchor="middle" x="307.32" y="-13.3944" font-family="Helvetica,sans-Serif" font-size="10.00">7</text>
</a>
</g>
</g>
<!-- dir_7365e77196b52ca311bb83f181e59b8c&#45;&gt;dir_214608ef36d61442cb2b0c1c4e9a7def -->
<g id="edge15" class="edge"><title>dir_7365e77196b52ca311bb83f181e59b8c&#45;&gt;dir_214608ef36d61442cb2b0c1c4e9a7def</title>
<path fill="none" stroke="black" d="M552.883,-215.871C542.739,-191.457 524.029,-146.426 512.067,-117.635"/>
<polygon fill="black" stroke="black" points="515.211,-116.081 508.142,-108.189 508.747,-118.767 515.211,-116.081"/>
<g id="a_edge15&#45;headlabel"><a xlink:href="dir_000134_000000.xhtml" target="_top" xlink:title="3">
<text text-anchor="middle" x="519.212" y="-115.811" font-family="Helvetica,sans-Serif" font-size="10.00">3</text>
</a>
</g>
</g>
<!-- dir_214608ef36d61442cb2b0c1c4e9a7def&#45;&gt;dir_cbdb8362360e11eafe2fa3bc74cf0ffd -->
<g id="edge20" class="edge"><title>dir_214608ef36d61442cb2b0c1c4e9a7def&#45;&gt;dir_cbdb8362360e11eafe2fa3bc74cf0ffd</title>
<path fill="none" stroke="black" d="M493.456,-108.104C487.762,-116.467 479.928,-126.694 472.209,-135.92"/>
<polygon fill="black" stroke="black" points="469.385,-133.835 465.511,-143.697 474.689,-138.403 469.385,-133.835"/>
<g id="a_edge20&#45;headlabel"><a xlink:href="dir_000000_000030.xhtml" target="_top" xlink:title="1">
<text text-anchor="middle" x="469.579" y="-126.759" font-family="Helvetica,sans-Serif" font-size="10.00">1</text>
</a>
</g>
</g>
<!-- dir_214608ef36d61442cb2b0c1c4e9a7def&#45;&gt;dir_5815af820a9cc9481f1d0990a0d60286 -->
<g id="edge21" class="edge"><title>dir_214608ef36d61442cb2b0c1c4e9a7def&#45;&gt;dir_5815af820a9cc9481f1d0990a0d60286</title>
<path fill="none" stroke="black" d="M458.987,-76.4854C414.498,-63.2334 344.972,-42.5235 302.638,-29.9134"/>
<polygon fill="black" stroke="black" points="303.591,-26.5453 293.008,-27.0448 301.592,-33.254 303.591,-26.5453"/>
<g id="a_edge21&#45;headlabel"><a xlink:href="dir_000000_000132.xhtml" target="_top" xlink:title="21">
<text text-anchor="middle" x="307.846" y="-22.3503" font-family="Helvetica,sans-Serif" font-size="10.00">21</text>
</a>
</g>
</g>
<!-- dir_896191444cf08ec8ade6f88256cb2bdd&#45;&gt;dir_214608ef36d61442cb2b0c1c4e9a7def -->
<g id="edge33" class="edge"><title>dir_896191444cf08ec8ade6f88256cb2bdd&#45;&gt;dir_214608ef36d61442cb2b0c1c4e9a7def</title>
<path fill="none" stroke="black" d="M325.232,-149.366C329.805,-147.511 334.52,-145.659 339,-144 375.466,-130.498 417.18,-116.892 449.146,-106.847"/>
<polygon fill="black" stroke="black" points="450.237,-110.173 458.737,-103.848 448.148,-103.492 450.237,-110.173"/>
<g id="a_edge33&#45;headlabel"><a xlink:href="dir_000133_000000.xhtml" target="_top" xlink:title="10">
<text text-anchor="middle" x="447.654" y="-111.456" font-family="Helvetica,sans-Serif" font-size="10.00">10</text>
</a>
</g>
</g>
<!-- dir_896191444cf08ec8ade6f88256cb2bdd&#45;&gt;dir_5815af820a9cc9481f1d0990a0d60286 -->
<g id="edge34" class="edge"><title>dir_896191444cf08ec8ade6f88256cb2bdd&#45;&gt;dir_5815af820a9cc9481f1d0990a0d60286</title>
<path fill="none" stroke="black" d="M294.14,-143.871C288.662,-119.564 278.579,-74.8187 272.087,-46.0132"/>
<polygon fill="black" stroke="black" points="275.486,-45.1752 269.874,-36.1893 268.658,-46.7141 275.486,-45.1752"/>
<g id="a_edge34&#45;headlabel"><a xlink:href="dir_000133_000132.xhtml" target="_top" xlink:title="1">
<text text-anchor="middle" x="279.046" y="-45.5577" font-family="Helvetica,sans-Serif" font-size="10.00">1</text>
</a>
</g>
</g>
</g>
</svg>
