<?xml version="1.0" encoding="UTF-8" standalone="no"?>
<!DOCTYPE svg PUBLIC "-//W3C//DTD SVG 1.1//EN"
 "http://www.w3.org/Graphics/SVG/1.1/DTD/svg11.dtd">
<!-- Generated by graphviz version 2.38.0 (20140413.2041)
 -->
<!-- Title: src/core/CPP Pages: 1 -->
<svg width="182pt" height="159pt"
 viewBox="0.00 0.00 182.00 159.00" xmlns="http://www.w3.org/2000/svg" xmlns:xlink="http://www.w3.org/1999/xlink">
<g id="graph0" class="graph" transform="scale(1 1) rotate(0) translate(4 155)">
<title>src/core/CPP</title>
<polygon fill="white" stroke="none" points="-4,4 -4,-155 178,-155 178,4 -4,4"/>
<g id="clust1" class="cluster"><title>clusterdir_aebb8dcc11953d78e620bbef0b9e2183</title>
<g id="a_clust1"><a xlink:href="dir_aebb8dcc11953d78e620bbef0b9e2183.xhtml" target="_top" xlink:title="core">
<polygon fill="#ddddee" stroke="black" points="8,-56 8,-143 166,-143 166,-56 8,-56"/>
<text text-anchor="middle" x="87" y="-131" font-family="Helvetica,sans-Serif" font-size="10.00">core</text>
</a>
</g>
</g>
<g id="clust2" class="cluster"><title>clusterdir_1d7cadfed01c895b25460177608d44e9</title>
<g id="a_clust2"><a xlink:href="dir_1d7cadfed01c895b25460177608d44e9.xhtml" target="_top">
<polygon fill="#eeeeff" stroke="black" points="16,-64 16,-116 158,-116 158,-64 16,-64"/>
</a>
</g>
</g>
<!-- dir_1d7cadfed01c895b25460177608d44e9 -->
<g id="node1" class="node"><title>dir_1d7cadfed01c895b25460177608d44e9</title>
<text text-anchor="middle" x="123" y="-87.5" font-family="Helvetica,sans-Serif" font-size="10.00">CPP</text>
</g>
<!-- dir_214608ef36d61442cb2b0c1c4e9a7def -->
<g id="node3" class="node"><title>dir_214608ef36d61442cb2b0c1c4e9a7def</title>
<g id="a_node3"><a xlink:href="dir_214608ef36d61442cb2b0c1c4e9a7def.xhtml" target="_top" xlink:title="arm_compute">
<polygon fill="white" stroke="red" points="129,-36 45,-36 45,-0 129,-0 129,-36"/>
<text text-anchor="middle" x="87" y="-15.5" font-family="Helvetica,sans-Serif" font-size="10.00">arm_compute</text>
</a>
</g>
</g>
<!-- dir_1d7cadfed01c895b25460177608d44e9&#45;&gt;dir_214608ef36d61442cb2b0c1c4e9a7def -->
<g id="edge2" class="edge"><title>dir_1d7cadfed01c895b25460177608d44e9&#45;&gt;dir_214608ef36d61442cb2b0c1c4e9a7def</title>
<path fill="none" stroke="black" d="M114.101,-71.6966C110.003,-63.7284 105.051,-54.0995 100.507,-45.2641"/>
<polygon fill="black" stroke="black" points="103.483,-43.3965 95.7965,-36.1043 97.2575,-46.598 103.483,-43.3965"/>
<g id="a_edge2&#45;headlabel"><a xlink:href="dir_000060_000000.xhtml" target="_top" xlink:title="65">
<text text-anchor="middle" x="107.651" y="-42.7946" font-family="Helvetica,sans-Serif" font-size="10.00">65</text>
</a>
</g>
</g>
<!-- dir_7c33ef795f818fa46460e86a2608dc00 -->
<g id="node2" class="node"><title>dir_7c33ef795f818fa46460e86a2608dc00</title>
<g id="a_node2"><a xlink:href="dir_7c33ef795f818fa46460e86a2608dc00.xhtml" target="_top" xlink:title="kernels">
<polygon fill="white" stroke="black" points="78,-108 24,-108 24,-72 78,-72 78,-108"/>
<text text-anchor="middle" x="51" y="-87.5" font-family="Helvetica,sans-Serif" font-size="10.00">kernels</text>
</a>
</g>
</g>
<!-- dir_7c33ef795f818fa46460e86a2608dc00&#45;&gt;dir_214608ef36d61442cb2b0c1c4e9a7def -->
<g id="edge1" class="edge"><title>dir_7c33ef795f818fa46460e86a2608dc00&#45;&gt;dir_214608ef36d61442cb2b0c1c4e9a7def</title>
<path fill="none" stroke="black" d="M59.8989,-71.6966C63.9968,-63.7284 68.9488,-54.0995 73.4927,-45.2641"/>
<polygon fill="black" stroke="black" points="76.7425,-46.598 78.2035,-36.1043 70.5174,-43.3965 76.7425,-46.598"/>
<g id="a_edge1&#45;headlabel"><a xlink:href="dir_000061_000000.xhtml" target="_top" xlink:title="59">
<text text-anchor="middle" x="77.6235" y="-48.5931" font-family="Helvetica,sans-Serif" font-size="10.00">59</text>
</a>
</g>
</g>
</g>
</svg>
