<?xml version="1.0" encoding="UTF-8" standalone="no"?>
<!DOCTYPE svg PUBLIC "-//W3C//DTD SVG 1.1//EN"
 "http://www.w3.org/Graphics/SVG/1.1/DTD/svg11.dtd">
<!-- Generated by graphviz version 2.38.0 (20140413.2041)
 -->
<!-- Title: arm_compute/graph/frontend Pages: 1 -->
<svg width="98pt" height="151pt"
 viewBox="0.00 0.00 98.00 151.00" xmlns="http://www.w3.org/2000/svg" xmlns:xlink="http://www.w3.org/1999/xlink">
<g id="graph0" class="graph" transform="scale(1 1) rotate(0) translate(4 147)">
<title>arm_compute/graph/frontend</title>
<polygon fill="white" stroke="none" points="-4,4 -4,-147 94,-147 94,4 -4,4"/>
<g id="clust1" class="cluster"><title>clusterdir_99ae3712d1eecd2a93fc4d38b59a99ba</title>
<g id="a_clust1"><a xlink:href="dir_99ae3712d1eecd2a93fc4d38b59a99ba.xhtml" target="_top" xlink:title="graph">
<polygon fill="#ddddee" stroke="black" points="8,-64 8,-135 82,-135 82,-64 8,-64"/>
<text text-anchor="middle" x="45" y="-123" font-family="Helvetica,sans-Serif" font-size="10.00">graph</text>
</a>
</g>
</g>
<!-- dir_7526be4d1cfecb7bc660fdbdb8633223 -->
<g id="node1" class="node"><title>dir_7526be4d1cfecb7bc660fdbdb8633223</title>
<g id="a_node1"><a xlink:href="dir_7526be4d1cfecb7bc660fdbdb8633223.xhtml" target="_top" xlink:title="frontend">
<polygon fill="#eeeeff" stroke="black" points="73.5,-108 16.5,-108 16.5,-72 73.5,-72 73.5,-108"/>
<text text-anchor="middle" x="45" y="-87.5" font-family="Helvetica,sans-Serif" font-size="10.00">frontend</text>
</a>
</g>
</g>
<!-- dir_1fb090f0c6070330bfaccc4236d3ca0d -->
<g id="node2" class="node"><title>dir_1fb090f0c6070330bfaccc4236d3ca0d</title>
<g id="a_node2"><a xlink:href="dir_1fb090f0c6070330bfaccc4236d3ca0d.xhtml" target="_top" xlink:title="core">
<polygon fill="white" stroke="red" points="72,-36 18,-36 18,-0 72,-0 72,-36"/>
<text text-anchor="middle" x="45" y="-15.5" font-family="Helvetica,sans-Serif" font-size="10.00">core</text>
</a>
</g>
</g>
<!-- dir_7526be4d1cfecb7bc660fdbdb8633223&#45;&gt;dir_1fb090f0c6070330bfaccc4236d3ca0d -->
<g id="edge1" class="edge"><title>dir_7526be4d1cfecb7bc660fdbdb8633223&#45;&gt;dir_1fb090f0c6070330bfaccc4236d3ca0d</title>
<path fill="none" stroke="black" d="M45,-71.6966C45,-63.9827 45,-54.7125 45,-46.1124"/>
<polygon fill="black" stroke="black" points="48.5001,-46.1043 45,-36.1043 41.5001,-46.1044 48.5001,-46.1043"/>
<g id="a_edge1&#45;headlabel"><a xlink:href="dir_000026_000001.xhtml" target="_top" xlink:title="1">
<text text-anchor="middle" x="51.3393" y="-47.199" font-family="Helvetica,sans-Serif" font-size="10.00">1</text>
</a>
</g>
</g>
</g>
</svg>
