<?xml version="1.0" encoding="UTF-8" standalone="no"?>
<!DOCTYPE svg PUBLIC "-//W3C//DTD SVG 1.1//EN"
 "http://www.w3.org/Graphics/SVG/1.1/DTD/svg11.dtd">
<!-- Generated by graphviz version 2.38.0 (20140413.2041)
 -->
<!-- Title: tests/validation/CL/UNIT Pages: 1 -->
<svg width="202pt" height="295pt"
 viewBox="0.00 0.00 201.77 295.00" xmlns="http://www.w3.org/2000/svg" xmlns:xlink="http://www.w3.org/1999/xlink">
<g id="graph0" class="graph" transform="scale(1 1) rotate(0) translate(4 291)">
<title>tests/validation/CL/UNIT</title>
<polygon fill="white" stroke="none" points="-4,4 -4,-291 197.772,-291 197.772,4 -4,4"/>
<g id="clust1" class="cluster"><title>clusterdir_f7024513cd67abef53e86ee9382ac5ce</title>
<g id="a_clust1"><a xlink:href="dir_f7024513cd67abef53e86ee9382ac5ce.xhtml" target="_top" xlink:title="CL">
<polygon fill="#ddddee" stroke="black" points="87.5,-208 87.5,-279 157.5,-279 157.5,-208 87.5,-208"/>
<text text-anchor="middle" x="122.5" y="-267" font-family="Helvetica,sans-Serif" font-size="10.00">CL</text>
</a>
</g>
</g>
<!-- dir_4fe3055359cf5438733b5e64b064b197 -->
<g id="node1" class="node"><title>dir_4fe3055359cf5438733b5e64b064b197</title>
<g id="a_node1"><a xlink:href="dir_4fe3055359cf5438733b5e64b064b197.xhtml" target="_top" xlink:title="UNIT">
<polygon fill="#eeeeff" stroke="black" points="149.5,-252 95.5,-252 95.5,-216 149.5,-216 149.5,-252"/>
<text text-anchor="middle" x="122.5" y="-231.5" font-family="Helvetica,sans-Serif" font-size="10.00">UNIT</text>
</a>
</g>
</g>
<!-- dir_9e71e2da941d3cafc4d98a9f6ae3de4f -->
<g id="node2" class="node"><title>dir_9e71e2da941d3cafc4d98a9f6ae3de4f</title>
<g id="a_node2"><a xlink:href="dir_9e71e2da941d3cafc4d98a9f6ae3de4f.xhtml" target="_top" xlink:title="framework">
<polygon fill="white" stroke="red" points="67,-180 0,-180 0,-144 67,-144 67,-180"/>
<text text-anchor="middle" x="33.5" y="-159.5" font-family="Helvetica,sans-Serif" font-size="10.00">framework</text>
</a>
</g>
</g>
<!-- dir_4fe3055359cf5438733b5e64b064b197&#45;&gt;dir_9e71e2da941d3cafc4d98a9f6ae3de4f -->
<g id="edge1" class="edge"><title>dir_4fe3055359cf5438733b5e64b064b197&#45;&gt;dir_9e71e2da941d3cafc4d98a9f6ae3de4f</title>
<path fill="none" stroke="black" d="M100.5,-215.697C89.2912,-206.881 75.4979,-196.032 63.3458,-186.474"/>
<polygon fill="black" stroke="black" points="65.2708,-183.535 55.2469,-180.104 60.9433,-189.038 65.2708,-183.535"/>
<g id="a_edge1&#45;headlabel"><a xlink:href="dir_000130_000028.xhtml" target="_top" xlink:title="8">
<text text-anchor="middle" x="69.8515" y="-181.026" font-family="Helvetica,sans-Serif" font-size="10.00">8</text>
</a>
</g>
</g>
<!-- dir_214608ef36d61442cb2b0c1c4e9a7def -->
<g id="node3" class="node"><title>dir_214608ef36d61442cb2b0c1c4e9a7def</title>
<g id="a_node3"><a xlink:href="dir_214608ef36d61442cb2b0c1c4e9a7def.xhtml" target="_top" xlink:title="arm_compute">
<polygon fill="white" stroke="red" points="138.5,-108 54.5,-108 54.5,-72 138.5,-72 138.5,-108"/>
<text text-anchor="middle" x="96.5" y="-87.5" font-family="Helvetica,sans-Serif" font-size="10.00">arm_compute</text>
</a>
</g>
</g>
<!-- dir_4fe3055359cf5438733b5e64b064b197&#45;&gt;dir_214608ef36d61442cb2b0c1c4e9a7def -->
<g id="edge2" class="edge"><title>dir_4fe3055359cf5438733b5e64b064b197&#45;&gt;dir_214608ef36d61442cb2b0c1c4e9a7def</title>
<path fill="none" stroke="black" d="M119.364,-215.871C114.933,-191.67 106.792,-147.211 101.516,-118.393"/>
<polygon fill="black" stroke="black" points="104.891,-117.395 99.6473,-108.189 98.0057,-118.656 104.891,-117.395"/>
<g id="a_edge2&#45;headlabel"><a xlink:href="dir_000130_000000.xhtml" target="_top" xlink:title="12">
<text text-anchor="middle" x="108.331" y="-117.92" font-family="Helvetica,sans-Serif" font-size="10.00">12</text>
</a>
</g>
</g>
<!-- dir_896191444cf08ec8ade6f88256cb2bdd -->
<g id="node4" class="node"><title>dir_896191444cf08ec8ade6f88256cb2bdd</title>
<g id="a_node4"><a xlink:href="dir_896191444cf08ec8ade6f88256cb2bdd.xhtml" target="_top" xlink:title="CL">
<polygon fill="none" stroke="black" points="177.5,-180 123.5,-180 123.5,-144 177.5,-144 177.5,-180"/>
<text text-anchor="middle" x="150.5" y="-159.5" font-family="Helvetica,sans-Serif" font-size="10.00">CL</text>
</a>
</g>
</g>
<!-- dir_4fe3055359cf5438733b5e64b064b197&#45;&gt;dir_896191444cf08ec8ade6f88256cb2bdd -->
<g id="edge3" class="edge"><title>dir_4fe3055359cf5438733b5e64b064b197&#45;&gt;dir_896191444cf08ec8ade6f88256cb2bdd</title>
<path fill="none" stroke="black" d="M129.421,-215.697C132.575,-207.813 136.378,-198.304 139.881,-189.546"/>
<polygon fill="black" stroke="black" points="143.194,-190.689 143.658,-180.104 136.695,-188.089 143.194,-190.689"/>
<g id="a_edge3&#45;headlabel"><a xlink:href="dir_000130_000133.xhtml" target="_top" xlink:title="2">
<text text-anchor="middle" x="144.495" y="-192.581" font-family="Helvetica,sans-Serif" font-size="10.00">2</text>
</a>
</g>
</g>
<!-- dir_5815af820a9cc9481f1d0990a0d60286 -->
<g id="node5" class="node"><title>dir_5815af820a9cc9481f1d0990a0d60286</title>
<g id="a_node5"><a xlink:href="dir_5815af820a9cc9481f1d0990a0d60286.xhtml" target="_top" xlink:title="support">
<polygon fill="none" stroke="black" points="158.5,-36 104.5,-36 104.5,-0 158.5,-0 158.5,-36"/>
<text text-anchor="middle" x="131.5" y="-15.5" font-family="Helvetica,sans-Serif" font-size="10.00">support</text>
</a>
</g>
</g>
<!-- dir_4fe3055359cf5438733b5e64b064b197&#45;&gt;dir_5815af820a9cc9481f1d0990a0d60286 -->
<g id="edge4" class="edge"><title>dir_4fe3055359cf5438733b5e64b064b197&#45;&gt;dir_5815af820a9cc9481f1d0990a0d60286</title>
<path fill="none" stroke="black" d="M149.596,-218.388C163.387,-209.337 178.826,-196.319 186.5,-180 208.192,-133.871 175.643,-76.7688 152.125,-44.4518"/>
<polygon fill="black" stroke="black" points="154.887,-42.3005 146.082,-36.4074 149.29,-46.5049 154.887,-42.3005"/>
<g id="a_edge4&#45;headlabel"><a xlink:href="dir_000130_000132.xhtml" target="_top" xlink:title="3">
<text text-anchor="middle" x="159.316" y="-40.9692" font-family="Helvetica,sans-Serif" font-size="10.00">3</text>
</a>
</g>
</g>
<!-- dir_9e71e2da941d3cafc4d98a9f6ae3de4f&#45;&gt;dir_214608ef36d61442cb2b0c1c4e9a7def -->
<g id="edge5" class="edge"><title>dir_9e71e2da941d3cafc4d98a9f6ae3de4f&#45;&gt;dir_214608ef36d61442cb2b0c1c4e9a7def</title>
<path fill="none" stroke="black" d="M49.073,-143.697C56.7022,-135.22 66.0228,-124.864 74.3757,-115.583"/>
<polygon fill="black" stroke="black" points="77.018,-117.879 81.1061,-108.104 71.8149,-113.196 77.018,-117.879"/>
<g id="a_edge5&#45;headlabel"><a xlink:href="dir_000028_000000.xhtml" target="_top" xlink:title="14">
<text text-anchor="middle" x="76.7237" y="-119.95" font-family="Helvetica,sans-Serif" font-size="10.00">14</text>
</a>
</g>
</g>
<!-- dir_9e71e2da941d3cafc4d98a9f6ae3de4f&#45;&gt;dir_5815af820a9cc9481f1d0990a0d60286 -->
<g id="edge6" class="edge"><title>dir_9e71e2da941d3cafc4d98a9f6ae3de4f&#45;&gt;dir_5815af820a9cc9481f1d0990a0d60286</title>
<path fill="none" stroke="black" d="M31.6776,-143.781C30.5385,-124.681 31.3975,-93.7017 45.5,-72 57.111,-54.1324 77.0725,-41.2866 94.8426,-32.7205"/>
<polygon fill="black" stroke="black" points="96.7473,-35.7009 104.422,-28.3972 93.8679,-29.3205 96.7473,-35.7009"/>
<g id="a_edge6&#45;headlabel"><a xlink:href="dir_000028_000132.xhtml" target="_top" xlink:title="7">
<text text-anchor="middle" x="94.6388" y="-37.2674" font-family="Helvetica,sans-Serif" font-size="10.00">7</text>
</a>
</g>
</g>
<!-- dir_214608ef36d61442cb2b0c1c4e9a7def&#45;&gt;dir_5815af820a9cc9481f1d0990a0d60286 -->
<g id="edge7" class="edge"><title>dir_214608ef36d61442cb2b0c1c4e9a7def&#45;&gt;dir_5815af820a9cc9481f1d0990a0d60286</title>
<path fill="none" stroke="black" d="M105.152,-71.6966C109.136,-63.7284 113.95,-54.0995 118.368,-45.2641"/>
<polygon fill="black" stroke="black" points="121.606,-46.6139 122.948,-36.1043 115.345,-43.4833 121.606,-46.6139"/>
<g id="a_edge7&#45;headlabel"><a xlink:href="dir_000000_000132.xhtml" target="_top" xlink:title="21">
<text text-anchor="middle" x="122.538" y="-48.5987" font-family="Helvetica,sans-Serif" font-size="10.00">21</text>
</a>
</g>
</g>
<!-- dir_896191444cf08ec8ade6f88256cb2bdd&#45;&gt;dir_214608ef36d61442cb2b0c1c4e9a7def -->
<g id="edge8" class="edge"><title>dir_896191444cf08ec8ade6f88256cb2bdd&#45;&gt;dir_214608ef36d61442cb2b0c1c4e9a7def</title>
<path fill="none" stroke="black" d="M137.152,-143.697C130.743,-135.389 122.942,-125.277 115.894,-116.141"/>
<polygon fill="black" stroke="black" points="118.574,-113.884 109.695,-108.104 113.032,-118.16 118.574,-113.884"/>
<g id="a_edge8&#45;headlabel"><a xlink:href="dir_000133_000000.xhtml" target="_top" xlink:title="10">
<text text-anchor="middle" x="123.018" y="-112.496" font-family="Helvetica,sans-Serif" font-size="10.00">10</text>
</a>
</g>
</g>
<!-- dir_896191444cf08ec8ade6f88256cb2bdd&#45;&gt;dir_5815af820a9cc9481f1d0990a0d60286 -->
<g id="edge9" class="edge"><title>dir_896191444cf08ec8ade6f88256cb2bdd&#45;&gt;dir_5815af820a9cc9481f1d0990a0d60286</title>
<path fill="none" stroke="black" d="M151.232,-143.809C151.694,-125.788 151.575,-96.7117 147.5,-72 146.077,-63.3701 143.644,-54.1785 141.098,-45.915"/>
<polygon fill="black" stroke="black" points="144.423,-44.8207 137.999,-36.3959 137.767,-46.9882 144.423,-44.8207"/>
<g id="a_edge9&#45;headlabel"><a xlink:href="dir_000133_000132.xhtml" target="_top" xlink:title="1">
<text text-anchor="middle" x="148.236" y="-44.8595" font-family="Helvetica,sans-Serif" font-size="10.00">1</text>
</a>
</g>
</g>
</g>
</svg>
