<?xml version="1.0" encoding="UTF-8" standalone="no"?>
<!DOCTYPE svg PUBLIC "-//W3C//DTD SVG 1.1//EN"
 "http://www.w3.org/Graphics/SVG/1.1/DTD/svg11.dtd">
<!-- Generated by graphviz version 2.38.0 (20140413.2041)
 -->
<!-- Title: Graphical Class Hierarchy Pages: 1 -->
<svg width="260pt" height="66pt"
 viewBox="0.00 0.00 260.00 66.00" xmlns="http://www.w3.org/2000/svg" xmlns:xlink="http://www.w3.org/1999/xlink">
<g id="graph0" class="graph" transform="scale(1 1) rotate(0) translate(4 62)">
<title>Graphical Class Hierarchy</title>
<polygon fill="white" stroke="none" points="-4,4 -4,-62 256,-62 256,4 -4,4"/>
<!-- Node191 -->
<g id="node1" class="node"><title>Node191</title>
<g id="a_node1"><a xlink:title=" ">
<polygon fill="white" stroke="#bfbfbf" points="0,-19.5 0,-38.5 94,-38.5 94,-19.5 0,-19.5"/>
<text text-anchor="middle" x="47" y="-26.5" font-family="Helvetica,sans-Serif" font-size="10.00">is_floating_point</text>
</a>
</g>
</g>
<!-- Node0 -->
<g id="node2" class="node"><title>Node0</title>
<g id="a_node2"><a xlink:href="structarm__compute_1_1test_1_1validation_1_1is__floating__point.xhtml" target="_top" xlink:title=" ">
<polygon fill="white" stroke="black" points="130,-38.5 130,-57.5 252,-57.5 252,-38.5 130,-38.5"/>
<text text-anchor="middle" x="191" y="-45.5" font-family="Helvetica,sans-Serif" font-size="10.00">is_floating_point&lt; T &gt;</text>
</a>
</g>
</g>
<!-- Node191&#45;&gt;Node0 -->
<g id="edge1" class="edge"><title>Node191&#45;&gt;Node0</title>
<path fill="none" stroke="midnightblue" d="M104.218,-36.5221C112.656,-37.6512 121.387,-38.8193 129.902,-39.9587"/>
<polygon fill="midnightblue" stroke="midnightblue" points="104.479,-33.026 94.1033,-35.1688 103.551,-39.9641 104.479,-33.026"/>
</g>
<!-- Node193 -->
<g id="node3" class="node"><title>Node193</title>
<g id="a_node3"><a xlink:href="structarm__compute_1_1utils_1_1traits_1_1is__floating__point.xhtml" target="_top" xlink:title=" ">
<polygon fill="white" stroke="black" points="130,-0.5 130,-19.5 252,-19.5 252,-0.5 130,-0.5"/>
<text text-anchor="middle" x="191" y="-7.5" font-family="Helvetica,sans-Serif" font-size="10.00">is_floating_point&lt; T &gt;</text>
</a>
</g>
</g>
<!-- Node191&#45;&gt;Node193 -->
<g id="edge2" class="edge"><title>Node191&#45;&gt;Node193</title>
<path fill="none" stroke="midnightblue" d="M104.218,-21.4779C112.656,-20.3488 121.387,-19.1807 129.902,-18.0413"/>
<polygon fill="midnightblue" stroke="midnightblue" points="103.551,-18.0359 94.1033,-22.8312 104.479,-24.974 103.551,-18.0359"/>
</g>
</g>
</svg>
