<?xml version="1.0" encoding="UTF-8" standalone="no"?>
<!DOCTYPE svg PUBLIC "-//W3C//DTD SVG 1.1//EN"
 "http://www.w3.org/Graphics/SVG/1.1/DTD/svg11.dtd">
<!-- Generated by graphviz version 2.40.1 (20161225.0304)
 -->
<!-- Title: CLCopyToArrayKernel Pages: 1 -->
<svg width="123pt" height="140pt"
 viewBox="0.00 0.00 123.00 140.00" xmlns="http://www.w3.org/2000/svg" xmlns:xlink="http://www.w3.org/1999/xlink">
<g id="graph0" class="graph" transform="scale(1 1) rotate(0) translate(4 136)">
<title>CLCopyToArrayKernel</title>
<polygon fill="#ffffff" stroke="transparent" points="-4,4 -4,-136 119,-136 119,4 -4,4"/>
<!-- Node0 -->
<g id="node1" class="node">
<title>Node0</title>
<polygon fill="#bfbfbf" stroke="#000000" points="0,-.5 0,-19.5 115,-19.5 115,-.5 0,-.5"/>
<text text-anchor="middle" x="57.5" y="-7.5" font-family="Helvetica,sans-Serif" font-size="10.00" fill="#000000">CLCopyToArrayKernel</text>
</g>
<!-- Node1 -->
<g id="node2" class="node">
<title>Node1</title>
<g id="a_node2"><a xlink:href="classarm__compute_1_1_i_c_l_kernel.xhtml" target="_top" xlink:title="Common interface for all the OpenCL kernels. ">
<polygon fill="#ffffff" stroke="#000000" points="27.5,-56.5 27.5,-75.5 87.5,-75.5 87.5,-56.5 27.5,-56.5"/>
<text text-anchor="middle" x="57.5" y="-63.5" font-family="Helvetica,sans-Serif" font-size="10.00" fill="#000000">ICLKernel</text>
</a>
</g>
</g>
<!-- Node1&#45;&gt;Node0 -->
<g id="edge1" class="edge">
<title>Node1&#45;&gt;Node0</title>
<path fill="none" stroke="#191970" d="M57.5,-46.1575C57.5,-37.155 57.5,-26.9199 57.5,-19.6427"/>
<polygon fill="#191970" stroke="#191970" points="54.0001,-46.2455 57.5,-56.2455 61.0001,-46.2456 54.0001,-46.2455"/>
</g>
<!-- Node2 -->
<g id="node3" class="node">
<title>Node2</title>
<g id="a_node3"><a xlink:href="classarm__compute_1_1_i_kernel.xhtml" target="_top" xlink:title="Common information for all the kernels. ">
<polygon fill="#ffffff" stroke="#000000" points="34,-112.5 34,-131.5 81,-131.5 81,-112.5 34,-112.5"/>
<text text-anchor="middle" x="57.5" y="-119.5" font-family="Helvetica,sans-Serif" font-size="10.00" fill="#000000">IKernel</text>
</a>
</g>
</g>
<!-- Node2&#45;&gt;Node1 -->
<g id="edge2" class="edge">
<title>Node2&#45;&gt;Node1</title>
<path fill="none" stroke="#191970" d="M57.5,-102.1575C57.5,-93.155 57.5,-82.9199 57.5,-75.6427"/>
<polygon fill="#191970" stroke="#191970" points="54.0001,-102.2455 57.5,-112.2455 61.0001,-102.2456 54.0001,-102.2455"/>
</g>
</g>
</svg>
