<?xml version="1.0" encoding="UTF-8" standalone="no"?>
<!DOCTYPE svg PUBLIC "-//W3C//DTD SVG 1.1//EN"
 "http://www.w3.org/Graphics/SVG/1.1/DTD/svg11.dtd">
<!-- Generated by graphviz version 2.40.1 (20161225.0304)
 -->
<!-- Title: GCScaleKernel Pages: 1 -->
<svg width="113pt" height="308pt"
 viewBox="0.00 0.00 113.00 308.00" xmlns="http://www.w3.org/2000/svg" xmlns:xlink="http://www.w3.org/1999/xlink">
<g id="graph0" class="graph" transform="scale(1 1) rotate(0) translate(4 304)">
<title>GCScaleKernel</title>
<polygon fill="#ffffff" stroke="transparent" points="-4,4 -4,-304 109,-304 109,4 -4,4"/>
<!-- Node0 -->
<g id="node1" class="node">
<title>Node0</title>
<polygon fill="#bfbfbf" stroke="#000000" points="10.5,-.5 10.5,-19.5 94.5,-19.5 94.5,-.5 10.5,-.5"/>
<text text-anchor="middle" x="52.5" y="-7.5" font-family="Helvetica,sans-Serif" font-size="10.00" fill="#000000">GCScaleKernel</text>
</g>
<!-- Node1 -->
<g id="node2" class="node">
<title>Node1</title>
<g id="a_node2"><a xlink:href="classarm__compute_1_1_i_g_c_simple3_d_kernel.xhtml" target="_top" xlink:title="Interface for simple GLES kernels having 1 tensor input and 1 tensor output. ">
<polygon fill="#ffffff" stroke="#000000" points="0,-56.5 0,-75.5 105,-75.5 105,-56.5 0,-56.5"/>
<text text-anchor="middle" x="52.5" y="-63.5" font-family="Helvetica,sans-Serif" font-size="10.00" fill="#000000">IGCSimple3DKernel</text>
</a>
</g>
</g>
<!-- Node1&#45;&gt;Node0 -->
<g id="edge1" class="edge">
<title>Node1&#45;&gt;Node0</title>
<path fill="none" stroke="#191970" d="M52.5,-46.1575C52.5,-37.155 52.5,-26.9199 52.5,-19.6427"/>
<polygon fill="#191970" stroke="#191970" points="49.0001,-46.2455 52.5,-56.2455 56.0001,-46.2456 49.0001,-46.2455"/>
</g>
<!-- Node2 -->
<g id="node3" class="node">
<title>Node2</title>
<g id="a_node3"><a xlink:href="classarm__compute_1_1_i_g_c_simple2_d_kernel.xhtml" target="_top" xlink:title="Interface for simple OpenGL ES kernels having 1 tensor input and 1 tensor output. ...">
<polygon fill="#ffffff" stroke="#000000" points="0,-112.5 0,-131.5 105,-131.5 105,-112.5 0,-112.5"/>
<text text-anchor="middle" x="52.5" y="-119.5" font-family="Helvetica,sans-Serif" font-size="10.00" fill="#000000">IGCSimple2DKernel</text>
</a>
</g>
</g>
<!-- Node2&#45;&gt;Node1 -->
<g id="edge2" class="edge">
<title>Node2&#45;&gt;Node1</title>
<path fill="none" stroke="#191970" d="M52.5,-102.1575C52.5,-93.155 52.5,-82.9199 52.5,-75.6427"/>
<polygon fill="#191970" stroke="#191970" points="49.0001,-102.2455 52.5,-112.2455 56.0001,-102.2456 49.0001,-102.2455"/>
</g>
<!-- Node3 -->
<g id="node4" class="node">
<title>Node3</title>
<g id="a_node4"><a xlink:href="classarm__compute_1_1_i_g_c_simple_kernel.xhtml" target="_top" xlink:title="Interface for simple OpenGL ES kernels having 1 tensor input and 1 tensor output. ...">
<polygon fill="#ffffff" stroke="#000000" points="6.5,-168.5 6.5,-187.5 98.5,-187.5 98.5,-168.5 6.5,-168.5"/>
<text text-anchor="middle" x="52.5" y="-175.5" font-family="Helvetica,sans-Serif" font-size="10.00" fill="#000000">IGCSimpleKernel</text>
</a>
</g>
</g>
<!-- Node3&#45;&gt;Node2 -->
<g id="edge3" class="edge">
<title>Node3&#45;&gt;Node2</title>
<path fill="none" stroke="#191970" d="M52.5,-158.1575C52.5,-149.155 52.5,-138.9199 52.5,-131.6427"/>
<polygon fill="#191970" stroke="#191970" points="49.0001,-158.2455 52.5,-168.2455 56.0001,-158.2456 49.0001,-158.2455"/>
</g>
<!-- Node4 -->
<g id="node5" class="node">
<title>Node4</title>
<g id="a_node5"><a xlink:href="classarm__compute_1_1_i_g_c_kernel.xhtml" target="_top" xlink:title="Common interface for all the GLES kernels. ">
<polygon fill="#ffffff" stroke="#000000" points="21.5,-224.5 21.5,-243.5 83.5,-243.5 83.5,-224.5 21.5,-224.5"/>
<text text-anchor="middle" x="52.5" y="-231.5" font-family="Helvetica,sans-Serif" font-size="10.00" fill="#000000">IGCKernel</text>
</a>
</g>
</g>
<!-- Node4&#45;&gt;Node3 -->
<g id="edge4" class="edge">
<title>Node4&#45;&gt;Node3</title>
<path fill="none" stroke="#191970" d="M52.5,-214.1575C52.5,-205.155 52.5,-194.9199 52.5,-187.6427"/>
<polygon fill="#191970" stroke="#191970" points="49.0001,-214.2455 52.5,-224.2455 56.0001,-214.2456 49.0001,-214.2455"/>
</g>
<!-- Node5 -->
<g id="node6" class="node">
<title>Node5</title>
<g id="a_node6"><a xlink:href="classarm__compute_1_1_i_kernel.xhtml" target="_top" xlink:title="Common information for all the kernels. ">
<polygon fill="#ffffff" stroke="#000000" points="29,-280.5 29,-299.5 76,-299.5 76,-280.5 29,-280.5"/>
<text text-anchor="middle" x="52.5" y="-287.5" font-family="Helvetica,sans-Serif" font-size="10.00" fill="#000000">IKernel</text>
</a>
</g>
</g>
<!-- Node5&#45;&gt;Node4 -->
<g id="edge5" class="edge">
<title>Node5&#45;&gt;Node4</title>
<path fill="none" stroke="#191970" d="M52.5,-270.1575C52.5,-261.155 52.5,-250.9199 52.5,-243.6427"/>
<polygon fill="#191970" stroke="#191970" points="49.0001,-270.2455 52.5,-280.2455 56.0001,-270.2456 49.0001,-270.2455"/>
</g>
</g>
</svg>
