<?xml version="1.0" encoding="UTF-8" standalone="no"?>
<!DOCTYPE svg PUBLIC "-//W3C//DTD SVG 1.1//EN"
 "http://www.w3.org/Graphics/SVG/1.1/DTD/svg11.dtd">
<!-- Generated by graphviz version 2.40.1 (20161225.0304)
 -->
<!-- Title: NESeparableConvolutionVertKernel&lt; matrix_size &gt; Pages: 1 -->
<svg width="152pt" height="207pt"
 viewBox="0.00 0.00 152.00 207.00" xmlns="http://www.w3.org/2000/svg" xmlns:xlink="http://www.w3.org/1999/xlink">
<g id="graph0" class="graph" transform="scale(1 1) rotate(0) translate(4 203)">
<title>NESeparableConvolutionVertKernel&lt; matrix_size &gt;</title>
<polygon fill="#ffffff" stroke="transparent" points="-4,4 -4,-203 148,-203 148,4 -4,4"/>
<!-- Node0 -->
<g id="node1" class="node">
<title>Node0</title>
<polygon fill="#bfbfbf" stroke="#000000" points="0,-.5 0,-30.5 144,-30.5 144,-.5 0,-.5"/>
<text text-anchor="start" x="8" y="-18.5" font-family="Helvetica,sans-Serif" font-size="10.00" fill="#000000">NESeparableConvolutionVert</text>
<text text-anchor="middle" x="72" y="-7.5" font-family="Helvetica,sans-Serif" font-size="10.00" fill="#000000">Kernel&lt; matrix_size &gt;</text>
</g>
<!-- Node1 -->
<g id="node2" class="node">
<title>Node1</title>
<g id="a_node2"><a xlink:href="classarm__compute_1_1_i_c_p_p_simple_kernel.xhtml" target="_top" xlink:title="Interface for simple C++ kernels having 1 tensor input and 1 tensor output. ">
<polygon fill="#ffffff" stroke="#000000" points="26,-67.5 26,-86.5 118,-86.5 118,-67.5 26,-67.5"/>
<text text-anchor="middle" x="72" y="-74.5" font-family="Helvetica,sans-Serif" font-size="10.00" fill="#000000">INESimpleKernel</text>
</a>
</g>
</g>
<!-- Node1&#45;&gt;Node0 -->
<g id="edge1" class="edge">
<title>Node1&#45;&gt;Node0</title>
<path fill="none" stroke="#191970" d="M72,-57.3693C72,-48.681 72,-38.6241 72,-30.5446"/>
<polygon fill="#191970" stroke="#191970" points="68.5001,-57.3906 72,-67.3906 75.5001,-57.3907 68.5001,-57.3906"/>
</g>
<!-- Node2 -->
<g id="node3" class="node">
<title>Node2</title>
<g id="a_node3"><a xlink:href="classarm__compute_1_1_i_c_p_p_kernel.xhtml" target="_top" xlink:title="Common interface for all kernels implemented in C++. ">
<polygon fill="#ffffff" stroke="#000000" points="38,-123.5 38,-142.5 106,-142.5 106,-123.5 38,-123.5"/>
<text text-anchor="middle" x="72" y="-130.5" font-family="Helvetica,sans-Serif" font-size="10.00" fill="#000000">ICPPKernel</text>
</a>
</g>
</g>
<!-- Node2&#45;&gt;Node1 -->
<g id="edge2" class="edge">
<title>Node2&#45;&gt;Node1</title>
<path fill="none" stroke="#191970" d="M72,-113.1575C72,-104.155 72,-93.9199 72,-86.6427"/>
<polygon fill="#191970" stroke="#191970" points="68.5001,-113.2455 72,-123.2455 75.5001,-113.2456 68.5001,-113.2455"/>
</g>
<!-- Node3 -->
<g id="node4" class="node">
<title>Node3</title>
<g id="a_node4"><a xlink:href="classarm__compute_1_1_i_kernel.xhtml" target="_top" xlink:title="Common information for all the kernels. ">
<polygon fill="#ffffff" stroke="#000000" points="48.5,-179.5 48.5,-198.5 95.5,-198.5 95.5,-179.5 48.5,-179.5"/>
<text text-anchor="middle" x="72" y="-186.5" font-family="Helvetica,sans-Serif" font-size="10.00" fill="#000000">IKernel</text>
</a>
</g>
</g>
<!-- Node3&#45;&gt;Node2 -->
<g id="edge3" class="edge">
<title>Node3&#45;&gt;Node2</title>
<path fill="none" stroke="#191970" d="M72,-169.1575C72,-160.155 72,-149.9199 72,-142.6427"/>
<polygon fill="#191970" stroke="#191970" points="68.5001,-169.2455 72,-179.2455 75.5001,-169.2456 68.5001,-169.2455"/>
</g>
</g>
</svg>
