<?xml version="1.0" encoding="UTF-8" standalone="no"?>
<!DOCTYPE svg PUBLIC "-//W3C//DTD SVG 1.1//EN"
 "http://www.w3.org/Graphics/SVG/1.1/DTD/svg11.dtd">
<!-- Generated by graphviz version 2.40.1 (20161225.0304)
 -->
<!-- Title: arm_compute/runtime/NEON/functions Pages: 1 -->
<svg width="220pt" height="231pt"
 viewBox="0.00 0.00 220.00 231.00" xmlns="http://www.w3.org/2000/svg" xmlns:xlink="http://www.w3.org/1999/xlink">
<g id="graph0" class="graph" transform="scale(1 1) rotate(0) translate(4 227)">
<title>arm_compute/runtime/NEON/functions</title>
<polygon fill="#ffffff" stroke="transparent" points="-4,4 -4,-227 216,-227 216,4 -4,4"/>
<g id="clust1" class="cluster">
<title>clusterdir_65e289039e1347f87d412b0a1b1a312c</title>
<g id="a_clust1"><a xlink:href="dir_65e289039e1347f87d412b0a1b1a312c.xhtml" target="_top" xlink:title="NEON">
<polygon fill="#ddddee" stroke="#000000" points="8,-128 8,-215 174,-215 174,-128 8,-128"/>
<text text-anchor="middle" x="91" y="-203" font-family="Helvetica,sans-Serif" font-size="10.00" fill="#000000">NEON</text>
</a>
</g>
</g>
<g id="clust2" class="cluster">
<title>clusterdir_345bd7154d1542d1e03fd2836959a19d</title>
<g id="a_clust2"><a xlink:href="dir_345bd7154d1542d1e03fd2836959a19d.xhtml" target="_top">
<polygon fill="#eeeeff" stroke="#000000" points="16,-136 16,-188 166,-188 166,-136 16,-136"/>
</a>
</g>
</g>
<!-- dir_345bd7154d1542d1e03fd2836959a19d -->
<g id="node1" class="node">
<title>dir_345bd7154d1542d1e03fd2836959a19d</title>
<text text-anchor="middle" x="130" y="-159.5" font-family="Helvetica,sans-Serif" font-size="10.00" fill="#000000">functions</text>
</g>
<!-- dir_b496024afd63bafbf4e8da80d7d3a81a -->
<g id="node3" class="node">
<title>dir_b496024afd63bafbf4e8da80d7d3a81a</title>
<g id="a_node3"><a xlink:href="dir_b496024afd63bafbf4e8da80d7d3a81a.xhtml" target="_top" xlink:title="CPP">
<polygon fill="#ffffff" stroke="#ff0000" points="102,-108 48,-108 48,-72 102,-72 102,-108"/>
<text text-anchor="middle" x="75" y="-87.5" font-family="Helvetica,sans-Serif" font-size="10.00" fill="#000000">CPP</text>
</a>
</g>
</g>
<!-- dir_345bd7154d1542d1e03fd2836959a19d&#45;&gt;dir_b496024afd63bafbf4e8da80d7d3a81a -->
<g id="edge1" class="edge">
<title>dir_345bd7154d1542d1e03fd2836959a19d&#45;&gt;dir_b496024afd63bafbf4e8da80d7d3a81a</title>
<path fill="none" stroke="#000000" d="M116.1212,-143.8314C109.7864,-135.5386 102.1616,-125.557 95.2074,-116.4533"/>
<polygon fill="#000000" stroke="#000000" points="97.9175,-114.2353 89.0657,-108.4133 92.3548,-118.4847 97.9175,-114.2353"/>
<g id="a_edge1&#45;headlabel"><a xlink:href="dir_000050_000045.xhtml" target="_top" xlink:title="2">
<text text-anchor="middle" x="102.3558" y="-112.8683" font-family="Helvetica,sans-Serif" font-size="10.00" fill="#000000">2</text>
</a>
</g>
</g>
<!-- dir_1fb090f0c6070330bfaccc4236d3ca0d -->
<g id="node4" class="node">
<title>dir_1fb090f0c6070330bfaccc4236d3ca0d</title>
<g id="a_node4"><a xlink:href="dir_1fb090f0c6070330bfaccc4236d3ca0d.xhtml" target="_top" xlink:title="core">
<polygon fill="#ffffff" stroke="#ff0000" points="157,-36 103,-36 103,0 157,0 157,-36"/>
<text text-anchor="middle" x="130" y="-15.5" font-family="Helvetica,sans-Serif" font-size="10.00" fill="#000000">core</text>
</a>
</g>
</g>
<!-- dir_345bd7154d1542d1e03fd2836959a19d&#45;&gt;dir_1fb090f0c6070330bfaccc4236d3ca0d -->
<g id="edge2" class="edge">
<title>dir_345bd7154d1542d1e03fd2836959a19d&#45;&gt;dir_1fb090f0c6070330bfaccc4236d3ca0d</title>
<path fill="none" stroke="#000000" d="M130,-143.7623C130,-119.201 130,-75.2474 130,-46.3541"/>
<polygon fill="#000000" stroke="#000000" points="133.5001,-46.0896 130,-36.0896 126.5001,-46.0897 133.5001,-46.0896"/>
<g id="a_edge2&#45;headlabel"><a xlink:href="dir_000050_000001.xhtml" target="_top" xlink:title="179">
<text text-anchor="middle" x="136.3393" y="-47.1842" font-family="Helvetica,sans-Serif" font-size="10.00" fill="#000000">179</text>
</a>
</g>
</g>
<!-- dir_b9621ae687ab229876c54f8c2df20e15 -->
<g id="node5" class="node">
<title>dir_b9621ae687ab229876c54f8c2df20e15</title>
<g id="a_node5"><a xlink:href="dir_b9621ae687ab229876c54f8c2df20e15.xhtml" target="_top" xlink:title="common">
<polygon fill="none" stroke="#000000" points="212,-108 158,-108 158,-72 212,-72 212,-108"/>
<text text-anchor="middle" x="185" y="-87.5" font-family="Helvetica,sans-Serif" font-size="10.00" fill="#000000">common</text>
</a>
</g>
</g>
<!-- dir_345bd7154d1542d1e03fd2836959a19d&#45;&gt;dir_b9621ae687ab229876c54f8c2df20e15 -->
<g id="edge3" class="edge">
<title>dir_345bd7154d1542d1e03fd2836959a19d&#45;&gt;dir_b9621ae687ab229876c54f8c2df20e15</title>
<path fill="none" stroke="#000000" d="M143.8788,-143.8314C150.2136,-135.5386 157.8384,-125.557 164.7926,-116.4533"/>
<polygon fill="#000000" stroke="#000000" points="167.6452,-118.4847 170.9343,-108.4133 162.0825,-114.2353 167.6452,-118.4847"/>
<g id="a_edge3&#45;headlabel"><a xlink:href="dir_000050_000044.xhtml" target="_top" xlink:title="1">
<text text-anchor="middle" x="167.7195" y="-120.5647" font-family="Helvetica,sans-Serif" font-size="10.00" fill="#000000">1</text>
</a>
</g>
</g>
<!-- dir_5cc15eabebeaf52b5630c3e40d7a7661 -->
<g id="node2" class="node">
<title>dir_5cc15eabebeaf52b5630c3e40d7a7661</title>
<g id="a_node2"><a xlink:href="dir_5cc15eabebeaf52b5630c3e40d7a7661.xhtml" target="_top" xlink:title="assembly">
<polygon fill="#ffffff" stroke="#000000" points="83.5,-180 24.5,-180 24.5,-144 83.5,-144 83.5,-180"/>
<text text-anchor="middle" x="54" y="-159.5" font-family="Helvetica,sans-Serif" font-size="10.00" fill="#000000">assembly</text>
</a>
</g>
</g>
<!-- dir_b496024afd63bafbf4e8da80d7d3a81a&#45;&gt;dir_1fb090f0c6070330bfaccc4236d3ca0d -->
<g id="edge4" class="edge">
<title>dir_b496024afd63bafbf4e8da80d7d3a81a&#45;&gt;dir_1fb090f0c6070330bfaccc4236d3ca0d</title>
<path fill="none" stroke="#000000" d="M88.8788,-71.8314C95.2136,-63.5386 102.8384,-53.557 109.7926,-44.4533"/>
<polygon fill="#000000" stroke="#000000" points="112.6452,-46.4847 115.9343,-36.4133 107.0825,-42.2353 112.6452,-46.4847"/>
<g id="a_edge4&#45;headlabel"><a xlink:href="dir_000045_000001.xhtml" target="_top" xlink:title="4">
<text text-anchor="middle" x="112.7195" y="-48.5647" font-family="Helvetica,sans-Serif" font-size="10.00" fill="#000000">4</text>
</a>
</g>
</g>
<!-- dir_b9621ae687ab229876c54f8c2df20e15&#45;&gt;dir_1fb090f0c6070330bfaccc4236d3ca0d -->
<g id="edge5" class="edge">
<title>dir_b9621ae687ab229876c54f8c2df20e15&#45;&gt;dir_1fb090f0c6070330bfaccc4236d3ca0d</title>
<path fill="none" stroke="#000000" d="M171.1212,-71.8314C164.7864,-63.5386 157.1616,-53.557 150.2074,-44.4533"/>
<polygon fill="#000000" stroke="#000000" points="152.9175,-42.2353 144.0657,-36.4133 147.3548,-46.4847 152.9175,-42.2353"/>
<g id="a_edge5&#45;headlabel"><a xlink:href="dir_000044_000001.xhtml" target="_top" xlink:title="3">
<text text-anchor="middle" x="157.3558" y="-40.8683" font-family="Helvetica,sans-Serif" font-size="10.00" fill="#000000">3</text>
</a>
</g>
</g>
</g>
</svg>
