<?xml version="1.0" encoding="UTF-8" standalone="no"?>
<!DOCTYPE svg PUBLIC "-//W3C//DTD SVG 1.1//EN"
 "http://www.w3.org/Graphics/SVG/1.1/DTD/svg11.dtd">
<!-- Generated by graphviz version 2.40.1 (20161225.0304)
 -->
<!-- Title: tests/validation/CL Pages: 1 -->
<svg width="368pt" height="447pt"
 viewBox="0.00 0.00 367.50 447.00" xmlns="http://www.w3.org/2000/svg" xmlns:xlink="http://www.w3.org/1999/xlink">
<g id="graph0" class="graph" transform="scale(1 1) rotate(0) translate(4 443)">
<title>tests/validation/CL</title>
<polygon fill="#ffffff" stroke="transparent" points="-4,4 -4,-443 363.5,-443 363.5,4 -4,4"/>
<g id="clust1" class="cluster">
<title>clusterdir_e7c7b16542faa38cb4655ff1750d3604</title>
<g id="a_clust1"><a xlink:href="dir_e7c7b16542faa38cb4655ff1750d3604.xhtml" target="_top" xlink:title="validation">
<polygon fill="#ddddee" stroke="#000000" points="130.5,-344 130.5,-431 288.5,-431 288.5,-344 130.5,-344"/>
<text text-anchor="middle" x="209.5" y="-419" font-family="Helvetica,sans-Serif" font-size="10.00" fill="#000000">validation</text>
</a>
</g>
</g>
<g id="clust2" class="cluster">
<title>clusterdir_f7024513cd67abef53e86ee9382ac5ce</title>
<g id="a_clust2"><a xlink:href="dir_f7024513cd67abef53e86ee9382ac5ce.xhtml" target="_top">
<polygon fill="#eeeeff" stroke="#000000" points="138.5,-352 138.5,-404 280.5,-404 280.5,-352 138.5,-352"/>
</a>
</g>
</g>
<!-- dir_f7024513cd67abef53e86ee9382ac5ce -->
<g id="node1" class="node">
<title>dir_f7024513cd67abef53e86ee9382ac5ce</title>
<text text-anchor="middle" x="173.5" y="-375.5" font-family="Helvetica,sans-Serif" font-size="10.00" fill="#000000">CL</text>
</g>
<!-- dir_46fdb196cebdbffe77dac340cde62f29 -->
<g id="node3" class="node">
<title>dir_46fdb196cebdbffe77dac340cde62f29</title>
<g id="a_node3"><a xlink:href="dir_46fdb196cebdbffe77dac340cde62f29.xhtml" target="_top" xlink:title="reference">
<polygon fill="none" stroke="#000000" points="57,-324 0,-324 0,-288 57,-288 57,-324"/>
<text text-anchor="middle" x="28.5" y="-303.5" font-family="Helvetica,sans-Serif" font-size="10.00" fill="#000000">reference</text>
</a>
</g>
</g>
<!-- dir_f7024513cd67abef53e86ee9382ac5ce&#45;&gt;dir_46fdb196cebdbffe77dac340cde62f29 -->
<g id="edge15" class="edge">
<title>dir_f7024513cd67abef53e86ee9382ac5ce&#45;&gt;dir_46fdb196cebdbffe77dac340cde62f29</title>
<path fill="none" stroke="#000000" d="M146.2266,-364.4574C123.676,-353.2598 91.4058,-337.236 66.3525,-324.7957"/>
<polygon fill="#000000" stroke="#000000" points="67.6524,-321.5335 57.1392,-320.2209 64.5392,-327.8031 67.6524,-321.5335"/>
<g id="a_edge15&#45;headlabel"><a xlink:href="dir_000102_000026.xhtml" target="_top" xlink:title="2">
<text text-anchor="middle" x="72.1347" y="-318.0891" font-family="Helvetica,sans-Serif" font-size="10.00" fill="#000000">2</text>
</a>
</g>
</g>
<!-- dir_cbdb8362360e11eafe2fa3bc74cf0ffd -->
<g id="node4" class="node">
<title>dir_cbdb8362360e11eafe2fa3bc74cf0ffd</title>
<g id="a_node4"><a xlink:href="dir_cbdb8362360e11eafe2fa3bc74cf0ffd.xhtml" target="_top" xlink:title="utils">
<polygon fill="#ffffff" stroke="#ff0000" points="217.5,-180 163.5,-180 163.5,-144 217.5,-144 217.5,-180"/>
<text text-anchor="middle" x="190.5" y="-159.5" font-family="Helvetica,sans-Serif" font-size="10.00" fill="#000000">utils</text>
</a>
</g>
</g>
<!-- dir_f7024513cd67abef53e86ee9382ac5ce&#45;&gt;dir_cbdb8362360e11eafe2fa3bc74cf0ffd -->
<g id="edge16" class="edge">
<title>dir_f7024513cd67abef53e86ee9382ac5ce&#45;&gt;dir_cbdb8362360e11eafe2fa3bc74cf0ffd</title>
<path fill="none" stroke="#000000" d="M174.9202,-359.9555C177.8827,-322.3144 184.7399,-235.1867 188.2865,-190.1246"/>
<polygon fill="#000000" stroke="#000000" points="191.7764,-190.3889 189.0719,-180.1451 184.798,-189.8396 191.7764,-190.3889"/>
<g id="a_edge16&#45;headlabel"><a xlink:href="dir_000102_000027.xhtml" target="_top" xlink:title="4">
<text text-anchor="middle" x="194.325" y="-191.6952" font-family="Helvetica,sans-Serif" font-size="10.00" fill="#000000">4</text>
</a>
</g>
</g>
<!-- dir_9e71e2da941d3cafc4d98a9f6ae3de4f -->
<g id="node5" class="node">
<title>dir_9e71e2da941d3cafc4d98a9f6ae3de4f</title>
<g id="a_node5"><a xlink:href="dir_9e71e2da941d3cafc4d98a9f6ae3de4f.xhtml" target="_top" xlink:title="framework">
<polygon fill="#ffffff" stroke="#ff0000" points="107.5,-252 45.5,-252 45.5,-216 107.5,-216 107.5,-252"/>
<text text-anchor="middle" x="76.5" y="-231.5" font-family="Helvetica,sans-Serif" font-size="10.00" fill="#000000">framework</text>
</a>
</g>
</g>
<!-- dir_f7024513cd67abef53e86ee9382ac5ce&#45;&gt;dir_9e71e2da941d3cafc4d98a9f6ae3de4f -->
<g id="edge17" class="edge">
<title>dir_f7024513cd67abef53e86ee9382ac5ce&#45;&gt;dir_9e71e2da941d3cafc4d98a9f6ae3de4f</title>
<path fill="none" stroke="#000000" d="M153.2043,-359.7623C142.9016,-349.8401 130.6623,-336.9682 121.5,-324 107.6577,-304.4078 95.7176,-279.9384 87.6219,-261.4615"/>
<polygon fill="#000000" stroke="#000000" points="90.7882,-259.9639 83.6408,-252.1431 84.3511,-262.7141 90.7882,-259.9639"/>
<g id="a_edge17&#45;headlabel"><a xlink:href="dir_000102_000025.xhtml" target="_top" xlink:title="284">
<text text-anchor="middle" x="94.8114" y="-259.654" font-family="Helvetica,sans-Serif" font-size="10.00" fill="#000000">284</text>
</a>
</g>
</g>
<!-- dir_214608ef36d61442cb2b0c1c4e9a7def -->
<g id="node6" class="node">
<title>dir_214608ef36d61442cb2b0c1c4e9a7def</title>
<g id="a_node6"><a xlink:href="dir_214608ef36d61442cb2b0c1c4e9a7def.xhtml" target="_top" xlink:title="arm_compute">
<polygon fill="#ffffff" stroke="#ff0000" points="200.5,-108 124.5,-108 124.5,-72 200.5,-72 200.5,-108"/>
<text text-anchor="middle" x="162.5" y="-87.5" font-family="Helvetica,sans-Serif" font-size="10.00" fill="#000000">arm_compute</text>
</a>
</g>
</g>
<!-- dir_f7024513cd67abef53e86ee9382ac5ce&#45;&gt;dir_214608ef36d61442cb2b0c1c4e9a7def -->
<g id="edge18" class="edge">
<title>dir_f7024513cd67abef53e86ee9382ac5ce&#45;&gt;dir_214608ef36d61442cb2b0c1c4e9a7def</title>
<path fill="none" stroke="#000000" d="M170.103,-359.8025C163.1791,-320.4495 148.5706,-224.4841 154.5,-144 155.1169,-135.6264 156.2649,-126.5812 157.5026,-118.3322"/>
<polygon fill="#000000" stroke="#000000" points="160.9648,-118.8463 159.085,-108.4196 154.0523,-117.7428 160.9648,-118.8463"/>
<g id="a_edge18&#45;headlabel"><a xlink:href="dir_000102_000000.xhtml" target="_top" xlink:title="384">
<text text-anchor="middle" x="163.202" y="-120.3436" font-family="Helvetica,sans-Serif" font-size="10.00" fill="#000000">384</text>
</a>
</g>
</g>
<!-- dir_896191444cf08ec8ade6f88256cb2bdd -->
<g id="node7" class="node">
<title>dir_896191444cf08ec8ade6f88256cb2bdd</title>
<g id="a_node7"><a xlink:href="dir_896191444cf08ec8ade6f88256cb2bdd.xhtml" target="_top" xlink:title="CL">
<polygon fill="none" stroke="#000000" points="293.5,-324 239.5,-324 239.5,-288 293.5,-288 293.5,-324"/>
<text text-anchor="middle" x="266.5" y="-303.5" font-family="Helvetica,sans-Serif" font-size="10.00" fill="#000000">CL</text>
</a>
</g>
</g>
<!-- dir_f7024513cd67abef53e86ee9382ac5ce&#45;&gt;dir_896191444cf08ec8ade6f88256cb2bdd -->
<g id="edge19" class="edge">
<title>dir_f7024513cd67abef53e86ee9382ac5ce&#45;&gt;dir_896191444cf08ec8ade6f88256cb2bdd</title>
<path fill="none" stroke="#000000" d="M191.6449,-359.7312C197.2007,-354.4523 203.4471,-348.8193 209.5,-344 216.2544,-338.6222 223.7615,-333.2387 231.0514,-328.2852"/>
<polygon fill="#000000" stroke="#000000" points="233.0662,-331.1486 239.4512,-322.6938 229.1874,-325.3215 233.0662,-331.1486"/>
<g id="a_edge19&#45;headlabel"><a xlink:href="dir_000102_000120.xhtml" target="_top" xlink:title="120">
<text text-anchor="middle" x="231.6472" y="-333.0039" font-family="Helvetica,sans-Serif" font-size="10.00" fill="#000000">120</text>
</a>
</g>
</g>
<!-- dir_4fe3055359cf5438733b5e64b064b197 -->
<g id="node2" class="node">
<title>dir_4fe3055359cf5438733b5e64b064b197</title>
<g id="a_node2"><a xlink:href="dir_4fe3055359cf5438733b5e64b064b197.xhtml" target="_top" xlink:title="UNIT">
<polygon fill="#ffffff" stroke="#000000" points="272.5,-396 218.5,-396 218.5,-360 272.5,-360 272.5,-396"/>
<text text-anchor="middle" x="245.5" y="-375.5" font-family="Helvetica,sans-Serif" font-size="10.00" fill="#000000">UNIT</text>
</a>
</g>
</g>
<!-- dir_4fe3055359cf5438733b5e64b064b197&#45;&gt;dir_9e71e2da941d3cafc4d98a9f6ae3de4f -->
<g id="edge6" class="edge">
<title>dir_4fe3055359cf5438733b5e64b064b197&#45;&gt;dir_9e71e2da941d3cafc4d98a9f6ae3de4f</title>
<path fill="none" stroke="#000000" d="M226.66,-359.7644C221.193,-354.5941 215.1679,-349.0107 209.5,-344 175.3206,-313.7837 134.7539,-280.6013 107.4866,-258.6684"/>
<polygon fill="#000000" stroke="#000000" points="109.4631,-255.7669 99.4731,-252.2385 105.0823,-261.2267 109.4631,-255.7669"/>
<g id="a_edge6&#45;headlabel"><a xlink:href="dir_000117_000025.xhtml" target="_top" xlink:title="8">
<text text-anchor="middle" x="114.0437" y="-253.302" font-family="Helvetica,sans-Serif" font-size="10.00" fill="#000000">8</text>
</a>
</g>
</g>
<!-- dir_4fe3055359cf5438733b5e64b064b197&#45;&gt;dir_214608ef36d61442cb2b0c1c4e9a7def -->
<g id="edge7" class="edge">
<title>dir_4fe3055359cf5438733b5e64b064b197&#45;&gt;dir_214608ef36d61442cb2b0c1c4e9a7def</title>
<path fill="none" stroke="#000000" d="M272.6897,-360.0065C284.1743,-350.7602 296.3058,-338.4006 302.5,-324 308.8221,-309.302 305.3067,-303.7519 302.5,-288 290.5367,-220.8603 292.593,-196.857 249.5,-144 238.8022,-130.8783 224.0237,-120.0462 209.6812,-111.6163"/>
<polygon fill="#000000" stroke="#000000" points="211.2843,-108.5027 200.8477,-106.6788 207.869,-114.613 211.2843,-108.5027"/>
<g id="a_edge7&#45;headlabel"><a xlink:href="dir_000117_000000.xhtml" target="_top" xlink:title="12">
<text text-anchor="middle" x="215.8073" y="-105.2781" font-family="Helvetica,sans-Serif" font-size="10.00" fill="#000000">12</text>
</a>
</g>
</g>
<!-- dir_4fe3055359cf5438733b5e64b064b197&#45;&gt;dir_896191444cf08ec8ade6f88256cb2bdd -->
<g id="edge8" class="edge">
<title>dir_4fe3055359cf5438733b5e64b064b197&#45;&gt;dir_896191444cf08ec8ade6f88256cb2bdd</title>
<path fill="none" stroke="#000000" d="M250.7992,-359.8314C253.0698,-352.0463 255.7746,-342.7729 258.294,-334.1347"/>
<polygon fill="#000000" stroke="#000000" points="261.6894,-334.9933 261.1295,-324.4133 254.9694,-333.0332 261.6894,-334.9933"/>
<g id="a_edge8&#45;headlabel"><a xlink:href="dir_000117_000120.xhtml" target="_top" xlink:title="2">
<text text-anchor="middle" x="263.4087" y="-336.7391" font-family="Helvetica,sans-Serif" font-size="10.00" fill="#000000">2</text>
</a>
</g>
</g>
<!-- dir_5815af820a9cc9481f1d0990a0d60286 -->
<g id="node8" class="node">
<title>dir_5815af820a9cc9481f1d0990a0d60286</title>
<g id="a_node8"><a xlink:href="dir_5815af820a9cc9481f1d0990a0d60286.xhtml" target="_top" xlink:title="support">
<polygon fill="none" stroke="#000000" points="222.5,-36 168.5,-36 168.5,0 222.5,0 222.5,-36"/>
<text text-anchor="middle" x="195.5" y="-15.5" font-family="Helvetica,sans-Serif" font-size="10.00" fill="#000000">support</text>
</a>
</g>
</g>
<!-- dir_4fe3055359cf5438733b5e64b064b197&#45;&gt;dir_5815af820a9cc9481f1d0990a0d60286 -->
<g id="edge9" class="edge">
<title>dir_4fe3055359cf5438733b5e64b064b197&#45;&gt;dir_5815af820a9cc9481f1d0990a0d60286</title>
<path fill="none" stroke="#000000" d="M272.7435,-362.1914C287.4548,-352.6044 305.0906,-339.2842 317.5,-324 345.3229,-289.7315 359.5,-278.1412 359.5,-234 359.5,-234 359.5,-234 359.5,-162 359.5,-94.6487 280.4317,-51.4025 232.0975,-31.2583"/>
<polygon fill="#000000" stroke="#000000" points="233.1647,-27.9149 222.5813,-27.4235 230.5483,-34.4075 233.1647,-27.9149"/>
<g id="a_edge9&#45;headlabel"><a xlink:href="dir_000117_000119.xhtml" target="_top" xlink:title="3">
<text text-anchor="middle" x="237.56" y="-24.1249" font-family="Helvetica,sans-Serif" font-size="10.00" fill="#000000">3</text>
</a>
</g>
</g>
<!-- dir_46fdb196cebdbffe77dac340cde62f29&#45;&gt;dir_9e71e2da941d3cafc4d98a9f6ae3de4f -->
<g id="edge1" class="edge">
<title>dir_46fdb196cebdbffe77dac340cde62f29&#45;&gt;dir_9e71e2da941d3cafc4d98a9f6ae3de4f</title>
<path fill="none" stroke="#000000" d="M40.6124,-287.8314C46.0281,-279.7079 52.5242,-269.9637 58.4921,-261.0118"/>
<polygon fill="#000000" stroke="#000000" points="61.5896,-262.6753 64.2245,-252.4133 55.7653,-258.7923 61.5896,-262.6753"/>
<g id="a_edge1&#45;headlabel"><a xlink:href="dir_000026_000025.xhtml" target="_top" xlink:title="3">
<text text-anchor="middle" x="61.9581" y="-264.7411" font-family="Helvetica,sans-Serif" font-size="10.00" fill="#000000">3</text>
</a>
</g>
</g>
<!-- dir_46fdb196cebdbffe77dac340cde62f29&#45;&gt;dir_214608ef36d61442cb2b0c1c4e9a7def -->
<g id="edge2" class="edge">
<title>dir_46fdb196cebdbffe77dac340cde62f29&#45;&gt;dir_214608ef36d61442cb2b0c1c4e9a7def</title>
<path fill="none" stroke="#000000" d="M26.9056,-287.9603C25.9647,-269.2023 26.5164,-239.3691 36.5,-216 54.9967,-172.7037 96.0328,-136.3546 126.2718,-113.9947"/>
<polygon fill="#000000" stroke="#000000" points="128.4269,-116.7556 134.4867,-108.0648 124.3299,-111.0798 128.4269,-116.7556"/>
<g id="a_edge2&#45;headlabel"><a xlink:href="dir_000026_000000.xhtml" target="_top" xlink:title="69">
<text text-anchor="middle" x="127.1741" y="-118.6616" font-family="Helvetica,sans-Serif" font-size="10.00" fill="#000000">69</text>
</a>
</g>
</g>
<!-- dir_46fdb196cebdbffe77dac340cde62f29&#45;&gt;dir_5815af820a9cc9481f1d0990a0d60286 -->
<g id="edge3" class="edge">
<title>dir_46fdb196cebdbffe77dac340cde62f29&#45;&gt;dir_5815af820a9cc9481f1d0990a0d60286</title>
<path fill="none" stroke="#000000" d="M25.103,-287.8633C22.2734,-269.5383 19.4479,-240.5094 24.5,-216 38.8664,-146.3042 44.0449,-122.1815 94.5,-72 112.6341,-53.9642 138.0437,-40.4199 158.8394,-31.4068"/>
<polygon fill="#000000" stroke="#000000" points="160.4335,-34.5346 168.3254,-27.4657 157.7478,-28.0703 160.4335,-34.5346"/>
<g id="a_edge3&#45;headlabel"><a xlink:href="dir_000026_000119.xhtml" target="_top" xlink:title="2">
<text text-anchor="middle" x="158.2034" y="-36.0357" font-family="Helvetica,sans-Serif" font-size="10.00" fill="#000000">2</text>
</a>
</g>
</g>
<!-- dir_cbdb8362360e11eafe2fa3bc74cf0ffd&#45;&gt;dir_214608ef36d61442cb2b0c1c4e9a7def -->
<g id="edge4" class="edge">
<title>dir_cbdb8362360e11eafe2fa3bc74cf0ffd&#45;&gt;dir_214608ef36d61442cb2b0c1c4e9a7def</title>
<path fill="none" stroke="#000000" d="M177.482,-143.8314C173.6958,-136.0463 169.8721,-126.7729 166.8366,-118.1347"/>
<polygon fill="#000000" stroke="#000000" points="170.0983,-116.8463 163.6847,-108.4133 163.4395,-119.0053 170.0983,-116.8463"/>
<g id="a_edge4&#45;headlabel"><a xlink:href="dir_000027_000000.xhtml" target="_top" xlink:title="36">
<text text-anchor="middle" x="173.9077" y="-116.8901" font-family="Helvetica,sans-Serif" font-size="10.00" fill="#000000">36</text>
</a>
</g>
</g>
<!-- dir_cbdb8362360e11eafe2fa3bc74cf0ffd&#45;&gt;dir_5815af820a9cc9481f1d0990a0d60286 -->
<g id="edge5" class="edge">
<title>dir_cbdb8362360e11eafe2fa3bc74cf0ffd&#45;&gt;dir_5815af820a9cc9481f1d0990a0d60286</title>
<path fill="none" stroke="#000000" d="M198.5917,-143.9165C202.7561,-133.6179 207.3918,-120.3436 209.5,-108 213.0384,-87.2824 209.1287,-63.817 204.5511,-46.0418"/>
<polygon fill="#000000" stroke="#000000" points="207.8906,-44.9875 201.8299,-36.2974 201.1486,-46.8703 207.8906,-44.9875"/>
<g id="a_edge5&#45;headlabel"><a xlink:href="dir_000027_000119.xhtml" target="_top" xlink:title="3">
<text text-anchor="middle" x="211.592" y="-45.186" font-family="Helvetica,sans-Serif" font-size="10.00" fill="#000000">3</text>
</a>
</g>
</g>
<!-- dir_9e71e2da941d3cafc4d98a9f6ae3de4f&#45;&gt;dir_cbdb8362360e11eafe2fa3bc74cf0ffd -->
<g id="edge10" class="edge">
<title>dir_9e71e2da941d3cafc4d98a9f6ae3de4f&#45;&gt;dir_cbdb8362360e11eafe2fa3bc74cf0ffd</title>
<path fill="none" stroke="#000000" d="M105.267,-215.8314C120.2935,-206.3409 138.8223,-194.6386 154.7617,-184.5716"/>
<polygon fill="#000000" stroke="#000000" points="156.7259,-187.4707 163.3119,-179.1715 152.988,-181.5522 156.7259,-187.4707"/>
<g id="a_edge10&#45;headlabel"><a xlink:href="dir_000025_000027.xhtml" target="_top" xlink:title="3">
<text text-anchor="middle" x="155.2029" y="-189.2907" font-family="Helvetica,sans-Serif" font-size="10.00" fill="#000000">3</text>
</a>
</g>
</g>
<!-- dir_9e71e2da941d3cafc4d98a9f6ae3de4f&#45;&gt;dir_214608ef36d61442cb2b0c1c4e9a7def -->
<g id="edge11" class="edge">
<title>dir_9e71e2da941d3cafc4d98a9f6ae3de4f&#45;&gt;dir_214608ef36d61442cb2b0c1c4e9a7def</title>
<path fill="none" stroke="#000000" d="M84.3537,-215.8829C92.6748,-197.3215 106.643,-167.8813 121.5,-144 127.2827,-134.7049 134.2748,-125.0367 140.8344,-116.4932"/>
<polygon fill="#000000" stroke="#000000" points="143.7782,-118.4109 147.1891,-108.3801 138.2674,-114.0945 143.7782,-118.4109"/>
<g id="a_edge11&#45;headlabel"><a xlink:href="dir_000025_000000.xhtml" target="_top" xlink:title="14">
<text text-anchor="middle" x="143.7969" y="-120.4915" font-family="Helvetica,sans-Serif" font-size="10.00" fill="#000000">14</text>
</a>
</g>
</g>
<!-- dir_9e71e2da941d3cafc4d98a9f6ae3de4f&#45;&gt;dir_5815af820a9cc9481f1d0990a0d60286 -->
<g id="edge12" class="edge">
<title>dir_9e71e2da941d3cafc4d98a9f6ae3de4f&#45;&gt;dir_5815af820a9cc9481f1d0990a0d60286</title>
<path fill="none" stroke="#000000" d="M76.7105,-215.7493C77.9266,-183.8119 84.329,-116.919 115.5,-72 126.4408,-56.2337 143.603,-43.7669 159.2306,-34.8026"/>
<polygon fill="#000000" stroke="#000000" points="161.0805,-37.7808 168.196,-29.9309 157.7383,-31.6302 161.0805,-37.7808"/>
<g id="a_edge12&#45;headlabel"><a xlink:href="dir_000025_000119.xhtml" target="_top" xlink:title="7">
<text text-anchor="middle" x="159.2777" y="-39.4918" font-family="Helvetica,sans-Serif" font-size="10.00" fill="#000000">7</text>
</a>
</g>
</g>
<!-- dir_214608ef36d61442cb2b0c1c4e9a7def&#45;&gt;dir_cbdb8362360e11eafe2fa3bc74cf0ffd -->
<g id="edge13" class="edge">
<title>dir_214608ef36d61442cb2b0c1c4e9a7def&#45;&gt;dir_cbdb8362360e11eafe2fa3bc74cf0ffd</title>
<path fill="none" stroke="#000000" d="M175.6367,-108.4133C179.4236,-116.2292 183.2394,-125.5113 186.2584,-134.136"/>
<polygon fill="#000000" stroke="#000000" points="182.985,-135.3893 189.3868,-143.8314 189.6468,-133.2397 182.985,-135.3893"/>
<g id="a_edge13&#45;headlabel"><a xlink:href="dir_000000_000027.xhtml" target="_top" xlink:title="1">
<text text-anchor="middle" x="179.1792" y="-130.3403" font-family="Helvetica,sans-Serif" font-size="10.00" fill="#000000">1</text>
</a>
</g>
</g>
<!-- dir_214608ef36d61442cb2b0c1c4e9a7def&#45;&gt;dir_5815af820a9cc9481f1d0990a0d60286 -->
<g id="edge14" class="edge">
<title>dir_214608ef36d61442cb2b0c1c4e9a7def&#45;&gt;dir_5815af820a9cc9481f1d0990a0d60286</title>
<path fill="none" stroke="#000000" d="M170.8273,-71.8314C174.473,-63.8771 178.8309,-54.369 182.8627,-45.5723"/>
<polygon fill="#000000" stroke="#000000" points="186.0757,-46.9622 187.0606,-36.4133 179.7123,-44.0456 186.0757,-46.9622"/>
<g id="a_edge14&#45;headlabel"><a xlink:href="dir_000000_000119.xhtml" target="_top" xlink:title="20">
<text text-anchor="middle" x="187.1591" y="-48.9129" font-family="Helvetica,sans-Serif" font-size="10.00" fill="#000000">20</text>
</a>
</g>
</g>
<!-- dir_896191444cf08ec8ade6f88256cb2bdd&#45;&gt;dir_214608ef36d61442cb2b0c1c4e9a7def -->
<g id="edge20" class="edge">
<title>dir_896191444cf08ec8ade6f88256cb2bdd&#45;&gt;dir_214608ef36d61442cb2b0c1c4e9a7def</title>
<path fill="none" stroke="#000000" d="M265.6171,-287.5734C263.3433,-255.9429 255.2455,-190.2592 226.5,-144 219.5373,-132.7952 209.4695,-122.749 199.3726,-114.4479"/>
<polygon fill="#000000" stroke="#000000" points="201.3662,-111.5641 191.3277,-108.1759 197.0622,-117.0846 201.3662,-111.5641"/>
<g id="a_edge20&#45;headlabel"><a xlink:href="dir_000120_000000.xhtml" target="_top" xlink:title="5">
<text text-anchor="middle" x="205.9467" y="-109.035" font-family="Helvetica,sans-Serif" font-size="10.00" fill="#000000">5</text>
</a>
</g>
</g>
<!-- dir_896191444cf08ec8ade6f88256cb2bdd&#45;&gt;dir_5815af820a9cc9481f1d0990a0d60286 -->
<g id="edge21" class="edge">
<title>dir_896191444cf08ec8ade6f88256cb2bdd&#45;&gt;dir_5815af820a9cc9481f1d0990a0d60286</title>
<path fill="none" stroke="#000000" d="M270.0261,-287.9677C273.0499,-269.7237 276.3582,-240.7567 272.5,-216 262.1119,-149.3427 251.6084,-133.7758 224.5,-72 220.5433,-62.9833 215.6582,-53.4299 211.0327,-44.9058"/>
<polygon fill="#000000" stroke="#000000" points="214.0803,-43.1844 206.1717,-36.1342 207.9576,-46.5775 214.0803,-43.1844"/>
<g id="a_edge21&#45;headlabel"><a xlink:href="dir_000120_000119.xhtml" target="_top" xlink:title="1">
<text text-anchor="middle" x="218.3061" y="-42.4522" font-family="Helvetica,sans-Serif" font-size="10.00" fill="#000000">1</text>
</a>
</g>
</g>
</g>
</svg>
