<?xml version="1.0" encoding="UTF-8" standalone="no"?>
<!DOCTYPE svg PUBLIC "-//W3C//DTD SVG 1.1//EN"
 "http://www.w3.org/Graphics/SVG/1.1/DTD/svg11.dtd">
<!-- Generated by graphviz version 2.40.1 (20161225.0304)
 -->
<!-- Title: arm_compute/core/utils Pages: 1 -->
<svg width="396pt" height="183pt"
 viewBox="0.00 0.00 396.00 183.00" xmlns="http://www.w3.org/2000/svg" xmlns:xlink="http://www.w3.org/1999/xlink">
<g id="graph0" class="graph" transform="scale(1 1) rotate(0) translate(4 179)">
<title>arm_compute/core/utils</title>
<polygon fill="#ffffff" stroke="transparent" points="-4,4 -4,-179 392,-179 392,4 -4,4"/>
<g id="clust1" class="cluster">
<title>clusterdir_1fb090f0c6070330bfaccc4236d3ca0d</title>
<g id="a_clust1"><a xlink:href="dir_1fb090f0c6070330bfaccc4236d3ca0d.xhtml" target="_top" xlink:title="core">
<polygon fill="#ddddee" stroke="#000000" points="8,-8 8,-167 326,-167 326,-8 8,-8"/>
<text text-anchor="middle" x="167" y="-155" font-family="Helvetica,sans-Serif" font-size="10.00" fill="#000000">core</text>
</a>
</g>
</g>
<g id="clust2" class="cluster">
<title>clusterdir_7b0825b7536eda12b63e5d87347b1c7d</title>
<g id="a_clust2"><a xlink:href="dir_7b0825b7536eda12b63e5d87347b1c7d.xhtml" target="_top">
<polygon fill="#eeeeff" stroke="#000000" points="16,-16 16,-140 318,-140 318,-16 16,-16"/>
</a>
</g>
</g>
<!-- dir_7b0825b7536eda12b63e5d87347b1c7d -->
<g id="node1" class="node">
<title>dir_7b0825b7536eda12b63e5d87347b1c7d</title>
<text text-anchor="middle" x="283" y="-111.5" font-family="Helvetica,sans-Serif" font-size="10.00" fill="#000000">utils</text>
</g>
<!-- dir_109374e99be0205441d869eba1a88b2d -->
<g id="node2" class="node">
<title>dir_109374e99be0205441d869eba1a88b2d</title>
<g id="a_node2"><a xlink:href="dir_109374e99be0205441d869eba1a88b2d.xhtml" target="_top" xlink:title="helpers">
<polygon fill="#ffffff" stroke="#000000" points="166,-60 112,-60 112,-24 166,-24 166,-60"/>
<text text-anchor="middle" x="139" y="-39.5" font-family="Helvetica,sans-Serif" font-size="10.00" fill="#000000">helpers</text>
</a>
</g>
</g>
<!-- dir_4165fcd8206cc52fde421ae1f1275b40 -->
<g id="node3" class="node">
<title>dir_4165fcd8206cc52fde421ae1f1275b40</title>
<g id="a_node3"><a xlink:href="dir_4165fcd8206cc52fde421ae1f1275b40.xhtml" target="_top" xlink:title="io">
<polygon fill="#ffffff" stroke="#000000" points="238,-60 184,-60 184,-24 238,-24 238,-60"/>
<text text-anchor="middle" x="211" y="-39.5" font-family="Helvetica,sans-Serif" font-size="10.00" fill="#000000">io</text>
</a>
</g>
</g>
<!-- dir_e575b855d3e83e3374bc2a6f9bf89d98 -->
<g id="node4" class="node">
<title>dir_e575b855d3e83e3374bc2a6f9bf89d98</title>
<g id="a_node4"><a xlink:href="dir_e575b855d3e83e3374bc2a6f9bf89d98.xhtml" target="_top" xlink:title="logging">
<polygon fill="#ffffff" stroke="#000000" points="238,-132 184,-132 184,-96 238,-96 238,-132"/>
<text text-anchor="middle" x="211" y="-111.5" font-family="Helvetica,sans-Serif" font-size="10.00" fill="#000000">logging</text>
</a>
</g>
</g>
<!-- dir_e575b855d3e83e3374bc2a6f9bf89d98&#45;&gt;dir_4165fcd8206cc52fde421ae1f1275b40 -->
<g id="edge1" class="edge">
<title>dir_e575b855d3e83e3374bc2a6f9bf89d98&#45;&gt;dir_4165fcd8206cc52fde421ae1f1275b40</title>
<path fill="none" stroke="#000000" d="M211,-95.8314C211,-88.131 211,-78.9743 211,-70.4166"/>
<polygon fill="#000000" stroke="#000000" points="214.5001,-70.4132 211,-60.4133 207.5001,-70.4133 214.5001,-70.4132"/>
<g id="a_edge1&#45;headlabel"><a xlink:href="dir_000009_000029.xhtml" target="_top" xlink:title="1">
<text text-anchor="middle" x="217.3393" y="-71.5079" font-family="Helvetica,sans-Serif" font-size="10.00" fill="#000000">1</text>
</a>
</g>
</g>
<!-- dir_5815af820a9cc9481f1d0990a0d60286 -->
<g id="node7" class="node">
<title>dir_5815af820a9cc9481f1d0990a0d60286</title>
<g id="a_node7"><a xlink:href="dir_5815af820a9cc9481f1d0990a0d60286.xhtml" target="_top" xlink:title="support">
<polygon fill="none" stroke="#000000" points="388,-60 334,-60 334,-24 388,-24 388,-60"/>
<text text-anchor="middle" x="361" y="-39.5" font-family="Helvetica,sans-Serif" font-size="10.00" fill="#000000">support</text>
</a>
</g>
</g>
<!-- dir_e575b855d3e83e3374bc2a6f9bf89d98&#45;&gt;dir_5815af820a9cc9481f1d0990a0d60286 -->
<g id="edge2" class="edge">
<title>dir_e575b855d3e83e3374bc2a6f9bf89d98&#45;&gt;dir_5815af820a9cc9481f1d0990a0d60286</title>
<path fill="none" stroke="#000000" d="M238.0963,-100.3747C241.096,-98.8893 244.1099,-97.4068 247,-96 272.8442,-83.4197 302.1537,-69.5449 324.5818,-59.0097"/>
<polygon fill="#000000" stroke="#000000" points="326.1753,-62.1282 333.7424,-54.7126 323.2025,-55.7908 326.1753,-62.1282"/>
<g id="a_edge2&#45;headlabel"><a xlink:href="dir_000009_000119.xhtml" target="_top" xlink:title="3">
<text text-anchor="middle" x="324.1268" y="-63.7252" font-family="Helvetica,sans-Serif" font-size="10.00" fill="#000000">3</text>
</a>
</g>
</g>
<!-- dir_cab437ca4f6ec1fbc573ae83f91b2654 -->
<g id="node5" class="node">
<title>dir_cab437ca4f6ec1fbc573ae83f91b2654</title>
<g id="a_node5"><a xlink:href="dir_cab437ca4f6ec1fbc573ae83f91b2654.xhtml" target="_top" xlink:title="misc">
<polygon fill="#ffffff" stroke="#000000" points="166,-132 112,-132 112,-96 166,-96 166,-132"/>
<text text-anchor="middle" x="139" y="-111.5" font-family="Helvetica,sans-Serif" font-size="10.00" fill="#000000">misc</text>
</a>
</g>
</g>
<!-- dir_cab437ca4f6ec1fbc573ae83f91b2654&#45;&gt;dir_109374e99be0205441d869eba1a88b2d -->
<g id="edge3" class="edge">
<title>dir_cab437ca4f6ec1fbc573ae83f91b2654&#45;&gt;dir_109374e99be0205441d869eba1a88b2d</title>
<path fill="none" stroke="#000000" d="M139,-95.8314C139,-88.131 139,-78.9743 139,-70.4166"/>
<polygon fill="#000000" stroke="#000000" points="142.5001,-70.4132 139,-60.4133 135.5001,-70.4133 142.5001,-70.4132"/>
<g id="a_edge3&#45;headlabel"><a xlink:href="dir_000032_000028.xhtml" target="_top" xlink:title="1">
<text text-anchor="middle" x="145.3393" y="-71.5079" font-family="Helvetica,sans-Serif" font-size="10.00" fill="#000000">1</text>
</a>
</g>
</g>
<!-- dir_4dbf711d3d3ef9d1292a532e836709c1 -->
<g id="node6" class="node">
<title>dir_4dbf711d3d3ef9d1292a532e836709c1</title>
<g id="a_node6"><a xlink:href="dir_4dbf711d3d3ef9d1292a532e836709c1.xhtml" target="_top" xlink:title="quantization">
<polygon fill="#ffffff" stroke="#000000" points="93.5,-132 24.5,-132 24.5,-96 93.5,-96 93.5,-132"/>
<text text-anchor="middle" x="59" y="-111.5" font-family="Helvetica,sans-Serif" font-size="10.00" fill="#000000">quantization</text>
</a>
</g>
</g>
</g>
</svg>
