<?xml version="1.0" encoding="UTF-8" standalone="no"?>
<!DOCTYPE svg PUBLIC "-//W3C//DTD SVG 1.1//EN"
 "http://www.w3.org/Graphics/SVG/1.1/DTD/svg11.dtd">
<!-- Generated by graphviz version 2.40.1 (20161225.0304)
 -->
<!-- Title: src/graph/backends Pages: 1 -->
<svg width="332pt" height="231pt"
 viewBox="0.00 0.00 332.00 231.00" xmlns="http://www.w3.org/2000/svg" xmlns:xlink="http://www.w3.org/1999/xlink">
<g id="graph0" class="graph" transform="scale(1 1) rotate(0) translate(4 227)">
<title>src/graph/backends</title>
<polygon fill="#ffffff" stroke="transparent" points="-4,4 -4,-227 328,-227 328,4 -4,4"/>
<g id="clust1" class="cluster">
<title>clusterdir_d182250f0c231765fc862e69db210731</title>
<g id="a_clust1"><a xlink:href="dir_d182250f0c231765fc862e69db210731.xhtml" target="_top" xlink:title="graph">
<polygon fill="#ddddee" stroke="#000000" points="8,-128 8,-215 316,-215 316,-128 8,-128"/>
<text text-anchor="middle" x="162" y="-203" font-family="Helvetica,sans-Serif" font-size="10.00" fill="#000000">graph</text>
</a>
</g>
</g>
<g id="clust2" class="cluster">
<title>clusterdir_39e772dac1f6529f21fb52deefa146ea</title>
<g id="a_clust2"><a xlink:href="dir_39e772dac1f6529f21fb52deefa146ea.xhtml" target="_top">
<polygon fill="#eeeeff" stroke="#000000" points="16,-136 16,-188 308,-188 308,-136 16,-136"/>
</a>
</g>
</g>
<!-- dir_39e772dac1f6529f21fb52deefa146ea -->
<g id="node1" class="node">
<title>dir_39e772dac1f6529f21fb52deefa146ea</title>
<text text-anchor="middle" x="126" y="-159.5" font-family="Helvetica,sans-Serif" font-size="10.00" fill="#000000">backends</text>
</g>
<!-- dir_214608ef36d61442cb2b0c1c4e9a7def -->
<g id="node5" class="node">
<title>dir_214608ef36d61442cb2b0c1c4e9a7def</title>
<g id="a_node5"><a xlink:href="dir_214608ef36d61442cb2b0c1c4e9a7def.xhtml" target="_top" xlink:title="arm_compute">
<polygon fill="#ffffff" stroke="#ff0000" points="173,-108 97,-108 97,-72 173,-72 173,-108"/>
<text text-anchor="middle" x="135" y="-87.5" font-family="Helvetica,sans-Serif" font-size="10.00" fill="#000000">arm_compute</text>
</a>
</g>
</g>
<!-- dir_39e772dac1f6529f21fb52deefa146ea&#45;&gt;dir_214608ef36d61442cb2b0c1c4e9a7def -->
<g id="edge6" class="edge">
<title>dir_39e772dac1f6529f21fb52deefa146ea&#45;&gt;dir_214608ef36d61442cb2b0c1c4e9a7def</title>
<path fill="none" stroke="#000000" d="M128.2711,-143.8314C129.2336,-136.131 130.3782,-126.9743 131.4479,-118.4166"/>
<polygon fill="#000000" stroke="#000000" points="134.9309,-118.7702 132.6983,-108.4133 127.9849,-117.9019 134.9309,-118.7702"/>
<g id="a_edge6&#45;headlabel"><a xlink:href="dir_000090_000000.xhtml" target="_top" xlink:title="102">
<text text-anchor="middle" x="137.3025" y="-120.1892" font-family="Helvetica,sans-Serif" font-size="10.00" fill="#000000">102</text>
</a>
</g>
</g>
<!-- dir_10a8ee34f3d0df8ebfa752c7937ca169 -->
<g id="node2" class="node">
<title>dir_10a8ee34f3d0df8ebfa752c7937ca169</title>
<g id="a_node2"><a xlink:href="dir_10a8ee34f3d0df8ebfa752c7937ca169.xhtml" target="_top" xlink:title="CL">
<polygon fill="#ffffff" stroke="#000000" points="78,-180 24,-180 24,-144 78,-144 78,-180"/>
<text text-anchor="middle" x="51" y="-159.5" font-family="Helvetica,sans-Serif" font-size="10.00" fill="#000000">CL</text>
</a>
</g>
</g>
<!-- dir_10a8ee34f3d0df8ebfa752c7937ca169&#45;&gt;dir_214608ef36d61442cb2b0c1c4e9a7def -->
<g id="edge3" class="edge">
<title>dir_10a8ee34f3d0df8ebfa752c7937ca169&#45;&gt;dir_214608ef36d61442cb2b0c1c4e9a7def</title>
<path fill="none" stroke="#000000" d="M70.3777,-143.7675C75.9968,-138.5972 82.1858,-133.0131 88,-128 93.0066,-123.6833 98.3955,-119.1898 103.6752,-114.868"/>
<polygon fill="#000000" stroke="#000000" points="106.2502,-117.286 111.8115,-108.2681 101.8404,-111.8497 106.2502,-117.286"/>
<g id="a_edge3&#45;headlabel"><a xlink:href="dir_000091_000000.xhtml" target="_top" xlink:title="33">
<text text-anchor="middle" x="105.2472" y="-119.2555" font-family="Helvetica,sans-Serif" font-size="10.00" fill="#000000">33</text>
</a>
</g>
</g>
<!-- dir_5815af820a9cc9481f1d0990a0d60286 -->
<g id="node6" class="node">
<title>dir_5815af820a9cc9481f1d0990a0d60286</title>
<g id="a_node6"><a xlink:href="dir_5815af820a9cc9481f1d0990a0d60286.xhtml" target="_top" xlink:title="support">
<polygon fill="none" stroke="#000000" points="195,-36 141,-36 141,0 195,0 195,-36"/>
<text text-anchor="middle" x="168" y="-15.5" font-family="Helvetica,sans-Serif" font-size="10.00" fill="#000000">support</text>
</a>
</g>
</g>
<!-- dir_10a8ee34f3d0df8ebfa752c7937ca169&#45;&gt;dir_5815af820a9cc9481f1d0990a0d60286 -->
<g id="edge4" class="edge">
<title>dir_10a8ee34f3d0df8ebfa752c7937ca169&#45;&gt;dir_5815af820a9cc9481f1d0990a0d60286</title>
<path fill="none" stroke="#000000" d="M55.1216,-143.8068C60.2388,-124.3758 70.5024,-93.4815 88,-72 99.9428,-57.3381 116.9024,-45.1092 132.135,-36.0174"/>
<polygon fill="#000000" stroke="#000000" points="133.9095,-39.0346 140.8531,-31.0322 130.4347,-32.9579 133.9095,-39.0346"/>
<g id="a_edge4&#45;headlabel"><a xlink:href="dir_000091_000119.xhtml" target="_top" xlink:title="1">
<text text-anchor="middle" x="132.1985" y="-40.7836" font-family="Helvetica,sans-Serif" font-size="10.00" fill="#000000">1</text>
</a>
</g>
</g>
<!-- dir_63622b7b1e2297c4b4fb2c5afb0cb755 -->
<g id="node3" class="node">
<title>dir_63622b7b1e2297c4b4fb2c5afb0cb755</title>
<g id="a_node3"><a xlink:href="dir_63622b7b1e2297c4b4fb2c5afb0cb755.xhtml" target="_top" xlink:title="GLES">
<polygon fill="#ffffff" stroke="#000000" points="228,-180 174,-180 174,-144 228,-144 228,-180"/>
<text text-anchor="middle" x="201" y="-159.5" font-family="Helvetica,sans-Serif" font-size="10.00" fill="#000000">GLES</text>
</a>
</g>
</g>
<!-- dir_63622b7b1e2297c4b4fb2c5afb0cb755&#45;&gt;dir_214608ef36d61442cb2b0c1c4e9a7def -->
<g id="edge7" class="edge">
<title>dir_63622b7b1e2297c4b4fb2c5afb0cb755&#45;&gt;dir_214608ef36d61442cb2b0c1c4e9a7def</title>
<path fill="none" stroke="#000000" d="M184.3454,-143.8314C176.5886,-135.3694 167.2198,-125.1489 158.739,-115.8971"/>
<polygon fill="#000000" stroke="#000000" points="161.2162,-113.4198 151.8788,-108.4133 156.0561,-118.1499 161.2162,-113.4198"/>
<g id="a_edge7&#45;headlabel"><a xlink:href="dir_000092_000000.xhtml" target="_top" xlink:title="30">
<text text-anchor="middle" x="165.7381" y="-111.651" font-family="Helvetica,sans-Serif" font-size="10.00" fill="#000000">30</text>
</a>
</g>
</g>
<!-- dir_63622b7b1e2297c4b4fb2c5afb0cb755&#45;&gt;dir_5815af820a9cc9481f1d0990a0d60286 -->
<g id="edge8" class="edge">
<title>dir_63622b7b1e2297c4b4fb2c5afb0cb755&#45;&gt;dir_5815af820a9cc9481f1d0990a0d60286</title>
<path fill="none" stroke="#000000" d="M197.3861,-143.6742C193.7323,-125.4495 187.81,-96.7177 182,-72 180.0367,-63.6474 177.7555,-54.6087 175.6117,-46.3591"/>
<polygon fill="#000000" stroke="#000000" points="178.9322,-45.2237 173.0039,-36.4427 172.1624,-47.0041 178.9322,-45.2237"/>
<g id="a_edge8&#45;headlabel"><a xlink:href="dir_000092_000119.xhtml" target="_top" xlink:title="1">
<text text-anchor="middle" x="182.5923" y="-45.478" font-family="Helvetica,sans-Serif" font-size="10.00" fill="#000000">1</text>
</a>
</g>
</g>
<!-- dir_a0f71818ea2c5c08950cb56389fab822 -->
<g id="node4" class="node">
<title>dir_a0f71818ea2c5c08950cb56389fab822</title>
<g id="a_node4"><a xlink:href="dir_a0f71818ea2c5c08950cb56389fab822.xhtml" target="_top" xlink:title="NEON">
<polygon fill="#ffffff" stroke="#000000" points="300,-180 246,-180 246,-144 300,-144 300,-180"/>
<text text-anchor="middle" x="273" y="-159.5" font-family="Helvetica,sans-Serif" font-size="10.00" fill="#000000">NEON</text>
</a>
</g>
</g>
<!-- dir_a0f71818ea2c5c08950cb56389fab822&#45;&gt;dir_214608ef36d61442cb2b0c1c4e9a7def -->
<g id="edge1" class="edge">
<title>dir_a0f71818ea2c5c08950cb56389fab822&#45;&gt;dir_214608ef36d61442cb2b0c1c4e9a7def</title>
<path fill="none" stroke="#000000" d="M256.6016,-143.8683C250.8208,-138.2324 244.0067,-132.3609 237,-128 220.3497,-117.6369 200.4361,-109.431 182.6414,-103.3363"/>
<polygon fill="#000000" stroke="#000000" points="183.6006,-99.9674 173.0077,-100.1673 181.4133,-106.6169 183.6006,-99.9674"/>
<g id="a_edge1&#45;headlabel"><a xlink:href="dir_000093_000000.xhtml" target="_top" xlink:title="38">
<text text-anchor="middle" x="187.9024" y="-95.8935" font-family="Helvetica,sans-Serif" font-size="10.00" fill="#000000">38</text>
</a>
</g>
</g>
<!-- dir_a0f71818ea2c5c08950cb56389fab822&#45;&gt;dir_5815af820a9cc9481f1d0990a0d60286 -->
<g id="edge2" class="edge">
<title>dir_a0f71818ea2c5c08950cb56389fab822&#45;&gt;dir_5815af820a9cc9481f1d0990a0d60286</title>
<path fill="none" stroke="#000000" d="M259.7017,-143.7623C241.3979,-118.66 208.3242,-73.3017 187.2989,-44.4671"/>
<polygon fill="#000000" stroke="#000000" points="189.9101,-42.1076 181.1903,-36.0896 184.2541,-46.2318 189.9101,-42.1076"/>
<g id="a_edge2&#45;headlabel"><a xlink:href="dir_000093_000119.xhtml" target="_top" xlink:title="2">
<text text-anchor="middle" x="194.3221" y="-40.8392" font-family="Helvetica,sans-Serif" font-size="10.00" fill="#000000">2</text>
</a>
</g>
</g>
<!-- dir_214608ef36d61442cb2b0c1c4e9a7def&#45;&gt;dir_5815af820a9cc9481f1d0990a0d60286 -->
<g id="edge5" class="edge">
<title>dir_214608ef36d61442cb2b0c1c4e9a7def&#45;&gt;dir_5815af820a9cc9481f1d0990a0d60286</title>
<path fill="none" stroke="#000000" d="M143.3273,-71.8314C146.973,-63.8771 151.3309,-54.369 155.3627,-45.5723"/>
<polygon fill="#000000" stroke="#000000" points="158.5757,-46.9622 159.5606,-36.4133 152.2123,-44.0456 158.5757,-46.9622"/>
<g id="a_edge5&#45;headlabel"><a xlink:href="dir_000000_000119.xhtml" target="_top" xlink:title="20">
<text text-anchor="middle" x="159.6591" y="-48.9129" font-family="Helvetica,sans-Serif" font-size="10.00" fill="#000000">20</text>
</a>
</g>
</g>
</g>
</svg>
