<?xml version="1.0" encoding="UTF-8" standalone="no"?>
<!DOCTYPE svg PUBLIC "-//W3C//DTD SVG 1.1//EN"
 "http://www.w3.org/Graphics/SVG/1.1/DTD/svg11.dtd">
<!-- Generated by graphviz version 2.40.1 (20161225.0304)
 -->
<!-- Title: tests/framework/instruments Pages: 1 -->
<svg width="108pt" height="151pt"
 viewBox="0.00 0.00 108.00 151.00" xmlns="http://www.w3.org/2000/svg" xmlns:xlink="http://www.w3.org/1999/xlink">
<g id="graph0" class="graph" transform="scale(1 1) rotate(0) translate(4 147)">
<title>tests/framework/instruments</title>
<polygon fill="#ffffff" stroke="transparent" points="-4,4 -4,-147 104,-147 104,4 -4,4"/>
<g id="clust1" class="cluster">
<title>clusterdir_9e71e2da941d3cafc4d98a9f6ae3de4f</title>
<g id="a_clust1"><a xlink:href="dir_9e71e2da941d3cafc4d98a9f6ae3de4f.xhtml" target="_top" xlink:title="framework">
<polygon fill="#ddddee" stroke="#000000" points="8,-64 8,-135 92,-135 92,-64 8,-64"/>
<text text-anchor="middle" x="50" y="-123" font-family="Helvetica,sans-Serif" font-size="10.00" fill="#000000">framework</text>
</a>
</g>
</g>
<!-- dir_4efd0ee2ecda32567e74991b08d544ea -->
<g id="node1" class="node">
<title>dir_4efd0ee2ecda32567e74991b08d544ea</title>
<g id="a_node1"><a xlink:href="dir_4efd0ee2ecda32567e74991b08d544ea.xhtml" target="_top" xlink:title="instruments">
<polygon fill="#eeeeff" stroke="#000000" points="84,-108 16,-108 16,-72 84,-72 84,-108"/>
<text text-anchor="middle" x="50" y="-87.5" font-family="Helvetica,sans-Serif" font-size="10.00" fill="#000000">instruments</text>
</a>
</g>
</g>
<!-- dir_214608ef36d61442cb2b0c1c4e9a7def -->
<g id="node2" class="node">
<title>dir_214608ef36d61442cb2b0c1c4e9a7def</title>
<g id="a_node2"><a xlink:href="dir_214608ef36d61442cb2b0c1c4e9a7def.xhtml" target="_top" xlink:title="arm_compute">
<polygon fill="#ffffff" stroke="#ff0000" points="88,-36 12,-36 12,0 88,0 88,-36"/>
<text text-anchor="middle" x="50" y="-15.5" font-family="Helvetica,sans-Serif" font-size="10.00" fill="#000000">arm_compute</text>
</a>
</g>
</g>
<!-- dir_4efd0ee2ecda32567e74991b08d544ea&#45;&gt;dir_214608ef36d61442cb2b0c1c4e9a7def -->
<g id="edge1" class="edge">
<title>dir_4efd0ee2ecda32567e74991b08d544ea&#45;&gt;dir_214608ef36d61442cb2b0c1c4e9a7def</title>
<path fill="none" stroke="#000000" d="M50,-71.8314C50,-64.131 50,-54.9743 50,-46.4166"/>
<polygon fill="#000000" stroke="#000000" points="53.5001,-46.4132 50,-36.4133 46.5001,-46.4133 53.5001,-46.4132"/>
<g id="a_edge1&#45;headlabel"><a xlink:href="dir_000125_000000.xhtml" target="_top" xlink:title="13">
<text text-anchor="middle" x="56.3393" y="-47.5079" font-family="Helvetica,sans-Serif" font-size="10.00" fill="#000000">13</text>
</a>
</g>
</g>
</g>
</svg>
