<?xml version="1.0" encoding="UTF-8" standalone="no"?>
<!DOCTYPE svg PUBLIC "-//W3C//DTD SVG 1.1//EN"
 "http://www.w3.org/Graphics/SVG/1.1/DTD/svg11.dtd">
<!-- Generated by graphviz version 2.38.0 (20140413.2041)
 -->
<!-- Title: tests/validation/NEON Pages: 1 -->
<svg width="251pt" height="375pt"
 viewBox="0.00 0.00 250.99 375.00" xmlns="http://www.w3.org/2000/svg" xmlns:xlink="http://www.w3.org/1999/xlink">
<g id="graph0" class="graph" transform="scale(1 1) rotate(0) translate(4 371)">
<title>tests/validation/NEON</title>
<polygon fill="white" stroke="none" points="-4,4 -4,-371 246.995,-371 246.995,4 -4,4"/>
<g id="clust1" class="cluster"><title>clusterdir_e7c7b16542faa38cb4655ff1750d3604</title>
<g id="a_clust1"><a xlink:href="dir_e7c7b16542faa38cb4655ff1750d3604.xhtml" target="_top" xlink:title="validation">
<polygon fill="#ddddee" stroke="black" points="67.0385,-272 67.0385,-359 225.039,-359 225.039,-272 67.0385,-272"/>
<text text-anchor="middle" x="146.039" y="-347" font-family="Helvetica,sans-Serif" font-size="10.00">validation</text>
</a>
</g>
</g>
<g id="clust2" class="cluster"><title>clusterdir_0538a82dae0483a21d0f1e9d7e0a45c6</title>
<g id="a_clust2"><a xlink:href="dir_0538a82dae0483a21d0f1e9d7e0a45c6.xhtml" target="_top">
<polygon fill="#eeeeff" stroke="black" points="75.0385,-280 75.0385,-332 217.039,-332 217.039,-280 75.0385,-280"/>
</a>
</g>
</g>
<!-- dir_0538a82dae0483a21d0f1e9d7e0a45c6 -->
<g id="node1" class="node"><title>dir_0538a82dae0483a21d0f1e9d7e0a45c6</title>
<text text-anchor="middle" x="182.039" y="-303.5" font-family="Helvetica,sans-Serif" font-size="10.00">NEON</text>
</g>
<!-- dir_46fdb196cebdbffe77dac340cde62f29 -->
<g id="node3" class="node"><title>dir_46fdb196cebdbffe77dac340cde62f29</title>
<g id="a_node3"><a xlink:href="dir_46fdb196cebdbffe77dac340cde62f29.xhtml" target="_top" xlink:title="reference">
<polygon fill="none" stroke="black" points="213.039,-252 151.039,-252 151.039,-216 213.039,-216 213.039,-252"/>
<text text-anchor="middle" x="182.039" y="-231.5" font-family="Helvetica,sans-Serif" font-size="10.00">reference</text>
</a>
</g>
</g>
<!-- dir_0538a82dae0483a21d0f1e9d7e0a45c6&#45;&gt;dir_46fdb196cebdbffe77dac340cde62f29 -->
<g id="edge14" class="edge"><title>dir_0538a82dae0483a21d0f1e9d7e0a45c6&#45;&gt;dir_46fdb196cebdbffe77dac340cde62f29</title>
<path fill="none" stroke="black" d="M182.039,-287.697C182.039,-279.983 182.039,-270.712 182.039,-262.112"/>
<polygon fill="black" stroke="black" points="185.539,-262.104 182.039,-252.104 178.539,-262.104 185.539,-262.104"/>
<g id="a_edge14&#45;headlabel"><a xlink:href="dir_000122_000033.xhtml" target="_top" xlink:title="3">
<text text-anchor="middle" x="188.378" y="-263.199" font-family="Helvetica,sans-Serif" font-size="10.00">3</text>
</a>
</g>
</g>
<!-- dir_445738e6fed662d0b65e690e3f1e1de0 -->
<g id="node4" class="node"><title>dir_445738e6fed662d0b65e690e3f1e1de0</title>
<g id="a_node4"><a xlink:href="dir_445738e6fed662d0b65e690e3f1e1de0.xhtml" target="_top" xlink:title="NEON">
<polygon fill="none" stroke="black" points="95.0385,-252 41.0385,-252 41.0385,-216 95.0385,-216 95.0385,-252"/>
<text text-anchor="middle" x="68.0385" y="-231.5" font-family="Helvetica,sans-Serif" font-size="10.00">NEON</text>
</a>
</g>
</g>
<!-- dir_0538a82dae0483a21d0f1e9d7e0a45c6&#45;&gt;dir_445738e6fed662d0b65e690e3f1e1de0 -->
<g id="edge15" class="edge"><title>dir_0538a82dae0483a21d0f1e9d7e0a45c6&#45;&gt;dir_445738e6fed662d0b65e690e3f1e1de0</title>
<path fill="none" stroke="black" d="M165.342,-287.767C159.541,-282.322 152.791,-276.545 146.039,-272 133.232,-263.38 118.104,-255.707 104.596,-249.614"/>
<polygon fill="black" stroke="black" points="105.667,-246.263 95.1021,-245.466 102.864,-252.677 105.667,-246.263"/>
<g id="a_edge15&#45;headlabel"><a xlink:href="dir_000122_000153.xhtml" target="_top" xlink:title="139">
<text text-anchor="middle" x="110.098" y="-242.6" font-family="Helvetica,sans-Serif" font-size="10.00">139</text>
</a>
</g>
</g>
<!-- dir_9e71e2da941d3cafc4d98a9f6ae3de4f -->
<g id="node5" class="node"><title>dir_9e71e2da941d3cafc4d98a9f6ae3de4f</title>
<g id="a_node5"><a xlink:href="dir_9e71e2da941d3cafc4d98a9f6ae3de4f.xhtml" target="_top" xlink:title="framework">
<polygon fill="white" stroke="red" points="201.539,-180 134.539,-180 134.539,-144 201.539,-144 201.539,-180"/>
<text text-anchor="middle" x="168.039" y="-159.5" font-family="Helvetica,sans-Serif" font-size="10.00">framework</text>
</a>
</g>
</g>
<!-- dir_0538a82dae0483a21d0f1e9d7e0a45c6&#45;&gt;dir_9e71e2da941d3cafc4d98a9f6ae3de4f -->
<g id="edge16" class="edge"><title>dir_0538a82dae0483a21d0f1e9d7e0a45c6&#45;&gt;dir_9e71e2da941d3cafc4d98a9f6ae3de4f</title>
<path fill="none" stroke="black" d="M199.772,-287.599C208.277,-277.998 217.571,-265.336 222.039,-252 227.121,-236.829 228.23,-230.753 222.039,-216 217.399,-204.945 209.204,-195.037 200.579,-186.862"/>
<polygon fill="black" stroke="black" points="202.779,-184.136 192.967,-180.139 198.145,-189.382 202.779,-184.136"/>
<g id="a_edge16&#45;headlabel"><a xlink:href="dir_000122_000032.xhtml" target="_top" xlink:title="360">
<text text-anchor="middle" x="207.353" y="-181.887" font-family="Helvetica,sans-Serif" font-size="10.00">360</text>
</a>
</g>
</g>
<!-- dir_214608ef36d61442cb2b0c1c4e9a7def -->
<g id="node6" class="node"><title>dir_214608ef36d61442cb2b0c1c4e9a7def</title>
<g id="a_node6"><a xlink:href="dir_214608ef36d61442cb2b0c1c4e9a7def.xhtml" target="_top" xlink:title="arm_compute">
<polygon fill="white" stroke="red" points="140.039,-108 56.0385,-108 56.0385,-72 140.039,-72 140.039,-108"/>
<text text-anchor="middle" x="98.0385" y="-87.5" font-family="Helvetica,sans-Serif" font-size="10.00">arm_compute</text>
</a>
</g>
</g>
<!-- dir_0538a82dae0483a21d0f1e9d7e0a45c6&#45;&gt;dir_214608ef36d61442cb2b0c1c4e9a7def -->
<g id="edge17" class="edge"><title>dir_0538a82dae0483a21d0f1e9d7e0a45c6&#45;&gt;dir_214608ef36d61442cb2b0c1c4e9a7def</title>
<path fill="none" stroke="black" d="M208.618,-287.912C220.275,-278.81 232.724,-266.494 239.039,-252 245.429,-237.332 242.083,-231.708 239.039,-216 232.474,-182.132 233.701,-169.104 210.039,-144 193.724,-126.692 170.61,-114.448 149.613,-106.123"/>
<polygon fill="black" stroke="black" points="150.739,-102.807 140.147,-102.569 148.279,-109.36 150.739,-102.807"/>
<g id="a_edge17&#45;headlabel"><a xlink:href="dir_000122_000000.xhtml" target="_top" xlink:title="482">
<text text-anchor="middle" x="155.102" y="-98.9121" font-family="Helvetica,sans-Serif" font-size="10.00">482</text>
</a>
</g>
</g>
<!-- dir_6fc87decd8cffc07e5f49c197ca3de10 -->
<g id="node2" class="node"><title>dir_6fc87decd8cffc07e5f49c197ca3de10</title>
<g id="a_node2"><a xlink:href="dir_6fc87decd8cffc07e5f49c197ca3de10.xhtml" target="_top" xlink:title="UNIT">
<polygon fill="white" stroke="black" points="137.039,-324 83.0385,-324 83.0385,-288 137.039,-288 137.039,-324"/>
<text text-anchor="middle" x="110.039" y="-303.5" font-family="Helvetica,sans-Serif" font-size="10.00">UNIT</text>
</a>
</g>
</g>
<!-- dir_6fc87decd8cffc07e5f49c197ca3de10&#45;&gt;dir_46fdb196cebdbffe77dac340cde62f29 -->
<g id="edge4" class="edge"><title>dir_6fc87decd8cffc07e5f49c197ca3de10&#45;&gt;dir_46fdb196cebdbffe77dac340cde62f29</title>
<path fill="none" stroke="black" d="M127.836,-287.697C136.643,-279.135 147.421,-268.656 157.04,-259.304"/>
<polygon fill="black" stroke="black" points="159.715,-261.585 164.446,-252.104 154.836,-256.566 159.715,-261.585"/>
<g id="a_edge4&#45;headlabel"><a xlink:href="dir_000149_000033.xhtml" target="_top" xlink:title="1">
<text text-anchor="middle" x="159.117" y="-263.626" font-family="Helvetica,sans-Serif" font-size="10.00">1</text>
</a>
</g>
</g>
<!-- dir_6fc87decd8cffc07e5f49c197ca3de10&#45;&gt;dir_445738e6fed662d0b65e690e3f1e1de0 -->
<g id="edge5" class="edge"><title>dir_6fc87decd8cffc07e5f49c197ca3de10&#45;&gt;dir_445738e6fed662d0b65e690e3f1e1de0</title>
<path fill="none" stroke="black" d="M99.6565,-287.697C94.7739,-279.559 88.852,-269.689 83.4593,-260.701"/>
<polygon fill="black" stroke="black" points="86.4474,-258.879 78.3011,-252.104 80.4449,-262.48 86.4474,-258.879"/>
<g id="a_edge5&#45;headlabel"><a xlink:href="dir_000149_000153.xhtml" target="_top" xlink:title="1">
<text text-anchor="middle" x="90.7314" y="-258" font-family="Helvetica,sans-Serif" font-size="10.00">1</text>
</a>
</g>
</g>
<!-- dir_6fc87decd8cffc07e5f49c197ca3de10&#45;&gt;dir_9e71e2da941d3cafc4d98a9f6ae3de4f -->
<g id="edge6" class="edge"><title>dir_6fc87decd8cffc07e5f49c197ca3de10&#45;&gt;dir_9e71e2da941d3cafc4d98a9f6ae3de4f</title>
<path fill="none" stroke="black" d="M115.618,-287.721C121.606,-269.628 131.665,-240.494 142.039,-216 145.756,-207.223 150.203,-197.829 154.36,-189.424"/>
<polygon fill="black" stroke="black" points="157.512,-190.947 158.876,-180.44 151.257,-187.803 157.512,-190.947"/>
<g id="a_edge6&#45;headlabel"><a xlink:href="dir_000149_000032.xhtml" target="_top" xlink:title="4">
<text text-anchor="middle" x="158.435" y="-192.934" font-family="Helvetica,sans-Serif" font-size="10.00">4</text>
</a>
</g>
</g>
<!-- dir_6fc87decd8cffc07e5f49c197ca3de10&#45;&gt;dir_214608ef36d61442cb2b0c1c4e9a7def -->
<g id="edge7" class="edge"><title>dir_6fc87decd8cffc07e5f49c197ca3de10&#45;&gt;dir_214608ef36d61442cb2b0c1c4e9a7def</title>
<path fill="none" stroke="black" d="M82.7268,-294.51C64.7684,-286.008 42.688,-272.112 32.0385,-252 7.53799,-205.731 46.4612,-148.319 74.1615,-116.058"/>
<polygon fill="black" stroke="black" points="76.9134,-118.23 80.9167,-108.42 71.67,-113.592 76.9134,-118.23"/>
<g id="a_edge7&#45;headlabel"><a xlink:href="dir_000149_000000.xhtml" target="_top" xlink:title="13">
<text text-anchor="middle" x="76.6588" y="-120.303" font-family="Helvetica,sans-Serif" font-size="10.00">13</text>
</a>
</g>
</g>
<!-- dir_5815af820a9cc9481f1d0990a0d60286 -->
<g id="node7" class="node"><title>dir_5815af820a9cc9481f1d0990a0d60286</title>
<g id="a_node7"><a xlink:href="dir_5815af820a9cc9481f1d0990a0d60286.xhtml" target="_top" xlink:title="support">
<polygon fill="none" stroke="black" points="125.039,-36 71.0385,-36 71.0385,-0 125.039,-0 125.039,-36"/>
<text text-anchor="middle" x="98.0385" y="-15.5" font-family="Helvetica,sans-Serif" font-size="10.00">support</text>
</a>
</g>
</g>
<!-- dir_6fc87decd8cffc07e5f49c197ca3de10&#45;&gt;dir_5815af820a9cc9481f1d0990a0d60286 -->
<g id="edge8" class="edge"><title>dir_6fc87decd8cffc07e5f49c197ca3de10&#45;&gt;dir_5815af820a9cc9481f1d0990a0d60286</title>
<path fill="none" stroke="black" d="M82.9056,-297.015C61.8818,-289.238 34.1904,-275.139 21.0385,-252 1.68398,-217.948 -20.1409,-178.957 36.0385,-72 42.2736,-60.1294 52.3783,-49.7893 62.6371,-41.4715"/>
<polygon fill="black" stroke="black" points="64.9852,-44.0829 70.8264,-35.2438 60.748,-38.5111 64.9852,-44.0829"/>
<g id="a_edge8&#45;headlabel"><a xlink:href="dir_000149_000150.xhtml" target="_top" xlink:title="2">
<text text-anchor="middle" x="63.8426" y="-46.0188" font-family="Helvetica,sans-Serif" font-size="10.00">2</text>
</a>
</g>
</g>
<!-- dir_46fdb196cebdbffe77dac340cde62f29&#45;&gt;dir_9e71e2da941d3cafc4d98a9f6ae3de4f -->
<g id="edge1" class="edge"><title>dir_46fdb196cebdbffe77dac340cde62f29&#45;&gt;dir_9e71e2da941d3cafc4d98a9f6ae3de4f</title>
<path fill="none" stroke="black" d="M178.578,-215.697C177.035,-207.983 175.181,-198.712 173.461,-190.112"/>
<polygon fill="black" stroke="black" points="176.853,-189.224 171.459,-180.104 169.989,-190.597 176.853,-189.224"/>
<g id="a_edge1&#45;headlabel"><a xlink:href="dir_000033_000032.xhtml" target="_top" xlink:title="3">
<text text-anchor="middle" x="180.342" y="-189.692" font-family="Helvetica,sans-Serif" font-size="10.00">3</text>
</a>
</g>
</g>
<!-- dir_46fdb196cebdbffe77dac340cde62f29&#45;&gt;dir_214608ef36d61442cb2b0c1c4e9a7def -->
<g id="edge2" class="edge"><title>dir_46fdb196cebdbffe77dac340cde62f29&#45;&gt;dir_214608ef36d61442cb2b0c1c4e9a7def</title>
<path fill="none" stroke="black" d="M158.427,-215.899C146.906,-206.468 133.698,-193.869 125.039,-180 113.188,-161.02 106.256,-136.51 102.39,-118.018"/>
<polygon fill="black" stroke="black" points="105.823,-117.336 100.499,-108.176 98.9482,-118.657 105.823,-117.336"/>
<g id="a_edge2&#45;headlabel"><a xlink:href="dir_000033_000000.xhtml" target="_top" xlink:title="86">
<text text-anchor="middle" x="109.289" y="-117.831" font-family="Helvetica,sans-Serif" font-size="10.00">86</text>
</a>
</g>
</g>
<!-- dir_46fdb196cebdbffe77dac340cde62f29&#45;&gt;dir_5815af820a9cc9481f1d0990a0d60286 -->
<g id="edge3" class="edge"><title>dir_46fdb196cebdbffe77dac340cde62f29&#45;&gt;dir_5815af820a9cc9481f1d0990a0d60286</title>
<path fill="none" stroke="black" d="M193.926,-215.725C200.051,-205.765 206.883,-192.727 210.039,-180 213.889,-164.47 214.052,-159.488 210.039,-144 200.856,-108.564 194.222,-99.4807 170.039,-72 159.624,-60.1659 146.141,-49.3798 133.663,-40.6728"/>
<polygon fill="black" stroke="black" points="135.483,-37.6786 125.235,-34.9897 131.569,-43.4824 135.483,-37.6786"/>
<g id="a_edge3&#45;headlabel"><a xlink:href="dir_000033_000150.xhtml" target="_top" xlink:title="2">
<text text-anchor="middle" x="140.05" y="-34.8342" font-family="Helvetica,sans-Serif" font-size="10.00">2</text>
</a>
</g>
</g>
<!-- dir_445738e6fed662d0b65e690e3f1e1de0&#45;&gt;dir_214608ef36d61442cb2b0c1c4e9a7def -->
<g id="edge9" class="edge"><title>dir_445738e6fed662d0b65e690e3f1e1de0&#45;&gt;dir_214608ef36d61442cb2b0c1c4e9a7def</title>
<path fill="none" stroke="black" d="M71.6572,-215.871C76.7927,-191.564 86.2459,-146.819 92.3315,-118.013"/>
<polygon fill="black" stroke="black" points="95.7643,-118.697 94.407,-108.189 88.9155,-117.25 95.7643,-118.697"/>
<g id="a_edge9&#45;headlabel"><a xlink:href="dir_000153_000000.xhtml" target="_top" xlink:title="6">
<text text-anchor="middle" x="97.7993" y="-120.301" font-family="Helvetica,sans-Serif" font-size="10.00">6</text>
</a>
</g>
</g>
<!-- dir_445738e6fed662d0b65e690e3f1e1de0&#45;&gt;dir_5815af820a9cc9481f1d0990a0d60286 -->
<g id="edge10" class="edge"><title>dir_445738e6fed662d0b65e690e3f1e1de0&#45;&gt;dir_5815af820a9cc9481f1d0990a0d60286</title>
<path fill="none" stroke="black" d="M60.3841,-215.843C48.0613,-185.62 27.125,-121.414 47.0385,-72 51.3872,-61.209 59.1003,-51.3859 67.2323,-43.2085"/>
<polygon fill="black" stroke="black" points="69.8288,-45.572 74.7336,-36.1808 65.0429,-40.4636 69.8288,-45.572"/>
<g id="a_edge10&#45;headlabel"><a xlink:href="dir_000153_000150.xhtml" target="_top" xlink:title="1">
<text text-anchor="middle" x="69.1468" y="-47.6016" font-family="Helvetica,sans-Serif" font-size="10.00">1</text>
</a>
</g>
</g>
<!-- dir_9e71e2da941d3cafc4d98a9f6ae3de4f&#45;&gt;dir_214608ef36d61442cb2b0c1c4e9a7def -->
<g id="edge11" class="edge"><title>dir_9e71e2da941d3cafc4d98a9f6ae3de4f&#45;&gt;dir_214608ef36d61442cb2b0c1c4e9a7def</title>
<path fill="none" stroke="black" d="M150.735,-143.697C142.174,-135.135 131.695,-124.656 122.343,-115.304"/>
<polygon fill="black" stroke="black" points="124.689,-112.701 115.143,-108.104 119.739,-117.65 124.689,-112.701"/>
<g id="a_edge11&#45;headlabel"><a xlink:href="dir_000032_000000.xhtml" target="_top" xlink:title="14">
<text text-anchor="middle" x="129.238" y="-110.735" font-family="Helvetica,sans-Serif" font-size="10.00">14</text>
</a>
</g>
</g>
<!-- dir_9e71e2da941d3cafc4d98a9f6ae3de4f&#45;&gt;dir_5815af820a9cc9481f1d0990a0d60286 -->
<g id="edge12" class="edge"><title>dir_9e71e2da941d3cafc4d98a9f6ae3de4f&#45;&gt;dir_5815af820a9cc9481f1d0990a0d60286</title>
<path fill="none" stroke="black" d="M167.178,-143.985C165.625,-125.341 161.267,-95.0232 149.039,-72 143.386,-61.3586 134.972,-51.3613 126.6,-42.979"/>
<polygon fill="black" stroke="black" points="128.98,-40.4124 119.324,-36.0529 124.154,-45.4827 128.98,-40.4124"/>
<g id="a_edge12&#45;headlabel"><a xlink:href="dir_000032_000150.xhtml" target="_top" xlink:title="7">
<text text-anchor="middle" x="133.541" y="-38.3342" font-family="Helvetica,sans-Serif" font-size="10.00">7</text>
</a>
</g>
</g>
<!-- dir_214608ef36d61442cb2b0c1c4e9a7def&#45;&gt;dir_5815af820a9cc9481f1d0990a0d60286 -->
<g id="edge13" class="edge"><title>dir_214608ef36d61442cb2b0c1c4e9a7def&#45;&gt;dir_5815af820a9cc9481f1d0990a0d60286</title>
<path fill="none" stroke="black" d="M98.0385,-71.6966C98.0385,-63.9827 98.0385,-54.7125 98.0385,-46.1124"/>
<polygon fill="black" stroke="black" points="101.539,-46.1043 98.0385,-36.1043 94.5386,-46.1044 101.539,-46.1043"/>
<g id="a_edge13&#45;headlabel"><a xlink:href="dir_000000_000150.xhtml" target="_top" xlink:title="22">
<text text-anchor="middle" x="104.378" y="-47.199" font-family="Helvetica,sans-Serif" font-size="10.00">22</text>
</a>
</g>
</g>
</g>
</svg>
