<?xml version="1.0" encoding="UTF-8" standalone="no"?>
<!DOCTYPE svg PUBLIC "-//W3C//DTD SVG 1.1//EN"
 "http://www.w3.org/Graphics/SVG/1.1/DTD/svg11.dtd">
<!-- Generated by graphviz version 2.40.1 (20161225.0304)
 -->
<!-- Title: CpuConvertFullyConnectedWeightsKernel Pages: 1 -->
<svg width="283pt" height="299pt"
 viewBox="0.00 0.00 283.00 299.00" xmlns="http://www.w3.org/2000/svg" xmlns:xlink="http://www.w3.org/1999/xlink">
<g id="graph0" class="graph" transform="scale(1 1) rotate(0) translate(4 295)">
<title>CpuConvertFullyConnectedWeightsKernel</title>
<polygon fill="#ffffff" stroke="transparent" points="-4,4 -4,-295 279,-295 279,4 -4,4"/>
<!-- Node0 -->
<g id="node1" class="node">
<title>Node0</title>
<polygon fill="#bfbfbf" stroke="#000000" points="6,-.5 6,-30.5 154,-30.5 154,-.5 6,-.5"/>
<text text-anchor="start" x="14" y="-18.5" font-family="Helvetica,sans-Serif" font-size="10.00" fill="#000000">CpuConvertFullyConnected</text>
<text text-anchor="middle" x="80" y="-7.5" font-family="Helvetica,sans-Serif" font-size="10.00" fill="#000000">WeightsKernel</text>
</g>
<!-- Node1 -->
<g id="node2" class="node">
<title>Node1</title>
<g id="a_node2"><a xlink:href="classarm__compute_1_1cpu_1_1_i_cpu_kernel.xhtml" target="_top" xlink:title="ICpuKernel\&lt; CpuConvertFully\lConnectedWeightsKernel \&gt;">
<polygon fill="#ffffff" stroke="#000000" points="0,-68.5 0,-98.5 160,-98.5 160,-68.5 0,-68.5"/>
<text text-anchor="start" x="8" y="-86.5" font-family="Helvetica,sans-Serif" font-size="10.00" fill="#000000">ICpuKernel&lt; CpuConvertFully</text>
<text text-anchor="middle" x="80" y="-75.5" font-family="Helvetica,sans-Serif" font-size="10.00" fill="#000000">ConnectedWeightsKernel &gt;</text>
</a>
</g>
</g>
<!-- Node1&#45;&gt;Node0 -->
<g id="edge1" class="edge">
<title>Node1&#45;&gt;Node0</title>
<path fill="none" stroke="#191970" d="M80,-58.1174C80,-48.8378 80,-38.6413 80,-30.5492"/>
<polygon fill="#191970" stroke="#191970" points="76.5001,-58.4086 80,-68.4086 83.5001,-58.4086 76.5001,-58.4086"/>
</g>
<!-- Node2 -->
<g id="node3" class="node">
<title>Node2</title>
<g id="a_node3"><a xlink:href="classarm__compute_1_1_i_c_p_p_kernel.xhtml" target="_top" xlink:title="Common interface for all kernels implemented in C++. ">
<polygon fill="#ffffff" stroke="#000000" points="41.5,-214.5 41.5,-233.5 110.5,-233.5 110.5,-214.5 41.5,-214.5"/>
<text text-anchor="middle" x="76" y="-221.5" font-family="Helvetica,sans-Serif" font-size="10.00" fill="#000000">ICPPKernel</text>
</a>
</g>
</g>
<!-- Node2&#45;&gt;Node1 -->
<g id="edge2" class="edge">
<title>Node2&#45;&gt;Node1</title>
<path fill="none" stroke="#191970" d="M76.5685,-204.031C77.3783,-175.5886 78.8458,-124.0418 79.5709,-98.5735"/>
<polygon fill="#191970" stroke="#191970" points="73.061,-204.2473 76.2749,-214.3429 80.0582,-204.4466 73.061,-204.2473"/>
</g>
<!-- Node4 -->
<g id="node5" class="node">
<title>Node4</title>
<g id="a_node5"><a xlink:href="classarm__compute_1_1cpu_1_1_i_cpu_kernel.xhtml" target="_top" xlink:title="ICpuKernel\&lt; Derived \&gt;">
<polygon fill="#ffffff" stroke="#000000" points="92,-157.5 92,-176.5 222,-176.5 222,-157.5 92,-157.5"/>
<text text-anchor="middle" x="157" y="-164.5" font-family="Helvetica,sans-Serif" font-size="10.00" fill="#000000">ICpuKernel&lt; Derived &gt;</text>
</a>
</g>
</g>
<!-- Node2&#45;&gt;Node4 -->
<g id="edge5" class="edge">
<title>Node2&#45;&gt;Node4</title>
<path fill="none" stroke="#191970" d="M98.1611,-208.4052C112.6542,-198.2063 131.1194,-185.2123 143.4624,-176.5265"/>
<polygon fill="#191970" stroke="#191970" points="95.9044,-205.7134 89.7405,-214.3307 99.9329,-211.4381 95.9044,-205.7134"/>
</g>
<!-- Node3 -->
<g id="node4" class="node">
<title>Node3</title>
<g id="a_node4"><a xlink:href="classarm__compute_1_1_i_kernel.xhtml" target="_top" xlink:title="Common information for all the kernels. ">
<polygon fill="#ffffff" stroke="#000000" points="51,-271.5 51,-290.5 101,-290.5 101,-271.5 51,-271.5"/>
<text text-anchor="middle" x="76" y="-278.5" font-family="Helvetica,sans-Serif" font-size="10.00" fill="#000000">IKernel</text>
</a>
</g>
</g>
<!-- Node3&#45;&gt;Node2 -->
<g id="edge3" class="edge">
<title>Node3&#45;&gt;Node2</title>
<path fill="none" stroke="#191970" d="M76,-261.2342C76,-251.8491 76,-241.0651 76,-233.5265"/>
<polygon fill="#191970" stroke="#191970" points="72.5001,-261.3307 76,-271.3307 79.5001,-261.3308 72.5001,-261.3307"/>
</g>
<!-- Node4&#45;&gt;Node1 -->
<g id="edge4" class="edge">
<title>Node4&#45;&gt;Node1</title>
<path fill="none" stroke="#ffa500" stroke-dasharray="5,2" d="M141.1528,-149.815C127.2469,-134.7353 107.2219,-113.0198 93.9218,-98.597"/>
<polygon fill="#ffa500" stroke="#ffa500" points="138.8149,-152.4428 148.1671,-157.4215 143.9609,-147.6973 138.8149,-152.4428"/>
<text text-anchor="start" x="129" y="-131" font-family="Helvetica,sans-Serif" font-size="10.00" fill="#000000"> &lt; CpuConvertFullyConnected</text>
<text text-anchor="middle" x="202" y="-120" font-family="Helvetica,sans-Serif" font-size="10.00" fill="#000000">WeightsKernel &gt;</text>
</g>
</g>
</svg>
