<?xml version="1.0" encoding="UTF-8" standalone="no"?>
<!DOCTYPE svg PUBLIC "-//W3C//DTD SVG 1.1//EN"
 "http://www.w3.org/Graphics/SVG/1.1/DTD/svg11.dtd">
<!-- Generated by graphviz version 2.40.1 (20161225.0304)
 -->
<!-- Title: CpuGemmLowpMatrixAReductionKernel Pages: 1 -->
<svg width="329pt" height="299pt"
 viewBox="0.00 0.00 329.00 299.00" xmlns="http://www.w3.org/2000/svg" xmlns:xlink="http://www.w3.org/1999/xlink">
<g id="graph0" class="graph" transform="scale(1 1) rotate(0) translate(4 295)">
<title>CpuGemmLowpMatrixAReductionKernel</title>
<polygon fill="#ffffff" stroke="transparent" points="-4,4 -4,-295 325,-295 325,4 -4,4"/>
<!-- Node0 -->
<g id="node1" class="node">
<title>Node0</title>
<polygon fill="#bfbfbf" stroke="#000000" points="4.5,-.5 4.5,-30.5 183.5,-30.5 183.5,-.5 4.5,-.5"/>
<text text-anchor="start" x="12.5" y="-18.5" font-family="Helvetica,sans-Serif" font-size="10.00" fill="#000000">CpuGemmLowpMatrixAReduction</text>
<text text-anchor="middle" x="94" y="-7.5" font-family="Helvetica,sans-Serif" font-size="10.00" fill="#000000">Kernel</text>
</g>
<!-- Node1 -->
<g id="node2" class="node">
<title>Node1</title>
<g id="a_node2"><a xlink:href="classarm__compute_1_1cpu_1_1_i_cpu_kernel.xhtml" target="_top" xlink:title="ICpuKernel\&lt; CpuGemmLowpMatrix\lAReductionKernel \&gt;">
<polygon fill="#ffffff" stroke="#000000" points="0,-68.5 0,-98.5 188,-98.5 188,-68.5 0,-68.5"/>
<text text-anchor="start" x="8" y="-86.5" font-family="Helvetica,sans-Serif" font-size="10.00" fill="#000000">ICpuKernel&lt; CpuGemmLowpMatrix</text>
<text text-anchor="middle" x="94" y="-75.5" font-family="Helvetica,sans-Serif" font-size="10.00" fill="#000000">AReductionKernel &gt;</text>
</a>
</g>
</g>
<!-- Node1&#45;&gt;Node0 -->
<g id="edge1" class="edge">
<title>Node1&#45;&gt;Node0</title>
<path fill="none" stroke="#191970" d="M94,-58.1174C94,-48.8378 94,-38.6413 94,-30.5492"/>
<polygon fill="#191970" stroke="#191970" points="90.5001,-58.4086 94,-68.4086 97.5001,-58.4086 90.5001,-58.4086"/>
</g>
<!-- Node2 -->
<g id="node3" class="node">
<title>Node2</title>
<g id="a_node3"><a xlink:href="classarm__compute_1_1_i_c_p_p_kernel.xhtml" target="_top" xlink:title="Common interface for all kernels implemented in C++. ">
<polygon fill="#ffffff" stroke="#000000" points="55.5,-214.5 55.5,-233.5 124.5,-233.5 124.5,-214.5 55.5,-214.5"/>
<text text-anchor="middle" x="90" y="-221.5" font-family="Helvetica,sans-Serif" font-size="10.00" fill="#000000">ICPPKernel</text>
</a>
</g>
</g>
<!-- Node2&#45;&gt;Node1 -->
<g id="edge2" class="edge">
<title>Node2&#45;&gt;Node1</title>
<path fill="none" stroke="#191970" d="M90.5685,-204.031C91.3783,-175.5886 92.8458,-124.0418 93.5709,-98.5735"/>
<polygon fill="#191970" stroke="#191970" points="87.061,-204.2473 90.2749,-214.3429 94.0582,-204.4466 87.061,-204.2473"/>
</g>
<!-- Node4 -->
<g id="node5" class="node">
<title>Node4</title>
<g id="a_node5"><a xlink:href="classarm__compute_1_1cpu_1_1_i_cpu_kernel.xhtml" target="_top" xlink:title="ICpuKernel\&lt; Derived \&gt;">
<polygon fill="#ffffff" stroke="#000000" points="106,-157.5 106,-176.5 236,-176.5 236,-157.5 106,-157.5"/>
<text text-anchor="middle" x="171" y="-164.5" font-family="Helvetica,sans-Serif" font-size="10.00" fill="#000000">ICpuKernel&lt; Derived &gt;</text>
</a>
</g>
</g>
<!-- Node2&#45;&gt;Node4 -->
<g id="edge5" class="edge">
<title>Node2&#45;&gt;Node4</title>
<path fill="none" stroke="#191970" d="M112.1611,-208.4052C126.6542,-198.2063 145.1194,-185.2123 157.4624,-176.5265"/>
<polygon fill="#191970" stroke="#191970" points="109.9044,-205.7134 103.7405,-214.3307 113.9329,-211.4381 109.9044,-205.7134"/>
</g>
<!-- Node3 -->
<g id="node4" class="node">
<title>Node3</title>
<g id="a_node4"><a xlink:href="classarm__compute_1_1_i_kernel.xhtml" target="_top" xlink:title="Common information for all the kernels. ">
<polygon fill="#ffffff" stroke="#000000" points="65,-271.5 65,-290.5 115,-290.5 115,-271.5 65,-271.5"/>
<text text-anchor="middle" x="90" y="-278.5" font-family="Helvetica,sans-Serif" font-size="10.00" fill="#000000">IKernel</text>
</a>
</g>
</g>
<!-- Node3&#45;&gt;Node2 -->
<g id="edge3" class="edge">
<title>Node3&#45;&gt;Node2</title>
<path fill="none" stroke="#191970" d="M90,-261.2342C90,-251.8491 90,-241.0651 90,-233.5265"/>
<polygon fill="#191970" stroke="#191970" points="86.5001,-261.3307 90,-271.3307 93.5001,-261.3308 86.5001,-261.3307"/>
</g>
<!-- Node4&#45;&gt;Node1 -->
<g id="edge4" class="edge">
<title>Node4&#45;&gt;Node1</title>
<path fill="none" stroke="#ffa500" stroke-dasharray="5,2" d="M155.1528,-149.815C141.2469,-134.7353 121.2219,-113.0198 107.9218,-98.597"/>
<polygon fill="#ffa500" stroke="#ffa500" points="152.8149,-152.4428 162.1671,-157.4215 157.9609,-147.6973 152.8149,-152.4428"/>
<text text-anchor="start" x="143" y="-131" font-family="Helvetica,sans-Serif" font-size="10.00" fill="#000000"> &lt; CpuGemmLowpMatrixAReduction</text>
<text text-anchor="middle" x="232" y="-120" font-family="Helvetica,sans-Serif" font-size="10.00" fill="#000000">Kernel &gt;</text>
</g>
</g>
</svg>
