<?xml version="1.0" encoding="UTF-8" standalone="no"?>
<!DOCTYPE svg PUBLIC "-//W3C//DTD SVG 1.1//EN"
 "http://www.w3.org/Graphics/SVG/1.1/DTD/svg11.dtd">
<!-- Generated by graphviz version 2.40.1 (20161225.0304)
 -->
<!-- Title: tests/validation/NEON/UNIT Pages: 1 -->
<svg width="198pt" height="295pt"
 viewBox="0.00 0.00 197.56 295.00" xmlns="http://www.w3.org/2000/svg" xmlns:xlink="http://www.w3.org/1999/xlink">
<g id="graph0" class="graph" transform="scale(1 1) rotate(0) translate(4 291)">
<title>tests/validation/NEON/UNIT</title>
<polygon fill="#ffffff" stroke="transparent" points="-4,4 -4,-291 193.5555,-291 193.5555,4 -4,4"/>
<g id="clust1" class="cluster">
<title>clusterdir_0538a82dae0483a21d0f1e9d7e0a45c6</title>
<g id="a_clust1"><a xlink:href="dir_0538a82dae0483a21d0f1e9d7e0a45c6.xhtml" target="_top" xlink:title="NEON">
<polygon fill="#ddddee" stroke="#000000" points="83.5,-208 83.5,-279 153.5,-279 153.5,-208 83.5,-208"/>
<text text-anchor="middle" x="118.5" y="-267" font-family="Helvetica,sans-Serif" font-size="10.00" fill="#000000">NEON</text>
</a>
</g>
</g>
<!-- dir_6fc87decd8cffc07e5f49c197ca3de10 -->
<g id="node1" class="node">
<title>dir_6fc87decd8cffc07e5f49c197ca3de10</title>
<g id="a_node1"><a xlink:href="dir_6fc87decd8cffc07e5f49c197ca3de10.xhtml" target="_top" xlink:title="UNIT">
<polygon fill="#eeeeff" stroke="#000000" points="145.5,-252 91.5,-252 91.5,-216 145.5,-216 145.5,-252"/>
<text text-anchor="middle" x="118.5" y="-231.5" font-family="Helvetica,sans-Serif" font-size="10.00" fill="#000000">UNIT</text>
</a>
</g>
</g>
<!-- dir_46fdb196cebdbffe77dac340cde62f29 -->
<g id="node2" class="node">
<title>dir_46fdb196cebdbffe77dac340cde62f29</title>
<g id="a_node2"><a xlink:href="dir_46fdb196cebdbffe77dac340cde62f29.xhtml" target="_top" xlink:title="reference">
<polygon fill="none" stroke="#000000" points="63,-180 0,-180 0,-144 63,-144 63,-180"/>
<text text-anchor="middle" x="31.5" y="-159.5" font-family="Helvetica,sans-Serif" font-size="10.00" fill="#000000">reference</text>
</a>
</g>
</g>
<!-- dir_6fc87decd8cffc07e5f49c197ca3de10&#45;&gt;dir_46fdb196cebdbffe77dac340cde62f29 -->
<g id="edge3" class="edge">
<title>dir_6fc87decd8cffc07e5f49c197ca3de10&#45;&gt;dir_46fdb196cebdbffe77dac340cde62f29</title>
<path fill="none" stroke="#000000" d="M96.5462,-215.8314C85.8305,-206.9632 72.7811,-196.1637 61.191,-186.5718"/>
<polygon fill="#000000" stroke="#000000" points="63.3822,-183.8422 53.4467,-180.1628 58.9192,-189.2349 63.3822,-183.8422"/>
<g id="a_edge3&#45;headlabel"><a xlink:href="dir_000433_000013.xhtml" target="_top" xlink:title="2">
<text text-anchor="middle" x="67.9617" y="-181.4466" font-family="Helvetica,sans-Serif" font-size="10.00" fill="#000000">2</text>
</a>
</g>
</g>
<!-- dir_445738e6fed662d0b65e690e3f1e1de0 -->
<g id="node3" class="node">
<title>dir_445738e6fed662d0b65e690e3f1e1de0</title>
<g id="a_node3"><a xlink:href="dir_445738e6fed662d0b65e690e3f1e1de0.xhtml" target="_top" xlink:title="NEON">
<polygon fill="none" stroke="#000000" points="173.5,-180 119.5,-180 119.5,-144 173.5,-144 173.5,-180"/>
<text text-anchor="middle" x="146.5" y="-159.5" font-family="Helvetica,sans-Serif" font-size="10.00" fill="#000000">NEON</text>
</a>
</g>
</g>
<!-- dir_6fc87decd8cffc07e5f49c197ca3de10&#45;&gt;dir_445738e6fed662d0b65e690e3f1e1de0 -->
<g id="edge4" class="edge">
<title>dir_6fc87decd8cffc07e5f49c197ca3de10&#45;&gt;dir_445738e6fed662d0b65e690e3f1e1de0</title>
<path fill="none" stroke="#000000" d="M125.5656,-215.8314C128.626,-207.9617 132.2779,-198.5712 135.6682,-189.8533"/>
<polygon fill="#000000" stroke="#000000" points="138.9768,-191.0019 139.3393,-180.4133 132.4527,-188.4647 138.9768,-191.0019"/>
<g id="a_edge4&#45;headlabel"><a xlink:href="dir_000433_000440.xhtml" target="_top" xlink:title="3">
<text text-anchor="middle" x="140.3202" y="-192.8812" font-family="Helvetica,sans-Serif" font-size="10.00" fill="#000000">3</text>
</a>
</g>
</g>
<!-- dir_9e71e2da941d3cafc4d98a9f6ae3de4f -->
<g id="node4" class="node">
<title>dir_9e71e2da941d3cafc4d98a9f6ae3de4f</title>
<g id="a_node4"><a xlink:href="dir_9e71e2da941d3cafc4d98a9f6ae3de4f.xhtml" target="_top" xlink:title="framework">
<polygon fill="#ffffff" stroke="#ff0000" points="126.5,-108 56.5,-108 56.5,-72 126.5,-72 126.5,-108"/>
<text text-anchor="middle" x="91.5" y="-87.5" font-family="Helvetica,sans-Serif" font-size="10.00" fill="#000000">framework</text>
</a>
</g>
</g>
<!-- dir_6fc87decd8cffc07e5f49c197ca3de10&#45;&gt;dir_9e71e2da941d3cafc4d98a9f6ae3de4f -->
<g id="edge5" class="edge">
<title>dir_6fc87decd8cffc07e5f49c197ca3de10&#45;&gt;dir_9e71e2da941d3cafc4d98a9f6ae3de4f</title>
<path fill="none" stroke="#000000" d="M115.0804,-215.7623C110.4549,-191.0928 102.1612,-146.8598 96.745,-117.9731"/>
<polygon fill="#000000" stroke="#000000" points="100.1748,-117.2733 94.8918,-108.0896 93.2947,-118.5634 100.1748,-117.2733"/>
<g id="a_edge5&#45;headlabel"><a xlink:href="dir_000433_000037.xhtml" target="_top" xlink:title="9">
<text text-anchor="middle" x="103.6278" y="-117.7831" font-family="Helvetica,sans-Serif" font-size="10.00" fill="#000000">9</text>
</a>
</g>
</g>
<!-- dir_214608ef36d61442cb2b0c1c4e9a7def -->
<g id="node5" class="node">
<title>dir_214608ef36d61442cb2b0c1c4e9a7def</title>
<g id="a_node5"><a xlink:href="dir_214608ef36d61442cb2b0c1c4e9a7def.xhtml" target="_top" xlink:title="arm_compute">
<polygon fill="#ffffff" stroke="#ff0000" points="164.5,-36 80.5,-36 80.5,0 164.5,0 164.5,-36"/>
<text text-anchor="middle" x="122.5" y="-15.5" font-family="Helvetica,sans-Serif" font-size="10.00" fill="#000000">arm_compute</text>
</a>
</g>
</g>
<!-- dir_6fc87decd8cffc07e5f49c197ca3de10&#45;&gt;dir_214608ef36d61442cb2b0c1c4e9a7def -->
<g id="edge6" class="edge">
<title>dir_6fc87decd8cffc07e5f49c197ca3de10&#45;&gt;dir_214608ef36d61442cb2b0c1c4e9a7def</title>
<path fill="none" stroke="#000000" d="M145.6093,-218.9972C159.4042,-209.7409 174.8425,-196.4801 182.5,-180 204.0787,-133.5594 170.1828,-77.0033 145.2121,-44.4835"/>
<polygon fill="#000000" stroke="#000000" points="147.7322,-42.0283 138.7776,-36.3656 142.2465,-46.3765 147.7322,-42.0283"/>
<g id="a_edge6&#45;headlabel"><a xlink:href="dir_000433_000000.xhtml" target="_top" xlink:title="23">
<text text-anchor="middle" x="152.1901" y="-40.5817" font-family="Helvetica,sans-Serif" font-size="10.00" fill="#000000">23</text>
</a>
</g>
</g>
<!-- dir_46fdb196cebdbffe77dac340cde62f29&#45;&gt;dir_9e71e2da941d3cafc4d98a9f6ae3de4f -->
<g id="edge1" class="edge">
<title>dir_46fdb196cebdbffe77dac340cde62f29&#45;&gt;dir_9e71e2da941d3cafc4d98a9f6ae3de4f</title>
<path fill="none" stroke="#000000" d="M46.6405,-143.8314C53.6217,-135.454 62.0391,-125.3531 69.6876,-116.1749"/>
<polygon fill="#000000" stroke="#000000" points="72.4425,-118.3362 76.1556,-108.4133 67.0649,-113.8548 72.4425,-118.3362"/>
<g id="a_edge1&#45;headlabel"><a xlink:href="dir_000013_000037.xhtml" target="_top" xlink:title="2">
<text text-anchor="middle" x="72.3225" y="-120.4152" font-family="Helvetica,sans-Serif" font-size="10.00" fill="#000000">2</text>
</a>
</g>
</g>
<!-- dir_46fdb196cebdbffe77dac340cde62f29&#45;&gt;dir_214608ef36d61442cb2b0c1c4e9a7def -->
<g id="edge2" class="edge">
<title>dir_46fdb196cebdbffe77dac340cde62f29&#45;&gt;dir_214608ef36d61442cb2b0c1c4e9a7def</title>
<path fill="none" stroke="#000000" d="M30.8485,-143.667C31.0083,-124.3974 33.7295,-93.8982 47.5,-72 55.0603,-59.9775 66.3589,-49.813 77.9068,-41.659"/>
<polygon fill="#000000" stroke="#000000" points="79.9152,-44.5268 86.3096,-36.0792 76.0428,-38.6954 79.9152,-44.5268"/>
<g id="a_edge2&#45;headlabel"><a xlink:href="dir_000013_000000.xhtml" target="_top" xlink:title="82">
<text text-anchor="middle" x="78.4913" y="-46.3805" font-family="Helvetica,sans-Serif" font-size="10.00" fill="#000000">82</text>
</a>
</g>
</g>
<!-- dir_445738e6fed662d0b65e690e3f1e1de0&#45;&gt;dir_214608ef36d61442cb2b0c1c4e9a7def -->
<g id="edge7" class="edge">
<title>dir_445738e6fed662d0b65e690e3f1e1de0&#45;&gt;dir_214608ef36d61442cb2b0c1c4e9a7def</title>
<path fill="none" stroke="#000000" d="M144.9106,-143.9792C143.1588,-125.7442 139.9826,-96.7839 135.5,-72 133.9795,-63.5934 131.9545,-54.5381 129.9562,-46.2899"/>
<polygon fill="#000000" stroke="#000000" points="133.3005,-45.2358 127.4794,-36.3834 126.5095,-46.9337 133.3005,-45.2358"/>
<g id="a_edge7&#45;headlabel"><a xlink:href="dir_000440_000000.xhtml" target="_top" xlink:title="6">
<text text-anchor="middle" x="136.9268" y="-45.5344" font-family="Helvetica,sans-Serif" font-size="10.00" fill="#000000">6</text>
</a>
</g>
</g>
<!-- dir_9e71e2da941d3cafc4d98a9f6ae3de4f&#45;&gt;dir_214608ef36d61442cb2b0c1c4e9a7def -->
<g id="edge8" class="edge">
<title>dir_9e71e2da941d3cafc4d98a9f6ae3de4f&#45;&gt;dir_214608ef36d61442cb2b0c1c4e9a7def</title>
<path fill="none" stroke="#000000" d="M99.3226,-71.8314C102.7109,-63.9617 106.7541,-54.5712 110.5076,-45.8533"/>
<polygon fill="#000000" stroke="#000000" points="113.8321,-46.9822 114.5721,-36.4133 107.4027,-44.214 113.8321,-46.9822"/>
<g id="a_edge8&#45;headlabel"><a xlink:href="dir_000037_000000.xhtml" target="_top" xlink:title="16">
<text text-anchor="middle" x="115.0185" y="-48.9066" font-family="Helvetica,sans-Serif" font-size="10.00" fill="#000000">16</text>
</a>
</g>
</g>
</g>
</svg>
