<?xml version="1.0" encoding="UTF-8" standalone="no"?>
<!DOCTYPE svg PUBLIC "-//W3C//DTD SVG 1.1//EN"
 "http://www.w3.org/Graphics/SVG/1.1/DTD/svg11.dtd">
<!-- Generated by graphviz version 2.40.1 (20161225.0304)
 -->
<!-- Title: src/core/NEON/kernels/arm_conv/depthwise/interleaves Pages: 1 -->
<svg width="125pt" height="223pt"
 viewBox="0.00 0.00 124.50 223.00" xmlns="http://www.w3.org/2000/svg" xmlns:xlink="http://www.w3.org/1999/xlink">
<g id="graph0" class="graph" transform="scale(1 1) rotate(0) translate(4 219)">
<title>src/core/NEON/kernels/arm_conv/depthwise/interleaves</title>
<polygon fill="#ffffff" stroke="transparent" points="-4,4 -4,-219 120.5,-219 120.5,4 -4,4"/>
<g id="clust1" class="cluster">
<title>clusterdir_abb214ad2a926c78a0f27cabc6cb4a00</title>
<g id="a_clust1"><a xlink:href="dir_abb214ad2a926c78a0f27cabc6cb4a00.xhtml" target="_top" xlink:title="depthwise">
<polygon fill="#ddddee" stroke="#000000" points="20.5,-136 20.5,-207 108.5,-207 108.5,-136 20.5,-136"/>
<text text-anchor="middle" x="64.5" y="-195" font-family="Helvetica,sans-Serif" font-size="10.00" fill="#000000">depthwise</text>
</a>
</g>
</g>
<!-- dir_b7f97eccce2eea27364902fe679cf4c6 -->
<g id="node1" class="node">
<title>dir_b7f97eccce2eea27364902fe679cf4c6</title>
<g id="a_node1"><a xlink:href="dir_b7f97eccce2eea27364902fe679cf4c6.xhtml" target="_top" xlink:title="interleaves">
<polygon fill="#eeeeff" stroke="#000000" points="100,-180 29,-180 29,-144 100,-144 100,-180"/>
<text text-anchor="middle" x="64.5" y="-159.5" font-family="Helvetica,sans-Serif" font-size="10.00" fill="#000000">interleaves</text>
</a>
</g>
</g>
<!-- dir_2c61f424fd391396db977702a2beee9a -->
<g id="node2" class="node">
<title>dir_2c61f424fd391396db977702a2beee9a</title>
<g id="a_node2"><a xlink:href="dir_2c61f424fd391396db977702a2beee9a.xhtml" target="_top" xlink:title="cpu">
<polygon fill="#ffffff" stroke="#ff0000" points="63.5,-108 9.5,-108 9.5,-72 63.5,-72 63.5,-108"/>
<text text-anchor="middle" x="36.5" y="-87.5" font-family="Helvetica,sans-Serif" font-size="10.00" fill="#000000">cpu</text>
</a>
</g>
</g>
<!-- dir_b7f97eccce2eea27364902fe679cf4c6&#45;&gt;dir_2c61f424fd391396db977702a2beee9a -->
<g id="edge1" class="edge">
<title>dir_b7f97eccce2eea27364902fe679cf4c6&#45;&gt;dir_2c61f424fd391396db977702a2beee9a</title>
<path fill="none" stroke="#000000" d="M57.4344,-143.8314C54.374,-135.9617 50.7221,-126.5712 47.3318,-117.8533"/>
<polygon fill="#000000" stroke="#000000" points="50.5473,-116.4647 43.6607,-108.4133 44.0232,-119.0019 50.5473,-116.4647"/>
<g id="a_edge1&#45;headlabel"><a xlink:href="dir_000096_000298.xhtml" target="_top" xlink:title="1">
<text text-anchor="middle" x="54.4963" y="-116.2859" font-family="Helvetica,sans-Serif" font-size="10.00" fill="#000000">1</text>
</a>
</g>
</g>
<!-- dir_9847dd9cb7a28e46201717fa7336cf62 -->
<g id="node3" class="node">
<title>dir_9847dd9cb7a28e46201717fa7336cf62</title>
<g id="a_node3"><a xlink:href="dir_9847dd9cb7a28e46201717fa7336cf62.xhtml" target="_top" xlink:title="arm_gemm">
<polygon fill="#ffffff" stroke="#ff0000" points="73,-36 0,-36 0,0 73,0 73,-36"/>
<text text-anchor="middle" x="36.5" y="-15.5" font-family="Helvetica,sans-Serif" font-size="10.00" fill="#000000">arm_gemm</text>
</a>
</g>
</g>
<!-- dir_b7f97eccce2eea27364902fe679cf4c6&#45;&gt;dir_9847dd9cb7a28e46201717fa7336cf62 -->
<g id="edge2" class="edge">
<title>dir_b7f97eccce2eea27364902fe679cf4c6&#45;&gt;dir_9847dd9cb7a28e46201717fa7336cf62</title>
<path fill="none" stroke="#000000" d="M70.0996,-143.6576C74.8299,-125.1725 79.7732,-96.0216 72.5,-72 69.5436,-62.2355 64.1748,-52.6229 58.47,-44.2762"/>
<polygon fill="#000000" stroke="#000000" points="61.2129,-42.0973 52.4905,-36.0831 55.5586,-46.2239 61.2129,-42.0973"/>
<g id="a_edge2&#45;headlabel"><a xlink:href="dir_000096_000189.xhtml" target="_top" xlink:title="2">
<text text-anchor="middle" x="65.6253" y="-40.827" font-family="Helvetica,sans-Serif" font-size="10.00" fill="#000000">2</text>
</a>
</g>
</g>
<!-- dir_2c61f424fd391396db977702a2beee9a&#45;&gt;dir_9847dd9cb7a28e46201717fa7336cf62 -->
<g id="edge3" class="edge">
<title>dir_2c61f424fd391396db977702a2beee9a&#45;&gt;dir_9847dd9cb7a28e46201717fa7336cf62</title>
<path fill="none" stroke="#000000" d="M30.5476,-71.8314C29.7972,-64.131 29.5763,-54.9743 29.8849,-46.4166"/>
<polygon fill="#000000" stroke="#000000" points="33.3792,-46.6161 30.524,-36.4133 26.3935,-46.1697 33.3792,-46.6161"/>
<g id="a_edge3&#45;headlabel"><a xlink:href="dir_000298_000189.xhtml" target="_top" xlink:title="1">
<text text-anchor="middle" x="35.9836" y="-47.8844" font-family="Helvetica,sans-Serif" font-size="10.00" fill="#000000">1</text>
</a>
</g>
</g>
<!-- dir_9847dd9cb7a28e46201717fa7336cf62&#45;&gt;dir_2c61f424fd391396db977702a2beee9a -->
<g id="edge4" class="edge">
<title>dir_9847dd9cb7a28e46201717fa7336cf62&#45;&gt;dir_2c61f424fd391396db977702a2beee9a</title>
<path fill="none" stroke="#000000" d="M42.476,-36.4133C43.2071,-44.0593 43.4203,-53.1084 43.1155,-61.5726"/>
<polygon fill="#000000" stroke="#000000" points="39.6048,-61.6264 42.4524,-71.8314 46.5902,-62.078 39.6048,-61.6264"/>
<g id="a_edge4&#45;headlabel"><a xlink:href="dir_000189_000298.xhtml" target="_top" xlink:title="27">
<text text-anchor="middle" x="37.0032" y="-55.3562" font-family="Helvetica,sans-Serif" font-size="10.00" fill="#000000">27</text>
</a>
</g>
</g>
</g>
</svg>
