<?xml version="1.0" encoding="UTF-8" standalone="no"?>
<!DOCTYPE svg PUBLIC "-//W3C//DTD SVG 1.1//EN"
 "http://www.w3.org/Graphics/SVG/1.1/DTD/svg11.dtd">
<!-- Generated by graphviz version 2.40.1 (20161225.0304)
 -->
<!-- Title: utils/command_line Pages: 1 -->
<svg width="128pt" height="151pt"
 viewBox="0.00 0.00 128.00 151.00" xmlns="http://www.w3.org/2000/svg" xmlns:xlink="http://www.w3.org/1999/xlink">
<g id="graph0" class="graph" transform="scale(1 1) rotate(0) translate(4 147)">
<title>utils/command_line</title>
<polygon fill="#ffffff" stroke="transparent" points="-4,4 -4,-147 124,-147 124,4 -4,4"/>
<g id="clust1" class="cluster">
<title>clusterdir_cbdb8362360e11eafe2fa3bc74cf0ffd</title>
<g id="a_clust1"><a xlink:href="dir_cbdb8362360e11eafe2fa3bc74cf0ffd.xhtml" target="_top" xlink:title="utils">
<polygon fill="#ddddee" stroke="#000000" points="8,-64 8,-135 112,-135 112,-64 8,-64"/>
<text text-anchor="middle" x="60" y="-123" font-family="Helvetica,sans-Serif" font-size="10.00" fill="#000000">utils</text>
</a>
</g>
</g>
<!-- dir_7e20423ab48dcd11e2e5380033c0b7a2 -->
<g id="node1" class="node">
<title>dir_7e20423ab48dcd11e2e5380033c0b7a2</title>
<g id="a_node1"><a xlink:href="dir_7e20423ab48dcd11e2e5380033c0b7a2.xhtml" target="_top" xlink:title="command_line">
<polygon fill="#eeeeff" stroke="#000000" points="104.5,-108 15.5,-108 15.5,-72 104.5,-72 104.5,-108"/>
<text text-anchor="middle" x="60" y="-87.5" font-family="Helvetica,sans-Serif" font-size="10.00" fill="#000000">command_line</text>
</a>
</g>
</g>
<!-- dir_214608ef36d61442cb2b0c1c4e9a7def -->
<g id="node2" class="node">
<title>dir_214608ef36d61442cb2b0c1c4e9a7def</title>
<g id="a_node2"><a xlink:href="dir_214608ef36d61442cb2b0c1c4e9a7def.xhtml" target="_top" xlink:title="arm_compute">
<polygon fill="#ffffff" stroke="#ff0000" points="102,-36 18,-36 18,0 102,0 102,-36"/>
<text text-anchor="middle" x="60" y="-15.5" font-family="Helvetica,sans-Serif" font-size="10.00" fill="#000000">arm_compute</text>
</a>
</g>
</g>
<!-- dir_7e20423ab48dcd11e2e5380033c0b7a2&#45;&gt;dir_214608ef36d61442cb2b0c1c4e9a7def -->
<g id="edge1" class="edge">
<title>dir_7e20423ab48dcd11e2e5380033c0b7a2&#45;&gt;dir_214608ef36d61442cb2b0c1c4e9a7def</title>
<path fill="none" stroke="#000000" d="M60,-71.8314C60,-64.131 60,-54.9743 60,-46.4166"/>
<polygon fill="#000000" stroke="#000000" points="63.5001,-46.4132 60,-36.4133 56.5001,-46.4133 63.5001,-46.4132"/>
<g id="a_edge1&#45;headlabel"><a xlink:href="dir_000445_000000.xhtml" target="_top" xlink:title="1">
<text text-anchor="middle" x="66.3393" y="-47.5079" font-family="Helvetica,sans-Serif" font-size="10.00" fill="#000000">1</text>
</a>
</g>
</g>
</g>
</svg>
