<?xml version="1.0" encoding="UTF-8" standalone="no"?>
<!DOCTYPE svg PUBLIC "-//W3C//DTD SVG 1.1//EN"
 "http://www.w3.org/Graphics/SVG/1.1/DTD/svg11.dtd">
<!-- Generated by graphviz version 2.40.1 (20161225.0304)
 -->
<!-- Title: tests/framework Pages: 1 -->
<svg width="311pt" height="447pt"
 viewBox="0.00 0.00 311.00 447.00" xmlns="http://www.w3.org/2000/svg" xmlns:xlink="http://www.w3.org/1999/xlink">
<g id="graph0" class="graph" transform="scale(1 1) rotate(0) translate(4 443)">
<title>tests/framework</title>
<polygon fill="#ffffff" stroke="transparent" points="-4,4 -4,-443 307,-443 307,4 -4,4"/>
<g id="clust1" class="cluster">
<title>clusterdir_59425e443f801f1f2fd8bbe4959a3ccf</title>
<g id="a_clust1"><a xlink:href="dir_59425e443f801f1f2fd8bbe4959a3ccf.xhtml" target="_top" xlink:title="tests">
<polygon fill="#ddddee" stroke="#000000" points="8,-200 8,-431 295,-431 295,-200 8,-200"/>
<text text-anchor="middle" x="151.5" y="-419" font-family="Helvetica,sans-Serif" font-size="10.00" fill="#000000">tests</text>
</a>
</g>
</g>
<g id="clust2" class="cluster">
<title>clusterdir_9e71e2da941d3cafc4d98a9f6ae3de4f</title>
<g id="a_clust2"><a xlink:href="dir_9e71e2da941d3cafc4d98a9f6ae3de4f.xhtml" target="_top">
<polygon fill="#eeeeff" stroke="#000000" points="16,-208 16,-404 287,-404 287,-208 16,-208"/>
</a>
</g>
</g>
<!-- dir_9e71e2da941d3cafc4d98a9f6ae3de4f -->
<g id="node1" class="node">
<title>dir_9e71e2da941d3cafc4d98a9f6ae3de4f</title>
<text text-anchor="middle" x="166" y="-375.5" font-family="Helvetica,sans-Serif" font-size="10.00" fill="#000000">framework</text>
</g>
<!-- dir_214608ef36d61442cb2b0c1c4e9a7def -->
<g id="node7" class="node">
<title>dir_214608ef36d61442cb2b0c1c4e9a7def</title>
<g id="a_node7"><a xlink:href="dir_214608ef36d61442cb2b0c1c4e9a7def.xhtml" target="_top" xlink:title="arm_compute">
<polygon fill="#ffffff" stroke="#ff0000" points="104,-180 20,-180 20,-144 104,-144 104,-180"/>
<text text-anchor="middle" x="62" y="-159.5" font-family="Helvetica,sans-Serif" font-size="10.00" fill="#000000">arm_compute</text>
</a>
</g>
</g>
<!-- dir_9e71e2da941d3cafc4d98a9f6ae3de4f&#45;&gt;dir_214608ef36d61442cb2b0c1c4e9a7def -->
<g id="edge7" class="edge">
<title>dir_9e71e2da941d3cafc4d98a9f6ae3de4f&#45;&gt;dir_214608ef36d61442cb2b0c1c4e9a7def</title>
<path fill="none" stroke="#000000" d="M163.5217,-359.8599C158.1829,-325.9179 143.1158,-251.5859 108,-200 104.8669,-195.3974 101.0216,-191.0524 96.9013,-187.0596"/>
<polygon fill="#000000" stroke="#000000" points="99.0777,-184.311 89.2822,-180.2737 94.4219,-189.5383 99.0777,-184.311"/>
<g id="a_edge7&#45;headlabel"><a xlink:href="dir_000037_000000.xhtml" target="_top" xlink:title="16">
<text text-anchor="middle" x="103.6503" y="-182.0816" font-family="Helvetica,sans-Serif" font-size="10.00" fill="#000000">16</text>
</a>
</g>
</g>
<!-- dir_d247c927d0dc22626cf668ab2bd7f080 -->
<g id="node2" class="node">
<title>dir_d247c927d0dc22626cf668ab2bd7f080</title>
<g id="a_node2"><a xlink:href="dir_d247c927d0dc22626cf668ab2bd7f080.xhtml" target="_top" xlink:title="command_line">
<polygon fill="#ffffff" stroke="#000000" points="112.5,-396 23.5,-396 23.5,-360 112.5,-360 112.5,-396"/>
<text text-anchor="middle" x="68" y="-375.5" font-family="Helvetica,sans-Serif" font-size="10.00" fill="#000000">command_line</text>
</a>
</g>
</g>
<!-- dir_4efd0ee2ecda32567e74991b08d544ea -->
<g id="node4" class="node">
<title>dir_4efd0ee2ecda32567e74991b08d544ea</title>
<g id="a_node4"><a xlink:href="dir_4efd0ee2ecda32567e74991b08d544ea.xhtml" target="_top" xlink:title="instruments">
<polygon fill="#ffffff" stroke="#000000" points="99.5,-252 24.5,-252 24.5,-216 99.5,-216 99.5,-252"/>
<text text-anchor="middle" x="62" y="-231.5" font-family="Helvetica,sans-Serif" font-size="10.00" fill="#000000">instruments</text>
</a>
</g>
</g>
<!-- dir_d247c927d0dc22626cf668ab2bd7f080&#45;&gt;dir_4efd0ee2ecda32567e74991b08d544ea -->
<g id="edge4" class="edge">
<title>dir_d247c927d0dc22626cf668ab2bd7f080&#45;&gt;dir_4efd0ee2ecda32567e74991b08d544ea</title>
<path fill="none" stroke="#000000" d="M55.3878,-359.9415C49.1233,-349.866 42.2188,-336.7967 39,-324 35.0971,-308.4833 35.8005,-303.6768 39,-288 40.8161,-279.1016 44.1554,-269.8541 47.7371,-261.5789"/>
<polygon fill="#000000" stroke="#000000" points="50.9651,-262.937 51.9765,-252.3906 44.6089,-260.0044 50.9651,-262.937"/>
<g id="a_edge4&#45;headlabel"><a xlink:href="dir_000441_000443.xhtml" target="_top" xlink:title="1">
<text text-anchor="middle" x="52.0373" y="-264.8904" font-family="Helvetica,sans-Serif" font-size="10.00" fill="#000000">1</text>
</a>
</g>
</g>
<!-- dir_68cb0bded1cc5601c88ddaacbb31e482 -->
<g id="node5" class="node">
<title>dir_68cb0bded1cc5601c88ddaacbb31e482</title>
<g id="a_node5"><a xlink:href="dir_68cb0bded1cc5601c88ddaacbb31e482.xhtml" target="_top" xlink:title="printers">
<polygon fill="#ffffff" stroke="#000000" points="102,-324 48,-324 48,-288 102,-288 102,-324"/>
<text text-anchor="middle" x="75" y="-303.5" font-family="Helvetica,sans-Serif" font-size="10.00" fill="#000000">printers</text>
</a>
</g>
</g>
<!-- dir_d247c927d0dc22626cf668ab2bd7f080&#45;&gt;dir_68cb0bded1cc5601c88ddaacbb31e482 -->
<g id="edge2" class="edge">
<title>dir_d247c927d0dc22626cf668ab2bd7f080&#45;&gt;dir_68cb0bded1cc5601c88ddaacbb31e482</title>
<path fill="none" stroke="#000000" d="M69.7664,-359.8314C70.515,-352.131 71.4053,-342.9743 72.2373,-334.4166"/>
<polygon fill="#000000" stroke="#000000" points="75.7256,-334.7051 73.2098,-324.4133 68.7585,-334.0276 75.7256,-334.7051"/>
<g id="a_edge2&#45;headlabel"><a xlink:href="dir_000441_000047.xhtml" target="_top" xlink:title="1">
<text text-anchor="middle" x="78.2038" y="-336.0575" font-family="Helvetica,sans-Serif" font-size="10.00" fill="#000000">1</text>
</a>
</g>
</g>
<!-- dir_cbdb8362360e11eafe2fa3bc74cf0ffd -->
<g id="node6" class="node">
<title>dir_cbdb8362360e11eafe2fa3bc74cf0ffd</title>
<g id="a_node6"><a xlink:href="dir_cbdb8362360e11eafe2fa3bc74cf0ffd.xhtml" target="_top" xlink:title="utils">
<polygon fill="#ffffff" stroke="#ff0000" points="153,-108 99,-108 99,-72 153,-72 153,-108"/>
<text text-anchor="middle" x="126" y="-87.5" font-family="Helvetica,sans-Serif" font-size="10.00" fill="#000000">utils</text>
</a>
</g>
</g>
<!-- dir_d247c927d0dc22626cf668ab2bd7f080&#45;&gt;dir_cbdb8362360e11eafe2fa3bc74cf0ffd -->
<g id="edge3" class="edge">
<title>dir_d247c927d0dc22626cf668ab2bd7f080&#45;&gt;dir_cbdb8362360e11eafe2fa3bc74cf0ffd</title>
<path fill="none" stroke="#000000" d="M87.1298,-359.8319C96.0513,-350.1207 105.8231,-337.4169 111,-324 138.0083,-254.0028 133.9027,-163.5085 129.4846,-118.3104"/>
<polygon fill="#000000" stroke="#000000" points="132.9362,-117.667 128.4027,-108.0911 125.9751,-118.404 132.9362,-117.667"/>
<g id="a_edge3&#45;headlabel"><a xlink:href="dir_000441_000041.xhtml" target="_top" xlink:title="2">
<text text-anchor="middle" x="136.138" y="-118.4427" font-family="Helvetica,sans-Serif" font-size="10.00" fill="#000000">2</text>
</a>
</g>
</g>
<!-- dir_0dd7887818bb8d90732685575a13f58a -->
<g id="node3" class="node">
<title>dir_0dd7887818bb8d90732685575a13f58a</title>
<g id="a_node3"><a xlink:href="dir_0dd7887818bb8d90732685575a13f58a.xhtml" target="_top" xlink:title="datasets">
<polygon fill="#ffffff" stroke="#000000" points="278.5,-396 219.5,-396 219.5,-360 278.5,-360 278.5,-396"/>
<text text-anchor="middle" x="249" y="-375.5" font-family="Helvetica,sans-Serif" font-size="10.00" fill="#000000">datasets</text>
</a>
</g>
</g>
<!-- dir_0dd7887818bb8d90732685575a13f58a&#45;&gt;dir_cbdb8362360e11eafe2fa3bc74cf0ffd -->
<g id="edge12" class="edge">
<title>dir_0dd7887818bb8d90732685575a13f58a&#45;&gt;dir_cbdb8362360e11eafe2fa3bc74cf0ffd</title>
<path fill="none" stroke="#000000" d="M241.3058,-359.9843C220.4247,-311.0919 162.5919,-175.6785 137.6722,-117.33"/>
<polygon fill="#000000" stroke="#000000" points="140.8377,-115.8306 133.6913,-108.0089 134.4002,-118.58 140.8377,-115.8306"/>
<g id="a_edge12&#45;headlabel"><a xlink:href="dir_000442_000041.xhtml" target="_top" xlink:title="1">
<text text-anchor="middle" x="144.8606" y="-115.5212" font-family="Helvetica,sans-Serif" font-size="10.00" fill="#000000">1</text>
</a>
</g>
</g>
<!-- dir_5815af820a9cc9481f1d0990a0d60286 -->
<g id="node8" class="node">
<title>dir_5815af820a9cc9481f1d0990a0d60286</title>
<g id="a_node8"><a xlink:href="dir_5815af820a9cc9481f1d0990a0d60286.xhtml" target="_top" xlink:title="support">
<polygon fill="none" stroke="#000000" points="89,-36 35,-36 35,0 89,0 89,-36"/>
<text text-anchor="middle" x="62" y="-15.5" font-family="Helvetica,sans-Serif" font-size="10.00" fill="#000000">support</text>
</a>
</g>
</g>
<!-- dir_0dd7887818bb8d90732685575a13f58a&#45;&gt;dir_5815af820a9cc9481f1d0990a0d60286 -->
<g id="edge13" class="edge">
<title>dir_0dd7887818bb8d90732685575a13f58a&#45;&gt;dir_5815af820a9cc9481f1d0990a0d60286</title>
<path fill="none" stroke="#000000" d="M248.7928,-359.8149C248.4999,-332.4989 248,-279.2511 248,-234 248,-234 248,-234 248,-162 248,-87.224 152.8461,-45.7473 98.6557,-28.1892"/>
<polygon fill="#000000" stroke="#000000" points="99.6348,-24.8284 89.046,-25.1865 97.547,-31.5098 99.6348,-24.8284"/>
<g id="a_edge13&#45;headlabel"><a xlink:href="dir_000442_000028.xhtml" target="_top" xlink:title="3">
<text text-anchor="middle" x="103.9126" y="-20.6903" font-family="Helvetica,sans-Serif" font-size="10.00" fill="#000000">3</text>
</a>
</g>
</g>
<!-- dir_4efd0ee2ecda32567e74991b08d544ea&#45;&gt;dir_214608ef36d61442cb2b0c1c4e9a7def -->
<g id="edge10" class="edge">
<title>dir_4efd0ee2ecda32567e74991b08d544ea&#45;&gt;dir_214608ef36d61442cb2b0c1c4e9a7def</title>
<path fill="none" stroke="#000000" d="M62,-215.8314C62,-208.131 62,-198.9743 62,-190.4166"/>
<polygon fill="#000000" stroke="#000000" points="65.5001,-190.4132 62,-180.4133 58.5001,-190.4133 65.5001,-190.4132"/>
<g id="a_edge10&#45;headlabel"><a xlink:href="dir_000443_000000.xhtml" target="_top" xlink:title="13">
<text text-anchor="middle" x="68.3393" y="-191.5079" font-family="Helvetica,sans-Serif" font-size="10.00" fill="#000000">13</text>
</a>
</g>
</g>
<!-- dir_4efd0ee2ecda32567e74991b08d544ea&#45;&gt;dir_5815af820a9cc9481f1d0990a0d60286 -->
<g id="edge11" class="edge">
<title>dir_4efd0ee2ecda32567e74991b08d544ea&#45;&gt;dir_5815af820a9cc9481f1d0990a0d60286</title>
<path fill="none" stroke="#000000" d="M38.1509,-215.928C27.7058,-206.5042 16.574,-194.02 11,-180 -7.5207,-133.4162 21.0527,-77.2555 42.3364,-44.7846"/>
<polygon fill="#000000" stroke="#000000" points="45.3862,-46.5231 48.101,-36.282 39.5923,-42.595 45.3862,-46.5231"/>
<g id="a_edge11&#45;headlabel"><a xlink:href="dir_000443_000028.xhtml" target="_top" xlink:title="1">
<text text-anchor="middle" x="45.7192" y="-48.5917" font-family="Helvetica,sans-Serif" font-size="10.00" fill="#000000">1</text>
</a>
</g>
</g>
<!-- dir_68cb0bded1cc5601c88ddaacbb31e482&#45;&gt;dir_4efd0ee2ecda32567e74991b08d544ea -->
<g id="edge1" class="edge">
<title>dir_68cb0bded1cc5601c88ddaacbb31e482&#45;&gt;dir_4efd0ee2ecda32567e74991b08d544ea</title>
<path fill="none" stroke="#000000" d="M71.7196,-287.8314C70.3292,-280.131 68.6759,-270.9743 67.1308,-262.4166"/>
<polygon fill="#000000" stroke="#000000" points="70.5458,-261.6322 65.3246,-252.4133 63.6572,-262.8761 70.5458,-261.6322"/>
<g id="a_edge1&#45;headlabel"><a xlink:href="dir_000047_000443.xhtml" target="_top" xlink:title="3">
<text text-anchor="middle" x="73.9785" y="-262.1652" font-family="Helvetica,sans-Serif" font-size="10.00" fill="#000000">3</text>
</a>
</g>
</g>
<!-- dir_cbdb8362360e11eafe2fa3bc74cf0ffd&#45;&gt;dir_214608ef36d61442cb2b0c1c4e9a7def -->
<g id="edge5" class="edge">
<title>dir_cbdb8362360e11eafe2fa3bc74cf0ffd&#45;&gt;dir_214608ef36d61442cb2b0c1c4e9a7def</title>
<path fill="none" stroke="#000000" d="M115.6087,-108.4133C108.8694,-116.9088 99.9509,-127.1366 91.2773,-136.3696"/>
<polygon fill="#000000" stroke="#000000" points="88.5106,-134.1972 84.1023,-143.8314 93.5564,-139.049 88.5106,-134.1972"/>
<g id="a_edge5&#45;headlabel"><a xlink:href="dir_000041_000000.xhtml" target="_top" xlink:title="41">
<text text-anchor="middle" x="88.9555" y="-127.1382" font-family="Helvetica,sans-Serif" font-size="10.00" fill="#000000">41</text>
</a>
</g>
</g>
<!-- dir_cbdb8362360e11eafe2fa3bc74cf0ffd&#45;&gt;dir_5815af820a9cc9481f1d0990a0d60286 -->
<g id="edge6" class="edge">
<title>dir_cbdb8362360e11eafe2fa3bc74cf0ffd&#45;&gt;dir_5815af820a9cc9481f1d0990a0d60286</title>
<path fill="none" stroke="#000000" d="M109.8501,-71.8314C102.3283,-63.3694 93.2435,-53.1489 85.0196,-43.8971"/>
<polygon fill="#000000" stroke="#000000" points="87.627,-41.5621 78.3673,-36.4133 82.3951,-46.2127 87.627,-41.5621"/>
<g id="a_edge6&#45;headlabel"><a xlink:href="dir_000041_000028.xhtml" target="_top" xlink:title="4">
<text text-anchor="middle" x="92.1372" y="-39.8624" font-family="Helvetica,sans-Serif" font-size="10.00" fill="#000000">4</text>
</a>
</g>
</g>
<!-- dir_214608ef36d61442cb2b0c1c4e9a7def&#45;&gt;dir_cbdb8362360e11eafe2fa3bc74cf0ffd -->
<g id="edge8" class="edge">
<title>dir_214608ef36d61442cb2b0c1c4e9a7def&#45;&gt;dir_cbdb8362360e11eafe2fa3bc74cf0ffd</title>
<path fill="none" stroke="#000000" d="M72.1975,-143.8314C78.8946,-135.3694 87.7943,-125.1489 96.4724,-115.8971"/>
<polygon fill="#000000" stroke="#000000" points="99.2563,-118.0511 103.6566,-108.4133 94.2065,-113.2034 99.2563,-118.0511"/>
<g id="a_edge8&#45;headlabel"><a xlink:href="dir_000000_000041.xhtml" target="_top" xlink:title="1">
<text text-anchor="middle" x="98.8152" y="-120.1105" font-family="Helvetica,sans-Serif" font-size="10.00" fill="#000000">1</text>
</a>
</g>
</g>
<!-- dir_214608ef36d61442cb2b0c1c4e9a7def&#45;&gt;dir_5815af820a9cc9481f1d0990a0d60286 -->
<g id="edge9" class="edge">
<title>dir_214608ef36d61442cb2b0c1c4e9a7def&#45;&gt;dir_5815af820a9cc9481f1d0990a0d60286</title>
<path fill="none" stroke="#000000" d="M57.3268,-143.7623C54.867,-119.201 54.5923,-75.2474 56.5026,-46.3541"/>
<polygon fill="#000000" stroke="#000000" points="60.0152,-46.3416 57.3417,-36.0896 53.0385,-45.7712 60.0152,-46.3416"/>
<g id="a_edge9&#45;headlabel"><a xlink:href="dir_000000_000028.xhtml" target="_top" xlink:title="18">
<text text-anchor="middle" x="62.5522" y="-47.6556" font-family="Helvetica,sans-Serif" font-size="10.00" fill="#000000">18</text>
</a>
</g>
</g>
<!-- dir_5815af820a9cc9481f1d0990a0d60286&#45;&gt;dir_214608ef36d61442cb2b0c1c4e9a7def -->
<g id="edge14" class="edge">
<title>dir_5815af820a9cc9481f1d0990a0d60286&#45;&gt;dir_214608ef36d61442cb2b0c1c4e9a7def</title>
<path fill="none" stroke="#000000" d="M66.6583,-36.0896C69.1269,-60.5727 69.4104,-104.5174 67.5089,-133.4713"/>
<polygon fill="#000000" stroke="#000000" points="63.9942,-133.5118 66.6732,-143.7623 70.9712,-134.0785 63.9942,-133.5118"/>
<g id="a_edge14&#45;headlabel"><a xlink:href="dir_000028_000000.xhtml" target="_top" xlink:title="6">
<text text-anchor="middle" x="61.4551" y="-127.1992" font-family="Helvetica,sans-Serif" font-size="10.00" fill="#000000">6</text>
</a>
</g>
</g>
</g>
</svg>
