<?xml version="1.0" encoding="UTF-8" standalone="no"?>
<!DOCTYPE svg PUBLIC "-//W3C//DTD SVG 1.1//EN"
 "http://www.w3.org/Graphics/SVG/1.1/DTD/svg11.dtd">
<!-- Generated by graphviz version 2.40.1 (20161225.0304)
 -->
<!-- Title: src/gpu Pages: 1 -->
<svg width="369pt" height="411pt"
 viewBox="0.00 0.00 368.73 411.00" xmlns="http://www.w3.org/2000/svg" xmlns:xlink="http://www.w3.org/1999/xlink">
<g id="graph0" class="graph" transform="scale(1 1) rotate(0) translate(4 407)">
<title>src/gpu</title>
<polygon fill="#ffffff" stroke="transparent" points="-4,4 -4,-407 364.7257,-407 364.7257,4 -4,4"/>
<g id="clust1" class="cluster">
<title>clusterdir_68267d1309a1af8e8297ef4c3efbcdba</title>
<g id="a_clust1"><a xlink:href="dir_68267d1309a1af8e8297ef4c3efbcdba.xhtml" target="_top" xlink:title="src">
<polygon fill="#ddddee" stroke="#000000" points="13.7257,-272 13.7257,-359 171.7257,-359 171.7257,-272 13.7257,-272"/>
<text text-anchor="middle" x="92.7257" y="-347" font-family="Helvetica,sans-Serif" font-size="10.00" fill="#000000">src</text>
</a>
</g>
</g>
<g id="clust2" class="cluster">
<title>clusterdir_cf895c1ed808af158264b2f3d8d7f8f0</title>
<g id="a_clust2"><a xlink:href="dir_cf895c1ed808af158264b2f3d8d7f8f0.xhtml" target="_top">
<polygon fill="#eeeeff" stroke="#000000" points="21.7257,-280 21.7257,-332 163.7257,-332 163.7257,-280 21.7257,-280"/>
</a>
</g>
</g>
<!-- dir_cf895c1ed808af158264b2f3d8d7f8f0 -->
<g id="node1" class="node">
<title>dir_cf895c1ed808af158264b2f3d8d7f8f0</title>
<text text-anchor="middle" x="128.7257" y="-303.5" font-family="Helvetica,sans-Serif" font-size="10.00" fill="#000000">gpu</text>
</g>
<!-- dir_3fd6b49eea07a5dd89d90722d8b4e77f -->
<g id="node2" class="node">
<title>dir_3fd6b49eea07a5dd89d90722d8b4e77f</title>
<g id="a_node2"><a xlink:href="dir_3fd6b49eea07a5dd89d90722d8b4e77f.xhtml" target="_top" xlink:title="cl">
<polygon fill="#ffffff" stroke="#ff0000" points="83.7257,-324 29.7257,-324 29.7257,-288 83.7257,-288 83.7257,-324"/>
<text text-anchor="middle" x="56.7257" y="-303.5" font-family="Helvetica,sans-Serif" font-size="10.00" fill="#000000">cl</text>
</a>
</g>
</g>
<!-- dir_cbdb8362360e11eafe2fa3bc74cf0ffd -->
<g id="node3" class="node">
<title>dir_cbdb8362360e11eafe2fa3bc74cf0ffd</title>
<g id="a_node3"><a xlink:href="dir_cbdb8362360e11eafe2fa3bc74cf0ffd.xhtml" target="_top" xlink:title="utils">
<polygon fill="#ffffff" stroke="#ff0000" points="98.7257,-180 44.7257,-180 44.7257,-144 98.7257,-144 98.7257,-180"/>
<text text-anchor="middle" x="71.7257" y="-159.5" font-family="Helvetica,sans-Serif" font-size="10.00" fill="#000000">utils</text>
</a>
</g>
</g>
<!-- dir_3fd6b49eea07a5dd89d90722d8b4e77f&#45;&gt;dir_cbdb8362360e11eafe2fa3bc74cf0ffd -->
<g id="edge1" class="edge">
<title>dir_3fd6b49eea07a5dd89d90722d8b4e77f&#45;&gt;dir_cbdb8362360e11eafe2fa3bc74cf0ffd</title>
<path fill="none" stroke="#000000" d="M58.6255,-287.7623C61.184,-263.201 65.7625,-219.2474 68.7722,-190.3541"/>
<polygon fill="#000000" stroke="#000000" points="72.2864,-190.3985 69.8414,-180.0896 65.3241,-189.6731 72.2864,-190.3985"/>
<g id="a_edge1&#45;headlabel"><a xlink:href="dir_000005_000041.xhtml" target="_top" xlink:title="2">
<text text-anchor="middle" x="74.7381" y="-191.7679" font-family="Helvetica,sans-Serif" font-size="10.00" fill="#000000">2</text>
</a>
</g>
</g>
<!-- dir_214608ef36d61442cb2b0c1c4e9a7def -->
<g id="node4" class="node">
<title>dir_214608ef36d61442cb2b0c1c4e9a7def</title>
<g id="a_node4"><a xlink:href="dir_214608ef36d61442cb2b0c1c4e9a7def.xhtml" target="_top" xlink:title="arm_compute">
<polygon fill="#ffffff" stroke="#ff0000" points="206.7257,-108 122.7257,-108 122.7257,-72 206.7257,-72 206.7257,-108"/>
<text text-anchor="middle" x="164.7257" y="-87.5" font-family="Helvetica,sans-Serif" font-size="10.00" fill="#000000">arm_compute</text>
</a>
</g>
</g>
<!-- dir_3fd6b49eea07a5dd89d90722d8b4e77f&#45;&gt;dir_214608ef36d61442cb2b0c1c4e9a7def -->
<g id="edge2" class="edge">
<title>dir_3fd6b49eea07a5dd89d90722d8b4e77f&#45;&gt;dir_214608ef36d61442cb2b0c1c4e9a7def</title>
<path fill="none" stroke="#000000" d="M65.748,-287.9555C84.6877,-250.0762 128.6848,-162.0818 151.0887,-117.274"/>
<polygon fill="#000000" stroke="#000000" points="154.3115,-118.6546 155.6532,-108.1451 148.0505,-115.5241 154.3115,-118.6546"/>
<g id="a_edge2&#45;headlabel"><a xlink:href="dir_000005_000000.xhtml" target="_top" xlink:title="474">
<text text-anchor="middle" x="155.2435" y="-120.6395" font-family="Helvetica,sans-Serif" font-size="10.00" fill="#000000">474</text>
</a>
</g>
</g>
<!-- dir_aebb8dcc11953d78e620bbef0b9e2183 -->
<g id="node5" class="node">
<title>dir_aebb8dcc11953d78e620bbef0b9e2183</title>
<g id="a_node5"><a xlink:href="dir_aebb8dcc11953d78e620bbef0b9e2183.xhtml" target="_top" xlink:title="core">
<polygon fill="#ffffff" stroke="#ff0000" points="271.7257,-324 217.7257,-324 217.7257,-288 271.7257,-288 271.7257,-324"/>
<text text-anchor="middle" x="244.7257" y="-303.5" font-family="Helvetica,sans-Serif" font-size="10.00" fill="#000000">core</text>
</a>
</g>
</g>
<!-- dir_3fd6b49eea07a5dd89d90722d8b4e77f&#45;&gt;dir_aebb8dcc11953d78e620bbef0b9e2183 -->
<g id="edge3" class="edge">
<title>dir_3fd6b49eea07a5dd89d90722d8b4e77f&#45;&gt;dir_aebb8dcc11953d78e620bbef0b9e2183</title>
<path fill="none" stroke="#000000" d="M65.6688,-324.1255C71.9616,-335.3682 81.289,-349.4414 92.7257,-359 96.0844,-361.8071 97.4438,-362.0913 101.7257,-363 121.9422,-367.2902 174.5093,-367.2902 194.7257,-363 210.7332,-359.603 222.9845,-346.0643 231.353,-333.0346"/>
<polygon fill="#000000" stroke="#000000" points="234.4798,-334.6217 236.5247,-324.2261 228.4433,-331.0775 234.4798,-334.6217"/>
<g id="a_edge3&#45;headlabel"><a xlink:href="dir_000005_000020.xhtml" target="_top" xlink:title="218">
<text text-anchor="middle" x="235.1083" y="-336.6591" font-family="Helvetica,sans-Serif" font-size="10.00" fill="#000000">218</text>
</a>
</g>
</g>
<!-- dir_bf9f26469d00835ba20ff8d80ee5a804 -->
<g id="node6" class="node">
<title>dir_bf9f26469d00835ba20ff8d80ee5a804</title>
<g id="a_node6"><a xlink:href="dir_bf9f26469d00835ba20ff8d80ee5a804.xhtml" target="_top" xlink:title="runtime">
<polygon fill="#ffffff" stroke="#ff0000" points="244.2257,-403 189.2257,-403 189.2257,-367 244.2257,-367 244.2257,-403"/>
<text text-anchor="middle" x="216.7257" y="-382.5" font-family="Helvetica,sans-Serif" font-size="10.00" fill="#000000">runtime</text>
</a>
</g>
</g>
<!-- dir_3fd6b49eea07a5dd89d90722d8b4e77f&#45;&gt;dir_bf9f26469d00835ba20ff8d80ee5a804 -->
<g id="edge4" class="edge">
<title>dir_3fd6b49eea07a5dd89d90722d8b4e77f&#45;&gt;dir_bf9f26469d00835ba20ff8d80ee5a804</title>
<path fill="none" stroke="#000000" d="M57.0036,-324.2103C61.6465,-335.9342 71.0666,-350.5165 83.7257,-359 98.6705,-369.0152 145.1447,-376.847 179.1013,-381.1966"/>
<polygon fill="#000000" stroke="#000000" points="178.8374,-384.6904 189.189,-382.4332 179.6892,-377.7424 178.8374,-384.6904"/>
<g id="a_edge4&#45;headlabel"><a xlink:href="dir_000005_000034.xhtml" target="_top" xlink:title="5">
<text text-anchor="middle" x="174.924" y="-384.5712" font-family="Helvetica,sans-Serif" font-size="10.00" fill="#000000">5</text>
</a>
</g>
</g>
<!-- dir_5815af820a9cc9481f1d0990a0d60286 -->
<g id="node7" class="node">
<title>dir_5815af820a9cc9481f1d0990a0d60286</title>
<g id="a_node7"><a xlink:href="dir_5815af820a9cc9481f1d0990a0d60286.xhtml" target="_top" xlink:title="support">
<polygon fill="none" stroke="#000000" points="191.7257,-36 137.7257,-36 137.7257,0 191.7257,0 191.7257,-36"/>
<text text-anchor="middle" x="164.7257" y="-15.5" font-family="Helvetica,sans-Serif" font-size="10.00" fill="#000000">support</text>
</a>
</g>
</g>
<!-- dir_3fd6b49eea07a5dd89d90722d8b4e77f&#45;&gt;dir_5815af820a9cc9481f1d0990a0d60286 -->
<g id="edge5" class="edge">
<title>dir_3fd6b49eea07a5dd89d90722d8b4e77f&#45;&gt;dir_5815af820a9cc9481f1d0990a0d60286</title>
<path fill="none" stroke="#000000" d="M49.1826,-287.5282C37.8116,-256.9266 19.2687,-194.1174 35.7257,-144 51.0812,-97.2371 96.23,-60.3893 128.7863,-38.9153"/>
<polygon fill="#000000" stroke="#000000" points="131.0663,-41.6114 137.5997,-33.2707 127.291,-35.7167 131.0663,-41.6114"/>
<g id="a_edge5&#45;headlabel"><a xlink:href="dir_000005_000028.xhtml" target="_top" xlink:title="100">
<text text-anchor="middle" x="129.5706" y="-43.4409" font-family="Helvetica,sans-Serif" font-size="10.00" fill="#000000">100</text>
</a>
</g>
</g>
<!-- dir_fdedb0aba14d44ce9d99bc100e026e6a -->
<g id="node8" class="node">
<title>dir_fdedb0aba14d44ce9d99bc100e026e6a</title>
<g id="a_node8"><a xlink:href="dir_fdedb0aba14d44ce9d99bc100e026e6a.xhtml" target="_top" xlink:title="common">
<polygon fill="#ffffff" stroke="#ff0000" points="180.2257,-252 121.2257,-252 121.2257,-216 180.2257,-216 180.2257,-252"/>
<text text-anchor="middle" x="150.7257" y="-231.5" font-family="Helvetica,sans-Serif" font-size="10.00" fill="#000000">common</text>
</a>
</g>
</g>
<!-- dir_3fd6b49eea07a5dd89d90722d8b4e77f&#45;&gt;dir_fdedb0aba14d44ce9d99bc100e026e6a -->
<g id="edge6" class="edge">
<title>dir_3fd6b49eea07a5dd89d90722d8b4e77f&#45;&gt;dir_fdedb0aba14d44ce9d99bc100e026e6a</title>
<path fill="none" stroke="#000000" d="M74.8464,-287.7006C80.4015,-282.4209 86.6536,-276.7951 92.7257,-272 98.97,-267.069 105.856,-262.1512 112.6363,-257.5685"/>
<polygon fill="#000000" stroke="#000000" points="114.6988,-260.4008 121.1117,-251.9672 110.8392,-254.5609 114.6988,-260.4008"/>
<g id="a_edge6&#45;headlabel"><a xlink:href="dir_000005_000019.xhtml" target="_top" xlink:title="40">
<text text-anchor="middle" x="113.2654" y="-262.2514" font-family="Helvetica,sans-Serif" font-size="10.00" fill="#000000">40</text>
</a>
</g>
</g>
<!-- dir_cbdb8362360e11eafe2fa3bc74cf0ffd&#45;&gt;dir_214608ef36d61442cb2b0c1c4e9a7def -->
<g id="edge7" class="edge">
<title>dir_cbdb8362360e11eafe2fa3bc74cf0ffd&#45;&gt;dir_214608ef36d61442cb2b0c1c4e9a7def</title>
<path fill="none" stroke="#000000" d="M89.2412,-143.8314C99.9335,-134.8779 113.8845,-123.9558 126.9217,-114.2955"/>
<polygon fill="#000000" stroke="#000000" points="129.3048,-116.889 135.3136,-108.1628 125.1746,-111.2373 129.3048,-116.889"/>
<g id="a_edge7&#45;headlabel"><a xlink:href="dir_000041_000000.xhtml" target="_top" xlink:title="41">
<text text-anchor="middle" x="128.0778" y="-118.8022" font-family="Helvetica,sans-Serif" font-size="10.00" fill="#000000">41</text>
</a>
</g>
</g>
<!-- dir_cbdb8362360e11eafe2fa3bc74cf0ffd&#45;&gt;dir_5815af820a9cc9481f1d0990a0d60286 -->
<g id="edge8" class="edge">
<title>dir_cbdb8362360e11eafe2fa3bc74cf0ffd&#45;&gt;dir_5815af820a9cc9481f1d0990a0d60286</title>
<path fill="none" stroke="#000000" d="M78.2063,-143.8538C85.3795,-125.0088 98.029,-95.1056 113.7257,-72 120.5634,-61.935 129.2892,-51.9534 137.5824,-43.361"/>
<polygon fill="#000000" stroke="#000000" points="140.1326,-45.7601 144.7007,-36.2006 135.1683,-40.825 140.1326,-45.7601"/>
<g id="a_edge8&#45;headlabel"><a xlink:href="dir_000041_000028.xhtml" target="_top" xlink:title="4">
<text text-anchor="middle" x="139.612" y="-47.8111" font-family="Helvetica,sans-Serif" font-size="10.00" fill="#000000">4</text>
</a>
</g>
</g>
<!-- dir_214608ef36d61442cb2b0c1c4e9a7def&#45;&gt;dir_cbdb8362360e11eafe2fa3bc74cf0ffd -->
<g id="edge9" class="edge">
<title>dir_214608ef36d61442cb2b0c1c4e9a7def&#45;&gt;dir_cbdb8362360e11eafe2fa3bc74cf0ffd</title>
<path fill="none" stroke="#000000" d="M147.1599,-108.2108C135.8189,-117.7049 120.8261,-129.4039 107.1463,-139.4641"/>
<polygon fill="#000000" stroke="#000000" points="104.8861,-136.7795 98.8427,-145.4817 108.9938,-142.4476 104.8861,-136.7795"/>
<g id="a_edge9&#45;headlabel"><a xlink:href="dir_000000_000041.xhtml" target="_top" xlink:title="1">
<text text-anchor="middle" x="106.1306" y="-129.8712" font-family="Helvetica,sans-Serif" font-size="10.00" fill="#000000">1</text>
</a>
</g>
</g>
<!-- dir_214608ef36d61442cb2b0c1c4e9a7def&#45;&gt;dir_5815af820a9cc9481f1d0990a0d60286 -->
<g id="edge10" class="edge">
<title>dir_214608ef36d61442cb2b0c1c4e9a7def&#45;&gt;dir_5815af820a9cc9481f1d0990a0d60286</title>
<path fill="none" stroke="#000000" d="M158.7733,-71.8314C158.0229,-64.131 157.802,-54.9743 158.1106,-46.4166"/>
<polygon fill="#000000" stroke="#000000" points="161.6049,-46.6161 158.7497,-36.4133 154.6192,-46.1697 161.6049,-46.6161"/>
<g id="a_edge10&#45;headlabel"><a xlink:href="dir_000000_000028.xhtml" target="_top" xlink:title="18">
<text text-anchor="middle" x="164.2094" y="-47.8844" font-family="Helvetica,sans-Serif" font-size="10.00" fill="#000000">18</text>
</a>
</g>
</g>
<!-- dir_aebb8dcc11953d78e620bbef0b9e2183&#45;&gt;dir_3fd6b49eea07a5dd89d90722d8b4e77f -->
<g id="edge11" class="edge">
<title>dir_aebb8dcc11953d78e620bbef0b9e2183&#45;&gt;dir_3fd6b49eea07a5dd89d90722d8b4e77f</title>
<path fill="none" stroke="#000000" d="M236.5247,-324.2261C228.4389,-339.2756 214.4272,-358.8191 194.7257,-363 174.5093,-367.2902 121.9422,-367.2902 101.7257,-363 97.4438,-362.0913 96.0844,-361.8071 92.7257,-359 84.1482,-351.831 76.7571,-342.1226 70.9429,-332.9734"/>
<polygon fill="#000000" stroke="#000000" points="73.7954,-330.9231 65.6688,-324.1255 67.7826,-334.5073 73.7954,-330.9231"/>
<g id="a_edge11&#45;headlabel"><a xlink:href="dir_000020_000005.xhtml" target="_top" xlink:title="5">
<text text-anchor="middle" x="78.0747" y="-330.0571" font-family="Helvetica,sans-Serif" font-size="10.00" fill="#000000">5</text>
</a>
</g>
</g>
<!-- dir_aebb8dcc11953d78e620bbef0b9e2183&#45;&gt;dir_cbdb8362360e11eafe2fa3bc74cf0ffd -->
<g id="edge12" class="edge">
<title>dir_aebb8dcc11953d78e620bbef0b9e2183&#45;&gt;dir_cbdb8362360e11eafe2fa3bc74cf0ffd</title>
<path fill="none" stroke="#000000" d="M237.5431,-287.9306C228.8393,-268.0271 212.4638,-236.1738 189.7257,-216 166.3678,-195.2763 133.7134,-181.1638 108.6758,-172.5785"/>
<polygon fill="#000000" stroke="#000000" points="109.7402,-169.2442 99.1473,-169.4492 107.556,-175.8947 109.7402,-169.2442"/>
<g id="a_edge12&#45;headlabel"><a xlink:href="dir_000020_000041.xhtml" target="_top" xlink:title="1">
<text text-anchor="middle" x="114.0412" y="-165.1682" font-family="Helvetica,sans-Serif" font-size="10.00" fill="#000000">1</text>
</a>
</g>
</g>
<!-- dir_aebb8dcc11953d78e620bbef0b9e2183&#45;&gt;dir_214608ef36d61442cb2b0c1c4e9a7def -->
<g id="edge13" class="edge">
<title>dir_aebb8dcc11953d78e620bbef0b9e2183&#45;&gt;dir_214608ef36d61442cb2b0c1c4e9a7def</title>
<path fill="none" stroke="#000000" d="M239.9048,-287.8866C234.8895,-269.5796 226.5483,-240.5644 217.7257,-216 205.3328,-181.4948 188.5955,-142.7479 177.2708,-117.4455"/>
<polygon fill="#000000" stroke="#000000" points="180.3687,-115.801 173.0698,-108.1213 173.9866,-118.6765 180.3687,-115.801"/>
<g id="a_edge13&#45;headlabel"><a xlink:href="dir_000020_000000.xhtml" target="_top" xlink:title="634">
<text text-anchor="middle" x="184.4339" y="-115.412" font-family="Helvetica,sans-Serif" font-size="10.00" fill="#000000">634</text>
</a>
</g>
</g>
<!-- dir_aebb8dcc11953d78e620bbef0b9e2183&#45;&gt;dir_5815af820a9cc9481f1d0990a0d60286 -->
<g id="edge14" class="edge">
<title>dir_aebb8dcc11953d78e620bbef0b9e2183&#45;&gt;dir_5815af820a9cc9481f1d0990a0d60286</title>
<path fill="none" stroke="#000000" d="M248.326,-287.7119C255.4747,-246.5324 267.7635,-144.4803 230.7257,-72 223.8953,-58.6333 212.1225,-47.3841 200.3937,-38.6717"/>
<polygon fill="#000000" stroke="#000000" points="202.1394,-35.6225 191.9324,-32.7821 198.1404,-41.3677 202.1394,-35.6225"/>
<g id="a_edge14&#45;headlabel"><a xlink:href="dir_000020_000028.xhtml" target="_top" xlink:title="63">
<text text-anchor="middle" x="206.7117" y="-32.8457" font-family="Helvetica,sans-Serif" font-size="10.00" fill="#000000">63</text>
</a>
</g>
</g>
<!-- dir_aebb8dcc11953d78e620bbef0b9e2183&#45;&gt;dir_fdedb0aba14d44ce9d99bc100e026e6a -->
<g id="edge15" class="edge">
<title>dir_aebb8dcc11953d78e620bbef0b9e2183&#45;&gt;dir_fdedb0aba14d44ce9d99bc100e026e6a</title>
<path fill="none" stroke="#000000" d="M223.2529,-287.7133C217.0263,-282.5421 210.1683,-276.9711 203.7257,-272 197.748,-267.3875 191.288,-262.5995 185.0028,-258.0404"/>
<polygon fill="#000000" stroke="#000000" points="186.7652,-254.9968 176.6021,-252.0032 182.6801,-260.6812 186.7652,-254.9968"/>
<g id="a_edge15&#45;headlabel"><a xlink:href="dir_000020_000019.xhtml" target="_top" xlink:title="4">
<text text-anchor="middle" x="191.3411" y="-252.2889" font-family="Helvetica,sans-Serif" font-size="10.00" fill="#000000">4</text>
</a>
</g>
</g>
<!-- dir_bf9f26469d00835ba20ff8d80ee5a804&#45;&gt;dir_3fd6b49eea07a5dd89d90722d8b4e77f -->
<g id="edge16" class="edge">
<title>dir_bf9f26469d00835ba20ff8d80ee5a804&#45;&gt;dir_3fd6b49eea07a5dd89d90722d8b4e77f</title>
<path fill="none" stroke="#000000" d="M189.0748,-380.6974C159.7345,-376.262 116.1152,-368.6431 101.7257,-359 92.0335,-352.5048 84.2401,-342.4346 77.7975,-332.8094"/>
<polygon fill="#000000" stroke="#000000" points="80.6098,-330.7125 72.2449,-324.2103 74.7292,-334.5098 80.6098,-330.7125"/>
<g id="a_edge16&#45;headlabel"><a xlink:href="dir_000034_000005.xhtml" target="_top" xlink:title="53">
<text text-anchor="middle" x="84.9449" y="-329.6921" font-family="Helvetica,sans-Serif" font-size="10.00" fill="#000000">53</text>
</a>
</g>
</g>
<!-- dir_bf9f26469d00835ba20ff8d80ee5a804&#45;&gt;dir_cbdb8362360e11eafe2fa3bc74cf0ffd -->
<g id="edge17" class="edge">
<title>dir_bf9f26469d00835ba20ff8d80ee5a804&#45;&gt;dir_cbdb8362360e11eafe2fa3bc74cf0ffd</title>
<path fill="none" stroke="#000000" d="M188.9217,-383.3725C136.8485,-380.0393 28.8452,-371.6668 17.7257,-359 -25.3028,-309.984 21.3662,-229.7173 51.0588,-188.4019"/>
<polygon fill="#000000" stroke="#000000" points="53.9861,-190.3294 57.0989,-180.2022 48.35,-186.1778 53.9861,-190.3294"/>
<g id="a_edge17&#45;headlabel"><a xlink:href="dir_000034_000041.xhtml" target="_top" xlink:title="1">
<text text-anchor="middle" x="54.1403" y="-192.4075" font-family="Helvetica,sans-Serif" font-size="10.00" fill="#000000">1</text>
</a>
</g>
</g>
<!-- dir_bf9f26469d00835ba20ff8d80ee5a804&#45;&gt;dir_214608ef36d61442cb2b0c1c4e9a7def -->
<g id="edge18" class="edge">
<title>dir_bf9f26469d00835ba20ff8d80ee5a804&#45;&gt;dir_214608ef36d61442cb2b0c1c4e9a7def</title>
<path fill="none" stroke="#000000" d="M244.2585,-381.0634C257.6374,-377.6117 272.5555,-371.1378 280.7257,-359 302.3172,-326.9232 290.4125,-309.4336 280.7257,-272 264.6302,-209.8004 218.055,-149.2724 189.0516,-116.0814"/>
<polygon fill="#000000" stroke="#000000" points="191.3462,-113.3948 182.0857,-108.2476 186.1152,-118.0463 191.3462,-113.3948"/>
<g id="a_edge18&#45;headlabel"><a xlink:href="dir_000034_000000.xhtml" target="_top" xlink:title="890">
<text text-anchor="middle" x="195.8566" y="-111.6943" font-family="Helvetica,sans-Serif" font-size="10.00" fill="#000000">890</text>
</a>
</g>
</g>
<!-- dir_bf9f26469d00835ba20ff8d80ee5a804&#45;&gt;dir_aebb8dcc11953d78e620bbef0b9e2183 -->
<g id="edge19" class="edge">
<title>dir_bf9f26469d00835ba20ff8d80ee5a804&#45;&gt;dir_aebb8dcc11953d78e620bbef0b9e2183</title>
<path fill="none" stroke="#000000" d="M223.2199,-366.6772C226.6832,-356.9058 231.0165,-344.6797 234.8841,-333.7674"/>
<polygon fill="#000000" stroke="#000000" points="238.225,-334.8181 238.2668,-324.2234 231.6271,-332.4796 238.225,-334.8181"/>
<g id="a_edge19&#45;headlabel"><a xlink:href="dir_000034_000020.xhtml" target="_top" xlink:title="208">
<text text-anchor="middle" x="239.7004" y="-336.6547" font-family="Helvetica,sans-Serif" font-size="10.00" fill="#000000">208</text>
</a>
</g>
</g>
<!-- dir_bf9f26469d00835ba20ff8d80ee5a804&#45;&gt;dir_5815af820a9cc9481f1d0990a0d60286 -->
<g id="edge20" class="edge">
<title>dir_bf9f26469d00835ba20ff8d80ee5a804&#45;&gt;dir_5815af820a9cc9481f1d0990a0d60286</title>
<path fill="none" stroke="#000000" d="M244.4301,-382.1558C262.2798,-379.0507 285.0042,-372.5603 300.7257,-359 347.3898,-318.7508 360.7257,-295.6241 360.7257,-234 360.7257,-234 360.7257,-234 360.7257,-162 360.7257,-83.928 258.4806,-43.5136 201.6854,-27.0867"/>
<polygon fill="#000000" stroke="#000000" points="202.5511,-23.6946 191.9787,-24.3842 200.6735,-30.4381 202.5511,-23.6946"/>
<g id="a_edge20&#45;headlabel"><a xlink:href="dir_000034_000028.xhtml" target="_top" xlink:title="9">
<text text-anchor="middle" x="206.7755" y="-19.4234" font-family="Helvetica,sans-Serif" font-size="10.00" fill="#000000">9</text>
</a>
</g>
</g>
<!-- dir_bf9f26469d00835ba20ff8d80ee5a804&#45;&gt;dir_fdedb0aba14d44ce9d99bc100e026e6a -->
<g id="edge21" class="edge">
<title>dir_bf9f26469d00835ba20ff8d80ee5a804&#45;&gt;dir_fdedb0aba14d44ce9d99bc100e026e6a</title>
<path fill="none" stroke="#000000" d="M208.9819,-366.9669C199.3767,-344.6399 182.4654,-305.4626 167.7257,-272 166.209,-268.5565 164.606,-264.942 163.0147,-261.3684"/>
<polygon fill="#000000" stroke="#000000" points="166.1711,-259.853 158.8966,-252.1502 159.7798,-262.7082 166.1711,-259.853"/>
<g id="a_edge21&#45;headlabel"><a xlink:href="dir_000034_000019.xhtml" target="_top" xlink:title="124">
<text text-anchor="middle" x="170.2296" y="-259.4769" font-family="Helvetica,sans-Serif" font-size="10.00" fill="#000000">124</text>
</a>
</g>
</g>
<!-- dir_5815af820a9cc9481f1d0990a0d60286&#45;&gt;dir_214608ef36d61442cb2b0c1c4e9a7def -->
<g id="edge22" class="edge">
<title>dir_5815af820a9cc9481f1d0990a0d60286&#45;&gt;dir_214608ef36d61442cb2b0c1c4e9a7def</title>
<path fill="none" stroke="#000000" d="M170.7017,-36.4133C171.4328,-44.0593 171.646,-53.1084 171.3412,-61.5726"/>
<polygon fill="#000000" stroke="#000000" points="167.8305,-61.6264 170.6781,-71.8314 174.8159,-62.078 167.8305,-61.6264"/>
<g id="a_edge22&#45;headlabel"><a xlink:href="dir_000028_000000.xhtml" target="_top" xlink:title="6">
<text text-anchor="middle" x="165.2289" y="-55.3562" font-family="Helvetica,sans-Serif" font-size="10.00" fill="#000000">6</text>
</a>
</g>
</g>
<!-- dir_fdedb0aba14d44ce9d99bc100e026e6a&#45;&gt;dir_cbdb8362360e11eafe2fa3bc74cf0ffd -->
<g id="edge23" class="edge">
<title>dir_fdedb0aba14d44ce9d99bc100e026e6a&#45;&gt;dir_cbdb8362360e11eafe2fa3bc74cf0ffd</title>
<path fill="none" stroke="#000000" d="M130.7907,-215.8314C121.2475,-207.1337 109.6659,-196.5783 99.2951,-187.1265"/>
<polygon fill="#000000" stroke="#000000" points="101.403,-184.3121 91.6544,-180.1628 96.6877,-189.4857 101.403,-184.3121"/>
<g id="a_edge23&#45;headlabel"><a xlink:href="dir_000019_000041.xhtml" target="_top" xlink:title="1">
<text text-anchor="middle" x="105.9722" y="-182.1349" font-family="Helvetica,sans-Serif" font-size="10.00" fill="#000000">1</text>
</a>
</g>
</g>
<!-- dir_fdedb0aba14d44ce9d99bc100e026e6a&#45;&gt;dir_214608ef36d61442cb2b0c1c4e9a7def -->
<g id="edge24" class="edge">
<title>dir_fdedb0aba14d44ce9d99bc100e026e6a&#45;&gt;dir_214608ef36d61442cb2b0c1c4e9a7def</title>
<path fill="none" stroke="#000000" d="M152.4988,-215.7623C154.8867,-191.201 159.16,-147.2474 161.9691,-118.3541"/>
<polygon fill="#000000" stroke="#000000" points="165.4828,-118.3814 162.967,-108.0896 158.5157,-117.704 165.4828,-118.3814"/>
<g id="a_edge24&#45;headlabel"><a xlink:href="dir_000019_000000.xhtml" target="_top" xlink:title="17">
<text text-anchor="middle" x="167.961" y="-119.7339" font-family="Helvetica,sans-Serif" font-size="10.00" fill="#000000">17</text>
</a>
</g>
</g>
<!-- dir_fdedb0aba14d44ce9d99bc100e026e6a&#45;&gt;dir_5815af820a9cc9481f1d0990a0d60286 -->
<g id="edge25" class="edge">
<title>dir_fdedb0aba14d44ce9d99bc100e026e6a&#45;&gt;dir_5815af820a9cc9481f1d0990a0d60286</title>
<path fill="none" stroke="#000000" d="M163.6255,-215.9035C179.5281,-192.3747 205.681,-149.381 215.7257,-108 219.4999,-92.4515 221.6369,-86.868 215.7257,-72 211.4581,-61.2659 203.9326,-51.4321 195.9518,-43.1828"/>
<polygon fill="#000000" stroke="#000000" points="198.2036,-40.4921 188.5748,-36.072 193.3456,-45.5319 198.2036,-40.4921"/>
<g id="a_edge25&#45;headlabel"><a xlink:href="dir_000019_000028.xhtml" target="_top" xlink:title="2">
<text text-anchor="middle" x="202.7621" y="-38.4425" font-family="Helvetica,sans-Serif" font-size="10.00" fill="#000000">2</text>
</a>
</g>
</g>
</g>
</svg>
