<?xml version="1.0" encoding="UTF-8" standalone="no"?>
<!DOCTYPE svg PUBLIC "-//W3C//DTD SVG 1.1//EN"
 "http://www.w3.org/Graphics/SVG/1.1/DTD/svg11.dtd">
<!-- Generated by graphviz version 2.40.1 (20161225.0304)
 -->
<!-- Title: src/core/experimental/dynamic_fusion Pages: 1 -->
<svg width="455pt" height="519pt"
 viewBox="0.00 0.00 455.00 519.00" xmlns="http://www.w3.org/2000/svg" xmlns:xlink="http://www.w3.org/1999/xlink">
<g id="graph0" class="graph" transform="scale(1 1) rotate(0) translate(4 515)">
<title>src/core/experimental/dynamic_fusion</title>
<polygon fill="#ffffff" stroke="transparent" points="-4,4 -4,-515 451,-515 451,4 -4,4"/>
<g id="clust1" class="cluster">
<title>clusterdir_b7458c46e3e273561b07052265b89043</title>
<g id="a_clust1"><a xlink:href="dir_b7458c46e3e273561b07052265b89043.xhtml" target="_top" xlink:title="experimental">
<polygon fill="#ddddee" stroke="#000000" points="185,-344 185,-503 439,-503 439,-344 185,-344"/>
<text text-anchor="middle" x="312" y="-491" font-family="Helvetica,sans-Serif" font-size="10.00" fill="#000000">experimental</text>
</a>
</g>
</g>
<g id="clust2" class="cluster">
<title>clusterdir_4ba1de0cc05164046c8a7675a91253dd</title>
<g id="a_clust2"><a xlink:href="dir_4ba1de0cc05164046c8a7675a91253dd.xhtml" target="_top">
<polygon fill="#eeeeff" stroke="#000000" points="193,-352 193,-476 431,-476 431,-352 193,-352"/>
</a>
</g>
</g>
<!-- dir_4ba1de0cc05164046c8a7675a91253dd -->
<g id="node1" class="node">
<title>dir_4ba1de0cc05164046c8a7675a91253dd</title>
<text text-anchor="middle" x="318" y="-447.5" font-family="Helvetica,sans-Serif" font-size="10.00" fill="#000000">dynamic_fusion</text>
</g>
<!-- dir_145dd76969821cf771138378bb8274dc -->
<g id="node2" class="node">
<title>dir_145dd76969821cf771138378bb8274dc</title>
<g id="a_node2"><a xlink:href="dir_145dd76969821cf771138378bb8274dc.xhtml" target="_top" xlink:title="ClKernelBuildingImpl">
<polygon fill="#ffffff" stroke="#ff0000" points="320.5,-396 201.5,-396 201.5,-360 320.5,-360 320.5,-396"/>
<text text-anchor="middle" x="261" y="-375.5" font-family="Helvetica,sans-Serif" font-size="10.00" fill="#000000">ClKernelBuildingImpl</text>
</a>
</g>
</g>
<!-- dir_4ba1de0cc05164046c8a7675a91253dd&#45;&gt;dir_145dd76969821cf771138378bb8274dc -->
<g id="edge14" class="edge">
<title>dir_4ba1de0cc05164046c8a7675a91253dd&#45;&gt;dir_145dd76969821cf771138378bb8274dc</title>
<path fill="none" stroke="#000000" d="M303.6165,-431.8314C297.0514,-423.5386 289.1493,-413.557 281.9422,-404.4533"/>
<polygon fill="#000000" stroke="#000000" points="284.5284,-402.0813 275.5772,-396.4133 279.0401,-406.4262 284.5284,-402.0813"/>
<g id="a_edge14&#45;headlabel"><a xlink:href="dir_000031_000032.xhtml" target="_top" xlink:title="2">
<text text-anchor="middle" x="288.9857" y="-400.6373" font-family="Helvetica,sans-Serif" font-size="10.00" fill="#000000">2</text>
</a>
</g>
</g>
<!-- dir_4a5d79691feea64a5adaad9e433740c9 -->
<g id="node3" class="node">
<title>dir_4a5d79691feea64a5adaad9e433740c9</title>
<g id="a_node3"><a xlink:href="dir_4a5d79691feea64a5adaad9e433740c9.xhtml" target="_top" xlink:title="WorkloadImpl">
<polygon fill="#ffffff" stroke="#000000" points="423,-396 339,-396 339,-360 423,-360 423,-396"/>
<text text-anchor="middle" x="381" y="-375.5" font-family="Helvetica,sans-Serif" font-size="10.00" fill="#000000">WorkloadImpl</text>
</a>
</g>
</g>
<!-- dir_4ba1de0cc05164046c8a7675a91253dd&#45;&gt;dir_4a5d79691feea64a5adaad9e433740c9 -->
<g id="edge13" class="edge">
<title>dir_4ba1de0cc05164046c8a7675a91253dd&#45;&gt;dir_4a5d79691feea64a5adaad9e433740c9</title>
<path fill="none" stroke="#000000" d="M333.8976,-431.8314C341.2278,-423.454 350.066,-413.3531 358.0969,-404.1749"/>
<polygon fill="#000000" stroke="#000000" points="360.9373,-406.2438 364.8884,-396.4133 355.6693,-401.6343 360.9373,-406.2438"/>
<g id="a_edge13&#45;headlabel"><a xlink:href="dir_000031_000088.xhtml" target="_top" xlink:title="2">
<text text-anchor="middle" x="360.7071" y="-408.3187" font-family="Helvetica,sans-Serif" font-size="10.00" fill="#000000">2</text>
</a>
</g>
</g>
<!-- dir_34b4cee2b5900b653deb3438fc906cf4 -->
<g id="node4" class="node">
<title>dir_34b4cee2b5900b653deb3438fc906cf4</title>
<g id="a_node4"><a xlink:href="dir_34b4cee2b5900b653deb3438fc906cf4.xhtml" target="_top" xlink:title="common">
<polygon fill="none" stroke="#000000" points="125.5,-252 66.5,-252 66.5,-216 125.5,-216 125.5,-252"/>
<text text-anchor="middle" x="96" y="-231.5" font-family="Helvetica,sans-Serif" font-size="10.00" fill="#000000">common</text>
</a>
</g>
</g>
<!-- dir_145dd76969821cf771138378bb8274dc&#45;&gt;dir_34b4cee2b5900b653deb3438fc906cf4 -->
<g id="edge21" class="edge">
<title>dir_145dd76969821cf771138378bb8274dc&#45;&gt;dir_34b4cee2b5900b653deb3438fc906cf4</title>
<path fill="none" stroke="#000000" d="M238.8548,-359.9677C226.2003,-349.5727 210.0931,-336.1876 196,-324 171.0454,-302.4194 143.1849,-277.2541 123.2223,-259.0297"/>
<polygon fill="#000000" stroke="#000000" points="125.4567,-256.3301 115.7154,-252.1637 120.7323,-261.4955 125.4567,-256.3301"/>
<g id="a_edge21&#45;headlabel"><a xlink:href="dir_000032_000045.xhtml" target="_top" xlink:title="1">
<text text-anchor="middle" x="130.0254" y="-254.161" font-family="Helvetica,sans-Serif" font-size="10.00" fill="#000000">1</text>
</a>
</g>
</g>
<!-- dir_8c278f79c760e5c5fbd911f9870614c1 -->
<g id="node5" class="node">
<title>dir_8c278f79c760e5c5fbd911f9870614c1</title>
<g id="a_node5"><a xlink:href="dir_8c278f79c760e5c5fbd911f9870614c1.xhtml" target="_top" xlink:title="CL">
<polygon fill="#ffffff" stroke="#ff0000" points="350,-252 296,-252 296,-216 350,-216 350,-252"/>
<text text-anchor="middle" x="323" y="-231.5" font-family="Helvetica,sans-Serif" font-size="10.00" fill="#000000">CL</text>
</a>
</g>
</g>
<!-- dir_145dd76969821cf771138378bb8274dc&#45;&gt;dir_8c278f79c760e5c5fbd911f9870614c1 -->
<g id="edge22" class="edge">
<title>dir_145dd76969821cf771138378bb8274dc&#45;&gt;dir_8c278f79c760e5c5fbd911f9870614c1</title>
<path fill="none" stroke="#000000" d="M268.8523,-359.7623C279.5205,-334.9846 298.6859,-290.4714 311.1193,-261.5939"/>
<polygon fill="#000000" stroke="#000000" points="314.4715,-262.6586 315.2114,-252.0896 308.0421,-259.8903 314.4715,-262.6586"/>
<g id="a_edge22&#45;headlabel"><a xlink:href="dir_000032_000021.xhtml" target="_top" xlink:title="1">
<text text-anchor="middle" x="315.6578" y="-264.583" font-family="Helvetica,sans-Serif" font-size="10.00" fill="#000000">1</text>
</a>
</g>
</g>
<!-- dir_cf895c1ed808af158264b2f3d8d7f8f0 -->
<g id="node6" class="node">
<title>dir_cf895c1ed808af158264b2f3d8d7f8f0</title>
<g id="a_node6"><a xlink:href="dir_cf895c1ed808af158264b2f3d8d7f8f0.xhtml" target="_top" xlink:title="gpu">
<polygon fill="#ffffff" stroke="#ff0000" points="259,-324 205,-324 205,-288 259,-288 259,-324"/>
<text text-anchor="middle" x="232" y="-303.5" font-family="Helvetica,sans-Serif" font-size="10.00" fill="#000000">gpu</text>
</a>
</g>
</g>
<!-- dir_145dd76969821cf771138378bb8274dc&#45;&gt;dir_cf895c1ed808af158264b2f3d8d7f8f0 -->
<g id="edge23" class="edge">
<title>dir_145dd76969821cf771138378bb8274dc&#45;&gt;dir_cf895c1ed808af158264b2f3d8d7f8f0</title>
<path fill="none" stroke="#000000" d="M253.6821,-359.8314C250.5124,-351.9617 246.73,-342.5712 243.2187,-333.8533"/>
<polygon fill="#000000" stroke="#000000" points="246.3992,-332.3815 239.4165,-324.4133 239.9061,-334.9968 246.3992,-332.3815"/>
<g id="a_edge23&#45;headlabel"><a xlink:href="dir_000032_000004.xhtml" target="_top" xlink:title="1">
<text text-anchor="middle" x="250.3758" y="-332.155" font-family="Helvetica,sans-Serif" font-size="10.00" fill="#000000">1</text>
</a>
</g>
</g>
<!-- dir_cbdb8362360e11eafe2fa3bc74cf0ffd -->
<g id="node7" class="node">
<title>dir_cbdb8362360e11eafe2fa3bc74cf0ffd</title>
<g id="a_node7"><a xlink:href="dir_cbdb8362360e11eafe2fa3bc74cf0ffd.xhtml" target="_top" xlink:title="utils">
<polygon fill="#ffffff" stroke="#ff0000" points="228,-36 174,-36 174,0 228,0 228,-36"/>
<text text-anchor="middle" x="201" y="-15.5" font-family="Helvetica,sans-Serif" font-size="10.00" fill="#000000">utils</text>
</a>
</g>
</g>
<!-- dir_145dd76969821cf771138378bb8274dc&#45;&gt;dir_cbdb8362360e11eafe2fa3bc74cf0ffd -->
<g id="edge24" class="edge">
<title>dir_145dd76969821cf771138378bb8274dc&#45;&gt;dir_cbdb8362360e11eafe2fa3bc74cf0ffd</title>
<path fill="none" stroke="#000000" d="M201.4485,-371.442C124.4169,-359.2771 0,-325.4709 0,-234 0,-234 0,-234 0,-162 0,-82.2239 105.9261,-42.3865 163.9853,-26.5429"/>
<polygon fill="#000000" stroke="#000000" points="165.107,-29.8671 173.8922,-23.9451 163.3315,-23.0961 165.107,-29.8671"/>
<g id="a_edge24&#45;headlabel"><a xlink:href="dir_000032_000041.xhtml" target="_top" xlink:title="1">
<text text-anchor="middle" x="162.3501" y="-31.0252" font-family="Helvetica,sans-Serif" font-size="10.00" fill="#000000">1</text>
</a>
</g>
</g>
<!-- dir_707aa52d67938117542c6646238d6f70 -->
<g id="node8" class="node">
<title>dir_707aa52d67938117542c6646238d6f70</title>
<g id="a_node8"><a xlink:href="dir_707aa52d67938117542c6646238d6f70.xhtml" target="_top" xlink:title="helpers">
<polygon fill="none" stroke="#000000" points="346,-180 292,-180 292,-144 346,-144 346,-180"/>
<text text-anchor="middle" x="319" y="-159.5" font-family="Helvetica,sans-Serif" font-size="10.00" fill="#000000">helpers</text>
</a>
</g>
</g>
<!-- dir_145dd76969821cf771138378bb8274dc&#45;&gt;dir_707aa52d67938117542c6646238d6f70 -->
<g id="edge25" class="edge">
<title>dir_145dd76969821cf771138378bb8274dc&#45;&gt;dir_707aa52d67938117542c6646238d6f70</title>
<path fill="none" stroke="#000000" d="M282.1996,-359.6516C306.3598,-337.1555 344.3886,-296.4967 359,-252 363.9917,-236.7986 364.0144,-231.1939 359,-216 355.7092,-206.0288 349.7884,-196.3944 343.4936,-188.0924"/>
<polygon fill="#000000" stroke="#000000" points="346.172,-185.8384 337.1576,-180.2714 340.7328,-190.2448 346.172,-185.8384"/>
<g id="a_edge25&#45;headlabel"><a xlink:href="dir_000032_000033.xhtml" target="_top" xlink:title="6">
<text text-anchor="middle" x="350.6408" y="-184.3442" font-family="Helvetica,sans-Serif" font-size="10.00" fill="#000000">6</text>
</a>
</g>
</g>
<!-- dir_214608ef36d61442cb2b0c1c4e9a7def -->
<g id="node9" class="node">
<title>dir_214608ef36d61442cb2b0c1c4e9a7def</title>
<g id="a_node9"><a xlink:href="dir_214608ef36d61442cb2b0c1c4e9a7def.xhtml" target="_top" xlink:title="arm_compute">
<polygon fill="#ffffff" stroke="#ff0000" points="313,-108 229,-108 229,-72 313,-72 313,-108"/>
<text text-anchor="middle" x="271" y="-87.5" font-family="Helvetica,sans-Serif" font-size="10.00" fill="#000000">arm_compute</text>
</a>
</g>
</g>
<!-- dir_145dd76969821cf771138378bb8274dc&#45;&gt;dir_214608ef36d61442cb2b0c1c4e9a7def -->
<g id="edge26" class="edge">
<title>dir_145dd76969821cf771138378bb8274dc&#45;&gt;dir_214608ef36d61442cb2b0c1c4e9a7def</title>
<path fill="none" stroke="#000000" d="M298.4629,-359.9389C314.1544,-350.899 331.5921,-338.7227 344,-324 366.4521,-297.3592 367.9663,-286.1226 375,-252 379.3135,-231.0738 375.9685,-150.3196 372,-144 360.7379,-126.0657 341.3649,-113.7074 322.5791,-105.3896"/>
<polygon fill="#000000" stroke="#000000" points="323.7295,-102.0783 313.1498,-101.5123 321.0674,-108.5524 323.7295,-102.0783"/>
<g id="a_edge26&#45;headlabel"><a xlink:href="dir_000032_000000.xhtml" target="_top" xlink:title="10">
<text text-anchor="middle" x="328.1338" y="-98.3194" font-family="Helvetica,sans-Serif" font-size="10.00" fill="#000000">10</text>
</a>
</g>
</g>
<!-- dir_5815af820a9cc9481f1d0990a0d60286 -->
<g id="node10" class="node">
<title>dir_5815af820a9cc9481f1d0990a0d60286</title>
<g id="a_node10"><a xlink:href="dir_5815af820a9cc9481f1d0990a0d60286.xhtml" target="_top" xlink:title="support">
<polygon fill="none" stroke="#000000" points="236,-180 182,-180 182,-144 236,-144 236,-180"/>
<text text-anchor="middle" x="209" y="-159.5" font-family="Helvetica,sans-Serif" font-size="10.00" fill="#000000">support</text>
</a>
</g>
</g>
<!-- dir_145dd76969821cf771138378bb8274dc&#45;&gt;dir_5815af820a9cc9481f1d0990a0d60286 -->
<g id="edge27" class="edge">
<title>dir_145dd76969821cf771138378bb8274dc&#45;&gt;dir_5815af820a9cc9481f1d0990a0d60286</title>
<path fill="none" stroke="#000000" d="M201.4312,-360.4969C152.0234,-342.3452 85.4374,-308.5235 57,-252 49.8091,-237.707 47.7723,-229.071 57,-216 70.5493,-196.8075 131.6289,-179.577 172.1165,-169.9808"/>
<polygon fill="#000000" stroke="#000000" points="172.9725,-173.3752 181.9248,-167.709 171.3929,-166.5558 172.9725,-173.3752"/>
<g id="a_edge27&#45;headlabel"><a xlink:href="dir_000032_000028.xhtml" target="_top" xlink:title="2">
<text text-anchor="middle" x="170.1112" y="-174.4523" font-family="Helvetica,sans-Serif" font-size="10.00" fill="#000000">2</text>
</a>
</g>
</g>
<!-- dir_4a5d79691feea64a5adaad9e433740c9&#45;&gt;dir_8c278f79c760e5c5fbd911f9870614c1 -->
<g id="edge18" class="edge">
<title>dir_4a5d79691feea64a5adaad9e433740c9&#45;&gt;dir_8c278f79c760e5c5fbd911f9870614c1</title>
<path fill="none" stroke="#000000" d="M373.6543,-359.7623C363.6744,-334.9846 345.7454,-290.4714 334.1142,-261.5939"/>
<polygon fill="#000000" stroke="#000000" points="337.2688,-260.0578 330.2861,-252.0896 330.7757,-262.6731 337.2688,-260.0578"/>
<g id="a_edge18&#45;headlabel"><a xlink:href="dir_000088_000021.xhtml" target="_top" xlink:title="1">
<text text-anchor="middle" x="341.2454" y="-259.8314" font-family="Helvetica,sans-Serif" font-size="10.00" fill="#000000">1</text>
</a>
</g>
</g>
<!-- dir_4a5d79691feea64a5adaad9e433740c9&#45;&gt;dir_214608ef36d61442cb2b0c1c4e9a7def -->
<g id="edge19" class="edge">
<title>dir_4a5d79691feea64a5adaad9e433740c9&#45;&gt;dir_214608ef36d61442cb2b0c1c4e9a7def</title>
<path fill="none" stroke="#000000" d="M388.0802,-359.9859C403.2925,-318.0539 434.2082,-212.3008 389,-144 374.0817,-121.4614 347.2308,-108.1881 322.9078,-100.446"/>
<polygon fill="#000000" stroke="#000000" points="323.6168,-97.0066 313.036,-97.5511 321.647,-103.7237 323.6168,-97.0066"/>
<g id="a_edge19&#45;headlabel"><a xlink:href="dir_000088_000000.xhtml" target="_top" xlink:title="15">
<text text-anchor="middle" x="327.8651" y="-92.7935" font-family="Helvetica,sans-Serif" font-size="10.00" fill="#000000">15</text>
</a>
</g>
</g>
<!-- dir_4a5d79691feea64a5adaad9e433740c9&#45;&gt;dir_5815af820a9cc9481f1d0990a0d60286 -->
<g id="edge20" class="edge">
<title>dir_4a5d79691feea64a5adaad9e433740c9&#45;&gt;dir_5815af820a9cc9481f1d0990a0d60286</title>
<path fill="none" stroke="#000000" d="M384.0943,-359.8676C388.5826,-327.2192 393.0034,-258.0396 359,-216 344.5091,-198.0843 285.4127,-180.6298 245.865,-170.6156"/>
<polygon fill="#000000" stroke="#000000" points="246.5726,-167.1851 236.024,-168.1741 244.887,-173.9791 246.5726,-167.1851"/>
<g id="a_edge20&#45;headlabel"><a xlink:href="dir_000088_000028.xhtml" target="_top" xlink:title="5">
<text text-anchor="middle" x="250.745" y="-162.7948" font-family="Helvetica,sans-Serif" font-size="10.00" fill="#000000">5</text>
</a>
</g>
</g>
<!-- dir_8c278f79c760e5c5fbd911f9870614c1&#45;&gt;dir_cf895c1ed808af158264b2f3d8d7f8f0 -->
<g id="edge1" class="edge">
<title>dir_8c278f79c760e5c5fbd911f9870614c1&#45;&gt;dir_cf895c1ed808af158264b2f3d8d7f8f0</title>
<path fill="none" stroke="#000000" d="M306.1466,-252.0336C295.1768,-261.4465 280.627,-273.063 267.2732,-283.1044"/>
<polygon fill="#000000" stroke="#000000" points="265.1068,-280.3535 259.1559,-289.1192 269.2743,-285.9777 265.1068,-280.3535"/>
<g id="a_edge1&#45;headlabel"><a xlink:href="dir_000021_000004.xhtml" target="_top" xlink:title="4">
<text text-anchor="middle" x="266.3046" y="-273.4322" font-family="Helvetica,sans-Serif" font-size="10.00" fill="#000000">4</text>
</a>
</g>
</g>
<!-- dir_8c278f79c760e5c5fbd911f9870614c1&#45;&gt;dir_707aa52d67938117542c6646238d6f70 -->
<g id="edge2" class="edge">
<title>dir_8c278f79c760e5c5fbd911f9870614c1&#45;&gt;dir_707aa52d67938117542c6646238d6f70</title>
<path fill="none" stroke="#000000" d="M321.9906,-215.8314C321.5628,-208.131 321.0541,-198.9743 320.5787,-190.4166"/>
<polygon fill="#000000" stroke="#000000" points="324.0724,-190.2037 320.023,-180.4133 317.0831,-190.592 324.0724,-190.2037"/>
<g id="a_edge2&#45;headlabel"><a xlink:href="dir_000021_000033.xhtml" target="_top" xlink:title="80">
<text text-anchor="middle" x="327.1066" y="-191.1353" font-family="Helvetica,sans-Serif" font-size="10.00" fill="#000000">80</text>
</a>
</g>
</g>
<!-- dir_8c278f79c760e5c5fbd911f9870614c1&#45;&gt;dir_214608ef36d61442cb2b0c1c4e9a7def -->
<g id="edge3" class="edge">
<title>dir_8c278f79c760e5c5fbd911f9870614c1&#45;&gt;dir_214608ef36d61442cb2b0c1c4e9a7def</title>
<path fill="none" stroke="#000000" d="M338.2351,-215.6981C351.8387,-196.9896 367.7939,-167.4341 355,-144 347.6426,-130.5237 335.3227,-119.9089 322.3543,-111.7885"/>
<polygon fill="#000000" stroke="#000000" points="323.7334,-108.5427 313.3256,-106.5608 320.2258,-114.6005 323.7334,-108.5427"/>
<g id="a_edge3&#45;headlabel"><a xlink:href="dir_000021_000000.xhtml" target="_top" xlink:title="274">
<text text-anchor="middle" x="328.2669" y="-105.3868" font-family="Helvetica,sans-Serif" font-size="10.00" fill="#000000">274</text>
</a>
</g>
</g>
<!-- dir_8c278f79c760e5c5fbd911f9870614c1&#45;&gt;dir_5815af820a9cc9481f1d0990a0d60286 -->
<g id="edge4" class="edge">
<title>dir_8c278f79c760e5c5fbd911f9870614c1&#45;&gt;dir_5815af820a9cc9481f1d0990a0d60286</title>
<path fill="none" stroke="#000000" d="M295.9836,-216.937C280.7616,-207.3231 261.5515,-195.1904 245.0583,-184.7737"/>
<polygon fill="#000000" stroke="#000000" points="246.5414,-181.5708 236.2176,-179.19 242.8035,-187.4892 246.5414,-181.5708"/>
<g id="a_edge4&#45;headlabel"><a xlink:href="dir_000021_000028.xhtml" target="_top" xlink:title="43">
<text text-anchor="middle" x="251.0968" y="-178.5897" font-family="Helvetica,sans-Serif" font-size="10.00" fill="#000000">43</text>
</a>
</g>
</g>
<!-- dir_cf895c1ed808af158264b2f3d8d7f8f0&#45;&gt;dir_34b4cee2b5900b653deb3438fc906cf4 -->
<g id="edge5" class="edge">
<title>dir_cf895c1ed808af158264b2f3d8d7f8f0&#45;&gt;dir_34b4cee2b5900b653deb3438fc906cf4</title>
<path fill="none" stroke="#000000" d="M204.8052,-291.6028C184.6389,-280.9265 156.8746,-266.2277 134.4403,-254.3507"/>
<polygon fill="#000000" stroke="#000000" points="135.9803,-251.2058 125.5047,-249.6202 132.705,-257.3923 135.9803,-251.2058"/>
<g id="a_edge5&#45;headlabel"><a xlink:href="dir_000004_000045.xhtml" target="_top" xlink:title="50">
<text text-anchor="middle" x="140.4856" y="-247.8783" font-family="Helvetica,sans-Serif" font-size="10.00" fill="#000000">50</text>
</a>
</g>
</g>
<!-- dir_cf895c1ed808af158264b2f3d8d7f8f0&#45;&gt;dir_8c278f79c760e5c5fbd911f9870614c1 -->
<g id="edge6" class="edge">
<title>dir_cf895c1ed808af158264b2f3d8d7f8f0&#45;&gt;dir_8c278f79c760e5c5fbd911f9870614c1</title>
<path fill="none" stroke="#000000" d="M249.0107,-287.8314C259.9562,-278.4477 274.4211,-266.9016 287.7051,-256.9119"/>
<polygon fill="#000000" stroke="#000000" points="289.8315,-259.6925 295.7817,-250.9263 285.6635,-254.0685 289.8315,-259.6925"/>
<g id="a_edge6&#45;headlabel"><a xlink:href="dir_000004_000021.xhtml" target="_top" xlink:title="47">
<text text-anchor="middle" x="288.6341" y="-261.6138" font-family="Helvetica,sans-Serif" font-size="10.00" fill="#000000">47</text>
</a>
</g>
</g>
<!-- dir_cf895c1ed808af158264b2f3d8d7f8f0&#45;&gt;dir_cbdb8362360e11eafe2fa3bc74cf0ffd -->
<g id="edge7" class="edge">
<title>dir_cf895c1ed808af158264b2f3d8d7f8f0&#45;&gt;dir_cbdb8362360e11eafe2fa3bc74cf0ffd</title>
<path fill="none" stroke="#000000" d="M220.2782,-287.717C205.83,-263.9911 182.077,-220.7894 173,-180 162.5944,-133.2401 177.8679,-78.1612 189.6221,-45.7699"/>
<polygon fill="#000000" stroke="#000000" points="193.0191,-46.6814 193.2777,-36.0897 186.4705,-44.2083 193.0191,-46.6814"/>
<g id="a_edge7&#45;headlabel"><a xlink:href="dir_000004_000041.xhtml" target="_top" xlink:title="2">
<text text-anchor="middle" x="194.4054" y="-48.5473" font-family="Helvetica,sans-Serif" font-size="10.00" fill="#000000">2</text>
</a>
</g>
</g>
<!-- dir_cf895c1ed808af158264b2f3d8d7f8f0&#45;&gt;dir_707aa52d67938117542c6646238d6f70 -->
<g id="edge8" class="edge">
<title>dir_cf895c1ed808af158264b2f3d8d7f8f0&#45;&gt;dir_707aa52d67938117542c6646238d6f70</title>
<path fill="none" stroke="#000000" d="M243.0186,-287.7623C258.1192,-262.7682 285.3525,-217.6924 302.7836,-188.8409"/>
<polygon fill="#000000" stroke="#000000" points="305.8954,-190.4587 308.0709,-180.0896 299.9039,-186.8389 305.8954,-190.4587"/>
<g id="a_edge8&#45;headlabel"><a xlink:href="dir_000004_000033.xhtml" target="_top" xlink:title="97">
<text text-anchor="middle" x="306.4668" y="-192.5036" font-family="Helvetica,sans-Serif" font-size="10.00" fill="#000000">97</text>
</a>
</g>
</g>
<!-- dir_cf895c1ed808af158264b2f3d8d7f8f0&#45;&gt;dir_214608ef36d61442cb2b0c1c4e9a7def -->
<g id="edge9" class="edge">
<title>dir_cf895c1ed808af158264b2f3d8d7f8f0&#45;&gt;dir_214608ef36d61442cb2b0c1c4e9a7def</title>
<path fill="none" stroke="#000000" d="M235.258,-287.9555C242.0543,-250.3144 257.7857,-163.1867 265.922,-118.1246"/>
<polygon fill="#000000" stroke="#000000" points="269.3912,-118.6079 267.7238,-108.1451 262.5026,-117.364 269.3912,-118.6079"/>
<g id="a_edge9&#45;headlabel"><a xlink:href="dir_000004_000000.xhtml" target="_top" xlink:title="474">
<text text-anchor="middle" x="271.5467" y="-120.1497" font-family="Helvetica,sans-Serif" font-size="10.00" fill="#000000">474</text>
</a>
</g>
</g>
<!-- dir_cf895c1ed808af158264b2f3d8d7f8f0&#45;&gt;dir_5815af820a9cc9481f1d0990a0d60286 -->
<g id="edge10" class="edge">
<title>dir_cf895c1ed808af158264b2f3d8d7f8f0&#45;&gt;dir_5815af820a9cc9481f1d0990a0d60286</title>
<path fill="none" stroke="#000000" d="M225.5455,-287.7395C222.151,-277.3855 218.2401,-264.1148 216,-252 212.2065,-231.4842 210.4655,-207.9678 209.6681,-190.1194"/>
<polygon fill="#000000" stroke="#000000" points="213.1638,-189.936 209.2914,-180.0742 206.1687,-190.1983 213.1638,-189.936"/>
<g id="a_edge10&#45;headlabel"><a xlink:href="dir_000004_000028.xhtml" target="_top" xlink:title="100">
<text text-anchor="middle" x="216.1356" y="-190.9217" font-family="Helvetica,sans-Serif" font-size="10.00" fill="#000000">100</text>
</a>
</g>
</g>
<!-- dir_cbdb8362360e11eafe2fa3bc74cf0ffd&#45;&gt;dir_214608ef36d61442cb2b0c1c4e9a7def -->
<g id="edge11" class="edge">
<title>dir_cbdb8362360e11eafe2fa3bc74cf0ffd&#45;&gt;dir_214608ef36d61442cb2b0c1c4e9a7def</title>
<path fill="none" stroke="#000000" d="M224.6101,-36.1628C233.7308,-44.6891 243.9389,-55.0016 252.5212,-64.3099"/>
<polygon fill="#000000" stroke="#000000" points="249.998,-66.7384 259.2884,-71.8314 255.2018,-62.0564 249.998,-66.7384"/>
<g id="a_edge11&#45;headlabel"><a xlink:href="dir_000041_000000.xhtml" target="_top" xlink:title="41">
<text text-anchor="middle" x="245.4831" y="-63.4652" font-family="Helvetica,sans-Serif" font-size="10.00" fill="#000000">41</text>
</a>
</g>
</g>
<!-- dir_cbdb8362360e11eafe2fa3bc74cf0ffd&#45;&gt;dir_5815af820a9cc9481f1d0990a0d60286 -->
<g id="edge12" class="edge">
<title>dir_cbdb8362360e11eafe2fa3bc74cf0ffd&#45;&gt;dir_5815af820a9cc9481f1d0990a0d60286</title>
<path fill="none" stroke="#000000" d="M202.005,-36.0896C203.3651,-60.5727 205.8065,-104.5174 207.4151,-133.4713"/>
<polygon fill="#000000" stroke="#000000" points="203.9374,-133.9719 207.9868,-143.7623 210.9266,-133.5835 203.9374,-133.9719"/>
<g id="a_edge12&#45;headlabel"><a xlink:href="dir_000041_000028.xhtml" target="_top" xlink:title="4">
<text text-anchor="middle" x="200.9032" y="-128.0403" font-family="Helvetica,sans-Serif" font-size="10.00" fill="#000000">4</text>
</a>
</g>
</g>
<!-- dir_707aa52d67938117542c6646238d6f70&#45;&gt;dir_214608ef36d61442cb2b0c1c4e9a7def -->
<g id="edge15" class="edge">
<title>dir_707aa52d67938117542c6646238d6f70&#45;&gt;dir_214608ef36d61442cb2b0c1c4e9a7def</title>
<path fill="none" stroke="#000000" d="M306.8876,-143.8314C301.4719,-135.7079 294.9758,-125.9637 289.0079,-117.0118"/>
<polygon fill="#000000" stroke="#000000" points="291.7347,-114.7923 283.2755,-108.4133 285.9104,-118.6753 291.7347,-114.7923"/>
<g id="a_edge15&#45;headlabel"><a xlink:href="dir_000033_000000.xhtml" target="_top" xlink:title="15">
<text text-anchor="middle" x="296.091" y="-113.7083" font-family="Helvetica,sans-Serif" font-size="10.00" fill="#000000">15</text>
</a>
</g>
</g>
<!-- dir_214608ef36d61442cb2b0c1c4e9a7def&#45;&gt;dir_cbdb8362360e11eafe2fa3bc74cf0ffd -->
<g id="edge16" class="edge">
<title>dir_214608ef36d61442cb2b0c1c4e9a7def&#45;&gt;dir_cbdb8362360e11eafe2fa3bc74cf0ffd</title>
<path fill="none" stroke="#000000" d="M247.3837,-71.8314C238.3321,-63.3694 228.2103,-53.1489 219.6698,-43.8971"/>
<polygon fill="#000000" stroke="#000000" points="222.2202,-41.499 212.9258,-36.4133 217.0201,-46.185 222.2202,-41.499"/>
<g id="a_edge16&#45;headlabel"><a xlink:href="dir_000000_000041.xhtml" target="_top" xlink:title="1">
<text text-anchor="middle" x="226.7357" y="-39.7686" font-family="Helvetica,sans-Serif" font-size="10.00" fill="#000000">1</text>
</a>
</g>
</g>
<!-- dir_214608ef36d61442cb2b0c1c4e9a7def&#45;&gt;dir_5815af820a9cc9481f1d0990a0d60286 -->
<g id="edge17" class="edge">
<title>dir_214608ef36d61442cb2b0c1c4e9a7def&#45;&gt;dir_5815af820a9cc9481f1d0990a0d60286</title>
<path fill="none" stroke="#000000" d="M261.1201,-108.4133C254.6169,-116.9088 245.9825,-127.1366 237.5653,-136.3696"/>
<polygon fill="#000000" stroke="#000000" points="234.8645,-134.1337 230.5976,-143.8314 239.9807,-138.9112 234.8645,-134.1337"/>
<g id="a_edge17&#45;headlabel"><a xlink:href="dir_000000_000028.xhtml" target="_top" xlink:title="18">
<text text-anchor="middle" x="235.2426" y="-127.0687" font-family="Helvetica,sans-Serif" font-size="10.00" fill="#000000">18</text>
</a>
</g>
</g>
<!-- dir_5815af820a9cc9481f1d0990a0d60286&#45;&gt;dir_214608ef36d61442cb2b0c1c4e9a7def -->
<g id="edge28" class="edge">
<title>dir_5815af820a9cc9481f1d0990a0d60286&#45;&gt;dir_214608ef36d61442cb2b0c1c4e9a7def</title>
<path fill="none" stroke="#000000" d="M218.6928,-143.8314C225.1549,-135.3694 233.7707,-125.1489 242.1917,-115.8971"/>
<polygon fill="#000000" stroke="#000000" points="244.9095,-118.1146 249.1681,-108.4133 239.7892,-113.3414 244.9095,-118.1146"/>
<g id="a_edge28&#45;headlabel"><a xlink:href="dir_000028_000000.xhtml" target="_top" xlink:title="6">
<text text-anchor="middle" x="244.5353" y="-120.1799" font-family="Helvetica,sans-Serif" font-size="10.00" fill="#000000">6</text>
</a>
</g>
</g>
</g>
</svg>
