<?xml version="1.0" encoding="UTF-8" standalone="no"?>
<!DOCTYPE svg PUBLIC "-//W3C//DTD SVG 1.1//EN"
 "http://www.w3.org/Graphics/SVG/1.1/DTD/svg11.dtd">
<!-- Generated by graphviz version 2.40.1 (20161225.0304)
 -->
<!-- Title: examples Pages: 1 -->
<svg width="352pt" height="420pt"
 viewBox="0.00 0.00 352.31 420.00" xmlns="http://www.w3.org/2000/svg" xmlns:xlink="http://www.w3.org/1999/xlink">
<g id="graph0" class="graph" transform="scale(1 1) rotate(0) translate(4 416)">
<title>examples</title>
<polygon fill="#ffffff" stroke="transparent" points="-4,4 -4,-416 348.3121,-416 348.3121,4 -4,4"/>
<g id="clust1" class="cluster">
<title>clusterdir_d28a4824dc47e487b107a5db32ef43c4</title>
<g id="a_clust1"><a xlink:href="dir_d28a4824dc47e487b107a5db32ef43c4.xhtml" target="_top">
<polygon fill="#eeeeff" stroke="#000000" points="8,-352 8,-404 299,-404 299,-352 8,-352"/>
</a>
</g>
</g>
<!-- dir_d28a4824dc47e487b107a5db32ef43c4 -->
<g id="node1" class="node">
<title>dir_d28a4824dc47e487b107a5db32ef43c4</title>
<text text-anchor="middle" x="258" y="-375.5" font-family="Helvetica,sans-Serif" font-size="10.00" fill="#000000">examples</text>
</g>
<!-- dir_5815af820a9cc9481f1d0990a0d60286 -->
<g id="node8" class="node">
<title>dir_5815af820a9cc9481f1d0990a0d60286</title>
<g id="a_node8"><a xlink:href="dir_5815af820a9cc9481f1d0990a0d60286.xhtml" target="_top" xlink:title="support">
<polygon fill="none" stroke="#000000" points="331,-180 277,-180 277,-144 331,-144 331,-180"/>
<text text-anchor="middle" x="304" y="-159.5" font-family="Helvetica,sans-Serif" font-size="10.00" fill="#000000">support</text>
</a>
</g>
</g>
<!-- dir_d28a4824dc47e487b107a5db32ef43c4&#45;&gt;dir_5815af820a9cc9481f1d0990a0d60286 -->
<g id="edge6" class="edge">
<title>dir_d28a4824dc47e487b107a5db32ef43c4&#45;&gt;dir_5815af820a9cc9481f1d0990a0d60286</title>
<path fill="none" stroke="#000000" d="M278.3303,-359.5365C287.4048,-349.9354 297.1333,-337.4144 302,-324 318.1864,-279.3842 313.9037,-223.2018 309.1034,-190.0844"/>
<polygon fill="#000000" stroke="#000000" points="312.5583,-189.5237 307.5519,-180.1864 305.6427,-190.6078 312.5583,-189.5237"/>
<g id="a_edge6&#45;headlabel"><a xlink:href="dir_000067_000028.xhtml" target="_top" xlink:title="25">
<text text-anchor="middle" x="315.9199" y="-190.1354" font-family="Helvetica,sans-Serif" font-size="10.00" fill="#000000">25</text>
</a>
</g>
</g>
<!-- dir_70e6c0049fba471da54b4e8a54d0f397 -->
<g id="node2" class="node">
<title>dir_70e6c0049fba471da54b4e8a54d0f397</title>
<g id="a_node2"><a xlink:href="dir_70e6c0049fba471da54b4e8a54d0f397.xhtml" target="_top" xlink:title="dynamic_fusion">
<polygon fill="#ffffff" stroke="#000000" points="110,-396 16,-396 16,-360 110,-360 110,-396"/>
<text text-anchor="middle" x="63" y="-375.5" font-family="Helvetica,sans-Serif" font-size="10.00" fill="#000000">dynamic_fusion</text>
</a>
</g>
</g>
<!-- dir_cbdb8362360e11eafe2fa3bc74cf0ffd -->
<g id="node5" class="node">
<title>dir_cbdb8362360e11eafe2fa3bc74cf0ffd</title>
<g id="a_node5"><a xlink:href="dir_cbdb8362360e11eafe2fa3bc74cf0ffd.xhtml" target="_top" xlink:title="utils">
<polygon fill="#ffffff" stroke="#ff0000" points="238,-36 184,-36 184,0 238,0 238,-36"/>
<text text-anchor="middle" x="211" y="-15.5" font-family="Helvetica,sans-Serif" font-size="10.00" fill="#000000">utils</text>
</a>
</g>
</g>
<!-- dir_70e6c0049fba471da54b4e8a54d0f397&#45;&gt;dir_cbdb8362360e11eafe2fa3bc74cf0ffd -->
<g id="edge1" class="edge">
<title>dir_70e6c0049fba471da54b4e8a54d0f397&#45;&gt;dir_cbdb8362360e11eafe2fa3bc74cf0ffd</title>
<path fill="none" stroke="#000000" d="M54.0929,-359.8553C41.7642,-333.0234 21,-280.875 21,-234 21,-234 21,-234 21,-162 21,-86.0197 118.7006,-44.9616 173.9821,-27.8113"/>
<polygon fill="#000000" stroke="#000000" points="175.1984,-31.1008 183.7776,-24.8842 173.1941,-24.3939 175.1984,-31.1008"/>
<g id="a_edge1&#45;headlabel"><a xlink:href="dir_000068_000041.xhtml" target="_top" xlink:title="2">
<text text-anchor="middle" x="172.5672" y="-32.3504" font-family="Helvetica,sans-Serif" font-size="10.00" fill="#000000">2</text>
</a>
</g>
</g>
<!-- dir_214608ef36d61442cb2b0c1c4e9a7def -->
<g id="node6" class="node">
<title>dir_214608ef36d61442cb2b0c1c4e9a7def</title>
<g id="a_node6"><a xlink:href="dir_214608ef36d61442cb2b0c1c4e9a7def.xhtml" target="_top" xlink:title="arm_compute">
<polygon fill="#ffffff" stroke="#ff0000" points="253,-108 169,-108 169,-72 253,-72 253,-108"/>
<text text-anchor="middle" x="211" y="-87.5" font-family="Helvetica,sans-Serif" font-size="10.00" fill="#000000">arm_compute</text>
</a>
</g>
</g>
<!-- dir_70e6c0049fba471da54b4e8a54d0f397&#45;&gt;dir_214608ef36d61442cb2b0c1c4e9a7def -->
<g id="edge2" class="edge">
<title>dir_70e6c0049fba471da54b4e8a54d0f397&#45;&gt;dir_214608ef36d61442cb2b0c1c4e9a7def</title>
<path fill="none" stroke="#000000" d="M67.5588,-359.805C75.6561,-329.0729 94.1597,-265.4047 120,-216 139.438,-178.836 168.8177,-140.3529 188.9015,-115.8522"/>
<polygon fill="#000000" stroke="#000000" points="191.6396,-118.0334 195.3284,-108.1014 186.2511,-113.5653 191.6396,-118.0334"/>
<g id="a_edge2&#45;headlabel"><a xlink:href="dir_000068_000000.xhtml" target="_top" xlink:title="16">
<text text-anchor="middle" x="191.5309" y="-120.1128" font-family="Helvetica,sans-Serif" font-size="10.00" fill="#000000">16</text>
</a>
</g>
</g>
<!-- dir_9a60f706a5aff86a468215c27fa011b2 -->
<g id="node3" class="node">
<title>dir_9a60f706a5aff86a468215c27fa011b2</title>
<g id="a_node3"><a xlink:href="dir_9a60f706a5aff86a468215c27fa011b2.xhtml" target="_top" xlink:title="gemm_tuner">
<polygon fill="#ffffff" stroke="#000000" points="207.5,-396 128.5,-396 128.5,-360 207.5,-360 207.5,-396"/>
<text text-anchor="middle" x="168" y="-375.5" font-family="Helvetica,sans-Serif" font-size="10.00" fill="#000000">gemm_tuner</text>
</a>
</g>
</g>
<!-- dir_68267d1309a1af8e8297ef4c3efbcdba -->
<g id="node4" class="node">
<title>dir_68267d1309a1af8e8297ef4c3efbcdba</title>
<g id="a_node4"><a xlink:href="dir_68267d1309a1af8e8297ef4c3efbcdba.xhtml" target="_top" xlink:title="src">
<polygon fill="#ffffff" stroke="#ff0000" points="183,-252 129,-252 129,-216 183,-216 183,-252"/>
<text text-anchor="middle" x="156" y="-231.5" font-family="Helvetica,sans-Serif" font-size="10.00" fill="#000000">src</text>
</a>
</g>
</g>
<!-- dir_9a60f706a5aff86a468215c27fa011b2&#45;&gt;dir_68267d1309a1af8e8297ef4c3efbcdba -->
<g id="edge11" class="edge">
<title>dir_9a60f706a5aff86a468215c27fa011b2&#45;&gt;dir_68267d1309a1af8e8297ef4c3efbcdba</title>
<path fill="none" stroke="#000000" d="M166.4802,-359.7623C164.4334,-335.201 160.7706,-291.2474 158.3628,-262.3541"/>
<polygon fill="#000000" stroke="#000000" points="161.8259,-261.7644 157.5075,-252.0896 154.8501,-262.3458 161.8259,-261.7644"/>
<g id="a_edge11&#45;headlabel"><a xlink:href="dir_000069_000003.xhtml" target="_top" xlink:title="8">
<text text-anchor="middle" x="164.9538" y="-262.6108" font-family="Helvetica,sans-Serif" font-size="10.00" fill="#000000">8</text>
</a>
</g>
</g>
<!-- dir_9a60f706a5aff86a468215c27fa011b2&#45;&gt;dir_cbdb8362360e11eafe2fa3bc74cf0ffd -->
<g id="edge12" class="edge">
<title>dir_9a60f706a5aff86a468215c27fa011b2&#45;&gt;dir_cbdb8362360e11eafe2fa3bc74cf0ffd</title>
<path fill="none" stroke="#000000" d="M158.6496,-359.8288C146.8973,-335.8712 127.3717,-292.0582 120,-252 117.1042,-236.2642 118.5193,-231.9313 120,-216 126.0259,-151.1641 114.2145,-128.2593 147,-72 154.0579,-59.8888 164.8783,-49.2403 175.6258,-40.6708"/>
<polygon fill="#000000" stroke="#000000" points="177.8889,-43.3479 183.7667,-34.5331 173.6748,-37.7585 177.8889,-43.3479"/>
<g id="a_edge12&#45;headlabel"><a xlink:href="dir_000069_000041.xhtml" target="_top" xlink:title="13">
<text text-anchor="middle" x="176.7279" y="-45.279" font-family="Helvetica,sans-Serif" font-size="10.00" fill="#000000">13</text>
</a>
</g>
</g>
<!-- dir_9a60f706a5aff86a468215c27fa011b2&#45;&gt;dir_214608ef36d61442cb2b0c1c4e9a7def -->
<g id="edge13" class="edge">
<title>dir_9a60f706a5aff86a468215c27fa011b2&#45;&gt;dir_214608ef36d61442cb2b0c1c4e9a7def</title>
<path fill="none" stroke="#000000" d="M171.9099,-359.708C177.039,-335.2541 186.0807,-290.5173 192,-252 199.188,-205.2274 205.0878,-150.4886 208.3184,-118.1141"/>
<polygon fill="#000000" stroke="#000000" points="211.8139,-118.3307 209.3097,-108.036 204.8475,-117.6454 211.8139,-118.3307"/>
<g id="a_edge13&#45;headlabel"><a xlink:href="dir_000069_000000.xhtml" target="_top" xlink:title="36">
<text text-anchor="middle" x="214.2878" y="-119.6859" font-family="Helvetica,sans-Serif" font-size="10.00" fill="#000000">36</text>
</a>
</g>
</g>
<!-- dir_59425e443f801f1f2fd8bbe4959a3ccf -->
<g id="node7" class="node">
<title>dir_59425e443f801f1f2fd8bbe4959a3ccf</title>
<g id="a_node7"><a xlink:href="dir_59425e443f801f1f2fd8bbe4959a3ccf.xhtml" target="_top" xlink:title="tests">
<polygon fill="#ffffff" stroke="#ff0000" points="293,-324 239,-324 239,-288 293,-288 293,-324"/>
<text text-anchor="middle" x="266" y="-303.5" font-family="Helvetica,sans-Serif" font-size="10.00" fill="#000000">tests</text>
</a>
</g>
</g>
<!-- dir_9a60f706a5aff86a468215c27fa011b2&#45;&gt;dir_59425e443f801f1f2fd8bbe4959a3ccf -->
<g id="edge14" class="edge">
<title>dir_9a60f706a5aff86a468215c27fa011b2&#45;&gt;dir_59425e443f801f1f2fd8bbe4959a3ccf</title>
<path fill="none" stroke="#000000" d="M192.7295,-359.8314C204.9162,-350.8779 219.7823,-339.9558 232.9312,-330.2955"/>
<polygon fill="#000000" stroke="#000000" points="235.2918,-332.9042 241.2784,-324.1628 231.1473,-327.263 235.2918,-332.9042"/>
<g id="a_edge14&#45;headlabel"><a xlink:href="dir_000069_000011.xhtml" target="_top" xlink:title="5">
<text text-anchor="middle" x="234.0761" y="-334.8206" font-family="Helvetica,sans-Serif" font-size="10.00" fill="#000000">5</text>
</a>
</g>
</g>
<!-- dir_68267d1309a1af8e8297ef4c3efbcdba&#45;&gt;dir_cbdb8362360e11eafe2fa3bc74cf0ffd -->
<g id="edge3" class="edge">
<title>dir_68267d1309a1af8e8297ef4c3efbcdba&#45;&gt;dir_cbdb8362360e11eafe2fa3bc74cf0ffd</title>
<path fill="none" stroke="#000000" d="M152.3479,-215.6392C147.0636,-184.6629 139.9614,-120.644 160,-72 164.3998,-61.3194 171.9649,-51.5017 179.9415,-43.2506"/>
<polygon fill="#000000" stroke="#000000" points="182.5464,-45.6006 187.3036,-36.1338 177.6811,-40.5677 182.5464,-45.6006"/>
<g id="a_edge3&#45;headlabel"><a xlink:href="dir_000003_000041.xhtml" target="_top" xlink:title="5">
<text text-anchor="middle" x="181.9353" y="-47.6403" font-family="Helvetica,sans-Serif" font-size="10.00" fill="#000000">5</text>
</a>
</g>
</g>
<!-- dir_68267d1309a1af8e8297ef4c3efbcdba&#45;&gt;dir_214608ef36d61442cb2b0c1c4e9a7def -->
<g id="edge4" class="edge">
<title>dir_68267d1309a1af8e8297ef4c3efbcdba&#45;&gt;dir_214608ef36d61442cb2b0c1c4e9a7def</title>
<path fill="none" stroke="#000000" d="M162.9658,-215.7623C172.4295,-190.9846 189.4311,-146.4714 200.4607,-117.5939"/>
<polygon fill="#000000" stroke="#000000" points="203.7923,-118.6803 204.0908,-108.0896 197.253,-116.1826 203.7923,-118.6803"/>
<g id="a_edge4&#45;headlabel"><a xlink:href="dir_000003_000000.xhtml" target="_top" xlink:title="3030">
<text text-anchor="middle" x="205.1622" y="-120.5513" font-family="Helvetica,sans-Serif" font-size="10.00" fill="#000000">3030</text>
</a>
</g>
</g>
<!-- dir_68267d1309a1af8e8297ef4c3efbcdba&#45;&gt;dir_5815af820a9cc9481f1d0990a0d60286 -->
<g id="edge5" class="edge">
<title>dir_68267d1309a1af8e8297ef4c3efbcdba&#45;&gt;dir_5815af820a9cc9481f1d0990a0d60286</title>
<path fill="none" stroke="#000000" d="M183.1455,-220.7941C206.8544,-209.26 241.464,-192.4229 267.5764,-179.7196"/>
<polygon fill="#000000" stroke="#000000" points="269.3152,-182.7659 276.7764,-175.2439 266.2529,-176.4713 269.3152,-182.7659"/>
<g id="a_edge5&#45;headlabel"><a xlink:href="dir_000003_000028.xhtml" target="_top" xlink:title="216">
<text text-anchor="middle" x="267.3249" y="-184.3916" font-family="Helvetica,sans-Serif" font-size="10.00" fill="#000000">216</text>
</a>
</g>
</g>
<!-- dir_cbdb8362360e11eafe2fa3bc74cf0ffd&#45;&gt;dir_214608ef36d61442cb2b0c1c4e9a7def -->
<g id="edge7" class="edge">
<title>dir_cbdb8362360e11eafe2fa3bc74cf0ffd&#45;&gt;dir_214608ef36d61442cb2b0c1c4e9a7def</title>
<path fill="none" stroke="#000000" d="M216.976,-36.4133C217.7071,-44.0593 217.9203,-53.1084 217.6155,-61.5726"/>
<polygon fill="#000000" stroke="#000000" points="214.1048,-61.6264 216.9524,-71.8314 221.0902,-62.078 214.1048,-61.6264"/>
<g id="a_edge7&#45;headlabel"><a xlink:href="dir_000041_000000.xhtml" target="_top" xlink:title="41">
<text text-anchor="middle" x="211.5032" y="-55.3562" font-family="Helvetica,sans-Serif" font-size="10.00" fill="#000000">41</text>
</a>
</g>
</g>
<!-- dir_cbdb8362360e11eafe2fa3bc74cf0ffd&#45;&gt;dir_5815af820a9cc9481f1d0990a0d60286 -->
<g id="edge8" class="edge">
<title>dir_cbdb8362360e11eafe2fa3bc74cf0ffd&#45;&gt;dir_5815af820a9cc9481f1d0990a0d60286</title>
<path fill="none" stroke="#000000" d="M231.0251,-36.2006C241.1623,-46.1127 253.1594,-58.9867 262,-72 275.3055,-91.5856 286.4214,-116.0555 293.8684,-134.5342"/>
<polygon fill="#000000" stroke="#000000" points="290.6128,-135.8195 297.5194,-143.8538 297.1305,-133.2661 290.6128,-135.8195"/>
<g id="a_edge8&#45;headlabel"><a xlink:href="dir_000041_000028.xhtml" target="_top" xlink:title="4">
<text text-anchor="middle" x="286.658" y="-131.0082" font-family="Helvetica,sans-Serif" font-size="10.00" fill="#000000">4</text>
</a>
</g>
</g>
<!-- dir_214608ef36d61442cb2b0c1c4e9a7def&#45;&gt;dir_cbdb8362360e11eafe2fa3bc74cf0ffd -->
<g id="edge9" class="edge">
<title>dir_214608ef36d61442cb2b0c1c4e9a7def&#45;&gt;dir_cbdb8362360e11eafe2fa3bc74cf0ffd</title>
<path fill="none" stroke="#000000" d="M205.0476,-71.8314C204.2972,-64.131 204.0763,-54.9743 204.3849,-46.4166"/>
<polygon fill="#000000" stroke="#000000" points="207.8792,-46.6161 205.024,-36.4133 200.8935,-46.1697 207.8792,-46.6161"/>
<g id="a_edge9&#45;headlabel"><a xlink:href="dir_000000_000041.xhtml" target="_top" xlink:title="1">
<text text-anchor="middle" x="210.4836" y="-47.8844" font-family="Helvetica,sans-Serif" font-size="10.00" fill="#000000">1</text>
</a>
</g>
</g>
<!-- dir_214608ef36d61442cb2b0c1c4e9a7def&#45;&gt;dir_5815af820a9cc9481f1d0990a0d60286 -->
<g id="edge10" class="edge">
<title>dir_214608ef36d61442cb2b0c1c4e9a7def&#45;&gt;dir_5815af820a9cc9481f1d0990a0d60286</title>
<path fill="none" stroke="#000000" d="M240.4121,-108.1628C252.7303,-117.0301 266.8417,-127.8295 278.6918,-137.4219"/>
<polygon fill="#000000" stroke="#000000" points="276.538,-140.1822 286.4846,-143.8314 280.9846,-134.7759 276.538,-140.1822"/>
<g id="a_edge10&#45;headlabel"><a xlink:href="dir_000000_000028.xhtml" target="_top" xlink:title="18">
<text text-anchor="middle" x="271.9582" y="-137.5917" font-family="Helvetica,sans-Serif" font-size="10.00" fill="#000000">18</text>
</a>
</g>
</g>
<!-- dir_59425e443f801f1f2fd8bbe4959a3ccf&#45;&gt;dir_68267d1309a1af8e8297ef4c3efbcdba -->
<g id="edge15" class="edge">
<title>dir_59425e443f801f1f2fd8bbe4959a3ccf&#45;&gt;dir_68267d1309a1af8e8297ef4c3efbcdba</title>
<path fill="none" stroke="#000000" d="M238.809,-288.2022C224.6622,-278.9425 207.1843,-267.5025 191.937,-257.5224"/>
<polygon fill="#000000" stroke="#000000" points="193.5433,-254.3907 183.2594,-251.8425 189.7097,-260.2476 193.5433,-254.3907"/>
<g id="a_edge15&#45;headlabel"><a xlink:href="dir_000011_000003.xhtml" target="_top" xlink:title="101">
<text text-anchor="middle" x="198.1058" y="-251.4837" font-family="Helvetica,sans-Serif" font-size="10.00" fill="#000000">101</text>
</a>
</g>
</g>
<!-- dir_59425e443f801f1f2fd8bbe4959a3ccf&#45;&gt;dir_cbdb8362360e11eafe2fa3bc74cf0ffd -->
<g id="edge16" class="edge">
<title>dir_59425e443f801f1f2fd8bbe4959a3ccf&#45;&gt;dir_cbdb8362360e11eafe2fa3bc74cf0ffd</title>
<path fill="none" stroke="#000000" d="M284.5374,-287.573C311.8916,-258.0497 357.9913,-197.9738 340,-144 324.4354,-97.3063 279.3344,-60.4426 246.8461,-38.9462"/>
<polygon fill="#000000" stroke="#000000" points="248.3571,-35.7568 238.0522,-33.2952 244.5728,-41.6458 248.3571,-35.7568"/>
<g id="a_edge16&#45;headlabel"><a xlink:href="dir_000011_000041.xhtml" target="_top" xlink:title="37">
<text text-anchor="middle" x="252.916" y="-32.8115" font-family="Helvetica,sans-Serif" font-size="10.00" fill="#000000">37</text>
</a>
</g>
</g>
<!-- dir_59425e443f801f1f2fd8bbe4959a3ccf&#45;&gt;dir_214608ef36d61442cb2b0c1c4e9a7def -->
<g id="edge17" class="edge">
<title>dir_59425e443f801f1f2fd8bbe4959a3ccf&#45;&gt;dir_214608ef36d61442cb2b0c1c4e9a7def</title>
<path fill="none" stroke="#000000" d="M261.3617,-287.5268C253.7994,-257.4414 238.319,-195.9929 225,-144 222.8707,-135.6881 220.5385,-126.662 218.3988,-118.4114"/>
<polygon fill="#000000" stroke="#000000" points="221.7229,-117.2865 215.8213,-108.4875 214.9477,-119.0463 221.7229,-117.2865"/>
<g id="a_edge17&#45;headlabel"><a xlink:href="dir_000011_000000.xhtml" target="_top" xlink:title="1059">
<text text-anchor="middle" x="225.3746" y="-117.5519" font-family="Helvetica,sans-Serif" font-size="10.00" fill="#000000">1059</text>
</a>
</g>
</g>
<!-- dir_59425e443f801f1f2fd8bbe4959a3ccf&#45;&gt;dir_5815af820a9cc9481f1d0990a0d60286 -->
<g id="edge18" class="edge">
<title>dir_59425e443f801f1f2fd8bbe4959a3ccf&#45;&gt;dir_5815af820a9cc9481f1d0990a0d60286</title>
<path fill="none" stroke="#000000" d="M270.8127,-287.7623C277.3227,-263.0928 288.9953,-218.8598 296.6182,-189.9731"/>
<polygon fill="#000000" stroke="#000000" points="300.0589,-190.6517 299.2264,-180.0896 293.2906,-188.8656 300.0589,-190.6517"/>
<g id="a_edge18&#45;headlabel"><a xlink:href="dir_000011_000028.xhtml" target="_top" xlink:title="23">
<text text-anchor="middle" x="301.8871" y="-192.3517" font-family="Helvetica,sans-Serif" font-size="10.00" fill="#000000">23</text>
</a>
</g>
</g>
<!-- dir_5815af820a9cc9481f1d0990a0d60286&#45;&gt;dir_214608ef36d61442cb2b0c1c4e9a7def -->
<g id="edge19" class="edge">
<title>dir_5815af820a9cc9481f1d0990a0d60286&#45;&gt;dir_214608ef36d61442cb2b0c1c4e9a7def</title>
<path fill="none" stroke="#000000" d="M276.883,-145.4817C264.084,-136.3544 248.9855,-124.8362 236.4132,-114.6631"/>
<polygon fill="#000000" stroke="#000000" points="238.513,-111.8584 228.5658,-108.2108 234.0672,-117.2654 238.513,-111.8584"/>
<g id="a_edge19&#45;headlabel"><a xlink:href="dir_000028_000000.xhtml" target="_top" xlink:title="6">
<text text-anchor="middle" x="243.0927" y="-109.4481" font-family="Helvetica,sans-Serif" font-size="10.00" fill="#000000">6</text>
</a>
</g>
</g>
</g>
</svg>
