<?xml version="1.0" encoding="UTF-8" standalone="no"?>
<!DOCTYPE svg PUBLIC "-//W3C//DTD SVG 1.1//EN"
 "http://www.w3.org/Graphics/SVG/1.1/DTD/svg11.dtd">
<!-- Generated by graphviz version 2.40.1 (20161225.0304)
 -->
<!-- Title: Graphical Class Hierarchy Pages: 1 -->
<svg width="331pt" height="88pt"
 viewBox="0.00 0.00 331.00 88.00" xmlns="http://www.w3.org/2000/svg" xmlns:xlink="http://www.w3.org/1999/xlink">
<g id="graph0" class="graph" transform="scale(1 1) rotate(0) translate(4 84)">
<title>Graphical Class Hierarchy</title>
<polygon fill="#ffffff" stroke="transparent" points="-4,4 -4,-84 327,-84 327,4 -4,4"/>
<!-- Node0 -->
<g id="node1" class="node">
<title>Node0</title>
<g id="a_node1"><a xlink:href="classarm__compute_1_1_i_transform_weights.xhtml" target="_top" xlink:title="Weights tensor transform interface In order to identify the different reshape functions, each reshape function has to generate a unique id. ">
<polygon fill="#ffffff" stroke="#000000" points="0,-30 0,-49 107,-49 107,-30 0,-30"/>
<text text-anchor="middle" x="53.5" y="-37" font-family="Helvetica,sans-Serif" font-size="10.00" fill="#000000">ITransformWeights</text>
</a>
</g>
</g>
<!-- Node1 -->
<g id="node2" class="node">
<title>Node1</title>
<g id="a_node2"><a xlink:href="classarm__compute_1_1weights__transformations_1_1_c_l_convert_fully_connected_weights_managed.xhtml" target="_top" xlink:title="Basic function to manage CLConvertFullyConnectedWeights. ">
<polygon fill="#ffffff" stroke="#000000" points="143,-49.5 143,-79.5 323,-79.5 323,-49.5 143,-49.5"/>
<text text-anchor="start" x="151" y="-67.5" font-family="Helvetica,sans-Serif" font-size="10.00" fill="#000000">CLConvertFullyConnectedWeights</text>
<text text-anchor="middle" x="233" y="-56.5" font-family="Helvetica,sans-Serif" font-size="10.00" fill="#000000">Managed</text>
</a>
</g>
</g>
<!-- Node0&#45;&gt;Node1 -->
<g id="edge1" class="edge">
<title>Node0&#45;&gt;Node1</title>
<path fill="none" stroke="#191970" d="M117.3216,-48.3888C125.6415,-49.5476 134.2867,-50.7516 142.9357,-51.9562"/>
<polygon fill="#191970" stroke="#191970" points="117.7432,-44.9138 107.3559,-47.0008 116.7775,-51.8469 117.7432,-44.9138"/>
</g>
<!-- Node2 -->
<g id="node3" class="node">
<title>Node2</title>
<g id="a_node3"><a xlink:href="classarm__compute_1_1weights__transformations_1_1_n_e_fully_connected_layer_reshape_weights_managed.xhtml" target="_top" xlink:title="Basic function to manage the reshape weights generated from NETranspose. ">
<polygon fill="#ffffff" stroke="#000000" points="146.5,-.5 146.5,-30.5 319.5,-30.5 319.5,-.5 146.5,-.5"/>
<text text-anchor="start" x="154.5" y="-18.5" font-family="Helvetica,sans-Serif" font-size="10.00" fill="#000000">NEFullyConnectedLayerReshape</text>
<text text-anchor="middle" x="233" y="-7.5" font-family="Helvetica,sans-Serif" font-size="10.00" fill="#000000">WeightsManaged</text>
</a>
</g>
</g>
<!-- Node0&#45;&gt;Node2 -->
<g id="edge2" class="edge">
<title>Node0&#45;&gt;Node2</title>
<path fill="none" stroke="#191970" d="M117.3543,-30.9624C126.7379,-29.7077 136.5346,-28.3979 146.2836,-27.0944"/>
<polygon fill="#191970" stroke="#191970" points="116.8038,-27.5047 107.3559,-32.2992 117.7316,-34.443 116.8038,-27.5047"/>
</g>
</g>
</svg>
