<?xml version="1.0" encoding="UTF-8" standalone="no"?>
<!DOCTYPE svg PUBLIC "-//W3C//DTD SVG 1.1//EN"
 "http://www.w3.org/Graphics/SVG/1.1/DTD/svg11.dtd">
<!-- Generated by graphviz version 2.40.1 (20161225.0304)
 -->
<!-- Title: CommonGemmExampleParams Pages: 1 -->
<svg width="181pt" height="95pt"
 viewBox="0.00 0.00 181.00 95.00" xmlns="http://www.w3.org/2000/svg" xmlns:xlink="http://www.w3.org/1999/xlink">
<g id="graph0" class="graph" transform="scale(1 1) rotate(0) translate(4 91)">
<title>CommonGemmExampleParams</title>
<polygon fill="#ffffff" stroke="transparent" points="-4,4 -4,-91 177,-91 177,4 -4,4"/>
<!-- Node0 -->
<g id="node1" class="node">
<title>Node0</title>
<polygon fill="#bfbfbf" stroke="#000000" points="0,-.5 0,-19.5 173,-19.5 173,-.5 0,-.5"/>
<text text-anchor="middle" x="86.5" y="-7.5" font-family="Helvetica,sans-Serif" font-size="10.00" fill="#000000">CommonGemmExampleParams</text>
</g>
<!-- Node1 -->
<g id="node2" class="node">
<title>Node1</title>
<polygon fill="#ffffff" stroke="#bfbfbf" points="2.5,-67.5 2.5,-86.5 82.5,-86.5 82.5,-67.5 2.5,-67.5"/>
<text text-anchor="middle" x="42.5" y="-74.5" font-family="Helvetica,sans-Serif" font-size="10.00" fill="#000000">CLTunerMode</text>
</g>
<!-- Node1&#45;&gt;Node0 -->
<g id="edge1" class="edge">
<title>Node1&#45;&gt;Node0</title>
<path fill="none" stroke="#9a32cd" stroke-dasharray="5,2" d="M41.9581,-57.2106C42.5569,-50.7171 44.095,-43.7087 47.5,-38 52.1114,-30.2689 59.7731,-24.0775 67.0906,-19.5026"/>
<polygon fill="#9a32cd" stroke="#9a32cd" points="38.4561,-57.2377 41.6735,-67.3322 45.4533,-57.4345 38.4561,-57.2377"/>
<text text-anchor="middle" x="78.5" y="-41" font-family="Helvetica,sans-Serif" font-size="10.00" fill="#000000"> tuner_mode</text>
</g>
<!-- Node2 -->
<g id="node3" class="node">
<title>Node2</title>
<polygon fill="#ffffff" stroke="#bfbfbf" points="100.5,-67.5 100.5,-86.5 162.5,-86.5 162.5,-67.5 100.5,-67.5"/>
<text text-anchor="middle" x="131.5" y="-74.5" font-family="Helvetica,sans-Serif" font-size="10.00" fill="#000000">DataType</text>
</g>
<!-- Node2&#45;&gt;Node0 -->
<g id="edge2" class="edge">
<title>Node2&#45;&gt;Node0</title>
<path fill="none" stroke="#9a32cd" stroke-dasharray="5,2" d="M121.9276,-58.5021C118.279,-51.882 113.9279,-44.4633 109.5,-38 105.0913,-31.5646 99.5573,-24.7942 95.0225,-19.5232"/>
<polygon fill="#9a32cd" stroke="#9a32cd" points="118.8968,-60.2566 126.6977,-67.4257 125.0701,-56.9566 118.8968,-60.2566"/>
<text text-anchor="middle" x="141.5" y="-41" font-family="Helvetica,sans-Serif" font-size="10.00" fill="#000000"> data_type</text>
</g>
</g>
</svg>
