<?xml version="1.0" encoding="UTF-8" standalone="no"?>
<!DOCTYPE svg PUBLIC "-//W3C//DTD SVG 1.1//EN"
 "http://www.w3.org/Graphics/SVG/1.1/DTD/svg11.dtd">
<!-- Generated by graphviz version 2.40.1 (20161225.0304)
 -->
<!-- Title: AclContext_ Pages: 1 -->
<svg width="123pt" height="152pt"
 viewBox="0.00 0.00 122.50 152.00" xmlns="http://www.w3.org/2000/svg" xmlns:xlink="http://www.w3.org/1999/xlink">
<g id="graph0" class="graph" transform="scale(1 1) rotate(0) translate(4 148)">
<title>AclContext_</title>
<polygon fill="#ffffff" stroke="transparent" points="-4,4 -4,-148 118.5,-148 118.5,4 -4,4"/>
<!-- Node0 -->
<g id="node1" class="node">
<title>Node0</title>
<polygon fill="#bfbfbf" stroke="#000000" points="39.5,-124.5 39.5,-143.5 114.5,-143.5 114.5,-124.5 39.5,-124.5"/>
<text text-anchor="middle" x="77" y="-131.5" font-family="Helvetica,sans-Serif" font-size="10.00" fill="#000000">AclContext_</text>
</g>
<!-- Node2 -->
<g id="node3" class="node">
<title>Node2</title>
<g id="a_node3"><a xlink:href="classarm__compute_1_1_i_context.xhtml" target="_top" xlink:title="Context interface. ">
<polygon fill="#ffffff" stroke="#000000" points="0,-67.5 0,-86.5 58,-86.5 58,-67.5 0,-67.5"/>
<text text-anchor="middle" x="29" y="-74.5" font-family="Helvetica,sans-Serif" font-size="10.00" fill="#000000">IContext</text>
</a>
</g>
</g>
<!-- Node0&#45;&gt;Node2 -->
<g id="edge3" class="edge">
<title>Node0&#45;&gt;Node2</title>
<path fill="none" stroke="#191970" d="M62.3876,-116.6477C54.0518,-106.7491 43.9226,-94.7206 37.0223,-86.5265"/>
<polygon fill="#191970" stroke="#191970" points="59.7389,-118.9361 68.8575,-124.3307 65.0933,-114.4271 59.7389,-118.9361"/>
</g>
<!-- Node1 -->
<g id="node2" class="node">
<title>Node1</title>
<g id="a_node2"><a xlink:href="structarm__compute_1_1detail_1_1_header.xhtml" target="_top" xlink:title="Header">
<polygon fill="#ffffff" stroke="#000000" points="36,-.5 36,-19.5 88,-19.5 88,-.5 36,-.5"/>
<text text-anchor="middle" x="62" y="-7.5" font-family="Helvetica,sans-Serif" font-size="10.00" fill="#000000">Header</text>
</a>
</g>
</g>
<!-- Node1&#45;&gt;Node0 -->
<g id="edge1" class="edge">
<title>Node1&#45;&gt;Node0</title>
<path fill="none" stroke="#9a32cd" stroke-dasharray="5,2" d="M68.9163,-29.3933C69.7351,-32.2504 70.4674,-35.1809 71,-38 76.8896,-69.177 77.3419,-106.9565 77.1836,-124.3643"/>
<polygon fill="#9a32cd" stroke="#9a32cd" points="72.1856,-28.1279 65.7734,-19.6937 65.5264,-30.2857 72.1856,-28.1279"/>
<text text-anchor="middle" x="94.5" y="-74.5" font-family="Helvetica,sans-Serif" font-size="10.00" fill="#000000"> header</text>
</g>
<!-- Node2&#45;&gt;Node1 -->
<g id="edge2" class="edge">
<title>Node2&#45;&gt;Node1</title>
<path fill="none" stroke="#9a32cd" stroke-dasharray="5,2" d="M38.2413,-58.2374C44.4354,-45.6614 52.3341,-29.6246 57.2807,-19.5817"/>
<polygon fill="#9a32cd" stroke="#9a32cd" points="35.0068,-56.8831 33.7281,-67.4005 41.2865,-59.9761 35.0068,-56.8831"/>
<text text-anchor="middle" x="57.5" y="-41" font-family="Helvetica,sans-Serif" font-size="10.00" fill="#000000"> ctx</text>
</g>
</g>
</svg>
