<?xml version="1.0" encoding="UTF-8" standalone="no"?>
<!DOCTYPE svg PUBLIC "-//W3C//DTD SVG 1.1//EN"
 "http://www.w3.org/Graphics/SVG/1.1/DTD/svg11.dtd">
<!-- Generated by graphviz version 2.40.1 (20161225.0304)
 -->
<!-- Title: PlanarStrategy&lt; TInput, TWeight, TOutput, TAccum, OutputStage &gt; Pages: 1 -->
<svg width="183pt" height="106pt"
 viewBox="0.00 0.00 183.00 106.00" xmlns="http://www.w3.org/2000/svg" xmlns:xlink="http://www.w3.org/1999/xlink">
<g id="graph0" class="graph" transform="scale(1 1) rotate(0) translate(4 102)">
<title>PlanarStrategy&lt; TInput, TWeight, TOutput, TAccum, OutputStage &gt;</title>
<polygon fill="#ffffff" stroke="transparent" points="-4,4 -4,-102 179,-102 179,4 -4,4"/>
<!-- Node0 -->
<g id="node1" class="node">
<title>Node0</title>
<polygon fill="#bfbfbf" stroke="#000000" points="11.5,-.5 11.5,-41.5 163.5,-41.5 163.5,-.5 11.5,-.5"/>
<text text-anchor="start" x="19.5" y="-29.5" font-family="Helvetica,sans-Serif" font-size="10.00" fill="#000000">PlanarStrategy&lt; TInput,</text>
<text text-anchor="start" x="19.5" y="-18.5" font-family="Helvetica,sans-Serif" font-size="10.00" fill="#000000"> TWeight, TOutput, TAccum,</text>
<text text-anchor="middle" x="87.5" y="-7.5" font-family="Helvetica,sans-Serif" font-size="10.00" fill="#000000"> OutputStage &gt;</text>
</g>
<!-- Node1 -->
<g id="node2" class="node">
<title>Node1</title>
<g id="a_node2"><a xlink:href="classarm__conv_1_1depthwise_1_1_i_planar_strategy.xhtml" target="_top" xlink:title="IPlanarStrategy\&lt; OutputStage \&gt;">
<polygon fill="#ffffff" stroke="#000000" points="0,-78.5 0,-97.5 175,-97.5 175,-78.5 0,-78.5"/>
<text text-anchor="middle" x="87.5" y="-85.5" font-family="Helvetica,sans-Serif" font-size="10.00" fill="#000000">IPlanarStrategy&lt; OutputStage &gt;</text>
</a>
</g>
</g>
<!-- Node1&#45;&gt;Node0 -->
<g id="edge1" class="edge">
<title>Node1&#45;&gt;Node0</title>
<path fill="none" stroke="#191970" d="M87.5,-68.3919C87.5,-59.9817 87.5,-50.1519 87.5,-41.6318"/>
<polygon fill="#191970" stroke="#191970" points="84.0001,-68.4005 87.5,-78.4005 91.0001,-68.4006 84.0001,-68.4005"/>
</g>
</g>
</svg>
