<?xml version="1.0" encoding="UTF-8" standalone="no"?>
<!DOCTYPE svg PUBLIC "-//W3C//DTD SVG 1.1//EN"
 "http://www.w3.org/Graphics/SVG/1.1/DTD/svg11.dtd">
<!-- Generated by graphviz version 2.40.1 (20161225.0304)
 -->
<!-- Title: DepthwiseDepthfirstQuantized&lt; strategy &gt; Pages: 1 -->
<svg width="374pt" height="61pt"
 viewBox="0.00 0.00 374.00 61.00" xmlns="http://www.w3.org/2000/svg" xmlns:xlink="http://www.w3.org/1999/xlink">
<g id="graph0" class="graph" transform="scale(1 1) rotate(0) translate(4 57)">
<title>DepthwiseDepthfirstQuantized&lt; strategy &gt;</title>
<polygon fill="#ffffff" stroke="transparent" points="-4,4 -4,-57 370,-57 370,4 -4,4"/>
<!-- Node0 -->
<g id="node1" class="node">
<title>Node0</title>
<polygon fill="#bfbfbf" stroke="#000000" points="200,-11.5 200,-41.5 366,-41.5 366,-11.5 200,-11.5"/>
<text text-anchor="start" x="208" y="-29.5" font-family="Helvetica,sans-Serif" font-size="10.00" fill="#000000">DepthwiseDepthfirstQuantized</text>
<text text-anchor="middle" x="283" y="-18.5" font-family="Helvetica,sans-Serif" font-size="10.00" fill="#000000">&lt; strategy &gt;</text>
</g>
<!-- Node1 -->
<g id="node2" class="node">
<title>Node1</title>
<polygon fill="#ffffff" stroke="#bfbfbf" points="0,-.5 0,-52.5 164,-52.5 164,-.5 0,-.5"/>
<text text-anchor="start" x="8" y="-40.5" font-family="Helvetica,sans-Serif" font-size="10.00" fill="#000000">DepthwiseCommon&lt; strategy</text>
<text text-anchor="start" x="8" y="-29.5" font-family="Helvetica,sans-Serif" font-size="10.00" fill="#000000">::input_type, strategy</text>
<text text-anchor="start" x="8" y="-18.5" font-family="Helvetica,sans-Serif" font-size="10.00" fill="#000000">::weight_type, strategy</text>
<text text-anchor="middle" x="82" y="-7.5" font-family="Helvetica,sans-Serif" font-size="10.00" fill="#000000">::return_type &gt;</text>
</g>
<!-- Node1&#45;&gt;Node0 -->
<g id="edge1" class="edge">
<title>Node1&#45;&gt;Node0</title>
<path fill="none" stroke="#191970" d="M174.0963,-26.5C182.7045,-26.5 191.3956,-26.5 199.9144,-26.5"/>
<polygon fill="#191970" stroke="#191970" points="174.0443,-23.0001 164.0443,-26.5 174.0443,-30.0001 174.0443,-23.0001"/>
</g>
</g>
</svg>
