<?xml version="1.0" encoding="UTF-8" standalone="no"?>
<!DOCTYPE svg PUBLIC "-//W3C//DTD SVG 1.1//EN"
 "http://www.w3.org/Graphics/SVG/1.1/DTD/svg11.dtd">
<!-- Generated by graphviz version 2.40.1 (20161225.0304)
 -->
<!-- Title: GemmInterleaved&lt; strategy, To, Tr, OutputStage, MergeStep, FixedFormat, ForceThreadColumns &gt; Pages: 1 -->
<svg width="208pt" height="162pt"
 viewBox="0.00 0.00 208.00 162.00" xmlns="http://www.w3.org/2000/svg" xmlns:xlink="http://www.w3.org/1999/xlink">
<g id="graph0" class="graph" transform="scale(1 1) rotate(0) translate(4 158)">
<title>GemmInterleaved&lt; strategy, To, Tr, OutputStage, MergeStep, FixedFormat, ForceThreadColumns &gt;</title>
<polygon fill="#ffffff" stroke="transparent" points="-4,4 -4,-158 204,-158 204,4 -4,4"/>
<!-- Node0 -->
<g id="node1" class="node">
<title>Node0</title>
<polygon fill="#bfbfbf" stroke="#000000" points="0,-.5 0,-41.5 200,-41.5 200,-.5 0,-.5"/>
<text text-anchor="start" x="8" y="-29.5" font-family="Helvetica,sans-Serif" font-size="10.00" fill="#000000">GemmInterleaved&lt; strategy,</text>
<text text-anchor="start" x="8" y="-18.5" font-family="Helvetica,sans-Serif" font-size="10.00" fill="#000000"> To, Tr, OutputStage, MergeStep,</text>
<text text-anchor="middle" x="100" y="-7.5" font-family="Helvetica,sans-Serif" font-size="10.00" fill="#000000"> FixedFormat, ForceThreadColumns &gt;</text>
</g>
<!-- Node1 -->
<g id="node2" class="node">
<title>Node1</title>
<g id="a_node2"><a xlink:href="classarm__gemm_1_1_gemm_common.xhtml" target="_top" xlink:title="GemmCommon\&lt; To, Tr \&gt;">
<polygon fill="#ffffff" stroke="#000000" points="29.5,-78.5 29.5,-97.5 170.5,-97.5 170.5,-78.5 29.5,-78.5"/>
<text text-anchor="middle" x="100" y="-85.5" font-family="Helvetica,sans-Serif" font-size="10.00" fill="#000000">GemmCommon&lt; To, Tr &gt;</text>
</a>
</g>
</g>
<!-- Node1&#45;&gt;Node0 -->
<g id="edge1" class="edge">
<title>Node1&#45;&gt;Node0</title>
<path fill="none" stroke="#191970" d="M100,-68.3919C100,-59.9817 100,-50.1519 100,-41.6318"/>
<polygon fill="#191970" stroke="#191970" points="96.5001,-68.4005 100,-78.4005 103.5001,-68.4006 96.5001,-68.4005"/>
</g>
<!-- Node2 -->
<g id="node3" class="node">
<title>Node2</title>
<g id="a_node3"><a xlink:href="classarm__gemm_1_1_i_gemm_common.xhtml" target="_top" xlink:title="IGemmCommon">
<polygon fill="#ffffff" stroke="#000000" points="51.5,-134.5 51.5,-153.5 148.5,-153.5 148.5,-134.5 51.5,-134.5"/>
<text text-anchor="middle" x="100" y="-141.5" font-family="Helvetica,sans-Serif" font-size="10.00" fill="#000000">IGemmCommon</text>
</a>
</g>
</g>
<!-- Node2&#45;&gt;Node1 -->
<g id="edge2" class="edge">
<title>Node2&#45;&gt;Node1</title>
<path fill="none" stroke="#191970" d="M100,-124.1575C100,-115.155 100,-104.9199 100,-97.6427"/>
<polygon fill="#191970" stroke="#191970" points="96.5001,-124.2455 100,-134.2455 103.5001,-124.2456 96.5001,-124.2455"/>
</g>
</g>
</svg>
