<?xml version="1.0" encoding="UTF-8" standalone="no"?>
<!DOCTYPE svg PUBLIC "-//W3C//DTD SVG 1.1//EN"
 "http://www.w3.org/Graphics/SVG/1.1/DTD/svg11.dtd">
<!-- Generated by graphviz version 2.40.1 (20161225.0304)
 -->
<!-- Title: arm_compute/dynamic_fusion/runtime Pages: 1 -->
<svg width="184pt" height="159pt"
 viewBox="0.00 0.00 184.00 159.00" xmlns="http://www.w3.org/2000/svg" xmlns:xlink="http://www.w3.org/1999/xlink">
<g id="graph0" class="graph" transform="scale(1 1) rotate(0) translate(4 155)">
<title>arm_compute/dynamic_fusion/runtime</title>
<polygon fill="#ffffff" stroke="transparent" points="-4,4 -4,-155 180,-155 180,4 -4,4"/>
<g id="clust1" class="cluster">
<title>clusterdir_aef88241dbfc98b719eab1a840581add</title>
<g id="a_clust1"><a xlink:href="dir_aef88241dbfc98b719eab1a840581add.xhtml" target="_top" xlink:title="dynamic_fusion">
<polygon fill="#ddddee" stroke="#000000" points="8,-56 8,-143 168,-143 168,-56 8,-56"/>
<text text-anchor="middle" x="88" y="-131" font-family="Helvetica,sans-Serif" font-size="10.00" fill="#000000">dynamic_fusion</text>
</a>
</g>
</g>
<g id="clust2" class="cluster">
<title>clusterdir_85f306a53ed6cda078e3c3388822ab45</title>
<g id="a_clust2"><a xlink:href="dir_85f306a53ed6cda078e3c3388822ab45.xhtml" target="_top">
<polygon fill="#eeeeff" stroke="#000000" points="16,-64 16,-116 160,-116 160,-64 16,-64"/>
</a>
</g>
</g>
<!-- dir_85f306a53ed6cda078e3c3388822ab45 -->
<g id="node1" class="node">
<title>dir_85f306a53ed6cda078e3c3388822ab45</title>
<text text-anchor="middle" x="124" y="-87.5" font-family="Helvetica,sans-Serif" font-size="10.00" fill="#000000">runtime</text>
</g>
<!-- dir_485ba8647c3bd503ef2d0e67a8a39603 -->
<g id="node2" class="node">
<title>dir_485ba8647c3bd503ef2d0e67a8a39603</title>
<g id="a_node2"><a xlink:href="dir_485ba8647c3bd503ef2d0e67a8a39603.xhtml" target="_top" xlink:title="gpu">
<polygon fill="#ffffff" stroke="#ff0000" points="78,-108 24,-108 24,-72 78,-72 78,-108"/>
<text text-anchor="middle" x="51" y="-87.5" font-family="Helvetica,sans-Serif" font-size="10.00" fill="#000000">gpu</text>
</a>
</g>
</g>
<!-- dir_3259c0fb095abc99930fe6844d6dd442 -->
<g id="node3" class="node">
<title>dir_3259c0fb095abc99930fe6844d6dd442</title>
<g id="a_node3"><a xlink:href="dir_3259c0fb095abc99930fe6844d6dd442.xhtml" target="_top" xlink:title="sketch">
<polygon fill="#ffffff" stroke="#ff0000" points="78,-36 24,-36 24,0 78,0 78,-36"/>
<text text-anchor="middle" x="51" y="-15.5" font-family="Helvetica,sans-Serif" font-size="10.00" fill="#000000">sketch</text>
</a>
</g>
</g>
<!-- dir_485ba8647c3bd503ef2d0e67a8a39603&#45;&gt;dir_3259c0fb095abc99930fe6844d6dd442 -->
<g id="edge1" class="edge">
<title>dir_485ba8647c3bd503ef2d0e67a8a39603&#45;&gt;dir_3259c0fb095abc99930fe6844d6dd442</title>
<path fill="none" stroke="#000000" d="M51,-71.8314C51,-64.131 51,-54.9743 51,-46.4166"/>
<polygon fill="#000000" stroke="#000000" points="54.5001,-46.4132 51,-36.4133 47.5001,-46.4133 54.5001,-46.4132"/>
<g id="a_edge1&#45;headlabel"><a xlink:href="dir_000058_000060.xhtml" target="_top" xlink:title="1">
<text text-anchor="middle" x="57.3393" y="-47.5079" font-family="Helvetica,sans-Serif" font-size="10.00" fill="#000000">1</text>
</a>
</g>
</g>
</g>
</svg>
