<?xml version="1.0" encoding="UTF-8" standalone="no"?>
<!DOCTYPE svg PUBLIC "-//W3C//DTD SVG 1.1//EN"
 "http://www.w3.org/Graphics/SVG/1.1/DTD/svg11.dtd">
<!-- Generated by graphviz version 2.40.1 (20161225.0304)
 -->
<!-- Title: src/core/experimental/dynamic_fusion/ClKernelBuildingImpl Pages: 1 -->
<svg width="429pt" height="447pt"
 viewBox="0.00 0.00 429.13 447.00" xmlns="http://www.w3.org/2000/svg" xmlns:xlink="http://www.w3.org/1999/xlink">
<g id="graph0" class="graph" transform="scale(1 1) rotate(0) translate(4 443)">
<title>src/core/experimental/dynamic_fusion/ClKernelBuildingImpl</title>
<polygon fill="#ffffff" stroke="transparent" points="-4,4 -4,-443 425.1306,-443 425.1306,4 -4,4"/>
<g id="clust1" class="cluster">
<title>clusterdir_4ba1de0cc05164046c8a7675a91253dd</title>
<g id="a_clust1"><a xlink:href="dir_4ba1de0cc05164046c8a7675a91253dd.xhtml" target="_top" xlink:title="dynamic_fusion">
<polygon fill="#ddddee" stroke="#000000" points="13.1306,-344 13.1306,-431 260.1306,-431 260.1306,-344 13.1306,-344"/>
<text text-anchor="middle" x="136.6306" y="-419" font-family="Helvetica,sans-Serif" font-size="10.00" fill="#000000">dynamic_fusion</text>
</a>
</g>
</g>
<g id="clust2" class="cluster">
<title>clusterdir_145dd76969821cf771138378bb8274dc</title>
<g id="a_clust2"><a xlink:href="dir_145dd76969821cf771138378bb8274dc.xhtml" target="_top">
<polygon fill="#eeeeff" stroke="#000000" points="21.1306,-352 21.1306,-404 252.1306,-404 252.1306,-352 21.1306,-352"/>
</a>
</g>
</g>
<!-- dir_145dd76969821cf771138378bb8274dc -->
<g id="node1" class="node">
<title>dir_145dd76969821cf771138378bb8274dc</title>
<text text-anchor="middle" x="89.1306" y="-375.5" font-family="Helvetica,sans-Serif" font-size="10.00" fill="#000000">ClKernelBuildingImpl</text>
</g>
<!-- dir_34b4cee2b5900b653deb3438fc906cf4 -->
<g id="node3" class="node">
<title>dir_34b4cee2b5900b653deb3438fc906cf4</title>
<g id="a_node3"><a xlink:href="dir_34b4cee2b5900b653deb3438fc906cf4.xhtml" target="_top" xlink:title="common">
<polygon fill="none" stroke="#000000" points="92.6306,-252 33.6306,-252 33.6306,-216 92.6306,-216 92.6306,-252"/>
<text text-anchor="middle" x="63.1306" y="-231.5" font-family="Helvetica,sans-Serif" font-size="10.00" fill="#000000">common</text>
</a>
</g>
</g>
<!-- dir_145dd76969821cf771138378bb8274dc&#45;&gt;dir_34b4cee2b5900b653deb3438fc906cf4 -->
<g id="edge21" class="edge">
<title>dir_145dd76969821cf771138378bb8274dc&#45;&gt;dir_34b4cee2b5900b653deb3438fc906cf4</title>
<path fill="none" stroke="#000000" d="M85.8377,-359.7623C81.3835,-335.0928 73.397,-290.8598 68.1813,-261.9731"/>
<polygon fill="#000000" stroke="#000000" points="71.618,-261.3086 66.3968,-252.0896 64.7294,-262.5524 71.618,-261.3086"/>
<g id="a_edge21&#45;headlabel"><a xlink:href="dir_000037_000050.xhtml" target="_top" xlink:title="1">
<text text-anchor="middle" x="75.0507" y="-261.8415" font-family="Helvetica,sans-Serif" font-size="10.00" fill="#000000">1</text>
</a>
</g>
</g>
<!-- dir_214608ef36d61442cb2b0c1c4e9a7def -->
<g id="node8" class="node">
<title>dir_214608ef36d61442cb2b0c1c4e9a7def</title>
<g id="a_node8"><a xlink:href="dir_214608ef36d61442cb2b0c1c4e9a7def.xhtml" target="_top" xlink:title="arm_compute">
<polygon fill="#ffffff" stroke="#ff0000" points="245.1306,-108 161.1306,-108 161.1306,-72 245.1306,-72 245.1306,-108"/>
<text text-anchor="middle" x="203.1306" y="-87.5" font-family="Helvetica,sans-Serif" font-size="10.00" fill="#000000">arm_compute</text>
</a>
</g>
</g>
<!-- dir_145dd76969821cf771138378bb8274dc&#45;&gt;dir_214608ef36d61442cb2b0c1c4e9a7def -->
<g id="edge22" class="edge">
<title>dir_145dd76969821cf771138378bb8274dc&#45;&gt;dir_214608ef36d61442cb2b0c1c4e9a7def</title>
<path fill="none" stroke="#000000" d="M56.6408,-359.9355C43.4523,-350.8949 29.4026,-338.7191 21.1306,-324 -2.4673,-282.0103 -6.4552,-260.4361 12.1306,-216 36.3663,-158.0559 103.5205,-123.6239 151.3352,-105.7637"/>
<polygon fill="#000000" stroke="#000000" points="152.7025,-108.9913 160.9219,-102.306 150.3275,-102.4065 152.7025,-108.9913"/>
<g id="a_edge22&#45;headlabel"><a xlink:href="dir_000037_000000.xhtml" target="_top" xlink:title="10">
<text text-anchor="middle" x="150.2844" y="-110.3817" font-family="Helvetica,sans-Serif" font-size="10.00" fill="#000000">10</text>
</a>
</g>
</g>
<!-- dir_5815af820a9cc9481f1d0990a0d60286 -->
<g id="node9" class="node">
<title>dir_5815af820a9cc9481f1d0990a0d60286</title>
<g id="a_node9"><a xlink:href="dir_5815af820a9cc9481f1d0990a0d60286.xhtml" target="_top" xlink:title="support">
<polygon fill="none" stroke="#000000" points="148.1306,-180 94.1306,-180 94.1306,-144 148.1306,-144 148.1306,-180"/>
<text text-anchor="middle" x="121.1306" y="-159.5" font-family="Helvetica,sans-Serif" font-size="10.00" fill="#000000">support</text>
</a>
</g>
</g>
<!-- dir_145dd76969821cf771138378bb8274dc&#45;&gt;dir_5815af820a9cc9481f1d0990a0d60286 -->
<g id="edge23" class="edge">
<title>dir_145dd76969821cf771138378bb8274dc&#45;&gt;dir_5815af820a9cc9481f1d0990a0d60286</title>
<path fill="none" stroke="#000000" d="M71.2513,-359.685C43.3333,-328.7762 -4.5866,-264.8542 24.1306,-216 37.0896,-193.954 62.6714,-180.2549 84.3107,-172.1724"/>
<polygon fill="#000000" stroke="#000000" points="85.6132,-175.4253 93.9162,-168.8443 83.3214,-168.8111 85.6132,-175.4253"/>
<g id="a_edge23&#45;headlabel"><a xlink:href="dir_000037_000033.xhtml" target="_top" xlink:title="2">
<text text-anchor="middle" x="83.1462" y="-176.7849" font-family="Helvetica,sans-Serif" font-size="10.00" fill="#000000">2</text>
</a>
</g>
</g>
<!-- dir_cc845e4cb0a4830714d7be3c2daa81c7 -->
<g id="node2" class="node">
<title>dir_cc845e4cb0a4830714d7be3c2daa81c7</title>
<g id="a_node2"><a xlink:href="dir_cc845e4cb0a4830714d7be3c2daa81c7.xhtml" target="_top" xlink:title="components">
<polygon fill="#ffffff" stroke="#000000" points="243.6306,-396 166.6306,-396 166.6306,-360 243.6306,-360 243.6306,-396"/>
<text text-anchor="middle" x="205.1306" y="-375.5" font-family="Helvetica,sans-Serif" font-size="10.00" fill="#000000">components</text>
</a>
</g>
</g>
<!-- dir_8c278f79c760e5c5fbd911f9870614c1 -->
<g id="node4" class="node">
<title>dir_8c278f79c760e5c5fbd911f9870614c1</title>
<g id="a_node4"><a xlink:href="dir_8c278f79c760e5c5fbd911f9870614c1.xhtml" target="_top" xlink:title="CL">
<polygon fill="#ffffff" stroke="#ff0000" points="241.1306,-252 187.1306,-252 187.1306,-216 241.1306,-216 241.1306,-252"/>
<text text-anchor="middle" x="214.1306" y="-231.5" font-family="Helvetica,sans-Serif" font-size="10.00" fill="#000000">CL</text>
</a>
</g>
</g>
<!-- dir_cc845e4cb0a4830714d7be3c2daa81c7&#45;&gt;dir_8c278f79c760e5c5fbd911f9870614c1 -->
<g id="edge16" class="edge">
<title>dir_cc845e4cb0a4830714d7be3c2daa81c7&#45;&gt;dir_8c278f79c760e5c5fbd911f9870614c1</title>
<path fill="none" stroke="#000000" d="M210.6753,-359.7012C213.5272,-349.3353 216.6988,-336.0653 218.1306,-324 220.5691,-303.453 219.4191,-280.1076 217.7383,-262.3431"/>
<polygon fill="#000000" stroke="#000000" points="221.2123,-261.9123 216.6806,-252.3356 214.2511,-262.6481 221.2123,-261.9123"/>
<g id="a_edge16&#45;headlabel"><a xlink:href="dir_000099_000024.xhtml" target="_top" xlink:title="1">
<text text-anchor="middle" x="224.4136" y="-262.6886" font-family="Helvetica,sans-Serif" font-size="10.00" fill="#000000">1</text>
</a>
</g>
</g>
<!-- dir_cf895c1ed808af158264b2f3d8d7f8f0 -->
<g id="node5" class="node">
<title>dir_cf895c1ed808af158264b2f3d8d7f8f0</title>
<g id="a_node5"><a xlink:href="dir_cf895c1ed808af158264b2f3d8d7f8f0.xhtml" target="_top" xlink:title="gpu">
<polygon fill="#ffffff" stroke="#ff0000" points="209.1306,-324 155.1306,-324 155.1306,-288 209.1306,-288 209.1306,-324"/>
<text text-anchor="middle" x="182.1306" y="-303.5" font-family="Helvetica,sans-Serif" font-size="10.00" fill="#000000">gpu</text>
</a>
</g>
</g>
<!-- dir_cc845e4cb0a4830714d7be3c2daa81c7&#45;&gt;dir_cf895c1ed808af158264b2f3d8d7f8f0 -->
<g id="edge17" class="edge">
<title>dir_cc845e4cb0a4830714d7be3c2daa81c7&#45;&gt;dir_cf895c1ed808af158264b2f3d8d7f8f0</title>
<path fill="none" stroke="#000000" d="M199.3268,-359.8314C196.8399,-352.0463 193.8775,-342.7729 191.1181,-334.1347"/>
<polygon fill="#000000" stroke="#000000" points="194.3897,-332.874 188.0127,-324.4133 187.7217,-335.0041 194.3897,-332.874"/>
<g id="a_edge17&#45;headlabel"><a xlink:href="dir_000099_000004.xhtml" target="_top" xlink:title="1">
<text text-anchor="middle" x="198.1881" y="-332.9342" font-family="Helvetica,sans-Serif" font-size="10.00" fill="#000000">1</text>
</a>
</g>
</g>
<!-- dir_cbdb8362360e11eafe2fa3bc74cf0ffd -->
<g id="node6" class="node">
<title>dir_cbdb8362360e11eafe2fa3bc74cf0ffd</title>
<g id="a_node6"><a xlink:href="dir_cbdb8362360e11eafe2fa3bc74cf0ffd.xhtml" target="_top" xlink:title="utils">
<polygon fill="#ffffff" stroke="#ff0000" points="230.1306,-36 176.1306,-36 176.1306,0 230.1306,0 230.1306,-36"/>
<text text-anchor="middle" x="203.1306" y="-15.5" font-family="Helvetica,sans-Serif" font-size="10.00" fill="#000000">utils</text>
</a>
</g>
</g>
<!-- dir_cc845e4cb0a4830714d7be3c2daa81c7&#45;&gt;dir_cbdb8362360e11eafe2fa3bc74cf0ffd -->
<g id="edge18" class="edge">
<title>dir_cc845e4cb0a4830714d7be3c2daa81c7&#45;&gt;dir_cbdb8362360e11eafe2fa3bc74cf0ffd</title>
<path fill="none" stroke="#000000" d="M243.7471,-370.6237C305.8764,-356.2682 421.1306,-318.2798 421.1306,-234 421.1306,-234 421.1306,-234 421.1306,-162 421.1306,-76.2813 302.3335,-38.6464 240.1316,-24.8159"/>
<polygon fill="#000000" stroke="#000000" points="240.8093,-21.3818 230.2997,-22.7232 239.3519,-28.2284 240.8093,-21.3818"/>
<g id="a_edge18&#45;headlabel"><a xlink:href="dir_000099_000046.xhtml" target="_top" xlink:title="1">
<text text-anchor="middle" x="244.9162" y="-16.853" font-family="Helvetica,sans-Serif" font-size="10.00" fill="#000000">1</text>
</a>
</g>
</g>
<!-- dir_707aa52d67938117542c6646238d6f70 -->
<g id="node7" class="node">
<title>dir_707aa52d67938117542c6646238d6f70</title>
<g id="a_node7"><a xlink:href="dir_707aa52d67938117542c6646238d6f70.xhtml" target="_top" xlink:title="helpers">
<polygon fill="none" stroke="#000000" points="296.1306,-180 242.1306,-180 242.1306,-144 296.1306,-144 296.1306,-180"/>
<text text-anchor="middle" x="269.1306" y="-159.5" font-family="Helvetica,sans-Serif" font-size="10.00" fill="#000000">helpers</text>
</a>
</g>
</g>
<!-- dir_cc845e4cb0a4830714d7be3c2daa81c7&#45;&gt;dir_707aa52d67938117542c6646238d6f70 -->
<g id="edge19" class="edge">
<title>dir_cc845e4cb0a4830714d7be3c2daa81c7&#45;&gt;dir_707aa52d67938117542c6646238d6f70</title>
<path fill="none" stroke="#000000" d="M218.2264,-359.936C234.3711,-336.4414 260.9236,-293.4839 271.1306,-252 276.1017,-231.7967 275.3618,-208.2677 273.5063,-190.3354"/>
<polygon fill="#000000" stroke="#000000" points="276.9599,-189.7398 272.284,-180.2326 270.0105,-190.5806 276.9599,-189.7398"/>
<g id="a_edge19&#45;headlabel"><a xlink:href="dir_000099_000038.xhtml" target="_top" xlink:title="6">
<text text-anchor="middle" x="280.2102" y="-190.4674" font-family="Helvetica,sans-Serif" font-size="10.00" fill="#000000">6</text>
</a>
</g>
</g>
<!-- dir_cc845e4cb0a4830714d7be3c2daa81c7&#45;&gt;dir_214608ef36d61442cb2b0c1c4e9a7def -->
<g id="edge20" class="edge">
<title>dir_cc845e4cb0a4830714d7be3c2daa81c7&#45;&gt;dir_214608ef36d61442cb2b0c1c4e9a7def</title>
<path fill="none" stroke="#000000" d="M230.3797,-359.8726C242.0714,-350.351 255.2969,-337.7998 264.1306,-324 308.366,-254.8966 347.4521,-214.2919 305.1306,-144 293.9396,-125.4128 273.9671,-112.8884 254.644,-104.6234"/>
<polygon fill="#000000" stroke="#000000" points="255.8376,-101.3317 245.2516,-100.9003 253.2581,-107.8391 255.8376,-101.3317"/>
<g id="a_edge20&#45;headlabel"><a xlink:href="dir_000099_000000.xhtml" target="_top" xlink:title="6">
<text text-anchor="middle" x="260.2255" y="-97.5168" font-family="Helvetica,sans-Serif" font-size="10.00" fill="#000000">6</text>
</a>
</g>
</g>
<!-- dir_8c278f79c760e5c5fbd911f9870614c1&#45;&gt;dir_cf895c1ed808af158264b2f3d8d7f8f0 -->
<g id="edge1" class="edge">
<title>dir_8c278f79c760e5c5fbd911f9870614c1&#45;&gt;dir_cf895c1ed808af158264b2f3d8d7f8f0</title>
<path fill="none" stroke="#000000" d="M211.923,-252.4133C209.1373,-260.3991 205.1064,-269.9155 200.8369,-278.6975"/>
<polygon fill="#000000" stroke="#000000" points="197.6021,-277.3354 196.158,-287.8314 203.8323,-280.5269 197.6021,-277.3354"/>
<g id="a_edge1&#45;headlabel"><a xlink:href="dir_000024_000004.xhtml" target="_top" xlink:title="4">
<text text-anchor="middle" x="196.7139" y="-270.3417" font-family="Helvetica,sans-Serif" font-size="10.00" fill="#000000">4</text>
</a>
</g>
</g>
<!-- dir_8c278f79c760e5c5fbd911f9870614c1&#45;&gt;dir_707aa52d67938117542c6646238d6f70 -->
<g id="edge2" class="edge">
<title>dir_8c278f79c760e5c5fbd911f9870614c1&#45;&gt;dir_707aa52d67938117542c6646238d6f70</title>
<path fill="none" stroke="#000000" d="M228.0095,-215.8314C234.3442,-207.5386 241.969,-197.557 248.9232,-188.4533"/>
<polygon fill="#000000" stroke="#000000" points="251.7759,-190.4847 255.065,-180.4133 246.2132,-186.2353 251.7759,-190.4847"/>
<g id="a_edge2&#45;headlabel"><a xlink:href="dir_000024_000038.xhtml" target="_top" xlink:title="80">
<text text-anchor="middle" x="251.8501" y="-192.5647" font-family="Helvetica,sans-Serif" font-size="10.00" fill="#000000">80</text>
</a>
</g>
</g>
<!-- dir_8c278f79c760e5c5fbd911f9870614c1&#45;&gt;dir_214608ef36d61442cb2b0c1c4e9a7def -->
<g id="edge3" class="edge">
<title>dir_8c278f79c760e5c5fbd911f9870614c1&#45;&gt;dir_214608ef36d61442cb2b0c1c4e9a7def</title>
<path fill="none" stroke="#000000" d="M212.7375,-215.7623C210.8613,-191.201 207.5037,-147.2474 205.2966,-118.3541"/>
<polygon fill="#000000" stroke="#000000" points="208.7641,-117.794 204.5125,-108.0896 201.7844,-118.3272 208.7641,-117.794"/>
<g id="a_edge3&#45;headlabel"><a xlink:href="dir_000024_000000.xhtml" target="_top" xlink:title="274">
<text text-anchor="middle" x="211.8688" y="-118.6619" font-family="Helvetica,sans-Serif" font-size="10.00" fill="#000000">274</text>
</a>
</g>
</g>
<!-- dir_8c278f79c760e5c5fbd911f9870614c1&#45;&gt;dir_5815af820a9cc9481f1d0990a0d60286 -->
<g id="edge4" class="edge">
<title>dir_8c278f79c760e5c5fbd911f9870614c1&#45;&gt;dir_5815af820a9cc9481f1d0990a0d60286</title>
<path fill="none" stroke="#000000" d="M190.6628,-215.8314C179.098,-206.8779 164.9903,-195.9558 152.5123,-186.2955"/>
<polygon fill="#000000" stroke="#000000" points="154.6408,-183.5171 144.591,-180.1628 150.3556,-189.0521 154.6408,-183.5171"/>
<g id="a_edge4&#45;headlabel"><a xlink:href="dir_000024_000033.xhtml" target="_top" xlink:title="43">
<text text-anchor="middle" x="159.2213" y="-180.9725" font-family="Helvetica,sans-Serif" font-size="10.00" fill="#000000">43</text>
</a>
</g>
</g>
<!-- dir_cf895c1ed808af158264b2f3d8d7f8f0&#45;&gt;dir_34b4cee2b5900b653deb3438fc906cf4 -->
<g id="edge5" class="edge">
<title>dir_cf895c1ed808af158264b2f3d8d7f8f0&#45;&gt;dir_34b4cee2b5900b653deb3438fc906cf4</title>
<path fill="none" stroke="#000000" d="M155.1277,-289.6621C139.361,-280.1226 119.2027,-267.926 101.7766,-257.3824"/>
<polygon fill="#000000" stroke="#000000" points="103.3183,-254.2245 92.9506,-252.0423 99.6946,-260.2136 103.3183,-254.2245"/>
<g id="a_edge5&#45;headlabel"><a xlink:href="dir_000004_000050.xhtml" target="_top" xlink:title="50">
<text text-anchor="middle" x="107.8636" y="-251.156" font-family="Helvetica,sans-Serif" font-size="10.00" fill="#000000">50</text>
</a>
</g>
</g>
<!-- dir_cf895c1ed808af158264b2f3d8d7f8f0&#45;&gt;dir_8c278f79c760e5c5fbd911f9870614c1 -->
<g id="edge6" class="edge">
<title>dir_cf895c1ed808af158264b2f3d8d7f8f0&#45;&gt;dir_8c278f79c760e5c5fbd911f9870614c1</title>
<path fill="none" stroke="#000000" d="M184.2532,-287.8314C187.0133,-279.8771 191.0289,-270.369 195.2934,-261.5723"/>
<polygon fill="#000000" stroke="#000000" points="198.5397,-262.911 199.971,-252.4133 192.3057,-259.7272 198.5397,-262.911"/>
<g id="a_edge6&#45;headlabel"><a xlink:href="dir_000004_000024.xhtml" target="_top" xlink:title="47">
<text text-anchor="middle" x="199.4335" y="-264.9036" font-family="Helvetica,sans-Serif" font-size="10.00" fill="#000000">47</text>
</a>
</g>
</g>
<!-- dir_cf895c1ed808af158264b2f3d8d7f8f0&#45;&gt;dir_cbdb8362360e11eafe2fa3bc74cf0ffd -->
<g id="edge7" class="edge">
<title>dir_cf895c1ed808af158264b2f3d8d7f8f0&#45;&gt;dir_cbdb8362360e11eafe2fa3bc74cf0ffd</title>
<path fill="none" stroke="#000000" d="M209.1399,-294.7553C228.4485,-285.5964 253.9531,-271.0673 271.1306,-252 294.8172,-225.7076 297.3875,-214.531 305.1306,-180 317.3499,-125.5078 269.5855,-72.7572 235.3155,-42.9379"/>
<polygon fill="#000000" stroke="#000000" points="237.267,-40.0045 227.3714,-36.2193 232.7467,-45.3493 237.267,-40.0045"/>
<g id="a_edge7&#45;headlabel"><a xlink:href="dir_000004_000046.xhtml" target="_top" xlink:title="2">
<text text-anchor="middle" x="241.8451" y="-37.6578" font-family="Helvetica,sans-Serif" font-size="10.00" fill="#000000">2</text>
</a>
</g>
</g>
<!-- dir_cf895c1ed808af158264b2f3d8d7f8f0&#45;&gt;dir_707aa52d67938117542c6646238d6f70 -->
<g id="edge8" class="edge">
<title>dir_cf895c1ed808af158264b2f3d8d7f8f0&#45;&gt;dir_707aa52d67938117542c6646238d6f70</title>
<path fill="none" stroke="#000000" d="M209.1985,-290.8652C223.511,-281.489 240.14,-268.1551 250.1306,-252 261.629,-233.407 266.263,-208.9633 268.0861,-190.243"/>
<polygon fill="#000000" stroke="#000000" points="271.5785,-190.4754 268.8506,-180.2378 264.5988,-189.9421 271.5785,-190.4754"/>
<g id="a_edge8&#45;headlabel"><a xlink:href="dir_000004_000038.xhtml" target="_top" xlink:title="97">
<text text-anchor="middle" x="274.1358" y="-191.7759" font-family="Helvetica,sans-Serif" font-size="10.00" fill="#000000">97</text>
</a>
</g>
</g>
<!-- dir_cf895c1ed808af158264b2f3d8d7f8f0&#45;&gt;dir_214608ef36d61442cb2b0c1c4e9a7def -->
<g id="edge9" class="edge">
<title>dir_cf895c1ed808af158264b2f3d8d7f8f0&#45;&gt;dir_214608ef36d61442cb2b0c1c4e9a7def</title>
<path fill="none" stroke="#000000" d="M180.4225,-287.5244C179.5443,-277.1031 178.5684,-263.8368 178.1306,-252 177.5393,-236.0109 176.5662,-231.9233 178.1306,-216 181.4697,-182.0146 189.7587,-143.6057 195.8814,-118.2242"/>
<polygon fill="#000000" stroke="#000000" points="199.3585,-118.7419 198.3521,-108.1949 192.5617,-117.0675 199.3585,-118.7419"/>
<g id="a_edge9&#45;headlabel"><a xlink:href="dir_000004_000000.xhtml" target="_top" xlink:title="474">
<text text-anchor="middle" x="201.2556" y="-120.4112" font-family="Helvetica,sans-Serif" font-size="10.00" fill="#000000">474</text>
</a>
</g>
</g>
<!-- dir_cf895c1ed808af158264b2f3d8d7f8f0&#45;&gt;dir_5815af820a9cc9481f1d0990a0d60286 -->
<g id="edge10" class="edge">
<title>dir_cf895c1ed808af158264b2f3d8d7f8f0&#45;&gt;dir_5815af820a9cc9481f1d0990a0d60286</title>
<path fill="none" stroke="#000000" d="M167.4561,-287.9484C159.8784,-277.8749 151.0136,-264.8053 145.1306,-252 136.0449,-232.2233 129.8791,-208.366 126.0742,-190.1846"/>
<polygon fill="#000000" stroke="#000000" points="129.4752,-189.3408 124.1025,-180.2093 122.6081,-190.6982 129.4752,-189.3408"/>
<g id="a_edge10&#45;headlabel"><a xlink:href="dir_000004_000033.xhtml" target="_top" xlink:title="100">
<text text-anchor="middle" x="132.9575" y="-189.8167" font-family="Helvetica,sans-Serif" font-size="10.00" fill="#000000">100</text>
</a>
</g>
</g>
<!-- dir_cbdb8362360e11eafe2fa3bc74cf0ffd&#45;&gt;dir_214608ef36d61442cb2b0c1c4e9a7def -->
<g id="edge11" class="edge">
<title>dir_cbdb8362360e11eafe2fa3bc74cf0ffd&#45;&gt;dir_214608ef36d61442cb2b0c1c4e9a7def</title>
<path fill="none" stroke="#000000" d="M209.1066,-36.4133C209.8378,-44.0593 210.0509,-53.1084 209.7461,-61.5726"/>
<polygon fill="#000000" stroke="#000000" points="206.2354,-61.6264 209.083,-71.8314 213.2208,-62.078 206.2354,-61.6264"/>
<g id="a_edge11&#45;headlabel"><a xlink:href="dir_000046_000000.xhtml" target="_top" xlink:title="42">
<text text-anchor="middle" x="203.6338" y="-55.3562" font-family="Helvetica,sans-Serif" font-size="10.00" fill="#000000">42</text>
</a>
</g>
</g>
<!-- dir_cbdb8362360e11eafe2fa3bc74cf0ffd&#45;&gt;dir_5815af820a9cc9481f1d0990a0d60286 -->
<g id="edge12" class="edge">
<title>dir_cbdb8362360e11eafe2fa3bc74cf0ffd&#45;&gt;dir_5815af820a9cc9481f1d0990a0d60286</title>
<path fill="none" stroke="#000000" d="M182.2813,-36.0762C172.0454,-45.8576 160.21,-58.6514 152.1306,-72 140.4883,-91.2354 132.4649,-115.4458 127.5021,-133.91"/>
<polygon fill="#000000" stroke="#000000" points="124.0668,-133.2177 124.993,-143.772 130.8507,-134.9438 124.0668,-133.2177"/>
<g id="a_edge12&#45;headlabel"><a xlink:href="dir_000046_000033.xhtml" target="_top" xlink:title="4">
<text text-anchor="middle" x="122.2014" y="-126.5341" font-family="Helvetica,sans-Serif" font-size="10.00" fill="#000000">4</text>
</a>
</g>
</g>
<!-- dir_707aa52d67938117542c6646238d6f70&#45;&gt;dir_214608ef36d61442cb2b0c1c4e9a7def -->
<g id="edge13" class="edge">
<title>dir_707aa52d67938117542c6646238d6f70&#45;&gt;dir_214608ef36d61442cb2b0c1c4e9a7def</title>
<path fill="none" stroke="#000000" d="M252.4761,-143.8314C244.7192,-135.3694 235.3505,-125.1489 226.8696,-115.8971"/>
<polygon fill="#000000" stroke="#000000" points="229.3468,-113.4198 220.0095,-108.4133 224.1867,-118.1499 229.3468,-113.4198"/>
<g id="a_edge13&#45;headlabel"><a xlink:href="dir_000038_000000.xhtml" target="_top" xlink:title="15">
<text text-anchor="middle" x="233.8687" y="-111.651" font-family="Helvetica,sans-Serif" font-size="10.00" fill="#000000">15</text>
</a>
</g>
</g>
<!-- dir_214608ef36d61442cb2b0c1c4e9a7def&#45;&gt;dir_cbdb8362360e11eafe2fa3bc74cf0ffd -->
<g id="edge14" class="edge">
<title>dir_214608ef36d61442cb2b0c1c4e9a7def&#45;&gt;dir_cbdb8362360e11eafe2fa3bc74cf0ffd</title>
<path fill="none" stroke="#000000" d="M197.1782,-71.8314C196.4278,-64.131 196.2069,-54.9743 196.5156,-46.4166"/>
<polygon fill="#000000" stroke="#000000" points="200.0099,-46.6161 197.1546,-36.4133 193.0241,-46.1697 200.0099,-46.6161"/>
<g id="a_edge14&#45;headlabel"><a xlink:href="dir_000000_000046.xhtml" target="_top" xlink:title="1">
<text text-anchor="middle" x="202.6143" y="-47.8844" font-family="Helvetica,sans-Serif" font-size="10.00" fill="#000000">1</text>
</a>
</g>
</g>
<!-- dir_214608ef36d61442cb2b0c1c4e9a7def&#45;&gt;dir_5815af820a9cc9481f1d0990a0d60286 -->
<g id="edge15" class="edge">
<title>dir_214608ef36d61442cb2b0c1c4e9a7def&#45;&gt;dir_5815af820a9cc9481f1d0990a0d60286</title>
<path fill="none" stroke="#000000" d="M188.397,-108.1628C179.1627,-117.0301 167.0256,-127.8295 155.5609,-137.4219"/>
<polygon fill="#000000" stroke="#000000" points="153.2711,-134.7735 147.7751,-143.8314 157.7201,-140.1778 153.2711,-134.7735"/>
<g id="a_edge15&#45;headlabel"><a xlink:href="dir_000000_000033.xhtml" target="_top" xlink:title="18">
<text text-anchor="middle" x="154.2417" y="-127.7968" font-family="Helvetica,sans-Serif" font-size="10.00" fill="#000000">18</text>
</a>
</g>
</g>
<!-- dir_5815af820a9cc9481f1d0990a0d60286&#45;&gt;dir_214608ef36d61442cb2b0c1c4e9a7def -->
<g id="edge24" class="edge">
<title>dir_5815af820a9cc9481f1d0990a0d60286&#45;&gt;dir_214608ef36d61442cb2b0c1c4e9a7def</title>
<path fill="none" stroke="#000000" d="M135.8703,-143.8314C145.1059,-134.9632 157.2435,-124.1637 168.7079,-114.5718"/>
<polygon fill="#000000" stroke="#000000" points="170.9973,-117.2206 176.4934,-108.1628 166.5483,-111.8162 170.9973,-117.2206"/>
<g id="a_edge24&#45;headlabel"><a xlink:href="dir_000033_000000.xhtml" target="_top" xlink:title="6">
<text text-anchor="middle" x="170.0266" y="-119.1972" font-family="Helvetica,sans-Serif" font-size="10.00" fill="#000000">6</text>
</a>
</g>
</g>
</g>
</svg>
