<?xml version="1.0" encoding="UTF-8" standalone="no"?>
<!DOCTYPE svg PUBLIC "-//W3C//DTD SVG 1.1//EN"
 "http://www.w3.org/Graphics/SVG/1.1/DTD/svg11.dtd">
<!-- Generated by graphviz version 2.40.1 (20161225.0304)
 -->
<!-- Title: src/gpu/cl/operators/experimental Pages: 1 -->
<svg width="275pt" height="303pt"
 viewBox="0.00 0.00 275.00 303.00" xmlns="http://www.w3.org/2000/svg" xmlns:xlink="http://www.w3.org/1999/xlink">
<g id="graph0" class="graph" transform="scale(1 1) rotate(0) translate(4 299)">
<title>src/gpu/cl/operators/experimental</title>
<polygon fill="#ffffff" stroke="transparent" points="-4,4 -4,-299 271,-299 271,4 -4,4"/>
<g id="clust1" class="cluster">
<title>clusterdir_9f6e96fe293420b74afaf1a4dc4f9f82</title>
<g id="a_clust1"><a xlink:href="dir_9f6e96fe293420b74afaf1a4dc4f9f82.xhtml" target="_top" xlink:title="operators">
<polygon fill="#ddddee" stroke="#000000" points="33,-200 33,-287 259,-287 259,-200 33,-200"/>
<text text-anchor="middle" x="146" y="-275" font-family="Helvetica,sans-Serif" font-size="10.00" fill="#000000">operators</text>
</a>
</g>
</g>
<g id="clust2" class="cluster">
<title>clusterdir_768958046a68c3c10f14742ecaf48a0d</title>
<g id="a_clust2"><a xlink:href="dir_768958046a68c3c10f14742ecaf48a0d.xhtml" target="_top">
<polygon fill="#eeeeff" stroke="#000000" points="41,-208 41,-260 251,-260 251,-208 41,-208"/>
</a>
</g>
</g>
<!-- dir_768958046a68c3c10f14742ecaf48a0d -->
<g id="node1" class="node">
<title>dir_768958046a68c3c10f14742ecaf48a0d</title>
<text text-anchor="middle" x="202" y="-231.5" font-family="Helvetica,sans-Serif" font-size="10.00" fill="#000000">experimental</text>
</g>
<!-- dir_1f3a6dbb582d2ace48b7d50d0dfb0d02 -->
<g id="node2" class="node">
<title>dir_1f3a6dbb582d2ace48b7d50d0dfb0d02</title>
<g id="a_node2"><a xlink:href="dir_1f3a6dbb582d2ace48b7d50d0dfb0d02.xhtml" target="_top" xlink:title="dynamic_fusion">
<polygon fill="#ffffff" stroke="#000000" points="143,-252 49,-252 49,-216 143,-216 143,-252"/>
<text text-anchor="middle" x="96" y="-231.5" font-family="Helvetica,sans-Serif" font-size="10.00" fill="#000000">dynamic_fusion</text>
</a>
</g>
</g>
<!-- dir_d31afe59158d6d6f352f20563e96492f -->
<g id="node3" class="node">
<title>dir_d31afe59158d6d6f352f20563e96492f</title>
<g id="a_node3"><a xlink:href="dir_d31afe59158d6d6f352f20563e96492f.xhtml" target="_top" xlink:title="kernels">
<polygon fill="#ffffff" stroke="#ff0000" points="123,-180 69,-180 69,-144 123,-144 123,-180"/>
<text text-anchor="middle" x="96" y="-159.5" font-family="Helvetica,sans-Serif" font-size="10.00" fill="#000000">kernels</text>
</a>
</g>
</g>
<!-- dir_1f3a6dbb582d2ace48b7d50d0dfb0d02&#45;&gt;dir_d31afe59158d6d6f352f20563e96492f -->
<g id="edge3" class="edge">
<title>dir_1f3a6dbb582d2ace48b7d50d0dfb0d02&#45;&gt;dir_d31afe59158d6d6f352f20563e96492f</title>
<path fill="none" stroke="#000000" d="M96,-215.8314C96,-208.131 96,-198.9743 96,-190.4166"/>
<polygon fill="#000000" stroke="#000000" points="99.5001,-190.4132 96,-180.4133 92.5001,-190.4133 99.5001,-190.4132"/>
<g id="a_edge3&#45;headlabel"><a xlink:href="dir_000433_000423.xhtml" target="_top" xlink:title="1">
<text text-anchor="middle" x="102.3393" y="-191.5079" font-family="Helvetica,sans-Serif" font-size="10.00" fill="#000000">1</text>
</a>
</g>
</g>
<!-- dir_214608ef36d61442cb2b0c1c4e9a7def -->
<g id="node4" class="node">
<title>dir_214608ef36d61442cb2b0c1c4e9a7def</title>
<g id="a_node4"><a xlink:href="dir_214608ef36d61442cb2b0c1c4e9a7def.xhtml" target="_top" xlink:title="arm_compute">
<polygon fill="#ffffff" stroke="#ff0000" points="84,-108 0,-108 0,-72 84,-72 84,-108"/>
<text text-anchor="middle" x="42" y="-87.5" font-family="Helvetica,sans-Serif" font-size="10.00" fill="#000000">arm_compute</text>
</a>
</g>
</g>
<!-- dir_1f3a6dbb582d2ace48b7d50d0dfb0d02&#45;&gt;dir_214608ef36d61442cb2b0c1c4e9a7def -->
<g id="edge4" class="edge">
<title>dir_1f3a6dbb582d2ace48b7d50d0dfb0d02&#45;&gt;dir_214608ef36d61442cb2b0c1c4e9a7def</title>
<path fill="none" stroke="#000000" d="M81.0592,-215.5417C73.683,-205.5591 65.2604,-192.6998 60,-180 51.7932,-160.1869 47.2404,-136.3314 44.768,-118.16"/>
<polygon fill="#000000" stroke="#000000" points="48.2365,-117.6887 43.5407,-108.1913 41.2889,-118.5441 48.2365,-117.6887"/>
<g id="a_edge4&#45;headlabel"><a xlink:href="dir_000433_000000.xhtml" target="_top" xlink:title="3">
<text text-anchor="middle" x="51.4936" y="-118.4095" font-family="Helvetica,sans-Serif" font-size="10.00" fill="#000000">3</text>
</a>
</g>
</g>
<!-- dir_5815af820a9cc9481f1d0990a0d60286 -->
<g id="node5" class="node">
<title>dir_5815af820a9cc9481f1d0990a0d60286</title>
<g id="a_node5"><a xlink:href="dir_5815af820a9cc9481f1d0990a0d60286.xhtml" target="_top" xlink:title="support">
<polygon fill="none" stroke="#000000" points="104,-36 50,-36 50,0 104,0 104,-36"/>
<text text-anchor="middle" x="77" y="-15.5" font-family="Helvetica,sans-Serif" font-size="10.00" fill="#000000">support</text>
</a>
</g>
</g>
<!-- dir_1f3a6dbb582d2ace48b7d50d0dfb0d02&#45;&gt;dir_5815af820a9cc9481f1d0990a0d60286 -->
<g id="edge5" class="edge">
<title>dir_1f3a6dbb582d2ace48b7d50d0dfb0d02&#45;&gt;dir_5815af820a9cc9481f1d0990a0d60286</title>
<path fill="none" stroke="#000000" d="M111.9905,-215.9169C119.6538,-206.0371 128.0166,-193.1563 132,-180 136.6365,-164.6865 134.5629,-159.7934 132,-144 126.5969,-110.7046 121.7986,-102.7795 108,-72 103.9081,-62.8726 98.7243,-53.2885 93.7724,-44.7703"/>
<polygon fill="#000000" stroke="#000000" points="96.6807,-42.8137 88.5527,-36.0176 90.6685,-46.399 96.6807,-42.8137"/>
<g id="a_edge5&#45;headlabel"><a xlink:href="dir_000433_000033.xhtml" target="_top" xlink:title="1">
<text text-anchor="middle" x="100.9603" y="-41.9468" font-family="Helvetica,sans-Serif" font-size="10.00" fill="#000000">1</text>
</a>
</g>
</g>
<!-- dir_d31afe59158d6d6f352f20563e96492f&#45;&gt;dir_214608ef36d61442cb2b0c1c4e9a7def -->
<g id="edge1" class="edge">
<title>dir_d31afe59158d6d6f352f20563e96492f&#45;&gt;dir_214608ef36d61442cb2b0c1c4e9a7def</title>
<path fill="none" stroke="#000000" d="M82.3735,-143.8314C76.154,-135.5386 68.6678,-125.557 61.84,-116.4533"/>
<polygon fill="#000000" stroke="#000000" points="64.61,-114.3133 55.81,-108.4133 59.01,-118.5133 64.61,-114.3133"/>
<g id="a_edge1&#45;headlabel"><a xlink:href="dir_000423_000000.xhtml" target="_top" xlink:title="372">
<text text-anchor="middle" x="69.0381" y="-112.9854" font-family="Helvetica,sans-Serif" font-size="10.00" fill="#000000">372</text>
</a>
</g>
</g>
<!-- dir_d31afe59158d6d6f352f20563e96492f&#45;&gt;dir_5815af820a9cc9481f1d0990a0d60286 -->
<g id="edge2" class="edge">
<title>dir_d31afe59158d6d6f352f20563e96492f&#45;&gt;dir_5815af820a9cc9481f1d0990a0d60286</title>
<path fill="none" stroke="#000000" d="M96.7392,-143.9402C97.1735,-125.675 97.0022,-96.6916 93,-72 91.5986,-63.354 89.2189,-54.147 86.7171,-45.8301"/>
<polygon fill="#000000" stroke="#000000" points="90.0285,-44.6935 83.6625,-36.2245 83.3576,-46.8149 90.0285,-44.6935"/>
<g id="a_edge2&#45;headlabel"><a xlink:href="dir_000423_000033.xhtml" target="_top" xlink:title="93">
<text text-anchor="middle" x="93.8235" y="-44.7587" font-family="Helvetica,sans-Serif" font-size="10.00" fill="#000000">93</text>
</a>
</g>
</g>
<!-- dir_214608ef36d61442cb2b0c1c4e9a7def&#45;&gt;dir_5815af820a9cc9481f1d0990a0d60286 -->
<g id="edge6" class="edge">
<title>dir_214608ef36d61442cb2b0c1c4e9a7def&#45;&gt;dir_5815af820a9cc9481f1d0990a0d60286</title>
<path fill="none" stroke="#000000" d="M44.8796,-71.8314C48.004,-63.7925 52.4769,-54.1666 57.1618,-45.2918"/>
<polygon fill="#000000" stroke="#000000" points="60.2953,-46.8579 62.0731,-36.4133 54.17,-43.4696 60.2953,-46.8579"/>
<g id="a_edge6&#45;headlabel"><a xlink:href="dir_000000_000033.xhtml" target="_top" xlink:title="18">
<text text-anchor="middle" x="61.0399" y="-48.8776" font-family="Helvetica,sans-Serif" font-size="10.00" fill="#000000">18</text>
</a>
</g>
</g>
<!-- dir_5815af820a9cc9481f1d0990a0d60286&#45;&gt;dir_214608ef36d61442cb2b0c1c4e9a7def -->
<g id="edge7" class="edge">
<title>dir_5815af820a9cc9481f1d0990a0d60286&#45;&gt;dir_214608ef36d61442cb2b0c1c4e9a7def</title>
<path fill="none" stroke="#000000" d="M74.0251,-36.4133C70.8735,-44.484 66.3849,-54.1182 61.6958,-62.9775"/>
<polygon fill="#000000" stroke="#000000" points="58.5747,-61.3889 56.7844,-71.8314 64.6959,-64.7845 58.5747,-61.3889"/>
<g id="a_edge7&#45;headlabel"><a xlink:href="dir_000033_000000.xhtml" target="_top" xlink:title="6">
<text text-anchor="middle" x="57.8355" y="-54.3682" font-family="Helvetica,sans-Serif" font-size="10.00" fill="#000000">6</text>
</a>
</g>
</g>
</g>
</svg>
