<?xml version="1.0" encoding="UTF-8" standalone="no"?>
<!DOCTYPE svg PUBLIC "-//W3C//DTD SVG 1.1//EN"
 "http://www.w3.org/Graphics/SVG/1.1/DTD/svg11.dtd">
<!-- Generated by graphviz version 2.40.1 (20161225.0304)
 -->
<!-- Title: src/core/NEON/kernels/batchnormalization Pages: 1 -->
<svg width="260pt" height="231pt"
 viewBox="0.00 0.00 260.00 231.00" xmlns="http://www.w3.org/2000/svg" xmlns:xlink="http://www.w3.org/1999/xlink">
<g id="graph0" class="graph" transform="scale(1 1) rotate(0) translate(4 227)">
<title>src/core/NEON/kernels/batchnormalization</title>
<polygon fill="#ffffff" stroke="transparent" points="-4,4 -4,-227 256,-227 256,4 -4,4"/>
<g id="clust1" class="cluster">
<title>clusterdir_1ce938f580a6f304b99685e2c1dd19db</title>
<g id="a_clust1"><a xlink:href="dir_1ce938f580a6f304b99685e2c1dd19db.xhtml" target="_top" xlink:title="kernels">
<polygon fill="#ddddee" stroke="#000000" points="29,-128 29,-215 244,-215 244,-128 29,-128"/>
<text text-anchor="middle" x="136.5" y="-203" font-family="Helvetica,sans-Serif" font-size="10.00" fill="#000000">kernels</text>
</a>
</g>
</g>
<g id="clust2" class="cluster">
<title>clusterdir_f5eb3f990fb66d2a1104d2728906b7d4</title>
<g id="a_clust2"><a xlink:href="dir_f5eb3f990fb66d2a1104d2728906b7d4.xhtml" target="_top">
<polygon fill="#eeeeff" stroke="#000000" points="37,-136 37,-188 236,-188 236,-136 37,-136"/>
</a>
</g>
</g>
<!-- dir_f5eb3f990fb66d2a1104d2728906b7d4 -->
<g id="node1" class="node">
<title>dir_f5eb3f990fb66d2a1104d2728906b7d4</title>
<text text-anchor="middle" x="173" y="-159.5" font-family="Helvetica,sans-Serif" font-size="10.00" fill="#000000">batchnormalization</text>
</g>
<!-- dir_cb95619f2cb225dbc45806f4593be807 -->
<g id="node2" class="node">
<title>dir_cb95619f2cb225dbc45806f4593be807</title>
<g id="a_node2"><a xlink:href="dir_cb95619f2cb225dbc45806f4593be807.xhtml" target="_top" xlink:title="impl">
<polygon fill="#ffffff" stroke="#ff0000" points="99,-180 45,-180 45,-144 99,-144 99,-180"/>
<text text-anchor="middle" x="72" y="-159.5" font-family="Helvetica,sans-Serif" font-size="10.00" fill="#000000">impl</text>
</a>
</g>
</g>
<!-- dir_8224aa485683c095eaa3fd7faa788467 -->
<g id="node3" class="node">
<title>dir_8224aa485683c095eaa3fd7faa788467</title>
<g id="a_node3"><a xlink:href="dir_8224aa485683c095eaa3fd7faa788467.xhtml" target="_top" xlink:title="wrapper">
<polygon fill="#ffffff" stroke="#ff0000" points="56,-36 0,-36 0,0 56,0 56,-36"/>
<text text-anchor="middle" x="28" y="-15.5" font-family="Helvetica,sans-Serif" font-size="10.00" fill="#000000">wrapper</text>
</a>
</g>
</g>
<!-- dir_cb95619f2cb225dbc45806f4593be807&#45;&gt;dir_8224aa485683c095eaa3fd7faa788467 -->
<g id="edge3" class="edge">
<title>dir_cb95619f2cb225dbc45806f4593be807&#45;&gt;dir_8224aa485683c095eaa3fd7faa788467</title>
<path fill="none" stroke="#000000" d="M56.4855,-143.7612C48.9524,-133.8388 40.5625,-120.9669 36,-108 29.0254,-88.1779 27.1595,-64.4574 26.9656,-46.3459"/>
<polygon fill="#000000" stroke="#000000" points="30.4666,-46.1609 27.0243,-36.1409 23.4667,-46.1206 30.4666,-46.1609"/>
<g id="a_edge3&#45;headlabel"><a xlink:href="dir_000309_000031.xhtml" target="_top" xlink:title="2">
<text text-anchor="middle" x="33.2853" y="-47.2717" font-family="Helvetica,sans-Serif" font-size="10.00" fill="#000000">2</text>
</a>
</g>
</g>
<!-- dir_47c52b626b579a630a004d74c906e8a5 -->
<g id="node4" class="node">
<title>dir_47c52b626b579a630a004d74c906e8a5</title>
<g id="a_node4"><a xlink:href="dir_47c52b626b579a630a004d74c906e8a5.xhtml" target="_top" xlink:title="detail">
<polygon fill="none" stroke="#000000" points="99,-108 45,-108 45,-72 99,-72 99,-108"/>
<text text-anchor="middle" x="72" y="-87.5" font-family="Helvetica,sans-Serif" font-size="10.00" fill="#000000">detail</text>
</a>
</g>
</g>
<!-- dir_cb95619f2cb225dbc45806f4593be807&#45;&gt;dir_47c52b626b579a630a004d74c906e8a5 -->
<g id="edge4" class="edge">
<title>dir_cb95619f2cb225dbc45806f4593be807&#45;&gt;dir_47c52b626b579a630a004d74c906e8a5</title>
<path fill="none" stroke="#000000" d="M72,-143.8314C72,-136.131 72,-126.9743 72,-118.4166"/>
<polygon fill="#000000" stroke="#000000" points="75.5001,-118.4132 72,-108.4133 68.5001,-118.4133 75.5001,-118.4132"/>
<g id="a_edge4&#45;headlabel"><a xlink:href="dir_000309_000396.xhtml" target="_top" xlink:title="2">
<text text-anchor="middle" x="78.3393" y="-119.5079" font-family="Helvetica,sans-Serif" font-size="10.00" fill="#000000">2</text>
</a>
</g>
</g>
<!-- dir_214608ef36d61442cb2b0c1c4e9a7def -->
<g id="node5" class="node">
<title>dir_214608ef36d61442cb2b0c1c4e9a7def</title>
<g id="a_node5"><a xlink:href="dir_214608ef36d61442cb2b0c1c4e9a7def.xhtml" target="_top" xlink:title="arm_compute">
<polygon fill="#ffffff" stroke="#ff0000" points="163,-36 79,-36 79,0 163,0 163,-36"/>
<text text-anchor="middle" x="121" y="-15.5" font-family="Helvetica,sans-Serif" font-size="10.00" fill="#000000">arm_compute</text>
</a>
</g>
</g>
<!-- dir_cb95619f2cb225dbc45806f4593be807&#45;&gt;dir_214608ef36d61442cb2b0c1c4e9a7def -->
<g id="edge5" class="edge">
<title>dir_cb95619f2cb225dbc45806f4593be807&#45;&gt;dir_214608ef36d61442cb2b0c1c4e9a7def</title>
<path fill="none" stroke="#000000" d="M87.2239,-143.6545C94.6775,-133.7028 103.084,-120.837 108,-108 115.5631,-88.2506 118.7707,-64.5268 120.1101,-46.3954"/>
<polygon fill="#000000" stroke="#000000" points="123.6178,-46.3659 120.7133,-36.177 116.63,-45.9533 123.6178,-46.3659"/>
<g id="a_edge5&#45;headlabel"><a xlink:href="dir_000309_000000.xhtml" target="_top" xlink:title="12">
<text text-anchor="middle" x="126.2404" y="-47.6216" font-family="Helvetica,sans-Serif" font-size="10.00" fill="#000000">12</text>
</a>
</g>
</g>
<!-- dir_47c52b626b579a630a004d74c906e8a5&#45;&gt;dir_8224aa485683c095eaa3fd7faa788467 -->
<g id="edge1" class="edge">
<title>dir_47c52b626b579a630a004d74c906e8a5&#45;&gt;dir_8224aa485683c095eaa3fd7faa788467</title>
<path fill="none" stroke="#000000" d="M60.8969,-71.8314C55.9326,-63.7079 49.9778,-53.9637 44.5072,-45.0118"/>
<polygon fill="#000000" stroke="#000000" points="47.4536,-43.121 39.2526,-36.4133 41.4806,-46.7712 47.4536,-43.121"/>
<g id="a_edge1&#45;headlabel"><a xlink:href="dir_000396_000031.xhtml" target="_top" xlink:title="2">
<text text-anchor="middle" x="51.7507" y="-42.2077" font-family="Helvetica,sans-Serif" font-size="10.00" fill="#000000">2</text>
</a>
</g>
</g>
<!-- dir_47c52b626b579a630a004d74c906e8a5&#45;&gt;dir_214608ef36d61442cb2b0c1c4e9a7def -->
<g id="edge2" class="edge">
<title>dir_47c52b626b579a630a004d74c906e8a5&#45;&gt;dir_214608ef36d61442cb2b0c1c4e9a7def</title>
<path fill="none" stroke="#000000" d="M84.3648,-71.8314C89.9509,-63.6232 96.663,-53.7606 102.8072,-44.7323"/>
<polygon fill="#000000" stroke="#000000" points="105.736,-46.6496 108.4687,-36.4133 99.949,-42.7112 105.736,-46.6496"/>
<g id="a_edge2&#45;headlabel"><a xlink:href="dir_000396_000000.xhtml" target="_top" xlink:title="3">
<text text-anchor="middle" x="106.0609" y="-48.7187" font-family="Helvetica,sans-Serif" font-size="10.00" fill="#000000">3</text>
</a>
</g>
</g>
</g>
</svg>
