<?xml version="1.0" encoding="UTF-8" standalone="no"?>
<!DOCTYPE svg PUBLIC "-//W3C//DTD SVG 1.1//EN"
 "http://www.w3.org/Graphics/SVG/1.1/DTD/svg11.dtd">
<!-- Generated by graphviz version 2.40.1 (20161225.0304)
 -->
<!-- Title: src/cpu/kernels/elementwise_binary/generic/sve2 Pages: 1 -->
<svg width="106pt" height="223pt"
 viewBox="0.00 0.00 106.00 223.00" xmlns="http://www.w3.org/2000/svg" xmlns:xlink="http://www.w3.org/1999/xlink">
<g id="graph0" class="graph" transform="scale(1 1) rotate(0) translate(4 219)">
<title>src/cpu/kernels/elementwise_binary/generic/sve2</title>
<polygon fill="#ffffff" stroke="transparent" points="-4,4 -4,-219 102,-219 102,4 -4,4"/>
<g id="clust1" class="cluster">
<title>clusterdir_8009c81bd03a5456d0f628033db7357f</title>
<g id="a_clust1"><a xlink:href="dir_8009c81bd03a5456d0f628033db7357f.xhtml" target="_top" xlink:title="generic">
<polygon fill="#ddddee" stroke="#000000" points="20,-136 20,-207 90,-207 90,-136 20,-136"/>
<text text-anchor="middle" x="55" y="-195" font-family="Helvetica,sans-Serif" font-size="10.00" fill="#000000">generic</text>
</a>
</g>
</g>
<!-- dir_e99c15a9621227eff47d3f75c7decb91 -->
<g id="node1" class="node">
<title>dir_e99c15a9621227eff47d3f75c7decb91</title>
<g id="a_node1"><a xlink:href="dir_e99c15a9621227eff47d3f75c7decb91.xhtml" target="_top" xlink:title="sve2">
<polygon fill="#eeeeff" stroke="#000000" points="82,-180 28,-180 28,-144 82,-144 82,-180"/>
<text text-anchor="middle" x="55" y="-159.5" font-family="Helvetica,sans-Serif" font-size="10.00" fill="#000000">sve2</text>
</a>
</g>
</g>
<!-- dir_a1dbdf61f57a1531ff253117d44bbf21 -->
<g id="node2" class="node">
<title>dir_a1dbdf61f57a1531ff253117d44bbf21</title>
<g id="a_node2"><a xlink:href="dir_a1dbdf61f57a1531ff253117d44bbf21.xhtml" target="_top" xlink:title="sve">
<polygon fill="none" stroke="#000000" points="54,-108 0,-108 0,-72 54,-72 54,-108"/>
<text text-anchor="middle" x="27" y="-87.5" font-family="Helvetica,sans-Serif" font-size="10.00" fill="#000000">sve</text>
</a>
</g>
</g>
<!-- dir_e99c15a9621227eff47d3f75c7decb91&#45;&gt;dir_a1dbdf61f57a1531ff253117d44bbf21 -->
<g id="edge2" class="edge">
<title>dir_e99c15a9621227eff47d3f75c7decb91&#45;&gt;dir_a1dbdf61f57a1531ff253117d44bbf21</title>
<path fill="none" stroke="#000000" d="M47.9344,-143.8314C44.874,-135.9617 41.2221,-126.5712 37.8318,-117.8533"/>
<polygon fill="#000000" stroke="#000000" points="41.0473,-116.4647 34.1607,-108.4133 34.5232,-119.0019 41.0473,-116.4647"/>
<g id="a_edge2&#45;headlabel"><a xlink:href="dir_000404_000362.xhtml" target="_top" xlink:title="1">
<text text-anchor="middle" x="44.9963" y="-116.2859" font-family="Helvetica,sans-Serif" font-size="10.00" fill="#000000">1</text>
</a>
</g>
</g>
<!-- dir_214608ef36d61442cb2b0c1c4e9a7def -->
<g id="node3" class="node">
<title>dir_214608ef36d61442cb2b0c1c4e9a7def</title>
<g id="a_node3"><a xlink:href="dir_214608ef36d61442cb2b0c1c4e9a7def.xhtml" target="_top" xlink:title="arm_compute">
<polygon fill="#ffffff" stroke="#ff0000" points="96,-36 12,-36 12,0 96,0 96,-36"/>
<text text-anchor="middle" x="54" y="-15.5" font-family="Helvetica,sans-Serif" font-size="10.00" fill="#000000">arm_compute</text>
</a>
</g>
</g>
<!-- dir_e99c15a9621227eff47d3f75c7decb91&#45;&gt;dir_214608ef36d61442cb2b0c1c4e9a7def -->
<g id="edge3" class="edge">
<title>dir_e99c15a9621227eff47d3f75c7decb91&#45;&gt;dir_214608ef36d61442cb2b0c1c4e9a7def</title>
<path fill="none" stroke="#000000" d="M58.415,-143.5804C60.1709,-133.1767 62.1226,-119.9092 63,-108 64.1756,-92.0432 64.3197,-87.9455 63,-72 62.3055,-63.6085 61.0138,-54.5578 59.6214,-46.3092"/>
<polygon fill="#000000" stroke="#000000" points="63.0544,-45.6235 57.8413,-36.3999 56.1647,-46.8612 63.0544,-45.6235"/>
<g id="a_edge3&#45;headlabel"><a xlink:href="dir_000404_000000.xhtml" target="_top" xlink:title="2">
<text text-anchor="middle" x="66.4844" y="-46.1595" font-family="Helvetica,sans-Serif" font-size="10.00" fill="#000000">2</text>
</a>
</g>
</g>
<!-- dir_a1dbdf61f57a1531ff253117d44bbf21&#45;&gt;dir_214608ef36d61442cb2b0c1c4e9a7def -->
<g id="edge1" class="edge">
<title>dir_a1dbdf61f57a1531ff253117d44bbf21&#45;&gt;dir_214608ef36d61442cb2b0c1c4e9a7def</title>
<path fill="none" stroke="#000000" d="M33.8132,-71.8314C36.7644,-63.9617 40.2858,-54.5712 43.555,-45.8533"/>
<polygon fill="#000000" stroke="#000000" points="46.8609,-47.0055 47.095,-36.4133 40.3066,-44.5476 46.8609,-47.0055"/>
<g id="a_edge1&#45;headlabel"><a xlink:href="dir_000362_000000.xhtml" target="_top" xlink:title="3">
<text text-anchor="middle" x="48.2573" y="-48.8682" font-family="Helvetica,sans-Serif" font-size="10.00" fill="#000000">3</text>
</a>
</g>
</g>
</g>
</svg>
