<?xml version="1.0" encoding="UTF-8" standalone="no"?>
<!DOCTYPE svg PUBLIC "-//W3C//DTD SVG 1.1//EN"
 "http://www.w3.org/Graphics/SVG/1.1/DTD/svg11.dtd">
<!-- Generated by graphviz version 2.40.1 (20161225.0304)
 -->
<!-- Title: Graphical Class Hierarchy Pages: 1 -->
<svg width="392pt" height="39pt"
 viewBox="0.00 0.00 392.00 39.00" xmlns="http://www.w3.org/2000/svg" xmlns:xlink="http://www.w3.org/1999/xlink">
<g id="graph0" class="graph" transform="scale(1 1) rotate(0) translate(4 35)">
<title>Graphical Class Hierarchy</title>
<polygon fill="#ffffff" stroke="transparent" points="-4,4 -4,-35 388,-35 388,4 -4,4"/>
<!-- Node0 -->
<g id="node1" class="node">
<title>Node0</title>
<g id="a_node1"><a xlink:href="structarm__compute_1_1test_1_1validation_1_1compare__base.xhtml" target="_top" xlink:title="compare_base\&lt; AbsoluteTolerance\l\&lt; U \&gt; \&gt;">
<polygon fill="#ffffff" stroke="#000000" points="0,-.5 0,-30.5 188,-30.5 188,-.5 0,-.5"/>
<text text-anchor="start" x="8" y="-18.5" font-family="Helvetica,sans-Serif" font-size="10.00" fill="#000000">compare_base&lt; AbsoluteTolerance</text>
<text text-anchor="middle" x="94" y="-7.5" font-family="Helvetica,sans-Serif" font-size="10.00" fill="#000000">&lt; U &gt; &gt;</text>
</a>
</g>
</g>
<!-- Node1 -->
<g id="node2" class="node">
<title>Node1</title>
<g id="a_node2"><a xlink:href="structarm__compute_1_1test_1_1validation_1_1compare_3_01_absolute_tolerance_3_01_u_01_4_01_4.xhtml" target="_top" xlink:title="Compare values with an absolute tolerance. ">
<polygon fill="#ffffff" stroke="#000000" points="224,-.5 224,-30.5 384,-30.5 384,-.5 224,-.5"/>
<text text-anchor="start" x="232" y="-18.5" font-family="Helvetica,sans-Serif" font-size="10.00" fill="#000000">compare&lt; AbsoluteTolerance</text>
<text text-anchor="middle" x="304" y="-7.5" font-family="Helvetica,sans-Serif" font-size="10.00" fill="#000000">&lt; U &gt; &gt;</text>
</a>
</g>
</g>
<!-- Node0&#45;&gt;Node1 -->
<g id="edge1" class="edge">
<title>Node0&#45;&gt;Node1</title>
<path fill="none" stroke="#191970" d="M198.3084,-15.5C206.8907,-15.5 215.4792,-15.5 223.8444,-15.5"/>
<polygon fill="#191970" stroke="#191970" points="198.2502,-12.0001 188.2502,-15.5 198.2501,-19.0001 198.2502,-12.0001"/>
</g>
</g>
</svg>
