<?xml version="1.0" encoding="UTF-8" standalone="no"?>
<!DOCTYPE svg PUBLIC "-//W3C//DTD SVG 1.1//EN"
 "http://www.w3.org/Graphics/SVG/1.1/DTD/svg11.dtd">
<!-- Generated by graphviz version 2.40.1 (20161225.0304)
 -->
<!-- Title: Graphical Class Hierarchy Pages: 1 -->
<svg width="336pt" height="214pt"
 viewBox="0.00 0.00 336.00 214.00" xmlns="http://www.w3.org/2000/svg" xmlns:xlink="http://www.w3.org/1999/xlink">
<g id="graph0" class="graph" transform="scale(1 1) rotate(0) translate(4 210)">
<title>Graphical Class Hierarchy</title>
<polygon fill="#ffffff" stroke="transparent" points="-4,4 -4,-210 332,-210 332,4 -4,4"/>
<!-- Node0 -->
<g id="node1" class="node">
<title>Node0</title>
<g id="a_node1"><a xlink:href="classarm__compute_1_1experimental_1_1dynamic__fusion_1_1_i_cl_kernel_component.xhtml" target="_top" xlink:title="IClKernelComponent">
<polygon fill="#ffffff" stroke="#000000" points="0,-99 0,-118 116,-118 116,-99 0,-99"/>
<text text-anchor="middle" x="58" y="-106" font-family="Helvetica,sans-Serif" font-size="10.00" fill="#000000">IClKernelComponent</text>
</a>
</g>
</g>
<!-- Node1 -->
<g id="node2" class="node">
<title>Node1</title>
<g id="a_node2"><a xlink:href="classarm__compute_1_1experimental_1_1dynamic__fusion_1_1_cl_direct_convolution_kernel_component.xhtml" target="_top" xlink:title="ClDirectConvolutionKernel\lComponent">
<polygon fill="#ffffff" stroke="#000000" points="167.5,-175.5 167.5,-205.5 312.5,-205.5 312.5,-175.5 167.5,-175.5"/>
<text text-anchor="start" x="175.5" y="-193.5" font-family="Helvetica,sans-Serif" font-size="10.00" fill="#000000">ClDirectConvolutionKernel</text>
<text text-anchor="middle" x="240" y="-182.5" font-family="Helvetica,sans-Serif" font-size="10.00" fill="#000000">Component</text>
</a>
</g>
</g>
<!-- Node0&#45;&gt;Node1 -->
<g id="edge1" class="edge">
<title>Node0&#45;&gt;Node1</title>
<path fill="none" stroke="#191970" d="M79.3591,-123.744C97.8493,-136.3682 125.6871,-154.0339 152,-165.5 160.4448,-169.1799 169.5801,-172.4756 178.6596,-175.3723"/>
<polygon fill="#191970" stroke="#191970" points="81.2922,-120.8253 71.0807,-118.001 77.3021,-126.5768 81.2922,-120.8253"/>
</g>
<!-- Node2 -->
<g id="node3" class="node">
<title>Node2</title>
<g id="a_node3"><a xlink:href="classarm__compute_1_1experimental_1_1dynamic__fusion_1_1_cl_elementwise_kernel_component.xhtml" target="_top" xlink:title="ClElementwiseKernelComponent">
<polygon fill="#ffffff" stroke="#000000" points="152,-137 152,-156 328,-156 328,-137 152,-137"/>
<text text-anchor="middle" x="240" y="-144" font-family="Helvetica,sans-Serif" font-size="10.00" fill="#000000">ClElementwiseKernelComponent</text>
</a>
</g>
</g>
<!-- Node0&#45;&gt;Node2 -->
<g id="edge2" class="edge">
<title>Node0&#45;&gt;Node2</title>
<path fill="none" stroke="#191970" d="M113.9458,-120.181C139.7558,-125.5699 170.0069,-131.8861 194.404,-136.9799"/>
<polygon fill="#191970" stroke="#191970" points="114.4306,-116.7068 103.9263,-118.089 112.9998,-123.559 114.4306,-116.7068"/>
</g>
<!-- Node3 -->
<g id="node4" class="node">
<title>Node3</title>
<g id="a_node4"><a xlink:href="classarm__compute_1_1experimental_1_1dynamic__fusion_1_1_cl_floor_kernel_component.xhtml" target="_top" xlink:title="ClFloorKernelComponent">
<polygon fill="#ffffff" stroke="#000000" points="171.5,-99 171.5,-118 308.5,-118 308.5,-99 171.5,-99"/>
<text text-anchor="middle" x="240" y="-106" font-family="Helvetica,sans-Serif" font-size="10.00" fill="#000000">ClFloorKernelComponent</text>
</a>
</g>
</g>
<!-- Node0&#45;&gt;Node3 -->
<g id="edge3" class="edge">
<title>Node0&#45;&gt;Node3</title>
<path fill="none" stroke="#191970" d="M126.1546,-108.5C140.926,-108.5 156.5561,-108.5 171.3466,-108.5"/>
<polygon fill="#191970" stroke="#191970" points="126.0864,-105.0001 116.0863,-108.5 126.0863,-112.0001 126.0864,-105.0001"/>
</g>
<!-- Node4 -->
<g id="node5" class="node">
<title>Node4</title>
<g id="a_node5"><a xlink:href="classarm__compute_1_1experimental_1_1dynamic__fusion_1_1_cl_store_block_boundary_aware_kernel_component.xhtml" target="_top" xlink:title="ClStoreBlockBoundaryAware\lKernelComponent">
<polygon fill="#ffffff" stroke="#000000" points="162.5,-49.5 162.5,-79.5 317.5,-79.5 317.5,-49.5 162.5,-49.5"/>
<text text-anchor="start" x="170.5" y="-67.5" font-family="Helvetica,sans-Serif" font-size="10.00" fill="#000000">ClStoreBlockBoundaryAware</text>
<text text-anchor="middle" x="240" y="-56.5" font-family="Helvetica,sans-Serif" font-size="10.00" fill="#000000">KernelComponent</text>
</a>
</g>
</g>
<!-- Node0&#45;&gt;Node4 -->
<g id="edge4" class="edge">
<title>Node0&#45;&gt;Node4</title>
<path fill="none" stroke="#191970" d="M107.4504,-96.545C129.1007,-91.3108 154.7466,-85.1107 177.6842,-79.5654"/>
<polygon fill="#191970" stroke="#191970" points="106.3888,-93.2007 97.4913,-98.9527 108.0338,-100.0047 106.3888,-93.2007"/>
</g>
<!-- Node5 -->
<g id="node6" class="node">
<title>Node5</title>
<g id="a_node6"><a xlink:href="classarm__compute_1_1experimental_1_1dynamic__fusion_1_1_cl_store_indirect_width_select_kernel_component.xhtml" target="_top" xlink:title="ClStoreIndirectWidthSelect\lKernelComponent">
<polygon fill="#ffffff" stroke="#000000" points="166.5,-.5 166.5,-30.5 313.5,-30.5 313.5,-.5 166.5,-.5"/>
<text text-anchor="start" x="174.5" y="-18.5" font-family="Helvetica,sans-Serif" font-size="10.00" fill="#000000">ClStoreIndirectWidthSelect</text>
<text text-anchor="middle" x="240" y="-7.5" font-family="Helvetica,sans-Serif" font-size="10.00" fill="#000000">KernelComponent</text>
</a>
</g>
</g>
<!-- Node0&#45;&gt;Node5 -->
<g id="edge5" class="edge">
<title>Node0&#45;&gt;Node5</title>
<path fill="none" stroke="#191970" d="M76.443,-92.1253C94.5404,-76.8239 123.4983,-54.3217 152,-40.5 159.7169,-36.7577 168.0938,-33.4819 176.5089,-30.6421"/>
<polygon fill="#191970" stroke="#191970" points="73.77,-89.8086 68.4809,-98.9888 78.3404,-95.1106 73.77,-89.8086"/>
</g>
</g>
</svg>
