<?xml version="1.0" encoding="UTF-8" standalone="no"?>
<!DOCTYPE svg PUBLIC "-//W3C//DTD SVG 1.1//EN"
 "http://www.w3.org/Graphics/SVG/1.1/DTD/svg11.dtd">
<!-- Generated by graphviz version 2.40.1 (20161225.0304)
 -->
<!-- Title: OperatorGraph::Implementation Pages: 1 -->
<svg width="195pt" height="95pt"
 viewBox="0.00 0.00 195.00 95.00" xmlns="http://www.w3.org/2000/svg" xmlns:xlink="http://www.w3.org/1999/xlink">
<g id="graph0" class="graph" transform="scale(1 1) rotate(0) translate(4 91)">
<title>OperatorGraph::Implementation</title>
<polygon fill="#ffffff" stroke="transparent" points="-4,4 -4,-91 191,-91 191,4 -4,4"/>
<!-- Node0 -->
<g id="node1" class="node">
<title>Node0</title>
<polygon fill="#bfbfbf" stroke="#000000" points="14,-.5 14,-19.5 187,-19.5 187,-.5 14,-.5"/>
<text text-anchor="middle" x="100.5" y="-7.5" font-family="Helvetica,sans-Serif" font-size="10.00" fill="#000000">OperatorGraph::Implementation</text>
</g>
<!-- Node1 -->
<g id="node2" class="node">
<title>Node1</title>
<g id="a_node2"><a xlink:href="classarm__compute_1_1experimental_1_1dynamic__fusion_1_1_dependency_graph.xhtml" target="_top" xlink:title="The dependency graph of a workload, where the nodes are of 2 types: Tensor or Operator Represented as...">
<polygon fill="#ffffff" stroke="#000000" points="0,-67.5 0,-86.5 107,-86.5 107,-67.5 0,-67.5"/>
<text text-anchor="middle" x="53.5" y="-74.5" font-family="Helvetica,sans-Serif" font-size="10.00" fill="#000000">DependencyGraph</text>
</a>
</g>
</g>
<!-- Node1&#45;&gt;Node0 -->
<g id="edge1" class="edge">
<title>Node1&#45;&gt;Node0</title>
<path fill="none" stroke="#9a32cd" stroke-dasharray="5,2" d="M66.1407,-58.9803C75.0366,-46.2989 86.594,-29.8235 93.7785,-19.5817"/>
<polygon fill="#9a32cd" stroke="#9a32cd" points="63.1115,-57.2039 60.234,-67.4005 68.8421,-61.2239 63.1115,-57.2039"/>
<text text-anchor="middle" x="96" y="-41" font-family="Helvetica,sans-Serif" font-size="10.00" fill="#000000"> graph</text>
</g>
<!-- Node2 -->
<g id="node3" class="node">
<title>Node2</title>
<g id="a_node3"><a xlink:href="classarm__compute_1_1_status.xhtml" target="_top" xlink:title="Status class. ">
<polygon fill="#ffffff" stroke="#000000" points="125,-67.5 125,-86.5 172,-86.5 172,-67.5 125,-67.5"/>
<text text-anchor="middle" x="148.5" y="-74.5" font-family="Helvetica,sans-Serif" font-size="10.00" fill="#000000">Status</text>
</a>
</g>
</g>
<!-- Node2&#45;&gt;Node0 -->
<g id="edge2" class="edge">
<title>Node2&#45;&gt;Node0</title>
<path fill="none" stroke="#9a32cd" stroke-dasharray="5,2" d="M135.5904,-58.9803C126.5052,-46.2989 114.7019,-29.8235 107.3645,-19.5817"/>
<polygon fill="#9a32cd" stroke="#9a32cd" points="132.9537,-61.3097 141.6228,-67.4005 138.6441,-57.233 132.9537,-61.3097"/>
<text text-anchor="middle" x="143.5" y="-41" font-family="Helvetica,sans-Serif" font-size="10.00" fill="#000000"> status</text>
</g>
</g>
</svg>
