<?xml version="1.0" encoding="UTF-8" standalone="no"?>
<!DOCTYPE svg PUBLIC "-//W3C//DTD SVG 1.1//EN"
 "http://www.w3.org/Graphics/SVG/1.1/DTD/svg11.dtd">
<!-- Generated by graphviz version 2.40.1 (20161225.0304)
 -->
<!-- Title: ClKernelConfig Pages: 1 -->
<svg width="222pt" height="173pt"
 viewBox="0.00 0.00 221.50 173.00" xmlns="http://www.w3.org/2000/svg" xmlns:xlink="http://www.w3.org/1999/xlink">
<g id="graph0" class="graph" transform="scale(1 1) rotate(0) translate(4 169)">
<title>ClKernelConfig</title>
<polygon fill="#ffffff" stroke="transparent" points="-4,4 -4,-169 217.5,-169 217.5,4 -4,4"/>
<!-- Node0 -->
<g id="node1" class="node">
<title>Node0</title>
<polygon fill="#bfbfbf" stroke="#000000" points="56.5,-.5 56.5,-19.5 144.5,-19.5 144.5,-.5 56.5,-.5"/>
<text text-anchor="middle" x="100.5" y="-7.5" font-family="Helvetica,sans-Serif" font-size="10.00" fill="#000000">ClKernelConfig</text>
</g>
<!-- Node1 -->
<g id="node2" class="node">
<title>Node1</title>
<g id="a_node2"><a xlink:href="structarm__compute_1_1experimental_1_1dynamic__fusion_1_1_tile_descriptor.xhtml" target="_top" xlink:title="Component: Store. ">
<polygon fill="#ffffff" stroke="#000000" points="0,-67.5 0,-86.5 85,-86.5 85,-67.5 0,-67.5"/>
<text text-anchor="middle" x="42.5" y="-74.5" font-family="Helvetica,sans-Serif" font-size="10.00" fill="#000000">TileDescriptor</text>
</a>
</g>
</g>
<!-- Node1&#45;&gt;Node0 -->
<g id="edge1" class="edge">
<title>Node1&#45;&gt;Node0</title>
<path fill="none" stroke="#9a32cd" stroke-dasharray="5,2" d="M57.4634,-59.7147C68.5212,-46.941 83.1672,-30.0224 92.2054,-19.5817"/>
<polygon fill="#9a32cd" stroke="#9a32cd" points="54.7088,-57.5491 50.81,-67.4005 60.0013,-62.1307 54.7088,-57.5491"/>
<text text-anchor="middle" x="99" y="-41" font-family="Helvetica,sans-Serif" font-size="10.00" fill="#000000"> tile_desc</text>
</g>
<!-- Node2 -->
<g id="node3" class="node">
<title>Node2</title>
<g id="a_node3"><a xlink:href="classarm__compute_1_1_size2_d.xhtml" target="_top" xlink:title="Class for specifying the size of an image or rectangle. ">
<polygon fill="#ffffff" stroke="#000000" points="17.5,-145.5 17.5,-164.5 67.5,-164.5 67.5,-145.5 17.5,-145.5"/>
<text text-anchor="middle" x="42.5" y="-152.5" font-family="Helvetica,sans-Serif" font-size="10.00" fill="#000000">Size2D</text>
</a>
</g>
</g>
<!-- Node2&#45;&gt;Node1 -->
<g id="edge2" class="edge">
<title>Node2&#45;&gt;Node1</title>
<path fill="none" stroke="#9a32cd" stroke-dasharray="5,2" d="M42.5,-135.2866C42.5,-119.7395 42.5,-98.7276 42.5,-86.6426"/>
<polygon fill="#9a32cd" stroke="#9a32cd" points="39.0001,-135.4356 42.5,-145.4357 46.0001,-135.4357 39.0001,-135.4356"/>
<text text-anchor="middle" x="71.5" y="-119" font-family="Helvetica,sans-Serif" font-size="10.00" fill="#000000"> boundaries</text>
<text text-anchor="middle" x="71.5" y="-108" font-family="Helvetica,sans-Serif" font-size="10.00" fill="#000000">tile_dims</text>
</g>
<!-- Node3 -->
<g id="node4" class="node">
<title>Node3</title>
<g id="a_node4"><a xlink:href="structarm__compute_1_1experimental_1_1dynamic__fusion_1_1_unit_workload_stage.xhtml" target="_top" xlink:title="Describes when a Unit Workload is run. ">
<polygon fill="#ffffff" stroke="#000000" points="103.5,-67.5 103.5,-86.5 213.5,-86.5 213.5,-67.5 103.5,-67.5"/>
<text text-anchor="middle" x="158.5" y="-74.5" font-family="Helvetica,sans-Serif" font-size="10.00" fill="#000000">UnitWorkloadStage</text>
</a>
</g>
</g>
<!-- Node3&#45;&gt;Node0 -->
<g id="edge3" class="edge">
<title>Node3&#45;&gt;Node0</title>
<path fill="none" stroke="#9a32cd" stroke-dasharray="5,2" d="M144.3985,-59.3488C138.9029,-52.5938 132.4943,-44.8656 126.5,-38 121.09,-31.8037 114.8208,-25.0407 109.7941,-19.7138"/>
<polygon fill="#9a32cd" stroke="#9a32cd" points="141.7678,-61.6622 150.7714,-67.2467 147.2155,-57.2664 141.7678,-61.6622"/>
<text text-anchor="middle" x="150" y="-41" font-family="Helvetica,sans-Serif" font-size="10.00" fill="#000000"> stage</text>
</g>
</g>
</svg>
