<?xml version="1.0" encoding="UTF-8" standalone="no"?>
<!DOCTYPE svg PUBLIC "-//W3C//DTD SVG 1.1//EN"
 "http://www.w3.org/Graphics/SVG/1.1/DTD/svg11.dtd">
<!-- Generated by graphviz version 2.40.1 (20161225.0304)
 -->
<!-- Title: AclOperator_ Pages: 1 -->
<svg width="214pt" height="152pt"
 viewBox="0.00 0.00 214.00 152.00" xmlns="http://www.w3.org/2000/svg" xmlns:xlink="http://www.w3.org/1999/xlink">
<g id="graph0" class="graph" transform="scale(1 1) rotate(0) translate(4 148)">
<title>AclOperator_</title>
<polygon fill="#ffffff" stroke="transparent" points="-4,4 -4,-148 210,-148 210,4 -4,4"/>
<!-- Node0 -->
<g id="node1" class="node">
<title>Node0</title>
<polygon fill="#bfbfbf" stroke="#000000" points="0,-57.5 0,-76.5 80,-76.5 80,-57.5 0,-57.5"/>
<text text-anchor="middle" x="40" y="-64.5" font-family="Helvetica,sans-Serif" font-size="10.00" fill="#000000">AclOperator_</text>
</g>
<!-- Node1 -->
<g id="node2" class="node">
<title>Node1</title>
<g id="a_node2"><a xlink:href="structarm__compute_1_1detail_1_1_header.xhtml" target="_top" xlink:title="Header">
<polygon fill="#ffffff" stroke="#000000" points="110,-124.5 110,-143.5 162,-143.5 162,-124.5 110,-124.5"/>
<text text-anchor="middle" x="136" y="-131.5" font-family="Helvetica,sans-Serif" font-size="10.00" fill="#000000">Header</text>
</a>
</g>
</g>
<!-- Node1&#45;&gt;Node0 -->
<g id="edge1" class="edge">
<title>Node1&#45;&gt;Node0</title>
<path fill="none" stroke="#9a32cd" stroke-dasharray="5,2" d="M113.5347,-118.7625C107.5011,-114.6416 100.9894,-110.1682 95,-106 80.7803,-96.1041 64.6196,-84.6154 53.5147,-76.6831"/>
<polygon fill="#9a32cd" stroke="#9a32cd" points="111.6807,-121.7344 121.916,-124.4713 115.6214,-115.949 111.6807,-121.7344"/>
<text text-anchor="middle" x="113.5" y="-98" font-family="Helvetica,sans-Serif" font-size="10.00" fill="#000000"> header</text>
</g>
<!-- Node3 -->
<g id="node4" class="node">
<title>Node3</title>
<g id="a_node4"><a xlink:href="struct_acl_context__.xhtml" target="_top" xlink:title="AclContext_">
<polygon fill="#ffffff" stroke="#000000" points="98.5,-57.5 98.5,-76.5 173.5,-76.5 173.5,-57.5 98.5,-57.5"/>
<text text-anchor="middle" x="136" y="-64.5" font-family="Helvetica,sans-Serif" font-size="10.00" fill="#000000">AclContext_</text>
</a>
</g>
</g>
<!-- Node1&#45;&gt;Node3 -->
<g id="edge4" class="edge">
<title>Node1&#45;&gt;Node3</title>
<path fill="none" stroke="#9a32cd" stroke-dasharray="5,2" d="M136,-114.1079C136,-101.714 136,-86.3263 136,-76.5817"/>
<polygon fill="#9a32cd" stroke="#9a32cd" points="132.5001,-114.4005 136,-124.4005 139.5001,-114.4006 132.5001,-114.4005"/>
<text text-anchor="middle" x="154.5" y="-98" font-family="Helvetica,sans-Serif" font-size="10.00" fill="#000000"> header</text>
</g>
<!-- Node2 -->
<g id="node3" class="node">
<title>Node2</title>
<g id="a_node3"><a xlink:href="classarm__compute_1_1_i_context.xhtml" target="_top" xlink:title="Context interface. ">
<polygon fill="#ffffff" stroke="#000000" points="144,-.5 144,-19.5 202,-19.5 202,-.5 144,-.5"/>
<text text-anchor="middle" x="173" y="-7.5" font-family="Helvetica,sans-Serif" font-size="10.00" fill="#000000">IContext</text>
</a>
</g>
</g>
<!-- Node2&#45;&gt;Node1 -->
<g id="edge2" class="edge">
<title>Node2&#45;&gt;Node1</title>
<path fill="none" stroke="#9a32cd" stroke-dasharray="5,2" d="M179.8697,-29.234C185.9636,-49.9187 191.8216,-82.9361 177,-106 172.0605,-113.6864 164.1821,-119.8081 156.6455,-124.3429"/>
<polygon fill="#9a32cd" stroke="#9a32cd" points="183.18,-28.0952 176.7698,-19.6595 176.5203,-30.2514 183.18,-28.0952"/>
<text text-anchor="middle" x="196.5" y="-64.5" font-family="Helvetica,sans-Serif" font-size="10.00" fill="#000000"> ctx</text>
</g>
<!-- Node3&#45;&gt;Node2 -->
<g id="edge3" class="edge">
<title>Node3&#45;&gt;Node2</title>
<path fill="none" stroke="#191970" d="M147.8457,-48.7512C154.1554,-39.0308 161.6567,-27.4748 166.8161,-19.5265"/>
<polygon fill="#191970" stroke="#191970" points="144.7856,-47.0373 142.2765,-57.3307 150.657,-50.8486 144.7856,-47.0373"/>
</g>
</g>
</svg>
