<?xml version="1.0" encoding="UTF-8" standalone="no"?>
<!DOCTYPE svg PUBLIC "-//W3C//DTD SVG 1.1//EN"
 "http://www.w3.org/Graphics/SVG/1.1/DTD/svg11.dtd">
<!-- Generated by graphviz version 2.43.0 (0)
 -->
<!-- Title: ClLogicalBinaryKernel Pages: 1 -->
<svg width="131pt" height="196pt"
 viewBox="0.00 0.00 131.00 196.00" xmlns="http://www.w3.org/2000/svg" xmlns:xlink="http://www.w3.org/1999/xlink">
<g id="graph0" class="graph" transform="scale(1 1) rotate(0) translate(4 192)">
<title>ClLogicalBinaryKernel</title>
<polygon fill="white" stroke="transparent" points="-4,4 -4,-192 127,-192 127,4 -4,4"/>
<!-- Node1 -->
<g id="node1" class="node">
<title>Node1</title>
<g id="a_node1"><a xlink:title=" ">
<polygon fill="#bfbfbf" stroke="black" points="0,-0.5 0,-19.5 123,-19.5 123,-0.5 0,-0.5"/>
<text text-anchor="middle" x="61.5" y="-7.5" font-family="Helvetica,sans-Serif" font-size="10.00">ClLogicalBinaryKernel</text>
</a>
</g>
</g>
<!-- Node2 -->
<g id="node2" class="node">
<title>Node2</title>
<g id="a_node2"><a xlink:href="classarm__compute_1_1opencl_1_1kernels_1_1_cl_elementwise_kernel.xhtml" target="_top" xlink:title="Interface for an element&#45;wise operation kernel.">
<polygon fill="white" stroke="black" points="1.5,-56.5 1.5,-75.5 121.5,-75.5 121.5,-56.5 1.5,-56.5"/>
<text text-anchor="middle" x="61.5" y="-63.5" font-family="Helvetica,sans-Serif" font-size="10.00">ClElementwiseKernel</text>
</a>
</g>
</g>
<!-- Node2&#45;&gt;Node1 -->
<g id="edge1" class="edge">
<title>Node2&#45;&gt;Node1</title>
<path fill="none" stroke="midnightblue" d="M61.5,-45.8C61.5,-36.91 61.5,-26.78 61.5,-19.75"/>
<polygon fill="midnightblue" stroke="midnightblue" points="58,-46.08 61.5,-56.08 65,-46.08 58,-46.08"/>
</g>
<!-- Node3 -->
<g id="node3" class="node">
<title>Node3</title>
<g id="a_node3"><a xlink:href="classarm__compute_1_1_i_c_l_kernel.xhtml" target="_top" xlink:title="Common interface for all the OpenCL kernels.">
<polygon fill="white" stroke="black" points="31.5,-112.5 31.5,-131.5 91.5,-131.5 91.5,-112.5 31.5,-112.5"/>
<text text-anchor="middle" x="61.5" y="-119.5" font-family="Helvetica,sans-Serif" font-size="10.00">IClKernel</text>
</a>
</g>
</g>
<!-- Node3&#45;&gt;Node2 -->
<g id="edge2" class="edge">
<title>Node3&#45;&gt;Node2</title>
<path fill="none" stroke="midnightblue" d="M61.5,-101.8C61.5,-92.91 61.5,-82.78 61.5,-75.75"/>
<polygon fill="midnightblue" stroke="midnightblue" points="58,-102.08 61.5,-112.08 65,-102.08 58,-102.08"/>
</g>
<!-- Node4 -->
<g id="node4" class="node">
<title>Node4</title>
<g id="a_node4"><a xlink:href="classarm__compute_1_1_i_kernel.xhtml" target="_top" xlink:title="Common information for all the kernels.">
<polygon fill="white" stroke="black" points="36.5,-168.5 36.5,-187.5 86.5,-187.5 86.5,-168.5 36.5,-168.5"/>
<text text-anchor="middle" x="61.5" y="-175.5" font-family="Helvetica,sans-Serif" font-size="10.00">IKernel</text>
</a>
</g>
</g>
<!-- Node4&#45;&gt;Node3 -->
<g id="edge3" class="edge">
<title>Node4&#45;&gt;Node3</title>
<path fill="none" stroke="midnightblue" d="M61.5,-157.8C61.5,-148.91 61.5,-138.78 61.5,-131.75"/>
<polygon fill="midnightblue" stroke="midnightblue" points="58,-158.08 61.5,-168.08 65,-158.08 58,-158.08"/>
</g>
</g>
</svg>
