<?xml version="1.0" encoding="UTF-8" standalone="no"?>
<!DOCTYPE svg PUBLIC "-//W3C//DTD SVG 1.1//EN"
 "http://www.w3.org/Graphics/SVG/1.1/DTD/svg11.dtd">
<!-- Generated by graphviz version 2.43.0 (0)
 -->
<!-- Title: IContext Pages: 1 -->
<svg width="100pt" height="162pt"
 viewBox="0.00 0.00 100.00 162.00" xmlns="http://www.w3.org/2000/svg" xmlns:xlink="http://www.w3.org/1999/xlink">
<g id="graph0" class="graph" transform="scale(1 1) rotate(0) translate(4 158)">
<title>IContext</title>
<polygon fill="white" stroke="transparent" points="-4,4 -4,-158 96,-158 96,4 -4,4"/>
<!-- Node1 -->
<g id="node1" class="node">
<title>Node1</title>
<g id="a_node1"><a xlink:title="Context interface.">
<polygon fill="#bfbfbf" stroke="black" points="34,-134.5 34,-153.5 92,-153.5 92,-134.5 34,-134.5"/>
<text text-anchor="middle" x="63" y="-141.5" font-family="Helvetica,sans-Serif" font-size="10.00">IContext</text>
</a>
</g>
</g>
<!-- Node3 -->
<g id="node3" class="node">
<title>Node3</title>
<g id="a_node3"><a xlink:href="structarm__compute_1_1detail_1_1_header.xhtml" target="_top" xlink:title=" ">
<polygon fill="white" stroke="black" points="0,-67.5 0,-86.5 52,-86.5 52,-67.5 0,-67.5"/>
<text text-anchor="middle" x="26" y="-74.5" font-family="Helvetica,sans-Serif" font-size="10.00">Header</text>
</a>
</g>
</g>
<!-- Node1&#45;&gt;Node3 -->
<g id="edge3" class="edge">
<title>Node1&#45;&gt;Node3</title>
<path fill="none" stroke="#9a32cd" stroke-dasharray="5,2" d="M52.42,-125.33C50.6,-122.23 48.73,-119.03 47,-116 41.31,-106.06 34.97,-94.52 30.76,-86.8"/>
<polygon fill="#9a32cd" stroke="#9a32cd" points="49.48,-127.23 57.6,-134.04 55.5,-123.65 49.48,-127.23"/>
<text text-anchor="middle" x="56.5" y="-108" font-family="Helvetica,sans-Serif" font-size="10.00"> ctx</text>
</g>
<!-- Node2 -->
<g id="node2" class="node">
<title>Node2</title>
<g id="a_node2"><a xlink:href="struct_acl_context__.xhtml" target="_top" xlink:title=" ">
<polygon fill="white" stroke="black" points="15.5,-0.5 15.5,-19.5 90.5,-19.5 90.5,-0.5 15.5,-0.5"/>
<text text-anchor="middle" x="53" y="-7.5" font-family="Helvetica,sans-Serif" font-size="10.00">AclContext_</text>
</a>
</g>
</g>
<!-- Node2&#45;&gt;Node1 -->
<g id="edge1" class="edge">
<title>Node2&#45;&gt;Node1</title>
<path fill="none" stroke="midnightblue" d="M62.85,-28.6C64.15,-31.65 65.28,-34.86 66,-38 73.99,-73.03 67.91,-116.32 64.68,-134.42"/>
<polygon fill="midnightblue" stroke="midnightblue" points="65.97,-27.03 58.39,-19.63 59.71,-30.14 65.97,-27.03"/>
</g>
<!-- Node3&#45;&gt;Node2 -->
<g id="edge2" class="edge">
<title>Node3&#45;&gt;Node2</title>
<path fill="none" stroke="#9a32cd" stroke-dasharray="5,2" d="M25.12,-57.16C25.43,-50.86 26.47,-43.94 29,-38 31.95,-31.08 37.41,-24.71 42.37,-19.9"/>
<polygon fill="#9a32cd" stroke="#9a32cd" points="21.62,-57.5 25.16,-67.48 28.62,-57.47 21.62,-57.5"/>
<text text-anchor="middle" x="47.5" y="-41" font-family="Helvetica,sans-Serif" font-size="10.00"> header</text>
</g>
</g>
</svg>
