<?xml version="1.0" encoding="UTF-8" standalone="no"?>
<!DOCTYPE svg PUBLIC "-//W3C//DTD SVG 1.1//EN"
 "http://www.w3.org/Graphics/SVG/1.1/DTD/svg11.dtd">
<!-- Generated by graphviz version 2.43.0 (0)
 -->
<!-- Title: Operator Pages: 1 -->
<svg width="176pt" height="152pt"
 viewBox="0.00 0.00 176.00 152.00" xmlns="http://www.w3.org/2000/svg" xmlns:xlink="http://www.w3.org/1999/xlink">
<g id="graph0" class="graph" transform="scale(1 1) rotate(0) translate(4 148)">
<title>Operator</title>
<polygon fill="white" stroke="transparent" points="-4,4 -4,-148 172,-148 172,4 -4,4"/>
<!-- Node1 -->
<g id="node1" class="node">
<title>Node1</title>
<g id="a_node1"><a xlink:title="Operator class.">
<polygon fill="#bfbfbf" stroke="black" points="49.5,-0.5 49.5,-19.5 108.5,-19.5 108.5,-0.5 49.5,-0.5"/>
<text text-anchor="middle" x="79" y="-7.5" font-family="Helvetica,sans-Serif" font-size="10.00">Operator</text>
</a>
</g>
</g>
<!-- Node2 -->
<g id="node2" class="node">
<title>Node2</title>
<g id="a_node2"><a xlink:href="classacl_1_1detail_1_1_object_base.xhtml" target="_top" xlink:title=" ">
<polygon fill="white" stroke="black" points="0,-57.5 0,-76.5 158,-76.5 158,-57.5 0,-57.5"/>
<text text-anchor="middle" x="79" y="-64.5" font-family="Helvetica,sans-Serif" font-size="10.00">ObjectBase&lt; AclOperator_ &gt;</text>
</a>
</g>
</g>
<!-- Node2&#45;&gt;Node1 -->
<g id="edge1" class="edge">
<title>Node2&#45;&gt;Node1</title>
<path fill="none" stroke="midnightblue" d="M79,-47.12C79,-37.82 79,-27.06 79,-19.71"/>
<polygon fill="midnightblue" stroke="midnightblue" points="75.5,-47.41 79,-57.41 82.5,-47.41 75.5,-47.41"/>
</g>
<!-- Node3 -->
<g id="node3" class="node">
<title>Node3</title>
<g id="a_node3"><a xlink:href="classacl_1_1detail_1_1_object_base.xhtml" target="_top" xlink:title="Object base class for library objects.">
<polygon fill="white" stroke="black" points="28.5,-124.5 28.5,-143.5 129.5,-143.5 129.5,-124.5 28.5,-124.5"/>
<text text-anchor="middle" x="79" y="-131.5" font-family="Helvetica,sans-Serif" font-size="10.00">ObjectBase&lt; T &gt;</text>
</a>
</g>
</g>
<!-- Node3&#45;&gt;Node2 -->
<g id="edge2" class="edge">
<title>Node3&#45;&gt;Node2</title>
<path fill="none" stroke="orange" stroke-dasharray="5,2" d="M79,-114.04C79,-101.67 79,-86.12 79,-76.63"/>
<polygon fill="orange" stroke="orange" points="75.5,-114.23 79,-124.23 82.5,-114.23 75.5,-114.23"/>
<text text-anchor="middle" x="123.5" y="-98" font-family="Helvetica,sans-Serif" font-size="10.00"> &lt; AclOperator_ &gt;</text>
</g>
</g>
</svg>
