<?xml version="1.0" encoding="UTF-8" standalone="no"?>
<!DOCTYPE svg PUBLIC "-//W3C//DTD SVG 1.1//EN"
 "http://www.w3.org/Graphics/SVG/1.1/DTD/svg11.dtd">
<!-- Generated by graphviz version 2.43.0 (0)
 -->
<!-- Title: src/cpu/kernels/fuse_batch_normalization/nhwc Pages: 1 -->
<svg width="213pt" height="303pt"
 viewBox="0.00 0.00 213.00 303.00" xmlns="http://www.w3.org/2000/svg" xmlns:xlink="http://www.w3.org/1999/xlink">
<g id="graph0" class="graph" transform="scale(1 1) rotate(0) translate(4 299)">
<title>src/cpu/kernels/fuse_batch_normalization/nhwc</title>
<polygon fill="white" stroke="transparent" points="-4,4 -4,-299 209,-299 209,4 -4,4"/>
<g id="clust1" class="cluster">
<title>clusterdir_bb11e055db43bd302d9253e2592a4191</title>
<g id="a_clust1"><a xlink:href="dir_bb11e055db43bd302d9253e2592a4191.xhtml" target="_top" xlink:title="fuse_batch_normalization">
<polygon fill="#ddddee" stroke="black" points="39,-200 39,-287 197,-287 197,-200 39,-200"/>
<text text-anchor="middle" x="118" y="-275" font-family="Helvetica,sans-Serif" font-size="10.00">fuse_batch_normalization</text>
</a>
</g>
</g>
<g id="clust2" class="cluster">
<title>clusterdir_8214c66eb519552933c96f6da57248c9</title>
<g id="a_clust2"><a xlink:href="dir_8214c66eb519552933c96f6da57248c9.xhtml" target="_top">
<polygon fill="#eeeeff" stroke="black" points="47,-208 47,-260 189,-260 189,-208 47,-208"/>
</a>
</g>
</g>
<!-- dir_8214c66eb519552933c96f6da57248c9 -->
<g id="node1" class="node">
<title>dir_8214c66eb519552933c96f6da57248c9</title>
<text text-anchor="middle" x="154" y="-231.5" font-family="Helvetica,sans-Serif" font-size="10.00">nhwc</text>
</g>
<!-- dir_07db37b292558242e2d14aec07fa014f -->
<g id="node2" class="node">
<title>dir_07db37b292558242e2d14aec07fa014f</title>
<g id="a_node2"><a xlink:href="dir_07db37b292558242e2d14aec07fa014f.xhtml" target="_top" xlink:title="neon">
<polygon fill="white" stroke="black" points="109,-252 55,-252 55,-216 109,-216 109,-252"/>
<text text-anchor="middle" x="82" y="-231.5" font-family="Helvetica,sans-Serif" font-size="10.00">neon</text>
</a>
</g>
</g>
<!-- dir_a1c5d8e5f910cc021621e5f63768cddc -->
<g id="node3" class="node">
<title>dir_a1c5d8e5f910cc021621e5f63768cddc</title>
<g id="a_node3"><a xlink:href="dir_a1c5d8e5f910cc021621e5f63768cddc.xhtml" target="_top" xlink:title="generic">
<polygon fill="none" stroke="black" points="54,-180 0,-180 0,-144 54,-144 54,-180"/>
<text text-anchor="middle" x="27" y="-159.5" font-family="Helvetica,sans-Serif" font-size="10.00">generic</text>
</a>
</g>
</g>
<!-- dir_07db37b292558242e2d14aec07fa014f&#45;&gt;dir_a1c5d8e5f910cc021621e5f63768cddc -->
<g id="edge3" class="edge">
<title>dir_07db37b292558242e2d14aec07fa014f&#45;&gt;dir_a1c5d8e5f910cc021621e5f63768cddc</title>
<path fill="none" stroke="black" d="M68.4,-215.7C61.88,-207.39 53.93,-197.28 46.75,-188.14"/>
<polygon fill="black" stroke="black" points="49.37,-185.81 40.44,-180.1 43.87,-190.13 49.37,-185.81"/>
<g id="a_edge3&#45;headlabel"><a xlink:href="dir_000448_000444.xhtml" target="_top" xlink:title="1">
<text text-anchor="middle" x="53.82" y="-184.38" font-family="Helvetica,sans-Serif" font-size="10.00">1</text>
</a>
</g>
</g>
<!-- dir_214608ef36d61442cb2b0c1c4e9a7def -->
<g id="node4" class="node">
<title>dir_214608ef36d61442cb2b0c1c4e9a7def</title>
<g id="a_node4"><a xlink:href="dir_214608ef36d61442cb2b0c1c4e9a7def.xhtml" target="_top" xlink:title="arm_compute">
<polygon fill="white" stroke="red" points="115,-36 31,-36 31,0 115,0 115,-36"/>
<text text-anchor="middle" x="73" y="-15.5" font-family="Helvetica,sans-Serif" font-size="10.00">arm_compute</text>
</a>
</g>
</g>
<!-- dir_07db37b292558242e2d14aec07fa014f&#45;&gt;dir_214608ef36d61442cb2b0c1c4e9a7def -->
<g id="edge4" class="edge">
<title>dir_07db37b292558242e2d14aec07fa014f&#45;&gt;dir_214608ef36d61442cb2b0c1c4e9a7def</title>
<path fill="none" stroke="black" d="M90.02,-215.74C102.76,-185.88 124.66,-122.93 109,-72 105.99,-62.22 100.49,-52.62 94.68,-44.33"/>
<polygon fill="black" stroke="black" points="97.41,-42.13 88.61,-36.23 91.81,-46.33 97.41,-42.13"/>
<g id="a_edge4&#45;headlabel"><a xlink:href="dir_000448_000000.xhtml" target="_top" xlink:title="1">
<text text-anchor="middle" x="101.83" y="-40.8" font-family="Helvetica,sans-Serif" font-size="10.00">1</text>
</a>
</g>
</g>
<!-- dir_aebb8dcc11953d78e620bbef0b9e2183 -->
<g id="node5" class="node">
<title>dir_aebb8dcc11953d78e620bbef0b9e2183</title>
<g id="a_node5"><a xlink:href="dir_aebb8dcc11953d78e620bbef0b9e2183.xhtml" target="_top" xlink:title="core">
<polygon fill="white" stroke="red" points="100,-108 46,-108 46,-72 100,-72 100,-108"/>
<text text-anchor="middle" x="73" y="-87.5" font-family="Helvetica,sans-Serif" font-size="10.00">core</text>
</a>
</g>
</g>
<!-- dir_07db37b292558242e2d14aec07fa014f&#45;&gt;dir_aebb8dcc11953d78e620bbef0b9e2183 -->
<g id="edge5" class="edge">
<title>dir_07db37b292558242e2d14aec07fa014f&#45;&gt;dir_aebb8dcc11953d78e620bbef0b9e2183</title>
<path fill="none" stroke="black" d="M80.91,-215.87C79.38,-191.67 76.56,-147.21 74.74,-118.39"/>
<polygon fill="black" stroke="black" points="78.22,-117.95 74.09,-108.19 71.23,-118.39 78.22,-117.95"/>
<g id="a_edge5&#45;headlabel"><a xlink:href="dir_000448_000017.xhtml" target="_top" xlink:title="1">
<text text-anchor="middle" x="81.28" y="-118.86" font-family="Helvetica,sans-Serif" font-size="10.00">1</text>
</a>
</g>
</g>
<!-- dir_a1c5d8e5f910cc021621e5f63768cddc&#45;&gt;dir_214608ef36d61442cb2b0c1c4e9a7def -->
<g id="edge1" class="edge">
<title>dir_a1c5d8e5f910cc021621e5f63768cddc&#45;&gt;dir_214608ef36d61442cb2b0c1c4e9a7def</title>
<path fill="none" stroke="black" d="M26.52,-143.71C26.56,-125.35 28.21,-95.77 37,-72 40.55,-62.4 46.2,-52.85 51.98,-44.56"/>
<polygon fill="black" stroke="black" points="54.86,-46.55 57.97,-36.42 49.23,-42.4 54.86,-46.55"/>
<g id="a_edge1&#45;headlabel"><a xlink:href="dir_000444_000000.xhtml" target="_top" xlink:title="1">
<text text-anchor="middle" x="55.02" y="-48.63" font-family="Helvetica,sans-Serif" font-size="10.00">1</text>
</a>
</g>
</g>
<!-- dir_a1c5d8e5f910cc021621e5f63768cddc&#45;&gt;dir_aebb8dcc11953d78e620bbef0b9e2183 -->
<g id="edge2" class="edge">
<title>dir_a1c5d8e5f910cc021621e5f63768cddc&#45;&gt;dir_aebb8dcc11953d78e620bbef0b9e2183</title>
<path fill="none" stroke="black" d="M38.37,-143.7C43.72,-135.56 50.2,-125.69 56.11,-116.7"/>
<polygon fill="black" stroke="black" points="59.19,-118.38 61.76,-108.1 53.34,-114.54 59.19,-118.38"/>
<g id="a_edge2&#45;headlabel"><a xlink:href="dir_000444_000017.xhtml" target="_top" xlink:title="1">
<text text-anchor="middle" x="59.59" y="-120.45" font-family="Helvetica,sans-Serif" font-size="10.00">1</text>
</a>
</g>
</g>
<!-- dir_aebb8dcc11953d78e620bbef0b9e2183&#45;&gt;dir_214608ef36d61442cb2b0c1c4e9a7def -->
<g id="edge6" class="edge">
<title>dir_aebb8dcc11953d78e620bbef0b9e2183&#45;&gt;dir_214608ef36d61442cb2b0c1c4e9a7def</title>
<path fill="none" stroke="black" d="M73,-71.7C73,-63.98 73,-54.71 73,-46.11"/>
<polygon fill="black" stroke="black" points="76.5,-46.1 73,-36.1 69.5,-46.1 76.5,-46.1"/>
<g id="a_edge6&#45;headlabel"><a xlink:href="dir_000017_000000.xhtml" target="_top" xlink:title="686">
<text text-anchor="middle" x="79.34" y="-47.2" font-family="Helvetica,sans-Serif" font-size="10.00">686</text>
</a>
</g>
</g>
</g>
</svg>
