<?xml version="1.0" encoding="UTF-8" standalone="no"?>
<!DOCTYPE svg PUBLIC "-//W3C//DTD SVG 1.1//EN"
 "http://www.w3.org/Graphics/SVG/1.1/DTD/svg11.dtd">
<!-- Generated by graphviz version 2.43.0 (0)
 -->
<!-- Title: Graphical Class Hierarchy Pages: 1 -->
<svg width="348pt" height="242pt"
 viewBox="0.00 0.00 348.00 242.00" xmlns="http://www.w3.org/2000/svg" xmlns:xlink="http://www.w3.org/1999/xlink">
<g id="graph0" class="graph" transform="scale(1 1) rotate(0) translate(4 238)">
<title>Graphical Class Hierarchy</title>
<polygon fill="white" stroke="transparent" points="-4,4 -4,-238 344,-238 344,4 -4,4"/>
<!-- Node0 -->
<g id="node1" class="node">
<title>Node0</title>
<g id="a_node1"><a xlink:href="classarm__compute_1_1utils_1_1_validate_example.xhtml" target="_top" xlink:title="Abstract ValidateExample class.">
<polygon fill="white" stroke="black" points="0,-121 0,-140 99,-140 99,-121 0,-121"/>
<text text-anchor="middle" x="49.5" y="-128" font-family="Helvetica,sans-Serif" font-size="10.00">ValidateExample</text>
</a>
</g>
</g>
<!-- Node1 -->
<g id="node2" class="node">
<title>Node1</title>
<g id="a_node2"><a xlink:href="classarm__compute_1_1utils_1_1_graph_validate_example.xhtml" target="_top" xlink:title=" ">
<polygon fill="white" stroke="black" points="135,-203.5 135,-233.5 340,-233.5 340,-203.5 135,-203.5"/>
<text text-anchor="start" x="143" y="-221.5" font-family="Helvetica,sans-Serif" font-size="10.00">GraphValidateExample</text>
<text text-anchor="middle" x="237.5" y="-210.5" font-family="Helvetica,sans-Serif" font-size="10.00">&lt; LayerT, OptionsT, VerifyAccessorT &gt;</text>
</a>
</g>
</g>
<!-- Node0&#45;&gt;Node1 -->
<g id="edge1" class="edge">
<title>Node0&#45;&gt;Node1</title>
<path fill="none" stroke="midnightblue" d="M68.14,-147.01C84.35,-161.3 109.64,-181.53 135,-193.5 143.12,-197.34 151.9,-200.62 160.77,-203.43"/>
<polygon fill="midnightblue" stroke="midnightblue" points="70.31,-144.25 60.54,-140.14 65.62,-149.44 70.31,-144.25"/>
</g>
<!-- Node2 -->
<g id="node3" class="node">
<title>Node2</title>
<g id="a_node3"><a xlink:href="classarm__compute_1_1utils_1_1_graph_validate_example.xhtml" target="_top" xlink:title=" ">
<polygon fill="white" stroke="black" points="137,-143 137,-184 338,-184 338,-143 137,-143"/>
<text text-anchor="start" x="145" y="-172" font-family="Helvetica,sans-Serif" font-size="10.00">GraphValidateExample</text>
<text text-anchor="start" x="145" y="-161" font-family="Helvetica,sans-Serif" font-size="10.00">&lt; ConvolutionLayer, Convolution</text>
<text text-anchor="middle" x="237.5" y="-150" font-family="Helvetica,sans-Serif" font-size="10.00">Options, ConvolutionVerifyAccessor &gt;</text>
</a>
</g>
</g>
<!-- Node0&#45;&gt;Node2 -->
<g id="edge2" class="edge">
<title>Node0&#45;&gt;Node2</title>
<path fill="none" stroke="midnightblue" d="M109.44,-140.96C118.22,-142.51 127.47,-144.16 136.81,-145.81"/>
<polygon fill="midnightblue" stroke="midnightblue" points="109.83,-137.47 99.37,-139.17 108.6,-144.36 109.83,-137.47"/>
</g>
<!-- Node3 -->
<g id="node4" class="node">
<title>Node3</title>
<g id="a_node4"><a xlink:href="classarm__compute_1_1utils_1_1_graph_validate_example.xhtml" target="_top" xlink:title=" ">
<polygon fill="white" stroke="black" points="142.5,-71.5 142.5,-123.5 332.5,-123.5 332.5,-71.5 142.5,-71.5"/>
<text text-anchor="start" x="150.5" y="-111.5" font-family="Helvetica,sans-Serif" font-size="10.00">GraphValidateExample</text>
<text text-anchor="start" x="150.5" y="-100.5" font-family="Helvetica,sans-Serif" font-size="10.00">&lt; DepthwiseConvolutionLayer,</text>
<text text-anchor="start" x="150.5" y="-89.5" font-family="Helvetica,sans-Serif" font-size="10.00"> DepthConvolutionOptions,</text>
<text text-anchor="middle" x="237.5" y="-78.5" font-family="Helvetica,sans-Serif" font-size="10.00"> DepthConvolutionVerifyAccessor &gt;</text>
</a>
</g>
</g>
<!-- Node0&#45;&gt;Node3 -->
<g id="edge3" class="edge">
<title>Node0&#45;&gt;Node3</title>
<path fill="none" stroke="midnightblue" d="M109.24,-120.08C119.78,-118.21 130.99,-116.22 142.24,-114.22"/>
<polygon fill="midnightblue" stroke="midnightblue" points="108.6,-116.64 99.37,-121.83 109.83,-123.53 108.6,-116.64"/>
</g>
<!-- Node4 -->
<g id="node5" class="node">
<title>Node4</title>
<g id="a_node5"><a xlink:href="classarm__compute_1_1utils_1_1_graph_validate_example.xhtml" target="_top" xlink:title=" ">
<polygon fill="white" stroke="black" points="149,-0.5 149,-52.5 326,-52.5 326,-0.5 149,-0.5"/>
<text text-anchor="start" x="157" y="-40.5" font-family="Helvetica,sans-Serif" font-size="10.00">GraphValidateExample</text>
<text text-anchor="start" x="157" y="-29.5" font-family="Helvetica,sans-Serif" font-size="10.00">&lt; FullyConnectedLayer,</text>
<text text-anchor="start" x="157" y="-18.5" font-family="Helvetica,sans-Serif" font-size="10.00"> FullyConnectedOptions,</text>
<text text-anchor="middle" x="237.5" y="-7.5" font-family="Helvetica,sans-Serif" font-size="10.00"> FullyConnectedVerifyAccessor &gt;</text>
</a>
</g>
</g>
<!-- Node0&#45;&gt;Node4 -->
<g id="edge4" class="edge">
<title>Node0&#45;&gt;Node4</title>
<path fill="none" stroke="midnightblue" d="M67.68,-113.74C83.92,-98.65 109.52,-76.73 135,-62.5 141.37,-58.95 148.15,-55.64 155.07,-52.59"/>
<polygon fill="midnightblue" stroke="midnightblue" points="64.95,-111.51 60.1,-120.93 69.76,-116.59 64.95,-111.51"/>
</g>
</g>
</svg>
