<?xml version="1.0" encoding="UTF-8" standalone="no"?>
<!DOCTYPE svg PUBLIC "-//W3C//DTD SVG 1.1//EN"
 "http://www.w3.org/Graphics/SVG/1.1/DTD/svg11.dtd">
<!-- Generated by graphviz version 2.40.1 (20161225.0304)
 -->
<!-- Title: PoolingDepthfirst&lt; TInput, TOutput, OutputStage &gt; Pages: 1 -->
<svg width="181pt" height="173pt"
 viewBox="0.00 0.00 181.00 173.00" xmlns="http://www.w3.org/2000/svg" xmlns:xlink="http://www.w3.org/1999/xlink">
<g id="graph0" class="graph" transform="scale(1 1) rotate(0) translate(4 169)">
<title>PoolingDepthfirst&lt; TInput, TOutput, OutputStage &gt;</title>
<polygon fill="#ffffff" stroke="transparent" points="-4,4 -4,-169 177,-169 177,4 -4,4"/>
<!-- Node0 -->
<g id="node1" class="node">
<title>Node0</title>
<polygon fill="#bfbfbf" stroke="#000000" points="0,-.5 0,-30.5 173,-30.5 173,-.5 0,-.5"/>
<text text-anchor="start" x="8" y="-18.5" font-family="Helvetica,sans-Serif" font-size="10.00" fill="#000000">PoolingDepthfirst&lt;</text>
<text text-anchor="middle" x="86.5" y="-7.5" font-family="Helvetica,sans-Serif" font-size="10.00" fill="#000000"> TInput, TOutput, OutputStage &gt;</text>
</g>
<!-- Node1 -->
<g id="node2" class="node">
<title>Node1</title>
<g id="a_node2"><a xlink:href="classarm__conv_1_1pooling_1_1_depthfirst_driver.xhtml" target="_top" xlink:title="DepthfirstDriver\&lt; TInput,\l TOutput \&gt;">
<polygon fill="#ffffff" stroke="#000000" points="16.5,-67.5 16.5,-97.5 156.5,-97.5 156.5,-67.5 16.5,-67.5"/>
<text text-anchor="start" x="24.5" y="-85.5" font-family="Helvetica,sans-Serif" font-size="10.00" fill="#000000">DepthfirstDriver&lt; TInput,</text>
<text text-anchor="middle" x="86.5" y="-74.5" font-family="Helvetica,sans-Serif" font-size="10.00" fill="#000000"> TOutput &gt;</text>
</a>
</g>
</g>
<!-- Node1&#45;&gt;Node0 -->
<g id="edge1" class="edge">
<title>Node1&#45;&gt;Node0</title>
<path fill="none" stroke="#191970" d="M86.5,-57.0249C86.5,-48.128 86.5,-38.4287 86.5,-30.6432"/>
<polygon fill="#191970" stroke="#191970" points="83.0001,-57.2966 86.5,-67.2967 90.0001,-57.2967 83.0001,-57.2966"/>
</g>
<!-- Node2 -->
<g id="node3" class="node">
<title>Node2</title>
<polygon fill="#ffffff" stroke="#bfbfbf" points="15.5,-134.5 15.5,-164.5 157.5,-164.5 157.5,-134.5 15.5,-134.5"/>
<text text-anchor="start" x="23.5" y="-152.5" font-family="Helvetica,sans-Serif" font-size="10.00" fill="#000000">PoolingCommon&lt; TInput,</text>
<text text-anchor="middle" x="86.5" y="-141.5" font-family="Helvetica,sans-Serif" font-size="10.00" fill="#000000"> TOutput &gt;</text>
</g>
<!-- Node2&#45;&gt;Node1 -->
<g id="edge2" class="edge">
<title>Node2&#45;&gt;Node1</title>
<path fill="none" stroke="#191970" d="M86.5,-124.0249C86.5,-115.128 86.5,-105.4287 86.5,-97.6432"/>
<polygon fill="#191970" stroke="#191970" points="83.0001,-124.2966 86.5,-134.2967 90.0001,-124.2967 83.0001,-124.2966"/>
</g>
</g>
</svg>
