<?xml version="1.0" encoding="UTF-8" standalone="no"?>
<!DOCTYPE svg PUBLIC "-//W3C//DTD SVG 1.1//EN"
 "http://www.w3.org/Graphics/SVG/1.1/DTD/svg11.dtd">
<!-- Generated by graphviz version 2.40.1 (20161225.0304)
 -->
<!-- Title: CpuDirectConv2dOutputStageKernel Pages: 1 -->
<svg width="300pt" height="299pt"
 viewBox="0.00 0.00 299.50 299.00" xmlns="http://www.w3.org/2000/svg" xmlns:xlink="http://www.w3.org/1999/xlink">
<g id="graph0" class="graph" transform="scale(1 1) rotate(0) translate(4 295)">
<title>CpuDirectConv2dOutputStageKernel</title>
<polygon fill="#ffffff" stroke="transparent" points="-4,4 -4,-295 295.5,-295 295.5,4 -4,4"/>
<!-- Node0 -->
<g id="node1" class="node">
<title>Node0</title>
<polygon fill="#bfbfbf" stroke="#000000" points="1.5,-.5 1.5,-30.5 163.5,-30.5 163.5,-.5 1.5,-.5"/>
<text text-anchor="start" x="9.5" y="-18.5" font-family="Helvetica,sans-Serif" font-size="10.00" fill="#000000">CpuDirectConv2dOutputStage</text>
<text text-anchor="middle" x="82.5" y="-7.5" font-family="Helvetica,sans-Serif" font-size="10.00" fill="#000000">Kernel</text>
</g>
<!-- Node1 -->
<g id="node2" class="node">
<title>Node1</title>
<g id="a_node2"><a xlink:href="classarm__compute_1_1cpu_1_1_i_cpu_kernel.xhtml" target="_top" xlink:title="ICpuKernel\&lt; CpuDirectConv2d\lOutputStageKernel \&gt;">
<polygon fill="#ffffff" stroke="#000000" points="0,-68.5 0,-98.5 165,-98.5 165,-68.5 0,-68.5"/>
<text text-anchor="start" x="8" y="-86.5" font-family="Helvetica,sans-Serif" font-size="10.00" fill="#000000">ICpuKernel&lt; CpuDirectConv2d</text>
<text text-anchor="middle" x="82.5" y="-75.5" font-family="Helvetica,sans-Serif" font-size="10.00" fill="#000000">OutputStageKernel &gt;</text>
</a>
</g>
</g>
<!-- Node1&#45;&gt;Node0 -->
<g id="edge1" class="edge">
<title>Node1&#45;&gt;Node0</title>
<path fill="none" stroke="#191970" d="M82.5,-58.1174C82.5,-48.8378 82.5,-38.6413 82.5,-30.5492"/>
<polygon fill="#191970" stroke="#191970" points="79.0001,-58.4086 82.5,-68.4086 86.0001,-58.4086 79.0001,-58.4086"/>
</g>
<!-- Node2 -->
<g id="node3" class="node">
<title>Node2</title>
<g id="a_node3"><a xlink:href="classarm__compute_1_1_i_c_p_p_kernel.xhtml" target="_top" xlink:title="Common interface for all kernels implemented in C++. ">
<polygon fill="#ffffff" stroke="#000000" points="44,-214.5 44,-233.5 113,-233.5 113,-214.5 44,-214.5"/>
<text text-anchor="middle" x="78.5" y="-221.5" font-family="Helvetica,sans-Serif" font-size="10.00" fill="#000000">ICPPKernel</text>
</a>
</g>
</g>
<!-- Node2&#45;&gt;Node1 -->
<g id="edge2" class="edge">
<title>Node2&#45;&gt;Node1</title>
<path fill="none" stroke="#191970" d="M79.0685,-204.031C79.8783,-175.5886 81.3458,-124.0418 82.0709,-98.5735"/>
<polygon fill="#191970" stroke="#191970" points="75.561,-204.2473 78.7749,-214.3429 82.5582,-204.4466 75.561,-204.2473"/>
</g>
<!-- Node4 -->
<g id="node5" class="node">
<title>Node4</title>
<g id="a_node5"><a xlink:href="classarm__compute_1_1cpu_1_1_i_cpu_kernel.xhtml" target="_top" xlink:title="ICpuKernel\&lt; Derived \&gt;">
<polygon fill="#ffffff" stroke="#000000" points="94.5,-157.5 94.5,-176.5 224.5,-176.5 224.5,-157.5 94.5,-157.5"/>
<text text-anchor="middle" x="159.5" y="-164.5" font-family="Helvetica,sans-Serif" font-size="10.00" fill="#000000">ICpuKernel&lt; Derived &gt;</text>
</a>
</g>
</g>
<!-- Node2&#45;&gt;Node4 -->
<g id="edge5" class="edge">
<title>Node2&#45;&gt;Node4</title>
<path fill="none" stroke="#191970" d="M100.6611,-208.4052C115.1542,-198.2063 133.6194,-185.2123 145.9624,-176.5265"/>
<polygon fill="#191970" stroke="#191970" points="98.4044,-205.7134 92.2405,-214.3307 102.4329,-211.4381 98.4044,-205.7134"/>
</g>
<!-- Node3 -->
<g id="node4" class="node">
<title>Node3</title>
<g id="a_node4"><a xlink:href="classarm__compute_1_1_i_kernel.xhtml" target="_top" xlink:title="Common information for all the kernels. ">
<polygon fill="#ffffff" stroke="#000000" points="53.5,-271.5 53.5,-290.5 103.5,-290.5 103.5,-271.5 53.5,-271.5"/>
<text text-anchor="middle" x="78.5" y="-278.5" font-family="Helvetica,sans-Serif" font-size="10.00" fill="#000000">IKernel</text>
</a>
</g>
</g>
<!-- Node3&#45;&gt;Node2 -->
<g id="edge3" class="edge">
<title>Node3&#45;&gt;Node2</title>
<path fill="none" stroke="#191970" d="M78.5,-261.2342C78.5,-251.8491 78.5,-241.0651 78.5,-233.5265"/>
<polygon fill="#191970" stroke="#191970" points="75.0001,-261.3307 78.5,-271.3307 82.0001,-261.3308 75.0001,-261.3307"/>
</g>
<!-- Node4&#45;&gt;Node1 -->
<g id="edge4" class="edge">
<title>Node4&#45;&gt;Node1</title>
<path fill="none" stroke="#ffa500" stroke-dasharray="5,2" d="M143.6528,-149.815C129.7469,-134.7353 109.7219,-113.0198 96.4218,-98.597"/>
<polygon fill="#ffa500" stroke="#ffa500" points="141.3149,-152.4428 150.6671,-157.4215 146.4609,-147.6973 141.3149,-152.4428"/>
<text text-anchor="start" x="131.5" y="-131" font-family="Helvetica,sans-Serif" font-size="10.00" fill="#000000"> &lt; CpuDirectConv2dOutputStage</text>
<text text-anchor="middle" x="211.5" y="-120" font-family="Helvetica,sans-Serif" font-size="10.00" fill="#000000">Kernel &gt;</text>
</g>
</g>
</svg>
