<?xml version="1.0" encoding="UTF-8" standalone="no"?>
<!DOCTYPE svg PUBLIC "-//W3C//DTD SVG 1.1//EN"
 "http://www.w3.org/Graphics/SVG/1.1/DTD/svg11.dtd">
<!-- Generated by graphviz version 2.40.1 (20161225.0304)
 -->
<!-- Title: src/runtime/CL/gemm_auto_heuristics Pages: 1 -->
<svg width="263pt" height="367pt"
 viewBox="0.00 0.00 263.00 367.00" xmlns="http://www.w3.org/2000/svg" xmlns:xlink="http://www.w3.org/1999/xlink">
<g id="graph0" class="graph" transform="scale(1 1) rotate(0) translate(4 363)">
<title>src/runtime/CL/gemm_auto_heuristics</title>
<polygon fill="#ffffff" stroke="transparent" points="-4,4 -4,-363 259,-363 259,4 -4,4"/>
<g id="clust1" class="cluster">
<title>clusterdir_43c3fdbf778d1fd99e2e38f09fddd920</title>
<g id="a_clust1"><a xlink:href="dir_43c3fdbf778d1fd99e2e38f09fddd920.xhtml" target="_top" xlink:title="CL">
<polygon fill="#ddddee" stroke="#000000" points="8,-280 8,-351 152,-351 152,-280 8,-280"/>
<text text-anchor="middle" x="80" y="-339" font-family="Helvetica,sans-Serif" font-size="10.00" fill="#000000">CL</text>
</a>
</g>
</g>
<!-- dir_a67538344c2c86328918cac423ccf8cb -->
<g id="node1" class="node">
<title>dir_a67538344c2c86328918cac423ccf8cb</title>
<g id="a_node1"><a xlink:href="dir_a67538344c2c86328918cac423ccf8cb.xhtml" target="_top" xlink:title="gemm_auto_heuristics">
<polygon fill="#eeeeff" stroke="#000000" points="144,-324 16,-324 16,-288 144,-288 144,-324"/>
<text text-anchor="middle" x="80" y="-303.5" font-family="Helvetica,sans-Serif" font-size="10.00" fill="#000000">gemm_auto_heuristics</text>
</a>
</g>
</g>
<!-- dir_82e3926d996ac5aae32ffa787ec227cb -->
<g id="node2" class="node">
<title>dir_82e3926d996ac5aae32ffa787ec227cb</title>
<g id="a_node2"><a xlink:href="dir_82e3926d996ac5aae32ffa787ec227cb.xhtml" target="_top" xlink:title="mlgo">
<polygon fill="none" stroke="#000000" points="255,-180 201,-180 201,-144 255,-144 255,-180"/>
<text text-anchor="middle" x="228" y="-159.5" font-family="Helvetica,sans-Serif" font-size="10.00" fill="#000000">mlgo</text>
</a>
</g>
</g>
<!-- dir_a67538344c2c86328918cac423ccf8cb&#45;&gt;dir_82e3926d996ac5aae32ffa787ec227cb -->
<g id="edge8" class="edge">
<title>dir_a67538344c2c86328918cac423ccf8cb&#45;&gt;dir_82e3926d996ac5aae32ffa787ec227cb</title>
<path fill="none" stroke="#000000" d="M119.523,-287.8155C136.6344,-278.6807 156.1098,-266.4644 171,-252 189.6122,-233.9201 204.9437,-208.6262 215.0002,-189.4556"/>
<polygon fill="#000000" stroke="#000000" points="218.2284,-190.8285 219.6361,-180.3276 211.9872,-187.6587 218.2284,-190.8285"/>
<g id="a_edge8&#45;headlabel"><a xlink:href="dir_000506_000038.xhtml" target="_top" xlink:title="2">
<text text-anchor="middle" x="219.1323" y="-192.8191" font-family="Helvetica,sans-Serif" font-size="10.00" fill="#000000">2</text>
</a>
</g>
</g>
<!-- dir_cf895c1ed808af158264b2f3d8d7f8f0 -->
<g id="node3" class="node">
<title>dir_cf895c1ed808af158264b2f3d8d7f8f0</title>
<g id="a_node3"><a xlink:href="dir_cf895c1ed808af158264b2f3d8d7f8f0.xhtml" target="_top" xlink:title="gpu">
<polygon fill="#ffffff" stroke="#ff0000" points="162,-252 108,-252 108,-216 162,-216 162,-252"/>
<text text-anchor="middle" x="135" y="-231.5" font-family="Helvetica,sans-Serif" font-size="10.00" fill="#000000">gpu</text>
</a>
</g>
</g>
<!-- dir_a67538344c2c86328918cac423ccf8cb&#45;&gt;dir_cf895c1ed808af158264b2f3d8d7f8f0 -->
<g id="edge9" class="edge">
<title>dir_a67538344c2c86328918cac423ccf8cb&#45;&gt;dir_cf895c1ed808af158264b2f3d8d7f8f0</title>
<path fill="none" stroke="#000000" d="M93.8788,-287.8314C100.2136,-279.5386 107.8384,-269.557 114.7926,-260.4533"/>
<polygon fill="#000000" stroke="#000000" points="117.6452,-262.4847 120.9343,-252.4133 112.0825,-258.2353 117.6452,-262.4847"/>
<g id="a_edge9&#45;headlabel"><a xlink:href="dir_000506_000004.xhtml" target="_top" xlink:title="5">
<text text-anchor="middle" x="117.7195" y="-264.5647" font-family="Helvetica,sans-Serif" font-size="10.00" fill="#000000">5</text>
</a>
</g>
</g>
<!-- dir_cbdb8362360e11eafe2fa3bc74cf0ffd -->
<g id="node4" class="node">
<title>dir_cbdb8362360e11eafe2fa3bc74cf0ffd</title>
<g id="a_node4"><a xlink:href="dir_cbdb8362360e11eafe2fa3bc74cf0ffd.xhtml" target="_top" xlink:title="utils">
<polygon fill="#ffffff" stroke="#ff0000" points="118,-36 64,-36 64,0 118,0 118,-36"/>
<text text-anchor="middle" x="91" y="-15.5" font-family="Helvetica,sans-Serif" font-size="10.00" fill="#000000">utils</text>
</a>
</g>
</g>
<!-- dir_a67538344c2c86328918cac423ccf8cb&#45;&gt;dir_cbdb8362360e11eafe2fa3bc74cf0ffd -->
<g id="edge10" class="edge">
<title>dir_a67538344c2c86328918cac423ccf8cb&#45;&gt;dir_cbdb8362360e11eafe2fa3bc74cf0ffd</title>
<path fill="none" stroke="#000000" d="M61.7866,-287.6676C53.2869,-277.9146 43.9676,-265.2229 39,-252 22.1012,-207.0181 32.003,-192.0099 34,-144 35.3345,-111.9168 26.9068,-101.3203 40,-72 44.7503,-61.3624 52.4994,-51.5077 60.5392,-43.2081"/>
<polygon fill="#000000" stroke="#000000" points="63.1836,-45.5192 67.9266,-36.0453 58.3108,-40.4936 63.1836,-45.5192"/>
<g id="a_edge10&#45;headlabel"><a xlink:href="dir_000506_000041.xhtml" target="_top" xlink:title="1">
<text text-anchor="middle" x="62.5793" y="-47.5598" font-family="Helvetica,sans-Serif" font-size="10.00" fill="#000000">1</text>
</a>
</g>
</g>
<!-- dir_214608ef36d61442cb2b0c1c4e9a7def -->
<g id="node5" class="node">
<title>dir_214608ef36d61442cb2b0c1c4e9a7def</title>
<g id="a_node5"><a xlink:href="dir_214608ef36d61442cb2b0c1c4e9a7def.xhtml" target="_top" xlink:title="arm_compute">
<polygon fill="#ffffff" stroke="#ff0000" points="133,-108 49,-108 49,-72 133,-72 133,-108"/>
<text text-anchor="middle" x="91" y="-87.5" font-family="Helvetica,sans-Serif" font-size="10.00" fill="#000000">arm_compute</text>
</a>
</g>
</g>
<!-- dir_a67538344c2c86328918cac423ccf8cb&#45;&gt;dir_214608ef36d61442cb2b0c1c4e9a7def -->
<g id="edge11" class="edge">
<title>dir_a67538344c2c86328918cac423ccf8cb&#45;&gt;dir_214608ef36d61442cb2b0c1c4e9a7def</title>
<path fill="none" stroke="#000000" d="M69.184,-287.5443C52.7324,-256.9659 25.2174,-194.1892 44,-144 47.8954,-133.5911 54.8041,-123.8652 62.1456,-115.6152"/>
<polygon fill="#000000" stroke="#000000" points="64.8643,-117.8358 69.2328,-108.1835 59.7986,-113.0048 64.8643,-117.8358"/>
<g id="a_edge11&#45;headlabel"><a xlink:href="dir_000506_000000.xhtml" target="_top" xlink:title="7">
<text text-anchor="middle" x="64.4383" y="-119.8966" font-family="Helvetica,sans-Serif" font-size="10.00" fill="#000000">7</text>
</a>
</g>
</g>
<!-- dir_5f09115d5b51f09d1c93a8d5eb5f8d5c -->
<g id="node6" class="node">
<title>dir_5f09115d5b51f09d1c93a8d5eb5f8d5c</title>
<g id="a_node6"><a xlink:href="dir_5f09115d5b51f09d1c93a8d5eb5f8d5c.xhtml" target="_top" xlink:title="gemm">
<polygon fill="none" stroke="#000000" points="107,-180 53,-180 53,-144 107,-144 107,-180"/>
<text text-anchor="middle" x="80" y="-159.5" font-family="Helvetica,sans-Serif" font-size="10.00" fill="#000000">gemm</text>
</a>
</g>
</g>
<!-- dir_a67538344c2c86328918cac423ccf8cb&#45;&gt;dir_5f09115d5b51f09d1c93a8d5eb5f8d5c -->
<g id="edge12" class="edge">
<title>dir_a67538344c2c86328918cac423ccf8cb&#45;&gt;dir_5f09115d5b51f09d1c93a8d5eb5f8d5c</title>
<path fill="none" stroke="#000000" d="M80,-287.7623C80,-263.201 80,-219.2474 80,-190.3541"/>
<polygon fill="#000000" stroke="#000000" points="83.5001,-190.0896 80,-180.0896 76.5001,-190.0897 83.5001,-190.0896"/>
<g id="a_edge12&#45;headlabel"><a xlink:href="dir_000506_000505.xhtml" target="_top" xlink:title="1">
<text text-anchor="middle" x="86.3393" y="-191.1842" font-family="Helvetica,sans-Serif" font-size="10.00" fill="#000000">1</text>
</a>
</g>
</g>
<!-- dir_82e3926d996ac5aae32ffa787ec227cb&#45;&gt;dir_214608ef36d61442cb2b0c1c4e9a7def -->
<g id="edge1" class="edge">
<title>dir_82e3926d996ac5aae32ffa787ec227cb&#45;&gt;dir_214608ef36d61442cb2b0c1c4e9a7def</title>
<path fill="none" stroke="#000000" d="M200.9332,-147.7751C181.9645,-137.8061 156.2059,-124.2688 134.3907,-112.8038"/>
<polygon fill="#000000" stroke="#000000" points="135.7943,-109.5876 125.314,-108.0336 132.5377,-115.784 135.7943,-109.5876"/>
<g id="a_edge1&#45;headlabel"><a xlink:href="dir_000038_000000.xhtml" target="_top" xlink:title="6">
<text text-anchor="middle" x="140.2971" y="-106.2465" font-family="Helvetica,sans-Serif" font-size="10.00" fill="#000000">6</text>
</a>
</g>
</g>
<!-- dir_cf895c1ed808af158264b2f3d8d7f8f0&#45;&gt;dir_82e3926d996ac5aae32ffa787ec227cb -->
<g id="edge2" class="edge">
<title>dir_cf895c1ed808af158264b2f3d8d7f8f0&#45;&gt;dir_82e3926d996ac5aae32ffa787ec227cb</title>
<path fill="none" stroke="#000000" d="M158.4678,-215.8314C170.0327,-206.8779 184.1404,-195.9558 196.6183,-186.2955"/>
<polygon fill="#000000" stroke="#000000" points="198.775,-189.0521 204.5397,-180.1628 194.4898,-183.5171 198.775,-189.0521"/>
<g id="a_edge2&#45;headlabel"><a xlink:href="dir_000004_000038.xhtml" target="_top" xlink:title="1">
<text text-anchor="middle" x="197.6708" y="-190.9977" font-family="Helvetica,sans-Serif" font-size="10.00" fill="#000000">1</text>
</a>
</g>
</g>
<!-- dir_cf895c1ed808af158264b2f3d8d7f8f0&#45;&gt;dir_cbdb8362360e11eafe2fa3bc74cf0ffd -->
<g id="edge3" class="edge">
<title>dir_cf895c1ed808af158264b2f3d8d7f8f0&#45;&gt;dir_cbdb8362360e11eafe2fa3bc74cf0ffd</title>
<path fill="none" stroke="#000000" d="M140.4902,-215.699C148.7491,-184.8108 161.4489,-120.9184 142,-72 137.7324,-61.2659 130.2069,-51.4321 122.2261,-43.1828"/>
<polygon fill="#000000" stroke="#000000" points="124.4779,-40.4921 114.8491,-36.072 119.6199,-45.5319 124.4779,-40.4921"/>
<g id="a_edge3&#45;headlabel"><a xlink:href="dir_000004_000041.xhtml" target="_top" xlink:title="2">
<text text-anchor="middle" x="129.0363" y="-38.4425" font-family="Helvetica,sans-Serif" font-size="10.00" fill="#000000">2</text>
</a>
</g>
</g>
<!-- dir_cf895c1ed808af158264b2f3d8d7f8f0&#45;&gt;dir_214608ef36d61442cb2b0c1c4e9a7def -->
<g id="edge4" class="edge">
<title>dir_cf895c1ed808af158264b2f3d8d7f8f0&#45;&gt;dir_214608ef36d61442cb2b0c1c4e9a7def</title>
<path fill="none" stroke="#000000" d="M132.3875,-215.7528C129.4649,-197.3418 124.0574,-168.2473 116,-144 113.0176,-135.0249 108.9712,-125.5633 105.0032,-117.1109"/>
<polygon fill="#000000" stroke="#000000" points="108.1332,-115.5439 100.6174,-108.0763 101.8359,-118.6009 108.1332,-115.5439"/>
<g id="a_edge4&#45;headlabel"><a xlink:href="dir_000004_000000.xhtml" target="_top" xlink:title="473">
<text text-anchor="middle" x="112.2571" y="-115.0376" font-family="Helvetica,sans-Serif" font-size="10.00" fill="#000000">473</text>
</a>
</g>
</g>
<!-- dir_cf895c1ed808af158264b2f3d8d7f8f0&#45;&gt;dir_5f09115d5b51f09d1c93a8d5eb5f8d5c -->
<g id="edge5" class="edge">
<title>dir_cf895c1ed808af158264b2f3d8d7f8f0&#45;&gt;dir_5f09115d5b51f09d1c93a8d5eb5f8d5c</title>
<path fill="none" stroke="#000000" d="M115.1688,-215.8314C108.0988,-207.6232 100.3665,-197.7606 93.8734,-188.7323"/>
<polygon fill="#000000" stroke="#000000" points="96.6718,-186.626 88.0897,-180.4133 90.9243,-190.6219 96.6718,-186.626"/>
<g id="a_edge5&#45;headlabel"><a xlink:href="dir_000004_000505.xhtml" target="_top" xlink:title="2">
<text text-anchor="middle" x="101.0549" y="-185.4567" font-family="Helvetica,sans-Serif" font-size="10.00" fill="#000000">2</text>
</a>
</g>
</g>
<!-- dir_cbdb8362360e11eafe2fa3bc74cf0ffd&#45;&gt;dir_214608ef36d61442cb2b0c1c4e9a7def -->
<g id="edge6" class="edge">
<title>dir_cbdb8362360e11eafe2fa3bc74cf0ffd&#45;&gt;dir_214608ef36d61442cb2b0c1c4e9a7def</title>
<path fill="none" stroke="#000000" d="M96.976,-36.4133C97.7071,-44.0593 97.9203,-53.1084 97.6155,-61.5726"/>
<polygon fill="#000000" stroke="#000000" points="94.1048,-61.6264 96.9524,-71.8314 101.0902,-62.078 94.1048,-61.6264"/>
<g id="a_edge6&#45;headlabel"><a xlink:href="dir_000041_000000.xhtml" target="_top" xlink:title="49">
<text text-anchor="middle" x="91.5032" y="-55.3562" font-family="Helvetica,sans-Serif" font-size="10.00" fill="#000000">49</text>
</a>
</g>
</g>
<!-- dir_214608ef36d61442cb2b0c1c4e9a7def&#45;&gt;dir_cbdb8362360e11eafe2fa3bc74cf0ffd -->
<g id="edge7" class="edge">
<title>dir_214608ef36d61442cb2b0c1c4e9a7def&#45;&gt;dir_cbdb8362360e11eafe2fa3bc74cf0ffd</title>
<path fill="none" stroke="#000000" d="M85.0476,-71.8314C84.2972,-64.131 84.0763,-54.9743 84.3849,-46.4166"/>
<polygon fill="#000000" stroke="#000000" points="87.8792,-46.6161 85.024,-36.4133 80.8935,-46.1697 87.8792,-46.6161"/>
<g id="a_edge7&#45;headlabel"><a xlink:href="dir_000000_000041.xhtml" target="_top" xlink:title="1">
<text text-anchor="middle" x="90.4836" y="-47.8844" font-family="Helvetica,sans-Serif" font-size="10.00" fill="#000000">1</text>
</a>
</g>
</g>
<!-- dir_5f09115d5b51f09d1c93a8d5eb5f8d5c&#45;&gt;dir_cf895c1ed808af158264b2f3d8d7f8f0 -->
<g id="edge13" class="edge">
<title>dir_5f09115d5b51f09d1c93a8d5eb5f8d5c&#45;&gt;dir_cf895c1ed808af158264b2f3d8d7f8f0</title>
<path fill="none" stroke="#000000" d="M100.0417,-180.4133C107.1246,-188.654 114.851,-198.5245 121.3194,-207.536"/>
<polygon fill="#000000" stroke="#000000" points="118.4981,-209.6095 127.0736,-215.8314 124.2498,-205.6197 118.4981,-209.6095"/>
<g id="a_edge13&#45;headlabel"><a xlink:href="dir_000505_000004.xhtml" target="_top" xlink:title="3">
<text text-anchor="middle" x="114.1164" y="-205.7742" font-family="Helvetica,sans-Serif" font-size="10.00" fill="#000000">3</text>
</a>
</g>
</g>
<!-- dir_5f09115d5b51f09d1c93a8d5eb5f8d5c&#45;&gt;dir_214608ef36d61442cb2b0c1c4e9a7def -->
<g id="edge14" class="edge">
<title>dir_5f09115d5b51f09d1c93a8d5eb5f8d5c&#45;&gt;dir_214608ef36d61442cb2b0c1c4e9a7def</title>
<path fill="none" stroke="#000000" d="M82.7758,-143.8314C83.9522,-136.131 85.3511,-126.9743 86.6586,-118.4166"/>
<polygon fill="#000000" stroke="#000000" points="90.1364,-118.8272 88.1869,-108.4133 83.2167,-117.7699 90.1364,-118.8272"/>
<g id="a_edge14&#45;headlabel"><a xlink:href="dir_000505_000000.xhtml" target="_top" xlink:title="11">
<text text-anchor="middle" x="92.4003" y="-120.3093" font-family="Helvetica,sans-Serif" font-size="10.00" fill="#000000">11</text>
</a>
</g>
</g>
</g>
</svg>
