<?xml version="1.0" encoding="UTF-8" standalone="no"?>
<!DOCTYPE svg PUBLIC "-//W3C//DTD SVG 1.1//EN"
 "http://www.w3.org/Graphics/SVG/1.1/DTD/svg11.dtd">
<!-- Generated by graphviz version 2.40.1 (20161225.0304)
 -->
<!-- Title: src/gpu/cl Pages: 1 -->
<svg width="604pt" height="464pt"
 viewBox="0.00 0.00 604.00 464.21" xmlns="http://www.w3.org/2000/svg" xmlns:xlink="http://www.w3.org/1999/xlink">
<g id="graph0" class="graph" transform="scale(1 1) rotate(0) translate(4 460.2083)">
<title>src/gpu/cl</title>
<polygon fill="#ffffff" stroke="transparent" points="-4,4 -4,-460.2083 600,-460.2083 600,4 -4,4"/>
<g id="clust1" class="cluster">
<title>clusterdir_cf895c1ed808af158264b2f3d8d7f8f0</title>
<g id="a_clust1"><a xlink:href="dir_cf895c1ed808af158264b2f3d8d7f8f0.xhtml" target="_top" xlink:title="gpu">
<polygon fill="#ddddee" stroke="#000000" points="264,-272 264,-431 432,-431 432,-272 264,-272"/>
<text text-anchor="middle" x="348" y="-419" font-family="Helvetica,sans-Serif" font-size="10.00" fill="#000000">gpu</text>
</a>
</g>
</g>
<g id="clust2" class="cluster">
<title>clusterdir_3fd6b49eea07a5dd89d90722d8b4e77f</title>
<g id="a_clust2"><a xlink:href="dir_3fd6b49eea07a5dd89d90722d8b4e77f.xhtml" target="_top">
<polygon fill="#eeeeff" stroke="#000000" points="272,-280 272,-404 424,-404 424,-280 272,-280"/>
</a>
</g>
</g>
<!-- dir_3fd6b49eea07a5dd89d90722d8b4e77f -->
<g id="node1" class="node">
<title>dir_3fd6b49eea07a5dd89d90722d8b4e77f</title>
<text text-anchor="middle" x="307" y="-375.5" font-family="Helvetica,sans-Serif" font-size="10.00" fill="#000000">cl</text>
</g>
<!-- dir_214608ef36d61442cb2b0c1c4e9a7def -->
<g id="node6" class="node">
<title>dir_214608ef36d61442cb2b0c1c4e9a7def</title>
<g id="a_node6"><a xlink:href="dir_214608ef36d61442cb2b0c1c4e9a7def.xhtml" target="_top" xlink:title="arm_compute">
<polygon fill="#ffffff" stroke="#ff0000" points="378,-180 294,-180 294,-144 378,-144 378,-180"/>
<text text-anchor="middle" x="336" y="-159.5" font-family="Helvetica,sans-Serif" font-size="10.00" fill="#000000">arm_compute</text>
</a>
</g>
</g>
<!-- dir_3fd6b49eea07a5dd89d90722d8b4e77f&#45;&gt;dir_214608ef36d61442cb2b0c1c4e9a7def -->
<g id="edge1" class="edge">
<title>dir_3fd6b49eea07a5dd89d90722d8b4e77f&#45;&gt;dir_214608ef36d61442cb2b0c1c4e9a7def</title>
<path fill="none" stroke="#000000" d="M334.0264,-364.7187C337.3769,-363.1116 340.7617,-361.5068 344,-360 379.7182,-343.3804 403.5329,-357.0328 425,-324 455.3188,-277.3466 403.7418,-219.5758 367.2957,-187.1481"/>
<polygon fill="#000000" stroke="#000000" points="369.1768,-184.1468 359.3281,-180.2412 364.5917,-189.4361 369.1768,-184.1468"/>
<g id="a_edge1&#45;headlabel"><a xlink:href="dir_000005_000000.xhtml" target="_top" xlink:title="473">
<text text-anchor="middle" x="373.7527" y="-181.8559" font-family="Helvetica,sans-Serif" font-size="10.00" fill="#000000">473</text>
</a>
</g>
</g>
<!-- dir_aebb8dcc11953d78e620bbef0b9e2183 -->
<g id="node7" class="node">
<title>dir_aebb8dcc11953d78e620bbef0b9e2183</title>
<g id="a_node7"><a xlink:href="dir_aebb8dcc11953d78e620bbef0b9e2183.xhtml" target="_top" xlink:title="core">
<polygon fill="#ffffff" stroke="#ff0000" points="158,-324 104,-324 104,-288 158,-288 158,-324"/>
<text text-anchor="middle" x="131" y="-303.5" font-family="Helvetica,sans-Serif" font-size="10.00" fill="#000000">core</text>
</a>
</g>
</g>
<!-- dir_3fd6b49eea07a5dd89d90722d8b4e77f&#45;&gt;dir_aebb8dcc11953d78e620bbef0b9e2183 -->
<g id="edge2" class="edge">
<title>dir_3fd6b49eea07a5dd89d90722d8b4e77f&#45;&gt;dir_aebb8dcc11953d78e620bbef0b9e2183</title>
<path fill="none" stroke="#000000" d="M279.8857,-366.9078C249.7835,-354.5933 201.038,-334.6519 167.5753,-320.9626"/>
<polygon fill="#000000" stroke="#000000" points="168.7258,-317.6518 158.1451,-317.1048 166.0753,-324.1306 168.7258,-317.6518"/>
<g id="a_edge2&#45;headlabel"><a xlink:href="dir_000005_000020.xhtml" target="_top" xlink:title="229">
<text text-anchor="middle" x="173.1278" y="-313.8849" font-family="Helvetica,sans-Serif" font-size="10.00" fill="#000000">229</text>
</a>
</g>
</g>
<!-- dir_bf9f26469d00835ba20ff8d80ee5a804 -->
<g id="node8" class="node">
<title>dir_bf9f26469d00835ba20ff8d80ee5a804</title>
<g id="a_node8"><a xlink:href="dir_bf9f26469d00835ba20ff8d80ee5a804.xhtml" target="_top" xlink:title="runtime">
<polygon fill="#ffffff" stroke="#ff0000" points="185.5,-396 130.5,-396 130.5,-360 185.5,-360 185.5,-396"/>
<text text-anchor="middle" x="158" y="-375.5" font-family="Helvetica,sans-Serif" font-size="10.00" fill="#000000">runtime</text>
</a>
</g>
</g>
<!-- dir_3fd6b49eea07a5dd89d90722d8b4e77f&#45;&gt;dir_bf9f26469d00835ba20ff8d80ee5a804 -->
<g id="edge3" class="edge">
<title>dir_3fd6b49eea07a5dd89d90722d8b4e77f&#45;&gt;dir_bf9f26469d00835ba20ff8d80ee5a804</title>
<path fill="none" stroke="#000000" d="M279.9799,-378C251.9747,-378 223.9694,-378 195.9642,-378"/>
<polygon fill="#000000" stroke="#000000" points="195.6465,-374.5001 185.6465,-378 195.6465,-381.5001 195.6465,-374.5001"/>
<g id="a_edge3&#45;headlabel"><a xlink:href="dir_000005_000036.xhtml" target="_top" xlink:title="11">
<text text-anchor="middle" x="199.2411" y="-369.1607" font-family="Helvetica,sans-Serif" font-size="10.00" fill="#000000">11</text>
</a>
</g>
</g>
<!-- dir_fdedb0aba14d44ce9d99bc100e026e6a -->
<g id="node10" class="node">
<title>dir_fdedb0aba14d44ce9d99bc100e026e6a</title>
<g id="a_node10"><a xlink:href="dir_fdedb0aba14d44ce9d99bc100e026e6a.xhtml" target="_top" xlink:title="common">
<polygon fill="#ffffff" stroke="#ff0000" points="254.5,-252 195.5,-252 195.5,-216 254.5,-216 254.5,-252"/>
<text text-anchor="middle" x="225" y="-231.5" font-family="Helvetica,sans-Serif" font-size="10.00" fill="#000000">common</text>
</a>
</g>
</g>
<!-- dir_3fd6b49eea07a5dd89d90722d8b4e77f&#45;&gt;dir_fdedb0aba14d44ce9d99bc100e026e6a -->
<g id="edge4" class="edge">
<title>dir_3fd6b49eea07a5dd89d90722d8b4e77f&#45;&gt;dir_fdedb0aba14d44ce9d99bc100e026e6a</title>
<path fill="none" stroke="#000000" d="M281.0931,-359.8531C269.393,-350.4122 256.3515,-337.9353 248,-324 236.651,-305.0632 230.8628,-280.6434 227.9334,-262.0197"/>
<polygon fill="#000000" stroke="#000000" points="231.3946,-261.4984 226.5506,-252.0758 224.4614,-262.4625 231.3946,-261.4984"/>
<g id="a_edge4&#45;headlabel"><a xlink:href="dir_000005_000019.xhtml" target="_top" xlink:title="42">
<text text-anchor="middle" x="234.7019" y="-262.1677" font-family="Helvetica,sans-Serif" font-size="10.00" fill="#000000">42</text>
</a>
</g>
</g>
<!-- dir_d31afe59158d6d6f352f20563e96492f -->
<g id="node2" class="node">
<title>dir_d31afe59158d6d6f352f20563e96492f</title>
<g id="a_node2"><a xlink:href="dir_d31afe59158d6d6f352f20563e96492f.xhtml" target="_top" xlink:title="kernels">
<polygon fill="#ffffff" stroke="#ff0000" points="344,-324 290,-324 290,-288 344,-288 344,-324"/>
<text text-anchor="middle" x="317" y="-303.5" font-family="Helvetica,sans-Serif" font-size="10.00" fill="#000000">kernels</text>
</a>
</g>
</g>
<!-- dir_cbdb8362360e11eafe2fa3bc74cf0ffd -->
<g id="node5" class="node">
<title>dir_cbdb8362360e11eafe2fa3bc74cf0ffd</title>
<g id="a_node5"><a xlink:href="dir_cbdb8362360e11eafe2fa3bc74cf0ffd.xhtml" target="_top" xlink:title="utils">
<polygon fill="#ffffff" stroke="#ff0000" points="299,-108 245,-108 245,-72 299,-72 299,-108"/>
<text text-anchor="middle" x="272" y="-87.5" font-family="Helvetica,sans-Serif" font-size="10.00" fill="#000000">utils</text>
</a>
</g>
</g>
<!-- dir_d31afe59158d6d6f352f20563e96492f&#45;&gt;dir_cbdb8362360e11eafe2fa3bc74cf0ffd -->
<g id="edge7" class="edge">
<title>dir_d31afe59158d6d6f352f20563e96492f&#45;&gt;dir_cbdb8362360e11eafe2fa3bc74cf0ffd</title>
<path fill="none" stroke="#000000" d="M311.7276,-287.7748C304.8231,-263.3948 292.695,-218.7397 285,-180 280.9054,-159.3861 277.5539,-135.8736 275.2799,-118.0516"/>
<polygon fill="#000000" stroke="#000000" points="278.7406,-117.518 274.0371,-108.0244 271.7937,-118.379 278.7406,-117.518"/>
<g id="a_edge7&#45;headlabel"><a xlink:href="dir_000489_000041.xhtml" target="_top" xlink:title="1">
<text text-anchor="middle" x="282.0003" y="-118.2361" font-family="Helvetica,sans-Serif" font-size="10.00" fill="#000000">1</text>
</a>
</g>
</g>
<!-- dir_d31afe59158d6d6f352f20563e96492f&#45;&gt;dir_214608ef36d61442cb2b0c1c4e9a7def -->
<g id="edge8" class="edge">
<title>dir_d31afe59158d6d6f352f20563e96492f&#45;&gt;dir_214608ef36d61442cb2b0c1c4e9a7def</title>
<path fill="none" stroke="#000000" d="M319.4064,-287.7623C322.6471,-263.201 328.4465,-219.2474 332.2588,-190.3541"/>
<polygon fill="#000000" stroke="#000000" points="335.7749,-190.4616 333.6132,-180.0896 328.8351,-189.5458 335.7749,-190.4616"/>
<g id="a_edge8&#45;headlabel"><a xlink:href="dir_000489_000000.xhtml" target="_top" xlink:title="368">
<text text-anchor="middle" x="338.1197" y="-191.8967" font-family="Helvetica,sans-Serif" font-size="10.00" fill="#000000">368</text>
</a>
</g>
</g>
<!-- dir_d31afe59158d6d6f352f20563e96492f&#45;&gt;dir_aebb8dcc11953d78e620bbef0b9e2183 -->
<g id="edge9" class="edge">
<title>dir_d31afe59158d6d6f352f20563e96492f&#45;&gt;dir_aebb8dcc11953d78e620bbef0b9e2183</title>
<path fill="none" stroke="#000000" d="M289.7142,-306C249.2295,-306 208.7449,-306 168.2603,-306"/>
<polygon fill="#000000" stroke="#000000" points="168.2461,-302.5001 158.2461,-306 168.2461,-309.5001 168.2461,-302.5001"/>
<g id="a_edge9&#45;headlabel"><a xlink:href="dir_000489_000020.xhtml" target="_top" xlink:title="209">
<text text-anchor="middle" x="171.8407" y="-297.1607" font-family="Helvetica,sans-Serif" font-size="10.00" fill="#000000">209</text>
</a>
</g>
</g>
<!-- dir_d31afe59158d6d6f352f20563e96492f&#45;&gt;dir_bf9f26469d00835ba20ff8d80ee5a804 -->
<g id="edge10" class="edge">
<title>dir_d31afe59158d6d6f352f20563e96492f&#45;&gt;dir_bf9f26469d00835ba20ff8d80ee5a804</title>
<path fill="none" stroke="#000000" d="M289.8405,-316.0975C263.6779,-327.0351 224.1447,-344.7527 195.1222,-358.4362"/>
<polygon fill="#000000" stroke="#000000" points="193.2464,-355.4525 185.7172,-362.9064 196.2514,-361.7747 193.2464,-355.4525"/>
<g id="a_edge10&#45;headlabel"><a xlink:href="dir_000489_000036.xhtml" target="_top" xlink:title="1">
<text text-anchor="middle" x="195.2741" y="-348.8451" font-family="Helvetica,sans-Serif" font-size="10.00" fill="#000000">1</text>
</a>
</g>
</g>
<!-- dir_5815af820a9cc9481f1d0990a0d60286 -->
<g id="node9" class="node">
<title>dir_5815af820a9cc9481f1d0990a0d60286</title>
<g id="a_node9"><a xlink:href="dir_5815af820a9cc9481f1d0990a0d60286.xhtml" target="_top" xlink:title="support">
<polygon fill="none" stroke="#000000" points="363,-36 309,-36 309,0 363,0 363,-36"/>
<text text-anchor="middle" x="336" y="-15.5" font-family="Helvetica,sans-Serif" font-size="10.00" fill="#000000">support</text>
</a>
</g>
</g>
<!-- dir_d31afe59158d6d6f352f20563e96492f&#45;&gt;dir_5815af820a9cc9481f1d0990a0d60286 -->
<g id="edge11" class="edge">
<title>dir_d31afe59158d6d6f352f20563e96492f&#45;&gt;dir_5815af820a9cc9481f1d0990a0d60286</title>
<path fill="none" stroke="#000000" d="M331.1767,-287.6627C348.3156,-264.2213 376.2034,-221.6653 387,-180 399.4537,-131.9395 373.462,-77.018 354.2107,-45.0523"/>
<polygon fill="#000000" stroke="#000000" points="357.0081,-42.9234 348.7502,-36.2858 351.0665,-46.6244 357.0081,-42.9234"/>
<g id="a_edge11&#45;headlabel"><a xlink:href="dir_000489_000032.xhtml" target="_top" xlink:title="97">
<text text-anchor="middle" x="361.3186" y="-41.9734" font-family="Helvetica,sans-Serif" font-size="10.00" fill="#000000">97</text>
</a>
</g>
</g>
<!-- dir_d31afe59158d6d6f352f20563e96492f&#45;&gt;dir_fdedb0aba14d44ce9d99bc100e026e6a -->
<g id="edge12" class="edge">
<title>dir_d31afe59158d6d6f352f20563e96492f&#45;&gt;dir_fdedb0aba14d44ce9d99bc100e026e6a</title>
<path fill="none" stroke="#000000" d="M295.468,-287.7893C289.2405,-282.6193 282.3968,-277.0299 276,-272 270.2117,-267.4485 263.9783,-262.6897 257.9244,-258.1404"/>
<polygon fill="#000000" stroke="#000000" points="259.9465,-255.2823 249.8391,-252.1059 255.7596,-260.8921 259.9465,-255.2823"/>
<g id="a_edge12&#45;headlabel"><a xlink:href="dir_000489_000019.xhtml" target="_top" xlink:title="1">
<text text-anchor="middle" x="264.5255" y="-252.6569" font-family="Helvetica,sans-Serif" font-size="10.00" fill="#000000">1</text>
</a>
</g>
</g>
<!-- dir_9f6e96fe293420b74afaf1a4dc4f9f82 -->
<g id="node3" class="node">
<title>dir_9f6e96fe293420b74afaf1a4dc4f9f82</title>
<g id="a_node3"><a xlink:href="dir_9f6e96fe293420b74afaf1a4dc4f9f82.xhtml" target="_top" xlink:title="operators">
<polygon fill="#ffffff" stroke="#000000" points="415.5,-396 352.5,-396 352.5,-360 415.5,-360 415.5,-396"/>
<text text-anchor="middle" x="384" y="-375.5" font-family="Helvetica,sans-Serif" font-size="10.00" fill="#000000">operators</text>
</a>
</g>
</g>
<!-- dir_9f6e96fe293420b74afaf1a4dc4f9f82&#45;&gt;dir_d31afe59158d6d6f352f20563e96492f -->
<g id="edge19" class="edge">
<title>dir_9f6e96fe293420b74afaf1a4dc4f9f82&#45;&gt;dir_d31afe59158d6d6f352f20563e96492f</title>
<path fill="none" stroke="#000000" d="M367.0931,-359.8314C359.2187,-351.3694 349.708,-341.1489 341.0987,-331.8971"/>
<polygon fill="#000000" stroke="#000000" points="343.5092,-329.3497 334.1346,-324.4133 338.3847,-334.1183 343.5092,-329.3497"/>
<g id="a_edge19&#45;headlabel"><a xlink:href="dir_000066_000489.xhtml" target="_top" xlink:title="60">
<text text-anchor="middle" x="348.0364" y="-327.547" font-family="Helvetica,sans-Serif" font-size="10.00" fill="#000000">60</text>
</a>
</g>
</g>
<!-- dir_3e844ad8e05c9b398761680402f65ecd -->
<g id="node4" class="node">
<title>dir_3e844ad8e05c9b398761680402f65ecd</title>
<g id="a_node4"><a xlink:href="dir_3e844ad8e05c9b398761680402f65ecd.xhtml" target="_top" xlink:title="utils">
<polygon fill="#ffffff" stroke="#000000" points="416,-324 362,-324 362,-288 416,-288 416,-324"/>
<text text-anchor="middle" x="389" y="-303.5" font-family="Helvetica,sans-Serif" font-size="10.00" fill="#000000">utils</text>
</a>
</g>
</g>
<!-- dir_9f6e96fe293420b74afaf1a4dc4f9f82&#45;&gt;dir_3e844ad8e05c9b398761680402f65ecd -->
<g id="edge20" class="edge">
<title>dir_9f6e96fe293420b74afaf1a4dc4f9f82&#45;&gt;dir_3e844ad8e05c9b398761680402f65ecd</title>
<path fill="none" stroke="#000000" d="M385.2617,-359.8314C385.7965,-352.131 386.4323,-342.9743 387.0266,-334.4166"/>
<polygon fill="#000000" stroke="#000000" points="390.52,-334.6317 387.7213,-324.4133 383.5368,-334.1467 390.52,-334.6317"/>
<g id="a_edge20&#45;headlabel"><a xlink:href="dir_000066_000495.xhtml" target="_top" xlink:title="7">
<text text-anchor="middle" x="393.1035" y="-335.9144" font-family="Helvetica,sans-Serif" font-size="10.00" fill="#000000">7</text>
</a>
</g>
</g>
<!-- dir_9f6e96fe293420b74afaf1a4dc4f9f82&#45;&gt;dir_cbdb8362360e11eafe2fa3bc74cf0ffd -->
<g id="edge18" class="edge">
<title>dir_9f6e96fe293420b74afaf1a4dc4f9f82&#45;&gt;dir_cbdb8362360e11eafe2fa3bc74cf0ffd</title>
<path fill="none" stroke="#000000" d="M415.6352,-364.0736C431.7608,-355.1433 449.8565,-341.8503 459,-324 481.0934,-280.8685 465.7602,-259.3006 444,-216 425.6734,-179.532 418.9888,-169.3475 387,-144 363.4492,-125.3386 332.3973,-111.2466 308.4971,-102.1454"/>
<polygon fill="#000000" stroke="#000000" points="309.6573,-98.843 299.0639,-98.6689 307.2366,-105.4111 309.6573,-98.843"/>
<g id="a_edge18&#45;headlabel"><a xlink:href="dir_000066_000041.xhtml" target="_top" xlink:title="1">
<text text-anchor="middle" x="314.0119" y="-94.9218" font-family="Helvetica,sans-Serif" font-size="10.00" fill="#000000">1</text>
</a>
</g>
</g>
<!-- dir_9f6e96fe293420b74afaf1a4dc4f9f82&#45;&gt;dir_214608ef36d61442cb2b0c1c4e9a7def -->
<g id="edge21" class="edge">
<title>dir_9f6e96fe293420b74afaf1a4dc4f9f82&#45;&gt;dir_214608ef36d61442cb2b0c1c4e9a7def</title>
<path fill="none" stroke="#000000" d="M412.432,-359.9601C424.2228,-350.7801 436.6204,-338.4872 443,-324 452.3141,-302.8489 447.1236,-294.7403 443,-272 438.2572,-245.8452 438.8058,-236.5945 422,-216 412.0336,-203.7868 398.5379,-193.5175 385.1941,-185.3242"/>
<polygon fill="#000000" stroke="#000000" points="386.8865,-182.2594 376.4859,-180.2402 383.3572,-188.3046 386.8865,-182.2594"/>
<g id="a_edge21&#45;headlabel"><a xlink:href="dir_000066_000000.xhtml" target="_top" xlink:title="90">
<text text-anchor="middle" x="391.4223" y="-179.1197" font-family="Helvetica,sans-Serif" font-size="10.00" fill="#000000">90</text>
</a>
</g>
</g>
<!-- dir_9f6e96fe293420b74afaf1a4dc4f9f82&#45;&gt;dir_aebb8dcc11953d78e620bbef0b9e2183 -->
<g id="edge22" class="edge">
<title>dir_9f6e96fe293420b74afaf1a4dc4f9f82&#45;&gt;dir_aebb8dcc11953d78e620bbef0b9e2183</title>
<path fill="none" stroke="#000000" d="M352.4205,-363.5225C349.265,-362.2614 346.0872,-361.0628 343,-360 282.95,-339.3273 210.8991,-322.6219 168.1443,-313.5209"/>
<polygon fill="#000000" stroke="#000000" points="168.6956,-310.0604 158.1892,-311.4269 167.2546,-316.9105 168.6956,-310.0604"/>
<g id="a_edge22&#45;headlabel"><a xlink:href="dir_000066_000020.xhtml" target="_top" xlink:title="19">
<text text-anchor="middle" x="172.7976" y="-305.5218" font-family="Helvetica,sans-Serif" font-size="10.00" fill="#000000">19</text>
</a>
</g>
</g>
<!-- dir_9f6e96fe293420b74afaf1a4dc4f9f82&#45;&gt;dir_bf9f26469d00835ba20ff8d80ee5a804 -->
<g id="edge23" class="edge">
<title>dir_9f6e96fe293420b74afaf1a4dc4f9f82&#45;&gt;dir_bf9f26469d00835ba20ff8d80ee5a804</title>
<path fill="none" stroke="#000000" d="M377.0689,-396.1006C369.4123,-413.2449 355.2776,-437.96 334,-449 311.5133,-460.6674 301.4225,-455.7321 277,-449 244.0956,-439.9298 211.1131,-419.1063 188.2452,-402.3426"/>
<polygon fill="#000000" stroke="#000000" points="190.0956,-399.3552 179.9974,-396.1495 185.8925,-404.9529 190.0956,-399.3552"/>
<g id="a_edge23&#45;headlabel"><a xlink:href="dir_000066_000036.xhtml" target="_top" xlink:title="9">
<text text-anchor="middle" x="194.6749" y="-396.7431" font-family="Helvetica,sans-Serif" font-size="10.00" fill="#000000">9</text>
</a>
</g>
</g>
<!-- dir_9f6e96fe293420b74afaf1a4dc4f9f82&#45;&gt;dir_5815af820a9cc9481f1d0990a0d60286 -->
<g id="edge24" class="edge">
<title>dir_9f6e96fe293420b74afaf1a4dc4f9f82&#45;&gt;dir_5815af820a9cc9481f1d0990a0d60286</title>
<path fill="none" stroke="#000000" d="M415.7385,-371.8366C474.8794,-358.3089 596,-320.0944 596,-234 596,-234 596,-234 596,-162 596,-61.4251 445.2769,-30.5249 373.3468,-21.5047"/>
<polygon fill="#000000" stroke="#000000" points="373.6736,-18.0191 363.3331,-20.327 372.8558,-24.9712 373.6736,-18.0191"/>
<g id="a_edge24&#45;headlabel"><a xlink:href="dir_000066_000032.xhtml" target="_top" xlink:title="5">
<text text-anchor="middle" x="377.5752" y="-13.1191" font-family="Helvetica,sans-Serif" font-size="10.00" fill="#000000">5</text>
</a>
</g>
</g>
<!-- dir_9f6e96fe293420b74afaf1a4dc4f9f82&#45;&gt;dir_fdedb0aba14d44ce9d99bc100e026e6a -->
<g id="edge25" class="edge">
<title>dir_9f6e96fe293420b74afaf1a4dc4f9f82&#45;&gt;dir_fdedb0aba14d44ce9d99bc100e026e6a</title>
<path fill="none" stroke="#000000" d="M352.3812,-363.6753C326.4464,-351.5222 292.2429,-334.4431 281,-324 278.2862,-321.4792 256.8326,-286.5254 241.2862,-260.9345"/>
<polygon fill="#000000" stroke="#000000" points="244.2528,-259.0765 236.074,-252.3416 238.2678,-262.7068 244.2528,-259.0765"/>
<g id="a_edge25&#45;headlabel"><a xlink:href="dir_000066_000019.xhtml" target="_top" xlink:title="36">
<text text-anchor="middle" x="248.5446" y="-258.1774" font-family="Helvetica,sans-Serif" font-size="10.00" fill="#000000">36</text>
</a>
</g>
</g>
<!-- dir_3e844ad8e05c9b398761680402f65ecd&#45;&gt;dir_214608ef36d61442cb2b0c1c4e9a7def -->
<g id="edge13" class="edge">
<title>dir_3e844ad8e05c9b398761680402f65ecd&#45;&gt;dir_214608ef36d61442cb2b0c1c4e9a7def</title>
<path fill="none" stroke="#000000" d="M382.2875,-287.7623C373.168,-262.9846 356.7846,-218.4714 346.1561,-189.5939"/>
<polygon fill="#000000" stroke="#000000" points="349.3967,-188.2652 342.658,-180.0896 342.8275,-190.6831 349.3967,-188.2652"/>
<g id="a_edge13&#45;headlabel"><a xlink:href="dir_000495_000000.xhtml" target="_top" xlink:title="3">
<text text-anchor="middle" x="353.3027" y="-188.1579" font-family="Helvetica,sans-Serif" font-size="10.00" fill="#000000">3</text>
</a>
</g>
</g>
<!-- dir_3e844ad8e05c9b398761680402f65ecd&#45;&gt;dir_5815af820a9cc9481f1d0990a0d60286 -->
<g id="edge14" class="edge">
<title>dir_3e844ad8e05c9b398761680402f65ecd&#45;&gt;dir_5815af820a9cc9481f1d0990a0d60286</title>
<path fill="none" stroke="#000000" d="M394.376,-287.9864C405.5474,-246.9408 427.2718,-144.4261 390,-72 384.4632,-61.2409 376.0109,-51.2899 367.4257,-42.9383"/>
<polygon fill="#000000" stroke="#000000" points="369.6461,-40.2252 359.9169,-36.0307 364.9068,-45.3769 369.6461,-40.2252"/>
<g id="a_edge14&#45;headlabel"><a xlink:href="dir_000495_000032.xhtml" target="_top" xlink:title="1">
<text text-anchor="middle" x="374.2138" y="-38.0692" font-family="Helvetica,sans-Serif" font-size="10.00" fill="#000000">1</text>
</a>
</g>
</g>
<!-- dir_3e844ad8e05c9b398761680402f65ecd&#45;&gt;dir_fdedb0aba14d44ce9d99bc100e026e6a -->
<g id="edge15" class="edge">
<title>dir_3e844ad8e05c9b398761680402f65ecd&#45;&gt;dir_fdedb0aba14d44ce9d99bc100e026e6a</title>
<path fill="none" stroke="#000000" d="M373.1298,-287.9393C367.2864,-282.1743 360.2999,-276.206 353,-272 325.5159,-256.1645 290.8427,-246.4008 264.5181,-240.7423"/>
<polygon fill="#000000" stroke="#000000" points="265.0104,-237.2707 254.5126,-238.7013 263.6112,-244.1294 265.0104,-237.2707"/>
<g id="a_edge15&#45;headlabel"><a xlink:href="dir_000495_000019.xhtml" target="_top" xlink:title="1">
<text text-anchor="middle" x="269.0999" y="-232.7071" font-family="Helvetica,sans-Serif" font-size="10.00" fill="#000000">1</text>
</a>
</g>
</g>
<!-- dir_cbdb8362360e11eafe2fa3bc74cf0ffd&#45;&gt;dir_214608ef36d61442cb2b0c1c4e9a7def -->
<g id="edge5" class="edge">
<title>dir_cbdb8362360e11eafe2fa3bc74cf0ffd&#45;&gt;dir_214608ef36d61442cb2b0c1c4e9a7def</title>
<path fill="none" stroke="#000000" d="M294.3434,-108.4133C302.54,-116.7389 311.6014,-126.7282 319.2458,-135.8144"/>
<polygon fill="#000000" stroke="#000000" points="316.7623,-138.3063 325.8025,-143.8314 322.1809,-133.8747 316.7623,-138.3063"/>
<g id="a_edge5&#45;headlabel"><a xlink:href="dir_000041_000000.xhtml" target="_top" xlink:title="49">
<text text-anchor="middle" x="312.2888" y="-134.8213" font-family="Helvetica,sans-Serif" font-size="10.00" fill="#000000">49</text>
</a>
</g>
</g>
<!-- dir_cbdb8362360e11eafe2fa3bc74cf0ffd&#45;&gt;dir_5815af820a9cc9481f1d0990a0d60286 -->
<g id="edge6" class="edge">
<title>dir_cbdb8362360e11eafe2fa3bc74cf0ffd&#45;&gt;dir_5815af820a9cc9481f1d0990a0d60286</title>
<path fill="none" stroke="#000000" d="M288.1499,-71.8314C295.6717,-63.3694 304.7565,-53.1489 312.9804,-43.8971"/>
<polygon fill="#000000" stroke="#000000" points="315.6049,-46.2127 319.6327,-36.4133 310.373,-41.5621 315.6049,-46.2127"/>
<g id="a_edge6&#45;headlabel"><a xlink:href="dir_000041_000032.xhtml" target="_top" xlink:title="4">
<text text-anchor="middle" x="315.3389" y="-48.2856" font-family="Helvetica,sans-Serif" font-size="10.00" fill="#000000">4</text>
</a>
</g>
</g>
<!-- dir_214608ef36d61442cb2b0c1c4e9a7def&#45;&gt;dir_cbdb8362360e11eafe2fa3bc74cf0ffd -->
<g id="edge16" class="edge">
<title>dir_214608ef36d61442cb2b0c1c4e9a7def&#45;&gt;dir_cbdb8362360e11eafe2fa3bc74cf0ffd</title>
<path fill="none" stroke="#000000" d="M313.8977,-143.8314C305.6348,-135.454 296.4665,-125.3531 288.7452,-116.1749"/>
<polygon fill="#000000" stroke="#000000" points="291.4341,-113.9341 282.3913,-108.4133 286.0175,-118.3683 291.4341,-113.9341"/>
<g id="a_edge16&#45;headlabel"><a xlink:href="dir_000000_000041.xhtml" target="_top" xlink:title="1">
<text text-anchor="middle" x="295.908" y="-112.4171" font-family="Helvetica,sans-Serif" font-size="10.00" fill="#000000">1</text>
</a>
</g>
</g>
<!-- dir_214608ef36d61442cb2b0c1c4e9a7def&#45;&gt;dir_5815af820a9cc9481f1d0990a0d60286 -->
<g id="edge17" class="edge">
<title>dir_214608ef36d61442cb2b0c1c4e9a7def&#45;&gt;dir_5815af820a9cc9481f1d0990a0d60286</title>
<path fill="none" stroke="#000000" d="M331.3268,-143.7623C328.867,-119.201 328.5923,-75.2474 330.5026,-46.3541"/>
<polygon fill="#000000" stroke="#000000" points="334.0152,-46.3416 331.3417,-36.0896 327.0385,-45.7712 334.0152,-46.3416"/>
<g id="a_edge17&#45;headlabel"><a xlink:href="dir_000000_000032.xhtml" target="_top" xlink:title="18">
<text text-anchor="middle" x="336.5522" y="-47.6556" font-family="Helvetica,sans-Serif" font-size="10.00" fill="#000000">18</text>
</a>
</g>
</g>
<!-- dir_aebb8dcc11953d78e620bbef0b9e2183&#45;&gt;dir_d31afe59158d6d6f352f20563e96492f -->
<g id="edge26" class="edge">
<title>dir_aebb8dcc11953d78e620bbef0b9e2183&#45;&gt;dir_d31afe59158d6d6f352f20563e96492f</title>
<path fill="none" stroke="#000000" d="M158.2461,-306C198.7307,-306 239.2154,-306 279.7,-306"/>
<polygon fill="#000000" stroke="#000000" points="279.7142,-309.5001 289.7142,-306 279.7141,-302.5001 279.7142,-309.5001"/>
<g id="a_edge26&#45;headlabel"><a xlink:href="dir_000020_000489.xhtml" target="_top" xlink:title="1">
<text text-anchor="middle" x="276.1196" y="-309.8393" font-family="Helvetica,sans-Serif" font-size="10.00" fill="#000000">1</text>
</a>
</g>
</g>
<!-- dir_aebb8dcc11953d78e620bbef0b9e2183&#45;&gt;dir_214608ef36d61442cb2b0c1c4e9a7def -->
<g id="edge27" class="edge">
<title>dir_aebb8dcc11953d78e620bbef0b9e2183&#45;&gt;dir_214608ef36d61442cb2b0c1c4e9a7def</title>
<path fill="none" stroke="#000000" d="M137.7259,-287.9358C146.1134,-267.7341 162.2967,-235.3214 186,-216 214.1664,-193.0406 252.8953,-179.4278 283.9443,-171.6135"/>
<polygon fill="#000000" stroke="#000000" points="284.819,-175.0031 293.7322,-169.2756 283.1927,-168.1946 284.819,-175.0031"/>
<g id="a_edge27&#45;headlabel"><a xlink:href="dir_000020_000000.xhtml" target="_top" xlink:title="604">
<text text-anchor="middle" x="281.9823" y="-176.0997" font-family="Helvetica,sans-Serif" font-size="10.00" fill="#000000">604</text>
</a>
</g>
</g>
<!-- dir_aebb8dcc11953d78e620bbef0b9e2183&#45;&gt;dir_5815af820a9cc9481f1d0990a0d60286 -->
<g id="edge28" class="edge">
<title>dir_aebb8dcc11953d78e620bbef0b9e2183&#45;&gt;dir_5815af820a9cc9481f1d0990a0d60286</title>
<path fill="none" stroke="#000000" d="M132.6096,-287.7637C137.3866,-244.4191 155.2664,-134.2151 217,-72 239.5011,-49.3234 273.2514,-35.2556 299.0686,-27.1868"/>
<polygon fill="#000000" stroke="#000000" points="300.2881,-30.4761 308.8855,-24.2846 298.3035,-23.7633 300.2881,-30.4761"/>
<g id="a_edge28&#45;headlabel"><a xlink:href="dir_000020_000032.xhtml" target="_top" xlink:title="56">
<text text-anchor="middle" x="297.6459" y="-31.7179" font-family="Helvetica,sans-Serif" font-size="10.00" fill="#000000">56</text>
</a>
</g>
</g>
<!-- dir_aebb8dcc11953d78e620bbef0b9e2183&#45;&gt;dir_fdedb0aba14d44ce9d99bc100e026e6a -->
<g id="edge29" class="edge">
<title>dir_aebb8dcc11953d78e620bbef0b9e2183&#45;&gt;dir_fdedb0aba14d44ce9d99bc100e026e6a</title>
<path fill="none" stroke="#000000" d="M152.4728,-287.7133C158.6994,-282.5421 165.5574,-276.9711 172,-272 177.9778,-267.3875 184.4377,-262.5995 190.7229,-258.0404"/>
<polygon fill="#000000" stroke="#000000" points="193.0456,-260.6812 199.1237,-252.0032 188.9606,-254.9968 193.0456,-260.6812"/>
<g id="a_edge29&#45;headlabel"><a xlink:href="dir_000020_000019.xhtml" target="_top" xlink:title="5">
<text text-anchor="middle" x="191.7835" y="-262.5846" font-family="Helvetica,sans-Serif" font-size="10.00" fill="#000000">5</text>
</a>
</g>
</g>
<!-- dir_bf9f26469d00835ba20ff8d80ee5a804&#45;&gt;dir_d31afe59158d6d6f352f20563e96492f -->
<g id="edge31" class="edge">
<title>dir_bf9f26469d00835ba20ff8d80ee5a804&#45;&gt;dir_d31afe59158d6d6f352f20563e96492f</title>
<path fill="none" stroke="#000000" d="M185.6814,-367.6842C212.0499,-356.6447 251.6606,-338.8818 280.5513,-325.2461"/>
<polygon fill="#000000" stroke="#000000" points="282.3776,-328.2532 289.9034,-320.7957 279.3697,-321.9323 282.3776,-328.2532"/>
<g id="a_edge31&#45;headlabel"><a xlink:href="dir_000036_000489.xhtml" target="_top" xlink:title="13">
<text text-anchor="middle" x="280.3518" y="-329.8615" font-family="Helvetica,sans-Serif" font-size="10.00" fill="#000000">13</text>
</a>
</g>
</g>
<!-- dir_bf9f26469d00835ba20ff8d80ee5a804&#45;&gt;dir_9f6e96fe293420b74afaf1a4dc4f9f82 -->
<g id="edge33" class="edge">
<title>dir_bf9f26469d00835ba20ff8d80ee5a804&#45;&gt;dir_9f6e96fe293420b74afaf1a4dc4f9f82</title>
<path fill="none" stroke="#000000" d="M179.9974,-396.1495C202.6846,-413.594 239.892,-438.7711 277,-449 301.4225,-455.7321 311.5133,-460.6674 334,-449 351.6205,-439.8575 364.3425,-421.3368 372.5435,-405.5037"/>
<polygon fill="#000000" stroke="#000000" points="375.886,-406.6292 377.0689,-396.1006 369.5785,-403.5935 375.886,-406.6292"/>
<g id="a_edge33&#45;headlabel"><a xlink:href="dir_000036_000066.xhtml" target="_top" xlink:title="39">
<text text-anchor="middle" x="376.8856" y="-408.5995" font-family="Helvetica,sans-Serif" font-size="10.00" fill="#000000">39</text>
</a>
</g>
</g>
<!-- dir_bf9f26469d00835ba20ff8d80ee5a804&#45;&gt;dir_cbdb8362360e11eafe2fa3bc74cf0ffd -->
<g id="edge30" class="edge">
<title>dir_bf9f26469d00835ba20ff8d80ee5a804&#45;&gt;dir_cbdb8362360e11eafe2fa3bc74cf0ffd</title>
<path fill="none" stroke="#000000" d="M130.1783,-365.8416C113.4779,-356.9035 93.6555,-342.9988 84,-324 61.8833,-280.4815 75.0371,-255.2958 104,-216 139.2956,-168.1121 197.8498,-130.0812 235.6736,-108.7971"/>
<polygon fill="#000000" stroke="#000000" points="237.7526,-111.6473 244.8164,-103.7508 234.3701,-105.5188 237.7526,-111.6473"/>
<g id="a_edge30&#45;headlabel"><a xlink:href="dir_000036_000041.xhtml" target="_top" xlink:title="1">
<text text-anchor="middle" x="235.9775" y="-113.37" font-family="Helvetica,sans-Serif" font-size="10.00" fill="#000000">1</text>
</a>
</g>
</g>
<!-- dir_bf9f26469d00835ba20ff8d80ee5a804&#45;&gt;dir_214608ef36d61442cb2b0c1c4e9a7def -->
<g id="edge32" class="edge">
<title>dir_bf9f26469d00835ba20ff8d80ee5a804&#45;&gt;dir_214608ef36d61442cb2b0c1c4e9a7def</title>
<path fill="none" stroke="#000000" d="M130.323,-362.2271C116.996,-352.9794 102.3437,-339.9669 95,-324 85.3429,-303.0033 85.9688,-293.2735 95,-272 125.6664,-199.7633 222.5171,-174.9536 283.7023,-166.4399"/>
<polygon fill="#000000" stroke="#000000" points="284.4729,-169.8697 293.9434,-165.12 283.578,-162.9271 284.4729,-169.8697"/>
<g id="a_edge32&#45;headlabel"><a xlink:href="dir_000036_000000.xhtml" target="_top" xlink:title="926">
<text text-anchor="middle" x="281.2707" y="-170.6451" font-family="Helvetica,sans-Serif" font-size="10.00" fill="#000000">926</text>
</a>
</g>
</g>
<!-- dir_bf9f26469d00835ba20ff8d80ee5a804&#45;&gt;dir_aebb8dcc11953d78e620bbef0b9e2183 -->
<g id="edge34" class="edge">
<title>dir_bf9f26469d00835ba20ff8d80ee5a804&#45;&gt;dir_aebb8dcc11953d78e620bbef0b9e2183</title>
<path fill="none" stroke="#000000" d="M151.1868,-359.8314C148.2356,-351.9617 144.7142,-342.5712 141.445,-333.8533"/>
<polygon fill="#000000" stroke="#000000" points="144.6934,-332.5476 137.905,-324.4133 138.1391,-335.0055 144.6934,-332.5476"/>
<g id="a_edge34&#45;headlabel"><a xlink:href="dir_000036_000020.xhtml" target="_top" xlink:title="212">
<text text-anchor="middle" x="148.614" y="-332.4164" font-family="Helvetica,sans-Serif" font-size="10.00" fill="#000000">212</text>
</a>
</g>
</g>
<!-- dir_bf9f26469d00835ba20ff8d80ee5a804&#45;&gt;dir_5815af820a9cc9481f1d0990a0d60286 -->
<g id="edge35" class="edge">
<title>dir_bf9f26469d00835ba20ff8d80ee5a804&#45;&gt;dir_5815af820a9cc9481f1d0990a0d60286</title>
<path fill="none" stroke="#000000" d="M130.4785,-367.6862C85.2104,-348.7276 0,-303.774 0,-234 0,-234 0,-234 0,-162 0,-97.5839 211.2725,-44.7813 298.7558,-25.6782"/>
<polygon fill="#000000" stroke="#000000" points="299.7496,-29.0445 308.7883,-23.5171 298.2755,-22.2014 299.7496,-29.0445"/>
<g id="a_edge35&#45;headlabel"><a xlink:href="dir_000036_000032.xhtml" target="_top" xlink:title="8">
<text text-anchor="middle" x="296.8335" y="-30.077" font-family="Helvetica,sans-Serif" font-size="10.00" fill="#000000">8</text>
</a>
</g>
</g>
<!-- dir_bf9f26469d00835ba20ff8d80ee5a804&#45;&gt;dir_fdedb0aba14d44ce9d99bc100e026e6a -->
<g id="edge36" class="edge">
<title>dir_bf9f26469d00835ba20ff8d80ee5a804&#45;&gt;dir_fdedb0aba14d44ce9d99bc100e026e6a</title>
<path fill="none" stroke="#000000" d="M166.4856,-359.7623C178.0644,-334.8764 198.9062,-290.0822 212.3368,-261.2165"/>
<polygon fill="#000000" stroke="#000000" points="215.5381,-262.6328 216.5833,-252.0896 209.1914,-259.6798 215.5381,-262.6328"/>
<g id="a_edge36&#45;headlabel"><a xlink:href="dir_000036_000019.xhtml" target="_top" xlink:title="126">
<text text-anchor="middle" x="216.596" y="-264.5896" font-family="Helvetica,sans-Serif" font-size="10.00" fill="#000000">126</text>
</a>
</g>
</g>
<!-- dir_5815af820a9cc9481f1d0990a0d60286&#45;&gt;dir_214608ef36d61442cb2b0c1c4e9a7def -->
<g id="edge37" class="edge">
<title>dir_5815af820a9cc9481f1d0990a0d60286&#45;&gt;dir_214608ef36d61442cb2b0c1c4e9a7def</title>
<path fill="none" stroke="#000000" d="M340.6583,-36.0896C343.1269,-60.5727 343.4104,-104.5174 341.5089,-133.4713"/>
<polygon fill="#000000" stroke="#000000" points="337.9942,-133.5118 340.6732,-143.7623 344.9712,-134.0785 337.9942,-133.5118"/>
<g id="a_edge37&#45;headlabel"><a xlink:href="dir_000032_000000.xhtml" target="_top" xlink:title="6">
<text text-anchor="middle" x="335.4551" y="-127.1992" font-family="Helvetica,sans-Serif" font-size="10.00" fill="#000000">6</text>
</a>
</g>
</g>
<!-- dir_fdedb0aba14d44ce9d99bc100e026e6a&#45;&gt;dir_cbdb8362360e11eafe2fa3bc74cf0ffd -->
<g id="edge38" class="edge">
<title>dir_fdedb0aba14d44ce9d99bc100e026e6a&#45;&gt;dir_cbdb8362360e11eafe2fa3bc74cf0ffd</title>
<path fill="none" stroke="#000000" d="M230.047,-215.965C235.2381,-197.719 243.7133,-168.7504 252,-144 254.8433,-135.5079 258.1455,-126.3471 261.2374,-118.0252"/>
<polygon fill="#000000" stroke="#000000" points="264.6161,-118.984 264.8596,-108.3919 258.064,-116.5203 264.6161,-118.984"/>
<g id="a_edge38&#45;headlabel"><a xlink:href="dir_000019_000041.xhtml" target="_top" xlink:title="1">
<text text-anchor="middle" x="266.0087" y="-120.8478" font-family="Helvetica,sans-Serif" font-size="10.00" fill="#000000">1</text>
</a>
</g>
</g>
<!-- dir_fdedb0aba14d44ce9d99bc100e026e6a&#45;&gt;dir_214608ef36d61442cb2b0c1c4e9a7def -->
<g id="edge39" class="edge">
<title>dir_fdedb0aba14d44ce9d99bc100e026e6a&#45;&gt;dir_214608ef36d61442cb2b0c1c4e9a7def</title>
<path fill="none" stroke="#000000" d="M253.01,-215.8314C267.0761,-206.7074 284.294,-195.539 299.3933,-185.7449"/>
<polygon fill="#000000" stroke="#000000" points="301.514,-188.5412 307.999,-180.1628 297.7047,-182.6684 301.514,-188.5412"/>
<g id="a_edge39&#45;headlabel"><a xlink:href="dir_000019_000000.xhtml" target="_top" xlink:title="17">
<text text-anchor="middle" x="300.0434" y="-190.3793" font-family="Helvetica,sans-Serif" font-size="10.00" fill="#000000">17</text>
</a>
</g>
</g>
<!-- dir_fdedb0aba14d44ce9d99bc100e026e6a&#45;&gt;dir_5815af820a9cc9481f1d0990a0d60286 -->
<g id="edge40" class="edge">
<title>dir_fdedb0aba14d44ce9d99bc100e026e6a&#45;&gt;dir_5815af820a9cc9481f1d0990a0d60286</title>
<path fill="none" stroke="#000000" d="M220.9898,-215.979C214.9557,-184.1069 207.0953,-116.9241 236,-72 250.3217,-49.741 277.0932,-35.9821 299.334,-27.9271"/>
<polygon fill="#000000" stroke="#000000" points="300.4975,-31.2285 308.855,-24.7168 298.2609,-24.5954 300.4975,-31.2285"/>
<g id="a_edge40&#45;headlabel"><a xlink:href="dir_000019_000032.xhtml" target="_top" xlink:title="2">
<text text-anchor="middle" x="297.9984" y="-32.5674" font-family="Helvetica,sans-Serif" font-size="10.00" fill="#000000">2</text>
</a>
</g>
</g>
</g>
</svg>
