<?xml version="1.0" encoding="UTF-8" standalone="no"?>
<!DOCTYPE svg PUBLIC "-//W3C//DTD SVG 1.1//EN"
 "http://www.w3.org/Graphics/SVG/1.1/DTD/svg11.dtd">
<!-- Generated by graphviz version 2.40.1 (20161225.0304)
 -->
<!-- Title: Graphical Class Hierarchy Pages: 1 -->
<svg width="365pt" height="66pt"
 viewBox="0.00 0.00 365.00 66.00" xmlns="http://www.w3.org/2000/svg" xmlns:xlink="http://www.w3.org/1999/xlink">
<g id="graph0" class="graph" transform="scale(1 1) rotate(0) translate(4 62)">
<title>Graphical Class Hierarchy</title>
<polygon fill="#ffffff" stroke="transparent" points="-4,4 -4,-62 361,-62 361,4 -4,4"/>
<!-- Node0 -->
<g id="node1" class="node">
<title>Node0</title>
<g id="a_node1"><a xlink:href="classarm__compute_1_1graph_1_1_i_node_visitor.xhtml" target="_top" xlink:title="Node visitor interface. ">
<polygon fill="#ffffff" stroke="#000000" points="0,-19.5 0,-38.5 77,-38.5 77,-19.5 0,-19.5"/>
<text text-anchor="middle" x="38.5" y="-26.5" font-family="Helvetica,sans-Serif" font-size="10.00" fill="#000000">INodeVisitor</text>
</a>
</g>
</g>
<!-- Node1 -->
<g id="node2" class="node">
<title>Node1</title>
<g id="a_node2"><a xlink:href="classarm__compute_1_1graph_1_1_default_node_visitor.xhtml" target="_top" xlink:title="Default visitor implementation. ">
<polygon fill="#ffffff" stroke="#000000" points="113,-19.5 113,-38.5 223,-38.5 223,-19.5 113,-19.5"/>
<text text-anchor="middle" x="168" y="-26.5" font-family="Helvetica,sans-Serif" font-size="10.00" fill="#000000">DefaultNodeVisitor</text>
</a>
</g>
</g>
<!-- Node0&#45;&gt;Node1 -->
<g id="edge1" class="edge">
<title>Node0&#45;&gt;Node1</title>
<path fill="none" stroke="#191970" d="M87.252,-29C95.5353,-29 104.1911,-29 112.6298,-29"/>
<polygon fill="#191970" stroke="#191970" points="87.0037,-25.5001 77.0036,-29 87.0036,-32.5001 87.0037,-25.5001"/>
</g>
<!-- Node2 -->
<g id="node3" class="node">
<title>Node2</title>
<g id="a_node3"><a xlink:href="classarm__compute_1_1graph_1_1_data_layer_visitor.xhtml" target="_top" xlink:title="Graph printer visitor. ">
<polygon fill="#ffffff" stroke="#000000" points="259,-38.5 259,-57.5 357,-57.5 357,-38.5 259,-38.5"/>
<text text-anchor="middle" x="308" y="-45.5" font-family="Helvetica,sans-Serif" font-size="10.00" fill="#000000">DataLayerVisitor</text>
</a>
</g>
</g>
<!-- Node1&#45;&gt;Node2 -->
<g id="edge2" class="edge">
<title>Node1&#45;&gt;Node2</title>
<path fill="none" stroke="#191970" d="M233.3689,-37.8715C241.9827,-39.0405 250.6904,-40.2223 258.9672,-41.3455"/>
<polygon fill="#191970" stroke="#191970" points="233.7116,-34.386 223.3317,-36.5093 232.7702,-41.3224 233.7116,-34.386"/>
</g>
<!-- Node3 -->
<g id="node4" class="node">
<title>Node3</title>
<g id="a_node4"><a xlink:href="classarm__compute_1_1graph_1_1_dot_graph_visitor.xhtml" target="_top" xlink:title="Graph printer visitor. ">
<polygon fill="#ffffff" stroke="#000000" points="260.5,-.5 260.5,-19.5 355.5,-19.5 355.5,-.5 260.5,-.5"/>
<text text-anchor="middle" x="308" y="-7.5" font-family="Helvetica,sans-Serif" font-size="10.00" fill="#000000">DotGraphVisitor</text>
</a>
</g>
</g>
<!-- Node1&#45;&gt;Node3 -->
<g id="edge3" class="edge">
<title>Node1&#45;&gt;Node3</title>
<path fill="none" stroke="#191970" d="M233.4711,-20.1146C242.5185,-18.8868 251.6672,-17.6452 260.3093,-16.4723"/>
<polygon fill="#191970" stroke="#191970" points="232.7702,-16.6776 223.3317,-21.4907 233.7116,-23.614 232.7702,-16.6776"/>
</g>
</g>
</svg>
