<?xml version="1.0" encoding="UTF-8" standalone="no"?>
<!DOCTYPE svg PUBLIC "-//W3C//DTD SVG 1.1//EN"
 "http://www.w3.org/Graphics/SVG/1.1/DTD/svg11.dtd">
<!-- Generated by graphviz version 2.43.0 (0)
 -->
<!-- Title: CpuActivation Pages: 1 -->
<svg width="93pt" height="140pt"
 viewBox="0.00 0.00 93.00 140.00" xmlns="http://www.w3.org/2000/svg" xmlns:xlink="http://www.w3.org/1999/xlink">
<g id="graph0" class="graph" transform="scale(1 1) rotate(0) translate(4 136)">
<title>CpuActivation</title>
<polygon fill="white" stroke="transparent" points="-4,4 -4,-136 89,-136 89,4 -4,4"/>
<!-- Node1 -->
<g id="node1" class="node">
<title>Node1</title>
<g id="a_node1"><a xlink:title="Basic function to run kernels::CpuActivationKernel.">
<polygon fill="#bfbfbf" stroke="black" points="0,-0.5 0,-19.5 85,-19.5 85,-0.5 0,-0.5"/>
<text text-anchor="middle" x="42.5" y="-7.5" font-family="Helvetica,sans-Serif" font-size="10.00">CpuActivation</text>
</a>
</g>
</g>
<!-- Node2 -->
<g id="node2" class="node">
<title>Node2</title>
<g id="a_node2"><a xlink:href="classarm__compute_1_1experimental_1_1_i_n_e_operator.xhtml" target="_top" xlink:title="Basic interface for functions which have a single async CPU kernel.">
<polygon fill="white" stroke="black" points="2,-56.5 2,-75.5 83,-75.5 83,-56.5 2,-56.5"/>
<text text-anchor="middle" x="42.5" y="-63.5" font-family="Helvetica,sans-Serif" font-size="10.00">ICpuOperator</text>
</a>
</g>
</g>
<!-- Node2&#45;&gt;Node1 -->
<g id="edge1" class="edge">
<title>Node2&#45;&gt;Node1</title>
<path fill="none" stroke="midnightblue" d="M42.5,-45.8C42.5,-36.91 42.5,-26.78 42.5,-19.75"/>
<polygon fill="midnightblue" stroke="midnightblue" points="39,-46.08 42.5,-56.08 46,-46.08 39,-46.08"/>
</g>
<!-- Node3 -->
<g id="node3" class="node">
<title>Node3</title>
<g id="a_node3"><a xlink:href="classarm__compute_1_1experimental_1_1_i_operator.xhtml" target="_top" xlink:title="Base class for all async functions.">
<polygon fill="white" stroke="black" points="11.5,-112.5 11.5,-131.5 73.5,-131.5 73.5,-112.5 11.5,-112.5"/>
<text text-anchor="middle" x="42.5" y="-119.5" font-family="Helvetica,sans-Serif" font-size="10.00">IOperator</text>
</a>
</g>
</g>
<!-- Node3&#45;&gt;Node2 -->
<g id="edge2" class="edge">
<title>Node3&#45;&gt;Node2</title>
<path fill="none" stroke="midnightblue" d="M42.5,-101.8C42.5,-92.91 42.5,-82.78 42.5,-75.75"/>
<polygon fill="midnightblue" stroke="midnightblue" points="39,-102.08 42.5,-112.08 46,-102.08 39,-102.08"/>
</g>
</g>
</svg>
