<?xml version="1.0" encoding="UTF-8" standalone="no"?>
<!DOCTYPE svg PUBLIC "-//W3C//DTD SVG 1.1//EN"
 "http://www.w3.org/Graphics/SVG/1.1/DTD/svg11.dtd">
<!-- Generated by graphviz version 2.43.0 (0)
 -->
<!-- Title: CpuGemmLowpMatrixMultiplyCore Pages: 1 -->
<svg width="196pt" height="140pt"
 viewBox="0.00 0.00 196.00 140.00" xmlns="http://www.w3.org/2000/svg" xmlns:xlink="http://www.w3.org/1999/xlink">
<g id="graph0" class="graph" transform="scale(1 1) rotate(0) translate(4 136)">
<title>CpuGemmLowpMatrixMultiplyCore</title>
<polygon fill="white" stroke="transparent" points="-4,4 -4,-136 192,-136 192,4 -4,4"/>
<!-- Node1 -->
<g id="node1" class="node">
<title>Node1</title>
<g id="a_node1"><a xlink:title="Basic function to execute GEMMLowpMatrixMultiplyCore.">
<polygon fill="#bfbfbf" stroke="black" points="0,-0.5 0,-19.5 188,-19.5 188,-0.5 0,-0.5"/>
<text text-anchor="middle" x="94" y="-7.5" font-family="Helvetica,sans-Serif" font-size="10.00">CpuGemmLowpMatrixMultiplyCore</text>
</a>
</g>
</g>
<!-- Node2 -->
<g id="node2" class="node">
<title>Node2</title>
<g id="a_node2"><a xlink:href="classarm__compute_1_1experimental_1_1_i_n_e_operator.xhtml" target="_top" xlink:title="Basic interface for functions which have a single async CPU kernel.">
<polygon fill="white" stroke="black" points="53.5,-56.5 53.5,-75.5 134.5,-75.5 134.5,-56.5 53.5,-56.5"/>
<text text-anchor="middle" x="94" y="-63.5" font-family="Helvetica,sans-Serif" font-size="10.00">ICpuOperator</text>
</a>
</g>
</g>
<!-- Node2&#45;&gt;Node1 -->
<g id="edge1" class="edge">
<title>Node2&#45;&gt;Node1</title>
<path fill="none" stroke="midnightblue" d="M94,-45.8C94,-36.91 94,-26.78 94,-19.75"/>
<polygon fill="midnightblue" stroke="midnightblue" points="90.5,-46.08 94,-56.08 97.5,-46.08 90.5,-46.08"/>
</g>
<!-- Node3 -->
<g id="node3" class="node">
<title>Node3</title>
<g id="a_node3"><a xlink:href="classarm__compute_1_1experimental_1_1_i_operator.xhtml" target="_top" xlink:title="Base class for all async functions.">
<polygon fill="white" stroke="black" points="63,-112.5 63,-131.5 125,-131.5 125,-112.5 63,-112.5"/>
<text text-anchor="middle" x="94" y="-119.5" font-family="Helvetica,sans-Serif" font-size="10.00">IOperator</text>
</a>
</g>
</g>
<!-- Node3&#45;&gt;Node2 -->
<g id="edge2" class="edge">
<title>Node3&#45;&gt;Node2</title>
<path fill="none" stroke="midnightblue" d="M94,-101.8C94,-92.91 94,-82.78 94,-75.75"/>
<polygon fill="midnightblue" stroke="midnightblue" points="90.5,-102.08 94,-112.08 97.5,-102.08 90.5,-102.08"/>
</g>
</g>
</svg>
