<?xml version="1.0" encoding="UTF-8" standalone="no"?>
<!DOCTYPE svg PUBLIC "-//W3C//DTD SVG 1.1//EN"
 "http://www.w3.org/Graphics/SVG/1.1/DTD/svg11.dtd">
<!-- Generated by graphviz version 2.43.0 (0)
 -->
<!-- Title: src/core/NEON/kernels/batchnormalization/impl/NEON Pages: 1 -->
<svg width="171pt" height="223pt"
 viewBox="0.00 0.00 171.00 223.00" xmlns="http://www.w3.org/2000/svg" xmlns:xlink="http://www.w3.org/1999/xlink">
<g id="graph0" class="graph" transform="scale(1 1) rotate(0) translate(4 219)">
<title>src/core/NEON/kernels/batchnormalization/impl/NEON</title>
<polygon fill="white" stroke="transparent" points="-4,4 -4,-219 167,-219 167,4 -4,4"/>
<g id="clust1" class="cluster">
<title>clusterdir_cb95619f2cb225dbc45806f4593be807</title>
<g id="a_clust1"><a xlink:href="dir_cb95619f2cb225dbc45806f4593be807.xhtml" target="_top" xlink:title="impl">
<polygon fill="#ddddee" stroke="black" points="37,-136 37,-207 107,-207 107,-136 37,-136"/>
<text text-anchor="middle" x="72" y="-195" font-family="Helvetica,sans-Serif" font-size="10.00">impl</text>
</a>
</g>
</g>
<!-- dir_4e353c318ce11c6ca294f8188327497f -->
<g id="node1" class="node">
<title>dir_4e353c318ce11c6ca294f8188327497f</title>
<g id="a_node1"><a xlink:href="dir_4e353c318ce11c6ca294f8188327497f.xhtml" target="_top" xlink:title="NEON">
<polygon fill="#eeeeff" stroke="black" points="99,-180 45,-180 45,-144 99,-144 99,-180"/>
<text text-anchor="middle" x="72" y="-159.5" font-family="Helvetica,sans-Serif" font-size="10.00">NEON</text>
</a>
</g>
</g>
<!-- dir_8224aa485683c095eaa3fd7faa788467 -->
<g id="node2" class="node">
<title>dir_8224aa485683c095eaa3fd7faa788467</title>
<g id="a_node2"><a xlink:href="dir_8224aa485683c095eaa3fd7faa788467.xhtml" target="_top" xlink:title="wrapper">
<polygon fill="white" stroke="red" points="56,-36 0,-36 0,0 56,0 56,-36"/>
<text text-anchor="middle" x="28" y="-15.5" font-family="Helvetica,sans-Serif" font-size="10.00">wrapper</text>
</a>
</g>
</g>
<!-- dir_4e353c318ce11c6ca294f8188327497f&#45;&gt;dir_8224aa485683c095eaa3fd7faa788467 -->
<g id="edge3" class="edge">
<title>dir_4e353c318ce11c6ca294f8188327497f&#45;&gt;dir_8224aa485683c095eaa3fd7faa788467</title>
<path fill="none" stroke="black" d="M56.86,-143.62C49.23,-133.83 40.64,-120.99 36,-108 28.92,-88.19 27.1,-64.39 26.95,-46.39"/>
<polygon fill="black" stroke="black" points="30.45,-46.3 27.03,-36.27 23.45,-46.25 30.45,-46.3"/>
<g id="a_edge3&#45;headlabel"><a xlink:href="dir_000410_000030.xhtml" target="_top" xlink:title="2">
<text text-anchor="middle" x="33.26" y="-47.42" font-family="Helvetica,sans-Serif" font-size="10.00">2</text>
</a>
</g>
</g>
<!-- dir_47c52b626b579a630a004d74c906e8a5 -->
<g id="node3" class="node">
<title>dir_47c52b626b579a630a004d74c906e8a5</title>
<g id="a_node3"><a xlink:href="dir_47c52b626b579a630a004d74c906e8a5.xhtml" target="_top" xlink:title="detail">
<polygon fill="none" stroke="black" points="99,-108 45,-108 45,-72 99,-72 99,-108"/>
<text text-anchor="middle" x="72" y="-87.5" font-family="Helvetica,sans-Serif" font-size="10.00">detail</text>
</a>
</g>
</g>
<!-- dir_4e353c318ce11c6ca294f8188327497f&#45;&gt;dir_47c52b626b579a630a004d74c906e8a5 -->
<g id="edge4" class="edge">
<title>dir_4e353c318ce11c6ca294f8188327497f&#45;&gt;dir_47c52b626b579a630a004d74c906e8a5</title>
<path fill="none" stroke="black" d="M72,-143.7C72,-135.98 72,-126.71 72,-118.11"/>
<polygon fill="black" stroke="black" points="75.5,-118.1 72,-108.1 68.5,-118.1 75.5,-118.1"/>
<g id="a_edge4&#45;headlabel"><a xlink:href="dir_000410_000464.xhtml" target="_top" xlink:title="2">
<text text-anchor="middle" x="78.34" y="-119.2" font-family="Helvetica,sans-Serif" font-size="10.00">2</text>
</a>
</g>
</g>
<!-- dir_214608ef36d61442cb2b0c1c4e9a7def -->
<g id="node4" class="node">
<title>dir_214608ef36d61442cb2b0c1c4e9a7def</title>
<g id="a_node4"><a xlink:href="dir_214608ef36d61442cb2b0c1c4e9a7def.xhtml" target="_top" xlink:title="arm_compute">
<polygon fill="white" stroke="red" points="163,-36 79,-36 79,0 163,0 163,-36"/>
<text text-anchor="middle" x="121" y="-15.5" font-family="Helvetica,sans-Serif" font-size="10.00">arm_compute</text>
</a>
</g>
</g>
<!-- dir_4e353c318ce11c6ca294f8188327497f&#45;&gt;dir_214608ef36d61442cb2b0c1c4e9a7def -->
<g id="edge5" class="edge">
<title>dir_4e353c318ce11c6ca294f8188327497f&#45;&gt;dir_214608ef36d61442cb2b0c1c4e9a7def</title>
<path fill="none" stroke="black" d="M86.49,-143.98C94.12,-134.11 102.92,-121.06 108,-108 115.67,-88.26 118.87,-64.46 120.17,-46.44"/>
<polygon fill="black" stroke="black" points="123.67,-46.49 120.75,-36.31 116.68,-46.09 123.67,-46.49"/>
<g id="a_edge5&#45;headlabel"><a xlink:href="dir_000410_000000.xhtml" target="_top" xlink:title="6">
<text text-anchor="middle" x="126.3" y="-47.75" font-family="Helvetica,sans-Serif" font-size="10.00">6</text>
</a>
</g>
</g>
<!-- dir_47c52b626b579a630a004d74c906e8a5&#45;&gt;dir_8224aa485683c095eaa3fd7faa788467 -->
<g id="edge1" class="edge">
<title>dir_47c52b626b579a630a004d74c906e8a5&#45;&gt;dir_8224aa485683c095eaa3fd7faa788467</title>
<path fill="none" stroke="black" d="M61.12,-71.7C56.01,-63.56 49.8,-53.69 44.16,-44.7"/>
<polygon fill="black" stroke="black" points="47.04,-42.71 38.75,-36.1 41.11,-46.43 47.04,-42.71"/>
<g id="a_edge1&#45;headlabel"><a xlink:href="dir_000464_000030.xhtml" target="_top" xlink:title="2">
<text text-anchor="middle" x="51.35" y="-41.74" font-family="Helvetica,sans-Serif" font-size="10.00">2</text>
</a>
</g>
</g>
<!-- dir_47c52b626b579a630a004d74c906e8a5&#45;&gt;dir_214608ef36d61442cb2b0c1c4e9a7def -->
<g id="edge2" class="edge">
<title>dir_47c52b626b579a630a004d74c906e8a5&#45;&gt;dir_214608ef36d61442cb2b0c1c4e9a7def</title>
<path fill="none" stroke="black" d="M84.11,-71.7C89.87,-63.47 96.86,-53.48 103.21,-44.42"/>
<polygon fill="black" stroke="black" points="106.16,-46.3 109.03,-36.1 100.42,-42.29 106.16,-46.3"/>
<g id="a_edge2&#45;headlabel"><a xlink:href="dir_000464_000000.xhtml" target="_top" xlink:title="4">
<text text-anchor="middle" x="106.42" y="-48.38" font-family="Helvetica,sans-Serif" font-size="10.00">4</text>
</a>
</g>
</g>
</g>
</svg>
