<?xml version="1.0" encoding="UTF-8" standalone="no"?>
<!DOCTYPE svg PUBLIC "-//W3C//DTD SVG 1.1//EN"
 "http://www.w3.org/Graphics/SVG/1.1/DTD/svg11.dtd">
<!-- Generated by graphviz version 2.43.0 (0)
 -->
<!-- Title: src/core/NEON Pages: 1 -->
<svg width="497pt" height="375pt"
 viewBox="0.00 0.00 496.88 375.00" xmlns="http://www.w3.org/2000/svg" xmlns:xlink="http://www.w3.org/1999/xlink">
<g id="graph0" class="graph" transform="scale(1 1) rotate(0) translate(4 371)">
<title>src/core/NEON</title>
<polygon fill="white" stroke="transparent" points="-4,4 -4,-371 492.88,-371 492.88,4 -4,4"/>
<g id="clust1" class="cluster">
<title>clusterdir_aebb8dcc11953d78e620bbef0b9e2183</title>
<g id="a_clust1"><a xlink:href="dir_aebb8dcc11953d78e620bbef0b9e2183.xhtml" target="_top" xlink:title="core">
<polygon fill="#ddddee" stroke="black" points="322.88,-200 322.88,-359 480.88,-359 480.88,-200 322.88,-200"/>
<text text-anchor="middle" x="401.88" y="-347" font-family="Helvetica,sans-Serif" font-size="10.00">core</text>
</a>
</g>
</g>
<g id="clust2" class="cluster">
<title>clusterdir_d91e1966cc57df4f49d1e07be7697713</title>
<g id="a_clust2"><a xlink:href="dir_d91e1966cc57df4f49d1e07be7697713.xhtml" target="_top">
<polygon fill="#eeeeff" stroke="black" points="330.88,-208 330.88,-332 472.88,-332 472.88,-208 330.88,-208"/>
</a>
</g>
</g>
<!-- dir_d91e1966cc57df4f49d1e07be7697713 -->
<g id="node1" class="node">
<title>dir_d91e1966cc57df4f49d1e07be7697713</title>
<text text-anchor="middle" x="437.88" y="-303.5" font-family="Helvetica,sans-Serif" font-size="10.00">NEON</text>
</g>
<!-- dir_1ce938f580a6f304b99685e2c1dd19db -->
<g id="node2" class="node">
<title>dir_1ce938f580a6f304b99685e2c1dd19db</title>
<g id="a_node2"><a xlink:href="dir_1ce938f580a6f304b99685e2c1dd19db.xhtml" target="_top" xlink:title="kernels">
<polygon fill="white" stroke="red" points="392.88,-324 338.88,-324 338.88,-288 392.88,-288 392.88,-324"/>
<text text-anchor="middle" x="365.88" y="-303.5" font-family="Helvetica,sans-Serif" font-size="10.00">kernels</text>
</a>
</g>
</g>
<!-- dir_8224aa485683c095eaa3fd7faa788467 -->
<g id="node3" class="node">
<title>dir_8224aa485683c095eaa3fd7faa788467</title>
<g id="a_node3"><a xlink:href="dir_8224aa485683c095eaa3fd7faa788467.xhtml" target="_top" xlink:title="wrapper">
<polygon fill="white" stroke="red" points="394.88,-252 338.88,-252 338.88,-216 394.88,-216 394.88,-252"/>
<text text-anchor="middle" x="366.88" y="-231.5" font-family="Helvetica,sans-Serif" font-size="10.00">wrapper</text>
</a>
</g>
</g>
<!-- dir_1ce938f580a6f304b99685e2c1dd19db&#45;&gt;dir_8224aa485683c095eaa3fd7faa788467 -->
<g id="edge21" class="edge">
<title>dir_1ce938f580a6f304b99685e2c1dd19db&#45;&gt;dir_8224aa485683c095eaa3fd7faa788467</title>
<path fill="none" stroke="black" d="M366.13,-287.7C366.24,-279.98 366.37,-270.71 366.49,-262.11"/>
<polygon fill="black" stroke="black" points="369.99,-262.15 366.63,-252.1 362.99,-262.05 369.99,-262.15"/>
<g id="a_edge21&#45;headlabel"><a xlink:href="dir_000102_000030.xhtml" target="_top" xlink:title="22">
<text text-anchor="middle" x="372.78" y="-263.29" font-family="Helvetica,sans-Serif" font-size="10.00">22</text>
</a>
</g>
</g>
<!-- dir_34b4cee2b5900b653deb3438fc906cf4 -->
<g id="node4" class="node">
<title>dir_34b4cee2b5900b653deb3438fc906cf4</title>
<g id="a_node4"><a xlink:href="dir_34b4cee2b5900b653deb3438fc906cf4.xhtml" target="_top" xlink:title="common">
<polygon fill="none" stroke="black" points="314.38,-252 255.38,-252 255.38,-216 314.38,-216 314.38,-252"/>
<text text-anchor="middle" x="284.88" y="-231.5" font-family="Helvetica,sans-Serif" font-size="10.00">common</text>
</a>
</g>
</g>
<!-- dir_1ce938f580a6f304b99685e2c1dd19db&#45;&gt;dir_34b4cee2b5900b653deb3438fc906cf4 -->
<g id="edge20" class="edge">
<title>dir_1ce938f580a6f304b99685e2c1dd19db&#45;&gt;dir_34b4cee2b5900b653deb3438fc906cf4</title>
<path fill="none" stroke="black" d="M345.86,-287.7C335.75,-278.97 323.34,-268.24 312.36,-258.75"/>
<polygon fill="black" stroke="black" points="314.53,-255.99 304.67,-252.1 309.95,-261.29 314.53,-255.99"/>
<g id="a_edge20&#45;headlabel"><a xlink:href="dir_000102_000045.xhtml" target="_top" xlink:title="10">
<text text-anchor="middle" x="319.1" y="-253.7" font-family="Helvetica,sans-Serif" font-size="10.00">10</text>
</a>
</g>
</g>
<!-- dir_707aa52d67938117542c6646238d6f70 -->
<g id="node5" class="node">
<title>dir_707aa52d67938117542c6646238d6f70</title>
<g id="a_node5"><a xlink:href="dir_707aa52d67938117542c6646238d6f70.xhtml" target="_top" xlink:title="helpers">
<polygon fill="none" stroke="black" points="258.88,-180 204.88,-180 204.88,-144 258.88,-144 258.88,-180"/>
<text text-anchor="middle" x="231.88" y="-159.5" font-family="Helvetica,sans-Serif" font-size="10.00">helpers</text>
</a>
</g>
</g>
<!-- dir_1ce938f580a6f304b99685e2c1dd19db&#45;&gt;dir_707aa52d67938117542c6646238d6f70 -->
<g id="edge22" class="edge">
<title>dir_1ce938f580a6f304b99685e2c1dd19db&#45;&gt;dir_707aa52d67938117542c6646238d6f70</title>
<path fill="none" stroke="black" d="M392.95,-292.72C408.9,-283.88 427.71,-270.29 436.88,-252 447.24,-231.34 451.7,-217.73 436.88,-200 415.9,-174.89 322.17,-166.79 269.01,-164.2"/>
<polygon fill="black" stroke="black" points="269.09,-160.7 258.95,-163.75 268.78,-167.7 269.09,-160.7"/>
<g id="a_edge22&#45;headlabel"><a xlink:href="dir_000102_000034.xhtml" target="_top" xlink:title="72">
<text text-anchor="middle" x="272.81" y="-155.53" font-family="Helvetica,sans-Serif" font-size="10.00">72</text>
</a>
</g>
</g>
<!-- dir_2c61f424fd391396db977702a2beee9a -->
<g id="node6" class="node">
<title>dir_2c61f424fd391396db977702a2beee9a</title>
<g id="a_node6"><a xlink:href="dir_2c61f424fd391396db977702a2beee9a.xhtml" target="_top" xlink:title="cpu">
<polygon fill="white" stroke="red" points="170.88,-324 116.88,-324 116.88,-288 170.88,-288 170.88,-324"/>
<text text-anchor="middle" x="143.88" y="-303.5" font-family="Helvetica,sans-Serif" font-size="10.00">cpu</text>
</a>
</g>
</g>
<!-- dir_1ce938f580a6f304b99685e2c1dd19db&#45;&gt;dir_2c61f424fd391396db977702a2beee9a -->
<g id="edge23" class="edge">
<title>dir_1ce938f580a6f304b99685e2c1dd19db&#45;&gt;dir_2c61f424fd391396db977702a2beee9a</title>
<path fill="none" stroke="black" d="M338.5,-306C286.11,-306 233.72,-306 181.33,-306"/>
<polygon fill="black" stroke="black" points="181.2,-302.5 171.2,-306 181.2,-309.5 181.2,-302.5"/>
<g id="a_edge23&#45;headlabel"><a xlink:href="dir_000102_000374.xhtml" target="_top" xlink:title="82">
<text text-anchor="middle" x="184.79" y="-297.16" font-family="Helvetica,sans-Serif" font-size="10.00">82</text>
</a>
</g>
</g>
<!-- dir_214608ef36d61442cb2b0c1c4e9a7def -->
<g id="node7" class="node">
<title>dir_214608ef36d61442cb2b0c1c4e9a7def</title>
<g id="a_node7"><a xlink:href="dir_214608ef36d61442cb2b0c1c4e9a7def.xhtml" target="_top" xlink:title="arm_compute">
<polygon fill="white" stroke="red" points="189.88,-108 105.88,-108 105.88,-72 189.88,-72 189.88,-108"/>
<text text-anchor="middle" x="147.88" y="-87.5" font-family="Helvetica,sans-Serif" font-size="10.00">arm_compute</text>
</a>
</g>
</g>
<!-- dir_1ce938f580a6f304b99685e2c1dd19db&#45;&gt;dir_214608ef36d61442cb2b0c1c4e9a7def -->
<g id="edge24" class="edge">
<title>dir_1ce938f580a6f304b99685e2c1dd19db&#45;&gt;dir_214608ef36d61442cb2b0c1c4e9a7def</title>
<path fill="none" stroke="black" d="M393.01,-290.62C417.87,-277.15 451.35,-258.21 454.88,-252 466.3,-231.91 468.21,-218.88 454.88,-200 396.89,-117.87 271.41,-97.24 200.13,-92.31"/>
<polygon fill="black" stroke="black" points="200.22,-88.81 190.02,-91.69 199.79,-95.79 200.22,-88.81"/>
<g id="a_edge24&#45;headlabel"><a xlink:href="dir_000102_000000.xhtml" target="_top" xlink:title="230">
<text text-anchor="middle" x="203.98" y="-83.69" font-family="Helvetica,sans-Serif" font-size="10.00">230</text>
</a>
</g>
</g>
<!-- dir_a8053b3d69cfefb2b2e6ec7bf9dd5c1a -->
<g id="node8" class="node">
<title>dir_a8053b3d69cfefb2b2e6ec7bf9dd5c1a</title>
<g id="a_node8"><a xlink:href="dir_a8053b3d69cfefb2b2e6ec7bf9dd5c1a.xhtml" target="_top" xlink:title="utils">
<polygon fill="white" stroke="red" points="88.88,-252 34.88,-252 34.88,-216 88.88,-216 88.88,-252"/>
<text text-anchor="middle" x="61.88" y="-231.5" font-family="Helvetica,sans-Serif" font-size="10.00">utils</text>
</a>
</g>
</g>
<!-- dir_1ce938f580a6f304b99685e2c1dd19db&#45;&gt;dir_a8053b3d69cfefb2b2e6ec7bf9dd5c1a -->
<g id="edge25" class="edge">
<title>dir_1ce938f580a6f304b99685e2c1dd19db&#45;&gt;dir_a8053b3d69cfefb2b2e6ec7bf9dd5c1a</title>
<path fill="none" stroke="black" d="M338.63,-298.73C283.97,-286.14 160.85,-257.79 98.92,-243.53"/>
<polygon fill="black" stroke="black" points="99.7,-240.12 89.17,-241.28 98.13,-246.94 99.7,-240.12"/>
<g id="a_edge25&#45;headlabel"><a xlink:href="dir_000102_000050.xhtml" target="_top" xlink:title="2">
<text text-anchor="middle" x="103.84" y="-235.66" font-family="Helvetica,sans-Serif" font-size="10.00">2</text>
</a>
</g>
</g>
<!-- dir_1d7cadfed01c895b25460177608d44e9 -->
<g id="node9" class="node">
<title>dir_1d7cadfed01c895b25460177608d44e9</title>
<g id="a_node9"><a xlink:href="dir_1d7cadfed01c895b25460177608d44e9.xhtml" target="_top" xlink:title="CPP">
<polygon fill="white" stroke="red" points="198.88,-252 144.88,-252 144.88,-216 198.88,-216 198.88,-252"/>
<text text-anchor="middle" x="171.88" y="-231.5" font-family="Helvetica,sans-Serif" font-size="10.00">CPP</text>
</a>
</g>
</g>
<!-- dir_1ce938f580a6f304b99685e2c1dd19db&#45;&gt;dir_1d7cadfed01c895b25460177608d44e9 -->
<g id="edge26" class="edge">
<title>dir_1ce938f580a6f304b99685e2c1dd19db&#45;&gt;dir_1d7cadfed01c895b25460177608d44e9</title>
<path fill="none" stroke="black" d="M338.49,-295.12C304.55,-282.87 246.58,-261.95 208.75,-248.3"/>
<polygon fill="black" stroke="black" points="209.72,-244.93 199.12,-244.83 207.34,-251.52 209.72,-244.93"/>
<g id="a_edge26&#45;headlabel"><a xlink:href="dir_000102_000052.xhtml" target="_top" xlink:title="15">
<text text-anchor="middle" x="214.06" y="-240.98" font-family="Helvetica,sans-Serif" font-size="10.00">15</text>
</a>
</g>
</g>
<!-- dir_5815af820a9cc9481f1d0990a0d60286 -->
<g id="node10" class="node">
<title>dir_5815af820a9cc9481f1d0990a0d60286</title>
<g id="a_node10"><a xlink:href="dir_5815af820a9cc9481f1d0990a0d60286.xhtml" target="_top" xlink:title="support">
<polygon fill="none" stroke="black" points="139.88,-36 85.88,-36 85.88,0 139.88,0 139.88,-36"/>
<text text-anchor="middle" x="112.88" y="-15.5" font-family="Helvetica,sans-Serif" font-size="10.00">support</text>
</a>
</g>
</g>
<!-- dir_1ce938f580a6f304b99685e2c1dd19db&#45;&gt;dir_5815af820a9cc9481f1d0990a0d60286 -->
<g id="edge27" class="edge">
<title>dir_1ce938f580a6f304b99685e2c1dd19db&#45;&gt;dir_5815af820a9cc9481f1d0990a0d60286</title>
<path fill="none" stroke="black" d="M393.05,-291.97C424.36,-276.9 471.71,-253.88 472.88,-252 500.21,-207.96 470.43,-174.98 428.88,-144 340.4,-78.02 212.47,-41.72 150.01,-26.95"/>
<polygon fill="black" stroke="black" points="150.74,-23.53 140.21,-24.69 149.16,-30.35 150.74,-23.53"/>
<g id="a_edge27&#45;headlabel"><a xlink:href="dir_000102_000032.xhtml" target="_top" xlink:title="5">
<text text-anchor="middle" x="154.88" y="-19.07" font-family="Helvetica,sans-Serif" font-size="10.00">5</text>
</a>
</g>
</g>
<!-- dir_fdedb0aba14d44ce9d99bc100e026e6a -->
<g id="node11" class="node">
<title>dir_fdedb0aba14d44ce9d99bc100e026e6a</title>
<g id="a_node11"><a xlink:href="dir_fdedb0aba14d44ce9d99bc100e026e6a.xhtml" target="_top" xlink:title="common">
<polygon fill="white" stroke="red" points="148.38,-180 89.38,-180 89.38,-144 148.38,-144 148.38,-180"/>
<text text-anchor="middle" x="118.88" y="-159.5" font-family="Helvetica,sans-Serif" font-size="10.00">common</text>
</a>
</g>
</g>
<!-- dir_1ce938f580a6f304b99685e2c1dd19db&#45;&gt;dir_fdedb0aba14d44ce9d99bc100e026e6a -->
<g id="edge28" class="edge">
<title>dir_1ce938f580a6f304b99685e2c1dd19db&#45;&gt;dir_fdedb0aba14d44ce9d99bc100e026e6a</title>
<path fill="none" stroke="black" d="M381.74,-287.66C400.56,-264.96 426.69,-225.11 403.88,-200 388.27,-182.81 218.81,-183.62 195.88,-180 183.75,-178.08 170.66,-175.42 158.78,-172.78"/>
<polygon fill="black" stroke="black" points="159.23,-169.29 148.7,-170.47 157.67,-176.11 159.23,-169.29"/>
<g id="a_edge28&#45;headlabel"><a xlink:href="dir_000102_000019.xhtml" target="_top" xlink:title="2">
<text text-anchor="middle" x="163.37" y="-164.82" font-family="Helvetica,sans-Serif" font-size="10.00">2</text>
</a>
</g>
</g>
<!-- dir_707aa52d67938117542c6646238d6f70&#45;&gt;dir_d91e1966cc57df4f49d1e07be7697713 -->
<g id="edge2" class="edge">
<title>dir_707aa52d67938117542c6646238d6f70&#45;&gt;dir_d91e1966cc57df4f49d1e07be7697713</title>
<path fill="none" stroke="black" d="M259.2,-163.32C313.1,-164.59 430.07,-170.74 454.88,-200 473.35,-221.79 463.29,-255.58 452.44,-278.92"/>
<polygon fill="black" stroke="black" points="449.29,-277.4 447.98,-287.91 455.56,-280.51 449.29,-277.4"/>
<g id="a_edge2&#45;headlabel"><a xlink:href="dir_000034_000029.xhtml" target="_top" xlink:title="1">
<text text-anchor="middle" x="448.34" y="-270.41" font-family="Helvetica,sans-Serif" font-size="10.00">1</text>
</a>
</g>
</g>
<!-- dir_707aa52d67938117542c6646238d6f70&#45;&gt;dir_214608ef36d61442cb2b0c1c4e9a7def -->
<g id="edge1" class="edge">
<title>dir_707aa52d67938117542c6646238d6f70&#45;&gt;dir_214608ef36d61442cb2b0c1c4e9a7def</title>
<path fill="none" stroke="black" d="M211.11,-143.7C200.64,-134.97 187.77,-124.24 176.38,-114.75"/>
<polygon fill="black" stroke="black" points="178.33,-111.82 168.4,-108.1 173.85,-117.19 178.33,-111.82"/>
<g id="a_edge1&#45;headlabel"><a xlink:href="dir_000034_000000.xhtml" target="_top" xlink:title="16">
<text text-anchor="middle" x="182.91" y="-109.44" font-family="Helvetica,sans-Serif" font-size="10.00">16</text>
</a>
</g>
</g>
<!-- dir_2c61f424fd391396db977702a2beee9a&#45;&gt;dir_1ce938f580a6f304b99685e2c1dd19db -->
<g id="edge9" class="edge">
<title>dir_2c61f424fd391396db977702a2beee9a&#45;&gt;dir_1ce938f580a6f304b99685e2c1dd19db</title>
<path fill="none" stroke="black" d="M171.2,-306C223.59,-306 275.98,-306 328.37,-306"/>
<polygon fill="black" stroke="black" points="328.5,-309.5 338.5,-306 328.5,-302.5 328.5,-309.5"/>
<g id="a_edge9&#45;headlabel"><a xlink:href="dir_000374_000102.xhtml" target="_top" xlink:title="5">
<text text-anchor="middle" x="324.91" y="-309.84" font-family="Helvetica,sans-Serif" font-size="10.00">5</text>
</a>
</g>
</g>
<!-- dir_2c61f424fd391396db977702a2beee9a&#45;&gt;dir_8224aa485683c095eaa3fd7faa788467 -->
<g id="edge4" class="edge">
<title>dir_2c61f424fd391396db977702a2beee9a&#45;&gt;dir_8224aa485683c095eaa3fd7faa788467</title>
<path fill="none" stroke="black" d="M170.95,-297.85C206.39,-288.3 270.28,-270.44 323.88,-252 325.7,-251.37 327.56,-250.71 329.43,-250.04"/>
<polygon fill="black" stroke="black" points="330.66,-253.31 338.8,-246.52 328.2,-246.76 330.66,-253.31"/>
<g id="a_edge4&#45;headlabel"><a xlink:href="dir_000374_000030.xhtml" target="_top" xlink:title="70">
<text text-anchor="middle" x="328.29" y="-254.73" font-family="Helvetica,sans-Serif" font-size="10.00">70</text>
</a>
</g>
</g>
<!-- dir_2c61f424fd391396db977702a2beee9a&#45;&gt;dir_34b4cee2b5900b653deb3438fc906cf4 -->
<g id="edge3" class="edge">
<title>dir_2c61f424fd391396db977702a2beee9a&#45;&gt;dir_34b4cee2b5900b653deb3438fc906cf4</title>
<path fill="none" stroke="black" d="M171.07,-291.5C192.4,-280.91 222.38,-266.03 246.21,-254.2"/>
<polygon fill="black" stroke="black" points="247.94,-257.25 255.34,-249.66 244.83,-250.98 247.94,-257.25"/>
<g id="a_edge3&#45;headlabel"><a xlink:href="dir_000374_000045.xhtml" target="_top" xlink:title="80">
<text text-anchor="middle" x="245.98" y="-258.89" font-family="Helvetica,sans-Serif" font-size="10.00">80</text>
</a>
</g>
</g>
<!-- dir_2c61f424fd391396db977702a2beee9a&#45;&gt;dir_707aa52d67938117542c6646238d6f70 -->
<g id="edge5" class="edge">
<title>dir_2c61f424fd391396db977702a2beee9a&#45;&gt;dir_707aa52d67938117542c6646238d6f70</title>
<path fill="none" stroke="black" d="M170.95,-288.35C183.87,-279.12 198.52,-266.56 207.88,-252 219.87,-233.34 225.91,-208.81 228.93,-190.22"/>
<polygon fill="black" stroke="black" points="232.4,-190.72 230.35,-180.32 225.47,-189.72 232.4,-190.72"/>
<g id="a_edge5&#45;headlabel"><a xlink:href="dir_000374_000034.xhtml" target="_top" xlink:title="138">
<text text-anchor="middle" x="234.7" y="-192.18" font-family="Helvetica,sans-Serif" font-size="10.00">138</text>
</a>
</g>
</g>
<!-- dir_2c61f424fd391396db977702a2beee9a&#45;&gt;dir_214608ef36d61442cb2b0c1c4e9a7def -->
<g id="edge6" class="edge">
<title>dir_2c61f424fd391396db977702a2beee9a&#45;&gt;dir_214608ef36d61442cb2b0c1c4e9a7def</title>
<path fill="none" stroke="black" d="M116.87,-301.37C88.69,-295.98 45.89,-282.92 25.88,-252 13.32,-232.6 19.23,-222.13 25.88,-200 34.46,-171.43 41.51,-164.81 62.88,-144 75.05,-132.14 90.32,-121.62 104.54,-113.13"/>
<polygon fill="black" stroke="black" points="106.31,-116.15 113.22,-108.12 102.81,-110.09 106.31,-116.15"/>
<g id="a_edge6&#45;headlabel"><a xlink:href="dir_000374_000000.xhtml" target="_top" xlink:title="676">
<text text-anchor="middle" x="104.62" y="-117.9" font-family="Helvetica,sans-Serif" font-size="10.00">676</text>
</a>
</g>
</g>
<!-- dir_2c61f424fd391396db977702a2beee9a&#45;&gt;dir_a8053b3d69cfefb2b2e6ec7bf9dd5c1a -->
<g id="edge7" class="edge">
<title>dir_2c61f424fd391396db977702a2beee9a&#45;&gt;dir_a8053b3d69cfefb2b2e6ec7bf9dd5c1a</title>
<path fill="none" stroke="black" d="M117.69,-287.7C106.67,-279.05 94.08,-268.45 83.58,-259.03"/>
<polygon fill="black" stroke="black" points="85.76,-256.28 76.02,-252.1 81.03,-261.44 85.76,-256.28"/>
<g id="a_edge7&#45;headlabel"><a xlink:href="dir_000374_000050.xhtml" target="_top" xlink:title="14">
<text text-anchor="middle" x="90.33" y="-254.11" font-family="Helvetica,sans-Serif" font-size="10.00">14</text>
</a>
</g>
</g>
<!-- dir_2c61f424fd391396db977702a2beee9a&#45;&gt;dir_1d7cadfed01c895b25460177608d44e9 -->
<g id="edge8" class="edge">
<title>dir_2c61f424fd391396db977702a2beee9a&#45;&gt;dir_1d7cadfed01c895b25460177608d44e9</title>
<path fill="none" stroke="black" d="M150.8,-287.7C153.95,-279.81 157.76,-270.3 161.26,-261.55"/>
<polygon fill="black" stroke="black" points="164.57,-262.69 165.04,-252.1 158.07,-260.09 164.57,-262.69"/>
<g id="a_edge8&#45;headlabel"><a xlink:href="dir_000374_000052.xhtml" target="_top" xlink:title="31">
<text text-anchor="middle" x="165.87" y="-264.58" font-family="Helvetica,sans-Serif" font-size="10.00">31</text>
</a>
</g>
</g>
<!-- dir_2c61f424fd391396db977702a2beee9a&#45;&gt;dir_5815af820a9cc9481f1d0990a0d60286 -->
<g id="edge10" class="edge">
<title>dir_2c61f424fd391396db977702a2beee9a&#45;&gt;dir_5815af820a9cc9481f1d0990a0d60286</title>
<path fill="none" stroke="black" d="M116.66,-302.5C86,-298.06 37.53,-285.79 14.88,-252 -31.56,-182.71 44.99,-87.85 87.5,-43.6"/>
<polygon fill="black" stroke="black" points="90.26,-45.79 94.75,-36.2 85.25,-40.89 90.26,-45.79"/>
<g id="a_edge10&#45;headlabel"><a xlink:href="dir_000374_000032.xhtml" target="_top" xlink:title="15">
<text text-anchor="middle" x="89.77" y="-47.85" font-family="Helvetica,sans-Serif" font-size="10.00">15</text>
</a>
</g>
</g>
<!-- dir_2c61f424fd391396db977702a2beee9a&#45;&gt;dir_fdedb0aba14d44ce9d99bc100e026e6a -->
<g id="edge11" class="edge">
<title>dir_2c61f424fd391396db977702a2beee9a&#45;&gt;dir_fdedb0aba14d44ce9d99bc100e026e6a</title>
<path fill="none" stroke="black" d="M140.86,-287.87C136.6,-263.67 128.78,-219.21 123.7,-190.39"/>
<polygon fill="black" stroke="black" points="127.09,-189.43 121.91,-180.19 120.19,-190.64 127.09,-189.43"/>
<g id="a_edge11&#45;headlabel"><a xlink:href="dir_000374_000019.xhtml" target="_top" xlink:title="48">
<text text-anchor="middle" x="130.51" y="-189.98" font-family="Helvetica,sans-Serif" font-size="10.00">48</text>
</a>
</g>
</g>
<!-- dir_214608ef36d61442cb2b0c1c4e9a7def&#45;&gt;dir_5815af820a9cc9481f1d0990a0d60286 -->
<g id="edge12" class="edge">
<title>dir_214608ef36d61442cb2b0c1c4e9a7def&#45;&gt;dir_5815af820a9cc9481f1d0990a0d60286</title>
<path fill="none" stroke="black" d="M133.31,-71.7C128.56,-63.81 123.58,-54.3 119.58,-45.55"/>
<polygon fill="black" stroke="black" points="122.69,-43.92 115.54,-36.1 116.26,-46.67 122.69,-43.92"/>
<g id="a_edge12&#45;headlabel"><a xlink:href="dir_000000_000032.xhtml" target="_top" xlink:title="16">
<text text-anchor="middle" x="126.72" y="-43.6" font-family="Helvetica,sans-Serif" font-size="10.00">16</text>
</a>
</g>
</g>
<!-- dir_a8053b3d69cfefb2b2e6ec7bf9dd5c1a&#45;&gt;dir_2c61f424fd391396db977702a2beee9a -->
<g id="edge13" class="edge">
<title>dir_a8053b3d69cfefb2b2e6ec7bf9dd5c1a&#45;&gt;dir_2c61f424fd391396db977702a2beee9a</title>
<path fill="none" stroke="black" d="M87.81,-252.1C98.81,-260.72 111.41,-271.32 121.94,-280.76"/>
<polygon fill="black" stroke="black" points="119.78,-283.53 129.53,-287.7 124.51,-278.36 119.78,-283.53"/>
<g id="a_edge13&#45;headlabel"><a xlink:href="dir_000050_000374.xhtml" target="_top" xlink:title="1">
<text text-anchor="middle" x="115.22" y="-280.7" font-family="Helvetica,sans-Serif" font-size="10.00">1</text>
</a>
</g>
</g>
<!-- dir_a8053b3d69cfefb2b2e6ec7bf9dd5c1a&#45;&gt;dir_214608ef36d61442cb2b0c1c4e9a7def -->
<g id="edge14" class="edge">
<title>dir_a8053b3d69cfefb2b2e6ec7bf9dd5c1a&#45;&gt;dir_214608ef36d61442cb2b0c1c4e9a7def</title>
<path fill="none" stroke="black" d="M61.88,-215.99C62.63,-197.07 66.11,-166.25 79.88,-144 87.1,-132.34 97.86,-122.23 108.71,-114.06"/>
<polygon fill="black" stroke="black" points="110.83,-116.85 116.96,-108.2 106.78,-111.14 110.83,-116.85"/>
<g id="a_edge14&#45;headlabel"><a xlink:href="dir_000050_000000.xhtml" target="_top" xlink:title="26">
<text text-anchor="middle" x="109.55" y="-118.74" font-family="Helvetica,sans-Serif" font-size="10.00">26</text>
</a>
</g>
</g>
<!-- dir_a8053b3d69cfefb2b2e6ec7bf9dd5c1a&#45;&gt;dir_5815af820a9cc9481f1d0990a0d60286 -->
<g id="edge15" class="edge">
<title>dir_a8053b3d69cfefb2b2e6ec7bf9dd5c1a&#45;&gt;dir_5815af820a9cc9481f1d0990a0d60286</title>
<path fill="none" stroke="black" d="M60.21,-215.75C58.9,-197.67 58.01,-168.55 62.88,-144 69.95,-108.38 86.85,-69.95 99.05,-45.24"/>
<polygon fill="black" stroke="black" points="102.25,-46.68 103.63,-36.17 96,-43.52 102.25,-46.68"/>
<g id="a_edge15&#45;headlabel"><a xlink:href="dir_000050_000032.xhtml" target="_top" xlink:title="3">
<text text-anchor="middle" x="103.17" y="-48.66" font-family="Helvetica,sans-Serif" font-size="10.00">3</text>
</a>
</g>
</g>
<!-- dir_a8053b3d69cfefb2b2e6ec7bf9dd5c1a&#45;&gt;dir_fdedb0aba14d44ce9d99bc100e026e6a -->
<g id="edge16" class="edge">
<title>dir_a8053b3d69cfefb2b2e6ec7bf9dd5c1a&#45;&gt;dir_fdedb0aba14d44ce9d99bc100e026e6a</title>
<path fill="none" stroke="black" d="M75.97,-215.7C82.8,-207.3 91.14,-197.07 98.63,-187.86"/>
<polygon fill="black" stroke="black" points="101.35,-190.07 104.95,-180.1 95.92,-185.65 101.35,-190.07"/>
<g id="a_edge16&#45;headlabel"><a xlink:href="dir_000050_000019.xhtml" target="_top" xlink:title="1">
<text text-anchor="middle" x="101.28" y="-192.15" font-family="Helvetica,sans-Serif" font-size="10.00">1</text>
</a>
</g>
</g>
<!-- dir_1d7cadfed01c895b25460177608d44e9&#45;&gt;dir_707aa52d67938117542c6646238d6f70 -->
<g id="edge17" class="edge">
<title>dir_1d7cadfed01c895b25460177608d44e9&#45;&gt;dir_707aa52d67938117542c6646238d6f70</title>
<path fill="none" stroke="black" d="M186.71,-215.7C193.9,-207.3 202.68,-197.07 210.57,-187.86"/>
<polygon fill="black" stroke="black" points="213.37,-189.97 217.22,-180.1 208.05,-185.42 213.37,-189.97"/>
<g id="a_edge17&#45;headlabel"><a xlink:href="dir_000052_000034.xhtml" target="_top" xlink:title="8">
<text text-anchor="middle" x="213.18" y="-192.05" font-family="Helvetica,sans-Serif" font-size="10.00">8</text>
</a>
</g>
</g>
<!-- dir_1d7cadfed01c895b25460177608d44e9&#45;&gt;dir_214608ef36d61442cb2b0c1c4e9a7def -->
<g id="edge18" class="edge">
<title>dir_1d7cadfed01c895b25460177608d44e9&#45;&gt;dir_214608ef36d61442cb2b0c1c4e9a7def</title>
<path fill="none" stroke="black" d="M169.01,-215.94C166,-198.02 161.11,-169.03 156.88,-144 155.46,-135.59 153.9,-126.43 152.49,-118.12"/>
<polygon fill="black" stroke="black" points="155.93,-117.46 150.8,-108.18 149.03,-118.63 155.93,-117.46"/>
<g id="a_edge18&#45;headlabel"><a xlink:href="dir_000052_000000.xhtml" target="_top" xlink:title="18">
<text text-anchor="middle" x="159.33" y="-118.03" font-family="Helvetica,sans-Serif" font-size="10.00">18</text>
</a>
</g>
</g>
<!-- dir_1d7cadfed01c895b25460177608d44e9&#45;&gt;dir_fdedb0aba14d44ce9d99bc100e026e6a -->
<g id="edge19" class="edge">
<title>dir_1d7cadfed01c895b25460177608d44e9&#45;&gt;dir_fdedb0aba14d44ce9d99bc100e026e6a</title>
<path fill="none" stroke="black" d="M158.78,-215.7C152.49,-207.39 144.83,-197.28 137.91,-188.14"/>
<polygon fill="black" stroke="black" points="140.66,-185.96 131.83,-180.1 135.08,-190.19 140.66,-185.96"/>
<g id="a_edge19&#45;headlabel"><a xlink:href="dir_000052_000019.xhtml" target="_top" xlink:title="2">
<text text-anchor="middle" x="145.09" y="-184.62" font-family="Helvetica,sans-Serif" font-size="10.00">2</text>
</a>
</g>
</g>
<!-- dir_5815af820a9cc9481f1d0990a0d60286&#45;&gt;dir_214608ef36d61442cb2b0c1c4e9a7def -->
<g id="edge29" class="edge">
<title>dir_5815af820a9cc9481f1d0990a0d60286&#45;&gt;dir_214608ef36d61442cb2b0c1c4e9a7def</title>
<path fill="none" stroke="black" d="M127.33,-36.1C132.08,-43.96 137.06,-53.46 141.08,-62.23"/>
<polygon fill="black" stroke="black" points="137.98,-63.89 145.14,-71.7 144.41,-61.13 137.98,-63.89"/>
<g id="a_edge29&#45;headlabel"><a xlink:href="dir_000032_000000.xhtml" target="_top" xlink:title="6">
<text text-anchor="middle" x="133.95" y="-59.21" font-family="Helvetica,sans-Serif" font-size="10.00">6</text>
</a>
</g>
</g>
<!-- dir_fdedb0aba14d44ce9d99bc100e026e6a&#45;&gt;dir_214608ef36d61442cb2b0c1c4e9a7def -->
<g id="edge30" class="edge">
<title>dir_fdedb0aba14d44ce9d99bc100e026e6a&#45;&gt;dir_214608ef36d61442cb2b0c1c4e9a7def</title>
<path fill="none" stroke="black" d="M126.05,-143.7C129.31,-135.81 133.25,-126.3 136.88,-117.55"/>
<polygon fill="black" stroke="black" points="140.2,-118.68 140.79,-108.1 133.73,-116 140.2,-118.68"/>
<g id="a_edge30&#45;headlabel"><a xlink:href="dir_000019_000000.xhtml" target="_top" xlink:title="17">
<text text-anchor="middle" x="141.45" y="-120.59" font-family="Helvetica,sans-Serif" font-size="10.00">17</text>
</a>
</g>
</g>
<!-- dir_fdedb0aba14d44ce9d99bc100e026e6a&#45;&gt;dir_5815af820a9cc9481f1d0990a0d60286 -->
<g id="edge31" class="edge">
<title>dir_fdedb0aba14d44ce9d99bc100e026e6a&#45;&gt;dir_5815af820a9cc9481f1d0990a0d60286</title>
<path fill="none" stroke="black" d="M109.75,-143.88C104.87,-133.76 99.37,-120.51 96.88,-108 92.72,-87.15 97.44,-63.45 102.81,-45.76"/>
<polygon fill="black" stroke="black" points="106.19,-46.69 105.98,-36.1 99.54,-44.51 106.19,-46.69"/>
<g id="a_edge31&#45;headlabel"><a xlink:href="dir_000019_000032.xhtml" target="_top" xlink:title="2">
<text text-anchor="middle" x="107.76" y="-48.49" font-family="Helvetica,sans-Serif" font-size="10.00">2</text>
</a>
</g>
</g>
</g>
</svg>
