<?xml version="1.0" encoding="UTF-8" standalone="no"?>
<!DOCTYPE svg PUBLIC "-//W3C//DTD SVG 1.1//EN"
 "http://www.w3.org/Graphics/SVG/1.1/DTD/svg11.dtd">
<!-- Generated by graphviz version 2.43.0 (0)
 -->
<!-- Title: src/core Pages: 1 -->
<svg width="730pt" height="539pt"
 viewBox="0.00 0.00 730.00 539.35" xmlns="http://www.w3.org/2000/svg" xmlns:xlink="http://www.w3.org/1999/xlink">
<g id="graph0" class="graph" transform="scale(1 1) rotate(0) translate(4 535.35)">
<title>src/core</title>
<polygon fill="white" stroke="transparent" points="-4,4 -4,-535.35 726,-535.35 726,4 -4,4"/>
<g id="clust1" class="cluster">
<title>clusterdir_68267d1309a1af8e8297ef4c3efbcdba</title>
<g id="a_clust1"><a xlink:href="dir_68267d1309a1af8e8297ef4c3efbcdba.xhtml" target="_top" xlink:title="src">
<polygon fill="#ddddee" stroke="black" points="278,-200 278,-503 514,-503 514,-200 278,-200"/>
<text text-anchor="middle" x="396" y="-491" font-family="Helvetica,sans-Serif" font-size="10.00">src</text>
</a>
</g>
</g>
<g id="clust2" class="cluster">
<title>clusterdir_aebb8dcc11953d78e620bbef0b9e2183</title>
<g id="a_clust2"><a xlink:href="dir_aebb8dcc11953d78e620bbef0b9e2183.xhtml" target="_top">
<polygon fill="#eeeeff" stroke="black" points="286,-208 286,-476 506,-476 506,-208 286,-208"/>
</a>
</g>
</g>
<!-- dir_aebb8dcc11953d78e620bbef0b9e2183 -->
<g id="node1" class="node">
<title>dir_aebb8dcc11953d78e620bbef0b9e2183</title>
<text text-anchor="middle" x="455" y="-447.5" font-family="Helvetica,sans-Serif" font-size="10.00">core</text>
</g>
<!-- dir_8c278f79c760e5c5fbd911f9870614c1 -->
<g id="node2" class="node">
<title>dir_8c278f79c760e5c5fbd911f9870614c1</title>
<g id="a_node2"><a xlink:href="dir_8c278f79c760e5c5fbd911f9870614c1.xhtml" target="_top" xlink:title="CL">
<polygon fill="white" stroke="red" points="378,-468 324,-468 324,-432 378,-432 378,-468"/>
<text text-anchor="middle" x="351" y="-447.5" font-family="Helvetica,sans-Serif" font-size="10.00">CL</text>
</a>
</g>
</g>
<!-- dir_b7458c46e3e273561b07052265b89043 -->
<g id="node5" class="node">
<title>dir_b7458c46e3e273561b07052265b89043</title>
<g id="a_node5"><a xlink:href="dir_b7458c46e3e273561b07052265b89043.xhtml" target="_top" xlink:title="experimental">
<polygon fill="white" stroke="black" points="376,-396 294,-396 294,-360 376,-360 376,-396"/>
<text text-anchor="middle" x="335" y="-375.5" font-family="Helvetica,sans-Serif" font-size="10.00">experimental</text>
</a>
</g>
</g>
<!-- dir_8c278f79c760e5c5fbd911f9870614c1&#45;&gt;dir_b7458c46e3e273561b07052265b89043 -->
<g id="edge6" class="edge">
<title>dir_8c278f79c760e5c5fbd911f9870614c1&#45;&gt;dir_b7458c46e3e273561b07052265b89043</title>
<path fill="none" stroke="black" d="M347.04,-431.7C345.28,-423.98 343.16,-414.71 341.2,-406.11"/>
<polygon fill="black" stroke="black" points="344.55,-405.07 338.91,-396.1 337.73,-406.63 344.55,-405.07"/>
<g id="a_edge6&#45;headlabel"><a xlink:href="dir_000021_000099.xhtml" target="_top" xlink:title="1">
<text text-anchor="middle" x="348.12" y="-405.44" font-family="Helvetica,sans-Serif" font-size="10.00">1</text>
</a>
</g>
</g>
<!-- dir_707aa52d67938117542c6646238d6f70 -->
<g id="node6" class="node">
<title>dir_707aa52d67938117542c6646238d6f70</title>
<g id="a_node6"><a xlink:href="dir_707aa52d67938117542c6646238d6f70.xhtml" target="_top" xlink:title="helpers">
<polygon fill="white" stroke="black" points="448,-396 394,-396 394,-360 448,-360 448,-396"/>
<text text-anchor="middle" x="421" y="-375.5" font-family="Helvetica,sans-Serif" font-size="10.00">helpers</text>
</a>
</g>
</g>
<!-- dir_8c278f79c760e5c5fbd911f9870614c1&#45;&gt;dir_707aa52d67938117542c6646238d6f70 -->
<g id="edge2" class="edge">
<title>dir_8c278f79c760e5c5fbd911f9870614c1&#45;&gt;dir_707aa52d67938117542c6646238d6f70</title>
<path fill="none" stroke="black" d="M368.3,-431.7C376.86,-423.14 387.34,-412.66 396.7,-403.3"/>
<polygon fill="black" stroke="black" points="399.3,-405.65 403.9,-396.1 394.35,-400.7 399.3,-405.65"/>
<g id="a_edge2&#45;headlabel"><a xlink:href="dir_000021_000034.xhtml" target="_top" xlink:title="80">
<text text-anchor="middle" x="398.77" y="-407.7" font-family="Helvetica,sans-Serif" font-size="10.00">80</text>
</a>
</g>
</g>
<!-- dir_a8053b3d69cfefb2b2e6ec7bf9dd5c1a -->
<g id="node8" class="node">
<title>dir_a8053b3d69cfefb2b2e6ec7bf9dd5c1a</title>
<g id="a_node8"><a xlink:href="dir_a8053b3d69cfefb2b2e6ec7bf9dd5c1a.xhtml" target="_top" xlink:title="utils">
<polygon fill="white" stroke="red" points="420,-252 366,-252 366,-216 420,-216 420,-252"/>
<text text-anchor="middle" x="393" y="-231.5" font-family="Helvetica,sans-Serif" font-size="10.00">utils</text>
</a>
</g>
</g>
<!-- dir_8c278f79c760e5c5fbd911f9870614c1&#45;&gt;dir_a8053b3d69cfefb2b2e6ec7bf9dd5c1a -->
<g id="edge4" class="edge">
<title>dir_8c278f79c760e5c5fbd911f9870614c1&#45;&gt;dir_a8053b3d69cfefb2b2e6ec7bf9dd5c1a</title>
<path fill="none" stroke="black" d="M378.19,-443.8C403.54,-437.36 439.91,-423.65 457,-396 484.55,-351.42 444.95,-292.94 416.85,-260.14"/>
<polygon fill="black" stroke="black" points="419.24,-257.56 410,-252.37 413.99,-262.19 419.24,-257.56"/>
<g id="a_edge4&#45;headlabel"><a xlink:href="dir_000021_000050.xhtml" target="_top" xlink:title="1">
<text text-anchor="middle" x="423.75" y="-255.87" font-family="Helvetica,sans-Serif" font-size="10.00">1</text>
</a>
</g>
</g>
<!-- dir_cf895c1ed808af158264b2f3d8d7f8f0 -->
<g id="node9" class="node">
<title>dir_cf895c1ed808af158264b2f3d8d7f8f0</title>
<g id="a_node9"><a xlink:href="dir_cf895c1ed808af158264b2f3d8d7f8f0.xhtml" target="_top" xlink:title="gpu">
<polygon fill="white" stroke="red" points="576,-468 522,-468 522,-432 576,-432 576,-468"/>
<text text-anchor="middle" x="549" y="-447.5" font-family="Helvetica,sans-Serif" font-size="10.00">gpu</text>
</a>
</g>
</g>
<!-- dir_8c278f79c760e5c5fbd911f9870614c1&#45;&gt;dir_cf895c1ed808af158264b2f3d8d7f8f0 -->
<g id="edge1" class="edge">
<title>dir_8c278f79c760e5c5fbd911f9870614c1&#45;&gt;dir_cf895c1ed808af158264b2f3d8d7f8f0</title>
<path fill="none" stroke="black" d="M364.19,-468.32C377.89,-485.64 401.07,-510.48 428,-521 458.22,-532.81 472.35,-536.22 501,-521 518.3,-511.81 530.51,-493.29 538.28,-477.47"/>
<polygon fill="black" stroke="black" points="541.59,-478.63 542.55,-468.08 535.22,-475.73 541.59,-478.63"/>
<g id="a_edge1&#45;headlabel"><a xlink:href="dir_000021_000004.xhtml" target="_top" xlink:title="4">
<text text-anchor="middle" x="542.69" y="-480.58" font-family="Helvetica,sans-Serif" font-size="10.00">4</text>
</a>
</g>
</g>
<!-- dir_214608ef36d61442cb2b0c1c4e9a7def -->
<g id="node11" class="node">
<title>dir_214608ef36d61442cb2b0c1c4e9a7def</title>
<g id="a_node11"><a xlink:href="dir_214608ef36d61442cb2b0c1c4e9a7def.xhtml" target="_top" xlink:title="arm_compute">
<polygon fill="white" stroke="red" points="311,-108 227,-108 227,-72 311,-72 311,-108"/>
<text text-anchor="middle" x="269" y="-87.5" font-family="Helvetica,sans-Serif" font-size="10.00">arm_compute</text>
</a>
</g>
</g>
<!-- dir_8c278f79c760e5c5fbd911f9870614c1&#45;&gt;dir_214608ef36d61442cb2b0c1c4e9a7def -->
<g id="edge3" class="edge">
<title>dir_8c278f79c760e5c5fbd911f9870614c1&#45;&gt;dir_214608ef36d61442cb2b0c1c4e9a7def</title>
<path fill="none" stroke="black" d="M323.77,-449.02C247.62,-447.51 38,-432.01 38,-307 38,-307 38,-307 38,-233 38,-149.6 148.62,-113.63 216.76,-99.38"/>
<polygon fill="black" stroke="black" points="217.78,-102.75 226.9,-97.35 216.41,-95.88 217.78,-102.75"/>
<g id="a_edge3&#45;headlabel"><a xlink:href="dir_000021_000000.xhtml" target="_top" xlink:title="327">
<text text-anchor="middle" x="214.81" y="-103.73" font-family="Helvetica,sans-Serif" font-size="10.00">327</text>
</a>
</g>
</g>
<!-- dir_5815af820a9cc9481f1d0990a0d60286 -->
<g id="node12" class="node">
<title>dir_5815af820a9cc9481f1d0990a0d60286</title>
<g id="a_node12"><a xlink:href="dir_5815af820a9cc9481f1d0990a0d60286.xhtml" target="_top" xlink:title="support">
<polygon fill="none" stroke="black" points="296,-36 242,-36 242,0 296,0 296,-36"/>
<text text-anchor="middle" x="269" y="-15.5" font-family="Helvetica,sans-Serif" font-size="10.00">support</text>
</a>
</g>
</g>
<!-- dir_8c278f79c760e5c5fbd911f9870614c1&#45;&gt;dir_5815af820a9cc9481f1d0990a0d60286 -->
<g id="edge5" class="edge">
<title>dir_8c278f79c760e5c5fbd911f9870614c1&#45;&gt;dir_5815af820a9cc9481f1d0990a0d60286</title>
<path fill="none" stroke="black" d="M323.77,-447.17C258.27,-442.3 94.05,-427.22 50,-396 12.99,-369.76 0,-352.37 0,-307 0,-307 0,-307 0,-161 0,-57.44 157.85,-29.21 231.72,-21.68"/>
<polygon fill="black" stroke="black" points="232.35,-25.13 241.98,-20.71 231.69,-18.16 232.35,-25.13"/>
<g id="a_edge5&#45;headlabel"><a xlink:href="dir_000021_000032.xhtml" target="_top" xlink:title="43">
<text text-anchor="middle" x="229.04" y="-25.8" font-family="Helvetica,sans-Serif" font-size="10.00">43</text>
</a>
</g>
</g>
<!-- dir_34b4cee2b5900b653deb3438fc906cf4 -->
<g id="node3" class="node">
<title>dir_34b4cee2b5900b653deb3438fc906cf4</title>
<g id="a_node3"><a xlink:href="dir_34b4cee2b5900b653deb3438fc906cf4.xhtml" target="_top" xlink:title="common">
<polygon fill="white" stroke="black" points="497.5,-252 438.5,-252 438.5,-216 497.5,-216 497.5,-252"/>
<text text-anchor="middle" x="468" y="-231.5" font-family="Helvetica,sans-Serif" font-size="10.00">common</text>
</a>
</g>
</g>
<!-- dir_1d7cadfed01c895b25460177608d44e9 -->
<g id="node4" class="node">
<title>dir_1d7cadfed01c895b25460177608d44e9</title>
<g id="a_node4"><a xlink:href="dir_1d7cadfed01c895b25460177608d44e9.xhtml" target="_top" xlink:title="CPP">
<polygon fill="white" stroke="red" points="348,-252 294,-252 294,-216 348,-216 348,-252"/>
<text text-anchor="middle" x="321" y="-231.5" font-family="Helvetica,sans-Serif" font-size="10.00">CPP</text>
</a>
</g>
</g>
<!-- dir_1d7cadfed01c895b25460177608d44e9&#45;&gt;dir_707aa52d67938117542c6646238d6f70 -->
<g id="edge39" class="edge">
<title>dir_1d7cadfed01c895b25460177608d44e9&#45;&gt;dir_707aa52d67938117542c6646238d6f70</title>
<path fill="none" stroke="black" d="M348.38,-250.16C368.7,-261.94 394.05,-277.92 401,-288 413.53,-306.18 418.34,-330.95 420.13,-349.75"/>
<polygon fill="black" stroke="black" points="416.64,-350.04 420.85,-359.76 423.62,-349.53 416.64,-350.04"/>
<g id="a_edge39&#45;headlabel"><a xlink:href="dir_000052_000034.xhtml" target="_top" xlink:title="8">
<text text-anchor="middle" x="413.55" y="-344.16" font-family="Helvetica,sans-Serif" font-size="10.00">8</text>
</a>
</g>
</g>
<!-- dir_1d7cadfed01c895b25460177608d44e9&#45;&gt;dir_214608ef36d61442cb2b0c1c4e9a7def -->
<g id="edge40" class="edge">
<title>dir_1d7cadfed01c895b25460177608d44e9&#45;&gt;dir_214608ef36d61442cb2b0c1c4e9a7def</title>
<path fill="none" stroke="black" d="M309,-215.53C302.58,-205.5 294.99,-192.47 290,-180 282,-160.01 276.59,-136.22 273.26,-118.27"/>
<polygon fill="black" stroke="black" points="276.67,-117.44 271.5,-108.19 269.77,-118.64 276.67,-117.44"/>
<g id="a_edge40&#45;headlabel"><a xlink:href="dir_000052_000000.xhtml" target="_top" xlink:title="18">
<text text-anchor="middle" x="280.08" y="-117.99" font-family="Helvetica,sans-Serif" font-size="10.00">18</text>
</a>
</g>
</g>
<!-- dir_fdedb0aba14d44ce9d99bc100e026e6a -->
<g id="node13" class="node">
<title>dir_fdedb0aba14d44ce9d99bc100e026e6a</title>
<g id="a_node13"><a xlink:href="dir_fdedb0aba14d44ce9d99bc100e026e6a.xhtml" target="_top" xlink:title="common">
<polygon fill="white" stroke="red" points="429.5,-180 370.5,-180 370.5,-144 429.5,-144 429.5,-180"/>
<text text-anchor="middle" x="400" y="-159.5" font-family="Helvetica,sans-Serif" font-size="10.00">common</text>
</a>
</g>
</g>
<!-- dir_1d7cadfed01c895b25460177608d44e9&#45;&gt;dir_fdedb0aba14d44ce9d99bc100e026e6a -->
<g id="edge41" class="edge">
<title>dir_1d7cadfed01c895b25460177608d44e9&#45;&gt;dir_fdedb0aba14d44ce9d99bc100e026e6a</title>
<path fill="none" stroke="black" d="M339.58,-215.76C345.15,-210.65 351.29,-205.07 357,-200 361.83,-195.71 367.01,-191.19 372.05,-186.83"/>
<polygon fill="black" stroke="black" points="374.47,-189.37 379.76,-180.19 369.9,-184.06 374.47,-189.37"/>
<g id="a_edge41&#45;headlabel"><a xlink:href="dir_000052_000019.xhtml" target="_top" xlink:title="2">
<text text-anchor="middle" x="373.6" y="-191.36" font-family="Helvetica,sans-Serif" font-size="10.00">2</text>
</a>
</g>
</g>
<!-- dir_b7458c46e3e273561b07052265b89043&#45;&gt;dir_214608ef36d61442cb2b0c1c4e9a7def -->
<g id="edge43" class="edge">
<title>dir_b7458c46e3e273561b07052265b89043&#45;&gt;dir_214608ef36d61442cb2b0c1c4e9a7def</title>
<path fill="none" stroke="black" d="M318.49,-359.72C298.11,-337.08 264.49,-295.18 251,-252 236.69,-206.18 241.78,-191.29 250,-144 251.52,-135.24 254.36,-126.01 257.39,-117.75"/>
<polygon fill="black" stroke="black" points="260.72,-118.84 261.11,-108.25 254.21,-116.29 260.72,-118.84"/>
<g id="a_edge43&#45;headlabel"><a xlink:href="dir_000099_000000.xhtml" target="_top" xlink:title="3">
<text text-anchor="middle" x="262.06" y="-120.72" font-family="Helvetica,sans-Serif" font-size="10.00">3</text>
</a>
</g>
</g>
<!-- dir_b7458c46e3e273561b07052265b89043&#45;&gt;dir_5815af820a9cc9481f1d0990a0d60286 -->
<g id="edge44" class="edge">
<title>dir_b7458c46e3e273561b07052265b89043&#45;&gt;dir_5815af820a9cc9481f1d0990a0d60286</title>
<path fill="none" stroke="black" d="M293.96,-373.2C220.93,-363.94 76,-333.2 76,-235 76,-235 76,-235 76,-161 76,-84.44 175.75,-44.57 231.83,-28.2"/>
<polygon fill="black" stroke="black" points="233.07,-31.49 241.76,-25.42 231.18,-24.75 233.07,-31.49"/>
<g id="a_edge44&#45;headlabel"><a xlink:href="dir_000099_000032.xhtml" target="_top" xlink:title="1">
<text text-anchor="middle" x="230.38" y="-32.69" font-family="Helvetica,sans-Serif" font-size="10.00">1</text>
</a>
</g>
</g>
<!-- dir_d91e1966cc57df4f49d1e07be7697713 -->
<g id="node7" class="node">
<title>dir_d91e1966cc57df4f49d1e07be7697713</title>
<g id="a_node7"><a xlink:href="dir_d91e1966cc57df4f49d1e07be7697713.xhtml" target="_top" xlink:title="NEON">
<polygon fill="white" stroke="red" points="392,-324 338,-324 338,-288 392,-288 392,-324"/>
<text text-anchor="middle" x="365" y="-303.5" font-family="Helvetica,sans-Serif" font-size="10.00">NEON</text>
</a>
</g>
</g>
<!-- dir_707aa52d67938117542c6646238d6f70&#45;&gt;dir_d91e1966cc57df4f49d1e07be7697713 -->
<g id="edge17" class="edge">
<title>dir_707aa52d67938117542c6646238d6f70&#45;&gt;dir_d91e1966cc57df4f49d1e07be7697713</title>
<path fill="none" stroke="black" d="M401.24,-359.7C393.82,-351.47 385.62,-341.48 378.82,-332.42"/>
<polygon fill="black" stroke="black" points="381.49,-330.15 372.79,-324.1 375.82,-334.26 381.49,-330.15"/>
<g id="a_edge17&#45;headlabel"><a xlink:href="dir_000034_000029.xhtml" target="_top" xlink:title="1">
<text text-anchor="middle" x="385.9" y="-328.89" font-family="Helvetica,sans-Serif" font-size="10.00">1</text>
</a>
</g>
</g>
<!-- dir_707aa52d67938117542c6646238d6f70&#45;&gt;dir_214608ef36d61442cb2b0c1c4e9a7def -->
<g id="edge16" class="edge">
<title>dir_707aa52d67938117542c6646238d6f70&#45;&gt;dir_214608ef36d61442cb2b0c1c4e9a7def</title>
<path fill="none" stroke="black" d="M393.85,-363.42C374.99,-353.5 349.64,-339.18 329,-324 290.99,-296.05 273.42,-293.51 251,-252 228.05,-209.51 226.7,-190.7 239,-144 241.49,-134.54 246.1,-124.99 250.97,-116.66"/>
<polygon fill="black" stroke="black" points="253.95,-118.49 256.27,-108.15 248.01,-114.79 253.95,-118.49"/>
<g id="a_edge16&#45;headlabel"><a xlink:href="dir_000034_000000.xhtml" target="_top" xlink:title="16">
<text text-anchor="middle" x="254.46" y="-120.54" font-family="Helvetica,sans-Serif" font-size="10.00">16</text>
</a>
</g>
</g>
<!-- dir_d91e1966cc57df4f49d1e07be7697713&#45;&gt;dir_34b4cee2b5900b653deb3438fc906cf4 -->
<g id="edge27" class="edge">
<title>dir_d91e1966cc57df4f49d1e07be7697713&#45;&gt;dir_34b4cee2b5900b653deb3438fc906cf4</title>
<path fill="none" stroke="black" d="M390.2,-287.88C403.41,-278.89 419.79,-267.76 434.11,-258.03"/>
<polygon fill="black" stroke="black" points="436.4,-260.71 442.71,-252.19 432.47,-254.92 436.4,-260.71"/>
<g id="a_edge27&#45;headlabel"><a xlink:href="dir_000029_000045.xhtml" target="_top" xlink:title="10">
<text text-anchor="middle" x="435.03" y="-262.57" font-family="Helvetica,sans-Serif" font-size="10.00">10</text>
</a>
</g>
</g>
<!-- dir_d91e1966cc57df4f49d1e07be7697713&#45;&gt;dir_1d7cadfed01c895b25460177608d44e9 -->
<g id="edge32" class="edge">
<title>dir_d91e1966cc57df4f49d1e07be7697713&#45;&gt;dir_1d7cadfed01c895b25460177608d44e9</title>
<path fill="none" stroke="black" d="M354.12,-287.7C349.01,-279.56 342.8,-269.69 337.16,-260.7"/>
<polygon fill="black" stroke="black" points="340.04,-258.71 331.75,-252.1 334.11,-262.43 340.04,-258.71"/>
<g id="a_edge32&#45;headlabel"><a xlink:href="dir_000029_000052.xhtml" target="_top" xlink:title="15">
<text text-anchor="middle" x="344.35" y="-257.74" font-family="Helvetica,sans-Serif" font-size="10.00">15</text>
</a>
</g>
</g>
<!-- dir_d91e1966cc57df4f49d1e07be7697713&#45;&gt;dir_707aa52d67938117542c6646238d6f70 -->
<g id="edge28" class="edge">
<title>dir_d91e1966cc57df4f49d1e07be7697713&#45;&gt;dir_707aa52d67938117542c6646238d6f70</title>
<path fill="none" stroke="black" d="M384.58,-324.1C391.99,-332.3 400.19,-342.28 407.02,-351.36"/>
<polygon fill="black" stroke="black" points="404.36,-353.66 413.07,-359.7 410.03,-349.55 404.36,-353.66"/>
<g id="a_edge28&#45;headlabel"><a xlink:href="dir_000029_000034.xhtml" target="_top" xlink:title="72">
<text text-anchor="middle" x="399.96" y="-349.92" font-family="Helvetica,sans-Serif" font-size="10.00">72</text>
</a>
</g>
</g>
<!-- dir_d91e1966cc57df4f49d1e07be7697713&#45;&gt;dir_a8053b3d69cfefb2b2e6ec7bf9dd5c1a -->
<g id="edge31" class="edge">
<title>dir_d91e1966cc57df4f49d1e07be7697713&#45;&gt;dir_a8053b3d69cfefb2b2e6ec7bf9dd5c1a</title>
<path fill="none" stroke="black" d="M371.92,-287.7C375.07,-279.81 378.88,-270.3 382.38,-261.55"/>
<polygon fill="black" stroke="black" points="385.69,-262.69 386.16,-252.1 379.19,-260.09 385.69,-262.69"/>
<g id="a_edge31&#45;headlabel"><a xlink:href="dir_000029_000050.xhtml" target="_top" xlink:title="2">
<text text-anchor="middle" x="387" y="-264.58" font-family="Helvetica,sans-Serif" font-size="10.00">2</text>
</a>
</g>
</g>
<!-- dir_2c61f424fd391396db977702a2beee9a -->
<g id="node10" class="node">
<title>dir_2c61f424fd391396db977702a2beee9a</title>
<g id="a_node10"><a xlink:href="dir_2c61f424fd391396db977702a2beee9a.xhtml" target="_top" xlink:title="cpu">
<polygon fill="white" stroke="red" points="618,-324 564,-324 564,-288 618,-288 618,-324"/>
<text text-anchor="middle" x="591" y="-303.5" font-family="Helvetica,sans-Serif" font-size="10.00">cpu</text>
</a>
</g>
</g>
<!-- dir_d91e1966cc57df4f49d1e07be7697713&#45;&gt;dir_2c61f424fd391396db977702a2beee9a -->
<g id="edge29" class="edge">
<title>dir_d91e1966cc57df4f49d1e07be7697713&#45;&gt;dir_2c61f424fd391396db977702a2beee9a</title>
<path fill="none" stroke="black" d="M392.37,-306C446.18,-306 499.99,-306 553.8,-306"/>
<polygon fill="black" stroke="black" points="553.84,-309.5 563.84,-306 553.84,-302.5 553.84,-309.5"/>
<g id="a_edge29&#45;headlabel"><a xlink:href="dir_000029_000374.xhtml" target="_top" xlink:title="82">
<text text-anchor="middle" x="550.25" y="-309.84" font-family="Helvetica,sans-Serif" font-size="10.00">82</text>
</a>
</g>
</g>
<!-- dir_d91e1966cc57df4f49d1e07be7697713&#45;&gt;dir_214608ef36d61442cb2b0c1c4e9a7def -->
<g id="edge30" class="edge">
<title>dir_d91e1966cc57df4f49d1e07be7697713&#45;&gt;dir_214608ef36d61442cb2b0c1c4e9a7def</title>
<path fill="none" stroke="black" d="M337.81,-297.85C315.53,-290.4 285.42,-276.34 271,-252 246.57,-210.77 253.96,-152.55 261.51,-118.6"/>
<polygon fill="black" stroke="black" points="265.01,-119.01 263.93,-108.47 258.2,-117.39 265.01,-119.01"/>
<g id="a_edge30&#45;headlabel"><a xlink:href="dir_000029_000000.xhtml" target="_top" xlink:title="234">
<text text-anchor="middle" x="266.94" y="-120.67" font-family="Helvetica,sans-Serif" font-size="10.00">234</text>
</a>
</g>
</g>
<!-- dir_d91e1966cc57df4f49d1e07be7697713&#45;&gt;dir_5815af820a9cc9481f1d0990a0d60286 -->
<g id="edge33" class="edge">
<title>dir_d91e1966cc57df4f49d1e07be7697713&#45;&gt;dir_5815af820a9cc9481f1d0990a0d60286</title>
<path fill="none" stroke="black" d="M337.71,-299.56C311.52,-292.89 272.83,-278.97 251,-252 199.83,-188.78 187.6,-147.44 218,-72 222.35,-61.21 230.06,-51.39 238.19,-43.21"/>
<polygon fill="black" stroke="black" points="240.79,-45.57 245.7,-36.18 236,-40.46 240.79,-45.57"/>
<g id="a_edge33&#45;headlabel"><a xlink:href="dir_000029_000032.xhtml" target="_top" xlink:title="6">
<text text-anchor="middle" x="240.11" y="-47.6" font-family="Helvetica,sans-Serif" font-size="10.00">6</text>
</a>
</g>
</g>
<!-- dir_d91e1966cc57df4f49d1e07be7697713&#45;&gt;dir_fdedb0aba14d44ce9d99bc100e026e6a -->
<g id="edge34" class="edge">
<title>dir_d91e1966cc57df4f49d1e07be7697713&#45;&gt;dir_fdedb0aba14d44ce9d99bc100e026e6a</title>
<path fill="none" stroke="black" d="M337.8,-295.05C319.25,-286.67 296.11,-272.7 285,-252 274.07,-231.64 271.39,-218.68 285,-200 302.12,-176.51 334.41,-167.61 360.43,-164.39"/>
<polygon fill="black" stroke="black" points="360.81,-167.86 370.41,-163.38 360.11,-160.9 360.81,-167.86"/>
<g id="a_edge34&#45;headlabel"><a xlink:href="dir_000029_000019.xhtml" target="_top" xlink:title="2">
<text text-anchor="middle" x="357.52" y="-168.55" font-family="Helvetica,sans-Serif" font-size="10.00">2</text>
</a>
</g>
</g>
<!-- dir_a8053b3d69cfefb2b2e6ec7bf9dd5c1a&#45;&gt;dir_2c61f424fd391396db977702a2beee9a -->
<g id="edge35" class="edge">
<title>dir_a8053b3d69cfefb2b2e6ec7bf9dd5c1a&#45;&gt;dir_2c61f424fd391396db977702a2beee9a</title>
<path fill="none" stroke="black" d="M420.21,-251.69C420.47,-251.79 420.74,-251.9 421,-252 465.75,-269.58 518.95,-286.31 553.93,-296.11"/>
<polygon fill="black" stroke="black" points="553.16,-299.53 563.73,-298.8 555.02,-292.78 553.16,-299.53"/>
<g id="a_edge35&#45;headlabel"><a xlink:href="dir_000050_000374.xhtml" target="_top" xlink:title="1">
<text text-anchor="middle" x="548.95" y="-298.81" font-family="Helvetica,sans-Serif" font-size="10.00">1</text>
</a>
</g>
</g>
<!-- dir_a8053b3d69cfefb2b2e6ec7bf9dd5c1a&#45;&gt;dir_214608ef36d61442cb2b0c1c4e9a7def -->
<g id="edge36" class="edge">
<title>dir_a8053b3d69cfefb2b2e6ec7bf9dd5c1a&#45;&gt;dir_214608ef36d61442cb2b0c1c4e9a7def</title>
<path fill="none" stroke="black" d="M375.12,-215.71C369.47,-210.49 363.1,-204.86 357,-200 344.76,-190.24 338.97,-191.17 328,-180 309.56,-161.21 293.42,-135.88 282.71,-117.05"/>
<polygon fill="black" stroke="black" points="285.67,-115.17 277.76,-108.12 279.54,-118.57 285.67,-115.17"/>
<g id="a_edge36&#45;headlabel"><a xlink:href="dir_000050_000000.xhtml" target="_top" xlink:title="26">
<text text-anchor="middle" x="289.89" y="-114.44" font-family="Helvetica,sans-Serif" font-size="10.00">26</text>
</a>
</g>
</g>
<!-- dir_a8053b3d69cfefb2b2e6ec7bf9dd5c1a&#45;&gt;dir_5815af820a9cc9481f1d0990a0d60286 -->
<g id="edge37" class="edge">
<title>dir_a8053b3d69cfefb2b2e6ec7bf9dd5c1a&#45;&gt;dir_5815af820a9cc9481f1d0990a0d60286</title>
<path fill="none" stroke="black" d="M381.95,-215.71C375.69,-205.54 367.94,-192.29 362,-180 339.6,-133.63 347.73,-115.4 320,-72 313.41,-61.68 304.6,-51.65 296.15,-43.15"/>
<polygon fill="black" stroke="black" points="298.51,-40.56 288.9,-36.1 293.63,-45.58 298.51,-40.56"/>
<g id="a_edge37&#45;headlabel"><a xlink:href="dir_000050_000032.xhtml" target="_top" xlink:title="3">
<text text-anchor="middle" x="303.06" y="-38.52" font-family="Helvetica,sans-Serif" font-size="10.00">3</text>
</a>
</g>
</g>
<!-- dir_a8053b3d69cfefb2b2e6ec7bf9dd5c1a&#45;&gt;dir_fdedb0aba14d44ce9d99bc100e026e6a -->
<g id="edge38" class="edge">
<title>dir_a8053b3d69cfefb2b2e6ec7bf9dd5c1a&#45;&gt;dir_fdedb0aba14d44ce9d99bc100e026e6a</title>
<path fill="none" stroke="black" d="M394.73,-215.7C395.5,-207.98 396.43,-198.71 397.29,-190.11"/>
<polygon fill="black" stroke="black" points="400.78,-190.4 398.29,-180.1 393.81,-189.71 400.78,-190.4"/>
<g id="a_edge38&#45;headlabel"><a xlink:href="dir_000050_000019.xhtml" target="_top" xlink:title="1">
<text text-anchor="middle" x="403.24" y="-191.76" font-family="Helvetica,sans-Serif" font-size="10.00">1</text>
</a>
</g>
</g>
<!-- dir_cf895c1ed808af158264b2f3d8d7f8f0&#45;&gt;dir_8c278f79c760e5c5fbd911f9870614c1 -->
<g id="edge8" class="edge">
<title>dir_cf895c1ed808af158264b2f3d8d7f8f0&#45;&gt;dir_8c278f79c760e5c5fbd911f9870614c1</title>
<path fill="none" stroke="black" d="M542.55,-468.08C535.35,-485.2 521.89,-509.9 501,-521 472.35,-536.22 458.22,-532.81 428,-521 405.07,-512.04 384.85,-492.7 370.9,-476.46"/>
<polygon fill="black" stroke="black" points="373.25,-473.81 364.19,-468.32 367.85,-478.27 373.25,-473.81"/>
<g id="a_edge8&#45;headlabel"><a xlink:href="dir_000004_000021.xhtml" target="_top" xlink:title="51">
<text text-anchor="middle" x="377.73" y="-472.28" font-family="Helvetica,sans-Serif" font-size="10.00">51</text>
</a>
</g>
</g>
<!-- dir_cf895c1ed808af158264b2f3d8d7f8f0&#45;&gt;dir_34b4cee2b5900b653deb3438fc906cf4 -->
<g id="edge7" class="edge">
<title>dir_cf895c1ed808af158264b2f3d8d7f8f0&#45;&gt;dir_34b4cee2b5900b653deb3438fc906cf4</title>
<path fill="none" stroke="black" d="M551.05,-431.99C552.71,-413.87 553.92,-384.48 548,-360 538.62,-321.25 511.35,-283.67 491.24,-260.01"/>
<polygon fill="black" stroke="black" points="493.68,-257.47 484.47,-252.24 488.4,-262.07 493.68,-257.47"/>
<g id="a_edge7&#45;headlabel"><a xlink:href="dir_000004_000045.xhtml" target="_top" xlink:title="55">
<text text-anchor="middle" x="498.18" y="-255.82" font-family="Helvetica,sans-Serif" font-size="10.00">55</text>
</a>
</g>
</g>
<!-- dir_cf895c1ed808af158264b2f3d8d7f8f0&#45;&gt;dir_1d7cadfed01c895b25460177608d44e9 -->
<g id="edge12" class="edge">
<title>dir_cf895c1ed808af158264b2f3d8d7f8f0&#45;&gt;dir_1d7cadfed01c895b25460177608d44e9</title>
<path fill="none" stroke="black" d="M537.52,-431.8C515.94,-400.38 466.63,-332.81 413,-288 396.14,-273.91 375.03,-261.45 357.28,-252.16"/>
<polygon fill="black" stroke="black" points="358.85,-249.03 348.35,-247.59 355.66,-255.26 358.85,-249.03"/>
<g id="a_edge12&#45;headlabel"><a xlink:href="dir_000004_000052.xhtml" target="_top" xlink:title="1">
<text text-anchor="middle" x="363.34" y="-245.63" font-family="Helvetica,sans-Serif" font-size="10.00">1</text>
</a>
</g>
</g>
<!-- dir_cf895c1ed808af158264b2f3d8d7f8f0&#45;&gt;dir_b7458c46e3e273561b07052265b89043 -->
<g id="edge14" class="edge">
<title>dir_cf895c1ed808af158264b2f3d8d7f8f0&#45;&gt;dir_b7458c46e3e273561b07052265b89043</title>
<path fill="none" stroke="black" d="M521.91,-436.65C517.95,-435 513.89,-433.4 510,-432 458.48,-413.44 441.9,-413.27 385.88,-396.18"/>
<polygon fill="black" stroke="black" points="386.74,-392.78 376.15,-393.16 384.67,-399.47 386.74,-392.78"/>
<g id="a_edge14&#45;headlabel"><a xlink:href="dir_000004_000099.xhtml" target="_top" xlink:title="3">
<text text-anchor="middle" x="391.01" y="-388.63" font-family="Helvetica,sans-Serif" font-size="10.00">3</text>
</a>
</g>
</g>
<!-- dir_cf895c1ed808af158264b2f3d8d7f8f0&#45;&gt;dir_707aa52d67938117542c6646238d6f70 -->
<g id="edge9" class="edge">
<title>dir_cf895c1ed808af158264b2f3d8d7f8f0&#45;&gt;dir_707aa52d67938117542c6646238d6f70</title>
<path fill="none" stroke="black" d="M521.85,-434.15C502.93,-423.81 477.49,-409.89 456.89,-398.63"/>
<polygon fill="black" stroke="black" points="458.56,-395.55 448.11,-393.82 455.2,-401.69 458.56,-395.55"/>
<g id="a_edge9&#45;headlabel"><a xlink:href="dir_000004_000034.xhtml" target="_top" xlink:title="110">
<text text-anchor="middle" x="463.08" y="-392.28" font-family="Helvetica,sans-Serif" font-size="10.00">110</text>
</a>
</g>
</g>
<!-- dir_cf895c1ed808af158264b2f3d8d7f8f0&#45;&gt;dir_a8053b3d69cfefb2b2e6ec7bf9dd5c1a -->
<g id="edge11" class="edge">
<title>dir_cf895c1ed808af158264b2f3d8d7f8f0&#45;&gt;dir_a8053b3d69cfefb2b2e6ec7bf9dd5c1a</title>
<path fill="none" stroke="black" d="M544.59,-431.89C535.76,-400.31 513.27,-332.1 474,-288 461.39,-273.84 444.15,-261.86 428.83,-252.9"/>
<polygon fill="black" stroke="black" points="430.5,-249.82 420.07,-247.97 427.07,-255.92 430.5,-249.82"/>
<g id="a_edge11&#45;headlabel"><a xlink:href="dir_000004_000050.xhtml" target="_top" xlink:title="8">
<text text-anchor="middle" x="435.03" y="-246.61" font-family="Helvetica,sans-Serif" font-size="10.00">8</text>
</a>
</g>
</g>
<!-- dir_cf895c1ed808af158264b2f3d8d7f8f0&#45;&gt;dir_214608ef36d61442cb2b0c1c4e9a7def -->
<g id="edge10" class="edge">
<title>dir_cf895c1ed808af158264b2f3d8d7f8f0&#45;&gt;dir_214608ef36d61442cb2b0c1c4e9a7def</title>
<path fill="none" stroke="black" d="M576.3,-435.91C592.43,-426.84 612,-413.29 624,-396 642.87,-368.81 638.74,-356.82 643,-324 650.71,-264.56 631.03,-243.69 590,-200 518.58,-123.94 392.13,-100.95 321.13,-94.01"/>
<polygon fill="black" stroke="black" points="321.34,-90.51 311.07,-93.09 320.71,-97.48 321.34,-90.51"/>
<g id="a_edge10&#45;headlabel"><a xlink:href="dir_000004_000000.xhtml" target="_top" xlink:title="598">
<text text-anchor="middle" x="325.18" y="-85.51" font-family="Helvetica,sans-Serif" font-size="10.00">598</text>
</a>
</g>
</g>
<!-- dir_cf895c1ed808af158264b2f3d8d7f8f0&#45;&gt;dir_5815af820a9cc9481f1d0990a0d60286 -->
<g id="edge13" class="edge">
<title>dir_cf895c1ed808af158264b2f3d8d7f8f0&#45;&gt;dir_5815af820a9cc9481f1d0990a0d60286</title>
<path fill="none" stroke="black" d="M576.03,-440.8C624.69,-424.18 722,-381.6 722,-307 722,-307 722,-307 722,-161 722,-74.16 415.04,-34.07 306.48,-22.6"/>
<polygon fill="black" stroke="black" points="306.62,-19.1 296.32,-21.55 305.9,-26.06 306.62,-19.1"/>
<g id="a_edge13&#45;headlabel"><a xlink:href="dir_000004_000032.xhtml" target="_top" xlink:title="109">
<text text-anchor="middle" x="310.49" y="-14.14" font-family="Helvetica,sans-Serif" font-size="10.00">109</text>
</a>
</g>
</g>
<!-- dir_cf895c1ed808af158264b2f3d8d7f8f0&#45;&gt;dir_fdedb0aba14d44ce9d99bc100e026e6a -->
<g id="edge15" class="edge">
<title>dir_cf895c1ed808af158264b2f3d8d7f8f0&#45;&gt;dir_fdedb0aba14d44ce9d99bc100e026e6a</title>
<path fill="none" stroke="black" d="M567.58,-431.99C596.85,-403.04 648.28,-342.04 627,-288 607.42,-238.26 590.98,-227.27 545,-200 512.62,-180.8 470.43,-171.48 439.92,-167.01"/>
<polygon fill="black" stroke="black" points="440.03,-163.49 429.65,-165.62 439.09,-170.43 440.03,-163.49"/>
<g id="a_edge15&#45;headlabel"><a xlink:href="dir_000004_000019.xhtml" target="_top" xlink:title="46">
<text text-anchor="middle" x="443.97" y="-158.66" font-family="Helvetica,sans-Serif" font-size="10.00">46</text>
</a>
</g>
</g>
<!-- dir_2c61f424fd391396db977702a2beee9a&#45;&gt;dir_34b4cee2b5900b653deb3438fc906cf4 -->
<g id="edge18" class="edge">
<title>dir_2c61f424fd391396db977702a2beee9a&#45;&gt;dir_34b4cee2b5900b653deb3438fc906cf4</title>
<path fill="none" stroke="black" d="M563.7,-289.46C546.92,-279.91 525.14,-267.52 506.61,-256.97"/>
<polygon fill="black" stroke="black" points="508.23,-253.87 497.8,-251.96 504.76,-259.95 508.23,-253.87"/>
<g id="a_edge18&#45;headlabel"><a xlink:href="dir_000374_000045.xhtml" target="_top" xlink:title="80">
<text text-anchor="middle" x="512.76" y="-250.68" font-family="Helvetica,sans-Serif" font-size="10.00">80</text>
</a>
</g>
</g>
<!-- dir_2c61f424fd391396db977702a2beee9a&#45;&gt;dir_1d7cadfed01c895b25460177608d44e9 -->
<g id="edge23" class="edge">
<title>dir_2c61f424fd391396db977702a2beee9a&#45;&gt;dir_1d7cadfed01c895b25460177608d44e9</title>
<path fill="none" stroke="black" d="M563.85,-299.2C511.51,-287.97 398.82,-263.56 357.95,-251.69"/>
<polygon fill="black" stroke="black" points="358.85,-248.3 348.26,-248.63 356.74,-254.98 358.85,-248.3"/>
<g id="a_edge23&#45;headlabel"><a xlink:href="dir_000374_000052.xhtml" target="_top" xlink:title="31">
<text text-anchor="middle" x="363.13" y="-244.17" font-family="Helvetica,sans-Serif" font-size="10.00">31</text>
</a>
</g>
</g>
<!-- dir_2c61f424fd391396db977702a2beee9a&#45;&gt;dir_707aa52d67938117542c6646238d6f70 -->
<g id="edge19" class="edge">
<title>dir_2c61f424fd391396db977702a2beee9a&#45;&gt;dir_707aa52d67938117542c6646238d6f70</title>
<path fill="none" stroke="black" d="M563.75,-318.22C535.03,-330.05 489.61,-348.75 457.74,-361.87"/>
<polygon fill="black" stroke="black" points="456.23,-358.71 448.31,-365.75 458.89,-365.18 456.23,-358.71"/>
<g id="a_edge19&#45;headlabel"><a xlink:href="dir_000374_000034.xhtml" target="_top" xlink:title="138">
<text text-anchor="middle" x="458.47" y="-352.22" font-family="Helvetica,sans-Serif" font-size="10.00">138</text>
</a>
</g>
</g>
<!-- dir_2c61f424fd391396db977702a2beee9a&#45;&gt;dir_d91e1966cc57df4f49d1e07be7697713 -->
<g id="edge21" class="edge">
<title>dir_2c61f424fd391396db977702a2beee9a&#45;&gt;dir_d91e1966cc57df4f49d1e07be7697713</title>
<path fill="none" stroke="black" d="M563.84,-306C510.03,-306 456.22,-306 402.41,-306"/>
<polygon fill="black" stroke="black" points="402.37,-302.5 392.37,-306 402.37,-309.5 402.37,-302.5"/>
<g id="a_edge21&#45;headlabel"><a xlink:href="dir_000374_000029.xhtml" target="_top" xlink:title="132">
<text text-anchor="middle" x="405.96" y="-297.16" font-family="Helvetica,sans-Serif" font-size="10.00">132</text>
</a>
</g>
</g>
<!-- dir_2c61f424fd391396db977702a2beee9a&#45;&gt;dir_a8053b3d69cfefb2b2e6ec7bf9dd5c1a -->
<g id="edge22" class="edge">
<title>dir_2c61f424fd391396db977702a2beee9a&#45;&gt;dir_a8053b3d69cfefb2b2e6ec7bf9dd5c1a</title>
<path fill="none" stroke="black" d="M563.9,-295.03C533.14,-285.1 482.14,-268.95 439,-252 435.97,-250.81 432.84,-249.5 429.68,-248.15"/>
<polygon fill="black" stroke="black" points="430.8,-244.82 420.23,-244.06 428.02,-251.24 430.8,-244.82"/>
<g id="a_edge22&#45;headlabel"><a xlink:href="dir_000374_000050.xhtml" target="_top" xlink:title="14">
<text text-anchor="middle" x="435.22" y="-241.14" font-family="Helvetica,sans-Serif" font-size="10.00">14</text>
</a>
</g>
</g>
<!-- dir_2c61f424fd391396db977702a2beee9a&#45;&gt;dir_214608ef36d61442cb2b0c1c4e9a7def -->
<g id="edge20" class="edge">
<title>dir_2c61f424fd391396db977702a2beee9a&#45;&gt;dir_214608ef36d61442cb2b0c1c4e9a7def</title>
<path fill="none" stroke="black" d="M587.22,-287.78C581.5,-265.21 568.71,-225.51 545,-200 485.28,-135.75 382.9,-108.75 321.03,-97.87"/>
<polygon fill="black" stroke="black" points="321.53,-94.4 311.09,-96.2 320.37,-101.31 321.53,-94.4"/>
<g id="a_edge20&#45;headlabel"><a xlink:href="dir_000374_000000.xhtml" target="_top" xlink:title="676">
<text text-anchor="middle" x="325.55" y="-89.7" font-family="Helvetica,sans-Serif" font-size="10.00">676</text>
</a>
</g>
</g>
<!-- dir_2c61f424fd391396db977702a2beee9a&#45;&gt;dir_5815af820a9cc9481f1d0990a0d60286 -->
<g id="edge24" class="edge">
<title>dir_2c61f424fd391396db977702a2beee9a&#45;&gt;dir_5815af820a9cc9481f1d0990a0d60286</title>
<path fill="none" stroke="black" d="M591.72,-287.84C591.88,-266.03 589.6,-227.88 574,-200 516.38,-97.01 374.08,-46.78 306.19,-28.04"/>
<polygon fill="black" stroke="black" points="306.91,-24.61 296.35,-25.4 305.1,-31.37 306.91,-24.61"/>
<g id="a_edge24&#45;headlabel"><a xlink:href="dir_000374_000032.xhtml" target="_top" xlink:title="15">
<text text-anchor="middle" x="311.12" y="-20.29" font-family="Helvetica,sans-Serif" font-size="10.00">15</text>
</a>
</g>
</g>
<!-- dir_2c61f424fd391396db977702a2beee9a&#45;&gt;dir_fdedb0aba14d44ce9d99bc100e026e6a -->
<g id="edge25" class="edge">
<title>dir_2c61f424fd391396db977702a2beee9a&#45;&gt;dir_fdedb0aba14d44ce9d99bc100e026e6a</title>
<path fill="none" stroke="black" d="M579.48,-287.67C561.55,-261.16 527.25,-212.29 510,-200 489.08,-185.1 461.72,-175.86 439.52,-170.34"/>
<polygon fill="black" stroke="black" points="440.26,-166.92 429.73,-168.06 438.67,-173.74 440.26,-166.92"/>
<g id="a_edge25&#45;headlabel"><a xlink:href="dir_000374_000019.xhtml" target="_top" xlink:title="48">
<text text-anchor="middle" x="444.4" y="-162.47" font-family="Helvetica,sans-Serif" font-size="10.00">48</text>
</a>
</g>
</g>
<!-- dir_214608ef36d61442cb2b0c1c4e9a7def&#45;&gt;dir_5815af820a9cc9481f1d0990a0d60286 -->
<g id="edge26" class="edge">
<title>dir_214608ef36d61442cb2b0c1c4e9a7def&#45;&gt;dir_5815af820a9cc9481f1d0990a0d60286</title>
<path fill="none" stroke="black" d="M263.08,-71.7C262.29,-63.98 262.06,-54.71 262.4,-46.11"/>
<polygon fill="black" stroke="black" points="265.9,-46.32 263.1,-36.1 258.92,-45.84 265.9,-46.32"/>
<g id="a_edge26&#45;headlabel"><a xlink:href="dir_000000_000032.xhtml" target="_top" xlink:title="16">
<text text-anchor="middle" x="268.48" y="-47.61" font-family="Helvetica,sans-Serif" font-size="10.00">16</text>
</a>
</g>
</g>
<!-- dir_5815af820a9cc9481f1d0990a0d60286&#45;&gt;dir_214608ef36d61442cb2b0c1c4e9a7def -->
<g id="edge42" class="edge">
<title>dir_5815af820a9cc9481f1d0990a0d60286&#45;&gt;dir_214608ef36d61442cb2b0c1c4e9a7def</title>
<path fill="none" stroke="black" d="M274.9,-36.1C275.7,-43.79 275.94,-53.05 275.6,-61.67"/>
<polygon fill="black" stroke="black" points="272.11,-61.48 274.92,-71.7 279.09,-61.96 272.11,-61.48"/>
<g id="a_edge42&#45;headlabel"><a xlink:href="dir_000032_000000.xhtml" target="_top" xlink:title="6">
<text text-anchor="middle" x="269.52" y="-55.2" font-family="Helvetica,sans-Serif" font-size="10.00">6</text>
</a>
</g>
</g>
<!-- dir_fdedb0aba14d44ce9d99bc100e026e6a&#45;&gt;dir_214608ef36d61442cb2b0c1c4e9a7def -->
<g id="edge45" class="edge">
<title>dir_fdedb0aba14d44ce9d99bc100e026e6a&#45;&gt;dir_214608ef36d61442cb2b0c1c4e9a7def</title>
<path fill="none" stroke="black" d="M370.27,-145.12C352.42,-135.57 329.45,-123.3 309.89,-112.85"/>
<polygon fill="black" stroke="black" points="311.37,-109.67 300.9,-108.04 308.07,-115.84 311.37,-109.67"/>
<g id="a_edge45&#45;headlabel"><a xlink:href="dir_000019_000000.xhtml" target="_top" xlink:title="17">
<text text-anchor="middle" x="315.87" y="-106.36" font-family="Helvetica,sans-Serif" font-size="10.00">17</text>
</a>
</g>
</g>
<!-- dir_fdedb0aba14d44ce9d99bc100e026e6a&#45;&gt;dir_5815af820a9cc9481f1d0990a0d60286 -->
<g id="edge46" class="edge">
<title>dir_fdedb0aba14d44ce9d99bc100e026e6a&#45;&gt;dir_5815af820a9cc9481f1d0990a0d60286</title>
<path fill="none" stroke="black" d="M394.79,-143.91C388.24,-124.64 375.44,-93.23 356,-72 341.89,-56.59 322.28,-44.12 305.25,-35.15"/>
<polygon fill="black" stroke="black" points="306.61,-31.92 296.1,-30.54 303.45,-38.17 306.61,-31.92"/>
<g id="a_edge46&#45;headlabel"><a xlink:href="dir_000019_000032.xhtml" target="_top" xlink:title="2">
<text text-anchor="middle" x="311.09" y="-28.5" font-family="Helvetica,sans-Serif" font-size="10.00">2</text>
</a>
</g>
</g>
</g>
</svg>
