<?xml version="1.0" encoding="UTF-8" standalone="no"?>
<!DOCTYPE svg PUBLIC "-//W3C//DTD SVG 1.1//EN"
 "http://www.w3.org/Graphics/SVG/1.1/DTD/svg11.dtd">
<!-- Generated by graphviz version 2.43.0 (0)
 -->
<!-- Title: arm_compute/core/experimental Pages: 1 -->
<svg width="122pt" height="151pt"
 viewBox="0.00 0.00 122.00 151.00" xmlns="http://www.w3.org/2000/svg" xmlns:xlink="http://www.w3.org/1999/xlink">
<g id="graph0" class="graph" transform="scale(1 1) rotate(0) translate(4 147)">
<title>arm_compute/core/experimental</title>
<polygon fill="white" stroke="transparent" points="-4,4 -4,-147 118,-147 118,4 -4,4"/>
<g id="clust1" class="cluster">
<title>clusterdir_1fb090f0c6070330bfaccc4236d3ca0d</title>
<g id="a_clust1"><a xlink:href="dir_1fb090f0c6070330bfaccc4236d3ca0d.xhtml" target="_top" xlink:title="core">
<polygon fill="#ddddee" stroke="black" points="8,-64 8,-135 106,-135 106,-64 8,-64"/>
<text text-anchor="middle" x="57" y="-123" font-family="Helvetica,sans-Serif" font-size="10.00">core</text>
</a>
</g>
</g>
<!-- dir_a0d10d1f11f896cb40f799a595f5f383 -->
<g id="node1" class="node">
<title>dir_a0d10d1f11f896cb40f799a595f5f383</title>
<g id="a_node1"><a xlink:href="dir_a0d10d1f11f896cb40f799a595f5f383.xhtml" target="_top" xlink:title="experimental">
<polygon fill="#eeeeff" stroke="black" points="98,-108 16,-108 16,-72 98,-72 98,-108"/>
<text text-anchor="middle" x="57" y="-87.5" font-family="Helvetica,sans-Serif" font-size="10.00">experimental</text>
</a>
</g>
</g>
<!-- dir_c9636d973c877190ddc5121fa1f43c4f -->
<g id="node2" class="node">
<title>dir_c9636d973c877190ddc5121fa1f43c4f</title>
<g id="a_node2"><a xlink:href="dir_c9636d973c877190ddc5121fa1f43c4f.xhtml" target="_top" xlink:title="function_info">
<polygon fill="none" stroke="black" points="97,-36 17,-36 17,0 97,0 97,-36"/>
<text text-anchor="middle" x="57" y="-15.5" font-family="Helvetica,sans-Serif" font-size="10.00">function_info</text>
</a>
</g>
</g>
<!-- dir_a0d10d1f11f896cb40f799a595f5f383&#45;&gt;dir_c9636d973c877190ddc5121fa1f43c4f -->
<g id="edge2" class="edge">
<title>dir_a0d10d1f11f896cb40f799a595f5f383&#45;&gt;dir_c9636d973c877190ddc5121fa1f43c4f</title>
<path fill="none" stroke="black" d="M51.08,-71.7C50.29,-63.98 50.06,-54.71 50.4,-46.11"/>
<polygon fill="black" stroke="black" points="53.9,-46.32 51.1,-36.1 46.92,-45.84 53.9,-46.32"/>
<g id="a_edge2&#45;headlabel"><a xlink:href="dir_000010_000061.xhtml" target="_top" xlink:title="1">
<text text-anchor="middle" x="56.48" y="-47.61" font-family="Helvetica,sans-Serif" font-size="10.00">1</text>
</a>
</g>
</g>
<!-- dir_c9636d973c877190ddc5121fa1f43c4f&#45;&gt;dir_a0d10d1f11f896cb40f799a595f5f383 -->
<g id="edge1" class="edge">
<title>dir_c9636d973c877190ddc5121fa1f43c4f&#45;&gt;dir_a0d10d1f11f896cb40f799a595f5f383</title>
<path fill="none" stroke="black" d="M62.9,-36.1C63.7,-43.79 63.94,-53.05 63.6,-61.67"/>
<polygon fill="black" stroke="black" points="60.11,-61.48 62.92,-71.7 67.09,-61.96 60.11,-61.48"/>
<g id="a_edge1&#45;headlabel"><a xlink:href="dir_000061_000010.xhtml" target="_top" xlink:title="1">
<text text-anchor="middle" x="57.52" y="-55.2" font-family="Helvetica,sans-Serif" font-size="10.00">1</text>
</a>
</g>
</g>
</g>
</svg>
