<?xml version="1.0" encoding="UTF-8" standalone="no"?>
<!DOCTYPE svg PUBLIC "-//W3C//DTD SVG 1.1//EN"
 "http://www.w3.org/Graphics/SVG/1.1/DTD/svg11.dtd">
<!-- Generated by graphviz version 2.43.0 (0)
 -->
<!-- Title: arm_compute/runtime/CL Pages: 1 -->
<svg width="310pt" height="303pt"
 viewBox="0.00 0.00 310.00 303.00" xmlns="http://www.w3.org/2000/svg" xmlns:xlink="http://www.w3.org/1999/xlink">
<g id="graph0" class="graph" transform="scale(1 1) rotate(0) translate(4 299)">
<title>arm_compute/runtime/CL</title>
<polygon fill="white" stroke="transparent" points="-4,4 -4,-299 306,-299 306,4 -4,4"/>
<g id="clust1" class="cluster">
<title>clusterdir_8bc26130589aa16388b5a02f17abf2c2</title>
<g id="a_clust1"><a xlink:href="dir_8bc26130589aa16388b5a02f17abf2c2.xhtml" target="_top" xlink:title="runtime">
<polygon fill="#ddddee" stroke="black" points="101,-128 101,-287 259,-287 259,-128 101,-128"/>
<text text-anchor="middle" x="180" y="-275" font-family="Helvetica,sans-Serif" font-size="10.00">runtime</text>
</a>
</g>
</g>
<g id="clust2" class="cluster">
<title>clusterdir_b986aa98f9b6490bb4fc7918500346fb</title>
<g id="a_clust2"><a xlink:href="dir_b986aa98f9b6490bb4fc7918500346fb.xhtml" target="_top">
<polygon fill="#eeeeff" stroke="black" points="109,-136 109,-260 251,-260 251,-136 109,-136"/>
</a>
</g>
</g>
<!-- dir_b986aa98f9b6490bb4fc7918500346fb -->
<g id="node1" class="node">
<title>dir_b986aa98f9b6490bb4fc7918500346fb</title>
<text text-anchor="middle" x="144" y="-231.5" font-family="Helvetica,sans-Serif" font-size="10.00">CL</text>
</g>
<!-- dir_251c63bc3f70b60acf43edd6d870a3ef -->
<g id="node2" class="node">
<title>dir_251c63bc3f70b60acf43edd6d870a3ef</title>
<g id="a_node2"><a xlink:href="dir_251c63bc3f70b60acf43edd6d870a3ef.xhtml" target="_top" xlink:title="functions">
<polygon fill="white" stroke="black" points="179,-180 117,-180 117,-144 179,-144 179,-180"/>
<text text-anchor="middle" x="148" y="-159.5" font-family="Helvetica,sans-Serif" font-size="10.00">functions</text>
</a>
</g>
</g>
<!-- dir_b986aa98f9b6490bb4fc7918500346fb&#45;&gt;dir_251c63bc3f70b60acf43edd6d870a3ef -->
<g id="edge15" class="edge">
<title>dir_b986aa98f9b6490bb4fc7918500346fb&#45;&gt;dir_251c63bc3f70b60acf43edd6d870a3ef</title>
<path fill="none" stroke="black" d="M144.99,-215.7C145.43,-207.98 145.96,-198.71 146.45,-190.11"/>
<polygon fill="black" stroke="black" points="149.95,-190.29 147.02,-180.1 142.96,-189.89 149.95,-190.29"/>
<g id="a_edge15&#45;headlabel"><a xlink:href="dir_000007_000068.xhtml" target="_top" xlink:title="88">
<text text-anchor="middle" x="152.58" y="-191.54" font-family="Helvetica,sans-Serif" font-size="10.00">88</text>
</a>
</g>
</g>
<!-- dir_1fb090f0c6070330bfaccc4236d3ca0d -->
<g id="node6" class="node">
<title>dir_1fb090f0c6070330bfaccc4236d3ca0d</title>
<g id="a_node6"><a xlink:href="dir_1fb090f0c6070330bfaccc4236d3ca0d.xhtml" target="_top" xlink:title="core">
<polygon fill="white" stroke="red" points="230,-108 176,-108 176,-72 230,-72 230,-108"/>
<text text-anchor="middle" x="203" y="-87.5" font-family="Helvetica,sans-Serif" font-size="10.00">core</text>
</a>
</g>
</g>
<!-- dir_b986aa98f9b6490bb4fc7918500346fb&#45;&gt;dir_1fb090f0c6070330bfaccc4236d3ca0d -->
<g id="edge16" class="edge">
<title>dir_b986aa98f9b6490bb4fc7918500346fb&#45;&gt;dir_1fb090f0c6070330bfaccc4236d3ca0d</title>
<path fill="none" stroke="black" d="M162.55,-215.54C171.64,-205.92 181.92,-193.26 188,-180 196.91,-160.56 200.58,-136.56 202.07,-118.38"/>
<polygon fill="black" stroke="black" points="205.58,-118.38 202.73,-108.17 198.59,-117.93 205.58,-118.38"/>
<g id="a_edge16&#45;headlabel"><a xlink:href="dir_000007_000001.xhtml" target="_top" xlink:title="109">
<text text-anchor="middle" x="208.18" y="-119.65" font-family="Helvetica,sans-Serif" font-size="10.00">109</text>
</a>
</g>
</g>
<!-- dir_5815af820a9cc9481f1d0990a0d60286 -->
<g id="node7" class="node">
<title>dir_5815af820a9cc9481f1d0990a0d60286</title>
<g id="a_node7"><a xlink:href="dir_5815af820a9cc9481f1d0990a0d60286.xhtml" target="_top" xlink:title="support">
<polygon fill="none" stroke="black" points="302,-36 248,-36 248,0 302,0 302,-36"/>
<text text-anchor="middle" x="275" y="-15.5" font-family="Helvetica,sans-Serif" font-size="10.00">support</text>
</a>
</g>
</g>
<!-- dir_b986aa98f9b6490bb4fc7918500346fb&#45;&gt;dir_5815af820a9cc9481f1d0990a0d60286 -->
<g id="edge17" class="edge">
<title>dir_b986aa98f9b6490bb4fc7918500346fb&#45;&gt;dir_5815af820a9cc9481f1d0990a0d60286</title>
<path fill="none" stroke="black" d="M170.7,-215.88C183.62,-206.53 198.55,-194.01 209,-180 239.96,-138.48 259.05,-80.36 268.29,-46.5"/>
<polygon fill="black" stroke="black" points="271.78,-46.97 270.94,-36.41 265.01,-45.19 271.78,-46.97"/>
<g id="a_edge17&#45;headlabel"><a xlink:href="dir_000007_000032.xhtml" target="_top" xlink:title="2">
<text text-anchor="middle" x="273.62" y="-48.67" font-family="Helvetica,sans-Serif" font-size="10.00">2</text>
</a>
</g>
</g>
<!-- dir_b496024afd63bafbf4e8da80d7d3a81a -->
<g id="node4" class="node">
<title>dir_b496024afd63bafbf4e8da80d7d3a81a</title>
<g id="a_node4"><a xlink:href="dir_b496024afd63bafbf4e8da80d7d3a81a.xhtml" target="_top" xlink:title="CPP">
<polygon fill="white" stroke="red" points="230,-36 176,-36 176,0 230,0 230,-36"/>
<text text-anchor="middle" x="203" y="-15.5" font-family="Helvetica,sans-Serif" font-size="10.00">CPP</text>
</a>
</g>
</g>
<!-- dir_251c63bc3f70b60acf43edd6d870a3ef&#45;&gt;dir_b496024afd63bafbf4e8da80d7d3a81a -->
<g id="edge1" class="edge">
<title>dir_251c63bc3f70b60acf43edd6d870a3ef&#45;&gt;dir_b496024afd63bafbf4e8da80d7d3a81a</title>
<path fill="none" stroke="black" d="M149.7,-143.67C151.95,-125.29 156.89,-95.69 167,-72 171.08,-62.43 176.99,-52.78 182.84,-44.39"/>
<polygon fill="black" stroke="black" points="185.78,-46.29 188.84,-36.15 180.12,-42.17 185.78,-46.29"/>
<g id="a_edge1&#45;headlabel"><a xlink:href="dir_000068_000072.xhtml" target="_top" xlink:title="3">
<text text-anchor="middle" x="185.96" y="-48.37" font-family="Helvetica,sans-Serif" font-size="10.00">3</text>
</a>
</g>
</g>
<!-- dir_c9636d973c877190ddc5121fa1f43c4f -->
<g id="node5" class="node">
<title>dir_c9636d973c877190ddc5121fa1f43c4f</title>
<g id="a_node5"><a xlink:href="dir_c9636d973c877190ddc5121fa1f43c4f.xhtml" target="_top" xlink:title="function_info">
<polygon fill="none" stroke="black" points="80,-36 0,-36 0,0 80,0 80,-36"/>
<text text-anchor="middle" x="40" y="-15.5" font-family="Helvetica,sans-Serif" font-size="10.00">function_info</text>
</a>
</g>
</g>
<!-- dir_251c63bc3f70b60acf43edd6d870a3ef&#45;&gt;dir_c9636d973c877190ddc5121fa1f43c4f -->
<g id="edge2" class="edge">
<title>dir_251c63bc3f70b60acf43edd6d870a3ef&#45;&gt;dir_c9636d973c877190ddc5121fa1f43c4f</title>
<path fill="none" stroke="black" d="M134.97,-143.87C116.16,-119.14 81.25,-73.24 59.4,-44.51"/>
<polygon fill="black" stroke="black" points="61.91,-42.03 53.07,-36.19 56.34,-46.27 61.91,-42.03"/>
<g id="a_edge2&#45;headlabel"><a xlink:href="dir_000068_000061.xhtml" target="_top" xlink:title="14">
<text text-anchor="middle" x="66.35" y="-40.67" font-family="Helvetica,sans-Serif" font-size="10.00">14</text>
</a>
</g>
</g>
<!-- dir_251c63bc3f70b60acf43edd6d870a3ef&#45;&gt;dir_1fb090f0c6070330bfaccc4236d3ca0d -->
<g id="edge3" class="edge">
<title>dir_251c63bc3f70b60acf43edd6d870a3ef&#45;&gt;dir_1fb090f0c6070330bfaccc4236d3ca0d</title>
<path fill="none" stroke="black" d="M161.6,-143.7C168.12,-135.39 176.07,-125.28 183.25,-116.14"/>
<polygon fill="black" stroke="black" points="186.13,-118.13 189.56,-108.1 180.63,-113.81 186.13,-118.13"/>
<g id="a_edge3&#45;headlabel"><a xlink:href="dir_000068_000001.xhtml" target="_top" xlink:title="76">
<text text-anchor="middle" x="186.15" y="-120.21" font-family="Helvetica,sans-Serif" font-size="10.00">76</text>
</a>
</g>
</g>
<!-- dir_b9621ae687ab229876c54f8c2df20e15 -->
<g id="node8" class="node">
<title>dir_b9621ae687ab229876c54f8c2df20e15</title>
<g id="a_node8"><a xlink:href="dir_b9621ae687ab229876c54f8c2df20e15.xhtml" target="_top" xlink:title="common">
<polygon fill="none" stroke="black" points="157.5,-36 98.5,-36 98.5,0 157.5,0 157.5,-36"/>
<text text-anchor="middle" x="128" y="-15.5" font-family="Helvetica,sans-Serif" font-size="10.00">common</text>
</a>
</g>
</g>
<!-- dir_251c63bc3f70b60acf43edd6d870a3ef&#45;&gt;dir_b9621ae687ab229876c54f8c2df20e15 -->
<g id="edge4" class="edge">
<title>dir_251c63bc3f70b60acf43edd6d870a3ef&#45;&gt;dir_b9621ae687ab229876c54f8c2df20e15</title>
<path fill="none" stroke="black" d="M142.62,-143.99C139.58,-133.69 136.01,-120.21 134,-108 130.63,-87.5 129.15,-64.04 128.5,-46.36"/>
<polygon fill="black" stroke="black" points="131.99,-46.06 128.19,-36.17 124.99,-46.27 131.99,-46.06"/>
<g id="a_edge4&#45;headlabel"><a xlink:href="dir_000068_000071.xhtml" target="_top" xlink:title="3">
<text text-anchor="middle" x="134.93" y="-47.07" font-family="Helvetica,sans-Serif" font-size="10.00">3</text>
</a>
</g>
</g>
<!-- dir_50b23570393db6a4ca8647d7d5ff6dbe -->
<g id="node3" class="node">
<title>dir_50b23570393db6a4ca8647d7d5ff6dbe</title>
<g id="a_node3"><a xlink:href="dir_50b23570393db6a4ca8647d7d5ff6dbe.xhtml" target="_top" xlink:title="tuners">
<polygon fill="white" stroke="black" points="243,-252 189,-252 189,-216 243,-216 243,-252"/>
<text text-anchor="middle" x="216" y="-231.5" font-family="Helvetica,sans-Serif" font-size="10.00">tuners</text>
</a>
</g>
</g>
<!-- dir_50b23570393db6a4ca8647d7d5ff6dbe&#45;&gt;dir_1fb090f0c6070330bfaccc4236d3ca0d -->
<g id="edge6" class="edge">
<title>dir_50b23570393db6a4ca8647d7d5ff6dbe&#45;&gt;dir_1fb090f0c6070330bfaccc4236d3ca0d</title>
<path fill="none" stroke="black" d="M219.67,-215.65C223.47,-194.62 227.96,-158.23 221,-128 220.19,-124.48 219,-120.91 217.61,-117.45"/>
<polygon fill="black" stroke="black" points="220.66,-115.72 213.31,-108.09 214.3,-118.64 220.66,-115.72"/>
<g id="a_edge6&#45;headlabel"><a xlink:href="dir_000070_000001.xhtml" target="_top" xlink:title="3">
<text text-anchor="middle" x="224.74" y="-115.3" font-family="Helvetica,sans-Serif" font-size="10.00">3</text>
</a>
</g>
</g>
<!-- dir_50b23570393db6a4ca8647d7d5ff6dbe&#45;&gt;dir_5815af820a9cc9481f1d0990a0d60286 -->
<g id="edge7" class="edge">
<title>dir_50b23570393db6a4ca8647d7d5ff6dbe&#45;&gt;dir_5815af820a9cc9481f1d0990a0d60286</title>
<path fill="none" stroke="black" d="M226.22,-215.95C239.63,-192.57 262.56,-148.77 272,-108 276.7,-87.7 277.28,-64.1 276.78,-46.31"/>
<polygon fill="black" stroke="black" points="280.28,-46.16 276.37,-36.32 273.28,-46.45 280.28,-46.16"/>
<g id="a_edge7&#45;headlabel"><a xlink:href="dir_000070_000032.xhtml" target="_top" xlink:title="1">
<text text-anchor="middle" x="283.26" y="-47.14" font-family="Helvetica,sans-Serif" font-size="10.00">1</text>
</a>
</g>
</g>
<!-- dir_b496024afd63bafbf4e8da80d7d3a81a&#45;&gt;dir_1fb090f0c6070330bfaccc4236d3ca0d -->
<g id="edge5" class="edge">
<title>dir_b496024afd63bafbf4e8da80d7d3a81a&#45;&gt;dir_1fb090f0c6070330bfaccc4236d3ca0d</title>
<path fill="none" stroke="black" d="M208.9,-36.1C209.7,-43.79 209.94,-53.05 209.6,-61.67"/>
<polygon fill="black" stroke="black" points="206.11,-61.48 208.92,-71.7 213.09,-61.96 206.11,-61.48"/>
<g id="a_edge5&#45;headlabel"><a xlink:href="dir_000072_000001.xhtml" target="_top" xlink:title="15">
<text text-anchor="middle" x="203.52" y="-55.2" font-family="Helvetica,sans-Serif" font-size="10.00">15</text>
</a>
</g>
</g>
<!-- dir_c9636d973c877190ddc5121fa1f43c4f&#45;&gt;dir_1fb090f0c6070330bfaccc4236d3ca0d -->
<g id="edge8" class="edge">
<title>dir_c9636d973c877190ddc5121fa1f43c4f&#45;&gt;dir_1fb090f0c6070330bfaccc4236d3ca0d</title>
<path fill="none" stroke="black" d="M80.14,-33.82C106.6,-44.6 140.87,-59.26 166.55,-70.76"/>
<polygon fill="black" stroke="black" points="165.38,-74.08 175.93,-75 168.26,-67.7 165.38,-74.08"/>
<g id="a_edge8&#45;headlabel"><a xlink:href="dir_000061_000001.xhtml" target="_top" xlink:title="7">
<text text-anchor="middle" x="160.93" y="-72.69" font-family="Helvetica,sans-Serif" font-size="10.00">7</text>
</a>
</g>
</g>
<!-- dir_1fb090f0c6070330bfaccc4236d3ca0d&#45;&gt;dir_b496024afd63bafbf4e8da80d7d3a81a -->
<g id="edge9" class="edge">
<title>dir_1fb090f0c6070330bfaccc4236d3ca0d&#45;&gt;dir_b496024afd63bafbf4e8da80d7d3a81a</title>
<path fill="none" stroke="black" d="M197.08,-71.7C196.29,-63.98 196.06,-54.71 196.4,-46.11"/>
<polygon fill="black" stroke="black" points="199.9,-46.32 197.1,-36.1 192.92,-45.84 199.9,-46.32"/>
<g id="a_edge9&#45;headlabel"><a xlink:href="dir_000001_000072.xhtml" target="_top" xlink:title="1">
<text text-anchor="middle" x="202.48" y="-47.61" font-family="Helvetica,sans-Serif" font-size="10.00">1</text>
</a>
</g>
</g>
<!-- dir_1fb090f0c6070330bfaccc4236d3ca0d&#45;&gt;dir_c9636d973c877190ddc5121fa1f43c4f -->
<g id="edge10" class="edge">
<title>dir_1fb090f0c6070330bfaccc4236d3ca0d&#45;&gt;dir_c9636d973c877190ddc5121fa1f43c4f</title>
<path fill="none" stroke="black" d="M175.86,-79.41C150.56,-69.38 112.63,-53.3 83.21,-40.25"/>
<polygon fill="black" stroke="black" points="84.55,-37.01 73.99,-36.13 81.69,-43.4 84.55,-37.01"/>
<g id="a_edge10&#45;headlabel"><a xlink:href="dir_000001_000061.xhtml" target="_top" xlink:title="8">
<text text-anchor="middle" x="88.99" y="-33.38" font-family="Helvetica,sans-Serif" font-size="10.00">8</text>
</a>
</g>
</g>
<!-- dir_1fb090f0c6070330bfaccc4236d3ca0d&#45;&gt;dir_5815af820a9cc9481f1d0990a0d60286 -->
<g id="edge11" class="edge">
<title>dir_1fb090f0c6070330bfaccc4236d3ca0d&#45;&gt;dir_5815af820a9cc9481f1d0990a0d60286</title>
<path fill="none" stroke="black" d="M214.88,-71.7C222.88,-63.05 233.61,-52.45 243.84,-43.03"/>
<polygon fill="black" stroke="black" points="246.43,-45.4 251.51,-36.1 241.74,-40.21 246.43,-45.4"/>
<g id="a_edge11&#45;headlabel"><a xlink:href="dir_000001_000032.xhtml" target="_top" xlink:title="9">
<text text-anchor="middle" x="245.67" y="-47.42" font-family="Helvetica,sans-Serif" font-size="10.00">9</text>
</a>
</g>
</g>
<!-- dir_1fb090f0c6070330bfaccc4236d3ca0d&#45;&gt;dir_b9621ae687ab229876c54f8c2df20e15 -->
<g id="edge12" class="edge">
<title>dir_1fb090f0c6070330bfaccc4236d3ca0d&#45;&gt;dir_b9621ae687ab229876c54f8c2df20e15</title>
<path fill="none" stroke="black" d="M178.54,-71.7C168.49,-63.14 157.08,-52.66 147.58,-43.3"/>
<polygon fill="black" stroke="black" points="149.96,-40.74 140.43,-36.1 144.99,-45.67 149.96,-40.74"/>
<g id="a_edge12&#45;headlabel"><a xlink:href="dir_000001_000071.xhtml" target="_top" xlink:title="1">
<text text-anchor="middle" x="154.51" y="-38.79" font-family="Helvetica,sans-Serif" font-size="10.00">1</text>
</a>
</g>
</g>
<!-- dir_5815af820a9cc9481f1d0990a0d60286&#45;&gt;dir_1fb090f0c6070330bfaccc4236d3ca0d -->
<g id="edge13" class="edge">
<title>dir_5815af820a9cc9481f1d0990a0d60286&#45;&gt;dir_1fb090f0c6070330bfaccc4236d3ca0d</title>
<path fill="none" stroke="black" d="M263.3,-36.1C255.34,-44.72 244.63,-55.32 234.4,-64.76"/>
<polygon fill="black" stroke="black" points="231.79,-62.4 226.71,-71.7 236.48,-67.59 231.79,-62.4"/>
<g id="a_edge13&#45;headlabel"><a xlink:href="dir_000032_000001.xhtml" target="_top" xlink:title="6">
<text text-anchor="middle" x="232.55" y="-55.38" font-family="Helvetica,sans-Serif" font-size="10.00">6</text>
</a>
</g>
</g>
<!-- dir_b9621ae687ab229876c54f8c2df20e15&#45;&gt;dir_1fb090f0c6070330bfaccc4236d3ca0d -->
<g id="edge14" class="edge">
<title>dir_b9621ae687ab229876c54f8c2df20e15&#45;&gt;dir_1fb090f0c6070330bfaccc4236d3ca0d</title>
<path fill="none" stroke="black" d="M152.22,-36.1C162.26,-44.64 173.67,-55.11 183.2,-64.48"/>
<polygon fill="black" stroke="black" points="180.84,-67.07 190.38,-71.7 185.81,-62.14 180.84,-67.07"/>
<g id="a_edge14&#45;headlabel"><a xlink:href="dir_000071_000001.xhtml" target="_top" xlink:title="1">
<text text-anchor="middle" x="176.3" y="-64.02" font-family="Helvetica,sans-Serif" font-size="10.00">1</text>
</a>
</g>
</g>
</g>
</svg>
