<?xml version="1.0" encoding="UTF-8" standalone="no"?>
<!DOCTYPE svg PUBLIC "-//W3C//DTD SVG 1.1//EN"
 "http://www.w3.org/Graphics/SVG/1.1/DTD/svg11.dtd">
<!-- Generated by graphviz version 2.43.0 (0)
 -->
<!-- Title: src/dynamic_fusion/sketch Pages: 1 -->
<svg width="597pt" height="519pt"
 viewBox="0.00 0.00 597.00 519.00" xmlns="http://www.w3.org/2000/svg" xmlns:xlink="http://www.w3.org/1999/xlink">
<g id="graph0" class="graph" transform="scale(1 1) rotate(0) translate(4 515)">
<title>src/dynamic_fusion/sketch</title>
<polygon fill="white" stroke="transparent" points="-4,4 -4,-515 593,-515 593,4 -4,4"/>
<g id="clust1" class="cluster">
<title>clusterdir_5ff8356557e4f59c6a20c3735e8d2267</title>
<g id="a_clust1"><a xlink:href="dir_5ff8356557e4f59c6a20c3735e8d2267.xhtml" target="_top" xlink:title="dynamic_fusion">
<polygon fill="#ddddee" stroke="black" points="8,-344 8,-503 248,-503 248,-344 8,-344"/>
<text text-anchor="middle" x="128" y="-491" font-family="Helvetica,sans-Serif" font-size="10.00">dynamic_fusion</text>
</a>
</g>
</g>
<g id="clust2" class="cluster">
<title>clusterdir_729ca8b25cabcdcb8b11b571ea7b237a</title>
<g id="a_clust2"><a xlink:href="dir_729ca8b25cabcdcb8b11b571ea7b237a.xhtml" target="_top">
<polygon fill="#eeeeff" stroke="black" points="16,-352 16,-476 240,-476 240,-352 16,-352"/>
</a>
</g>
</g>
<!-- dir_729ca8b25cabcdcb8b11b571ea7b237a -->
<g id="node1" class="node">
<title>dir_729ca8b25cabcdcb8b11b571ea7b237a</title>
<text text-anchor="middle" x="205" y="-447.5" font-family="Helvetica,sans-Serif" font-size="10.00">sketch</text>
</g>
<!-- dir_f5f047a49792c148c70e15a99f854793 -->
<g id="node2" class="node">
<title>dir_f5f047a49792c148c70e15a99f854793</title>
<g id="a_node2"><a xlink:href="dir_f5f047a49792c148c70e15a99f854793.xhtml" target="_top" xlink:title="attributes">
<polygon fill="white" stroke="black" points="88,-468 24,-468 24,-432 88,-432 88,-468"/>
<text text-anchor="middle" x="56" y="-447.5" font-family="Helvetica,sans-Serif" font-size="10.00">attributes</text>
</a>
</g>
</g>
<!-- dir_214608ef36d61442cb2b0c1c4e9a7def -->
<g id="node7" class="node">
<title>dir_214608ef36d61442cb2b0c1c4e9a7def</title>
<g id="a_node7"><a xlink:href="dir_214608ef36d61442cb2b0c1c4e9a7def.xhtml" target="_top" xlink:title="arm_compute">
<polygon fill="white" stroke="red" points="334,-108 250,-108 250,-72 334,-72 334,-108"/>
<text text-anchor="middle" x="292" y="-87.5" font-family="Helvetica,sans-Serif" font-size="10.00">arm_compute</text>
</a>
</g>
</g>
<!-- dir_f5f047a49792c148c70e15a99f854793&#45;&gt;dir_214608ef36d61442cb2b0c1c4e9a7def -->
<g id="edge16" class="edge">
<title>dir_f5f047a49792c148c70e15a99f854793&#45;&gt;dir_214608ef36d61442cb2b0c1c4e9a7def</title>
<path fill="none" stroke="black" d="M66.57,-431.79C81.51,-405.77 107,-354.41 107,-307 107,-307 107,-307 107,-233 107,-186.96 125.02,-173.93 160,-144 182.88,-124.43 213.9,-111.47 240.13,-103.28"/>
<polygon fill="black" stroke="black" points="241.33,-106.57 249.92,-100.37 239.34,-99.86 241.33,-106.57"/>
<g id="a_edge16&#45;headlabel"><a xlink:href="dir_000492_000000.xhtml" target="_top" xlink:title="9">
<text text-anchor="middle" x="238.7" y="-107.82" font-family="Helvetica,sans-Serif" font-size="10.00">9</text>
</a>
</g>
</g>
<!-- dir_df94d166e0e6f49d063cb29fea25a88b -->
<g id="node3" class="node">
<title>dir_df94d166e0e6f49d063cb29fea25a88b</title>
<g id="a_node3"><a xlink:href="dir_df94d166e0e6f49d063cb29fea25a88b.xhtml" target="_top" xlink:title="gpu">
<polygon fill="white" stroke="red" points="160,-468 106,-468 106,-432 160,-432 160,-468"/>
<text text-anchor="middle" x="133" y="-447.5" font-family="Helvetica,sans-Serif" font-size="10.00">gpu</text>
</a>
</g>
</g>
<!-- dir_bdd04b65c107278b5119b030d13de22c -->
<g id="node4" class="node">
<title>dir_bdd04b65c107278b5119b030d13de22c</title>
<g id="a_node4"><a xlink:href="dir_bdd04b65c107278b5119b030d13de22c.xhtml" target="_top" xlink:title="utils">
<polygon fill="white" stroke="black" points="227,-396 173,-396 173,-360 227,-360 227,-396"/>
<text text-anchor="middle" x="200" y="-375.5" font-family="Helvetica,sans-Serif" font-size="10.00">utils</text>
</a>
</g>
</g>
<!-- dir_df94d166e0e6f49d063cb29fea25a88b&#45;&gt;dir_bdd04b65c107278b5119b030d13de22c -->
<g id="edge14" class="edge">
<title>dir_df94d166e0e6f49d063cb29fea25a88b&#45;&gt;dir_bdd04b65c107278b5119b030d13de22c</title>
<path fill="none" stroke="black" d="M149.56,-431.7C157.68,-423.22 167.59,-412.86 176.47,-403.58"/>
<polygon fill="black" stroke="black" points="179.24,-405.75 183.63,-396.1 174.19,-400.91 179.24,-405.75"/>
<g id="a_edge14&#45;headlabel"><a xlink:href="dir_000025_000504.xhtml" target="_top" xlink:title="2">
<text text-anchor="middle" x="178.81" y="-407.81" font-family="Helvetica,sans-Serif" font-size="10.00">2</text>
</a>
</g>
</g>
<!-- dir_cf895c1ed808af158264b2f3d8d7f8f0 -->
<g id="node5" class="node">
<title>dir_cf895c1ed808af158264b2f3d8d7f8f0</title>
<g id="a_node5"><a xlink:href="dir_cf895c1ed808af158264b2f3d8d7f8f0.xhtml" target="_top" xlink:title="gpu">
<polygon fill="white" stroke="red" points="425,-396 371,-396 371,-360 425,-360 425,-396"/>
<text text-anchor="middle" x="398" y="-375.5" font-family="Helvetica,sans-Serif" font-size="10.00">gpu</text>
</a>
</g>
</g>
<!-- dir_df94d166e0e6f49d063cb29fea25a88b&#45;&gt;dir_cf895c1ed808af158264b2f3d8d7f8f0 -->
<g id="edge7" class="edge">
<title>dir_df94d166e0e6f49d063cb29fea25a88b&#45;&gt;dir_cf895c1ed808af158264b2f3d8d7f8f0</title>
<path fill="none" stroke="black" d="M160.23,-435.29C163.15,-434.08 166.11,-432.95 169,-432 247.74,-406.11 272.2,-418.44 352,-396 355.11,-395.12 358.32,-394.13 361.52,-393.08"/>
<polygon fill="black" stroke="black" points="362.69,-396.38 370.99,-389.8 360.4,-389.76 362.69,-396.38"/>
<g id="a_edge7&#45;headlabel"><a xlink:href="dir_000025_000004.xhtml" target="_top" xlink:title="2">
<text text-anchor="middle" x="360.23" y="-397.74" font-family="Helvetica,sans-Serif" font-size="10.00">2</text>
</a>
</g>
</g>
<!-- dir_8824b015e2d84b32c32abeb682f6ceb8 -->
<g id="node6" class="node">
<title>dir_8824b015e2d84b32c32abeb682f6ceb8</title>
<g id="a_node6"><a xlink:href="dir_8824b015e2d84b32c32abeb682f6ceb8.xhtml" target="_top" xlink:title="utils">
<polygon fill="none" stroke="black" points="310,-396 256,-396 256,-360 310,-360 310,-396"/>
<text text-anchor="middle" x="283" y="-375.5" font-family="Helvetica,sans-Serif" font-size="10.00">utils</text>
</a>
</g>
</g>
<!-- dir_df94d166e0e6f49d063cb29fea25a88b&#45;&gt;dir_8824b015e2d84b32c32abeb682f6ceb8 -->
<g id="edge8" class="edge">
<title>dir_df94d166e0e6f49d063cb29fea25a88b&#45;&gt;dir_8824b015e2d84b32c32abeb682f6ceb8</title>
<path fill="none" stroke="black" d="M160.12,-436.17C163.11,-434.76 166.12,-433.35 169,-432 194.94,-419.85 224.25,-406.22 246.65,-395.83"/>
<polygon fill="black" stroke="black" points="248.2,-398.97 255.8,-391.59 245.25,-392.62 248.2,-398.97"/>
<g id="a_edge8&#45;headlabel"><a xlink:href="dir_000025_000035.xhtml" target="_top" xlink:title="3">
<text text-anchor="middle" x="246.13" y="-400.56" font-family="Helvetica,sans-Serif" font-size="10.00">3</text>
</a>
</g>
</g>
<!-- dir_df94d166e0e6f49d063cb29fea25a88b&#45;&gt;dir_214608ef36d61442cb2b0c1c4e9a7def -->
<g id="edge9" class="edge">
<title>dir_df94d166e0e6f49d063cb29fea25a88b&#45;&gt;dir_214608ef36d61442cb2b0c1c4e9a7def</title>
<path fill="none" stroke="black" d="M135.37,-431.99C138.87,-405.38 145,-352.28 145,-307 145,-307 145,-307 145,-233 145,-176.85 201.17,-135.86 244.07,-112.74"/>
<polygon fill="black" stroke="black" points="245.75,-115.81 252.99,-108.08 242.51,-109.61 245.75,-115.81"/>
<g id="a_edge9&#45;headlabel"><a xlink:href="dir_000025_000000.xhtml" target="_top" xlink:title="156">
<text text-anchor="middle" x="243.88" y="-117.49" font-family="Helvetica,sans-Serif" font-size="10.00">156</text>
</a>
</g>
</g>
<!-- dir_aebb8dcc11953d78e620bbef0b9e2183 -->
<g id="node8" class="node">
<title>dir_aebb8dcc11953d78e620bbef0b9e2183</title>
<g id="a_node8"><a xlink:href="dir_aebb8dcc11953d78e620bbef0b9e2183.xhtml" target="_top" xlink:title="core">
<polygon fill="white" stroke="red" points="371,-252 317,-252 317,-216 371,-216 371,-252"/>
<text text-anchor="middle" x="344" y="-231.5" font-family="Helvetica,sans-Serif" font-size="10.00">core</text>
</a>
</g>
</g>
<!-- dir_df94d166e0e6f49d063cb29fea25a88b&#45;&gt;dir_aebb8dcc11953d78e620bbef0b9e2183 -->
<g id="edge10" class="edge">
<title>dir_df94d166e0e6f49d063cb29fea25a88b&#45;&gt;dir_aebb8dcc11953d78e620bbef0b9e2183</title>
<path fill="none" stroke="black" d="M160.27,-435.41C163.19,-434.17 166.13,-433.01 169,-432 233.67,-409.24 272.54,-446.41 319,-396 352.53,-359.62 351.91,-297.8 348.16,-262.28"/>
<polygon fill="black" stroke="black" points="351.61,-261.66 346.93,-252.16 344.66,-262.51 351.61,-261.66"/>
<g id="a_edge10&#45;headlabel"><a xlink:href="dir_000025_000020.xhtml" target="_top" xlink:title="43">
<text text-anchor="middle" x="354.86" y="-262.39" font-family="Helvetica,sans-Serif" font-size="10.00">43</text>
</a>
</g>
</g>
<!-- dir_bf9f26469d00835ba20ff8d80ee5a804 -->
<g id="node9" class="node">
<title>dir_bf9f26469d00835ba20ff8d80ee5a804</title>
<g id="a_node9"><a xlink:href="dir_bf9f26469d00835ba20ff8d80ee5a804.xhtml" target="_top" xlink:title="runtime">
<polygon fill="white" stroke="red" points="482.5,-324 427.5,-324 427.5,-288 482.5,-288 482.5,-324"/>
<text text-anchor="middle" x="455" y="-303.5" font-family="Helvetica,sans-Serif" font-size="10.00">runtime</text>
</a>
</g>
</g>
<!-- dir_df94d166e0e6f49d063cb29fea25a88b&#45;&gt;dir_bf9f26469d00835ba20ff8d80ee5a804 -->
<g id="edge11" class="edge">
<title>dir_df94d166e0e6f49d063cb29fea25a88b&#45;&gt;dir_bf9f26469d00835ba20ff8d80ee5a804</title>
<path fill="none" stroke="black" d="M160.18,-435.11C163.11,-433.93 166.08,-432.86 169,-432 225.98,-415.11 389.99,-435.94 434,-396 450.94,-380.62 455.46,-354.36 456.18,-334.33"/>
<polygon fill="black" stroke="black" points="459.68,-334.27 456.25,-324.24 452.68,-334.22 459.68,-334.27"/>
<g id="a_edge11&#45;headlabel"><a xlink:href="dir_000025_000036.xhtml" target="_top" xlink:title="4">
<text text-anchor="middle" x="462.5" y="-335.38" font-family="Helvetica,sans-Serif" font-size="10.00">4</text>
</a>
</g>
</g>
<!-- dir_5815af820a9cc9481f1d0990a0d60286 -->
<g id="node10" class="node">
<title>dir_5815af820a9cc9481f1d0990a0d60286</title>
<g id="a_node10"><a xlink:href="dir_5815af820a9cc9481f1d0990a0d60286.xhtml" target="_top" xlink:title="support">
<polygon fill="none" stroke="black" points="392,-36 338,-36 338,0 392,0 392,-36"/>
<text text-anchor="middle" x="365" y="-15.5" font-family="Helvetica,sans-Serif" font-size="10.00">support</text>
</a>
</g>
</g>
<!-- dir_df94d166e0e6f49d063cb29fea25a88b&#45;&gt;dir_5815af820a9cc9481f1d0990a0d60286 -->
<g id="edge12" class="edge">
<title>dir_df94d166e0e6f49d063cb29fea25a88b&#45;&gt;dir_5815af820a9cc9481f1d0990a0d60286</title>
<path fill="none" stroke="black" d="M119.43,-431.76C100.64,-406.1 69,-355.67 69,-307 69,-307 69,-307 69,-161 69,-47.41 248.4,-24.62 327.87,-20.09"/>
<polygon fill="black" stroke="black" points="328.14,-23.59 337.95,-19.59 327.78,-16.59 328.14,-23.59"/>
<g id="a_edge12&#45;headlabel"><a xlink:href="dir_000025_000032.xhtml" target="_top" xlink:title="9">
<text text-anchor="middle" x="324.69" y="-24.1" font-family="Helvetica,sans-Serif" font-size="10.00">9</text>
</a>
</g>
</g>
<!-- dir_fdedb0aba14d44ce9d99bc100e026e6a -->
<g id="node11" class="node">
<title>dir_fdedb0aba14d44ce9d99bc100e026e6a</title>
<g id="a_node11"><a xlink:href="dir_fdedb0aba14d44ce9d99bc100e026e6a.xhtml" target="_top" xlink:title="common">
<polygon fill="white" stroke="red" points="504.5,-180 445.5,-180 445.5,-144 504.5,-144 504.5,-180"/>
<text text-anchor="middle" x="475" y="-159.5" font-family="Helvetica,sans-Serif" font-size="10.00">common</text>
</a>
</g>
</g>
<!-- dir_df94d166e0e6f49d063cb29fea25a88b&#45;&gt;dir_fdedb0aba14d44ce9d99bc100e026e6a -->
<g id="edge13" class="edge">
<title>dir_df94d166e0e6f49d063cb29fea25a88b&#45;&gt;dir_fdedb0aba14d44ce9d99bc100e026e6a</title>
<path fill="none" stroke="black" d="M160.17,-435.08C163.1,-433.91 166.08,-432.85 169,-432 293.3,-395.91 353.17,-471.92 458,-396 521.46,-350.04 498.82,-240.76 483.89,-189.9"/>
<polygon fill="black" stroke="black" points="487.22,-188.8 480.95,-180.26 480.52,-190.84 487.22,-188.8"/>
<g id="a_edge13&#45;headlabel"><a xlink:href="dir_000025_000019.xhtml" target="_top" xlink:title="13">
<text text-anchor="middle" x="490.98" y="-188.9" font-family="Helvetica,sans-Serif" font-size="10.00">13</text>
</a>
</g>
</g>
<!-- dir_bdd04b65c107278b5119b030d13de22c&#45;&gt;dir_214608ef36d61442cb2b0c1c4e9a7def -->
<g id="edge29" class="edge">
<title>dir_bdd04b65c107278b5119b030d13de22c&#45;&gt;dir_214608ef36d61442cb2b0c1c4e9a7def</title>
<path fill="none" stroke="black" d="M203.95,-359.74C213.12,-320.68 237.32,-222.77 267,-144 270.3,-135.24 274.46,-125.93 278.43,-117.6"/>
<polygon fill="black" stroke="black" points="281.7,-118.88 282.94,-108.36 275.41,-115.81 281.7,-118.88"/>
<g id="a_edge29&#45;headlabel"><a xlink:href="dir_000504_000000.xhtml" target="_top" xlink:title="1">
<text text-anchor="middle" x="282.67" y="-120.86" font-family="Helvetica,sans-Serif" font-size="10.00">1</text>
</a>
</g>
</g>
<!-- dir_cf895c1ed808af158264b2f3d8d7f8f0&#45;&gt;dir_214608ef36d61442cb2b0c1c4e9a7def -->
<g id="edge1" class="edge">
<title>dir_cf895c1ed808af158264b2f3d8d7f8f0&#45;&gt;dir_214608ef36d61442cb2b0c1c4e9a7def</title>
<path fill="none" stroke="black" d="M380.91,-359.75C359.71,-337.14 324.36,-295.27 308,-252 291.13,-207.39 289.6,-151.12 290.48,-118.29"/>
<polygon fill="black" stroke="black" points="293.99,-118.23 290.86,-108.11 286.99,-117.97 293.99,-118.23"/>
<g id="a_edge1&#45;headlabel"><a xlink:href="dir_000004_000000.xhtml" target="_top" xlink:title="598">
<text text-anchor="middle" x="296.69" y="-119.43" font-family="Helvetica,sans-Serif" font-size="10.00">598</text>
</a>
</g>
</g>
<!-- dir_cf895c1ed808af158264b2f3d8d7f8f0&#45;&gt;dir_aebb8dcc11953d78e620bbef0b9e2183 -->
<g id="edge2" class="edge">
<title>dir_cf895c1ed808af158264b2f3d8d7f8f0&#45;&gt;dir_aebb8dcc11953d78e620bbef0b9e2183</title>
<path fill="none" stroke="black" d="M386.9,-359.87C375.09,-335.56 357.79,-290.82 348.84,-262.01"/>
<polygon fill="black" stroke="black" points="352.13,-260.79 345.95,-252.19 345.41,-262.77 352.13,-260.79"/>
<g id="a_edge2&#45;headlabel"><a xlink:href="dir_000004_000020.xhtml" target="_top" xlink:title="239">
<text text-anchor="middle" x="355.87" y="-260.94" font-family="Helvetica,sans-Serif" font-size="10.00">239</text>
</a>
</g>
</g>
<!-- dir_cf895c1ed808af158264b2f3d8d7f8f0&#45;&gt;dir_bf9f26469d00835ba20ff8d80ee5a804 -->
<g id="edge3" class="edge">
<title>dir_cf895c1ed808af158264b2f3d8d7f8f0&#45;&gt;dir_bf9f26469d00835ba20ff8d80ee5a804</title>
<path fill="none" stroke="black" d="M406.17,-359.7C412.2,-351.22 420.45,-340.86 428.51,-331.58"/>
<polygon fill="black" stroke="black" points="431.13,-333.9 435.18,-324.1 425.91,-329.24 431.13,-333.9"/>
<g id="a_edge3&#45;headlabel"><a xlink:href="dir_000004_000036.xhtml" target="_top" xlink:title="16">
<text text-anchor="middle" x="430.86" y="-335.97" font-family="Helvetica,sans-Serif" font-size="10.00">16</text>
</a>
</g>
</g>
<!-- dir_cf895c1ed808af158264b2f3d8d7f8f0&#45;&gt;dir_5815af820a9cc9481f1d0990a0d60286 -->
<g id="edge4" class="edge">
<title>dir_cf895c1ed808af158264b2f3d8d7f8f0&#45;&gt;dir_5815af820a9cc9481f1d0990a0d60286</title>
<path fill="none" stroke="black" d="M425.37,-370.38C478.18,-355.79 589,-315.57 589,-235 589,-235 589,-235 589,-161 589,-73.55 465.71,-37.7 402.06,-25.02"/>
<polygon fill="black" stroke="black" points="402.5,-21.54 392.02,-23.11 401.19,-28.42 402.5,-21.54"/>
<g id="a_edge4&#45;headlabel"><a xlink:href="dir_000004_000032.xhtml" target="_top" xlink:title="109">
<text text-anchor="middle" x="406.56" y="-16.92" font-family="Helvetica,sans-Serif" font-size="10.00">109</text>
</a>
</g>
</g>
<!-- dir_cf895c1ed808af158264b2f3d8d7f8f0&#45;&gt;dir_fdedb0aba14d44ce9d99bc100e026e6a -->
<g id="edge5" class="edge">
<title>dir_cf895c1ed808af158264b2f3d8d7f8f0&#45;&gt;dir_fdedb0aba14d44ce9d99bc100e026e6a</title>
<path fill="none" stroke="black" d="M401.08,-359.67C404.53,-341.53 410.75,-312.36 419,-288 430.85,-253 448.94,-214.44 461.34,-189.53"/>
<polygon fill="black" stroke="black" points="464.58,-190.88 465.94,-180.38 458.32,-187.74 464.58,-190.88"/>
<g id="a_edge5&#45;headlabel"><a xlink:href="dir_000004_000019.xhtml" target="_top" xlink:title="46">
<text text-anchor="middle" x="465.5" y="-192.87" font-family="Helvetica,sans-Serif" font-size="10.00">46</text>
</a>
</g>
</g>
<!-- dir_8824b015e2d84b32c32abeb682f6ceb8&#45;&gt;dir_214608ef36d61442cb2b0c1c4e9a7def -->
<g id="edge6" class="edge">
<title>dir_8824b015e2d84b32c32abeb682f6ceb8&#45;&gt;dir_214608ef36d61442cb2b0c1c4e9a7def</title>
<path fill="none" stroke="black" d="M280.22,-359.91C274.41,-321.2 262.49,-223.98 275,-144 276.36,-135.31 278.9,-126.1 281.61,-117.84"/>
<polygon fill="black" stroke="black" points="284.94,-118.93 284.93,-108.33 278.33,-116.62 284.94,-118.93"/>
<g id="a_edge6&#45;headlabel"><a xlink:href="dir_000035_000000.xhtml" target="_top" xlink:title="2">
<text text-anchor="middle" x="286.43" y="-120.76" font-family="Helvetica,sans-Serif" font-size="10.00">2</text>
</a>
</g>
</g>
<!-- dir_214608ef36d61442cb2b0c1c4e9a7def&#45;&gt;dir_5815af820a9cc9481f1d0990a0d60286 -->
<g id="edge15" class="edge">
<title>dir_214608ef36d61442cb2b0c1c4e9a7def&#45;&gt;dir_5815af820a9cc9481f1d0990a0d60286</title>
<path fill="none" stroke="black" d="M304.13,-71.7C312.25,-63.05 323.13,-52.45 333.5,-43.03"/>
<polygon fill="black" stroke="black" points="336.13,-45.37 341.27,-36.1 331.47,-40.14 336.13,-45.37"/>
<g id="a_edge15&#45;headlabel"><a xlink:href="dir_000000_000032.xhtml" target="_top" xlink:title="16">
<text text-anchor="middle" x="335.33" y="-47.38" font-family="Helvetica,sans-Serif" font-size="10.00">16</text>
</a>
</g>
</g>
<!-- dir_aebb8dcc11953d78e620bbef0b9e2183&#45;&gt;dir_cf895c1ed808af158264b2f3d8d7f8f0 -->
<g id="edge17" class="edge">
<title>dir_aebb8dcc11953d78e620bbef0b9e2183&#45;&gt;dir_cf895c1ed808af158264b2f3d8d7f8f0</title>
<path fill="none" stroke="black" d="M355.13,-252.19C366.95,-276.53 384.25,-321.28 393.18,-350.06"/>
<polygon fill="black" stroke="black" points="389.89,-351.27 396.07,-359.87 396.6,-349.29 389.89,-351.27"/>
<g id="a_edge17&#45;headlabel"><a xlink:href="dir_000020_000004.xhtml" target="_top" xlink:title="4">
<text text-anchor="middle" x="386.15" y="-346.12" font-family="Helvetica,sans-Serif" font-size="10.00">4</text>
</a>
</g>
</g>
<!-- dir_aebb8dcc11953d78e620bbef0b9e2183&#45;&gt;dir_214608ef36d61442cb2b0c1c4e9a7def -->
<g id="edge18" class="edge">
<title>dir_aebb8dcc11953d78e620bbef0b9e2183&#45;&gt;dir_214608ef36d61442cb2b0c1c4e9a7def</title>
<path fill="none" stroke="black" d="M337.73,-215.87C328.79,-191.46 312.3,-146.43 301.75,-117.64"/>
<polygon fill="black" stroke="black" points="305.02,-116.38 298.29,-108.19 298.45,-118.78 305.02,-116.38"/>
<g id="a_edge18&#45;headlabel"><a xlink:href="dir_000020_000000.xhtml" target="_top" xlink:title="678">
<text text-anchor="middle" x="308.92" y="-116.28" font-family="Helvetica,sans-Serif" font-size="10.00">678</text>
</a>
</g>
</g>
<!-- dir_aebb8dcc11953d78e620bbef0b9e2183&#45;&gt;dir_5815af820a9cc9481f1d0990a0d60286 -->
<g id="edge19" class="edge">
<title>dir_aebb8dcc11953d78e620bbef0b9e2183&#45;&gt;dir_5815af820a9cc9481f1d0990a0d60286</title>
<path fill="none" stroke="black" d="M345.68,-215.85C349.32,-178.83 357.92,-91.18 362.31,-46.39"/>
<polygon fill="black" stroke="black" points="365.82,-46.53 363.31,-36.23 358.85,-45.84 365.82,-46.53"/>
<g id="a_edge19&#45;headlabel"><a xlink:href="dir_000020_000032.xhtml" target="_top" xlink:title="56">
<text text-anchor="middle" x="368.29" y="-47.88" font-family="Helvetica,sans-Serif" font-size="10.00">56</text>
</a>
</g>
</g>
<!-- dir_aebb8dcc11953d78e620bbef0b9e2183&#45;&gt;dir_fdedb0aba14d44ce9d99bc100e026e6a -->
<g id="edge20" class="edge">
<title>dir_aebb8dcc11953d78e620bbef0b9e2183&#45;&gt;dir_fdedb0aba14d44ce9d99bc100e026e6a</title>
<path fill="none" stroke="black" d="M371.14,-218.5C389.94,-208.45 415.26,-194.92 436.18,-183.74"/>
<polygon fill="black" stroke="black" points="437.98,-186.75 445.15,-178.95 434.68,-180.58 437.98,-186.75"/>
<g id="a_edge20&#45;headlabel"><a xlink:href="dir_000020_000019.xhtml" target="_top" xlink:title="5">
<text text-anchor="middle" x="436.15" y="-188.45" font-family="Helvetica,sans-Serif" font-size="10.00">5</text>
</a>
</g>
</g>
<!-- dir_bf9f26469d00835ba20ff8d80ee5a804&#45;&gt;dir_cf895c1ed808af158264b2f3d8d7f8f0 -->
<g id="edge21" class="edge">
<title>dir_bf9f26469d00835ba20ff8d80ee5a804&#45;&gt;dir_cf895c1ed808af158264b2f3d8d7f8f0</title>
<path fill="none" stroke="black" d="M446.97,-324.1C440.97,-332.55 432.74,-342.9 424.68,-352.2"/>
<polygon fill="black" stroke="black" points="422.04,-349.9 418.01,-359.7 427.27,-354.56 422.04,-349.9"/>
<g id="a_edge21&#45;headlabel"><a xlink:href="dir_000036_000004.xhtml" target="_top" xlink:title="57">
<text text-anchor="middle" x="422.31" y="-342.83" font-family="Helvetica,sans-Serif" font-size="10.00">57</text>
</a>
</g>
</g>
<!-- dir_bf9f26469d00835ba20ff8d80ee5a804&#45;&gt;dir_214608ef36d61442cb2b0c1c4e9a7def -->
<g id="edge22" class="edge">
<title>dir_bf9f26469d00835ba20ff8d80ee5a804&#45;&gt;dir_214608ef36d61442cb2b0c1c4e9a7def</title>
<path fill="none" stroke="black" d="M441.94,-287.85C413.32,-250.28 344.99,-160.58 311.37,-116.43"/>
<polygon fill="black" stroke="black" points="313.97,-114.07 305.13,-108.23 308.4,-118.31 313.97,-114.07"/>
<g id="a_edge22&#45;headlabel"><a xlink:href="dir_000036_000000.xhtml" target="_top" xlink:title="953">
<text text-anchor="middle" x="318.41" y="-112.71" font-family="Helvetica,sans-Serif" font-size="10.00">953</text>
</a>
</g>
</g>
<!-- dir_bf9f26469d00835ba20ff8d80ee5a804&#45;&gt;dir_aebb8dcc11953d78e620bbef0b9e2183 -->
<g id="edge23" class="edge">
<title>dir_bf9f26469d00835ba20ff8d80ee5a804&#45;&gt;dir_aebb8dcc11953d78e620bbef0b9e2183</title>
<path fill="none" stroke="black" d="M427.85,-287.88C413.47,-278.81 395.62,-267.55 380.09,-257.76"/>
<polygon fill="black" stroke="black" points="381.58,-254.56 371.26,-252.19 377.85,-260.48 381.58,-254.56"/>
<g id="a_edge23&#45;headlabel"><a xlink:href="dir_000036_000020.xhtml" target="_top" xlink:title="214">
<text text-anchor="middle" x="386.14" y="-251.58" font-family="Helvetica,sans-Serif" font-size="10.00">214</text>
</a>
</g>
</g>
<!-- dir_bf9f26469d00835ba20ff8d80ee5a804&#45;&gt;dir_5815af820a9cc9481f1d0990a0d60286 -->
<g id="edge24" class="edge">
<title>dir_bf9f26469d00835ba20ff8d80ee5a804&#45;&gt;dir_5815af820a9cc9481f1d0990a0d60286</title>
<path fill="none" stroke="black" d="M470.1,-287.78C494.28,-257.99 536.77,-195.12 514,-144 491.65,-93.81 437.52,-56.93 401.03,-36.71"/>
<polygon fill="black" stroke="black" points="402.63,-33.59 392.17,-31.93 399.31,-39.75 402.63,-33.59"/>
<g id="a_edge24&#45;headlabel"><a xlink:href="dir_000036_000032.xhtml" target="_top" xlink:title="8">
<text text-anchor="middle" x="407.14" y="-30.3" font-family="Helvetica,sans-Serif" font-size="10.00">8</text>
</a>
</g>
</g>
<!-- dir_bf9f26469d00835ba20ff8d80ee5a804&#45;&gt;dir_fdedb0aba14d44ce9d99bc100e026e6a -->
<g id="edge25" class="edge">
<title>dir_bf9f26469d00835ba20ff8d80ee5a804&#45;&gt;dir_fdedb0aba14d44ce9d99bc100e026e6a</title>
<path fill="none" stroke="black" d="M457.41,-287.87C460.82,-263.67 467.08,-219.21 471.14,-190.39"/>
<polygon fill="black" stroke="black" points="474.65,-190.58 472.58,-180.19 467.72,-189.6 474.65,-190.58"/>
<g id="a_edge25&#45;headlabel"><a xlink:href="dir_000036_000019.xhtml" target="_top" xlink:title="127">
<text text-anchor="middle" x="476.96" y="-192.04" font-family="Helvetica,sans-Serif" font-size="10.00">127</text>
</a>
</g>
</g>
<!-- dir_5815af820a9cc9481f1d0990a0d60286&#45;&gt;dir_214608ef36d61442cb2b0c1c4e9a7def -->
<g id="edge26" class="edge">
<title>dir_5815af820a9cc9481f1d0990a0d60286&#45;&gt;dir_214608ef36d61442cb2b0c1c4e9a7def</title>
<path fill="none" stroke="black" d="M353.06,-36.1C344.9,-44.8 333.9,-55.52 323.44,-65.03"/>
<polygon fill="black" stroke="black" points="321.1,-62.43 315.96,-71.7 325.75,-67.66 321.1,-62.43"/>
<g id="a_edge26&#45;headlabel"><a xlink:href="dir_000032_000000.xhtml" target="_top" xlink:title="6">
<text text-anchor="middle" x="321.89" y="-55.42" font-family="Helvetica,sans-Serif" font-size="10.00">6</text>
</a>
</g>
</g>
<!-- dir_fdedb0aba14d44ce9d99bc100e026e6a&#45;&gt;dir_214608ef36d61442cb2b0c1c4e9a7def -->
<g id="edge27" class="edge">
<title>dir_fdedb0aba14d44ce9d99bc100e026e6a&#45;&gt;dir_214608ef36d61442cb2b0c1c4e9a7def</title>
<path fill="none" stroke="black" d="M445.18,-149.46C440.44,-147.63 435.59,-145.76 431,-144 402.12,-132.91 369.83,-120.6 343.65,-110.63"/>
<polygon fill="black" stroke="black" points="344.89,-107.36 334.3,-107.07 342.4,-113.9 344.89,-107.36"/>
<g id="a_edge27&#45;headlabel"><a xlink:href="dir_000019_000000.xhtml" target="_top" xlink:title="17">
<text text-anchor="middle" x="349.26" y="-103.48" font-family="Helvetica,sans-Serif" font-size="10.00">17</text>
</a>
</g>
</g>
<!-- dir_fdedb0aba14d44ce9d99bc100e026e6a&#45;&gt;dir_5815af820a9cc9481f1d0990a0d60286 -->
<g id="edge28" class="edge">
<title>dir_fdedb0aba14d44ce9d99bc100e026e6a&#45;&gt;dir_5815af820a9cc9481f1d0990a0d60286</title>
<path fill="none" stroke="black" d="M461.73,-143.87C442.49,-119.03 406.71,-72.85 384.48,-44.14"/>
<polygon fill="black" stroke="black" points="387.21,-41.95 378.32,-36.19 381.67,-46.24 387.21,-41.95"/>
<g id="a_edge28&#45;headlabel"><a xlink:href="dir_000019_000032.xhtml" target="_top" xlink:title="2">
<text text-anchor="middle" x="391.65" y="-40.55" font-family="Helvetica,sans-Serif" font-size="10.00">2</text>
</a>
</g>
</g>
</g>
</svg>
