<?xml version="1.0" encoding="UTF-8" standalone="no"?>
<!DOCTYPE svg PUBLIC "-//W3C//DTD SVG 1.1//EN"
 "http://www.w3.org/Graphics/SVG/1.1/DTD/svg11.dtd">
<!-- Generated by graphviz version 2.43.0 (0)
 -->
<!-- Title: src/graph Pages: 1 -->
<svg width="704pt" height="330pt"
 viewBox="0.00 0.00 704.00 329.70" xmlns="http://www.w3.org/2000/svg" xmlns:xlink="http://www.w3.org/1999/xlink">
<g id="graph0" class="graph" transform="scale(1 1) rotate(0) translate(4 325.7)">
<title>src/graph</title>
<polygon fill="white" stroke="transparent" points="-4,4 -4,-325.7 700,-325.7 700,4 -4,4"/>
<g id="clust1" class="cluster">
<title>clusterdir_68267d1309a1af8e8297ef4c3efbcdba</title>
<g id="a_clust1"><a xlink:href="dir_68267d1309a1af8e8297ef4c3efbcdba.xhtml" target="_top" xlink:title="src">
<polygon fill="#ddddee" stroke="black" points="8,-200 8,-287 634,-287 634,-200 8,-200"/>
<text text-anchor="middle" x="321" y="-275" font-family="Helvetica,sans-Serif" font-size="10.00">src</text>
</a>
</g>
</g>
<g id="clust2" class="cluster">
<title>clusterdir_d182250f0c231765fc862e69db210731</title>
<g id="a_clust2"><a xlink:href="dir_d182250f0c231765fc862e69db210731.xhtml" target="_top">
<polygon fill="#eeeeff" stroke="black" points="16,-208 16,-260 626,-260 626,-208 16,-208"/>
</a>
</g>
</g>
<!-- dir_d182250f0c231765fc862e69db210731 -->
<g id="node1" class="node">
<title>dir_d182250f0c231765fc862e69db210731</title>
<text text-anchor="middle" x="591" y="-231.5" font-family="Helvetica,sans-Serif" font-size="10.00">graph</text>
</g>
<!-- dir_fdedb0aba14d44ce9d99bc100e026e6a -->
<g id="node12" class="node">
<title>dir_fdedb0aba14d44ce9d99bc100e026e6a</title>
<g id="a_node12"><a xlink:href="dir_fdedb0aba14d44ce9d99bc100e026e6a.xhtml" target="_top" xlink:title="common">
<polygon fill="white" stroke="red" points="589.5,-180 530.5,-180 530.5,-144 589.5,-144 589.5,-180"/>
<text text-anchor="middle" x="560" y="-159.5" font-family="Helvetica,sans-Serif" font-size="10.00">common</text>
</a>
</g>
</g>
<!-- dir_d182250f0c231765fc862e69db210731&#45;&gt;dir_fdedb0aba14d44ce9d99bc100e026e6a -->
<g id="edge1" class="edge">
<title>dir_d182250f0c231765fc862e69db210731&#45;&gt;dir_fdedb0aba14d44ce9d99bc100e026e6a</title>
<path fill="none" stroke="black" d="M583.34,-215.7C579.81,-207.73 575.54,-198.1 571.63,-189.26"/>
<polygon fill="black" stroke="black" points="574.82,-187.83 567.57,-180.1 568.42,-190.67 574.82,-187.83"/>
<g id="a_edge1&#45;headlabel"><a xlink:href="dir_000466_000019.xhtml" target="_top" xlink:title="1">
<text text-anchor="middle" x="578.88" y="-187.47" font-family="Helvetica,sans-Serif" font-size="10.00">1</text>
</a>
</g>
</g>
<!-- dir_5cd7c6994c9c36b087490b290382772a -->
<g id="node2" class="node">
<title>dir_5cd7c6994c9c36b087490b290382772a</title>
<g id="a_node2"><a xlink:href="dir_5cd7c6994c9c36b087490b290382772a.xhtml" target="_top" xlink:title="algorithms">
<polygon fill="white" stroke="black" points="93.5,-252 24.5,-252 24.5,-216 93.5,-216 93.5,-252"/>
<text text-anchor="middle" x="59" y="-231.5" font-family="Helvetica,sans-Serif" font-size="10.00">algorithms</text>
</a>
</g>
</g>
<!-- dir_214608ef36d61442cb2b0c1c4e9a7def -->
<g id="node9" class="node">
<title>dir_214608ef36d61442cb2b0c1c4e9a7def</title>
<g id="a_node9"><a xlink:href="dir_214608ef36d61442cb2b0c1c4e9a7def.xhtml" target="_top" xlink:title="arm_compute">
<polygon fill="white" stroke="red" points="407,-108 323,-108 323,-72 407,-72 407,-108"/>
<text text-anchor="middle" x="365" y="-87.5" font-family="Helvetica,sans-Serif" font-size="10.00">arm_compute</text>
</a>
</g>
</g>
<!-- dir_5cd7c6994c9c36b087490b290382772a&#45;&gt;dir_214608ef36d61442cb2b0c1c4e9a7def -->
<g id="edge3" class="edge">
<title>dir_5cd7c6994c9c36b087490b290382772a&#45;&gt;dir_214608ef36d61442cb2b0c1c4e9a7def</title>
<path fill="none" stroke="black" d="M80.41,-215.78C87.43,-210.46 95.38,-204.75 103,-200 149.56,-170.99 162.54,-165.52 213,-144 245.68,-130.06 283.39,-116.89 313.07,-107.17"/>
<polygon fill="black" stroke="black" points="314.38,-110.43 322.81,-104.01 312.22,-103.77 314.38,-110.43"/>
<g id="a_edge3&#45;headlabel"><a xlink:href="dir_000512_000000.xhtml" target="_top" xlink:title="2">
<text text-anchor="middle" x="311.83" y="-111.74" font-family="Helvetica,sans-Serif" font-size="10.00">2</text>
</a>
</g>
</g>
<!-- dir_5815af820a9cc9481f1d0990a0d60286 -->
<g id="node11" class="node">
<title>dir_5815af820a9cc9481f1d0990a0d60286</title>
<g id="a_node11"><a xlink:href="dir_5815af820a9cc9481f1d0990a0d60286.xhtml" target="_top" xlink:title="support">
<polygon fill="none" stroke="black" points="357,-36 303,-36 303,0 357,0 357,-36"/>
<text text-anchor="middle" x="330" y="-15.5" font-family="Helvetica,sans-Serif" font-size="10.00">support</text>
</a>
</g>
</g>
<!-- dir_5cd7c6994c9c36b087490b290382772a&#45;&gt;dir_5815af820a9cc9481f1d0990a0d60286 -->
<g id="edge4" class="edge">
<title>dir_5cd7c6994c9c36b087490b290382772a&#45;&gt;dir_5815af820a9cc9481f1d0990a0d60286</title>
<path fill="none" stroke="black" d="M71.29,-215.7C85.2,-196.8 109.19,-166.27 134,-144 184.26,-98.89 252.57,-59.34 293.85,-37.36"/>
<polygon fill="black" stroke="black" points="295.51,-40.44 302.73,-32.68 292.25,-34.25 295.51,-40.44"/>
<g id="a_edge4&#45;headlabel"><a xlink:href="dir_000512_000032.xhtml" target="_top" xlink:title="1">
<text text-anchor="middle" x="293.66" y="-42.13" font-family="Helvetica,sans-Serif" font-size="10.00">1</text>
</a>
</g>
</g>
<!-- dir_39e772dac1f6529f21fb52deefa146ea -->
<g id="node3" class="node">
<title>dir_39e772dac1f6529f21fb52deefa146ea</title>
<g id="a_node3"><a xlink:href="dir_39e772dac1f6529f21fb52deefa146ea.xhtml" target="_top" xlink:title="backends">
<polygon fill="white" stroke="red" points="174,-252 112,-252 112,-216 174,-216 174,-252"/>
<text text-anchor="middle" x="143" y="-231.5" font-family="Helvetica,sans-Serif" font-size="10.00">backends</text>
</a>
</g>
</g>
<!-- dir_39e772dac1f6529f21fb52deefa146ea&#45;&gt;dir_214608ef36d61442cb2b0c1c4e9a7def -->
<g id="edge6" class="edge">
<title>dir_39e772dac1f6529f21fb52deefa146ea&#45;&gt;dir_214608ef36d61442cb2b0c1c4e9a7def</title>
<path fill="none" stroke="black" d="M162.98,-215.74C169.26,-210.52 176.31,-204.89 183,-200 228.92,-166.45 285.66,-133.72 323.46,-113.02"/>
<polygon fill="black" stroke="black" points="325.54,-115.88 332.65,-108.03 322.19,-109.73 325.54,-115.88"/>
<g id="a_edge6&#45;headlabel"><a xlink:href="dir_000513_000000.xhtml" target="_top" xlink:title="72">
<text text-anchor="middle" x="323.73" y="-117.59" font-family="Helvetica,sans-Serif" font-size="10.00">72</text>
</a>
</g>
</g>
<!-- dir_aebb8dcc11953d78e620bbef0b9e2183 -->
<g id="node10" class="node">
<title>dir_aebb8dcc11953d78e620bbef0b9e2183</title>
<g id="a_node10"><a xlink:href="dir_aebb8dcc11953d78e620bbef0b9e2183.xhtml" target="_top" xlink:title="core">
<polygon fill="white" stroke="red" points="696,-252 642,-252 642,-216 696,-216 696,-252"/>
<text text-anchor="middle" x="669" y="-231.5" font-family="Helvetica,sans-Serif" font-size="10.00">core</text>
</a>
</g>
</g>
<!-- dir_39e772dac1f6529f21fb52deefa146ea&#45;&gt;dir_aebb8dcc11953d78e620bbef0b9e2183 -->
<g id="edge7" class="edge">
<title>dir_39e772dac1f6529f21fb52deefa146ea&#45;&gt;dir_aebb8dcc11953d78e620bbef0b9e2183</title>
<path fill="none" stroke="black" d="M149.69,-252.09C157.12,-269.22 170.91,-293.93 192,-305 234.21,-327.15 578.9,-327.36 621,-305 638.3,-295.81 650.51,-277.29 658.28,-261.47"/>
<polygon fill="black" stroke="black" points="661.59,-262.63 662.55,-252.08 655.22,-259.73 661.59,-262.63"/>
<g id="a_edge7&#45;headlabel"><a xlink:href="dir_000513_000020.xhtml" target="_top" xlink:title="1">
<text text-anchor="middle" x="662.69" y="-264.58" font-family="Helvetica,sans-Serif" font-size="10.00">1</text>
</a>
</g>
</g>
<!-- dir_39e772dac1f6529f21fb52deefa146ea&#45;&gt;dir_5815af820a9cc9481f1d0990a0d60286 -->
<g id="edge8" class="edge">
<title>dir_39e772dac1f6529f21fb52deefa146ea&#45;&gt;dir_5815af820a9cc9481f1d0990a0d60286</title>
<path fill="none" stroke="black" d="M155.79,-215.97C169.55,-197.82 192.25,-168.42 213,-144 241.11,-110.92 249.28,-103.64 279,-72 287.79,-62.64 297.54,-52.46 306.15,-43.54"/>
<polygon fill="black" stroke="black" points="308.92,-45.71 313.36,-36.09 303.89,-40.84 308.92,-45.71"/>
<g id="a_edge8&#45;headlabel"><a xlink:href="dir_000513_000032.xhtml" target="_top" xlink:title="6">
<text text-anchor="middle" x="308.46" y="-47.76" font-family="Helvetica,sans-Serif" font-size="10.00">6</text>
</a>
</g>
</g>
<!-- dir_860cb336d74994b1303832ed3557228e -->
<g id="node4" class="node">
<title>dir_860cb336d74994b1303832ed3557228e</title>
<g id="a_node4"><a xlink:href="dir_860cb336d74994b1303832ed3557228e.xhtml" target="_top" xlink:title="detail">
<polygon fill="white" stroke="black" points="246,-252 192,-252 192,-216 246,-216 246,-252"/>
<text text-anchor="middle" x="219" y="-231.5" font-family="Helvetica,sans-Serif" font-size="10.00">detail</text>
</a>
</g>
</g>
<!-- dir_860cb336d74994b1303832ed3557228e&#45;&gt;dir_214608ef36d61442cb2b0c1c4e9a7def -->
<g id="edge14" class="edge">
<title>dir_860cb336d74994b1303832ed3557228e&#45;&gt;dir_214608ef36d61442cb2b0c1c4e9a7def</title>
<path fill="none" stroke="black" d="M236.61,-215.87C262.37,-190.82 310.45,-144.05 339.91,-115.41"/>
<polygon fill="black" stroke="black" points="342.6,-117.67 347.33,-108.19 337.72,-112.65 342.6,-117.67"/>
<g id="a_edge14&#45;headlabel"><a xlink:href="dir_000516_000000.xhtml" target="_top" xlink:title="17">
<text text-anchor="middle" x="342" y="-119.71" font-family="Helvetica,sans-Serif" font-size="10.00">17</text>
</a>
</g>
</g>
<!-- dir_860cb336d74994b1303832ed3557228e&#45;&gt;dir_5815af820a9cc9481f1d0990a0d60286 -->
<g id="edge15" class="edge">
<title>dir_860cb336d74994b1303832ed3557228e&#45;&gt;dir_5815af820a9cc9481f1d0990a0d60286</title>
<path fill="none" stroke="black" d="M227.9,-215.85C247.26,-178.52 293.33,-89.69 316.38,-45.26"/>
<polygon fill="black" stroke="black" points="319.56,-46.72 321.06,-36.23 313.35,-43.5 319.56,-46.72"/>
<g id="a_edge15&#45;headlabel"><a xlink:href="dir_000516_000032.xhtml" target="_top" xlink:title="1">
<text text-anchor="middle" x="320.43" y="-48.72" font-family="Helvetica,sans-Serif" font-size="10.00">1</text>
</a>
</g>
</g>
<!-- dir_330aa6f4e434724354905027707c791c -->
<g id="node5" class="node">
<title>dir_330aa6f4e434724354905027707c791c</title>
<g id="a_node5"><a xlink:href="dir_330aa6f4e434724354905027707c791c.xhtml" target="_top" xlink:title="frontend">
<polygon fill="white" stroke="black" points="402,-252 344,-252 344,-216 402,-216 402,-252"/>
<text text-anchor="middle" x="373" y="-231.5" font-family="Helvetica,sans-Serif" font-size="10.00">frontend</text>
</a>
</g>
</g>
<!-- dir_330aa6f4e434724354905027707c791c&#45;&gt;dir_214608ef36d61442cb2b0c1c4e9a7def -->
<g id="edge13" class="edge">
<title>dir_330aa6f4e434724354905027707c791c&#45;&gt;dir_214608ef36d61442cb2b0c1c4e9a7def</title>
<path fill="none" stroke="black" d="M372.04,-215.87C370.67,-191.67 368.17,-147.21 366.54,-118.39"/>
<polygon fill="black" stroke="black" points="370.03,-117.98 365.97,-108.19 363.04,-118.37 370.03,-117.98"/>
<g id="a_edge13&#45;headlabel"><a xlink:href="dir_000517_000000.xhtml" target="_top" xlink:title="6">
<text text-anchor="middle" x="373.06" y="-118.91" font-family="Helvetica,sans-Serif" font-size="10.00">6</text>
</a>
</g>
</g>
<!-- dir_1b9e532a4c8623825d945e964c6e4c7f -->
<g id="node6" class="node">
<title>dir_1b9e532a4c8623825d945e964c6e4c7f</title>
<g id="a_node6"><a xlink:href="dir_1b9e532a4c8623825d945e964c6e4c7f.xhtml" target="_top" xlink:title="mutators">
<polygon fill="white" stroke="black" points="325.5,-252 264.5,-252 264.5,-216 325.5,-216 325.5,-252"/>
<text text-anchor="middle" x="295" y="-231.5" font-family="Helvetica,sans-Serif" font-size="10.00">mutators</text>
</a>
</g>
</g>
<!-- dir_1b9e532a4c8623825d945e964c6e4c7f&#45;&gt;dir_214608ef36d61442cb2b0c1c4e9a7def -->
<g id="edge16" class="edge">
<title>dir_1b9e532a4c8623825d945e964c6e4c7f&#45;&gt;dir_214608ef36d61442cb2b0c1c4e9a7def</title>
<path fill="none" stroke="black" d="M303.44,-215.87C315.53,-191.35 337.87,-146.03 352.06,-117.26"/>
<polygon fill="black" stroke="black" points="355.24,-118.71 356.53,-108.19 348.97,-115.61 355.24,-118.71"/>
<g id="a_edge16&#45;headlabel"><a xlink:href="dir_000518_000000.xhtml" target="_top" xlink:title="51">
<text text-anchor="middle" x="356.2" y="-120.69" font-family="Helvetica,sans-Serif" font-size="10.00">51</text>
</a>
</g>
</g>
<!-- dir_1b9e532a4c8623825d945e964c6e4c7f&#45;&gt;dir_5815af820a9cc9481f1d0990a0d60286 -->
<g id="edge17" class="edge">
<title>dir_1b9e532a4c8623825d945e964c6e4c7f&#45;&gt;dir_5815af820a9cc9481f1d0990a0d60286</title>
<path fill="none" stroke="black" d="M296.03,-215.92C298.02,-186.35 303.21,-123.8 314,-72 315.78,-63.44 318.32,-54.27 320.85,-46"/>
<polygon fill="black" stroke="black" points="324.19,-47.06 323.88,-36.47 317.52,-44.94 324.19,-47.06"/>
<g id="a_edge17&#45;headlabel"><a xlink:href="dir_000518_000032.xhtml" target="_top" xlink:title="10">
<text text-anchor="middle" x="325.8" y="-48.84" font-family="Helvetica,sans-Serif" font-size="10.00">10</text>
</a>
</g>
</g>
<!-- dir_b522e8895b1a2b097ec0514a9a6c1549 -->
<g id="node7" class="node">
<title>dir_b522e8895b1a2b097ec0514a9a6c1549</title>
<g id="a_node7"><a xlink:href="dir_b522e8895b1a2b097ec0514a9a6c1549.xhtml" target="_top" xlink:title="nodes">
<polygon fill="white" stroke="black" points="474,-252 420,-252 420,-216 474,-216 474,-252"/>
<text text-anchor="middle" x="447" y="-231.5" font-family="Helvetica,sans-Serif" font-size="10.00">nodes</text>
</a>
</g>
</g>
<!-- dir_b522e8895b1a2b097ec0514a9a6c1549&#45;&gt;dir_214608ef36d61442cb2b0c1c4e9a7def -->
<g id="edge2" class="edge">
<title>dir_b522e8895b1a2b097ec0514a9a6c1549&#45;&gt;dir_214608ef36d61442cb2b0c1c4e9a7def</title>
<path fill="none" stroke="black" d="M437.11,-215.87C422.89,-191.24 396.55,-145.64 379.95,-116.88"/>
<polygon fill="black" stroke="black" points="382.96,-115.1 374.93,-108.19 376.9,-118.6 382.96,-115.1"/>
<g id="a_edge2&#45;headlabel"><a xlink:href="dir_000519_000000.xhtml" target="_top" xlink:title="197">
<text text-anchor="middle" x="387.21" y="-114.29" font-family="Helvetica,sans-Serif" font-size="10.00">197</text>
</a>
</g>
</g>
<!-- dir_a3a3362c7065796fe64974622266bfb7 -->
<g id="node8" class="node">
<title>dir_a3a3362c7065796fe64974622266bfb7</title>
<g id="a_node8"><a xlink:href="dir_a3a3362c7065796fe64974622266bfb7.xhtml" target="_top" xlink:title="printers">
<polygon fill="white" stroke="black" points="546,-252 492,-252 492,-216 546,-216 546,-252"/>
<text text-anchor="middle" x="519" y="-231.5" font-family="Helvetica,sans-Serif" font-size="10.00">printers</text>
</a>
</g>
</g>
<!-- dir_a3a3362c7065796fe64974622266bfb7&#45;&gt;dir_214608ef36d61442cb2b0c1c4e9a7def -->
<g id="edge9" class="edge">
<title>dir_a3a3362c7065796fe64974622266bfb7&#45;&gt;dir_214608ef36d61442cb2b0c1c4e9a7def</title>
<path fill="none" stroke="black" d="M500.42,-215.87C473.14,-190.71 422.1,-143.65 391.07,-115.04"/>
<polygon fill="black" stroke="black" points="393.37,-112.4 383.64,-108.19 388.62,-117.54 393.37,-112.4"/>
<g id="a_edge9&#45;headlabel"><a xlink:href="dir_000520_000000.xhtml" target="_top" xlink:title="6">
<text text-anchor="middle" x="397.93" y="-110.24" font-family="Helvetica,sans-Serif" font-size="10.00">6</text>
</a>
</g>
</g>
<!-- dir_214608ef36d61442cb2b0c1c4e9a7def&#45;&gt;dir_5815af820a9cc9481f1d0990a0d60286 -->
<g id="edge5" class="edge">
<title>dir_214608ef36d61442cb2b0c1c4e9a7def&#45;&gt;dir_5815af820a9cc9481f1d0990a0d60286</title>
<path fill="none" stroke="black" d="M350.43,-71.7C345.68,-63.81 340.7,-54.3 336.7,-45.55"/>
<polygon fill="black" stroke="black" points="339.81,-43.92 332.66,-36.1 333.38,-46.67 339.81,-43.92"/>
<g id="a_edge5&#45;headlabel"><a xlink:href="dir_000000_000032.xhtml" target="_top" xlink:title="16">
<text text-anchor="middle" x="343.84" y="-43.6" font-family="Helvetica,sans-Serif" font-size="10.00">16</text>
</a>
</g>
</g>
<!-- dir_aebb8dcc11953d78e620bbef0b9e2183&#45;&gt;dir_214608ef36d61442cb2b0c1c4e9a7def -->
<g id="edge10" class="edge">
<title>dir_aebb8dcc11953d78e620bbef0b9e2183&#45;&gt;dir_214608ef36d61442cb2b0c1c4e9a7def</title>
<path fill="none" stroke="black" d="M660.17,-215.66C648.85,-195.24 627.25,-161.85 599,-144 543.44,-108.89 467.48,-96.93 417.37,-92.92"/>
<polygon fill="black" stroke="black" points="417.31,-89.4 407.09,-92.17 416.81,-96.38 417.31,-89.4"/>
<g id="a_edge10&#45;headlabel"><a xlink:href="dir_000020_000000.xhtml" target="_top" xlink:title="678">
<text text-anchor="middle" x="421.1" y="-84.33" font-family="Helvetica,sans-Serif" font-size="10.00">678</text>
</a>
</g>
</g>
<!-- dir_aebb8dcc11953d78e620bbef0b9e2183&#45;&gt;dir_5815af820a9cc9481f1d0990a0d60286 -->
<g id="edge11" class="edge">
<title>dir_aebb8dcc11953d78e620bbef0b9e2183&#45;&gt;dir_5815af820a9cc9481f1d0990a0d60286</title>
<path fill="none" stroke="black" d="M665.73,-215.72C661.15,-195.98 651.06,-163.86 631,-144 555.74,-69.48 429.63,-37.11 367.25,-25.09"/>
<polygon fill="black" stroke="black" points="367.56,-21.59 357.09,-23.2 366.28,-28.47 367.56,-21.59"/>
<g id="a_edge11&#45;headlabel"><a xlink:href="dir_000020_000032.xhtml" target="_top" xlink:title="56">
<text text-anchor="middle" x="371.61" y="-16.95" font-family="Helvetica,sans-Serif" font-size="10.00">56</text>
</a>
</g>
</g>
<!-- dir_aebb8dcc11953d78e620bbef0b9e2183&#45;&gt;dir_fdedb0aba14d44ce9d99bc100e026e6a -->
<g id="edge12" class="edge">
<title>dir_aebb8dcc11953d78e620bbef0b9e2183&#45;&gt;dir_fdedb0aba14d44ce9d99bc100e026e6a</title>
<path fill="none" stroke="black" d="M650.21,-215.69C644,-210.36 636.91,-204.67 630,-200 620.22,-193.39 609.13,-187.06 598.7,-181.55"/>
<polygon fill="black" stroke="black" points="600.26,-178.41 589.76,-176.94 597.05,-184.64 600.26,-178.41"/>
<g id="a_edge12&#45;headlabel"><a xlink:href="dir_000020_000019.xhtml" target="_top" xlink:title="5">
<text text-anchor="middle" x="604.75" y="-175.04" font-family="Helvetica,sans-Serif" font-size="10.00">5</text>
</a>
</g>
</g>
<!-- dir_5815af820a9cc9481f1d0990a0d60286&#45;&gt;dir_214608ef36d61442cb2b0c1c4e9a7def -->
<g id="edge18" class="edge">
<title>dir_5815af820a9cc9481f1d0990a0d60286&#45;&gt;dir_214608ef36d61442cb2b0c1c4e9a7def</title>
<path fill="none" stroke="black" d="M344.45,-36.1C349.2,-43.96 354.18,-53.46 358.2,-62.23"/>
<polygon fill="black" stroke="black" points="355.1,-63.89 362.26,-71.7 361.53,-61.13 355.1,-63.89"/>
<g id="a_edge18&#45;headlabel"><a xlink:href="dir_000032_000000.xhtml" target="_top" xlink:title="6">
<text text-anchor="middle" x="351.07" y="-59.21" font-family="Helvetica,sans-Serif" font-size="10.00">6</text>
</a>
</g>
</g>
<!-- dir_fdedb0aba14d44ce9d99bc100e026e6a&#45;&gt;dir_214608ef36d61442cb2b0c1c4e9a7def -->
<g id="edge19" class="edge">
<title>dir_fdedb0aba14d44ce9d99bc100e026e6a&#45;&gt;dir_214608ef36d61442cb2b0c1c4e9a7def</title>
<path fill="none" stroke="black" d="M530.38,-150.37C500.26,-139.55 452.97,-122.58 416.67,-109.55"/>
<polygon fill="black" stroke="black" points="417.81,-106.24 407.21,-106.15 415.44,-112.83 417.81,-106.24"/>
<g id="a_edge19&#45;headlabel"><a xlink:href="dir_000019_000000.xhtml" target="_top" xlink:title="17">
<text text-anchor="middle" x="422.15" y="-102.28" font-family="Helvetica,sans-Serif" font-size="10.00">17</text>
</a>
</g>
</g>
<!-- dir_fdedb0aba14d44ce9d99bc100e026e6a&#45;&gt;dir_5815af820a9cc9481f1d0990a0d60286 -->
<g id="edge20" class="edge">
<title>dir_fdedb0aba14d44ce9d99bc100e026e6a&#45;&gt;dir_5815af820a9cc9481f1d0990a0d60286</title>
<path fill="none" stroke="black" d="M532.4,-143.93C503.42,-126 456.52,-97.01 416,-72 399.53,-61.84 381.28,-50.59 365.85,-41.08"/>
<polygon fill="black" stroke="black" points="367.47,-37.97 357.12,-35.7 363.8,-43.93 367.47,-37.97"/>
<g id="a_edge20&#45;headlabel"><a xlink:href="dir_000019_000032.xhtml" target="_top" xlink:title="2">
<text text-anchor="middle" x="372.02" y="-34.93" font-family="Helvetica,sans-Serif" font-size="10.00">2</text>
</a>
</g>
</g>
</g>
</svg>
