<?xml version="1.0" encoding="UTF-8" standalone="no"?>
<!DOCTYPE svg PUBLIC "-//W3C//DTD SVG 1.1//EN"
 "http://www.w3.org/Graphics/SVG/1.1/DTD/svg11.dtd">
<!-- Generated by graphviz version 2.43.0 (0)
 -->
<!-- Title: src/core/NEON/kernels Pages: 1 -->
<svg width="729pt" height="447pt"
 viewBox="0.00 0.00 729.40 447.00" xmlns="http://www.w3.org/2000/svg" xmlns:xlink="http://www.w3.org/1999/xlink">
<g id="graph0" class="graph" transform="scale(1 1) rotate(0) translate(4 443)">
<title>src/core/NEON/kernels</title>
<polygon fill="white" stroke="transparent" points="-4,4 -4,-443 725.4,-443 725.4,4 -4,4"/>
<g id="clust1" class="cluster">
<title>clusterdir_d91e1966cc57df4f49d1e07be7697713</title>
<g id="a_clust1"><a xlink:href="dir_d91e1966cc57df4f49d1e07be7697713.xhtml" target="_top" xlink:title="NEON">
<polygon fill="#ddddee" stroke="black" points="8,-200 8,-431 263,-431 263,-200 8,-200"/>
<text text-anchor="middle" x="135.5" y="-419" font-family="Helvetica,sans-Serif" font-size="10.00">NEON</text>
</a>
</g>
</g>
<g id="clust2" class="cluster">
<title>clusterdir_1ce938f580a6f304b99685e2c1dd19db</title>
<g id="a_clust2"><a xlink:href="dir_1ce938f580a6f304b99685e2c1dd19db.xhtml" target="_top">
<polygon fill="#eeeeff" stroke="black" points="16,-208 16,-404 255,-404 255,-208 16,-208"/>
</a>
</g>
</g>
<!-- dir_1ce938f580a6f304b99685e2c1dd19db -->
<g id="node1" class="node">
<title>dir_1ce938f580a6f304b99685e2c1dd19db</title>
<text text-anchor="middle" x="220" y="-375.5" font-family="Helvetica,sans-Serif" font-size="10.00">kernels</text>
</g>
<!-- dir_f5eb3f990fb66d2a1104d2728906b7d4 -->
<g id="node4" class="node">
<title>dir_f5eb3f990fb66d2a1104d2728906b7d4</title>
<g id="a_node4"><a xlink:href="dir_f5eb3f990fb66d2a1104d2728906b7d4.xhtml" target="_top" xlink:title="batchnormalization">
<polygon fill="white" stroke="red" points="226.5,-324 115.5,-324 115.5,-288 226.5,-288 226.5,-324"/>
<text text-anchor="middle" x="171" y="-303.5" font-family="Helvetica,sans-Serif" font-size="10.00">batchnormalization</text>
</a>
</g>
</g>
<!-- dir_1ce938f580a6f304b99685e2c1dd19db&#45;&gt;dir_f5eb3f990fb66d2a1104d2728906b7d4 -->
<g id="edge29" class="edge">
<title>dir_1ce938f580a6f304b99685e2c1dd19db&#45;&gt;dir_f5eb3f990fb66d2a1104d2728906b7d4</title>
<path fill="none" stroke="black" d="M207.89,-359.7C202.13,-351.47 195.14,-341.48 188.79,-332.42"/>
<polygon fill="black" stroke="black" points="191.58,-330.29 182.97,-324.1 185.84,-334.3 191.58,-330.29"/>
<g id="a_edge29&#45;headlabel"><a xlink:href="dir_000102_000372.xhtml" target="_top" xlink:title="1">
<text text-anchor="middle" x="195.96" y="-329.11" font-family="Helvetica,sans-Serif" font-size="10.00">1</text>
</a>
</g>
</g>
<!-- dir_47c52b626b579a630a004d74c906e8a5 -->
<g id="node5" class="node">
<title>dir_47c52b626b579a630a004d74c906e8a5</title>
<g id="a_node5"><a xlink:href="dir_47c52b626b579a630a004d74c906e8a5.xhtml" target="_top" xlink:title="detail">
<polygon fill="white" stroke="black" points="215,-252 161,-252 161,-216 215,-216 215,-252"/>
<text text-anchor="middle" x="188" y="-231.5" font-family="Helvetica,sans-Serif" font-size="10.00">detail</text>
</a>
</g>
</g>
<!-- dir_1ce938f580a6f304b99685e2c1dd19db&#45;&gt;dir_47c52b626b579a630a004d74c906e8a5 -->
<g id="edge30" class="edge">
<title>dir_1ce938f580a6f304b99685e2c1dd19db&#45;&gt;dir_47c52b626b579a630a004d74c906e8a5</title>
<path fill="none" stroke="black" d="M228.09,-359.75C235.5,-341.43 244.06,-311.88 235,-288 231.03,-277.54 223.95,-267.83 216.47,-259.65"/>
<polygon fill="black" stroke="black" points="218.77,-256.99 209.27,-252.3 213.77,-261.89 218.77,-256.99"/>
<g id="a_edge30&#45;headlabel"><a xlink:href="dir_000102_000464.xhtml" target="_top" xlink:title="4">
<text text-anchor="middle" x="223.31" y="-255.07" font-family="Helvetica,sans-Serif" font-size="10.00">4</text>
</a>
</g>
</g>
<!-- dir_34b4cee2b5900b653deb3438fc906cf4 -->
<g id="node6" class="node">
<title>dir_34b4cee2b5900b653deb3438fc906cf4</title>
<g id="a_node6"><a xlink:href="dir_34b4cee2b5900b653deb3438fc906cf4.xhtml" target="_top" xlink:title="common">
<polygon fill="none" stroke="black" points="330.5,-252 271.5,-252 271.5,-216 330.5,-216 330.5,-252"/>
<text text-anchor="middle" x="301" y="-231.5" font-family="Helvetica,sans-Serif" font-size="10.00">common</text>
</a>
</g>
</g>
<!-- dir_1ce938f580a6f304b99685e2c1dd19db&#45;&gt;dir_34b4cee2b5900b653deb3438fc906cf4 -->
<g id="edge28" class="edge">
<title>dir_1ce938f580a6f304b99685e2c1dd19db&#45;&gt;dir_34b4cee2b5900b653deb3438fc906cf4</title>
<path fill="none" stroke="black" d="M229.77,-359.87C243.82,-335.24 269.83,-289.64 286.23,-260.88"/>
<polygon fill="black" stroke="black" points="289.28,-262.61 291.19,-252.19 283.2,-259.14 289.28,-262.61"/>
<g id="a_edge28&#45;headlabel"><a xlink:href="dir_000102_000045.xhtml" target="_top" xlink:title="10">
<text text-anchor="middle" x="289.97" y="-264.64" font-family="Helvetica,sans-Serif" font-size="10.00">10</text>
</a>
</g>
</g>
<!-- dir_707aa52d67938117542c6646238d6f70 -->
<g id="node8" class="node">
<title>dir_707aa52d67938117542c6646238d6f70</title>
<g id="a_node8"><a xlink:href="dir_707aa52d67938117542c6646238d6f70.xhtml" target="_top" xlink:title="helpers">
<polygon fill="none" stroke="black" points="517,-180 463,-180 463,-144 517,-144 517,-180"/>
<text text-anchor="middle" x="490" y="-159.5" font-family="Helvetica,sans-Serif" font-size="10.00">helpers</text>
</a>
</g>
</g>
<!-- dir_1ce938f580a6f304b99685e2c1dd19db&#45;&gt;dir_707aa52d67938117542c6646238d6f70 -->
<g id="edge31" class="edge">
<title>dir_1ce938f580a6f304b99685e2c1dd19db&#45;&gt;dir_707aa52d67938117542c6646238d6f70</title>
<path fill="none" stroke="black" d="M247.35,-374.14C302.03,-367.91 422.18,-351.39 452,-324 489.18,-289.84 493.22,-226.66 492.09,-190.44"/>
<polygon fill="black" stroke="black" points="495.58,-189.95 491.61,-180.12 488.58,-190.28 495.58,-189.95"/>
<g id="a_edge31&#45;headlabel"><a xlink:href="dir_000102_000034.xhtml" target="_top" xlink:title="72">
<text text-anchor="middle" x="498.58" y="-190.91" font-family="Helvetica,sans-Serif" font-size="10.00">72</text>
</a>
</g>
</g>
<!-- dir_a8053b3d69cfefb2b2e6ec7bf9dd5c1a -->
<g id="node11" class="node">
<title>dir_a8053b3d69cfefb2b2e6ec7bf9dd5c1a</title>
<g id="a_node11"><a xlink:href="dir_a8053b3d69cfefb2b2e6ec7bf9dd5c1a.xhtml" target="_top" xlink:title="utils">
<polygon fill="white" stroke="red" points="703,-252 649,-252 649,-216 703,-216 703,-252"/>
<text text-anchor="middle" x="676" y="-231.5" font-family="Helvetica,sans-Serif" font-size="10.00">utils</text>
</a>
</g>
</g>
<!-- dir_1ce938f580a6f304b99685e2c1dd19db&#45;&gt;dir_a8053b3d69cfefb2b2e6ec7bf9dd5c1a -->
<g id="edge32" class="edge">
<title>dir_1ce938f580a6f304b99685e2c1dd19db&#45;&gt;dir_a8053b3d69cfefb2b2e6ec7bf9dd5c1a</title>
<path fill="none" stroke="black" d="M247.39,-376.83C305.68,-375.6 445.4,-367.87 552,-324 589.65,-308.51 626.77,-279.56 650.43,-258.88"/>
<polygon fill="black" stroke="black" points="652.78,-261.48 657.93,-252.22 648.13,-256.25 652.78,-261.48"/>
<g id="a_edge32&#45;headlabel"><a xlink:href="dir_000102_000050.xhtml" target="_top" xlink:title="2">
<text text-anchor="middle" x="651.98" y="-263.49" font-family="Helvetica,sans-Serif" font-size="10.00">2</text>
</a>
</g>
</g>
<!-- dir_1d7cadfed01c895b25460177608d44e9 -->
<g id="node12" class="node">
<title>dir_1d7cadfed01c895b25460177608d44e9</title>
<g id="a_node12"><a xlink:href="dir_1d7cadfed01c895b25460177608d44e9.xhtml" target="_top" xlink:title="CPP">
<polygon fill="white" stroke="red" points="593,-252 539,-252 539,-216 593,-216 593,-252"/>
<text text-anchor="middle" x="566" y="-231.5" font-family="Helvetica,sans-Serif" font-size="10.00">CPP</text>
</a>
</g>
</g>
<!-- dir_1ce938f580a6f304b99685e2c1dd19db&#45;&gt;dir_1d7cadfed01c895b25460177608d44e9 -->
<g id="edge33" class="edge">
<title>dir_1ce938f580a6f304b99685e2c1dd19db&#45;&gt;dir_1d7cadfed01c895b25460177608d44e9</title>
<path fill="none" stroke="black" d="M247.26,-375.46C313.67,-371.23 481.54,-357.42 525,-324 544.64,-308.9 555.2,-282.18 560.66,-261.95"/>
<polygon fill="black" stroke="black" points="564.1,-262.6 563.07,-252.05 557.3,-260.94 564.1,-262.6"/>
<g id="a_edge33&#45;headlabel"><a xlink:href="dir_000102_000052.xhtml" target="_top" xlink:title="15">
<text text-anchor="middle" x="566.01" y="-264.26" font-family="Helvetica,sans-Serif" font-size="10.00">15</text>
</a>
</g>
</g>
<!-- dir_fdedb0aba14d44ce9d99bc100e026e6a -->
<g id="node14" class="node">
<title>dir_fdedb0aba14d44ce9d99bc100e026e6a</title>
<g id="a_node14"><a xlink:href="dir_fdedb0aba14d44ce9d99bc100e026e6a.xhtml" target="_top" xlink:title="common">
<polygon fill="white" stroke="red" points="632.5,-180 573.5,-180 573.5,-144 632.5,-144 632.5,-180"/>
<text text-anchor="middle" x="603" y="-159.5" font-family="Helvetica,sans-Serif" font-size="10.00">common</text>
</a>
</g>
</g>
<!-- dir_1ce938f580a6f304b99685e2c1dd19db&#45;&gt;dir_fdedb0aba14d44ce9d99bc100e026e6a -->
<g id="edge34" class="edge">
<title>dir_1ce938f580a6f304b99685e2c1dd19db&#45;&gt;dir_fdedb0aba14d44ce9d99bc100e026e6a</title>
<path fill="none" stroke="black" d="M247.36,-376.97C310.68,-376.08 471.43,-369.16 596,-324 653.05,-303.32 682.5,-305.03 712,-252 723.23,-231.8 725.46,-218.79 712,-200 696.31,-178.11 666.94,-169.01 642.64,-165.31"/>
<polygon fill="black" stroke="black" points="642.95,-161.82 632.59,-164.03 642.06,-168.76 642.95,-161.82"/>
<g id="a_edge34&#45;headlabel"><a xlink:href="dir_000102_000019.xhtml" target="_top" xlink:title="2">
<text text-anchor="middle" x="646.87" y="-156.96" font-family="Helvetica,sans-Serif" font-size="10.00">2</text>
</a>
</g>
</g>
<!-- dir_ea98ae4f30fbc97db6231c6535bdb2d9 -->
<g id="node2" class="node">
<title>dir_ea98ae4f30fbc97db6231c6535bdb2d9</title>
<g id="a_node2"><a xlink:href="dir_ea98ae4f30fbc97db6231c6535bdb2d9.xhtml" target="_top" xlink:title="arm_conv">
<polygon fill="white" stroke="red" points="133.5,-396 68.5,-396 68.5,-360 133.5,-360 133.5,-396"/>
<text text-anchor="middle" x="101" y="-375.5" font-family="Helvetica,sans-Serif" font-size="10.00">arm_conv</text>
</a>
</g>
</g>
<!-- dir_9847dd9cb7a28e46201717fa7336cf62 -->
<g id="node3" class="node">
<title>dir_9847dd9cb7a28e46201717fa7336cf62</title>
<g id="a_node3"><a xlink:href="dir_9847dd9cb7a28e46201717fa7336cf62.xhtml" target="_top" xlink:title="arm_gemm">
<polygon fill="white" stroke="red" points="97.5,-324 24.5,-324 24.5,-288 97.5,-288 97.5,-324"/>
<text text-anchor="middle" x="61" y="-303.5" font-family="Helvetica,sans-Serif" font-size="10.00">arm_gemm</text>
</a>
</g>
</g>
<!-- dir_ea98ae4f30fbc97db6231c6535bdb2d9&#45;&gt;dir_9847dd9cb7a28e46201717fa7336cf62 -->
<g id="edge24" class="edge">
<title>dir_ea98ae4f30fbc97db6231c6535bdb2d9&#45;&gt;dir_9847dd9cb7a28e46201717fa7336cf62</title>
<path fill="none" stroke="black" d="M91.11,-359.7C86.51,-351.64 80.94,-341.89 75.85,-332.98"/>
<polygon fill="black" stroke="black" points="78.77,-331.05 70.77,-324.1 72.7,-334.52 78.77,-331.05"/>
<g id="a_edge24&#45;headlabel"><a xlink:href="dir_000103_000235.xhtml" target="_top" xlink:title="89">
<text text-anchor="middle" x="83.02" y="-330.26" font-family="Helvetica,sans-Serif" font-size="10.00">89</text>
</a>
</g>
</g>
<!-- dir_2c61f424fd391396db977702a2beee9a -->
<g id="node9" class="node">
<title>dir_2c61f424fd391396db977702a2beee9a</title>
<g id="a_node9"><a xlink:href="dir_2c61f424fd391396db977702a2beee9a.xhtml" target="_top" xlink:title="cpu">
<polygon fill="white" stroke="red" points="443,-324 389,-324 389,-288 443,-288 443,-324"/>
<text text-anchor="middle" x="416" y="-303.5" font-family="Helvetica,sans-Serif" font-size="10.00">cpu</text>
</a>
</g>
</g>
<!-- dir_ea98ae4f30fbc97db6231c6535bdb2d9&#45;&gt;dir_2c61f424fd391396db977702a2beee9a -->
<g id="edge23" class="edge">
<title>dir_ea98ae4f30fbc97db6231c6535bdb2d9&#45;&gt;dir_2c61f424fd391396db977702a2beee9a</title>
<path fill="none" stroke="black" d="M133.52,-369.77C192.49,-356.67 316.68,-329.07 378.87,-315.25"/>
<polygon fill="black" stroke="black" points="379.65,-318.66 388.66,-313.08 378.14,-311.83 379.65,-318.66"/>
<g id="a_edge23&#45;headlabel"><a xlink:href="dir_000103_000374.xhtml" target="_top" xlink:title="46">
<text text-anchor="middle" x="376.76" y="-319.71" font-family="Helvetica,sans-Serif" font-size="10.00">46</text>
</a>
</g>
</g>
<!-- dir_9847dd9cb7a28e46201717fa7336cf62&#45;&gt;dir_2c61f424fd391396db977702a2beee9a -->
<g id="edge38" class="edge">
<title>dir_9847dd9cb7a28e46201717fa7336cf62&#45;&gt;dir_2c61f424fd391396db977702a2beee9a</title>
<path fill="none" stroke="black" d="M81.83,-324.08C91.29,-331.13 103.03,-338.38 115,-342 207.19,-369.91 321.4,-339.52 379.03,-319.92"/>
<polygon fill="black" stroke="black" points="380.49,-323.11 388.78,-316.52 378.19,-316.5 380.49,-323.11"/>
<g id="a_edge38&#45;headlabel"><a xlink:href="dir_000235_000374.xhtml" target="_top" xlink:title="27">
<text text-anchor="middle" x="378.03" y="-324.48" font-family="Helvetica,sans-Serif" font-size="10.00">27</text>
</a>
</g>
</g>
<!-- dir_5815af820a9cc9481f1d0990a0d60286 -->
<g id="node13" class="node">
<title>dir_5815af820a9cc9481f1d0990a0d60286</title>
<g id="a_node13"><a xlink:href="dir_5815af820a9cc9481f1d0990a0d60286.xhtml" target="_top" xlink:title="support">
<polygon fill="none" stroke="black" points="505,-36 451,-36 451,0 505,0 505,-36"/>
<text text-anchor="middle" x="478" y="-15.5" font-family="Helvetica,sans-Serif" font-size="10.00">support</text>
</a>
</g>
</g>
<!-- dir_9847dd9cb7a28e46201717fa7336cf62&#45;&gt;dir_5815af820a9cc9481f1d0990a0d60286 -->
<g id="edge39" class="edge">
<title>dir_9847dd9cb7a28e46201717fa7336cf62&#45;&gt;dir_5815af820a9cc9481f1d0990a0d60286</title>
<path fill="none" stroke="black" d="M66.89,-287.87C82.89,-244.1 131.58,-127.65 214,-72 250.61,-47.28 377.03,-30.17 440.72,-22.91"/>
<polygon fill="black" stroke="black" points="441.2,-26.38 450.75,-21.79 440.42,-19.42 441.2,-26.38"/>
<g id="a_edge39&#45;headlabel"><a xlink:href="dir_000235_000032.xhtml" target="_top" xlink:title="1">
<text text-anchor="middle" x="437.94" y="-27.1" font-family="Helvetica,sans-Serif" font-size="10.00">1</text>
</a>
</g>
</g>
<!-- dir_f5eb3f990fb66d2a1104d2728906b7d4&#45;&gt;dir_47c52b626b579a630a004d74c906e8a5 -->
<g id="edge2" class="edge">
<title>dir_f5eb3f990fb66d2a1104d2728906b7d4&#45;&gt;dir_47c52b626b579a630a004d74c906e8a5</title>
<path fill="none" stroke="black" d="M175.2,-287.7C177.1,-279.9 179.38,-270.51 181.48,-261.83"/>
<polygon fill="black" stroke="black" points="184.89,-262.65 183.85,-252.1 178.08,-261 184.89,-262.65"/>
<g id="a_edge2&#45;headlabel"><a xlink:href="dir_000372_000464.xhtml" target="_top" xlink:title="2">
<text text-anchor="middle" x="186.8" y="-264.31" font-family="Helvetica,sans-Serif" font-size="10.00">2</text>
</a>
</g>
</g>
<!-- dir_8224aa485683c095eaa3fd7faa788467 -->
<g id="node7" class="node">
<title>dir_8224aa485683c095eaa3fd7faa788467</title>
<g id="a_node7"><a xlink:href="dir_8224aa485683c095eaa3fd7faa788467.xhtml" target="_top" xlink:title="wrapper">
<polygon fill="white" stroke="red" points="272,-180 216,-180 216,-144 272,-144 272,-180"/>
<text text-anchor="middle" x="244" y="-159.5" font-family="Helvetica,sans-Serif" font-size="10.00">wrapper</text>
</a>
</g>
</g>
<!-- dir_f5eb3f990fb66d2a1104d2728906b7d4&#45;&gt;dir_8224aa485683c095eaa3fd7faa788467 -->
<g id="edge1" class="edge">
<title>dir_f5eb3f990fb66d2a1104d2728906b7d4&#45;&gt;dir_8224aa485683c095eaa3fd7faa788467</title>
<path fill="none" stroke="black" d="M193.34,-287.84C204.15,-278.39 216.41,-265.79 224,-252 234.53,-232.86 239.52,-208.51 241.88,-190.12"/>
<polygon fill="black" stroke="black" points="245.38,-190.39 242.99,-180.07 238.42,-189.62 245.38,-190.39"/>
<g id="a_edge1&#45;headlabel"><a xlink:href="dir_000372_000030.xhtml" target="_top" xlink:title="2">
<text text-anchor="middle" x="247.8" y="-191.77" font-family="Helvetica,sans-Serif" font-size="10.00">2</text>
</a>
</g>
</g>
<!-- dir_214608ef36d61442cb2b0c1c4e9a7def -->
<g id="node10" class="node">
<title>dir_214608ef36d61442cb2b0c1c4e9a7def</title>
<g id="a_node10"><a xlink:href="dir_214608ef36d61442cb2b0c1c4e9a7def.xhtml" target="_top" xlink:title="arm_compute">
<polygon fill="white" stroke="red" points="520,-108 436,-108 436,-72 520,-72 520,-108"/>
<text text-anchor="middle" x="478" y="-87.5" font-family="Helvetica,sans-Serif" font-size="10.00">arm_compute</text>
</a>
</g>
</g>
<!-- dir_f5eb3f990fb66d2a1104d2728906b7d4&#45;&gt;dir_214608ef36d61442cb2b0c1c4e9a7def -->
<g id="edge3" class="edge">
<title>dir_f5eb3f990fb66d2a1104d2728906b7d4&#45;&gt;dir_214608ef36d61442cb2b0c1c4e9a7def</title>
<path fill="none" stroke="black" d="M163.11,-287.75C158.89,-277.58 154.14,-264.33 152,-252 143.38,-202.42 144.53,-172.51 186,-144 224.09,-117.81 352.23,-102.3 425.48,-95.36"/>
<polygon fill="black" stroke="black" points="426.23,-98.8 435.87,-94.4 425.59,-91.83 426.23,-98.8"/>
<g id="a_edge3&#45;headlabel"><a xlink:href="dir_000372_000000.xhtml" target="_top" xlink:title="14">
<text text-anchor="middle" x="422.91" y="-99.46" font-family="Helvetica,sans-Serif" font-size="10.00">14</text>
</a>
</g>
</g>
<!-- dir_47c52b626b579a630a004d74c906e8a5&#45;&gt;dir_8224aa485683c095eaa3fd7faa788467 -->
<g id="edge4" class="edge">
<title>dir_47c52b626b579a630a004d74c906e8a5&#45;&gt;dir_8224aa485683c095eaa3fd7faa788467</title>
<path fill="none" stroke="black" d="M201.84,-215.7C208.49,-207.39 216.58,-197.28 223.89,-188.14"/>
<polygon fill="black" stroke="black" points="226.8,-190.1 230.32,-180.1 221.34,-185.73 226.8,-190.1"/>
<g id="a_edge4&#45;headlabel"><a xlink:href="dir_000464_000030.xhtml" target="_top" xlink:title="2">
<text text-anchor="middle" x="226.77" y="-192.18" font-family="Helvetica,sans-Serif" font-size="10.00">2</text>
</a>
</g>
</g>
<!-- dir_47c52b626b579a630a004d74c906e8a5&#45;&gt;dir_214608ef36d61442cb2b0c1c4e9a7def -->
<g id="edge5" class="edge">
<title>dir_47c52b626b579a630a004d74c906e8a5&#45;&gt;dir_214608ef36d61442cb2b0c1c4e9a7def</title>
<path fill="none" stroke="black" d="M186.51,-215.99C185.75,-195.9 187.85,-162.83 207,-144 237.32,-114.19 355.75,-100.25 425.62,-94.49"/>
<polygon fill="black" stroke="black" points="426.28,-97.95 435.97,-93.67 425.73,-90.97 426.28,-97.95"/>
<g id="a_edge5&#45;headlabel"><a xlink:href="dir_000464_000000.xhtml" target="_top" xlink:title="4">
<text text-anchor="middle" x="422.92" y="-98.56" font-family="Helvetica,sans-Serif" font-size="10.00">4</text>
</a>
</g>
</g>
<!-- dir_47c52b626b579a630a004d74c906e8a5&#45;&gt;dir_5815af820a9cc9481f1d0990a0d60286 -->
<g id="edge6" class="edge">
<title>dir_47c52b626b579a630a004d74c906e8a5&#45;&gt;dir_5815af820a9cc9481f1d0990a0d60286</title>
<path fill="none" stroke="black" d="M182.19,-215.67C176.91,-196.48 171.87,-165.42 186,-144 243.53,-56.79 375.83,-30.2 440.73,-22.27"/>
<polygon fill="black" stroke="black" points="441.37,-25.72 450.91,-21.11 440.58,-18.76 441.37,-25.72"/>
<g id="a_edge6&#45;headlabel"><a xlink:href="dir_000464_000032.xhtml" target="_top" xlink:title="1">
<text text-anchor="middle" x="438.12" y="-26.45" font-family="Helvetica,sans-Serif" font-size="10.00">1</text>
</a>
</g>
</g>
<!-- dir_707aa52d67938117542c6646238d6f70&#45;&gt;dir_214608ef36d61442cb2b0c1c4e9a7def -->
<g id="edge7" class="edge">
<title>dir_707aa52d67938117542c6646238d6f70&#45;&gt;dir_214608ef36d61442cb2b0c1c4e9a7def</title>
<path fill="none" stroke="black" d="M487.03,-143.7C485.71,-135.98 484.12,-126.71 482.65,-118.11"/>
<polygon fill="black" stroke="black" points="486.07,-117.37 480.93,-108.1 479.17,-118.55 486.07,-117.37"/>
<g id="a_edge7&#45;headlabel"><a xlink:href="dir_000034_000000.xhtml" target="_top" xlink:title="16">
<text text-anchor="middle" x="489.48" y="-117.93" font-family="Helvetica,sans-Serif" font-size="10.00">16</text>
</a>
</g>
</g>
<!-- dir_2c61f424fd391396db977702a2beee9a&#45;&gt;dir_9847dd9cb7a28e46201717fa7336cf62 -->
<g id="edge17" class="edge">
<title>dir_2c61f424fd391396db977702a2beee9a&#45;&gt;dir_9847dd9cb7a28e46201717fa7336cf62</title>
<path fill="none" stroke="black" d="M388.78,-316.52C335.19,-335.66 212.72,-371.59 115,-342 106.4,-339.4 97.91,-334.92 90.31,-329.99"/>
<polygon fill="black" stroke="black" points="92.03,-326.92 81.83,-324.08 88.03,-332.67 92.03,-326.92"/>
<g id="a_edge17&#45;headlabel"><a xlink:href="dir_000374_000235.xhtml" target="_top" xlink:title="1">
<text text-anchor="middle" x="96.6" y="-324.15" font-family="Helvetica,sans-Serif" font-size="10.00">1</text>
</a>
</g>
</g>
<!-- dir_2c61f424fd391396db977702a2beee9a&#45;&gt;dir_47c52b626b579a630a004d74c906e8a5 -->
<g id="edge10" class="edge">
<title>dir_2c61f424fd391396db977702a2beee9a&#45;&gt;dir_47c52b626b579a630a004d74c906e8a5</title>
<path fill="none" stroke="black" d="M388.95,-296.7C348.07,-284.14 270.46,-260.32 224.58,-246.23"/>
<polygon fill="black" stroke="black" points="225.6,-242.88 215.01,-243.29 223.55,-249.57 225.6,-242.88"/>
<g id="a_edge10&#45;headlabel"><a xlink:href="dir_000374_000464.xhtml" target="_top" xlink:title="2">
<text text-anchor="middle" x="229.87" y="-238.72" font-family="Helvetica,sans-Serif" font-size="10.00">2</text>
</a>
</g>
</g>
<!-- dir_2c61f424fd391396db977702a2beee9a&#45;&gt;dir_34b4cee2b5900b653deb3438fc906cf4 -->
<g id="edge8" class="edge">
<title>dir_2c61f424fd391396db977702a2beee9a&#45;&gt;dir_34b4cee2b5900b653deb3438fc906cf4</title>
<path fill="none" stroke="black" d="M388.75,-288.41C373.62,-279.2 354.58,-267.61 338.11,-257.59"/>
<polygon fill="black" stroke="black" points="339.62,-254.41 329.26,-252.2 335.98,-260.39 339.62,-254.41"/>
<g id="a_edge8&#45;headlabel"><a xlink:href="dir_000374_000045.xhtml" target="_top" xlink:title="80">
<text text-anchor="middle" x="344.17" y="-251.35" font-family="Helvetica,sans-Serif" font-size="10.00">80</text>
</a>
</g>
</g>
<!-- dir_2c61f424fd391396db977702a2beee9a&#45;&gt;dir_8224aa485683c095eaa3fd7faa788467 -->
<g id="edge9" class="edge">
<title>dir_2c61f424fd391396db977702a2beee9a&#45;&gt;dir_8224aa485683c095eaa3fd7faa788467</title>
<path fill="none" stroke="black" d="M405.07,-287.76C388.06,-261.37 355.5,-212.66 339,-200 322.22,-187.12 300.4,-178.2 281.91,-172.35"/>
<polygon fill="black" stroke="black" points="282.89,-168.99 272.3,-169.49 280.89,-175.7 282.89,-168.99"/>
<g id="a_edge9&#45;headlabel"><a xlink:href="dir_000374_000030.xhtml" target="_top" xlink:title="70">
<text text-anchor="middle" x="287.14" y="-164.8" font-family="Helvetica,sans-Serif" font-size="10.00">70</text>
</a>
</g>
</g>
<!-- dir_2c61f424fd391396db977702a2beee9a&#45;&gt;dir_707aa52d67938117542c6646238d6f70 -->
<g id="edge11" class="edge">
<title>dir_2c61f424fd391396db977702a2beee9a&#45;&gt;dir_707aa52d67938117542c6646238d6f70</title>
<path fill="none" stroke="black" d="M427.56,-287.66C434.17,-277.46 442.42,-264.21 449,-252 460.1,-231.4 471.11,-207.25 478.92,-189.31"/>
<polygon fill="black" stroke="black" points="482.17,-190.61 482.91,-180.04 475.74,-187.84 482.17,-190.61"/>
<g id="a_edge11&#45;headlabel"><a xlink:href="dir_000374_000034.xhtml" target="_top" xlink:title="138">
<text text-anchor="middle" x="483.35" y="-192.53" font-family="Helvetica,sans-Serif" font-size="10.00">138</text>
</a>
</g>
</g>
<!-- dir_2c61f424fd391396db977702a2beee9a&#45;&gt;dir_214608ef36d61442cb2b0c1c4e9a7def -->
<g id="edge12" class="edge">
<title>dir_2c61f424fd391396db977702a2beee9a&#45;&gt;dir_214608ef36d61442cb2b0c1c4e9a7def</title>
<path fill="none" stroke="black" d="M418.93,-287.77C424.25,-257.98 436.58,-195.11 454,-144 457,-135.2 460.94,-125.89 464.76,-117.56"/>
<polygon fill="black" stroke="black" points="468.02,-118.86 469.13,-108.32 461.69,-115.87 468.02,-118.86"/>
<g id="a_edge12&#45;headlabel"><a xlink:href="dir_000374_000000.xhtml" target="_top" xlink:title="676">
<text text-anchor="middle" x="469.05" y="-120.82" font-family="Helvetica,sans-Serif" font-size="10.00">676</text>
</a>
</g>
</g>
<!-- dir_2c61f424fd391396db977702a2beee9a&#45;&gt;dir_a8053b3d69cfefb2b2e6ec7bf9dd5c1a -->
<g id="edge13" class="edge">
<title>dir_2c61f424fd391396db977702a2beee9a&#45;&gt;dir_a8053b3d69cfefb2b2e6ec7bf9dd5c1a</title>
<path fill="none" stroke="black" d="M443.27,-298.59C483.82,-289.91 561.47,-273.04 626,-252 630.24,-250.62 634.65,-248.99 639.05,-247.31"/>
<polygon fill="black" stroke="black" points="640.54,-250.48 648.58,-243.58 637.99,-243.96 640.54,-250.48"/>
<g id="a_edge13&#45;headlabel"><a xlink:href="dir_000374_000050.xhtml" target="_top" xlink:title="14">
<text text-anchor="middle" x="638.22" y="-251.94" font-family="Helvetica,sans-Serif" font-size="10.00">14</text>
</a>
</g>
</g>
<!-- dir_2c61f424fd391396db977702a2beee9a&#45;&gt;dir_1d7cadfed01c895b25460177608d44e9 -->
<g id="edge14" class="edge">
<title>dir_2c61f424fd391396db977702a2beee9a&#45;&gt;dir_1d7cadfed01c895b25460177608d44e9</title>
<path fill="none" stroke="black" d="M443.16,-292.32C467.3,-281.06 502.78,-264.5 529.41,-252.07"/>
<polygon fill="black" stroke="black" points="531.2,-255.1 538.79,-247.7 528.24,-248.76 531.2,-255.1"/>
<g id="a_edge14&#45;headlabel"><a xlink:href="dir_000374_000052.xhtml" target="_top" xlink:title="31">
<text text-anchor="middle" x="529.15" y="-256.69" font-family="Helvetica,sans-Serif" font-size="10.00">31</text>
</a>
</g>
</g>
<!-- dir_2c61f424fd391396db977702a2beee9a&#45;&gt;dir_5815af820a9cc9481f1d0990a0d60286 -->
<g id="edge15" class="edge">
<title>dir_2c61f424fd391396db977702a2beee9a&#45;&gt;dir_5815af820a9cc9481f1d0990a0d60286</title>
<path fill="none" stroke="black" d="M412.85,-287.71C406.38,-247.76 394.8,-146.76 427,-72 431.64,-61.22 439.52,-51.36 447.71,-43.13"/>
<polygon fill="black" stroke="black" points="450.35,-45.46 455.24,-36.07 445.56,-40.36 450.35,-45.46"/>
<g id="a_edge15&#45;headlabel"><a xlink:href="dir_000374_000032.xhtml" target="_top" xlink:title="15">
<text text-anchor="middle" x="449.67" y="-47.49" font-family="Helvetica,sans-Serif" font-size="10.00">15</text>
</a>
</g>
</g>
<!-- dir_2c61f424fd391396db977702a2beee9a&#45;&gt;dir_fdedb0aba14d44ce9d99bc100e026e6a -->
<g id="edge16" class="edge">
<title>dir_2c61f424fd391396db977702a2beee9a&#45;&gt;dir_fdedb0aba14d44ce9d99bc100e026e6a</title>
<path fill="none" stroke="black" d="M443.22,-301.25C490.05,-294.18 582.69,-277.28 602,-252 615.29,-234.59 614.17,-209.18 610.52,-189.96"/>
<polygon fill="black" stroke="black" points="613.9,-189.01 608.31,-180.01 607.07,-190.53 613.9,-189.01"/>
<g id="a_edge16&#45;headlabel"><a xlink:href="dir_000374_000019.xhtml" target="_top" xlink:title="48">
<text text-anchor="middle" x="617.45" y="-189.4" font-family="Helvetica,sans-Serif" font-size="10.00">48</text>
</a>
</g>
</g>
<!-- dir_214608ef36d61442cb2b0c1c4e9a7def&#45;&gt;dir_5815af820a9cc9481f1d0990a0d60286 -->
<g id="edge18" class="edge">
<title>dir_214608ef36d61442cb2b0c1c4e9a7def&#45;&gt;dir_5815af820a9cc9481f1d0990a0d60286</title>
<path fill="none" stroke="black" d="M472.08,-71.7C471.29,-63.98 471.06,-54.71 471.4,-46.11"/>
<polygon fill="black" stroke="black" points="474.9,-46.32 472.1,-36.1 467.92,-45.84 474.9,-46.32"/>
<g id="a_edge18&#45;headlabel"><a xlink:href="dir_000000_000032.xhtml" target="_top" xlink:title="16">
<text text-anchor="middle" x="477.48" y="-47.61" font-family="Helvetica,sans-Serif" font-size="10.00">16</text>
</a>
</g>
</g>
<!-- dir_a8053b3d69cfefb2b2e6ec7bf9dd5c1a&#45;&gt;dir_2c61f424fd391396db977702a2beee9a -->
<g id="edge19" class="edge">
<title>dir_a8053b3d69cfefb2b2e6ec7bf9dd5c1a&#45;&gt;dir_2c61f424fd391396db977702a2beee9a</title>
<path fill="none" stroke="black" d="M648.89,-250.33C647.25,-250.91 645.61,-251.47 644,-252 578.27,-273.44 498.92,-290.53 453.12,-299.07"/>
<polygon fill="black" stroke="black" points="452.26,-295.67 443.05,-300.9 453.52,-302.55 452.26,-295.67"/>
<g id="a_edge19&#45;headlabel"><a xlink:href="dir_000050_000374.xhtml" target="_top" xlink:title="1">
<text text-anchor="middle" x="455.29" y="-289.73" font-family="Helvetica,sans-Serif" font-size="10.00">1</text>
</a>
</g>
</g>
<!-- dir_a8053b3d69cfefb2b2e6ec7bf9dd5c1a&#45;&gt;dir_214608ef36d61442cb2b0c1c4e9a7def -->
<g id="edge20" class="edge">
<title>dir_a8053b3d69cfefb2b2e6ec7bf9dd5c1a&#45;&gt;dir_214608ef36d61442cb2b0c1c4e9a7def</title>
<path fill="none" stroke="black" d="M673.91,-215.82C670.6,-195.87 662.28,-163.24 642,-144 611.78,-115.32 565.91,-102.16 530.36,-96.12"/>
<polygon fill="black" stroke="black" points="530.57,-92.61 520.15,-94.53 529.5,-99.53 530.57,-92.61"/>
<g id="a_edge20&#45;headlabel"><a xlink:href="dir_000050_000000.xhtml" target="_top" xlink:title="26">
<text text-anchor="middle" x="534.56" y="-87.86" font-family="Helvetica,sans-Serif" font-size="10.00">26</text>
</a>
</g>
</g>
<!-- dir_a8053b3d69cfefb2b2e6ec7bf9dd5c1a&#45;&gt;dir_5815af820a9cc9481f1d0990a0d60286 -->
<g id="edge21" class="edge">
<title>dir_a8053b3d69cfefb2b2e6ec7bf9dd5c1a&#45;&gt;dir_5815af820a9cc9481f1d0990a0d60286</title>
<path fill="none" stroke="black" d="M678.15,-215.9C679.66,-196.91 679.45,-166.03 666,-144 631.07,-86.77 558.88,-50.21 514.82,-32.25"/>
<polygon fill="black" stroke="black" points="515.92,-28.92 505.33,-28.49 513.34,-35.43 515.92,-28.92"/>
<g id="a_edge21&#45;headlabel"><a xlink:href="dir_000050_000032.xhtml" target="_top" xlink:title="3">
<text text-anchor="middle" x="520.31" y="-25.1" font-family="Helvetica,sans-Serif" font-size="10.00">3</text>
</a>
</g>
</g>
<!-- dir_a8053b3d69cfefb2b2e6ec7bf9dd5c1a&#45;&gt;dir_fdedb0aba14d44ce9d99bc100e026e6a -->
<g id="edge22" class="edge">
<title>dir_a8053b3d69cfefb2b2e6ec7bf9dd5c1a&#45;&gt;dir_fdedb0aba14d44ce9d99bc100e026e6a</title>
<path fill="none" stroke="black" d="M657.96,-215.7C648.94,-207.05 637.88,-196.45 628.06,-187.03"/>
<polygon fill="black" stroke="black" points="630.48,-184.5 620.84,-180.1 625.63,-189.55 630.48,-184.5"/>
<g id="a_edge22&#45;headlabel"><a xlink:href="dir_000050_000019.xhtml" target="_top" xlink:title="1">
<text text-anchor="middle" x="635.04" y="-182.44" font-family="Helvetica,sans-Serif" font-size="10.00">1</text>
</a>
</g>
</g>
<!-- dir_1d7cadfed01c895b25460177608d44e9&#45;&gt;dir_707aa52d67938117542c6646238d6f70 -->
<g id="edge25" class="edge">
<title>dir_1d7cadfed01c895b25460177608d44e9&#45;&gt;dir_707aa52d67938117542c6646238d6f70</title>
<path fill="none" stroke="black" d="M547.21,-215.7C537.83,-207.05 526.32,-196.45 516.09,-187.03"/>
<polygon fill="black" stroke="black" points="518.3,-184.3 508.57,-180.1 513.55,-189.45 518.3,-184.3"/>
<g id="a_edge25&#45;headlabel"><a xlink:href="dir_000052_000034.xhtml" target="_top" xlink:title="8">
<text text-anchor="middle" x="522.86" y="-182.15" font-family="Helvetica,sans-Serif" font-size="10.00">8</text>
</a>
</g>
</g>
<!-- dir_1d7cadfed01c895b25460177608d44e9&#45;&gt;dir_214608ef36d61442cb2b0c1c4e9a7def -->
<g id="edge26" class="edge">
<title>dir_1d7cadfed01c895b25460177608d44e9&#45;&gt;dir_214608ef36d61442cb2b0c1c4e9a7def</title>
<path fill="none" stroke="black" d="M560.11,-215.79C553.35,-197.24 541.21,-167.25 526,-144 519.55,-134.14 511.28,-124.3 503.43,-115.83"/>
<polygon fill="black" stroke="black" points="505.84,-113.28 496.4,-108.47 500.78,-118.12 505.84,-113.28"/>
<g id="a_edge26&#45;headlabel"><a xlink:href="dir_000052_000000.xhtml" target="_top" xlink:title="18">
<text text-anchor="middle" x="510.38" y="-111.42" font-family="Helvetica,sans-Serif" font-size="10.00">18</text>
</a>
</g>
</g>
<!-- dir_1d7cadfed01c895b25460177608d44e9&#45;&gt;dir_fdedb0aba14d44ce9d99bc100e026e6a -->
<g id="edge27" class="edge">
<title>dir_1d7cadfed01c895b25460177608d44e9&#45;&gt;dir_fdedb0aba14d44ce9d99bc100e026e6a</title>
<path fill="none" stroke="black" d="M575.15,-215.7C579.4,-207.64 584.56,-197.89 589.27,-188.98"/>
<polygon fill="black" stroke="black" points="592.38,-190.58 593.96,-180.1 586.19,-187.31 592.38,-190.58"/>
<g id="a_edge27&#45;headlabel"><a xlink:href="dir_000052_000019.xhtml" target="_top" xlink:title="2">
<text text-anchor="middle" x="593.21" y="-192.59" font-family="Helvetica,sans-Serif" font-size="10.00">2</text>
</a>
</g>
</g>
<!-- dir_5815af820a9cc9481f1d0990a0d60286&#45;&gt;dir_214608ef36d61442cb2b0c1c4e9a7def -->
<g id="edge35" class="edge">
<title>dir_5815af820a9cc9481f1d0990a0d60286&#45;&gt;dir_214608ef36d61442cb2b0c1c4e9a7def</title>
<path fill="none" stroke="black" d="M483.9,-36.1C484.7,-43.79 484.94,-53.05 484.6,-61.67"/>
<polygon fill="black" stroke="black" points="481.11,-61.48 483.92,-71.7 488.09,-61.96 481.11,-61.48"/>
<g id="a_edge35&#45;headlabel"><a xlink:href="dir_000032_000000.xhtml" target="_top" xlink:title="6">
<text text-anchor="middle" x="478.52" y="-55.2" font-family="Helvetica,sans-Serif" font-size="10.00">6</text>
</a>
</g>
</g>
<!-- dir_fdedb0aba14d44ce9d99bc100e026e6a&#45;&gt;dir_214608ef36d61442cb2b0c1c4e9a7def -->
<g id="edge36" class="edge">
<title>dir_fdedb0aba14d44ce9d99bc100e026e6a&#45;&gt;dir_214608ef36d61442cb2b0c1c4e9a7def</title>
<path fill="none" stroke="black" d="M573.38,-144.41C556.78,-135.12 535.85,-123.4 517.83,-113.31"/>
<polygon fill="black" stroke="black" points="519.15,-110.03 508.72,-108.2 515.73,-116.14 519.15,-110.03"/>
<g id="a_edge36&#45;headlabel"><a xlink:href="dir_000019_000000.xhtml" target="_top" xlink:title="17">
<text text-anchor="middle" x="523.67" y="-106.81" font-family="Helvetica,sans-Serif" font-size="10.00">17</text>
</a>
</g>
</g>
<!-- dir_fdedb0aba14d44ce9d99bc100e026e6a&#45;&gt;dir_5815af820a9cc9481f1d0990a0d60286 -->
<g id="edge37" class="edge">
<title>dir_fdedb0aba14d44ce9d99bc100e026e6a&#45;&gt;dir_5815af820a9cc9481f1d0990a0d60286</title>
<path fill="none" stroke="black" d="M589.44,-143.96C574.87,-125.82 550.84,-96.41 529,-72 520.57,-62.58 511.03,-52.52 502.51,-43.72"/>
<polygon fill="black" stroke="black" points="504.82,-41.08 495.33,-36.36 499.81,-45.97 504.82,-41.08"/>
<g id="a_edge37&#45;headlabel"><a xlink:href="dir_000019_000032.xhtml" target="_top" xlink:title="2">
<text text-anchor="middle" x="509.36" y="-39.17" font-family="Helvetica,sans-Serif" font-size="10.00">2</text>
</a>
</g>
</g>
</g>
</svg>
