<?xml version="1.0" encoding="UTF-8" standalone="no"?>
<!DOCTYPE svg PUBLIC "-//W3C//DTD SVG 1.1//EN"
 "http://www.w3.org/Graphics/SVG/1.1/DTD/svg11.dtd">
<!-- Generated by graphviz version 2.43.0 (0)
 -->
<!-- Title: src/cpu/kernels/lut/generic Pages: 1 -->
<svg width="254pt" height="111pt"
 viewBox="0.00 0.00 254.00 111.00" xmlns="http://www.w3.org/2000/svg" xmlns:xlink="http://www.w3.org/1999/xlink">
<g id="graph0" class="graph" transform="scale(1 1) rotate(0) translate(4 107)">
<title>src/cpu/kernels/lut/generic</title>
<polygon fill="white" stroke="transparent" points="-4,4 -4,-107 250,-107 250,4 -4,4"/>
<g id="clust1" class="cluster">
<title>clusterdir_a5a25de4bd483a211edd2f30cef0dda2</title>
<g id="a_clust1"><a xlink:href="dir_a5a25de4bd483a211edd2f30cef0dda2.xhtml" target="_top" xlink:title="lut">
<polygon fill="#ddddee" stroke="black" points="8,-8 8,-95 238,-95 238,-8 8,-8"/>
<text text-anchor="middle" x="123" y="-83" font-family="Helvetica,sans-Serif" font-size="10.00">lut</text>
</a>
</g>
</g>
<g id="clust2" class="cluster">
<title>clusterdir_759ad130c4d2ade5bdd75789c156321e</title>
<g id="a_clust2"><a xlink:href="dir_759ad130c4d2ade5bdd75789c156321e.xhtml" target="_top">
<polygon fill="#eeeeff" stroke="black" points="16,-16 16,-68 230,-68 230,-16 16,-16"/>
</a>
</g>
</g>
<!-- dir_759ad130c4d2ade5bdd75789c156321e -->
<g id="node1" class="node">
<title>dir_759ad130c4d2ade5bdd75789c156321e</title>
<text text-anchor="middle" x="195" y="-39.5" font-family="Helvetica,sans-Serif" font-size="10.00">generic</text>
</g>
<!-- dir_bcdcfeafa1fc614e266e5c60698ef6ce -->
<g id="node2" class="node">
<title>dir_bcdcfeafa1fc614e266e5c60698ef6ce</title>
<g id="a_node2"><a xlink:href="dir_bcdcfeafa1fc614e266e5c60698ef6ce.xhtml" target="_top" xlink:title="neon">
<polygon fill="white" stroke="black" points="150,-60 96,-60 96,-24 150,-24 150,-60"/>
<text text-anchor="middle" x="123" y="-39.5" font-family="Helvetica,sans-Serif" font-size="10.00">neon</text>
</a>
</g>
</g>
<!-- dir_a74e00f66144c1bac567807c2c6b8a84 -->
<g id="node3" class="node">
<title>dir_a74e00f66144c1bac567807c2c6b8a84</title>
<g id="a_node3"><a xlink:href="dir_a74e00f66144c1bac567807c2c6b8a84.xhtml" target="_top" xlink:title="sve2">
<polygon fill="white" stroke="black" points="78,-60 24,-60 24,-24 78,-24 78,-60"/>
<text text-anchor="middle" x="51" y="-39.5" font-family="Helvetica,sans-Serif" font-size="10.00">sve2</text>
</a>
</g>
</g>
</g>
</svg>
