<?xml version="1.0" encoding="UTF-8" standalone="no"?>
<!DOCTYPE svg PUBLIC "-//W3C//DTD SVG 1.1//EN"
 "http://www.w3.org/Graphics/SVG/1.1/DTD/svg11.dtd">
<!-- Generated by graphviz version 2.43.0 (0)
 -->
<!-- Title: src/dynamic_fusion/sketch/gpu Pages: 1 -->
<svg width="824pt" height="591pt"
 viewBox="0.00 0.00 824.00 591.00" xmlns="http://www.w3.org/2000/svg" xmlns:xlink="http://www.w3.org/1999/xlink">
<g id="graph0" class="graph" transform="scale(1 1) rotate(0) translate(4 587)">
<title>src/dynamic_fusion/sketch/gpu</title>
<polygon fill="white" stroke="transparent" points="-4,4 -4,-587 820,-587 820,4 -4,4"/>
<g id="clust1" class="cluster">
<title>clusterdir_729ca8b25cabcdcb8b11b571ea7b237a</title>
<g id="a_clust1"><a xlink:href="dir_729ca8b25cabcdcb8b11b571ea7b237a.xhtml" target="_top" xlink:title="sketch">
<polygon fill="#ddddee" stroke="black" points="241,-272 241,-575 415,-575 415,-272 241,-272"/>
<text text-anchor="middle" x="328" y="-563" font-family="Helvetica,sans-Serif" font-size="10.00">sketch</text>
</a>
</g>
</g>
<g id="clust2" class="cluster">
<title>clusterdir_df94d166e0e6f49d063cb29fea25a88b</title>
<g id="a_clust2"><a xlink:href="dir_df94d166e0e6f49d063cb29fea25a88b.xhtml" target="_top">
<polygon fill="#eeeeff" stroke="black" points="249,-280 249,-548 407,-548 407,-280 249,-280"/>
</a>
</g>
</g>
<!-- dir_df94d166e0e6f49d063cb29fea25a88b -->
<g id="node1" class="node">
<title>dir_df94d166e0e6f49d063cb29fea25a88b</title>
<text text-anchor="middle" x="284" y="-519.5" font-family="Helvetica,sans-Serif" font-size="10.00">gpu</text>
</g>
<!-- dir_bdd04b65c107278b5119b030d13de22c -->
<g id="node13" class="node">
<title>dir_bdd04b65c107278b5119b030d13de22c</title>
<g id="a_node13"><a xlink:href="dir_bdd04b65c107278b5119b030d13de22c.xhtml" target="_top" xlink:title="utils">
<polygon fill="none" stroke="black" points="54,-468 0,-468 0,-432 54,-432 54,-468"/>
<text text-anchor="middle" x="27" y="-447.5" font-family="Helvetica,sans-Serif" font-size="10.00">utils</text>
</a>
</g>
</g>
<!-- dir_df94d166e0e6f49d063cb29fea25a88b&#45;&gt;dir_bdd04b65c107278b5119b030d13de22c -->
<g id="edge20" class="edge">
<title>dir_df94d166e0e6f49d063cb29fea25a88b&#45;&gt;dir_bdd04b65c107278b5119b030d13de22c</title>
<path fill="none" stroke="black" d="M256.69,-515.69C215.33,-507.35 134.59,-489.83 68,-468 66.58,-467.53 65.14,-467.04 63.69,-466.53"/>
<polygon fill="black" stroke="black" points="64.72,-463.18 54.13,-462.93 62.25,-469.73 64.72,-463.18"/>
<g id="a_edge20&#45;headlabel"><a xlink:href="dir_000025_000504.xhtml" target="_top" xlink:title="2">
<text text-anchor="middle" x="69.09" y="-459.29" font-family="Helvetica,sans-Serif" font-size="10.00">2</text>
</a>
</g>
</g>
<!-- dir_41286eb82ab9bcc453374927cfc10252 -->
<g id="node2" class="node">
<title>dir_41286eb82ab9bcc453374927cfc10252</title>
<g id="a_node2"><a xlink:href="dir_41286eb82ab9bcc453374927cfc10252.xhtml" target="_top" xlink:title="ckw_driver">
<polygon fill="white" stroke="red" points="399,-540 329,-540 329,-504 399,-504 399,-540"/>
<text text-anchor="middle" x="364" y="-519.5" font-family="Helvetica,sans-Serif" font-size="10.00">ckw_driver</text>
</a>
</g>
</g>
<!-- dir_2dfbec2966693e15f04cad1350ff3fc9 -->
<g id="node3" class="node">
<title>dir_2dfbec2966693e15f04cad1350ff3fc9</title>
<g id="a_node3"><a xlink:href="dir_2dfbec2966693e15f04cad1350ff3fc9.xhtml" target="_top" xlink:title="components">
<polygon fill="white" stroke="red" points="344.5,-468 267.5,-468 267.5,-432 344.5,-432 344.5,-468"/>
<text text-anchor="middle" x="306" y="-447.5" font-family="Helvetica,sans-Serif" font-size="10.00">components</text>
</a>
</g>
</g>
<!-- dir_41286eb82ab9bcc453374927cfc10252&#45;&gt;dir_2dfbec2966693e15f04cad1350ff3fc9 -->
<g id="edge36" class="edge">
<title>dir_41286eb82ab9bcc453374927cfc10252&#45;&gt;dir_2dfbec2966693e15f04cad1350ff3fc9</title>
<path fill="none" stroke="black" d="M349.66,-503.7C342.71,-495.3 334.23,-485.07 326.6,-475.86"/>
<polygon fill="black" stroke="black" points="329.25,-473.57 320.17,-468.1 323.86,-478.04 329.25,-473.57"/>
<g id="a_edge36&#45;headlabel"><a xlink:href="dir_000493_000026.xhtml" target="_top" xlink:title="7">
<text text-anchor="middle" x="333.73" y="-472.03" font-family="Helvetica,sans-Serif" font-size="10.00">7</text>
</a>
</g>
</g>
<!-- dir_6873a2afc4715a8a8ff813bcf2ca82fa -->
<g id="node4" class="node">
<title>dir_6873a2afc4715a8a8ff813bcf2ca82fa</title>
<g id="a_node4"><a xlink:href="dir_6873a2afc4715a8a8ff813bcf2ca82fa.xhtml" target="_top" xlink:title="operators">
<polygon fill="white" stroke="red" points="392.5,-396 329.5,-396 329.5,-360 392.5,-360 392.5,-396"/>
<text text-anchor="middle" x="361" y="-375.5" font-family="Helvetica,sans-Serif" font-size="10.00">operators</text>
</a>
</g>
</g>
<!-- dir_41286eb82ab9bcc453374927cfc10252&#45;&gt;dir_6873a2afc4715a8a8ff813bcf2ca82fa -->
<g id="edge35" class="edge">
<title>dir_41286eb82ab9bcc453374927cfc10252&#45;&gt;dir_6873a2afc4715a8a8ff813bcf2ca82fa</title>
<path fill="none" stroke="black" d="M363.64,-503.87C363.13,-479.67 362.19,-435.21 361.58,-406.39"/>
<polygon fill="black" stroke="black" points="365.07,-406.11 361.36,-396.19 358.08,-406.26 365.07,-406.11"/>
<g id="a_edge35&#45;headlabel"><a xlink:href="dir_000493_000500.xhtml" target="_top" xlink:title="1">
<text text-anchor="middle" x="367.99" y="-407.15" font-family="Helvetica,sans-Serif" font-size="10.00">1</text>
</a>
</g>
</g>
<!-- dir_214608ef36d61442cb2b0c1c4e9a7def -->
<g id="node8" class="node">
<title>dir_214608ef36d61442cb2b0c1c4e9a7def</title>
<g id="a_node8"><a xlink:href="dir_214608ef36d61442cb2b0c1c4e9a7def.xhtml" target="_top" xlink:title="arm_compute">
<polygon fill="white" stroke="red" points="313,-108 229,-108 229,-72 313,-72 313,-108"/>
<text text-anchor="middle" x="271" y="-87.5" font-family="Helvetica,sans-Serif" font-size="10.00">arm_compute</text>
</a>
</g>
</g>
<!-- dir_41286eb82ab9bcc453374927cfc10252&#45;&gt;dir_214608ef36d61442cb2b0c1c4e9a7def -->
<g id="edge37" class="edge">
<title>dir_41286eb82ab9bcc453374927cfc10252&#45;&gt;dir_214608ef36d61442cb2b0c1c4e9a7def</title>
<path fill="none" stroke="black" d="M328.85,-507.3C253.26,-477.3 82,-406.34 82,-379 82,-379 82,-379 82,-233 82,-186.96 99.87,-173.75 135,-144 159.03,-123.65 191.76,-110.57 219.1,-102.5"/>
<polygon fill="black" stroke="black" points="220.22,-105.82 228.9,-99.75 218.33,-99.08 220.22,-105.82"/>
<g id="a_edge37&#45;headlabel"><a xlink:href="dir_000493_000000.xhtml" target="_top" xlink:title="24">
<text text-anchor="middle" x="217.53" y="-107.02" font-family="Helvetica,sans-Serif" font-size="10.00">24</text>
</a>
</g>
</g>
<!-- dir_aebb8dcc11953d78e620bbef0b9e2183 -->
<g id="node9" class="node">
<title>dir_aebb8dcc11953d78e620bbef0b9e2183</title>
<g id="a_node9"><a xlink:href="dir_aebb8dcc11953d78e620bbef0b9e2183.xhtml" target="_top" xlink:title="core">
<polygon fill="white" stroke="red" points="484,-252 430,-252 430,-216 484,-216 484,-252"/>
<text text-anchor="middle" x="457" y="-231.5" font-family="Helvetica,sans-Serif" font-size="10.00">core</text>
</a>
</g>
</g>
<!-- dir_41286eb82ab9bcc453374927cfc10252&#45;&gt;dir_aebb8dcc11953d78e620bbef0b9e2183 -->
<g id="edge38" class="edge">
<title>dir_41286eb82ab9bcc453374927cfc10252&#45;&gt;dir_aebb8dcc11953d78e620bbef0b9e2183</title>
<path fill="none" stroke="black" d="M375.83,-503.85C397.76,-470.86 443.83,-395.5 459,-324 463.32,-303.62 462.54,-280.03 460.83,-262.26"/>
<polygon fill="black" stroke="black" points="464.3,-261.83 459.71,-252.28 457.35,-262.61 464.3,-261.83"/>
<g id="a_edge38&#45;headlabel"><a xlink:href="dir_000493_000020.xhtml" target="_top" xlink:title="9">
<text text-anchor="middle" x="467.52" y="-262.59" font-family="Helvetica,sans-Serif" font-size="10.00">9</text>
</a>
</g>
</g>
<!-- dir_5815af820a9cc9481f1d0990a0d60286 -->
<g id="node11" class="node">
<title>dir_5815af820a9cc9481f1d0990a0d60286</title>
<g id="a_node11"><a xlink:href="dir_5815af820a9cc9481f1d0990a0d60286.xhtml" target="_top" xlink:title="support">
<polygon fill="none" stroke="black" points="530,-36 476,-36 476,0 530,0 530,-36"/>
<text text-anchor="middle" x="503" y="-15.5" font-family="Helvetica,sans-Serif" font-size="10.00">support</text>
</a>
</g>
</g>
<!-- dir_41286eb82ab9bcc453374927cfc10252&#45;&gt;dir_5815af820a9cc9481f1d0990a0d60286 -->
<g id="edge39" class="edge">
<title>dir_41286eb82ab9bcc453374927cfc10252&#45;&gt;dir_5815af820a9cc9481f1d0990a0d60286</title>
<path fill="none" stroke="black" d="M399.09,-517.62C505.29,-506.45 816,-466.29 816,-379 816,-379 816,-379 816,-161 816,-41.12 623.22,-21.94 540.25,-19.24"/>
<polygon fill="black" stroke="black" points="540.32,-15.74 530.23,-18.98 540.13,-22.74 540.32,-15.74"/>
<g id="a_edge39&#45;headlabel"><a xlink:href="dir_000493_000032.xhtml" target="_top" xlink:title="1">
<text text-anchor="middle" x="543.99" y="-10.5" font-family="Helvetica,sans-Serif" font-size="10.00">1</text>
</a>
</g>
</g>
<!-- dir_fdedb0aba14d44ce9d99bc100e026e6a -->
<g id="node12" class="node">
<title>dir_fdedb0aba14d44ce9d99bc100e026e6a</title>
<g id="a_node12"><a xlink:href="dir_fdedb0aba14d44ce9d99bc100e026e6a.xhtml" target="_top" xlink:title="common">
<polygon fill="white" stroke="red" points="561.5,-180 502.5,-180 502.5,-144 561.5,-144 561.5,-180"/>
<text text-anchor="middle" x="532" y="-159.5" font-family="Helvetica,sans-Serif" font-size="10.00">common</text>
</a>
</g>
</g>
<!-- dir_41286eb82ab9bcc453374927cfc10252&#45;&gt;dir_fdedb0aba14d44ce9d99bc100e026e6a -->
<g id="edge40" class="edge">
<title>dir_41286eb82ab9bcc453374927cfc10252&#45;&gt;dir_fdedb0aba14d44ce9d99bc100e026e6a</title>
<path fill="none" stroke="black" d="M399.16,-515.46C458.83,-504.15 579.68,-472.68 644,-396 695.49,-334.61 690.21,-273.09 634,-216 616.6,-198.32 592.04,-185.32 571.39,-176.61"/>
<polygon fill="black" stroke="black" points="572.49,-173.28 561.91,-172.8 569.88,-179.78 572.49,-173.28"/>
<g id="a_edge40&#45;headlabel"><a xlink:href="dir_000493_000019.xhtml" target="_top" xlink:title="1">
<text text-anchor="middle" x="576.89" y="-169.49" font-family="Helvetica,sans-Serif" font-size="10.00">1</text>
</a>
</g>
</g>
<!-- dir_2dfbec2966693e15f04cad1350ff3fc9&#45;&gt;dir_6873a2afc4715a8a8ff813bcf2ca82fa -->
<g id="edge14" class="edge">
<title>dir_2dfbec2966693e15f04cad1350ff3fc9&#45;&gt;dir_6873a2afc4715a8a8ff813bcf2ca82fa</title>
<path fill="none" stroke="black" d="M313.68,-431.7C319.41,-423.3 327.26,-413.07 334.97,-403.86"/>
<polygon fill="black" stroke="black" points="337.78,-405.96 341.67,-396.1 332.48,-401.39 337.78,-405.96"/>
<g id="a_edge14&#45;headlabel"><a xlink:href="dir_000026_000500.xhtml" target="_top" xlink:title="1">
<text text-anchor="middle" x="337.59" y="-408.04" font-family="Helvetica,sans-Serif" font-size="10.00">1</text>
</a>
</g>
</g>
<!-- dir_09aab6a206c9d3717fe22866ebbc9576 -->
<g id="node5" class="node">
<title>dir_09aab6a206c9d3717fe22866ebbc9576</title>
<g id="a_node5"><a xlink:href="dir_09aab6a206c9d3717fe22866ebbc9576.xhtml" target="_top" xlink:title="template_writer">
<polygon fill="white" stroke="red" points="353.5,-324 258.5,-324 258.5,-288 353.5,-288 353.5,-324"/>
<text text-anchor="middle" x="306" y="-303.5" font-family="Helvetica,sans-Serif" font-size="10.00">template_writer</text>
</a>
</g>
</g>
<!-- dir_2dfbec2966693e15f04cad1350ff3fc9&#45;&gt;dir_09aab6a206c9d3717fe22866ebbc9576 -->
<g id="edge18" class="edge">
<title>dir_2dfbec2966693e15f04cad1350ff3fc9&#45;&gt;dir_09aab6a206c9d3717fe22866ebbc9576</title>
<path fill="none" stroke="black" d="M301.42,-431.87C298.86,-407.67 298.57,-363.21 300.54,-334.39"/>
<polygon fill="black" stroke="black" points="304.05,-334.45 301.41,-324.19 297.07,-333.86 304.05,-334.45"/>
<g id="a_edge18&#45;headlabel"><a xlink:href="dir_000026_000502.xhtml" target="_top" xlink:title="11">
<text text-anchor="middle" x="306.57" y="-335.77" font-family="Helvetica,sans-Serif" font-size="10.00">11</text>
</a>
</g>
</g>
<!-- dir_8824b015e2d84b32c32abeb682f6ceb8 -->
<g id="node7" class="node">
<title>dir_8824b015e2d84b32c32abeb682f6ceb8</title>
<g id="a_node7"><a xlink:href="dir_8824b015e2d84b32c32abeb682f6ceb8.xhtml" target="_top" xlink:title="utils">
<polygon fill="none" stroke="black" points="202,-324 148,-324 148,-288 202,-288 202,-324"/>
<text text-anchor="middle" x="175" y="-303.5" font-family="Helvetica,sans-Serif" font-size="10.00">utils</text>
</a>
</g>
</g>
<!-- dir_2dfbec2966693e15f04cad1350ff3fc9&#45;&gt;dir_8824b015e2d84b32c32abeb682f6ceb8 -->
<g id="edge15" class="edge">
<title>dir_2dfbec2966693e15f04cad1350ff3fc9&#45;&gt;dir_8824b015e2d84b32c32abeb682f6ceb8</title>
<path fill="none" stroke="black" d="M290.2,-431.87C267.18,-406.92 224.31,-360.45 197.85,-331.77"/>
<polygon fill="black" stroke="black" points="200.21,-329.17 190.86,-324.19 195.07,-333.91 200.21,-329.17"/>
<g id="a_edge15&#45;headlabel"><a xlink:href="dir_000026_000035.xhtml" target="_top" xlink:title="1">
<text text-anchor="middle" x="204.74" y="-327.38" font-family="Helvetica,sans-Serif" font-size="10.00">1</text>
</a>
</g>
</g>
<!-- dir_2dfbec2966693e15f04cad1350ff3fc9&#45;&gt;dir_214608ef36d61442cb2b0c1c4e9a7def -->
<g id="edge16" class="edge">
<title>dir_2dfbec2966693e15f04cad1350ff3fc9&#45;&gt;dir_214608ef36d61442cb2b0c1c4e9a7def</title>
<path fill="none" stroke="black" d="M267.46,-438.51C212.98,-421.07 120,-380.53 120,-307 120,-307 120,-307 120,-233 120,-176.39 177.02,-135.73 220.98,-112.8"/>
<polygon fill="black" stroke="black" points="222.79,-115.81 230.14,-108.18 219.63,-109.56 222.79,-115.81"/>
<g id="a_edge16&#45;headlabel"><a xlink:href="dir_000026_000000.xhtml" target="_top" xlink:title="32">
<text text-anchor="middle" x="220.86" y="-117.46" font-family="Helvetica,sans-Serif" font-size="10.00">32</text>
</a>
</g>
</g>
<!-- dir_2dfbec2966693e15f04cad1350ff3fc9&#45;&gt;dir_aebb8dcc11953d78e620bbef0b9e2183 -->
<g id="edge17" class="edge">
<title>dir_2dfbec2966693e15f04cad1350ff3fc9&#45;&gt;dir_aebb8dcc11953d78e620bbef0b9e2183</title>
<path fill="none" stroke="black" d="M344.5,-435.37C364.04,-426.74 386.8,-413.81 402,-396 435.22,-357.07 448.67,-297.1 453.89,-262.39"/>
<polygon fill="black" stroke="black" points="457.41,-262.45 455.31,-252.07 450.48,-261.5 457.41,-262.45"/>
<g id="a_edge17&#45;headlabel"><a xlink:href="dir_000026_000020.xhtml" target="_top" xlink:title="11">
<text text-anchor="middle" x="459.73" y="-263.9" font-family="Helvetica,sans-Serif" font-size="10.00">11</text>
</a>
</g>
</g>
<!-- dir_6873a2afc4715a8a8ff813bcf2ca82fa&#45;&gt;dir_2dfbec2966693e15f04cad1350ff3fc9 -->
<g id="edge2" class="edge">
<title>dir_6873a2afc4715a8a8ff813bcf2ca82fa&#45;&gt;dir_2dfbec2966693e15f04cad1350ff3fc9</title>
<path fill="none" stroke="black" d="M353.46,-396.1C347.76,-404.47 339.93,-414.69 332.21,-423.92"/>
<polygon fill="black" stroke="black" points="329.38,-421.84 325.51,-431.7 334.69,-426.4 329.38,-421.84"/>
<g id="a_edge2&#45;headlabel"><a xlink:href="dir_000500_000026.xhtml" target="_top" xlink:title="13">
<text text-anchor="middle" x="329.58" y="-414.76" font-family="Helvetica,sans-Serif" font-size="10.00">13</text>
</a>
</g>
</g>
<!-- dir_6873a2afc4715a8a8ff813bcf2ca82fa&#45;&gt;dir_09aab6a206c9d3717fe22866ebbc9576 -->
<g id="edge6" class="edge">
<title>dir_6873a2afc4715a8a8ff813bcf2ca82fa&#45;&gt;dir_09aab6a206c9d3717fe22866ebbc9576</title>
<path fill="none" stroke="black" d="M347.4,-359.7C340.88,-351.39 332.93,-341.28 325.75,-332.14"/>
<polygon fill="black" stroke="black" points="328.37,-329.81 319.44,-324.1 322.87,-334.13 328.37,-329.81"/>
<g id="a_edge6&#45;headlabel"><a xlink:href="dir_000500_000502.xhtml" target="_top" xlink:title="2">
<text text-anchor="middle" x="332.82" y="-328.38" font-family="Helvetica,sans-Serif" font-size="10.00">2</text>
</a>
</g>
</g>
<!-- dir_cf895c1ed808af158264b2f3d8d7f8f0 -->
<g id="node6" class="node">
<title>dir_cf895c1ed808af158264b2f3d8d7f8f0</title>
<g id="a_node6"><a xlink:href="dir_cf895c1ed808af158264b2f3d8d7f8f0.xhtml" target="_top" xlink:title="gpu">
<polygon fill="white" stroke="red" points="635,-396 581,-396 581,-360 635,-360 635,-396"/>
<text text-anchor="middle" x="608" y="-375.5" font-family="Helvetica,sans-Serif" font-size="10.00">gpu</text>
</a>
</g>
</g>
<!-- dir_6873a2afc4715a8a8ff813bcf2ca82fa&#45;&gt;dir_cf895c1ed808af158264b2f3d8d7f8f0 -->
<g id="edge1" class="edge">
<title>dir_6873a2afc4715a8a8ff813bcf2ca82fa&#45;&gt;dir_cf895c1ed808af158264b2f3d8d7f8f0</title>
<path fill="none" stroke="black" d="M392.84,-378C452.03,-378 511.22,-378 570.41,-378"/>
<polygon fill="black" stroke="black" points="570.68,-381.5 580.68,-378 570.68,-374.5 570.68,-381.5"/>
<g id="a_edge1&#45;headlabel"><a xlink:href="dir_000500_000004.xhtml" target="_top" xlink:title="2">
<text text-anchor="middle" x="567.09" y="-381.84" font-family="Helvetica,sans-Serif" font-size="10.00">2</text>
</a>
</g>
</g>
<!-- dir_6873a2afc4715a8a8ff813bcf2ca82fa&#45;&gt;dir_8824b015e2d84b32c32abeb682f6ceb8 -->
<g id="edge3" class="edge">
<title>dir_6873a2afc4715a8a8ff813bcf2ca82fa&#45;&gt;dir_8824b015e2d84b32c32abeb682f6ceb8</title>
<path fill="none" stroke="black" d="M329.46,-365.91C299.99,-355.44 254.83,-339.14 216,-324 214.61,-323.46 213.19,-322.9 211.77,-322.33"/>
<polygon fill="black" stroke="black" points="212.86,-319 202.28,-318.5 210.24,-325.49 212.86,-319"/>
<g id="a_edge3&#45;headlabel"><a xlink:href="dir_000500_000035.xhtml" target="_top" xlink:title="2">
<text text-anchor="middle" x="217.26" y="-315.22" font-family="Helvetica,sans-Serif" font-size="10.00">2</text>
</a>
</g>
</g>
<!-- dir_6873a2afc4715a8a8ff813bcf2ca82fa&#45;&gt;dir_214608ef36d61442cb2b0c1c4e9a7def -->
<g id="edge4" class="edge">
<title>dir_6873a2afc4715a8a8ff813bcf2ca82fa&#45;&gt;dir_214608ef36d61442cb2b0c1c4e9a7def</title>
<path fill="none" stroke="black" d="M329.5,-371.46C303.2,-364.99 267.32,-351.46 250,-324 209.13,-259.19 239.9,-163.36 258.92,-117.43"/>
<polygon fill="black" stroke="black" points="262.17,-118.73 262.88,-108.16 255.73,-115.98 262.17,-118.73"/>
<g id="a_edge4&#45;headlabel"><a xlink:href="dir_000500_000000.xhtml" target="_top" xlink:title="37">
<text text-anchor="middle" x="263.37" y="-120.65" font-family="Helvetica,sans-Serif" font-size="10.00">37</text>
</a>
</g>
</g>
<!-- dir_6873a2afc4715a8a8ff813bcf2ca82fa&#45;&gt;dir_aebb8dcc11953d78e620bbef0b9e2183 -->
<g id="edge5" class="edge">
<title>dir_6873a2afc4715a8a8ff813bcf2ca82fa&#45;&gt;dir_aebb8dcc11953d78e620bbef0b9e2183</title>
<path fill="none" stroke="black" d="M372.58,-359.87C389.3,-335.14 420.33,-289.24 439.75,-260.51"/>
<polygon fill="black" stroke="black" points="442.68,-262.43 445.38,-252.19 436.88,-258.51 442.68,-262.43"/>
<g id="a_edge5&#45;headlabel"><a xlink:href="dir_000500_000020.xhtml" target="_top" xlink:title="12">
<text text-anchor="middle" x="443.02" y="-264.5" font-family="Helvetica,sans-Serif" font-size="10.00">12</text>
</a>
</g>
</g>
<!-- dir_bf9f26469d00835ba20ff8d80ee5a804 -->
<g id="node10" class="node">
<title>dir_bf9f26469d00835ba20ff8d80ee5a804</title>
<g id="a_node10"><a xlink:href="dir_bf9f26469d00835ba20ff8d80ee5a804.xhtml" target="_top" xlink:title="runtime">
<polygon fill="white" stroke="red" points="635.5,-324 580.5,-324 580.5,-288 635.5,-288 635.5,-324"/>
<text text-anchor="middle" x="608" y="-303.5" font-family="Helvetica,sans-Serif" font-size="10.00">runtime</text>
</a>
</g>
</g>
<!-- dir_6873a2afc4715a8a8ff813bcf2ca82fa&#45;&gt;dir_bf9f26469d00835ba20ff8d80ee5a804 -->
<g id="edge7" class="edge">
<title>dir_6873a2afc4715a8a8ff813bcf2ca82fa&#45;&gt;dir_bf9f26469d00835ba20ff8d80ee5a804</title>
<path fill="none" stroke="black" d="M392.53,-368.06C438.07,-355.16 522.07,-331.35 570.65,-317.59"/>
<polygon fill="black" stroke="black" points="571.78,-320.9 580.45,-314.81 569.88,-314.17 571.78,-320.9"/>
<g id="a_edge7&#45;headlabel"><a xlink:href="dir_000500_000036.xhtml" target="_top" xlink:title="4">
<text text-anchor="middle" x="569.1" y="-322.11" font-family="Helvetica,sans-Serif" font-size="10.00">4</text>
</a>
</g>
</g>
<!-- dir_6873a2afc4715a8a8ff813bcf2ca82fa&#45;&gt;dir_fdedb0aba14d44ce9d99bc100e026e6a -->
<g id="edge8" class="edge">
<title>dir_6873a2afc4715a8a8ff813bcf2ca82fa&#45;&gt;dir_fdedb0aba14d44ce9d99bc100e026e6a</title>
<path fill="none" stroke="black" d="M362.88,-359.53C367.26,-327.07 381.02,-257.01 421,-216 440.56,-195.93 469.24,-182.51 492.55,-174.19"/>
<polygon fill="black" stroke="black" points="493.82,-177.46 502.17,-170.94 491.57,-170.83 493.82,-177.46"/>
<g id="a_edge8&#45;headlabel"><a xlink:href="dir_000500_000019.xhtml" target="_top" xlink:title="12">
<text text-anchor="middle" x="491.32" y="-178.8" font-family="Helvetica,sans-Serif" font-size="10.00">12</text>
</a>
</g>
</g>
<!-- dir_09aab6a206c9d3717fe22866ebbc9576&#45;&gt;dir_2dfbec2966693e15f04cad1350ff3fc9 -->
<g id="edge26" class="edge">
<title>dir_09aab6a206c9d3717fe22866ebbc9576&#45;&gt;dir_2dfbec2966693e15f04cad1350ff3fc9</title>
<path fill="none" stroke="black" d="M310.59,-324.19C313.15,-348.42 313.43,-392.89 311.45,-421.68"/>
<polygon fill="black" stroke="black" points="307.95,-421.61 310.58,-431.87 314.92,-422.21 307.95,-421.61"/>
<g id="a_edge26&#45;headlabel"><a xlink:href="dir_000502_000026.xhtml" target="_top" xlink:title="15">
<text text-anchor="middle" x="305.42" y="-415.29" font-family="Helvetica,sans-Serif" font-size="10.00">15</text>
</a>
</g>
</g>
<!-- dir_09aab6a206c9d3717fe22866ebbc9576&#45;&gt;dir_214608ef36d61442cb2b0c1c4e9a7def -->
<g id="edge27" class="edge">
<title>dir_09aab6a206c9d3717fe22866ebbc9576&#45;&gt;dir_214608ef36d61442cb2b0c1c4e9a7def</title>
<path fill="none" stroke="black" d="M303.19,-287.85C297.13,-250.75 282.74,-162.81 275.43,-118.1"/>
<polygon fill="black" stroke="black" points="278.89,-117.54 273.82,-108.23 271.98,-118.67 278.89,-117.54"/>
<g id="a_edge27&#45;headlabel"><a xlink:href="dir_000502_000000.xhtml" target="_top" xlink:title="40">
<text text-anchor="middle" x="282.27" y="-118.13" font-family="Helvetica,sans-Serif" font-size="10.00">40</text>
</a>
</g>
</g>
<!-- dir_09aab6a206c9d3717fe22866ebbc9576&#45;&gt;dir_aebb8dcc11953d78e620bbef0b9e2183 -->
<g id="edge28" class="edge">
<title>dir_09aab6a206c9d3717fe22866ebbc9576&#45;&gt;dir_aebb8dcc11953d78e620bbef0b9e2183</title>
<path fill="none" stroke="black" d="M342.94,-287.88C366.57,-276.92 397.1,-262.77 420.63,-251.86"/>
<polygon fill="black" stroke="black" points="422.31,-254.94 429.91,-247.56 419.37,-248.59 422.31,-254.94"/>
<g id="a_edge28&#45;headlabel"><a xlink:href="dir_000502_000020.xhtml" target="_top" xlink:title="11">
<text text-anchor="middle" x="420.25" y="-256.53" font-family="Helvetica,sans-Serif" font-size="10.00">11</text>
</a>
</g>
</g>
<!-- dir_09aab6a206c9d3717fe22866ebbc9576&#45;&gt;dir_5815af820a9cc9481f1d0990a0d60286 -->
<g id="edge29" class="edge">
<title>dir_09aab6a206c9d3717fe22866ebbc9576&#45;&gt;dir_5815af820a9cc9481f1d0990a0d60286</title>
<path fill="none" stroke="black" d="M317.73,-287.97C350.91,-239.8 445.58,-102.37 485.21,-44.83"/>
<polygon fill="black" stroke="black" points="488.29,-46.53 491.08,-36.31 482.52,-42.56 488.29,-46.53"/>
<g id="a_edge29&#45;headlabel"><a xlink:href="dir_000502_000032.xhtml" target="_top" xlink:title="8">
<text text-anchor="middle" x="488.59" y="-48.6" font-family="Helvetica,sans-Serif" font-size="10.00">8</text>
</a>
</g>
</g>
<!-- dir_cf895c1ed808af158264b2f3d8d7f8f0&#45;&gt;dir_214608ef36d61442cb2b0c1c4e9a7def -->
<g id="edge9" class="edge">
<title>dir_cf895c1ed808af158264b2f3d8d7f8f0&#45;&gt;dir_214608ef36d61442cb2b0c1c4e9a7def</title>
<path fill="none" stroke="black" d="M632.93,-359.86C644.06,-350.67 656,-338.29 662,-324 670.94,-302.69 667.31,-294.49 662,-272 645.96,-204.07 631.8,-178.28 571,-144 529.47,-120.59 397.67,-103.87 323.32,-96.02"/>
<polygon fill="black" stroke="black" points="323.54,-92.53 313.23,-94.98 322.81,-99.49 323.54,-92.53"/>
<g id="a_edge9&#45;headlabel"><a xlink:href="dir_000004_000000.xhtml" target="_top" xlink:title="598">
<text text-anchor="middle" x="327.41" y="-87.57" font-family="Helvetica,sans-Serif" font-size="10.00">598</text>
</a>
</g>
</g>
<!-- dir_cf895c1ed808af158264b2f3d8d7f8f0&#45;&gt;dir_aebb8dcc11953d78e620bbef0b9e2183 -->
<g id="edge10" class="edge">
<title>dir_cf895c1ed808af158264b2f3d8d7f8f0&#45;&gt;dir_aebb8dcc11953d78e620bbef0b9e2183</title>
<path fill="none" stroke="black" d="M587.83,-359.96C566.88,-338.28 533.58,-300.27 501,-272 495.53,-267.26 489.46,-262.55 483.57,-258.17"/>
<polygon fill="black" stroke="black" points="485.3,-255.11 475.17,-252.02 481.17,-260.75 485.3,-255.11"/>
<g id="a_edge10&#45;headlabel"><a xlink:href="dir_000004_000020.xhtml" target="_top" xlink:title="239">
<text text-anchor="middle" x="489.88" y="-252.44" font-family="Helvetica,sans-Serif" font-size="10.00">239</text>
</a>
</g>
</g>
<!-- dir_cf895c1ed808af158264b2f3d8d7f8f0&#45;&gt;dir_bf9f26469d00835ba20ff8d80ee5a804 -->
<g id="edge11" class="edge">
<title>dir_cf895c1ed808af158264b2f3d8d7f8f0&#45;&gt;dir_bf9f26469d00835ba20ff8d80ee5a804</title>
<path fill="none" stroke="black" d="M602.08,-359.7C601.29,-351.98 601.06,-342.71 601.4,-334.11"/>
<polygon fill="black" stroke="black" points="604.9,-334.32 602.1,-324.1 597.92,-333.84 604.9,-334.32"/>
<g id="a_edge11&#45;headlabel"><a xlink:href="dir_000004_000036.xhtml" target="_top" xlink:title="16">
<text text-anchor="middle" x="607.48" y="-335.61" font-family="Helvetica,sans-Serif" font-size="10.00">16</text>
</a>
</g>
</g>
<!-- dir_cf895c1ed808af158264b2f3d8d7f8f0&#45;&gt;dir_5815af820a9cc9481f1d0990a0d60286 -->
<g id="edge12" class="edge">
<title>dir_cf895c1ed808af158264b2f3d8d7f8f0&#45;&gt;dir_5815af820a9cc9481f1d0990a0d60286</title>
<path fill="none" stroke="black" d="M635.03,-363.44C673.65,-341.93 740,-296.09 740,-235 740,-235 740,-235 740,-161 740,-69.03 607.05,-35.17 540.3,-23.96"/>
<polygon fill="black" stroke="black" points="540.61,-20.47 530.19,-22.36 539.51,-27.38 540.61,-20.47"/>
<g id="a_edge12&#45;headlabel"><a xlink:href="dir_000004_000032.xhtml" target="_top" xlink:title="109">
<text text-anchor="middle" x="544.61" y="-15.73" font-family="Helvetica,sans-Serif" font-size="10.00">109</text>
</a>
</g>
</g>
<!-- dir_cf895c1ed808af158264b2f3d8d7f8f0&#45;&gt;dir_fdedb0aba14d44ce9d99bc100e026e6a -->
<g id="edge13" class="edge">
<title>dir_cf895c1ed808af158264b2f3d8d7f8f0&#45;&gt;dir_fdedb0aba14d44ce9d99bc100e026e6a</title>
<path fill="none" stroke="black" d="M624.04,-359.85C632.01,-350.12 640.83,-337.27 645,-324 651.93,-301.95 654.04,-293.27 645,-272 629.47,-235.44 595,-205.18 568.19,-185.9"/>
<polygon fill="black" stroke="black" points="569.99,-182.89 559.79,-180.03 565.98,-188.63 569.99,-182.89"/>
<g id="a_edge13&#45;headlabel"><a xlink:href="dir_000004_000019.xhtml" target="_top" xlink:title="46">
<text text-anchor="middle" x="574.56" y="-180.12" font-family="Helvetica,sans-Serif" font-size="10.00">46</text>
</a>
</g>
</g>
<!-- dir_8824b015e2d84b32c32abeb682f6ceb8&#45;&gt;dir_214608ef36d61442cb2b0c1c4e9a7def -->
<g id="edge19" class="edge">
<title>dir_8824b015e2d84b32c32abeb682f6ceb8&#45;&gt;dir_214608ef36d61442cb2b0c1c4e9a7def</title>
<path fill="none" stroke="black" d="M176.28,-287.86C179.21,-257.11 188.45,-191.38 216,-144 222.3,-133.16 231.45,-123.1 240.48,-114.72"/>
<polygon fill="black" stroke="black" points="242.8,-117.34 247.97,-108.1 238.16,-112.1 242.8,-117.34"/>
<g id="a_edge19&#45;headlabel"><a xlink:href="dir_000035_000000.xhtml" target="_top" xlink:title="2">
<text text-anchor="middle" x="241.99" y="-119.35" font-family="Helvetica,sans-Serif" font-size="10.00">2</text>
</a>
</g>
</g>
<!-- dir_214608ef36d61442cb2b0c1c4e9a7def&#45;&gt;dir_5815af820a9cc9481f1d0990a0d60286 -->
<g id="edge21" class="edge">
<title>dir_214608ef36d61442cb2b0c1c4e9a7def&#45;&gt;dir_5815af820a9cc9481f1d0990a0d60286</title>
<path fill="none" stroke="black" d="M313.21,-74.58C356.9,-60.86 424.29,-40.6 465.98,-28.71"/>
<polygon fill="black" stroke="black" points="467.07,-32.04 475.74,-25.95 465.17,-25.3 467.07,-32.04"/>
<g id="a_edge21&#45;headlabel"><a xlink:href="dir_000000_000032.xhtml" target="_top" xlink:title="16">
<text text-anchor="middle" x="464.39" y="-33.25" font-family="Helvetica,sans-Serif" font-size="10.00">16</text>
</a>
</g>
</g>
<!-- dir_aebb8dcc11953d78e620bbef0b9e2183&#45;&gt;dir_cf895c1ed808af158264b2f3d8d7f8f0 -->
<g id="edge22" class="edge">
<title>dir_aebb8dcc11953d78e620bbef0b9e2183&#45;&gt;dir_cf895c1ed808af158264b2f3d8d7f8f0</title>
<path fill="none" stroke="black" d="M484.06,-246.93C495.52,-253.77 508.41,-262.81 519,-272 547.76,-296.96 577.09,-329.51 594.15,-351.71"/>
<polygon fill="black" stroke="black" points="591.51,-354.01 600.27,-359.96 597.13,-349.84 591.51,-354.01"/>
<g id="a_edge22&#45;headlabel"><a xlink:href="dir_000020_000004.xhtml" target="_top" xlink:title="4">
<text text-anchor="middle" x="587.08" y="-350.32" font-family="Helvetica,sans-Serif" font-size="10.00">4</text>
</a>
</g>
</g>
<!-- dir_aebb8dcc11953d78e620bbef0b9e2183&#45;&gt;dir_214608ef36d61442cb2b0c1c4e9a7def -->
<g id="edge23" class="edge">
<title>dir_aebb8dcc11953d78e620bbef0b9e2183&#45;&gt;dir_214608ef36d61442cb2b0c1c4e9a7def</title>
<path fill="none" stroke="black" d="M434.56,-215.87C401.33,-190.5 338.92,-142.85 301.54,-114.32"/>
<polygon fill="black" stroke="black" points="303.59,-111.48 293.52,-108.19 299.34,-117.04 303.59,-111.48"/>
<g id="a_edge23&#45;headlabel"><a xlink:href="dir_000020_000000.xhtml" target="_top" xlink:title="678">
<text text-anchor="middle" x="308.17" y="-108.9" font-family="Helvetica,sans-Serif" font-size="10.00">678</text>
</a>
</g>
</g>
<!-- dir_aebb8dcc11953d78e620bbef0b9e2183&#45;&gt;dir_5815af820a9cc9481f1d0990a0d60286 -->
<g id="edge24" class="edge">
<title>dir_aebb8dcc11953d78e620bbef0b9e2183&#45;&gt;dir_5815af820a9cc9481f1d0990a0d60286</title>
<path fill="none" stroke="black" d="M460.69,-215.85C468.66,-178.75 487.56,-90.81 497.17,-46.1"/>
<polygon fill="black" stroke="black" points="500.62,-46.74 499.3,-36.23 493.77,-45.27 500.62,-46.74"/>
<g id="a_edge24&#45;headlabel"><a xlink:href="dir_000020_000032.xhtml" target="_top" xlink:title="56">
<text text-anchor="middle" x="502.64" y="-48.36" font-family="Helvetica,sans-Serif" font-size="10.00">56</text>
</a>
</g>
</g>
<!-- dir_aebb8dcc11953d78e620bbef0b9e2183&#45;&gt;dir_fdedb0aba14d44ce9d99bc100e026e6a -->
<g id="edge25" class="edge">
<title>dir_aebb8dcc11953d78e620bbef0b9e2183&#45;&gt;dir_fdedb0aba14d44ce9d99bc100e026e6a</title>
<path fill="none" stroke="black" d="M475.54,-215.7C484.8,-207.05 496.16,-196.45 506.26,-187.03"/>
<polygon fill="black" stroke="black" points="508.75,-189.49 513.67,-180.1 503.98,-184.37 508.75,-189.49"/>
<g id="a_edge25&#45;headlabel"><a xlink:href="dir_000020_000019.xhtml" target="_top" xlink:title="5">
<text text-anchor="middle" x="508.06" y="-191.51" font-family="Helvetica,sans-Serif" font-size="10.00">5</text>
</a>
</g>
</g>
<!-- dir_bf9f26469d00835ba20ff8d80ee5a804&#45;&gt;dir_cf895c1ed808af158264b2f3d8d7f8f0 -->
<g id="edge30" class="edge">
<title>dir_bf9f26469d00835ba20ff8d80ee5a804&#45;&gt;dir_cf895c1ed808af158264b2f3d8d7f8f0</title>
<path fill="none" stroke="black" d="M613.9,-324.1C614.7,-331.79 614.94,-341.05 614.6,-349.67"/>
<polygon fill="black" stroke="black" points="611.11,-349.48 613.92,-359.7 618.09,-349.96 611.11,-349.48"/>
<g id="a_edge30&#45;headlabel"><a xlink:href="dir_000036_000004.xhtml" target="_top" xlink:title="57">
<text text-anchor="middle" x="608.52" y="-343.2" font-family="Helvetica,sans-Serif" font-size="10.00">57</text>
</a>
</g>
</g>
<!-- dir_bf9f26469d00835ba20ff8d80ee5a804&#45;&gt;dir_214608ef36d61442cb2b0c1c4e9a7def -->
<g id="edge31" class="edge">
<title>dir_bf9f26469d00835ba20ff8d80ee5a804&#45;&gt;dir_214608ef36d61442cb2b0c1c4e9a7def</title>
<path fill="none" stroke="black" d="M587.28,-287.96C564.6,-269.55 526.96,-239.68 493,-216 443.54,-181.5 430.64,-173.42 378,-144 358.25,-132.96 335.89,-121.7 316.74,-112.42"/>
<polygon fill="black" stroke="black" points="318.15,-109.21 307.62,-108.03 315.11,-115.52 318.15,-109.21"/>
<g id="a_edge31&#45;headlabel"><a xlink:href="dir_000036_000000.xhtml" target="_top" xlink:title="953">
<text text-anchor="middle" x="322.62" y="-105.71" font-family="Helvetica,sans-Serif" font-size="10.00">953</text>
</a>
</g>
</g>
<!-- dir_bf9f26469d00835ba20ff8d80ee5a804&#45;&gt;dir_aebb8dcc11953d78e620bbef0b9e2183 -->
<g id="edge32" class="edge">
<title>dir_bf9f26469d00835ba20ff8d80ee5a804&#45;&gt;dir_aebb8dcc11953d78e620bbef0b9e2183</title>
<path fill="none" stroke="black" d="M589.4,-287.91C582.45,-282.21 574.24,-276.25 566,-272 538,-257.56 527.7,-262.49 498,-252 496.59,-251.5 495.16,-250.98 493.72,-250.45"/>
<polygon fill="black" stroke="black" points="494.78,-247.1 484.19,-246.75 492.25,-253.63 494.78,-247.1"/>
<g id="a_edge32&#45;headlabel"><a xlink:href="dir_000036_000020.xhtml" target="_top" xlink:title="214">
<text text-anchor="middle" x="499.16" y="-243.26" font-family="Helvetica,sans-Serif" font-size="10.00">214</text>
</a>
</g>
</g>
<!-- dir_bf9f26469d00835ba20ff8d80ee5a804&#45;&gt;dir_5815af820a9cc9481f1d0990a0d60286 -->
<g id="edge33" class="edge">
<title>dir_bf9f26469d00835ba20ff8d80ee5a804&#45;&gt;dir_5815af820a9cc9481f1d0990a0d60286</title>
<path fill="none" stroke="black" d="M605.6,-287.63C601.1,-257.62 590.1,-194.42 571,-144 557.34,-107.94 535.07,-69.4 519.75,-44.79"/>
<polygon fill="black" stroke="black" points="522.55,-42.67 514.26,-36.08 516.63,-46.4 522.55,-42.67"/>
<g id="a_edge33&#45;headlabel"><a xlink:href="dir_000036_000032.xhtml" target="_top" xlink:title="8">
<text text-anchor="middle" x="526.87" y="-41.7" font-family="Helvetica,sans-Serif" font-size="10.00">8</text>
</a>
</g>
</g>
<!-- dir_bf9f26469d00835ba20ff8d80ee5a804&#45;&gt;dir_fdedb0aba14d44ce9d99bc100e026e6a -->
<g id="edge34" class="edge">
<title>dir_bf9f26469d00835ba20ff8d80ee5a804&#45;&gt;dir_fdedb0aba14d44ce9d99bc100e026e6a</title>
<path fill="none" stroke="black" d="M596.08,-287.68C589.28,-277.49 580.78,-264.24 574,-252 562.62,-231.44 551.34,-207.29 543.35,-189.33"/>
<polygon fill="black" stroke="black" points="546.49,-187.8 539.26,-180.06 540.09,-190.62 546.49,-187.8"/>
<g id="a_edge34&#45;headlabel"><a xlink:href="dir_000036_000019.xhtml" target="_top" xlink:title="127">
<text text-anchor="middle" x="550.54" y="-187.44" font-family="Helvetica,sans-Serif" font-size="10.00">127</text>
</a>
</g>
</g>
<!-- dir_5815af820a9cc9481f1d0990a0d60286&#45;&gt;dir_214608ef36d61442cb2b0c1c4e9a7def -->
<g id="edge41" class="edge">
<title>dir_5815af820a9cc9481f1d0990a0d60286&#45;&gt;dir_214608ef36d61442cb2b0c1c4e9a7def</title>
<path fill="none" stroke="black" d="M475.8,-28.66C438.29,-40.68 370.27,-61.27 322.9,-75.01"/>
<polygon fill="black" stroke="black" points="321.76,-71.69 313.12,-77.83 323.7,-78.42 321.76,-71.69"/>
<g id="a_edge41&#45;headlabel"><a xlink:href="dir_000032_000000.xhtml" target="_top" xlink:title="6">
<text text-anchor="middle" x="324.42" y="-65.47" font-family="Helvetica,sans-Serif" font-size="10.00">6</text>
</a>
</g>
</g>
<!-- dir_fdedb0aba14d44ce9d99bc100e026e6a&#45;&gt;dir_214608ef36d61442cb2b0c1c4e9a7def -->
<g id="edge42" class="edge">
<title>dir_fdedb0aba14d44ce9d99bc100e026e6a&#45;&gt;dir_214608ef36d61442cb2b0c1c4e9a7def</title>
<path fill="none" stroke="black" d="M502.31,-153.04C458.67,-141.33 376.55,-119.31 322.83,-104.9"/>
<polygon fill="black" stroke="black" points="323.71,-101.51 313.14,-102.3 321.89,-108.27 323.71,-101.51"/>
<g id="a_edge42&#45;headlabel"><a xlink:href="dir_000019_000000.xhtml" target="_top" xlink:title="17">
<text text-anchor="middle" x="327.91" y="-97.2" font-family="Helvetica,sans-Serif" font-size="10.00">17</text>
</a>
</g>
</g>
<!-- dir_fdedb0aba14d44ce9d99bc100e026e6a&#45;&gt;dir_5815af820a9cc9481f1d0990a0d60286 -->
<g id="edge43" class="edge">
<title>dir_fdedb0aba14d44ce9d99bc100e026e6a&#45;&gt;dir_5815af820a9cc9481f1d0990a0d60286</title>
<path fill="none" stroke="black" d="M528.5,-143.87C523.54,-119.56 514.4,-74.82 508.52,-46.01"/>
<polygon fill="black" stroke="black" points="511.94,-45.29 506.51,-36.19 505.08,-46.69 511.94,-45.29"/>
<g id="a_edge43&#45;headlabel"><a xlink:href="dir_000019_000032.xhtml" target="_top" xlink:title="2">
<text text-anchor="middle" x="515.44" y="-45.74" font-family="Helvetica,sans-Serif" font-size="10.00">2</text>
</a>
</g>
</g>
<!-- dir_bdd04b65c107278b5119b030d13de22c&#45;&gt;dir_214608ef36d61442cb2b0c1c4e9a7def -->
<g id="edge44" class="edge">
<title>dir_bdd04b65c107278b5119b030d13de22c&#45;&gt;dir_214608ef36d61442cb2b0c1c4e9a7def</title>
<path fill="none" stroke="black" d="M28.78,-431.97C31.4,-405.34 36,-352.21 36,-307 36,-307 36,-307 36,-233 36,-190.97 36.97,-172.36 68,-144 109.03,-106.5 173.28,-94.87 218.49,-91.6"/>
<polygon fill="black" stroke="black" points="218.92,-95.08 228.69,-90.98 218.49,-88.09 218.92,-95.08"/>
<g id="a_edge44&#45;headlabel"><a xlink:href="dir_000504_000000.xhtml" target="_top" xlink:title="1">
<text text-anchor="middle" x="215.5" y="-95.63" font-family="Helvetica,sans-Serif" font-size="10.00">1</text>
</a>
</g>
</g>
</g>
</svg>
