<?xml version="1.0" encoding="UTF-8" standalone="no"?>
<!DOCTYPE svg PUBLIC "-//W3C//DTD SVG 1.1//EN"
 "http://www.w3.org/Graphics/SVG/1.1/DTD/svg11.dtd">
<!-- Generated by graphviz version 2.43.0 (0)
 -->
<!-- Title: tests/validation/NEON Pages: 1 -->
<svg width="424pt" height="447pt"
 viewBox="0.00 0.00 424.20 447.00" xmlns="http://www.w3.org/2000/svg" xmlns:xlink="http://www.w3.org/1999/xlink">
<g id="graph0" class="graph" transform="scale(1 1) rotate(0) translate(4 443)">
<title>tests/validation/NEON</title>
<polygon fill="white" stroke="transparent" points="-4,4 -4,-443 420.2,-443 420.2,4 -4,4"/>
<g id="clust1" class="cluster">
<title>clusterdir_e7c7b16542faa38cb4655ff1750d3604</title>
<g id="a_clust1"><a xlink:href="dir_e7c7b16542faa38cb4655ff1750d3604.xhtml" target="_top" xlink:title="validation">
<polygon fill="#ddddee" stroke="black" points="155.2,-344 155.2,-431 313.2,-431 313.2,-344 155.2,-344"/>
<text text-anchor="middle" x="234.2" y="-419" font-family="Helvetica,sans-Serif" font-size="10.00">validation</text>
</a>
</g>
</g>
<g id="clust2" class="cluster">
<title>clusterdir_0538a82dae0483a21d0f1e9d7e0a45c6</title>
<g id="a_clust2"><a xlink:href="dir_0538a82dae0483a21d0f1e9d7e0a45c6.xhtml" target="_top">
<polygon fill="#eeeeff" stroke="black" points="163.2,-352 163.2,-404 305.2,-404 305.2,-352 163.2,-352"/>
</a>
</g>
</g>
<!-- dir_0538a82dae0483a21d0f1e9d7e0a45c6 -->
<g id="node1" class="node">
<title>dir_0538a82dae0483a21d0f1e9d7e0a45c6</title>
<text text-anchor="middle" x="270.2" y="-375.5" font-family="Helvetica,sans-Serif" font-size="10.00">NEON</text>
</g>
<!-- dir_68267d1309a1af8e8297ef4c3efbcdba -->
<g id="node4" class="node">
<title>dir_68267d1309a1af8e8297ef4c3efbcdba</title>
<g id="a_node4"><a xlink:href="dir_68267d1309a1af8e8297ef4c3efbcdba.xhtml" target="_top" xlink:title="src">
<polygon fill="white" stroke="red" points="346.2,-252 292.2,-252 292.2,-216 346.2,-216 346.2,-252"/>
<text text-anchor="middle" x="319.2" y="-231.5" font-family="Helvetica,sans-Serif" font-size="10.00">src</text>
</a>
</g>
</g>
<!-- dir_0538a82dae0483a21d0f1e9d7e0a45c6&#45;&gt;dir_68267d1309a1af8e8297ef4c3efbcdba -->
<g id="edge22" class="edge">
<title>dir_0538a82dae0483a21d0f1e9d7e0a45c6&#45;&gt;dir_68267d1309a1af8e8297ef4c3efbcdba</title>
<path fill="none" stroke="black" d="M291.34,-359.65C301.15,-350.24 311.81,-337.74 317.2,-324 324.91,-304.37 324.97,-280.38 323.34,-262.26"/>
<polygon fill="black" stroke="black" points="326.79,-261.63 322.2,-252.08 319.84,-262.41 326.79,-261.63"/>
<g id="a_edge22&#45;headlabel"><a xlink:href="dir_000469_000003.xhtml" target="_top" xlink:title="36">
<text text-anchor="middle" x="330.01" y="-262.38" font-family="Helvetica,sans-Serif" font-size="10.00">36</text>
</a>
</g>
</g>
<!-- dir_cbdb8362360e11eafe2fa3bc74cf0ffd -->
<g id="node5" class="node">
<title>dir_cbdb8362360e11eafe2fa3bc74cf0ffd</title>
<g id="a_node5"><a xlink:href="dir_cbdb8362360e11eafe2fa3bc74cf0ffd.xhtml" target="_top" xlink:title="utils">
<polygon fill="white" stroke="red" points="194.2,-180 140.2,-180 140.2,-144 194.2,-144 194.2,-180"/>
<text text-anchor="middle" x="167.2" y="-159.5" font-family="Helvetica,sans-Serif" font-size="10.00">utils</text>
</a>
</g>
</g>
<!-- dir_0538a82dae0483a21d0f1e9d7e0a45c6&#45;&gt;dir_cbdb8362360e11eafe2fa3bc74cf0ffd -->
<g id="edge23" class="edge">
<title>dir_0538a82dae0483a21d0f1e9d7e0a45c6&#45;&gt;dir_cbdb8362360e11eafe2fa3bc74cf0ffd</title>
<path fill="none" stroke="black" d="M261.95,-359.85C243.98,-322.52 201.23,-233.69 179.84,-189.26"/>
<polygon fill="black" stroke="black" points="182.99,-187.73 175.5,-180.23 176.68,-190.76 182.99,-187.73"/>
<g id="a_edge23&#45;headlabel"><a xlink:href="dir_000469_000041.xhtml" target="_top" xlink:title="3">
<text text-anchor="middle" x="187.1" y="-187.23" font-family="Helvetica,sans-Serif" font-size="10.00">3</text>
</a>
</g>
</g>
<!-- dir_445738e6fed662d0b65e690e3f1e1de0 -->
<g id="node6" class="node">
<title>dir_445738e6fed662d0b65e690e3f1e1de0</title>
<g id="a_node6"><a xlink:href="dir_445738e6fed662d0b65e690e3f1e1de0.xhtml" target="_top" xlink:title="NEON">
<polygon fill="none" stroke="black" points="308.2,-324 254.2,-324 254.2,-288 308.2,-288 308.2,-324"/>
<text text-anchor="middle" x="281.2" y="-303.5" font-family="Helvetica,sans-Serif" font-size="10.00">NEON</text>
</a>
</g>
</g>
<!-- dir_0538a82dae0483a21d0f1e9d7e0a45c6&#45;&gt;dir_445738e6fed662d0b65e690e3f1e1de0 -->
<g id="edge24" class="edge">
<title>dir_0538a82dae0483a21d0f1e9d7e0a45c6&#45;&gt;dir_445738e6fed662d0b65e690e3f1e1de0</title>
<path fill="none" stroke="black" d="M272.92,-359.7C274.13,-351.98 275.59,-342.71 276.94,-334.11"/>
<polygon fill="black" stroke="black" points="280.42,-334.53 278.51,-324.1 273.5,-333.44 280.42,-334.53"/>
<g id="a_edge24&#45;headlabel"><a xlink:href="dir_000469_000542.xhtml" target="_top" xlink:title="108">
<text text-anchor="middle" x="282.67" y="-336.02" font-family="Helvetica,sans-Serif" font-size="10.00">108</text>
</a>
</g>
</g>
<!-- dir_9e71e2da941d3cafc4d98a9f6ae3de4f -->
<g id="node7" class="node">
<title>dir_9e71e2da941d3cafc4d98a9f6ae3de4f</title>
<g id="a_node7"><a xlink:href="dir_9e71e2da941d3cafc4d98a9f6ae3de4f.xhtml" target="_top" xlink:title="framework">
<polygon fill="white" stroke="red" points="84.2,-252 14.2,-252 14.2,-216 84.2,-216 84.2,-252"/>
<text text-anchor="middle" x="49.2" y="-231.5" font-family="Helvetica,sans-Serif" font-size="10.00">framework</text>
</a>
</g>
</g>
<!-- dir_0538a82dae0483a21d0f1e9d7e0a45c6&#45;&gt;dir_9e71e2da941d3cafc4d98a9f6ae3de4f -->
<g id="edge25" class="edge">
<title>dir_0538a82dae0483a21d0f1e9d7e0a45c6&#45;&gt;dir_9e71e2da941d3cafc4d98a9f6ae3de4f</title>
<path fill="none" stroke="black" d="M255.64,-359.87C249.62,-353.89 242.19,-347.74 234.2,-344 174.51,-316 139.64,-363.97 87.2,-324 67.74,-309.17 58.13,-282.41 53.45,-262.1"/>
<polygon fill="black" stroke="black" points="56.85,-261.26 51.43,-252.16 49.99,-262.66 56.85,-261.26"/>
<g id="a_edge25&#45;headlabel"><a xlink:href="dir_000469_000039.xhtml" target="_top" xlink:title="291">
<text text-anchor="middle" x="60.35" y="-261.72" font-family="Helvetica,sans-Serif" font-size="10.00">291</text>
</a>
</g>
</g>
<!-- dir_214608ef36d61442cb2b0c1c4e9a7def -->
<g id="node8" class="node">
<title>dir_214608ef36d61442cb2b0c1c4e9a7def</title>
<g id="a_node8"><a xlink:href="dir_214608ef36d61442cb2b0c1c4e9a7def.xhtml" target="_top" xlink:title="arm_compute">
<polygon fill="white" stroke="red" points="264.2,-108 180.2,-108 180.2,-72 264.2,-72 264.2,-108"/>
<text text-anchor="middle" x="222.2" y="-87.5" font-family="Helvetica,sans-Serif" font-size="10.00">arm_compute</text>
</a>
</g>
</g>
<!-- dir_0538a82dae0483a21d0f1e9d7e0a45c6&#45;&gt;dir_214608ef36d61442cb2b0c1c4e9a7def -->
<g id="edge26" class="edge">
<title>dir_0538a82dae0483a21d0f1e9d7e0a45c6&#45;&gt;dir_214608ef36d61442cb2b0c1c4e9a7def</title>
<path fill="none" stroke="black" d="M297.32,-360.63C310.52,-351.4 325.56,-338.75 335.2,-324 361.91,-283.14 370.22,-262.45 355.2,-216 340.39,-170.19 296.32,-134.73 262.93,-113.47"/>
<polygon fill="black" stroke="black" points="264.61,-110.39 254.27,-108.11 260.93,-116.35 264.61,-110.39"/>
<g id="a_edge26&#45;headlabel"><a xlink:href="dir_000469_000000.xhtml" target="_top" xlink:title="407">
<text text-anchor="middle" x="269.16" y="-107.37" font-family="Helvetica,sans-Serif" font-size="10.00">407</text>
</a>
</g>
</g>
<!-- dir_5815af820a9cc9481f1d0990a0d60286 -->
<g id="node9" class="node">
<title>dir_5815af820a9cc9481f1d0990a0d60286</title>
<g id="a_node9"><a xlink:href="dir_5815af820a9cc9481f1d0990a0d60286.xhtml" target="_top" xlink:title="support">
<polygon fill="none" stroke="black" points="249.2,-36 195.2,-36 195.2,0 249.2,0 249.2,-36"/>
<text text-anchor="middle" x="222.2" y="-15.5" font-family="Helvetica,sans-Serif" font-size="10.00">support</text>
</a>
</g>
</g>
<!-- dir_0538a82dae0483a21d0f1e9d7e0a45c6&#45;&gt;dir_5815af820a9cc9481f1d0990a0d60286 -->
<g id="edge27" class="edge">
<title>dir_0538a82dae0483a21d0f1e9d7e0a45c6&#45;&gt;dir_5815af820a9cc9481f1d0990a0d60286</title>
<path fill="none" stroke="black" d="M297.32,-365.55C339.54,-345.68 416.2,-300.59 416.2,-235 416.2,-235 416.2,-235 416.2,-161 416.2,-84.18 315.93,-44.42 259.57,-28.14"/>
<polygon fill="black" stroke="black" points="260.16,-24.67 249.59,-25.37 258.29,-31.42 260.16,-24.67"/>
<g id="a_edge27&#45;headlabel"><a xlink:href="dir_000469_000032.xhtml" target="_top" xlink:title="1">
<text text-anchor="middle" x="264.38" y="-20.4" font-family="Helvetica,sans-Serif" font-size="10.00">1</text>
</a>
</g>
</g>
<!-- dir_6fc87decd8cffc07e5f49c197ca3de10 -->
<g id="node2" class="node">
<title>dir_6fc87decd8cffc07e5f49c197ca3de10</title>
<g id="a_node2"><a xlink:href="dir_6fc87decd8cffc07e5f49c197ca3de10.xhtml" target="_top" xlink:title="UNIT">
<polygon fill="white" stroke="black" points="225.2,-396 171.2,-396 171.2,-360 225.2,-360 225.2,-396"/>
<text text-anchor="middle" x="198.2" y="-375.5" font-family="Helvetica,sans-Serif" font-size="10.00">UNIT</text>
</a>
</g>
</g>
<!-- dir_46fdb196cebdbffe77dac340cde62f29 -->
<g id="node3" class="node">
<title>dir_46fdb196cebdbffe77dac340cde62f29</title>
<g id="a_node3"><a xlink:href="dir_46fdb196cebdbffe77dac340cde62f29.xhtml" target="_top" xlink:title="reference">
<polygon fill="none" stroke="black" points="159.7,-324 96.7,-324 96.7,-288 159.7,-288 159.7,-324"/>
<text text-anchor="middle" x="128.2" y="-303.5" font-family="Helvetica,sans-Serif" font-size="10.00">reference</text>
</a>
</g>
</g>
<!-- dir_6fc87decd8cffc07e5f49c197ca3de10&#45;&gt;dir_46fdb196cebdbffe77dac340cde62f29 -->
<g id="edge9" class="edge">
<title>dir_6fc87decd8cffc07e5f49c197ca3de10&#45;&gt;dir_46fdb196cebdbffe77dac340cde62f29</title>
<path fill="none" stroke="black" d="M180.9,-359.7C172.34,-351.14 161.86,-340.66 152.51,-331.3"/>
<polygon fill="black" stroke="black" points="154.85,-328.7 145.31,-324.1 149.9,-333.65 154.85,-328.7"/>
<g id="a_edge9&#45;headlabel"><a xlink:href="dir_000535_000013.xhtml" target="_top" xlink:title="2">
<text text-anchor="middle" x="159.4" y="-326.73" font-family="Helvetica,sans-Serif" font-size="10.00">2</text>
</a>
</g>
</g>
<!-- dir_6fc87decd8cffc07e5f49c197ca3de10&#45;&gt;dir_445738e6fed662d0b65e690e3f1e1de0 -->
<g id="edge10" class="edge">
<title>dir_6fc87decd8cffc07e5f49c197ca3de10&#45;&gt;dir_445738e6fed662d0b65e690e3f1e1de0</title>
<path fill="none" stroke="black" d="M216.28,-359.94C221.94,-354.73 228.26,-349.05 234.2,-344 239.41,-339.57 245.05,-334.97 250.55,-330.59"/>
<polygon fill="black" stroke="black" points="252.77,-333.3 258.45,-324.35 248.43,-327.8 252.77,-333.3"/>
<g id="a_edge10&#45;headlabel"><a xlink:href="dir_000535_000542.xhtml" target="_top" xlink:title="3">
<text text-anchor="middle" x="251.71" y="-335.25" font-family="Helvetica,sans-Serif" font-size="10.00">3</text>
</a>
</g>
</g>
<!-- dir_6fc87decd8cffc07e5f49c197ca3de10&#45;&gt;dir_9e71e2da941d3cafc4d98a9f6ae3de4f -->
<g id="edge11" class="edge">
<title>dir_6fc87decd8cffc07e5f49c197ca3de10&#45;&gt;dir_9e71e2da941d3cafc4d98a9f6ae3de4f</title>
<path fill="none" stroke="black" d="M170.96,-375.55C137.42,-372.16 81.54,-360.94 54.2,-324 41.23,-306.47 41.02,-281.28 43.46,-262.16"/>
<polygon fill="black" stroke="black" points="46.92,-262.68 45.02,-252.26 40.01,-261.59 46.92,-262.68"/>
<g id="a_edge11&#45;headlabel"><a xlink:href="dir_000535_000039.xhtml" target="_top" xlink:title="9">
<text text-anchor="middle" x="49.17" y="-264.17" font-family="Helvetica,sans-Serif" font-size="10.00">9</text>
</a>
</g>
</g>
<!-- dir_6fc87decd8cffc07e5f49c197ca3de10&#45;&gt;dir_214608ef36d61442cb2b0c1c4e9a7def -->
<g id="edge12" class="edge">
<title>dir_6fc87decd8cffc07e5f49c197ca3de10&#45;&gt;dir_214608ef36d61442cb2b0c1c4e9a7def</title>
<path fill="none" stroke="black" d="M199.63,-359.97C203.63,-312.29 214.97,-177.18 219.88,-118.63"/>
<polygon fill="black" stroke="black" points="223.4,-118.56 220.75,-108.31 216.43,-117.98 223.4,-118.56"/>
<g id="a_edge12&#45;headlabel"><a xlink:href="dir_000535_000000.xhtml" target="_top" xlink:title="23">
<text text-anchor="middle" x="225.93" y="-119.88" font-family="Helvetica,sans-Serif" font-size="10.00">23</text>
</a>
</g>
</g>
<!-- dir_46fdb196cebdbffe77dac340cde62f29&#45;&gt;dir_68267d1309a1af8e8297ef4c3efbcdba -->
<g id="edge1" class="edge">
<title>dir_46fdb196cebdbffe77dac340cde62f29&#45;&gt;dir_68267d1309a1af8e8297ef4c3efbcdba</title>
<path fill="none" stroke="black" d="M159.74,-293.44C193.45,-281.09 246.82,-261.53 282.41,-248.48"/>
<polygon fill="black" stroke="black" points="283.77,-251.71 291.95,-244.99 281.36,-245.14 283.77,-251.71"/>
<g id="a_edge1&#45;headlabel"><a xlink:href="dir_000013_000003.xhtml" target="_top" xlink:title="3">
<text text-anchor="middle" x="281.37" y="-253.12" font-family="Helvetica,sans-Serif" font-size="10.00">3</text>
</a>
</g>
</g>
<!-- dir_46fdb196cebdbffe77dac340cde62f29&#45;&gt;dir_cbdb8362360e11eafe2fa3bc74cf0ffd -->
<g id="edge2" class="edge">
<title>dir_46fdb196cebdbffe77dac340cde62f29&#45;&gt;dir_cbdb8362360e11eafe2fa3bc74cf0ffd</title>
<path fill="none" stroke="black" d="M132.91,-287.87C139.58,-263.56 151.87,-218.82 159.78,-190.01"/>
<polygon fill="black" stroke="black" points="163.21,-190.76 162.48,-180.19 156.46,-188.91 163.21,-190.76"/>
<g id="a_edge2&#45;headlabel"><a xlink:href="dir_000013_000041.xhtml" target="_top" xlink:title="2">
<text text-anchor="middle" x="164.99" y="-192.48" font-family="Helvetica,sans-Serif" font-size="10.00">2</text>
</a>
</g>
</g>
<!-- dir_46fdb196cebdbffe77dac340cde62f29&#45;&gt;dir_9e71e2da941d3cafc4d98a9f6ae3de4f -->
<g id="edge3" class="edge">
<title>dir_46fdb196cebdbffe77dac340cde62f29&#45;&gt;dir_9e71e2da941d3cafc4d98a9f6ae3de4f</title>
<path fill="none" stroke="black" d="M108.67,-287.7C98.82,-278.97 86.72,-268.24 76.01,-258.75"/>
<polygon fill="black" stroke="black" points="78.31,-256.12 68.51,-252.1 73.67,-261.36 78.31,-256.12"/>
<g id="a_edge3&#45;headlabel"><a xlink:href="dir_000013_000039.xhtml" target="_top" xlink:title="2">
<text text-anchor="middle" x="82.88" y="-253.88" font-family="Helvetica,sans-Serif" font-size="10.00">2</text>
</a>
</g>
</g>
<!-- dir_46fdb196cebdbffe77dac340cde62f29&#45;&gt;dir_214608ef36d61442cb2b0c1c4e9a7def -->
<g id="edge4" class="edge">
<title>dir_46fdb196cebdbffe77dac340cde62f29&#45;&gt;dir_214608ef36d61442cb2b0c1c4e9a7def</title>
<path fill="none" stroke="black" d="M123.33,-287.55C115.68,-256.3 104.3,-189.8 131.2,-144 140.18,-128.71 155.41,-117.4 170.87,-109.25"/>
<polygon fill="black" stroke="black" points="172.51,-112.34 179.96,-104.81 169.44,-106.06 172.51,-112.34"/>
<g id="a_edge4&#45;headlabel"><a xlink:href="dir_000013_000000.xhtml" target="_top" xlink:title="86">
<text text-anchor="middle" x="170.53" y="-113.97" font-family="Helvetica,sans-Serif" font-size="10.00">86</text>
</a>
</g>
</g>
<!-- dir_46fdb196cebdbffe77dac340cde62f29&#45;&gt;dir_5815af820a9cc9481f1d0990a0d60286 -->
<g id="edge5" class="edge">
<title>dir_46fdb196cebdbffe77dac340cde62f29&#45;&gt;dir_5815af820a9cc9481f1d0990a0d60286</title>
<path fill="none" stroke="black" d="M96.53,-301.09C67.25,-295.6 25.33,-282.59 5.2,-252 -3.59,-238.63 0.87,-231.4 5.2,-216 25.52,-143.8 36.13,-120.66 93.2,-72 119.87,-49.26 157.61,-35.3 185.39,-27.45"/>
<polygon fill="black" stroke="black" points="186.38,-30.81 195.13,-24.83 184.56,-24.05 186.38,-30.81"/>
<g id="a_edge5&#45;headlabel"><a xlink:href="dir_000013_000032.xhtml" target="_top" xlink:title="8">
<text text-anchor="middle" x="183.65" y="-31.98" font-family="Helvetica,sans-Serif" font-size="10.00">8</text>
</a>
</g>
</g>
<!-- dir_68267d1309a1af8e8297ef4c3efbcdba&#45;&gt;dir_cbdb8362360e11eafe2fa3bc74cf0ffd -->
<g id="edge6" class="edge">
<title>dir_68267d1309a1af8e8297ef4c3efbcdba&#45;&gt;dir_cbdb8362360e11eafe2fa3bc74cf0ffd</title>
<path fill="none" stroke="black" d="M292.03,-220.49C267.35,-209.12 230.78,-192.28 203.59,-179.76"/>
<polygon fill="black" stroke="black" points="204.94,-176.53 194.4,-175.52 202.02,-182.89 204.94,-176.53"/>
<g id="a_edge6&#45;headlabel"><a xlink:href="dir_000003_000041.xhtml" target="_top" xlink:title="3">
<text text-anchor="middle" x="209.4" y="-172.95" font-family="Helvetica,sans-Serif" font-size="10.00">3</text>
</a>
</g>
</g>
<!-- dir_68267d1309a1af8e8297ef4c3efbcdba&#45;&gt;dir_214608ef36d61442cb2b0c1c4e9a7def -->
<g id="edge7" class="edge">
<title>dir_68267d1309a1af8e8297ef4c3efbcdba&#45;&gt;dir_214608ef36d61442cb2b0c1c4e9a7def</title>
<path fill="none" stroke="black" d="M313.55,-215.9C306.87,-197.19 294.56,-166.81 278.2,-144 270.7,-133.55 260.94,-123.48 251.68,-114.97"/>
<polygon fill="black" stroke="black" points="253.87,-112.24 244.07,-108.22 249.23,-117.47 253.87,-112.24"/>
<g id="a_edge7&#45;headlabel"><a xlink:href="dir_000003_000000.xhtml" target="_top" xlink:title="3505">
<text text-anchor="middle" x="258.45" y="-110" font-family="Helvetica,sans-Serif" font-size="10.00">3505</text>
</a>
</g>
</g>
<!-- dir_68267d1309a1af8e8297ef4c3efbcdba&#45;&gt;dir_5815af820a9cc9481f1d0990a0d60286 -->
<g id="edge8" class="edge">
<title>dir_68267d1309a1af8e8297ef4c3efbcdba&#45;&gt;dir_5815af820a9cc9481f1d0990a0d60286</title>
<path fill="none" stroke="black" d="M317.65,-215.62C314.16,-184.5 303.49,-118.19 273.2,-72 266.49,-61.76 257.64,-51.75 249.21,-43.24"/>
<polygon fill="black" stroke="black" points="251.57,-40.66 241.97,-36.18 246.69,-45.67 251.57,-40.66"/>
<g id="a_edge8&#45;headlabel"><a xlink:href="dir_000003_000032.xhtml" target="_top" xlink:title="222">
<text text-anchor="middle" x="256.13" y="-38.63" font-family="Helvetica,sans-Serif" font-size="10.00">222</text>
</a>
</g>
</g>
<!-- dir_cbdb8362360e11eafe2fa3bc74cf0ffd&#45;&gt;dir_214608ef36d61442cb2b0c1c4e9a7def -->
<g id="edge13" class="edge">
<title>dir_cbdb8362360e11eafe2fa3bc74cf0ffd&#45;&gt;dir_214608ef36d61442cb2b0c1c4e9a7def</title>
<path fill="none" stroke="black" d="M174.88,-143.7C180.61,-135.3 188.46,-125.07 196.18,-115.86"/>
<polygon fill="black" stroke="black" points="198.99,-117.96 202.87,-108.1 193.69,-113.39 198.99,-117.96"/>
<g id="a_edge13&#45;headlabel"><a xlink:href="dir_000041_000000.xhtml" target="_top" xlink:title="54">
<text text-anchor="middle" x="198.79" y="-120.04" font-family="Helvetica,sans-Serif" font-size="10.00">54</text>
</a>
</g>
</g>
<!-- dir_cbdb8362360e11eafe2fa3bc74cf0ffd&#45;&gt;dir_5815af820a9cc9481f1d0990a0d60286 -->
<g id="edge14" class="edge">
<title>dir_cbdb8362360e11eafe2fa3bc74cf0ffd&#45;&gt;dir_5815af820a9cc9481f1d0990a0d60286</title>
<path fill="none" stroke="black" d="M164.5,-143.81C162.37,-125.28 161.19,-95.31 171.2,-72 175.83,-61.22 183.71,-51.35 191.9,-43.13"/>
<polygon fill="black" stroke="black" points="194.54,-45.45 199.43,-36.06 189.75,-40.35 194.54,-45.45"/>
<g id="a_edge14&#45;headlabel"><a xlink:href="dir_000041_000032.xhtml" target="_top" xlink:title="4">
<text text-anchor="middle" x="193.86" y="-47.48" font-family="Helvetica,sans-Serif" font-size="10.00">4</text>
</a>
</g>
</g>
<!-- dir_445738e6fed662d0b65e690e3f1e1de0&#45;&gt;dir_68267d1309a1af8e8297ef4c3efbcdba -->
<g id="edge15" class="edge">
<title>dir_445738e6fed662d0b65e690e3f1e1de0&#45;&gt;dir_68267d1309a1af8e8297ef4c3efbcdba</title>
<path fill="none" stroke="black" d="M290.6,-287.7C294.97,-279.64 300.26,-269.89 305.1,-260.98"/>
<polygon fill="black" stroke="black" points="308.22,-262.56 309.92,-252.1 302.07,-259.22 308.22,-262.56"/>
<g id="a_edge15&#45;headlabel"><a xlink:href="dir_000542_000003.xhtml" target="_top" xlink:title="2">
<text text-anchor="middle" x="309" y="-264.58" font-family="Helvetica,sans-Serif" font-size="10.00">2</text>
</a>
</g>
</g>
<!-- dir_445738e6fed662d0b65e690e3f1e1de0&#45;&gt;dir_214608ef36d61442cb2b0c1c4e9a7def -->
<g id="edge16" class="edge">
<title>dir_445738e6fed662d0b65e690e3f1e1de0&#45;&gt;dir_214608ef36d61442cb2b0c1c4e9a7def</title>
<path fill="none" stroke="black" d="M276.47,-287.85C266.25,-250.75 242,-162.81 229.67,-118.1"/>
<polygon fill="black" stroke="black" points="232.98,-116.94 226.95,-108.23 226.24,-118.8 232.98,-116.94"/>
<g id="a_edge16&#45;headlabel"><a xlink:href="dir_000542_000000.xhtml" target="_top" xlink:title="6">
<text text-anchor="middle" x="236.68" y="-117.15" font-family="Helvetica,sans-Serif" font-size="10.00">6</text>
</a>
</g>
</g>
<!-- dir_9e71e2da941d3cafc4d98a9f6ae3de4f&#45;&gt;dir_cbdb8362360e11eafe2fa3bc74cf0ffd -->
<g id="edge17" class="edge">
<title>dir_9e71e2da941d3cafc4d98a9f6ae3de4f&#45;&gt;dir_cbdb8362360e11eafe2fa3bc74cf0ffd</title>
<path fill="none" stroke="black" d="M78.07,-215.88C93.96,-206.45 113.83,-194.66 130.78,-184.61"/>
<polygon fill="black" stroke="black" points="133.04,-187.34 139.85,-179.23 129.46,-181.32 133.04,-187.34"/>
<g id="a_edge17&#45;headlabel"><a xlink:href="dir_000039_000041.xhtml" target="_top" xlink:title="4">
<text text-anchor="middle" x="131.39" y="-189.11" font-family="Helvetica,sans-Serif" font-size="10.00">4</text>
</a>
</g>
</g>
<!-- dir_9e71e2da941d3cafc4d98a9f6ae3de4f&#45;&gt;dir_214608ef36d61442cb2b0c1c4e9a7def -->
<g id="edge18" class="edge">
<title>dir_9e71e2da941d3cafc4d98a9f6ae3de4f&#45;&gt;dir_214608ef36d61442cb2b0c1c4e9a7def</title>
<path fill="none" stroke="black" d="M54.8,-215.73C62,-196 76.23,-163.89 98.2,-144 118.57,-125.56 146.31,-112.89 170.4,-104.58"/>
<polygon fill="black" stroke="black" points="171.7,-107.83 180.11,-101.38 169.52,-101.18 171.7,-107.83"/>
<g id="a_edge18&#45;headlabel"><a xlink:href="dir_000039_000000.xhtml" target="_top" xlink:title="16">
<text text-anchor="middle" x="169.18" y="-109.15" font-family="Helvetica,sans-Serif" font-size="10.00">16</text>
</a>
</g>
</g>
<!-- dir_9e71e2da941d3cafc4d98a9f6ae3de4f&#45;&gt;dir_5815af820a9cc9481f1d0990a0d60286 -->
<g id="edge19" class="edge">
<title>dir_9e71e2da941d3cafc4d98a9f6ae3de4f&#45;&gt;dir_5815af820a9cc9481f1d0990a0d60286</title>
<path fill="none" stroke="black" d="M49.54,-215.68C50.63,-196.78 54.58,-166.23 68.2,-144 97.22,-96.63 150.83,-59.32 186.5,-38.21"/>
<polygon fill="black" stroke="black" points="188.26,-41.23 195.16,-33.19 184.75,-35.17 188.26,-41.23"/>
<g id="a_edge19&#45;headlabel"><a xlink:href="dir_000039_000032.xhtml" target="_top" xlink:title="6">
<text text-anchor="middle" x="186.57" y="-42.99" font-family="Helvetica,sans-Serif" font-size="10.00">6</text>
</a>
</g>
</g>
<!-- dir_214608ef36d61442cb2b0c1c4e9a7def&#45;&gt;dir_cbdb8362360e11eafe2fa3bc74cf0ffd -->
<g id="edge20" class="edge">
<title>dir_214608ef36d61442cb2b0c1c4e9a7def&#45;&gt;dir_cbdb8362360e11eafe2fa3bc74cf0ffd</title>
<path fill="none" stroke="black" d="M214.66,-108.1C208.96,-116.47 201.13,-126.69 193.41,-135.92"/>
<polygon fill="black" stroke="black" points="190.59,-133.84 186.71,-143.7 195.89,-138.4 190.59,-133.84"/>
<g id="a_edge20&#45;headlabel"><a xlink:href="dir_000000_000041.xhtml" target="_top" xlink:title="1">
<text text-anchor="middle" x="190.78" y="-126.76" font-family="Helvetica,sans-Serif" font-size="10.00">1</text>
</a>
</g>
</g>
<!-- dir_214608ef36d61442cb2b0c1c4e9a7def&#45;&gt;dir_5815af820a9cc9481f1d0990a0d60286 -->
<g id="edge21" class="edge">
<title>dir_214608ef36d61442cb2b0c1c4e9a7def&#45;&gt;dir_5815af820a9cc9481f1d0990a0d60286</title>
<path fill="none" stroke="black" d="M216.29,-71.7C215.49,-63.98 215.26,-54.71 215.61,-46.11"/>
<polygon fill="black" stroke="black" points="219.1,-46.32 216.31,-36.1 212.12,-45.84 219.1,-46.32"/>
<g id="a_edge21&#45;headlabel"><a xlink:href="dir_000000_000032.xhtml" target="_top" xlink:title="16">
<text text-anchor="middle" x="221.68" y="-47.61" font-family="Helvetica,sans-Serif" font-size="10.00">16</text>
</a>
</g>
</g>
<!-- dir_5815af820a9cc9481f1d0990a0d60286&#45;&gt;dir_214608ef36d61442cb2b0c1c4e9a7def -->
<g id="edge28" class="edge">
<title>dir_5815af820a9cc9481f1d0990a0d60286&#45;&gt;dir_214608ef36d61442cb2b0c1c4e9a7def</title>
<path fill="none" stroke="black" d="M228.1,-36.1C228.9,-43.79 229.14,-53.05 228.81,-61.67"/>
<polygon fill="black" stroke="black" points="225.31,-61.48 228.12,-71.7 232.29,-61.96 225.31,-61.48"/>
<g id="a_edge28&#45;headlabel"><a xlink:href="dir_000032_000000.xhtml" target="_top" xlink:title="6">
<text text-anchor="middle" x="222.72" y="-55.2" font-family="Helvetica,sans-Serif" font-size="10.00">6</text>
</a>
</g>
</g>
</g>
</svg>
