<?xml version="1.0" encoding="UTF-8" standalone="no"?>
<!DOCTYPE svg PUBLIC "-//W3C//DTD SVG 1.1//EN"
 "http://www.w3.org/Graphics/SVG/1.1/DTD/svg11.dtd">
<!-- Generated by graphviz version 2.43.0 (0)
 -->
<!-- Title: Graphical Class Hierarchy Pages: 1 -->
<svg width="342pt" height="180pt"
 viewBox="0.00 0.00 342.00 180.00" xmlns="http://www.w3.org/2000/svg" xmlns:xlink="http://www.w3.org/1999/xlink">
<g id="graph0" class="graph" transform="scale(1 1) rotate(0) translate(4 176)">
<title>Graphical Class Hierarchy</title>
<polygon fill="white" stroke="transparent" points="-4,4 -4,-176 338,-176 338,4 -4,4"/>
<!-- Node0 -->
<g id="node1" class="node">
<title>Node0</title>
<g id="a_node1"><a xlink:href="classarm__compute_1_1experimental_1_1dynamic__fusion_1_1_i_gpu_ckw_component_driver.xhtml" target="_top" xlink:title="An interface used by GpuCkwDriver to write source code for a kernel component.">
<polygon fill="white" stroke="black" points="0,-76.5 0,-95.5 146,-95.5 146,-76.5 0,-76.5"/>
<text text-anchor="middle" x="73" y="-83.5" font-family="Helvetica,sans-Serif" font-size="10.00">IGpuCkwComponentDriver</text>
</a>
</g>
</g>
<!-- Node1 -->
<g id="node2" class="node">
<title>Node1</title>
<g id="a_node2"><a xlink:href="classarm__compute_1_1experimental_1_1dynamic__fusion_1_1_gpu_ckw_activation.xhtml" target="_top" xlink:title=" ">
<polygon fill="white" stroke="black" points="204.5,-152.5 204.5,-171.5 311.5,-171.5 311.5,-152.5 204.5,-152.5"/>
<text text-anchor="middle" x="258" y="-159.5" font-family="Helvetica,sans-Serif" font-size="10.00">GpuCkwActivation</text>
</a>
</g>
</g>
<!-- Node0&#45;&gt;Node1 -->
<g id="edge1" class="edge">
<title>Node0&#45;&gt;Node1</title>
<path fill="none" stroke="midnightblue" d="M97.91,-100.75C119.3,-113.41 151.83,-131.41 182,-143 191.53,-146.66 202.01,-149.82 212.04,-152.46"/>
<polygon fill="midnightblue" stroke="midnightblue" points="99.57,-97.66 89.19,-95.51 95.96,-103.66 99.57,-97.66"/>
</g>
<!-- Node2 -->
<g id="node3" class="node">
<title>Node2</title>
<g id="a_node3"><a xlink:href="classarm__compute_1_1experimental_1_1dynamic__fusion_1_1_gpu_ckw_cast.xhtml" target="_top" xlink:title=" ">
<polygon fill="white" stroke="black" points="218.5,-114.5 218.5,-133.5 297.5,-133.5 297.5,-114.5 218.5,-114.5"/>
<text text-anchor="middle" x="258" y="-121.5" font-family="Helvetica,sans-Serif" font-size="10.00">GpuCkwCast</text>
</a>
</g>
</g>
<!-- Node0&#45;&gt;Node2 -->
<g id="edge2" class="edge">
<title>Node0&#45;&gt;Node2</title>
<path fill="none" stroke="midnightblue" d="M130.03,-97.64C158.6,-103.57 192.63,-110.63 218.26,-115.96"/>
<polygon fill="midnightblue" stroke="midnightblue" points="130.68,-94.2 120.18,-95.59 129.26,-101.05 130.68,-94.2"/>
</g>
<!-- Node3 -->
<g id="node4" class="node">
<title>Node3</title>
<g id="a_node4"><a xlink:href="classarm__compute_1_1experimental_1_1dynamic__fusion_1_1_gpu_ckw_direct_conv2d.xhtml" target="_top" xlink:title=" ">
<polygon fill="white" stroke="black" points="196.5,-76.5 196.5,-95.5 319.5,-95.5 319.5,-76.5 196.5,-76.5"/>
<text text-anchor="middle" x="258" y="-83.5" font-family="Helvetica,sans-Serif" font-size="10.00">GpuCkwDirectConv2d</text>
</a>
</g>
</g>
<!-- Node0&#45;&gt;Node3 -->
<g id="edge3" class="edge">
<title>Node0&#45;&gt;Node3</title>
<path fill="none" stroke="midnightblue" d="M156.27,-86C169.72,-86 183.43,-86 196.23,-86"/>
<polygon fill="midnightblue" stroke="midnightblue" points="156.06,-82.5 146.06,-86 156.06,-89.5 156.06,-82.5"/>
</g>
<!-- Node4 -->
<g id="node5" class="node">
<title>Node4</title>
<g id="a_node5"><a xlink:href="classarm__compute_1_1experimental_1_1dynamic__fusion_1_1_gpu_ckw_elementwise_binary.xhtml" target="_top" xlink:title=" ">
<polygon fill="white" stroke="black" points="182,-38.5 182,-57.5 334,-57.5 334,-38.5 182,-38.5"/>
<text text-anchor="middle" x="258" y="-45.5" font-family="Helvetica,sans-Serif" font-size="10.00">GpuCkwElementwiseBinary</text>
</a>
</g>
</g>
<!-- Node0&#45;&gt;Node4 -->
<g id="edge4" class="edge">
<title>Node0&#45;&gt;Node4</title>
<path fill="none" stroke="midnightblue" d="M130.25,-74.32C156.21,-68.93 186.62,-62.61 211.15,-57.52"/>
<polygon fill="midnightblue" stroke="midnightblue" points="129.26,-70.95 120.18,-76.41 130.68,-77.8 129.26,-70.95"/>
</g>
<!-- Node5 -->
<g id="node6" class="node">
<title>Node5</title>
<g id="a_node6"><a xlink:href="classarm__compute_1_1experimental_1_1dynamic__fusion_1_1_gpu_ckw_store.xhtml" target="_top" xlink:title="An interface used by ClTemplateWriter to write source code for a kernel component.">
<polygon fill="white" stroke="black" points="216.5,-0.5 216.5,-19.5 299.5,-19.5 299.5,-0.5 216.5,-0.5"/>
<text text-anchor="middle" x="258" y="-7.5" font-family="Helvetica,sans-Serif" font-size="10.00">GpuCkwStore</text>
</a>
</g>
</g>
<!-- Node0&#45;&gt;Node5 -->
<g id="edge5" class="edge">
<title>Node0&#45;&gt;Node5</title>
<path fill="none" stroke="midnightblue" d="M97.91,-71.25C119.3,-58.59 151.83,-40.59 182,-29 192.91,-24.81 205.06,-21.27 216.36,-18.43"/>
<polygon fill="midnightblue" stroke="midnightblue" points="95.96,-68.34 89.19,-76.49 99.57,-74.34 95.96,-68.34"/>
</g>
</g>
</svg>
