<?xml version="1.0" encoding="UTF-8" standalone="no"?>
<!DOCTYPE svg PUBLIC "-//W3C//DTD SVG 1.1//EN"
 "http://www.w3.org/Graphics/SVG/1.1/DTD/svg11.dtd">
<!-- Generated by graphviz version 2.43.0 (0)
 -->
<!-- Title: TensorDescriptor Pages: 1 -->
<svg width="565pt" height="229pt"
 viewBox="0.00 0.00 564.50 229.00" xmlns="http://www.w3.org/2000/svg" xmlns:xlink="http://www.w3.org/1999/xlink">
<g id="graph0" class="graph" transform="scale(1 1) rotate(0) translate(4 225)">
<title>TensorDescriptor</title>
<polygon fill="white" stroke="transparent" points="-4,4 -4,-225 560.5,-225 560.5,4 -4,4"/>
<!-- Node1 -->
<g id="node1" class="node">
<title>Node1</title>
<g id="a_node1"><a xlink:title="Tensor metadata class.">
<polygon fill="#bfbfbf" stroke="black" points="264.5,-0.5 264.5,-19.5 362.5,-19.5 362.5,-0.5 264.5,-0.5"/>
<text text-anchor="middle" x="313.5" y="-7.5" font-family="Helvetica,sans-Serif" font-size="10.00">TensorDescriptor</text>
</a>
</g>
</g>
<!-- Node2 -->
<g id="node2" class="node">
<title>Node2</title>
<g id="a_node2"><a xlink:href="classarm__compute_1_1misc_1_1_i_cloneable.xhtml" target="_top" xlink:title=" ">
<polygon fill="white" stroke="black" points="0,-67.5 0,-86.5 173,-86.5 173,-67.5 0,-67.5"/>
<text text-anchor="middle" x="86.5" y="-74.5" font-family="Helvetica,sans-Serif" font-size="10.00">ICloneable&lt; TensorDescriptor &gt;</text>
</a>
</g>
</g>
<!-- Node2&#45;&gt;Node1 -->
<g id="edge1" class="edge">
<title>Node2&#45;&gt;Node1</title>
<path fill="none" stroke="midnightblue" d="M126.34,-64.59C171.25,-51.73 243.24,-31.12 283.59,-19.56"/>
<polygon fill="midnightblue" stroke="midnightblue" points="125.29,-61.25 116.64,-67.37 127.22,-67.98 125.29,-61.25"/>
</g>
<!-- Node3 -->
<g id="node3" class="node">
<title>Node3</title>
<g id="a_node3"><a xlink:href="classarm__compute_1_1misc_1_1_i_cloneable.xhtml" target="_top" xlink:title="Clonable Interface.">
<polygon fill="white" stroke="black" points="38,-134.5 38,-153.5 135,-153.5 135,-134.5 38,-134.5"/>
<text text-anchor="middle" x="86.5" y="-141.5" font-family="Helvetica,sans-Serif" font-size="10.00">ICloneable&lt; T &gt;</text>
</a>
</g>
</g>
<!-- Node3&#45;&gt;Node2 -->
<g id="edge2" class="edge">
<title>Node3&#45;&gt;Node2</title>
<path fill="none" stroke="orange" stroke-dasharray="5,2" d="M86.5,-124.04C86.5,-111.67 86.5,-96.12 86.5,-86.63"/>
<polygon fill="orange" stroke="orange" points="83,-124.23 86.5,-134.23 90,-124.23 83,-124.23"/>
<text text-anchor="middle" x="140.5" y="-108" font-family="Helvetica,sans-Serif" font-size="10.00"> &lt; TensorDescriptor &gt;</text>
</g>
<!-- Node4 -->
<g id="node4" class="node">
<title>Node4</title>
<g id="a_node4"><a xlink:title=" ">
<polygon fill="white" stroke="#bfbfbf" points="191,-67.5 191,-86.5 264,-86.5 264,-67.5 191,-67.5"/>
<text text-anchor="middle" x="227.5" y="-74.5" font-family="Helvetica,sans-Serif" font-size="10.00">DataLayout</text>
</a>
</g>
</g>
<!-- Node4&#45;&gt;Node1 -->
<g id="edge3" class="edge">
<title>Node4&#45;&gt;Node1</title>
<path fill="none" stroke="#9a32cd" stroke-dasharray="5,2" d="M245.86,-61.1C254.73,-54 265.58,-45.44 275.5,-38 283.92,-31.69 293.58,-24.82 301.06,-19.59"/>
<polygon fill="#9a32cd" stroke="#9a32cd" points="243.65,-58.39 238.05,-67.39 248.04,-63.84 243.65,-58.39"/>
<text text-anchor="middle" x="292.5" y="-41" font-family="Helvetica,sans-Serif" font-size="10.00"> layout</text>
</g>
<!-- Node5 -->
<g id="node5" class="node">
<title>Node5</title>
<g id="a_node5"><a xlink:title=" ">
<polygon fill="white" stroke="#bfbfbf" points="282.5,-67.5 282.5,-86.5 344.5,-86.5 344.5,-67.5 282.5,-67.5"/>
<text text-anchor="middle" x="313.5" y="-74.5" font-family="Helvetica,sans-Serif" font-size="10.00">DataType</text>
</a>
</g>
</g>
<!-- Node5&#45;&gt;Node1 -->
<g id="edge4" class="edge">
<title>Node5&#45;&gt;Node1</title>
<path fill="none" stroke="#9a32cd" stroke-dasharray="5,2" d="M313.5,-57.04C313.5,-44.67 313.5,-29.12 313.5,-19.63"/>
<polygon fill="#9a32cd" stroke="#9a32cd" points="310,-57.23 313.5,-67.23 317,-57.23 310,-57.23"/>
<text text-anchor="middle" x="339.5" y="-41" font-family="Helvetica,sans-Serif" font-size="10.00"> data_type</text>
</g>
<!-- Node6 -->
<g id="node6" class="node">
<title>Node6</title>
<g id="a_node6"><a xlink:href="classarm__compute_1_1_tensor_shape.xhtml" target="_top" xlink:title="Shape of a tensor.">
<polygon fill="white" stroke="black" points="362.5,-67.5 362.5,-86.5 440.5,-86.5 440.5,-67.5 362.5,-67.5"/>
<text text-anchor="middle" x="401.5" y="-74.5" font-family="Helvetica,sans-Serif" font-size="10.00">TensorShape</text>
</a>
</g>
</g>
<!-- Node6&#45;&gt;Node1 -->
<g id="edge5" class="edge">
<title>Node6&#45;&gt;Node1</title>
<path fill="none" stroke="#9a32cd" stroke-dasharray="5,2" d="M389.62,-58.9C384.09,-51.81 377.07,-43.88 369.5,-38 359.61,-30.32 347.18,-24.06 336.55,-19.5"/>
<polygon fill="#9a32cd" stroke="#9a32cd" points="387.01,-61.25 395.75,-67.23 392.64,-57.1 387.01,-61.25"/>
<text text-anchor="middle" x="396" y="-41" font-family="Helvetica,sans-Serif" font-size="10.00"> shape</text>
</g>
<!-- Node7 -->
<g id="node7" class="node">
<title>Node7</title>
<g id="a_node7"><a xlink:href="classarm__compute_1_1_dimensions.xhtml" target="_top" xlink:title=" ">
<polygon fill="white" stroke="black" points="339,-134.5 339,-153.5 464,-153.5 464,-134.5 339,-134.5"/>
<text text-anchor="middle" x="401.5" y="-141.5" font-family="Helvetica,sans-Serif" font-size="10.00">Dimensions&lt; size_t &gt;</text>
</a>
</g>
</g>
<!-- Node7&#45;&gt;Node6 -->
<g id="edge6" class="edge">
<title>Node7&#45;&gt;Node6</title>
<path fill="none" stroke="midnightblue" d="M401.5,-124.04C401.5,-111.67 401.5,-96.12 401.5,-86.63"/>
<polygon fill="midnightblue" stroke="midnightblue" points="398,-124.23 401.5,-134.23 405,-124.23 398,-124.23"/>
</g>
<!-- Node8 -->
<g id="node8" class="node">
<title>Node8</title>
<g id="a_node8"><a xlink:href="classarm__compute_1_1_dimensions.xhtml" target="_top" xlink:title="Dimensions with dimensionality.">
<polygon fill="white" stroke="black" points="350,-201.5 350,-220.5 453,-220.5 453,-201.5 350,-201.5"/>
<text text-anchor="middle" x="401.5" y="-208.5" font-family="Helvetica,sans-Serif" font-size="10.00">Dimensions&lt; T &gt;</text>
</a>
</g>
</g>
<!-- Node8&#45;&gt;Node7 -->
<g id="edge7" class="edge">
<title>Node8&#45;&gt;Node7</title>
<path fill="none" stroke="orange" stroke-dasharray="5,2" d="M401.5,-191.04C401.5,-178.67 401.5,-163.12 401.5,-153.63"/>
<polygon fill="orange" stroke="orange" points="398,-191.23 401.5,-201.23 405,-191.23 398,-191.23"/>
<text text-anchor="middle" x="429" y="-175" font-family="Helvetica,sans-Serif" font-size="10.00"> &lt; size_t &gt;</text>
</g>
<!-- Node9 -->
<g id="node9" class="node">
<title>Node9</title>
<g id="a_node9"><a xlink:href="classarm__compute_1_1_quantization_info.xhtml" target="_top" xlink:title="Quantization information.">
<polygon fill="white" stroke="black" points="458.5,-67.5 458.5,-86.5 556.5,-86.5 556.5,-67.5 458.5,-67.5"/>
<text text-anchor="middle" x="507.5" y="-74.5" font-family="Helvetica,sans-Serif" font-size="10.00">QuantizationInfo</text>
</a>
</g>
</g>
<!-- Node9&#45;&gt;Node1 -->
<g id="edge8" class="edge">
<title>Node9&#45;&gt;Node1</title>
<path fill="none" stroke="#9a32cd" stroke-dasharray="5,2" d="M479.73,-63.22C461.9,-55.31 438.12,-45.31 416.5,-38 395.13,-30.78 370.74,-24.31 351.06,-19.51"/>
<polygon fill="#9a32cd" stroke="#9a32cd" points="478.41,-66.46 488.97,-67.37 481.28,-60.08 478.41,-66.46"/>
<text text-anchor="middle" x="471" y="-41" font-family="Helvetica,sans-Serif" font-size="10.00"> quant_info</text>
</g>
</g>
</svg>
