<?xml version="1.0" encoding="UTF-8" standalone="no"?>
<!DOCTYPE svg PUBLIC "-//W3C//DTD SVG 1.1//EN"
 "http://www.w3.org/Graphics/SVG/1.1/DTD/svg11.dtd">
<!-- Generated by graphviz version 2.43.0 (0)
 -->
<!-- Title: Header Pages: 1 -->
<svg width="128pt" height="152pt"
 viewBox="0.00 0.00 127.50 152.00" xmlns="http://www.w3.org/2000/svg" xmlns:xlink="http://www.w3.org/1999/xlink">
<g id="graph0" class="graph" transform="scale(1 1) rotate(0) translate(4 148)">
<title>Header</title>
<polygon fill="white" stroke="transparent" points="-4,4 -4,-148 123.5,-148 123.5,4 -4,4"/>
<!-- Node1 -->
<g id="node1" class="node">
<title>Node1</title>
<g id="a_node1"><a xlink:title=" ">
<polygon fill="#bfbfbf" stroke="black" points="48.5,-124.5 48.5,-143.5 100.5,-143.5 100.5,-124.5 48.5,-124.5"/>
<text text-anchor="middle" x="74.5" y="-131.5" font-family="Helvetica,sans-Serif" font-size="10.00">Header</text>
</a>
</g>
</g>
<!-- Node3 -->
<g id="node3" class="node">
<title>Node3</title>
<g id="a_node3"><a xlink:href="struct_acl_context__.xhtml" target="_top" xlink:title=" ">
<polygon fill="white" stroke="black" points="0,-57.5 0,-76.5 75,-76.5 75,-57.5 0,-57.5"/>
<text text-anchor="middle" x="37.5" y="-64.5" font-family="Helvetica,sans-Serif" font-size="10.00">AclContext_</text>
</a>
</g>
</g>
<!-- Node1&#45;&gt;Node3 -->
<g id="edge3" class="edge">
<title>Node1&#45;&gt;Node3</title>
<path fill="none" stroke="#9a32cd" stroke-dasharray="5,2" d="M64.56,-115.53C57.39,-102.95 48.03,-86.51 42.41,-76.63"/>
<polygon fill="#9a32cd" stroke="#9a32cd" points="61.52,-117.27 69.51,-124.23 67.6,-113.81 61.52,-117.27"/>
<text text-anchor="middle" x="77" y="-98" font-family="Helvetica,sans-Serif" font-size="10.00"> header</text>
</g>
<!-- Node2 -->
<g id="node2" class="node">
<title>Node2</title>
<g id="a_node2"><a xlink:href="classarm__compute_1_1_i_context.xhtml" target="_top" xlink:title="Context interface.">
<polygon fill="white" stroke="black" points="45.5,-0.5 45.5,-19.5 103.5,-19.5 103.5,-0.5 45.5,-0.5"/>
<text text-anchor="middle" x="74.5" y="-7.5" font-family="Helvetica,sans-Serif" font-size="10.00">IContext</text>
</a>
</g>
</g>
<!-- Node2&#45;&gt;Node1 -->
<g id="edge1" class="edge">
<title>Node2&#45;&gt;Node1</title>
<path fill="none" stroke="#9a32cd" stroke-dasharray="5,2" d="M84.78,-28.45C94.79,-47.78 107.19,-79.69 97.5,-106 94.95,-112.93 89.73,-119.3 84.92,-124.11"/>
<polygon fill="#9a32cd" stroke="#9a32cd" points="87.79,-26.65 79.9,-19.58 81.66,-30.03 87.79,-26.65"/>
<text text-anchor="middle" x="110" y="-64.5" font-family="Helvetica,sans-Serif" font-size="10.00"> ctx</text>
</g>
<!-- Node3&#45;&gt;Node2 -->
<g id="edge2" class="edge">
<title>Node3&#45;&gt;Node2</title>
<path fill="none" stroke="midnightblue" d="M48.98,-48.94C55.49,-39.25 63.37,-27.54 68.64,-19.71"/>
<polygon fill="midnightblue" stroke="midnightblue" points="45.96,-47.16 43.28,-57.41 51.77,-51.06 45.96,-47.16"/>
</g>
</g>
</svg>
