<?xml version="1.0" encoding="UTF-8" standalone="no"?>
<!DOCTYPE svg PUBLIC "-//W3C//DTD SVG 1.1//EN"
 "http://www.w3.org/Graphics/SVG/1.1/DTD/svg11.dtd">
<!-- Generated by graphviz version 2.43.0 (0)
 -->
<!-- Title: src/dynamic_fusion/sketch/gpu/components/cl Pages: 1 -->
<svg width="328pt" height="439pt"
 viewBox="0.00 0.00 327.92 439.00" xmlns="http://www.w3.org/2000/svg" xmlns:xlink="http://www.w3.org/1999/xlink">
<g id="graph0" class="graph" transform="scale(1 1) rotate(0) translate(4 435)">
<title>src/dynamic_fusion/sketch/gpu/components/cl</title>
<polygon fill="white" stroke="transparent" points="-4,4 -4,-435 323.92,-435 323.92,4 -4,4"/>
<g id="clust1" class="cluster">
<title>clusterdir_2dfbec2966693e15f04cad1350ff3fc9</title>
<g id="a_clust1"><a xlink:href="dir_2dfbec2966693e15f04cad1350ff3fc9.xhtml" target="_top" xlink:title="components">
<polygon fill="#ddddee" stroke="black" points="142,-352 142,-423 219,-423 219,-352 142,-352"/>
<text text-anchor="middle" x="180.5" y="-411" font-family="Helvetica,sans-Serif" font-size="10.00">components</text>
</a>
</g>
</g>
<!-- dir_1dfcd743a89af48c1ad7b4e490ecc755 -->
<g id="node1" class="node">
<title>dir_1dfcd743a89af48c1ad7b4e490ecc755</title>
<g id="a_node1"><a xlink:href="dir_1dfcd743a89af48c1ad7b4e490ecc755.xhtml" target="_top" xlink:title="cl">
<polygon fill="#eeeeff" stroke="black" points="207,-396 153,-396 153,-360 207,-360 207,-396"/>
<text text-anchor="middle" x="180" y="-375.5" font-family="Helvetica,sans-Serif" font-size="10.00">cl</text>
</a>
</g>
</g>
<!-- dir_6873a2afc4715a8a8ff813bcf2ca82fa -->
<g id="node2" class="node">
<title>dir_6873a2afc4715a8a8ff813bcf2ca82fa</title>
<g id="a_node2"><a xlink:href="dir_6873a2afc4715a8a8ff813bcf2ca82fa.xhtml" target="_top" xlink:title="operators">
<polygon fill="white" stroke="red" points="170.5,-252 107.5,-252 107.5,-216 170.5,-216 170.5,-252"/>
<text text-anchor="middle" x="139" y="-231.5" font-family="Helvetica,sans-Serif" font-size="10.00">operators</text>
</a>
</g>
</g>
<!-- dir_1dfcd743a89af48c1ad7b4e490ecc755&#45;&gt;dir_6873a2afc4715a8a8ff813bcf2ca82fa -->
<g id="edge8" class="edge">
<title>dir_1dfcd743a89af48c1ad7b4e490ecc755&#45;&gt;dir_6873a2afc4715a8a8ff813bcf2ca82fa</title>
<path fill="none" stroke="black" d="M175.05,-359.87C168.04,-335.56 155.12,-290.82 146.8,-262.01"/>
<polygon fill="black" stroke="black" points="150.1,-260.83 143.96,-252.19 143.37,-262.77 150.1,-260.83"/>
<g id="a_edge8&#45;headlabel"><a xlink:href="dir_000515_000516.xhtml" target="_top" xlink:title="1">
<text text-anchor="middle" x="153.82" y="-260.99" font-family="Helvetica,sans-Serif" font-size="10.00">1</text>
</a>
</g>
</g>
<!-- dir_cf895c1ed808af158264b2f3d8d7f8f0 -->
<g id="node3" class="node">
<title>dir_cf895c1ed808af158264b2f3d8d7f8f0</title>
<g id="a_node3"><a xlink:href="dir_cf895c1ed808af158264b2f3d8d7f8f0.xhtml" target="_top" xlink:title="gpu">
<polygon fill="white" stroke="red" points="230,-180 176,-180 176,-144 230,-144 230,-180"/>
<text text-anchor="middle" x="203" y="-159.5" font-family="Helvetica,sans-Serif" font-size="10.00">gpu</text>
</a>
</g>
</g>
<!-- dir_1dfcd743a89af48c1ad7b4e490ecc755&#45;&gt;dir_cf895c1ed808af158264b2f3d8d7f8f0 -->
<g id="edge9" class="edge">
<title>dir_1dfcd743a89af48c1ad7b4e490ecc755&#45;&gt;dir_cf895c1ed808af158264b2f3d8d7f8f0</title>
<path fill="none" stroke="black" d="M181.84,-359.85C185.82,-322.83 195.24,-235.18 200.06,-190.39"/>
<polygon fill="black" stroke="black" points="203.56,-190.55 201.15,-180.23 196.6,-189.8 203.56,-190.55"/>
<g id="a_edge9&#45;headlabel"><a xlink:href="dir_000515_000004.xhtml" target="_top" xlink:title="1">
<text text-anchor="middle" x="206" y="-191.93" font-family="Helvetica,sans-Serif" font-size="10.00">1</text>
</a>
</g>
</g>
<!-- dir_8824b015e2d84b32c32abeb682f6ceb8 -->
<g id="node4" class="node">
<title>dir_8824b015e2d84b32c32abeb682f6ceb8</title>
<g id="a_node4"><a xlink:href="dir_8824b015e2d84b32c32abeb682f6ceb8.xhtml" target="_top" xlink:title="utils">
<polygon fill="none" stroke="black" points="82,-180 28,-180 28,-144 82,-144 82,-180"/>
<text text-anchor="middle" x="55" y="-159.5" font-family="Helvetica,sans-Serif" font-size="10.00">utils</text>
</a>
</g>
</g>
<!-- dir_1dfcd743a89af48c1ad7b4e490ecc755&#45;&gt;dir_8824b015e2d84b32c32abeb682f6ceb8 -->
<g id="edge10" class="edge">
<title>dir_1dfcd743a89af48c1ad7b4e490ecc755&#45;&gt;dir_8824b015e2d84b32c32abeb682f6ceb8</title>
<path fill="none" stroke="black" d="M167.58,-359.65C150.83,-335.92 120.51,-291.75 98,-252 86.37,-231.46 74.82,-207.31 66.63,-189.35"/>
<polygon fill="black" stroke="black" points="69.75,-187.74 62.44,-180.07 63.37,-190.62 69.75,-187.74"/>
<g id="a_edge10&#45;headlabel"><a xlink:href="dir_000515_000034.xhtml" target="_top" xlink:title="1">
<text text-anchor="middle" x="73.81" y="-187.35" font-family="Helvetica,sans-Serif" font-size="10.00">1</text>
</a>
</g>
</g>
<!-- dir_214608ef36d61442cb2b0c1c4e9a7def -->
<g id="node5" class="node">
<title>dir_214608ef36d61442cb2b0c1c4e9a7def</title>
<g id="a_node5"><a xlink:href="dir_214608ef36d61442cb2b0c1c4e9a7def.xhtml" target="_top" xlink:title="arm_compute">
<polygon fill="white" stroke="red" points="171,-36 87,-36 87,0 171,0 171,-36"/>
<text text-anchor="middle" x="129" y="-15.5" font-family="Helvetica,sans-Serif" font-size="10.00">arm_compute</text>
</a>
</g>
</g>
<!-- dir_1dfcd743a89af48c1ad7b4e490ecc755&#45;&gt;dir_214608ef36d61442cb2b0c1c4e9a7def -->
<g id="edge11" class="edge">
<title>dir_1dfcd743a89af48c1ad7b4e490ecc755&#45;&gt;dir_214608ef36d61442cb2b0c1c4e9a7def</title>
<path fill="none" stroke="black" d="M152.66,-369.39C102.31,-353.52 0,-311.82 0,-235 0,-235 0,-235 0,-161 0,-107.81 50.2,-65.72 87.97,-41.58"/>
<polygon fill="black" stroke="black" points="90.12,-44.37 96.78,-36.13 86.44,-38.42 90.12,-44.37"/>
<g id="a_edge11&#45;headlabel"><a xlink:href="dir_000515_000000.xhtml" target="_top" xlink:title="28">
<text text-anchor="middle" x="88.56" y="-46.18" font-family="Helvetica,sans-Serif" font-size="10.00">28</text>
</a>
</g>
</g>
<!-- dir_aebb8dcc11953d78e620bbef0b9e2183 -->
<g id="node6" class="node">
<title>dir_aebb8dcc11953d78e620bbef0b9e2183</title>
<g id="a_node6"><a xlink:href="dir_aebb8dcc11953d78e620bbef0b9e2183.xhtml" target="_top" xlink:title="core">
<polygon fill="white" stroke="red" points="230,-108 176,-108 176,-72 230,-72 230,-108"/>
<text text-anchor="middle" x="203" y="-87.5" font-family="Helvetica,sans-Serif" font-size="10.00">core</text>
</a>
</g>
</g>
<!-- dir_1dfcd743a89af48c1ad7b4e490ecc755&#45;&gt;dir_aebb8dcc11953d78e620bbef0b9e2183 -->
<g id="edge12" class="edge">
<title>dir_1dfcd743a89af48c1ad7b4e490ecc755&#45;&gt;dir_aebb8dcc11953d78e620bbef0b9e2183</title>
<path fill="none" stroke="black" d="M207.15,-374.21C237.13,-369.51 284.07,-357.01 306,-324 335.64,-279.37 316.1,-234.24 259,-144 252.18,-133.22 242.67,-123.12 233.43,-114.69"/>
<polygon fill="black" stroke="black" points="235.62,-111.96 225.79,-108.02 231.02,-117.23 235.62,-111.96"/>
<g id="a_edge12&#45;headlabel"><a xlink:href="dir_000515_000017.xhtml" target="_top" xlink:title="10">
<text text-anchor="middle" x="240.2" y="-109.68" font-family="Helvetica,sans-Serif" font-size="10.00">10</text>
</a>
</g>
</g>
<!-- dir_41286eb82ab9bcc453374927cfc10252 -->
<g id="node7" class="node">
<title>dir_41286eb82ab9bcc453374927cfc10252</title>
<g id="a_node7"><a xlink:href="dir_41286eb82ab9bcc453374927cfc10252.xhtml" target="_top" xlink:title="ckw_driver">
<polygon fill="white" stroke="red" points="297,-324 227,-324 227,-288 297,-288 297,-324"/>
<text text-anchor="middle" x="262" y="-303.5" font-family="Helvetica,sans-Serif" font-size="10.00">ckw_driver</text>
</a>
</g>
</g>
<!-- dir_1dfcd743a89af48c1ad7b4e490ecc755&#45;&gt;dir_41286eb82ab9bcc453374927cfc10252 -->
<g id="edge13" class="edge">
<title>dir_1dfcd743a89af48c1ad7b4e490ecc755&#45;&gt;dir_41286eb82ab9bcc453374927cfc10252</title>
<path fill="none" stroke="black" d="M200.27,-359.7C210.5,-350.97 223.06,-340.24 234.18,-330.75"/>
<polygon fill="black" stroke="black" points="236.63,-333.26 241.96,-324.1 232.09,-327.94 236.63,-333.26"/>
<g id="a_edge13&#45;headlabel"><a xlink:href="dir_000515_000509.xhtml" target="_top" xlink:title="9">
<text text-anchor="middle" x="235.74" y="-335.25" font-family="Helvetica,sans-Serif" font-size="10.00">9</text>
</a>
</g>
</g>
<!-- dir_6873a2afc4715a8a8ff813bcf2ca82fa&#45;&gt;dir_cf895c1ed808af158264b2f3d8d7f8f0 -->
<g id="edge1" class="edge">
<title>dir_6873a2afc4715a8a8ff813bcf2ca82fa&#45;&gt;dir_cf895c1ed808af158264b2f3d8d7f8f0</title>
<path fill="none" stroke="black" d="M154.82,-215.7C162.57,-207.22 172.04,-196.86 180.52,-187.58"/>
<polygon fill="black" stroke="black" points="183.2,-189.85 187.36,-180.1 178.03,-185.12 183.2,-189.85"/>
<g id="a_edge1&#45;headlabel"><a xlink:href="dir_000516_000004.xhtml" target="_top" xlink:title="2">
<text text-anchor="middle" x="182.87" y="-191.92" font-family="Helvetica,sans-Serif" font-size="10.00">2</text>
</a>
</g>
</g>
<!-- dir_6873a2afc4715a8a8ff813bcf2ca82fa&#45;&gt;dir_8824b015e2d84b32c32abeb682f6ceb8 -->
<g id="edge2" class="edge">
<title>dir_6873a2afc4715a8a8ff813bcf2ca82fa&#45;&gt;dir_8824b015e2d84b32c32abeb682f6ceb8</title>
<path fill="none" stroke="black" d="M118.24,-215.7C107.76,-206.97 94.89,-196.24 83.5,-186.75"/>
<polygon fill="black" stroke="black" points="85.45,-183.82 75.53,-180.1 80.97,-189.19 85.45,-183.82"/>
<g id="a_edge2&#45;headlabel"><a xlink:href="dir_000516_000034.xhtml" target="_top" xlink:title="2">
<text text-anchor="middle" x="90.03" y="-181.44" font-family="Helvetica,sans-Serif" font-size="10.00">2</text>
</a>
</g>
</g>
<!-- dir_6873a2afc4715a8a8ff813bcf2ca82fa&#45;&gt;dir_214608ef36d61442cb2b0c1c4e9a7def -->
<g id="edge3" class="edge">
<title>dir_6873a2afc4715a8a8ff813bcf2ca82fa&#45;&gt;dir_214608ef36d61442cb2b0c1c4e9a7def</title>
<path fill="none" stroke="black" d="M138.2,-215.85C136.47,-178.83 132.37,-91.18 130.28,-46.39"/>
<polygon fill="black" stroke="black" points="133.77,-46.06 129.81,-36.23 126.78,-46.38 133.77,-46.06"/>
<g id="a_edge3&#45;headlabel"><a xlink:href="dir_000516_000000.xhtml" target="_top" xlink:title="43">
<text text-anchor="middle" x="136.77" y="-47.02" font-family="Helvetica,sans-Serif" font-size="10.00">43</text>
</a>
</g>
</g>
<!-- dir_6873a2afc4715a8a8ff813bcf2ca82fa&#45;&gt;dir_aebb8dcc11953d78e620bbef0b9e2183 -->
<g id="edge4" class="edge">
<title>dir_6873a2afc4715a8a8ff813bcf2ca82fa&#45;&gt;dir_aebb8dcc11953d78e620bbef0b9e2183</title>
<path fill="none" stroke="black" d="M142.85,-215.71C147.29,-197.35 155.5,-167.77 167,-144 171.53,-134.64 177.56,-125.04 183.38,-116.63"/>
<polygon fill="black" stroke="black" points="186.33,-118.53 189.3,-108.36 180.63,-114.45 186.33,-118.53"/>
<g id="a_edge4&#45;headlabel"><a xlink:href="dir_000516_000017.xhtml" target="_top" xlink:title="13">
<text text-anchor="middle" x="186.54" y="-120.61" font-family="Helvetica,sans-Serif" font-size="10.00">13</text>
</a>
</g>
</g>
<!-- dir_cf895c1ed808af158264b2f3d8d7f8f0&#45;&gt;dir_214608ef36d61442cb2b0c1c4e9a7def -->
<g id="edge5" class="edge">
<title>dir_cf895c1ed808af158264b2f3d8d7f8f0&#45;&gt;dir_214608ef36d61442cb2b0c1c4e9a7def</title>
<path fill="none" stroke="black" d="M190.12,-143.87C182.83,-133.74 173.83,-120.49 167,-108 155.97,-87.82 145.87,-63.77 138.86,-45.76"/>
<polygon fill="black" stroke="black" points="142.04,-44.28 135.2,-36.19 135.5,-46.78 142.04,-44.28"/>
<g id="a_edge5&#45;headlabel"><a xlink:href="dir_000004_000000.xhtml" target="_top" xlink:title="638">
<text text-anchor="middle" x="145.98" y="-44.12" font-family="Helvetica,sans-Serif" font-size="10.00">638</text>
</a>
</g>
</g>
<!-- dir_cf895c1ed808af158264b2f3d8d7f8f0&#45;&gt;dir_aebb8dcc11953d78e620bbef0b9e2183 -->
<g id="edge6" class="edge">
<title>dir_cf895c1ed808af158264b2f3d8d7f8f0&#45;&gt;dir_aebb8dcc11953d78e620bbef0b9e2183</title>
<path fill="none" stroke="black" d="M197.08,-143.7C196.29,-135.98 196.06,-126.71 196.4,-118.11"/>
<polygon fill="black" stroke="black" points="199.9,-118.32 197.1,-108.1 192.92,-117.84 199.9,-118.32"/>
<g id="a_edge6&#45;headlabel"><a xlink:href="dir_000004_000017.xhtml" target="_top" xlink:title="236">
<text text-anchor="middle" x="202.48" y="-119.61" font-family="Helvetica,sans-Serif" font-size="10.00">236</text>
</a>
</g>
</g>
<!-- dir_8824b015e2d84b32c32abeb682f6ceb8&#45;&gt;dir_214608ef36d61442cb2b0c1c4e9a7def -->
<g id="edge7" class="edge">
<title>dir_8824b015e2d84b32c32abeb682f6ceb8&#45;&gt;dir_214608ef36d61442cb2b0c1c4e9a7def</title>
<path fill="none" stroke="black" d="M62.09,-143.96C69.82,-125.82 82.84,-96.41 96,-72 100.83,-63.03 106.57,-53.5 111.89,-45.03"/>
<polygon fill="black" stroke="black" points="115.01,-46.65 117.44,-36.34 109.11,-42.89 115.01,-46.65"/>
<g id="a_edge7&#45;headlabel"><a xlink:href="dir_000034_000000.xhtml" target="_top" xlink:title="2">
<text text-anchor="middle" x="115.47" y="-48.71" font-family="Helvetica,sans-Serif" font-size="10.00">2</text>
</a>
</g>
</g>
<!-- dir_aebb8dcc11953d78e620bbef0b9e2183&#45;&gt;dir_cf895c1ed808af158264b2f3d8d7f8f0 -->
<g id="edge14" class="edge">
<title>dir_aebb8dcc11953d78e620bbef0b9e2183&#45;&gt;dir_cf895c1ed808af158264b2f3d8d7f8f0</title>
<path fill="none" stroke="black" d="M208.9,-108.1C209.7,-115.79 209.94,-125.05 209.6,-133.67"/>
<polygon fill="black" stroke="black" points="206.11,-133.48 208.92,-143.7 213.09,-133.96 206.11,-133.48"/>
<g id="a_edge14&#45;headlabel"><a xlink:href="dir_000017_000004.xhtml" target="_top" xlink:title="4">
<text text-anchor="middle" x="203.52" y="-127.2" font-family="Helvetica,sans-Serif" font-size="10.00">4</text>
</a>
</g>
</g>
<!-- dir_aebb8dcc11953d78e620bbef0b9e2183&#45;&gt;dir_214608ef36d61442cb2b0c1c4e9a7def -->
<g id="edge15" class="edge">
<title>dir_aebb8dcc11953d78e620bbef0b9e2183&#45;&gt;dir_214608ef36d61442cb2b0c1c4e9a7def</title>
<path fill="none" stroke="black" d="M184.71,-71.7C175.57,-63.05 164.36,-52.45 154.4,-43.03"/>
<polygon fill="black" stroke="black" points="156.75,-40.43 147.08,-36.1 151.94,-45.52 156.75,-40.43"/>
<g id="a_edge15&#45;headlabel"><a xlink:href="dir_000017_000000.xhtml" target="_top" xlink:title="686">
<text text-anchor="middle" x="161.31" y="-38.34" font-family="Helvetica,sans-Serif" font-size="10.00">686</text>
</a>
</g>
</g>
<!-- dir_41286eb82ab9bcc453374927cfc10252&#45;&gt;dir_6873a2afc4715a8a8ff813bcf2ca82fa -->
<g id="edge16" class="edge">
<title>dir_41286eb82ab9bcc453374927cfc10252&#45;&gt;dir_6873a2afc4715a8a8ff813bcf2ca82fa</title>
<path fill="none" stroke="black" d="M231.91,-287.88C215.68,-278.64 195.46,-267.13 178.03,-257.21"/>
<polygon fill="black" stroke="black" points="179.63,-254.09 169.2,-252.19 176.16,-260.18 179.63,-254.09"/>
<g id="a_edge16&#45;headlabel"><a xlink:href="dir_000509_000516.xhtml" target="_top" xlink:title="2">
<text text-anchor="middle" x="184.16" y="-250.9" font-family="Helvetica,sans-Serif" font-size="10.00">2</text>
</a>
</g>
</g>
<!-- dir_41286eb82ab9bcc453374927cfc10252&#45;&gt;dir_214608ef36d61442cb2b0c1c4e9a7def -->
<g id="edge17" class="edge">
<title>dir_41286eb82ab9bcc453374927cfc10252&#45;&gt;dir_214608ef36d61442cb2b0c1c4e9a7def</title>
<path fill="none" stroke="black" d="M266.46,-287.95C268.94,-277.63 271.75,-264.15 273,-252 281.32,-171.01 291.22,-134.46 239,-72 223.97,-54.02 201.4,-41.68 180.61,-33.47"/>
<polygon fill="black" stroke="black" points="181.81,-30.18 171.22,-29.98 179.37,-36.75 181.81,-30.18"/>
<g id="a_edge17&#45;headlabel"><a xlink:href="dir_000509_000000.xhtml" target="_top" xlink:title="36">
<text text-anchor="middle" x="186.17" y="-26.27" font-family="Helvetica,sans-Serif" font-size="10.00">36</text>
</a>
</g>
</g>
<!-- dir_41286eb82ab9bcc453374927cfc10252&#45;&gt;dir_aebb8dcc11953d78e620bbef0b9e2183 -->
<g id="edge18" class="edge">
<title>dir_41286eb82ab9bcc453374927cfc10252&#45;&gt;dir_aebb8dcc11953d78e620bbef0b9e2183</title>
<path fill="none" stroke="black" d="M262.06,-287.92C261.62,-257.8 258.26,-193.77 239,-144 235.25,-134.3 229.43,-124.61 223.56,-116.23"/>
<polygon fill="black" stroke="black" points="226.26,-113.99 217.51,-108.01 220.62,-118.14 226.26,-113.99"/>
<g id="a_edge18&#45;headlabel"><a xlink:href="dir_000509_000017.xhtml" target="_top" xlink:title="18">
<text text-anchor="middle" x="230.67" y="-112.7" font-family="Helvetica,sans-Serif" font-size="10.00">18</text>
</a>
</g>
</g>
</g>
</svg>
