<?xml version="1.0" encoding="UTF-8" standalone="no"?>
<!DOCTYPE svg PUBLIC "-//W3C//DTD SVG 1.1//EN"
 "http://www.w3.org/Graphics/SVG/1.1/DTD/svg11.dtd">
<!-- Generated by graphviz version 2.43.0 (0)
 -->
<!-- Title: Graphical Class Hierarchy Pages: 1 -->
<svg width="449pt" height="66pt"
 viewBox="0.00 0.00 449.00 66.00" xmlns="http://www.w3.org/2000/svg" xmlns:xlink="http://www.w3.org/1999/xlink">
<g id="graph0" class="graph" transform="scale(1 1) rotate(0) translate(4 62)">
<title>Graphical Class Hierarchy</title>
<polygon fill="white" stroke="transparent" points="-4,4 -4,-62 445,-62 445,4 -4,4"/>
<!-- Node0 -->
<g id="node1" class="node">
<title>Node0</title>
<g id="a_node1"><a xlink:href="classarm__compute_1_1_i_lifetime_manager.xhtml" target="_top" xlink:title="Interface for managing the lifetime of objects.">
<polygon fill="white" stroke="black" points="0,-19.5 0,-38.5 103,-38.5 103,-19.5 0,-19.5"/>
<text text-anchor="middle" x="51.5" y="-26.5" font-family="Helvetica,sans-Serif" font-size="10.00">ILifetimeManager</text>
</a>
</g>
</g>
<!-- Node1 -->
<g id="node2" class="node">
<title>Node1</title>
<g id="a_node2"><a xlink:href="classarm__compute_1_1_i_simple_lifetime_manager.xhtml" target="_top" xlink:title="Abstract class of the simple lifetime manager interface.">
<polygon fill="white" stroke="black" points="139,-19.5 139,-38.5 276,-38.5 276,-19.5 139,-19.5"/>
<text text-anchor="middle" x="207.5" y="-26.5" font-family="Helvetica,sans-Serif" font-size="10.00">ISimpleLifetimeManager</text>
</a>
</g>
</g>
<!-- Node0&#45;&gt;Node1 -->
<g id="edge1" class="edge">
<title>Node0&#45;&gt;Node1</title>
<path fill="none" stroke="midnightblue" d="M113.42,-29C121.8,-29 130.45,-29 138.94,-29"/>
<polygon fill="midnightblue" stroke="midnightblue" points="113.35,-25.5 103.35,-29 113.35,-32.5 113.35,-25.5"/>
</g>
<!-- Node2 -->
<g id="node3" class="node">
<title>Node2</title>
<g id="a_node3"><a xlink:href="classarm__compute_1_1_blob_lifetime_manager.xhtml" target="_top" xlink:title="Concrete class that tracks the lifetime of registered tensors and calculates the systems memory requi...">
<polygon fill="white" stroke="black" points="315.5,-38.5 315.5,-57.5 437.5,-57.5 437.5,-38.5 315.5,-38.5"/>
<text text-anchor="middle" x="376.5" y="-45.5" font-family="Helvetica,sans-Serif" font-size="10.00">BlobLifetimeManager</text>
</a>
</g>
</g>
<!-- Node1&#45;&gt;Node2 -->
<g id="edge2" class="edge">
<title>Node1&#45;&gt;Node2</title>
<path fill="none" stroke="midnightblue" d="M286.49,-37.87C296.21,-38.98 306.03,-40.1 315.42,-41.16"/>
<polygon fill="midnightblue" stroke="midnightblue" points="286.76,-34.38 276.43,-36.73 285.97,-41.34 286.76,-34.38"/>
</g>
<!-- Node3 -->
<g id="node4" class="node">
<title>Node3</title>
<g id="a_node4"><a xlink:href="classarm__compute_1_1_offset_lifetime_manager.xhtml" target="_top" xlink:title="Concrete class that tracks the lifetime of registered tensors and calculates the systems memory requi...">
<polygon fill="white" stroke="black" points="312,-0.5 312,-19.5 441,-19.5 441,-0.5 312,-0.5"/>
<text text-anchor="middle" x="376.5" y="-7.5" font-family="Helvetica,sans-Serif" font-size="10.00">OffsetLifetimeManager</text>
</a>
</g>
</g>
<!-- Node1&#45;&gt;Node3 -->
<g id="edge3" class="edge">
<title>Node1&#45;&gt;Node3</title>
<path fill="none" stroke="midnightblue" d="M286.41,-20.14C294.96,-19.16 303.6,-18.18 311.95,-17.23"/>
<polygon fill="midnightblue" stroke="midnightblue" points="285.97,-16.66 276.43,-21.27 286.76,-23.62 285.97,-16.66"/>
</g>
</g>
</svg>
