<?xml version="1.0" encoding="UTF-8" standalone="no"?>
<!DOCTYPE svg PUBLIC "-//W3C//DTD SVG 1.1//EN"
 "http://www.w3.org/Graphics/SVG/1.1/DTD/svg11.dtd">
<!-- Generated by graphviz version 2.43.0 (0)
 -->
<!-- Title: Graphical Class Hierarchy Pages: 1 -->
<svg width="199pt" height="66pt"
 viewBox="0.00 0.00 199.00 66.00" xmlns="http://www.w3.org/2000/svg" xmlns:xlink="http://www.w3.org/1999/xlink">
<g id="graph0" class="graph" transform="scale(1 1) rotate(0) translate(4 62)">
<title>Graphical Class Hierarchy</title>
<polygon fill="white" stroke="transparent" points="-4,4 -4,-62 195,-62 195,4 -4,4"/>
<!-- Node0 -->
<g id="node1" class="node">
<title>Node0</title>
<g id="a_node1"><a xlink:href="classarm__compute_1_1utils_1_1_i_image_loader.xhtml" target="_top" xlink:title="Image loader interface.">
<polygon fill="white" stroke="black" points="0,-19.5 0,-38.5 83,-38.5 83,-19.5 0,-19.5"/>
<text text-anchor="middle" x="41.5" y="-26.5" font-family="Helvetica,sans-Serif" font-size="10.00">IImageLoader</text>
</a>
</g>
</g>
<!-- Node1 -->
<g id="node2" class="node">
<title>Node1</title>
<g id="a_node2"><a xlink:href="classarm__compute_1_1utils_1_1_j_p_e_g_loader.xhtml" target="_top" xlink:title="Class to load the content of a JPEG file into an Image.">
<polygon fill="white" stroke="black" points="119,-38.5 119,-57.5 191,-57.5 191,-38.5 119,-38.5"/>
<text text-anchor="middle" x="155" y="-45.5" font-family="Helvetica,sans-Serif" font-size="10.00">JPEGLoader</text>
</a>
</g>
</g>
<!-- Node0&#45;&gt;Node1 -->
<g id="edge1" class="edge">
<title>Node0&#45;&gt;Node1</title>
<path fill="none" stroke="midnightblue" d="M93.13,-37.63C101.8,-39.1 110.64,-40.61 118.8,-42"/>
<polygon fill="midnightblue" stroke="midnightblue" points="93.52,-34.14 83.07,-35.91 92.34,-41.04 93.52,-34.14"/>
</g>
<!-- Node2 -->
<g id="node3" class="node">
<title>Node2</title>
<g id="a_node3"><a xlink:href="classarm__compute_1_1utils_1_1_p_p_m_loader.xhtml" target="_top" xlink:title="PPM Image loader concrete implementation.">
<polygon fill="white" stroke="black" points="119.5,-0.5 119.5,-19.5 190.5,-19.5 190.5,-0.5 119.5,-0.5"/>
<text text-anchor="middle" x="155" y="-7.5" font-family="Helvetica,sans-Serif" font-size="10.00">PPMLoader</text>
</a>
</g>
</g>
<!-- Node0&#45;&gt;Node2 -->
<g id="edge2" class="edge">
<title>Node0&#45;&gt;Node2</title>
<path fill="none" stroke="midnightblue" d="M92.95,-20.4C101.81,-18.89 110.85,-17.35 119.16,-15.94"/>
<polygon fill="midnightblue" stroke="midnightblue" points="92.34,-16.96 83.07,-22.09 93.52,-23.86 92.34,-16.96"/>
</g>
</g>
</svg>
