<?xml version="1.0" encoding="UTF-8" standalone="no"?>
<!DOCTYPE svg PUBLIC "-//W3C//DTD SVG 1.1//EN"
 "http://www.w3.org/Graphics/SVG/1.1/DTD/svg11.dtd">
<!-- Generated by graphviz version 2.43.0 (0)
 -->
<!-- Title: CLQuantization Pages: 1 -->
<svg width="99pt" height="163pt"
 viewBox="0.00 0.00 99.00 163.00" xmlns="http://www.w3.org/2000/svg" xmlns:xlink="http://www.w3.org/1999/xlink">
<g id="graph0" class="graph" transform="scale(1 1) rotate(0) translate(4 159)">
<title>CLQuantization</title>
<polygon fill="white" stroke="transparent" points="-4,4 -4,-159 95,-159 95,4 -4,4"/>
<!-- Node1 -->
<g id="node1" class="node">
<title>Node1</title>
<g id="a_node1"><a xlink:title="OpenCL quantization data.">
<polygon fill="#bfbfbf" stroke="black" points="0,-0.5 0,-19.5 91,-19.5 91,-0.5 0,-0.5"/>
<text text-anchor="middle" x="45.5" y="-7.5" font-family="Helvetica,sans-Serif" font-size="10.00">CLQuantization</text>
</a>
</g>
</g>
<!-- Node2 -->
<g id="node2" class="node">
<title>Node2</title>
<g id="a_node2"><a xlink:href="classarm__compute_1_1_i_c_l_array.xhtml" target="_top" xlink:title="Interface for OpenCL Array.">
<polygon fill="white" stroke="black" points="2,-78.5 2,-97.5 89,-97.5 89,-78.5 2,-78.5"/>
<text text-anchor="middle" x="45.5" y="-85.5" font-family="Helvetica,sans-Serif" font-size="10.00">ICLArray&lt; T &gt;</text>
</a>
</g>
</g>
<!-- Node2&#45;&gt;Node1 -->
<g id="edge1" class="edge">
<title>Node2&#45;&gt;Node1</title>
<path fill="none" stroke="#9a32cd" stroke-dasharray="5,2" d="M45.5,-68.22C45.5,-52.7 45.5,-31.36 45.5,-19.62"/>
<polygon fill="#9a32cd" stroke="#9a32cd" points="42,-68.28 45.5,-78.28 49,-68.28 42,-68.28"/>
<text text-anchor="middle" x="61" y="-52" font-family="Helvetica,sans-Serif" font-size="10.00"> offset</text>
<text text-anchor="middle" x="61" y="-41" font-family="Helvetica,sans-Serif" font-size="10.00">scale</text>
</g>
<!-- Node3 -->
<g id="node3" class="node">
<title>Node3</title>
<g id="a_node3"><a xlink:href="classarm__compute_1_1_i_array.xhtml" target="_top" xlink:title="Array of type T.">
<polygon fill="white" stroke="black" points="8.5,-135.5 8.5,-154.5 82.5,-154.5 82.5,-135.5 8.5,-135.5"/>
<text text-anchor="middle" x="45.5" y="-142.5" font-family="Helvetica,sans-Serif" font-size="10.00">IArray&lt; T &gt;</text>
</a>
</g>
</g>
<!-- Node3&#45;&gt;Node2 -->
<g id="edge2" class="edge">
<title>Node3&#45;&gt;Node2</title>
<path fill="none" stroke="midnightblue" d="M45.5,-125.12C45.5,-115.82 45.5,-105.06 45.5,-97.71"/>
<polygon fill="midnightblue" stroke="midnightblue" points="42,-125.41 45.5,-135.41 49,-125.41 42,-125.41"/>
</g>
</g>
</svg>
