<?xml version="1.0" encoding="UTF-8" standalone="no"?>
<!DOCTYPE svg PUBLIC "-//W3C//DTD SVG 1.1//EN"
 "http://www.w3.org/Graphics/SVG/1.1/DTD/svg11.dtd">
<!-- Generated by graphviz version 2.43.0 (0)
 -->
<!-- Title: EltwiseLayerDescriptor Pages: 1 -->
<svg width="251pt" height="95pt"
 viewBox="0.00 0.00 251.00 95.00" xmlns="http://www.w3.org/2000/svg" xmlns:xlink="http://www.w3.org/1999/xlink">
<g id="graph0" class="graph" transform="scale(1 1) rotate(0) translate(4 91)">
<title>EltwiseLayerDescriptor</title>
<polygon fill="white" stroke="transparent" points="-4,4 -4,-91 247,-91 247,4 -4,4"/>
<!-- Node1 -->
<g id="node1" class="node">
<title>Node1</title>
<g id="a_node1"><a xlink:title="Elementwise layer descriptor.">
<polygon fill="#bfbfbf" stroke="black" points="45.5,-0.5 45.5,-19.5 174.5,-19.5 174.5,-0.5 45.5,-0.5"/>
<text text-anchor="middle" x="110" y="-7.5" font-family="Helvetica,sans-Serif" font-size="10.00">EltwiseLayerDescriptor</text>
</a>
</g>
</g>
<!-- Node2 -->
<g id="node2" class="node">
<title>Node2</title>
<g id="a_node2"><a xlink:href="classarm__compute_1_1_quantization_info.xhtml" target="_top" xlink:title="Quantization information.">
<polygon fill="white" stroke="black" points="0,-67.5 0,-86.5 98,-86.5 98,-67.5 0,-67.5"/>
<text text-anchor="middle" x="49" y="-74.5" font-family="Helvetica,sans-Serif" font-size="10.00">QuantizationInfo</text>
</a>
</g>
</g>
<!-- Node2&#45;&gt;Node1 -->
<g id="edge1" class="edge">
<title>Node2&#45;&gt;Node1</title>
<path fill="none" stroke="#9a32cd" stroke-dasharray="5,2" d="M58.93,-58.2C63.11,-51.49 68.33,-44.03 74,-38 80.64,-30.94 89.29,-24.39 96.45,-19.5"/>
<polygon fill="#9a32cd" stroke="#9a32cd" points="55.66,-56.85 53.6,-67.24 61.69,-60.4 55.66,-56.85"/>
<text text-anchor="middle" x="112" y="-41" font-family="Helvetica,sans-Serif" font-size="10.00"> out_quant_info</text>
</g>
<!-- Node3 -->
<g id="node3" class="node">
<title>Node3</title>
<g id="a_node3"><a xlink:href="classarm__compute_1_1_activation_layer_info.xhtml" target="_top" xlink:title="Activation Layer Information class.">
<polygon fill="white" stroke="black" points="116,-67.5 116,-86.5 228,-86.5 228,-67.5 116,-67.5"/>
<text text-anchor="middle" x="172" y="-74.5" font-family="Helvetica,sans-Serif" font-size="10.00">ActivationLayerInfo</text>
</a>
</g>
</g>
<!-- Node3&#45;&gt;Node1 -->
<g id="edge2" class="edge">
<title>Node3&#45;&gt;Node1</title>
<path fill="none" stroke="#9a32cd" stroke-dasharray="5,2" d="M163.89,-58.26C160.25,-51.46 155.52,-43.92 150,-38 143.14,-30.65 133.92,-24.26 126.06,-19.54"/>
<polygon fill="#9a32cd" stroke="#9a32cd" points="160.85,-60.01 168.41,-67.43 167.12,-56.91 160.85,-60.01"/>
<text text-anchor="middle" x="200.5" y="-41" font-family="Helvetica,sans-Serif" font-size="10.00"> fused_activation</text>
</g>
</g>
</svg>
