<?xml version="1.0" encoding="UTF-8" standalone="no"?>
<!DOCTYPE svg PUBLIC "-//W3C//DTD SVG 1.1//EN"
 "http://www.w3.org/Graphics/SVG/1.1/DTD/svg11.dtd">
<!-- Generated by graphviz version 2.38.0 (20140413.2041)
 -->
<!-- Title: CLSubTensor Pages: 1 -->
<svg width="85pt" height="140pt"
 viewBox="0.00 0.00 85.00 140.00" xmlns="http://www.w3.org/2000/svg" xmlns:xlink="http://www.w3.org/1999/xlink">
<g id="graph0" class="graph" transform="scale(1 1) rotate(0) translate(4 136)">
<title>CLSubTensor</title>
<polygon fill="white" stroke="none" points="-4,4 -4,-136 81,-136 81,4 -4,4"/>
<!-- Node1 -->
<g id="node1" class="node"><title>Node1</title>
<polygon fill="#bfbfbf" stroke="black" points="0,-0.5 0,-19.5 77,-19.5 77,-0.5 0,-0.5"/>
<text text-anchor="middle" x="38.5" y="-7.5" font-family="Helvetica,sans-Serif" font-size="10.00">CLSubTensor</text>
</g>
<!-- Node2 -->
<g id="node2" class="node"><title>Node2</title>
<g id="a_node2"><a xlink:href="classarm__compute_1_1_i_c_l_tensor.xhtml" target="_top" xlink:title="Interface for OpenCL tensor. ">
<polygon fill="white" stroke="black" points="7.5,-56.5 7.5,-75.5 69.5,-75.5 69.5,-56.5 7.5,-56.5"/>
<text text-anchor="middle" x="38.5" y="-63.5" font-family="Helvetica,sans-Serif" font-size="10.00">ICLTensor</text>
</a>
</g>
</g>
<!-- Node2&#45;&gt;Node1 -->
<g id="edge1" class="edge"><title>Node2&#45;&gt;Node1</title>
<path fill="none" stroke="midnightblue" d="M38.5,-45.8045C38.5,-36.9102 38.5,-26.7798 38.5,-19.7511"/>
<polygon fill="midnightblue" stroke="midnightblue" points="35.0001,-46.083 38.5,-56.083 42.0001,-46.083 35.0001,-46.083"/>
</g>
<!-- Node3 -->
<g id="node3" class="node"><title>Node3</title>
<g id="a_node3"><a xlink:href="classarm__compute_1_1_i_tensor.xhtml" target="_top" xlink:title="Interface for NEON tensor. ">
<polygon fill="white" stroke="black" points="13.5,-112.5 13.5,-131.5 63.5,-131.5 63.5,-112.5 13.5,-112.5"/>
<text text-anchor="middle" x="38.5" y="-119.5" font-family="Helvetica,sans-Serif" font-size="10.00">ITensor</text>
</a>
</g>
</g>
<!-- Node3&#45;&gt;Node2 -->
<g id="edge2" class="edge"><title>Node3&#45;&gt;Node2</title>
<path fill="none" stroke="midnightblue" d="M38.5,-101.805C38.5,-92.9102 38.5,-82.7798 38.5,-75.7511"/>
<polygon fill="midnightblue" stroke="midnightblue" points="35.0001,-102.083 38.5,-112.083 42.0001,-102.083 35.0001,-102.083"/>
</g>
</g>
</svg>
