<?xml version="1.0" encoding="UTF-8" standalone="no"?>
<!DOCTYPE svg PUBLIC "-//W3C//DTD SVG 1.1//EN"
 "http://www.w3.org/Graphics/SVG/1.1/DTD/svg11.dtd">
<!-- Generated by graphviz version 2.38.0 (20140413.2041)
 -->
<!-- Title: CLLocallyConnectedLayerWeightsReshapeKernel Pages: 1 -->
<svg width="175pt" height="207pt"
 viewBox="0.00 0.00 175.00 207.00" xmlns="http://www.w3.org/2000/svg" xmlns:xlink="http://www.w3.org/1999/xlink">
<g id="graph0" class="graph" transform="scale(1 1) rotate(0) translate(4 203)">
<title>CLLocallyConnectedLayerWeightsReshapeKernel</title>
<polygon fill="white" stroke="none" points="-4,4 -4,-203 171,-203 171,4 -4,4"/>
<!-- Node1 -->
<g id="node1" class="node"><title>Node1</title>
<polygon fill="#bfbfbf" stroke="black" points="-1.42109e-14,-0.5 -1.42109e-14,-30.5 167,-30.5 167,-0.5 -1.42109e-14,-0.5"/>
<text text-anchor="start" x="8" y="-18.5" font-family="Helvetica,sans-Serif" font-size="10.00">CLLocallyConnectedLayerWeights</text>
<text text-anchor="middle" x="83.5" y="-7.5" font-family="Helvetica,sans-Serif" font-size="10.00">ReshapeKernel</text>
</g>
<!-- Node2 -->
<g id="node2" class="node"><title>Node2</title>
<g id="a_node2"><a xlink:href="classarm__compute_1_1_c_l_weights_reshape_kernel.xhtml" target="_top" xlink:title="CLWeightsReshapeKernel">
<polygon fill="white" stroke="black" points="17.5,-67.5 17.5,-86.5 149.5,-86.5 149.5,-67.5 17.5,-67.5"/>
<text text-anchor="middle" x="83.5" y="-74.5" font-family="Helvetica,sans-Serif" font-size="10.00">CLWeightsReshapeKernel</text>
</a>
</g>
</g>
<!-- Node2&#45;&gt;Node1 -->
<g id="edge1" class="edge"><title>Node2&#45;&gt;Node1</title>
<path fill="none" stroke="midnightblue" d="M83.5,-57.2349C83.5,-48.5864 83.5,-38.4969 83.5,-30.523"/>
<polygon fill="midnightblue" stroke="midnightblue" points="80.0001,-57.4751 83.5,-67.4751 87.0001,-57.4751 80.0001,-57.4751"/>
</g>
<!-- Node3 -->
<g id="node3" class="node"><title>Node3</title>
<g id="a_node3"><a xlink:href="classarm__compute_1_1_i_c_l_kernel.xhtml" target="_top" xlink:title="Common interface for all the OpenCL kernels. ">
<polygon fill="white" stroke="black" points="53.5,-123.5 53.5,-142.5 113.5,-142.5 113.5,-123.5 53.5,-123.5"/>
<text text-anchor="middle" x="83.5" y="-130.5" font-family="Helvetica,sans-Serif" font-size="10.00">ICLKernel</text>
</a>
</g>
</g>
<!-- Node3&#45;&gt;Node2 -->
<g id="edge2" class="edge"><title>Node3&#45;&gt;Node2</title>
<path fill="none" stroke="midnightblue" d="M83.5,-112.805C83.5,-103.91 83.5,-93.7798 83.5,-86.7511"/>
<polygon fill="midnightblue" stroke="midnightblue" points="80.0001,-113.083 83.5,-123.083 87.0001,-113.083 80.0001,-113.083"/>
</g>
<!-- Node4 -->
<g id="node4" class="node"><title>Node4</title>
<g id="a_node4"><a xlink:href="classarm__compute_1_1_i_kernel.xhtml" target="_top" xlink:title="Common information for all the kernels. ">
<polygon fill="white" stroke="black" points="60,-179.5 60,-198.5 107,-198.5 107,-179.5 60,-179.5"/>
<text text-anchor="middle" x="83.5" y="-186.5" font-family="Helvetica,sans-Serif" font-size="10.00">IKernel</text>
</a>
</g>
</g>
<!-- Node4&#45;&gt;Node3 -->
<g id="edge3" class="edge"><title>Node4&#45;&gt;Node3</title>
<path fill="none" stroke="midnightblue" d="M83.5,-168.805C83.5,-159.91 83.5,-149.78 83.5,-142.751"/>
<polygon fill="midnightblue" stroke="midnightblue" points="80.0001,-169.083 83.5,-179.083 87.0001,-169.083 80.0001,-169.083"/>
</g>
</g>
</svg>
