<?xml version="1.0" encoding="UTF-8" standalone="no"?>
<!DOCTYPE svg PUBLIC "-//W3C//DTD SVG 1.1//EN"
 "http://www.w3.org/Graphics/SVG/1.1/DTD/svg11.dtd">
<!-- Generated by graphviz version 2.38.0 (20140413.2041)
 -->
<!-- Title: tests/benchmark Pages: 1 -->
<svg width="622pt" height="303pt"
 viewBox="0.00 0.00 622.00 303.00" xmlns="http://www.w3.org/2000/svg" xmlns:xlink="http://www.w3.org/1999/xlink">
<g id="graph0" class="graph" transform="scale(1 1) rotate(0) translate(4 299)">
<title>tests/benchmark</title>
<polygon fill="white" stroke="none" points="-4,4 -4,-299 618,-299 618,4 -4,4"/>
<g id="clust1" class="cluster"><title>clusterdir_59425e443f801f1f2fd8bbe4959a3ccf</title>
<g id="a_clust1"><a xlink:href="dir_59425e443f801f1f2fd8bbe4959a3ccf.xhtml" target="_top" xlink:title="tests">
<polygon fill="#ddddee" stroke="black" points="8,-128 8,-287 344,-287 344,-128 8,-128"/>
<text text-anchor="middle" x="176" y="-275" font-family="Helvetica,sans-Serif" font-size="10.00">tests</text>
</a>
</g>
</g>
<g id="clust2" class="cluster"><title>clusterdir_4f2df8950dc650bf7cf9176fae02facc</title>
<g id="a_clust2"><a xlink:href="dir_4f2df8950dc650bf7cf9176fae02facc.xhtml" target="_top">
<polygon fill="#eeeeff" stroke="black" points="16,-136 16,-260 336,-260 336,-136 16,-136"/>
</a>
</g>
</g>
<!-- dir_4f2df8950dc650bf7cf9176fae02facc -->
<g id="node1" class="node"><title>dir_4f2df8950dc650bf7cf9176fae02facc</title>
<text text-anchor="middle" x="57" y="-231.5" font-family="Helvetica,sans-Serif" font-size="10.00">benchmark</text>
</g>
<!-- dir_f482a42326943e614a2ec303fd116962 -->
<g id="node8" class="node"><title>dir_f482a42326943e614a2ec303fd116962</title>
<g id="a_node8"><a xlink:href="dir_f482a42326943e614a2ec303fd116962.xhtml" target="_top" xlink:title="dataset">
<polygon fill="none" stroke="black" points="192,-108 138,-108 138,-72 192,-72 192,-108"/>
<text text-anchor="middle" x="165" y="-87.5" font-family="Helvetica,sans-Serif" font-size="10.00">dataset</text>
</a>
</g>
</g>
<!-- dir_4f2df8950dc650bf7cf9176fae02facc&#45;&gt;dir_f482a42326943e614a2ec303fd116962 -->
<g id="edge16" class="edge"><title>dir_4f2df8950dc650bf7cf9176fae02facc&#45;&gt;dir_f482a42326943e614a2ec303fd116962</title>
<path fill="none" stroke="black" d="M81.8153,-215.875C94.3592,-206.348 109.175,-193.671 120,-180 135.033,-161.015 147.072,-136.209 154.901,-117.61"/>
<polygon fill="black" stroke="black" points="158.181,-118.834 158.707,-108.252 151.697,-116.197 158.181,-118.834"/>
<g id="a_edge16&#45;headlabel"><a xlink:href="dir_000023_000037.xhtml" target="_top" xlink:title="19">
<text text-anchor="middle" x="159.457" y="-120.734" font-family="Helvetica,sans-Serif" font-size="10.00">19</text>
</a>
</g>
</g>
<!-- dir_214608ef36d61442cb2b0c1c4e9a7def -->
<g id="node9" class="node"><title>dir_214608ef36d61442cb2b0c1c4e9a7def</title>
<g id="a_node9"><a xlink:href="dir_214608ef36d61442cb2b0c1c4e9a7def.xhtml" target="_top" xlink:title="arm_compute">
<polygon fill="white" stroke="red" points="334,-36 258,-36 258,-0 334,-0 334,-36"/>
<text text-anchor="middle" x="296" y="-15.5" font-family="Helvetica,sans-Serif" font-size="10.00">arm_compute</text>
</a>
</g>
</g>
<!-- dir_4f2df8950dc650bf7cf9176fae02facc&#45;&gt;dir_214608ef36d61442cb2b0c1c4e9a7def -->
<g id="edge17" class="edge"><title>dir_4f2df8950dc650bf7cf9176fae02facc&#45;&gt;dir_214608ef36d61442cb2b0c1c4e9a7def</title>
<path fill="none" stroke="black" d="M67.6492,-215.671C73.699,-205.477 81.199,-192.227 87,-180 109.076,-133.469 91.4436,-107.241 129,-72 161.339,-41.6541 211.008,-28.6827 247.779,-23.1383"/>
<polygon fill="black" stroke="black" points="248.353,-26.5924 257.783,-21.7632 247.399,-19.6576 248.353,-26.5924"/>
<g id="a_edge17&#45;headlabel"><a xlink:href="dir_000023_000000.xhtml" target="_top" xlink:title="125">
<text text-anchor="middle" x="245.178" y="-27.3947" font-family="Helvetica,sans-Serif" font-size="10.00">125</text>
</a>
</g>
</g>
<!-- dir_4da487531dc5bdc76b523c9e82b781b1 -->
<g id="node2" class="node"><title>dir_4da487531dc5bdc76b523c9e82b781b1</title>
<g id="a_node2"><a xlink:href="dir_4da487531dc5bdc76b523c9e82b781b1.xhtml" target="_top" xlink:title="CL">
<polygon fill="white" stroke="black" points="162,-252 108,-252 108,-216 162,-216 162,-252"/>
<text text-anchor="middle" x="135" y="-231.5" font-family="Helvetica,sans-Serif" font-size="10.00">CL</text>
</a>
</g>
</g>
<!-- dir_e384de53230b0fb8812f7ca98fdb0e65 -->
<g id="node3" class="node"><title>dir_e384de53230b0fb8812f7ca98fdb0e65</title>
<g id="a_node3"><a xlink:href="dir_e384de53230b0fb8812f7ca98fdb0e65.xhtml" target="_top" xlink:title="common">
<polygon fill="white" stroke="black" points="78,-180 24,-180 24,-144 78,-144 78,-180"/>
<text text-anchor="middle" x="51" y="-159.5" font-family="Helvetica,sans-Serif" font-size="10.00">common</text>
</a>
</g>
</g>
<!-- dir_4da487531dc5bdc76b523c9e82b781b1&#45;&gt;dir_e384de53230b0fb8812f7ca98fdb0e65 -->
<g id="edge1" class="edge"><title>dir_4da487531dc5bdc76b523c9e82b781b1&#45;&gt;dir_e384de53230b0fb8812f7ca98fdb0e65</title>
<path fill="none" stroke="black" d="M114.236,-215.697C103.759,-206.965 90.8886,-196.24 79.5003,-186.75"/>
<polygon fill="black" stroke="black" points="81.4481,-183.817 71.5252,-180.104 76.9668,-189.195 81.4481,-183.817"/>
<g id="a_edge1&#45;headlabel"><a xlink:href="dir_000024_000029.xhtml" target="_top" xlink:title="5">
<text text-anchor="middle" x="86.0272" y="-181.437" font-family="Helvetica,sans-Serif" font-size="10.00">5</text>
</a>
</g>
</g>
<!-- dir_4da487531dc5bdc76b523c9e82b781b1&#45;&gt;dir_f482a42326943e614a2ec303fd116962 -->
<g id="edge2" class="edge"><title>dir_4da487531dc5bdc76b523c9e82b781b1&#45;&gt;dir_f482a42326943e614a2ec303fd116962</title>
<path fill="none" stroke="black" d="M144.174,-215.844C149.149,-205.709 154.899,-192.459 158,-180 163.023,-159.823 164.703,-136.351 165.166,-118.58"/>
<polygon fill="black" stroke="black" points="168.669,-118.381 165.315,-108.331 161.67,-118.279 168.669,-118.381"/>
<g id="a_edge2&#45;headlabel"><a xlink:href="dir_000024_000037.xhtml" target="_top" xlink:title="1">
<text text-anchor="middle" x="171.455" y="-119.517" font-family="Helvetica,sans-Serif" font-size="10.00">1</text>
</a>
</g>
</g>
<!-- dir_4da487531dc5bdc76b523c9e82b781b1&#45;&gt;dir_214608ef36d61442cb2b0c1c4e9a7def -->
<g id="edge3" class="edge"><title>dir_4da487531dc5bdc76b523c9e82b781b1&#45;&gt;dir_214608ef36d61442cb2b0c1c4e9a7def</title>
<path fill="none" stroke="black" d="M148.386,-215.884C156.442,-205.537 166.872,-192.058 176,-180 212.055,-132.374 220.23,-119.84 256,-72 262.801,-62.9046 270.291,-52.9607 276.933,-44.1682"/>
<polygon fill="black" stroke="black" points="279.751,-46.2439 282.991,-36.1564 274.168,-42.022 279.751,-46.2439"/>
<g id="a_edge3&#45;headlabel"><a xlink:href="dir_000024_000000.xhtml" target="_top" xlink:title="42">
<text text-anchor="middle" x="279.848" y="-48.3235" font-family="Helvetica,sans-Serif" font-size="10.00">42</text>
</a>
</g>
</g>
<!-- dir_896191444cf08ec8ade6f88256cb2bdd -->
<g id="node10" class="node"><title>dir_896191444cf08ec8ade6f88256cb2bdd</title>
<g id="a_node10"><a xlink:href="dir_896191444cf08ec8ade6f88256cb2bdd.xhtml" target="_top" xlink:title="CL">
<polygon fill="none" stroke="black" points="406,-180 352,-180 352,-144 406,-144 406,-180"/>
<text text-anchor="middle" x="379" y="-159.5" font-family="Helvetica,sans-Serif" font-size="10.00">CL</text>
</a>
</g>
</g>
<!-- dir_4da487531dc5bdc76b523c9e82b781b1&#45;&gt;dir_896191444cf08ec8ade6f88256cb2bdd -->
<g id="edge4" class="edge"><title>dir_4da487531dc5bdc76b523c9e82b781b1&#45;&gt;dir_896191444cf08ec8ade6f88256cb2bdd</title>
<path fill="none" stroke="black" d="M162.247,-219.335C165.164,-218.113 168.119,-216.973 171,-216 243.763,-191.44 266.875,-203.462 340,-180 340.862,-179.724 341.73,-179.435 342.603,-179.135"/>
<polygon fill="black" stroke="black" points="343.867,-182.399 351.994,-175.602 341.402,-175.847 343.867,-182.399"/>
<g id="a_edge4&#45;headlabel"><a xlink:href="dir_000024_000035.xhtml" target="_top" xlink:title="14">
<text text-anchor="middle" x="341.502" y="-183.822" font-family="Helvetica,sans-Serif" font-size="10.00">14</text>
</a>
</g>
</g>
<!-- dir_e384de53230b0fb8812f7ca98fdb0e65&#45;&gt;dir_f482a42326943e614a2ec303fd116962 -->
<g id="edge5" class="edge"><title>dir_e384de53230b0fb8812f7ca98fdb0e65&#45;&gt;dir_f482a42326943e614a2ec303fd116962</title>
<path fill="none" stroke="black" d="M78.0164,-144.411C93.2384,-135.064 112.449,-123.268 128.942,-113.141"/>
<polygon fill="black" stroke="black" points="131.092,-115.928 137.782,-107.713 127.429,-109.963 131.092,-115.928"/>
<g id="a_edge5&#45;headlabel"><a xlink:href="dir_000029_000037.xhtml" target="_top" xlink:title="5">
<text text-anchor="middle" x="129.515" y="-117.728" font-family="Helvetica,sans-Serif" font-size="10.00">5</text>
</a>
</g>
</g>
<!-- dir_ec05701f68bea22653d08da5856c9ffc -->
<g id="node4" class="node"><title>dir_ec05701f68bea22653d08da5856c9ffc</title>
<g id="a_node4"><a xlink:href="dir_ec05701f68bea22653d08da5856c9ffc.xhtml" target="_top" xlink:title="NEON">
<polygon fill="white" stroke="black" points="234,-252 180,-252 180,-216 234,-216 234,-252"/>
<text text-anchor="middle" x="207" y="-231.5" font-family="Helvetica,sans-Serif" font-size="10.00">NEON</text>
</a>
</g>
</g>
<!-- dir_ec05701f68bea22653d08da5856c9ffc&#45;&gt;dir_e384de53230b0fb8812f7ca98fdb0e65 -->
<g id="edge11" class="edge"><title>dir_ec05701f68bea22653d08da5856c9ffc&#45;&gt;dir_e384de53230b0fb8812f7ca98fdb0e65</title>
<path fill="none" stroke="black" d="M179.907,-220.117C176.907,-218.716 173.892,-217.321 171,-216 143.143,-203.274 111.441,-189.293 87.6199,-178.888"/>
<polygon fill="black" stroke="black" points="88.8186,-175.592 78.2532,-174.803 86.0205,-182.009 88.8186,-175.592"/>
<g id="a_edge11&#45;headlabel"><a xlink:href="dir_000025_000029.xhtml" target="_top" xlink:title="6">
<text text-anchor="middle" x="93.2485" y="-171.926" font-family="Helvetica,sans-Serif" font-size="10.00">6</text>
</a>
</g>
</g>
<!-- dir_445738e6fed662d0b65e690e3f1e1de0 -->
<g id="node6" class="node"><title>dir_445738e6fed662d0b65e690e3f1e1de0</title>
<g id="a_node6"><a xlink:href="dir_445738e6fed662d0b65e690e3f1e1de0.xhtml" target="_top" xlink:title="NEON">
<polygon fill="none" stroke="black" points="478,-180 424,-180 424,-144 478,-144 478,-180"/>
<text text-anchor="middle" x="451" y="-159.5" font-family="Helvetica,sans-Serif" font-size="10.00">NEON</text>
</a>
</g>
</g>
<!-- dir_ec05701f68bea22653d08da5856c9ffc&#45;&gt;dir_445738e6fed662d0b65e690e3f1e1de0 -->
<g id="edge12" class="edge"><title>dir_ec05701f68bea22653d08da5856c9ffc&#45;&gt;dir_445738e6fed662d0b65e690e3f1e1de0</title>
<path fill="none" stroke="black" d="M234.243,-219.324C237.161,-218.105 240.117,-216.967 243,-216 314.007,-192.173 338.911,-203.788 413.858,-179.936"/>
<polygon fill="black" stroke="black" points="415.354,-183.129 423.757,-176.676 413.164,-176.48 415.354,-183.129"/>
<g id="a_edge12&#45;headlabel"><a xlink:href="dir_000025_000036.xhtml" target="_top" xlink:title="16">
<text text-anchor="middle" x="412.828" y="-184.45" font-family="Helvetica,sans-Serif" font-size="10.00">16</text>
</a>
</g>
</g>
<!-- dir_ec05701f68bea22653d08da5856c9ffc&#45;&gt;dir_f482a42326943e614a2ec303fd116962 -->
<g id="edge13" class="edge"><title>dir_ec05701f68bea22653d08da5856c9ffc&#45;&gt;dir_f482a42326943e614a2ec303fd116962</title>
<path fill="none" stroke="black" d="M201.963,-215.901C195.837,-195.118 185.179,-158.981 176,-128 175.048,-124.787 174.049,-121.418 173.056,-118.076"/>
<polygon fill="black" stroke="black" points="176.359,-116.904 170.155,-108.315 169.649,-118.898 176.359,-116.904"/>
<g id="a_edge13&#45;headlabel"><a xlink:href="dir_000025_000037.xhtml" target="_top" xlink:title="2">
<text text-anchor="middle" x="180.105" y="-117.041" font-family="Helvetica,sans-Serif" font-size="10.00">2</text>
</a>
</g>
</g>
<!-- dir_ec05701f68bea22653d08da5856c9ffc&#45;&gt;dir_214608ef36d61442cb2b0c1c4e9a7def -->
<g id="edge14" class="edge"><title>dir_ec05701f68bea22653d08da5856c9ffc&#45;&gt;dir_214608ef36d61442cb2b0c1c4e9a7def</title>
<path fill="none" stroke="black" d="M214.133,-215.849C229.626,-178.597 266.444,-90.067 284.963,-45.5391"/>
<polygon fill="black" stroke="black" points="288.225,-46.8098 288.833,-36.2325 281.761,-44.1217 288.225,-46.8098"/>
<g id="a_edge14&#45;headlabel"><a xlink:href="dir_000025_000000.xhtml" target="_top" xlink:title="40">
<text text-anchor="middle" x="289.466" y="-48.7191" font-family="Helvetica,sans-Serif" font-size="10.00">40</text>
</a>
</g>
</g>
<!-- dir_a133c6c93c82e8721b2f0a6d208afd33 -->
<g id="node5" class="node"><title>dir_a133c6c93c82e8721b2f0a6d208afd33</title>
<g id="a_node5"><a xlink:href="dir_a133c6c93c82e8721b2f0a6d208afd33.xhtml" target="_top" xlink:title="system_tests">
<polygon fill="white" stroke="red" points="328,-252 252,-252 252,-216 328,-216 328,-252"/>
<text text-anchor="middle" x="290" y="-231.5" font-family="Helvetica,sans-Serif" font-size="10.00">system_tests</text>
</a>
</g>
</g>
<!-- dir_a133c6c93c82e8721b2f0a6d208afd33&#45;&gt;dir_445738e6fed662d0b65e690e3f1e1de0 -->
<g id="edge7" class="edge"><title>dir_a133c6c93c82e8721b2f0a6d208afd33&#45;&gt;dir_445738e6fed662d0b65e690e3f1e1de0</title>
<path fill="none" stroke="black" d="M328.191,-217.274C350.993,-207.78 380.701,-195.227 414.709,-180.056"/>
<polygon fill="black" stroke="black" points="416.232,-183.209 423.927,-175.927 413.37,-176.821 416.232,-183.209"/>
<g id="a_edge7&#45;headlabel"><a xlink:href="dir_000030_000036.xhtml" target="_top" xlink:title="4">
<text text-anchor="middle" x="414.112" y="-184.77" font-family="Helvetica,sans-Serif" font-size="10.00">4</text>
</a>
</g>
</g>
<!-- dir_ba1dc693ed461bc4c6534d3b34c816d0 -->
<g id="node7" class="node"><title>dir_ba1dc693ed461bc4c6534d3b34c816d0</title>
<g id="a_node7"><a xlink:href="dir_ba1dc693ed461bc4c6534d3b34c816d0.xhtml" target="_top" xlink:title="model_objects">
<polygon fill="none" stroke="black" points="614,-180 534,-180 534,-144 614,-144 614,-180"/>
<text text-anchor="middle" x="574" y="-159.5" font-family="Helvetica,sans-Serif" font-size="10.00">model_objects</text>
</a>
</g>
</g>
<!-- dir_a133c6c93c82e8721b2f0a6d208afd33&#45;&gt;dir_ba1dc693ed461bc4c6534d3b34c816d0 -->
<g id="edge8" class="edge"><title>dir_a133c6c93c82e8721b2f0a6d208afd33&#45;&gt;dir_ba1dc693ed461bc4c6534d3b34c816d0</title>
<path fill="none" stroke="black" d="M328.078,-225.184C373.881,-215.561 452.982,-198.241 520,-180 521.423,-179.613 522.864,-179.213 524.317,-178.802"/>
<polygon fill="black" stroke="black" points="525.379,-182.138 533.999,-175.977 523.419,-175.418 525.379,-182.138"/>
<g id="a_edge8&#45;headlabel"><a xlink:href="dir_000030_000034.xhtml" target="_top" xlink:title="2">
<text text-anchor="middle" x="522.724" y="-183.371" font-family="Helvetica,sans-Serif" font-size="10.00">2</text>
</a>
</g>
</g>
<!-- dir_a133c6c93c82e8721b2f0a6d208afd33&#45;&gt;dir_214608ef36d61442cb2b0c1c4e9a7def -->
<g id="edge9" class="edge"><title>dir_a133c6c93c82e8721b2f0a6d208afd33&#45;&gt;dir_214608ef36d61442cb2b0c1c4e9a7def</title>
<path fill="none" stroke="black" d="M328.38,-228.205C380.073,-220.868 467.824,-205.017 487,-180 535.633,-116.553 415.206,-61.0034 343.964,-34.8725"/>
<polygon fill="black" stroke="black" points="344.855,-31.4736 334.26,-31.3829 342.486,-38.0606 344.855,-31.4736"/>
<g id="a_edge9&#45;headlabel"><a xlink:href="dir_000030_000000.xhtml" target="_top" xlink:title="42">
<text text-anchor="middle" x="349.198" y="-27.5183" font-family="Helvetica,sans-Serif" font-size="10.00">42</text>
</a>
</g>
</g>
<!-- dir_a133c6c93c82e8721b2f0a6d208afd33&#45;&gt;dir_896191444cf08ec8ade6f88256cb2bdd -->
<g id="edge10" class="edge"><title>dir_a133c6c93c82e8721b2f0a6d208afd33&#45;&gt;dir_896191444cf08ec8ade6f88256cb2bdd</title>
<path fill="none" stroke="black" d="M312,-215.697C323.209,-206.881 337.002,-196.032 349.154,-186.474"/>
<polygon fill="black" stroke="black" points="351.557,-189.038 357.253,-180.104 347.229,-183.535 351.557,-189.038"/>
<g id="a_edge10&#45;headlabel"><a xlink:href="dir_000030_000035.xhtml" target="_top" xlink:title="4">
<text text-anchor="middle" x="350.487" y="-190.991" font-family="Helvetica,sans-Serif" font-size="10.00">4</text>
</a>
</g>
</g>
<!-- dir_445738e6fed662d0b65e690e3f1e1de0&#45;&gt;dir_214608ef36d61442cb2b0c1c4e9a7def -->
<g id="edge6" class="edge"><title>dir_445738e6fed662d0b65e690e3f1e1de0&#45;&gt;dir_214608ef36d61442cb2b0c1c4e9a7def</title>
<path fill="none" stroke="black" d="M432.303,-143.871C404.839,-118.711 353.474,-71.6535 322.243,-43.0415"/>
<polygon fill="black" stroke="black" points="324.501,-40.3636 314.763,-36.1893 319.772,-45.5251 324.501,-40.3636"/>
<g id="a_edge6&#45;headlabel"><a xlink:href="dir_000036_000000.xhtml" target="_top" xlink:title="2">
<text text-anchor="middle" x="329.069" y="-38.1983" font-family="Helvetica,sans-Serif" font-size="10.00">2</text>
</a>
</g>
</g>
<!-- dir_f482a42326943e614a2ec303fd116962&#45;&gt;dir_214608ef36d61442cb2b0c1c4e9a7def -->
<g id="edge15" class="edge"><title>dir_f482a42326943e614a2ec303fd116962&#45;&gt;dir_214608ef36d61442cb2b0c1c4e9a7def</title>
<path fill="none" stroke="black" d="M192.143,-74.496C210.21,-64.8418 234.289,-51.9753 254.713,-41.062"/>
<polygon fill="black" stroke="black" points="256.634,-44.0036 263.804,-36.2038 253.335,-37.8298 256.634,-44.0036"/>
<g id="a_edge15&#45;headlabel"><a xlink:href="dir_000037_000000.xhtml" target="_top" xlink:title="24">
<text text-anchor="middle" x="254.802" y="-45.7018" font-family="Helvetica,sans-Serif" font-size="10.00">24</text>
</a>
</g>
</g>
<!-- dir_896191444cf08ec8ade6f88256cb2bdd&#45;&gt;dir_214608ef36d61442cb2b0c1c4e9a7def -->
<g id="edge18" class="edge"><title>dir_896191444cf08ec8ade6f88256cb2bdd&#45;&gt;dir_214608ef36d61442cb2b0c1c4e9a7def</title>
<path fill="none" stroke="black" d="M368.988,-143.871C354.593,-119.244 327.936,-73.6377 311.13,-44.8845"/>
<polygon fill="black" stroke="black" points="314.115,-43.0564 306.047,-36.1893 308.072,-46.5889 314.115,-43.0564"/>
<g id="a_edge18&#45;headlabel"><a xlink:href="dir_000035_000000.xhtml" target="_top" xlink:title="2">
<text text-anchor="middle" x="318.38" y="-42.227" font-family="Helvetica,sans-Serif" font-size="10.00">2</text>
</a>
</g>
</g>
</g>
</svg>
