<?xml version="1.0" encoding="UTF-8" standalone="no"?>
<!DOCTYPE svg PUBLIC "-//W3C//DTD SVG 1.1//EN"
 "http://www.w3.org/Graphics/SVG/1.1/DTD/svg11.dtd">
<!-- Generated by graphviz version 2.38.0 (20140413.2041)
 -->
<!-- Title: Graphical Class Hierarchy Pages: 1 -->
<svg width="274pt" height="104pt"
 viewBox="0.00 0.00 274.00 104.00" xmlns="http://www.w3.org/2000/svg" xmlns:xlink="http://www.w3.org/1999/xlink">
<g id="graph0" class="graph" transform="scale(1 1) rotate(0) translate(4 100)">
<title>Graphical Class Hierarchy</title>
<polygon fill="white" stroke="none" points="-4,4 -4,-100 270,-100 270,4 -4,4"/>
<!-- Node1 -->
<g id="node1" class="node"><title>Node1</title>
<g id="a_node1"><a xlink:href="classarm__compute_1_1test_1_1_shape_dataset.xhtml" target="_top" xlink:title="ShapeDataset\&lt; 3 \&gt;">
<polygon fill="white" stroke="black" points="0,-38.5 0,-57.5 102,-57.5 102,-38.5 0,-38.5"/>
<text text-anchor="middle" x="51" y="-45.5" font-family="Helvetica,sans-Serif" font-size="10.00">ShapeDataset&lt; 3 &gt;</text>
</a>
</g>
</g>
<!-- Node2 -->
<g id="node2" class="node"><title>Node2</title>
<g id="a_node2"><a xlink:href="classarm__compute_1_1test_1_1_direct_convolution_shapes.xhtml" target="_top" xlink:title="Data set containing direct convolution tensor shapes. ">
<polygon fill="white" stroke="black" points="138,-76.5 138,-95.5 266,-95.5 266,-76.5 138,-76.5"/>
<text text-anchor="middle" x="202" y="-83.5" font-family="Helvetica,sans-Serif" font-size="10.00">DirectConvolutionShapes</text>
</a>
</g>
</g>
<!-- Node1&#45;&gt;Node2 -->
<g id="edge1" class="edge"><title>Node1&#45;&gt;Node2</title>
<path fill="none" stroke="midnightblue" d="M99.4922,-60.1121C120.244,-65.4044 144.228,-71.5213 163.671,-76.4799"/>
<polygon fill="midnightblue" stroke="midnightblue" points="100.154,-56.6689 89.599,-57.589 98.4239,-63.4518 100.154,-56.6689"/>
</g>
<!-- Node3 -->
<g id="node3" class="node"><title>Node3</title>
<g id="a_node3"><a xlink:href="classarm__compute_1_1test_1_1_large_shapes.xhtml" target="_top" xlink:title="Data set containing large tensor shapes. ">
<polygon fill="white" stroke="black" points="165,-38.5 165,-57.5 239,-57.5 239,-38.5 165,-38.5"/>
<text text-anchor="middle" x="202" y="-45.5" font-family="Helvetica,sans-Serif" font-size="10.00">LargeShapes</text>
</a>
</g>
</g>
<!-- Node1&#45;&gt;Node3 -->
<g id="edge2" class="edge"><title>Node1&#45;&gt;Node3</title>
<path fill="none" stroke="midnightblue" d="M112.127,-48C130.051,-48 149.128,-48 164.994,-48"/>
<polygon fill="midnightblue" stroke="midnightblue" points="112.029,-44.5001 102.029,-48 112.029,-51.5001 112.029,-44.5001"/>
</g>
<!-- Node4 -->
<g id="node4" class="node"><title>Node4</title>
<g id="a_node4"><a xlink:href="classarm__compute_1_1test_1_1_small_shapes.xhtml" target="_top" xlink:title="Data set containing small tensor shapes. ">
<polygon fill="white" stroke="black" points="165,-0.5 165,-19.5 239,-19.5 239,-0.5 165,-0.5"/>
<text text-anchor="middle" x="202" y="-7.5" font-family="Helvetica,sans-Serif" font-size="10.00">SmallShapes</text>
</a>
</g>
</g>
<!-- Node1&#45;&gt;Node4 -->
<g id="edge3" class="edge"><title>Node1&#45;&gt;Node4</title>
<path fill="none" stroke="midnightblue" d="M99.3976,-35.912C120.629,-30.4972 145.262,-24.2151 164.955,-19.1927"/>
<polygon fill="midnightblue" stroke="midnightblue" points="98.4239,-32.5482 89.599,-38.411 100.154,-39.3311 98.4239,-32.5482"/>
</g>
</g>
</svg>
