<?xml version="1.0" encoding="UTF-8" standalone="no"?>
<!DOCTYPE svg PUBLIC "-//W3C//DTD SVG 1.1//EN"
 "http://www.w3.org/Graphics/SVG/1.1/DTD/svg11.dtd">
<!-- Generated by graphviz version 2.38.0 (20140413.2041)
 -->
<!-- Title: Graphical Class Hierarchy Pages: 1 -->
<svg width="297pt" height="66pt"
 viewBox="0.00 0.00 297.00 66.00" xmlns="http://www.w3.org/2000/svg" xmlns:xlink="http://www.w3.org/1999/xlink">
<g id="graph0" class="graph" transform="scale(1 1) rotate(0) translate(4 62)">
<title>Graphical Class Hierarchy</title>
<polygon fill="white" stroke="none" points="-4,4 -4,-62 293,-62 293,4 -4,4"/>
<!-- Node1 -->
<g id="node1" class="node"><title>Node1</title>
<g id="a_node1"><a xlink:href="classarm__compute_1_1test_1_1_generic_dataset.xhtml" target="_top" xlink:title="GenericDataset\&lt; GEMMData\lObject, 4 \&gt;">
<polygon fill="white" stroke="black" points="0,-14 0,-44 146,-44 146,-14 0,-14"/>
<text text-anchor="start" x="8" y="-32" font-family="Helvetica,sans-Serif" font-size="10.00">GenericDataset&lt; GEMMData</text>
<text text-anchor="middle" x="73" y="-21" font-family="Helvetica,sans-Serif" font-size="10.00">Object, 4 &gt;</text>
</a>
</g>
</g>
<!-- Node2 -->
<g id="node2" class="node"><title>Node2</title>
<g id="a_node2"><a xlink:href="classarm__compute_1_1test_1_1_large_g_e_m_m_dataset.xhtml" target="_top" xlink:title="LargeGEMMDataset">
<polygon fill="white" stroke="black" points="182.5,-38.5 182.5,-57.5 288.5,-57.5 288.5,-38.5 182.5,-38.5"/>
<text text-anchor="middle" x="235.5" y="-45.5" font-family="Helvetica,sans-Serif" font-size="10.00">LargeGEMMDataset</text>
</a>
</g>
</g>
<!-- Node1&#45;&gt;Node2 -->
<g id="edge1" class="edge"><title>Node1&#45;&gt;Node2</title>
<path fill="none" stroke="midnightblue" d="M156.265,-38.7386C165.128,-39.7878 173.958,-40.8331 182.323,-41.8232"/>
<polygon fill="midnightblue" stroke="midnightblue" points="156.61,-35.2551 146.268,-37.5551 155.787,-42.2065 156.61,-35.2551"/>
</g>
<!-- Node3 -->
<g id="node3" class="node"><title>Node3</title>
<g id="a_node3"><a xlink:href="classarm__compute_1_1test_1_1_small_g_e_m_m_dataset.xhtml" target="_top" xlink:title="SmallGEMMDataset">
<polygon fill="white" stroke="black" points="182,-0.5 182,-19.5 289,-19.5 289,-0.5 182,-0.5"/>
<text text-anchor="middle" x="235.5" y="-7.5" font-family="Helvetica,sans-Serif" font-size="10.00">SmallGEMMDataset</text>
</a>
</g>
</g>
<!-- Node1&#45;&gt;Node3 -->
<g id="edge2" class="edge"><title>Node1&#45;&gt;Node3</title>
<path fill="none" stroke="midnightblue" d="M156.41,-19.2443C165.057,-18.2206 173.671,-17.201 181.849,-16.2328"/>
<polygon fill="midnightblue" stroke="midnightblue" points="155.787,-15.7935 146.268,-20.4449 156.61,-22.745 155.787,-15.7935"/>
</g>
</g>
</svg>
