<?xml version="1.0" encoding="UTF-8" standalone="no"?>
<!DOCTYPE svg PUBLIC "-//W3C//DTD SVG 1.1//EN"
 "http://www.w3.org/Graphics/SVG/1.1/DTD/svg11.dtd">
<!-- Generated by graphviz version 2.43.0 (0)
 -->
<!-- Title: sme2_u8q_planar_3x3_s1_4rows_dot_za Pages: 1 -->
<svg width="1277pt" height="99pt"
 viewBox="0.00 0.00 1277.00 99.00" xmlns="http://www.w3.org/2000/svg" xmlns:xlink="http://www.w3.org/1999/xlink">
<g id="graph0" class="graph" transform="scale(1 1) rotate(0) translate(4 95)">
<title>sme2_u8q_planar_3x3_s1_4rows_dot_za</title>
<polygon fill="white" stroke="transparent" points="-4,4 -4,-95 1273,-95 1273,4 -4,4"/>
<!-- Node1 -->
<g id="node1" class="node">
<title>Node1</title>
<g id="a_node1"><a xlink:title=" ">
<polygon fill="#bfbfbf" stroke="black" points="1143,-36 1143,-66 1269,-66 1269,-36 1143,-36"/>
<text text-anchor="start" x="1151" y="-54" font-family="Helvetica,sans-Serif" font-size="10.00">sme2_u8q_planar_3x3</text>
<text text-anchor="middle" x="1206" y="-43" font-family="Helvetica,sans-Serif" font-size="10.00">_s1_4rows_dot_za</text>
</a>
</g>
</g>
<!-- Node2 -->
<g id="node2" class="node">
<title>Node2</title>
<g id="a_node2"><a xlink:href="classarm__conv_1_1depthwise_1_1_planar_strategy.xhtml" target="_top" xlink:title=" ">
<polygon fill="white" stroke="black" points="981,-36 981,-66 1106,-66 1106,-36 981,-36"/>
<text text-anchor="start" x="989" y="-54" font-family="Helvetica,sans-Serif" font-size="10.00">PlanarStrategy&lt; uint8</text>
<text text-anchor="middle" x="1043.5" y="-43" font-family="Helvetica,sans-Serif" font-size="10.00">_t, uint8_t &gt;</text>
</a>
</g>
</g>
<!-- Node2&#45;&gt;Node1 -->
<g id="edge1" class="edge">
<title>Node2&#45;&gt;Node1</title>
<path fill="none" stroke="midnightblue" d="M1116.35,-51C1125.17,-51 1134.12,-51 1142.77,-51"/>
<polygon fill="midnightblue" stroke="midnightblue" points="1116.09,-47.5 1106.09,-51 1116.09,-54.5 1116.09,-47.5"/>
</g>
<!-- Node3 -->
<g id="node3" class="node">
<title>Node3</title>
<g id="a_node3"><a xlink:href="classarm__conv_1_1depthwise_1_1_i_planar_strategy.xhtml" target="_top" xlink:title=" ">
<polygon fill="white" stroke="black" points="523,-49.5 523,-90.5 675,-90.5 675,-49.5 523,-49.5"/>
<text text-anchor="start" x="531" y="-78.5" font-family="Helvetica,sans-Serif" font-size="10.00">IPlanarStrategy&lt; typename</text>
<text text-anchor="start" x="531" y="-67.5" font-family="Helvetica,sans-Serif" font-size="10.00"> DefaultOutputStage&lt; uint8</text>
<text text-anchor="middle" x="599" y="-56.5" font-family="Helvetica,sans-Serif" font-size="10.00">_t &gt;::Type &gt;</text>
</a>
</g>
</g>
<!-- Node3&#45;&gt;Node2 -->
<g id="edge2" class="edge">
<title>Node3&#45;&gt;Node2</title>
<path fill="none" stroke="midnightblue" d="M685.25,-67.3C758.83,-64.82 867.95,-60.82 963,-56 968.8,-55.71 974.84,-55.37 980.88,-55.02"/>
<polygon fill="midnightblue" stroke="midnightblue" points="684.99,-63.8 675.11,-67.64 685.22,-70.8 684.99,-63.8"/>
</g>
<!-- Node4 -->
<g id="node4" class="node">
<title>Node4</title>
<g id="a_node4"><a xlink:href="classarm__conv_1_1depthwise_1_1_i_planar_strategy.xhtml" target="_top" xlink:title=" ">
<polygon fill="white" stroke="black" points="0,-35.5 0,-54.5 175,-54.5 175,-35.5 0,-35.5"/>
<text text-anchor="middle" x="87.5" y="-42.5" font-family="Helvetica,sans-Serif" font-size="10.00">IPlanarStrategy&lt; OutputStage &gt;</text>
</a>
</g>
</g>
<!-- Node4&#45;&gt;Node3 -->
<g id="edge3" class="edge">
<title>Node4&#45;&gt;Node3</title>
<path fill="none" stroke="orange" stroke-dasharray="5,2" d="M185.44,-49.76C283.61,-54.57 433.36,-61.92 522.88,-66.31"/>
<polygon fill="orange" stroke="orange" points="185.38,-46.25 175.22,-49.26 185.03,-53.24 185.38,-46.25"/>
<text text-anchor="start" x="193" y="-70" font-family="Helvetica,sans-Serif" font-size="10.00"> &lt; typename DefaultOutput</text>
<text text-anchor="middle" x="261" y="-59" font-family="Helvetica,sans-Serif" font-size="10.00">Stage&lt; uint8_t &gt;::Type &gt;</text>
</g>
<!-- Node6 -->
<g id="node6" class="node">
<title>Node6</title>
<g id="a_node6"><a xlink:href="classarm__conv_1_1depthwise_1_1_i_planar_strategy.xhtml" target="_top" xlink:title=" ">
<polygon fill="white" stroke="black" points="347,-0.5 347,-41.5 505,-41.5 505,-0.5 347,-0.5"/>
<text text-anchor="start" x="355" y="-29.5" font-family="Helvetica,sans-Serif" font-size="10.00">IPlanarStrategy&lt; typename</text>
<text text-anchor="start" x="355" y="-18.5" font-family="Helvetica,sans-Serif" font-size="10.00"> DefaultOutputStage&lt; TInput</text>
<text text-anchor="middle" x="426" y="-7.5" font-family="Helvetica,sans-Serif" font-size="10.00"> &gt;::Type &gt;</text>
</a>
</g>
</g>
<!-- Node4&#45;&gt;Node6 -->
<g id="edge6" class="edge">
<title>Node4&#45;&gt;Node6</title>
<path fill="none" stroke="orange" stroke-dasharray="5,2" d="M141.92,-33.61C158.24,-30.58 176.29,-27.69 193,-26 244.11,-20.84 301.85,-19.58 346.95,-19.61"/>
<polygon fill="orange" stroke="orange" points="141.17,-30.19 132.01,-35.5 142.49,-37.06 141.17,-30.19"/>
<text text-anchor="start" x="193" y="-40" font-family="Helvetica,sans-Serif" font-size="10.00"> &lt; typename DefaultOutput</text>
<text text-anchor="middle" x="261" y="-29" font-family="Helvetica,sans-Serif" font-size="10.00">Stage&lt; TInput &gt;::Type &gt;</text>
</g>
<!-- Node5 -->
<g id="node5" class="node">
<title>Node5</title>
<g id="a_node5"><a xlink:href="classarm__conv_1_1depthwise_1_1_planar_strategy.xhtml" target="_top" xlink:title=" ">
<polygon fill="white" stroke="black" points="693,-0.5 693,-41.5 845,-41.5 845,-0.5 693,-0.5"/>
<text text-anchor="start" x="701" y="-29.5" font-family="Helvetica,sans-Serif" font-size="10.00">PlanarStrategy&lt; TInput,</text>
<text text-anchor="start" x="701" y="-18.5" font-family="Helvetica,sans-Serif" font-size="10.00"> TWeight, TOutput, TAccum,</text>
<text text-anchor="middle" x="769" y="-7.5" font-family="Helvetica,sans-Serif" font-size="10.00"> OutputStage &gt;</text>
</a>
</g>
</g>
<!-- Node5&#45;&gt;Node2 -->
<g id="edge4" class="edge">
<title>Node5&#45;&gt;Node2</title>
<path fill="none" stroke="orange" stroke-dasharray="5,2" d="M855.36,-30.4C896.05,-34.88 943.8,-40.13 980.88,-44.22"/>
<polygon fill="orange" stroke="orange" points="855.51,-26.89 845.18,-29.28 854.74,-33.85 855.51,-26.89"/>
<text text-anchor="middle" x="913" y="-45" font-family="Helvetica,sans-Serif" font-size="10.00"> &lt; uint8_t, uint8_t &gt;</text>
</g>
<!-- Node6&#45;&gt;Node5 -->
<g id="edge5" class="edge">
<title>Node6&#45;&gt;Node5</title>
<path fill="none" stroke="midnightblue" d="M515.33,-21C570.35,-21 640.39,-21 692.77,-21"/>
<polygon fill="midnightblue" stroke="midnightblue" points="515.23,-17.5 505.23,-21 515.23,-24.5 515.23,-17.5"/>
</g>
</g>
</svg>
