<?xml version="1.0" encoding="UTF-8" standalone="no"?>
<!DOCTYPE svg PUBLIC "-//W3C//DTD SVG 1.1//EN"
 "http://www.w3.org/Graphics/SVG/1.1/DTD/svg11.dtd">
<!-- Generated by graphviz version 2.43.0 (0)
 -->
<!-- Title: CpuGemmLowpQuantizeDownInt32ToInt8ScaleByFixedPointKernel Pages: 1 -->
<svg width="358pt" height="299pt"
 viewBox="0.00 0.00 358.00 299.00" xmlns="http://www.w3.org/2000/svg" xmlns:xlink="http://www.w3.org/1999/xlink">
<g id="graph0" class="graph" transform="scale(1 1) rotate(0) translate(4 295)">
<title>CpuGemmLowpQuantizeDownInt32ToInt8ScaleByFixedPointKernel</title>
<polygon fill="white" stroke="transparent" points="-4,4 -4,-295 354,-295 354,4 -4,4"/>
<!-- Node1 -->
<g id="node1" class="node">
<title>Node1</title>
<g id="a_node1"><a xlink:title="Kernel used to quantize down the int32 accumulator values of GEMMLowp to QASYMM8_SIGNED.">
<polygon fill="#bfbfbf" stroke="black" points="20,-0.5 20,-30.5 210,-30.5 210,-0.5 20,-0.5"/>
<text text-anchor="start" x="28" y="-18.5" font-family="Helvetica,sans-Serif" font-size="10.00">CpuGemmLowpQuantizeDownInt32</text>
<text text-anchor="middle" x="115" y="-7.5" font-family="Helvetica,sans-Serif" font-size="10.00">ToInt8ScaleByFixedPointKernel</text>
</a>
</g>
</g>
<!-- Node2 -->
<g id="node2" class="node">
<title>Node2</title>
<g id="a_node2"><a xlink:href="classarm__compute_1_1cpu_1_1_i_cpu_kernel.xhtml" target="_top" xlink:title=" ">
<polygon fill="white" stroke="black" points="0,-68.5 0,-98.5 230,-98.5 230,-68.5 0,-68.5"/>
<text text-anchor="start" x="8" y="-86.5" font-family="Helvetica,sans-Serif" font-size="10.00">ICpuKernel&lt; CpuGemmLowpQuantize</text>
<text text-anchor="middle" x="115" y="-75.5" font-family="Helvetica,sans-Serif" font-size="10.00">DownInt32ToInt8ScaleByFixedPointKernel &gt;</text>
</a>
</g>
</g>
<!-- Node2&#45;&gt;Node1 -->
<g id="edge1" class="edge">
<title>Node2&#45;&gt;Node1</title>
<path fill="none" stroke="midnightblue" d="M115,-58.03C115,-48.86 115,-38.74 115,-30.79"/>
<polygon fill="midnightblue" stroke="midnightblue" points="111.5,-58.18 115,-68.18 118.5,-58.18 111.5,-58.18"/>
</g>
<!-- Node3 -->
<g id="node3" class="node">
<title>Node3</title>
<g id="a_node3"><a xlink:href="classarm__compute_1_1_i_c_p_p_kernel.xhtml" target="_top" xlink:title="Common interface for all kernels implemented in C++.">
<polygon fill="white" stroke="black" points="76.5,-214.5 76.5,-233.5 145.5,-233.5 145.5,-214.5 76.5,-214.5"/>
<text text-anchor="middle" x="111" y="-221.5" font-family="Helvetica,sans-Serif" font-size="10.00">ICPPKernel</text>
</a>
</g>
</g>
<!-- Node3&#45;&gt;Node2 -->
<g id="edge2" class="edge">
<title>Node3&#45;&gt;Node2</title>
<path fill="none" stroke="midnightblue" d="M111.54,-204.25C112.35,-176.19 113.86,-123.88 114.59,-98.73"/>
<polygon fill="midnightblue" stroke="midnightblue" points="108.04,-204.24 111.25,-214.34 115.04,-204.44 108.04,-204.24"/>
</g>
<!-- Node5 -->
<g id="node5" class="node">
<title>Node5</title>
<g id="a_node5"><a xlink:href="classarm__compute_1_1cpu_1_1_i_cpu_kernel.xhtml" target="_top" xlink:title=" ">
<polygon fill="white" stroke="black" points="127,-157.5 127,-176.5 257,-176.5 257,-157.5 127,-157.5"/>
<text text-anchor="middle" x="192" y="-164.5" font-family="Helvetica,sans-Serif" font-size="10.00">ICpuKernel&lt; Derived &gt;</text>
</a>
</g>
</g>
<!-- Node3&#45;&gt;Node5 -->
<g id="edge5" class="edge">
<title>Node3&#45;&gt;Node5</title>
<path fill="none" stroke="midnightblue" d="M132.3,-208.54C147.3,-198.35 166.86,-185.07 179.43,-176.53"/>
<polygon fill="midnightblue" stroke="midnightblue" points="129.96,-205.89 123.66,-214.41 133.9,-211.68 129.96,-205.89"/>
</g>
<!-- Node4 -->
<g id="node4" class="node">
<title>Node4</title>
<g id="a_node4"><a xlink:href="classarm__compute_1_1_i_kernel.xhtml" target="_top" xlink:title="Common information for all the kernels.">
<polygon fill="white" stroke="black" points="86,-271.5 86,-290.5 136,-290.5 136,-271.5 86,-271.5"/>
<text text-anchor="middle" x="111" y="-278.5" font-family="Helvetica,sans-Serif" font-size="10.00">IKernel</text>
</a>
</g>
</g>
<!-- Node4&#45;&gt;Node3 -->
<g id="edge3" class="edge">
<title>Node4&#45;&gt;Node3</title>
<path fill="none" stroke="midnightblue" d="M111,-261.12C111,-251.82 111,-241.06 111,-233.71"/>
<polygon fill="midnightblue" stroke="midnightblue" points="107.5,-261.41 111,-271.41 114.5,-261.41 107.5,-261.41"/>
</g>
<!-- Node5&#45;&gt;Node2 -->
<g id="edge4" class="edge">
<title>Node5&#45;&gt;Node2</title>
<path fill="none" stroke="orange" stroke-dasharray="5,2" d="M176.68,-149.78C162.55,-134.83 141.78,-112.84 128.32,-98.6"/>
<polygon fill="orange" stroke="orange" points="174.35,-152.41 183.76,-157.28 179.44,-147.61 174.35,-152.41"/>
<text text-anchor="start" x="164" y="-131" font-family="Helvetica,sans-Serif" font-size="10.00"> &lt; CpuGemmLowpQuantizeDown</text>
<text text-anchor="middle" x="257" y="-120" font-family="Helvetica,sans-Serif" font-size="10.00">Int32ToInt8ScaleByFixedPointKernel &gt;</text>
</g>
</g>
</svg>
