<?xml version="1.0" encoding="UTF-8" standalone="no"?>
<!DOCTYPE svg PUBLIC "-//W3C//DTD SVG 1.1//EN"
 "http://www.w3.org/Graphics/SVG/1.1/DTD/svg11.dtd">
<!-- Generated by graphviz version 2.43.0 (0)
 -->
<!-- Title: ClWeightsReshapeKernel Pages: 1 -->
<svg width="146pt" height="140pt"
 viewBox="0.00 0.00 146.00 140.00" xmlns="http://www.w3.org/2000/svg" xmlns:xlink="http://www.w3.org/1999/xlink">
<g id="graph0" class="graph" transform="scale(1 1) rotate(0) translate(4 136)">
<title>ClWeightsReshapeKernel</title>
<polygon fill="white" stroke="transparent" points="-4,4 -4,-136 142,-136 142,4 -4,4"/>
<!-- Node1 -->
<g id="node1" class="node">
<title>Node1</title>
<g id="a_node1"><a xlink:title="OpenCL kernel to perform reshaping on the weights used by convolution and locally connected layer.">
<polygon fill="#bfbfbf" stroke="black" points="0,-0.5 0,-19.5 138,-19.5 138,-0.5 0,-0.5"/>
<text text-anchor="middle" x="69" y="-7.5" font-family="Helvetica,sans-Serif" font-size="10.00">ClWeightsReshapeKernel</text>
</a>
</g>
</g>
<!-- Node2 -->
<g id="node2" class="node">
<title>Node2</title>
<g id="a_node2"><a xlink:href="classarm__compute_1_1_i_c_l_kernel.xhtml" target="_top" xlink:title="Common interface for all the OpenCL kernels.">
<polygon fill="white" stroke="black" points="39,-56.5 39,-75.5 99,-75.5 99,-56.5 39,-56.5"/>
<text text-anchor="middle" x="69" y="-63.5" font-family="Helvetica,sans-Serif" font-size="10.00">IClKernel</text>
</a>
</g>
</g>
<!-- Node2&#45;&gt;Node1 -->
<g id="edge1" class="edge">
<title>Node2&#45;&gt;Node1</title>
<path fill="none" stroke="midnightblue" d="M69,-45.8C69,-36.91 69,-26.78 69,-19.75"/>
<polygon fill="midnightblue" stroke="midnightblue" points="65.5,-46.08 69,-56.08 72.5,-46.08 65.5,-46.08"/>
</g>
<!-- Node3 -->
<g id="node3" class="node">
<title>Node3</title>
<g id="a_node3"><a xlink:href="classarm__compute_1_1_i_kernel.xhtml" target="_top" xlink:title="Common information for all the kernels.">
<polygon fill="white" stroke="black" points="44,-112.5 44,-131.5 94,-131.5 94,-112.5 44,-112.5"/>
<text text-anchor="middle" x="69" y="-119.5" font-family="Helvetica,sans-Serif" font-size="10.00">IKernel</text>
</a>
</g>
</g>
<!-- Node3&#45;&gt;Node2 -->
<g id="edge2" class="edge">
<title>Node3&#45;&gt;Node2</title>
<path fill="none" stroke="midnightblue" d="M69,-101.8C69,-92.91 69,-82.78 69,-75.75"/>
<polygon fill="midnightblue" stroke="midnightblue" points="65.5,-102.08 69,-112.08 72.5,-102.08 65.5,-102.08"/>
</g>
</g>
</svg>
