<?xml version="1.0" encoding="UTF-8" standalone="no"?>
<!DOCTYPE svg PUBLIC "-//W3C//DTD SVG 1.1//EN"
 "http://www.w3.org/Graphics/SVG/1.1/DTD/svg11.dtd">
<!-- Generated by graphviz version 2.43.0 (0)
 -->
<!-- Title: CpuContext Pages: 1 -->
<svg width="191pt" height="162pt"
 viewBox="0.00 0.00 190.50 162.00" xmlns="http://www.w3.org/2000/svg" xmlns:xlink="http://www.w3.org/1999/xlink">
<g id="graph0" class="graph" transform="scale(1 1) rotate(0) translate(4 158)">
<title>CpuContext</title>
<polygon fill="white" stroke="transparent" points="-4,4 -4,-158 186.5,-158 186.5,4 -4,4"/>
<!-- Node1 -->
<g id="node1" class="node">
<title>Node1</title>
<g id="a_node1"><a xlink:title="CPU context implementation class.">
<polygon fill="#bfbfbf" stroke="black" points="0,-67.5 0,-86.5 74,-86.5 74,-67.5 0,-67.5"/>
<text text-anchor="middle" x="37" y="-74.5" font-family="Helvetica,sans-Serif" font-size="10.00">CpuContext</text>
</a>
</g>
</g>
<!-- Node2 -->
<g id="node2" class="node">
<title>Node2</title>
<g id="a_node2"><a xlink:href="classarm__compute_1_1_i_context.xhtml" target="_top" xlink:title="Context interface.">
<polygon fill="white" stroke="black" points="89,-134.5 89,-153.5 147,-153.5 147,-134.5 89,-134.5"/>
<text text-anchor="middle" x="118" y="-141.5" font-family="Helvetica,sans-Serif" font-size="10.00">IContext</text>
</a>
</g>
</g>
<!-- Node2&#45;&gt;Node1 -->
<g id="edge1" class="edge">
<title>Node2&#45;&gt;Node1</title>
<path fill="none" stroke="midnightblue" d="M98.95,-127.71C82.99,-114.91 60.79,-97.09 47.75,-86.63"/>
<polygon fill="midnightblue" stroke="midnightblue" points="97.09,-130.7 107.08,-134.23 101.47,-125.25 97.09,-130.7"/>
</g>
<!-- Node4 -->
<g id="node4" class="node">
<title>Node4</title>
<g id="a_node4"><a xlink:href="structarm__compute_1_1detail_1_1_header.xhtml" target="_top" xlink:title=" ">
<polygon fill="white" stroke="black" points="92,-67.5 92,-86.5 144,-86.5 144,-67.5 92,-67.5"/>
<text text-anchor="middle" x="118" y="-74.5" font-family="Helvetica,sans-Serif" font-size="10.00">Header</text>
</a>
</g>
</g>
<!-- Node2&#45;&gt;Node4 -->
<g id="edge4" class="edge">
<title>Node2&#45;&gt;Node4</title>
<path fill="none" stroke="#9a32cd" stroke-dasharray="5,2" d="M118,-124.04C118,-111.67 118,-96.12 118,-86.63"/>
<polygon fill="#9a32cd" stroke="#9a32cd" points="114.5,-124.23 118,-134.23 121.5,-124.23 114.5,-124.23"/>
<text text-anchor="middle" x="127.5" y="-108" font-family="Helvetica,sans-Serif" font-size="10.00"> ctx</text>
</g>
<!-- Node3 -->
<g id="node3" class="node">
<title>Node3</title>
<g id="a_node3"><a xlink:href="struct_acl_context__.xhtml" target="_top" xlink:title=" ">
<polygon fill="white" stroke="black" points="107.5,-0.5 107.5,-19.5 182.5,-19.5 182.5,-0.5 107.5,-0.5"/>
<text text-anchor="middle" x="145" y="-7.5" font-family="Helvetica,sans-Serif" font-size="10.00">AclContext_</text>
</a>
</g>
</g>
<!-- Node3&#45;&gt;Node2 -->
<g id="edge2" class="edge">
<title>Node3&#45;&gt;Node2</title>
<path fill="none" stroke="midnightblue" d="M154.85,-28.6C156.15,-31.65 157.28,-34.86 158,-38 162.87,-59.34 158.66,-65.85 153,-87 149.39,-100.47 148.28,-104.1 141,-116 137.02,-122.51 131.5,-129.05 126.86,-134.06"/>
<polygon fill="midnightblue" stroke="midnightblue" points="157.97,-27.03 150.39,-19.63 151.71,-30.14 157.97,-27.03"/>
</g>
<!-- Node4&#45;&gt;Node3 -->
<g id="edge3" class="edge">
<title>Node4&#45;&gt;Node3</title>
<path fill="none" stroke="#9a32cd" stroke-dasharray="5,2" d="M117.12,-57.16C117.43,-50.86 118.47,-43.94 121,-38 123.95,-31.08 129.41,-24.71 134.37,-19.9"/>
<polygon fill="#9a32cd" stroke="#9a32cd" points="113.62,-57.5 117.16,-67.48 120.62,-57.47 113.62,-57.5"/>
<text text-anchor="middle" x="139.5" y="-41" font-family="Helvetica,sans-Serif" font-size="10.00"> header</text>
</g>
</g>
</svg>
