<?xml version="1.0" encoding="UTF-8" standalone="no"?>
<!DOCTYPE svg PUBLIC "-//W3C//DTD SVG 1.1//EN"
 "http://www.w3.org/Graphics/SVG/1.1/DTD/svg11.dtd">
<!-- Generated by graphviz version 2.43.0 (0)
 -->
<!-- Title: arm_compute/runtime/experimental Pages: 1 -->
<svg width="274pt" height="254pt"
 viewBox="0.00 0.00 274.00 254.19" xmlns="http://www.w3.org/2000/svg" xmlns:xlink="http://www.w3.org/1999/xlink">
<g id="graph0" class="graph" transform="scale(1 1) rotate(0) translate(4 250.19)">
<title>arm_compute/runtime/experimental</title>
<polygon fill="white" stroke="transparent" points="-4,4 -4,-250.19 270,-250.19 270,4 -4,4"/>
<g id="clust1" class="cluster">
<title>clusterdir_8bc26130589aa16388b5a02f17abf2c2</title>
<g id="a_clust1"><a xlink:href="dir_8bc26130589aa16388b5a02f17abf2c2.xhtml" target="_top" xlink:title="runtime">
<polygon fill="#ddddee" stroke="black" points="8,-128 8,-215 204,-215 204,-128 8,-128"/>
<text text-anchor="middle" x="106" y="-203" font-family="Helvetica,sans-Serif" font-size="10.00">runtime</text>
</a>
</g>
</g>
<g id="clust2" class="cluster">
<title>clusterdir_f65747a71076b8acf344f803a66a39b1</title>
<g id="a_clust2"><a xlink:href="dir_f65747a71076b8acf344f803a66a39b1.xhtml" target="_top">
<polygon fill="#eeeeff" stroke="black" points="16,-136 16,-188 196,-188 196,-136 16,-136"/>
</a>
</g>
</g>
<!-- dir_f65747a71076b8acf344f803a66a39b1 -->
<g id="node1" class="node">
<title>dir_f65747a71076b8acf344f803a66a39b1</title>
<text text-anchor="middle" x="147" y="-159.5" font-family="Helvetica,sans-Serif" font-size="10.00">experimental</text>
</g>
<!-- dir_c44f8e0cc9e05e0ed774c727a2d7f6c4 -->
<g id="node2" class="node">
<title>dir_c44f8e0cc9e05e0ed774c727a2d7f6c4</title>
<g id="a_node2"><a xlink:href="dir_c44f8e0cc9e05e0ed774c727a2d7f6c4.xhtml" target="_top" xlink:title="operators">
<polygon fill="white" stroke="black" points="87.5,-180 24.5,-180 24.5,-144 87.5,-144 87.5,-180"/>
<text text-anchor="middle" x="56" y="-159.5" font-family="Helvetica,sans-Serif" font-size="10.00">operators</text>
</a>
</g>
</g>
<!-- dir_68267d1309a1af8e8297ef4c3efbcdba -->
<g id="node3" class="node">
<title>dir_68267d1309a1af8e8297ef4c3efbcdba</title>
<g id="a_node3"><a xlink:href="dir_68267d1309a1af8e8297ef4c3efbcdba.xhtml" target="_top" xlink:title="src">
<polygon fill="white" stroke="red" points="266,-180 212,-180 212,-144 266,-144 266,-180"/>
<text text-anchor="middle" x="239" y="-159.5" font-family="Helvetica,sans-Serif" font-size="10.00">src</text>
</a>
</g>
</g>
<!-- dir_c44f8e0cc9e05e0ed774c727a2d7f6c4&#45;&gt;dir_68267d1309a1af8e8297ef4c3efbcdba -->
<g id="edge6" class="edge">
<title>dir_c44f8e0cc9e05e0ed774c727a2d7f6c4&#45;&gt;dir_68267d1309a1af8e8297ef4c3efbcdba</title>
<path fill="none" stroke="black" d="M62.93,-180.1C70.59,-197.24 84.72,-221.96 106,-233 139.53,-250.4 157.63,-250.72 191,-233 208.3,-223.81 220.51,-205.29 228.28,-189.47"/>
<polygon fill="black" stroke="black" points="231.59,-190.63 232.55,-180.08 225.22,-187.73 231.59,-190.63"/>
<g id="a_edge6&#45;headlabel"><a xlink:href="dir_000074_000003.xhtml" target="_top" xlink:title="1">
<text text-anchor="middle" x="232.69" y="-192.58" font-family="Helvetica,sans-Serif" font-size="10.00">1</text>
</a>
</g>
</g>
<!-- dir_c9636d973c877190ddc5121fa1f43c4f -->
<g id="node4" class="node">
<title>dir_c9636d973c877190ddc5121fa1f43c4f</title>
<g id="a_node4"><a xlink:href="dir_c9636d973c877190ddc5121fa1f43c4f.xhtml" target="_top" xlink:title="function_info">
<polygon fill="none" stroke="black" points="199,-108 119,-108 119,-72 199,-72 199,-108"/>
<text text-anchor="middle" x="159" y="-87.5" font-family="Helvetica,sans-Serif" font-size="10.00">function_info</text>
</a>
</g>
</g>
<!-- dir_c44f8e0cc9e05e0ed774c727a2d7f6c4&#45;&gt;dir_c9636d973c877190ddc5121fa1f43c4f -->
<g id="edge7" class="edge">
<title>dir_c44f8e0cc9e05e0ed774c727a2d7f6c4&#45;&gt;dir_c9636d973c877190ddc5121fa1f43c4f</title>
<path fill="none" stroke="black" d="M76.01,-143.97C82.55,-138.66 89.95,-132.91 97,-128 104.17,-123.01 112.04,-117.99 119.69,-113.33"/>
<polygon fill="black" stroke="black" points="121.73,-116.19 128.51,-108.05 118.13,-110.19 121.73,-116.19"/>
<g id="a_edge7&#45;headlabel"><a xlink:href="dir_000074_000061.xhtml" target="_top" xlink:title="1">
<text text-anchor="middle" x="120.1" y="-117.97" font-family="Helvetica,sans-Serif" font-size="10.00">1</text>
</a>
</g>
</g>
<!-- dir_1fb090f0c6070330bfaccc4236d3ca0d -->
<g id="node5" class="node">
<title>dir_1fb090f0c6070330bfaccc4236d3ca0d</title>
<g id="a_node5"><a xlink:href="dir_1fb090f0c6070330bfaccc4236d3ca0d.xhtml" target="_top" xlink:title="core">
<polygon fill="white" stroke="red" points="186,-36 132,-36 132,0 186,0 186,-36"/>
<text text-anchor="middle" x="159" y="-15.5" font-family="Helvetica,sans-Serif" font-size="10.00">core</text>
</a>
</g>
</g>
<!-- dir_c44f8e0cc9e05e0ed774c727a2d7f6c4&#45;&gt;dir_1fb090f0c6070330bfaccc4236d3ca0d -->
<g id="edge8" class="edge">
<title>dir_c44f8e0cc9e05e0ed774c727a2d7f6c4&#45;&gt;dir_1fb090f0c6070330bfaccc4236d3ca0d</title>
<path fill="none" stroke="black" d="M65,-143.95C75.02,-125.54 92.16,-95.67 110,-72 117.35,-62.25 126.2,-52.24 134.35,-43.58"/>
<polygon fill="black" stroke="black" points="136.88,-46.01 141.28,-36.37 131.83,-41.16 136.88,-46.01"/>
<g id="a_edge8&#45;headlabel"><a xlink:href="dir_000074_000001.xhtml" target="_top" xlink:title="11">
<text text-anchor="middle" x="136.44" y="-48.06" font-family="Helvetica,sans-Serif" font-size="10.00">11</text>
</a>
</g>
</g>
<!-- dir_68267d1309a1af8e8297ef4c3efbcdba&#45;&gt;dir_c44f8e0cc9e05e0ed774c727a2d7f6c4 -->
<g id="edge3" class="edge">
<title>dir_68267d1309a1af8e8297ef4c3efbcdba&#45;&gt;dir_c44f8e0cc9e05e0ed774c727a2d7f6c4</title>
<path fill="none" stroke="black" d="M232.55,-180.08C225.35,-197.2 211.89,-221.9 191,-233 157.63,-250.72 139.53,-250.4 106,-233 88.38,-223.86 75.66,-205.34 67.46,-189.5"/>
<polygon fill="black" stroke="black" points="70.42,-187.59 62.93,-180.1 64.11,-190.63 70.42,-187.59"/>
<g id="a_edge3&#45;headlabel"><a xlink:href="dir_000003_000074.xhtml" target="_top" xlink:title="6">
<text text-anchor="middle" x="74.54" y="-187.1" font-family="Helvetica,sans-Serif" font-size="10.00">6</text>
</a>
</g>
</g>
<!-- dir_68267d1309a1af8e8297ef4c3efbcdba&#45;&gt;dir_c9636d973c877190ddc5121fa1f43c4f -->
<g id="edge1" class="edge">
<title>dir_68267d1309a1af8e8297ef4c3efbcdba&#45;&gt;dir_c9636d973c877190ddc5121fa1f43c4f</title>
<path fill="none" stroke="black" d="M219.22,-143.7C209.25,-134.97 196.99,-124.24 186.14,-114.75"/>
<polygon fill="black" stroke="black" points="188.38,-112.06 178.55,-108.1 183.77,-117.32 188.38,-112.06"/>
<g id="a_edge1&#45;headlabel"><a xlink:href="dir_000003_000061.xhtml" target="_top" xlink:title="72">
<text text-anchor="middle" x="192.95" y="-109.79" font-family="Helvetica,sans-Serif" font-size="10.00">72</text>
</a>
</g>
</g>
<!-- dir_68267d1309a1af8e8297ef4c3efbcdba&#45;&gt;dir_1fb090f0c6070330bfaccc4236d3ca0d -->
<g id="edge2" class="edge">
<title>dir_68267d1309a1af8e8297ef4c3efbcdba&#45;&gt;dir_1fb090f0c6070330bfaccc4236d3ca0d</title>
<path fill="none" stroke="black" d="M235.22,-143.69C230.65,-125.06 221.81,-95.01 208,-72 201.88,-61.8 193.56,-51.88 185.51,-43.43"/>
<polygon fill="black" stroke="black" points="187.79,-40.76 178.27,-36.12 182.82,-45.68 187.79,-40.76"/>
<g id="a_edge2&#45;headlabel"><a xlink:href="dir_000003_000001.xhtml" target="_top" xlink:title="2638">
<text text-anchor="middle" x="192.34" y="-38.81" font-family="Helvetica,sans-Serif" font-size="10.00">2638</text>
</a>
</g>
</g>
<!-- dir_c9636d973c877190ddc5121fa1f43c4f&#45;&gt;dir_1fb090f0c6070330bfaccc4236d3ca0d -->
<g id="edge4" class="edge">
<title>dir_c9636d973c877190ddc5121fa1f43c4f&#45;&gt;dir_1fb090f0c6070330bfaccc4236d3ca0d</title>
<path fill="none" stroke="black" d="M153.08,-71.7C152.29,-63.98 152.06,-54.71 152.4,-46.11"/>
<polygon fill="black" stroke="black" points="155.9,-46.32 153.1,-36.1 148.92,-45.84 155.9,-46.32"/>
<g id="a_edge4&#45;headlabel"><a xlink:href="dir_000061_000001.xhtml" target="_top" xlink:title="8">
<text text-anchor="middle" x="158.48" y="-47.61" font-family="Helvetica,sans-Serif" font-size="10.00">8</text>
</a>
</g>
</g>
<!-- dir_1fb090f0c6070330bfaccc4236d3ca0d&#45;&gt;dir_c9636d973c877190ddc5121fa1f43c4f -->
<g id="edge5" class="edge">
<title>dir_1fb090f0c6070330bfaccc4236d3ca0d&#45;&gt;dir_c9636d973c877190ddc5121fa1f43c4f</title>
<path fill="none" stroke="black" d="M164.9,-36.1C165.7,-43.79 165.94,-53.05 165.6,-61.67"/>
<polygon fill="black" stroke="black" points="162.11,-61.48 164.92,-71.7 169.09,-61.96 162.11,-61.48"/>
<g id="a_edge5&#45;headlabel"><a xlink:href="dir_000001_000061.xhtml" target="_top" xlink:title="7">
<text text-anchor="middle" x="159.52" y="-55.2" font-family="Helvetica,sans-Serif" font-size="10.00">7</text>
</a>
</g>
</g>
</g>
</svg>
