<?xml version="1.0" encoding="UTF-8" standalone="no"?>
<!DOCTYPE svg PUBLIC "-//W3C//DTD SVG 1.1//EN"
 "http://www.w3.org/Graphics/SVG/1.1/DTD/svg11.dtd">
<!-- Generated by graphviz version 2.43.0 (0)
 -->
<!-- Title: arm_compute Pages: 1 -->
<svg width="461pt" height="364pt"
 viewBox="0.00 0.00 460.62 364.00" xmlns="http://www.w3.org/2000/svg" xmlns:xlink="http://www.w3.org/1999/xlink">
<g id="graph0" class="graph" transform="scale(1 1) rotate(0) translate(4 360)">
<title>arm_compute</title>
<polygon fill="white" stroke="transparent" points="-4,4 -4,-360 456.62,-360 456.62,4 -4,4"/>
<g id="clust1" class="cluster">
<title>clusterdir_214608ef36d61442cb2b0c1c4e9a7def</title>
<g id="a_clust1"><a xlink:href="dir_214608ef36d61442cb2b0c1c4e9a7def.xhtml" target="_top">
<polygon fill="#eeeeff" stroke="black" points="8,-8 8,-348 190,-348 190,-8 8,-8"/>
</a>
</g>
</g>
<!-- dir_214608ef36d61442cb2b0c1c4e9a7def -->
<g id="node1" class="node">
<title>dir_214608ef36d61442cb2b0c1c4e9a7def</title>
<text text-anchor="middle" x="99" y="-319.5" font-family="Helvetica,sans-Serif" font-size="10.00">arm_compute</text>
</g>
<!-- dir_99ae3712d1eecd2a93fc4d38b59a99ba -->
<g id="node5" class="node">
<title>dir_99ae3712d1eecd2a93fc4d38b59a99ba</title>
<g id="a_node5"><a xlink:href="dir_99ae3712d1eecd2a93fc4d38b59a99ba.xhtml" target="_top" xlink:title="graph">
<polygon fill="white" stroke="red" points="70,-268 16,-268 16,-232 70,-232 70,-268"/>
<text text-anchor="middle" x="43" y="-247.5" font-family="Helvetica,sans-Serif" font-size="10.00">graph</text>
</a>
</g>
</g>
<!-- dir_214608ef36d61442cb2b0c1c4e9a7def&#45;&gt;dir_99ae3712d1eecd2a93fc4d38b59a99ba -->
<g id="edge28" class="edge">
<title>dir_214608ef36d61442cb2b0c1c4e9a7def&#45;&gt;dir_99ae3712d1eecd2a93fc4d38b59a99ba</title>
<path fill="none" stroke="black" d="M85.16,-303.7C78.51,-295.39 70.42,-285.28 63.11,-276.14"/>
<polygon fill="black" stroke="black" points="65.66,-273.73 56.68,-268.1 60.2,-278.1 65.66,-273.73"/>
<g id="a_edge28&#45;headlabel"><a xlink:href="dir_000000_000013.xhtml" target="_top" xlink:title="25">
<text text-anchor="middle" x="70.13" y="-272.26" font-family="Helvetica,sans-Serif" font-size="10.00">25</text>
</a>
</g>
</g>
<!-- dir_1fb090f0c6070330bfaccc4236d3ca0d -->
<g id="node2" class="node">
<title>dir_1fb090f0c6070330bfaccc4236d3ca0d</title>
<g id="a_node2"><a xlink:href="dir_1fb090f0c6070330bfaccc4236d3ca0d.xhtml" target="_top" xlink:title="core">
<polygon fill="white" stroke="red" points="181,-196 127,-196 127,-160 181,-160 181,-196"/>
<text text-anchor="middle" x="154" y="-175.5" font-family="Helvetica,sans-Serif" font-size="10.00">core</text>
</a>
</g>
</g>
<!-- dir_c9636d973c877190ddc5121fa1f43c4f -->
<g id="node4" class="node">
<title>dir_c9636d973c877190ddc5121fa1f43c4f</title>
<g id="a_node4"><a xlink:href="dir_c9636d973c877190ddc5121fa1f43c4f.xhtml" target="_top" xlink:title="function_info">
<polygon fill="white" stroke="black" points="164,-52 84,-52 84,-16 164,-16 164,-52"/>
<text text-anchor="middle" x="124" y="-31.5" font-family="Helvetica,sans-Serif" font-size="10.00">function_info</text>
</a>
</g>
</g>
<!-- dir_1fb090f0c6070330bfaccc4236d3ca0d&#45;&gt;dir_c9636d973c877190ddc5121fa1f43c4f -->
<g id="edge26" class="edge">
<title>dir_1fb090f0c6070330bfaccc4236d3ca0d&#45;&gt;dir_c9636d973c877190ddc5121fa1f43c4f</title>
<path fill="none" stroke="black" d="M129.99,-159.85C120.99,-150.12 112.17,-137.27 108,-124 101.63,-103.76 104.08,-79.72 109.11,-61.73"/>
<polygon fill="black" stroke="black" points="112.45,-62.75 112.22,-52.16 105.8,-60.59 112.45,-62.75"/>
<g id="a_edge26&#45;headlabel"><a xlink:href="dir_000001_000061.xhtml" target="_top" xlink:title="7">
<text text-anchor="middle" x="114.04" y="-64.55" font-family="Helvetica,sans-Serif" font-size="10.00">7</text>
</a>
</g>
</g>
<!-- dir_8bc26130589aa16388b5a02f17abf2c2 -->
<g id="node6" class="node">
<title>dir_8bc26130589aa16388b5a02f17abf2c2</title>
<g id="a_node6"><a xlink:href="dir_8bc26130589aa16388b5a02f17abf2c2.xhtml" target="_top" xlink:title="runtime">
<polygon fill="white" stroke="red" points="181.5,-124 126.5,-124 126.5,-88 181.5,-88 181.5,-124"/>
<text text-anchor="middle" x="154" y="-103.5" font-family="Helvetica,sans-Serif" font-size="10.00">runtime</text>
</a>
</g>
</g>
<!-- dir_1fb090f0c6070330bfaccc4236d3ca0d&#45;&gt;dir_8bc26130589aa16388b5a02f17abf2c2 -->
<g id="edge25" class="edge">
<title>dir_1fb090f0c6070330bfaccc4236d3ca0d&#45;&gt;dir_8bc26130589aa16388b5a02f17abf2c2</title>
<path fill="none" stroke="black" d="M148.08,-159.7C147.29,-151.98 147.06,-142.71 147.4,-134.11"/>
<polygon fill="black" stroke="black" points="150.9,-134.32 148.1,-124.1 143.92,-133.84 150.9,-134.32"/>
<g id="a_edge25&#45;headlabel"><a xlink:href="dir_000001_000006.xhtml" target="_top" xlink:title="3">
<text text-anchor="middle" x="153.48" y="-135.61" font-family="Helvetica,sans-Serif" font-size="10.00">3</text>
</a>
</g>
</g>
<!-- dir_5815af820a9cc9481f1d0990a0d60286 -->
<g id="node9" class="node">
<title>dir_5815af820a9cc9481f1d0990a0d60286</title>
<g id="a_node9"><a xlink:href="dir_5815af820a9cc9481f1d0990a0d60286.xhtml" target="_top" xlink:title="support">
<polygon fill="none" stroke="black" points="256,-196 202,-196 202,-160 256,-160 256,-196"/>
<text text-anchor="middle" x="229" y="-175.5" font-family="Helvetica,sans-Serif" font-size="10.00">support</text>
</a>
</g>
</g>
<!-- dir_1fb090f0c6070330bfaccc4236d3ca0d&#45;&gt;dir_5815af820a9cc9481f1d0990a0d60286 -->
<g id="edge27" class="edge">
<title>dir_1fb090f0c6070330bfaccc4236d3ca0d&#45;&gt;dir_5815af820a9cc9481f1d0990a0d60286</title>
<path fill="none" stroke="black" d="M181.25,-178C184.67,-178 188.09,-178 191.51,-178"/>
<polygon fill="black" stroke="black" points="191.77,-181.5 201.77,-178 191.77,-174.5 191.77,-181.5"/>
<g id="a_edge27&#45;headlabel"><a xlink:href="dir_000001_000031.xhtml" target="_top" xlink:title="9">
<text text-anchor="middle" x="188.17" y="-181.84" font-family="Helvetica,sans-Serif" font-size="10.00">9</text>
</a>
</g>
</g>
<!-- dir_aef88241dbfc98b719eab1a840581add -->
<g id="node3" class="node">
<title>dir_aef88241dbfc98b719eab1a840581add</title>
<g id="a_node3"><a xlink:href="dir_aef88241dbfc98b719eab1a840581add.xhtml" target="_top" xlink:title="dynamic_fusion">
<polygon fill="white" stroke="red" points="182,-268 88,-268 88,-232 182,-232 182,-268"/>
<text text-anchor="middle" x="135" y="-247.5" font-family="Helvetica,sans-Serif" font-size="10.00">dynamic_fusion</text>
</a>
</g>
</g>
<!-- dir_aef88241dbfc98b719eab1a840581add&#45;&gt;dir_1fb090f0c6070330bfaccc4236d3ca0d -->
<g id="edge8" class="edge">
<title>dir_aef88241dbfc98b719eab1a840581add&#45;&gt;dir_1fb090f0c6070330bfaccc4236d3ca0d</title>
<path fill="none" stroke="black" d="M139.7,-231.7C141.81,-223.9 144.36,-214.51 146.72,-205.83"/>
<polygon fill="black" stroke="black" points="150.12,-206.67 149.36,-196.1 143.36,-204.84 150.12,-206.67"/>
<g id="a_edge8&#45;headlabel"><a xlink:href="dir_000053_000001.xhtml" target="_top" xlink:title="26">
<text text-anchor="middle" x="151.91" y="-208.38" font-family="Helvetica,sans-Serif" font-size="10.00">26</text>
</a>
</g>
</g>
<!-- dir_c9636d973c877190ddc5121fa1f43c4f&#45;&gt;dir_1fb090f0c6070330bfaccc4236d3ca0d -->
<g id="edge24" class="edge">
<title>dir_c9636d973c877190ddc5121fa1f43c4f&#45;&gt;dir_1fb090f0c6070330bfaccc4236d3ca0d</title>
<path fill="none" stroke="black" d="M125.58,-52.16C123.33,-70.41 118.42,-99.9 126,-124 129.07,-133.75 134.63,-143.27 140.13,-151.49"/>
<polygon fill="black" stroke="black" points="137.36,-153.63 145.94,-159.85 143.1,-149.64 137.36,-153.63"/>
<g id="a_edge24&#45;headlabel"><a xlink:href="dir_000061_000001.xhtml" target="_top" xlink:title="8">
<text text-anchor="middle" x="132.97" y="-149.8" font-family="Helvetica,sans-Serif" font-size="10.00">8</text>
</a>
</g>
</g>
<!-- dir_99ae3712d1eecd2a93fc4d38b59a99ba&#45;&gt;dir_1fb090f0c6070330bfaccc4236d3ca0d -->
<g id="edge12" class="edge">
<title>dir_99ae3712d1eecd2a93fc4d38b59a99ba&#45;&gt;dir_1fb090f0c6070330bfaccc4236d3ca0d</title>
<path fill="none" stroke="black" d="M70.15,-231.88C84.53,-222.81 102.38,-211.55 117.91,-201.76"/>
<polygon fill="black" stroke="black" points="120.15,-204.48 126.74,-196.19 116.42,-198.56 120.15,-204.48"/>
<g id="a_edge12&#45;headlabel"><a xlink:href="dir_000013_000001.xhtml" target="_top" xlink:title="22">
<text text-anchor="middle" x="118.62" y="-206.3" font-family="Helvetica,sans-Serif" font-size="10.00">22</text>
</a>
</g>
</g>
<!-- dir_99ae3712d1eecd2a93fc4d38b59a99ba&#45;&gt;dir_c9636d973c877190ddc5121fa1f43c4f -->
<g id="edge11" class="edge">
<title>dir_99ae3712d1eecd2a93fc4d38b59a99ba&#45;&gt;dir_c9636d973c877190ddc5121fa1f43c4f</title>
<path fill="none" stroke="black" d="M49.49,-231.85C63.56,-194.68 96.96,-106.44 113.85,-61.82"/>
<polygon fill="black" stroke="black" points="117.21,-62.82 117.48,-52.23 110.66,-60.35 117.21,-62.82"/>
<g id="a_edge11&#45;headlabel"><a xlink:href="dir_000013_000061.xhtml" target="_top" xlink:title="4">
<text text-anchor="middle" x="118.59" y="-64.69" font-family="Helvetica,sans-Serif" font-size="10.00">4</text>
</a>
</g>
</g>
<!-- dir_99ae3712d1eecd2a93fc4d38b59a99ba&#45;&gt;dir_8bc26130589aa16388b5a02f17abf2c2 -->
<g id="edge10" class="edge">
<title>dir_99ae3712d1eecd2a93fc4d38b59a99ba&#45;&gt;dir_8bc26130589aa16388b5a02f17abf2c2</title>
<path fill="none" stroke="black" d="M56.39,-231.87C75.81,-207.03 111.91,-160.85 134.35,-132.14"/>
<polygon fill="black" stroke="black" points="137.16,-134.22 140.56,-124.19 131.65,-129.91 137.16,-134.22"/>
<g id="a_edge10&#45;headlabel"><a xlink:href="dir_000013_000006.xhtml" target="_top" xlink:title="25">
<text text-anchor="middle" x="137.19" y="-136.3" font-family="Helvetica,sans-Serif" font-size="10.00">25</text>
</a>
</g>
</g>
<!-- dir_cbdb8362360e11eafe2fa3bc74cf0ffd -->
<g id="node8" class="node">
<title>dir_cbdb8362360e11eafe2fa3bc74cf0ffd</title>
<g id="a_node8"><a xlink:href="dir_cbdb8362360e11eafe2fa3bc74cf0ffd.xhtml" target="_top" xlink:title="utils">
<polygon fill="white" stroke="red" points="368,-268 314,-268 314,-232 368,-232 368,-268"/>
<text text-anchor="middle" x="341" y="-247.5" font-family="Helvetica,sans-Serif" font-size="10.00">utils</text>
</a>
</g>
</g>
<!-- dir_99ae3712d1eecd2a93fc4d38b59a99ba&#45;&gt;dir_cbdb8362360e11eafe2fa3bc74cf0ffd -->
<g id="edge9" class="edge">
<title>dir_99ae3712d1eecd2a93fc4d38b59a99ba&#45;&gt;dir_cbdb8362360e11eafe2fa3bc74cf0ffd</title>
<path fill="none" stroke="black" d="M60.08,-268.22C67.85,-275.2 77.62,-282.36 88,-286 130.57,-300.93 248.07,-299.85 291,-286 298.87,-283.46 306.55,-279.17 313.44,-274.42"/>
<polygon fill="black" stroke="black" points="315.78,-277.04 321.69,-268.25 311.58,-271.43 315.78,-277.04"/>
<g id="a_edge9&#45;headlabel"><a xlink:href="dir_000013_000041.xhtml" target="_top" xlink:title="1">
<text text-anchor="middle" x="314.6" y="-278.97" font-family="Helvetica,sans-Serif" font-size="10.00">1</text>
</a>
</g>
</g>
<!-- dir_99ae3712d1eecd2a93fc4d38b59a99ba&#45;&gt;dir_5815af820a9cc9481f1d0990a0d60286 -->
<g id="edge13" class="edge">
<title>dir_99ae3712d1eecd2a93fc4d38b59a99ba&#45;&gt;dir_5815af820a9cc9481f1d0990a0d60286</title>
<path fill="none" stroke="black" d="M70.35,-235.61C73.24,-234.33 76.17,-233.11 79,-232 126.06,-213.62 142.37,-215.46 192.29,-196.42"/>
<polygon fill="black" stroke="black" points="193.62,-199.66 201.66,-192.76 191.07,-193.14 193.62,-199.66"/>
<g id="a_edge13&#45;headlabel"><a xlink:href="dir_000013_000031.xhtml" target="_top" xlink:title="3">
<text text-anchor="middle" x="191.31" y="-201.11" font-family="Helvetica,sans-Serif" font-size="10.00">3</text>
</a>
</g>
</g>
<!-- dir_8bc26130589aa16388b5a02f17abf2c2&#45;&gt;dir_1fb090f0c6070330bfaccc4236d3ca0d -->
<g id="edge22" class="edge">
<title>dir_8bc26130589aa16388b5a02f17abf2c2&#45;&gt;dir_1fb090f0c6070330bfaccc4236d3ca0d</title>
<path fill="none" stroke="black" d="M159.9,-124.1C160.7,-131.79 160.94,-141.05 160.6,-149.67"/>
<polygon fill="black" stroke="black" points="157.11,-149.48 159.92,-159.7 164.09,-149.96 157.11,-149.48"/>
<g id="a_edge22&#45;headlabel"><a xlink:href="dir_000006_000001.xhtml" target="_top" xlink:title="232">
<text text-anchor="middle" x="154.52" y="-143.2" font-family="Helvetica,sans-Serif" font-size="10.00">232</text>
</a>
</g>
</g>
<!-- dir_8bc26130589aa16388b5a02f17abf2c2&#45;&gt;dir_c9636d973c877190ddc5121fa1f43c4f -->
<g id="edge21" class="edge">
<title>dir_8bc26130589aa16388b5a02f17abf2c2&#45;&gt;dir_c9636d973c877190ddc5121fa1f43c4f</title>
<path fill="none" stroke="black" d="M146.58,-87.7C143.21,-79.81 139.13,-70.3 135.38,-61.55"/>
<polygon fill="black" stroke="black" points="138.49,-59.92 131.33,-52.1 132.05,-62.67 138.49,-59.92"/>
<g id="a_edge21&#45;headlabel"><a xlink:href="dir_000006_000061.xhtml" target="_top" xlink:title="29">
<text text-anchor="middle" x="142.51" y="-59.6" font-family="Helvetica,sans-Serif" font-size="10.00">29</text>
</a>
</g>
</g>
<!-- dir_68267d1309a1af8e8297ef4c3efbcdba -->
<g id="node7" class="node">
<title>dir_68267d1309a1af8e8297ef4c3efbcdba</title>
<g id="a_node7"><a xlink:href="dir_68267d1309a1af8e8297ef4c3efbcdba.xhtml" target="_top" xlink:title="src">
<polygon fill="white" stroke="red" points="340,-340 286,-340 286,-304 340,-304 340,-340"/>
<text text-anchor="middle" x="313" y="-319.5" font-family="Helvetica,sans-Serif" font-size="10.00">src</text>
</a>
</g>
</g>
<!-- dir_8bc26130589aa16388b5a02f17abf2c2&#45;&gt;dir_68267d1309a1af8e8297ef4c3efbcdba -->
<g id="edge20" class="edge">
<title>dir_8bc26130589aa16388b5a02f17abf2c2&#45;&gt;dir_68267d1309a1af8e8297ef4c3efbcdba</title>
<path fill="none" stroke="black" d="M181.54,-111.77C233.1,-122.44 342.15,-153.75 377,-232 383.51,-246.62 383.81,-253.52 377,-268 370.82,-281.13 359.62,-292.13 348.3,-300.64"/>
<polygon fill="black" stroke="black" points="346.27,-297.78 340.1,-306.39 350.29,-303.51 346.27,-297.78"/>
<g id="a_edge20&#45;headlabel"><a xlink:href="dir_000006_000003.xhtml" target="_top" xlink:title="1">
<text text-anchor="middle" x="347.58" y="-290.89" font-family="Helvetica,sans-Serif" font-size="10.00">1</text>
</a>
</g>
</g>
<!-- dir_8bc26130589aa16388b5a02f17abf2c2&#45;&gt;dir_5815af820a9cc9481f1d0990a0d60286 -->
<g id="edge23" class="edge">
<title>dir_8bc26130589aa16388b5a02f17abf2c2&#45;&gt;dir_5815af820a9cc9481f1d0990a0d60286</title>
<path fill="none" stroke="black" d="M172.33,-124.1C181.56,-132.72 192.91,-143.32 203.02,-152.76"/>
<polygon fill="black" stroke="black" points="200.76,-155.43 210.46,-159.7 205.54,-150.31 200.76,-155.43"/>
<g id="a_edge23&#45;headlabel"><a xlink:href="dir_000006_000031.xhtml" target="_top" xlink:title="4">
<text text-anchor="middle" x="196.2" y="-152.56" font-family="Helvetica,sans-Serif" font-size="10.00">4</text>
</a>
</g>
</g>
<!-- dir_68267d1309a1af8e8297ef4c3efbcdba&#45;&gt;dir_1fb090f0c6070330bfaccc4236d3ca0d -->
<g id="edge6" class="edge">
<title>dir_68267d1309a1af8e8297ef4c3efbcdba&#45;&gt;dir_1fb090f0c6070330bfaccc4236d3ca0d</title>
<path fill="none" stroke="black" d="M293.82,-303.87C265.65,-278.71 212.96,-231.65 180.92,-203.04"/>
<polygon fill="black" stroke="black" points="183.04,-200.24 173.25,-196.19 178.37,-205.46 183.04,-200.24"/>
<g id="a_edge6&#45;headlabel"><a xlink:href="dir_000003_000001.xhtml" target="_top" xlink:title="2638">
<text text-anchor="middle" x="187.61" y="-198.02" font-family="Helvetica,sans-Serif" font-size="10.00">2638</text>
</a>
</g>
</g>
<!-- dir_68267d1309a1af8e8297ef4c3efbcdba&#45;&gt;dir_aef88241dbfc98b719eab1a840581add -->
<g id="edge1" class="edge">
<title>dir_68267d1309a1af8e8297ef4c3efbcdba&#45;&gt;dir_aef88241dbfc98b719eab1a840581add</title>
<path fill="none" stroke="black" d="M285.97,-310.37C259.94,-300.13 219.88,-284.38 187.57,-271.67"/>
<polygon fill="black" stroke="black" points="188.84,-268.41 178.25,-268.01 186.27,-274.92 188.84,-268.41"/>
<g id="a_edge1&#45;headlabel"><a xlink:href="dir_000003_000053.xhtml" target="_top" xlink:title="51">
<text text-anchor="middle" x="193.22" y="-264.58" font-family="Helvetica,sans-Serif" font-size="10.00">51</text>
</a>
</g>
</g>
<!-- dir_68267d1309a1af8e8297ef4c3efbcdba&#45;&gt;dir_c9636d973c877190ddc5121fa1f43c4f -->
<g id="edge5" class="edge">
<title>dir_68267d1309a1af8e8297ef4c3efbcdba&#45;&gt;dir_c9636d973c877190ddc5121fa1f43c4f</title>
<path fill="none" stroke="black" d="M340.15,-317.38C368.49,-312.01 411.59,-298.97 432,-268 458.42,-227.92 459.83,-199.8 433,-160 374.8,-73.68 245.8,-46.95 174.25,-38.69"/>
<polygon fill="black" stroke="black" points="174.44,-35.19 164.13,-37.6 173.69,-42.15 174.44,-35.19"/>
<g id="a_edge5&#45;headlabel"><a xlink:href="dir_000003_000061.xhtml" target="_top" xlink:title="72">
<text text-anchor="middle" x="178.32" y="-30.25" font-family="Helvetica,sans-Serif" font-size="10.00">72</text>
</a>
</g>
</g>
<!-- dir_68267d1309a1af8e8297ef4c3efbcdba&#45;&gt;dir_99ae3712d1eecd2a93fc4d38b59a99ba -->
<g id="edge2" class="edge">
<title>dir_68267d1309a1af8e8297ef4c3efbcdba&#45;&gt;dir_99ae3712d1eecd2a93fc4d38b59a99ba</title>
<path fill="none" stroke="black" d="M285.8,-316.83C243.34,-309.89 158.8,-294.39 79.86,-267.91"/>
<polygon fill="black" stroke="black" points="80.85,-264.55 70.26,-264.63 78.59,-271.18 80.85,-264.55"/>
<g id="a_edge2&#45;headlabel"><a xlink:href="dir_000003_000013.xhtml" target="_top" xlink:title="308">
<text text-anchor="middle" x="85.17" y="-260.53" font-family="Helvetica,sans-Serif" font-size="10.00">308</text>
</a>
</g>
</g>
<!-- dir_68267d1309a1af8e8297ef4c3efbcdba&#45;&gt;dir_8bc26130589aa16388b5a02f17abf2c2 -->
<g id="edge4" class="edge">
<title>dir_68267d1309a1af8e8297ef4c3efbcdba&#45;&gt;dir_8bc26130589aa16388b5a02f17abf2c2</title>
<path fill="none" stroke="black" d="M340.2,-314.43C363.3,-307.25 395.02,-293.25 410,-268 434.49,-226.72 440.31,-197.22 410,-160 382.92,-126.74 256.32,-113.7 191.88,-109.16"/>
<polygon fill="black" stroke="black" points="191.94,-105.65 181.73,-108.47 191.47,-112.64 191.94,-105.65"/>
<g id="a_edge4&#45;headlabel"><a xlink:href="dir_000003_000006.xhtml" target="_top" xlink:title="508">
<text text-anchor="middle" x="195.72" y="-100.56" font-family="Helvetica,sans-Serif" font-size="10.00">508</text>
</a>
</g>
</g>
<!-- dir_68267d1309a1af8e8297ef4c3efbcdba&#45;&gt;dir_cbdb8362360e11eafe2fa3bc74cf0ffd -->
<g id="edge3" class="edge">
<title>dir_68267d1309a1af8e8297ef4c3efbcdba&#45;&gt;dir_cbdb8362360e11eafe2fa3bc74cf0ffd</title>
<path fill="none" stroke="black" d="M319.92,-303.7C323.07,-295.81 326.88,-286.3 330.38,-277.55"/>
<polygon fill="black" stroke="black" points="333.69,-278.69 334.16,-268.1 327.19,-276.09 333.69,-278.69"/>
<g id="a_edge3&#45;headlabel"><a xlink:href="dir_000003_000041.xhtml" target="_top" xlink:title="4">
<text text-anchor="middle" x="335" y="-280.58" font-family="Helvetica,sans-Serif" font-size="10.00">4</text>
</a>
</g>
</g>
<!-- dir_68267d1309a1af8e8297ef4c3efbcdba&#45;&gt;dir_5815af820a9cc9481f1d0990a0d60286 -->
<g id="edge7" class="edge">
<title>dir_68267d1309a1af8e8297ef4c3efbcdba&#45;&gt;dir_5815af820a9cc9481f1d0990a0d60286</title>
<path fill="none" stroke="black" d="M303.41,-303.83C293.29,-285.83 276.8,-256.76 262,-232 256.64,-223.02 250.63,-213.28 245.22,-204.63"/>
<polygon fill="black" stroke="black" points="248.14,-202.7 239.86,-196.09 242.21,-206.42 248.14,-202.7"/>
<g id="a_edge7&#45;headlabel"><a xlink:href="dir_000003_000031.xhtml" target="_top" xlink:title="218">
<text text-anchor="middle" x="252.46" y="-201.73" font-family="Helvetica,sans-Serif" font-size="10.00">218</text>
</a>
</g>
</g>
<!-- dir_cbdb8362360e11eafe2fa3bc74cf0ffd&#45;&gt;dir_1fb090f0c6070330bfaccc4236d3ca0d -->
<g id="edge18" class="edge">
<title>dir_cbdb8362360e11eafe2fa3bc74cf0ffd&#45;&gt;dir_1fb090f0c6070330bfaccc4236d3ca0d</title>
<path fill="none" stroke="black" d="M313.79,-239.87C283.94,-229.71 234.74,-212.55 193,-196 192.16,-195.67 191.31,-195.33 190.45,-194.98"/>
<polygon fill="black" stroke="black" points="191.75,-191.73 181.18,-191.12 189.07,-198.19 191.75,-191.73"/>
<g id="a_edge18&#45;headlabel"><a xlink:href="dir_000041_000001.xhtml" target="_top" xlink:title="23">
<text text-anchor="middle" x="196.16" y="-187.99" font-family="Helvetica,sans-Serif" font-size="10.00">23</text>
</a>
</g>
</g>
<!-- dir_cbdb8362360e11eafe2fa3bc74cf0ffd&#45;&gt;dir_aef88241dbfc98b719eab1a840581add -->
<g id="edge14" class="edge">
<title>dir_cbdb8362360e11eafe2fa3bc74cf0ffd&#45;&gt;dir_aef88241dbfc98b719eab1a840581add</title>
<path fill="none" stroke="black" d="M314,-250C273.37,-250 232.75,-250 192.12,-250"/>
<polygon fill="black" stroke="black" points="192.07,-246.5 182.07,-250 192.07,-253.5 192.07,-246.5"/>
<g id="a_edge14&#45;headlabel"><a xlink:href="dir_000041_000053.xhtml" target="_top" xlink:title="8">
<text text-anchor="middle" x="195.67" y="-241.16" font-family="Helvetica,sans-Serif" font-size="10.00">8</text>
</a>
</g>
</g>
<!-- dir_cbdb8362360e11eafe2fa3bc74cf0ffd&#45;&gt;dir_c9636d973c877190ddc5121fa1f43c4f -->
<g id="edge17" class="edge">
<title>dir_cbdb8362360e11eafe2fa3bc74cf0ffd&#45;&gt;dir_c9636d973c877190ddc5121fa1f43c4f</title>
<path fill="none" stroke="black" d="M335.36,-231.83C328.49,-212.78 315.48,-181.84 297,-160 259.67,-115.87 203.6,-79.11 165.48,-57.12"/>
<polygon fill="black" stroke="black" points="167.11,-54.02 156.68,-52.12 163.65,-60.1 167.11,-54.02"/>
<g id="a_edge17&#45;headlabel"><a xlink:href="dir_000041_000061.xhtml" target="_top" xlink:title="5">
<text text-anchor="middle" x="171.64" y="-50.82" font-family="Helvetica,sans-Serif" font-size="10.00">5</text>
</a>
</g>
</g>
<!-- dir_cbdb8362360e11eafe2fa3bc74cf0ffd&#45;&gt;dir_99ae3712d1eecd2a93fc4d38b59a99ba -->
<g id="edge15" class="edge">
<title>dir_cbdb8362360e11eafe2fa3bc74cf0ffd&#45;&gt;dir_99ae3712d1eecd2a93fc4d38b59a99ba</title>
<path fill="none" stroke="black" d="M321.69,-268.25C313,-275.23 302.2,-282.39 291,-286 248.07,-299.85 130.57,-300.93 88,-286 80.86,-283.5 74.01,-279.33 67.91,-274.7"/>
<polygon fill="black" stroke="black" points="70.01,-271.9 60.08,-268.22 65.55,-277.29 70.01,-271.9"/>
<g id="a_edge15&#45;headlabel"><a xlink:href="dir_000041_000013.xhtml" target="_top" xlink:title="8">
<text text-anchor="middle" x="74.59" y="-269.51" font-family="Helvetica,sans-Serif" font-size="10.00">8</text>
</a>
</g>
</g>
<!-- dir_cbdb8362360e11eafe2fa3bc74cf0ffd&#45;&gt;dir_8bc26130589aa16388b5a02f17abf2c2 -->
<g id="edge16" class="edge">
<title>dir_cbdb8362360e11eafe2fa3bc74cf0ffd&#45;&gt;dir_8bc26130589aa16388b5a02f17abf2c2</title>
<path fill="none" stroke="black" d="M329.59,-231.7C316.06,-212.24 291.91,-180.66 265,-160 242.72,-142.89 214.03,-129.38 191.4,-120.27"/>
<polygon fill="black" stroke="black" points="192.38,-116.9 181.79,-116.52 189.84,-123.42 192.38,-116.9"/>
<g id="a_edge16&#45;headlabel"><a xlink:href="dir_000041_000006.xhtml" target="_top" xlink:title="9">
<text text-anchor="middle" x="196.76" y="-113.06" font-family="Helvetica,sans-Serif" font-size="10.00">9</text>
</a>
</g>
</g>
<!-- dir_cbdb8362360e11eafe2fa3bc74cf0ffd&#45;&gt;dir_5815af820a9cc9481f1d0990a0d60286 -->
<g id="edge19" class="edge">
<title>dir_cbdb8362360e11eafe2fa3bc74cf0ffd&#45;&gt;dir_5815af820a9cc9481f1d0990a0d60286</title>
<path fill="none" stroke="black" d="M313.89,-232.05C299.14,-222.84 280.71,-211.32 264.79,-201.37"/>
<polygon fill="black" stroke="black" points="266.59,-198.36 256.25,-196.03 262.88,-204.3 266.59,-198.36"/>
<g id="a_edge19&#45;headlabel"><a xlink:href="dir_000041_000031.xhtml" target="_top" xlink:title="4">
<text text-anchor="middle" x="271.14" y="-195.36" font-family="Helvetica,sans-Serif" font-size="10.00">4</text>
</a>
</g>
</g>
<!-- dir_5815af820a9cc9481f1d0990a0d60286&#45;&gt;dir_214608ef36d61442cb2b0c1c4e9a7def -->
<g id="edge30" class="edge">
<title>dir_5815af820a9cc9481f1d0990a0d60286&#45;&gt;dir_214608ef36d61442cb2b0c1c4e9a7def</title>
<path fill="none" stroke="black" d="M225.17,-196.18C220.12,-215.53 209.62,-247.01 191,-268 179.75,-280.67 164.72,-291.08 150.07,-299.21"/>
<polygon fill="black" stroke="black" points="148.25,-296.22 141.04,-303.98 151.52,-302.41 148.25,-296.22"/>
<g id="a_edge30&#45;headlabel"><a xlink:href="dir_000031_000000.xhtml" target="_top" xlink:title="6">
<text text-anchor="middle" x="150.1" y="-289.53" font-family="Helvetica,sans-Serif" font-size="10.00">6</text>
</a>
</g>
</g>
<!-- dir_5815af820a9cc9481f1d0990a0d60286&#45;&gt;dir_1fb090f0c6070330bfaccc4236d3ca0d -->
<g id="edge29" class="edge">
<title>dir_5815af820a9cc9481f1d0990a0d60286&#45;&gt;dir_1fb090f0c6070330bfaccc4236d3ca0d</title>
<path fill="none" stroke="black" d="M201.77,-178C198.35,-178 194.93,-178 191.51,-178"/>
<polygon fill="black" stroke="black" points="191.25,-174.5 181.25,-178 191.25,-181.5 191.25,-174.5"/>
<g id="a_edge29&#45;headlabel"><a xlink:href="dir_000031_000001.xhtml" target="_top" xlink:title="6">
<text text-anchor="middle" x="194.84" y="-169.16" font-family="Helvetica,sans-Serif" font-size="10.00">6</text>
</a>
</g>
</g>
</g>
</svg>
