<?xml version="1.0" encoding="UTF-8" standalone="no"?>
<!DOCTYPE svg PUBLIC "-//W3C//DTD SVG 1.1//EN"
 "http://www.w3.org/Graphics/SVG/1.1/DTD/svg11.dtd">
<!-- Generated by graphviz version 2.43.0 (0)
 -->
<!-- Title: tests/CL Pages: 1 -->
<svg width="202pt" height="295pt"
 viewBox="0.00 0.00 201.62 295.00" xmlns="http://www.w3.org/2000/svg" xmlns:xlink="http://www.w3.org/1999/xlink">
<g id="graph0" class="graph" transform="scale(1 1) rotate(0) translate(4 291)">
<title>tests/CL</title>
<polygon fill="white" stroke="transparent" points="-4,4 -4,-291 197.62,-291 197.62,4 -4,4"/>
<g id="clust1" class="cluster">
<title>clusterdir_59425e443f801f1f2fd8bbe4959a3ccf</title>
<g id="a_clust1"><a xlink:href="dir_59425e443f801f1f2fd8bbe4959a3ccf.xhtml" target="_top" xlink:title="tests">
<polygon fill="#ddddee" stroke="black" points="78,-208 78,-279 148,-279 148,-208 78,-208"/>
<text text-anchor="middle" x="113" y="-267" font-family="Helvetica,sans-Serif" font-size="10.00">tests</text>
</a>
</g>
</g>
<!-- dir_896191444cf08ec8ade6f88256cb2bdd -->
<g id="node1" class="node">
<title>dir_896191444cf08ec8ade6f88256cb2bdd</title>
<g id="a_node1"><a xlink:href="dir_896191444cf08ec8ade6f88256cb2bdd.xhtml" target="_top" xlink:title="CL">
<polygon fill="#eeeeff" stroke="black" points="140,-252 86,-252 86,-216 140,-216 140,-252"/>
<text text-anchor="middle" x="113" y="-231.5" font-family="Helvetica,sans-Serif" font-size="10.00">CL</text>
</a>
</g>
</g>
<!-- dir_68267d1309a1af8e8297ef4c3efbcdba -->
<g id="node2" class="node">
<title>dir_68267d1309a1af8e8297ef4c3efbcdba</title>
<g id="a_node2"><a xlink:href="dir_68267d1309a1af8e8297ef4c3efbcdba.xhtml" target="_top" xlink:title="src">
<polygon fill="white" stroke="red" points="54,-180 0,-180 0,-144 54,-144 54,-180"/>
<text text-anchor="middle" x="27" y="-159.5" font-family="Helvetica,sans-Serif" font-size="10.00">src</text>
</a>
</g>
</g>
<!-- dir_896191444cf08ec8ade6f88256cb2bdd&#45;&gt;dir_68267d1309a1af8e8297ef4c3efbcdba -->
<g id="edge7" class="edge">
<title>dir_896191444cf08ec8ade6f88256cb2bdd&#45;&gt;dir_68267d1309a1af8e8297ef4c3efbcdba</title>
<path fill="none" stroke="black" d="M91.74,-215.7C80.91,-206.88 67.58,-196.03 55.84,-186.47"/>
<polygon fill="black" stroke="black" points="57.98,-183.7 48.01,-180.1 53.56,-189.13 57.98,-183.7"/>
<g id="a_edge7&#45;headlabel"><a xlink:href="dir_000572_000003.xhtml" target="_top" xlink:title="4">
<text text-anchor="middle" x="62.56" y="-181.27" font-family="Helvetica,sans-Serif" font-size="10.00">4</text>
</a>
</g>
</g>
<!-- dir_9e71e2da941d3cafc4d98a9f6ae3de4f -->
<g id="node3" class="node">
<title>dir_9e71e2da941d3cafc4d98a9f6ae3de4f</title>
<g id="a_node3"><a xlink:href="dir_9e71e2da941d3cafc4d98a9f6ae3de4f.xhtml" target="_top" xlink:title="framework">
<polygon fill="white" stroke="red" points="180,-180 110,-180 110,-144 180,-144 180,-180"/>
<text text-anchor="middle" x="145" y="-159.5" font-family="Helvetica,sans-Serif" font-size="10.00">framework</text>
</a>
</g>
</g>
<!-- dir_896191444cf08ec8ade6f88256cb2bdd&#45;&gt;dir_9e71e2da941d3cafc4d98a9f6ae3de4f -->
<g id="edge8" class="edge">
<title>dir_896191444cf08ec8ade6f88256cb2bdd&#45;&gt;dir_9e71e2da941d3cafc4d98a9f6ae3de4f</title>
<path fill="none" stroke="black" d="M120.91,-215.7C124.55,-207.73 128.95,-198.1 132.99,-189.26"/>
<polygon fill="black" stroke="black" points="136.21,-190.65 137.18,-180.1 129.84,-187.74 136.21,-190.65"/>
<g id="a_edge8&#45;headlabel"><a xlink:href="dir_000572_000038.xhtml" target="_top" xlink:title="1">
<text text-anchor="middle" x="137.29" y="-192.6" font-family="Helvetica,sans-Serif" font-size="10.00">1</text>
</a>
</g>
</g>
<!-- dir_214608ef36d61442cb2b0c1c4e9a7def -->
<g id="node4" class="node">
<title>dir_214608ef36d61442cb2b0c1c4e9a7def</title>
<g id="a_node4"><a xlink:href="dir_214608ef36d61442cb2b0c1c4e9a7def.xhtml" target="_top" xlink:title="arm_compute">
<polygon fill="white" stroke="red" points="124,-108 40,-108 40,-72 124,-72 124,-108"/>
<text text-anchor="middle" x="82" y="-87.5" font-family="Helvetica,sans-Serif" font-size="10.00">arm_compute</text>
</a>
</g>
</g>
<!-- dir_896191444cf08ec8ade6f88256cb2bdd&#45;&gt;dir_214608ef36d61442cb2b0c1c4e9a7def -->
<g id="edge9" class="edge">
<title>dir_896191444cf08ec8ade6f88256cb2bdd&#45;&gt;dir_214608ef36d61442cb2b0c1c4e9a7def</title>
<path fill="none" stroke="black" d="M109.06,-215.83C106.69,-205.46 103.63,-191.98 101,-180 96.45,-159.3 91.45,-135.85 87.72,-118.22"/>
<polygon fill="black" stroke="black" points="91.07,-117.14 85.58,-108.08 84.22,-118.58 91.07,-117.14"/>
<g id="a_edge9&#45;headlabel"><a xlink:href="dir_000572_000000.xhtml" target="_top" xlink:title="6">
<text text-anchor="middle" x="94.59" y="-117.57" font-family="Helvetica,sans-Serif" font-size="10.00">6</text>
</a>
</g>
</g>
<!-- dir_5815af820a9cc9481f1d0990a0d60286 -->
<g id="node5" class="node">
<title>dir_5815af820a9cc9481f1d0990a0d60286</title>
<g id="a_node5"><a xlink:href="dir_5815af820a9cc9481f1d0990a0d60286.xhtml" target="_top" xlink:title="support">
<polygon fill="none" stroke="black" points="109,-36 55,-36 55,0 109,0 109,-36"/>
<text text-anchor="middle" x="82" y="-15.5" font-family="Helvetica,sans-Serif" font-size="10.00">support</text>
</a>
</g>
</g>
<!-- dir_896191444cf08ec8ade6f88256cb2bdd&#45;&gt;dir_5815af820a9cc9481f1d0990a0d60286 -->
<g id="edge10" class="edge">
<title>dir_896191444cf08ec8ade6f88256cb2bdd&#45;&gt;dir_5815af820a9cc9481f1d0990a0d60286</title>
<path fill="none" stroke="black" d="M140.01,-222.14C157.45,-213.54 178.73,-199.68 189,-180 196.4,-165.81 192.68,-159.57 189,-144 180.78,-109.18 175.96,-99.44 153,-72 142.98,-60.02 129.73,-49.2 117.4,-40.51"/>
<polygon fill="black" stroke="black" points="119.3,-37.57 109.06,-34.85 115.36,-43.36 119.3,-37.57"/>
<g id="a_edge10&#45;headlabel"><a xlink:href="dir_000572_000031.xhtml" target="_top" xlink:title="1">
<text text-anchor="middle" x="123.86" y="-34.74" font-family="Helvetica,sans-Serif" font-size="10.00">1</text>
</a>
</g>
</g>
<!-- dir_68267d1309a1af8e8297ef4c3efbcdba&#45;&gt;dir_214608ef36d61442cb2b0c1c4e9a7def -->
<g id="edge1" class="edge">
<title>dir_68267d1309a1af8e8297ef4c3efbcdba&#45;&gt;dir_214608ef36d61442cb2b0c1c4e9a7def</title>
<path fill="none" stroke="black" d="M34.68,-143.7C40.41,-135.3 48.26,-125.07 55.97,-115.86"/>
<polygon fill="black" stroke="black" points="58.78,-117.96 62.67,-108.1 53.48,-113.39 58.78,-117.96"/>
<g id="a_edge1&#45;headlabel"><a xlink:href="dir_000003_000000.xhtml" target="_top" xlink:title="3591">
<text text-anchor="middle" x="58.59" y="-120.04" font-family="Helvetica,sans-Serif" font-size="10.00">3591</text>
</a>
</g>
</g>
<!-- dir_68267d1309a1af8e8297ef4c3efbcdba&#45;&gt;dir_5815af820a9cc9481f1d0990a0d60286 -->
<g id="edge2" class="edge">
<title>dir_68267d1309a1af8e8297ef4c3efbcdba&#45;&gt;dir_5815af820a9cc9481f1d0990a0d60286</title>
<path fill="none" stroke="black" d="M24.3,-143.81C22.17,-125.28 20.99,-95.31 31,-72 35.63,-61.22 43.5,-51.35 51.7,-43.13"/>
<polygon fill="black" stroke="black" points="54.33,-45.45 59.23,-36.06 49.54,-40.35 54.33,-45.45"/>
<g id="a_edge2&#45;headlabel"><a xlink:href="dir_000003_000031.xhtml" target="_top" xlink:title="218">
<text text-anchor="middle" x="53.66" y="-47.48" font-family="Helvetica,sans-Serif" font-size="10.00">218</text>
</a>
</g>
</g>
<!-- dir_9e71e2da941d3cafc4d98a9f6ae3de4f&#45;&gt;dir_214608ef36d61442cb2b0c1c4e9a7def -->
<g id="edge3" class="edge">
<title>dir_9e71e2da941d3cafc4d98a9f6ae3de4f&#45;&gt;dir_214608ef36d61442cb2b0c1c4e9a7def</title>
<path fill="none" stroke="black" d="M129.43,-143.7C121.8,-135.22 112.48,-124.86 104.12,-115.58"/>
<polygon fill="black" stroke="black" points="106.69,-113.2 97.39,-108.1 101.48,-117.88 106.69,-113.2"/>
<g id="a_edge3&#45;headlabel"><a xlink:href="dir_000038_000000.xhtml" target="_top" xlink:title="16">
<text text-anchor="middle" x="111.2" y="-111.47" font-family="Helvetica,sans-Serif" font-size="10.00">16</text>
</a>
</g>
</g>
<!-- dir_9e71e2da941d3cafc4d98a9f6ae3de4f&#45;&gt;dir_5815af820a9cc9481f1d0990a0d60286 -->
<g id="edge4" class="edge">
<title>dir_9e71e2da941d3cafc4d98a9f6ae3de4f&#45;&gt;dir_5815af820a9cc9481f1d0990a0d60286</title>
<path fill="none" stroke="black" d="M145.77,-143.7C145.92,-125.07 144.12,-95.02 133,-72 127.8,-61.24 119.59,-51.26 111.26,-42.94"/>
<polygon fill="black" stroke="black" points="113.66,-40.39 103.98,-36.06 108.85,-45.48 113.66,-40.39"/>
<g id="a_edge4&#45;headlabel"><a xlink:href="dir_000038_000031.xhtml" target="_top" xlink:title="6">
<text text-anchor="middle" x="118.22" y="-38.29" font-family="Helvetica,sans-Serif" font-size="10.00">6</text>
</a>
</g>
</g>
<!-- dir_214608ef36d61442cb2b0c1c4e9a7def&#45;&gt;dir_68267d1309a1af8e8297ef4c3efbcdba -->
<g id="edge5" class="edge">
<title>dir_214608ef36d61442cb2b0c1c4e9a7def&#45;&gt;dir_68267d1309a1af8e8297ef4c3efbcdba</title>
<path fill="none" stroke="black" d="M74.46,-108.1C68.76,-116.47 60.93,-126.69 53.21,-135.92"/>
<polygon fill="black" stroke="black" points="50.38,-133.84 46.51,-143.7 55.69,-138.4 50.38,-133.84"/>
<g id="a_edge5&#45;headlabel"><a xlink:href="dir_000000_000003.xhtml" target="_top" xlink:title="1">
<text text-anchor="middle" x="50.58" y="-126.76" font-family="Helvetica,sans-Serif" font-size="10.00">1</text>
</a>
</g>
</g>
<!-- dir_214608ef36d61442cb2b0c1c4e9a7def&#45;&gt;dir_5815af820a9cc9481f1d0990a0d60286 -->
<g id="edge6" class="edge">
<title>dir_214608ef36d61442cb2b0c1c4e9a7def&#45;&gt;dir_5815af820a9cc9481f1d0990a0d60286</title>
<path fill="none" stroke="black" d="M76.08,-71.7C75.29,-63.98 75.06,-54.71 75.4,-46.11"/>
<polygon fill="black" stroke="black" points="78.9,-46.32 76.1,-36.1 71.92,-45.84 78.9,-46.32"/>
<g id="a_edge6&#45;headlabel"><a xlink:href="dir_000000_000031.xhtml" target="_top" xlink:title="16">
<text text-anchor="middle" x="81.48" y="-47.61" font-family="Helvetica,sans-Serif" font-size="10.00">16</text>
</a>
</g>
</g>
<!-- dir_5815af820a9cc9481f1d0990a0d60286&#45;&gt;dir_214608ef36d61442cb2b0c1c4e9a7def -->
<g id="edge11" class="edge">
<title>dir_5815af820a9cc9481f1d0990a0d60286&#45;&gt;dir_214608ef36d61442cb2b0c1c4e9a7def</title>
<path fill="none" stroke="black" d="M87.9,-36.1C88.7,-43.79 88.94,-53.05 88.6,-61.67"/>
<polygon fill="black" stroke="black" points="85.11,-61.48 87.92,-71.7 92.09,-61.96 85.11,-61.48"/>
<g id="a_edge11&#45;headlabel"><a xlink:href="dir_000031_000000.xhtml" target="_top" xlink:title="6">
<text text-anchor="middle" x="82.52" y="-55.2" font-family="Helvetica,sans-Serif" font-size="10.00">6</text>
</a>
</g>
</g>
</g>
</svg>
