<?xml version="1.0" encoding="UTF-8" standalone="no"?>
<!DOCTYPE svg PUBLIC "-//W3C//DTD SVG 1.1//EN"
 "http://www.w3.org/Graphics/SVG/1.1/DTD/svg11.dtd">
<!-- Generated by graphviz version 2.43.0 (0)
 -->
<!-- Title: Graphical Class Hierarchy Pages: 1 -->
<svg width="347pt" height="370pt"
 viewBox="0.00 0.00 347.00 370.00" xmlns="http://www.w3.org/2000/svg" xmlns:xlink="http://www.w3.org/1999/xlink">
<g id="graph0" class="graph" transform="scale(1 1) rotate(0) translate(4 366)">
<title>Graphical Class Hierarchy</title>
<polygon fill="white" stroke="transparent" points="-4,4 -4,-366 343,-366 343,4 -4,4"/>
<!-- Node0 -->
<g id="node1" class="node">
<title>Node0</title>
<g id="a_node1"><a xlink:href="classarm__compute_1_1experimental_1_1dynamic__fusion_1_1_i_gpu_kernel_component.xhtml" target="_top" xlink:title="An abstract interface of a component.">
<polygon fill="white" stroke="black" points="0,-171.5 0,-190.5 126,-190.5 126,-171.5 0,-171.5"/>
<text text-anchor="middle" x="63" y="-178.5" font-family="Helvetica,sans-Serif" font-size="10.00">IGpuKernelComponent</text>
</a>
</g>
</g>
<!-- Node1 -->
<g id="node2" class="node">
<title>Node1</title>
<g id="a_node2"><a xlink:href="classarm__compute_1_1experimental_1_1dynamic__fusion_1_1_cl_component_activation.xhtml" target="_top" xlink:title=" ">
<polygon fill="white" stroke="black" points="184.5,-342.5 184.5,-361.5 316.5,-361.5 316.5,-342.5 184.5,-342.5"/>
<text text-anchor="middle" x="250.5" y="-349.5" font-family="Helvetica,sans-Serif" font-size="10.00">ClComponentActivation</text>
</a>
</g>
</g>
<!-- Node0&#45;&gt;Node1 -->
<g id="edge1" class="edge">
<title>Node0&#45;&gt;Node1</title>
<path fill="none" stroke="midnightblue" d="M70.85,-200.48C83.45,-233.32 113.54,-299.42 162,-333 168.77,-337.69 176.49,-341.26 184.47,-343.96"/>
<polygon fill="midnightblue" stroke="midnightblue" points="73.99,-198.88 67.24,-190.71 67.42,-201.3 73.99,-198.88"/>
</g>
<!-- Node2 -->
<g id="node3" class="node">
<title>Node2</title>
<g id="a_node3"><a xlink:href="classarm__compute_1_1experimental_1_1dynamic__fusion_1_1_cl_component_cast.xhtml" target="_top" xlink:title=" ">
<polygon fill="white" stroke="black" points="198.5,-304.5 198.5,-323.5 302.5,-323.5 302.5,-304.5 198.5,-304.5"/>
<text text-anchor="middle" x="250.5" y="-311.5" font-family="Helvetica,sans-Serif" font-size="10.00">ClComponentCast</text>
</a>
</g>
</g>
<!-- Node0&#45;&gt;Node2 -->
<g id="edge2" class="edge">
<title>Node0&#45;&gt;Node2</title>
<path fill="none" stroke="midnightblue" d="M74.57,-199.58C90.22,-225.28 122.04,-271.19 162,-295 172.95,-301.52 185.86,-305.82 198.36,-308.64"/>
<polygon fill="midnightblue" stroke="midnightblue" points="77.49,-197.63 69.39,-190.81 71.46,-201.2 77.49,-197.63"/>
</g>
<!-- Node3 -->
<g id="node4" class="node">
<title>Node3</title>
<g id="a_node4"><a xlink:href="classarm__compute_1_1experimental_1_1dynamic__fusion_1_1_cl_component_depthwise_conv2d.xhtml" target="_top" xlink:title=" ">
<polygon fill="white" stroke="black" points="165,-266.5 165,-285.5 336,-285.5 336,-266.5 165,-266.5"/>
<text text-anchor="middle" x="250.5" y="-273.5" font-family="Helvetica,sans-Serif" font-size="10.00">ClComponentDepthwiseConv2d</text>
</a>
</g>
</g>
<!-- Node0&#45;&gt;Node3 -->
<g id="edge3" class="edge">
<title>Node0&#45;&gt;Node3</title>
<path fill="none" stroke="midnightblue" d="M80.8,-197.92C99.15,-215.39 130.19,-242.15 162,-257 170.31,-260.88 179.44,-263.98 188.56,-266.45"/>
<polygon fill="midnightblue" stroke="midnightblue" points="82.91,-195.08 73.31,-190.61 78.03,-200.1 82.91,-195.08"/>
</g>
<!-- Node4 -->
<g id="node5" class="node">
<title>Node4</title>
<g id="a_node5"><a xlink:href="classarm__compute_1_1experimental_1_1dynamic__fusion_1_1_cl_component_direct_conv2d.xhtml" target="_top" xlink:title=" ">
<polygon fill="white" stroke="black" points="176,-228.5 176,-247.5 325,-247.5 325,-228.5 176,-228.5"/>
<text text-anchor="middle" x="250.5" y="-235.5" font-family="Helvetica,sans-Serif" font-size="10.00">ClComponentDirectConv2d</text>
</a>
</g>
</g>
<!-- Node0&#45;&gt;Node4 -->
<g id="edge4" class="edge">
<title>Node0&#45;&gt;Node4</title>
<path fill="none" stroke="midnightblue" d="M95.21,-194.54C114.25,-202.44 139.23,-212.16 162,-219 173.91,-222.58 186.92,-225.78 199.18,-228.48"/>
<polygon fill="midnightblue" stroke="midnightblue" points="96.42,-191.25 85.84,-190.6 93.7,-197.7 96.42,-191.25"/>
</g>
<!-- Node5 -->
<g id="node6" class="node">
<title>Node5</title>
<g id="a_node6"><a xlink:href="classarm__compute_1_1experimental_1_1dynamic__fusion_1_1_cl_component_elementwise_binary.xhtml" target="_top" xlink:title=" ">
<polygon fill="white" stroke="black" points="162,-190.5 162,-209.5 339,-209.5 339,-190.5 162,-190.5"/>
<text text-anchor="middle" x="250.5" y="-197.5" font-family="Helvetica,sans-Serif" font-size="10.00">ClComponentElementwiseBinary</text>
</a>
</g>
</g>
<!-- Node0&#45;&gt;Node5 -->
<g id="edge5" class="edge">
<title>Node0&#45;&gt;Node5</title>
<path fill="none" stroke="midnightblue" d="M136.14,-188.39C144.54,-189.25 153.19,-190.13 161.77,-191.01"/>
<polygon fill="midnightblue" stroke="midnightblue" points="136.33,-184.89 126.03,-187.35 135.62,-191.85 136.33,-184.89"/>
</g>
<!-- Node6 -->
<g id="node7" class="node">
<title>Node6</title>
<g id="a_node7"><a xlink:href="classarm__compute_1_1experimental_1_1dynamic__fusion_1_1_cl_component_mat_mul.xhtml" target="_top" xlink:title=" ">
<polygon fill="white" stroke="black" points="191,-152.5 191,-171.5 310,-171.5 310,-152.5 191,-152.5"/>
<text text-anchor="middle" x="250.5" y="-159.5" font-family="Helvetica,sans-Serif" font-size="10.00">ClComponentMatMul</text>
</a>
</g>
</g>
<!-- Node0&#45;&gt;Node6 -->
<g id="edge6" class="edge">
<title>Node0&#45;&gt;Node6</title>
<path fill="none" stroke="midnightblue" d="M136.01,-173.62C154.21,-171.76 173.54,-169.78 190.98,-167.99"/>
<polygon fill="midnightblue" stroke="midnightblue" points="135.62,-170.15 126.03,-174.65 136.33,-177.11 135.62,-170.15"/>
</g>
<!-- Node7 -->
<g id="node8" class="node">
<title>Node7</title>
<g id="a_node8"><a xlink:href="classarm__compute_1_1experimental_1_1dynamic__fusion_1_1_cl_component_pool2d.xhtml" target="_top" xlink:title=" ">
<polygon fill="white" stroke="black" points="192.5,-114.5 192.5,-133.5 308.5,-133.5 308.5,-114.5 192.5,-114.5"/>
<text text-anchor="middle" x="250.5" y="-121.5" font-family="Helvetica,sans-Serif" font-size="10.00">ClComponentPool2d</text>
</a>
</g>
</g>
<!-- Node0&#45;&gt;Node7 -->
<g id="edge7" class="edge">
<title>Node0&#45;&gt;Node7</title>
<path fill="none" stroke="midnightblue" d="M95.21,-167.46C114.25,-159.56 139.23,-149.84 162,-143 173.91,-139.42 186.92,-136.22 199.18,-133.52"/>
<polygon fill="midnightblue" stroke="midnightblue" points="93.7,-164.3 85.84,-171.4 96.42,-170.75 93.7,-164.3"/>
</g>
<!-- Node8 -->
<g id="node9" class="node">
<title>Node8</title>
<g id="a_node9"><a xlink:href="classarm__compute_1_1experimental_1_1dynamic__fusion_1_1_cl_component_reshape.xhtml" target="_top" xlink:title=" ">
<polygon fill="white" stroke="black" points="188,-76.5 188,-95.5 313,-95.5 313,-76.5 188,-76.5"/>
<text text-anchor="middle" x="250.5" y="-83.5" font-family="Helvetica,sans-Serif" font-size="10.00">ClComponentReshape</text>
</a>
</g>
</g>
<!-- Node0&#45;&gt;Node8 -->
<g id="edge8" class="edge">
<title>Node0&#45;&gt;Node8</title>
<path fill="none" stroke="midnightblue" d="M80.8,-164.08C99.15,-146.61 130.19,-119.85 162,-105 170.31,-101.12 179.44,-98.02 188.56,-95.55"/>
<polygon fill="midnightblue" stroke="midnightblue" points="78.03,-161.9 73.31,-171.39 82.91,-166.92 78.03,-161.9"/>
</g>
<!-- Node9 -->
<g id="node10" class="node">
<title>Node9</title>
<g id="a_node10"><a xlink:href="classarm__compute_1_1experimental_1_1dynamic__fusion_1_1_cl_component_resize.xhtml" target="_top" xlink:title=" ">
<polygon fill="white" stroke="black" points="193,-38.5 193,-57.5 308,-57.5 308,-38.5 193,-38.5"/>
<text text-anchor="middle" x="250.5" y="-45.5" font-family="Helvetica,sans-Serif" font-size="10.00">ClComponentResize</text>
</a>
</g>
</g>
<!-- Node0&#45;&gt;Node9 -->
<g id="edge9" class="edge">
<title>Node0&#45;&gt;Node9</title>
<path fill="none" stroke="midnightblue" d="M74.57,-162.42C90.22,-136.72 122.04,-90.81 162,-67 171.35,-61.43 182.13,-57.49 192.85,-54.7"/>
<polygon fill="midnightblue" stroke="midnightblue" points="71.46,-160.8 69.39,-171.19 77.49,-164.37 71.46,-160.8"/>
</g>
<!-- Node10 -->
<g id="node11" class="node">
<title>Node10</title>
<g id="a_node11"><a xlink:href="classarm__compute_1_1experimental_1_1dynamic__fusion_1_1_cl_component_store.xhtml" target="_top" xlink:title=" ">
<polygon fill="white" stroke="black" points="196.5,-0.5 196.5,-19.5 304.5,-19.5 304.5,-0.5 196.5,-0.5"/>
<text text-anchor="middle" x="250.5" y="-7.5" font-family="Helvetica,sans-Serif" font-size="10.00">ClComponentStore</text>
</a>
</g>
</g>
<!-- Node0&#45;&gt;Node10 -->
<g id="edge10" class="edge">
<title>Node0&#45;&gt;Node10</title>
<path fill="none" stroke="midnightblue" d="M70.85,-161.52C83.45,-128.68 113.54,-62.58 162,-29 172.09,-22.01 184.29,-17.52 196.33,-14.66"/>
<polygon fill="midnightblue" stroke="midnightblue" points="67.42,-160.7 67.24,-171.29 73.99,-163.12 67.42,-160.7"/>
</g>
</g>
</svg>
