<?xml version="1.0" encoding="UTF-8" standalone="no"?>
<!DOCTYPE svg PUBLIC "-//W3C//DTD SVG 1.1//EN"
 "http://www.w3.org/Graphics/SVG/1.1/DTD/svg11.dtd">
<!-- Generated by graphviz version 2.43.0 (0)
 -->
<!-- Title: ExecutionWorkload Pages: 1 -->
<svg width="156pt" height="95pt"
 viewBox="0.00 0.00 156.00 95.00" xmlns="http://www.w3.org/2000/svg" xmlns:xlink="http://www.w3.org/1999/xlink">
<g id="graph0" class="graph" transform="scale(1 1) rotate(0) translate(4 91)">
<title>ExecutionWorkload</title>
<polygon fill="white" stroke="transparent" points="-4,4 -4,-91 152,-91 152,4 -4,4"/>
<!-- Node1 -->
<g id="node1" class="node">
<title>Node1</title>
<g id="a_node1"><a xlink:title="Execution workload.">
<polygon fill="#bfbfbf" stroke="black" points="9,-0.5 9,-19.5 119,-19.5 119,-0.5 9,-0.5"/>
<text text-anchor="middle" x="64" y="-7.5" font-family="Helvetica,sans-Serif" font-size="10.00">ExecutionWorkload</text>
</a>
</g>
</g>
<!-- Node2 -->
<g id="node2" class="node">
<title>Node2</title>
<g id="a_node2"><a xlink:href="classarm__compute_1_1graph_1_1_graph.xhtml" target="_top" xlink:title="Graph class.">
<polygon fill="white" stroke="black" points="0,-67.5 0,-86.5 46,-86.5 46,-67.5 0,-67.5"/>
<text text-anchor="middle" x="23" y="-74.5" font-family="Helvetica,sans-Serif" font-size="10.00">Graph</text>
</a>
</g>
</g>
<!-- Node2&#45;&gt;Node1 -->
<g id="edge1" class="edge">
<title>Node2&#45;&gt;Node1</title>
<path fill="none" stroke="#9a32cd" stroke-dasharray="5,2" d="M34.02,-58.53C41.95,-45.95 52.33,-29.51 58.56,-19.63"/>
<polygon fill="#9a32cd" stroke="#9a32cd" points="30.9,-56.91 28.53,-67.23 36.82,-60.64 30.9,-56.91"/>
<text text-anchor="middle" x="61.5" y="-41" font-family="Helvetica,sans-Serif" font-size="10.00"> graph</text>
</g>
<!-- Node3 -->
<g id="node3" class="node">
<title>Node3</title>
<g id="a_node3"><a xlink:href="classarm__compute_1_1graph_1_1_graph_context.xhtml" target="_top" xlink:title="Graph context.">
<polygon fill="white" stroke="black" points="64,-67.5 64,-86.5 148,-86.5 148,-67.5 64,-67.5"/>
<text text-anchor="middle" x="106" y="-74.5" font-family="Helvetica,sans-Serif" font-size="10.00">GraphContext</text>
</a>
</g>
</g>
<!-- Node3&#45;&gt;Node1 -->
<g id="edge2" class="edge">
<title>Node3&#45;&gt;Node1</title>
<path fill="none" stroke="#9a32cd" stroke-dasharray="5,2" d="M94.71,-58.53C86.58,-45.95 75.96,-29.51 69.57,-19.63"/>
<polygon fill="#9a32cd" stroke="#9a32cd" points="91.97,-60.73 100.34,-67.23 97.85,-56.94 91.97,-60.73"/>
<text text-anchor="middle" x="96.5" y="-41" font-family="Helvetica,sans-Serif" font-size="10.00"> ctx</text>
</g>
</g>
</svg>
