<?xml version="1.0" encoding="UTF-8" standalone="no"?>
<!DOCTYPE svg PUBLIC "-//W3C//DTD SVG 1.1//EN"
 "http://www.w3.org/Graphics/SVG/1.1/DTD/svg11.dtd">
<!-- Generated by graphviz version 2.40.1 (20161225.0304)
 -->
<!-- Title: VerifyAccessor&lt; D &gt; Pages: 1 -->
<svg width="956pt" height="248pt"
 viewBox="0.00 0.00 956.00 248.00" xmlns="http://www.w3.org/2000/svg" xmlns:xlink="http://www.w3.org/1999/xlink">
<g id="graph0" class="graph" transform="scale(1 1) rotate(0) translate(4 244)">
<title>VerifyAccessor&lt; D &gt;</title>
<polygon fill="#ffffff" stroke="transparent" points="-4,4 -4,-244 952,-244 952,4 -4,4"/>
<!-- Node0 -->
<g id="node1" class="node">
<title>Node0</title>
<polygon fill="#bfbfbf" stroke="#000000" points="839,-76.5 839,-95.5 948,-95.5 948,-76.5 839,-76.5"/>
<text text-anchor="middle" x="893.5" y="-83.5" font-family="Helvetica,sans-Serif" font-size="10.00" fill="#000000">VerifyAccessor&lt; D &gt;</text>
</g>
<!-- Node1 -->
<g id="node2" class="node">
<title>Node1</title>
<g id="a_node2"><a xlink:href="classarm__compute_1_1graph_1_1_i_tensor_accessor.xhtml" target="_top" xlink:title="Tensor accessor interface. ">
<polygon fill="#ffffff" stroke="#000000" points="671,-95.5 671,-114.5 762,-114.5 762,-95.5 671,-95.5"/>
<text text-anchor="middle" x="716.5" y="-102.5" font-family="Helvetica,sans-Serif" font-size="10.00" fill="#000000">ITensorAccessor</text>
</a>
</g>
</g>
<!-- Node1&#45;&gt;Node0 -->
<g id="edge1" class="edge">
<title>Node1&#45;&gt;Node0</title>
<path fill="none" stroke="#191970" d="M772.2661,-99.0138C793.5463,-96.7295 817.7656,-94.1297 838.9329,-91.8575"/>
<polygon fill="#191970" stroke="#191970" points="771.6512,-95.5596 762.0819,-100.107 772.3984,-102.5196 771.6512,-95.5596"/>
</g>
<!-- Node2 -->
<g id="node3" class="node">
<title>Node2</title>
<g id="a_node3"><a xlink:href="structarm__compute_1_1utils_1_1_example_params.xhtml" target="_top" xlink:title="Structure holding all the graph Example parameters. ">
<polygon fill="#ffffff" stroke="#000000" points="672,-57.5 672,-76.5 761,-76.5 761,-57.5 672,-57.5"/>
<text text-anchor="middle" x="716.5" y="-64.5" font-family="Helvetica,sans-Serif" font-size="10.00" fill="#000000">ExampleParams</text>
</a>
</g>
</g>
<!-- Node2&#45;&gt;Node0 -->
<g id="edge2" class="edge">
<title>Node2&#45;&gt;Node0</title>
<path fill="none" stroke="#9a32cd" stroke-dasharray="5,2" d="M771.5022,-72.7373C787.469,-74.417 804.9313,-76.2677 821,-78 826.7915,-78.6243 832.8426,-79.2826 838.8729,-79.9425"/>
<polygon fill="#9a32cd" stroke="#9a32cd" points="771.5662,-69.2249 761.2553,-71.6612 770.835,-76.1866 771.5662,-69.2249"/>
<text text-anchor="middle" x="800.5" y="-81" font-family="Helvetica,sans-Serif" font-size="10.00" fill="#000000"> _params</text>
</g>
<!-- Node3 -->
<g id="node4" class="node">
<title>Node3</title>
<g id="a_node4"><a xlink:href="structarm__compute_1_1utils_1_1_common_params.xhtml" target="_top" xlink:title="Structure holding all the graph Example parameters. ">
<polygon fill="#ffffff" stroke="#000000" points="458.5,-119.5 458.5,-138.5 548.5,-138.5 548.5,-119.5 458.5,-119.5"/>
<text text-anchor="middle" x="503.5" y="-126.5" font-family="Helvetica,sans-Serif" font-size="10.00" fill="#000000">CommonParams</text>
</a>
</g>
</g>
<!-- Node3&#45;&gt;Node2 -->
<g id="edge3" class="edge">
<title>Node3&#45;&gt;Node2</title>
<path fill="none" stroke="#191970" d="M558.5837,-117.8419C587.06,-111.5454 622.208,-102.9473 653,-93 657.1376,-91.6634 677.2095,-83.3947 693.6949,-76.5355"/>
<polygon fill="#191970" stroke="#191970" points="557.8334,-114.4232 548.8076,-119.9716 559.3234,-121.2628 557.8334,-114.4232"/>
</g>
<!-- Node4 -->
<g id="node5" class="node">
<title>Node4</title>
<polygon fill="#ffffff" stroke="#bfbfbf" points="237,-220.5 237,-239.5 296,-239.5 296,-220.5 237,-220.5"/>
<text text-anchor="middle" x="266.5" y="-227.5" font-family="Helvetica,sans-Serif" font-size="10.00" fill="#000000">DataType</text>
</g>
<!-- Node4&#45;&gt;Node3 -->
<g id="edge4" class="edge">
<title>Node4&#45;&gt;Node3</title>
<path fill="none" stroke="#9a32cd" stroke-dasharray="5,2" d="M306.6173,-228.9141C340.1147,-226.5911 388.3038,-219.876 426,-201 456.7083,-185.6231 483.9065,-154.2928 496.3372,-138.5209"/>
<polygon fill="#9a32cd" stroke="#9a32cd" points="306.066,-225.4404 296.2897,-229.5238 306.4786,-232.4283 306.066,-225.4404"/>
<text text-anchor="middle" x="386.5" y="-226" font-family="Helvetica,sans-Serif" font-size="10.00" fill="#000000"> data_type</text>
</g>
<!-- Node5 -->
<g id="node6" class="node">
<title>Node5</title>
<g id="a_node6"><a xlink:href="structarm__compute_1_1utils_1_1_tensor_params.xhtml" target="_top" xlink:title="Structure holding all the input tensor graph parameters. ">
<polygon fill="#ffffff" stroke="#000000" points="226.5,-157.5 226.5,-176.5 306.5,-176.5 306.5,-157.5 226.5,-157.5"/>
<text text-anchor="middle" x="266.5" y="-164.5" font-family="Helvetica,sans-Serif" font-size="10.00" fill="#000000">TensorParams</text>
</a>
</g>
</g>
<!-- Node5&#45;&gt;Node3 -->
<g id="edge5" class="edge">
<title>Node5&#45;&gt;Node3</title>
<path fill="none" stroke="#9a32cd" stroke-dasharray="5,2" d="M316.6939,-158.952C358.5888,-152.2347 417.7807,-142.744 458.2375,-136.2573"/>
<polygon fill="#9a32cd" stroke="#9a32cd" points="316.0236,-155.5147 306.7038,-160.5538 317.1318,-162.4264 316.0236,-155.5147"/>
<text text-anchor="middle" x="386.5" y="-189" font-family="Helvetica,sans-Serif" font-size="10.00" fill="#000000"> output</text>
<text text-anchor="middle" x="386.5" y="-178" font-family="Helvetica,sans-Serif" font-size="10.00" fill="#000000">input</text>
<text text-anchor="middle" x="386.5" y="-167" font-family="Helvetica,sans-Serif" font-size="10.00" fill="#000000">bias</text>
<text text-anchor="middle" x="386.5" y="-156" font-family="Helvetica,sans-Serif" font-size="10.00" fill="#000000">weights</text>
</g>
<!-- Node6 -->
<g id="node7" class="node">
<title>Node6</title>
<g id="a_node7"><a xlink:href="classarm__compute_1_1_quantization_info.xhtml" target="_top" xlink:title="Quantization information. ">
<polygon fill="#ffffff" stroke="#000000" points="6.5,-157.5 6.5,-176.5 94.5,-176.5 94.5,-157.5 6.5,-157.5"/>
<text text-anchor="middle" x="50.5" y="-164.5" font-family="Helvetica,sans-Serif" font-size="10.00" fill="#000000">QuantizationInfo</text>
</a>
</g>
</g>
<!-- Node6&#45;&gt;Node5 -->
<g id="edge6" class="edge">
<title>Node6&#45;&gt;Node5</title>
<path fill="none" stroke="#9a32cd" stroke-dasharray="5,2" d="M105.0453,-167C142.7844,-167 192.1681,-167 226.3339,-167"/>
<polygon fill="#9a32cd" stroke="#9a32cd" points="104.7321,-163.5001 94.732,-167 104.732,-170.5001 104.7321,-163.5001"/>
<text text-anchor="middle" x="152.5" y="-170" font-family="Helvetica,sans-Serif" font-size="10.00" fill="#000000"> quant_info</text>
</g>
<!-- Node7 -->
<g id="node8" class="node">
<title>Node7</title>
<g id="a_node8"><a xlink:href="structarm__compute_1_1utils_1_1_verification_params.xhtml" target="_top" xlink:title="Structure holding all the verification graph parameters. ">
<polygon fill="#ffffff" stroke="#000000" points="217,-119.5 217,-138.5 316,-138.5 316,-119.5 217,-119.5"/>
<text text-anchor="middle" x="266.5" y="-126.5" font-family="Helvetica,sans-Serif" font-size="10.00" fill="#000000">VerificationParams</text>
</a>
</g>
</g>
<!-- Node7&#45;&gt;Node3 -->
<g id="edge7" class="edge">
<title>Node7&#45;&gt;Node3</title>
<path fill="none" stroke="#9a32cd" stroke-dasharray="5,2" d="M326.318,-129C367.3131,-129 420.8419,-129 458.2911,-129"/>
<polygon fill="#9a32cd" stroke="#9a32cd" points="326.183,-125.5001 316.183,-129 326.1829,-132.5001 326.183,-125.5001"/>
<text text-anchor="middle" x="386.5" y="-132" font-family="Helvetica,sans-Serif" font-size="10.00" fill="#000000"> verification</text>
</g>
<!-- Node8 -->
<g id="node9" class="node">
<title>Node8</title>
<g id="a_node9"><a xlink:href="structarm__compute_1_1utils_1_1_framework_params.xhtml" target="_top" xlink:title="Structure holding all the common graph parameters. ">
<polygon fill="#ffffff" stroke="#000000" points="217,-81.5 217,-100.5 316,-100.5 316,-81.5 217,-81.5"/>
<text text-anchor="middle" x="266.5" y="-88.5" font-family="Helvetica,sans-Serif" font-size="10.00" fill="#000000">FrameworkParams</text>
</a>
</g>
</g>
<!-- Node8&#45;&gt;Node3 -->
<g id="edge8" class="edge">
<title>Node8&#45;&gt;Node3</title>
<path fill="none" stroke="#9a32cd" stroke-dasharray="5,2" d="M326.4622,-98.9533C356.4151,-103.1024 393.1787,-108.4606 426,-114 436.5405,-115.779 447.8525,-117.8664 458.4875,-119.9092"/>
<polygon fill="#9a32cd" stroke="#9a32cd" points="326.5527,-95.4329 316.1691,-97.5379 325.5991,-102.3677 326.5527,-95.4329"/>
<text text-anchor="middle" x="386.5" y="-117" font-family="Helvetica,sans-Serif" font-size="10.00" fill="#000000"> common_params</text>
</g>
<!-- Node9 -->
<g id="node10" class="node">
<title>Node9</title>
<polygon fill="#ffffff" stroke="#bfbfbf" points="470,-76.5 470,-95.5 537,-95.5 537,-76.5 470,-76.5"/>
<text text-anchor="middle" x="503.5" y="-83.5" font-family="Helvetica,sans-Serif" font-size="10.00" fill="#000000">DataLayout</text>
</g>
<!-- Node9&#45;&gt;Node2 -->
<g id="edge9" class="edge">
<title>Node9&#45;&gt;Node2</title>
<path fill="none" stroke="#9a32cd" stroke-dasharray="5,2" d="M547.5481,-82.0708C583.8998,-78.8282 635.262,-74.2466 671.7935,-70.9879"/>
<polygon fill="#9a32cd" stroke="#9a32cd" points="546.8999,-78.6147 537.2505,-82.9894 547.5219,-85.587 546.8999,-78.6147"/>
<text text-anchor="middle" x="617" y="-81" font-family="Helvetica,sans-Serif" font-size="10.00" fill="#000000"> data_layout</text>
</g>
<!-- Node10 -->
<g id="node11" class="node">
<title>Node10</title>
<g id="a_node11"><a xlink:href="structarm__compute_1_1utils_1_1_convolution_params.xhtml" target="_top" xlink:title="Structure holding all the Convolution layer graph parameters. ">
<polygon fill="#ffffff" stroke="#000000" points="452.5,-38.5 452.5,-57.5 554.5,-57.5 554.5,-38.5 452.5,-38.5"/>
<text text-anchor="middle" x="503.5" y="-45.5" font-family="Helvetica,sans-Serif" font-size="10.00" fill="#000000">ConvolutionParams</text>
</a>
</g>
</g>
<!-- Node10&#45;&gt;Node2 -->
<g id="edge10" class="edge">
<title>Node10&#45;&gt;Node2</title>
<path fill="none" stroke="#9a32cd" stroke-dasharray="5,2" d="M564.8851,-51.0793C591.9423,-52.7013 624.0931,-54.9889 653,-58 659.091,-58.6345 665.4958,-59.4118 671.7984,-60.2412"/>
<polygon fill="#9a32cd" stroke="#9a32cd" points="564.9688,-47.5783 554.7819,-50.4901 564.5612,-54.5664 564.9688,-47.5783"/>
<text text-anchor="middle" x="617" y="-61" font-family="Helvetica,sans-Serif" font-size="10.00" fill="#000000"> convolution</text>
</g>
<!-- Node11 -->
<g id="node12" class="node">
<title>Node11</title>
<polygon fill="#ffffff" stroke="#bfbfbf" points="246,-38.5 246,-57.5 287,-57.5 287,-38.5 246,-38.5"/>
<text text-anchor="middle" x="266.5" y="-45.5" font-family="Helvetica,sans-Serif" font-size="10.00" fill="#000000">struct</text>
</g>
<!-- Node11&#45;&gt;Node10 -->
<g id="edge11" class="edge">
<title>Node11&#45;&gt;Node10</title>
<path fill="none" stroke="#9a32cd" stroke-dasharray="5,2" d="M297.1283,-48C336.3537,-48 404.8978,-48 452.1612,-48"/>
<polygon fill="#9a32cd" stroke="#9a32cd" points="297.1176,-44.5001 287.1176,-48 297.1176,-51.5001 297.1176,-44.5001"/>
<text text-anchor="middle" x="386.5" y="-62" font-family="Helvetica,sans-Serif" font-size="10.00" fill="#000000"> padding</text>
<text text-anchor="middle" x="386.5" y="-51" font-family="Helvetica,sans-Serif" font-size="10.00" fill="#000000">stride</text>
</g>
<!-- Node12 -->
<g id="node13" class="node">
<title>Node12</title>
<g id="a_node13"><a xlink:href="structarm__compute_1_1utils_1_1_fully_connected_params.xhtml" target="_top" xlink:title="Structure holding all the fully_connected layer graph parameters. ">
<polygon fill="#ffffff" stroke="#000000" points="444,-.5 444,-19.5 563,-19.5 563,-.5 444,-.5"/>
<text text-anchor="middle" x="503.5" y="-7.5" font-family="Helvetica,sans-Serif" font-size="10.00" fill="#000000">FullyConnectedParams</text>
</a>
</g>
</g>
<!-- Node12&#45;&gt;Node2 -->
<g id="edge12" class="edge">
<title>Node12&#45;&gt;Node2</title>
<path fill="none" stroke="#9a32cd" stroke-dasharray="5,2" d="M573.2568,-18.7056C598.7131,-22.8951 627.4999,-28.8311 653,-37 669.3722,-42.2448 686.9727,-50.8129 699.4819,-57.4524"/>
<polygon fill="#9a32cd" stroke="#9a32cd" points="573.7356,-15.2379 563.3108,-17.1284 572.6392,-22.1515 573.7356,-15.2379"/>
<text text-anchor="middle" x="617" y="-40" font-family="Helvetica,sans-Serif" font-size="10.00" fill="#000000"> fully_connected</text>
</g>
<!-- Node13 -->
<g id="node14" class="node">
<title>Node13</title>
<g id="a_node14"><a xlink:href="structarm__compute_1_1_fully_connected_layer_info.xhtml" target="_top" xlink:title="Fully connected layer info. ">
<polygon fill="#ffffff" stroke="#000000" points="204,-.5 204,-19.5 329,-19.5 329,-.5 204,-.5"/>
<text text-anchor="middle" x="266.5" y="-7.5" font-family="Helvetica,sans-Serif" font-size="10.00" fill="#000000">FullyConnectedLayerInfo</text>
</a>
</g>
</g>
<!-- Node13&#45;&gt;Node12 -->
<g id="edge13" class="edge">
<title>Node13&#45;&gt;Node12</title>
<path fill="none" stroke="#9a32cd" stroke-dasharray="5,2" d="M339.2834,-10C372.8084,-10 412.0992,-10 443.8413,-10"/>
<polygon fill="#9a32cd" stroke="#9a32cd" points="339.079,-6.5001 329.079,-10 339.0789,-13.5001 339.079,-6.5001"/>
<text text-anchor="middle" x="386.5" y="-13" font-family="Helvetica,sans-Serif" font-size="10.00" fill="#000000"> info</text>
</g>
<!-- Node14 -->
<g id="node15" class="node">
<title>Node14</title>
<g id="a_node15"><a xlink:href="classarm__compute_1_1_activation_layer_info.xhtml" target="_top" xlink:title="Activation Layer Information class. ">
<polygon fill="#ffffff" stroke="#000000" points="0,-.5 0,-19.5 101,-19.5 101,-.5 0,-.5"/>
<text text-anchor="middle" x="50.5" y="-7.5" font-family="Helvetica,sans-Serif" font-size="10.00" fill="#000000">ActivationLayerInfo</text>
</a>
</g>
</g>
<!-- Node14&#45;&gt;Node13 -->
<g id="edge14" class="edge">
<title>Node14&#45;&gt;Node13</title>
<path fill="none" stroke="#9a32cd" stroke-dasharray="5,2" d="M111.4994,-10C140.3488,-10 174.7569,-10 203.8176,-10"/>
<polygon fill="#9a32cd" stroke="#9a32cd" points="111.1424,-6.5001 101.1424,-10 111.1424,-13.5001 111.1424,-6.5001"/>
<text text-anchor="middle" x="152.5" y="-13" font-family="Helvetica,sans-Serif" font-size="10.00" fill="#000000"> activation_info</text>
</g>
</g>
</svg>
