<?xml version="1.0" encoding="UTF-8" standalone="no"?>
<!DOCTYPE svg PUBLIC "-//W3C//DTD SVG 1.1//EN"
 "http://www.w3.org/Graphics/SVG/1.1/DTD/svg11.dtd">
<!-- Generated by graphviz version 2.40.1 (20161225.0304)
 -->
<!-- Title: CLCol2ImKernel Pages: 1 -->
<svg width="253pt" height="163pt"
 viewBox="0.00 0.00 253.00 163.00" xmlns="http://www.w3.org/2000/svg" xmlns:xlink="http://www.w3.org/1999/xlink">
<g id="graph0" class="graph" transform="scale(1 1) rotate(0) translate(4 159)">
<title>CLCol2ImKernel</title>
<polygon fill="#ffffff" stroke="transparent" points="-4,4 -4,-159 249,-159 249,4 -4,4"/>
<!-- Node0 -->
<g id="node1" class="node">
<title>Node0</title>
<polygon fill="#bfbfbf" stroke="#000000" points="64.5,-.5 64.5,-19.5 153.5,-19.5 153.5,-.5 64.5,-.5"/>
<text text-anchor="middle" x="109" y="-7.5" font-family="Helvetica,sans-Serif" font-size="10.00" fill="#000000">CLCol2ImKernel</text>
</g>
<!-- Node1 -->
<g id="node2" class="node">
<title>Node1</title>
<g id="a_node2"><a xlink:href="classarm__compute_1_1_i_c_l_kernel.xhtml" target="_top" xlink:title="Common interface for all the OpenCL kernels. ">
<polygon fill="#ffffff" stroke="#000000" points="0,-78.5 0,-97.5 60,-97.5 60,-78.5 0,-78.5"/>
<text text-anchor="middle" x="30" y="-85.5" font-family="Helvetica,sans-Serif" font-size="10.00" fill="#000000">ICLKernel</text>
</a>
</g>
</g>
<!-- Node1&#45;&gt;Node0 -->
<g id="edge1" class="edge">
<title>Node1&#45;&gt;Node0</title>
<path fill="none" stroke="#191970" d="M46.837,-71.3762C62.7782,-55.6367 86.162,-32.5489 99.2338,-19.6426"/>
<polygon fill="#191970" stroke="#191970" points="44.3439,-68.9192 39.687,-78.4357 49.262,-73.9003 44.3439,-68.9192"/>
</g>
<!-- Node2 -->
<g id="node3" class="node">
<title>Node2</title>
<g id="a_node3"><a xlink:href="classarm__compute_1_1_i_kernel.xhtml" target="_top" xlink:title="Common information for all the kernels. ">
<polygon fill="#ffffff" stroke="#000000" points="6.5,-135.5 6.5,-154.5 53.5,-154.5 53.5,-135.5 6.5,-135.5"/>
<text text-anchor="middle" x="30" y="-142.5" font-family="Helvetica,sans-Serif" font-size="10.00" fill="#000000">IKernel</text>
</a>
</g>
</g>
<!-- Node2&#45;&gt;Node1 -->
<g id="edge2" class="edge">
<title>Node2&#45;&gt;Node1</title>
<path fill="none" stroke="#191970" d="M30,-125.2342C30,-115.8491 30,-105.0651 30,-97.5265"/>
<polygon fill="#191970" stroke="#191970" points="26.5001,-125.3307 30,-135.3307 33.5001,-125.3308 26.5001,-125.3307"/>
</g>
<!-- Node3 -->
<g id="node4" class="node">
<title>Node3</title>
<g id="a_node4"><a xlink:href="classarm__compute_1_1_i_c_l_tensor.xhtml" target="_top" xlink:title="Interface for OpenCL tensor. ">
<polygon fill="#ffffff" stroke="#000000" points="78,-78.5 78,-97.5 140,-97.5 140,-78.5 78,-78.5"/>
<text text-anchor="middle" x="109" y="-85.5" font-family="Helvetica,sans-Serif" font-size="10.00" fill="#000000">ICLTensor</text>
</a>
</g>
</g>
<!-- Node3&#45;&gt;Node0 -->
<g id="edge3" class="edge">
<title>Node3&#45;&gt;Node0</title>
<path fill="none" stroke="#9a32cd" stroke-dasharray="5,2" d="M109,-68.2866C109,-52.7395 109,-31.7276 109,-19.6426"/>
<polygon fill="#9a32cd" stroke="#9a32cd" points="105.5001,-68.4356 109,-78.4357 112.5001,-68.4357 105.5001,-68.4356"/>
<text text-anchor="middle" x="127" y="-52" font-family="Helvetica,sans-Serif" font-size="10.00" fill="#000000"> _output</text>
<text text-anchor="middle" x="127" y="-41" font-family="Helvetica,sans-Serif" font-size="10.00" fill="#000000">_input</text>
</g>
<!-- Node4 -->
<g id="node5" class="node">
<title>Node4</title>
<g id="a_node5"><a xlink:href="classarm__compute_1_1_i_tensor.xhtml" target="_top" xlink:title="Interface for Neon tensor. ">
<polygon fill="#ffffff" stroke="#000000" points="84,-135.5 84,-154.5 134,-154.5 134,-135.5 84,-135.5"/>
<text text-anchor="middle" x="109" y="-142.5" font-family="Helvetica,sans-Serif" font-size="10.00" fill="#000000">ITensor</text>
</a>
</g>
</g>
<!-- Node4&#45;&gt;Node3 -->
<g id="edge4" class="edge">
<title>Node4&#45;&gt;Node3</title>
<path fill="none" stroke="#191970" d="M109,-125.2342C109,-115.8491 109,-105.0651 109,-97.5265"/>
<polygon fill="#191970" stroke="#191970" points="105.5001,-125.3307 109,-135.3307 112.5001,-125.3308 105.5001,-125.3307"/>
</g>
<!-- Node5 -->
<g id="node6" class="node">
<title>Node5</title>
<g id="a_node6"><a xlink:href="classarm__compute_1_1_size2_d.xhtml" target="_top" xlink:title="Class for specifying the size of an image or rectangle. ">
<polygon fill="#ffffff" stroke="#000000" points="158.5,-78.5 158.5,-97.5 207.5,-97.5 207.5,-78.5 158.5,-78.5"/>
<text text-anchor="middle" x="183" y="-85.5" font-family="Helvetica,sans-Serif" font-size="10.00" fill="#000000">Size2D</text>
</a>
</g>
</g>
<!-- Node5&#45;&gt;Node0 -->
<g id="edge5" class="edge">
<title>Node5&#45;&gt;Node0</title>
<path fill="none" stroke="#9a32cd" stroke-dasharray="5,2" d="M172.7582,-69.6499C166.6437,-59.6359 158.2741,-47.4006 149,-38 142.0942,-31 133.2339,-24.5948 125.6083,-19.6825"/>
<polygon fill="#9a32cd" stroke="#9a32cd" points="169.8119,-71.5449 177.8856,-78.4054 175.8524,-68.0075 169.8119,-71.5449"/>
<text text-anchor="middle" x="205.5" y="-46.5" font-family="Helvetica,sans-Serif" font-size="10.00" fill="#000000"> _convolved_dims</text>
</g>
</g>
</svg>
