<?xml version="1.0" encoding="UTF-8" standalone="no"?>
<!DOCTYPE svg PUBLIC "-//W3C//DTD SVG 1.1//EN"
 "http://www.w3.org/Graphics/SVG/1.1/DTD/svg11.dtd">
<!-- Generated by graphviz version 2.40.1 (20161225.0304)
 -->
<!-- Title: CLDirectConvolutionLayerKernel Pages: 1 -->
<svg width="330pt" height="196pt"
 viewBox="0.00 0.00 330.00 196.00" xmlns="http://www.w3.org/2000/svg" xmlns:xlink="http://www.w3.org/1999/xlink">
<g id="graph0" class="graph" transform="scale(1 1) rotate(0) translate(4 192)">
<title>CLDirectConvolutionLayerKernel</title>
<polygon fill="#ffffff" stroke="transparent" points="-4,4 -4,-192 326,-192 326,4 -4,4"/>
<!-- Node0 -->
<g id="node1" class="node">
<title>Node0</title>
<polygon fill="#bfbfbf" stroke="#000000" points="93.5,-.5 93.5,-30.5 224.5,-30.5 224.5,-.5 93.5,-.5"/>
<text text-anchor="start" x="101.5" y="-18.5" font-family="Helvetica,sans-Serif" font-size="10.00" fill="#000000">CLDirectConvolutionLayer</text>
<text text-anchor="middle" x="159" y="-7.5" font-family="Helvetica,sans-Serif" font-size="10.00" fill="#000000">Kernel</text>
</g>
<!-- Node1 -->
<g id="node2" class="node">
<title>Node1</title>
<g id="a_node2"><a xlink:href="classarm__compute_1_1_i_c_l_kernel.xhtml" target="_top" xlink:title="Common interface for all the OpenCL kernels. ">
<polygon fill="#ffffff" stroke="#000000" points="0,-111.5 0,-130.5 60,-130.5 60,-111.5 0,-111.5"/>
<text text-anchor="middle" x="30" y="-118.5" font-family="Helvetica,sans-Serif" font-size="10.00" fill="#000000">ICLKernel</text>
</a>
</g>
</g>
<!-- Node1&#45;&gt;Node0 -->
<g id="edge1" class="edge">
<title>Node1&#45;&gt;Node0</title>
<path fill="none" stroke="#191970" d="M46.5555,-103.8565C61.6391,-88.6523 84.874,-66.246 107,-49 115.3006,-42.5301 124.8664,-36.1045 133.5124,-30.6373"/>
<polygon fill="#191970" stroke="#191970" points="43.967,-101.4971 39.4598,-111.0854 48.9626,-106.4006 43.967,-101.4971"/>
</g>
<!-- Node2 -->
<g id="node3" class="node">
<title>Node2</title>
<g id="a_node3"><a xlink:href="classarm__compute_1_1_i_kernel.xhtml" target="_top" xlink:title="Common information for all the kernels. ">
<polygon fill="#ffffff" stroke="#000000" points="6.5,-168.5 6.5,-187.5 53.5,-187.5 53.5,-168.5 6.5,-168.5"/>
<text text-anchor="middle" x="30" y="-175.5" font-family="Helvetica,sans-Serif" font-size="10.00" fill="#000000">IKernel</text>
</a>
</g>
</g>
<!-- Node2&#45;&gt;Node1 -->
<g id="edge2" class="edge">
<title>Node2&#45;&gt;Node1</title>
<path fill="none" stroke="#191970" d="M30,-158.2342C30,-148.8491 30,-138.0651 30,-130.5265"/>
<polygon fill="#191970" stroke="#191970" points="26.5001,-158.3307 30,-168.3307 33.5001,-158.3308 26.5001,-158.3307"/>
</g>
<!-- Node3 -->
<g id="node4" class="node">
<title>Node3</title>
<g id="a_node4"><a xlink:href="classarm__compute_1_1_i_c_l_tensor.xhtml" target="_top" xlink:title="Interface for OpenCL tensor. ">
<polygon fill="#ffffff" stroke="#000000" points="78,-111.5 78,-130.5 140,-130.5 140,-111.5 78,-111.5"/>
<text text-anchor="middle" x="109" y="-118.5" font-family="Helvetica,sans-Serif" font-size="10.00" fill="#000000">ICLTensor</text>
</a>
</g>
</g>
<!-- Node3&#45;&gt;Node0 -->
<g id="edge3" class="edge">
<title>Node3&#45;&gt;Node0</title>
<path fill="none" stroke="#9a32cd" stroke-dasharray="5,2" d="M110.3989,-100.8005C112.1521,-85.7336 116.102,-65.0678 125,-49 128.7736,-42.1857 134.3601,-35.8589 139.9193,-30.5804"/>
<polygon fill="#9a32cd" stroke="#9a32cd" points="106.8857,-100.7799 109.4408,-111.062 113.8554,-101.4307 106.8857,-100.7799"/>
<text text-anchor="middle" x="145" y="-85" font-family="Helvetica,sans-Serif" font-size="10.00" fill="#000000"> _output</text>
<text text-anchor="middle" x="145" y="-74" font-family="Helvetica,sans-Serif" font-size="10.00" fill="#000000">_weights</text>
<text text-anchor="middle" x="145" y="-63" font-family="Helvetica,sans-Serif" font-size="10.00" fill="#000000">_biases</text>
<text text-anchor="middle" x="145" y="-52" font-family="Helvetica,sans-Serif" font-size="10.00" fill="#000000">_input</text>
</g>
<!-- Node4 -->
<g id="node5" class="node">
<title>Node4</title>
<g id="a_node5"><a xlink:href="classarm__compute_1_1_i_tensor.xhtml" target="_top" xlink:title="Interface for Neon tensor. ">
<polygon fill="#ffffff" stroke="#000000" points="84,-168.5 84,-187.5 134,-187.5 134,-168.5 84,-168.5"/>
<text text-anchor="middle" x="109" y="-175.5" font-family="Helvetica,sans-Serif" font-size="10.00" fill="#000000">ITensor</text>
</a>
</g>
</g>
<!-- Node4&#45;&gt;Node3 -->
<g id="edge4" class="edge">
<title>Node4&#45;&gt;Node3</title>
<path fill="none" stroke="#191970" d="M109,-158.2342C109,-148.8491 109,-138.0651 109,-130.5265"/>
<polygon fill="#191970" stroke="#191970" points="105.5001,-158.3307 109,-168.3307 112.5001,-158.3308 105.5001,-158.3307"/>
</g>
<!-- Node5 -->
<g id="node6" class="node">
<title>Node5</title>
<g id="a_node6"><a xlink:href="structarm__compute_1_1_border_size.xhtml" target="_top" xlink:title="Container for 2D border size. ">
<polygon fill="#ffffff" stroke="#000000" points="158.5,-111.5 158.5,-130.5 223.5,-130.5 223.5,-111.5 158.5,-111.5"/>
<text text-anchor="middle" x="191" y="-118.5" font-family="Helvetica,sans-Serif" font-size="10.00" fill="#000000">BorderSize</text>
</a>
</g>
</g>
<!-- Node5&#45;&gt;Node0 -->
<g id="edge5" class="edge">
<title>Node5&#45;&gt;Node0</title>
<path fill="none" stroke="#9a32cd" stroke-dasharray="5,2" d="M185.0704,-101.4508C178.8567,-80.9651 169.2288,-49.2231 163.5763,-30.5875"/>
<polygon fill="#9a32cd" stroke="#9a32cd" points="181.7949,-102.7104 188.0469,-111.2639 188.4935,-100.6785 181.7949,-102.7104"/>
<text text-anchor="middle" x="211.5" y="-68.5" font-family="Helvetica,sans-Serif" font-size="10.00" fill="#000000"> _border_size</text>
</g>
<!-- Node6 -->
<g id="node7" class="node">
<title>Node6</title>
<g id="a_node7"><a xlink:href="classarm__compute_1_1_pad_stride_info.xhtml" target="_top" xlink:title="Padding and stride information class. ">
<polygon fill="#ffffff" stroke="#000000" points="242,-111.5 242,-130.5 318,-130.5 318,-111.5 242,-111.5"/>
<text text-anchor="middle" x="280" y="-118.5" font-family="Helvetica,sans-Serif" font-size="10.00" fill="#000000">PadStrideInfo</text>
</a>
</g>
</g>
<!-- Node6&#45;&gt;Node0 -->
<g id="edge6" class="edge">
<title>Node6&#45;&gt;Node0</title>
<path fill="none" stroke="#9a32cd" stroke-dasharray="5,2" d="M274.7989,-101.2983C269.6461,-85.2743 260.2756,-63.0855 245,-49 236.6364,-41.288 226.2968,-35.2769 215.7208,-30.6165"/>
<polygon fill="#9a32cd" stroke="#9a32cd" points="271.5395,-102.6213 277.7132,-111.2316 278.2564,-100.6507 271.5395,-102.6213"/>
<text text-anchor="middle" x="296.5" y="-68.5" font-family="Helvetica,sans-Serif" font-size="10.00" fill="#000000"> _conv_info</text>
</g>
</g>
</svg>
