<?xml version="1.0" encoding="UTF-8" standalone="no"?>
<!DOCTYPE svg PUBLIC "-//W3C//DTD SVG 1.1//EN"
 "http://www.w3.org/Graphics/SVG/1.1/DTD/svg11.dtd">
<!-- Generated by graphviz version 2.40.1 (20161225.0304)
 -->
<!-- Title: NEConvolutionKernel&lt; matrix_size &gt; Pages: 1 -->
<svg width="118pt" height="207pt"
 viewBox="0.00 0.00 118.00 207.00" xmlns="http://www.w3.org/2000/svg" xmlns:xlink="http://www.w3.org/1999/xlink">
<g id="graph0" class="graph" transform="scale(1 1) rotate(0) translate(4 203)">
<title>NEConvolutionKernel&lt; matrix_size &gt;</title>
<polygon fill="#ffffff" stroke="transparent" points="-4,4 -4,-203 114,-203 114,4 -4,4"/>
<!-- Node0 -->
<g id="node1" class="node">
<title>Node0</title>
<polygon fill="#bfbfbf" stroke="#000000" points="0,-.5 0,-30.5 110,-30.5 110,-.5 0,-.5"/>
<text text-anchor="start" x="8" y="-18.5" font-family="Helvetica,sans-Serif" font-size="10.00" fill="#000000">NEConvolutionKernel</text>
<text text-anchor="middle" x="55" y="-7.5" font-family="Helvetica,sans-Serif" font-size="10.00" fill="#000000">&lt; matrix_size &gt;</text>
</g>
<!-- Node1 -->
<g id="node2" class="node">
<title>Node1</title>
<g id="a_node2"><a xlink:href="classarm__compute_1_1_i_c_p_p_simple_kernel.xhtml" target="_top" xlink:title="Interface for simple C++ kernels having 1 tensor input and 1 tensor output. ">
<polygon fill="#ffffff" stroke="#000000" points="9,-67.5 9,-86.5 101,-86.5 101,-67.5 9,-67.5"/>
<text text-anchor="middle" x="55" y="-74.5" font-family="Helvetica,sans-Serif" font-size="10.00" fill="#000000">INESimpleKernel</text>
</a>
</g>
</g>
<!-- Node1&#45;&gt;Node0 -->
<g id="edge1" class="edge">
<title>Node1&#45;&gt;Node0</title>
<path fill="none" stroke="#191970" d="M55,-57.3693C55,-48.681 55,-38.6241 55,-30.5446"/>
<polygon fill="#191970" stroke="#191970" points="51.5001,-57.3906 55,-67.3906 58.5001,-57.3907 51.5001,-57.3906"/>
</g>
<!-- Node2 -->
<g id="node3" class="node">
<title>Node2</title>
<g id="a_node3"><a xlink:href="classarm__compute_1_1_i_c_p_p_kernel.xhtml" target="_top" xlink:title="Common interface for all kernels implemented in C++. ">
<polygon fill="#ffffff" stroke="#000000" points="21,-123.5 21,-142.5 89,-142.5 89,-123.5 21,-123.5"/>
<text text-anchor="middle" x="55" y="-130.5" font-family="Helvetica,sans-Serif" font-size="10.00" fill="#000000">ICPPKernel</text>
</a>
</g>
</g>
<!-- Node2&#45;&gt;Node1 -->
<g id="edge2" class="edge">
<title>Node2&#45;&gt;Node1</title>
<path fill="none" stroke="#191970" d="M55,-113.1575C55,-104.155 55,-93.9199 55,-86.6427"/>
<polygon fill="#191970" stroke="#191970" points="51.5001,-113.2455 55,-123.2455 58.5001,-113.2456 51.5001,-113.2455"/>
</g>
<!-- Node3 -->
<g id="node4" class="node">
<title>Node3</title>
<g id="a_node4"><a xlink:href="classarm__compute_1_1_i_kernel.xhtml" target="_top" xlink:title="Common information for all the kernels. ">
<polygon fill="#ffffff" stroke="#000000" points="31.5,-179.5 31.5,-198.5 78.5,-198.5 78.5,-179.5 31.5,-179.5"/>
<text text-anchor="middle" x="55" y="-186.5" font-family="Helvetica,sans-Serif" font-size="10.00" fill="#000000">IKernel</text>
</a>
</g>
</g>
<!-- Node3&#45;&gt;Node2 -->
<g id="edge3" class="edge">
<title>Node3&#45;&gt;Node2</title>
<path fill="none" stroke="#191970" d="M55,-169.1575C55,-160.155 55,-149.9199 55,-142.6427"/>
<polygon fill="#191970" stroke="#191970" points="51.5001,-169.2455 55,-179.2455 58.5001,-169.2456 51.5001,-169.2455"/>
</g>
</g>
</svg>
