<?xml version="1.0" encoding="UTF-8" standalone="no"?>
<!DOCTYPE svg PUBLIC "-//W3C//DTD SVG 1.1//EN"
 "http://www.w3.org/Graphics/SVG/1.1/DTD/svg11.dtd">
<!-- Generated by graphviz version 2.40.1 (20161225.0304)
 -->
<!-- Title: NEWarpPerspectiveKernel&lt; interpolation &gt; Pages: 1 -->
<svg width="142pt" height="207pt"
 viewBox="0.00 0.00 142.00 207.00" xmlns="http://www.w3.org/2000/svg" xmlns:xlink="http://www.w3.org/1999/xlink">
<g id="graph0" class="graph" transform="scale(1 1) rotate(0) translate(4 203)">
<title>NEWarpPerspectiveKernel&lt; interpolation &gt;</title>
<polygon fill="#ffffff" stroke="transparent" points="-4,4 -4,-203 138,-203 138,4 -4,4"/>
<!-- Node0 -->
<g id="node1" class="node">
<title>Node0</title>
<polygon fill="#bfbfbf" stroke="#000000" points="0,-.5 0,-30.5 134,-30.5 134,-.5 0,-.5"/>
<text text-anchor="start" x="8" y="-18.5" font-family="Helvetica,sans-Serif" font-size="10.00" fill="#000000">NEWarpPerspectiveKernel</text>
<text text-anchor="middle" x="67" y="-7.5" font-family="Helvetica,sans-Serif" font-size="10.00" fill="#000000">&lt; interpolation &gt;</text>
</g>
<!-- Node1 -->
<g id="node2" class="node">
<title>Node1</title>
<g id="a_node2"><a xlink:href="classarm__compute_1_1_i_n_e_warp_kernel.xhtml" target="_top" xlink:title="Common interface for warp affine and warp perspective. ">
<polygon fill="#ffffff" stroke="#000000" points="24.5,-67.5 24.5,-86.5 109.5,-86.5 109.5,-67.5 24.5,-67.5"/>
<text text-anchor="middle" x="67" y="-74.5" font-family="Helvetica,sans-Serif" font-size="10.00" fill="#000000">INEWarpKernel</text>
</a>
</g>
</g>
<!-- Node1&#45;&gt;Node0 -->
<g id="edge1" class="edge">
<title>Node1&#45;&gt;Node0</title>
<path fill="none" stroke="#191970" d="M67,-57.3693C67,-48.681 67,-38.6241 67,-30.5446"/>
<polygon fill="#191970" stroke="#191970" points="63.5001,-57.3906 67,-67.3906 70.5001,-57.3907 63.5001,-57.3906"/>
</g>
<!-- Node2 -->
<g id="node3" class="node">
<title>Node2</title>
<g id="a_node3"><a xlink:href="classarm__compute_1_1_i_c_p_p_kernel.xhtml" target="_top" xlink:title="Common interface for all kernels implemented in C++. ">
<polygon fill="#ffffff" stroke="#000000" points="36,-123.5 36,-142.5 98,-142.5 98,-123.5 36,-123.5"/>
<text text-anchor="middle" x="67" y="-130.5" font-family="Helvetica,sans-Serif" font-size="10.00" fill="#000000">INEKernel</text>
</a>
</g>
</g>
<!-- Node2&#45;&gt;Node1 -->
<g id="edge2" class="edge">
<title>Node2&#45;&gt;Node1</title>
<path fill="none" stroke="#191970" d="M67,-113.1575C67,-104.155 67,-93.9199 67,-86.6427"/>
<polygon fill="#191970" stroke="#191970" points="63.5001,-113.2455 67,-123.2455 70.5001,-113.2456 63.5001,-113.2455"/>
</g>
<!-- Node3 -->
<g id="node4" class="node">
<title>Node3</title>
<g id="a_node4"><a xlink:href="classarm__compute_1_1_i_kernel.xhtml" target="_top" xlink:title="Common information for all the kernels. ">
<polygon fill="#ffffff" stroke="#000000" points="43.5,-179.5 43.5,-198.5 90.5,-198.5 90.5,-179.5 43.5,-179.5"/>
<text text-anchor="middle" x="67" y="-186.5" font-family="Helvetica,sans-Serif" font-size="10.00" fill="#000000">IKernel</text>
</a>
</g>
</g>
<!-- Node3&#45;&gt;Node2 -->
<g id="edge3" class="edge">
<title>Node3&#45;&gt;Node2</title>
<path fill="none" stroke="#191970" d="M67,-169.1575C67,-160.155 67,-149.9199 67,-142.6427"/>
<polygon fill="#191970" stroke="#191970" points="63.5001,-169.2455 67,-179.2455 70.5001,-169.2456 63.5001,-169.2455"/>
</g>
</g>
</svg>
