<?xml version="1.0" encoding="UTF-8" standalone="no"?>
<!DOCTYPE svg PUBLIC "-//W3C//DTD SVG 1.1//EN"
 "http://www.w3.org/Graphics/SVG/1.1/DTD/svg11.dtd">
<!-- Generated by graphviz version 2.40.1 (20161225.0304)
 -->
<!-- Title: CLQLSTMLayerNormalizationKernel Pages: 1 -->
<svg width="155pt" height="151pt"
 viewBox="0.00 0.00 155.00 151.00" xmlns="http://www.w3.org/2000/svg" xmlns:xlink="http://www.w3.org/1999/xlink">
<g id="graph0" class="graph" transform="scale(1 1) rotate(0) translate(4 147)">
<title>CLQLSTMLayerNormalizationKernel</title>
<polygon fill="#ffffff" stroke="transparent" points="-4,4 -4,-147 151,-147 151,4 -4,4"/>
<!-- Node0 -->
<g id="node1" class="node">
<title>Node0</title>
<polygon fill="#bfbfbf" stroke="#000000" points="0,-.5 0,-30.5 147,-30.5 147,-.5 0,-.5"/>
<text text-anchor="start" x="8" y="-18.5" font-family="Helvetica,sans-Serif" font-size="10.00" fill="#000000">CLQLSTMLayerNormalization</text>
<text text-anchor="middle" x="73.5" y="-7.5" font-family="Helvetica,sans-Serif" font-size="10.00" fill="#000000">Kernel</text>
</g>
<!-- Node1 -->
<g id="node2" class="node">
<title>Node1</title>
<g id="a_node2"><a xlink:href="classarm__compute_1_1_i_c_l_kernel.xhtml" target="_top" xlink:title="Common interface for all the OpenCL kernels. ">
<polygon fill="#ffffff" stroke="#000000" points="43.5,-67.5 43.5,-86.5 103.5,-86.5 103.5,-67.5 43.5,-67.5"/>
<text text-anchor="middle" x="73.5" y="-74.5" font-family="Helvetica,sans-Serif" font-size="10.00" fill="#000000">ICLKernel</text>
</a>
</g>
</g>
<!-- Node1&#45;&gt;Node0 -->
<g id="edge1" class="edge">
<title>Node1&#45;&gt;Node0</title>
<path fill="none" stroke="#191970" d="M73.5,-57.3693C73.5,-48.681 73.5,-38.6241 73.5,-30.5446"/>
<polygon fill="#191970" stroke="#191970" points="70.0001,-57.3906 73.5,-67.3906 77.0001,-57.3907 70.0001,-57.3906"/>
</g>
<!-- Node2 -->
<g id="node3" class="node">
<title>Node2</title>
<g id="a_node3"><a xlink:href="classarm__compute_1_1_i_kernel.xhtml" target="_top" xlink:title="Common information for all the kernels. ">
<polygon fill="#ffffff" stroke="#000000" points="50,-123.5 50,-142.5 97,-142.5 97,-123.5 50,-123.5"/>
<text text-anchor="middle" x="73.5" y="-130.5" font-family="Helvetica,sans-Serif" font-size="10.00" fill="#000000">IKernel</text>
</a>
</g>
</g>
<!-- Node2&#45;&gt;Node1 -->
<g id="edge2" class="edge">
<title>Node2&#45;&gt;Node1</title>
<path fill="none" stroke="#191970" d="M73.5,-113.1575C73.5,-104.155 73.5,-93.9199 73.5,-86.6427"/>
<polygon fill="#191970" stroke="#191970" points="70.0001,-113.2455 73.5,-123.2455 77.0001,-113.2456 70.0001,-113.2455"/>
</g>
</g>
</svg>
