<?xml version="1.0" encoding="UTF-8" standalone="no"?>
<!DOCTYPE svg PUBLIC "-//W3C//DTD SVG 1.1//EN"
 "http://www.w3.org/Graphics/SVG/1.1/DTD/svg11.dtd">
<!-- Generated by graphviz version 2.40.1 (20161225.0304)
 -->
<!-- Title: ToggleOption Pages: 1 -->
<svg width="175pt" height="209pt"
 viewBox="0.00 0.00 175.00 209.00" xmlns="http://www.w3.org/2000/svg" xmlns:xlink="http://www.w3.org/1999/xlink">
<g id="graph0" class="graph" transform="scale(1 1) rotate(0) translate(4 205)">
<title>ToggleOption</title>
<polygon fill="#ffffff" stroke="transparent" points="-4,4 -4,-205 171,-205 171,4 -4,4"/>
<!-- Node0 -->
<g id="node1" class="node">
<title>Node0</title>
<polygon fill="#bfbfbf" stroke="#000000" points="18.5,-.5 18.5,-19.5 92.5,-19.5 92.5,-.5 18.5,-.5"/>
<text text-anchor="middle" x="55.5" y="-7.5" font-family="Helvetica,sans-Serif" font-size="10.00" fill="#000000">ToggleOption</text>
</g>
<!-- Node1 -->
<g id="node2" class="node">
<title>Node1</title>
<g id="a_node2"><a xlink:href="classarm__compute_1_1utils_1_1_simple_option.xhtml" target="_top" xlink:title="SimpleOption\&lt; bool \&gt;">
<polygon fill="#ffffff" stroke="#000000" points="0,-57.5 0,-76.5 111,-76.5 111,-57.5 0,-57.5"/>
<text text-anchor="middle" x="55.5" y="-64.5" font-family="Helvetica,sans-Serif" font-size="10.00" fill="#000000">SimpleOption&lt; bool &gt;</text>
</a>
</g>
</g>
<!-- Node1&#45;&gt;Node0 -->
<g id="edge1" class="edge">
<title>Node1&#45;&gt;Node0</title>
<path fill="none" stroke="#191970" d="M55.5,-47.2342C55.5,-37.8491 55.5,-27.0651 55.5,-19.5265"/>
<polygon fill="#191970" stroke="#191970" points="52.0001,-47.3307 55.5,-57.3307 59.0001,-47.3308 52.0001,-47.3307"/>
</g>
<!-- Node2 -->
<g id="node3" class="node">
<title>Node2</title>
<g id="a_node3"><a xlink:href="classarm__compute_1_1utils_1_1_option.xhtml" target="_top" xlink:title="Abstract base class for a command line option. ">
<polygon fill="#ffffff" stroke="#000000" points="29,-181.5 29,-200.5 74,-200.5 74,-181.5 29,-181.5"/>
<text text-anchor="middle" x="51.5" y="-188.5" font-family="Helvetica,sans-Serif" font-size="10.00" fill="#000000">Option</text>
</a>
</g>
</g>
<!-- Node2&#45;&gt;Node1 -->
<g id="edge2" class="edge">
<title>Node2&#45;&gt;Node1</title>
<path fill="none" stroke="#191970" d="M52.1429,-171.0697C53.0138,-144.0713 54.5346,-96.9273 55.1876,-76.6849"/>
<polygon fill="#191970" stroke="#191970" points="48.6382,-171.1622 51.8139,-181.2699 55.6346,-171.388 48.6382,-171.1622"/>
</g>
<!-- Node3 -->
<g id="node4" class="node">
<title>Node3</title>
<g id="a_node4"><a xlink:href="classarm__compute_1_1utils_1_1_simple_option.xhtml" target="_top" xlink:title="Implementation of an option that accepts a single value. ">
<polygon fill="#ffffff" stroke="#000000" points="68,-124.5 68,-143.5 167,-143.5 167,-124.5 68,-124.5"/>
<text text-anchor="middle" x="117.5" y="-131.5" font-family="Helvetica,sans-Serif" font-size="10.00" fill="#000000">SimpleOption&lt; T &gt;</text>
</a>
</g>
</g>
<!-- Node2&#45;&gt;Node3 -->
<g id="edge4" class="edge">
<title>Node2&#45;&gt;Node3</title>
<path fill="none" stroke="#191970" d="M70.5674,-174.5327C82.2141,-164.4742 96.6967,-151.9664 106.4693,-143.5265"/>
<polygon fill="#191970" stroke="#191970" points="67.9766,-172.1456 62.696,-181.3307 72.5519,-177.4434 67.9766,-172.1456"/>
</g>
<!-- Node3&#45;&gt;Node1 -->
<g id="edge3" class="edge">
<title>Node3&#45;&gt;Node1</title>
<path fill="none" stroke="#ffa500" stroke-dasharray="5,2" d="M101.5047,-116.7147C89.6842,-103.941 74.0282,-87.0224 64.3666,-76.5817"/>
<polygon fill="#ffa500" stroke="#ffa500" points="99.2561,-119.4381 108.6169,-124.4005 104.3939,-114.6837 99.2561,-119.4381"/>
<text text-anchor="middle" x="109.5" y="-98" font-family="Helvetica,sans-Serif" font-size="10.00" fill="#000000"> &lt; bool &gt;</text>
</g>
</g>
</svg>
