<?xml version="1.0" encoding="UTF-8" standalone="no"?>
<!DOCTYPE svg PUBLIC "-//W3C//DTD SVG 1.1//EN"
 "http://www.w3.org/Graphics/SVG/1.1/DTD/svg11.dtd">
<!-- Generated by graphviz version 2.40.1 (20161225.0304)
 -->
<!-- Title: arm_compute/core Pages: 1 -->
<svg width="471pt" height="219pt"
 viewBox="0.00 0.00 470.96 219.00" xmlns="http://www.w3.org/2000/svg" xmlns:xlink="http://www.w3.org/1999/xlink">
<g id="graph0" class="graph" transform="scale(1 1) rotate(0) translate(4 215)">
<title>arm_compute/core</title>
<polygon fill="#ffffff" stroke="transparent" points="-4,4 -4,-215 466.9596,-215 466.9596,4 -4,4"/>
<g id="clust1" class="cluster">
<title>clusterdir_214608ef36d61442cb2b0c1c4e9a7def</title>
<g id="a_clust1"><a xlink:href="dir_214608ef36d61442cb2b0c1c4e9a7def.xhtml" target="_top" xlink:title="arm_compute">
<polygon fill="#ddddee" stroke="#000000" points="54.9596,-8 54.9596,-167 400.9596,-167 400.9596,-8 54.9596,-8"/>
<text text-anchor="middle" x="227.9596" y="-155" font-family="Helvetica,sans-Serif" font-size="10.00" fill="#000000">arm_compute</text>
</a>
</g>
</g>
<g id="clust2" class="cluster">
<title>clusterdir_1fb090f0c6070330bfaccc4236d3ca0d</title>
<g id="a_clust2"><a xlink:href="dir_1fb090f0c6070330bfaccc4236d3ca0d.xhtml" target="_top">
<polygon fill="#eeeeff" stroke="#000000" points="62.9596,-16 62.9596,-140 392.9596,-140 392.9596,-16 62.9596,-16"/>
</a>
</g>
</g>
<!-- dir_1fb090f0c6070330bfaccc4236d3ca0d -->
<g id="node1" class="node">
<title>dir_1fb090f0c6070330bfaccc4236d3ca0d</title>
<text text-anchor="middle" x="169.9596" y="-111.5" font-family="Helvetica,sans-Serif" font-size="10.00" fill="#000000">core</text>
</g>
<!-- dir_7b0825b7536eda12b63e5d87347b1c7d -->
<g id="node6" class="node">
<title>dir_7b0825b7536eda12b63e5d87347b1c7d</title>
<g id="a_node6"><a xlink:href="dir_7b0825b7536eda12b63e5d87347b1c7d.xhtml" target="_top" xlink:title="utils">
<polygon fill="#ffffff" stroke="#ff0000" points="124.9596,-60 70.9596,-60 70.9596,-24 124.9596,-24 124.9596,-60"/>
<text text-anchor="middle" x="97.9596" y="-39.5" font-family="Helvetica,sans-Serif" font-size="10.00" fill="#000000">utils</text>
</a>
</g>
</g>
<!-- dir_1fb090f0c6070330bfaccc4236d3ca0d&#45;&gt;dir_7b0825b7536eda12b63e5d87347b1c7d -->
<g id="edge7" class="edge">
<title>dir_1fb090f0c6070330bfaccc4236d3ca0d&#45;&gt;dir_7b0825b7536eda12b63e5d87347b1c7d</title>
<path fill="none" stroke="#000000" d="M151.791,-95.8314C143.2444,-87.2848 132.904,-76.9443 123.5795,-67.6198"/>
<polygon fill="#000000" stroke="#000000" points="125.9189,-65.0095 116.3729,-60.4133 120.9691,-69.9592 125.9189,-65.0095"/>
<g id="a_edge7&#45;headlabel"><a xlink:href="dir_000001_000012.xhtml" target="_top" xlink:title="7">
<text text-anchor="middle" x="130.4683" y="-63.0436" font-family="Helvetica,sans-Serif" font-size="10.00" fill="#000000">7</text>
</a>
</g>
</g>
<!-- dir_5815af820a9cc9481f1d0990a0d60286 -->
<g id="node8" class="node">
<title>dir_5815af820a9cc9481f1d0990a0d60286</title>
<g id="a_node8"><a xlink:href="dir_5815af820a9cc9481f1d0990a0d60286.xhtml" target="_top" xlink:title="support">
<polygon fill="none" stroke="#000000" points="462.9596,-60 408.9596,-60 408.9596,-24 462.9596,-24 462.9596,-60"/>
<text text-anchor="middle" x="435.9596" y="-39.5" font-family="Helvetica,sans-Serif" font-size="10.00" fill="#000000">support</text>
</a>
</g>
</g>
<!-- dir_1fb090f0c6070330bfaccc4236d3ca0d&#45;&gt;dir_5815af820a9cc9481f1d0990a0d60286 -->
<g id="edge8" class="edge">
<title>dir_1fb090f0c6070330bfaccc4236d3ca0d&#45;&gt;dir_5815af820a9cc9481f1d0990a0d60286</title>
<path fill="none" stroke="#000000" d="M197.4387,-95.8389C278.927,-68.4889 305.8373,-86.2474 387.9596,-60 391.6888,-58.8081 395.5287,-57.348 399.3546,-55.7799"/>
<polygon fill="#000000" stroke="#000000" points="400.95,-58.9042 408.7652,-51.7506 398.1948,-52.4693 400.95,-58.9042"/>
<g id="a_edge8&#45;headlabel"><a xlink:href="dir_000001_000028.xhtml" target="_top" xlink:title="9">
<text text-anchor="middle" x="398.7631" y="-60.4291" font-family="Helvetica,sans-Serif" font-size="10.00" fill="#000000">9</text>
</a>
</g>
</g>
<!-- dir_1633709b037eda5b8477677909f78129 -->
<g id="node2" class="node">
<title>dir_1633709b037eda5b8477677909f78129</title>
<g id="a_node2"><a xlink:href="dir_1633709b037eda5b8477677909f78129.xhtml" target="_top" xlink:title="CL">
<polygon fill="#ffffff" stroke="#000000" points="268.9596,-132 214.9596,-132 214.9596,-96 268.9596,-96 268.9596,-132"/>
<text text-anchor="middle" x="241.9596" y="-111.5" font-family="Helvetica,sans-Serif" font-size="10.00" fill="#000000">CL</text>
</a>
</g>
</g>
<!-- dir_7484b841a86f2d7fdd057c9b24fbf230 -->
<g id="node3" class="node">
<title>dir_7484b841a86f2d7fdd057c9b24fbf230</title>
<g id="a_node3"><a xlink:href="dir_7484b841a86f2d7fdd057c9b24fbf230.xhtml" target="_top" xlink:title="CPP">
<polygon fill="#ffffff" stroke="#ff0000" points="124.9596,-132 70.9596,-132 70.9596,-96 124.9596,-96 124.9596,-132"/>
<text text-anchor="middle" x="97.9596" y="-111.5" font-family="Helvetica,sans-Serif" font-size="10.00" fill="#000000">CPP</text>
</a>
</g>
</g>
<!-- dir_a0d10d1f11f896cb40f799a595f5f383 -->
<g id="node4" class="node">
<title>dir_a0d10d1f11f896cb40f799a595f5f383</title>
<g id="a_node4"><a xlink:href="dir_a0d10d1f11f896cb40f799a595f5f383.xhtml" target="_top" xlink:title="experimental">
<polygon fill="#ffffff" stroke="#000000" points="214.9596,-60 142.9596,-60 142.9596,-24 214.9596,-24 214.9596,-60"/>
<text text-anchor="middle" x="178.9596" y="-39.5" font-family="Helvetica,sans-Serif" font-size="10.00" fill="#000000">experimental</text>
</a>
</g>
</g>
<!-- dir_7484b841a86f2d7fdd057c9b24fbf230&#45;&gt;dir_a0d10d1f11f896cb40f799a595f5f383 -->
<g id="edge14" class="edge">
<title>dir_7484b841a86f2d7fdd057c9b24fbf230&#45;&gt;dir_a0d10d1f11f896cb40f799a595f5f383</title>
<path fill="none" stroke="#000000" d="M118.3994,-95.8314C128.2801,-87.0485 140.292,-76.3712 151.0047,-66.8489"/>
<polygon fill="#000000" stroke="#000000" points="153.3776,-69.4224 158.5265,-60.1628 148.7271,-64.1906 153.3776,-69.4224"/>
<g id="a_edge14&#45;headlabel"><a xlink:href="dir_000009_000011.xhtml" target="_top" xlink:title="1">
<text text-anchor="middle" x="152.5773" y="-71.4326" font-family="Helvetica,sans-Serif" font-size="10.00" fill="#000000">1</text>
</a>
</g>
</g>
<!-- dir_8bc26130589aa16388b5a02f17abf2c2 -->
<g id="node7" class="node">
<title>dir_8bc26130589aa16388b5a02f17abf2c2</title>
<g id="a_node7"><a xlink:href="dir_8bc26130589aa16388b5a02f17abf2c2.xhtml" target="_top" xlink:title="runtime">
<polygon fill="#ffffff" stroke="#ff0000" points="124.9596,-211 70.9596,-211 70.9596,-175 124.9596,-175 124.9596,-211"/>
<text text-anchor="middle" x="97.9596" y="-190.5" font-family="Helvetica,sans-Serif" font-size="10.00" fill="#000000">runtime</text>
</a>
</g>
</g>
<!-- dir_7484b841a86f2d7fdd057c9b24fbf230&#45;&gt;dir_8bc26130589aa16388b5a02f17abf2c2 -->
<g id="edge13" class="edge">
<title>dir_7484b841a86f2d7fdd057c9b24fbf230&#45;&gt;dir_8bc26130589aa16388b5a02f17abf2c2</title>
<path fill="none" stroke="#000000" d="M92.1688,-132.2234C91.2121,-141.779 90.9711,-153.7025 91.4457,-164.4513"/>
<polygon fill="#000000" stroke="#000000" points="87.9715,-164.945 92.1589,-174.6772 94.9546,-164.4579 87.9715,-164.945"/>
<g id="a_edge13&#45;headlabel"><a xlink:href="dir_000009_000007.xhtml" target="_top" xlink:title="1">
<text text-anchor="middle" x="84.8892" y="-159.0566" font-family="Helvetica,sans-Serif" font-size="10.00" fill="#000000">1</text>
</a>
</g>
</g>
<!-- dir_7484b841a86f2d7fdd057c9b24fbf230&#45;&gt;dir_5815af820a9cc9481f1d0990a0d60286 -->
<g id="edge15" class="edge">
<title>dir_7484b841a86f2d7fdd057c9b24fbf230&#45;&gt;dir_5815af820a9cc9481f1d0990a0d60286</title>
<path fill="none" stroke="#000000" d="M125.0914,-99.2808C128.0311,-98.0358 131.0222,-96.9081 133.9596,-96 246.6747,-61.1527 283.7141,-93.0826 396.9596,-60 397.6844,-59.7883 398.4128,-59.5651 399.1435,-59.3318"/>
<polygon fill="#000000" stroke="#000000" points="400.4813,-62.569 408.6533,-55.826 398.0599,-56.0011 400.4813,-62.569"/>
<g id="a_edge15&#45;headlabel"><a xlink:href="dir_000009_000028.xhtml" target="_top" xlink:title="1">
<text text-anchor="middle" x="398.0906" y="-63.9763" font-family="Helvetica,sans-Serif" font-size="10.00" fill="#000000">1</text>
</a>
</g>
</g>
<!-- dir_541ebbb21ca179b54b469d645ff46bd9 -->
<g id="node5" class="node">
<title>dir_541ebbb21ca179b54b469d645ff46bd9</title>
<g id="a_node5"><a xlink:href="dir_541ebbb21ca179b54b469d645ff46bd9.xhtml" target="_top" xlink:title="GLES_COMPUTE">
<polygon fill="#ffffff" stroke="#ff0000" points="384.9596,-132 286.9596,-132 286.9596,-96 384.9596,-96 384.9596,-132"/>
<text text-anchor="middle" x="335.9596" y="-111.5" font-family="Helvetica,sans-Serif" font-size="10.00" fill="#000000">GLES_COMPUTE</text>
</a>
</g>
</g>
<!-- dir_7b0825b7536eda12b63e5d87347b1c7d&#45;&gt;dir_8bc26130589aa16388b5a02f17abf2c2 -->
<g id="edge9" class="edge">
<title>dir_7b0825b7536eda12b63e5d87347b1c7d&#45;&gt;dir_8bc26130589aa16388b5a02f17abf2c2</title>
<path fill="none" stroke="#000000" d="M70.7617,-51.1217C50.8151,-59.409 25.167,-73.7823 12.9596,-96 -2.2357,-123.656 -5.8086,-141.6325 12.9596,-167 18.927,-175.0656 40.7621,-181.6456 60.8058,-186.1682"/>
<polygon fill="#000000" stroke="#000000" points="60.2166,-189.6211 70.7264,-188.2815 61.6751,-182.7747 60.2166,-189.6211"/>
<g id="a_edge9&#45;headlabel"><a xlink:href="dir_000012_000007.xhtml" target="_top" xlink:title="1">
<text text-anchor="middle" x="56.1093" y="-189.1492" font-family="Helvetica,sans-Serif" font-size="10.00" fill="#000000">1</text>
</a>
</g>
</g>
<!-- dir_7b0825b7536eda12b63e5d87347b1c7d&#45;&gt;dir_5815af820a9cc9481f1d0990a0d60286 -->
<g id="edge10" class="edge">
<title>dir_7b0825b7536eda12b63e5d87347b1c7d&#45;&gt;dir_5815af820a9cc9481f1d0990a0d60286</title>
<path fill="none" stroke="#000000" d="M115.0411,-60.2173C122.8059,-67.1981 132.5747,-74.3571 142.9596,-78 194.335,-96.0215 336.3091,-95.2168 387.9596,-78 395.6028,-75.4523 403.009,-71.158 409.6238,-66.405"/>
<polygon fill="#000000" stroke="#000000" points="411.8023,-69.1446 417.5374,-60.2362 407.4987,-63.6237 411.8023,-69.1446"/>
<g id="a_edge10&#45;headlabel"><a xlink:href="dir_000012_000028.xhtml" target="_top" xlink:title="4">
<text text-anchor="middle" x="410.7128" y="-71.0938" font-family="Helvetica,sans-Serif" font-size="10.00" fill="#000000">4</text>
</a>
</g>
</g>
<!-- dir_8bc26130589aa16388b5a02f17abf2c2&#45;&gt;dir_1633709b037eda5b8477677909f78129 -->
<g id="edge4" class="edge">
<title>dir_8bc26130589aa16388b5a02f17abf2c2&#45;&gt;dir_1633709b037eda5b8477677909f78129</title>
<path fill="none" stroke="#000000" d="M124.9924,-188.7827C152.5364,-184.0874 192.9937,-175.9696 205.9596,-167 215.4569,-160.43 223.1718,-150.472 228.9881,-140.9546"/>
<polygon fill="#000000" stroke="#000000" points="232.1229,-142.5206 233.9789,-132.0896 226.0232,-139.0865 232.1229,-142.5206"/>
<g id="a_edge4&#45;headlabel"><a xlink:href="dir_000007_000002.xhtml" target="_top" xlink:title="42">
<text text-anchor="middle" x="232.8337" y="-144.5458" font-family="Helvetica,sans-Serif" font-size="10.00" fill="#000000">42</text>
</a>
</g>
</g>
<!-- dir_8bc26130589aa16388b5a02f17abf2c2&#45;&gt;dir_7484b841a86f2d7fdd057c9b24fbf230 -->
<g id="edge6" class="edge">
<title>dir_8bc26130589aa16388b5a02f17abf2c2&#45;&gt;dir_7484b841a86f2d7fdd057c9b24fbf230</title>
<path fill="none" stroke="#000000" d="M103.7604,-174.6772C104.7121,-165.1053 104.9482,-153.1777 104.4686,-142.4371"/>
<polygon fill="#000000" stroke="#000000" points="107.9433,-141.9533 103.7505,-132.2234 100.9606,-142.4443 107.9433,-141.9533"/>
<g id="a_edge6&#45;headlabel"><a xlink:href="dir_000007_000009.xhtml" target="_top" xlink:title="10">
<text text-anchor="middle" x="111.0276" y="-142.8399" font-family="Helvetica,sans-Serif" font-size="10.00" fill="#000000">10</text>
</a>
</g>
</g>
<!-- dir_8bc26130589aa16388b5a02f17abf2c2&#45;&gt;dir_a0d10d1f11f896cb40f799a595f5f383 -->
<g id="edge1" class="edge">
<title>dir_8bc26130589aa16388b5a02f17abf2c2&#45;&gt;dir_a0d10d1f11f896cb40f799a595f5f383</title>
<path fill="none" stroke="#000000" d="M70.6686,-177.8579C67.1618,-174.7348 64.0655,-171.1186 61.9596,-167 47.5939,-138.9041 44.9527,-122.5804 61.9596,-96 66.2758,-89.2543 102.3666,-73.161 133.337,-60.2872"/>
<polygon fill="#000000" stroke="#000000" points="134.8323,-63.4566 142.7433,-56.4092 132.1641,-56.985 134.8323,-63.4566"/>
<g id="a_edge1&#45;headlabel"><a xlink:href="dir_000007_000011.xhtml" target="_top" xlink:title="5">
<text text-anchor="middle" x="132.5912" y="-64.9516" font-family="Helvetica,sans-Serif" font-size="10.00" fill="#000000">5</text>
</a>
</g>
</g>
<!-- dir_8bc26130589aa16388b5a02f17abf2c2&#45;&gt;dir_541ebbb21ca179b54b469d645ff46bd9 -->
<g id="edge2" class="edge">
<title>dir_8bc26130589aa16388b5a02f17abf2c2&#45;&gt;dir_541ebbb21ca179b54b469d645ff46bd9</title>
<path fill="none" stroke="#000000" d="M125.0207,-191.0481C168.4231,-187.593 251.4164,-179.5583 277.9596,-167 291.617,-160.5384 304.3141,-149.7462 314.3251,-139.5806"/>
<polygon fill="#000000" stroke="#000000" points="317.1376,-141.6983 321.4284,-132.0112 312.0331,-136.9082 317.1376,-141.6983"/>
<g id="a_edge2&#45;headlabel"><a xlink:href="dir_000007_000020.xhtml" target="_top" xlink:title="44">
<text text-anchor="middle" x="316.7482" y="-143.7624" font-family="Helvetica,sans-Serif" font-size="10.00" fill="#000000">44</text>
</a>
</g>
</g>
<!-- dir_8bc26130589aa16388b5a02f17abf2c2&#45;&gt;dir_7b0825b7536eda12b63e5d87347b1c7d -->
<g id="edge3" class="edge">
<title>dir_8bc26130589aa16388b5a02f17abf2c2&#45;&gt;dir_7b0825b7536eda12b63e5d87347b1c7d</title>
<path fill="none" stroke="#000000" d="M70.6976,-186.1504C53.6431,-181.2518 33.9851,-174.264 28.9596,-167 11.0063,-141.0494 15.1382,-124.3676 28.9596,-96 36.1194,-81.305 49.4265,-69.4318 62.4584,-60.6009"/>
<polygon fill="#000000" stroke="#000000" points="64.3446,-63.5492 70.9151,-55.2379 60.5957,-57.6377 64.3446,-63.5492"/>
<g id="a_edge3&#45;headlabel"><a xlink:href="dir_000007_000012.xhtml" target="_top" xlink:title="4">
<text text-anchor="middle" x="62.8295" y="-65.3721" font-family="Helvetica,sans-Serif" font-size="10.00" fill="#000000">4</text>
</a>
</g>
</g>
<!-- dir_8bc26130589aa16388b5a02f17abf2c2&#45;&gt;dir_5815af820a9cc9481f1d0990a0d60286 -->
<g id="edge5" class="edge">
<title>dir_8bc26130589aa16388b5a02f17abf2c2&#45;&gt;dir_5815af820a9cc9481f1d0990a0d60286</title>
<path fill="none" stroke="#000000" d="M125.0756,-192.3441C194.7446,-190.4227 376.0273,-183.8426 396.9596,-167 425.7001,-143.8748 433.675,-99.8429 435.662,-70.6998"/>
<polygon fill="#000000" stroke="#000000" points="439.1761,-70.4909 436.1612,-60.3341 432.1842,-70.1541 439.1761,-70.4909"/>
<g id="a_edge5&#45;headlabel"><a xlink:href="dir_000007_000028.xhtml" target="_top" xlink:title="5">
<text text-anchor="middle" x="441.8392" y="-71.7179" font-family="Helvetica,sans-Serif" font-size="10.00" fill="#000000">5</text>
</a>
</g>
</g>
<!-- dir_5815af820a9cc9481f1d0990a0d60286&#45;&gt;dir_1fb090f0c6070330bfaccc4236d3ca0d -->
<g id="edge11" class="edge">
<title>dir_5815af820a9cc9481f1d0990a0d60286&#45;&gt;dir_1fb090f0c6070330bfaccc4236d3ca0d</title>
<path fill="none" stroke="#000000" d="M408.5308,-59.1426C407.6702,-59.4411 406.812,-59.7276 405.9596,-60 323.6766,-86.2987 296.8219,-68.4193 214.9596,-96 212.137,-96.951 209.2563,-98.0843 206.3736,-99.3129"/>
<polygon fill="#000000" stroke="#000000" points="204.8932,-96.1411 197.228,-103.4552 207.7813,-102.5175 204.8932,-96.1411"/>
<g id="a_edge11&#45;headlabel"><a xlink:href="dir_000028_000001.xhtml" target="_top" xlink:title="6">
<text text-anchor="middle" x="206.9962" y="-89.5717" font-family="Helvetica,sans-Serif" font-size="10.00" fill="#000000">6</text>
</a>
</g>
</g>
<!-- dir_5815af820a9cc9481f1d0990a0d60286&#45;&gt;dir_7b0825b7536eda12b63e5d87347b1c7d -->
<g id="edge12" class="edge">
<title>dir_5815af820a9cc9481f1d0990a0d60286&#45;&gt;dir_7b0825b7536eda12b63e5d87347b1c7d</title>
<path fill="none" stroke="#000000" d="M417.5374,-60.2362C409.2209,-67.2203 398.83,-74.3766 387.9596,-78 336.3091,-95.2168 194.335,-96.0215 142.9596,-78 135.82,-75.4955 128.9715,-71.3291 122.8653,-66.7013"/>
<polygon fill="#000000" stroke="#000000" points="124.9741,-63.9032 115.0411,-60.2173 120.5075,-69.293 124.9741,-63.9032"/>
<g id="a_edge12&#45;headlabel"><a xlink:href="dir_000028_000012.xhtml" target="_top" xlink:title="3">
<text text-anchor="middle" x="129.5535" y="-61.5107" font-family="Helvetica,sans-Serif" font-size="10.00" fill="#000000">3</text>
</a>
</g>
</g>
</g>
</svg>
