<?xml version="1.0" encoding="UTF-8" standalone="no"?>
<!DOCTYPE svg PUBLIC "-//W3C//DTD SVG 1.1//EN"
 "http://www.w3.org/Graphics/SVG/1.1/DTD/svg11.dtd">
<!-- Generated by graphviz version 2.40.1 (20161225.0304)
 -->
<!-- Title: arm_compute/runtime/CL/functions Pages: 1 -->
<svg width="152pt" height="367pt"
 viewBox="0.00 0.00 151.68 367.00" xmlns="http://www.w3.org/2000/svg" xmlns:xlink="http://www.w3.org/1999/xlink">
<g id="graph0" class="graph" transform="scale(1 1) rotate(0) translate(4 363)">
<title>arm_compute/runtime/CL/functions</title>
<polygon fill="#ffffff" stroke="transparent" points="-4,4 -4,-363 147.6788,-363 147.6788,4 -4,4"/>
<g id="clust1" class="cluster">
<title>clusterdir_b986aa98f9b6490bb4fc7918500346fb</title>
<g id="a_clust1"><a xlink:href="dir_b986aa98f9b6490bb4fc7918500346fb.xhtml" target="_top" xlink:title="CL">
<polygon fill="#ddddee" stroke="#000000" points="31.0143,-280 31.0143,-351 103.0143,-351 103.0143,-280 31.0143,-280"/>
<text text-anchor="middle" x="67.0143" y="-339" font-family="Helvetica,sans-Serif" font-size="10.00" fill="#000000">CL</text>
</a>
</g>
</g>
<!-- dir_251c63bc3f70b60acf43edd6d870a3ef -->
<g id="node1" class="node">
<title>dir_251c63bc3f70b60acf43edd6d870a3ef</title>
<g id="a_node1"><a xlink:href="dir_251c63bc3f70b60acf43edd6d870a3ef.xhtml" target="_top" xlink:title="functions">
<polygon fill="#eeeeff" stroke="#000000" points="95.0143,-324 39.0143,-324 39.0143,-288 95.0143,-288 95.0143,-324"/>
<text text-anchor="middle" x="67.0143" y="-303.5" font-family="Helvetica,sans-Serif" font-size="10.00" fill="#000000">functions</text>
</a>
</g>
</g>
<!-- dir_68267d1309a1af8e8297ef4c3efbcdba -->
<g id="node2" class="node">
<title>dir_68267d1309a1af8e8297ef4c3efbcdba</title>
<g id="a_node2"><a xlink:href="dir_68267d1309a1af8e8297ef4c3efbcdba.xhtml" target="_top" xlink:title="src">
<polygon fill="#ffffff" stroke="#ff0000" points="122.0143,-252 68.0143,-252 68.0143,-216 122.0143,-216 122.0143,-252"/>
<text text-anchor="middle" x="95.0143" y="-231.5" font-family="Helvetica,sans-Serif" font-size="10.00" fill="#000000">src</text>
</a>
</g>
</g>
<!-- dir_251c63bc3f70b60acf43edd6d870a3ef&#45;&gt;dir_68267d1309a1af8e8297ef4c3efbcdba -->
<g id="edge4" class="edge">
<title>dir_251c63bc3f70b60acf43edd6d870a3ef&#45;&gt;dir_68267d1309a1af8e8297ef4c3efbcdba</title>
<path fill="none" stroke="#000000" d="M74.0799,-287.8314C77.1403,-279.9617 80.7922,-270.5712 84.1825,-261.8533"/>
<polygon fill="#000000" stroke="#000000" points="87.4911,-263.0019 87.8536,-252.4133 80.9671,-260.4647 87.4911,-263.0019"/>
<g id="a_edge4&#45;headlabel"><a xlink:href="dir_000053_000003.xhtml" target="_top" xlink:title="3">
<text text-anchor="middle" x="88.8345" y="-264.8812" font-family="Helvetica,sans-Serif" font-size="10.00" fill="#000000">3</text>
</a>
</g>
</g>
<!-- dir_b496024afd63bafbf4e8da80d7d3a81a -->
<g id="node3" class="node">
<title>dir_b496024afd63bafbf4e8da80d7d3a81a</title>
<g id="a_node3"><a xlink:href="dir_b496024afd63bafbf4e8da80d7d3a81a.xhtml" target="_top" xlink:title="CPP">
<polygon fill="#ffffff" stroke="#ff0000" points="67.0143,-180 13.0143,-180 13.0143,-144 67.0143,-144 67.0143,-180"/>
<text text-anchor="middle" x="40.0143" y="-159.5" font-family="Helvetica,sans-Serif" font-size="10.00" fill="#000000">CPP</text>
</a>
</g>
</g>
<!-- dir_251c63bc3f70b60acf43edd6d870a3ef&#45;&gt;dir_b496024afd63bafbf4e8da80d7d3a81a -->
<g id="edge5" class="edge">
<title>dir_251c63bc3f70b60acf43edd6d870a3ef&#45;&gt;dir_b496024afd63bafbf4e8da80d7d3a81a</title>
<path fill="none" stroke="#000000" d="M63.5948,-287.7623C58.9693,-263.0928 50.6756,-218.8598 45.2593,-189.9731"/>
<polygon fill="#000000" stroke="#000000" points="48.6892,-189.2733 43.4062,-180.0896 41.8091,-190.5634 48.6892,-189.2733"/>
<g id="a_edge5&#45;headlabel"><a xlink:href="dir_000053_000059.xhtml" target="_top" xlink:title="3">
<text text-anchor="middle" x="52.1422" y="-189.7831" font-family="Helvetica,sans-Serif" font-size="10.00" fill="#000000">3</text>
</a>
</g>
</g>
<!-- dir_1fb090f0c6070330bfaccc4236d3ca0d -->
<g id="node4" class="node">
<title>dir_1fb090f0c6070330bfaccc4236d3ca0d</title>
<g id="a_node4"><a xlink:href="dir_1fb090f0c6070330bfaccc4236d3ca0d.xhtml" target="_top" xlink:title="core">
<polygon fill="#ffffff" stroke="#ff0000" points="86.0143,-108 32.0143,-108 32.0143,-72 86.0143,-72 86.0143,-108"/>
<text text-anchor="middle" x="59.0143" y="-87.5" font-family="Helvetica,sans-Serif" font-size="10.00" fill="#000000">core</text>
</a>
</g>
</g>
<!-- dir_251c63bc3f70b60acf43edd6d870a3ef&#45;&gt;dir_1fb090f0c6070330bfaccc4236d3ca0d -->
<g id="edge6" class="edge">
<title>dir_251c63bc3f70b60acf43edd6d870a3ef&#45;&gt;dir_1fb090f0c6070330bfaccc4236d3ca0d</title>
<path fill="none" stroke="#000000" d="M54.5069,-287.8398C39.0887,-264.2436 13.7353,-221.1787 4.0143,-180 .3383,-164.428 -2.1763,-158.7538 4.0143,-144 8.6195,-133.0247 16.6641,-123.1573 25.202,-114.9529"/>
<polygon fill="#000000" stroke="#000000" points="27.6444,-117.464 32.7581,-108.1849 22.974,-112.2497 27.6444,-117.464"/>
<g id="a_edge6&#45;headlabel"><a xlink:href="dir_000053_000001.xhtml" target="_top" xlink:title="116">
<text text-anchor="middle" x="26.8612" y="-119.4771" font-family="Helvetica,sans-Serif" font-size="10.00" fill="#000000">116</text>
</a>
</g>
</g>
<!-- dir_b9621ae687ab229876c54f8c2df20e15 -->
<g id="node5" class="node">
<title>dir_b9621ae687ab229876c54f8c2df20e15</title>
<g id="a_node5"><a xlink:href="dir_b9621ae687ab229876c54f8c2df20e15.xhtml" target="_top" xlink:title="common">
<polygon fill="none" stroke="#000000" points="113.0143,-36 59.0143,-36 59.0143,0 113.0143,0 113.0143,-36"/>
<text text-anchor="middle" x="86.0143" y="-15.5" font-family="Helvetica,sans-Serif" font-size="10.00" fill="#000000">common</text>
</a>
</g>
</g>
<!-- dir_251c63bc3f70b60acf43edd6d870a3ef&#45;&gt;dir_b9621ae687ab229876c54f8c2df20e15 -->
<g id="edge7" class="edge">
<title>dir_251c63bc3f70b60acf43edd6d870a3ef&#45;&gt;dir_b9621ae687ab229876c54f8c2df20e15</title>
<path fill="none" stroke="#000000" d="M95.1196,-290.3238C108.6552,-281.1026 123.5406,-268.0846 131.0143,-252 163.4825,-182.1236 124.8869,-90.062 101.4457,-45.084"/>
<polygon fill="#000000" stroke="#000000" points="104.5093,-43.3909 96.7047,-36.2258 98.3377,-46.694 104.5093,-43.3909"/>
<g id="a_edge7&#45;headlabel"><a xlink:href="dir_000053_000058.xhtml" target="_top" xlink:title="3">
<text text-anchor="middle" x="108.7088" y="-42.7203" font-family="Helvetica,sans-Serif" font-size="10.00" fill="#000000">3</text>
</a>
</g>
</g>
<!-- dir_68267d1309a1af8e8297ef4c3efbcdba&#45;&gt;dir_b496024afd63bafbf4e8da80d7d3a81a -->
<g id="edge1" class="edge">
<title>dir_68267d1309a1af8e8297ef4c3efbcdba&#45;&gt;dir_b496024afd63bafbf4e8da80d7d3a81a</title>
<path fill="none" stroke="#000000" d="M81.1355,-215.8314C74.8008,-207.5386 67.176,-197.557 60.2218,-188.4533"/>
<polygon fill="#000000" stroke="#000000" points="62.9318,-186.2353 54.08,-180.4133 57.3691,-190.4847 62.9318,-186.2353"/>
<g id="a_edge1&#45;headlabel"><a xlink:href="dir_000003_000059.xhtml" target="_top" xlink:title="14">
<text text-anchor="middle" x="67.3702" y="-184.8683" font-family="Helvetica,sans-Serif" font-size="10.00" fill="#000000">14</text>
</a>
</g>
</g>
<!-- dir_68267d1309a1af8e8297ef4c3efbcdba&#45;&gt;dir_1fb090f0c6070330bfaccc4236d3ca0d -->
<g id="edge2" class="edge">
<title>dir_68267d1309a1af8e8297ef4c3efbcdba&#45;&gt;dir_1fb090f0c6070330bfaccc4236d3ca0d</title>
<path fill="none" stroke="#000000" d="M91.7376,-215.9501C88.2983,-197.6925 82.4972,-168.7149 76.0143,-144 73.7805,-135.4838 71.0285,-126.3157 68.3945,-117.9947"/>
<polygon fill="#000000" stroke="#000000" points="71.6883,-116.8049 65.2828,-108.3657 65.0274,-118.9575 71.6883,-116.8049"/>
<g id="a_edge2&#45;headlabel"><a xlink:href="dir_000003_000001.xhtml" target="_top" xlink:title="3084">
<text text-anchor="middle" x="75.4953" y="-116.8523" font-family="Helvetica,sans-Serif" font-size="10.00" fill="#000000">3084</text>
</a>
</g>
</g>
<!-- dir_68267d1309a1af8e8297ef4c3efbcdba&#45;&gt;dir_b9621ae687ab229876c54f8c2df20e15 -->
<g id="edge3" class="edge">
<title>dir_68267d1309a1af8e8297ef4c3efbcdba&#45;&gt;dir_b9621ae687ab229876c54f8c2df20e15</title>
<path fill="none" stroke="#000000" d="M95.9822,-215.9806C97.374,-186.0296 99.3291,-124.1343 95.0143,-72 94.3198,-63.6085 93.0282,-54.5578 91.6358,-46.3092"/>
<polygon fill="#000000" stroke="#000000" points="95.0687,-45.6235 89.8557,-36.3999 88.179,-46.8612 95.0687,-45.6235"/>
<g id="a_edge3&#45;headlabel"><a xlink:href="dir_000003_000058.xhtml" target="_top" xlink:title="2">
<text text-anchor="middle" x="98.4988" y="-46.1595" font-family="Helvetica,sans-Serif" font-size="10.00" fill="#000000">2</text>
</a>
</g>
</g>
<!-- dir_b496024afd63bafbf4e8da80d7d3a81a&#45;&gt;dir_1fb090f0c6070330bfaccc4236d3ca0d -->
<g id="edge8" class="edge">
<title>dir_b496024afd63bafbf4e8da80d7d3a81a&#45;&gt;dir_1fb090f0c6070330bfaccc4236d3ca0d</title>
<path fill="none" stroke="#000000" d="M38.8565,-143.8314C40.1522,-136.0463 42.3819,-126.7729 44.9852,-118.1347"/>
<polygon fill="#000000" stroke="#000000" points="48.3829,-119.0061 48.1793,-108.4133 41.7326,-116.8211 48.3829,-119.0061"/>
<g id="a_edge8&#45;headlabel"><a xlink:href="dir_000059_000001.xhtml" target="_top" xlink:title="15">
<text text-anchor="middle" x="49.9583" y="-120.8074" font-family="Helvetica,sans-Serif" font-size="10.00" fill="#000000">15</text>
</a>
</g>
</g>
<!-- dir_1fb090f0c6070330bfaccc4236d3ca0d&#45;&gt;dir_b496024afd63bafbf4e8da80d7d3a81a -->
<g id="edge9" class="edge">
<title>dir_1fb090f0c6070330bfaccc4236d3ca0d&#45;&gt;dir_b496024afd63bafbf4e8da80d7d3a81a</title>
<path fill="none" stroke="#000000" d="M60.1313,-108.4133C58.8161,-116.2292 56.5728,-125.5113 53.9618,-134.136"/>
<polygon fill="#000000" stroke="#000000" points="50.5724,-133.2382 50.7612,-143.8314 57.2196,-135.4325 50.5724,-133.2382"/>
<g id="a_edge9&#45;headlabel"><a xlink:href="dir_000001_000059.xhtml" target="_top" xlink:title="1">
<text text-anchor="middle" x="49.003" y="-126.4348" font-family="Helvetica,sans-Serif" font-size="10.00" fill="#000000">1</text>
</a>
</g>
</g>
<!-- dir_1fb090f0c6070330bfaccc4236d3ca0d&#45;&gt;dir_b9621ae687ab229876c54f8c2df20e15 -->
<g id="edge10" class="edge">
<title>dir_1fb090f0c6070330bfaccc4236d3ca0d&#45;&gt;dir_b9621ae687ab229876c54f8c2df20e15</title>
<path fill="none" stroke="#000000" d="M59.8752,-71.8314C62.0829,-63.8771 65.4383,-54.369 69.0919,-45.5723"/>
<polygon fill="#000000" stroke="#000000" points="72.2984,-46.9752 73.1334,-36.4133 65.8942,-44.1492 72.2984,-46.9752"/>
<g id="a_edge10&#45;headlabel"><a xlink:href="dir_000001_000058.xhtml" target="_top" xlink:title="1">
<text text-anchor="middle" x="73.445" y="-48.91" font-family="Helvetica,sans-Serif" font-size="10.00" fill="#000000">1</text>
</a>
</g>
</g>
<!-- dir_b9621ae687ab229876c54f8c2df20e15&#45;&gt;dir_1fb090f0c6070330bfaccc4236d3ca0d -->
<g id="edge11" class="edge">
<title>dir_b9621ae687ab229876c54f8c2df20e15&#45;&gt;dir_1fb090f0c6070330bfaccc4236d3ca0d</title>
<path fill="none" stroke="#000000" d="M85.0854,-36.4133C82.878,-44.3141 79.5558,-53.7132 75.9413,-62.417"/>
<polygon fill="#000000" stroke="#000000" points="72.6216,-61.27 71.78,-71.8314 79.0241,-64.1 72.6216,-61.27"/>
<g id="a_edge11&#45;headlabel"><a xlink:href="dir_000058_000001.xhtml" target="_top" xlink:title="3">
<text text-anchor="middle" x="71.4779" y="-54.3344" font-family="Helvetica,sans-Serif" font-size="10.00" fill="#000000">3</text>
</a>
</g>
</g>
</g>
</svg>
