<?xml version="1.0" encoding="UTF-8" standalone="no"?>
<!DOCTYPE svg PUBLIC "-//W3C//DTD SVG 1.1//EN"
 "http://www.w3.org/Graphics/SVG/1.1/DTD/svg11.dtd">
<!-- Generated by graphviz version 2.40.1 (20161225.0304)
 -->
<!-- Title: src/graph/backends Pages: 1 -->
<svg width="332pt" height="303pt"
 viewBox="0.00 0.00 332.00 303.00" xmlns="http://www.w3.org/2000/svg" xmlns:xlink="http://www.w3.org/1999/xlink">
<g id="graph0" class="graph" transform="scale(1 1) rotate(0) translate(4 299)">
<title>src/graph/backends</title>
<polygon fill="#ffffff" stroke="transparent" points="-4,4 -4,-299 328,-299 328,4 -4,4"/>
<g id="clust1" class="cluster">
<title>clusterdir_d182250f0c231765fc862e69db210731</title>
<g id="a_clust1"><a xlink:href="dir_d182250f0c231765fc862e69db210731.xhtml" target="_top" xlink:title="graph">
<polygon fill="#ddddee" stroke="#000000" points="8,-200 8,-287 316,-287 316,-200 8,-200"/>
<text text-anchor="middle" x="162" y="-275" font-family="Helvetica,sans-Serif" font-size="10.00" fill="#000000">graph</text>
</a>
</g>
</g>
<g id="clust2" class="cluster">
<title>clusterdir_39e772dac1f6529f21fb52deefa146ea</title>
<g id="a_clust2"><a xlink:href="dir_39e772dac1f6529f21fb52deefa146ea.xhtml" target="_top">
<polygon fill="#eeeeff" stroke="#000000" points="16,-208 16,-260 308,-260 308,-208 16,-208"/>
</a>
</g>
</g>
<!-- dir_39e772dac1f6529f21fb52deefa146ea -->
<g id="node1" class="node">
<title>dir_39e772dac1f6529f21fb52deefa146ea</title>
<text text-anchor="middle" x="198" y="-231.5" font-family="Helvetica,sans-Serif" font-size="10.00" fill="#000000">backends</text>
</g>
<!-- dir_214608ef36d61442cb2b0c1c4e9a7def -->
<g id="node5" class="node">
<title>dir_214608ef36d61442cb2b0c1c4e9a7def</title>
<g id="a_node5"><a xlink:href="dir_214608ef36d61442cb2b0c1c4e9a7def.xhtml" target="_top" xlink:title="arm_compute">
<polygon fill="#ffffff" stroke="#ff0000" points="236,-180 160,-180 160,-144 236,-144 236,-180"/>
<text text-anchor="middle" x="198" y="-159.5" font-family="Helvetica,sans-Serif" font-size="10.00" fill="#000000">arm_compute</text>
</a>
</g>
</g>
<!-- dir_39e772dac1f6529f21fb52deefa146ea&#45;&gt;dir_214608ef36d61442cb2b0c1c4e9a7def -->
<g id="edge9" class="edge">
<title>dir_39e772dac1f6529f21fb52deefa146ea&#45;&gt;dir_214608ef36d61442cb2b0c1c4e9a7def</title>
<path fill="none" stroke="#000000" d="M198,-215.8314C198,-208.131 198,-198.9743 198,-190.4166"/>
<polygon fill="#000000" stroke="#000000" points="201.5001,-190.4132 198,-180.4133 194.5001,-190.4133 201.5001,-190.4132"/>
<g id="a_edge9&#45;headlabel"><a xlink:href="dir_000221_000000.xhtml" target="_top" xlink:title="101">
<text text-anchor="middle" x="204.3393" y="-191.5079" font-family="Helvetica,sans-Serif" font-size="10.00" fill="#000000">101</text>
</a>
</g>
</g>
<!-- dir_10a8ee34f3d0df8ebfa752c7937ca169 -->
<g id="node2" class="node">
<title>dir_10a8ee34f3d0df8ebfa752c7937ca169</title>
<g id="a_node2"><a xlink:href="dir_10a8ee34f3d0df8ebfa752c7937ca169.xhtml" target="_top" xlink:title="CL">
<polygon fill="#ffffff" stroke="#000000" points="78,-252 24,-252 24,-216 78,-216 78,-252"/>
<text text-anchor="middle" x="51" y="-231.5" font-family="Helvetica,sans-Serif" font-size="10.00" fill="#000000">CL</text>
</a>
</g>
</g>
<!-- dir_10a8ee34f3d0df8ebfa752c7937ca169&#45;&gt;dir_214608ef36d61442cb2b0c1c4e9a7def -->
<g id="edge4" class="edge">
<title>dir_10a8ee34f3d0df8ebfa752c7937ca169&#45;&gt;dir_214608ef36d61442cb2b0c1c4e9a7def</title>
<path fill="none" stroke="#000000" d="M67.3307,-215.7579C73.107,-210.1147 79.9356,-204.2667 87,-200 106.3289,-188.3259 129.7328,-179.6366 150.0577,-173.5361"/>
<polygon fill="#000000" stroke="#000000" points="151.1131,-176.8745 159.7567,-170.7476 149.1789,-170.1471 151.1131,-176.8745"/>
<g id="a_edge4&#45;headlabel"><a xlink:href="dir_000222_000000.xhtml" target="_top" xlink:title="34">
<text text-anchor="middle" x="148.4429" y="-178.0964" font-family="Helvetica,sans-Serif" font-size="10.00" fill="#000000">34</text>
</a>
</g>
</g>
<!-- dir_aebb8dcc11953d78e620bbef0b9e2183 -->
<g id="node6" class="node">
<title>dir_aebb8dcc11953d78e620bbef0b9e2183</title>
<g id="a_node6"><a xlink:href="dir_aebb8dcc11953d78e620bbef0b9e2183.xhtml" target="_top" xlink:title="core">
<polygon fill="#ffffff" stroke="#ff0000" points="176,-108 122,-108 122,-72 176,-72 176,-108"/>
<text text-anchor="middle" x="149" y="-87.5" font-family="Helvetica,sans-Serif" font-size="10.00" fill="#000000">core</text>
</a>
</g>
</g>
<!-- dir_10a8ee34f3d0df8ebfa752c7937ca169&#45;&gt;dir_aebb8dcc11953d78e620bbef0b9e2183 -->
<g id="edge5" class="edge">
<title>dir_10a8ee34f3d0df8ebfa752c7937ca169&#45;&gt;dir_aebb8dcc11953d78e620bbef0b9e2183</title>
<path fill="none" stroke="#000000" d="M63.4118,-215.7623C80.4952,-190.66 111.3641,-145.3017 130.9877,-116.4671"/>
<polygon fill="#000000" stroke="#000000" points="133.9562,-118.326 136.689,-108.0896 128.1692,-114.3876 133.9562,-118.326"/>
<g id="a_edge5&#45;headlabel"><a xlink:href="dir_000222_000004.xhtml" target="_top" xlink:title="12">
<text text-anchor="middle" x="134.2811" y="-120.3951" font-family="Helvetica,sans-Serif" font-size="10.00" fill="#000000">12</text>
</a>
</g>
</g>
<!-- dir_5815af820a9cc9481f1d0990a0d60286 -->
<g id="node7" class="node">
<title>dir_5815af820a9cc9481f1d0990a0d60286</title>
<g id="a_node7"><a xlink:href="dir_5815af820a9cc9481f1d0990a0d60286.xhtml" target="_top" xlink:title="support">
<polygon fill="none" stroke="#000000" points="208,-36 154,-36 154,0 208,0 208,-36"/>
<text text-anchor="middle" x="181" y="-15.5" font-family="Helvetica,sans-Serif" font-size="10.00" fill="#000000">support</text>
</a>
</g>
</g>
<!-- dir_10a8ee34f3d0df8ebfa752c7937ca169&#45;&gt;dir_5815af820a9cc9481f1d0990a0d60286 -->
<g id="edge6" class="edge">
<title>dir_10a8ee34f3d0df8ebfa752c7937ca169&#45;&gt;dir_5815af820a9cc9481f1d0990a0d60286</title>
<path fill="none" stroke="#000000" d="M52.3298,-215.9224C55.4926,-183.9615 65.8817,-116.6443 99,-72 110.7155,-56.2072 128.5235,-43.6823 144.5541,-34.687"/>
<polygon fill="#000000" stroke="#000000" points="146.5473,-37.5909 153.7278,-29.8006 143.2564,-31.4127 146.5473,-37.5909"/>
<g id="a_edge6&#45;headlabel"><a xlink:href="dir_000222_000028.xhtml" target="_top" xlink:title="4">
<text text-anchor="middle" x="144.7094" y="-39.2867" font-family="Helvetica,sans-Serif" font-size="10.00" fill="#000000">4</text>
</a>
</g>
</g>
<!-- dir_63622b7b1e2297c4b4fb2c5afb0cb755 -->
<g id="node3" class="node">
<title>dir_63622b7b1e2297c4b4fb2c5afb0cb755</title>
<g id="a_node3"><a xlink:href="dir_63622b7b1e2297c4b4fb2c5afb0cb755.xhtml" target="_top" xlink:title="GLES">
<polygon fill="#ffffff" stroke="#000000" points="300,-252 246,-252 246,-216 300,-216 300,-252"/>
<text text-anchor="middle" x="273" y="-231.5" font-family="Helvetica,sans-Serif" font-size="10.00" fill="#000000">GLES</text>
</a>
</g>
</g>
<!-- dir_63622b7b1e2297c4b4fb2c5afb0cb755&#45;&gt;dir_214608ef36d61442cb2b0c1c4e9a7def -->
<g id="edge13" class="edge">
<title>dir_63622b7b1e2297c4b4fb2c5afb0cb755&#45;&gt;dir_214608ef36d61442cb2b0c1c4e9a7def</title>
<path fill="none" stroke="#000000" d="M254.0743,-215.8314C245.0143,-207.1337 234.0191,-196.5783 224.1735,-187.1265"/>
<polygon fill="#000000" stroke="#000000" points="226.5574,-184.5633 216.9196,-180.1628 221.7096,-189.613 226.5574,-184.5633"/>
<g id="a_edge13&#45;headlabel"><a xlink:href="dir_000223_000000.xhtml" target="_top" xlink:title="28">
<text text-anchor="middle" x="231.1167" y="-182.5045" font-family="Helvetica,sans-Serif" font-size="10.00" fill="#000000">28</text>
</a>
</g>
</g>
<!-- dir_63622b7b1e2297c4b4fb2c5afb0cb755&#45;&gt;dir_5815af820a9cc9481f1d0990a0d60286 -->
<g id="edge14" class="edge">
<title>dir_63622b7b1e2297c4b4fb2c5afb0cb755&#45;&gt;dir_5815af820a9cc9481f1d0990a0d60286</title>
<path fill="none" stroke="#000000" d="M268.0904,-215.8386C262.9594,-197.4943 254.3625,-168.4507 245,-144 232.4123,-111.1266 228.1129,-103.2968 212,-72 207.4214,-63.1068 202.1027,-53.5876 197.177,-45.0568"/>
<polygon fill="#000000" stroke="#000000" points="200.1067,-43.133 192.04,-36.2643 194.0626,-46.6643 200.1067,-43.133"/>
<g id="a_edge14&#45;headlabel"><a xlink:href="dir_000223_000028.xhtml" target="_top" xlink:title="3">
<text text-anchor="middle" x="204.3715" y="-42.3045" font-family="Helvetica,sans-Serif" font-size="10.00" fill="#000000">3</text>
</a>
</g>
</g>
<!-- dir_a0f71818ea2c5c08950cb56389fab822 -->
<g id="node4" class="node">
<title>dir_a0f71818ea2c5c08950cb56389fab822</title>
<g id="a_node4"><a xlink:href="dir_a0f71818ea2c5c08950cb56389fab822.xhtml" target="_top" xlink:title="NEON">
<polygon fill="#ffffff" stroke="#000000" points="150,-252 96,-252 96,-216 150,-216 150,-252"/>
<text text-anchor="middle" x="123" y="-231.5" font-family="Helvetica,sans-Serif" font-size="10.00" fill="#000000">NEON</text>
</a>
</g>
</g>
<!-- dir_a0f71818ea2c5c08950cb56389fab822&#45;&gt;dir_214608ef36d61442cb2b0c1c4e9a7def -->
<g id="edge1" class="edge">
<title>dir_a0f71818ea2c5c08950cb56389fab822&#45;&gt;dir_214608ef36d61442cb2b0c1c4e9a7def</title>
<path fill="none" stroke="#000000" d="M141.9257,-215.8314C150.9857,-207.1337 161.9809,-196.5783 171.8265,-187.1265"/>
<polygon fill="#000000" stroke="#000000" points="174.2904,-189.613 179.0804,-180.1628 169.4426,-184.5633 174.2904,-189.613"/>
<g id="a_edge1&#45;headlabel"><a xlink:href="dir_000224_000000.xhtml" target="_top" xlink:title="38">
<text text-anchor="middle" x="173.6636" y="-191.6506" font-family="Helvetica,sans-Serif" font-size="10.00" fill="#000000">38</text>
</a>
</g>
</g>
<!-- dir_a0f71818ea2c5c08950cb56389fab822&#45;&gt;dir_aebb8dcc11953d78e620bbef0b9e2183 -->
<g id="edge2" class="edge">
<title>dir_a0f71818ea2c5c08950cb56389fab822&#45;&gt;dir_aebb8dcc11953d78e620bbef0b9e2183</title>
<path fill="none" stroke="#000000" d="M126.2929,-215.7623C130.7471,-191.0928 138.7337,-146.8598 143.9493,-117.9731"/>
<polygon fill="#000000" stroke="#000000" points="147.4012,-118.5524 145.7338,-108.0896 140.5126,-117.3086 147.4012,-118.5524"/>
<g id="a_edge2&#45;headlabel"><a xlink:href="dir_000224_000004.xhtml" target="_top" xlink:title="12">
<text text-anchor="middle" x="149.5567" y="-120.0943" font-family="Helvetica,sans-Serif" font-size="10.00" fill="#000000">12</text>
</a>
</g>
</g>
<!-- dir_a0f71818ea2c5c08950cb56389fab822&#45;&gt;dir_5815af820a9cc9481f1d0990a0d60286 -->
<g id="edge3" class="edge">
<title>dir_a0f71818ea2c5c08950cb56389fab822&#45;&gt;dir_5815af820a9cc9481f1d0990a0d60286</title>
<path fill="none" stroke="#000000" d="M116.3825,-215.8796C106.1561,-184.7114 89.9657,-119.7058 113,-72 119.9235,-57.6608 132.7099,-45.9615 145.3425,-37.1646"/>
<polygon fill="#000000" stroke="#000000" points="147.5144,-39.9273 153.9896,-31.5415 143.6982,-34.059 147.5144,-39.9273"/>
<g id="a_edge3&#45;headlabel"><a xlink:href="dir_000224_000028.xhtml" target="_top" xlink:title="5">
<text text-anchor="middle" x="146.0488" y="-41.7671" font-family="Helvetica,sans-Serif" font-size="10.00" fill="#000000">5</text>
</a>
</g>
</g>
<!-- dir_214608ef36d61442cb2b0c1c4e9a7def&#45;&gt;dir_aebb8dcc11953d78e620bbef0b9e2183 -->
<g id="edge7" class="edge">
<title>dir_214608ef36d61442cb2b0c1c4e9a7def&#45;&gt;dir_aebb8dcc11953d78e620bbef0b9e2183</title>
<path fill="none" stroke="#000000" d="M179.6828,-143.8314C173.3627,-135.7079 166.5289,-125.9637 160.8236,-117.0118"/>
<polygon fill="#000000" stroke="#000000" points="163.7641,-115.1115 155.5552,-108.4133 157.7953,-118.7686 163.7641,-115.1115"/>
<g id="a_edge7&#45;headlabel"><a xlink:href="dir_000000_000004.xhtml" target="_top" xlink:title="3">
<text text-anchor="middle" x="168.063" y="-114.1932" font-family="Helvetica,sans-Serif" font-size="10.00" fill="#000000">3</text>
</a>
</g>
</g>
<!-- dir_214608ef36d61442cb2b0c1c4e9a7def&#45;&gt;dir_5815af820a9cc9481f1d0990a0d60286 -->
<g id="edge8" class="edge">
<title>dir_214608ef36d61442cb2b0c1c4e9a7def&#45;&gt;dir_5815af820a9cc9481f1d0990a0d60286</title>
<path fill="none" stroke="#000000" d="M191.1738,-143.7623C185.8144,-119.201 180.3506,-75.2474 178.8499,-46.3541"/>
<polygon fill="#000000" stroke="#000000" points="182.3379,-45.956 178.4773,-36.0896 175.3425,-46.21 182.3379,-45.956"/>
<g id="a_edge8&#45;headlabel"><a xlink:href="dir_000000_000028.xhtml" target="_top" xlink:title="18">
<text text-anchor="middle" x="185.3056" y="-46.9453" font-family="Helvetica,sans-Serif" font-size="10.00" fill="#000000">18</text>
</a>
</g>
</g>
<!-- dir_aebb8dcc11953d78e620bbef0b9e2183&#45;&gt;dir_214608ef36d61442cb2b0c1c4e9a7def -->
<g id="edge10" class="edge">
<title>dir_aebb8dcc11953d78e620bbef0b9e2183&#45;&gt;dir_214608ef36d61442cb2b0c1c4e9a7def</title>
<path fill="none" stroke="#000000" d="M167.5073,-108.4133C173.8375,-116.569 180.665,-126.3212 186.3475,-135.257"/>
<polygon fill="#000000" stroke="#000000" points="183.3865,-137.1238 191.5876,-143.8314 189.3594,-133.4735 183.3865,-137.1238"/>
<g id="a_edge10&#45;headlabel"><a xlink:href="dir_000004_000000.xhtml" target="_top" xlink:title="2221">
<text text-anchor="middle" x="179.0894" y="-133.0372" font-family="Helvetica,sans-Serif" font-size="10.00" fill="#000000">2221</text>
</a>
</g>
</g>
<!-- dir_aebb8dcc11953d78e620bbef0b9e2183&#45;&gt;dir_5815af820a9cc9481f1d0990a0d60286 -->
<g id="edge11" class="edge">
<title>dir_aebb8dcc11953d78e620bbef0b9e2183&#45;&gt;dir_5815af820a9cc9481f1d0990a0d60286</title>
<path fill="none" stroke="#000000" d="M157.075,-71.8314C160.6102,-63.8771 164.836,-54.369 168.7456,-45.5723"/>
<polygon fill="#000000" stroke="#000000" points="171.9532,-46.9729 172.8163,-36.4133 165.5565,-44.1299 171.9532,-46.9729"/>
<g id="a_edge11&#45;headlabel"><a xlink:href="dir_000004_000028.xhtml" target="_top" xlink:title="182">
<text text-anchor="middle" x="173.0879" y="-48.9108" font-family="Helvetica,sans-Serif" font-size="10.00" fill="#000000">182</text>
</a>
</g>
</g>
<!-- dir_5815af820a9cc9481f1d0990a0d60286&#45;&gt;dir_214608ef36d61442cb2b0c1c4e9a7def -->
<g id="edge12" class="edge">
<title>dir_5815af820a9cc9481f1d0990a0d60286&#45;&gt;dir_214608ef36d61442cb2b0c1c4e9a7def</title>
<path fill="none" stroke="#000000" d="M187.7939,-36.0896C193.1528,-60.5727 198.6243,-104.5174 200.141,-133.4713"/>
<polygon fill="#000000" stroke="#000000" points="196.6542,-133.898 200.5201,-143.7623 203.6495,-133.6402 196.6542,-133.898"/>
<g id="a_edge12&#45;headlabel"><a xlink:href="dir_000028_000000.xhtml" target="_top" xlink:title="6">
<text text-anchor="middle" x="193.6846" y="-127.9103" font-family="Helvetica,sans-Serif" font-size="10.00" fill="#000000">6</text>
</a>
</g>
</g>
</g>
</svg>
