<?xml version="1.0" encoding="UTF-8" standalone="no"?>
<!DOCTYPE svg PUBLIC "-//W3C//DTD SVG 1.1//EN"
 "http://www.w3.org/Graphics/SVG/1.1/DTD/svg11.dtd">
<!-- Generated by graphviz version 2.40.1 (20161225.0304)
 -->
<!-- Title: src/core/CL/gemm Pages: 1 -->
<svg width="372pt" height="159pt"
 viewBox="0.00 0.00 372.00 159.00" xmlns="http://www.w3.org/2000/svg" xmlns:xlink="http://www.w3.org/1999/xlink">
<g id="graph0" class="graph" transform="scale(1 1) rotate(0) translate(4 155)">
<title>src/core/CL/gemm</title>
<polygon fill="#ffffff" stroke="transparent" points="-4,4 -4,-155 368,-155 368,4 -4,4"/>
<g id="clust1" class="cluster">
<title>clusterdir_8c278f79c760e5c5fbd911f9870614c1</title>
<g id="a_clust1"><a xlink:href="dir_8c278f79c760e5c5fbd911f9870614c1.xhtml" target="_top" xlink:title="CL">
<polygon fill="#ddddee" stroke="#000000" points="8,-56 8,-143 356,-143 356,-56 8,-56"/>
<text text-anchor="middle" x="182" y="-131" font-family="Helvetica,sans-Serif" font-size="10.00" fill="#000000">CL</text>
</a>
</g>
</g>
<g id="clust2" class="cluster">
<title>clusterdir_acedbc3c1c025eedca19641ef7b62820</title>
<g id="a_clust2"><a xlink:href="dir_acedbc3c1c025eedca19641ef7b62820.xhtml" target="_top">
<polygon fill="#eeeeff" stroke="#000000" points="16,-64 16,-116 348,-116 348,-64 16,-64"/>
</a>
</g>
</g>
<!-- dir_acedbc3c1c025eedca19641ef7b62820 -->
<g id="node1" class="node">
<title>dir_acedbc3c1c025eedca19641ef7b62820</title>
<text text-anchor="middle" x="313" y="-87.5" font-family="Helvetica,sans-Serif" font-size="10.00" fill="#000000">gemm</text>
</g>
<!-- dir_214608ef36d61442cb2b0c1c4e9a7def -->
<g id="node5" class="node">
<title>dir_214608ef36d61442cb2b0c1c4e9a7def</title>
<g id="a_node5"><a xlink:href="dir_214608ef36d61442cb2b0c1c4e9a7def.xhtml" target="_top" xlink:title="arm_compute">
<polygon fill="#ffffff" stroke="#ff0000" points="242,-36 166,-36 166,0 242,0 242,-36"/>
<text text-anchor="middle" x="204" y="-15.5" font-family="Helvetica,sans-Serif" font-size="10.00" fill="#000000">arm_compute</text>
</a>
</g>
</g>
<!-- dir_acedbc3c1c025eedca19641ef7b62820&#45;&gt;dir_214608ef36d61442cb2b0c1c4e9a7def -->
<g id="edge2" class="edge">
<title>dir_acedbc3c1c025eedca19641ef7b62820&#45;&gt;dir_214608ef36d61442cb2b0c1c4e9a7def</title>
<path fill="none" stroke="#000000" d="M295.5408,-71.6624C289.9063,-66.2658 283.4444,-60.5851 277,-56 269.0507,-50.3442 260.1487,-45.0021 251.3676,-40.2087"/>
<polygon fill="#000000" stroke="#000000" points="252.7825,-36.9979 242.3055,-35.422 249.5131,-43.1875 252.7825,-36.9979"/>
<g id="a_edge2&#45;headlabel"><a xlink:href="dir_000070_000000.xhtml" target="_top" xlink:title="37">
<text text-anchor="middle" x="257.2871" y="-33.6662" font-family="Helvetica,sans-Serif" font-size="10.00" fill="#000000">37</text>
</a>
</g>
</g>
<!-- dir_cfd0d3343ca74c445c880307c95c1494 -->
<g id="node2" class="node">
<title>dir_cfd0d3343ca74c445c880307c95c1494</title>
<g id="a_node2"><a xlink:href="dir_cfd0d3343ca74c445c880307c95c1494.xhtml" target="_top" xlink:title="native">
<polygon fill="#ffffff" stroke="#000000" points="268,-108 214,-108 214,-72 268,-72 268,-108"/>
<text text-anchor="middle" x="241" y="-87.5" font-family="Helvetica,sans-Serif" font-size="10.00" fill="#000000">native</text>
</a>
</g>
</g>
<!-- dir_cfd0d3343ca74c445c880307c95c1494&#45;&gt;dir_214608ef36d61442cb2b0c1c4e9a7def -->
<g id="edge3" class="edge">
<title>dir_cfd0d3343ca74c445c880307c95c1494&#45;&gt;dir_214608ef36d61442cb2b0c1c4e9a7def</title>
<path fill="none" stroke="#000000" d="M231.6633,-71.8314C227.5757,-63.8771 222.6896,-54.369 218.1691,-45.5723"/>
<polygon fill="#000000" stroke="#000000" points="221.1461,-43.7078 213.4624,-36.4133 214.9201,-46.9074 221.1461,-43.7078"/>
<g id="a_edge3&#45;headlabel"><a xlink:href="dir_000071_000000.xhtml" target="_top" xlink:title="9">
<text text-anchor="middle" x="225.3144" y="-43.1073" font-family="Helvetica,sans-Serif" font-size="10.00" fill="#000000">9</text>
</a>
</g>
</g>
<!-- dir_e50a6baa24878773b1097a906405814a -->
<g id="node3" class="node">
<title>dir_e50a6baa24878773b1097a906405814a</title>
<g id="a_node3"><a xlink:href="dir_e50a6baa24878773b1097a906405814a.xhtml" target="_top" xlink:title="reshaped">
<polygon fill="#ffffff" stroke="#000000" points="196,-108 140,-108 140,-72 196,-72 196,-108"/>
<text text-anchor="middle" x="168" y="-87.5" font-family="Helvetica,sans-Serif" font-size="10.00" fill="#000000">reshaped</text>
</a>
</g>
</g>
<!-- dir_e50a6baa24878773b1097a906405814a&#45;&gt;dir_214608ef36d61442cb2b0c1c4e9a7def -->
<g id="edge1" class="edge">
<title>dir_e50a6baa24878773b1097a906405814a&#45;&gt;dir_214608ef36d61442cb2b0c1c4e9a7def</title>
<path fill="none" stroke="#000000" d="M177.0843,-71.8314C181.0615,-63.8771 185.8155,-54.369 190.2139,-45.5723"/>
<polygon fill="#000000" stroke="#000000" points="193.4517,-46.9228 194.7934,-36.4133 187.1907,-43.7923 193.4517,-46.9228"/>
<g id="a_edge1&#45;headlabel"><a xlink:href="dir_000072_000000.xhtml" target="_top" xlink:title="9">
<text text-anchor="middle" x="194.3837" y="-48.9077" font-family="Helvetica,sans-Serif" font-size="10.00" fill="#000000">9</text>
</a>
</g>
</g>
<!-- dir_afe4835d9501312dff8cde2275a46453 -->
<g id="node4" class="node">
<title>dir_afe4835d9501312dff8cde2275a46453</title>
<g id="a_node4"><a xlink:href="dir_afe4835d9501312dff8cde2275a46453.xhtml" target="_top" xlink:title="reshaped_only_rhs">
<polygon fill="#ffffff" stroke="#000000" points="122,-108 24,-108 24,-72 122,-72 122,-108"/>
<text text-anchor="middle" x="73" y="-87.5" font-family="Helvetica,sans-Serif" font-size="10.00" fill="#000000">reshaped_only_rhs</text>
</a>
</g>
</g>
<!-- dir_afe4835d9501312dff8cde2275a46453&#45;&gt;dir_214608ef36d61442cb2b0c1c4e9a7def -->
<g id="edge4" class="edge">
<title>dir_afe4835d9501312dff8cde2275a46453&#45;&gt;dir_214608ef36d61442cb2b0c1c4e9a7def</title>
<path fill="none" stroke="#000000" d="M103.2377,-71.8881C112.1289,-66.6676 121.909,-61.0266 131,-56 140.1913,-50.9179 150.123,-45.6213 159.6121,-40.6524"/>
<polygon fill="#000000" stroke="#000000" points="161.2821,-43.7289 168.5357,-36.0065 158.0495,-37.52 161.2821,-43.7289"/>
<g id="a_edge4&#45;headlabel"><a xlink:href="dir_000073_000000.xhtml" target="_top" xlink:title="12">
<text text-anchor="middle" x="159.4049" y="-45.4073" font-family="Helvetica,sans-Serif" font-size="10.00" fill="#000000">12</text>
</a>
</g>
</g>
</g>
</svg>
