<?xml version="1.0" encoding="UTF-8" standalone="no"?>
<!DOCTYPE svg PUBLIC "-//W3C//DTD SVG 1.1//EN"
 "http://www.w3.org/Graphics/SVG/1.1/DTD/svg11.dtd">
<!-- Generated by graphviz version 2.40.1 (20161225.0304)
 -->
<!-- Title: src/core/cpu/kernels/softmax Pages: 1 -->
<svg width="186pt" height="231pt"
 viewBox="0.00 0.00 186.00 231.00" xmlns="http://www.w3.org/2000/svg" xmlns:xlink="http://www.w3.org/1999/xlink">
<g id="graph0" class="graph" transform="scale(1 1) rotate(0) translate(4 227)">
<title>src/core/cpu/kernels/softmax</title>
<polygon fill="#ffffff" stroke="transparent" points="-4,4 -4,-227 182,-227 182,4 -4,4"/>
<g id="clust1" class="cluster">
<title>clusterdir_245ee9a9c6615d71b72ba121a052806f</title>
<g id="a_clust1"><a xlink:href="dir_245ee9a9c6615d71b72ba121a052806f.xhtml" target="_top" xlink:title="kernels">
<polygon fill="#ddddee" stroke="#000000" points="12,-128 12,-215 170,-215 170,-128 12,-128"/>
<text text-anchor="middle" x="91" y="-203" font-family="Helvetica,sans-Serif" font-size="10.00" fill="#000000">kernels</text>
</a>
</g>
</g>
<g id="clust2" class="cluster">
<title>clusterdir_368897d52f1816dd9633d6b9a0d55a9b</title>
<g id="a_clust2"><a xlink:href="dir_368897d52f1816dd9633d6b9a0d55a9b.xhtml" target="_top">
<polygon fill="#eeeeff" stroke="#000000" points="20,-136 20,-188 162,-188 162,-136 20,-136"/>
</a>
</g>
</g>
<!-- dir_368897d52f1816dd9633d6b9a0d55a9b -->
<g id="node1" class="node">
<title>dir_368897d52f1816dd9633d6b9a0d55a9b</title>
<text text-anchor="middle" x="127" y="-159.5" font-family="Helvetica,sans-Serif" font-size="10.00" fill="#000000">softmax</text>
</g>
<!-- dir_045de2c862f2001d64a2d288967f1d28 -->
<g id="node2" class="node">
<title>dir_045de2c862f2001d64a2d288967f1d28</title>
<g id="a_node2"><a xlink:href="dir_045de2c862f2001d64a2d288967f1d28.xhtml" target="_top" xlink:title="impl">
<polygon fill="#ffffff" stroke="#ff0000" points="82,-180 28,-180 28,-144 82,-144 82,-180"/>
<text text-anchor="middle" x="55" y="-159.5" font-family="Helvetica,sans-Serif" font-size="10.00" fill="#000000">impl</text>
</a>
</g>
</g>
<!-- dir_d91e1966cc57df4f49d1e07be7697713 -->
<g id="node3" class="node">
<title>dir_d91e1966cc57df4f49d1e07be7697713</title>
<g id="a_node3"><a xlink:href="dir_d91e1966cc57df4f49d1e07be7697713.xhtml" target="_top" xlink:title="NEON">
<polygon fill="#ffffff" stroke="#ff0000" points="54,-108 0,-108 0,-72 54,-72 54,-108"/>
<text text-anchor="middle" x="27" y="-87.5" font-family="Helvetica,sans-Serif" font-size="10.00" fill="#000000">NEON</text>
</a>
</g>
</g>
<!-- dir_045de2c862f2001d64a2d288967f1d28&#45;&gt;dir_d91e1966cc57df4f49d1e07be7697713 -->
<g id="edge1" class="edge">
<title>dir_045de2c862f2001d64a2d288967f1d28&#45;&gt;dir_d91e1966cc57df4f49d1e07be7697713</title>
<path fill="none" stroke="#000000" d="M47.9344,-143.8314C44.874,-135.9617 41.2221,-126.5712 37.8318,-117.8533"/>
<polygon fill="#000000" stroke="#000000" points="41.0473,-116.4647 34.1607,-108.4133 34.5232,-119.0019 41.0473,-116.4647"/>
<g id="a_edge1&#45;headlabel"><a xlink:href="dir_000086_000025.xhtml" target="_top" xlink:title="3">
<text text-anchor="middle" x="44.9963" y="-116.2859" font-family="Helvetica,sans-Serif" font-size="10.00" fill="#000000">3</text>
</a>
</g>
</g>
<!-- dir_5815af820a9cc9481f1d0990a0d60286 -->
<g id="node4" class="node">
<title>dir_5815af820a9cc9481f1d0990a0d60286</title>
<g id="a_node4"><a xlink:href="dir_5815af820a9cc9481f1d0990a0d60286.xhtml" target="_top" xlink:title="support">
<polygon fill="none" stroke="#000000" points="81,-36 27,-36 27,0 81,0 81,-36"/>
<text text-anchor="middle" x="54" y="-15.5" font-family="Helvetica,sans-Serif" font-size="10.00" fill="#000000">support</text>
</a>
</g>
</g>
<!-- dir_045de2c862f2001d64a2d288967f1d28&#45;&gt;dir_5815af820a9cc9481f1d0990a0d60286 -->
<g id="edge2" class="edge">
<title>dir_045de2c862f2001d64a2d288967f1d28&#45;&gt;dir_5815af820a9cc9481f1d0990a0d60286</title>
<path fill="none" stroke="#000000" d="M58.415,-143.5804C60.1709,-133.1767 62.1226,-119.9092 63,-108 64.1756,-92.0432 64.3197,-87.9455 63,-72 62.3055,-63.6085 61.0138,-54.5578 59.6214,-46.3092"/>
<polygon fill="#000000" stroke="#000000" points="63.0544,-45.6235 57.8413,-36.3999 56.1647,-46.8612 63.0544,-45.6235"/>
<g id="a_edge2&#45;headlabel"><a xlink:href="dir_000086_000028.xhtml" target="_top" xlink:title="1">
<text text-anchor="middle" x="66.4844" y="-46.1595" font-family="Helvetica,sans-Serif" font-size="10.00" fill="#000000">1</text>
</a>
</g>
</g>
<!-- dir_d91e1966cc57df4f49d1e07be7697713&#45;&gt;dir_5815af820a9cc9481f1d0990a0d60286 -->
<g id="edge3" class="edge">
<title>dir_d91e1966cc57df4f49d1e07be7697713&#45;&gt;dir_5815af820a9cc9481f1d0990a0d60286</title>
<path fill="none" stroke="#000000" d="M33.8132,-71.8314C36.7644,-63.9617 40.2858,-54.5712 43.555,-45.8533"/>
<polygon fill="#000000" stroke="#000000" points="46.8609,-47.0055 47.095,-36.4133 40.3066,-44.5476 46.8609,-47.0055"/>
<g id="a_edge3&#45;headlabel"><a xlink:href="dir_000025_000028.xhtml" target="_top" xlink:title="22">
<text text-anchor="middle" x="48.2573" y="-48.8682" font-family="Helvetica,sans-Serif" font-size="10.00" fill="#000000">22</text>
</a>
</g>
</g>
</g>
</svg>
