<?xml version="1.0" encoding="UTF-8" standalone="no"?>
<!DOCTYPE svg PUBLIC "-//W3C//DTD SVG 1.1//EN"
 "http://www.w3.org/Graphics/SVG/1.1/DTD/svg11.dtd">
<!-- Generated by graphviz version 2.40.1 (20161225.0304)
 -->
<!-- Title: src/core/NEON/kernels/arm_gemm Pages: 1 -->
<svg width="434pt" height="183pt"
 viewBox="0.00 0.00 434.00 183.00" xmlns="http://www.w3.org/2000/svg" xmlns:xlink="http://www.w3.org/1999/xlink">
<g id="graph0" class="graph" transform="scale(1 1) rotate(0) translate(4 179)">
<title>src/core/NEON/kernels/arm_gemm</title>
<polygon fill="#ffffff" stroke="transparent" points="-4,4 -4,-179 430,-179 430,4 -4,4"/>
<g id="clust1" class="cluster">
<title>clusterdir_1ce938f580a6f304b99685e2c1dd19db</title>
<g id="a_clust1"><a xlink:href="dir_1ce938f580a6f304b99685e2c1dd19db.xhtml" target="_top" xlink:title="kernels">
<polygon fill="#ddddee" stroke="#000000" points="8,-8 8,-167 364,-167 364,-8 8,-8"/>
<text text-anchor="middle" x="186" y="-155" font-family="Helvetica,sans-Serif" font-size="10.00" fill="#000000">kernels</text>
</a>
</g>
</g>
<g id="clust2" class="cluster">
<title>clusterdir_9847dd9cb7a28e46201717fa7336cf62</title>
<g id="a_clust2"><a xlink:href="dir_9847dd9cb7a28e46201717fa7336cf62.xhtml" target="_top">
<polygon fill="#eeeeff" stroke="#000000" points="16,-16 16,-140 356,-140 356,-16 16,-16"/>
</a>
</g>
</g>
<!-- dir_9847dd9cb7a28e46201717fa7336cf62 -->
<g id="node1" class="node">
<title>dir_9847dd9cb7a28e46201717fa7336cf62</title>
<text text-anchor="middle" x="239" y="-111.5" font-family="Helvetica,sans-Serif" font-size="10.00" fill="#000000">arm_gemm</text>
</g>
<!-- dir_1b44196555a7bdead4d02cf983e6c404 -->
<g id="node2" class="node">
<title>dir_1b44196555a7bdead4d02cf983e6c404</title>
<g id="a_node2"><a xlink:href="dir_1b44196555a7bdead4d02cf983e6c404.xhtml" target="_top" xlink:title="indirect&#45;interleaves">
<polygon fill="#ffffff" stroke="#000000" points="122,-60 24,-60 24,-24 122,-24 122,-60"/>
<text text-anchor="middle" x="73" y="-39.5" font-family="Helvetica,sans-Serif" font-size="10.00" fill="#000000">indirect&#45;interleaves</text>
</a>
</g>
</g>
<!-- dir_9847dd9cb7a28e46201717fa7336cf62&#45;&gt;dir_1b44196555a7bdead4d02cf983e6c404 -->
<g id="edge2" class="edge">
<title>dir_9847dd9cb7a28e46201717fa7336cf62&#45;&gt;dir_1b44196555a7bdead4d02cf983e6c404</title>
<path fill="none" stroke="#000000" d="M206.2037,-99.7751C182.7067,-89.5836 150.6111,-75.6626 123.8128,-64.0393"/>
<polygon fill="#000000" stroke="#000000" points="125.1445,-60.8019 114.5776,-60.0336 122.359,-67.2239 125.1445,-60.8019"/>
<g id="a_edge2&#45;headlabel"><a xlink:href="dir_000154_000208.xhtml" target="_top" xlink:title="1">
<text text-anchor="middle" x="129.5721" y="-57.1274" font-family="Helvetica,sans-Serif" font-size="10.00" fill="#000000">1</text>
</a>
</g>
</g>
<!-- dir_1bfffff844e6b15c54f06f69450095a2 -->
<g id="node3" class="node">
<title>dir_1bfffff844e6b15c54f06f69450095a2</title>
<g id="a_node3"><a xlink:href="dir_1bfffff844e6b15c54f06f69450095a2.xhtml" target="_top" xlink:title="kernels">
<polygon fill="#ffffff" stroke="#ff0000" points="194,-60 140,-60 140,-24 194,-24 194,-60"/>
<text text-anchor="middle" x="167" y="-39.5" font-family="Helvetica,sans-Serif" font-size="10.00" fill="#000000">kernels</text>
</a>
</g>
</g>
<!-- dir_9847dd9cb7a28e46201717fa7336cf62&#45;&gt;dir_1bfffff844e6b15c54f06f69450095a2 -->
<g id="edge1" class="edge">
<title>dir_9847dd9cb7a28e46201717fa7336cf62&#45;&gt;dir_1bfffff844e6b15c54f06f69450095a2</title>
<path fill="none" stroke="#000000" d="M220.8314,-95.8314C212.2848,-87.2848 201.9443,-76.9443 192.6198,-67.6198"/>
<polygon fill="#000000" stroke="#000000" points="194.9592,-65.0095 185.4133,-60.4133 190.0095,-69.9592 194.9592,-65.0095"/>
<g id="a_edge1&#45;headlabel"><a xlink:href="dir_000154_000155.xhtml" target="_top" xlink:title="21">
<text text-anchor="middle" x="199.5087" y="-63.0436" font-family="Helvetica,sans-Serif" font-size="10.00" fill="#000000">21</text>
</a>
</g>
</g>
<!-- dir_736b7cb5ae91601e9fac1dc1b70c4612 -->
<g id="node4" class="node">
<title>dir_736b7cb5ae91601e9fac1dc1b70c4612</title>
<g id="a_node4"><a xlink:href="dir_736b7cb5ae91601e9fac1dc1b70c4612.xhtml" target="_top" xlink:title="merges">
<polygon fill="#ffffff" stroke="#000000" points="266,-60 212,-60 212,-24 266,-24 266,-60"/>
<text text-anchor="middle" x="239" y="-39.5" font-family="Helvetica,sans-Serif" font-size="10.00" fill="#000000">merges</text>
</a>
</g>
</g>
<!-- dir_9847dd9cb7a28e46201717fa7336cf62&#45;&gt;dir_736b7cb5ae91601e9fac1dc1b70c4612 -->
<g id="edge5" class="edge">
<title>dir_9847dd9cb7a28e46201717fa7336cf62&#45;&gt;dir_736b7cb5ae91601e9fac1dc1b70c4612</title>
<path fill="none" stroke="#000000" d="M239,-95.8314C239,-88.131 239,-78.9743 239,-70.4166"/>
<polygon fill="#000000" stroke="#000000" points="242.5001,-70.4132 239,-60.4133 235.5001,-70.4133 242.5001,-70.4132"/>
<g id="a_edge5&#45;headlabel"><a xlink:href="dir_000154_000209.xhtml" target="_top" xlink:title="1">
<text text-anchor="middle" x="245.3393" y="-71.5079" font-family="Helvetica,sans-Serif" font-size="10.00" fill="#000000">1</text>
</a>
</g>
</g>
<!-- dir_f11c7bbf76b3b5417003d346f29c89d2 -->
<g id="node5" class="node">
<title>dir_f11c7bbf76b3b5417003d346f29c89d2</title>
<g id="a_node5"><a xlink:href="dir_f11c7bbf76b3b5417003d346f29c89d2.xhtml" target="_top" xlink:title="transforms">
<polygon fill="#ffffff" stroke="#000000" points="347.5,-60 284.5,-60 284.5,-24 347.5,-24 347.5,-60"/>
<text text-anchor="middle" x="316" y="-39.5" font-family="Helvetica,sans-Serif" font-size="10.00" fill="#000000">transforms</text>
</a>
</g>
</g>
<!-- dir_9847dd9cb7a28e46201717fa7336cf62&#45;&gt;dir_f11c7bbf76b3b5417003d346f29c89d2 -->
<g id="edge3" class="edge">
<title>dir_9847dd9cb7a28e46201717fa7336cf62&#45;&gt;dir_f11c7bbf76b3b5417003d346f29c89d2</title>
<path fill="none" stroke="#000000" d="M258.4304,-95.8314C267.732,-87.1337 279.0204,-76.5783 289.1286,-67.1265"/>
<polygon fill="#000000" stroke="#000000" points="291.6621,-69.5493 296.5759,-60.1628 286.8811,-64.4363 291.6621,-69.5493"/>
<g id="a_edge3&#45;headlabel"><a xlink:href="dir_000154_000210.xhtml" target="_top" xlink:title="1">
<text text-anchor="middle" x="290.9757" y="-71.5782" font-family="Helvetica,sans-Serif" font-size="10.00" fill="#000000">1</text>
</a>
</g>
</g>
<!-- dir_5815af820a9cc9481f1d0990a0d60286 -->
<g id="node6" class="node">
<title>dir_5815af820a9cc9481f1d0990a0d60286</title>
<g id="a_node6"><a xlink:href="dir_5815af820a9cc9481f1d0990a0d60286.xhtml" target="_top" xlink:title="support">
<polygon fill="none" stroke="#000000" points="426,-60 372,-60 372,-24 426,-24 426,-60"/>
<text text-anchor="middle" x="399" y="-39.5" font-family="Helvetica,sans-Serif" font-size="10.00" fill="#000000">support</text>
</a>
</g>
</g>
<!-- dir_9847dd9cb7a28e46201717fa7336cf62&#45;&gt;dir_5815af820a9cc9481f1d0990a0d60286 -->
<g id="edge4" class="edge">
<title>dir_9847dd9cb7a28e46201717fa7336cf62&#45;&gt;dir_5815af820a9cc9481f1d0990a0d60286</title>
<path fill="none" stroke="#000000" d="M271.6612,-99.5578C296.0399,-88.7455 330.1502,-73.5485 360,-60 360.8318,-59.6224 361.6734,-59.2398 362.5217,-58.8534"/>
<polygon fill="#000000" stroke="#000000" points="364.1085,-61.9764 371.745,-54.6325 361.1955,-55.6113 364.1085,-61.9764"/>
<g id="a_edge4&#45;headlabel"><a xlink:href="dir_000154_000028.xhtml" target="_top" xlink:title="1">
<text text-anchor="middle" x="362.0214" y="-63.554" font-family="Helvetica,sans-Serif" font-size="10.00" fill="#000000">1</text>
</a>
</g>
</g>
</g>
</svg>
