<?xml version="1.0" encoding="UTF-8" standalone="no"?>
<!DOCTYPE svg PUBLIC "-//W3C//DTD SVG 1.1//EN"
 "http://www.w3.org/Graphics/SVG/1.1/DTD/svg11.dtd">
<!-- Generated by graphviz version 2.40.1 (20161225.0304)
 -->
<!-- Title: src/core/utils/helpers Pages: 1 -->
<svg width="122pt" height="223pt"
 viewBox="0.00 0.00 122.00 223.00" xmlns="http://www.w3.org/2000/svg" xmlns:xlink="http://www.w3.org/1999/xlink">
<g id="graph0" class="graph" transform="scale(1 1) rotate(0) translate(4 219)">
<title>src/core/utils/helpers</title>
<polygon fill="#ffffff" stroke="transparent" points="-4,4 -4,-219 118,-219 118,4 -4,4"/>
<g id="clust1" class="cluster">
<title>clusterdir_a8053b3d69cfefb2b2e6ec7bf9dd5c1a</title>
<g id="a_clust1"><a xlink:href="dir_a8053b3d69cfefb2b2e6ec7bf9dd5c1a.xhtml" target="_top" xlink:title="utils">
<polygon fill="#ddddee" stroke="#000000" points="36,-136 36,-207 106,-207 106,-136 36,-136"/>
<text text-anchor="middle" x="71" y="-195" font-family="Helvetica,sans-Serif" font-size="10.00" fill="#000000">utils</text>
</a>
</g>
</g>
<!-- dir_3ce11c95fd532b87aa3e6777b412b94b -->
<g id="node1" class="node">
<title>dir_3ce11c95fd532b87aa3e6777b412b94b</title>
<g id="a_node1"><a xlink:href="dir_3ce11c95fd532b87aa3e6777b412b94b.xhtml" target="_top" xlink:title="helpers">
<polygon fill="#eeeeff" stroke="#000000" points="98,-180 44,-180 44,-144 98,-144 98,-180"/>
<text text-anchor="middle" x="71" y="-159.5" font-family="Helvetica,sans-Serif" font-size="10.00" fill="#000000">helpers</text>
</a>
</g>
</g>
<!-- dir_214608ef36d61442cb2b0c1c4e9a7def -->
<g id="node2" class="node">
<title>dir_214608ef36d61442cb2b0c1c4e9a7def</title>
<g id="a_node2"><a xlink:href="dir_214608ef36d61442cb2b0c1c4e9a7def.xhtml" target="_top" xlink:title="arm_compute">
<polygon fill="#ffffff" stroke="#ff0000" points="76,-108 0,-108 0,-72 76,-72 76,-108"/>
<text text-anchor="middle" x="38" y="-87.5" font-family="Helvetica,sans-Serif" font-size="10.00" fill="#000000">arm_compute</text>
</a>
</g>
</g>
<!-- dir_3ce11c95fd532b87aa3e6777b412b94b&#45;&gt;dir_214608ef36d61442cb2b0c1c4e9a7def -->
<g id="edge1" class="edge">
<title>dir_3ce11c95fd532b87aa3e6777b412b94b&#45;&gt;dir_214608ef36d61442cb2b0c1c4e9a7def</title>
<path fill="none" stroke="#000000" d="M62.6727,-143.8314C59.027,-135.8771 54.6691,-126.369 50.6373,-117.5723"/>
<polygon fill="#000000" stroke="#000000" points="53.7877,-116.0456 46.4394,-108.4133 47.4243,-118.9622 53.7877,-116.0456"/>
<g id="a_edge1&#45;headlabel"><a xlink:href="dir_000214_000000.xhtml" target="_top" xlink:title="2">
<text text-anchor="middle" x="57.8665" y="-115.6304" font-family="Helvetica,sans-Serif" font-size="10.00" fill="#000000">2</text>
</a>
</g>
</g>
<!-- dir_5815af820a9cc9481f1d0990a0d60286 -->
<g id="node3" class="node">
<title>dir_5815af820a9cc9481f1d0990a0d60286</title>
<g id="a_node3"><a xlink:href="dir_5815af820a9cc9481f1d0990a0d60286.xhtml" target="_top" xlink:title="support">
<polygon fill="none" stroke="#000000" points="65,-36 11,-36 11,0 65,0 65,-36"/>
<text text-anchor="middle" x="38" y="-15.5" font-family="Helvetica,sans-Serif" font-size="10.00" fill="#000000">support</text>
</a>
</g>
</g>
<!-- dir_3ce11c95fd532b87aa3e6777b412b94b&#45;&gt;dir_5815af820a9cc9481f1d0990a0d60286 -->
<g id="edge2" class="edge">
<title>dir_3ce11c95fd532b87aa3e6777b412b94b&#45;&gt;dir_5815af820a9cc9481f1d0990a0d60286</title>
<path fill="none" stroke="#000000" d="M79.0394,-143.8674C86.0854,-125.2936 93.9232,-95.8438 85,-72 81.1046,-61.5911 74.1959,-51.8652 66.8544,-43.6152"/>
<polygon fill="#000000" stroke="#000000" points="69.2014,-41.0048 59.7672,-36.1835 64.1357,-45.8358 69.2014,-41.0048"/>
<g id="a_edge2&#45;headlabel"><a xlink:href="dir_000214_000028.xhtml" target="_top" xlink:title="1">
<text text-anchor="middle" x="73.7369" y="-39.1467" font-family="Helvetica,sans-Serif" font-size="10.00" fill="#000000">1</text>
</a>
</g>
</g>
<!-- dir_214608ef36d61442cb2b0c1c4e9a7def&#45;&gt;dir_5815af820a9cc9481f1d0990a0d60286 -->
<g id="edge3" class="edge">
<title>dir_214608ef36d61442cb2b0c1c4e9a7def&#45;&gt;dir_5815af820a9cc9481f1d0990a0d60286</title>
<path fill="none" stroke="#000000" d="M32.0476,-71.8314C31.2972,-64.131 31.0763,-54.9743 31.3849,-46.4166"/>
<polygon fill="#000000" stroke="#000000" points="34.8792,-46.6161 32.024,-36.4133 27.8935,-46.1697 34.8792,-46.6161"/>
<g id="a_edge3&#45;headlabel"><a xlink:href="dir_000000_000028.xhtml" target="_top" xlink:title="18">
<text text-anchor="middle" x="37.4836" y="-47.8844" font-family="Helvetica,sans-Serif" font-size="10.00" fill="#000000">18</text>
</a>
</g>
</g>
<!-- dir_5815af820a9cc9481f1d0990a0d60286&#45;&gt;dir_214608ef36d61442cb2b0c1c4e9a7def -->
<g id="edge4" class="edge">
<title>dir_5815af820a9cc9481f1d0990a0d60286&#45;&gt;dir_214608ef36d61442cb2b0c1c4e9a7def</title>
<path fill="none" stroke="#000000" d="M43.976,-36.4133C44.7071,-44.0593 44.9203,-53.1084 44.6155,-61.5726"/>
<polygon fill="#000000" stroke="#000000" points="41.1048,-61.6264 43.9524,-71.8314 48.0902,-62.078 41.1048,-61.6264"/>
<g id="a_edge4&#45;headlabel"><a xlink:href="dir_000028_000000.xhtml" target="_top" xlink:title="6">
<text text-anchor="middle" x="38.5032" y="-55.3562" font-family="Helvetica,sans-Serif" font-size="10.00" fill="#000000">6</text>
</a>
</g>
</g>
</g>
</svg>
