<?xml version="1.0" encoding="UTF-8" standalone="no"?>
<!DOCTYPE svg PUBLIC "-//W3C//DTD SVG 1.1//EN"
 "http://www.w3.org/Graphics/SVG/1.1/DTD/svg11.dtd">
<!-- Generated by graphviz version 2.40.1 (20161225.0304)
 -->
<!-- Title: src/core/NEON/kernels/detail Pages: 1 -->
<svg width="169pt" height="223pt"
 viewBox="0.00 0.00 169.21 223.00" xmlns="http://www.w3.org/2000/svg" xmlns:xlink="http://www.w3.org/1999/xlink">
<g id="graph0" class="graph" transform="scale(1 1) rotate(0) translate(4 219)">
<title>src/core/NEON/kernels/detail</title>
<polygon fill="#ffffff" stroke="transparent" points="-4,4 -4,-219 165.206,-219 165.206,4 -4,4"/>
<g id="clust1" class="cluster">
<title>clusterdir_1ce938f580a6f304b99685e2c1dd19db</title>
<g id="a_clust1"><a xlink:href="dir_1ce938f580a6f304b99685e2c1dd19db.xhtml" target="_top" xlink:title="kernels">
<polygon fill="#ddddee" stroke="#000000" points="75,-136 75,-207 145,-207 145,-136 75,-136"/>
<text text-anchor="middle" x="110" y="-195" font-family="Helvetica,sans-Serif" font-size="10.00" fill="#000000">kernels</text>
</a>
</g>
</g>
<!-- dir_47c52b626b579a630a004d74c906e8a5 -->
<g id="node1" class="node">
<title>dir_47c52b626b579a630a004d74c906e8a5</title>
<g id="a_node1"><a xlink:href="dir_47c52b626b579a630a004d74c906e8a5.xhtml" target="_top" xlink:title="detail">
<polygon fill="#eeeeff" stroke="#000000" points="137,-180 83,-180 83,-144 137,-144 137,-180"/>
<text text-anchor="middle" x="110" y="-159.5" font-family="Helvetica,sans-Serif" font-size="10.00" fill="#000000">detail</text>
</a>
</g>
</g>
<!-- dir_8224aa485683c095eaa3fd7faa788467 -->
<g id="node2" class="node">
<title>dir_8224aa485683c095eaa3fd7faa788467</title>
<g id="a_node2"><a xlink:href="dir_8224aa485683c095eaa3fd7faa788467.xhtml" target="_top" xlink:title="wrapper">
<polygon fill="#ffffff" stroke="#ff0000" points="54,-108 0,-108 0,-72 54,-72 54,-108"/>
<text text-anchor="middle" x="27" y="-87.5" font-family="Helvetica,sans-Serif" font-size="10.00" fill="#000000">wrapper</text>
</a>
</g>
</g>
<!-- dir_47c52b626b579a630a004d74c906e8a5&#45;&gt;dir_8224aa485683c095eaa3fd7faa788467 -->
<g id="edge1" class="edge">
<title>dir_47c52b626b579a630a004d74c906e8a5&#45;&gt;dir_8224aa485683c095eaa3fd7faa788467</title>
<path fill="none" stroke="#000000" d="M89.0556,-143.8314C78.9309,-135.0485 66.6223,-124.3712 55.6452,-114.8489"/>
<polygon fill="#000000" stroke="#000000" points="57.7851,-112.0718 47.9377,-108.1628 53.1981,-117.3595 57.7851,-112.0718"/>
<g id="a_edge1&#45;headlabel"><a xlink:href="dir_000211_000026.xhtml" target="_top" xlink:title="2">
<text text-anchor="middle" x="62.3609" y="-109.7825" font-family="Helvetica,sans-Serif" font-size="10.00" fill="#000000">2</text>
</a>
</g>
</g>
<!-- dir_214608ef36d61442cb2b0c1c4e9a7def -->
<g id="node3" class="node">
<title>dir_214608ef36d61442cb2b0c1c4e9a7def</title>
<g id="a_node3"><a xlink:href="dir_214608ef36d61442cb2b0c1c4e9a7def.xhtml" target="_top" xlink:title="arm_compute">
<polygon fill="#ffffff" stroke="#ff0000" points="148,-108 72,-108 72,-72 148,-72 148,-108"/>
<text text-anchor="middle" x="110" y="-87.5" font-family="Helvetica,sans-Serif" font-size="10.00" fill="#000000">arm_compute</text>
</a>
</g>
</g>
<!-- dir_47c52b626b579a630a004d74c906e8a5&#45;&gt;dir_214608ef36d61442cb2b0c1c4e9a7def -->
<g id="edge2" class="edge">
<title>dir_47c52b626b579a630a004d74c906e8a5&#45;&gt;dir_214608ef36d61442cb2b0c1c4e9a7def</title>
<path fill="none" stroke="#000000" d="M110,-143.8314C110,-136.131 110,-126.9743 110,-118.4166"/>
<polygon fill="#000000" stroke="#000000" points="113.5001,-118.4132 110,-108.4133 106.5001,-118.4133 113.5001,-118.4132"/>
<g id="a_edge2&#45;headlabel"><a xlink:href="dir_000211_000000.xhtml" target="_top" xlink:title="4">
<text text-anchor="middle" x="116.3393" y="-119.5079" font-family="Helvetica,sans-Serif" font-size="10.00" fill="#000000">4</text>
</a>
</g>
</g>
<!-- dir_5815af820a9cc9481f1d0990a0d60286 -->
<g id="node4" class="node">
<title>dir_5815af820a9cc9481f1d0990a0d60286</title>
<g id="a_node4"><a xlink:href="dir_5815af820a9cc9481f1d0990a0d60286.xhtml" target="_top" xlink:title="support">
<polygon fill="none" stroke="#000000" points="137,-36 83,-36 83,0 137,0 137,-36"/>
<text text-anchor="middle" x="110" y="-15.5" font-family="Helvetica,sans-Serif" font-size="10.00" fill="#000000">support</text>
</a>
</g>
</g>
<!-- dir_47c52b626b579a630a004d74c906e8a5&#45;&gt;dir_5815af820a9cc9481f1d0990a0d60286 -->
<g id="edge3" class="edge">
<title>dir_47c52b626b579a630a004d74c906e8a5&#45;&gt;dir_5815af820a9cc9481f1d0990a0d60286</title>
<path fill="none" stroke="#000000" d="M131.7672,-143.8165C141.4723,-134.2816 151.8597,-121.7355 157,-108 162.6079,-93.015 162.6079,-86.985 157,-72 153.1046,-61.5911 146.1959,-51.8652 138.8544,-43.6152"/>
<polygon fill="#000000" stroke="#000000" points="141.2014,-41.0048 131.7672,-36.1835 136.1357,-45.8358 141.2014,-41.0048"/>
<g id="a_edge3&#45;headlabel"><a xlink:href="dir_000211_000028.xhtml" target="_top" xlink:title="1">
<text text-anchor="middle" x="145.7369" y="-39.1467" font-family="Helvetica,sans-Serif" font-size="10.00" fill="#000000">1</text>
</a>
</g>
</g>
<!-- dir_214608ef36d61442cb2b0c1c4e9a7def&#45;&gt;dir_5815af820a9cc9481f1d0990a0d60286 -->
<g id="edge4" class="edge">
<title>dir_214608ef36d61442cb2b0c1c4e9a7def&#45;&gt;dir_5815af820a9cc9481f1d0990a0d60286</title>
<path fill="none" stroke="#000000" d="M104.0476,-71.8314C103.2972,-64.131 103.0763,-54.9743 103.3849,-46.4166"/>
<polygon fill="#000000" stroke="#000000" points="106.8792,-46.6161 104.024,-36.4133 99.8935,-46.1697 106.8792,-46.6161"/>
<g id="a_edge4&#45;headlabel"><a xlink:href="dir_000000_000028.xhtml" target="_top" xlink:title="18">
<text text-anchor="middle" x="109.4836" y="-47.8844" font-family="Helvetica,sans-Serif" font-size="10.00" fill="#000000">18</text>
</a>
</g>
</g>
<!-- dir_5815af820a9cc9481f1d0990a0d60286&#45;&gt;dir_214608ef36d61442cb2b0c1c4e9a7def -->
<g id="edge5" class="edge">
<title>dir_5815af820a9cc9481f1d0990a0d60286&#45;&gt;dir_214608ef36d61442cb2b0c1c4e9a7def</title>
<path fill="none" stroke="#000000" d="M115.976,-36.4133C116.7071,-44.0593 116.9203,-53.1084 116.6155,-61.5726"/>
<polygon fill="#000000" stroke="#000000" points="113.1048,-61.6264 115.9524,-71.8314 120.0902,-62.078 113.1048,-61.6264"/>
<g id="a_edge5&#45;headlabel"><a xlink:href="dir_000028_000000.xhtml" target="_top" xlink:title="6">
<text text-anchor="middle" x="110.5032" y="-55.3562" font-family="Helvetica,sans-Serif" font-size="10.00" fill="#000000">6</text>
</a>
</g>
</g>
</g>
</svg>
