<?xml version="1.0" encoding="UTF-8" standalone="no"?>
<!DOCTYPE svg PUBLIC "-//W3C//DTD SVG 1.1//EN"
 "http://www.w3.org/Graphics/SVG/1.1/DTD/svg11.dtd">
<!-- Generated by graphviz version 2.40.1 (20161225.0304)
 -->
<!-- Title: src/runtime/CL/functions Pages: 1 -->
<svg width="386pt" height="439pt"
 viewBox="0.00 0.00 385.79 439.00" xmlns="http://www.w3.org/2000/svg" xmlns:xlink="http://www.w3.org/1999/xlink">
<g id="graph0" class="graph" transform="scale(1 1) rotate(0) translate(4 435)">
<title>src/runtime/CL/functions</title>
<polygon fill="#ffffff" stroke="transparent" points="-4,4 -4,-435 381.7883,-435 381.7883,4 -4,4"/>
<g id="clust1" class="cluster">
<title>clusterdir_43c3fdbf778d1fd99e2e38f09fddd920</title>
<g id="a_clust1"><a xlink:href="dir_43c3fdbf778d1fd99e2e38f09fddd920.xhtml" target="_top" xlink:title="CL">
<polygon fill="#ddddee" stroke="#000000" points="176,-352 176,-423 248,-423 248,-352 176,-352"/>
<text text-anchor="middle" x="212" y="-411" font-family="Helvetica,sans-Serif" font-size="10.00" fill="#000000">CL</text>
</a>
</g>
</g>
<!-- dir_0304d3529340c629ae0050036d07056a -->
<g id="node1" class="node">
<title>dir_0304d3529340c629ae0050036d07056a</title>
<g id="a_node1"><a xlink:href="dir_0304d3529340c629ae0050036d07056a.xhtml" target="_top" xlink:title="functions">
<polygon fill="#eeeeff" stroke="#000000" points="240,-396 184,-396 184,-360 240,-360 240,-396"/>
<text text-anchor="middle" x="212" y="-375.5" font-family="Helvetica,sans-Serif" font-size="10.00" fill="#000000">functions</text>
</a>
</g>
</g>
<!-- dir_cbdb8362360e11eafe2fa3bc74cf0ffd -->
<g id="node2" class="node">
<title>dir_cbdb8362360e11eafe2fa3bc74cf0ffd</title>
<g id="a_node2"><a xlink:href="dir_cbdb8362360e11eafe2fa3bc74cf0ffd.xhtml" target="_top" xlink:title="utils">
<polygon fill="#ffffff" stroke="#ff0000" points="100,-252 46,-252 46,-216 100,-216 100,-252"/>
<text text-anchor="middle" x="73" y="-231.5" font-family="Helvetica,sans-Serif" font-size="10.00" fill="#000000">utils</text>
</a>
</g>
</g>
<!-- dir_0304d3529340c629ae0050036d07056a&#45;&gt;dir_cbdb8362360e11eafe2fa3bc74cf0ffd -->
<g id="edge8" class="edge">
<title>dir_0304d3529340c629ae0050036d07056a&#45;&gt;dir_cbdb8362360e11eafe2fa3bc74cf0ffd</title>
<path fill="none" stroke="#000000" d="M183.7141,-368.5921C161.6684,-360.0064 131.606,-345.3738 112,-324 95.9002,-306.4485 85.7513,-281.2112 79.8565,-261.9252"/>
<polygon fill="#000000" stroke="#000000" points="83.1869,-260.8408 77.0805,-252.1826 76.4548,-262.759 83.1869,-260.8408"/>
<g id="a_edge8&#45;headlabel"><a xlink:href="dir_000231_000036.xhtml" target="_top" xlink:title="2">
<text text-anchor="middle" x="86.9024" y="-261.0198" font-family="Helvetica,sans-Serif" font-size="10.00" fill="#000000">2</text>
</a>
</g>
</g>
<!-- dir_3747c56b457df80298a311fe12706951 -->
<g id="node3" class="node">
<title>dir_3747c56b457df80298a311fe12706951</title>
<g id="a_node3"><a xlink:href="dir_3747c56b457df80298a311fe12706951.xhtml" target="_top" xlink:title="gpu">
<polygon fill="#ffffff" stroke="#ff0000" points="363,-252 309,-252 309,-216 363,-216 363,-252"/>
<text text-anchor="middle" x="336" y="-231.5" font-family="Helvetica,sans-Serif" font-size="10.00" fill="#000000">gpu</text>
</a>
</g>
</g>
<!-- dir_0304d3529340c629ae0050036d07056a&#45;&gt;dir_3747c56b457df80298a311fe12706951 -->
<g id="edge9" class="edge">
<title>dir_0304d3529340c629ae0050036d07056a&#45;&gt;dir_3747c56b457df80298a311fe12706951</title>
<path fill="none" stroke="#000000" d="M240.3448,-364.7922C257.9352,-355.4355 279.9716,-341.4586 295,-324 310.5718,-305.9101 321.3218,-280.9276 327.895,-261.8726"/>
<polygon fill="#000000" stroke="#000000" points="331.2609,-262.8401 331.038,-252.2476 324.6067,-260.6671 331.2609,-262.8401"/>
<g id="a_edge9&#45;headlabel"><a xlink:href="dir_000231_000054.xhtml" target="_top" xlink:title="14">
<text text-anchor="middle" x="332.8442" y="-264.6384" font-family="Helvetica,sans-Serif" font-size="10.00" fill="#000000">14</text>
</a>
</g>
</g>
<!-- dir_214608ef36d61442cb2b0c1c4e9a7def -->
<g id="node4" class="node">
<title>dir_214608ef36d61442cb2b0c1c4e9a7def</title>
<g id="a_node4"><a xlink:href="dir_214608ef36d61442cb2b0c1c4e9a7def.xhtml" target="_top" xlink:title="arm_compute">
<polygon fill="#ffffff" stroke="#ff0000" points="198,-180 122,-180 122,-144 198,-144 198,-180"/>
<text text-anchor="middle" x="160" y="-159.5" font-family="Helvetica,sans-Serif" font-size="10.00" fill="#000000">arm_compute</text>
</a>
</g>
</g>
<!-- dir_0304d3529340c629ae0050036d07056a&#45;&gt;dir_214608ef36d61442cb2b0c1c4e9a7def -->
<g id="edge10" class="edge">
<title>dir_0304d3529340c629ae0050036d07056a&#45;&gt;dir_214608ef36d61442cb2b0c1c4e9a7def</title>
<path fill="none" stroke="#000000" d="M183.9994,-363.504C169.4811,-354.3276 153.1235,-340.9809 145,-324 124.2324,-280.5889 137.7515,-223.2062 149.1184,-189.6768"/>
<polygon fill="#000000" stroke="#000000" points="152.4787,-190.6735 152.5366,-180.0788 145.8844,-188.325 152.4787,-190.6735"/>
<g id="a_edge10&#45;headlabel"><a xlink:href="dir_000231_000000.xhtml" target="_top" xlink:title="539">
<text text-anchor="middle" x="153.9475" y="-192.5123" font-family="Helvetica,sans-Serif" font-size="10.00" fill="#000000">539</text>
</a>
</g>
</g>
<!-- dir_a67538344c2c86328918cac423ccf8cb -->
<g id="node5" class="node">
<title>dir_a67538344c2c86328918cac423ccf8cb</title>
<g id="a_node5"><a xlink:href="dir_a67538344c2c86328918cac423ccf8cb.xhtml" target="_top" xlink:title="gemm_auto_heuristics">
<polygon fill="none" stroke="#000000" points="269.5,-324 154.5,-324 154.5,-288 269.5,-288 269.5,-324"/>
<text text-anchor="middle" x="212" y="-303.5" font-family="Helvetica,sans-Serif" font-size="10.00" fill="#000000">gemm_auto_heuristics</text>
</a>
</g>
</g>
<!-- dir_0304d3529340c629ae0050036d07056a&#45;&gt;dir_a67538344c2c86328918cac423ccf8cb -->
<g id="edge11" class="edge">
<title>dir_0304d3529340c629ae0050036d07056a&#45;&gt;dir_a67538344c2c86328918cac423ccf8cb</title>
<path fill="none" stroke="#000000" d="M212,-359.8314C212,-352.131 212,-342.9743 212,-334.4166"/>
<polygon fill="#000000" stroke="#000000" points="215.5001,-334.4132 212,-324.4133 208.5001,-334.4133 215.5001,-334.4132"/>
<g id="a_edge11&#45;headlabel"><a xlink:href="dir_000231_000233.xhtml" target="_top" xlink:title="2">
<text text-anchor="middle" x="218.3393" y="-335.5079" font-family="Helvetica,sans-Serif" font-size="10.00" fill="#000000">2</text>
</a>
</g>
</g>
<!-- dir_aebb8dcc11953d78e620bbef0b9e2183 -->
<g id="node6" class="node">
<title>dir_aebb8dcc11953d78e620bbef0b9e2183</title>
<g id="a_node6"><a xlink:href="dir_aebb8dcc11953d78e620bbef0b9e2183.xhtml" target="_top" xlink:title="core">
<polygon fill="#ffffff" stroke="#ff0000" points="237,-108 183,-108 183,-72 237,-72 237,-108"/>
<text text-anchor="middle" x="210" y="-87.5" font-family="Helvetica,sans-Serif" font-size="10.00" fill="#000000">core</text>
</a>
</g>
</g>
<!-- dir_0304d3529340c629ae0050036d07056a&#45;&gt;dir_aebb8dcc11953d78e620bbef0b9e2183 -->
<g id="edge12" class="edge">
<title>dir_0304d3529340c629ae0050036d07056a&#45;&gt;dir_aebb8dcc11953d78e620bbef0b9e2183</title>
<path fill="none" stroke="#000000" d="M240.3752,-366.7343C294.4166,-343.4145 404.0023,-286.1264 372,-216 347.3497,-161.9839 286.148,-124.9012 246.4254,-105.5945"/>
<polygon fill="#000000" stroke="#000000" points="247.8531,-102.3981 237.3159,-101.2943 244.8648,-108.7283 247.8531,-102.3981"/>
<g id="a_edge12&#45;headlabel"><a xlink:href="dir_000231_000004.xhtml" target="_top" xlink:title="313">
<text text-anchor="middle" x="252.3157" y="-98.865" font-family="Helvetica,sans-Serif" font-size="10.00" fill="#000000">313</text>
</a>
</g>
</g>
<!-- dir_5f09115d5b51f09d1c93a8d5eb5f8d5c -->
<g id="node7" class="node">
<title>dir_5f09115d5b51f09d1c93a8d5eb5f8d5c</title>
<g id="a_node7"><a xlink:href="dir_5f09115d5b51f09d1c93a8d5eb5f8d5c.xhtml" target="_top" xlink:title="gemm">
<polygon fill="none" stroke="#000000" points="291,-252 237,-252 237,-216 291,-216 291,-252"/>
<text text-anchor="middle" x="264" y="-231.5" font-family="Helvetica,sans-Serif" font-size="10.00" fill="#000000">gemm</text>
</a>
</g>
</g>
<!-- dir_0304d3529340c629ae0050036d07056a&#45;&gt;dir_5f09115d5b51f09d1c93a8d5eb5f8d5c -->
<g id="edge13" class="edge">
<title>dir_0304d3529340c629ae0050036d07056a&#45;&gt;dir_5f09115d5b51f09d1c93a8d5eb5f8d5c</title>
<path fill="none" stroke="#000000" d="M240.276,-362.9668C254.408,-353.7775 270.1385,-340.5896 278,-324 287.2559,-304.4678 282.6365,-280.1357 276.32,-261.6976"/>
<polygon fill="#000000" stroke="#000000" points="279.5155,-260.2518 272.7137,-252.1286 272.9652,-262.7204 279.5155,-260.2518"/>
<g id="a_edge13&#45;headlabel"><a xlink:href="dir_000231_000232.xhtml" target="_top" xlink:title="1">
<text text-anchor="middle" x="283.44" y="-260.1141" font-family="Helvetica,sans-Serif" font-size="10.00" fill="#000000">1</text>
</a>
</g>
</g>
<!-- dir_5815af820a9cc9481f1d0990a0d60286 -->
<g id="node8" class="node">
<title>dir_5815af820a9cc9481f1d0990a0d60286</title>
<g id="a_node8"><a xlink:href="dir_5815af820a9cc9481f1d0990a0d60286.xhtml" target="_top" xlink:title="support">
<polygon fill="none" stroke="#000000" points="116,-36 62,-36 62,0 116,0 116,-36"/>
<text text-anchor="middle" x="89" y="-15.5" font-family="Helvetica,sans-Serif" font-size="10.00" fill="#000000">support</text>
</a>
</g>
</g>
<!-- dir_0304d3529340c629ae0050036d07056a&#45;&gt;dir_5815af820a9cc9481f1d0990a0d60286 -->
<g id="edge14" class="edge">
<title>dir_0304d3529340c629ae0050036d07056a&#45;&gt;dir_5815af820a9cc9481f1d0990a0d60286</title>
<path fill="none" stroke="#000000" d="M183.848,-372.6441C126.1799,-359.8683 0,-321.8742 0,-234 0,-234 0,-234 0,-162 0,-114.9216 34.8472,-70.3783 60.9315,-43.6306"/>
<polygon fill="#000000" stroke="#000000" points="63.7357,-45.7779 68.3579,-36.2445 58.7995,-40.8147 63.7357,-45.7779"/>
<g id="a_edge14&#45;headlabel"><a xlink:href="dir_000231_000028.xhtml" target="_top" xlink:title="3">
<text text-anchor="middle" x="63.1893" y="-47.8258" font-family="Helvetica,sans-Serif" font-size="10.00" fill="#000000">3</text>
</a>
</g>
</g>
<!-- dir_cbdb8362360e11eafe2fa3bc74cf0ffd&#45;&gt;dir_214608ef36d61442cb2b0c1c4e9a7def -->
<g id="edge1" class="edge">
<title>dir_cbdb8362360e11eafe2fa3bc74cf0ffd&#45;&gt;dir_214608ef36d61442cb2b0c1c4e9a7def</title>
<path fill="none" stroke="#000000" d="M89.0014,-215.8314C98.8528,-206.9632 111.7403,-196.1637 123.8709,-186.5718"/>
<polygon fill="#000000" stroke="#000000" points="126.3617,-189.0683 132.1014,-180.1628 122.061,-183.5452 126.3617,-189.0683"/>
<g id="a_edge1&#45;headlabel"><a xlink:href="dir_000036_000000.xhtml" target="_top" xlink:title="39">
<text text-anchor="middle" x="125.27" y="-191.0169" font-family="Helvetica,sans-Serif" font-size="10.00" fill="#000000">39</text>
</a>
</g>
</g>
<!-- dir_cbdb8362360e11eafe2fa3bc74cf0ffd&#45;&gt;dir_5815af820a9cc9481f1d0990a0d60286 -->
<g id="edge2" class="edge">
<title>dir_cbdb8362360e11eafe2fa3bc74cf0ffd&#45;&gt;dir_5815af820a9cc9481f1d0990a0d60286</title>
<path fill="none" stroke="#000000" d="M70.3907,-215.9555C69.7205,-178.3144 75.9151,-91.1867 82.1928,-46.1246"/>
<polygon fill="#000000" stroke="#000000" points="85.6673,-46.5558 83.7008,-36.1451 78.7459,-45.5099 85.6673,-46.5558"/>
<g id="a_edge2&#45;headlabel"><a xlink:href="dir_000036_000028.xhtml" target="_top" xlink:title="3">
<text text-anchor="middle" x="87.9378" y="-48.0342" font-family="Helvetica,sans-Serif" font-size="10.00" fill="#000000">3</text>
</a>
</g>
</g>
<!-- dir_3747c56b457df80298a311fe12706951&#45;&gt;dir_214608ef36d61442cb2b0c1c4e9a7def -->
<g id="edge3" class="edge">
<title>dir_3747c56b457df80298a311fe12706951&#45;&gt;dir_214608ef36d61442cb2b0c1c4e9a7def</title>
<path fill="none" stroke="#000000" d="M308.6112,-219.968C305.7217,-218.589 302.8125,-217.2421 300,-216 269.756,-202.6427 235.0908,-189.2575 207.8213,-179.1549"/>
<polygon fill="#000000" stroke="#000000" points="208.7246,-175.7579 198.1311,-175.5876 206.3062,-182.3269 208.7246,-175.7579"/>
<g id="a_edge3&#45;headlabel"><a xlink:href="dir_000054_000000.xhtml" target="_top" xlink:title="11">
<text text-anchor="middle" x="213.0788" y="-171.8352" font-family="Helvetica,sans-Serif" font-size="10.00" fill="#000000">11</text>
</a>
</g>
</g>
<!-- dir_3747c56b457df80298a311fe12706951&#45;&gt;dir_aebb8dcc11953d78e620bbef0b9e2183 -->
<g id="edge4" class="edge">
<title>dir_3747c56b457df80298a311fe12706951&#45;&gt;dir_aebb8dcc11953d78e620bbef0b9e2183</title>
<path fill="none" stroke="#000000" d="M321.098,-215.8641C305.9451,-197.5396 281.6767,-168.5112 260,-144 251.7515,-134.6729 242.5372,-124.6216 234.2879,-115.7492"/>
<polygon fill="#000000" stroke="#000000" points="236.7184,-113.2238 227.3354,-108.3034 231.6021,-118.0012 236.7184,-113.2238"/>
<g id="a_edge4&#45;headlabel"><a xlink:href="dir_000054_000004.xhtml" target="_top" xlink:title="47">
<text text-anchor="middle" x="241.2469" y="-111.4133" font-family="Helvetica,sans-Serif" font-size="10.00" fill="#000000">47</text>
</a>
</g>
</g>
<!-- dir_214608ef36d61442cb2b0c1c4e9a7def&#45;&gt;dir_cbdb8362360e11eafe2fa3bc74cf0ffd -->
<g id="edge5" class="edge">
<title>dir_214608ef36d61442cb2b0c1c4e9a7def&#45;&gt;dir_cbdb8362360e11eafe2fa3bc74cf0ffd</title>
<path fill="none" stroke="#000000" d="M144.0825,-180.0931C134.0198,-189.1561 120.767,-200.2506 108.3878,-210.0136"/>
<polygon fill="#000000" stroke="#000000" points="106.1713,-207.3034 100.4213,-216.2022 110.4657,-212.8314 106.1713,-207.3034"/>
<g id="a_edge5&#45;headlabel"><a xlink:href="dir_000000_000036.xhtml" target="_top" xlink:title="1">
<text text-anchor="middle" x="107.2681" y="-200.356" font-family="Helvetica,sans-Serif" font-size="10.00" fill="#000000">1</text>
</a>
</g>
</g>
<!-- dir_214608ef36d61442cb2b0c1c4e9a7def&#45;&gt;dir_aebb8dcc11953d78e620bbef0b9e2183 -->
<g id="edge6" class="edge">
<title>dir_214608ef36d61442cb2b0c1c4e9a7def&#45;&gt;dir_aebb8dcc11953d78e620bbef0b9e2183</title>
<path fill="none" stroke="#000000" d="M166.6647,-143.8314C171.6154,-135.5386 178.3531,-125.557 185.0952,-116.4533"/>
<polygon fill="#000000" stroke="#000000" points="187.9478,-118.4846 191.237,-108.4133 182.3851,-114.2353 187.9478,-118.4846"/>
<g id="a_edge6&#45;headlabel"><a xlink:href="dir_000000_000004.xhtml" target="_top" xlink:title="3">
<text text-anchor="middle" x="188.022" y="-120.5647" font-family="Helvetica,sans-Serif" font-size="10.00" fill="#000000">3</text>
</a>
</g>
</g>
<!-- dir_214608ef36d61442cb2b0c1c4e9a7def&#45;&gt;dir_5815af820a9cc9481f1d0990a0d60286 -->
<g id="edge7" class="edge">
<title>dir_214608ef36d61442cb2b0c1c4e9a7def&#45;&gt;dir_5815af820a9cc9481f1d0990a0d60286</title>
<path fill="none" stroke="#000000" d="M146.3346,-143.7623C131.6364,-118.9846 109.4311,-74.4714 97.1589,-45.5939"/>
<polygon fill="#000000" stroke="#000000" points="100.2938,-44.0136 93.2609,-36.0896 93.8173,-46.6698 100.2938,-44.0136"/>
<g id="a_edge7&#45;headlabel"><a xlink:href="dir_000000_000028.xhtml" target="_top" xlink:title="18">
<text text-anchor="middle" x="104.2846" y="-43.762" font-family="Helvetica,sans-Serif" font-size="10.00" fill="#000000">18</text>
</a>
</g>
</g>
<!-- dir_a67538344c2c86328918cac423ccf8cb&#45;&gt;dir_cbdb8362360e11eafe2fa3bc74cf0ffd -->
<g id="edge15" class="edge">
<title>dir_a67538344c2c86328918cac423ccf8cb&#45;&gt;dir_cbdb8362360e11eafe2fa3bc74cf0ffd</title>
<path fill="none" stroke="#000000" d="M176.9244,-287.8314C156.1873,-277.0898 129.98,-263.5148 109.0713,-252.6844"/>
<polygon fill="#000000" stroke="#000000" points="110.6612,-249.5663 100.1719,-248.0747 107.4416,-255.782 110.6612,-249.5663"/>
<g id="a_edge15&#45;headlabel"><a xlink:href="dir_000233_000036.xhtml" target="_top" xlink:title="1">
<text text-anchor="middle" x="115.1589" y="-246.1985" font-family="Helvetica,sans-Serif" font-size="10.00" fill="#000000">1</text>
</a>
</g>
</g>
<!-- dir_a67538344c2c86328918cac423ccf8cb&#45;&gt;dir_214608ef36d61442cb2b0c1c4e9a7def -->
<g id="edge16" class="edge">
<title>dir_a67538344c2c86328918cac423ccf8cb&#45;&gt;dir_214608ef36d61442cb2b0c1c4e9a7def</title>
<path fill="none" stroke="#000000" d="M205.4142,-287.7623C196.4667,-262.9846 180.3924,-218.4714 169.9645,-189.5939"/>
<polygon fill="#000000" stroke="#000000" points="173.2208,-188.3064 166.5324,-180.0896 166.6369,-190.6839 173.2208,-188.3064"/>
<g id="a_edge16&#45;headlabel"><a xlink:href="dir_000233_000000.xhtml" target="_top" xlink:title="7">
<text text-anchor="middle" x="177.1121" y="-188.223" font-family="Helvetica,sans-Serif" font-size="10.00" fill="#000000">7</text>
</a>
</g>
</g>
<!-- dir_a67538344c2c86328918cac423ccf8cb&#45;&gt;dir_aebb8dcc11953d78e620bbef0b9e2183 -->
<g id="edge17" class="edge">
<title>dir_a67538344c2c86328918cac423ccf8cb&#45;&gt;dir_aebb8dcc11953d78e620bbef0b9e2183</title>
<path fill="none" stroke="#000000" d="M211.8329,-287.9555C211.4851,-250.3938 210.6811,-163.5541 210.2631,-118.4103"/>
<polygon fill="#000000" stroke="#000000" points="213.7605,-118.1122 210.168,-108.1451 206.7608,-118.1771 213.7605,-118.1122"/>
<g id="a_edge17&#45;headlabel"><a xlink:href="dir_000233_000004.xhtml" target="_top" xlink:title="5">
<text text-anchor="middle" x="216.6329" y="-119.1804" font-family="Helvetica,sans-Serif" font-size="10.00" fill="#000000">5</text>
</a>
</g>
</g>
<!-- dir_a67538344c2c86328918cac423ccf8cb&#45;&gt;dir_5f09115d5b51f09d1c93a8d5eb5f8d5c -->
<g id="edge18" class="edge">
<title>dir_a67538344c2c86328918cac423ccf8cb&#45;&gt;dir_5f09115d5b51f09d1c93a8d5eb5f8d5c</title>
<path fill="none" stroke="#000000" d="M225.1218,-287.8314C231.0499,-279.6232 238.1729,-269.7606 244.6933,-260.7323"/>
<polygon fill="#000000" stroke="#000000" points="247.684,-262.5693 250.7015,-252.4133 242.0092,-258.4708 247.684,-262.5693"/>
<g id="a_edge18&#45;headlabel"><a xlink:href="dir_000233_000232.xhtml" target="_top" xlink:title="1">
<text text-anchor="middle" x="247.8811" y="-264.6457" font-family="Helvetica,sans-Serif" font-size="10.00" fill="#000000">1</text>
</a>
</g>
</g>
<!-- dir_aebb8dcc11953d78e620bbef0b9e2183&#45;&gt;dir_cbdb8362360e11eafe2fa3bc74cf0ffd -->
<g id="edge19" class="edge">
<title>dir_aebb8dcc11953d78e620bbef0b9e2183&#45;&gt;dir_cbdb8362360e11eafe2fa3bc74cf0ffd</title>
<path fill="none" stroke="#000000" d="M182.6158,-99.6586C161.2615,-108.3862 132.1154,-123.0872 113,-144 96.8653,-161.6519 86.4211,-186.8798 80.2656,-206.1367"/>
<polygon fill="#000000" stroke="#000000" points="76.8691,-205.2785 77.3542,-215.8622 83.5751,-207.2861 76.8691,-205.2785"/>
<g id="a_edge19&#45;headlabel"><a xlink:href="dir_000004_000036.xhtml" target="_top" xlink:title="3">
<text text-anchor="middle" x="75.1799" y="-198.5207" font-family="Helvetica,sans-Serif" font-size="10.00" fill="#000000">3</text>
</a>
</g>
</g>
<!-- dir_aebb8dcc11953d78e620bbef0b9e2183&#45;&gt;dir_214608ef36d61442cb2b0c1c4e9a7def -->
<g id="edge20" class="edge">
<title>dir_aebb8dcc11953d78e620bbef0b9e2183&#45;&gt;dir_214608ef36d61442cb2b0c1c4e9a7def</title>
<path fill="none" stroke="#000000" d="M203.189,-108.4133C198.2034,-116.7389 191.4484,-126.7282 184.7064,-135.8144"/>
<polygon fill="#000000" stroke="#000000" points="181.8687,-133.7633 178.5695,-143.8314 187.4272,-138.0182 181.8687,-133.7633"/>
<g id="a_edge20&#45;headlabel"><a xlink:href="dir_000004_000000.xhtml" target="_top" xlink:title="2221">
<text text-anchor="middle" x="181.7991" y="-126.6832" font-family="Helvetica,sans-Serif" font-size="10.00" fill="#000000">2221</text>
</a>
</g>
</g>
<!-- dir_aebb8dcc11953d78e620bbef0b9e2183&#45;&gt;dir_5815af820a9cc9481f1d0990a0d60286 -->
<g id="edge21" class="edge">
<title>dir_aebb8dcc11953d78e620bbef0b9e2183&#45;&gt;dir_5815af820a9cc9481f1d0990a0d60286</title>
<path fill="none" stroke="#000000" d="M182.8452,-73.8418C165.7198,-63.6515 143.4106,-50.3765 124.8407,-39.3267"/>
<polygon fill="#000000" stroke="#000000" points="126.4476,-36.2101 116.0641,-34.1043 122.868,-42.2257 126.4476,-36.2101"/>
<g id="a_edge21&#45;headlabel"><a xlink:href="dir_000004_000028.xhtml" target="_top" xlink:title="182">
<text text-anchor="middle" x="130.9885" y="-33.1082" font-family="Helvetica,sans-Serif" font-size="10.00" fill="#000000">182</text>
</a>
</g>
</g>
<!-- dir_5f09115d5b51f09d1c93a8d5eb5f8d5c&#45;&gt;dir_214608ef36d61442cb2b0c1c4e9a7def -->
<g id="edge22" class="edge">
<title>dir_5f09115d5b51f09d1c93a8d5eb5f8d5c&#45;&gt;dir_214608ef36d61442cb2b0c1c4e9a7def</title>
<path fill="none" stroke="#000000" d="M237.7564,-215.8314C224.7005,-206.7927 208.7465,-195.7476 194.6953,-186.0198"/>
<polygon fill="#000000" stroke="#000000" points="196.4494,-182.9773 186.2352,-180.1628 192.4649,-188.7326 196.4494,-182.9773"/>
<g id="a_edge22&#45;headlabel"><a xlink:href="dir_000232_000000.xhtml" target="_top" xlink:title="11">
<text text-anchor="middle" x="201.021" y="-180.1889" font-family="Helvetica,sans-Serif" font-size="10.00" fill="#000000">11</text>
</a>
</g>
</g>
<!-- dir_5f09115d5b51f09d1c93a8d5eb5f8d5c&#45;&gt;dir_aebb8dcc11953d78e620bbef0b9e2183 -->
<g id="edge23" class="edge">
<title>dir_5f09115d5b51f09d1c93a8d5eb5f8d5c&#45;&gt;dir_aebb8dcc11953d78e620bbef0b9e2183</title>
<path fill="none" stroke="#000000" d="M260.5659,-215.9901C256.7289,-197.514 249.7501,-168.1407 240,-144 236.3427,-134.9446 231.4913,-125.4987 226.7581,-117.086"/>
<polygon fill="#000000" stroke="#000000" points="229.7797,-115.3195 221.7306,-108.4301 223.7266,-118.8352 229.7797,-115.3195"/>
<g id="a_edge23&#45;headlabel"><a xlink:href="dir_000232_000004.xhtml" target="_top" xlink:title="3">
<text text-anchor="middle" x="234.0402" y="-114.5018" font-family="Helvetica,sans-Serif" font-size="10.00" fill="#000000">3</text>
</a>
</g>
</g>
<!-- dir_5815af820a9cc9481f1d0990a0d60286&#45;&gt;dir_cbdb8362360e11eafe2fa3bc74cf0ffd -->
<g id="edge24" class="edge">
<title>dir_5815af820a9cc9481f1d0990a0d60286&#45;&gt;dir_cbdb8362360e11eafe2fa3bc74cf0ffd</title>
<path fill="none" stroke="#000000" d="M91.6111,-36.1451C92.2691,-73.8741 86.0683,-161.0083 79.7904,-205.9956"/>
<polygon fill="#000000" stroke="#000000" points="76.3189,-205.5442 78.2825,-215.9555 83.2401,-206.5921 76.3189,-205.5442"/>
<g id="a_edge24&#45;headlabel"><a xlink:href="dir_000028_000036.xhtml" target="_top" xlink:title="1">
<text text-anchor="middle" x="74.0496" y="-199.0651" font-family="Helvetica,sans-Serif" font-size="10.00" fill="#000000">1</text>
</a>
</g>
</g>
<!-- dir_5815af820a9cc9481f1d0990a0d60286&#45;&gt;dir_214608ef36d61442cb2b0c1c4e9a7def -->
<g id="edge25" class="edge">
<title>dir_5815af820a9cc9481f1d0990a0d60286&#45;&gt;dir_214608ef36d61442cb2b0c1c4e9a7def</title>
<path fill="none" stroke="#000000" d="M102.5775,-36.0896C117.2457,-60.7884 139.4557,-105.2933 151.7675,-134.2331"/>
<polygon fill="#000000" stroke="#000000" points="148.6444,-135.8416 155.681,-143.7623 155.1196,-133.1823 148.6444,-135.8416"/>
<g id="a_edge25&#45;headlabel"><a xlink:href="dir_000028_000000.xhtml" target="_top" xlink:title="6">
<text text-anchor="middle" x="144.6525" y="-131.0951" font-family="Helvetica,sans-Serif" font-size="10.00" fill="#000000">6</text>
</a>
</g>
</g>
</g>
</svg>
