<?xml version="1.0" encoding="UTF-8" standalone="no"?>
<!DOCTYPE svg PUBLIC "-//W3C//DTD SVG 1.1//EN"
 "http://www.w3.org/Graphics/SVG/1.1/DTD/svg11.dtd">
<!-- Generated by graphviz version 2.40.1 (20161225.0304)
 -->
<!-- Title: arm_compute/core/utils/misc Pages: 1 -->
<svg width="134pt" height="151pt"
 viewBox="0.00 0.00 134.00 151.00" xmlns="http://www.w3.org/2000/svg" xmlns:xlink="http://www.w3.org/1999/xlink">
<g id="graph0" class="graph" transform="scale(1 1) rotate(0) translate(4 147)">
<title>arm_compute/core/utils/misc</title>
<polygon fill="#ffffff" stroke="transparent" points="-4,4 -4,-147 130,-147 130,4 -4,4"/>
<g id="clust1" class="cluster">
<title>clusterdir_7b0825b7536eda12b63e5d87347b1c7d</title>
<g id="a_clust1"><a xlink:href="dir_7b0825b7536eda12b63e5d87347b1c7d.xhtml" target="_top" xlink:title="utils">
<polygon fill="#ddddee" stroke="#000000" points="28,-64 28,-135 98,-135 98,-64 28,-64"/>
<text text-anchor="middle" x="63" y="-123" font-family="Helvetica,sans-Serif" font-size="10.00" fill="#000000">utils</text>
</a>
</g>
</g>
<!-- dir_cab437ca4f6ec1fbc573ae83f91b2654 -->
<g id="node1" class="node">
<title>dir_cab437ca4f6ec1fbc573ae83f91b2654</title>
<g id="a_node1"><a xlink:href="dir_cab437ca4f6ec1fbc573ae83f91b2654.xhtml" target="_top" xlink:title="misc">
<polygon fill="#eeeeff" stroke="#000000" points="90,-108 36,-108 36,-72 90,-72 90,-108"/>
<text text-anchor="middle" x="63" y="-87.5" font-family="Helvetica,sans-Serif" font-size="10.00" fill="#000000">misc</text>
</a>
</g>
</g>
<!-- dir_8bc26130589aa16388b5a02f17abf2c2 -->
<g id="node2" class="node">
<title>dir_8bc26130589aa16388b5a02f17abf2c2</title>
<g id="a_node2"><a xlink:href="dir_8bc26130589aa16388b5a02f17abf2c2.xhtml" target="_top" xlink:title="runtime">
<polygon fill="#ffffff" stroke="#ff0000" points="54,-36 0,-36 0,0 54,0 54,-36"/>
<text text-anchor="middle" x="27" y="-15.5" font-family="Helvetica,sans-Serif" font-size="10.00" fill="#000000">runtime</text>
</a>
</g>
</g>
<!-- dir_cab437ca4f6ec1fbc573ae83f91b2654&#45;&gt;dir_8bc26130589aa16388b5a02f17abf2c2 -->
<g id="edge1" class="edge">
<title>dir_cab437ca4f6ec1fbc573ae83f91b2654&#45;&gt;dir_8bc26130589aa16388b5a02f17abf2c2</title>
<path fill="none" stroke="#000000" d="M53.9157,-71.8314C49.9385,-63.8771 45.1845,-54.369 40.7861,-45.5723"/>
<polygon fill="#000000" stroke="#000000" points="43.8093,-43.7923 36.2066,-36.4133 37.5483,-46.9228 43.8093,-43.7923"/>
<g id="a_edge1&#45;headlabel"><a xlink:href="dir_000039_000007.xhtml" target="_top" xlink:title="1">
<text text-anchor="middle" x="47.9563" y="-43.2377" font-family="Helvetica,sans-Serif" font-size="10.00" fill="#000000">1</text>
</a>
</g>
</g>
<!-- dir_109374e99be0205441d869eba1a88b2d -->
<g id="node3" class="node">
<title>dir_109374e99be0205441d869eba1a88b2d</title>
<g id="a_node3"><a xlink:href="dir_109374e99be0205441d869eba1a88b2d.xhtml" target="_top" xlink:title="helpers">
<polygon fill="none" stroke="#000000" points="126,-36 72,-36 72,0 126,0 126,-36"/>
<text text-anchor="middle" x="99" y="-15.5" font-family="Helvetica,sans-Serif" font-size="10.00" fill="#000000">helpers</text>
</a>
</g>
</g>
<!-- dir_cab437ca4f6ec1fbc573ae83f91b2654&#45;&gt;dir_109374e99be0205441d869eba1a88b2d -->
<g id="edge2" class="edge">
<title>dir_cab437ca4f6ec1fbc573ae83f91b2654&#45;&gt;dir_109374e99be0205441d869eba1a88b2d</title>
<path fill="none" stroke="#000000" d="M72.0843,-71.8314C76.0615,-63.8771 80.8155,-54.369 85.2139,-45.5723"/>
<polygon fill="#000000" stroke="#000000" points="88.4517,-46.9228 89.7934,-36.4133 82.1907,-43.7923 88.4517,-46.9228"/>
<g id="a_edge2&#45;headlabel"><a xlink:href="dir_000039_000037.xhtml" target="_top" xlink:title="1">
<text text-anchor="middle" x="89.3837" y="-48.9077" font-family="Helvetica,sans-Serif" font-size="10.00" fill="#000000">1</text>
</a>
</g>
</g>
</g>
</svg>
