<?xml version="1.0" encoding="UTF-8" standalone="no"?>
<!DOCTYPE svg PUBLIC "-//W3C//DTD SVG 1.1//EN"
 "http://www.w3.org/Graphics/SVG/1.1/DTD/svg11.dtd">
<!-- Generated by graphviz version 2.40.1 (20161225.0304)
 -->
<!-- Title: src/runtime/gpu/cl/operators Pages: 1 -->
<svg width="124pt" height="223pt"
 viewBox="0.00 0.00 124.00 223.00" xmlns="http://www.w3.org/2000/svg" xmlns:xlink="http://www.w3.org/1999/xlink">
<g id="graph0" class="graph" transform="scale(1 1) rotate(0) translate(4 219)">
<title>src/runtime/gpu/cl/operators</title>
<polygon fill="#ffffff" stroke="transparent" points="-4,4 -4,-219 120,-219 120,4 -4,4"/>
<g id="clust1" class="cluster">
<title>clusterdir_eede2c573d1350b973c6197eaed0c42e</title>
<g id="a_clust1"><a xlink:href="dir_eede2c573d1350b973c6197eaed0c42e.xhtml" target="_top" xlink:title="cl">
<polygon fill="#ddddee" stroke="#000000" points="34,-136 34,-207 108,-207 108,-136 34,-136"/>
<text text-anchor="middle" x="71" y="-195" font-family="Helvetica,sans-Serif" font-size="10.00" fill="#000000">cl</text>
</a>
</g>
</g>
<!-- dir_c0aa34dfad790829f5103bec913d2ddb -->
<g id="node1" class="node">
<title>dir_c0aa34dfad790829f5103bec913d2ddb</title>
<g id="a_node1"><a xlink:href="dir_c0aa34dfad790829f5103bec913d2ddb.xhtml" target="_top" xlink:title="operators">
<polygon fill="#eeeeff" stroke="#000000" points="99.5,-180 42.5,-180 42.5,-144 99.5,-144 99.5,-180"/>
<text text-anchor="middle" x="71" y="-159.5" font-family="Helvetica,sans-Serif" font-size="10.00" fill="#000000">operators</text>
</a>
</g>
</g>
<!-- dir_214608ef36d61442cb2b0c1c4e9a7def -->
<g id="node2" class="node">
<title>dir_214608ef36d61442cb2b0c1c4e9a7def</title>
<g id="a_node2"><a xlink:href="dir_214608ef36d61442cb2b0c1c4e9a7def.xhtml" target="_top" xlink:title="arm_compute">
<polygon fill="#ffffff" stroke="#ff0000" points="76,-108 0,-108 0,-72 76,-72 76,-108"/>
<text text-anchor="middle" x="38" y="-87.5" font-family="Helvetica,sans-Serif" font-size="10.00" fill="#000000">arm_compute</text>
</a>
</g>
</g>
<!-- dir_c0aa34dfad790829f5103bec913d2ddb&#45;&gt;dir_214608ef36d61442cb2b0c1c4e9a7def -->
<g id="edge2" class="edge">
<title>dir_c0aa34dfad790829f5103bec913d2ddb&#45;&gt;dir_214608ef36d61442cb2b0c1c4e9a7def</title>
<path fill="none" stroke="#000000" d="M62.6727,-143.8314C59.027,-135.8771 54.6691,-126.369 50.6373,-117.5723"/>
<polygon fill="#000000" stroke="#000000" points="53.7877,-116.0456 46.4394,-108.4133 47.4243,-118.9622 53.7877,-116.0456"/>
<g id="a_edge2&#45;headlabel"><a xlink:href="dir_000056_000000.xhtml" target="_top" xlink:title="9">
<text text-anchor="middle" x="57.8665" y="-115.6304" font-family="Helvetica,sans-Serif" font-size="10.00" fill="#000000">9</text>
</a>
</g>
</g>
<!-- dir_aebb8dcc11953d78e620bbef0b9e2183 -->
<g id="node3" class="node">
<title>dir_aebb8dcc11953d78e620bbef0b9e2183</title>
<g id="a_node3"><a xlink:href="dir_aebb8dcc11953d78e620bbef0b9e2183.xhtml" target="_top" xlink:title="core">
<polygon fill="#ffffff" stroke="#ff0000" points="65,-36 11,-36 11,0 65,0 65,-36"/>
<text text-anchor="middle" x="38" y="-15.5" font-family="Helvetica,sans-Serif" font-size="10.00" fill="#000000">core</text>
</a>
</g>
</g>
<!-- dir_c0aa34dfad790829f5103bec913d2ddb&#45;&gt;dir_aebb8dcc11953d78e620bbef0b9e2183 -->
<g id="edge3" class="edge">
<title>dir_c0aa34dfad790829f5103bec913d2ddb&#45;&gt;dir_aebb8dcc11953d78e620bbef0b9e2183</title>
<path fill="none" stroke="#000000" d="M79.0394,-143.8674C86.0854,-125.2936 93.9232,-95.8438 85,-72 81.1046,-61.5911 74.1959,-51.8652 66.8544,-43.6152"/>
<polygon fill="#000000" stroke="#000000" points="69.2014,-41.0048 59.7672,-36.1835 64.1357,-45.8358 69.2014,-41.0048"/>
<g id="a_edge3&#45;headlabel"><a xlink:href="dir_000056_000004.xhtml" target="_top" xlink:title="47">
<text text-anchor="middle" x="73.7369" y="-39.1467" font-family="Helvetica,sans-Serif" font-size="10.00" fill="#000000">47</text>
</a>
</g>
</g>
<!-- dir_214608ef36d61442cb2b0c1c4e9a7def&#45;&gt;dir_aebb8dcc11953d78e620bbef0b9e2183 -->
<g id="edge1" class="edge">
<title>dir_214608ef36d61442cb2b0c1c4e9a7def&#45;&gt;dir_aebb8dcc11953d78e620bbef0b9e2183</title>
<path fill="none" stroke="#000000" d="M32.0476,-71.8314C31.2972,-64.131 31.0763,-54.9743 31.3849,-46.4166"/>
<polygon fill="#000000" stroke="#000000" points="34.8792,-46.6161 32.024,-36.4133 27.8935,-46.1697 34.8792,-46.6161"/>
<g id="a_edge1&#45;headlabel"><a xlink:href="dir_000000_000004.xhtml" target="_top" xlink:title="3">
<text text-anchor="middle" x="37.4836" y="-47.8844" font-family="Helvetica,sans-Serif" font-size="10.00" fill="#000000">3</text>
</a>
</g>
</g>
<!-- dir_aebb8dcc11953d78e620bbef0b9e2183&#45;&gt;dir_214608ef36d61442cb2b0c1c4e9a7def -->
<g id="edge4" class="edge">
<title>dir_aebb8dcc11953d78e620bbef0b9e2183&#45;&gt;dir_214608ef36d61442cb2b0c1c4e9a7def</title>
<path fill="none" stroke="#000000" d="M43.976,-36.4133C44.7071,-44.0593 44.9203,-53.1084 44.6155,-61.5726"/>
<polygon fill="#000000" stroke="#000000" points="41.1048,-61.6264 43.9524,-71.8314 48.0902,-62.078 41.1048,-61.6264"/>
<g id="a_edge4&#45;headlabel"><a xlink:href="dir_000004_000000.xhtml" target="_top" xlink:title="2221">
<text text-anchor="middle" x="38.5032" y="-55.3562" font-family="Helvetica,sans-Serif" font-size="10.00" fill="#000000">2221</text>
</a>
</g>
</g>
</g>
</svg>
