<?xml version="1.0" encoding="UTF-8" standalone="no"?>
<!DOCTYPE svg PUBLIC "-//W3C//DTD SVG 1.1//EN"
 "http://www.w3.org/Graphics/SVG/1.1/DTD/svg11.dtd">
<!-- Generated by graphviz version 2.40.1 (20161225.0304)
 -->
<!-- Title: tests/validate_examples Pages: 1 -->
<svg width="409pt" height="439pt"
 viewBox="0.00 0.00 409.49 439.00" xmlns="http://www.w3.org/2000/svg" xmlns:xlink="http://www.w3.org/1999/xlink">
<g id="graph0" class="graph" transform="scale(1 1) rotate(0) translate(4 435)">
<title>tests/validate_examples</title>
<polygon fill="#ffffff" stroke="transparent" points="-4,4 -4,-435 405.4903,-435 405.4903,4 -4,4"/>
<g id="clust1" class="cluster">
<title>clusterdir_59425e443f801f1f2fd8bbe4959a3ccf</title>
<g id="a_clust1"><a xlink:href="dir_59425e443f801f1f2fd8bbe4959a3ccf.xhtml" target="_top" xlink:title="tests">
<polygon fill="#ddddee" stroke="#000000" points="125,-352 125,-423 239,-423 239,-352 125,-352"/>
<text text-anchor="middle" x="182" y="-411" font-family="Helvetica,sans-Serif" font-size="10.00" fill="#000000">tests</text>
</a>
</g>
</g>
<!-- dir_c17e235a7be576fb898bcc8e94f529de -->
<g id="node1" class="node">
<title>dir_c17e235a7be576fb898bcc8e94f529de</title>
<g id="a_node1"><a xlink:href="dir_c17e235a7be576fb898bcc8e94f529de.xhtml" target="_top" xlink:title="validate_examples">
<polygon fill="#eeeeff" stroke="#000000" points="231,-396 133,-396 133,-360 231,-360 231,-396"/>
<text text-anchor="middle" x="182" y="-375.5" font-family="Helvetica,sans-Serif" font-size="10.00" fill="#000000">validate_examples</text>
</a>
</g>
</g>
<!-- dir_68267d1309a1af8e8297ef4c3efbcdba -->
<g id="node2" class="node">
<title>dir_68267d1309a1af8e8297ef4c3efbcdba</title>
<g id="a_node2"><a xlink:href="dir_68267d1309a1af8e8297ef4c3efbcdba.xhtml" target="_top" xlink:title="src">
<polygon fill="#ffffff" stroke="#ff0000" points="224,-180 170,-180 170,-144 224,-144 224,-180"/>
<text text-anchor="middle" x="197" y="-159.5" font-family="Helvetica,sans-Serif" font-size="10.00" fill="#000000">src</text>
</a>
</g>
</g>
<!-- dir_c17e235a7be576fb898bcc8e94f529de&#45;&gt;dir_68267d1309a1af8e8297ef4c3efbcdba -->
<g id="edge1" class="edge">
<title>dir_c17e235a7be576fb898bcc8e94f529de&#45;&gt;dir_68267d1309a1af8e8297ef4c3efbcdba</title>
<path fill="none" stroke="#000000" d="M183.2531,-359.9555C185.8671,-322.3144 191.9176,-235.1867 195.0469,-190.1246"/>
<polygon fill="#000000" stroke="#000000" points="198.5386,-190.3635 195.7399,-180.1451 191.5555,-189.8785 198.5386,-190.3635"/>
<g id="a_edge1&#45;headlabel"><a xlink:href="dir_000251_000003.xhtml" target="_top" xlink:title="14">
<text text-anchor="middle" x="201.1222" y="-191.6462" font-family="Helvetica,sans-Serif" font-size="10.00" fill="#000000">14</text>
</a>
</g>
</g>
<!-- dir_e7c7b16542faa38cb4655ff1750d3604 -->
<g id="node3" class="node">
<title>dir_e7c7b16542faa38cb4655ff1750d3604</title>
<g id="a_node3"><a xlink:href="dir_e7c7b16542faa38cb4655ff1750d3604.xhtml" target="_top" xlink:title="validation">
<polygon fill="#ffffff" stroke="#ff0000" points="268,-324 210,-324 210,-288 268,-288 268,-324"/>
<text text-anchor="middle" x="239" y="-303.5" font-family="Helvetica,sans-Serif" font-size="10.00" fill="#000000">validation</text>
</a>
</g>
</g>
<!-- dir_c17e235a7be576fb898bcc8e94f529de&#45;&gt;dir_e7c7b16542faa38cb4655ff1750d3604 -->
<g id="edge2" class="edge">
<title>dir_c17e235a7be576fb898bcc8e94f529de&#45;&gt;dir_e7c7b16542faa38cb4655ff1750d3604</title>
<path fill="none" stroke="#000000" d="M196.3835,-359.8314C202.9486,-351.5386 210.8507,-341.557 218.0578,-332.4533"/>
<polygon fill="#000000" stroke="#000000" points="220.9599,-334.4262 224.4228,-324.4133 215.4716,-330.0813 220.9599,-334.4262"/>
<g id="a_edge2&#45;headlabel"><a xlink:href="dir_000251_000024.xhtml" target="_top" xlink:title="12">
<text text-anchor="middle" x="220.9549" y="-336.5069" font-family="Helvetica,sans-Serif" font-size="10.00" fill="#000000">12</text>
</a>
</g>
</g>
<!-- dir_cbdb8362360e11eafe2fa3bc74cf0ffd -->
<g id="node4" class="node">
<title>dir_cbdb8362360e11eafe2fa3bc74cf0ffd</title>
<g id="a_node4"><a xlink:href="dir_cbdb8362360e11eafe2fa3bc74cf0ffd.xhtml" target="_top" xlink:title="utils">
<polygon fill="#ffffff" stroke="#ff0000" points="340,-108 286,-108 286,-72 340,-72 340,-108"/>
<text text-anchor="middle" x="313" y="-87.5" font-family="Helvetica,sans-Serif" font-size="10.00" fill="#000000">utils</text>
</a>
</g>
</g>
<!-- dir_c17e235a7be576fb898bcc8e94f529de&#45;&gt;dir_cbdb8362360e11eafe2fa3bc74cf0ffd -->
<g id="edge3" class="edge">
<title>dir_c17e235a7be576fb898bcc8e94f529de&#45;&gt;dir_cbdb8362360e11eafe2fa3bc74cf0ffd</title>
<path fill="none" stroke="#000000" d="M231.278,-366.1918C284.221,-350.4171 364.8223,-316.6226 395,-252 417.9056,-202.95 373.1786,-146.8063 341.2512,-115.1594"/>
<polygon fill="#000000" stroke="#000000" points="343.4898,-112.4561 333.8607,-108.0368 338.6322,-117.4963 343.4898,-112.4561"/>
<g id="a_edge3&#45;headlabel"><a xlink:href="dir_000251_000036.xhtml" target="_top" xlink:title="18">
<text text-anchor="middle" x="348.0483" y="-110.4061" font-family="Helvetica,sans-Serif" font-size="10.00" fill="#000000">18</text>
</a>
</g>
</g>
<!-- dir_445738e6fed662d0b65e690e3f1e1de0 -->
<g id="node5" class="node">
<title>dir_445738e6fed662d0b65e690e3f1e1de0</title>
<g id="a_node5"><a xlink:href="dir_445738e6fed662d0b65e690e3f1e1de0.xhtml" target="_top" xlink:title="NEON">
<polygon fill="none" stroke="#000000" points="82,-252 28,-252 28,-216 82,-216 82,-252"/>
<text text-anchor="middle" x="55" y="-231.5" font-family="Helvetica,sans-Serif" font-size="10.00" fill="#000000">NEON</text>
</a>
</g>
</g>
<!-- dir_c17e235a7be576fb898bcc8e94f529de&#45;&gt;dir_445738e6fed662d0b65e690e3f1e1de0 -->
<g id="edge4" class="edge">
<title>dir_c17e235a7be576fb898bcc8e94f529de&#45;&gt;dir_445738e6fed662d0b65e690e3f1e1de0</title>
<path fill="none" stroke="#000000" d="M165.9154,-359.7623C143.5857,-334.4436 103.082,-288.5182 77.6881,-259.7251"/>
<polygon fill="#000000" stroke="#000000" points="80.1935,-257.2745 70.954,-252.0896 74.9436,-261.9046 80.1935,-257.2745"/>
<g id="a_edge4&#45;headlabel"><a xlink:href="dir_000251_000254.xhtml" target="_top" xlink:title="3">
<text text-anchor="middle" x="84.7006" y="-255.5923" font-family="Helvetica,sans-Serif" font-size="10.00" fill="#000000">3</text>
</a>
</g>
</g>
<!-- dir_9e71e2da941d3cafc4d98a9f6ae3de4f -->
<g id="node6" class="node">
<title>dir_9e71e2da941d3cafc4d98a9f6ae3de4f</title>
<g id="a_node6"><a xlink:href="dir_9e71e2da941d3cafc4d98a9f6ae3de4f.xhtml" target="_top" xlink:title="framework">
<polygon fill="#ffffff" stroke="#ff0000" points="386,-252 324,-252 324,-216 386,-216 386,-252"/>
<text text-anchor="middle" x="355" y="-231.5" font-family="Helvetica,sans-Serif" font-size="10.00" fill="#000000">framework</text>
</a>
</g>
</g>
<!-- dir_c17e235a7be576fb898bcc8e94f529de&#45;&gt;dir_9e71e2da941d3cafc4d98a9f6ae3de4f -->
<g id="edge5" class="edge">
<title>dir_c17e235a7be576fb898bcc8e94f529de&#45;&gt;dir_9e71e2da941d3cafc4d98a9f6ae3de4f</title>
<path fill="none" stroke="#000000" d="M220.4272,-359.9757C238.5174,-350.5627 259.8358,-338.0739 277,-324 299.8415,-305.271 321.4801,-279.418 336.1452,-260.2245"/>
<polygon fill="#000000" stroke="#000000" points="338.9751,-262.2846 342.1789,-252.1858 333.3767,-258.0825 338.9751,-262.2846"/>
<g id="a_edge5&#45;headlabel"><a xlink:href="dir_000251_000034.xhtml" target="_top" xlink:title="4">
<text text-anchor="middle" x="339.0881" y="-264.3639" font-family="Helvetica,sans-Serif" font-size="10.00" fill="#000000">4</text>
</a>
</g>
</g>
<!-- dir_214608ef36d61442cb2b0c1c4e9a7def -->
<g id="node7" class="node">
<title>dir_214608ef36d61442cb2b0c1c4e9a7def</title>
<g id="a_node7"><a xlink:href="dir_214608ef36d61442cb2b0c1c4e9a7def.xhtml" target="_top" xlink:title="arm_compute">
<polygon fill="#ffffff" stroke="#ff0000" points="235,-36 159,-36 159,0 235,0 235,-36"/>
<text text-anchor="middle" x="197" y="-15.5" font-family="Helvetica,sans-Serif" font-size="10.00" fill="#000000">arm_compute</text>
</a>
</g>
</g>
<!-- dir_c17e235a7be576fb898bcc8e94f529de&#45;&gt;dir_214608ef36d61442cb2b0c1c4e9a7def -->
<g id="edge6" class="edge">
<title>dir_c17e235a7be576fb898bcc8e94f529de&#45;&gt;dir_214608ef36d61442cb2b0c1c4e9a7def</title>
<path fill="none" stroke="#000000" d="M132.7482,-362.8256C78.8481,-342.795 0,-301.8907 0,-234 0,-234 0,-234 0,-162 0,-88.5128 90.4501,-48.4992 148.7729,-30.3367"/>
<polygon fill="#000000" stroke="#000000" points="149.9776,-33.6294 158.5488,-27.4017 147.9646,-26.9251 149.9776,-33.6294"/>
<g id="a_edge6&#45;headlabel"><a xlink:href="dir_000251_000000.xhtml" target="_top" xlink:title="13">
<text text-anchor="middle" x="147.3512" y="-34.8824" font-family="Helvetica,sans-Serif" font-size="10.00" fill="#000000">13</text>
</a>
</g>
</g>
<!-- dir_896191444cf08ec8ade6f88256cb2bdd -->
<g id="node8" class="node">
<title>dir_896191444cf08ec8ade6f88256cb2bdd</title>
<g id="a_node8"><a xlink:href="dir_896191444cf08ec8ade6f88256cb2bdd.xhtml" target="_top" xlink:title="CL">
<polygon fill="none" stroke="#000000" points="154,-252 100,-252 100,-216 154,-216 154,-252"/>
<text text-anchor="middle" x="127" y="-231.5" font-family="Helvetica,sans-Serif" font-size="10.00" fill="#000000">CL</text>
</a>
</g>
</g>
<!-- dir_c17e235a7be576fb898bcc8e94f529de&#45;&gt;dir_896191444cf08ec8ade6f88256cb2bdd -->
<g id="edge7" class="edge">
<title>dir_c17e235a7be576fb898bcc8e94f529de&#45;&gt;dir_896191444cf08ec8ade6f88256cb2bdd</title>
<path fill="none" stroke="#000000" d="M175.0342,-359.7623C165.5705,-334.9846 148.5689,-290.4714 137.5393,-261.5939"/>
<polygon fill="#000000" stroke="#000000" points="140.747,-260.1826 133.9092,-252.0896 134.2077,-262.6803 140.747,-260.1826"/>
<g id="a_edge7&#45;headlabel"><a xlink:href="dir_000251_000252.xhtml" target="_top" xlink:title="1">
<text text-anchor="middle" x="144.6819" y="-260.0275" font-family="Helvetica,sans-Serif" font-size="10.00" fill="#000000">1</text>
</a>
</g>
</g>
<!-- dir_68267d1309a1af8e8297ef4c3efbcdba&#45;&gt;dir_cbdb8362360e11eafe2fa3bc74cf0ffd -->
<g id="edge8" class="edge">
<title>dir_68267d1309a1af8e8297ef4c3efbcdba&#45;&gt;dir_cbdb8362360e11eafe2fa3bc74cf0ffd</title>
<path fill="none" stroke="#000000" d="M224.1968,-145.1192C240.0498,-135.2794 260.2278,-122.7551 277.3422,-112.1324"/>
<polygon fill="#000000" stroke="#000000" points="279.3229,-115.0225 285.9735,-106.775 275.6313,-109.075 279.3229,-115.0225"/>
<g id="a_edge8&#45;headlabel"><a xlink:href="dir_000003_000036.xhtml" target="_top" xlink:title="8">
<text text-anchor="middle" x="277.7661" y="-116.8304" font-family="Helvetica,sans-Serif" font-size="10.00" fill="#000000">8</text>
</a>
</g>
</g>
<!-- dir_68267d1309a1af8e8297ef4c3efbcdba&#45;&gt;dir_214608ef36d61442cb2b0c1c4e9a7def -->
<g id="edge9" class="edge">
<title>dir_68267d1309a1af8e8297ef4c3efbcdba&#45;&gt;dir_214608ef36d61442cb2b0c1c4e9a7def</title>
<path fill="none" stroke="#000000" d="M192.3268,-143.7623C189.867,-119.201 189.5923,-75.2474 191.5026,-46.3541"/>
<polygon fill="#000000" stroke="#000000" points="195.0152,-46.3416 192.3417,-36.0896 188.0385,-45.7712 195.0152,-46.3416"/>
<g id="a_edge9&#45;headlabel"><a xlink:href="dir_000003_000000.xhtml" target="_top" xlink:title="4087">
<text text-anchor="middle" x="197.5522" y="-47.6556" font-family="Helvetica,sans-Serif" font-size="10.00" fill="#000000">4087</text>
</a>
</g>
</g>
<!-- dir_e7c7b16542faa38cb4655ff1750d3604&#45;&gt;dir_68267d1309a1af8e8297ef4c3efbcdba -->
<g id="edge10" class="edge">
<title>dir_e7c7b16542faa38cb4655ff1750d3604&#45;&gt;dir_68267d1309a1af8e8297ef4c3efbcdba</title>
<path fill="none" stroke="#000000" d="M233.6807,-287.7623C226.4854,-263.0928 213.5841,-218.8598 205.1588,-189.9731"/>
<polygon fill="#000000" stroke="#000000" points="208.4362,-188.7096 202.2761,-180.0896 201.7162,-190.6696 208.4362,-188.7096"/>
<g id="a_edge10&#45;headlabel"><a xlink:href="dir_000024_000003.xhtml" target="_top" xlink:title="59">
<text text-anchor="middle" x="212.1683" y="-188.8655" font-family="Helvetica,sans-Serif" font-size="10.00" fill="#000000">59</text>
</a>
</g>
</g>
<!-- dir_e7c7b16542faa38cb4655ff1750d3604&#45;&gt;dir_cbdb8362360e11eafe2fa3bc74cf0ffd -->
<g id="edge11" class="edge">
<title>dir_e7c7b16542faa38cb4655ff1750d3604&#45;&gt;dir_cbdb8362360e11eafe2fa3bc74cf0ffd</title>
<path fill="none" stroke="#000000" d="M252.0594,-287.751C258.8095,-277.6197 266.717,-264.5579 272,-252 290.9009,-207.0718 302.6521,-151.3406 308.4973,-118.3367"/>
<polygon fill="#000000" stroke="#000000" points="312.0183,-118.5108 310.255,-108.0638 305.1185,-117.3302 312.0183,-118.5108"/>
<g id="a_edge11&#45;headlabel"><a xlink:href="dir_000024_000036.xhtml" target="_top" xlink:title="14">
<text text-anchor="middle" x="314.2107" y="-120.0328" font-family="Helvetica,sans-Serif" font-size="10.00" fill="#000000">14</text>
</a>
</g>
</g>
<!-- dir_e7c7b16542faa38cb4655ff1750d3604&#45;&gt;dir_445738e6fed662d0b65e690e3f1e1de0 -->
<g id="edge12" class="edge">
<title>dir_e7c7b16542faa38cb4655ff1750d3604&#45;&gt;dir_445738e6fed662d0b65e690e3f1e1de0</title>
<path fill="none" stroke="#000000" d="M209.9716,-296.5016C181.7349,-287.025 137.533,-271.5639 91.5762,-252.0428"/>
<polygon fill="#000000" stroke="#000000" points="92.9352,-248.8173 82.3657,-248.085 90.1715,-255.2487 92.9352,-248.8173"/>
<g id="a_edge12&#45;headlabel"><a xlink:href="dir_000024_000254.xhtml" target="_top" xlink:title="156">
<text text-anchor="middle" x="97.3587" y="-245.1278" font-family="Helvetica,sans-Serif" font-size="10.00" fill="#000000">156</text>
</a>
</g>
</g>
<!-- dir_e7c7b16542faa38cb4655ff1750d3604&#45;&gt;dir_9e71e2da941d3cafc4d98a9f6ae3de4f -->
<g id="edge13" class="edge">
<title>dir_e7c7b16542faa38cb4655ff1750d3604&#45;&gt;dir_9e71e2da941d3cafc4d98a9f6ae3de4f</title>
<path fill="none" stroke="#000000" d="M268.2717,-287.8314C283.1088,-278.6221 301.3015,-267.3301 317.1862,-257.4706"/>
<polygon fill="#000000" stroke="#000000" points="319.087,-260.4102 325.7377,-252.1628 315.3955,-254.4628 319.087,-260.4102"/>
<g id="a_edge13&#45;headlabel"><a xlink:href="dir_000024_000034.xhtml" target="_top" xlink:title="895">
<text text-anchor="middle" x="317.5302" y="-262.2182" font-family="Helvetica,sans-Serif" font-size="10.00" fill="#000000">895</text>
</a>
</g>
</g>
<!-- dir_e7c7b16542faa38cb4655ff1750d3604&#45;&gt;dir_214608ef36d61442cb2b0c1c4e9a7def -->
<g id="edge14" class="edge">
<title>dir_e7c7b16542faa38cb4655ff1750d3604&#45;&gt;dir_214608ef36d61442cb2b0c1c4e9a7def</title>
<path fill="none" stroke="#000000" d="M240.0506,-287.9211C241.8316,-248.002 243.2435,-149.7081 220,-72 217.3555,-63.1588 213.7036,-53.815 210.0881,-45.4307"/>
<polygon fill="#000000" stroke="#000000" points="213.2004,-43.8166 205.9231,-36.1166 206.8103,-46.6742 213.2004,-43.8166"/>
<g id="a_edge14&#45;headlabel"><a xlink:href="dir_000024_000000.xhtml" target="_top" xlink:title="1286">
<text text-anchor="middle" x="217.2597" y="-43.439" font-family="Helvetica,sans-Serif" font-size="10.00" fill="#000000">1286</text>
</a>
</g>
</g>
<!-- dir_e7c7b16542faa38cb4655ff1750d3604&#45;&gt;dir_896191444cf08ec8ade6f88256cb2bdd -->
<g id="edge15" class="edge">
<title>dir_e7c7b16542faa38cb4655ff1750d3604&#45;&gt;dir_896191444cf08ec8ade6f88256cb2bdd</title>
<path fill="none" stroke="#000000" d="M210.7377,-287.8314C196.2198,-278.4984 178.3745,-267.0264 162.8932,-257.0742"/>
<polygon fill="#000000" stroke="#000000" points="164.3987,-253.8812 154.0942,-251.4177 160.6134,-259.7695 164.3987,-253.8812"/>
<g id="a_edge15&#45;headlabel"><a xlink:href="dir_000024_000252.xhtml" target="_top" xlink:title="180">
<text text-anchor="middle" x="168.9577" y="-250.9366" font-family="Helvetica,sans-Serif" font-size="10.00" fill="#000000">180</text>
</a>
</g>
</g>
<!-- dir_cbdb8362360e11eafe2fa3bc74cf0ffd&#45;&gt;dir_214608ef36d61442cb2b0c1c4e9a7def -->
<g id="edge16" class="edge">
<title>dir_cbdb8362360e11eafe2fa3bc74cf0ffd&#45;&gt;dir_214608ef36d61442cb2b0c1c4e9a7def</title>
<path fill="none" stroke="#000000" d="M285.7698,-76.4574C268.6165,-66.6553 246.543,-53.155 228.6378,-41.5976"/>
<polygon fill="#000000" stroke="#000000" points="230.5097,-38.6398 220.2226,-36.1047 226.6835,-44.5016 230.5097,-38.6398"/>
<g id="a_edge16&#45;headlabel"><a xlink:href="dir_000036_000000.xhtml" target="_top" xlink:title="39">
<text text-anchor="middle" x="235.0717" y="-35.727" font-family="Helvetica,sans-Serif" font-size="10.00" fill="#000000">39</text>
</a>
</g>
</g>
<!-- dir_445738e6fed662d0b65e690e3f1e1de0&#45;&gt;dir_68267d1309a1af8e8297ef4c3efbcdba -->
<g id="edge17" class="edge">
<title>dir_445738e6fed662d0b65e690e3f1e1de0&#45;&gt;dir_68267d1309a1af8e8297ef4c3efbcdba</title>
<path fill="none" stroke="#000000" d="M82.0434,-220.2879C104.3055,-209 136.0733,-192.8924 160.5742,-180.4694"/>
<polygon fill="#000000" stroke="#000000" points="162.2375,-183.5503 169.5737,-175.9063 159.0718,-177.307 162.2375,-183.5503"/>
<g id="a_edge17&#45;headlabel"><a xlink:href="dir_000254_000003.xhtml" target="_top" xlink:title="1">
<text text-anchor="middle" x="160.3154" y="-185.2082" font-family="Helvetica,sans-Serif" font-size="10.00" fill="#000000">1</text>
</a>
</g>
</g>
<!-- dir_445738e6fed662d0b65e690e3f1e1de0&#45;&gt;dir_214608ef36d61442cb2b0c1c4e9a7def -->
<g id="edge18" class="edge">
<title>dir_445738e6fed662d0b65e690e3f1e1de0&#45;&gt;dir_214608ef36d61442cb2b0c1c4e9a7def</title>
<path fill="none" stroke="#000000" d="M66.8626,-215.9555C91.8692,-177.9173 150.0985,-89.3431 179.4389,-44.7127"/>
<polygon fill="#000000" stroke="#000000" points="182.5026,-46.4238 185.0713,-36.1451 176.6533,-42.5784 182.5026,-46.4238"/>
<g id="a_edge18&#45;headlabel"><a xlink:href="dir_000254_000000.xhtml" target="_top" xlink:title="7">
<text text-anchor="middle" x="182.9005" y="-48.4872" font-family="Helvetica,sans-Serif" font-size="10.00" fill="#000000">7</text>
</a>
</g>
</g>
<!-- dir_9e71e2da941d3cafc4d98a9f6ae3de4f&#45;&gt;dir_cbdb8362360e11eafe2fa3bc74cf0ffd -->
<g id="edge19" class="edge">
<title>dir_9e71e2da941d3cafc4d98a9f6ae3de4f&#45;&gt;dir_cbdb8362360e11eafe2fa3bc74cf0ffd</title>
<path fill="none" stroke="#000000" d="M349.6807,-215.7623C342.4854,-191.0928 329.5841,-146.8598 321.1588,-117.9731"/>
<polygon fill="#000000" stroke="#000000" points="324.4362,-116.7096 318.2761,-108.0896 317.7162,-118.6696 324.4362,-116.7096"/>
<g id="a_edge19&#45;headlabel"><a xlink:href="dir_000034_000036.xhtml" target="_top" xlink:title="3">
<text text-anchor="middle" x="328.1683" y="-116.8655" font-family="Helvetica,sans-Serif" font-size="10.00" fill="#000000">3</text>
</a>
</g>
</g>
<!-- dir_9e71e2da941d3cafc4d98a9f6ae3de4f&#45;&gt;dir_214608ef36d61442cb2b0c1c4e9a7def -->
<g id="edge20" class="edge">
<title>dir_9e71e2da941d3cafc4d98a9f6ae3de4f&#45;&gt;dir_214608ef36d61442cb2b0c1c4e9a7def</title>
<path fill="none" stroke="#000000" d="M360.319,-215.8445C368.6212,-183.4633 380.6434,-115.1066 349,-72 336.32,-54.7265 284.4841,-38.8081 244.8365,-28.7973"/>
<polygon fill="#000000" stroke="#000000" points="245.5978,-25.3802 235.0505,-26.3822 243.9206,-32.1763 245.5978,-25.3802"/>
<g id="a_edge20&#45;headlabel"><a xlink:href="dir_000034_000000.xhtml" target="_top" xlink:title="15">
<text text-anchor="middle" x="249.768" y="-20.9848" font-family="Helvetica,sans-Serif" font-size="10.00" fill="#000000">15</text>
</a>
</g>
</g>
<!-- dir_214608ef36d61442cb2b0c1c4e9a7def&#45;&gt;dir_68267d1309a1af8e8297ef4c3efbcdba -->
<g id="edge21" class="edge">
<title>dir_214608ef36d61442cb2b0c1c4e9a7def&#45;&gt;dir_68267d1309a1af8e8297ef4c3efbcdba</title>
<path fill="none" stroke="#000000" d="M201.6583,-36.0896C204.1269,-60.5727 204.4104,-104.5174 202.5089,-133.4713"/>
<polygon fill="#000000" stroke="#000000" points="198.9942,-133.5118 201.6732,-143.7623 205.9712,-134.0785 198.9942,-133.5118"/>
<g id="a_edge21&#45;headlabel"><a xlink:href="dir_000000_000003.xhtml" target="_top" xlink:title="3">
<text text-anchor="middle" x="196.4551" y="-127.1992" font-family="Helvetica,sans-Serif" font-size="10.00" fill="#000000">3</text>
</a>
</g>
</g>
<!-- dir_214608ef36d61442cb2b0c1c4e9a7def&#45;&gt;dir_cbdb8362360e11eafe2fa3bc74cf0ffd -->
<g id="edge22" class="edge">
<title>dir_214608ef36d61442cb2b0c1c4e9a7def&#45;&gt;dir_cbdb8362360e11eafe2fa3bc74cf0ffd</title>
<path fill="none" stroke="#000000" d="M232.2142,-36.1628C247.802,-45.2859 265.9413,-56.4541 281.1244,-66.2489"/>
<polygon fill="#000000" stroke="#000000" points="279.3931,-69.2984 289.6807,-71.8314 283.2181,-63.4358 279.3931,-69.2984"/>
<g id="a_edge22&#45;headlabel"><a xlink:href="dir_000000_000036.xhtml" target="_top" xlink:title="1">
<text text-anchor="middle" x="274.8311" y="-67.2122" font-family="Helvetica,sans-Serif" font-size="10.00" fill="#000000">1</text>
</a>
</g>
</g>
<!-- dir_896191444cf08ec8ade6f88256cb2bdd&#45;&gt;dir_68267d1309a1af8e8297ef4c3efbcdba -->
<g id="edge23" class="edge">
<title>dir_896191444cf08ec8ade6f88256cb2bdd&#45;&gt;dir_68267d1309a1af8e8297ef4c3efbcdba</title>
<path fill="none" stroke="#000000" d="M144.664,-215.8314C152.9732,-207.2848 163.0264,-196.9443 172.0918,-187.6198"/>
<polygon fill="#000000" stroke="#000000" points="174.6369,-190.023 179.0982,-180.4133 169.6179,-185.1435 174.6369,-190.023"/>
<g id="a_edge23&#45;headlabel"><a xlink:href="dir_000252_000003.xhtml" target="_top" xlink:title="2">
<text text-anchor="middle" x="174.1669" y="-192.0795" font-family="Helvetica,sans-Serif" font-size="10.00" fill="#000000">2</text>
</a>
</g>
</g>
<!-- dir_896191444cf08ec8ade6f88256cb2bdd&#45;&gt;dir_214608ef36d61442cb2b0c1c4e9a7def -->
<g id="edge24" class="edge">
<title>dir_896191444cf08ec8ade6f88256cb2bdd&#45;&gt;dir_214608ef36d61442cb2b0c1c4e9a7def</title>
<path fill="none" stroke="#000000" d="M132.8478,-215.9555C145.072,-178.235 173.4013,-90.8188 187.9778,-45.8399"/>
<polygon fill="#000000" stroke="#000000" points="191.3662,-46.737 191.1197,-36.1451 184.7072,-44.579 191.3662,-46.737"/>
<g id="a_edge24&#45;headlabel"><a xlink:href="dir_000252_000000.xhtml" target="_top" xlink:title="8">
<text text-anchor="middle" x="192.9591" y="-48.5319" font-family="Helvetica,sans-Serif" font-size="10.00" fill="#000000">8</text>
</a>
</g>
</g>
</g>
</svg>
