<?xml version="1.0" encoding="UTF-8" standalone="no"?>
<!DOCTYPE svg PUBLIC "-//W3C//DTD SVG 1.1//EN"
 "http://www.w3.org/Graphics/SVG/1.1/DTD/svg11.dtd">
<!-- Generated by graphviz version 2.40.1 (20161225.0304)
 -->
<!-- Title: src/core/NEON/kernels/scale Pages: 1 -->
<svg width="337pt" height="303pt"
 viewBox="0.00 0.00 337.40 303.00" xmlns="http://www.w3.org/2000/svg" xmlns:xlink="http://www.w3.org/1999/xlink">
<g id="graph0" class="graph" transform="scale(1 1) rotate(0) translate(4 299)">
<title>src/core/NEON/kernels/scale</title>
<polygon fill="#ffffff" stroke="transparent" points="-4,4 -4,-299 333.3995,-299 333.3995,4 -4,4"/>
<g id="clust1" class="cluster">
<title>clusterdir_1ce938f580a6f304b99685e2c1dd19db</title>
<g id="a_clust1"><a xlink:href="dir_1ce938f580a6f304b99685e2c1dd19db.xhtml" target="_top" xlink:title="kernels">
<polygon fill="#ddddee" stroke="#000000" points="155,-200 155,-287 313,-287 313,-200 155,-200"/>
<text text-anchor="middle" x="234" y="-275" font-family="Helvetica,sans-Serif" font-size="10.00" fill="#000000">kernels</text>
</a>
</g>
</g>
<g id="clust2" class="cluster">
<title>clusterdir_01391c2f32c6597ac313c484e5f5730f</title>
<g id="a_clust2"><a xlink:href="dir_01391c2f32c6597ac313c484e5f5730f.xhtml" target="_top">
<polygon fill="#eeeeff" stroke="#000000" points="163,-208 163,-260 305,-260 305,-208 163,-208"/>
</a>
</g>
</g>
<!-- dir_01391c2f32c6597ac313c484e5f5730f -->
<g id="node1" class="node">
<title>dir_01391c2f32c6597ac313c484e5f5730f</title>
<text text-anchor="middle" x="270" y="-231.5" font-family="Helvetica,sans-Serif" font-size="10.00" fill="#000000">scale</text>
</g>
<!-- dir_187e3b6209245d1a4d07f77d5d87c7a1 -->
<g id="node2" class="node">
<title>dir_187e3b6209245d1a4d07f77d5d87c7a1</title>
<g id="a_node2"><a xlink:href="dir_187e3b6209245d1a4d07f77d5d87c7a1.xhtml" target="_top" xlink:title="impl">
<polygon fill="#ffffff" stroke="#ff0000" points="225,-252 171,-252 171,-216 225,-216 225,-252"/>
<text text-anchor="middle" x="198" y="-231.5" font-family="Helvetica,sans-Serif" font-size="10.00" fill="#000000">impl</text>
</a>
</g>
</g>
<!-- dir_34b4cee2b5900b653deb3438fc906cf4 -->
<g id="node3" class="node">
<title>dir_34b4cee2b5900b653deb3438fc906cf4</title>
<g id="a_node3"><a xlink:href="dir_34b4cee2b5900b653deb3438fc906cf4.xhtml" target="_top" xlink:title="common">
<polygon fill="none" stroke="#000000" points="54,-180 0,-180 0,-144 54,-144 54,-180"/>
<text text-anchor="middle" x="27" y="-159.5" font-family="Helvetica,sans-Serif" font-size="10.00" fill="#000000">common</text>
</a>
</g>
</g>
<!-- dir_187e3b6209245d1a4d07f77d5d87c7a1&#45;&gt;dir_34b4cee2b5900b653deb3438fc906cf4 -->
<g id="edge1" class="edge">
<title>dir_187e3b6209245d1a4d07f77d5d87c7a1&#45;&gt;dir_34b4cee2b5900b653deb3438fc906cf4</title>
<path fill="none" stroke="#000000" d="M170.8288,-223.8942C145.2448,-214.2132 105.7196,-198.8332 63.3738,-180.0062"/>
<polygon fill="#000000" stroke="#000000" points="64.5679,-176.7059 54.0112,-175.8071 61.7032,-183.0929 64.5679,-176.7059"/>
<g id="a_edge1&#45;headlabel"><a xlink:href="dir_000095_000040.xhtml" target="_top" xlink:title="6">
<text text-anchor="middle" x="69.0096" y="-173.0862" font-family="Helvetica,sans-Serif" font-size="10.00" fill="#000000">6</text>
</a>
</g>
</g>
<!-- dir_8224aa485683c095eaa3fd7faa788467 -->
<g id="node4" class="node">
<title>dir_8224aa485683c095eaa3fd7faa788467</title>
<g id="a_node4"><a xlink:href="dir_8224aa485683c095eaa3fd7faa788467.xhtml" target="_top" xlink:title="wrapper">
<polygon fill="#ffffff" stroke="#ff0000" points="126,-180 72,-180 72,-144 126,-144 126,-180"/>
<text text-anchor="middle" x="99" y="-159.5" font-family="Helvetica,sans-Serif" font-size="10.00" fill="#000000">wrapper</text>
</a>
</g>
</g>
<!-- dir_187e3b6209245d1a4d07f77d5d87c7a1&#45;&gt;dir_8224aa485683c095eaa3fd7faa788467 -->
<g id="edge2" class="edge">
<title>dir_187e3b6209245d1a4d07f77d5d87c7a1&#45;&gt;dir_8224aa485683c095eaa3fd7faa788467</title>
<path fill="none" stroke="#000000" d="M173.0181,-215.8314C160.7072,-206.8779 145.6893,-195.9558 132.4063,-186.2955"/>
<polygon fill="#000000" stroke="#000000" points="134.1199,-183.214 123.9739,-180.1628 130.0027,-188.8752 134.1199,-183.214"/>
<g id="a_edge2&#45;headlabel"><a xlink:href="dir_000095_000026.xhtml" target="_top" xlink:title="6">
<text text-anchor="middle" x="138.6969" y="-180.532" font-family="Helvetica,sans-Serif" font-size="10.00" fill="#000000">6</text>
</a>
</g>
</g>
<!-- dir_707aa52d67938117542c6646238d6f70 -->
<g id="node5" class="node">
<title>dir_707aa52d67938117542c6646238d6f70</title>
<g id="a_node5"><a xlink:href="dir_707aa52d67938117542c6646238d6f70.xhtml" target="_top" xlink:title="helpers">
<polygon fill="none" stroke="#000000" points="198,-180 144,-180 144,-144 198,-144 198,-180"/>
<text text-anchor="middle" x="171" y="-159.5" font-family="Helvetica,sans-Serif" font-size="10.00" fill="#000000">helpers</text>
</a>
</g>
</g>
<!-- dir_187e3b6209245d1a4d07f77d5d87c7a1&#45;&gt;dir_707aa52d67938117542c6646238d6f70 -->
<g id="edge3" class="edge">
<title>dir_187e3b6209245d1a4d07f77d5d87c7a1&#45;&gt;dir_707aa52d67938117542c6646238d6f70</title>
<path fill="none" stroke="#000000" d="M191.1868,-215.8314C188.2356,-207.9617 184.7142,-198.5712 181.445,-189.8533"/>
<polygon fill="#000000" stroke="#000000" points="184.6934,-188.5476 177.905,-180.4133 178.1391,-191.0055 184.6934,-188.5476"/>
<g id="a_edge3&#45;headlabel"><a xlink:href="dir_000095_000030.xhtml" target="_top" xlink:title="6">
<text text-anchor="middle" x="188.614" y="-188.4164" font-family="Helvetica,sans-Serif" font-size="10.00" fill="#000000">6</text>
</a>
</g>
</g>
<!-- dir_214608ef36d61442cb2b0c1c4e9a7def -->
<g id="node6" class="node">
<title>dir_214608ef36d61442cb2b0c1c4e9a7def</title>
<g id="a_node6"><a xlink:href="dir_214608ef36d61442cb2b0c1c4e9a7def.xhtml" target="_top" xlink:title="arm_compute">
<polygon fill="#ffffff" stroke="#ff0000" points="264,-108 188,-108 188,-72 264,-72 264,-108"/>
<text text-anchor="middle" x="226" y="-87.5" font-family="Helvetica,sans-Serif" font-size="10.00" fill="#000000">arm_compute</text>
</a>
</g>
</g>
<!-- dir_187e3b6209245d1a4d07f77d5d87c7a1&#45;&gt;dir_214608ef36d61442cb2b0c1c4e9a7def -->
<g id="edge4" class="edge">
<title>dir_187e3b6209245d1a4d07f77d5d87c7a1&#45;&gt;dir_214608ef36d61442cb2b0c1c4e9a7def</title>
<path fill="none" stroke="#000000" d="M201.5462,-215.7623C206.3431,-191.0928 214.9439,-146.8598 220.5608,-117.9731"/>
<polygon fill="#000000" stroke="#000000" points="224.0095,-118.5738 222.4826,-108.0896 217.1381,-117.2377 224.0095,-118.5738"/>
<g id="a_edge4&#45;headlabel"><a xlink:href="dir_000095_000000.xhtml" target="_top" xlink:title="18">
<text text-anchor="middle" x="226.1105" y="-120.1443" font-family="Helvetica,sans-Serif" font-size="10.00" fill="#000000">18</text>
</a>
</g>
</g>
<!-- dir_a8053b3d69cfefb2b2e6ec7bf9dd5c1a -->
<g id="node7" class="node">
<title>dir_a8053b3d69cfefb2b2e6ec7bf9dd5c1a</title>
<g id="a_node7"><a xlink:href="dir_a8053b3d69cfefb2b2e6ec7bf9dd5c1a.xhtml" target="_top" xlink:title="utils">
<polygon fill="#ffffff" stroke="#ff0000" points="308,-180 254,-180 254,-144 308,-144 308,-180"/>
<text text-anchor="middle" x="281" y="-159.5" font-family="Helvetica,sans-Serif" font-size="10.00" fill="#000000">utils</text>
</a>
</g>
</g>
<!-- dir_187e3b6209245d1a4d07f77d5d87c7a1&#45;&gt;dir_a8053b3d69cfefb2b2e6ec7bf9dd5c1a -->
<g id="edge5" class="edge">
<title>dir_187e3b6209245d1a4d07f77d5d87c7a1&#45;&gt;dir_a8053b3d69cfefb2b2e6ec7bf9dd5c1a</title>
<path fill="none" stroke="#000000" d="M216.8041,-215.7236C222.2705,-210.5527 228.3043,-204.9791 234,-200 238.977,-195.6491 244.3508,-191.1384 249.6247,-186.8099"/>
<polygon fill="#000000" stroke="#000000" points="252.2004,-189.227 257.7586,-180.2072 247.7887,-183.7922 252.2004,-189.227"/>
<g id="a_edge5&#45;headlabel"><a xlink:href="dir_000095_000112.xhtml" target="_top" xlink:title="6">
<text text-anchor="middle" x="251.199" y="-191.1969" font-family="Helvetica,sans-Serif" font-size="10.00" fill="#000000">6</text>
</a>
</g>
</g>
<!-- dir_5815af820a9cc9481f1d0990a0d60286 -->
<g id="node8" class="node">
<title>dir_5815af820a9cc9481f1d0990a0d60286</title>
<g id="a_node8"><a xlink:href="dir_5815af820a9cc9481f1d0990a0d60286.xhtml" target="_top" xlink:title="support">
<polygon fill="none" stroke="#000000" points="286,-36 232,-36 232,0 286,0 286,-36"/>
<text text-anchor="middle" x="259" y="-15.5" font-family="Helvetica,sans-Serif" font-size="10.00" fill="#000000">support</text>
</a>
</g>
</g>
<!-- dir_187e3b6209245d1a4d07f77d5d87c7a1&#45;&gt;dir_5815af820a9cc9481f1d0990a0d60286 -->
<g id="edge6" class="edge">
<title>dir_187e3b6209245d1a4d07f77d5d87c7a1&#45;&gt;dir_5815af820a9cc9481f1d0990a0d60286</title>
<path fill="none" stroke="#000000" d="M213.7478,-215.7202C219.5813,-209.9377 226.593,-204.0143 234,-200 267.3605,-181.9201 293.5211,-209.8085 317,-180 349.4284,-138.8293 310.1723,-78.0068 282.2524,-43.802"/>
<polygon fill="#000000" stroke="#000000" points="284.9084,-41.5224 275.7988,-36.1126 279.5466,-46.0225 284.9084,-41.5224"/>
<g id="a_edge6&#45;headlabel"><a xlink:href="dir_000095_000028.xhtml" target="_top" xlink:title="6">
<text text-anchor="middle" x="289.3941" y="-39.9505" font-family="Helvetica,sans-Serif" font-size="10.00" fill="#000000">6</text>
</a>
</g>
</g>
<!-- dir_707aa52d67938117542c6646238d6f70&#45;&gt;dir_214608ef36d61442cb2b0c1c4e9a7def -->
<g id="edge7" class="edge">
<title>dir_707aa52d67938117542c6646238d6f70&#45;&gt;dir_214608ef36d61442cb2b0c1c4e9a7def</title>
<path fill="none" stroke="#000000" d="M184.8788,-143.8314C191.2136,-135.5386 198.8384,-125.557 205.7926,-116.4533"/>
<polygon fill="#000000" stroke="#000000" points="208.6452,-118.4847 211.9343,-108.4133 203.0825,-114.2353 208.6452,-118.4847"/>
<g id="a_edge7&#45;headlabel"><a xlink:href="dir_000030_000000.xhtml" target="_top" xlink:title="11">
<text text-anchor="middle" x="208.7195" y="-120.5647" font-family="Helvetica,sans-Serif" font-size="10.00" fill="#000000">11</text>
</a>
</g>
</g>
<!-- dir_214608ef36d61442cb2b0c1c4e9a7def&#45;&gt;dir_5815af820a9cc9481f1d0990a0d60286 -->
<g id="edge8" class="edge">
<title>dir_214608ef36d61442cb2b0c1c4e9a7def&#45;&gt;dir_5815af820a9cc9481f1d0990a0d60286</title>
<path fill="none" stroke="#000000" d="M228.3749,-71.8314C231.276,-63.7925 235.4815,-54.1666 239.9199,-45.2918"/>
<polygon fill="#000000" stroke="#000000" points="243.0319,-46.8937 244.5846,-36.4133 236.8351,-43.638 243.0319,-46.8937"/>
<g id="a_edge8&#45;headlabel"><a xlink:href="dir_000000_000028.xhtml" target="_top" xlink:title="18">
<text text-anchor="middle" x="243.8736" y="-48.8964" font-family="Helvetica,sans-Serif" font-size="10.00" fill="#000000">18</text>
</a>
</g>
</g>
<!-- dir_a8053b3d69cfefb2b2e6ec7bf9dd5c1a&#45;&gt;dir_214608ef36d61442cb2b0c1c4e9a7def -->
<g id="edge9" class="edge">
<title>dir_a8053b3d69cfefb2b2e6ec7bf9dd5c1a&#45;&gt;dir_214608ef36d61442cb2b0c1c4e9a7def</title>
<path fill="none" stroke="#000000" d="M267.1212,-143.8314C260.7864,-135.5386 253.1616,-125.557 246.2074,-116.4533"/>
<polygon fill="#000000" stroke="#000000" points="248.9175,-114.2353 240.0657,-108.4133 243.3548,-118.4847 248.9175,-114.2353"/>
<g id="a_edge9&#45;headlabel"><a xlink:href="dir_000112_000000.xhtml" target="_top" xlink:title="15">
<text text-anchor="middle" x="253.3558" y="-112.8683" font-family="Helvetica,sans-Serif" font-size="10.00" fill="#000000">15</text>
</a>
</g>
</g>
<!-- dir_a8053b3d69cfefb2b2e6ec7bf9dd5c1a&#45;&gt;dir_5815af820a9cc9481f1d0990a0d60286 -->
<g id="edge10" class="edge">
<title>dir_a8053b3d69cfefb2b2e6ec7bf9dd5c1a&#45;&gt;dir_5815af820a9cc9481f1d0990a0d60286</title>
<path fill="none" stroke="#000000" d="M280.2723,-143.9572C279.3313,-125.7051 277.2751,-96.7318 273,-72 271.5385,-63.5451 269.4119,-54.4749 267.2555,-46.2279"/>
<polygon fill="#000000" stroke="#000000" points="270.564,-45.0568 264.556,-36.3302 263.8107,-46.8988 270.564,-45.0568"/>
<g id="a_edge10&#45;headlabel"><a xlink:href="dir_000112_000028.xhtml" target="_top" xlink:title="3">
<text text-anchor="middle" x="274.249" y="-45.2777" font-family="Helvetica,sans-Serif" font-size="10.00" fill="#000000">3</text>
</a>
</g>
</g>
<!-- dir_5815af820a9cc9481f1d0990a0d60286&#45;&gt;dir_214608ef36d61442cb2b0c1c4e9a7def -->
<g id="edge11" class="edge">
<title>dir_5815af820a9cc9481f1d0990a0d60286&#45;&gt;dir_214608ef36d61442cb2b0c1c4e9a7def</title>
<path fill="none" stroke="#000000" d="M256.5366,-36.4133C253.6092,-44.484 249.3882,-54.1182 244.9452,-62.9775"/>
<polygon fill="#000000" stroke="#000000" points="241.8452,-61.3528 240.2797,-71.8314 248.038,-64.6161 241.8452,-61.3528"/>
<g id="a_edge11&#45;headlabel"><a xlink:href="dir_000028_000000.xhtml" target="_top" xlink:title="6">
<text text-anchor="middle" x="241.009" y="-54.3491" font-family="Helvetica,sans-Serif" font-size="10.00" fill="#000000">6</text>
</a>
</g>
</g>
</g>
</svg>
