<?xml version="1.0" encoding="UTF-8" standalone="no"?>
<!DOCTYPE svg PUBLIC "-//W3C//DTD SVG 1.1//EN"
 "http://www.w3.org/Graphics/SVG/1.1/DTD/svg11.dtd">
<!-- Generated by graphviz version 2.40.1 (20161225.0304)
 -->
<!-- Title: tests/validation/NEON Pages: 1 -->
<svg width="374pt" height="447pt"
 viewBox="0.00 0.00 373.92 447.00" xmlns="http://www.w3.org/2000/svg" xmlns:xlink="http://www.w3.org/1999/xlink">
<g id="graph0" class="graph" transform="scale(1 1) rotate(0) translate(4 443)">
<title>tests/validation/NEON</title>
<polygon fill="#ffffff" stroke="transparent" points="-4,4 -4,-443 369.9173,-443 369.9173,4 -4,4"/>
<g id="clust1" class="cluster">
<title>clusterdir_e7c7b16542faa38cb4655ff1750d3604</title>
<g id="a_clust1"><a xlink:href="dir_e7c7b16542faa38cb4655ff1750d3604.xhtml" target="_top" xlink:title="validation">
<polygon fill="#ddddee" stroke="#000000" points="79.9173,-344 79.9173,-431 237.9173,-431 237.9173,-344 79.9173,-344"/>
<text text-anchor="middle" x="158.9173" y="-419" font-family="Helvetica,sans-Serif" font-size="10.00" fill="#000000">validation</text>
</a>
</g>
</g>
<g id="clust2" class="cluster">
<title>clusterdir_0538a82dae0483a21d0f1e9d7e0a45c6</title>
<g id="a_clust2"><a xlink:href="dir_0538a82dae0483a21d0f1e9d7e0a45c6.xhtml" target="_top">
<polygon fill="#eeeeff" stroke="#000000" points="87.9173,-352 87.9173,-404 229.9173,-404 229.9173,-352 87.9173,-352"/>
</a>
</g>
</g>
<!-- dir_0538a82dae0483a21d0f1e9d7e0a45c6 -->
<g id="node1" class="node">
<title>dir_0538a82dae0483a21d0f1e9d7e0a45c6</title>
<text text-anchor="middle" x="194.9173" y="-375.5" font-family="Helvetica,sans-Serif" font-size="10.00" fill="#000000">NEON</text>
</g>
<!-- dir_46fdb196cebdbffe77dac340cde62f29 -->
<g id="node3" class="node">
<title>dir_46fdb196cebdbffe77dac340cde62f29</title>
<g id="a_node3"><a xlink:href="dir_46fdb196cebdbffe77dac340cde62f29.xhtml" target="_top" xlink:title="reference">
<polygon fill="none" stroke="#000000" points="151.4173,-324 94.4173,-324 94.4173,-288 151.4173,-288 151.4173,-324"/>
<text text-anchor="middle" x="122.9173" y="-303.5" font-family="Helvetica,sans-Serif" font-size="10.00" fill="#000000">reference</text>
</a>
</g>
</g>
<!-- dir_0538a82dae0483a21d0f1e9d7e0a45c6&#45;&gt;dir_46fdb196cebdbffe77dac340cde62f29 -->
<g id="edge23" class="edge">
<title>dir_0538a82dae0483a21d0f1e9d7e0a45c6&#45;&gt;dir_46fdb196cebdbffe77dac340cde62f29</title>
<path fill="none" stroke="#000000" d="M176.7487,-359.8314C168.2021,-351.2848 157.8616,-340.9443 148.5372,-331.6198"/>
<polygon fill="#000000" stroke="#000000" points="150.8766,-329.0095 141.3306,-324.4133 145.9268,-333.9592 150.8766,-329.0095"/>
<g id="a_edge23&#45;headlabel"><a xlink:href="dir_000216_000035.xhtml" target="_top" xlink:title="4">
<text text-anchor="middle" x="155.426" y="-327.0436" font-family="Helvetica,sans-Serif" font-size="10.00" fill="#000000">4</text>
</a>
</g>
</g>
<!-- dir_68267d1309a1af8e8297ef4c3efbcdba -->
<g id="node4" class="node">
<title>dir_68267d1309a1af8e8297ef4c3efbcdba</title>
<g id="a_node4"><a xlink:href="dir_68267d1309a1af8e8297ef4c3efbcdba.xhtml" target="_top" xlink:title="src">
<polygon fill="#ffffff" stroke="#ff0000" points="299.9173,-252 245.9173,-252 245.9173,-216 299.9173,-216 299.9173,-252"/>
<text text-anchor="middle" x="272.9173" y="-231.5" font-family="Helvetica,sans-Serif" font-size="10.00" fill="#000000">src</text>
</a>
</g>
</g>
<!-- dir_0538a82dae0483a21d0f1e9d7e0a45c6&#45;&gt;dir_68267d1309a1af8e8297ef4c3efbcdba -->
<g id="edge24" class="edge">
<title>dir_0538a82dae0483a21d0f1e9d7e0a45c6&#45;&gt;dir_68267d1309a1af8e8297ef4c3efbcdba</title>
<path fill="none" stroke="#000000" d="M222.1812,-366.5421C239.4925,-357.6779 260.5277,-343.5902 270.9173,-324 280.9416,-305.0986 280.8169,-280.6764 278.5311,-262.0427"/>
<polygon fill="#000000" stroke="#000000" points="281.9836,-261.4648 277.0429,-252.0925 275.0606,-262.5002 281.9836,-261.4648"/>
<g id="a_edge24&#45;headlabel"><a xlink:href="dir_000216_000003.xhtml" target="_top" xlink:title="9">
<text text-anchor="middle" x="285.3233" y="-262.0999" font-family="Helvetica,sans-Serif" font-size="10.00" fill="#000000">9</text>
</a>
</g>
</g>
<!-- dir_cbdb8362360e11eafe2fa3bc74cf0ffd -->
<g id="node5" class="node">
<title>dir_cbdb8362360e11eafe2fa3bc74cf0ffd</title>
<g id="a_node5"><a xlink:href="dir_cbdb8362360e11eafe2fa3bc74cf0ffd.xhtml" target="_top" xlink:title="utils">
<polygon fill="#ffffff" stroke="#ff0000" points="129.9173,-180 75.9173,-180 75.9173,-144 129.9173,-144 129.9173,-180"/>
<text text-anchor="middle" x="102.9173" y="-159.5" font-family="Helvetica,sans-Serif" font-size="10.00" fill="#000000">utils</text>
</a>
</g>
</g>
<!-- dir_0538a82dae0483a21d0f1e9d7e0a45c6&#45;&gt;dir_cbdb8362360e11eafe2fa3bc74cf0ffd -->
<g id="edge25" class="edge">
<title>dir_0538a82dae0483a21d0f1e9d7e0a45c6&#45;&gt;dir_cbdb8362360e11eafe2fa3bc74cf0ffd</title>
<path fill="none" stroke="#000000" d="M188.2276,-359.9559C181.3839,-341.7028 170.3102,-312.7287 159.9173,-288 145.546,-253.8048 127.7613,-214.9937 115.9171,-189.5917"/>
<polygon fill="#000000" stroke="#000000" points="118.9439,-187.8017 111.5363,-180.2268 112.6033,-190.7678 118.9439,-187.8017"/>
<g id="a_edge25&#45;headlabel"><a xlink:href="dir_000216_000036.xhtml" target="_top" xlink:title="3">
<text text-anchor="middle" x="123.0387" y="-187.3546" font-family="Helvetica,sans-Serif" font-size="10.00" fill="#000000">3</text>
</a>
</g>
</g>
<!-- dir_445738e6fed662d0b65e690e3f1e1de0 -->
<g id="node6" class="node">
<title>dir_445738e6fed662d0b65e690e3f1e1de0</title>
<g id="a_node6"><a xlink:href="dir_445738e6fed662d0b65e690e3f1e1de0.xhtml" target="_top" xlink:title="NEON">
<polygon fill="none" stroke="#000000" points="261.9173,-324 207.9173,-324 207.9173,-288 261.9173,-288 261.9173,-324"/>
<text text-anchor="middle" x="234.9173" y="-303.5" font-family="Helvetica,sans-Serif" font-size="10.00" fill="#000000">NEON</text>
</a>
</g>
</g>
<!-- dir_0538a82dae0483a21d0f1e9d7e0a45c6&#45;&gt;dir_445738e6fed662d0b65e690e3f1e1de0 -->
<g id="edge26" class="edge">
<title>dir_0538a82dae0483a21d0f1e9d7e0a45c6&#45;&gt;dir_445738e6fed662d0b65e690e3f1e1de0</title>
<path fill="none" stroke="#000000" d="M205.011,-359.8314C209.4771,-351.7925 214.8248,-342.1666 219.7552,-333.2918"/>
<polygon fill="#000000" stroke="#000000" points="222.8908,-334.8546 224.6877,-324.4133 216.7717,-331.4551 222.8908,-334.8546"/>
<g id="a_edge26&#45;headlabel"><a xlink:href="dir_000216_000254.xhtml" target="_top" xlink:title="152">
<text text-anchor="middle" x="223.6271" y="-336.8757" font-family="Helvetica,sans-Serif" font-size="10.00" fill="#000000">152</text>
</a>
</g>
</g>
<!-- dir_9e71e2da941d3cafc4d98a9f6ae3de4f -->
<g id="node7" class="node">
<title>dir_9e71e2da941d3cafc4d98a9f6ae3de4f</title>
<g id="a_node7"><a xlink:href="dir_9e71e2da941d3cafc4d98a9f6ae3de4f.xhtml" target="_top" xlink:title="framework">
<polygon fill="#ffffff" stroke="#ff0000" points="75.9173,-252 13.9173,-252 13.9173,-216 75.9173,-216 75.9173,-252"/>
<text text-anchor="middle" x="44.9173" y="-231.5" font-family="Helvetica,sans-Serif" font-size="10.00" fill="#000000">framework</text>
</a>
</g>
</g>
<!-- dir_0538a82dae0483a21d0f1e9d7e0a45c6&#45;&gt;dir_9e71e2da941d3cafc4d98a9f6ae3de4f -->
<g id="edge27" class="edge">
<title>dir_0538a82dae0483a21d0f1e9d7e0a45c6&#45;&gt;dir_9e71e2da941d3cafc4d98a9f6ae3de4f</title>
<path fill="none" stroke="#000000" d="M179.1057,-359.8362C173.267,-354.0629 166.2685,-348.1158 158.9173,-344 129.1905,-327.3565 110.7923,-346.1625 84.9173,-324 66.4494,-308.1818 56.156,-282.1646 50.6542,-262.1611"/>
<polygon fill="#000000" stroke="#000000" points="54.0182,-261.1863 48.1959,-252.3346 47.2275,-262.8851 54.0182,-261.1863"/>
<g id="a_edge27&#45;headlabel"><a xlink:href="dir_000216_000034.xhtml" target="_top" xlink:title="377">
<text text-anchor="middle" x="57.6449" y="-261.4844" font-family="Helvetica,sans-Serif" font-size="10.00" fill="#000000">377</text>
</a>
</g>
</g>
<!-- dir_214608ef36d61442cb2b0c1c4e9a7def -->
<g id="node8" class="node">
<title>dir_214608ef36d61442cb2b0c1c4e9a7def</title>
<g id="a_node8"><a xlink:href="dir_214608ef36d61442cb2b0c1c4e9a7def.xhtml" target="_top" xlink:title="arm_compute">
<polygon fill="#ffffff" stroke="#ff0000" points="215.9173,-108 139.9173,-108 139.9173,-72 215.9173,-72 215.9173,-108"/>
<text text-anchor="middle" x="177.9173" y="-87.5" font-family="Helvetica,sans-Serif" font-size="10.00" fill="#000000">arm_compute</text>
</a>
</g>
</g>
<!-- dir_0538a82dae0483a21d0f1e9d7e0a45c6&#45;&gt;dir_214608ef36d61442cb2b0c1c4e9a7def -->
<g id="edge28" class="edge">
<title>dir_0538a82dae0483a21d0f1e9d7e0a45c6&#45;&gt;dir_214608ef36d61442cb2b0c1c4e9a7def</title>
<path fill="none" stroke="#000000" d="M222.2314,-369.1569C243.7163,-360.8221 272.7922,-346.2504 289.9173,-324 319.6432,-285.3777 325.5087,-261.8261 308.9173,-216 292.6957,-171.1952 250.0308,-135.4073 217.7628,-113.5883"/>
<polygon fill="#000000" stroke="#000000" points="219.6652,-110.6504 209.3876,-108.0771 215.8173,-116.4979 219.6652,-110.6504"/>
<g id="a_edge28&#45;headlabel"><a xlink:href="dir_000216_000000.xhtml" target="_top" xlink:title="513">
<text text-anchor="middle" x="224.2287" y="-107.7545" font-family="Helvetica,sans-Serif" font-size="10.00" fill="#000000">513</text>
</a>
</g>
</g>
<!-- dir_5815af820a9cc9481f1d0990a0d60286 -->
<g id="node9" class="node">
<title>dir_5815af820a9cc9481f1d0990a0d60286</title>
<g id="a_node9"><a xlink:href="dir_5815af820a9cc9481f1d0990a0d60286.xhtml" target="_top" xlink:title="support">
<polygon fill="none" stroke="#000000" points="166.9173,-36 112.9173,-36 112.9173,0 166.9173,0 166.9173,-36"/>
<text text-anchor="middle" x="139.9173" y="-15.5" font-family="Helvetica,sans-Serif" font-size="10.00" fill="#000000">support</text>
</a>
</g>
</g>
<!-- dir_0538a82dae0483a21d0f1e9d7e0a45c6&#45;&gt;dir_5815af820a9cc9481f1d0990a0d60286 -->
<g id="edge29" class="edge">
<title>dir_0538a82dae0483a21d0f1e9d7e0a45c6&#45;&gt;dir_5815af820a9cc9481f1d0990a0d60286</title>
<path fill="none" stroke="#000000" d="M221.9831,-371.1553C248.2809,-363.3728 288.0697,-348.4676 314.9173,-324 348.8985,-293.0313 365.9173,-279.9758 365.9173,-234 365.9173,-234 365.9173,-234 365.9173,-162 365.9173,-73.6387 241.5229,-37.128 177.3109,-24.1674"/>
<polygon fill="#000000" stroke="#000000" points="177.6595,-20.6704 167.1782,-22.217 176.3363,-27.5442 177.6595,-20.6704"/>
<g id="a_edge29&#45;headlabel"><a xlink:href="dir_000216_000028.xhtml" target="_top" xlink:title="1">
<text text-anchor="middle" x="181.726" y="-16.0617" font-family="Helvetica,sans-Serif" font-size="10.00" fill="#000000">1</text>
</a>
</g>
</g>
<!-- dir_6fc87decd8cffc07e5f49c197ca3de10 -->
<g id="node2" class="node">
<title>dir_6fc87decd8cffc07e5f49c197ca3de10</title>
<g id="a_node2"><a xlink:href="dir_6fc87decd8cffc07e5f49c197ca3de10.xhtml" target="_top" xlink:title="UNIT">
<polygon fill="#ffffff" stroke="#000000" points="149.9173,-396 95.9173,-396 95.9173,-360 149.9173,-360 149.9173,-396"/>
<text text-anchor="middle" x="122.9173" y="-375.5" font-family="Helvetica,sans-Serif" font-size="10.00" fill="#000000">UNIT</text>
</a>
</g>
</g>
<!-- dir_6fc87decd8cffc07e5f49c197ca3de10&#45;&gt;dir_46fdb196cebdbffe77dac340cde62f29 -->
<g id="edge9" class="edge">
<title>dir_6fc87decd8cffc07e5f49c197ca3de10&#45;&gt;dir_46fdb196cebdbffe77dac340cde62f29</title>
<path fill="none" stroke="#000000" d="M122.9173,-359.8314C122.9173,-352.131 122.9173,-342.9743 122.9173,-334.4166"/>
<polygon fill="#000000" stroke="#000000" points="126.4174,-334.4132 122.9173,-324.4133 119.4174,-334.4133 126.4174,-334.4132"/>
<g id="a_edge9&#45;headlabel"><a xlink:href="dir_000245_000035.xhtml" target="_top" xlink:title="2">
<text text-anchor="middle" x="129.2566" y="-335.5079" font-family="Helvetica,sans-Serif" font-size="10.00" fill="#000000">2</text>
</a>
</g>
</g>
<!-- dir_6fc87decd8cffc07e5f49c197ca3de10&#45;&gt;dir_445738e6fed662d0b65e690e3f1e1de0 -->
<g id="edge10" class="edge">
<title>dir_6fc87decd8cffc07e5f49c197ca3de10&#45;&gt;dir_445738e6fed662d0b65e690e3f1e1de0</title>
<path fill="none" stroke="#000000" d="M139.9646,-359.9493C145.682,-354.4451 152.2949,-348.6309 158.9173,-344 171.1747,-335.4287 185.6443,-327.6861 198.6511,-321.4603"/>
<polygon fill="#000000" stroke="#000000" points="200.2165,-324.5924 207.8109,-317.2049 197.2672,-318.244 200.2165,-324.5924"/>
<g id="a_edge10&#45;headlabel"><a xlink:href="dir_000245_000254.xhtml" target="_top" xlink:title="3">
<text text-anchor="middle" x="198.1528" y="-326.1818" font-family="Helvetica,sans-Serif" font-size="10.00" fill="#000000">3</text>
</a>
</g>
</g>
<!-- dir_6fc87decd8cffc07e5f49c197ca3de10&#45;&gt;dir_9e71e2da941d3cafc4d98a9f6ae3de4f -->
<g id="edge11" class="edge">
<title>dir_6fc87decd8cffc07e5f49c197ca3de10&#45;&gt;dir_9e71e2da941d3cafc4d98a9f6ae3de4f</title>
<path fill="none" stroke="#000000" d="M95.6104,-364.6896C79.9916,-355.5353 61.6274,-341.8125 51.9173,-324 41.6964,-305.2503 40.3727,-280.9632 41.3706,-262.345"/>
<polygon fill="#000000" stroke="#000000" points="44.8796,-262.3669 42.1767,-252.1227 37.9013,-261.8166 44.8796,-262.3669"/>
<g id="a_edge11&#45;headlabel"><a xlink:href="dir_000245_000034.xhtml" target="_top" xlink:title="9">
<text text-anchor="middle" x="47.4276" y="-263.6736" font-family="Helvetica,sans-Serif" font-size="10.00" fill="#000000">9</text>
</a>
</g>
</g>
<!-- dir_6fc87decd8cffc07e5f49c197ca3de10&#45;&gt;dir_214608ef36d61442cb2b0c1c4e9a7def -->
<g id="edge12" class="edge">
<title>dir_6fc87decd8cffc07e5f49c197ca3de10&#45;&gt;dir_214608ef36d61442cb2b0c1c4e9a7def</title>
<path fill="none" stroke="#000000" d="M95.8881,-365.619C77.8752,-356.2687 54.6987,-341.9817 38.9173,-324 5.7234,-286.1779 -8.2158,-264.5785 4.9173,-216 14.5857,-180.2374 18.9889,-168.3402 46.9173,-144 70.5147,-123.4344 103.0184,-109.9719 129.7448,-101.6322"/>
<polygon fill="#000000" stroke="#000000" points="131.0851,-104.8853 139.6745,-98.6827 129.0918,-98.1751 131.0851,-104.8853"/>
<g id="a_edge12&#45;headlabel"><a xlink:href="dir_000245_000000.xhtml" target="_top" xlink:title="23">
<text text-anchor="middle" x="128.4478" y="-106.1306" font-family="Helvetica,sans-Serif" font-size="10.00" fill="#000000">23</text>
</a>
</g>
</g>
<!-- dir_46fdb196cebdbffe77dac340cde62f29&#45;&gt;dir_68267d1309a1af8e8297ef4c3efbcdba -->
<g id="edge1" class="edge">
<title>dir_46fdb196cebdbffe77dac340cde62f29&#45;&gt;dir_68267d1309a1af8e8297ef4c3efbcdba</title>
<path fill="none" stroke="#000000" d="M151.4843,-292.2879C175.6342,-280.6959 210.3736,-264.021 236.5141,-251.4736"/>
<polygon fill="#000000" stroke="#000000" points="238.2195,-254.5373 245.7202,-247.0546 235.1904,-248.2267 238.2195,-254.5373"/>
<g id="a_edge1&#45;headlabel"><a xlink:href="dir_000035_000003.xhtml" target="_top" xlink:title="2">
<text text-anchor="middle" x="236.2075" y="-256.1524" font-family="Helvetica,sans-Serif" font-size="10.00" fill="#000000">2</text>
</a>
</g>
</g>
<!-- dir_46fdb196cebdbffe77dac340cde62f29&#45;&gt;dir_cbdb8362360e11eafe2fa3bc74cf0ffd -->
<g id="edge2" class="edge">
<title>dir_46fdb196cebdbffe77dac340cde62f29&#45;&gt;dir_cbdb8362360e11eafe2fa3bc74cf0ffd</title>
<path fill="none" stroke="#000000" d="M120.3843,-287.7623C116.973,-263.201 110.8684,-219.2474 106.8554,-190.3541"/>
<polygon fill="#000000" stroke="#000000" points="110.2723,-189.513 105.4298,-180.0896 103.3388,-190.4761 110.2723,-189.513"/>
<g id="a_edge2&#45;headlabel"><a xlink:href="dir_000035_000036.xhtml" target="_top" xlink:title="1">
<text text-anchor="middle" x="113.579" y="-190.1829" font-family="Helvetica,sans-Serif" font-size="10.00" fill="#000000">1</text>
</a>
</g>
</g>
<!-- dir_46fdb196cebdbffe77dac340cde62f29&#45;&gt;dir_9e71e2da941d3cafc4d98a9f6ae3de4f -->
<g id="edge3" class="edge">
<title>dir_46fdb196cebdbffe77dac340cde62f29&#45;&gt;dir_9e71e2da941d3cafc4d98a9f6ae3de4f</title>
<path fill="none" stroke="#000000" d="M103.2346,-287.8314C93.8122,-279.1337 82.3772,-268.5783 72.1377,-259.1265"/>
<polygon fill="#000000" stroke="#000000" points="74.3158,-256.3738 64.5937,-252.1628 69.5678,-261.5175 74.3158,-256.3738"/>
<g id="a_edge3&#45;headlabel"><a xlink:href="dir_000035_000034.xhtml" target="_top" xlink:title="3">
<text text-anchor="middle" x="78.8829" y="-254.2257" font-family="Helvetica,sans-Serif" font-size="10.00" fill="#000000">3</text>
</a>
</g>
</g>
<!-- dir_46fdb196cebdbffe77dac340cde62f29&#45;&gt;dir_214608ef36d61442cb2b0c1c4e9a7def -->
<g id="edge4" class="edge">
<title>dir_46fdb196cebdbffe77dac340cde62f29&#45;&gt;dir_214608ef36d61442cb2b0c1c4e9a7def</title>
<path fill="none" stroke="#000000" d="M127.512,-287.9555C137.1168,-250.235 159.3755,-162.8188 170.8285,-117.8399"/>
<polygon fill="#000000" stroke="#000000" points="174.2212,-118.6995 173.2971,-108.1451 167.4376,-116.9722 174.2212,-118.6995"/>
<g id="a_edge4&#45;headlabel"><a xlink:href="dir_000035_000000.xhtml" target="_top" xlink:title="90">
<text text-anchor="middle" x="176.0858" y="-120.3836" font-family="Helvetica,sans-Serif" font-size="10.00" fill="#000000">90</text>
</a>
</g>
</g>
<!-- dir_46fdb196cebdbffe77dac340cde62f29&#45;&gt;dir_5815af820a9cc9481f1d0990a0d60286 -->
<g id="edge5" class="edge">
<title>dir_46fdb196cebdbffe77dac340cde62f29&#45;&gt;dir_5815af820a9cc9481f1d0990a0d60286</title>
<path fill="none" stroke="#000000" d="M94.3249,-301.8196C66.1347,-296.0111 24.5157,-282.5218 4.9173,-252 -3.7277,-238.5366 1.9199,-231.7167 4.9173,-216 17.8123,-148.3872 19.1157,-125.9054 61.9173,-72 73.1976,-57.7934 89.2096,-45.8156 103.7938,-36.7784"/>
<polygon fill="#000000" stroke="#000000" points="105.8172,-39.6478 112.6349,-31.5379 102.2479,-33.6261 105.8172,-39.6478"/>
<g id="a_edge5&#45;headlabel"><a xlink:href="dir_000035_000028.xhtml" target="_top" xlink:title="7">
<text text-anchor="middle" x="104.1727" y="-41.4231" font-family="Helvetica,sans-Serif" font-size="10.00" fill="#000000">7</text>
</a>
</g>
</g>
<!-- dir_68267d1309a1af8e8297ef4c3efbcdba&#45;&gt;dir_cbdb8362360e11eafe2fa3bc74cf0ffd -->
<g id="edge6" class="edge">
<title>dir_68267d1309a1af8e8297ef4c3efbcdba&#45;&gt;dir_cbdb8362360e11eafe2fa3bc74cf0ffd</title>
<path fill="none" stroke="#000000" d="M245.6039,-222.432C216.8541,-210.2556 171.4336,-191.0187 139.5797,-177.5276"/>
<polygon fill="#000000" stroke="#000000" points="140.7362,-174.2165 130.163,-173.5393 138.0062,-180.6622 140.7362,-174.2165"/>
<g id="a_edge6&#45;headlabel"><a xlink:href="dir_000003_000036.xhtml" target="_top" xlink:title="8">
<text text-anchor="middle" x="145.1534" y="-170.5038" font-family="Helvetica,sans-Serif" font-size="10.00" fill="#000000">8</text>
</a>
</g>
</g>
<!-- dir_68267d1309a1af8e8297ef4c3efbcdba&#45;&gt;dir_214608ef36d61442cb2b0c1c4e9a7def -->
<g id="edge7" class="edge">
<title>dir_68267d1309a1af8e8297ef4c3efbcdba&#45;&gt;dir_214608ef36d61442cb2b0c1c4e9a7def</title>
<path fill="none" stroke="#000000" d="M256.2123,-215.7623C237.2201,-190.7682 207.2421,-145.6924 190.2304,-116.8409"/>
<polygon fill="#000000" stroke="#000000" points="193.2153,-115.0104 185.1932,-108.0896 187.1485,-118.5025 193.2153,-115.0104"/>
<g id="a_edge7&#45;headlabel"><a xlink:href="dir_000003_000000.xhtml" target="_top" xlink:title="4087">
<text text-anchor="middle" x="197.4692" y="-114.2093" font-family="Helvetica,sans-Serif" font-size="10.00" fill="#000000">4087</text>
</a>
</g>
</g>
<!-- dir_68267d1309a1af8e8297ef4c3efbcdba&#45;&gt;dir_5815af820a9cc9481f1d0990a0d60286 -->
<g id="edge8" class="edge">
<title>dir_68267d1309a1af8e8297ef4c3efbcdba&#45;&gt;dir_5815af820a9cc9481f1d0990a0d60286</title>
<path fill="none" stroke="#000000" d="M271.8117,-215.7517C269.0001,-183.5234 259.143,-115.8011 224.9173,-72 212.2017,-55.7269 193.123,-42.9741 176.2608,-33.9577"/>
<polygon fill="#000000" stroke="#000000" points="177.6752,-30.7504 167.1754,-29.3343 174.5005,-36.9891 177.6752,-30.7504"/>
<g id="a_edge8&#45;headlabel"><a xlink:href="dir_000003_000028.xhtml" target="_top" xlink:title="218">
<text text-anchor="middle" x="182.1666" y="-27.3501" font-family="Helvetica,sans-Serif" font-size="10.00" fill="#000000">218</text>
</a>
</g>
</g>
<!-- dir_cbdb8362360e11eafe2fa3bc74cf0ffd&#45;&gt;dir_214608ef36d61442cb2b0c1c4e9a7def -->
<g id="edge13" class="edge">
<title>dir_cbdb8362360e11eafe2fa3bc74cf0ffd&#45;&gt;dir_214608ef36d61442cb2b0c1c4e9a7def</title>
<path fill="none" stroke="#000000" d="M115.8906,-143.8314C124.1835,-135.0485 135.1386,-124.3712 145.5796,-114.8489"/>
<polygon fill="#000000" stroke="#000000" points="147.9311,-117.4413 153.0459,-108.1628 143.2614,-112.2266 147.9311,-117.4413"/>
<g id="a_edge13&#45;headlabel"><a xlink:href="dir_000036_000000.xhtml" target="_top" xlink:title="39">
<text text-anchor="middle" x="147.1474" y="-119.4544" font-family="Helvetica,sans-Serif" font-size="10.00" fill="#000000">39</text>
</a>
</g>
</g>
<!-- dir_cbdb8362360e11eafe2fa3bc74cf0ffd&#45;&gt;dir_5815af820a9cc9481f1d0990a0d60286 -->
<g id="edge14" class="edge">
<title>dir_cbdb8362360e11eafe2fa3bc74cf0ffd&#45;&gt;dir_5815af820a9cc9481f1d0990a0d60286</title>
<path fill="none" stroke="#000000" d="M102.9302,-143.7623C106.8152,-118.9846 117.9949,-74.4714 127.3808,-45.5939"/>
<polygon fill="#000000" stroke="#000000" points="130.7069,-46.684 130.611,-36.0896 124.0792,-44.4314 130.7069,-46.684"/>
<g id="a_edge14&#45;headlabel"><a xlink:href="dir_000036_000028.xhtml" target="_top" xlink:title="3">
<text text-anchor="middle" x="132.2385" y="-48.5011" font-family="Helvetica,sans-Serif" font-size="10.00" fill="#000000">3</text>
</a>
</g>
</g>
<!-- dir_445738e6fed662d0b65e690e3f1e1de0&#45;&gt;dir_68267d1309a1af8e8297ef4c3efbcdba -->
<g id="edge15" class="edge">
<title>dir_445738e6fed662d0b65e690e3f1e1de0&#45;&gt;dir_68267d1309a1af8e8297ef4c3efbcdba</title>
<path fill="none" stroke="#000000" d="M244.5063,-287.8314C248.7491,-279.7925 253.8294,-270.1666 258.5133,-261.2918"/>
<polygon fill="#000000" stroke="#000000" points="261.6269,-262.8908 263.1992,-252.4133 255.4362,-259.6235 261.6269,-262.8908"/>
<g id="a_edge15&#45;headlabel"><a xlink:href="dir_000254_000003.xhtml" target="_top" xlink:title="1">
<text text-anchor="middle" x="262.4602" y="-264.895" font-family="Helvetica,sans-Serif" font-size="10.00" fill="#000000">1</text>
</a>
</g>
</g>
<!-- dir_445738e6fed662d0b65e690e3f1e1de0&#45;&gt;dir_214608ef36d61442cb2b0c1c4e9a7def -->
<g id="edge16" class="edge">
<title>dir_445738e6fed662d0b65e690e3f1e1de0&#45;&gt;dir_214608ef36d61442cb2b0c1c4e9a7def</title>
<path fill="none" stroke="#000000" d="M230.1556,-287.9555C220.2016,-250.235 197.1334,-162.8188 185.264,-117.8399"/>
<polygon fill="#000000" stroke="#000000" points="188.6414,-116.921 182.7056,-108.1451 181.8731,-118.7071 188.6414,-116.921"/>
<g id="a_edge16&#45;headlabel"><a xlink:href="dir_000254_000000.xhtml" target="_top" xlink:title="7">
<text text-anchor="middle" x="192.3038" y="-117.1722" font-family="Helvetica,sans-Serif" font-size="10.00" fill="#000000">7</text>
</a>
</g>
</g>
<!-- dir_9e71e2da941d3cafc4d98a9f6ae3de4f&#45;&gt;dir_cbdb8362360e11eafe2fa3bc74cf0ffd -->
<g id="edge17" class="edge">
<title>dir_9e71e2da941d3cafc4d98a9f6ae3de4f&#45;&gt;dir_cbdb8362360e11eafe2fa3bc74cf0ffd</title>
<path fill="none" stroke="#000000" d="M59.5532,-215.8314C66.2334,-207.5386 74.2742,-197.557 81.6077,-188.4533"/>
<polygon fill="#000000" stroke="#000000" points="84.5367,-190.3965 88.0844,-180.4133 79.0854,-186.0052 84.5367,-190.3965"/>
<g id="a_edge17&#45;headlabel"><a xlink:href="dir_000034_000036.xhtml" target="_top" xlink:title="3">
<text text-anchor="middle" x="84.4928" y="-192.4769" font-family="Helvetica,sans-Serif" font-size="10.00" fill="#000000">3</text>
</a>
</g>
</g>
<!-- dir_9e71e2da941d3cafc4d98a9f6ae3de4f&#45;&gt;dir_214608ef36d61442cb2b0c1c4e9a7def -->
<g id="edge18" class="edge">
<title>dir_9e71e2da941d3cafc4d98a9f6ae3de4f&#45;&gt;dir_214608ef36d61442cb2b0c1c4e9a7def</title>
<path fill="none" stroke="#000000" d="M44.9633,-215.7983C45.9301,-196.0728 50.2521,-164.6557 66.9173,-144 82.8591,-124.241 107.8174,-111.2053 130.033,-102.9018"/>
<polygon fill="#000000" stroke="#000000" points="131.3988,-106.1319 139.6772,-99.5199 129.0824,-99.5262 131.3988,-106.1319"/>
<g id="a_edge18&#45;headlabel"><a xlink:href="dir_000034_000000.xhtml" target="_top" xlink:title="15">
<text text-anchor="middle" x="128.9462" y="-107.5006" font-family="Helvetica,sans-Serif" font-size="10.00" fill="#000000">15</text>
</a>
</g>
</g>
<!-- dir_9e71e2da941d3cafc4d98a9f6ae3de4f&#45;&gt;dir_5815af820a9cc9481f1d0990a0d60286 -->
<g id="edge19" class="edge">
<title>dir_9e71e2da941d3cafc4d98a9f6ae3de4f&#45;&gt;dir_5815af820a9cc9481f1d0990a0d60286</title>
<path fill="none" stroke="#000000" d="M42.1802,-215.8545C40.0919,-197.2705 38.7867,-167.8127 46.9173,-144 60.3937,-104.5308 91.1118,-67.1215 113.57,-43.4751"/>
<polygon fill="#000000" stroke="#000000" points="116.085,-45.9092 120.539,-36.2961 111.0623,-41.0334 116.085,-45.9092"/>
<g id="a_edge19&#45;headlabel"><a xlink:href="dir_000034_000028.xhtml" target="_top" xlink:title="6">
<text text-anchor="middle" x="115.6184" y="-47.966" font-family="Helvetica,sans-Serif" font-size="10.00" fill="#000000">6</text>
</a>
</g>
</g>
<!-- dir_214608ef36d61442cb2b0c1c4e9a7def&#45;&gt;dir_68267d1309a1af8e8297ef4c3efbcdba -->
<g id="edge20" class="edge">
<title>dir_214608ef36d61442cb2b0c1c4e9a7def&#45;&gt;dir_68267d1309a1af8e8297ef4c3efbcdba</title>
<path fill="none" stroke="#000000" d="M194.5097,-108.0896C213.4585,-133.0041 243.4403,-178.0722 260.5031,-206.9877"/>
<polygon fill="#000000" stroke="#000000" points="257.5337,-208.8449 265.5587,-215.7623 263.599,-205.3503 257.5337,-208.8449"/>
<g id="a_edge20&#45;headlabel"><a xlink:href="dir_000000_000003.xhtml" target="_top" xlink:title="3">
<text text-anchor="middle" x="253.2791" y="-204.6477" font-family="Helvetica,sans-Serif" font-size="10.00" fill="#000000">3</text>
</a>
</g>
</g>
<!-- dir_214608ef36d61442cb2b0c1c4e9a7def&#45;&gt;dir_cbdb8362360e11eafe2fa3bc74cf0ffd -->
<g id="edge21" class="edge">
<title>dir_214608ef36d61442cb2b0c1c4e9a7def&#45;&gt;dir_cbdb8362360e11eafe2fa3bc74cf0ffd</title>
<path fill="none" stroke="#000000" d="M164.7128,-108.4133C156.5149,-117.0787 145.7744,-127.5464 135.5058,-136.9223"/>
<polygon fill="#000000" stroke="#000000" points="132.9072,-134.5513 127.7954,-143.8314 137.5786,-139.7645 132.9072,-134.5513"/>
<g id="a_edge21&#45;headlabel"><a xlink:href="dir_000000_000036.xhtml" target="_top" xlink:title="1">
<text text-anchor="middle" x="133.6895" y="-127.5379" font-family="Helvetica,sans-Serif" font-size="10.00" fill="#000000">1</text>
</a>
</g>
</g>
<!-- dir_214608ef36d61442cb2b0c1c4e9a7def&#45;&gt;dir_5815af820a9cc9481f1d0990a0d60286 -->
<g id="edge22" class="edge">
<title>dir_214608ef36d61442cb2b0c1c4e9a7def&#45;&gt;dir_5815af820a9cc9481f1d0990a0d60286</title>
<path fill="none" stroke="#000000" d="M162.3759,-71.8314C157.4027,-63.8771 152.1744,-54.369 147.8865,-45.5723"/>
<polygon fill="#000000" stroke="#000000" points="151.0278,-44.0262 143.6594,-36.4133 144.6721,-46.9596 151.0278,-44.0262"/>
<g id="a_edge22&#45;headlabel"><a xlink:href="dir_000000_000028.xhtml" target="_top" xlink:title="18">
<text text-anchor="middle" x="155.112" y="-43.6003" font-family="Helvetica,sans-Serif" font-size="10.00" fill="#000000">18</text>
</a>
</g>
</g>
<!-- dir_5815af820a9cc9481f1d0990a0d60286&#45;&gt;dir_cbdb8362360e11eafe2fa3bc74cf0ffd -->
<g id="edge30" class="edge">
<title>dir_5815af820a9cc9481f1d0990a0d60286&#45;&gt;dir_cbdb8362360e11eafe2fa3bc74cf0ffd</title>
<path fill="none" stroke="#000000" d="M139.9276,-36.0896C136.0717,-60.7884 124.9031,-105.2933 115.51,-134.2331"/>
<polygon fill="#000000" stroke="#000000" points="112.1755,-133.1679 112.2766,-143.7623 118.8043,-135.4173 112.1755,-133.1679"/>
<g id="a_edge30&#45;headlabel"><a xlink:href="dir_000028_000036.xhtml" target="_top" xlink:title="1">
<text text-anchor="middle" x="110.6418" y="-126.3516" font-family="Helvetica,sans-Serif" font-size="10.00" fill="#000000">1</text>
</a>
</g>
</g>
<!-- dir_5815af820a9cc9481f1d0990a0d60286&#45;&gt;dir_214608ef36d61442cb2b0c1c4e9a7def -->
<g id="edge31" class="edge">
<title>dir_5815af820a9cc9481f1d0990a0d60286&#45;&gt;dir_214608ef36d61442cb2b0c1c4e9a7def</title>
<path fill="none" stroke="#000000" d="M155.6114,-36.4133C160.5898,-44.3991 165.8109,-53.9155 170.0794,-62.6975"/>
<polygon fill="#000000" stroke="#000000" points="166.9221,-64.2089 174.2807,-71.8314 173.2816,-61.2837 166.9221,-64.2089"/>
<g id="a_edge31&#45;headlabel"><a xlink:href="dir_000028_000000.xhtml" target="_top" xlink:title="6">
<text text-anchor="middle" x="162.8405" y="-59.6297" font-family="Helvetica,sans-Serif" font-size="10.00" fill="#000000">6</text>
</a>
</g>
</g>
</g>
</svg>
