<?xml version="1.0" encoding="UTF-8" standalone="no"?>
<!DOCTYPE svg PUBLIC "-//W3C//DTD SVG 1.1//EN"
 "http://www.w3.org/Graphics/SVG/1.1/DTD/svg11.dtd">
<!-- Generated by graphviz version 2.40.1 (20161225.0304)
 -->
<!-- Title: src/core/gpu/cl/kernels Pages: 1 -->
<svg width="414pt" height="367pt"
 viewBox="0.00 0.00 414.00 367.00" xmlns="http://www.w3.org/2000/svg" xmlns:xlink="http://www.w3.org/1999/xlink">
<g id="graph0" class="graph" transform="scale(1 1) rotate(0) translate(4 363)">
<title>src/core/gpu/cl/kernels</title>
<polygon fill="#ffffff" stroke="transparent" points="-4,4 -4,-363 410,-363 410,4 -4,4"/>
<g id="clust1" class="cluster">
<title>clusterdir_4b1cf72e37a7b2ab9fcadfc14e586022</title>
<g id="a_clust1"><a xlink:href="dir_4b1cf72e37a7b2ab9fcadfc14e586022.xhtml" target="_top" xlink:title="cl">
<polygon fill="#ddddee" stroke="#000000" points="140,-280 140,-351 210,-351 210,-280 140,-280"/>
<text text-anchor="middle" x="175" y="-339" font-family="Helvetica,sans-Serif" font-size="10.00" fill="#000000">cl</text>
</a>
</g>
</g>
<!-- dir_c6e2475d0363de5806d14ca51f99c239 -->
<g id="node1" class="node">
<title>dir_c6e2475d0363de5806d14ca51f99c239</title>
<g id="a_node1"><a xlink:href="dir_c6e2475d0363de5806d14ca51f99c239.xhtml" target="_top" xlink:title="kernels">
<polygon fill="#eeeeff" stroke="#000000" points="202,-324 148,-324 148,-288 202,-288 202,-324"/>
<text text-anchor="middle" x="175" y="-303.5" font-family="Helvetica,sans-Serif" font-size="10.00" fill="#000000">kernels</text>
</a>
</g>
</g>
<!-- dir_34b4cee2b5900b653deb3438fc906cf4 -->
<g id="node2" class="node">
<title>dir_34b4cee2b5900b653deb3438fc906cf4</title>
<g id="a_node2"><a xlink:href="dir_34b4cee2b5900b653deb3438fc906cf4.xhtml" target="_top" xlink:title="common">
<polygon fill="none" stroke="#000000" points="54,-252 0,-252 0,-216 54,-216 54,-252"/>
<text text-anchor="middle" x="27" y="-231.5" font-family="Helvetica,sans-Serif" font-size="10.00" fill="#000000">common</text>
</a>
</g>
</g>
<!-- dir_c6e2475d0363de5806d14ca51f99c239&#45;&gt;dir_34b4cee2b5900b653deb3438fc906cf4 -->
<g id="edge6" class="edge">
<title>dir_c6e2475d0363de5806d14ca51f99c239&#45;&gt;dir_34b4cee2b5900b653deb3438fc906cf4</title>
<path fill="none" stroke="#000000" d="M147.8545,-292.7941C124.1456,-281.26 89.536,-264.4229 63.4236,-251.7196"/>
<polygon fill="#000000" stroke="#000000" points="64.7471,-248.4713 54.2236,-247.2439 61.6848,-254.7659 64.7471,-248.4713"/>
<g id="a_edge6&#45;headlabel"><a xlink:href="dir_000110_000040.xhtml" target="_top" xlink:title="17">
<text text-anchor="middle" x="69.2216" y="-244.9906" font-family="Helvetica,sans-Serif" font-size="10.00" fill="#000000">17</text>
</a>
</g>
</g>
<!-- dir_8c278f79c760e5c5fbd911f9870614c1 -->
<g id="node3" class="node">
<title>dir_8c278f79c760e5c5fbd911f9870614c1</title>
<g id="a_node3"><a xlink:href="dir_8c278f79c760e5c5fbd911f9870614c1.xhtml" target="_top" xlink:title="CL">
<polygon fill="#ffffff" stroke="#ff0000" points="312,-252 258,-252 258,-216 312,-216 312,-252"/>
<text text-anchor="middle" x="285" y="-231.5" font-family="Helvetica,sans-Serif" font-size="10.00" fill="#000000">CL</text>
</a>
</g>
</g>
<!-- dir_c6e2475d0363de5806d14ca51f99c239&#45;&gt;dir_8c278f79c760e5c5fbd911f9870614c1 -->
<g id="edge7" class="edge">
<title>dir_c6e2475d0363de5806d14ca51f99c239&#45;&gt;dir_8c278f79c760e5c5fbd911f9870614c1</title>
<path fill="none" stroke="#000000" d="M202.191,-288.2022C216.3378,-278.9425 233.8157,-267.5025 249.063,-257.5224"/>
<polygon fill="#000000" stroke="#000000" points="251.2903,-260.2476 257.7406,-251.8425 247.4567,-254.3907 251.2903,-260.2476"/>
<g id="a_edge7&#45;headlabel"><a xlink:href="dir_000110_000017.xhtml" target="_top" xlink:title="15">
<text text-anchor="middle" x="249.8377" y="-262.0918" font-family="Helvetica,sans-Serif" font-size="10.00" fill="#000000">15</text>
</a>
</g>
</g>
<!-- dir_707aa52d67938117542c6646238d6f70 -->
<g id="node4" class="node">
<title>dir_707aa52d67938117542c6646238d6f70</title>
<g id="a_node4"><a xlink:href="dir_707aa52d67938117542c6646238d6f70.xhtml" target="_top" xlink:title="helpers">
<polygon fill="none" stroke="#000000" points="240,-180 186,-180 186,-144 240,-144 240,-180"/>
<text text-anchor="middle" x="213" y="-159.5" font-family="Helvetica,sans-Serif" font-size="10.00" fill="#000000">helpers</text>
</a>
</g>
</g>
<!-- dir_c6e2475d0363de5806d14ca51f99c239&#45;&gt;dir_707aa52d67938117542c6646238d6f70 -->
<g id="edge8" class="edge">
<title>dir_c6e2475d0363de5806d14ca51f99c239&#45;&gt;dir_707aa52d67938117542c6646238d6f70</title>
<path fill="none" stroke="#000000" d="M190.8706,-287.8799C198.5011,-277.9899 206.8707,-265.1113 211,-252 217.2891,-232.031 217.5441,-208.3173 216.3578,-190.2457"/>
<polygon fill="#000000" stroke="#000000" points="219.8276,-189.739 215.5009,-180.0679 212.8523,-190.3263 219.8276,-189.739"/>
<g id="a_edge8&#45;headlabel"><a xlink:href="dir_000110_000030.xhtml" target="_top" xlink:title="23">
<text text-anchor="middle" x="222.9583" y="-190.5828" font-family="Helvetica,sans-Serif" font-size="10.00" fill="#000000">23</text>
</a>
</g>
</g>
<!-- dir_214608ef36d61442cb2b0c1c4e9a7def -->
<g id="node5" class="node">
<title>dir_214608ef36d61442cb2b0c1c4e9a7def</title>
<g id="a_node5"><a xlink:href="dir_214608ef36d61442cb2b0c1c4e9a7def.xhtml" target="_top" xlink:title="arm_compute">
<polygon fill="#ffffff" stroke="#ff0000" points="296,-108 220,-108 220,-72 296,-72 296,-108"/>
<text text-anchor="middle" x="258" y="-87.5" font-family="Helvetica,sans-Serif" font-size="10.00" fill="#000000">arm_compute</text>
</a>
</g>
</g>
<!-- dir_c6e2475d0363de5806d14ca51f99c239&#45;&gt;dir_214608ef36d61442cb2b0c1c4e9a7def -->
<g id="edge9" class="edge">
<title>dir_c6e2475d0363de5806d14ca51f99c239&#45;&gt;dir_214608ef36d61442cb2b0c1c4e9a7def</title>
<path fill="none" stroke="#000000" d="M159.0095,-287.9169C151.3462,-278.0371 142.9834,-265.1563 139,-252 124.693,-204.7471 133.3593,-181.8998 165,-144 177.2158,-129.3677 194.4793,-117.8179 210.8216,-109.2191"/>
<polygon fill="#000000" stroke="#000000" points="212.3897,-112.3482 219.7679,-104.7447 209.2585,-106.0875 212.3897,-112.3482"/>
<g id="a_edge9&#45;headlabel"><a xlink:href="dir_000110_000000.xhtml" target="_top" xlink:title="90">
<text text-anchor="middle" x="210.4448" y="-113.9954" font-family="Helvetica,sans-Serif" font-size="10.00" fill="#000000">90</text>
</a>
</g>
</g>
<!-- dir_a8053b3d69cfefb2b2e6ec7bf9dd5c1a -->
<g id="node6" class="node">
<title>dir_a8053b3d69cfefb2b2e6ec7bf9dd5c1a</title>
<g id="a_node6"><a xlink:href="dir_a8053b3d69cfefb2b2e6ec7bf9dd5c1a.xhtml" target="_top" xlink:title="utils">
<polygon fill="#ffffff" stroke="#ff0000" points="406,-180 352,-180 352,-144 406,-144 406,-180"/>
<text text-anchor="middle" x="379" y="-159.5" font-family="Helvetica,sans-Serif" font-size="10.00" fill="#000000">utils</text>
</a>
</g>
</g>
<!-- dir_c6e2475d0363de5806d14ca51f99c239&#45;&gt;dir_a8053b3d69cfefb2b2e6ec7bf9dd5c1a -->
<g id="edge10" class="edge">
<title>dir_c6e2475d0363de5806d14ca51f99c239&#45;&gt;dir_a8053b3d69cfefb2b2e6ec7bf9dd5c1a</title>
<path fill="none" stroke="#000000" d="M202.0627,-301.3763C233.4706,-294.8787 285.4853,-280.5026 321,-252 341.8056,-235.3023 357.512,-209.041 367.2976,-189.1868"/>
<polygon fill="#000000" stroke="#000000" points="370.5187,-190.562 371.6223,-180.0248 364.1885,-187.574 370.5187,-190.562"/>
<g id="a_edge10&#45;headlabel"><a xlink:href="dir_000110_000112.xhtml" target="_top" xlink:title="2">
<text text-anchor="middle" x="371.552" y="-192.5246" font-family="Helvetica,sans-Serif" font-size="10.00" fill="#000000">2</text>
</a>
</g>
</g>
<!-- dir_1d7cadfed01c895b25460177608d44e9 -->
<g id="node7" class="node">
<title>dir_1d7cadfed01c895b25460177608d44e9</title>
<g id="a_node7"><a xlink:href="dir_1d7cadfed01c895b25460177608d44e9.xhtml" target="_top" xlink:title="CPP">
<polygon fill="#ffffff" stroke="#ff0000" points="202,-252 148,-252 148,-216 202,-216 202,-252"/>
<text text-anchor="middle" x="175" y="-231.5" font-family="Helvetica,sans-Serif" font-size="10.00" fill="#000000">CPP</text>
</a>
</g>
</g>
<!-- dir_c6e2475d0363de5806d14ca51f99c239&#45;&gt;dir_1d7cadfed01c895b25460177608d44e9 -->
<g id="edge11" class="edge">
<title>dir_c6e2475d0363de5806d14ca51f99c239&#45;&gt;dir_1d7cadfed01c895b25460177608d44e9</title>
<path fill="none" stroke="#000000" d="M175,-287.8314C175,-280.131 175,-270.9743 175,-262.4166"/>
<polygon fill="#000000" stroke="#000000" points="178.5001,-262.4132 175,-252.4133 171.5001,-262.4133 178.5001,-262.4132"/>
<g id="a_edge11&#45;headlabel"><a xlink:href="dir_000110_000045.xhtml" target="_top" xlink:title="1">
<text text-anchor="middle" x="181.3393" y="-263.5079" font-family="Helvetica,sans-Serif" font-size="10.00" fill="#000000">1</text>
</a>
</g>
</g>
<!-- dir_5815af820a9cc9481f1d0990a0d60286 -->
<g id="node8" class="node">
<title>dir_5815af820a9cc9481f1d0990a0d60286</title>
<g id="a_node8"><a xlink:href="dir_5815af820a9cc9481f1d0990a0d60286.xhtml" target="_top" xlink:title="support">
<polygon fill="none" stroke="#000000" points="285,-36 231,-36 231,0 285,0 285,-36"/>
<text text-anchor="middle" x="258" y="-15.5" font-family="Helvetica,sans-Serif" font-size="10.00" fill="#000000">support</text>
</a>
</g>
</g>
<!-- dir_c6e2475d0363de5806d14ca51f99c239&#45;&gt;dir_5815af820a9cc9481f1d0990a0d60286 -->
<g id="edge12" class="edge">
<title>dir_c6e2475d0363de5806d14ca51f99c239&#45;&gt;dir_5815af820a9cc9481f1d0990a0d60286</title>
<path fill="none" stroke="#000000" d="M153.6873,-287.7308C144.1866,-278.1756 134.021,-265.6372 129,-252 121.2122,-230.8483 133.7622,-150.9151 137,-144 156.6646,-102.0019 196.0057,-65.2227 224.5026,-42.4111"/>
<polygon fill="#000000" stroke="#000000" points="226.8809,-44.9941 232.5953,-36.0724 222.5645,-39.4833 226.8809,-44.9941"/>
<g id="a_edge12&#45;headlabel"><a xlink:href="dir_000110_000028.xhtml" target="_top" xlink:title="31">
<text text-anchor="middle" x="225.8018" y="-46.9459" font-family="Helvetica,sans-Serif" font-size="10.00" fill="#000000">31</text>
</a>
</g>
</g>
<!-- dir_8c278f79c760e5c5fbd911f9870614c1&#45;&gt;dir_707aa52d67938117542c6646238d6f70 -->
<g id="edge1" class="edge">
<title>dir_8c278f79c760e5c5fbd911f9870614c1&#45;&gt;dir_707aa52d67938117542c6646238d6f70</title>
<path fill="none" stroke="#000000" d="M266.8314,-215.8314C258.2848,-207.2848 247.9443,-196.9443 238.6198,-187.6198"/>
<polygon fill="#000000" stroke="#000000" points="240.9592,-185.0095 231.4133,-180.4133 236.0095,-189.9592 240.9592,-185.0095"/>
<g id="a_edge1&#45;headlabel"><a xlink:href="dir_000017_000030.xhtml" target="_top" xlink:title="180">
<text text-anchor="middle" x="245.5087" y="-183.0436" font-family="Helvetica,sans-Serif" font-size="10.00" fill="#000000">180</text>
</a>
</g>
</g>
<!-- dir_8c278f79c760e5c5fbd911f9870614c1&#45;&gt;dir_214608ef36d61442cb2b0c1c4e9a7def -->
<g id="edge2" class="edge">
<title>dir_8c278f79c760e5c5fbd911f9870614c1&#45;&gt;dir_214608ef36d61442cb2b0c1c4e9a7def</title>
<path fill="none" stroke="#000000" d="M276.9073,-215.7623C269.8422,-191.201 261.3262,-147.2474 257.819,-118.3541"/>
<polygon fill="#000000" stroke="#000000" points="261.2658,-117.6661 256.7335,-108.0896 254.3046,-118.4023 261.2658,-117.6661"/>
<g id="a_edge2&#45;headlabel"><a xlink:href="dir_000017_000000.xhtml" target="_top" xlink:title="820">
<text text-anchor="middle" x="264.4673" y="-118.4422" font-family="Helvetica,sans-Serif" font-size="10.00" fill="#000000">820</text>
</a>
</g>
</g>
<!-- dir_8c278f79c760e5c5fbd911f9870614c1&#45;&gt;dir_a8053b3d69cfefb2b2e6ec7bf9dd5c1a -->
<g id="edge3" class="edge">
<title>dir_8c278f79c760e5c5fbd911f9870614c1&#45;&gt;dir_a8053b3d69cfefb2b2e6ec7bf9dd5c1a</title>
<path fill="none" stroke="#000000" d="M308.7202,-215.8314C320.4094,-206.8779 334.6688,-195.9558 347.2809,-186.2955"/>
<polygon fill="#000000" stroke="#000000" points="349.4769,-189.0222 355.2874,-180.1628 345.2203,-183.4651 349.4769,-189.0222"/>
<g id="a_edge3&#45;headlabel"><a xlink:href="dir_000017_000112.xhtml" target="_top" xlink:title="6">
<text text-anchor="middle" x="348.3497" y="-190.962" font-family="Helvetica,sans-Serif" font-size="10.00" fill="#000000">6</text>
</a>
</g>
</g>
<!-- dir_8c278f79c760e5c5fbd911f9870614c1&#45;&gt;dir_5815af820a9cc9481f1d0990a0d60286 -->
<g id="edge4" class="edge">
<title>dir_8c278f79c760e5c5fbd911f9870614c1&#45;&gt;dir_5815af820a9cc9481f1d0990a0d60286</title>
<path fill="none" stroke="#000000" d="M292.6236,-215.8544C304.3408,-185.1951 323.5739,-121.6314 305,-72 301.1046,-61.5911 294.1959,-51.8652 286.8544,-43.6152"/>
<polygon fill="#000000" stroke="#000000" points="289.2014,-41.0048 279.7672,-36.1835 284.1357,-45.8358 289.2014,-41.0048"/>
<g id="a_edge4&#45;headlabel"><a xlink:href="dir_000017_000028.xhtml" target="_top" xlink:title="96">
<text text-anchor="middle" x="293.7369" y="-39.1467" font-family="Helvetica,sans-Serif" font-size="10.00" fill="#000000">96</text>
</a>
</g>
</g>
<!-- dir_707aa52d67938117542c6646238d6f70&#45;&gt;dir_214608ef36d61442cb2b0c1c4e9a7def -->
<g id="edge5" class="edge">
<title>dir_707aa52d67938117542c6646238d6f70&#45;&gt;dir_214608ef36d61442cb2b0c1c4e9a7def</title>
<path fill="none" stroke="#000000" d="M224.3554,-143.8314C229.4326,-135.7079 235.5227,-125.9637 241.1176,-117.0118"/>
<polygon fill="#000000" stroke="#000000" points="244.1597,-118.7483 246.4917,-108.4133 238.2237,-115.0383 244.1597,-118.7483"/>
<g id="a_edge5&#45;headlabel"><a xlink:href="dir_000030_000000.xhtml" target="_top" xlink:title="11">
<text text-anchor="middle" x="244.6623" y="-120.8013" font-family="Helvetica,sans-Serif" font-size="10.00" fill="#000000">11</text>
</a>
</g>
</g>
<!-- dir_214608ef36d61442cb2b0c1c4e9a7def&#45;&gt;dir_8c278f79c760e5c5fbd911f9870614c1 -->
<g id="edge13" class="edge">
<title>dir_214608ef36d61442cb2b0c1c4e9a7def&#45;&gt;dir_8c278f79c760e5c5fbd911f9870614c1</title>
<path fill="none" stroke="#000000" d="M266.0501,-108.0896C273.1093,-132.5727 281.6325,-176.5174 285.1598,-205.4713"/>
<polygon fill="#000000" stroke="#000000" points="281.7162,-206.1883 286.2536,-215.7623 288.677,-205.4484 281.7162,-206.1883"/>
<g id="a_edge13&#45;headlabel"><a xlink:href="dir_000000_000017.xhtml" target="_top" xlink:title="3">
<text text-anchor="middle" x="278.513" y="-200.4138" font-family="Helvetica,sans-Serif" font-size="10.00" fill="#000000">3</text>
</a>
</g>
</g>
<!-- dir_214608ef36d61442cb2b0c1c4e9a7def&#45;&gt;dir_5815af820a9cc9481f1d0990a0d60286 -->
<g id="edge14" class="edge">
<title>dir_214608ef36d61442cb2b0c1c4e9a7def&#45;&gt;dir_5815af820a9cc9481f1d0990a0d60286</title>
<path fill="none" stroke="#000000" d="M252.0476,-71.8314C251.2972,-64.131 251.0763,-54.9743 251.3849,-46.4166"/>
<polygon fill="#000000" stroke="#000000" points="254.8792,-46.6161 252.024,-36.4133 247.8935,-46.1697 254.8792,-46.6161"/>
<g id="a_edge14&#45;headlabel"><a xlink:href="dir_000000_000028.xhtml" target="_top" xlink:title="18">
<text text-anchor="middle" x="257.4836" y="-47.8844" font-family="Helvetica,sans-Serif" font-size="10.00" fill="#000000">18</text>
</a>
</g>
</g>
<!-- dir_a8053b3d69cfefb2b2e6ec7bf9dd5c1a&#45;&gt;dir_214608ef36d61442cb2b0c1c4e9a7def -->
<g id="edge15" class="edge">
<title>dir_a8053b3d69cfefb2b2e6ec7bf9dd5c1a&#45;&gt;dir_214608ef36d61442cb2b0c1c4e9a7def</title>
<path fill="none" stroke="#000000" d="M351.8452,-145.8418C335.8249,-136.309 315.2681,-124.0769 297.4798,-113.4921"/>
<polygon fill="#000000" stroke="#000000" points="298.8522,-110.236 288.4687,-108.1301 295.2726,-116.2516 298.8522,-110.236"/>
<g id="a_edge15&#45;headlabel"><a xlink:href="dir_000112_000000.xhtml" target="_top" xlink:title="15">
<text text-anchor="middle" x="303.3931" y="-107.1341" font-family="Helvetica,sans-Serif" font-size="10.00" fill="#000000">15</text>
</a>
</g>
</g>
<!-- dir_a8053b3d69cfefb2b2e6ec7bf9dd5c1a&#45;&gt;dir_5815af820a9cc9481f1d0990a0d60286 -->
<g id="edge16" class="edge">
<title>dir_a8053b3d69cfefb2b2e6ec7bf9dd5c1a&#45;&gt;dir_5815af820a9cc9481f1d0990a0d60286</title>
<path fill="none" stroke="#000000" d="M373.9677,-143.8125C367.8997,-124.3863 356.1889,-93.496 338,-72 325.9888,-57.8049 309.3588,-45.7697 294.3712,-36.6891"/>
<polygon fill="#000000" stroke="#000000" points="295.7124,-33.4206 285.3074,-31.424 292.1963,-39.4735 295.7124,-33.4206"/>
<g id="a_edge16&#45;headlabel"><a xlink:href="dir_000112_000028.xhtml" target="_top" xlink:title="3">
<text text-anchor="middle" x="300.2468" y="-30.271" font-family="Helvetica,sans-Serif" font-size="10.00" fill="#000000">3</text>
</a>
</g>
</g>
<!-- dir_1d7cadfed01c895b25460177608d44e9&#45;&gt;dir_707aa52d67938117542c6646238d6f70 -->
<g id="edge17" class="edge">
<title>dir_1d7cadfed01c895b25460177608d44e9&#45;&gt;dir_707aa52d67938117542c6646238d6f70</title>
<path fill="none" stroke="#000000" d="M184.589,-215.8314C188.8317,-207.7925 193.9121,-198.1666 198.596,-189.2918"/>
<polygon fill="#000000" stroke="#000000" points="201.7096,-190.8908 203.2819,-180.4133 195.5189,-187.6235 201.7096,-190.8908"/>
<g id="a_edge17&#45;headlabel"><a xlink:href="dir_000045_000030.xhtml" target="_top" xlink:title="10">
<text text-anchor="middle" x="202.5428" y="-192.895" font-family="Helvetica,sans-Serif" font-size="10.00" fill="#000000">10</text>
</a>
</g>
</g>
<!-- dir_1d7cadfed01c895b25460177608d44e9&#45;&gt;dir_214608ef36d61442cb2b0c1c4e9a7def -->
<g id="edge18" class="edge">
<title>dir_1d7cadfed01c895b25460177608d44e9&#45;&gt;dir_214608ef36d61442cb2b0c1c4e9a7def</title>
<path fill="none" stroke="#000000" d="M170.7424,-215.8362C167.2747,-196.708 164.7306,-166.3258 177,-144 184.6789,-130.0273 197.6976,-119.0196 211.0779,-110.6893"/>
<polygon fill="#000000" stroke="#000000" points="212.9709,-113.6376 219.8705,-105.5973 209.4628,-107.5801 212.9709,-113.6376"/>
<g id="a_edge18&#45;headlabel"><a xlink:href="dir_000045_000000.xhtml" target="_top" xlink:title="35">
<text text-anchor="middle" x="211.2831" y="-115.396" font-family="Helvetica,sans-Serif" font-size="10.00" fill="#000000">35</text>
</a>
</g>
</g>
<!-- dir_5815af820a9cc9481f1d0990a0d60286&#45;&gt;dir_214608ef36d61442cb2b0c1c4e9a7def -->
<g id="edge19" class="edge">
<title>dir_5815af820a9cc9481f1d0990a0d60286&#45;&gt;dir_214608ef36d61442cb2b0c1c4e9a7def</title>
<path fill="none" stroke="#000000" d="M263.976,-36.4133C264.7071,-44.0593 264.9203,-53.1084 264.6155,-61.5726"/>
<polygon fill="#000000" stroke="#000000" points="261.1048,-61.6264 263.9524,-71.8314 268.0902,-62.078 261.1048,-61.6264"/>
<g id="a_edge19&#45;headlabel"><a xlink:href="dir_000028_000000.xhtml" target="_top" xlink:title="6">
<text text-anchor="middle" x="258.5032" y="-55.3562" font-family="Helvetica,sans-Serif" font-size="10.00" fill="#000000">6</text>
</a>
</g>
</g>
</g>
</svg>
