<?xml version="1.0" encoding="UTF-8" standalone="no"?>
<!DOCTYPE svg PUBLIC "-//W3C//DTD SVG 1.1//EN"
 "http://www.w3.org/Graphics/SVG/1.1/DTD/svg11.dtd">
<!-- Generated by graphviz version 2.40.1 (20161225.0304)
 -->
<!-- Title: src/core/NEON/kernels/arm_conv Pages: 1 -->
<svg width="219pt" height="159pt"
 viewBox="0.00 0.00 219.00 159.00" xmlns="http://www.w3.org/2000/svg" xmlns:xlink="http://www.w3.org/1999/xlink">
<g id="graph0" class="graph" transform="scale(1 1) rotate(0) translate(4 155)">
<title>src/core/NEON/kernels/arm_conv</title>
<polygon fill="#ffffff" stroke="transparent" points="-4,4 -4,-155 215,-155 215,4 -4,4"/>
<g id="clust1" class="cluster">
<title>clusterdir_1ce938f580a6f304b99685e2c1dd19db</title>
<g id="a_clust1"><a xlink:href="dir_1ce938f580a6f304b99685e2c1dd19db.xhtml" target="_top" xlink:title="kernels">
<polygon fill="#ddddee" stroke="#000000" points="39,-56 39,-143 203,-143 203,-56 39,-56"/>
<text text-anchor="middle" x="121" y="-131" font-family="Helvetica,sans-Serif" font-size="10.00" fill="#000000">kernels</text>
</a>
</g>
</g>
<g id="clust2" class="cluster">
<title>clusterdir_ea98ae4f30fbc97db6231c6535bdb2d9</title>
<g id="a_clust2"><a xlink:href="dir_ea98ae4f30fbc97db6231c6535bdb2d9.xhtml" target="_top">
<polygon fill="#eeeeff" stroke="#000000" points="47,-64 47,-116 195,-116 195,-64 47,-64"/>
</a>
</g>
</g>
<!-- dir_ea98ae4f30fbc97db6231c6535bdb2d9 -->
<g id="node1" class="node">
<title>dir_ea98ae4f30fbc97db6231c6535bdb2d9</title>
<text text-anchor="middle" x="157" y="-87.5" font-family="Helvetica,sans-Serif" font-size="10.00" fill="#000000">arm_conv</text>
</g>
<!-- dir_0478b45d7abe353b326d807ccde1ebbc -->
<g id="node2" class="node">
<title>dir_0478b45d7abe353b326d807ccde1ebbc</title>
<g id="a_node2"><a xlink:href="dir_0478b45d7abe353b326d807ccde1ebbc.xhtml" target="_top" xlink:title="pooling">
<polygon fill="#ffffff" stroke="#ff0000" points="109,-108 55,-108 55,-72 109,-72 109,-108"/>
<text text-anchor="middle" x="82" y="-87.5" font-family="Helvetica,sans-Serif" font-size="10.00" fill="#000000">pooling</text>
</a>
</g>
</g>
<!-- dir_214608ef36d61442cb2b0c1c4e9a7def -->
<g id="node3" class="node">
<title>dir_214608ef36d61442cb2b0c1c4e9a7def</title>
<g id="a_node3"><a xlink:href="dir_214608ef36d61442cb2b0c1c4e9a7def.xhtml" target="_top" xlink:title="arm_compute">
<polygon fill="#ffffff" stroke="#ff0000" points="76,-36 0,-36 0,0 76,0 76,-36"/>
<text text-anchor="middle" x="38" y="-15.5" font-family="Helvetica,sans-Serif" font-size="10.00" fill="#000000">arm_compute</text>
</a>
</g>
</g>
<!-- dir_0478b45d7abe353b326d807ccde1ebbc&#45;&gt;dir_214608ef36d61442cb2b0c1c4e9a7def -->
<g id="edge1" class="edge">
<title>dir_0478b45d7abe353b326d807ccde1ebbc&#45;&gt;dir_214608ef36d61442cb2b0c1c4e9a7def</title>
<path fill="none" stroke="#000000" d="M70.8969,-71.8314C65.9326,-63.7079 59.9778,-53.9637 54.5072,-45.0118"/>
<polygon fill="#000000" stroke="#000000" points="57.4536,-43.121 49.2526,-36.4133 51.4806,-46.7712 57.4536,-43.121"/>
<g id="a_edge1&#45;headlabel"><a xlink:href="dir_000115_000000.xhtml" target="_top" xlink:title="1">
<text text-anchor="middle" x="61.7507" y="-42.2077" font-family="Helvetica,sans-Serif" font-size="10.00" fill="#000000">1</text>
</a>
</g>
</g>
<!-- dir_9847dd9cb7a28e46201717fa7336cf62 -->
<g id="node4" class="node">
<title>dir_9847dd9cb7a28e46201717fa7336cf62</title>
<g id="a_node4"><a xlink:href="dir_9847dd9cb7a28e46201717fa7336cf62.xhtml" target="_top" xlink:title="arm_gemm">
<polygon fill="#ffffff" stroke="#ff0000" points="159.5,-36 94.5,-36 94.5,0 159.5,0 159.5,-36"/>
<text text-anchor="middle" x="127" y="-15.5" font-family="Helvetica,sans-Serif" font-size="10.00" fill="#000000">arm_gemm</text>
</a>
</g>
</g>
<!-- dir_0478b45d7abe353b326d807ccde1ebbc&#45;&gt;dir_9847dd9cb7a28e46201717fa7336cf62 -->
<g id="edge2" class="edge">
<title>dir_0478b45d7abe353b326d807ccde1ebbc&#45;&gt;dir_9847dd9cb7a28e46201717fa7336cf62</title>
<path fill="none" stroke="#000000" d="M93.3554,-71.8314C98.4326,-63.7079 104.5227,-53.9637 110.1176,-45.0118"/>
<polygon fill="#000000" stroke="#000000" points="113.1597,-46.7483 115.4917,-36.4133 107.2237,-43.0383 113.1597,-46.7483"/>
<g id="a_edge2&#45;headlabel"><a xlink:href="dir_000115_000154.xhtml" target="_top" xlink:title="3">
<text text-anchor="middle" x="113.6623" y="-48.8013" font-family="Helvetica,sans-Serif" font-size="10.00" fill="#000000">3</text>
</a>
</g>
</g>
</g>
</svg>
