<?xml version="1.0" encoding="UTF-8" standalone="no"?>
<!DOCTYPE svg PUBLIC "-//W3C//DTD SVG 1.1//EN"
 "http://www.w3.org/Graphics/SVG/1.1/DTD/svg11.dtd">
<!-- Generated by graphviz version 2.40.1 (20161225.0304)
 -->
<!-- Title: src/core/CL/gemm/reshaped Pages: 1 -->
<svg width="96pt" height="151pt"
 viewBox="0.00 0.00 96.00 151.00" xmlns="http://www.w3.org/2000/svg" xmlns:xlink="http://www.w3.org/1999/xlink">
<g id="graph0" class="graph" transform="scale(1 1) rotate(0) translate(4 147)">
<title>src/core/CL/gemm/reshaped</title>
<polygon fill="#ffffff" stroke="transparent" points="-4,4 -4,-147 92,-147 92,4 -4,4"/>
<g id="clust1" class="cluster">
<title>clusterdir_acedbc3c1c025eedca19641ef7b62820</title>
<g id="a_clust1"><a xlink:href="dir_acedbc3c1c025eedca19641ef7b62820.xhtml" target="_top" xlink:title="gemm">
<polygon fill="#ddddee" stroke="#000000" points="8,-64 8,-135 80,-135 80,-64 8,-64"/>
<text text-anchor="middle" x="44" y="-123" font-family="Helvetica,sans-Serif" font-size="10.00" fill="#000000">gemm</text>
</a>
</g>
</g>
<!-- dir_e50a6baa24878773b1097a906405814a -->
<g id="node1" class="node">
<title>dir_e50a6baa24878773b1097a906405814a</title>
<g id="a_node1"><a xlink:href="dir_e50a6baa24878773b1097a906405814a.xhtml" target="_top" xlink:title="reshaped">
<polygon fill="#eeeeff" stroke="#000000" points="72,-108 16,-108 16,-72 72,-72 72,-108"/>
<text text-anchor="middle" x="44" y="-87.5" font-family="Helvetica,sans-Serif" font-size="10.00" fill="#000000">reshaped</text>
</a>
</g>
</g>
<!-- dir_214608ef36d61442cb2b0c1c4e9a7def -->
<g id="node2" class="node">
<title>dir_214608ef36d61442cb2b0c1c4e9a7def</title>
<g id="a_node2"><a xlink:href="dir_214608ef36d61442cb2b0c1c4e9a7def.xhtml" target="_top" xlink:title="arm_compute">
<polygon fill="#ffffff" stroke="#ff0000" points="82,-36 6,-36 6,0 82,0 82,-36"/>
<text text-anchor="middle" x="44" y="-15.5" font-family="Helvetica,sans-Serif" font-size="10.00" fill="#000000">arm_compute</text>
</a>
</g>
</g>
<!-- dir_e50a6baa24878773b1097a906405814a&#45;&gt;dir_214608ef36d61442cb2b0c1c4e9a7def -->
<g id="edge1" class="edge">
<title>dir_e50a6baa24878773b1097a906405814a&#45;&gt;dir_214608ef36d61442cb2b0c1c4e9a7def</title>
<path fill="none" stroke="#000000" d="M44,-71.8314C44,-64.131 44,-54.9743 44,-46.4166"/>
<polygon fill="#000000" stroke="#000000" points="47.5001,-46.4132 44,-36.4133 40.5001,-46.4133 47.5001,-46.4132"/>
<g id="a_edge1&#45;headlabel"><a xlink:href="dir_000072_000000.xhtml" target="_top" xlink:title="9">
<text text-anchor="middle" x="50.3393" y="-47.5079" font-family="Helvetica,sans-Serif" font-size="10.00" fill="#000000">9</text>
</a>
</g>
</g>
</g>
</svg>
