<?xml version="1.0" encoding="UTF-8" standalone="no"?>
<!DOCTYPE svg PUBLIC "-//W3C//DTD SVG 1.1//EN"
 "http://www.w3.org/Graphics/SVG/1.1/DTD/svg11.dtd">
<!-- Generated by graphviz version 2.40.1 (20161225.0304)
 -->
<!-- Title: src/core/utils Pages: 1 -->
<svg width="486pt" height="231pt"
 viewBox="0.00 0.00 486.00 231.00" xmlns="http://www.w3.org/2000/svg" xmlns:xlink="http://www.w3.org/1999/xlink">
<g id="graph0" class="graph" transform="scale(1 1) rotate(0) translate(4 227)">
<title>src/core/utils</title>
<polygon fill="#ffffff" stroke="transparent" points="-4,4 -4,-227 482,-227 482,4 -4,4"/>
<g id="clust1" class="cluster">
<title>clusterdir_aebb8dcc11953d78e620bbef0b9e2183</title>
<g id="a_clust1"><a xlink:href="dir_aebb8dcc11953d78e620bbef0b9e2183.xhtml" target="_top" xlink:title="core">
<polygon fill="#ddddee" stroke="#000000" points="8,-128 8,-215 470,-215 470,-128 8,-128"/>
<text text-anchor="middle" x="239" y="-203" font-family="Helvetica,sans-Serif" font-size="10.00" fill="#000000">core</text>
</a>
</g>
</g>
<g id="clust2" class="cluster">
<title>clusterdir_a8053b3d69cfefb2b2e6ec7bf9dd5c1a</title>
<g id="a_clust2"><a xlink:href="dir_a8053b3d69cfefb2b2e6ec7bf9dd5c1a.xhtml" target="_top">
<polygon fill="#eeeeff" stroke="#000000" points="16,-136 16,-188 462,-188 462,-136 16,-136"/>
</a>
</g>
</g>
<!-- dir_a8053b3d69cfefb2b2e6ec7bf9dd5c1a -->
<g id="node1" class="node">
<title>dir_a8053b3d69cfefb2b2e6ec7bf9dd5c1a</title>
<text text-anchor="middle" x="427" y="-159.5" font-family="Helvetica,sans-Serif" font-size="10.00" fill="#000000">utils</text>
</g>
<!-- dir_3ce11c95fd532b87aa3e6777b412b94b -->
<g id="node2" class="node">
<title>dir_3ce11c95fd532b87aa3e6777b412b94b</title>
<g id="a_node2"><a xlink:href="dir_3ce11c95fd532b87aa3e6777b412b94b.xhtml" target="_top" xlink:title="helpers">
<polygon fill="#ffffff" stroke="#000000" points="78,-180 24,-180 24,-144 78,-144 78,-180"/>
<text text-anchor="middle" x="51" y="-159.5" font-family="Helvetica,sans-Serif" font-size="10.00" fill="#000000">helpers</text>
</a>
</g>
</g>
<!-- dir_214608ef36d61442cb2b0c1c4e9a7def -->
<g id="node7" class="node">
<title>dir_214608ef36d61442cb2b0c1c4e9a7def</title>
<g id="a_node7"><a xlink:href="dir_214608ef36d61442cb2b0c1c4e9a7def.xhtml" target="_top" xlink:title="arm_compute">
<polygon fill="#ffffff" stroke="#ff0000" points="234,-108 158,-108 158,-72 234,-72 234,-108"/>
<text text-anchor="middle" x="196" y="-87.5" font-family="Helvetica,sans-Serif" font-size="10.00" fill="#000000">arm_compute</text>
</a>
</g>
</g>
<!-- dir_3ce11c95fd532b87aa3e6777b412b94b&#45;&gt;dir_214608ef36d61442cb2b0c1c4e9a7def -->
<g id="edge1" class="edge">
<title>dir_3ce11c95fd532b87aa3e6777b412b94b&#45;&gt;dir_214608ef36d61442cb2b0c1c4e9a7def</title>
<path fill="none" stroke="#000000" d="M67.3448,-143.7811C73.122,-138.1394 79.9476,-132.2865 87,-128 105.7523,-116.6022 128.4049,-108.0025 148.1903,-101.8925"/>
<polygon fill="#000000" stroke="#000000" points="149.3445,-105.2011 157.9404,-99.0074 147.3583,-98.4888 149.3445,-105.2011"/>
<g id="a_edge1&#45;headlabel"><a xlink:href="dir_000214_000000.xhtml" target="_top" xlink:title="2">
<text text-anchor="middle" x="146.7033" y="-106.4435" font-family="Helvetica,sans-Serif" font-size="10.00" fill="#000000">2</text>
</a>
</g>
</g>
<!-- dir_5815af820a9cc9481f1d0990a0d60286 -->
<g id="node8" class="node">
<title>dir_5815af820a9cc9481f1d0990a0d60286</title>
<g id="a_node8"><a xlink:href="dir_5815af820a9cc9481f1d0990a0d60286.xhtml" target="_top" xlink:title="support">
<polygon fill="none" stroke="#000000" points="223,-36 169,-36 169,0 223,0 223,-36"/>
<text text-anchor="middle" x="196" y="-15.5" font-family="Helvetica,sans-Serif" font-size="10.00" fill="#000000">support</text>
</a>
</g>
</g>
<!-- dir_3ce11c95fd532b87aa3e6777b412b94b&#45;&gt;dir_5815af820a9cc9481f1d0990a0d60286 -->
<g id="edge2" class="edge">
<title>dir_3ce11c95fd532b87aa3e6777b412b94b&#45;&gt;dir_5815af820a9cc9481f1d0990a0d60286</title>
<path fill="none" stroke="#000000" d="M69.3644,-143.7623C94.9678,-118.3354 141.4989,-72.1253 170.467,-43.3569"/>
<polygon fill="#000000" stroke="#000000" points="173.1555,-45.6196 177.7848,-36.0896 168.2229,-40.6528 173.1555,-45.6196"/>
<g id="a_edge2&#45;headlabel"><a xlink:href="dir_000214_000028.xhtml" target="_top" xlink:title="1">
<text text-anchor="middle" x="172.6057" y="-47.6672" font-family="Helvetica,sans-Serif" font-size="10.00" fill="#000000">1</text>
</a>
</g>
</g>
<!-- dir_6915c5d185ea48a4b1716c1cd2b4d90a -->
<g id="node3" class="node">
<title>dir_6915c5d185ea48a4b1716c1cd2b4d90a</title>
<g id="a_node3"><a xlink:href="dir_6915c5d185ea48a4b1716c1cd2b4d90a.xhtml" target="_top" xlink:title="io">
<polygon fill="#ffffff" stroke="#000000" points="222,-180 168,-180 168,-144 222,-144 222,-180"/>
<text text-anchor="middle" x="195" y="-159.5" font-family="Helvetica,sans-Serif" font-size="10.00" fill="#000000">io</text>
</a>
</g>
</g>
<!-- dir_6915c5d185ea48a4b1716c1cd2b4d90a&#45;&gt;dir_214608ef36d61442cb2b0c1c4e9a7def -->
<g id="edge7" class="edge">
<title>dir_6915c5d185ea48a4b1716c1cd2b4d90a&#45;&gt;dir_214608ef36d61442cb2b0c1c4e9a7def</title>
<path fill="none" stroke="#000000" d="M195.2523,-143.8314C195.3593,-136.131 195.4865,-126.9743 195.6053,-118.4166"/>
<polygon fill="#000000" stroke="#000000" points="199.1049,-118.4609 195.7443,-108.4133 192.1056,-118.3637 199.1049,-118.4609"/>
<g id="a_edge7&#45;headlabel"><a xlink:href="dir_000217_000000.xhtml" target="_top" xlink:title="2">
<text text-anchor="middle" x="201.8941" y="-119.5946" font-family="Helvetica,sans-Serif" font-size="10.00" fill="#000000">2</text>
</a>
</g>
</g>
<!-- dir_dbfe0e4196f53fa51766229f36f19f00 -->
<g id="node4" class="node">
<title>dir_dbfe0e4196f53fa51766229f36f19f00</title>
<g id="a_node4"><a xlink:href="dir_dbfe0e4196f53fa51766229f36f19f00.xhtml" target="_top" xlink:title="logging">
<polygon fill="#ffffff" stroke="#000000" points="294,-180 240,-180 240,-144 294,-144 294,-180"/>
<text text-anchor="middle" x="267" y="-159.5" font-family="Helvetica,sans-Serif" font-size="10.00" fill="#000000">logging</text>
</a>
</g>
</g>
<!-- dir_dbfe0e4196f53fa51766229f36f19f00&#45;&gt;dir_214608ef36d61442cb2b0c1c4e9a7def -->
<g id="edge3" class="edge">
<title>dir_dbfe0e4196f53fa51766229f36f19f00&#45;&gt;dir_214608ef36d61442cb2b0c1c4e9a7def</title>
<path fill="none" stroke="#000000" d="M249.0837,-143.8314C240.6558,-135.2848 230.459,-124.9443 221.264,-115.6198"/>
<polygon fill="#000000" stroke="#000000" points="223.6711,-113.0761 214.1575,-108.4133 218.6869,-117.9912 223.6711,-113.0761"/>
<g id="a_edge3&#45;headlabel"><a xlink:href="dir_000113_000000.xhtml" target="_top" xlink:title="6">
<text text-anchor="middle" x="228.2167" y="-111.142" font-family="Helvetica,sans-Serif" font-size="10.00" fill="#000000">6</text>
</a>
</g>
</g>
<!-- dir_dbfe0e4196f53fa51766229f36f19f00&#45;&gt;dir_5815af820a9cc9481f1d0990a0d60286 -->
<g id="edge4" class="edge">
<title>dir_dbfe0e4196f53fa51766229f36f19f00&#45;&gt;dir_5815af820a9cc9481f1d0990a0d60286</title>
<path fill="none" stroke="#000000" d="M264.6407,-143.8653C261.6378,-125.0298 255.2921,-95.1342 243,-72 237.6968,-62.0191 230.2306,-52.3152 222.8072,-43.9509"/>
<polygon fill="#000000" stroke="#000000" points="225.1441,-41.3237 215.7751,-36.3766 220.0141,-46.0865 225.1441,-41.3237"/>
<g id="a_edge4&#45;headlabel"><a xlink:href="dir_000113_000028.xhtml" target="_top" xlink:title="1">
<text text-anchor="middle" x="229.6705" y="-39.5262" font-family="Helvetica,sans-Serif" font-size="10.00" fill="#000000">1</text>
</a>
</g>
</g>
<!-- dir_683639b01107be110e7081378aa84a8b -->
<g id="node5" class="node">
<title>dir_683639b01107be110e7081378aa84a8b</title>
<g id="a_node5"><a xlink:href="dir_683639b01107be110e7081378aa84a8b.xhtml" target="_top" xlink:title="misc">
<polygon fill="#ffffff" stroke="#000000" points="150,-180 96,-180 96,-144 150,-144 150,-180"/>
<text text-anchor="middle" x="123" y="-159.5" font-family="Helvetica,sans-Serif" font-size="10.00" fill="#000000">misc</text>
</a>
</g>
</g>
<!-- dir_683639b01107be110e7081378aa84a8b&#45;&gt;dir_214608ef36d61442cb2b0c1c4e9a7def -->
<g id="edge6" class="edge">
<title>dir_683639b01107be110e7081378aa84a8b&#45;&gt;dir_214608ef36d61442cb2b0c1c4e9a7def</title>
<path fill="none" stroke="#000000" d="M141.421,-143.8314C150.1529,-135.219 160.7317,-124.7851 170.2423,-115.4048"/>
<polygon fill="#000000" stroke="#000000" points="172.923,-117.6769 177.5849,-108.1628 168.0075,-112.6931 172.923,-117.6769"/>
<g id="a_edge6&#45;headlabel"><a xlink:href="dir_000218_000000.xhtml" target="_top" xlink:title="1">
<text text-anchor="middle" x="172.3575" y="-119.7225" font-family="Helvetica,sans-Serif" font-size="10.00" fill="#000000">1</text>
</a>
</g>
</g>
<!-- dir_dfd177d17fe198b2123c626051c4d924 -->
<g id="node6" class="node">
<title>dir_dfd177d17fe198b2123c626051c4d924</title>
<g id="a_node6"><a xlink:href="dir_dfd177d17fe198b2123c626051c4d924.xhtml" target="_top" xlink:title="quantization">
<polygon fill="#ffffff" stroke="#000000" points="381.5,-180 312.5,-180 312.5,-144 381.5,-144 381.5,-180"/>
<text text-anchor="middle" x="347" y="-159.5" font-family="Helvetica,sans-Serif" font-size="10.00" fill="#000000">quantization</text>
</a>
</g>
</g>
<!-- dir_dfd177d17fe198b2123c626051c4d924&#45;&gt;dir_214608ef36d61442cb2b0c1c4e9a7def -->
<g id="edge9" class="edge">
<title>dir_dfd177d17fe198b2123c626051c4d924&#45;&gt;dir_214608ef36d61442cb2b0c1c4e9a7def</title>
<path fill="none" stroke="#000000" d="M326.4551,-143.9605C319.3563,-138.3308 311.135,-132.4396 303,-128 284.5071,-117.9077 262.8068,-109.6192 243.8,-103.3873"/>
<polygon fill="#000000" stroke="#000000" points="244.7278,-100.0098 234.1374,-100.3173 242.6081,-106.6811 244.7278,-100.0098"/>
<g id="a_edge9&#45;headlabel"><a xlink:href="dir_000219_000000.xhtml" target="_top" xlink:title="2">
<text text-anchor="middle" x="249.0134" y="-95.8922" font-family="Helvetica,sans-Serif" font-size="10.00" fill="#000000">2</text>
</a>
</g>
</g>
<!-- dir_dfd177d17fe198b2123c626051c4d924&#45;&gt;dir_5815af820a9cc9481f1d0990a0d60286 -->
<g id="edge10" class="edge">
<title>dir_dfd177d17fe198b2123c626051c4d924&#45;&gt;dir_5815af820a9cc9481f1d0990a0d60286</title>
<path fill="none" stroke="#000000" d="M331.2927,-143.6979C314.9261,-124.9892 288.1987,-95.4336 263,-72 252.0838,-61.8485 239.4985,-51.4067 228.2037,-42.4432"/>
<polygon fill="#000000" stroke="#000000" points="230.2777,-39.6218 220.2496,-36.203 225.9569,-45.1292 230.2777,-39.6218"/>
<g id="a_edge10&#45;headlabel"><a xlink:href="dir_000219_000028.xhtml" target="_top" xlink:title="1">
<text text-anchor="middle" x="234.8584" y="-37.1067" font-family="Helvetica,sans-Serif" font-size="10.00" fill="#000000">1</text>
</a>
</g>
</g>
<!-- dir_214608ef36d61442cb2b0c1c4e9a7def&#45;&gt;dir_5815af820a9cc9481f1d0990a0d60286 -->
<g id="edge5" class="edge">
<title>dir_214608ef36d61442cb2b0c1c4e9a7def&#45;&gt;dir_5815af820a9cc9481f1d0990a0d60286</title>
<path fill="none" stroke="#000000" d="M190.0476,-71.8314C189.2972,-64.131 189.0763,-54.9743 189.3849,-46.4166"/>
<polygon fill="#000000" stroke="#000000" points="192.8792,-46.6161 190.024,-36.4133 185.8935,-46.1697 192.8792,-46.6161"/>
<g id="a_edge5&#45;headlabel"><a xlink:href="dir_000000_000028.xhtml" target="_top" xlink:title="18">
<text text-anchor="middle" x="195.4836" y="-47.8844" font-family="Helvetica,sans-Serif" font-size="10.00" fill="#000000">18</text>
</a>
</g>
</g>
<!-- dir_5815af820a9cc9481f1d0990a0d60286&#45;&gt;dir_214608ef36d61442cb2b0c1c4e9a7def -->
<g id="edge8" class="edge">
<title>dir_5815af820a9cc9481f1d0990a0d60286&#45;&gt;dir_214608ef36d61442cb2b0c1c4e9a7def</title>
<path fill="none" stroke="#000000" d="M201.976,-36.4133C202.7071,-44.0593 202.9203,-53.1084 202.6155,-61.5726"/>
<polygon fill="#000000" stroke="#000000" points="199.1048,-61.6264 201.9524,-71.8314 206.0902,-62.078 199.1048,-61.6264"/>
<g id="a_edge8&#45;headlabel"><a xlink:href="dir_000028_000000.xhtml" target="_top" xlink:title="6">
<text text-anchor="middle" x="196.5032" y="-55.3562" font-family="Helvetica,sans-Serif" font-size="10.00" fill="#000000">6</text>
</a>
</g>
</g>
</g>
</svg>
