<?xml version="1.0" encoding="UTF-8" standalone="no"?>
<!DOCTYPE svg PUBLIC "-//W3C//DTD SVG 1.1//EN"
 "http://www.w3.org/Graphics/SVG/1.1/DTD/svg11.dtd">
<!-- Generated by graphviz version 2.40.1 (20161225.0304)
 -->
<!-- Title: Graphical Class Hierarchy Pages: 1 -->
<svg width="212pt" height="66pt"
 viewBox="0.00 0.00 212.00 66.00" xmlns="http://www.w3.org/2000/svg" xmlns:xlink="http://www.w3.org/1999/xlink">
<g id="graph0" class="graph" transform="scale(1 1) rotate(0) translate(4 62)">
<title>Graphical Class Hierarchy</title>
<polygon fill="#ffffff" stroke="transparent" points="-4,4 -4,-62 208,-62 208,4 -4,4"/>
<!-- Node0 -->
<g id="node1" class="node">
<title>Node0</title>
<g id="a_node1"><a xlink:href="classarm__compute_1_1_dimensions.xhtml" target="_top" xlink:title="Dimensions\&lt; uint32_t \&gt;">
<polygon fill="#ffffff" stroke="#000000" points="0,-19.5 0,-38.5 121,-38.5 121,-19.5 0,-19.5"/>
<text text-anchor="middle" x="60.5" y="-26.5" font-family="Helvetica,sans-Serif" font-size="10.00" fill="#000000">Dimensions&lt; uint32_t &gt;</text>
</a>
</g>
</g>
<!-- Node1 -->
<g id="node2" class="node">
<title>Node1</title>
<g id="a_node2"><a xlink:href="classarm__compute_1_1_steps.xhtml" target="_top" xlink:title="Class to describe a number of elements in each dimension. ">
<polygon fill="#ffffff" stroke="#000000" points="159.5,-38.5 159.5,-57.5 201.5,-57.5 201.5,-38.5 159.5,-38.5"/>
<text text-anchor="middle" x="180.5" y="-45.5" font-family="Helvetica,sans-Serif" font-size="10.00" fill="#000000">Steps</text>
</a>
</g>
</g>
<!-- Node0&#45;&gt;Node1 -->
<g id="edge1" class="edge">
<title>Node0&#45;&gt;Node1</title>
<path fill="none" stroke="#191970" d="M130.8972,-40.1462C141.2821,-41.7905 151.2384,-43.3669 159.4699,-44.6702"/>
<polygon fill="#191970" stroke="#191970" points="131.2759,-36.6627 120.8516,-38.5557 130.1811,-43.5765 131.2759,-36.6627"/>
</g>
<!-- Node2 -->
<g id="node3" class="node">
<title>Node2</title>
<g id="a_node3"><a xlink:href="classarm__compute_1_1_strides.xhtml" target="_top" xlink:title="Strides of an item in bytes. ">
<polygon fill="#ffffff" stroke="#000000" points="157,-.5 157,-19.5 204,-19.5 204,-.5 157,-.5"/>
<text text-anchor="middle" x="180.5" y="-7.5" font-family="Helvetica,sans-Serif" font-size="10.00" fill="#000000">Strides</text>
</a>
</g>
</g>
<!-- Node0&#45;&gt;Node2 -->
<g id="edge2" class="edge">
<title>Node0&#45;&gt;Node2</title>
<path fill="none" stroke="#191970" d="M130.738,-17.879C140.1435,-16.3898 149.2031,-14.9553 156.9552,-13.7279"/>
<polygon fill="#191970" stroke="#191970" points="130.1811,-14.4235 120.8516,-19.4443 131.2759,-21.3373 130.1811,-14.4235"/>
</g>
</g>
</svg>
