<?xml version="1.0" encoding="UTF-8" standalone="no"?>
<!DOCTYPE svg PUBLIC "-//W3C//DTD SVG 1.1//EN"
 "http://www.w3.org/Graphics/SVG/1.1/DTD/svg11.dtd">
<!-- Generated by graphviz version 2.40.1 (20161225.0304)
 -->
<!-- Title: Graphical Class Hierarchy Pages: 1 -->
<svg width="278pt" height="256pt"
 viewBox="0.00 0.00 278.00 256.00" xmlns="http://www.w3.org/2000/svg" xmlns:xlink="http://www.w3.org/1999/xlink">
<g id="graph0" class="graph" transform="scale(1 1) rotate(0) translate(4 252)">
<title>Graphical Class Hierarchy</title>
<polygon fill="#ffffff" stroke="transparent" points="-4,4 -4,-252 274,-252 274,4 -4,4"/>
<!-- Node0 -->
<g id="node1" class="node">
<title>Node0</title>
<g id="a_node1"><a xlink:href="classarm__compute_1_1graph_1_1_i_graph_mutator.xhtml" target="_top" xlink:title="Graph mutator interface. ">
<polygon fill="#ffffff" stroke="#000000" points="0,-114.5 0,-133.5 79,-133.5 79,-114.5 0,-114.5"/>
<text text-anchor="middle" x="39.5" y="-121.5" font-family="Helvetica,sans-Serif" font-size="10.00" fill="#000000">IGraphMutator</text>
</a>
</g>
</g>
<!-- Node1 -->
<g id="node2" class="node">
<title>Node1</title>
<g id="a_node2"><a xlink:href="classarm__compute_1_1graph_1_1_depth_concat_sub_tensor_mutator.xhtml" target="_top" xlink:title="Mutation pass to optimize depth concatenation operations by using sub&#45;tensors. ">
<polygon fill="#ffffff" stroke="#000000" points="115,-228.5 115,-247.5 270,-247.5 270,-228.5 115,-228.5"/>
<text text-anchor="middle" x="192.5" y="-235.5" font-family="Helvetica,sans-Serif" font-size="10.00" fill="#000000">DepthConcatSubTensorMutator</text>
</a>
</g>
</g>
<!-- Node0&#45;&gt;Node1 -->
<g id="edge1" class="edge">
<title>Node0&#45;&gt;Node1</title>
<path fill="none" stroke="#191970" d="M49.1341,-142.4304C61.4542,-164.1381 84.8504,-199.6816 115,-219 121.0654,-222.8864 127.8644,-225.9779 134.8487,-228.4371"/>
<polygon fill="#191970" stroke="#191970" points="52.1391,-140.6307 44.2685,-133.5382 45.9983,-143.9909 52.1391,-140.6307"/>
</g>
<!-- Node2 -->
<g id="node3" class="node">
<title>Node2</title>
<g id="a_node3"><a xlink:href="classarm__compute_1_1graph_1_1_grouped_convolution_mutator.xhtml" target="_top" xlink:title="Mutation pass to implement/optimize grouped convolutions. ">
<polygon fill="#ffffff" stroke="#000000" points="123.5,-190.5 123.5,-209.5 261.5,-209.5 261.5,-190.5 123.5,-190.5"/>
<text text-anchor="middle" x="192.5" y="-197.5" font-family="Helvetica,sans-Serif" font-size="10.00" fill="#000000">GroupedConvolutionMutator</text>
</a>
</g>
</g>
<!-- Node0&#45;&gt;Node2 -->
<g id="edge2" class="edge">
<title>Node0&#45;&gt;Node2</title>
<path fill="none" stroke="#191970" d="M57.0095,-140.5333C71.499,-153.3534 93.1748,-170.6304 115,-181 123.0082,-184.8048 131.856,-187.8948 140.6232,-190.3894"/>
<polygon fill="#191970" stroke="#191970" points="59.1173,-137.7195 49.362,-133.586 54.4104,-142.9008 59.1173,-137.7195"/>
</g>
<!-- Node3 -->
<g id="node4" class="node">
<title>Node3</title>
<g id="a_node4"><a xlink:href="classarm__compute_1_1graph_1_1_in_place_operation_mutator.xhtml" target="_top" xlink:title="Mutation pass to optimize operations that can be performed in&#45;place. ">
<polygon fill="#ffffff" stroke="#000000" points="130,-152.5 130,-171.5 255,-171.5 255,-152.5 130,-152.5"/>
<text text-anchor="middle" x="192.5" y="-159.5" font-family="Helvetica,sans-Serif" font-size="10.00" fill="#000000">InPlaceOperationMutator</text>
</a>
</g>
</g>
<!-- Node0&#45;&gt;Node3 -->
<g id="edge3" class="edge">
<title>Node0&#45;&gt;Node3</title>
<path fill="none" stroke="#191970" d="M87.0008,-136.0009C96.2832,-138.3328 105.9447,-140.7506 115,-143 127.5036,-146.106 141.1505,-149.4627 153.4598,-152.4782"/>
<polygon fill="#191970" stroke="#191970" points="87.6756,-132.5617 77.1238,-133.5164 85.9679,-139.3502 87.6756,-132.5617"/>
</g>
<!-- Node4 -->
<g id="node5" class="node">
<title>Node4</title>
<g id="a_node5"><a xlink:href="classarm__compute_1_1graph_1_1_node_execution_method_mutator.xhtml" target="_top" xlink:title="Mutation pass to fall&#45;back to default execution method. ">
<polygon fill="#ffffff" stroke="#000000" points="118,-114.5 118,-133.5 267,-133.5 267,-114.5 118,-114.5"/>
<text text-anchor="middle" x="192.5" y="-121.5" font-family="Helvetica,sans-Serif" font-size="10.00" fill="#000000">NodeExecutionMethodMutator</text>
</a>
</g>
</g>
<!-- Node0&#45;&gt;Node4 -->
<g id="edge4" class="edge">
<title>Node0&#45;&gt;Node4</title>
<path fill="none" stroke="#191970" d="M89.3453,-124C98.4909,-124 108.2173,-124 117.9031,-124"/>
<polygon fill="#191970" stroke="#191970" points="89.2996,-120.5001 79.2995,-124 89.2995,-127.5001 89.2996,-120.5001"/>
</g>
<!-- Node5 -->
<g id="node6" class="node">
<title>Node5</title>
<g id="a_node6"><a xlink:href="classarm__compute_1_1graph_1_1_node_fusion_mutator.xhtml" target="_top" xlink:title="Mutation pass to fuss nodes. ">
<polygon fill="#ffffff" stroke="#000000" points="141.5,-76.5 141.5,-95.5 243.5,-95.5 243.5,-76.5 141.5,-76.5"/>
<text text-anchor="middle" x="192.5" y="-83.5" font-family="Helvetica,sans-Serif" font-size="10.00" fill="#000000">NodeFusionMutator</text>
</a>
</g>
</g>
<!-- Node0&#45;&gt;Node5 -->
<g id="edge5" class="edge">
<title>Node0&#45;&gt;Node5</title>
<path fill="none" stroke="#191970" d="M87.0008,-111.9991C96.2832,-109.6672 105.9447,-107.2494 115,-105 127.5036,-101.894 141.1505,-98.5373 153.4598,-95.5218"/>
<polygon fill="#191970" stroke="#191970" points="85.9679,-108.6498 77.1238,-114.4836 87.6756,-115.4383 85.9679,-108.6498"/>
</g>
<!-- Node6 -->
<g id="node7" class="node">
<title>Node6</title>
<g id="a_node7"><a xlink:href="classarm__compute_1_1graph_1_1_split_layer_sub_tensor_mutator.xhtml" target="_top" xlink:title="Mutation pass to optimize split operations by using sub&#45;tensors. ">
<polygon fill="#ffffff" stroke="#000000" points="122.5,-38.5 122.5,-57.5 262.5,-57.5 262.5,-38.5 122.5,-38.5"/>
<text text-anchor="middle" x="192.5" y="-45.5" font-family="Helvetica,sans-Serif" font-size="10.00" fill="#000000">SplitLayerSubTensorMutator</text>
</a>
</g>
</g>
<!-- Node0&#45;&gt;Node6 -->
<g id="edge6" class="edge">
<title>Node0&#45;&gt;Node6</title>
<path fill="none" stroke="#191970" d="M57.0095,-107.4667C71.499,-94.6466 93.1748,-77.3696 115,-67 123.0082,-63.1952 131.856,-60.1052 140.6232,-57.6106"/>
<polygon fill="#191970" stroke="#191970" points="54.4104,-105.0992 49.362,-114.414 59.1173,-110.2805 54.4104,-105.0992"/>
</g>
<!-- Node7 -->
<g id="node8" class="node">
<title>Node7</title>
<g id="a_node8"><a xlink:href="classarm__compute_1_1graph_1_1_synthetic_data_type_mutator.xhtml" target="_top" xlink:title="Mutation pass to create synthetic graphs of a given data type. ">
<polygon fill="#ffffff" stroke="#000000" points="125.5,-.5 125.5,-19.5 259.5,-19.5 259.5,-.5 125.5,-.5"/>
<text text-anchor="middle" x="192.5" y="-7.5" font-family="Helvetica,sans-Serif" font-size="10.00" fill="#000000">SyntheticDataTypeMutator</text>
</a>
</g>
</g>
<!-- Node0&#45;&gt;Node7 -->
<g id="edge7" class="edge">
<title>Node0&#45;&gt;Node7</title>
<path fill="none" stroke="#191970" d="M49.1341,-105.5696C61.4542,-83.8619 84.8504,-48.3184 115,-29 121.0654,-25.1136 127.8644,-22.0221 134.8487,-19.5629"/>
<polygon fill="#191970" stroke="#191970" points="45.9983,-104.0091 44.2685,-114.4618 52.1391,-107.3693 45.9983,-104.0091"/>
</g>
</g>
</svg>
