<?xml version="1.0" encoding="UTF-8" standalone="no"?>
<!DOCTYPE svg PUBLIC "-//W3C//DTD SVG 1.1//EN"
 "http://www.w3.org/Graphics/SVG/1.1/DTD/svg11.dtd">
<!-- Generated by graphviz version 2.40.1 (20161225.0304)
 -->
<!-- Title: Graphical Class Hierarchy Pages: 1 -->
<svg width="354pt" height="142pt"
 viewBox="0.00 0.00 354.00 142.00" xmlns="http://www.w3.org/2000/svg" xmlns:xlink="http://www.w3.org/1999/xlink">
<g id="graph0" class="graph" transform="scale(1 1) rotate(0) translate(4 138)">
<title>Graphical Class Hierarchy</title>
<polygon fill="#ffffff" stroke="transparent" points="-4,4 -4,-138 350,-138 350,4 -4,4"/>
<!-- Node0 -->
<g id="node1" class="node">
<title>Node0</title>
<g id="a_node1"><a xlink:href="classarm__compute_1_1_i_array.xhtml" target="_top" xlink:title="Array of type T. ">
<polygon fill="#ffffff" stroke="#000000" points="0,-57.5 0,-76.5 67,-76.5 67,-57.5 0,-57.5"/>
<text text-anchor="middle" x="33.5" y="-64.5" font-family="Helvetica,sans-Serif" font-size="10.00" fill="#000000">IArray&lt; T &gt;</text>
</a>
</g>
</g>
<!-- Node1 -->
<g id="node2" class="node">
<title>Node1</title>
<g id="a_node2"><a xlink:href="classarm__compute_1_1_array.xhtml" target="_top" xlink:title="Basic implementation of the IArray interface which allocates a static number of T values...">
<polygon fill="#ffffff" stroke="#000000" points="123.5,-114.5 123.5,-133.5 187.5,-133.5 187.5,-114.5 123.5,-114.5"/>
<text text-anchor="middle" x="155.5" y="-121.5" font-family="Helvetica,sans-Serif" font-size="10.00" fill="#000000">Array&lt; T &gt;</text>
</a>
</g>
</g>
<!-- Node0&#45;&gt;Node1 -->
<g id="edge1" class="edge">
<title>Node0&#45;&gt;Node1</title>
<path fill="none" stroke="#191970" d="M58.2799,-81.7547C71.3391,-89.2194 87.7688,-98.1286 103,-105 110.5103,-108.3881 118.8211,-111.621 126.5729,-114.4282"/>
<polygon fill="#191970" stroke="#191970" points="59.8385,-78.6127 49.4318,-76.6244 56.3272,-84.6684 59.8385,-78.6127"/>
</g>
<!-- Node2 -->
<g id="node3" class="node">
<title>Node2</title>
<g id="a_node3"><a xlink:href="classarm__compute_1_1_i_c_l_array.xhtml" target="_top" xlink:title="Interface for OpenCL Array. ">
<polygon fill="#ffffff" stroke="#000000" points="115.5,-76.5 115.5,-95.5 195.5,-95.5 195.5,-76.5 115.5,-76.5"/>
<text text-anchor="middle" x="155.5" y="-83.5" font-family="Helvetica,sans-Serif" font-size="10.00" fill="#000000">ICLArray&lt; T &gt;</text>
</a>
</g>
</g>
<!-- Node0&#45;&gt;Node2 -->
<g id="edge2" class="edge">
<title>Node0&#45;&gt;Node2</title>
<path fill="none" stroke="#191970" d="M77.3183,-73.8242C89.763,-75.7623 103.2464,-77.8621 115.455,-79.7635"/>
<polygon fill="#191970" stroke="#191970" points="77.5795,-70.3227 67.16,-72.2421 76.5023,-77.2394 77.5795,-70.3227"/>
</g>
<!-- Node4 -->
<g id="node5" class="node">
<title>Node4</title>
<g id="a_node5"><a xlink:href="classarm__compute_1_1_i_c_l_array.xhtml" target="_top" xlink:title="ICLArray\&lt; cl_float \&gt;">
<polygon fill="#ffffff" stroke="#000000" points="103,-38.5 103,-57.5 208,-57.5 208,-38.5 103,-38.5"/>
<text text-anchor="middle" x="155.5" y="-45.5" font-family="Helvetica,sans-Serif" font-size="10.00" fill="#000000">ICLArray&lt; cl_float &gt;</text>
</a>
</g>
</g>
<!-- Node0&#45;&gt;Node4 -->
<g id="edge4" class="edge">
<title>Node0&#45;&gt;Node4</title>
<path fill="none" stroke="#191970" d="M77.3043,-60.178C85.5454,-58.8946 94.2424,-57.5401 102.7235,-56.2193"/>
<polygon fill="#191970" stroke="#191970" points="76.5023,-56.7606 67.16,-61.7579 77.5795,-63.6773 76.5023,-56.7606"/>
</g>
<!-- Node6 -->
<g id="node7" class="node">
<title>Node6</title>
<g id="a_node7"><a xlink:href="classarm__compute_1_1_i_c_l_array.xhtml" target="_top" xlink:title="ICLArray\&lt; cl_int \&gt;">
<polygon fill="#ffffff" stroke="#000000" points="107,-.5 107,-19.5 204,-19.5 204,-.5 107,-.5"/>
<text text-anchor="middle" x="155.5" y="-7.5" font-family="Helvetica,sans-Serif" font-size="10.00" fill="#000000">ICLArray&lt; cl_int &gt;</text>
</a>
</g>
</g>
<!-- Node0&#45;&gt;Node6 -->
<g id="edge6" class="edge">
<title>Node0&#45;&gt;Node6</title>
<path fill="none" stroke="#191970" d="M58.2799,-52.2453C71.3391,-44.7806 87.7688,-35.8714 103,-29 110.5103,-25.6119 118.8211,-22.379 126.5729,-19.5718"/>
<polygon fill="#191970" stroke="#191970" points="56.3272,-49.3316 49.4318,-57.3756 59.8385,-55.3873 56.3272,-49.3316"/>
</g>
<!-- Node3 -->
<g id="node4" class="node">
<title>Node3</title>
<g id="a_node4"><a xlink:href="classarm__compute_1_1_c_l_array.xhtml" target="_top" xlink:title="CLArray implementation. ">
<polygon fill="#ffffff" stroke="#000000" points="256.5,-76.5 256.5,-95.5 333.5,-95.5 333.5,-76.5 256.5,-76.5"/>
<text text-anchor="middle" x="295" y="-83.5" font-family="Helvetica,sans-Serif" font-size="10.00" fill="#000000">CLArray&lt; T &gt;</text>
</a>
</g>
</g>
<!-- Node2&#45;&gt;Node3 -->
<g id="edge3" class="edge">
<title>Node2&#45;&gt;Node3</title>
<path fill="none" stroke="#191970" d="M205.9194,-86C222.4801,-86 240.6192,-86 256.182,-86"/>
<polygon fill="#191970" stroke="#191970" points="205.8492,-82.5001 195.8492,-86 205.8491,-89.5001 205.8492,-82.5001"/>
</g>
<!-- Node5 -->
<g id="node6" class="node">
<title>Node5</title>
<g id="a_node6"><a xlink:href="classarm__compute_1_1_c_l_array.xhtml" target="_top" xlink:title="CLArray\&lt; cl_float \&gt;">
<polygon fill="#ffffff" stroke="#000000" points="244,-38.5 244,-57.5 346,-57.5 346,-38.5 244,-38.5"/>
<text text-anchor="middle" x="295" y="-45.5" font-family="Helvetica,sans-Serif" font-size="10.00" fill="#000000">CLArray&lt; cl_float &gt;</text>
</a>
</g>
</g>
<!-- Node4&#45;&gt;Node5 -->
<g id="edge5" class="edge">
<title>Node4&#45;&gt;Node5</title>
<path fill="none" stroke="#191970" d="M218.4087,-48C226.828,-48 235.3816,-48 243.5723,-48"/>
<polygon fill="#191970" stroke="#191970" points="218.239,-44.5001 208.239,-48 218.2389,-51.5001 218.239,-44.5001"/>
</g>
<!-- Node7 -->
<g id="node8" class="node">
<title>Node7</title>
<g id="a_node8"><a xlink:href="classarm__compute_1_1_c_l_array.xhtml" target="_top" xlink:title="CLArray\&lt; cl_int \&gt;">
<polygon fill="#ffffff" stroke="#000000" points="248,-.5 248,-19.5 342,-19.5 342,-.5 248,-.5"/>
<text text-anchor="middle" x="295" y="-7.5" font-family="Helvetica,sans-Serif" font-size="10.00" fill="#000000">CLArray&lt; cl_int &gt;</text>
</a>
</g>
</g>
<!-- Node6&#45;&gt;Node7 -->
<g id="edge7" class="edge">
<title>Node6&#45;&gt;Node7</title>
<path fill="none" stroke="#191970" d="M214.4092,-10C225.581,-10 237.1331,-10 247.8811,-10"/>
<polygon fill="#191970" stroke="#191970" points="214.2904,-6.5001 204.2903,-10 214.2903,-13.5001 214.2904,-6.5001"/>
</g>
</g>
</svg>
