<?xml version="1.0" encoding="UTF-8" standalone="no"?>
<!DOCTYPE svg PUBLIC "-//W3C//DTD SVG 1.1//EN"
 "http://www.w3.org/Graphics/SVG/1.1/DTD/svg11.dtd">
<!-- Generated by graphviz version 2.40.1 (20161225.0304)
 -->
<!-- Title: Graphical Class Hierarchy Pages: 1 -->
<svg width="362pt" height="66pt"
 viewBox="0.00 0.00 362.00 66.00" xmlns="http://www.w3.org/2000/svg" xmlns:xlink="http://www.w3.org/1999/xlink">
<g id="graph0" class="graph" transform="scale(1 1) rotate(0) translate(4 62)">
<title>Graphical Class Hierarchy</title>
<polygon fill="#ffffff" stroke="transparent" points="-4,4 -4,-62 358,-62 358,4 -4,4"/>
<!-- Node0 -->
<g id="node1" class="node">
<title>Node0</title>
<g id="a_node1"><a xlink:href="classarm__compute_1_1_i_runtime_context.xhtml" target="_top" xlink:title="Context interface. ">
<polygon fill="#ffffff" stroke="#000000" points="0,-19.5 0,-38.5 91,-38.5 91,-19.5 0,-19.5"/>
<text text-anchor="middle" x="45.5" y="-26.5" font-family="Helvetica,sans-Serif" font-size="10.00" fill="#000000">IRuntimeContext</text>
</a>
</g>
</g>
<!-- Node1 -->
<g id="node2" class="node">
<title>Node1</title>
<g id="a_node2"><a xlink:href="classarm__compute_1_1_runtime_context.xhtml" target="_top" xlink:title="Runtime context. ">
<polygon fill="#ffffff" stroke="#000000" points="127,-19.5 127,-38.5 215,-38.5 215,-19.5 127,-19.5"/>
<text text-anchor="middle" x="171" y="-26.5" font-family="Helvetica,sans-Serif" font-size="10.00" fill="#000000">RuntimeContext</text>
</a>
</g>
</g>
<!-- Node0&#45;&gt;Node1 -->
<g id="edge1" class="edge">
<title>Node0&#45;&gt;Node1</title>
<path fill="none" stroke="#191970" d="M101.4222,-29C109.9366,-29 118.6208,-29 126.8375,-29"/>
<polygon fill="#191970" stroke="#191970" points="101.1634,-25.5001 91.1634,-29 101.1634,-32.5001 101.1634,-25.5001"/>
</g>
<!-- Node2 -->
<g id="node3" class="node">
<title>Node2</title>
<g id="a_node3"><a xlink:href="classarm__compute_1_1_c_l_runtime_context.xhtml" target="_top" xlink:title="Runtime context. ">
<polygon fill="#ffffff" stroke="#000000" points="252,-38.5 252,-57.5 353,-57.5 353,-38.5 252,-38.5"/>
<text text-anchor="middle" x="302.5" y="-45.5" font-family="Helvetica,sans-Serif" font-size="10.00" fill="#000000">CLRuntimeContext</text>
</a>
</g>
</g>
<!-- Node1&#45;&gt;Node2 -->
<g id="edge2" class="edge">
<title>Node1&#45;&gt;Node2</title>
<path fill="none" stroke="#191970" d="M225.3083,-36.8468C234.1025,-38.1175 243.1785,-39.4288 251.8806,-40.6862"/>
<polygon fill="#191970" stroke="#191970" points="225.5512,-33.3457 215.1534,-35.3796 224.5501,-40.2737 225.5512,-33.3457"/>
</g>
<!-- Node3 -->
<g id="node4" class="node">
<title>Node3</title>
<g id="a_node4"><a xlink:href="classarm__compute_1_1_g_c_runtime_context.xhtml" target="_top" xlink:title="Runtime context. ">
<polygon fill="#ffffff" stroke="#000000" points="251,-.5 251,-19.5 354,-19.5 354,-.5 251,-.5"/>
<text text-anchor="middle" x="302.5" y="-7.5" font-family="Helvetica,sans-Serif" font-size="10.00" fill="#000000">GCRuntimeContext</text>
</a>
</g>
</g>
<!-- Node1&#45;&gt;Node3 -->
<g id="edge3" class="edge">
<title>Node1&#45;&gt;Node3</title>
<path fill="none" stroke="#191970" d="M225.3265,-21.1505C233.8052,-19.9255 242.5455,-18.6626 250.9597,-17.4469"/>
<polygon fill="#191970" stroke="#191970" points="224.5501,-17.7263 215.1534,-22.6204 225.5512,-24.6543 224.5501,-17.7263"/>
</g>
</g>
</svg>
