<?xml version="1.0" encoding="UTF-8" standalone="no"?>
<!DOCTYPE svg PUBLIC "-//W3C//DTD SVG 1.1//EN"
 "http://www.w3.org/Graphics/SVG/1.1/DTD/svg11.dtd">
<!-- Generated by graphviz version 2.40.1 (20161225.0304)
 -->
<!-- Title: Graphical Class Hierarchy Pages: 1 -->
<svg width="323pt" height="104pt"
 viewBox="0.00 0.00 323.00 104.00" xmlns="http://www.w3.org/2000/svg" xmlns:xlink="http://www.w3.org/1999/xlink">
<g id="graph0" class="graph" transform="scale(1 1) rotate(0) translate(4 100)">
<title>Graphical Class Hierarchy</title>
<polygon fill="#ffffff" stroke="transparent" points="-4,4 -4,-100 319,-100 319,4 -4,4"/>
<!-- Node0 -->
<g id="node1" class="node">
<title>Node0</title>
<g id="a_node1"><a xlink:href="classarm__compute_1_1cl__gemm_1_1_i_c_l_g_e_m_m_kernel_selection.xhtml" target="_top" xlink:title="Basic interface for the GEMM kernel selection. ">
<polygon fill="#ffffff" stroke="#000000" points="0,-38.5 0,-57.5 131,-57.5 131,-38.5 0,-38.5"/>
<text text-anchor="middle" x="65.5" y="-45.5" font-family="Helvetica,sans-Serif" font-size="10.00" fill="#000000">ICLGEMMKernelSelection</text>
</a>
</g>
</g>
<!-- Node1 -->
<g id="node2" class="node">
<title>Node1</title>
<g id="a_node2"><a xlink:href="classarm__compute_1_1cl__gemm_1_1_c_l_g_e_m_m_default_type_bifrost.xhtml" target="_top" xlink:title="Bifrost based OpenCL GEMMKernel selection. ">
<polygon fill="#ffffff" stroke="#000000" points="170,-76.5 170,-95.5 312,-95.5 312,-76.5 170,-76.5"/>
<text text-anchor="middle" x="241" y="-83.5" font-family="Helvetica,sans-Serif" font-size="10.00" fill="#000000">CLGEMMDefaultTypeBifrost</text>
</a>
</g>
</g>
<!-- Node0&#45;&gt;Node1 -->
<g id="edge1" class="edge">
<title>Node0&#45;&gt;Node1</title>
<path fill="none" stroke="#191970" d="M119.7783,-59.7526C144.594,-65.1258 173.6108,-71.4086 197.0324,-76.4799"/>
<polygon fill="#191970" stroke="#191970" points="120.3003,-56.2846 109.7861,-57.589 118.8189,-63.126 120.3003,-56.2846"/>
</g>
<!-- Node2 -->
<g id="node3" class="node">
<title>Node2</title>
<g id="a_node3"><a xlink:href="classarm__compute_1_1cl__gemm_1_1_c_l_g_e_m_m_default_type_midgard.xhtml" target="_top" xlink:title="Midgard based OpenCL GEMMKernel selection. ">
<polygon fill="#ffffff" stroke="#000000" points="167,-38.5 167,-57.5 315,-57.5 315,-38.5 167,-38.5"/>
<text text-anchor="middle" x="241" y="-45.5" font-family="Helvetica,sans-Serif" font-size="10.00" fill="#000000">CLGEMMDefaultTypeMidgard</text>
</a>
</g>
</g>
<!-- Node0&#45;&gt;Node2 -->
<g id="edge2" class="edge">
<title>Node0&#45;&gt;Node2</title>
<path fill="none" stroke="#191970" d="M141.5011,-48C149.9008,-48 158.4468,-48 166.8236,-48"/>
<polygon fill="#191970" stroke="#191970" points="141.3491,-44.5001 131.349,-48 141.349,-51.5001 141.3491,-44.5001"/>
</g>
<!-- Node3 -->
<g id="node4" class="node">
<title>Node3</title>
<g id="a_node4"><a xlink:href="classarm__compute_1_1cl__gemm_1_1_c_l_g_e_m_m_default_type_valhall.xhtml" target="_top" xlink:title="Valhall based OpenCL GEMMKernel selection. ">
<polygon fill="#ffffff" stroke="#000000" points="169.5,-.5 169.5,-19.5 312.5,-19.5 312.5,-.5 169.5,-.5"/>
<text text-anchor="middle" x="241" y="-7.5" font-family="Helvetica,sans-Serif" font-size="10.00" fill="#000000">CLGEMMDefaultTypeValhall</text>
</a>
</g>
</g>
<!-- Node0&#45;&gt;Node3 -->
<g id="edge3" class="edge">
<title>Node0&#45;&gt;Node3</title>
<path fill="none" stroke="#191970" d="M119.7783,-36.2474C144.594,-30.8742 173.6108,-24.5914 197.0324,-19.5201"/>
<polygon fill="#191970" stroke="#191970" points="118.8189,-32.874 109.7861,-38.411 120.3003,-39.7154 118.8189,-32.874"/>
</g>
</g>
</svg>
