<?xml version="1.0" encoding="UTF-8" standalone="no"?>
<!DOCTYPE svg PUBLIC "-//W3C//DTD SVG 1.1//EN"
 "http://www.w3.org/Graphics/SVG/1.1/DTD/svg11.dtd">
<!-- Generated by graphviz version 2.40.1 (20161225.0304)
 -->
<!-- Title: Graphical Class Hierarchy Pages: 1 -->
<svg width="295pt" height="66pt"
 viewBox="0.00 0.00 295.00 66.00" xmlns="http://www.w3.org/2000/svg" xmlns:xlink="http://www.w3.org/1999/xlink">
<g id="graph0" class="graph" transform="scale(1 1) rotate(0) translate(4 62)">
<title>Graphical Class Hierarchy</title>
<polygon fill="#ffffff" stroke="transparent" points="-4,4 -4,-62 291,-62 291,4 -4,4"/>
<!-- Node0 -->
<g id="node1" class="node">
<title>Node0</title>
<g id="a_node1"><a xlink:href="structarm__compute_1_1mlgo_1_1_heuristic_tree_1_1_node.xhtml" target="_top" xlink:title="HeuristicTree::Node">
<polygon fill="#ffffff" stroke="#000000" points="0,-19.5 0,-38.5 104,-38.5 104,-19.5 0,-19.5"/>
<text text-anchor="middle" x="52" y="-26.5" font-family="Helvetica,sans-Serif" font-size="10.00" fill="#000000">HeuristicTree::Node</text>
</a>
</g>
</g>
<!-- Node1 -->
<g id="node2" class="node">
<title>Node1</title>
<g id="a_node2"><a xlink:href="structarm__compute_1_1mlgo_1_1_heuristic_tree_1_1_branch_node.xhtml" target="_top" xlink:title="HeuristicTree::BranchNode">
<polygon fill="#ffffff" stroke="#000000" points="146,-38.5 146,-57.5 281,-57.5 281,-38.5 146,-38.5"/>
<text text-anchor="middle" x="213.5" y="-45.5" font-family="Helvetica,sans-Serif" font-size="10.00" fill="#000000">HeuristicTree::BranchNode</text>
</a>
</g>
</g>
<!-- Node0&#45;&gt;Node1 -->
<g id="edge1" class="edge">
<title>Node0&#45;&gt;Node1</title>
<path fill="none" stroke="#191970" d="M114.5022,-36.3532C124.7335,-37.5569 135.3772,-38.8091 145.7288,-40.0269"/>
<polygon fill="#191970" stroke="#191970" points="114.7749,-32.8612 104.4344,-35.1688 113.957,-39.8133 114.7749,-32.8612"/>
</g>
<!-- Node2 -->
<g id="node3" class="node">
<title>Node2</title>
<g id="a_node3"><a xlink:href="structarm__compute_1_1mlgo_1_1_heuristic_tree_1_1_leaf_node.xhtml" target="_top" xlink:title="HeuristicTree::LeafNode\&lt; T \&gt;">
<polygon fill="#ffffff" stroke="#000000" points="140,-.5 140,-19.5 287,-19.5 287,-.5 140,-.5"/>
<text text-anchor="middle" x="213.5" y="-7.5" font-family="Helvetica,sans-Serif" font-size="10.00" fill="#000000">HeuristicTree::LeafNode&lt; T &gt;</text>
</a>
</g>
</g>
<!-- Node0&#45;&gt;Node2 -->
<g id="edge2" class="edge">
<title>Node0&#45;&gt;Node2</title>
<path fill="none" stroke="#191970" d="M114.4463,-21.6534C122.7871,-20.6721 131.4029,-19.6585 139.9118,-18.6574"/>
<polygon fill="#191970" stroke="#191970" points="113.957,-18.1867 104.4344,-22.8312 114.7749,-25.1388 113.957,-18.1867"/>
</g>
</g>
</svg>
