<?xml version="1.0" encoding="UTF-8" standalone="no"?>
<!DOCTYPE svg PUBLIC "-//W3C//DTD SVG 1.1//EN"
 "http://www.w3.org/Graphics/SVG/1.1/DTD/svg11.dtd">
<!-- Generated by graphviz version 2.40.1 (20161225.0304)
 -->
<!-- Title: Graphical Class Hierarchy Pages: 1 -->
<svg width="323pt" height="242pt"
 viewBox="0.00 0.00 323.00 242.00" xmlns="http://www.w3.org/2000/svg" xmlns:xlink="http://www.w3.org/1999/xlink">
<g id="graph0" class="graph" transform="scale(1 1) rotate(0) translate(4 238)">
<title>Graphical Class Hierarchy</title>
<polygon fill="#ffffff" stroke="transparent" points="-4,4 -4,-238 319,-238 319,4 -4,4"/>
<!-- Node0 -->
<g id="node1" class="node">
<title>Node0</title>
<g id="a_node1"><a xlink:href="classarm__compute_1_1utils_1_1_validate_example.xhtml" target="_top" xlink:title="Abstract ValidateExample class. ">
<polygon fill="#ffffff" stroke="#000000" points="0,-121 0,-140 90,-140 90,-121 0,-121"/>
<text text-anchor="middle" x="45" y="-128" font-family="Helvetica,sans-Serif" font-size="10.00" fill="#000000">ValidateExample</text>
</a>
</g>
</g>
<!-- Node1 -->
<g id="node2" class="node">
<title>Node1</title>
<g id="a_node2"><a xlink:href="classarm__compute_1_1utils_1_1_graph_validate_example.xhtml" target="_top" xlink:title="GraphValidateExample\l\&lt; LayerT, OptionsT, VerifyAccessorT \&gt;">
<polygon fill="#ffffff" stroke="#000000" points="126,-203.5 126,-233.5 315,-233.5 315,-203.5 126,-203.5"/>
<text text-anchor="start" x="134" y="-221.5" font-family="Helvetica,sans-Serif" font-size="10.00" fill="#000000">GraphValidateExample</text>
<text text-anchor="middle" x="220.5" y="-210.5" font-family="Helvetica,sans-Serif" font-size="10.00" fill="#000000">&lt; LayerT, OptionsT, VerifyAccessorT &gt;</text>
</a>
</g>
</g>
<!-- Node0&#45;&gt;Node1 -->
<g id="edge1" class="edge">
<title>Node0&#45;&gt;Node1</title>
<path fill="none" stroke="#191970" d="M62.2664,-147.3294C77.7674,-161.5585 101.7536,-181.4922 126,-193.5 133.756,-197.3411 142.1722,-200.644 150.6778,-203.4706"/>
<polygon fill="#191970" stroke="#191970" points="64.2616,-144.4009 54.58,-140.0978 59.465,-149.4993 64.2616,-144.4009"/>
</g>
<!-- Node2 -->
<g id="node3" class="node">
<title>Node2</title>
<g id="a_node3"><a xlink:href="classarm__compute_1_1utils_1_1_graph_validate_example.xhtml" target="_top" xlink:title="GraphValidateExample\l\&lt; ConvolutionLayer, Convolution\lOptions, ConvolutionVerifyAccessor \&gt;">
<polygon fill="#ffffff" stroke="#000000" points="128.5,-143 128.5,-184 312.5,-184 312.5,-143 128.5,-143"/>
<text text-anchor="start" x="136.5" y="-172" font-family="Helvetica,sans-Serif" font-size="10.00" fill="#000000">GraphValidateExample</text>
<text text-anchor="start" x="136.5" y="-161" font-family="Helvetica,sans-Serif" font-size="10.00" fill="#000000">&lt; ConvolutionLayer, Convolution</text>
<text text-anchor="middle" x="220.5" y="-150" font-family="Helvetica,sans-Serif" font-size="10.00" fill="#000000">Options, ConvolutionVerifyAccessor &gt;</text>
</a>
</g>
</g>
<!-- Node0&#45;&gt;Node2 -->
<g id="edge2" class="edge">
<title>Node0&#45;&gt;Node2</title>
<path fill="none" stroke="#191970" d="M100.1378,-140.8678C109.168,-142.5658 118.7353,-144.3648 128.3732,-146.177"/>
<polygon fill="#191970" stroke="#191970" points="100.6702,-137.4066 90.1956,-138.9983 99.3766,-144.2861 100.6702,-137.4066"/>
</g>
<!-- Node3 -->
<g id="node4" class="node">
<title>Node3</title>
<g id="a_node4"><a xlink:href="classarm__compute_1_1utils_1_1_graph_validate_example.xhtml" target="_top" xlink:title="GraphValidateExample\l\&lt; DepthwiseConvolutionLayer,\l DepthConvolutionOptions,\l DepthConvolutionVerifyAccessor \&gt;">
<polygon fill="#ffffff" stroke="#000000" points="134,-71.5 134,-123.5 307,-123.5 307,-71.5 134,-71.5"/>
<text text-anchor="start" x="142" y="-111.5" font-family="Helvetica,sans-Serif" font-size="10.00" fill="#000000">GraphValidateExample</text>
<text text-anchor="start" x="142" y="-100.5" font-family="Helvetica,sans-Serif" font-size="10.00" fill="#000000">&lt; DepthwiseConvolutionLayer,</text>
<text text-anchor="start" x="142" y="-89.5" font-family="Helvetica,sans-Serif" font-size="10.00" fill="#000000"> DepthConvolutionOptions,</text>
<text text-anchor="middle" x="220.5" y="-78.5" font-family="Helvetica,sans-Serif" font-size="10.00" fill="#000000"> DepthConvolutionVerifyAccessor &gt;</text>
</a>
</g>
</g>
<!-- Node0&#45;&gt;Node3 -->
<g id="edge3" class="edge">
<title>Node0&#45;&gt;Node3</title>
<path fill="none" stroke="#191970" d="M100.2182,-120.1171C110.9396,-118.1011 122.4158,-115.9432 133.8667,-113.79"/>
<polygon fill="#191970" stroke="#191970" points="99.3766,-116.7139 90.1956,-122.0017 100.6702,-123.5934 99.3766,-116.7139"/>
</g>
<!-- Node4 -->
<g id="node5" class="node">
<title>Node4</title>
<g id="a_node5"><a xlink:href="classarm__compute_1_1utils_1_1_graph_validate_example.xhtml" target="_top" xlink:title="GraphValidateExample\l\&lt; FullyConnectedLayer,\l FullyConnectedOptions,\l FullyConnectedVerifyAccessor \&gt;">
<polygon fill="#ffffff" stroke="#000000" points="138.5,-.5 138.5,-52.5 302.5,-52.5 302.5,-.5 138.5,-.5"/>
<text text-anchor="start" x="146.5" y="-40.5" font-family="Helvetica,sans-Serif" font-size="10.00" fill="#000000">GraphValidateExample</text>
<text text-anchor="start" x="146.5" y="-29.5" font-family="Helvetica,sans-Serif" font-size="10.00" fill="#000000">&lt; FullyConnectedLayer,</text>
<text text-anchor="start" x="146.5" y="-18.5" font-family="Helvetica,sans-Serif" font-size="10.00" fill="#000000"> FullyConnectedOptions,</text>
<text text-anchor="middle" x="220.5" y="-7.5" font-family="Helvetica,sans-Serif" font-size="10.00" fill="#000000"> FullyConnectedVerifyAccessor &gt;</text>
</a>
</g>
</g>
<!-- Node0&#45;&gt;Node4 -->
<g id="edge4" class="edge">
<title>Node0&#45;&gt;Node4</title>
<path fill="none" stroke="#191970" d="M61.4219,-113.8255C76.9488,-98.799 101.4643,-76.9146 126,-62.5 132.0549,-58.9427 138.5248,-55.6182 145.1322,-52.5406"/>
<polygon fill="#191970" stroke="#191970" points="58.8287,-111.4672 54.1691,-120.9824 63.7454,-116.4498 58.8287,-111.4672"/>
</g>
</g>
</svg>
