<?xml version="1.0" encoding="UTF-8" standalone="no"?>
<!DOCTYPE svg PUBLIC "-//W3C//DTD SVG 1.1//EN"
 "http://www.w3.org/Graphics/SVG/1.1/DTD/svg11.dtd">
<!-- Generated by graphviz version 2.40.1 (20161225.0304)
 -->
<!-- Title: Graphical Class Hierarchy Pages: 1 -->
<svg width="388pt" height="173pt"
 viewBox="0.00 0.00 388.00 172.50" xmlns="http://www.w3.org/2000/svg" xmlns:xlink="http://www.w3.org/1999/xlink">
<g id="graph0" class="graph" transform="scale(1 1) rotate(0) translate(4 168.5)">
<title>Graphical Class Hierarchy</title>
<polygon fill="#ffffff" stroke="transparent" points="-4,4 -4,-168.5 384,-168.5 384,4 -4,4"/>
<!-- Node0 -->
<g id="node1" class="node">
<title>Node0</title>
<g id="a_node1"><a xlink:href="classarm__compute_1_1test_1_1framework_1_1dataset_1_1_dataset.xhtml" target="_top" xlink:title="Abstract dataset base class. ">
<polygon fill="#ffffff" stroke="#000000" points="0,-76.5 0,-95.5 51,-95.5 51,-76.5 0,-76.5"/>
<text text-anchor="middle" x="25.5" y="-83.5" font-family="Helvetica,sans-Serif" font-size="10.00" fill="#000000">Dataset</text>
</a>
</g>
</g>
<!-- Node1 -->
<g id="node2" class="node">
<title>Node1</title>
<g id="a_node2"><a xlink:href="classarm__compute_1_1test_1_1framework_1_1dataset_1_1_cartesian_product_dataset.xhtml" target="_top" xlink:title="Implementation of a dataset representing all combinations of values of the input datasets. ">
<polygon fill="#ffffff" stroke="#000000" points="87,-134 87,-164 214,-164 214,-134 87,-134"/>
<text text-anchor="start" x="95" y="-152" font-family="Helvetica,sans-Serif" font-size="10.00" fill="#000000">CartesianProductDataset</text>
<text text-anchor="middle" x="150.5" y="-141" font-family="Helvetica,sans-Serif" font-size="10.00" fill="#000000">&lt; T, U &gt;</text>
</a>
</g>
</g>
<!-- Node0&#45;&gt;Node1 -->
<g id="edge1" class="edge">
<title>Node0&#45;&gt;Node1</title>
<path fill="none" stroke="#191970" d="M48.1983,-101.374C59.5707,-108.7245 73.7173,-117.3484 87,-124 93.9919,-127.5014 101.5993,-130.859 109.0401,-133.9143"/>
<polygon fill="#191970" stroke="#191970" points="50.0207,-98.3835 39.7421,-95.814 46.1749,-104.2324 50.0207,-98.3835"/>
</g>
<!-- Node2 -->
<g id="node3" class="node">
<title>Node2</title>
<g id="a_node3"><a xlink:href="classarm__compute_1_1test_1_1framework_1_1dataset_1_1_join_dataset.xhtml" target="_top" xlink:title="Implementation of a dataset representing the concatenation of the input datasets. ...">
<polygon fill="#ffffff" stroke="#000000" points="97,-95.5 97,-114.5 204,-114.5 204,-95.5 97,-95.5"/>
<text text-anchor="middle" x="150.5" y="-102.5" font-family="Helvetica,sans-Serif" font-size="10.00" fill="#000000">JoinDataset&lt; T, U &gt;</text>
</a>
</g>
</g>
<!-- Node0&#45;&gt;Node2 -->
<g id="edge2" class="edge">
<title>Node0&#45;&gt;Node2</title>
<path fill="none" stroke="#191970" d="M61.2416,-91.4327C72.327,-93.1177 84.7969,-95.0131 96.8222,-96.841"/>
<polygon fill="#191970" stroke="#191970" points="61.5097,-87.9333 51.0973,-89.8908 60.4577,-94.8539 61.5097,-87.9333"/>
</g>
<!-- Node3 -->
<g id="node4" class="node">
<title>Node3</title>
<g id="a_node4"><a xlink:href="classarm__compute_1_1test_1_1framework_1_1dataset_1_1_named_dataset.xhtml" target="_top" xlink:title="Abstract implementation of a named dataset. ">
<polygon fill="#ffffff" stroke="#000000" points="109,-57.5 109,-76.5 192,-76.5 192,-57.5 109,-57.5"/>
<text text-anchor="middle" x="150.5" y="-64.5" font-family="Helvetica,sans-Serif" font-size="10.00" fill="#000000">NamedDataset</text>
</a>
</g>
</g>
<!-- Node0&#45;&gt;Node3 -->
<g id="edge3" class="edge">
<title>Node0&#45;&gt;Node3</title>
<path fill="none" stroke="#191970" d="M61.3621,-80.549C76.137,-78.3032 93.3552,-75.686 108.6976,-73.354"/>
<polygon fill="#191970" stroke="#191970" points="60.4577,-77.1461 51.0973,-82.1092 61.5097,-84.0667 60.4577,-77.1461"/>
</g>
<!-- Node8 -->
<g id="node9" class="node">
<title>Node8</title>
<g id="a_node9"><a xlink:href="classarm__compute_1_1test_1_1framework_1_1dataset_1_1_zip_dataset.xhtml" target="_top" xlink:title="Implementation of a dataset representing pairs of values of the input datasets. ">
<polygon fill="#ffffff" stroke="#000000" points="99.5,-19.5 99.5,-38.5 201.5,-38.5 201.5,-19.5 99.5,-19.5"/>
<text text-anchor="middle" x="150.5" y="-26.5" font-family="Helvetica,sans-Serif" font-size="10.00" fill="#000000">ZipDataset&lt; T, U &gt;</text>
</a>
</g>
</g>
<!-- Node0&#45;&gt;Node8 -->
<g id="edge8" class="edge">
<title>Node0&#45;&gt;Node8</title>
<path fill="none" stroke="#191970" d="M47.0662,-70.7303C58.5259,-63.1265 73.0874,-54.2481 87,-48 95.0829,-44.37 104.0482,-41.2048 112.6339,-38.5531"/>
<polygon fill="#191970" stroke="#191970" points="44.9124,-67.9624 38.6124,-76.4806 48.8494,-73.7503 44.9124,-67.9624"/>
</g>
<!-- Node4 -->
<g id="node5" class="node">
<title>Node4</title>
<g id="a_node5"><a xlink:href="classarm__compute_1_1test_1_1framework_1_1dataset_1_1_container_dataset.xhtml" target="_top" xlink:title="Implementation of a dataset created from a container. ">
<polygon fill="#ffffff" stroke="#000000" points="256.5,-114.5 256.5,-133.5 373.5,-133.5 373.5,-114.5 256.5,-114.5"/>
<text text-anchor="middle" x="315" y="-121.5" font-family="Helvetica,sans-Serif" font-size="10.00" fill="#000000">ContainerDataset&lt; T &gt;</text>
</a>
</g>
</g>
<!-- Node3&#45;&gt;Node4 -->
<g id="edge4" class="edge">
<title>Node3&#45;&gt;Node4</title>
<path fill="none" stroke="#191970" d="M196.6905,-79.6644C202.5778,-81.6154 208.4731,-83.7399 214,-86 230.7457,-92.8477 233.2327,-98.2054 250,-105 258.717,-108.5324 268.3336,-111.7125 277.4362,-114.4155"/>
<polygon fill="#191970" stroke="#191970" points="197.4467,-76.2326 186.8567,-76.5514 195.3341,-82.9062 197.4467,-76.2326"/>
</g>
<!-- Node5 -->
<g id="node6" class="node">
<title>Node5</title>
<g id="a_node6"><a xlink:href="classarm__compute_1_1test_1_1framework_1_1dataset_1_1_initializer_list_dataset.xhtml" target="_top" xlink:title="Implementation of a dataset created from an initializer list. ">
<polygon fill="#ffffff" stroke="#000000" points="250,-76.5 250,-95.5 380,-95.5 380,-76.5 250,-76.5"/>
<text text-anchor="middle" x="315" y="-83.5" font-family="Helvetica,sans-Serif" font-size="10.00" fill="#000000">InitializerListDataset&lt; T &gt;</text>
</a>
</g>
</g>
<!-- Node3&#45;&gt;Node5 -->
<g id="edge5" class="edge">
<title>Node3&#45;&gt;Node5</title>
<path fill="none" stroke="#191970" d="M202.1785,-72.9689C217.28,-74.7132 233.9845,-76.6426 249.8081,-78.4702"/>
<polygon fill="#191970" stroke="#191970" points="202.3459,-69.4651 192.0103,-71.7945 201.5426,-76.4189 202.3459,-69.4651"/>
</g>
<!-- Node6 -->
<g id="node7" class="node">
<title>Node6</title>
<g id="a_node7"><a xlink:href="classarm__compute_1_1test_1_1framework_1_1dataset_1_1_range_dataset.xhtml" target="_top" xlink:title="Implementation of a dataset created from a range of values. ">
<polygon fill="#ffffff" stroke="#000000" points="263,-38.5 263,-57.5 367,-57.5 367,-38.5 263,-38.5"/>
<text text-anchor="middle" x="315" y="-45.5" font-family="Helvetica,sans-Serif" font-size="10.00" fill="#000000">RangeDataset&lt; T &gt;</text>
</a>
</g>
</g>
<!-- Node3&#45;&gt;Node6 -->
<g id="edge6" class="edge">
<title>Node3&#45;&gt;Node6</title>
<path fill="none" stroke="#191970" d="M202.1572,-61.0335C221.5064,-58.7987 243.4898,-56.2595 262.8806,-54.0199"/>
<polygon fill="#191970" stroke="#191970" points="201.5426,-57.5811 192.0103,-62.2055 202.3459,-64.5349 201.5426,-57.5811"/>
</g>
<!-- Node7 -->
<g id="node8" class="node">
<title>Node7</title>
<g id="a_node8"><a xlink:href="classarm__compute_1_1test_1_1framework_1_1dataset_1_1_singleton_dataset.xhtml" target="_top" xlink:title="Implementation of a dataset holding a single value. ">
<polygon fill="#ffffff" stroke="#000000" points="257,-.5 257,-19.5 373,-19.5 373,-.5 257,-.5"/>
<text text-anchor="middle" x="315" y="-7.5" font-family="Helvetica,sans-Serif" font-size="10.00" fill="#000000">SingletonDataset&lt; T &gt;</text>
</a>
</g>
</g>
<!-- Node3&#45;&gt;Node7 -->
<g id="edge7" class="edge">
<title>Node3&#45;&gt;Node7</title>
<path fill="none" stroke="#191970" d="M196.6905,-54.3356C202.5778,-52.3846 208.4731,-50.2601 214,-48 230.7457,-41.1523 233.2327,-35.7946 250,-29 258.717,-25.4676 268.3336,-22.2875 277.4362,-19.5845"/>
<polygon fill="#191970" stroke="#191970" points="195.3341,-51.0938 186.8567,-57.4486 197.4467,-57.7674 195.3341,-51.0938"/>
</g>
</g>
</svg>
