<?xml version="1.0" encoding="UTF-8" standalone="no"?>
<!DOCTYPE svg PUBLIC "-//W3C//DTD SVG 1.1//EN"
 "http://www.w3.org/Graphics/SVG/1.1/DTD/svg11.dtd">
<!-- Generated by graphviz version 2.40.1 (20161225.0304)
 -->
<!-- Title: FullyConnectedParams Pages: 1 -->
<svg width="138pt" height="162pt"
 viewBox="0.00 0.00 137.50 162.00" xmlns="http://www.w3.org/2000/svg" xmlns:xlink="http://www.w3.org/1999/xlink">
<g id="graph0" class="graph" transform="scale(1 1) rotate(0) translate(4 158)">
<title>FullyConnectedParams</title>
<polygon fill="#ffffff" stroke="transparent" points="-4,4 -4,-158 133.5,-158 133.5,4 -4,4"/>
<!-- Node0 -->
<g id="node1" class="node">
<title>Node0</title>
<polygon fill="#bfbfbf" stroke="#000000" points="3,-.5 3,-19.5 122,-19.5 122,-.5 3,-.5"/>
<text text-anchor="middle" x="62.5" y="-7.5" font-family="Helvetica,sans-Serif" font-size="10.00" fill="#000000">FullyConnectedParams</text>
</g>
<!-- Node1 -->
<g id="node2" class="node">
<title>Node1</title>
<g id="a_node2"><a xlink:href="structarm__compute_1_1_fully_connected_layer_info.xhtml" target="_top" xlink:title="Fully connected layer info. ">
<polygon fill="#ffffff" stroke="#000000" points="0,-67.5 0,-86.5 125,-86.5 125,-67.5 0,-67.5"/>
<text text-anchor="middle" x="62.5" y="-74.5" font-family="Helvetica,sans-Serif" font-size="10.00" fill="#000000">FullyConnectedLayerInfo</text>
</a>
</g>
</g>
<!-- Node1&#45;&gt;Node0 -->
<g id="edge1" class="edge">
<title>Node1&#45;&gt;Node0</title>
<path fill="none" stroke="#9a32cd" stroke-dasharray="5,2" d="M62.5,-57.1079C62.5,-44.714 62.5,-29.3263 62.5,-19.5817"/>
<polygon fill="#9a32cd" stroke="#9a32cd" points="59.0001,-57.4005 62.5,-67.4005 66.0001,-57.4006 59.0001,-57.4005"/>
<text text-anchor="middle" x="72" y="-41" font-family="Helvetica,sans-Serif" font-size="10.00" fill="#000000"> info</text>
</g>
<!-- Node2 -->
<g id="node3" class="node">
<title>Node2</title>
<g id="a_node3"><a xlink:href="classarm__compute_1_1_activation_layer_info.xhtml" target="_top" xlink:title="Activation Layer Information class. ">
<polygon fill="#ffffff" stroke="#000000" points="12,-134.5 12,-153.5 113,-153.5 113,-134.5 12,-134.5"/>
<text text-anchor="middle" x="62.5" y="-141.5" font-family="Helvetica,sans-Serif" font-size="10.00" fill="#000000">ActivationLayerInfo</text>
</a>
</g>
</g>
<!-- Node2&#45;&gt;Node1 -->
<g id="edge2" class="edge">
<title>Node2&#45;&gt;Node1</title>
<path fill="none" stroke="#9a32cd" stroke-dasharray="5,2" d="M62.5,-124.1079C62.5,-111.714 62.5,-96.3263 62.5,-86.5817"/>
<polygon fill="#9a32cd" stroke="#9a32cd" points="59.0001,-124.4005 62.5,-134.4005 66.0001,-124.4006 59.0001,-124.4005"/>
<text text-anchor="middle" x="96" y="-108" font-family="Helvetica,sans-Serif" font-size="10.00" fill="#000000"> activation_info</text>
</g>
</g>
</svg>
