<?xml version="1.0" encoding="UTF-8" standalone="no"?>
<!DOCTYPE svg PUBLIC "-//W3C//DTD SVG 1.1//EN"
 "http://www.w3.org/Graphics/SVG/1.1/DTD/svg11.dtd">
<!-- Generated by graphviz version 2.40.1 (20161225.0304)
 -->
<!-- Title: ConcatLayerDescriptor Pages: 1 -->
<svg width="228pt" height="95pt"
 viewBox="0.00 0.00 227.50 95.00" xmlns="http://www.w3.org/2000/svg" xmlns:xlink="http://www.w3.org/1999/xlink">
<g id="graph0" class="graph" transform="scale(1 1) rotate(0) translate(4 91)">
<title>ConcatLayerDescriptor</title>
<polygon fill="#ffffff" stroke="transparent" points="-4,4 -4,-91 223.5,-91 223.5,4 -4,4"/>
<!-- Node0 -->
<g id="node1" class="node">
<title>Node0</title>
<polygon fill="#bfbfbf" stroke="#000000" points="44.5,-.5 44.5,-19.5 161.5,-19.5 161.5,-.5 44.5,-.5"/>
<text text-anchor="middle" x="103" y="-7.5" font-family="Helvetica,sans-Serif" font-size="10.00" fill="#000000">ConcatLayerDescriptor</text>
</g>
<!-- Node1 -->
<g id="node2" class="node">
<title>Node1</title>
<g id="a_node2"><a xlink:href="classarm__compute_1_1_quantization_info.xhtml" target="_top" xlink:title="Quantization information. ">
<polygon fill="#ffffff" stroke="#000000" points="0,-67.5 0,-86.5 88,-86.5 88,-67.5 0,-67.5"/>
<text text-anchor="middle" x="44" y="-74.5" font-family="Helvetica,sans-Serif" font-size="10.00" fill="#000000">QuantizationInfo</text>
</a>
</g>
</g>
<!-- Node1&#45;&gt;Node0 -->
<g id="edge1" class="edge">
<title>Node1&#45;&gt;Node0</title>
<path fill="none" stroke="#9a32cd" stroke-dasharray="5,2" d="M59.2214,-59.7147C70.4698,-46.941 85.3684,-30.0224 94.5624,-19.5817"/>
<polygon fill="#9a32cd" stroke="#9a32cd" points="56.4354,-57.5825 52.4533,-67.4005 61.6888,-62.2087 56.4354,-57.5825"/>
<text text-anchor="middle" x="106.5" y="-41" font-family="Helvetica,sans-Serif" font-size="10.00" fill="#000000"> output_qinfo</text>
</g>
<!-- Node2 -->
<g id="node3" class="node">
<title>Node2</title>
<polygon fill="#ffffff" stroke="#bfbfbf" points="106.5,-67.5 106.5,-86.5 219.5,-86.5 219.5,-67.5 106.5,-67.5"/>
<text text-anchor="middle" x="163" y="-74.5" font-family="Helvetica,sans-Serif" font-size="10.00" fill="#000000">DataLayoutDimension</text>
</g>
<!-- Node2&#45;&gt;Node0 -->
<g id="edge2" class="edge">
<title>Node2&#45;&gt;Node0</title>
<path fill="none" stroke="#9a32cd" stroke-dasharray="5,2" d="M153.284,-58.2212C149.3334,-51.4751 144.4187,-44.0463 139,-38 132.7645,-31.0421 124.6286,-24.5496 117.6692,-19.5717"/>
<polygon fill="#9a32cd" stroke="#9a32cd" points="150.4369,-60.3066 158.3286,-67.3758 156.5677,-56.9283 150.4369,-60.3066"/>
<text text-anchor="middle" x="158" y="-41" font-family="Helvetica,sans-Serif" font-size="10.00" fill="#000000"> axis</text>
</g>
</g>
</svg>
