<?xml version="1.0" encoding="UTF-8" standalone="no"?>
<!DOCTYPE svg PUBLIC "-//W3C//DTD SVG 1.1//EN"
 "http://www.w3.org/Graphics/SVG/1.1/DTD/svg11.dtd">
<!-- Generated by graphviz version 2.40.1 (20161225.0304)
 -->
<!-- Title: CommonParams Pages: 1 -->
<svg width="407pt" height="195pt"
 viewBox="0.00 0.00 406.50 195.00" xmlns="http://www.w3.org/2000/svg" xmlns:xlink="http://www.w3.org/1999/xlink">
<g id="graph0" class="graph" transform="scale(1 1) rotate(0) translate(4 191)">
<title>CommonParams</title>
<polygon fill="#ffffff" stroke="transparent" points="-4,4 -4,-191 402.5,-191 402.5,4 -4,4"/>
<!-- Node0 -->
<g id="node1" class="node">
<title>Node0</title>
<polygon fill="#bfbfbf" stroke="#000000" points="151.5,-.5 151.5,-19.5 241.5,-19.5 241.5,-.5 151.5,-.5"/>
<text text-anchor="middle" x="196.5" y="-7.5" font-family="Helvetica,sans-Serif" font-size="10.00" fill="#000000">CommonParams</text>
</g>
<!-- Node1 -->
<g id="node2" class="node">
<title>Node1</title>
<polygon fill="#ffffff" stroke="#bfbfbf" points="0,-100.5 0,-119.5 59,-119.5 59,-100.5 0,-100.5"/>
<text text-anchor="middle" x="29.5" y="-107.5" font-family="Helvetica,sans-Serif" font-size="10.00" fill="#000000">DataType</text>
</g>
<!-- Node1&#45;&gt;Node0 -->
<g id="edge1" class="edge">
<title>Node1&#45;&gt;Node0</title>
<path fill="none" stroke="#9a32cd" stroke-dasharray="5,2" d="M39.0851,-91.6425C48.6524,-75.1306 64.8833,-51.4611 85.5,-38 105.0536,-25.233 130.0417,-18.2871 151.3562,-14.5082"/>
<polygon fill="#9a32cd" stroke="#9a32cd" points="36.0154,-89.9611 34.2392,-100.4061 42.1413,-93.3485 36.0154,-89.9611"/>
<text text-anchor="middle" x="108.5" y="-57.5" font-family="Helvetica,sans-Serif" font-size="10.00" fill="#000000"> data_type</text>
</g>
<!-- Node2 -->
<g id="node3" class="node">
<title>Node2</title>
<g id="a_node3"><a xlink:href="structarm__compute_1_1utils_1_1_tensor_params.xhtml" target="_top" xlink:title="Structure holding all the input tensor graph parameters. ">
<polygon fill="#ffffff" stroke="#000000" points="77.5,-100.5 77.5,-119.5 157.5,-119.5 157.5,-100.5 77.5,-100.5"/>
<text text-anchor="middle" x="117.5" y="-107.5" font-family="Helvetica,sans-Serif" font-size="10.00" fill="#000000">TensorParams</text>
</a>
</g>
</g>
<!-- Node2&#45;&gt;Node0 -->
<g id="edge2" class="edge">
<title>Node2&#45;&gt;Node0</title>
<path fill="none" stroke="#9a32cd" stroke-dasharray="5,2" d="M128.9622,-91.4237C138.5409,-76.4393 152.9386,-55.1147 167.5,-38 173.0328,-31.497 179.8784,-24.8331 185.5289,-19.6385"/>
<polygon fill="#9a32cd" stroke="#9a32cd" points="125.7737,-89.9192 123.4103,-100.2471 131.6984,-93.6472 125.7737,-89.9192"/>
<text text-anchor="middle" x="184.5" y="-74" font-family="Helvetica,sans-Serif" font-size="10.00" fill="#000000"> output</text>
<text text-anchor="middle" x="184.5" y="-63" font-family="Helvetica,sans-Serif" font-size="10.00" fill="#000000">input</text>
<text text-anchor="middle" x="184.5" y="-52" font-family="Helvetica,sans-Serif" font-size="10.00" fill="#000000">bias</text>
<text text-anchor="middle" x="184.5" y="-41" font-family="Helvetica,sans-Serif" font-size="10.00" fill="#000000">weights</text>
</g>
<!-- Node3 -->
<g id="node4" class="node">
<title>Node3</title>
<g id="a_node4"><a xlink:href="classarm__compute_1_1_quantization_info.xhtml" target="_top" xlink:title="Quantization information. ">
<polygon fill="#ffffff" stroke="#000000" points="73.5,-167.5 73.5,-186.5 161.5,-186.5 161.5,-167.5 73.5,-167.5"/>
<text text-anchor="middle" x="117.5" y="-174.5" font-family="Helvetica,sans-Serif" font-size="10.00" fill="#000000">QuantizationInfo</text>
</a>
</g>
</g>
<!-- Node3&#45;&gt;Node2 -->
<g id="edge3" class="edge">
<title>Node3&#45;&gt;Node2</title>
<path fill="none" stroke="#9a32cd" stroke-dasharray="5,2" d="M117.5,-157.1079C117.5,-144.714 117.5,-129.3263 117.5,-119.5817"/>
<polygon fill="#9a32cd" stroke="#9a32cd" points="114.0001,-157.4005 117.5,-167.4005 121.0001,-157.4006 114.0001,-157.4005"/>
<text text-anchor="middle" x="142" y="-141" font-family="Helvetica,sans-Serif" font-size="10.00" fill="#000000"> quant_info</text>
</g>
<!-- Node4 -->
<g id="node5" class="node">
<title>Node4</title>
<g id="a_node5"><a xlink:href="structarm__compute_1_1utils_1_1_verification_params.xhtml" target="_top" xlink:title="Structure holding all the verification graph parameters. ">
<polygon fill="#ffffff" stroke="#000000" points="176,-100.5 176,-119.5 275,-119.5 275,-100.5 176,-100.5"/>
<text text-anchor="middle" x="225.5" y="-107.5" font-family="Helvetica,sans-Serif" font-size="10.00" fill="#000000">VerificationParams</text>
</a>
</g>
</g>
<!-- Node4&#45;&gt;Node0 -->
<g id="edge4" class="edge">
<title>Node4&#45;&gt;Node0</title>
<path fill="none" stroke="#9a32cd" stroke-dasharray="5,2" d="M219.8528,-90.5268C213.6823,-69.2493 204.0468,-36.0234 199.3148,-19.7063"/>
<polygon fill="#9a32cd" stroke="#9a32cd" points="216.5725,-91.7821 222.7194,-100.4116 223.2955,-89.8324 216.5725,-91.7821"/>
<text text-anchor="middle" x="242" y="-57.5" font-family="Helvetica,sans-Serif" font-size="10.00" fill="#000000"> verification</text>
</g>
<!-- Node5 -->
<g id="node6" class="node">
<title>Node5</title>
<g id="a_node6"><a xlink:href="structarm__compute_1_1utils_1_1_framework_params.xhtml" target="_top" xlink:title="Structure holding all the common graph parameters. ">
<polygon fill="#ffffff" stroke="#000000" points="293,-100.5 293,-119.5 392,-119.5 392,-100.5 293,-100.5"/>
<text text-anchor="middle" x="342.5" y="-107.5" font-family="Helvetica,sans-Serif" font-size="10.00" fill="#000000">FrameworkParams</text>
</a>
</g>
</g>
<!-- Node5&#45;&gt;Node0 -->
<g id="edge5" class="edge">
<title>Node5&#45;&gt;Node0</title>
<path fill="none" stroke="#9a32cd" stroke-dasharray="5,2" d="M328.7938,-92.208C315.6165,-76.1437 294.3741,-52.8186 271.5,-38 259.3686,-30.1409 244.7161,-24.0462 231.5929,-19.5794"/>
<polygon fill="#9a32cd" stroke="#9a32cd" points="326.2688,-94.6551 335.2438,-100.2854 331.7389,-90.2871 326.2688,-94.6551"/>
<text text-anchor="middle" x="359" y="-57.5" font-family="Helvetica,sans-Serif" font-size="10.00" fill="#000000"> common_params</text>
</g>
</g>
</svg>
