<?xml version="1.0" encoding="UTF-8" standalone="no"?>
<!DOCTYPE svg PUBLIC "-//W3C//DTD SVG 1.1//EN"
 "http://www.w3.org/Graphics/SVG/1.1/DTD/svg11.dtd">
<!-- Generated by graphviz version 2.38.0 (20140413.2041)
 -->
<!-- Title: tests/validation Pages: 1 -->
<svg width="911pt" height="375pt"
 viewBox="0.00 0.00 910.67 375.00" xmlns="http://www.w3.org/2000/svg" xmlns:xlink="http://www.w3.org/1999/xlink">
<g id="graph0" class="graph" transform="scale(1 1) rotate(0) translate(4 371)">
<title>tests/validation</title>
<polygon fill="white" stroke="none" points="-4,4 -4,-371 906.667,-371 906.667,4 -4,4"/>
<g id="clust1" class="cluster"><title>clusterdir_59425e443f801f1f2fd8bbe4959a3ccf</title>
<g id="a_clust1"><a xlink:href="dir_59425e443f801f1f2fd8bbe4959a3ccf.xhtml" target="_top" xlink:title="tests">
<polygon fill="#ddddee" stroke="black" points="8,-200 8,-359 504,-359 504,-200 8,-200"/>
<text text-anchor="middle" x="256" y="-347" font-family="Helvetica,sans-Serif" font-size="10.00">tests</text>
</a>
</g>
</g>
<g id="clust2" class="cluster"><title>clusterdir_e7c7b16542faa38cb4655ff1750d3604</title>
<g id="a_clust2"><a xlink:href="dir_e7c7b16542faa38cb4655ff1750d3604.xhtml" target="_top">
<polygon fill="#eeeeff" stroke="black" points="16,-208 16,-332 496,-332 496,-208 16,-208"/>
</a>
</g>
</g>
<!-- dir_e7c7b16542faa38cb4655ff1750d3604 -->
<g id="node1" class="node"><title>dir_e7c7b16542faa38cb4655ff1750d3604</title>
<text text-anchor="middle" x="457" y="-303.5" font-family="Helvetica,sans-Serif" font-size="10.00">validation</text>
</g>
<!-- dir_f7024513cd67abef53e86ee9382ac5ce -->
<g id="node2" class="node"><title>dir_f7024513cd67abef53e86ee9382ac5ce</title>
<g id="a_node2"><a xlink:href="dir_f7024513cd67abef53e86ee9382ac5ce.xhtml" target="_top" xlink:title="CL">
<polygon fill="white" stroke="red" points="78,-324 24,-324 24,-288 78,-288 78,-324"/>
<text text-anchor="middle" x="51" y="-303.5" font-family="Helvetica,sans-Serif" font-size="10.00">CL</text>
</a>
</g>
</g>
<!-- dir_46fdb196cebdbffe77dac340cde62f29 -->
<g id="node6" class="node"><title>dir_46fdb196cebdbffe77dac340cde62f29</title>
<g id="a_node6"><a xlink:href="dir_46fdb196cebdbffe77dac340cde62f29.xhtml" target="_top" xlink:title="reference">
<polygon fill="white" stroke="black" points="344,-252 282,-252 282,-216 344,-216 344,-252"/>
<text text-anchor="middle" x="313" y="-231.5" font-family="Helvetica,sans-Serif" font-size="10.00">reference</text>
</a>
</g>
</g>
<!-- dir_f7024513cd67abef53e86ee9382ac5ce&#45;&gt;dir_46fdb196cebdbffe77dac340cde62f29 -->
<g id="edge22" class="edge"><title>dir_f7024513cd67abef53e86ee9382ac5ce&#45;&gt;dir_46fdb196cebdbffe77dac340cde62f29</title>
<path fill="none" stroke="black" d="M78.2677,-291.396C81.1808,-290.162 84.1286,-289.002 87,-288 149.967,-266.026 225.964,-250.314 271.834,-241.951"/>
<polygon fill="black" stroke="black" points="272.481,-245.391 281.706,-240.18 271.245,-238.501 272.481,-245.391"/>
<g id="a_edge22&#45;headlabel"><a xlink:href="dir_000058_000022.xhtml" target="_top" xlink:title="2">
<text text-anchor="middle" x="269.445" y="-246.32" font-family="Helvetica,sans-Serif" font-size="10.00">2</text>
</a>
</g>
</g>
<!-- dir_9e71e2da941d3cafc4d98a9f6ae3de4f -->
<g id="node10" class="node"><title>dir_9e71e2da941d3cafc4d98a9f6ae3de4f</title>
<g id="a_node10"><a xlink:href="dir_9e71e2da941d3cafc4d98a9f6ae3de4f.xhtml" target="_top" xlink:title="framework">
<polygon fill="white" stroke="red" points="731.5,-252 664.5,-252 664.5,-216 731.5,-216 731.5,-252"/>
<text text-anchor="middle" x="698" y="-231.5" font-family="Helvetica,sans-Serif" font-size="10.00">framework</text>
</a>
</g>
</g>
<!-- dir_f7024513cd67abef53e86ee9382ac5ce&#45;&gt;dir_9e71e2da941d3cafc4d98a9f6ae3de4f -->
<g id="edge23" class="edge"><title>dir_f7024513cd67abef53e86ee9382ac5ce&#45;&gt;dir_9e71e2da941d3cafc4d98a9f6ae3de4f</title>
<path fill="none" stroke="black" d="M78.1199,-290.91C81.0619,-289.771 84.0568,-288.766 87,-288 315.061,-228.657 382.527,-283.993 616,-252 628.491,-250.288 641.929,-247.786 654.239,-245.224"/>
<polygon fill="black" stroke="black" points="655.224,-248.593 664.268,-243.075 653.757,-241.748 655.224,-248.593"/>
<g id="a_edge23&#45;headlabel"><a xlink:href="dir_000058_000021.xhtml" target="_top" xlink:title="244">
<text text-anchor="middle" x="652.304" y="-249.622" font-family="Helvetica,sans-Serif" font-size="10.00">244</text>
</a>
</g>
</g>
<!-- dir_214608ef36d61442cb2b0c1c4e9a7def -->
<g id="node12" class="node"><title>dir_214608ef36d61442cb2b0c1c4e9a7def</title>
<g id="a_node12"><a xlink:href="dir_214608ef36d61442cb2b0c1c4e9a7def.xhtml" target="_top" xlink:title="arm_compute">
<polygon fill="white" stroke="red" points="647,-108 563,-108 563,-72 647,-72 647,-108"/>
<text text-anchor="middle" x="605" y="-87.5" font-family="Helvetica,sans-Serif" font-size="10.00">arm_compute</text>
</a>
</g>
</g>
<!-- dir_f7024513cd67abef53e86ee9382ac5ce&#45;&gt;dir_214608ef36d61442cb2b0c1c4e9a7def -->
<g id="edge24" class="edge"><title>dir_f7024513cd67abef53e86ee9382ac5ce&#45;&gt;dir_214608ef36d61442cb2b0c1c4e9a7def</title>
<path fill="none" stroke="black" d="M78.1675,-291.082C81.1002,-289.91 84.0799,-288.85 87,-288 210.011,-252.201 254.075,-299.646 373,-252 447.924,-221.983 452.14,-189.213 519,-144 534.545,-133.488 552.12,-122.504 567.311,-113.28"/>
<polygon fill="black" stroke="black" points="569.193,-116.232 575.947,-108.069 565.577,-110.238 569.193,-116.232"/>
<g id="a_edge24&#45;headlabel"><a xlink:href="dir_000058_000000.xhtml" target="_top" xlink:title="329">
<text text-anchor="middle" x="567.583" y="-118.02" font-family="Helvetica,sans-Serif" font-size="10.00">329</text>
</a>
</g>
</g>
<!-- dir_896191444cf08ec8ade6f88256cb2bdd -->
<g id="node13" class="node"><title>dir_896191444cf08ec8ade6f88256cb2bdd</title>
<g id="a_node13"><a xlink:href="dir_896191444cf08ec8ade6f88256cb2bdd.xhtml" target="_top" xlink:title="CL">
<polygon fill="none" stroke="black" points="380,-180 326,-180 326,-144 380,-144 380,-180"/>
<text text-anchor="middle" x="353" y="-159.5" font-family="Helvetica,sans-Serif" font-size="10.00">CL</text>
</a>
</g>
</g>
<!-- dir_f7024513cd67abef53e86ee9382ac5ce&#45;&gt;dir_896191444cf08ec8ade6f88256cb2bdd -->
<g id="edge25" class="edge"><title>dir_f7024513cd67abef53e86ee9382ac5ce&#45;&gt;dir_896191444cf08ec8ade6f88256cb2bdd</title>
<path fill="none" stroke="black" d="M78.1757,-291.11C81.1068,-289.932 84.0839,-288.863 87,-288 144.196,-271.066 313.751,-296.918 353,-252 367.564,-235.332 365.829,-209.449 361.475,-189.884"/>
<polygon fill="black" stroke="black" points="364.825,-188.856 358.953,-180.037 358.044,-190.593 364.825,-188.856"/>
<g id="a_edge25&#45;headlabel"><a xlink:href="dir_000058_000061.xhtml" target="_top" xlink:title="102">
<text text-anchor="middle" x="368.467" y="-189.134" font-family="Helvetica,sans-Serif" font-size="10.00">102</text>
</a>
</g>
</g>
<!-- dir_5815af820a9cc9481f1d0990a0d60286 -->
<g id="node14" class="node"><title>dir_5815af820a9cc9481f1d0990a0d60286</title>
<g id="a_node14"><a xlink:href="dir_5815af820a9cc9481f1d0990a0d60286.xhtml" target="_top" xlink:title="support">
<polygon fill="none" stroke="black" points="348,-36 294,-36 294,-0 348,-0 348,-36"/>
<text text-anchor="middle" x="321" y="-15.5" font-family="Helvetica,sans-Serif" font-size="10.00">support</text>
</a>
</g>
</g>
<!-- dir_f7024513cd67abef53e86ee9382ac5ce&#45;&gt;dir_5815af820a9cc9481f1d0990a0d60286 -->
<g id="edge26" class="edge"><title>dir_f7024513cd67abef53e86ee9382ac5ce&#45;&gt;dir_5815af820a9cc9481f1d0990a0d60286</title>
<path fill="none" stroke="black" d="M60.8433,-287.97C85.2541,-246.833 152.256,-140.401 230,-72 246.214,-57.7343 266.84,-45.3493 284.354,-36.1467"/>
<polygon fill="black" stroke="black" points="286.4,-39.0324 293.717,-31.3699 283.218,-32.7972 286.4,-39.0324"/>
<g id="a_edge26&#45;headlabel"><a xlink:href="dir_000058_000053.xhtml" target="_top" xlink:title="3">
<text text-anchor="middle" x="284.488" y="-40.6952" font-family="Helvetica,sans-Serif" font-size="10.00">3</text>
</a>
</g>
</g>
<!-- dir_420d2db1b9c99f59825a3985434c3703 -->
<g id="node3" class="node"><title>dir_420d2db1b9c99f59825a3985434c3703</title>
<g id="a_node3"><a xlink:href="dir_420d2db1b9c99f59825a3985434c3703.xhtml" target="_top" xlink:title="CPP">
<polygon fill="white" stroke="black" points="408,-324 354,-324 354,-288 408,-288 408,-324"/>
<text text-anchor="middle" x="381" y="-303.5" font-family="Helvetica,sans-Serif" font-size="10.00">CPP</text>
</a>
</g>
</g>
<!-- dir_445738e6fed662d0b65e690e3f1e1de0 -->
<g id="node9" class="node"><title>dir_445738e6fed662d0b65e690e3f1e1de0</title>
<g id="a_node9"><a xlink:href="dir_445738e6fed662d0b65e690e3f1e1de0.xhtml" target="_top" xlink:title="NEON">
<polygon fill="none" stroke="black" points="880,-252 826,-252 826,-216 880,-216 880,-252"/>
<text text-anchor="middle" x="853" y="-231.5" font-family="Helvetica,sans-Serif" font-size="10.00">NEON</text>
</a>
</g>
</g>
<!-- dir_420d2db1b9c99f59825a3985434c3703&#45;&gt;dir_445738e6fed662d0b65e690e3f1e1de0 -->
<g id="edge34" class="edge"><title>dir_420d2db1b9c99f59825a3985434c3703&#45;&gt;dir_445738e6fed662d0b65e690e3f1e1de0</title>
<path fill="none" stroke="black" d="M408.138,-290.979C411.077,-289.826 414.066,-288.8 417,-288 587.082,-241.654 640.852,-294.241 812,-252 813.262,-251.688 814.537,-251.344 815.815,-250.973"/>
<polygon fill="black" stroke="black" points="817.229,-254.19 825.594,-247.688 815,-247.554 817.229,-254.19"/>
<g id="a_edge34&#45;headlabel"><a xlink:href="dir_000067_000063.xhtml" target="_top" xlink:title="1">
<text text-anchor="middle" x="814.726" y="-255.526" font-family="Helvetica,sans-Serif" font-size="10.00">1</text>
</a>
</g>
</g>
<!-- dir_420d2db1b9c99f59825a3985434c3703&#45;&gt;dir_9e71e2da941d3cafc4d98a9f6ae3de4f -->
<g id="edge35" class="edge"><title>dir_420d2db1b9c99f59825a3985434c3703&#45;&gt;dir_9e71e2da941d3cafc4d98a9f6ae3de4f</title>
<path fill="none" stroke="black" d="M408.193,-291.166C411.12,-289.977 414.092,-288.891 417,-288 517.189,-257.311 548.392,-277.603 650,-252 651.473,-251.629 652.965,-251.231 654.467,-250.811"/>
<polygon fill="black" stroke="black" points="655.866,-254.044 664.415,-247.786 653.829,-247.347 655.866,-254.044"/>
<g id="a_edge35&#45;headlabel"><a xlink:href="dir_000067_000021.xhtml" target="_top" xlink:title="3">
<text text-anchor="middle" x="653.252" y="-255.306" font-family="Helvetica,sans-Serif" font-size="10.00">3</text>
</a>
</g>
</g>
<!-- dir_420d2db1b9c99f59825a3985434c3703&#45;&gt;dir_214608ef36d61442cb2b0c1c4e9a7def -->
<g id="edge36" class="edge"><title>dir_420d2db1b9c99f59825a3985434c3703&#45;&gt;dir_214608ef36d61442cb2b0c1c4e9a7def</title>
<path fill="none" stroke="black" d="M408.126,-290.934C411.067,-289.791 414.06,-288.778 417,-288 467.847,-274.547 853.251,-290.58 889,-252 925.476,-212.636 881.704,-170.434 835,-144 779.234,-112.437 705.776,-99.6585 657.048,-94.4925"/>
<polygon fill="black" stroke="black" points="657.337,-91.0041 647.041,-93.5017 656.648,-97.97 657.337,-91.0041"/>
<g id="a_edge36&#45;headlabel"><a xlink:href="dir_000067_000000.xhtml" target="_top" xlink:title="4">
<text text-anchor="middle" x="661.194" y="-86.0327" font-family="Helvetica,sans-Serif" font-size="10.00">4</text>
</a>
</g>
</g>
<!-- dir_fbdf7bf92663091dc4d5520df638c068 -->
<g id="node4" class="node"><title>dir_fbdf7bf92663091dc4d5520df638c068</title>
<g id="a_node4"><a xlink:href="dir_fbdf7bf92663091dc4d5520df638c068.xhtml" target="_top" xlink:title="GLES_COMPUTE">
<polygon fill="white" stroke="red" points="263.5,-324 168.5,-324 168.5,-288 263.5,-288 263.5,-324"/>
<text text-anchor="middle" x="216" y="-303.5" font-family="Helvetica,sans-Serif" font-size="10.00">GLES_COMPUTE</text>
</a>
</g>
</g>
<!-- dir_fbdf7bf92663091dc4d5520df638c068&#45;&gt;dir_9e71e2da941d3cafc4d98a9f6ae3de4f -->
<g id="edge4" class="edge"><title>dir_fbdf7bf92663091dc4d5520df638c068&#45;&gt;dir_9e71e2da941d3cafc4d98a9f6ae3de4f</title>
<path fill="none" stroke="black" d="M263.726,-290.032C266.848,-289.28 269.959,-288.593 273,-288 438.208,-255.795 485.658,-288.369 650,-252 651.484,-251.672 652.984,-251.311 654.493,-250.923"/>
<polygon fill="black" stroke="black" points="655.839,-254.178 664.475,-248.04 653.896,-247.453 655.839,-254.178"/>
<g id="a_edge4&#45;headlabel"><a xlink:href="dir_000059_000021.xhtml" target="_top" xlink:title="53">
<text text-anchor="middle" x="653.173" y="-255.403" font-family="Helvetica,sans-Serif" font-size="10.00">53</text>
</a>
</g>
</g>
<!-- dir_7365e77196b52ca311bb83f181e59b8c -->
<g id="node11" class="node"><title>dir_7365e77196b52ca311bb83f181e59b8c</title>
<g id="a_node11"><a xlink:href="dir_7365e77196b52ca311bb83f181e59b8c.xhtml" target="_top" xlink:title="GLES_COMPUTE">
<polygon fill="none" stroke="black" points="607.5,-252 512.5,-252 512.5,-216 607.5,-216 607.5,-252"/>
<text text-anchor="middle" x="560" y="-231.5" font-family="Helvetica,sans-Serif" font-size="10.00">GLES_COMPUTE</text>
</a>
</g>
</g>
<!-- dir_fbdf7bf92663091dc4d5520df638c068&#45;&gt;dir_7365e77196b52ca311bb83f181e59b8c -->
<g id="edge5" class="edge"><title>dir_fbdf7bf92663091dc4d5520df638c068&#45;&gt;dir_7365e77196b52ca311bb83f181e59b8c</title>
<path fill="none" stroke="black" d="M263.772,-290.252C266.883,-289.446 269.979,-288.687 273,-288 372.608,-265.353 400.239,-273.962 500,-252 500.753,-251.834 501.511,-251.664 502.273,-251.491"/>
<polygon fill="black" stroke="black" points="503.417,-254.815 512.315,-249.063 501.772,-248.011 503.417,-254.815"/>
<g id="a_edge5&#45;headlabel"><a xlink:href="dir_000059_000062.xhtml" target="_top" xlink:title="20">
<text text-anchor="middle" x="500.59" y="-255.92" font-family="Helvetica,sans-Serif" font-size="10.00">20</text>
</a>
</g>
</g>
<!-- dir_fbdf7bf92663091dc4d5520df638c068&#45;&gt;dir_214608ef36d61442cb2b0c1c4e9a7def -->
<g id="edge6" class="edge"><title>dir_fbdf7bf92663091dc4d5520df638c068&#45;&gt;dir_214608ef36d61442cb2b0c1c4e9a7def</title>
<path fill="none" stroke="black" d="M263.732,-290.065C266.853,-289.305 269.962,-288.607 273,-288 348.155,-272.983 564.713,-308.952 616,-252 648.933,-215.429 631.492,-153.242 617.301,-117.812"/>
<polygon fill="black" stroke="black" points="620.343,-116.017 613.245,-108.152 613.889,-118.727 620.343,-116.017"/>
<g id="a_edge6&#45;headlabel"><a xlink:href="dir_000059_000000.xhtml" target="_top" xlink:title="75">
<text text-anchor="middle" x="624.353" y="-115.733" font-family="Helvetica,sans-Serif" font-size="10.00">75</text>
</a>
</g>
</g>
<!-- dir_fbdf7bf92663091dc4d5520df638c068&#45;&gt;dir_5815af820a9cc9481f1d0990a0d60286 -->
<g id="edge7" class="edge"><title>dir_fbdf7bf92663091dc4d5520df638c068&#45;&gt;dir_5815af820a9cc9481f1d0990a0d60286</title>
<path fill="none" stroke="black" d="M218.222,-287.771C223.866,-247.952 241.073,-147.205 279,-72 283.917,-62.2511 290.804,-52.5909 297.581,-44.2414"/>
<polygon fill="black" stroke="black" points="300.452,-46.2669 304.245,-36.3741 295.111,-41.7427 300.452,-46.2669"/>
<g id="a_edge7&#45;headlabel"><a xlink:href="dir_000059_000053.xhtml" target="_top" xlink:title="1">
<text text-anchor="middle" x="300.295" y="-48.3449" font-family="Helvetica,sans-Serif" font-size="10.00">1</text>
</a>
</g>
</g>
<!-- dir_0538a82dae0483a21d0f1e9d7e0a45c6 -->
<g id="node5" class="node"><title>dir_0538a82dae0483a21d0f1e9d7e0a45c6</title>
<g id="a_node5"><a xlink:href="dir_0538a82dae0483a21d0f1e9d7e0a45c6.xhtml" target="_top" xlink:title="NEON">
<polygon fill="white" stroke="red" points="150,-324 96,-324 96,-288 150,-288 150,-324"/>
<text text-anchor="middle" x="123" y="-303.5" font-family="Helvetica,sans-Serif" font-size="10.00">NEON</text>
</a>
</g>
</g>
<!-- dir_0538a82dae0483a21d0f1e9d7e0a45c6&#45;&gt;dir_46fdb196cebdbffe77dac340cde62f29 -->
<g id="edge27" class="edge"><title>dir_0538a82dae0483a21d0f1e9d7e0a45c6&#45;&gt;dir_46fdb196cebdbffe77dac340cde62f29</title>
<path fill="none" stroke="black" d="M150.379,-291.691C153.271,-290.4 156.183,-289.146 159,-288 196.814,-272.619 240.957,-257.73 272.263,-247.669"/>
<polygon fill="black" stroke="black" points="273.489,-250.952 281.953,-244.578 271.362,-244.283 273.489,-250.952"/>
<g id="a_edge27&#45;headlabel"><a xlink:href="dir_000060_000022.xhtml" target="_top" xlink:title="2">
<text text-anchor="middle" x="270.928" y="-252.25" font-family="Helvetica,sans-Serif" font-size="10.00">2</text>
</a>
</g>
</g>
<!-- dir_0538a82dae0483a21d0f1e9d7e0a45c6&#45;&gt;dir_445738e6fed662d0b65e690e3f1e1de0 -->
<g id="edge28" class="edge"><title>dir_0538a82dae0483a21d0f1e9d7e0a45c6&#45;&gt;dir_445738e6fed662d0b65e690e3f1e1de0</title>
<path fill="none" stroke="black" d="M150.115,-290.891C153.058,-289.756 156.055,-288.757 159,-288 409.576,-223.609 482.724,-279.271 740,-252 765.376,-249.31 793.78,-245.032 815.762,-241.44"/>
<polygon fill="black" stroke="black" points="816.393,-244.883 825.685,-239.794 815.247,-237.977 816.393,-244.883"/>
<g id="a_edge28&#45;headlabel"><a xlink:href="dir_000060_000063.xhtml" target="_top" xlink:title="92">
<text text-anchor="middle" x="813.311" y="-245.772" font-family="Helvetica,sans-Serif" font-size="10.00">92</text>
</a>
</g>
</g>
<!-- dir_0538a82dae0483a21d0f1e9d7e0a45c6&#45;&gt;dir_9e71e2da941d3cafc4d98a9f6ae3de4f -->
<g id="edge29" class="edge"><title>dir_0538a82dae0483a21d0f1e9d7e0a45c6&#45;&gt;dir_9e71e2da941d3cafc4d98a9f6ae3de4f</title>
<path fill="none" stroke="black" d="M150.128,-290.942C153.069,-289.797 156.061,-288.782 159,-288 355.898,-235.643 414.296,-280.737 616,-252 628.482,-250.222 641.917,-247.697 654.227,-245.137"/>
<polygon fill="black" stroke="black" points="655.209,-248.506 664.257,-242.993 653.746,-241.66 655.209,-248.506"/>
<g id="a_edge29&#45;headlabel"><a xlink:href="dir_000060_000021.xhtml" target="_top" xlink:title="226">
<text text-anchor="middle" x="652.288" y="-249.534" font-family="Helvetica,sans-Serif" font-size="10.00">226</text>
</a>
</g>
</g>
<!-- dir_0538a82dae0483a21d0f1e9d7e0a45c6&#45;&gt;dir_214608ef36d61442cb2b0c1c4e9a7def -->
<g id="edge30" class="edge"><title>dir_0538a82dae0483a21d0f1e9d7e0a45c6&#45;&gt;dir_214608ef36d61442cb2b0c1c4e9a7def</title>
<path fill="none" stroke="black" d="M150.162,-291.064C153.096,-289.895 156.077,-288.841 159,-288 288.48,-250.752 341.726,-316.528 460,-252 486.326,-237.637 483.19,-222.515 503,-200 529.188,-170.237 560.497,-137.126 581.458,-115.294"/>
<polygon fill="black" stroke="black" points="584.002,-117.698 588.415,-108.066 578.958,-112.844 584.002,-117.698"/>
<g id="a_edge30&#45;headlabel"><a xlink:href="dir_000060_000000.xhtml" target="_top" xlink:title="302">
<text text-anchor="middle" x="583.555" y="-119.757" font-family="Helvetica,sans-Serif" font-size="10.00">302</text>
</a>
</g>
</g>
<!-- dir_0538a82dae0483a21d0f1e9d7e0a45c6&#45;&gt;dir_5815af820a9cc9481f1d0990a0d60286 -->
<g id="edge31" class="edge"><title>dir_0538a82dae0483a21d0f1e9d7e0a45c6&#45;&gt;dir_5815af820a9cc9481f1d0990a0d60286</title>
<path fill="none" stroke="black" d="M130.892,-287.742C149.797,-247.436 200.626,-145.003 261,-72 269.667,-61.5205 280.473,-51.3094 290.518,-42.6923"/>
<polygon fill="black" stroke="black" points="292.922,-45.2447 298.355,-36.1488 288.435,-39.8715 292.922,-45.2447"/>
<g id="a_edge31&#45;headlabel"><a xlink:href="dir_000060_000053.xhtml" target="_top" xlink:title="2">
<text text-anchor="middle" x="291.983" y="-47.228" font-family="Helvetica,sans-Serif" font-size="10.00">2</text>
</a>
</g>
</g>
<!-- dir_46fdb196cebdbffe77dac340cde62f29&#45;&gt;dir_9e71e2da941d3cafc4d98a9f6ae3de4f -->
<g id="edge1" class="edge"><title>dir_46fdb196cebdbffe77dac340cde62f29&#45;&gt;dir_9e71e2da941d3cafc4d98a9f6ae3de4f</title>
<path fill="none" stroke="black" d="M344.44,-245.357C403.672,-265.036 535.344,-300.572 641,-270 650.165,-267.348 659.272,-262.735 667.43,-257.678"/>
<polygon fill="black" stroke="black" points="669.463,-260.53 675.867,-252.089 665.597,-254.694 669.463,-260.53"/>
<g id="a_edge1&#45;headlabel"><a xlink:href="dir_000022_000021.xhtml" target="_top" xlink:title="3">
<text text-anchor="middle" x="668.035" y="-262.382" font-family="Helvetica,sans-Serif" font-size="10.00">3</text>
</a>
</g>
</g>
<!-- dir_46fdb196cebdbffe77dac340cde62f29&#45;&gt;dir_214608ef36d61442cb2b0c1c4e9a7def -->
<g id="edge2" class="edge"><title>dir_46fdb196cebdbffe77dac340cde62f29&#45;&gt;dir_214608ef36d61442cb2b0c1c4e9a7def</title>
<path fill="none" stroke="black" d="M338.734,-215.882C353.646,-205.76 372.646,-192.51 389,-180 408.797,-164.857 410.093,-155.887 432,-144 470.071,-123.342 517.32,-109.562 552.816,-101.243"/>
<polygon fill="black" stroke="black" points="553.987,-104.567 562.964,-98.9383 552.437,-97.7404 553.987,-104.567"/>
<g id="a_edge2&#45;headlabel"><a xlink:href="dir_000022_000000.xhtml" target="_top" xlink:title="49">
<text text-anchor="middle" x="551.111" y="-105.631" font-family="Helvetica,sans-Serif" font-size="10.00">49</text>
</a>
</g>
</g>
<!-- dir_46fdb196cebdbffe77dac340cde62f29&#45;&gt;dir_5815af820a9cc9481f1d0990a0d60286 -->
<g id="edge3" class="edge"><title>dir_46fdb196cebdbffe77dac340cde62f29&#45;&gt;dir_5815af820a9cc9481f1d0990a0d60286</title>
<path fill="none" stroke="black" d="M313.641,-215.849C315.025,-178.832 318.302,-91.1809 319.976,-46.3863"/>
<polygon fill="black" stroke="black" points="323.48,-46.3563 320.356,-36.2325 316.485,-46.0947 323.48,-46.3563"/>
<g id="a_edge3&#45;headlabel"><a xlink:href="dir_000022_000053.xhtml" target="_top" xlink:title="2">
<text text-anchor="middle" x="326.183" y="-47.5544" font-family="Helvetica,sans-Serif" font-size="10.00">2</text>
</a>
</g>
</g>
<!-- dir_0c108762cda89b68d4571cbbabdf46df -->
<g id="node7" class="node"><title>dir_0c108762cda89b68d4571cbbabdf46df</title>
<g id="a_node7"><a xlink:href="dir_0c108762cda89b68d4571cbbabdf46df.xhtml" target="_top" xlink:title="UNIT">
<polygon fill="white" stroke="black" points="336,-324 282,-324 282,-288 336,-288 336,-324"/>
<text text-anchor="middle" x="309" y="-303.5" font-family="Helvetica,sans-Serif" font-size="10.00">UNIT</text>
</a>
</g>
</g>
<!-- dir_cbdb8362360e11eafe2fa3bc74cf0ffd -->
<g id="node8" class="node"><title>dir_cbdb8362360e11eafe2fa3bc74cf0ffd</title>
<g id="a_node8"><a xlink:href="dir_cbdb8362360e11eafe2fa3bc74cf0ffd.xhtml" target="_top" xlink:title="utils">
<polygon fill="white" stroke="red" points="725,-180 671,-180 671,-144 725,-144 725,-180"/>
<text text-anchor="middle" x="698" y="-159.5" font-family="Helvetica,sans-Serif" font-size="10.00">utils</text>
</a>
</g>
</g>
<!-- dir_0c108762cda89b68d4571cbbabdf46df&#45;&gt;dir_cbdb8362360e11eafe2fa3bc74cf0ffd -->
<g id="edge16" class="edge"><title>dir_0c108762cda89b68d4571cbbabdf46df&#45;&gt;dir_cbdb8362360e11eafe2fa3bc74cf0ffd</title>
<path fill="none" stroke="black" d="M336.138,-290.979C339.077,-289.826 342.066,-288.8 345,-288 430.041,-264.827 680.57,-317.093 740,-252 755.583,-234.932 749.515,-221.062 740,-200 737.957,-195.478 735.058,-191.288 731.726,-187.477"/>
<polygon fill="black" stroke="black" points="733.972,-184.774 724.413,-180.203 729.035,-189.737 733.972,-184.774"/>
<g id="a_edge16&#45;headlabel"><a xlink:href="dir_000071_000023.xhtml" target="_top" xlink:title="3">
<text text-anchor="middle" x="738.522" y="-182.796" font-family="Helvetica,sans-Serif" font-size="10.00">3</text>
</a>
</g>
</g>
<!-- dir_0c108762cda89b68d4571cbbabdf46df&#45;&gt;dir_9e71e2da941d3cafc4d98a9f6ae3de4f -->
<g id="edge17" class="edge"><title>dir_0c108762cda89b68d4571cbbabdf46df&#45;&gt;dir_9e71e2da941d3cafc4d98a9f6ae3de4f</title>
<path fill="none" stroke="black" d="M336.161,-291.059C339.095,-289.891 342.077,-288.839 345,-288 476.206,-250.366 517.065,-282.977 650,-252 651.48,-251.655 652.977,-251.28 654.483,-250.88"/>
<polygon fill="black" stroke="black" points="655.85,-254.126 664.452,-247.942 653.871,-247.412 655.85,-254.126"/>
<g id="a_edge17&#45;headlabel"><a xlink:href="dir_000071_000021.xhtml" target="_top" xlink:title="13">
<text text-anchor="middle" x="653.204" y="-255.366" font-family="Helvetica,sans-Serif" font-size="10.00">13</text>
</a>
</g>
</g>
<!-- dir_0c108762cda89b68d4571cbbabdf46df&#45;&gt;dir_214608ef36d61442cb2b0c1c4e9a7def -->
<g id="edge18" class="edge"><title>dir_0c108762cda89b68d4571cbbabdf46df&#45;&gt;dir_214608ef36d61442cb2b0c1c4e9a7def</title>
<path fill="none" stroke="black" d="M336.135,-290.966C339.074,-289.816 342.064,-288.793 345,-288 434.149,-263.906 696.593,-320.069 759,-252 792.295,-215.684 769.358,-178.311 734,-144 712.891,-123.517 682.768,-110.539 656.938,-102.555"/>
<polygon fill="black" stroke="black" points="657.857,-99.1776 647.277,-99.7352 655.896,-105.897 657.857,-99.1776"/>
<g id="a_edge18&#45;headlabel"><a xlink:href="dir_000071_000000.xhtml" target="_top" xlink:title="4">
<text text-anchor="middle" x="662.103" y="-94.9593" font-family="Helvetica,sans-Serif" font-size="10.00">4</text>
</a>
</g>
</g>
<!-- dir_0c108762cda89b68d4571cbbabdf46df&#45;&gt;dir_5815af820a9cc9481f1d0990a0d60286 -->
<g id="edge19" class="edge"><title>dir_0c108762cda89b68d4571cbbabdf46df&#45;&gt;dir_5815af820a9cc9481f1d0990a0d60286</title>
<path fill="none" stroke="black" d="M293.39,-287.774C285.627,-278.03 277.054,-265.184 273,-252 250.428,-178.598 285.967,-88.9062 307.11,-45.3099"/>
<polygon fill="black" stroke="black" points="310.304,-46.748 311.629,-36.2363 304.038,-43.6274 310.304,-46.748"/>
<g id="a_edge19&#45;headlabel"><a xlink:href="dir_000071_000053.xhtml" target="_top" xlink:title="1">
<text text-anchor="middle" x="311.243" y="-48.7313" font-family="Helvetica,sans-Serif" font-size="10.00">1</text>
</a>
</g>
</g>
<!-- dir_cbdb8362360e11eafe2fa3bc74cf0ffd&#45;&gt;dir_214608ef36d61442cb2b0c1c4e9a7def -->
<g id="edge8" class="edge"><title>dir_cbdb8362360e11eafe2fa3bc74cf0ffd&#45;&gt;dir_214608ef36d61442cb2b0c1c4e9a7def</title>
<path fill="none" stroke="black" d="M670.883,-144.941C657.893,-135.934 642.534,-124.534 629.852,-114.536"/>
<polygon fill="black" stroke="black" points="631.948,-111.731 621.956,-108.208 627.571,-117.193 631.948,-111.731"/>
<g id="a_edge8&#45;headlabel"><a xlink:href="dir_000023_000000.xhtml" target="_top" xlink:title="36">
<text text-anchor="middle" x="636.529" y="-109.263" font-family="Helvetica,sans-Serif" font-size="10.00">36</text>
</a>
</g>
</g>
<!-- dir_cbdb8362360e11eafe2fa3bc74cf0ffd&#45;&gt;dir_5815af820a9cc9481f1d0990a0d60286 -->
<g id="edge9" class="edge"><title>dir_cbdb8362360e11eafe2fa3bc74cf0ffd&#45;&gt;dir_5815af820a9cc9481f1d0990a0d60286</title>
<path fill="none" stroke="black" d="M694.915,-143.877C690.262,-123.349 679.375,-89.5271 656,-72 609.487,-37.1236 435.416,-24.5172 358.242,-20.5755"/>
<polygon fill="black" stroke="black" points="358.177,-17.0683 348.018,-20.0754 357.835,-24.0599 358.177,-17.0683"/>
<g id="a_edge9&#45;headlabel"><a xlink:href="dir_000023_000053.xhtml" target="_top" xlink:title="3">
<text text-anchor="middle" x="361.906" y="-11.9079" font-family="Helvetica,sans-Serif" font-size="10.00">3</text>
</a>
</g>
</g>
<!-- dir_445738e6fed662d0b65e690e3f1e1de0&#45;&gt;dir_214608ef36d61442cb2b0c1c4e9a7def -->
<g id="edge10" class="edge"><title>dir_445738e6fed662d0b65e690e3f1e1de0&#45;&gt;dir_214608ef36d61442cb2b0c1c4e9a7def</title>
<path fill="none" stroke="black" d="M848.932,-215.875C843.233,-195.667 830.905,-162.486 808,-144 765.005,-109.301 701.692,-97.1145 657.233,-92.9443"/>
<polygon fill="black" stroke="black" points="657.461,-89.4513 647.205,-92.1089 656.88,-96.4272 657.461,-89.4513"/>
<g id="a_edge10&#45;headlabel"><a xlink:href="dir_000063_000000.xhtml" target="_top" xlink:title="6">
<text text-anchor="middle" x="661.279" y="-84.4202" font-family="Helvetica,sans-Serif" font-size="10.00">6</text>
</a>
</g>
</g>
<!-- dir_445738e6fed662d0b65e690e3f1e1de0&#45;&gt;dir_5815af820a9cc9481f1d0990a0d60286 -->
<g id="edge11" class="edge"><title>dir_445738e6fed662d0b65e690e3f1e1de0&#45;&gt;dir_5815af820a9cc9481f1d0990a0d60286</title>
<path fill="none" stroke="black" d="M853.428,-215.702C853.07,-196.53 849.936,-165.488 835,-144 800.367,-94.1751 776.125,-92.461 719,-72 592.599,-26.7261 431.099,-19.5767 358.871,-18.8119"/>
<polygon fill="black" stroke="black" points="358.494,-15.3093 348.47,-18.7403 358.446,-22.3091 358.494,-15.3093"/>
<g id="a_edge11&#45;headlabel"><a xlink:href="dir_000063_000053.xhtml" target="_top" xlink:title="1">
<text text-anchor="middle" x="362.108" y="-9.99475" font-family="Helvetica,sans-Serif" font-size="10.00">1</text>
</a>
</g>
</g>
<!-- dir_9e71e2da941d3cafc4d98a9f6ae3de4f&#45;&gt;dir_cbdb8362360e11eafe2fa3bc74cf0ffd -->
<g id="edge12" class="edge"><title>dir_9e71e2da941d3cafc4d98a9f6ae3de4f&#45;&gt;dir_cbdb8362360e11eafe2fa3bc74cf0ffd</title>
<path fill="none" stroke="black" d="M698,-215.697C698,-207.983 698,-198.712 698,-190.112"/>
<polygon fill="black" stroke="black" points="701.5,-190.104 698,-180.104 694.5,-190.104 701.5,-190.104"/>
<g id="a_edge12&#45;headlabel"><a xlink:href="dir_000021_000023.xhtml" target="_top" xlink:title="3">
<text text-anchor="middle" x="704.339" y="-191.199" font-family="Helvetica,sans-Serif" font-size="10.00">3</text>
</a>
</g>
</g>
<!-- dir_9e71e2da941d3cafc4d98a9f6ae3de4f&#45;&gt;dir_214608ef36d61442cb2b0c1c4e9a7def -->
<g id="edge13" class="edge"><title>dir_9e71e2da941d3cafc4d98a9f6ae3de4f&#45;&gt;dir_214608ef36d61442cb2b0c1c4e9a7def</title>
<path fill="none" stroke="black" d="M686.209,-215.893C679.122,-205.549 669.963,-192.071 662,-180 648.062,-158.871 632.593,-134.669 621.291,-116.842"/>
<polygon fill="black" stroke="black" points="624.096,-114.729 615.791,-108.15 618.181,-118.472 624.096,-114.729"/>
<g id="a_edge13&#45;headlabel"><a xlink:href="dir_000021_000000.xhtml" target="_top" xlink:title="13">
<text text-anchor="middle" x="628.418" y="-113.748" font-family="Helvetica,sans-Serif" font-size="10.00">13</text>
</a>
</g>
</g>
<!-- dir_9e71e2da941d3cafc4d98a9f6ae3de4f&#45;&gt;dir_5815af820a9cc9481f1d0990a0d60286 -->
<g id="edge14" class="edge"><title>dir_9e71e2da941d3cafc4d98a9f6ae3de4f&#45;&gt;dir_5815af820a9cc9481f1d0990a0d60286</title>
<path fill="none" stroke="black" d="M713.61,-215.774C721.373,-206.03 729.946,-193.184 734,-180 749.547,-129.442 728.972,-99.8452 684,-72 629.975,-38.5492 439.628,-25.045 358.297,-20.7155"/>
<polygon fill="black" stroke="black" points="358.19,-17.2055 348.024,-20.1869 357.831,-24.1962 358.19,-17.2055"/>
<g id="a_edge14&#45;headlabel"><a xlink:href="dir_000021_000053.xhtml" target="_top" xlink:title="7">
<text text-anchor="middle" x="361.926" y="-12.0546" font-family="Helvetica,sans-Serif" font-size="10.00">7</text>
</a>
</g>
</g>
<!-- dir_7365e77196b52ca311bb83f181e59b8c&#45;&gt;dir_214608ef36d61442cb2b0c1c4e9a7def -->
<g id="edge15" class="edge"><title>dir_7365e77196b52ca311bb83f181e59b8c&#45;&gt;dir_214608ef36d61442cb2b0c1c4e9a7def</title>
<path fill="none" stroke="black" d="M565.428,-215.871C573.131,-191.564 587.311,-146.819 596.439,-118.013"/>
<polygon fill="black" stroke="black" points="599.868,-118.779 599.553,-108.189 593.195,-116.665 599.868,-118.779"/>
<g id="a_edge15&#45;headlabel"><a xlink:href="dir_000062_000000.xhtml" target="_top" xlink:title="3">
<text text-anchor="middle" x="601.489" y="-120.564" font-family="Helvetica,sans-Serif" font-size="10.00">3</text>
</a>
</g>
</g>
<!-- dir_214608ef36d61442cb2b0c1c4e9a7def&#45;&gt;dir_cbdb8362360e11eafe2fa3bc74cf0ffd -->
<g id="edge20" class="edge"><title>dir_214608ef36d61442cb2b0c1c4e9a7def&#45;&gt;dir_cbdb8362360e11eafe2fa3bc74cf0ffd</title>
<path fill="none" stroke="black" d="M633.619,-108.104C646.212,-116.889 660.794,-127.732 672.952,-137.309"/>
<polygon fill="black" stroke="black" points="670.934,-140.177 680.927,-143.697 675.31,-134.714 670.934,-140.177"/>
<g id="a_edge20&#45;headlabel"><a xlink:href="dir_000000_000023.xhtml" target="_top" xlink:title="1">
<text text-anchor="middle" x="666.353" y="-137.646" font-family="Helvetica,sans-Serif" font-size="10.00">1</text>
</a>
</g>
</g>
<!-- dir_214608ef36d61442cb2b0c1c4e9a7def&#45;&gt;dir_5815af820a9cc9481f1d0990a0d60286 -->
<g id="edge21" class="edge"><title>dir_214608ef36d61442cb2b0c1c4e9a7def&#45;&gt;dir_5815af820a9cc9481f1d0990a0d60286</title>
<path fill="none" stroke="black" d="M562.789,-78.5959C507.307,-64.9208 410.728,-41.1162 357.982,-28.1152"/>
<polygon fill="black" stroke="black" points="358.589,-24.6602 348.042,-25.6652 356.914,-31.4568 358.589,-24.6602"/>
<g id="a_edge21&#45;headlabel"><a xlink:href="dir_000000_000053.xhtml" target="_top" xlink:title="20">
<text text-anchor="middle" x="362.758" y="-20.2636" font-family="Helvetica,sans-Serif" font-size="10.00">20</text>
</a>
</g>
</g>
<!-- dir_896191444cf08ec8ade6f88256cb2bdd&#45;&gt;dir_214608ef36d61442cb2b0c1c4e9a7def -->
<g id="edge32" class="edge"><title>dir_896191444cf08ec8ade6f88256cb2bdd&#45;&gt;dir_214608ef36d61442cb2b0c1c4e9a7def</title>
<path fill="none" stroke="black" d="M380.136,-149.094C384.721,-147.272 389.464,-145.501 394,-144 447.28,-126.369 509.794,-111.349 552.873,-101.85"/>
<polygon fill="black" stroke="black" points="553.821,-105.225 562.844,-99.6731 552.328,-98.3865 553.821,-105.225"/>
<g id="a_edge32&#45;headlabel"><a xlink:href="dir_000061_000000.xhtml" target="_top" xlink:title="5">
<text text-anchor="middle" x="550.915" y="-106.266" font-family="Helvetica,sans-Serif" font-size="10.00">5</text>
</a>
</g>
</g>
<!-- dir_896191444cf08ec8ade6f88256cb2bdd&#45;&gt;dir_5815af820a9cc9481f1d0990a0d60286 -->
<g id="edge33" class="edge"><title>dir_896191444cf08ec8ade6f88256cb2bdd&#45;&gt;dir_5815af820a9cc9481f1d0990a0d60286</title>
<path fill="none" stroke="black" d="M349.14,-143.871C343.662,-119.564 333.579,-74.8187 327.087,-46.0132"/>
<polygon fill="black" stroke="black" points="330.486,-45.1752 324.874,-36.1893 323.658,-46.7141 330.486,-45.1752"/>
<g id="a_edge33&#45;headlabel"><a xlink:href="dir_000061_000053.xhtml" target="_top" xlink:title="1">
<text text-anchor="middle" x="334.046" y="-45.5577" font-family="Helvetica,sans-Serif" font-size="10.00">1</text>
</a>
</g>
</g>
</g>
</svg>
