<?xml version="1.0" encoding="UTF-8" standalone="no"?>
<!DOCTYPE svg PUBLIC "-//W3C//DTD SVG 1.1//EN"
 "http://www.w3.org/Graphics/SVG/1.1/DTD/svg11.dtd">
<!-- Generated by graphviz version 2.38.0 (20140413.2041)
 -->
<!-- Title: arm_compute/core/utils Pages: 1 -->
<svg width="422pt" height="183pt"
 viewBox="0.00 0.00 422.00 183.00" xmlns="http://www.w3.org/2000/svg" xmlns:xlink="http://www.w3.org/1999/xlink">
<g id="graph0" class="graph" transform="scale(1 1) rotate(0) translate(4 179)">
<title>arm_compute/core/utils</title>
<polygon fill="white" stroke="none" points="-4,4 -4,-179 418,-179 418,4 -4,4"/>
<g id="clust1" class="cluster"><title>clusterdir_1fb090f0c6070330bfaccc4236d3ca0d</title>
<g id="a_clust1"><a xlink:href="dir_1fb090f0c6070330bfaccc4236d3ca0d.xhtml" target="_top" xlink:title="core">
<polygon fill="#ddddee" stroke="black" points="8,-8 8,-167 352,-167 352,-8 8,-8"/>
<text text-anchor="middle" x="180" y="-155" font-family="Helvetica,sans-Serif" font-size="10.00">core</text>
</a>
</g>
</g>
<g id="clust2" class="cluster"><title>clusterdir_7b0825b7536eda12b63e5d87347b1c7d</title>
<g id="a_clust2"><a xlink:href="dir_7b0825b7536eda12b63e5d87347b1c7d.xhtml" target="_top">
<polygon fill="#eeeeff" stroke="black" points="16,-16 16,-140 344,-140 344,-16 16,-16"/>
</a>
</g>
</g>
<!-- dir_7b0825b7536eda12b63e5d87347b1c7d -->
<g id="node1" class="node"><title>dir_7b0825b7536eda12b63e5d87347b1c7d</title>
<text text-anchor="middle" x="309" y="-111.5" font-family="Helvetica,sans-Serif" font-size="10.00">utils</text>
</g>
<!-- dir_4165fcd8206cc52fde421ae1f1275b40 -->
<g id="node2" class="node"><title>dir_4165fcd8206cc52fde421ae1f1275b40</title>
<g id="a_node2"><a xlink:href="dir_4165fcd8206cc52fde421ae1f1275b40.xhtml" target="_top" xlink:title="io">
<polygon fill="white" stroke="black" points="264,-60 210,-60 210,-24 264,-24 264,-60"/>
<text text-anchor="middle" x="237" y="-39.5" font-family="Helvetica,sans-Serif" font-size="10.00">io</text>
</a>
</g>
</g>
<!-- dir_e575b855d3e83e3374bc2a6f9bf89d98 -->
<g id="node3" class="node"><title>dir_e575b855d3e83e3374bc2a6f9bf89d98</title>
<g id="a_node3"><a xlink:href="dir_e575b855d3e83e3374bc2a6f9bf89d98.xhtml" target="_top" xlink:title="logging">
<polygon fill="white" stroke="black" points="264,-132 210,-132 210,-96 264,-96 264,-132"/>
<text text-anchor="middle" x="237" y="-111.5" font-family="Helvetica,sans-Serif" font-size="10.00">logging</text>
</a>
</g>
</g>
<!-- dir_e575b855d3e83e3374bc2a6f9bf89d98&#45;&gt;dir_4165fcd8206cc52fde421ae1f1275b40 -->
<g id="edge2" class="edge"><title>dir_e575b855d3e83e3374bc2a6f9bf89d98&#45;&gt;dir_4165fcd8206cc52fde421ae1f1275b40</title>
<path fill="none" stroke="black" d="M237,-95.6966C237,-87.9827 237,-78.7125 237,-70.1124"/>
<polygon fill="black" stroke="black" points="240.5,-70.1043 237,-60.1043 233.5,-70.1044 240.5,-70.1043"/>
<g id="a_edge2&#45;headlabel"><a xlink:href="dir_000009_000024.xhtml" target="_top" xlink:title="1">
<text text-anchor="middle" x="243.339" y="-71.199" font-family="Helvetica,sans-Serif" font-size="10.00">1</text>
</a>
</g>
</g>
<!-- dir_5815af820a9cc9481f1d0990a0d60286 -->
<g id="node7" class="node"><title>dir_5815af820a9cc9481f1d0990a0d60286</title>
<g id="a_node7"><a xlink:href="dir_5815af820a9cc9481f1d0990a0d60286.xhtml" target="_top" xlink:title="support">
<polygon fill="none" stroke="black" points="414,-60 360,-60 360,-24 414,-24 414,-60"/>
<text text-anchor="middle" x="387" y="-39.5" font-family="Helvetica,sans-Serif" font-size="10.00">support</text>
</a>
</g>
</g>
<!-- dir_e575b855d3e83e3374bc2a6f9bf89d98&#45;&gt;dir_5815af820a9cc9481f1d0990a0d60286 -->
<g id="edge3" class="edge"><title>dir_e575b855d3e83e3374bc2a6f9bf89d98&#45;&gt;dir_5815af820a9cc9481f1d0990a0d60286</title>
<path fill="none" stroke="black" d="M264.119,-100.173C267.114,-98.7621 270.121,-97.349 273,-96 298.94,-83.8454 328.247,-70.2226 350.65,-59.832"/>
<polygon fill="black" stroke="black" points="352.199,-62.9721 359.799,-55.5905 349.254,-56.6214 352.199,-62.9721"/>
<g id="a_edge3&#45;headlabel"><a xlink:href="dir_000009_000053.xhtml" target="_top" xlink:title="3">
<text text-anchor="middle" x="350.132" y="-64.5599" font-family="Helvetica,sans-Serif" font-size="10.00">3</text>
</a>
</g>
</g>
<!-- dir_cab437ca4f6ec1fbc573ae83f91b2654 -->
<g id="node4" class="node"><title>dir_cab437ca4f6ec1fbc573ae83f91b2654</title>
<g id="a_node4"><a xlink:href="dir_cab437ca4f6ec1fbc573ae83f91b2654.xhtml" target="_top" xlink:title="misc">
<polygon fill="white" stroke="black" points="88,-60 34,-60 34,-24 88,-24 88,-60"/>
<text text-anchor="middle" x="61" y="-39.5" font-family="Helvetica,sans-Serif" font-size="10.00">misc</text>
</a>
</g>
</g>
<!-- dir_4dbf711d3d3ef9d1292a532e836709c1 -->
<g id="node5" class="node"><title>dir_4dbf711d3d3ef9d1292a532e836709c1</title>
<g id="a_node5"><a xlink:href="dir_4dbf711d3d3ef9d1292a532e836709c1.xhtml" target="_top" xlink:title="quantization">
<polygon fill="white" stroke="black" points="192,-132 116,-132 116,-96 192,-96 192,-132"/>
<text text-anchor="middle" x="154" y="-111.5" font-family="Helvetica,sans-Serif" font-size="10.00">quantization</text>
</a>
</g>
</g>
<!-- dir_4f17730e234c0f44aa1a4a309fc35bea -->
<g id="node6" class="node"><title>dir_4f17730e234c0f44aa1a4a309fc35bea</title>
<g id="a_node6"><a xlink:href="dir_4f17730e234c0f44aa1a4a309fc35bea.xhtml" target="_top" xlink:title="strong_type">
<polygon fill="white" stroke="black" points="98,-132 24,-132 24,-96 98,-96 98,-132"/>
<text text-anchor="middle" x="61" y="-111.5" font-family="Helvetica,sans-Serif" font-size="10.00">strong_type</text>
</a>
</g>
</g>
<!-- dir_4f17730e234c0f44aa1a4a309fc35bea&#45;&gt;dir_cab437ca4f6ec1fbc573ae83f91b2654 -->
<g id="edge1" class="edge"><title>dir_4f17730e234c0f44aa1a4a309fc35bea&#45;&gt;dir_cab437ca4f6ec1fbc573ae83f91b2654</title>
<path fill="none" stroke="black" d="M61,-95.6966C61,-87.9827 61,-78.7125 61,-70.1124"/>
<polygon fill="black" stroke="black" points="64.5001,-70.1043 61,-60.1043 57.5001,-70.1044 64.5001,-70.1043"/>
<g id="a_edge1&#45;headlabel"><a xlink:href="dir_000029_000027.xhtml" target="_top" xlink:title="1">
<text text-anchor="middle" x="67.3393" y="-71.199" font-family="Helvetica,sans-Serif" font-size="10.00">1</text>
</a>
</g>
</g>
</g>
</svg>
