<?xml version="1.0" encoding="UTF-8" standalone="no"?>
<!DOCTYPE svg PUBLIC "-//W3C//DTD SVG 1.1//EN"
 "http://www.w3.org/Graphics/SVG/1.1/DTD/svg11.dtd">
<!-- Generated by graphviz version 2.38.0 (20140413.2041)
 -->
<!-- Title: CLComplexPixelWiseMultiplication Pages: 1 -->
<svg width="184pt" height="140pt"
 viewBox="0.00 0.00 184.00 140.00" xmlns="http://www.w3.org/2000/svg" xmlns:xlink="http://www.w3.org/1999/xlink">
<g id="graph0" class="graph" transform="scale(1 1) rotate(0) translate(4 136)">
<title>CLComplexPixelWiseMultiplication</title>
<polygon fill="white" stroke="none" points="-4,4 -4,-136 180,-136 180,4 -4,4"/>
<!-- Node0 -->
<g id="node1" class="node"><title>Node0</title>
<g id="a_node1"><a xlink:title="Basic function to run CLComplexPixelWiseMultiplicationKernel.">
<polygon fill="#bfbfbf" stroke="black" points="-1.42109e-14,-0.5 -1.42109e-14,-19.5 176,-19.5 176,-0.5 -1.42109e-14,-0.5"/>
<text text-anchor="middle" x="88" y="-7.5" font-family="Helvetica,sans-Serif" font-size="10.00">CLComplexPixelWiseMultiplication</text>
</a>
</g>
</g>
<!-- Node1 -->
<g id="node2" class="node"><title>Node1</title>
<g id="a_node2"><a xlink:href="classarm__compute_1_1_i_c_l_simple_function.xhtml" target="_top" xlink:title="Basic interface for functions which have a single OpenCL kernel.">
<polygon fill="white" stroke="black" points="36,-56.5 36,-75.5 140,-75.5 140,-56.5 36,-56.5"/>
<text text-anchor="middle" x="88" y="-63.5" font-family="Helvetica,sans-Serif" font-size="10.00">ICLSimpleFunction</text>
</a>
</g>
</g>
<!-- Node1&#45;&gt;Node0 -->
<g id="edge1" class="edge"><title>Node1&#45;&gt;Node0</title>
<path fill="none" stroke="midnightblue" d="M88,-45.8045C88,-36.9102 88,-26.7798 88,-19.7511"/>
<polygon fill="midnightblue" stroke="midnightblue" points="84.5001,-46.083 88,-56.083 91.5001,-46.083 84.5001,-46.083"/>
</g>
<!-- Node2 -->
<g id="node3" class="node"><title>Node2</title>
<g id="a_node3"><a xlink:href="classarm__compute_1_1_i_function.xhtml" target="_top" xlink:title="Base class for all functions.">
<polygon fill="white" stroke="black" points="58.5,-112.5 58.5,-131.5 117.5,-131.5 117.5,-112.5 58.5,-112.5"/>
<text text-anchor="middle" x="88" y="-119.5" font-family="Helvetica,sans-Serif" font-size="10.00">IFunction</text>
</a>
</g>
</g>
<!-- Node2&#45;&gt;Node1 -->
<g id="edge2" class="edge"><title>Node2&#45;&gt;Node1</title>
<path fill="none" stroke="midnightblue" d="M88,-101.805C88,-92.9102 88,-82.7798 88,-75.7511"/>
<polygon fill="midnightblue" stroke="midnightblue" points="84.5001,-102.083 88,-112.083 91.5001,-102.083 84.5001,-102.083"/>
</g>
</g>
</svg>
