<?xml version="1.0" encoding="UTF-8" standalone="no"?>
<!DOCTYPE svg PUBLIC "-//W3C//DTD SVG 1.1//EN"
 "http://www.w3.org/Graphics/SVG/1.1/DTD/svg11.dtd">
<!-- Generated by graphviz version 2.38.0 (20140413.2041)
 -->
<!-- Title: NDCoordinate&lt; N &gt; Pages: 1 -->
<svg width="122pt" height="152pt"
 viewBox="0.00 0.00 122.00 152.00" xmlns="http://www.w3.org/2000/svg" xmlns:xlink="http://www.w3.org/1999/xlink">
<g id="graph0" class="graph" transform="scale(1 1) rotate(0) translate(4 148)">
<title>NDCoordinate&lt; N &gt;</title>
<polygon fill="white" stroke="none" points="-4,4 -4,-148 118,-148 118,4 -4,4"/>
<!-- Node0 -->
<g id="node1" class="node"><title>Node0</title>
<g id="a_node1"><a xlink:title="NDCoordinate builds upon a range, but specifies a starting position in addition to a size which it in...">
<polygon fill="#bfbfbf" stroke="black" points="0,-0.5 0,-19.5 114,-19.5 114,-0.5 0,-0.5"/>
<text text-anchor="middle" x="57" y="-7.5" font-family="Helvetica,sans-Serif" font-size="10.00">NDCoordinate&lt; N &gt;</text>
</a>
</g>
</g>
<!-- Node1 -->
<g id="node2" class="node"><title>Node1</title>
<g id="a_node2"><a xlink:href="classarm__gemm_1_1_n_d_range.xhtml" target="_top" xlink:title=" ">
<polygon fill="white" stroke="black" points="11,-57.5 11,-76.5 103,-76.5 103,-57.5 11,-57.5"/>
<text text-anchor="middle" x="57" y="-64.5" font-family="Helvetica,sans-Serif" font-size="10.00">NDRange&lt; N &gt;</text>
</a>
</g>
</g>
<!-- Node1&#45;&gt;Node0 -->
<g id="edge1" class="edge"><title>Node1&#45;&gt;Node0</title>
<path fill="none" stroke="midnightblue" d="M57,-47.1166C57,-37.8173 57,-27.0557 57,-19.7149"/>
<polygon fill="midnightblue" stroke="midnightblue" points="53.5001,-47.4062 57,-57.4062 60.5001,-47.4063 53.5001,-47.4062"/>
</g>
<!-- Node2 -->
<g id="node3" class="node"><title>Node2</title>
<g id="a_node3"><a xlink:href="classarm__gemm_1_1_n_d_range.xhtml" target="_top" xlink:title=" ">
<polygon fill="white" stroke="black" points="11,-124.5 11,-143.5 103,-143.5 103,-124.5 11,-124.5"/>
<text text-anchor="middle" x="57" y="-131.5" font-family="Helvetica,sans-Serif" font-size="10.00">NDRange&lt; D &gt;</text>
</a>
</g>
</g>
<!-- Node2&#45;&gt;Node1 -->
<g id="edge2" class="edge"><title>Node2&#45;&gt;Node1</title>
<path fill="none" stroke="orange" stroke-dasharray="5,2" d="M57,-114.037C57,-101.67 57,-86.1198 57,-76.6273"/>
<polygon fill="orange" stroke="orange" points="53.5001,-114.234 57,-124.234 60.5001,-114.234 53.5001,-114.234"/>
<text text-anchor="middle" x="74" y="-98" font-family="Helvetica,sans-Serif" font-size="10.00"> &lt; N &gt;</text>
</g>
</g>
</svg>
