<?xml version="1.0" encoding="UTF-8" standalone="no"?>
<!DOCTYPE svg PUBLIC "-//W3C//DTD SVG 1.1//EN"
 "http://www.w3.org/Graphics/SVG/1.1/DTD/svg11.dtd">
<!-- Generated by graphviz version 2.38.0 (20140413.2041)
 -->
<!-- Title: GCTensor Pages: 1 -->
<svg width="206pt" height="140pt"
 viewBox="0.00 0.00 206.00 140.00" xmlns="http://www.w3.org/2000/svg" xmlns:xlink="http://www.w3.org/1999/xlink">
<g id="graph0" class="graph" transform="scale(1 1) rotate(0) translate(4 136)">
<title>GCTensor</title>
<polygon fill="white" stroke="none" points="-4,4 -4,-136 202,-136 202,4 -4,4"/>
<!-- Node0 -->
<g id="node1" class="node"><title>Node0</title>
<g id="a_node1"><a xlink:title="Interface for OpenGL ES tensor.">
<polygon fill="#bfbfbf" stroke="black" points="55,-0.5 55,-19.5 117,-19.5 117,-0.5 55,-0.5"/>
<text text-anchor="middle" x="86" y="-7.5" font-family="Helvetica,sans-Serif" font-size="10.00">GCTensor</text>
</a>
</g>
</g>
<!-- Node1 -->
<g id="node2" class="node"><title>Node1</title>
<g id="a_node2"><a xlink:href="classarm__compute_1_1_i_g_c_tensor.xhtml" target="_top" xlink:title="Interface for GLES Compute tensor.">
<polygon fill="white" stroke="black" points="0,-56.5 0,-75.5 64,-75.5 64,-56.5 0,-56.5"/>
<text text-anchor="middle" x="32" y="-63.5" font-family="Helvetica,sans-Serif" font-size="10.00">IGCTensor</text>
</a>
</g>
</g>
<!-- Node1&#45;&gt;Node0 -->
<g id="edge1" class="edge"><title>Node1&#45;&gt;Node0</title>
<path fill="none" stroke="midnightblue" d="M47.9976,-49.0024C57.5671,-39.4329 69.3611,-27.6389 77.2489,-19.7511"/>
<polygon fill="midnightblue" stroke="midnightblue" points="45.5132,-46.537 40.917,-56.083 50.463,-51.4868 45.5132,-46.537"/>
</g>
<!-- Node2 -->
<g id="node3" class="node"><title>Node2</title>
<g id="a_node3"><a xlink:href="classarm__compute_1_1_i_tensor.xhtml" target="_top" xlink:title="Interface for NEON tensor.">
<polygon fill="white" stroke="black" points="7,-112.5 7,-131.5 57,-131.5 57,-112.5 7,-112.5"/>
<text text-anchor="middle" x="32" y="-119.5" font-family="Helvetica,sans-Serif" font-size="10.00">ITensor</text>
</a>
</g>
</g>
<!-- Node2&#45;&gt;Node1 -->
<g id="edge2" class="edge"><title>Node2&#45;&gt;Node1</title>
<path fill="none" stroke="midnightblue" d="M32,-101.805C32,-92.9102 32,-82.7798 32,-75.7511"/>
<polygon fill="midnightblue" stroke="midnightblue" points="28.5001,-102.083 32,-112.083 35.5001,-102.083 28.5001,-102.083"/>
</g>
<!-- Node3 -->
<g id="node4" class="node"><title>Node3</title>
<g id="a_node4"><a xlink:href="classarm__compute_1_1_i_memory_manageable.xhtml" target="_top" xlink:title="Interface of an object than can be memory managed.">
<polygon fill="white" stroke="black" points="82,-56.5 82,-75.5 198,-75.5 198,-56.5 82,-56.5"/>
<text text-anchor="middle" x="140" y="-63.5" font-family="Helvetica,sans-Serif" font-size="10.00">IMemoryManageable</text>
</a>
</g>
</g>
<!-- Node3&#45;&gt;Node0 -->
<g id="edge3" class="edge"><title>Node3&#45;&gt;Node0</title>
<path fill="none" stroke="midnightblue" d="M124.002,-49.0024C114.433,-39.4329 102.639,-27.6389 94.7511,-19.7511"/>
<polygon fill="midnightblue" stroke="midnightblue" points="121.537,-51.4868 131.083,-56.083 126.487,-46.537 121.537,-51.4868"/>
</g>
</g>
</svg>
