<?xml version="1.0" encoding="UTF-8" standalone="no"?>
<!DOCTYPE svg PUBLIC "-//W3C//DTD SVG 1.1//EN"
 "http://www.w3.org/Graphics/SVG/1.1/DTD/svg11.dtd">
<!-- Generated by graphviz version 2.38.0 (20140413.2041)
 -->
<!-- Title: src/runtime/CPP Pages: 1 -->
<svg width="188pt" height="231pt"
 viewBox="0.00 0.00 188.00 231.00" xmlns="http://www.w3.org/2000/svg" xmlns:xlink="http://www.w3.org/1999/xlink">
<g id="graph0" class="graph" transform="scale(1 1) rotate(0) translate(4 227)">
<title>src/runtime/CPP</title>
<polygon fill="white" stroke="none" points="-4,4 -4,-227 184,-227 184,4 -4,4"/>
<g id="clust1" class="cluster"><title>clusterdir_bf9f26469d00835ba20ff8d80ee5a804</title>
<g id="a_clust1"><a xlink:href="dir_bf9f26469d00835ba20ff8d80ee5a804.xhtml" target="_top" xlink:title="runtime">
<polygon fill="#ddddee" stroke="black" points="8,-128 8,-215 172,-215 172,-128 8,-128"/>
<text text-anchor="middle" x="90" y="-203" font-family="Helvetica,sans-Serif" font-size="10.00">runtime</text>
</a>
</g>
</g>
<g id="clust2" class="cluster"><title>clusterdir_9240672d44dfdb0f539b385a1f058d2d</title>
<g id="a_clust2"><a xlink:href="dir_9240672d44dfdb0f539b385a1f058d2d.xhtml" target="_top">
<polygon fill="#eeeeff" stroke="black" points="16,-136 16,-188 164,-188 164,-136 16,-136"/>
</a>
</g>
</g>
<!-- dir_9240672d44dfdb0f539b385a1f058d2d -->
<g id="node1" class="node"><title>dir_9240672d44dfdb0f539b385a1f058d2d</title>
<text text-anchor="middle" x="51" y="-159.5" font-family="Helvetica,sans-Serif" font-size="10.00">CPP</text>
</g>
<!-- dir_214608ef36d61442cb2b0c1c4e9a7def -->
<g id="node3" class="node"><title>dir_214608ef36d61442cb2b0c1c4e9a7def</title>
<g id="a_node3"><a xlink:href="dir_214608ef36d61442cb2b0c1c4e9a7def.xhtml" target="_top" xlink:title="arm_compute">
<polygon fill="white" stroke="red" points="131,-108 47,-108 47,-72 131,-72 131,-108"/>
<text text-anchor="middle" x="89" y="-87.5" font-family="Helvetica,sans-Serif" font-size="10.00">arm_compute</text>
</a>
</g>
</g>
<!-- dir_9240672d44dfdb0f539b385a1f058d2d&#45;&gt;dir_214608ef36d61442cb2b0c1c4e9a7def -->
<g id="edge4" class="edge"><title>dir_9240672d44dfdb0f539b385a1f058d2d&#45;&gt;dir_214608ef36d61442cb2b0c1c4e9a7def</title>
<path fill="none" stroke="black" d="M60.3933,-143.697C64.7649,-135.644 70.0573,-125.894 74.8953,-116.982"/>
<polygon fill="black" stroke="black" points="78.0198,-118.563 79.7148,-108.104 71.8678,-115.223 78.0198,-118.563"/>
<g id="a_edge4&#45;headlabel"><a xlink:href="dir_000157_000000.xhtml" target="_top" xlink:title="31">
<text text-anchor="middle" x="78.8002" y="-120.576" font-family="Helvetica,sans-Serif" font-size="10.00">31</text>
</a>
</g>
</g>
<!-- dir_5815af820a9cc9481f1d0990a0d60286 -->
<g id="node4" class="node"><title>dir_5815af820a9cc9481f1d0990a0d60286</title>
<g id="a_node4"><a xlink:href="dir_5815af820a9cc9481f1d0990a0d60286.xhtml" target="_top" xlink:title="support">
<polygon fill="none" stroke="black" points="116,-36 62,-36 62,-0 116,-0 116,-36"/>
<text text-anchor="middle" x="89" y="-15.5" font-family="Helvetica,sans-Serif" font-size="10.00">support</text>
</a>
</g>
</g>
<!-- dir_9240672d44dfdb0f539b385a1f058d2d&#45;&gt;dir_5815af820a9cc9481f1d0990a0d60286 -->
<g id="edge5" class="edge"><title>dir_9240672d44dfdb0f539b385a1f058d2d&#45;&gt;dir_5815af820a9cc9481f1d0990a0d60286</title>
<path fill="none" stroke="black" d="M43.4611,-143.982C36.4551,-125.598 28.4277,-95.7529 38,-72 42.3487,-61.209 50.0618,-51.3859 58.1937,-43.2085"/>
<polygon fill="black" stroke="black" points="60.7903,-45.572 65.695,-36.1808 56.0044,-40.4636 60.7903,-45.572"/>
<g id="a_edge5&#45;headlabel"><a xlink:href="dir_000157_000166.xhtml" target="_top" xlink:title="5">
<text text-anchor="middle" x="60.1082" y="-47.6016" font-family="Helvetica,sans-Serif" font-size="10.00">5</text>
</a>
</g>
</g>
<!-- dir_8f7fe1d9d655d949f37b90c9cd0a7992 -->
<g id="node2" class="node"><title>dir_8f7fe1d9d655d949f37b90c9cd0a7992</title>
<g id="a_node2"><a xlink:href="dir_8f7fe1d9d655d949f37b90c9cd0a7992.xhtml" target="_top" xlink:title="functions">
<polygon fill="white" stroke="black" points="156,-180 96,-180 96,-144 156,-144 156,-180"/>
<text text-anchor="middle" x="126" y="-159.5" font-family="Helvetica,sans-Serif" font-size="10.00">functions</text>
</a>
</g>
</g>
<!-- dir_8f7fe1d9d655d949f37b90c9cd0a7992&#45;&gt;dir_214608ef36d61442cb2b0c1c4e9a7def -->
<g id="edge1" class="edge"><title>dir_8f7fe1d9d655d949f37b90c9cd0a7992&#45;&gt;dir_214608ef36d61442cb2b0c1c4e9a7def</title>
<path fill="none" stroke="black" d="M116.854,-143.697C112.597,-135.644 107.444,-125.894 102.734,-116.982"/>
<polygon fill="black" stroke="black" points="105.808,-115.31 98.0409,-108.104 99.6197,-118.581 105.808,-115.31"/>
<g id="a_edge1&#45;headlabel"><a xlink:href="dir_000158_000000.xhtml" target="_top" xlink:title="19">
<text text-anchor="middle" x="109.998" y="-114.661" font-family="Helvetica,sans-Serif" font-size="10.00">19</text>
</a>
</g>
</g>
<!-- dir_8f7fe1d9d655d949f37b90c9cd0a7992&#45;&gt;dir_5815af820a9cc9481f1d0990a0d60286 -->
<g id="edge2" class="edge"><title>dir_8f7fe1d9d655d949f37b90c9cd0a7992&#45;&gt;dir_5815af820a9cc9481f1d0990a0d60286</title>
<path fill="none" stroke="black" d="M133.84,-143.997C141.146,-125.627 149.588,-95.7925 140,-72 135.651,-61.209 127.938,-51.3859 119.806,-43.2085"/>
<polygon fill="black" stroke="black" points="121.996,-40.4636 112.305,-36.1808 117.21,-45.572 121.996,-40.4636"/>
<g id="a_edge2&#45;headlabel"><a xlink:href="dir_000158_000166.xhtml" target="_top" xlink:title="4">
<text text-anchor="middle" x="126.56" y="-38.3491" font-family="Helvetica,sans-Serif" font-size="10.00">4</text>
</a>
</g>
</g>
<!-- dir_214608ef36d61442cb2b0c1c4e9a7def&#45;&gt;dir_5815af820a9cc9481f1d0990a0d60286 -->
<g id="edge3" class="edge"><title>dir_214608ef36d61442cb2b0c1c4e9a7def&#45;&gt;dir_5815af820a9cc9481f1d0990a0d60286</title>
<path fill="none" stroke="black" d="M89,-71.6966C89,-63.9827 89,-54.7125 89,-46.1124"/>
<polygon fill="black" stroke="black" points="92.5001,-46.1043 89,-36.1043 85.5001,-46.1044 92.5001,-46.1043"/>
<g id="a_edge3&#45;headlabel"><a xlink:href="dir_000000_000166.xhtml" target="_top" xlink:title="24">
<text text-anchor="middle" x="95.3393" y="-47.199" font-family="Helvetica,sans-Serif" font-size="10.00">24</text>
</a>
</g>
</g>
</g>
</svg>
