<?xml version="1.0" encoding="UTF-8" standalone="no"?>
<!DOCTYPE svg PUBLIC "-//W3C//DTD SVG 1.1//EN"
 "http://www.w3.org/Graphics/SVG/1.1/DTD/svg11.dtd">
<!-- Generated by graphviz version 2.38.0 (20140413.2041)
 -->
<!-- Title: arm_compute/runtime/CL Pages: 1 -->
<svg width="254pt" height="375pt"
 viewBox="0.00 0.00 254.00 375.00" xmlns="http://www.w3.org/2000/svg" xmlns:xlink="http://www.w3.org/1999/xlink">
<g id="graph0" class="graph" transform="scale(1 1) rotate(0) translate(4 371)">
<title>arm_compute/runtime/CL</title>
<polygon fill="white" stroke="none" points="-4,4 -4,-371 250,-371 250,4 -4,4"/>
<g id="clust1" class="cluster"><title>clusterdir_8bc26130589aa16388b5a02f17abf2c2</title>
<g id="a_clust1"><a xlink:href="dir_8bc26130589aa16388b5a02f17abf2c2.xhtml" target="_top" xlink:title="runtime">
<polygon fill="#ddddee" stroke="black" points="8,-200 8,-359 238,-359 238,-200 8,-200"/>
<text text-anchor="middle" x="123" y="-347" font-family="Helvetica,sans-Serif" font-size="10.00">runtime</text>
</a>
</g>
</g>
<g id="clust2" class="cluster"><title>clusterdir_b986aa98f9b6490bb4fc7918500346fb</title>
<g id="a_clust2"><a xlink:href="dir_b986aa98f9b6490bb4fc7918500346fb.xhtml" target="_top">
<polygon fill="#eeeeff" stroke="black" points="16,-208 16,-332 230,-332 230,-208 16,-208"/>
</a>
</g>
</g>
<!-- dir_b986aa98f9b6490bb4fc7918500346fb -->
<g id="node1" class="node"><title>dir_b986aa98f9b6490bb4fc7918500346fb</title>
<text text-anchor="middle" x="51" y="-303.5" font-family="Helvetica,sans-Serif" font-size="10.00">CL</text>
</g>
<!-- dir_251c63bc3f70b60acf43edd6d870a3ef -->
<g id="node2" class="node"><title>dir_251c63bc3f70b60acf43edd6d870a3ef</title>
<g id="a_node2"><a xlink:href="dir_251c63bc3f70b60acf43edd6d870a3ef.xhtml" target="_top" xlink:title="functions">
<polygon fill="white" stroke="black" points="164,-252 104,-252 104,-216 164,-216 164,-252"/>
<text text-anchor="middle" x="134" y="-231.5" font-family="Helvetica,sans-Serif" font-size="10.00">functions</text>
</a>
</g>
</g>
<!-- dir_b986aa98f9b6490bb4fc7918500346fb&#45;&gt;dir_251c63bc3f70b60acf43edd6d870a3ef -->
<g id="edge12" class="edge"><title>dir_b986aa98f9b6490bb4fc7918500346fb&#45;&gt;dir_251c63bc3f70b60acf43edd6d870a3ef</title>
<path fill="none" stroke="black" d="M71.5169,-287.697C81.8695,-278.965 94.5863,-268.24 105.839,-258.75"/>
<polygon fill="black" stroke="black" points="108.331,-261.227 113.719,-252.104 103.818,-255.876 108.331,-261.227"/>
<g id="a_edge12&#45;headlabel"><a xlink:href="dir_000004_000051.xhtml" target="_top" xlink:title="127">
<text text-anchor="middle" x="107.414" y="-263.215" font-family="Helvetica,sans-Serif" font-size="10.00">127</text>
</a>
</g>
</g>
<!-- dir_1fb090f0c6070330bfaccc4236d3ca0d -->
<g id="node6" class="node"><title>dir_1fb090f0c6070330bfaccc4236d3ca0d</title>
<g id="a_node6"><a xlink:href="dir_1fb090f0c6070330bfaccc4236d3ca0d.xhtml" target="_top" xlink:title="core">
<polygon fill="white" stroke="red" points="94,-180 40,-180 40,-144 94,-144 94,-180"/>
<text text-anchor="middle" x="67" y="-159.5" font-family="Helvetica,sans-Serif" font-size="10.00">core</text>
</a>
</g>
</g>
<!-- dir_b986aa98f9b6490bb4fc7918500346fb&#45;&gt;dir_1fb090f0c6070330bfaccc4236d3ca0d -->
<g id="edge13" class="edge"><title>dir_b986aa98f9b6490bb4fc7918500346fb&#45;&gt;dir_1fb090f0c6070330bfaccc4236d3ca0d</title>
<path fill="none" stroke="black" d="M52.634,-287.887C54.6565,-267.089 58.2899,-230.938 62,-200 62.3738,-196.883 62.7852,-193.62 63.2065,-190.38"/>
<polygon fill="black" stroke="black" points="66.6975,-190.679 64.5526,-180.304 59.7591,-189.752 66.6975,-190.679"/>
<g id="a_edge13&#45;headlabel"><a xlink:href="dir_000004_000001.xhtml" target="_top" xlink:title="265">
<text text-anchor="middle" x="69.0359" y="-192.118" font-family="Helvetica,sans-Serif" font-size="10.00">265</text>
</a>
</g>
</g>
<!-- dir_b496024afd63bafbf4e8da80d7d3a81a -->
<g id="node5" class="node"><title>dir_b496024afd63bafbf4e8da80d7d3a81a</title>
<g id="a_node5"><a xlink:href="dir_b496024afd63bafbf4e8da80d7d3a81a.xhtml" target="_top" xlink:title="CPP">
<polygon fill="white" stroke="red" points="94,-108 40,-108 40,-72 94,-72 94,-108"/>
<text text-anchor="middle" x="67" y="-87.5" font-family="Helvetica,sans-Serif" font-size="10.00">CPP</text>
</a>
</g>
</g>
<!-- dir_251c63bc3f70b60acf43edd6d870a3ef&#45;&gt;dir_b496024afd63bafbf4e8da80d7d3a81a -->
<g id="edge1" class="edge"><title>dir_251c63bc3f70b60acf43edd6d870a3ef&#45;&gt;dir_b496024afd63bafbf4e8da80d7d3a81a</title>
<path fill="none" stroke="black" d="M129.443,-215.731C124.273,-197.393 114.981,-167.827 103,-144 98.327,-134.707 92.2641,-125.131 86.4505,-116.719"/>
<polygon fill="black" stroke="black" points="89.2027,-114.55 80.5509,-108.434 83.5007,-118.61 89.2027,-114.55"/>
<g id="a_edge1&#45;headlabel"><a xlink:href="dir_000051_000055.xhtml" target="_top" xlink:title="3">
<text text-anchor="middle" x="93.6006" y="-113.331" font-family="Helvetica,sans-Serif" font-size="10.00">3</text>
</a>
</g>
</g>
<!-- dir_251c63bc3f70b60acf43edd6d870a3ef&#45;&gt;dir_1fb090f0c6070330bfaccc4236d3ca0d -->
<g id="edge2" class="edge"><title>dir_251c63bc3f70b60acf43edd6d870a3ef&#45;&gt;dir_1fb090f0c6070330bfaccc4236d3ca0d</title>
<path fill="none" stroke="black" d="M117.438,-215.697C109.325,-207.22 99.4123,-196.864 90.529,-187.583"/>
<polygon fill="black" stroke="black" points="92.8144,-184.908 83.3713,-180.104 87.7574,-189.749 92.8144,-184.908"/>
<g id="a_edge2&#45;headlabel"><a xlink:href="dir_000051_000001.xhtml" target="_top" xlink:title="217">
<text text-anchor="middle" x="97.351" y="-183.042" font-family="Helvetica,sans-Serif" font-size="10.00">217</text>
</a>
</g>
</g>
<!-- dir_b9621ae687ab229876c54f8c2df20e15 -->
<g id="node8" class="node"><title>dir_b9621ae687ab229876c54f8c2df20e15</title>
<g id="a_node8"><a xlink:href="dir_b9621ae687ab229876c54f8c2df20e15.xhtml" target="_top" xlink:title="common">
<polygon fill="none" stroke="black" points="171.5,-108 112.5,-108 112.5,-72 171.5,-72 171.5,-108"/>
<text text-anchor="middle" x="142" y="-87.5" font-family="Helvetica,sans-Serif" font-size="10.00">common</text>
</a>
</g>
</g>
<!-- dir_251c63bc3f70b60acf43edd6d870a3ef&#45;&gt;dir_b9621ae687ab229876c54f8c2df20e15 -->
<g id="edge3" class="edge"><title>dir_251c63bc3f70b60acf43edd6d870a3ef&#45;&gt;dir_b9621ae687ab229876c54f8c2df20e15</title>
<path fill="none" stroke="black" d="M134.965,-215.871C136.328,-191.67 138.833,-147.211 140.457,-118.393"/>
<polygon fill="black" stroke="black" points="143.963,-118.37 141.032,-108.189 136.975,-117.977 143.963,-118.37"/>
<g id="a_edge3&#45;headlabel"><a xlink:href="dir_000051_000054.xhtml" target="_top" xlink:title="3">
<text text-anchor="middle" x="146.596" y="-119.619" font-family="Helvetica,sans-Serif" font-size="10.00">3</text>
</a>
</g>
</g>
<!-- dir_35c778f9e168d1f6c6e37444598954fb -->
<g id="node3" class="node"><title>dir_35c778f9e168d1f6c6e37444598954fb</title>
<g id="a_node3"><a xlink:href="dir_35c778f9e168d1f6c6e37444598954fb.xhtml" target="_top" xlink:title="gemm">
<polygon fill="white" stroke="black" points="150,-324 96,-324 96,-288 150,-288 150,-324"/>
<text text-anchor="middle" x="123" y="-303.5" font-family="Helvetica,sans-Serif" font-size="10.00">gemm</text>
</a>
</g>
</g>
<!-- dir_50b23570393db6a4ca8647d7d5ff6dbe -->
<g id="node4" class="node"><title>dir_50b23570393db6a4ca8647d7d5ff6dbe</title>
<g id="a_node4"><a xlink:href="dir_50b23570393db6a4ca8647d7d5ff6dbe.xhtml" target="_top" xlink:title="tuners">
<polygon fill="white" stroke="black" points="222,-324 168,-324 168,-288 222,-288 222,-324"/>
<text text-anchor="middle" x="195" y="-303.5" font-family="Helvetica,sans-Serif" font-size="10.00">tuners</text>
</a>
</g>
</g>
<!-- dir_50b23570393db6a4ca8647d7d5ff6dbe&#45;&gt;dir_1fb090f0c6070330bfaccc4236d3ca0d -->
<g id="edge6" class="edge"><title>dir_50b23570393db6a4ca8647d7d5ff6dbe&#45;&gt;dir_1fb090f0c6070330bfaccc4236d3ca0d</title>
<path fill="none" stroke="black" d="M167.788,-291.908C139.986,-278.324 100.169,-258.211 95,-252 80.3993,-234.457 73.3887,-209.263 70.0361,-190.155"/>
<polygon fill="black" stroke="black" points="73.4936,-189.61 68.525,-180.253 66.5737,-190.666 73.4936,-189.61"/>
<g id="a_edge6&#45;headlabel"><a xlink:href="dir_000053_000001.xhtml" target="_top" xlink:title="3">
<text text-anchor="middle" x="76.8426" y="-190.235" font-family="Helvetica,sans-Serif" font-size="10.00">3</text>
</a>
</g>
</g>
<!-- dir_5815af820a9cc9481f1d0990a0d60286 -->
<g id="node7" class="node"><title>dir_5815af820a9cc9481f1d0990a0d60286</title>
<g id="a_node7"><a xlink:href="dir_5815af820a9cc9481f1d0990a0d60286.xhtml" target="_top" xlink:title="support">
<polygon fill="none" stroke="black" points="94,-36 40,-36 40,-0 94,-0 94,-36"/>
<text text-anchor="middle" x="67" y="-15.5" font-family="Helvetica,sans-Serif" font-size="10.00">support</text>
</a>
</g>
</g>
<!-- dir_50b23570393db6a4ca8647d7d5ff6dbe&#45;&gt;dir_5815af820a9cc9481f1d0990a0d60286 -->
<g id="edge7" class="edge"><title>dir_50b23570393db6a4ca8647d7d5ff6dbe&#45;&gt;dir_5815af820a9cc9481f1d0990a0d60286</title>
<path fill="none" stroke="black" d="M199.402,-287.918C208.975,-246.665 227.301,-139.997 181,-72 163.486,-46.2786 130.12,-32.7682 103.992,-25.8454"/>
<polygon fill="black" stroke="black" points="104.567,-22.3834 94.0237,-23.4237 102.915,-29.1856 104.567,-22.3834"/>
<g id="a_edge7&#45;headlabel"><a xlink:href="dir_000053_000166.xhtml" target="_top" xlink:title="1">
<text text-anchor="middle" x="108.731" y="-17.9729" font-family="Helvetica,sans-Serif" font-size="10.00">1</text>
</a>
</g>
</g>
<!-- dir_b496024afd63bafbf4e8da80d7d3a81a&#45;&gt;dir_1fb090f0c6070330bfaccc4236d3ca0d -->
<g id="edge4" class="edge"><title>dir_b496024afd63bafbf4e8da80d7d3a81a&#45;&gt;dir_1fb090f0c6070330bfaccc4236d3ca0d</title>
<path fill="none" stroke="black" d="M72.895,-108.104C73.7005,-115.791 73.9369,-125.054 73.604,-133.665"/>
<polygon fill="black" stroke="black" points="70.1085,-133.48 72.9157,-143.697 77.0921,-133.96 70.1085,-133.48"/>
<g id="a_edge4&#45;headlabel"><a xlink:href="dir_000055_000001.xhtml" target="_top" xlink:title="14">
<text text-anchor="middle" x="67.5219" y="-127.2" font-family="Helvetica,sans-Serif" font-size="10.00">14</text>
</a>
</g>
</g>
<!-- dir_b496024afd63bafbf4e8da80d7d3a81a&#45;&gt;dir_5815af820a9cc9481f1d0990a0d60286 -->
<g id="edge5" class="edge"><title>dir_b496024afd63bafbf4e8da80d7d3a81a&#45;&gt;dir_5815af820a9cc9481f1d0990a0d60286</title>
<path fill="none" stroke="black" d="M67,-71.6966C67,-63.9827 67,-54.7125 67,-46.1124"/>
<polygon fill="black" stroke="black" points="70.5001,-46.1043 67,-36.1043 63.5001,-46.1044 70.5001,-46.1043"/>
<g id="a_edge5&#45;headlabel"><a xlink:href="dir_000055_000166.xhtml" target="_top" xlink:title="1">
<text text-anchor="middle" x="73.3393" y="-47.199" font-family="Helvetica,sans-Serif" font-size="10.00">1</text>
</a>
</g>
</g>
<!-- dir_1fb090f0c6070330bfaccc4236d3ca0d&#45;&gt;dir_b496024afd63bafbf4e8da80d7d3a81a -->
<g id="edge8" class="edge"><title>dir_1fb090f0c6070330bfaccc4236d3ca0d&#45;&gt;dir_b496024afd63bafbf4e8da80d7d3a81a</title>
<path fill="none" stroke="black" d="M61.0843,-143.697C60.2886,-135.983 60.0621,-126.712 60.4047,-118.112"/>
<polygon fill="black" stroke="black" points="63.8984,-118.324 61.105,-108.104 56.9154,-117.836 63.8984,-118.324"/>
<g id="a_edge8&#45;headlabel"><a xlink:href="dir_000001_000055.xhtml" target="_top" xlink:title="1">
<text text-anchor="middle" x="66.4799" y="-119.608" font-family="Helvetica,sans-Serif" font-size="10.00">1</text>
</a>
</g>
</g>
<!-- dir_1fb090f0c6070330bfaccc4236d3ca0d&#45;&gt;dir_5815af820a9cc9481f1d0990a0d60286 -->
<g id="edge9" class="edge"><title>dir_1fb090f0c6070330bfaccc4236d3ca0d&#45;&gt;dir_5815af820a9cc9481f1d0990a0d60286</title>
<path fill="none" stroke="black" d="M51.3901,-143.774C43.6271,-134.03 35.0541,-121.184 31,-108 26.2972,-92.7067 26.2972,-87.2933 31,-72 34.0089,-62.2153 39.507,-52.6161 45.3157,-44.3336"/>
<polygon fill="black" stroke="black" points="48.1948,-46.3279 51.3901,-36.2264 42.5928,-42.1306 48.1948,-46.3279"/>
<g id="a_edge9&#45;headlabel"><a xlink:href="dir_000001_000166.xhtml" target="_top" xlink:title="14">
<text text-anchor="middle" x="48.3117" y="-48.4071" font-family="Helvetica,sans-Serif" font-size="10.00">14</text>
</a>
</g>
</g>
<!-- dir_1fb090f0c6070330bfaccc4236d3ca0d&#45;&gt;dir_b9621ae687ab229876c54f8c2df20e15 -->
<g id="edge10" class="edge"><title>dir_1fb090f0c6070330bfaccc4236d3ca0d&#45;&gt;dir_b9621ae687ab229876c54f8c2df20e15</title>
<path fill="none" stroke="black" d="M79.6236,-143.697C88.0778,-134.965 99.3974,-124.24 110.123,-114.75"/>
<polygon fill="black" stroke="black" points="112.522,-117.303 117.779,-108.104 107.933,-112.017 112.522,-117.303"/>
<g id="a_edge10&#45;headlabel"><a xlink:href="dir_000001_000054.xhtml" target="_top" xlink:title="1">
<text text-anchor="middle" x="111.669" y="-119.303" font-family="Helvetica,sans-Serif" font-size="10.00">1</text>
</a>
</g>
</g>
<!-- dir_b9621ae687ab229876c54f8c2df20e15&#45;&gt;dir_1fb090f0c6070330bfaccc4236d3ca0d -->
<g id="edge11" class="edge"><title>dir_b9621ae687ab229876c54f8c2df20e15&#45;&gt;dir_1fb090f0c6070330bfaccc4236d3ca0d</title>
<path fill="none" stroke="black" d="M129.569,-108.104C121.159,-116.805 109.856,-127.524 99.1218,-137.033"/>
<polygon fill="black" stroke="black" points="96.7065,-134.495 91.4551,-143.697 101.299,-139.778 96.7065,-134.495"/>
<g id="a_edge11&#45;headlabel"><a xlink:href="dir_000054_000001.xhtml" target="_top" xlink:title="3">
<text text-anchor="middle" x="97.5569" y="-127.494" font-family="Helvetica,sans-Serif" font-size="10.00">3</text>
</a>
</g>
</g>
</g>
</svg>
