<?xml version="1.0" encoding="UTF-8" standalone="no"?>
<!DOCTYPE svg PUBLIC "-//W3C//DTD SVG 1.1//EN"
 "http://www.w3.org/Graphics/SVG/1.1/DTD/svg11.dtd">
<!-- Generated by graphviz version 2.38.0 (20140413.2041)
 -->
<!-- Title: src/core/NEON/kernels/arm_gemm Pages: 1 -->
<svg width="374pt" height="231pt"
 viewBox="0.00 0.00 374.00 231.00" xmlns="http://www.w3.org/2000/svg" xmlns:xlink="http://www.w3.org/1999/xlink">
<g id="graph0" class="graph" transform="scale(1 1) rotate(0) translate(4 227)">
<title>src/core/NEON/kernels/arm_gemm</title>
<polygon fill="white" stroke="none" points="-4,4 -4,-227 370,-227 370,4 -4,4"/>
<g id="clust1" class="cluster"><title>clusterdir_1ce938f580a6f304b99685e2c1dd19db</title>
<g id="a_clust1"><a xlink:href="dir_1ce938f580a6f304b99685e2c1dd19db.xhtml" target="_top" xlink:title="kernels">
<polygon fill="#ddddee" stroke="black" points="8,-56 8,-215 254,-215 254,-56 8,-56"/>
<text text-anchor="middle" x="131" y="-203" font-family="Helvetica,sans-Serif" font-size="10.00">kernels</text>
</a>
</g>
</g>
<g id="clust2" class="cluster"><title>clusterdir_9847dd9cb7a28e46201717fa7336cf62</title>
<g id="a_clust2"><a xlink:href="dir_9847dd9cb7a28e46201717fa7336cf62.xhtml" target="_top">
<polygon fill="#eeeeff" stroke="black" points="16,-64 16,-188 246,-188 246,-64 16,-64"/>
</a>
</g>
</g>
<!-- dir_9847dd9cb7a28e46201717fa7336cf62 -->
<g id="node1" class="node"><title>dir_9847dd9cb7a28e46201717fa7336cf62</title>
<text text-anchor="middle" x="201" y="-159.5" font-family="Helvetica,sans-Serif" font-size="10.00">arm_gemm</text>
</g>
<!-- dir_1bfffff844e6b15c54f06f69450095a2 -->
<g id="node2" class="node"><title>dir_1bfffff844e6b15c54f06f69450095a2</title>
<g id="a_node2"><a xlink:href="dir_1bfffff844e6b15c54f06f69450095a2.xhtml" target="_top" xlink:title="kernels">
<polygon fill="white" stroke="red" points="78,-108 24,-108 24,-72 78,-72 78,-108"/>
<text text-anchor="middle" x="51" y="-87.5" font-family="Helvetica,sans-Serif" font-size="10.00">kernels</text>
</a>
</g>
</g>
<!-- dir_9847dd9cb7a28e46201717fa7336cf62&#45;&gt;dir_1bfffff844e6b15c54f06f69450095a2 -->
<g id="edge2" class="edge"><title>dir_9847dd9cb7a28e46201717fa7336cf62&#45;&gt;dir_1bfffff844e6b15c54f06f69450095a2</title>
<path fill="none" stroke="black" d="M164.265,-143.99C143.921,-134.553 117.97,-122.492 87.3288,-108.143"/>
<polygon fill="black" stroke="black" points="88.6589,-104.901 78.1186,-103.827 85.6887,-111.24 88.6589,-104.901"/>
<g id="a_edge2&#45;headlabel"><a xlink:href="dir_000082_000083.xhtml" target="_top" xlink:title="24">
<text text-anchor="middle" x="93.1186" y="-101.355" font-family="Helvetica,sans-Serif" font-size="10.00">24</text>
</a>
</g>
</g>
<!-- dir_736b7cb5ae91601e9fac1dc1b70c4612 -->
<g id="node3" class="node"><title>dir_736b7cb5ae91601e9fac1dc1b70c4612</title>
<g id="a_node3"><a xlink:href="dir_736b7cb5ae91601e9fac1dc1b70c4612.xhtml" target="_top" xlink:title="merges">
<polygon fill="white" stroke="black" points="150,-108 96,-108 96,-72 150,-72 150,-108"/>
<text text-anchor="middle" x="123" y="-87.5" font-family="Helvetica,sans-Serif" font-size="10.00">merges</text>
</a>
</g>
</g>
<!-- dir_9847dd9cb7a28e46201717fa7336cf62&#45;&gt;dir_736b7cb5ae91601e9fac1dc1b70c4612 -->
<g id="edge6" class="edge"><title>dir_9847dd9cb7a28e46201717fa7336cf62&#45;&gt;dir_736b7cb5ae91601e9fac1dc1b70c4612</title>
<path fill="none" stroke="black" d="M181.719,-143.697C172.085,-135.05 160.271,-124.449 149.773,-115.027"/>
<polygon fill="black" stroke="black" points="151.839,-112.179 142.059,-108.104 147.164,-117.388 151.839,-112.179"/>
<g id="a_edge6&#45;headlabel"><a xlink:href="dir_000082_000134.xhtml" target="_top" xlink:title="1">
<text text-anchor="middle" x="156.411" y="-109.966" font-family="Helvetica,sans-Serif" font-size="10.00">1</text>
</a>
</g>
</g>
<!-- dir_f11c7bbf76b3b5417003d346f29c89d2 -->
<g id="node4" class="node"><title>dir_f11c7bbf76b3b5417003d346f29c89d2</title>
<g id="a_node4"><a xlink:href="dir_f11c7bbf76b3b5417003d346f29c89d2.xhtml" target="_top" xlink:title="transforms">
<polygon fill="white" stroke="black" points="237.5,-108 168.5,-108 168.5,-72 237.5,-72 237.5,-108"/>
<text text-anchor="middle" x="203" y="-87.5" font-family="Helvetica,sans-Serif" font-size="10.00">transforms</text>
</a>
</g>
</g>
<!-- dir_9847dd9cb7a28e46201717fa7336cf62&#45;&gt;dir_f11c7bbf76b3b5417003d346f29c89d2 -->
<g id="edge4" class="edge"><title>dir_9847dd9cb7a28e46201717fa7336cf62&#45;&gt;dir_f11c7bbf76b3b5417003d346f29c89d2</title>
<path fill="none" stroke="black" d="M201.494,-143.697C201.715,-135.983 201.98,-126.712 202.225,-118.112"/>
<polygon fill="black" stroke="black" points="205.724,-118.2 202.511,-108.104 198.727,-118 205.724,-118.2"/>
<g id="a_edge4&#45;headlabel"><a xlink:href="dir_000082_000135.xhtml" target="_top" xlink:title="1">
<text text-anchor="middle" x="208.46" y="-119.374" font-family="Helvetica,sans-Serif" font-size="10.00">1</text>
</a>
</g>
</g>
<!-- dir_214608ef36d61442cb2b0c1c4e9a7def -->
<g id="node5" class="node"><title>dir_214608ef36d61442cb2b0c1c4e9a7def</title>
<g id="a_node5"><a xlink:href="dir_214608ef36d61442cb2b0c1c4e9a7def.xhtml" target="_top" xlink:title="arm_compute">
<polygon fill="white" stroke="red" points="346,-108 262,-108 262,-72 346,-72 346,-108"/>
<text text-anchor="middle" x="304" y="-87.5" font-family="Helvetica,sans-Serif" font-size="10.00">arm_compute</text>
</a>
</g>
</g>
<!-- dir_9847dd9cb7a28e46201717fa7336cf62&#45;&gt;dir_214608ef36d61442cb2b0c1c4e9a7def -->
<g id="edge3" class="edge"><title>dir_9847dd9cb7a28e46201717fa7336cf62&#45;&gt;dir_214608ef36d61442cb2b0c1c4e9a7def</title>
<path fill="none" stroke="black" d="M226.197,-143.876C239.414,-134.893 255.792,-123.763 270.107,-114.034"/>
<polygon fill="black" stroke="black" points="272.403,-116.705 278.707,-108.19 268.468,-110.916 272.403,-116.705"/>
<g id="a_edge3&#45;headlabel"><a xlink:href="dir_000082_000000.xhtml" target="_top" xlink:title="3">
<text text-anchor="middle" x="271.026" y="-118.574" font-family="Helvetica,sans-Serif" font-size="10.00">3</text>
</a>
</g>
</g>
<!-- dir_5815af820a9cc9481f1d0990a0d60286 -->
<g id="node6" class="node"><title>dir_5815af820a9cc9481f1d0990a0d60286</title>
<g id="a_node6"><a xlink:href="dir_5815af820a9cc9481f1d0990a0d60286.xhtml" target="_top" xlink:title="support">
<polygon fill="none" stroke="black" points="366,-36 312,-36 312,-0 366,-0 366,-36"/>
<text text-anchor="middle" x="339" y="-15.5" font-family="Helvetica,sans-Serif" font-size="10.00">support</text>
</a>
</g>
</g>
<!-- dir_9847dd9cb7a28e46201717fa7336cf62&#45;&gt;dir_5815af820a9cc9481f1d0990a0d60286 -->
<g id="edge5" class="edge"><title>dir_9847dd9cb7a28e46201717fa7336cf62&#45;&gt;dir_5815af820a9cc9481f1d0990a0d60286</title>
<path fill="none" stroke="black" d="M237.62,-159.862C274.131,-156.538 328.48,-145.174 355,-108 367.966,-89.8252 361.589,-64.3782 353.358,-45.3473"/>
<polygon fill="black" stroke="black" points="356.407,-43.6063 348.978,-36.0526 350.075,-46.5905 356.407,-43.6063"/>
<g id="a_edge5&#45;headlabel"><a xlink:href="dir_000082_000166.xhtml" target="_top" xlink:title="1">
<text text-anchor="middle" x="360.508" y="-43.1474" font-family="Helvetica,sans-Serif" font-size="10.00">1</text>
</a>
</g>
</g>
<!-- dir_214608ef36d61442cb2b0c1c4e9a7def&#45;&gt;dir_5815af820a9cc9481f1d0990a0d60286 -->
<g id="edge1" class="edge"><title>dir_214608ef36d61442cb2b0c1c4e9a7def&#45;&gt;dir_5815af820a9cc9481f1d0990a0d60286</title>
<path fill="none" stroke="black" d="M312.652,-71.6966C316.636,-63.7284 321.45,-54.0995 325.868,-45.2641"/>
<polygon fill="black" stroke="black" points="329.106,-46.6139 330.448,-36.1043 322.845,-43.4833 329.106,-46.6139"/>
<g id="a_edge1&#45;headlabel"><a xlink:href="dir_000000_000166.xhtml" target="_top" xlink:title="24">
<text text-anchor="middle" x="330.038" y="-48.5987" font-family="Helvetica,sans-Serif" font-size="10.00">24</text>
</a>
</g>
</g>
</g>
</svg>
