<?xml version="1.0" encoding="UTF-8" standalone="no"?>
<!DOCTYPE svg PUBLIC "-//W3C//DTD SVG 1.1//EN"
 "http://www.w3.org/Graphics/SVG/1.1/DTD/svg11.dtd">
<!-- Generated by graphviz version 2.38.0 (20140413.2041)
 -->
<!-- Title: arm_compute/core/NEON/kernels Pages: 1 -->
<svg width="274pt" height="231pt"
 viewBox="0.00 0.00 274.00 231.00" xmlns="http://www.w3.org/2000/svg" xmlns:xlink="http://www.w3.org/1999/xlink">
<g id="graph0" class="graph" transform="scale(1 1) rotate(0) translate(4 227)">
<title>arm_compute/core/NEON/kernels</title>
<polygon fill="white" stroke="none" points="-4,4 -4,-227 270,-227 270,4 -4,4"/>
<g id="clust1" class="cluster"><title>clusterdir_315f6cf1ec0b2df3ae747ff8286a19f5</title>
<g id="a_clust1"><a xlink:href="dir_315f6cf1ec0b2df3ae747ff8286a19f5.xhtml" target="_top" xlink:title="NEON">
<polygon fill="#ddddee" stroke="black" points="8,-128 8,-215 258,-215 258,-128 8,-128"/>
<text text-anchor="middle" x="133" y="-203" font-family="Helvetica,sans-Serif" font-size="10.00">NEON</text>
</a>
</g>
</g>
<g id="clust2" class="cluster"><title>clusterdir_2c3c4cb85e732569e2614ad40a451d53</title>
<g id="a_clust2"><a xlink:href="dir_2c3c4cb85e732569e2614ad40a451d53.xhtml" target="_top">
<polygon fill="#eeeeff" stroke="black" points="16,-136 16,-188 250,-188 250,-136 16,-136"/>
</a>
</g>
</g>
<!-- dir_2c3c4cb85e732569e2614ad40a451d53 -->
<g id="node1" class="node"><title>dir_2c3c4cb85e732569e2614ad40a451d53</title>
<text text-anchor="middle" x="51" y="-159.5" font-family="Helvetica,sans-Serif" font-size="10.00">kernels</text>
</g>
<!-- dir_5815af820a9cc9481f1d0990a0d60286 -->
<g id="node5" class="node"><title>dir_5815af820a9cc9481f1d0990a0d60286</title>
<g id="a_node5"><a xlink:href="dir_5815af820a9cc9481f1d0990a0d60286.xhtml" target="_top" xlink:title="support">
<polygon fill="none" stroke="black" points="115,-36 61,-36 61,-0 115,-0 115,-36"/>
<text text-anchor="middle" x="88" y="-15.5" font-family="Helvetica,sans-Serif" font-size="10.00">support</text>
</a>
</g>
</g>
<!-- dir_2c3c4cb85e732569e2614ad40a451d53&#45;&gt;dir_5815af820a9cc9481f1d0990a0d60286 -->
<g id="edge2" class="edge"><title>dir_2c3c4cb85e732569e2614ad40a451d53&#45;&gt;dir_5815af820a9cc9481f1d0990a0d60286</title>
<path fill="none" stroke="black" d="M48.3155,-143.812C46.1175,-125.543 44.4617,-96.0328 52,-72 55.0638,-62.2323 60.5773,-52.6379 66.3833,-44.3546"/>
<polygon fill="black" stroke="black" points="69.2623,-46.3489 72.4491,-36.2447 63.6568,-42.1562 69.2623,-46.3489"/>
<g id="a_edge2&#45;headlabel"><a xlink:href="dir_000027_000166.xhtml" target="_top" xlink:title="5">
<text text-anchor="middle" x="69.3829" y="-48.428" font-family="Helvetica,sans-Serif" font-size="10.00">5</text>
</a>
</g>
</g>
<!-- dir_7484b841a86f2d7fdd057c9b24fbf230 -->
<g id="node6" class="node"><title>dir_7484b841a86f2d7fdd057c9b24fbf230</title>
<g id="a_node6"><a xlink:href="dir_7484b841a86f2d7fdd057c9b24fbf230.xhtml" target="_top" xlink:title="CPP">
<polygon fill="white" stroke="red" points="115,-108 61,-108 61,-72 115,-72 115,-108"/>
<text text-anchor="middle" x="88" y="-87.5" font-family="Helvetica,sans-Serif" font-size="10.00">CPP</text>
</a>
</g>
</g>
<!-- dir_2c3c4cb85e732569e2614ad40a451d53&#45;&gt;dir_7484b841a86f2d7fdd057c9b24fbf230 -->
<g id="edge3" class="edge"><title>dir_2c3c4cb85e732569e2614ad40a451d53&#45;&gt;dir_7484b841a86f2d7fdd057c9b24fbf230</title>
<path fill="none" stroke="black" d="M60.1461,-143.697C64.4026,-135.644 69.5558,-125.894 74.2664,-116.982"/>
<polygon fill="black" stroke="black" points="77.3803,-118.581 78.9591,-108.104 71.1917,-115.31 77.3803,-118.581"/>
<g id="a_edge3&#45;headlabel"><a xlink:href="dir_000027_000010.xhtml" target="_top" xlink:title="2">
<text text-anchor="middle" x="78.2108" y="-120.586" font-family="Helvetica,sans-Serif" font-size="10.00">2</text>
</a>
</g>
</g>
<!-- dir_935916df83b9101b98876a0d1fdc2403 -->
<g id="node2" class="node"><title>dir_935916df83b9101b98876a0d1fdc2403</title>
<g id="a_node2"><a xlink:href="dir_935916df83b9101b98876a0d1fdc2403.xhtml" target="_top" xlink:title="arm_gemm">
<polygon fill="white" stroke="black" points="169.5,-180 96.5,-180 96.5,-144 169.5,-144 169.5,-180"/>
<text text-anchor="middle" x="133" y="-159.5" font-family="Helvetica,sans-Serif" font-size="10.00">arm_gemm</text>
</a>
</g>
</g>
<!-- dir_6b58bd0be07bddcf3022ab9b026cbf38 -->
<g id="node3" class="node"><title>dir_6b58bd0be07bddcf3022ab9b026cbf38</title>
<g id="a_node3"><a xlink:href="dir_6b58bd0be07bddcf3022ab9b026cbf38.xhtml" target="_top" xlink:title="detail">
<polygon fill="white" stroke="black" points="242,-180 188,-180 188,-144 242,-144 242,-180"/>
<text text-anchor="middle" x="215" y="-159.5" font-family="Helvetica,sans-Serif" font-size="10.00">detail</text>
</a>
</g>
</g>
<!-- dir_7b0825b7536eda12b63e5d87347b1c7d -->
<g id="node4" class="node"><title>dir_7b0825b7536eda12b63e5d87347b1c7d</title>
<g id="a_node4"><a xlink:href="dir_7b0825b7536eda12b63e5d87347b1c7d.xhtml" target="_top" xlink:title="utils">
<polygon fill="white" stroke="red" points="187,-108 133,-108 133,-72 187,-72 187,-108"/>
<text text-anchor="middle" x="160" y="-87.5" font-family="Helvetica,sans-Serif" font-size="10.00">utils</text>
</a>
</g>
</g>
<!-- dir_6b58bd0be07bddcf3022ab9b026cbf38&#45;&gt;dir_7b0825b7536eda12b63e5d87347b1c7d -->
<g id="edge4" class="edge"><title>dir_6b58bd0be07bddcf3022ab9b026cbf38&#45;&gt;dir_7b0825b7536eda12b63e5d87347b1c7d</title>
<path fill="none" stroke="black" d="M201.404,-143.697C194.877,-135.389 186.932,-125.277 179.753,-116.141"/>
<polygon fill="black" stroke="black" points="182.369,-113.805 173.439,-108.104 176.865,-118.13 182.369,-113.805"/>
<g id="a_edge4&#45;headlabel"><a xlink:href="dir_000029_000015.xhtml" target="_top" xlink:title="1">
<text text-anchor="middle" x="186.823" y="-112.377" font-family="Helvetica,sans-Serif" font-size="10.00">1</text>
</a>
</g>
</g>
<!-- dir_9eca3c725728e372597fcd0d17c1ea0f -->
<g id="node7" class="node"><title>dir_9eca3c725728e372597fcd0d17c1ea0f</title>
<g id="a_node7"><a xlink:href="dir_9eca3c725728e372597fcd0d17c1ea0f.xhtml" target="_top" xlink:title="wrapper">
<polygon fill="white" stroke="red" points="260.5,-108 205.5,-108 205.5,-72 260.5,-72 260.5,-108"/>
<text text-anchor="middle" x="233" y="-87.5" font-family="Helvetica,sans-Serif" font-size="10.00">wrapper</text>
</a>
</g>
</g>
<!-- dir_6b58bd0be07bddcf3022ab9b026cbf38&#45;&gt;dir_9eca3c725728e372597fcd0d17c1ea0f -->
<g id="edge5" class="edge"><title>dir_6b58bd0be07bddcf3022ab9b026cbf38&#45;&gt;dir_9eca3c725728e372597fcd0d17c1ea0f</title>
<path fill="none" stroke="black" d="M219.449,-143.697C221.455,-135.898 223.869,-126.509 226.101,-117.829"/>
<polygon fill="black" stroke="black" points="229.501,-118.661 228.602,-108.104 222.722,-116.918 229.501,-118.661"/>
<g id="a_edge5&#45;headlabel"><a xlink:href="dir_000029_000025.xhtml" target="_top" xlink:title="2">
<text text-anchor="middle" x="231.356" y="-120.349" font-family="Helvetica,sans-Serif" font-size="10.00">2</text>
</a>
</g>
</g>
<!-- dir_7b0825b7536eda12b63e5d87347b1c7d&#45;&gt;dir_5815af820a9cc9481f1d0990a0d60286 -->
<g id="edge1" class="edge"><title>dir_7b0825b7536eda12b63e5d87347b1c7d&#45;&gt;dir_5815af820a9cc9481f1d0990a0d60286</title>
<path fill="none" stroke="black" d="M142.202,-71.6966C133.396,-63.135 122.618,-52.6562 112.999,-43.3045"/>
<polygon fill="black" stroke="black" points="115.203,-40.5657 105.593,-36.1043 110.323,-45.5846 115.203,-40.5657"/>
<g id="a_edge1&#45;headlabel"><a xlink:href="dir_000015_000166.xhtml" target="_top" xlink:title="5">
<text text-anchor="middle" x="119.759" y="-38.5356" font-family="Helvetica,sans-Serif" font-size="10.00">5</text>
</a>
</g>
</g>
<!-- dir_7484b841a86f2d7fdd057c9b24fbf230&#45;&gt;dir_5815af820a9cc9481f1d0990a0d60286 -->
<g id="edge6" class="edge"><title>dir_7484b841a86f2d7fdd057c9b24fbf230&#45;&gt;dir_5815af820a9cc9481f1d0990a0d60286</title>
<path fill="none" stroke="black" d="M88,-71.6966C88,-63.9827 88,-54.7125 88,-46.1124"/>
<polygon fill="black" stroke="black" points="91.5001,-46.1043 88,-36.1043 84.5001,-46.1044 91.5001,-46.1043"/>
<g id="a_edge6&#45;headlabel"><a xlink:href="dir_000010_000166.xhtml" target="_top" xlink:title="1">
<text text-anchor="middle" x="94.3393" y="-47.199" font-family="Helvetica,sans-Serif" font-size="10.00">1</text>
</a>
</g>
</g>
</g>
</svg>
