<?xml version="1.0" encoding="UTF-8" standalone="no"?>
<!DOCTYPE svg PUBLIC "-//W3C//DTD SVG 1.1//EN"
 "http://www.w3.org/Graphics/SVG/1.1/DTD/svg11.dtd">
<!-- Generated by graphviz version 2.38.0 (20140413.2041)
 -->
<!-- Title: CLFlattenLayerKernel Pages: 1 -->
<svg width="146pt" height="163pt"
 viewBox="0.00 0.00 146.00 163.00" xmlns="http://www.w3.org/2000/svg" xmlns:xlink="http://www.w3.org/1999/xlink">
<g id="graph0" class="graph" transform="scale(1 1) rotate(0) translate(4 159)">
<title>CLFlattenLayerKernel</title>
<polygon fill="white" stroke="none" points="-4,4 -4,-159 142,-159 142,4 -4,4"/>
<!-- Node0 -->
<g id="node1" class="node"><title>Node0</title>
<g id="a_node1"><a xlink:title="OpenCL interface for the flatten kernel.">
<polygon fill="#bfbfbf" stroke="black" points="15.5,-0.5 15.5,-19.5 132.5,-19.5 132.5,-0.5 15.5,-0.5"/>
<text text-anchor="middle" x="74" y="-7.5" font-family="Helvetica,sans-Serif" font-size="10.00">CLFlattenLayerKernel</text>
</a>
</g>
</g>
<!-- Node1 -->
<g id="node2" class="node"><title>Node1</title>
<g id="a_node2"><a xlink:href="classarm__compute_1_1_i_c_l_kernel.xhtml" target="_top" xlink:title="Common interface for all the OpenCL kernels.">
<polygon fill="white" stroke="black" points="0,-78.5 0,-97.5 60,-97.5 60,-78.5 0,-78.5"/>
<text text-anchor="middle" x="30" y="-85.5" font-family="Helvetica,sans-Serif" font-size="10.00">ICLKernel</text>
</a>
</g>
</g>
<!-- Node1&#45;&gt;Node0 -->
<g id="edge1" class="edge"><title>Node1&#45;&gt;Node0</title>
<path fill="none" stroke="midnightblue" d="M40.0937,-69.5654C49.135,-53.9486 62.0157,-31.7002 69.0115,-19.6165"/>
<polygon fill="midnightblue" stroke="midnightblue" points="37.0288,-67.8739 35.0474,-78.2818 43.0868,-71.3812 37.0288,-67.8739"/>
</g>
<!-- Node2 -->
<g id="node3" class="node"><title>Node2</title>
<g id="a_node3"><a xlink:href="classarm__compute_1_1_i_kernel.xhtml" target="_top" xlink:title="Common information for all the kernels.">
<polygon fill="white" stroke="black" points="6,-135.5 6,-154.5 54,-154.5 54,-135.5 6,-135.5"/>
<text text-anchor="middle" x="30" y="-142.5" font-family="Helvetica,sans-Serif" font-size="10.00">IKernel</text>
</a>
</g>
</g>
<!-- Node2&#45;&gt;Node1 -->
<g id="edge2" class="edge"><title>Node2&#45;&gt;Node1</title>
<path fill="none" stroke="midnightblue" d="M30,-125.117C30,-115.817 30,-105.056 30,-97.7149"/>
<polygon fill="midnightblue" stroke="midnightblue" points="26.5001,-125.406 30,-135.406 33.5001,-125.406 26.5001,-125.406"/>
</g>
<!-- Node3 -->
<g id="node4" class="node"><title>Node3</title>
<g id="a_node4"><a xlink:href="classarm__compute_1_1_i_c_l_tensor.xhtml" target="_top" xlink:title="Interface for OpenCL tensor.">
<polygon fill="white" stroke="black" points="78,-78.5 78,-97.5 138,-97.5 138,-78.5 78,-78.5"/>
<text text-anchor="middle" x="108" y="-85.5" font-family="Helvetica,sans-Serif" font-size="10.00">ICLTensor</text>
</a>
</g>
</g>
<!-- Node3&#45;&gt;Node0 -->
<g id="edge3" class="edge"><title>Node3&#45;&gt;Node0</title>
<path fill="none" stroke="#9a32cd" stroke-dasharray="5,2" d="M100.002,-69.1216C93.0265,-53.5297 83.2096,-31.5862 77.8547,-19.6165"/>
<polygon fill="#9a32cd" stroke="#9a32cd" points="96.8212,-70.5829 104.1,-78.2818 103.211,-67.7243 96.8212,-70.5829"/>
<text text-anchor="middle" x="115" y="-52" font-family="Helvetica,sans-Serif" font-size="10.00"> _output</text>
<text text-anchor="middle" x="115" y="-41" font-family="Helvetica,sans-Serif" font-size="10.00">_input</text>
</g>
<!-- Node4 -->
<g id="node5" class="node"><title>Node4</title>
<g id="a_node5"><a xlink:href="classarm__compute_1_1_i_tensor.xhtml" target="_top" xlink:title="Interface for NEON tensor.">
<polygon fill="white" stroke="black" points="83,-135.5 83,-154.5 133,-154.5 133,-135.5 83,-135.5"/>
<text text-anchor="middle" x="108" y="-142.5" font-family="Helvetica,sans-Serif" font-size="10.00">ITensor</text>
</a>
</g>
</g>
<!-- Node4&#45;&gt;Node3 -->
<g id="edge4" class="edge"><title>Node4&#45;&gt;Node3</title>
<path fill="none" stroke="midnightblue" d="M108,-125.117C108,-115.817 108,-105.056 108,-97.7149"/>
<polygon fill="midnightblue" stroke="midnightblue" points="104.5,-125.406 108,-135.406 111.5,-125.406 104.5,-125.406"/>
</g>
</g>
</svg>
