<?xml version="1.0" encoding="UTF-8" standalone="no"?>
<!DOCTYPE svg PUBLIC "-//W3C//DTD SVG 1.1//EN"
 "http://www.w3.org/Graphics/SVG/1.1/DTD/svg11.dtd">
<!-- Generated by graphviz version 2.40.1 (20161225.0304)
 -->
<!-- Title: CLGaussian3x3Kernel Pages: 1 -->
<svg width="122pt" height="252pt"
 viewBox="0.00 0.00 122.00 252.00" xmlns="http://www.w3.org/2000/svg" xmlns:xlink="http://www.w3.org/1999/xlink">
<g id="graph0" class="graph" transform="scale(1 1) rotate(0) translate(4 248)">
<title>CLGaussian3x3Kernel</title>
<polygon fill="#ffffff" stroke="transparent" points="-4,4 -4,-248 118,-248 118,4 -4,4"/>
<!-- Node0 -->
<g id="node1" class="node">
<title>Node0</title>
<polygon fill="#bfbfbf" stroke="#000000" points="0,-.5 0,-19.5 114,-19.5 114,-.5 0,-.5"/>
<text text-anchor="middle" x="57" y="-7.5" font-family="Helvetica,sans-Serif" font-size="10.00" fill="#000000">CLGaussian3x3Kernel</text>
</g>
<!-- Node1 -->
<g id="node2" class="node">
<title>Node1</title>
<g id="a_node2"><a xlink:href="classarm__compute_1_1_i_c_l_simple2_d_kernel.xhtml" target="_top" xlink:title="Interface for simple OpenCL kernels having 1 tensor input and 1 tensor output. ">
<polygon fill="#ffffff" stroke="#000000" points="5.5,-56.5 5.5,-75.5 108.5,-75.5 108.5,-56.5 5.5,-56.5"/>
<text text-anchor="middle" x="57" y="-63.5" font-family="Helvetica,sans-Serif" font-size="10.00" fill="#000000">ICLSimple2DKernel</text>
</a>
</g>
</g>
<!-- Node1&#45;&gt;Node0 -->
<g id="edge1" class="edge">
<title>Node1&#45;&gt;Node0</title>
<path fill="none" stroke="#191970" d="M57,-46.1575C57,-37.155 57,-26.9199 57,-19.6427"/>
<polygon fill="#191970" stroke="#191970" points="53.5001,-46.2455 57,-56.2455 60.5001,-46.2456 53.5001,-46.2455"/>
</g>
<!-- Node2 -->
<g id="node3" class="node">
<title>Node2</title>
<g id="a_node3"><a xlink:href="classarm__compute_1_1_i_c_l_simple_kernel.xhtml" target="_top" xlink:title="Interface for simple OpenCL kernels having 1 tensor input and 1 tensor output. ">
<polygon fill="#ffffff" stroke="#000000" points="12,-112.5 12,-131.5 102,-131.5 102,-112.5 12,-112.5"/>
<text text-anchor="middle" x="57" y="-119.5" font-family="Helvetica,sans-Serif" font-size="10.00" fill="#000000">ICLSimpleKernel</text>
</a>
</g>
</g>
<!-- Node2&#45;&gt;Node1 -->
<g id="edge2" class="edge">
<title>Node2&#45;&gt;Node1</title>
<path fill="none" stroke="#191970" d="M57,-102.1575C57,-93.155 57,-82.9199 57,-75.6427"/>
<polygon fill="#191970" stroke="#191970" points="53.5001,-102.2455 57,-112.2455 60.5001,-102.2456 53.5001,-102.2455"/>
</g>
<!-- Node3 -->
<g id="node4" class="node">
<title>Node3</title>
<g id="a_node4"><a xlink:href="classarm__compute_1_1_i_c_l_kernel.xhtml" target="_top" xlink:title="Common interface for all the OpenCL kernels. ">
<polygon fill="#ffffff" stroke="#000000" points="27,-168.5 27,-187.5 87,-187.5 87,-168.5 27,-168.5"/>
<text text-anchor="middle" x="57" y="-175.5" font-family="Helvetica,sans-Serif" font-size="10.00" fill="#000000">ICLKernel</text>
</a>
</g>
</g>
<!-- Node3&#45;&gt;Node2 -->
<g id="edge3" class="edge">
<title>Node3&#45;&gt;Node2</title>
<path fill="none" stroke="#191970" d="M57,-158.1575C57,-149.155 57,-138.9199 57,-131.6427"/>
<polygon fill="#191970" stroke="#191970" points="53.5001,-158.2455 57,-168.2455 60.5001,-158.2456 53.5001,-158.2455"/>
</g>
<!-- Node4 -->
<g id="node5" class="node">
<title>Node4</title>
<g id="a_node5"><a xlink:href="classarm__compute_1_1_i_kernel.xhtml" target="_top" xlink:title="Common information for all the kernels. ">
<polygon fill="#ffffff" stroke="#000000" points="33.5,-224.5 33.5,-243.5 80.5,-243.5 80.5,-224.5 33.5,-224.5"/>
<text text-anchor="middle" x="57" y="-231.5" font-family="Helvetica,sans-Serif" font-size="10.00" fill="#000000">IKernel</text>
</a>
</g>
</g>
<!-- Node4&#45;&gt;Node3 -->
<g id="edge4" class="edge">
<title>Node4&#45;&gt;Node3</title>
<path fill="none" stroke="#191970" d="M57,-214.1575C57,-205.155 57,-194.9199 57,-187.6427"/>
<polygon fill="#191970" stroke="#191970" points="53.5001,-214.2455 57,-224.2455 60.5001,-214.2456 53.5001,-214.2455"/>
</g>
</g>
</svg>
