<?xml version="1.0" encoding="UTF-8" standalone="no"?>
<!DOCTYPE svg PUBLIC "-//W3C//DTD SVG 1.1//EN"
 "http://www.w3.org/Graphics/SVG/1.1/DTD/svg11.dtd">
<!-- Generated by graphviz version 2.40.1 (20161225.0304)
 -->
<!-- Title: CLNonMaximaSuppression3x3Kernel Pages: 1 -->
<svg width="160pt" height="263pt"
 viewBox="0.00 0.00 160.00 263.00" xmlns="http://www.w3.org/2000/svg" xmlns:xlink="http://www.w3.org/1999/xlink">
<g id="graph0" class="graph" transform="scale(1 1) rotate(0) translate(4 259)">
<title>CLNonMaximaSuppression3x3Kernel</title>
<polygon fill="#ffffff" stroke="transparent" points="-4,4 -4,-259 156,-259 156,4 -4,4"/>
<!-- Node0 -->
<g id="node1" class="node">
<title>Node0</title>
<polygon fill="#bfbfbf" stroke="#000000" points="0,-.5 0,-30.5 152,-30.5 152,-.5 0,-.5"/>
<text text-anchor="start" x="8" y="-18.5" font-family="Helvetica,sans-Serif" font-size="10.00" fill="#000000">CLNonMaximaSuppression3x3</text>
<text text-anchor="middle" x="76" y="-7.5" font-family="Helvetica,sans-Serif" font-size="10.00" fill="#000000">Kernel</text>
</g>
<!-- Node1 -->
<g id="node2" class="node">
<title>Node1</title>
<g id="a_node2"><a xlink:href="classarm__compute_1_1_i_c_l_simple2_d_kernel.xhtml" target="_top" xlink:title="Interface for simple OpenCL kernels having 1 tensor input and 1 tensor output. ">
<polygon fill="#ffffff" stroke="#000000" points="24.5,-67.5 24.5,-86.5 127.5,-86.5 127.5,-67.5 24.5,-67.5"/>
<text text-anchor="middle" x="76" y="-74.5" font-family="Helvetica,sans-Serif" font-size="10.00" fill="#000000">ICLSimple2DKernel</text>
</a>
</g>
</g>
<!-- Node1&#45;&gt;Node0 -->
<g id="edge1" class="edge">
<title>Node1&#45;&gt;Node0</title>
<path fill="none" stroke="#191970" d="M76,-57.3693C76,-48.681 76,-38.6241 76,-30.5446"/>
<polygon fill="#191970" stroke="#191970" points="72.5001,-57.3906 76,-67.3906 79.5001,-57.3907 72.5001,-57.3906"/>
</g>
<!-- Node2 -->
<g id="node3" class="node">
<title>Node2</title>
<g id="a_node3"><a xlink:href="classarm__compute_1_1_i_c_l_simple_kernel.xhtml" target="_top" xlink:title="Interface for simple OpenCL kernels having 1 tensor input and 1 tensor output. ">
<polygon fill="#ffffff" stroke="#000000" points="31,-123.5 31,-142.5 121,-142.5 121,-123.5 31,-123.5"/>
<text text-anchor="middle" x="76" y="-130.5" font-family="Helvetica,sans-Serif" font-size="10.00" fill="#000000">ICLSimpleKernel</text>
</a>
</g>
</g>
<!-- Node2&#45;&gt;Node1 -->
<g id="edge2" class="edge">
<title>Node2&#45;&gt;Node1</title>
<path fill="none" stroke="#191970" d="M76,-113.1575C76,-104.155 76,-93.9199 76,-86.6427"/>
<polygon fill="#191970" stroke="#191970" points="72.5001,-113.2455 76,-123.2455 79.5001,-113.2456 72.5001,-113.2455"/>
</g>
<!-- Node3 -->
<g id="node4" class="node">
<title>Node3</title>
<g id="a_node4"><a xlink:href="classarm__compute_1_1_i_c_l_kernel.xhtml" target="_top" xlink:title="Common interface for all the OpenCL kernels. ">
<polygon fill="#ffffff" stroke="#000000" points="46,-179.5 46,-198.5 106,-198.5 106,-179.5 46,-179.5"/>
<text text-anchor="middle" x="76" y="-186.5" font-family="Helvetica,sans-Serif" font-size="10.00" fill="#000000">ICLKernel</text>
</a>
</g>
</g>
<!-- Node3&#45;&gt;Node2 -->
<g id="edge3" class="edge">
<title>Node3&#45;&gt;Node2</title>
<path fill="none" stroke="#191970" d="M76,-169.1575C76,-160.155 76,-149.9199 76,-142.6427"/>
<polygon fill="#191970" stroke="#191970" points="72.5001,-169.2455 76,-179.2455 79.5001,-169.2456 72.5001,-169.2455"/>
</g>
<!-- Node4 -->
<g id="node5" class="node">
<title>Node4</title>
<g id="a_node5"><a xlink:href="classarm__compute_1_1_i_kernel.xhtml" target="_top" xlink:title="Common information for all the kernels. ">
<polygon fill="#ffffff" stroke="#000000" points="52.5,-235.5 52.5,-254.5 99.5,-254.5 99.5,-235.5 52.5,-235.5"/>
<text text-anchor="middle" x="76" y="-242.5" font-family="Helvetica,sans-Serif" font-size="10.00" fill="#000000">IKernel</text>
</a>
</g>
</g>
<!-- Node4&#45;&gt;Node3 -->
<g id="edge4" class="edge">
<title>Node4&#45;&gt;Node3</title>
<path fill="none" stroke="#191970" d="M76,-225.1575C76,-216.155 76,-205.9199 76,-198.6427"/>
<polygon fill="#191970" stroke="#191970" points="72.5001,-225.2455 76,-235.2455 79.5001,-225.2456 72.5001,-225.2455"/>
</g>
</g>
</svg>
