<?xml version="1.0" encoding="UTF-8" standalone="no"?>
<!DOCTYPE svg PUBLIC "-//W3C//DTD SVG 1.1//EN"
 "http://www.w3.org/Graphics/SVG/1.1/DTD/svg11.dtd">
<!-- Generated by graphviz version 2.40.1 (20161225.0304)
 -->
<!-- Title: NEWinogradLayerTransformInputKernel&lt; T, OutputTileRows, OutputTileCols, KernelRows, KernelCols &gt; Pages: 1 -->
<svg width="169pt" height="240pt"
 viewBox="0.00 0.00 169.00 240.00" xmlns="http://www.w3.org/2000/svg" xmlns:xlink="http://www.w3.org/1999/xlink">
<g id="graph0" class="graph" transform="scale(1 1) rotate(0) translate(4 236)">
<title>NEWinogradLayerTransformInputKernel&lt; T, OutputTileRows, OutputTileCols, KernelRows, KernelCols &gt;</title>
<polygon fill="#ffffff" stroke="transparent" points="-4,4 -4,-236 165,-236 165,4 -4,4"/>
<!-- Node0 -->
<g id="node1" class="node">
<title>Node0</title>
<polygon fill="#bfbfbf" stroke="#000000" points="0,-.5 0,-52.5 161,-52.5 161,-.5 0,-.5"/>
<text text-anchor="start" x="8" y="-40.5" font-family="Helvetica,sans-Serif" font-size="10.00" fill="#000000">NEWinogradLayerTransform</text>
<text text-anchor="start" x="8" y="-29.5" font-family="Helvetica,sans-Serif" font-size="10.00" fill="#000000">InputKernel&lt; T, OutputTileRows,</text>
<text text-anchor="start" x="8" y="-18.5" font-family="Helvetica,sans-Serif" font-size="10.00" fill="#000000"> OutputTileCols, KernelRows,</text>
<text text-anchor="middle" x="80.5" y="-7.5" font-family="Helvetica,sans-Serif" font-size="10.00" fill="#000000"> KernelCols &gt;</text>
</g>
<!-- Node1 -->
<g id="node2" class="node">
<title>Node1</title>
<g id="a_node2"><a xlink:href="classarm__compute_1_1_i_n_e_winograd_layer_transform_input_kernel.xhtml" target="_top" xlink:title="Interface for the NEON kernel to perform Winograd input transform. ">
<polygon fill="#ffffff" stroke="#000000" points="9,-89.5 9,-119.5 152,-119.5 152,-89.5 9,-89.5"/>
<text text-anchor="start" x="17" y="-107.5" font-family="Helvetica,sans-Serif" font-size="10.00" fill="#000000">INEWinogradLayerTransform</text>
<text text-anchor="middle" x="80.5" y="-96.5" font-family="Helvetica,sans-Serif" font-size="10.00" fill="#000000">InputKernel&lt; T &gt;</text>
</a>
</g>
</g>
<!-- Node1&#45;&gt;Node0 -->
<g id="edge1" class="edge">
<title>Node1&#45;&gt;Node0</title>
<path fill="none" stroke="#191970" d="M80.5,-79.314C80.5,-70.756 80.5,-61.1787 80.5,-52.5542"/>
<polygon fill="#191970" stroke="#191970" points="77.0001,-79.4608 80.5,-89.4608 84.0001,-79.4608 77.0001,-79.4608"/>
</g>
<!-- Node2 -->
<g id="node3" class="node">
<title>Node2</title>
<g id="a_node3"><a xlink:href="classarm__compute_1_1_i_c_p_p_kernel.xhtml" target="_top" xlink:title="Common interface for all kernels implemented in C++. ">
<polygon fill="#ffffff" stroke="#000000" points="49.5,-156.5 49.5,-175.5 111.5,-175.5 111.5,-156.5 49.5,-156.5"/>
<text text-anchor="middle" x="80.5" y="-163.5" font-family="Helvetica,sans-Serif" font-size="10.00" fill="#000000">INEKernel</text>
</a>
</g>
</g>
<!-- Node2&#45;&gt;Node1 -->
<g id="edge2" class="edge">
<title>Node2&#45;&gt;Node1</title>
<path fill="none" stroke="#191970" d="M80.5,-146.3693C80.5,-137.681 80.5,-127.6241 80.5,-119.5446"/>
<polygon fill="#191970" stroke="#191970" points="77.0001,-146.3906 80.5,-156.3906 84.0001,-146.3907 77.0001,-146.3906"/>
</g>
<!-- Node3 -->
<g id="node4" class="node">
<title>Node3</title>
<g id="a_node4"><a xlink:href="classarm__compute_1_1_i_kernel.xhtml" target="_top" xlink:title="Common information for all the kernels. ">
<polygon fill="#ffffff" stroke="#000000" points="57,-212.5 57,-231.5 104,-231.5 104,-212.5 57,-212.5"/>
<text text-anchor="middle" x="80.5" y="-219.5" font-family="Helvetica,sans-Serif" font-size="10.00" fill="#000000">IKernel</text>
</a>
</g>
</g>
<!-- Node3&#45;&gt;Node2 -->
<g id="edge3" class="edge">
<title>Node3&#45;&gt;Node2</title>
<path fill="none" stroke="#191970" d="M80.5,-202.1575C80.5,-193.155 80.5,-182.9199 80.5,-175.6427"/>
<polygon fill="#191970" stroke="#191970" points="77.0001,-202.2455 80.5,-212.2455 84.0001,-202.2456 77.0001,-202.2455"/>
</g>
</g>
</svg>
