<?xml version="1.0" encoding="UTF-8" standalone="no"?>
<!DOCTYPE svg PUBLIC "-//W3C//DTD SVG 1.1//EN"
 "http://www.w3.org/Graphics/SVG/1.1/DTD/svg11.dtd">
<!-- Generated by graphviz version 2.38.0 (20140413.2041)
 -->
<!-- Title: NEConvolutionRectangle Pages: 1 -->
<svg width="141pt" height="140pt"
 viewBox="0.00 0.00 141.00 140.00" xmlns="http://www.w3.org/2000/svg" xmlns:xlink="http://www.w3.org/1999/xlink">
<g id="graph0" class="graph" transform="scale(1 1) rotate(0) translate(4 136)">
<title>NEConvolutionRectangle</title>
<polygon fill="white" stroke="none" points="-4,4 -4,-136 137,-136 137,4 -4,4"/>
<!-- Node0 -->
<g id="node1" class="node"><title>Node0</title>
<g id="a_node1"><a xlink:title="Basic function to execute non&#45;square convolution.">
<polygon fill="#bfbfbf" stroke="black" points="0,-0.5 0,-19.5 133,-19.5 133,-0.5 0,-0.5"/>
<text text-anchor="middle" x="66.5" y="-7.5" font-family="Helvetica,sans-Serif" font-size="10.00">NEConvolutionRectangle</text>
</a>
</g>
</g>
<!-- Node1 -->
<g id="node2" class="node"><title>Node1</title>
<g id="a_node2"><a xlink:href="classarm__compute_1_1_i_n_e_simple_function.xhtml" target="_top" xlink:title="Basic interface for functions which have a single NEON kernel.">
<polygon fill="white" stroke="black" points="14,-56.5 14,-75.5 119,-75.5 119,-56.5 14,-56.5"/>
<text text-anchor="middle" x="66.5" y="-63.5" font-family="Helvetica,sans-Serif" font-size="10.00">INESimpleFunction</text>
</a>
</g>
</g>
<!-- Node1&#45;&gt;Node0 -->
<g id="edge1" class="edge"><title>Node1&#45;&gt;Node0</title>
<path fill="none" stroke="midnightblue" d="M66.5,-45.8045C66.5,-36.9102 66.5,-26.7798 66.5,-19.7511"/>
<polygon fill="midnightblue" stroke="midnightblue" points="63.0001,-46.083 66.5,-56.083 70.0001,-46.083 63.0001,-46.083"/>
</g>
<!-- Node2 -->
<g id="node3" class="node"><title>Node2</title>
<g id="a_node3"><a xlink:href="classarm__compute_1_1_i_function.xhtml" target="_top" xlink:title="Base class for all functions.">
<polygon fill="white" stroke="black" points="37,-112.5 37,-131.5 96,-131.5 96,-112.5 37,-112.5"/>
<text text-anchor="middle" x="66.5" y="-119.5" font-family="Helvetica,sans-Serif" font-size="10.00">IFunction</text>
</a>
</g>
</g>
<!-- Node2&#45;&gt;Node1 -->
<g id="edge2" class="edge"><title>Node2&#45;&gt;Node1</title>
<path fill="none" stroke="midnightblue" d="M66.5,-101.805C66.5,-92.9102 66.5,-82.7798 66.5,-75.7511"/>
<polygon fill="midnightblue" stroke="midnightblue" points="63.0001,-102.083 66.5,-112.083 70.0001,-102.083 63.0001,-102.083"/>
</g>
</g>
</svg>
