<?xml version="1.0" encoding="UTF-8" standalone="no"?>
<!DOCTYPE svg PUBLIC "-//W3C//DTD SVG 1.1//EN"
 "http://www.w3.org/Graphics/SVG/1.1/DTD/svg11.dtd">
<!-- Generated by graphviz version 2.38.0 (20140413.2041)
 -->
<!-- Title: NEWinogradLayerBatchedGEMMKernel&lt; TIn, TOut, OutputTileRows, OutputTileCols, KernelRows, KernelCols &gt; Pages: 1 -->
<svg width="210pt" height="240pt"
 viewBox="0.00 0.00 210.00 240.00" xmlns="http://www.w3.org/2000/svg" xmlns:xlink="http://www.w3.org/1999/xlink">
<g id="graph0" class="graph" transform="scale(1 1) rotate(0) translate(4 236)">
<title>NEWinogradLayerBatchedGEMMKernel&lt; TIn, TOut, OutputTileRows, OutputTileCols, KernelRows, KernelCols &gt;</title>
<polygon fill="white" stroke="none" points="-4,4 -4,-236 206,-236 206,4 -4,4"/>
<!-- Node1 -->
<g id="node1" class="node"><title>Node1</title>
<polygon fill="#bfbfbf" stroke="black" points="1,-0.5 1,-52.5 201,-52.5 201,-0.5 1,-0.5"/>
<text text-anchor="start" x="9" y="-40.5" font-family="Helvetica,sans-Serif" font-size="10.00">NEWinogradLayerBatchedGEMMKernel</text>
<text text-anchor="start" x="9" y="-29.5" font-family="Helvetica,sans-Serif" font-size="10.00">&lt; TIn, TOut, OutputTileRows,</text>
<text text-anchor="start" x="9" y="-18.5" font-family="Helvetica,sans-Serif" font-size="10.00"> OutputTileCols, KernelRows,</text>
<text text-anchor="middle" x="101" y="-7.5" font-family="Helvetica,sans-Serif" font-size="10.00"> KernelCols &gt;</text>
</g>
<!-- Node2 -->
<g id="node2" class="node"><title>Node2</title>
<g id="a_node2"><a xlink:href="classarm__compute_1_1_i_n_e_winograd_layer_batched_g_e_m_m_kernel.xhtml" target="_top" xlink:title="Interface for the NEON kernel to perform Winograd. ">
<polygon fill="white" stroke="black" points="0,-89.5 0,-119.5 202,-119.5 202,-89.5 0,-89.5"/>
<text text-anchor="start" x="8" y="-107.5" font-family="Helvetica,sans-Serif" font-size="10.00">INEWinogradLayerBatchedGEMMKernel</text>
<text text-anchor="middle" x="101" y="-96.5" font-family="Helvetica,sans-Serif" font-size="10.00">&lt; TIn, TOut &gt;</text>
</a>
</g>
</g>
<!-- Node2&#45;&gt;Node1 -->
<g id="edge1" class="edge"><title>Node2&#45;&gt;Node1</title>
<path fill="none" stroke="midnightblue" d="M101,-79.1418C101,-70.6306 101,-61.0666 101,-52.5037"/>
<polygon fill="midnightblue" stroke="midnightblue" points="97.5001,-79.2049 101,-89.205 104.5,-79.205 97.5001,-79.2049"/>
</g>
<!-- Node3 -->
<g id="node3" class="node"><title>Node3</title>
<g id="a_node3"><a xlink:href="classarm__compute_1_1_i_c_p_p_kernel.xhtml" target="_top" xlink:title="Common interface for all kernels implemented in C++. ">
<polygon fill="white" stroke="black" points="70,-156.5 70,-175.5 132,-175.5 132,-156.5 70,-156.5"/>
<text text-anchor="middle" x="101" y="-163.5" font-family="Helvetica,sans-Serif" font-size="10.00">INEKernel</text>
</a>
</g>
</g>
<!-- Node3&#45;&gt;Node2 -->
<g id="edge2" class="edge"><title>Node3&#45;&gt;Node2</title>
<path fill="none" stroke="midnightblue" d="M101,-146.235C101,-137.586 101,-127.497 101,-119.523"/>
<polygon fill="midnightblue" stroke="midnightblue" points="97.5001,-146.475 101,-156.475 104.5,-146.475 97.5001,-146.475"/>
</g>
<!-- Node4 -->
<g id="node4" class="node"><title>Node4</title>
<g id="a_node4"><a xlink:href="classarm__compute_1_1_i_kernel.xhtml" target="_top" xlink:title="Common information for all the kernels. ">
<polygon fill="white" stroke="black" points="77,-212.5 77,-231.5 125,-231.5 125,-212.5 77,-212.5"/>
<text text-anchor="middle" x="101" y="-219.5" font-family="Helvetica,sans-Serif" font-size="10.00">IKernel</text>
</a>
</g>
</g>
<!-- Node4&#45;&gt;Node3 -->
<g id="edge3" class="edge"><title>Node4&#45;&gt;Node3</title>
<path fill="none" stroke="midnightblue" d="M101,-201.805C101,-192.91 101,-182.78 101,-175.751"/>
<polygon fill="midnightblue" stroke="midnightblue" points="97.5001,-202.083 101,-212.083 104.5,-202.083 97.5001,-202.083"/>
</g>
</g>
</svg>
