<?xml version="1.0" encoding="UTF-8" standalone="no"?>
<!DOCTYPE svg PUBLIC "-//W3C//DTD SVG 1.1//EN"
 "http://www.w3.org/Graphics/SVG/1.1/DTD/svg11.dtd">
<!-- Generated by graphviz version 2.38.0 (20140413.2041)
 -->
<!-- Title: CLGEMMInterleave4x4 Pages: 1 -->
<svg width="131pt" height="140pt"
 viewBox="0.00 0.00 131.00 140.00" xmlns="http://www.w3.org/2000/svg" xmlns:xlink="http://www.w3.org/1999/xlink">
<g id="graph0" class="graph" transform="scale(1 1) rotate(0) translate(4 136)">
<title>CLGEMMInterleave4x4</title>
<polygon fill="white" stroke="none" points="-4,4 -4,-136 127,-136 127,4 -4,4"/>
<!-- Node1 -->
<g id="node1" class="node"><title>Node1</title>
<polygon fill="#bfbfbf" stroke="black" points="0,-0.5 0,-19.5 123,-19.5 123,-0.5 0,-0.5"/>
<text text-anchor="middle" x="61.5" y="-7.5" font-family="Helvetica,sans-Serif" font-size="10.00">CLGEMMInterleave4x4</text>
</g>
<!-- Node2 -->
<g id="node2" class="node"><title>Node2</title>
<g id="a_node2"><a xlink:href="classarm__compute_1_1_i_c_l_simple_function.xhtml" target="_top" xlink:title="Basic interface for functions which have a single OpenCL kernel. ">
<polygon fill="white" stroke="black" points="9.5,-56.5 9.5,-75.5 113.5,-75.5 113.5,-56.5 9.5,-56.5"/>
<text text-anchor="middle" x="61.5" y="-63.5" font-family="Helvetica,sans-Serif" font-size="10.00">ICLSimpleFunction</text>
</a>
</g>
</g>
<!-- Node2&#45;&gt;Node1 -->
<g id="edge1" class="edge"><title>Node2&#45;&gt;Node1</title>
<path fill="none" stroke="midnightblue" d="M61.5,-45.8045C61.5,-36.9102 61.5,-26.7798 61.5,-19.7511"/>
<polygon fill="midnightblue" stroke="midnightblue" points="58.0001,-46.083 61.5,-56.083 65.0001,-46.083 58.0001,-46.083"/>
</g>
<!-- Node3 -->
<g id="node3" class="node"><title>Node3</title>
<g id="a_node3"><a xlink:href="classarm__compute_1_1_i_function.xhtml" target="_top" xlink:title="Base class for all functions. ">
<polygon fill="white" stroke="black" points="32,-112.5 32,-131.5 91,-131.5 91,-112.5 32,-112.5"/>
<text text-anchor="middle" x="61.5" y="-119.5" font-family="Helvetica,sans-Serif" font-size="10.00">IFunction</text>
</a>
</g>
</g>
<!-- Node3&#45;&gt;Node2 -->
<g id="edge2" class="edge"><title>Node3&#45;&gt;Node2</title>
<path fill="none" stroke="midnightblue" d="M61.5,-101.805C61.5,-92.9102 61.5,-82.7798 61.5,-75.7511"/>
<polygon fill="midnightblue" stroke="midnightblue" points="58.0001,-102.083 61.5,-112.083 65.0001,-102.083 58.0001,-102.083"/>
</g>
</g>
</svg>
