<?xml version="1.0" encoding="UTF-8" standalone="no"?>
<!DOCTYPE svg PUBLIC "-//W3C//DTD SVG 1.1//EN"
 "http://www.w3.org/Graphics/SVG/1.1/DTD/svg11.dtd">
<!-- Generated by graphviz version 2.40.1 (20161225.0304)
 -->
<!-- Title: GCScale Pages: 1 -->
<svg width="110pt" height="140pt"
 viewBox="0.00 0.00 110.00 140.00" xmlns="http://www.w3.org/2000/svg" xmlns:xlink="http://www.w3.org/1999/xlink">
<g id="graph0" class="graph" transform="scale(1 1) rotate(0) translate(4 136)">
<title>GCScale</title>
<polygon fill="#ffffff" stroke="transparent" points="-4,4 -4,-136 106,-136 106,4 -4,4"/>
<!-- Node0 -->
<g id="node1" class="node">
<title>Node0</title>
<polygon fill="#bfbfbf" stroke="#000000" points="23,-.5 23,-19.5 79,-19.5 79,-.5 23,-.5"/>
<text text-anchor="middle" x="51" y="-7.5" font-family="Helvetica,sans-Serif" font-size="10.00" fill="#000000">GCScale</text>
</g>
<!-- Node1 -->
<g id="node2" class="node">
<title>Node1</title>
<g id="a_node2"><a xlink:href="classarm__compute_1_1_i_g_c_simple_function.xhtml" target="_top" xlink:title="Basic interface for functions which have a single OpenGL ES kernel. ">
<polygon fill="#ffffff" stroke="#000000" points="0,-56.5 0,-75.5 102,-75.5 102,-56.5 0,-56.5"/>
<text text-anchor="middle" x="51" y="-63.5" font-family="Helvetica,sans-Serif" font-size="10.00" fill="#000000">IGCSimpleFunction</text>
</a>
</g>
</g>
<!-- Node1&#45;&gt;Node0 -->
<g id="edge1" class="edge">
<title>Node1&#45;&gt;Node0</title>
<path fill="none" stroke="#191970" d="M51,-46.1575C51,-37.155 51,-26.9199 51,-19.6427"/>
<polygon fill="#191970" stroke="#191970" points="47.5001,-46.2455 51,-56.2455 54.5001,-46.2456 47.5001,-46.2455"/>
</g>
<!-- Node2 -->
<g id="node3" class="node">
<title>Node2</title>
<g id="a_node3"><a xlink:href="classarm__compute_1_1_i_function.xhtml" target="_top" xlink:title="Base class for all functions. ">
<polygon fill="#ffffff" stroke="#000000" points="22.5,-112.5 22.5,-131.5 79.5,-131.5 79.5,-112.5 22.5,-112.5"/>
<text text-anchor="middle" x="51" y="-119.5" font-family="Helvetica,sans-Serif" font-size="10.00" fill="#000000">IFunction</text>
</a>
</g>
</g>
<!-- Node2&#45;&gt;Node1 -->
<g id="edge2" class="edge">
<title>Node2&#45;&gt;Node1</title>
<path fill="none" stroke="#191970" d="M51,-102.1575C51,-93.155 51,-82.9199 51,-75.6427"/>
<polygon fill="#191970" stroke="#191970" points="47.5001,-102.2455 51,-112.2455 54.5001,-102.2456 47.5001,-102.2455"/>
</g>
</g>
</svg>
