<?xml version="1.0" encoding="UTF-8" standalone="no"?>
<!DOCTYPE svg PUBLIC "-//W3C//DTD SVG 1.1//EN"
 "http://www.w3.org/Graphics/SVG/1.1/DTD/svg11.dtd">
<!-- Generated by graphviz version 2.38.0 (20140413.2041)
 -->
<!-- Title: Coordinates Pages: 1 -->
<svg width="115pt" height="152pt"
 viewBox="0.00 0.00 115.00 152.00" xmlns="http://www.w3.org/2000/svg" xmlns:xlink="http://www.w3.org/1999/xlink">
<g id="graph0" class="graph" transform="scale(1 1) rotate(0) translate(4 148)">
<title>Coordinates</title>
<polygon fill="white" stroke="none" points="-4,4 -4,-148 111,-148 111,4 -4,4"/>
<!-- Node1 -->
<g id="node1" class="node"><title>Node1</title>
<polygon fill="#bfbfbf" stroke="black" points="16.5,-0.5 16.5,-19.5 90.5,-19.5 90.5,-0.5 16.5,-0.5"/>
<text text-anchor="middle" x="53.5" y="-7.5" font-family="Helvetica,sans-Serif" font-size="10.00">Coordinates</text>
</g>
<!-- Node2 -->
<g id="node2" class="node"><title>Node2</title>
<g id="a_node2"><a xlink:href="classarm__compute_1_1_dimensions.xhtml" target="_top" xlink:title="Dimensions\&lt; int \&gt;">
<polygon fill="white" stroke="black" points="-7.10543e-15,-57.5 -7.10543e-15,-76.5 107,-76.5 107,-57.5 -7.10543e-15,-57.5"/>
<text text-anchor="middle" x="53.5" y="-64.5" font-family="Helvetica,sans-Serif" font-size="10.00">Dimensions&lt; int &gt;</text>
</a>
</g>
</g>
<!-- Node2&#45;&gt;Node1 -->
<g id="edge1" class="edge"><title>Node2&#45;&gt;Node1</title>
<path fill="none" stroke="midnightblue" d="M53.5,-47.1166C53.5,-37.8173 53.5,-27.0557 53.5,-19.7149"/>
<polygon fill="midnightblue" stroke="midnightblue" points="50.0001,-47.4062 53.5,-57.4062 57.0001,-47.4063 50.0001,-47.4062"/>
</g>
<!-- Node3 -->
<g id="node3" class="node"><title>Node3</title>
<g id="a_node3"><a xlink:href="classarm__compute_1_1_dimensions.xhtml" target="_top" xlink:title="Dimensions with dimensionality. ">
<polygon fill="white" stroke="black" points="3,-124.5 3,-143.5 104,-143.5 104,-124.5 3,-124.5"/>
<text text-anchor="middle" x="53.5" y="-131.5" font-family="Helvetica,sans-Serif" font-size="10.00">Dimensions&lt; T &gt;</text>
</a>
</g>
</g>
<!-- Node3&#45;&gt;Node2 -->
<g id="edge2" class="edge"><title>Node3&#45;&gt;Node2</title>
<path fill="none" stroke="orange" stroke-dasharray="5,2" d="M53.5,-114.037C53.5,-101.67 53.5,-86.1198 53.5,-76.6273"/>
<polygon fill="orange" stroke="orange" points="50.0001,-114.234 53.5,-124.234 57.0001,-114.234 50.0001,-114.234"/>
<text text-anchor="middle" x="72.5" y="-98" font-family="Helvetica,sans-Serif" font-size="10.00"> &lt; int &gt;</text>
</g>
</g>
</svg>
