<?xml version="1.0" encoding="UTF-8" standalone="no"?>
<!DOCTYPE svg PUBLIC "-//W3C//DTD SVG 1.1//EN"
 "http://www.w3.org/Graphics/SVG/1.1/DTD/svg11.dtd">
<!-- Generated by graphviz version 2.38.0 (20140413.2041)
 -->
<!-- Title: TensorAllocator Pages: 1 -->
<svg width="96pt" height="84pt"
 viewBox="0.00 0.00 96.00 84.00" xmlns="http://www.w3.org/2000/svg" xmlns:xlink="http://www.w3.org/1999/xlink">
<g id="graph0" class="graph" transform="scale(1 1) rotate(0) translate(4 80)">
<title>TensorAllocator</title>
<polygon fill="white" stroke="none" points="-4,4 -4,-80 92,-80 92,4 -4,4"/>
<!-- Node1 -->
<g id="node1" class="node"><title>Node1</title>
<polygon fill="#bfbfbf" stroke="black" points="1.5,-0.5 1.5,-19.5 86.5,-19.5 86.5,-0.5 1.5,-0.5"/>
<text text-anchor="middle" x="44" y="-7.5" font-family="Helvetica" font-size="10.00">TensorAllocator</text>
</g>
<!-- Node2 -->
<g id="node2" class="node"><title>Node2</title>
<g id="a_node2"><a xlink:href="classarm__compute_1_1_i_tensor_allocator.xhtml" target="_top" xlink:title="Interface to allocate tensors. ">
<polygon fill="white" stroke="black" points="-7.10543e-15,-56.5 -7.10543e-15,-75.5 88,-75.5 88,-56.5 -7.10543e-15,-56.5"/>
<text text-anchor="middle" x="44" y="-63.5" font-family="Helvetica" font-size="10.00">ITensorAllocator</text>
</a>
</g>
</g>
<!-- Node2&#45;&gt;Node1 -->
<g id="edge1" class="edge"><title>Node2&#45;&gt;Node1</title>
<path fill="none" stroke="midnightblue" d="M44,-45.8045C44,-36.9102 44,-26.7798 44,-19.7511"/>
<polygon fill="midnightblue" stroke="midnightblue" points="40.5001,-46.083 44,-56.083 47.5001,-46.083 40.5001,-46.083"/>
</g>
</g>
</svg>
