<?xml version="1.0" encoding="UTF-8" standalone="no"?>
<!DOCTYPE svg PUBLIC "-//W3C//DTD SVG 1.1//EN"
 "http://www.w3.org/Graphics/SVG/1.1/DTD/svg11.dtd">
<!-- Generated by graphviz version 2.38.0 (20140413.2041)
 -->
<!-- Title: NEHGEMMAArch64FP16Kernel Pages: 1 -->
<svg width="169pt" height="196pt"
 viewBox="0.00 0.00 169.00 196.00" xmlns="http://www.w3.org/2000/svg" xmlns:xlink="http://www.w3.org/1999/xlink">
<g id="graph0" class="graph" transform="scale(1 1) rotate(0) translate(4 192)">
<title>NEHGEMMAArch64FP16Kernel</title>
<polygon fill="white" stroke="none" points="-4,4 -4,-192 165,-192 165,4 -4,4"/>
<!-- Node1 -->
<g id="node1" class="node"><title>Node1</title>
<polygon fill="#bfbfbf" stroke="black" points="0,-0.5 0,-19.5 161,-19.5 161,-0.5 0,-0.5"/>
<text text-anchor="middle" x="80.5" y="-7.5" font-family="Helvetica,sans-Serif" font-size="10.00">NEHGEMMAArch64FP16Kernel</text>
</g>
<!-- Node2 -->
<g id="node2" class="node"><title>Node2</title>
<g id="a_node2"><a xlink:href="classarm__compute_1_1_n_e_g_e_m_m_assembly_base_kernel.xhtml" target="_top" xlink:title="Base class for GEMM NEON kernels implemented in Assembly. ">
<polygon fill="white" stroke="black" points="0.5,-56.5 0.5,-75.5 160.5,-75.5 160.5,-56.5 0.5,-56.5"/>
<text text-anchor="middle" x="80.5" y="-63.5" font-family="Helvetica,sans-Serif" font-size="10.00">NEGEMMAssemblyBaseKernel</text>
</a>
</g>
</g>
<!-- Node2&#45;&gt;Node1 -->
<g id="edge1" class="edge"><title>Node2&#45;&gt;Node1</title>
<path fill="none" stroke="midnightblue" d="M80.5,-45.8045C80.5,-36.9102 80.5,-26.7798 80.5,-19.7511"/>
<polygon fill="midnightblue" stroke="midnightblue" points="77.0001,-46.083 80.5,-56.083 84.0001,-46.083 77.0001,-46.083"/>
</g>
<!-- Node3 -->
<g id="node3" class="node"><title>Node3</title>
<g id="a_node3"><a xlink:href="classarm__compute_1_1_i_c_p_p_kernel.xhtml" target="_top" xlink:title="Common interface for all kernels implemented in C++. ">
<polygon fill="white" stroke="black" points="49.5,-112.5 49.5,-131.5 111.5,-131.5 111.5,-112.5 49.5,-112.5"/>
<text text-anchor="middle" x="80.5" y="-119.5" font-family="Helvetica,sans-Serif" font-size="10.00">INEKernel</text>
</a>
</g>
</g>
<!-- Node3&#45;&gt;Node2 -->
<g id="edge2" class="edge"><title>Node3&#45;&gt;Node2</title>
<path fill="none" stroke="midnightblue" d="M80.5,-101.805C80.5,-92.9102 80.5,-82.7798 80.5,-75.7511"/>
<polygon fill="midnightblue" stroke="midnightblue" points="77.0001,-102.083 80.5,-112.083 84.0001,-102.083 77.0001,-102.083"/>
</g>
<!-- Node4 -->
<g id="node4" class="node"><title>Node4</title>
<g id="a_node4"><a xlink:href="classarm__compute_1_1_i_kernel.xhtml" target="_top" xlink:title="Common information for all the kernels. ">
<polygon fill="white" stroke="black" points="56.5,-168.5 56.5,-187.5 104.5,-187.5 104.5,-168.5 56.5,-168.5"/>
<text text-anchor="middle" x="80.5" y="-175.5" font-family="Helvetica,sans-Serif" font-size="10.00">IKernel</text>
</a>
</g>
</g>
<!-- Node4&#45;&gt;Node3 -->
<g id="edge3" class="edge"><title>Node4&#45;&gt;Node3</title>
<path fill="none" stroke="midnightblue" d="M80.5,-157.805C80.5,-148.91 80.5,-138.78 80.5,-131.751"/>
<polygon fill="midnightblue" stroke="midnightblue" points="77.0001,-158.083 80.5,-168.083 84.0001,-158.083 77.0001,-158.083"/>
</g>
</g>
</svg>
