<?xml version="1.0" encoding="UTF-8" standalone="no"?>
<!DOCTYPE svg PUBLIC "-//W3C//DTD SVG 1.1//EN"
 "http://www.w3.org/Graphics/SVG/1.1/DTD/svg11.dtd">
<!-- Generated by graphviz version 2.40.1 (20161225.0304)
 -->
<!-- Title: GemmImpl_gemv_batched&lt; Top, Tret &gt; Pages: 1 -->
<svg width="142pt" height="106pt"
 viewBox="0.00 0.00 142.00 106.00" xmlns="http://www.w3.org/2000/svg" xmlns:xlink="http://www.w3.org/1999/xlink">
<g id="graph0" class="graph" transform="scale(1 1) rotate(0) translate(4 102)">
<title>GemmImpl_gemv_batched&lt; Top, Tret &gt;</title>
<polygon fill="#ffffff" stroke="transparent" points="-4,4 -4,-102 138,-102 138,4 -4,4"/>
<!-- Node0 -->
<g id="node1" class="node">
<title>Node0</title>
<polygon fill="#bfbfbf" stroke="#000000" points="0,-.5 0,-30.5 134,-30.5 134,-.5 0,-.5"/>
<text text-anchor="start" x="8" y="-18.5" font-family="Helvetica,sans-Serif" font-size="10.00" fill="#000000">GemmImpl_gemv_batched</text>
<text text-anchor="middle" x="67" y="-7.5" font-family="Helvetica,sans-Serif" font-size="10.00" fill="#000000">&lt; Top, Tret &gt;</text>
</g>
<!-- Node1 -->
<g id="node2" class="node">
<title>Node1</title>
<g id="a_node2"><a xlink:href="classarm__gemm_1_1_gemm_implementation.xhtml" target="_top" xlink:title="GemmImplementation\l\&lt; Top, Tret \&gt;">
<polygon fill="#ffffff" stroke="#000000" points="10.5,-67.5 10.5,-97.5 123.5,-97.5 123.5,-67.5 10.5,-67.5"/>
<text text-anchor="start" x="18.5" y="-85.5" font-family="Helvetica,sans-Serif" font-size="10.00" fill="#000000">GemmImplementation</text>
<text text-anchor="middle" x="67" y="-74.5" font-family="Helvetica,sans-Serif" font-size="10.00" fill="#000000">&lt; Top, Tret &gt;</text>
</a>
</g>
</g>
<!-- Node1&#45;&gt;Node0 -->
<g id="edge1" class="edge">
<title>Node1&#45;&gt;Node0</title>
<path fill="none" stroke="#191970" d="M67,-57.0249C67,-48.128 67,-38.4287 67,-30.6432"/>
<polygon fill="#191970" stroke="#191970" points="63.5001,-57.2966 67,-67.2967 70.5001,-57.2967 63.5001,-57.2966"/>
</g>
</g>
</svg>
