<?xml version="1.0" encoding="UTF-8" standalone="no"?>
<!DOCTYPE svg PUBLIC "-//W3C//DTD SVG 1.1//EN"
 "http://www.w3.org/Graphics/SVG/1.1/DTD/svg11.dtd">
<!-- Generated by graphviz version 2.38.0 (20140413.2041)
 -->
<!-- Title: CLSplit Pages: 1 -->
<svg width="212pt" height="231pt"
 viewBox="0.00 0.00 211.50 231.00" xmlns="http://www.w3.org/2000/svg" xmlns:xlink="http://www.w3.org/1999/xlink">
<g id="graph0" class="graph" transform="scale(1 1) rotate(0) translate(4 227)">
<title>CLSplit</title>
<polygon fill="white" stroke="none" points="-4,4 -4,-227 207.5,-227 207.5,4 -4,4"/>
<!-- Node0 -->
<g id="node1" class="node"><title>Node0</title>
<g id="a_node1"><a xlink:title="Basic function to split a tensor along a given axis.">
<polygon fill="#bfbfbf" stroke="black" points="27.5,-0.5 27.5,-19.5 77.5,-19.5 77.5,-0.5 27.5,-0.5"/>
<text text-anchor="middle" x="52.5" y="-7.5" font-family="Helvetica,sans-Serif" font-size="10.00">CLSplit</text>
</a>
</g>
</g>
<!-- Node1 -->
<g id="node2" class="node"><title>Node1</title>
<g id="a_node2"><a xlink:href="classarm__compute_1_1_c_p_p_split.xhtml" target="_top" xlink:title=" ">
<polygon fill="white" stroke="black" points="0,-57.5 0,-87.5 105,-87.5 105,-57.5 0,-57.5"/>
<text text-anchor="start" x="8" y="-75.5" font-family="Helvetica,sans-Serif" font-size="10.00">CPPSplit&lt; CLSlice,</text>
<text text-anchor="middle" x="52.5" y="-64.5" font-family="Helvetica,sans-Serif" font-size="10.00"> ICLTensor &gt;</text>
</a>
</g>
</g>
<!-- Node1&#45;&gt;Node0 -->
<g id="edge1" class="edge"><title>Node1&#45;&gt;Node0</title>
<path fill="none" stroke="midnightblue" d="M52.5,-47.3524C52.5,-37.5132 52.5,-26.7753 52.5,-19.5399"/>
<polygon fill="midnightblue" stroke="midnightblue" points="49.0001,-47.468 52.5,-57.468 56.0001,-47.4681 49.0001,-47.468"/>
</g>
<!-- Node2 -->
<g id="node3" class="node"><title>Node2</title>
<g id="a_node3"><a xlink:href="classarm__compute_1_1_i_function.xhtml" target="_top" xlink:title="Base class for all functions.">
<polygon fill="white" stroke="black" points="36,-203.5 36,-222.5 95,-222.5 95,-203.5 36,-203.5"/>
<text text-anchor="middle" x="65.5" y="-210.5" font-family="Helvetica,sans-Serif" font-size="10.00">IFunction</text>
</a>
</g>
</g>
<!-- Node2&#45;&gt;Node1 -->
<g id="edge2" class="edge"><title>Node2&#45;&gt;Node1</title>
<path fill="none" stroke="midnightblue" d="M61.211,-193.443C59.4532,-185.1 57.581,-175.102 56.5,-166 53.2203,-138.386 52.5466,-105.851 52.4545,-87.657"/>
<polygon fill="midnightblue" stroke="midnightblue" points="57.8016,-194.236 63.3797,-203.243 64.6363,-192.723 57.8016,-194.236"/>
</g>
<!-- Node3 -->
<g id="node4" class="node"><title>Node3</title>
<g id="a_node4"><a xlink:href="classarm__compute_1_1_c_p_p_split.xhtml" target="_top" xlink:title="Basic function to split a tensor along a given axis.">
<polygon fill="white" stroke="black" points="65,-135.5 65,-165.5 190,-165.5 190,-135.5 65,-135.5"/>
<text text-anchor="start" x="73" y="-153.5" font-family="Helvetica,sans-Serif" font-size="10.00">CPPSplit&lt; SliceType,</text>
<text text-anchor="middle" x="127.5" y="-142.5" font-family="Helvetica,sans-Serif" font-size="10.00"> TensorInterfaceType &gt;</text>
</a>
</g>
</g>
<!-- Node2&#45;&gt;Node3 -->
<g id="edge4" class="edge"><title>Node2&#45;&gt;Node3</title>
<path fill="none" stroke="midnightblue" d="M81.7878,-196.106C91.433,-186.694 103.552,-174.869 112.888,-165.759"/>
<polygon fill="midnightblue" stroke="midnightblue" points="79.0958,-193.843 74.3831,-203.332 83.9846,-198.853 79.0958,-193.843"/>
</g>
<!-- Node3&#45;&gt;Node1 -->
<g id="edge3" class="edge"><title>Node3&#45;&gt;Node1</title>
<path fill="none" stroke="orange" stroke-dasharray="5,2" d="M106.316,-128.033C93.5839,-115.132 77.7351,-99.0716 66.5437,-87.7309"/>
<polygon fill="orange" stroke="orange" points="103.878,-130.546 113.393,-135.205 108.86,-125.629 103.878,-130.546"/>
<text text-anchor="middle" x="148.5" y="-109" font-family="Helvetica,sans-Serif" font-size="10.00"> &lt; CLSlice, ICLTensor &gt;</text>
</g>
</g>
</svg>
