<?xml version="1.0" encoding="UTF-8" standalone="no"?>
<!DOCTYPE svg PUBLIC "-//W3C//DTD SVG 1.1//EN"
 "http://www.w3.org/Graphics/SVG/1.1/DTD/svg11.dtd">
<!-- Generated by graphviz version 2.38.0 (20140413.2041)
 -->
<!-- Title: AccessWindowStatic Pages: 1 -->
<svg width="224pt" height="219pt"
 viewBox="0.00 0.00 224.00 219.00" xmlns="http://www.w3.org/2000/svg" xmlns:xlink="http://www.w3.org/1999/xlink">
<g id="graph0" class="graph" transform="scale(1 1) rotate(0) translate(4 215)">
<title>AccessWindowStatic</title>
<polygon fill="white" stroke="none" points="-4,4 -4,-215 220,-215 220,4 -4,4"/>
<!-- Node1 -->
<g id="node1" class="node"><title>Node1</title>
<polygon fill="#bfbfbf" stroke="black" points="19.5,-0.5 19.5,-19.5 132.5,-19.5 132.5,-0.5 19.5,-0.5"/>
<text text-anchor="middle" x="76" y="-7.5" font-family="Helvetica,sans-Serif" font-size="10.00">AccessWindowStatic</text>
</g>
<!-- Node2 -->
<g id="node2" class="node"><title>Node2</title>
<g id="a_node2"><a xlink:href="classarm__compute_1_1_i_access_window.xhtml" target="_top" xlink:title="Interface describing methods to update access window and padding based on kernel parameters. ">
<polygon fill="white" stroke="black" points="0,-67.5 0,-86.5 88,-86.5 88,-67.5 0,-67.5"/>
<text text-anchor="middle" x="44" y="-74.5" font-family="Helvetica,sans-Serif" font-size="10.00">IAccessWindow</text>
</a>
</g>
</g>
<!-- Node2&#45;&gt;Node1 -->
<g id="edge1" class="edge"><title>Node2&#45;&gt;Node1</title>
<path fill="none" stroke="midnightblue" d="M52.7811,-58.1635C58.9523,-45.6281 66.9364,-29.4104 71.7527,-19.6273"/>
<polygon fill="midnightblue" stroke="midnightblue" points="49.5925,-56.7162 48.3157,-67.2338 55.8727,-59.808 49.5925,-56.7162"/>
</g>
<!-- Node3 -->
<g id="node3" class="node"><title>Node3</title>
<g id="a_node3"><a xlink:href="classarm__compute_1_1_i_tensor_info.xhtml" target="_top" xlink:title="Store the tensor&#39;s metadata. ">
<polygon fill="white" stroke="black" points="106.5,-67.5 106.5,-86.5 173.5,-86.5 173.5,-67.5 106.5,-67.5"/>
<text text-anchor="middle" x="140" y="-74.5" font-family="Helvetica,sans-Serif" font-size="10.00">ITensorInfo</text>
</a>
</g>
</g>
<!-- Node3&#45;&gt;Node1 -->
<g id="edge2" class="edge"><title>Node3&#45;&gt;Node1</title>
<path fill="none" stroke="#9a32cd" stroke-dasharray="5,2" d="M124.243,-59.9968C111.692,-47.2496 94.604,-29.8947 84.4946,-19.6273"/>
<polygon fill="#9a32cd" stroke="#9a32cd" points="121.859,-62.5637 131.369,-67.2338 126.847,-57.6525 121.859,-62.5637"/>
<text text-anchor="middle" x="124" y="-41" font-family="Helvetica,sans-Serif" font-size="10.00"> _info</text>
</g>
<!-- Node4 -->
<g id="node4" class="node"><title>Node4</title>
<g id="a_node4"><a xlink:href="classarm__compute_1_1misc_1_1_i_cloneable.xhtml" target="_top" xlink:title="ICloneable\&lt; ITensorInfo \&gt;">
<polygon fill="white" stroke="black" points="70.5,-124.5 70.5,-143.5 209.5,-143.5 209.5,-124.5 70.5,-124.5"/>
<text text-anchor="middle" x="140" y="-131.5" font-family="Helvetica,sans-Serif" font-size="10.00">ICloneable&lt; ITensorInfo &gt;</text>
</a>
</g>
</g>
<!-- Node4&#45;&gt;Node3 -->
<g id="edge3" class="edge"><title>Node4&#45;&gt;Node3</title>
<path fill="none" stroke="midnightblue" d="M140,-114.117C140,-104.817 140,-94.0557 140,-86.7149"/>
<polygon fill="midnightblue" stroke="midnightblue" points="136.5,-114.406 140,-124.406 143.5,-114.406 136.5,-114.406"/>
</g>
<!-- Node5 -->
<g id="node5" class="node"><title>Node5</title>
<g id="a_node5"><a xlink:href="classarm__compute_1_1misc_1_1_i_cloneable.xhtml" target="_top" xlink:title="Clonable Interface. ">
<polygon fill="white" stroke="black" points="93,-191.5 93,-210.5 187,-210.5 187,-191.5 93,-191.5"/>
<text text-anchor="middle" x="140" y="-198.5" font-family="Helvetica,sans-Serif" font-size="10.00">ICloneable&lt; T &gt;</text>
</a>
</g>
</g>
<!-- Node5&#45;&gt;Node4 -->
<g id="edge4" class="edge"><title>Node5&#45;&gt;Node4</title>
<path fill="none" stroke="orange" stroke-dasharray="5,2" d="M140,-181.037C140,-168.67 140,-153.12 140,-143.627"/>
<polygon fill="orange" stroke="orange" points="136.5,-181.234 140,-191.234 143.5,-181.234 136.5,-181.234"/>
<text text-anchor="middle" x="178" y="-165" font-family="Helvetica,sans-Serif" font-size="10.00"> &lt; ITensorInfo &gt;</text>
</g>
</g>
</svg>
