<?xml version="1.0" encoding="UTF-8" standalone="no"?>
<!DOCTYPE svg PUBLIC "-//W3C//DTD SVG 1.1//EN"
 "http://www.w3.org/Graphics/SVG/1.1/DTD/svg11.dtd">
<!-- Generated by graphviz version 2.38.0 (20140413.2041)
 -->
<!-- Title: CLTensor Pages: 1 -->
<svg width="70pt" height="140pt"
 viewBox="0.00 0.00 70.00 140.00" xmlns="http://www.w3.org/2000/svg" xmlns:xlink="http://www.w3.org/1999/xlink">
<g id="graph0" class="graph" transform="scale(1 1) rotate(0) translate(4 136)">
<title>CLTensor</title>
<polygon fill="white" stroke="none" points="-4,4 -4,-136 66,-136 66,4 -4,4"/>
<!-- Node1 -->
<g id="node1" class="node"><title>Node1</title>
<polygon fill="#bfbfbf" stroke="black" points="1.5,-0.5 1.5,-19.5 60.5,-19.5 60.5,-0.5 1.5,-0.5"/>
<text text-anchor="middle" x="31" y="-7.5" font-family="Helvetica,sans-Serif" font-size="10.00">CLTensor</text>
</g>
<!-- Node2 -->
<g id="node2" class="node"><title>Node2</title>
<g id="a_node2"><a xlink:href="classarm__compute_1_1_i_c_l_tensor.xhtml" target="_top" xlink:title="Interface for OpenCL tensor. ">
<polygon fill="white" stroke="black" points="-3.55271e-15,-56.5 -3.55271e-15,-75.5 62,-75.5 62,-56.5 -3.55271e-15,-56.5"/>
<text text-anchor="middle" x="31" y="-63.5" font-family="Helvetica,sans-Serif" font-size="10.00">ICLTensor</text>
</a>
</g>
</g>
<!-- Node2&#45;&gt;Node1 -->
<g id="edge1" class="edge"><title>Node2&#45;&gt;Node1</title>
<path fill="none" stroke="midnightblue" d="M31,-45.8045C31,-36.9102 31,-26.7798 31,-19.7511"/>
<polygon fill="midnightblue" stroke="midnightblue" points="27.5001,-46.083 31,-56.083 34.5001,-46.083 27.5001,-46.083"/>
</g>
<!-- Node3 -->
<g id="node3" class="node"><title>Node3</title>
<g id="a_node3"><a xlink:href="classarm__compute_1_1_i_tensor.xhtml" target="_top" xlink:title="Interface for NEON tensor. ">
<polygon fill="white" stroke="black" points="6,-112.5 6,-131.5 56,-131.5 56,-112.5 6,-112.5"/>
<text text-anchor="middle" x="31" y="-119.5" font-family="Helvetica,sans-Serif" font-size="10.00">ITensor</text>
</a>
</g>
</g>
<!-- Node3&#45;&gt;Node2 -->
<g id="edge2" class="edge"><title>Node3&#45;&gt;Node2</title>
<path fill="none" stroke="midnightblue" d="M31,-101.805C31,-92.9102 31,-82.7798 31,-75.7511"/>
<polygon fill="midnightblue" stroke="midnightblue" points="27.5001,-102.083 31,-112.083 34.5001,-102.083 27.5001,-102.083"/>
</g>
</g>
</svg>
