<?xml version="1.0" encoding="UTF-8" standalone="no"?>
<!DOCTYPE svg PUBLIC "-//W3C//DTD SVG 1.1//EN"
 "http://www.w3.org/Graphics/SVG/1.1/DTD/svg11.dtd">
<!-- Generated by graphviz version 2.38.0 (20140413.2041)
 -->
<!-- Title: NEGEMMLowpQuantizeDownInt32ToUint8Scale Pages: 1 -->
<svg width="185pt" height="151pt"
 viewBox="0.00 0.00 185.00 151.00" xmlns="http://www.w3.org/2000/svg" xmlns:xlink="http://www.w3.org/1999/xlink">
<g id="graph0" class="graph" transform="scale(1 1) rotate(0) translate(4 147)">
<title>NEGEMMLowpQuantizeDownInt32ToUint8Scale</title>
<polygon fill="white" stroke="none" points="-4,4 -4,-147 181,-147 181,4 -4,4"/>
<!-- Node0 -->
<g id="node1" class="node"><title>Node0</title>
<g id="a_node1"><a xlink:title="Basic function to execute NEGEMMLowpQuantizeDownInt32ToUint8Scale on NEON.">
<polygon fill="#bfbfbf" stroke="black" points="-1.42109e-14,-0.5 -1.42109e-14,-30.5 177,-30.5 177,-0.5 -1.42109e-14,-0.5"/>
<text text-anchor="start" x="8" y="-18.5" font-family="Helvetica,sans-Serif" font-size="10.00">NEGEMMLowpQuantizeDownInt32</text>
<text text-anchor="middle" x="88.5" y="-7.5" font-family="Helvetica,sans-Serif" font-size="10.00">ToUint8Scale</text>
</a>
</g>
</g>
<!-- Node1 -->
<g id="node2" class="node"><title>Node1</title>
<g id="a_node2"><a xlink:href="classarm__compute_1_1_i_n_e_simple_function_no_border.xhtml" target="_top" xlink:title="Basic interface for functions which have a single NEON kernel and no border.">
<polygon fill="white" stroke="black" points="13,-67.5 13,-86.5 164,-86.5 164,-67.5 13,-67.5"/>
<text text-anchor="middle" x="88.5" y="-74.5" font-family="Helvetica,sans-Serif" font-size="10.00">INESimpleFunctionNoBorder</text>
</a>
</g>
</g>
<!-- Node1&#45;&gt;Node0 -->
<g id="edge1" class="edge"><title>Node1&#45;&gt;Node0</title>
<path fill="none" stroke="midnightblue" d="M88.5,-57.2349C88.5,-48.5864 88.5,-38.4969 88.5,-30.523"/>
<polygon fill="midnightblue" stroke="midnightblue" points="85.0001,-57.4751 88.5,-67.4751 92.0001,-57.4751 85.0001,-57.4751"/>
</g>
<!-- Node2 -->
<g id="node3" class="node"><title>Node2</title>
<g id="a_node3"><a xlink:href="classarm__compute_1_1_i_function.xhtml" target="_top" xlink:title="Base class for all functions.">
<polygon fill="white" stroke="black" points="59,-123.5 59,-142.5 118,-142.5 118,-123.5 59,-123.5"/>
<text text-anchor="middle" x="88.5" y="-130.5" font-family="Helvetica,sans-Serif" font-size="10.00">IFunction</text>
</a>
</g>
</g>
<!-- Node2&#45;&gt;Node1 -->
<g id="edge2" class="edge"><title>Node2&#45;&gt;Node1</title>
<path fill="none" stroke="midnightblue" d="M88.5,-112.805C88.5,-103.91 88.5,-93.7798 88.5,-86.7511"/>
<polygon fill="midnightblue" stroke="midnightblue" points="85.0001,-113.083 88.5,-123.083 92.0001,-113.083 85.0001,-113.083"/>
</g>
</g>
</svg>
