<?xml version="1.0" encoding="UTF-8" standalone="no"?>
<!DOCTYPE svg PUBLIC "-//W3C//DTD SVG 1.1//EN"
 "http://www.w3.org/Graphics/SVG/1.1/DTD/svg11.dtd">
<!-- Generated by graphviz version 2.40.1 (20161225.0304)
 -->
<!-- Title: CLLogits1DMaxKernel Pages: 1 -->
<svg width="123pt" height="308pt"
 viewBox="0.00 0.00 123.00 308.00" xmlns="http://www.w3.org/2000/svg" xmlns:xlink="http://www.w3.org/1999/xlink">
<g id="graph0" class="graph" transform="scale(1 1) rotate(0) translate(4 304)">
<title>CLLogits1DMaxKernel</title>
<polygon fill="#ffffff" stroke="transparent" points="-4,4 -4,-304 119,-304 119,4 -4,4"/>
<!-- Node0 -->
<g id="node1" class="node">
<title>Node0</title>
<polygon fill="#bfbfbf" stroke="#000000" points="0,-.5 0,-19.5 115,-19.5 115,-.5 0,-.5"/>
<text text-anchor="middle" x="57.5" y="-7.5" font-family="Helvetica,sans-Serif" font-size="10.00" fill="#000000">CLLogits1DMaxKernel</text>
</g>
<!-- Node1 -->
<g id="node2" class="node">
<title>Node1</title>
<g id="a_node2"><a xlink:href="classarm__compute_1_1_i_c_l_simple3_d_kernel.xhtml" target="_top" xlink:title="Interface for simple OpenCL kernels having 1 tensor input and 1 tensor output. ">
<polygon fill="#ffffff" stroke="#000000" points="6,-56.5 6,-75.5 109,-75.5 109,-56.5 6,-56.5"/>
<text text-anchor="middle" x="57.5" y="-63.5" font-family="Helvetica,sans-Serif" font-size="10.00" fill="#000000">ICLSimple3DKernel</text>
</a>
</g>
</g>
<!-- Node1&#45;&gt;Node0 -->
<g id="edge1" class="edge">
<title>Node1&#45;&gt;Node0</title>
<path fill="none" stroke="#191970" d="M57.5,-46.1575C57.5,-37.155 57.5,-26.9199 57.5,-19.6427"/>
<polygon fill="#191970" stroke="#191970" points="54.0001,-46.2455 57.5,-56.2455 61.0001,-46.2456 54.0001,-46.2455"/>
</g>
<!-- Node2 -->
<g id="node3" class="node">
<title>Node2</title>
<g id="a_node3"><a xlink:href="classarm__compute_1_1_i_c_l_simple2_d_kernel.xhtml" target="_top" xlink:title="Interface for simple OpenCL kernels having 1 tensor input and 1 tensor output. ">
<polygon fill="#ffffff" stroke="#000000" points="6,-112.5 6,-131.5 109,-131.5 109,-112.5 6,-112.5"/>
<text text-anchor="middle" x="57.5" y="-119.5" font-family="Helvetica,sans-Serif" font-size="10.00" fill="#000000">ICLSimple2DKernel</text>
</a>
</g>
</g>
<!-- Node2&#45;&gt;Node1 -->
<g id="edge2" class="edge">
<title>Node2&#45;&gt;Node1</title>
<path fill="none" stroke="#191970" d="M57.5,-102.1575C57.5,-93.155 57.5,-82.9199 57.5,-75.6427"/>
<polygon fill="#191970" stroke="#191970" points="54.0001,-102.2455 57.5,-112.2455 61.0001,-102.2456 54.0001,-102.2455"/>
</g>
<!-- Node3 -->
<g id="node4" class="node">
<title>Node3</title>
<g id="a_node4"><a xlink:href="classarm__compute_1_1_i_c_l_simple_kernel.xhtml" target="_top" xlink:title="Interface for simple OpenCL kernels having 1 tensor input and 1 tensor output. ">
<polygon fill="#ffffff" stroke="#000000" points="12.5,-168.5 12.5,-187.5 102.5,-187.5 102.5,-168.5 12.5,-168.5"/>
<text text-anchor="middle" x="57.5" y="-175.5" font-family="Helvetica,sans-Serif" font-size="10.00" fill="#000000">ICLSimpleKernel</text>
</a>
</g>
</g>
<!-- Node3&#45;&gt;Node2 -->
<g id="edge3" class="edge">
<title>Node3&#45;&gt;Node2</title>
<path fill="none" stroke="#191970" d="M57.5,-158.1575C57.5,-149.155 57.5,-138.9199 57.5,-131.6427"/>
<polygon fill="#191970" stroke="#191970" points="54.0001,-158.2455 57.5,-168.2455 61.0001,-158.2456 54.0001,-158.2455"/>
</g>
<!-- Node4 -->
<g id="node5" class="node">
<title>Node4</title>
<g id="a_node5"><a xlink:href="classarm__compute_1_1_i_c_l_kernel.xhtml" target="_top" xlink:title="Common interface for all the OpenCL kernels. ">
<polygon fill="#ffffff" stroke="#000000" points="27.5,-224.5 27.5,-243.5 87.5,-243.5 87.5,-224.5 27.5,-224.5"/>
<text text-anchor="middle" x="57.5" y="-231.5" font-family="Helvetica,sans-Serif" font-size="10.00" fill="#000000">ICLKernel</text>
</a>
</g>
</g>
<!-- Node4&#45;&gt;Node3 -->
<g id="edge4" class="edge">
<title>Node4&#45;&gt;Node3</title>
<path fill="none" stroke="#191970" d="M57.5,-214.1575C57.5,-205.155 57.5,-194.9199 57.5,-187.6427"/>
<polygon fill="#191970" stroke="#191970" points="54.0001,-214.2455 57.5,-224.2455 61.0001,-214.2456 54.0001,-214.2455"/>
</g>
<!-- Node5 -->
<g id="node6" class="node">
<title>Node5</title>
<g id="a_node6"><a xlink:href="classarm__compute_1_1_i_kernel.xhtml" target="_top" xlink:title="Common information for all the kernels. ">
<polygon fill="#ffffff" stroke="#000000" points="34,-280.5 34,-299.5 81,-299.5 81,-280.5 34,-280.5"/>
<text text-anchor="middle" x="57.5" y="-287.5" font-family="Helvetica,sans-Serif" font-size="10.00" fill="#000000">IKernel</text>
</a>
</g>
</g>
<!-- Node5&#45;&gt;Node4 -->
<g id="edge5" class="edge">
<title>Node5&#45;&gt;Node4</title>
<path fill="none" stroke="#191970" d="M57.5,-270.1575C57.5,-261.155 57.5,-250.9199 57.5,-243.6427"/>
<polygon fill="#191970" stroke="#191970" points="54.0001,-270.2455 57.5,-280.2455 61.0001,-270.2456 54.0001,-270.2455"/>
</g>
</g>
</svg>
