<?xml version="1.0" encoding="UTF-8" standalone="no"?>
<!DOCTYPE svg PUBLIC "-//W3C//DTD SVG 1.1//EN"
 "http://www.w3.org/Graphics/SVG/1.1/DTD/svg11.dtd">
<!-- Generated by graphviz version 2.38.0 (20140413.2041)
 -->
<!-- Title: CLCol2ImKernel Pages: 1 -->
<svg width="260pt" height="163pt"
 viewBox="0.00 0.00 260.00 163.00" xmlns="http://www.w3.org/2000/svg" xmlns:xlink="http://www.w3.org/1999/xlink">
<g id="graph0" class="graph" transform="scale(1 1) rotate(0) translate(4 159)">
<title>CLCol2ImKernel</title>
<polygon fill="white" stroke="none" points="-4,4 -4,-159 256,-159 256,4 -4,4"/>
<!-- Node0 -->
<g id="node1" class="node"><title>Node0</title>
<g id="a_node1"><a xlink:title="Interface for the col2im reshaping kernel.">
<polygon fill="#bfbfbf" stroke="black" points="62.5,-0.5 62.5,-19.5 153.5,-19.5 153.5,-0.5 62.5,-0.5"/>
<text text-anchor="middle" x="108" y="-7.5" font-family="Helvetica,sans-Serif" font-size="10.00">CLCol2ImKernel</text>
</a>
</g>
</g>
<!-- Node1 -->
<g id="node2" class="node"><title>Node1</title>
<g id="a_node2"><a xlink:href="classarm__compute_1_1_i_c_l_kernel.xhtml" target="_top" xlink:title="Common interface for all the OpenCL kernels.">
<polygon fill="white" stroke="black" points="0,-78.5 0,-97.5 60,-97.5 60,-78.5 0,-78.5"/>
<text text-anchor="middle" x="30" y="-85.5" font-family="Helvetica,sans-Serif" font-size="10.00">ICLKernel</text>
</a>
</g>
</g>
<!-- Node1&#45;&gt;Node0 -->
<g id="edge1" class="edge"><title>Node1&#45;&gt;Node0</title>
<path fill="none" stroke="midnightblue" d="M46.5493,-70.875C62.6203,-55.2161 86.4041,-32.0422 99.1568,-19.6165"/>
<polygon fill="midnightblue" stroke="midnightblue" points="43.6674,-68.7963 38.9476,-78.2818 48.5525,-73.81 43.6674,-68.7963"/>
</g>
<!-- Node2 -->
<g id="node3" class="node"><title>Node2</title>
<g id="a_node3"><a xlink:href="classarm__compute_1_1_i_kernel.xhtml" target="_top" xlink:title="Common information for all the kernels.">
<polygon fill="white" stroke="black" points="6,-135.5 6,-154.5 54,-154.5 54,-135.5 6,-135.5"/>
<text text-anchor="middle" x="30" y="-142.5" font-family="Helvetica,sans-Serif" font-size="10.00">IKernel</text>
</a>
</g>
</g>
<!-- Node2&#45;&gt;Node1 -->
<g id="edge2" class="edge"><title>Node2&#45;&gt;Node1</title>
<path fill="none" stroke="midnightblue" d="M30,-125.117C30,-115.817 30,-105.056 30,-97.7149"/>
<polygon fill="midnightblue" stroke="midnightblue" points="26.5001,-125.406 30,-135.406 33.5001,-125.406 26.5001,-125.406"/>
</g>
<!-- Node3 -->
<g id="node4" class="node"><title>Node3</title>
<g id="a_node4"><a xlink:href="classarm__compute_1_1_i_c_l_tensor.xhtml" target="_top" xlink:title="Interface for OpenCL tensor.">
<polygon fill="white" stroke="black" points="78,-78.5 78,-97.5 138,-97.5 138,-78.5 78,-78.5"/>
<text text-anchor="middle" x="108" y="-85.5" font-family="Helvetica,sans-Serif" font-size="10.00">ICLTensor</text>
</a>
</g>
</g>
<!-- Node3&#45;&gt;Node0 -->
<g id="edge3" class="edge"><title>Node3&#45;&gt;Node0</title>
<path fill="none" stroke="#9a32cd" stroke-dasharray="5,2" d="M108,-68.2239C108,-52.6974 108,-31.3582 108,-19.6165"/>
<polygon fill="#9a32cd" stroke="#9a32cd" points="104.5,-68.2818 108,-78.2818 111.5,-68.2819 104.5,-68.2818"/>
<text text-anchor="middle" x="128" y="-52" font-family="Helvetica,sans-Serif" font-size="10.00"> _output</text>
<text text-anchor="middle" x="128" y="-41" font-family="Helvetica,sans-Serif" font-size="10.00">_input</text>
</g>
<!-- Node4 -->
<g id="node5" class="node"><title>Node4</title>
<g id="a_node5"><a xlink:href="classarm__compute_1_1_i_tensor.xhtml" target="_top" xlink:title="Interface for NEON tensor.">
<polygon fill="white" stroke="black" points="83,-135.5 83,-154.5 133,-154.5 133,-135.5 83,-135.5"/>
<text text-anchor="middle" x="108" y="-142.5" font-family="Helvetica,sans-Serif" font-size="10.00">ITensor</text>
</a>
</g>
</g>
<!-- Node4&#45;&gt;Node3 -->
<g id="edge4" class="edge"><title>Node4&#45;&gt;Node3</title>
<path fill="none" stroke="midnightblue" d="M108,-125.117C108,-115.817 108,-105.056 108,-97.7149"/>
<polygon fill="midnightblue" stroke="midnightblue" points="104.5,-125.406 108,-135.406 111.5,-125.406 104.5,-125.406"/>
</g>
<!-- Node5 -->
<g id="node6" class="node"><title>Node5</title>
<g id="a_node6"><a xlink:href="classarm__compute_1_1_size2_d.xhtml" target="_top" xlink:title="Class for specifying the size of an image or rectangle.">
<polygon fill="white" stroke="black" points="156,-78.5 156,-97.5 206,-97.5 206,-78.5 156,-78.5"/>
<text text-anchor="middle" x="181" y="-85.5" font-family="Helvetica,sans-Serif" font-size="10.00">Size2D</text>
</a>
</g>
</g>
<!-- Node5&#45;&gt;Node0 -->
<g id="edge5" class="edge"><title>Node5&#45;&gt;Node0</title>
<path fill="none" stroke="#9a32cd" stroke-dasharray="5,2" d="M172.939,-68.8341C167.918,-58.919 160.748,-46.8895 152,-38 144.582,-30.4623 134.654,-24.1369 126.106,-19.5077"/>
<polygon fill="#9a32cd" stroke="#9a32cd" points="169.924,-70.6447 177.371,-78.1809 176.249,-67.6456 169.924,-70.6447"/>
<text text-anchor="middle" x="209.5" y="-46.5" font-family="Helvetica,sans-Serif" font-size="10.00"> _convolved_dims</text>
</g>
</g>
</svg>
