<?xml version="1.0" encoding="UTF-8" standalone="no"?>
<!DOCTYPE svg PUBLIC "-//W3C//DTD SVG 1.1//EN"
 "http://www.w3.org/Graphics/SVG/1.1/DTD/svg11.dtd">
<!-- Generated by graphviz version 2.38.0 (20140413.2041)
 -->
<!-- Title: tests/benchmark/CL Pages: 1 -->
<svg width="250pt" height="231pt"
 viewBox="0.00 0.00 250.36 231.00" xmlns="http://www.w3.org/2000/svg" xmlns:xlink="http://www.w3.org/1999/xlink">
<g id="graph0" class="graph" transform="scale(1 1) rotate(0) translate(4 227)">
<title>tests/benchmark/CL</title>
<polygon fill="white" stroke="none" points="-4,4 -4,-227 246.364,-227 246.364,4 -4,4"/>
<g id="clust1" class="cluster"><title>clusterdir_4f2df8950dc650bf7cf9176fae02facc</title>
<g id="a_clust1"><a xlink:href="dir_4f2df8950dc650bf7cf9176fae02facc.xhtml" target="_top" xlink:title="benchmark">
<polygon fill="#ddddee" stroke="black" points="48.3284,-128 48.3284,-215 208.328,-215 208.328,-128 48.3284,-128"/>
<text text-anchor="middle" x="128.328" y="-203" font-family="Helvetica,sans-Serif" font-size="10.00">benchmark</text>
</a>
</g>
</g>
<g id="clust2" class="cluster"><title>clusterdir_4da487531dc5bdc76b523c9e82b781b1</title>
<g id="a_clust2"><a xlink:href="dir_4da487531dc5bdc76b523c9e82b781b1.xhtml" target="_top">
<polygon fill="#eeeeff" stroke="black" points="56.3284,-136 56.3284,-188 200.328,-188 200.328,-136 56.3284,-136"/>
</a>
</g>
</g>
<!-- dir_4da487531dc5bdc76b523c9e82b781b1 -->
<g id="node1" class="node"><title>dir_4da487531dc5bdc76b523c9e82b781b1</title>
<text text-anchor="middle" x="91.3284" y="-159.5" font-family="Helvetica,sans-Serif" font-size="10.00">CL</text>
</g>
<!-- dir_cbdb8362360e11eafe2fa3bc74cf0ffd -->
<g id="node3" class="node"><title>dir_cbdb8362360e11eafe2fa3bc74cf0ffd</title>
<g id="a_node3"><a xlink:href="dir_cbdb8362360e11eafe2fa3bc74cf0ffd.xhtml" target="_top" xlink:title="utils">
<polygon fill="none" stroke="black" points="227.328,-108 173.328,-108 173.328,-72 227.328,-72 227.328,-108"/>
<text text-anchor="middle" x="200.328" y="-87.5" font-family="Helvetica,sans-Serif" font-size="10.00">utils</text>
</a>
</g>
</g>
<!-- dir_4da487531dc5bdc76b523c9e82b781b1&#45;&gt;dir_cbdb8362360e11eafe2fa3bc74cf0ffd -->
<g id="edge1" class="edge"><title>dir_4da487531dc5bdc76b523c9e82b781b1&#45;&gt;dir_cbdb8362360e11eafe2fa3bc74cf0ffd</title>
<path fill="none" stroke="black" d="M108.095,-143.871C113.901,-138.432 120.636,-132.633 127.328,-128 134.004,-123.379 149.267,-115.51 164.12,-108.214"/>
<polygon fill="black" stroke="black" points="165.774,-111.302 173.235,-103.78 162.711,-105.007 165.774,-111.302"/>
<g id="a_edge1&#45;headlabel"><a xlink:href="dir_000054_000023.xhtml" target="_top" xlink:title="37">
<text text-anchor="middle" x="163.784" y="-112.927" font-family="Helvetica,sans-Serif" font-size="10.00">37</text>
</a>
</g>
</g>
<!-- dir_9e71e2da941d3cafc4d98a9f6ae3de4f -->
<g id="node4" class="node"><title>dir_9e71e2da941d3cafc4d98a9f6ae3de4f</title>
<g id="a_node4"><a xlink:href="dir_9e71e2da941d3cafc4d98a9f6ae3de4f.xhtml" target="_top" xlink:title="framework">
<polygon fill="white" stroke="red" points="82.8284,-108 15.8284,-108 15.8284,-72 82.8284,-72 82.8284,-108"/>
<text text-anchor="middle" x="49.3284" y="-87.5" font-family="Helvetica,sans-Serif" font-size="10.00">framework</text>
</a>
</g>
</g>
<!-- dir_4da487531dc5bdc76b523c9e82b781b1&#45;&gt;dir_9e71e2da941d3cafc4d98a9f6ae3de4f -->
<g id="edge2" class="edge"><title>dir_4da487531dc5bdc76b523c9e82b781b1&#45;&gt;dir_9e71e2da941d3cafc4d98a9f6ae3de4f</title>
<path fill="none" stroke="black" d="M80.9463,-143.697C76.0637,-135.559 70.1418,-125.689 64.7491,-116.701"/>
<polygon fill="black" stroke="black" points="67.7372,-114.879 59.591,-108.104 61.7347,-118.48 67.7372,-114.879"/>
<g id="a_edge2&#45;headlabel"><a xlink:href="dir_000054_000022.xhtml" target="_top" xlink:title="74">
<text text-anchor="middle" x="72.0212" y="-114" font-family="Helvetica,sans-Serif" font-size="10.00">74</text>
</a>
</g>
</g>
<!-- dir_214608ef36d61442cb2b0c1c4e9a7def -->
<g id="node5" class="node"><title>dir_214608ef36d61442cb2b0c1c4e9a7def</title>
<g id="a_node5"><a xlink:href="dir_214608ef36d61442cb2b0c1c4e9a7def.xhtml" target="_top" xlink:title="arm_compute">
<polygon fill="white" stroke="red" points="170.328,-36 86.3284,-36 86.3284,-0 170.328,-0 170.328,-36"/>
<text text-anchor="middle" x="128.328" y="-15.5" font-family="Helvetica,sans-Serif" font-size="10.00">arm_compute</text>
</a>
</g>
</g>
<!-- dir_4da487531dc5bdc76b523c9e82b781b1&#45;&gt;dir_214608ef36d61442cb2b0c1c4e9a7def -->
<g id="edge3" class="edge"><title>dir_4da487531dc5bdc76b523c9e82b781b1&#45;&gt;dir_214608ef36d61442cb2b0c1c4e9a7def</title>
<path fill="none" stroke="black" d="M64.1465,-152.184C44.2084,-144.124 18.5641,-130.049 6.32836,-108 -1.43534,-94.0098 -2.44651,-85.3792 6.32836,-72 21.8695,-48.3043 50.5431,-35.1475 76.1886,-27.8707"/>
<polygon fill="black" stroke="black" points="77.4028,-31.1717 86.2036,-25.2728 75.6451,-24.396 77.4028,-31.1717"/>
<g id="a_edge3&#45;headlabel"><a xlink:href="dir_000054_000000.xhtml" target="_top" xlink:title="192">
<text text-anchor="middle" x="74.6362" y="-32.3225" font-family="Helvetica,sans-Serif" font-size="10.00">192</text>
</a>
</g>
</g>
<!-- dir_896191444cf08ec8ade6f88256cb2bdd -->
<g id="node6" class="node"><title>dir_896191444cf08ec8ade6f88256cb2bdd</title>
<g id="a_node6"><a xlink:href="dir_896191444cf08ec8ade6f88256cb2bdd.xhtml" target="_top" xlink:title="CL">
<polygon fill="none" stroke="black" points="155.328,-108 101.328,-108 101.328,-72 155.328,-72 155.328,-108"/>
<text text-anchor="middle" x="128.328" y="-87.5" font-family="Helvetica,sans-Serif" font-size="10.00">CL</text>
</a>
</g>
</g>
<!-- dir_4da487531dc5bdc76b523c9e82b781b1&#45;&gt;dir_896191444cf08ec8ade6f88256cb2bdd -->
<g id="edge4" class="edge"><title>dir_4da487531dc5bdc76b523c9e82b781b1&#45;&gt;dir_896191444cf08ec8ade6f88256cb2bdd</title>
<path fill="none" stroke="black" d="M100.474,-143.697C104.731,-135.644 109.884,-125.894 114.595,-116.982"/>
<polygon fill="black" stroke="black" points="117.709,-118.581 119.287,-108.104 111.52,-115.31 117.709,-118.581"/>
<g id="a_edge4&#45;headlabel"><a xlink:href="dir_000054_000064.xhtml" target="_top" xlink:title="38">
<text text-anchor="middle" x="118.539" y="-120.586" font-family="Helvetica,sans-Serif" font-size="10.00">38</text>
</a>
</g>
</g>
<!-- dir_2dfba1021aeb15d8e1228add590b046a -->
<g id="node2" class="node"><title>dir_2dfba1021aeb15d8e1228add590b046a</title>
<g id="a_node2"><a xlink:href="dir_2dfba1021aeb15d8e1228add590b046a.xhtml" target="_top" xlink:title="SYSTEM">
<polygon fill="white" stroke="black" points="191.828,-180 136.828,-180 136.828,-144 191.828,-144 191.828,-180"/>
<text text-anchor="middle" x="164.328" y="-159.5" font-family="Helvetica,sans-Serif" font-size="10.00">SYSTEM</text>
</a>
</g>
</g>
<!-- dir_2dfba1021aeb15d8e1228add590b046a&#45;&gt;dir_cbdb8362360e11eafe2fa3bc74cf0ffd -->
<g id="edge7" class="edge"><title>dir_2dfba1021aeb15d8e1228add590b046a&#45;&gt;dir_cbdb8362360e11eafe2fa3bc74cf0ffd</title>
<path fill="none" stroke="black" d="M173.227,-143.697C177.325,-135.728 182.277,-126.1 186.821,-117.264"/>
<polygon fill="black" stroke="black" points="190.071,-118.598 191.532,-108.104 183.846,-115.396 190.071,-118.598"/>
<g id="a_edge7&#45;headlabel"><a xlink:href="dir_000060_000023.xhtml" target="_top" xlink:title="4">
<text text-anchor="middle" x="190.952" y="-120.593" font-family="Helvetica,sans-Serif" font-size="10.00">4</text>
</a>
</g>
</g>
<!-- dir_2dfba1021aeb15d8e1228add590b046a&#45;&gt;dir_9e71e2da941d3cafc4d98a9f6ae3de4f -->
<g id="edge8" class="edge"><title>dir_2dfba1021aeb15d8e1228add590b046a&#45;&gt;dir_9e71e2da941d3cafc4d98a9f6ae3de4f</title>
<path fill="none" stroke="black" d="M147.105,-143.794C141.139,-138.35 134.215,-132.567 127.328,-128 116.487,-120.81 104.031,-114.242 92.3007,-108.701"/>
<polygon fill="black" stroke="black" points="93.6434,-105.466 83.094,-104.485 90.7289,-111.831 93.6434,-105.466"/>
<g id="a_edge8&#45;headlabel"><a xlink:href="dir_000060_000022.xhtml" target="_top" xlink:title="8">
<text text-anchor="middle" x="98.0937" y="-101.881" font-family="Helvetica,sans-Serif" font-size="10.00">8</text>
</a>
</g>
</g>
<!-- dir_2dfba1021aeb15d8e1228add590b046a&#45;&gt;dir_214608ef36d61442cb2b0c1c4e9a7def -->
<g id="edge9" class="edge"><title>dir_2dfba1021aeb15d8e1228add590b046a&#45;&gt;dir_214608ef36d61442cb2b0c1c4e9a7def</title>
<path fill="none" stroke="black" d="M192.135,-148.611C208.23,-139.804 227.084,-126.284 236.328,-108 243.548,-93.7213 244.791,-85.579 236.328,-72 223.827,-51.9401 201.274,-39.2584 179.998,-31.3518"/>
<polygon fill="black" stroke="black" points="180.948,-27.9775 170.353,-28.0457 178.678,-34.5993 180.948,-27.9775"/>
<g id="a_edge9&#45;headlabel"><a xlink:href="dir_000060_000000.xhtml" target="_top" xlink:title="43">
<text text-anchor="middle" x="185.269" y="-23.9572" font-family="Helvetica,sans-Serif" font-size="10.00">43</text>
</a>
</g>
</g>
<!-- dir_2dfba1021aeb15d8e1228add590b046a&#45;&gt;dir_896191444cf08ec8ade6f88256cb2bdd -->
<g id="edge10" class="edge"><title>dir_2dfba1021aeb15d8e1228add590b046a&#45;&gt;dir_896191444cf08ec8ade6f88256cb2bdd</title>
<path fill="none" stroke="black" d="M155.429,-143.697C151.332,-135.728 146.38,-126.1 141.836,-117.264"/>
<polygon fill="black" stroke="black" points="144.811,-115.396 137.125,-108.104 138.586,-118.598 144.811,-115.396"/>
<g id="a_edge10&#45;headlabel"><a xlink:href="dir_000060_000064.xhtml" target="_top" xlink:title="4">
<text text-anchor="middle" x="148.98" y="-114.795" font-family="Helvetica,sans-Serif" font-size="10.00">4</text>
</a>
</g>
</g>
<!-- dir_cbdb8362360e11eafe2fa3bc74cf0ffd&#45;&gt;dir_214608ef36d61442cb2b0c1c4e9a7def -->
<g id="edge5" class="edge"><title>dir_cbdb8362360e11eafe2fa3bc74cf0ffd&#45;&gt;dir_214608ef36d61442cb2b0c1c4e9a7def</title>
<path fill="none" stroke="black" d="M182.531,-71.6966C173.724,-63.135 162.946,-52.6562 153.327,-43.3045"/>
<polygon fill="black" stroke="black" points="155.531,-40.5657 145.921,-36.1043 150.652,-45.5846 155.531,-40.5657"/>
<g id="a_edge5&#45;headlabel"><a xlink:href="dir_000023_000000.xhtml" target="_top" xlink:title="24">
<text text-anchor="middle" x="160.088" y="-38.5356" font-family="Helvetica,sans-Serif" font-size="10.00">24</text>
</a>
</g>
</g>
<!-- dir_9e71e2da941d3cafc4d98a9f6ae3de4f&#45;&gt;dir_214608ef36d61442cb2b0c1c4e9a7def -->
<g id="edge6" class="edge"><title>dir_9e71e2da941d3cafc4d98a9f6ae3de4f&#45;&gt;dir_214608ef36d61442cb2b0c1c4e9a7def</title>
<path fill="none" stroke="black" d="M68.8565,-71.6966C78.7102,-62.9655 90.8141,-52.2405 101.524,-42.7503"/>
<polygon fill="black" stroke="black" points="103.861,-45.3558 109.025,-36.1043 99.2192,-40.1166 103.861,-45.3558"/>
<g id="a_edge6&#45;headlabel"><a xlink:href="dir_000022_000000.xhtml" target="_top" xlink:title="13">
<text text-anchor="middle" x="103.054" y="-47.3648" font-family="Helvetica,sans-Serif" font-size="10.00">13</text>
</a>
</g>
</g>
<!-- dir_896191444cf08ec8ade6f88256cb2bdd&#45;&gt;dir_214608ef36d61442cb2b0c1c4e9a7def -->
<g id="edge11" class="edge"><title>dir_896191444cf08ec8ade6f88256cb2bdd&#45;&gt;dir_214608ef36d61442cb2b0c1c4e9a7def</title>
<path fill="none" stroke="black" d="M128.328,-71.6966C128.328,-63.9827 128.328,-54.7125 128.328,-46.1124"/>
<polygon fill="black" stroke="black" points="131.828,-46.1043 128.328,-36.1043 124.828,-46.1044 131.828,-46.1043"/>
<g id="a_edge11&#45;headlabel"><a xlink:href="dir_000064_000000.xhtml" target="_top" xlink:title="5">
<text text-anchor="middle" x="134.668" y="-47.199" font-family="Helvetica,sans-Serif" font-size="10.00">5</text>
</a>
</g>
</g>
</g>
</svg>
