<?xml version="1.0" encoding="UTF-8" standalone="no"?>
<!DOCTYPE svg PUBLIC "-//W3C//DTD SVG 1.1//EN"
 "http://www.w3.org/Graphics/SVG/1.1/DTD/svg11.dtd">
<!-- Generated by graphviz version 2.38.0 (20140413.2041)
 -->
<!-- Title: tests/benchmark Pages: 1 -->
<svg width="476pt" height="231pt"
 viewBox="0.00 0.00 475.60 231.00" xmlns="http://www.w3.org/2000/svg" xmlns:xlink="http://www.w3.org/1999/xlink">
<g id="graph0" class="graph" transform="scale(1 1) rotate(0) translate(4 227)">
<title>tests/benchmark</title>
<polygon fill="white" stroke="none" points="-4,4 -4,-227 471.603,-227 471.603,4 -4,4"/>
<g id="clust1" class="cluster"><title>clusterdir_59425e443f801f1f2fd8bbe4959a3ccf</title>
<g id="a_clust1"><a xlink:href="dir_59425e443f801f1f2fd8bbe4959a3ccf.xhtml" target="_top" xlink:title="tests">
<polygon fill="#ddddee" stroke="black" points="64.9608,-128 64.9608,-215 426.961,-215 426.961,-128 64.9608,-128"/>
<text text-anchor="middle" x="245.961" y="-203" font-family="Helvetica,sans-Serif" font-size="10.00">tests</text>
</a>
</g>
</g>
<g id="clust2" class="cluster"><title>clusterdir_4f2df8950dc650bf7cf9176fae02facc</title>
<g id="a_clust2"><a xlink:href="dir_4f2df8950dc650bf7cf9176fae02facc.xhtml" target="_top">
<polygon fill="#eeeeff" stroke="black" points="72.9608,-136 72.9608,-188 418.961,-188 418.961,-136 72.9608,-136"/>
</a>
</g>
</g>
<!-- dir_4f2df8950dc650bf7cf9176fae02facc -->
<g id="node1" class="node"><title>dir_4f2df8950dc650bf7cf9176fae02facc</title>
<text text-anchor="middle" x="374.961" y="-159.5" font-family="Helvetica,sans-Serif" font-size="10.00">benchmark</text>
</g>
<!-- dir_4da487531dc5bdc76b523c9e82b781b1 -->
<g id="node2" class="node"><title>dir_4da487531dc5bdc76b523c9e82b781b1</title>
<g id="a_node2"><a xlink:href="dir_4da487531dc5bdc76b523c9e82b781b1.xhtml" target="_top" xlink:title="CL">
<polygon fill="white" stroke="red" points="134.961,-180 80.9608,-180 80.9608,-144 134.961,-144 134.961,-180"/>
<text text-anchor="middle" x="107.961" y="-159.5" font-family="Helvetica,sans-Serif" font-size="10.00">CL</text>
</a>
</g>
</g>
<!-- dir_cbdb8362360e11eafe2fa3bc74cf0ffd -->
<g id="node5" class="node"><title>dir_cbdb8362360e11eafe2fa3bc74cf0ffd</title>
<g id="a_node5"><a xlink:href="dir_cbdb8362360e11eafe2fa3bc74cf0ffd.xhtml" target="_top" xlink:title="utils">
<polygon fill="none" stroke="black" points="141.961,-108 87.9608,-108 87.9608,-72 141.961,-72 141.961,-108"/>
<text text-anchor="middle" x="114.961" y="-87.5" font-family="Helvetica,sans-Serif" font-size="10.00">utils</text>
</a>
</g>
</g>
<!-- dir_4da487531dc5bdc76b523c9e82b781b1&#45;&gt;dir_cbdb8362360e11eafe2fa3bc74cf0ffd -->
<g id="edge1" class="edge"><title>dir_4da487531dc5bdc76b523c9e82b781b1&#45;&gt;dir_cbdb8362360e11eafe2fa3bc74cf0ffd</title>
<path fill="none" stroke="black" d="M109.691,-143.697C110.463,-135.983 111.39,-126.712 112.25,-118.112"/>
<polygon fill="black" stroke="black" points="115.738,-118.403 113.25,-108.104 108.773,-117.706 115.738,-118.403"/>
<g id="a_edge1&#45;headlabel"><a xlink:href="dir_000054_000023.xhtml" target="_top" xlink:title="37">
<text text-anchor="middle" x="118.205" y="-119.762" font-family="Helvetica,sans-Serif" font-size="10.00">37</text>
</a>
</g>
</g>
<!-- dir_9e71e2da941d3cafc4d98a9f6ae3de4f -->
<g id="node7" class="node"><title>dir_9e71e2da941d3cafc4d98a9f6ae3de4f</title>
<g id="a_node7"><a xlink:href="dir_9e71e2da941d3cafc4d98a9f6ae3de4f.xhtml" target="_top" xlink:title="framework">
<polygon fill="white" stroke="red" points="227.461,-108 160.461,-108 160.461,-72 227.461,-72 227.461,-108"/>
<text text-anchor="middle" x="193.961" y="-87.5" font-family="Helvetica,sans-Serif" font-size="10.00">framework</text>
</a>
</g>
</g>
<!-- dir_4da487531dc5bdc76b523c9e82b781b1&#45;&gt;dir_9e71e2da941d3cafc4d98a9f6ae3de4f -->
<g id="edge2" class="edge"><title>dir_4da487531dc5bdc76b523c9e82b781b1&#45;&gt;dir_9e71e2da941d3cafc4d98a9f6ae3de4f</title>
<path fill="none" stroke="black" d="M125.945,-143.832C131.6,-138.62 137.942,-132.962 143.961,-128 149.632,-123.324 155.822,-118.519 161.853,-113.985"/>
<polygon fill="black" stroke="black" points="163.969,-116.773 169.917,-108.006 159.8,-111.15 163.969,-116.773"/>
<g id="a_edge2&#45;headlabel"><a xlink:href="dir_000054_000022.xhtml" target="_top" xlink:title="74">
<text text-anchor="middle" x="162.773" y="-118.695" font-family="Helvetica,sans-Serif" font-size="10.00">74</text>
</a>
</g>
</g>
<!-- dir_214608ef36d61442cb2b0c1c4e9a7def -->
<g id="node9" class="node"><title>dir_214608ef36d61442cb2b0c1c4e9a7def</title>
<g id="a_node9"><a xlink:href="dir_214608ef36d61442cb2b0c1c4e9a7def.xhtml" target="_top" xlink:title="arm_compute">
<polygon fill="white" stroke="red" points="284.961,-36 200.961,-36 200.961,-0 284.961,-0 284.961,-36"/>
<text text-anchor="middle" x="242.961" y="-15.5" font-family="Helvetica,sans-Serif" font-size="10.00">arm_compute</text>
</a>
</g>
</g>
<!-- dir_4da487531dc5bdc76b523c9e82b781b1&#45;&gt;dir_214608ef36d61442cb2b0c1c4e9a7def -->
<g id="edge3" class="edge"><title>dir_4da487531dc5bdc76b523c9e82b781b1&#45;&gt;dir_214608ef36d61442cb2b0c1c4e9a7def</title>
<path fill="none" stroke="black" d="M80.6177,-155.026C56.5168,-148.155 22.8407,-134.266 6.9608,-108 -1.31707,-94.3078 -3.03684,-84.4919 6.9608,-72 29.5483,-43.7773 128.494,-29.5442 190.877,-23.2489"/>
<polygon fill="black" stroke="black" points="191.322,-26.7222 200.936,-22.2702 190.644,-19.7551 191.322,-26.7222"/>
<g id="a_edge3&#45;headlabel"><a xlink:href="dir_000054_000000.xhtml" target="_top" xlink:title="192">
<text text-anchor="middle" x="188.019" y="-27.3961" font-family="Helvetica,sans-Serif" font-size="10.00">192</text>
</a>
</g>
</g>
<!-- dir_896191444cf08ec8ade6f88256cb2bdd -->
<g id="node10" class="node"><title>dir_896191444cf08ec8ade6f88256cb2bdd</title>
<g id="a_node10"><a xlink:href="dir_896191444cf08ec8ade6f88256cb2bdd.xhtml" target="_top" xlink:title="CL">
<polygon fill="none" stroke="black" points="69.9608,-108 15.9608,-108 15.9608,-72 69.9608,-72 69.9608,-108"/>
<text text-anchor="middle" x="42.9608" y="-87.5" font-family="Helvetica,sans-Serif" font-size="10.00">CL</text>
</a>
</g>
</g>
<!-- dir_4da487531dc5bdc76b523c9e82b781b1&#45;&gt;dir_896191444cf08ec8ade6f88256cb2bdd -->
<g id="edge4" class="edge"><title>dir_4da487531dc5bdc76b523c9e82b781b1&#45;&gt;dir_896191444cf08ec8ade6f88256cb2bdd</title>
<path fill="none" stroke="black" d="M91.8934,-143.697C84.022,-135.22 74.4055,-124.864 65.7875,-115.583"/>
<polygon fill="black" stroke="black" points="68.2127,-113.051 58.8434,-108.104 63.0832,-117.814 68.2127,-113.051"/>
<g id="a_edge4&#45;headlabel"><a xlink:href="dir_000054_000064.xhtml" target="_top" xlink:title="38">
<text text-anchor="middle" x="72.7393" y="-111.253" font-family="Helvetica,sans-Serif" font-size="10.00">38</text>
</a>
</g>
</g>
<!-- dir_184f72a532a521c8d66e76d860c2010a -->
<g id="node3" class="node"><title>dir_184f72a532a521c8d66e76d860c2010a</title>
<g id="a_node3"><a xlink:href="dir_184f72a532a521c8d66e76d860c2010a.xhtml" target="_top" xlink:title="GLES_COMPUTE">
<polygon fill="white" stroke="black" points="248.461,-180 153.461,-180 153.461,-144 248.461,-144 248.461,-180"/>
<text text-anchor="middle" x="200.961" y="-159.5" font-family="Helvetica,sans-Serif" font-size="10.00">GLES_COMPUTE</text>
</a>
</g>
</g>
<!-- dir_184f72a532a521c8d66e76d860c2010a&#45;&gt;dir_cbdb8362360e11eafe2fa3bc74cf0ffd -->
<g id="edge13" class="edge"><title>dir_184f72a532a521c8d66e76d860c2010a&#45;&gt;dir_cbdb8362360e11eafe2fa3bc74cf0ffd</title>
<path fill="none" stroke="black" d="M179.702,-143.697C168.871,-134.881 155.543,-124.032 143.801,-114.474"/>
<polygon fill="black" stroke="black" points="145.94,-111.703 135.975,-108.104 141.521,-117.132 145.94,-111.703"/>
<g id="a_edge13&#45;headlabel"><a xlink:href="dir_000055_000023.xhtml" target="_top" xlink:title="12">
<text text-anchor="middle" x="150.52" y="-109.27" font-family="Helvetica,sans-Serif" font-size="10.00">12</text>
</a>
</g>
</g>
<!-- dir_184f72a532a521c8d66e76d860c2010a&#45;&gt;dir_9e71e2da941d3cafc4d98a9f6ae3de4f -->
<g id="edge14" class="edge"><title>dir_184f72a532a521c8d66e76d860c2010a&#45;&gt;dir_9e71e2da941d3cafc4d98a9f6ae3de4f</title>
<path fill="none" stroke="black" d="M199.23,-143.697C198.459,-135.983 197.532,-126.712 196.672,-118.112"/>
<polygon fill="black" stroke="black" points="200.149,-117.706 195.671,-108.104 193.184,-118.403 200.149,-117.706"/>
<g id="a_edge14&#45;headlabel"><a xlink:href="dir_000055_000022.xhtml" target="_top" xlink:title="24">
<text text-anchor="middle" x="203.332" y="-118.501" font-family="Helvetica,sans-Serif" font-size="10.00">24</text>
</a>
</g>
</g>
<!-- dir_7365e77196b52ca311bb83f181e59b8c -->
<g id="node8" class="node"><title>dir_7365e77196b52ca311bb83f181e59b8c</title>
<g id="a_node8"><a xlink:href="dir_7365e77196b52ca311bb83f181e59b8c.xhtml" target="_top" xlink:title="GLES_COMPUTE">
<polygon fill="none" stroke="black" points="340.461,-108 245.461,-108 245.461,-72 340.461,-72 340.461,-108"/>
<text text-anchor="middle" x="292.961" y="-87.5" font-family="Helvetica,sans-Serif" font-size="10.00">GLES_COMPUTE</text>
</a>
</g>
</g>
<!-- dir_184f72a532a521c8d66e76d860c2010a&#45;&gt;dir_7365e77196b52ca311bb83f181e59b8c -->
<g id="edge15" class="edge"><title>dir_184f72a532a521c8d66e76d860c2010a&#45;&gt;dir_7365e77196b52ca311bb83f181e59b8c</title>
<path fill="none" stroke="black" d="M223.702,-143.697C235.4,-134.796 249.822,-123.823 262.471,-114.199"/>
<polygon fill="black" stroke="black" points="264.642,-116.945 270.481,-108.104 260.403,-111.374 264.642,-116.945"/>
<g id="a_edge15&#45;headlabel"><a xlink:href="dir_000055_000065.xhtml" target="_top" xlink:title="12">
<text text-anchor="middle" x="263.5" y="-118.881" font-family="Helvetica,sans-Serif" font-size="10.00">12</text>
</a>
</g>
</g>
<!-- dir_184f72a532a521c8d66e76d860c2010a&#45;&gt;dir_214608ef36d61442cb2b0c1c4e9a7def -->
<g id="edge16" class="edge"><title>dir_184f72a532a521c8d66e76d860c2010a&#45;&gt;dir_214608ef36d61442cb2b0c1c4e9a7def</title>
<path fill="none" stroke="black" d="M226.5,-143.943C236.047,-138.186 247.191,-132.17 257.961,-128 296.982,-112.891 323.703,-140.58 349.961,-108 360.001,-95.5424 358.398,-85.5946 349.961,-72 337.685,-52.2195 315.588,-39.5943 294.65,-31.6532"/>
<polygon fill="black" stroke="black" points="295.745,-28.3285 285.15,-28.3253 293.431,-34.9348 295.745,-28.3285"/>
<g id="a_edge16&#45;headlabel"><a xlink:href="dir_000055_000000.xhtml" target="_top" xlink:title="58">
<text text-anchor="middle" x="300.076" y="-24.3373" font-family="Helvetica,sans-Serif" font-size="10.00">58</text>
</a>
</g>
</g>
<!-- dir_ec05701f68bea22653d08da5856c9ffc -->
<g id="node4" class="node"><title>dir_ec05701f68bea22653d08da5856c9ffc</title>
<g id="a_node4"><a xlink:href="dir_ec05701f68bea22653d08da5856c9ffc.xhtml" target="_top" xlink:title="NEON">
<polygon fill="white" stroke="red" points="320.961,-180 266.961,-180 266.961,-144 320.961,-144 320.961,-180"/>
<text text-anchor="middle" x="293.961" y="-159.5" font-family="Helvetica,sans-Serif" font-size="10.00">NEON</text>
</a>
</g>
</g>
<!-- dir_ec05701f68bea22653d08da5856c9ffc&#45;&gt;dir_cbdb8362360e11eafe2fa3bc74cf0ffd -->
<g id="edge8" class="edge"><title>dir_ec05701f68bea22653d08da5856c9ffc&#45;&gt;dir_cbdb8362360e11eafe2fa3bc74cf0ffd</title>
<path fill="none" stroke="black" d="M278.453,-143.751C272.312,-137.904 264.838,-131.877 256.961,-128 216.635,-108.151 198.835,-120.949 151.962,-107.74"/>
<polygon fill="black" stroke="black" points="152.772,-104.328 142.185,-104.734 150.715,-111.019 152.772,-104.328"/>
<g id="a_edge8&#45;headlabel"><a xlink:href="dir_000056_000023.xhtml" target="_top" xlink:title="33">
<text text-anchor="middle" x="157.042" y="-100.17" font-family="Helvetica,sans-Serif" font-size="10.00">33</text>
</a>
</g>
</g>
<!-- dir_445738e6fed662d0b65e690e3f1e1de0 -->
<g id="node6" class="node"><title>dir_445738e6fed662d0b65e690e3f1e1de0</title>
<g id="a_node6"><a xlink:href="dir_445738e6fed662d0b65e690e3f1e1de0.xhtml" target="_top" xlink:title="NEON">
<polygon fill="none" stroke="black" points="450.961,-108 396.961,-108 396.961,-72 450.961,-72 450.961,-108"/>
<text text-anchor="middle" x="423.961" y="-87.5" font-family="Helvetica,sans-Serif" font-size="10.00">NEON</text>
</a>
</g>
</g>
<!-- dir_ec05701f68bea22653d08da5856c9ffc&#45;&gt;dir_445738e6fed662d0b65e690e3f1e1de0 -->
<g id="edge9" class="edge"><title>dir_ec05701f68bea22653d08da5856c9ffc&#45;&gt;dir_445738e6fed662d0b65e690e3f1e1de0</title>
<path fill="none" stroke="black" d="M310.616,-143.825C316.65,-138.258 323.76,-132.393 330.961,-128 352.1,-115.105 359.967,-117.187 382.961,-108 384.347,-107.446 385.759,-106.879 387.183,-106.303"/>
<polygon fill="black" stroke="black" points="388.718,-109.457 396.654,-102.438 386.073,-102.976 388.718,-109.457"/>
<g id="a_edge9&#45;headlabel"><a xlink:href="dir_000056_000066.xhtml" target="_top" xlink:title="34">
<text text-anchor="middle" x="386.463" y="-110.944" font-family="Helvetica,sans-Serif" font-size="10.00">34</text>
</a>
</g>
</g>
<!-- dir_ec05701f68bea22653d08da5856c9ffc&#45;&gt;dir_9e71e2da941d3cafc4d98a9f6ae3de4f -->
<g id="edge10" class="edge"><title>dir_ec05701f68bea22653d08da5856c9ffc&#45;&gt;dir_9e71e2da941d3cafc4d98a9f6ae3de4f</title>
<path fill="none" stroke="black" d="M276.119,-143.804C270.226,-138.479 263.5,-132.765 256.961,-128 249.961,-122.9 242.213,-117.888 234.614,-113.28"/>
<polygon fill="black" stroke="black" points="236.205,-110.155 225.816,-108.076 232.641,-116.18 236.205,-110.155"/>
<g id="a_edge10&#45;headlabel"><a xlink:href="dir_000056_000022.xhtml" target="_top" xlink:title="66">
<text text-anchor="middle" x="240.745" y="-107.041" font-family="Helvetica,sans-Serif" font-size="10.00">66</text>
</a>
</g>
</g>
<!-- dir_ec05701f68bea22653d08da5856c9ffc&#45;&gt;dir_214608ef36d61442cb2b0c1c4e9a7def -->
<g id="edge11" class="edge"><title>dir_ec05701f68bea22653d08da5856c9ffc&#45;&gt;dir_214608ef36d61442cb2b0c1c4e9a7def</title>
<path fill="none" stroke="black" d="M309.042,-143.955C315.242,-137.984 322.866,-131.821 330.961,-128 383.427,-103.232 422.209,-152.056 459.961,-108 470.372,-95.8505 469.842,-84.5845 459.961,-72 439.853,-46.3904 352.761,-31.5741 295.21,-24.4101"/>
<polygon fill="black" stroke="black" points="295.531,-20.9236 285.184,-23.2018 294.693,-27.8733 295.531,-20.9236"/>
<g id="a_edge11&#45;headlabel"><a xlink:href="dir_000056_000000.xhtml" target="_top" xlink:title="159">
<text text-anchor="middle" x="299.439" y="-16.0347" font-family="Helvetica,sans-Serif" font-size="10.00">159</text>
</a>
</g>
</g>
<!-- dir_cbdb8362360e11eafe2fa3bc74cf0ffd&#45;&gt;dir_214608ef36d61442cb2b0c1c4e9a7def -->
<g id="edge5" class="edge"><title>dir_cbdb8362360e11eafe2fa3bc74cf0ffd&#45;&gt;dir_214608ef36d61442cb2b0c1c4e9a7def</title>
<path fill="none" stroke="black" d="M142.106,-74.1548C159.798,-64.4797 183.189,-51.6877 202.99,-40.859"/>
<polygon fill="black" stroke="black" points="204.708,-43.909 211.802,-36.04 201.349,-37.7674 204.708,-43.909"/>
<g id="a_edge5&#45;headlabel"><a xlink:href="dir_000023_000000.xhtml" target="_top" xlink:title="24">
<text text-anchor="middle" x="202.916" y="-45.6248" font-family="Helvetica,sans-Serif" font-size="10.00">24</text>
</a>
</g>
</g>
<!-- dir_445738e6fed662d0b65e690e3f1e1de0&#45;&gt;dir_214608ef36d61442cb2b0c1c4e9a7def -->
<g id="edge6" class="edge"><title>dir_445738e6fed662d0b65e690e3f1e1de0&#45;&gt;dir_214608ef36d61442cb2b0c1c4e9a7def</title>
<path fill="none" stroke="black" d="M396.662,-77.5421C392.097,-75.666 387.402,-73.7609 382.961,-72 353.805,-60.4402 321.027,-48.0013 294.52,-38.0809"/>
<polygon fill="black" stroke="black" points="295.649,-34.7665 285.057,-34.5463 293.2,-41.324 295.649,-34.7665"/>
<g id="a_edge6&#45;headlabel"><a xlink:href="dir_000066_000000.xhtml" target="_top" xlink:title="6">
<text text-anchor="middle" x="300.01" y="-30.8643" font-family="Helvetica,sans-Serif" font-size="10.00">6</text>
</a>
</g>
</g>
<!-- dir_9e71e2da941d3cafc4d98a9f6ae3de4f&#45;&gt;dir_214608ef36d61442cb2b0c1c4e9a7def -->
<g id="edge7" class="edge"><title>dir_9e71e2da941d3cafc4d98a9f6ae3de4f&#45;&gt;dir_214608ef36d61442cb2b0c1c4e9a7def</title>
<path fill="none" stroke="black" d="M206.073,-71.6966C211.829,-63.4741 218.823,-53.4832 225.166,-44.4207"/>
<polygon fill="black" stroke="black" points="228.12,-46.3038 230.988,-36.1043 222.386,-42.2895 228.12,-46.3038"/>
<g id="a_edge7&#45;headlabel"><a xlink:href="dir_000022_000000.xhtml" target="_top" xlink:title="13">
<text text-anchor="middle" x="228.385" y="-48.3768" font-family="Helvetica,sans-Serif" font-size="10.00">13</text>
</a>
</g>
</g>
<!-- dir_7365e77196b52ca311bb83f181e59b8c&#45;&gt;dir_214608ef36d61442cb2b0c1c4e9a7def -->
<g id="edge12" class="edge"><title>dir_7365e77196b52ca311bb83f181e59b8c&#45;&gt;dir_214608ef36d61442cb2b0c1c4e9a7def</title>
<path fill="none" stroke="black" d="M280.601,-71.6966C274.728,-63.4741 267.592,-53.4832 261.118,-44.4207"/>
<polygon fill="black" stroke="black" points="263.839,-42.2073 255.178,-36.1043 258.143,-46.276 263.839,-42.2073"/>
<g id="a_edge12&#45;headlabel"><a xlink:href="dir_000065_000000.xhtml" target="_top" xlink:title="3">
<text text-anchor="middle" x="268.238" y="-40.9821" font-family="Helvetica,sans-Serif" font-size="10.00">3</text>
</a>
</g>
</g>
<!-- dir_896191444cf08ec8ade6f88256cb2bdd&#45;&gt;dir_214608ef36d61442cb2b0c1c4e9a7def -->
<g id="edge17" class="edge"><title>dir_896191444cf08ec8ade6f88256cb2bdd&#45;&gt;dir_214608ef36d61442cb2b0c1c4e9a7def</title>
<path fill="none" stroke="black" d="M70.3182,-75.6366C73.2138,-74.3559 76.133,-73.1192 78.9608,-72 115.773,-57.4299 158.342,-43.7629 190.883,-33.9576"/>
<polygon fill="black" stroke="black" points="192.063,-37.258 200.643,-31.0418 190.06,-30.5509 192.063,-37.258"/>
<g id="a_edge17&#45;headlabel"><a xlink:href="dir_000064_000000.xhtml" target="_top" xlink:title="5">
<text text-anchor="middle" x="189.432" y="-38.5074" font-family="Helvetica,sans-Serif" font-size="10.00">5</text>
</a>
</g>
</g>
</g>
</svg>
