<?xml version="1.0" encoding="UTF-8" standalone="no"?>
<!DOCTYPE svg PUBLIC "-//W3C//DTD SVG 1.1//EN"
 "http://www.w3.org/Graphics/SVG/1.1/DTD/svg11.dtd">
<!-- Generated by graphviz version 2.38.0 (20140413.2041)
 -->
<!-- Title: tests/validate_examples Pages: 1 -->
<svg width="438pt" height="439pt"
 viewBox="0.00 0.00 438.00 439.00" xmlns="http://www.w3.org/2000/svg" xmlns:xlink="http://www.w3.org/1999/xlink">
<g id="graph0" class="graph" transform="scale(1 1) rotate(0) translate(4 435)">
<title>tests/validate_examples</title>
<polygon fill="white" stroke="none" points="-4,4 -4,-435 434,-435 434,4 -4,4"/>
<g id="clust1" class="cluster"><title>clusterdir_59425e443f801f1f2fd8bbe4959a3ccf</title>
<g id="a_clust1"><a xlink:href="dir_59425e443f801f1f2fd8bbe4959a3ccf.xhtml" target="_top" xlink:title="tests">
<polygon fill="#ddddee" stroke="black" points="139,-352 139,-423 261,-423 261,-352 139,-352"/>
<text text-anchor="middle" x="200" y="-411" font-family="Helvetica,sans-Serif" font-size="10.00">tests</text>
</a>
</g>
</g>
<!-- dir_c17e235a7be576fb898bcc8e94f529de -->
<g id="node1" class="node"><title>dir_c17e235a7be576fb898bcc8e94f529de</title>
<g id="a_node1"><a xlink:href="dir_c17e235a7be576fb898bcc8e94f529de.xhtml" target="_top" xlink:title="validate_examples">
<polygon fill="#eeeeff" stroke="black" points="253,-396 147,-396 147,-360 253,-360 253,-396"/>
<text text-anchor="middle" x="200" y="-375.5" font-family="Helvetica,sans-Serif" font-size="10.00">validate_examples</text>
</a>
</g>
</g>
<!-- dir_e7c7b16542faa38cb4655ff1750d3604 -->
<g id="node2" class="node"><title>dir_e7c7b16542faa38cb4655ff1750d3604</title>
<g id="a_node2"><a xlink:href="dir_e7c7b16542faa38cb4655ff1750d3604.xhtml" target="_top" xlink:title="validation">
<polygon fill="white" stroke="red" points="290,-324 228,-324 228,-288 290,-288 290,-324"/>
<text text-anchor="middle" x="259" y="-303.5" font-family="Helvetica,sans-Serif" font-size="10.00">validation</text>
</a>
</g>
</g>
<!-- dir_c17e235a7be576fb898bcc8e94f529de&#45;&gt;dir_e7c7b16542faa38cb4655ff1750d3604 -->
<g id="edge1" class="edge"><title>dir_c17e235a7be576fb898bcc8e94f529de&#45;&gt;dir_e7c7b16542faa38cb4655ff1750d3604</title>
<path fill="none" stroke="black" d="M214.584,-359.697C221.658,-351.305 230.283,-341.07 238.045,-331.861"/>
<polygon fill="black" stroke="black" points="240.815,-334.006 244.583,-324.104 235.463,-329.495 240.815,-334.006"/>
<g id="a_edge1&#45;headlabel"><a xlink:href="dir_000159_000023.xhtml" target="_top" xlink:title="12">
<text text-anchor="middle" x="240.669" y="-336.085" font-family="Helvetica,sans-Serif" font-size="10.00">12</text>
</a>
</g>
</g>
<!-- dir_cbdb8362360e11eafe2fa3bc74cf0ffd -->
<g id="node3" class="node"><title>dir_cbdb8362360e11eafe2fa3bc74cf0ffd</title>
<g id="a_node3"><a xlink:href="dir_cbdb8362360e11eafe2fa3bc74cf0ffd.xhtml" target="_top" xlink:title="utils">
<polygon fill="white" stroke="red" points="134,-180 80,-180 80,-144 134,-144 134,-180"/>
<text text-anchor="middle" x="107" y="-159.5" font-family="Helvetica,sans-Serif" font-size="10.00">utils</text>
</a>
</g>
</g>
<!-- dir_c17e235a7be576fb898bcc8e94f529de&#45;&gt;dir_cbdb8362360e11eafe2fa3bc74cf0ffd -->
<g id="edge2" class="edge"><title>dir_c17e235a7be576fb898bcc8e94f529de&#45;&gt;dir_cbdb8362360e11eafe2fa3bc74cf0ffd</title>
<path fill="none" stroke="black" d="M167.228,-359.923C132.241,-339.588 78.8875,-301.991 57,-252 50.5828,-237.343 51.0929,-230.87 57,-216 61.2908,-205.199 68.9417,-195.324 76.9883,-187.102"/>
<polygon fill="black" stroke="black" points="79.5785,-189.469 84.4043,-180.037 74.7499,-184.401 79.5785,-189.469"/>
<g id="a_edge2&#45;headlabel"><a xlink:href="dir_000159_000036.xhtml" target="_top" xlink:title="18">
<text text-anchor="middle" x="78.9345" y="-191.504" font-family="Helvetica,sans-Serif" font-size="10.00">18</text>
</a>
</g>
</g>
<!-- dir_445738e6fed662d0b65e690e3f1e1de0 -->
<g id="node4" class="node"><title>dir_445738e6fed662d0b65e690e3f1e1de0</title>
<g id="a_node4"><a xlink:href="dir_445738e6fed662d0b65e690e3f1e1de0.xhtml" target="_top" xlink:title="NEON">
<polygon fill="none" stroke="black" points="358,-252 304,-252 304,-216 358,-216 358,-252"/>
<text text-anchor="middle" x="331" y="-231.5" font-family="Helvetica,sans-Serif" font-size="10.00">NEON</text>
</a>
</g>
</g>
<!-- dir_c17e235a7be576fb898bcc8e94f529de&#45;&gt;dir_445738e6fed662d0b65e690e3f1e1de0 -->
<g id="edge3" class="edge"><title>dir_c17e235a7be576fb898bcc8e94f529de&#45;&gt;dir_445738e6fed662d0b65e690e3f1e1de0</title>
<path fill="none" stroke="black" d="M247.972,-359.965C266.018,-351.528 285.431,-339.716 299,-324 314.12,-306.488 322.29,-281.29 326.58,-262.173"/>
<polygon fill="black" stroke="black" points="330.032,-262.761 328.584,-252.266 323.171,-261.373 330.032,-262.761"/>
<g id="a_edge3&#45;headlabel"><a xlink:href="dir_000159_000162.xhtml" target="_top" xlink:title="3">
<text text-anchor="middle" x="332.103" y="-264.347" font-family="Helvetica,sans-Serif" font-size="10.00">3</text>
</a>
</g>
</g>
<!-- dir_9e71e2da941d3cafc4d98a9f6ae3de4f -->
<g id="node5" class="node"><title>dir_9e71e2da941d3cafc4d98a9f6ae3de4f</title>
<g id="a_node5"><a xlink:href="dir_9e71e2da941d3cafc4d98a9f6ae3de4f.xhtml" target="_top" xlink:title="framework">
<polygon fill="white" stroke="red" points="133.5,-252 66.5,-252 66.5,-216 133.5,-216 133.5,-252"/>
<text text-anchor="middle" x="100" y="-231.5" font-family="Helvetica,sans-Serif" font-size="10.00">framework</text>
</a>
</g>
</g>
<!-- dir_c17e235a7be576fb898bcc8e94f529de&#45;&gt;dir_9e71e2da941d3cafc4d98a9f6ae3de4f -->
<g id="edge4" class="edge"><title>dir_c17e235a7be576fb898bcc8e94f529de&#45;&gt;dir_9e71e2da941d3cafc4d98a9f6ae3de4f</title>
<path fill="none" stroke="black" d="M187.938,-359.871C170.519,-335.137 138.199,-289.242 117.966,-260.512"/>
<polygon fill="black" stroke="black" points="120.725,-258.35 112.105,-252.189 115.001,-262.381 120.725,-258.35"/>
<g id="a_edge4&#45;headlabel"><a xlink:href="dir_000159_000034.xhtml" target="_top" xlink:title="4">
<text text-anchor="middle" x="125.116" y="-257.154" font-family="Helvetica,sans-Serif" font-size="10.00">4</text>
</a>
</g>
</g>
<!-- dir_214608ef36d61442cb2b0c1c4e9a7def -->
<g id="node6" class="node"><title>dir_214608ef36d61442cb2b0c1c4e9a7def</title>
<g id="a_node6"><a xlink:href="dir_214608ef36d61442cb2b0c1c4e9a7def.xhtml" target="_top" xlink:title="arm_compute">
<polygon fill="white" stroke="red" points="242,-108 158,-108 158,-72 242,-72 242,-108"/>
<text text-anchor="middle" x="200" y="-87.5" font-family="Helvetica,sans-Serif" font-size="10.00">arm_compute</text>
</a>
</g>
</g>
<!-- dir_c17e235a7be576fb898bcc8e94f529de&#45;&gt;dir_214608ef36d61442cb2b0c1c4e9a7def -->
<g id="edge5" class="edge"><title>dir_c17e235a7be576fb898bcc8e94f529de&#45;&gt;dir_214608ef36d61442cb2b0c1c4e9a7def</title>
<path fill="none" stroke="black" d="M200,-359.966C200,-312.291 200,-177.185 200,-118.63"/>
<polygon fill="black" stroke="black" points="203.5,-118.306 200,-108.306 196.5,-118.306 203.5,-118.306"/>
<g id="a_edge5&#45;headlabel"><a xlink:href="dir_000159_000000.xhtml" target="_top" xlink:title="9">
<text text-anchor="middle" x="206.339" y="-119.401" font-family="Helvetica,sans-Serif" font-size="10.00">9</text>
</a>
</g>
</g>
<!-- dir_896191444cf08ec8ade6f88256cb2bdd -->
<g id="node7" class="node"><title>dir_896191444cf08ec8ade6f88256cb2bdd</title>
<g id="a_node7"><a xlink:href="dir_896191444cf08ec8ade6f88256cb2bdd.xhtml" target="_top" xlink:title="CL">
<polygon fill="none" stroke="black" points="430,-252 376,-252 376,-216 430,-216 430,-252"/>
<text text-anchor="middle" x="403" y="-231.5" font-family="Helvetica,sans-Serif" font-size="10.00">CL</text>
</a>
</g>
</g>
<!-- dir_c17e235a7be576fb898bcc8e94f529de&#45;&gt;dir_896191444cf08ec8ade6f88256cb2bdd -->
<g id="edge6" class="edge"><title>dir_c17e235a7be576fb898bcc8e94f529de&#45;&gt;dir_896191444cf08ec8ade6f88256cb2bdd</title>
<path fill="none" stroke="black" d="M252.891,-359.975C275.659,-351.233 301.846,-339.189 323,-324 347.697,-306.266 370.301,-279.724 385.134,-260.238"/>
<polygon fill="black" stroke="black" points="388.026,-262.214 391.19,-252.103 382.411,-258.034 388.026,-262.214"/>
<g id="a_edge6&#45;headlabel"><a xlink:href="dir_000159_000160.xhtml" target="_top" xlink:title="1">
<text text-anchor="middle" x="388.157" y="-264.293" font-family="Helvetica,sans-Serif" font-size="10.00">1</text>
</a>
</g>
</g>
<!-- dir_5815af820a9cc9481f1d0990a0d60286 -->
<g id="node8" class="node"><title>dir_5815af820a9cc9481f1d0990a0d60286</title>
<g id="a_node8"><a xlink:href="dir_5815af820a9cc9481f1d0990a0d60286.xhtml" target="_top" xlink:title="support">
<polygon fill="none" stroke="black" points="227,-36 173,-36 173,-0 227,-0 227,-36"/>
<text text-anchor="middle" x="200" y="-15.5" font-family="Helvetica,sans-Serif" font-size="10.00">support</text>
</a>
</g>
</g>
<!-- dir_c17e235a7be576fb898bcc8e94f529de&#45;&gt;dir_5815af820a9cc9481f1d0990a0d60286 -->
<g id="edge7" class="edge"><title>dir_c17e235a7be576fb898bcc8e94f529de&#45;&gt;dir_5815af820a9cc9481f1d0990a0d60286</title>
<path fill="none" stroke="black" d="M146.929,-364.042C87.6778,-346.029 0,-307.18 0,-235 0,-235 0,-235 0,-161 0,-82.0621 104.865,-42.9884 162.729,-27.4364"/>
<polygon fill="black" stroke="black" points="163.802,-30.7741 172.61,-24.886 162.053,-23.9963 163.802,-30.7741"/>
<g id="a_edge7&#45;headlabel"><a xlink:href="dir_000159_000153.xhtml" target="_top" xlink:title="3">
<text text-anchor="middle" x="161.031" y="-31.9216" font-family="Helvetica,sans-Serif" font-size="10.00">3</text>
</a>
</g>
</g>
<!-- dir_e7c7b16542faa38cb4655ff1750d3604&#45;&gt;dir_cbdb8362360e11eafe2fa3bc74cf0ffd -->
<g id="edge8" class="edge"><title>dir_e7c7b16542faa38cb4655ff1750d3604&#45;&gt;dir_cbdb8362360e11eafe2fa3bc74cf0ffd</title>
<path fill="none" stroke="black" d="M240.665,-287.871C213.733,-262.711 163.362,-215.654 132.735,-187.042"/>
<polygon fill="black" stroke="black" points="135.096,-184.458 125.4,-180.189 130.318,-189.573 135.096,-184.458"/>
<g id="a_edge8&#45;headlabel"><a xlink:href="dir_000023_000036.xhtml" target="_top" xlink:title="12">
<text text-anchor="middle" x="139.661" y="-182.337" font-family="Helvetica,sans-Serif" font-size="10.00">12</text>
</a>
</g>
</g>
<!-- dir_e7c7b16542faa38cb4655ff1750d3604&#45;&gt;dir_445738e6fed662d0b65e690e3f1e1de0 -->
<g id="edge9" class="edge"><title>dir_e7c7b16542faa38cb4655ff1750d3604&#45;&gt;dir_445738e6fed662d0b65e690e3f1e1de0</title>
<path fill="none" stroke="black" d="M276.798,-287.697C285.604,-279.135 296.382,-268.656 306.001,-259.304"/>
<polygon fill="black" stroke="black" points="308.677,-261.585 313.407,-252.104 303.797,-256.566 308.677,-261.585"/>
<g id="a_edge9&#45;headlabel"><a xlink:href="dir_000023_000162.xhtml" target="_top" xlink:title="152">
<text text-anchor="middle" x="308.079" y="-263.626" font-family="Helvetica,sans-Serif" font-size="10.00">152</text>
</a>
</g>
</g>
<!-- dir_e7c7b16542faa38cb4655ff1750d3604&#45;&gt;dir_9e71e2da941d3cafc4d98a9f6ae3de4f -->
<g id="edge10" class="edge"><title>dir_e7c7b16542faa38cb4655ff1750d3604&#45;&gt;dir_9e71e2da941d3cafc4d98a9f6ae3de4f</title>
<path fill="none" stroke="black" d="M227.966,-291.337C203.713,-280.66 169.729,-265.698 142.877,-253.877"/>
<polygon fill="black" stroke="black" points="144.267,-250.665 133.705,-249.839 141.447,-257.071 144.267,-250.665"/>
<g id="a_edge10&#45;headlabel"><a xlink:href="dir_000023_000034.xhtml" target="_top" xlink:title="892">
<text text-anchor="middle" x="148.701" y="-247.014" font-family="Helvetica,sans-Serif" font-size="10.00">892</text>
</a>
</g>
</g>
<!-- dir_e7c7b16542faa38cb4655ff1750d3604&#45;&gt;dir_214608ef36d61442cb2b0c1c4e9a7def -->
<g id="edge11" class="edge"><title>dir_e7c7b16542faa38cb4655ff1750d3604&#45;&gt;dir_214608ef36d61442cb2b0c1c4e9a7def</title>
<path fill="none" stroke="black" d="M254.272,-287.849C244.044,-250.753 219.798,-162.81 207.472,-118.103"/>
<polygon fill="black" stroke="black" points="210.783,-116.943 204.751,-108.232 204.035,-118.803 210.783,-116.943"/>
<g id="a_edge11&#45;headlabel"><a xlink:href="dir_000023_000000.xhtml" target="_top" xlink:title="1316">
<text text-anchor="middle" x="214.476" y="-117.153" font-family="Helvetica,sans-Serif" font-size="10.00">1316</text>
</a>
</g>
</g>
<!-- dir_e7c7b16542faa38cb4655ff1750d3604&#45;&gt;dir_896191444cf08ec8ade6f88256cb2bdd -->
<g id="edge12" class="edge"><title>dir_e7c7b16542faa38cb4655ff1750d3604&#45;&gt;dir_896191444cf08ec8ade6f88256cb2bdd</title>
<path fill="none" stroke="black" d="M290.246,-289.811C312.638,-278.926 342.871,-264.229 366.395,-252.794"/>
<polygon fill="black" stroke="black" points="368.234,-255.792 375.698,-248.272 365.174,-249.496 368.234,-255.792"/>
<g id="a_edge12&#45;headlabel"><a xlink:href="dir_000023_000160.xhtml" target="_top" xlink:title="178">
<text text-anchor="middle" x="366.243" y="-257.417" font-family="Helvetica,sans-Serif" font-size="10.00">178</text>
</a>
</g>
</g>
<!-- dir_e7c7b16542faa38cb4655ff1750d3604&#45;&gt;dir_5815af820a9cc9481f1d0990a0d60286 -->
<g id="edge13" class="edge"><title>dir_e7c7b16542faa38cb4655ff1750d3604&#45;&gt;dir_5815af820a9cc9481f1d0990a0d60286</title>
<path fill="none" stroke="black" d="M262.44,-287.732C269.553,-247.832 282.7,-146.925 251,-72 246.429,-61.1952 238.57,-51.3194 230.372,-43.0975"/>
<polygon fill="black" stroke="black" points="232.522,-40.3163 222.832,-36.0325 227.736,-45.4242 232.522,-40.3163"/>
<g id="a_edge13&#45;headlabel"><a xlink:href="dir_000023_000153.xhtml" target="_top" xlink:title="16">
<text text-anchor="middle" x="237.087" y="-38.2023" font-family="Helvetica,sans-Serif" font-size="10.00">16</text>
</a>
</g>
</g>
<!-- dir_cbdb8362360e11eafe2fa3bc74cf0ffd&#45;&gt;dir_214608ef36d61442cb2b0c1c4e9a7def -->
<g id="edge14" class="edge"><title>dir_cbdb8362360e11eafe2fa3bc74cf0ffd&#45;&gt;dir_214608ef36d61442cb2b0c1c4e9a7def</title>
<path fill="none" stroke="black" d="M124.073,-143.697C135.084,-134.711 149.673,-123.614 163.164,-113.924"/>
<polygon fill="black" stroke="black" points="165.243,-116.741 171.381,-108.104 161.197,-111.028 165.243,-116.741"/>
<g id="a_edge14&#45;headlabel"><a xlink:href="dir_000036_000000.xhtml" target="_top" xlink:title="37">
<text text-anchor="middle" x="163.951" y="-118.635" font-family="Helvetica,sans-Serif" font-size="10.00">37</text>
</a>
</g>
</g>
<!-- dir_cbdb8362360e11eafe2fa3bc74cf0ffd&#45;&gt;dir_5815af820a9cc9481f1d0990a0d60286 -->
<g id="edge15" class="edge"><title>dir_cbdb8362360e11eafe2fa3bc74cf0ffd&#45;&gt;dir_5815af820a9cc9481f1d0990a0d60286</title>
<path fill="none" stroke="black" d="M113.212,-143.717C120.333,-125.107 133.097,-95.0698 149,-72 155.951,-61.9169 164.852,-51.9501 173.266,-43.4277"/>
<polygon fill="black" stroke="black" points="175.795,-45.8495 180.473,-36.3435 170.888,-40.8572 175.795,-45.8495"/>
<g id="a_edge15&#45;headlabel"><a xlink:href="dir_000036_000153.xhtml" target="_top" xlink:title="3">
<text text-anchor="middle" x="175.221" y="-47.8941" font-family="Helvetica,sans-Serif" font-size="10.00">3</text>
</a>
</g>
</g>
<!-- dir_445738e6fed662d0b65e690e3f1e1de0&#45;&gt;dir_214608ef36d61442cb2b0c1c4e9a7def -->
<g id="edge16" class="edge"><title>dir_445738e6fed662d0b65e690e3f1e1de0&#45;&gt;dir_214608ef36d61442cb2b0c1c4e9a7def</title>
<path fill="none" stroke="black" d="M316.105,-215.711C300.406,-197.609 274.837,-168.469 252,-144 243.205,-134.576 233.346,-124.427 224.597,-115.558"/>
<polygon fill="black" stroke="black" points="227.081,-113.093 217.557,-108.453 222.109,-118.02 227.081,-113.093"/>
<g id="a_edge16&#45;headlabel"><a xlink:href="dir_000162_000000.xhtml" target="_top" xlink:title="6">
<text text-anchor="middle" x="231.628" y="-111.148" font-family="Helvetica,sans-Serif" font-size="10.00">6</text>
</a>
</g>
</g>
<!-- dir_445738e6fed662d0b65e690e3f1e1de0&#45;&gt;dir_5815af820a9cc9481f1d0990a0d60286 -->
<g id="edge17" class="edge"><title>dir_445738e6fed662d0b65e690e3f1e1de0&#45;&gt;dir_5815af820a9cc9481f1d0990a0d60286</title>
<path fill="none" stroke="black" d="M330.819,-215.901C329.653,-184.35 323.162,-116.173 290,-72 276.558,-54.0943 255.145,-41.1315 236.577,-32.509"/>
<polygon fill="black" stroke="black" points="237.749,-29.2009 227.185,-28.3924 234.939,-35.6122 237.749,-29.2009"/>
<g id="a_edge17&#45;headlabel"><a xlink:href="dir_000162_000153.xhtml" target="_top" xlink:title="1">
<text text-anchor="middle" x="242.181" y="-25.5433" font-family="Helvetica,sans-Serif" font-size="10.00">1</text>
</a>
</g>
</g>
<!-- dir_9e71e2da941d3cafc4d98a9f6ae3de4f&#45;&gt;dir_cbdb8362360e11eafe2fa3bc74cf0ffd -->
<g id="edge18" class="edge"><title>dir_9e71e2da941d3cafc4d98a9f6ae3de4f&#45;&gt;dir_cbdb8362360e11eafe2fa3bc74cf0ffd</title>
<path fill="none" stroke="black" d="M101.73,-215.697C102.502,-207.983 103.429,-198.712 104.289,-190.112"/>
<polygon fill="black" stroke="black" points="107.777,-190.403 105.29,-180.104 100.812,-189.706 107.777,-190.403"/>
<g id="a_edge18&#45;headlabel"><a xlink:href="dir_000034_000036.xhtml" target="_top" xlink:title="3">
<text text-anchor="middle" x="110.245" y="-191.762" font-family="Helvetica,sans-Serif" font-size="10.00">3</text>
</a>
</g>
</g>
<!-- dir_9e71e2da941d3cafc4d98a9f6ae3de4f&#45;&gt;dir_214608ef36d61442cb2b0c1c4e9a7def -->
<g id="edge19" class="edge"><title>dir_9e71e2da941d3cafc4d98a9f6ae3de4f&#45;&gt;dir_214608ef36d61442cb2b0c1c4e9a7def</title>
<path fill="none" stroke="black" d="M114.839,-215.721C123.368,-205.544 134.118,-192.294 143,-180 157.914,-159.355 173.413,-134.933 184.477,-116.899"/>
<polygon fill="black" stroke="black" points="187.621,-118.466 189.832,-108.104 181.642,-114.825 187.621,-118.466"/>
<g id="a_edge19&#45;headlabel"><a xlink:href="dir_000034_000000.xhtml" target="_top" xlink:title="16">
<text text-anchor="middle" x="188.176" y="-120.513" font-family="Helvetica,sans-Serif" font-size="10.00">16</text>
</a>
</g>
</g>
<!-- dir_9e71e2da941d3cafc4d98a9f6ae3de4f&#45;&gt;dir_5815af820a9cc9481f1d0990a0d60286 -->
<g id="edge20" class="edge"><title>dir_9e71e2da941d3cafc4d98a9f6ae3de4f&#45;&gt;dir_5815af820a9cc9481f1d0990a0d60286</title>
<path fill="none" stroke="black" d="M87.693,-215.784C81.3503,-205.843 74.2739,-192.804 71,-180 67.0364,-164.499 65.9404,-159.179 71,-144 86.5044,-97.4869 131.619,-60.9591 164.127,-39.6951"/>
<polygon fill="black" stroke="black" points="166.361,-42.4223 172.927,-34.1066 162.609,-36.5132 166.361,-42.4223"/>
<g id="a_edge20&#45;headlabel"><a xlink:href="dir_000034_000153.xhtml" target="_top" xlink:title="7">
<text text-anchor="middle" x="164.849" y="-44.2461" font-family="Helvetica,sans-Serif" font-size="10.00">7</text>
</a>
</g>
</g>
<!-- dir_214608ef36d61442cb2b0c1c4e9a7def&#45;&gt;dir_cbdb8362360e11eafe2fa3bc74cf0ffd -->
<g id="edge21" class="edge"><title>dir_214608ef36d61442cb2b0c1c4e9a7def&#45;&gt;dir_cbdb8362360e11eafe2fa3bc74cf0ffd</title>
<path fill="none" stroke="black" d="M183.044,-108.208C171.669,-117.496 156.44,-129.062 142.548,-138.999"/>
<polygon fill="black" stroke="black" points="140.275,-136.319 134.117,-144.941 144.307,-142.041 140.275,-136.319"/>
<g id="a_edge21&#45;headlabel"><a xlink:href="dir_000000_000036.xhtml" target="_top" xlink:title="1">
<text text-anchor="middle" x="141.578" y="-129.427" font-family="Helvetica,sans-Serif" font-size="10.00">1</text>
</a>
</g>
</g>
<!-- dir_214608ef36d61442cb2b0c1c4e9a7def&#45;&gt;dir_5815af820a9cc9481f1d0990a0d60286 -->
<g id="edge22" class="edge"><title>dir_214608ef36d61442cb2b0c1c4e9a7def&#45;&gt;dir_5815af820a9cc9481f1d0990a0d60286</title>
<path fill="none" stroke="black" d="M200,-71.6966C200,-63.9827 200,-54.7125 200,-46.1124"/>
<polygon fill="black" stroke="black" points="203.5,-46.1043 200,-36.1043 196.5,-46.1044 203.5,-46.1043"/>
<g id="a_edge22&#45;headlabel"><a xlink:href="dir_000000_000153.xhtml" target="_top" xlink:title="23">
<text text-anchor="middle" x="206.339" y="-47.199" font-family="Helvetica,sans-Serif" font-size="10.00">23</text>
</a>
</g>
</g>
<!-- dir_896191444cf08ec8ade6f88256cb2bdd&#45;&gt;dir_214608ef36d61442cb2b0c1c4e9a7def -->
<g id="edge23" class="edge"><title>dir_896191444cf08ec8ade6f88256cb2bdd&#45;&gt;dir_214608ef36d61442cb2b0c1c4e9a7def</title>
<path fill="none" stroke="black" d="M380.548,-215.855C356.474,-197.621 316.986,-168.141 282,-144 267.095,-133.716 250.351,-122.785 235.898,-113.539"/>
<polygon fill="black" stroke="black" points="237.546,-110.44 227.231,-108.02 233.786,-116.344 237.546,-110.44"/>
<g id="a_edge23&#45;headlabel"><a xlink:href="dir_000160_000000.xhtml" target="_top" xlink:title="10">
<text text-anchor="middle" x="242.103" y="-107.475" font-family="Helvetica,sans-Serif" font-size="10.00">10</text>
</a>
</g>
</g>
<!-- dir_896191444cf08ec8ade6f88256cb2bdd&#45;&gt;dir_5815af820a9cc9481f1d0990a0d60286 -->
<g id="edge24" class="edge"><title>dir_896191444cf08ec8ade6f88256cb2bdd&#45;&gt;dir_5815af820a9cc9481f1d0990a0d60286</title>
<path fill="none" stroke="black" d="M397.503,-215.685C386.486,-183.473 358.847,-113.821 314,-72 292.114,-51.5907 260.971,-37.8401 236.764,-29.4701"/>
<polygon fill="black" stroke="black" points="237.789,-26.1228 227.196,-26.3135 235.596,-32.7704 237.789,-26.1228"/>
<g id="a_edge24&#45;headlabel"><a xlink:href="dir_000160_000153.xhtml" target="_top" xlink:title="1">
<text text-anchor="middle" x="242.093" y="-22.0526" font-family="Helvetica,sans-Serif" font-size="10.00">1</text>
</a>
</g>
</g>
</g>
</svg>
