<?xml version="1.0" encoding="UTF-8" standalone="no"?>
<!DOCTYPE svg PUBLIC "-//W3C//DTD SVG 1.1//EN"
 "http://www.w3.org/Graphics/SVG/1.1/DTD/svg11.dtd">
<!-- Generated by graphviz version 2.38.0 (20140413.2041)
 -->
<!-- Title: tests/benchmark/fixtures Pages: 1 -->
<svg width="157pt" height="223pt"
 viewBox="0.00 0.00 156.81 223.00" xmlns="http://www.w3.org/2000/svg" xmlns:xlink="http://www.w3.org/1999/xlink">
<g id="graph0" class="graph" transform="scale(1 1) rotate(0) translate(4 219)">
<title>tests/benchmark/fixtures</title>
<polygon fill="white" stroke="none" points="-4,4 -4,-219 152.812,-219 152.812,4 -4,4"/>
<g id="clust1" class="cluster"><title>clusterdir_f174311ee6dfc6d6b8b3c124a1c03263</title>
<g id="a_clust1"><a xlink:href="dir_f174311ee6dfc6d6b8b3c124a1c03263.xhtml" target="_top" xlink:title="benchmark">
<polygon fill="#ddddee" stroke="black" points="8.81187,-136 8.81187,-207 78.8119,-207 78.8119,-136 8.81187,-136"/>
<text text-anchor="middle" x="43.8119" y="-195" font-family="Helvetica" font-size="10.00">benchmark</text>
</a>
</g>
</g>
<!-- dir_463ebbf2abb1a8cd3e39ae1d0da97cb5 -->
<g id="node1" class="node"><title>dir_463ebbf2abb1a8cd3e39ae1d0da97cb5</title>
<g id="a_node1"><a xlink:href="dir_463ebbf2abb1a8cd3e39ae1d0da97cb5.xhtml" target="_top" xlink:title="fixtures">
<polygon fill="#eeeeff" stroke="black" points="70.8119,-180 16.8119,-180 16.8119,-144 70.8119,-144 70.8119,-180"/>
<text text-anchor="middle" x="43.8119" y="-159.5" font-family="Helvetica" font-size="10.00">fixtures</text>
</a>
</g>
</g>
<!-- dir_d4d363c0979c7ffda4833df3f93b5668 -->
<g id="node2" class="node"><title>dir_d4d363c0979c7ffda4833df3f93b5668</title>
<g id="a_node2"><a xlink:href="dir_d4d363c0979c7ffda4833df3f93b5668.xhtml" target="_top" xlink:title="arm_compute">
<polygon fill="white" stroke="red" points="81.8119,-36 5.81187,-36 5.81187,-0 81.8119,-0 81.8119,-36"/>
<text text-anchor="middle" x="43.8119" y="-15.5" font-family="Helvetica" font-size="10.00">arm_compute</text>
</a>
</g>
</g>
<!-- dir_463ebbf2abb1a8cd3e39ae1d0da97cb5&#45;&gt;dir_d4d363c0979c7ffda4833df3f93b5668 -->
<g id="edge1" class="edge"><title>dir_463ebbf2abb1a8cd3e39ae1d0da97cb5&#45;&gt;dir_d4d363c0979c7ffda4833df3f93b5668</title>
<path fill="none" stroke="black" d="M26.0788,-143.599C17.5733,-133.998 8.27937,-121.336 3.81187,-108 -1.27062,-92.8287 -1.27062,-87.1713 3.81187,-72 7.1625,-61.9984 13.228,-52.3756 19.6395,-44.1385"/>
<polygon fill="black" stroke="black" points="22.3725,-46.3261 26.0788,-36.4006 16.9918,-41.8485 22.3725,-46.3261"/>
<g id="a_edge1&#45;headlabel"><a xlink:href="dir_000047_000000.xhtml" target="_top" xlink:title="22">
<text text-anchor="middle" x="22.2556" y="-48.4052" font-family="Helvetica" font-size="10.00">22</text>
</a>
</g>
</g>
<!-- dir_2dd0e1a78595595cf02ec0d9123d5f3a -->
<g id="node3" class="node"><title>dir_2dd0e1a78595595cf02ec0d9123d5f3a</title>
<g id="a_node3"><a xlink:href="dir_2dd0e1a78595595cf02ec0d9123d5f3a.xhtml" target="_top" xlink:title="framework">
<polygon fill="white" stroke="red" points="74.8119,-108 12.8119,-108 12.8119,-72 74.8119,-72 74.8119,-108"/>
<text text-anchor="middle" x="43.8119" y="-87.5" font-family="Helvetica" font-size="10.00">framework</text>
</a>
</g>
</g>
<!-- dir_463ebbf2abb1a8cd3e39ae1d0da97cb5&#45;&gt;dir_2dd0e1a78595595cf02ec0d9123d5f3a -->
<g id="edge2" class="edge"><title>dir_463ebbf2abb1a8cd3e39ae1d0da97cb5&#45;&gt;dir_2dd0e1a78595595cf02ec0d9123d5f3a</title>
<path fill="none" stroke="black" d="M43.8119,-143.697C43.8119,-135.983 43.8119,-126.712 43.8119,-118.112"/>
<polygon fill="black" stroke="black" points="47.312,-118.104 43.8119,-108.104 40.312,-118.104 47.312,-118.104"/>
<g id="a_edge2&#45;headlabel"><a xlink:href="dir_000047_000021.xhtml" target="_top" xlink:title="13">
<text text-anchor="middle" x="50.1511" y="-119.199" font-family="Helvetica" font-size="10.00">13</text>
</a>
</g>
</g>
<!-- dir_7834b57f5ab446dc82e2741d277142e5 -->
<g id="node4" class="node"><title>dir_7834b57f5ab446dc82e2741d277142e5</title>
<g id="a_node4"><a xlink:href="dir_7834b57f5ab446dc82e2741d277142e5.xhtml" target="_top" xlink:title="networks">
<polygon fill="none" stroke="black" points="148.812,-108 92.8119,-108 92.8119,-72 148.812,-72 148.812,-108"/>
<text text-anchor="middle" x="120.812" y="-87.5" font-family="Helvetica" font-size="10.00">networks</text>
</a>
</g>
</g>
<!-- dir_463ebbf2abb1a8cd3e39ae1d0da97cb5&#45;&gt;dir_7834b57f5ab446dc82e2741d277142e5 -->
<g id="edge3" class="edge"><title>dir_463ebbf2abb1a8cd3e39ae1d0da97cb5&#45;&gt;dir_7834b57f5ab446dc82e2741d277142e5</title>
<path fill="none" stroke="black" d="M62.8456,-143.697C72.3566,-135.05 84.0185,-124.449 94.3821,-115.027"/>
<polygon fill="black" stroke="black" points="96.952,-117.421 101.997,-108.104 92.2433,-112.241 96.952,-117.421"/>
<g id="a_edge3&#45;headlabel"><a xlink:href="dir_000047_000067.xhtml" target="_top" xlink:title="2">
<text text-anchor="middle" x="96.2022" y="-119.44" font-family="Helvetica" font-size="10.00">2</text>
</a>
</g>
</g>
<!-- dir_2dd0e1a78595595cf02ec0d9123d5f3a&#45;&gt;dir_d4d363c0979c7ffda4833df3f93b5668 -->
<g id="edge4" class="edge"><title>dir_2dd0e1a78595595cf02ec0d9123d5f3a&#45;&gt;dir_d4d363c0979c7ffda4833df3f93b5668</title>
<path fill="none" stroke="black" d="M43.8119,-71.6966C43.8119,-63.9827 43.8119,-54.7125 43.8119,-46.1124"/>
<polygon fill="black" stroke="black" points="47.312,-46.1043 43.8119,-36.1043 40.312,-46.1044 47.312,-46.1043"/>
<g id="a_edge4&#45;headlabel"><a xlink:href="dir_000021_000000.xhtml" target="_top" xlink:title="2">
<text text-anchor="middle" x="50.1511" y="-47.199" font-family="Helvetica" font-size="10.00">2</text>
</a>
</g>
</g>
<!-- dir_7834b57f5ab446dc82e2741d277142e5&#45;&gt;dir_d4d363c0979c7ffda4833df3f93b5668 -->
<g id="edge5" class="edge"><title>dir_7834b57f5ab446dc82e2741d277142e5&#45;&gt;dir_d4d363c0979c7ffda4833df3f93b5668</title>
<path fill="none" stroke="black" d="M101.778,-71.6966C92.2672,-63.0503 80.6053,-52.4486 70.2416,-43.027"/>
<polygon fill="black" stroke="black" points="72.3804,-40.2413 62.6266,-36.1043 67.6717,-45.4209 72.3804,-40.2413"/>
<g id="a_edge5&#45;headlabel"><a xlink:href="dir_000067_000000.xhtml" target="_top" xlink:title="2">
<text text-anchor="middle" x="76.9501" y="-38.0584" font-family="Helvetica" font-size="10.00">2</text>
</a>
</g>
</g>
</g>
</svg>
