<?xml version="1.0" encoding="UTF-8" standalone="no"?>
<!DOCTYPE svg PUBLIC "-//W3C//DTD SVG 1.1//EN"
 "http://www.w3.org/Graphics/SVG/1.1/DTD/svg11.dtd">
<!-- Generated by graphviz version 2.38.0 (20140413.2041)
 -->
<!-- Title: tests/benchmark/system_tests/common Pages: 1 -->
<svg width="100pt" height="151pt"
 viewBox="0.00 0.00 100.00 151.00" xmlns="http://www.w3.org/2000/svg" xmlns:xlink="http://www.w3.org/1999/xlink">
<g id="graph0" class="graph" transform="scale(1 1) rotate(0) translate(4 147)">
<title>tests/benchmark/system_tests/common</title>
<polygon fill="white" stroke="none" points="-4,4 -4,-147 96,-147 96,4 -4,4"/>
<g id="clust1" class="cluster"><title>clusterdir_a133c6c93c82e8721b2f0a6d208afd33</title>
<g id="a_clust1"><a xlink:href="dir_a133c6c93c82e8721b2f0a6d208afd33.xhtml" target="_top" xlink:title="system_tests">
<polygon fill="#ddddee" stroke="black" points="8,-64 8,-135 84,-135 84,-64 8,-64"/>
<text text-anchor="middle" x="46" y="-123" font-family="Helvetica,sans-Serif" font-size="10.00">system_tests</text>
</a>
</g>
</g>
<!-- dir_0b3c54e6965035dc3ca2dd424a2d1395 -->
<g id="node1" class="node"><title>dir_0b3c54e6965035dc3ca2dd424a2d1395</title>
<g id="a_node1"><a xlink:href="dir_0b3c54e6965035dc3ca2dd424a2d1395.xhtml" target="_top" xlink:title="common">
<polygon fill="#eeeeff" stroke="black" points="73,-108 19,-108 19,-72 73,-72 73,-108"/>
<text text-anchor="middle" x="46" y="-87.5" font-family="Helvetica,sans-Serif" font-size="10.00">common</text>
</a>
</g>
</g>
<!-- dir_ba1dc693ed461bc4c6534d3b34c816d0 -->
<g id="node2" class="node"><title>dir_ba1dc693ed461bc4c6534d3b34c816d0</title>
<g id="a_node2"><a xlink:href="dir_ba1dc693ed461bc4c6534d3b34c816d0.xhtml" target="_top" xlink:title="model_objects">
<polygon fill="none" stroke="black" points="86,-36 6,-36 6,-0 86,-0 86,-36"/>
<text text-anchor="middle" x="46" y="-15.5" font-family="Helvetica,sans-Serif" font-size="10.00">model_objects</text>
</a>
</g>
</g>
<!-- dir_0b3c54e6965035dc3ca2dd424a2d1395&#45;&gt;dir_ba1dc693ed461bc4c6534d3b34c816d0 -->
<g id="edge1" class="edge"><title>dir_0b3c54e6965035dc3ca2dd424a2d1395&#45;&gt;dir_ba1dc693ed461bc4c6534d3b34c816d0</title>
<path fill="none" stroke="black" d="M46,-71.6966C46,-63.9827 46,-54.7125 46,-46.1124"/>
<polygon fill="black" stroke="black" points="49.5001,-46.1043 46,-36.1043 42.5001,-46.1044 49.5001,-46.1043"/>
<g id="a_edge1&#45;headlabel"><a xlink:href="dir_000033_000034.xhtml" target="_top" xlink:title="2">
<text text-anchor="middle" x="52.3393" y="-47.199" font-family="Helvetica,sans-Serif" font-size="10.00">2</text>
</a>
</g>
</g>
</g>
</svg>
