<?xml version="1.0" encoding="UTF-8" standalone="no"?>
<!DOCTYPE svg PUBLIC "-//W3C//DTD SVG 1.1//EN"
 "http://www.w3.org/Graphics/SVG/1.1/DTD/svg11.dtd">
<!-- Generated by graphviz version 2.38.0 (20140413.2041)
 -->
<!-- Title: tests Pages: 1 -->
<svg width="371pt" height="204pt"
 viewBox="0.00 0.00 370.80 204.00" xmlns="http://www.w3.org/2000/svg" xmlns:xlink="http://www.w3.org/1999/xlink">
<g id="graph0" class="graph" transform="scale(1 1) rotate(0) translate(4 200)">
<title>tests</title>
<polygon fill="white" stroke="none" points="-4,4 -4,-200 366.797,-200 366.797,4 -4,4"/>
<g id="clust1" class="cluster"><title>clusterdir_59425e443f801f1f2fd8bbe4959a3ccf</title>
<g id="a_clust1"><a xlink:href="dir_59425e443f801f1f2fd8bbe4959a3ccf.xhtml" target="_top">
<polygon fill="#eeeeff" stroke="black" points="8,-64 8,-188 320,-188 320,-64 8,-64"/>
</a>
</g>
</g>
<!-- dir_59425e443f801f1f2fd8bbe4959a3ccf -->
<g id="node1" class="node"><title>dir_59425e443f801f1f2fd8bbe4959a3ccf</title>
<text text-anchor="middle" x="279" y="-159.5" font-family="Helvetica,sans-Serif" font-size="10.00">tests</text>
</g>
<!-- dir_4f2df8950dc650bf7cf9176fae02facc -->
<g id="node2" class="node"><title>dir_4f2df8950dc650bf7cf9176fae02facc</title>
<g id="a_node2"><a xlink:href="dir_4f2df8950dc650bf7cf9176fae02facc.xhtml" target="_top" xlink:title="benchmark">
<polygon fill="white" stroke="red" points="227.5,-180 162.5,-180 162.5,-144 227.5,-144 227.5,-180"/>
<text text-anchor="middle" x="195" y="-159.5" font-family="Helvetica,sans-Serif" font-size="10.00">benchmark</text>
</a>
</g>
</g>
<!-- dir_896191444cf08ec8ade6f88256cb2bdd -->
<g id="node3" class="node"><title>dir_896191444cf08ec8ade6f88256cb2bdd</title>
<g id="a_node3"><a xlink:href="dir_896191444cf08ec8ade6f88256cb2bdd.xhtml" target="_top" xlink:title="CL">
<polygon fill="white" stroke="black" points="70,-108 16,-108 16,-72 70,-72 70,-108"/>
<text text-anchor="middle" x="43" y="-87.5" font-family="Helvetica,sans-Serif" font-size="10.00">CL</text>
</a>
</g>
</g>
<!-- dir_4f2df8950dc650bf7cf9176fae02facc&#45;&gt;dir_896191444cf08ec8ade6f88256cb2bdd -->
<g id="edge11" class="edge"><title>dir_4f2df8950dc650bf7cf9176fae02facc&#45;&gt;dir_896191444cf08ec8ade6f88256cb2bdd</title>
<path fill="none" stroke="black" d="M162.449,-146.26C141.17,-136.595 112.558,-123.543 79.5375,-108.226"/>
<polygon fill="black" stroke="black" points="80.6534,-104.885 70.1096,-103.847 77.7044,-111.234 80.6534,-104.885"/>
<g id="a_edge11&#45;headlabel"><a xlink:href="dir_000023_000035.xhtml" target="_top" xlink:title="18">
<text text-anchor="middle" x="85.1096" y="-101.325" font-family="Helvetica,sans-Serif" font-size="10.00">18</text>
</a>
</g>
</g>
<!-- dir_f482a42326943e614a2ec303fd116962 -->
<g id="node4" class="node"><title>dir_f482a42326943e614a2ec303fd116962</title>
<g id="a_node4"><a xlink:href="dir_f482a42326943e614a2ec303fd116962.xhtml" target="_top" xlink:title="dataset">
<polygon fill="white" stroke="black" points="142,-108 88,-108 88,-72 142,-72 142,-108"/>
<text text-anchor="middle" x="115" y="-87.5" font-family="Helvetica,sans-Serif" font-size="10.00">dataset</text>
</a>
</g>
</g>
<!-- dir_4f2df8950dc650bf7cf9176fae02facc&#45;&gt;dir_f482a42326943e614a2ec303fd116962 -->
<g id="edge9" class="edge"><title>dir_4f2df8950dc650bf7cf9176fae02facc&#45;&gt;dir_f482a42326943e614a2ec303fd116962</title>
<path fill="none" stroke="black" d="M175.225,-143.697C165.246,-134.965 152.989,-124.24 142.143,-114.75"/>
<polygon fill="black" stroke="black" points="144.378,-112.055 134.548,-108.104 139.769,-117.323 144.378,-112.055"/>
<g id="a_edge9&#45;headlabel"><a xlink:href="dir_000023_000037.xhtml" target="_top" xlink:title="19">
<text text-anchor="middle" x="148.953" y="-109.786" font-family="Helvetica,sans-Serif" font-size="10.00">19</text>
</a>
</g>
</g>
<!-- dir_ba1dc693ed461bc4c6534d3b34c816d0 -->
<g id="node5" class="node"><title>dir_ba1dc693ed461bc4c6534d3b34c816d0</title>
<g id="a_node5"><a xlink:href="dir_ba1dc693ed461bc4c6534d3b34c816d0.xhtml" target="_top" xlink:title="model_objects">
<polygon fill="white" stroke="black" points="312,-108 232,-108 232,-72 312,-72 312,-108"/>
<text text-anchor="middle" x="272" y="-87.5" font-family="Helvetica,sans-Serif" font-size="10.00">model_objects</text>
</a>
</g>
</g>
<!-- dir_4f2df8950dc650bf7cf9176fae02facc&#45;&gt;dir_ba1dc693ed461bc4c6534d3b34c816d0 -->
<g id="edge8" class="edge"><title>dir_4f2df8950dc650bf7cf9176fae02facc&#45;&gt;dir_ba1dc693ed461bc4c6534d3b34c816d0</title>
<path fill="none" stroke="black" d="M214.034,-143.697C223.545,-135.05 235.207,-124.449 245.57,-115.027"/>
<polygon fill="black" stroke="black" points="248.14,-117.421 253.185,-108.104 243.431,-112.241 248.14,-117.421"/>
<g id="a_edge8&#45;headlabel"><a xlink:href="dir_000023_000034.xhtml" target="_top" xlink:title="2">
<text text-anchor="middle" x="247.39" y="-119.44" font-family="Helvetica,sans-Serif" font-size="10.00">2</text>
</a>
</g>
</g>
<!-- dir_445738e6fed662d0b65e690e3f1e1de0 -->
<g id="node6" class="node"><title>dir_445738e6fed662d0b65e690e3f1e1de0</title>
<g id="a_node6"><a xlink:href="dir_445738e6fed662d0b65e690e3f1e1de0.xhtml" target="_top" xlink:title="NEON">
<polygon fill="white" stroke="black" points="214,-108 160,-108 160,-72 214,-72 214,-108"/>
<text text-anchor="middle" x="187" y="-87.5" font-family="Helvetica,sans-Serif" font-size="10.00">NEON</text>
</a>
</g>
</g>
<!-- dir_4f2df8950dc650bf7cf9176fae02facc&#45;&gt;dir_445738e6fed662d0b65e690e3f1e1de0 -->
<g id="edge7" class="edge"><title>dir_4f2df8950dc650bf7cf9176fae02facc&#45;&gt;dir_445738e6fed662d0b65e690e3f1e1de0</title>
<path fill="none" stroke="black" d="M193.022,-143.697C192.141,-135.983 191.081,-126.712 190.099,-118.112"/>
<polygon fill="black" stroke="black" points="193.568,-117.642 188.955,-108.104 186.613,-118.437 193.568,-117.642"/>
<g id="a_edge7&#45;headlabel"><a xlink:href="dir_000023_000036.xhtml" target="_top" xlink:title="20">
<text text-anchor="middle" x="196.797" y="-118.391" font-family="Helvetica,sans-Serif" font-size="10.00">20</text>
</a>
</g>
</g>
<!-- dir_214608ef36d61442cb2b0c1c4e9a7def -->
<g id="node8" class="node"><title>dir_214608ef36d61442cb2b0c1c4e9a7def</title>
<g id="a_node8"><a xlink:href="dir_214608ef36d61442cb2b0c1c4e9a7def.xhtml" target="_top" xlink:title="arm_compute">
<polygon fill="white" stroke="red" points="225,-36 149,-36 149,-0 225,-0 225,-36"/>
<text text-anchor="middle" x="187" y="-15.5" font-family="Helvetica,sans-Serif" font-size="10.00">arm_compute</text>
</a>
</g>
</g>
<!-- dir_4f2df8950dc650bf7cf9176fae02facc&#45;&gt;dir_214608ef36d61442cb2b0c1c4e9a7def -->
<g id="edge10" class="edge"><title>dir_4f2df8950dc650bf7cf9176fae02facc&#45;&gt;dir_214608ef36d61442cb2b0c1c4e9a7def</title>
<path fill="none" stroke="black" d="M227.751,-149.269C232.848,-147.481 238.06,-145.675 243,-144 292.115,-127.341 323.504,-149.95 354,-108 365.499,-92.1823 365.894,-79.5229 354,-64 339.556,-45.149 279.204,-32.4133 235.19,-25.4328"/>
<polygon fill="black" stroke="black" points="235.646,-21.9619 225.231,-23.9061 234.586,-28.8811 235.646,-21.9619"/>
<g id="a_edge10&#45;headlabel"><a xlink:href="dir_000023_000000.xhtml" target="_top" xlink:title="125">
<text text-anchor="middle" x="239.63" y="-17.2001" font-family="Helvetica,sans-Serif" font-size="10.00">125</text>
</a>
</g>
</g>
<!-- dir_896191444cf08ec8ade6f88256cb2bdd&#45;&gt;dir_214608ef36d61442cb2b0c1c4e9a7def -->
<g id="edge12" class="edge"><title>dir_896191444cf08ec8ade6f88256cb2bdd&#45;&gt;dir_214608ef36d61442cb2b0c1c4e9a7def</title>
<path fill="none" stroke="black" d="M66.1666,-71.8526C70.3425,-69.0703 74.7283,-66.3386 79,-64 98.1288,-53.5278 120.208,-43.9247 139.399,-36.3035"/>
<polygon fill="black" stroke="black" points="140.806,-39.5114 148.85,-32.6158 138.262,-32.9902 140.806,-39.5114"/>
<g id="a_edge12&#45;headlabel"><a xlink:href="dir_000035_000000.xhtml" target="_top" xlink:title="2">
<text text-anchor="middle" x="138.49" y="-40.963" font-family="Helvetica,sans-Serif" font-size="10.00">2</text>
</a>
</g>
</g>
<!-- dir_f482a42326943e614a2ec303fd116962&#45;&gt;dir_214608ef36d61442cb2b0c1c4e9a7def -->
<g id="edge6" class="edge"><title>dir_f482a42326943e614a2ec303fd116962&#45;&gt;dir_214608ef36d61442cb2b0c1c4e9a7def</title>
<path fill="none" stroke="black" d="M132.798,-71.6966C141.604,-63.135 152.382,-52.6562 162.001,-43.3045"/>
<polygon fill="black" stroke="black" points="164.677,-45.5846 169.407,-36.1043 159.797,-40.5657 164.677,-45.5846"/>
<g id="a_edge6&#45;headlabel"><a xlink:href="dir_000037_000000.xhtml" target="_top" xlink:title="24">
<text text-anchor="middle" x="164.079" y="-47.6261" font-family="Helvetica,sans-Serif" font-size="10.00">24</text>
</a>
</g>
</g>
<!-- dir_445738e6fed662d0b65e690e3f1e1de0&#45;&gt;dir_214608ef36d61442cb2b0c1c4e9a7def -->
<g id="edge5" class="edge"><title>dir_445738e6fed662d0b65e690e3f1e1de0&#45;&gt;dir_214608ef36d61442cb2b0c1c4e9a7def</title>
<path fill="none" stroke="black" d="M187,-71.6966C187,-63.9827 187,-54.7125 187,-46.1124"/>
<polygon fill="black" stroke="black" points="190.5,-46.1043 187,-36.1043 183.5,-46.1044 190.5,-46.1043"/>
<g id="a_edge5&#45;headlabel"><a xlink:href="dir_000036_000000.xhtml" target="_top" xlink:title="2">
<text text-anchor="middle" x="193.339" y="-47.199" font-family="Helvetica,sans-Serif" font-size="10.00">2</text>
</a>
</g>
</g>
<!-- dir_e7c7b16542faa38cb4655ff1750d3604 -->
<g id="node7" class="node"><title>dir_e7c7b16542faa38cb4655ff1750d3604</title>
<g id="a_node7"><a xlink:href="dir_e7c7b16542faa38cb4655ff1750d3604.xhtml" target="_top" xlink:title="validation">
<polygon fill="white" stroke="red" points="144,-180 86,-180 86,-144 144,-144 144,-180"/>
<text text-anchor="middle" x="115" y="-159.5" font-family="Helvetica,sans-Serif" font-size="10.00">validation</text>
</a>
</g>
</g>
<!-- dir_e7c7b16542faa38cb4655ff1750d3604&#45;&gt;dir_896191444cf08ec8ade6f88256cb2bdd -->
<g id="edge4" class="edge"><title>dir_e7c7b16542faa38cb4655ff1750d3604&#45;&gt;dir_896191444cf08ec8ade6f88256cb2bdd</title>
<path fill="none" stroke="black" d="M97.2022,-143.697C88.396,-135.135 77.6179,-124.656 67.9989,-115.304"/>
<polygon fill="black" stroke="black" points="70.2028,-112.566 60.593,-108.104 65.3232,-117.585 70.2028,-112.566"/>
<g id="a_edge4&#45;headlabel"><a xlink:href="dir_000007_000035.xhtml" target="_top" xlink:title="8">
<text text-anchor="middle" x="74.7593" y="-110.536" font-family="Helvetica,sans-Serif" font-size="10.00">8</text>
</a>
</g>
</g>
<!-- dir_e7c7b16542faa38cb4655ff1750d3604&#45;&gt;dir_f482a42326943e614a2ec303fd116962 -->
<g id="edge2" class="edge"><title>dir_e7c7b16542faa38cb4655ff1750d3604&#45;&gt;dir_f482a42326943e614a2ec303fd116962</title>
<path fill="none" stroke="black" d="M115,-143.697C115,-135.983 115,-126.712 115,-118.112"/>
<polygon fill="black" stroke="black" points="118.5,-118.104 115,-108.104 111.5,-118.104 118.5,-118.104"/>
<g id="a_edge2&#45;headlabel"><a xlink:href="dir_000007_000037.xhtml" target="_top" xlink:title="23">
<text text-anchor="middle" x="121.339" y="-119.199" font-family="Helvetica,sans-Serif" font-size="10.00">23</text>
</a>
</g>
</g>
<!-- dir_e7c7b16542faa38cb4655ff1750d3604&#45;&gt;dir_445738e6fed662d0b65e690e3f1e1de0 -->
<g id="edge1" class="edge"><title>dir_e7c7b16542faa38cb4655ff1750d3604&#45;&gt;dir_445738e6fed662d0b65e690e3f1e1de0</title>
<path fill="none" stroke="black" d="M132.798,-143.697C141.604,-135.135 152.382,-124.656 162.001,-115.304"/>
<polygon fill="black" stroke="black" points="164.677,-117.585 169.407,-108.104 159.797,-112.566 164.677,-117.585"/>
<g id="a_edge1&#45;headlabel"><a xlink:href="dir_000007_000036.xhtml" target="_top" xlink:title="58">
<text text-anchor="middle" x="164.079" y="-119.626" font-family="Helvetica,sans-Serif" font-size="10.00">58</text>
</a>
</g>
</g>
<!-- dir_e7c7b16542faa38cb4655ff1750d3604&#45;&gt;dir_214608ef36d61442cb2b0c1c4e9a7def -->
<g id="edge3" class="edge"><title>dir_e7c7b16542faa38cb4655ff1750d3604&#45;&gt;dir_214608ef36d61442cb2b0c1c4e9a7def</title>
<path fill="none" stroke="black" d="M144.146,-147.553C147.435,-146.258 150.766,-145.042 154,-144 226.269,-120.715 273.302,-167.075 321,-108 333.285,-92.7848 332.417,-79.8771 321,-64 301.648,-37.0872 265.412,-26.0467 235.497,-21.6215"/>
<polygon fill="black" stroke="black" points="235.579,-18.1038 225.218,-20.3169 234.697,-25.0481 235.579,-18.1038"/>
<g id="a_edge3&#45;headlabel"><a xlink:href="dir_000007_000000.xhtml" target="_top" xlink:title="174">
<text text-anchor="middle" x="239.502" y="-13.2396" font-family="Helvetica,sans-Serif" font-size="10.00">174</text>
</a>
</g>
</g>
</g>
</svg>
