<?xml version="1.0" encoding="UTF-8" standalone="no"?>
<!DOCTYPE svg PUBLIC "-//W3C//DTD SVG 1.1//EN"
 "http://www.w3.org/Graphics/SVG/1.1/DTD/svg11.dtd">
<!-- Generated by graphviz version 2.38.0 (20140413.2041)
 -->
<!-- Title: utils/command_line Pages: 1 -->
<svg width="145pt" height="223pt"
 viewBox="0.00 0.00 145.00 223.00" xmlns="http://www.w3.org/2000/svg" xmlns:xlink="http://www.w3.org/1999/xlink">
<g id="graph0" class="graph" transform="scale(1 1) rotate(0) translate(4 219)">
<title>utils/command_line</title>
<polygon fill="white" stroke="none" points="-4,4 -4,-219 141,-219 141,4 -4,4"/>
<g id="clust1" class="cluster"><title>clusterdir_cbdb8362360e11eafe2fa3bc74cf0ffd</title>
<g id="a_clust1"><a xlink:href="dir_cbdb8362360e11eafe2fa3bc74cf0ffd.xhtml" target="_top" xlink:title="utils">
<polygon fill="#ddddee" stroke="black" points="25,-136 25,-207 129,-207 129,-136 25,-136"/>
<text text-anchor="middle" x="77" y="-195" font-family="Helvetica,sans-Serif" font-size="10.00">utils</text>
</a>
</g>
</g>
<!-- dir_7e20423ab48dcd11e2e5380033c0b7a2 -->
<g id="node1" class="node"><title>dir_7e20423ab48dcd11e2e5380033c0b7a2</title>
<g id="a_node1"><a xlink:href="dir_7e20423ab48dcd11e2e5380033c0b7a2.xhtml" target="_top" xlink:title="command_line">
<polygon fill="#eeeeff" stroke="black" points="120.5,-180 33.5,-180 33.5,-144 120.5,-144 120.5,-180"/>
<text text-anchor="middle" x="77" y="-159.5" font-family="Helvetica,sans-Serif" font-size="10.00">command_line</text>
</a>
</g>
</g>
<!-- dir_214608ef36d61442cb2b0c1c4e9a7def -->
<g id="node2" class="node"><title>dir_214608ef36d61442cb2b0c1c4e9a7def</title>
<g id="a_node2"><a xlink:href="dir_214608ef36d61442cb2b0c1c4e9a7def.xhtml" target="_top" xlink:title="arm_compute">
<polygon fill="white" stroke="red" points="84,-108 7.10543e-15,-108 7.10543e-15,-72 84,-72 84,-108"/>
<text text-anchor="middle" x="42" y="-87.5" font-family="Helvetica,sans-Serif" font-size="10.00">arm_compute</text>
</a>
</g>
</g>
<!-- dir_7e20423ab48dcd11e2e5380033c0b7a2&#45;&gt;dir_214608ef36d61442cb2b0c1c4e9a7def -->
<g id="edge1" class="edge"><title>dir_7e20423ab48dcd11e2e5380033c0b7a2&#45;&gt;dir_214608ef36d61442cb2b0c1c4e9a7def</title>
<path fill="none" stroke="black" d="M68.3483,-143.697C64.3642,-135.728 59.5498,-126.1 55.1321,-117.264"/>
<polygon fill="black" stroke="black" points="58.1549,-115.483 50.5522,-108.104 51.8939,-118.614 58.1549,-115.483"/>
<g id="a_edge1&#45;headlabel"><a xlink:href="dir_000141_000000.xhtml" target="_top" xlink:title="1">
<text text-anchor="middle" x="62.3019" y="-114.929" font-family="Helvetica,sans-Serif" font-size="10.00">1</text>
</a>
</g>
</g>
<!-- dir_5815af820a9cc9481f1d0990a0d60286 -->
<g id="node3" class="node"><title>dir_5815af820a9cc9481f1d0990a0d60286</title>
<g id="a_node3"><a xlink:href="dir_5815af820a9cc9481f1d0990a0d60286.xhtml" target="_top" xlink:title="support">
<polygon fill="none" stroke="black" points="104,-36 50,-36 50,-0 104,-0 104,-36"/>
<text text-anchor="middle" x="77" y="-15.5" font-family="Helvetica,sans-Serif" font-size="10.00">support</text>
</a>
</g>
</g>
<!-- dir_7e20423ab48dcd11e2e5380033c0b7a2&#45;&gt;dir_5815af820a9cc9481f1d0990a0d60286 -->
<g id="edge2" class="edge"><title>dir_7e20423ab48dcd11e2e5380033c0b7a2&#45;&gt;dir_5815af820a9cc9481f1d0990a0d60286</title>
<path fill="none" stroke="black" d="M83.6522,-143.628C87.2029,-133.421 91.2029,-120.171 93,-108 95.3371,-92.1716 95.3371,-87.8284 93,-72 91.7224,-63.3473 89.3314,-54.1492 86.7799,-45.8867"/>
<polygon fill="black" stroke="black" points="90.1001,-44.7788 83.6522,-36.3719 83.4501,-46.9648 90.1001,-44.7788"/>
<g id="a_edge2&#45;headlabel"><a xlink:href="dir_000141_000132.xhtml" target="_top" xlink:title="1">
<text text-anchor="middle" x="93.9198" y="-44.807" font-family="Helvetica,sans-Serif" font-size="10.00">1</text>
</a>
</g>
</g>
<!-- dir_214608ef36d61442cb2b0c1c4e9a7def&#45;&gt;dir_5815af820a9cc9481f1d0990a0d60286 -->
<g id="edge3" class="edge"><title>dir_214608ef36d61442cb2b0c1c4e9a7def&#45;&gt;dir_5815af820a9cc9481f1d0990a0d60286</title>
<path fill="none" stroke="black" d="M50.6517,-71.6966C54.6358,-63.7284 59.4502,-54.0995 63.8679,-45.2641"/>
<polygon fill="black" stroke="black" points="67.1061,-46.6139 68.4478,-36.1043 60.8451,-43.4833 67.1061,-46.6139"/>
<g id="a_edge3&#45;headlabel"><a xlink:href="dir_000000_000132.xhtml" target="_top" xlink:title="21">
<text text-anchor="middle" x="68.0382" y="-48.5987" font-family="Helvetica,sans-Serif" font-size="10.00">21</text>
</a>
</g>
</g>
</g>
</svg>
