<?xml version="1.0" encoding="UTF-8" standalone="no"?>
<!DOCTYPE svg PUBLIC "-//W3C//DTD SVG 1.1//EN"
 "http://www.w3.org/Graphics/SVG/1.1/DTD/svg11.dtd">
<!-- Generated by graphviz version 2.38.0 (20140413.2041)
 -->
<!-- Title: arm_compute/runtime/CL Pages: 1 -->
<svg width="115pt" height="231pt"
 viewBox="0.00 0.00 115.00 231.00" xmlns="http://www.w3.org/2000/svg" xmlns:xlink="http://www.w3.org/1999/xlink">
<g id="graph0" class="graph" transform="scale(1 1) rotate(0) translate(4 227)">
<title>arm_compute/runtime/CL</title>
<polygon fill="white" stroke="none" points="-4,4 -4,-227 111,-227 111,4 -4,4"/>
<g id="clust1" class="cluster"><title>clusterdir_8bc26130589aa16388b5a02f17abf2c2</title>
<g id="a_clust1"><a xlink:href="dir_8bc26130589aa16388b5a02f17abf2c2.xhtml" target="_top" xlink:title="runtime">
<polygon fill="#ddddee" stroke="black" points="8,-56 8,-215 96,-215 96,-56 8,-56"/>
<text text-anchor="middle" x="52" y="-203" font-family="Helvetica,sans-Serif" font-size="10.00">runtime</text>
</a>
</g>
</g>
<g id="clust2" class="cluster"><title>clusterdir_b986aa98f9b6490bb4fc7918500346fb</title>
<g id="a_clust2"><a xlink:href="dir_b986aa98f9b6490bb4fc7918500346fb.xhtml" target="_top">
<polygon fill="#eeeeff" stroke="black" points="16,-64 16,-188 88,-188 88,-64 16,-64"/>
</a>
</g>
</g>
<!-- dir_b986aa98f9b6490bb4fc7918500346fb -->
<g id="node1" class="node"><title>dir_b986aa98f9b6490bb4fc7918500346fb</title>
<text text-anchor="middle" x="52" y="-159.5" font-family="Helvetica,sans-Serif" font-size="10.00">CL</text>
</g>
<!-- dir_251c63bc3f70b60acf43edd6d870a3ef -->
<g id="node2" class="node"><title>dir_251c63bc3f70b60acf43edd6d870a3ef</title>
<g id="a_node2"><a xlink:href="dir_251c63bc3f70b60acf43edd6d870a3ef.xhtml" target="_top" xlink:title="functions">
<polygon fill="white" stroke="black" points="80,-108 24,-108 24,-72 80,-72 80,-108"/>
<text text-anchor="middle" x="52" y="-87.5" font-family="Helvetica,sans-Serif" font-size="10.00">functions</text>
</a>
</g>
</g>
<!-- dir_b986aa98f9b6490bb4fc7918500346fb&#45;&gt;dir_251c63bc3f70b60acf43edd6d870a3ef -->
<g id="edge2" class="edge"><title>dir_b986aa98f9b6490bb4fc7918500346fb&#45;&gt;dir_251c63bc3f70b60acf43edd6d870a3ef</title>
<path fill="none" stroke="black" d="M52,-143.697C52,-135.983 52,-126.712 52,-118.112"/>
<polygon fill="black" stroke="black" points="55.5001,-118.104 52,-108.104 48.5001,-118.104 55.5001,-118.104"/>
<g id="a_edge2&#45;headlabel"><a xlink:href="dir_000010_000011.xhtml" target="_top" xlink:title="58">
<text text-anchor="middle" x="58.3393" y="-119.199" font-family="Helvetica,sans-Serif" font-size="10.00">58</text>
</a>
</g>
</g>
<!-- dir_1fb090f0c6070330bfaccc4236d3ca0d -->
<g id="node3" class="node"><title>dir_1fb090f0c6070330bfaccc4236d3ca0d</title>
<g id="a_node3"><a xlink:href="dir_1fb090f0c6070330bfaccc4236d3ca0d.xhtml" target="_top" xlink:title="core">
<polygon fill="white" stroke="red" points="107,-36 53,-36 53,-0 107,-0 107,-36"/>
<text text-anchor="middle" x="80" y="-15.5" font-family="Helvetica,sans-Serif" font-size="10.00">core</text>
</a>
</g>
</g>
<!-- dir_b986aa98f9b6490bb4fc7918500346fb&#45;&gt;dir_1fb090f0c6070330bfaccc4236d3ca0d -->
<g id="edge3" class="edge"><title>dir_b986aa98f9b6490bb4fc7918500346fb&#45;&gt;dir_1fb090f0c6070330bfaccc4236d3ca0d</title>
<path fill="none" stroke="black" d="M68.0369,-143.846C76.0136,-134.124 84.825,-121.274 89,-108 95.3491,-87.8138 92.3898,-63.9026 88.2323,-45.9505"/>
<polygon fill="black" stroke="black" points="91.59,-44.9539 85.7074,-36.1423 84.811,-46.6991 91.59,-44.9539"/>
<g id="a_edge3&#45;headlabel"><a xlink:href="dir_000010_000001.xhtml" target="_top" xlink:title="117">
<text text-anchor="middle" x="95.2357" y="-45.2272" font-family="Helvetica,sans-Serif" font-size="10.00">117</text>
</a>
</g>
</g>
<!-- dir_251c63bc3f70b60acf43edd6d870a3ef&#45;&gt;dir_1fb090f0c6070330bfaccc4236d3ca0d -->
<g id="edge1" class="edge"><title>dir_251c63bc3f70b60acf43edd6d870a3ef&#45;&gt;dir_1fb090f0c6070330bfaccc4236d3ca0d</title>
<path fill="none" stroke="black" d="M58.9214,-71.6966C62.0747,-63.8132 65.8783,-54.3042 69.3814,-45.5464"/>
<polygon fill="black" stroke="black" points="72.694,-46.689 73.1583,-36.1043 66.1946,-44.0892 72.694,-46.689"/>
<g id="a_edge1&#45;headlabel"><a xlink:href="dir_000011_000001.xhtml" target="_top" xlink:title="94">
<text text-anchor="middle" x="73.9952" y="-48.581" font-family="Helvetica,sans-Serif" font-size="10.00">94</text>
</a>
</g>
</g>
</g>
</svg>
