<?xml version="1.0" encoding="UTF-8" standalone="no"?>
<!DOCTYPE svg PUBLIC "-//W3C//DTD SVG 1.1//EN"
 "http://www.w3.org/Graphics/SVG/1.1/DTD/svg11.dtd">
<!-- Generated by graphviz version 2.38.0 (20140413.2041)
 -->
<!-- Title: tests/validation/CL/FixedPoint Pages: 1 -->
<svg width="186pt" height="223pt"
 viewBox="0.00 0.00 185.50 223.00" xmlns="http://www.w3.org/2000/svg" xmlns:xlink="http://www.w3.org/1999/xlink">
<g id="graph0" class="graph" transform="scale(1 1) rotate(0) translate(4 219)">
<title>tests/validation/CL/FixedPoint</title>
<polygon fill="white" stroke="none" points="-4,4 -4,-219 181.5,-219 181.5,4 -4,4"/>
<g id="clust1" class="cluster"><title>clusterdir_f7024513cd67abef53e86ee9382ac5ce</title>
<g id="a_clust1"><a xlink:href="dir_f7024513cd67abef53e86ee9382ac5ce.xhtml" target="_top" xlink:title="CL">
<polygon fill="#ddddee" stroke="black" points="54.5,-136 54.5,-207 136.5,-207 136.5,-136 54.5,-136"/>
<text text-anchor="middle" x="95.5" y="-195" font-family="Helvetica,sans-Serif" font-size="10.00">CL</text>
</a>
</g>
</g>
<!-- dir_0cc2cfaf817de5fd0d308f8b2b47cf4a -->
<g id="node1" class="node"><title>dir_0cc2cfaf817de5fd0d308f8b2b47cf4a</title>
<g id="a_node1"><a xlink:href="dir_0cc2cfaf817de5fd0d308f8b2b47cf4a.xhtml" target="_top" xlink:title="FixedPoint">
<polygon fill="#eeeeff" stroke="black" points="128,-180 63,-180 63,-144 128,-144 128,-180"/>
<text text-anchor="middle" x="95.5" y="-159.5" font-family="Helvetica,sans-Serif" font-size="10.00">FixedPoint</text>
</a>
</g>
</g>
<!-- dir_9e71e2da941d3cafc4d98a9f6ae3de4f -->
<g id="node2" class="node"><title>dir_9e71e2da941d3cafc4d98a9f6ae3de4f</title>
<g id="a_node2"><a xlink:href="dir_9e71e2da941d3cafc4d98a9f6ae3de4f.xhtml" target="_top" xlink:title="framework">
<polygon fill="white" stroke="red" points="67,-108 0,-108 0,-72 67,-72 67,-108"/>
<text text-anchor="middle" x="33.5" y="-87.5" font-family="Helvetica,sans-Serif" font-size="10.00">framework</text>
</a>
</g>
</g>
<!-- dir_0cc2cfaf817de5fd0d308f8b2b47cf4a&#45;&gt;dir_9e71e2da941d3cafc4d98a9f6ae3de4f -->
<g id="edge1" class="edge"><title>dir_0cc2cfaf817de5fd0d308f8b2b47cf4a&#45;&gt;dir_9e71e2da941d3cafc4d98a9f6ae3de4f</title>
<path fill="none" stroke="black" d="M80.1742,-143.697C72.7412,-135.305 63.6767,-125.07 55.52,-115.861"/>
<polygon fill="black" stroke="black" points="57.9,-113.27 48.6496,-108.104 52.6599,-117.911 57.9,-113.27"/>
<g id="a_edge1&#45;headlabel"><a xlink:href="dir_000071_000022.xhtml" target="_top" xlink:title="3">
<text text-anchor="middle" x="62.4088" y="-111.578" font-family="Helvetica,sans-Serif" font-size="10.00">3</text>
</a>
</g>
</g>
<!-- dir_214608ef36d61442cb2b0c1c4e9a7def -->
<g id="node3" class="node"><title>dir_214608ef36d61442cb2b0c1c4e9a7def</title>
<g id="a_node3"><a xlink:href="dir_214608ef36d61442cb2b0c1c4e9a7def.xhtml" target="_top" xlink:title="arm_compute">
<polygon fill="white" stroke="red" points="137.5,-36 53.5,-36 53.5,-0 137.5,-0 137.5,-36"/>
<text text-anchor="middle" x="95.5" y="-15.5" font-family="Helvetica,sans-Serif" font-size="10.00">arm_compute</text>
</a>
</g>
</g>
<!-- dir_0cc2cfaf817de5fd0d308f8b2b47cf4a&#45;&gt;dir_214608ef36d61442cb2b0c1c4e9a7def -->
<g id="edge2" class="edge"><title>dir_0cc2cfaf817de5fd0d308f8b2b47cf4a&#45;&gt;dir_214608ef36d61442cb2b0c1c4e9a7def</title>
<path fill="none" stroke="black" d="M95.5,-143.871C95.5,-119.67 95.5,-75.2108 95.5,-46.3932"/>
<polygon fill="black" stroke="black" points="99.0001,-46.1892 95.5,-36.1893 92.0001,-46.1893 99.0001,-46.1892"/>
<g id="a_edge2&#45;headlabel"><a xlink:href="dir_000071_000000.xhtml" target="_top" xlink:title="4">
<text text-anchor="middle" x="101.839" y="-47.2839" font-family="Helvetica,sans-Serif" font-size="10.00">4</text>
</a>
</g>
</g>
<!-- dir_896191444cf08ec8ade6f88256cb2bdd -->
<g id="node4" class="node"><title>dir_896191444cf08ec8ade6f88256cb2bdd</title>
<g id="a_node4"><a xlink:href="dir_896191444cf08ec8ade6f88256cb2bdd.xhtml" target="_top" xlink:title="CL">
<polygon fill="none" stroke="black" points="177.5,-108 123.5,-108 123.5,-72 177.5,-72 177.5,-108"/>
<text text-anchor="middle" x="150.5" y="-87.5" font-family="Helvetica,sans-Serif" font-size="10.00">CL</text>
</a>
</g>
</g>
<!-- dir_0cc2cfaf817de5fd0d308f8b2b47cf4a&#45;&gt;dir_896191444cf08ec8ade6f88256cb2bdd -->
<g id="edge3" class="edge"><title>dir_0cc2cfaf817de5fd0d308f8b2b47cf4a&#45;&gt;dir_896191444cf08ec8ade6f88256cb2bdd</title>
<path fill="none" stroke="black" d="M109.096,-143.697C115.623,-135.389 123.568,-125.277 130.747,-116.141"/>
<polygon fill="black" stroke="black" points="133.635,-118.13 137.061,-108.104 128.131,-113.805 133.635,-118.13"/>
<g id="a_edge3&#45;headlabel"><a xlink:href="dir_000071_000064.xhtml" target="_top" xlink:title="1">
<text text-anchor="middle" x="133.647" y="-120.211" font-family="Helvetica,sans-Serif" font-size="10.00">1</text>
</a>
</g>
</g>
<!-- dir_9e71e2da941d3cafc4d98a9f6ae3de4f&#45;&gt;dir_214608ef36d61442cb2b0c1c4e9a7def -->
<g id="edge4" class="edge"><title>dir_9e71e2da941d3cafc4d98a9f6ae3de4f&#45;&gt;dir_214608ef36d61442cb2b0c1c4e9a7def</title>
<path fill="none" stroke="black" d="M48.8258,-71.6966C56.2588,-63.3046 65.3233,-53.0705 73.48,-43.8613"/>
<polygon fill="black" stroke="black" points="76.3401,-45.9109 80.3504,-36.1043 71.1,-41.2696 76.3401,-45.9109"/>
<g id="a_edge4&#45;headlabel"><a xlink:href="dir_000022_000000.xhtml" target="_top" xlink:title="13">
<text text-anchor="middle" x="76.0822" y="-47.9843" font-family="Helvetica,sans-Serif" font-size="10.00">13</text>
</a>
</g>
</g>
<!-- dir_896191444cf08ec8ade6f88256cb2bdd&#45;&gt;dir_214608ef36d61442cb2b0c1c4e9a7def -->
<g id="edge5" class="edge"><title>dir_896191444cf08ec8ade6f88256cb2bdd&#45;&gt;dir_214608ef36d61442cb2b0c1c4e9a7def</title>
<path fill="none" stroke="black" d="M136.904,-71.6966C130.377,-63.3893 122.432,-53.2771 115.253,-44.1407"/>
<polygon fill="black" stroke="black" points="117.869,-41.8051 108.939,-36.1043 112.365,-46.1299 117.869,-41.8051"/>
<g id="a_edge5&#45;headlabel"><a xlink:href="dir_000064_000000.xhtml" target="_top" xlink:title="5">
<text text-anchor="middle" x="122.323" y="-40.3775" font-family="Helvetica,sans-Serif" font-size="10.00">5</text>
</a>
</g>
</g>
</g>
</svg>
