<?xml version="1.0" encoding="UTF-8" standalone="no"?>
<!DOCTYPE svg PUBLIC "-//W3C//DTD SVG 1.1//EN"
 "http://www.w3.org/Graphics/SVG/1.1/DTD/svg11.dtd">
<!-- Generated by graphviz version 2.38.0 (20140413.2041)
 -->
<!-- Title: tests/datasets/system_tests Pages: 1 -->
<svg width="685pt" height="231pt"
 viewBox="0.00 0.00 685.00 231.00" xmlns="http://www.w3.org/2000/svg" xmlns:xlink="http://www.w3.org/1999/xlink">
<g id="graph0" class="graph" transform="scale(1 1) rotate(0) translate(4 227)">
<title>tests/datasets/system_tests</title>
<polygon fill="white" stroke="none" points="-4,4 -4,-227 681,-227 681,4 -4,4"/>
<g id="clust1" class="cluster"><title>clusterdir_e13277e8d7d14f3f15e64267bfca6477</title>
<g id="a_clust1"><a xlink:href="dir_e13277e8d7d14f3f15e64267bfca6477.xhtml" target="_top" xlink:title="datasets">
<polygon fill="#ddddee" stroke="black" points="8,-128 8,-215 669,-215 669,-128 8,-128"/>
<text text-anchor="middle" x="338.5" y="-203" font-family="Helvetica,sans-Serif" font-size="10.00">datasets</text>
</a>
</g>
</g>
<g id="clust2" class="cluster"><title>clusterdir_c71057a74ea67172e112f0f837c986c4</title>
<g id="a_clust2"><a xlink:href="dir_c71057a74ea67172e112f0f837c986c4.xhtml" target="_top">
<polygon fill="#eeeeff" stroke="black" points="16,-136 16,-188 661,-188 661,-136 16,-136"/>
</a>
</g>
</g>
<!-- dir_c71057a74ea67172e112f0f837c986c4 -->
<g id="node1" class="node"><title>dir_c71057a74ea67172e112f0f837c986c4</title>
<text text-anchor="middle" x="612" y="-159.5" font-family="Helvetica,sans-Serif" font-size="10.00">system_tests</text>
</g>
<!-- dir_fe2ff4e257164425054f45a496f66ada -->
<g id="node2" class="node"><title>dir_fe2ff4e257164425054f45a496f66ada</title>
<g id="a_node2"><a xlink:href="dir_fe2ff4e257164425054f45a496f66ada.xhtml" target="_top" xlink:title="alexnet">
<polygon fill="white" stroke="black" points="162,-180 108,-180 108,-144 162,-144 162,-180"/>
<text text-anchor="middle" x="135" y="-159.5" font-family="Helvetica,sans-Serif" font-size="10.00">alexnet</text>
</a>
</g>
</g>
<!-- dir_cbdb8362360e11eafe2fa3bc74cf0ffd -->
<g id="node9" class="node"><title>dir_cbdb8362360e11eafe2fa3bc74cf0ffd</title>
<g id="a_node9"><a xlink:href="dir_cbdb8362360e11eafe2fa3bc74cf0ffd.xhtml" target="_top" xlink:title="utils">
<polygon fill="none" stroke="black" points="255,-108 201,-108 201,-72 255,-72 255,-108"/>
<text text-anchor="middle" x="228" y="-87.5" font-family="Helvetica,sans-Serif" font-size="10.00">utils</text>
</a>
</g>
</g>
<!-- dir_fe2ff4e257164425054f45a496f66ada&#45;&gt;dir_cbdb8362360e11eafe2fa3bc74cf0ffd -->
<g id="edge1" class="edge"><title>dir_fe2ff4e257164425054f45a496f66ada&#45;&gt;dir_cbdb8362360e11eafe2fa3bc74cf0ffd</title>
<path fill="none" stroke="black" d="M152.433,-143.942C158.171,-138.625 164.698,-132.879 171,-128 177.772,-122.757 185.287,-117.512 192.578,-112.688"/>
<polygon fill="black" stroke="black" points="194.49,-115.62 200.978,-107.244 190.683,-109.746 194.49,-115.62"/>
<g id="a_edge1&#45;headlabel"><a xlink:href="dir_000062_000021.xhtml" target="_top" xlink:title="5">
<text text-anchor="middle" x="193.018" y="-117.457" font-family="Helvetica,sans-Serif" font-size="10.00">5</text>
</a>
</g>
</g>
<!-- dir_9e71e2da941d3cafc4d98a9f6ae3de4f -->
<g id="node10" class="node"><title>dir_9e71e2da941d3cafc4d98a9f6ae3de4f</title>
<g id="a_node10"><a xlink:href="dir_9e71e2da941d3cafc4d98a9f6ae3de4f.xhtml" target="_top" xlink:title="framework">
<polygon fill="white" stroke="red" points="378.5,-108 311.5,-108 311.5,-72 378.5,-72 378.5,-108"/>
<text text-anchor="middle" x="345" y="-87.5" font-family="Helvetica,sans-Serif" font-size="10.00">framework</text>
</a>
</g>
</g>
<!-- dir_fe2ff4e257164425054f45a496f66ada&#45;&gt;dir_9e71e2da941d3cafc4d98a9f6ae3de4f -->
<g id="edge2" class="edge"><title>dir_fe2ff4e257164425054f45a496f66ada&#45;&gt;dir_9e71e2da941d3cafc4d98a9f6ae3de4f</title>
<path fill="none" stroke="black" d="M150.063,-143.842C156.036,-138.004 163.312,-131.961 171,-128 171.738,-127.62 250.059,-111.042 301.359,-100.208"/>
<polygon fill="black" stroke="black" points="302.166,-103.615 311.227,-98.1242 300.72,-96.7657 302.166,-103.615"/>
<g id="a_edge2&#45;headlabel"><a xlink:href="dir_000062_000020.xhtml" target="_top" xlink:title="2">
<text text-anchor="middle" x="299.236" y="-104.635" font-family="Helvetica,sans-Serif" font-size="10.00">2</text>
</a>
</g>
</g>
<!-- dir_214608ef36d61442cb2b0c1c4e9a7def -->
<g id="node11" class="node"><title>dir_214608ef36d61442cb2b0c1c4e9a7def</title>
<g id="a_node11"><a xlink:href="dir_214608ef36d61442cb2b0c1c4e9a7def.xhtml" target="_top" xlink:title="arm_compute">
<polygon fill="white" stroke="red" points="325,-36 241,-36 241,-0 325,-0 325,-36"/>
<text text-anchor="middle" x="283" y="-15.5" font-family="Helvetica,sans-Serif" font-size="10.00">arm_compute</text>
</a>
</g>
</g>
<!-- dir_fe2ff4e257164425054f45a496f66ada&#45;&gt;dir_214608ef36d61442cb2b0c1c4e9a7def -->
<g id="edge3" class="edge"><title>dir_fe2ff4e257164425054f45a496f66ada&#45;&gt;dir_214608ef36d61442cb2b0c1c4e9a7def</title>
<path fill="none" stroke="black" d="M140.601,-143.681C147.633,-124.202 161.339,-92.607 182,-72 195.9,-58.1361 214.182,-47.0616 231.367,-38.6952"/>
<polygon fill="black" stroke="black" points="233.174,-41.7148 240.766,-34.3252 230.223,-35.3673 233.174,-41.7148"/>
<g id="a_edge3&#45;headlabel"><a xlink:href="dir_000062_000000.xhtml" target="_top" xlink:title="10">
<text text-anchor="middle" x="231.111" y="-43.3048" font-family="Helvetica,sans-Serif" font-size="10.00">10</text>
</a>
</g>
</g>
<!-- dir_26ec2cadac51de8a063270ae9ef845a8 -->
<g id="node3" class="node"><title>dir_26ec2cadac51de8a063270ae9ef845a8</title>
<g id="a_node3"><a xlink:href="dir_26ec2cadac51de8a063270ae9ef845a8.xhtml" target="_top" xlink:title="googlenet">
<polygon fill="white" stroke="red" points="89.5,-180 24.5,-180 24.5,-144 89.5,-144 89.5,-180"/>
<text text-anchor="middle" x="57" y="-159.5" font-family="Helvetica,sans-Serif" font-size="10.00">googlenet</text>
</a>
</g>
</g>
<!-- dir_26ec2cadac51de8a063270ae9ef845a8&#45;&gt;dir_cbdb8362360e11eafe2fa3bc74cf0ffd -->
<g id="edge14" class="edge"><title>dir_26ec2cadac51de8a063270ae9ef845a8&#45;&gt;dir_cbdb8362360e11eafe2fa3bc74cf0ffd</title>
<path fill="none" stroke="black" d="M75.5828,-143.875C82.5287,-138.18 90.7435,-132.222 99,-128 128.21,-113.065 164.314,-103.366 190.892,-97.6607"/>
<polygon fill="black" stroke="black" points="191.843,-101.038 200.933,-95.5971 190.434,-94.1817 191.843,-101.038"/>
<g id="a_edge14&#45;headlabel"><a xlink:href="dir_000063_000021.xhtml" target="_top" xlink:title="12">
<text text-anchor="middle" x="188.893" y="-102.043" font-family="Helvetica,sans-Serif" font-size="10.00">12</text>
</a>
</g>
</g>
<!-- dir_26ec2cadac51de8a063270ae9ef845a8&#45;&gt;dir_9e71e2da941d3cafc4d98a9f6ae3de4f -->
<g id="edge15" class="edge"><title>dir_26ec2cadac51de8a063270ae9ef845a8&#45;&gt;dir_9e71e2da941d3cafc4d98a9f6ae3de4f</title>
<path fill="none" stroke="black" d="M74.416,-143.823C81.4904,-137.835 90.0922,-131.696 99,-128 167.23,-99.6904 191.118,-120.042 264,-108 276.183,-105.987 289.314,-103.41 301.385,-100.874"/>
<polygon fill="black" stroke="black" points="302.184,-104.282 311.23,-98.767 300.719,-97.4373 302.184,-104.282"/>
<g id="a_edge15&#45;headlabel"><a xlink:href="dir_000063_000020.xhtml" target="_top" xlink:title="3">
<text text-anchor="middle" x="299.263" y="-105.311" font-family="Helvetica,sans-Serif" font-size="10.00">3</text>
</a>
</g>
</g>
<!-- dir_26ec2cadac51de8a063270ae9ef845a8&#45;&gt;dir_214608ef36d61442cb2b0c1c4e9a7def -->
<g id="edge16" class="edge"><title>dir_26ec2cadac51de8a063270ae9ef845a8&#45;&gt;dir_214608ef36d61442cb2b0c1c4e9a7def</title>
<path fill="none" stroke="black" d="M71.8179,-143.954C89.519,-124.436 120.8,-92.5187 153,-72 177.134,-56.6211 206.476,-44.2002 231.173,-35.259"/>
<polygon fill="black" stroke="black" points="232.474,-38.5116 240.739,-31.8836 230.144,-31.9105 232.474,-38.5116"/>
<g id="a_edge16&#45;headlabel"><a xlink:href="dir_000063_000000.xhtml" target="_top" xlink:title="23">
<text text-anchor="middle" x="230.029" y="-39.8851" font-family="Helvetica,sans-Serif" font-size="10.00">23</text>
</a>
</g>
</g>
<!-- dir_e2f0bd46921046b7364e3f9b2dbe7021 -->
<g id="node4" class="node"><title>dir_e2f0bd46921046b7364e3f9b2dbe7021</title>
<g id="a_node4"><a xlink:href="dir_e2f0bd46921046b7364e3f9b2dbe7021.xhtml" target="_top" xlink:title="lenet5">
<polygon fill="white" stroke="black" points="553,-180 499,-180 499,-144 553,-144 553,-180"/>
<text text-anchor="middle" x="526" y="-159.5" font-family="Helvetica,sans-Serif" font-size="10.00">lenet5</text>
</a>
</g>
</g>
<!-- dir_e2f0bd46921046b7364e3f9b2dbe7021&#45;&gt;dir_cbdb8362360e11eafe2fa3bc74cf0ffd -->
<g id="edge4" class="edge"><title>dir_e2f0bd46921046b7364e3f9b2dbe7021&#45;&gt;dir_cbdb8362360e11eafe2fa3bc74cf0ffd</title>
<path fill="none" stroke="black" d="M511.497,-143.75C505.485,-137.754 498.037,-131.627 490,-128 413.412,-93.4331 384.873,-121.876 302,-108 289.934,-105.98 276.89,-103.19 265.163,-100.454"/>
<polygon fill="black" stroke="black" points="265.795,-97.0062 255.255,-98.0841 264.167,-103.814 265.795,-97.0062"/>
<g id="a_edge4&#45;headlabel"><a xlink:href="dir_000066_000021.xhtml" target="_top" xlink:title="4">
<text text-anchor="middle" x="269.951" y="-92.5809" font-family="Helvetica,sans-Serif" font-size="10.00">4</text>
</a>
</g>
</g>
<!-- dir_e2f0bd46921046b7364e3f9b2dbe7021&#45;&gt;dir_9e71e2da941d3cafc4d98a9f6ae3de4f -->
<g id="edge5" class="edge"><title>dir_e2f0bd46921046b7364e3f9b2dbe7021&#45;&gt;dir_9e71e2da941d3cafc4d98a9f6ae3de4f</title>
<path fill="none" stroke="black" d="M510.495,-143.667C504.582,-137.952 497.457,-132.034 490,-128 458.419,-110.915 418.676,-101.494 388.789,-96.4404"/>
<polygon fill="black" stroke="black" points="389.083,-92.9434 378.657,-94.8298 387.984,-99.8565 389.083,-92.9434"/>
<g id="a_edge5&#45;headlabel"><a xlink:href="dir_000066_000020.xhtml" target="_top" xlink:title="1">
<text text-anchor="middle" x="393.079" y="-88.2036" font-family="Helvetica,sans-Serif" font-size="10.00">1</text>
</a>
</g>
</g>
<!-- dir_e2f0bd46921046b7364e3f9b2dbe7021&#45;&gt;dir_214608ef36d61442cb2b0c1c4e9a7def -->
<g id="edge6" class="edge"><title>dir_e2f0bd46921046b7364e3f9b2dbe7021&#45;&gt;dir_214608ef36d61442cb2b0c1c4e9a7def</title>
<path fill="none" stroke="black" d="M511.527,-143.696C494.189,-123.936 463.402,-91.7918 431,-72 401.286,-53.8498 364.431,-40.6272 334.933,-31.9285"/>
<polygon fill="black" stroke="black" points="335.809,-28.5388 325.232,-29.1514 333.883,-35.2685 335.809,-28.5388"/>
<g id="a_edge6&#45;headlabel"><a xlink:href="dir_000066_000000.xhtml" target="_top" xlink:title="8">
<text text-anchor="middle" x="340.047" y="-24.2985" font-family="Helvetica,sans-Serif" font-size="10.00">8</text>
</a>
</g>
</g>
<!-- dir_4af3caddad59cb13b380801fa35f34f1 -->
<g id="node5" class="node"><title>dir_4af3caddad59cb13b380801fa35f34f1</title>
<g id="a_node5"><a xlink:href="dir_4af3caddad59cb13b380801fa35f34f1.xhtml" target="_top" xlink:title="mobilenet">
<polygon fill="white" stroke="black" points="480.5,-180 415.5,-180 415.5,-144 480.5,-144 480.5,-180"/>
<text text-anchor="middle" x="448" y="-159.5" font-family="Helvetica,sans-Serif" font-size="10.00">mobilenet</text>
</a>
</g>
</g>
<!-- dir_4af3caddad59cb13b380801fa35f34f1&#45;&gt;dir_cbdb8362360e11eafe2fa3bc74cf0ffd -->
<g id="edge10" class="edge"><title>dir_4af3caddad59cb13b380801fa35f34f1&#45;&gt;dir_cbdb8362360e11eafe2fa3bc74cf0ffd</title>
<path fill="none" stroke="black" d="M430.032,-143.804C423.021,-137.962 414.606,-131.926 406,-128 363.176,-108.465 348.056,-117.715 302,-108 289.929,-105.454 276.794,-102.497 264.987,-99.7707"/>
<polygon fill="black" stroke="black" points="265.545,-96.3072 255.012,-97.45 263.959,-103.125 265.545,-96.3072"/>
<g id="a_edge10&#45;headlabel"><a xlink:href="dir_000067_000021.xhtml" target="_top" xlink:title="2">
<text text-anchor="middle" x="269.689" y="-91.8562" font-family="Helvetica,sans-Serif" font-size="10.00">2</text>
</a>
</g>
</g>
<!-- dir_4af3caddad59cb13b380801fa35f34f1&#45;&gt;dir_9e71e2da941d3cafc4d98a9f6ae3de4f -->
<g id="edge11" class="edge"><title>dir_4af3caddad59cb13b380801fa35f34f1&#45;&gt;dir_9e71e2da941d3cafc4d98a9f6ae3de4f</title>
<path fill="none" stroke="black" d="M427.01,-143.702C420.411,-138.484 413.014,-132.856 406,-128 398.9,-123.084 391.143,-118.102 383.614,-113.453"/>
<polygon fill="black" stroke="black" points="385.295,-110.379 374.932,-108.174 381.658,-116.361 385.295,-110.379"/>
<g id="a_edge11&#45;headlabel"><a xlink:href="dir_000067_000020.xhtml" target="_top" xlink:title="1">
<text text-anchor="middle" x="389.841" y="-107.321" font-family="Helvetica,sans-Serif" font-size="10.00">1</text>
</a>
</g>
</g>
<!-- dir_4af3caddad59cb13b380801fa35f34f1&#45;&gt;dir_214608ef36d61442cb2b0c1c4e9a7def -->
<g id="edge12" class="edge"><title>dir_4af3caddad59cb13b380801fa35f34f1&#45;&gt;dir_214608ef36d61442cb2b0c1c4e9a7def</title>
<path fill="none" stroke="black" d="M443.401,-143.769C437.349,-124.077 424.944,-91.9965 404,-72 384.841,-53.7084 358.34,-41.1336 335.022,-32.8405"/>
<polygon fill="black" stroke="black" points="335.848,-29.4254 325.254,-29.5443 333.61,-36.058 335.848,-29.4254"/>
<g id="a_edge12&#45;headlabel"><a xlink:href="dir_000067_000000.xhtml" target="_top" xlink:title="6">
<text text-anchor="middle" x="340.161" y="-25.3845" font-family="Helvetica,sans-Serif" font-size="10.00">6</text>
</a>
</g>
</g>
<!-- dir_bb99969360c329c14e8ab37848981e8a -->
<g id="node6" class="node"><title>dir_bb99969360c329c14e8ab37848981e8a</title>
<g id="a_node6"><a xlink:href="dir_bb99969360c329c14e8ab37848981e8a.xhtml" target="_top" xlink:title="squeezenet">
<polygon fill="white" stroke="black" points="397.5,-180 324.5,-180 324.5,-144 397.5,-144 397.5,-180"/>
<text text-anchor="middle" x="361" y="-159.5" font-family="Helvetica,sans-Serif" font-size="10.00">squeezenet</text>
</a>
</g>
</g>
<!-- dir_bb99969360c329c14e8ab37848981e8a&#45;&gt;dir_cbdb8362360e11eafe2fa3bc74cf0ffd -->
<g id="edge7" class="edge"><title>dir_bb99969360c329c14e8ab37848981e8a&#45;&gt;dir_cbdb8362360e11eafe2fa3bc74cf0ffd</title>
<path fill="none" stroke="black" d="M339.193,-143.861C331.749,-138.421 323.225,-132.624 315,-128 299.124,-119.073 280.664,-110.933 264.844,-104.575"/>
<polygon fill="black" stroke="black" points="265.969,-101.257 255.382,-100.856 263.408,-107.772 265.969,-101.257"/>
<g id="a_edge7&#45;headlabel"><a xlink:href="dir_000068_000021.xhtml" target="_top" xlink:title="3">
<text text-anchor="middle" x="270.353" y="-97.4294" font-family="Helvetica,sans-Serif" font-size="10.00">3</text>
</a>
</g>
</g>
<!-- dir_bb99969360c329c14e8ab37848981e8a&#45;&gt;dir_9e71e2da941d3cafc4d98a9f6ae3de4f -->
<g id="edge8" class="edge"><title>dir_bb99969360c329c14e8ab37848981e8a&#45;&gt;dir_9e71e2da941d3cafc4d98a9f6ae3de4f</title>
<path fill="none" stroke="black" d="M357.045,-143.697C355.282,-135.983 353.163,-126.712 351.197,-118.112"/>
<polygon fill="black" stroke="black" points="354.55,-117.073 348.91,-108.104 347.726,-118.633 354.55,-117.073"/>
<g id="a_edge8&#45;headlabel"><a xlink:href="dir_000068_000020.xhtml" target="_top" xlink:title="1">
<text text-anchor="middle" x="358.119" y="-117.445" font-family="Helvetica,sans-Serif" font-size="10.00">1</text>
</a>
</g>
</g>
<!-- dir_bb99969360c329c14e8ab37848981e8a&#45;&gt;dir_214608ef36d61442cb2b0c1c4e9a7def -->
<g id="edge9" class="edge"><title>dir_bb99969360c329c14e8ab37848981e8a&#45;&gt;dir_214608ef36d61442cb2b0c1c4e9a7def</title>
<path fill="none" stroke="black" d="M373.781,-143.842C386.065,-125.073 400.877,-94.647 387,-72 375.346,-52.9812 354.488,-40.5192 334.495,-32.4916"/>
<polygon fill="black" stroke="black" points="335.694,-29.2033 325.101,-29.0028 333.257,-35.7654 335.694,-29.2033"/>
<g id="a_edge9&#45;headlabel"><a xlink:href="dir_000068_000000.xhtml" target="_top" xlink:title="6">
<text text-anchor="middle" x="340.052" y="-25.2931" font-family="Helvetica,sans-Serif" font-size="10.00">6</text>
</a>
</g>
</g>
<!-- dir_c99b4a303cfde599116bfef66dcbe457 -->
<g id="node7" class="node"><title>dir_c99b4a303cfde599116bfef66dcbe457</title>
<g id="a_node7"><a xlink:href="dir_c99b4a303cfde599116bfef66dcbe457.xhtml" target="_top" xlink:title="vgg">
<polygon fill="white" stroke="red" points="306,-180 252,-180 252,-144 306,-144 306,-180"/>
<text text-anchor="middle" x="279" y="-159.5" font-family="Helvetica,sans-Serif" font-size="10.00">vgg</text>
</a>
</g>
</g>
<!-- dir_c99b4a303cfde599116bfef66dcbe457&#45;&gt;dir_cbdb8362360e11eafe2fa3bc74cf0ffd -->
<g id="edge18" class="edge"><title>dir_c99b4a303cfde599116bfef66dcbe457&#45;&gt;dir_cbdb8362360e11eafe2fa3bc74cf0ffd</title>
<path fill="none" stroke="black" d="M266.393,-143.697C260.403,-135.474 253.124,-125.483 246.521,-116.421"/>
<polygon fill="black" stroke="black" points="249.179,-114.126 240.462,-108.104 243.522,-118.248 249.179,-114.126"/>
<g id="a_edge18&#45;headlabel"><a xlink:href="dir_000069_000021.xhtml" target="_top" xlink:title="4">
<text text-anchor="middle" x="253.591" y="-112.859" font-family="Helvetica,sans-Serif" font-size="10.00">4</text>
</a>
</g>
</g>
<!-- dir_c99b4a303cfde599116bfef66dcbe457&#45;&gt;dir_9e71e2da941d3cafc4d98a9f6ae3de4f -->
<g id="edge19" class="edge"><title>dir_c99b4a303cfde599116bfef66dcbe457&#45;&gt;dir_9e71e2da941d3cafc4d98a9f6ae3de4f</title>
<path fill="none" stroke="black" d="M295.315,-143.697C303.307,-135.22 313.072,-124.864 321.822,-115.583"/>
<polygon fill="black" stroke="black" points="324.559,-117.781 328.873,-108.104 319.466,-112.979 324.559,-117.781"/>
<g id="a_edge19&#45;headlabel"><a xlink:href="dir_000069_000020.xhtml" target="_top" xlink:title="1">
<text text-anchor="middle" x="324.159" y="-119.844" font-family="Helvetica,sans-Serif" font-size="10.00">1</text>
</a>
</g>
</g>
<!-- dir_c99b4a303cfde599116bfef66dcbe457&#45;&gt;dir_214608ef36d61442cb2b0c1c4e9a7def -->
<g id="edge20" class="edge"><title>dir_c99b4a303cfde599116bfef66dcbe457&#45;&gt;dir_214608ef36d61442cb2b0c1c4e9a7def</title>
<path fill="none" stroke="black" d="M279.482,-143.871C280.164,-119.67 281.417,-75.2108 282.228,-46.3932"/>
<polygon fill="black" stroke="black" points="285.733,-46.2839 282.516,-36.1893 278.736,-46.0867 285.733,-46.2839"/>
<g id="a_edge20&#45;headlabel"><a xlink:href="dir_000069_000000.xhtml" target="_top" xlink:title="8">
<text text-anchor="middle" x="288.47" y="-47.457" font-family="Helvetica,sans-Serif" font-size="10.00">8</text>
</a>
</g>
</g>
<!-- dir_498593990fa400f1303714a684225f06 -->
<g id="node8" class="node"><title>dir_498593990fa400f1303714a684225f06</title>
<g id="a_node8"><a xlink:href="dir_498593990fa400f1303714a684225f06.xhtml" target="_top" xlink:title="yolo">
<polygon fill="white" stroke="red" points="234,-180 180,-180 180,-144 234,-144 234,-180"/>
<text text-anchor="middle" x="207" y="-159.5" font-family="Helvetica,sans-Serif" font-size="10.00">yolo</text>
</a>
</g>
</g>
<!-- dir_498593990fa400f1303714a684225f06&#45;&gt;dir_cbdb8362360e11eafe2fa3bc74cf0ffd -->
<g id="edge21" class="edge"><title>dir_498593990fa400f1303714a684225f06&#45;&gt;dir_cbdb8362360e11eafe2fa3bc74cf0ffd</title>
<path fill="none" stroke="black" d="M212.191,-143.697C214.531,-135.898 217.347,-126.509 219.951,-117.829"/>
<polygon fill="black" stroke="black" points="223.348,-118.688 222.869,-108.104 216.643,-116.677 223.348,-118.688"/>
<g id="a_edge21&#45;headlabel"><a xlink:href="dir_000071_000021.xhtml" target="_top" xlink:title="4">
<text text-anchor="middle" x="225.034" y="-120.447" font-family="Helvetica,sans-Serif" font-size="10.00">4</text>
</a>
</g>
</g>
<!-- dir_498593990fa400f1303714a684225f06&#45;&gt;dir_9e71e2da941d3cafc4d98a9f6ae3de4f -->
<g id="edge22" class="edge"><title>dir_498593990fa400f1303714a684225f06&#45;&gt;dir_9e71e2da941d3cafc4d98a9f6ae3de4f</title>
<path fill="none" stroke="black" d="M223.092,-143.728C228.954,-138.153 235.895,-132.307 243,-128 261.024,-117.074 282.778,-108.63 301.558,-102.587"/>
<polygon fill="black" stroke="black" points="302.835,-105.856 311.356,-99.5604 300.769,-99.1675 302.835,-105.856"/>
<g id="a_edge22&#45;headlabel"><a xlink:href="dir_000071_000020.xhtml" target="_top" xlink:title="1">
<text text-anchor="middle" x="300.238" y="-107.129" font-family="Helvetica,sans-Serif" font-size="10.00">1</text>
</a>
</g>
</g>
<!-- dir_498593990fa400f1303714a684225f06&#45;&gt;dir_214608ef36d61442cb2b0c1c4e9a7def -->
<g id="edge23" class="edge"><title>dir_498593990fa400f1303714a684225f06&#45;&gt;dir_214608ef36d61442cb2b0c1c4e9a7def</title>
<path fill="none" stroke="black" d="M197.777,-143.754C189.071,-124.908 179.115,-94.415 192,-72 200.835,-56.6298 216.034,-45.2992 231.507,-37.1533"/>
<polygon fill="black" stroke="black" points="233.148,-40.247 240.603,-32.7187 230.081,-33.9549 233.148,-40.247"/>
<g id="a_edge23&#45;headlabel"><a xlink:href="dir_000071_000000.xhtml" target="_top" xlink:title="8">
<text text-anchor="middle" x="231.161" y="-41.8743" font-family="Helvetica,sans-Serif" font-size="10.00">8</text>
</a>
</g>
</g>
<!-- dir_cbdb8362360e11eafe2fa3bc74cf0ffd&#45;&gt;dir_214608ef36d61442cb2b0c1c4e9a7def -->
<g id="edge13" class="edge"><title>dir_cbdb8362360e11eafe2fa3bc74cf0ffd&#45;&gt;dir_214608ef36d61442cb2b0c1c4e9a7def</title>
<path fill="none" stroke="black" d="M241.596,-71.6966C248.123,-63.3893 256.068,-53.2771 263.247,-44.1407"/>
<polygon fill="black" stroke="black" points="266.135,-46.1299 269.561,-36.1043 260.631,-41.8051 266.135,-46.1299"/>
<g id="a_edge13&#45;headlabel"><a xlink:href="dir_000021_000000.xhtml" target="_top" xlink:title="18">
<text text-anchor="middle" x="266.147" y="-48.2106" font-family="Helvetica,sans-Serif" font-size="10.00">18</text>
</a>
</g>
</g>
<!-- dir_9e71e2da941d3cafc4d98a9f6ae3de4f&#45;&gt;dir_214608ef36d61442cb2b0c1c4e9a7def -->
<g id="edge17" class="edge"><title>dir_9e71e2da941d3cafc4d98a9f6ae3de4f&#45;&gt;dir_214608ef36d61442cb2b0c1c4e9a7def</title>
<path fill="none" stroke="black" d="M329.674,-71.6966C322.241,-63.3046 313.177,-53.0705 305.02,-43.8613"/>
<polygon fill="black" stroke="black" points="307.4,-41.2696 298.15,-36.1043 302.16,-45.9109 307.4,-41.2696"/>
<g id="a_edge17&#45;headlabel"><a xlink:href="dir_000020_000000.xhtml" target="_top" xlink:title="4">
<text text-anchor="middle" x="311.909" y="-39.5779" font-family="Helvetica,sans-Serif" font-size="10.00">4</text>
</a>
</g>
</g>
</g>
</svg>
