<?xml version="1.0" encoding="UTF-8" standalone="no"?>
<!DOCTYPE svg PUBLIC "-//W3C//DTD SVG 1.1//EN"
 "http://www.w3.org/Graphics/SVG/1.1/DTD/svg11.dtd">
<!-- Generated by graphviz version 2.38.0 (20140413.2041)
 -->
<!-- Title: arm_compute Pages: 1 -->
<svg width="178pt" height="348pt"
 viewBox="0.00 0.00 178.00 348.00" xmlns="http://www.w3.org/2000/svg" xmlns:xlink="http://www.w3.org/1999/xlink">
<g id="graph0" class="graph" transform="scale(1 1) rotate(0) translate(4 344)">
<title>arm_compute</title>
<polygon fill="white" stroke="none" points="-4,4 -4,-344 174,-344 174,4 -4,4"/>
<g id="clust1" class="cluster"><title>clusterdir_214608ef36d61442cb2b0c1c4e9a7def</title>
<g id="a_clust1"><a xlink:href="dir_214608ef36d61442cb2b0c1c4e9a7def.xhtml" target="_top">
<polygon fill="#eeeeff" stroke="black" points="8,-64 8,-332 108,-332 108,-64 8,-64"/>
</a>
</g>
</g>
<!-- dir_214608ef36d61442cb2b0c1c4e9a7def -->
<g id="node1" class="node"><title>dir_214608ef36d61442cb2b0c1c4e9a7def</title>
<text text-anchor="middle" x="58" y="-303.5" font-family="Helvetica,sans-Serif" font-size="10.00">arm_compute</text>
</g>
<!-- dir_99ae3712d1eecd2a93fc4d38b59a99ba -->
<g id="node3" class="node"><title>dir_99ae3712d1eecd2a93fc4d38b59a99ba</title>
<g id="a_node3"><a xlink:href="dir_99ae3712d1eecd2a93fc4d38b59a99ba.xhtml" target="_top" xlink:title="graph">
<polygon fill="white" stroke="red" points="85,-252 31,-252 31,-216 85,-216 85,-252"/>
<text text-anchor="middle" x="58" y="-231.5" font-family="Helvetica,sans-Serif" font-size="10.00">graph</text>
</a>
</g>
</g>
<!-- dir_214608ef36d61442cb2b0c1c4e9a7def&#45;&gt;dir_99ae3712d1eecd2a93fc4d38b59a99ba -->
<g id="edge13" class="edge"><title>dir_214608ef36d61442cb2b0c1c4e9a7def&#45;&gt;dir_99ae3712d1eecd2a93fc4d38b59a99ba</title>
<path fill="none" stroke="black" d="M58,-287.697C58,-279.983 58,-270.712 58,-262.112"/>
<polygon fill="black" stroke="black" points="61.5001,-262.104 58,-252.104 54.5001,-262.104 61.5001,-262.104"/>
<g id="a_edge13&#45;headlabel"><a xlink:href="dir_000000_000029.xhtml" target="_top" xlink:title="25">
<text text-anchor="middle" x="64.3393" y="-263.199" font-family="Helvetica,sans-Serif" font-size="10.00">25</text>
</a>
</g>
</g>
<!-- dir_1fb090f0c6070330bfaccc4236d3ca0d -->
<g id="node2" class="node"><title>dir_1fb090f0c6070330bfaccc4236d3ca0d</title>
<g id="a_node2"><a xlink:href="dir_1fb090f0c6070330bfaccc4236d3ca0d.xhtml" target="_top" xlink:title="core">
<polygon fill="white" stroke="red" points="100,-180 46,-180 46,-144 100,-144 100,-180"/>
<text text-anchor="middle" x="73" y="-159.5" font-family="Helvetica,sans-Serif" font-size="10.00">core</text>
</a>
</g>
</g>
<!-- dir_8bc26130589aa16388b5a02f17abf2c2 -->
<g id="node4" class="node"><title>dir_8bc26130589aa16388b5a02f17abf2c2</title>
<g id="a_node4"><a xlink:href="dir_8bc26130589aa16388b5a02f17abf2c2.xhtml" target="_top" xlink:title="runtime">
<polygon fill="white" stroke="red" points="100,-108 46,-108 46,-72 100,-72 100,-108"/>
<text text-anchor="middle" x="73" y="-87.5" font-family="Helvetica,sans-Serif" font-size="10.00">runtime</text>
</a>
</g>
</g>
<!-- dir_1fb090f0c6070330bfaccc4236d3ca0d&#45;&gt;dir_8bc26130589aa16388b5a02f17abf2c2 -->
<g id="edge11" class="edge"><title>dir_1fb090f0c6070330bfaccc4236d3ca0d&#45;&gt;dir_8bc26130589aa16388b5a02f17abf2c2</title>
<path fill="none" stroke="black" d="M67.0843,-143.697C66.2886,-135.983 66.0621,-126.712 66.4047,-118.112"/>
<polygon fill="black" stroke="black" points="69.8984,-118.324 67.105,-108.104 62.9154,-117.836 69.8984,-118.324"/>
<g id="a_edge11&#45;headlabel"><a xlink:href="dir_000001_000003.xhtml" target="_top" xlink:title="1">
<text text-anchor="middle" x="72.4799" y="-119.608" font-family="Helvetica,sans-Serif" font-size="10.00">1</text>
</a>
</g>
</g>
<!-- dir_5815af820a9cc9481f1d0990a0d60286 -->
<g id="node6" class="node"><title>dir_5815af820a9cc9481f1d0990a0d60286</title>
<g id="a_node6"><a xlink:href="dir_5815af820a9cc9481f1d0990a0d60286.xhtml" target="_top" xlink:title="support">
<polygon fill="none" stroke="black" points="72,-36 18,-36 18,-0 72,-0 72,-36"/>
<text text-anchor="middle" x="45" y="-15.5" font-family="Helvetica,sans-Serif" font-size="10.00">support</text>
</a>
</g>
</g>
<!-- dir_1fb090f0c6070330bfaccc4236d3ca0d&#45;&gt;dir_5815af820a9cc9481f1d0990a0d60286 -->
<g id="edge12" class="edge"><title>dir_1fb090f0c6070330bfaccc4236d3ca0d&#45;&gt;dir_5815af820a9cc9481f1d0990a0d60286</title>
<path fill="none" stroke="black" d="M57.3901,-143.774C49.6271,-134.03 41.0541,-121.184 37,-108 30.7868,-87.7951 33.4541,-63.8851 37.3085,-45.9382"/>
<polygon fill="black" stroke="black" points="40.7313,-46.6736 39.657,-36.1334 33.9239,-45.043 40.7313,-46.6736"/>
<g id="a_edge12&#45;headlabel"><a xlink:href="dir_000001_000150.xhtml" target="_top" xlink:title="14">
<text text-anchor="middle" x="42.6552" y="-48.3307" font-family="Helvetica,sans-Serif" font-size="10.00">14</text>
</a>
</g>
</g>
<!-- dir_99ae3712d1eecd2a93fc4d38b59a99ba&#45;&gt;dir_1fb090f0c6070330bfaccc4236d3ca0d -->
<g id="edge3" class="edge"><title>dir_99ae3712d1eecd2a93fc4d38b59a99ba&#45;&gt;dir_1fb090f0c6070330bfaccc4236d3ca0d</title>
<path fill="none" stroke="black" d="M61.7079,-215.697C63.3608,-207.983 65.3473,-198.712 67.1902,-190.112"/>
<polygon fill="black" stroke="black" points="70.6617,-190.616 69.3348,-180.104 63.8171,-189.149 70.6617,-190.616"/>
<g id="a_edge3&#45;headlabel"><a xlink:href="dir_000029_000001.xhtml" target="_top" xlink:title="24">
<text text-anchor="middle" x="72.6849" y="-192.225" font-family="Helvetica,sans-Serif" font-size="10.00">24</text>
</a>
</g>
</g>
<!-- dir_99ae3712d1eecd2a93fc4d38b59a99ba&#45;&gt;dir_8bc26130589aa16388b5a02f17abf2c2 -->
<g id="edge2" class="edge"><title>dir_99ae3712d1eecd2a93fc4d38b59a99ba&#45;&gt;dir_8bc26130589aa16388b5a02f17abf2c2</title>
<path fill="none" stroke="black" d="M48.5276,-215.757C39.8581,-197.693 29.4407,-168.583 37,-144 40.0089,-134.215 45.507,-124.616 51.3157,-116.334"/>
<polygon fill="black" stroke="black" points="54.1948,-118.328 57.3901,-108.226 48.5928,-114.131 54.1948,-118.328"/>
<g id="a_edge2&#45;headlabel"><a xlink:href="dir_000029_000003.xhtml" target="_top" xlink:title="21">
<text text-anchor="middle" x="54.3117" y="-120.407" font-family="Helvetica,sans-Serif" font-size="10.00">21</text>
</a>
</g>
</g>
<!-- dir_cbdb8362360e11eafe2fa3bc74cf0ffd -->
<g id="node5" class="node"><title>dir_cbdb8362360e11eafe2fa3bc74cf0ffd</title>
<g id="a_node5"><a xlink:href="dir_cbdb8362360e11eafe2fa3bc74cf0ffd.xhtml" target="_top" xlink:title="utils">
<polygon fill="white" stroke="red" points="170,-252 116,-252 116,-216 170,-216 170,-252"/>
<text text-anchor="middle" x="143" y="-231.5" font-family="Helvetica,sans-Serif" font-size="10.00">utils</text>
</a>
</g>
</g>
<!-- dir_99ae3712d1eecd2a93fc4d38b59a99ba&#45;&gt;dir_cbdb8362360e11eafe2fa3bc74cf0ffd -->
<g id="edge1" class="edge"><title>dir_99ae3712d1eecd2a93fc4d38b59a99ba&#45;&gt;dir_cbdb8362360e11eafe2fa3bc74cf0ffd</title>
<path fill="none" stroke="black" d="M85.2266,-234C92.1003,-234 98.9741,-234 105.848,-234"/>
<polygon fill="black" stroke="black" points="105.919,-237.5 115.919,-234 105.919,-230.5 105.919,-237.5"/>
<g id="a_edge1&#45;headlabel"><a xlink:href="dir_000029_000034.xhtml" target="_top" xlink:title="1">
<text text-anchor="middle" x="102.324" y="-237.839" font-family="Helvetica,sans-Serif" font-size="10.00">1</text>
</a>
</g>
</g>
<!-- dir_99ae3712d1eecd2a93fc4d38b59a99ba&#45;&gt;dir_5815af820a9cc9481f1d0990a0d60286 -->
<g id="edge4" class="edge"><title>dir_99ae3712d1eecd2a93fc4d38b59a99ba&#45;&gt;dir_5815af820a9cc9481f1d0990a0d60286</title>
<path fill="none" stroke="black" d="M46.601,-215.65C40.7143,-205.667 34.1248,-192.631 31,-180 18.6181,-129.951 21.7414,-114.892 30,-64 30.9803,-57.9593 32.6554,-51.6338 34.5394,-45.6977"/>
<polygon fill="black" stroke="black" points="37.8651,-46.7894 37.8213,-36.1946 31.2486,-44.5043 37.8651,-46.7894"/>
<g id="a_edge4&#45;headlabel"><a xlink:href="dir_000029_000150.xhtml" target="_top" xlink:title="3">
<text text-anchor="middle" x="39.3755" y="-48.6139" font-family="Helvetica,sans-Serif" font-size="10.00">3</text>
</a>
</g>
</g>
<!-- dir_8bc26130589aa16388b5a02f17abf2c2&#45;&gt;dir_1fb090f0c6070330bfaccc4236d3ca0d -->
<g id="edge9" class="edge"><title>dir_8bc26130589aa16388b5a02f17abf2c2&#45;&gt;dir_1fb090f0c6070330bfaccc4236d3ca0d</title>
<path fill="none" stroke="black" d="M78.895,-108.104C79.7005,-115.791 79.9369,-125.054 79.604,-133.665"/>
<polygon fill="black" stroke="black" points="76.1085,-133.48 78.9157,-143.697 83.0921,-133.96 76.1085,-133.48"/>
<g id="a_edge9&#45;headlabel"><a xlink:href="dir_000003_000001.xhtml" target="_top" xlink:title="582">
<text text-anchor="middle" x="73.5219" y="-127.2" font-family="Helvetica,sans-Serif" font-size="10.00">582</text>
</a>
</g>
</g>
<!-- dir_8bc26130589aa16388b5a02f17abf2c2&#45;&gt;dir_5815af820a9cc9481f1d0990a0d60286 -->
<g id="edge10" class="edge"><title>dir_8bc26130589aa16388b5a02f17abf2c2&#45;&gt;dir_5815af820a9cc9481f1d0990a0d60286</title>
<path fill="none" stroke="black" d="M66.0786,-71.6966C62.9253,-63.8132 59.1217,-54.3042 55.6186,-45.5464"/>
<polygon fill="black" stroke="black" points="58.8054,-44.0892 51.8417,-36.1043 52.306,-46.689 58.8054,-44.0892"/>
<g id="a_edge10&#45;headlabel"><a xlink:href="dir_000003_000150.xhtml" target="_top" xlink:title="5">
<text text-anchor="middle" x="62.7765" y="-43.8723" font-family="Helvetica,sans-Serif" font-size="10.00">5</text>
</a>
</g>
</g>
<!-- dir_cbdb8362360e11eafe2fa3bc74cf0ffd&#45;&gt;dir_1fb090f0c6070330bfaccc4236d3ca0d -->
<g id="edge7" class="edge"><title>dir_cbdb8362360e11eafe2fa3bc74cf0ffd&#45;&gt;dir_1fb090f0c6070330bfaccc4236d3ca0d</title>
<path fill="none" stroke="black" d="M125.697,-215.697C117.135,-207.135 106.656,-196.656 97.3045,-187.304"/>
<polygon fill="black" stroke="black" points="99.6503,-184.701 90.1043,-180.104 94.7005,-189.65 99.6503,-184.701"/>
<g id="a_edge7&#45;headlabel"><a xlink:href="dir_000034_000001.xhtml" target="_top" xlink:title="24">
<text text-anchor="middle" x="104.2" y="-182.735" font-family="Helvetica,sans-Serif" font-size="10.00">24</text>
</a>
</g>
</g>
<!-- dir_cbdb8362360e11eafe2fa3bc74cf0ffd&#45;&gt;dir_99ae3712d1eecd2a93fc4d38b59a99ba -->
<g id="edge5" class="edge"><title>dir_cbdb8362360e11eafe2fa3bc74cf0ffd&#45;&gt;dir_99ae3712d1eecd2a93fc4d38b59a99ba</title>
<path fill="none" stroke="black" d="M115.919,-234C109.045,-234 102.171,-234 95.2974,-234"/>
<polygon fill="black" stroke="black" points="95.2266,-230.5 85.2266,-234 95.2265,-237.5 95.2266,-230.5"/>
<g id="a_edge5&#45;headlabel"><a xlink:href="dir_000034_000029.xhtml" target="_top" xlink:title="8">
<text text-anchor="middle" x="98.8212" y="-225.161" font-family="Helvetica,sans-Serif" font-size="10.00">8</text>
</a>
</g>
</g>
<!-- dir_cbdb8362360e11eafe2fa3bc74cf0ffd&#45;&gt;dir_8bc26130589aa16388b5a02f17abf2c2 -->
<g id="edge6" class="edge"><title>dir_cbdb8362360e11eafe2fa3bc74cf0ffd&#45;&gt;dir_8bc26130589aa16388b5a02f17abf2c2</title>
<path fill="none" stroke="black" d="M137.736,-215.761C131.843,-197.45 121.469,-167.904 109,-144 104.113,-134.631 97.8954,-124.917 92.0079,-116.404"/>
<polygon fill="black" stroke="black" points="94.7058,-114.158 86.0615,-108.032 88.999,-118.212 94.7058,-114.158"/>
<g id="a_edge6&#45;headlabel"><a xlink:href="dir_000034_000003.xhtml" target="_top" xlink:title="5">
<text text-anchor="middle" x="99.1021" y="-112.944" font-family="Helvetica,sans-Serif" font-size="10.00">5</text>
</a>
</g>
</g>
<!-- dir_cbdb8362360e11eafe2fa3bc74cf0ffd&#45;&gt;dir_5815af820a9cc9481f1d0990a0d60286 -->
<g id="edge8" class="edge"><title>dir_cbdb8362360e11eafe2fa3bc74cf0ffd&#45;&gt;dir_5815af820a9cc9481f1d0990a0d60286</title>
<path fill="none" stroke="black" d="M144.252,-215.928C145.766,-183.341 144.805,-111.311 112,-64 104.111,-52.6219 92.3297,-43.3231 80.8367,-36.1935"/>
<polygon fill="black" stroke="black" points="82.5791,-33.158 72.1732,-31.1658 79.0655,-39.2124 82.5791,-33.158"/>
<g id="a_edge8&#45;headlabel"><a xlink:href="dir_000034_000150.xhtml" target="_top" xlink:title="3">
<text text-anchor="middle" x="87.1132" y="-30.0065" font-family="Helvetica,sans-Serif" font-size="10.00">3</text>
</a>
</g>
</g>
</g>
</svg>
