<?xml version="1.0" encoding="UTF-8" standalone="no"?>
<!DOCTYPE svg PUBLIC "-//W3C//DTD SVG 1.1//EN"
 "http://www.w3.org/Graphics/SVG/1.1/DTD/svg11.dtd">
<!-- Generated by graphviz version 2.38.0 (20140413.2041)
 -->
<!-- Title: tests/validation/CL/SYSTEM Pages: 1 -->
<svg width="263pt" height="223pt"
 viewBox="0.00 0.00 262.50 223.00" xmlns="http://www.w3.org/2000/svg" xmlns:xlink="http://www.w3.org/1999/xlink">
<g id="graph0" class="graph" transform="scale(1 1) rotate(0) translate(4 219)">
<title>tests/validation/CL/SYSTEM</title>
<polygon fill="white" stroke="none" points="-4,4 -4,-219 258.5,-219 258.5,4 -4,4"/>
<g id="clust1" class="cluster"><title>clusterdir_f7024513cd67abef53e86ee9382ac5ce</title>
<g id="a_clust1"><a xlink:href="dir_f7024513cd67abef53e86ee9382ac5ce.xhtml" target="_top" xlink:title="CL">
<polygon fill="#ddddee" stroke="black" points="105.5,-136 105.5,-207 177.5,-207 177.5,-136 105.5,-136"/>
<text text-anchor="middle" x="141.5" y="-195" font-family="Helvetica,sans-Serif" font-size="10.00">CL</text>
</a>
</g>
</g>
<!-- dir_23221f641cabea68e0f604f0420281b4 -->
<g id="node1" class="node"><title>dir_23221f641cabea68e0f604f0420281b4</title>
<g id="a_node1"><a xlink:href="dir_23221f641cabea68e0f604f0420281b4.xhtml" target="_top" xlink:title="SYSTEM">
<polygon fill="#eeeeff" stroke="black" points="169,-180 114,-180 114,-144 169,-144 169,-180"/>
<text text-anchor="middle" x="141.5" y="-159.5" font-family="Helvetica,sans-Serif" font-size="10.00">SYSTEM</text>
</a>
</g>
</g>
<!-- dir_e31c3eb8a08c20d742288af67200e09f -->
<g id="node2" class="node"><title>dir_e31c3eb8a08c20d742288af67200e09f</title>
<g id="a_node2"><a xlink:href="dir_e31c3eb8a08c20d742288af67200e09f.xhtml" target="_top" xlink:title="networks">
<polygon fill="none" stroke="black" points="59,-108 0,-108 0,-72 59,-72 59,-108"/>
<text text-anchor="middle" x="29.5" y="-87.5" font-family="Helvetica,sans-Serif" font-size="10.00">networks</text>
</a>
</g>
</g>
<!-- dir_23221f641cabea68e0f604f0420281b4&#45;&gt;dir_e31c3eb8a08c20d742288af67200e09f -->
<g id="edge3" class="edge"><title>dir_23221f641cabea68e0f604f0420281b4&#45;&gt;dir_e31c3eb8a08c20d742288af67200e09f</title>
<path fill="none" stroke="black" d="M114.102,-143.876C99.5933,-134.808 81.5837,-123.552 65.9147,-113.759"/>
<polygon fill="black" stroke="black" points="67.3386,-110.522 57.0036,-108.19 63.6286,-116.458 67.3386,-110.522"/>
<g id="a_edge3&#45;headlabel"><a xlink:href="dir_000053_000076.xhtml" target="_top" xlink:title="2">
<text text-anchor="middle" x="71.8916" y="-107.519" font-family="Helvetica,sans-Serif" font-size="10.00">2</text>
</a>
</g>
</g>
<!-- dir_9e71e2da941d3cafc4d98a9f6ae3de4f -->
<g id="node3" class="node"><title>dir_9e71e2da941d3cafc4d98a9f6ae3de4f</title>
<g id="a_node3"><a xlink:href="dir_9e71e2da941d3cafc4d98a9f6ae3de4f.xhtml" target="_top" xlink:title="framework">
<polygon fill="white" stroke="red" points="144,-108 77,-108 77,-72 144,-72 144,-108"/>
<text text-anchor="middle" x="110.5" y="-87.5" font-family="Helvetica,sans-Serif" font-size="10.00">framework</text>
</a>
</g>
</g>
<!-- dir_23221f641cabea68e0f604f0420281b4&#45;&gt;dir_9e71e2da941d3cafc4d98a9f6ae3de4f -->
<g id="edge4" class="edge"><title>dir_23221f641cabea68e0f604f0420281b4&#45;&gt;dir_9e71e2da941d3cafc4d98a9f6ae3de4f</title>
<path fill="none" stroke="black" d="M133.837,-143.697C130.308,-135.728 126.044,-126.1 122.131,-117.264"/>
<polygon fill="black" stroke="black" points="125.324,-115.831 118.075,-108.104 118.924,-118.665 125.324,-115.831"/>
<g id="a_edge4&#45;headlabel"><a xlink:href="dir_000053_000020.xhtml" target="_top" xlink:title="4">
<text text-anchor="middle" x="129.376" y="-115.468" font-family="Helvetica,sans-Serif" font-size="10.00">4</text>
</a>
</g>
</g>
<!-- dir_214608ef36d61442cb2b0c1c4e9a7def -->
<g id="node4" class="node"><title>dir_214608ef36d61442cb2b0c1c4e9a7def</title>
<g id="a_node4"><a xlink:href="dir_214608ef36d61442cb2b0c1c4e9a7def.xhtml" target="_top" xlink:title="arm_compute">
<polygon fill="white" stroke="red" points="183.5,-36 99.5,-36 99.5,-0 183.5,-0 183.5,-36"/>
<text text-anchor="middle" x="141.5" y="-15.5" font-family="Helvetica,sans-Serif" font-size="10.00">arm_compute</text>
</a>
</g>
</g>
<!-- dir_23221f641cabea68e0f604f0420281b4&#45;&gt;dir_214608ef36d61442cb2b0c1c4e9a7def -->
<g id="edge5" class="edge"><title>dir_23221f641cabea68e0f604f0420281b4&#45;&gt;dir_214608ef36d61442cb2b0c1c4e9a7def</title>
<path fill="none" stroke="black" d="M146.369,-143.979C149.064,-133.665 152.137,-120.189 153.5,-108 155.278,-92.0991 155.278,-87.9009 153.5,-72 152.542,-63.4299 150.738,-54.2228 148.815,-45.9264"/>
<polygon fill="black" stroke="black" points="152.164,-44.8904 146.369,-36.0209 145.368,-46.5684 152.164,-44.8904"/>
<g id="a_edge5&#45;headlabel"><a xlink:href="dir_000053_000000.xhtml" target="_top" xlink:title="13">
<text text-anchor="middle" x="155.782" y="-45.1997" font-family="Helvetica,sans-Serif" font-size="10.00">13</text>
</a>
</g>
</g>
<!-- dir_896191444cf08ec8ade6f88256cb2bdd -->
<g id="node5" class="node"><title>dir_896191444cf08ec8ade6f88256cb2bdd</title>
<g id="a_node5"><a xlink:href="dir_896191444cf08ec8ade6f88256cb2bdd.xhtml" target="_top" xlink:title="CL">
<polygon fill="none" stroke="black" points="254.5,-108 200.5,-108 200.5,-72 254.5,-72 254.5,-108"/>
<text text-anchor="middle" x="227.5" y="-87.5" font-family="Helvetica,sans-Serif" font-size="10.00">CL</text>
</a>
</g>
</g>
<!-- dir_23221f641cabea68e0f604f0420281b4&#45;&gt;dir_896191444cf08ec8ade6f88256cb2bdd -->
<g id="edge6" class="edge"><title>dir_23221f641cabea68e0f604f0420281b4&#45;&gt;dir_896191444cf08ec8ade6f88256cb2bdd</title>
<path fill="none" stroke="black" d="M162.758,-143.697C173.589,-134.881 186.918,-124.032 198.66,-114.474"/>
<polygon fill="black" stroke="black" points="200.94,-117.132 206.486,-108.104 196.521,-111.703 200.94,-117.132"/>
<g id="a_edge6&#45;headlabel"><a xlink:href="dir_000053_000057.xhtml" target="_top" xlink:title="2">
<text text-anchor="middle" x="199.944" y="-119.103" font-family="Helvetica,sans-Serif" font-size="10.00">2</text>
</a>
</g>
</g>
<!-- dir_e31c3eb8a08c20d742288af67200e09f&#45;&gt;dir_214608ef36d61442cb2b0c1c4e9a7def -->
<g id="edge1" class="edge"><title>dir_e31c3eb8a08c20d742288af67200e09f&#45;&gt;dir_214608ef36d61442cb2b0c1c4e9a7def</title>
<path fill="none" stroke="black" d="M56.8983,-71.8761C71.4067,-62.8083 89.4163,-51.5523 105.085,-41.7592"/>
<polygon fill="black" stroke="black" points="107.371,-44.4578 113.996,-36.1898 103.661,-38.5218 107.371,-44.4578"/>
<g id="a_edge1&#45;headlabel"><a xlink:href="dir_000076_000000.xhtml" target="_top" xlink:title="2">
<text text-anchor="middle" x="105.828" y="-46.2706" font-family="Helvetica,sans-Serif" font-size="10.00">2</text>
</a>
</g>
</g>
<!-- dir_9e71e2da941d3cafc4d98a9f6ae3de4f&#45;&gt;dir_214608ef36d61442cb2b0c1c4e9a7def -->
<g id="edge2" class="edge"><title>dir_9e71e2da941d3cafc4d98a9f6ae3de4f&#45;&gt;dir_214608ef36d61442cb2b0c1c4e9a7def</title>
<path fill="none" stroke="black" d="M118.163,-71.6966C121.692,-63.7284 125.956,-54.0995 129.869,-45.2641"/>
<polygon fill="black" stroke="black" points="133.076,-46.6651 133.925,-36.1043 126.676,-43.8306 133.076,-46.6651"/>
<g id="a_edge2&#45;headlabel"><a xlink:href="dir_000020_000000.xhtml" target="_top" xlink:title="4">
<text text-anchor="middle" x="134.217" y="-48.6015" font-family="Helvetica,sans-Serif" font-size="10.00">4</text>
</a>
</g>
</g>
<!-- dir_896191444cf08ec8ade6f88256cb2bdd&#45;&gt;dir_214608ef36d61442cb2b0c1c4e9a7def -->
<g id="edge7" class="edge"><title>dir_896191444cf08ec8ade6f88256cb2bdd&#45;&gt;dir_214608ef36d61442cb2b0c1c4e9a7def</title>
<path fill="none" stroke="black" d="M206.242,-71.6966C195.411,-62.8807 182.082,-52.0321 170.34,-42.4742"/>
<polygon fill="black" stroke="black" points="172.479,-39.7026 162.514,-36.1043 168.06,-45.1316 172.479,-39.7026"/>
<g id="a_edge7&#45;headlabel"><a xlink:href="dir_000057_000000.xhtml" target="_top" xlink:title="4">
<text text-anchor="middle" x="177.059" y="-37.2697" font-family="Helvetica,sans-Serif" font-size="10.00">4</text>
</a>
</g>
</g>
</g>
</svg>
