<?xml version="1.0" encoding="UTF-8" standalone="no"?>
<!DOCTYPE svg PUBLIC "-//W3C//DTD SVG 1.1//EN"
 "http://www.w3.org/Graphics/SVG/1.1/DTD/svg11.dtd">
<!-- Generated by graphviz version 2.38.0 (20140413.2041)
 -->
<!-- Title: tests/validation/NEON Pages: 1 -->
<svg width="262pt" height="231pt"
 viewBox="0.00 0.00 262.00 231.00" xmlns="http://www.w3.org/2000/svg" xmlns:xlink="http://www.w3.org/1999/xlink">
<g id="graph0" class="graph" transform="scale(1 1) rotate(0) translate(4 227)">
<title>tests/validation/NEON</title>
<polygon fill="white" stroke="none" points="-4,4 -4,-227 258,-227 258,4 -4,4"/>
<g id="clust1" class="cluster"><title>clusterdir_e7c7b16542faa38cb4655ff1750d3604</title>
<g id="a_clust1"><a xlink:href="dir_e7c7b16542faa38cb4655ff1750d3604.xhtml" target="_top" xlink:title="validation">
<polygon fill="#ddddee" stroke="black" points="8,-128 8,-215 246,-215 246,-128 8,-128"/>
<text text-anchor="middle" x="127" y="-203" font-family="Helvetica,sans-Serif" font-size="10.00">validation</text>
</a>
</g>
</g>
<g id="clust2" class="cluster"><title>clusterdir_0538a82dae0483a21d0f1e9d7e0a45c6</title>
<g id="a_clust2"><a xlink:href="dir_0538a82dae0483a21d0f1e9d7e0a45c6.xhtml" target="_top">
<polygon fill="#eeeeff" stroke="black" points="16,-136 16,-188 238,-188 238,-136 16,-136"/>
</a>
</g>
</g>
<!-- dir_0538a82dae0483a21d0f1e9d7e0a45c6 -->
<g id="node1" class="node"><title>dir_0538a82dae0483a21d0f1e9d7e0a45c6</title>
<text text-anchor="middle" x="51" y="-159.5" font-family="Helvetica,sans-Serif" font-size="10.00">NEON</text>
</g>
<!-- dir_f482a42326943e614a2ec303fd116962 -->
<g id="node5" class="node"><title>dir_f482a42326943e614a2ec303fd116962</title>
<g id="a_node5"><a xlink:href="dir_f482a42326943e614a2ec303fd116962.xhtml" target="_top" xlink:title="dataset">
<polygon fill="none" stroke="black" points="86,-108 32,-108 32,-72 86,-72 86,-108"/>
<text text-anchor="middle" x="59" y="-87.5" font-family="Helvetica,sans-Serif" font-size="10.00">dataset</text>
</a>
</g>
</g>
<!-- dir_0538a82dae0483a21d0f1e9d7e0a45c6&#45;&gt;dir_f482a42326943e614a2ec303fd116962 -->
<g id="edge8" class="edge"><title>dir_0538a82dae0483a21d0f1e9d7e0a45c6&#45;&gt;dir_f482a42326943e614a2ec303fd116962</title>
<path fill="none" stroke="black" d="M52.9775,-143.697C53.8591,-135.983 54.9186,-126.712 55.9014,-118.112"/>
<polygon fill="black" stroke="black" points="59.387,-118.437 57.0452,-108.104 52.4323,-117.642 59.387,-118.437"/>
<g id="a_edge8&#45;headlabel"><a xlink:href="dir_000026_000037.xhtml" target="_top" xlink:title="6">
<text text-anchor="middle" x="61.7999" y="-119.831" font-family="Helvetica,sans-Serif" font-size="10.00">6</text>
</a>
</g>
</g>
<!-- dir_1e190f7698f059a15072d193afa255c8 -->
<g id="node2" class="node"><title>dir_1e190f7698f059a15072d193afa255c8</title>
<g id="a_node2"><a xlink:href="dir_1e190f7698f059a15072d193afa255c8.xhtml" target="_top" xlink:title="Fixedpoint">
<polygon fill="white" stroke="black" points="230,-180 168,-180 168,-144 230,-144 230,-180"/>
<text text-anchor="middle" x="199" y="-159.5" font-family="Helvetica,sans-Serif" font-size="10.00">Fixedpoint</text>
</a>
</g>
</g>
<!-- dir_445738e6fed662d0b65e690e3f1e1de0 -->
<g id="node4" class="node"><title>dir_445738e6fed662d0b65e690e3f1e1de0</title>
<g id="a_node4"><a xlink:href="dir_445738e6fed662d0b65e690e3f1e1de0.xhtml" target="_top" xlink:title="NEON">
<polygon fill="none" stroke="black" points="196,-108 142,-108 142,-72 196,-72 196,-108"/>
<text text-anchor="middle" x="169" y="-87.5" font-family="Helvetica,sans-Serif" font-size="10.00">NEON</text>
</a>
</g>
</g>
<!-- dir_1e190f7698f059a15072d193afa255c8&#45;&gt;dir_445738e6fed662d0b65e690e3f1e1de0 -->
<g id="edge3" class="edge"><title>dir_1e190f7698f059a15072d193afa255c8&#45;&gt;dir_445738e6fed662d0b65e690e3f1e1de0</title>
<path fill="none" stroke="black" d="M191.584,-143.697C188.206,-135.813 184.13,-126.304 180.377,-117.546"/>
<polygon fill="black" stroke="black" points="183.487,-115.917 176.33,-108.104 177.053,-118.675 183.487,-115.917"/>
<g id="a_edge3&#45;headlabel"><a xlink:href="dir_000039_000036.xhtml" target="_top" xlink:title="8">
<text text-anchor="middle" x="187.512" y="-115.603" font-family="Helvetica,sans-Serif" font-size="10.00">8</text>
</a>
</g>
</g>
<!-- dir_214608ef36d61442cb2b0c1c4e9a7def -->
<g id="node6" class="node"><title>dir_214608ef36d61442cb2b0c1c4e9a7def</title>
<g id="a_node6"><a xlink:href="dir_214608ef36d61442cb2b0c1c4e9a7def.xhtml" target="_top" xlink:title="arm_compute">
<polygon fill="white" stroke="red" points="179,-36 103,-36 103,-0 179,-0 179,-36"/>
<text text-anchor="middle" x="141" y="-15.5" font-family="Helvetica,sans-Serif" font-size="10.00">arm_compute</text>
</a>
</g>
</g>
<!-- dir_1e190f7698f059a15072d193afa255c8&#45;&gt;dir_214608ef36d61442cb2b0c1c4e9a7def -->
<g id="edge4" class="edge"><title>dir_1e190f7698f059a15072d193afa255c8&#45;&gt;dir_214608ef36d61442cb2b0c1c4e9a7def</title>
<path fill="none" stroke="black" d="M204.955,-143.683C210.306,-125.045 215.808,-94.9834 205,-72 199.478,-60.2566 189.934,-50.2222 179.877,-42.1457"/>
<polygon fill="black" stroke="black" points="181.876,-39.2702 171.769,-36.0931 177.689,-44.8798 181.876,-39.2702"/>
<g id="a_edge4&#45;headlabel"><a xlink:href="dir_000039_000000.xhtml" target="_top" xlink:title="20">
<text text-anchor="middle" x="186.455" y="-36.6452" font-family="Helvetica,sans-Serif" font-size="10.00">20</text>
</a>
</g>
</g>
<!-- dir_2661e87454575451859bd783c869d609 -->
<g id="node3" class="node"><title>dir_2661e87454575451859bd783c869d609</title>
<g id="a_node3"><a xlink:href="dir_2661e87454575451859bd783c869d609.xhtml" target="_top" xlink:title="Pooling">
<polygon fill="white" stroke="black" points="150,-180 96,-180 96,-144 150,-144 150,-180"/>
<text text-anchor="middle" x="123" y="-159.5" font-family="Helvetica,sans-Serif" font-size="10.00">Pooling</text>
</a>
</g>
</g>
<!-- dir_2661e87454575451859bd783c869d609&#45;&gt;dir_445738e6fed662d0b65e690e3f1e1de0 -->
<g id="edge5" class="edge"><title>dir_2661e87454575451859bd783c869d609&#45;&gt;dir_445738e6fed662d0b65e690e3f1e1de0</title>
<path fill="none" stroke="black" d="M134.371,-143.697C139.718,-135.559 146.204,-125.689 152.111,-116.701"/>
<polygon fill="black" stroke="black" points="155.193,-118.384 157.76,-108.104 149.343,-114.539 155.193,-118.384"/>
<g id="a_edge5&#45;headlabel"><a xlink:href="dir_000028_000036.xhtml" target="_top" xlink:title="2">
<text text-anchor="middle" x="155.592" y="-120.447" font-family="Helvetica,sans-Serif" font-size="10.00">2</text>
</a>
</g>
</g>
<!-- dir_2661e87454575451859bd783c869d609&#45;&gt;dir_f482a42326943e614a2ec303fd116962 -->
<g id="edge6" class="edge"><title>dir_2661e87454575451859bd783c869d609&#45;&gt;dir_f482a42326943e614a2ec303fd116962</title>
<path fill="none" stroke="black" d="M107.18,-143.697C99.4295,-135.22 89.961,-124.864 81.4755,-115.583"/>
<polygon fill="black" stroke="black" points="83.9691,-113.123 74.6382,-108.104 78.8029,-117.846 83.9691,-113.123"/>
<g id="a_edge6&#45;headlabel"><a xlink:href="dir_000028_000037.xhtml" target="_top" xlink:title="1">
<text text-anchor="middle" x="88.49" y="-111.36" font-family="Helvetica,sans-Serif" font-size="10.00">1</text>
</a>
</g>
</g>
<!-- dir_2661e87454575451859bd783c869d609&#45;&gt;dir_214608ef36d61442cb2b0c1c4e9a7def -->
<g id="edge7" class="edge"><title>dir_2661e87454575451859bd783c869d609&#45;&gt;dir_214608ef36d61442cb2b0c1c4e9a7def</title>
<path fill="none" stroke="black" d="M124.725,-143.915C126.582,-125.98 129.713,-96.9734 133,-72 134.11,-63.5668 135.447,-54.3989 136.708,-46.0962"/>
<polygon fill="black" stroke="black" points="140.175,-46.5793 138.241,-36.1625 133.256,-45.5116 140.175,-46.5793"/>
<g id="a_edge7&#45;headlabel"><a xlink:href="dir_000028_000000.xhtml" target="_top" xlink:title="1">
<text text-anchor="middle" x="142.432" y="-48.0649" font-family="Helvetica,sans-Serif" font-size="10.00">1</text>
</a>
</g>
</g>
<!-- dir_445738e6fed662d0b65e690e3f1e1de0&#45;&gt;dir_214608ef36d61442cb2b0c1c4e9a7def -->
<g id="edge1" class="edge"><title>dir_445738e6fed662d0b65e690e3f1e1de0&#45;&gt;dir_214608ef36d61442cb2b0c1c4e9a7def</title>
<path fill="none" stroke="black" d="M162.079,-71.6966C158.925,-63.8132 155.122,-54.3042 151.619,-45.5464"/>
<polygon fill="black" stroke="black" points="154.805,-44.0892 147.842,-36.1043 148.306,-46.689 154.805,-44.0892"/>
<g id="a_edge1&#45;headlabel"><a xlink:href="dir_000036_000000.xhtml" target="_top" xlink:title="2">
<text text-anchor="middle" x="158.777" y="-43.8723" font-family="Helvetica,sans-Serif" font-size="10.00">2</text>
</a>
</g>
</g>
<!-- dir_f482a42326943e614a2ec303fd116962&#45;&gt;dir_214608ef36d61442cb2b0c1c4e9a7def -->
<g id="edge2" class="edge"><title>dir_f482a42326943e614a2ec303fd116962&#45;&gt;dir_214608ef36d61442cb2b0c1c4e9a7def</title>
<path fill="none" stroke="black" d="M79.2697,-71.6966C89.4976,-62.9655 102.061,-52.2405 113.178,-42.7503"/>
<polygon fill="black" stroke="black" points="115.63,-45.259 120.963,-36.1043 111.085,-39.935 115.63,-45.259"/>
<g id="a_edge2&#45;headlabel"><a xlink:href="dir_000037_000000.xhtml" target="_top" xlink:title="24">
<text text-anchor="middle" x="114.74" y="-47.2522" font-family="Helvetica,sans-Serif" font-size="10.00">24</text>
</a>
</g>
</g>
</g>
</svg>
