<?xml version="1.0" encoding="UTF-8" standalone="no"?>
<!DOCTYPE svg PUBLIC "-//W3C//DTD SVG 1.1//EN"
 "http://www.w3.org/Graphics/SVG/1.1/DTD/svg11.dtd">
<!-- Generated by graphviz version 2.38.0 (20140413.2041)
 -->
<!-- Title: tests/validation/CPP Pages: 1 -->
<svg width="94pt" height="151pt"
 viewBox="0.00 0.00 94.00 151.00" xmlns="http://www.w3.org/2000/svg" xmlns:xlink="http://www.w3.org/1999/xlink">
<g id="graph0" class="graph" transform="scale(1 1) rotate(0) translate(4 147)">
<title>tests/validation/CPP</title>
<polygon fill="white" stroke="none" points="-4,4 -4,-147 90,-147 90,4 -4,4"/>
<g id="clust1" class="cluster"><title>clusterdir_a54a3db5b521d39f12dbe18362fe1216</title>
<g id="a_clust1"><a xlink:href="dir_a54a3db5b521d39f12dbe18362fe1216.xhtml" target="_top" xlink:title="validation">
<polygon fill="#ddddee" stroke="black" points="8,-64 8,-135 78,-135 78,-64 8,-64"/>
<text text-anchor="middle" x="43" y="-123" font-family="Helvetica" font-size="10.00">validation</text>
</a>
</g>
</g>
<!-- dir_db9e2079d58d733beb36406e9ab55e7d -->
<g id="node1" class="node"><title>dir_db9e2079d58d733beb36406e9ab55e7d</title>
<g id="a_node1"><a xlink:href="dir_db9e2079d58d733beb36406e9ab55e7d.xhtml" target="_top" xlink:title="CPP">
<polygon fill="#eeeeff" stroke="black" points="70,-108 16,-108 16,-72 70,-72 70,-108"/>
<text text-anchor="middle" x="43" y="-87.5" font-family="Helvetica" font-size="10.00">CPP</text>
</a>
</g>
</g>
<!-- dir_d4d363c0979c7ffda4833df3f93b5668 -->
<g id="node2" class="node"><title>dir_d4d363c0979c7ffda4833df3f93b5668</title>
<g id="a_node2"><a xlink:href="dir_d4d363c0979c7ffda4833df3f93b5668.xhtml" target="_top" xlink:title="arm_compute">
<polygon fill="white" stroke="red" points="81,-36 5,-36 5,-0 81,-0 81,-36"/>
<text text-anchor="middle" x="43" y="-15.5" font-family="Helvetica" font-size="10.00">arm_compute</text>
</a>
</g>
</g>
<!-- dir_db9e2079d58d733beb36406e9ab55e7d&#45;&gt;dir_d4d363c0979c7ffda4833df3f93b5668 -->
<g id="edge1" class="edge"><title>dir_db9e2079d58d733beb36406e9ab55e7d&#45;&gt;dir_d4d363c0979c7ffda4833df3f93b5668</title>
<path fill="none" stroke="black" d="M43,-71.6966C43,-63.9827 43,-54.7125 43,-46.1124"/>
<polygon fill="black" stroke="black" points="46.5001,-46.1043 43,-36.1043 39.5001,-46.1044 46.5001,-46.1043"/>
<g id="a_edge1&#45;headlabel"><a xlink:href="dir_000021_000000.xhtml" target="_top" xlink:title="16">
<text text-anchor="middle" x="49.3393" y="-47.199" font-family="Helvetica" font-size="10.00">16</text>
</a>
</g>
</g>
</g>
</svg>
