<?xml version="1.0" encoding="UTF-8" standalone="no"?>
<!DOCTYPE svg PUBLIC "-//W3C//DTD SVG 1.1//EN"
 "http://www.w3.org/Graphics/SVG/1.1/DTD/svg11.dtd">
<!-- Generated by graphviz version 2.38.0 (20140413.2041)
 -->
<!-- Title: tests/framework Pages: 1 -->
<svg width="306pt" height="375pt"
 viewBox="0.00 0.00 306.00 375.00" xmlns="http://www.w3.org/2000/svg" xmlns:xlink="http://www.w3.org/1999/xlink">
<g id="graph0" class="graph" transform="scale(1 1) rotate(0) translate(4 371)">
<title>tests/framework</title>
<polygon fill="white" stroke="none" points="-4,4 -4,-371 302,-371 302,4 -4,4"/>
<g id="clust1" class="cluster"><title>clusterdir_59425e443f801f1f2fd8bbe4959a3ccf</title>
<g id="a_clust1"><a xlink:href="dir_59425e443f801f1f2fd8bbe4959a3ccf.xhtml" target="_top" xlink:title="tests">
<polygon fill="#ddddee" stroke="black" points="8,-128 8,-359 290,-359 290,-128 8,-128"/>
<text text-anchor="middle" x="149" y="-347" font-family="Helvetica,sans-Serif" font-size="10.00">tests</text>
</a>
</g>
</g>
<g id="clust2" class="cluster"><title>clusterdir_9e71e2da941d3cafc4d98a9f6ae3de4f</title>
<g id="a_clust2"><a xlink:href="dir_9e71e2da941d3cafc4d98a9f6ae3de4f.xhtml" target="_top">
<polygon fill="#eeeeff" stroke="black" points="16,-136 16,-332 282,-332 282,-136 16,-136"/>
</a>
</g>
</g>
<!-- dir_9e71e2da941d3cafc4d98a9f6ae3de4f -->
<g id="node1" class="node"><title>dir_9e71e2da941d3cafc4d98a9f6ae3de4f</title>
<text text-anchor="middle" x="58" y="-303.5" font-family="Helvetica,sans-Serif" font-size="10.00">framework</text>
</g>
<!-- dir_4efd0ee2ecda32567e74991b08d544ea -->
<g id="node4" class="node"><title>dir_4efd0ee2ecda32567e74991b08d544ea</title>
<g id="a_node4"><a xlink:href="dir_4efd0ee2ecda32567e74991b08d544ea.xhtml" target="_top" xlink:title="instruments">
<polygon fill="white" stroke="black" points="141,-180 67,-180 67,-144 141,-144 141,-180"/>
<text text-anchor="middle" x="104" y="-159.5" font-family="Helvetica,sans-Serif" font-size="10.00">instruments</text>
</a>
</g>
</g>
<!-- dir_9e71e2da941d3cafc4d98a9f6ae3de4f&#45;&gt;dir_4efd0ee2ecda32567e74991b08d544ea -->
<g id="edge3" class="edge"><title>dir_9e71e2da941d3cafc4d98a9f6ae3de4f&#45;&gt;dir_4efd0ee2ecda32567e74991b08d544ea</title>
<path fill="none" stroke="black" d="M57.5193,-287.708C57.5578,-269.352 59.2078,-239.77 68,-216 71.5513,-206.399 77.2018,-196.851 82.9832,-188.559"/>
<polygon fill="black" stroke="black" points="85.8628,-190.552 88.973,-180.424 80.2257,-186.402 85.8628,-190.552"/>
<g id="a_edge3&#45;headlabel"><a xlink:href="dir_000034_000086.xhtml" target="_top" xlink:title="5">
<text text-anchor="middle" x="86.0181" y="-192.63" font-family="Helvetica,sans-Serif" font-size="10.00">5</text>
</a>
</g>
</g>
<!-- dir_68cb0bded1cc5601c88ddaacbb31e482 -->
<g id="node5" class="node"><title>dir_68cb0bded1cc5601c88ddaacbb31e482</title>
<g id="a_node5"><a xlink:href="dir_68cb0bded1cc5601c88ddaacbb31e482.xhtml" target="_top" xlink:title="printers">
<polygon fill="white" stroke="black" points="131,-252 77,-252 77,-216 131,-216 131,-252"/>
<text text-anchor="middle" x="104" y="-231.5" font-family="Helvetica,sans-Serif" font-size="10.00">printers</text>
</a>
</g>
</g>
<!-- dir_9e71e2da941d3cafc4d98a9f6ae3de4f&#45;&gt;dir_68cb0bded1cc5601c88ddaacbb31e482 -->
<g id="edge2" class="edge"><title>dir_9e71e2da941d3cafc4d98a9f6ae3de4f&#45;&gt;dir_68cb0bded1cc5601c88ddaacbb31e482</title>
<path fill="none" stroke="black" d="M69.3708,-287.697C74.7185,-279.559 81.2043,-269.689 87.1106,-260.701"/>
<polygon fill="black" stroke="black" points="90.1932,-262.384 92.76,-252.104 84.3432,-258.539 90.1932,-262.384"/>
<g id="a_edge2&#45;headlabel"><a xlink:href="dir_000034_000037.xhtml" target="_top" xlink:title="1">
<text text-anchor="middle" x="90.5919" y="-264.447" font-family="Helvetica,sans-Serif" font-size="10.00">1</text>
</a>
</g>
</g>
<!-- dir_d247c927d0dc22626cf668ab2bd7f080 -->
<g id="node2" class="node"><title>dir_d247c927d0dc22626cf668ab2bd7f080</title>
<g id="a_node2"><a xlink:href="dir_d247c927d0dc22626cf668ab2bd7f080.xhtml" target="_top" xlink:title="command_line">
<polygon fill="white" stroke="black" points="196.5,-324 109.5,-324 109.5,-288 196.5,-288 196.5,-324"/>
<text text-anchor="middle" x="153" y="-303.5" font-family="Helvetica,sans-Serif" font-size="10.00">command_line</text>
</a>
</g>
</g>
<!-- dir_0dd7887818bb8d90732685575a13f58a -->
<g id="node3" class="node"><title>dir_0dd7887818bb8d90732685575a13f58a</title>
<g id="a_node3"><a xlink:href="dir_0dd7887818bb8d90732685575a13f58a.xhtml" target="_top" xlink:title="datasets">
<polygon fill="white" stroke="black" points="273.5,-324 214.5,-324 214.5,-288 273.5,-288 273.5,-324"/>
<text text-anchor="middle" x="244" y="-303.5" font-family="Helvetica,sans-Serif" font-size="10.00">datasets</text>
</a>
</g>
</g>
<!-- dir_5815af820a9cc9481f1d0990a0d60286 -->
<g id="node7" class="node"><title>dir_5815af820a9cc9481f1d0990a0d60286</title>
<g id="a_node7"><a xlink:href="dir_5815af820a9cc9481f1d0990a0d60286.xhtml" target="_top" xlink:title="support">
<polygon fill="none" stroke="black" points="209,-36 155,-36 155,-0 209,-0 209,-36"/>
<text text-anchor="middle" x="182" y="-15.5" font-family="Helvetica,sans-Serif" font-size="10.00">support</text>
</a>
</g>
</g>
<!-- dir_0dd7887818bb8d90732685575a13f58a&#45;&gt;dir_5815af820a9cc9481f1d0990a0d60286 -->
<g id="edge6" class="edge"><title>dir_0dd7887818bb8d90732685575a13f58a&#45;&gt;dir_5815af820a9cc9481f1d0990a0d60286</title>
<path fill="none" stroke="black" d="M240.307,-287.966C229.951,-240.192 200.562,-104.623 187.911,-46.2658"/>
<polygon fill="black" stroke="black" points="191.291,-45.3379 185.752,-36.3065 184.45,-46.821 191.291,-45.3379"/>
<g id="a_edge6&#45;headlabel"><a xlink:href="dir_000085_000057.xhtml" target="_top" xlink:title="4">
<text text-anchor="middle" x="194.827" y="-45.7494" font-family="Helvetica,sans-Serif" font-size="10.00">4</text>
</a>
</g>
</g>
<!-- dir_214608ef36d61442cb2b0c1c4e9a7def -->
<g id="node6" class="node"><title>dir_214608ef36d61442cb2b0c1c4e9a7def</title>
<g id="a_node6"><a xlink:href="dir_214608ef36d61442cb2b0c1c4e9a7def.xhtml" target="_top" xlink:title="arm_compute">
<polygon fill="white" stroke="red" points="181,-108 97,-108 97,-72 181,-72 181,-108"/>
<text text-anchor="middle" x="139" y="-87.5" font-family="Helvetica,sans-Serif" font-size="10.00">arm_compute</text>
</a>
</g>
</g>
<!-- dir_4efd0ee2ecda32567e74991b08d544ea&#45;&gt;dir_214608ef36d61442cb2b0c1c4e9a7def -->
<g id="edge5" class="edge"><title>dir_4efd0ee2ecda32567e74991b08d544ea&#45;&gt;dir_214608ef36d61442cb2b0c1c4e9a7def</title>
<path fill="none" stroke="black" d="M112.652,-143.697C116.636,-135.728 121.45,-126.1 125.868,-117.264"/>
<polygon fill="black" stroke="black" points="129.106,-118.614 130.448,-108.104 122.845,-115.483 129.106,-118.614"/>
<g id="a_edge5&#45;headlabel"><a xlink:href="dir_000086_000000.xhtml" target="_top" xlink:title="4">
<text text-anchor="middle" x="130.038" y="-120.599" font-family="Helvetica,sans-Serif" font-size="10.00">4</text>
</a>
</g>
</g>
<!-- dir_68cb0bded1cc5601c88ddaacbb31e482&#45;&gt;dir_4efd0ee2ecda32567e74991b08d544ea -->
<g id="edge1" class="edge"><title>dir_68cb0bded1cc5601c88ddaacbb31e482&#45;&gt;dir_4efd0ee2ecda32567e74991b08d544ea</title>
<path fill="none" stroke="black" d="M104,-215.697C104,-207.983 104,-198.712 104,-190.112"/>
<polygon fill="black" stroke="black" points="107.5,-190.104 104,-180.104 100.5,-190.104 107.5,-190.104"/>
<g id="a_edge1&#45;headlabel"><a xlink:href="dir_000037_000086.xhtml" target="_top" xlink:title="2">
<text text-anchor="middle" x="110.339" y="-191.199" font-family="Helvetica,sans-Serif" font-size="10.00">2</text>
</a>
</g>
</g>
<!-- dir_214608ef36d61442cb2b0c1c4e9a7def&#45;&gt;dir_5815af820a9cc9481f1d0990a0d60286 -->
<g id="edge4" class="edge"><title>dir_214608ef36d61442cb2b0c1c4e9a7def&#45;&gt;dir_5815af820a9cc9481f1d0990a0d60286</title>
<path fill="none" stroke="black" d="M149.629,-71.6966C154.628,-63.5589 160.691,-53.689 166.212,-44.7013"/>
<polygon fill="black" stroke="black" points="169.241,-46.4571 171.493,-36.1043 163.277,-42.7931 169.241,-46.4571"/>
<g id="a_edge4&#45;headlabel"><a xlink:href="dir_000000_000057.xhtml" target="_top" xlink:title="21">
<text text-anchor="middle" x="169.779" y="-48.5061" font-family="Helvetica,sans-Serif" font-size="10.00">21</text>
</a>
</g>
</g>
</g>
</svg>
