<?xml version="1.0" encoding="UTF-8" standalone="no"?>
<!DOCTYPE svg PUBLIC "-//W3C//DTD SVG 1.1//EN"
 "http://www.w3.org/Graphics/SVG/1.1/DTD/svg11.dtd">
<!-- Generated by graphviz version 2.38.0 (20140413.2041)
 -->
<!-- Title: arm_compute/core/CL/gemm Pages: 1 -->
<svg width="314pt" height="111pt"
 viewBox="0.00 0.00 314.00 111.00" xmlns="http://www.w3.org/2000/svg" xmlns:xlink="http://www.w3.org/1999/xlink">
<g id="graph0" class="graph" transform="scale(1 1) rotate(0) translate(4 107)">
<title>arm_compute/core/CL/gemm</title>
<polygon fill="white" stroke="none" points="-4,4 -4,-107 310,-107 310,4 -4,4"/>
<g id="clust1" class="cluster"><title>clusterdir_1633709b037eda5b8477677909f78129</title>
<g id="a_clust1"><a xlink:href="dir_1633709b037eda5b8477677909f78129.xhtml" target="_top" xlink:title="CL">
<polygon fill="#ddddee" stroke="black" points="8,-8 8,-95 298,-95 298,-8 8,-8"/>
<text text-anchor="middle" x="153" y="-83" font-family="Helvetica,sans-Serif" font-size="10.00">CL</text>
</a>
</g>
</g>
<g id="clust2" class="cluster"><title>clusterdir_2d287d0b1a82c88d991f218c8bb4dd9a</title>
<g id="a_clust2"><a xlink:href="dir_2d287d0b1a82c88d991f218c8bb4dd9a.xhtml" target="_top">
<polygon fill="#eeeeff" stroke="black" points="16,-16 16,-68 290,-68 290,-16 16,-16"/>
</a>
</g>
</g>
<!-- dir_2d287d0b1a82c88d991f218c8bb4dd9a -->
<g id="node1" class="node"><title>dir_2d287d0b1a82c88d991f218c8bb4dd9a</title>
<text text-anchor="middle" x="255" y="-39.5" font-family="Helvetica,sans-Serif" font-size="10.00">gemm</text>
</g>
<!-- dir_b380ea7850246e3d17a9b2ca7d641d9f -->
<g id="node2" class="node"><title>dir_b380ea7850246e3d17a9b2ca7d641d9f</title>
<g id="a_node2"><a xlink:href="dir_b380ea7850246e3d17a9b2ca7d641d9f.xhtml" target="_top" xlink:title="reshaped">
<polygon fill="white" stroke="black" points="210,-60 148,-60 148,-24 210,-24 210,-60"/>
<text text-anchor="middle" x="179" y="-39.5" font-family="Helvetica,sans-Serif" font-size="10.00">reshaped</text>
</a>
</g>
</g>
<!-- dir_49c6f2cdaf048b4777902725298492e0 -->
<g id="node3" class="node"><title>dir_49c6f2cdaf048b4777902725298492e0</title>
<g id="a_node3"><a xlink:href="dir_49c6f2cdaf048b4777902725298492e0.xhtml" target="_top" xlink:title="reshaped_only_rhs">
<polygon fill="white" stroke="black" points="130.5,-60 23.5,-60 23.5,-24 130.5,-24 130.5,-60"/>
<text text-anchor="middle" x="77" y="-39.5" font-family="Helvetica,sans-Serif" font-size="10.00">reshaped_only_rhs</text>
</a>
</g>
</g>
</g>
</svg>
