<?xml version="1.0" encoding="UTF-8" standalone="no"?>
<!DOCTYPE svg PUBLIC "-//W3C//DTD SVG 1.1//EN"
 "http://www.w3.org/Graphics/SVG/1.1/DTD/svg11.dtd">
<!-- Generated by graphviz version 2.38.0 (20140413.2041)
 -->
<!-- Title: tests/benchmark/system_tests Pages: 1 -->
<svg width="421pt" height="231pt"
 viewBox="0.00 0.00 421.37 231.00" xmlns="http://www.w3.org/2000/svg" xmlns:xlink="http://www.w3.org/1999/xlink">
<g id="graph0" class="graph" transform="scale(1 1) rotate(0) translate(4 227)">
<title>tests/benchmark/system_tests</title>
<polygon fill="white" stroke="none" points="-4,4 -4,-227 417.37,-227 417.37,4 -4,4"/>
<g id="clust1" class="cluster"><title>clusterdir_4f2df8950dc650bf7cf9176fae02facc</title>
<g id="a_clust1"><a xlink:href="dir_4f2df8950dc650bf7cf9176fae02facc.xhtml" target="_top" xlink:title="benchmark">
<polygon fill="#ddddee" stroke="black" points="8,-56 8,-215 260,-215 260,-56 8,-56"/>
<text text-anchor="middle" x="134" y="-203" font-family="Helvetica,sans-Serif" font-size="10.00">benchmark</text>
</a>
</g>
</g>
<g id="clust2" class="cluster"><title>clusterdir_a133c6c93c82e8721b2f0a6d208afd33</title>
<g id="a_clust2"><a xlink:href="dir_a133c6c93c82e8721b2f0a6d208afd33.xhtml" target="_top">
<polygon fill="#eeeeff" stroke="black" points="16,-64 16,-188 252,-188 252,-64 16,-64"/>
</a>
</g>
</g>
<!-- dir_a133c6c93c82e8721b2f0a6d208afd33 -->
<g id="node1" class="node"><title>dir_a133c6c93c82e8721b2f0a6d208afd33</title>
<text text-anchor="middle" x="206" y="-159.5" font-family="Helvetica,sans-Serif" font-size="10.00">system_tests</text>
</g>
<!-- dir_e92efd873d292d9829f03334575b107c -->
<g id="node2" class="node"><title>dir_e92efd873d292d9829f03334575b107c</title>
<g id="a_node2"><a xlink:href="dir_e92efd873d292d9829f03334575b107c.xhtml" target="_top" xlink:title="CL">
<polygon fill="white" stroke="black" points="78,-180 24,-180 24,-144 78,-144 78,-180"/>
<text text-anchor="middle" x="51" y="-159.5" font-family="Helvetica,sans-Serif" font-size="10.00">CL</text>
</a>
</g>
</g>
<!-- dir_0b3c54e6965035dc3ca2dd424a2d1395 -->
<g id="node3" class="node"><title>dir_0b3c54e6965035dc3ca2dd424a2d1395</title>
<g id="a_node3"><a xlink:href="dir_0b3c54e6965035dc3ca2dd424a2d1395.xhtml" target="_top" xlink:title="common">
<polygon fill="white" stroke="black" points="111,-108 57,-108 57,-72 111,-72 111,-108"/>
<text text-anchor="middle" x="84" y="-87.5" font-family="Helvetica,sans-Serif" font-size="10.00">common</text>
</a>
</g>
</g>
<!-- dir_e92efd873d292d9829f03334575b107c&#45;&gt;dir_0b3c54e6965035dc3ca2dd424a2d1395 -->
<g id="edge7" class="edge"><title>dir_e92efd873d292d9829f03334575b107c&#45;&gt;dir_0b3c54e6965035dc3ca2dd424a2d1395</title>
<path fill="none" stroke="black" d="M59.1573,-143.697C62.9138,-135.728 67.4531,-126.1 71.6183,-117.264"/>
<polygon fill="black" stroke="black" points="74.8381,-118.642 75.9365,-108.104 68.5064,-115.657 74.8381,-118.642"/>
<g id="a_edge7&#45;headlabel"><a xlink:href="dir_000031_000033.xhtml" target="_top" xlink:title="2">
<text text-anchor="middle" x="75.8736" y="-120.604" font-family="Helvetica,sans-Serif" font-size="10.00">2</text>
</a>
</g>
</g>
<!-- dir_214608ef36d61442cb2b0c1c4e9a7def -->
<g id="node7" class="node"><title>dir_214608ef36d61442cb2b0c1c4e9a7def</title>
<g id="a_node7"><a xlink:href="dir_214608ef36d61442cb2b0c1c4e9a7def.xhtml" target="_top" xlink:title="arm_compute">
<polygon fill="white" stroke="red" points="369,-36 293,-36 293,-0 369,-0 369,-36"/>
<text text-anchor="middle" x="331" y="-15.5" font-family="Helvetica,sans-Serif" font-size="10.00">arm_compute</text>
</a>
</g>
</g>
<!-- dir_e92efd873d292d9829f03334575b107c&#45;&gt;dir_214608ef36d61442cb2b0c1c4e9a7def -->
<g id="edge5" class="edge"><title>dir_e92efd873d292d9829f03334575b107c&#45;&gt;dir_214608ef36d61442cb2b0c1c4e9a7def</title>
<path fill="none" stroke="black" d="M78.102,-147.255C126.955,-122.48 230.117,-70.1623 288.46,-40.5738"/>
<polygon fill="black" stroke="black" points="290.088,-43.6725 297.424,-36.0279 286.922,-37.4295 290.088,-43.6725"/>
<g id="a_edge5&#45;headlabel"><a xlink:href="dir_000031_000000.xhtml" target="_top" xlink:title="22">
<text text-anchor="middle" x="288.167" y="-45.3306" font-family="Helvetica,sans-Serif" font-size="10.00">22</text>
</a>
</g>
</g>
<!-- dir_896191444cf08ec8ade6f88256cb2bdd -->
<g id="node8" class="node"><title>dir_896191444cf08ec8ade6f88256cb2bdd</title>
<g id="a_node8"><a xlink:href="dir_896191444cf08ec8ade6f88256cb2bdd.xhtml" target="_top" xlink:title="CL">
<polygon fill="none" stroke="black" points="322,-108 268,-108 268,-72 322,-72 322,-108"/>
<text text-anchor="middle" x="295" y="-87.5" font-family="Helvetica,sans-Serif" font-size="10.00">CL</text>
</a>
</g>
</g>
<!-- dir_e92efd873d292d9829f03334575b107c&#45;&gt;dir_896191444cf08ec8ade6f88256cb2bdd -->
<g id="edge6" class="edge"><title>dir_e92efd873d292d9829f03334575b107c&#45;&gt;dir_896191444cf08ec8ade6f88256cb2bdd</title>
<path fill="none" stroke="black" d="M78.2469,-147.335C81.1641,-146.113 84.1185,-144.973 87,-144 159.763,-119.44 182.875,-131.462 256,-108 256.862,-107.724 257.73,-107.435 258.603,-107.135"/>
<polygon fill="black" stroke="black" points="259.867,-110.399 267.994,-103.602 257.402,-103.847 259.867,-110.399"/>
<g id="a_edge6&#45;headlabel"><a xlink:href="dir_000031_000035.xhtml" target="_top" xlink:title="4">
<text text-anchor="middle" x="257.502" y="-111.822" font-family="Helvetica,sans-Serif" font-size="10.00">4</text>
</a>
</g>
</g>
<!-- dir_ba1dc693ed461bc4c6534d3b34c816d0 -->
<g id="node6" class="node"><title>dir_ba1dc693ed461bc4c6534d3b34c816d0</title>
<g id="a_node6"><a xlink:href="dir_ba1dc693ed461bc4c6534d3b34c816d0.xhtml" target="_top" xlink:title="model_objects">
<polygon fill="none" stroke="black" points="124,-36 44,-36 44,-0 124,-0 124,-36"/>
<text text-anchor="middle" x="84" y="-15.5" font-family="Helvetica,sans-Serif" font-size="10.00">model_objects</text>
</a>
</g>
</g>
<!-- dir_0b3c54e6965035dc3ca2dd424a2d1395&#45;&gt;dir_ba1dc693ed461bc4c6534d3b34c816d0 -->
<g id="edge9" class="edge"><title>dir_0b3c54e6965035dc3ca2dd424a2d1395&#45;&gt;dir_ba1dc693ed461bc4c6534d3b34c816d0</title>
<path fill="none" stroke="black" d="M84,-71.6966C84,-63.9827 84,-54.7125 84,-46.1124"/>
<polygon fill="black" stroke="black" points="87.5001,-46.1043 84,-36.1043 80.5001,-46.1044 87.5001,-46.1043"/>
<g id="a_edge9&#45;headlabel"><a xlink:href="dir_000033_000034.xhtml" target="_top" xlink:title="2">
<text text-anchor="middle" x="90.3393" y="-47.199" font-family="Helvetica,sans-Serif" font-size="10.00">2</text>
</a>
</g>
</g>
<!-- dir_5df60b4dac2e83e111e155bc5ea540f9 -->
<g id="node4" class="node"><title>dir_5df60b4dac2e83e111e155bc5ea540f9</title>
<g id="a_node4"><a xlink:href="dir_5df60b4dac2e83e111e155bc5ea540f9.xhtml" target="_top" xlink:title="NEON">
<polygon fill="white" stroke="black" points="150,-180 96,-180 96,-144 150,-144 150,-180"/>
<text text-anchor="middle" x="123" y="-159.5" font-family="Helvetica,sans-Serif" font-size="10.00">NEON</text>
</a>
</g>
</g>
<!-- dir_5df60b4dac2e83e111e155bc5ea540f9&#45;&gt;dir_0b3c54e6965035dc3ca2dd424a2d1395 -->
<g id="edge4" class="edge"><title>dir_5df60b4dac2e83e111e155bc5ea540f9&#45;&gt;dir_0b3c54e6965035dc3ca2dd424a2d1395</title>
<path fill="none" stroke="black" d="M113.36,-143.697C108.873,-135.644 103.441,-125.894 98.4759,-116.982"/>
<polygon fill="black" stroke="black" points="101.454,-115.137 93.5296,-108.104 95.3391,-118.544 101.454,-115.137"/>
<g id="a_edge4&#45;headlabel"><a xlink:href="dir_000032_000033.xhtml" target="_top" xlink:title="2">
<text text-anchor="middle" x="105.684" y="-114.395" font-family="Helvetica,sans-Serif" font-size="10.00">2</text>
</a>
</g>
</g>
<!-- dir_445738e6fed662d0b65e690e3f1e1de0 -->
<g id="node5" class="node"><title>dir_445738e6fed662d0b65e690e3f1e1de0</title>
<g id="a_node5"><a xlink:href="dir_445738e6fed662d0b65e690e3f1e1de0.xhtml" target="_top" xlink:title="NEON">
<polygon fill="none" stroke="black" points="394,-108 340,-108 340,-72 394,-72 394,-108"/>
<text text-anchor="middle" x="367" y="-87.5" font-family="Helvetica,sans-Serif" font-size="10.00">NEON</text>
</a>
</g>
</g>
<!-- dir_5df60b4dac2e83e111e155bc5ea540f9&#45;&gt;dir_445738e6fed662d0b65e690e3f1e1de0 -->
<g id="edge2" class="edge"><title>dir_5df60b4dac2e83e111e155bc5ea540f9&#45;&gt;dir_445738e6fed662d0b65e690e3f1e1de0</title>
<path fill="none" stroke="black" d="M150.243,-147.324C153.161,-146.105 156.117,-144.967 159,-144 230.007,-120.173 254.911,-131.788 329.858,-107.936"/>
<polygon fill="black" stroke="black" points="331.354,-111.129 339.757,-104.676 329.164,-104.48 331.354,-111.129"/>
<g id="a_edge2&#45;headlabel"><a xlink:href="dir_000032_000036.xhtml" target="_top" xlink:title="4">
<text text-anchor="middle" x="328.828" y="-112.45" font-family="Helvetica,sans-Serif" font-size="10.00">4</text>
</a>
</g>
</g>
<!-- dir_5df60b4dac2e83e111e155bc5ea540f9&#45;&gt;dir_214608ef36d61442cb2b0c1c4e9a7def -->
<g id="edge3" class="edge"><title>dir_5df60b4dac2e83e111e155bc5ea540f9&#45;&gt;dir_214608ef36d61442cb2b0c1c4e9a7def</title>
<path fill="none" stroke="black" d="M150.186,-147.146C153.115,-145.961 156.089,-144.881 159,-144 211.46,-128.126 367.184,-149.488 403,-108 418.102,-90.5059 415.041,-75.7263 403,-56 397.226,-46.5403 388.177,-39.3977 378.418,-34.0422"/>
<polygon fill="black" stroke="black" points="379.853,-30.848 369.331,-29.6111 376.785,-37.1399 379.853,-30.848"/>
<g id="a_edge3&#45;headlabel"><a xlink:href="dir_000032_000000.xhtml" target="_top" xlink:title="20">
<text text-anchor="middle" x="384.329" y="-27.3713" font-family="Helvetica,sans-Serif" font-size="10.00">20</text>
</a>
</g>
</g>
<!-- dir_445738e6fed662d0b65e690e3f1e1de0&#45;&gt;dir_214608ef36d61442cb2b0c1c4e9a7def -->
<g id="edge1" class="edge"><title>dir_445738e6fed662d0b65e690e3f1e1de0&#45;&gt;dir_214608ef36d61442cb2b0c1c4e9a7def</title>
<path fill="none" stroke="black" d="M358.101,-71.6966C354.003,-63.7284 349.051,-54.0995 344.507,-45.2641"/>
<polygon fill="black" stroke="black" points="347.483,-43.3965 339.797,-36.1043 341.258,-46.598 347.483,-43.3965"/>
<g id="a_edge1&#45;headlabel"><a xlink:href="dir_000036_000000.xhtml" target="_top" xlink:title="2">
<text text-anchor="middle" x="351.651" y="-42.7946" font-family="Helvetica,sans-Serif" font-size="10.00">2</text>
</a>
</g>
</g>
<!-- dir_896191444cf08ec8ade6f88256cb2bdd&#45;&gt;dir_214608ef36d61442cb2b0c1c4e9a7def -->
<g id="edge8" class="edge"><title>dir_896191444cf08ec8ade6f88256cb2bdd&#45;&gt;dir_214608ef36d61442cb2b0c1c4e9a7def</title>
<path fill="none" stroke="black" d="M303.899,-71.6966C307.997,-63.7284 312.949,-54.0995 317.493,-45.2641"/>
<polygon fill="black" stroke="black" points="320.742,-46.598 322.203,-36.1043 314.517,-43.3965 320.742,-46.598"/>
<g id="a_edge8&#45;headlabel"><a xlink:href="dir_000035_000000.xhtml" target="_top" xlink:title="2">
<text text-anchor="middle" x="321.623" y="-48.5931" font-family="Helvetica,sans-Serif" font-size="10.00">2</text>
</a>
</g>
</g>
</g>
</svg>
