<?xml version="1.0" encoding="UTF-8" standalone="no"?>
<!DOCTYPE svg PUBLIC "-//W3C//DTD SVG 1.1//EN"
 "http://www.w3.org/Graphics/SVG/1.1/DTD/svg11.dtd">
<!-- Generated by graphviz version 2.38.0 (20140413.2041)
 -->
<!-- Title: tests/validation Pages: 1 -->
<svg width="1272pt" height="375pt"
 viewBox="0.00 0.00 1272.40 375.00" xmlns="http://www.w3.org/2000/svg" xmlns:xlink="http://www.w3.org/1999/xlink">
<g id="graph0" class="graph" transform="scale(1 1) rotate(0) translate(4 371)">
<title>tests/validation</title>
<polygon fill="white" stroke="none" points="-4,4 -4,-371 1268.4,-371 1268.4,4 -4,4"/>
<g id="clust1" class="cluster"><title>clusterdir_59425e443f801f1f2fd8bbe4959a3ccf</title>
<g id="a_clust1"><a xlink:href="dir_59425e443f801f1f2fd8bbe4959a3ccf.xhtml" target="_top" xlink:title="tests">
<polygon fill="#ddddee" stroke="black" points="8,-128 8,-359 504,-359 504,-128 8,-128"/>
<text text-anchor="middle" x="256" y="-347" font-family="Helvetica,sans-Serif" font-size="10.00">tests</text>
</a>
</g>
</g>
<g id="clust2" class="cluster"><title>clusterdir_e7c7b16542faa38cb4655ff1750d3604</title>
<g id="a_clust2"><a xlink:href="dir_e7c7b16542faa38cb4655ff1750d3604.xhtml" target="_top">
<polygon fill="#eeeeff" stroke="black" points="16,-136 16,-332 496,-332 496,-136 16,-136"/>
</a>
</g>
</g>
<!-- dir_e7c7b16542faa38cb4655ff1750d3604 -->
<g id="node1" class="node"><title>dir_e7c7b16542faa38cb4655ff1750d3604</title>
<text text-anchor="middle" x="457" y="-303.5" font-family="Helvetica,sans-Serif" font-size="10.00">validation</text>
</g>
<!-- dir_f7024513cd67abef53e86ee9382ac5ce -->
<g id="node2" class="node"><title>dir_f7024513cd67abef53e86ee9382ac5ce</title>
<g id="a_node2"><a xlink:href="dir_f7024513cd67abef53e86ee9382ac5ce.xhtml" target="_top" xlink:title="CL">
<polygon fill="white" stroke="red" points="150,-324 96,-324 96,-288 150,-288 150,-324"/>
<text text-anchor="middle" x="123" y="-303.5" font-family="Helvetica,sans-Serif" font-size="10.00">CL</text>
</a>
</g>
</g>
<!-- dir_043de5624456f8ee1a676650b1e35f53 -->
<g id="node4" class="node"><title>dir_043de5624456f8ee1a676650b1e35f53</title>
<g id="a_node4"><a xlink:href="dir_043de5624456f8ee1a676650b1e35f53.xhtml" target="_top" xlink:title="fixtures">
<polygon fill="white" stroke="black" points="393,-252 339,-252 339,-216 393,-216 393,-252"/>
<text text-anchor="middle" x="366" y="-231.5" font-family="Helvetica,sans-Serif" font-size="10.00">fixtures</text>
</a>
</g>
</g>
<!-- dir_f7024513cd67abef53e86ee9382ac5ce&#45;&gt;dir_043de5624456f8ee1a676650b1e35f53 -->
<g id="edge31" class="edge"><title>dir_f7024513cd67abef53e86ee9382ac5ce&#45;&gt;dir_043de5624456f8ee1a676650b1e35f53</title>
<path fill="none" stroke="black" d="M150.289,-291.455C153.198,-290.21 156.139,-289.031 159,-288 216.911,-267.128 286.719,-251.046 328.669,-242.314"/>
<polygon fill="black" stroke="black" points="329.618,-245.692 338.71,-240.254 328.211,-238.835 329.618,-245.692"/>
<g id="a_edge31&#45;headlabel"><a xlink:href="dir_000061_000070.xhtml" target="_top" xlink:title="56">
<text text-anchor="middle" x="326.667" y="-246.696" font-family="Helvetica,sans-Serif" font-size="10.00">56</text>
</a>
</g>
</g>
<!-- dir_46fdb196cebdbffe77dac340cde62f29 -->
<g id="node7" class="node"><title>dir_46fdb196cebdbffe77dac340cde62f29</title>
<g id="a_node7"><a xlink:href="dir_46fdb196cebdbffe77dac340cde62f29.xhtml" target="_top" xlink:title="reference">
<polygon fill="white" stroke="black" points="456,-180 394,-180 394,-144 456,-144 456,-180"/>
<text text-anchor="middle" x="425" y="-159.5" font-family="Helvetica,sans-Serif" font-size="10.00">reference</text>
</a>
</g>
</g>
<!-- dir_f7024513cd67abef53e86ee9382ac5ce&#45;&gt;dir_46fdb196cebdbffe77dac340cde62f29 -->
<g id="edge27" class="edge"><title>dir_f7024513cd67abef53e86ee9382ac5ce&#45;&gt;dir_46fdb196cebdbffe77dac340cde62f29</title>
<path fill="none" stroke="black" d="M150.124,-292.185C153.119,-290.772 156.124,-289.355 159,-288 238.958,-250.334 332.495,-206.411 384.628,-181.943"/>
<polygon fill="black" stroke="black" points="386.302,-185.024 393.868,-177.607 383.328,-178.687 386.302,-185.024"/>
<g id="a_edge27&#45;headlabel"><a xlink:href="dir_000061_000009.xhtml" target="_top" xlink:title="1">
<text text-anchor="middle" x="384.254" y="-186.621" font-family="Helvetica,sans-Serif" font-size="10.00">1</text>
</a>
</g>
</g>
<!-- dir_e31c3eb8a08c20d742288af67200e09f -->
<g id="node9" class="node"><title>dir_e31c3eb8a08c20d742288af67200e09f</title>
<g id="a_node9"><a xlink:href="dir_e31c3eb8a08c20d742288af67200e09f.xhtml" target="_top" xlink:title="networks">
<polygon fill="none" stroke="black" points="571.5,-252 512.5,-252 512.5,-216 571.5,-216 571.5,-252"/>
<text text-anchor="middle" x="542" y="-231.5" font-family="Helvetica,sans-Serif" font-size="10.00">networks</text>
</a>
</g>
</g>
<!-- dir_f7024513cd67abef53e86ee9382ac5ce&#45;&gt;dir_e31c3eb8a08c20d742288af67200e09f -->
<g id="edge28" class="edge"><title>dir_f7024513cd67abef53e86ee9382ac5ce&#45;&gt;dir_e31c3eb8a08c20d742288af67200e09f</title>
<path fill="none" stroke="black" d="M150.15,-291.022C153.086,-289.861 156.072,-288.821 159,-288 305.747,-246.884 352.149,-288.949 500,-252 500.744,-251.814 501.492,-251.618 502.244,-251.412"/>
<polygon fill="black" stroke="black" points="503.586,-254.658 512.055,-248.291 501.464,-247.987 503.586,-254.658"/>
<g id="a_edge28&#45;headlabel"><a xlink:href="dir_000061_000089.xhtml" target="_top" xlink:title="2">
<text text-anchor="middle" x="501.021" y="-255.953" font-family="Helvetica,sans-Serif" font-size="10.00">2</text>
</a>
</g>
</g>
<!-- dir_9e71e2da941d3cafc4d98a9f6ae3de4f -->
<g id="node12" class="node"><title>dir_9e71e2da941d3cafc4d98a9f6ae3de4f</title>
<g id="a_node12"><a xlink:href="dir_9e71e2da941d3cafc4d98a9f6ae3de4f.xhtml" target="_top" xlink:title="framework">
<polygon fill="white" stroke="red" points="917.5,-180 850.5,-180 850.5,-144 917.5,-144 917.5,-180"/>
<text text-anchor="middle" x="884" y="-159.5" font-family="Helvetica,sans-Serif" font-size="10.00">framework</text>
</a>
</g>
</g>
<!-- dir_f7024513cd67abef53e86ee9382ac5ce&#45;&gt;dir_9e71e2da941d3cafc4d98a9f6ae3de4f -->
<g id="edge29" class="edge"><title>dir_f7024513cd67abef53e86ee9382ac5ce&#45;&gt;dir_9e71e2da941d3cafc4d98a9f6ae3de4f</title>
<path fill="none" stroke="black" d="M150.106,-290.855C153.051,-289.727 156.05,-288.739 159,-288 236.589,-268.551 820.953,-308.07 878,-252 893.916,-236.357 893.815,-210.125 890.686,-190.181"/>
<polygon fill="black" stroke="black" points="894.083,-189.308 888.78,-180.136 887.205,-190.613 894.083,-189.308"/>
<g id="a_edge29&#45;headlabel"><a xlink:href="dir_000061_000034.xhtml" target="_top" xlink:title="158">
<text text-anchor="middle" x="897.542" y="-189.811" font-family="Helvetica,sans-Serif" font-size="10.00">158</text>
</a>
</g>
</g>
<!-- dir_214608ef36d61442cb2b0c1c4e9a7def -->
<g id="node14" class="node"><title>dir_214608ef36d61442cb2b0c1c4e9a7def</title>
<g id="a_node14"><a xlink:href="dir_214608ef36d61442cb2b0c1c4e9a7def.xhtml" target="_top" xlink:title="arm_compute">
<polygon fill="white" stroke="red" points="788,-108 704,-108 704,-72 788,-72 788,-108"/>
<text text-anchor="middle" x="746" y="-87.5" font-family="Helvetica,sans-Serif" font-size="10.00">arm_compute</text>
</a>
</g>
</g>
<!-- dir_f7024513cd67abef53e86ee9382ac5ce&#45;&gt;dir_214608ef36d61442cb2b0c1c4e9a7def -->
<g id="edge30" class="edge"><title>dir_f7024513cd67abef53e86ee9382ac5ce&#45;&gt;dir_214608ef36d61442cb2b0c1c4e9a7def</title>
<path fill="none" stroke="black" d="M150.124,-290.924C153.065,-289.782 156.059,-288.773 159,-288 265.455,-260.027 553.401,-298.854 653,-252 693.106,-233.133 700.218,-218.6 722,-180 732.848,-160.776 738.974,-136.432 742.316,-118.065"/>
<polygon fill="black" stroke="black" points="745.798,-118.462 743.978,-108.025 738.892,-117.32 745.798,-118.462"/>
<g id="a_edge30&#45;headlabel"><a xlink:href="dir_000061_000000.xhtml" target="_top" xlink:title="217">
<text text-anchor="middle" x="748.012" y="-119.972" font-family="Helvetica,sans-Serif" font-size="10.00">217</text>
</a>
</g>
</g>
<!-- dir_e13277e8d7d14f3f15e64267bfca6477 -->
<g id="node15" class="node"><title>dir_e13277e8d7d14f3f15e64267bfca6477</title>
<g id="a_node15"><a xlink:href="dir_e13277e8d7d14f3f15e64267bfca6477.xhtml" target="_top" xlink:title="datasets">
<polygon fill="white" stroke="red" points="869.5,-252 810.5,-252 810.5,-216 869.5,-216 869.5,-252"/>
<text text-anchor="middle" x="840" y="-231.5" font-family="Helvetica,sans-Serif" font-size="10.00">datasets</text>
</a>
</g>
</g>
<!-- dir_f7024513cd67abef53e86ee9382ac5ce&#45;&gt;dir_e13277e8d7d14f3f15e64267bfca6477 -->
<g id="edge32" class="edge"><title>dir_f7024513cd67abef53e86ee9382ac5ce&#45;&gt;dir_e13277e8d7d14f3f15e64267bfca6477</title>
<path fill="none" stroke="black" d="M150.111,-290.873C153.054,-289.742 156.052,-288.748 159,-288 432.75,-218.509 520.912,-315.806 800.118,-251.624"/>
<polygon fill="black" stroke="black" points="801.197,-254.966 810.132,-249.272 799.596,-248.152 801.197,-254.966"/>
<g id="a_edge32&#45;headlabel"><a xlink:href="dir_000061_000072.xhtml" target="_top" xlink:title="96">
<text text-anchor="middle" x="798.346" y="-256.052" font-family="Helvetica,sans-Serif" font-size="10.00">96</text>
</a>
</g>
</g>
<!-- dir_896191444cf08ec8ade6f88256cb2bdd -->
<g id="node16" class="node"><title>dir_896191444cf08ec8ade6f88256cb2bdd</title>
<g id="a_node16"><a xlink:href="dir_896191444cf08ec8ade6f88256cb2bdd.xhtml" target="_top" xlink:title="CL">
<polygon fill="none" stroke="black" points="792,-252 738,-252 738,-216 792,-216 792,-252"/>
<text text-anchor="middle" x="765" y="-231.5" font-family="Helvetica,sans-Serif" font-size="10.00">CL</text>
</a>
</g>
</g>
<!-- dir_f7024513cd67abef53e86ee9382ac5ce&#45;&gt;dir_896191444cf08ec8ade6f88256cb2bdd -->
<g id="edge33" class="edge"><title>dir_f7024513cd67abef53e86ee9382ac5ce&#45;&gt;dir_896191444cf08ec8ade6f88256cb2bdd</title>
<path fill="none" stroke="black" d="M150.117,-290.897C153.059,-289.76 156.055,-288.759 159,-288 402.648,-225.162 478.911,-308.958 724,-252 725.267,-251.706 726.544,-251.376 727.826,-251.018"/>
<polygon fill="black" stroke="black" points="729.215,-254.245 737.62,-247.796 727.027,-247.596 729.215,-254.245"/>
<g id="a_edge33&#45;headlabel"><a xlink:href="dir_000061_000071.xhtml" target="_top" xlink:title="61">
<text text-anchor="middle" x="726.687" y="-255.566" font-family="Helvetica,sans-Serif" font-size="10.00">61</text>
</a>
</g>
</g>
<!-- dir_420d2db1b9c99f59825a3985434c3703 -->
<g id="node3" class="node"><title>dir_420d2db1b9c99f59825a3985434c3703</title>
<g id="a_node3"><a xlink:href="dir_420d2db1b9c99f59825a3985434c3703.xhtml" target="_top" xlink:title="CPP">
<polygon fill="white" stroke="black" points="222,-324 168,-324 168,-288 222,-288 222,-324"/>
<text text-anchor="middle" x="195" y="-303.5" font-family="Helvetica,sans-Serif" font-size="10.00">CPP</text>
</a>
</g>
</g>
<!-- dir_420d2db1b9c99f59825a3985434c3703&#45;&gt;dir_043de5624456f8ee1a676650b1e35f53 -->
<g id="edge49" class="edge"><title>dir_420d2db1b9c99f59825a3985434c3703&#45;&gt;dir_043de5624456f8ee1a676650b1e35f53</title>
<path fill="none" stroke="black" d="M222.038,-291.994C225.049,-290.617 228.081,-289.26 231,-288 263.94,-273.776 302.038,-258.965 329.345,-248.628"/>
<polygon fill="black" stroke="black" points="330.765,-251.833 338.888,-245.032 328.296,-245.283 330.765,-251.833"/>
<g id="a_edge49&#45;headlabel"><a xlink:href="dir_000092_000070.xhtml" target="_top" xlink:title="1">
<text text-anchor="middle" x="328.403" y="-253.258" font-family="Helvetica,sans-Serif" font-size="10.00">1</text>
</a>
</g>
</g>
<!-- dir_445738e6fed662d0b65e690e3f1e1de0 -->
<g id="node11" class="node"><title>dir_445738e6fed662d0b65e690e3f1e1de0</title>
<g id="a_node11"><a xlink:href="dir_445738e6fed662d0b65e690e3f1e1de0.xhtml" target="_top" xlink:title="NEON">
<polygon fill="none" stroke="black" points="644,-252 590,-252 590,-216 644,-216 644,-252"/>
<text text-anchor="middle" x="617" y="-231.5" font-family="Helvetica,sans-Serif" font-size="10.00">NEON</text>
</a>
</g>
</g>
<!-- dir_420d2db1b9c99f59825a3985434c3703&#45;&gt;dir_445738e6fed662d0b65e690e3f1e1de0 -->
<g id="edge46" class="edge"><title>dir_420d2db1b9c99f59825a3985434c3703&#45;&gt;dir_445738e6fed662d0b65e690e3f1e1de0</title>
<path fill="none" stroke="black" d="M222.148,-291.015C225.085,-289.855 228.071,-288.817 231,-288 381.202,-246.109 429.58,-293.102 580,-252 580.102,-251.972 580.205,-251.944 580.307,-251.915"/>
<polygon fill="black" stroke="black" points="581.553,-255.189 589.897,-248.66 579.303,-248.56 581.553,-255.189"/>
<g id="a_edge46&#45;headlabel"><a xlink:href="dir_000092_000088.xhtml" target="_top" xlink:title="1">
<text text-anchor="middle" x="579.062" y="-256.533" font-family="Helvetica,sans-Serif" font-size="10.00">1</text>
</a>
</g>
</g>
<!-- dir_420d2db1b9c99f59825a3985434c3703&#45;&gt;dir_9e71e2da941d3cafc4d98a9f6ae3de4f -->
<g id="edge47" class="edge"><title>dir_420d2db1b9c99f59825a3985434c3703&#45;&gt;dir_9e71e2da941d3cafc4d98a9f6ae3de4f</title>
<path fill="none" stroke="black" d="M222.108,-290.864C225.052,-289.734 228.051,-288.744 231,-288 304.473,-269.474 859.854,-306.975 912,-252 928.24,-234.879 916.928,-208.42 904.163,-188.798"/>
<polygon fill="black" stroke="black" points="906.862,-186.547 898.29,-180.321 901.108,-190.534 906.862,-186.547"/>
<g id="a_edge47&#45;headlabel"><a xlink:href="dir_000092_000034.xhtml" target="_top" xlink:title="3">
<text text-anchor="middle" x="911.243" y="-185.385" font-family="Helvetica,sans-Serif" font-size="10.00">3</text>
</a>
</g>
</g>
<!-- dir_420d2db1b9c99f59825a3985434c3703&#45;&gt;dir_214608ef36d61442cb2b0c1c4e9a7def -->
<g id="edge48" class="edge"><title>dir_420d2db1b9c99f59825a3985434c3703&#45;&gt;dir_214608ef36d61442cb2b0c1c4e9a7def</title>
<path fill="none" stroke="black" d="M222.107,-290.859C225.052,-289.73 228.051,-288.741 231,-288 306.531,-269.013 877.363,-308.466 931,-252 947.425,-234.708 958.642,-165.791 926,-128 909.583,-108.993 845.273,-99.37 798.191,-94.7778"/>
<polygon fill="black" stroke="black" points="798.411,-91.2833 788.131,-93.8465 797.766,-98.2535 798.411,-91.2833"/>
<g id="a_edge48&#45;headlabel"><a xlink:href="dir_000092_000000.xhtml" target="_top" xlink:title="4">
<text text-anchor="middle" x="802.252" y="-86.2874" font-family="Helvetica,sans-Serif" font-size="10.00">4</text>
</a>
</g>
</g>
<!-- dir_420d2db1b9c99f59825a3985434c3703&#45;&gt;dir_e13277e8d7d14f3f15e64267bfca6477 -->
<g id="edge50" class="edge"><title>dir_420d2db1b9c99f59825a3985434c3703&#45;&gt;dir_e13277e8d7d14f3f15e64267bfca6477</title>
<path fill="none" stroke="black" d="M222.116,-290.895C225.059,-289.759 228.055,-288.759 231,-288 473.572,-225.511 552.19,-309.349 800.099,-251.639"/>
<polygon fill="black" stroke="black" points="801.21,-254.973 810.126,-249.25 799.587,-248.163 801.21,-254.973"/>
<g id="a_edge50&#45;headlabel"><a xlink:href="dir_000092_000072.xhtml" target="_top" xlink:title="1">
<text text-anchor="middle" x="798.371" y="-256.068" font-family="Helvetica,sans-Serif" font-size="10.00">1</text>
</a>
</g>
</g>
<!-- dir_043de5624456f8ee1a676650b1e35f53&#45;&gt;dir_46fdb196cebdbffe77dac340cde62f29 -->
<g id="edge22" class="edge"><title>dir_043de5624456f8ee1a676650b1e35f53&#45;&gt;dir_46fdb196cebdbffe77dac340cde62f29</title>
<path fill="none" stroke="black" d="M380.584,-215.697C387.658,-207.305 396.283,-197.07 404.045,-187.861"/>
<polygon fill="black" stroke="black" points="406.815,-190.006 410.583,-180.104 401.463,-185.495 406.815,-190.006"/>
<g id="a_edge22&#45;headlabel"><a xlink:href="dir_000070_000009.xhtml" target="_top" xlink:title="67">
<text text-anchor="middle" x="406.669" y="-192.085" font-family="Helvetica,sans-Serif" font-size="10.00">67</text>
</a>
</g>
</g>
<!-- dir_cbdb8362360e11eafe2fa3bc74cf0ffd -->
<g id="node10" class="node"><title>dir_cbdb8362360e11eafe2fa3bc74cf0ffd</title>
<g id="a_node10"><a xlink:href="dir_cbdb8362360e11eafe2fa3bc74cf0ffd.xhtml" target="_top" xlink:title="utils">
<polygon fill="none" stroke="black" points="680,-180 626,-180 626,-144 680,-144 680,-180"/>
<text text-anchor="middle" x="653" y="-159.5" font-family="Helvetica,sans-Serif" font-size="10.00">utils</text>
</a>
</g>
</g>
<!-- dir_043de5624456f8ee1a676650b1e35f53&#45;&gt;dir_cbdb8362360e11eafe2fa3bc74cf0ffd -->
<g id="edge23" class="edge"><title>dir_043de5624456f8ee1a676650b1e35f53&#45;&gt;dir_cbdb8362360e11eafe2fa3bc74cf0ffd</title>
<path fill="none" stroke="black" d="M393,-226.415C444.602,-213.829 557.295,-186.343 615.914,-172.045"/>
<polygon fill="black" stroke="black" points="616.977,-175.389 625.862,-169.619 615.318,-168.588 616.977,-175.389"/>
<g id="a_edge23&#45;headlabel"><a xlink:href="dir_000070_000035.xhtml" target="_top" xlink:title="1">
<text text-anchor="middle" x="614.157" y="-176.499" font-family="Helvetica,sans-Serif" font-size="10.00">1</text>
</a>
</g>
</g>
<!-- dir_043de5624456f8ee1a676650b1e35f53&#45;&gt;dir_9e71e2da941d3cafc4d98a9f6ae3de4f -->
<g id="edge24" class="edge"><title>dir_043de5624456f8ee1a676650b1e35f53&#45;&gt;dir_9e71e2da941d3cafc4d98a9f6ae3de4f</title>
<path fill="none" stroke="black" d="M393.121,-229.335C477.548,-217.926 736.233,-182.968 840.13,-168.928"/>
<polygon fill="black" stroke="black" points="840.833,-172.365 850.274,-167.558 839.895,-165.428 840.833,-172.365"/>
<g id="a_edge24&#45;headlabel"><a xlink:href="dir_000070_000034.xhtml" target="_top" xlink:title="126">
<text text-anchor="middle" x="837.651" y="-173.16" font-family="Helvetica,sans-Serif" font-size="10.00">126</text>
</a>
</g>
</g>
<!-- dir_043de5624456f8ee1a676650b1e35f53&#45;&gt;dir_214608ef36d61442cb2b0c1c4e9a7def -->
<g id="edge25" class="edge"><title>dir_043de5624456f8ee1a676650b1e35f53&#45;&gt;dir_214608ef36d61442cb2b0c1c4e9a7def</title>
<path fill="none" stroke="black" d="M393.211,-219.172C413.281,-208.795 441.13,-194.022 465,-180 501.887,-158.332 506.222,-143.742 546,-128 593.976,-109.014 652.341,-99.6478 693.606,-95.1048"/>
<polygon fill="black" stroke="black" points="694.129,-98.5693 703.712,-94.0508 693.403,-91.6071 694.129,-98.5693"/>
<g id="a_edge25&#45;headlabel"><a xlink:href="dir_000070_000000.xhtml" target="_top" xlink:title="139">
<text text-anchor="middle" x="690.849" y="-99.2661" font-family="Helvetica,sans-Serif" font-size="10.00">139</text>
</a>
</g>
</g>
<!-- dir_5815af820a9cc9481f1d0990a0d60286 -->
<g id="node17" class="node"><title>dir_5815af820a9cc9481f1d0990a0d60286</title>
<g id="a_node17"><a xlink:href="dir_5815af820a9cc9481f1d0990a0d60286.xhtml" target="_top" xlink:title="support">
<polygon fill="none" stroke="black" points="549,-36 495,-36 495,-0 549,-0 549,-36"/>
<text text-anchor="middle" x="522" y="-15.5" font-family="Helvetica,sans-Serif" font-size="10.00">support</text>
</a>
</g>
</g>
<!-- dir_043de5624456f8ee1a676650b1e35f53&#45;&gt;dir_5815af820a9cc9481f1d0990a0d60286 -->
<g id="edge26" class="edge"><title>dir_043de5624456f8ee1a676650b1e35f53&#45;&gt;dir_5815af820a9cc9481f1d0990a0d60286</title>
<path fill="none" stroke="black" d="M365.51,-215.719C365.659,-193.788 368.554,-155.507 385,-128 409.133,-87.6364 454.14,-56.2466 485.973,-37.728"/>
<polygon fill="black" stroke="black" points="488.007,-40.5986 494.982,-32.6239 484.556,-34.5081 488.007,-40.5986"/>
<g id="a_edge26&#45;headlabel"><a xlink:href="dir_000070_000057.xhtml" target="_top" xlink:title="1">
<text text-anchor="middle" x="486.279" y="-42.3408" font-family="Helvetica,sans-Serif" font-size="10.00">1</text>
</a>
</g>
</g>
<!-- dir_fbdf7bf92663091dc4d5520df638c068 -->
<g id="node5" class="node"><title>dir_fbdf7bf92663091dc4d5520df638c068</title>
<g id="a_node5"><a xlink:href="dir_fbdf7bf92663091dc4d5520df638c068.xhtml" target="_top" xlink:title="GLES_COMPUTE">
<polygon fill="white" stroke="black" points="335.5,-324 240.5,-324 240.5,-288 335.5,-288 335.5,-324"/>
<text text-anchor="middle" x="288" y="-303.5" font-family="Helvetica,sans-Serif" font-size="10.00">GLES_COMPUTE</text>
</a>
</g>
</g>
<!-- dir_fbdf7bf92663091dc4d5520df638c068&#45;&gt;dir_043de5624456f8ee1a676650b1e35f53 -->
<g id="edge9" class="edge"><title>dir_fbdf7bf92663091dc4d5520df638c068&#45;&gt;dir_043de5624456f8ee1a676650b1e35f53</title>
<path fill="none" stroke="black" d="M307.281,-287.697C316.915,-279.05 328.729,-268.449 339.227,-259.027"/>
<polygon fill="black" stroke="black" points="341.836,-261.388 346.941,-252.104 337.161,-256.179 341.836,-261.388"/>
<g id="a_edge9&#45;headlabel"><a xlink:href="dir_000062_000070.xhtml" target="_top" xlink:title="10">
<text text-anchor="middle" x="341.057" y="-263.402" font-family="Helvetica,sans-Serif" font-size="10.00">10</text>
</a>
</g>
</g>
<!-- dir_fbdf7bf92663091dc4d5520df638c068&#45;&gt;dir_9e71e2da941d3cafc4d98a9f6ae3de4f -->
<g id="edge6" class="edge"><title>dir_fbdf7bf92663091dc4d5520df638c068&#45;&gt;dir_9e71e2da941d3cafc4d98a9f6ae3de4f</title>
<path fill="none" stroke="black" d="M335.7,-289.892C338.829,-289.174 341.948,-288.533 345,-288 415.49,-275.69 938.837,-303.993 988,-252 998.993,-240.374 996.359,-229.643 988,-216 974.719,-194.326 949.484,-181.167 927.198,-173.382"/>
<polygon fill="black" stroke="black" points="928.138,-170.008 917.546,-170.269 925.989,-176.67 928.138,-170.008"/>
<g id="a_edge6&#45;headlabel"><a xlink:href="dir_000062_000034.xhtml" target="_top" xlink:title="30">
<text text-anchor="middle" x="932.43" y="-165.909" font-family="Helvetica,sans-Serif" font-size="10.00">30</text>
</a>
</g>
</g>
<!-- dir_7365e77196b52ca311bb83f181e59b8c -->
<g id="node13" class="node"><title>dir_7365e77196b52ca311bb83f181e59b8c</title>
<g id="a_node13"><a xlink:href="dir_7365e77196b52ca311bb83f181e59b8c.xhtml" target="_top" xlink:title="GLES_COMPUTE">
<polygon fill="none" stroke="black" points="1211.5,-252 1116.5,-252 1116.5,-216 1211.5,-216 1211.5,-252"/>
<text text-anchor="middle" x="1164" y="-231.5" font-family="Helvetica,sans-Serif" font-size="10.00">GLES_COMPUTE</text>
</a>
</g>
</g>
<!-- dir_fbdf7bf92663091dc4d5520df638c068&#45;&gt;dir_7365e77196b52ca311bb83f181e59b8c -->
<g id="edge7" class="edge"><title>dir_fbdf7bf92663091dc4d5520df638c068&#45;&gt;dir_7365e77196b52ca311bb83f181e59b8c</title>
<path fill="none" stroke="black" d="M335.695,-289.862C338.825,-289.152 341.946,-288.52 345,-288 677.044,-231.452 769.348,-304.854 1102,-252 1103.3,-251.793 1104.62,-251.569 1105.94,-251.33"/>
<polygon fill="black" stroke="black" points="1107.07,-254.671 1116.16,-249.235 1105.67,-247.813 1107.07,-254.671"/>
<g id="a_edge7&#45;headlabel"><a xlink:href="dir_000062_000087.xhtml" target="_top" xlink:title="12">
<text text-anchor="middle" x="1104.12" y="-255.674" font-family="Helvetica,sans-Serif" font-size="10.00">12</text>
</a>
</g>
</g>
<!-- dir_fbdf7bf92663091dc4d5520df638c068&#45;&gt;dir_214608ef36d61442cb2b0c1c4e9a7def -->
<g id="edge8" class="edge"><title>dir_fbdf7bf92663091dc4d5520df638c068&#45;&gt;dir_214608ef36d61442cb2b0c1c4e9a7def</title>
<path fill="none" stroke="black" d="M335.696,-289.871C338.826,-289.159 341.947,-288.524 345,-288 423.837,-274.472 1008.87,-309.958 1064,-252 1101.98,-212.068 1100.65,-169.16 1064,-128 1046.66,-108.529 883.926,-97.7244 798.23,-93.3416"/>
<polygon fill="black" stroke="black" points="798.338,-89.8427 788.176,-92.8388 797.989,-96.834 798.338,-89.8427"/>
<g id="a_edge8&#45;headlabel"><a xlink:href="dir_000062_000000.xhtml" target="_top" xlink:title="41">
<text text-anchor="middle" x="802.07" y="-84.6864" font-family="Helvetica,sans-Serif" font-size="10.00">41</text>
</a>
</g>
</g>
<!-- dir_fbdf7bf92663091dc4d5520df638c068&#45;&gt;dir_e13277e8d7d14f3f15e64267bfca6477 -->
<g id="edge10" class="edge"><title>dir_fbdf7bf92663091dc4d5520df638c068&#45;&gt;dir_e13277e8d7d14f3f15e64267bfca6477</title>
<path fill="none" stroke="black" d="M335.715,-289.973C338.84,-289.236 341.955,-288.568 345,-288 541.634,-251.341 601.835,-299.69 800.253,-251.64"/>
<polygon fill="black" stroke="black" points="801.247,-254.999 810.114,-249.2 799.566,-248.204 801.247,-254.999"/>
<g id="a_edge10&#45;headlabel"><a xlink:href="dir_000062_000072.xhtml" target="_top" xlink:title="15">
<text text-anchor="middle" x="798.439" y="-256.119" font-family="Helvetica,sans-Serif" font-size="10.00">15</text>
</a>
</g>
</g>
<!-- dir_0538a82dae0483a21d0f1e9d7e0a45c6 -->
<g id="node6" class="node"><title>dir_0538a82dae0483a21d0f1e9d7e0a45c6</title>
<g id="a_node6"><a xlink:href="dir_0538a82dae0483a21d0f1e9d7e0a45c6.xhtml" target="_top" xlink:title="NEON">
<polygon fill="white" stroke="red" points="78,-324 24,-324 24,-288 78,-288 78,-324"/>
<text text-anchor="middle" x="51" y="-303.5" font-family="Helvetica,sans-Serif" font-size="10.00">NEON</text>
</a>
</g>
</g>
<!-- dir_0538a82dae0483a21d0f1e9d7e0a45c6&#45;&gt;dir_043de5624456f8ee1a676650b1e35f53 -->
<g id="edge42" class="edge"><title>dir_0538a82dae0483a21d0f1e9d7e0a45c6&#45;&gt;dir_043de5624456f8ee1a676650b1e35f53</title>
<path fill="none" stroke="black" d="M78.2251,-291.269C81.1465,-290.06 84.1079,-288.941 87,-288 171.175,-260.622 274.503,-245.578 328.722,-239.033"/>
<polygon fill="black" stroke="black" points="329.368,-242.482 338.891,-237.837 328.55,-235.53 329.368,-242.482"/>
<g id="a_edge42&#45;headlabel"><a xlink:href="dir_000063_000070.xhtml" target="_top" xlink:title="62">
<text text-anchor="middle" x="326.13" y="-243.221" font-family="Helvetica,sans-Serif" font-size="10.00">62</text>
</a>
</g>
</g>
<!-- dir_0538a82dae0483a21d0f1e9d7e0a45c6&#45;&gt;dir_46fdb196cebdbffe77dac340cde62f29 -->
<g id="edge37" class="edge"><title>dir_0538a82dae0483a21d0f1e9d7e0a45c6&#45;&gt;dir_46fdb196cebdbffe77dac340cde62f29</title>
<path fill="none" stroke="black" d="M78.2307,-290.031C113.736,-270.954 178.146,-237.836 236,-216 285.755,-197.221 345.082,-181.642 383.822,-172.34"/>
<polygon fill="black" stroke="black" points="384.771,-175.712 393.693,-169.999 383.155,-168.901 384.771,-175.712"/>
<g id="a_edge37&#45;headlabel"><a xlink:href="dir_000063_000009.xhtml" target="_top" xlink:title="2">
<text text-anchor="middle" x="381.928" y="-176.805" font-family="Helvetica,sans-Serif" font-size="10.00">2</text>
</a>
</g>
</g>
<!-- dir_0538a82dae0483a21d0f1e9d7e0a45c6&#45;&gt;dir_e31c3eb8a08c20d742288af67200e09f -->
<g id="edge38" class="edge"><title>dir_0538a82dae0483a21d0f1e9d7e0a45c6&#45;&gt;dir_e31c3eb8a08c20d742288af67200e09f</title>
<path fill="none" stroke="black" d="M78.1351,-290.967C81.0741,-289.817 84.0642,-288.794 87,-288 264.865,-239.909 320.846,-295.041 500,-252 500.746,-251.821 501.496,-251.631 502.248,-251.431"/>
<polygon fill="black" stroke="black" points="503.571,-254.684 512.072,-248.36 501.483,-248.003 503.571,-254.684"/>
<g id="a_edge38&#45;headlabel"><a xlink:href="dir_000063_000089.xhtml" target="_top" xlink:title="2">
<text text-anchor="middle" x="500.987" y="-255.966" font-family="Helvetica,sans-Serif" font-size="10.00">2</text>
</a>
</g>
</g>
<!-- dir_0538a82dae0483a21d0f1e9d7e0a45c6&#45;&gt;dir_445738e6fed662d0b65e690e3f1e1de0 -->
<g id="edge39" class="edge"><title>dir_0538a82dae0483a21d0f1e9d7e0a45c6&#45;&gt;dir_445738e6fed662d0b65e690e3f1e1de0</title>
<path fill="none" stroke="black" d="M78.1238,-290.925C81.065,-289.783 84.0587,-288.773 87,-288 299.477,-232.15 367.233,-306.735 580,-252 580.103,-251.974 580.205,-251.947 580.308,-251.92"/>
<polygon fill="black" stroke="black" points="581.517,-255.207 589.923,-248.757 579.33,-248.557 581.517,-255.207"/>
<g id="a_edge39&#45;headlabel"><a xlink:href="dir_000063_000088.xhtml" target="_top" xlink:title="67">
<text text-anchor="middle" x="578.99" y="-256.527" font-family="Helvetica,sans-Serif" font-size="10.00">67</text>
</a>
</g>
</g>
<!-- dir_0538a82dae0483a21d0f1e9d7e0a45c6&#45;&gt;dir_9e71e2da941d3cafc4d98a9f6ae3de4f -->
<g id="edge40" class="edge"><title>dir_0538a82dae0483a21d0f1e9d7e0a45c6&#45;&gt;dir_9e71e2da941d3cafc4d98a9f6ae3de4f</title>
<path fill="none" stroke="black" d="M78.1164,-290.896C81.0591,-289.76 84.0551,-288.759 87,-288 331.081,-225.065 408.957,-315.081 653,-252 689.186,-242.646 694.373,-230.069 729,-216 766.089,-200.931 809.254,-186.409 840.6,-176.389"/>
<polygon fill="black" stroke="black" points="841.866,-179.659 850.339,-173.299 839.749,-172.987 841.866,-179.659"/>
<g id="a_edge40&#45;headlabel"><a xlink:href="dir_000063_000034.xhtml" target="_top" xlink:title="176">
<text text-anchor="middle" x="839.298" y="-180.953" font-family="Helvetica,sans-Serif" font-size="10.00">176</text>
</a>
</g>
</g>
<!-- dir_0538a82dae0483a21d0f1e9d7e0a45c6&#45;&gt;dir_214608ef36d61442cb2b0c1c4e9a7def -->
<g id="edge41" class="edge"><title>dir_0538a82dae0483a21d0f1e9d7e0a45c6&#45;&gt;dir_214608ef36d61442cb2b0c1c4e9a7def</title>
<path fill="none" stroke="black" d="M78.1576,-291.048C81.0922,-289.882 84.0751,-288.833 87,-288 222.521,-249.399 268.73,-297.772 402,-252 460.105,-232.044 471.36,-217.531 520,-180 546.379,-159.646 544.59,-143.657 574,-128 611.177,-108.208 658.205,-99.0026 693.687,-94.7214"/>
<polygon fill="black" stroke="black" points="694.285,-98.1766 703.836,-93.5921 693.511,-91.2195 694.285,-98.1766"/>
<g id="a_edge41&#45;headlabel"><a xlink:href="dir_000063_000000.xhtml" target="_top" xlink:title="239">
<text text-anchor="middle" x="691.026" y="-98.8959" font-family="Helvetica,sans-Serif" font-size="10.00">239</text>
</a>
</g>
</g>
<!-- dir_0538a82dae0483a21d0f1e9d7e0a45c6&#45;&gt;dir_e13277e8d7d14f3f15e64267bfca6477 -->
<g id="edge43" class="edge"><title>dir_0538a82dae0483a21d0f1e9d7e0a45c6&#45;&gt;dir_e13277e8d7d14f3f15e64267bfca6477</title>
<path fill="none" stroke="black" d="M78.1063,-290.856C81.0509,-289.728 84.0502,-288.74 87,-288 391.877,-211.522 489.585,-322.233 799.949,-251.654"/>
<polygon fill="black" stroke="black" points="801.186,-254.96 810.136,-249.29 799.603,-248.141 801.186,-254.96"/>
<g id="a_edge43&#45;headlabel"><a xlink:href="dir_000063_000072.xhtml" target="_top" xlink:title="102">
<text text-anchor="middle" x="798.326" y="-256.038" font-family="Helvetica,sans-Serif" font-size="10.00">102</text>
</a>
</g>
</g>
<!-- dir_0538a82dae0483a21d0f1e9d7e0a45c6&#45;&gt;dir_5815af820a9cc9481f1d0990a0d60286 -->
<g id="edge44" class="edge"><title>dir_0538a82dae0483a21d0f1e9d7e0a45c6&#45;&gt;dir_5815af820a9cc9481f1d0990a0d60286</title>
<path fill="none" stroke="black" d="M67.9546,-287.775C86.9674,-268.946 119.187,-238.468 150,-216 252.674,-141.132 283.388,-128.916 397,-72 426.024,-57.4599 459.996,-43.2254 485.192,-33.1757"/>
<polygon fill="black" stroke="black" points="486.718,-36.3361 494.73,-29.4039 484.144,-29.8266 486.718,-36.3361"/>
<g id="a_edge44&#45;headlabel"><a xlink:href="dir_000063_000057.xhtml" target="_top" xlink:title="2">
<text text-anchor="middle" x="484.42" y="-37.7983" font-family="Helvetica,sans-Serif" font-size="10.00">2</text>
</a>
</g>
</g>
<!-- dir_46fdb196cebdbffe77dac340cde62f29&#45;&gt;dir_9e71e2da941d3cafc4d98a9f6ae3de4f -->
<g id="edge1" class="edge"><title>dir_46fdb196cebdbffe77dac340cde62f29&#45;&gt;dir_9e71e2da941d3cafc4d98a9f6ae3de4f</title>
<path fill="none" stroke="black" d="M456.25,-172.404C524.862,-193.614 693.222,-236.709 827,-198 836.165,-195.348 845.272,-190.735 853.43,-185.678"/>
<polygon fill="black" stroke="black" points="855.463,-188.53 861.867,-180.089 851.597,-182.694 855.463,-188.53"/>
<g id="a_edge1&#45;headlabel"><a xlink:href="dir_000009_000034.xhtml" target="_top" xlink:title="1">
<text text-anchor="middle" x="854.035" y="-190.382" font-family="Helvetica,sans-Serif" font-size="10.00">1</text>
</a>
</g>
</g>
<!-- dir_46fdb196cebdbffe77dac340cde62f29&#45;&gt;dir_214608ef36d61442cb2b0c1c4e9a7def -->
<g id="edge2" class="edge"><title>dir_46fdb196cebdbffe77dac340cde62f29&#45;&gt;dir_214608ef36d61442cb2b0c1c4e9a7def</title>
<path fill="none" stroke="black" d="M443.87,-143.896C451.475,-137.918 460.654,-131.765 470,-128 543.665,-98.3201 636.44,-91.4956 693.465,-90.4154"/>
<polygon fill="black" stroke="black" points="693.732,-93.9122 703.684,-90.2763 693.637,-86.9128 693.732,-93.9122"/>
<g id="a_edge2&#45;headlabel"><a xlink:href="dir_000009_000000.xhtml" target="_top" xlink:title="31">
<text text-anchor="middle" x="690.177" y="-94.3" font-family="Helvetica,sans-Serif" font-size="10.00">31</text>
</a>
</g>
</g>
<!-- dir_46fdb196cebdbffe77dac340cde62f29&#45;&gt;dir_5815af820a9cc9481f1d0990a0d60286 -->
<g id="edge3" class="edge"><title>dir_46fdb196cebdbffe77dac340cde62f29&#45;&gt;dir_5815af820a9cc9481f1d0990a0d60286</title>
<path fill="none" stroke="black" d="M436.7,-143.871C453.596,-119.137 484.947,-73.2424 504.573,-44.5121"/>
<polygon fill="black" stroke="black" points="507.507,-46.4209 510.258,-36.1893 501.727,-42.4724 507.507,-46.4209"/>
<g id="a_edge3&#45;headlabel"><a xlink:href="dir_000009_000057.xhtml" target="_top" xlink:title="1">
<text text-anchor="middle" x="507.824" y="-48.4905" font-family="Helvetica,sans-Serif" font-size="10.00">1</text>
</a>
</g>
</g>
<!-- dir_0c108762cda89b68d4571cbbabdf46df -->
<g id="node8" class="node"><title>dir_0c108762cda89b68d4571cbbabdf46df</title>
<g id="a_node8"><a xlink:href="dir_0c108762cda89b68d4571cbbabdf46df.xhtml" target="_top" xlink:title="UNIT">
<polygon fill="white" stroke="black" points="408,-324 354,-324 354,-288 408,-288 408,-324"/>
<text text-anchor="middle" x="381" y="-303.5" font-family="Helvetica,sans-Serif" font-size="10.00">UNIT</text>
</a>
</g>
</g>
<!-- dir_0c108762cda89b68d4571cbbabdf46df&#45;&gt;dir_cbdb8362360e11eafe2fa3bc74cf0ffd -->
<g id="edge18" class="edge"><title>dir_0c108762cda89b68d4571cbbabdf46df&#45;&gt;dir_cbdb8362360e11eafe2fa3bc74cf0ffd</title>
<path fill="none" stroke="black" d="M408.128,-290.94C411.068,-289.795 414.061,-288.781 417,-288 466.657,-274.814 843.113,-289.718 878,-252 934.665,-190.738 767.896,-170.961 690.34,-165.175"/>
<polygon fill="black" stroke="black" points="690.243,-161.659 680.022,-164.448 689.751,-168.642 690.243,-161.659"/>
<g id="a_edge18&#45;headlabel"><a xlink:href="dir_000093_000035.xhtml" target="_top" xlink:title="2">
<text text-anchor="middle" x="694.028" y="-156.579" font-family="Helvetica,sans-Serif" font-size="10.00">2</text>
</a>
</g>
</g>
<!-- dir_0c108762cda89b68d4571cbbabdf46df&#45;&gt;dir_9e71e2da941d3cafc4d98a9f6ae3de4f -->
<g id="edge19" class="edge"><title>dir_0c108762cda89b68d4571cbbabdf46df&#45;&gt;dir_9e71e2da941d3cafc4d98a9f6ae3de4f</title>
<path fill="none" stroke="black" d="M408.102,-290.839C411.047,-289.714 414.048,-288.732 417,-288 503.796,-266.487 1159.2,-316.63 1221,-252 1232.06,-240.436 1231.4,-228.161 1221,-216 1183.77,-172.454 1010.33,-164.456 927.826,-163.147"/>
<polygon fill="black" stroke="black" points="927.802,-159.647 917.757,-163.014 927.709,-166.646 927.802,-159.647"/>
<g id="a_edge19&#45;headlabel"><a xlink:href="dir_000093_000034.xhtml" target="_top" xlink:title="11">
<text text-anchor="middle" x="931.434" y="-154.355" font-family="Helvetica,sans-Serif" font-size="10.00">11</text>
</a>
</g>
</g>
<!-- dir_0c108762cda89b68d4571cbbabdf46df&#45;&gt;dir_214608ef36d61442cb2b0c1c4e9a7def -->
<g id="edge20" class="edge"><title>dir_0c108762cda89b68d4571cbbabdf46df&#45;&gt;dir_214608ef36d61442cb2b0c1c4e9a7def</title>
<path fill="none" stroke="black" d="M408.101,-290.836C411.047,-289.712 414.048,-288.73 417,-288 505.747,-266.049 1175.79,-318.043 1239,-252 1370.46,-114.659 949.679,-94.3481 798.202,-91.447"/>
<polygon fill="black" stroke="black" points="798.256,-87.9475 788.197,-91.2733 798.134,-94.9464 798.256,-87.9475"/>
<g id="a_edge20&#45;headlabel"><a xlink:href="dir_000093_000000.xhtml" target="_top" xlink:title="2">
<text text-anchor="middle" x="801.899" y="-82.6709" font-family="Helvetica,sans-Serif" font-size="10.00">2</text>
</a>
</g>
</g>
<!-- dir_e31c3eb8a08c20d742288af67200e09f&#45;&gt;dir_cbdb8362360e11eafe2fa3bc74cf0ffd -->
<g id="edge4" class="edge"><title>dir_e31c3eb8a08c20d742288af67200e09f&#45;&gt;dir_cbdb8362360e11eafe2fa3bc74cf0ffd</title>
<path fill="none" stroke="black" d="M569.154,-215.876C583.533,-206.808 601.381,-195.552 616.91,-185.759"/>
<polygon fill="black" stroke="black" points="619.15,-188.484 625.742,-180.19 615.416,-182.564 619.15,-188.484"/>
<g id="a_edge4&#45;headlabel"><a xlink:href="dir_000089_000035.xhtml" target="_top" xlink:title="2">
<text text-anchor="middle" x="617.624" y="-190.303" font-family="Helvetica,sans-Serif" font-size="10.00">2</text>
</a>
</g>
</g>
<!-- dir_e31c3eb8a08c20d742288af67200e09f&#45;&gt;dir_214608ef36d61442cb2b0c1c4e9a7def -->
<g id="edge5" class="edge"><title>dir_e31c3eb8a08c20d742288af67200e09f&#45;&gt;dir_214608ef36d61442cb2b0c1c4e9a7def</title>
<path fill="none" stroke="black" d="M552.466,-215.576C568.786,-188.931 600.166,-139.89 617,-128 639.497,-112.111 668.724,-103.006 693.668,-97.8087"/>
<polygon fill="black" stroke="black" points="694.548,-101.204 703.706,-95.8753 693.224,-94.3299 694.548,-101.204"/>
<g id="a_edge5&#45;headlabel"><a xlink:href="dir_000089_000000.xhtml" target="_top" xlink:title="2">
<text text-anchor="middle" x="691.556" y="-102.171" font-family="Helvetica,sans-Serif" font-size="10.00">2</text>
</a>
</g>
</g>
<!-- dir_cbdb8362360e11eafe2fa3bc74cf0ffd&#45;&gt;dir_214608ef36d61442cb2b0c1c4e9a7def -->
<g id="edge11" class="edge"><title>dir_cbdb8362360e11eafe2fa3bc74cf0ffd&#45;&gt;dir_214608ef36d61442cb2b0c1c4e9a7def</title>
<path fill="none" stroke="black" d="M673.669,-143.97C680.118,-138.764 687.298,-133.074 694,-128 700.073,-123.402 706.634,-118.605 712.984,-114.047"/>
<polygon fill="black" stroke="black" points="715.33,-116.674 721.445,-108.023 711.269,-110.972 715.33,-116.674"/>
<g id="a_edge11&#45;headlabel"><a xlink:href="dir_000035_000000.xhtml" target="_top" xlink:title="18">
<text text-anchor="middle" x="714.048" y="-118.572" font-family="Helvetica,sans-Serif" font-size="10.00">18</text>
</a>
</g>
</g>
<!-- dir_cbdb8362360e11eafe2fa3bc74cf0ffd&#45;&gt;dir_5815af820a9cc9481f1d0990a0d60286 -->
<g id="edge12" class="edge"><title>dir_cbdb8362360e11eafe2fa3bc74cf0ffd&#45;&gt;dir_5815af820a9cc9481f1d0990a0d60286</title>
<path fill="none" stroke="black" d="M637.198,-143.871C614.183,-118.924 571.309,-72.4495 544.854,-43.7729"/>
<polygon fill="black" stroke="black" points="547.211,-41.1661 537.858,-36.1893 542.066,-45.9125 547.211,-41.1661"/>
<g id="a_edge12&#45;headlabel"><a xlink:href="dir_000035_000057.xhtml" target="_top" xlink:title="1">
<text text-anchor="middle" x="551.735" y="-39.3829" font-family="Helvetica,sans-Serif" font-size="10.00">1</text>
</a>
</g>
</g>
<!-- dir_445738e6fed662d0b65e690e3f1e1de0&#45;&gt;dir_214608ef36d61442cb2b0c1c4e9a7def -->
<g id="edge13" class="edge"><title>dir_445738e6fed662d0b65e690e3f1e1de0&#45;&gt;dir_214608ef36d61442cb2b0c1c4e9a7def</title>
<path fill="none" stroke="black" d="M644.19,-216.46C658.536,-206.918 675.839,-194.044 689,-180 706.817,-160.987 722.407,-135.681 732.758,-116.915"/>
<polygon fill="black" stroke="black" points="735.885,-118.49 737.541,-108.025 729.721,-115.173 735.885,-118.49"/>
<g id="a_edge13&#45;headlabel"><a xlink:href="dir_000088_000000.xhtml" target="_top" xlink:title="5">
<text text-anchor="middle" x="736.682" y="-120.5" font-family="Helvetica,sans-Serif" font-size="10.00">5</text>
</a>
</g>
</g>
<!-- dir_445738e6fed662d0b65e690e3f1e1de0&#45;&gt;dir_5815af820a9cc9481f1d0990a0d60286 -->
<g id="edge14" class="edge"><title>dir_445738e6fed662d0b65e690e3f1e1de0&#45;&gt;dir_5815af820a9cc9481f1d0990a0d60286</title>
<path fill="none" stroke="black" d="M609.386,-215.849C592.849,-178.597 553.548,-90.067 533.781,-45.5391"/>
<polygon fill="black" stroke="black" points="536.906,-43.9522 529.65,-36.2325 530.508,-46.7925 536.906,-43.9522"/>
<g id="a_edge14&#45;headlabel"><a xlink:href="dir_000088_000057.xhtml" target="_top" xlink:title="1">
<text text-anchor="middle" x="540.96" y="-43.5857" font-family="Helvetica,sans-Serif" font-size="10.00">1</text>
</a>
</g>
</g>
<!-- dir_9e71e2da941d3cafc4d98a9f6ae3de4f&#45;&gt;dir_214608ef36d61442cb2b0c1c4e9a7def -->
<g id="edge15" class="edge"><title>dir_9e71e2da941d3cafc4d98a9f6ae3de4f&#45;&gt;dir_214608ef36d61442cb2b0c1c4e9a7def</title>
<path fill="none" stroke="black" d="M861.192,-143.857C853.422,-138.418 844.538,-132.622 836,-128 823.924,-121.463 810.444,-115.347 797.668,-110.044"/>
<polygon fill="black" stroke="black" points="798.653,-106.667 788.071,-106.153 796.023,-113.154 798.653,-106.667"/>
<g id="a_edge15&#45;headlabel"><a xlink:href="dir_000034_000000.xhtml" target="_top" xlink:title="4">
<text text-anchor="middle" x="803.051" y="-102.886" font-family="Helvetica,sans-Serif" font-size="10.00">4</text>
</a>
</g>
</g>
<!-- dir_9e71e2da941d3cafc4d98a9f6ae3de4f&#45;&gt;dir_5815af820a9cc9481f1d0990a0d60286 -->
<g id="edge16" class="edge"><title>dir_9e71e2da941d3cafc4d98a9f6ae3de4f&#45;&gt;dir_5815af820a9cc9481f1d0990a0d60286</title>
<path fill="none" stroke="black" d="M872.357,-143.87C857.426,-123.335 829.539,-89.5055 797,-72 719.565,-30.3408 614.299,-21.0908 559.166,-19.2502"/>
<polygon fill="black" stroke="black" points="559.243,-15.7511 549.152,-18.98 559.054,-22.7486 559.243,-15.7511"/>
<g id="a_edge16&#45;headlabel"><a xlink:href="dir_000034_000057.xhtml" target="_top" xlink:title="8">
<text text-anchor="middle" x="562.913" y="-10.5097" font-family="Helvetica,sans-Serif" font-size="10.00">8</text>
</a>
</g>
</g>
<!-- dir_7365e77196b52ca311bb83f181e59b8c&#45;&gt;dir_214608ef36d61442cb2b0c1c4e9a7def -->
<g id="edge17" class="edge"><title>dir_7365e77196b52ca311bb83f181e59b8c&#45;&gt;dir_214608ef36d61442cb2b0c1c4e9a7def</title>
<path fill="none" stroke="black" d="M1159.2,-215.771C1151.5,-191.646 1133.89,-148.464 1102,-128 1052.94,-96.5194 884.567,-91.3088 798.125,-90.7712"/>
<polygon fill="black" stroke="black" points="798.018,-87.2708 788.003,-90.7274 797.987,-94.2707 798.018,-87.2708"/>
<g id="a_edge17&#45;headlabel"><a xlink:href="dir_000087_000000.xhtml" target="_top" xlink:title="3">
<text text-anchor="middle" x="801.625" y="-81.947" font-family="Helvetica,sans-Serif" font-size="10.00">3</text>
</a>
</g>
</g>
<!-- dir_214608ef36d61442cb2b0c1c4e9a7def&#45;&gt;dir_5815af820a9cc9481f1d0990a0d60286 -->
<g id="edge21" class="edge"><title>dir_214608ef36d61442cb2b0c1c4e9a7def&#45;&gt;dir_5815af820a9cc9481f1d0990a0d60286</title>
<path fill="none" stroke="black" d="M703.867,-75.8335C662.041,-62.7629 598.571,-42.9285 558.739,-30.4808"/>
<polygon fill="black" stroke="black" points="559.737,-27.1261 549.149,-27.4839 557.649,-33.8074 559.737,-27.1261"/>
<g id="a_edge21&#45;headlabel"><a xlink:href="dir_000000_000057.xhtml" target="_top" xlink:title="21">
<text text-anchor="middle" x="564.015" y="-22.9882" font-family="Helvetica,sans-Serif" font-size="10.00">21</text>
</a>
</g>
</g>
<!-- dir_e13277e8d7d14f3f15e64267bfca6477&#45;&gt;dir_cbdb8362360e11eafe2fa3bc74cf0ffd -->
<g id="edge34" class="edge"><title>dir_e13277e8d7d14f3f15e64267bfca6477&#45;&gt;dir_cbdb8362360e11eafe2fa3bc74cf0ffd</title>
<path fill="none" stroke="black" d="M810.276,-219.798C807.156,-218.486 804.021,-217.198 801,-216 763.504,-201.133 719.974,-185.768 689.875,-175.434"/>
<polygon fill="black" stroke="black" points="690.805,-172.053 680.211,-172.13 688.541,-178.677 690.805,-172.053"/>
<g id="a_edge34&#45;headlabel"><a xlink:href="dir_000072_000035.xhtml" target="_top" xlink:title="57">
<text text-anchor="middle" x="695.125" y="-168.029" font-family="Helvetica,sans-Serif" font-size="10.00">57</text>
</a>
</g>
</g>
<!-- dir_e13277e8d7d14f3f15e64267bfca6477&#45;&gt;dir_9e71e2da941d3cafc4d98a9f6ae3de4f -->
<g id="edge35" class="edge"><title>dir_e13277e8d7d14f3f15e64267bfca6477&#45;&gt;dir_9e71e2da941d3cafc4d98a9f6ae3de4f</title>
<path fill="none" stroke="black" d="M850.876,-215.697C855.992,-207.559 862.195,-197.689 867.845,-188.701"/>
<polygon fill="black" stroke="black" points="870.89,-190.433 873.249,-180.104 864.964,-186.708 870.89,-190.433"/>
<g id="a_edge35&#45;headlabel"><a xlink:href="dir_000072_000034.xhtml" target="_top" xlink:title="19">
<text text-anchor="middle" x="871.381" y="-192.488" font-family="Helvetica,sans-Serif" font-size="10.00">19</text>
</a>
</g>
</g>
<!-- dir_e13277e8d7d14f3f15e64267bfca6477&#45;&gt;dir_214608ef36d61442cb2b0c1c4e9a7def -->
<g id="edge36" class="edge"><title>dir_e13277e8d7d14f3f15e64267bfca6477&#45;&gt;dir_214608ef36d61442cb2b0c1c4e9a7def</title>
<path fill="none" stroke="black" d="M830.751,-215.753C819.114,-194.512 798.09,-157.609 777,-128 774.171,-124.028 771.027,-119.95 767.856,-116.02"/>
<polygon fill="black" stroke="black" points="770.482,-113.704 761.405,-108.241 765.094,-118.172 770.482,-113.704"/>
<g id="a_edge36&#45;headlabel"><a xlink:href="dir_000072_000000.xhtml" target="_top" xlink:title="114">
<text text-anchor="middle" x="774.962" y="-112.158" font-family="Helvetica,sans-Serif" font-size="10.00">114</text>
</a>
</g>
</g>
<!-- dir_896191444cf08ec8ade6f88256cb2bdd&#45;&gt;dir_214608ef36d61442cb2b0c1c4e9a7def -->
<g id="edge45" class="edge"><title>dir_896191444cf08ec8ade6f88256cb2bdd&#45;&gt;dir_214608ef36d61442cb2b0c1c4e9a7def</title>
<path fill="none" stroke="black" d="M765.821,-215.697C766.441,-194.713 766.305,-158.377 760,-128 759.316,-124.705 758.381,-121.316 757.316,-117.989"/>
<polygon fill="black" stroke="black" points="760.529,-116.58 753.853,-108.354 753.942,-118.948 760.529,-116.58"/>
<g id="a_edge45&#45;headlabel"><a xlink:href="dir_000071_000000.xhtml" target="_top" xlink:title="3">
<text text-anchor="middle" x="764.417" y="-116.503" font-family="Helvetica,sans-Serif" font-size="10.00">3</text>
</a>
</g>
</g>
</g>
</svg>
