<?xml version="1.0" encoding="UTF-8" standalone="no"?>
<!DOCTYPE svg PUBLIC "-//W3C//DTD SVG 1.1//EN"
 "http://www.w3.org/Graphics/SVG/1.1/DTD/svg11.dtd">
<!-- Generated by graphviz version 2.38.0 (20140413.2041)
 -->
<!-- Title: tests/framework/instruments Pages: 1 -->
<svg width="108pt" height="151pt"
 viewBox="0.00 0.00 108.00 151.00" xmlns="http://www.w3.org/2000/svg" xmlns:xlink="http://www.w3.org/1999/xlink">
<g id="graph0" class="graph" transform="scale(1 1) rotate(0) translate(4 147)">
<title>tests/framework/instruments</title>
<polygon fill="white" stroke="none" points="-4,4 -4,-147 104,-147 104,4 -4,4"/>
<g id="clust1" class="cluster"><title>clusterdir_2dd0e1a78595595cf02ec0d9123d5f3a</title>
<g id="a_clust1"><a xlink:href="dir_2dd0e1a78595595cf02ec0d9123d5f3a.xhtml" target="_top" xlink:title="framework">
<polygon fill="#ddddee" stroke="black" points="8,-64 8,-135 92,-135 92,-64 8,-64"/>
<text text-anchor="middle" x="50" y="-123" font-family="Helvetica" font-size="10.00">framework</text>
</a>
</g>
</g>
<!-- dir_4ed310e4362bed366d89846820e9a88b -->
<g id="node1" class="node"><title>dir_4ed310e4362bed366d89846820e9a88b</title>
<g id="a_node1"><a xlink:href="dir_4ed310e4362bed366d89846820e9a88b.xhtml" target="_top" xlink:title="instruments">
<polygon fill="#eeeeff" stroke="black" points="84,-108 16,-108 16,-72 84,-72 84,-108"/>
<text text-anchor="middle" x="50" y="-87.5" font-family="Helvetica" font-size="10.00">instruments</text>
</a>
</g>
</g>
<!-- dir_d4d363c0979c7ffda4833df3f93b5668 -->
<g id="node2" class="node"><title>dir_d4d363c0979c7ffda4833df3f93b5668</title>
<g id="a_node2"><a xlink:href="dir_d4d363c0979c7ffda4833df3f93b5668.xhtml" target="_top" xlink:title="arm_compute">
<polygon fill="white" stroke="red" points="88,-36 12,-36 12,-0 88,-0 88,-36"/>
<text text-anchor="middle" x="50" y="-15.5" font-family="Helvetica" font-size="10.00">arm_compute</text>
</a>
</g>
</g>
<!-- dir_4ed310e4362bed366d89846820e9a88b&#45;&gt;dir_d4d363c0979c7ffda4833df3f93b5668 -->
<g id="edge1" class="edge"><title>dir_4ed310e4362bed366d89846820e9a88b&#45;&gt;dir_d4d363c0979c7ffda4833df3f93b5668</title>
<path fill="none" stroke="black" d="M50,-71.6966C50,-63.9827 50,-54.7125 50,-46.1124"/>
<polygon fill="black" stroke="black" points="53.5001,-46.1043 50,-36.1043 46.5001,-46.1044 53.5001,-46.1043"/>
<g id="a_edge1&#45;headlabel"><a xlink:href="dir_000064_000000.xhtml" target="_top" xlink:title="2">
<text text-anchor="middle" x="56.3393" y="-47.199" font-family="Helvetica" font-size="10.00">2</text>
</a>
</g>
</g>
</g>
</svg>
