<?xml version="1.0" encoding="UTF-8" standalone="no"?>
<!DOCTYPE svg PUBLIC "-//W3C//DTD SVG 1.1//EN"
 "http://www.w3.org/Graphics/SVG/1.1/DTD/svg11.dtd">
<!-- Generated by graphviz version 2.40.1 (20161225.0304)
 -->
<!-- Title: arm_compute/runtime/CL/functions Pages: 1 -->
<svg width="172pt" height="223pt"
 viewBox="0.00 0.00 172.00 223.00" xmlns="http://www.w3.org/2000/svg" xmlns:xlink="http://www.w3.org/1999/xlink">
<g id="graph0" class="graph" transform="scale(1 1) rotate(0) translate(4 219)">
<title>arm_compute/runtime/CL/functions</title>
<polygon fill="#ffffff" stroke="transparent" points="-4,4 -4,-219 168,-219 168,4 -4,4"/>
<g id="clust1" class="cluster">
<title>clusterdir_b986aa98f9b6490bb4fc7918500346fb</title>
<g id="a_clust1"><a xlink:href="dir_b986aa98f9b6490bb4fc7918500346fb.xhtml" target="_top" xlink:title="CL">
<polygon fill="#ddddee" stroke="#000000" points="46,-136 46,-207 118,-207 118,-136 46,-136"/>
<text text-anchor="middle" x="82" y="-195" font-family="Helvetica,sans-Serif" font-size="10.00" fill="#000000">CL</text>
</a>
</g>
</g>
<!-- dir_251c63bc3f70b60acf43edd6d870a3ef -->
<g id="node1" class="node">
<title>dir_251c63bc3f70b60acf43edd6d870a3ef</title>
<g id="a_node1"><a xlink:href="dir_251c63bc3f70b60acf43edd6d870a3ef.xhtml" target="_top" xlink:title="functions">
<polygon fill="#eeeeff" stroke="#000000" points="110,-180 54,-180 54,-144 110,-144 110,-180"/>
<text text-anchor="middle" x="82" y="-159.5" font-family="Helvetica,sans-Serif" font-size="10.00" fill="#000000">functions</text>
</a>
</g>
</g>
<!-- dir_b496024afd63bafbf4e8da80d7d3a81a -->
<g id="node2" class="node">
<title>dir_b496024afd63bafbf4e8da80d7d3a81a</title>
<g id="a_node2"><a xlink:href="dir_b496024afd63bafbf4e8da80d7d3a81a.xhtml" target="_top" xlink:title="CPP">
<polygon fill="#ffffff" stroke="#ff0000" points="54,-108 0,-108 0,-72 54,-72 54,-108"/>
<text text-anchor="middle" x="27" y="-87.5" font-family="Helvetica,sans-Serif" font-size="10.00" fill="#000000">CPP</text>
</a>
</g>
</g>
<!-- dir_251c63bc3f70b60acf43edd6d870a3ef&#45;&gt;dir_b496024afd63bafbf4e8da80d7d3a81a -->
<g id="edge1" class="edge">
<title>dir_251c63bc3f70b60acf43edd6d870a3ef&#45;&gt;dir_b496024afd63bafbf4e8da80d7d3a81a</title>
<path fill="none" stroke="#000000" d="M68.1212,-143.8314C61.7864,-135.5386 54.1616,-125.557 47.2074,-116.4533"/>
<polygon fill="#000000" stroke="#000000" points="49.9175,-114.2353 41.0657,-108.4133 44.3548,-118.4847 49.9175,-114.2353"/>
<g id="a_edge1&#45;headlabel"><a xlink:href="dir_000042_000045.xhtml" target="_top" xlink:title="1">
<text text-anchor="middle" x="54.3558" y="-112.8683" font-family="Helvetica,sans-Serif" font-size="10.00" fill="#000000">1</text>
</a>
</g>
</g>
<!-- dir_1fb090f0c6070330bfaccc4236d3ca0d -->
<g id="node3" class="node">
<title>dir_1fb090f0c6070330bfaccc4236d3ca0d</title>
<g id="a_node3"><a xlink:href="dir_1fb090f0c6070330bfaccc4236d3ca0d.xhtml" target="_top" xlink:title="core">
<polygon fill="#ffffff" stroke="#ff0000" points="109,-36 55,-36 55,0 109,0 109,-36"/>
<text text-anchor="middle" x="82" y="-15.5" font-family="Helvetica,sans-Serif" font-size="10.00" fill="#000000">core</text>
</a>
</g>
</g>
<!-- dir_251c63bc3f70b60acf43edd6d870a3ef&#45;&gt;dir_1fb090f0c6070330bfaccc4236d3ca0d -->
<g id="edge2" class="edge">
<title>dir_251c63bc3f70b60acf43edd6d870a3ef&#45;&gt;dir_1fb090f0c6070330bfaccc4236d3ca0d</title>
<path fill="none" stroke="#000000" d="M82,-143.7623C82,-119.201 82,-75.2474 82,-46.3541"/>
<polygon fill="#000000" stroke="#000000" points="85.5001,-46.0896 82,-36.0896 78.5001,-46.0897 85.5001,-46.0896"/>
<g id="a_edge2&#45;headlabel"><a xlink:href="dir_000042_000001.xhtml" target="_top" xlink:title="204">
<text text-anchor="middle" x="88.3393" y="-47.1842" font-family="Helvetica,sans-Serif" font-size="10.00" fill="#000000">204</text>
</a>
</g>
</g>
<!-- dir_b9621ae687ab229876c54f8c2df20e15 -->
<g id="node4" class="node">
<title>dir_b9621ae687ab229876c54f8c2df20e15</title>
<g id="a_node4"><a xlink:href="dir_b9621ae687ab229876c54f8c2df20e15.xhtml" target="_top" xlink:title="common">
<polygon fill="none" stroke="#000000" points="164,-108 110,-108 110,-72 164,-72 164,-108"/>
<text text-anchor="middle" x="137" y="-87.5" font-family="Helvetica,sans-Serif" font-size="10.00" fill="#000000">common</text>
</a>
</g>
</g>
<!-- dir_251c63bc3f70b60acf43edd6d870a3ef&#45;&gt;dir_b9621ae687ab229876c54f8c2df20e15 -->
<g id="edge3" class="edge">
<title>dir_251c63bc3f70b60acf43edd6d870a3ef&#45;&gt;dir_b9621ae687ab229876c54f8c2df20e15</title>
<path fill="none" stroke="#000000" d="M95.8788,-143.8314C102.2136,-135.5386 109.8384,-125.557 116.7926,-116.4533"/>
<polygon fill="#000000" stroke="#000000" points="119.6452,-118.4847 122.9343,-108.4133 114.0825,-114.2353 119.6452,-118.4847"/>
<g id="a_edge3&#45;headlabel"><a xlink:href="dir_000042_000044.xhtml" target="_top" xlink:title="1">
<text text-anchor="middle" x="119.7195" y="-120.5647" font-family="Helvetica,sans-Serif" font-size="10.00" fill="#000000">1</text>
</a>
</g>
</g>
<!-- dir_b496024afd63bafbf4e8da80d7d3a81a&#45;&gt;dir_1fb090f0c6070330bfaccc4236d3ca0d -->
<g id="edge4" class="edge">
<title>dir_b496024afd63bafbf4e8da80d7d3a81a&#45;&gt;dir_1fb090f0c6070330bfaccc4236d3ca0d</title>
<path fill="none" stroke="#000000" d="M40.8788,-71.8314C47.2136,-63.5386 54.8384,-53.557 61.7926,-44.4533"/>
<polygon fill="#000000" stroke="#000000" points="64.6452,-46.4847 67.9343,-36.4133 59.0825,-42.2353 64.6452,-46.4847"/>
<g id="a_edge4&#45;headlabel"><a xlink:href="dir_000045_000001.xhtml" target="_top" xlink:title="4">
<text text-anchor="middle" x="64.7195" y="-48.5647" font-family="Helvetica,sans-Serif" font-size="10.00" fill="#000000">4</text>
</a>
</g>
</g>
<!-- dir_b9621ae687ab229876c54f8c2df20e15&#45;&gt;dir_1fb090f0c6070330bfaccc4236d3ca0d -->
<g id="edge5" class="edge">
<title>dir_b9621ae687ab229876c54f8c2df20e15&#45;&gt;dir_1fb090f0c6070330bfaccc4236d3ca0d</title>
<path fill="none" stroke="#000000" d="M123.1212,-71.8314C116.7864,-63.5386 109.1616,-53.557 102.2074,-44.4533"/>
<polygon fill="#000000" stroke="#000000" points="104.9175,-42.2353 96.0657,-36.4133 99.3548,-46.4847 104.9175,-42.2353"/>
<g id="a_edge5&#45;headlabel"><a xlink:href="dir_000044_000001.xhtml" target="_top" xlink:title="3">
<text text-anchor="middle" x="109.3558" y="-40.8683" font-family="Helvetica,sans-Serif" font-size="10.00" fill="#000000">3</text>
</a>
</g>
</g>
</g>
</svg>
