<?xml version="1.0" encoding="UTF-8" standalone="no"?>
<!DOCTYPE svg PUBLIC "-//W3C//DTD SVG 1.1//EN"
 "http://www.w3.org/Graphics/SVG/1.1/DTD/svg11.dtd">
<!-- Generated by graphviz version 2.38.0 (20140413.2041)
 -->
<!-- Title: tests/framework Pages: 1 -->
<svg width="379pt" height="375pt"
 viewBox="0.00 0.00 379.50 375.00" xmlns="http://www.w3.org/2000/svg" xmlns:xlink="http://www.w3.org/1999/xlink">
<g id="graph0" class="graph" transform="scale(1 1) rotate(0) translate(4 371)">
<title>tests/framework</title>
<polygon fill="white" stroke="none" points="-4,4 -4,-371 375.499,-371 375.499,4 -4,4"/>
<g id="clust1" class="cluster"><title>clusterdir_59425e443f801f1f2fd8bbe4959a3ccf</title>
<g id="a_clust1"><a xlink:href="dir_59425e443f801f1f2fd8bbe4959a3ccf.xhtml" target="_top" xlink:title="tests">
<polygon fill="#ddddee" stroke="black" points="8,-128 8,-359 290,-359 290,-128 8,-128"/>
<text text-anchor="middle" x="149" y="-347" font-family="Helvetica,sans-Serif" font-size="10.00">tests</text>
</a>
</g>
</g>
<g id="clust2" class="cluster"><title>clusterdir_9e71e2da941d3cafc4d98a9f6ae3de4f</title>
<g id="a_clust2"><a xlink:href="dir_9e71e2da941d3cafc4d98a9f6ae3de4f.xhtml" target="_top">
<polygon fill="#eeeeff" stroke="black" points="16,-136 16,-332 282,-332 282,-136 16,-136"/>
</a>
</g>
</g>
<!-- dir_9e71e2da941d3cafc4d98a9f6ae3de4f -->
<g id="node1" class="node"><title>dir_9e71e2da941d3cafc4d98a9f6ae3de4f</title>
<text text-anchor="middle" x="240" y="-303.5" font-family="Helvetica,sans-Serif" font-size="10.00">framework</text>
</g>
<!-- dir_d247c927d0dc22626cf668ab2bd7f080 -->
<g id="node2" class="node"><title>dir_d247c927d0dc22626cf668ab2bd7f080</title>
<g id="a_node2"><a xlink:href="dir_d247c927d0dc22626cf668ab2bd7f080.xhtml" target="_top" xlink:title="command_line">
<polygon fill="white" stroke="black" points="111.5,-324 24.5,-324 24.5,-288 111.5,-288 111.5,-324"/>
<text text-anchor="middle" x="68" y="-303.5" font-family="Helvetica,sans-Serif" font-size="10.00">command_line</text>
</a>
</g>
</g>
<!-- dir_4efd0ee2ecda32567e74991b08d544ea -->
<g id="node4" class="node"><title>dir_4efd0ee2ecda32567e74991b08d544ea</title>
<g id="a_node4"><a xlink:href="dir_4efd0ee2ecda32567e74991b08d544ea.xhtml" target="_top" xlink:title="instruments">
<polygon fill="white" stroke="black" points="151,-180 77,-180 77,-144 151,-144 151,-180"/>
<text text-anchor="middle" x="114" y="-159.5" font-family="Helvetica,sans-Serif" font-size="10.00">instruments</text>
</a>
</g>
</g>
<!-- dir_d247c927d0dc22626cf668ab2bd7f080&#45;&gt;dir_4efd0ee2ecda32567e74991b08d544ea -->
<g id="edge4" class="edge"><title>dir_d247c927d0dc22626cf668ab2bd7f080&#45;&gt;dir_4efd0ee2ecda32567e74991b08d544ea</title>
<path fill="none" stroke="black" d="M67.5193,-287.708C67.5578,-269.352 69.2078,-239.77 78,-216 81.5513,-206.399 87.2018,-196.851 92.9832,-188.559"/>
<polygon fill="black" stroke="black" points="95.8628,-190.552 98.973,-180.424 90.2257,-186.402 95.8628,-190.552"/>
<g id="a_edge4&#45;headlabel"><a xlink:href="dir_000064_000066.xhtml" target="_top" xlink:title="1">
<text text-anchor="middle" x="96.0181" y="-192.63" font-family="Helvetica,sans-Serif" font-size="10.00">1</text>
</a>
</g>
</g>
<!-- dir_68cb0bded1cc5601c88ddaacbb31e482 -->
<g id="node5" class="node"><title>dir_68cb0bded1cc5601c88ddaacbb31e482</title>
<g id="a_node5"><a xlink:href="dir_68cb0bded1cc5601c88ddaacbb31e482.xhtml" target="_top" xlink:title="printers">
<polygon fill="white" stroke="black" points="141,-252 87,-252 87,-216 141,-216 141,-252"/>
<text text-anchor="middle" x="114" y="-231.5" font-family="Helvetica,sans-Serif" font-size="10.00">printers</text>
</a>
</g>
</g>
<!-- dir_d247c927d0dc22626cf668ab2bd7f080&#45;&gt;dir_68cb0bded1cc5601c88ddaacbb31e482 -->
<g id="edge2" class="edge"><title>dir_d247c927d0dc22626cf668ab2bd7f080&#45;&gt;dir_68cb0bded1cc5601c88ddaacbb31e482</title>
<path fill="none" stroke="black" d="M79.3708,-287.697C84.7185,-279.559 91.2043,-269.689 97.1106,-260.701"/>
<polygon fill="black" stroke="black" points="100.193,-262.384 102.76,-252.104 94.3432,-258.539 100.193,-262.384"/>
<g id="a_edge2&#45;headlabel"><a xlink:href="dir_000064_000026.xhtml" target="_top" xlink:title="1">
<text text-anchor="middle" x="100.592" y="-264.447" font-family="Helvetica,sans-Serif" font-size="10.00">1</text>
</a>
</g>
</g>
<!-- dir_cbdb8362360e11eafe2fa3bc74cf0ffd -->
<g id="node6" class="node"><title>dir_cbdb8362360e11eafe2fa3bc74cf0ffd</title>
<g id="a_node6"><a xlink:href="dir_cbdb8362360e11eafe2fa3bc74cf0ffd.xhtml" target="_top" xlink:title="utils">
<polygon fill="white" stroke="red" points="352,-180 298,-180 298,-144 352,-144 352,-180"/>
<text text-anchor="middle" x="325" y="-159.5" font-family="Helvetica,sans-Serif" font-size="10.00">utils</text>
</a>
</g>
</g>
<!-- dir_d247c927d0dc22626cf668ab2bd7f080&#45;&gt;dir_cbdb8362360e11eafe2fa3bc74cf0ffd -->
<g id="edge3" class="edge"><title>dir_d247c927d0dc22626cf668ab2bd7f080&#45;&gt;dir_cbdb8362360e11eafe2fa3bc74cf0ffd</title>
<path fill="none" stroke="black" d="M99.0002,-287.871C146.759,-261.483 238.109,-211.01 288.82,-182.99"/>
<polygon fill="black" stroke="black" points="290.737,-185.93 297.797,-178.031 287.351,-179.803 290.737,-185.93"/>
<g id="a_edge3&#45;headlabel"><a xlink:href="dir_000064_000023.xhtml" target="_top" xlink:title="2">
<text text-anchor="middle" x="288.963" y="-187.654" font-family="Helvetica,sans-Serif" font-size="10.00">2</text>
</a>
</g>
</g>
<!-- dir_0dd7887818bb8d90732685575a13f58a -->
<g id="node3" class="node"><title>dir_0dd7887818bb8d90732685575a13f58a</title>
<g id="a_node3"><a xlink:href="dir_0dd7887818bb8d90732685575a13f58a.xhtml" target="_top" xlink:title="datasets">
<polygon fill="white" stroke="black" points="188.5,-324 129.5,-324 129.5,-288 188.5,-288 188.5,-324"/>
<text text-anchor="middle" x="159" y="-303.5" font-family="Helvetica,sans-Serif" font-size="10.00">datasets</text>
</a>
</g>
</g>
<!-- dir_0dd7887818bb8d90732685575a13f58a&#45;&gt;dir_cbdb8362360e11eafe2fa3bc74cf0ffd -->
<g id="edge10" class="edge"><title>dir_0dd7887818bb8d90732685575a13f58a&#45;&gt;dir_cbdb8362360e11eafe2fa3bc74cf0ffd</title>
<path fill="none" stroke="black" d="M188.665,-288.542C205.079,-278.838 225.445,-265.783 242,-252 265.338,-232.57 288.633,-206.903 304.577,-188.127"/>
<polygon fill="black" stroke="black" points="307.407,-190.199 311.149,-180.287 302.043,-185.703 307.407,-190.199"/>
<g id="a_edge10&#45;headlabel"><a xlink:href="dir_000065_000023.xhtml" target="_top" xlink:title="1">
<text text-anchor="middle" x="307.274" y="-192.278" font-family="Helvetica,sans-Serif" font-size="10.00">1</text>
</a>
</g>
</g>
<!-- dir_5815af820a9cc9481f1d0990a0d60286 -->
<g id="node8" class="node"><title>dir_5815af820a9cc9481f1d0990a0d60286</title>
<g id="a_node8"><a xlink:href="dir_5815af820a9cc9481f1d0990a0d60286.xhtml" target="_top" xlink:title="support">
<polygon fill="none" stroke="black" points="369,-36 315,-36 315,-0 369,-0 369,-36"/>
<text text-anchor="middle" x="342" y="-15.5" font-family="Helvetica,sans-Serif" font-size="10.00">support</text>
</a>
</g>
</g>
<!-- dir_0dd7887818bb8d90732685575a13f58a&#45;&gt;dir_5815af820a9cc9481f1d0990a0d60286 -->
<g id="edge11" class="edge"><title>dir_0dd7887818bb8d90732685575a13f58a&#45;&gt;dir_5815af820a9cc9481f1d0990a0d60286</title>
<path fill="none" stroke="black" d="M188.747,-291.522C221.499,-276.647 270.081,-254.466 274,-252 316.482,-225.272 339.634,-225.416 361,-180 381.522,-136.378 366.077,-79.0566 353.608,-45.8945"/>
<polygon fill="black" stroke="black" points="356.797,-44.4422 349.876,-36.4204 350.284,-47.0074 356.797,-44.4422"/>
<g id="a_edge11&#45;headlabel"><a xlink:href="dir_000065_000053.xhtml" target="_top" xlink:title="3">
<text text-anchor="middle" x="360.756" y="-44.2464" font-family="Helvetica,sans-Serif" font-size="10.00">3</text>
</a>
</g>
</g>
<!-- dir_214608ef36d61442cb2b0c1c4e9a7def -->
<g id="node7" class="node"><title>dir_214608ef36d61442cb2b0c1c4e9a7def</title>
<g id="a_node7"><a xlink:href="dir_214608ef36d61442cb2b0c1c4e9a7def.xhtml" target="_top" xlink:title="arm_compute">
<polygon fill="white" stroke="red" points="314,-108 230,-108 230,-72 314,-72 314,-108"/>
<text text-anchor="middle" x="272" y="-87.5" font-family="Helvetica,sans-Serif" font-size="10.00">arm_compute</text>
</a>
</g>
</g>
<!-- dir_4efd0ee2ecda32567e74991b08d544ea&#45;&gt;dir_214608ef36d61442cb2b0c1c4e9a7def -->
<g id="edge9" class="edge"><title>dir_4efd0ee2ecda32567e74991b08d544ea&#45;&gt;dir_214608ef36d61442cb2b0c1c4e9a7def</title>
<path fill="none" stroke="black" d="M151.044,-144.588C172.849,-134.928 200.662,-122.606 224.118,-112.213"/>
<polygon fill="black" stroke="black" points="225.813,-115.291 233.538,-108.04 222.978,-108.891 225.813,-115.291"/>
<g id="a_edge9&#45;headlabel"><a xlink:href="dir_000066_000000.xhtml" target="_top" xlink:title="13">
<text text-anchor="middle" x="223.677" y="-116.843" font-family="Helvetica,sans-Serif" font-size="10.00">13</text>
</a>
</g>
</g>
<!-- dir_68cb0bded1cc5601c88ddaacbb31e482&#45;&gt;dir_4efd0ee2ecda32567e74991b08d544ea -->
<g id="edge1" class="edge"><title>dir_68cb0bded1cc5601c88ddaacbb31e482&#45;&gt;dir_4efd0ee2ecda32567e74991b08d544ea</title>
<path fill="none" stroke="black" d="M114,-215.697C114,-207.983 114,-198.712 114,-190.112"/>
<polygon fill="black" stroke="black" points="117.5,-190.104 114,-180.104 110.5,-190.104 117.5,-190.104"/>
<g id="a_edge1&#45;headlabel"><a xlink:href="dir_000026_000066.xhtml" target="_top" xlink:title="3">
<text text-anchor="middle" x="120.339" y="-191.199" font-family="Helvetica,sans-Serif" font-size="10.00">3</text>
</a>
</g>
</g>
<!-- dir_cbdb8362360e11eafe2fa3bc74cf0ffd&#45;&gt;dir_214608ef36d61442cb2b0c1c4e9a7def -->
<g id="edge5" class="edge"><title>dir_cbdb8362360e11eafe2fa3bc74cf0ffd&#45;&gt;dir_214608ef36d61442cb2b0c1c4e9a7def</title>
<path fill="none" stroke="black" d="M305.983,-143.697C298.909,-135.474 291.143,-125.483 284.727,-116.421"/>
<polygon fill="black" stroke="black" points="287.581,-114.394 279.055,-108.104 281.798,-118.338 287.581,-114.394"/>
<g id="a_edge5&#45;headlabel"><a xlink:href="dir_000023_000000.xhtml" target="_top" xlink:title="36">
<text text-anchor="middle" x="291.952" y="-113.264" font-family="Helvetica,sans-Serif" font-size="10.00">36</text>
</a>
</g>
</g>
<!-- dir_cbdb8362360e11eafe2fa3bc74cf0ffd&#45;&gt;dir_5815af820a9cc9481f1d0990a0d60286 -->
<g id="edge6" class="edge"><title>dir_cbdb8362360e11eafe2fa3bc74cf0ffd&#45;&gt;dir_5815af820a9cc9481f1d0990a0d60286</title>
<path fill="none" stroke="black" d="M327.051,-143.871C329.948,-119.67 335.271,-75.2108 338.721,-46.3932"/>
<polygon fill="black" stroke="black" points="342.229,-46.5344 339.942,-36.1893 335.278,-45.7023 342.229,-46.5344"/>
<g id="a_edge6&#45;headlabel"><a xlink:href="dir_000023_000053.xhtml" target="_top" xlink:title="3">
<text text-anchor="middle" x="344.62" y="-47.941" font-family="Helvetica,sans-Serif" font-size="10.00">3</text>
</a>
</g>
</g>
<!-- dir_214608ef36d61442cb2b0c1c4e9a7def&#45;&gt;dir_cbdb8362360e11eafe2fa3bc74cf0ffd -->
<g id="edge7" class="edge"><title>dir_214608ef36d61442cb2b0c1c4e9a7def&#45;&gt;dir_cbdb8362360e11eafe2fa3bc74cf0ffd</title>
<path fill="none" stroke="black" d="M290.845,-108.104C297.908,-116.298 305.679,-126.282 312.117,-135.359"/>
<polygon fill="black" stroke="black" points="309.283,-137.415 317.815,-143.697 315.062,-133.466 309.283,-137.415"/>
<g id="a_edge7&#45;headlabel"><a xlink:href="dir_000000_000023.xhtml" target="_top" xlink:title="1">
<text text-anchor="middle" x="304.91" y="-133.549" font-family="Helvetica,sans-Serif" font-size="10.00">1</text>
</a>
</g>
</g>
<!-- dir_214608ef36d61442cb2b0c1c4e9a7def&#45;&gt;dir_5815af820a9cc9481f1d0990a0d60286 -->
<g id="edge8" class="edge"><title>dir_214608ef36d61442cb2b0c1c4e9a7def&#45;&gt;dir_5815af820a9cc9481f1d0990a0d60286</title>
<path fill="none" stroke="black" d="M289.303,-71.6966C297.865,-63.135 308.344,-52.6562 317.696,-43.3045"/>
<polygon fill="black" stroke="black" points="320.299,-45.6503 324.896,-36.1043 315.35,-40.7005 320.299,-45.6503"/>
<g id="a_edge8&#45;headlabel"><a xlink:href="dir_000000_000053.xhtml" target="_top" xlink:title="20">
<text text-anchor="middle" x="319.765" y="-47.6997" font-family="Helvetica,sans-Serif" font-size="10.00">20</text>
</a>
</g>
</g>
</g>
</svg>
