<?xml version="1.0" encoding="UTF-8" standalone="no"?>
<!DOCTYPE svg PUBLIC "-//W3C//DTD SVG 1.1//EN"
 "http://www.w3.org/Graphics/SVG/1.1/DTD/svg11.dtd">
<!-- Generated by graphviz version 2.38.0 (20140413.2041)
 -->
<!-- Title: tests/validation Pages: 1 -->
<svg width="990pt" height="375pt"
 viewBox="0.00 0.00 990.09 375.00" xmlns="http://www.w3.org/2000/svg" xmlns:xlink="http://www.w3.org/1999/xlink">
<g id="graph0" class="graph" transform="scale(1 1) rotate(0) translate(4 371)">
<title>tests/validation</title>
<polygon fill="white" stroke="none" points="-4,4 -4,-371 986.095,-371 986.095,4 -4,4"/>
<g id="clust1" class="cluster"><title>clusterdir_59425e443f801f1f2fd8bbe4959a3ccf</title>
<g id="a_clust1"><a xlink:href="dir_59425e443f801f1f2fd8bbe4959a3ccf.xhtml" target="_top" xlink:title="tests">
<polygon fill="#ddddee" stroke="black" points="8,-200 8,-359 504,-359 504,-200 8,-200"/>
<text text-anchor="middle" x="256" y="-347" font-family="Helvetica,sans-Serif" font-size="10.00">tests</text>
</a>
</g>
</g>
<g id="clust2" class="cluster"><title>clusterdir_e7c7b16542faa38cb4655ff1750d3604</title>
<g id="a_clust2"><a xlink:href="dir_e7c7b16542faa38cb4655ff1750d3604.xhtml" target="_top">
<polygon fill="#eeeeff" stroke="black" points="16,-208 16,-332 496,-332 496,-208 16,-208"/>
</a>
</g>
</g>
<!-- dir_e7c7b16542faa38cb4655ff1750d3604 -->
<g id="node1" class="node"><title>dir_e7c7b16542faa38cb4655ff1750d3604</title>
<text text-anchor="middle" x="457" y="-303.5" font-family="Helvetica,sans-Serif" font-size="10.00">validation</text>
</g>
<!-- dir_f7024513cd67abef53e86ee9382ac5ce -->
<g id="node2" class="node"><title>dir_f7024513cd67abef53e86ee9382ac5ce</title>
<g id="a_node2"><a xlink:href="dir_f7024513cd67abef53e86ee9382ac5ce.xhtml" target="_top" xlink:title="CL">
<polygon fill="white" stroke="red" points="78,-324 24,-324 24,-288 78,-288 78,-324"/>
<text text-anchor="middle" x="51" y="-303.5" font-family="Helvetica,sans-Serif" font-size="10.00">CL</text>
</a>
</g>
</g>
<!-- dir_46fdb196cebdbffe77dac340cde62f29 -->
<g id="node6" class="node"><title>dir_46fdb196cebdbffe77dac340cde62f29</title>
<g id="a_node6"><a xlink:href="dir_46fdb196cebdbffe77dac340cde62f29.xhtml" target="_top" xlink:title="reference">
<polygon fill="white" stroke="black" points="354,-252 292,-252 292,-216 354,-216 354,-252"/>
<text text-anchor="middle" x="323" y="-231.5" font-family="Helvetica,sans-Serif" font-size="10.00">reference</text>
</a>
</g>
</g>
<!-- dir_f7024513cd67abef53e86ee9382ac5ce&#45;&gt;dir_46fdb196cebdbffe77dac340cde62f29 -->
<g id="edge22" class="edge"><title>dir_f7024513cd67abef53e86ee9382ac5ce&#45;&gt;dir_46fdb196cebdbffe77dac340cde62f29</title>
<path fill="none" stroke="black" d="M78.258,-291.368C81.173,-290.139 84.1239,-288.988 87,-288 153.596,-265.111 234.212,-249.467 281.903,-241.398"/>
<polygon fill="black" stroke="black" points="282.56,-244.837 291.851,-239.744 281.412,-237.931 282.56,-244.837"/>
<g id="a_edge22&#45;headlabel"><a xlink:href="dir_000126_000035.xhtml" target="_top" xlink:title="3">
<text text-anchor="middle" x="279.48" y="-245.727" font-family="Helvetica,sans-Serif" font-size="10.00">3</text>
</a>
</g>
</g>
<!-- dir_cbdb8362360e11eafe2fa3bc74cf0ffd -->
<g id="node8" class="node"><title>dir_cbdb8362360e11eafe2fa3bc74cf0ffd</title>
<g id="a_node8"><a xlink:href="dir_cbdb8362360e11eafe2fa3bc74cf0ffd.xhtml" target="_top" xlink:title="utils">
<polygon fill="white" stroke="red" points="790,-180 736,-180 736,-144 790,-144 790,-180"/>
<text text-anchor="middle" x="763" y="-159.5" font-family="Helvetica,sans-Serif" font-size="10.00">utils</text>
</a>
</g>
</g>
<!-- dir_f7024513cd67abef53e86ee9382ac5ce&#45;&gt;dir_cbdb8362360e11eafe2fa3bc74cf0ffd -->
<g id="edge23" class="edge"><title>dir_f7024513cd67abef53e86ee9382ac5ce&#45;&gt;dir_cbdb8362360e11eafe2fa3bc74cf0ffd</title>
<path fill="none" stroke="black" d="M78.1199,-290.91C81.0619,-289.771 84.0568,-288.766 87,-288 315.061,-228.657 393.134,-328.576 616,-252 655.054,-238.581 657.583,-221.235 693,-200 703.776,-193.539 715.781,-186.975 726.764,-181.205"/>
<polygon fill="black" stroke="black" points="728.437,-184.279 735.699,-176.564 725.211,-178.067 728.437,-184.279"/>
<g id="a_edge23&#45;headlabel"><a xlink:href="dir_000126_000036.xhtml" target="_top" xlink:title="4">
<text text-anchor="middle" x="726.556" y="-185.956" font-family="Helvetica,sans-Serif" font-size="10.00">4</text>
</a>
</g>
</g>
<!-- dir_9e71e2da941d3cafc4d98a9f6ae3de4f -->
<g id="node10" class="node"><title>dir_9e71e2da941d3cafc4d98a9f6ae3de4f</title>
<g id="a_node10"><a xlink:href="dir_9e71e2da941d3cafc4d98a9f6ae3de4f.xhtml" target="_top" xlink:title="framework">
<polygon fill="white" stroke="red" points="769.5,-252 702.5,-252 702.5,-216 769.5,-216 769.5,-252"/>
<text text-anchor="middle" x="736" y="-231.5" font-family="Helvetica,sans-Serif" font-size="10.00">framework</text>
</a>
</g>
</g>
<!-- dir_f7024513cd67abef53e86ee9382ac5ce&#45;&gt;dir_9e71e2da941d3cafc4d98a9f6ae3de4f -->
<g id="edge24" class="edge"><title>dir_f7024513cd67abef53e86ee9382ac5ce&#45;&gt;dir_9e71e2da941d3cafc4d98a9f6ae3de4f</title>
<path fill="none" stroke="black" d="M78.1167,-290.897C81.0593,-289.761 84.0552,-288.76 87,-288 329.782,-225.356 401.366,-284.381 650,-252 663.83,-250.199 678.779,-247.509 692.274,-244.797"/>
<polygon fill="black" stroke="black" points="693.181,-248.183 702.267,-242.733 691.766,-241.328 693.181,-248.183"/>
<g id="a_edge24&#45;headlabel"><a xlink:href="dir_000126_000034.xhtml" target="_top" xlink:title="416">
<text text-anchor="middle" x="690.235" y="-249.191" font-family="Helvetica,sans-Serif" font-size="10.00">416</text>
</a>
</g>
</g>
<!-- dir_214608ef36d61442cb2b0c1c4e9a7def -->
<g id="node12" class="node"><title>dir_214608ef36d61442cb2b0c1c4e9a7def</title>
<g id="a_node12"><a xlink:href="dir_214608ef36d61442cb2b0c1c4e9a7def.xhtml" target="_top" xlink:title="arm_compute">
<polygon fill="white" stroke="red" points="712,-108 628,-108 628,-72 712,-72 712,-108"/>
<text text-anchor="middle" x="670" y="-87.5" font-family="Helvetica,sans-Serif" font-size="10.00">arm_compute</text>
</a>
</g>
</g>
<!-- dir_f7024513cd67abef53e86ee9382ac5ce&#45;&gt;dir_214608ef36d61442cb2b0c1c4e9a7def -->
<g id="edge25" class="edge"><title>dir_f7024513cd67abef53e86ee9382ac5ce&#45;&gt;dir_214608ef36d61442cb2b0c1c4e9a7def</title>
<path fill="none" stroke="black" d="M78.1614,-291.061C81.0953,-289.893 84.077,-288.84 87,-288 217.343,-250.559 264.813,-304.148 390,-252 425.625,-237.16 492.355,-162.904 526,-144 554.981,-127.716 589.924,-114.714 618.131,-105.664"/>
<polygon fill="black" stroke="black" points="619.312,-108.962 627.806,-102.629 617.217,-102.283 619.312,-108.962"/>
<g id="a_edge25&#45;headlabel"><a xlink:href="dir_000126_000000.xhtml" target="_top" xlink:title="587">
<text text-anchor="middle" x="616.732" y="-110.247" font-family="Helvetica,sans-Serif" font-size="10.00">587</text>
</a>
</g>
</g>
<!-- dir_896191444cf08ec8ade6f88256cb2bdd -->
<g id="node13" class="node"><title>dir_896191444cf08ec8ade6f88256cb2bdd</title>
<g id="a_node13"><a xlink:href="dir_896191444cf08ec8ade6f88256cb2bdd.xhtml" target="_top" xlink:title="CL">
<polygon fill="none" stroke="black" points="418,-180 364,-180 364,-144 418,-144 418,-180"/>
<text text-anchor="middle" x="391" y="-159.5" font-family="Helvetica,sans-Serif" font-size="10.00">CL</text>
</a>
</g>
</g>
<!-- dir_f7024513cd67abef53e86ee9382ac5ce&#45;&gt;dir_896191444cf08ec8ade6f88256cb2bdd -->
<g id="edge26" class="edge"><title>dir_f7024513cd67abef53e86ee9382ac5ce&#45;&gt;dir_896191444cf08ec8ade6f88256cb2bdd</title>
<path fill="none" stroke="black" d="M78.1714,-291.096C81.1033,-289.921 84.0819,-288.856 87,-288 146.35,-270.583 315.607,-291.745 363,-252 380.99,-236.913 387.585,-210.378 389.92,-190.196"/>
<polygon fill="black" stroke="black" points="393.425,-190.3 390.809,-180.033 386.451,-189.69 393.425,-190.3"/>
<g id="a_edge26&#45;headlabel"><a xlink:href="dir_000126_000160.xhtml" target="_top" xlink:title="178">
<text text-anchor="middle" x="395.94" y="-191.628" font-family="Helvetica,sans-Serif" font-size="10.00">178</text>
</a>
</g>
</g>
<!-- dir_5815af820a9cc9481f1d0990a0d60286 -->
<g id="node14" class="node"><title>dir_5815af820a9cc9481f1d0990a0d60286</title>
<g id="a_node14"><a xlink:href="dir_5815af820a9cc9481f1d0990a0d60286.xhtml" target="_top" xlink:title="support">
<polygon fill="none" stroke="black" points="358,-36 304,-36 304,-0 358,-0 358,-36"/>
<text text-anchor="middle" x="331" y="-15.5" font-family="Helvetica,sans-Serif" font-size="10.00">support</text>
</a>
</g>
</g>
<!-- dir_f7024513cd67abef53e86ee9382ac5ce&#45;&gt;dir_5815af820a9cc9481f1d0990a0d60286 -->
<g id="edge27" class="edge"><title>dir_f7024513cd67abef53e86ee9382ac5ce&#45;&gt;dir_5815af820a9cc9481f1d0990a0d60286</title>
<path fill="none" stroke="black" d="M62.6361,-287.978C90.9876,-247.306 167.256,-142.619 248,-72 262.308,-59.4861 279.843,-47.8452 295.104,-38.6793"/>
<polygon fill="black" stroke="black" points="296.934,-41.6632 303.784,-33.5807 293.389,-35.6273 296.934,-41.6632"/>
<g id="a_edge27&#45;headlabel"><a xlink:href="dir_000126_000153.xhtml" target="_top" xlink:title="4">
<text text-anchor="middle" x="295.273" y="-43.4319" font-family="Helvetica,sans-Serif" font-size="10.00">4</text>
</a>
</g>
</g>
<!-- dir_420d2db1b9c99f59825a3985434c3703 -->
<g id="node3" class="node"><title>dir_420d2db1b9c99f59825a3985434c3703</title>
<g id="a_node3"><a xlink:href="dir_420d2db1b9c99f59825a3985434c3703.xhtml" target="_top" xlink:title="CPP">
<polygon fill="white" stroke="black" points="408,-324 354,-324 354,-288 408,-288 408,-324"/>
<text text-anchor="middle" x="381" y="-303.5" font-family="Helvetica,sans-Serif" font-size="10.00">CPP</text>
</a>
</g>
</g>
<!-- dir_420d2db1b9c99f59825a3985434c3703&#45;&gt;dir_46fdb196cebdbffe77dac340cde62f29 -->
<g id="edge36" class="edge"><title>dir_420d2db1b9c99f59825a3985434c3703&#45;&gt;dir_46fdb196cebdbffe77dac340cde62f29</title>
<path fill="none" stroke="black" d="M366.663,-287.697C359.709,-279.305 351.23,-269.07 343.599,-259.861"/>
<polygon fill="black" stroke="black" points="346.247,-257.571 337.172,-252.104 340.857,-262.038 346.247,-257.571"/>
<g id="a_edge36&#45;headlabel"><a xlink:href="dir_000166_000035.xhtml" target="_top" xlink:title="2">
<text text-anchor="middle" x="350.727" y="-256.028" font-family="Helvetica,sans-Serif" font-size="10.00">2</text>
</a>
</g>
</g>
<!-- dir_445738e6fed662d0b65e690e3f1e1de0 -->
<g id="node9" class="node"><title>dir_445738e6fed662d0b65e690e3f1e1de0</title>
<g id="a_node9"><a xlink:href="dir_445738e6fed662d0b65e690e3f1e1de0.xhtml" target="_top" xlink:title="NEON">
<polygon fill="none" stroke="black" points="956,-252 902,-252 902,-216 956,-216 956,-252"/>
<text text-anchor="middle" x="929" y="-231.5" font-family="Helvetica,sans-Serif" font-size="10.00">NEON</text>
</a>
</g>
</g>
<!-- dir_420d2db1b9c99f59825a3985434c3703&#45;&gt;dir_445738e6fed662d0b65e690e3f1e1de0 -->
<g id="edge37" class="edge"><title>dir_420d2db1b9c99f59825a3985434c3703&#45;&gt;dir_445738e6fed662d0b65e690e3f1e1de0</title>
<path fill="none" stroke="black" d="M408.127,-290.935C411.067,-289.791 414.06,-288.778 417,-288 619.956,-234.285 683.81,-300.817 888,-252 889.265,-251.698 890.541,-251.361 891.821,-250.997"/>
<polygon fill="black" stroke="black" points="893.222,-254.22 901.608,-247.746 891.015,-247.577 893.222,-254.22"/>
<g id="a_edge37&#45;headlabel"><a xlink:href="dir_000166_000162.xhtml" target="_top" xlink:title="4">
<text text-anchor="middle" x="890.705" y="-255.547" font-family="Helvetica,sans-Serif" font-size="10.00">4</text>
</a>
</g>
</g>
<!-- dir_420d2db1b9c99f59825a3985434c3703&#45;&gt;dir_9e71e2da941d3cafc4d98a9f6ae3de4f -->
<g id="edge38" class="edge"><title>dir_420d2db1b9c99f59825a3985434c3703&#45;&gt;dir_9e71e2da941d3cafc4d98a9f6ae3de4f</title>
<path fill="none" stroke="black" d="M408.174,-291.103C411.105,-289.926 414.083,-288.86 417,-288 533.546,-253.649 569.872,-280.436 688,-252 689.477,-251.644 690.973,-251.26 692.477,-250.852"/>
<polygon fill="black" stroke="black" points="693.856,-254.093 702.437,-247.879 691.854,-247.385 693.856,-254.093"/>
<g id="a_edge38&#45;headlabel"><a xlink:href="dir_000166_000034.xhtml" target="_top" xlink:title="15">
<text text-anchor="middle" x="691.224" y="-255.342" font-family="Helvetica,sans-Serif" font-size="10.00">15</text>
</a>
</g>
</g>
<!-- dir_420d2db1b9c99f59825a3985434c3703&#45;&gt;dir_214608ef36d61442cb2b0c1c4e9a7def -->
<g id="edge39" class="edge"><title>dir_420d2db1b9c99f59825a3985434c3703&#45;&gt;dir_214608ef36d61442cb2b0c1c4e9a7def</title>
<path fill="none" stroke="black" d="M408.118,-290.902C411.06,-289.765 414.056,-288.762 417,-288 476.072,-272.703 923.29,-296.54 965,-252 1043.64,-168.024 826.117,-117.894 722.013,-99.2921"/>
<polygon fill="black" stroke="black" points="722.46,-95.8171 712.006,-97.5386 721.251,-102.712 722.46,-95.8171"/>
<g id="a_edge39&#45;headlabel"><a xlink:href="dir_000166_000000.xhtml" target="_top" xlink:title="18">
<text text-anchor="middle" x="726.49" y="-91.1408" font-family="Helvetica,sans-Serif" font-size="10.00">18</text>
</a>
</g>
</g>
<!-- dir_fbdf7bf92663091dc4d5520df638c068 -->
<g id="node4" class="node"><title>dir_fbdf7bf92663091dc4d5520df638c068</title>
<g id="a_node4"><a xlink:href="dir_fbdf7bf92663091dc4d5520df638c068.xhtml" target="_top" xlink:title="GLES_COMPUTE">
<polygon fill="white" stroke="red" points="191.5,-324 96.5,-324 96.5,-288 191.5,-288 191.5,-324"/>
<text text-anchor="middle" x="144" y="-303.5" font-family="Helvetica,sans-Serif" font-size="10.00">GLES_COMPUTE</text>
</a>
</g>
</g>
<!-- dir_fbdf7bf92663091dc4d5520df638c068&#45;&gt;dir_9e71e2da941d3cafc4d98a9f6ae3de4f -->
<g id="edge4" class="edge"><title>dir_fbdf7bf92663091dc4d5520df638c068&#45;&gt;dir_9e71e2da941d3cafc4d98a9f6ae3de4f</title>
<path fill="none" stroke="black" d="M191.715,-289.978C194.841,-289.239 197.955,-288.57 201,-288 397.783,-251.189 451.696,-279.457 650,-252 663.815,-250.087 678.76,-247.365 692.255,-244.659"/>
<polygon fill="black" stroke="black" points="693.159,-248.046 702.25,-242.606 691.75,-241.19 693.159,-248.046"/>
<g id="a_edge4&#45;headlabel"><a xlink:href="dir_000140_000034.xhtml" target="_top" xlink:title="59">
<text text-anchor="middle" x="690.209" y="-249.051" font-family="Helvetica,sans-Serif" font-size="10.00">59</text>
</a>
</g>
</g>
<!-- dir_7365e77196b52ca311bb83f181e59b8c -->
<g id="node11" class="node"><title>dir_7365e77196b52ca311bb83f181e59b8c</title>
<g id="a_node11"><a xlink:href="dir_7365e77196b52ca311bb83f181e59b8c.xhtml" target="_top" xlink:title="GLES_COMPUTE">
<polygon fill="none" stroke="black" points="607.5,-252 512.5,-252 512.5,-216 607.5,-216 607.5,-252"/>
<text text-anchor="middle" x="560" y="-231.5" font-family="Helvetica,sans-Serif" font-size="10.00">GLES_COMPUTE</text>
</a>
</g>
</g>
<!-- dir_fbdf7bf92663091dc4d5520df638c068&#45;&gt;dir_7365e77196b52ca311bb83f181e59b8c -->
<g id="edge5" class="edge"><title>dir_fbdf7bf92663091dc4d5520df638c068&#45;&gt;dir_7365e77196b52ca311bb83f181e59b8c</title>
<path fill="none" stroke="black" d="M191.743,-290.119C194.862,-289.346 197.967,-288.63 201,-288 332.05,-260.774 368.765,-278.324 500,-252 500.756,-251.848 501.517,-251.692 502.281,-251.531"/>
<polygon fill="black" stroke="black" points="503.382,-254.87 512.349,-249.227 501.82,-248.046 503.382,-254.87"/>
<g id="a_edge5&#45;headlabel"><a xlink:href="dir_000140_000161.xhtml" target="_top" xlink:title="22">
<text text-anchor="middle" x="500.511" y="-255.939" font-family="Helvetica,sans-Serif" font-size="10.00">22</text>
</a>
</g>
</g>
<!-- dir_fbdf7bf92663091dc4d5520df638c068&#45;&gt;dir_214608ef36d61442cb2b0c1c4e9a7def -->
<g id="edge6" class="edge"><title>dir_fbdf7bf92663091dc4d5520df638c068&#45;&gt;dir_214608ef36d61442cb2b0c1c4e9a7def</title>
<path fill="none" stroke="black" d="M191.757,-290.184C194.872,-289.395 197.973,-288.658 201,-288 314.567,-263.321 358.514,-308.632 460,-252 486.188,-237.387 480.634,-219.978 503,-200 542.11,-165.066 593.401,-133.313 628.767,-113.207"/>
<polygon fill="black" stroke="black" points="630.846,-116.053 637.847,-108.101 627.415,-109.952 630.846,-116.053"/>
<g id="a_edge6&#45;headlabel"><a xlink:href="dir_000140_000000.xhtml" target="_top" xlink:title="85">
<text text-anchor="middle" x="629.104" y="-117.79" font-family="Helvetica,sans-Serif" font-size="10.00">85</text>
</a>
</g>
</g>
<!-- dir_fbdf7bf92663091dc4d5520df638c068&#45;&gt;dir_5815af820a9cc9481f1d0990a0d60286 -->
<g id="edge7" class="edge"><title>dir_fbdf7bf92663091dc4d5520df638c068&#45;&gt;dir_5815af820a9cc9481f1d0990a0d60286</title>
<path fill="none" stroke="black" d="M151.463,-287.84C169.349,-247.744 217.48,-145.725 275,-72 283.041,-61.6934 293.097,-51.5376 302.459,-42.9174"/>
<polygon fill="black" stroke="black" points="304.991,-45.3486 310.101,-36.0679 300.319,-40.1358 304.991,-45.3486"/>
<g id="a_edge7&#45;headlabel"><a xlink:href="dir_000140_000153.xhtml" target="_top" xlink:title="2">
<text text-anchor="middle" x="304.209" y="-47.362" font-family="Helvetica,sans-Serif" font-size="10.00">2</text>
</a>
</g>
</g>
<!-- dir_0538a82dae0483a21d0f1e9d7e0a45c6 -->
<g id="node5" class="node"><title>dir_0538a82dae0483a21d0f1e9d7e0a45c6</title>
<g id="a_node5"><a xlink:href="dir_0538a82dae0483a21d0f1e9d7e0a45c6.xhtml" target="_top" xlink:title="NEON">
<polygon fill="white" stroke="red" points="264,-324 210,-324 210,-288 264,-288 264,-324"/>
<text text-anchor="middle" x="237" y="-303.5" font-family="Helvetica,sans-Serif" font-size="10.00">NEON</text>
</a>
</g>
</g>
<!-- dir_0538a82dae0483a21d0f1e9d7e0a45c6&#45;&gt;dir_46fdb196cebdbffe77dac340cde62f29 -->
<g id="edge28" class="edge"><title>dir_0538a82dae0483a21d0f1e9d7e0a45c6&#45;&gt;dir_46fdb196cebdbffe77dac340cde62f29</title>
<path fill="none" stroke="black" d="M258.258,-287.697C269.089,-278.881 282.418,-268.032 294.16,-258.474"/>
<polygon fill="black" stroke="black" points="296.44,-261.132 301.986,-252.104 292.021,-255.703 296.44,-261.132"/>
<g id="a_edge28&#45;headlabel"><a xlink:href="dir_000127_000035.xhtml" target="_top" xlink:title="4">
<text text-anchor="middle" x="295.444" y="-263.103" font-family="Helvetica,sans-Serif" font-size="10.00">4</text>
</a>
</g>
</g>
<!-- dir_0538a82dae0483a21d0f1e9d7e0a45c6&#45;&gt;dir_cbdb8362360e11eafe2fa3bc74cf0ffd -->
<g id="edge29" class="edge"><title>dir_0538a82dae0483a21d0f1e9d7e0a45c6&#45;&gt;dir_cbdb8362360e11eafe2fa3bc74cf0ffd</title>
<path fill="none" stroke="black" d="M264.122,-290.919C267.064,-289.778 270.058,-288.77 273,-288 327.526,-273.722 740.585,-293.246 779,-252 794.54,-235.315 787.298,-208.917 778.122,-189.196"/>
<polygon fill="black" stroke="black" points="781.177,-187.481 773.553,-180.123 774.925,-190.629 781.177,-187.481"/>
<g id="a_edge29&#45;headlabel"><a xlink:href="dir_000127_000036.xhtml" target="_top" xlink:title="3">
<text text-anchor="middle" x="785.329" y="-186.914" font-family="Helvetica,sans-Serif" font-size="10.00">3</text>
</a>
</g>
</g>
<!-- dir_0538a82dae0483a21d0f1e9d7e0a45c6&#45;&gt;dir_445738e6fed662d0b65e690e3f1e1de0 -->
<g id="edge30" class="edge"><title>dir_0538a82dae0483a21d0f1e9d7e0a45c6&#45;&gt;dir_445738e6fed662d0b65e690e3f1e1de0</title>
<path fill="none" stroke="black" d="M264.119,-290.906C267.061,-289.768 270.056,-288.764 273,-288 505.39,-227.686 573.245,-277.28 812,-252 838.728,-249.17 868.725,-244.787 891.653,-241.181"/>
<polygon fill="black" stroke="black" points="892.329,-244.617 901.653,-239.587 891.227,-237.705 892.329,-244.617"/>
<g id="a_edge30&#45;headlabel"><a xlink:href="dir_000127_000162.xhtml" target="_top" xlink:title="148">
<text text-anchor="middle" x="889.226" y="-245.487" font-family="Helvetica,sans-Serif" font-size="10.00">148</text>
</a>
</g>
</g>
<!-- dir_0538a82dae0483a21d0f1e9d7e0a45c6&#45;&gt;dir_9e71e2da941d3cafc4d98a9f6ae3de4f -->
<g id="edge31" class="edge"><title>dir_0538a82dae0483a21d0f1e9d7e0a45c6&#45;&gt;dir_9e71e2da941d3cafc4d98a9f6ae3de4f</title>
<path fill="none" stroke="black" d="M264.135,-290.966C267.074,-289.816 270.064,-288.793 273,-288 451.73,-239.715 507.065,-291.219 688,-252 689.485,-251.678 690.987,-251.323 692.497,-250.94"/>
<polygon fill="black" stroke="black" points="693.834,-254.198 702.483,-248.078 691.906,-247.469 693.834,-254.198"/>
<g id="a_edge31&#45;headlabel"><a xlink:href="dir_000127_000034.xhtml" target="_top" xlink:title="379">
<text text-anchor="middle" x="691.161" y="-255.417" font-family="Helvetica,sans-Serif" font-size="10.00">379</text>
</a>
</g>
</g>
<!-- dir_0538a82dae0483a21d0f1e9d7e0a45c6&#45;&gt;dir_214608ef36d61442cb2b0c1c4e9a7def -->
<g id="edge32" class="edge"><title>dir_0538a82dae0483a21d0f1e9d7e0a45c6&#45;&gt;dir_214608ef36d61442cb2b0c1c4e9a7def</title>
<path fill="none" stroke="black" d="M264.15,-291.02C267.086,-289.86 270.071,-288.82 273,-288 346.805,-267.345 556.208,-299.945 616,-252 656.717,-219.351 666.943,-154.869 669.378,-118.191"/>
<polygon fill="black" stroke="black" points="672.874,-118.367 669.893,-108.2 665.883,-118.006 672.874,-118.367"/>
<g id="a_edge32&#45;headlabel"><a xlink:href="dir_000127_000000.xhtml" target="_top" xlink:title="517">
<text text-anchor="middle" x="675.524" y="-119.603" font-family="Helvetica,sans-Serif" font-size="10.00">517</text>
</a>
</g>
</g>
<!-- dir_0538a82dae0483a21d0f1e9d7e0a45c6&#45;&gt;dir_5815af820a9cc9481f1d0990a0d60286 -->
<g id="edge33" class="edge"><title>dir_0538a82dae0483a21d0f1e9d7e0a45c6&#45;&gt;dir_5815af820a9cc9481f1d0990a0d60286</title>
<path fill="none" stroke="black" d="M238.67,-287.857C243.029,-248.22 256.939,-147.828 292,-72 296.531,-62.201 303.031,-52.4144 309.429,-43.9663"/>
<polygon fill="black" stroke="black" points="312.26,-46.0287 315.716,-36.0134 306.769,-41.6874 312.26,-46.0287"/>
<g id="a_edge33&#45;headlabel"><a xlink:href="dir_000127_000153.xhtml" target="_top" xlink:title="4">
<text text-anchor="middle" x="312.258" y="-48.1093" font-family="Helvetica,sans-Serif" font-size="10.00">4</text>
</a>
</g>
</g>
<!-- dir_46fdb196cebdbffe77dac340cde62f29&#45;&gt;dir_9e71e2da941d3cafc4d98a9f6ae3de4f -->
<g id="edge1" class="edge"><title>dir_46fdb196cebdbffe77dac340cde62f29&#45;&gt;dir_9e71e2da941d3cafc4d98a9f6ae3de4f</title>
<path fill="none" stroke="black" d="M354.186,-244.893C416.989,-265.158 562.638,-303.669 679,-270 688.165,-267.348 697.272,-262.735 705.43,-257.678"/>
<polygon fill="black" stroke="black" points="707.463,-260.53 713.867,-252.089 703.597,-254.694 707.463,-260.53"/>
<g id="a_edge1&#45;headlabel"><a xlink:href="dir_000035_000034.xhtml" target="_top" xlink:title="3">
<text text-anchor="middle" x="706.035" y="-262.382" font-family="Helvetica,sans-Serif" font-size="10.00">3</text>
</a>
</g>
</g>
<!-- dir_46fdb196cebdbffe77dac340cde62f29&#45;&gt;dir_214608ef36d61442cb2b0c1c4e9a7def -->
<g id="edge2" class="edge"><title>dir_46fdb196cebdbffe77dac340cde62f29&#45;&gt;dir_214608ef36d61442cb2b0c1c4e9a7def</title>
<path fill="none" stroke="black" d="M324.156,-215.677C326.498,-195.274 333.582,-161.9 355,-144 393.993,-111.412 538.599,-98.3201 617.616,-93.5118"/>
<polygon fill="black" stroke="black" points="618.068,-96.9914 627.847,-92.9132 617.659,-90.0033 618.068,-96.9914"/>
<g id="a_edge2&#45;headlabel"><a xlink:href="dir_000035_000000.xhtml" target="_top" xlink:title="89">
<text text-anchor="middle" x="614.645" y="-97.5357" font-family="Helvetica,sans-Serif" font-size="10.00">89</text>
</a>
</g>
</g>
<!-- dir_46fdb196cebdbffe77dac340cde62f29&#45;&gt;dir_5815af820a9cc9481f1d0990a0d60286 -->
<g id="edge3" class="edge"><title>dir_46fdb196cebdbffe77dac340cde62f29&#45;&gt;dir_5815af820a9cc9481f1d0990a0d60286</title>
<path fill="none" stroke="black" d="M323.641,-215.849C325.025,-178.832 328.302,-91.1809 329.976,-46.3863"/>
<polygon fill="black" stroke="black" points="333.48,-46.3563 330.356,-36.2325 326.485,-46.0947 333.48,-46.3563"/>
<g id="a_edge3&#45;headlabel"><a xlink:href="dir_000035_000153.xhtml" target="_top" xlink:title="2">
<text text-anchor="middle" x="336.183" y="-47.5544" font-family="Helvetica,sans-Serif" font-size="10.00">2</text>
</a>
</g>
</g>
<!-- dir_0c108762cda89b68d4571cbbabdf46df -->
<g id="node7" class="node"><title>dir_0c108762cda89b68d4571cbbabdf46df</title>
<g id="a_node7"><a xlink:href="dir_0c108762cda89b68d4571cbbabdf46df.xhtml" target="_top" xlink:title="UNIT">
<polygon fill="white" stroke="black" points="336,-324 282,-324 282,-288 336,-288 336,-324"/>
<text text-anchor="middle" x="309" y="-303.5" font-family="Helvetica,sans-Serif" font-size="10.00">UNIT</text>
</a>
</g>
</g>
<!-- dir_0c108762cda89b68d4571cbbabdf46df&#45;&gt;dir_cbdb8362360e11eafe2fa3bc74cf0ffd -->
<g id="edge16" class="edge"><title>dir_0c108762cda89b68d4571cbbabdf46df&#45;&gt;dir_cbdb8362360e11eafe2fa3bc74cf0ffd</title>
<path fill="none" stroke="black" d="M336.127,-290.937C339.068,-289.793 342.06,-288.779 345,-288 395.306,-274.668 776.643,-290.188 812,-252 827.701,-235.042 822.302,-220.688 812,-200 808.807,-193.589 803.916,-187.994 798.436,-183.229"/>
<polygon fill="black" stroke="black" points="800.181,-180.156 790.117,-176.843 795.918,-185.709 800.181,-180.156"/>
<g id="a_edge16&#45;headlabel"><a xlink:href="dir_000075_000036.xhtml" target="_top" xlink:title="4">
<text text-anchor="middle" x="804.761" y="-177.593" font-family="Helvetica,sans-Serif" font-size="10.00">4</text>
</a>
</g>
</g>
<!-- dir_0c108762cda89b68d4571cbbabdf46df&#45;&gt;dir_9e71e2da941d3cafc4d98a9f6ae3de4f -->
<g id="edge17" class="edge"><title>dir_0c108762cda89b68d4571cbbabdf46df&#45;&gt;dir_9e71e2da941d3cafc4d98a9f6ae3de4f</title>
<path fill="none" stroke="black" d="M336.15,-291.02C339.086,-289.86 342.071,-288.82 345,-288 492.61,-246.69 538.496,-285.821 688,-252 689.482,-251.665 690.981,-251.298 692.489,-250.905"/>
<polygon fill="black" stroke="black" points="693.843,-254.156 702.465,-247.999 691.886,-247.436 693.843,-254.156"/>
<g id="a_edge17&#45;headlabel"><a xlink:href="dir_000075_000034.xhtml" target="_top" xlink:title="18">
<text text-anchor="middle" x="691.186" y="-255.387" font-family="Helvetica,sans-Serif" font-size="10.00">18</text>
</a>
</g>
</g>
<!-- dir_0c108762cda89b68d4571cbbabdf46df&#45;&gt;dir_214608ef36d61442cb2b0c1c4e9a7def -->
<g id="edge18" class="edge"><title>dir_0c108762cda89b68d4571cbbabdf46df&#45;&gt;dir_214608ef36d61442cb2b0c1c4e9a7def</title>
<path fill="none" stroke="black" d="M336.125,-290.928C339.066,-289.786 342.059,-288.775 345,-288 397.254,-274.232 793.231,-291.599 830,-252 845.726,-235.064 835.78,-222.377 830,-200 822.885,-172.456 820.246,-162.918 799,-144 777.29,-124.668 747.569,-111.811 722.127,-103.609"/>
<polygon fill="black" stroke="black" points="722.837,-100.166 712.25,-100.584 720.787,-106.859 722.837,-100.166"/>
<g id="a_edge18&#45;headlabel"><a xlink:href="dir_000075_000000.xhtml" target="_top" xlink:title="11">
<text text-anchor="middle" x="727.105" y="-96.0034" font-family="Helvetica,sans-Serif" font-size="10.00">11</text>
</a>
</g>
</g>
<!-- dir_0c108762cda89b68d4571cbbabdf46df&#45;&gt;dir_5815af820a9cc9481f1d0990a0d60286 -->
<g id="edge19" class="edge"><title>dir_0c108762cda89b68d4571cbbabdf46df&#45;&gt;dir_5815af820a9cc9481f1d0990a0d60286</title>
<path fill="none" stroke="black" d="M297.954,-287.611C292.263,-277.615 285.919,-264.579 283,-252 265.676,-177.351 298.68,-88.5118 318.158,-45.2669"/>
<polygon fill="black" stroke="black" points="321.414,-46.5652 322.434,-36.0195 315.06,-43.6276 321.414,-46.5652"/>
<g id="a_edge19&#45;headlabel"><a xlink:href="dir_000075_000153.xhtml" target="_top" xlink:title="2">
<text text-anchor="middle" x="322.483" y="-48.5194" font-family="Helvetica,sans-Serif" font-size="10.00">2</text>
</a>
</g>
</g>
<!-- dir_cbdb8362360e11eafe2fa3bc74cf0ffd&#45;&gt;dir_214608ef36d61442cb2b0c1c4e9a7def -->
<g id="edge8" class="edge"><title>dir_cbdb8362360e11eafe2fa3bc74cf0ffd&#45;&gt;dir_214608ef36d61442cb2b0c1c4e9a7def</title>
<path fill="none" stroke="black" d="M735.883,-144.941C722.893,-135.934 707.534,-124.534 694.852,-114.536"/>
<polygon fill="black" stroke="black" points="696.948,-111.731 686.956,-108.208 692.571,-117.193 696.948,-111.731"/>
<g id="a_edge8&#45;headlabel"><a xlink:href="dir_000036_000000.xhtml" target="_top" xlink:title="37">
<text text-anchor="middle" x="701.529" y="-109.263" font-family="Helvetica,sans-Serif" font-size="10.00">37</text>
</a>
</g>
</g>
<!-- dir_cbdb8362360e11eafe2fa3bc74cf0ffd&#45;&gt;dir_5815af820a9cc9481f1d0990a0d60286 -->
<g id="edge9" class="edge"><title>dir_cbdb8362360e11eafe2fa3bc74cf0ffd&#45;&gt;dir_5815af820a9cc9481f1d0990a0d60286</title>
<path fill="none" stroke="black" d="M759.978,-143.792C755.388,-123.179 744.565,-89.2708 721,-72 665.316,-31.1886 454.545,-21.7833 368.216,-19.6317"/>
<polygon fill="black" stroke="black" points="368.161,-16.1297 358.083,-19.3986 368,-23.1278 368.161,-16.1297"/>
<g id="a_edge9&#45;headlabel"><a xlink:href="dir_000036_000153.xhtml" target="_top" xlink:title="3">
<text text-anchor="middle" x="371.82" y="-10.8737" font-family="Helvetica,sans-Serif" font-size="10.00">3</text>
</a>
</g>
</g>
<!-- dir_445738e6fed662d0b65e690e3f1e1de0&#45;&gt;dir_214608ef36d61442cb2b0c1c4e9a7def -->
<g id="edge10" class="edge"><title>dir_445738e6fed662d0b65e690e3f1e1de0&#45;&gt;dir_214608ef36d61442cb2b0c1c4e9a7def</title>
<path fill="none" stroke="black" d="M914.557,-215.907C896.933,-196.042 865.339,-163.503 832,-144 797.857,-124.027 755.201,-110.462 722.231,-102.058"/>
<polygon fill="black" stroke="black" points="722.878,-98.6128 712.331,-99.6145 721.2,-105.409 722.878,-98.6128"/>
<g id="a_edge10&#45;headlabel"><a xlink:href="dir_000162_000000.xhtml" target="_top" xlink:title="6">
<text text-anchor="middle" x="727.048" y="-94.2175" font-family="Helvetica,sans-Serif" font-size="10.00">6</text>
</a>
</g>
</g>
<!-- dir_445738e6fed662d0b65e690e3f1e1de0&#45;&gt;dir_5815af820a9cc9481f1d0990a0d60286 -->
<g id="edge11" class="edge"><title>dir_445738e6fed662d0b65e690e3f1e1de0&#45;&gt;dir_5815af820a9cc9481f1d0990a0d60286</title>
<path fill="none" stroke="black" d="M920.116,-215.754C900.907,-180.634 851.715,-101.636 784,-72 709.525,-39.4052 463.082,-25.0008 368.454,-20.576"/>
<polygon fill="black" stroke="black" points="368.357,-17.068 358.208,-20.1084 368.038,-24.0607 368.357,-17.068"/>
<g id="a_edge11&#45;headlabel"><a xlink:href="dir_000162_000153.xhtml" target="_top" xlink:title="1">
<text text-anchor="middle" x="372.077" y="-11.8955" font-family="Helvetica,sans-Serif" font-size="10.00">1</text>
</a>
</g>
</g>
<!-- dir_9e71e2da941d3cafc4d98a9f6ae3de4f&#45;&gt;dir_cbdb8362360e11eafe2fa3bc74cf0ffd -->
<g id="edge12" class="edge"><title>dir_9e71e2da941d3cafc4d98a9f6ae3de4f&#45;&gt;dir_cbdb8362360e11eafe2fa3bc74cf0ffd</title>
<path fill="none" stroke="black" d="M742.674,-215.697C745.715,-207.813 749.383,-198.304 752.761,-189.546"/>
<polygon fill="black" stroke="black" points="756.069,-190.694 756.403,-180.104 749.538,-188.175 756.069,-190.694"/>
<g id="a_edge12&#45;headlabel"><a xlink:href="dir_000034_000036.xhtml" target="_top" xlink:title="3">
<text text-anchor="middle" x="757.425" y="-192.569" font-family="Helvetica,sans-Serif" font-size="10.00">3</text>
</a>
</g>
</g>
<!-- dir_9e71e2da941d3cafc4d98a9f6ae3de4f&#45;&gt;dir_214608ef36d61442cb2b0c1c4e9a7def -->
<g id="edge13" class="edge"><title>dir_9e71e2da941d3cafc4d98a9f6ae3de4f&#45;&gt;dir_214608ef36d61442cb2b0c1c4e9a7def</title>
<path fill="none" stroke="black" d="M728.039,-215.871C716.642,-191.35 695.578,-146.032 682.205,-117.259"/>
<polygon fill="black" stroke="black" points="685.378,-115.782 677.989,-108.189 679.03,-118.733 685.378,-115.782"/>
<g id="a_edge13&#45;headlabel"><a xlink:href="dir_000034_000000.xhtml" target="_top" xlink:title="16">
<text text-anchor="middle" x="689.468" y="-115.345" font-family="Helvetica,sans-Serif" font-size="10.00">16</text>
</a>
</g>
</g>
<!-- dir_9e71e2da941d3cafc4d98a9f6ae3de4f&#45;&gt;dir_5815af820a9cc9481f1d0990a0d60286 -->
<g id="edge14" class="edge"><title>dir_9e71e2da941d3cafc4d98a9f6ae3de4f&#45;&gt;dir_5815af820a9cc9481f1d0990a0d60286</title>
<path fill="none" stroke="black" d="M766.3,-215.805C778.878,-206.898 792.123,-194.772 799,-180 821.324,-132.047 794.232,-99.4199 749,-72 685.293,-33.3809 458.347,-22.6643 368.252,-19.8971"/>
<polygon fill="black" stroke="black" points="368.311,-16.3974 358.213,-19.6045 368.107,-23.3944 368.311,-16.3974"/>
<g id="a_edge14&#45;headlabel"><a xlink:href="dir_000034_000153.xhtml" target="_top" xlink:title="7">
<text text-anchor="middle" x="371.986" y="-11.1639" font-family="Helvetica,sans-Serif" font-size="10.00">7</text>
</a>
</g>
</g>
<!-- dir_7365e77196b52ca311bb83f181e59b8c&#45;&gt;dir_214608ef36d61442cb2b0c1c4e9a7def -->
<g id="edge15" class="edge"><title>dir_7365e77196b52ca311bb83f181e59b8c&#45;&gt;dir_214608ef36d61442cb2b0c1c4e9a7def</title>
<path fill="none" stroke="black" d="M573.269,-215.871C592.512,-191.031 628.288,-144.846 650.524,-116.142"/>
<polygon fill="black" stroke="black" points="653.327,-118.238 656.684,-108.189 647.793,-113.951 653.327,-118.238"/>
<g id="a_edge15&#45;headlabel"><a xlink:href="dir_000161_000000.xhtml" target="_top" xlink:title="3">
<text text-anchor="middle" x="653.371" y="-120.319" font-family="Helvetica,sans-Serif" font-size="10.00">3</text>
</a>
</g>
</g>
<!-- dir_214608ef36d61442cb2b0c1c4e9a7def&#45;&gt;dir_cbdb8362360e11eafe2fa3bc74cf0ffd -->
<g id="edge20" class="edge"><title>dir_214608ef36d61442cb2b0c1c4e9a7def&#45;&gt;dir_cbdb8362360e11eafe2fa3bc74cf0ffd</title>
<path fill="none" stroke="black" d="M698.619,-108.104C711.212,-116.889 725.794,-127.732 737.952,-137.309"/>
<polygon fill="black" stroke="black" points="735.934,-140.177 745.927,-143.697 740.31,-134.714 735.934,-140.177"/>
<g id="a_edge20&#45;headlabel"><a xlink:href="dir_000000_000036.xhtml" target="_top" xlink:title="1">
<text text-anchor="middle" x="731.353" y="-137.646" font-family="Helvetica,sans-Serif" font-size="10.00">1</text>
</a>
</g>
</g>
<!-- dir_214608ef36d61442cb2b0c1c4e9a7def&#45;&gt;dir_5815af820a9cc9481f1d0990a0d60286 -->
<g id="edge21" class="edge"><title>dir_214608ef36d61442cb2b0c1c4e9a7def&#45;&gt;dir_5815af820a9cc9481f1d0990a0d60286</title>
<path fill="none" stroke="black" d="M627.751,-80.276C560.835,-66.4586 431.564,-39.7655 368.051,-26.6507"/>
<polygon fill="black" stroke="black" points="368.579,-23.1858 358.077,-24.5912 367.163,-30.0412 368.579,-23.1858"/>
<g id="a_edge21&#45;headlabel"><a xlink:href="dir_000000_000153.xhtml" target="_top" xlink:title="23">
<text text-anchor="middle" x="372.673" y="-18.6321" font-family="Helvetica,sans-Serif" font-size="10.00">23</text>
</a>
</g>
</g>
<!-- dir_896191444cf08ec8ade6f88256cb2bdd&#45;&gt;dir_214608ef36d61442cb2b0c1c4e9a7def -->
<g id="edge34" class="edge"><title>dir_896191444cf08ec8ade6f88256cb2bdd&#45;&gt;dir_214608ef36d61442cb2b0c1c4e9a7def</title>
<path fill="none" stroke="black" d="M418.102,-148.989C422.691,-147.179 427.445,-145.44 432,-144 494.743,-124.172 569.04,-108.883 617.726,-99.9303"/>
<polygon fill="black" stroke="black" points="618.5,-103.347 627.714,-98.1168 617.249,-96.4598 618.5,-103.347"/>
<g id="a_edge34&#45;headlabel"><a xlink:href="dir_000160_000000.xhtml" target="_top" xlink:title="10">
<text text-anchor="middle" x="615.47" y="-104.283" font-family="Helvetica,sans-Serif" font-size="10.00">10</text>
</a>
</g>
</g>
<!-- dir_896191444cf08ec8ade6f88256cb2bdd&#45;&gt;dir_5815af820a9cc9481f1d0990a0d60286 -->
<g id="edge35" class="edge"><title>dir_896191444cf08ec8ade6f88256cb2bdd&#45;&gt;dir_5815af820a9cc9481f1d0990a0d60286</title>
<path fill="none" stroke="black" d="M383.763,-143.871C373.447,-119.457 354.419,-74.4258 342.254,-45.6351"/>
<polygon fill="black" stroke="black" points="345.379,-44.0385 338.263,-36.1893 338.931,-46.763 345.379,-44.0385"/>
<g id="a_edge35&#45;headlabel"><a xlink:href="dir_000160_000153.xhtml" target="_top" xlink:title="1">
<text text-anchor="middle" x="349.394" y="-43.7445" font-family="Helvetica,sans-Serif" font-size="10.00">1</text>
</a>
</g>
</g>
</g>
</svg>
