<?xml version="1.0" encoding="UTF-8" standalone="no"?>
<!DOCTYPE svg PUBLIC "-//W3C//DTD SVG 1.1//EN"
 "http://www.w3.org/Graphics/SVG/1.1/DTD/svg11.dtd">
<!-- Generated by graphviz version 2.40.1 (20161225.0304)
 -->
<!-- Title: tests/benchmark/CL Pages: 1 -->
<svg width="210pt" height="295pt"
 viewBox="0.00 0.00 210.00 295.00" xmlns="http://www.w3.org/2000/svg" xmlns:xlink="http://www.w3.org/1999/xlink">
<g id="graph0" class="graph" transform="scale(1 1) rotate(0) translate(4 291)">
<title>tests/benchmark/CL</title>
<polygon fill="#ffffff" stroke="transparent" points="-4,4 -4,-291 206,-291 206,4 -4,4"/>
<g id="clust1" class="cluster">
<title>clusterdir_4f2df8950dc650bf7cf9176fae02facc</title>
<g id="a_clust1"><a xlink:href="dir_4f2df8950dc650bf7cf9176fae02facc.xhtml" target="_top" xlink:title="benchmark">
<polygon fill="#ddddee" stroke="#000000" points="55,-208 55,-279 125,-279 125,-208 55,-208"/>
<text text-anchor="middle" x="90" y="-267" font-family="Helvetica,sans-Serif" font-size="10.00" fill="#000000">benchmark</text>
</a>
</g>
</g>
<!-- dir_4da487531dc5bdc76b523c9e82b781b1 -->
<g id="node1" class="node">
<title>dir_4da487531dc5bdc76b523c9e82b781b1</title>
<g id="a_node1"><a xlink:href="dir_4da487531dc5bdc76b523c9e82b781b1.xhtml" target="_top" xlink:title="CL">
<polygon fill="#eeeeff" stroke="#000000" points="117,-252 63,-252 63,-216 117,-216 117,-252"/>
<text text-anchor="middle" x="90" y="-231.5" font-family="Helvetica,sans-Serif" font-size="10.00" fill="#000000">CL</text>
</a>
</g>
</g>
<!-- dir_cbdb8362360e11eafe2fa3bc74cf0ffd -->
<g id="node2" class="node">
<title>dir_cbdb8362360e11eafe2fa3bc74cf0ffd</title>
<g id="a_node2"><a xlink:href="dir_cbdb8362360e11eafe2fa3bc74cf0ffd.xhtml" target="_top" xlink:title="utils">
<polygon fill="#ffffff" stroke="#ff0000" points="54,-108 0,-108 0,-72 54,-72 54,-108"/>
<text text-anchor="middle" x="27" y="-87.5" font-family="Helvetica,sans-Serif" font-size="10.00" fill="#000000">utils</text>
</a>
</g>
</g>
<!-- dir_4da487531dc5bdc76b523c9e82b781b1&#45;&gt;dir_cbdb8362360e11eafe2fa3bc74cf0ffd -->
<g id="edge1" class="edge">
<title>dir_4da487531dc5bdc76b523c9e82b781b1&#45;&gt;dir_cbdb8362360e11eafe2fa3bc74cf0ffd</title>
<path fill="none" stroke="#000000" d="M62.9555,-220.7621C47.5916,-211.6343 29.7281,-197.914 21,-180 11.668,-160.8467 13.95,-136.6311 18.137,-118.1441"/>
<polygon fill="#000000" stroke="#000000" points="21.5759,-118.8238 20.6728,-108.2675 14.7958,-117.0829 21.5759,-118.8238"/>
<g id="a_edge1&#45;headlabel"><a xlink:href="dir_000099_000027.xhtml" target="_top" xlink:title="47">
<text text-anchor="middle" x="23.4321" y="-120.5115" font-family="Helvetica,sans-Serif" font-size="10.00" fill="#000000">47</text>
</a>
</g>
</g>
<!-- dir_9e71e2da941d3cafc4d98a9f6ae3de4f -->
<g id="node3" class="node">
<title>dir_9e71e2da941d3cafc4d98a9f6ae3de4f</title>
<g id="a_node3"><a xlink:href="dir_9e71e2da941d3cafc4d98a9f6ae3de4f.xhtml" target="_top" xlink:title="framework">
<polygon fill="#ffffff" stroke="#ff0000" points="92,-180 30,-180 30,-144 92,-144 92,-180"/>
<text text-anchor="middle" x="61" y="-159.5" font-family="Helvetica,sans-Serif" font-size="10.00" fill="#000000">framework</text>
</a>
</g>
</g>
<!-- dir_4da487531dc5bdc76b523c9e82b781b1&#45;&gt;dir_9e71e2da941d3cafc4d98a9f6ae3de4f -->
<g id="edge2" class="edge">
<title>dir_4da487531dc5bdc76b523c9e82b781b1&#45;&gt;dir_9e71e2da941d3cafc4d98a9f6ae3de4f</title>
<path fill="none" stroke="#000000" d="M82.6821,-215.8314C79.5124,-207.9617 75.73,-198.5712 72.2187,-189.8533"/>
<polygon fill="#000000" stroke="#000000" points="75.3992,-188.3815 68.4165,-180.4133 68.9061,-190.9968 75.3992,-188.3815"/>
<g id="a_edge2&#45;headlabel"><a xlink:href="dir_000099_000025.xhtml" target="_top" xlink:title="93">
<text text-anchor="middle" x="79.3758" y="-188.155" font-family="Helvetica,sans-Serif" font-size="10.00" fill="#000000">93</text>
</a>
</g>
</g>
<!-- dir_214608ef36d61442cb2b0c1c4e9a7def -->
<g id="node4" class="node">
<title>dir_214608ef36d61442cb2b0c1c4e9a7def</title>
<g id="a_node4"><a xlink:href="dir_214608ef36d61442cb2b0c1c4e9a7def.xhtml" target="_top" xlink:title="arm_compute">
<polygon fill="#ffffff" stroke="#ff0000" points="120,-36 44,-36 44,0 120,0 120,-36"/>
<text text-anchor="middle" x="82" y="-15.5" font-family="Helvetica,sans-Serif" font-size="10.00" fill="#000000">arm_compute</text>
</a>
</g>
</g>
<!-- dir_4da487531dc5bdc76b523c9e82b781b1&#45;&gt;dir_214608ef36d61442cb2b0c1c4e9a7def -->
<g id="edge3" class="edge">
<title>dir_4da487531dc5bdc76b523c9e82b781b1&#45;&gt;dir_214608ef36d61442cb2b0c1c4e9a7def</title>
<path fill="none" stroke="#000000" d="M94.6934,-215.6463C97.1071,-205.2631 99.7908,-191.9943 101,-180 105.7212,-133.1701 96.3026,-78.8604 89.1148,-46.5242"/>
<polygon fill="#000000" stroke="#000000" points="92.4471,-45.3988 86.7864,-36.443 85.6266,-46.9741 92.4471,-45.3988"/>
<g id="a_edge3&#45;headlabel"><a xlink:href="dir_000099_000000.xhtml" target="_top" xlink:title="203">
<text text-anchor="middle" x="96.0224" y="-45.7623" font-family="Helvetica,sans-Serif" font-size="10.00" fill="#000000">203</text>
</a>
</g>
</g>
<!-- dir_896191444cf08ec8ade6f88256cb2bdd -->
<g id="node5" class="node">
<title>dir_896191444cf08ec8ade6f88256cb2bdd</title>
<g id="a_node5"><a xlink:href="dir_896191444cf08ec8ade6f88256cb2bdd.xhtml" target="_top" xlink:title="CL">
<polygon fill="none" stroke="#000000" points="202,-180 148,-180 148,-144 202,-144 202,-180"/>
<text text-anchor="middle" x="175" y="-159.5" font-family="Helvetica,sans-Serif" font-size="10.00" fill="#000000">CL</text>
</a>
</g>
</g>
<!-- dir_4da487531dc5bdc76b523c9e82b781b1&#45;&gt;dir_896191444cf08ec8ade6f88256cb2bdd -->
<g id="edge4" class="edge">
<title>dir_4da487531dc5bdc76b523c9e82b781b1&#45;&gt;dir_896191444cf08ec8ade6f88256cb2bdd</title>
<path fill="none" stroke="#000000" d="M111.4491,-215.8314C121.8178,-207.0485 134.4229,-196.3712 145.6646,-186.8489"/>
<polygon fill="#000000" stroke="#000000" points="148.1895,-189.297 153.5578,-180.1628 143.6651,-183.9556 148.1895,-189.297"/>
<g id="a_edge4&#45;headlabel"><a xlink:href="dir_000099_000120.xhtml" target="_top" xlink:title="52">
<text text-anchor="middle" x="147.2818" y="-191.2868" font-family="Helvetica,sans-Serif" font-size="10.00" fill="#000000">52</text>
</a>
</g>
</g>
<!-- dir_cbdb8362360e11eafe2fa3bc74cf0ffd&#45;&gt;dir_214608ef36d61442cb2b0c1c4e9a7def -->
<g id="edge5" class="edge">
<title>dir_cbdb8362360e11eafe2fa3bc74cf0ffd&#45;&gt;dir_214608ef36d61442cb2b0c1c4e9a7def</title>
<path fill="none" stroke="#000000" d="M34.9264,-71.8314C40.5094,-63.454 48.0357,-53.3531 55.4838,-44.1749"/>
<polygon fill="#000000" stroke="#000000" points="58.2404,-46.3344 61.9583,-36.4133 52.865,-41.8504 58.2404,-46.3344"/>
<g id="a_edge5&#45;headlabel"><a xlink:href="dir_000027_000000.xhtml" target="_top" xlink:title="36">
<text text-anchor="middle" x="58.1181" y="-48.4134" font-family="Helvetica,sans-Serif" font-size="10.00" fill="#000000">36</text>
</a>
</g>
</g>
<!-- dir_9e71e2da941d3cafc4d98a9f6ae3de4f&#45;&gt;dir_cbdb8362360e11eafe2fa3bc74cf0ffd -->
<g id="edge6" class="edge">
<title>dir_9e71e2da941d3cafc4d98a9f6ae3de4f&#45;&gt;dir_cbdb8362360e11eafe2fa3bc74cf0ffd</title>
<path fill="none" stroke="#000000" d="M52.4204,-143.8314C48.6642,-135.8771 44.1743,-126.369 40.0202,-117.5723"/>
<polygon fill="#000000" stroke="#000000" points="43.1301,-115.9612 35.6952,-108.4133 36.8004,-118.9503 43.1301,-115.9612"/>
<g id="a_edge6&#45;headlabel"><a xlink:href="dir_000025_000027.xhtml" target="_top" xlink:title="3">
<text text-anchor="middle" x="47.2324" y="-115.4993" font-family="Helvetica,sans-Serif" font-size="10.00" fill="#000000">3</text>
</a>
</g>
</g>
<!-- dir_9e71e2da941d3cafc4d98a9f6ae3de4f&#45;&gt;dir_214608ef36d61442cb2b0c1c4e9a7def -->
<g id="edge7" class="edge">
<title>dir_9e71e2da941d3cafc4d98a9f6ae3de4f&#45;&gt;dir_214608ef36d61442cb2b0c1c4e9a7def</title>
<path fill="none" stroke="#000000" d="M63.6597,-143.7623C67.2415,-119.201 73.6514,-75.2474 77.865,-46.3541"/>
<polygon fill="#000000" stroke="#000000" points="81.3821,-46.4901 79.3619,-36.0896 74.4554,-45.4798 81.3821,-46.4901"/>
<g id="a_edge7&#45;headlabel"><a xlink:href="dir_000025_000000.xhtml" target="_top" xlink:title="14">
<text text-anchor="middle" x="83.6731" y="-47.9567" font-family="Helvetica,sans-Serif" font-size="10.00" fill="#000000">14</text>
</a>
</g>
</g>
<!-- dir_214608ef36d61442cb2b0c1c4e9a7def&#45;&gt;dir_cbdb8362360e11eafe2fa3bc74cf0ffd -->
<g id="edge8" class="edge">
<title>dir_214608ef36d61442cb2b0c1c4e9a7def&#45;&gt;dir_cbdb8362360e11eafe2fa3bc74cf0ffd</title>
<path fill="none" stroke="#000000" d="M73.9103,-36.4133C68.2898,-44.8239 60.7456,-54.9323 53.2991,-64.0923"/>
<polygon fill="#000000" stroke="#000000" points="50.5584,-61.9138 46.8312,-71.8314 55.9296,-66.4027 50.5584,-61.9138"/>
<g id="a_edge8&#45;headlabel"><a xlink:href="dir_000000_000027.xhtml" target="_top" xlink:title="1">
<text text-anchor="middle" x="50.6849" y="-54.8348" font-family="Helvetica,sans-Serif" font-size="10.00" fill="#000000">1</text>
</a>
</g>
</g>
<!-- dir_896191444cf08ec8ade6f88256cb2bdd&#45;&gt;dir_214608ef36d61442cb2b0c1c4e9a7def -->
<g id="edge9" class="edge">
<title>dir_896191444cf08ec8ade6f88256cb2bdd&#45;&gt;dir_214608ef36d61442cb2b0c1c4e9a7def</title>
<path fill="none" stroke="#000000" d="M168.8006,-143.8127C161.9017,-124.9342 149.6367,-95.004 134,-72 127.0961,-61.8434 118.217,-51.8376 109.7566,-43.2514"/>
<polygon fill="#000000" stroke="#000000" points="112.0733,-40.6207 102.4898,-36.1032 107.1644,-45.611 112.0733,-40.6207"/>
<g id="a_edge9&#45;headlabel"><a xlink:href="dir_000120_000000.xhtml" target="_top" xlink:title="5">
<text text-anchor="middle" x="116.6269" y="-38.6173" font-family="Helvetica,sans-Serif" font-size="10.00" fill="#000000">5</text>
</a>
</g>
</g>
</g>
</svg>
