<?xml version="1.0" encoding="UTF-8" standalone="no"?>
<!DOCTYPE svg PUBLIC "-//W3C//DTD SVG 1.1//EN"
 "http://www.w3.org/Graphics/SVG/1.1/DTD/svg11.dtd">
<!-- Generated by graphviz version 2.38.0 (20140413.2041)
 -->
<!-- Title: arm_compute/runtime/NEON Pages: 1 -->
<svg width="135pt" height="375pt"
 viewBox="0.00 0.00 135.00 375.00" xmlns="http://www.w3.org/2000/svg" xmlns:xlink="http://www.w3.org/1999/xlink">
<g id="graph0" class="graph" transform="scale(1 1) rotate(0) translate(4 371)">
<title>arm_compute/runtime/NEON</title>
<polygon fill="white" stroke="none" points="-4,4 -4,-371 131,-371 131,4 -4,4"/>
<g id="clust1" class="cluster"><title>clusterdir_8bc26130589aa16388b5a02f17abf2c2</title>
<g id="a_clust1"><a xlink:href="dir_8bc26130589aa16388b5a02f17abf2c2.xhtml" target="_top" xlink:title="runtime">
<polygon fill="#ddddee" stroke="black" points="24,-200 24,-359 116,-359 116,-200 24,-200"/>
<text text-anchor="middle" x="70" y="-347" font-family="Helvetica,sans-Serif" font-size="10.00">runtime</text>
</a>
</g>
</g>
<g id="clust2" class="cluster"><title>clusterdir_65e289039e1347f87d412b0a1b1a312c</title>
<g id="a_clust2"><a xlink:href="dir_65e289039e1347f87d412b0a1b1a312c.xhtml" target="_top">
<polygon fill="#eeeeff" stroke="black" points="32,-208 32,-332 108,-332 108,-208 32,-208"/>
</a>
</g>
</g>
<!-- dir_65e289039e1347f87d412b0a1b1a312c -->
<g id="node1" class="node"><title>dir_65e289039e1347f87d412b0a1b1a312c</title>
<text text-anchor="middle" x="71" y="-303.5" font-family="Helvetica,sans-Serif" font-size="10.00">NEON</text>
</g>
<!-- dir_345bd7154d1542d1e03fd2836959a19d -->
<g id="node2" class="node"><title>dir_345bd7154d1542d1e03fd2836959a19d</title>
<g id="a_node2"><a xlink:href="dir_345bd7154d1542d1e03fd2836959a19d.xhtml" target="_top" xlink:title="functions">
<polygon fill="white" stroke="black" points="100,-252 40,-252 40,-216 100,-216 100,-252"/>
<text text-anchor="middle" x="70" y="-231.5" font-family="Helvetica,sans-Serif" font-size="10.00">functions</text>
</a>
</g>
</g>
<!-- dir_65e289039e1347f87d412b0a1b1a312c&#45;&gt;dir_345bd7154d1542d1e03fd2836959a19d -->
<g id="edge3" class="edge"><title>dir_65e289039e1347f87d412b0a1b1a312c&#45;&gt;dir_345bd7154d1542d1e03fd2836959a19d</title>
<path fill="none" stroke="black" d="M70.7528,-287.697C70.6426,-279.983 70.5102,-270.712 70.3873,-262.112"/>
<polygon fill="black" stroke="black" points="73.8869,-262.053 70.2443,-252.104 66.8876,-262.153 73.8869,-262.053"/>
<g id="a_edge3&#45;headlabel"><a xlink:href="dir_000044_000045.xhtml" target="_top" xlink:title="86">
<text text-anchor="middle" x="76.7772" y="-263.107" font-family="Helvetica,sans-Serif" font-size="10.00">86</text>
</a>
</g>
</g>
<!-- dir_5815af820a9cc9481f1d0990a0d60286 -->
<g id="node5" class="node"><title>dir_5815af820a9cc9481f1d0990a0d60286</title>
<g id="a_node5"><a xlink:href="dir_5815af820a9cc9481f1d0990a0d60286.xhtml" target="_top" xlink:title="support">
<polygon fill="none" stroke="black" points="127,-36 73,-36 73,-0 127,-0 127,-36"/>
<text text-anchor="middle" x="100" y="-15.5" font-family="Helvetica,sans-Serif" font-size="10.00">support</text>
</a>
</g>
</g>
<!-- dir_65e289039e1347f87d412b0a1b1a312c&#45;&gt;dir_5815af820a9cc9481f1d0990a0d60286 -->
<g id="edge4" class="edge"><title>dir_65e289039e1347f87d412b0a1b1a312c&#45;&gt;dir_5815af820a9cc9481f1d0990a0d60286</title>
<path fill="none" stroke="black" d="M87.4635,-287.919C95.6538,-278.218 104.704,-265.366 109,-252 131.947,-180.614 116.976,-90.5507 106.944,-46.2093"/>
<polygon fill="black" stroke="black" points="110.289,-45.1403 104.588,-36.2098 103.475,-46.746 110.289,-45.1403"/>
<g id="a_edge4&#45;headlabel"><a xlink:href="dir_000044_000052.xhtml" target="_top" xlink:title="1">
<text text-anchor="middle" x="113.877" y="-45.4878" font-family="Helvetica,sans-Serif" font-size="10.00">1</text>
</a>
</g>
</g>
<!-- dir_b496024afd63bafbf4e8da80d7d3a81a -->
<g id="node3" class="node"><title>dir_b496024afd63bafbf4e8da80d7d3a81a</title>
<g id="a_node3"><a xlink:href="dir_b496024afd63bafbf4e8da80d7d3a81a.xhtml" target="_top" xlink:title="CPP">
<polygon fill="white" stroke="red" points="54,-180 0,-180 0,-144 54,-144 54,-180"/>
<text text-anchor="middle" x="27" y="-159.5" font-family="Helvetica,sans-Serif" font-size="10.00">CPP</text>
</a>
</g>
</g>
<!-- dir_345bd7154d1542d1e03fd2836959a19d&#45;&gt;dir_b496024afd63bafbf4e8da80d7d3a81a -->
<g id="edge1" class="edge"><title>dir_345bd7154d1542d1e03fd2836959a19d&#45;&gt;dir_b496024afd63bafbf4e8da80d7d3a81a</title>
<path fill="none" stroke="black" d="M59.3708,-215.697C54.3719,-207.559 48.309,-197.689 42.7879,-188.701"/>
<polygon fill="black" stroke="black" points="45.7234,-186.793 37.5069,-180.104 39.7589,-190.457 45.7234,-186.793"/>
<g id="a_edge1&#45;headlabel"><a xlink:href="dir_000045_000040.xhtml" target="_top" xlink:title="2">
<text text-anchor="middle" x="50.0242" y="-185.87" font-family="Helvetica,sans-Serif" font-size="10.00">2</text>
</a>
</g>
</g>
<!-- dir_1fb090f0c6070330bfaccc4236d3ca0d -->
<g id="node4" class="node"><title>dir_1fb090f0c6070330bfaccc4236d3ca0d</title>
<g id="a_node4"><a xlink:href="dir_1fb090f0c6070330bfaccc4236d3ca0d.xhtml" target="_top" xlink:title="core">
<polygon fill="white" stroke="red" points="100,-108 46,-108 46,-72 100,-72 100,-108"/>
<text text-anchor="middle" x="73" y="-87.5" font-family="Helvetica,sans-Serif" font-size="10.00">core</text>
</a>
</g>
</g>
<!-- dir_345bd7154d1542d1e03fd2836959a19d&#45;&gt;dir_1fb090f0c6070330bfaccc4236d3ca0d -->
<g id="edge2" class="edge"><title>dir_345bd7154d1542d1e03fd2836959a19d&#45;&gt;dir_1fb090f0c6070330bfaccc4236d3ca0d</title>
<path fill="none" stroke="black" d="M70.3619,-215.871C70.8732,-191.67 71.8124,-147.211 72.4213,-118.393"/>
<polygon fill="black" stroke="black" points="75.9247,-118.261 72.6368,-108.189 68.9263,-118.113 75.9247,-118.261"/>
<g id="a_edge2&#45;headlabel"><a xlink:href="dir_000045_000001.xhtml" target="_top" xlink:title="161">
<text text-anchor="middle" x="78.6876" y="-119.415" font-family="Helvetica,sans-Serif" font-size="10.00">161</text>
</a>
</g>
</g>
<!-- dir_b496024afd63bafbf4e8da80d7d3a81a&#45;&gt;dir_1fb090f0c6070330bfaccc4236d3ca0d -->
<g id="edge5" class="edge"><title>dir_b496024afd63bafbf4e8da80d7d3a81a&#45;&gt;dir_1fb090f0c6070330bfaccc4236d3ca0d</title>
<path fill="none" stroke="black" d="M38.3708,-143.697C43.7185,-135.559 50.2043,-125.689 56.1106,-116.701"/>
<polygon fill="black" stroke="black" points="59.1932,-118.384 61.76,-108.104 53.3432,-114.539 59.1932,-118.384"/>
<g id="a_edge5&#45;headlabel"><a xlink:href="dir_000040_000001.xhtml" target="_top" xlink:title="3">
<text text-anchor="middle" x="59.5919" y="-120.447" font-family="Helvetica,sans-Serif" font-size="10.00">3</text>
</a>
</g>
</g>
<!-- dir_1fb090f0c6070330bfaccc4236d3ca0d&#45;&gt;dir_5815af820a9cc9481f1d0990a0d60286 -->
<g id="edge6" class="edge"><title>dir_1fb090f0c6070330bfaccc4236d3ca0d&#45;&gt;dir_5815af820a9cc9481f1d0990a0d60286</title>
<path fill="none" stroke="black" d="M79.6742,-71.6966C82.7149,-63.8132 86.3827,-54.3042 89.7607,-45.5464"/>
<polygon fill="black" stroke="black" points="93.0693,-46.6939 93.4026,-36.1043 86.5383,-44.1748 93.0693,-46.6939"/>
<g id="a_edge6&#45;headlabel"><a xlink:href="dir_000001_000052.xhtml" target="_top" xlink:title="13">
<text text-anchor="middle" x="94.4248" y="-48.5695" font-family="Helvetica,sans-Serif" font-size="10.00">13</text>
</a>
</g>
</g>
</g>
</svg>
