<?xml version="1.0" encoding="UTF-8" standalone="no"?>
<!DOCTYPE svg PUBLIC "-//W3C//DTD SVG 1.1//EN"
 "http://www.w3.org/Graphics/SVG/1.1/DTD/svg11.dtd">
<!-- Generated by graphviz version 2.38.0 (20140413.2041)
 -->
<!-- Title: src/graph/mutators Pages: 1 -->
<svg width="102pt" height="151pt"
 viewBox="0.00 0.00 102.00 151.00" xmlns="http://www.w3.org/2000/svg" xmlns:xlink="http://www.w3.org/1999/xlink">
<g id="graph0" class="graph" transform="scale(1 1) rotate(0) translate(4 147)">
<title>src/graph/mutators</title>
<polygon fill="white" stroke="none" points="-4,4 -4,-147 98,-147 98,4 -4,4"/>
<g id="clust1" class="cluster"><title>clusterdir_d182250f0c231765fc862e69db210731</title>
<g id="a_clust1"><a xlink:href="dir_d182250f0c231765fc862e69db210731.xhtml" target="_top" xlink:title="graph">
<polygon fill="#ddddee" stroke="black" points="8,-64 8,-135 86,-135 86,-64 8,-64"/>
<text text-anchor="middle" x="47" y="-123" font-family="Helvetica,sans-Serif" font-size="10.00">graph</text>
</a>
</g>
</g>
<!-- dir_1b9e532a4c8623825d945e964c6e4c7f -->
<g id="node1" class="node"><title>dir_1b9e532a4c8623825d945e964c6e4c7f</title>
<g id="a_node1"><a xlink:href="dir_1b9e532a4c8623825d945e964c6e4c7f.xhtml" target="_top" xlink:title="mutators">
<polygon fill="#eeeeff" stroke="black" points="77.5,-108 16.5,-108 16.5,-72 77.5,-72 77.5,-108"/>
<text text-anchor="middle" x="47" y="-87.5" font-family="Helvetica,sans-Serif" font-size="10.00">mutators</text>
</a>
</g>
</g>
<!-- dir_214608ef36d61442cb2b0c1c4e9a7def -->
<g id="node2" class="node"><title>dir_214608ef36d61442cb2b0c1c4e9a7def</title>
<g id="a_node2"><a xlink:href="dir_214608ef36d61442cb2b0c1c4e9a7def.xhtml" target="_top" xlink:title="arm_compute">
<polygon fill="white" stroke="red" points="89,-36 5,-36 5,-0 89,-0 89,-36"/>
<text text-anchor="middle" x="47" y="-15.5" font-family="Helvetica,sans-Serif" font-size="10.00">arm_compute</text>
</a>
</g>
</g>
<!-- dir_1b9e532a4c8623825d945e964c6e4c7f&#45;&gt;dir_214608ef36d61442cb2b0c1c4e9a7def -->
<g id="edge1" class="edge"><title>dir_1b9e532a4c8623825d945e964c6e4c7f&#45;&gt;dir_214608ef36d61442cb2b0c1c4e9a7def</title>
<path fill="none" stroke="black" d="M47,-71.6966C47,-63.9827 47,-54.7125 47,-46.1124"/>
<polygon fill="black" stroke="black" points="50.5001,-46.1043 47,-36.1043 43.5001,-46.1044 50.5001,-46.1043"/>
<g id="a_edge1&#45;headlabel"><a xlink:href="dir_000109_000000.xhtml" target="_top" xlink:title="42">
<text text-anchor="middle" x="53.3393" y="-47.199" font-family="Helvetica,sans-Serif" font-size="10.00">42</text>
</a>
</g>
</g>
</g>
</svg>
