<?xml version="1.0" encoding="UTF-8" standalone="no"?>
<!DOCTYPE svg PUBLIC "-//W3C//DTD SVG 1.1//EN"
 "http://www.w3.org/Graphics/SVG/1.1/DTD/svg11.dtd">
<!-- Generated by graphviz version 2.38.0 (20140413.2041)
 -->
<!-- Title: tests/validation/CL Pages: 1 -->
<svg width="471pt" height="303pt"
 viewBox="0.00 0.00 471.22 303.00" xmlns="http://www.w3.org/2000/svg" xmlns:xlink="http://www.w3.org/1999/xlink">
<g id="graph0" class="graph" transform="scale(1 1) rotate(0) translate(4 299)">
<title>tests/validation/CL</title>
<polygon fill="white" stroke="none" points="-4,4 -4,-299 467.217,-299 467.217,4 -4,4"/>
<g id="clust1" class="cluster"><title>clusterdir_a54a3db5b521d39f12dbe18362fe1216</title>
<g id="a_clust1"><a xlink:href="dir_a54a3db5b521d39f12dbe18362fe1216.xhtml" target="_top" xlink:title="validation">
<polygon fill="#ddddee" stroke="black" points="96.0321,-200 96.0321,-287 340.032,-287 340.032,-200 96.0321,-200"/>
<text text-anchor="middle" x="218.032" y="-275" font-family="Helvetica" font-size="10.00">validation</text>
</a>
</g>
</g>
<g id="clust2" class="cluster"><title>clusterdir_5c3e6f36232c22ff6b3dc2b17e9cf59e</title>
<g id="a_clust2"><a xlink:href="dir_5c3e6f36232c22ff6b3dc2b17e9cf59e.xhtml" target="_top">
<polygon fill="#eeeeff" stroke="black" points="104.032,-208 104.032,-260 332.032,-260 332.032,-208 104.032,-208"/>
</a>
</g>
</g>
<!-- dir_5c3e6f36232c22ff6b3dc2b17e9cf59e -->
<g id="node1" class="node"><title>dir_5c3e6f36232c22ff6b3dc2b17e9cf59e</title>
<text text-anchor="middle" x="139.032" y="-231.5" font-family="Helvetica" font-size="10.00">CL</text>
</g>
<!-- dir_b34ff4bf0b006fa2058bebfe917ec172 -->
<g id="node4" class="node"><title>dir_b34ff4bf0b006fa2058bebfe917ec172</title>
<g id="a_node4"><a xlink:href="dir_b34ff4bf0b006fa2058bebfe917ec172.xhtml" target="_top" xlink:title="fixtures">
<polygon fill="none" stroke="black" points="78.0321,-180 24.0321,-180 24.0321,-144 78.0321,-144 78.0321,-180"/>
<text text-anchor="middle" x="51.0321" y="-159.5" font-family="Helvetica" font-size="10.00">fixtures</text>
</a>
</g>
</g>
<!-- dir_5c3e6f36232c22ff6b3dc2b17e9cf59e&#45;&gt;dir_b34ff4bf0b006fa2058bebfe917ec172 -->
<g id="edge12" class="edge"><title>dir_5c3e6f36232c22ff6b3dc2b17e9cf59e&#45;&gt;dir_b34ff4bf0b006fa2058bebfe917ec172</title>
<path fill="none" stroke="black" d="M117.279,-215.697C106.196,-206.881 92.5582,-196.032 80.5426,-186.474"/>
<polygon fill="black" stroke="black" points="82.5396,-183.59 72.5347,-180.104 78.1819,-189.069 82.5396,-183.59"/>
<g id="a_edge12&#45;headlabel"><a xlink:href="dir_000041_000048.xhtml" target="_top" xlink:title="42">
<text text-anchor="middle" x="87.1202" y="-181.106" font-family="Helvetica" font-size="10.00">42</text>
</a>
</g>
</g>
<!-- dir_0df31d79686c90a11f48d3915528531f -->
<g id="node5" class="node"><title>dir_0df31d79686c90a11f48d3915528531f</title>
<g id="a_node5"><a xlink:href="dir_0df31d79686c90a11f48d3915528531f.xhtml" target="_top" xlink:title="datasets">
<polygon fill="white" stroke="red" points="188.032,-180 134.032,-180 134.032,-144 188.032,-144 188.032,-180"/>
<text text-anchor="middle" x="161.032" y="-159.5" font-family="Helvetica" font-size="10.00">datasets</text>
</a>
</g>
</g>
<!-- dir_5c3e6f36232c22ff6b3dc2b17e9cf59e&#45;&gt;dir_0df31d79686c90a11f48d3915528531f -->
<g id="edge13" class="edge"><title>dir_5c3e6f36232c22ff6b3dc2b17e9cf59e&#45;&gt;dir_0df31d79686c90a11f48d3915528531f</title>
<path fill="none" stroke="black" d="M144.47,-215.697C146.921,-207.898 149.872,-198.509 152.6,-189.829"/>
<polygon fill="black" stroke="black" points="155.997,-190.694 155.656,-180.104 149.319,-188.595 155.997,-190.694"/>
<g id="a_edge13&#45;headlabel"><a xlink:href="dir_000041_000050.xhtml" target="_top" xlink:title="69">
<text text-anchor="middle" x="157.628" y="-192.474" font-family="Helvetica" font-size="10.00">69</text>
</a>
</g>
</g>
<!-- dir_db9e2079d58d733beb36406e9ab55e7d -->
<g id="node6" class="node"><title>dir_db9e2079d58d733beb36406e9ab55e7d</title>
<g id="a_node6"><a xlink:href="dir_db9e2079d58d733beb36406e9ab55e7d.xhtml" target="_top" xlink:title="CPP">
<polygon fill="none" stroke="black" points="78.0321,-108 24.0321,-108 24.0321,-72 78.0321,-72 78.0321,-108"/>
<text text-anchor="middle" x="51.0321" y="-87.5" font-family="Helvetica" font-size="10.00">CPP</text>
</a>
</g>
</g>
<!-- dir_5c3e6f36232c22ff6b3dc2b17e9cf59e&#45;&gt;dir_db9e2079d58d733beb36406e9ab55e7d -->
<g id="edge14" class="edge"><title>dir_5c3e6f36232c22ff6b3dc2b17e9cf59e&#45;&gt;dir_db9e2079d58d733beb36406e9ab55e7d</title>
<path fill="none" stroke="black" d="M111.769,-229.98C82.2244,-225.09 36.442,-212.434 15.0321,-180 1.89382,-160.096 14.6888,-134.638 28.5317,-116.053"/>
<polygon fill="black" stroke="black" points="31.4114,-118.054 34.8763,-108.042 25.9239,-113.708 31.4114,-118.054"/>
<g id="a_edge14&#45;headlabel"><a xlink:href="dir_000041_000008.xhtml" target="_top" xlink:title="1">
<text text-anchor="middle" x="31.4055" y="-120.135" font-family="Helvetica" font-size="10.00">1</text>
</a>
</g>
</g>
<!-- dir_d4d363c0979c7ffda4833df3f93b5668 -->
<g id="node7" class="node"><title>dir_d4d363c0979c7ffda4833df3f93b5668</title>
<g id="a_node7"><a xlink:href="dir_d4d363c0979c7ffda4833df3f93b5668.xhtml" target="_top" xlink:title="arm_compute">
<polygon fill="white" stroke="red" points="250.032,-36 174.032,-36 174.032,-0 250.032,-0 250.032,-36"/>
<text text-anchor="middle" x="212.032" y="-15.5" font-family="Helvetica" font-size="10.00">arm_compute</text>
</a>
</g>
</g>
<!-- dir_5c3e6f36232c22ff6b3dc2b17e9cf59e&#45;&gt;dir_d4d363c0979c7ffda4833df3f93b5668 -->
<g id="edge15" class="edge"><title>dir_5c3e6f36232c22ff6b3dc2b17e9cf59e&#45;&gt;dir_d4d363c0979c7ffda4833df3f93b5668</title>
<path fill="none" stroke="black" d="M111.838,-230.88C80.315,-226.8 29.6747,-214.872 6.03215,-180 -6.43552,-161.611 3.88733,-84.8055 15.0321,-72 34.3782,-49.7712 111.812,-34.0467 163.643,-25.763"/>
<polygon fill="black" stroke="black" points="164.3,-29.2029 173.643,-24.2058 163.223,-22.2863 164.3,-29.2029"/>
<g id="a_edge15&#45;headlabel"><a xlink:href="dir_000041_000000.xhtml" target="_top" xlink:title="173">
<text text-anchor="middle" x="161.185" y="-30.0614" font-family="Helvetica" font-size="10.00">173</text>
</a>
</g>
</g>
<!-- dir_e571e0a75a914d9ca225651fe8decf09 -->
<g id="node8" class="node"><title>dir_e571e0a75a914d9ca225651fe8decf09</title>
<g id="a_node8"><a xlink:href="dir_e571e0a75a914d9ca225651fe8decf09.xhtml" target="_top" xlink:title="CL">
<polygon fill="none" stroke="black" points="298.032,-180 244.032,-180 244.032,-144 298.032,-144 298.032,-180"/>
<text text-anchor="middle" x="271.032" y="-159.5" font-family="Helvetica" font-size="10.00">CL</text>
</a>
</g>
</g>
<!-- dir_5c3e6f36232c22ff6b3dc2b17e9cf59e&#45;&gt;dir_e571e0a75a914d9ca225651fe8decf09 -->
<g id="edge16" class="edge"><title>dir_5c3e6f36232c22ff6b3dc2b17e9cf59e&#45;&gt;dir_e571e0a75a914d9ca225651fe8decf09</title>
<path fill="none" stroke="black" d="M155.174,-215.808C161.039,-210.24 167.97,-204.378 175.032,-200 193.306,-188.673 215.618,-179.817 234.132,-173.614"/>
<polygon fill="black" stroke="black" points="235.258,-176.928 243.701,-170.527 233.109,-170.266 235.258,-176.928"/>
<g id="a_edge16&#45;headlabel"><a xlink:href="dir_000041_000049.xhtml" target="_top" xlink:title="48">
<text text-anchor="middle" x="232.709" y="-178.234" font-family="Helvetica" font-size="10.00">48</text>
</a>
</g>
</g>
<!-- dir_2dd0e1a78595595cf02ec0d9123d5f3a -->
<g id="node9" class="node"><title>dir_2dd0e1a78595595cf02ec0d9123d5f3a</title>
<g id="a_node9"><a xlink:href="dir_2dd0e1a78595595cf02ec0d9123d5f3a.xhtml" target="_top" xlink:title="framework">
<polygon fill="white" stroke="red" points="243.032,-108 181.032,-108 181.032,-72 243.032,-72 243.032,-108"/>
<text text-anchor="middle" x="212.032" y="-87.5" font-family="Helvetica" font-size="10.00">framework</text>
</a>
</g>
</g>
<!-- dir_5c3e6f36232c22ff6b3dc2b17e9cf59e&#45;&gt;dir_2dd0e1a78595595cf02ec0d9123d5f3a -->
<g id="edge17" class="edge"><title>dir_5c3e6f36232c22ff6b3dc2b17e9cf59e&#45;&gt;dir_2dd0e1a78595595cf02ec0d9123d5f3a</title>
<path fill="none" stroke="black" d="M130.191,-215.787C121.862,-196.969 112.392,-166.501 125.032,-144 135.045,-126.176 153.754,-113.642 171.264,-105.255"/>
<polygon fill="black" stroke="black" points="173.088,-108.275 180.805,-101.016 170.245,-101.878 173.088,-108.275"/>
<g id="a_edge17&#45;headlabel"><a xlink:href="dir_000041_000021.xhtml" target="_top" xlink:title="122">
<text text-anchor="middle" x="170.956" y="-109.829" font-family="Helvetica" font-size="10.00">122</text>
</a>
</g>
</g>
<!-- dir_bef950b31caeb3f2b20d76df1f96cc6e -->
<g id="node2" class="node"><title>dir_bef950b31caeb3f2b20d76df1f96cc6e</title>
<g id="a_node2"><a xlink:href="dir_bef950b31caeb3f2b20d76df1f96cc6e.xhtml" target="_top" xlink:title="FixedPoint">
<polygon fill="white" stroke="black" points="247.532,-252 184.532,-252 184.532,-216 247.532,-216 247.532,-252"/>
<text text-anchor="middle" x="216.032" y="-231.5" font-family="Helvetica" font-size="10.00">FixedPoint</text>
</a>
</g>
</g>
<!-- dir_bef950b31caeb3f2b20d76df1f96cc6e&#45;&gt;dir_b34ff4bf0b006fa2058bebfe917ec172 -->
<g id="edge20" class="edge"><title>dir_bef950b31caeb3f2b20d76df1f96cc6e&#45;&gt;dir_b34ff4bf0b006fa2058bebfe917ec172</title>
<path fill="none" stroke="black" d="M197.924,-215.907C191.146,-210.216 183.121,-204.251 175.032,-200 159.89,-192.043 118.884,-180.459 88.143,-172.38"/>
<polygon fill="black" stroke="black" points="88.7226,-168.914 78.1636,-169.785 86.9607,-175.689 88.7226,-168.914"/>
<g id="a_edge20&#45;headlabel"><a xlink:href="dir_000068_000048.xhtml" target="_top" xlink:title="1">
<text text-anchor="middle" x="92.9161" y="-164.571" font-family="Helvetica" font-size="10.00">1</text>
</a>
</g>
</g>
<!-- dir_bef950b31caeb3f2b20d76df1f96cc6e&#45;&gt;dir_0df31d79686c90a11f48d3915528531f -->
<g id="edge21" class="edge"><title>dir_bef950b31caeb3f2b20d76df1f96cc6e&#45;&gt;dir_0df31d79686c90a11f48d3915528531f</title>
<path fill="none" stroke="black" d="M202.437,-215.697C195.909,-207.389 187.964,-197.277 180.786,-188.141"/>
<polygon fill="black" stroke="black" points="183.402,-185.805 174.471,-180.104 177.897,-190.13 183.402,-185.805"/>
<g id="a_edge21&#45;headlabel"><a xlink:href="dir_000068_000050.xhtml" target="_top" xlink:title="1">
<text text-anchor="middle" x="187.855" y="-184.377" font-family="Helvetica" font-size="10.00">1</text>
</a>
</g>
</g>
<!-- dir_bef950b31caeb3f2b20d76df1f96cc6e&#45;&gt;dir_d4d363c0979c7ffda4833df3f93b5668 -->
<g id="edge22" class="edge"><title>dir_bef950b31caeb3f2b20d76df1f96cc6e&#45;&gt;dir_d4d363c0979c7ffda4833df3f93b5668</title>
<path fill="none" stroke="black" d="M234.774,-215.971C241.482,-210.415 249.302,-204.52 257.032,-200 277.693,-187.919 293.614,-199.819 307.032,-180 316.002,-166.751 310.621,-159.592 307.032,-144 299.051,-109.326 293.561,-100.328 272.032,-72 263.87,-61.2603 253.273,-51.0461 243.26,-42.5026"/>
<polygon fill="black" stroke="black" points="245.355,-39.6933 235.413,-36.0309 240.901,-45.0937 245.355,-39.6933"/>
<g id="a_edge22&#45;headlabel"><a xlink:href="dir_000068_000000.xhtml" target="_top" xlink:title="4">
<text text-anchor="middle" x="249.934" y="-37.29" font-family="Helvetica" font-size="10.00">4</text>
</a>
</g>
</g>
<!-- dir_bef950b31caeb3f2b20d76df1f96cc6e&#45;&gt;dir_e571e0a75a914d9ca225651fe8decf09 -->
<g id="edge23" class="edge"><title>dir_bef950b31caeb3f2b20d76df1f96cc6e&#45;&gt;dir_e571e0a75a914d9ca225651fe8decf09</title>
<path fill="none" stroke="black" d="M229.628,-215.697C236.155,-207.389 244.1,-197.277 251.279,-188.141"/>
<polygon fill="black" stroke="black" points="254.167,-190.13 257.593,-180.104 248.663,-185.805 254.167,-190.13"/>
<g id="a_edge23&#45;headlabel"><a xlink:href="dir_000068_000049.xhtml" target="_top" xlink:title="1">
<text text-anchor="middle" x="254.179" y="-192.211" font-family="Helvetica" font-size="10.00">1</text>
</a>
</g>
</g>
<!-- dir_bef950b31caeb3f2b20d76df1f96cc6e&#45;&gt;dir_2dd0e1a78595595cf02ec0d9123d5f3a -->
<g id="edge24" class="edge"><title>dir_bef950b31caeb3f2b20d76df1f96cc6e&#45;&gt;dir_2dd0e1a78595595cf02ec0d9123d5f3a</title>
<path fill="none" stroke="black" d="M215.55,-215.871C214.868,-191.67 213.616,-147.211 212.804,-118.393"/>
<polygon fill="black" stroke="black" points="216.297,-118.087 212.516,-108.189 209.299,-118.284 216.297,-118.087"/>
<g id="a_edge24&#45;headlabel"><a xlink:href="dir_000068_000021.xhtml" target="_top" xlink:title="3">
<text text-anchor="middle" x="219.236" y="-119.1" font-family="Helvetica" font-size="10.00">3</text>
</a>
</g>
</g>
<!-- dir_6070566ba86be711fc3124a9d0f32e12 -->
<g id="node3" class="node"><title>dir_6070566ba86be711fc3124a9d0f32e12</title>
<g id="a_node3"><a xlink:href="dir_6070566ba86be711fc3124a9d0f32e12.xhtml" target="_top" xlink:title="SYSTEM">
<polygon fill="white" stroke="black" points="324.032,-252 266.032,-252 266.032,-216 324.032,-216 324.032,-252"/>
<text text-anchor="middle" x="295.032" y="-231.5" font-family="Helvetica" font-size="10.00">SYSTEM</text>
</a>
</g>
</g>
<!-- dir_6070566ba86be711fc3124a9d0f32e12&#45;&gt;dir_d4d363c0979c7ffda4833df3f93b5668 -->
<g id="edge8" class="edge"><title>dir_6070566ba86be711fc3124a9d0f32e12&#45;&gt;dir_d4d363c0979c7ffda4833df3f93b5668</title>
<path fill="none" stroke="black" d="M324.295,-233.032C362.094,-231.298 426.636,-221.926 457.032,-180 466.424,-167.046 463.675,-158.556 457.032,-144 422.456,-68.234 321.275,-37.6858 260.291,-25.9097"/>
<polygon fill="black" stroke="black" points="260.599,-22.4078 250.132,-24.0493 259.338,-29.2933 260.599,-22.4078"/>
<g id="a_edge8&#45;headlabel"><a xlink:href="dir_000045_000000.xhtml" target="_top" xlink:title="13">
<text text-anchor="middle" x="264.646" y="-17.7624" font-family="Helvetica" font-size="10.00">13</text>
</a>
</g>
</g>
<!-- dir_6070566ba86be711fc3124a9d0f32e12&#45;&gt;dir_e571e0a75a914d9ca225651fe8decf09 -->
<g id="edge9" class="edge"><title>dir_6070566ba86be711fc3124a9d0f32e12&#45;&gt;dir_e571e0a75a914d9ca225651fe8decf09</title>
<path fill="none" stroke="black" d="M289.1,-215.697C286.426,-207.898 283.206,-198.509 280.231,-189.829"/>
<polygon fill="black" stroke="black" points="283.451,-188.429 276.896,-180.104 276.829,-190.699 283.451,-188.429"/>
<g id="a_edge9&#45;headlabel"><a xlink:href="dir_000045_000049.xhtml" target="_top" xlink:title="2">
<text text-anchor="middle" x="287.302" y="-188.408" font-family="Helvetica" font-size="10.00">2</text>
</a>
</g>
</g>
<!-- dir_6070566ba86be711fc3124a9d0f32e12&#45;&gt;dir_2dd0e1a78595595cf02ec0d9123d5f3a -->
<g id="edge10" class="edge"><title>dir_6070566ba86be711fc3124a9d0f32e12&#45;&gt;dir_2dd0e1a78595595cf02ec0d9123d5f3a</title>
<path fill="none" stroke="black" d="M303.441,-215.667C311.308,-196.744 320.058,-166.184 307.032,-144 295.28,-123.986 272.919,-110.974 252.843,-102.853"/>
<polygon fill="black" stroke="black" points="253.82,-99.4816 243.227,-99.2503 251.363,-106.037 253.82,-99.4816"/>
<g id="a_edge10&#45;headlabel"><a xlink:href="dir_000045_000021.xhtml" target="_top" xlink:title="4">
<text text-anchor="middle" x="258.182" y="-95.584" font-family="Helvetica" font-size="10.00">4</text>
</a>
</g>
</g>
<!-- dir_7834b57f5ab446dc82e2741d277142e5 -->
<g id="node10" class="node"><title>dir_7834b57f5ab446dc82e2741d277142e5</title>
<g id="a_node10"><a xlink:href="dir_7834b57f5ab446dc82e2741d277142e5.xhtml" target="_top" xlink:title="networks">
<polygon fill="none" stroke="black" points="448.032,-180 392.032,-180 392.032,-144 448.032,-144 448.032,-180"/>
<text text-anchor="middle" x="420.032" y="-159.5" font-family="Helvetica" font-size="10.00">networks</text>
</a>
</g>
</g>
<!-- dir_6070566ba86be711fc3124a9d0f32e12&#45;&gt;dir_7834b57f5ab446dc82e2741d277142e5 -->
<g id="edge11" class="edge"><title>dir_6070566ba86be711fc3124a9d0f32e12&#45;&gt;dir_7834b57f5ab446dc82e2741d277142e5</title>
<path fill="none" stroke="black" d="M324.339,-216.588C341.827,-206.795 364.199,-194.267 382.913,-183.787"/>
<polygon fill="black" stroke="black" points="384.754,-186.767 391.769,-178.827 381.334,-180.66 384.754,-186.767"/>
<g id="a_edge11&#45;headlabel"><a xlink:href="dir_000045_000067.xhtml" target="_top" xlink:title="2">
<text text-anchor="middle" x="383.005" y="-188.501" font-family="Helvetica" font-size="10.00">2</text>
</a>
</g>
</g>
<!-- dir_b34ff4bf0b006fa2058bebfe917ec172&#45;&gt;dir_db9e2079d58d733beb36406e9ab55e7d -->
<g id="edge1" class="edge"><title>dir_b34ff4bf0b006fa2058bebfe917ec172&#45;&gt;dir_db9e2079d58d733beb36406e9ab55e7d</title>
<path fill="none" stroke="black" d="M51.0321,-143.697C51.0321,-135.983 51.0321,-126.712 51.0321,-118.112"/>
<polygon fill="black" stroke="black" points="54.5322,-118.104 51.0321,-108.104 47.5322,-118.104 54.5322,-118.104"/>
<g id="a_edge1&#45;headlabel"><a xlink:href="dir_000048_000008.xhtml" target="_top" xlink:title="46">
<text text-anchor="middle" x="57.3714" y="-119.199" font-family="Helvetica" font-size="10.00">46</text>
</a>
</g>
</g>
<!-- dir_b34ff4bf0b006fa2058bebfe917ec172&#45;&gt;dir_d4d363c0979c7ffda4833df3f93b5668 -->
<g id="edge2" class="edge"><title>dir_b34ff4bf0b006fa2058bebfe917ec172&#45;&gt;dir_d4d363c0979c7ffda4833df3f93b5668</title>
<path fill="none" stroke="black" d="M70.4525,-143.871C98.9799,-118.711 152.333,-71.6535 184.774,-43.0415"/>
<polygon fill="black" stroke="black" points="187.358,-45.4289 192.543,-36.1893 182.728,-40.1791 187.358,-45.4289"/>
<g id="a_edge2&#45;headlabel"><a xlink:href="dir_000048_000000.xhtml" target="_top" xlink:title="92">
<text text-anchor="middle" x="186.541" y="-47.436" font-family="Helvetica" font-size="10.00">92</text>
</a>
</g>
</g>
<!-- dir_b34ff4bf0b006fa2058bebfe917ec172&#45;&gt;dir_2dd0e1a78595595cf02ec0d9123d5f3a -->
<g id="edge3" class="edge"><title>dir_b34ff4bf0b006fa2058bebfe917ec172&#45;&gt;dir_2dd0e1a78595595cf02ec0d9123d5f3a</title>
<path fill="none" stroke="black" d="M78.3436,-149.125C103.895,-138.016 142.386,-121.281 171.516,-108.616"/>
<polygon fill="black" stroke="black" points="173.228,-111.688 181.003,-104.491 170.437,-105.268 173.228,-111.688"/>
<g id="a_edge3&#45;headlabel"><a xlink:href="dir_000048_000021.xhtml" target="_top" xlink:title="84">
<text text-anchor="middle" x="171.064" y="-113.225" font-family="Helvetica" font-size="10.00">84</text>
</a>
</g>
</g>
<!-- dir_0df31d79686c90a11f48d3915528531f&#45;&gt;dir_d4d363c0979c7ffda4833df3f93b5668 -->
<g id="edge4" class="edge"><title>dir_0df31d79686c90a11f48d3915528531f&#45;&gt;dir_d4d363c0979c7ffda4833df3f93b5668</title>
<path fill="none" stroke="black" d="M160.56,-143.948C160.63,-125.536 162.449,-95.6665 172.032,-72 176.056,-62.0629 182.435,-52.3511 188.927,-44.0124"/>
<polygon fill="black" stroke="black" points="191.725,-46.1205 195.374,-36.1739 186.319,-41.674 191.725,-46.1205"/>
<g id="a_edge4&#45;headlabel"><a xlink:href="dir_000050_000000.xhtml" target="_top" xlink:title="108">
<text text-anchor="middle" x="191.635" y="-48.2003" font-family="Helvetica" font-size="10.00">108</text>
</a>
</g>
</g>
<!-- dir_0df31d79686c90a11f48d3915528531f&#45;&gt;dir_2dd0e1a78595595cf02ec0d9123d5f3a -->
<g id="edge5" class="edge"><title>dir_0df31d79686c90a11f48d3915528531f&#45;&gt;dir_2dd0e1a78595595cf02ec0d9123d5f3a</title>
<path fill="none" stroke="black" d="M173.639,-143.697C179.63,-135.474 186.909,-125.483 193.511,-116.421"/>
<polygon fill="black" stroke="black" points="196.511,-118.248 199.57,-108.104 190.853,-114.126 196.511,-118.248"/>
<g id="a_edge5&#45;headlabel"><a xlink:href="dir_000050_000021.xhtml" target="_top" xlink:title="18">
<text text-anchor="middle" x="196.689" y="-120.325" font-family="Helvetica" font-size="10.00">18</text>
</a>
</g>
</g>
<!-- dir_db9e2079d58d733beb36406e9ab55e7d&#45;&gt;dir_d4d363c0979c7ffda4833df3f93b5668 -->
<g id="edge6" class="edge"><title>dir_db9e2079d58d733beb36406e9ab55e7d&#45;&gt;dir_d4d363c0979c7ffda4833df3f93b5668</title>
<path fill="none" stroke="black" d="M78.3436,-77.1255C101.96,-66.8573 136.632,-51.7826 164.748,-39.5582"/>
<polygon fill="black" stroke="black" points="166.231,-42.73 174.006,-35.5329 163.44,-36.3105 166.231,-42.73"/>
<g id="a_edge6&#45;headlabel"><a xlink:href="dir_000008_000000.xhtml" target="_top" xlink:title="19">
<text text-anchor="middle" x="164.067" y="-44.267" font-family="Helvetica" font-size="10.00">19</text>
</a>
</g>
</g>
<!-- dir_e571e0a75a914d9ca225651fe8decf09&#45;&gt;dir_d4d363c0979c7ffda4833df3f93b5668 -->
<g id="edge7" class="edge"><title>dir_e571e0a75a914d9ca225651fe8decf09&#45;&gt;dir_d4d363c0979c7ffda4833df3f93b5668</title>
<path fill="none" stroke="black" d="M269.605,-143.91C267.567,-125.466 262.797,-95.5695 252.032,-72 247.578,-62.248 241.082,-52.5869 234.614,-44.2376"/>
<polygon fill="black" stroke="black" points="237.251,-41.9322 228.233,-36.3708 231.814,-46.342 237.251,-41.9322"/>
<g id="a_edge7&#45;headlabel"><a xlink:href="dir_000049_000000.xhtml" target="_top" xlink:title="3">
<text text-anchor="middle" x="241.72" y="-40.4353" font-family="Helvetica" font-size="10.00">3</text>
</a>
</g>
</g>
<!-- dir_2dd0e1a78595595cf02ec0d9123d5f3a&#45;&gt;dir_d4d363c0979c7ffda4833df3f93b5668 -->
<g id="edge18" class="edge"><title>dir_2dd0e1a78595595cf02ec0d9123d5f3a&#45;&gt;dir_d4d363c0979c7ffda4833df3f93b5668</title>
<path fill="none" stroke="black" d="M212.032,-71.6966C212.032,-63.9827 212.032,-54.7125 212.032,-46.1124"/>
<polygon fill="black" stroke="black" points="215.532,-46.1043 212.032,-36.1043 208.532,-46.1044 215.532,-46.1043"/>
<g id="a_edge18&#45;headlabel"><a xlink:href="dir_000021_000000.xhtml" target="_top" xlink:title="2">
<text text-anchor="middle" x="218.371" y="-47.199" font-family="Helvetica" font-size="10.00">2</text>
</a>
</g>
</g>
<!-- dir_7834b57f5ab446dc82e2741d277142e5&#45;&gt;dir_d4d363c0979c7ffda4833df3f93b5668 -->
<g id="edge19" class="edge"><title>dir_7834b57f5ab446dc82e2741d277142e5&#45;&gt;dir_d4d363c0979c7ffda4833df3f93b5668</title>
<path fill="none" stroke="black" d="M408.274,-143.825C394.077,-124.186 368.529,-92.1548 340.032,-72 315.762,-54.8347 285.092,-41.8904 259.858,-33.0923"/>
<polygon fill="black" stroke="black" points="260.719,-29.6888 250.125,-29.8076 258.481,-36.3213 260.719,-29.6888"/>
<g id="a_edge19&#45;headlabel"><a xlink:href="dir_000067_000000.xhtml" target="_top" xlink:title="2">
<text text-anchor="middle" x="265.033" y="-25.6478" font-family="Helvetica" font-size="10.00">2</text>
</a>
</g>
</g>
</g>
</svg>
