<?xml version="1.0" encoding="UTF-8" standalone="no"?>
<!DOCTYPE svg PUBLIC "-//W3C//DTD SVG 1.1//EN"
 "http://www.w3.org/Graphics/SVG/1.1/DTD/svg11.dtd">
<!-- Generated by graphviz version 2.40.1 (20161225.0304)
 -->
<!-- Title: arm_compute/core/CL Pages: 1 -->
<svg width="164pt" height="183pt"
 viewBox="0.00 0.00 164.00 183.00" xmlns="http://www.w3.org/2000/svg" xmlns:xlink="http://www.w3.org/1999/xlink">
<g id="graph0" class="graph" transform="scale(1 1) rotate(0) translate(4 179)">
<title>arm_compute/core/CL</title>
<polygon fill="#ffffff" stroke="transparent" points="-4,4 -4,-179 160,-179 160,4 -4,4"/>
<g id="clust1" class="cluster">
<title>clusterdir_1fb090f0c6070330bfaccc4236d3ca0d</title>
<g id="a_clust1"><a xlink:href="dir_1fb090f0c6070330bfaccc4236d3ca0d.xhtml" target="_top" xlink:title="core">
<polygon fill="#ddddee" stroke="#000000" points="8,-8 8,-167 94,-167 94,-8 8,-8"/>
<text text-anchor="middle" x="51" y="-155" font-family="Helvetica,sans-Serif" font-size="10.00" fill="#000000">core</text>
</a>
</g>
</g>
<g id="clust2" class="cluster">
<title>clusterdir_1633709b037eda5b8477677909f78129</title>
<g id="a_clust2"><a xlink:href="dir_1633709b037eda5b8477677909f78129.xhtml" target="_top">
<polygon fill="#eeeeff" stroke="#000000" points="16,-16 16,-140 86,-140 86,-16 16,-16"/>
</a>
</g>
</g>
<!-- dir_1633709b037eda5b8477677909f78129 -->
<g id="node1" class="node">
<title>dir_1633709b037eda5b8477677909f78129</title>
<text text-anchor="middle" x="51" y="-111.5" font-family="Helvetica,sans-Serif" font-size="10.00" fill="#000000">CL</text>
</g>
<!-- dir_f906bbebc596bc606d589ccb705e6595 -->
<g id="node2" class="node">
<title>dir_f906bbebc596bc606d589ccb705e6595</title>
<g id="a_node2"><a xlink:href="dir_f906bbebc596bc606d589ccb705e6595.xhtml" target="_top" xlink:title="kernels">
<polygon fill="#ffffff" stroke="#000000" points="78,-60 24,-60 24,-24 78,-24 78,-60"/>
<text text-anchor="middle" x="51" y="-39.5" font-family="Helvetica,sans-Serif" font-size="10.00" fill="#000000">kernels</text>
</a>
</g>
</g>
<!-- dir_1633709b037eda5b8477677909f78129&#45;&gt;dir_f906bbebc596bc606d589ccb705e6595 -->
<g id="edge1" class="edge">
<title>dir_1633709b037eda5b8477677909f78129&#45;&gt;dir_f906bbebc596bc606d589ccb705e6595</title>
<path fill="none" stroke="#000000" d="M51,-95.8314C51,-88.131 51,-78.9743 51,-70.4166"/>
<polygon fill="#000000" stroke="#000000" points="54.5001,-70.4132 51,-60.4133 47.5001,-70.4133 54.5001,-70.4132"/>
<g id="a_edge1&#45;headlabel"><a xlink:href="dir_000002_000003.xhtml" target="_top" xlink:title="112">
<text text-anchor="middle" x="57.3393" y="-71.5079" font-family="Helvetica,sans-Serif" font-size="10.00" fill="#000000">112</text>
</a>
</g>
</g>
<!-- dir_5815af820a9cc9481f1d0990a0d60286 -->
<g id="node3" class="node">
<title>dir_5815af820a9cc9481f1d0990a0d60286</title>
<g id="a_node3"><a xlink:href="dir_5815af820a9cc9481f1d0990a0d60286.xhtml" target="_top" xlink:title="support">
<polygon fill="none" stroke="#000000" points="156,-60 102,-60 102,-24 156,-24 156,-60"/>
<text text-anchor="middle" x="129" y="-39.5" font-family="Helvetica,sans-Serif" font-size="10.00" fill="#000000">support</text>
</a>
</g>
</g>
<!-- dir_1633709b037eda5b8477677909f78129&#45;&gt;dir_5815af820a9cc9481f1d0990a0d60286 -->
<g id="edge2" class="edge">
<title>dir_1633709b037eda5b8477677909f78129&#45;&gt;dir_5815af820a9cc9481f1d0990a0d60286</title>
<path fill="none" stroke="#000000" d="M70.6827,-95.8314C80.1051,-87.1337 91.5401,-76.5783 101.7796,-67.1265"/>
<polygon fill="#000000" stroke="#000000" points="104.3495,-69.5175 109.3236,-60.1628 99.6016,-64.3738 104.3495,-69.5175"/>
<g id="a_edge2&#45;headlabel"><a xlink:href="dir_000002_000119.xhtml" target="_top" xlink:title="1">
<text text-anchor="middle" x="103.634" y="-71.5419" font-family="Helvetica,sans-Serif" font-size="10.00" fill="#000000">1</text>
</a>
</g>
</g>
</g>
</svg>
