<?xml version="1.0" encoding="UTF-8" standalone="no"?>
<!DOCTYPE svg PUBLIC "-//W3C//DTD SVG 1.1//EN"
 "http://www.w3.org/Graphics/SVG/1.1/DTD/svg11.dtd">
<!-- Generated by graphviz version 2.38.0 (20140413.2041)
 -->
<!-- Title: tests/benchmark/CL/SYSTEM Pages: 1 -->
<svg width="258pt" height="223pt"
 viewBox="0.00 0.00 258.00 223.00" xmlns="http://www.w3.org/2000/svg" xmlns:xlink="http://www.w3.org/1999/xlink">
<g id="graph0" class="graph" transform="scale(1 1) rotate(0) translate(4 219)">
<title>tests/benchmark/CL/SYSTEM</title>
<polygon fill="white" stroke="none" points="-4,4 -4,-219 254,-219 254,4 -4,4"/>
<g id="clust1" class="cluster"><title>clusterdir_4da487531dc5bdc76b523c9e82b781b1</title>
<g id="a_clust1"><a xlink:href="dir_4da487531dc5bdc76b523c9e82b781b1.xhtml" target="_top" xlink:title="CL">
<polygon fill="#ddddee" stroke="black" points="101,-136 101,-207 173,-207 173,-136 101,-136"/>
<text text-anchor="middle" x="137" y="-195" font-family="Helvetica,sans-Serif" font-size="10.00">CL</text>
</a>
</g>
</g>
<!-- dir_2dfba1021aeb15d8e1228add590b046a -->
<g id="node1" class="node"><title>dir_2dfba1021aeb15d8e1228add590b046a</title>
<g id="a_node1"><a xlink:href="dir_2dfba1021aeb15d8e1228add590b046a.xhtml" target="_top" xlink:title="SYSTEM">
<polygon fill="#eeeeff" stroke="black" points="164.5,-180 109.5,-180 109.5,-144 164.5,-144 164.5,-180"/>
<text text-anchor="middle" x="137" y="-159.5" font-family="Helvetica,sans-Serif" font-size="10.00">SYSTEM</text>
</a>
</g>
</g>
<!-- dir_cbdb8362360e11eafe2fa3bc74cf0ffd -->
<g id="node2" class="node"><title>dir_cbdb8362360e11eafe2fa3bc74cf0ffd</title>
<g id="a_node2"><a xlink:href="dir_cbdb8362360e11eafe2fa3bc74cf0ffd.xhtml" target="_top" xlink:title="utils">
<polygon fill="none" stroke="black" points="54,-108 0,-108 0,-72 54,-72 54,-108"/>
<text text-anchor="middle" x="27" y="-87.5" font-family="Helvetica,sans-Serif" font-size="10.00">utils</text>
</a>
</g>
</g>
<!-- dir_2dfba1021aeb15d8e1228add590b046a&#45;&gt;dir_cbdb8362360e11eafe2fa3bc74cf0ffd -->
<g id="edge3" class="edge"><title>dir_2dfba1021aeb15d8e1228add590b046a&#45;&gt;dir_cbdb8362360e11eafe2fa3bc74cf0ffd</title>
<path fill="none" stroke="black" d="M110.091,-143.876C95.8416,-134.808 78.1537,-123.552 62.7644,-113.759"/>
<polygon fill="black" stroke="black" points="64.3282,-110.606 54.0125,-108.19 60.57,-116.511 64.3282,-110.606"/>
<g id="a_edge3&#45;headlabel"><a xlink:href="dir_000060_000023.xhtml" target="_top" xlink:title="4">
<text text-anchor="middle" x="68.8851" y="-107.64" font-family="Helvetica,sans-Serif" font-size="10.00">4</text>
</a>
</g>
</g>
<!-- dir_9e71e2da941d3cafc4d98a9f6ae3de4f -->
<g id="node3" class="node"><title>dir_9e71e2da941d3cafc4d98a9f6ae3de4f</title>
<g id="a_node3"><a xlink:href="dir_9e71e2da941d3cafc4d98a9f6ae3de4f.xhtml" target="_top" xlink:title="framework">
<polygon fill="white" stroke="red" points="139.5,-108 72.5,-108 72.5,-72 139.5,-72 139.5,-108"/>
<text text-anchor="middle" x="106" y="-87.5" font-family="Helvetica,sans-Serif" font-size="10.00">framework</text>
</a>
</g>
</g>
<!-- dir_2dfba1021aeb15d8e1228add590b046a&#45;&gt;dir_9e71e2da941d3cafc4d98a9f6ae3de4f -->
<g id="edge4" class="edge"><title>dir_2dfba1021aeb15d8e1228add590b046a&#45;&gt;dir_9e71e2da941d3cafc4d98a9f6ae3de4f</title>
<path fill="none" stroke="black" d="M129.337,-143.697C125.808,-135.728 121.544,-126.1 117.631,-117.264"/>
<polygon fill="black" stroke="black" points="120.824,-115.831 113.575,-108.104 114.424,-118.665 120.824,-115.831"/>
<g id="a_edge4&#45;headlabel"><a xlink:href="dir_000060_000022.xhtml" target="_top" xlink:title="8">
<text text-anchor="middle" x="124.876" y="-115.468" font-family="Helvetica,sans-Serif" font-size="10.00">8</text>
</a>
</g>
</g>
<!-- dir_214608ef36d61442cb2b0c1c4e9a7def -->
<g id="node4" class="node"><title>dir_214608ef36d61442cb2b0c1c4e9a7def</title>
<g id="a_node4"><a xlink:href="dir_214608ef36d61442cb2b0c1c4e9a7def.xhtml" target="_top" xlink:title="arm_compute">
<polygon fill="white" stroke="red" points="179,-36 95,-36 95,-0 179,-0 179,-36"/>
<text text-anchor="middle" x="137" y="-15.5" font-family="Helvetica,sans-Serif" font-size="10.00">arm_compute</text>
</a>
</g>
</g>
<!-- dir_2dfba1021aeb15d8e1228add590b046a&#45;&gt;dir_214608ef36d61442cb2b0c1c4e9a7def -->
<g id="edge5" class="edge"><title>dir_2dfba1021aeb15d8e1228add590b046a&#45;&gt;dir_214608ef36d61442cb2b0c1c4e9a7def</title>
<path fill="none" stroke="black" d="M141.869,-143.979C144.564,-133.665 147.637,-120.189 149,-108 150.778,-92.0991 150.778,-87.9009 149,-72 148.042,-63.4299 146.238,-54.2228 144.315,-45.9264"/>
<polygon fill="black" stroke="black" points="147.664,-44.8904 141.869,-36.0209 140.868,-46.5684 147.664,-44.8904"/>
<g id="a_edge5&#45;headlabel"><a xlink:href="dir_000060_000000.xhtml" target="_top" xlink:title="43">
<text text-anchor="middle" x="151.282" y="-45.1997" font-family="Helvetica,sans-Serif" font-size="10.00">43</text>
</a>
</g>
</g>
<!-- dir_896191444cf08ec8ade6f88256cb2bdd -->
<g id="node5" class="node"><title>dir_896191444cf08ec8ade6f88256cb2bdd</title>
<g id="a_node5"><a xlink:href="dir_896191444cf08ec8ade6f88256cb2bdd.xhtml" target="_top" xlink:title="CL">
<polygon fill="none" stroke="black" points="250,-108 196,-108 196,-72 250,-72 250,-108"/>
<text text-anchor="middle" x="223" y="-87.5" font-family="Helvetica,sans-Serif" font-size="10.00">CL</text>
</a>
</g>
</g>
<!-- dir_2dfba1021aeb15d8e1228add590b046a&#45;&gt;dir_896191444cf08ec8ade6f88256cb2bdd -->
<g id="edge6" class="edge"><title>dir_2dfba1021aeb15d8e1228add590b046a&#45;&gt;dir_896191444cf08ec8ade6f88256cb2bdd</title>
<path fill="none" stroke="black" d="M158.258,-143.697C169.089,-134.881 182.418,-124.032 194.16,-114.474"/>
<polygon fill="black" stroke="black" points="196.44,-117.132 201.986,-108.104 192.021,-111.703 196.44,-117.132"/>
<g id="a_edge6&#45;headlabel"><a xlink:href="dir_000060_000064.xhtml" target="_top" xlink:title="4">
<text text-anchor="middle" x="195.444" y="-119.103" font-family="Helvetica,sans-Serif" font-size="10.00">4</text>
</a>
</g>
</g>
<!-- dir_cbdb8362360e11eafe2fa3bc74cf0ffd&#45;&gt;dir_214608ef36d61442cb2b0c1c4e9a7def -->
<g id="edge1" class="edge"><title>dir_cbdb8362360e11eafe2fa3bc74cf0ffd&#45;&gt;dir_214608ef36d61442cb2b0c1c4e9a7def</title>
<path fill="none" stroke="black" d="M53.909,-71.8761C68.1584,-62.8083 85.8463,-51.5523 101.236,-41.7592"/>
<polygon fill="black" stroke="black" points="103.43,-44.5114 109.988,-36.1898 99.6718,-38.6057 103.43,-44.5114"/>
<g id="a_edge1&#45;headlabel"><a xlink:href="dir_000023_000000.xhtml" target="_top" xlink:title="24">
<text text-anchor="middle" x="101.922" y="-46.3366" font-family="Helvetica,sans-Serif" font-size="10.00">24</text>
</a>
</g>
</g>
<!-- dir_9e71e2da941d3cafc4d98a9f6ae3de4f&#45;&gt;dir_214608ef36d61442cb2b0c1c4e9a7def -->
<g id="edge2" class="edge"><title>dir_9e71e2da941d3cafc4d98a9f6ae3de4f&#45;&gt;dir_214608ef36d61442cb2b0c1c4e9a7def</title>
<path fill="none" stroke="black" d="M113.663,-71.6966C117.192,-63.7284 121.456,-54.0995 125.369,-45.2641"/>
<polygon fill="black" stroke="black" points="128.576,-46.6651 129.425,-36.1043 122.176,-43.8306 128.576,-46.6651"/>
<g id="a_edge2&#45;headlabel"><a xlink:href="dir_000022_000000.xhtml" target="_top" xlink:title="13">
<text text-anchor="middle" x="129.717" y="-48.6015" font-family="Helvetica,sans-Serif" font-size="10.00">13</text>
</a>
</g>
</g>
<!-- dir_896191444cf08ec8ade6f88256cb2bdd&#45;&gt;dir_214608ef36d61442cb2b0c1c4e9a7def -->
<g id="edge7" class="edge"><title>dir_896191444cf08ec8ade6f88256cb2bdd&#45;&gt;dir_214608ef36d61442cb2b0c1c4e9a7def</title>
<path fill="none" stroke="black" d="M201.742,-71.6966C190.911,-62.8807 177.582,-52.0321 165.84,-42.4742"/>
<polygon fill="black" stroke="black" points="167.979,-39.7026 158.014,-36.1043 163.56,-45.1316 167.979,-39.7026"/>
<g id="a_edge7&#45;headlabel"><a xlink:href="dir_000064_000000.xhtml" target="_top" xlink:title="5">
<text text-anchor="middle" x="172.559" y="-37.2697" font-family="Helvetica,sans-Serif" font-size="10.00">5</text>
</a>
</g>
</g>
</g>
</svg>
