<?xml version="1.0" encoding="UTF-8" standalone="no"?>
<!DOCTYPE svg PUBLIC "-//W3C//DTD SVG 1.1//EN"
 "http://www.w3.org/Graphics/SVG/1.1/DTD/svg11.dtd">
<!-- Generated by graphviz version 2.38.0 (20140413.2041)
 -->
<!-- Title: arm_compute/runtime Pages: 1 -->
<svg width="440pt" height="303pt"
 viewBox="0.00 0.00 440.00 303.00" xmlns="http://www.w3.org/2000/svg" xmlns:xlink="http://www.w3.org/1999/xlink">
<g id="graph0" class="graph" transform="scale(1 1) rotate(0) translate(4 299)">
<title>arm_compute/runtime</title>
<polygon fill="white" stroke="none" points="-4,4 -4,-299 436,-299 436,4 -4,4"/>
<g id="clust1" class="cluster"><title>clusterdir_214608ef36d61442cb2b0c1c4e9a7def</title>
<g id="a_clust1"><a xlink:href="dir_214608ef36d61442cb2b0c1c4e9a7def.xhtml" target="_top" xlink:title="arm_compute">
<polygon fill="#ddddee" stroke="black" points="8,-128 8,-287 424,-287 424,-128 8,-128"/>
<text text-anchor="middle" x="216" y="-275" font-family="Helvetica,sans-Serif" font-size="10.00">arm_compute</text>
</a>
</g>
</g>
<g id="clust2" class="cluster"><title>clusterdir_8bc26130589aa16388b5a02f17abf2c2</title>
<g id="a_clust2"><a xlink:href="dir_8bc26130589aa16388b5a02f17abf2c2.xhtml" target="_top">
<polygon fill="#eeeeff" stroke="black" points="16,-136 16,-260 416,-260 416,-136 16,-136"/>
</a>
</g>
</g>
<!-- dir_8bc26130589aa16388b5a02f17abf2c2 -->
<g id="node1" class="node"><title>dir_8bc26130589aa16388b5a02f17abf2c2</title>
<text text-anchor="middle" x="381" y="-231.5" font-family="Helvetica,sans-Serif" font-size="10.00">runtime</text>
</g>
<!-- dir_5815af820a9cc9481f1d0990a0d60286 -->
<g id="node9" class="node"><title>dir_5815af820a9cc9481f1d0990a0d60286</title>
<g id="a_node9"><a xlink:href="dir_5815af820a9cc9481f1d0990a0d60286.xhtml" target="_top" xlink:title="support">
<polygon fill="none" stroke="black" points="342,-36 288,-36 288,-0 342,-0 342,-36"/>
<text text-anchor="middle" x="315" y="-15.5" font-family="Helvetica,sans-Serif" font-size="10.00">support</text>
</a>
</g>
</g>
<!-- dir_8bc26130589aa16388b5a02f17abf2c2&#45;&gt;dir_5815af820a9cc9481f1d0990a0d60286 -->
<g id="edge4" class="edge"><title>dir_8bc26130589aa16388b5a02f17abf2c2&#45;&gt;dir_5815af820a9cc9481f1d0990a0d60286</title>
<path fill="none" stroke="black" d="M375.711,-215.849C364.246,-178.675 337.033,-90.4388 323.272,-45.8204"/>
<polygon fill="black" stroke="black" points="326.606,-44.7568 320.315,-36.2325 319.917,-46.8198 326.606,-44.7568"/>
<g id="a_edge4&#45;headlabel"><a xlink:href="dir_000003_000132.xhtml" target="_top" xlink:title="4">
<text text-anchor="middle" x="330.379" y="-44.855" font-family="Helvetica,sans-Serif" font-size="10.00">4</text>
</a>
</g>
</g>
<!-- dir_b986aa98f9b6490bb4fc7918500346fb -->
<g id="node2" class="node"><title>dir_b986aa98f9b6490bb4fc7918500346fb</title>
<g id="a_node2"><a xlink:href="dir_b986aa98f9b6490bb4fc7918500346fb.xhtml" target="_top" xlink:title="CL">
<polygon fill="white" stroke="red" points="150,-252 96,-252 96,-216 150,-216 150,-252"/>
<text text-anchor="middle" x="123" y="-231.5" font-family="Helvetica,sans-Serif" font-size="10.00">CL</text>
</a>
</g>
</g>
<!-- dir_b9621ae687ab229876c54f8c2df20e15 -->
<g id="node3" class="node"><title>dir_b9621ae687ab229876c54f8c2df20e15</title>
<g id="a_node3"><a xlink:href="dir_b9621ae687ab229876c54f8c2df20e15.xhtml" target="_top" xlink:title="common">
<polygon fill="white" stroke="black" points="125.5,-180 66.5,-180 66.5,-144 125.5,-144 125.5,-180"/>
<text text-anchor="middle" x="96" y="-159.5" font-family="Helvetica,sans-Serif" font-size="10.00">common</text>
</a>
</g>
</g>
<!-- dir_b986aa98f9b6490bb4fc7918500346fb&#45;&gt;dir_b9621ae687ab229876c54f8c2df20e15 -->
<g id="edge11" class="edge"><title>dir_b986aa98f9b6490bb4fc7918500346fb&#45;&gt;dir_b9621ae687ab229876c54f8c2df20e15</title>
<path fill="none" stroke="black" d="M116.326,-215.697C113.285,-207.813 109.617,-198.304 106.239,-189.546"/>
<polygon fill="black" stroke="black" points="109.462,-188.175 102.597,-180.104 102.931,-190.694 109.462,-188.175"/>
<g id="a_edge11&#45;headlabel"><a xlink:href="dir_000004_000046.xhtml" target="_top" xlink:title="1">
<text text-anchor="middle" x="113.404" y="-188.007" font-family="Helvetica,sans-Serif" font-size="10.00">1</text>
</a>
</g>
</g>
<!-- dir_b496024afd63bafbf4e8da80d7d3a81a -->
<g id="node4" class="node"><title>dir_b496024afd63bafbf4e8da80d7d3a81a</title>
<g id="a_node4"><a xlink:href="dir_b496024afd63bafbf4e8da80d7d3a81a.xhtml" target="_top" xlink:title="CPP">
<polygon fill="white" stroke="red" points="198,-180 144,-180 144,-144 198,-144 198,-180"/>
<text text-anchor="middle" x="171" y="-159.5" font-family="Helvetica,sans-Serif" font-size="10.00">CPP</text>
</a>
</g>
</g>
<!-- dir_b986aa98f9b6490bb4fc7918500346fb&#45;&gt;dir_b496024afd63bafbf4e8da80d7d3a81a -->
<g id="edge9" class="edge"><title>dir_b986aa98f9b6490bb4fc7918500346fb&#45;&gt;dir_b496024afd63bafbf4e8da80d7d3a81a</title>
<path fill="none" stroke="black" d="M134.865,-215.697C140.503,-207.474 147.354,-197.483 153.569,-188.421"/>
<polygon fill="black" stroke="black" points="156.503,-190.331 159.271,-180.104 150.729,-186.372 156.503,-190.331"/>
<g id="a_edge9&#45;headlabel"><a xlink:href="dir_000004_000047.xhtml" target="_top" xlink:title="1">
<text text-anchor="middle" x="156.811" y="-192.401" font-family="Helvetica,sans-Serif" font-size="10.00">1</text>
</a>
</g>
</g>
<!-- dir_1fb090f0c6070330bfaccc4236d3ca0d -->
<g id="node8" class="node"><title>dir_1fb090f0c6070330bfaccc4236d3ca0d</title>
<g id="a_node8"><a xlink:href="dir_1fb090f0c6070330bfaccc4236d3ca0d.xhtml" target="_top" xlink:title="core">
<polygon fill="white" stroke="red" points="272,-108 218,-108 218,-72 272,-72 272,-108"/>
<text text-anchor="middle" x="245" y="-87.5" font-family="Helvetica,sans-Serif" font-size="10.00">core</text>
</a>
</g>
</g>
<!-- dir_b986aa98f9b6490bb4fc7918500346fb&#45;&gt;dir_1fb090f0c6070330bfaccc4236d3ca0d -->
<g id="edge10" class="edge"><title>dir_b986aa98f9b6490bb4fc7918500346fb&#45;&gt;dir_1fb090f0c6070330bfaccc4236d3ca0d</title>
<path fill="none" stroke="black" d="M150.39,-218.088C171.579,-206.128 198.668,-189.778 207,-180 222.354,-161.981 232.319,-136.835 238.175,-117.866"/>
<polygon fill="black" stroke="black" points="241.598,-118.627 241.013,-108.048 234.873,-116.682 241.598,-118.627"/>
<g id="a_edge10&#45;headlabel"><a xlink:href="dir_000004_000001.xhtml" target="_top" xlink:title="256">
<text text-anchor="middle" x="243.327" y="-120.369" font-family="Helvetica,sans-Serif" font-size="10.00">256</text>
</a>
</g>
</g>
<!-- dir_b9621ae687ab229876c54f8c2df20e15&#45;&gt;dir_1fb090f0c6070330bfaccc4236d3ca0d -->
<g id="edge8" class="edge"><title>dir_b9621ae687ab229876c54f8c2df20e15&#45;&gt;dir_1fb090f0c6070330bfaccc4236d3ca0d</title>
<path fill="none" stroke="black" d="M113.577,-143.684C119.938,-138.105 127.428,-132.269 135,-128 157.831,-115.128 185.86,-105.785 207.911,-99.7068"/>
<polygon fill="black" stroke="black" points="208.812,-103.089 217.581,-97.1431 207.018,-96.3225 208.812,-103.089"/>
<g id="a_edge8&#45;headlabel"><a xlink:href="dir_000046_000001.xhtml" target="_top" xlink:title="3">
<text text-anchor="middle" x="206.065" y="-104.254" font-family="Helvetica,sans-Serif" font-size="10.00">3</text>
</a>
</g>
</g>
<!-- dir_b496024afd63bafbf4e8da80d7d3a81a&#45;&gt;dir_1fb090f0c6070330bfaccc4236d3ca0d -->
<g id="edge5" class="edge"><title>dir_b496024afd63bafbf4e8da80d7d3a81a&#45;&gt;dir_1fb090f0c6070330bfaccc4236d3ca0d</title>
<path fill="none" stroke="black" d="M189.292,-143.697C198.433,-135.05 209.64,-124.449 219.6,-115.027"/>
<polygon fill="black" stroke="black" points="222.059,-117.519 226.918,-108.104 217.248,-112.434 222.059,-117.519"/>
<g id="a_edge5&#45;headlabel"><a xlink:href="dir_000047_000001.xhtml" target="_top" xlink:title="6">
<text text-anchor="middle" x="221.399" y="-119.552" font-family="Helvetica,sans-Serif" font-size="10.00">6</text>
</a>
</g>
</g>
<!-- dir_e83fa7cb9796f3ad7be03e3d9fcd3249 -->
<g id="node5" class="node"><title>dir_e83fa7cb9796f3ad7be03e3d9fcd3249</title>
<g id="a_node5"><a xlink:href="dir_e83fa7cb9796f3ad7be03e3d9fcd3249.xhtml" target="_top" xlink:title="GLES_COMPUTE">
<polygon fill="white" stroke="red" points="335.5,-252 240.5,-252 240.5,-216 335.5,-216 335.5,-252"/>
<text text-anchor="middle" x="288" y="-231.5" font-family="Helvetica,sans-Serif" font-size="10.00">GLES_COMPUTE</text>
</a>
</g>
</g>
<!-- dir_e83fa7cb9796f3ad7be03e3d9fcd3249&#45;&gt;dir_1fb090f0c6070330bfaccc4236d3ca0d -->
<g id="edge7" class="edge"><title>dir_e83fa7cb9796f3ad7be03e3d9fcd3249&#45;&gt;dir_1fb090f0c6070330bfaccc4236d3ca0d</title>
<path fill="none" stroke="black" d="M289.547,-215.827C290.784,-194.341 290.602,-156.865 278,-128 276.168,-123.804 273.673,-119.755 270.87,-115.972"/>
<polygon fill="black" stroke="black" points="273.461,-113.615 264.377,-108.164 268.079,-118.091 273.461,-113.615"/>
<g id="a_edge7&#45;headlabel"><a xlink:href="dir_000049_000001.xhtml" target="_top" xlink:title="60">
<text text-anchor="middle" x="277.943" y="-112.064" font-family="Helvetica,sans-Serif" font-size="10.00">60</text>
</a>
</g>
</g>
<!-- dir_65e289039e1347f87d412b0a1b1a312c -->
<g id="node6" class="node"><title>dir_65e289039e1347f87d412b0a1b1a312c</title>
<g id="a_node6"><a xlink:href="dir_65e289039e1347f87d412b0a1b1a312c.xhtml" target="_top" xlink:title="NEON">
<polygon fill="white" stroke="red" points="222,-252 168,-252 168,-216 222,-216 222,-252"/>
<text text-anchor="middle" x="195" y="-231.5" font-family="Helvetica,sans-Serif" font-size="10.00">NEON</text>
</a>
</g>
</g>
<!-- dir_65e289039e1347f87d412b0a1b1a312c&#45;&gt;dir_b9621ae687ab229876c54f8c2df20e15 -->
<g id="edge3" class="edge"><title>dir_65e289039e1347f87d412b0a1b1a312c&#45;&gt;dir_b9621ae687ab229876c54f8c2df20e15</title>
<path fill="none" stroke="black" d="M170.782,-215.876C158.077,-206.893 142.336,-195.763 128.577,-186.034"/>
<polygon fill="black" stroke="black" points="130.497,-183.105 120.311,-180.19 126.456,-188.821 130.497,-183.105"/>
<g id="a_edge3&#45;headlabel"><a xlink:href="dir_000051_000046.xhtml" target="_top" xlink:title="1">
<text text-anchor="middle" x="135.071" y="-180.362" font-family="Helvetica,sans-Serif" font-size="10.00">1</text>
</a>
</g>
</g>
<!-- dir_65e289039e1347f87d412b0a1b1a312c&#45;&gt;dir_b496024afd63bafbf4e8da80d7d3a81a -->
<g id="edge1" class="edge"><title>dir_65e289039e1347f87d412b0a1b1a312c&#45;&gt;dir_b496024afd63bafbf4e8da80d7d3a81a</title>
<path fill="none" stroke="black" d="M189.067,-215.697C186.394,-207.898 183.174,-198.509 180.199,-189.829"/>
<polygon fill="black" stroke="black" points="183.418,-188.429 176.864,-180.104 176.797,-190.699 183.418,-188.429"/>
<g id="a_edge1&#45;headlabel"><a xlink:href="dir_000051_000047.xhtml" target="_top" xlink:title="2">
<text text-anchor="middle" x="187.27" y="-188.408" font-family="Helvetica,sans-Serif" font-size="10.00">2</text>
</a>
</g>
</g>
<!-- dir_65e289039e1347f87d412b0a1b1a312c&#45;&gt;dir_1fb090f0c6070330bfaccc4236d3ca0d -->
<g id="edge2" class="edge"><title>dir_65e289039e1347f87d412b0a1b1a312c&#45;&gt;dir_1fb090f0c6070330bfaccc4236d3ca0d</title>
<path fill="none" stroke="black" d="M214.591,-215.879C224.061,-206.353 234.537,-193.676 240,-180 247.833,-160.39 248.737,-136.399 247.872,-118.269"/>
<polygon fill="black" stroke="black" points="251.35,-117.827 247.175,-108.09 244.366,-118.305 251.35,-117.827"/>
<g id="a_edge2&#45;headlabel"><a xlink:href="dir_000051_000001.xhtml" target="_top" xlink:title="204">
<text text-anchor="middle" x="254.428" y="-118.719" font-family="Helvetica,sans-Serif" font-size="10.00">204</text>
</a>
</g>
</g>
<!-- dir_b88a6d23833cc7e200916be8af5e3057 -->
<g id="node7" class="node"><title>dir_b88a6d23833cc7e200916be8af5e3057</title>
<g id="a_node7"><a xlink:href="dir_b88a6d23833cc7e200916be8af5e3057.xhtml" target="_top" xlink:title="OMP">
<polygon fill="white" stroke="black" points="78,-252 24,-252 24,-216 78,-216 78,-252"/>
<text text-anchor="middle" x="51" y="-231.5" font-family="Helvetica,sans-Serif" font-size="10.00">OMP</text>
</a>
</g>
</g>
<!-- dir_1fb090f0c6070330bfaccc4236d3ca0d&#45;&gt;dir_5815af820a9cc9481f1d0990a0d60286 -->
<g id="edge6" class="edge"><title>dir_1fb090f0c6070330bfaccc4236d3ca0d&#45;&gt;dir_5815af820a9cc9481f1d0990a0d60286</title>
<path fill="none" stroke="black" d="M262.303,-71.6966C270.865,-63.135 281.344,-52.6562 290.696,-43.3045"/>
<polygon fill="black" stroke="black" points="293.299,-45.6503 297.896,-36.1043 288.35,-40.7005 293.299,-45.6503"/>
<g id="a_edge6&#45;headlabel"><a xlink:href="dir_000001_000132.xhtml" target="_top" xlink:title="14">
<text text-anchor="middle" x="292.765" y="-47.6997" font-family="Helvetica,sans-Serif" font-size="10.00">14</text>
</a>
</g>
</g>
</g>
</svg>
