<?xml version="1.0" encoding="UTF-8" standalone="no"?>
<!DOCTYPE svg PUBLIC "-//W3C//DTD SVG 1.1//EN"
 "http://www.w3.org/Graphics/SVG/1.1/DTD/svg11.dtd">
<!-- Generated by graphviz version 2.38.0 (20140413.2041)
 -->
<!-- Title: tests/benchmark/GLES_COMPUTE Pages: 1 -->
<svg width="276pt" height="223pt"
 viewBox="0.00 0.00 276.33 223.00" xmlns="http://www.w3.org/2000/svg" xmlns:xlink="http://www.w3.org/1999/xlink">
<g id="graph0" class="graph" transform="scale(1 1) rotate(0) translate(4 219)">
<title>tests/benchmark/GLES_COMPUTE</title>
<polygon fill="white" stroke="none" points="-4,4 -4,-219 272.328,-219 272.328,4 -4,4"/>
<g id="clust1" class="cluster"><title>clusterdir_4f2df8950dc650bf7cf9176fae02facc</title>
<g id="a_clust1"><a xlink:href="dir_4f2df8950dc650bf7cf9176fae02facc.xhtml" target="_top" xlink:title="benchmark">
<polygon fill="#ddddee" stroke="black" points="99,-136 99,-207 211,-207 211,-136 99,-136"/>
<text text-anchor="middle" x="155" y="-195" font-family="Helvetica,sans-Serif" font-size="10.00">benchmark</text>
</a>
</g>
</g>
<!-- dir_184f72a532a521c8d66e76d860c2010a -->
<g id="node1" class="node"><title>dir_184f72a532a521c8d66e76d860c2010a</title>
<g id="a_node1"><a xlink:href="dir_184f72a532a521c8d66e76d860c2010a.xhtml" target="_top" xlink:title="GLES_COMPUTE">
<polygon fill="#eeeeff" stroke="black" points="202.5,-180 107.5,-180 107.5,-144 202.5,-144 202.5,-180"/>
<text text-anchor="middle" x="155" y="-159.5" font-family="Helvetica,sans-Serif" font-size="10.00">GLES_COMPUTE</text>
</a>
</g>
</g>
<!-- dir_cbdb8362360e11eafe2fa3bc74cf0ffd -->
<g id="node2" class="node"><title>dir_cbdb8362360e11eafe2fa3bc74cf0ffd</title>
<g id="a_node2"><a xlink:href="dir_cbdb8362360e11eafe2fa3bc74cf0ffd.xhtml" target="_top" xlink:title="utils">
<polygon fill="none" stroke="black" points="54,-108 0,-108 0,-72 54,-72 54,-108"/>
<text text-anchor="middle" x="27" y="-87.5" font-family="Helvetica,sans-Serif" font-size="10.00">utils</text>
</a>
</g>
</g>
<!-- dir_184f72a532a521c8d66e76d860c2010a&#45;&gt;dir_cbdb8362360e11eafe2fa3bc74cf0ffd -->
<g id="edge4" class="edge"><title>dir_184f72a532a521c8d66e76d860c2010a&#45;&gt;dir_cbdb8362360e11eafe2fa3bc74cf0ffd</title>
<path fill="none" stroke="black" d="M123.688,-143.876C105.37,-133.858 82.1681,-121.17 63.0847,-110.734"/>
<polygon fill="black" stroke="black" points="64.5399,-107.54 54.0868,-105.813 61.1812,-113.682 64.5399,-107.54"/>
<g id="a_edge4&#45;headlabel"><a xlink:href="dir_000055_000023.xhtml" target="_top" xlink:title="12">
<text text-anchor="middle" x="69.056" y="-104.274" font-family="Helvetica,sans-Serif" font-size="10.00">12</text>
</a>
</g>
</g>
<!-- dir_9e71e2da941d3cafc4d98a9f6ae3de4f -->
<g id="node3" class="node"><title>dir_9e71e2da941d3cafc4d98a9f6ae3de4f</title>
<g id="a_node3"><a xlink:href="dir_9e71e2da941d3cafc4d98a9f6ae3de4f.xhtml" target="_top" xlink:title="framework">
<polygon fill="white" stroke="red" points="139.5,-108 72.5,-108 72.5,-72 139.5,-72 139.5,-108"/>
<text text-anchor="middle" x="106" y="-87.5" font-family="Helvetica,sans-Serif" font-size="10.00">framework</text>
</a>
</g>
</g>
<!-- dir_184f72a532a521c8d66e76d860c2010a&#45;&gt;dir_9e71e2da941d3cafc4d98a9f6ae3de4f -->
<g id="edge5" class="edge"><title>dir_184f72a532a521c8d66e76d860c2010a&#45;&gt;dir_9e71e2da941d3cafc4d98a9f6ae3de4f</title>
<path fill="none" stroke="black" d="M142.888,-143.697C137.132,-135.474 130.138,-125.483 123.794,-116.421"/>
<polygon fill="black" stroke="black" points="126.575,-114.29 117.973,-108.104 120.84,-118.304 126.575,-114.29"/>
<g id="a_edge5&#45;headlabel"><a xlink:href="dir_000055_000022.xhtml" target="_top" xlink:title="24">
<text text-anchor="middle" x="130.962" y="-113.106" font-family="Helvetica,sans-Serif" font-size="10.00">24</text>
</a>
</g>
</g>
<!-- dir_7365e77196b52ca311bb83f181e59b8c -->
<g id="node4" class="node"><title>dir_7365e77196b52ca311bb83f181e59b8c</title>
<g id="a_node4"><a xlink:href="dir_7365e77196b52ca311bb83f181e59b8c.xhtml" target="_top" xlink:title="GLES_COMPUTE">
<polygon fill="none" stroke="black" points="252.5,-108 157.5,-108 157.5,-72 252.5,-72 252.5,-108"/>
<text text-anchor="middle" x="205" y="-87.5" font-family="Helvetica,sans-Serif" font-size="10.00">GLES_COMPUTE</text>
</a>
</g>
</g>
<!-- dir_184f72a532a521c8d66e76d860c2010a&#45;&gt;dir_7365e77196b52ca311bb83f181e59b8c -->
<g id="edge6" class="edge"><title>dir_184f72a532a521c8d66e76d860c2010a&#45;&gt;dir_7365e77196b52ca311bb83f181e59b8c</title>
<path fill="none" stroke="black" d="M167.36,-143.697C173.233,-135.474 180.369,-125.483 186.842,-116.421"/>
<polygon fill="black" stroke="black" points="189.818,-118.276 192.783,-108.104 184.122,-114.207 189.818,-118.276"/>
<g id="a_edge6&#45;headlabel"><a xlink:href="dir_000055_000065.xhtml" target="_top" xlink:title="12">
<text text-anchor="middle" x="190.039" y="-120.351" font-family="Helvetica,sans-Serif" font-size="10.00">12</text>
</a>
</g>
</g>
<!-- dir_214608ef36d61442cb2b0c1c4e9a7def -->
<g id="node5" class="node"><title>dir_214608ef36d61442cb2b0c1c4e9a7def</title>
<g id="a_node5"><a xlink:href="dir_214608ef36d61442cb2b0c1c4e9a7def.xhtml" target="_top" xlink:title="arm_compute">
<polygon fill="white" stroke="red" points="197,-36 113,-36 113,-0 197,-0 197,-36"/>
<text text-anchor="middle" x="155" y="-15.5" font-family="Helvetica,sans-Serif" font-size="10.00">arm_compute</text>
</a>
</g>
</g>
<!-- dir_184f72a532a521c8d66e76d860c2010a&#45;&gt;dir_214608ef36d61442cb2b0c1c4e9a7def -->
<g id="edge7" class="edge"><title>dir_184f72a532a521c8d66e76d860c2010a&#45;&gt;dir_214608ef36d61442cb2b0c1c4e9a7def</title>
<path fill="none" stroke="black" d="M202.679,-149.817C224.754,-141.995 248.937,-129.049 262,-108 270.437,-94.4054 270.437,-85.5946 262,-72 249.724,-52.2195 227.627,-39.5943 206.689,-31.6532"/>
<polygon fill="black" stroke="black" points="207.785,-28.3285 197.19,-28.3253 205.47,-34.9348 207.785,-28.3285"/>
<g id="a_edge7&#45;headlabel"><a xlink:href="dir_000055_000000.xhtml" target="_top" xlink:title="58">
<text text-anchor="middle" x="212.116" y="-24.3373" font-family="Helvetica,sans-Serif" font-size="10.00">58</text>
</a>
</g>
</g>
<!-- dir_cbdb8362360e11eafe2fa3bc74cf0ffd&#45;&gt;dir_214608ef36d61442cb2b0c1c4e9a7def -->
<g id="edge1" class="edge"><title>dir_cbdb8362360e11eafe2fa3bc74cf0ffd&#45;&gt;dir_214608ef36d61442cb2b0c1c4e9a7def</title>
<path fill="none" stroke="black" d="M54.1455,-74.1548C71.8371,-64.4797 95.2283,-51.6877 115.029,-40.859"/>
<polygon fill="black" stroke="black" points="116.747,-43.909 123.841,-36.04 113.388,-37.7674 116.747,-43.909"/>
<g id="a_edge1&#45;headlabel"><a xlink:href="dir_000023_000000.xhtml" target="_top" xlink:title="24">
<text text-anchor="middle" x="114.955" y="-45.6248" font-family="Helvetica,sans-Serif" font-size="10.00">24</text>
</a>
</g>
</g>
<!-- dir_9e71e2da941d3cafc4d98a9f6ae3de4f&#45;&gt;dir_214608ef36d61442cb2b0c1c4e9a7def -->
<g id="edge2" class="edge"><title>dir_9e71e2da941d3cafc4d98a9f6ae3de4f&#45;&gt;dir_214608ef36d61442cb2b0c1c4e9a7def</title>
<path fill="none" stroke="black" d="M118.112,-71.6966C123.868,-63.4741 130.862,-53.4832 137.206,-44.4207"/>
<polygon fill="black" stroke="black" points="140.16,-46.3038 143.027,-36.1043 134.425,-42.2895 140.16,-46.3038"/>
<g id="a_edge2&#45;headlabel"><a xlink:href="dir_000022_000000.xhtml" target="_top" xlink:title="13">
<text text-anchor="middle" x="140.424" y="-48.3768" font-family="Helvetica,sans-Serif" font-size="10.00">13</text>
</a>
</g>
</g>
<!-- dir_7365e77196b52ca311bb83f181e59b8c&#45;&gt;dir_214608ef36d61442cb2b0c1c4e9a7def -->
<g id="edge3" class="edge"><title>dir_7365e77196b52ca311bb83f181e59b8c&#45;&gt;dir_214608ef36d61442cb2b0c1c4e9a7def</title>
<path fill="none" stroke="black" d="M192.64,-71.6966C186.767,-63.4741 179.631,-53.4832 173.158,-44.4207"/>
<polygon fill="black" stroke="black" points="175.878,-42.2073 167.217,-36.1043 170.182,-46.276 175.878,-42.2073"/>
<g id="a_edge3&#45;headlabel"><a xlink:href="dir_000065_000000.xhtml" target="_top" xlink:title="3">
<text text-anchor="middle" x="180.278" y="-40.9821" font-family="Helvetica,sans-Serif" font-size="10.00">3</text>
</a>
</g>
</g>
</g>
</svg>
