<?xml version="1.0" encoding="UTF-8" standalone="no"?>
<!DOCTYPE svg PUBLIC "-//W3C//DTD SVG 1.1//EN"
 "http://www.w3.org/Graphics/SVG/1.1/DTD/svg11.dtd">
<!-- Generated by graphviz version 2.38.0 (20140413.2041)
 -->
<!-- Title: tests/validation/fixtures Pages: 1 -->
<svg width="199pt" height="295pt"
 viewBox="0.00 0.00 198.57 295.00" xmlns="http://www.w3.org/2000/svg" xmlns:xlink="http://www.w3.org/1999/xlink">
<g id="graph0" class="graph" transform="scale(1 1) rotate(0) translate(4 291)">
<title>tests/validation/fixtures</title>
<polygon fill="white" stroke="none" points="-4,4 -4,-291 194.568,-291 194.568,4 -4,4"/>
<g id="clust1" class="cluster"><title>clusterdir_a54a3db5b521d39f12dbe18362fe1216</title>
<g id="a_clust1"><a xlink:href="dir_a54a3db5b521d39f12dbe18362fe1216.xhtml" target="_top" xlink:title="validation">
<polygon fill="#ddddee" stroke="black" points="76,-208 76,-279 146,-279 146,-208 76,-208"/>
<text text-anchor="middle" x="111" y="-267" font-family="Helvetica" font-size="10.00">validation</text>
</a>
</g>
</g>
<!-- dir_b34ff4bf0b006fa2058bebfe917ec172 -->
<g id="node1" class="node"><title>dir_b34ff4bf0b006fa2058bebfe917ec172</title>
<g id="a_node1"><a xlink:href="dir_b34ff4bf0b006fa2058bebfe917ec172.xhtml" target="_top" xlink:title="fixtures">
<polygon fill="#eeeeff" stroke="black" points="138,-252 84,-252 84,-216 138,-216 138,-252"/>
<text text-anchor="middle" x="111" y="-231.5" font-family="Helvetica" font-size="10.00">fixtures</text>
</a>
</g>
</g>
<!-- dir_db9e2079d58d733beb36406e9ab55e7d -->
<g id="node2" class="node"><title>dir_db9e2079d58d733beb36406e9ab55e7d</title>
<g id="a_node2"><a xlink:href="dir_db9e2079d58d733beb36406e9ab55e7d.xhtml" target="_top" xlink:title="CPP">
<polygon fill="none" stroke="black" points="54,-180 0,-180 0,-144 54,-144 54,-180"/>
<text text-anchor="middle" x="27" y="-159.5" font-family="Helvetica" font-size="10.00">CPP</text>
</a>
</g>
</g>
<!-- dir_b34ff4bf0b006fa2058bebfe917ec172&#45;&gt;dir_db9e2079d58d733beb36406e9ab55e7d -->
<g id="edge1" class="edge"><title>dir_b34ff4bf0b006fa2058bebfe917ec172&#45;&gt;dir_db9e2079d58d733beb36406e9ab55e7d</title>
<path fill="none" stroke="black" d="M90.2359,-215.697C79.7586,-206.965 66.8886,-196.24 55.5003,-186.75"/>
<polygon fill="black" stroke="black" points="57.4481,-183.817 47.5252,-180.104 52.9668,-189.195 57.4481,-183.817"/>
<g id="a_edge1&#45;headlabel"><a xlink:href="dir_000048_000021.xhtml" target="_top" xlink:title="40">
<text text-anchor="middle" x="62.0272" y="-181.437" font-family="Helvetica" font-size="10.00">40</text>
</a>
</g>
</g>
<!-- dir_d4d363c0979c7ffda4833df3f93b5668 -->
<g id="node3" class="node"><title>dir_d4d363c0979c7ffda4833df3f93b5668</title>
<g id="a_node3"><a xlink:href="dir_d4d363c0979c7ffda4833df3f93b5668.xhtml" target="_top" xlink:title="arm_compute">
<polygon fill="white" stroke="red" points="120,-108 44,-108 44,-72 120,-72 120,-108"/>
<text text-anchor="middle" x="82" y="-87.5" font-family="Helvetica" font-size="10.00">arm_compute</text>
</a>
</g>
</g>
<!-- dir_b34ff4bf0b006fa2058bebfe917ec172&#45;&gt;dir_d4d363c0979c7ffda4833df3f93b5668 -->
<g id="edge2" class="edge"><title>dir_b34ff4bf0b006fa2058bebfe917ec172&#45;&gt;dir_d4d363c0979c7ffda4833df3f93b5668</title>
<path fill="none" stroke="black" d="M107.502,-215.871C102.538,-191.564 93.3996,-146.819 87.5168,-118.013"/>
<polygon fill="black" stroke="black" points="90.9407,-117.287 85.5105,-108.189 84.0823,-118.687 90.9407,-117.287"/>
<g id="a_edge2&#45;headlabel"><a xlink:href="dir_000048_000000.xhtml" target="_top" xlink:title="84">
<text text-anchor="middle" x="94.4418" y="-117.74" font-family="Helvetica" font-size="10.00">84</text>
</a>
</g>
</g>
<!-- dir_ab9b6c35b410e86d27de6bef9bc73a27 -->
<g id="node4" class="node"><title>dir_ab9b6c35b410e86d27de6bef9bc73a27</title>
<g id="a_node4"><a xlink:href="dir_ab9b6c35b410e86d27de6bef9bc73a27.xhtml" target="_top" xlink:title="support">
<polygon fill="none" stroke="black" points="175,-36 121,-36 121,-0 175,-0 175,-36"/>
<text text-anchor="middle" x="148" y="-15.5" font-family="Helvetica" font-size="10.00">support</text>
</a>
</g>
</g>
<!-- dir_b34ff4bf0b006fa2058bebfe917ec172&#45;&gt;dir_ab9b6c35b410e86d27de6bef9bc73a27 -->
<g id="edge3" class="edge"><title>dir_b34ff4bf0b006fa2058bebfe917ec172&#45;&gt;dir_ab9b6c35b410e86d27de6bef9bc73a27</title>
<path fill="none" stroke="black" d="M138.055,-220.423C153.712,-211.545 172.043,-198.017 181,-180 202.85,-136.05 180.436,-78.4702 163.378,-45.4218"/>
<polygon fill="black" stroke="black" points="166.343,-43.5455 158.531,-36.3887 160.175,-46.8552 166.343,-43.5455"/>
<g id="a_edge3&#45;headlabel"><a xlink:href="dir_000048_000037.xhtml" target="_top" xlink:title="1">
<text text-anchor="middle" x="170.545" y="-42.8705" font-family="Helvetica" font-size="10.00">1</text>
</a>
</g>
</g>
<!-- dir_2dd0e1a78595595cf02ec0d9123d5f3a -->
<g id="node5" class="node"><title>dir_2dd0e1a78595595cf02ec0d9123d5f3a</title>
<g id="a_node5"><a xlink:href="dir_2dd0e1a78595595cf02ec0d9123d5f3a.xhtml" target="_top" xlink:title="framework">
<polygon fill="white" stroke="red" points="172,-180 110,-180 110,-144 172,-144 172,-180"/>
<text text-anchor="middle" x="141" y="-159.5" font-family="Helvetica" font-size="10.00">framework</text>
</a>
</g>
</g>
<!-- dir_b34ff4bf0b006fa2058bebfe917ec172&#45;&gt;dir_2dd0e1a78595595cf02ec0d9123d5f3a -->
<g id="edge4" class="edge"><title>dir_b34ff4bf0b006fa2058bebfe917ec172&#45;&gt;dir_2dd0e1a78595595cf02ec0d9123d5f3a</title>
<path fill="none" stroke="black" d="M118.416,-215.697C121.794,-207.813 125.87,-198.304 129.623,-189.546"/>
<polygon fill="black" stroke="black" points="132.947,-190.675 133.67,-180.104 126.513,-187.917 132.947,-190.675"/>
<g id="a_edge4&#45;headlabel"><a xlink:href="dir_000048_000020.xhtml" target="_top" xlink:title="76">
<text text-anchor="middle" x="134.141" y="-192.597" font-family="Helvetica" font-size="10.00">76</text>
</a>
</g>
</g>
<!-- dir_db9e2079d58d733beb36406e9ab55e7d&#45;&gt;dir_d4d363c0979c7ffda4833df3f93b5668 -->
<g id="edge5" class="edge"><title>dir_db9e2079d58d733beb36406e9ab55e7d&#45;&gt;dir_d4d363c0979c7ffda4833df3f93b5668</title>
<path fill="none" stroke="black" d="M40.5955,-143.697C47.1227,-135.389 55.068,-125.277 62.2466,-116.141"/>
<polygon fill="black" stroke="black" points="65.1347,-118.13 68.5609,-108.104 59.6305,-113.805 65.1347,-118.13"/>
<g id="a_edge5&#45;headlabel"><a xlink:href="dir_000021_000000.xhtml" target="_top" xlink:title="16">
<text text-anchor="middle" x="65.1465" y="-120.211" font-family="Helvetica" font-size="10.00">16</text>
</a>
</g>
</g>
<!-- dir_d4d363c0979c7ffda4833df3f93b5668&#45;&gt;dir_ab9b6c35b410e86d27de6bef9bc73a27 -->
<g id="edge6" class="edge"><title>dir_d4d363c0979c7ffda4833df3f93b5668&#45;&gt;dir_ab9b6c35b410e86d27de6bef9bc73a27</title>
<path fill="none" stroke="black" d="M98.3146,-71.6966C106.307,-63.2198 116.072,-52.8636 124.822,-43.5826"/>
<polygon fill="black" stroke="black" points="127.559,-45.7813 131.873,-36.1043 122.466,-40.9792 127.559,-45.7813"/>
<g id="a_edge6&#45;headlabel"><a xlink:href="dir_000000_000037.xhtml" target="_top" xlink:title="13">
<text text-anchor="middle" x="127.159" y="-47.8445" font-family="Helvetica" font-size="10.00">13</text>
</a>
</g>
</g>
<!-- dir_2dd0e1a78595595cf02ec0d9123d5f3a&#45;&gt;dir_d4d363c0979c7ffda4833df3f93b5668 -->
<g id="edge7" class="edge"><title>dir_2dd0e1a78595595cf02ec0d9123d5f3a&#45;&gt;dir_d4d363c0979c7ffda4833df3f93b5668</title>
<path fill="none" stroke="black" d="M126.416,-143.697C119.342,-135.305 110.717,-125.07 102.955,-115.861"/>
<polygon fill="black" stroke="black" points="105.537,-113.495 96.4165,-108.104 100.185,-118.006 105.537,-113.495"/>
<g id="a_edge7&#45;headlabel"><a xlink:href="dir_000020_000000.xhtml" target="_top" xlink:title="1">
<text text-anchor="middle" x="110.025" y="-111.914" font-family="Helvetica" font-size="10.00">1</text>
</a>
</g>
</g>
<!-- dir_2dd0e1a78595595cf02ec0d9123d5f3a&#45;&gt;dir_ab9b6c35b410e86d27de6bef9bc73a27 -->
<g id="edge8" class="edge"><title>dir_2dd0e1a78595595cf02ec0d9123d5f3a&#45;&gt;dir_ab9b6c35b410e86d27de6bef9bc73a27</title>
<path fill="none" stroke="black" d="M141.844,-143.871C143.037,-119.67 145.229,-75.2108 146.65,-46.3932"/>
<polygon fill="black" stroke="black" points="150.156,-46.3495 147.153,-36.1893 143.164,-46.0048 150.156,-46.3495"/>
<g id="a_edge8&#45;headlabel"><a xlink:href="dir_000020_000037.xhtml" target="_top" xlink:title="8">
<text text-anchor="middle" x="152.815" y="-47.5795" font-family="Helvetica" font-size="10.00">8</text>
</a>
</g>
</g>
</g>
</svg>
