<?xml version="1.0" encoding="UTF-8" standalone="no"?>
<!DOCTYPE svg PUBLIC "-//W3C//DTD SVG 1.1//EN"
 "http://www.w3.org/Graphics/SVG/1.1/DTD/svg11.dtd">
<!-- Generated by graphviz version 2.40.1 (20161225.0304)
 -->
<!-- Title: Graphical Class Hierarchy Pages: 1 -->
<svg width="216pt" height="66pt"
 viewBox="0.00 0.00 216.00 66.00" xmlns="http://www.w3.org/2000/svg" xmlns:xlink="http://www.w3.org/1999/xlink">
<g id="graph0" class="graph" transform="scale(1 1) rotate(0) translate(4 62)">
<title>Graphical Class Hierarchy</title>
<polygon fill="#ffffff" stroke="transparent" points="-4,4 -4,-62 212,-62 212,4 -4,4"/>
<!-- Node0 -->
<g id="node1" class="node">
<title>Node0</title>
<g id="a_node1"><a xlink:href="classarm__compute_1_1_i_memory_pool.xhtml" target="_top" xlink:title="Memory Pool Inteface. ">
<polygon fill="#ffffff" stroke="#000000" points="0,-19.5 0,-38.5 74,-38.5 74,-19.5 0,-19.5"/>
<text text-anchor="middle" x="37" y="-26.5" font-family="Helvetica,sans-Serif" font-size="10.00" fill="#000000">IMemoryPool</text>
</a>
</g>
</g>
<!-- Node1 -->
<g id="node2" class="node">
<title>Node1</title>
<g id="a_node2"><a xlink:href="classarm__compute_1_1_blob_memory_pool.xhtml" target="_top" xlink:title="Blob memory pool. ">
<polygon fill="#ffffff" stroke="#000000" points="113.5,-38.5 113.5,-57.5 204.5,-57.5 204.5,-38.5 113.5,-38.5"/>
<text text-anchor="middle" x="159" y="-45.5" font-family="Helvetica,sans-Serif" font-size="10.00" fill="#000000">BlobMemoryPool</text>
</a>
</g>
</g>
<!-- Node0&#45;&gt;Node1 -->
<g id="edge1" class="edge">
<title>Node0&#45;&gt;Node1</title>
<path fill="none" stroke="#191970" d="M84.3723,-36.3777C93.8975,-37.8611 103.8899,-39.4173 113.3548,-40.8913"/>
<polygon fill="#191970" stroke="#191970" points="84.6864,-32.8845 74.2669,-34.8039 83.6092,-39.8011 84.6864,-32.8845"/>
</g>
<!-- Node2 -->
<g id="node3" class="node">
<title>Node2</title>
<g id="a_node3"><a xlink:href="classarm__compute_1_1_offset_memory_pool.xhtml" target="_top" xlink:title="Offset based memory pool. ">
<polygon fill="#ffffff" stroke="#000000" points="110,-.5 110,-19.5 208,-19.5 208,-.5 110,-.5"/>
<text text-anchor="middle" x="159" y="-7.5" font-family="Helvetica,sans-Serif" font-size="10.00" fill="#000000">OffsetMemoryPool</text>
</a>
</g>
</g>
<!-- Node0&#45;&gt;Node2 -->
<g id="edge2" class="edge">
<title>Node0&#45;&gt;Node2</title>
<path fill="none" stroke="#191970" d="M84.2618,-21.6396C92.6415,-20.3345 101.3861,-18.9727 109.8174,-17.6596"/>
<polygon fill="#191970" stroke="#191970" points="83.6092,-18.1989 74.2669,-23.1961 84.6864,-25.1155 83.6092,-18.1989"/>
</g>
</g>
</svg>
