<?xml version="1.0" encoding="UTF-8" standalone="no"?>
<!DOCTYPE svg PUBLIC "-//W3C//DTD SVG 1.1//EN"
 "http://www.w3.org/Graphics/SVG/1.1/DTD/svg11.dtd">
<!-- Generated by graphviz version 2.38.0 (20140413.2041)
 -->
<!-- Title: Graphical Class Hierarchy Pages: 1 -->
<svg width="341pt" height="603pt"
 viewBox="0.00 0.00 341.00 603.00" xmlns="http://www.w3.org/2000/svg" xmlns:xlink="http://www.w3.org/1999/xlink">
<g id="graph0" class="graph" transform="scale(1 1) rotate(0) translate(4 599)">
<title>Graphical Class Hierarchy</title>
<polygon fill="white" stroke="none" points="-4,4 -4,-599 337,-599 337,4 -4,4"/>
<!-- Node1 -->
<g id="node1" class="node"><title>Node1</title>
<g id="a_node1"><a xlink:href="classarm__compute_1_1test_1_1datasets_1_1_convolution_layer_dataset.xhtml" target="_top" xlink:title="ConvolutionLayerDataset">
<polygon fill="white" stroke="black" points="0,-274.5 0,-293.5 127,-293.5 127,-274.5 0,-274.5"/>
<text text-anchor="middle" x="63.5" y="-281.5" font-family="Helvetica" font-size="10.00">ConvolutionLayerDataset</text>
</a>
</g>
</g>
<!-- Node2 -->
<g id="node2" class="node"><title>Node2</title>
<g id="a_node2"><a xlink:href="classarm__compute_1_1test_1_1datasets_1_1_alex_net_convolution_layer_dataset.xhtml" target="_top" xlink:title="AlexNetConvolutionLayerDataset">
<polygon fill="white" stroke="black" points="167,-575.5 167,-594.5 329,-594.5 329,-575.5 167,-575.5"/>
<text text-anchor="middle" x="248" y="-582.5" font-family="Helvetica" font-size="10.00">AlexNetConvolutionLayerDataset</text>
</a>
</g>
</g>
<!-- Node1&#45;&gt;Node2 -->
<g id="edge1" class="edge"><title>Node1&#45;&gt;Node2</title>
<path fill="none" stroke="midnightblue" d="M65.1666,-303.637C68.0264,-355.085 83.1426,-494.735 163,-566 167.239,-569.783 172.071,-572.862 177.225,-575.361"/>
<polygon fill="midnightblue" stroke="midnightblue" points="68.6584,-303.375 64.7054,-293.545 61.6657,-303.694 68.6584,-303.375"/>
</g>
<!-- Node3 -->
<g id="node3" class="node"><title>Node3</title>
<g id="a_node3"><a xlink:href="classarm__compute_1_1test_1_1datasets_1_1_alex_net_direct_convolution_layer_dataset.xhtml" target="_top" xlink:title="AlexNetDirectConvolution\lLayerDataset">
<polygon fill="white" stroke="black" points="183,-526 183,-556 313,-556 313,-526 183,-526"/>
<text text-anchor="start" x="191" y="-544" font-family="Helvetica" font-size="10.00">AlexNetDirectConvolution</text>
<text text-anchor="middle" x="248" y="-533" font-family="Helvetica" font-size="10.00">LayerDataset</text>
</a>
</g>
</g>
<!-- Node1&#45;&gt;Node3 -->
<g id="edge2" class="edge"><title>Node1&#45;&gt;Node3</title>
<path fill="none" stroke="midnightblue" d="M67.1526,-303.713C74.204,-348.295 97.5667,-457.527 163,-516 168.786,-521.171 175.601,-525.273 182.804,-528.528"/>
<polygon fill="midnightblue" stroke="midnightblue" points="70.5853,-302.999 65.6649,-293.616 63.6601,-304.02 70.5853,-302.999"/>
</g>
<!-- Node4 -->
<g id="node4" class="node"><title>Node4</title>
<g id="a_node4"><a xlink:href="classarm__compute_1_1test_1_1datasets_1_1_direct_convolution_layer_dataset.xhtml" target="_top" xlink:title="Stripped down version of AlexNet as not all kernel sizes and strides are supported. ">
<polygon fill="white" stroke="black" points="171.5,-487.5 171.5,-506.5 324.5,-506.5 324.5,-487.5 171.5,-487.5"/>
<text text-anchor="middle" x="248" y="-494.5" font-family="Helvetica" font-size="10.00">DirectConvolutionLayerDataset</text>
</a>
</g>
</g>
<!-- Node1&#45;&gt;Node4 -->
<g id="edge3" class="edge"><title>Node1&#45;&gt;Node4</title>
<path fill="none" stroke="midnightblue" d="M68.6263,-303.715C77.9882,-343.313 104.707,-432.598 163,-478 167.954,-481.859 173.544,-484.963 179.427,-487.456"/>
<polygon fill="midnightblue" stroke="midnightblue" points="72.038,-302.933 66.4342,-293.941 65.2077,-304.465 72.038,-302.933"/>
</g>
<!-- Node5 -->
<g id="node5" class="node"><title>Node5</title>
<g id="a_node5"><a xlink:href="classarm__compute_1_1test_1_1datasets_1_1_goog_le_net_inception_v1_convolution_layer_dataset.xhtml" target="_top" xlink:title="GoogLeNetInceptionV1Convolution\lLayerDataset">
<polygon fill="white" stroke="black" points="163,-438 163,-468 333,-468 333,-438 163,-438"/>
<text text-anchor="start" x="171" y="-456" font-family="Helvetica" font-size="10.00">GoogLeNetInceptionV1Convolution</text>
<text text-anchor="middle" x="248" y="-445" font-family="Helvetica" font-size="10.00">LayerDataset</text>
</a>
</g>
</g>
<!-- Node1&#45;&gt;Node5 -->
<g id="edge4" class="edge"><title>Node1&#45;&gt;Node5</title>
<path fill="none" stroke="midnightblue" d="M72.2839,-303.166C85.9282,-334.329 117.141,-395.83 163,-429 167.793,-432.467 173.075,-435.434 178.586,-437.974"/>
<polygon fill="midnightblue" stroke="midnightblue" points="75.4587,-301.687 68.3345,-293.845 69.0135,-304.418 75.4587,-301.687"/>
</g>
<!-- Node6 -->
<g id="node6" class="node"><title>Node6</title>
<g id="a_node6"><a xlink:href="classarm__compute_1_1test_1_1datasets_1_1_goog_le_net_inception_v1_direct_convolution_layer_dataset.xhtml" target="_top" xlink:title="GoogLeNetInceptionV1Direct\lConvolutionLayerDataset">
<polygon fill="white" stroke="black" points="176,-389 176,-419 320,-419 320,-389 176,-389"/>
<text text-anchor="start" x="184" y="-407" font-family="Helvetica" font-size="10.00">GoogLeNetInceptionV1Direct</text>
<text text-anchor="middle" x="248" y="-396" font-family="Helvetica" font-size="10.00">ConvolutionLayerDataset</text>
</a>
</g>
</g>
<!-- Node1&#45;&gt;Node6 -->
<g id="edge5" class="edge"><title>Node1&#45;&gt;Node6</title>
<path fill="none" stroke="midnightblue" d="M78.065,-301.802C95.4477,-323.403 127.595,-359.473 163,-380 168.904,-383.423 175.329,-386.385 181.907,-388.941"/>
<polygon fill="midnightblue" stroke="midnightblue" points="80.6849,-299.472 71.751,-293.776 75.1832,-303.8 80.6849,-299.472"/>
</g>
<!-- Node7 -->
<g id="node7" class="node"><title>Node7</title>
<g id="a_node7"><a xlink:href="classarm__compute_1_1test_1_1datasets_1_1_goog_le_net_inception_v4_convolution_layer_dataset.xhtml" target="_top" xlink:title="GoogLeNetInceptionV4Convolution\lLayerDataset">
<polygon fill="white" stroke="black" points="163,-340 163,-370 333,-370 333,-340 163,-340"/>
<text text-anchor="start" x="171" y="-358" font-family="Helvetica" font-size="10.00">GoogLeNetInceptionV4Convolution</text>
<text text-anchor="middle" x="248" y="-347" font-family="Helvetica" font-size="10.00">LayerDataset</text>
</a>
</g>
</g>
<!-- Node1&#45;&gt;Node7 -->
<g id="edge6" class="edge"><title>Node1&#45;&gt;Node7</title>
<path fill="none" stroke="midnightblue" d="M91.1718,-298.221C110.694,-308.259 138.024,-321.549 163,-331 171.369,-334.167 180.343,-337.149 189.197,-339.863"/>
<polygon fill="midnightblue" stroke="midnightblue" points="92.7468,-295.096 82.26,-293.586 89.5168,-301.306 92.7468,-295.096"/>
</g>
<!-- Node8 -->
<g id="node8" class="node"><title>Node8</title>
<g id="a_node8"><a xlink:href="classarm__compute_1_1test_1_1datasets_1_1_goog_le_net_inception_v4_direct_convolution_layer_dataset.xhtml" target="_top" xlink:title="A subset of GoogLeNetInceptionV4 convolution layers with filter dimensions supported by DirectConvolu...">
<polygon fill="white" stroke="black" points="176,-291 176,-321 320,-321 320,-291 176,-291"/>
<text text-anchor="start" x="184" y="-309" font-family="Helvetica" font-size="10.00">GoogLeNetInceptionV4Direct</text>
<text text-anchor="middle" x="248" y="-298" font-family="Helvetica" font-size="10.00">ConvolutionLayerDataset</text>
</a>
</g>
</g>
<!-- Node1&#45;&gt;Node8 -->
<g id="edge7" class="edge"><title>Node1&#45;&gt;Node8</title>
<path fill="none" stroke="midnightblue" d="M137.124,-292.755C149.844,-294.288 163.068,-295.882 175.751,-297.411"/>
<polygon fill="midnightblue" stroke="midnightblue" points="137.398,-289.262 127.051,-291.54 136.56,-296.212 137.398,-289.262"/>
</g>
<!-- Node9 -->
<g id="node9" class="node"><title>Node9</title>
<g id="a_node9"><a xlink:href="classarm__compute_1_1test_1_1datasets_1_1_large_convolution_layer_dataset.xhtml" target="_top" xlink:title="LargeConvolutionLayerDataset">
<polygon fill="white" stroke="black" points="172.5,-252.5 172.5,-271.5 323.5,-271.5 323.5,-252.5 172.5,-252.5"/>
<text text-anchor="middle" x="248" y="-259.5" font-family="Helvetica" font-size="10.00">LargeConvolutionLayerDataset</text>
</a>
</g>
</g>
<!-- Node1&#45;&gt;Node9 -->
<g id="edge8" class="edge"><title>Node1&#45;&gt;Node9</title>
<path fill="none" stroke="midnightblue" d="M137.087,-275.25C148.652,-273.856 160.634,-272.411 172.248,-271.011"/>
<polygon fill="midnightblue" stroke="midnightblue" points="136.56,-271.788 127.051,-276.46 137.398,-278.738 136.56,-271.788"/>
</g>
<!-- Node10 -->
<g id="node10" class="node"><title>Node10</title>
<g id="a_node10"><a xlink:href="classarm__compute_1_1test_1_1datasets_1_1_le_net5_convolution_layer_dataset.xhtml" target="_top" xlink:title="LeNet5ConvolutionLayerDataset">
<polygon fill="white" stroke="black" points="169,-214.5 169,-233.5 327,-233.5 327,-214.5 169,-214.5"/>
<text text-anchor="middle" x="248" y="-221.5" font-family="Helvetica" font-size="10.00">LeNet5ConvolutionLayerDataset</text>
</a>
</g>
</g>
<!-- Node1&#45;&gt;Node10 -->
<g id="edge9" class="edge"><title>Node1&#45;&gt;Node10</title>
<path fill="none" stroke="midnightblue" d="M93.6751,-270.299C113.022,-261.604 139.145,-250.6 163,-243 174.254,-239.414 186.562,-236.232 198.201,-233.546"/>
<polygon fill="midnightblue" stroke="midnightblue" points="92.1432,-267.151 84.4932,-274.481 95.0446,-273.521 92.1432,-267.151"/>
</g>
<!-- Node11 -->
<g id="node11" class="node"><title>Node11</title>
<g id="a_node11"><a xlink:href="classarm__compute_1_1test_1_1datasets_1_1_small_convolution_layer_dataset.xhtml" target="_top" xlink:title="SmallConvolutionLayerDataset">
<polygon fill="white" stroke="black" points="172,-176.5 172,-195.5 324,-195.5 324,-176.5 172,-176.5"/>
<text text-anchor="middle" x="248" y="-183.5" font-family="Helvetica" font-size="10.00">SmallConvolutionLayerDataset</text>
</a>
</g>
</g>
<!-- Node1&#45;&gt;Node11 -->
<g id="edge10" class="edge"><title>Node1&#45;&gt;Node11</title>
<path fill="none" stroke="midnightblue" d="M81.0073,-266.74C99.3382,-248.608 130.636,-220.602 163,-205 171.081,-201.104 179.988,-197.991 188.891,-195.507"/>
<polygon fill="midnightblue" stroke="midnightblue" points="78.0798,-264.723 73.5401,-274.296 83.0587,-269.643 78.0798,-264.723"/>
</g>
<!-- Node12 -->
<g id="node12" class="node"><title>Node12</title>
<g id="a_node12"><a xlink:href="classarm__compute_1_1test_1_1datasets_1_1_squeeze_net_convolution_layer_dataset.xhtml" target="_top" xlink:title="SqueezeNetConvolutionLayer\lDataset">
<polygon fill="white" stroke="black" points="175,-127 175,-157 321,-157 321,-127 175,-127"/>
<text text-anchor="start" x="183" y="-145" font-family="Helvetica" font-size="10.00">SqueezeNetConvolutionLayer</text>
<text text-anchor="middle" x="248" y="-134" font-family="Helvetica" font-size="10.00">Dataset</text>
</a>
</g>
</g>
<!-- Node1&#45;&gt;Node12 -->
<g id="edge11" class="edge"><title>Node1&#45;&gt;Node12</title>
<path fill="none" stroke="midnightblue" d="M75.2893,-265.35C91.2073,-239.472 123.419,-192.941 163,-167 168.854,-163.163 175.316,-159.898 181.979,-157.123"/>
<polygon fill="midnightblue" stroke="midnightblue" points="72.1418,-263.793 70.0049,-274.17 78.1467,-267.391 72.1418,-263.793"/>
</g>
<!-- Node13 -->
<g id="node13" class="node"><title>Node13</title>
<g id="a_node13"><a xlink:href="classarm__compute_1_1test_1_1datasets_1_1_v_g_g16_convolution_layer_dataset.xhtml" target="_top" xlink:title="VGG16ConvolutionLayerDataset">
<polygon fill="white" stroke="black" points="168.5,-88.5 168.5,-107.5 327.5,-107.5 327.5,-88.5 168.5,-88.5"/>
<text text-anchor="middle" x="248" y="-95.5" font-family="Helvetica" font-size="10.00">VGG16ConvolutionLayerDataset</text>
</a>
</g>
</g>
<!-- Node1&#45;&gt;Node13 -->
<g id="edge12" class="edge"><title>Node1&#45;&gt;Node13</title>
<path fill="none" stroke="midnightblue" d="M70.4672,-264.333C82.1794,-229.205 111.615,-155.821 163,-118 168.916,-113.646 175.645,-110.226 182.658,-107.541"/>
<polygon fill="midnightblue" stroke="midnightblue" points="66.9921,-263.71 67.2819,-274.301 73.6599,-265.841 66.9921,-263.71"/>
</g>
<!-- Node14 -->
<g id="node14" class="node"><title>Node14</title>
<g id="a_node14"><a xlink:href="classarm__compute_1_1test_1_1datasets_1_1_v_g_g16_direct_convolution_layer_dataset.xhtml" target="_top" xlink:title="VGG16DirectConvolutionLayer\lDataset">
<polygon fill="white" stroke="black" points="172.5,-39 172.5,-69 323.5,-69 323.5,-39 172.5,-39"/>
<text text-anchor="start" x="180.5" y="-57" font-family="Helvetica" font-size="10.00">VGG16DirectConvolutionLayer</text>
<text text-anchor="middle" x="248" y="-46" font-family="Helvetica" font-size="10.00">Dataset</text>
</a>
</g>
</g>
<!-- Node1&#45;&gt;Node14 -->
<g id="edge13" class="edge"><title>Node1&#45;&gt;Node14</title>
<path fill="none" stroke="midnightblue" d="M68.3604,-264.36C77.4033,-223.607 103.828,-129.457 163,-79 167.515,-75.1497 172.604,-71.8923 177.988,-69.1365"/>
<polygon fill="midnightblue" stroke="midnightblue" points="64.935,-263.642 66.2996,-274.148 71.7848,-265.084 64.935,-263.642"/>
</g>
<!-- Node15 -->
<g id="node15" class="node"><title>Node15</title>
<g id="a_node15"><a xlink:href="classarm__compute_1_1test_1_1datasets_1_1_y_o_l_o_v2_convolution_layer_dataset.xhtml" target="_top" xlink:title="YOLOV2ConvolutionLayerDataset">
<polygon fill="white" stroke="black" points="165,-0.5 165,-19.5 331,-19.5 331,-0.5 165,-0.5"/>
<text text-anchor="middle" x="248" y="-7.5" font-family="Helvetica" font-size="10.00">YOLOV2ConvolutionLayerDataset</text>
</a>
</g>
</g>
<!-- Node1&#45;&gt;Node15 -->
<g id="edge14" class="edge"><title>Node1&#45;&gt;Node15</title>
<path fill="none" stroke="midnightblue" d="M66.0648,-264.438C70.9755,-216.661 90.4069,-93.323 163,-30 167.971,-25.6641 173.714,-22.2278 179.818,-19.51"/>
<polygon fill="midnightblue" stroke="midnightblue" points="62.5792,-264.122 65.1439,-274.402 69.5495,-264.766 62.5792,-264.122"/>
</g>
</g>
</svg>
