<?xml version="1.0" encoding="UTF-8" standalone="no"?>
<!DOCTYPE svg PUBLIC "-//W3C//DTD SVG 1.1//EN"
 "http://www.w3.org/Graphics/SVG/1.1/DTD/svg11.dtd">
<!-- Generated by graphviz version 2.38.0 (20140413.2041)
 -->
<!-- Title: Graphical Class Hierarchy Pages: 1 -->
<svg width="310pt" height="28pt"
 viewBox="0.00 0.00 310.00 28.00" xmlns="http://www.w3.org/2000/svg" xmlns:xlink="http://www.w3.org/1999/xlink">
<g id="graph0" class="graph" transform="scale(1 1) rotate(0) translate(4 24)">
<title>Graphical Class Hierarchy</title>
<polygon fill="white" stroke="none" points="-4,4 -4,-24 306,-24 306,4 -4,4"/>
<!-- Node0 -->
<g id="node1" class="node"><title>Node0</title>
<g id="a_node1"><a xlink:href="classarm__compute_1_1misc_1_1_i_cloneable.xhtml" target="_top" xlink:title=" ">
<polygon fill="white" stroke="black" points="-2.84217e-14,-0.5 -2.84217e-14,-19.5 169,-19.5 169,-0.5 -2.84217e-14,-0.5"/>
<text text-anchor="middle" x="84.5" y="-7.5" font-family="Helvetica,sans-Serif" font-size="10.00">ICloneable&lt; TensorDescriptor &gt;</text>
</a>
</g>
</g>
<!-- Node1 -->
<g id="node2" class="node"><title>Node1</title>
<g id="a_node2"><a xlink:href="structarm__compute_1_1graph_1_1_tensor_descriptor.xhtml" target="_top" xlink:title="Tensor metadata class.">
<polygon fill="white" stroke="black" points="205,-0.5 205,-19.5 302,-19.5 302,-0.5 205,-0.5"/>
<text text-anchor="middle" x="253.5" y="-7.5" font-family="Helvetica,sans-Serif" font-size="10.00">TensorDescriptor</text>
</a>
</g>
</g>
<!-- Node0&#45;&gt;Node1 -->
<g id="edge1" class="edge"><title>Node0&#45;&gt;Node1</title>
<path fill="none" stroke="midnightblue" d="M179.743,-10C188.435,-10 196.969,-10 204.96,-10"/>
<polygon fill="midnightblue" stroke="midnightblue" points="179.489,-6.5001 169.489,-10 179.489,-13.5001 179.489,-6.5001"/>
</g>
</g>
</svg>
