<?xml version="1.0" encoding="UTF-8" standalone="no"?>
<!DOCTYPE svg PUBLIC "-//W3C//DTD SVG 1.1//EN"
 "http://www.w3.org/Graphics/SVG/1.1/DTD/svg11.dtd">
<!-- Generated by graphviz version 2.38.0 (20140413.2041)
 -->
<!-- Title: Graphical Class Hierarchy Pages: 1 -->
<svg width="282pt" height="78pt"
 viewBox="0.00 0.00 282.00 77.50" xmlns="http://www.w3.org/2000/svg" xmlns:xlink="http://www.w3.org/1999/xlink">
<g id="graph0" class="graph" transform="scale(1 1) rotate(0) translate(4 73.5)">
<title>Graphical Class Hierarchy</title>
<polygon fill="white" stroke="none" points="-4,4 -4,-73.5 278,-73.5 278,4 -4,4"/>
<!-- Node1 -->
<g id="node1" class="node"><title>Node1</title>
<g id="a_node1"><a xlink:href="classarm__compute_1_1test_1_1framework_1_1_test_case_factory.xhtml" target="_top" xlink:title="Abstract factory class to create test cases. ">
<polygon fill="white" stroke="black" points="0,-22.5 0,-41.5 92,-41.5 92,-22.5 0,-22.5"/>
<text text-anchor="middle" x="46" y="-29.5" font-family="Helvetica" font-size="10.00">TestCaseFactory</text>
</a>
</g>
</g>
<!-- Node2 -->
<g id="node2" class="node"><title>Node2</title>
<g id="a_node2"><a xlink:href="classarm__compute_1_1test_1_1framework_1_1_data_test_case_factory.xhtml" target="_top" xlink:title="DataTestCaseFactory\l\&lt; T, D \&gt;">
<polygon fill="white" stroke="black" points="144.5,-39 144.5,-69 257.5,-69 257.5,-39 144.5,-39"/>
<text text-anchor="start" x="152.5" y="-57" font-family="Helvetica" font-size="10.00">DataTestCaseFactory</text>
<text text-anchor="middle" x="201" y="-46" font-family="Helvetica" font-size="10.00">&lt; T, D &gt;</text>
</a>
</g>
</g>
<!-- Node1&#45;&gt;Node2 -->
<g id="edge1" class="edge"><title>Node1&#45;&gt;Node2</title>
<path fill="none" stroke="midnightblue" d="M102.325,-39.9552C116.017,-41.9241 130.692,-44.0342 144.398,-46.005"/>
<polygon fill="midnightblue" stroke="midnightblue" points="102.474,-36.4407 92.0775,-38.4817 101.478,-43.3695 102.474,-36.4407"/>
</g>
<!-- Node3 -->
<g id="node3" class="node"><title>Node3</title>
<g id="a_node3"><a xlink:href="classarm__compute_1_1test_1_1framework_1_1_simple_test_case_factory.xhtml" target="_top" xlink:title="Implementation of a test case factory to create non&#45;data test cases. ">
<polygon fill="white" stroke="black" points="128,-0.5 128,-19.5 274,-19.5 274,-0.5 128,-0.5"/>
<text text-anchor="middle" x="201" y="-7.5" font-family="Helvetica" font-size="10.00">SimpleTestCaseFactory&lt; T &gt;</text>
</a>
</g>
</g>
<!-- Node1&#45;&gt;Node3 -->
<g id="edge2" class="edge"><title>Node1&#45;&gt;Node3</title>
<path fill="none" stroke="midnightblue" d="M102.108,-24.076C112.355,-22.6026 123.158,-21.0492 133.698,-19.5336"/>
<polygon fill="midnightblue" stroke="midnightblue" points="101.478,-20.6305 92.0775,-25.5183 102.474,-27.5593 101.478,-20.6305"/>
</g>
</g>
</svg>
