<?xml version="1.0" encoding="UTF-8" standalone="no"?>
<!DOCTYPE svg PUBLIC "-//W3C//DTD SVG 1.1//EN"
 "http://www.w3.org/Graphics/SVG/1.1/DTD/svg11.dtd">
<!-- Generated by graphviz version 2.38.0 (20140413.2041)
 -->
<!-- Title: Graphical Class Hierarchy Pages: 1 -->
<svg width="352pt" height="235pt"
 viewBox="0.00 0.00 352.00 235.00" xmlns="http://www.w3.org/2000/svg" xmlns:xlink="http://www.w3.org/1999/xlink">
<g id="graph0" class="graph" transform="scale(1 1) rotate(0) translate(4 231)">
<title>Graphical Class Hierarchy</title>
<polygon fill="white" stroke="none" points="-4,4 -4,-231 348,-231 348,4 -4,4"/>
<!-- Node1 -->
<g id="node1" class="node"><title>Node1</title>
<g id="a_node1"><a xlink:href="classarm__compute_1_1test_1_1datasets_1_1_depthwise_convolution_dataset.xhtml" target="_top" xlink:title="DepthwiseConvolutionDataset">
<polygon fill="white" stroke="black" points="0,-104 0,-123 149,-123 149,-104 0,-104"/>
<text text-anchor="middle" x="74.5" y="-111" font-family="Helvetica" font-size="10.00">DepthwiseConvolutionDataset</text>
</a>
</g>
</g>
<!-- Node2 -->
<g id="node2" class="node"><title>Node2</title>
<g id="a_node2"><a xlink:href="classarm__compute_1_1test_1_1datasets_1_1_large_depthwise_convolution_dataset.xhtml" target="_top" xlink:title="LargeDepthwiseConvolution\lDataset">
<polygon fill="white" stroke="black" points="195,-196.5 195,-226.5 334,-226.5 334,-196.5 195,-196.5"/>
<text text-anchor="start" x="203" y="-214.5" font-family="Helvetica" font-size="10.00">LargeDepthwiseConvolution</text>
<text text-anchor="middle" x="264.5" y="-203.5" font-family="Helvetica" font-size="10.00">Dataset</text>
</a>
</g>
</g>
<!-- Node1&#45;&gt;Node2 -->
<g id="edge1" class="edge"><title>Node1&#45;&gt;Node2</title>
<path fill="none" stroke="midnightblue" d="M95.1482,-129.444C116.26,-145.917 151.334,-171.424 185,-187.5 191.945,-190.816 199.452,-193.801 206.976,-196.447"/>
<polygon fill="midnightblue" stroke="midnightblue" points="97.2704,-126.66 87.2571,-123.198 92.9259,-132.149 97.2704,-126.66"/>
</g>
<!-- Node3 -->
<g id="node3" class="node"><title>Node3</title>
<g id="a_node3"><a xlink:href="classarm__compute_1_1test_1_1datasets_1_1_large_depthwise_convolution_dataset3x3.xhtml" target="_top" xlink:title="LargeDepthwiseConvolution\lDataset3x3">
<polygon fill="white" stroke="black" points="195,-147.5 195,-177.5 334,-177.5 334,-147.5 195,-147.5"/>
<text text-anchor="start" x="203" y="-165.5" font-family="Helvetica" font-size="10.00">LargeDepthwiseConvolution</text>
<text text-anchor="middle" x="264.5" y="-154.5" font-family="Helvetica" font-size="10.00">Dataset3x3</text>
</a>
</g>
</g>
<!-- Node1&#45;&gt;Node3 -->
<g id="edge2" class="edge"><title>Node1&#45;&gt;Node3</title>
<path fill="none" stroke="midnightblue" d="M121.931,-125.602C147.277,-132.208 178.889,-140.447 205.807,-147.463"/>
<polygon fill="midnightblue" stroke="midnightblue" points="122.754,-122.199 112.195,-123.064 120.989,-128.973 122.754,-122.199"/>
</g>
<!-- Node4 -->
<g id="node4" class="node"><title>Node4</title>
<g id="a_node4"><a xlink:href="classarm__compute_1_1test_1_1datasets_1_1_mobile_net_depthwise_convolution_dataset.xhtml" target="_top" xlink:title="MobileNetDepthwiseConvolution\lDataset">
<polygon fill="white" stroke="black" points="185,-98.5 185,-128.5 344,-128.5 344,-98.5 185,-98.5"/>
<text text-anchor="start" x="193" y="-116.5" font-family="Helvetica" font-size="10.00">MobileNetDepthwiseConvolution</text>
<text text-anchor="middle" x="264.5" y="-105.5" font-family="Helvetica" font-size="10.00">Dataset</text>
</a>
</g>
</g>
<!-- Node1&#45;&gt;Node4 -->
<g id="edge3" class="edge"><title>Node1&#45;&gt;Node4</title>
<path fill="none" stroke="midnightblue" d="M159.524,-113.5C167.997,-113.5 176.579,-113.5 184.99,-113.5"/>
<polygon fill="midnightblue" stroke="midnightblue" points="159.263,-110 149.263,-113.5 159.263,-117 159.263,-110"/>
</g>
<!-- Node5 -->
<g id="node5" class="node"><title>Node5</title>
<g id="a_node5"><a xlink:href="classarm__compute_1_1test_1_1datasets_1_1_small_depthwise_convolution_dataset.xhtml" target="_top" xlink:title="SmallDepthwiseConvolution\lDataset">
<polygon fill="white" stroke="black" points="194.5,-49.5 194.5,-79.5 334.5,-79.5 334.5,-49.5 194.5,-49.5"/>
<text text-anchor="start" x="202.5" y="-67.5" font-family="Helvetica" font-size="10.00">SmallDepthwiseConvolution</text>
<text text-anchor="middle" x="264.5" y="-56.5" font-family="Helvetica" font-size="10.00">Dataset</text>
</a>
</g>
</g>
<!-- Node1&#45;&gt;Node5 -->
<g id="edge4" class="edge"><title>Node1&#45;&gt;Node5</title>
<path fill="none" stroke="midnightblue" d="M121.931,-101.398C147.277,-94.792 178.889,-86.5529 205.807,-79.537"/>
<polygon fill="midnightblue" stroke="midnightblue" points="120.989,-98.0269 112.195,-103.936 122.754,-104.801 120.989,-98.0269"/>
</g>
<!-- Node6 -->
<g id="node6" class="node"><title>Node6</title>
<g id="a_node6"><a xlink:href="classarm__compute_1_1test_1_1datasets_1_1_small_depthwise_convolution_dataset3x3.xhtml" target="_top" xlink:title="SmallDepthwiseConvolution\lDataset3x3">
<polygon fill="white" stroke="black" points="194.5,-0.5 194.5,-30.5 334.5,-30.5 334.5,-0.5 194.5,-0.5"/>
<text text-anchor="start" x="202.5" y="-18.5" font-family="Helvetica" font-size="10.00">SmallDepthwiseConvolution</text>
<text text-anchor="middle" x="264.5" y="-7.5" font-family="Helvetica" font-size="10.00">Dataset3x3</text>
</a>
</g>
</g>
<!-- Node1&#45;&gt;Node6 -->
<g id="edge5" class="edge"><title>Node1&#45;&gt;Node6</title>
<path fill="none" stroke="midnightblue" d="M95.2219,-97.8667C116.395,-81.6953 151.519,-56.5973 185,-40.5 192.605,-36.8434 200.875,-33.5444 209.098,-30.6324"/>
<polygon fill="midnightblue" stroke="midnightblue" points="93.0701,-95.1062 87.3056,-103.996 97.3554,-100.641 93.0701,-95.1062"/>
</g>
</g>
</svg>
