<?xml version="1.0" encoding="UTF-8" standalone="no"?>
<!DOCTYPE svg PUBLIC "-//W3C//DTD SVG 1.1//EN"
 "http://www.w3.org/Graphics/SVG/1.1/DTD/svg11.dtd">
<!-- Generated by graphviz version 2.38.0 (20140413.2041)
 -->
<!-- Title: Graphical Class Hierarchy Pages: 1 -->
<svg width="439pt" height="356pt"
 viewBox="0.00 0.00 439.00 355.50" xmlns="http://www.w3.org/2000/svg" xmlns:xlink="http://www.w3.org/1999/xlink">
<g id="graph0" class="graph" transform="scale(1 1) rotate(0) translate(4 351.5)">
<title>Graphical Class Hierarchy</title>
<polygon fill="white" stroke="none" points="-4,4 -4,-351.5 435,-351.5 435,4 -4,4"/>
<!-- Node1 -->
<g id="node1" class="node"><title>Node1</title>
<g id="a_node1"><a xlink:href="classarm__compute_1_1test_1_1framework_1_1_option.xhtml" target="_top" xlink:title="Abstract base class for a command line option. ">
<polygon fill="white" stroke="black" points="0,-164 0,-183 48,-183 48,-164 0,-164"/>
<text text-anchor="middle" x="24" y="-171" font-family="Helvetica,sans-Serif" font-size="10.00">Option</text>
</a>
</g>
</g>
<!-- Node2 -->
<g id="node2" class="node"><title>Node2</title>
<g id="a_node2"><a xlink:href="classarm__compute_1_1test_1_1framework_1_1_enum_list_option.xhtml" target="_top" xlink:title="Implementation of an option that accepts any number of values from a fixed set. ">
<polygon fill="white" stroke="black" points="104.5,-328 104.5,-347 224.5,-347 224.5,-328 104.5,-328"/>
<text text-anchor="middle" x="164.5" y="-335" font-family="Helvetica,sans-Serif" font-size="10.00">EnumListOption&lt; T &gt;</text>
</a>
</g>
</g>
<!-- Node1&#45;&gt;Node2 -->
<g id="edge1" class="edge"><title>Node1&#45;&gt;Node2</title>
<path fill="none" stroke="midnightblue" d="M27.3443,-193.542C32.1248,-225.031 45.9854,-285.86 84,-318.5 89.9216,-323.584 96.9684,-327.361 104.383,-330.157"/>
<polygon fill="midnightblue" stroke="midnightblue" points="30.7777,-192.814 25.9659,-183.375 23.8411,-193.755 30.7777,-192.814"/>
</g>
<!-- Node3 -->
<g id="node3" class="node"><title>Node3</title>
<g id="a_node3"><a xlink:href="classarm__compute_1_1test_1_1framework_1_1_list_option.xhtml" target="_top" xlink:title="Implementation of an option that accepts any number of values. ">
<polygon fill="white" stroke="black" points="118.5,-290 118.5,-309 210.5,-309 210.5,-290 118.5,-290"/>
<text text-anchor="middle" x="164.5" y="-297" font-family="Helvetica,sans-Serif" font-size="10.00">ListOption&lt; T &gt;</text>
</a>
</g>
</g>
<!-- Node1&#45;&gt;Node3 -->
<g id="edge2" class="edge"><title>Node1&#45;&gt;Node3</title>
<path fill="none" stroke="midnightblue" d="M30.4341,-193.12C38.205,-217.423 54.8734,-258.324 84,-280.5 93.8229,-287.979 106.151,-292.569 118.147,-295.37"/>
<polygon fill="midnightblue" stroke="midnightblue" points="33.6995,-191.823 27.477,-183.248 26.9938,-193.832 33.6995,-191.823"/>
</g>
<!-- Node4 -->
<g id="node4" class="node"><title>Node4</title>
<g id="a_node4"><a xlink:href="classarm__compute_1_1test_1_1framework_1_1_simple_option.xhtml" target="_top" xlink:title="Implementation of an option that accepts a single value. ">
<polygon fill="white" stroke="black" points="110,-252 110,-271 219,-271 219,-252 110,-252"/>
<text text-anchor="middle" x="164.5" y="-259" font-family="Helvetica,sans-Serif" font-size="10.00">SimpleOption&lt; T &gt;</text>
</a>
</g>
</g>
<!-- Node1&#45;&gt;Node4 -->
<g id="edge3" class="edge"><title>Node1&#45;&gt;Node4</title>
<path fill="none" stroke="midnightblue" d="M36.1047,-192.104C46.5115,-207.909 63.5126,-229.968 84,-242.5 91.8686,-247.313 100.867,-250.907 109.913,-253.591"/>
<polygon fill="midnightblue" stroke="midnightblue" points="38.7957,-189.809 30.505,-183.213 32.8725,-193.54 38.7957,-189.809"/>
</g>
<!-- Node6 -->
<g id="node6" class="node"><title>Node6</title>
<g id="a_node6"><a xlink:href="classarm__compute_1_1test_1_1framework_1_1_enum_list_option.xhtml" target="_top" xlink:title="EnumListOption\&lt; Instruments\lDescription \&gt;">
<polygon fill="white" stroke="black" points="84,-202.5 84,-232.5 245,-232.5 245,-202.5 84,-202.5"/>
<text text-anchor="start" x="92" y="-220.5" font-family="Helvetica,sans-Serif" font-size="10.00">EnumListOption&lt; Instruments</text>
<text text-anchor="middle" x="164.5" y="-209.5" font-family="Helvetica,sans-Serif" font-size="10.00">Description &gt;</text>
</a>
</g>
</g>
<!-- Node1&#45;&gt;Node6 -->
<g id="edge5" class="edge"><title>Node1&#45;&gt;Node6</title>
<path fill="none" stroke="midnightblue" d="M57.8613,-184.127C66.3709,-186.866 75.5242,-189.803 84,-192.5 94.2024,-195.747 105.149,-199.206 115.558,-202.482"/>
<polygon fill="midnightblue" stroke="midnightblue" points="58.8382,-180.764 48.2466,-181.027 56.6902,-187.427 58.8382,-180.764"/>
</g>
<!-- Node7 -->
<g id="node7" class="node"><title>Node7</title>
<g id="a_node7"><a xlink:href="classarm__compute_1_1test_1_1framework_1_1_simple_option.xhtml" target="_top" xlink:title="SimpleOption\&lt; bool \&gt;">
<polygon fill="white" stroke="black" points="102.5,-164 102.5,-183 226.5,-183 226.5,-164 102.5,-164"/>
<text text-anchor="middle" x="164.5" y="-171" font-family="Helvetica,sans-Serif" font-size="10.00">SimpleOption&lt; bool &gt;</text>
</a>
</g>
</g>
<!-- Node1&#45;&gt;Node7 -->
<g id="edge6" class="edge"><title>Node1&#45;&gt;Node7</title>
<path fill="none" stroke="midnightblue" d="M58.222,-173.5C71.4628,-173.5 87.1391,-173.5 102.294,-173.5"/>
<polygon fill="midnightblue" stroke="midnightblue" points="58.1818,-170 48.1818,-173.5 58.1818,-177 58.1818,-170"/>
</g>
<!-- Node9 -->
<g id="node9" class="node"><title>Node9</title>
<g id="a_node9"><a xlink:href="classarm__compute_1_1test_1_1framework_1_1_simple_option.xhtml" target="_top" xlink:title="SimpleOption\&lt; int \&gt;">
<polygon fill="white" stroke="black" points="106.5,-126 106.5,-145 222.5,-145 222.5,-126 106.5,-126"/>
<text text-anchor="middle" x="164.5" y="-133" font-family="Helvetica,sans-Serif" font-size="10.00">SimpleOption&lt; int &gt;</text>
</a>
</g>
</g>
<!-- Node1&#45;&gt;Node9 -->
<g id="edge8" class="edge"><title>Node1&#45;&gt;Node9</title>
<path fill="none" stroke="midnightblue" d="M57.7385,-162.463C66.25,-159.729 75.4349,-156.899 84,-154.5 95.8885,-151.17 108.878,-147.91 120.848,-145.055"/>
<polygon fill="midnightblue" stroke="midnightblue" points="56.5555,-159.167 48.1335,-165.595 58.7259,-165.822 56.5555,-159.167"/>
</g>
<!-- Node10 -->
<g id="node10" class="node"><title>Node10</title>
<g id="a_node10"><a xlink:href="classarm__compute_1_1test_1_1framework_1_1_simple_option.xhtml" target="_top" xlink:title="SimpleOption\&lt; LogFormat \&gt;">
<polygon fill="white" stroke="black" points="87,-88 87,-107 242,-107 242,-88 87,-88"/>
<text text-anchor="middle" x="164.5" y="-95" font-family="Helvetica,sans-Serif" font-size="10.00">SimpleOption&lt; LogFormat &gt;</text>
</a>
</g>
</g>
<!-- Node1&#45;&gt;Node10 -->
<g id="edge9" class="edge"><title>Node1&#45;&gt;Node10</title>
<path fill="none" stroke="midnightblue" d="M38.585,-156.076C49.5097,-143.248 65.9682,-126.383 84,-116.5 91.0932,-112.612 98.969,-109.514 106.927,-107.046"/>
<polygon fill="midnightblue" stroke="midnightblue" points="35.8783,-153.857 32.2442,-163.809 41.2913,-158.296 35.8783,-153.857"/>
</g>
<!-- Node12 -->
<g id="node12" class="node"><title>Node12</title>
<g id="a_node12"><a xlink:href="classarm__compute_1_1test_1_1framework_1_1_simple_option.xhtml" target="_top" xlink:title="SimpleOption\&lt; LogLevel \&gt;">
<polygon fill="white" stroke="black" points="91.5,-50 91.5,-69 237.5,-69 237.5,-50 91.5,-50"/>
<text text-anchor="middle" x="164.5" y="-57" font-family="Helvetica,sans-Serif" font-size="10.00">SimpleOption&lt; LogLevel &gt;</text>
</a>
</g>
</g>
<!-- Node1&#45;&gt;Node12 -->
<g id="edge11" class="edge"><title>Node1&#45;&gt;Node12</title>
<path fill="none" stroke="midnightblue" d="M31.6765,-154.474C40.3139,-132.712 57.4763,-97.629 84,-78.5 89.4096,-74.5986 95.5125,-71.4893 101.872,-69.0128"/>
<polygon fill="midnightblue" stroke="midnightblue" points="28.3538,-153.367 28.1175,-163.959 34.9076,-155.826 28.3538,-153.367"/>
</g>
<!-- Node14 -->
<g id="node14" class="node"><title>Node14</title>
<g id="a_node14"><a xlink:href="classarm__compute_1_1test_1_1framework_1_1_simple_option.xhtml" target="_top" xlink:title="SimpleOption\&lt; std::\lstring \&gt;">
<polygon fill="white" stroke="black" points="108,-0.5 108,-30.5 221,-30.5 221,-0.5 108,-0.5"/>
<text text-anchor="start" x="116" y="-18.5" font-family="Helvetica,sans-Serif" font-size="10.00">SimpleOption&lt; std::</text>
<text text-anchor="middle" x="164.5" y="-7.5" font-family="Helvetica,sans-Serif" font-size="10.00">string &gt;</text>
</a>
</g>
</g>
<!-- Node1&#45;&gt;Node14 -->
<g id="edge13" class="edge"><title>Node1&#45;&gt;Node14</title>
<path fill="none" stroke="midnightblue" d="M28.4463,-153.773C34.5289,-124.817 49.9029,-70.951 84,-40.5 90.7986,-34.4284 99.0657,-29.8311 107.667,-26.3502"/>
<polygon fill="midnightblue" stroke="midnightblue" points="24.9553,-153.392 26.4932,-163.875 31.828,-154.721 24.9553,-153.392"/>
</g>
<!-- Node5 -->
<g id="node5" class="node"><title>Node5</title>
<g id="a_node5"><a xlink:href="classarm__compute_1_1test_1_1framework_1_1_enum_option.xhtml" target="_top" xlink:title="Implementation of a simple option that accepts a value from a fixed set. ">
<polygon fill="white" stroke="black" points="304,-252 304,-271 408,-271 408,-252 304,-252"/>
<text text-anchor="middle" x="356" y="-259" font-family="Helvetica,sans-Serif" font-size="10.00">EnumOption&lt; T &gt;</text>
</a>
</g>
</g>
<!-- Node4&#45;&gt;Node5 -->
<g id="edge4" class="edge"><title>Node4&#45;&gt;Node5</title>
<path fill="none" stroke="midnightblue" d="M229.247,-261.5C253.544,-261.5 280.897,-261.5 303.872,-261.5"/>
<polygon fill="midnightblue" stroke="midnightblue" points="229.043,-258 219.043,-261.5 229.043,-265 229.043,-258"/>
</g>
<!-- Node8 -->
<g id="node8" class="node"><title>Node8</title>
<g id="a_node8"><a xlink:href="classarm__compute_1_1test_1_1framework_1_1_toggle_option.xhtml" target="_top" xlink:title="Implementation of an option that can be either true or false. ">
<polygon fill="white" stroke="black" points="317,-164 317,-183 395,-183 395,-164 317,-164"/>
<text text-anchor="middle" x="356" y="-171" font-family="Helvetica,sans-Serif" font-size="10.00">ToggleOption</text>
</a>
</g>
</g>
<!-- Node7&#45;&gt;Node8 -->
<g id="edge7" class="edge"><title>Node7&#45;&gt;Node8</title>
<path fill="none" stroke="midnightblue" d="M236.752,-173.5C263.9,-173.5 293.795,-173.5 316.734,-173.5"/>
<polygon fill="midnightblue" stroke="midnightblue" points="236.502,-170 226.502,-173.5 236.502,-177 236.502,-170"/>
</g>
<!-- Node11 -->
<g id="node11" class="node"><title>Node11</title>
<g id="a_node11"><a xlink:href="classarm__compute_1_1test_1_1framework_1_1_enum_option.xhtml" target="_top" xlink:title="EnumOption\&lt; LogFormat \&gt;">
<polygon fill="white" stroke="black" points="281,-88 281,-107 431,-107 431,-88 281,-88"/>
<text text-anchor="middle" x="356" y="-95" font-family="Helvetica,sans-Serif" font-size="10.00">EnumOption&lt; LogFormat &gt;</text>
</a>
</g>
</g>
<!-- Node10&#45;&gt;Node11 -->
<g id="edge10" class="edge"><title>Node10&#45;&gt;Node11</title>
<path fill="none" stroke="midnightblue" d="M252.037,-97.5C261.696,-97.5 271.469,-97.5 280.951,-97.5"/>
<polygon fill="midnightblue" stroke="midnightblue" points="252.031,-94.0001 242.031,-97.5 252.031,-101 252.031,-94.0001"/>
</g>
<!-- Node13 -->
<g id="node13" class="node"><title>Node13</title>
<g id="a_node13"><a xlink:href="classarm__compute_1_1test_1_1framework_1_1_enum_option.xhtml" target="_top" xlink:title="EnumOption\&lt; LogLevel \&gt;">
<polygon fill="white" stroke="black" points="286,-50 286,-69 426,-69 426,-50 286,-50"/>
<text text-anchor="middle" x="356" y="-57" font-family="Helvetica,sans-Serif" font-size="10.00">EnumOption&lt; LogLevel &gt;</text>
</a>
</g>
</g>
<!-- Node12&#45;&gt;Node13 -->
<g id="edge12" class="edge"><title>Node12&#45;&gt;Node13</title>
<path fill="none" stroke="midnightblue" d="M247.778,-59.5C260.469,-59.5 273.464,-59.5 285.831,-59.5"/>
<polygon fill="midnightblue" stroke="midnightblue" points="247.682,-56.0001 237.682,-59.5 247.682,-63.0001 247.682,-56.0001"/>
</g>
</g>
</svg>
