<?xml version="1.0" encoding="UTF-8" standalone="no"?>
<!DOCTYPE svg PUBLIC "-//W3C//DTD SVG 1.1//EN"
 "http://www.w3.org/Graphics/SVG/1.1/DTD/svg11.dtd">
<!-- Generated by graphviz version 2.38.0 (20140413.2041)
 -->
<!-- Title: Graphical Class Hierarchy Pages: 1 -->
<svg width="283pt" height="66pt"
 viewBox="0.00 0.00 283.00 66.00" xmlns="http://www.w3.org/2000/svg" xmlns:xlink="http://www.w3.org/1999/xlink">
<g id="graph0" class="graph" transform="scale(1 1) rotate(0) translate(4 62)">
<title>Graphical Class Hierarchy</title>
<polygon fill="white" stroke="none" points="-4,4 -4,-62 279,-62 279,4 -4,4"/>
<!-- Node1 -->
<g id="node1" class="node"><title>Node1</title>
<g id="a_node1"><a xlink:href="classarm__compute_1_1test_1_1datasets_1_1_scale_layer_dataset.xhtml" target="_top" xlink:title="ScaleLayerDataset">
<polygon fill="white" stroke="black" points="0,-19.5 0,-38.5 107,-38.5 107,-19.5 0,-19.5"/>
<text text-anchor="middle" x="53.5" y="-26.5" font-family="Helvetica,sans-Serif" font-size="10.00">ScaleLayerDataset</text>
</a>
</g>
</g>
<!-- Node2 -->
<g id="node2" class="node"><title>Node2</title>
<g id="a_node2"><a xlink:href="classarm__compute_1_1test_1_1datasets_1_1_large_scale_layer_shapes.xhtml" target="_top" xlink:title="Data set containing large scale layer shapes. ">
<polygon fill="white" stroke="black" points="143,-38.5 143,-57.5 275,-57.5 275,-38.5 143,-38.5"/>
<text text-anchor="middle" x="209" y="-45.5" font-family="Helvetica,sans-Serif" font-size="10.00">LargeScaleLayerShapes</text>
</a>
</g>
</g>
<!-- Node1&#45;&gt;Node2 -->
<g id="edge1" class="edge"><title>Node1&#45;&gt;Node2</title>
<path fill="none" stroke="midnightblue" d="M117.423,-36.7885C125.816,-37.8274 134.437,-38.8945 142.867,-39.938"/>
<polygon fill="midnightblue" stroke="midnightblue" points="117.68,-33.2937 107.326,-35.5387 116.82,-40.2407 117.68,-33.2937"/>
</g>
<!-- Node3 -->
<g id="node3" class="node"><title>Node3</title>
<g id="a_node3"><a xlink:href="classarm__compute_1_1test_1_1datasets_1_1_small_scale_layer_shapes.xhtml" target="_top" xlink:title="Data set containing small scale layer shapes. ">
<polygon fill="white" stroke="black" points="143,-0.5 143,-19.5 275,-19.5 275,-0.5 143,-0.5"/>
<text text-anchor="middle" x="209" y="-7.5" font-family="Helvetica,sans-Serif" font-size="10.00">SmallScaleLayerShapes</text>
</a>
</g>
</g>
<!-- Node1&#45;&gt;Node3 -->
<g id="edge2" class="edge"><title>Node1&#45;&gt;Node3</title>
<path fill="none" stroke="midnightblue" d="M117.423,-21.2115C125.816,-20.1726 134.437,-19.1055 142.867,-18.062"/>
<polygon fill="midnightblue" stroke="midnightblue" points="116.82,-17.7593 107.326,-22.4613 117.68,-24.7063 116.82,-17.7593"/>
</g>
</g>
</svg>
