<?xml version="1.0" encoding="UTF-8" standalone="no"?>
<!DOCTYPE svg PUBLIC "-//W3C//DTD SVG 1.1//EN"
 "http://www.w3.org/Graphics/SVG/1.1/DTD/svg11.dtd">
<!-- Generated by graphviz version 2.38.0 (20140413.2041)
 -->
<!-- Title: Graphical Class Hierarchy Pages: 1 -->
<svg width="384pt" height="66pt"
 viewBox="0.00 0.00 384.00 66.00" xmlns="http://www.w3.org/2000/svg" xmlns:xlink="http://www.w3.org/1999/xlink">
<g id="graph0" class="graph" transform="scale(1 1) rotate(0) translate(4 62)">
<title>Graphical Class Hierarchy</title>
<polygon fill="white" stroke="none" points="-4,4 -4,-62 380,-62 380,4 -4,4"/>
<!-- Node1 -->
<g id="node1" class="node"><title>Node1</title>
<g id="a_node1"><a xlink:href="structarm__compute_1_1test_1_1framework_1_1_i_measurement.xhtml" target="_top" xlink:title="Abstract measurement. ">
<polygon fill="white" stroke="black" points="0,-19.5 0,-38.5 79,-38.5 79,-19.5 0,-19.5"/>
<text text-anchor="middle" x="39.5" y="-26.5" font-family="Helvetica" font-size="10.00">IMeasurement</text>
</a>
</g>
</g>
<!-- Node2 -->
<g id="node2" class="node"><title>Node2</title>
<g id="a_node2"><a xlink:href="structarm__compute_1_1test_1_1framework_1_1_typed_measurement.xhtml" target="_top" xlink:title="Measurement of a specific type. ">
<polygon fill="white" stroke="black" points="126,-38.5 126,-57.5 253,-57.5 253,-38.5 126,-38.5"/>
<text text-anchor="middle" x="189.5" y="-45.5" font-family="Helvetica" font-size="10.00">TypedMeasurement&lt; T &gt;</text>
</a>
</g>
</g>
<!-- Node1&#45;&gt;Node2 -->
<g id="edge1" class="edge"><title>Node1&#45;&gt;Node2</title>
<path fill="none" stroke="midnightblue" d="M89.3606,-35.2726C101.028,-36.7705 113.642,-38.3899 125.835,-39.9552"/>
<polygon fill="midnightblue" stroke="midnightblue" points="89.7496,-31.7939 79.3853,-33.992 88.8582,-38.737 89.7496,-31.7939"/>
</g>
<!-- Node3 -->
<g id="node3" class="node"><title>Node3</title>
<g id="a_node3"><a xlink:href="structarm__compute_1_1test_1_1framework_1_1_typed_measurement.xhtml" target="_top" xlink:title="TypedMeasurement\&lt; double \&gt;">
<polygon fill="white" stroke="black" points="115,-0.5 115,-19.5 264,-19.5 264,-0.5 115,-0.5"/>
<text text-anchor="middle" x="189.5" y="-7.5" font-family="Helvetica" font-size="10.00">TypedMeasurement&lt; double &gt;</text>
</a>
</g>
</g>
<!-- Node1&#45;&gt;Node3 -->
<g id="edge2" class="edge"><title>Node1&#45;&gt;Node3</title>
<path fill="none" stroke="midnightblue" d="M89.4672,-22.7137C97.65,-21.6632 106.296,-20.5533 114.934,-19.4443"/>
<polygon fill="midnightblue" stroke="midnightblue" points="88.8582,-19.263 79.3853,-24.008 89.7496,-26.2061 88.8582,-19.263"/>
</g>
<!-- Node4 -->
<g id="node4" class="node"><title>Node4</title>
<g id="a_node4"><a xlink:href="structarm__compute_1_1test_1_1framework_1_1_measurement.xhtml" target="_top" xlink:title="Generic measurement that stores values as double. ">
<polygon fill="white" stroke="black" points="300,-0.5 300,-19.5 376,-19.5 376,-0.5 300,-0.5"/>
<text text-anchor="middle" x="338" y="-7.5" font-family="Helvetica" font-size="10.00">Measurement</text>
</a>
</g>
</g>
<!-- Node3&#45;&gt;Node4 -->
<g id="edge3" class="edge"><title>Node3&#45;&gt;Node4</title>
<path fill="none" stroke="midnightblue" d="M274.317,-10C283.241,-10 291.951,-10 299.903,-10"/>
<polygon fill="midnightblue" stroke="midnightblue" points="274.179,-6.5001 264.179,-10 274.179,-13.5001 274.179,-6.5001"/>
</g>
</g>
</svg>
