<?xml version="1.0" encoding="UTF-8" standalone="no"?>
<!DOCTYPE svg PUBLIC "-//W3C//DTD SVG 1.1//EN"
 "http://www.w3.org/Graphics/SVG/1.1/DTD/svg11.dtd">
<!-- Generated by graphviz version 2.38.0 (20140413.2041)
 -->
<!-- Title: Graphical Class Hierarchy Pages: 1 -->
<svg width="200pt" height="142pt"
 viewBox="0.00 0.00 200.00 142.00" xmlns="http://www.w3.org/2000/svg" xmlns:xlink="http://www.w3.org/1999/xlink">
<g id="graph0" class="graph" transform="scale(1 1) rotate(0) translate(4 138)">
<title>Graphical Class Hierarchy</title>
<polygon fill="white" stroke="none" points="-4,4 -4,-138 196,-138 196,4 -4,4"/>
<!-- Node1 -->
<g id="node1" class="node"><title>Node1</title>
<g id="a_node1"><a xlink:href="classarm__compute_1_1test_1_1framework_1_1_instrument.xhtml" target="_top" xlink:title="Interface for classes that can be used to measure performance. ">
<polygon fill="white" stroke="black" points="0,-57.5 0,-76.5 69,-76.5 69,-57.5 0,-57.5"/>
<text text-anchor="middle" x="34.5" y="-64.5" font-family="Helvetica,sans-Serif" font-size="10.00">Instrument</text>
</a>
</g>
</g>
<!-- Node2 -->
<g id="node2" class="node"><title>Node2</title>
<g id="a_node2"><a xlink:href="classarm__compute_1_1test_1_1framework_1_1_mali_counter.xhtml" target="_top" xlink:title="Instrument implementation for mali hw counters. ">
<polygon fill="white" stroke="black" points="111.5,-114.5 111.5,-133.5 185.5,-133.5 185.5,-114.5 111.5,-114.5"/>
<text text-anchor="middle" x="148.5" y="-121.5" font-family="Helvetica,sans-Serif" font-size="10.00">MaliCounter</text>
</a>
</g>
</g>
<!-- Node1&#45;&gt;Node2 -->
<g id="edge1" class="edge"><title>Node1&#45;&gt;Node2</title>
<path fill="none" stroke="midnightblue" d="M61.0194,-81.5898C74.0484,-88.8754 90.2285,-97.6745 105,-105 111.517,-108.232 118.704,-111.54 125.285,-114.47"/>
<polygon fill="midnightblue" stroke="midnightblue" points="62.5847,-78.4545 52.1543,-76.5951 59.1486,-84.5531 62.5847,-78.4545"/>
</g>
<!-- Node3 -->
<g id="node3" class="node"><title>Node3</title>
<g id="a_node3"><a xlink:href="classarm__compute_1_1test_1_1framework_1_1_open_c_l_timer.xhtml" target="_top" xlink:title="Instrument creating measurements based on the information returned by clGetEventProfilingInfo for eac...">
<polygon fill="white" stroke="black" points="108.5,-76.5 108.5,-95.5 188.5,-95.5 188.5,-76.5 108.5,-76.5"/>
<text text-anchor="middle" x="148.5" y="-83.5" font-family="Helvetica,sans-Serif" font-size="10.00">OpenCLTimer</text>
</a>
</g>
</g>
<!-- Node1&#45;&gt;Node3 -->
<g id="edge2" class="edge"><title>Node1&#45;&gt;Node3</title>
<path fill="none" stroke="midnightblue" d="M78.9681,-74.374C88.6677,-76.0195 98.896,-77.7547 108.406,-79.3681"/>
<polygon fill="midnightblue" stroke="midnightblue" points="79.5482,-70.9225 69.1037,-72.7006 78.3774,-77.8239 79.5482,-70.9225"/>
</g>
<!-- Node4 -->
<g id="node4" class="node"><title>Node4</title>
<g id="a_node4"><a xlink:href="classarm__compute_1_1test_1_1framework_1_1_p_m_u_counter.xhtml" target="_top" xlink:title="Implementation of an instrument to count CPU cycles. ">
<polygon fill="white" stroke="black" points="110,-38.5 110,-57.5 187,-57.5 187,-38.5 110,-38.5"/>
<text text-anchor="middle" x="148.5" y="-45.5" font-family="Helvetica,sans-Serif" font-size="10.00">PMUCounter</text>
</a>
</g>
</g>
<!-- Node1&#45;&gt;Node4 -->
<g id="edge3" class="edge"><title>Node1&#45;&gt;Node4</title>
<path fill="none" stroke="midnightblue" d="M78.9681,-59.626C89.0761,-57.9112 99.7583,-56.099 109.604,-54.4288"/>
<polygon fill="midnightblue" stroke="midnightblue" points="78.3774,-56.1761 69.1037,-61.2994 79.5482,-63.0775 78.3774,-56.1761"/>
</g>
<!-- Node5 -->
<g id="node5" class="node"><title>Node5</title>
<g id="a_node5"><a xlink:href="classarm__compute_1_1test_1_1framework_1_1_wall_clock_timer.xhtml" target="_top" xlink:title="Implementation of an instrument to measure elapsed wall&#45;clock time in milliseconds. ">
<polygon fill="white" stroke="black" points="105,-0.5 105,-19.5 192,-19.5 192,-0.5 105,-0.5"/>
<text text-anchor="middle" x="148.5" y="-7.5" font-family="Helvetica,sans-Serif" font-size="10.00">WallClockTimer</text>
</a>
</g>
</g>
<!-- Node1&#45;&gt;Node5 -->
<g id="edge4" class="edge"><title>Node1&#45;&gt;Node5</title>
<path fill="none" stroke="midnightblue" d="M61.0194,-52.4102C74.0484,-45.1246 90.2285,-36.3255 105,-29 111.517,-25.7682 118.704,-22.4605 125.285,-19.5296"/>
<polygon fill="midnightblue" stroke="midnightblue" points="59.1486,-49.4469 52.1543,-57.4049 62.5847,-55.5455 59.1486,-49.4469"/>
</g>
</g>
</svg>
