<?xml version="1.0" encoding="UTF-8" standalone="no"?>
<!DOCTYPE svg PUBLIC "-//W3C//DTD SVG 1.1//EN"
 "http://www.w3.org/Graphics/SVG/1.1/DTD/svg11.dtd">
<!-- Generated by graphviz version 2.38.0 (20140413.2041)
 -->
<!-- Title: Graphical Class Hierarchy Pages: 1 -->
<svg width="245pt" height="66pt"
 viewBox="0.00 0.00 245.00 66.00" xmlns="http://www.w3.org/2000/svg" xmlns:xlink="http://www.w3.org/1999/xlink">
<g id="graph0" class="graph" transform="scale(1 1) rotate(0) translate(4 62)">
<title>Graphical Class Hierarchy</title>
<polygon fill="white" stroke="none" points="-4,4 -4,-62 241,-62 241,4 -4,4"/>
<!-- Node1 -->
<g id="node1" class="node"><title>Node1</title>
<g id="a_node1"><a xlink:href="classarm__compute_1_1_dimensions.xhtml" target="_top" xlink:title="Dimensions\&lt; size_t \&gt;">
<polygon fill="white" stroke="black" points="0,-19.5 0,-38.5 123,-38.5 123,-19.5 0,-19.5"/>
<text text-anchor="middle" x="61.5" y="-26.5" font-family="Helvetica,sans-Serif" font-size="10.00">Dimensions&lt; size_t &gt;</text>
</a>
</g>
</g>
<!-- Node2 -->
<g id="node2" class="node"><title>Node2</title>
<g id="a_node2"><a xlink:href="classarm__compute_1_1_strides.xhtml" target="_top" xlink:title="Strides of an item in bytes. ">
<polygon fill="white" stroke="black" points="173,-38.5 173,-57.5 223,-57.5 223,-38.5 173,-38.5"/>
<text text-anchor="middle" x="198" y="-45.5" font-family="Helvetica,sans-Serif" font-size="10.00">Strides</text>
</a>
</g>
</g>
<!-- Node1&#45;&gt;Node2 -->
<g id="edge1" class="edge"><title>Node1&#45;&gt;Node2</title>
<path fill="none" stroke="midnightblue" d="M132.978,-38.9559C147.303,-40.9795 161.432,-42.9755 172.757,-44.5754"/>
<polygon fill="midnightblue" stroke="midnightblue" points="133.452,-35.4883 123.061,-37.5551 132.473,-42.4195 133.452,-35.4883"/>
</g>
<!-- Node3 -->
<g id="node3" class="node"><title>Node3</title>
<g id="a_node3"><a xlink:href="classarm__compute_1_1_tensor_shape.xhtml" target="_top" xlink:title="Shape of a tensor. ">
<polygon fill="white" stroke="black" points="159,-0.5 159,-19.5 237,-19.5 237,-0.5 159,-0.5"/>
<text text-anchor="middle" x="198" y="-7.5" font-family="Helvetica,sans-Serif" font-size="10.00">TensorShape</text>
</a>
</g>
</g>
<!-- Node1&#45;&gt;Node3 -->
<g id="edge2" class="edge"><title>Node1&#45;&gt;Node3</title>
<path fill="none" stroke="midnightblue" d="M133.046,-19.0343C141.891,-17.7849 150.659,-16.5463 158.737,-15.4051"/>
<polygon fill="midnightblue" stroke="midnightblue" points="132.473,-15.5805 123.061,-20.4449 133.452,-22.5117 132.473,-15.5805"/>
</g>
</g>
</svg>
