<?xml version="1.0" encoding="UTF-8" standalone="no"?>
<!DOCTYPE svg PUBLIC "-//W3C//DTD SVG 1.1//EN"
 "http://www.w3.org/Graphics/SVG/1.1/DTD/svg11.dtd">
<!-- Generated by graphviz version 2.38.0 (20140413.2041)
 -->
<!-- Title: Graphical Class Hierarchy Pages: 1 -->
<svg width="169pt" height="66pt"
 viewBox="0.00 0.00 169.00 66.00" xmlns="http://www.w3.org/2000/svg" xmlns:xlink="http://www.w3.org/1999/xlink">
<g id="graph0" class="graph" transform="scale(1 1) rotate(0) translate(4 62)">
<title>Graphical Class Hierarchy</title>
<polygon fill="white" stroke="none" points="-4,4 -4,-62 165,-62 165,4 -4,4"/>
<!-- Node1 -->
<g id="node1" class="node"><title>Node1</title>
<g id="a_node1"><a xlink:href="classarm__compute_1_1test_1_1framework_1_1_printer.xhtml" target="_top" xlink:title="Abstract printer class used by the Framework to present output. ">
<polygon fill="white" stroke="black" points="0,-19.5 0,-38.5 48,-38.5 48,-19.5 0,-19.5"/>
<text text-anchor="middle" x="24" y="-26.5" font-family="Helvetica,sans-Serif" font-size="10.00">Printer</text>
</a>
</g>
</g>
<!-- Node2 -->
<g id="node2" class="node"><title>Node2</title>
<g id="a_node2"><a xlink:href="classarm__compute_1_1test_1_1framework_1_1_j_s_o_n_printer.xhtml" target="_top" xlink:title="Implementation of a Printer that produces JSON output. ">
<polygon fill="white" stroke="black" points="86.5,-38.5 86.5,-57.5 158.5,-57.5 158.5,-38.5 86.5,-38.5"/>
<text text-anchor="middle" x="122.5" y="-45.5" font-family="Helvetica,sans-Serif" font-size="10.00">JSONPrinter</text>
</a>
</g>
</g>
<!-- Node1&#45;&gt;Node2 -->
<g id="edge1" class="edge"><title>Node1&#45;&gt;Node2</title>
<path fill="none" stroke="midnightblue" d="M58.1865,-35.5341C67.2566,-37.3199 77.1159,-39.2612 86.2944,-41.0683"/>
<polygon fill="midnightblue" stroke="midnightblue" points="58.8478,-32.0972 48.36,-33.5994 57.4954,-38.9653 58.8478,-32.0972"/>
</g>
<!-- Node3 -->
<g id="node3" class="node"><title>Node3</title>
<g id="a_node3"><a xlink:href="classarm__compute_1_1test_1_1framework_1_1_pretty_printer.xhtml" target="_top" xlink:title="Implementation of a Printer that produces human readable output. ">
<polygon fill="white" stroke="black" points="84,-0.5 84,-19.5 161,-19.5 161,-0.5 84,-0.5"/>
<text text-anchor="middle" x="122.5" y="-7.5" font-family="Helvetica,sans-Serif" font-size="10.00">PrettyPrinter</text>
</a>
</g>
</g>
<!-- Node1&#45;&gt;Node3 -->
<g id="edge2" class="edge"><title>Node1&#45;&gt;Node3</title>
<path fill="none" stroke="midnightblue" d="M58.3013,-22.4433C66.4824,-20.8325 75.2996,-19.0964 83.6765,-17.4471"/>
<polygon fill="midnightblue" stroke="midnightblue" points="57.4954,-19.0347 48.36,-24.4006 58.8478,-25.9028 57.4954,-19.0347"/>
</g>
</g>
</svg>
