<?xml version="1.0" encoding="UTF-8" standalone="no"?>
<!DOCTYPE svg PUBLIC "-//W3C//DTD SVG 1.1//EN"
 "http://www.w3.org/Graphics/SVG/1.1/DTD/svg11.dtd">
<!-- Generated by graphviz version 2.38.0 (20140413.2041)
 -->
<!-- Title: Graphical Class Hierarchy Pages: 1 -->
<svg width="327pt" height="66pt"
 viewBox="0.00 0.00 327.00 66.00" xmlns="http://www.w3.org/2000/svg" xmlns:xlink="http://www.w3.org/1999/xlink">
<g id="graph0" class="graph" transform="scale(1 1) rotate(0) translate(4 62)">
<title>Graphical Class Hierarchy</title>
<polygon fill="white" stroke="none" points="-4,4 -4,-62 323,-62 323,4 -4,4"/>
<!-- Node1 -->
<g id="node1" class="node"><title>Node1</title>
<g id="a_node1"><a xlink:href="classarm__compute_1_1test_1_1_generic_dataset.xhtml" target="_top" xlink:title="GenericDataset\&lt; GEMMData\lObject, 32 \&gt;">
<polygon fill="white" stroke="black" points="0,-14 0,-44 146,-44 146,-14 0,-14"/>
<text text-anchor="start" x="8" y="-32" font-family="Helvetica,sans-Serif" font-size="10.00">GenericDataset&lt; GEMMData</text>
<text text-anchor="middle" x="73" y="-21" font-family="Helvetica,sans-Serif" font-size="10.00">Object, 32 &gt;</text>
</a>
</g>
</g>
<!-- Node2 -->
<g id="node2" class="node"><title>Node2</title>
<g id="a_node2"><a xlink:href="classarm__compute_1_1test_1_1_goog_le_net_g_e_m_m_dataset1.xhtml" target="_top" xlink:title="GoogLeNetGEMMDataset1">
<polygon fill="white" stroke="black" points="182,-38.5 182,-57.5 319,-57.5 319,-38.5 182,-38.5"/>
<text text-anchor="middle" x="250.5" y="-45.5" font-family="Helvetica,sans-Serif" font-size="10.00">GoogLeNetGEMMDataset1</text>
</a>
</g>
</g>
<!-- Node1&#45;&gt;Node2 -->
<g id="edge1" class="edge"><title>Node1&#45;&gt;Node2</title>
<path fill="none" stroke="midnightblue" d="M156.186,-37.8977C164.787,-38.8288 173.459,-39.7677 181.871,-40.6784"/>
<polygon fill="midnightblue" stroke="midnightblue" points="156.461,-34.407 146.142,-36.8103 155.707,-41.3664 156.461,-34.407"/>
</g>
<!-- Node3 -->
<g id="node3" class="node"><title>Node3</title>
<g id="a_node3"><a xlink:href="classarm__compute_1_1test_1_1_goog_le_net_g_e_m_m_dataset2.xhtml" target="_top" xlink:title="GoogLeNetGEMMDataset2">
<polygon fill="white" stroke="black" points="182,-0.5 182,-19.5 319,-19.5 319,-0.5 182,-0.5"/>
<text text-anchor="middle" x="250.5" y="-7.5" font-family="Helvetica,sans-Serif" font-size="10.00">GoogLeNetGEMMDataset2</text>
</a>
</g>
</g>
<!-- Node1&#45;&gt;Node3 -->
<g id="edge2" class="edge"><title>Node1&#45;&gt;Node3</title>
<path fill="none" stroke="midnightblue" d="M156.186,-20.1023C164.787,-19.1712 173.459,-18.2323 181.871,-17.3216"/>
<polygon fill="midnightblue" stroke="midnightblue" points="155.707,-16.6336 146.142,-21.1897 156.461,-23.593 155.707,-16.6336"/>
</g>
</g>
</svg>
