<?xml version="1.0" encoding="UTF-8" standalone="no"?>
<!DOCTYPE svg PUBLIC "-//W3C//DTD SVG 1.1//EN"
 "http://www.w3.org/Graphics/SVG/1.1/DTD/svg11.dtd">
<!-- Generated by graphviz version 2.38.0 (20140413.2041)
 -->
<!-- Title: Graphical Class Hierarchy Pages: 1 -->
<svg width="369pt" height="66pt"
 viewBox="0.00 0.00 369.00 66.00" xmlns="http://www.w3.org/2000/svg" xmlns:xlink="http://www.w3.org/1999/xlink">
<g id="graph0" class="graph" transform="scale(1 1) rotate(0) translate(4 62)">
<title>Graphical Class Hierarchy</title>
<polygon fill="white" stroke="none" points="-4,4 -4,-62 365,-62 365,4 -4,4"/>
<!-- Node0 -->
<g id="node1" class="node"><title>Node0</title>
<g id="a_node1"><a xlink:href="classarm__compute_1_1misc_1_1_i_cloneable.xhtml" target="_top" xlink:title=" ">
<polygon fill="white" stroke="black" points="0,-19.5 0,-38.5 139,-38.5 139,-19.5 0,-19.5"/>
<text text-anchor="middle" x="69.5" y="-26.5" font-family="Helvetica,sans-Serif" font-size="10.00">ICloneable&lt; ITensorInfo &gt;</text>
</a>
</g>
</g>
<!-- Node1 -->
<g id="node2" class="node"><title>Node1</title>
<g id="a_node2"><a xlink:href="classarm__compute_1_1_i_tensor_info.xhtml" target="_top" xlink:title="Store the tensor&#39;s metadata.">
<polygon fill="white" stroke="black" points="175,-19.5 175,-38.5 242,-38.5 242,-19.5 175,-19.5"/>
<text text-anchor="middle" x="208.5" y="-26.5" font-family="Helvetica,sans-Serif" font-size="10.00">ITensorInfo</text>
</a>
</g>
</g>
<!-- Node0&#45;&gt;Node1 -->
<g id="edge1" class="edge"><title>Node0&#45;&gt;Node1</title>
<path fill="none" stroke="midnightblue" d="M149.531,-29C158.44,-29 167.107,-29 174.907,-29"/>
<polygon fill="midnightblue" stroke="midnightblue" points="149.401,-25.5001 139.401,-29 149.401,-32.5001 149.401,-25.5001"/>
</g>
<!-- Node2 -->
<g id="node3" class="node"><title>Node2</title>
<g id="a_node3"><a xlink:href="classarm__compute_1_1_sub_tensor_info.xhtml" target="_top" xlink:title="Store the sub tensor&#39;s metadata.">
<polygon fill="white" stroke="black" points="278,-38.5 278,-57.5 361,-57.5 361,-38.5 278,-38.5"/>
<text text-anchor="middle" x="319.5" y="-45.5" font-family="Helvetica,sans-Serif" font-size="10.00">SubTensorInfo</text>
</a>
</g>
</g>
<!-- Node1&#45;&gt;Node2 -->
<g id="edge2" class="edge"><title>Node1&#45;&gt;Node2</title>
<path fill="none" stroke="midnightblue" d="M252.192,-36.4418C260.588,-37.9052 269.376,-39.437 277.707,-40.8892"/>
<polygon fill="midnightblue" stroke="midnightblue" points="252.656,-32.9699 242.204,-34.7006 251.454,-39.8659 252.656,-32.9699"/>
</g>
<!-- Node3 -->
<g id="node4" class="node"><title>Node3</title>
<g id="a_node4"><a xlink:href="classarm__compute_1_1_tensor_info.xhtml" target="_top" xlink:title="Store the tensor&#39;s metadata.">
<polygon fill="white" stroke="black" points="287,-0.5 287,-19.5 352,-19.5 352,-0.5 287,-0.5"/>
<text text-anchor="middle" x="319.5" y="-7.5" font-family="Helvetica,sans-Serif" font-size="10.00">TensorInfo</text>
</a>
</g>
</g>
<!-- Node1&#45;&gt;Node3 -->
<g id="edge3" class="edge"><title>Node1&#45;&gt;Node3</title>
<path fill="none" stroke="midnightblue" d="M252.142,-21.5669C263.737,-19.5459 276.083,-17.3938 286.943,-15.5008"/>
<polygon fill="midnightblue" stroke="midnightblue" points="251.454,-18.1341 242.204,-23.2994 252.656,-25.0301 251.454,-18.1341"/>
</g>
</g>
</svg>
