<?xml version="1.0" encoding="UTF-8" standalone="no"?>
<!DOCTYPE svg PUBLIC "-//W3C//DTD SVG 1.1//EN"
 "http://www.w3.org/Graphics/SVG/1.1/DTD/svg11.dtd">
<!-- Generated by graphviz version 2.38.0 (20140413.2041)
 -->
<!-- Title: Graphical Class Hierarchy Pages: 1 -->
<svg width="242pt" height="1206pt"
 viewBox="0.00 0.00 242.00 1206.00" xmlns="http://www.w3.org/2000/svg" xmlns:xlink="http://www.w3.org/1999/xlink">
<g id="graph0" class="graph" transform="scale(1 1) rotate(0) translate(4 1202)">
<title>Graphical Class Hierarchy</title>
<polygon fill="white" stroke="none" points="-4,4 -4,-1202 238,-1202 238,4 -4,4"/>
<!-- Node0 -->
<g id="node1" class="node"><title>Node0</title>
<g id="a_node1"><a xlink:href="classarm__compute_1_1graph_1_1frontend_1_1_i_layer.xhtml" target="_top" xlink:title="ILayer interface.">
<polygon fill="white" stroke="black" points="0,-589.5 0,-608.5 45,-608.5 45,-589.5 0,-589.5"/>
<text text-anchor="middle" x="22.5" y="-596.5" font-family="Helvetica,sans-Serif" font-size="10.00">ILayer</text>
</a>
</g>
</g>
<!-- Node1 -->
<g id="node2" class="node"><title>Node1</title>
<g id="a_node2"><a xlink:href="classarm__compute_1_1graph_1_1frontend_1_1_activation_layer.xhtml" target="_top" xlink:title="Activation Layer.">
<polygon fill="white" stroke="black" points="112.5,-1178.5 112.5,-1197.5 202.5,-1197.5 202.5,-1178.5 112.5,-1178.5"/>
<text text-anchor="middle" x="157.5" y="-1185.5" font-family="Helvetica,sans-Serif" font-size="10.00">ActivationLayer</text>
</a>
</g>
</g>
<!-- Node0&#45;&gt;Node1 -->
<g id="edge1" class="edge"><title>Node0&#45;&gt;Node1</title>
<path fill="none" stroke="midnightblue" d="M24.1673,-618.806C27.5674,-714.54 44.2564,-1126.46 81,-1169 88.9515,-1178.21 100.644,-1183.29 112.463,-1186.01"/>
<polygon fill="midnightblue" stroke="midnightblue" points="27.6554,-618.4 23.8108,-608.527 20.6597,-618.643 27.6554,-618.4"/>
</g>
<!-- Node2 -->
<g id="node3" class="node"><title>Node2</title>
<g id="a_node3"><a xlink:href="classarm__compute_1_1graph_1_1frontend_1_1_batch_normalization_layer.xhtml" target="_top" xlink:title="Batchnormalization Layer.">
<polygon fill="white" stroke="black" points="89,-1140.5 89,-1159.5 226,-1159.5 226,-1140.5 89,-1140.5"/>
<text text-anchor="middle" x="157.5" y="-1147.5" font-family="Helvetica,sans-Serif" font-size="10.00">BatchNormalizationLayer</text>
</a>
</g>
</g>
<!-- Node0&#45;&gt;Node2 -->
<g id="edge2" class="edge"><title>Node0&#45;&gt;Node2</title>
<path fill="none" stroke="midnightblue" d="M24.3227,-618.924C28.2955,-710.895 46.7203,-1091.6 81,-1131 84.2824,-1134.77 88.1931,-1137.85 92.482,-1140.36"/>
<polygon fill="midnightblue" stroke="midnightblue" points="27.8123,-618.6 23.8922,-608.757 20.8185,-618.897 27.8123,-618.6"/>
</g>
<!-- Node3 -->
<g id="node4" class="node"><title>Node3</title>
<g id="a_node4"><a xlink:href="classarm__compute_1_1graph_1_1frontend_1_1_bounding_box_transform_layer.xhtml" target="_top" xlink:title="Bounding Box Transform Layer.">
<polygon fill="white" stroke="black" points="81,-1102.5 81,-1121.5 234,-1121.5 234,-1102.5 81,-1102.5"/>
<text text-anchor="middle" x="157.5" y="-1109.5" font-family="Helvetica,sans-Serif" font-size="10.00">BoundingBoxTransformLayer</text>
</a>
</g>
</g>
<!-- Node0&#45;&gt;Node3 -->
<g id="edge3" class="edge"><title>Node0&#45;&gt;Node3</title>
<path fill="none" stroke="midnightblue" d="M24.5087,-619.15C29.1011,-707.363 49.1909,-1056.74 81,-1093 84.2979,-1096.76 88.2196,-1099.83 92.5159,-1102.33"/>
<polygon fill="midnightblue" stroke="midnightblue" points="27.9907,-618.707 23.9842,-608.899 20.9999,-619.065 27.9907,-618.707"/>
</g>
<!-- Node4 -->
<g id="node5" class="node"><title>Node4</title>
<g id="a_node5"><a xlink:href="classarm__compute_1_1graph_1_1frontend_1_1_channel_shuffle_layer.xhtml" target="_top" xlink:title="Channel Shuffle Layer.">
<polygon fill="white" stroke="black" points="100,-1064.5 100,-1083.5 215,-1083.5 215,-1064.5 100,-1064.5"/>
<text text-anchor="middle" x="157.5" y="-1071.5" font-family="Helvetica,sans-Serif" font-size="10.00">ChannelShuffleLayer</text>
</a>
</g>
</g>
<!-- Node0&#45;&gt;Node4 -->
<g id="edge4" class="edge"><title>Node0&#45;&gt;Node4</title>
<path fill="none" stroke="midnightblue" d="M23.1476,-618.915C22.1641,-698.044 22.6332,-989.099 81,-1055 86.1081,-1060.77 92.6845,-1064.91 99.8221,-1067.86"/>
<polygon fill="midnightblue" stroke="midnightblue" points="26.6484,-618.881 23.2965,-608.83 19.6491,-618.778 26.6484,-618.881"/>
</g>
<!-- Node5 -->
<g id="node6" class="node"><title>Node5</title>
<g id="a_node6"><a xlink:href="classarm__compute_1_1graph_1_1frontend_1_1_concat_layer.xhtml" target="_top" xlink:title="Concat Layer.">
<polygon fill="white" stroke="black" points="119,-1026.5 119,-1045.5 196,-1045.5 196,-1026.5 119,-1026.5"/>
<text text-anchor="middle" x="157.5" y="-1033.5" font-family="Helvetica,sans-Serif" font-size="10.00">ConcatLayer</text>
</a>
</g>
</g>
<!-- Node0&#45;&gt;Node5 -->
<g id="edge5" class="edge"><title>Node0&#45;&gt;Node5</title>
<path fill="none" stroke="midnightblue" d="M23.4024,-619.138C23.457,-694.319 27.5305,-957.31 81,-1017 90.5596,-1027.67 105.147,-1032.76 118.959,-1035.07"/>
<polygon fill="midnightblue" stroke="midnightblue" points="26.903,-618.751 23.4212,-608.744 19.903,-618.738 26.903,-618.751"/>
</g>
<!-- Node6 -->
<g id="node7" class="node"><title>Node6</title>
<g id="a_node7"><a xlink:href="classarm__compute_1_1graph_1_1frontend_1_1_convolution_layer.xhtml" target="_top" xlink:title="Convolution Layer.">
<polygon fill="white" stroke="black" points="108,-988.5 108,-1007.5 207,-1007.5 207,-988.5 108,-988.5"/>
<text text-anchor="middle" x="157.5" y="-995.5" font-family="Helvetica,sans-Serif" font-size="10.00">ConvolutionLayer</text>
</a>
</g>
</g>
<!-- Node0&#45;&gt;Node6 -->
<g id="edge6" class="edge"><title>Node0&#45;&gt;Node6</title>
<path fill="none" stroke="midnightblue" d="M23.7022,-618.653C24.8299,-688.767 32.2449,-925.305 81,-979 87.9963,-986.705 97.6143,-991.494 107.644,-994.424"/>
<polygon fill="midnightblue" stroke="midnightblue" points="27.2006,-618.502 23.5663,-608.55 20.2013,-618.597 27.2006,-618.502"/>
</g>
<!-- Node7 -->
<g id="node8" class="node"><title>Node7</title>
<g id="a_node8"><a xlink:href="classarm__compute_1_1graph_1_1frontend_1_1_deconvolution_layer.xhtml" target="_top" xlink:title="Deconvolution Layer.">
<polygon fill="white" stroke="black" points="102,-950.5 102,-969.5 213,-969.5 213,-950.5 102,-950.5"/>
<text text-anchor="middle" x="157.5" y="-957.5" font-family="Helvetica,sans-Serif" font-size="10.00">DeconvolutionLayer</text>
</a>
</g>
</g>
<!-- Node0&#45;&gt;Node7 -->
<g id="edge7" class="edge"><title>Node0&#45;&gt;Node7</title>
<path fill="none" stroke="midnightblue" d="M24.0713,-618.769C26.3726,-684.374 37.0817,-893.421 81,-941 86.684,-947.158 94.0433,-951.447 101.933,-954.412"/>
<polygon fill="midnightblue" stroke="midnightblue" points="27.5629,-618.451 23.7423,-608.569 20.5666,-618.677 27.5629,-618.451"/>
</g>
<!-- Node8 -->
<g id="node9" class="node"><title>Node8</title>
<g id="a_node9"><a xlink:href="classarm__compute_1_1graph_1_1frontend_1_1_depthwise_convolution_layer.xhtml" target="_top" xlink:title="Depthwise Convolution Layer.">
<polygon fill="white" stroke="black" points="83,-912.5 83,-931.5 232,-931.5 232,-912.5 83,-912.5"/>
<text text-anchor="middle" x="157.5" y="-919.5" font-family="Helvetica,sans-Serif" font-size="10.00">DepthwiseConvolutionLayer</text>
</a>
</g>
</g>
<!-- Node0&#45;&gt;Node8 -->
<g id="edge8" class="edge"><title>Node0&#45;&gt;Node8</title>
<path fill="none" stroke="midnightblue" d="M24.5358,-618.909C28.1049,-679.732 41.8991,-861.496 81,-903 84.6147,-906.837 88.8803,-909.946 93.5146,-912.459"/>
<polygon fill="midnightblue" stroke="midnightblue" points="28.0195,-618.516 23.9691,-608.726 21.0303,-618.905 28.0195,-618.516"/>
</g>
<!-- Node9 -->
<g id="node10" class="node"><title>Node9</title>
<g id="a_node10"><a xlink:href="classarm__compute_1_1graph_1_1frontend_1_1_detection_output_layer.xhtml" target="_top" xlink:title="DetectionOutput Layer.">
<polygon fill="white" stroke="black" points="96.5,-874.5 96.5,-893.5 218.5,-893.5 218.5,-874.5 96.5,-874.5"/>
<text text-anchor="middle" x="157.5" y="-881.5" font-family="Helvetica,sans-Serif" font-size="10.00">DetectionOutputLayer</text>
</a>
</g>
</g>
<!-- Node0&#45;&gt;Node9 -->
<g id="edge9" class="edge"><title>Node0&#45;&gt;Node9</title>
<path fill="none" stroke="midnightblue" d="M25.1235,-618.917C30.0534,-674.487 46.6595,-829.484 81,-865 85.3219,-869.47 90.5283,-872.947 96.1618,-875.643"/>
<polygon fill="midnightblue" stroke="midnightblue" points="28.5847,-618.312 24.2465,-608.646 21.6101,-618.908 28.5847,-618.312"/>
</g>
<!-- Node10 -->
<g id="node11" class="node"><title>Node10</title>
<g id="a_node11"><a xlink:href="classarm__compute_1_1graph_1_1frontend_1_1_dummy_layer.xhtml" target="_top" xlink:title="Dummy Layer.">
<polygon fill="white" stroke="black" points="117,-836.5 117,-855.5 198,-855.5 198,-836.5 117,-836.5"/>
<text text-anchor="middle" x="157.5" y="-843.5" font-family="Helvetica,sans-Serif" font-size="10.00">DummyLayer</text>
</a>
</g>
</g>
<!-- Node0&#45;&gt;Node10 -->
<g id="edge10" class="edge"><title>Node0&#45;&gt;Node10</title>
<path fill="none" stroke="midnightblue" d="M25.8671,-618.66C32.2446,-668.391 51.3337,-797.349 81,-827 90.4643,-836.46 103.9,-841.444 116.819,-844"/>
<polygon fill="midnightblue" stroke="midnightblue" points="29.3189,-618.056 24.6091,-608.565 22.3727,-618.921 29.3189,-618.056"/>
</g>
<!-- Node11 -->
<g id="node12" class="node"><title>Node11</title>
<g id="a_node12"><a xlink:href="classarm__compute_1_1graph_1_1frontend_1_1_eltwise_layer.xhtml" target="_top" xlink:title=" ">
<polygon fill="white" stroke="black" points="120,-798.5 120,-817.5 195,-817.5 195,-798.5 120,-798.5"/>
<text text-anchor="middle" x="157.5" y="-805.5" font-family="Helvetica,sans-Serif" font-size="10.00">EltwiseLayer</text>
</a>
</g>
</g>
<!-- Node0&#45;&gt;Node11 -->
<g id="edge11" class="edge"><title>Node0&#45;&gt;Node11</title>
<path fill="none" stroke="midnightblue" d="M23.4718,-618.953C24.549,-657.59 32.6334,-742.87 81,-789 91.3678,-798.888 106.094,-803.845 119.792,-806.26"/>
<polygon fill="midnightblue" stroke="midnightblue" points="26.966,-618.504 23.3257,-608.554 19.9666,-618.602 26.966,-618.504"/>
</g>
<!-- Node12 -->
<g id="node13" class="node"><title>Node12</title>
<g id="a_node13"><a xlink:href="classarm__compute_1_1graph_1_1frontend_1_1_flatten_layer.xhtml" target="_top" xlink:title="Flatten Layer.">
<polygon fill="white" stroke="black" points="119.5,-760.5 119.5,-779.5 195.5,-779.5 195.5,-760.5 119.5,-760.5"/>
<text text-anchor="middle" x="157.5" y="-767.5" font-family="Helvetica,sans-Serif" font-size="10.00">FlattenLayer</text>
</a>
</g>
</g>
<!-- Node0&#45;&gt;Node12 -->
<g id="edge12" class="edge"><title>Node0&#45;&gt;Node12</title>
<path fill="none" stroke="midnightblue" d="M25.1975,-618.547C29.0902,-651.004 41.6177,-715.909 81,-751 91.4951,-760.352 105.923,-765.241 119.357,-767.75"/>
<polygon fill="midnightblue" stroke="midnightblue" points="28.6704,-618.105 24.1509,-608.522 21.7083,-618.832 28.6704,-618.105"/>
</g>
<!-- Node13 -->
<g id="node14" class="node"><title>Node13</title>
<g id="a_node14"><a xlink:href="classarm__compute_1_1graph_1_1frontend_1_1_fully_connected_layer.xhtml" target="_top" xlink:title="Fully Connected Layer.">
<polygon fill="white" stroke="black" points="100,-722.5 100,-741.5 215,-741.5 215,-722.5 100,-722.5"/>
<text text-anchor="middle" x="157.5" y="-729.5" font-family="Helvetica,sans-Serif" font-size="10.00">FullyConnectedLayer</text>
</a>
</g>
</g>
<!-- Node0&#45;&gt;Node13 -->
<g id="edge13" class="edge"><title>Node0&#45;&gt;Node13</title>
<path fill="none" stroke="midnightblue" d="M28.0209,-618.696C34.9507,-644.341 50.7017,-688.744 81,-713 86.5923,-717.477 93.1051,-720.915 99.9176,-723.551"/>
<polygon fill="midnightblue" stroke="midnightblue" points="31.3337,-617.517 25.5054,-608.669 24.5441,-619.22 31.3337,-617.517"/>
</g>
<!-- Node14 -->
<g id="node15" class="node"><title>Node14</title>
<g id="a_node15"><a xlink:href="classarm__compute_1_1graph_1_1frontend_1_1_generate_proposals_layer.xhtml" target="_top" xlink:title="Generate Proposals Layer.">
<polygon fill="white" stroke="black" points="90.5,-684.5 90.5,-703.5 224.5,-703.5 224.5,-684.5 90.5,-684.5"/>
<text text-anchor="middle" x="157.5" y="-691.5" font-family="Helvetica,sans-Serif" font-size="10.00">GenerateProposalsLayer</text>
</a>
</g>
</g>
<!-- Node0&#45;&gt;Node14 -->
<g id="edge14" class="edge"><title>Node0&#45;&gt;Node14</title>
<path fill="none" stroke="midnightblue" d="M32.9003,-617.821C42.5881,-635.274 59.3192,-660.646 81,-675 86.8604,-678.88 93.4552,-681.968 100.244,-684.425"/>
<polygon fill="midnightblue" stroke="midnightblue" points="35.7947,-615.807 28.0259,-608.604 29.6066,-619.08 35.7947,-615.807"/>
</g>
<!-- Node15 -->
<g id="node16" class="node"><title>Node15</title>
<g id="a_node16"><a xlink:href="classarm__compute_1_1graph_1_1frontend_1_1_input_layer.xhtml" target="_top" xlink:title="Input Layer.">
<polygon fill="white" stroke="black" points="124,-646.5 124,-665.5 191,-665.5 191,-646.5 124,-646.5"/>
<text text-anchor="middle" x="157.5" y="-653.5" font-family="Helvetica,sans-Serif" font-size="10.00">InputLayer</text>
</a>
</g>
</g>
<!-- Node0&#45;&gt;Node15 -->
<g id="edge15" class="edge"><title>Node0&#45;&gt;Node15</title>
<path fill="none" stroke="midnightblue" d="M43.7351,-614.815C54.336,-622.45 67.8273,-631.192 81,-637 94.4807,-642.944 110.169,-647.27 123.741,-650.28"/>
<polygon fill="midnightblue" stroke="midnightblue" points="45.6934,-611.909 35.5805,-608.75 41.5159,-617.526 45.6934,-611.909"/>
</g>
<!-- Node16 -->
<g id="node17" class="node"><title>Node16</title>
<g id="a_node17"><a xlink:href="classarm__compute_1_1graph_1_1frontend_1_1_normalization_layer.xhtml" target="_top" xlink:title="Normalization Layer.">
<polygon fill="white" stroke="black" points="102.5,-608.5 102.5,-627.5 212.5,-627.5 212.5,-608.5 102.5,-608.5"/>
<text text-anchor="middle" x="157.5" y="-615.5" font-family="Helvetica,sans-Serif" font-size="10.00">NormalizationLayer</text>
</a>
</g>
</g>
<!-- Node0&#45;&gt;Node16 -->
<g id="edge16" class="edge"><title>Node0&#45;&gt;Node16</title>
<path fill="none" stroke="midnightblue" d="M55.3208,-603.546C69.4221,-605.56 86.4122,-607.987 102.409,-610.273"/>
<polygon fill="midnightblue" stroke="midnightblue" points="55.5593,-600.044 45.1648,-602.095 54.5692,-606.974 55.5593,-600.044"/>
</g>
<!-- Node17 -->
<g id="node18" class="node"><title>Node17</title>
<g id="a_node18"><a xlink:href="classarm__compute_1_1graph_1_1frontend_1_1_normalize_planar_y_u_v_layer.xhtml" target="_top" xlink:title="Normalize planar YUV Layer.">
<polygon fill="white" stroke="black" points="87,-570.5 87,-589.5 228,-589.5 228,-570.5 87,-570.5"/>
<text text-anchor="middle" x="157.5" y="-577.5" font-family="Helvetica,sans-Serif" font-size="10.00">NormalizePlanarYUVLayer</text>
</a>
</g>
</g>
<!-- Node0&#45;&gt;Node17 -->
<g id="edge17" class="edge"><title>Node0&#45;&gt;Node17</title>
<path fill="none" stroke="midnightblue" d="M55.3699,-594.447C65.7697,-592.961 77.7368,-591.252 89.7161,-589.541"/>
<polygon fill="midnightblue" stroke="midnightblue" points="54.5692,-591.026 45.1648,-595.905 55.5593,-597.956 54.5692,-591.026"/>
</g>
<!-- Node18 -->
<g id="node19" class="node"><title>Node18</title>
<g id="a_node19"><a xlink:href="classarm__compute_1_1graph_1_1frontend_1_1_output_layer.xhtml" target="_top" xlink:title="Output Layer.">
<polygon fill="white" stroke="black" points="119.5,-532.5 119.5,-551.5 195.5,-551.5 195.5,-532.5 119.5,-532.5"/>
<text text-anchor="middle" x="157.5" y="-539.5" font-family="Helvetica,sans-Serif" font-size="10.00">OutputLayer</text>
</a>
</g>
</g>
<!-- Node0&#45;&gt;Node18 -->
<g id="edge18" class="edge"><title>Node0&#45;&gt;Node18</title>
<path fill="none" stroke="midnightblue" d="M43.7351,-583.185C54.336,-575.55 67.8273,-566.808 81,-561 92.9966,-555.711 106.742,-551.702 119.188,-548.763"/>
<polygon fill="midnightblue" stroke="midnightblue" points="41.5159,-580.474 35.5805,-589.25 45.6934,-586.091 41.5159,-580.474"/>
</g>
<!-- Node19 -->
<g id="node20" class="node"><title>Node19</title>
<g id="a_node20"><a xlink:href="classarm__compute_1_1graph_1_1frontend_1_1_pad_layer.xhtml" target="_top" xlink:title="Pad Layer.">
<polygon fill="white" stroke="black" points="127.5,-494.5 127.5,-513.5 187.5,-513.5 187.5,-494.5 127.5,-494.5"/>
<text text-anchor="middle" x="157.5" y="-501.5" font-family="Helvetica,sans-Serif" font-size="10.00">PadLayer</text>
</a>
</g>
</g>
<!-- Node0&#45;&gt;Node19 -->
<g id="edge19" class="edge"><title>Node0&#45;&gt;Node19</title>
<path fill="none" stroke="midnightblue" d="M32.9003,-580.179C42.5881,-562.726 59.3192,-537.354 81,-523 94.7495,-513.897 112.541,-509.155 127.399,-506.685"/>
<polygon fill="midnightblue" stroke="midnightblue" points="29.6066,-578.92 28.0259,-589.396 35.7947,-582.193 29.6066,-578.92"/>
</g>
<!-- Node20 -->
<g id="node21" class="node"><title>Node20</title>
<g id="a_node21"><a xlink:href="classarm__compute_1_1graph_1_1frontend_1_1_permute_layer.xhtml" target="_top" xlink:title="Permute Layer.">
<polygon fill="white" stroke="black" points="115.5,-456.5 115.5,-475.5 199.5,-475.5 199.5,-456.5 115.5,-456.5"/>
<text text-anchor="middle" x="157.5" y="-463.5" font-family="Helvetica,sans-Serif" font-size="10.00">PermuteLayer</text>
</a>
</g>
</g>
<!-- Node0&#45;&gt;Node20 -->
<g id="edge20" class="edge"><title>Node0&#45;&gt;Node20</title>
<path fill="none" stroke="midnightblue" d="M28.0209,-579.304C34.9507,-553.659 50.7017,-509.256 81,-485 90.7074,-477.229 103.188,-472.589 115.196,-469.834"/>
<polygon fill="midnightblue" stroke="midnightblue" points="24.5441,-578.78 25.5054,-589.331 31.3337,-580.483 24.5441,-578.78"/>
</g>
<!-- Node21 -->
<g id="node22" class="node"><title>Node21</title>
<g id="a_node22"><a xlink:href="classarm__compute_1_1graph_1_1frontend_1_1_pooling_layer.xhtml" target="_top" xlink:title="Pooling Layer.">
<polygon fill="white" stroke="black" points="119,-418.5 119,-437.5 196,-437.5 196,-418.5 119,-418.5"/>
<text text-anchor="middle" x="157.5" y="-425.5" font-family="Helvetica,sans-Serif" font-size="10.00">PoolingLayer</text>
</a>
</g>
</g>
<!-- Node0&#45;&gt;Node21 -->
<g id="edge21" class="edge"><title>Node0&#45;&gt;Node21</title>
<path fill="none" stroke="midnightblue" d="M25.1975,-579.453C29.0902,-546.996 41.6177,-482.091 81,-447 91.3942,-437.738 105.646,-432.854 118.969,-430.323"/>
<polygon fill="midnightblue" stroke="midnightblue" points="21.7083,-579.168 24.1509,-589.478 28.6704,-579.895 21.7083,-579.168"/>
</g>
<!-- Node22 -->
<g id="node23" class="node"><title>Node22</title>
<g id="a_node23"><a xlink:href="classarm__compute_1_1graph_1_1frontend_1_1_prior_box_layer.xhtml" target="_top" xlink:title="PriorBox Layer.">
<polygon fill="white" stroke="black" points="116,-380.5 116,-399.5 199,-399.5 199,-380.5 116,-380.5"/>
<text text-anchor="middle" x="157.5" y="-387.5" font-family="Helvetica,sans-Serif" font-size="10.00">PriorBoxLayer</text>
</a>
</g>
</g>
<!-- Node0&#45;&gt;Node22 -->
<g id="edge22" class="edge"><title>Node0&#45;&gt;Node22</title>
<path fill="none" stroke="midnightblue" d="M23.4718,-579.047C24.549,-540.41 32.6334,-455.13 81,-409 90.3897,-400.045 103.354,-395.134 115.892,-392.494"/>
<polygon fill="midnightblue" stroke="midnightblue" points="19.9666,-579.398 23.3257,-589.446 26.966,-579.496 19.9666,-579.398"/>
</g>
<!-- Node23 -->
<g id="node24" class="node"><title>Node23</title>
<g id="a_node24"><a xlink:href="classarm__compute_1_1graph_1_1frontend_1_1_reorg_layer.xhtml" target="_top" xlink:title="Reorg Layer.">
<polygon fill="white" stroke="black" points="122.5,-342.5 122.5,-361.5 192.5,-361.5 192.5,-342.5 122.5,-342.5"/>
<text text-anchor="middle" x="157.5" y="-349.5" font-family="Helvetica,sans-Serif" font-size="10.00">ReorgLayer</text>
</a>
</g>
</g>
<!-- Node0&#45;&gt;Node23 -->
<g id="edge23" class="edge"><title>Node0&#45;&gt;Node23</title>
<path fill="none" stroke="midnightblue" d="M25.8671,-579.34C32.2446,-529.609 51.3337,-400.651 81,-371 91.8027,-360.203 107.779,-355.236 122.257,-353.055"/>
<polygon fill="midnightblue" stroke="midnightblue" points="22.3727,-579.079 24.6091,-589.435 29.3189,-579.944 22.3727,-579.079"/>
</g>
<!-- Node24 -->
<g id="node25" class="node"><title>Node24</title>
<g id="a_node25"><a xlink:href="classarm__compute_1_1graph_1_1frontend_1_1_reshape_layer.xhtml" target="_top" xlink:title="Reshape Layer.">
<polygon fill="white" stroke="black" points="116,-304.5 116,-323.5 199,-323.5 199,-304.5 116,-304.5"/>
<text text-anchor="middle" x="157.5" y="-311.5" font-family="Helvetica,sans-Serif" font-size="10.00">ReshapeLayer</text>
</a>
</g>
</g>
<!-- Node0&#45;&gt;Node24 -->
<g id="edge24" class="edge"><title>Node0&#45;&gt;Node24</title>
<path fill="none" stroke="midnightblue" d="M25.1235,-579.083C30.0534,-523.513 46.6595,-368.516 81,-333 90.1135,-323.575 103.16,-318.564 115.851,-315.976"/>
<polygon fill="midnightblue" stroke="midnightblue" points="21.6101,-579.092 24.2465,-589.354 28.5847,-579.688 21.6101,-579.092"/>
</g>
<!-- Node25 -->
<g id="node26" class="node"><title>Node25</title>
<g id="a_node26"><a xlink:href="classarm__compute_1_1graph_1_1frontend_1_1_resize_layer.xhtml" target="_top" xlink:title="Resize Layer.">
<polygon fill="white" stroke="black" points="121,-266.5 121,-285.5 194,-285.5 194,-266.5 121,-266.5"/>
<text text-anchor="middle" x="157.5" y="-273.5" font-family="Helvetica,sans-Serif" font-size="10.00">ResizeLayer</text>
</a>
</g>
</g>
<!-- Node0&#45;&gt;Node25 -->
<g id="edge25" class="edge"><title>Node0&#45;&gt;Node25</title>
<path fill="none" stroke="midnightblue" d="M24.5358,-579.091C28.1049,-518.268 41.8991,-336.504 81,-295 91.1953,-284.178 106.569,-279.148 120.788,-276.931"/>
<polygon fill="midnightblue" stroke="midnightblue" points="21.0303,-579.095 23.9691,-589.274 28.0195,-579.484 21.0303,-579.095"/>
</g>
<!-- Node26 -->
<g id="node27" class="node"><title>Node26</title>
<g id="a_node27"><a xlink:href="classarm__compute_1_1graph_1_1frontend_1_1_r_o_i_align_layer.xhtml" target="_top" xlink:title="ROIAlign Layer.">
<polygon fill="white" stroke="black" points="116.5,-228.5 116.5,-247.5 198.5,-247.5 198.5,-228.5 116.5,-228.5"/>
<text text-anchor="middle" x="157.5" y="-235.5" font-family="Helvetica,sans-Serif" font-size="10.00">ROIAlignLayer</text>
</a>
</g>
</g>
<!-- Node0&#45;&gt;Node26 -->
<g id="edge26" class="edge"><title>Node0&#45;&gt;Node26</title>
<path fill="none" stroke="midnightblue" d="M24.0713,-579.231C26.3726,-513.626 37.0817,-304.579 81,-257 90.0761,-247.167 103.424,-242.098 116.381,-239.579"/>
<polygon fill="midnightblue" stroke="midnightblue" points="20.5666,-579.323 23.7423,-589.431 27.5629,-579.549 20.5666,-579.323"/>
</g>
<!-- Node27 -->
<g id="node28" class="node"><title>Node27</title>
<g id="a_node28"><a xlink:href="classarm__compute_1_1graph_1_1frontend_1_1_scale_layer.xhtml" target="_top" xlink:title="Scale Layer.">
<polygon fill="white" stroke="black" points="123,-190.5 123,-209.5 192,-209.5 192,-190.5 123,-190.5"/>
<text text-anchor="middle" x="157.5" y="-197.5" font-family="Helvetica,sans-Serif" font-size="10.00">ScaleLayer</text>
</a>
</g>
</g>
<!-- Node0&#45;&gt;Node27 -->
<g id="edge27" class="edge"><title>Node0&#45;&gt;Node27</title>
<path fill="none" stroke="midnightblue" d="M23.7022,-579.347C24.8299,-509.233 32.2449,-272.695 81,-219 91.5399,-207.392 108.03,-202.403 122.914,-200.417"/>
<polygon fill="midnightblue" stroke="midnightblue" points="20.2013,-579.403 23.5663,-589.45 27.2006,-579.498 20.2013,-579.403"/>
</g>
<!-- Node28 -->
<g id="node29" class="node"><title>Node28</title>
<g id="a_node29"><a xlink:href="classarm__compute_1_1graph_1_1frontend_1_1_slice_layer.xhtml" target="_top" xlink:title="Slice Layer.">
<polygon fill="white" stroke="black" points="125,-152.5 125,-171.5 190,-171.5 190,-152.5 125,-152.5"/>
<text text-anchor="middle" x="157.5" y="-159.5" font-family="Helvetica,sans-Serif" font-size="10.00">SliceLayer</text>
</a>
</g>
</g>
<!-- Node0&#45;&gt;Node28 -->
<g id="edge28" class="edge"><title>Node0&#45;&gt;Node28</title>
<path fill="none" stroke="midnightblue" d="M23.4024,-578.862C23.457,-503.681 27.5305,-240.69 81,-181 91.9123,-168.818 109.376,-163.907 124.76,-162.115"/>
<polygon fill="midnightblue" stroke="midnightblue" points="19.903,-579.262 23.4212,-589.256 26.903,-579.249 19.903,-579.262"/>
</g>
<!-- Node29 -->
<g id="node30" class="node"><title>Node29</title>
<g id="a_node30"><a xlink:href="classarm__compute_1_1graph_1_1frontend_1_1_softmax_layer.xhtml" target="_top" xlink:title="Softmax Layer.">
<polygon fill="white" stroke="black" points="116,-114.5 116,-133.5 199,-133.5 199,-114.5 116,-114.5"/>
<text text-anchor="middle" x="157.5" y="-121.5" font-family="Helvetica,sans-Serif" font-size="10.00">SoftmaxLayer</text>
</a>
</g>
</g>
<!-- Node0&#45;&gt;Node29 -->
<g id="edge29" class="edge"><title>Node0&#45;&gt;Node29</title>
<path fill="none" stroke="midnightblue" d="M23.1476,-579.085C22.1641,-499.956 22.6332,-208.901 81,-143 89.7824,-133.084 102.905,-127.976 115.758,-125.447"/>
<polygon fill="midnightblue" stroke="midnightblue" points="19.6491,-579.222 23.2965,-589.17 26.6484,-579.119 19.6491,-579.222"/>
</g>
<!-- Node30 -->
<g id="node31" class="node"><title>Node30</title>
<g id="a_node31"><a xlink:href="classarm__compute_1_1graph_1_1frontend_1_1_stack_layer.xhtml" target="_top" xlink:title="Stack Layer.">
<polygon fill="white" stroke="black" points="122.5,-76.5 122.5,-95.5 192.5,-95.5 192.5,-76.5 122.5,-76.5"/>
<text text-anchor="middle" x="157.5" y="-83.5" font-family="Helvetica,sans-Serif" font-size="10.00">StackLayer</text>
</a>
</g>
</g>
<!-- Node0&#45;&gt;Node30 -->
<g id="edge30" class="edge"><title>Node0&#45;&gt;Node30</title>
<path fill="none" stroke="midnightblue" d="M24.5087,-578.85C29.1011,-490.637 49.1909,-141.263 81,-105 91.2501,-93.3148 107.527,-88.2939 122.347,-86.3078"/>
<polygon fill="midnightblue" stroke="midnightblue" points="20.9999,-578.935 23.9842,-589.101 27.9907,-579.293 20.9999,-578.935"/>
</g>
<!-- Node31 -->
<g id="node32" class="node"><title>Node31</title>
<g id="a_node32"><a xlink:href="classarm__compute_1_1graph_1_1frontend_1_1_upsample_layer.xhtml" target="_top" xlink:title="Upsample Layer.">
<polygon fill="white" stroke="black" points="111.5,-38.5 111.5,-57.5 203.5,-57.5 203.5,-38.5 111.5,-38.5"/>
<text text-anchor="middle" x="157.5" y="-45.5" font-family="Helvetica,sans-Serif" font-size="10.00">UpsampleLayer</text>
</a>
</g>
</g>
<!-- Node0&#45;&gt;Node31 -->
<g id="edge31" class="edge"><title>Node0&#45;&gt;Node31</title>
<path fill="none" stroke="midnightblue" d="M24.3227,-579.076C28.2955,-487.105 46.7203,-106.404 81,-67 88.7181,-58.1281 99.9101,-53.092 111.323,-50.3091"/>
<polygon fill="midnightblue" stroke="midnightblue" points="20.8185,-579.103 23.8922,-589.243 27.8123,-579.4 20.8185,-579.103"/>
</g>
<!-- Node32 -->
<g id="node33" class="node"><title>Node32</title>
<g id="a_node33"><a xlink:href="classarm__compute_1_1graph_1_1frontend_1_1_y_o_l_o_layer.xhtml" target="_top" xlink:title="YOLO Layer.">
<polygon fill="white" stroke="black" points="123.5,-0.5 123.5,-19.5 191.5,-19.5 191.5,-0.5 123.5,-0.5"/>
<text text-anchor="middle" x="157.5" y="-7.5" font-family="Helvetica,sans-Serif" font-size="10.00">YOLOLayer</text>
</a>
</g>
</g>
<!-- Node0&#45;&gt;Node32 -->
<g id="edge32" class="edge"><title>Node0&#45;&gt;Node32</title>
<path fill="none" stroke="midnightblue" d="M24.1673,-579.194C27.5674,-483.46 44.2564,-71.5417 81,-29 91.4252,-16.9297 108.281,-11.9499 123.424,-10.0885"/>
<polygon fill="midnightblue" stroke="midnightblue" points="20.6597,-579.357 23.8108,-589.473 27.6554,-579.6 20.6597,-579.357"/>
</g>
</g>
</svg>
