<?xml version="1.0" encoding="UTF-8" standalone="no"?>
<!DOCTYPE svg PUBLIC "-//W3C//DTD SVG 1.1//EN"
 "http://www.w3.org/Graphics/SVG/1.1/DTD/svg11.dtd">
<!-- Generated by graphviz version 2.38.0 (20140413.2041)
 -->
<!-- Title: Graphical Class Hierarchy Pages: 1 -->
<svg width="277pt" height="370pt"
 viewBox="0.00 0.00 277.00 370.00" xmlns="http://www.w3.org/2000/svg" xmlns:xlink="http://www.w3.org/1999/xlink">
<g id="graph0" class="graph" transform="scale(1 1) rotate(0) translate(4 366)">
<title>Graphical Class Hierarchy</title>
<polygon fill="white" stroke="none" points="-4,4 -4,-366 273,-366 273,4 -4,4"/>
<!-- Node0 -->
<g id="node1" class="node"><title>Node0</title>
<g id="a_node1"><a xlink:href="classarm__compute_1_1graph_1_1_i_tensor_accessor.xhtml" target="_top" xlink:title="Tensor accessor interface.">
<polygon fill="white" stroke="black" points="0,-171.5 0,-190.5 93,-190.5 93,-171.5 0,-171.5"/>
<text text-anchor="middle" x="46.5" y="-178.5" font-family="Helvetica,sans-Serif" font-size="10.00">ITensorAccessor</text>
</a>
</g>
</g>
<!-- Node1 -->
<g id="node2" class="node"><title>Node1</title>
<g id="a_node2"><a xlink:href="classarm__compute_1_1graph__utils_1_1_detection_output_accessor.xhtml" target="_top" xlink:title="Detection output accessor class.">
<polygon fill="white" stroke="black" points="129,-342.5 129,-361.5 269,-361.5 269,-342.5 129,-342.5"/>
<text text-anchor="middle" x="199" y="-349.5" font-family="Helvetica,sans-Serif" font-size="10.00">DetectionOutputAccessor</text>
</a>
</g>
</g>
<!-- Node0&#45;&gt;Node1 -->
<g id="edge1" class="edge"><title>Node0&#45;&gt;Node1</title>
<path fill="none" stroke="midnightblue" d="M52.5397,-200.584C61.9336,-233.095 85.249,-298.077 129,-333 133.855,-336.876 139.446,-339.962 145.3,-342.42"/>
<polygon fill="midnightblue" stroke="midnightblue" points="55.806,-199.26 49.7869,-190.541 49.055,-201.111 55.806,-199.26"/>
</g>
<!-- Node2 -->
<g id="node3" class="node"><title>Node2</title>
<g id="a_node3"><a xlink:href="classarm__compute_1_1graph__utils_1_1_dummy_accessor.xhtml" target="_top" xlink:title="Dummy accessor class.">
<polygon fill="white" stroke="black" points="150,-304.5 150,-323.5 248,-323.5 248,-304.5 150,-304.5"/>
<text text-anchor="middle" x="199" y="-311.5" font-family="Helvetica,sans-Serif" font-size="10.00">DummyAccessor</text>
</a>
</g>
</g>
<!-- Node0&#45;&gt;Node2 -->
<g id="edge2" class="edge"><title>Node0&#45;&gt;Node2</title>
<path fill="none" stroke="midnightblue" d="M55.9769,-199.973C68.3439,-225.463 93.7571,-270.399 129,-295 135.215,-299.338 142.386,-302.688 149.704,-305.274"/>
<polygon fill="midnightblue" stroke="midnightblue" points="59.0231,-198.225 51.6166,-190.649 52.6822,-201.19 59.0231,-198.225"/>
</g>
<!-- Node3 -->
<g id="node4" class="node"><title>Node3</title>
<g id="a_node4"><a xlink:href="classarm__compute_1_1graph__utils_1_1_image_accessor.xhtml" target="_top" xlink:title="Image accessor class.">
<polygon fill="white" stroke="black" points="154,-266.5 154,-285.5 244,-285.5 244,-266.5 154,-266.5"/>
<text text-anchor="middle" x="199" y="-273.5" font-family="Helvetica,sans-Serif" font-size="10.00">ImageAccessor</text>
</a>
</g>
</g>
<!-- Node0&#45;&gt;Node3 -->
<g id="edge3" class="edge"><title>Node0&#45;&gt;Node3</title>
<path fill="none" stroke="midnightblue" d="M61.69,-198.449C76.6774,-215.759 101.86,-241.833 129,-257 136.592,-261.243 145.192,-264.586 153.68,-267.204"/>
<polygon fill="midnightblue" stroke="midnightblue" points="64.311,-196.127 55.1876,-190.741 58.9606,-200.641 64.311,-196.127"/>
</g>
<!-- Node4 -->
<g id="node5" class="node"><title>Node4</title>
<g id="a_node5"><a xlink:href="classarm__compute_1_1graph__utils_1_1_num_py_accessor.xhtml" target="_top" xlink:title="NumPy accessor class.">
<polygon fill="white" stroke="black" points="151.5,-228.5 151.5,-247.5 246.5,-247.5 246.5,-228.5 151.5,-228.5"/>
<text text-anchor="middle" x="199" y="-235.5" font-family="Helvetica,sans-Serif" font-size="10.00">NumPyAccessor</text>
</a>
</g>
</g>
<!-- Node0&#45;&gt;Node4 -->
<g id="edge4" class="edge"><title>Node0&#45;&gt;Node4</title>
<path fill="none" stroke="midnightblue" d="M74.9694,-195.214C90.5467,-202.916 110.557,-212.216 129,-219 138.562,-222.518 149.078,-225.731 158.955,-228.474"/>
<polygon fill="midnightblue" stroke="midnightblue" points="76.4044,-192.019 65.8967,-190.663 73.2654,-198.275 76.4044,-192.019"/>
</g>
<!-- Node5 -->
<g id="node6" class="node"><title>Node5</title>
<g id="a_node6"><a xlink:href="classarm__compute_1_1graph__utils_1_1_num_py_bin_loader.xhtml" target="_top" xlink:title="Numpy Binary loader class.">
<polygon fill="white" stroke="black" points="149.5,-190.5 149.5,-209.5 248.5,-209.5 248.5,-190.5 149.5,-190.5"/>
<text text-anchor="middle" x="199" y="-197.5" font-family="Helvetica,sans-Serif" font-size="10.00">NumPyBinLoader</text>
</a>
</g>
</g>
<!-- Node0&#45;&gt;Node5 -->
<g id="edge5" class="edge"><title>Node0&#45;&gt;Node5</title>
<path fill="none" stroke="midnightblue" d="M103.334,-188.049C118.478,-189.961 134.747,-192.015 149.454,-193.871"/>
<polygon fill="midnightblue" stroke="midnightblue" points="103.423,-184.532 93.0634,-186.752 102.546,-191.477 103.423,-184.532"/>
</g>
<!-- Node6 -->
<g id="node7" class="node"><title>Node6</title>
<g id="a_node7"><a xlink:href="classarm__compute_1_1graph__utils_1_1_p_p_m_writer.xhtml" target="_top" xlink:title="PPM writer class.">
<polygon fill="white" stroke="black" points="167,-152.5 167,-171.5 231,-171.5 231,-152.5 167,-152.5"/>
<text text-anchor="middle" x="199" y="-159.5" font-family="Helvetica,sans-Serif" font-size="10.00">PPMWriter</text>
</a>
</g>
</g>
<!-- Node0&#45;&gt;Node6 -->
<g id="edge6" class="edge"><title>Node0&#45;&gt;Node6</title>
<path fill="none" stroke="midnightblue" d="M103.093,-173.982C124.633,-171.262 148.484,-168.251 166.888,-165.928"/>
<polygon fill="midnightblue" stroke="midnightblue" points="102.546,-170.523 93.0634,-175.248 103.423,-177.468 102.546,-170.523"/>
</g>
<!-- Node7 -->
<g id="node8" class="node"><title>Node7</title>
<g id="a_node8"><a xlink:href="classarm__compute_1_1graph__utils_1_1_random_accessor.xhtml" target="_top" xlink:title="Random accessor class.">
<polygon fill="white" stroke="black" points="149,-114.5 149,-133.5 249,-133.5 249,-114.5 149,-114.5"/>
<text text-anchor="middle" x="199" y="-121.5" font-family="Helvetica,sans-Serif" font-size="10.00">RandomAccessor</text>
</a>
</g>
</g>
<!-- Node0&#45;&gt;Node7 -->
<g id="edge7" class="edge"><title>Node0&#45;&gt;Node7</title>
<path fill="none" stroke="midnightblue" d="M74.9694,-166.786C90.5467,-159.084 110.557,-149.784 129,-143 138.562,-139.482 149.078,-136.269 158.955,-133.526"/>
<polygon fill="midnightblue" stroke="midnightblue" points="73.2654,-163.725 65.8967,-171.337 76.4044,-169.981 73.2654,-163.725"/>
</g>
<!-- Node8 -->
<g id="node9" class="node"><title>Node8</title>
<g id="a_node9"><a xlink:href="classarm__compute_1_1graph__utils_1_1_top_n_predictions_accessor.xhtml" target="_top" xlink:title="Result accessor class.">
<polygon fill="white" stroke="black" points="131,-76.5 131,-95.5 267,-95.5 267,-76.5 131,-76.5"/>
<text text-anchor="middle" x="199" y="-83.5" font-family="Helvetica,sans-Serif" font-size="10.00">TopNPredictionsAccessor</text>
</a>
</g>
</g>
<!-- Node0&#45;&gt;Node8 -->
<g id="edge8" class="edge"><title>Node0&#45;&gt;Node8</title>
<path fill="none" stroke="midnightblue" d="M61.69,-163.551C76.6774,-146.241 101.86,-120.167 129,-105 135.833,-101.181 143.482,-98.0916 151.131,-95.6031"/>
<polygon fill="midnightblue" stroke="midnightblue" points="58.9606,-161.359 55.1876,-171.259 64.311,-165.873 58.9606,-161.359"/>
</g>
<!-- Node9 -->
<g id="node10" class="node"><title>Node9</title>
<g id="a_node10"><a xlink:href="classarm__compute_1_1graph__utils_1_1_validation_input_accessor.xhtml" target="_top" xlink:title="Input Accessor used for network validation.">
<polygon fill="white" stroke="black" points="133.5,-38.5 133.5,-57.5 264.5,-57.5 264.5,-38.5 133.5,-38.5"/>
<text text-anchor="middle" x="199" y="-45.5" font-family="Helvetica,sans-Serif" font-size="10.00">ValidationInputAccessor</text>
</a>
</g>
</g>
<!-- Node0&#45;&gt;Node9 -->
<g id="edge9" class="edge"><title>Node0&#45;&gt;Node9</title>
<path fill="none" stroke="midnightblue" d="M55.9769,-162.027C68.3439,-136.537 93.7571,-91.6014 129,-67 134.604,-63.0884 140.984,-59.9806 147.549,-57.5117"/>
<polygon fill="midnightblue" stroke="midnightblue" points="52.6822,-160.81 51.6166,-171.351 59.0231,-163.775 52.6822,-160.81"/>
</g>
<!-- Node10 -->
<g id="node11" class="node"><title>Node10</title>
<g id="a_node11"><a xlink:href="classarm__compute_1_1graph__utils_1_1_validation_output_accessor.xhtml" target="_top" xlink:title="Output Accessor used for network validation.">
<polygon fill="white" stroke="black" points="129,-0.5 129,-19.5 269,-19.5 269,-0.5 129,-0.5"/>
<text text-anchor="middle" x="199" y="-7.5" font-family="Helvetica,sans-Serif" font-size="10.00">ValidationOutputAccessor</text>
</a>
</g>
</g>
<!-- Node0&#45;&gt;Node10 -->
<g id="edge10" class="edge"><title>Node0&#45;&gt;Node10</title>
<path fill="none" stroke="midnightblue" d="M52.5397,-161.416C61.9336,-128.905 85.249,-63.9235 129,-29 133.855,-25.1243 139.446,-22.0378 145.3,-19.58"/>
<polygon fill="midnightblue" stroke="midnightblue" points="49.055,-160.889 49.7869,-171.459 55.806,-162.74 49.055,-160.889"/>
</g>
</g>
</svg>
