<?xml version="1.0" encoding="UTF-8" standalone="no"?>
<!DOCTYPE svg PUBLIC "-//W3C//DTD SVG 1.1//EN"
 "http://www.w3.org/Graphics/SVG/1.1/DTD/svg11.dtd">
<!-- Generated by graphviz version 2.38.0 (20140413.2041)
 -->
<!-- Title: Graphical Class Hierarchy Pages: 1 -->
<svg width="241pt" height="701pt"
 viewBox="0.00 0.00 241.00 700.50" xmlns="http://www.w3.org/2000/svg" xmlns:xlink="http://www.w3.org/1999/xlink">
<g id="graph0" class="graph" transform="scale(1 1) rotate(0) translate(4 696.5)">
<title>Graphical Class Hierarchy</title>
<polygon fill="white" stroke="none" points="-4,4 -4,-696.5 237,-696.5 237,4 -4,4"/>
<!-- Node1 -->
<g id="node1" class="node"><title>Node1</title>
<polygon fill="white" stroke="#bfbfbf" points="0,-330.5 0,-349.5 72,-349.5 72,-330.5 0,-330.5"/>
<text text-anchor="middle" x="36" y="-337.5" font-family="Helvetica,sans-Serif" font-size="10.00">static_visitor</text>
</g>
<!-- Node2 -->
<g id="node2" class="node"><title>Node2</title>
<g id="a_node2"><a xlink:href="structarm__compute_1_1test_1_1validation_1_1tensor__visitors_1_1absolute__difference__visitor.xhtml" target="_top" xlink:title="absolute_difference\l_visitor">
<polygon fill="white" stroke="black" points="120,-662 120,-692 221,-692 221,-662 120,-662"/>
<text text-anchor="start" x="128" y="-680" font-family="Helvetica,sans-Serif" font-size="10.00">absolute_difference</text>
<text text-anchor="middle" x="170.5" y="-669" font-family="Helvetica,sans-Serif" font-size="10.00">_visitor</text>
</a>
</g>
</g>
<!-- Node1&#45;&gt;Node2 -->
<g id="edge1" class="edge"><title>Node1&#45;&gt;Node2</title>
<path fill="none" stroke="midnightblue" d="M39.1152,-359.819C46.0282,-421.236 69.7342,-606.957 108,-652 111.358,-655.953 115.436,-659.288 119.876,-662.101"/>
<polygon fill="midnightblue" stroke="midnightblue" points="42.5598,-359.122 37.9885,-349.564 35.6017,-359.887 42.5598,-359.122"/>
</g>
<!-- Node3 -->
<g id="node3" class="node"><title>Node3</title>
<g id="a_node3"><a xlink:href="structarm__compute_1_1test_1_1validation_1_1tensor__visitors_1_1activation__layer__visitor.xhtml" target="_top" xlink:title="activation_layer_visitor">
<polygon fill="white" stroke="black" points="112.5,-623.5 112.5,-642.5 228.5,-642.5 228.5,-623.5 112.5,-623.5"/>
<text text-anchor="middle" x="170.5" y="-630.5" font-family="Helvetica,sans-Serif" font-size="10.00">activation_layer_visitor</text>
</a>
</g>
</g>
<!-- Node1&#45;&gt;Node3 -->
<g id="edge2" class="edge"><title>Node1&#45;&gt;Node3</title>
<path fill="none" stroke="midnightblue" d="M39.5984,-359.722C47.4099,-416.165 72.3604,-576.679 108,-614 111.705,-617.879 116.182,-620.972 121.012,-623.436"/>
<polygon fill="midnightblue" stroke="midnightblue" points="43.0398,-359.053 38.2301,-349.613 36.103,-359.992 43.0398,-359.053"/>
</g>
<!-- Node4 -->
<g id="node4" class="node"><title>Node4</title>
<g id="a_node4"><a xlink:href="structarm__compute_1_1test_1_1validation_1_1tensor__visitors_1_1arithmetic__addition__visitor.xhtml" target="_top" xlink:title="arithmetic_addition\l_visitor">
<polygon fill="white" stroke="black" points="121.5,-574 121.5,-604 219.5,-604 219.5,-574 121.5,-574"/>
<text text-anchor="start" x="129.5" y="-592" font-family="Helvetica,sans-Serif" font-size="10.00">arithmetic_addition</text>
<text text-anchor="middle" x="170.5" y="-581" font-family="Helvetica,sans-Serif" font-size="10.00">_visitor</text>
</a>
</g>
</g>
<!-- Node1&#45;&gt;Node4 -->
<g id="edge3" class="edge"><title>Node1&#45;&gt;Node4</title>
<path fill="none" stroke="midnightblue" d="M37.7179,-359.79C40.3236,-402.768 52.3697,-505.547 108,-565 111.837,-569.101 116.458,-572.511 121.423,-575.345"/>
<polygon fill="midnightblue" stroke="midnightblue" points="41.2016,-359.371 37.2129,-349.556 34.2101,-359.716 41.2016,-359.371"/>
</g>
<!-- Node5 -->
<g id="node5" class="node"><title>Node5</title>
<g id="a_node5"><a xlink:href="structarm__compute_1_1test_1_1validation_1_1tensor__visitors_1_1arithmetic__subtraction__visitor.xhtml" target="_top" xlink:title="arithmetic_subtraction\l_visitor">
<polygon fill="white" stroke="black" points="114,-525 114,-555 227,-555 227,-525 114,-525"/>
<text text-anchor="start" x="122" y="-543" font-family="Helvetica,sans-Serif" font-size="10.00">arithmetic_subtraction</text>
<text text-anchor="middle" x="170.5" y="-532" font-family="Helvetica,sans-Serif" font-size="10.00">_visitor</text>
</a>
</g>
</g>
<!-- Node1&#45;&gt;Node5 -->
<g id="edge4" class="edge"><title>Node1&#45;&gt;Node5</title>
<path fill="none" stroke="midnightblue" d="M39.8097,-360.062C45.8634,-396.043 63.3906,-471.895 108,-516 111.423,-519.384 115.378,-522.304 119.599,-524.821"/>
<polygon fill="midnightblue" stroke="midnightblue" points="43.2204,-359.217 38.2275,-349.872 36.3032,-360.291 43.2204,-359.217"/>
</g>
<!-- Node6 -->
<g id="node6" class="node"><title>Node6</title>
<g id="a_node6"><a xlink:href="structarm__compute_1_1test_1_1validation_1_1tensor__visitors_1_1batch__normalization__layer__visitor.xhtml" target="_top" xlink:title="batch_normalization\l_layer_visitor">
<polygon fill="white" stroke="black" points="118.5,-476 118.5,-506 222.5,-506 222.5,-476 118.5,-476"/>
<text text-anchor="start" x="126.5" y="-494" font-family="Helvetica,sans-Serif" font-size="10.00">batch_normalization</text>
<text text-anchor="middle" x="170.5" y="-483" font-family="Helvetica,sans-Serif" font-size="10.00">_layer_visitor</text>
</a>
</g>
</g>
<!-- Node1&#45;&gt;Node6 -->
<g id="edge5" class="edge"><title>Node1&#45;&gt;Node6</title>
<path fill="none" stroke="midnightblue" d="M43.2158,-359.183C52.9443,-386.414 74.2261,-436.266 108,-466 112.325,-469.808 117.307,-473.082 122.524,-475.886"/>
<polygon fill="midnightblue" stroke="midnightblue" points="46.4979,-357.964 39.9502,-349.635 39.8746,-360.229 46.4979,-357.964"/>
</g>
<!-- Node7 -->
<g id="node7" class="node"><title>Node7</title>
<g id="a_node7"><a xlink:href="structarm__compute_1_1test_1_1validation_1_1tensor__visitors_1_1convolution__layer__visitor.xhtml" target="_top" xlink:title="convolution_layer_visitor">
<polygon fill="white" stroke="black" points="108.5,-437.5 108.5,-456.5 232.5,-456.5 232.5,-437.5 108.5,-437.5"/>
<text text-anchor="middle" x="170.5" y="-444.5" font-family="Helvetica,sans-Serif" font-size="10.00">convolution_layer_visitor</text>
</a>
</g>
</g>
<!-- Node1&#45;&gt;Node7 -->
<g id="edge6" class="edge"><title>Node1&#45;&gt;Node7</title>
<path fill="none" stroke="midnightblue" d="M47.1855,-358.252C59.2188,-378.195 81.0507,-409.73 108,-428 113.642,-431.825 120.088,-434.906 126.633,-437.381"/>
<polygon fill="midnightblue" stroke="midnightblue" points="50.1452,-356.38 42.0858,-349.503 44.0975,-359.905 50.1452,-356.38"/>
</g>
<!-- Node8 -->
<g id="node8" class="node"><title>Node8</title>
<g id="a_node8"><a xlink:href="structarm__compute_1_1test_1_1validation_1_1tensor__visitors_1_1depth__convert__visitor.xhtml" target="_top" xlink:title="depth_convert_visitor">
<polygon fill="white" stroke="black" points="115.5,-399.5 115.5,-418.5 225.5,-418.5 225.5,-399.5 115.5,-399.5"/>
<text text-anchor="middle" x="170.5" y="-406.5" font-family="Helvetica,sans-Serif" font-size="10.00">depth_convert_visitor</text>
</a>
</g>
</g>
<!-- Node1&#45;&gt;Node8 -->
<g id="edge7" class="edge"><title>Node1&#45;&gt;Node8</title>
<path fill="none" stroke="midnightblue" d="M56.5017,-356.274C70.2054,-367.052 89.3515,-380.84 108,-390 115.523,-393.695 123.916,-396.856 132.024,-399.479"/>
<polygon fill="midnightblue" stroke="midnightblue" points="58.3264,-353.249 48.3423,-349.704 53.9365,-358.702 58.3264,-353.249"/>
</g>
<!-- Node9 -->
<g id="node9" class="node"><title>Node9</title>
<g id="a_node9"><a xlink:href="structarm__compute_1_1test_1_1validation_1_1tensor__visitors_1_1fixed__point__operation__visitor.xhtml" target="_top" xlink:title="fixed_point_operation\l_visitor">
<polygon fill="white" stroke="black" points="116,-350 116,-380 225,-380 225,-350 116,-350"/>
<text text-anchor="start" x="124" y="-368" font-family="Helvetica,sans-Serif" font-size="10.00">fixed_point_operation</text>
<text text-anchor="middle" x="170.5" y="-357" font-family="Helvetica,sans-Serif" font-size="10.00">_visitor</text>
</a>
</g>
</g>
<!-- Node1&#45;&gt;Node9 -->
<g id="edge8" class="edge"><title>Node1&#45;&gt;Node9</title>
<path fill="none" stroke="midnightblue" d="M82.2514,-348.538C93.0899,-350.583 104.765,-352.786 115.939,-354.894"/>
<polygon fill="midnightblue" stroke="midnightblue" points="82.6353,-345.049 72.1597,-346.634 81.3374,-351.927 82.6353,-345.049"/>
</g>
<!-- Node10 -->
<g id="node10" class="node"><title>Node10</title>
<g id="a_node10"><a xlink:href="structarm__compute_1_1test_1_1validation_1_1tensor__visitors_1_1fixed__point__pixel__wise__multiplication__visitor.xhtml" target="_top" xlink:title="fixed_point_pixel_wise\l_multiplication_visitor">
<polygon fill="white" stroke="black" points="113,-301 113,-331 228,-331 228,-301 113,-301"/>
<text text-anchor="start" x="121" y="-319" font-family="Helvetica,sans-Serif" font-size="10.00">fixed_point_pixel_wise</text>
<text text-anchor="middle" x="170.5" y="-308" font-family="Helvetica,sans-Serif" font-size="10.00">_multiplication_visitor</text>
</a>
</g>
</g>
<!-- Node1&#45;&gt;Node10 -->
<g id="edge9" class="edge"><title>Node1&#45;&gt;Node10</title>
<path fill="none" stroke="midnightblue" d="M82.1633,-331.819C92.0463,-330.029 102.628,-328.113 112.894,-326.253"/>
<polygon fill="midnightblue" stroke="midnightblue" points="81.3757,-328.405 72.1597,-333.631 82.6234,-335.293 81.3757,-328.405"/>
</g>
<!-- Node11 -->
<g id="node11" class="node"><title>Node11</title>
<g id="a_node11"><a xlink:href="structarm__compute_1_1test_1_1validation_1_1tensor__visitors_1_1fully__connected__layer__visitor.xhtml" target="_top" xlink:title="fully_connected_layer\l_visitor">
<polygon fill="white" stroke="black" points="115,-252 115,-282 226,-282 226,-252 115,-252"/>
<text text-anchor="start" x="123" y="-270" font-family="Helvetica,sans-Serif" font-size="10.00">fully_connected_layer</text>
<text text-anchor="middle" x="170.5" y="-259" font-family="Helvetica,sans-Serif" font-size="10.00">_visitor</text>
</a>
</g>
</g>
<!-- Node1&#45;&gt;Node11 -->
<g id="edge10" class="edge"><title>Node1&#45;&gt;Node11</title>
<path fill="none" stroke="midnightblue" d="M57.6068,-324.384C71.4064,-314.356 90.2335,-301.483 108,-292 114.609,-288.472 121.827,-285.124 128.918,-282.092"/>
<polygon fill="midnightblue" stroke="midnightblue" points="55.2916,-321.743 49.3261,-330.499 59.4497,-327.374 55.2916,-321.743"/>
</g>
<!-- Node12 -->
<g id="node12" class="node"><title>Node12</title>
<g id="a_node12"><a xlink:href="structarm__compute_1_1test_1_1validation_1_1tensor__visitors_1_1gemm__visitor.xhtml" target="_top" xlink:title="gemm_visitor">
<polygon fill="white" stroke="black" points="133,-213.5 133,-232.5 208,-232.5 208,-213.5 133,-213.5"/>
<text text-anchor="middle" x="170.5" y="-220.5" font-family="Helvetica,sans-Serif" font-size="10.00">gemm_visitor</text>
</a>
</g>
</g>
<!-- Node1&#45;&gt;Node12 -->
<g id="edge11" class="edge"><title>Node1&#45;&gt;Node12</title>
<path fill="none" stroke="midnightblue" d="M46.0871,-321.251C57.5884,-299.418 79.3982,-263.709 108,-243 115.366,-237.667 124.228,-233.706 132.901,-230.783"/>
<polygon fill="midnightblue" stroke="midnightblue" points="42.8154,-319.964 41.4123,-330.466 49.058,-323.131 42.8154,-319.964"/>
</g>
<!-- Node13 -->
<g id="node13" class="node"><title>Node13</title>
<g id="a_node13"><a xlink:href="structarm__compute_1_1test_1_1validation_1_1tensor__visitors_1_1normalization__layer__visitor.xhtml" target="_top" xlink:title="normalization_layer\l_visitor">
<polygon fill="white" stroke="black" points="120,-164 120,-194 221,-194 221,-164 120,-164"/>
<text text-anchor="start" x="128" y="-182" font-family="Helvetica,sans-Serif" font-size="10.00">normalization_layer</text>
<text text-anchor="middle" x="170.5" y="-171" font-family="Helvetica,sans-Serif" font-size="10.00">_visitor</text>
</a>
</g>
</g>
<!-- Node1&#45;&gt;Node13 -->
<g id="edge12" class="edge"><title>Node1&#45;&gt;Node13</title>
<path fill="none" stroke="midnightblue" d="M42.4102,-320.546C51.4295,-291.457 72.1768,-236.571 108,-204 112.179,-200.201 117.011,-196.94 122.093,-194.151"/>
<polygon fill="midnightblue" stroke="midnightblue" points="38.9961,-319.749 39.5207,-330.331 45.7095,-321.732 38.9961,-319.749"/>
</g>
<!-- Node14 -->
<g id="node14" class="node"><title>Node14</title>
<g id="a_node14"><a xlink:href="structarm__compute_1_1test_1_1validation_1_1tensor__visitors_1_1pixel__wise__multiplication__visitor.xhtml" target="_top" xlink:title="pixel_wise_multiplication\l_visitor">
<polygon fill="white" stroke="black" points="108,-115 108,-145 233,-145 233,-115 108,-115"/>
<text text-anchor="start" x="116" y="-133" font-family="Helvetica,sans-Serif" font-size="10.00">pixel_wise_multiplication</text>
<text text-anchor="middle" x="170.5" y="-122" font-family="Helvetica,sans-Serif" font-size="10.00">_visitor</text>
</a>
</g>
</g>
<!-- Node1&#45;&gt;Node14 -->
<g id="edge13" class="edge"><title>Node1&#45;&gt;Node14</title>
<path fill="none" stroke="midnightblue" d="M39.4121,-320.01C44.9182,-282.749 61.7251,-202.193 108,-155 111.793,-151.132 116.266,-147.842 121.041,-145.047"/>
<polygon fill="midnightblue" stroke="midnightblue" points="35.9195,-319.719 38.046,-330.098 42.8562,-320.659 35.9195,-319.719"/>
</g>
<!-- Node15 -->
<g id="node15" class="node"><title>Node15</title>
<g id="a_node15"><a xlink:href="structarm__compute_1_1test_1_1validation_1_1tensor__visitors_1_1pooling__layer__visitor.xhtml" target="_top" xlink:title="pooling_layer_visitor">
<polygon fill="white" stroke="black" points="118,-76.5 118,-95.5 223,-95.5 223,-76.5 118,-76.5"/>
<text text-anchor="middle" x="170.5" y="-83.5" font-family="Helvetica,sans-Serif" font-size="10.00">pooling_layer_visitor</text>
</a>
</g>
</g>
<!-- Node1&#45;&gt;Node15 -->
<g id="edge14" class="edge"><title>Node1&#45;&gt;Node15</title>
<path fill="none" stroke="midnightblue" d="M37.1611,-320.373C38.6063,-275.939 48.3979,-166.796 108,-106 112.244,-101.671 117.435,-98.2778 122.983,-95.6191"/>
<polygon fill="midnightblue" stroke="midnightblue" points="33.6607,-320.359 36.946,-330.431 40.6591,-320.509 33.6607,-320.359"/>
</g>
<!-- Node16 -->
<g id="node16" class="node"><title>Node16</title>
<g id="a_node16"><a xlink:href="structarm__compute_1_1test_1_1validation_1_1tensor__visitors_1_1print__visitor.xhtml" target="_top" xlink:title="print_visitor">
<polygon fill="white" stroke="black" points="137,-38.5 137,-57.5 204,-57.5 204,-38.5 137,-38.5"/>
<text text-anchor="middle" x="170.5" y="-45.5" font-family="Helvetica,sans-Serif" font-size="10.00">print_visitor</text>
</a>
</g>
</g>
<!-- Node1&#45;&gt;Node16 -->
<g id="edge15" class="edge"><title>Node1&#45;&gt;Node16</title>
<path fill="none" stroke="midnightblue" d="M39.6086,-320.349C47.4477,-264.11 72.4657,-104.178 108,-67 115.567,-59.0831 126.353,-54.4432 136.785,-51.7315"/>
<polygon fill="midnightblue" stroke="midnightblue" points="36.1183,-320.041 38.2352,-330.422 43.0541,-320.987 36.1183,-320.041"/>
</g>
<!-- Node17 -->
<g id="node17" class="node"><title>Node17</title>
<g id="a_node17"><a xlink:href="structarm__compute_1_1test_1_1validation_1_1tensor__visitors_1_1softmax__layer__visitor.xhtml" target="_top" xlink:title="softmax_layer_visitor">
<polygon fill="white" stroke="black" points="115.5,-0.5 115.5,-19.5 225.5,-19.5 225.5,-0.5 115.5,-0.5"/>
<text text-anchor="middle" x="170.5" y="-7.5" font-family="Helvetica,sans-Serif" font-size="10.00">softmax_layer_visitor</text>
</a>
</g>
</g>
<!-- Node1&#45;&gt;Node17 -->
<g id="edge16" class="edge"><title>Node1&#45;&gt;Node17</title>
<path fill="none" stroke="midnightblue" d="M38.9611,-320.099C45.4193,-258.451 67.9308,-72.2014 108,-29 111.572,-25.1491 115.905,-22.0718 120.6,-19.6138"/>
<polygon fill="midnightblue" stroke="midnightblue" points="35.4439,-320.091 37.912,-330.394 42.4078,-320.801 35.4439,-320.091"/>
</g>
</g>
</svg>
