<?xml version="1.0" encoding="UTF-8" standalone="no"?>
<!DOCTYPE svg PUBLIC "-//W3C//DTD SVG 1.1//EN"
 "http://www.w3.org/Graphics/SVG/1.1/DTD/svg11.dtd">
<!-- Generated by graphviz version 2.38.0 (20140413.2041)
 -->
<!-- Title: Graphical Class Hierarchy Pages: 1 -->
<svg width="179pt" height="104pt"
 viewBox="0.00 0.00 179.00 104.00" xmlns="http://www.w3.org/2000/svg" xmlns:xlink="http://www.w3.org/1999/xlink">
<g id="graph0" class="graph" transform="scale(1 1) rotate(0) translate(4 100)">
<title>Graphical Class Hierarchy</title>
<polygon fill="white" stroke="none" points="-4,4 -4,-100 175,-100 175,4 -4,4"/>
<!-- Node0 -->
<g id="node1" class="node"><title>Node0</title>
<g id="a_node1"><a xlink:href="classarm__compute_1_1_i_c_l_tuner.xhtml" target="_top" xlink:title="Basic interface for tuning the OpenCL kernels.">
<polygon fill="white" stroke="black" points="0,-38.5 0,-57.5 55,-57.5 55,-38.5 0,-38.5"/>
<text text-anchor="middle" x="27.5" y="-45.5" font-family="Helvetica,sans-Serif" font-size="10.00">ICLTuner</text>
</a>
</g>
</g>
<!-- Node1 -->
<g id="node2" class="node"><title>Node1</title>
<g id="a_node2"><a xlink:href="classarm__compute_1_1_c_l_tuner.xhtml" target="_top" xlink:title="Basic implementation of the OpenCL tuner interface.">
<polygon fill="white" stroke="black" points="104.5,-76.5 104.5,-95.5 157.5,-95.5 157.5,-76.5 104.5,-76.5"/>
<text text-anchor="middle" x="131" y="-83.5" font-family="Helvetica,sans-Serif" font-size="10.00">CLTuner</text>
</a>
</g>
</g>
<!-- Node0&#45;&gt;Node1 -->
<g id="edge1" class="edge"><title>Node0&#45;&gt;Node1</title>
<path fill="none" stroke="midnightblue" d="M63.5389,-61.118C76.9634,-66.1439 92.0152,-71.7791 104.395,-76.4141"/>
<polygon fill="midnightblue" stroke="midnightblue" points="64.7051,-57.8174 54.1127,-57.589 62.2507,-64.3731 64.7051,-57.8174"/>
</g>
<!-- Node2 -->
<g id="node3" class="node"><title>Node2</title>
<g id="a_node3"><a xlink:href="classarm__compute_1_1tuners_1_1_bifrost_tuner.xhtml" target="_top" xlink:title="Bifrost based OpenCL tuner implementation.">
<polygon fill="white" stroke="black" points="94.5,-38.5 94.5,-57.5 167.5,-57.5 167.5,-38.5 94.5,-38.5"/>
<text text-anchor="middle" x="131" y="-45.5" font-family="Helvetica,sans-Serif" font-size="10.00">BifrostTuner</text>
</a>
</g>
</g>
<!-- Node0&#45;&gt;Node2 -->
<g id="edge2" class="edge"><title>Node0&#45;&gt;Node2</title>
<path fill="none" stroke="midnightblue" d="M65.4431,-48C74.871,-48 84.9869,-48 94.3487,-48"/>
<polygon fill="midnightblue" stroke="midnightblue" points="65.168,-44.5001 55.1679,-48 65.1679,-51.5001 65.168,-44.5001"/>
</g>
<!-- Node3 -->
<g id="node4" class="node"><title>Node3</title>
<g id="a_node4"><a xlink:href="classarm__compute_1_1tuners_1_1_midgard_tuner.xhtml" target="_top" xlink:title="Midgard based OpenCL tuner implementation.">
<polygon fill="white" stroke="black" points="91,-0.5 91,-19.5 171,-19.5 171,-0.5 91,-0.5"/>
<text text-anchor="middle" x="131" y="-7.5" font-family="Helvetica,sans-Serif" font-size="10.00">MidgardTuner</text>
</a>
</g>
</g>
<!-- Node0&#45;&gt;Node3 -->
<g id="edge3" class="edge"><title>Node0&#45;&gt;Node3</title>
<path fill="none" stroke="midnightblue" d="M63.5389,-34.882C76.9634,-29.8561 92.0152,-24.2209 104.395,-19.5859"/>
<polygon fill="midnightblue" stroke="midnightblue" points="62.2507,-31.6269 54.1127,-38.411 64.7051,-38.1826 62.2507,-31.6269"/>
</g>
</g>
</svg>
