<?xml version="1.0" encoding="UTF-8" standalone="no"?>
<!DOCTYPE svg PUBLIC "-//W3C//DTD SVG 1.1//EN"
 "http://www.w3.org/Graphics/SVG/1.1/DTD/svg11.dtd">
<!-- Generated by graphviz version 2.38.0 (20140413.2041)
 -->
<!-- Title: Graphical Class Hierarchy Pages: 1 -->
<svg width="271pt" height="123pt"
 viewBox="0.00 0.00 271.00 123.00" xmlns="http://www.w3.org/2000/svg" xmlns:xlink="http://www.w3.org/1999/xlink">
<g id="graph0" class="graph" transform="scale(1 1) rotate(0) translate(4 119)">
<title>Graphical Class Hierarchy</title>
<polygon fill="white" stroke="none" points="-4,4 -4,-119 267,-119 267,4 -4,4"/>
<!-- Node1 -->
<g id="node1" class="node"><title>Node1</title>
<g id="a_node1"><a xlink:href="classarm__compute_1_1_i_tensor.xhtml" target="_top" xlink:title="Interface for NEON tensor. ">
<polygon fill="white" stroke="black" points="0,-38.5 0,-57.5 50,-57.5 50,-38.5 0,-38.5"/>
<text text-anchor="middle" x="25" y="-45.5" font-family="Helvetica" font-size="10.00">ITensor</text>
</a>
</g>
</g>
<!-- Node2 -->
<g id="node2" class="node"><title>Node2</title>
<g id="a_node2"><a xlink:href="classarm__compute_1_1_i_c_l_tensor.xhtml" target="_top" xlink:title="Interface for OpenCL tensor. ">
<polygon fill="white" stroke="black" points="87,-76.5 87,-95.5 149,-95.5 149,-76.5 87,-76.5"/>
<text text-anchor="middle" x="118" y="-83.5" font-family="Helvetica" font-size="10.00">ICLTensor</text>
</a>
</g>
</g>
<!-- Node1&#45;&gt;Node2 -->
<g id="edge1" class="edge"><title>Node1&#45;&gt;Node2</title>
<path fill="none" stroke="midnightblue" d="M58.4694,-61.5587C70.234,-66.4714 83.268,-71.9141 94.0442,-76.4141"/>
<polygon fill="midnightblue" stroke="midnightblue" points="59.5396,-58.2127 48.9631,-57.589 56.8422,-64.6721 59.5396,-58.2127"/>
</g>
<!-- Node5 -->
<g id="node5" class="node"><title>Node5</title>
<g id="a_node5"><a xlink:href="classarm__compute_1_1_sub_tensor.xhtml" target="_top" xlink:title="Basic implementation of the sub&#45;tensor interface. ">
<polygon fill="white" stroke="black" points="86,-38.5 86,-57.5 150,-57.5 150,-38.5 86,-38.5"/>
<text text-anchor="middle" x="118" y="-45.5" font-family="Helvetica" font-size="10.00">SubTensor</text>
</a>
</g>
</g>
<!-- Node1&#45;&gt;Node5 -->
<g id="edge4" class="edge"><title>Node1&#45;&gt;Node5</title>
<path fill="none" stroke="midnightblue" d="M60.4999,-48C68.7727,-48 77.5615,-48 85.681,-48"/>
<polygon fill="midnightblue" stroke="midnightblue" points="60.3864,-44.5001 50.3863,-48 60.3863,-51.5001 60.3864,-44.5001"/>
</g>
<!-- Node6 -->
<g id="node6" class="node"><title>Node6</title>
<g id="a_node6"><a xlink:href="classarm__compute_1_1_tensor.xhtml" target="_top" xlink:title="Basic implementation of the tensor interface. ">
<polygon fill="white" stroke="black" points="94.5,-0.5 94.5,-19.5 141.5,-19.5 141.5,-0.5 94.5,-0.5"/>
<text text-anchor="middle" x="118" y="-7.5" font-family="Helvetica" font-size="10.00">Tensor</text>
</a>
</g>
</g>
<!-- Node1&#45;&gt;Node6 -->
<g id="edge5" class="edge"><title>Node1&#45;&gt;Node6</title>
<path fill="none" stroke="midnightblue" d="M58.5449,-34.4098C70.4048,-29.4574 83.5457,-23.9699 94.3594,-19.4543"/>
<polygon fill="midnightblue" stroke="midnightblue" points="56.8422,-31.3279 48.9631,-38.411 59.5396,-37.7873 56.8422,-31.3279"/>
</g>
<!-- Node3 -->
<g id="node3" class="node"><title>Node3</title>
<g id="a_node3"><a xlink:href="classarm__compute_1_1_c_l_sub_tensor.xhtml" target="_top" xlink:title="Basic implementation of the OpenCL sub&#45;tensor interface. ">
<polygon fill="white" stroke="black" points="186,-95.5 186,-114.5 263,-114.5 263,-95.5 186,-95.5"/>
<text text-anchor="middle" x="224.5" y="-102.5" font-family="Helvetica" font-size="10.00">CLSubTensor</text>
</a>
</g>
</g>
<!-- Node2&#45;&gt;Node3 -->
<g id="edge2" class="edge"><title>Node2&#45;&gt;Node3</title>
<path fill="none" stroke="midnightblue" d="M159.236,-93.3156C168.004,-94.9097 177.249,-96.5907 185.909,-98.1653"/>
<polygon fill="midnightblue" stroke="midnightblue" points="159.691,-89.841 149.226,-91.4956 158.438,-96.7281 159.691,-89.841"/>
</g>
<!-- Node4 -->
<g id="node4" class="node"><title>Node4</title>
<g id="a_node4"><a xlink:href="classarm__compute_1_1_c_l_tensor.xhtml" target="_top" xlink:title="Basic implementation of the OpenCL tensor interface. ">
<polygon fill="white" stroke="black" points="195,-57.5 195,-76.5 254,-76.5 254,-57.5 195,-57.5"/>
<text text-anchor="middle" x="224.5" y="-64.5" font-family="Helvetica" font-size="10.00">CLTensor</text>
</a>
</g>
</g>
<!-- Node2&#45;&gt;Node4 -->
<g id="edge3" class="edge"><title>Node2&#45;&gt;Node4</title>
<path fill="none" stroke="midnightblue" d="M159.329,-78.6675C171.152,-76.5178 183.836,-74.2117 194.779,-72.2221"/>
<polygon fill="midnightblue" stroke="midnightblue" points="158.438,-75.2719 149.226,-80.5044 159.691,-82.159 158.438,-75.2719"/>
</g>
</g>
</svg>
