<?xml version="1.0" encoding="UTF-8" standalone="no"?>
<!DOCTYPE svg PUBLIC "-//W3C//DTD SVG 1.1//EN"
 "http://www.w3.org/Graphics/SVG/1.1/DTD/svg11.dtd">
<!-- Generated by graphviz version 2.38.0 (20140413.2041)
 -->
<!-- Title: Graphical Class Hierarchy Pages: 1 -->
<svg width="207pt" height="137pt"
 viewBox="0.00 0.00 207.00 137.00" xmlns="http://www.w3.org/2000/svg" xmlns:xlink="http://www.w3.org/1999/xlink">
<g id="graph0" class="graph" transform="scale(1 1) rotate(0) translate(4 133)">
<title>Graphical Class Hierarchy</title>
<polygon fill="white" stroke="none" points="-4,4 -4,-133 203,-133 203,4 -4,4"/>
<!-- Node1 -->
<g id="node1" class="node"><title>Node1</title>
<polygon fill="white" stroke="#bfbfbf" points="0,-55 0,-74 57,-74 57,-55 0,-55"/>
<text text-anchor="middle" x="28.5" y="-62" font-family="Helvetica" font-size="10.00">true_type</text>
</g>
<!-- Node2 -->
<g id="node2" class="node"><title>Node2</title>
<g id="a_node2"><a xlink:href="structarm__compute_1_1test_1_1framework_1_1dataset_1_1is__container_3_01std_1_1vector_3_01_v_00_01_a_01_4_01_4.xhtml" target="_top" xlink:title="Vector is considered a container. ">
<polygon fill="white" stroke="black" points="97,-98.5 97,-128.5 195,-128.5 195,-98.5 97,-98.5"/>
<text text-anchor="start" x="105" y="-116.5" font-family="Helvetica" font-size="10.00">is_container&lt; std::</text>
<text text-anchor="middle" x="146" y="-105.5" font-family="Helvetica" font-size="10.00">vector&lt; V, A &gt; &gt;</text>
</a>
</g>
</g>
<!-- Node1&#45;&gt;Node2 -->
<g id="edge1" class="edge"><title>Node1&#45;&gt;Node2</title>
<path fill="none" stroke="midnightblue" d="M61.349,-78.0117C76.2282,-84.3241 94.0008,-91.864 109.33,-98.3672"/>
<polygon fill="midnightblue" stroke="midnightblue" points="62.6165,-74.7475 52.0437,-74.064 59.8826,-81.1916 62.6165,-74.7475"/>
</g>
<!-- Node3 -->
<g id="node3" class="node"><title>Node3</title>
<g id="a_node3"><a xlink:href="structarm__compute_1_1test_1_1validation_1_1is__floating__point_3_01half_01_4.xhtml" target="_top" xlink:title="is_floating_point\&lt;\l half \&gt;">
<polygon fill="white" stroke="black" points="99.5,-49.5 99.5,-79.5 192.5,-79.5 192.5,-49.5 99.5,-49.5"/>
<text text-anchor="start" x="107.5" y="-67.5" font-family="Helvetica" font-size="10.00">is_floating_point&lt;</text>
<text text-anchor="middle" x="146" y="-56.5" font-family="Helvetica" font-size="10.00"> half &gt;</text>
</a>
</g>
</g>
<!-- Node1&#45;&gt;Node3 -->
<g id="edge2" class="edge"><title>Node1&#45;&gt;Node3</title>
<path fill="none" stroke="midnightblue" d="M67.3313,-64.5C77.4705,-64.5 88.5432,-64.5 99.0688,-64.5"/>
<polygon fill="midnightblue" stroke="midnightblue" points="67.1652,-61.0001 57.1651,-64.5 67.1651,-68.0001 67.1652,-61.0001"/>
</g>
<!-- Node4 -->
<g id="node4" class="node"><title>Node4</title>
<g id="a_node4"><a xlink:href="structarm__compute_1_1traits_1_1is__contained_3_01_t_00_01std_1_1tuple_3_01_t_00_01_ts_8_8_8_4_01_4.xhtml" target="_top" xlink:title="is_contained\&lt; T, std\l::tuple\&lt; T, Ts...\&gt; \&gt;">
<polygon fill="white" stroke="black" points="93,-0.5 93,-30.5 199,-30.5 199,-0.5 93,-0.5"/>
<text text-anchor="start" x="101" y="-18.5" font-family="Helvetica" font-size="10.00">is_contained&lt; T, std</text>
<text text-anchor="middle" x="146" y="-7.5" font-family="Helvetica" font-size="10.00">::tuple&lt; T, Ts...&gt; &gt;</text>
</a>
</g>
</g>
<!-- Node1&#45;&gt;Node4 -->
<g id="edge3" class="edge"><title>Node1&#45;&gt;Node4</title>
<path fill="none" stroke="midnightblue" d="M61.349,-50.9883C76.2282,-44.6759 94.0008,-37.136 109.33,-30.6328"/>
<polygon fill="midnightblue" stroke="midnightblue" points="59.8826,-47.8084 52.0437,-54.936 62.6165,-54.2525 59.8826,-47.8084"/>
</g>
</g>
</svg>
