<?xml version="1.0" encoding="UTF-8" standalone="no"?>
<!DOCTYPE svg PUBLIC "-//W3C//DTD SVG 1.1//EN"
 "http://www.w3.org/Graphics/SVG/1.1/DTD/svg11.dtd">
<!-- Generated by graphviz version 2.40.1 (20161225.0304)
 -->
<!-- Title: Graphical Class Hierarchy Pages: 1 -->
<svg width="202pt" height="66pt"
 viewBox="0.00 0.00 202.00 66.00" xmlns="http://www.w3.org/2000/svg" xmlns:xlink="http://www.w3.org/1999/xlink">
<g id="graph0" class="graph" transform="scale(1 1) rotate(0) translate(4 62)">
<title>Graphical Class Hierarchy</title>
<polygon fill="#ffffff" stroke="transparent" points="-4,4 -4,-62 198,-62 198,4 -4,4"/>
<!-- Node0 -->
<g id="node1" class="node">
<title>Node0</title>
<g id="a_node1"><a xlink:href="classarm__compute_1_1_i_lut.xhtml" target="_top" xlink:title="Lookup Table object interface. ">
<polygon fill="#ffffff" stroke="#000000" points="0,-19.5 0,-38.5 33,-38.5 33,-19.5 0,-19.5"/>
<text text-anchor="middle" x="16.5" y="-26.5" font-family="Helvetica,sans-Serif" font-size="10.00" fill="#000000">ILut</text>
</a>
</g>
</g>
<!-- Node1 -->
<g id="node2" class="node">
<title>Node1</title>
<g id="a_node2"><a xlink:href="classarm__compute_1_1_i_c_l_lut.xhtml" target="_top" xlink:title="Interface for OpenCL LUT. ">
<polygon fill="#ffffff" stroke="#000000" points="69,-38.5 69,-57.5 115,-57.5 115,-38.5 69,-38.5"/>
<text text-anchor="middle" x="92" y="-45.5" font-family="Helvetica,sans-Serif" font-size="10.00" fill="#000000">ICLLut</text>
</a>
</g>
</g>
<!-- Node0&#45;&gt;Node1 -->
<g id="edge1" class="edge">
<title>Node0&#45;&gt;Node1</title>
<path fill="none" stroke="#191970" d="M43.0419,-35.6794C51.507,-37.8097 60.7989,-40.1481 68.9919,-42.2099"/>
<polygon fill="#191970" stroke="#191970" points="43.8077,-32.2631 33.2559,-33.2167 42.0993,-39.0514 43.8077,-32.2631"/>
</g>
<!-- Node3 -->
<g id="node4" class="node">
<title>Node3</title>
<g id="a_node4"><a xlink:href="classarm__compute_1_1_lut.xhtml" target="_top" xlink:title="Basic implementation of the LUT interface. ">
<polygon fill="#ffffff" stroke="#000000" points="77,-.5 77,-19.5 107,-19.5 107,-.5 77,-.5"/>
<text text-anchor="middle" x="92" y="-7.5" font-family="Helvetica,sans-Serif" font-size="10.00" fill="#000000">Lut</text>
</a>
</g>
</g>
<!-- Node0&#45;&gt;Node3 -->
<g id="edge3" class="edge">
<title>Node0&#45;&gt;Node3</title>
<path fill="none" stroke="#191970" d="M43.0949,-22.3072C54.4007,-19.4621 67.173,-16.2479 76.8293,-13.8178"/>
<polygon fill="#191970" stroke="#191970" points="42.0993,-18.9486 33.2559,-24.7833 43.8077,-25.7369 42.0993,-18.9486"/>
</g>
<!-- Node2 -->
<g id="node3" class="node">
<title>Node2</title>
<g id="a_node3"><a xlink:href="classarm__compute_1_1_c_l_lut.xhtml" target="_top" xlink:title="Basic implementation of the OpenCL lut interface. ">
<polygon fill="#ffffff" stroke="#000000" points="151,-38.5 151,-57.5 194,-57.5 194,-38.5 151,-38.5"/>
<text text-anchor="middle" x="172.5" y="-45.5" font-family="Helvetica,sans-Serif" font-size="10.00" fill="#000000">CLLut</text>
</a>
</g>
</g>
<!-- Node1&#45;&gt;Node2 -->
<g id="edge2" class="edge">
<title>Node1&#45;&gt;Node2</title>
<path fill="none" stroke="#191970" d="M125.4601,-48C134.0663,-48 143.099,-48 150.9225,-48"/>
<polygon fill="#191970" stroke="#191970" points="125.284,-44.5001 115.2839,-48 125.2839,-51.5001 125.284,-44.5001"/>
</g>
</g>
</svg>
