<?xml version="1.0" encoding="UTF-8" standalone="no"?>
<!DOCTYPE svg PUBLIC "-//W3C//DTD SVG 1.1//EN"
 "http://www.w3.org/Graphics/SVG/1.1/DTD/svg11.dtd">
<!-- Generated by graphviz version 2.38.0 (20140413.2041)
 -->
<!-- Title: mali_base_gpu_coherent_group_info Pages: 1 -->
<svg width="133pt" height="117pt"
 viewBox="0.00 0.00 133.00 117.00" xmlns="http://www.w3.org/2000/svg" xmlns:xlink="http://www.w3.org/1999/xlink">
<g id="graph0" class="graph" transform="scale(1 1) rotate(0) translate(4 113)">
<title>mali_base_gpu_coherent_group_info</title>
<polygon fill="white" stroke="none" points="-4,4 -4,-113 129,-113 129,4 -4,4"/>
<!-- Node1 -->
<g id="node1" class="node"><title>Node1</title>
<polygon fill="#bfbfbf" stroke="black" points="-7.10543e-15,-0.5 -7.10543e-15,-30.5 125,-30.5 125,-0.5 -7.10543e-15,-0.5"/>
<text text-anchor="start" x="8" y="-18.5" font-family="Helvetica" font-size="10.00">mali_base_gpu_coherent</text>
<text text-anchor="middle" x="62.5" y="-7.5" font-family="Helvetica" font-size="10.00">_group_info</text>
</g>
<!-- Node2 -->
<g id="node2" class="node"><title>Node2</title>
<g id="a_node2"><a xlink:href="structmali__userspace_1_1mali__base__gpu__coherent__group.xhtml" target="_top" xlink:title="mali_base_gpu_coherent\l_group">
<polygon fill="white" stroke="black" points="-7.10543e-15,-78.5 -7.10543e-15,-108.5 125,-108.5 125,-78.5 -7.10543e-15,-78.5"/>
<text text-anchor="start" x="8" y="-96.5" font-family="Helvetica" font-size="10.00">mali_base_gpu_coherent</text>
<text text-anchor="middle" x="62.5" y="-85.5" font-family="Helvetica" font-size="10.00">_group</text>
</a>
</g>
</g>
<!-- Node2&#45;&gt;Node1 -->
<g id="edge1" class="edge"><title>Node2&#45;&gt;Node1</title>
<path fill="none" stroke="#9a32cd" stroke-dasharray="5,2" d="M62.5,-68.0898C62.5,-55.7565 62.5,-41.2237 62.5,-30.7309"/>
<polygon fill="#9a32cd" stroke="#9a32cd" points="59.0001,-68.2049 62.5,-78.205 66.0001,-68.205 59.0001,-68.2049"/>
<text text-anchor="middle" x="76.5" y="-52" font-family="Helvetica" font-size="10.00"> group</text>
</g>
</g>
</svg>
