<?xml version="1.0" encoding="UTF-8" standalone="no"?>
<!DOCTYPE svg PUBLIC "-//W3C//DTD SVG 1.1//EN"
 "http://www.w3.org/Graphics/SVG/1.1/DTD/svg11.dtd">
<!-- Generated by graphviz version 2.38.0 (20140413.2041)
 -->
<!-- Title: MinMaxLocationValues&lt; MinMaxType &gt; Pages: 1 -->
<svg width="133pt" height="117pt"
 viewBox="0.00 0.00 133.00 117.00" xmlns="http://www.w3.org/2000/svg" xmlns:xlink="http://www.w3.org/1999/xlink">
<g id="graph0" class="graph" transform="scale(1 1) rotate(0) translate(4 113)">
<title>MinMaxLocationValues&lt; MinMaxType &gt;</title>
<polygon fill="white" stroke="none" points="-4,4 -4,-113 129,-113 129,4 -4,4"/>
<!-- Node1 -->
<g id="node1" class="node"><title>Node1</title>
<polygon fill="#bfbfbf" stroke="black" points="-7.10543e-15,-0.5 -7.10543e-15,-30.5 125,-30.5 125,-0.5 -7.10543e-15,-0.5"/>
<text text-anchor="start" x="8" y="-18.5" font-family="Helvetica,sans-Serif" font-size="10.00">MinMaxLocationValues</text>
<text text-anchor="middle" x="62.5" y="-7.5" font-family="Helvetica,sans-Serif" font-size="10.00">&lt; MinMaxType &gt;</text>
</g>
<!-- Node2 -->
<g id="node2" class="node"><title>Node2</title>
<polygon fill="white" stroke="#bfbfbf" points="25.5,-89.5 25.5,-108.5 99.5,-108.5 99.5,-89.5 25.5,-89.5"/>
<text text-anchor="middle" x="62.5" y="-96.5" font-family="Helvetica,sans-Serif" font-size="10.00">MinMaxType</text>
</g>
<!-- Node2&#45;&gt;Node1 -->
<g id="edge1" class="edge"><title>Node2&#45;&gt;Node1</title>
<path fill="none" stroke="#9a32cd" stroke-dasharray="5,2" d="M62.5,-79.229C62.5,-64.4075 62.5,-44.0505 62.5,-30.5974"/>
<polygon fill="#9a32cd" stroke="#9a32cd" points="59.0001,-79.278 62.5,-89.2781 66.0001,-79.2781 59.0001,-79.278"/>
<text text-anchor="middle" x="73.5" y="-63" font-family="Helvetica,sans-Serif" font-size="10.00"> min</text>
<text text-anchor="middle" x="73.5" y="-52" font-family="Helvetica,sans-Serif" font-size="10.00">max</text>
</g>
</g>
</svg>
