<?xml version="1.0" encoding="UTF-8" standalone="no"?>
<!DOCTYPE svg PUBLIC "-//W3C//DTD SVG 1.1//EN"
 "http://www.w3.org/Graphics/SVG/1.1/DTD/svg11.dtd">
<!-- Generated by graphviz version 2.43.0 (0)
 -->
<!-- Title: CpuConcatenateDepthKernel Pages: 1 -->
<svg width="300pt" height="277pt"
 viewBox="0.00 0.00 299.50 277.00" xmlns="http://www.w3.org/2000/svg" xmlns:xlink="http://www.w3.org/1999/xlink">
<g id="graph0" class="graph" transform="scale(1 1) rotate(0) translate(4 273)">
<title>CpuConcatenateDepthKernel</title>
<polygon fill="white" stroke="transparent" points="-4,4 -4,-273 295.5,-273 295.5,4 -4,4"/>
<!-- Node1 -->
<g id="node1" class="node">
<title>Node1</title>
<g id="a_node1"><a xlink:title="Interface for the depth concatenate kernel.">
<polygon fill="#bfbfbf" stroke="black" points="2,-0.5 2,-19.5 159,-19.5 159,-0.5 2,-0.5"/>
<text text-anchor="middle" x="80.5" y="-7.5" font-family="Helvetica,sans-Serif" font-size="10.00">CpuConcatenateDepthKernel</text>
</a>
</g>
</g>
<!-- Node2 -->
<g id="node2" class="node">
<title>Node2</title>
<g id="a_node2"><a xlink:href="classarm__compute_1_1cpu_1_1_i_cpu_kernel.xhtml" target="_top" xlink:title=" ">
<polygon fill="white" stroke="black" points="0,-57.5 0,-87.5 161,-87.5 161,-57.5 0,-57.5"/>
<text text-anchor="start" x="8" y="-75.5" font-family="Helvetica,sans-Serif" font-size="10.00">ICpuKernel&lt; CpuConcatenate</text>
<text text-anchor="middle" x="80.5" y="-64.5" font-family="Helvetica,sans-Serif" font-size="10.00">DepthKernel &gt;</text>
</a>
</g>
</g>
<!-- Node2&#45;&gt;Node1 -->
<g id="edge1" class="edge">
<title>Node2&#45;&gt;Node1</title>
<path fill="none" stroke="midnightblue" d="M80.5,-47.35C80.5,-37.51 80.5,-26.78 80.5,-19.54"/>
<polygon fill="midnightblue" stroke="midnightblue" points="77,-47.47 80.5,-57.47 84,-47.47 77,-47.47"/>
</g>
<!-- Node3 -->
<g id="node3" class="node">
<title>Node3</title>
<g id="a_node3"><a xlink:href="classarm__compute_1_1_i_c_p_p_kernel.xhtml" target="_top" xlink:title="Common interface for all kernels implemented in C++.">
<polygon fill="white" stroke="black" points="42,-192.5 42,-211.5 111,-211.5 111,-192.5 42,-192.5"/>
<text text-anchor="middle" x="76.5" y="-199.5" font-family="Helvetica,sans-Serif" font-size="10.00">ICPPKernel</text>
</a>
</g>
</g>
<!-- Node3&#45;&gt;Node2 -->
<g id="edge2" class="edge">
<title>Node3&#45;&gt;Node2</title>
<path fill="none" stroke="midnightblue" d="M77.1,-181.9C77.91,-156.05 79.34,-110.54 80.06,-87.59"/>
<polygon fill="midnightblue" stroke="midnightblue" points="73.59,-182.13 76.77,-192.24 80.59,-182.35 73.59,-182.13"/>
</g>
<!-- Node5 -->
<g id="node5" class="node">
<title>Node5</title>
<g id="a_node5"><a xlink:href="classarm__compute_1_1cpu_1_1_i_cpu_kernel.xhtml" target="_top" xlink:title=" ">
<polygon fill="white" stroke="black" points="92.5,-135.5 92.5,-154.5 222.5,-154.5 222.5,-135.5 92.5,-135.5"/>
<text text-anchor="middle" x="157.5" y="-142.5" font-family="Helvetica,sans-Serif" font-size="10.00">ICpuKernel&lt; Derived &gt;</text>
</a>
</g>
</g>
<!-- Node3&#45;&gt;Node5 -->
<g id="edge5" class="edge">
<title>Node3&#45;&gt;Node5</title>
<path fill="none" stroke="midnightblue" d="M97.8,-186.54C112.8,-176.35 132.36,-163.07 144.93,-154.53"/>
<polygon fill="midnightblue" stroke="midnightblue" points="95.46,-183.89 89.16,-192.41 99.4,-189.68 95.46,-183.89"/>
</g>
<!-- Node4 -->
<g id="node4" class="node">
<title>Node4</title>
<g id="a_node4"><a xlink:href="classarm__compute_1_1_i_kernel.xhtml" target="_top" xlink:title="Common information for all the kernels.">
<polygon fill="white" stroke="black" points="51.5,-249.5 51.5,-268.5 101.5,-268.5 101.5,-249.5 51.5,-249.5"/>
<text text-anchor="middle" x="76.5" y="-256.5" font-family="Helvetica,sans-Serif" font-size="10.00">IKernel</text>
</a>
</g>
</g>
<!-- Node4&#45;&gt;Node3 -->
<g id="edge3" class="edge">
<title>Node4&#45;&gt;Node3</title>
<path fill="none" stroke="midnightblue" d="M76.5,-239.12C76.5,-229.82 76.5,-219.06 76.5,-211.71"/>
<polygon fill="midnightblue" stroke="midnightblue" points="73,-239.41 76.5,-249.41 80,-239.41 73,-239.41"/>
</g>
<!-- Node5&#45;&gt;Node2 -->
<g id="edge4" class="edge">
<title>Node5&#45;&gt;Node2</title>
<path fill="none" stroke="orange" stroke-dasharray="5,2" d="M140.51,-128.44C127.17,-116.23 108.77,-99.39 95.87,-87.58"/>
<polygon fill="orange" stroke="orange" points="138.32,-131.18 148.06,-135.36 143.05,-126.02 138.32,-131.18"/>
<text text-anchor="middle" x="208.5" y="-109" font-family="Helvetica,sans-Serif" font-size="10.00"> &lt; CpuConcatenateDepthKernel &gt;</text>
</g>
</g>
</svg>
