<?xml version="1.0" encoding="UTF-8" standalone="no"?>
<!DOCTYPE svg PUBLIC "-//W3C//DTD SVG 1.1//EN"
 "http://www.w3.org/Graphics/SVG/1.1/DTD/svg11.dtd">
<!-- Generated by graphviz version 2.43.0 (0)
 -->
<!-- Title: DepthwiseDepthfirst&lt; TInput, TWeight, TOutput, TAccum, OutputStage &gt; Pages: 1 -->
<svg width="1216pt" height="143pt"
 viewBox="0.00 0.00 1216.00 142.50" xmlns="http://www.w3.org/2000/svg" xmlns:xlink="http://www.w3.org/1999/xlink">
<g id="graph0" class="graph" transform="scale(1 1) rotate(0) translate(4 138.5)">
<title>DepthwiseDepthfirst&lt; TInput, TWeight, TOutput, TAccum, OutputStage &gt;</title>
<polygon fill="white" stroke="transparent" points="-4,4 -4,-138.5 1212,-138.5 1212,4 -4,4"/>
<!-- Node1 -->
<g id="node1" class="node">
<title>Node1</title>
<g id="a_node1"><a xlink:title=" ">
<polygon fill="#bfbfbf" stroke="black" points="1056,-35.5 1056,-76.5 1208,-76.5 1208,-35.5 1056,-35.5"/>
<text text-anchor="start" x="1064" y="-64.5" font-family="Helvetica,sans-Serif" font-size="10.00">DepthwiseDepthfirst</text>
<text text-anchor="start" x="1064" y="-53.5" font-family="Helvetica,sans-Serif" font-size="10.00">&lt; TInput, TWeight, TOutput,</text>
<text text-anchor="middle" x="1132" y="-42.5" font-family="Helvetica,sans-Serif" font-size="10.00"> TAccum, OutputStage &gt;</text>
</a>
</g>
</g>
<!-- Node2 -->
<g id="node2" class="node">
<title>Node2</title>
<g id="a_node2"><a xlink:href="classarm__conv_1_1depthwise_1_1_depthwise_depthfirst_common.xhtml" target="_top" xlink:title=" ">
<polygon fill="white" stroke="black" points="858,-19 858,-93 1019,-93 1019,-19 858,-19"/>
<text text-anchor="start" x="866" y="-81" font-family="Helvetica,sans-Serif" font-size="10.00">DepthwiseDepthfirstCommon</text>
<text text-anchor="start" x="866" y="-70" font-family="Helvetica,sans-Serif" font-size="10.00">&lt; TInput, TInput, TInput,</text>
<text text-anchor="start" x="866" y="-59" font-family="Helvetica,sans-Serif" font-size="10.00"> typename DefaultTAccum&lt;</text>
<text text-anchor="start" x="866" y="-48" font-family="Helvetica,sans-Serif" font-size="10.00"> TInput &gt;::Type, typename</text>
<text text-anchor="start" x="866" y="-37" font-family="Helvetica,sans-Serif" font-size="10.00"> DefaultOutputStage&lt; TInput</text>
<text text-anchor="middle" x="938.5" y="-26" font-family="Helvetica,sans-Serif" font-size="10.00"> &gt;::Type &gt;</text>
</a>
</g>
</g>
<!-- Node2&#45;&gt;Node1 -->
<g id="edge1" class="edge">
<title>Node2&#45;&gt;Node1</title>
<path fill="none" stroke="midnightblue" d="M1029.15,-56C1038.13,-56 1047.19,-56 1056,-56"/>
<polygon fill="midnightblue" stroke="midnightblue" points="1029.05,-52.5 1019.05,-56 1029.05,-59.5 1029.05,-52.5"/>
</g>
<!-- Node3 -->
<g id="node3" class="node">
<title>Node3</title>
<g id="a_node3"><a xlink:href="classarm__conv_1_1depthwise_1_1_depthfirst_driver.xhtml" target="_top" xlink:title=" ">
<polygon fill="white" stroke="black" points="529.5,-76 529.5,-106 669.5,-106 669.5,-76 529.5,-76"/>
<text text-anchor="start" x="537.5" y="-94" font-family="Helvetica,sans-Serif" font-size="10.00">DepthfirstDriver&lt; TInput,</text>
<text text-anchor="middle" x="599.5" y="-83" font-family="Helvetica,sans-Serif" font-size="10.00"> TInput, TInput &gt;</text>
</a>
</g>
</g>
<!-- Node3&#45;&gt;Node2 -->
<g id="edge2" class="edge">
<title>Node3&#45;&gt;Node2</title>
<path fill="none" stroke="midnightblue" d="M679.76,-89.42C726.55,-87.73 786.84,-84.23 840,-77 845.83,-76.21 851.84,-75.25 857.86,-74.2"/>
<polygon fill="midnightblue" stroke="midnightblue" points="679.56,-85.93 669.68,-89.77 679.8,-92.92 679.56,-85.93"/>
</g>
<!-- Node4 -->
<g id="node4" class="node">
<title>Node4</title>
<g id="a_node4"><a xlink:title=" ">
<polygon fill="white" stroke="#bfbfbf" points="195,-104 195,-134 353,-134 353,-104 195,-104"/>
<text text-anchor="start" x="203" y="-122" font-family="Helvetica,sans-Serif" font-size="10.00">DepthwiseCommon&lt; TInput,</text>
<text text-anchor="middle" x="274" y="-111" font-family="Helvetica,sans-Serif" font-size="10.00"> TInput , TInput &gt;</text>
</a>
</g>
</g>
<!-- Node4&#45;&gt;Node3 -->
<g id="edge3" class="edge">
<title>Node4&#45;&gt;Node3</title>
<path fill="none" stroke="midnightblue" d="M363.58,-111.33C415.83,-106.81 481,-101.17 529.43,-96.98"/>
<polygon fill="midnightblue" stroke="midnightblue" points="362.97,-107.87 353.31,-112.22 363.57,-114.85 362.97,-107.87"/>
</g>
<!-- Node5 -->
<g id="node5" class="node">
<title>Node5</title>
<g id="a_node5"><a xlink:href="classarm__conv_1_1depthwise_1_1_depthfirst_driver.xhtml" target="_top" xlink:title=" ">
<polygon fill="white" stroke="black" points="204,-55 204,-85 344,-85 344,-55 204,-55"/>
<text text-anchor="start" x="212" y="-73" font-family="Helvetica,sans-Serif" font-size="10.00">DepthfirstDriver&lt; TInput,</text>
<text text-anchor="middle" x="274" y="-62" font-family="Helvetica,sans-Serif" font-size="10.00"> TWeight, TOutput &gt;</text>
</a>
</g>
</g>
<!-- Node5&#45;&gt;Node3 -->
<g id="edge4" class="edge">
<title>Node5&#45;&gt;Node3</title>
<path fill="none" stroke="orange" stroke-dasharray="5,2" d="M354.15,-75.14C407.77,-78.62 477.94,-83.17 529.33,-86.51"/>
<polygon fill="orange" stroke="orange" points="354.21,-71.63 344,-74.48 353.75,-78.62 354.21,-71.63"/>
<text text-anchor="middle" x="436" y="-87" font-family="Helvetica,sans-Serif" font-size="10.00"> &lt; TInput, TInput, TInput &gt;</text>
</g>
<!-- Node6 -->
<g id="node6" class="node">
<title>Node6</title>
<g id="a_node6"><a xlink:title=" ">
<polygon fill="white" stroke="#bfbfbf" points="0,-30 0,-60 158,-60 158,-30 0,-30"/>
<text text-anchor="start" x="8" y="-48" font-family="Helvetica,sans-Serif" font-size="10.00">DepthwiseCommon&lt; TInput,</text>
<text text-anchor="middle" x="79" y="-37" font-family="Helvetica,sans-Serif" font-size="10.00"> TWeight, TOutput &gt;</text>
</a>
</g>
</g>
<!-- Node6&#45;&gt;Node5 -->
<g id="edge5" class="edge">
<title>Node6&#45;&gt;Node5</title>
<path fill="none" stroke="midnightblue" d="M168.24,-56.43C180.23,-57.98 192.39,-59.56 203.98,-61.06"/>
<polygon fill="midnightblue" stroke="midnightblue" points="168.59,-52.95 158.22,-55.13 167.69,-59.89 168.59,-52.95"/>
</g>
<!-- Node8 -->
<g id="node8" class="node">
<title>Node8</title>
<g id="a_node8"><a xlink:href="classarm__conv_1_1depthwise_1_1_depthfirst_driver.xhtml" target="_top" xlink:title=" ">
<polygon fill="white" stroke="black" points="204,-6 204,-36 344,-36 344,-6 204,-6"/>
<text text-anchor="start" x="212" y="-24" font-family="Helvetica,sans-Serif" font-size="10.00">DepthfirstDriver&lt; TInput,</text>
<text text-anchor="middle" x="274" y="-13" font-family="Helvetica,sans-Serif" font-size="10.00"> TWeight, TOutput &gt;</text>
</a>
</g>
</g>
<!-- Node6&#45;&gt;Node8 -->
<g id="edge8" class="edge">
<title>Node6&#45;&gt;Node8</title>
<path fill="none" stroke="midnightblue" d="M168.24,-34.03C180.23,-32.54 192.39,-31.02 203.98,-29.58"/>
<polygon fill="midnightblue" stroke="midnightblue" points="167.71,-30.57 158.22,-35.27 168.58,-37.51 167.71,-30.57"/>
</g>
<!-- Node7 -->
<g id="node7" class="node">
<title>Node7</title>
<g id="a_node7"><a xlink:href="classarm__conv_1_1depthwise_1_1_depthwise_depthfirst_common.xhtml" target="_top" xlink:title=" ">
<polygon fill="white" stroke="black" points="519,-0.5 519,-41.5 680,-41.5 680,-0.5 519,-0.5"/>
<text text-anchor="start" x="527" y="-29.5" font-family="Helvetica,sans-Serif" font-size="10.00">DepthwiseDepthfirstCommon</text>
<text text-anchor="start" x="527" y="-18.5" font-family="Helvetica,sans-Serif" font-size="10.00">&lt; TInput, TWeight, TOutput,</text>
<text text-anchor="middle" x="599.5" y="-7.5" font-family="Helvetica,sans-Serif" font-size="10.00"> TAccum, OutputStage &gt;</text>
</a>
</g>
</g>
<!-- Node7&#45;&gt;Node2 -->
<g id="edge6" class="edge">
<title>Node7&#45;&gt;Node2</title>
<path fill="none" stroke="orange" stroke-dasharray="5,2" d="M690.28,-11.53C735.55,-8.86 791.08,-8.8 840,-18 845.89,-19.11 851.89,-20.56 857.86,-22.25"/>
<polygon fill="orange" stroke="orange" points="689.95,-8.05 680.2,-12.18 690.4,-15.03 689.95,-8.05"/>
<text text-anchor="start" x="698" y="-65" font-family="Helvetica,sans-Serif" font-size="10.00"> &lt; TInput, TInput, TInput,</text>
<text text-anchor="start" x="698" y="-54" font-family="Helvetica,sans-Serif" font-size="10.00"> typename DefaultTAccum</text>
<text text-anchor="start" x="698" y="-43" font-family="Helvetica,sans-Serif" font-size="10.00">&lt; TInput &gt;::Type, typename</text>
<text text-anchor="start" x="698" y="-32" font-family="Helvetica,sans-Serif" font-size="10.00"> DefaultOutputStage&lt; TInput</text>
<text text-anchor="middle" x="769" y="-21" font-family="Helvetica,sans-Serif" font-size="10.00"> &gt;::Type &gt;</text>
</g>
<!-- Node8&#45;&gt;Node7 -->
<g id="edge7" class="edge">
<title>Node8&#45;&gt;Node7</title>
<path fill="none" stroke="midnightblue" d="M354.13,-21C404.17,-21 468.63,-21 518.78,-21"/>
<polygon fill="midnightblue" stroke="midnightblue" points="354,-17.5 344,-21 354,-24.5 354,-17.5"/>
</g>
</g>
</svg>
