<?xml version="1.0" encoding="UTF-8" standalone="no"?>
<!DOCTYPE svg PUBLIC "-//W3C//DTD SVG 1.1//EN"
 "http://www.w3.org/Graphics/SVG/1.1/DTD/svg11.dtd">
<!-- Generated by graphviz version 2.43.0 (0)
 -->
<!-- Title: src/cpu/kernels/softmax/generic Pages: 1 -->
<svg width="398pt" height="303pt"
 viewBox="0.00 0.00 398.00 303.00" xmlns="http://www.w3.org/2000/svg" xmlns:xlink="http://www.w3.org/1999/xlink">
<g id="graph0" class="graph" transform="scale(1 1) rotate(0) translate(4 299)">
<title>src/cpu/kernels/softmax/generic</title>
<polygon fill="white" stroke="transparent" points="-4,4 -4,-299 394,-299 394,4 -4,4"/>
<g id="clust1" class="cluster">
<title>clusterdir_c42292eae4d792a7461f8cfc84977b28</title>
<g id="a_clust1"><a xlink:href="dir_c42292eae4d792a7461f8cfc84977b28.xhtml" target="_top" xlink:title="softmax">
<polygon fill="#ddddee" stroke="black" points="8,-200 8,-287 382,-287 382,-200 8,-200"/>
<text text-anchor="middle" x="195" y="-275" font-family="Helvetica,sans-Serif" font-size="10.00">softmax</text>
</a>
</g>
</g>
<g id="clust2" class="cluster">
<title>clusterdir_3c0003389c3d6bdd3182f57393932243</title>
<g id="a_clust2"><a xlink:href="dir_3c0003389c3d6bdd3182f57393932243.xhtml" target="_top">
<polygon fill="#eeeeff" stroke="black" points="16,-208 16,-260 374,-260 374,-208 16,-208"/>
</a>
</g>
</g>
<!-- dir_3c0003389c3d6bdd3182f57393932243 -->
<g id="node1" class="node">
<title>dir_3c0003389c3d6bdd3182f57393932243</title>
<text text-anchor="middle" x="339" y="-231.5" font-family="Helvetica,sans-Serif" font-size="10.00">generic</text>
</g>
<!-- dir_1b61e00991b31f5462798d823b4289c9 -->
<g id="node2" class="node">
<title>dir_1b61e00991b31f5462798d823b4289c9</title>
<g id="a_node2"><a xlink:href="dir_1b61e00991b31f5462798d823b4289c9.xhtml" target="_top" xlink:title="neon">
<polygon fill="white" stroke="black" points="78,-252 24,-252 24,-216 78,-216 78,-252"/>
<text text-anchor="middle" x="51" y="-231.5" font-family="Helvetica,sans-Serif" font-size="10.00">neon</text>
</a>
</g>
</g>
<!-- dir_214608ef36d61442cb2b0c1c4e9a7def -->
<g id="node6" class="node">
<title>dir_214608ef36d61442cb2b0c1c4e9a7def</title>
<g id="a_node6"><a xlink:href="dir_214608ef36d61442cb2b0c1c4e9a7def.xhtml" target="_top" xlink:title="arm_compute">
<polygon fill="white" stroke="red" points="200,-108 116,-108 116,-72 200,-72 200,-108"/>
<text text-anchor="middle" x="158" y="-87.5" font-family="Helvetica,sans-Serif" font-size="10.00">arm_compute</text>
</a>
</g>
</g>
<!-- dir_1b61e00991b31f5462798d823b4289c9&#45;&gt;dir_214608ef36d61442cb2b0c1c4e9a7def -->
<g id="edge1" class="edge">
<title>dir_1b61e00991b31f5462798d823b4289c9&#45;&gt;dir_214608ef36d61442cb2b0c1c4e9a7def</title>
<path fill="none" stroke="black" d="M54.95,-215.86C59.98,-196.83 70.1,-165.91 87,-144 95.92,-132.43 107.99,-122.16 119.65,-113.8"/>
<polygon fill="black" stroke="black" points="121.74,-116.61 128.01,-108.07 117.78,-110.84 121.74,-116.61"/>
<g id="a_edge1&#45;headlabel"><a xlink:href="dir_000484_000000.xhtml" target="_top" xlink:title="4">
<text text-anchor="middle" x="120.38" y="-118.48" font-family="Helvetica,sans-Serif" font-size="10.00">4</text>
</a>
</g>
</g>
<!-- dir_aebb8dcc11953d78e620bbef0b9e2183 -->
<g id="node7" class="node">
<title>dir_aebb8dcc11953d78e620bbef0b9e2183</title>
<g id="a_node7"><a xlink:href="dir_aebb8dcc11953d78e620bbef0b9e2183.xhtml" target="_top" xlink:title="core">
<polygon fill="white" stroke="red" points="150,-180 96,-180 96,-144 150,-144 150,-180"/>
<text text-anchor="middle" x="123" y="-159.5" font-family="Helvetica,sans-Serif" font-size="10.00">core</text>
</a>
</g>
</g>
<!-- dir_1b61e00991b31f5462798d823b4289c9&#45;&gt;dir_aebb8dcc11953d78e620bbef0b9e2183 -->
<g id="edge2" class="edge">
<title>dir_1b61e00991b31f5462798d823b4289c9&#45;&gt;dir_aebb8dcc11953d78e620bbef0b9e2183</title>
<path fill="none" stroke="black" d="M68.8,-215.7C77.6,-207.14 88.38,-196.66 98,-187.3"/>
<polygon fill="black" stroke="black" points="100.68,-189.58 105.41,-180.1 95.8,-184.57 100.68,-189.58"/>
<g id="a_edge2&#45;headlabel"><a xlink:href="dir_000484_000017.xhtml" target="_top" xlink:title="2">
<text text-anchor="middle" x="100.08" y="-191.63" font-family="Helvetica,sans-Serif" font-size="10.00">2</text>
</a>
</g>
</g>
<!-- dir_5815af820a9cc9481f1d0990a0d60286 -->
<g id="node8" class="node">
<title>dir_5815af820a9cc9481f1d0990a0d60286</title>
<g id="a_node8"><a xlink:href="dir_5815af820a9cc9481f1d0990a0d60286.xhtml" target="_top" xlink:title="support">
<polygon fill="none" stroke="black" points="150,-36 96,-36 96,0 150,0 150,-36"/>
<text text-anchor="middle" x="123" y="-15.5" font-family="Helvetica,sans-Serif" font-size="10.00">support</text>
</a>
</g>
</g>
<!-- dir_1b61e00991b31f5462798d823b4289c9&#45;&gt;dir_5815af820a9cc9481f1d0990a0d60286 -->
<g id="edge3" class="edge">
<title>dir_1b61e00991b31f5462798d823b4289c9&#45;&gt;dir_5815af820a9cc9481f1d0990a0d60286</title>
<path fill="none" stroke="black" d="M51.99,-215.94C53.39,-197.79 56.65,-168.37 64,-144 74.82,-108.15 94.37,-69.55 107.99,-44.88"/>
<polygon fill="black" stroke="black" points="111.05,-46.58 112.89,-36.15 104.95,-43.16 111.05,-46.58"/>
<g id="a_edge3&#45;headlabel"><a xlink:href="dir_000484_000031.xhtml" target="_top" xlink:title="1">
<text text-anchor="middle" x="111.77" y="-48.6" font-family="Helvetica,sans-Serif" font-size="10.00">1</text>
</a>
</g>
</g>
<!-- dir_0805ca1d797aec4dcf98bcdaaabb812f -->
<g id="node3" class="node">
<title>dir_0805ca1d797aec4dcf98bcdaaabb812f</title>
<g id="a_node3"><a xlink:href="dir_0805ca1d797aec4dcf98bcdaaabb812f.xhtml" target="_top" xlink:title="sme2">
<polygon fill="white" stroke="black" points="222,-252 168,-252 168,-216 222,-216 222,-252"/>
<text text-anchor="middle" x="195" y="-231.5" font-family="Helvetica,sans-Serif" font-size="10.00">sme2</text>
</a>
</g>
</g>
<!-- dir_90bd923040ab47cd4e174fc5f8b9013a -->
<g id="node4" class="node">
<title>dir_90bd923040ab47cd4e174fc5f8b9013a</title>
<g id="a_node4"><a xlink:href="dir_90bd923040ab47cd4e174fc5f8b9013a.xhtml" target="_top" xlink:title="sve">
<polygon fill="white" stroke="black" points="150,-252 96,-252 96,-216 150,-216 150,-252"/>
<text text-anchor="middle" x="123" y="-231.5" font-family="Helvetica,sans-Serif" font-size="10.00">sve</text>
</a>
</g>
</g>
<!-- dir_90bd923040ab47cd4e174fc5f8b9013a&#45;&gt;dir_214608ef36d61442cb2b0c1c4e9a7def -->
<g id="edge9" class="edge">
<title>dir_90bd923040ab47cd4e174fc5f8b9013a&#45;&gt;dir_214608ef36d61442cb2b0c1c4e9a7def</title>
<path fill="none" stroke="black" d="M138.61,-215.77C146.37,-206.03 154.95,-193.18 159,-180 165.16,-159.97 164.51,-136.18 162.54,-118.24"/>
<polygon fill="black" stroke="black" points="165.99,-117.64 161.23,-108.17 159.05,-118.54 165.99,-117.64"/>
<g id="a_edge9&#45;headlabel"><a xlink:href="dir_000494_000000.xhtml" target="_top" xlink:title="1">
<text text-anchor="middle" x="169.27" y="-118.33" font-family="Helvetica,sans-Serif" font-size="10.00">1</text>
</a>
</g>
</g>
<!-- dir_90bd923040ab47cd4e174fc5f8b9013a&#45;&gt;dir_aebb8dcc11953d78e620bbef0b9e2183 -->
<g id="edge10" class="edge">
<title>dir_90bd923040ab47cd4e174fc5f8b9013a&#45;&gt;dir_aebb8dcc11953d78e620bbef0b9e2183</title>
<path fill="none" stroke="black" d="M123,-215.7C123,-207.98 123,-198.71 123,-190.11"/>
<polygon fill="black" stroke="black" points="126.5,-190.1 123,-180.1 119.5,-190.1 126.5,-190.1"/>
<g id="a_edge10&#45;headlabel"><a xlink:href="dir_000494_000017.xhtml" target="_top" xlink:title="1">
<text text-anchor="middle" x="129.34" y="-191.2" font-family="Helvetica,sans-Serif" font-size="10.00">1</text>
</a>
</g>
</g>
<!-- dir_229923791d12ab8ca2f09b02a0481eb3 -->
<g id="node5" class="node">
<title>dir_229923791d12ab8ca2f09b02a0481eb3</title>
<g id="a_node5"><a xlink:href="dir_229923791d12ab8ca2f09b02a0481eb3.xhtml" target="_top" xlink:title="sve2">
<polygon fill="white" stroke="black" points="294,-252 240,-252 240,-216 294,-216 294,-252"/>
<text text-anchor="middle" x="267" y="-231.5" font-family="Helvetica,sans-Serif" font-size="10.00">sve2</text>
</a>
</g>
</g>
<!-- dir_229923791d12ab8ca2f09b02a0481eb3&#45;&gt;dir_214608ef36d61442cb2b0c1c4e9a7def -->
<g id="edge5" class="edge">
<title>dir_229923791d12ab8ca2f09b02a0481eb3&#45;&gt;dir_214608ef36d61442cb2b0c1c4e9a7def</title>
<path fill="none" stroke="black" d="M253.85,-215.87C234.78,-191.03 199.33,-144.85 177.3,-116.14"/>
<polygon fill="black" stroke="black" points="180.06,-113.99 171.19,-108.19 174.51,-118.25 180.06,-113.99"/>
<g id="a_edge5&#45;headlabel"><a xlink:href="dir_000495_000000.xhtml" target="_top" xlink:title="2">
<text text-anchor="middle" x="184.5" y="-112.61" font-family="Helvetica,sans-Serif" font-size="10.00">2</text>
</a>
</g>
</g>
<!-- dir_229923791d12ab8ca2f09b02a0481eb3&#45;&gt;dir_aebb8dcc11953d78e620bbef0b9e2183 -->
<g id="edge6" class="edge">
<title>dir_229923791d12ab8ca2f09b02a0481eb3&#45;&gt;dir_aebb8dcc11953d78e620bbef0b9e2183</title>
<path fill="none" stroke="black" d="M251.31,-216C245.38,-210.31 238.29,-204.33 231,-200 208.93,-186.89 181.56,-177.58 159.89,-171.57"/>
<polygon fill="black" stroke="black" points="160.63,-168.15 150.07,-168.97 158.84,-174.92 160.63,-168.15"/>
<g id="a_edge6&#45;headlabel"><a xlink:href="dir_000495_000017.xhtml" target="_top" xlink:title="1">
<text text-anchor="middle" x="164.83" y="-163.83" font-family="Helvetica,sans-Serif" font-size="10.00">1</text>
</a>
</g>
</g>
<!-- dir_214608ef36d61442cb2b0c1c4e9a7def&#45;&gt;dir_5815af820a9cc9481f1d0990a0d60286 -->
<g id="edge4" class="edge">
<title>dir_214608ef36d61442cb2b0c1c4e9a7def&#45;&gt;dir_5815af820a9cc9481f1d0990a0d60286</title>
<path fill="none" stroke="black" d="M143.43,-71.7C138.68,-63.81 133.7,-54.3 129.7,-45.55"/>
<polygon fill="black" stroke="black" points="132.81,-43.92 125.66,-36.1 126.38,-46.67 132.81,-43.92"/>
<g id="a_edge4&#45;headlabel"><a xlink:href="dir_000000_000031.xhtml" target="_top" xlink:title="16">
<text text-anchor="middle" x="136.84" y="-43.6" font-family="Helvetica,sans-Serif" font-size="10.00">16</text>
</a>
</g>
</g>
<!-- dir_aebb8dcc11953d78e620bbef0b9e2183&#45;&gt;dir_214608ef36d61442cb2b0c1c4e9a7def -->
<g id="edge7" class="edge">
<title>dir_aebb8dcc11953d78e620bbef0b9e2183&#45;&gt;dir_214608ef36d61442cb2b0c1c4e9a7def</title>
<path fill="none" stroke="black" d="M131.65,-143.7C135.64,-135.73 140.45,-126.1 144.87,-117.26"/>
<polygon fill="black" stroke="black" points="148.11,-118.61 149.45,-108.1 141.85,-115.48 148.11,-118.61"/>
<g id="a_edge7&#45;headlabel"><a xlink:href="dir_000017_000000.xhtml" target="_top" xlink:title="686">
<text text-anchor="middle" x="149.04" y="-120.6" font-family="Helvetica,sans-Serif" font-size="10.00">686</text>
</a>
</g>
</g>
<!-- dir_aebb8dcc11953d78e620bbef0b9e2183&#45;&gt;dir_5815af820a9cc9481f1d0990a0d60286 -->
<g id="edge8" class="edge">
<title>dir_aebb8dcc11953d78e620bbef0b9e2183&#45;&gt;dir_5815af820a9cc9481f1d0990a0d60286</title>
<path fill="none" stroke="black" d="M116.35,-143.63C112.8,-133.42 108.8,-120.17 107,-108 104.66,-92.17 104.66,-87.83 107,-72 108.28,-63.35 110.67,-54.15 113.22,-45.89"/>
<polygon fill="black" stroke="black" points="116.55,-46.96 116.35,-36.37 109.9,-44.78 116.55,-46.96"/>
<g id="a_edge8&#45;headlabel"><a xlink:href="dir_000017_000031.xhtml" target="_top" xlink:title="54">
<text text-anchor="middle" x="118.12" y="-48.77" font-family="Helvetica,sans-Serif" font-size="10.00">54</text>
</a>
</g>
</g>
<!-- dir_5815af820a9cc9481f1d0990a0d60286&#45;&gt;dir_214608ef36d61442cb2b0c1c4e9a7def -->
<g id="edge11" class="edge">
<title>dir_5815af820a9cc9481f1d0990a0d60286&#45;&gt;dir_214608ef36d61442cb2b0c1c4e9a7def</title>
<path fill="none" stroke="black" d="M137.45,-36.1C142.2,-43.96 147.18,-53.46 151.2,-62.23"/>
<polygon fill="black" stroke="black" points="148.1,-63.89 155.26,-71.7 154.53,-61.13 148.1,-63.89"/>
<g id="a_edge11&#45;headlabel"><a xlink:href="dir_000031_000000.xhtml" target="_top" xlink:title="6">
<text text-anchor="middle" x="144.07" y="-59.21" font-family="Helvetica,sans-Serif" font-size="10.00">6</text>
</a>
</g>
</g>
</g>
</svg>
