<?xml version="1.0" encoding="UTF-8" standalone="no"?>
<!DOCTYPE svg PUBLIC "-//W3C//DTD SVG 1.1//EN"
 "http://www.w3.org/Graphics/SVG/1.1/DTD/svg11.dtd">
<!-- Generated by graphviz version 2.43.0 (0)
 -->
<!-- Title: src/core/NEON Pages: 1 -->
<svg width="547pt" height="339pt"
 viewBox="0.00 0.00 546.92 339.00" xmlns="http://www.w3.org/2000/svg" xmlns:xlink="http://www.w3.org/1999/xlink">
<g id="graph0" class="graph" transform="scale(1 1) rotate(0) translate(4 335)">
<title>src/core/NEON</title>
<polygon fill="white" stroke="transparent" points="-4,4 -4,-335 542.92,-335 542.92,4 -4,4"/>
<g id="clust1" class="cluster">
<title>clusterdir_aebb8dcc11953d78e620bbef0b9e2183</title>
<g id="a_clust1"><a xlink:href="dir_aebb8dcc11953d78e620bbef0b9e2183.xhtml" target="_top" xlink:title="core">
<polygon fill="#ddddee" stroke="black" points="37.92,-128 37.92,-287 195.92,-287 195.92,-128 37.92,-128"/>
<text text-anchor="middle" x="116.92" y="-275" font-family="Helvetica,sans-Serif" font-size="10.00">core</text>
</a>
</g>
</g>
<g id="clust2" class="cluster">
<title>clusterdir_d91e1966cc57df4f49d1e07be7697713</title>
<g id="a_clust2"><a xlink:href="dir_d91e1966cc57df4f49d1e07be7697713.xhtml" target="_top">
<polygon fill="#eeeeff" stroke="black" points="45.92,-136 45.92,-260 187.92,-260 187.92,-136 45.92,-136"/>
</a>
</g>
</g>
<!-- dir_d91e1966cc57df4f49d1e07be7697713 -->
<g id="node1" class="node">
<title>dir_d91e1966cc57df4f49d1e07be7697713</title>
<text text-anchor="middle" x="152.92" y="-231.5" font-family="Helvetica,sans-Serif" font-size="10.00">NEON</text>
</g>
<!-- dir_1ce938f580a6f304b99685e2c1dd19db -->
<g id="node2" class="node">
<title>dir_1ce938f580a6f304b99685e2c1dd19db</title>
<g id="a_node2"><a xlink:href="dir_1ce938f580a6f304b99685e2c1dd19db.xhtml" target="_top" xlink:title="kernels">
<polygon fill="white" stroke="red" points="107.92,-252 53.92,-252 53.92,-216 107.92,-216 107.92,-252"/>
<text text-anchor="middle" x="80.92" y="-231.5" font-family="Helvetica,sans-Serif" font-size="10.00">kernels</text>
</a>
</g>
</g>
<!-- dir_8224aa485683c095eaa3fd7faa788467 -->
<g id="node3" class="node">
<title>dir_8224aa485683c095eaa3fd7faa788467</title>
<g id="a_node3"><a xlink:href="dir_8224aa485683c095eaa3fd7faa788467.xhtml" target="_top" xlink:title="wrapper">
<polygon fill="white" stroke="red" points="109.92,-180 53.92,-180 53.92,-144 109.92,-144 109.92,-180"/>
<text text-anchor="middle" x="81.92" y="-159.5" font-family="Helvetica,sans-Serif" font-size="10.00">wrapper</text>
</a>
</g>
</g>
<!-- dir_1ce938f580a6f304b99685e2c1dd19db&#45;&gt;dir_8224aa485683c095eaa3fd7faa788467 -->
<g id="edge24" class="edge">
<title>dir_1ce938f580a6f304b99685e2c1dd19db&#45;&gt;dir_8224aa485683c095eaa3fd7faa788467</title>
<path fill="none" stroke="black" d="M81.16,-215.7C81.27,-207.98 81.41,-198.71 81.53,-190.11"/>
<polygon fill="black" stroke="black" points="85.03,-190.15 81.67,-180.1 78.03,-190.05 85.03,-190.15"/>
<g id="a_edge24&#45;headlabel"><a xlink:href="dir_000100_000029.xhtml" target="_top" xlink:title="21">
<text text-anchor="middle" x="87.82" y="-191.29" font-family="Helvetica,sans-Serif" font-size="10.00">21</text>
</a>
</g>
</g>
<!-- dir_34b4cee2b5900b653deb3438fc906cf4 -->
<g id="node4" class="node">
<title>dir_34b4cee2b5900b653deb3438fc906cf4</title>
<g id="a_node4"><a xlink:href="dir_34b4cee2b5900b653deb3438fc906cf4.xhtml" target="_top" xlink:title="common">
<polygon fill="none" stroke="black" points="263.42,-180 204.42,-180 204.42,-144 263.42,-144 263.42,-180"/>
<text text-anchor="middle" x="233.92" y="-159.5" font-family="Helvetica,sans-Serif" font-size="10.00">common</text>
</a>
</g>
</g>
<!-- dir_1ce938f580a6f304b99685e2c1dd19db&#45;&gt;dir_34b4cee2b5900b653deb3438fc906cf4 -->
<g id="edge23" class="edge">
<title>dir_1ce938f580a6f304b99685e2c1dd19db&#45;&gt;dir_34b4cee2b5900b653deb3438fc906cf4</title>
<path fill="none" stroke="black" d="M108.02,-220.14C111.02,-218.74 114.03,-217.33 116.92,-216 142.77,-204.04 171.96,-190.82 194.71,-180.57"/>
<polygon fill="black" stroke="black" points="196.36,-183.67 204.04,-176.38 193.49,-177.29 196.36,-183.67"/>
<g id="a_edge23&#45;headlabel"><a xlink:href="dir_000100_000045.xhtml" target="_top" xlink:title="12">
<text text-anchor="middle" x="194.24" y="-185.23" font-family="Helvetica,sans-Serif" font-size="10.00">12</text>
</a>
</g>
</g>
<!-- dir_707aa52d67938117542c6646238d6f70 -->
<g id="node5" class="node">
<title>dir_707aa52d67938117542c6646238d6f70</title>
<g id="a_node5"><a xlink:href="dir_707aa52d67938117542c6646238d6f70.xhtml" target="_top" xlink:title="helpers">
<polygon fill="none" stroke="black" points="335.92,-180 281.92,-180 281.92,-144 335.92,-144 335.92,-180"/>
<text text-anchor="middle" x="308.92" y="-159.5" font-family="Helvetica,sans-Serif" font-size="10.00">helpers</text>
</a>
</g>
</g>
<!-- dir_1ce938f580a6f304b99685e2c1dd19db&#45;&gt;dir_707aa52d67938117542c6646238d6f70 -->
<g id="edge25" class="edge">
<title>dir_1ce938f580a6f304b99685e2c1dd19db&#45;&gt;dir_707aa52d67938117542c6646238d6f70</title>
<path fill="none" stroke="black" d="M108.18,-219.39C111.09,-218.15 114.04,-217 116.92,-216 181.25,-193.68 203.76,-202.47 272.15,-179.86"/>
<polygon fill="black" stroke="black" points="273.32,-183.16 281.65,-176.61 271.06,-176.53 273.32,-183.16"/>
<g id="a_edge25&#45;headlabel"><a xlink:href="dir_000100_000033.xhtml" target="_top" xlink:title="73">
<text text-anchor="middle" x="270.83" y="-184.51" font-family="Helvetica,sans-Serif" font-size="10.00">73</text>
</a>
</g>
</g>
<!-- dir_2c61f424fd391396db977702a2beee9a -->
<g id="node6" class="node">
<title>dir_2c61f424fd391396db977702a2beee9a</title>
<g id="a_node6"><a xlink:href="dir_2c61f424fd391396db977702a2beee9a.xhtml" target="_top" xlink:title="cpu">
<polygon fill="white" stroke="red" points="354.92,-331 300.92,-331 300.92,-295 354.92,-295 354.92,-331"/>
<text text-anchor="middle" x="327.92" y="-310.5" font-family="Helvetica,sans-Serif" font-size="10.00">cpu</text>
</a>
</g>
</g>
<!-- dir_1ce938f580a6f304b99685e2c1dd19db&#45;&gt;dir_2c61f424fd391396db977702a2beee9a -->
<g id="edge26" class="edge">
<title>dir_1ce938f580a6f304b99685e2c1dd19db&#45;&gt;dir_2c61f424fd391396db977702a2beee9a</title>
<path fill="none" stroke="black" d="M80.66,-252.22C85.08,-264.05 94.65,-279.02 107.92,-287 137.39,-304.73 235.89,-309.9 290.69,-311.39"/>
<polygon fill="black" stroke="black" points="290.62,-314.89 300.71,-311.64 290.8,-307.89 290.62,-314.89"/>
<g id="a_edge26&#45;headlabel"><a xlink:href="dir_000100_000377.xhtml" target="_top" xlink:title="86">
<text text-anchor="middle" x="286.96" y="-315.14" font-family="Helvetica,sans-Serif" font-size="10.00">86</text>
</a>
</g>
</g>
<!-- dir_214608ef36d61442cb2b0c1c4e9a7def -->
<g id="node7" class="node">
<title>dir_214608ef36d61442cb2b0c1c4e9a7def</title>
<g id="a_node7"><a xlink:href="dir_214608ef36d61442cb2b0c1c4e9a7def.xhtml" target="_top" xlink:title="arm_compute">
<polygon fill="white" stroke="red" points="405.92,-108 321.92,-108 321.92,-72 405.92,-72 405.92,-108"/>
<text text-anchor="middle" x="363.92" y="-87.5" font-family="Helvetica,sans-Serif" font-size="10.00">arm_compute</text>
</a>
</g>
</g>
<!-- dir_1ce938f580a6f304b99685e2c1dd19db&#45;&gt;dir_214608ef36d61442cb2b0c1c4e9a7def -->
<g id="edge27" class="edge">
<title>dir_1ce938f580a6f304b99685e2c1dd19db&#45;&gt;dir_214608ef36d61442cb2b0c1c4e9a7def</title>
<path fill="none" stroke="black" d="M106.66,-215.92C120.66,-206.12 137.91,-193.17 151.92,-180 173.97,-159.26 169.99,-143.63 195.92,-128 231.07,-106.8 276.89,-97.7 311.8,-93.82"/>
<polygon fill="black" stroke="black" points="312.2,-97.3 321.8,-92.81 311.5,-90.33 312.2,-97.3"/>
<g id="a_edge27&#45;headlabel"><a xlink:href="dir_000100_000000.xhtml" target="_top" xlink:title="231">
<text text-anchor="middle" x="308.91" y="-97.98" font-family="Helvetica,sans-Serif" font-size="10.00">231</text>
</a>
</g>
</g>
<!-- dir_a8053b3d69cfefb2b2e6ec7bf9dd5c1a -->
<g id="node8" class="node">
<title>dir_a8053b3d69cfefb2b2e6ec7bf9dd5c1a</title>
<g id="a_node8"><a xlink:href="dir_a8053b3d69cfefb2b2e6ec7bf9dd5c1a.xhtml" target="_top" xlink:title="utils">
<polygon fill="white" stroke="red" points="538.92,-252 484.92,-252 484.92,-216 538.92,-216 538.92,-252"/>
<text text-anchor="middle" x="511.92" y="-231.5" font-family="Helvetica,sans-Serif" font-size="10.00">utils</text>
</a>
</g>
</g>
<!-- dir_1ce938f580a6f304b99685e2c1dd19db&#45;&gt;dir_a8053b3d69cfefb2b2e6ec7bf9dd5c1a -->
<g id="edge28" class="edge">
<title>dir_1ce938f580a6f304b99685e2c1dd19db&#45;&gt;dir_a8053b3d69cfefb2b2e6ec7bf9dd5c1a</title>
<path fill="none" stroke="black" d="M87.61,-252.02C94.5,-267.16 106.92,-286.97 125.92,-291 144.18,-294.88 443.66,-294.88 461.92,-291 477.92,-287.6 490.18,-274.06 498.54,-261.03"/>
<polygon fill="black" stroke="black" points="501.67,-262.62 503.72,-252.23 495.63,-259.08 501.67,-262.62"/>
<g id="a_edge28&#45;headlabel"><a xlink:href="dir_000100_000049.xhtml" target="_top" xlink:title="2">
<text text-anchor="middle" x="502.3" y="-264.66" font-family="Helvetica,sans-Serif" font-size="10.00">2</text>
</a>
</g>
</g>
<!-- dir_1d7cadfed01c895b25460177608d44e9 -->
<g id="node9" class="node">
<title>dir_1d7cadfed01c895b25460177608d44e9</title>
<g id="a_node9"><a xlink:href="dir_1d7cadfed01c895b25460177608d44e9.xhtml" target="_top" xlink:title="CPP">
<polygon fill="white" stroke="red" points="428.92,-252 374.92,-252 374.92,-216 428.92,-216 428.92,-252"/>
<text text-anchor="middle" x="401.92" y="-231.5" font-family="Helvetica,sans-Serif" font-size="10.00">CPP</text>
</a>
</g>
</g>
<!-- dir_1ce938f580a6f304b99685e2c1dd19db&#45;&gt;dir_1d7cadfed01c895b25460177608d44e9 -->
<g id="edge29" class="edge">
<title>dir_1ce938f580a6f304b99685e2c1dd19db&#45;&gt;dir_1d7cadfed01c895b25460177608d44e9</title>
<path fill="none" stroke="black" d="M87.61,-252.02C94.5,-267.16 106.92,-286.97 125.92,-291 150.48,-296.21 327.35,-296.21 351.92,-291 367.92,-287.6 380.18,-274.06 388.54,-261.03"/>
<polygon fill="black" stroke="black" points="391.67,-262.62 393.72,-252.23 385.63,-259.08 391.67,-262.62"/>
<g id="a_edge29&#45;headlabel"><a xlink:href="dir_000100_000052.xhtml" target="_top" xlink:title="15">
<text text-anchor="middle" x="392.3" y="-264.66" font-family="Helvetica,sans-Serif" font-size="10.00">15</text>
</a>
</g>
</g>
<!-- dir_5815af820a9cc9481f1d0990a0d60286 -->
<g id="node10" class="node">
<title>dir_5815af820a9cc9481f1d0990a0d60286</title>
<g id="a_node10"><a xlink:href="dir_5815af820a9cc9481f1d0990a0d60286.xhtml" target="_top" xlink:title="support">
<polygon fill="none" stroke="black" points="390.92,-36 336.92,-36 336.92,0 390.92,0 390.92,-36"/>
<text text-anchor="middle" x="363.92" y="-15.5" font-family="Helvetica,sans-Serif" font-size="10.00">support</text>
</a>
</g>
</g>
<!-- dir_1ce938f580a6f304b99685e2c1dd19db&#45;&gt;dir_5815af820a9cc9481f1d0990a0d60286 -->
<g id="edge30" class="edge">
<title>dir_1ce938f580a6f304b99685e2c1dd19db&#45;&gt;dir_5815af820a9cc9481f1d0990a0d60286</title>
<path fill="none" stroke="black" d="M93.49,-215.99C101.01,-205.68 110.68,-192.2 118.92,-180 134.23,-157.31 131.71,-146.46 151.92,-128 204.33,-80.13 281.68,-47.47 327.02,-31.13"/>
<polygon fill="black" stroke="black" points="328.47,-34.34 336.74,-27.71 326.14,-27.73 328.47,-34.34"/>
<g id="a_edge30&#45;headlabel"><a xlink:href="dir_000100_000031.xhtml" target="_top" xlink:title="4">
<text text-anchor="middle" x="326.02" y="-35.71" font-family="Helvetica,sans-Serif" font-size="10.00">4</text>
</a>
</g>
</g>
<!-- dir_fdedb0aba14d44ce9d99bc100e026e6a -->
<g id="node11" class="node">
<title>dir_fdedb0aba14d44ce9d99bc100e026e6a</title>
<g id="a_node11"><a xlink:href="dir_fdedb0aba14d44ce9d99bc100e026e6a.xhtml" target="_top" xlink:title="common">
<polygon fill="white" stroke="red" points="489.42,-180 430.42,-180 430.42,-144 489.42,-144 489.42,-180"/>
<text text-anchor="middle" x="459.92" y="-159.5" font-family="Helvetica,sans-Serif" font-size="10.00">common</text>
</a>
</g>
</g>
<!-- dir_1ce938f580a6f304b99685e2c1dd19db&#45;&gt;dir_fdedb0aba14d44ce9d99bc100e026e6a -->
<g id="edge31" class="edge">
<title>dir_1ce938f580a6f304b99685e2c1dd19db&#45;&gt;dir_fdedb0aba14d44ce9d99bc100e026e6a</title>
<path fill="none" stroke="black" d="M108.11,-219.17C111.04,-217.98 114.01,-216.89 116.92,-216 124.16,-213.78 331.56,-182.36 420.28,-168.97"/>
<polygon fill="black" stroke="black" points="420.87,-172.42 430.24,-167.47 419.83,-165.5 420.87,-172.42"/>
<g id="a_edge31&#45;headlabel"><a xlink:href="dir_000100_000016.xhtml" target="_top" xlink:title="2">
<text text-anchor="middle" x="417.74" y="-173.27" font-family="Helvetica,sans-Serif" font-size="10.00">2</text>
</a>
</g>
</g>
<!-- dir_8224aa485683c095eaa3fd7faa788467&#45;&gt;dir_214608ef36d61442cb2b0c1c4e9a7def -->
<g id="edge1" class="edge">
<title>dir_8224aa485683c095eaa3fd7faa788467&#45;&gt;dir_214608ef36d61442cb2b0c1c4e9a7def</title>
<path fill="none" stroke="black" d="M110.27,-147.59C125.34,-140.91 144.33,-133.17 161.92,-128 211.73,-113.34 270.26,-103.38 311.45,-97.53"/>
<polygon fill="black" stroke="black" points="312.11,-100.97 321.53,-96.12 311.15,-94.03 312.11,-100.97"/>
<g id="a_edge1&#45;headlabel"><a xlink:href="dir_000029_000000.xhtml" target="_top" xlink:title="2">
<text text-anchor="middle" x="308.94" y="-101.77" font-family="Helvetica,sans-Serif" font-size="10.00">2</text>
</a>
</g>
</g>
<!-- dir_707aa52d67938117542c6646238d6f70&#45;&gt;dir_d91e1966cc57df4f49d1e07be7697713 -->
<g id="edge3" class="edge">
<title>dir_707aa52d67938117542c6646238d6f70&#45;&gt;dir_d91e1966cc57df4f49d1e07be7697713</title>
<path fill="none" stroke="black" d="M281.82,-175.88C278.82,-177.28 275.81,-178.68 272.92,-180 245.06,-192.73 213.36,-206.71 189.54,-217.11"/>
<polygon fill="black" stroke="black" points="187.94,-213.99 180.17,-221.2 190.74,-220.41 187.94,-213.99"/>
<g id="a_edge3&#45;headlabel"><a xlink:href="dir_000033_000028.xhtml" target="_top" xlink:title="1">
<text text-anchor="middle" x="190.1" y="-207.45" font-family="Helvetica,sans-Serif" font-size="10.00">1</text>
</a>
</g>
</g>
<!-- dir_707aa52d67938117542c6646238d6f70&#45;&gt;dir_214608ef36d61442cb2b0c1c4e9a7def -->
<g id="edge2" class="edge">
<title>dir_707aa52d67938117542c6646238d6f70&#45;&gt;dir_214608ef36d61442cb2b0c1c4e9a7def</title>
<path fill="none" stroke="black" d="M322.51,-143.7C329.04,-135.39 336.98,-125.28 344.16,-116.14"/>
<polygon fill="black" stroke="black" points="347.05,-118.13 350.48,-108.1 341.55,-113.81 347.05,-118.13"/>
<g id="a_edge2&#45;headlabel"><a xlink:href="dir_000033_000000.xhtml" target="_top" xlink:title="19">
<text text-anchor="middle" x="347.06" y="-120.21" font-family="Helvetica,sans-Serif" font-size="10.00">19</text>
</a>
</g>
</g>
<!-- dir_2c61f424fd391396db977702a2beee9a&#45;&gt;dir_1ce938f580a6f304b99685e2c1dd19db -->
<g id="edge10" class="edge">
<title>dir_2c61f424fd391396db977702a2beee9a&#45;&gt;dir_1ce938f580a6f304b99685e2c1dd19db</title>
<path fill="none" stroke="black" d="M300.58,-311.36C252.33,-309.81 155.15,-304.59 125.92,-287 115.76,-280.89 107.77,-270.69 101.24,-260.93"/>
<polygon fill="black" stroke="black" points="104,-258.74 95.65,-252.22 98.11,-262.53 104,-258.74"/>
<g id="a_edge10&#45;headlabel"><a xlink:href="dir_000377_000100.xhtml" target="_top" xlink:title="8">
<text text-anchor="middle" x="108.33" y="-257.73" font-family="Helvetica,sans-Serif" font-size="10.00">8</text>
</a>
</g>
</g>
<!-- dir_2c61f424fd391396db977702a2beee9a&#45;&gt;dir_8224aa485683c095eaa3fd7faa788467 -->
<g id="edge5" class="edge">
<title>dir_2c61f424fd391396db977702a2beee9a&#45;&gt;dir_8224aa485683c095eaa3fd7faa788467</title>
<path fill="none" stroke="black" d="M300.73,-311.64C233.19,-310.46 61.99,-305.64 44.92,-287 23.61,-263.73 35.45,-246.1 44.92,-216 48.02,-206.15 53.67,-196.53 59.64,-188.25"/>
<polygon fill="black" stroke="black" points="62.55,-190.21 65.88,-180.15 57,-185.94 62.55,-190.21"/>
<g id="a_edge5&#45;headlabel"><a xlink:href="dir_000377_000029.xhtml" target="_top" xlink:title="83">
<text text-anchor="middle" x="62.6" y="-192.29" font-family="Helvetica,sans-Serif" font-size="10.00">83</text>
</a>
</g>
</g>
<!-- dir_2c61f424fd391396db977702a2beee9a&#45;&gt;dir_34b4cee2b5900b653deb3438fc906cf4 -->
<g id="edge4" class="edge">
<title>dir_2c61f424fd391396db977702a2beee9a&#45;&gt;dir_34b4cee2b5900b653deb3438fc906cf4</title>
<path fill="none" stroke="black" d="M316.88,-294.8C315.21,-292.19 313.52,-289.52 311.92,-287 290.44,-253.15 265.83,-213.97 250.1,-188.86"/>
<polygon fill="black" stroke="black" points="253,-186.9 244.73,-180.28 247.07,-190.61 253,-186.9"/>
<g id="a_edge4&#45;headlabel"><a xlink:href="dir_000377_000045.xhtml" target="_top" xlink:title="82">
<text text-anchor="middle" x="257.31" y="-185.93" font-family="Helvetica,sans-Serif" font-size="10.00">82</text>
</a>
</g>
</g>
<!-- dir_2c61f424fd391396db977702a2beee9a&#45;&gt;dir_707aa52d67938117542c6646238d6f70 -->
<g id="edge6" class="edge">
<title>dir_2c61f424fd391396db977702a2beee9a&#45;&gt;dir_707aa52d67938117542c6646238d6f70</title>
<path fill="none" stroke="black" d="M325.74,-294.91C322.48,-269.33 316.29,-220.86 312.4,-190.33"/>
<polygon fill="black" stroke="black" points="315.87,-189.83 311.13,-180.35 308.92,-190.71 315.87,-189.83"/>
<g id="a_edge6&#45;headlabel"><a xlink:href="dir_000377_000033.xhtml" target="_top" xlink:title="149">
<text text-anchor="middle" x="319.14" y="-190.54" font-family="Helvetica,sans-Serif" font-size="10.00">149</text>
</a>
</g>
</g>
<!-- dir_2c61f424fd391396db977702a2beee9a&#45;&gt;dir_214608ef36d61442cb2b0c1c4e9a7def -->
<g id="edge7" class="edge">
<title>dir_2c61f424fd391396db977702a2beee9a&#45;&gt;dir_214608ef36d61442cb2b0c1c4e9a7def</title>
<path fill="none" stroke="black" d="M331.45,-294.8C331.96,-292.19 332.46,-289.53 332.92,-287 343.66,-226.97 354.37,-156.24 359.95,-118.31"/>
<polygon fill="black" stroke="black" points="363.47,-118.48 361.45,-108.08 356.54,-117.47 363.47,-118.48"/>
<g id="a_edge7&#45;headlabel"><a xlink:href="dir_000377_000000.xhtml" target="_top" xlink:title="721">
<text text-anchor="middle" x="365.75" y="-119.95" font-family="Helvetica,sans-Serif" font-size="10.00">721</text>
</a>
</g>
</g>
<!-- dir_2c61f424fd391396db977702a2beee9a&#45;&gt;dir_a8053b3d69cfefb2b2e6ec7bf9dd5c1a -->
<g id="edge8" class="edge">
<title>dir_2c61f424fd391396db977702a2beee9a&#45;&gt;dir_a8053b3d69cfefb2b2e6ec7bf9dd5c1a</title>
<path fill="none" stroke="black" d="M355.02,-312.73C383.61,-311.9 428.59,-306.89 461.92,-287 472.61,-280.62 481.59,-270.33 489.08,-260.59"/>
<polygon fill="black" stroke="black" points="492.1,-262.38 495.28,-252.27 486.49,-258.2 492.1,-262.38"/>
<g id="a_edge8&#45;headlabel"><a xlink:href="dir_000377_000049.xhtml" target="_top" xlink:title="14">
<text text-anchor="middle" x="492.23" y="-264.46" font-family="Helvetica,sans-Serif" font-size="10.00">14</text>
</a>
</g>
</g>
<!-- dir_2c61f424fd391396db977702a2beee9a&#45;&gt;dir_1d7cadfed01c895b25460177608d44e9 -->
<g id="edge9" class="edge">
<title>dir_2c61f424fd391396db977702a2beee9a&#45;&gt;dir_1d7cadfed01c895b25460177608d44e9</title>
<path fill="none" stroke="black" d="M351.96,-294.94C355.08,-292.4 358.15,-289.72 360.92,-287 369.13,-278.95 377.18,-269.25 383.95,-260.42"/>
<polygon fill="black" stroke="black" points="386.83,-262.41 390,-252.3 381.22,-258.22 386.83,-262.41"/>
<g id="a_edge9&#45;headlabel"><a xlink:href="dir_000377_000052.xhtml" target="_top" xlink:title="32">
<text text-anchor="middle" x="386.95" y="-264.49" font-family="Helvetica,sans-Serif" font-size="10.00">32</text>
</a>
</g>
</g>
<!-- dir_2c61f424fd391396db977702a2beee9a&#45;&gt;dir_5815af820a9cc9481f1d0990a0d60286 -->
<g id="edge11" class="edge">
<title>dir_2c61f424fd391396db977702a2beee9a&#45;&gt;dir_5815af820a9cc9481f1d0990a0d60286</title>
<path fill="none" stroke="black" d="M300.74,-311.78C230.51,-310.92 47.12,-306.79 28.92,-287 -19.09,-234.82 -1.29,-184.21 41.92,-128 110.88,-38.28 257.18,-21.81 326.27,-19.2"/>
<polygon fill="black" stroke="black" points="326.79,-22.68 336.68,-18.89 326.58,-15.69 326.79,-22.68"/>
<g id="a_edge11&#45;headlabel"><a xlink:href="dir_000377_000031.xhtml" target="_top" xlink:title="16">
<text text-anchor="middle" x="323.28" y="-23.13" font-family="Helvetica,sans-Serif" font-size="10.00">16</text>
</a>
</g>
</g>
<!-- dir_2c61f424fd391396db977702a2beee9a&#45;&gt;dir_fdedb0aba14d44ce9d99bc100e026e6a -->
<g id="edge12" class="edge">
<title>dir_2c61f424fd391396db977702a2beee9a&#45;&gt;dir_fdedb0aba14d44ce9d99bc100e026e6a</title>
<path fill="none" stroke="black" d="M354.99,-309.27C383.78,-305.78 426.7,-298.77 437.92,-287 462.29,-261.43 464.66,-218.75 463.09,-190.74"/>
<polygon fill="black" stroke="black" points="466.56,-190.14 462.3,-180.43 459.58,-190.67 466.56,-190.14"/>
<g id="a_edge12&#45;headlabel"><a xlink:href="dir_000377_000016.xhtml" target="_top" xlink:title="48">
<text text-anchor="middle" x="469.66" y="-191" font-family="Helvetica,sans-Serif" font-size="10.00">48</text>
</a>
</g>
</g>
<!-- dir_214608ef36d61442cb2b0c1c4e9a7def&#45;&gt;dir_5815af820a9cc9481f1d0990a0d60286 -->
<g id="edge13" class="edge">
<title>dir_214608ef36d61442cb2b0c1c4e9a7def&#45;&gt;dir_5815af820a9cc9481f1d0990a0d60286</title>
<path fill="none" stroke="black" d="M358,-71.7C357.21,-63.98 356.98,-54.71 357.32,-46.11"/>
<polygon fill="black" stroke="black" points="360.81,-46.32 358.02,-36.1 353.83,-45.84 360.81,-46.32"/>
<g id="a_edge13&#45;headlabel"><a xlink:href="dir_000000_000031.xhtml" target="_top" xlink:title="16">
<text text-anchor="middle" x="363.4" y="-47.61" font-family="Helvetica,sans-Serif" font-size="10.00">16</text>
</a>
</g>
</g>
<!-- dir_a8053b3d69cfefb2b2e6ec7bf9dd5c1a&#45;&gt;dir_2c61f424fd391396db977702a2beee9a -->
<g id="edge14" class="edge">
<title>dir_a8053b3d69cfefb2b2e6ec7bf9dd5c1a&#45;&gt;dir_2c61f424fd391396db977702a2beee9a</title>
<path fill="none" stroke="black" d="M510.33,-252.27C504.7,-263.97 493.74,-278.75 479.92,-287 445.25,-307.69 397.99,-312.28 365.26,-312.81"/>
<polygon fill="black" stroke="black" points="365.16,-309.31 355.17,-312.86 365.19,-316.31 365.16,-309.31"/>
<g id="a_edge14&#45;headlabel"><a xlink:href="dir_000049_000377.xhtml" target="_top" xlink:title="1">
<text text-anchor="middle" x="368.74" y="-303.95" font-family="Helvetica,sans-Serif" font-size="10.00">1</text>
</a>
</g>
</g>
<!-- dir_a8053b3d69cfefb2b2e6ec7bf9dd5c1a&#45;&gt;dir_214608ef36d61442cb2b0c1c4e9a7def -->
<g id="edge15" class="edge">
<title>dir_a8053b3d69cfefb2b2e6ec7bf9dd5c1a&#45;&gt;dir_214608ef36d61442cb2b0c1c4e9a7def</title>
<path fill="none" stroke="black" d="M515.1,-215.81C518.28,-192.91 520.07,-152.45 498.92,-128 478.6,-104.51 444.92,-95.25 416.28,-91.87"/>
<polygon fill="black" stroke="black" points="416.29,-88.36 406,-90.88 415.61,-95.32 416.29,-88.36"/>
<g id="a_edge15&#45;headlabel"><a xlink:href="dir_000049_000000.xhtml" target="_top" xlink:title="26">
<text text-anchor="middle" x="420.14" y="-83.38" font-family="Helvetica,sans-Serif" font-size="10.00">26</text>
</a>
</g>
</g>
<!-- dir_a8053b3d69cfefb2b2e6ec7bf9dd5c1a&#45;&gt;dir_5815af820a9cc9481f1d0990a0d60286 -->
<g id="edge16" class="edge">
<title>dir_a8053b3d69cfefb2b2e6ec7bf9dd5c1a&#45;&gt;dir_5815af820a9cc9481f1d0990a0d60286</title>
<path fill="none" stroke="black" d="M518.77,-215.89C526.32,-194.14 535.59,-156.05 520.92,-128 495.78,-79.96 438.77,-48.84 400.82,-32.61"/>
<polygon fill="black" stroke="black" points="401.71,-29.19 391.14,-28.61 399.04,-35.66 401.71,-29.19"/>
<g id="a_edge16&#45;headlabel"><a xlink:href="dir_000049_000031.xhtml" target="_top" xlink:title="3">
<text text-anchor="middle" x="406.12" y="-25.44" font-family="Helvetica,sans-Serif" font-size="10.00">3</text>
</a>
</g>
</g>
<!-- dir_a8053b3d69cfefb2b2e6ec7bf9dd5c1a&#45;&gt;dir_fdedb0aba14d44ce9d99bc100e026e6a -->
<g id="edge17" class="edge">
<title>dir_a8053b3d69cfefb2b2e6ec7bf9dd5c1a&#45;&gt;dir_fdedb0aba14d44ce9d99bc100e026e6a</title>
<path fill="none" stroke="black" d="M499.06,-215.7C492.89,-207.39 485.38,-197.28 478.59,-188.14"/>
<polygon fill="black" stroke="black" points="481.4,-186.04 472.62,-180.1 475.78,-190.22 481.4,-186.04"/>
<g id="a_edge17&#45;headlabel"><a xlink:href="dir_000049_000016.xhtml" target="_top" xlink:title="1">
<text text-anchor="middle" x="485.82" y="-184.74" font-family="Helvetica,sans-Serif" font-size="10.00">1</text>
</a>
</g>
</g>
<!-- dir_1d7cadfed01c895b25460177608d44e9&#45;&gt;dir_d91e1966cc57df4f49d1e07be7697713 -->
<g id="edge20" class="edge">
<title>dir_1d7cadfed01c895b25460177608d44e9&#45;&gt;dir_d91e1966cc57df4f49d1e07be7697713</title>
<path fill="none" stroke="black" d="M374.63,-234C313.22,-234 251.81,-234 190.41,-234"/>
<polygon fill="black" stroke="black" points="190.15,-230.5 180.15,-234 190.15,-237.5 190.15,-230.5"/>
<g id="a_edge20&#45;headlabel"><a xlink:href="dir_000052_000028.xhtml" target="_top" xlink:title="1">
<text text-anchor="middle" x="193.75" y="-225.16" font-family="Helvetica,sans-Serif" font-size="10.00">1</text>
</a>
</g>
</g>
<!-- dir_1d7cadfed01c895b25460177608d44e9&#45;&gt;dir_1ce938f580a6f304b99685e2c1dd19db -->
<g id="edge21" class="edge">
<title>dir_1d7cadfed01c895b25460177608d44e9&#45;&gt;dir_1ce938f580a6f304b99685e2c1dd19db</title>
<path fill="none" stroke="black" d="M393.72,-252.23C385.63,-267.28 371.62,-286.82 351.92,-291 327.35,-296.21 150.48,-296.21 125.92,-291 110.63,-287.76 99.6,-274.3 92.29,-261.27"/>
<polygon fill="black" stroke="black" points="95.24,-259.36 87.61,-252.02 89,-262.52 95.24,-259.36"/>
<g id="a_edge21&#45;headlabel"><a xlink:href="dir_000052_000100.xhtml" target="_top" xlink:title="1">
<text text-anchor="middle" x="99.4" y="-258.79" font-family="Helvetica,sans-Serif" font-size="10.00">1</text>
</a>
</g>
</g>
<!-- dir_1d7cadfed01c895b25460177608d44e9&#45;&gt;dir_707aa52d67938117542c6646238d6f70 -->
<g id="edge18" class="edge">
<title>dir_1d7cadfed01c895b25460177608d44e9&#45;&gt;dir_707aa52d67938117542c6646238d6f70</title>
<path fill="none" stroke="black" d="M378.93,-215.7C367.1,-206.8 352.52,-195.82 339.74,-186.2"/>
<polygon fill="black" stroke="black" points="341.74,-183.32 331.64,-180.1 337.53,-188.91 341.74,-183.32"/>
<g id="a_edge18&#45;headlabel"><a xlink:href="dir_000052_000033.xhtml" target="_top" xlink:title="8">
<text text-anchor="middle" x="346.31" y="-180.71" font-family="Helvetica,sans-Serif" font-size="10.00">8</text>
</a>
</g>
</g>
<!-- dir_1d7cadfed01c895b25460177608d44e9&#45;&gt;dir_214608ef36d61442cb2b0c1c4e9a7def -->
<g id="edge19" class="edge">
<title>dir_1d7cadfed01c895b25460177608d44e9&#45;&gt;dir_214608ef36d61442cb2b0c1c4e9a7def</title>
<path fill="none" stroke="black" d="M398.72,-215.72C394.67,-194.75 387.1,-158.43 377.92,-128 376.89,-124.61 375.71,-121.08 374.48,-117.62"/>
<polygon fill="black" stroke="black" points="377.73,-116.3 370.97,-108.15 371.17,-118.74 377.73,-116.3"/>
<g id="a_edge19&#45;headlabel"><a xlink:href="dir_000052_000000.xhtml" target="_top" xlink:title="18">
<text text-anchor="middle" x="381.64" y="-116.18" font-family="Helvetica,sans-Serif" font-size="10.00">18</text>
</a>
</g>
</g>
<!-- dir_1d7cadfed01c895b25460177608d44e9&#45;&gt;dir_fdedb0aba14d44ce9d99bc100e026e6a -->
<g id="edge22" class="edge">
<title>dir_1d7cadfed01c895b25460177608d44e9&#45;&gt;dir_fdedb0aba14d44ce9d99bc100e026e6a</title>
<path fill="none" stroke="black" d="M416.25,-215.7C423.21,-207.3 431.69,-197.07 439.32,-187.86"/>
<polygon fill="black" stroke="black" points="442.06,-190.04 445.74,-180.1 436.67,-185.57 442.06,-190.04"/>
<g id="a_edge22&#45;headlabel"><a xlink:href="dir_000052_000016.xhtml" target="_top" xlink:title="2">
<text text-anchor="middle" x="441.95" y="-192.12" font-family="Helvetica,sans-Serif" font-size="10.00">2</text>
</a>
</g>
</g>
<!-- dir_5815af820a9cc9481f1d0990a0d60286&#45;&gt;dir_214608ef36d61442cb2b0c1c4e9a7def -->
<g id="edge32" class="edge">
<title>dir_5815af820a9cc9481f1d0990a0d60286&#45;&gt;dir_214608ef36d61442cb2b0c1c4e9a7def</title>
<path fill="none" stroke="black" d="M369.81,-36.1C370.62,-43.79 370.85,-53.05 370.52,-61.67"/>
<polygon fill="black" stroke="black" points="367.03,-61.48 369.83,-71.7 374.01,-61.96 367.03,-61.48"/>
<g id="a_edge32&#45;headlabel"><a xlink:href="dir_000031_000000.xhtml" target="_top" xlink:title="6">
<text text-anchor="middle" x="364.44" y="-55.2" font-family="Helvetica,sans-Serif" font-size="10.00">6</text>
</a>
</g>
</g>
<!-- dir_fdedb0aba14d44ce9d99bc100e026e6a&#45;&gt;dir_214608ef36d61442cb2b0c1c4e9a7def -->
<g id="edge33" class="edge">
<title>dir_fdedb0aba14d44ce9d99bc100e026e6a&#45;&gt;dir_214608ef36d61442cb2b0c1c4e9a7def</title>
<path fill="none" stroke="black" d="M437.16,-143.76C430.35,-138.65 422.86,-133.07 415.92,-128 409.7,-123.46 403.04,-118.66 396.62,-114.08"/>
<polygon fill="black" stroke="black" points="398.26,-110.95 388.08,-108.01 394.2,-116.66 398.26,-110.95"/>
<g id="a_edge33&#45;headlabel"><a xlink:href="dir_000016_000000.xhtml" target="_top" xlink:title="17">
<text text-anchor="middle" x="402.84" y="-108.22" font-family="Helvetica,sans-Serif" font-size="10.00">17</text>
</a>
</g>
</g>
<!-- dir_fdedb0aba14d44ce9d99bc100e026e6a&#45;&gt;dir_5815af820a9cc9481f1d0990a0d60286 -->
<g id="edge34" class="edge">
<title>dir_fdedb0aba14d44ce9d99bc100e026e6a&#45;&gt;dir_5815af820a9cc9481f1d0990a0d60286</title>
<path fill="none" stroke="black" d="M453.03,-143.75C445.2,-125.17 431.35,-95.16 414.92,-72 407.83,-62.01 398.89,-52.07 390.49,-43.54"/>
<polygon fill="black" stroke="black" points="392.88,-40.98 383.3,-36.44 387.96,-45.96 392.88,-40.98"/>
<g id="a_edge34&#45;headlabel"><a xlink:href="dir_000016_000031.xhtml" target="_top" xlink:title="2">
<text text-anchor="middle" x="397.43" y="-38.98" font-family="Helvetica,sans-Serif" font-size="10.00">2</text>
</a>
</g>
</g>
</g>
</svg>
