<?xml version="1.0" encoding="UTF-8" standalone="no"?>
<!DOCTYPE svg PUBLIC "-//W3C//DTD SVG 1.1//EN"
 "http://www.w3.org/Graphics/SVG/1.1/DTD/svg11.dtd">
<!-- Generated by graphviz version 2.38.0 (20140413.2041)
 -->
<!-- Title: GCDirectConvolutionLayer Pages: 1 -->
<svg width="150pt" height="140pt"
 viewBox="0.00 0.00 150.00 140.00" xmlns="http://www.w3.org/2000/svg" xmlns:xlink="http://www.w3.org/1999/xlink">
<g id="graph0" class="graph" transform="scale(1 1) rotate(0) translate(4 136)">
<title>GCDirectConvolutionLayer</title>
<polygon fill="white" stroke="none" points="-4,4 -4,-136 146,-136 146,4 -4,4"/>
<!-- Node1 -->
<g id="node1" class="node"><title>Node1</title>
<polygon fill="#bfbfbf" stroke="black" points="0,-0.5 0,-19.5 142,-19.5 142,-0.5 0,-0.5"/>
<text text-anchor="middle" x="71" y="-7.5" font-family="Helvetica,sans-Serif" font-size="10.00">GCDirectConvolutionLayer</text>
</g>
<!-- Node2 -->
<g id="node2" class="node"><title>Node2</title>
<g id="a_node2"><a xlink:href="classarm__compute_1_1_i_g_c_simple_function.xhtml" target="_top" xlink:title="Basic interface for functions which have a single OpenGL ES kernel. ">
<polygon fill="white" stroke="black" points="18,-56.5 18,-75.5 124,-75.5 124,-56.5 18,-56.5"/>
<text text-anchor="middle" x="71" y="-63.5" font-family="Helvetica,sans-Serif" font-size="10.00">IGCSimpleFunction</text>
</a>
</g>
</g>
<!-- Node2&#45;&gt;Node1 -->
<g id="edge1" class="edge"><title>Node2&#45;&gt;Node1</title>
<path fill="none" stroke="midnightblue" d="M71,-45.8045C71,-36.9102 71,-26.7798 71,-19.7511"/>
<polygon fill="midnightblue" stroke="midnightblue" points="67.5001,-46.083 71,-56.083 74.5001,-46.083 67.5001,-46.083"/>
</g>
<!-- Node3 -->
<g id="node3" class="node"><title>Node3</title>
<g id="a_node3"><a xlink:href="classarm__compute_1_1_i_function.xhtml" target="_top" xlink:title="Base class for all functions. ">
<polygon fill="white" stroke="black" points="41.5,-112.5 41.5,-131.5 100.5,-131.5 100.5,-112.5 41.5,-112.5"/>
<text text-anchor="middle" x="71" y="-119.5" font-family="Helvetica,sans-Serif" font-size="10.00">IFunction</text>
</a>
</g>
</g>
<!-- Node3&#45;&gt;Node2 -->
<g id="edge2" class="edge"><title>Node3&#45;&gt;Node2</title>
<path fill="none" stroke="midnightblue" d="M71,-101.805C71,-92.9102 71,-82.7798 71,-75.7511"/>
<polygon fill="midnightblue" stroke="midnightblue" points="67.5001,-102.083 71,-112.083 74.5001,-102.083 67.5001,-102.083"/>
</g>
</g>
</svg>
