<?xml version="1.0" encoding="UTF-8" standalone="no"?>
<!DOCTYPE svg PUBLIC "-//W3C//DTD SVG 1.1//EN"
 "http://www.w3.org/Graphics/SVG/1.1/DTD/svg11.dtd">
<!-- Generated by graphviz version 2.38.0 (20140413.2041)
 -->
<!-- Title: tests/benchmark/NEON Pages: 1 -->
<svg width="386pt" height="303pt"
 viewBox="0.00 0.00 386.07 303.00" xmlns="http://www.w3.org/2000/svg" xmlns:xlink="http://www.w3.org/1999/xlink">
<g id="graph0" class="graph" transform="scale(1 1) rotate(0) translate(4 299)">
<title>tests/benchmark/NEON</title>
<polygon fill="white" stroke="none" points="-4,4 -4,-299 382.071,-299 382.071,4 -4,4"/>
<g id="clust1" class="cluster"><title>clusterdir_4f2df8950dc650bf7cf9176fae02facc</title>
<g id="a_clust1"><a xlink:href="dir_4f2df8950dc650bf7cf9176fae02facc.xhtml" target="_top" xlink:title="benchmark">
<polygon fill="#ddddee" stroke="black" points="90.1027,-200 90.1027,-287 250.103,-287 250.103,-200 90.1027,-200"/>
<text text-anchor="middle" x="170.103" y="-275" font-family="Helvetica,sans-Serif" font-size="10.00">benchmark</text>
</a>
</g>
</g>
<g id="clust2" class="cluster"><title>clusterdir_ec05701f68bea22653d08da5856c9ffc</title>
<g id="a_clust2"><a xlink:href="dir_ec05701f68bea22653d08da5856c9ffc.xhtml" target="_top">
<polygon fill="#eeeeff" stroke="black" points="98.1027,-208 98.1027,-260 242.103,-260 242.103,-208 98.1027,-208"/>
</a>
</g>
</g>
<!-- dir_ec05701f68bea22653d08da5856c9ffc -->
<g id="node1" class="node"><title>dir_ec05701f68bea22653d08da5856c9ffc</title>
<text text-anchor="middle" x="207.103" y="-231.5" font-family="Helvetica,sans-Serif" font-size="10.00">NEON</text>
</g>
<!-- dir_2c6de6ea34a07f1d39b21bbdca535ee0 -->
<g id="node3" class="node"><title>dir_2c6de6ea34a07f1d39b21bbdca535ee0</title>
<g id="a_node3"><a xlink:href="dir_2c6de6ea34a07f1d39b21bbdca535ee0.xhtml" target="_top" xlink:title="fixtures">
<polygon fill="none" stroke="black" points="179.103,-180 125.103,-180 125.103,-144 179.103,-144 179.103,-180"/>
<text text-anchor="middle" x="152.103" y="-159.5" font-family="Helvetica,sans-Serif" font-size="10.00">fixtures</text>
</a>
</g>
</g>
<!-- dir_ec05701f68bea22653d08da5856c9ffc&#45;&gt;dir_2c6de6ea34a07f1d39b21bbdca535ee0 -->
<g id="edge11" class="edge"><title>dir_ec05701f68bea22653d08da5856c9ffc&#45;&gt;dir_2c6de6ea34a07f1d39b21bbdca535ee0</title>
<path fill="none" stroke="black" d="M193.507,-215.697C186.98,-207.389 179.035,-197.277 171.856,-188.141"/>
<polygon fill="black" stroke="black" points="174.472,-185.805 165.542,-180.104 168.968,-190.13 174.472,-185.805"/>
<g id="a_edge11&#45;headlabel"><a xlink:href="dir_000046_000055.xhtml" target="_top" xlink:title="25">
<text text-anchor="middle" x="178.926" y="-184.377" font-family="Helvetica,sans-Serif" font-size="10.00">25</text>
</a>
</g>
</g>
<!-- dir_cbdb8362360e11eafe2fa3bc74cf0ffd -->
<g id="node4" class="node"><title>dir_cbdb8362360e11eafe2fa3bc74cf0ffd</title>
<g id="a_node4"><a xlink:href="dir_cbdb8362360e11eafe2fa3bc74cf0ffd.xhtml" target="_top" xlink:title="utils">
<polygon fill="none" stroke="black" points="349.103,-108 295.103,-108 295.103,-72 349.103,-72 349.103,-108"/>
<text text-anchor="middle" x="322.103" y="-87.5" font-family="Helvetica,sans-Serif" font-size="10.00">utils</text>
</a>
</g>
</g>
<!-- dir_ec05701f68bea22653d08da5856c9ffc&#45;&gt;dir_cbdb8362360e11eafe2fa3bc74cf0ffd -->
<g id="edge12" class="edge"><title>dir_ec05701f68bea22653d08da5856c9ffc&#45;&gt;dir_cbdb8362360e11eafe2fa3bc74cf0ffd</title>
<path fill="none" stroke="black" d="M234.253,-230.603C265.12,-226.261 314.191,-214.083 337.103,-180 349.46,-161.617 343.597,-136.399 335.867,-117.499"/>
<polygon fill="black" stroke="black" points="339.015,-115.965 331.742,-108.262 332.624,-118.82 339.015,-115.965"/>
<g id="a_edge12&#45;headlabel"><a xlink:href="dir_000046_000021.xhtml" target="_top" xlink:title="25">
<text text-anchor="middle" x="343.073" y="-115.59" font-family="Helvetica,sans-Serif" font-size="10.00">25</text>
</a>
</g>
</g>
<!-- dir_445738e6fed662d0b65e690e3f1e1de0 -->
<g id="node5" class="node"><title>dir_445738e6fed662d0b65e690e3f1e1de0</title>
<g id="a_node5"><a xlink:href="dir_445738e6fed662d0b65e690e3f1e1de0.xhtml" target="_top" xlink:title="NEON">
<polygon fill="none" stroke="black" points="69.1027,-180 15.1027,-180 15.1027,-144 69.1027,-144 69.1027,-180"/>
<text text-anchor="middle" x="42.1027" y="-159.5" font-family="Helvetica,sans-Serif" font-size="10.00">NEON</text>
</a>
</g>
</g>
<!-- dir_ec05701f68bea22653d08da5856c9ffc&#45;&gt;dir_445738e6fed662d0b65e690e3f1e1de0 -->
<g id="edge13" class="edge"><title>dir_ec05701f68bea22653d08da5856c9ffc&#45;&gt;dir_445738e6fed662d0b65e690e3f1e1de0</title>
<path fill="none" stroke="black" d="M191.022,-215.81C184.93,-210.109 177.636,-204.163 170.103,-200 154.483,-191.368 111.191,-179.7 79.2594,-171.791"/>
<polygon fill="black" stroke="black" points="79.8861,-168.342 69.3408,-169.365 78.2223,-175.141 79.8861,-168.342"/>
<g id="a_edge13&#45;headlabel"><a xlink:href="dir_000046_000059.xhtml" target="_top" xlink:title="26">
<text text-anchor="middle" x="84.0525" y="-163.938" font-family="Helvetica,sans-Serif" font-size="10.00">26</text>
</a>
</g>
</g>
<!-- dir_9e71e2da941d3cafc4d98a9f6ae3de4f -->
<g id="node6" class="node"><title>dir_9e71e2da941d3cafc4d98a9f6ae3de4f</title>
<g id="a_node6"><a xlink:href="dir_9e71e2da941d3cafc4d98a9f6ae3de4f.xhtml" target="_top" xlink:title="framework">
<polygon fill="white" stroke="red" points="237.603,-108 170.603,-108 170.603,-72 237.603,-72 237.603,-108"/>
<text text-anchor="middle" x="204.103" y="-87.5" font-family="Helvetica,sans-Serif" font-size="10.00">framework</text>
</a>
</g>
</g>
<!-- dir_ec05701f68bea22653d08da5856c9ffc&#45;&gt;dir_9e71e2da941d3cafc4d98a9f6ae3de4f -->
<g id="edge14" class="edge"><title>dir_ec05701f68bea22653d08da5856c9ffc&#45;&gt;dir_9e71e2da941d3cafc4d98a9f6ae3de4f</title>
<path fill="none" stroke="black" d="M206.741,-215.871C206.23,-191.67 205.29,-147.211 204.681,-118.393"/>
<polygon fill="black" stroke="black" points="208.176,-118.113 204.466,-108.189 201.178,-118.261 208.176,-118.113"/>
<g id="a_edge14&#45;headlabel"><a xlink:href="dir_000046_000020.xhtml" target="_top" xlink:title="50">
<text text-anchor="middle" x="211.091" y="-119.147" font-family="Helvetica,sans-Serif" font-size="10.00">50</text>
</a>
</g>
</g>
<!-- dir_214608ef36d61442cb2b0c1c4e9a7def -->
<g id="node7" class="node"><title>dir_214608ef36d61442cb2b0c1c4e9a7def</title>
<g id="a_node7"><a xlink:href="dir_214608ef36d61442cb2b0c1c4e9a7def.xhtml" target="_top" xlink:title="arm_compute">
<polygon fill="white" stroke="red" points="246.103,-36 162.103,-36 162.103,-0 246.103,-0 246.103,-36"/>
<text text-anchor="middle" x="204.103" y="-15.5" font-family="Helvetica,sans-Serif" font-size="10.00">arm_compute</text>
</a>
</g>
</g>
<!-- dir_ec05701f68bea22653d08da5856c9ffc&#45;&gt;dir_214608ef36d61442cb2b0c1c4e9a7def -->
<g id="edge15" class="edge"><title>dir_ec05701f68bea22653d08da5856c9ffc&#45;&gt;dir_214608ef36d61442cb2b0c1c4e9a7def</title>
<path fill="none" stroke="black" d="M234.267,-231.944C268.702,-228.99 326.961,-218.252 355.103,-180 383.558,-141.321 385.99,-111.09 358.103,-72 335.161,-39.8418 291.394,-26.9985 256.364,-21.9661"/>
<polygon fill="black" stroke="black" points="256.634,-18.4724 246.275,-20.693 255.758,-25.4174 256.634,-18.4724"/>
<g id="a_edge15&#45;headlabel"><a xlink:href="dir_000046_000000.xhtml" target="_top" xlink:title="134">
<text text-anchor="middle" x="260.556" y="-13.6054" font-family="Helvetica,sans-Serif" font-size="10.00">134</text>
</a>
</g>
</g>
<!-- dir_e13277e8d7d14f3f15e64267bfca6477 -->
<g id="node8" class="node"><title>dir_e13277e8d7d14f3f15e64267bfca6477</title>
<g id="a_node8"><a xlink:href="dir_e13277e8d7d14f3f15e64267bfca6477.xhtml" target="_top" xlink:title="datasets">
<polygon fill="white" stroke="red" points="294.603,-180 235.603,-180 235.603,-144 294.603,-144 294.603,-180"/>
<text text-anchor="middle" x="265.103" y="-159.5" font-family="Helvetica,sans-Serif" font-size="10.00">datasets</text>
</a>
</g>
</g>
<!-- dir_ec05701f68bea22653d08da5856c9ffc&#45;&gt;dir_e13277e8d7d14f3f15e64267bfca6477 -->
<g id="edge16" class="edge"><title>dir_ec05701f68bea22653d08da5856c9ffc&#45;&gt;dir_e13277e8d7d14f3f15e64267bfca6477</title>
<path fill="none" stroke="black" d="M221.44,-215.697C228.393,-207.305 236.873,-197.07 244.503,-187.861"/>
<polygon fill="black" stroke="black" points="247.245,-190.038 250.931,-180.104 241.855,-185.571 247.245,-190.038"/>
<g id="a_edge16&#45;headlabel"><a xlink:href="dir_000046_000060.xhtml" target="_top" xlink:title="58">
<text text-anchor="middle" x="247.138" y="-192.117" font-family="Helvetica,sans-Serif" font-size="10.00">58</text>
</a>
</g>
</g>
<!-- dir_fe1af781eaa3d1f7e682840ac00bce9c -->
<g id="node2" class="node"><title>dir_fe1af781eaa3d1f7e682840ac00bce9c</title>
<g id="a_node2"><a xlink:href="dir_fe1af781eaa3d1f7e682840ac00bce9c.xhtml" target="_top" xlink:title="SYSTEM">
<polygon fill="white" stroke="black" points="161.603,-252 106.603,-252 106.603,-216 161.603,-216 161.603,-252"/>
<text text-anchor="middle" x="134.103" y="-231.5" font-family="Helvetica,sans-Serif" font-size="10.00">SYSTEM</text>
</a>
</g>
</g>
<!-- dir_fe1af781eaa3d1f7e682840ac00bce9c&#45;&gt;dir_2c6de6ea34a07f1d39b21bbdca535ee0 -->
<g id="edge3" class="edge"><title>dir_fe1af781eaa3d1f7e682840ac00bce9c&#45;&gt;dir_2c6de6ea34a07f1d39b21bbdca535ee0</title>
<path fill="none" stroke="black" d="M138.552,-215.697C140.558,-207.898 142.972,-198.509 145.204,-189.829"/>
<polygon fill="black" stroke="black" points="148.604,-190.661 147.704,-180.104 141.824,-188.918 148.604,-190.661"/>
<g id="a_edge3&#45;headlabel"><a xlink:href="dir_000052_000055.xhtml" target="_top" xlink:title="2">
<text text-anchor="middle" x="150.458" y="-192.349" font-family="Helvetica,sans-Serif" font-size="10.00">2</text>
</a>
</g>
</g>
<!-- dir_fe1af781eaa3d1f7e682840ac00bce9c&#45;&gt;dir_cbdb8362360e11eafe2fa3bc74cf0ffd -->
<g id="edge4" class="edge"><title>dir_fe1af781eaa3d1f7e682840ac00bce9c&#45;&gt;dir_cbdb8362360e11eafe2fa3bc74cf0ffd</title>
<path fill="none" stroke="black" d="M149.177,-215.941C155.376,-209.968 163.001,-203.808 171.103,-200 224.804,-174.762 259.907,-220.681 303.103,-180 319.677,-164.391 323.612,-138.154 323.886,-118.201"/>
<polygon fill="black" stroke="black" points="327.385,-118.094 323.731,-108.149 320.386,-118.202 327.385,-118.094"/>
<g id="a_edge4&#45;headlabel"><a xlink:href="dir_000052_000021.xhtml" target="_top" xlink:title="2">
<text text-anchor="middle" x="330.279" y="-119.144" font-family="Helvetica,sans-Serif" font-size="10.00">2</text>
</a>
</g>
</g>
<!-- dir_fe1af781eaa3d1f7e682840ac00bce9c&#45;&gt;dir_445738e6fed662d0b65e690e3f1e1de0 -->
<g id="edge5" class="edge"><title>dir_fe1af781eaa3d1f7e682840ac00bce9c&#45;&gt;dir_445738e6fed662d0b65e690e3f1e1de0</title>
<path fill="none" stroke="black" d="M111.361,-215.697C99.6631,-206.796 85.2419,-195.823 72.5927,-186.199"/>
<polygon fill="black" stroke="black" points="74.6604,-183.374 64.5827,-180.104 70.4217,-188.945 74.6604,-183.374"/>
<g id="a_edge5&#45;headlabel"><a xlink:href="dir_000052_000059.xhtml" target="_top" xlink:title="2">
<text text-anchor="middle" x="79.2403" y="-180.791" font-family="Helvetica,sans-Serif" font-size="10.00">2</text>
</a>
</g>
</g>
<!-- dir_fe1af781eaa3d1f7e682840ac00bce9c&#45;&gt;dir_9e71e2da941d3cafc4d98a9f6ae3de4f -->
<g id="edge6" class="edge"><title>dir_fe1af781eaa3d1f7e682840ac00bce9c&#45;&gt;dir_9e71e2da941d3cafc4d98a9f6ae3de4f</title>
<path fill="none" stroke="black" d="M124.046,-215.842C114.483,-197.072 103.306,-166.645 116.103,-144 125.875,-126.707 143.801,-114.429 160.935,-106.076"/>
<polygon fill="black" stroke="black" points="162.648,-109.143 170.317,-101.832 159.763,-102.765 162.648,-109.143"/>
<g id="a_edge6&#45;headlabel"><a xlink:href="dir_000052_000020.xhtml" target="_top" xlink:title="4">
<text text-anchor="middle" x="160.543" y="-110.711" font-family="Helvetica,sans-Serif" font-size="10.00">4</text>
</a>
</g>
</g>
<!-- dir_fe1af781eaa3d1f7e682840ac00bce9c&#45;&gt;dir_214608ef36d61442cb2b0c1c4e9a7def -->
<g id="edge7" class="edge"><title>dir_fe1af781eaa3d1f7e682840ac00bce9c&#45;&gt;dir_214608ef36d61442cb2b0c1c4e9a7def</title>
<path fill="none" stroke="black" d="M106.54,-230.346C76.0911,-225.775 28.4203,-213.396 6.10274,-180 -2.78724,-166.697 -0.980063,-158.347 6.10274,-144 34.6394,-86.1962 103.795,-52.0414 152.299,-34.4168"/>
<polygon fill="black" stroke="black" points="153.734,-37.6225 162.01,-31.0072 151.415,-31.0178 153.734,-37.6225"/>
<g id="a_edge7&#45;headlabel"><a xlink:href="dir_000052_000000.xhtml" target="_top" xlink:title="21">
<text text-anchor="middle" x="151.283" y="-38.9922" font-family="Helvetica,sans-Serif" font-size="10.00">21</text>
</a>
</g>
</g>
<!-- dir_2c6de6ea34a07f1d39b21bbdca535ee0&#45;&gt;dir_9e71e2da941d3cafc4d98a9f6ae3de4f -->
<g id="edge1" class="edge"><title>dir_2c6de6ea34a07f1d39b21bbdca535ee0&#45;&gt;dir_9e71e2da941d3cafc4d98a9f6ae3de4f</title>
<path fill="none" stroke="black" d="M164.957,-143.697C171.128,-135.389 178.64,-125.277 185.427,-116.141"/>
<polygon fill="black" stroke="black" points="188.243,-118.219 191.397,-108.104 182.624,-114.045 188.243,-118.219"/>
<g id="a_edge1&#45;headlabel"><a xlink:href="dir_000055_000020.xhtml" target="_top" xlink:title="32">
<text text-anchor="middle" x="188.379" y="-120.298" font-family="Helvetica,sans-Serif" font-size="10.00">32</text>
</a>
</g>
</g>
<!-- dir_2c6de6ea34a07f1d39b21bbdca535ee0&#45;&gt;dir_214608ef36d61442cb2b0c1c4e9a7def -->
<g id="edge2" class="edge"><title>dir_2c6de6ea34a07f1d39b21bbdca535ee0&#45;&gt;dir_214608ef36d61442cb2b0c1c4e9a7def</title>
<path fill="none" stroke="black" d="M150.992,-143.901C150.429,-125.449 151.391,-95.5454 161.103,-72 165.237,-61.9773 171.909,-52.3485 178.776,-44.1124"/>
<polygon fill="black" stroke="black" points="181.616,-46.1855 185.623,-36.3776 176.374,-41.546 181.616,-46.1855"/>
<g id="a_edge2&#45;headlabel"><a xlink:href="dir_000055_000000.xhtml" target="_top" xlink:title="53">
<text text-anchor="middle" x="181.359" y="-48.259" font-family="Helvetica,sans-Serif" font-size="10.00">53</text>
</a>
</g>
</g>
<!-- dir_cbdb8362360e11eafe2fa3bc74cf0ffd&#45;&gt;dir_214608ef36d61442cb2b0c1c4e9a7def -->
<g id="edge8" class="edge"><title>dir_cbdb8362360e11eafe2fa3bc74cf0ffd&#45;&gt;dir_214608ef36d61442cb2b0c1c4e9a7def</title>
<path fill="none" stroke="black" d="M295.031,-72.9406C279.271,-63.5913 259.161,-51.6616 241.862,-41.3998"/>
<polygon fill="black" stroke="black" points="243.497,-38.2998 233.11,-36.208 239.925,-44.3202 243.497,-38.2998"/>
<g id="a_edge8&#45;headlabel"><a xlink:href="dir_000021_000000.xhtml" target="_top" xlink:title="18">
<text text-anchor="middle" x="248.037" y="-35.1918" font-family="Helvetica,sans-Serif" font-size="10.00">18</text>
</a>
</g>
</g>
<!-- dir_445738e6fed662d0b65e690e3f1e1de0&#45;&gt;dir_214608ef36d61442cb2b0c1c4e9a7def -->
<g id="edge9" class="edge"><title>dir_445738e6fed662d0b65e690e3f1e1de0&#45;&gt;dir_214608ef36d61442cb2b0c1c4e9a7def</title>
<path fill="none" stroke="black" d="M61.6437,-143.871C90.3483,-118.711 144.033,-71.6535 176.675,-43.0415"/>
<polygon fill="black" stroke="black" points="179.279,-45.4129 184.492,-36.1893 174.665,-40.1489 179.279,-45.4129"/>
<g id="a_edge9&#45;headlabel"><a xlink:href="dir_000059_000000.xhtml" target="_top" xlink:title="5">
<text text-anchor="middle" x="178.448" y="-47.4175" font-family="Helvetica,sans-Serif" font-size="10.00">5</text>
</a>
</g>
</g>
<!-- dir_9e71e2da941d3cafc4d98a9f6ae3de4f&#45;&gt;dir_214608ef36d61442cb2b0c1c4e9a7def -->
<g id="edge10" class="edge"><title>dir_9e71e2da941d3cafc4d98a9f6ae3de4f&#45;&gt;dir_214608ef36d61442cb2b0c1c4e9a7def</title>
<path fill="none" stroke="black" d="M204.103,-71.6966C204.103,-63.9827 204.103,-54.7125 204.103,-46.1124"/>
<polygon fill="black" stroke="black" points="207.603,-46.1043 204.103,-36.1043 200.603,-46.1044 207.603,-46.1043"/>
<g id="a_edge10&#45;headlabel"><a xlink:href="dir_000020_000000.xhtml" target="_top" xlink:title="4">
<text text-anchor="middle" x="210.442" y="-47.199" font-family="Helvetica,sans-Serif" font-size="10.00">4</text>
</a>
</g>
</g>
<!-- dir_e13277e8d7d14f3f15e64267bfca6477&#45;&gt;dir_cbdb8362360e11eafe2fa3bc74cf0ffd -->
<g id="edge17" class="edge"><title>dir_e13277e8d7d14f3f15e64267bfca6477&#45;&gt;dir_cbdb8362360e11eafe2fa3bc74cf0ffd</title>
<path fill="none" stroke="black" d="M279.193,-143.697C286.026,-135.305 294.36,-125.07 301.859,-115.861"/>
<polygon fill="black" stroke="black" points="304.575,-118.069 308.175,-108.104 299.147,-113.649 304.575,-118.069"/>
<g id="a_edge17&#45;headlabel"><a xlink:href="dir_000060_000021.xhtml" target="_top" xlink:title="62">
<text text-anchor="middle" x="304.507" y="-120.149" font-family="Helvetica,sans-Serif" font-size="10.00">62</text>
</a>
</g>
</g>
<!-- dir_e13277e8d7d14f3f15e64267bfca6477&#45;&gt;dir_9e71e2da941d3cafc4d98a9f6ae3de4f -->
<g id="edge18" class="edge"><title>dir_e13277e8d7d14f3f15e64267bfca6477&#45;&gt;dir_9e71e2da941d3cafc4d98a9f6ae3de4f</title>
<path fill="none" stroke="black" d="M250.024,-143.697C242.711,-135.305 233.793,-125.07 225.768,-115.861"/>
<polygon fill="black" stroke="black" points="228.216,-113.344 219.008,-108.104 222.939,-117.943 228.216,-113.344"/>
<g id="a_edge18&#45;headlabel"><a xlink:href="dir_000060_000020.xhtml" target="_top" xlink:title="21">
<text text-anchor="middle" x="232.719" y="-111.689" font-family="Helvetica,sans-Serif" font-size="10.00">21</text>
</a>
</g>
</g>
<!-- dir_e13277e8d7d14f3f15e64267bfca6477&#45;&gt;dir_214608ef36d61442cb2b0c1c4e9a7def -->
<g id="edge19" class="edge"><title>dir_e13277e8d7d14f3f15e64267bfca6477&#45;&gt;dir_214608ef36d61442cb2b0c1c4e9a7def</title>
<path fill="none" stroke="black" d="M263.783,-143.861C261.837,-125.374 257.145,-95.4408 246.103,-72 241.45,-62.1226 234.635,-52.4271 227.842,-44.085"/>
<polygon fill="black" stroke="black" points="230.295,-41.5675 221.139,-36.2374 224.973,-46.1141 230.295,-41.5675"/>
<g id="a_edge19&#45;headlabel"><a xlink:href="dir_000060_000000.xhtml" target="_top" xlink:title="125">
<text text-anchor="middle" x="234.789" y="-39.9564" font-family="Helvetica,sans-Serif" font-size="10.00">125</text>
</a>
</g>
</g>
</g>
</svg>
