<?xml version="1.0" encoding="UTF-8" standalone="no"?>
<!DOCTYPE svg PUBLIC "-//W3C//DTD SVG 1.1//EN"
 "http://www.w3.org/Graphics/SVG/1.1/DTD/svg11.dtd">
<!-- Generated by graphviz version 2.38.0 (20140413.2041)
 -->
<!-- Title: arm_compute/core/NEON Pages: 1 -->
<svg width="114pt" height="303pt"
 viewBox="0.00 0.00 114.00 303.00" xmlns="http://www.w3.org/2000/svg" xmlns:xlink="http://www.w3.org/1999/xlink">
<g id="graph0" class="graph" transform="scale(1 1) rotate(0) translate(4 299)">
<title>arm_compute/core/NEON</title>
<polygon fill="white" stroke="none" points="-4,4 -4,-299 110,-299 110,4 -4,4"/>
<g id="clust1" class="cluster"><title>clusterdir_1fb090f0c6070330bfaccc4236d3ca0d</title>
<g id="a_clust1"><a xlink:href="dir_1fb090f0c6070330bfaccc4236d3ca0d.xhtml" target="_top" xlink:title="core">
<polygon fill="#ddddee" stroke="black" points="8,-128 8,-287 94,-287 94,-128 8,-128"/>
<text text-anchor="middle" x="51" y="-275" font-family="Helvetica,sans-Serif" font-size="10.00">core</text>
</a>
</g>
</g>
<g id="clust2" class="cluster"><title>clusterdir_315f6cf1ec0b2df3ae747ff8286a19f5</title>
<g id="a_clust2"><a xlink:href="dir_315f6cf1ec0b2df3ae747ff8286a19f5.xhtml" target="_top">
<polygon fill="#eeeeff" stroke="black" points="16,-136 16,-260 86,-260 86,-136 16,-136"/>
</a>
</g>
</g>
<!-- dir_315f6cf1ec0b2df3ae747ff8286a19f5 -->
<g id="node1" class="node"><title>dir_315f6cf1ec0b2df3ae747ff8286a19f5</title>
<text text-anchor="middle" x="51" y="-231.5" font-family="Helvetica,sans-Serif" font-size="10.00">NEON</text>
</g>
<!-- dir_2c3c4cb85e732569e2614ad40a451d53 -->
<g id="node2" class="node"><title>dir_2c3c4cb85e732569e2614ad40a451d53</title>
<g id="a_node2"><a xlink:href="dir_2c3c4cb85e732569e2614ad40a451d53.xhtml" target="_top" xlink:title="kernels">
<polygon fill="white" stroke="red" points="78,-180 24,-180 24,-144 78,-144 78,-180"/>
<text text-anchor="middle" x="51" y="-159.5" font-family="Helvetica,sans-Serif" font-size="10.00">kernels</text>
</a>
</g>
</g>
<!-- dir_315f6cf1ec0b2df3ae747ff8286a19f5&#45;&gt;dir_2c3c4cb85e732569e2614ad40a451d53 -->
<g id="edge3" class="edge"><title>dir_315f6cf1ec0b2df3ae747ff8286a19f5&#45;&gt;dir_2c3c4cb85e732569e2614ad40a451d53</title>
<path fill="none" stroke="black" d="M51,-215.697C51,-207.983 51,-198.712 51,-190.112"/>
<polygon fill="black" stroke="black" points="54.5001,-190.104 51,-180.104 47.5001,-190.104 54.5001,-190.104"/>
<g id="a_edge3&#45;headlabel"><a xlink:href="dir_000014_000015.xhtml" target="_top" xlink:title="93">
<text text-anchor="middle" x="57.3393" y="-191.199" font-family="Helvetica,sans-Serif" font-size="10.00">93</text>
</a>
</g>
</g>
<!-- dir_5815af820a9cc9481f1d0990a0d60286 -->
<g id="node3" class="node"><title>dir_5815af820a9cc9481f1d0990a0d60286</title>
<g id="a_node3"><a xlink:href="dir_5815af820a9cc9481f1d0990a0d60286.xhtml" target="_top" xlink:title="support">
<polygon fill="none" stroke="black" points="78,-36 24,-36 24,-0 78,-0 78,-36"/>
<text text-anchor="middle" x="51" y="-15.5" font-family="Helvetica,sans-Serif" font-size="10.00">support</text>
</a>
</g>
</g>
<!-- dir_2c3c4cb85e732569e2614ad40a451d53&#45;&gt;dir_5815af820a9cc9481f1d0990a0d60286 -->
<g id="edge1" class="edge"><title>dir_2c3c4cb85e732569e2614ad40a451d53&#45;&gt;dir_5815af820a9cc9481f1d0990a0d60286</title>
<path fill="none" stroke="black" d="M47.7517,-143.888C45.9542,-133.542 43.9053,-120.063 43,-108 41.8026,-92.0449 41.8026,-87.9551 43,-72 43.6366,-63.5179 44.8384,-54.3361 46.1208,-46.0356"/>
<polygon fill="black" stroke="black" points="49.5836,-46.5472 47.7517,-36.1119 42.6763,-45.412 49.5836,-46.5472"/>
<g id="a_edge1&#45;headlabel"><a xlink:href="dir_000015_000043.xhtml" target="_top" xlink:title="5">
<text text-anchor="middle" x="51.8024" y="-48.0546" font-family="Helvetica,sans-Serif" font-size="10.00">5</text>
</a>
</g>
</g>
<!-- dir_7484b841a86f2d7fdd057c9b24fbf230 -->
<g id="node4" class="node"><title>dir_7484b841a86f2d7fdd057c9b24fbf230</title>
<g id="a_node4"><a xlink:href="dir_7484b841a86f2d7fdd057c9b24fbf230.xhtml" target="_top" xlink:title="CPP">
<polygon fill="white" stroke="red" points="106,-108 52,-108 52,-72 106,-72 106,-108"/>
<text text-anchor="middle" x="79" y="-87.5" font-family="Helvetica,sans-Serif" font-size="10.00">CPP</text>
</a>
</g>
</g>
<!-- dir_2c3c4cb85e732569e2614ad40a451d53&#45;&gt;dir_7484b841a86f2d7fdd057c9b24fbf230 -->
<g id="edge2" class="edge"><title>dir_2c3c4cb85e732569e2614ad40a451d53&#45;&gt;dir_7484b841a86f2d7fdd057c9b24fbf230</title>
<path fill="none" stroke="black" d="M57.9214,-143.697C61.0747,-135.813 64.8783,-126.304 68.3814,-117.546"/>
<polygon fill="black" stroke="black" points="71.694,-118.689 72.1583,-108.104 65.1946,-116.089 71.694,-118.689"/>
<g id="a_edge2&#45;headlabel"><a xlink:href="dir_000015_000004.xhtml" target="_top" xlink:title="2">
<text text-anchor="middle" x="72.9952" y="-120.581" font-family="Helvetica,sans-Serif" font-size="10.00">2</text>
</a>
</g>
</g>
<!-- dir_7484b841a86f2d7fdd057c9b24fbf230&#45;&gt;dir_5815af820a9cc9481f1d0990a0d60286 -->
<g id="edge4" class="edge"><title>dir_7484b841a86f2d7fdd057c9b24fbf230&#45;&gt;dir_5815af820a9cc9481f1d0990a0d60286</title>
<path fill="none" stroke="black" d="M72.0786,-71.6966C68.9253,-63.8132 65.1217,-54.3042 61.6186,-45.5464"/>
<polygon fill="black" stroke="black" points="64.8054,-44.0892 57.8417,-36.1043 58.306,-46.689 64.8054,-44.0892"/>
<g id="a_edge4&#45;headlabel"><a xlink:href="dir_000004_000043.xhtml" target="_top" xlink:title="1">
<text text-anchor="middle" x="68.7765" y="-43.8723" font-family="Helvetica,sans-Serif" font-size="10.00">1</text>
</a>
</g>
</g>
</g>
</svg>
