<?xml version="1.0" encoding="UTF-8" standalone="no"?>
<!DOCTYPE svg PUBLIC "-//W3C//DTD SVG 1.1//EN"
 "http://www.w3.org/Graphics/SVG/1.1/DTD/svg11.dtd">
<!-- Generated by graphviz version 2.38.0 (20140413.2041)
 -->
<!-- Title: arm_compute/runtime/NEON/functions Pages: 1 -->
<svg width="108pt" height="223pt"
 viewBox="0.00 0.00 108.00 223.00" xmlns="http://www.w3.org/2000/svg" xmlns:xlink="http://www.w3.org/1999/xlink">
<g id="graph0" class="graph" transform="scale(1 1) rotate(0) translate(4 219)">
<title>arm_compute/runtime/NEON/functions</title>
<polygon fill="white" stroke="none" points="-4,4 -4,-219 104,-219 104,4 -4,4"/>
<g id="clust1" class="cluster"><title>clusterdir_65e289039e1347f87d412b0a1b1a312c</title>
<g id="a_clust1"><a xlink:href="dir_65e289039e1347f87d412b0a1b1a312c.xhtml" target="_top" xlink:title="NEON">
<polygon fill="#ddddee" stroke="black" points="16,-136 16,-207 92,-207 92,-136 16,-136"/>
<text text-anchor="middle" x="54" y="-195" font-family="Helvetica,sans-Serif" font-size="10.00">NEON</text>
</a>
</g>
</g>
<!-- dir_345bd7154d1542d1e03fd2836959a19d -->
<g id="node1" class="node"><title>dir_345bd7154d1542d1e03fd2836959a19d</title>
<g id="a_node1"><a xlink:href="dir_345bd7154d1542d1e03fd2836959a19d.xhtml" target="_top" xlink:title="functions">
<polygon fill="#eeeeff" stroke="black" points="84,-180 24,-180 24,-144 84,-144 84,-180"/>
<text text-anchor="middle" x="54" y="-159.5" font-family="Helvetica,sans-Serif" font-size="10.00">functions</text>
</a>
</g>
</g>
<!-- dir_b496024afd63bafbf4e8da80d7d3a81a -->
<g id="node2" class="node"><title>dir_b496024afd63bafbf4e8da80d7d3a81a</title>
<g id="a_node2"><a xlink:href="dir_b496024afd63bafbf4e8da80d7d3a81a.xhtml" target="_top" xlink:title="CPP">
<polygon fill="white" stroke="red" points="54,-108 0,-108 0,-72 54,-72 54,-108"/>
<text text-anchor="middle" x="27" y="-87.5" font-family="Helvetica,sans-Serif" font-size="10.00">CPP</text>
</a>
</g>
</g>
<!-- dir_345bd7154d1542d1e03fd2836959a19d&#45;&gt;dir_b496024afd63bafbf4e8da80d7d3a81a -->
<g id="edge1" class="edge"><title>dir_345bd7154d1542d1e03fd2836959a19d&#45;&gt;dir_b496024afd63bafbf4e8da80d7d3a81a</title>
<path fill="none" stroke="black" d="M47.3258,-143.697C44.2851,-135.813 40.6173,-126.304 37.2393,-117.546"/>
<polygon fill="black" stroke="black" points="40.4617,-116.175 33.5974,-108.104 33.9307,-118.694 40.4617,-116.175"/>
<g id="a_edge1&#45;headlabel"><a xlink:href="dir_000035_000030.xhtml" target="_top" xlink:title="1">
<text text-anchor="middle" x="44.4043" y="-116.007" font-family="Helvetica,sans-Serif" font-size="10.00">1</text>
</a>
</g>
</g>
<!-- dir_1fb090f0c6070330bfaccc4236d3ca0d -->
<g id="node3" class="node"><title>dir_1fb090f0c6070330bfaccc4236d3ca0d</title>
<g id="a_node3"><a xlink:href="dir_1fb090f0c6070330bfaccc4236d3ca0d.xhtml" target="_top" xlink:title="core">
<polygon fill="white" stroke="red" points="81,-36 27,-36 27,-0 81,-0 81,-36"/>
<text text-anchor="middle" x="54" y="-15.5" font-family="Helvetica,sans-Serif" font-size="10.00">core</text>
</a>
</g>
</g>
<!-- dir_345bd7154d1542d1e03fd2836959a19d&#45;&gt;dir_1fb090f0c6070330bfaccc4236d3ca0d -->
<g id="edge2" class="edge"><title>dir_345bd7154d1542d1e03fd2836959a19d&#45;&gt;dir_1fb090f0c6070330bfaccc4236d3ca0d</title>
<path fill="none" stroke="black" d="M57.6538,-143.908C59.6758,-133.569 61.9808,-120.09 63,-108 64.3441,-92.0566 64.3441,-87.9434 63,-72 62.2834,-63.4991 60.9311,-54.3119 59.4884,-46.0122"/>
<polygon fill="black" stroke="black" points="62.9142,-45.2892 57.6538,-36.0925 56.0309,-46.5623 62.9142,-45.2892"/>
<g id="a_edge2&#45;headlabel"><a xlink:href="dir_000035_000001.xhtml" target="_top" xlink:title="157">
<text text-anchor="middle" x="66.3597" y="-45.8075" font-family="Helvetica,sans-Serif" font-size="10.00">157</text>
</a>
</g>
</g>
<!-- dir_b496024afd63bafbf4e8da80d7d3a81a&#45;&gt;dir_1fb090f0c6070330bfaccc4236d3ca0d -->
<g id="edge3" class="edge"><title>dir_b496024afd63bafbf4e8da80d7d3a81a&#45;&gt;dir_1fb090f0c6070330bfaccc4236d3ca0d</title>
<path fill="none" stroke="black" d="M33.6742,-71.6966C36.7149,-63.8132 40.3827,-54.3042 43.7607,-45.5464"/>
<polygon fill="black" stroke="black" points="47.0693,-46.6939 47.4026,-36.1043 40.5383,-44.1748 47.0693,-46.6939"/>
<g id="a_edge3&#45;headlabel"><a xlink:href="dir_000030_000001.xhtml" target="_top" xlink:title="2">
<text text-anchor="middle" x="48.4248" y="-48.5695" font-family="Helvetica,sans-Serif" font-size="10.00">2</text>
</a>
</g>
</g>
</g>
</svg>
