<?xml version="1.0" encoding="UTF-8" standalone="no"?>
<!DOCTYPE svg PUBLIC "-//W3C//DTD SVG 1.1//EN"
 "http://www.w3.org/Graphics/SVG/1.1/DTD/svg11.dtd">
<!-- Generated by graphviz version 2.38.0 (20140413.2041)
 -->
<!-- Title: Graphical Class Hierarchy Pages: 1 -->
<svg width="375pt" height="137pt"
 viewBox="0.00 0.00 375.00 137.00" xmlns="http://www.w3.org/2000/svg" xmlns:xlink="http://www.w3.org/1999/xlink">
<g id="graph0" class="graph" transform="scale(1 1) rotate(0) translate(4 133)">
<title>Graphical Class Hierarchy</title>
<polygon fill="white" stroke="none" points="-4,4 -4,-133 371,-133 371,4 -4,4"/>
<!-- Node1 -->
<g id="node1" class="node"><title>Node1</title>
<g id="a_node1"><a xlink:href="classarm__compute_1_1test_1_1datasets_1_1_batch_normalization_layer_dataset.xhtml" target="_top" xlink:title="BatchNormalizationLayerDataset">
<polygon fill="white" stroke="black" points="0,-55 0,-74 176,-74 176,-55 0,-55"/>
<text text-anchor="middle" x="88" y="-62" font-family="Helvetica,sans-Serif" font-size="10.00">BatchNormalizationLayerDataset</text>
</a>
</g>
</g>
<!-- Node2 -->
<g id="node2" class="node"><title>Node2</title>
<g id="a_node2"><a xlink:href="classarm__compute_1_1test_1_1datasets_1_1_goog_le_net_inception_v4_batch_normalization_layer_dataset.xhtml" target="_top" xlink:title="GoogLeNetInceptionV4Batch\lNormalizationLayerDataset">
<polygon fill="white" stroke="black" points="212,-98.5 212,-128.5 367,-128.5 367,-98.5 212,-98.5"/>
<text text-anchor="start" x="220" y="-116.5" font-family="Helvetica,sans-Serif" font-size="10.00">GoogLeNetInceptionV4Batch</text>
<text text-anchor="middle" x="289.5" y="-105.5" font-family="Helvetica,sans-Serif" font-size="10.00">NormalizationLayerDataset</text>
</a>
</g>
</g>
<!-- Node1&#45;&gt;Node2 -->
<g id="edge1" class="edge"><title>Node1&#45;&gt;Node2</title>
<path fill="none" stroke="midnightblue" d="M137.915,-76.5142C164.871,-83.135 198.587,-91.4161 227.278,-98.463"/>
<polygon fill="midnightblue" stroke="midnightblue" points="138.485,-73.0504 127.939,-74.064 136.816,-79.8483 138.485,-73.0504"/>
</g>
<!-- Node3 -->
<g id="node3" class="node"><title>Node3</title>
<g id="a_node3"><a xlink:href="classarm__compute_1_1test_1_1datasets_1_1_random_batch_normalization_layer_dataset.xhtml" target="_top" xlink:title="RandomBatchNormalization\lLayerDataset">
<polygon fill="white" stroke="black" points="214,-49.5 214,-79.5 365,-79.5 365,-49.5 214,-49.5"/>
<text text-anchor="start" x="222" y="-67.5" font-family="Helvetica,sans-Serif" font-size="10.00">RandomBatchNormalization</text>
<text text-anchor="middle" x="289.5" y="-56.5" font-family="Helvetica,sans-Serif" font-size="10.00">LayerDataset</text>
</a>
</g>
</g>
<!-- Node1&#45;&gt;Node3 -->
<g id="edge2" class="edge"><title>Node1&#45;&gt;Node3</title>
<path fill="none" stroke="midnightblue" d="M186.281,-64.5C195.584,-64.5 204.916,-64.5 213.952,-64.5"/>
<polygon fill="midnightblue" stroke="midnightblue" points="186.213,-61.0001 176.213,-64.5 186.213,-68.0001 186.213,-61.0001"/>
</g>
<!-- Node4 -->
<g id="node4" class="node"><title>Node4</title>
<g id="a_node4"><a xlink:href="classarm__compute_1_1test_1_1datasets_1_1_y_o_l_o_v2_batch_normalization_layer_dataset.xhtml" target="_top" xlink:title="YOLOV2BatchNormalization\lLayerDataset">
<polygon fill="white" stroke="black" points="215,-0.5 215,-30.5 364,-30.5 364,-0.5 215,-0.5"/>
<text text-anchor="start" x="223" y="-18.5" font-family="Helvetica,sans-Serif" font-size="10.00">YOLOV2BatchNormalization</text>
<text text-anchor="middle" x="289.5" y="-7.5" font-family="Helvetica,sans-Serif" font-size="10.00">LayerDataset</text>
</a>
</g>
</g>
<!-- Node1&#45;&gt;Node4 -->
<g id="edge3" class="edge"><title>Node1&#45;&gt;Node4</title>
<path fill="none" stroke="midnightblue" d="M137.915,-52.4858C164.871,-45.865 198.587,-37.5839 227.278,-30.537"/>
<polygon fill="midnightblue" stroke="midnightblue" points="136.816,-49.1517 127.939,-54.936 138.485,-55.9496 136.816,-49.1517"/>
</g>
</g>
</svg>
