<?xml version="1.0" encoding="UTF-8" standalone="no"?>
<!DOCTYPE svg PUBLIC "-//W3C//DTD SVG 1.1//EN"
 "http://www.w3.org/Graphics/SVG/1.1/DTD/svg11.dtd">
<!-- Generated by graphviz version 2.38.0 (20140413.2041)
 -->
<!-- Title: src/core/utils/quantization Pages: 1 -->
<svg width="116pt" height="151pt"
 viewBox="0.00 0.00 116.00 151.00" xmlns="http://www.w3.org/2000/svg" xmlns:xlink="http://www.w3.org/1999/xlink">
<g id="graph0" class="graph" transform="scale(1 1) rotate(0) translate(4 147)">
<title>src/core/utils/quantization</title>
<polygon fill="white" stroke="none" points="-4,4 -4,-147 112,-147 112,4 -4,4"/>
<g id="clust1" class="cluster"><title>clusterdir_a8053b3d69cfefb2b2e6ec7bf9dd5c1a</title>
<g id="a_clust1"><a xlink:href="dir_a8053b3d69cfefb2b2e6ec7bf9dd5c1a.xhtml" target="_top" xlink:title="utils">
<polygon fill="#ddddee" stroke="black" points="8,-64 8,-135 100,-135 100,-64 8,-64"/>
<text text-anchor="middle" x="54" y="-123" font-family="Helvetica,sans-Serif" font-size="10.00">utils</text>
</a>
</g>
</g>
<!-- dir_dfd177d17fe198b2123c626051c4d924 -->
<g id="node1" class="node"><title>dir_dfd177d17fe198b2123c626051c4d924</title>
<g id="a_node1"><a xlink:href="dir_dfd177d17fe198b2123c626051c4d924.xhtml" target="_top" xlink:title="quantization">
<polygon fill="#eeeeff" stroke="black" points="92,-108 16,-108 16,-72 92,-72 92,-108"/>
<text text-anchor="middle" x="54" y="-87.5" font-family="Helvetica,sans-Serif" font-size="10.00">quantization</text>
</a>
</g>
</g>
<!-- dir_214608ef36d61442cb2b0c1c4e9a7def -->
<g id="node2" class="node"><title>dir_214608ef36d61442cb2b0c1c4e9a7def</title>
<g id="a_node2"><a xlink:href="dir_214608ef36d61442cb2b0c1c4e9a7def.xhtml" target="_top" xlink:title="arm_compute">
<polygon fill="white" stroke="red" points="96,-36 12,-36 12,-0 96,-0 96,-36"/>
<text text-anchor="middle" x="54" y="-15.5" font-family="Helvetica,sans-Serif" font-size="10.00">arm_compute</text>
</a>
</g>
</g>
<!-- dir_dfd177d17fe198b2123c626051c4d924&#45;&gt;dir_214608ef36d61442cb2b0c1c4e9a7def -->
<g id="edge1" class="edge"><title>dir_dfd177d17fe198b2123c626051c4d924&#45;&gt;dir_214608ef36d61442cb2b0c1c4e9a7def</title>
<path fill="none" stroke="black" d="M54,-71.6966C54,-63.9827 54,-54.7125 54,-46.1124"/>
<polygon fill="black" stroke="black" points="57.5001,-46.1043 54,-36.1043 50.5001,-46.1044 57.5001,-46.1043"/>
<g id="a_edge1&#45;headlabel"><a xlink:href="dir_000125_000000.xhtml" target="_top" xlink:title="1">
<text text-anchor="middle" x="60.3393" y="-47.199" font-family="Helvetica,sans-Serif" font-size="10.00">1</text>
</a>
</g>
</g>
</g>
</svg>
