<?xml version="1.0" encoding="UTF-8" standalone="no"?>
<!DOCTYPE svg PUBLIC "-//W3C//DTD SVG 1.1//EN"
 "http://www.w3.org/Graphics/SVG/1.1/DTD/svg11.dtd">
<!-- Generated by graphviz version 2.38.0 (20140413.2041)
 -->
<!-- Title: tests/validation/CPP Pages: 1 -->
<svg width="196pt" height="295pt"
 viewBox="0.00 0.00 196.11 295.00" xmlns="http://www.w3.org/2000/svg" xmlns:xlink="http://www.w3.org/1999/xlink">
<g id="graph0" class="graph" transform="scale(1 1) rotate(0) translate(4 291)">
<title>tests/validation/CPP</title>
<polygon fill="white" stroke="none" points="-4,4 -4,-291 192.112,-291 192.112,4 -4,4"/>
<g id="clust1" class="cluster"><title>clusterdir_e7c7b16542faa38cb4655ff1750d3604</title>
<g id="a_clust1"><a xlink:href="dir_e7c7b16542faa38cb4655ff1750d3604.xhtml" target="_top" xlink:title="validation">
<polygon fill="#ddddee" stroke="black" points="82,-208 82,-279 152,-279 152,-208 82,-208"/>
<text text-anchor="middle" x="117" y="-267" font-family="Helvetica,sans-Serif" font-size="10.00">validation</text>
</a>
</g>
</g>
<!-- dir_420d2db1b9c99f59825a3985434c3703 -->
<g id="node1" class="node"><title>dir_420d2db1b9c99f59825a3985434c3703</title>
<g id="a_node1"><a xlink:href="dir_420d2db1b9c99f59825a3985434c3703.xhtml" target="_top" xlink:title="CPP">
<polygon fill="#eeeeff" stroke="black" points="144,-252 90,-252 90,-216 144,-216 144,-252"/>
<text text-anchor="middle" x="117" y="-231.5" font-family="Helvetica,sans-Serif" font-size="10.00">CPP</text>
</a>
</g>
</g>
<!-- dir_46fdb196cebdbffe77dac340cde62f29 -->
<g id="node2" class="node"><title>dir_46fdb196cebdbffe77dac340cde62f29</title>
<g id="a_node2"><a xlink:href="dir_46fdb196cebdbffe77dac340cde62f29.xhtml" target="_top" xlink:title="reference">
<polygon fill="none" stroke="black" points="62,-180 3.55271e-15,-180 3.55271e-15,-144 62,-144 62,-180"/>
<text text-anchor="middle" x="31" y="-159.5" font-family="Helvetica,sans-Serif" font-size="10.00">reference</text>
</a>
</g>
</g>
<!-- dir_420d2db1b9c99f59825a3985434c3703&#45;&gt;dir_46fdb196cebdbffe77dac340cde62f29 -->
<g id="edge5" class="edge"><title>dir_420d2db1b9c99f59825a3985434c3703&#45;&gt;dir_46fdb196cebdbffe77dac340cde62f29</title>
<path fill="none" stroke="black" d="M95.7416,-215.697C84.9106,-206.881 71.5822,-196.032 59.8398,-186.474"/>
<polygon fill="black" stroke="black" points="61.979,-183.703 52.0139,-180.104 57.5601,-189.132 61.979,-183.703"/>
<g id="a_edge5&#45;headlabel"><a xlink:href="dir_000157_000033.xhtml" target="_top" xlink:title="2">
<text text-anchor="middle" x="66.5592" y="-181.27" font-family="Helvetica,sans-Serif" font-size="10.00">2</text>
</a>
</g>
</g>
<!-- dir_445738e6fed662d0b65e690e3f1e1de0 -->
<g id="node3" class="node"><title>dir_445738e6fed662d0b65e690e3f1e1de0</title>
<g id="a_node3"><a xlink:href="dir_445738e6fed662d0b65e690e3f1e1de0.xhtml" target="_top" xlink:title="NEON">
<polygon fill="none" stroke="black" points="172,-180 118,-180 118,-144 172,-144 172,-180"/>
<text text-anchor="middle" x="145" y="-159.5" font-family="Helvetica,sans-Serif" font-size="10.00">NEON</text>
</a>
</g>
</g>
<!-- dir_420d2db1b9c99f59825a3985434c3703&#45;&gt;dir_445738e6fed662d0b65e690e3f1e1de0 -->
<g id="edge6" class="edge"><title>dir_420d2db1b9c99f59825a3985434c3703&#45;&gt;dir_445738e6fed662d0b65e690e3f1e1de0</title>
<path fill="none" stroke="black" d="M123.921,-215.697C127.075,-207.813 130.878,-198.304 134.381,-189.546"/>
<polygon fill="black" stroke="black" points="137.694,-190.689 138.158,-180.104 131.195,-188.089 137.694,-190.689"/>
<g id="a_edge6&#45;headlabel"><a xlink:href="dir_000157_000153.xhtml" target="_top" xlink:title="4">
<text text-anchor="middle" x="138.995" y="-192.581" font-family="Helvetica,sans-Serif" font-size="10.00">4</text>
</a>
</g>
</g>
<!-- dir_9e71e2da941d3cafc4d98a9f6ae3de4f -->
<g id="node4" class="node"><title>dir_9e71e2da941d3cafc4d98a9f6ae3de4f</title>
<g id="a_node4"><a xlink:href="dir_9e71e2da941d3cafc4d98a9f6ae3de4f.xhtml" target="_top" xlink:title="framework">
<polygon fill="white" stroke="red" points="123.5,-108 56.5,-108 56.5,-72 123.5,-72 123.5,-108"/>
<text text-anchor="middle" x="90" y="-87.5" font-family="Helvetica,sans-Serif" font-size="10.00">framework</text>
</a>
</g>
</g>
<!-- dir_420d2db1b9c99f59825a3985434c3703&#45;&gt;dir_9e71e2da941d3cafc4d98a9f6ae3de4f -->
<g id="edge7" class="edge"><title>dir_420d2db1b9c99f59825a3985434c3703&#45;&gt;dir_9e71e2da941d3cafc4d98a9f6ae3de4f</title>
<path fill="none" stroke="black" d="M113.743,-215.871C109.142,-191.67 100.688,-147.211 95.2086,-118.393"/>
<polygon fill="black" stroke="black" points="98.5748,-117.359 93.2684,-108.189 91.698,-118.667 98.5748,-117.359"/>
<g id="a_edge7&#45;headlabel"><a xlink:href="dir_000157_000032.xhtml" target="_top" xlink:title="15">
<text text-anchor="middle" x="102.035" y="-117.86" font-family="Helvetica,sans-Serif" font-size="10.00">15</text>
</a>
</g>
</g>
<!-- dir_214608ef36d61442cb2b0c1c4e9a7def -->
<g id="node5" class="node"><title>dir_214608ef36d61442cb2b0c1c4e9a7def</title>
<g id="a_node5"><a xlink:href="dir_214608ef36d61442cb2b0c1c4e9a7def.xhtml" target="_top" xlink:title="arm_compute">
<polygon fill="white" stroke="red" points="163,-36 79,-36 79,-0 163,-0 163,-36"/>
<text text-anchor="middle" x="121" y="-15.5" font-family="Helvetica,sans-Serif" font-size="10.00">arm_compute</text>
</a>
</g>
</g>
<!-- dir_420d2db1b9c99f59825a3985434c3703&#45;&gt;dir_214608ef36d61442cb2b0c1c4e9a7def -->
<g id="edge8" class="edge"><title>dir_420d2db1b9c99f59825a3985434c3703&#45;&gt;dir_214608ef36d61442cb2b0c1c4e9a7def</title>
<path fill="none" stroke="black" d="M144.096,-218.388C157.887,-209.337 173.326,-196.319 181,-180 202.907,-133.415 168.01,-76.4716 142.94,-44.3066"/>
<polygon fill="black" stroke="black" points="145.497,-41.901 136.503,-36.3023 140.043,-46.2882 145.497,-41.901"/>
<g id="a_edge8&#45;headlabel"><a xlink:href="dir_000157_000000.xhtml" target="_top" xlink:title="18">
<text text-anchor="middle" x="149.963" y="-40.4226" font-family="Helvetica,sans-Serif" font-size="10.00">18</text>
</a>
</g>
</g>
<!-- dir_46fdb196cebdbffe77dac340cde62f29&#45;&gt;dir_9e71e2da941d3cafc4d98a9f6ae3de4f -->
<g id="edge1" class="edge"><title>dir_46fdb196cebdbffe77dac340cde62f29&#45;&gt;dir_9e71e2da941d3cafc4d98a9f6ae3de4f</title>
<path fill="none" stroke="black" d="M45.5843,-143.697C52.6576,-135.305 61.2834,-125.07 69.0454,-115.861"/>
<polygon fill="black" stroke="black" points="71.8149,-118.006 75.5835,-108.104 66.4625,-113.495 71.8149,-118.006"/>
<g id="a_edge1&#45;headlabel"><a xlink:href="dir_000033_000032.xhtml" target="_top" xlink:title="3">
<text text-anchor="middle" x="71.6693" y="-120.085" font-family="Helvetica,sans-Serif" font-size="10.00">3</text>
</a>
</g>
</g>
<!-- dir_46fdb196cebdbffe77dac340cde62f29&#45;&gt;dir_214608ef36d61442cb2b0c1c4e9a7def -->
<g id="edge2" class="edge"><title>dir_46fdb196cebdbffe77dac340cde62f29&#45;&gt;dir_214608ef36d61442cb2b0c1c4e9a7def</title>
<path fill="none" stroke="black" d="M30.3801,-143.903C30.4837,-124.912 33.0782,-94.0303 47,-72 54.6761,-59.8531 66.2353,-49.6485 77.9505,-41.539"/>
<polygon fill="black" stroke="black" points="79.9814,-44.3933 86.4554,-36.0065 76.1644,-38.5256 79.9814,-44.3933"/>
<g id="a_edge2&#45;headlabel"><a xlink:href="dir_000033_000000.xhtml" target="_top" xlink:title="86">
<text text-anchor="middle" x="78.5165" y="-46.2334" font-family="Helvetica,sans-Serif" font-size="10.00">86</text>
</a>
</g>
</g>
<!-- dir_445738e6fed662d0b65e690e3f1e1de0&#45;&gt;dir_214608ef36d61442cb2b0c1c4e9a7def -->
<g id="edge3" class="edge"><title>dir_445738e6fed662d0b65e690e3f1e1de0&#45;&gt;dir_214608ef36d61442cb2b0c1c4e9a7def</title>
<path fill="none" stroke="black" d="M142.809,-143.89C140.437,-125.934 136.4,-96.9112 132,-72 130.506,-63.5411 128.676,-54.3659 126.941,-46.0643"/>
<polygon fill="black" stroke="black" points="130.333,-45.1874 124.827,-36.1359 123.487,-46.6456 130.333,-45.1874"/>
<g id="a_edge3&#45;headlabel"><a xlink:href="dir_000153_000000.xhtml" target="_top" xlink:title="6">
<text text-anchor="middle" x="133.859" y="-45.6117" font-family="Helvetica,sans-Serif" font-size="10.00">6</text>
</a>
</g>
</g>
<!-- dir_9e71e2da941d3cafc4d98a9f6ae3de4f&#45;&gt;dir_214608ef36d61442cb2b0c1c4e9a7def -->
<g id="edge4" class="edge"><title>dir_9e71e2da941d3cafc4d98a9f6ae3de4f&#45;&gt;dir_214608ef36d61442cb2b0c1c4e9a7def</title>
<path fill="none" stroke="black" d="M97.6629,-71.6966C101.192,-63.7284 105.456,-54.0995 109.369,-45.2641"/>
<polygon fill="black" stroke="black" points="112.576,-46.6651 113.425,-36.1043 106.176,-43.8306 112.576,-46.6651"/>
<g id="a_edge4&#45;headlabel"><a xlink:href="dir_000032_000000.xhtml" target="_top" xlink:title="14">
<text text-anchor="middle" x="113.717" y="-48.6015" font-family="Helvetica,sans-Serif" font-size="10.00">14</text>
</a>
</g>
</g>
</g>
</svg>
