<?xml version="1.0" encoding="UTF-8" standalone="no"?>
<!DOCTYPE svg PUBLIC "-//W3C//DTD SVG 1.1//EN"
 "http://www.w3.org/Graphics/SVG/1.1/DTD/svg11.dtd">
<!-- Generated by graphviz version 2.38.0 (20140413.2041)
 -->
<!-- Title: tests/validation/UNIT Pages: 1 -->
<svg width="207pt" height="367pt"
 viewBox="0.00 0.00 207.45 367.00" xmlns="http://www.w3.org/2000/svg" xmlns:xlink="http://www.w3.org/1999/xlink">
<g id="graph0" class="graph" transform="scale(1 1) rotate(0) translate(4 363)">
<title>tests/validation/UNIT</title>
<polygon fill="white" stroke="none" points="-4,4 -4,-363 203.447,-363 203.447,4 -4,4"/>
<g id="clust1" class="cluster"><title>clusterdir_e7c7b16542faa38cb4655ff1750d3604</title>
<g id="a_clust1"><a xlink:href="dir_e7c7b16542faa38cb4655ff1750d3604.xhtml" target="_top" xlink:title="validation">
<polygon fill="#ddddee" stroke="black" points="51.4473,-280 51.4473,-351 121.447,-351 121.447,-280 51.4473,-280"/>
<text text-anchor="middle" x="86.4473" y="-339" font-family="Helvetica,sans-Serif" font-size="10.00">validation</text>
</a>
</g>
</g>
<!-- dir_0c108762cda89b68d4571cbbabdf46df -->
<g id="node1" class="node"><title>dir_0c108762cda89b68d4571cbbabdf46df</title>
<g id="a_node1"><a xlink:href="dir_0c108762cda89b68d4571cbbabdf46df.xhtml" target="_top" xlink:title="UNIT">
<polygon fill="#eeeeff" stroke="black" points="113.447,-324 59.4473,-324 59.4473,-288 113.447,-288 113.447,-324"/>
<text text-anchor="middle" x="86.4473" y="-303.5" font-family="Helvetica,sans-Serif" font-size="10.00">UNIT</text>
</a>
</g>
</g>
<!-- dir_cbdb8362360e11eafe2fa3bc74cf0ffd -->
<g id="node2" class="node"><title>dir_cbdb8362360e11eafe2fa3bc74cf0ffd</title>
<g id="a_node2"><a xlink:href="dir_cbdb8362360e11eafe2fa3bc74cf0ffd.xhtml" target="_top" xlink:title="utils">
<polygon fill="white" stroke="red" points="199.447,-180 145.447,-180 145.447,-144 199.447,-144 199.447,-180"/>
<text text-anchor="middle" x="172.447" y="-159.5" font-family="Helvetica,sans-Serif" font-size="10.00">utils</text>
</a>
</g>
</g>
<!-- dir_0c108762cda89b68d4571cbbabdf46df&#45;&gt;dir_cbdb8362360e11eafe2fa3bc74cf0ffd -->
<g id="edge6" class="edge"><title>dir_0c108762cda89b68d4571cbbabdf46df&#45;&gt;dir_cbdb8362360e11eafe2fa3bc74cf0ffd</title>
<path fill="none" stroke="black" d="M103.147,-287.799C112.239,-277.862 123.268,-264.822 131.447,-252 144.107,-232.154 155.06,-207.759 162.452,-189.532"/>
<polygon fill="black" stroke="black" points="165.756,-190.694 166.181,-180.108 159.247,-188.119 165.756,-190.694"/>
<g id="a_edge6&#45;headlabel"><a xlink:href="dir_000071_000034.xhtml" target="_top" xlink:title="3">
<text text-anchor="middle" x="167.074" y="-192.581" font-family="Helvetica,sans-Serif" font-size="10.00">3</text>
</a>
</g>
</g>
<!-- dir_9e71e2da941d3cafc4d98a9f6ae3de4f -->
<g id="node3" class="node"><title>dir_9e71e2da941d3cafc4d98a9f6ae3de4f</title>
<g id="a_node3"><a xlink:href="dir_9e71e2da941d3cafc4d98a9f6ae3de4f.xhtml" target="_top" xlink:title="framework">
<polygon fill="white" stroke="red" points="88.9473,-252 21.9473,-252 21.9473,-216 88.9473,-216 88.9473,-252"/>
<text text-anchor="middle" x="55.4473" y="-231.5" font-family="Helvetica,sans-Serif" font-size="10.00">framework</text>
</a>
</g>
</g>
<!-- dir_0c108762cda89b68d4571cbbabdf46df&#45;&gt;dir_9e71e2da941d3cafc4d98a9f6ae3de4f -->
<g id="edge7" class="edge"><title>dir_0c108762cda89b68d4571cbbabdf46df&#45;&gt;dir_9e71e2da941d3cafc4d98a9f6ae3de4f</title>
<path fill="none" stroke="black" d="M78.7844,-287.697C75.2556,-279.728 70.9914,-270.1 67.0786,-261.264"/>
<polygon fill="black" stroke="black" points="70.2717,-259.831 63.0221,-252.104 63.8712,-262.665 70.2717,-259.831"/>
<g id="a_edge7&#45;headlabel"><a xlink:href="dir_000071_000032.xhtml" target="_top" xlink:title="13">
<text text-anchor="middle" x="74.3232" y="-259.468" font-family="Helvetica,sans-Serif" font-size="10.00">13</text>
</a>
</g>
</g>
<!-- dir_214608ef36d61442cb2b0c1c4e9a7def -->
<g id="node4" class="node"><title>dir_214608ef36d61442cb2b0c1c4e9a7def</title>
<g id="a_node4"><a xlink:href="dir_214608ef36d61442cb2b0c1c4e9a7def.xhtml" target="_top" xlink:title="arm_compute">
<polygon fill="white" stroke="red" points="153.447,-108 69.4473,-108 69.4473,-72 153.447,-72 153.447,-108"/>
<text text-anchor="middle" x="111.447" y="-87.5" font-family="Helvetica,sans-Serif" font-size="10.00">arm_compute</text>
</a>
</g>
</g>
<!-- dir_0c108762cda89b68d4571cbbabdf46df&#45;&gt;dir_214608ef36d61442cb2b0c1c4e9a7def -->
<g id="edge8" class="edge"><title>dir_0c108762cda89b68d4571cbbabdf46df&#45;&gt;dir_214608ef36d61442cb2b0c1c4e9a7def</title>
<path fill="none" stroke="black" d="M90.5295,-287.905C92.8649,-277.566 95.6738,-264.087 97.4473,-252 104.291,-205.362 108.182,-150.596 110.048,-118.457"/>
<polygon fill="black" stroke="black" points="113.542,-118.649 110.604,-108.47 106.553,-118.26 113.542,-118.649"/>
<g id="a_edge8&#45;headlabel"><a xlink:href="dir_000071_000000.xhtml" target="_top" xlink:title="4">
<text text-anchor="middle" x="116.177" y="-119.896" font-family="Helvetica,sans-Serif" font-size="10.00">4</text>
</a>
</g>
</g>
<!-- dir_5815af820a9cc9481f1d0990a0d60286 -->
<g id="node5" class="node"><title>dir_5815af820a9cc9481f1d0990a0d60286</title>
<g id="a_node5"><a xlink:href="dir_5815af820a9cc9481f1d0990a0d60286.xhtml" target="_top" xlink:title="support">
<polygon fill="none" stroke="black" points="103.447,-36 49.4473,-36 49.4473,-0 103.447,-0 103.447,-36"/>
<text text-anchor="middle" x="76.4473" y="-15.5" font-family="Helvetica,sans-Serif" font-size="10.00">support</text>
</a>
</g>
</g>
<!-- dir_0c108762cda89b68d4571cbbabdf46df&#45;&gt;dir_5815af820a9cc9481f1d0990a0d60286 -->
<g id="edge9" class="edge"><title>dir_0c108762cda89b68d4571cbbabdf46df&#45;&gt;dir_5815af820a9cc9481f1d0990a0d60286</title>
<path fill="none" stroke="black" d="M59.3859,-293.582C42.5401,-284.879 22.2692,-271.116 12.4473,-252 -23.6038,-181.836 27.8399,-89.0313 57.6917,-44.7056"/>
<polygon fill="black" stroke="black" points="60.7217,-46.477 63.5183,-36.2579 54.9594,-42.5025 60.7217,-46.477"/>
<g id="a_edge9&#45;headlabel"><a xlink:href="dir_000071_000150.xhtml" target="_top" xlink:title="1">
<text text-anchor="middle" x="61.018" y="-48.548" font-family="Helvetica,sans-Serif" font-size="10.00">1</text>
</a>
</g>
</g>
<!-- dir_cbdb8362360e11eafe2fa3bc74cf0ffd&#45;&gt;dir_214608ef36d61442cb2b0c1c4e9a7def -->
<g id="edge1" class="edge"><title>dir_cbdb8362360e11eafe2fa3bc74cf0ffd&#45;&gt;dir_214608ef36d61442cb2b0c1c4e9a7def</title>
<path fill="none" stroke="black" d="M151.453,-143.697C143.357,-135.389 134.348,-125.277 126.85,-116.141"/>
<polygon fill="black" stroke="black" points="129.422,-113.752 120.458,-108.104 123.943,-118.109 129.422,-113.752"/>
<g id="a_edge1&#45;headlabel"><a xlink:href="dir_000034_000000.xhtml" target="_top" xlink:title="37">
<text text-anchor="middle" x="133.881" y="-112.298" font-family="Helvetica,sans-Serif" font-size="10.00">37</text>
</a>
</g>
</g>
<!-- dir_cbdb8362360e11eafe2fa3bc74cf0ffd&#45;&gt;dir_5815af820a9cc9481f1d0990a0d60286 -->
<g id="edge2" class="edge"><title>dir_cbdb8362360e11eafe2fa3bc74cf0ffd&#45;&gt;dir_5815af820a9cc9481f1d0990a0d60286</title>
<path fill="none" stroke="black" d="M174.734,-143.816C176.372,-124.748 176.271,-93.7968 162.447,-72 151.035,-54.005 131.083,-41.1527 113.269,-32.615"/>
<polygon fill="black" stroke="black" points="114.217,-29.2046 103.66,-28.3105 111.355,-35.5929 114.217,-29.2046"/>
<g id="a_edge2&#45;headlabel"><a xlink:href="dir_000034_000150.xhtml" target="_top" xlink:title="3">
<text text-anchor="middle" x="118.658" y="-25.5829" font-family="Helvetica,sans-Serif" font-size="10.00">3</text>
</a>
</g>
</g>
<!-- dir_9e71e2da941d3cafc4d98a9f6ae3de4f&#45;&gt;dir_cbdb8362360e11eafe2fa3bc74cf0ffd -->
<g id="edge3" class="edge"><title>dir_9e71e2da941d3cafc4d98a9f6ae3de4f&#45;&gt;dir_cbdb8362360e11eafe2fa3bc74cf0ffd</title>
<path fill="none" stroke="black" d="M84.0688,-215.876C99.8232,-206.45 119.53,-194.66 136.334,-184.606"/>
<polygon fill="black" stroke="black" points="138.543,-187.363 145.327,-179.226 134.949,-181.356 138.543,-187.363"/>
<g id="a_edge3&#45;headlabel"><a xlink:href="dir_000032_000034.xhtml" target="_top" xlink:title="3">
<text text-anchor="middle" x="136.916" y="-189.145" font-family="Helvetica,sans-Serif" font-size="10.00">3</text>
</a>
</g>
</g>
<!-- dir_9e71e2da941d3cafc4d98a9f6ae3de4f&#45;&gt;dir_214608ef36d61442cb2b0c1c4e9a7def -->
<g id="edge4" class="edge"><title>dir_9e71e2da941d3cafc4d98a9f6ae3de4f&#45;&gt;dir_214608ef36d61442cb2b0c1c4e9a7def</title>
<path fill="none" stroke="black" d="M62.2023,-215.871C71.8305,-191.457 89.5893,-146.426 100.943,-117.635"/>
<polygon fill="black" stroke="black" points="104.256,-118.776 104.668,-108.189 97.7438,-116.208 104.256,-118.776"/>
<g id="a_edge4&#45;headlabel"><a xlink:href="dir_000032_000000.xhtml" target="_top" xlink:title="14">
<text text-anchor="middle" x="105.578" y="-120.662" font-family="Helvetica,sans-Serif" font-size="10.00">14</text>
</a>
</g>
</g>
<!-- dir_9e71e2da941d3cafc4d98a9f6ae3de4f&#45;&gt;dir_5815af820a9cc9481f1d0990a0d60286 -->
<g id="edge5" class="edge"><title>dir_9e71e2da941d3cafc4d98a9f6ae3de4f&#45;&gt;dir_5815af820a9cc9481f1d0990a0d60286</title>
<path fill="none" stroke="black" d="M54.5221,-215.938C53.2427,-186.392 51.9615,-123.885 60.4473,-72 61.8591,-63.3682 64.2889,-54.1761 66.8346,-45.9127"/>
<polygon fill="black" stroke="black" points="70.1659,-46.9863 69.9367,-36.3939 63.5104,-44.8173 70.1659,-46.9863"/>
<g id="a_edge5&#45;headlabel"><a xlink:href="dir_000032_000150.xhtml" target="_top" xlink:title="7">
<text text-anchor="middle" x="71.7517" y="-48.7837" font-family="Helvetica,sans-Serif" font-size="10.00">7</text>
</a>
</g>
</g>
<!-- dir_214608ef36d61442cb2b0c1c4e9a7def&#45;&gt;dir_cbdb8362360e11eafe2fa3bc74cf0ffd -->
<g id="edge10" class="edge"><title>dir_214608ef36d61442cb2b0c1c4e9a7def&#45;&gt;dir_cbdb8362360e11eafe2fa3bc74cf0ffd</title>
<path fill="none" stroke="black" d="M132.248,-108.104C140.329,-116.383 149.342,-126.488 156.865,-135.64"/>
<polygon fill="black" stroke="black" points="154.315,-138.057 163.284,-143.697 159.79,-133.695 154.315,-138.057"/>
<g id="a_edge10&#45;headlabel"><a xlink:href="dir_000000_000034.xhtml" target="_top" xlink:title="1">
<text text-anchor="middle" x="149.855" y="-134.515" font-family="Helvetica,sans-Serif" font-size="10.00">1</text>
</a>
</g>
</g>
<!-- dir_214608ef36d61442cb2b0c1c4e9a7def&#45;&gt;dir_5815af820a9cc9481f1d0990a0d60286 -->
<g id="edge11" class="edge"><title>dir_214608ef36d61442cb2b0c1c4e9a7def&#45;&gt;dir_5815af820a9cc9481f1d0990a0d60286</title>
<path fill="none" stroke="black" d="M102.796,-71.6966C98.8115,-63.7284 93.9971,-54.0995 89.5794,-45.2641"/>
<polygon fill="black" stroke="black" points="92.6022,-43.4833 84.9995,-36.1043 86.3412,-46.6139 92.6022,-43.4833"/>
<g id="a_edge11&#45;headlabel"><a xlink:href="dir_000000_000150.xhtml" target="_top" xlink:title="22">
<text text-anchor="middle" x="96.7492" y="-42.9287" font-family="Helvetica,sans-Serif" font-size="10.00">22</text>
</a>
</g>
</g>
</g>
</svg>
