<?xml version="1.0" encoding="UTF-8" standalone="no"?>
<!DOCTYPE svg PUBLIC "-//W3C//DTD SVG 1.1//EN"
 "http://www.w3.org/Graphics/SVG/1.1/DTD/svg11.dtd">
<!-- Generated by graphviz version 2.38.0 (20140413.2041)
 -->
<!-- Title: src/core/CL Pages: 1 -->
<svg width="336pt" height="231pt"
 viewBox="0.00 0.00 336.00 231.00" xmlns="http://www.w3.org/2000/svg" xmlns:xlink="http://www.w3.org/1999/xlink">
<g id="graph0" class="graph" transform="scale(1 1) rotate(0) translate(4 227)">
<title>src/core/CL</title>
<polygon fill="white" stroke="none" points="-4,4 -4,-227 332,-227 332,4 -4,4"/>
<g id="clust1" class="cluster"><title>clusterdir_aebb8dcc11953d78e620bbef0b9e2183</title>
<g id="a_clust1"><a xlink:href="dir_aebb8dcc11953d78e620bbef0b9e2183.xhtml" target="_top" xlink:title="core">
<polygon fill="#ddddee" stroke="black" points="8,-128 8,-215 320,-215 320,-128 8,-128"/>
<text text-anchor="middle" x="164" y="-203" font-family="Helvetica,sans-Serif" font-size="10.00">core</text>
</a>
</g>
</g>
<g id="clust2" class="cluster"><title>clusterdir_8c278f79c760e5c5fbd911f9870614c1</title>
<g id="a_clust2"><a xlink:href="dir_8c278f79c760e5c5fbd911f9870614c1.xhtml" target="_top">
<polygon fill="#eeeeff" stroke="black" points="16,-136 16,-188 312,-188 312,-136 16,-136"/>
</a>
</g>
</g>
<!-- dir_8c278f79c760e5c5fbd911f9870614c1 -->
<g id="node1" class="node"><title>dir_8c278f79c760e5c5fbd911f9870614c1</title>
<text text-anchor="middle" x="51" y="-159.5" font-family="Helvetica,sans-Serif" font-size="10.00">CL</text>
</g>
<!-- dir_214608ef36d61442cb2b0c1c4e9a7def -->
<g id="node5" class="node"><title>dir_214608ef36d61442cb2b0c1c4e9a7def</title>
<g id="a_node5"><a xlink:href="dir_214608ef36d61442cb2b0c1c4e9a7def.xhtml" target="_top" xlink:title="arm_compute">
<polygon fill="white" stroke="red" points="186,-108 102,-108 102,-72 186,-72 186,-108"/>
<text text-anchor="middle" x="144" y="-87.5" font-family="Helvetica,sans-Serif" font-size="10.00">arm_compute</text>
</a>
</g>
</g>
<!-- dir_8c278f79c760e5c5fbd911f9870614c1&#45;&gt;dir_214608ef36d61442cb2b0c1c4e9a7def -->
<g id="edge1" class="edge"><title>dir_8c278f79c760e5c5fbd911f9870614c1&#45;&gt;dir_214608ef36d61442cb2b0c1c4e9a7def</title>
<path fill="none" stroke="black" d="M68.4326,-143.942C74.1706,-138.625 80.6983,-132.879 87,-128 93.2968,-123.125 100.236,-118.248 107.041,-113.709"/>
<polygon fill="black" stroke="black" points="109.07,-116.565 115.53,-108.167 105.243,-110.703 109.07,-116.565"/>
<g id="a_edge1&#45;headlabel"><a xlink:href="dir_000018_000000.xhtml" target="_top" xlink:title="1440">
<text text-anchor="middle" x="107.612" y="-118.407" font-family="Helvetica,sans-Serif" font-size="10.00">1440</text>
</a>
</g>
</g>
<!-- dir_25885286e9dad4fa105b7b25a8031bbf -->
<g id="node2" class="node"><title>dir_25885286e9dad4fa105b7b25a8031bbf</title>
<g id="a_node2"><a xlink:href="dir_25885286e9dad4fa105b7b25a8031bbf.xhtml" target="_top" xlink:title="cl_kernels">
<polygon fill="white" stroke="black" points="232,-180 168,-180 168,-144 232,-144 232,-180"/>
<text text-anchor="middle" x="200" y="-159.5" font-family="Helvetica,sans-Serif" font-size="10.00">cl_kernels</text>
</a>
</g>
</g>
<!-- dir_acedbc3c1c025eedca19641ef7b62820 -->
<g id="node3" class="node"><title>dir_acedbc3c1c025eedca19641ef7b62820</title>
<g id="a_node3"><a xlink:href="dir_acedbc3c1c025eedca19641ef7b62820.xhtml" target="_top" xlink:title="gemm">
<polygon fill="white" stroke="red" points="150,-180 96,-180 96,-144 150,-144 150,-180"/>
<text text-anchor="middle" x="123" y="-159.5" font-family="Helvetica,sans-Serif" font-size="10.00">gemm</text>
</a>
</g>
</g>
<!-- dir_acedbc3c1c025eedca19641ef7b62820&#45;&gt;dir_214608ef36d61442cb2b0c1c4e9a7def -->
<g id="edge4" class="edge"><title>dir_acedbc3c1c025eedca19641ef7b62820&#45;&gt;dir_214608ef36d61442cb2b0c1c4e9a7def</title>
<path fill="none" stroke="black" d="M128.191,-143.697C130.531,-135.898 133.347,-126.509 135.951,-117.829"/>
<polygon fill="black" stroke="black" points="139.348,-118.688 138.869,-108.104 132.643,-116.677 139.348,-118.688"/>
<g id="a_edge4&#45;headlabel"><a xlink:href="dir_000062_000000.xhtml" target="_top" xlink:title="16">
<text text-anchor="middle" x="141.034" y="-120.447" font-family="Helvetica,sans-Serif" font-size="10.00">16</text>
</a>
</g>
</g>
<!-- dir_8a6a287e420ec4de95804825506d2fde -->
<g id="node4" class="node"><title>dir_8a6a287e420ec4de95804825506d2fde</title>
<g id="a_node4"><a xlink:href="dir_8a6a287e420ec4de95804825506d2fde.xhtml" target="_top" xlink:title="kernels">
<polygon fill="white" stroke="black" points="304,-180 250,-180 250,-144 304,-144 304,-180"/>
<text text-anchor="middle" x="277" y="-159.5" font-family="Helvetica,sans-Serif" font-size="10.00">kernels</text>
</a>
</g>
</g>
<!-- dir_8a6a287e420ec4de95804825506d2fde&#45;&gt;dir_214608ef36d61442cb2b0c1c4e9a7def -->
<g id="edge2" class="edge"><title>dir_8a6a287e420ec4de95804825506d2fde&#45;&gt;dir_214608ef36d61442cb2b0c1c4e9a7def</title>
<path fill="none" stroke="black" d="M260.867,-143.794C255.002,-138.225 248.07,-132.365 241,-128 227.162,-119.455 211.028,-112.337 195.935,-106.702"/>
<polygon fill="black" stroke="black" points="196.797,-103.293 186.202,-103.212 194.435,-109.882 196.797,-103.293"/>
<g id="a_edge2&#45;headlabel"><a xlink:href="dir_000066_000000.xhtml" target="_top" xlink:title="1380">
<text text-anchor="middle" x="201.139" y="-99.3329" font-family="Helvetica,sans-Serif" font-size="10.00">1380</text>
</a>
</g>
</g>
<!-- dir_5815af820a9cc9481f1d0990a0d60286 -->
<g id="node6" class="node"><title>dir_5815af820a9cc9481f1d0990a0d60286</title>
<g id="a_node6"><a xlink:href="dir_5815af820a9cc9481f1d0990a0d60286.xhtml" target="_top" xlink:title="support">
<polygon fill="none" stroke="black" points="227,-36 173,-36 173,-0 227,-0 227,-36"/>
<text text-anchor="middle" x="200" y="-15.5" font-family="Helvetica,sans-Serif" font-size="10.00">support</text>
</a>
</g>
</g>
<!-- dir_8a6a287e420ec4de95804825506d2fde&#45;&gt;dir_5815af820a9cc9481f1d0990a0d60286 -->
<g id="edge3" class="edge"><title>dir_8a6a287e420ec4de95804825506d2fde&#45;&gt;dir_5815af820a9cc9481f1d0990a0d60286</title>
<path fill="none" stroke="black" d="M267.712,-143.871C254.415,-119.35 229.841,-74.0321 214.239,-45.2589"/>
<polygon fill="black" stroke="black" points="217.165,-43.3116 209.321,-36.1893 211.011,-46.6484 217.165,-43.3116"/>
<g id="a_edge3&#45;headlabel"><a xlink:href="dir_000066_000150.xhtml" target="_top" xlink:title="40">
<text text-anchor="middle" x="221.374" y="-42.6181" font-family="Helvetica,sans-Serif" font-size="10.00">40</text>
</a>
</g>
</g>
<!-- dir_214608ef36d61442cb2b0c1c4e9a7def&#45;&gt;dir_5815af820a9cc9481f1d0990a0d60286 -->
<g id="edge5" class="edge"><title>dir_214608ef36d61442cb2b0c1c4e9a7def&#45;&gt;dir_5815af820a9cc9481f1d0990a0d60286</title>
<path fill="none" stroke="black" d="M157.843,-71.6966C164.489,-63.3893 172.578,-53.2771 179.887,-44.1407"/>
<polygon fill="black" stroke="black" points="182.803,-46.0995 186.317,-36.1043 177.336,-41.7266 182.803,-46.0995"/>
<g id="a_edge5&#45;headlabel"><a xlink:href="dir_000000_000150.xhtml" target="_top" xlink:title="22">
<text text-anchor="middle" x="182.774" y="-48.1801" font-family="Helvetica,sans-Serif" font-size="10.00">22</text>
</a>
</g>
</g>
</g>
</svg>
