<?xml version="1.0" encoding="UTF-8" standalone="no"?>
<!DOCTYPE svg PUBLIC "-//W3C//DTD SVG 1.1//EN"
 "http://www.w3.org/Graphics/SVG/1.1/DTD/svg11.dtd">
<!-- Generated by graphviz version 2.38.0 (20140413.2041)
 -->
<!-- Title: tests/framework Pages: 1 -->
<svg width="306pt" height="447pt"
 viewBox="0.00 0.00 306.00 447.00" xmlns="http://www.w3.org/2000/svg" xmlns:xlink="http://www.w3.org/1999/xlink">
<g id="graph0" class="graph" transform="scale(1 1) rotate(0) translate(4 443)">
<title>tests/framework</title>
<polygon fill="white" stroke="none" points="-4,4 -4,-443 302,-443 302,4 -4,4"/>
<g id="clust1" class="cluster"><title>clusterdir_59425e443f801f1f2fd8bbe4959a3ccf</title>
<g id="a_clust1"><a xlink:href="dir_59425e443f801f1f2fd8bbe4959a3ccf.xhtml" target="_top" xlink:title="tests">
<polygon fill="#ddddee" stroke="black" points="8,-200 8,-431 290,-431 290,-200 8,-200"/>
<text text-anchor="middle" x="149" y="-419" font-family="Helvetica,sans-Serif" font-size="10.00">tests</text>
</a>
</g>
</g>
<g id="clust2" class="cluster"><title>clusterdir_9e71e2da941d3cafc4d98a9f6ae3de4f</title>
<g id="a_clust2"><a xlink:href="dir_9e71e2da941d3cafc4d98a9f6ae3de4f.xhtml" target="_top">
<polygon fill="#eeeeff" stroke="black" points="16,-208 16,-404 282,-404 282,-208 16,-208"/>
</a>
</g>
</g>
<!-- dir_9e71e2da941d3cafc4d98a9f6ae3de4f -->
<g id="node1" class="node"><title>dir_9e71e2da941d3cafc4d98a9f6ae3de4f</title>
<text text-anchor="middle" x="163" y="-375.5" font-family="Helvetica,sans-Serif" font-size="10.00">framework</text>
</g>
<!-- dir_214608ef36d61442cb2b0c1c4e9a7def -->
<g id="node7" class="node"><title>dir_214608ef36d61442cb2b0c1c4e9a7def</title>
<g id="a_node7"><a xlink:href="dir_214608ef36d61442cb2b0c1c4e9a7def.xhtml" target="_top" xlink:title="arm_compute">
<polygon fill="white" stroke="red" points="103,-180 19,-180 19,-144 103,-144 103,-180"/>
<text text-anchor="middle" x="61" y="-159.5" font-family="Helvetica,sans-Serif" font-size="10.00">arm_compute</text>
</a>
</g>
</g>
<!-- dir_9e71e2da941d3cafc4d98a9f6ae3de4f&#45;&gt;dir_214608ef36d61442cb2b0c1c4e9a7def -->
<g id="edge7" class="edge"><title>dir_9e71e2da941d3cafc4d98a9f6ae3de4f&#45;&gt;dir_214608ef36d61442cb2b0c1c4e9a7def</title>
<path fill="none" stroke="black" d="M160.949,-359.964C156.259,-326.646 142.301,-251.609 107,-200 103.818,-195.347 99.8793,-190.986 95.6569,-187.006"/>
<polygon fill="black" stroke="black" points="97.7095,-184.154 87.8516,-180.272 93.1369,-189.454 97.7095,-184.154"/>
<g id="a_edge7&#45;headlabel"><a xlink:href="dir_000032_000000.xhtml" target="_top" xlink:title="14">
<text text-anchor="middle" x="102.286" y="-181.852" font-family="Helvetica,sans-Serif" font-size="10.00">14</text>
</a>
</g>
</g>
<!-- dir_d247c927d0dc22626cf668ab2bd7f080 -->
<g id="node2" class="node"><title>dir_d247c927d0dc22626cf668ab2bd7f080</title>
<g id="a_node2"><a xlink:href="dir_d247c927d0dc22626cf668ab2bd7f080.xhtml" target="_top" xlink:title="command_line">
<polygon fill="white" stroke="black" points="111.5,-396 24.5,-396 24.5,-360 111.5,-360 111.5,-396"/>
<text text-anchor="middle" x="68" y="-375.5" font-family="Helvetica,sans-Serif" font-size="10.00">command_line</text>
</a>
</g>
</g>
<!-- dir_4efd0ee2ecda32567e74991b08d544ea -->
<g id="node4" class="node"><title>dir_4efd0ee2ecda32567e74991b08d544ea</title>
<g id="a_node4"><a xlink:href="dir_4efd0ee2ecda32567e74991b08d544ea.xhtml" target="_top" xlink:title="instruments">
<polygon fill="white" stroke="black" points="98,-252 24,-252 24,-216 98,-216 98,-252"/>
<text text-anchor="middle" x="61" y="-231.5" font-family="Helvetica,sans-Serif" font-size="10.00">instruments</text>
</a>
</g>
</g>
<!-- dir_d247c927d0dc22626cf668ab2bd7f080&#45;&gt;dir_4efd0ee2ecda32567e74991b08d544ea -->
<g id="edge4" class="edge"><title>dir_d247c927d0dc22626cf668ab2bd7f080&#45;&gt;dir_4efd0ee2ecda32567e74991b08d544ea</title>
<path fill="none" stroke="black" d="M54.8544,-359.908C48.0775,-350.006 40.5129,-336.964 37,-324 32.8153,-308.557 33.6239,-303.64 37,-288 38.9608,-278.916 42.6119,-269.517 46.4851,-261.201"/>
<polygon fill="black" stroke="black" points="49.7309,-262.534 51.0461,-252.022 43.462,-259.42 49.7309,-262.534"/>
<g id="a_edge4&#45;headlabel"><a xlink:href="dir_000154_000156.xhtml" target="_top" xlink:title="1">
<text text-anchor="middle" x="50.6742" y="-264.517" font-family="Helvetica,sans-Serif" font-size="10.00">1</text>
</a>
</g>
</g>
<!-- dir_68cb0bded1cc5601c88ddaacbb31e482 -->
<g id="node5" class="node"><title>dir_68cb0bded1cc5601c88ddaacbb31e482</title>
<g id="a_node5"><a xlink:href="dir_68cb0bded1cc5601c88ddaacbb31e482.xhtml" target="_top" xlink:title="printers">
<polygon fill="white" stroke="black" points="100,-324 46,-324 46,-288 100,-288 100,-324"/>
<text text-anchor="middle" x="73" y="-303.5" font-family="Helvetica,sans-Serif" font-size="10.00">printers</text>
</a>
</g>
</g>
<!-- dir_d247c927d0dc22626cf668ab2bd7f080&#45;&gt;dir_68cb0bded1cc5601c88ddaacbb31e482 -->
<g id="edge2" class="edge"><title>dir_d247c927d0dc22626cf668ab2bd7f080&#45;&gt;dir_68cb0bded1cc5601c88ddaacbb31e482</title>
<path fill="none" stroke="black" d="M69.236,-359.697C69.7869,-351.983 70.4491,-342.712 71.0634,-334.112"/>
<polygon fill="black" stroke="black" points="74.5568,-334.328 71.7783,-324.104 67.5746,-333.83 74.5568,-334.328"/>
<g id="a_edge2&#45;headlabel"><a xlink:href="dir_000154_000038.xhtml" target="_top" xlink:title="1">
<text text-anchor="middle" x="77.1328" y="-335.616" font-family="Helvetica,sans-Serif" font-size="10.00">1</text>
</a>
</g>
</g>
<!-- dir_cbdb8362360e11eafe2fa3bc74cf0ffd -->
<g id="node6" class="node"><title>dir_cbdb8362360e11eafe2fa3bc74cf0ffd</title>
<g id="a_node6"><a xlink:href="dir_cbdb8362360e11eafe2fa3bc74cf0ffd.xhtml" target="_top" xlink:title="utils">
<polygon fill="white" stroke="red" points="151,-108 97,-108 97,-72 151,-72 151,-108"/>
<text text-anchor="middle" x="124" y="-87.5" font-family="Helvetica,sans-Serif" font-size="10.00">utils</text>
</a>
</g>
</g>
<!-- dir_d247c927d0dc22626cf668ab2bd7f080&#45;&gt;dir_cbdb8362360e11eafe2fa3bc74cf0ffd -->
<g id="edge3" class="edge"><title>dir_d247c927d0dc22626cf668ab2bd7f080&#45;&gt;dir_cbdb8362360e11eafe2fa3bc74cf0ffd</title>
<path fill="none" stroke="black" d="M85.816,-359.55C94.4355,-349.935 103.982,-337.276 109,-324 135.611,-253.592 131.509,-162.736 127.249,-118.14"/>
<polygon fill="black" stroke="black" points="130.72,-117.676 126.209,-108.09 123.757,-118.397 130.72,-117.676"/>
<g id="a_edge3&#45;headlabel"><a xlink:href="dir_000154_000034.xhtml" target="_top" xlink:title="2">
<text text-anchor="middle" x="133.914" y="-118.46" font-family="Helvetica,sans-Serif" font-size="10.00">2</text>
</a>
</g>
</g>
<!-- dir_0dd7887818bb8d90732685575a13f58a -->
<g id="node3" class="node"><title>dir_0dd7887818bb8d90732685575a13f58a</title>
<g id="a_node3"><a xlink:href="dir_0dd7887818bb8d90732685575a13f58a.xhtml" target="_top" xlink:title="datasets">
<polygon fill="white" stroke="black" points="273.5,-396 214.5,-396 214.5,-360 273.5,-360 273.5,-396"/>
<text text-anchor="middle" x="244" y="-375.5" font-family="Helvetica,sans-Serif" font-size="10.00">datasets</text>
</a>
</g>
</g>
<!-- dir_0dd7887818bb8d90732685575a13f58a&#45;&gt;dir_cbdb8362360e11eafe2fa3bc74cf0ffd -->
<g id="edge11" class="edge"><title>dir_0dd7887818bb8d90732685575a13f58a&#45;&gt;dir_cbdb8362360e11eafe2fa3bc74cf0ffd</title>
<path fill="none" stroke="black" d="M236.853,-359.966C216.725,-311.994 159.453,-175.496 135.137,-117.543"/>
<polygon fill="black" stroke="black" points="138.358,-116.173 131.261,-108.306 131.903,-118.882 138.358,-116.173"/>
<g id="a_edge11&#45;headlabel"><a xlink:href="dir_000155_000034.xhtml" target="_top" xlink:title="1">
<text text-anchor="middle" x="142.367" y="-115.89" font-family="Helvetica,sans-Serif" font-size="10.00">1</text>
</a>
</g>
</g>
<!-- dir_5815af820a9cc9481f1d0990a0d60286 -->
<g id="node8" class="node"><title>dir_5815af820a9cc9481f1d0990a0d60286</title>
<g id="a_node8"><a xlink:href="dir_5815af820a9cc9481f1d0990a0d60286.xhtml" target="_top" xlink:title="support">
<polygon fill="none" stroke="black" points="151,-36 97,-36 97,-0 151,-0 151,-36"/>
<text text-anchor="middle" x="124" y="-15.5" font-family="Helvetica,sans-Serif" font-size="10.00">support</text>
</a>
</g>
</g>
<!-- dir_0dd7887818bb8d90732685575a13f58a&#45;&gt;dir_5815af820a9cc9481f1d0990a0d60286 -->
<g id="edge12" class="edge"><title>dir_0dd7887818bb8d90732685575a13f58a&#45;&gt;dir_5815af820a9cc9481f1d0990a0d60286</title>
<path fill="none" stroke="black" d="M244,-359.951C244,-333.292 244,-280.115 244,-235 244,-235 244,-235 244,-161 244,-108.333 195.248,-65.1154 159.892,-40.6977"/>
<polygon fill="black" stroke="black" points="161.487,-37.5536 151.23,-34.9006 157.594,-43.3711 161.487,-37.5536"/>
<g id="a_edge12&#45;headlabel"><a xlink:href="dir_000155_000150.xhtml" target="_top" xlink:title="3">
<text text-anchor="middle" x="166.054" y="-34.6932" font-family="Helvetica,sans-Serif" font-size="10.00">3</text>
</a>
</g>
</g>
<!-- dir_4efd0ee2ecda32567e74991b08d544ea&#45;&gt;dir_214608ef36d61442cb2b0c1c4e9a7def -->
<g id="edge10" class="edge"><title>dir_4efd0ee2ecda32567e74991b08d544ea&#45;&gt;dir_214608ef36d61442cb2b0c1c4e9a7def</title>
<path fill="none" stroke="black" d="M61,-215.697C61,-207.983 61,-198.712 61,-190.112"/>
<polygon fill="black" stroke="black" points="64.5001,-190.104 61,-180.104 57.5001,-190.104 64.5001,-190.104"/>
<g id="a_edge10&#45;headlabel"><a xlink:href="dir_000156_000000.xhtml" target="_top" xlink:title="13">
<text text-anchor="middle" x="67.3393" y="-191.199" font-family="Helvetica,sans-Serif" font-size="10.00">13</text>
</a>
</g>
</g>
<!-- dir_68cb0bded1cc5601c88ddaacbb31e482&#45;&gt;dir_4efd0ee2ecda32567e74991b08d544ea -->
<g id="edge1" class="edge"><title>dir_68cb0bded1cc5601c88ddaacbb31e482&#45;&gt;dir_4efd0ee2ecda32567e74991b08d544ea</title>
<path fill="none" stroke="black" d="M70.0337,-287.697C68.7113,-279.983 67.1221,-270.712 65.6478,-262.112"/>
<polygon fill="black" stroke="black" points="69.0716,-261.369 63.9322,-252.104 62.1722,-262.552 69.0716,-261.369"/>
<g id="a_edge1&#45;headlabel"><a xlink:href="dir_000038_000156.xhtml" target="_top" xlink:title="3">
<text text-anchor="middle" x="72.4773" y="-261.932" font-family="Helvetica,sans-Serif" font-size="10.00">3</text>
</a>
</g>
</g>
<!-- dir_cbdb8362360e11eafe2fa3bc74cf0ffd&#45;&gt;dir_214608ef36d61442cb2b0c1c4e9a7def -->
<g id="edge5" class="edge"><title>dir_cbdb8362360e11eafe2fa3bc74cf0ffd&#45;&gt;dir_214608ef36d61442cb2b0c1c4e9a7def</title>
<path fill="none" stroke="black" d="M114.501,-108.104C107.717,-116.636 98.4843,-127.108 89.5439,-136.478"/>
<polygon fill="black" stroke="black" points="86.975,-134.098 82.4888,-143.697 91.9813,-138.991 86.975,-134.098"/>
<g id="a_edge5&#45;headlabel"><a xlink:href="dir_000034_000000.xhtml" target="_top" xlink:title="37">
<text text-anchor="middle" x="87.4568" y="-127.043" font-family="Helvetica,sans-Serif" font-size="10.00">37</text>
</a>
</g>
</g>
<!-- dir_cbdb8362360e11eafe2fa3bc74cf0ffd&#45;&gt;dir_5815af820a9cc9481f1d0990a0d60286 -->
<g id="edge6" class="edge"><title>dir_cbdb8362360e11eafe2fa3bc74cf0ffd&#45;&gt;dir_5815af820a9cc9481f1d0990a0d60286</title>
<path fill="none" stroke="black" d="M124,-71.6966C124,-63.9827 124,-54.7125 124,-46.1124"/>
<polygon fill="black" stroke="black" points="127.5,-46.1043 124,-36.1043 120.5,-46.1044 127.5,-46.1043"/>
<g id="a_edge6&#45;headlabel"><a xlink:href="dir_000034_000150.xhtml" target="_top" xlink:title="3">
<text text-anchor="middle" x="130.339" y="-47.199" font-family="Helvetica,sans-Serif" font-size="10.00">3</text>
</a>
</g>
</g>
<!-- dir_214608ef36d61442cb2b0c1c4e9a7def&#45;&gt;dir_cbdb8362360e11eafe2fa3bc74cf0ffd -->
<g id="edge8" class="edge"><title>dir_214608ef36d61442cb2b0c1c4e9a7def&#45;&gt;dir_cbdb8362360e11eafe2fa3bc74cf0ffd</title>
<path fill="none" stroke="black" d="M70.6573,-143.697C77.4796,-135.135 86.7285,-124.656 95.6643,-115.304"/>
<polygon fill="black" stroke="black" points="98.2179,-117.699 102.711,-108.104 93.2151,-112.803 98.2179,-117.699"/>
<g id="a_edge8&#45;headlabel"><a xlink:href="dir_000000_000034.xhtml" target="_top" xlink:title="1">
<text text-anchor="middle" x="97.7328" y="-119.754" font-family="Helvetica,sans-Serif" font-size="10.00">1</text>
</a>
</g>
</g>
<!-- dir_214608ef36d61442cb2b0c1c4e9a7def&#45;&gt;dir_5815af820a9cc9481f1d0990a0d60286 -->
<g id="edge9" class="edge"><title>dir_214608ef36d61442cb2b0c1c4e9a7def&#45;&gt;dir_5815af820a9cc9481f1d0990a0d60286</title>
<path fill="none" stroke="black" d="M64.6097,-143.7C68.812,-125.337 76.6563,-95.7492 88,-72 92.4833,-62.6137 98.495,-53.0126 104.32,-44.6061"/>
<polygon fill="black" stroke="black" points="107.267,-46.503 110.251,-36.3372 101.579,-42.4231 107.267,-46.503"/>
<g id="a_edge9&#45;headlabel"><a xlink:href="dir_000000_000150.xhtml" target="_top" xlink:title="22">
<text text-anchor="middle" x="107.479" y="-48.5788" font-family="Helvetica,sans-Serif" font-size="10.00">22</text>
</a>
</g>
</g>
</g>
</svg>
