<?xml version="1.0" encoding="UTF-8" standalone="no"?>
<!DOCTYPE svg PUBLIC "-//W3C//DTD SVG 1.1//EN"
 "http://www.w3.org/Graphics/SVG/1.1/DTD/svg11.dtd">
<!-- Generated by graphviz version 2.43.0 (0)
 -->
<!-- Title: src/cpu/operators Pages: 1 -->
<svg width="342pt" height="519pt"
 viewBox="0.00 0.00 342.00 519.00" xmlns="http://www.w3.org/2000/svg" xmlns:xlink="http://www.w3.org/1999/xlink">
<g id="graph0" class="graph" transform="scale(1 1) rotate(0) translate(4 515)">
<title>src/cpu/operators</title>
<polygon fill="white" stroke="transparent" points="-4,4 -4,-515 338,-515 338,4 -4,4"/>
<g id="clust1" class="cluster">
<title>clusterdir_2c61f424fd391396db977702a2beee9a</title>
<g id="a_clust1"><a xlink:href="dir_2c61f424fd391396db977702a2beee9a.xhtml" target="_top" xlink:title="cpu">
<polygon fill="#ddddee" stroke="black" points="131,-344 131,-503 227,-503 227,-344 131,-344"/>
<text text-anchor="middle" x="179" y="-491" font-family="Helvetica,sans-Serif" font-size="10.00">cpu</text>
</a>
</g>
</g>
<g id="clust2" class="cluster">
<title>clusterdir_e639157fd988cab7c102f16994a5c7d6</title>
<g id="a_clust2"><a xlink:href="dir_e639157fd988cab7c102f16994a5c7d6.xhtml" target="_top">
<polygon fill="#eeeeff" stroke="black" points="139,-352 139,-476 219,-476 219,-352 139,-352"/>
</a>
</g>
</g>
<!-- dir_e639157fd988cab7c102f16994a5c7d6 -->
<g id="node1" class="node">
<title>dir_e639157fd988cab7c102f16994a5c7d6</title>
<text text-anchor="middle" x="179" y="-447.5" font-family="Helvetica,sans-Serif" font-size="10.00">operators</text>
</g>
<!-- dir_7516d7e27ad2852cb8e3a5961ec5f65b -->
<g id="node2" class="node">
<title>dir_7516d7e27ad2852cb8e3a5961ec5f65b</title>
<g id="a_node2"><a xlink:href="dir_7516d7e27ad2852cb8e3a5961ec5f65b.xhtml" target="_top" xlink:title="internal">
<polygon fill="white" stroke="black" points="211,-396 157,-396 157,-360 211,-360 211,-396"/>
<text text-anchor="middle" x="184" y="-375.5" font-family="Helvetica,sans-Serif" font-size="10.00">internal</text>
</a>
</g>
</g>
<!-- dir_e639157fd988cab7c102f16994a5c7d6&#45;&gt;dir_7516d7e27ad2852cb8e3a5961ec5f65b -->
<g id="edge4" class="edge">
<title>dir_e639157fd988cab7c102f16994a5c7d6&#45;&gt;dir_7516d7e27ad2852cb8e3a5961ec5f65b</title>
<path fill="none" stroke="black" d="M180.24,-431.7C180.79,-423.98 181.45,-414.71 182.06,-406.11"/>
<polygon fill="black" stroke="black" points="185.56,-406.33 182.78,-396.1 178.57,-405.83 185.56,-406.33"/>
<g id="a_edge4&#45;headlabel"><a xlink:href="dir_000496_000497.xhtml" target="_top" xlink:title="5">
<text text-anchor="middle" x="188.13" y="-407.62" font-family="Helvetica,sans-Serif" font-size="10.00">5</text>
</a>
</g>
</g>
<!-- dir_5815af820a9cc9481f1d0990a0d60286 -->
<g id="node7" class="node">
<title>dir_5815af820a9cc9481f1d0990a0d60286</title>
<g id="a_node7"><a xlink:href="dir_5815af820a9cc9481f1d0990a0d60286.xhtml" target="_top" xlink:title="support">
<polygon fill="none" stroke="black" points="208,-108 154,-108 154,-72 208,-72 208,-108"/>
<text text-anchor="middle" x="181" y="-87.5" font-family="Helvetica,sans-Serif" font-size="10.00">support</text>
</a>
</g>
</g>
<!-- dir_e639157fd988cab7c102f16994a5c7d6&#45;&gt;dir_5815af820a9cc9481f1d0990a0d60286 -->
<g id="edge5" class="edge">
<title>dir_e639157fd988cab7c102f16994a5c7d6&#45;&gt;dir_5815af820a9cc9481f1d0990a0d60286</title>
<path fill="none" stroke="black" d="M147.41,-439.92C96.02,-422.98 0,-381.38 0,-307 0,-307 0,-307 0,-233 0,-160.4 91.27,-119.3 144.18,-101.58"/>
<polygon fill="black" stroke="black" points="145.46,-104.84 153.9,-98.44 143.31,-98.18 145.46,-104.84"/>
<g id="a_edge5&#45;headlabel"><a xlink:href="dir_000496_000031.xhtml" target="_top" xlink:title="3">
<text text-anchor="middle" x="142.91" y="-106.15" font-family="Helvetica,sans-Serif" font-size="10.00">3</text>
</a>
</g>
</g>
<!-- dir_fdedb0aba14d44ce9d99bc100e026e6a -->
<g id="node8" class="node">
<title>dir_fdedb0aba14d44ce9d99bc100e026e6a</title>
<g id="a_node8"><a xlink:href="dir_fdedb0aba14d44ce9d99bc100e026e6a.xhtml" target="_top" xlink:title="common">
<polygon fill="white" stroke="red" points="153.5,-180 94.5,-180 94.5,-144 153.5,-144 153.5,-180"/>
<text text-anchor="middle" x="124" y="-159.5" font-family="Helvetica,sans-Serif" font-size="10.00">common</text>
</a>
</g>
</g>
<!-- dir_e639157fd988cab7c102f16994a5c7d6&#45;&gt;dir_fdedb0aba14d44ce9d99bc100e026e6a -->
<g id="edge6" class="edge">
<title>dir_e639157fd988cab7c102f16994a5c7d6&#45;&gt;dir_fdedb0aba14d44ce9d99bc100e026e6a</title>
<path fill="none" stroke="black" d="M166.37,-431.76C159.75,-421.81 152.17,-408.77 148,-396 124.65,-324.56 122.5,-234.82 123.12,-190.44"/>
<polygon fill="black" stroke="black" points="126.62,-190.25 123.32,-180.18 119.62,-190.11 126.62,-190.25"/>
<g id="a_edge6&#45;headlabel"><a xlink:href="dir_000496_000016.xhtml" target="_top" xlink:title="39">
<text text-anchor="middle" x="129.39" y="-191.4" font-family="Helvetica,sans-Serif" font-size="10.00">39</text>
</a>
</g>
</g>
<!-- dir_187b9d58414f06fbebe4df2ec38d20a5 -->
<g id="node3" class="node">
<title>dir_187b9d58414f06fbebe4df2ec38d20a5</title>
<g id="a_node3"><a xlink:href="dir_187b9d58414f06fbebe4df2ec38d20a5.xhtml" target="_top" xlink:title="utils">
<polygon fill="none" stroke="black" points="82,-252 28,-252 28,-216 82,-216 82,-252"/>
<text text-anchor="middle" x="55" y="-231.5" font-family="Helvetica,sans-Serif" font-size="10.00">utils</text>
</a>
</g>
</g>
<!-- dir_7516d7e27ad2852cb8e3a5961ec5f65b&#45;&gt;dir_187b9d58414f06fbebe4df2ec38d20a5 -->
<g id="edge12" class="edge">
<title>dir_7516d7e27ad2852cb8e3a5961ec5f65b&#45;&gt;dir_187b9d58414f06fbebe4df2ec38d20a5</title>
<path fill="none" stroke="black" d="M168.44,-359.87C145.78,-334.92 103.56,-288.45 77.5,-259.77"/>
<polygon fill="black" stroke="black" points="79.93,-257.24 70.62,-252.19 74.75,-261.94 79.93,-257.24"/>
<g id="a_edge12&#45;headlabel"><a xlink:href="dir_000497_000498.xhtml" target="_top" xlink:title="1">
<text text-anchor="middle" x="84.45" y="-255.49" font-family="Helvetica,sans-Serif" font-size="10.00">1</text>
</a>
</g>
</g>
<!-- dir_214608ef36d61442cb2b0c1c4e9a7def -->
<g id="node4" class="node">
<title>dir_214608ef36d61442cb2b0c1c4e9a7def</title>
<g id="a_node4"><a xlink:href="dir_214608ef36d61442cb2b0c1c4e9a7def.xhtml" target="_top" xlink:title="arm_compute">
<polygon fill="white" stroke="red" points="223,-36 139,-36 139,0 223,0 223,-36"/>
<text text-anchor="middle" x="181" y="-15.5" font-family="Helvetica,sans-Serif" font-size="10.00">arm_compute</text>
</a>
</g>
</g>
<!-- dir_7516d7e27ad2852cb8e3a5961ec5f65b&#45;&gt;dir_214608ef36d61442cb2b0c1c4e9a7def -->
<g id="edge13" class="edge">
<title>dir_7516d7e27ad2852cb8e3a5961ec5f65b&#45;&gt;dir_214608ef36d61442cb2b0c1c4e9a7def</title>
<path fill="none" stroke="black" d="M211.16,-366.07C254.39,-346.68 334,-301.88 334,-235 334,-235 334,-235 334,-161 334,-103.87 275.98,-63.26 231.4,-40.48"/>
<polygon fill="black" stroke="black" points="232.92,-37.32 222.4,-36.03 229.81,-43.6 232.92,-37.32"/>
<g id="a_edge13&#45;headlabel"><a xlink:href="dir_000497_000000.xhtml" target="_top" xlink:title="2">
<text text-anchor="middle" x="237.4" y="-33.87" font-family="Helvetica,sans-Serif" font-size="10.00">2</text>
</a>
</g>
</g>
<!-- dir_1de7bcbbdec2bf3559cb3c688662d4f5 -->
<g id="node5" class="node">
<title>dir_1de7bcbbdec2bf3559cb3c688662d4f5</title>
<g id="a_node5"><a xlink:href="dir_1de7bcbbdec2bf3559cb3c688662d4f5.xhtml" target="_top" xlink:title="kernels">
<polygon fill="white" stroke="red" points="230,-324 176,-324 176,-288 230,-288 230,-324"/>
<text text-anchor="middle" x="203" y="-303.5" font-family="Helvetica,sans-Serif" font-size="10.00">kernels</text>
</a>
</g>
</g>
<!-- dir_7516d7e27ad2852cb8e3a5961ec5f65b&#45;&gt;dir_1de7bcbbdec2bf3559cb3c688662d4f5 -->
<g id="edge14" class="edge">
<title>dir_7516d7e27ad2852cb8e3a5961ec5f65b&#45;&gt;dir_1de7bcbbdec2bf3559cb3c688662d4f5</title>
<path fill="none" stroke="black" d="M188.7,-359.7C190.81,-351.9 193.36,-342.51 195.72,-333.83"/>
<polygon fill="black" stroke="black" points="199.12,-334.67 198.36,-324.1 192.36,-332.84 199.12,-334.67"/>
<g id="a_edge14&#45;headlabel"><a xlink:href="dir_000497_000374.xhtml" target="_top" xlink:title="2">
<text text-anchor="middle" x="200.91" y="-336.38" font-family="Helvetica,sans-Serif" font-size="10.00">2</text>
</a>
</g>
</g>
<!-- dir_aebb8dcc11953d78e620bbef0b9e2183 -->
<g id="node6" class="node">
<title>dir_aebb8dcc11953d78e620bbef0b9e2183</title>
<g id="a_node6"><a xlink:href="dir_aebb8dcc11953d78e620bbef0b9e2183.xhtml" target="_top" xlink:title="core">
<polygon fill="white" stroke="red" points="268,-252 214,-252 214,-216 268,-216 268,-252"/>
<text text-anchor="middle" x="241" y="-231.5" font-family="Helvetica,sans-Serif" font-size="10.00">core</text>
</a>
</g>
</g>
<!-- dir_7516d7e27ad2852cb8e3a5961ec5f65b&#45;&gt;dir_aebb8dcc11953d78e620bbef0b9e2183 -->
<g id="edge15" class="edge">
<title>dir_7516d7e27ad2852cb8e3a5961ec5f65b&#45;&gt;dir_aebb8dcc11953d78e620bbef0b9e2183</title>
<path fill="none" stroke="black" d="M209.24,-359.89C220.54,-350.71 232.72,-338.33 239,-324 247.51,-304.59 247.48,-280.45 245.61,-262.21"/>
<polygon fill="black" stroke="black" points="249.08,-261.71 244.35,-252.23 242.13,-262.59 249.08,-261.71"/>
<g id="a_edge15&#45;headlabel"><a xlink:href="dir_000497_000017.xhtml" target="_top" xlink:title="5">
<text text-anchor="middle" x="252.34" y="-262.42" font-family="Helvetica,sans-Serif" font-size="10.00">5</text>
</a>
</g>
</g>
<!-- dir_187b9d58414f06fbebe4df2ec38d20a5&#45;&gt;dir_214608ef36d61442cb2b0c1c4e9a7def -->
<g id="edge1" class="edge">
<title>dir_187b9d58414f06fbebe4df2ec38d20a5&#45;&gt;dir_214608ef36d61442cb2b0c1c4e9a7def</title>
<path fill="none" stroke="black" d="M53.38,-215.8C52.33,-197.25 52.72,-167.27 63,-144 81.65,-101.76 120.86,-64.92 148.97,-42.38"/>
<polygon fill="black" stroke="black" points="151.23,-45.05 156.93,-36.13 146.91,-39.55 151.23,-45.05"/>
<g id="a_edge1&#45;headlabel"><a xlink:href="dir_000498_000000.xhtml" target="_top" xlink:title="3">
<text text-anchor="middle" x="150.15" y="-47.01" font-family="Helvetica,sans-Serif" font-size="10.00">3</text>
</a>
</g>
</g>
<!-- dir_187b9d58414f06fbebe4df2ec38d20a5&#45;&gt;dir_5815af820a9cc9481f1d0990a0d60286 -->
<g id="edge2" class="edge">
<title>dir_187b9d58414f06fbebe4df2ec38d20a5&#45;&gt;dir_5815af820a9cc9481f1d0990a0d60286</title>
<path fill="none" stroke="black" d="M57.26,-215.8C60.59,-196.42 68.43,-164.92 86,-144 101.34,-125.73 124.68,-112.58 144.38,-103.96"/>
<polygon fill="black" stroke="black" points="145.82,-107.15 153.71,-100.08 143.13,-100.68 145.82,-107.15"/>
<g id="a_edge2&#45;headlabel"><a xlink:href="dir_000498_000031.xhtml" target="_top" xlink:title="1">
<text text-anchor="middle" x="143.59" y="-108.65" font-family="Helvetica,sans-Serif" font-size="10.00">1</text>
</a>
</g>
</g>
<!-- dir_187b9d58414f06fbebe4df2ec38d20a5&#45;&gt;dir_fdedb0aba14d44ce9d99bc100e026e6a -->
<g id="edge3" class="edge">
<title>dir_187b9d58414f06fbebe4df2ec38d20a5&#45;&gt;dir_fdedb0aba14d44ce9d99bc100e026e6a</title>
<path fill="none" stroke="black" d="M72.06,-215.7C80.5,-207.14 90.82,-196.66 100.04,-187.3"/>
<polygon fill="black" stroke="black" points="102.61,-189.68 107.14,-180.1 97.63,-184.77 102.61,-189.68"/>
<g id="a_edge3&#45;headlabel"><a xlink:href="dir_000498_000016.xhtml" target="_top" xlink:title="1">
<text text-anchor="middle" x="102.11" y="-191.74" font-family="Helvetica,sans-Serif" font-size="10.00">1</text>
</a>
</g>
</g>
<!-- dir_214608ef36d61442cb2b0c1c4e9a7def&#45;&gt;dir_5815af820a9cc9481f1d0990a0d60286 -->
<g id="edge7" class="edge">
<title>dir_214608ef36d61442cb2b0c1c4e9a7def&#45;&gt;dir_5815af820a9cc9481f1d0990a0d60286</title>
<path fill="none" stroke="black" d="M186.9,-36.1C187.7,-43.79 187.94,-53.05 187.6,-61.67"/>
<polygon fill="black" stroke="black" points="184.11,-61.48 186.92,-71.7 191.09,-61.96 184.11,-61.48"/>
<g id="a_edge7&#45;headlabel"><a xlink:href="dir_000000_000031.xhtml" target="_top" xlink:title="16">
<text text-anchor="middle" x="181.52" y="-55.2" font-family="Helvetica,sans-Serif" font-size="10.00">16</text>
</a>
</g>
</g>
<!-- dir_1de7bcbbdec2bf3559cb3c688662d4f5&#45;&gt;dir_214608ef36d61442cb2b0c1c4e9a7def -->
<g id="edge8" class="edge">
<title>dir_1de7bcbbdec2bf3559cb3c688662d4f5&#45;&gt;dir_214608ef36d61442cb2b0c1c4e9a7def</title>
<path fill="none" stroke="black" d="M230.06,-293.58C246.91,-284.88 267.18,-271.12 277,-252 284.31,-237.77 279.21,-231.85 277,-216 267.8,-150.1 270.25,-129.05 236,-72 229.61,-61.36 220.55,-51.42 211.61,-43.08"/>
<polygon fill="black" stroke="black" points="213.66,-40.22 203.86,-36.19 209.01,-45.45 213.66,-40.22"/>
<g id="a_edge8&#45;headlabel"><a xlink:href="dir_000374_000000.xhtml" target="_top" xlink:title="548">
<text text-anchor="middle" x="218.24" y="-37.99" font-family="Helvetica,sans-Serif" font-size="10.00">548</text>
</a>
</g>
</g>
<!-- dir_1de7bcbbdec2bf3559cb3c688662d4f5&#45;&gt;dir_aebb8dcc11953d78e620bbef0b9e2183 -->
<g id="edge9" class="edge">
<title>dir_1de7bcbbdec2bf3559cb3c688662d4f5&#45;&gt;dir_aebb8dcc11953d78e620bbef0b9e2183</title>
<path fill="none" stroke="black" d="M206.48,-287.7C210.06,-279.56 215.21,-269.69 220.51,-260.7"/>
<polygon fill="black" stroke="black" points="223.55,-262.45 225.82,-252.1 217.59,-258.78 223.55,-262.45"/>
<g id="a_edge9&#45;headlabel"><a xlink:href="dir_000374_000017.xhtml" target="_top" xlink:title="375">
<text text-anchor="middle" x="224.07" y="-264.5" font-family="Helvetica,sans-Serif" font-size="10.00">375</text>
</a>
</g>
</g>
<!-- dir_1de7bcbbdec2bf3559cb3c688662d4f5&#45;&gt;dir_5815af820a9cc9481f1d0990a0d60286 -->
<g id="edge10" class="edge">
<title>dir_1de7bcbbdec2bf3559cb3c688662d4f5&#45;&gt;dir_5815af820a9cc9481f1d0990a0d60286</title>
<path fill="none" stroke="black" d="M201.24,-287.85C197.43,-250.83 188.42,-163.18 183.82,-118.39"/>
<polygon fill="black" stroke="black" points="187.28,-117.82 182.77,-108.23 180.31,-118.54 187.28,-117.82"/>
<g id="a_edge10&#45;headlabel"><a xlink:href="dir_000374_000031.xhtml" target="_top" xlink:title="11">
<text text-anchor="middle" x="190.47" y="-118.61" font-family="Helvetica,sans-Serif" font-size="10.00">11</text>
</a>
</g>
</g>
<!-- dir_1de7bcbbdec2bf3559cb3c688662d4f5&#45;&gt;dir_fdedb0aba14d44ce9d99bc100e026e6a -->
<g id="edge11" class="edge">
<title>dir_1de7bcbbdec2bf3559cb3c688662d4f5&#45;&gt;dir_fdedb0aba14d44ce9d99bc100e026e6a</title>
<path fill="none" stroke="black" d="M192.8,-287.9C186.68,-277.56 178.79,-264.08 172,-252 160.25,-231.08 147.36,-207.13 137.9,-189.34"/>
<polygon fill="black" stroke="black" points="140.81,-187.35 133.03,-180.16 134.62,-190.63 140.81,-187.35"/>
<g id="a_edge11&#45;headlabel"><a xlink:href="dir_000374_000016.xhtml" target="_top" xlink:title="2">
<text text-anchor="middle" x="145" y="-186.7" font-family="Helvetica,sans-Serif" font-size="10.00">2</text>
</a>
</g>
</g>
<!-- dir_aebb8dcc11953d78e620bbef0b9e2183&#45;&gt;dir_214608ef36d61442cb2b0c1c4e9a7def -->
<g id="edge16" class="edge">
<title>dir_aebb8dcc11953d78e620bbef0b9e2183&#45;&gt;dir_214608ef36d61442cb2b0c1c4e9a7def</title>
<path fill="none" stroke="black" d="M240.92,-215.91C240.25,-185.8 236.43,-121.75 217,-72 213.22,-62.31 207.39,-52.63 201.52,-44.24"/>
<polygon fill="black" stroke="black" points="204.22,-42 195.48,-36.02 198.59,-46.15 204.22,-42"/>
<g id="a_edge16&#45;headlabel"><a xlink:href="dir_000017_000000.xhtml" target="_top" xlink:title="686">
<text text-anchor="middle" x="208.64" y="-40.71" font-family="Helvetica,sans-Serif" font-size="10.00">686</text>
</a>
</g>
</g>
<!-- dir_aebb8dcc11953d78e620bbef0b9e2183&#45;&gt;dir_1de7bcbbdec2bf3559cb3c688662d4f5 -->
<g id="edge17" class="edge">
<title>dir_aebb8dcc11953d78e620bbef0b9e2183&#45;&gt;dir_1de7bcbbdec2bf3559cb3c688662d4f5</title>
<path fill="none" stroke="black" d="M237.61,-252.1C234.06,-260.21 228.92,-270.08 223.62,-279.08"/>
<polygon fill="black" stroke="black" points="220.57,-277.35 218.31,-287.7 226.53,-281.02 220.57,-277.35"/>
<g id="a_edge17&#45;headlabel"><a xlink:href="dir_000017_000374.xhtml" target="_top" xlink:title="86">
<text text-anchor="middle" x="220.04" y="-270.3" font-family="Helvetica,sans-Serif" font-size="10.00">86</text>
</a>
</g>
</g>
<!-- dir_aebb8dcc11953d78e620bbef0b9e2183&#45;&gt;dir_5815af820a9cc9481f1d0990a0d60286 -->
<g id="edge18" class="edge">
<title>dir_aebb8dcc11953d78e620bbef0b9e2183&#45;&gt;dir_5815af820a9cc9481f1d0990a0d60286</title>
<path fill="none" stroke="black" d="M233.76,-215.87C223.45,-191.46 204.42,-146.43 192.25,-117.64"/>
<polygon fill="black" stroke="black" points="195.38,-116.04 188.26,-108.19 188.93,-118.76 195.38,-116.04"/>
<g id="a_edge18&#45;headlabel"><a xlink:href="dir_000017_000031.xhtml" target="_top" xlink:title="55">
<text text-anchor="middle" x="199.39" y="-115.74" font-family="Helvetica,sans-Serif" font-size="10.00">55</text>
</a>
</g>
</g>
<!-- dir_aebb8dcc11953d78e620bbef0b9e2183&#45;&gt;dir_fdedb0aba14d44ce9d99bc100e026e6a -->
<g id="edge19" class="edge">
<title>dir_aebb8dcc11953d78e620bbef0b9e2183&#45;&gt;dir_fdedb0aba14d44ce9d99bc100e026e6a</title>
<path fill="none" stroke="black" d="M213.86,-216.76C198.23,-207.41 178.35,-195.52 161.26,-185.29"/>
<polygon fill="black" stroke="black" points="163,-182.25 152.62,-180.12 159.41,-188.26 163,-182.25"/>
<g id="a_edge19&#45;headlabel"><a xlink:href="dir_000017_000016.xhtml" target="_top" xlink:title="6">
<text text-anchor="middle" x="167.54" y="-179.16" font-family="Helvetica,sans-Serif" font-size="10.00">6</text>
</a>
</g>
</g>
<!-- dir_5815af820a9cc9481f1d0990a0d60286&#45;&gt;dir_214608ef36d61442cb2b0c1c4e9a7def -->
<g id="edge20" class="edge">
<title>dir_5815af820a9cc9481f1d0990a0d60286&#45;&gt;dir_214608ef36d61442cb2b0c1c4e9a7def</title>
<path fill="none" stroke="black" d="M175.08,-71.7C174.29,-63.98 174.06,-54.71 174.4,-46.11"/>
<polygon fill="black" stroke="black" points="177.9,-46.32 175.1,-36.1 170.92,-45.84 177.9,-46.32"/>
<g id="a_edge20&#45;headlabel"><a xlink:href="dir_000031_000000.xhtml" target="_top" xlink:title="6">
<text text-anchor="middle" x="180.48" y="-47.61" font-family="Helvetica,sans-Serif" font-size="10.00">6</text>
</a>
</g>
</g>
<!-- dir_fdedb0aba14d44ce9d99bc100e026e6a&#45;&gt;dir_214608ef36d61442cb2b0c1c4e9a7def -->
<g id="edge21" class="edge">
<title>dir_fdedb0aba14d44ce9d99bc100e026e6a&#45;&gt;dir_214608ef36d61442cb2b0c1c4e9a7def</title>
<path fill="none" stroke="black" d="M126.18,-143.68C128.92,-125.29 134.59,-95.69 145,-72 149.19,-62.48 155.12,-52.84 160.96,-44.44"/>
<polygon fill="black" stroke="black" points="163.9,-46.35 166.94,-36.2 158.24,-42.24 163.9,-46.35"/>
<g id="a_edge21&#45;headlabel"><a xlink:href="dir_000016_000000.xhtml" target="_top" xlink:title="17">
<text text-anchor="middle" x="164.09" y="-48.42" font-family="Helvetica,sans-Serif" font-size="10.00">17</text>
</a>
</g>
</g>
<!-- dir_fdedb0aba14d44ce9d99bc100e026e6a&#45;&gt;dir_5815af820a9cc9481f1d0990a0d60286 -->
<g id="edge22" class="edge">
<title>dir_fdedb0aba14d44ce9d99bc100e026e6a&#45;&gt;dir_5815af820a9cc9481f1d0990a0d60286</title>
<path fill="none" stroke="black" d="M138.09,-143.7C144.92,-135.3 153.26,-125.07 160.76,-115.86"/>
<polygon fill="black" stroke="black" points="163.47,-118.07 167.07,-108.1 158.04,-113.65 163.47,-118.07"/>
<g id="a_edge22&#45;headlabel"><a xlink:href="dir_000016_000031.xhtml" target="_top" xlink:title="2">
<text text-anchor="middle" x="163.4" y="-120.15" font-family="Helvetica,sans-Serif" font-size="10.00">2</text>
</a>
</g>
</g>
</g>
</svg>
