<?xml version="1.0" encoding="UTF-8" standalone="no"?>
<!DOCTYPE svg PUBLIC "-//W3C//DTD SVG 1.1//EN"
 "http://www.w3.org/Graphics/SVG/1.1/DTD/svg11.dtd">
<!-- Generated by graphviz version 2.43.0 (0)
 -->
<!-- Title: src/cpu/utils Pages: 1 -->
<svg width="139pt" height="295pt"
 viewBox="0.00 0.00 138.50 295.00" xmlns="http://www.w3.org/2000/svg" xmlns:xlink="http://www.w3.org/1999/xlink">
<g id="graph0" class="graph" transform="scale(1 1) rotate(0) translate(4 291)">
<title>src/cpu/utils</title>
<polygon fill="white" stroke="transparent" points="-4,4 -4,-291 134.5,-291 134.5,4 -4,4"/>
<g id="clust1" class="cluster">
<title>clusterdir_2c61f424fd391396db977702a2beee9a</title>
<g id="a_clust1"><a xlink:href="dir_2c61f424fd391396db977702a2beee9a.xhtml" target="_top" xlink:title="cpu">
<polygon fill="#ddddee" stroke="black" points="8,-208 8,-279 78,-279 78,-208 8,-208"/>
<text text-anchor="middle" x="43" y="-267" font-family="Helvetica,sans-Serif" font-size="10.00">cpu</text>
</a>
</g>
</g>
<!-- dir_187b9d58414f06fbebe4df2ec38d20a5 -->
<g id="node1" class="node">
<title>dir_187b9d58414f06fbebe4df2ec38d20a5</title>
<g id="a_node1"><a xlink:href="dir_187b9d58414f06fbebe4df2ec38d20a5.xhtml" target="_top" xlink:title="utils">
<polygon fill="#eeeeff" stroke="black" points="70,-252 16,-252 16,-216 70,-216 70,-252"/>
<text text-anchor="middle" x="43" y="-231.5" font-family="Helvetica,sans-Serif" font-size="10.00">utils</text>
</a>
</g>
</g>
<!-- dir_214608ef36d61442cb2b0c1c4e9a7def -->
<g id="node2" class="node">
<title>dir_214608ef36d61442cb2b0c1c4e9a7def</title>
<g id="a_node2"><a xlink:href="dir_214608ef36d61442cb2b0c1c4e9a7def.xhtml" target="_top" xlink:title="arm_compute">
<polygon fill="white" stroke="red" points="101,-108 17,-108 17,-72 101,-72 101,-108"/>
<text text-anchor="middle" x="59" y="-87.5" font-family="Helvetica,sans-Serif" font-size="10.00">arm_compute</text>
</a>
</g>
</g>
<!-- dir_187b9d58414f06fbebe4df2ec38d20a5&#45;&gt;dir_214608ef36d61442cb2b0c1c4e9a7def -->
<g id="edge1" class="edge">
<title>dir_187b9d58414f06fbebe4df2ec38d20a5&#45;&gt;dir_214608ef36d61442cb2b0c1c4e9a7def</title>
<path fill="none" stroke="black" d="M44.93,-215.87C47.66,-191.67 52.67,-147.21 55.91,-118.39"/>
<polygon fill="black" stroke="black" points="59.42,-118.52 57.06,-108.19 52.47,-117.73 59.42,-118.52"/>
<g id="a_edge1&#45;headlabel"><a xlink:href="dir_000498_000000.xhtml" target="_top" xlink:title="3">
<text text-anchor="middle" x="61.84" y="-119.91" font-family="Helvetica,sans-Serif" font-size="10.00">3</text>
</a>
</g>
</g>
<!-- dir_5815af820a9cc9481f1d0990a0d60286 -->
<g id="node3" class="node">
<title>dir_5815af820a9cc9481f1d0990a0d60286</title>
<g id="a_node3"><a xlink:href="dir_5815af820a9cc9481f1d0990a0d60286.xhtml" target="_top" xlink:title="support">
<polygon fill="none" stroke="black" points="86,-36 32,-36 32,0 86,0 86,-36"/>
<text text-anchor="middle" x="59" y="-15.5" font-family="Helvetica,sans-Serif" font-size="10.00">support</text>
</a>
</g>
</g>
<!-- dir_187b9d58414f06fbebe4df2ec38d20a5&#45;&gt;dir_5815af820a9cc9481f1d0990a0d60286 -->
<g id="edge2" class="edge">
<title>dir_187b9d58414f06fbebe4df2ec38d20a5&#45;&gt;dir_5815af820a9cc9481f1d0990a0d60286</title>
<path fill="none" stroke="black" d="M32.91,-215.99C16.5,-186 -12.21,-122.14 8,-72 12.35,-61.21 20.06,-51.39 28.19,-43.21"/>
<polygon fill="black" stroke="black" points="30.79,-45.57 35.7,-36.18 26,-40.46 30.79,-45.57"/>
<g id="a_edge2&#45;headlabel"><a xlink:href="dir_000498_000031.xhtml" target="_top" xlink:title="1">
<text text-anchor="middle" x="30.11" y="-47.6" font-family="Helvetica,sans-Serif" font-size="10.00">1</text>
</a>
</g>
</g>
<!-- dir_fdedb0aba14d44ce9d99bc100e026e6a -->
<g id="node4" class="node">
<title>dir_fdedb0aba14d44ce9d99bc100e026e6a</title>
<g id="a_node4"><a xlink:href="dir_fdedb0aba14d44ce9d99bc100e026e6a.xhtml" target="_top" xlink:title="common">
<polygon fill="white" stroke="red" points="130.5,-180 71.5,-180 71.5,-144 130.5,-144 130.5,-180"/>
<text text-anchor="middle" x="101" y="-159.5" font-family="Helvetica,sans-Serif" font-size="10.00">common</text>
</a>
</g>
</g>
<!-- dir_187b9d58414f06fbebe4df2ec38d20a5&#45;&gt;dir_fdedb0aba14d44ce9d99bc100e026e6a -->
<g id="edge3" class="edge">
<title>dir_187b9d58414f06fbebe4df2ec38d20a5&#45;&gt;dir_fdedb0aba14d44ce9d99bc100e026e6a</title>
<path fill="none" stroke="black" d="M57.34,-215.7C64.29,-207.3 72.77,-197.07 80.4,-187.86"/>
<polygon fill="black" stroke="black" points="83.14,-190.04 86.83,-180.1 77.75,-185.57 83.14,-190.04"/>
<g id="a_edge3&#45;headlabel"><a xlink:href="dir_000498_000016.xhtml" target="_top" xlink:title="1">
<text text-anchor="middle" x="83.04" y="-192.12" font-family="Helvetica,sans-Serif" font-size="10.00">1</text>
</a>
</g>
</g>
<!-- dir_214608ef36d61442cb2b0c1c4e9a7def&#45;&gt;dir_5815af820a9cc9481f1d0990a0d60286 -->
<g id="edge4" class="edge">
<title>dir_214608ef36d61442cb2b0c1c4e9a7def&#45;&gt;dir_5815af820a9cc9481f1d0990a0d60286</title>
<path fill="none" stroke="black" d="M53.08,-71.7C52.29,-63.98 52.06,-54.71 52.4,-46.11"/>
<polygon fill="black" stroke="black" points="55.9,-46.32 53.1,-36.1 48.92,-45.84 55.9,-46.32"/>
<g id="a_edge4&#45;headlabel"><a xlink:href="dir_000000_000031.xhtml" target="_top" xlink:title="16">
<text text-anchor="middle" x="58.48" y="-47.61" font-family="Helvetica,sans-Serif" font-size="10.00">16</text>
</a>
</g>
</g>
<!-- dir_5815af820a9cc9481f1d0990a0d60286&#45;&gt;dir_214608ef36d61442cb2b0c1c4e9a7def -->
<g id="edge5" class="edge">
<title>dir_5815af820a9cc9481f1d0990a0d60286&#45;&gt;dir_214608ef36d61442cb2b0c1c4e9a7def</title>
<path fill="none" stroke="black" d="M64.9,-36.1C65.7,-43.79 65.94,-53.05 65.6,-61.67"/>
<polygon fill="black" stroke="black" points="62.11,-61.48 64.92,-71.7 69.09,-61.96 62.11,-61.48"/>
<g id="a_edge5&#45;headlabel"><a xlink:href="dir_000031_000000.xhtml" target="_top" xlink:title="6">
<text text-anchor="middle" x="59.52" y="-55.2" font-family="Helvetica,sans-Serif" font-size="10.00">6</text>
</a>
</g>
</g>
<!-- dir_fdedb0aba14d44ce9d99bc100e026e6a&#45;&gt;dir_214608ef36d61442cb2b0c1c4e9a7def -->
<g id="edge6" class="edge">
<title>dir_fdedb0aba14d44ce9d99bc100e026e6a&#45;&gt;dir_214608ef36d61442cb2b0c1c4e9a7def</title>
<path fill="none" stroke="black" d="M90.62,-143.7C85.74,-135.56 79.81,-125.69 74.42,-116.7"/>
<polygon fill="black" stroke="black" points="77.41,-114.88 69.26,-108.1 71.41,-118.48 77.41,-114.88"/>
<g id="a_edge6&#45;headlabel"><a xlink:href="dir_000016_000000.xhtml" target="_top" xlink:title="17">
<text text-anchor="middle" x="81.69" y="-114" font-family="Helvetica,sans-Serif" font-size="10.00">17</text>
</a>
</g>
</g>
<!-- dir_fdedb0aba14d44ce9d99bc100e026e6a&#45;&gt;dir_5815af820a9cc9481f1d0990a0d60286 -->
<g id="edge7" class="edge">
<title>dir_fdedb0aba14d44ce9d99bc100e026e6a&#45;&gt;dir_5815af820a9cc9481f1d0990a0d60286</title>
<path fill="none" stroke="black" d="M107.34,-143.93C113.15,-125.5 119.52,-95.62 110,-72 105.65,-61.21 97.94,-51.39 89.81,-43.21"/>
<polygon fill="black" stroke="black" points="92,-40.46 82.3,-36.18 87.21,-45.57 92,-40.46"/>
<g id="a_edge7&#45;headlabel"><a xlink:href="dir_000016_000031.xhtml" target="_top" xlink:title="2">
<text text-anchor="middle" x="96.56" y="-38.35" font-family="Helvetica,sans-Serif" font-size="10.00">2</text>
</a>
</g>
</g>
</g>
</svg>
