<?xml version="1.0" encoding="UTF-8" standalone="no"?>
<!DOCTYPE svg PUBLIC "-//W3C//DTD SVG 1.1//EN"
 "http://www.w3.org/Graphics/SVG/1.1/DTD/svg11.dtd">
<!-- Generated by graphviz version 2.43.0 (0)
 -->
<!-- Title: Graphical Class Hierarchy Pages: 1 -->
<svg width="341pt" height="104pt"
 viewBox="0.00 0.00 341.00 104.00" xmlns="http://www.w3.org/2000/svg" xmlns:xlink="http://www.w3.org/1999/xlink">
<g id="graph0" class="graph" transform="scale(1 1) rotate(0) translate(4 100)">
<title>Graphical Class Hierarchy</title>
<polygon fill="white" stroke="transparent" points="-4,4 -4,-100 337,-100 337,4 -4,4"/>
<!-- Node0 -->
<g id="node1" class="node">
<title>Node0</title>
<g id="a_node1"><a xlink:href="classarm__compute_1_1cl__gemm_1_1_i_c_l_g_e_m_m_kernel_selection.xhtml" target="_top" xlink:title="Basic interface for the GEMM kernel selection.">
<polygon fill="white" stroke="black" points="0,-38.5 0,-57.5 139,-57.5 139,-38.5 0,-38.5"/>
<text text-anchor="middle" x="69.5" y="-45.5" font-family="Helvetica,sans-Serif" font-size="10.00">ICLGEMMKernelSelection</text>
</a>
</g>
</g>
<!-- Node1 -->
<g id="node2" class="node">
<title>Node1</title>
<g id="a_node2"><a xlink:href="classarm__compute_1_1cl__gemm_1_1_c_l_g_e_m_m_default_type_bifrost.xhtml" target="_top" xlink:title="Bifrost based OpenCL GEMMKernel selection.">
<polygon fill="white" stroke="black" points="178.5,-76.5 178.5,-95.5 329.5,-95.5 329.5,-76.5 178.5,-76.5"/>
<text text-anchor="middle" x="254" y="-83.5" font-family="Helvetica,sans-Serif" font-size="10.00">CLGEMMDefaultTypeBifrost</text>
</a>
</g>
</g>
<!-- Node0&#45;&gt;Node1 -->
<g id="edge1" class="edge">
<title>Node0&#45;&gt;Node1</title>
<path fill="none" stroke="midnightblue" d="M126.6,-59.68C152.48,-65.07 182.81,-71.39 207.28,-76.48"/>
<polygon fill="midnightblue" stroke="midnightblue" points="127.06,-56.2 116.55,-57.59 125.63,-63.05 127.06,-56.2"/>
</g>
<!-- Node2 -->
<g id="node3" class="node">
<title>Node2</title>
<g id="a_node3"><a xlink:href="classarm__compute_1_1cl__gemm_1_1_c_l_g_e_m_m_default_type_midgard.xhtml" target="_top" xlink:title="Midgard based OpenCL GEMMKernel selection.">
<polygon fill="white" stroke="black" points="175,-38.5 175,-57.5 333,-57.5 333,-38.5 175,-38.5"/>
<text text-anchor="middle" x="254" y="-45.5" font-family="Helvetica,sans-Serif" font-size="10.00">CLGEMMDefaultTypeMidgard</text>
</a>
</g>
</g>
<!-- Node0&#45;&gt;Node2 -->
<g id="edge2" class="edge">
<title>Node0&#45;&gt;Node2</title>
<path fill="none" stroke="midnightblue" d="M149.42,-48C157.85,-48 166.42,-48 174.83,-48"/>
<polygon fill="midnightblue" stroke="midnightblue" points="149.24,-44.5 139.24,-48 149.24,-51.5 149.24,-44.5"/>
</g>
<!-- Node3 -->
<g id="node4" class="node">
<title>Node3</title>
<g id="a_node4"><a xlink:href="classarm__compute_1_1cl__gemm_1_1_c_l_g_e_m_m_default_type_valhall.xhtml" target="_top" xlink:title="Valhall based OpenCL GEMMKernel selection.">
<polygon fill="white" stroke="black" points="178,-0.5 178,-19.5 330,-19.5 330,-0.5 178,-0.5"/>
<text text-anchor="middle" x="254" y="-7.5" font-family="Helvetica,sans-Serif" font-size="10.00">CLGEMMDefaultTypeValhall</text>
</a>
</g>
</g>
<!-- Node0&#45;&gt;Node3 -->
<g id="edge3" class="edge">
<title>Node0&#45;&gt;Node3</title>
<path fill="none" stroke="midnightblue" d="M126.6,-36.32C152.48,-30.93 182.81,-24.61 207.28,-19.52"/>
<polygon fill="midnightblue" stroke="midnightblue" points="125.63,-32.95 116.55,-38.41 127.06,-39.8 125.63,-32.95"/>
</g>
</g>
</svg>
